<?xml version="1.0" encoding="UTF-8" standalone="no"?>
<!-- Created with Inkscape (http://www.inkscape.org/) -->

<svg
   width="500"
   height="250"
   viewBox="0 0 132.29166 66.145833"
   version="1.1"
   id="svg1"
   inkscape:version="1.3.2 (091e20e, 2023-11-25, custom)"
   sodipodi:docname="o01.svg"
   xmlns:inkscape="http://www.inkscape.org/namespaces/inkscape"
   xmlns:sodipodi="http://sodipodi.sourceforge.net/DTD/sodipodi-0.dtd"
   xmlns="http://www.w3.org/2000/svg"
   xmlns:svg="http://www.w3.org/2000/svg">
  <sodipodi:namedview
     id="namedview1"
     pagecolor="#9e652e"
     bordercolor="#ffffff"
     borderopacity="1"
     inkscape:showpageshadow="0"
     inkscape:pageopacity="0"
     inkscape:pagecheckerboard="false"
     inkscape:deskcolor="#d1d1d1"
     inkscape:document-units="mm"
     inkscape:zoom="2.0208096"
     inkscape:cx="225.15728"
     inkscape:cy="106.88785"
     inkscape:window-width="1920"
     inkscape:window-height="1009"
     inkscape:window-x="1912"
     inkscape:window-y="-8"
     inkscape:window-maximized="1"
     inkscape:current-layer="layer1" />
  <defs
     id="defs1">
    <rect
       x="560.66638"
       y="34.144731"
       width="279.32397"
       height="128.59143"
       id="rect6" />
    <rect
       x="157.85752"
       y="62.351248"
       width="329.07603"
       height="135.09437"
       id="rect4" />
    <rect
       x="157.85751"
       y="62.35125"
       width="329.07602"
       height="135.09438"
       id="rect4-5" />
  </defs>
  <g
     inkscape:label="Layer 1"
     inkscape:groupmode="layer"
     id="layer1">
    <rect
       style="fill:#ffa000;fill-opacity:1;stroke:none;stroke-width:0.953294;stroke-dasharray:none"
       id="rect5"
       width="132.29167"
       height="66.145836"
       x="-2.5431316e-06"
       y="-1.2715658e-06"
       ry="0" />
    <g
       id="g1"
       transform="translate(-8.7373168)">
      <path
         id="rect1"
         style="fill-opacity:0;stroke:#000000;stroke-width:0.942789"
         d="m 39.737549,14.352791 h 12.425165 c 3.927061,0 7.088558,3.161497 7.088558,7.088559 v 23.263136 c 0,3.927062 -3.161497,7.088559 -7.088558,7.088559 H 39.737549 c -3.927061,0 -7.088558,-3.161497 -7.088558,-7.088559 V 21.44135 c 0,-3.927062 3.161497,-7.088559 7.088558,-7.088559 z" />
      <path
         style="font-size:12.8597px;line-height:1.25;font-family:'AR UDJingXiHeiE1G30 EB';-inkscape-font-specification:'AR UDJingXiHeiE1G30 EB';stroke-width:0.26791"
         d="m 50.592501,26.026667 q 0,2.237588 -1.247391,3.510698 -1.234531,1.260251 -3.382101,1.260251 -2.186149,0 -3.42068,-1.273111 -1.234532,-1.27311 -1.234532,-3.497838 0,-2.263308 1.247391,-3.549278 1.247391,-1.298829 3.407821,-1.298829 2.186149,0 3.40782,1.28597 1.221672,1.28597 1.221672,3.562137 z m -4.629492,3.497838 q 1.401707,0 2.160429,-0.925898 0.771582,-0.925899 0.771582,-2.57194 0,-1.633182 -0.771582,-2.59766 -0.771582,-0.977337 -2.160429,-0.977337 -1.414567,0 -2.199009,0.990197 -0.771582,0.977337 -0.771582,2.5848 0,1.646041 0.784442,2.57194 0.784441,0.925898 2.186149,0.925898 z"
         id="text2"
         aria-label="O" />
      <path
         style="font-size:14.3917px;line-height:1.25;font-family:'AR UDJingXiHeiE1G30 EB';-inkscape-font-specification:'AR UDJingXiHeiE1G30 EB';stroke-width:0.261667"
         d="m 45.316873,39.692779 q 0,2.720031 -0.877894,4.015284 -0.877893,1.295253 -2.720031,1.295253 -1.784571,0 -2.705639,-1.295253 -0.921069,-1.295253 -0.921069,-4.015284 0,-2.907123 0.877893,-4.173593 0.877894,-1.280861 2.748815,-1.280861 1.827746,0 2.70564,1.280861 0.892285,1.26647 0.892285,4.173593 z m -3.597925,3.885759 q 0.921069,0 1.35282,-0.906677 0.431751,-0.921069 0.431751,-2.979082 0,-2.216322 -0.417359,-3.122999 -0.402968,-0.906677 -1.367212,-0.906677 -0.964244,0 -1.381603,0.921069 -0.417359,0.906677 -0.417359,3.108607 0,2.043622 0.431751,2.96469 0.431751,0.921069 1.367211,0.921069 z m 7.886641,-6.994366 -1.683828,1.568695 -0.834719,-1.280861 2.70564,-2.460981 h 1.568695 v 10.405199 h -1.755788 z"
         id="text3"
         aria-label="01" />
      <path
         style="font-weight:500;font-size:72px;line-height:1.25;font-family:'Noto Sans TC';-inkscape-font-specification:'Noto Sans TC Medium';white-space:pre"
         d="m 162.03342,81.297406 h 63.648 v 6.408 h -63.648 z m 15.264,29.808004 h 33.264 v 5.4 h -33.264 z m -1.512,11.592 h 36.216 v 5.616 h -36.216 z m 14.616,-8.928 h 6.48 v 26.064 h -6.48 z m -24.984,-19.440004 h 52.128 v 6.336004 h -45.288 v 40.68 h -6.84 z m 50.04,0 h 6.912 v 39.744004 q 0,2.736 -0.72,4.176 -0.72,1.44 -2.736,2.16 -1.944,0.72 -5.112,0.864 -3.096,0.144 -7.488,0.144 -0.216,-1.296 -0.936,-3.024 -0.648,-1.656 -1.368,-2.88 2.088,0.072 4.032,0.072 2.016,0.072 3.6,0 1.584,0 2.16,0 1.008,0 1.296,-0.288 0.36,-0.36 0.36,-1.224 z m -34.848,8.496004 5.4,-1.656 q 1.368,1.872 2.592,4.176 1.224,2.304 1.8,4.032 l -5.76,2.016 q -0.432,-1.8 -1.656,-4.176 -1.152,-2.448 -2.376,-4.392 z m 21.24,-1.656 5.76,1.728 q -1.368,2.664 -2.88,5.328 -1.512,2.664 -2.88,4.536 l -4.896,-1.512 q 0.864,-1.368 1.728,-3.168 0.936,-1.8 1.728,-3.6 0.864,-1.8 1.44,-3.312 z m -11.664,-26.280004 h 7.488 v 23.832 h -7.488 z m 56.376,22.896 h 6.192 v 14.616004 l -6.192,0.432 z m -12.96,-11.592 h 32.544 v 4.536 h -32.544 z m 2.664,-7.632 h 27.144 v 4.32 h -27.144 z m 10.296,-3.888 h 6.192 v 14.4 h -6.192 z m -13.464,35.928004 q 4.032,-0.144 9.144,-0.432 5.112,-0.288 10.872,-0.648 5.76,-0.432 11.592,-0.792 l -0.072,4.608 q -5.616,0.432 -11.232,0.864 -5.544,0.36 -10.656,0.792 -5.112,0.36 -9.216,0.648 z m 9.216,-21.096004 5.04,0.288 q -0.792,4.32 -3.888,6.984 -3.024,2.592 -7.776,3.960004 -0.36,-0.792004 -1.152,-2.088004 -0.792,-1.296 -1.512,-2.016 3.744,-0.864 6.192,-2.52 2.52,-1.656 3.096,-4.608 z m -6.12,11.880004 h 27.432 v 4.32 h -27.432 z m 1.728,18.216 h 49.752 v 5.256 h -49.752 z m 48.24,0 h 6.984 q 0,0 -0.072,0.504 -0.072,0.504 -0.144,1.152 0,0.648 -0.072,1.08 -0.576,5.112 -1.224,8.568 -0.576,3.384 -1.368,5.4 -0.72,2.016 -1.8,2.952 -1.152,1.152 -2.52,1.584 -1.296,0.432 -3.168,0.504 -1.584,0.144 -4.32,0.144 -2.736,0 -5.904,-0.144 -0.072,-1.44 -0.648,-3.168 -0.504,-1.728 -1.368,-2.952 2.952,0.216 5.616,0.288 2.736,0.144 3.816,0.144 1.152,0 1.728,-0.144 0.648,-0.072 1.152,-0.504 0.72,-0.648 1.296,-2.232 0.576,-1.656 1.08,-4.608 0.504,-3.024 0.864,-7.704 z m -24.192,-4.032 h 6.912 q -0.576,4.32 -1.728,7.992 -1.152,3.6 -3.24,6.48 -2.088,2.88 -5.616,5.112 -3.456,2.232 -8.712,3.816 -5.184,1.656 -12.6,2.664 -0.36,-1.152 -1.368,-2.808 -0.936,-1.656 -1.728,-2.736 6.768,-0.792 11.448,-2.016 4.68,-1.296 7.704,-3.024 3.024,-1.728 4.824,-3.96 1.8,-2.304 2.664,-5.184 0.936,-2.88 1.44,-6.336 z m 4.248,-18.792004 2.952,-4.248 q 2.808,1.584 6.048,3.528 3.24,1.872 6.192,3.744 3.024,1.872004 4.968,3.312004 l -3.024,4.896 q -1.872,-1.512 -4.824,-3.456 -2.952,-1.944 -6.192,-3.96 -3.24,-2.088004 -6.12,-3.816004 z m 1.512,-13.896 h 21.672 v 5.544 h -21.672 z m 19.152,0 h 6.12 q 0,5.832 0,10.944 0.072,5.04 0.216,8.856004 0.216,3.744 0.72,5.904 0.504,2.088 1.44,2.088 0.648,0.072 0.864,-2.376 0.288,-2.52 0.36,-6.264 0.864,1.008 1.872,2.088 1.08,1.008 2.016,1.656 -0.432,5.688 -1.512,8.28 -1.08,2.52 -4.104,2.52 -2.952,0 -4.608,-2.52 -1.584,-2.52 -2.304,-7.056 -0.648,-4.536 -0.864,-10.656004 -0.144,-6.192 -0.216,-13.464 z m -11.52,-8.208 h 5.832 q -0.072,7.488 -0.576,13.68 -0.432,6.192 -1.728,11.232 -1.296,5.040004 -3.888,8.856004 -2.52,3.816 -6.768,6.696 -0.504,-1.008 -1.656,-2.304 -1.152,-1.368 -2.088,-2.016 3.744,-2.52 5.904,-5.904 2.16,-3.384 3.168,-7.848004 1.008,-4.464 1.368,-10.008 0.36,-5.544 0.432,-12.384 z m -23.4,13.968 h 5.112 v 4.248 q 0,1.008 0.144,1.44 0.216,0.36 0.936,0.36 0.36,0 0.936,0 0.648,0 1.296,0 0.648,0 1.008,0 0.648,0 1.656,-0.072 1.08,-0.072 1.728,-0.216 0.072,0.936 0.144,2.016 0.072,1.008 0.216,1.944 -0.648,0.216 -1.656,0.288 -1.008,0.072 -1.944,0.072 -0.504,0 -1.44,0 -0.864,0 -1.8,0 -0.864,0 -1.368,0 -3.168,0 -4.104,-1.44 -0.864,-1.44 -0.864,-4.464 z m 67.248,2.52 h 42.768 v 5.976 h -42.768 z m 0,14.256004 h 41.688 v 5.76 h -41.688 z m -1.224,14.472 h 43.128 v 5.904 h -43.128 z m -2.592,-28.728004 h 6.624 v 18.360004 q 0,3.888 -0.504,8.28 -0.504,4.32 -1.872,8.64 -1.368,4.32 -4.032,8.28 -2.592,3.96 -6.84,7.128 -0.432,-0.648 -1.368,-1.584 -0.864,-0.936 -1.8,-1.872 -0.864,-0.864 -1.584,-1.368 3.816,-2.88 6.12,-6.264 2.304,-3.384 3.384,-6.984 1.152,-3.672 1.512,-7.272 0.36,-3.672 0.36,-7.056 z m 42.984,0 h 6.768 v 42.264004 q 0,3.024 -0.936,4.608 -0.864,1.656 -3.096,2.448 -2.232,0.792 -5.976,0.936 -3.672,0.216 -9.072,0.216 -0.216,-0.936 -0.648,-2.16 -0.36,-1.152 -0.936,-2.376 -0.504,-1.152 -1.008,-2.016 2.736,0.072 5.328,0.144 2.664,0 4.68,0 2.016,0 2.808,-0.072 1.224,0 1.656,-0.36 0.432,-0.432 0.432,-1.44 z m -21.96,2.52 h 6.48 v 29.232004 h -6.48 z m -11.16,-14.904 h 22.392 v 5.688 h -22.392 z m -0.072,-4.392 7.344,1.368 q -2.448,4.392 -5.616,8.928 -3.168,4.536 -7.272,8.856 -4.104,4.248 -9.216,7.992004 -0.504,-0.792 -1.368,-1.728004 -0.864,-1.008 -1.8,-1.8 -0.936,-0.864 -1.728,-1.368 4.824,-3.24 8.568,-6.984 3.744,-3.816 6.552,-7.704 2.808,-3.96 4.536,-7.56 z m 20.16,4.392 h 1.512 l 1.08,-0.288 4.608,3.024 q -1.296,2.448 -3.024,5.112 -1.728,2.592 -3.672,5.04 -1.872,2.448 -3.6,4.32 -0.864,-0.792 -2.304,-1.656 -1.368,-0.936 -2.52,-1.512 1.512,-1.728 3.024,-3.96 1.512,-2.304 2.808,-4.608 1.296,-2.376 2.088,-4.176 z"
         id="text4"
         transform="matrix(0.26166763,0,0,0.26166763,21.692958,-4.0633201)"
         aria-label="南勢角" />
      <path
         style="font-size:7.32669px;line-height:1.25;font-family:'AR UDJingXiHeiE1G30 EB';-inkscape-font-specification:'AR UDJingXiHeiE1G30 EB';stroke-width:0.261667"
         d="m 65.146897,37.061886 v 3.824533 h -0.93049 v -5.297197 h 0.959796 l 2.600975,3.912452 v -3.912452 h 0.93049 v 5.297197 h -1.01841 z m 7.597772,1.685139 -0.835242,-2.263947 -0.849896,2.263947 z m -1.956226,0.725343 -0.527522,1.414051 h -0.945143 l 2.132067,-5.297197 h 0.95247 l 2.117413,5.297197 h -0.967123 l -0.534848,-1.414051 z m 5.267883,-2.410482 v 3.824533 h -0.93049 v -5.297197 h 0.959797 l 2.600975,3.912452 v -3.912452 h 0.93049 v 5.297197 h -1.01841 z m 6.535403,1.428705 Q 81.624606,38.31475 81.155698,37.948416 80.68679,37.582081 80.68679,36.922679 q 0,-0.615442 0.498215,-1.01841 0.505541,-0.402968 1.553258,-0.402968 0.959796,0 1.487318,0.410295 0.527522,0.410295 0.578809,1.186924 H 83.8739 q -0.0073,-0.373661 -0.293068,-0.622769 -0.285741,-0.249107 -0.871876,-0.249107 -0.549502,0 -0.813262,0.183167 -0.263761,0.183167 -0.256435,0.512868 0,0.359008 0.351682,0.534849 0.359007,0.17584 1.164943,0.337027 1.011084,0.205148 1.436032,0.556829 0.432274,0.351681 0.432274,1.055043 0,0.674056 -0.571481,1.128311 -0.571482,0.446928 -1.626526,0.446928 -1.077023,0 -1.677812,-0.454255 -0.600788,-0.454255 -0.600788,-1.311478 h 0.930489 q 0,0.476235 0.359008,0.761976 0.359008,0.278414 0.99643,0.278414 0.586135,0 0.915836,-0.227127 0.329701,-0.227127 0.329701,-0.593462 0,-0.424948 -0.329701,-0.608115 -0.329701,-0.183167 -1.157617,-0.337028 z m 4.234826,0.04396 v 2.351868 h -0.930489 v -5.297197 h 0.930489 v 2.219987 h 2.542362 v -2.219987 h 0.93049 v 5.297197 h -0.93049 v -2.351868 z m 5.619574,-2.945329 v 5.297197 h -0.93049 v -5.297197 z m 1.860974,3.941759 q 0,0.337028 0.168514,0.527522 0.168514,0.190494 0.542175,0.190494 0.366335,0.0073 0.556829,-0.197821 0.190494,-0.212474 0.190494,-0.600789 v -3.861165 h 0.923163 v 3.941759 q 0,0.666729 -0.439602,1.06237 -0.432275,0.388315 -1.23821,0.388315 -0.783956,0 -1.208904,-0.380988 -0.424948,-0.388315 -0.424948,-0.989103 v -0.468909 h 0.930489 z m 4.491256,-3.941759 v 5.297197 h -0.93049 v -5.297197 z m 4.037001,3.157803 -0.83524,-2.263947 -0.8499,2.263947 z m -1.95622,0.725343 -0.52753,1.414051 h -0.945139 l 2.132069,-5.297197 h 0.95247 l 2.11741,5.297197 h -0.96712 l -0.53485,-1.414051 z m 9.42944,-1.208904 q 0,1.274844 -0.71069,2.000186 -0.70336,0.718016 -1.92692,0.718016 -1.24554,0 -1.9489,-0.725343 -0.70336,-0.725342 -0.70336,-1.992859 0,-1.289498 0.71069,-2.022167 0.71069,-0.739996 1.94157,-0.739996 1.24554,0 1.94157,0.732669 0.69604,0.732669 0.69604,2.029494 z m -2.63761,1.992859 q 0.79861,0 1.23088,-0.527521 0.43961,-0.527522 0.43961,-1.465338 0,-0.93049 -0.43961,-1.479992 -0.4396,-0.556828 -1.23088,-0.556828 -0.80594,0 -1.25286,0.564155 -0.43961,0.556828 -0.43961,1.472665 0,0.937816 0.44693,1.465338 0.44693,0.527521 1.24554,0.527521 z"
         id="text5"
         aria-label="NANSHIJIAO" />
      <path
         d="m 63.903754,44.084106 h 6.476794 v 0.652075 h -6.476794 z m 1.553258,3.033249 h 3.384931 v 0.549502 h -3.384931 z m -0.153861,1.179598 h 3.685326 v 0.571481 h -3.685326 z m 1.487319,-0.90851 h 0.659402 v 2.652262 H 66.79047 Z m -2.542362,-1.978206 h 5.304524 v 0.644748 h -4.608488 v 4.13958 h -0.696036 z m 5.09205,0 h 0.703362 v 4.044333 q 0,0.278414 -0.07327,0.424948 -0.07327,0.146533 -0.278414,0.2198 -0.197821,0.07327 -0.520195,0.08792 -0.315048,0.01465 -0.761976,0.01465 -0.02198,-0.13188 -0.09525,-0.307721 -0.06594,-0.168514 -0.139207,-0.293068 0.212474,0.0073 0.410295,0.0073 0.205147,0.0073 0.366334,0 0.161187,0 0.219801,0 0.102573,0 0.13188,-0.02931 0.03663,-0.03663 0.03663,-0.124553 z m -3.546118,0.864549 0.549501,-0.168514 q 0.139208,0.190494 0.263761,0.424948 0.124554,0.234454 0.183168,0.410295 l -0.586136,0.205147 q -0.04396,-0.183167 -0.168514,-0.424948 -0.117227,-0.249107 -0.24178,-0.446928 z m 2.161373,-0.168514 0.586135,0.175841 q -0.139207,0.271087 -0.293067,0.542175 -0.153861,0.271087 -0.293068,0.461581 l -0.498215,-0.15386 q 0.08792,-0.139207 0.175841,-0.322375 0.09525,-0.183167 0.17584,-0.366334 0.08792,-0.183167 0.146534,-0.337028 z M 66.768489,43.43203 h 0.761976 v 2.425135 h -0.761976 z m 5.736799,2.329888 h 0.630095 v 1.487318 l -0.630095,0.04396 z m -1.318804,-1.179597 h 3.311664 v 0.461581 h -3.311664 z m 0.271087,-0.77663 h 2.762162 v 0.439602 h -2.762162 z m 1.047717,-0.395641 h 0.630095 v 1.465338 h -0.630095 z m -1.370091,3.656019 q 0.410294,-0.01465 0.930489,-0.04396 0.520195,-0.02931 1.106331,-0.06594 0.586135,-0.04396 1.179597,-0.08059 l -0.0073,0.468908 q -0.571482,0.04396 -1.142964,0.08792 -0.564155,0.03663 -1.08435,0.08059 -0.520195,0.03663 -0.937816,0.06594 z m 0.937816,-2.146721 0.512868,0.02931 q -0.08059,0.439602 -0.395641,0.710689 -0.307721,0.263761 -0.791282,0.402968 -0.03663,-0.08059 -0.117227,-0.212474 -0.08059,-0.13188 -0.153861,-0.205147 0.380988,-0.08792 0.630095,-0.256434 0.256435,-0.168514 0.315048,-0.468909 z m 0.967123,-0.1099 h 0.527522 v 0.505542 q 0,0.09525 0.01465,0.117227 0.02198,0.02198 0.09525,0.02198 0.02198,0 0.07327,0 0.05861,0 0.117227,0 0.05861,0 0.08059,0 0.07327,0 0.09525,-0.04396 0.02198,-0.04396 0.03663,-0.212474 0.07327,0.05129 0.197821,0.09525 0.124554,0.03663 0.227127,0.05129 -0.02198,0.285741 -0.13188,0.395642 -0.1099,0.102573 -0.344355,0.102573 -0.04396,0 -0.13188,0 -0.08792,0 -0.175841,0 -0.08059,0 -0.13188,0 -0.219801,0 -0.344354,-0.04396 -0.117227,-0.05129 -0.161188,-0.161187 -0.04396,-0.117227 -0.04396,-0.322374 z m -1.589892,1.318804 h 2.791469 v 0.439602 h -2.791469 z m 0.175841,1.853653 h 5.062743 v 0.534848 h -5.062743 z m 4.908882,0 h 0.710689 q 0,0 -0.0073,0.05129 -0.0073,0.05129 -0.01465,0.117227 0,0.06594 -0.0073,0.1099 -0.05861,0.520195 -0.124554,0.871876 -0.05861,0.344355 -0.139207,0.549502 -0.07327,0.205147 -0.183167,0.300394 -0.117227,0.117227 -0.256435,0.161187 -0.13188,0.04396 -0.322374,0.05129 -0.161187,0.01465 -0.439601,0.01465 -0.278415,0 -0.600789,-0.01465 -0.0073,-0.146534 -0.06594,-0.322374 -0.05129,-0.175841 -0.139207,-0.300394 0.300394,0.02198 0.571482,0.02931 0.278414,0.01465 0.388314,0.01465 0.117227,0 0.175841,-0.01465 0.06594,-0.0073 0.117227,-0.05129 0.07327,-0.06594 0.13188,-0.227128 0.05861,-0.168514 0.109901,-0.468908 0.05129,-0.307721 0.08792,-0.783956 z M 74.0732,47.57161 h 0.703362 q -0.05861,0.439602 -0.175841,0.813263 -0.117227,0.366334 -0.329701,0.659402 -0.212474,0.293068 -0.571482,0.520195 -0.351681,0.227127 -0.886529,0.388315 -0.527522,0.168513 -1.282171,0.271087 -0.03663,-0.117227 -0.139207,-0.285741 -0.09525,-0.168514 -0.175841,-0.278414 0.688709,-0.08059 1.164944,-0.205147 0.476235,-0.131881 0.783956,-0.307721 0.307721,-0.175841 0.490888,-0.402968 0.183167,-0.234454 0.271088,-0.527522 0.09525,-0.293068 0.146534,-0.644749 z m 0.432274,-1.912266 0.293068,-0.439601 q 0.315048,0.139207 0.644749,0.322374 0.337027,0.183167 0.630095,0.380988 0.300394,0.197821 0.483562,0.373661 l -0.307721,0.505542 Q 76.073386,46.61914 75.780318,46.413993 75.494577,46.201519 75.15755,46.003699 74.827849,45.805878 74.505474,45.659344 Z m 0.153861,-1.414051 h 2.205334 v 0.564155 h -2.205334 z m 1.948899,0 h 0.622769 q 0,0.593462 0,1.113657 0.0073,0.512868 0.02198,0.901183 0.02198,0.380988 0.07327,0.600788 0.05129,0.212474 0.146534,0.212474 0.06594,0.0073 0.08792,-0.241781 0.02931,-0.256434 0.03663,-0.637422 0.08792,0.102574 0.190493,0.212474 0.109901,0.102574 0.205148,0.168514 -0.04396,0.578809 -0.153861,0.84257 -0.1099,0.256434 -0.417621,0.256434 -0.300394,0 -0.468908,-0.256434 -0.161187,-0.256434 -0.234454,-0.718016 -0.06594,-0.461581 -0.08792,-1.08435 -0.01465,-0.630095 -0.02198,-1.370091 z m -1.17227,-0.835243 h 0.593462 q -0.0073,0.761976 -0.05861,1.392071 -0.04396,0.630096 -0.17584,1.142964 -0.131881,0.512868 -0.395642,0.901183 -0.256434,0.388314 -0.688708,0.681382 -0.05129,-0.102574 -0.168514,-0.234454 -0.117227,-0.139207 -0.212474,-0.205147 0.380988,-0.256435 0.600788,-0.600789 0.219801,-0.344354 0.322375,-0.798609 0.102573,-0.454255 0.139207,-1.01841 0.03663,-0.564155 0.04396,-1.260191 z m 4.461954,1.677812 h 4.352054 v 0.608116 h -4.352054 z m 0,1.450685 h 4.242154 v 0.586135 h -4.242154 z m -0.124553,1.472665 h 4.388687 V 48.612 h -4.388687 z m -0.263761,-2.92335 h 0.674055 v 1.868306 q 0,0.395642 -0.05129,0.84257 -0.05129,0.439601 -0.190494,0.879202 -0.139207,0.439602 -0.410294,0.84257 -0.263761,0.402968 -0.696036,0.725342 -0.04396,-0.06594 -0.139207,-0.161187 -0.08792,-0.09525 -0.183167,-0.190494 -0.08792,-0.08792 -0.161187,-0.139207 0.388314,-0.293068 0.622768,-0.637422 0.234454,-0.344355 0.344355,-0.710689 0.117227,-0.373661 0.15386,-0.739996 0.03663,-0.373661 0.03663,-0.718015 z m 4.374034,0 h 0.688709 v 4.300767 q 0,0.307721 -0.09525,0.468909 -0.08792,0.168513 -0.315048,0.249107 -0.227127,0.08059 -0.608115,0.09525 -0.373662,0.02198 -0.923163,0.02198 -0.02198,-0.09525 -0.06594,-0.219801 -0.03663,-0.117227 -0.09525,-0.24178 -0.05129,-0.117227 -0.102574,-0.205148 0.278414,0.0073 0.542175,0.01465 0.271087,0 0.476235,0 0.205147,0 0.285741,-0.0073 0.124553,0 0.168514,-0.03663 0.04396,-0.04396 0.04396,-0.146533 z m -2.234641,0.256434 h 0.659402 v 2.974637 H 81.648997 Z M 80.51336,43.827672 h 2.278601 V 44.40648 H 80.51336 Z m -0.0073,-0.446929 0.747322,0.139208 q -0.249108,0.446928 -0.571482,0.908509 -0.322374,0.461582 -0.739996,0.901183 -0.417621,0.432275 -0.937816,0.813263 -0.05129,-0.08059 -0.139207,-0.175841 -0.08792,-0.102574 -0.183167,-0.183167 -0.09525,-0.08792 -0.175841,-0.139207 0.490888,-0.329701 0.871876,-0.710689 0.380988,-0.388315 0.666729,-0.783956 0.285741,-0.402968 0.461582,-0.769303 z m 2.051473,0.446929 h 0.15386 l 0.109901,-0.02931 0.468908,0.307721 q -0.131881,0.249107 -0.307721,0.520195 -0.175841,0.263761 -0.373661,0.512868 -0.190494,0.249108 -0.366335,0.439601 -0.08792,-0.08059 -0.234454,-0.168513 -0.139207,-0.09525 -0.256434,-0.153861 0.15386,-0.17584 0.307721,-0.402968 0.15386,-0.234454 0.285741,-0.468908 0.13188,-0.241781 0.212474,-0.424948 z"
         id="text5-9"
         style="font-weight:500;font-size:7.32669px;line-height:1.25;font-family:'Noto Sans JP';-inkscape-font-specification:'Noto Sans JP Medium';stroke-width:0.261667"
         aria-label="南勢角" />
      <path
         style="font-weight:500;font-size:7.32669px;line-height:1.25;font-family:'Noto Sans KR';-inkscape-font-specification:'Noto Sans KR Medium';stroke-width:0.261667"
         d="m 91.600931,44.053755 h 0.761975 v 2.813449 h -0.761975 z m 0,2.571668 h 0.542175 q 0.703362,0 1.450684,-0.05861 0.754649,-0.05861 1.567912,-0.2198 l 0.08792,0.622768 q -0.827916,0.168514 -1.604545,0.234454 -0.769302,0.05861 -1.501971,0.05861 h -0.542175 z m 4.16156,-3.03325 h 0.761975 v 4.828289 h -0.761975 z m 0.534848,1.934246 h 1.172271 v 0.652076 h -1.172271 z m -3.993046,4.000373 h 4.447301 v 0.622769 h -4.447301 z m 0,-1.567912 h 0.769302 v 1.890286 h -0.769302 z m 8.330447,-3.941759 h 0.66673 v 0.498215 q 0,0.439601 -0.13921,0.842569 -0.13188,0.395642 -0.38099,0.747323 -0.2491,0.344354 -0.59346,0.622768 -0.337025,0.278415 -0.74732,0.476235 -0.410295,0.190494 -0.857223,0.285741 L 98.246239,46.85255 q 0.395642,-0.07327 0.75465,-0.227127 0.359007,-0.161187 0.659402,-0.388315 0.300394,-0.234454 0.512869,-0.505541 0.2198,-0.278415 0.33703,-0.586136 0.12455,-0.315047 0.12455,-0.630095 z m 0.14653,0 h 0.66673 v 0.498215 q 0,0.322374 0.11723,0.630095 0.12455,0.307721 0.34435,0.586136 0.21981,0.278414 0.5202,0.505541 0.30039,0.227128 0.6594,0.388315 0.35901,0.15386 0.75465,0.227127 l -0.33703,0.637422 q -0.44693,-0.09525 -0.85722,-0.285741 -0.41029,-0.19782 -0.75465,-0.476235 -0.33703,-0.278414 -0.58613,-0.622768 -0.24911,-0.351681 -0.38832,-0.747323 -0.13921,-0.402968 -0.13921,-0.842569 z m -2.740178,4.769675 h 6.066498 v 0.637422 h -6.066498 z m 8.323118,-4.198193 h 0.61544 v 0.937816 q 0,0.542175 -0.1392,1.077024 -0.13188,0.527521 -0.38099,1.003756 -0.24911,0.468908 -0.60079,0.835243 -0.34435,0.359008 -0.76197,0.571482 l -0.43961,-0.608115 q 0.38099,-0.190494 0.68871,-0.498215 0.31505,-0.315048 0.54218,-0.703363 0.23445,-0.395641 0.35168,-0.820589 0.12455,-0.432275 0.12455,-0.857223 z m 0.15386,0 h 0.60812 v 0.937816 q 0,0.395642 0.11723,0.79861 0.11722,0.395641 0.33702,0.769302 0.2198,0.366334 0.52753,0.666729 0.31504,0.293067 0.69603,0.476235 l -0.42495,0.608115 q -0.42495,-0.205147 -0.7693,-0.549502 -0.33703,-0.351681 -0.58613,-0.798609 -0.24179,-0.446928 -0.37367,-0.95247 -0.13188,-0.505541 -0.13188,-1.01841 z m -1.6192,-0.337028 h 3.64137 v 0.637422 h -3.64137 z m 4.30077,-0.659402 h 0.7693 v 6.696595 h -0.7693 z m 0.60079,2.637609 h 1.2089 v 0.637422 h -1.2089 z m 4.35938,1.135637 h 0.76931 v 1.604545 h -0.76931 z m 0.38832,-3.377605 q 0.71069,0 1.26019,0.219801 0.55683,0.219801 0.8792,0.622769 0.32238,0.402968 0.32238,0.945143 0,0.549502 -0.32238,0.952469 -0.32237,0.402968 -0.8792,0.630096 -0.5495,0.219801 -1.26019,0.219801 -0.71069,0 -1.26752,-0.219801 -0.55683,-0.227128 -0.8792,-0.630096 -0.32238,-0.402967 -0.32238,-0.952469 0,-0.542175 0.32238,-0.945143 0.32237,-0.402968 0.8792,-0.622769 0.55683,-0.219801 1.26752,-0.219801 z m 0,0.608116 q -0.50554,0 -0.89386,0.146533 -0.38099,0.139208 -0.60079,0.402968 -0.2198,0.263761 -0.2198,0.630096 0,0.366334 0.2198,0.637422 0.2198,0.263761 0.60079,0.410294 0.38832,0.139208 0.89386,0.139208 0.49821,0 0.88653,-0.139208 0.38831,-0.146533 0.60811,-0.410294 0.2198,-0.271088 0.2198,-0.637422 0,-0.366335 -0.2198,-0.630096 -0.2198,-0.26376 -0.60811,-0.402968 -0.38832,-0.146533 -0.88653,-0.146533 z m -3.02593,4.234827 h 6.0665 v 0.630095 h -6.0665 z"
         id="text5-9-8"
         aria-label="난스자오" />
    </g>
    <text
       xml:space="preserve"
       transform="matrix(0.31615295,0,0,0.31615295,-10.474341,-6.4462013)"
       id="text6"
       style="font-size:55px;line-height:1.25;font-family:'Microsoft JhengHei';-inkscape-font-specification:'Microsoft JhengHei';white-space:pre;shape-inside:url(#rect6);display:inline" />
  </g>
</svg>
