<?xml version="1.0" encoding="UTF-8" standalone="no"?>
<!-- Created with Inkscape (http://www.inkscape.org/) -->

<svg
   width="500"
   height="250"
   viewBox="0 0 132.29166 66.145833"
   version="1.1"
   id="svg1"
   inkscape:version="1.3.2 (091e20e, 2023-11-25, custom)"
   sodipodi:docname="o02.svg"
   xmlns:inkscape="http://www.inkscape.org/namespaces/inkscape"
   xmlns:sodipodi="http://sodipodi.sourceforge.net/DTD/sodipodi-0.dtd"
   xmlns="http://www.w3.org/2000/svg"
   xmlns:svg="http://www.w3.org/2000/svg">
  <sodipodi:namedview
     id="namedview1"
     pagecolor="#9e652e"
     bordercolor="#ffffff"
     borderopacity="1"
     inkscape:showpageshadow="0"
     inkscape:pageopacity="0"
     inkscape:pagecheckerboard="false"
     inkscape:deskcolor="#d1d1d1"
     inkscape:document-units="mm"
     inkscape:zoom="2.0208096"
     inkscape:cx="225.15728"
     inkscape:cy="106.88785"
     inkscape:window-width="1920"
     inkscape:window-height="1009"
     inkscape:window-x="1912"
     inkscape:window-y="-8"
     inkscape:window-maximized="1"
     inkscape:current-layer="layer1" />
  <defs
     id="defs1">
    <rect
       x="560.66638"
       y="34.144731"
       width="279.32397"
       height="128.59143"
       id="rect6" />
    <rect
       x="157.85752"
       y="62.351248"
       width="329.07603"
       height="135.09437"
       id="rect4" />
    <rect
       x="157.85751"
       y="62.35125"
       width="329.07602"
       height="135.09438"
       id="rect4-5" />
  </defs>
  <g
     inkscape:label="Layer 1"
     inkscape:groupmode="layer"
     id="layer1">
    <rect
       style="fill:#ffa000;fill-opacity:1;stroke:none;stroke-width:0.953294;stroke-dasharray:none"
       id="rect5"
       width="132.29167"
       height="66.145836"
       x="-2.5431316e-06"
       y="-1.2715658e-06"
       ry="0" />
    <g
       id="g2"
       transform="translate(9.0293371)">
      <g
         id="g1"
         transform="translate(-8.7373168)">
        <path
           id="rect1"
           style="fill-opacity:0;stroke:#000000;stroke-width:0.942789"
           d="m 39.737549,14.352791 h 12.425165 c 3.927061,0 7.088558,3.161497 7.088558,7.088559 v 23.263136 c 0,3.927062 -3.161497,7.088559 -7.088558,7.088559 H 39.737549 c -3.927061,0 -7.088558,-3.161497 -7.088558,-7.088559 V 21.44135 c 0,-3.927062 3.161497,-7.088559 7.088558,-7.088559 z" />
        <path
           style="font-size:12.8597px;line-height:1.25;font-family:'AR UDJingXiHeiE1G30 EB';-inkscape-font-specification:'AR UDJingXiHeiE1G30 EB';stroke-width:0.26791"
           d="m 50.592501,26.026667 q 0,2.237588 -1.247391,3.510698 -1.234531,1.260251 -3.382101,1.260251 -2.186149,0 -3.42068,-1.273111 -1.234532,-1.27311 -1.234532,-3.497838 0,-2.263308 1.247391,-3.549278 1.247391,-1.298829 3.407821,-1.298829 2.186149,0 3.40782,1.28597 1.221672,1.28597 1.221672,3.562137 z m -4.629492,3.497838 q 1.401707,0 2.160429,-0.925898 0.771582,-0.925899 0.771582,-2.57194 0,-1.633182 -0.771582,-2.59766 -0.771582,-0.977337 -2.160429,-0.977337 -1.414567,0 -2.199009,0.990197 -0.771582,0.977337 -0.771582,2.5848 0,1.646041 0.784442,2.57194 0.784441,0.925898 2.186149,0.925898 z"
           id="text2"
           aria-label="O" />
        <path
           style="font-size:14.3917px;line-height:1.25;font-family:'AR UDJingXiHeiE1G30 EB';-inkscape-font-specification:'AR UDJingXiHeiE1G30 EB';stroke-width:0.261667"
           d="m 45.316873,39.692779 q 0,2.720031 -0.877894,4.015284 -0.877893,1.295253 -2.720031,1.295253 -1.784571,0 -2.705639,-1.295253 -0.921069,-1.295253 -0.921069,-4.015284 0,-2.907123 0.877893,-4.173593 0.877894,-1.280861 2.748815,-1.280861 1.827746,0 2.70564,1.280861 0.892285,1.26647 0.892285,4.173593 z m -3.597925,3.885759 q 0.921069,0 1.35282,-0.906677 0.431751,-0.921069 0.431751,-2.979082 0,-2.216322 -0.417359,-3.122999 -0.402968,-0.906677 -1.367212,-0.906677 -0.964244,0 -1.381603,0.921069 -0.417359,0.906677 -0.417359,3.108607 0,2.043622 0.431751,2.96469 0.431751,0.921069 1.367211,0.921069 z M 46.8136,37.706725 q 0,-1.611871 0.978635,-2.53294 0.978636,-0.93546 2.561723,-0.93546 1.626262,0 2.532939,0.820327 0.921069,0.805935 0.921069,2.245105 0,1.021811 -0.662018,2.058013 -0.647627,1.021811 -2.043622,2.259497 l -1.957271,1.770179 h 4.634127 v 1.424778 H 46.770425 V 43.50658 l 2.907123,-2.61929 q 1.280861,-1.165727 1.784571,-1.986054 0.518101,-0.834719 0.518101,-1.597479 0,-0.719585 -0.417359,-1.165728 -0.41736,-0.446142 -1.208903,-0.446142 -0.791544,0 -1.280861,0.546884 -0.489318,0.546885 -0.489318,1.467954 z"
           id="text3"
           aria-label="02" />
        <path
           style="font-weight:500;font-size:72px;line-height:1.25;font-family:'Noto Sans TC';-inkscape-font-specification:'Noto Sans TC Medium';white-space:pre"
           d="m 176.21742,89.577406 v 3.888 h 34.848 v -3.888 z m 0,-8.064 v 3.816 h 34.848 v -3.816 z m -6.552,-4.464 h 48.24 v 20.88 h -48.24 z m -7.848,24.768004 h 63.72 v 5.472 h -63.72 z m 16.056,13.608 v 5.616 h 31.968 v -5.616 z m -6.48,-4.824 h 45.288 v 15.264 h -45.288 z m 19.08,12.6 h 6.84 v 12.168 q 0,2.304 -0.648,3.456 -0.648,1.224 -2.52,1.8 -1.8,0.576 -4.536,0.648 -2.664,0.144 -6.48,0.144 -0.216,-1.224 -0.792,-2.736 -0.576,-1.44 -1.152,-2.592 1.656,0.072 3.312,0.072 1.728,0.072 2.952,0.072 1.296,0 1.8,0 0.72,-0.072 0.936,-0.36 0.288,-0.216 0.288,-0.792 z m 11.664,8.064 4.392,-3.816 q 3.168,1.08 6.696,2.592 3.6,1.512 6.912,3.168 3.312,1.584 5.472,3.024 l -4.68,4.32 q -2.016,-1.368 -5.184,-3.096 -3.168,-1.656 -6.768,-3.312 -3.6,-1.656 -6.84,-2.88 z m -24.048,-4.032 6.264,2.448 q -2.448,2.088 -5.688,4.104 -3.168,1.944 -6.552,3.672 -3.384,1.728 -6.552,2.952 -0.504,-0.648 -1.44,-1.584 -0.936,-0.936 -1.872,-1.872 -0.936,-0.864 -1.656,-1.368 3.168,-1.008 6.408,-2.304 3.24,-1.296 6.12,-2.88 2.952,-1.584 4.968,-3.168 z m 10.512,-28.080004 5.976,-1.944 q 1.152,1.368 2.232,3.168004 1.152,1.8 1.584,3.24 l -6.264,2.232 q -0.432,-1.368 -1.44,-3.312 -0.936,-1.944 -2.088,-3.384004 z m 47.448,-16.416 h 59.688 v 15.264 h -7.2 v -8.928 h -45.576 v 8.928 h -6.912 z m 41.904,13.968 8.28,0.576 q -1.728,10.944004 -5.184,18.648004 -3.456,7.704 -9.072,12.816 -5.616,5.04 -13.752,8.064 -8.136,3.096 -19.152,4.824 -0.36,-0.864 -1.152,-2.16 -0.72,-1.296 -1.584,-2.52 -0.864,-1.224 -1.584,-2.088 10.728,-1.224 18.432,-3.744 7.704,-2.52 12.816,-6.84 5.112,-4.392 7.992,-11.088 2.88,-6.768 3.96,-16.488004 z m -43.488,6.840004 h 63 v 6.48 h -63 z m 24.912,-27.648004 7.488,-1.8 q 1.296,2.376 2.664,5.256 1.368,2.808 2.088,4.752 l -7.848,2.088 q -0.648,-1.944 -1.944,-4.896 -1.224,-2.952 -2.448,-5.4 z m -16.272,43.848004 4.464,-5.04 q 6.12,1.8 12.888,4.248 6.84,2.448 13.536,5.256 6.768,2.808 12.672,5.76 5.904,2.88 10.152,5.544 l -5.112,5.976 q -3.96,-2.664 -9.648,-5.616 -5.616,-2.952 -12.312,-5.904 -6.624,-3.024 -13.536,-5.616 -6.84,-2.664 -13.104,-4.608 z m 0,0 q 1.944,-2.664 4.104,-6.048 2.232,-3.456 4.248,-7.2 2.088,-3.816 3.888,-7.632004 1.8,-3.816 3.096,-7.344 l 7.848,1.44 q -1.368,3.6 -3.168,7.344004 -1.8,3.744 -3.816,7.416 -2.016,3.6 -3.96,6.84 -1.944,3.24 -3.672,5.76 z"
           id="text4"
           transform="matrix(0.26166763,0,0,0.26166763,21.692958,-4.0633201)"
           aria-label="景安" />
        <path
           style="font-size:7.32669px;line-height:1.25;font-family:'AR UDJingXiHeiE1G30 EB';-inkscape-font-specification:'AR UDJingXiHeiE1G30 EB';stroke-width:0.261667"
           d="m 64.861156,39.530981 q 0,0.337028 0.168514,0.527522 0.168513,0.190494 0.542175,0.190494 0.366334,0.0073 0.556828,-0.197821 0.190494,-0.212474 0.190494,-0.600789 v -3.861165 h 0.923163 v 3.941759 q 0,0.666729 -0.439601,1.06237 -0.432275,0.388315 -1.238211,0.388315 -0.783956,0 -1.208904,-0.380988 -0.424948,-0.388315 -0.424948,-0.989103 v -0.468909 h 0.93049 z m 4.491256,-3.941759 v 5.297197 h -0.930489 v -5.297197 z m 2.146716,1.472664 v 3.824533 h -0.93049 v -5.297197 h 0.959796 l 2.600975,3.912452 v -3.912452 h 0.93049 v 5.297197 h -1.01841 z m 8.667469,3.179784 q -0.271088,0.380988 -0.681383,0.564155 -0.402968,0.175841 -0.923163,0.175841 -1.142963,0 -1.817019,-0.718016 -0.674055,-0.725342 -0.674055,-2.022166 0,-1.304151 0.710689,-2.022167 0.710689,-0.718016 1.919593,-0.718016 0.974449,0 1.582565,0.446929 0.615442,0.439601 0.739995,1.26019 H 80.09333 q -0.07327,-0.432274 -0.432275,-0.703362 -0.351681,-0.278414 -0.959796,-0.278414 -0.813263,0 -1.238211,0.527521 -0.424948,0.520195 -0.424948,1.487319 0,1.033063 0.446928,1.523951 0.446928,0.483562 1.216231,0.483562 0.674055,0 1.069696,-0.395642 0.395642,-0.395641 0.395642,-0.908509 v -0.109901 h -1.501972 v -0.725342 h 2.395828 v 2.776816 h -0.893856 z m 4.813632,-1.494645 -0.835242,-2.263947 -0.849897,2.263947 z m -1.956226,0.725343 -0.527522,1.414051 h -0.945143 l 2.132067,-5.297197 h 0.95247 l 2.117413,5.297197 h -0.967123 l -0.534848,-1.414051 z m 5.267883,-2.410482 v 3.824533 h -0.93049 v -5.297197 h 0.959796 l 2.600975,3.912452 v -3.912452 h 0.93049 v 5.297197 h -1.01841 z"
           id="text5"
           aria-label="JINGAN" />
        <path
           d="m 65.383745,44.926675 v 0.395641 h 3.487505 v -0.395641 z m 0,-0.820589 V 44.4944 h 3.487505 v -0.388314 z m -0.666729,-0.454255 h 4.842942 v 2.12474 h -4.842942 z m -0.835242,2.513055 h 6.48412 v 0.549501 h -6.48412 z m 1.670485,1.362764 v 0.622769 h 3.179783 V 47.52765 Z m -0.659402,-0.490888 h 4.535221 v 1.604545 h -4.535221 z m 1.882959,-1.355438 h 0.710689 v 0.791283 h -0.710689 z m 0.02198,2.666915 h 0.696036 v 1.238211 q 0,0.234454 -0.06594,0.351681 -0.06594,0.124554 -0.256435,0.183167 -0.183167,0.05861 -0.461581,0.06594 -0.271088,0.01465 -0.659402,0.01465 -0.02198,-0.124554 -0.08059,-0.278414 -0.05861,-0.146534 -0.117227,-0.263761 0.168514,0.0073 0.337028,0.0073 0.17584,0.0073 0.300394,0.0073 0.131881,0 0.183167,0 0.07327,-0.0073 0.09525,-0.03663 0.02931,-0.02198 0.02931,-0.08059 z m 1.216231,0.769303 0.454255,-0.380988 q 0.315047,0.117227 0.674055,0.278414 0.359008,0.161187 0.688709,0.329701 0.329701,0.168514 0.549502,0.322375 l -0.490889,0.417621 q -0.19782,-0.146534 -0.520195,-0.322374 -0.315047,-0.175841 -0.674055,-0.344355 -0.359008,-0.17584 -0.681382,-0.300394 z m -2.476422,-0.373661 0.637423,0.249107 q -0.249108,0.212474 -0.578809,0.417621 -0.322374,0.205148 -0.666729,0.380988 -0.344354,0.183168 -0.666729,0.307721 -0.05129,-0.06594 -0.146533,-0.161187 -0.09525,-0.08792 -0.190494,-0.183167 -0.09525,-0.09525 -0.168514,-0.146534 0.322374,-0.102574 0.652075,-0.241781 0.329701,-0.139207 0.622769,-0.300394 0.300394,-0.161187 0.505541,-0.322374 z m 8.542921,-5.341158 h 0.739996 v 1.252865 h -0.739996 z m -2.681568,0.725343 h 6.176399 v 1.648505 h -0.732669 v -0.99643 H 72.10232 v 0.99643 h -0.703362 z m 2.403154,0.908509 0.725342,0.153861 q -0.205147,0.439601 -0.439601,0.908509 -0.234454,0.468909 -0.483562,0.945144 -0.24178,0.476234 -0.476234,0.901182 -0.234455,0.424948 -0.424948,0.761976 l -0.725343,-0.190494 q 0.205147,-0.337028 0.439602,-0.761976 0.24178,-0.424948 0.483561,-0.893856 0.249108,-0.476235 0.483562,-0.945143 0.234454,-0.468908 0.417621,-0.879203 z m 1.904939,1.589892 0.769303,0.109901 q -0.227127,0.849896 -0.637422,1.450684 -0.410295,0.593462 -0.99643,0.99643 -0.578808,0.395641 -1.348111,0.637422 -0.769302,0.249108 -1.714445,0.395641 -0.02931,-0.08792 -0.102574,-0.205147 -0.07327,-0.1099 -0.153861,-0.227127 -0.07327,-0.117227 -0.146533,-0.197821 1.230884,-0.139207 2.117413,-0.454255 0.88653,-0.322374 1.436031,-0.923163 0.556829,-0.600788 0.776629,-1.582565 z M 71.21579,46.179539 h 6.520755 v 0.659402 H 71.21579 Z m 1.238211,2.12474 0.490888,-0.490888 q 0.556829,0.15386 1.172271,0.373661 0.622768,0.212474 1.230884,0.461582 0.608115,0.24178 1.142963,0.498215 0.534849,0.256434 0.915837,0.498215 l -0.534849,0.564155 Q 76.512987,49.974765 76.000119,49.711004 75.487251,49.447243 74.879135,49.190809 74.278347,48.927048 73.648252,48.69992 73.025483,48.472793 72.454001,48.304279 Z"
           id="text5-9"
           style="font-weight:500;font-size:7.32669px;line-height:1.25;font-family:'Noto Sans JP';-inkscape-font-specification:'Noto Sans JP Medium';stroke-width:0.261667"
           aria-label="景安" />
        <path
           style="font-weight:500;font-size:7.32669px;line-height:1.25;font-family:'Noto Sans KR';-inkscape-font-specification:'Noto Sans KR Medium';stroke-width:0.261667"
           d="m 90.75656,43.592173 h 0.769302 v 4.0077 H 90.75656 Z m -1.472665,4.154233 q 0.703362,0 1.208904,0.153861 0.505542,0.146534 0.783956,0.439601 0.278414,0.285741 0.278414,0.681383 0,0.410294 -0.278414,0.696035 -0.278414,0.285741 -0.783956,0.432275 -0.505542,0.15386 -1.208904,0.15386 -0.696035,0 -1.208904,-0.15386 -0.505541,-0.146534 -0.783956,-0.432275 -0.271087,-0.285741 -0.271087,-0.696035 0,-0.395642 0.271087,-0.681383 0.278415,-0.293067 0.783956,-0.439601 0.512869,-0.153861 1.208904,-0.153861 z m 0,0.600789 q -0.468908,0 -0.805936,0.08059 -0.337028,0.07327 -0.512868,0.227127 -0.175841,0.15386 -0.175841,0.366335 0,0.2198 0.175841,0.373661 0.17584,0.15386 0.512868,0.234454 0.337028,0.08059 0.805936,0.08059 0.483562,0 0.813263,-0.08059 0.337027,-0.08059 0.512868,-0.234454 0.175841,-0.153861 0.175841,-0.373661 0,-0.212475 -0.175841,-0.366335 -0.175841,-0.153861 -0.512868,-0.227127 -0.329701,-0.08059 -0.813263,-0.08059 z m -1.560585,-4.07364 h 0.630095 v 0.483562 q 0,0.622768 -0.227127,1.17227 -0.219801,0.549502 -0.637422,0.959797 -0.417621,0.402968 -1.01841,0.615442 l -0.395641,-0.600789 q 0.534848,-0.183167 0.893856,-0.512868 0.366335,-0.337028 0.556828,-0.754649 0.197821,-0.424948 0.197821,-0.879203 z m 0.153861,0 h 0.630095 v 0.483562 q 0,0.315047 0.102574,0.615442 0.1099,0.300394 0.322374,0.564155 0.212474,0.263761 0.512868,0.468908 0.307721,0.205147 0.696036,0.322374 l -0.388315,0.608116 q -0.586135,-0.197821 -1.011083,-0.578809 -0.417621,-0.380988 -0.644749,-0.893856 -0.2198,-0.520195 -0.2198,-1.10633 z m -1.604546,-0.19782 h 3.656019 v 0.615442 h -3.656019 z m 10.93875,-0.490889 h 0.761975 v 4.908883 h -0.761975 z m 0.534848,1.985533 h 1.172271 v 0.637422 h -1.172271 z m -4.007699,3.956413 h 4.513241 v 0.622769 h -4.513241 z m 0,-1.538605 h 0.769302 V 49.79788 H 93.738524 Z M 94.6104,44.039101 q 0.505541,0 0.908509,0.219801 0.402968,0.212474 0.637422,0.593462 0.234454,0.373661 0.234454,0.864549 0,0.483562 -0.234454,0.86455 -0.234454,0.373661 -0.637422,0.593462 -0.402968,0.212474 -0.908509,0.212474 -0.498215,0 -0.901183,-0.212474 -0.402968,-0.219801 -0.637422,-0.593462 -0.234454,-0.380988 -0.234454,-0.86455 0,-0.490888 0.234454,-0.864549 0.234454,-0.380988 0.637422,-0.593462 0.402968,-0.219801 0.901183,-0.219801 z m 0,0.666729 q -0.285741,0 -0.520195,0.124554 -0.234454,0.124553 -0.373662,0.351681 -0.13188,0.227127 -0.13188,0.534848 0,0.300395 0.13188,0.527522 0.139208,0.219801 0.373662,0.344354 0.234454,0.124554 0.520195,0.124554 0.293067,0 0.527521,-0.124554 0.241781,-0.124553 0.373662,-0.344354 0.13188,-0.227127 0.13188,-0.527522 0,-0.307721 -0.13188,-0.534848 Q 95.379702,44.954937 95.137921,44.830384 94.903467,44.70583 94.6104,44.70583 Z"
           id="text5-9-8"
           aria-label="징안" />
      </g>
    </g>
    <text
       xml:space="preserve"
       transform="matrix(0.31615295,0,0,0.31615295,-10.474341,-6.4462013)"
       id="text6"
       style="font-size:55px;line-height:1.25;font-family:'Microsoft JhengHei';-inkscape-font-specification:'Microsoft JhengHei';white-space:pre;shape-inside:url(#rect6);display:inline" />
  </g>
</svg>
