<?xml version="1.0" encoding="UTF-8" standalone="no"?>
<!-- Created with Inkscape (http://www.inkscape.org/) -->

<svg
   width="500"
   height="250"
   viewBox="0 0 132.29166 66.145833"
   version="1.1"
   id="svg1"
   inkscape:version="1.3.2 (091e20e, 2023-11-25, custom)"
   sodipodi:docname="o03.svg"
   xmlns:inkscape="http://www.inkscape.org/namespaces/inkscape"
   xmlns:sodipodi="http://sodipodi.sourceforge.net/DTD/sodipodi-0.dtd"
   xmlns="http://www.w3.org/2000/svg"
   xmlns:svg="http://www.w3.org/2000/svg">
  <sodipodi:namedview
     id="namedview1"
     pagecolor="#9e652e"
     bordercolor="#ffffff"
     borderopacity="1"
     inkscape:showpageshadow="0"
     inkscape:pageopacity="0"
     inkscape:pagecheckerboard="false"
     inkscape:deskcolor="#d1d1d1"
     inkscape:document-units="mm"
     inkscape:zoom="2.0208096"
     inkscape:cx="225.15728"
     inkscape:cy="106.88785"
     inkscape:window-width="1920"
     inkscape:window-height="1009"
     inkscape:window-x="1912"
     inkscape:window-y="-8"
     inkscape:window-maximized="1"
     inkscape:current-layer="layer1" />
  <defs
     id="defs1">
    <rect
       x="560.66638"
       y="34.144731"
       width="279.32397"
       height="128.59143"
       id="rect6" />
    <rect
       x="157.85752"
       y="62.351248"
       width="329.07603"
       height="135.09437"
       id="rect4" />
    <rect
       x="157.85751"
       y="62.35125"
       width="329.07602"
       height="135.09438"
       id="rect4-5" />
  </defs>
  <g
     inkscape:label="Layer 1"
     inkscape:groupmode="layer"
     id="layer1">
    <rect
       style="fill:#ffa000;fill-opacity:1;stroke:none;stroke-width:0.953294;stroke-dasharray:none"
       id="rect5"
       width="132.29167"
       height="66.145836"
       x="-2.5431316e-06"
       y="-1.2715658e-06"
       ry="0" />
    <g
       id="g2"
       transform="translate(-10.055653)">
      <g
         id="g1"
         transform="translate(-8.7373168)">
        <path
           id="rect1"
           style="fill-opacity:0;stroke:#000000;stroke-width:0.942789"
           d="m 39.737549,14.352791 h 12.425165 c 3.927061,0 7.088558,3.161497 7.088558,7.088559 v 23.263136 c 0,3.927062 -3.161497,7.088559 -7.088558,7.088559 H 39.737549 c -3.927061,0 -7.088558,-3.161497 -7.088558,-7.088559 V 21.44135 c 0,-3.927062 3.161497,-7.088559 7.088558,-7.088559 z" />
        <path
           style="font-size:12.8597px;line-height:1.25;font-family:'AR UDJingXiHeiE1G30 EB';-inkscape-font-specification:'AR UDJingXiHeiE1G30 EB';stroke-width:0.26791"
           d="m 50.592501,26.026667 q 0,2.237588 -1.247391,3.510698 -1.234531,1.260251 -3.382101,1.260251 -2.186149,0 -3.42068,-1.273111 -1.234532,-1.27311 -1.234532,-3.497838 0,-2.263308 1.247391,-3.549278 1.247391,-1.298829 3.407821,-1.298829 2.186149,0 3.40782,1.28597 1.221672,1.28597 1.221672,3.562137 z m -4.629492,3.497838 q 1.401707,0 2.160429,-0.925898 0.771582,-0.925899 0.771582,-2.57194 0,-1.633182 -0.771582,-2.59766 -0.771582,-0.977337 -2.160429,-0.977337 -1.414567,0 -2.199009,0.990197 -0.771582,0.977337 -0.771582,2.5848 0,1.646041 0.784442,2.57194 0.784441,0.925898 2.186149,0.925898 z"
           id="text2"
           aria-label="O" />
        <path
           style="font-size:14.3917px;line-height:1.25;font-family:'AR UDJingXiHeiE1G30 EB';-inkscape-font-specification:'AR UDJingXiHeiE1G30 EB';stroke-width:0.261667"
           d="m 45.316873,39.692779 q 0,2.720031 -0.877894,4.015284 -0.877893,1.295253 -2.720031,1.295253 -1.784571,0 -2.705639,-1.295253 -0.921069,-1.295253 -0.921069,-4.015284 0,-2.907123 0.877893,-4.173593 0.877894,-1.280861 2.748815,-1.280861 1.827746,0 2.70564,1.280861 0.892285,1.26647 0.892285,4.173593 z m -3.597925,3.885759 q 0.921069,0 1.35282,-0.906677 0.431751,-0.921069 0.431751,-2.979082 0,-2.216322 -0.417359,-3.122999 -0.402968,-0.906677 -1.367212,-0.906677 -0.964244,0 -1.381603,0.921069 -0.417359,0.906677 -0.417359,3.108607 0,2.043622 0.431751,2.96469 0.431751,0.921069 1.367211,0.921069 z m 8.491093,-7.915435 q -0.791544,0 -1.237686,0.474926 -0.446143,0.474926 -0.446143,1.237687 h -1.770179 q 0,-1.410387 0.921069,-2.273889 0.93546,-0.863502 2.532939,-0.863502 1.482345,0 2.403414,0.733977 0.921068,0.733976 0.921068,2.101188 0,0.748368 -0.316617,1.324036 -0.316617,0.575668 -0.949852,0.877894 0.805935,0.273442 1.237686,0.921069 0.446143,0.647626 0.446143,1.539912 0,1.539911 -0.978636,2.403413 -0.978635,0.863502 -2.720031,0.863502 -1.770179,0 -2.734423,-0.84911 -0.964244,-0.84911 -0.964244,-2.317064 h 1.784571 q 0,0.777152 0.518101,1.26647 0.532493,0.474926 1.410387,0.474926 0.863502,0 1.352819,-0.474926 0.50371,-0.474926 0.50371,-1.35282 0,-0.733976 -0.460535,-1.194511 -0.460534,-0.474926 -1.324036,-0.474926 H 49.69194 v -1.424778 h 0.647626 q 0.575668,0 0.964244,-0.41736 0.402968,-0.417359 0.402968,-1.122552 0,-0.647627 -0.388576,-1.050594 -0.388576,-0.402968 -1.108161,-0.402968 z"
           id="text3"
           aria-label="03" />
        <path
           style="font-weight:500;font-size:72px;line-height:1.25;font-family:'Noto Sans TC';-inkscape-font-specification:'Noto Sans TC Medium';white-space:pre"
           d="m 161.74542,103.54541 h 19.872 v 6.408 h -19.872 z m 9.576,-14.112004 h 23.184 v 6.48 h -23.184 z m 25.776,3.168 q 2.304,8.928004 6.408,16.488004 4.104,7.56 10.152,13.248 6.048,5.616 14.04,8.712 -0.72,0.648 -1.656,1.728 -0.936,1.008 -1.728,2.16 -0.792,1.152 -1.368,2.088 -8.352,-3.744 -14.472,-9.936 -6.12,-6.264 -10.296,-14.616 -4.176,-8.424 -6.84,-18.576004 z m 21.888,2.16 6.264,4.608 q -3.096,2.736004 -6.552,5.688004 -3.456,2.88 -6.912,5.544 -3.384,2.664 -6.48,4.68 l -4.752,-3.888 q 2.952,-2.088 6.336,-4.896 3.384,-2.88 6.552,-5.904 3.24,-3.096004 5.544,-5.832004 z m -28.512,-5.328 h 7.344 v 43.776004 q 0,2.88 -0.792,4.464 -0.792,1.656 -2.736,2.52 -2.016,0.864 -5.112,1.008 -3.096,0.216 -7.704,0.216 -0.216,-1.512 -0.936,-3.528 -0.648,-1.944 -1.44,-3.312 2.088,0.072 4.032,0.144 2.016,0 3.528,0 1.512,0 2.16,0 1.008,-0.072 1.296,-0.36 0.36,-0.36 0.36,-1.296 z m -12.96,-9.072 3.384,-5.544 q 3.24,0.792 6.912,1.8 3.672,1.008 7.344,2.304 3.744,1.224 6.912,2.52 3.24,1.224 5.544,2.448 l -3.6,6.408 q -2.232,-1.224 -5.328,-2.592 -3.096,-1.368 -6.768,-2.736 -3.6,-1.368 -7.344,-2.52 -3.672,-1.224 -7.056,-2.088 z m 1.584,23.184004 h 1.368 l 1.224,-0.288 4.536,1.944 q -1.8,7.416 -4.968,13.536 -3.096,6.12 -7.128,10.728 -4.032,4.608 -8.568,7.56 -0.576,-0.72 -1.584,-1.656 -0.936,-1.008 -2.016,-1.944 -1.008,-1.008 -1.872,-1.512 4.392,-2.664 8.136,-6.624 3.816,-4.032 6.624,-9.216 2.808,-5.184 4.248,-11.232 z m 56.952,-20.808004 h 59.688 v 15.264 h -7.2 v -8.928 h -45.576 v 8.928 h -6.912 z m 41.904,13.968 8.28,0.576 q -1.728,10.944004 -5.184,18.648004 -3.456,7.704 -9.072,12.816 -5.616,5.04 -13.752,8.064 -8.136,3.096 -19.152,4.824 -0.36,-0.864 -1.152,-2.16 -0.72,-1.296 -1.584,-2.52 -0.864,-1.224 -1.584,-2.088 10.728,-1.224 18.432,-3.744 7.704,-2.52 12.816,-6.84 5.112,-4.392 7.992,-11.088 2.88,-6.768 3.96,-16.488004 z m -43.488,6.840004 h 63 v 6.48 h -63 z m 24.912,-27.648004 7.488,-1.8 q 1.296,2.376 2.664,5.256 1.368,2.808 2.088,4.752 l -7.848,2.088 q -0.648,-1.944 -1.944,-4.896 -1.224,-2.952 -2.448,-5.4 z m -16.272,43.848004 4.464,-5.04 q 6.12,1.8 12.888,4.248 6.84,2.448 13.536,5.256 6.768,2.808 12.672,5.76 5.904,2.88 10.152,5.544 l -5.112,5.976 q -3.96,-2.664 -9.648,-5.616 -5.616,-2.952 -12.312,-5.904 -6.624,-3.024 -13.536,-5.616 -6.84,-2.664 -13.104,-4.608 z m 0,0 q 1.944,-2.664 4.104,-6.048 2.232,-3.456 4.248,-7.2 2.088,-3.816 3.888,-7.632004 1.8,-3.816 3.096,-7.344 l 7.848,1.44 q -1.368,3.6 -3.168,7.344004 -1.8,3.744 -3.816,7.416 -2.016,3.6 -3.96,6.84 -1.944,3.24 -3.672,5.76 z m 90.936,-30.456004 h 7.128 v 51.984004 h -7.128 z m -28.8,-4.392 h 65.376 v 6.624 h -65.376 z m 6.624,15.696004 h 47.376 v 6.624 h -40.536 v 26.28 h -6.84 z m 45.648,0 h 7.056 v 24.984 q 0,2.664 -0.72,4.248 -0.648,1.584 -2.664,2.376 -2.088,0.792 -5.184,1.008 -3.096,0.144 -7.632,0.144 -0.144,-1.512 -0.864,-3.384 -0.72,-1.944 -1.44,-3.312 2.16,0.072 4.176,0.144 2.088,0.072 3.6,0.072 1.512,-0.072 2.088,-0.072 0.936,-0.072 1.224,-0.36 0.36,-0.288 0.36,-0.936 z m -26.496,-24.552004 6.696,-2.016 q 1.512,2.52 3.168,5.616 1.656,3.024 2.448,5.256 l -7.128,2.376 q -0.432,-1.512 -1.296,-3.384 -0.864,-1.944 -1.872,-4.032 -1.008,-2.088 -2.016,-3.816 z m 66.888,27.936004 h 45.432 v 5.832 h -45.432 z m 7.992,10.152 h 30.6 v 5.472 h -30.6 z m 3.168,-7.992 5.904,1.512 q -2.736,6.12 -7.344,11.232 -4.536,5.112 -9.648,8.496 -0.432,-0.576 -1.296,-1.368 -0.864,-0.792 -1.728,-1.584 -0.864,-0.792 -1.584,-1.224 5.04,-2.88 9.216,-7.344 4.176,-4.464 6.48,-9.72 z m 26.28,7.992 h 6.336 q 0,0 -0.072,1.008 0,0.936 -0.072,1.584 -0.504,7.2 -1.152,11.808 -0.576,4.536 -1.296,6.984 -0.72,2.52 -1.728,3.6 -1.008,1.08 -2.088,1.512 -1.008,0.432 -2.376,0.576 -1.224,0.072 -3.168,0.072 -1.872,0.072 -4.032,0 -0.072,-1.296 -0.504,-2.88 -0.36,-1.584 -1.08,-2.592 1.872,0.144 3.384,0.144 1.584,0.072 2.376,0.072 0.72,0 1.224,-0.144 0.504,-0.144 0.864,-0.648 0.72,-0.72 1.296,-2.808 0.576,-2.16 1.08,-6.336 0.576,-4.176 1.008,-10.944 z m -24.624,-23.256004 v 4.752 h 21.24 v -4.752 z m 0,-9.36 v 4.752 h 21.24 v -4.752 z m -6.12,-4.824 h 33.624 v 23.832004 h -33.624 z m -27.216,13.392 h 21.672 v 6.48 h -21.672 z m 7.92,-14.688 h 6.408 v 44.496004 h -6.408 z m -9.36,46.728004 q 2.736,-1.08 6.408,-2.592 3.672,-1.584 7.776,-3.384 4.104,-1.872 8.208,-3.672 l 1.512,5.904 q -5.472,2.736 -11.088,5.544 -5.616,2.808 -10.224,5.04 z m 50.616,-6.84 4.68,2.52 q -1.368,4.464 -3.744,9.072 -2.304,4.536 -5.256,8.496 -2.952,3.888 -6.264,6.408 -0.864,-0.936 -2.232,-2.016 -1.368,-1.08 -2.664,-1.8 3.384,-2.232 6.408,-5.904 3.096,-3.672 5.4,-8.064 2.376,-4.392 3.672,-8.712 z m -11.088,0.072 4.536,2.664 q -1.872,3.888 -4.824,7.776 -2.88,3.888 -6.408,7.272 -3.456,3.312 -6.912,5.544 -0.792,-1.008 -2.088,-2.16 -1.224,-1.152 -2.448,-1.944 3.6,-1.872 7.056,-4.968 3.528,-3.096 6.408,-6.768 2.88,-3.744 4.68,-7.416 z"
           id="text4"
           transform="matrix(0.26166763,0,0,0.26166763,21.692958,-4.0633201)"
           aria-label="永安市場" />
        <path
           style="font-size:7.32669px;line-height:1.25;font-family:'AR UDJingXiHeiE1G30 EB';-inkscape-font-specification:'AR UDJingXiHeiE1G30 EB';stroke-width:0.261667"
           d="m 66.17996,37.933763 1.509298,-2.344541 h 1.04039 l -2.088107,3.113843 v 2.183354 h -0.930489 v -2.183354 l -2.12474,-3.113843 h 1.06237 z m 8.235203,0.329701 q 0,1.274844 -0.710689,2.000186 -0.703362,0.718016 -1.926919,0.718016 -1.245538,0 -1.9489,-0.725343 -0.703362,-0.725342 -0.703362,-1.992859 0,-1.289498 0.710689,-2.022167 0.710689,-0.739996 1.941573,-0.739996 1.245537,0 1.941573,0.732669 0.696035,0.732669 0.696035,2.029494 z m -2.637608,1.992859 q 0.798609,0 1.230884,-0.527521 0.439601,-0.527522 0.439601,-1.465338 0,-0.93049 -0.439601,-1.479992 -0.439602,-0.556828 -1.230884,-0.556828 -0.805936,0 -1.252864,0.564155 -0.439602,0.556828 -0.439602,1.472665 0,0.937816 0.446928,1.465338 0.446929,0.527521 1.245538,0.527521 z m 4.579182,-3.194437 v 3.824533 h -0.930489 v -5.297197 h 0.959796 l 2.600975,3.912452 v -3.912452 h 0.93049 v 5.297197 h -1.01841 z m 8.66747,3.179784 q -0.271087,0.380988 -0.681382,0.564155 -0.402968,0.175841 -0.923163,0.175841 -1.142964,0 -1.817019,-0.718016 -0.674056,-0.725342 -0.674056,-2.022166 0,-1.304151 0.710689,-2.022167 0.710689,-0.718016 1.919593,-0.718016 0.97445,0 1.582565,0.446929 0.615442,0.439601 0.739996,1.26019 h -0.93049 q -0.07327,-0.432274 -0.432274,-0.703362 -0.351681,-0.278414 -0.959797,-0.278414 -0.813262,0 -1.23821,0.527521 -0.424948,0.520195 -0.424948,1.487319 0,1.033063 0.446928,1.523951 0.446928,0.483562 1.21623,0.483562 0.674056,0 1.069697,-0.395642 0.395641,-0.395641 0.395641,-0.908509 v -0.109901 h -1.501971 v -0.725342 h 2.395827 v 2.776816 h -0.893856 z m 4.813631,-1.494645 -0.835243,-2.263947 -0.849896,2.263947 z m -1.956226,0.725343 -0.527522,1.414051 h -0.945143 l 2.132067,-5.297197 h 0.95247 l 2.117413,5.297197 h -0.967123 l -0.534848,-1.414051 z m 5.267884,-2.410482 v 3.824533 h -0.930489 v -5.297197 h 0.959796 l 2.600975,3.912452 v -3.912452 h 0.93049 v 5.297197 h -1.01841 z m 7.597764,0.0073 v 3.817206 h -0.90118 v -5.297197 h 1.1796 l 1.52395,4.110273 1.46534,-4.110273 h 1.2089 v 5.297197 h -0.90851 v -3.846513 l -1.37742,3.846513 h -0.78395 z m 8.51361,1.677812 -0.83524,-2.263947 -0.8499,2.263947 z m -1.95622,0.725343 -0.52753,1.414051 h -0.94514 l 2.13207,-5.297197 h 0.95247 l 2.11741,5.297197 h -0.96712 l -0.53485,-1.414051 z m 7.65638,-2.366521 q 0,-0.388315 -0.20515,-0.586136 -0.20514,-0.205147 -0.59346,-0.205147 h -1.58989 v 1.648505 h 1.5386 q 0.38099,0 0.61545,-0.227127 0.23445,-0.227127 0.23445,-0.630095 z m -2.3885,1.575238 v 2.205334 h -0.93049 v -5.297197 h 2.69622 q 0.72534,0 1.15029,0.388314 0.43228,0.380988 0.43228,1.08435 0,0.461582 -0.2198,0.791283 -0.21248,0.329701 -0.53485,0.468908 0.41029,0.234454 0.63009,0.813263 0.2198,0.578808 0.27842,1.751079 h -0.96713 q -0.044,-1.230884 -0.27108,-1.714446 -0.2198,-0.490888 -0.71069,-0.490888 z m 5.35582,0.380988 v 1.824346 h -0.93049 v -5.297197 h 0.93049 v 2.395827 l 2.32256,-2.395827 h 1.13564 l -2.1394,2.14672 2.21999,3.150477 h -1.12831 l -1.71445,-2.542362 z m 8.07401,1.824346 h -3.91978 v -5.297197 h 3.8978 v 0.725342 h -2.96731 v 1.494645 h 2.76949 v 0.725342 h -2.76949 v 1.626525 h 2.98929 z m 2.1101,-4.571855 h -1.64851 v -0.725342 h 4.22017 v 0.725342 h -1.64117 v 4.571855 h -0.93049 z"
           id="text5"
           aria-label="YONGAN MARKET" />
        <path
           d="m 63.874447,46.348053 h 2.022166 v 0.652075 h -2.022166 z m 0.97445,-1.436031 h 2.359194 v 0.659402 h -2.359194 z m 2.622955,0.322374 q 0.234454,0.90851 0.652075,1.677812 0.417621,0.769303 1.033063,1.348111 0.615442,0.571482 1.428705,0.88653 -0.07327,0.06594 -0.168514,0.17584 -0.09525,0.102574 -0.17584,0.219801 -0.08059,0.117227 -0.139208,0.212474 Q 69.252237,49.373976 68.629469,48.743881 68.0067,48.106459 67.581752,47.256563 67.156804,46.39934 66.885716,45.366276 Z m 2.227314,0.219801 0.637422,0.468908 q -0.315048,0.278414 -0.666729,0.578808 -0.351681,0.293068 -0.703363,0.564156 -0.344354,0.271087 -0.659402,0.476234 l -0.483561,-0.395641 q 0.300394,-0.212474 0.644749,-0.498215 0.344354,-0.293067 0.666728,-0.600788 0.329701,-0.315048 0.564156,-0.593462 z m -2.90137,-0.542175 h 0.747323 v 4.454627 q 0,0.293068 -0.08059,0.454255 -0.08059,0.168514 -0.278414,0.256434 -0.205148,0.08792 -0.520195,0.102574 -0.315048,0.02198 -0.783956,0.02198 -0.02198,-0.153861 -0.09525,-0.359008 -0.06594,-0.19782 -0.146534,-0.337028 0.212474,0.0073 0.410295,0.01465 0.205147,0 0.359008,0 0.15386,0 0.2198,0 0.102574,-0.0073 0.131881,-0.03663 0.03663,-0.03663 0.03663,-0.13188 z m -1.318804,-0.923163 0.344354,-0.564155 q 0.329701,0.08059 0.703363,0.183167 0.373661,0.102573 0.747322,0.234454 0.380988,0.124554 0.703362,0.256434 0.329701,0.124554 0.564155,0.249108 l -0.366334,0.652075 Q 67.948087,44.875388 67.633039,44.736181 67.317991,44.596974 66.94433,44.457767 66.577995,44.31856 66.197008,44.201333 65.823346,44.076779 65.478992,43.988859 Z m 0.161187,2.359194 h 0.139207 l 0.124554,-0.02931 0.461581,0.197821 q -0.183167,0.754649 -0.505541,1.377418 -0.315048,0.622768 -0.725342,1.091676 -0.410295,0.468909 -0.871877,0.769303 -0.05861,-0.07327 -0.161187,-0.168514 -0.09525,-0.102574 -0.205147,-0.197821 -0.102574,-0.102573 -0.190494,-0.15386 0.446928,-0.271088 0.827916,-0.674056 0.388315,-0.410294 0.674055,-0.937816 0.285741,-0.527522 0.432275,-1.142964 z m 8.440347,-2.94533 h 0.739996 v 1.252865 h -0.739996 z m -2.681568,0.725343 h 6.176399 v 1.648505 h -0.732669 v -0.99643 H 72.10232 v 0.99643 h -0.703362 z m 2.403154,0.908509 0.725342,0.153861 q -0.205147,0.439601 -0.439601,0.908509 -0.234454,0.468909 -0.483562,0.945144 -0.24178,0.476234 -0.476234,0.901182 -0.234455,0.424948 -0.424948,0.761976 l -0.725343,-0.190494 q 0.205147,-0.337028 0.439602,-0.761976 0.24178,-0.424948 0.483561,-0.893856 0.249108,-0.476235 0.483562,-0.945143 0.234454,-0.468908 0.417621,-0.879203 z m 1.904939,1.589892 0.769303,0.109901 q -0.227127,0.849896 -0.637422,1.450684 -0.410295,0.593462 -0.99643,0.99643 -0.578808,0.395641 -1.348111,0.637422 -0.769302,0.249108 -1.714445,0.395641 -0.02931,-0.08792 -0.102574,-0.205147 -0.07327,-0.1099 -0.153861,-0.227127 -0.07327,-0.117227 -0.146533,-0.197821 1.230884,-0.139207 2.117413,-0.454255 0.88653,-0.322374 1.436031,-0.923163 0.556829,-0.600788 0.776629,-1.582565 z M 71.21579,46.179539 h 6.520755 v 0.659402 H 71.21579 Z m 1.238211,2.12474 0.490888,-0.490888 q 0.556829,0.15386 1.172271,0.373661 0.622768,0.212474 1.230884,0.461582 0.608115,0.24178 1.142963,0.498215 0.534849,0.256434 0.915837,0.498215 l -0.534849,0.564155 Q 76.512987,49.974765 76.000119,49.711004 75.487251,49.447243 74.879135,49.190809 74.278347,48.927048 73.648252,48.69992 73.025483,48.472793 72.454001,48.304279 Z m 8.953215,-4.930862 h 0.739996 v 1.428704 h -0.739996 z m 0.0073,1.641178 h 0.718016 v 5.209277 H 81.414543 Z M 78.47654,44.3845 h 6.652635 v 0.674055 H 78.47654 Z m 0.732669,1.575238 h 4.813636 v 0.674056 h -4.1176 v 2.681568 h -0.696036 z m 4.549875,0 H 84.4771 V 48.5021 q 0,0.271087 -0.07327,0.432275 -0.06594,0.161187 -0.271088,0.249107 -0.212474,0.07327 -0.527521,0.09525 -0.315048,0.02198 -0.77663,0.02198 -0.01465,-0.161187 -0.08792,-0.351681 -0.07327,-0.190494 -0.146534,-0.337028 0.219801,0.0073 0.424948,0.01465 0.212474,0.0073 0.366335,0.0073 0.15386,-0.0073 0.212474,-0.0073 0.09525,0 0.124554,-0.02931 0.03663,-0.02931 0.03663,-0.102574 z m 4.146906,0.432275 h 4.623142 v 0.593462 H 87.90599 Z m 0.813263,1.033063 h 3.113843 v 0.556829 h -3.113843 z m 0.322374,-0.813262 0.600789,0.15386 q -0.278414,0.622769 -0.747323,1.142964 -0.461581,0.520195 -0.981776,0.864549 -0.04396,-0.05861 -0.131881,-0.139207 -0.08792,-0.08059 -0.17584,-0.161187 -0.08792,-0.08059 -0.161187,-0.124554 0.512868,-0.293067 0.937816,-0.747322 0.424948,-0.454255 0.659402,-0.989103 z m 2.674242,0.813262 h 0.644749 q 0,0 -0.0073,0.102574 0,0.09525 -0.0073,0.161187 -0.05129,0.732669 -0.117227,1.201577 -0.05861,0.461582 -0.13188,0.710689 -0.07327,0.256435 -0.175841,0.366335 -0.102573,0.1099 -0.212474,0.15386 -0.102573,0.04396 -0.24178,0.05861 -0.124554,0.0073 -0.322375,0.0073 -0.190494,0.0073 -0.410294,0 -0.0073,-0.131881 -0.05129,-0.293068 -0.03663,-0.161187 -0.109901,-0.263761 0.190494,0.01465 0.344355,0.01465 0.161187,0.0073 0.241781,0.0073 0.07327,0 0.124553,-0.01465 0.05129,-0.01465 0.08792,-0.06594 0.07327,-0.07327 0.13188,-0.285741 0.05861,-0.219801 0.1099,-0.644749 0.05861,-0.424948 0.102574,-1.113657 z m -2.505728,-2.366521 v 0.483562 h 2.161374 v -0.483562 z m 0,-0.952469 v 0.483561 h 2.161374 v -0.483561 z m -0.622769,-0.490888 h 3.421565 v 2.425134 h -3.421565 z m -2.769489,1.362764 h 2.205334 v 0.659402 h -2.205334 z m 0.805936,-1.494645 h 0.652076 v 4.527895 h -0.652076 z m -0.952469,4.755022 q 0.278414,-0.1099 0.652075,-0.263761 0.373661,-0.161187 0.791283,-0.344354 0.417621,-0.190494 0.835242,-0.373661 l 0.153861,0.600788 q -0.556829,0.278414 -1.12831,0.564155 -0.571482,0.285741 -1.04039,0.512869 z m 5.150663,-0.696036 0.476235,0.256435 q -0.139207,0.454254 -0.380988,0.923163 -0.234454,0.461581 -0.534849,0.864549 -0.300394,0.395641 -0.637422,0.652075 -0.08792,-0.09525 -0.227127,-0.205147 -0.139207,-0.1099 -0.271088,-0.183167 0.344355,-0.227128 0.652076,-0.600789 0.315048,-0.373661 0.549502,-0.820589 0.24178,-0.446928 0.373661,-0.88653 z m -1.12831,0.0073 0.461581,0.271088 q -0.190494,0.395641 -0.490888,0.791282 -0.293068,0.395641 -0.652076,0.739996 -0.351681,0.337028 -0.703362,0.564155 -0.08059,-0.102574 -0.212474,-0.219801 -0.124554,-0.117227 -0.249107,-0.19782 0.366334,-0.190494 0.718015,-0.505542 0.359008,-0.315048 0.652076,-0.688709 0.293067,-0.380988 0.476235,-0.754649 z"
           id="text5-9"
           style="font-weight:500;font-size:7.32669px;line-height:1.25;font-family:'Noto Sans JP';-inkscape-font-specification:'Noto Sans JP Medium';stroke-width:0.261667"
           aria-label="永安市場" />
        <path
           style="font-weight:500;font-size:7.32669px;line-height:1.25;font-family:'Noto Sans KR';-inkscape-font-specification:'Noto Sans KR Medium';stroke-width:0.261667"
           d="m 101.73974,46.999084 h 0.76197 v 1.326131 h -0.76197 z m 2.41048,0 h 0.7693 v 1.326131 h -0.7693 z m -3.85384,-0.337028 h 6.05184 v 0.615442 h -6.05184 z m 3.01127,1.216231 q 1.08435,0 1.69246,0.315048 0.61545,0.30772 0.61545,0.886529 0,0.578809 -0.61545,0.88653 -0.60811,0.315047 -1.69246,0.315047 -1.07703,0 -1.69247,-0.315047 -0.60811,-0.307721 -0.60811,-0.88653 0,-0.578809 0.60811,-0.886529 0.61544,-0.315048 1.69247,-0.315048 z m 0,0.586135 q -0.48356,0 -0.82792,0.07327 -0.34435,0.06594 -0.52752,0.205147 -0.17584,0.131881 -0.17584,0.337028 0,0.205147 0.17584,0.344354 0.18317,0.131881 0.52752,0.205148 0.34436,0.06594 0.82792,0.06594 0.49821,0 0.83524,-0.06594 0.34436,-0.07327 0.5202,-0.205148 0.17584,-0.139207 0.17584,-0.344354 0,-0.205147 -0.17584,-0.337028 -0.17584,-0.139207 -0.5202,-0.205147 -0.33703,-0.07327 -0.83524,-0.07327 z m 0.0147,-4.755022 q 0.73267,0 1.26752,0.153861 0.53485,0.15386 0.82059,0.439601 0.29307,0.278414 0.29307,0.681382 0,0.395641 -0.29307,0.681382 -0.28574,0.278415 -0.82059,0.432275 -0.53485,0.146534 -1.26752,0.146534 -0.73267,0 -1.27484,-0.146534 -0.53485,-0.15386 -0.82792,-0.432275 -0.28574,-0.285741 -0.28574,-0.681382 0,-0.402968 0.28574,-0.681382 0.29307,-0.285741 0.82792,-0.439601 0.54217,-0.153861 1.27484,-0.153861 z m 0,0.593462 q -0.49821,0 -0.85722,0.08059 -0.35901,0.08059 -0.5495,0.234454 -0.1905,0.146533 -0.1905,0.366334 0,0.212474 0.1905,0.366335 0.19049,0.146534 0.5495,0.227127 0.35901,0.08059 0.85722,0.08059 0.49822,0 0.8499,-0.08059 0.35901,-0.08059 0.5495,-0.227127 0.19049,-0.153861 0.19049,-0.366335 0,-0.219801 -0.19049,-0.366334 -0.19049,-0.153861 -0.5495,-0.234454 -0.35168,-0.08059 -0.8499,-0.08059 z m 8.17659,-0.718016 h 0.76197 v 4.908883 h -0.76197 z m 0.53485,1.985533 h 1.17227 v 0.637422 h -1.17227 z m -4.0077,3.956413 h 4.51324 v 0.622769 h -4.51324 z m 0,-1.538605 h 0.7693 v 1.809693 h -0.7693 z m 0.87187,-3.949086 q 0.50555,0 0.90851,0.219801 0.40297,0.212474 0.63743,0.593462 0.23445,0.373661 0.23445,0.864549 0,0.483562 -0.23445,0.86455 -0.23446,0.373661 -0.63743,0.593462 -0.40296,0.212474 -0.90851,0.212474 -0.49821,0 -0.90118,-0.212474 -0.40297,-0.219801 -0.63742,-0.593462 -0.23446,-0.380988 -0.23446,-0.86455 0,-0.490888 0.23446,-0.864549 0.23445,-0.380988 0.63742,-0.593462 0.40297,-0.219801 0.90118,-0.219801 z m 0,0.666729 q -0.28574,0 -0.52019,0.124554 -0.23446,0.124553 -0.37366,0.351681 -0.13188,0.227127 -0.13188,0.534848 0,0.300395 0.13188,0.527522 0.1392,0.219801 0.37366,0.344354 0.23445,0.124554 0.52019,0.124554 0.29307,0 0.52753,-0.124554 0.24178,-0.124553 0.37366,-0.344354 0.13188,-0.227127 0.13188,-0.527522 0,-0.307721 -0.13188,-0.534848 -0.13188,-0.227128 -0.37366,-0.351681 -0.23446,-0.124554 -0.52753,-0.124554 z m 8.63818,-0.564155 h 0.63009 v 1.099003 q 0,0.608116 -0.13188,1.172271 -0.13188,0.564155 -0.38831,1.055043 -0.24911,0.490888 -0.60812,0.86455 -0.35168,0.373661 -0.80593,0.593462 l -0.46159,-0.630096 q 0.40297,-0.183167 0.72535,-0.498215 0.3297,-0.322374 0.55683,-0.732669 0.23445,-0.410294 0.359,-0.879203 0.12456,-0.468908 0.12456,-0.945143 z m 0.1392,0 h 0.6301 v 1.099003 q 0,0.461582 0.11723,0.90851 0.12455,0.446928 0.35168,0.842569 0.22713,0.395642 0.5495,0.696036 0.32237,0.300394 0.71069,0.483561 l -0.44693,0.615442 q -0.44693,-0.212474 -0.79861,-0.571481 -0.35168,-0.359008 -0.60079,-0.827916 -0.2491,-0.468909 -0.38099,-1.01841 -0.13188,-0.549502 -0.13188,-1.128311 z m 2.89405,-0.556829 h 0.7693 v 6.711249 h -0.7693 z m 3.57542,0.732669 h 0.6301 v 0.490889 q 0,0.622768 -0.2198,1.17227 -0.2198,0.549502 -0.63742,0.959796 -0.41763,0.402968 -1.01841,0.615442 l -0.38832,-0.608115 q 0.52752,-0.183167 0.89386,-0.512868 0.36633,-0.329701 0.5495,-0.747323 0.19049,-0.424948 0.19049,-0.879202 z m 0.15386,0 h 0.62277 v 0.490889 q 0,0.410294 0.18317,0.791282 0.18317,0.380988 0.53485,0.681382 0.35168,0.293068 0.85722,0.454255 l -0.36633,0.600789 q -0.59347,-0.190494 -1.00376,-0.564155 -0.40297,-0.373662 -0.61544,-0.879203 -0.21248,-0.512869 -0.21248,-1.08435 z m -1.57524,-0.256434 h 3.59741 v 0.622769 h -3.59741 z m 4.3081,-0.468908 h 0.76197 v 4.000373 h -0.76197 z m 0.55683,1.626525 h 1.15029 v 0.630096 h -1.15029 z m -1.9489,2.527708 q 0.68871,0 1.18692,0.153861 0.49822,0.146534 0.7693,0.432275 0.27109,0.278414 0.27109,0.674055 0,0.402968 -0.27109,0.681382 -0.27108,0.285741 -0.7693,0.432275 -0.49821,0.153861 -1.18692,0.153861 -0.68871,0 -1.19425,-0.153861 -0.49822,-0.146534 -0.76931,-0.432275 -0.26376,-0.278414 -0.26376,-0.681382 0,-0.395641 0.26376,-0.674055 0.27109,-0.285741 0.76931,-0.432275 0.50554,-0.153861 1.19425,-0.153861 z m 0,0.608116 q -0.46158,0 -0.79129,0.07327 -0.3297,0.07327 -0.50554,0.2198 -0.17584,0.146534 -0.17584,0.359008 0,0.219801 0.17584,0.373661 0.17584,0.146534 0.50554,0.227128 0.32971,0.07327 0.79129,0.07327 0.46891,0 0.79128,-0.07327 0.3297,-0.08059 0.50554,-0.227128 0.17584,-0.15386 0.17584,-0.373661 0,-0.212474 -0.17584,-0.359008 -0.17584,-0.146534 -0.50554,-0.2198 -0.32237,-0.07327 -0.79128,-0.07327 z"
           id="text5-9-8"
           aria-label="융안 시장" />
      </g>
    </g>
    <text
       xml:space="preserve"
       transform="matrix(0.31615295,0,0,0.31615295,-10.474341,-6.4462013)"
       id="text6"
       style="font-size:55px;line-height:1.25;font-family:'Microsoft JhengHei';-inkscape-font-specification:'Microsoft JhengHei';white-space:pre;shape-inside:url(#rect6);display:inline" />
  </g>
</svg>
