<?xml version="1.0" encoding="UTF-8" standalone="no"?>
<!-- Created with Inkscape (http://www.inkscape.org/) -->

<svg
   width="500"
   height="250"
   viewBox="0 0 132.29166 66.145833"
   version="1.1"
   id="svg1"
   inkscape:version="1.3.2 (091e20e, 2023-11-25, custom)"
   sodipodi:docname="o043.svg"
   xmlns:inkscape="http://www.inkscape.org/namespaces/inkscape"
   xmlns:sodipodi="http://sodipodi.sourceforge.net/DTD/sodipodi-0.dtd"
   xmlns="http://www.w3.org/2000/svg"
   xmlns:svg="http://www.w3.org/2000/svg">
  <sodipodi:namedview
     id="namedview1"
     pagecolor="#9e652e"
     bordercolor="#ffffff"
     borderopacity="1"
     inkscape:showpageshadow="0"
     inkscape:pageopacity="0"
     inkscape:pagecheckerboard="false"
     inkscape:deskcolor="#d1d1d1"
     inkscape:document-units="mm"
     inkscape:zoom="2.0208096"
     inkscape:cx="225.15728"
     inkscape:cy="106.88785"
     inkscape:window-width="1920"
     inkscape:window-height="1009"
     inkscape:window-x="1912"
     inkscape:window-y="-8"
     inkscape:window-maximized="1"
     inkscape:current-layer="layer1" />
  <defs
     id="defs1">
    <rect
       x="560.66638"
       y="34.144731"
       width="279.32397"
       height="128.59143"
       id="rect6" />
    <rect
       x="157.85752"
       y="62.351248"
       width="329.07603"
       height="135.09437"
       id="rect4" />
    <rect
       x="157.85751"
       y="62.35125"
       width="329.07602"
       height="135.09438"
       id="rect4-5" />
  </defs>
  <g
     inkscape:label="Layer 1"
     inkscape:groupmode="layer"
     id="layer1">
    <rect
       style="fill:#ffa000;fill-opacity:1;stroke:none;stroke-width:0.953294;stroke-dasharray:none"
       id="rect5"
       width="132.29167"
       height="66.145836"
       x="-2.5431316e-06"
       y="-1.2715658e-06"
       ry="0" />
    <g
       id="g2"
       transform="translate(8.8503564)">
      <g
         id="g1"
         transform="translate(-8.7373168)">
        <path
           id="rect1"
           style="fill-opacity:0;stroke:#000000;stroke-width:0.942789"
           d="m 39.737549,14.352791 h 12.425165 c 3.927061,0 7.088558,3.161497 7.088558,7.088559 v 23.263136 c 0,3.927062 -3.161497,7.088559 -7.088558,7.088559 H 39.737549 c -3.927061,0 -7.088558,-3.161497 -7.088558,-7.088559 V 21.44135 c 0,-3.927062 3.161497,-7.088559 7.088558,-7.088559 z" />
        <path
           style="font-size:12.8597px;line-height:1.25;font-family:'AR UDJingXiHeiE1G30 EB';-inkscape-font-specification:'AR UDJingXiHeiE1G30 EB';stroke-width:0.26791"
           d="m 50.592501,26.026667 q 0,2.237588 -1.247391,3.510698 -1.234531,1.260251 -3.382101,1.260251 -2.186149,0 -3.42068,-1.273111 -1.234532,-1.27311 -1.234532,-3.497838 0,-2.263308 1.247391,-3.549278 1.247391,-1.298829 3.407821,-1.298829 2.186149,0 3.40782,1.28597 1.221672,1.28597 1.221672,3.562137 z m -4.629492,3.497838 q 1.401707,0 2.160429,-0.925898 0.771582,-0.925899 0.771582,-2.57194 0,-1.633182 -0.771582,-2.59766 -0.771582,-0.977337 -2.160429,-0.977337 -1.414567,0 -2.199009,0.990197 -0.771582,0.977337 -0.771582,2.5848 0,1.646041 0.784442,2.57194 0.784441,0.925898 2.186149,0.925898 z"
           id="text2"
           aria-label="O" />
        <path
           style="font-size:14.3917px;line-height:1.25;font-family:'AR UDJingXiHeiE1G30 EB';-inkscape-font-specification:'AR UDJingXiHeiE1G30 EB';stroke-width:0.261667"
           d="m 45.316873,39.692779 q 0,2.720031 -0.877894,4.015284 -0.877893,1.295253 -2.720031,1.295253 -1.784571,0 -2.705639,-1.295253 -0.921069,-1.295253 -0.921069,-4.015284 0,-2.907123 0.877893,-4.173593 0.877894,-1.280861 2.748815,-1.280861 1.827746,0 2.70564,1.280861 0.892285,1.26647 0.892285,4.173593 z m -3.597925,3.885759 q 0.921069,0 1.35282,-0.906677 0.431751,-0.921069 0.431751,-2.979082 0,-2.216322 -0.417359,-3.122999 -0.402968,-0.906677 -1.367212,-0.906677 -0.964244,0 -1.381603,0.921069 -0.417359,0.906677 -0.417359,3.108607 0,2.043622 0.431751,2.96469 0.431751,0.921069 1.367211,0.921069 z m 9.239461,-1.007419 H 46.453807 V 41.30465 l 4.418252,-6.893625 h 1.856529 v 6.720924 H 54.0958 v 1.43917 h -1.367212 v 2.245105 h -1.770179 z m -2.676856,-1.43917 h 2.676856 v -4.23116 z"
           id="text3"
           aria-label="04" />
        <path
           style="font-weight:500;font-size:72px;line-height:1.25;font-family:'Noto Sans TC';-inkscape-font-specification:'Noto Sans TC Medium';white-space:pre"
           d="m 160.37742,79.065406 h 25.992 v 6.408 h -25.992 z m 10.872,3.6 h 6.696 v 48.600004 q 0,2.808 -0.72,4.32 -0.648,1.584 -2.448,2.448 -1.728,0.792 -4.608,1.008 -2.88,0.216 -7.056,0.216 -0.216,-1.368 -0.792,-3.312 -0.576,-1.872 -1.296,-3.312 2.88,0.072 5.328,0.072 2.52,0 3.384,0 0.864,-0.072 1.152,-0.36 0.36,-0.36 0.36,-1.152 z m 16.2,-4.896 h 39.6 v 5.832 h -39.6 z m 8.712,27.792004 v 5.976 h 21.816 v -5.976 z m 0,10.8 v 6.048 h 21.816 v -6.048 z m 0,-21.528004 v 5.904004 h 21.816 v -5.904004 z m -6.336,-5.112 h 34.848 v 37.800004 h -34.848 z m 13.464,-8.928 7.92,1.008 q -1.08,3.168 -2.232,6.408 -1.152,3.168 -2.16,5.472 l -6.048,-1.152 q 0.72,-2.592 1.44,-5.832 0.792,-3.312 1.08,-5.904 z m -5.616,47.304004 5.688,3.816 q -2.304,1.8 -5.4,3.6 -3.096,1.8 -6.48,3.24 -3.384,1.512 -6.552,2.592 -0.72,-1.008 -1.944,-2.376 -1.224,-1.368 -2.304,-2.376 3.096,-1.008 6.336,-2.376 3.24,-1.44 6.048,-3.024 2.808,-1.656 4.608,-3.096 z m 11.304,3.96 5.112,-3.672 q 2.376,1.224 5.04,2.88 2.736,1.584 5.256,3.24 2.52,1.656 4.176,3.024 l -5.472,4.032 q -1.44,-1.368 -3.888,-3.024 -2.376,-1.656 -5.04,-3.384 -2.664,-1.728 -5.184,-3.096 z m 61.92,-46.584004 5.544,-1.368 q 1.08,2.088 2.232,4.536 1.152,2.448 1.728,4.176 l -5.832,1.656 q -0.432,-1.8 -1.512,-4.32 -1.08,-2.592 -2.16,-4.68 z m 22.32,-10.728 3.312,5.184 q -4.176,1.08 -9.36,1.872 -5.112,0.792 -10.8,1.44 -5.616,0.576 -11.304,1.008 -5.688,0.36 -11.016,0.576 -0.144,-1.152 -0.576,-2.592 -0.432,-1.512 -0.936,-2.592 5.256,-0.288 10.872,-0.72 5.616,-0.432 11.016,-1.008 5.472,-0.648 10.296,-1.44 4.824,-0.792 8.496,-1.728 z m -8.784,31.392004 4.824,-2.304 q 1.584,1.872 3.312,4.104 1.728,2.16 3.24,4.248 1.512,2.088 2.448,3.744 l -5.112,2.664 q -0.792,-1.656 -2.304,-3.816 -1.44,-2.16 -3.168,-4.392 -1.656,-2.304 -3.24,-4.248 z m -33.552,15.192 h 45.936 v 5.184 h -45.936 z m 19.944,-5.76 h 6.192 q -0.576,5.112 -1.944,9.216 -1.296,4.032 -4.032,7.2 -2.664,3.168 -7.272,5.472 -4.536,2.376 -11.592,3.888 -0.432,-1.08 -1.368,-2.592 -0.936,-1.44 -1.8,-2.304 6.48,-1.224 10.512,-3.096 4.104,-1.872 6.336,-4.392 2.304,-2.592 3.384,-5.904 1.08,-3.312 1.584,-7.488 z m -15.336,-28.440004 5.328,-1.368 q 1.152,1.8 2.232,4.104 1.08,2.232 1.584,3.816 l -5.616,1.656 q -0.432,-1.656 -1.44,-3.96 -1.008,-2.304 -2.088,-4.248 z m 34.2,-4.176 5.688,1.8 q -1.368,2.736 -2.952,5.4 -1.512,2.664 -2.88,4.608 l -5.04,-1.584 q 0.936,-1.368 1.872,-3.168 1.008,-1.8 1.872,-3.672 0.936,-1.872 1.44,-3.384 z m -34.056,23.904004 q -0.072,-0.576 -0.432,-1.584 -0.288,-1.008 -0.648,-2.088 -0.36,-1.08 -0.648,-1.8 1.008,-0.072 2.16,-0.504 1.224,-0.432 2.592,-1.152004 0.936,-0.432 3.168,-1.584 2.232,-1.224 4.896,-2.88 2.664,-1.656 4.968,-3.6 l 5.04,3.168 q -4.176,2.808 -8.856,5.256004 -4.608,2.448 -9.144,4.104 v 0.144 q 0,0 -0.792,0.432 -0.72,0.432 -1.512,1.008 -0.792,0.504 -0.792,1.08 z m 0,0 v -3.744 l 2.88,-1.512 21.384,-0.936 q -0.576,1.008 -1.224,2.304 -0.648,1.296 -0.936,2.016 -6.84,0.36 -10.944,0.648 -4.104,0.216 -6.336,0.432 -2.232,0.216 -3.24,0.432 -1.008,0.216 -1.584,0.36 z m -1.224,11.016 q -0.144,-0.576 -0.432,-1.584 -0.288,-1.008 -0.648,-2.088 -0.288,-1.08 -0.576,-1.8 1.584,-0.216 3.528,-0.936 1.944,-0.72 4.464,-1.872 1.368,-0.576 4.176,-1.944 2.808,-1.368 6.408,-3.312 3.6,-2.016 7.344,-4.32 3.816,-2.304004 7.056,-4.752004 l 5.112,3.456 q -7.848,5.184004 -16.344,9.432004 -8.496,4.176 -16.704,7.128 v 0.216 q 0,0 -0.864,0.36 -0.864,0.36 -1.728,0.936 -0.792,0.504 -0.792,1.08 z m 0,0 -0.072,-3.888 3.384,-1.944 33.408,-2.016 q 0.072,1.08 0.288,2.376 0.216,1.296 0.36,2.16 -9.504,0.648 -15.912,1.08 -6.408,0.432 -10.368,0.792 -3.96,0.288 -6.192,0.576 -2.16,0.216 -3.24,0.432 -1.008,0.216 -1.656,0.432 z m 20.88,12.888 3.168,-4.032 q 3.456,1.296 7.272,3.168 3.888,1.8 7.344,3.744 3.528,1.872 5.76,3.528 l -3.312,4.608 q -2.16,-1.728 -5.616,-3.744 -3.384,-1.944 -7.272,-3.888 -3.816,-1.944 -7.344,-3.384 z m -39.384,-50.184004 4.032,-4.752 q 2.016,1.008 4.248,2.376 2.304,1.296 4.392,2.664 2.088,1.368 3.384,2.52 l -4.176,5.328 q -1.296,-1.224 -3.312,-2.664 -2.016,-1.512 -4.32,-2.952 -2.232,-1.44 -4.248,-2.52 z m -3.816,18.72 3.888,-4.896 q 2.088,0.936 4.536,2.232 2.448,1.224 4.68,2.592 2.232,1.368004 3.672,2.520004 l -4.032,5.4 q -1.368,-1.152 -3.528,-2.52 -2.16,-1.44 -4.608,-2.808 -2.376,-1.44 -4.608,-2.520004 z m 1.8,36.288004 q 1.512,-2.736 3.384,-6.48 1.872,-3.744 3.816,-7.992 1.944,-4.248 3.528,-8.28 l 5.328,3.888 q -1.44,3.744 -3.168,7.776 -1.728,3.96 -3.456,7.848 -1.728,3.816 -3.456,7.2 z"
           id="text4"
           transform="matrix(0.26166763,0,0,0.26166763,21.692958,-4.0633201)"
           aria-label="頂溪" />
        <path
           style="font-size:7.32669px;line-height:1.25;font-family:'AR UDJingXiHeiE1G30 EB';-inkscape-font-specification:'AR UDJingXiHeiE1G30 EB';stroke-width:0.261667"
           d="m 68.729648,38.175543 q 0,1.318805 -0.622769,2.01484 -0.615442,0.696036 -1.721772,0.696036 h -2.1687 v -5.297197 h 2.1687 q 1.10633,0 1.721772,0.652075 0.622769,0.652076 0.622769,1.934246 z m -0.967123,0 q 0,-0.959796 -0.395641,-1.406724 -0.388315,-0.454255 -1.135637,-0.454255 h -1.08435 v 3.846512 h 1.091676 q 0.718016,0 1.120984,-0.476234 0.402968,-0.476235 0.402968,-1.509299 z m 2.916016,-2.586321 v 5.297197 h -0.930489 v -5.297197 z m 2.146716,1.472664 v 3.824533 h -0.93049 v -5.297197 h 0.959796 l 2.600975,3.912452 v -3.912452 h 0.93049 v 5.297197 h -1.01841 z m 8.667469,3.179784 q -0.271088,0.380988 -0.681383,0.564155 -0.402968,0.175841 -0.923163,0.175841 -1.142963,0 -1.817019,-0.718016 -0.674055,-0.725342 -0.674055,-2.022166 0,-1.304151 0.710689,-2.022167 0.710689,-0.718016 1.919593,-0.718016 0.974449,0 1.582565,0.446929 0.615442,0.439601 0.739995,1.26019 h -0.930489 q -0.07327,-0.432274 -0.432275,-0.703362 -0.351681,-0.278414 -0.959796,-0.278414 -0.813263,0 -1.238211,0.527521 -0.424948,0.520195 -0.424948,1.487319 0,1.033063 0.446928,1.523951 0.446928,0.483562 1.216231,0.483562 0.674055,0 1.069696,-0.395642 0.395642,-0.395641 0.395642,-0.908509 v -0.109901 h -1.501972 v -0.725342 h 2.395828 v 2.776816 h -0.893856 z m 5.114026,-4.652448 h 1.077023 l -1.824346,2.557015 1.92692,2.740182 H 86.701998 L 85.317254,38.842272 83.93251,40.886419 H 82.877466 L 84.789732,38.13891 82.95806,35.589222 h 1.091677 l 1.274844,1.904939 z m 2.718203,0 v 5.297197 h -0.930489 v -5.297197 z"
           id="text5"
           aria-label="DINGXI" />
        <path
           d="m 63.73524,43.856978 h 2.644935 v 0.652076 H 63.73524 Z m 1.10633,0.366335 h 0.681382 v 4.945516 q 0,0.285741 -0.07327,0.439601 -0.06594,0.161187 -0.249107,0.249108 -0.175841,0.08059 -0.468908,0.102573 -0.293068,0.02198 -0.718016,0.02198 -0.02198,-0.139207 -0.08059,-0.337027 -0.05861,-0.190494 -0.13188,-0.337028 0.293068,0.0073 0.542175,0.0073 0.256434,0 0.344354,0 0.08792,-0.0073 0.117227,-0.03663 0.03663,-0.03663 0.03663,-0.117227 z m 1.648505,-0.498215 h 4.02968 v 0.593462 h -4.02968 z m 0.88653,2.828102 v 0.608116 h 2.219987 V 46.5532 Z m 0,1.099004 v 0.615442 h 2.219987 v -0.615442 z m 0,-2.190681 v 0.600789 h 2.219987 v -0.600789 z m -0.644749,-0.520195 h 3.546118 v 3.846513 h -3.546118 z m 1.370091,-0.908509 0.805936,0.102574 q -0.1099,0.322374 -0.227127,0.652075 -0.117227,0.322374 -0.219801,0.556828 l -0.615442,-0.117227 q 0.07327,-0.263761 0.146534,-0.593462 0.08059,-0.337027 0.1099,-0.600788 z m -0.571482,4.813635 0.578809,0.388315 q -0.234454,0.183167 -0.549502,0.366334 -0.315048,0.183168 -0.659402,0.329701 -0.344355,0.153861 -0.666729,0.263761 -0.07327,-0.102573 -0.197821,-0.24178 -0.124553,-0.139208 -0.234454,-0.241781 0.315048,-0.102574 0.644749,-0.241781 0.329701,-0.146534 0.615442,-0.307721 0.285741,-0.168514 0.468908,-0.315048 z m 1.150291,0.402968 0.520195,-0.373661 q 0.24178,0.124554 0.512868,0.293068 0.278414,0.161187 0.534848,0.329701 0.256434,0.168514 0.424948,0.307721 l -0.556828,0.410294 Q 69.970253,50.077338 69.721146,49.908824 69.479365,49.740311 69.208277,49.56447 68.93719,49.388629 68.680756,49.249422 Z m 4.374034,-1.487318 h 4.755022 v 0.586135 H 73.05479 Z m 0.278414,-1.245537 h 4.27146 v 0.586135 h -4.27146 z m 3.692652,-3.09919 0.527521,0.527522 q -0.424948,0.124553 -0.930489,0.227127 -0.505542,0.09525 -1.06237,0.175841 -0.549502,0.07327 -1.106331,0.13188 -0.556828,0.05129 -1.091676,0.09525 -0.01465,-0.124554 -0.07327,-0.285741 -0.05861,-0.168514 -0.109901,-0.278414 0.512869,-0.03663 1.047717,-0.09525 0.534848,-0.06594 1.047717,-0.139207 0.520195,-0.07327 0.967123,-0.161187 0.446928,-0.09525 0.783956,-0.197821 z m -3.677999,1.509298 0.556829,-0.212474 q 0.205147,0.278414 0.366334,0.630095 0.168514,0.344355 0.234454,0.608116 l -0.600788,0.249107 q -0.05129,-0.263761 -0.212474,-0.622769 -0.153861,-0.366334 -0.344355,-0.652075 z m 1.414051,-0.256434 0.571482,-0.190494 q 0.161187,0.285741 0.285741,0.644749 0.124554,0.351681 0.161187,0.615442 l -0.615442,0.205147 q -0.02931,-0.263761 -0.139207,-0.615442 -0.1099,-0.359008 -0.263761,-0.659402 z m 2.124741,-0.285741 0.659402,0.249107 q -0.197821,0.402968 -0.424948,0.827916 -0.219801,0.417622 -0.417622,0.718016 l -0.542175,-0.227127 q 0.124554,-0.212474 0.256434,-0.483562 0.139208,-0.271087 0.263761,-0.556828 0.124554,-0.285741 0.205148,-0.527522 z m -1.846326,1.648505 h 0.681382 v 1.289498 q 0,0.293067 -0.05129,0.608115 -0.05129,0.315048 -0.190494,0.630095 -0.139207,0.307721 -0.402968,0.608116 -0.263761,0.293067 -0.696035,0.564155 -0.424948,0.271087 -1.047717,0.490888 -0.06594,-0.1099 -0.197821,-0.263761 -0.13188,-0.15386 -0.249107,-0.241781 0.586135,-0.190494 0.97445,-0.417621 0.388314,-0.234454 0.622768,-0.483561 0.241781,-0.249108 0.359008,-0.505542 0.117227,-0.263761 0.153861,-0.512868 0.04396,-0.256435 0.04396,-0.483562 z m 0.769302,1.941573 q 0.241781,0.637422 0.776629,1.06237 0.534849,0.424948 1.340785,0.600789 -0.07327,0.06594 -0.153861,0.161187 -0.08059,0.102574 -0.15386,0.205147 -0.07327,0.109901 -0.124554,0.197821 -0.857223,-0.234454 -1.414051,-0.761976 -0.556829,-0.534848 -0.835243,-1.333457 z m -4.381361,-4.007699 0.388315,-0.512869 q 0.219801,0.08792 0.461581,0.219801 0.241781,0.13188 0.454255,0.271088 0.219801,0.13188 0.351681,0.26376 l -0.410294,0.564156 q -0.124554,-0.124554 -0.337028,-0.271088 -0.205147,-0.146534 -0.446928,-0.285741 -0.234454,-0.146534 -0.461582,-0.249107 z m -0.380987,1.978206 0.388314,-0.520195 q 0.219801,0.08059 0.461582,0.205147 0.24178,0.117227 0.454254,0.249108 0.219801,0.13188 0.351682,0.249107 l -0.395642,0.578809 q -0.13188,-0.124554 -0.344354,-0.263761 -0.212474,-0.139207 -0.454255,-0.271088 -0.234454,-0.13188 -0.461581,-0.227127 z m 0.19782,3.758592 q 0.168514,-0.285741 0.373661,-0.674055 0.205148,-0.388315 0.417622,-0.827916 0.212474,-0.439602 0.395641,-0.857223 l 0.542175,0.417621 q -0.161187,0.388315 -0.351681,0.798609 -0.183167,0.410295 -0.380988,0.813263 -0.190494,0.395641 -0.380988,0.747322 z"
           id="text5-9"
           style="font-weight:500;font-size:7.32669px;line-height:1.25;font-family:'Noto Sans JP';-inkscape-font-specification:'Noto Sans JP Medium';stroke-width:0.261667"
           aria-label="頂渓" />
        <path
           style="font-weight:500;font-size:7.32669px;line-height:1.25;font-family:'Noto Sans KR';-inkscape-font-specification:'Noto Sans KR Medium';stroke-width:0.261667"
           d="m 89.169058,43.584846 h 0.769303 v 4.066313 h -0.769303 z m -4.352054,2.908696 h 0.564155 q 0.725343,0 1.267518,-0.01465 0.549502,-0.01465 1.003756,-0.06594 0.454255,-0.05129 0.915837,-0.146534 l 0.08059,0.622769 q -0.468908,0.09525 -0.937816,0.146533 -0.468908,0.04396 -1.033063,0.06594 -0.556829,0.01465 -1.296825,0.01465 h -0.564155 z m 0,-2.388501 h 3.157804 v 0.615442 H 85.57898 v 2.117414 h -0.761976 z m 2.87939,3.582752 q 0.703362,0 1.208903,0.15386 0.505542,0.153861 0.783956,0.446928 0.278415,0.285741 0.278415,0.696036 0,0.410295 -0.278415,0.703362 -0.278414,0.293068 -0.783956,0.439602 -0.505541,0.15386 -1.208903,0.15386 -0.696036,0 -1.208904,-0.15386 -0.505542,-0.146534 -0.783956,-0.439602 -0.271088,-0.293067 -0.271088,-0.703362 0,-0.410295 0.271088,-0.696036 0.278414,-0.293067 0.783956,-0.446928 0.512868,-0.15386 1.208904,-0.15386 z m 0,0.600788 q -0.468909,0 -0.805936,0.08059 -0.337028,0.08059 -0.512869,0.234454 -0.17584,0.153861 -0.17584,0.380988 0,0.227127 0.17584,0.388315 0.175841,0.15386 0.512869,0.234454 0.337027,0.08059 0.805936,0.08059 0.483561,0 0.813262,-0.08059 0.337028,-0.08059 0.512869,-0.234454 0.17584,-0.161188 0.17584,-0.388315 0,-0.227127 -0.17584,-0.380988 -0.175841,-0.15386 -0.512869,-0.234454 -0.329701,-0.08059 -0.813262,-0.08059 z m 5.172644,-4.146906 h 0.630095 v 1.099003 q 0,0.608116 -0.13188,1.172271 -0.131881,0.564155 -0.388315,1.055043 -0.249107,0.490888 -0.608115,0.86455 -0.351681,0.373661 -0.805936,0.593462 l -0.461582,-0.630096 q 0.402968,-0.183167 0.725343,-0.498215 0.329701,-0.322374 0.556828,-0.732669 0.234454,-0.410294 0.359008,-0.879203 0.124554,-0.468908 0.124554,-0.945143 z m 0.139207,0 h 0.630095 v 1.099003 q 0,0.461582 0.117227,0.90851 0.124554,0.446928 0.351681,0.842569 0.227128,0.395642 0.549502,0.696036 0.322374,0.300394 0.710689,0.483561 l -0.446928,0.615442 q -0.446928,-0.212474 -0.798609,-0.571481 -0.351681,-0.359008 -0.600789,-0.827916 -0.249107,-0.468909 -0.380988,-1.01841 -0.13188,-0.549502 -0.13188,-1.128311 z m 2.894042,-0.556829 h 0.769303 v 6.711249 h -0.769303 z"
           id="text5-9-8"
           aria-label="딩시" />
      </g>
    </g>
    <text
       xml:space="preserve"
       transform="matrix(0.31615295,0,0,0.31615295,-10.474341,-6.4462013)"
       id="text6"
       style="font-size:55px;line-height:1.25;font-family:'Microsoft JhengHei';-inkscape-font-specification:'Microsoft JhengHei';white-space:pre;shape-inside:url(#rect6);display:inline" />
  </g>
</svg>
