<?xml version="1.0" encoding="UTF-8" standalone="no"?>
<!-- Created with Inkscape (http://www.inkscape.org/) -->

<svg
   width="500"
   height="250"
   viewBox="0 0 132.29166 66.145833"
   version="1.1"
   id="svg1"
   inkscape:version="1.3.2 (091e20e, 2023-11-25, custom)"
   sodipodi:docname="o05_2.svg"
   xmlns:inkscape="http://www.inkscape.org/namespaces/inkscape"
   xmlns:sodipodi="http://sodipodi.sourceforge.net/DTD/sodipodi-0.dtd"
   xmlns="http://www.w3.org/2000/svg"
   xmlns:svg="http://www.w3.org/2000/svg">
  <sodipodi:namedview
     id="namedview1"
     pagecolor="#9e652e"
     bordercolor="#ffffff"
     borderopacity="1"
     inkscape:showpageshadow="0"
     inkscape:pageopacity="0"
     inkscape:pagecheckerboard="false"
     inkscape:deskcolor="#d1d1d1"
     inkscape:document-units="mm"
     inkscape:zoom="2.0208096"
     inkscape:cx="305.81802"
     inkscape:cy="106.88785"
     inkscape:window-width="1920"
     inkscape:window-height="1009"
     inkscape:window-x="1912"
     inkscape:window-y="-8"
     inkscape:window-maximized="1"
     inkscape:current-layer="layer1" />
  <defs
     id="defs1">
    <rect
       x="560.66638"
       y="34.144731"
       width="279.32397"
       height="128.59143"
       id="rect6" />
    <rect
       x="157.85752"
       y="62.351248"
       width="329.07603"
       height="135.09437"
       id="rect4" />
    <rect
       x="157.85751"
       y="62.35125"
       width="329.07602"
       height="135.09438"
       id="rect4-5" />
  </defs>
  <g
     inkscape:label="Layer 1"
     inkscape:groupmode="layer"
     id="layer1">
    <path
       id="rect5"
       style="fill:#ffa000;stroke-width:0.953294"
       d="M -2.5431316e-6,-1.2715658e-6 H 132.29167 V 66.145835 H -2.5431316e-6 Z" />
    <text
       xml:space="preserve"
       transform="matrix(0.31615295,0,0,0.31615295,-10.474341,-6.4462013)"
       id="text6"
       style="font-size:55px;line-height:1.25;font-family:'Microsoft JhengHei';-inkscape-font-specification:'Microsoft JhengHei';white-space:pre;shape-inside:url(#rect6);display:inline" />
    <path
       id="rect1"
       style="fill:none;fill-opacity:0;stroke:#000000;stroke-width:0.942789"
       d="m 39.97305,14.352791 h 12.425164 c 3.927061,0 7.088559,3.161497 7.088559,7.088559 v 23.263136 c 0,3.927062 -3.161498,7.088559 -7.088559,7.088559 H 39.97305 c -3.927062,0 -7.088559,-3.161497 -7.088559,-7.088559 V 21.44135 c 0,-3.927062 3.161497,-7.088559 7.088559,-7.088559 z" />
    <path
       style="font-size:14.3709px;line-height:1.25;font-family:'AR UDJingXiHeiE1G30 EB';-inkscape-font-specification:'AR UDJingXiHeiE1G30 EB';stroke-width:0.299395"
       d="m 52.01683,26.032129 q 0,2.500537 -1.393978,3.923256 -1.379606,1.408348 -3.779546,1.408348 -2.443053,0 -3.82266,-1.422719 -1.379606,-1.422719 -1.379606,-3.908885 0,-2.529278 1.393977,-3.966368 1.393977,-1.451461 3.808289,-1.451461 2.443053,0 3.808288,1.43709 1.365236,1.43709 1.365236,3.980739 z m -5.173524,3.908885 q 1.566428,0 2.414311,-1.034705 0.862254,-1.034705 0.862254,-2.87418 0,-1.825104 -0.862254,-2.902922 -0.862254,-1.092188 -2.414311,-1.092188 -1.580799,0 -2.457424,1.106559 -0.862254,1.092189 -0.862254,2.888551 0,1.839475 0.876625,2.87418 0.876625,1.034705 2.443053,1.034705 z"
       id="text2"
       aria-label="O" />
    <path
       style="font-size:14.3917px;line-height:1.25;font-family:'AR UDJingXiHeiE1G30 EB';-inkscape-font-specification:'AR UDJingXiHeiE1G30 EB';stroke-width:0.261667"
       d="m 45.552373,39.692779 q 0,2.720031 -0.877893,4.015284 -0.877894,1.295253 -2.720032,1.295253 -1.78457,0 -2.705639,-1.295253 -0.921069,-1.295253 -0.921069,-4.015284 0,-2.907123 0.877894,-4.173593 0.877893,-1.280861 2.748814,-1.280861 1.827746,0 2.70564,1.280861 0.892285,1.26647 0.892285,4.173593 z m -3.597925,3.885759 q 0.921069,0 1.35282,-0.906677 0.431751,-0.921069 0.431751,-2.979082 0,-2.216322 -0.417359,-3.122999 -0.402968,-0.906677 -1.367212,-0.906677 -0.964243,0 -1.381603,0.921069 -0.417359,0.906677 -0.417359,3.108607 0,2.043622 0.431751,2.96469 0.431751,0.921069 1.367211,0.921069 z m 8.534268,-4.40386 q -0.618843,0 -1.064986,0.230267 -0.446142,0.215876 -0.76276,0.662018 l -1.61187,-0.1727 0.777152,-5.483238 h 5.814247 v 1.424779 h -4.346294 l -0.402967,2.720031 q 0.359792,-0.402968 0.863502,-0.604452 0.518101,-0.215875 1.208902,-0.215875 1.482345,0 2.345847,0.964244 0.863502,0.964244 0.863502,2.633681 0,1.741396 -0.964243,2.70564 -0.964244,0.964243 -2.70564,0.964243 -1.712612,0 -2.676856,-0.84911 -0.964244,-0.84911 -0.993027,-2.28828 h 1.770179 q -0.01439,0.67641 0.460534,1.194511 0.474926,0.518101 1.395995,0.518101 0.877894,0 1.381603,-0.575668 0.518101,-0.59006 0.518101,-1.69822 0,-1.036203 -0.532493,-1.583087 -0.532493,-0.546885 -1.338428,-0.546885 z"
       id="text3"
       aria-label="05" />
    <path
       style="font-weight:500;font-size:72px;line-height:1.25;font-family:'Noto Sans TC';-inkscape-font-specification:'Noto Sans TC Medium';white-space:pre"
       d="m 161.45742,87.345406 h 65.016 v 6.696 h -65.016 z m 11.448,44.064004 h 41.688 v 6.48 h -41.688 z m 17.28,-56.736004 h 7.416 v 37.440004 h -7.416 z m -21.168,33.768004 h 49.896 v 32.76 h -7.416 v -26.28 h -35.424 v 26.568 h -7.056 z m 65.016,-28.008004 h 63.864 v 5.688 h -63.864 z m 10.224,37.440004 h 43.416 v 5.616 h -43.416 z m -9.72,-9.648 h 62.64 v 13.752 h -6.336 v -8.496 h -50.184 v 8.496 h -6.12 z m 16.056,-13.824004 v 5.184 h 30.456 v -5.184 z m -6.768,-4.608 h 44.424 v 14.472004 h -44.424 z m 19.44,29.304004 h 7.344 v 15.048 q 0,2.736 -0.792,4.104 -0.792,1.44 -3.096,2.232 -2.16,0.648 -5.616,0.72 -3.384,0.144 -8.136,0.144 -0.288,-1.44 -1.008,-3.168 -0.648,-1.728 -1.368,-3.024 2.304,0.072 4.536,0.144 2.304,0 4.032,0 1.728,0 2.376,0 1.008,-0.144 1.368,-0.36 0.36,-0.288 0.36,-1.008 z m -3.312,-43.344004 6.624,-1.728 q 1.296,1.728 2.664,3.96 1.368,2.232 2.16,3.816 l -6.984,2.016 q -0.576,-1.656 -1.944,-3.888 -1.296,-2.304 -2.52,-4.176 z"
       id="text4"
       transform="matrix(0.26166763,0,0,0.26166763,21.928459,-4.0633201)"
       aria-label="古亭" />
    <path
       style="font-size:7.32669px;line-height:1.25;font-family:'AR UDJingXiHeiE1G30 EB';-inkscape-font-specification:'AR UDJingXiHeiE1G30 EB';stroke-width:0.261667"
       d="m 68.34238,40.24167 q -0.271088,0.380988 -0.681382,0.564155 -0.402968,0.175841 -0.923163,0.175841 -1.142964,0 -1.81702,-0.718016 -0.674055,-0.725342 -0.674055,-2.022166 0,-1.304151 0.710689,-2.022167 0.710689,-0.718016 1.919593,-0.718016 0.974449,0 1.582565,0.446929 0.615442,0.439601 0.739995,1.26019 h -0.930489 q -0.07327,-0.432274 -0.432275,-0.703362 -0.351681,-0.278414 -0.959796,-0.278414 -0.813263,0 -1.238211,0.527521 -0.424948,0.520195 -0.424948,1.487319 0,1.033063 0.446928,1.523951 0.446928,0.483562 1.216231,0.483562 0.674055,0 1.069696,-0.395642 0.395642,-0.395641 0.395642,-0.908509 v -0.109901 h -1.501972 v -0.725342 h 2.395828 v 2.776816 H 68.34238 Z m 6.43283,-1.208904 q 0,0.923163 -0.578809,1.436031 -0.578808,0.512869 -1.648505,0.512869 -1.08435,0 -1.670485,-0.505542 -0.578809,-0.505542 -0.578809,-1.436031 v -3.450871 h 0.93049 v 3.406911 q 0,0.600788 0.329701,0.930489 0.329701,0.329701 0.989103,0.329701 0.622769,0 0.95247,-0.315047 0.337028,-0.322375 0.337028,-0.959797 v -3.392257 h 0.937816 z m 2.307909,-2.718202 h -1.648506 v -0.725342 h 4.220174 v 0.725342 h -1.641179 v 4.571855 h -0.930489 z m 4.205518,-0.725342 v 5.297197 h -0.930489 v -5.297197 z m 2.146716,1.472664 v 3.824533 h -0.93049 v -5.297197 h 0.959796 l 2.600975,3.912452 v -3.912452 h 0.93049 v 5.297197 h -1.01841 z m 8.667469,3.179784 q -0.271087,0.380988 -0.681382,0.564155 -0.402968,0.175841 -0.923163,0.175841 -1.142963,0 -1.817019,-0.718016 -0.674055,-0.725342 -0.674055,-2.022166 0,-1.304151 0.710689,-2.022167 0.710689,-0.718016 1.919592,-0.718016 0.97445,0 1.582566,0.446929 0.615441,0.439601 0.739995,1.26019 h -0.930489 q -0.07327,-0.432274 -0.432275,-0.703362 -0.351681,-0.278414 -0.959797,-0.278414 -0.813262,0 -1.23821,0.527521 -0.424948,0.520195 -0.424948,1.487319 0,1.033063 0.446928,1.523951 0.446928,0.483562 1.21623,0.483562 0.674056,0 1.069697,-0.395642 0.395641,-0.395641 0.395641,-0.908509 v -0.109901 h -1.501971 v -0.725342 h 2.395828 v 2.776816 h -0.893857 z"
       id="text5"
       aria-label="GUTING" />
    <path
       d="m 64.08064,44.699548 h 6.616002 V 45.38093 H 64.08064 Z m 1.164944,4.483934 h 4.242154 v 0.659402 H 65.245584 Z M 67.00399,43.41005 h 0.754649 v 3.809879 H 67.00399 Z m -2.154047,3.436218 h 5.077396 v 3.333644 H 69.17269 V 47.50567 h -3.604732 v 2.703549 h -0.718015 z m 6.616001,-2.835429 h 6.498774 v 0.578808 h -6.498774 z m 1.04039,3.839185 h 4.417994 v 0.564156 h -4.417994 z m 1.809693,-4.461954 h 0.725342 v 0.959797 h -0.725342 z m -2.798796,3.458198 h 6.37422 v 1.494645 H 77.246703 V 47.381116 H 72.14 v 0.959797 h -0.622769 z m 1.633852,-1.414051 v 0.571482 h 3.09919 v -0.571482 z m -0.688709,-0.476235 h 4.520568 v 1.523951 h -4.520568 z m 1.897613,3.011269 h 0.754649 v 1.516625 q 0,0.285741 -0.09525,0.432275 -0.08792,0.146534 -0.337028,0.212474 -0.234454,0.06594 -0.600788,0.07327 -0.366335,0.01465 -0.88653,0.01465 -0.02198,-0.146533 -0.09525,-0.322374 -0.07327,-0.175841 -0.15386,-0.307721 0.256434,0.0073 0.512868,0.01465 0.256434,0.0073 0.446928,0 0.197821,0 0.271087,0 0.109901,-0.0073 0.146534,-0.03663 0.03663,-0.02931 0.03663,-0.1099 z"
       id="text5-9"
       style="font-weight:500;font-size:7.32669px;line-height:1.25;font-family:'Noto Sans JP';-inkscape-font-specification:'Noto Sans JP Medium';stroke-width:0.261667"
       aria-label="古亭" />
    <path
       style="font-weight:500;font-size:7.32669px;line-height:1.25;font-family:'Noto Sans KR';-inkscape-font-specification:'Noto Sans KR Medium';stroke-width:0.261667"
       d="m 87.506205,44.002468 h 4.18354 v 0.615442 h -4.18354 z m -0.732669,2.864736 h 6.051846 v 0.622768 h -6.051846 z m 2.615628,0.432274 h 0.776629 v 2.98929 h -0.776629 z m 1.92692,-3.29701 h 0.754649 v 0.586135 q 0,0.351681 -0.01465,0.747322 -0.0073,0.395642 -0.06594,0.871876 -0.05129,0.468909 -0.17584,1.04039 l -0.761976,-0.09525 q 0.197821,-0.82059 0.227127,-1.436032 0.03663,-0.615442 0.03663,-1.12831 z m 2.571669,2.688895 h 0.556828 q 0.710689,0 1.238211,-0.01465 0.534848,-0.01465 0.989103,-0.05129 0.454255,-0.03663 0.923163,-0.109901 l 0.07327,0.600789 q -0.476235,0.08059 -0.945143,0.124554 -0.468908,0.03663 -1.011083,0.05129 -0.542175,0.0073 -1.267518,0.0073 h -0.556828 z m 0,-2.622955 h 3.201764 v 0.615442 h -2.439788 v 2.278601 h -0.761976 z m 0.520195,1.296824 h 2.491075 v 0.608115 h -2.491075 z m 3.853839,-1.773059 h 0.769302 v 4.102947 h -0.769302 z m -1.465338,4.198194 q 0.703362,0 1.208904,0.15386 0.512868,0.146534 0.783956,0.424948 0.278414,0.271088 0.278414,0.666729 0,0.593462 -0.608115,0.915836 -0.608116,0.322375 -1.663159,0.322375 -1.055043,0 -1.663159,-0.322375 -0.600788,-0.322374 -0.600788,-0.915836 0,-0.586135 0.600788,-0.915836 0.608116,-0.329701 1.663159,-0.329701 z m 0,0.600788 q -0.468908,0 -0.813263,0.07327 -0.337027,0.07327 -0.512868,0.219801 -0.175841,0.139207 -0.175841,0.351681 0,0.205147 0.175841,0.351681 0.175841,0.146534 0.512868,0.219801 0.344355,0.07327 0.813263,0.07327 0.483561,0 0.813263,-0.07327 0.337027,-0.07327 0.512868,-0.219801 0.17584,-0.146534 0.17584,-0.351681 0,-0.212474 -0.17584,-0.351681 -0.175841,-0.146534 -0.512868,-0.219801 -0.329702,-0.07327 -0.813263,-0.07327 z"
       id="text5-9-8"
       aria-label="구팅" />
  </g>
</svg>
