<?xml version="1.0" encoding="UTF-8" standalone="no"?>
<!-- Created with Inkscape (http://www.inkscape.org/) -->

<svg
   width="500"
   height="250"
   viewBox="0 0 132.29166 66.145833"
   version="1.1"
   id="svg1"
   inkscape:version="1.3.2 (091e20e, 2023-11-25, custom)"
   sodipodi:docname="o06.svg"
   xmlns:inkscape="http://www.inkscape.org/namespaces/inkscape"
   xmlns:sodipodi="http://sodipodi.sourceforge.net/DTD/sodipodi-0.dtd"
   xmlns="http://www.w3.org/2000/svg"
   xmlns:svg="http://www.w3.org/2000/svg">
  <sodipodi:namedview
     id="namedview1"
     pagecolor="#9e652e"
     bordercolor="#ffffff"
     borderopacity="1"
     inkscape:showpageshadow="0"
     inkscape:pageopacity="0"
     inkscape:pagecheckerboard="false"
     inkscape:deskcolor="#d1d1d1"
     inkscape:document-units="mm"
     inkscape:zoom="2.0208096"
     inkscape:cx="288.49823"
     inkscape:cy="82.145295"
     inkscape:window-width="1920"
     inkscape:window-height="1009"
     inkscape:window-x="1912"
     inkscape:window-y="-8"
     inkscape:window-maximized="1"
     inkscape:current-layer="layer1" />
  <defs
     id="defs1">
    <rect
       x="560.66638"
       y="34.144731"
       width="279.32397"
       height="128.59143"
       id="rect6" />
    <rect
       x="157.85752"
       y="62.351248"
       width="329.07603"
       height="135.09437"
       id="rect4" />
    <rect
       x="157.85751"
       y="62.35125"
       width="329.07602"
       height="135.09438"
       id="rect4-5" />
  </defs>
  <g
     inkscape:label="Layer 1"
     inkscape:groupmode="layer"
     id="layer1">
    <rect
       style="fill:#f4eed7;fill-opacity:1;stroke:none;stroke-width:0.953294;stroke-dasharray:none"
       id="rect5"
       width="132.29167"
       height="66.145836"
       x="-2.5431316e-06"
       y="-1.2715658e-06"
       ry="0" />
    <g
       id="g1"
       style="opacity:0">
      <path
         id="rect1"
         style="fill:none;fill-opacity:0;stroke:#000000;stroke-width:0.942789"
         d="m 38.080164,14.352791 h 12.425165 c 3.927061,0 7.088558,3.161497 7.088558,7.088559 v 23.263136 c 0,3.927062 -3.161497,7.088559 -7.088558,7.088559 H 38.080164 c -3.927061,0 -7.088558,-3.161497 -7.088558,-7.088559 V 21.44135 c 0,-3.927062 3.161497,-7.088559 7.088558,-7.088559 z" />
      <path
         style="font-size:14.0262px;line-height:1.25;font-family:'AR UDJingXiHeiE1G30 EB';-inkscape-font-specification:'AR UDJingXiHeiE1G30 EB';stroke-width:0.292211"
         d="m 49.35626,26.030133 q 0,2.440558 -1.360541,3.829152 -1.346516,1.374568 -3.688891,1.374568 -2.384454,0 -3.730969,-1.388594 -1.346516,-1.388594 -1.346516,-3.815126 0,-2.468612 1.360542,-3.871232 1.360541,-1.416646 3.716943,-1.416646 2.384454,0 3.716943,1.40262 1.332489,1.40262 1.332489,3.885258 z m -5.049432,3.815126 q 1.528856,0 2.356402,-1.009886 0.841572,-1.009887 0.841572,-2.80524 0,-1.781328 -0.841572,-2.833293 -0.841573,-1.065991 -2.356402,-1.065991 -1.542882,0 -2.39848,1.080017 -0.841572,1.065991 -0.841572,2.819267 0,1.795353 0.855598,2.80524 0.855598,1.009886 2.384454,1.009886 z"
         id="text2"
         aria-label="O" />
      <path
         style="font-size:14.3917px;line-height:1.25;font-family:'AR UDJingXiHeiE1G30 EB';-inkscape-font-specification:'AR UDJingXiHeiE1G30 EB';stroke-width:0.261667"
         d="m 43.659488,39.692779 q 0,2.720031 -0.877894,4.015284 -0.877893,1.295253 -2.720031,1.295253 -1.784571,0 -2.705639,-1.295253 -0.921069,-1.295253 -0.921069,-4.015284 0,-2.907123 0.877893,-4.173593 0.877894,-1.280861 2.748815,-1.280861 1.827746,0 2.70564,1.280861 0.892285,1.26647 0.892285,4.173593 z m -3.597925,3.885759 q 0.921069,0 1.35282,-0.906677 0.431751,-0.921069 0.431751,-2.979082 0,-2.216322 -0.417359,-3.122999 -0.402968,-0.906677 -1.367212,-0.906677 -0.964244,0 -1.381603,0.921069 -0.417359,0.906677 -0.417359,3.108607 0,2.043622 0.431751,2.96469 0.431751,0.921069 1.367211,0.921069 z m 8.706968,1.424778 q -0.820327,0 -1.496736,-0.230267 -0.662019,-0.230267 -1.136945,-0.733976 -0.575668,-0.59006 -0.863502,-1.597479 -0.287834,-1.021811 -0.287834,-2.532939 0,-2.691248 0.978636,-4.173593 0.993027,-1.496737 2.835165,-1.496737 1.496736,0 2.317063,0.805935 0.834719,0.805935 0.921069,1.986055 H 50.27966 q -0.02878,-0.489318 -0.402968,-0.921069 -0.359792,-0.446143 -1.064986,-0.446143 -0.93546,0 -1.482345,1.021811 -0.532493,1.021811 -0.546884,2.532939 0.431751,-0.59006 1.050594,-0.892285 0.618843,-0.302226 1.395995,-0.302226 1.43917,0 2.259497,0.949852 0.820326,0.935461 0.820326,2.432197 0,1.727004 -0.978635,2.662465 -0.978636,0.93546 -2.561723,0.93546 z m 1.727004,-3.525966 q 0,-0.892285 -0.489318,-1.453562 -0.474926,-0.575668 -1.252077,-0.575668 -0.849111,0 -1.35282,0.546885 -0.489318,0.532493 -0.518101,1.43917 0,1.007419 0.489317,1.583087 0.50371,0.561276 1.367212,0.561276 0.834719,0 1.295253,-0.546884 0.460534,-0.546885 0.460534,-1.554304 z"
         id="text3"
         aria-label="06" />
    </g>
    <path
       style="font-weight:500;font-size:72px;line-height:1.25;font-family:'Noto Sans TC';-inkscape-font-specification:'Noto Sans TC Medium';white-space:pre;stroke-width:0.261668"
       d="m 62.509834,17.171899 h 16.598101 v 1.657926 H 62.509834 Z m 7.272267,-1.695606 h 1.865167 v 17.483585 h -1.865167 z m -0.489842,10.776521 1.507206,0.640562 q -0.659403,0.923164 -1.526046,1.789807 -0.866643,0.847803 -1.865167,1.601406 -0.998523,0.753602 -2.053567,1.356485 -1.055044,0.621722 -2.110088,1.055044 -0.131881,-0.226081 -0.357961,-0.508682 -0.207241,-0.263761 -0.452162,-0.546362 -0.226081,-0.263761 -0.414482,-0.433322 1.017364,-0.357961 2.053568,-0.885483 1.055044,-0.527522 2.034728,-1.186925 0.979683,-0.659402 1.789806,-1.394165 0.810123,-0.734762 1.394165,-1.488365 z m 2.882531,0.05652 q 0.602882,0.753603 1.431845,1.469525 0.847803,0.715923 1.827487,1.375325 0.979683,0.659403 2.034727,1.186925 1.055044,0.508682 2.110088,0.847803 -0.207241,0.188401 -0.452162,0.452162 -0.24492,0.282601 -0.471001,0.565202 -0.207241,0.282601 -0.357962,0.527522 -1.036203,-0.433322 -2.110087,-1.055044 -1.055044,-0.602882 -2.072408,-1.356485 -0.998524,-0.772443 -1.865167,-1.620246 -0.847803,-0.866643 -1.526045,-1.752127 z m -6.292583,-1.940527 v 1.526045 h 9.891036 v -1.526045 z m 0,-2.807172 v 1.507207 h 9.891036 V 21.561635 Z M 64.13008,20.20515 h 13.45181 v 7.065028 H 64.13008 Z m 18.538628,-1.073883 h 5.011459 v 1.299964 h -5.011459 z m 8.685272,0 h 5.086819 v 1.299964 H 91.35398 Z m 4.352056,-2.826011 h 1.789807 V 30.68023 q 0,0.828963 -0.207241,1.262285 -0.20724,0.452161 -0.753602,0.678242 -0.546362,0.226081 -1.450686,0.263761 -0.904323,0.05652 -2.223128,0.05652 -0.03768,-0.24492 -0.150721,-0.584042 -0.0942,-0.320281 -0.22608,-0.678242 -0.131881,-0.339121 -0.263761,-0.565202 0.621722,0.01884 1.224604,0.03768 0.621722,0 1.092724,0 0.471002,0 0.659403,0 0.282601,-0.01884 0.395641,-0.113041 0.11304,-0.11304 0.11304,-0.376801 z m -12.886607,0 h 5.953462 v 7.083867 h -5.953462 v -1.450686 h 4.276696 v -4.163655 h -4.276696 z m 13.828611,0 v 1.469526 h -4.615817 v 4.182495 h 4.615817 v 1.469526 h -6.311423 v -7.121547 z m -14.827135,0 h 1.752127 v 16.654622 h -1.752127 z"
       id="text4"
       aria-label="東門" />
    <path
       style="font-size:7.32669px;line-height:1.25;font-family:'AR UDJingXiHeiE1G30 EB';-inkscape-font-specification:'AR UDJingXiHeiE1G30 EB';stroke-width:0.261667"
       d="m 67.072263,38.175543 q 0,1.318805 -0.622769,2.01484 -0.615442,0.696036 -1.721772,0.696036 h -2.1687 v -5.297197 h 2.1687 q 1.10633,0 1.721772,0.652075 0.622769,0.652076 0.622769,1.934246 z m -0.967123,0 q 0,-0.959796 -0.395641,-1.406724 -0.388315,-0.454255 -1.135637,-0.454255 h -1.08435 v 3.846512 h 1.091676 q 0.718016,0 1.120984,-0.476234 0.402968,-0.476235 0.402968,-1.509299 z m 7.077576,0.08792 q 0,1.274844 -0.710689,2.000186 -0.703362,0.718016 -1.926919,0.718016 -1.245537,0 -1.9489,-0.725343 -0.703362,-0.725342 -0.703362,-1.992859 0,-1.289498 0.710689,-2.022167 0.710689,-0.739996 1.941573,-0.739996 1.245537,0 1.941573,0.732669 0.696035,0.732669 0.696035,2.029494 z m -2.637608,1.992859 q 0.798609,0 1.230884,-0.527521 0.439601,-0.527522 0.439601,-1.465338 0,-0.93049 -0.439601,-1.479992 -0.439602,-0.556828 -1.230884,-0.556828 -0.805936,0 -1.252864,0.564155 -0.439601,0.556828 -0.439601,1.472665 0,0.937816 0.446928,1.465338 0.446928,0.527521 1.245537,0.527521 z m 4.579183,-3.194437 v 3.824533 h -0.93049 v -5.297197 h 0.959796 l 2.600975,3.912452 v -3.912452 h 0.93049 v 5.297197 h -1.01841 z m 8.667469,3.179784 q -0.271087,0.380988 -0.681382,0.564155 -0.402968,0.175841 -0.923163,0.175841 -1.142963,0 -1.817019,-0.718016 -0.674055,-0.725342 -0.674055,-2.022166 0,-1.304151 0.710689,-2.022167 0.710689,-0.718016 1.919592,-0.718016 0.97445,0 1.582566,0.446929 0.615442,0.439601 0.739995,1.26019 h -0.930489 q -0.07327,-0.432274 -0.432275,-0.703362 -0.351681,-0.278414 -0.959797,-0.278414 -0.813262,0 -1.23821,0.527521 -0.424948,0.520195 -0.424948,1.487319 0,1.033063 0.446928,1.523951 0.446928,0.483562 1.21623,0.483562 0.674056,0 1.069697,-0.395642 0.395641,-0.395641 0.395641,-0.908509 v -0.109901 h -1.501971 v -0.725342 h 2.395828 v 2.776816 H 83.79176 Z m 2.894038,-3.172457 v 3.817206 h -0.901183 v -5.297197 h 1.179598 l 1.523951,4.110273 1.465338,-4.110273 h 1.208904 v 5.297197 h -0.90851 v -3.846513 l -1.377417,3.846513 h -0.783956 z m 9.612616,3.817206 h -3.91978 v -5.297197 h 3.8978 v 0.725342 h -2.96731 v 1.494645 h 2.769489 v 0.725342 h -2.769489 v 1.626525 h 2.98929 z m 1.91227,-3.824533 v 3.824533 h -0.93049 v -5.297197 h 0.959797 l 2.600979,3.912452 v -3.912452 h 0.93049 v 5.297197 h -1.01841 z"
       id="text5"
       aria-label="DONGMEN" />
    <path
       d="m 62.275675,44.069452 h 6.454814 v 0.644749 h -6.454814 z m 2.828103,-0.659402 h 0.725342 v 6.799169 h -0.725342 z m -0.190494,4.190867 0.586135,0.249107 q -0.256434,0.359008 -0.593462,0.696036 -0.337028,0.329701 -0.725342,0.622769 -0.388315,0.293067 -0.798609,0.527521 -0.410295,0.241781 -0.82059,0.410295 -0.05129,-0.08792 -0.139207,-0.197821 -0.08059,-0.102573 -0.17584,-0.212474 -0.08792,-0.102573 -0.161188,-0.168514 0.395642,-0.139207 0.79861,-0.344354 0.410294,-0.205147 0.791282,-0.461581 0.380988,-0.256435 0.696036,-0.542176 0.315047,-0.28574 0.542175,-0.578808 z m 1.120983,0.02198 q 0.234454,0.293068 0.556829,0.571482 0.329701,0.278414 0.710689,0.534848 0.380988,0.256434 0.791282,0.461582 0.410295,0.19782 0.82059,0.329701 -0.08059,0.07327 -0.175841,0.17584 -0.09525,0.109901 -0.183167,0.219801 -0.08059,0.1099 -0.139207,0.205147 -0.402968,-0.168513 -0.82059,-0.410294 -0.410294,-0.234454 -0.805936,-0.527522 -0.388314,-0.300394 -0.725342,-0.630095 -0.329701,-0.337028 -0.593462,-0.681382 z m -2.447114,-0.754649 v 0.593462 h 3.846512 v -0.593462 z m 0,-1.091677 v 0.586135 h 3.846512 v -0.586135 z m -0.681382,-0.527522 h 5.231256 v 2.747509 h -5.231256 z m 7.209463,-0.417621 h 1.948899 v 0.505542 h -1.948899 z m 3.377604,0 h 1.978206 v 0.505542 h -1.978206 z m 1.692465,-1.099003 h 0.696036 v 5.590264 q 0,0.322375 -0.08059,0.490888 -0.08059,0.175841 -0.293067,0.263761 -0.212474,0.08792 -0.564155,0.102574 -0.351681,0.02198 -0.86455,0.02198 -0.01465,-0.09525 -0.05861,-0.227127 -0.03663,-0.124554 -0.08792,-0.263761 -0.05129,-0.131881 -0.102573,-0.219801 0.241781,0.0073 0.476235,0.01465 0.24178,0 0.424948,0 0.183167,0 0.256434,0 0.1099,-0.0073 0.15386,-0.04396 0.04396,-0.04396 0.04396,-0.146534 z m -5.011456,0 h 2.315234 v 2.754835 h -2.315234 v -0.564155 h 1.663159 v -1.619199 h -1.663159 z m 5.377791,0 v 0.571481 h -1.795039 v 1.626526 h 1.795039 v 0.571481 h -2.454441 v -2.769488 z m -5.766105,0 h 0.681382 v 6.476794 h -0.681382 z"
       id="text5-9"
       style="font-weight:500;font-size:7.32669px;line-height:1.25;font-family:'Noto Sans JP';-inkscape-font-specification:'Noto Sans JP Medium';stroke-width:0.261667"
       aria-label="東門" />
    <path
       style="font-weight:500;font-size:7.32669px;line-height:1.25;font-family:'Noto Sans KR';-inkscape-font-specification:'Noto Sans KR Medium';stroke-width:0.261667"
       d="m 83.30048,46.67671 h 6.051846 v 0.615442 H 83.30048 Z m 2.637608,0.278414 h 0.761976 v 1.238211 h -0.761976 z m 0.366335,0.893856 q 1.08435,0 1.692465,0.315048 0.615442,0.315047 0.615442,0.901183 0,0.578808 -0.615442,0.893856 -0.608115,0.322374 -1.692465,0.322374 -1.069697,0 -1.685139,-0.322374 -0.615442,-0.315048 -0.615442,-0.893856 0,-0.586136 0.615442,-0.901183 0.615442,-0.315048 1.685139,-0.315048 z m 0,0.586135 q -0.483562,0 -0.827916,0.07327 -0.344355,0.07327 -0.527522,0.212474 -0.175841,0.131881 -0.175841,0.344355 0,0.205147 0.175841,0.344354 0.183167,0.139207 0.527522,0.212474 0.344354,0.06594 0.827916,0.06594 0.498214,0 0.835242,-0.06594 0.344355,-0.07327 0.520195,-0.212474 0.175841,-0.139207 0.175841,-0.344354 0,-0.212474 -0.175841,-0.344355 -0.17584,-0.139207 -0.520195,-0.212474 -0.337028,-0.07327 -0.835242,-0.07327 z m -2.256621,-2.916022 h 4.601161 v 0.615442 h -4.601161 z m 0,-1.633852 h 4.564528 v 0.608115 h -3.802552 v 1.421378 h -0.761976 z m 6.278974,0.263761 h 3.09919 v 3.172456 h -3.09919 z m 2.351868,0.608115 h -1.597219 v 1.948899 h 1.597219 z m 2.132067,-1.164944 h 0.769302 v 4.879576 h -0.769302 z m -1.597219,1.817019 h 1.802366 v 0.615442 h -1.802366 z m -1.970879,4.1176 h 4.513241 v 0.622769 h -4.513241 z m 0,-1.509298 h 0.769302 v 1.809692 h -0.769302 z"
       id="text5-9-8"
       aria-label="둥먼" />
    <text
       xml:space="preserve"
       transform="matrix(0.31615295,0,0,0.31615295,-10.474341,-6.4462013)"
       id="text6"
       style="font-size:55px;line-height:1.25;font-family:'Microsoft JhengHei';-inkscape-font-specification:'Microsoft JhengHei';white-space:pre;shape-inside:url(#rect6);display:inline" />
  </g>
</svg>
