<?xml version="1.0" encoding="UTF-8" standalone="no"?>
<!-- Created with Inkscape (http://www.inkscape.org/) -->

<svg
   width="500"
   height="250"
   viewBox="0 0 132.29166 66.145833"
   version="1.1"
   id="svg1"
   inkscape:version="1.3.2 (091e20e, 2023-11-25, custom)"
   sodipodi:docname="o07.svg"
   xmlns:inkscape="http://www.inkscape.org/namespaces/inkscape"
   xmlns:sodipodi="http://sodipodi.sourceforge.net/DTD/sodipodi-0.dtd"
   xmlns="http://www.w3.org/2000/svg"
   xmlns:svg="http://www.w3.org/2000/svg">
  <sodipodi:namedview
     id="namedview1"
     pagecolor="#9e652e"
     bordercolor="#ffffff"
     borderopacity="1"
     inkscape:showpageshadow="0"
     inkscape:pageopacity="0"
     inkscape:pagecheckerboard="false"
     inkscape:deskcolor="#d1d1d1"
     inkscape:document-units="mm"
     inkscape:zoom="1.4289282"
     inkscape:cx="357.6107"
     inkscape:cy="100.07501"
     inkscape:window-width="1920"
     inkscape:window-height="1009"
     inkscape:window-x="1912"
     inkscape:window-y="-8"
     inkscape:window-maximized="1"
     inkscape:current-layer="g4" />
  <defs
     id="defs1">
    <rect
       x="560.66638"
       y="34.144731"
       width="279.32397"
       height="128.59143"
       id="rect6" />
    <rect
       x="157.85752"
       y="62.351248"
       width="329.07603"
       height="135.09437"
       id="rect4" />
    <rect
       x="157.85751"
       y="62.35125"
       width="329.07602"
       height="135.09438"
       id="rect4-5" />
  </defs>
  <g
     inkscape:label="Layer 1"
     inkscape:groupmode="layer"
     id="layer1">
    <rect
       style="fill:#f4eed7;fill-opacity:1;stroke:none;stroke-width:0.953294;stroke-dasharray:none"
       id="rect5"
       width="132.29167"
       height="66.145836"
       x="-2.5431316e-06"
       y="-1.2715658e-06"
       ry="0" />
    <g
       id="g4"
       transform="translate(-4.3520962)"
       style="fill:#000000">
      <text
         xml:space="preserve"
         transform="matrix(0.31615295,0,0,0.31615295,-6.1222449,-6.4462013)"
         id="text6"
         style="font-size:55px;line-height:1.25;font-family:'Microsoft JhengHei';-inkscape-font-specification:'Microsoft JhengHei';white-space:pre;shape-inside:url(#rect6);display:inline;fill:#000000" />
      <g
         id="g1"
         transform="matrix(0.64378204,0,0,0.64378204,-2.0927023,11.781166)">
        <path
           id="rect1"
           style="fill-opacity:0;stroke:#000000;stroke-width:0.942789"
           d="M 20.265186,14.352791 H 32.69035 c 3.927062,0 7.088559,3.161497 7.088559,7.088559 v 23.263136 c 0,3.927062 -3.161497,7.088559 -7.088559,7.088559 H 20.265186 c -3.927062,0 -7.088559,-3.161497 -7.088559,-7.088559 V 21.44135 c 0,-3.927062 3.161497,-7.088559 7.088559,-7.088559 z" />
        <path
           style="font-size:12.56px;line-height:1.25;font-family:'AR UDJingXiHeiE1G30 EB';-inkscape-font-specification:'AR UDJingXiHeiE1G30 EB';text-align:center;text-anchor:middle;stroke-width:0.261667"
           d="m 30.901117,25.496617 q 0,2.18544 -1.21832,3.42888 -1.20576,1.23088 -3.30328,1.23088 -2.135201,0 -3.340961,-1.24344 -1.20576,-1.24344 -1.20576,-3.41632 0,-2.21056 1.21832,-3.46656 1.21832,-1.26856 3.328401,-1.26856 2.1352,0 3.3284,1.256 1.1932,1.256 1.1932,3.47912 z m -4.5216,3.41632 q 1.36904,0 2.11008,-0.90432 0.7536,-0.90432 0.7536,-2.512 0,-1.59512 -0.7536,-2.53712 -0.7536,-0.95456 -2.11008,-0.95456 -1.3816,0 -2.147761,0.96712 -0.7536,0.95456 -0.7536,2.52456 0,1.60768 0.76616,2.512 0.766161,0.90432 2.135201,0.90432 z"
           id="text2"
           aria-label="O" />
        <path
           style="font-size:14.3917px;line-height:1.25;font-family:'AR UDJingXiHeiE1G30 EB';-inkscape-font-specification:'AR UDJingXiHeiE1G30 EB';stroke-width:0.261667"
           d="m 25.844511,39.692779 q 0,2.720031 -0.877894,4.015284 -0.877894,1.295253 -2.720031,1.295253 -1.784571,0 -2.70564,-1.295253 -0.921069,-1.295253 -0.921069,-4.015284 0,-2.907123 0.877894,-4.173593 0.877894,-1.280861 2.748815,-1.280861 1.827745,0 2.705639,1.280861 0.892286,1.26647 0.892286,4.173593 z m -3.597925,3.885759 q 0.921068,0 1.352819,-0.906677 0.431751,-0.921069 0.431751,-2.979082 0,-2.216322 -0.417359,-3.122999 -0.402968,-0.906677 -1.367211,-0.906677 -0.964244,0 -1.381604,0.921069 -0.417359,0.906677 -0.417359,3.108607 0,2.043622 0.431751,2.96469 0.431751,0.921069 1.367212,0.921069 z m 6.562605,1.237686 3.669883,-8.98042 H 27.28367 v -1.424779 h 7.051933 v 1.194511 l -3.669883,9.210688 z"
           id="text3"
           aria-label="07" />
        <path
           style="font-weight:500;font-size:72px;line-height:1.25;font-family:'Noto Sans TC';-inkscape-font-specification:'Noto Sans TC Medium';white-space:pre"
           d="m 178.23342,116.00141 h 7.056 v 14.904 q 0,1.584 0.792,2.088 0.864,0.504 3.816,0.504 0.648,0 2.304,0 1.728,0 3.744,0 2.016,0 3.744,0 1.8,0 2.664,0 1.728,0 2.592,-0.648 0.864,-0.648 1.224,-2.592 0.36,-1.944 0.504,-5.904 0.792,0.576 1.944,1.152 1.152,0.504 2.376,0.936 1.224,0.36 2.16,0.648 -0.432,5.112 -1.44,7.92 -1.008,2.736 -3.096,3.816 -2.088,1.08 -5.688,1.08 -0.576,0 -2.016,0 -1.368,0 -3.168,0 -1.728,0 -3.528,0 -1.728,0 -3.168,0 -1.368,0 -1.872,0 -4.32,0 -6.696,-0.792 -2.376,-0.792 -3.312,-2.736 -0.936,-1.944 -0.936,-5.4 z m 9.432,0 5.256,-3.744 q 1.872,1.44 3.96,3.24 2.088,1.8 3.96,3.6 1.872,1.728 3.024,3.168 l -5.472,4.176 q -1.08,-1.44 -2.952,-3.24 -1.8,-1.872 -3.816,-3.744 -2.016,-1.944 -3.96,-3.456 z m 22.464,2.376 5.904,-2.88 q 1.872,2.448 3.96,5.472 2.16,3.024 3.96,5.904 1.872,2.88 3.024,5.112 l -6.264,3.456 q -1.008,-2.232 -2.808,-5.184 -1.8,-2.952 -3.888,-6.048 -2.016,-3.168 -3.888,-5.832 z m -41.76,-2.448 6.048,2.448 q -0.936,2.808 -2.16,6.12 -1.224,3.24 -2.592,6.408 -1.296,3.168 -2.808,5.616 l -6.408,-2.88 q 1.584,-2.376 3.096,-5.4 1.512,-3.024 2.736,-6.192 1.296,-3.24 2.088,-6.12 z m 22.032,-41.256004 h 6.84 v 38.808004 h -6.84 z m -16.704,14.472 v 11.736004 h 40.536 V 89.145406 Z m -6.552,-6.12 h 53.928 v 23.904004 h -53.928 z m 66.24,11.592 h 65.016 v 5.976004 h -65.016 z m 6.12,25.416004 h 57.888 v 5.904 h -57.888 z m 13.68,-13.896 h 30.6 v 5.472 h -30.6 z m -13.536,-23.976004 h 40.32 v 5.904 h -40.32 z m 18.288,-7.488 h 6.696 v 23.04 h -6.696 z m 30.6,2.664 5.688,3.24 q -7.2,8.712 -16.56,16.128 -9.36,7.344004 -19.944,13.176004 -10.584,5.832 -21.528,10.08 -0.432,-0.792 -1.224,-1.8 -0.792,-1.08 -1.656,-2.088 -0.792,-1.08 -1.44,-1.656 11.088,-3.816 21.6,-9.288 10.512,-5.544004 19.512,-12.600004 9,-7.056 15.552,-15.192 z m -23.616,39.456004 h 6.696 v 17.568 q 0,2.52 -0.72,3.888 -0.72,1.44 -2.808,2.16 -2.016,0.72 -5.112,0.864 -3.096,0.144 -7.488,0.144 -0.288,-1.368 -1.08,-3.096 -0.72,-1.728 -1.44,-3.024 2.232,0.072 4.32,0.144 2.16,0 3.744,0 1.656,-0.072 2.304,-0.072 0.936,0 1.224,-0.216 0.36,-0.288 0.36,-1.008 z m 16.92,-10.656 h 1.728 l 1.512,-0.288 4.176,3.744 q -2.88,2.016 -6.408,4.104 -3.456,2.016 -7.2,3.816 -3.672,1.728 -7.344,3.096 -0.576,-0.864 -1.656,-2.016 -1.008,-1.152 -1.728,-1.8 3.096,-1.08 6.336,-2.664 3.24,-1.656 6.048,-3.384 2.808,-1.8 4.536,-3.312 z m 63.072,-7.416004 h 26.28 v 6.336004 h -26.28 z m -38.88,-16.704 h 32.04 v 5.616 h -32.04 z m -0.792,28.584004 h 32.976 v 5.832 h -32.976 z m -0.36,-12.312004 h 34.344 v 5.688004 h -34.344 z m 52.272,3.168004 h 6.624 v 39.672 h -6.624 z m -46.872,-12.312004 5.544,-1.296 q 0.936,2.088 1.656,4.608 0.792,2.52 1.08,4.32 l -5.76,1.584 q -0.216,-1.872 -0.936,-4.464 -0.648,-2.592 -1.584,-4.752 z m 17.928,-1.44 6.264,1.296 q -1.152,3.024 -2.376,6.12 -1.224,3.096 -2.304,5.256004 l -5.544,-1.224004 q 0.72,-1.584 1.44,-3.6 0.72,-2.016 1.368,-4.104 0.72,-2.088 1.152,-3.744 z m 36.36,-12.024 5.328,5.04 q -3.528,1.368 -7.92,2.52 -4.32,1.08 -8.856,1.944 -4.464,0.864 -8.784,1.512 -0.216,-1.08 -0.864,-2.592 -0.576,-1.512 -1.224,-2.52 4.104,-0.72 8.208,-1.656 4.104,-0.936 7.776,-2.016 3.744,-1.152 6.336,-2.232 z m -47.88,0.144 6.768,-1.728 q 1.224,2.232 2.376,4.968 1.224,2.664 1.8,4.608 l -7.056,2.016 q -0.504,-2.016 -1.656,-4.752 -1.08,-2.808 -2.232,-5.112 z m 25.56,5.76 h 6.408 v 25.272004 q 0,3.96 -0.288,8.496 -0.216,4.536 -1.008,9.144 -0.792,4.608 -2.232,8.928 -1.44,4.32 -3.888,7.776 -0.504,-0.648 -1.512,-1.44 -0.936,-0.792 -2.016,-1.512 -1.008,-0.72 -1.728,-1.08 2.88,-4.248 4.248,-9.504 1.368,-5.256 1.656,-10.656 0.36,-5.4 0.36,-10.152 z m -13.824,39.816004 4.536,-2.448 q 1.8,2.592 3.456,5.688 1.656,3.024 2.52,5.256 l -4.68,2.808 q -0.864,-2.232 -2.592,-5.472 -1.656,-3.24 -3.24,-5.832 z m -17.28,-1.8 5.328,1.512 q -1.296,3.888 -3.384,7.92 -2.016,3.96 -4.032,6.768 -0.792,-0.72 -2.232,-1.656 -1.368,-1.008 -2.376,-1.512 2.016,-2.592 3.744,-6.048 1.8,-3.528 2.952,-6.984 z m 8.136,-18.216 h 6.624 v 39.744 h -6.624 z m 69.552,-13.104004 h 49.968 v 6.624 h -49.968 z m -3.096,21.096004 h 50.4 v 6.552 h -50.4 z m -8.064,23.256 h 64.656 v 6.624 h -64.656 z m 28.8,-57.960004 h 7.056 v 61.272004 h -7.056 z m -16.416,1.008 7.056,1.584 q -1.584,5.544 -3.816,10.944 -2.16,5.328 -4.752,9.936 -2.592,4.536004 -5.4,7.992004 -0.72,-0.576 -1.872,-1.296 -1.08,-0.792 -2.232,-1.512 -1.152,-0.792 -2.088,-1.224 2.952,-3.168004 5.4,-7.344004 2.448,-4.248 4.392,-9.144 2.016,-4.896 3.312,-9.936 z"
           id="text4"
           transform="matrix(0.26166763,0,0,0.26166763,2.2205965,-4.0633201)"
           aria-label="忠孝新生" />
        <path
           style="font-weight:500;font-size:72px;line-height:1.25;font-family:'Noto Sans TC';-inkscape-font-specification:'Noto Sans TC Medium';white-space:pre"
           d="m 173.55342,131.04941 h 40.176 v 6.552 h -40.176 z m -3.384,-20.592 h 47.376 v 30.888 h -7.272 v -24.336 h -33.12 v 24.408 h -6.984 z m 30.312,-24.768004 5.328,-3.528 q 3.384,3.024 7.128,6.84 3.744,3.744 6.912,7.488 3.24,3.744004 5.112,6.768004 l -5.832,4.248 q -1.728,-3.096 -4.824,-6.912 -3.096,-3.816004 -6.768,-7.704004 -3.6,-3.888 -7.056,-7.2 z m -33.48,19.296004 q -0.144,-0.72 -0.576,-1.944 -0.36,-1.224 -0.792,-2.52 -0.432,-1.296004 -0.864,-2.160004 1.368,-0.288 2.736,-1.368 1.368,-1.152 3.168,-2.88 1.008,-0.864 2.88,-2.88 1.872,-2.016 4.176,-4.752 2.304,-2.736 4.68,-5.976 2.376,-3.24 4.392,-6.48 l 6.84,2.952 q -3.312,4.68 -7.128,9.144 -3.744,4.392 -7.632,8.28 -3.816,3.888 -7.632,6.984004 v 0.216 q 0,0 -0.648,0.36 -0.648,0.288 -1.512,0.864 -0.864,0.504 -1.512,1.08 -0.576,0.576 -0.576,1.08 z m 0,0 -0.072,-5.328004 4.824,-2.52 45.216,-1.8 q 0.072,1.368 0.288,3.168 0.216,1.800004 0.432,2.880004 -10.656,0.576 -18.36,1.008 -7.704,0.36 -13.032,0.648 -5.256,0.288 -8.712,0.576 -3.384,0.216 -5.472,0.432 -2.016,0.144 -3.168,0.36 -1.08,0.216 -1.944,0.576 z m 67.248,-12.600004 h 21.24 v 6.84 h -21.24 z m 35.64,-16.416 h 7.128 v 51.912004 q 0,2.808 0.504,3.6 0.576,0.792 2.448,0.792 0.504,0 1.512,0 1.08,0 2.304,0 1.224,0 2.304,0 1.08,0 1.584,0 1.512,0 2.232,-1.368 0.792,-1.44 1.08,-5.112 0.36,-3.744 0.576,-10.44 0.864,0.648 2.016,1.368 1.152,0.648 2.376,1.152 1.224,0.504 2.16,0.72 -0.36,7.488 -1.224,11.952 -0.864,4.392 -2.88,6.336 -1.944,2.016 -5.688,2.016 -0.576,0 -1.872,0 -1.296,0 -2.808,0 -1.512,0 -2.808,0 -1.224,0 -1.8,0 -3.456,0 -5.472,-1.008 -2.016,-0.936 -2.88,-3.384 -0.792,-2.448 -0.792,-6.696 z m -18.072,-0.072 h 7.056 v 53.496004 h -7.056 z m -19.944,57.888004 q 3.888,-1.296 9.144,-3.168 5.256,-1.872 11.088,-4.032 5.904,-2.16 11.664,-4.32 l 1.152,6.048 q -5.112,2.232 -10.44,4.464 -5.328,2.16 -10.296,4.176 -4.968,2.016 -9.216,3.672 z m 41.76,-41.472004 h 23.04 v 6.84 h -23.04 z m 42.624,-11.376 h 6.624 v 60.480004 h -6.624 z m -11.592,13.968 h 28.368 v 6.408004 h -28.368 z m 11.952,2.52 4.104,1.8 q -1.08,3.816004 -2.592,7.992004 -1.512,4.104 -3.312,8.136 -1.728,4.032 -3.744,7.56 -2.016,3.528 -4.104,6.048 -0.504,-1.44 -1.512,-3.24 -1.008,-1.872 -1.8,-3.096 1.944,-2.16 3.816,-5.112 1.872,-3.024 3.6,-6.408 1.8,-3.456 3.168,-6.984 1.44,-3.528 2.376,-6.696004 z m 11.736,-21.96 3.96,5.544 q -3.456,1.296 -7.776,2.448 -4.248,1.08 -8.784,1.872 -4.464,0.72 -8.64,1.296 -0.144,-1.08 -0.72,-2.592 -0.576,-1.584 -1.152,-2.664 4.104,-0.648 8.352,-1.512 4.248,-0.936 8.064,-2.016 3.888,-1.152 6.696,-2.376 z m -5.688,26.568004 q 0.648,0.648 2.088,2.304 1.44,1.656 3.024,3.6 1.656,1.872 2.952,3.6 1.368,1.656 1.944,2.376 l -4.104,5.328 q -0.648,-1.368 -1.8,-3.312 -1.152,-2.016 -2.52,-4.176 -1.368,-2.16 -2.592,-4.032 -1.224,-1.872 -2.088,-2.952 z m 33.336,-27.432004 h 6.696 v 66.816004 h -6.696 z m -23.976,46.728004 38.592,-6.408 1.008,6.336 -38.52,6.552 z m 5.328,-38.088004 4.392,-3.888 q 2.088,1.368 4.32,3.168 2.232,1.8 4.176,3.6 1.944,1.8 3.096,3.384 l -4.752,4.32 q -1.08,-1.512 -2.952,-3.384 -1.8,-1.944 -4.032,-3.816 -2.16,-1.872 -4.248,-3.384 z m -2.736,18.864004 4.32,-3.960004 q 2.232,1.44 4.608,3.312004 2.448,1.8 4.536,3.672 2.088,1.8 3.312,3.384 l -4.608,4.464 q -1.152,-1.656 -3.24,-3.6 -2.016,-1.944 -4.392,-3.816 -2.304,-1.944 -4.536,-3.456 z m 43.56,-7.344004 h 63.648 v 7.056004 h -63.648 z m 35.856,2.808 q 2.304,8.496004 6.192,15.840004 3.96,7.344 9.648,12.888 5.76,5.472 13.32,8.64 -0.864,0.72 -1.872,1.872 -0.936,1.152 -1.8,2.304 -0.864,1.224 -1.44,2.16 -7.992,-3.744 -13.968,-9.864 -5.904,-6.192 -10.008,-14.328 -4.104,-8.136 -6.912,-17.856004 z m -7.92,-22.896 h 7.416 q 0,5.112 -0.288,11.016 -0.216,5.832 -1.08,12.024 -0.864,6.192004 -2.808,12.384004 -1.944,6.192 -5.4,11.952 -3.456,5.76 -8.856,10.728 -5.4,4.896 -13.176,8.568 -0.864,-1.368 -2.304,-3.024 -1.44,-1.584 -2.88,-2.664 7.488,-3.384 12.6,-7.848 5.184,-4.536 8.352,-9.792 3.24,-5.328 4.968,-11.016 1.728,-5.688 2.448,-11.376004 0.72,-5.688 0.864,-11.016 0.144,-5.328 0.144,-9.936 z"
           id="text4-0"
           transform="matrix(0.12803532,0,0,0.12803532,105.57889,6.6152838)"
           aria-label="台北科大" />
        <path
           style="font-size:7.32669px;line-height:1.25;font-family:'AR UDJingXiHeiE1G30 EB';-inkscape-font-specification:'AR UDJingXiHeiE1G30 EB';stroke-width:0.261667"
           d="m 44.626817,35.589222 h 4.146907 v 0.666729 l -3.194437,3.905125 h 3.267704 v 0.725343 H 44.385037 V 40.21969 l 3.194437,-3.905126 h -2.952657 z m 6.007887,2.945329 v 2.351868 h -0.93049 v -5.297197 h 0.93049 v 2.219987 h 2.542361 v -2.219987 h 0.93049 v 5.297197 h -0.93049 v -2.351868 z m 9.781133,-0.271087 q 0,1.274844 -0.710689,2.000186 -0.703363,0.718016 -1.92692,0.718016 -1.245537,0 -1.9489,-0.725343 -0.703362,-0.725342 -0.703362,-1.992859 0,-1.289498 0.710689,-2.022167 0.710689,-0.739996 1.941573,-0.739996 1.245537,0 1.941573,0.732669 0.696036,0.732669 0.696036,2.029494 z m -2.637609,1.992859 q 0.798609,0 1.230884,-0.527521 0.439601,-0.527522 0.439601,-1.465338 0,-0.93049 -0.439601,-1.479992 -0.439601,-0.556828 -1.230884,-0.556828 -0.805936,0 -1.252864,0.564155 -0.439601,0.556828 -0.439601,1.472665 0,0.937816 0.446928,1.465338 0.446928,0.527521 1.245537,0.527521 z m 4.579183,-3.194437 v 3.824533 h -0.93049 v -5.297197 h 0.959796 l 2.600975,3.912452 v -3.912452 h 0.93049 v 5.297197 h -1.01841 z m 8.66747,3.179784 q -0.271088,0.380988 -0.681383,0.564155 -0.402968,0.175841 -0.923163,0.175841 -1.142963,0 -1.817019,-0.718016 -0.674055,-0.725342 -0.674055,-2.022166 0,-1.304151 0.710689,-2.022167 0.710689,-0.718016 1.919593,-0.718016 0.974449,0 1.582565,0.446929 0.615442,0.439601 0.739995,1.26019 h -0.930489 q -0.07327,-0.432274 -0.432275,-0.703362 -0.351681,-0.278414 -0.959796,-0.278414 -0.813263,0 -1.238211,0.527521 -0.424948,0.520195 -0.424948,1.487319 0,1.033063 0.446928,1.523951 0.446928,0.483562 1.216231,0.483562 0.674055,0 1.069696,-0.395642 0.395642,-0.395641 0.395642,-0.908509 v -0.109901 h -1.501972 v -0.725342 h 2.395828 v 2.776816 h -0.893856 z m 5.114025,-4.652448 h 1.077023 l -1.824346,2.557015 1.92692,2.740182 h -1.08435 l -1.384745,-2.044147 -1.384744,2.044147 H 72.40962 l 1.912266,-2.747509 -1.831672,-2.549688 h 1.091677 l 1.274844,1.904939 z m 2.718203,0 v 5.297197 H 77.92662 v -5.297197 z m 4.037,3.157803 -0.835243,-2.263947 -0.849896,2.263947 z m -1.956227,0.725343 -0.527521,1.414051 h -0.945143 l 2.132066,-5.297197 h 0.95247 l 2.117414,5.297197 h -0.967123 l -0.534849,-1.414051 z m 9.429447,-1.208904 q 0,1.274844 -0.710689,2.000186 -0.703362,0.718016 -1.92692,0.718016 -1.245537,0 -1.948899,-0.725343 -0.703363,-0.725342 -0.703363,-1.992859 0,-1.289498 0.710689,-2.022167 0.710689,-0.739996 1.941573,-0.739996 1.245538,0 1.941573,0.732669 0.696036,0.732669 0.696036,2.029494 z m -2.637609,1.992859 q 0.79861,0 1.230884,-0.527521 0.439602,-0.527522 0.439602,-1.465338 0,-0.93049 -0.439602,-1.479992 -0.439601,-0.556828 -1.230884,-0.556828 -0.805936,0 -1.252864,0.564155 -0.439601,0.556828 -0.439601,1.472665 0,0.937816 0.446928,1.465338 0.446928,0.527521 1.245537,0.527521 z m 8.689449,-4.667101 h 1.077024 l -1.824346,2.557015 1.92692,2.740182 h -1.084351 l -1.384744,-2.044147 -1.384744,2.044147 H 92.689884 L 94.60215,38.13891 92.770478,35.589222 h 1.091677 l 1.274844,1.904939 z m 2.718202,0 v 5.297197 h -0.930489 v -5.297197 z m 2.146709,1.472664 v 3.824533 h -0.93049 v -5.297197 h 0.9598 l 2.60098,3.912452 v -3.912452 h 0.93049 v 5.297197 h -1.01841 z m 6.53541,1.428705 q -0.96712,-0.175841 -1.43603,-0.542175 -0.46891,-0.366335 -0.46891,-1.025737 0,-0.615442 0.49822,-1.01841 0.50554,-0.402968 1.55325,-0.402968 0.9598,0 1.48732,0.410295 0.52752,0.410295 0.57881,1.186924 h -0.93049 q -0.007,-0.373661 -0.29307,-0.622769 -0.28574,-0.249107 -0.87187,-0.249107 -0.54951,0 -0.81327,0.183167 -0.26376,0.183167 -0.25643,0.512868 0,0.359008 0.35168,0.534849 0.35901,0.17584 1.16494,0.337027 1.01109,0.205148 1.43604,0.556829 0.43227,0.351681 0.43227,1.055043 0,0.674056 -0.57148,1.128311 -0.57148,0.446928 -1.62653,0.446928 -1.07702,0 -1.67781,-0.454255 -0.60079,-0.454255 -0.60079,-1.311478 h 0.93049 q 0,0.476235 0.35901,0.761976 0.35901,0.278414 0.99643,0.278414 0.58614,0 0.91584,-0.227127 0.3297,-0.227127 0.3297,-0.593462 0,-0.424948 -0.3297,-0.608115 -0.3297,-0.183167 -1.15762,-0.337028 z m 4.23483,0.04396 v 2.351868 h -0.93049 v -5.297197 h 0.93049 v 2.219987 h 2.54236 v -2.219987 h 0.93049 v 5.297197 h -0.93049 v -2.351868 z m 8.60886,2.351868 h -3.91978 v -5.297197 h 3.8978 v 0.725342 h -2.96731 v 1.494645 h 2.76948 v 0.725342 h -2.76948 v 1.626525 h 2.98929 z m 1.91227,-3.824533 v 3.824533 h -0.93049 v -5.297197 h 0.9598 l 2.60097,3.912452 v -3.912452 h 0.93049 v 5.297197 h -1.01841 z m 8.66747,3.179784 q -0.27109,0.380988 -0.68139,0.564155 -0.40296,0.175841 -0.92316,0.175841 -1.14296,0 -1.81702,-0.718016 -0.67405,-0.725342 -0.67405,-2.022166 0,-1.304151 0.71068,-2.022167 0.71069,-0.718016 1.9196,-0.718016 0.97445,0 1.58256,0.446929 0.61544,0.439601 0.74,1.26019 h -0.93049 q -0.0733,-0.432274 -0.43228,-0.703362 -0.35168,-0.278414 -0.95979,-0.278414 -0.81327,0 -1.23821,0.527521 -0.42495,0.520195 -0.42495,1.487319 0,1.033063 0.44693,1.523951 0.44692,0.483562 1.21623,0.483562 0.67405,0 1.06969,-0.395642 0.39565,-0.395641 0.39565,-0.908509 v -0.109901 h -1.50198 v -0.725342 h 2.39583 v 2.776816 h -0.89385 z"
           id="text5"
           aria-label="ZHONGXIAO XINSHENG" />
        <path
           style="font-size:3.52072px;line-height:1.25;font-family:'AR UDJingXiHeiE1G30 EB';-inkscape-font-specification:'AR UDJingXiHeiE1G30 EB';stroke-width:0.12574"
           d="m 126.90933,26.731719 v 1.837816 h -0.44713 v -2.545481 h 0.46122 l 1.24985,1.880064 v -1.880064 h 0.44713 v 2.545481 h -0.48938 z m 3.65099,0.809765 -0.40136,-1.087902 -0.40841,1.087902 z m -0.94003,0.348552 -0.2535,0.679499 h -0.45417 l 1.02453,-2.545481 h 0.45769 l 1.01749,2.545481 h -0.46473 l -0.25701,-0.679499 z m 2.62645,-1.517431 h -0.79216 v -0.348551 h 2.02793 v 0.348551 h -0.78864 v 2.19693 h -0.44713 z m 2.02089,-0.348551 v 2.545481 h -0.44713 v -2.545481 z m 3.03134,1.285063 q 0,0.612605 -0.34151,0.961156 -0.33799,0.345031 -0.92595,0.345031 -0.59852,0 -0.93651,-0.348551 -0.33799,-0.348552 -0.33799,-0.957636 0,-0.619647 0.34151,-0.971719 0.34151,-0.355593 0.93299,-0.355593 0.59852,0 0.93299,0.352072 0.33447,0.352072 0.33447,0.97524 z m -1.26746,0.957636 q 0.38376,0 0.59148,-0.253492 0.21124,-0.253492 0.21124,-0.704144 0,-0.447132 -0.21124,-0.711186 -0.21124,-0.267574 -0.59148,-0.267574 -0.38728,0 -0.60204,0.271095 -0.21125,0.267575 -0.21125,0.707665 0,0.450652 0.21477,0.704144 0.21476,0.253492 0.59852,0.253492 z m 2.20045,-1.535034 v 1.837816 h -0.44713 v -2.545481 h 0.46121 l 1.24986,1.880064 v -1.880064 h 0.44713 v 2.545481 h -0.48938 z m 3.65099,0.809765 -0.40137,-1.087902 -0.4084,1.087902 z m -0.94004,0.348552 -0.25349,0.679499 h -0.45417 l 1.02453,-2.545481 h 0.45769 l 1.01749,2.545481 h -0.46474 l -0.25701,-0.679499 z m 3.87279,0.679499 h -1.78852 v -2.545481 h 0.44713 v 2.196929 h 1.34139 z m 1.8343,-2.19693 h -0.79217 v -0.348551 h 2.02794 v 0.348551 h -0.78864 v 2.19693 H 146.65 Z m 2.92924,1.168879 -0.40137,-1.087902 -0.4084,1.087902 z m -0.94004,0.348552 -0.25349,0.679499 h -0.45417 l 1.02453,-2.545481 h 0.45769 l 1.01749,2.545481 h -0.46473 l -0.25702,-0.679499 z m 2.5314,-1.865982 v 2.545481 h -0.44713 v -2.545481 z m 1.03157,1.535034 v 1.010447 h -0.44714 v -2.545481 h 1.19705 q 0.3732,0 0.58444,0.204202 0.21124,0.204202 0.21124,0.542191 0,0.380237 -0.21828,0.584439 -0.21477,0.204202 -0.58092,0.204202 z m 1.09142,-0.7816 q 0,-0.19716 -0.11266,-0.299261 -0.11267,-0.105622 -0.33095,-0.105622 h -0.64781 v 0.837932 h 0.64781 q 0.21828,0 0.33095,-0.105622 0.11266,-0.109142 0.11266,-0.327427 z m 2.76728,1.792047 h -1.88358 v -2.545481 h 1.87302 v 0.348551 h -1.42589 v 0.718227 h 1.33083 v 0.348551 h -1.33083 v 0.7816 h 1.43645 z m 0.91891,-2.545481 v 2.545481 h -0.44713 v -2.545481 z m 3.64042,1.654738 q 0,0.443611 -0.27813,0.690062 -0.27814,0.24645 -0.79217,0.24645 -0.52106,0 -0.80272,-0.24293 -0.27814,-0.242929 -0.27814,-0.690061 v -1.658259 h 0.44714 v 1.637135 q 0,0.288699 0.15843,0.447131 0.15843,0.158433 0.47529,0.158433 0.29927,0 0.4577,-0.151391 0.16195,-0.154912 0.16195,-0.461215 v -1.630093 h 0.45065 z m 1.01397,-0.947073 v 1.837816 h -0.44713 v -2.545481 h 0.46122 l 1.24985,1.880064 v -1.880064 h 0.44713 v 2.545481 h -0.48938 z m 2.74264,-0.707665 v 2.545481 h -0.44713 v -2.545481 z m 2.61237,0 -0.90483,2.545481 h -0.51754 l -0.89778,-2.545481 h 0.47881 l 0.6795,2.094828 0.69006,-2.094828 z m 2.17581,2.545481 h -1.88359 v -2.545481 h 1.87302 v 0.348551 h -1.42589 v 0.718227 h 1.33083 v 0.348551 h -1.33083 v 0.7816 h 1.43646 z m 2.06666,-1.816692 q 0,-0.186598 -0.0986,-0.281658 -0.0986,-0.09858 -0.28518,-0.09858 h -0.76399 v 0.792162 h 0.73935 q 0.18308,0 0.29574,-0.109142 0.11266,-0.109142 0.11266,-0.302782 z m -1.14775,0.756955 v 1.059737 h -0.44713 v -2.545481 h 1.29562 q 0.34855,0 0.55276,0.186598 0.20772,0.183078 0.20772,0.521067 0,0.221805 -0.10562,0.380237 -0.1021,0.158433 -0.25702,0.225327 0.19716,0.112663 0.30279,0.390799 0.10562,0.278137 0.13378,0.841453 h -0.46473 q -0.0211,-0.591481 -0.13027,-0.823849 -0.10562,-0.235888 -0.34151,-0.235888 z m 2.97149,-0.09154 q -0.46473,-0.0845 -0.69006,-0.260533 Q 172.14,26.98169 172.14,26.664825 q 0,-0.29574 0.23941,-0.48938 0.24293,-0.19364 0.74639,-0.19364 0.46122,0 0.71471,0.197161 0.25349,0.19716 0.27814,0.570356 h -0.44713 q -0.004,-0.179556 -0.14083,-0.299261 -0.13731,-0.119704 -0.41897,-0.119704 -0.26405,0 -0.3908,0.08802 -0.12674,0.08802 -0.12322,0.24645 0,0.172515 0.16899,0.257013 0.17252,0.0845 0.5598,0.161953 0.48585,0.09858 0.69006,0.267574 0.20772,0.168995 0.20772,0.506984 0,0.323906 -0.27462,0.542191 -0.27461,0.214764 -0.7816,0.214764 -0.51754,0 -0.80624,-0.218285 -0.2887,-0.218284 -0.2887,-0.630209 h 0.44713 q 0,0.228847 0.17252,0.366155 0.17251,0.133788 0.47881,0.133788 0.28166,0 0.44009,-0.109143 0.15844,-0.109142 0.15844,-0.285178 0,-0.204202 -0.15844,-0.29222 -0.15843,-0.08802 -0.55627,-0.161953 z m 2.03497,-1.394205 v 2.545481 h -0.44713 v -2.545481 z m 1.12663,0.348551 h -0.79216 v -0.348551 h 2.02794 v 0.348551 h -0.78864 v 2.19693 h -0.44714 z m 2.51732,0.778079 0.72527,-1.12663 h 0.49994 l -1.00341,1.496306 v 1.049175 h -0.44713 V 27.52036 l -1.02101,-1.496306 h 0.51051 z m 4.87971,0.158433 q 0,0.612605 -0.34151,0.961156 -0.33798,0.345031 -0.92594,0.345031 -0.59853,0 -0.93652,-0.348551 -0.33799,-0.348552 -0.33799,-0.957636 0,-0.619647 0.34151,-0.971719 0.34151,-0.355593 0.933,-0.355593 0.59852,0 0.93299,0.352072 0.33446,0.352072 0.33446,0.97524 z m -1.26745,0.957636 q 0.38375,0 0.59148,-0.253492 0.21124,-0.253492 0.21124,-0.704144 0,-0.447132 -0.21124,-0.711186 -0.21125,-0.267574 -0.59148,-0.267574 -0.38728,0 -0.60205,0.271095 -0.21124,0.267575 -0.21124,0.707665 0,0.450652 0.21476,0.704144 0.21477,0.253492 0.59853,0.253492 z m 2.20044,-0.82737 v 1.130152 h -0.44713 v -2.545481 h 1.78501 v 0.348551 h -1.33788 v 0.718227 h 1.17592 v 0.348551 z m 3.17569,-1.066778 h -0.79216 v -0.348551 h 2.02794 v 0.348551 h -0.78864 v 2.19693 h -0.44714 z m 3.45735,2.19693 h -1.88358 v -2.545481 h 1.87302 v 0.348551 h -1.42589 v 0.718227 h 1.33083 v 0.348551 h -1.33083 v 0.7816 h 1.43645 z m 2.28143,-0.887222 h 0.44713 q -0.0176,0.418966 -0.29222,0.675978 -0.27461,0.257013 -0.79568,0.257013 -0.61613,0 -0.94355,-0.348551 -0.32391,-0.348552 -0.32391,-0.968198 0,-0.612606 0.32391,-0.964678 0.32742,-0.352072 0.93651,-0.352072 0.48938,0 0.76047,0.225326 0.2711,0.221806 0.30983,0.577399 h -0.44713 q -0.0282,-0.204202 -0.1866,-0.327427 -0.15843,-0.126746 -0.44713,-0.126746 -0.3556,0 -0.57036,0.239409 -0.21476,0.239409 -0.21476,0.728789 0,0.496421 0.21476,0.732309 0.21828,0.235889 0.5774,0.235889 0.3063,0 0.47177,-0.158433 0.16548,-0.161953 0.17956,-0.426007 z m 1.33083,-0.24293 v 1.130152 h -0.44713 v -2.545481 h 0.44713 v 1.066778 h 1.22169 v -1.066778 h 0.44713 v 2.545481 H 196.014 v -1.130152 z m 2.70039,-0.707664 v 1.837816 h -0.44713 v -2.545481 h 0.46121 l 1.24986,1.880064 v -1.880064 h 0.44713 v 2.545481 h -0.48938 z m 4.74241,0.577398 q 0,0.612605 -0.34151,0.961156 -0.33799,0.345031 -0.92595,0.345031 -0.59852,0 -0.93651,-0.348551 -0.33799,-0.348552 -0.33799,-0.957636 0,-0.619647 0.34151,-0.971719 0.34151,-0.355593 0.93299,-0.355593 0.59852,0 0.93299,0.352072 0.33447,0.352072 0.33447,0.97524 z m -1.26746,0.957636 q 0.38376,0 0.59148,-0.253492 0.21124,-0.253492 0.21124,-0.704144 0,-0.447132 -0.21124,-0.711186 -0.21124,-0.267574 -0.59148,-0.267574 -0.38728,0 -0.60205,0.271095 -0.21124,0.267575 -0.21124,0.707665 0,0.450652 0.21477,0.704144 0.21476,0.253492 0.59852,0.253492 z m 3.54184,0.302782 h -1.78852 v -2.545481 h 0.44713 v 2.196929 h 1.34139 z m 2.81658,-1.260418 q 0,0.612605 -0.34151,0.961156 -0.33799,0.345031 -0.92595,0.345031 -0.59852,0 -0.93651,-0.348551 -0.33799,-0.348552 -0.33799,-0.957636 0,-0.619647 0.34151,-0.971719 0.34151,-0.355593 0.93299,-0.355593 0.59853,0 0.93299,0.352072 0.33447,0.352072 0.33447,0.97524 z m -1.26746,0.957636 q 0.38376,0 0.59148,-0.253492 0.21125,-0.253492 0.21125,-0.704144 0,-0.447132 -0.21125,-0.711186 -0.21124,-0.267574 -0.59148,-0.267574 -0.38728,0 -0.60204,0.271095 -0.21124,0.267575 -0.21124,0.707665 0,0.450652 0.21476,0.704144 0.21476,0.253492 0.59852,0.253492 z m 3.62283,-0.007 q -0.13027,0.183078 -0.32743,0.271096 -0.19364,0.0845 -0.44361,0.0845 -0.54923,0 -0.87314,-0.345031 -0.32391,-0.348551 -0.32391,-0.971718 0,-0.626689 0.34151,-0.971719 0.34151,-0.345031 0.92243,-0.345031 0.46826,0 0.76048,0.214764 0.29574,0.211243 0.35559,0.605564 h -0.44713 q -0.0352,-0.207722 -0.20772,-0.337989 -0.169,-0.133787 -0.46122,-0.133787 -0.3908,0 -0.595,0.253491 -0.2042,0.249972 -0.2042,0.714707 0,0.496421 0.21476,0.732309 0.21477,0.232368 0.58444,0.232368 0.32391,0 0.51403,-0.190119 0.19012,-0.190119 0.19012,-0.436569 v -0.05281 h -0.72175 v -0.348551 h 1.15127 v 1.334353 h -0.42952 z m 1.90119,-1.109027 0.72527,-1.12663 h 0.49994 l -1.00341,1.496306 v 1.049175 H 211.3573 V 27.52036 l -1.02101,-1.496306 h 0.51051 z"
           id="text5-8"
           aria-label="NATIONAL TAIPEI UNIVERSITY OF TECHNOLOGY&#10;" />
        <path
           d="m 46.197123,47.806064 h 0.681383 v 1.443358 q 0,0.161187 0.07327,0.205148 0.08059,0.04396 0.359008,0.04396 0.05861,0 0.212474,0 0.161188,0 0.351681,0 0.190494,0 0.351682,0 0.168513,0 0.256434,0 0.161187,0 0.234454,-0.05861 0.08059,-0.05861 0.117227,-0.241781 0.03663,-0.183167 0.05129,-0.556828 0.07327,0.05861 0.183167,0.1099 0.1099,0.05129 0.227127,0.08792 0.117227,0.03663 0.205148,0.06594 -0.03663,0.483561 -0.139207,0.747322 -0.09525,0.263761 -0.285741,0.366335 -0.190494,0.102573 -0.534849,0.102573 -0.05861,0 -0.190494,0 -0.124553,0 -0.293067,0 -0.168514,0 -0.344355,0 -0.168514,0 -0.300394,0 -0.124554,0 -0.175841,0 -0.410294,0 -0.644748,-0.08059 -0.227128,-0.07327 -0.315048,-0.271088 -0.08059,-0.190494 -0.08059,-0.520195 z m 0.498215,-0.285741 0.483562,-0.395641 q 0.249107,0.139207 0.505542,0.322374 0.26376,0.175841 0.483561,0.366335 0.219801,0.183167 0.344354,0.359008 L 47.992162,48.612 q -0.124553,-0.17584 -0.337027,-0.373661 -0.205148,-0.197821 -0.461582,-0.380988 -0.249107,-0.190494 -0.498215,-0.337028 z m 2.483748,0.520195 0.586136,-0.293067 q 0.278414,0.256434 0.542175,0.571482 0.26376,0.307721 0.468908,0.630095 0.212474,0.315048 0.322374,0.586135 l -0.644749,0.322375 q -0.09525,-0.263761 -0.293067,-0.578809 -0.190494,-0.322374 -0.446928,-0.644749 -0.256434,-0.322374 -0.534849,-0.593462 z m -3.971066,-0.205147 0.622769,0.190494 q -0.131881,0.534848 -0.359008,1.04039 -0.219801,0.498215 -0.637422,0.827916 L 44.25555,49.513183 q 0.380988,-0.285741 0.615442,-0.732669 0.234455,-0.454255 0.337028,-0.945143 z m -0.271087,-3.575425 h 5.458384 v 2.732856 h -0.696036 v -2.10276 h -4.09562 v 2.161373 h -0.666728 z m 0.410294,1.853653 h 4.667102 v 0.622769 H 45.347227 Z M 47.2888,43.41005 h 0.696036 v 4.0077 H 47.2888 Z m 4.403341,2.029493 h 6.616001 v 0.608116 h -6.616001 z m 0.681382,2.586322 h 5.890659 v 0.600789 h -5.890659 z m 0.849896,-1.414051 h 3.597405 v 0.556828 h -3.597405 z m -0.893856,-2.439788 h 4.220174 v 0.600789 h -4.220174 z m 1.897613,-0.761976 h 0.688709 v 2.344541 h -0.688709 z m 3.07721,0.271088 0.578808,0.329701 q -0.732669,0.886529 -1.685138,1.641178 -0.95247,0.747323 -2.029494,1.340785 -1.077023,0.593462 -2.19068,1.025736 -0.04396,-0.08059 -0.124554,-0.183167 -0.08059,-0.1099 -0.168514,-0.212474 -0.08059,-0.1099 -0.146533,-0.168514 1.12831,-0.388314 2.198007,-0.945143 1.069696,-0.564155 1.985533,-1.282171 0.915836,-0.718015 1.582565,-1.545931 z m -2.388501,3.949086 h 0.688709 v 1.853652 q 0,0.263761 -0.08059,0.402968 -0.07327,0.146534 -0.278414,0.227128 -0.212474,0.06594 -0.527522,0.08059 -0.307721,0.02198 -0.761976,0.02198 -0.02931,-0.146533 -0.1099,-0.322374 -0.07327,-0.175841 -0.146534,-0.307721 0.227128,0.0073 0.439602,0.0073 0.2198,0.0073 0.380987,0 0.168514,0 0.234455,0 0.09525,0 0.124553,-0.02198 0.03663,-0.02931 0.03663,-0.102574 z m 1.707119,-1.01841 h 0.17584 l 0.146534,-0.02931 0.432275,0.373661 q -0.278415,0.212474 -0.615442,0.432275 -0.329701,0.212474 -0.681383,0.402968 -0.351681,0.190494 -0.703362,0.337028 -0.06594,-0.08792 -0.168514,-0.197821 -0.102573,-0.117227 -0.17584,-0.183167 0.285741,-0.117227 0.593462,-0.293068 0.307721,-0.17584 0.564155,-0.359008 0.263761,-0.190494 0.432275,-0.351681 z m 6.366893,-0.754649 h 2.732856 v 0.644748 h -2.732856 z m -3.905126,-1.699792 h 3.260378 v 0.571481 h -3.260378 z m -0.08059,2.908696 h 3.355624 v 0.593461 h -3.355624 z m -0.02198,-1.252864 h 3.443544 v 0.578808 h -3.443544 z m 5.28987,0.322374 h 0.674056 v 4.037006 H 64.272068 Z M 60.381596,43.45401 h 0.674055 v 0.97445 h -0.674055 z m 0,2.872063 h 0.674055 v 3.875819 h -0.674055 z m 2.285927,-2.329888 0.827916,0.241781 q -0.01465,0.08792 -0.168514,0.117227 v 2.212661 q 0,0.417621 -0.04396,0.893856 -0.03663,0.468908 -0.153861,0.967123 -0.117227,0.490888 -0.351681,0.959796 -0.227127,0.461582 -0.600788,0.849896 -0.04396,-0.08059 -0.131881,-0.17584 -0.08792,-0.09525 -0.190494,-0.183167 -0.09525,-0.08059 -0.17584,-0.117227 0.337028,-0.344355 0.534848,-0.739996 0.197821,-0.395641 0.293068,-0.820589 0.102573,-0.424948 0.13188,-0.835243 0.02931,-0.417621 0.02931,-0.805936 z m 2.425134,-0.505541 0.556829,0.505541 q -0.351681,0.161188 -0.798609,0.300395 -0.439602,0.13188 -0.901183,0.24178 -0.461582,0.102574 -0.893856,0.183168 -0.02198,-0.109901 -0.08792,-0.263761 -0.06594,-0.161187 -0.13188,-0.263761 0.410294,-0.08792 0.827916,-0.197821 0.424948,-0.117227 0.798609,-0.24178 0.373661,-0.131881 0.630095,-0.263761 z m -4.088293,4.264133 q 0.08059,0.05129 0.241781,0.183168 0.168514,0.124553 0.351681,0.271087 0.190494,0.146534 0.344355,0.278414 0.161187,0.124554 0.227127,0.183168 L 61.76634,49.176155 Q 61.67842,49.073582 61.531886,48.919721 61.385352,48.765861 61.209512,48.604674 61.040998,48.43616 60.879811,48.296953 60.72595,48.150419 60.623376,48.062498 Z m -1.516625,-2.901369 0.542175,-0.124554 q 0.109901,0.227128 0.190494,0.498215 0.08059,0.271088 0.102574,0.461582 L 59.7515,45.849838 q -0.01465,-0.205147 -0.08792,-0.483562 -0.07327,-0.278414 -0.175841,-0.512868 z m 1.86098,-0.139207 0.615442,0.13188 q -0.102574,0.263761 -0.205148,0.527522 -0.102573,0.256434 -0.190494,0.446928 l -0.556828,-0.124553 q 0.05861,-0.139208 0.117227,-0.307721 0.06594,-0.175841 0.124554,-0.351682 0.05861,-0.17584 0.09525,-0.322374 z m -0.959797,2.681569 0.490889,0.183167 q -0.175841,0.402968 -0.439602,0.805936 -0.263761,0.402968 -0.564155,0.747322 -0.300394,0.344355 -0.593462,0.578809 -0.07327,-0.117227 -0.212474,-0.263761 -0.13188,-0.146534 -0.241781,-0.234454 0.293068,-0.190494 0.586136,-0.483562 0.300394,-0.293067 0.549501,-0.637422 0.256434,-0.351681 0.424948,-0.696035 z m 7.121543,-2.600975 h 5.084723 v 0.674055 h -5.084723 z m -0.315048,2.14672 H 72.3241 v 0.666729 h -5.128683 z m -0.820589,2.366521 h 6.579368 v 0.674055 h -6.579368 z m 2.930676,-5.897986 h 0.718015 v 6.235014 h -0.718015 z m -1.670486,0.102574 0.718016,0.161187 q -0.161187,0.564155 -0.388315,1.113657 -0.2198,0.542175 -0.483561,1.011083 -0.263761,0.461582 -0.549502,0.813263 -0.07327,-0.05861 -0.190494,-0.131881 -0.1099,-0.08059 -0.227127,-0.15386 -0.117227,-0.08059 -0.212474,-0.124554 0.300394,-0.322374 0.549502,-0.747322 0.249107,-0.432275 0.446928,-0.93049 0.205147,-0.498215 0.337027,-1.011083 z"
           id="text5-9"
           style="font-weight:500;font-size:7.32669px;line-height:1.25;font-family:'Noto Sans JP';-inkscape-font-specification:'Noto Sans JP Medium';stroke-width:0.261667"
           aria-label="忠孝新生" />
        <path
           d="m 126.80717,32.422285 h 1.80762 v 0.29532 h -1.80762 z m -0.13955,-0.973581 h 2.11267 v 1.401957 h -0.32777 v -1.109882 h -1.47335 v 1.116373 h -0.31155 z m 0.64257,-1.622635 0.34724,0.11683 q -0.1006,0.194716 -0.22392,0.399168 -0.12008,0.204452 -0.24015,0.389433 -0.12008,0.18498 -0.23042,0.327772 l -0.2726,-0.113584 q 0.10709,-0.146038 0.22068,-0.337508 0.11683,-0.194717 0.22068,-0.399169 0.10709,-0.204452 0.17849,-0.382942 z m 0.78211,0.548451 0.24015,-0.17849 q 0.16551,0.133056 0.33426,0.29532 0.172,0.159018 0.31804,0.321282 0.14603,0.162263 0.23041,0.30181 l -0.26611,0.204452 q -0.0779,-0.136302 -0.21744,-0.30181 -0.13954,-0.168755 -0.3083,-0.334263 -0.1655,-0.168754 -0.33101,-0.308301 z m -1.79464,0.431621 q 0.24015,-0.0065 0.53872,-0.01623 0.29856,-0.0097 0.63282,-0.02272 0.33751,-0.01298 0.68476,-0.02596 0.35049,-0.01623 0.69124,-0.03245 l -0.013,0.295319 q -0.34076,0.01947 -0.688,0.0357 -0.344,0.01623 -0.67502,0.03245 -0.32777,0.01298 -0.62309,0.02596 -0.29207,0.0097 -0.52573,0.01947 z m 3.24527,-0.162264 h 0.95736 v 0.308301 h -0.95736 z m 1.60641,-0.739921 h 0.32128 v 2.378783 q 0,0.129811 0.026,0.168754 0.0292,0.0357 0.12657,0.0357 0.0227,0 0.0779,0 0.0584,0 0.12656,0 0.0682,0 0.12657,0 0.0584,0 0.0844,0 0.0714,0 0.10709,-0.05517 0.0357,-0.05841 0.0519,-0.204452 0.0162,-0.146037 0.026,-0.408904 0.0389,0.02921 0.0909,0.05842 0.0519,0.02921 0.1071,0.05192 0.0552,0.01947 0.0974,0.02921 -0.0162,0.30181 -0.0584,0.48679 -0.0389,0.181735 -0.12981,0.262867 -0.0909,0.08113 -0.26287,0.08113 -0.026,0 -0.0941,0 -0.0682,0 -0.14928,0 -0.0811,0 -0.14929,0 -0.0649,0 -0.0909,0 -0.16876,0 -0.26287,-0.04543 -0.0941,-0.04543 -0.13306,-0.159018 -0.0389,-0.110339 -0.0389,-0.308301 z m -0.80158,-0.0032 h 0.31804 v 2.927233 h -0.31804 z m 1.86603,0.493281 0.22392,0.272602 q -0.15577,0.11683 -0.34075,0.230415 -0.18498,0.113584 -0.3797,0.223923 -0.19147,0.110339 -0.37645,0.207697 -0.0162,-0.05192 -0.0552,-0.12332 -0.0357,-0.0714 -0.0682,-0.11683 0.17849,-0.09736 0.36023,-0.214187 0.18173,-0.120075 0.34724,-0.243396 0.16551,-0.126565 0.28883,-0.236904 z m -2.77795,1.74271 q 0.13305,-0.04219 0.30505,-0.103849 0.172,-0.06166 0.36347,-0.133056 0.19472,-0.0714 0.38944,-0.146037 l 0.0584,0.279093 q -0.24988,0.110339 -0.50951,0.220678 -0.25637,0.107094 -0.46731,0.194717 z m 3.80345,-2.008822 h 0.29857 v 2.726026 h -0.29857 z m -0.52248,0.629582 h 1.27863 v 0.288829 h -1.27863 z m 0.53871,0.113584 0.18498,0.08113 q -0.0487,0.171999 -0.11683,0.360225 -0.0682,0.18498 -0.14928,0.366716 -0.0779,0.181735 -0.16875,0.340753 -0.0909,0.159018 -0.18498,0.272603 -0.0227,-0.06491 -0.0682,-0.146038 -0.0454,-0.08438 -0.0811,-0.139546 0.0876,-0.09736 0.172,-0.230414 0.0844,-0.136302 0.16227,-0.288829 0.0811,-0.155773 0.14279,-0.314792 0.0649,-0.159018 0.10709,-0.30181 z m 0.52898,-0.989807 0.17849,0.249886 q -0.15577,0.05842 -0.35049,0.110339 -0.19147,0.04868 -0.39592,0.08438 -0.20121,0.03245 -0.38943,0.05842 -0.006,-0.04868 -0.0325,-0.11683 -0.026,-0.0714 -0.0519,-0.120075 0.18498,-0.02921 0.37645,-0.06815 0.19147,-0.04219 0.36347,-0.09087 0.17524,-0.05192 0.30181,-0.107094 z m -0.25638,1.197505 q 0.0292,0.02921 0.0941,0.103848 0.0649,0.07464 0.1363,0.162264 0.0746,0.08438 0.13305,0.162263 0.0617,0.07464 0.0876,0.107094 l -0.18498,0.24015 q -0.0292,-0.06166 -0.0811,-0.149282 -0.0519,-0.09087 -0.11358,-0.188226 -0.0617,-0.09736 -0.11683,-0.181735 -0.0552,-0.08438 -0.0941,-0.133056 z m 1.50256,-1.236448 h 0.30181 v 3.01161 h -0.30181 z m -1.08067,2.10618 1.73946,-0.288829 0.0454,0.285584 -1.73622,0.295319 z m 0.24015,-1.716748 0.19796,-0.175244 q 0.0941,0.06166 0.19472,0.142791 0.1006,0.08113 0.18822,0.162264 0.0876,0.08113 0.13955,0.152528 l -0.21419,0.194716 q -0.0487,-0.06815 -0.13305,-0.152528 -0.0811,-0.08762 -0.18174,-0.171999 -0.0974,-0.08438 -0.19147,-0.152528 z m -0.12332,0.850261 0.19472,-0.17849 q 0.1006,0.0649 0.20769,0.149283 0.11034,0.08113 0.20445,0.165508 0.0941,0.08113 0.14929,0.152528 l -0.2077,0.201207 q -0.0519,-0.07464 -0.14604,-0.162264 -0.0909,-0.08762 -0.19796,-0.171999 -0.10385,-0.08762 -0.20445,-0.155773 z m 3.00512,-0.746412 h 1.80112 v 0.285584 h -1.80112 z m 0.0617,0.730186 h 1.41494 v 0.279093 h -1.41494 z m 0.67502,-1.220222 h 0.30505 v 1.372749 h -0.30505 z m -0.31155,1.434409 q 0.18173,0.483546 0.55819,0.83079 0.37969,0.343998 0.93788,0.48679 -0.0324,0.02921 -0.0714,0.07464 -0.0389,0.04868 -0.0714,0.09736 -0.0325,0.05193 -0.0552,0.09087 -0.58415,-0.171999 -0.97034,-0.554941 -0.38619,-0.382942 -0.60362,-0.944374 z m 1.02226,-0.214187 h 0.0552 l 0.0552,-0.01298 0.19796,0.08438 q -0.10385,0.353734 -0.27909,0.632827 -0.172,0.275848 -0.40566,0.486791 -0.23042,0.210942 -0.50951,0.356979 -0.27585,0.149283 -0.58415,0.24015 -0.013,-0.04219 -0.0422,-0.09411 -0.026,-0.04868 -0.0584,-0.100604 -0.0325,-0.05192 -0.0617,-0.08113 0.28234,-0.0714 0.54196,-0.197961 0.26287,-0.129811 0.47705,-0.311546 0.21744,-0.18498 0.37321,-0.421885 0.15902,-0.24015 0.24015,-0.532224 z m -2.57674,0.467318 q 0.1363,-0.03245 0.31154,-0.07464 0.17849,-0.04543 0.37321,-0.09736 0.19796,-0.05517 0.38943,-0.103848 l 0.0389,0.279093 q -0.26611,0.07789 -0.53871,0.155773 -0.26936,0.07464 -0.49328,0.136301 z m 0.0389,-1.048222 h 1.04498 v 0.285584 h -1.04498 z m 0.40241,-0.639318 h 0.30181 v 2.657876 q 0,0.120075 -0.0292,0.184981 -0.0292,0.06491 -0.1006,0.100603 -0.0714,0.0357 -0.18498,0.04543 -0.11358,0.01298 -0.28234,0.0097 -0.01,-0.05842 -0.0357,-0.139547 -0.026,-0.07789 -0.0552,-0.139547 0.1071,0.0032 0.19797,0.0032 0.0941,0 0.12656,-0.0032 0.0617,0 0.0617,-0.06166 z m 2.89154,0.90543 h 2.86882 v 0.318037 h -2.86882 z m 1.61614,0.126566 q 0.10385,0.382942 0.27909,0.713959 0.17849,0.331018 0.43487,0.580904 0.25962,0.24664 0.60038,0.389432 -0.0389,0.03245 -0.0844,0.08438 -0.0422,0.05192 -0.0811,0.103849 -0.0389,0.05517 -0.0649,0.09736 -0.36022,-0.168754 -0.62958,-0.444602 -0.26611,-0.279093 -0.45109,-0.645809 -0.18498,-0.366715 -0.31155,-0.804827 z m -0.35698,-1.031996 h 0.33426 q 0,0.230414 -0.013,0.496526 -0.01,0.262867 -0.0487,0.54196 -0.0389,0.279094 -0.12656,0.558187 -0.0876,0.279093 -0.2434,0.538715 -0.15577,0.259621 -0.39916,0.483545 -0.2434,0.220678 -0.59389,0.386187 -0.0389,-0.06166 -0.10385,-0.136301 -0.0649,-0.0714 -0.12981,-0.120075 0.33751,-0.152528 0.56792,-0.353735 0.23366,-0.204452 0.37646,-0.441356 0.14603,-0.24015 0.22392,-0.496527 0.0779,-0.256376 0.11034,-0.512752 0.0325,-0.256377 0.0389,-0.496527 0.006,-0.24015 0.006,-0.447847 z m 2.5378,1.100147 h 1.56098 v 0.269357 h -1.56098 z m -0.55818,0.736676 h 2.88504 v 0.282338 h -2.88504 z m 1.27863,-0.227169 h 0.31479 v 1.057958 q 0,0.126566 -0.0389,0.194716 -0.0357,0.06815 -0.13954,0.103849 -0.10061,0.03245 -0.24989,0.03894 -0.14928,0.0097 -0.36672,0.0097 -0.013,-0.0649 -0.0519,-0.152528 -0.0357,-0.08438 -0.0746,-0.146037 0.11358,0.0032 0.22068,0.0065 0.11034,0.0032 0.19147,0.0032 0.0811,-0.0032 0.11358,-0.0032 0.0487,-0.0032 0.0649,-0.01623 0.0162,-0.01298 0.0162,-0.04868 z m 0.74317,-0.509507 h 0.0746 l 0.0682,-0.01623 0.19472,0.149283 q -0.11034,0.116829 -0.25313,0.230414 -0.14279,0.113584 -0.30181,0.210942 -0.15578,0.09736 -0.31155,0.172 -0.0292,-0.04219 -0.0811,-0.09411 -0.0487,-0.05517 -0.0876,-0.08762 0.13305,-0.06166 0.26611,-0.149283 0.1363,-0.08762 0.24989,-0.17849 0.11358,-0.09411 0.18173,-0.17849 z M 142.5662,30.37452 h 2.78444 v 0.756148 h -0.30181 v -0.483545 h -2.19055 v 0.483545 h -0.29208 z m 2.28792,-0.509507 0.32777,0.103848 q -0.10709,0.155773 -0.22717,0.308301 -0.12007,0.152528 -0.22068,0.259622 l -0.24664,-0.09736 q 0.0649,-0.07789 0.13306,-0.178489 0.0682,-0.100604 0.12981,-0.204452 0.0649,-0.103849 0.10385,-0.191471 z m -2.06724,0.133056 0.25962,-0.11683 q 0.0909,0.09736 0.17849,0.220678 0.0876,0.123321 0.12657,0.217433 l -0.27261,0.133057 q -0.0389,-0.09411 -0.12332,-0.220679 -0.0844,-0.126565 -0.16875,-0.233659 z m 0.82754,-0.06815 0.26936,-0.100603 q 0.0779,0.110339 0.15253,0.249885 0.0779,0.136302 0.10709,0.236905 l -0.28558,0.113585 q -0.026,-0.103849 -0.0974,-0.243396 -0.0682,-0.142791 -0.14604,-0.256376 z"
           id="text5-9-1"
           style="font-weight:500;font-size:3.24527px;line-height:1.25;font-family:'Noto Sans JP';-inkscape-font-specification:'Noto Sans JP Medium';stroke-width:0.115903"
           aria-label="台北科技大学" />
        <path
           style="font-weight:500;font-size:3.24527px;line-height:1.25;font-family:'Noto Sans kr';-inkscape-font-specification:'Noto Sans kr Medium';stroke-width:0.115903"
           d="m 149.23157,31.962399 h 0.23691 q 0.26286,0 0.48679,-0.0065 0.22392,-0.0065 0.43162,-0.02272 0.21094,-0.01947 0.43162,-0.05517 l 0.0324,0.272602 q -0.22392,0.0357 -0.44136,0.05841 -0.21418,0.01947 -0.4446,0.02596 -0.22717,0.0032 -0.49652,0.0032 h -0.23691 z m 0,-1.73622 h 1.38573 v 0.279093 h -1.04822 v 1.551239 h -0.33751 z m 0.25638,0.830789 h 1.07418 v 0.269358 h -1.07418 z m 1.5772,-1.087165 h 0.34075 v 2.966177 h -0.34075 z m 0.26611,1.161806 h 0.53547 v 0.282339 h -0.53547 z m 2.86233,-1.165051 h 0.34075 v 2.972667 h -0.34075 z m -1.23645,0.217433 q 0.22068,0 0.39268,0.12981 0.17524,0.129811 0.2726,0.363471 0.0974,0.233659 0.0974,0.551696 0,0.321281 -0.0974,0.558186 -0.0974,0.233659 -0.2726,0.36347 -0.172,0.126566 -0.39268,0.126566 -0.22068,0 -0.39592,-0.126566 -0.172,-0.129811 -0.2726,-0.36347 -0.0974,-0.236905 -0.0974,-0.558186 0,-0.318037 0.0974,-0.551696 0.1006,-0.23366 0.2726,-0.363471 0.17524,-0.12981 0.39592,-0.12981 z m 0,0.3083 q -0.12981,0 -0.23041,0.08762 -0.0974,0.08762 -0.15253,0.253131 -0.0552,0.165508 -0.0552,0.395923 0,0.233659 0.0552,0.399168 0.0552,0.165509 0.15253,0.256376 0.1006,0.08762 0.23041,0.08762 0.12981,0 0.22717,-0.08762 0.0974,-0.09087 0.15253,-0.256376 0.0552,-0.165509 0.0552,-0.399168 0,-0.230415 -0.0552,-0.395923 -0.0552,-0.165509 -0.15253,-0.253131 -0.0974,-0.08762 -0.22717,-0.08762 z m 2.21977,-0.24015 h 0.32128 v 0.700979 h 0.516 v -0.700979 h 0.31479 v 1.956898 h -1.15207 z m 0.32128,0.973581 v 0.707469 h 0.516 v -0.707469 z m 1.78814,-1.259164 h 0.32453 v 2.966176 h -0.32453 z m -1.01252,1.109882 h 0.53547 v 0.275848 h -0.53547 z m 0.41864,-1.051468 h 0.31803 v 2.768216 h -0.31803 z m 3.47244,-0.05841 h 0.34075 v 2.972667 h -0.34075 z m -1.23645,0.217433 q 0.22068,0 0.39268,0.12981 0.17524,0.129811 0.2726,0.363471 0.0974,0.233659 0.0974,0.551696 0,0.321281 -0.0974,0.558186 -0.0974,0.233659 -0.2726,0.36347 -0.172,0.126566 -0.39268,0.126566 -0.22068,0 -0.39592,-0.126566 -0.172,-0.129811 -0.27261,-0.36347 -0.0973,-0.236905 -0.0973,-0.558186 0,-0.318037 0.0973,-0.551696 0.10061,-0.23366 0.27261,-0.363471 0.17524,-0.12981 0.39592,-0.12981 z m 0,0.3083 q -0.12981,0 -0.23042,0.08762 -0.0974,0.08762 -0.15252,0.253131 -0.0552,0.165508 -0.0552,0.395923 0,0.233659 0.0552,0.399168 0.0552,0.165509 0.15252,0.256376 0.10061,0.08762 0.23042,0.08762 0.12981,0 0.22717,-0.08762 0.0974,-0.09087 0.15253,-0.256376 0.0552,-0.165509 0.0552,-0.399168 0,-0.230415 -0.0552,-0.395923 -0.0552,-0.165509 -0.15253,-0.253131 -0.0974,-0.08762 -0.22717,-0.08762 z m 2.25222,-0.214188 h 1.31109 v 0.275848 h -1.31109 z m 0.42513,0.850261 h 0.33426 v 1.006034 h -0.33426 z m 0.74965,-0.850261 h 0.33427 v 0.197962 q 0,0.194716 -0.01,0.4803 -0.01,0.285584 -0.0746,0.678261 l -0.33426,-0.02921 q 0.0617,-0.379697 0.0714,-0.655545 0.013,-0.279093 0.013,-0.473809 z m 0.65555,-0.311545 h 0.33751 v 2.966176 h -0.33751 z m 0.24015,1.220221 h 0.53871 v 0.282339 h -0.53871 z m -2.1938,1.122863 -0.0357,-0.282338 q 0.26611,0 0.57766,-0.0032 0.31154,-0.0065 0.63282,-0.02272 0.32129,-0.01947 0.61661,-0.05517 l 0.0195,0.249886 q -0.30506,0.04868 -0.62634,0.07464 -0.31804,0.02272 -0.61985,0.02921 -0.30181,0.0065 -0.56467,0.0097 z m 2.9824,-2.05101 h 1.7492 v 0.269357 h -1.7492 z m 0.87622,0.395923 q 0.21095,0 0.37321,0.06815 0.16226,0.06815 0.25313,0.191471 0.0909,0.120075 0.0909,0.282339 0,0.162263 -0.0909,0.285584 -0.0909,0.120075 -0.25313,0.188225 -0.16226,0.06491 -0.37321,0.06491 -0.21418,0 -0.37645,-0.06491 -0.16226,-0.06815 -0.25313,-0.188225 -0.0909,-0.123321 -0.0909,-0.285584 0,-0.162264 0.0909,-0.282339 0.0909,-0.12332 0.25313,-0.191471 0.16227,-0.06815 0.37645,-0.06815 z m 0,0.262867 q -0.17849,0 -0.28883,0.07464 -0.10709,0.0714 -0.10709,0.204452 0,0.129811 0.10709,0.204452 0.11034,0.07464 0.28883,0.07464 0.17525,0 0.28234,-0.07464 0.1071,-0.07464 0.1071,-0.204452 0,-0.133056 -0.1071,-0.204452 -0.10709,-0.07464 -0.28234,-0.07464 z m 1.0969,-0.947619 h 0.33751 v 1.856294 h -0.33751 z m 0.24665,0.791846 h 0.5095 v 0.282338 h -0.5095 z m -1.8563,1.20724 h 1.94716 v 0.967091 h -0.33751 v -0.694488 h -1.60965 z m 0.34075,-2.015313 h 0.34076 v 0.457584 h -0.34076 z m 4.38761,0.01298 h 0.34075 v 2.966176 h -0.34075 z m -0.87298,0.314791 h 0.33751 q 0,0.331017 -0.0714,0.632827 -0.0714,0.30181 -0.23366,0.574413 -0.15902,0.269358 -0.42188,0.499772 -0.25962,0.230414 -0.64257,0.415394 l -0.18173,-0.269357 q 0.43162,-0.207697 0.69773,-0.47381 0.26611,-0.266112 0.38943,-0.593884 0.12657,-0.331017 0.12657,-0.72694 z m -1.06769,0 h 1.22022 v 0.272602 h -1.22022 z m 3.98194,-0.298565 h 0.28883 v 0.08438 q 0,0.152528 -0.0584,0.285584 -0.0584,0.12981 -0.16876,0.24015 -0.10709,0.110339 -0.25637,0.194716 -0.14929,0.08438 -0.33102,0.142792 -0.18174,0.05517 -0.38619,0.07789 l -0.11358,-0.256376 q 0.17849,-0.01947 0.33426,-0.06166 0.15577,-0.04543 0.28234,-0.110339 0.12981,-0.06491 0.22068,-0.146038 0.0909,-0.08113 0.13954,-0.171999 0.0487,-0.09411 0.0487,-0.194716 z m 0.0617,0 h 0.28559 v 0.08438 q 0,0.100603 0.0487,0.194716 0.0487,0.09087 0.13954,0.171999 0.0941,0.08113 0.22068,0.146038 0.12657,0.0649 0.28234,0.110339 0.15902,0.04219 0.33751,0.06166 l -0.11683,0.256376 q -0.20445,-0.02272 -0.38619,-0.07789 -0.17849,-0.05841 -0.33102,-0.142792 -0.14928,-0.08438 -0.25637,-0.194716 -0.1071,-0.11034 -0.16551,-0.24015 -0.0584,-0.133056 -0.0584,-0.285584 z m -0.0584,1.395466 h 0.33751 v 0.434866 h -0.33751 z m -1.1683,-0.207697 h 2.68059 v 0.272602 h -2.68059 z m 0.31479,0.519243 h 2.0283 v 0.717205 h -1.68754 v 0.311545 h -0.33427 v -0.551695 h 1.68754 v -0.220679 h -1.69403 z m 0.006,0.957355 h 2.10618 v 0.259621 h -2.10618 z m 4.86791,-2.680593 h 0.32453 v 2.966176 h -0.32453 z m -0.45434,1.168297 h 0.53872 v 0.279093 h -0.53872 z m -0.21419,-1.106637 h 0.31804 v 2.758479 h -0.31804 z m -1.43765,1.921199 h 0.19796 q 0.20445,0 0.37645,-0.0065 0.172,-0.0065 0.33426,-0.02272 0.16551,-0.01947 0.33751,-0.05192 l 0.0325,0.279093 q -0.17849,0.0357 -0.34725,0.05517 -0.16875,0.01623 -0.34724,0.02272 -0.17525,0.0065 -0.38619,0.0065 h -0.19796 z m 0,-1.629125 h 1.0969 v 0.275848 h -0.76264 v 1.483088 h -0.33426 z m 2.89153,-0.06166 h 1.74921 v 0.269357 h -1.74921 z m 0.87623,0.395923 q 0.21094,0 0.3732,0.06815 0.16227,0.06815 0.25313,0.191471 0.0909,0.120075 0.0909,0.282339 0,0.162263 -0.0909,0.285584 -0.0909,0.120075 -0.25313,0.188225 -0.16226,0.06491 -0.3732,0.06491 -0.21419,0 -0.37645,-0.06491 -0.16227,-0.06815 -0.25313,-0.188225 -0.0909,-0.123321 -0.0909,-0.285584 0,-0.162264 0.0909,-0.282339 0.0909,-0.12332 0.25313,-0.191471 0.16226,-0.06815 0.37645,-0.06815 z m 0,0.262867 q -0.17849,0 -0.28883,0.07464 -0.1071,0.0714 -0.1071,0.204452 0,0.129811 0.1071,0.204452 0.11034,0.07464 0.28883,0.07464 0.17524,0 0.28234,-0.07464 0.10709,-0.07464 0.10709,-0.204452 0,-0.133056 -0.10709,-0.204452 -0.1071,-0.07464 -0.28234,-0.07464 z m 1.0969,-0.947619 h 0.33751 v 1.856294 h -0.33751 z m 0.24664,0.791846 h 0.50951 v 0.282338 h -0.50951 z m -1.85629,1.20724 h 1.94716 v 0.967091 h -0.33751 v -0.694488 h -1.60965 z m 0.34075,-2.015313 h 0.34075 v 0.457584 h -0.34075 z m 2.54754,0.292075 h 1.89523 v 0.275848 h -1.89523 z m -0.26936,2.021803 h 2.68059 v 0.279093 h -2.68059 z m 0.6166,-0.9606 h 0.33426 v 1.054713 h -0.33426 z m 1.44415,-1.061203 h 0.3375 v 0.3083 q 0,0.184981 -0.003,0.386188 -0.003,0.201206 -0.026,0.434866 -0.0195,0.233659 -0.0714,0.522488 l -0.33751,-0.0357 q 0.0746,-0.408904 0.0876,-0.72045 0.013,-0.314791 0.013,-0.587394 z m -0.71072,1.061203 h 0.33426 v 1.054713 h -0.33426 z"
           id="text5-9-1-0"
           aria-label="타이베이과학기술대학교" />
        <path
           style="font-weight:500;font-size:7.32669px;line-height:1.25;font-family:'Noto Sans KR';-inkscape-font-specification:'Noto Sans KR Medium';stroke-width:0.261667"
           d="m 82.932461,46.94047 h 0.769302 v 1.179598 h -0.769302 z m -2.637609,-0.256434 h 6.051847 v 0.615442 h -6.051847 z m 3.01127,1.208904 q 1.08435,0 1.692466,0.315048 0.615442,0.307721 0.615442,0.879203 0,0.571482 -0.615442,0.879203 -0.608116,0.307721 -1.692466,0.307721 -1.077023,0 -1.692465,-0.307721 -0.608116,-0.307721 -0.608116,-0.879203 0,-0.571482 0.608116,-0.879203 0.615442,-0.315048 1.692465,-0.315048 z m 0,0.593462 q -0.483561,0 -0.827916,0.07327 -0.344354,0.06594 -0.527522,0.197821 -0.17584,0.13188 -0.17584,0.329701 0,0.19782 0.17584,0.337027 0.183168,0.131881 0.527522,0.197821 0.344355,0.06594 0.827916,0.06594 0.498215,0 0.835243,-0.06594 0.344354,-0.06594 0.520195,-0.197821 0.17584,-0.139207 0.17584,-0.337027 0,-0.197821 -0.17584,-0.329701 -0.175841,-0.131881 -0.520195,-0.197821 -0.337028,-0.07327 -0.835243,-0.07327 z m -0.498215,-4.308094 h 0.681382 v 0.183168 q 0,0.315047 -0.124553,0.593461 -0.124554,0.271088 -0.359008,0.505542 -0.234454,0.227127 -0.556829,0.410295 -0.322374,0.183167 -0.725342,0.300394 -0.395641,0.117227 -0.857223,0.168514 l -0.271087,-0.600789 q 0.395641,-0.03663 0.732669,-0.124553 0.344354,-0.09525 0.615442,-0.227128 0.271087,-0.13188 0.461581,-0.293067 0.190494,-0.168514 0.293068,-0.351682 0.1099,-0.190494 0.1099,-0.380987 z m 0.344355,0 h 0.681382 v 0.183168 q 0,0.19782 0.102573,0.388314 0.102574,0.183167 0.293068,0.344355 0.190494,0.161187 0.461582,0.293067 0.278414,0.131881 0.615442,0.227128 0.344354,0.08792 0.739995,0.124553 l -0.271087,0.600789 q -0.461582,-0.05129 -0.86455,-0.168514 -0.395641,-0.117227 -0.725342,-0.293068 -0.322374,-0.183167 -0.556829,-0.410294 -0.227127,-0.234454 -0.351681,-0.512869 -0.124553,-0.28574 -0.124553,-0.593461 z m -2.307908,-0.293067 h 4.952843 v 0.608115 h -4.952843 z m 11.173204,1.333457 h 1.208903 v 0.637422 h -1.208903 z m 0,1.97088 h 1.208903 V 47.827 h -1.208903 z m -3.399585,-3.047903 h 0.622769 v 1.099003 q 0,0.578809 -0.124554,1.142964 -0.124553,0.556828 -0.366334,1.047717 -0.234454,0.483561 -0.571482,0.864549 -0.337028,0.380988 -0.761976,0.608115 l -0.498215,-0.615442 q 0.388315,-0.190493 0.703362,-0.512868 0.315048,-0.329701 0.534849,-0.739996 0.227127,-0.417621 0.344354,-0.871876 0.117227,-0.461581 0.117227,-0.923163 z m 0.139207,0 h 0.622769 v 1.099003 q 0,0.454255 0.1099,0.901183 0.109901,0.439602 0.322375,0.827916 0.219801,0.388315 0.520195,0.696036 0.300394,0.300394 0.674055,0.476235 L 90.544893,48.75749 Q 90.119945,48.545016 89.790244,48.186008 89.460543,47.819673 89.226089,47.358092 88.998961,46.89651 88.874407,46.354335 88.75718,45.81216 88.75718,45.240678 Z m 2.696222,-0.549502 h 0.769303 v 6.696595 h -0.769303 z m 4.96017,3.773246 h 0.769303 v 1.604545 h -0.769303 z m 0.388315,-3.377605 q 0.710689,0 1.260191,0.219801 0.556828,0.219801 0.879203,0.622769 0.322374,0.402968 0.322374,0.945143 0,0.549502 -0.322374,0.952469 -0.322375,0.402968 -0.879203,0.630096 -0.549502,0.219801 -1.260191,0.219801 -0.710689,0 -1.267517,-0.219801 -0.556829,-0.227128 -0.879203,-0.630096 -0.322375,-0.402967 -0.322375,-0.952469 0,-0.542175 0.322375,-0.945143 0.322374,-0.402968 0.879203,-0.622769 0.556828,-0.219801 1.267517,-0.219801 z m 0,0.608116 q -0.505542,0 -0.893856,0.146533 -0.380988,0.139208 -0.600789,0.402968 -0.2198,0.263761 -0.2198,0.630096 0,0.366334 0.2198,0.637422 0.219801,0.263761 0.600789,0.410294 0.388314,0.139208 0.893856,0.139208 0.498215,0 0.88653,-0.139208 0.388314,-0.146533 0.608115,-0.410294 0.219801,-0.271088 0.219801,-0.637422 0,-0.366335 -0.219801,-0.630096 -0.219801,-0.26376 -0.608115,-0.402968 -0.388315,-0.146533 -0.88653,-0.146533 z m -3.025923,4.234827 h 6.066499 v 0.630095 h -6.066499 z m 13.539726,-5.238584 h 0.76931 v 4.894229 h -0.76931 z m -3.5974,5.934619 h 4.5572 v 0.622769 h -4.5572 z m 0,-1.494645 h 0.76197 v 1.802366 h -0.76197 z m 0.51287,-4.073639 h 0.63742 v 0.666728 q 0,0.659403 -0.2198,1.245538 -0.2198,0.578808 -0.63742,1.01841 -0.41763,0.439601 -1.01841,0.666728 l -0.39565,-0.608115 q 0.52753,-0.19782 0.89386,-0.556828 0.36634,-0.366335 0.5495,-0.82059 0.1905,-0.461581 0.1905,-0.945143 z m 0.15386,0 h 0.62277 v 0.666728 q 0,0.359008 0.10257,0.696036 0.1099,0.329701 0.31505,0.622769 0.21247,0.293067 0.51287,0.520195 0.30039,0.227127 0.6887,0.359007 l -0.39564,0.615442 q -0.58613,-0.2198 -1.00375,-0.630095 -0.41762,-0.417621 -0.6301,-0.97445 -0.21247,-0.564155 -0.21247,-1.208904 z m 6.55006,-0.0073 h 0.63742 v 0.652075 q 0,0.659402 -0.2198,1.230884 -0.2198,0.564155 -0.64475,0.989103 -0.41762,0.417622 -1.02573,0.644749 l -0.40297,-0.622768 q 0.54217,-0.183168 0.90851,-0.520195 0.36633,-0.344355 0.55683,-0.791283 0.19049,-0.446928 0.19049,-0.93049 z m 0.15386,0 h 0.62277 v 0.615442 q 0,0.461581 0.17584,0.879203 0.18317,0.417621 0.53485,0.732669 0.35168,0.315047 0.85722,0.483561 l -0.40297,0.600789 q -0.57148,-0.205147 -0.97445,-0.600789 -0.40296,-0.395641 -0.60811,-0.930489 -0.20515,-0.534849 -0.20515,-1.164944 z m 2.99662,-0.359008 h 0.7693 v 3.941759 h -0.7693 z m -1.45801,4.124927 q 1.04771,0 1.6485,0.337027 0.60812,0.337028 0.60812,0.945143 0,0.608116 -0.60812,0.937817 -0.60079,0.337028 -1.6485,0.337028 -1.04772,0 -1.65584,-0.337028 -0.60811,-0.329701 -0.60811,-0.937817 0,-0.608115 0.60811,-0.945143 0.60812,-0.337027 1.65584,-0.337027 z m 0,0.600788 q -0.47624,0 -0.81327,0.08059 -0.3297,0.07327 -0.50554,0.227127 -0.17584,0.153861 -0.17584,0.373661 0,0.212474 0.17584,0.366335 0.17584,0.15386 0.50554,0.234454 0.33703,0.08059 0.81327,0.08059 0.47623,0 0.80593,-0.08059 0.3297,-0.08059 0.50554,-0.234454 0.18317,-0.153861 0.18317,-0.366335 0,-0.2198 -0.18317,-0.373661 -0.17584,-0.15386 -0.50554,-0.227127 -0.3297,-0.08059 -0.80593,-0.08059 z m 0.1099,-3.399584 h 1.48731 v 0.630095 h -1.48731 z"
           id="text5-9-8"
           aria-label="중샤오 신성" />
        <path
           id="rect2"
           style="stroke-width:0.757875"
           d="m 121.80347,16.102369 h 1.0501 v 16.764515 h -1.0501 z" />
      </g>
    </g>
  </g>
</svg>
