<?xml version="1.0" encoding="UTF-8" standalone="no"?>
<!-- Created with Inkscape (http://www.inkscape.org/) -->

<svg
   width="500"
   height="250"
   viewBox="0 0 132.29166 66.145833"
   version="1.1"
   id="svg1"
   inkscape:version="1.3.2 (091e20e, 2023-11-25, custom)"
   sodipodi:docname="o08.svg"
   xmlns:inkscape="http://www.inkscape.org/namespaces/inkscape"
   xmlns:sodipodi="http://sodipodi.sourceforge.net/DTD/sodipodi-0.dtd"
   xmlns="http://www.w3.org/2000/svg"
   xmlns:svg="http://www.w3.org/2000/svg">
  <sodipodi:namedview
     id="namedview1"
     pagecolor="#9e652e"
     bordercolor="#ffffff"
     borderopacity="1"
     inkscape:showpageshadow="0"
     inkscape:pageopacity="0"
     inkscape:pagecheckerboard="false"
     inkscape:deskcolor="#d1d1d1"
     inkscape:document-units="mm"
     inkscape:zoom="2.0208096"
     inkscape:cx="225.15728"
     inkscape:cy="106.88785"
     inkscape:window-width="1920"
     inkscape:window-height="1009"
     inkscape:window-x="1912"
     inkscape:window-y="-8"
     inkscape:window-maximized="1"
     inkscape:current-layer="layer1" />
  <defs
     id="defs1">
    <rect
       x="560.66638"
       y="34.144731"
       width="279.32397"
       height="128.59143"
       id="rect6" />
    <rect
       x="157.85752"
       y="62.351248"
       width="329.07603"
       height="135.09437"
       id="rect4" />
    <rect
       x="157.85751"
       y="62.35125"
       width="329.07602"
       height="135.09438"
       id="rect4-5" />
  </defs>
  <g
     inkscape:label="Layer 1"
     inkscape:groupmode="layer"
     id="layer1">
    <path
       id="rect5"
       style="fill:#f4eed7;stroke-width:0.953294"
       d="M -2.5431316e-6,-1.2715658e-6 H 132.29167 V 66.145835 H -2.5431316e-6 Z" />
    <g
       id="g1"
       transform="translate(1.1321756)"
       style="fill:#000000">
      <path
         id="rect1"
         style="fill:none;fill-opacity:0;stroke:#000000;stroke-width:0.942789"
         d="m 15.91309,14.352791 h 12.425164 c 3.927062,0 7.088559,3.161497 7.088559,7.088559 v 23.263136 c 0,3.927062 -3.161497,7.088559 -7.088559,7.088559 H 15.91309 c -3.927061,0 -7.0885584,-3.161497 -7.0885584,-7.088559 V 21.44135 c 0,-3.927062 3.1614974,-7.088559 7.0885584,-7.088559 z" />
      <path
         style="font-size:12.8597px;line-height:1.25;font-family:'AR UDJingXiHeiE1G30 EB';-inkscape-font-specification:'AR UDJingXiHeiE1G30 EB';stroke-width:0.26791"
         d="m 26.768042,26.026667 q 0,2.237588 -1.247391,3.510698 -1.234531,1.260251 -3.382101,1.260251 -2.186149,0 -3.420681,-1.273111 -1.234531,-1.27311 -1.234531,-3.497838 0,-2.263308 1.247391,-3.549278 1.247391,-1.298829 3.407821,-1.298829 2.186149,0 3.40782,1.28597 1.221672,1.28597 1.221672,3.562137 z m -4.629492,3.497838 q 1.401707,0 2.160429,-0.925898 0.771582,-0.925899 0.771582,-2.57194 0,-1.633182 -0.771582,-2.59766 -0.771582,-0.977337 -2.160429,-0.977337 -1.414567,0 -2.199009,0.990197 -0.771582,0.977337 -0.771582,2.5848 0,1.646041 0.784442,2.57194 0.784441,0.925898 2.186149,0.925898 z"
         id="text2"
         aria-label="O" />
      <path
         style="font-size:14.3917px;line-height:1.25;font-family:'AR UDJingXiHeiE1G30 EB';-inkscape-font-specification:'AR UDJingXiHeiE1G30 EB';stroke-width:0.261667"
         d="m 21.492415,39.692779 q 0,2.720031 -0.877894,4.015284 -0.877893,1.295253 -2.720031,1.295253 -1.784571,0 -2.70564,-1.295253 -0.921068,-1.295253 -0.921068,-4.015284 0,-2.907123 0.877893,-4.173593 0.877894,-1.280861 2.748815,-1.280861 1.827746,0 2.70564,1.280861 0.892285,1.26647 0.892285,4.173593 z m -3.597925,3.885759 q 0.921069,0 1.35282,-0.906677 0.431751,-0.921069 0.431751,-2.979082 0,-2.216322 -0.41736,-3.122999 -0.402967,-0.906677 -1.367211,-0.906677 -0.964244,0 -1.381603,0.921069 -0.41736,0.906677 -0.41736,3.108607 0,2.043622 0.431751,2.96469 0.431751,0.921069 1.367212,0.921069 z m 10.549106,-4.288726 q 0.877893,0.359792 1.324036,1.036202 0.446143,0.662018 0.446143,1.52552 0,1.453562 -1.007419,2.302672 -0.993027,0.84911 -2.748815,0.84911 -1.813354,0 -2.79199,-0.84911 -0.978635,-0.84911 -0.978635,-2.28828 0,-0.834719 0.431751,-1.496737 0.431751,-0.67641 1.266469,-1.064986 -0.676409,-0.316617 -1.007419,-0.877893 -0.331009,-0.575668 -0.3454,-1.295253 0,-1.26647 0.892285,-2.072405 0.906677,-0.820327 2.532939,-0.820327 1.583087,0 2.460981,0.805935 0.877894,0.805935 0.877894,2.086797 0,0.690801 -0.345401,1.266469 -0.331009,0.561276 -1.007419,0.892286 z m -2.000447,-0.662019 q 0.690802,0 1.108161,-0.402967 0.41736,-0.41736 0.41736,-1.079378 0,-0.690801 -0.41736,-1.079377 -0.402967,-0.402968 -1.093769,-0.402968 -0.719585,0 -1.165727,0.402968 -0.431751,0.402967 -0.431751,1.079377 0,0.647627 0.431751,1.064986 0.431751,0.417359 1.151335,0.417359 z m 1.957272,3.223741 q 0,-0.820327 -0.575668,-1.280861 -0.561277,-0.460535 -1.381604,-0.460535 -0.834718,0 -1.381603,0.50371 -0.532493,0.489318 -0.546884,1.252078 0,0.805935 0.532493,1.252078 0.532493,0.446142 1.410386,0.460534 0.863502,0 1.395995,-0.446143 0.546885,-0.460534 0.546885,-1.280861 z"
         id="text3"
         aria-label="08" />
      <path
         style="font-weight:500;font-size:72px;line-height:1.25;font-family:'Noto Sans TC';-inkscape-font-specification:'Noto Sans TC Medium';white-space:pre"
         d="m 161.09742,89.433406 h 25.2 v 6.408 h -25.2 z m 10.224,-14.76 h 6.192 v 66.744004 h -6.192 z m -0.144,19.152 3.888,1.512 q -0.864,4.464 -2.088,9.144004 -1.224,4.68 -2.808,9.216 -1.512,4.464 -3.312,8.352 -1.728,3.816 -3.672,6.552 -0.288,-0.936 -0.864,-2.16 -0.576,-1.224 -1.296,-2.448 -0.648,-1.224 -1.224,-2.088 1.8,-2.304 3.528,-5.544 1.728,-3.312 3.24,-7.128 1.512,-3.816 2.664,-7.704 1.224,-3.960004 1.944,-7.704004 z m 5.976,4.608 q 0.648,0.792 1.944,2.664004 1.368,1.8 2.808,4.032 1.512,2.16 2.808,4.032 1.296,1.8 1.8,2.664 l -4.104,4.752 q -0.576,-1.44 -1.656,-3.6 -1.08,-2.16 -2.376,-4.464 -1.224,-2.304 -2.448,-4.32 -1.152,-2.016 -1.872,-3.24 z m 11.592,40.176004 q -0.144,-0.648 -0.576,-1.872 -0.36,-1.152 -0.792,-2.376 -0.432,-1.296 -0.864,-2.16 1.224,-0.36 2.304,-1.944 1.08,-1.584 2.376,-4.176 0.72,-1.296 1.944,-4.104 1.296,-2.808 2.736,-6.696 1.512,-3.888 3.024,-8.28 1.512,-4.392 2.592,-8.856004 l 6.912,1.8 q -1.944,6.336004 -4.392,12.600004 -2.448,6.264 -5.112,11.952 -2.592,5.616 -5.328,10.296 v 0.072 q 0,0 -0.72,0.432 -0.72,0.36 -1.728,0.936 -0.936,0.648 -1.656,1.296 -0.72,0.648 -0.72,1.08 z m 0,0 -0.216,-5.4 3.6,-2.376 27.864,-3.24 q 0.072,1.368 0.36,3.096 0.36,1.728 0.648,2.808 -7.992,1.008 -13.392,1.8 -5.4,0.72 -8.856,1.152 -3.384,0.504 -5.328,0.864 -1.944,0.432 -3.024,0.72 -1.008,0.288 -1.656,0.576 z m 21.744,-21.168 5.832,-2.376 q 1.8,3.528 3.672,7.704 1.944,4.104 3.6,7.92 1.728,3.816 2.736,6.624 l -6.264,2.952 q -0.936,-2.952 -2.592,-6.84 -1.584,-3.96 -3.456,-8.136 -1.8,-4.248 -3.528,-7.848 z m -15.048,-40.248004 6.408,1.224 q -1.008,5.976 -2.664,11.736 -1.584,5.76 -3.672,10.800004 -2.088,4.968 -4.824,8.784 -0.36,-0.648 -1.224,-1.656 -0.792,-1.008 -1.728,-2.016 -0.936,-1.08 -1.656,-1.656 2.376,-3.24 4.176,-7.560004 1.8,-4.392 3.024,-9.36 1.296,-5.04 2.16,-10.296 z m 12.96,-0.576 h 7.056 q 1.008,5.256 2.592,10.512 1.656,5.256 3.816,9.72 2.16,4.392004 4.608,7.416004 -0.72,0.576 -1.728,1.512 -0.936,0.936 -1.872,2.016 -0.864,1.008 -1.44,1.8 -2.664,-3.6 -4.896,-8.424 -2.232,-4.896004 -3.96,-10.296004 -1.656,-5.472 -2.736,-10.872 h -1.44 z m -4.464,0 h 10.224 v 5.832 h -10.224 z m 32.76,3.816 3.96,-4.752 q 2.088,1.08 4.536,2.52 2.52,1.44 4.824,2.88 2.304,1.44 3.744,2.52 l -4.176,5.4 q -1.368,-1.224 -3.6,-2.736 -2.232,-1.512 -4.68,-3.024 -2.448,-1.584 -4.608,-2.808 z m -4.032,19.872004 3.744,-5.040004 q 2.088,0.936 4.608,2.232 2.52,1.296 4.896,2.592004 2.376,1.296 3.888,2.376 l -3.816,5.688 q -1.44,-1.152 -3.744,-2.52 -2.304,-1.368 -4.824,-2.808 -2.52,-1.44 -4.752,-2.52 z m 2.448,35.712 q 1.944,-2.736 4.32,-6.552 2.376,-3.816 4.824,-8.064 2.448,-4.32 4.536,-8.424 l 4.968,4.536 q -1.872,3.744 -4.104,7.848 -2.16,4.032 -4.392,7.92 -2.232,3.888 -4.464,7.344 z m 21.384,-54.936004 h 39.024 v 6.84 h -39.024 z m -3.6,49.032004 h 46.368 v 6.84 h -46.368 z m 18.864,-46.728004 h 7.416 v 50.688004 h -7.416 z m 34.272,-2.088 h 63.648 v 6.408 h -63.648 z m 15.264,29.808004 h 33.264 v 5.4 h -33.264 z m -1.512,11.592 h 36.216 v 5.616 h -36.216 z m 14.616,-8.928 h 6.48 v 26.064 h -6.48 z m -24.984,-19.440004 h 52.128 v 6.336004 h -45.288 v 40.68 h -6.84 z m 50.04,0 h 6.912 v 39.744004 q 0,2.736 -0.72,4.176 -0.72,1.44 -2.736,2.16 -1.944,0.72 -5.112,0.864 -3.096,0.144 -7.488,0.144 -0.216,-1.296 -0.936,-3.024 -0.648,-1.656 -1.368,-2.88 2.088,0.072 4.032,0.072 2.016,0.072 3.6,0 1.584,0 2.16,0 1.008,0 1.296,-0.288 0.36,-0.36 0.36,-1.224 z m -34.848,8.496004 5.4,-1.656 q 1.368,1.872 2.592,4.176 1.224,2.304 1.8,4.032 l -5.76,2.016 q -0.432,-1.8 -1.656,-4.176 -1.152,-2.448 -2.376,-4.392 z m 21.24,-1.656 5.76,1.728 q -1.368,2.664 -2.88,5.328 -1.512,2.664 -2.88,4.536 l -4.896,-1.512 q 0.864,-1.368 1.728,-3.168 0.936,-1.8 1.728,-3.6 0.864,-1.8 1.44,-3.312 z m -11.664,-26.280004 h 7.488 v 23.832 h -7.488 z m 44.064,8.352 h 63.216 v 6.696 h -63.216 z m 15.336,17.496004 v 9.936 h 32.688 v -9.936 z m -6.768,-5.904004 h 46.656 v 21.744004 h -46.656 z m 35.784,29.232004 5.544,-3.456 q 2.232,2.304 4.752,5.04 2.52,2.736 4.752,5.4 2.304,2.592 3.672,4.68 l -5.976,4.032 q -1.224,-2.088 -3.384,-4.824 -2.16,-2.736 -4.608,-5.616 -2.448,-2.88 -4.752,-5.256 z m -16.056,-9.432 h 7.2 v 19.44 q 0,2.808 -0.792,4.32 -0.72,1.512 -2.808,2.232 -2.088,0.72 -5.328,0.864 -3.24,0.216 -7.848,0.144 -0.216,-1.44 -0.864,-3.312 -0.648,-1.8 -1.368,-3.24 2.232,0.072 4.32,0.144 2.088,0 3.672,0 1.584,0 2.232,0 0.936,-0.072 1.224,-0.288 0.36,-0.288 0.36,-1.008 z m -16.56,6.12 6.624,2.376 q -2.808,4.32 -6.768,8.784 -3.888,4.392 -7.632,7.632 -0.936,-1.008 -2.448,-2.304 -1.44,-1.224 -2.52,-2.016 2.376,-1.872 4.752,-4.32 2.376,-2.52 4.464,-5.184 2.16,-2.664 3.528,-4.968 z m 13.392,-44.568004 6.624,-2.16 q 1.512,2.376 3.096,5.256 1.656,2.808 2.52,4.824 l -7.056,2.52 q -0.72,-2.088 -2.232,-5.04 -1.512,-2.952 -2.952,-5.4 z"
         id="text4"
         transform="matrix(0.26166763,0,0,0.26166763,-2.1314997,-4.0633201)"
         aria-label="松江南京" />
      <path
         style="font-size:7.32669px;line-height:1.25;font-family:'AR UDJingXiHeiE1G30 EB';-inkscape-font-specification:'AR UDJingXiHeiE1G30 EB';stroke-width:0.261667"
         d="m 42.150353,38.490591 q -0.967123,-0.175841 -1.436031,-0.542175 -0.468908,-0.366335 -0.468908,-1.025737 0,-0.615442 0.498215,-1.01841 0.505542,-0.402968 1.553258,-0.402968 0.959797,0 1.487318,0.410295 0.527522,0.410295 0.578809,1.186924 h -0.93049 q -0.0073,-0.373661 -0.293067,-0.622769 -0.285741,-0.249107 -0.871876,-0.249107 -0.549502,0 -0.813263,0.183167 -0.263761,0.183167 -0.256434,0.512868 0,0.359008 0.351681,0.534849 0.359008,0.17584 1.164944,0.337027 1.011083,0.205148 1.436031,0.556829 0.432275,0.351681 0.432275,1.055043 0,0.674056 -0.571482,1.128311 -0.571482,0.446928 -1.626525,0.446928 -1.077024,0 -1.677812,-0.454255 -0.600789,-0.454255 -0.600789,-1.311478 h 0.93049 q 0,0.476235 0.359007,0.761976 0.359008,0.278414 0.99643,0.278414 0.586135,0 0.915837,-0.227127 0.329701,-0.227127 0.329701,-0.593462 0,-0.424948 -0.329701,-0.608115 -0.329702,-0.183167 -1.157618,-0.337028 z m 8.396387,-0.227127 q 0,1.274844 -0.710689,2.000186 -0.703362,0.718016 -1.926919,0.718016 -1.245538,0 -1.9489,-0.725343 -0.703362,-0.725342 -0.703362,-1.992859 0,-1.289498 0.710689,-2.022167 0.710689,-0.739996 1.941573,-0.739996 1.245537,0 1.941573,0.732669 0.696035,0.732669 0.696035,2.029494 z m -2.637608,1.992859 q 0.798609,0 1.230884,-0.527521 0.439601,-0.527522 0.439601,-1.465338 0,-0.93049 -0.439601,-1.479992 -0.439602,-0.556828 -1.230884,-0.556828 -0.805936,0 -1.252864,0.564155 -0.439602,0.556828 -0.439602,1.472665 0,0.937816 0.446928,1.465338 0.446929,0.527521 1.245538,0.527521 z m 4.579182,-3.194437 v 3.824533 h -0.93049 v -5.297197 h 0.959797 l 2.600975,3.912452 v -3.912452 h 0.930489 v 5.297197 h -1.01841 z m 8.66747,3.179784 q -0.271088,0.380988 -0.681382,0.564155 -0.402968,0.175841 -0.923163,0.175841 -1.142964,0 -1.817019,-0.718016 -0.674056,-0.725342 -0.674056,-2.022166 0,-1.304151 0.710689,-2.022167 0.710689,-0.718016 1.919593,-0.718016 0.97445,0 1.582565,0.446929 0.615442,0.439601 0.739996,1.26019 h -0.93049 q -0.07327,-0.432274 -0.432275,-0.703362 -0.351681,-0.278414 -0.959796,-0.278414 -0.813263,0 -1.238211,0.527521 -0.424948,0.520195 -0.424948,1.487319 0,1.033063 0.446928,1.523951 0.446928,0.483562 1.216231,0.483562 0.674055,0 1.069697,-0.395642 0.395641,-0.395641 0.395641,-0.908509 v -0.109901 h -1.501972 v -0.725342 h 2.395828 v 2.776816 h -0.893856 z m 2.637604,-0.710689 q 0,0.337028 0.168513,0.527522 0.168514,0.190494 0.542176,0.190494 0.366334,0.0073 0.556828,-0.197821 0.190494,-0.212474 0.190494,-0.600789 v -3.861165 h 0.923163 v 3.941759 q 0,0.666729 -0.439602,1.06237 -0.432274,0.388315 -1.23821,0.388315 -0.783956,0 -1.208904,-0.380988 -0.424948,-0.388315 -0.424948,-0.989103 v -0.468909 h 0.93049 z m 4.491257,-3.941759 v 5.297197 h -0.930489 v -5.297197 z m 4.037002,3.157803 -0.835243,-2.263947 -0.849896,2.263947 z m -1.956227,0.725343 -0.527521,1.414051 h -0.945143 l 2.132066,-5.297197 h 0.95247 l 2.117414,5.297197 h -0.967124 l -0.534848,-1.414051 z m 5.267885,-2.410482 v 3.824533 h -0.93049 v -5.297197 h 0.959797 l 2.600975,3.912452 v -3.912452 h 0.930489 v 5.297197 h -1.01841 z m 8.667468,3.179784 q -0.271088,0.380988 -0.681382,0.564155 -0.402968,0.175841 -0.923163,0.175841 -1.142964,0 -1.817019,-0.718016 -0.674056,-0.725342 -0.674056,-2.022166 0,-1.304151 0.710689,-2.022167 0.710689,-0.718016 1.919593,-0.718016 0.97445,0 1.582565,0.446929 0.615442,0.439601 0.739996,1.26019 h -0.93049 q -0.07327,-0.432274 -0.432275,-0.703362 -0.351681,-0.278414 -0.959796,-0.278414 -0.813263,0 -1.238211,0.527521 -0.424948,0.520195 -0.424948,1.487319 0,1.033063 0.446928,1.523951 0.446928,0.483562 1.216231,0.483562 0.674055,0 1.069697,-0.395642 0.395641,-0.395641 0.395641,-0.908509 v -0.109901 h -1.501972 v -0.725342 h 2.395828 v 2.776816 h -0.893856 z m 4.842931,-3.179784 v 3.824533 h -0.93049 v -5.297197 h 0.959796 l 2.600975,3.912452 v -3.912452 h 0.93049 v 5.297197 h -1.01841 z m 7.597775,1.685139 -0.835243,-2.263947 -0.849896,2.263947 z m -1.956227,0.725343 -0.527521,1.414051 h -0.945143 l 2.132067,-5.297197 h 0.952469 l 2.117414,5.297197 h -0.967123 l -0.534849,-1.414051 z m 5.267888,-2.410482 v 3.824533 h -0.930495 v -5.297197 h 0.959795 l 2.60098,3.912452 v -3.912452 h 0.93049 v 5.297197 h -1.01841 z m 5.42174,2.469095 q 0,0.337028 0.16852,0.527522 0.16851,0.190494 0.54217,0.190494 0.36634,0.0073 0.55683,-0.197821 0.19049,-0.212474 0.19049,-0.600789 v -3.861165 h 0.92317 v 3.941759 q 0,0.666729 -0.4396,1.06237 -0.43228,0.388315 -1.23821,0.388315 -0.78396,0 -1.20891,-0.380988 -0.42495,-0.388315 -0.42495,-0.989103 v -0.468909 h 0.93049 z m 4.49126,-3.941759 v 5.297197 h -0.93049 v -5.297197 z m 2.14671,1.472664 v 3.824533 h -0.93049 v -5.297197 h 0.9598 l 2.60097,3.912452 v -3.912452 h 0.93049 v 5.297197 h -1.01841 z m 8.66747,3.179784 q -0.27109,0.380988 -0.68138,0.564155 -0.40297,0.175841 -0.92316,0.175841 -1.14297,0 -1.81702,-0.718016 -0.67406,-0.725342 -0.67406,-2.022166 0,-1.304151 0.71069,-2.022167 0.71069,-0.718016 1.91959,-0.718016 0.97445,0 1.58257,0.446929 0.61544,0.439601 0.74,1.26019 h -0.93049 q -0.0733,-0.432274 -0.43228,-0.703362 -0.35168,-0.278414 -0.9598,-0.278414 -0.81326,0 -1.23821,0.527521 -0.42494,0.520195 -0.42494,1.487319 0,1.033063 0.44692,1.523951 0.44693,0.483562 1.21623,0.483562 0.67406,0 1.0697,-0.395642 0.39564,-0.395641 0.39564,-0.908509 v -0.109901 h -1.50197 v -0.725342 h 2.39583 v 2.776816 h -0.89386 z"
         id="text5"
         aria-label="SONGJIANG NANJING" />
      <path
         d="M 44.123627,46.252806 44.91491,46.4433 q -0.124554,0.388314 -0.278414,0.813263 -0.146534,0.417621 -0.307721,0.835242 -0.153861,0.417622 -0.315048,0.798609 -0.15386,0.373662 -0.300394,0.674056 l -0.593462,-0.190494 q 0.13188,-0.307721 0.278414,-0.696036 0.146534,-0.395641 0.278414,-0.813262 0.139207,-0.424948 0.249108,-0.835243 0.1099,-0.410295 0.19782,-0.776629 z m -1.685138,2.981963 q 0.461581,-0.02198 1.069697,-0.05129 0.615441,-0.02931 1.30415,-0.07327 0.696036,-0.04396 1.384745,-0.08059 l -0.0073,0.637422 q -0.644749,0.05129 -1.304151,0.102573 -0.652075,0.05129 -1.252864,0.09525 -0.593462,0.04396 -1.077023,0.07327 z m 2.578995,-1.355438 0.593462,-0.285741 q 0.234454,0.359008 0.468908,0.776629 0.234454,0.410295 0.424948,0.813263 0.19782,0.395641 0.300394,0.703362 l -0.652075,0.337028 Q 46.0652,49.916151 45.882033,49.513183 45.698866,49.102888 45.471738,48.67794 45.244611,48.252992 45.017484,47.879331 Z m -1.443358,-4.31542 0.718015,0.146533 q -0.13188,0.586136 -0.329701,1.150291 -0.19782,0.556828 -0.439601,1.04039 -0.241781,0.483561 -0.520195,0.857223 -0.05861,-0.06594 -0.168514,-0.153861 -0.1099,-0.08792 -0.227127,-0.168514 -0.109901,-0.08792 -0.197821,-0.139207 0.271088,-0.322374 0.490888,-0.754649 0.227128,-0.439601 0.395641,-0.945143 0.175841,-0.505542 0.278415,-1.033063 z m 2.029493,-0.02198 q 0.13188,0.468908 0.322374,0.959796 0.197821,0.483562 0.424948,0.915836 0.234454,0.424948 0.461582,0.732669 -0.08792,0.05861 -0.197821,0.161187 -0.102574,0.09525 -0.205147,0.205148 -0.09525,0.102573 -0.168514,0.19782 -0.241781,-0.359007 -0.476235,-0.849896 -0.234454,-0.490888 -0.439601,-1.04039 -0.197821,-0.556828 -0.344355,-1.08435 z m -5.590265,1.414051 h 2.593649 v 0.644749 h -2.593649 z m 1.04039,-1.545932 h 0.659402 v 6.791842 h -0.659402 z m -0.02198,1.97088 0.417622,0.146534 q -0.08792,0.439601 -0.219801,0.915836 -0.131881,0.468908 -0.300394,0.923163 -0.168514,0.454255 -0.359008,0.842569 -0.190494,0.388315 -0.395642,0.674056 -0.05129,-0.146534 -0.161187,-0.329701 -0.102573,-0.183168 -0.183167,-0.307721 0.190494,-0.241781 0.366335,-0.571482 0.183167,-0.337028 0.344354,-0.725342 0.161187,-0.388315 0.285741,-0.783956 0.124554,-0.402968 0.205147,-0.783956 z m 0.644749,0.718015 q 0.07327,0.07327 0.212474,0.256435 0.146534,0.183167 0.315048,0.402968 0.168514,0.212474 0.300394,0.402968 0.139207,0.183167 0.197821,0.26376 l -0.410295,0.534849 Q 42.226015,47.813391 42.101461,47.600917 41.976907,47.381116 41.8377,47.153989 41.698493,46.926861 41.566613,46.729041 41.442059,46.53122 41.354139,46.406666 Z m 6.000559,-2.10276 0.402968,-0.483561 q 0.212474,0.1099 0.461582,0.256434 0.256434,0.146534 0.490888,0.293068 0.234454,0.146533 0.380988,0.256434 l -0.424948,0.549502 q -0.139207,-0.124554 -0.366335,-0.278415 -0.227127,-0.15386 -0.476235,-0.307721 -0.249107,-0.161187 -0.468908,-0.285741 z m -0.410294,2.022167 0.380987,-0.512868 q 0.212474,0.09525 0.468909,0.227127 0.256434,0.13188 0.498215,0.263761 0.24178,0.13188 0.395641,0.241781 l -0.388315,0.578808 Q 48.475681,46.699734 48.241227,46.560527 48.006773,46.42132 47.750339,46.274786 47.493905,46.128252 47.266778,46.018352 Z m 0.249107,3.634038 q 0.197821,-0.278414 0.439601,-0.666729 0.241781,-0.388314 0.490889,-0.820589 0.249107,-0.439601 0.461581,-0.857223 l 0.505542,0.461582 q -0.190494,0.380988 -0.417622,0.798609 -0.2198,0.410295 -0.446928,0.805936 -0.227127,0.395641 -0.454254,0.747322 z m 2.176027,-5.590264 h 3.971066 v 0.696035 h -3.971066 z m -0.366334,4.989476 h 4.718388 v 0.696035 H 49.325578 Z M 51.24517,44.29658 h 0.754649 v 5.15799 H 51.24517 Z m 3.487505,-0.212474 h 6.476794 v 0.652075 h -6.476794 z m 1.553258,3.033249 h 3.384931 v 0.549502 h -3.384931 z m -0.15386,1.179598 h 3.685325 v 0.571481 h -3.685325 z m 1.487318,-0.90851 h 0.659402 v 2.652262 h -0.659402 z m -2.542362,-1.978206 h 5.304524 v 0.644748 h -4.608488 v 4.13958 h -0.696036 z m 5.09205,0 h 0.703362 v 4.044333 q 0,0.278414 -0.07327,0.424948 -0.07327,0.146533 -0.278414,0.2198 -0.19782,0.07327 -0.520195,0.08792 -0.315048,0.01465 -0.761976,0.01465 -0.02198,-0.13188 -0.09525,-0.307721 -0.06594,-0.168514 -0.139207,-0.293068 0.212474,0.0073 0.410295,0.0073 0.205147,0.0073 0.366334,0 0.161188,0 0.219801,0 0.102574,0 0.131881,-0.02931 0.03663,-0.03663 0.03663,-0.124553 z m -3.546118,0.864549 0.549502,-0.168514 q 0.139207,0.190494 0.263761,0.424948 0.124553,0.234454 0.183167,0.410295 l -0.586135,0.205147 q -0.04396,-0.183167 -0.168514,-0.424948 -0.117227,-0.249107 -0.241781,-0.446928 z m 2.161374,-0.168514 0.586135,0.175841 q -0.139207,0.271087 -0.293068,0.542175 -0.15386,0.271087 -0.293067,0.461581 l -0.498215,-0.15386 q 0.08792,-0.139207 0.17584,-0.322375 0.09525,-0.183167 0.175841,-0.366334 0.08792,-0.183167 0.146534,-0.337028 z M 57.597411,43.43203 h 0.761976 v 2.425135 h -0.761976 z m 4.483934,0.761976 h 6.432834 v 0.666729 h -6.432834 z m 2.828102,-0.791283 h 0.739996 v 1.128311 h -0.739996 z m -1.267517,2.659589 v 1.047717 h 3.326317 v -1.047717 z m -0.688709,-0.600789 h 4.747695 v 2.256621 h -4.747695 z m 3.656018,2.92335 0.630096,-0.307721 q 0.24178,0.241781 0.498215,0.527522 0.26376,0.278414 0.498214,0.556828 0.234455,0.271088 0.380988,0.490888 l -0.681382,0.351681 q -0.124554,-0.2198 -0.351681,-0.498215 -0.219801,-0.28574 -0.476235,-0.578808 -0.256434,-0.300394 -0.498215,-0.542175 z M 64.9241,47.46171 h 0.725343 v 1.985533 q 0,0.278414 -0.07327,0.432275 -0.07327,0.15386 -0.293068,0.227127 -0.212474,0.07327 -0.542175,0.08792 -0.322374,0.01465 -0.791282,0.01465 -0.02198,-0.146534 -0.08792,-0.329701 -0.06594,-0.183168 -0.139207,-0.329701 0.227128,0.0073 0.439602,0.01465 0.212474,0 0.373661,0 0.161187,-0.0073 0.219801,-0.0073 0.102573,0 0.13188,-0.02198 0.03663,-0.02931 0.03663,-0.102573 z m -1.707118,0.615442 0.703362,0.227127 q -0.175841,0.285741 -0.417621,0.593462 -0.234455,0.300394 -0.498215,0.571482 -0.263761,0.263761 -0.527522,0.476235 -0.1099,-0.102574 -0.278414,-0.219801 -0.161187,-0.117227 -0.285741,-0.190494 0.263761,-0.183167 0.512868,-0.424948 0.249108,-0.249107 0.454255,-0.520195 0.205147,-0.271087 0.337028,-0.512868 z"
         id="text5-9"
         style="font-weight:500;font-size:7.32669px;line-height:1.25;font-family:'Noto Sans JP';-inkscape-font-specification:'Noto Sans JP Medium';stroke-width:0.261667"
         aria-label="松江南京" />
      <path
         style="font-weight:500;font-size:7.32669px;line-height:1.25;font-family:'Noto Sans KR';-inkscape-font-specification:'Noto Sans KR Medium';stroke-width:0.261667"
         d="m 78.051197,45.944041 h 0.761976 v 1.230884 h -0.761976 z m -0.01465,-2.241968 h 0.666729 v 0.256435 q 0,0.359007 -0.131881,0.688708 -0.13188,0.322375 -0.373661,0.600789 -0.241781,0.271088 -0.571482,0.483562 -0.329701,0.212474 -0.732669,0.366334 -0.402968,0.146534 -0.857223,0.219801 L 75.74329,45.709587 q 0.402968,-0.05129 0.754649,-0.168514 0.351681,-0.117227 0.630095,-0.285741 0.285741,-0.168514 0.490888,-0.373661 0.205148,-0.205148 0.307721,-0.439602 0.109901,-0.241781 0.109901,-0.483561 z m 0.124554,0 H 78.8205 v 0.256435 q 0,0.249107 0.1099,0.483561 0.1099,0.234454 0.307721,0.446928 0.205147,0.205148 0.490888,0.373661 0.285741,0.168514 0.630096,0.285741 0.351681,0.109901 0.754649,0.161188 l -0.285741,0.608115 q -0.454255,-0.07327 -0.857223,-0.219801 -0.402968,-0.15386 -0.739996,-0.366334 -0.329701,-0.212474 -0.571482,-0.483562 -0.234454,-0.271087 -0.366334,-0.593462 -0.13188,-0.329701 -0.13188,-0.696035 z m -2.747509,3.150477 h 6.051846 v 0.615442 h -6.051846 z m 3.011269,1.077024 q 1.084351,0 1.692466,0.307721 0.615442,0.307721 0.615442,0.871876 0,0.564155 -0.615442,0.864549 -0.608115,0.300395 -1.692466,0.300395 -1.077023,0 -1.692465,-0.300395 -0.608115,-0.300394 -0.608115,-0.864549 0,-0.564155 0.608115,-0.871876 0.615442,-0.307721 1.692465,-0.307721 z m 0,0.586135 q -0.739995,0 -1.135637,0.15386 -0.395641,0.146534 -0.395641,0.439602 0,0.293067 0.395641,0.439601 0.395642,0.146534 1.135637,0.146534 0.739996,0 1.135637,-0.146534 0.395642,-0.146534 0.395642,-0.439601 0,-0.293068 -0.395642,-0.439602 -0.395641,-0.15386 -1.135637,-0.15386 z m 5.304525,-4.198194 h 0.630095 v 0.490889 q 0,0.622768 -0.2198,1.17227 -0.219801,0.549502 -0.637423,0.959796 -0.417621,0.402968 -1.018409,0.615442 l -0.388315,-0.608115 q 0.527522,-0.183167 0.893856,-0.512868 0.366335,-0.329701 0.549502,-0.747323 0.190494,-0.424948 0.190494,-0.879202 z m 0.15386,0 h 0.622769 v 0.490889 q 0,0.410294 0.183167,0.791282 0.183168,0.380988 0.534849,0.681382 0.351681,0.293068 0.857222,0.454255 l -0.366334,0.600789 q -0.593462,-0.190494 -1.003757,-0.564155 -0.402968,-0.373662 -0.615442,-0.879203 -0.212474,-0.512869 -0.212474,-1.08435 z m -1.575238,-0.256434 h 3.597405 v 0.622769 h -3.597405 z m 4.308094,-0.468908 h 0.761976 v 4.000373 h -0.761976 z m 0.556828,1.626525 h 1.150291 v 0.630096 h -1.150291 z m -1.948899,2.527708 q 0.688709,0 1.186923,0.153861 0.498215,0.146534 0.769303,0.432275 0.271087,0.278414 0.271087,0.674055 0,0.402968 -0.271087,0.681382 -0.271088,0.285741 -0.769303,0.432275 -0.498214,0.153861 -1.186923,0.153861 -0.688709,0 -1.194251,-0.153861 -0.498215,-0.146534 -0.769302,-0.432275 -0.263761,-0.278414 -0.263761,-0.681382 0,-0.395641 0.263761,-0.674055 0.271087,-0.285741 0.769302,-0.432275 0.505542,-0.153861 1.194251,-0.153861 z m 0,0.608116 q -0.461582,0 -0.791283,0.07327 -0.329701,0.07327 -0.505541,0.2198 -0.175841,0.146534 -0.175841,0.359008 0,0.219801 0.175841,0.373661 0.17584,0.146534 0.505541,0.227128 0.329701,0.07327 0.791283,0.07327 0.468908,0 0.791282,-0.07327 0.329701,-0.08059 0.505542,-0.227128 0.17584,-0.15386 0.17584,-0.373661 0,-0.212474 -0.17584,-0.359008 -0.175841,-0.146534 -0.505542,-0.2198 -0.322374,-0.07327 -0.791282,-0.07327 z m 6.022545,-4.300767 h 0.761976 v 2.813449 h -0.761976 z m 0,2.571668 h 0.542175 q 0.703362,0 1.450685,-0.05861 0.754649,-0.05861 1.567911,-0.2198 l 0.08792,0.622768 q -0.827916,0.168514 -1.604546,0.234454 -0.769302,0.05861 -1.501971,0.05861 h -0.542175 z m 4.16156,-3.03325 h 0.761976 v 4.828289 h -0.761976 z m 0.534848,1.934246 h 1.172271 v 0.652076 h -1.172271 z m -3.993046,4.000373 h 4.447301 v 0.622769 h -4.447301 z m 0,-1.567912 h 0.769303 v 1.890286 h -0.769303 z m 10.484495,-4.366707 h 0.7693 v 4.0077 h -0.7693 z m -1.47267,4.154233 q 0.70337,0 1.20891,0.153861 0.50554,0.146534 0.78395,0.439601 0.27842,0.285741 0.27842,0.681383 0,0.410294 -0.27842,0.696035 -0.27841,0.285741 -0.78395,0.432275 -0.50554,0.15386 -1.20891,0.15386 -0.69603,0 -1.208899,-0.15386 -0.505542,-0.146534 -0.783956,-0.432275 -0.271087,-0.285741 -0.271087,-0.696035 0,-0.395642 0.271087,-0.681383 0.278414,-0.293067 0.783956,-0.439601 0.512869,-0.153861 1.208899,-0.153861 z m 0,0.600789 q -0.4689,0 -0.80593,0.08059 -0.337029,0.07327 -0.512869,0.227127 -0.175841,0.15386 -0.175841,0.366335 0,0.2198 0.175841,0.373661 0.17584,0.15386 0.512869,0.234454 0.33703,0.08059 0.80593,0.08059 0.48357,0 0.81327,-0.08059 0.33703,-0.08059 0.51287,-0.234454 0.17584,-0.153861 0.17584,-0.373661 0,-0.212475 -0.17584,-0.366335 -0.17584,-0.153861 -0.51287,-0.227127 -0.3297,-0.08059 -0.81327,-0.08059 z m -1.56058,-4.07364 h 0.6301 v 0.483562 q 0,0.622768 -0.227132,1.17227 -0.219801,0.549502 -0.637422,0.959797 -0.417622,0.402968 -1.01841,0.615442 l -0.395641,-0.600789 q 0.534848,-0.183167 0.893856,-0.512868 0.366334,-0.337028 0.556828,-0.754649 0.197821,-0.424948 0.197821,-0.879203 z m 0.15386,0 h 0.6301 v 0.483562 q 0,0.315047 0.10257,0.615442 0.1099,0.300394 0.32237,0.564155 0.21248,0.263761 0.51287,0.468908 0.30772,0.205147 0.69604,0.322374 l -0.38832,0.608116 q -0.58613,-0.197821 -1.01108,-0.578809 -0.41762,-0.380988 -0.644749,-0.893856 -0.219801,-0.520195 -0.219801,-1.10633 z m -1.604545,-0.19782 h 3.656015 v 0.615442 h -3.656015 z"
         id="text5-9-8"
         aria-label="송장 난징" />
    </g>
    <text
       xml:space="preserve"
       transform="matrix(0.31615295,0,0,0.31615295,-10.474341,-6.4462013)"
       id="text6"
       style="font-size:55px;line-height:1.25;font-family:'Microsoft JhengHei';-inkscape-font-specification:'Microsoft JhengHei';white-space:pre;shape-inside:url(#rect6);display:inline" />
  </g>
</svg>
