<?xml version="1.0" encoding="UTF-8" standalone="no"?>
<!-- Created with Inkscape (http://www.inkscape.org/) -->

<svg
   width="500"
   height="250"
   viewBox="0 0 132.29166 66.145833"
   version="1.1"
   id="svg1"
   inkscape:version="1.3.2 (091e20e, 2023-11-25, custom)"
   sodipodi:docname="o09.svg"
   xmlns:inkscape="http://www.inkscape.org/namespaces/inkscape"
   xmlns:sodipodi="http://sodipodi.sourceforge.net/DTD/sodipodi-0.dtd"
   xmlns="http://www.w3.org/2000/svg"
   xmlns:svg="http://www.w3.org/2000/svg">
  <sodipodi:namedview
     id="namedview1"
     pagecolor="#9e652e"
     bordercolor="#ffffff"
     borderopacity="1"
     inkscape:showpageshadow="0"
     inkscape:pageopacity="0"
     inkscape:pagecheckerboard="false"
     inkscape:deskcolor="#d1d1d1"
     inkscape:document-units="mm"
     inkscape:zoom="2.0208096"
     inkscape:cx="225.15728"
     inkscape:cy="106.88785"
     inkscape:window-width="1920"
     inkscape:window-height="1009"
     inkscape:window-x="1912"
     inkscape:window-y="-8"
     inkscape:window-maximized="1"
     inkscape:current-layer="g2" />
  <defs
     id="defs1">
    <rect
       x="560.66638"
       y="34.144731"
       width="279.32397"
       height="128.59143"
       id="rect6" />
    <rect
       x="157.85752"
       y="62.351248"
       width="329.07603"
       height="135.09437"
       id="rect4" />
    <rect
       x="157.85751"
       y="62.35125"
       width="329.07602"
       height="135.09438"
       id="rect4-5" />
  </defs>
  <g
     inkscape:label="Layer 1"
     inkscape:groupmode="layer"
     id="layer1">
    <rect
       style="fill:#f4eed7;fill-opacity:1;stroke:none;stroke-width:0.953294;stroke-dasharray:none"
       id="rect5"
       width="132.29167"
       height="66.145836"
       x="-2.5431316e-06"
       y="-1.2715658e-06"
       ry="0" />
    <g
       id="g2"
       transform="translate(8.8503564)">
      <g
         id="g3"
         transform="translate(-15.852314)">
        <path
           id="rect1"
           style="fill-opacity:0;stroke:#000000;stroke-width:0.942789"
           d="m 31.000233,14.352791 h 12.425164 c 3.927062,0 7.088559,3.161497 7.088559,7.088559 v 23.263136 c 0,3.927062 -3.161497,7.088559 -7.088559,7.088559 H 31.000233 c -3.927061,0 -7.088559,-3.161497 -7.088559,-7.088559 V 21.44135 c 0,-3.927062 3.161498,-7.088559 7.088559,-7.088559 z" />
        <path
           style="font-size:13.9478px;line-height:1.25;font-family:'AR UDJingXiHeiE1G30 EB';-inkscape-font-specification:'AR UDJingXiHeiE1G30 EB';stroke-width:0.290578"
           d="m 42.248006,26.029916 q 0,2.426917 -1.352937,3.807749 -1.338988,1.366885 -3.668271,1.366885 -2.371126,0 -3.710115,-1.380832 -1.338988,-1.380833 -1.338988,-3.793802 0,-2.454813 1.352936,-3.849593 1.352937,-1.408727 3.696167,-1.408727 2.371126,0 3.696167,1.39478 1.325041,1.39478 1.325041,3.86354 z m -5.021208,3.793802 q 1.52031,0 2.343231,-1.004242 0.836867,-1.004242 0.836867,-2.78956 0,-1.771371 -0.836867,-2.817455 -0.836868,-1.060033 -2.343231,-1.060033 -1.534258,0 -2.385074,1.07398 -0.836868,1.060033 -0.836868,2.803508 0,1.785318 0.850816,2.78956 0.850816,1.004242 2.371126,1.004242 z"
           id="text2"
           aria-label="O" />
        <path
           style="font-size:14.3917px;line-height:1.25;font-family:'AR UDJingXiHeiE1G30 EB';-inkscape-font-specification:'AR UDJingXiHeiE1G30 EB';stroke-width:0.261667"
           d="m 36.579557,39.692779 q 0,2.720031 -0.877894,4.015284 -0.877893,1.295253 -2.720031,1.295253 -1.784571,0 -2.70564,-1.295253 -0.921068,-1.295253 -0.921068,-4.015284 0,-2.907123 0.877893,-4.173593 0.877894,-1.280861 2.748815,-1.280861 1.827746,0 2.70564,1.280861 0.892285,1.26647 0.892285,4.173593 z m -3.597925,3.885759 q 0.921069,0 1.35282,-0.906677 0.431751,-0.921069 0.431751,-2.979082 0,-2.216322 -0.41736,-3.122999 -0.402967,-0.906677 -1.367211,-0.906677 -0.964244,0 -1.381603,0.921069 -0.41736,0.906677 -0.41736,3.108607 0,2.043622 0.431751,2.96469 0.431751,0.921069 1.367212,0.921069 z m 8.447918,-7.915435 q -0.777152,0 -1.252078,0.546885 -0.460535,0.532493 -0.460535,1.52552 0,0.949852 0.431751,1.496737 0.446143,0.546884 1.295253,0.561276 0.805935,0 1.252078,-0.518101 0.460535,-0.532493 0.460535,-1.52552 0,-1.036203 -0.446143,-1.554304 -0.446143,-0.532493 -1.280861,-0.532493 z m 0.02878,7.915435 q 1.007419,0 1.496737,-0.834718 0.489318,-0.834719 0.489318,-2.70564 -0.359793,0.575668 -0.978636,0.877894 -0.604451,0.302225 -1.35282,0.302225 -1.467953,0 -2.345847,-0.949852 -0.877894,-0.964244 -0.877894,-2.475372 0,-1.554304 0.949853,-2.547331 0.964244,-1.007419 2.576114,-1.007419 1.914096,0 2.835165,1.252078 0.921069,1.252078 0.921069,3.713058 0,3.022257 -0.906678,4.418252 -0.906677,1.381603 -2.820773,1.381603 -1.669437,0 -2.504155,-0.820326 -0.834719,-0.834719 -0.849111,-1.986055 h 1.770179 q 0.01439,0.604451 0.41736,0.993027 0.402967,0.388576 1.180119,0.388576 z"
           id="text3"
           aria-label="09" />
        <path
           style="font-weight:500;font-size:72px;line-height:1.25;font-family:'Noto Sans TC';-inkscape-font-specification:'Noto Sans TC Medium';white-space:pre"
           d="m 189.53742,78.921406 h 35.28 v 6.48 h -35.28 z m 19.872,21.888004 h 6.912 v 32.4 q 0,2.952 -0.792,4.536 -0.72,1.656 -2.808,2.448 -2.016,0.792 -5.4,0.936 -3.312,0.144 -8.424,0.144 -0.216,-1.44 -0.864,-3.384 -0.576,-1.944 -1.296,-3.384 2.376,0.072 4.608,0.144 2.232,0 3.888,0 1.656,0 2.304,-0.072 1.08,0 1.44,-0.288 0.432,-0.36 0.432,-1.152 z m -22.968,-2.016004 h 40.392 v 6.480004 h -40.392 z m -15.192,6.840004 5.976,-5.976004 0.864,0.360004 v 41.616 h -6.84 z m 8.28,-15.480004 6.408,2.448 q -2.736,4.68 -6.408,9.288004 -3.672,4.608 -7.632,8.712 -3.96,4.104 -7.848,7.2 -0.432,-0.72 -1.296,-1.8 -0.864,-1.152 -1.8,-2.232 -0.864,-1.152 -1.584,-1.8 3.672,-2.592 7.344,-6.12 3.744,-3.528 7.056,-7.560004 3.312,-4.032 5.76,-8.136 z m -2.88,-15.552 6.552,2.736 q -2.448,3.24 -5.688,6.624 -3.24,3.312 -6.696,6.408 -3.456,3.024 -6.84,5.4 -0.432,-0.792 -1.152,-1.8 -0.648,-1.08 -1.368,-2.088 -0.72,-1.008 -1.368,-1.656 3.024,-2.016 6.12,-4.68 3.168,-2.664 5.904,-5.544 2.736,-2.88 4.536,-5.4 z m 92.88,30.816004 q 3.456,10.8 11.016,18.504 7.56,7.704 19.296,10.944 -0.792,0.792 -1.728,1.872 -0.864,1.08 -1.656,2.232 -0.792,1.224 -1.296,2.16 -8.208,-2.664 -14.4,-7.416 -6.12,-4.752 -10.44,-11.448 -4.32,-6.768 -7.2,-15.264 z m -32.4,-25.560004 h 57.168 v 6.984 h -57.168 z m -2.592,21.960004 h 62.784 v 6.984 h -62.784 z m 27.216,-19.584004 h 7.128 v 12.672 q 0,4.464 -0.576,9.432004 -0.576,4.968 -2.376,10.08 -1.728,5.04 -5.256,9.936 -3.528,4.896 -9.288,9.216 -5.76,4.248 -14.472,7.704 -0.432,-0.864 -1.224,-1.944 -0.72,-1.08 -1.584,-2.16 -0.864,-1.08 -1.656,-1.728 7.992,-3.024 13.32,-6.84 5.328,-3.888 8.496,-8.208 3.24,-4.32 4.824,-8.712 1.656,-4.464 2.16,-8.712 0.504,-4.320004 0.504,-8.136004 z m 63.792,15.984 v 8.064004 h 24.192 v -8.064004 z m -6.408,-5.544 h 37.44 v 19.152004 h -37.44 z m 14.832,15.912004 7.92,1.512 q -1.584,3.168 -3.24,6.336 -1.656,3.096 -3.024,5.256 l -6.048,-1.512 q 1.224,-2.448 2.448,-5.688 1.224,-3.312 1.944,-5.904 z m -20.304,8.784 h 49.176 v 23.76 h -7.056 v -17.784 h -35.28 v 17.928 h -6.84 z m 3.456,15.192 h 41.904 v 5.904 h -41.904 z m -9.72,-51.408004 h 61.2 v 17.064 h -6.984 v -10.872 h -47.592 v 10.872 h -6.624 z m 24.336,-5.04 6.912,-2.016 q 1.368,2.232 2.592,4.968 1.296,2.736 1.872,4.752 l -7.344,2.232 q -0.432,-1.944 -1.584,-4.752 -1.152,-2.88 -2.448,-5.184 z"
           id="text4"
           transform="matrix(0.26166763,0,0,0.26166763,12.955641,-4.0633201)"
           aria-label="行天宮" />
        <path
           style="font-size:7.32669px;line-height:1.25;font-family:'AR UDJingXiHeiE1G30 EB';-inkscape-font-specification:'AR UDJingXiHeiE1G30 EB';stroke-width:0.261667"
           d="m 58.600261,35.589222 h 1.077023 l -1.824346,2.557015 1.92692,2.740182 h -1.08435 l -1.384745,-2.044147 -1.384744,2.044147 h -1.055044 l 1.912267,-2.747509 -1.831673,-2.549688 h 1.091677 l 1.274844,1.904939 z m 2.718203,0 v 5.297197 h -0.93049 v -5.297197 z m 2.146715,1.472664 v 3.824533 h -0.93049 v -5.297197 h 0.959796 l 2.600975,3.912452 v -3.912452 h 0.93049 v 5.297197 h -1.01841 z m 8.667469,3.179784 q -0.271088,0.380988 -0.681383,0.564155 -0.402967,0.175841 -0.923162,0.175841 -1.142964,0 -1.81702,-0.718016 -0.674055,-0.725342 -0.674055,-2.022166 0,-1.304151 0.710689,-2.022167 0.710689,-0.718016 1.919593,-0.718016 0.974449,0 1.582565,0.446929 0.615442,0.439601 0.739995,1.26019 h -0.930489 q -0.07327,-0.432274 -0.432275,-0.703362 -0.351681,-0.278414 -0.959796,-0.278414 -0.813263,0 -1.238211,0.527521 -0.424948,0.520195 -0.424948,1.487319 0,1.033063 0.446928,1.523951 0.446928,0.483562 1.216231,0.483562 0.674055,0 1.069696,-0.395642 0.395642,-0.395641 0.395642,-0.908509 v -0.109901 h -1.501972 v -0.725342 h 2.395828 v 2.776816 h -0.893856 z m 3.121167,-3.927106 H 73.60531 v -0.725342 h 4.220173 v 0.725342 h -1.641178 v 4.571855 h -0.93049 z m 4.205519,-0.725342 v 5.297197 h -0.93049 v -5.297197 z m 4.037001,3.157803 -0.835243,-2.263947 -0.849896,2.263947 z m -1.956226,0.725343 -0.527522,1.414051 h -0.945143 l 2.132067,-5.297197 h 0.952469 l 2.117414,5.297197 h -0.967123 l -0.534849,-1.414051 z m 5.267882,-2.410482 v 3.824533 h -0.930489 v -5.297197 h 0.959796 l 2.600975,3.912452 v -3.912452 h 0.93049 v 5.297197 h -1.01841 z m 7.824892,-0.747322 h -1.648505 v -0.725342 h 4.220174 v 0.725342 h -1.641179 v 4.571855 h -0.93049 z m 7.194807,4.571855 h -3.919778 v -5.297197 h 3.897798 v 0.725342 h -2.967308 v 1.494645 h 2.769488 v 0.725342 h -2.769488 v 1.626525 h 2.989288 z m 1.88297,-3.817206 v 3.817206 h -0.90119 v -5.297197 h 1.1796 l 1.52395,4.110273 1.46534,-4.110273 h 1.2089 v 5.297197 h -0.9085 v -3.846513 l -1.37742,3.846513 h -0.78396 z m 6.62332,1.714446 v 2.10276 h -0.93049 v -5.297197 h 2.49108 q 0.77662,0 1.21623,0.424948 0.4396,0.424948 0.4396,1.12831 0,0.791283 -0.45426,1.216231 -0.44693,0.424948 -1.2089,0.424948 z m 2.27127,-1.626526 q 0,-0.410294 -0.23445,-0.622768 -0.23445,-0.219801 -0.68871,-0.219801 h -1.34811 v 1.743752 h 1.34811 q 0.45426,0 0.68871,-0.2198 0.23445,-0.227128 0.23445,-0.681383 z m 5.56096,3.729286 h -3.72196 v -5.297197 h 0.93049 v 4.571854 h 2.79147 z m 4.68909,0 h -3.91978 v -5.297197 h 3.8978 v 0.725342 h -2.96731 v 1.494645 h 2.76949 v 0.725342 h -2.76949 v 1.626525 h 2.98929 z"
           id="text5"
           aria-label="XINGTIAN TEMPLE" />
        <path
           d="m 57.965233,43.842325 h 3.590078 v 0.659402 h -3.590078 z m 2.022167,2.227314 h 0.703362 v 3.29701 q 0,0.300395 -0.08059,0.461582 -0.07327,0.168514 -0.285741,0.249107 -0.205147,0.08059 -0.549501,0.09525 -0.337028,0.01465 -0.857223,0.01465 -0.02198,-0.146534 -0.08792,-0.344355 -0.05861,-0.19782 -0.131881,-0.344354 0.241781,0.0073 0.468908,0.01465 0.227128,0 0.395642,0 0.168513,0 0.234454,-0.0073 0.1099,0 0.146533,-0.02931 0.04396,-0.03663 0.04396,-0.117227 z m -2.337215,-0.205148 h 4.110274 v 0.659403 h -4.110274 z m -1.545931,0.696036 0.608115,-0.608115 0.08792,0.03663 v 4.234827 h -0.696035 z m 0.842569,-1.575238 0.652076,0.249107 q -0.278415,0.476235 -0.652076,0.945143 -0.373661,0.468908 -0.776629,0.88653 -0.402968,0.417621 -0.798609,0.732669 -0.04396,-0.07327 -0.131881,-0.183168 -0.08792,-0.117227 -0.183167,-0.227127 -0.08792,-0.117227 -0.161187,-0.183167 0.373661,-0.263761 0.747322,-0.622769 0.380988,-0.359008 0.718016,-0.769302 0.337028,-0.410295 0.586135,-0.827916 z m -0.293067,-1.582566 0.666728,0.278415 q -0.249107,0.329701 -0.578808,0.674055 -0.329701,0.337028 -0.681382,0.652076 -0.351681,0.307721 -0.696036,0.549501 -0.04396,-0.08059 -0.117227,-0.183167 -0.06594,-0.1099 -0.139207,-0.212474 -0.07327,-0.102574 -0.139207,-0.168514 0.307721,-0.205147 0.622768,-0.476235 0.322375,-0.271087 0.600789,-0.564155 0.278414,-0.293067 0.461582,-0.549502 z m 9.436777,3.084537 q 0.2198,0.791283 0.615442,1.414051 0.395641,0.615442 1.003756,1.04039 0.615442,0.417622 1.472665,0.615442 -0.08059,0.08059 -0.175841,0.197821 -0.08792,0.117227 -0.168514,0.241781 -0.08059,0.124553 -0.13188,0.227127 -0.915836,-0.256434 -1.553258,-0.739996 -0.630096,-0.490888 -1.055044,-1.201577 -0.417621,-0.718015 -0.681382,-1.655832 z m -3.370278,-0.278414 h 6.059173 v 0.703362 h -6.059173 z m -0.227127,-2.271274 h 6.476794 v 0.710689 h -6.476794 z m 2.813449,0.197821 h 0.732669 v 1.751078 q 0,0.461582 -0.06594,0.95247 -0.05861,0.483562 -0.249107,0.967123 -0.183167,0.476235 -0.549502,0.923163 -0.359008,0.439602 -0.952469,0.827916 -0.586136,0.380988 -1.472665,0.666729 -0.03663,-0.08792 -0.109901,-0.205147 -0.07327,-0.109901 -0.161187,-0.227128 -0.08059,-0.1099 -0.15386,-0.17584 0.805936,-0.263761 1.340784,-0.593462 0.542175,-0.337028 0.86455,-0.718016 0.329701,-0.388314 0.498214,-0.798609 0.168514,-0.410295 0.219801,-0.820589 0.05861,-0.417622 0.05861,-0.805936 z m 6.498774,1.670485 v 0.820589 h 2.461768 v -0.820589 z m -0.652076,-0.564155 h 3.809879 v 1.948899 h -3.809879 z m 1.523952,1.626525 0.805936,0.139207 q -0.08792,0.315048 -0.168514,0.637422 -0.07327,0.322374 -0.146534,0.542175 l -0.600788,-0.139207 q 0.03663,-0.256434 0.06594,-0.586135 0.03663,-0.329701 0.04396,-0.593462 z m -2.03682,0.886529 h 4.945516 v 2.417808 h -0.718016 v -1.809692 h -3.538791 v 1.824346 h -0.688709 z m 0.307721,1.545932 h 4.264134 v 0.600789 h -4.264134 z m 1.707119,-5.897986 h 0.732669 v 1.025737 h -0.732669 z m -2.696222,0.666729 h 6.227687 v 1.736426 h -0.710689 v -1.10633 H 70.63308 v 1.10633 h -0.674055 z"
           id="text5-9"
           style="font-weight:500;font-size:7.32669px;line-height:1.25;font-family:'Noto Sans JP';-inkscape-font-specification:'Noto Sans JP Medium';stroke-width:0.261667"
           aria-label="行天宮" />
        <path
           style="font-weight:500;font-size:7.32669px;line-height:1.25;font-family:'Noto Sans KR';-inkscape-font-specification:'Noto Sans KR Medium';stroke-width:0.261667"
           d="m 88.369246,43.592173 h 0.769302 v 3.978393 h -0.769302 z m -1.458011,4.110273 q 0.703362,0 1.208904,0.153861 0.505541,0.15386 0.783955,0.439601 0.278415,0.285741 0.278415,0.688709 0,0.402968 -0.278415,0.696036 -0.278414,0.285741 -0.783955,0.432274 -0.505542,0.153861 -1.208904,0.153861 -0.696036,0 -1.208904,-0.153861 -0.505542,-0.146533 -0.783956,-0.432274 -0.271088,-0.293068 -0.271088,-0.696036 0,-0.402968 0.271088,-0.688709 0.278414,-0.285741 0.783956,-0.439601 0.512868,-0.153861 1.208904,-0.153861 z m 0,0.600789 q -0.468909,0 -0.805936,0.08059 -0.337028,0.08059 -0.520195,0.234455 -0.175841,0.146533 -0.175841,0.366334 0,0.219801 0.175841,0.373661 0.183167,0.146534 0.520195,0.227128 0.337027,0.07327 0.805936,0.07327 0.483561,0 0.813262,-0.07327 0.337028,-0.08059 0.512869,-0.227128 0.17584,-0.15386 0.17584,-0.373661 0,-0.219801 -0.17584,-0.366334 -0.175841,-0.153861 -0.512869,-0.234455 -0.329701,-0.08059 -0.813262,-0.08059 z m -1.626526,-4.417994 h 0.637422 v 0.644748 q 0,0.644749 -0.227127,1.216231 -0.219801,0.564155 -0.644749,0.989103 -0.417621,0.424948 -1.025736,0.637422 L 83.643531,46.76463 q 0.395641,-0.139207 0.696035,-0.373661 0.307721,-0.234454 0.520195,-0.527522 0.212474,-0.300394 0.315048,-0.637422 0.1099,-0.344354 0.1099,-0.696036 z m 0.153861,0 h 0.622769 v 0.644748 q 0,0.337028 0.1099,0.659403 0.1099,0.315047 0.315048,0.593461 0.212474,0.271088 0.512868,0.483562 0.307721,0.205147 0.688709,0.329701 l -0.373661,0.600789 Q 86.867275,47.050371 86.515593,46.793937 86.171239,46.530176 85.929458,46.178495 85.687677,45.826814 85.563124,45.409192 85.43857,44.991571 85.43857,44.529989 Z m 5.209277,3.157803 h 0.417622 q 0.468908,0 0.835242,-0.0073 0.373662,-0.01465 0.703363,-0.05129 0.329701,-0.03663 0.681382,-0.102574 l 0.06594,0.615442 q -0.359008,0.06594 -0.703362,0.102574 -0.344355,0.03663 -0.725342,0.04396 -0.373662,0.0073 -0.857223,0.0073 h -0.417622 z m 0,-2.952656 h 2.432462 v 0.622769 h -1.692466 v 2.483748 h -0.739996 z m 0.512869,1.472665 h 1.714445 v 0.593462 h -1.714445 z m 2.03682,-0.754649 h 1.069696 v 0.615442 h -1.069696 z m 0,1.311477 h 1.069696 v 0.622769 h -1.069696 z m 2.10276,-2.527708 h 0.732669 v 5.077396 h -0.732669 z m -1.304151,0.13188 h 0.725342 v 4.784329 h -0.725342 z m -2.359194,5.802739 h 4.579181 v 0.622769 h -4.579181 z m 0,-1.392071 h 0.769302 v 1.824346 h -0.769302 z m 6.227687,-4.278787 h 4.278792 v 0.615442 h -4.278792 z m -0.761976,2.359194 h 6.066498 v 0.615442 h -6.066498 z m 2.637609,0.424948 h 0.769299 v 1.370091 h -0.769299 z m 1.919589,-2.784142 h 0.75465 v 0.505542 q 0,0.417621 -0.0293,0.937816 -0.022,0.520195 -0.18317,1.186924 l -0.75465,-0.08059 q 0.16119,-0.659402 0.18317,-1.142964 0.0293,-0.490888 0.0293,-0.901182 z m -1.5386,3.897799 q 1.09168,0 1.71444,0.337028 0.62277,0.329701 0.62277,0.93049 0,0.600788 -0.62277,0.930489 -0.62276,0.329701 -1.71444,0.329701 -1.084352,0 -1.70712,-0.329701 -0.622769,-0.329701 -0.622769,-0.930489 0,-0.600789 0.622769,-0.93049 0.622768,-0.337028 1.70712,-0.337028 z m 0,0.615442 q -0.49089,0 -0.842571,0.08059 -0.351681,0.07327 -0.534848,0.2198 -0.183167,0.139207 -0.183167,0.351682 0,0.212474 0.183167,0.359007 0.183167,0.139207 0.534848,0.212474 0.351681,0.07327 0.842571,0.07327 0.49821,0 0.84989,-0.07327 0.35169,-0.07327 0.53485,-0.212474 0.18317,-0.146533 0.18317,-0.359007 0,-0.212475 -0.18317,-0.351682 -0.18316,-0.146533 -0.53485,-0.2198 -0.35168,-0.08059 -0.84989,-0.08059 z"
           id="text5-9-8"
           aria-label="싱톈궁" />
      </g>
    </g>
    <text
       xml:space="preserve"
       transform="matrix(0.31615295,0,0,0.31615295,-10.474341,-6.4462013)"
       id="text6"
       style="font-size:55px;line-height:1.25;font-family:'Microsoft JhengHei';-inkscape-font-specification:'Microsoft JhengHei';white-space:pre;shape-inside:url(#rect6);display:inline" />
  </g>
</svg>
