<?xml version="1.0" encoding="UTF-8" standalone="no"?>
<!-- Created with Inkscape (http://www.inkscape.org/) -->

<svg
   width="500"
   height="250"
   viewBox="0 0 132.29166 66.145833"
   version="1.1"
   id="svg1"
   inkscape:version="1.3.2 (091e20e, 2023-11-25, custom)"
   sodipodi:docname="o0.svg"
   xmlns:inkscape="http://www.inkscape.org/namespaces/inkscape"
   xmlns:sodipodi="http://sodipodi.sourceforge.net/DTD/sodipodi-0.dtd"
   xmlns="http://www.w3.org/2000/svg"
   xmlns:svg="http://www.w3.org/2000/svg">
  <sodipodi:namedview
     id="namedview1"
     pagecolor="#9e652e"
     bordercolor="#ffffff"
     borderopacity="1"
     inkscape:showpageshadow="0"
     inkscape:pageopacity="0"
     inkscape:pagecheckerboard="false"
     inkscape:deskcolor="#d1d1d1"
     inkscape:document-units="mm"
     inkscape:zoom="1.4289282"
     inkscape:cx="387.70318"
     inkscape:cy="108.47291"
     inkscape:window-width="1920"
     inkscape:window-height="1009"
     inkscape:window-x="1912"
     inkscape:window-y="-8"
     inkscape:window-maximized="1"
     inkscape:current-layer="g2" />
  <defs
     id="defs1">
    <rect
       x="560.66638"
       y="34.144731"
       width="279.32397"
       height="128.59143"
       id="rect6" />
    <rect
       x="157.85752"
       y="62.351248"
       width="329.07603"
       height="135.09437"
       id="rect4" />
    <rect
       x="157.85751"
       y="62.35125"
       width="329.07602"
       height="135.09438"
       id="rect4-5" />
    <rect
       x="157.85751"
       y="62.35125"
       width="329.07602"
       height="135.09438"
       id="rect4-5-7" />
  </defs>
  <g
     inkscape:label="Layer 1"
     inkscape:groupmode="layer"
     id="layer1">
    <rect
       style="fill:#f4eed7;fill-opacity:1;stroke:none;stroke-width:0.953294;stroke-dasharray:none"
       id="rect5"
       width="132.29167"
       height="66.145836"
       x="-2.5431316e-06"
       y="-1.2715658e-06"
       ry="0" />
    <g
       id="g2"
       transform="translate(8.8503564)">
      <g
         id="g4"
         transform="matrix(0.71533671,0,0,0.71533671,-12.457906,9.4146457)">
        <g
           id="g3"
           transform="translate(-15.852314)">
          <path
             id="rect1"
             style="fill-opacity:0;stroke:#000000;stroke-width:0.942789"
             d="m 31.000233,14.352791 h 12.425164 c 3.927062,0 7.088559,3.161497 7.088559,7.088559 v 23.263136 c 0,3.927062 -3.161497,7.088559 -7.088559,7.088559 H 31.000233 c -3.927061,0 -7.088559,-3.161497 -7.088559,-7.088559 V 21.44135 c 0,-3.927062 3.161498,-7.088559 7.088559,-7.088559 z" />
          <path
             style="font-size:13.9478px;line-height:1.25;font-family:'AR UDJingXiHeiE1G30 EB';-inkscape-font-specification:'AR UDJingXiHeiE1G30 EB';stroke-width:0.290578"
             d="m 42.248006,26.029916 q 0,2.426917 -1.352937,3.807749 -1.338988,1.366885 -3.668271,1.366885 -2.371126,0 -3.710115,-1.380832 -1.338988,-1.380833 -1.338988,-3.793802 0,-2.454813 1.352936,-3.849593 1.352937,-1.408727 3.696167,-1.408727 2.371126,0 3.696167,1.39478 1.325041,1.39478 1.325041,3.86354 z m -5.021208,3.793802 q 1.52031,0 2.343231,-1.004242 0.836867,-1.004242 0.836867,-2.78956 0,-1.771371 -0.836867,-2.817455 -0.836868,-1.060033 -2.343231,-1.060033 -1.534258,0 -2.385074,1.07398 -0.836868,1.060033 -0.836868,2.803508 0,1.785318 0.850816,2.78956 0.850816,1.004242 2.371126,1.004242 z"
             id="text2"
             aria-label="O" />
          <path
             style="font-size:14.3917px;line-height:1.25;font-family:'AR UDJingXiHeiE1G30 EB';-inkscape-font-specification:'AR UDJingXiHeiE1G30 EB';stroke-width:0.261667"
             d="m 32.305222,36.584172 -1.683829,1.568695 -0.834718,-1.280861 2.705639,-2.460981 h 1.568695 v 10.405199 h -1.755787 z m 12.837386,3.108607 q 0,2.720031 -0.877894,4.015284 -0.877893,1.295253 -2.720031,1.295253 -1.784571,0 -2.705639,-1.295253 -0.921069,-1.295253 -0.921069,-4.015284 0,-2.907123 0.877894,-4.173593 0.877893,-1.280861 2.748814,-1.280861 1.827746,0 2.70564,1.280861 0.892285,1.26647 0.892285,4.173593 z m -3.597925,3.885759 q 0.921069,0 1.35282,-0.906677 0.431751,-0.921069 0.431751,-2.979082 0,-2.216322 -0.417359,-3.122999 -0.402968,-0.906677 -1.367212,-0.906677 -0.964244,0 -1.381603,0.921069 -0.417359,0.906677 -0.417359,3.108607 0,2.043622 0.431751,2.96469 0.431751,0.921069 1.367211,0.921069 z"
             id="text3"
             aria-label="10" />
          <path
             style="font-weight:500;font-size:72px;line-height:1.25;font-family:'Noto Sans TC';-inkscape-font-specification:'Noto Sans TC Medium';white-space:pre"
             d="m 164.55342,87.345406 h 58.608 v 34.920004 h -7.056 V 94.041406 h -44.784 v 28.584004 h -6.768 z m 3.528,24.264004 h 52.056 v 6.696 h -52.056 z m 22.032,-36.936004 h 7.128 v 66.744004 h -7.128 z m 72.072,0.72 h 7.2 v 56.880004 h -7.2 z m 25.488,14.328 h 7.056 v 51.552004 h -7.056 z m -50.472,0.216 h 6.984 v 39.168004 h 46.944 v 6.912 h -53.928 z m 80.064,2.592 h 41.256 v 4.968 h -41.256 z m 29.52,-4.968 3.096,-3.168 q 1.944,0.936 4.104,2.304 2.16,1.296 3.312,2.448 l -3.24,3.456 q -1.152,-1.224 -3.24,-2.664 -2.088,-1.44 -4.032,-2.376 z m 4.032,12.672004 5.328,1.08 q -2.664,9.936 -7.92,17.352 -5.184,7.344 -12.456,12.096 -0.36,-0.576 -1.08,-1.368 -0.72,-0.792 -1.44,-1.584 -0.72,-0.792 -1.368,-1.224 7.128,-4.104 11.88,-10.8 4.752,-6.696 7.056,-15.552 z m -34.344,20.88 q 4.104,-0.576 9.648,-1.368 5.616,-0.864 11.52,-1.872 l 0.144,4.68 q -5.4,0.936 -10.8,1.944 -5.328,0.936 -9.72,1.728 z m 7.632,-15.84 v 6.192 h 6.696 v -6.192 z m -4.608,-3.816 h 16.128 v 13.824 h -16.128 z m 18.216,-15.912004 h 5.688 q 0.288,7.2 0.936,13.968 0.72,6.696004 1.872,12.096004 1.224,5.328 2.88,8.64 1.728,3.312 3.96,3.744 0.72,0.216 1.152,-1.8 0.504,-2.016 0.792,-5.4 0.576,0.576 1.368,1.224 0.792,0.648 1.584,1.152 0.864,0.504 1.44,0.864 -0.792,6.192 -3.024,8.496 -2.16,2.232 -5.328,0.936 -3.6,-0.936 -5.976,-4.824 -2.376,-3.96 -3.816,-10.008 -1.44,-6.048 -2.304,-13.536 -0.792,-7.488004 -1.224,-15.552004 z m -30.312,-7.632 h 60.912 v 63.792004 h -6.768 V 84.033406 h -47.664 v 57.672004 h -6.48 z m 4.104,54.432004 h 53.712 v 6.192 h -53.712 z m 94.896,-56.664004 h 7.416 v 56.880004 q 0,3.456 -0.936,5.112 -0.864,1.656 -3.096,2.52 -2.16,0.792 -5.76,1.008 -3.6,0.288 -8.712,0.288 -0.216,-1.008 -0.72,-2.304 -0.432,-1.224 -1.008,-2.52 -0.504,-1.296 -1.08,-2.304 2.592,0.144 4.968,0.216 2.448,0 4.248,0 1.872,-0.072 2.664,-0.072 1.08,-0.072 1.512,-0.432 0.504,-0.432 0.504,-1.512 z m 17.352,18.576 6.624,-2.448 q 3.096,5.04 5.904,10.872004 2.88,5.76 5.04,11.304 2.232,5.544 3.096,9.936 l -7.416,2.952 q -0.792,-4.32 -2.808,-9.936 -1.944,-5.616 -4.68,-11.52 -2.736,-5.976004 -5.76,-11.160004 z m -36.216,-1.872 7.704,1.296 q -1.152,5.328 -2.952,11.232004 -1.8,5.904 -4.248,11.304 -2.448,5.328 -5.616,9.36 -0.792,-0.576 -2.016,-1.224 -1.152,-0.72 -2.376,-1.296 -1.224,-0.648 -2.16,-1.08 3.096,-3.744 5.4,-8.784 2.304,-5.112 3.888,-10.584 1.584,-5.472004 2.376,-10.224004 z"
             id="text4"
             transform="matrix(0.26166763,0,0,0.26166763,12.955641,-4.0633201)"
             aria-label="中山國小" />
          <path
             style="font-size:7.32669px;line-height:1.25;font-family:'AR UDJingXiHeiE1G30 EB';-inkscape-font-specification:'AR UDJingXiHeiE1G30 EB';stroke-width:0.261667"
             d="m 55.361864,35.589222 h 4.146906 v 0.666729 l -3.194437,3.905125 h 3.267704 v 0.725343 H 55.120083 V 40.21969 l 3.194437,-3.905126 h -2.952656 z m 6.007886,2.945329 v 2.351868 h -0.930489 v -5.297197 h 0.930489 v 2.219987 h 2.542362 v -2.219987 h 0.930489 v 5.297197 h -0.930489 v -2.351868 z m 9.781133,-0.271087 q 0,1.274844 -0.710689,2.000186 -0.703362,0.718016 -1.92692,0.718016 -1.245537,0 -1.948899,-0.725343 -0.703362,-0.725342 -0.703362,-1.992859 0,-1.289498 0.710689,-2.022167 0.710688,-0.739996 1.941572,-0.739996 1.245538,0 1.941573,0.732669 0.696036,0.732669 0.696036,2.029494 z m -2.637609,1.992859 q 0.79861,0 1.230884,-0.527521 0.439602,-0.527522 0.439602,-1.465338 0,-0.93049 -0.439602,-1.479992 -0.439601,-0.556828 -1.230884,-0.556828 -0.805935,0 -1.252864,0.564155 -0.439601,0.556828 -0.439601,1.472665 0,0.937816 0.446928,1.465338 0.446928,0.527521 1.245537,0.527521 z m 4.579183,-3.194437 v 3.824533 h -0.93049 v -5.297197 h 0.959797 l 2.600975,3.912452 v -3.912452 h 0.930489 v 5.297197 h -1.018409 z m 8.66747,3.179784 q -0.271088,0.380988 -0.681382,0.564155 -0.402968,0.175841 -0.923163,0.175841 -1.142964,0 -1.817019,-0.718016 -0.674056,-0.725342 -0.674056,-2.022166 0,-1.304151 0.710689,-2.022167 0.710689,-0.718016 1.919593,-0.718016 0.97445,0 1.582565,0.446929 0.615442,0.439601 0.739996,1.26019 h -0.93049 q -0.07327,-0.432274 -0.432275,-0.703362 -0.351681,-0.278414 -0.959796,-0.278414 -0.813263,0 -1.238211,0.527521 -0.424948,0.520195 -0.424948,1.487319 0,1.033063 0.446928,1.523951 0.446928,0.483562 1.216231,0.483562 0.674055,0 1.069697,-0.395642 0.395641,-0.395641 0.395641,-0.908509 v -0.109901 h -1.501972 v -0.725342 h 2.395828 v 2.776816 h -0.893856 z m 3.751261,-1.751079 q -0.967124,-0.175841 -1.436032,-0.542175 -0.468908,-0.366335 -0.468908,-1.025737 0,-0.615442 0.498215,-1.01841 0.505542,-0.402968 1.553258,-0.402968 0.959797,0 1.487319,0.410295 0.527521,0.410295 0.578808,1.186924 h -0.93049 q -0.0073,-0.373661 -0.293067,-0.622769 -0.285741,-0.249107 -0.871876,-0.249107 -0.549502,0 -0.813263,0.183167 -0.263761,0.183167 -0.256434,0.512868 0,0.359008 0.351681,0.534849 0.359008,0.17584 1.164944,0.337027 1.011083,0.205148 1.436031,0.556829 0.432275,0.351681 0.432275,1.055043 0,0.674056 -0.571482,1.128311 -0.571482,0.446928 -1.626525,0.446928 -1.077024,0 -1.677812,-0.454255 -0.600789,-0.454255 -0.600789,-1.311478 h 0.93049 q 0,0.476235 0.359008,0.761976 0.359007,0.278414 0.996429,0.278414 0.586136,0 0.915837,-0.227127 0.329701,-0.227127 0.329701,-0.593462 0,-0.424948 -0.329701,-0.608115 -0.329701,-0.183167 -1.157617,-0.337028 z m 4.234826,0.04396 v 2.351868 h -0.93049 v -5.297197 h 0.93049 v 2.219987 h 2.542361 v -2.219987 h 0.93049 v 5.297197 h -0.93049 v -2.351868 z m 7.509861,0.212474 -0.835242,-2.263947 -0.849896,2.263947 z m -1.956226,0.725343 -0.527522,1.414051 h -0.945143 l 2.132067,-5.297197 h 0.95247 l 2.117413,5.297197 h -0.967123 l -0.534848,-1.414051 z m 5.267881,-2.410482 v 3.824533 h -0.930488 v -5.297197 h 0.959798 l 2.60097,3.912452 v -3.912452 h 0.93049 v 5.297197 h -1.01841 z m 10.61636,3.824533 h -3.91978 v -5.297197 h 3.8978 v 0.725342 h -2.96731 v 1.494645 h 2.76949 v 0.725342 h -2.76949 v 1.626525 h 2.98929 z m 4.70374,0 h -3.72195 v -5.297197 h 0.93048 v 4.571854 h 2.79147 z m 4.68909,0 h -3.91978 v -5.297197 h 3.8978 v 0.725342 h -2.96731 v 1.494645 h 2.76949 v 0.725342 h -2.76949 v 1.626525 h 2.98929 z m 1.88297,-3.817206 v 3.817206 h -0.90118 v -5.297197 h 1.17959 l 1.52395,4.110273 1.46534,-4.110273 h 1.20891 v 5.297197 h -0.90851 v -3.846513 l -1.37742,3.846513 h -0.78396 z m 9.61261,3.817206 h -3.91978 v -5.297197 h 3.8978 v 0.725342 h -2.96731 v 1.494645 h 2.76949 v 0.725342 h -2.76949 v 1.626525 h 2.98929 z m 1.91227,-3.824533 v 3.824533 h -0.93049 v -5.297197 h 0.9598 l 2.60097,3.912452 v -3.912452 h 0.93049 v 5.297197 h -1.01841 z m 5.90531,-0.747322 h -1.64851 v -0.725342 h 4.22018 v 0.725342 h -1.64118 v 4.571855 h -0.93049 z m 6.0958,2.432461 -0.83524,-2.263947 -0.8499,2.263947 z m -1.95623,0.725343 -0.52752,1.414051 h -0.94514 l 2.13207,-5.297197 h 0.95247 l 2.11741,5.297197 h -0.96712 l -0.53485,-1.414051 z m 7.65639,-2.366521 q 0,-0.388315 -0.20515,-0.586136 -0.20515,-0.205147 -0.59346,-0.205147 h -1.58989 v 1.648505 h 1.5386 q 0.38099,0 0.61544,-0.227127 0.23446,-0.227127 0.23446,-0.630095 z m -2.3885,1.575238 v 2.205334 h -0.93049 v -5.297197 h 2.69622 q 0.72534,0 1.15029,0.388314 0.43227,0.380988 0.43227,1.08435 0,0.461582 -0.2198,0.791283 -0.21247,0.329701 -0.53484,0.468908 0.41029,0.234454 0.63009,0.813263 0.2198,0.578808 0.27841,1.751079 h -0.96712 q -0.044,-1.230884 -0.27109,-1.714446 -0.2198,-0.490888 -0.71068,-0.490888 z m 6.38888,-0.747322 1.5093,-2.344541 h 1.04039 l -2.08811,3.113843 v 2.183354 h -0.93049 v -2.183354 l -2.12474,-3.113843 h 1.06237 z m 6.82114,0.556828 q -0.96712,-0.175841 -1.43603,-0.542175 -0.46891,-0.366335 -0.46891,-1.025737 0,-0.615442 0.49822,-1.01841 0.50554,-0.402968 1.55326,-0.402968 0.95979,0 1.48732,0.410295 0.52752,0.410295 0.5788,1.186924 h -0.93049 q -0.007,-0.373661 -0.29306,-0.622769 -0.28574,-0.249107 -0.87188,-0.249107 -0.5495,0 -0.81326,0.183167 -0.26376,0.183167 -0.25644,0.512868 0,0.359008 0.35168,0.534849 0.35901,0.17584 1.16495,0.337027 1.01108,0.205148 1.43603,0.556829 0.43227,0.351681 0.43227,1.055043 0,0.674056 -0.57148,1.128311 -0.57148,0.446928 -1.62652,0.446928 -1.07703,0 -1.67781,-0.454255 -0.60079,-0.454255 -0.60079,-1.311478 h 0.93049 q 0,0.476235 0.359,0.761976 0.35901,0.278414 0.99643,0.278414 0.58614,0 0.91584,-0.227127 0.3297,-0.227127 0.3297,-0.593462 0,-0.424948 -0.3297,-0.608115 -0.3297,-0.183167 -1.15762,-0.337028 z m 7.07026,0.549502 h 0.93049 q -0.0366,0.871876 -0.60812,1.406724 -0.57148,0.534849 -1.65583,0.534849 -1.28217,0 -1.96355,-0.725343 -0.67406,-0.725342 -0.67406,-2.014839 0,-1.274845 0.67406,-2.007514 0.68138,-0.732669 1.9489,-0.732669 1.01841,0 1.58256,0.468909 0.56416,0.461581 0.64475,1.201577 h -0.93049 q -0.0586,-0.424948 -0.38831,-0.681382 -0.3297,-0.263761 -0.93049,-0.263761 -0.74,0 -1.18692,0.498215 -0.44693,0.498215 -0.44693,1.516625 0,1.033063 0.44693,1.523951 0.45425,0.490888 1.20157,0.490888 0.63742,0 0.98178,-0.329701 0.34435,-0.337027 0.37366,-0.886529 z m 2.76949,-0.505542 v 2.351868 h -0.93049 v -5.297197 h 0.93049 v 2.219987 h 2.54236 v -2.219987 h 0.93049 v 5.297197 h -0.93049 v -2.351868 z m 9.78113,-0.271087 q 0,1.274844 -0.71069,2.000186 -0.70336,0.718016 -1.92692,0.718016 -1.24554,0 -1.9489,-0.725343 -0.70336,-0.725342 -0.70336,-1.992859 0,-1.289498 0.71069,-2.022167 0.71069,-0.739996 1.94157,-0.739996 1.24554,0 1.94157,0.732669 0.69604,0.732669 0.69604,2.029494 z m -2.63761,1.992859 q 0.79861,0 1.23088,-0.527521 0.43961,-0.527522 0.43961,-1.465338 0,-0.93049 -0.43961,-1.479992 -0.4396,-0.556828 -1.23088,-0.556828 -0.80594,0 -1.25286,0.564155 -0.43961,0.556828 -0.43961,1.472665 0,0.937816 0.44693,1.465338 0.44693,0.527521 1.24554,0.527521 z m 8.74074,-1.992859 q 0,1.274844 -0.71069,2.000186 -0.70336,0.718016 -1.92692,0.718016 -1.24553,0 -1.9489,-0.725343 -0.70336,-0.725342 -0.70336,-1.992859 0,-1.289498 0.71069,-2.022167 0.71069,-0.739996 1.94157,-0.739996 1.24554,0 1.94158,0.732669 0.69603,0.732669 0.69603,2.029494 z m -2.63761,1.992859 q 0.79861,0 1.23089,-0.527521 0.4396,-0.527522 0.4396,-1.465338 0,-0.93049 -0.4396,-1.479992 -0.4396,-0.556828 -1.23089,-0.556828 -0.80593,0 -1.25286,0.564155 -0.4396,0.556828 -0.4396,1.472665 0,0.937816 0.44693,1.465338 0.44693,0.527521 1.24553,0.527521 z m 7.37066,0.630096 h -3.72196 v -5.297197 h 0.93049 v 4.571854 h 2.79147 z"
             id="text5"
             aria-label="ZHONGSHAN ELEMENTARY SCHOOL" />
          <path
             d="m 55.422872,44.699548 h 5.963925 v 3.553444 H 60.668782 V 45.38093 H 56.11158 v 2.908696 h -0.688708 z m 0.359007,2.469094 h 5.297197 v 0.681382 h -5.297197 z m 2.241968,-3.758592 h 0.725342 v 6.791842 h -0.725342 z m 7.312036,0.175841 h 0.732669 v 5.692838 h -0.732669 z m -2.535034,1.589892 h 0.703362 v 4.945515 h -0.703362 z m 5.172643,-0.01465 h 0.718016 v 4.938189 h -0.718016 z m -4.828289,3.699979 h 5.143337 v 0.710689 h -5.143337 z m 9.561331,-5.348484 h 0.754649 v 5.788085 q 0,0.351681 -0.09525,0.520195 -0.08792,0.168514 -0.315048,0.256434 -0.2198,0.08059 -0.586135,0.102574 -0.366335,0.02931 -0.88653,0.02931 -0.02198,-0.102574 -0.07327,-0.234454 -0.04396,-0.124554 -0.102574,-0.256435 -0.05129,-0.13188 -0.1099,-0.234454 0.26376,0.01465 0.505541,0.02198 0.249108,0 0.432275,0 0.190494,-0.0073 0.271087,-0.0073 0.109901,-0.0073 0.153861,-0.04396 0.05129,-0.04396 0.05129,-0.153861 z m 1.765732,1.890286 0.674056,-0.249108 q 0.315047,0.512869 0.600788,1.106331 0.293068,0.586135 0.512869,1.15029 0.227127,0.564155 0.315047,1.011083 l -0.754649,0.300395 q -0.08059,-0.439602 -0.285741,-1.011084 -0.19782,-0.571482 -0.476235,-1.17227 -0.278414,-0.608115 -0.586135,-1.135637 z m -3.685325,-0.190494 0.783956,0.13188 q -0.117227,0.542175 -0.300395,1.142964 -0.183167,0.600789 -0.432274,1.15029 -0.249108,0.542175 -0.571482,0.95247 -0.08059,-0.05861 -0.205147,-0.124554 -0.117227,-0.07327 -0.241781,-0.13188 -0.124554,-0.06594 -0.219801,-0.1099 0.315048,-0.380988 0.549502,-0.893857 0.234454,-0.520195 0.395641,-1.077023 0.161187,-0.556828 0.241781,-1.04039 z m 7.619757,0.681382 h 3.524138 v 0.608115 h -3.524138 z m -1.26019,1.663159 h 6.513427 v 0.637422 h -6.513427 z m 2.886715,-0.512868 h 0.710689 v 2.388501 q 0,0.28574 -0.08792,0.439601 -0.08059,0.15386 -0.315048,0.234454 -0.227127,0.07327 -0.564155,0.08792 -0.337027,0.02198 -0.827916,0.02198 -0.02931,-0.146533 -0.117227,-0.344354 -0.08059,-0.190494 -0.168514,-0.329701 0.256435,0.0073 0.498215,0.01465 0.249108,0.0073 0.432275,0.0073 0.183167,-0.0073 0.256434,-0.0073 0.109901,-0.0073 0.146534,-0.03663 0.03663,-0.02931 0.03663,-0.109901 z m 1.677813,-1.150291 h 0.168513 l 0.153861,-0.03663 0.439601,0.337027 q -0.249107,0.263761 -0.571482,0.520195 -0.322374,0.256435 -0.681382,0.476235 -0.351681,0.219801 -0.703362,0.388315 -0.06594,-0.09525 -0.183167,-0.212474 -0.109901,-0.124554 -0.197821,-0.197821 0.300394,-0.139207 0.600789,-0.337028 0.307721,-0.19782 0.564155,-0.402967 0.256434,-0.212474 0.410295,-0.402968 z m -4.447301,-1.289497 h 6.2863 v 1.707118 h -0.681382 v -1.091676 h -4.945516 v 1.091676 h -0.659402 z m 5.165316,-1.150291 0.739996,0.234454 q -0.241781,0.351682 -0.512868,0.696036 -0.271088,0.344354 -0.498215,0.586135 l -0.556829,-0.219801 q 0.146534,-0.17584 0.300394,-0.402967 0.153861,-0.227128 0.293068,-0.461582 0.146534,-0.234454 0.234454,-0.432275 z m -4.667101,0.300395 0.586135,-0.263761 q 0.205147,0.2198 0.402968,0.498215 0.19782,0.278414 0.285741,0.490888 l -0.615442,0.300394 q -0.08792,-0.212474 -0.278415,-0.498215 -0.190494,-0.285741 -0.380987,-0.527521 z m 1.868306,-0.153861 0.608115,-0.227127 q 0.17584,0.249107 0.344354,0.564155 0.175841,0.307721 0.241781,0.534848 l -0.644749,0.256434 q -0.05861,-0.234454 -0.2198,-0.549501 -0.153861,-0.322375 -0.329701,-0.578809 z m 7.363324,0.86455 h 4.044333 v 0.637422 H 86.99358 Z m 1.663158,-1.055044 h 0.681383 v 1.348111 h -0.681383 z m -0.747322,1.846326 0.630095,0.256434 q -0.234454,0.461582 -0.571482,0.90851 -0.329701,0.439601 -0.696035,0.754649 -0.08059,-0.09525 -0.227128,-0.219801 -0.139207,-0.13188 -0.249107,-0.212474 0.337028,-0.278414 0.637422,-0.688709 0.300394,-0.410294 0.476235,-0.798609 z m 1.523951,0.278414 0.542176,-0.300394 q 0.227127,0.234454 0.461581,0.512868 0.234454,0.271088 0.424948,0.542175 0.197821,0.271088 0.307721,0.498215 l -0.586135,0.337028 Q 90.481084,46.897555 90.297917,46.626467 90.11475,46.348053 89.887622,46.062312 89.660495,45.776571 89.433367,45.53479 Z m -1.15029,1.077024 q 0.249108,0.681382 0.659402,1.274844 0.417622,0.586135 0.981777,1.033063 0.564155,0.446928 1.26019,0.696036 -0.08059,0.06594 -0.17584,0.17584 -0.08792,0.109901 -0.175841,0.227128 -0.08059,0.117227 -0.139207,0.212474 -0.718015,-0.307721 -1.296824,-0.813263 -0.571482,-0.505541 -1.003757,-1.17227 -0.424948,-0.674056 -0.710688,-1.465338 z m 1.289498,-0.04396 0.703362,0.139207 q -0.249108,0.791282 -0.674056,1.472664 -0.424948,0.681383 -1.055043,1.201578 -0.630095,0.520195 -1.509298,0.849896 -0.03663,-0.08059 -0.102574,-0.183168 -0.05861,-0.09525 -0.13188,-0.19782 -0.06594,-0.09525 -0.124554,-0.168514 0.805936,-0.285741 1.384744,-0.747322 0.586136,-0.468909 0.959797,-1.069697 0.373661,-0.608115 0.549502,-1.296824 z m -5.165317,-1.611872 h 2.513055 v 0.644749 h -2.513055 z m 1.011083,-1.545932 h 0.644749 v 6.791842 h -0.644749 z m -0.01465,1.97088 0.417621,0.139207 q -0.08792,0.439601 -0.2198,0.915836 -0.124554,0.468908 -0.285741,0.923163 -0.161188,0.446928 -0.344355,0.84257 -0.183167,0.388314 -0.388314,0.666728 -0.05129,-0.139207 -0.153861,-0.315047 -0.09525,-0.183168 -0.183167,-0.307721 0.190494,-0.241781 0.359008,-0.571482 0.17584,-0.337028 0.329701,-0.725342 0.15386,-0.388315 0.271087,-0.783956 0.124554,-0.402968 0.197821,-0.783956 z m 0.630095,0.652075 q 0.06594,0.08059 0.197821,0.271088 0.139207,0.190494 0.300394,0.424948 0.161187,0.227127 0.293068,0.424948 0.13188,0.190494 0.183167,0.278414 l -0.388315,0.520195 q -0.06594,-0.15386 -0.183167,-0.373661 -0.117227,-0.219801 -0.256434,-0.461582 -0.13188,-0.24178 -0.256434,-0.446928 -0.124554,-0.212474 -0.205147,-0.337027 z"
             id="text5-9"
             style="font-weight:500;font-size:7.32669px;line-height:1.25;font-family:'Noto Sans JP';-inkscape-font-specification:'Noto Sans JP Medium';stroke-width:0.261667"
             aria-label="中山小学校" />
          <path
             style="font-weight:500;font-size:7.32669px;line-height:1.25;font-family:'Noto Sans KR';-inkscape-font-specification:'Noto Sans KR Medium';stroke-width:0.261667"
             d="m 102.13417,46.94047 h 0.76931 v 1.179598 h -0.76931 z m -2.637604,-0.256434 h 6.051844 v 0.615442 h -6.051844 z m 3.011274,1.208904 q 1.08435,0 1.69246,0.315048 0.61544,0.307721 0.61544,0.879203 0,0.571482 -0.61544,0.879203 -0.60811,0.307721 -1.69246,0.307721 -1.07703,0 -1.69247,-0.307721 -0.60812,-0.307721 -0.60812,-0.879203 0,-0.571482 0.60812,-0.879203 0.61544,-0.315048 1.69247,-0.315048 z m 0,0.593462 q -0.48357,0 -0.82792,0.07327 -0.34435,0.06594 -0.52752,0.197821 -0.17584,0.13188 -0.17584,0.329701 0,0.19782 0.17584,0.337027 0.18317,0.131881 0.52752,0.197821 0.34435,0.06594 0.82792,0.06594 0.49821,0 0.83524,-0.06594 0.34435,-0.06594 0.52019,-0.197821 0.17584,-0.139207 0.17584,-0.337027 0,-0.197821 -0.17584,-0.329701 -0.17584,-0.131881 -0.52019,-0.197821 -0.33703,-0.07327 -0.83524,-0.07327 z m -0.49822,-4.308094 h 0.68138 v 0.183168 q 0,0.315047 -0.12455,0.593461 -0.12455,0.271088 -0.35901,0.505542 -0.23445,0.227127 -0.55683,0.410295 -0.32237,0.183167 -0.72534,0.300394 -0.39564,0.117227 -0.85722,0.168514 l -0.27109,-0.600789 q 0.39564,-0.03663 0.73267,-0.124553 0.34435,-0.09525 0.61544,-0.227128 0.27109,-0.13188 0.46158,-0.293067 0.1905,-0.168514 0.29307,-0.351682 0.1099,-0.190494 0.1099,-0.380987 z m 0.34436,0 h 0.68138 v 0.183168 q 0,0.19782 0.10257,0.388314 0.10257,0.183167 0.29307,0.344355 0.19049,0.161187 0.46158,0.293067 0.27841,0.131881 0.61544,0.227128 0.34436,0.08792 0.74,0.124553 l -0.27109,0.600789 q -0.46158,-0.05129 -0.86455,-0.168514 -0.39564,-0.117227 -0.72534,-0.293068 -0.32238,-0.183167 -0.55683,-0.410294 -0.22713,-0.234454 -0.35168,-0.512869 -0.12455,-0.28574 -0.12455,-0.593461 z m -2.30791,-0.293067 h 4.95284 v 0.608115 h -4.95284 z m 7.77362,0.1099 h 0.63009 v 0.776629 q 0,0.659402 -0.2198,1.230884 -0.21247,0.564155 -0.63009,0.981777 -0.41763,0.417621 -1.01109,0.637422 l -0.41762,-0.600789 q 0.54218,-0.183167 0.90851,-0.520195 0.36634,-0.344354 0.5495,-0.791282 0.1905,-0.446929 0.1905,-0.937817 z m 0.14653,0 h 0.62277 v 0.798609 q 0,0.329701 0.10257,0.644749 0.1099,0.315048 0.30772,0.593462 0.20515,0.278414 0.49822,0.490888 0.30039,0.212474 0.68871,0.344355 l -0.38832,0.608115 q -0.58613,-0.212474 -0.99643,-0.608115 -0.41029,-0.395642 -0.62277,-0.93049 -0.21247,-0.542175 -0.21247,-1.142964 z m 2.73286,-0.410295 h 0.76197 v 4.923536 h -0.76197 z m 0.53484,2.007513 h 1.17227 v 0.637423 h -1.17227 z m -3.99304,3.934433 h 4.49126 v 0.622769 h -4.49126 z m 0,-1.487318 h 0.7693 v 1.809692 h -0.7693 z m 7.78828,0.813263 h 6.0665 v 0.630095 h -6.0665 z m 2.64493,-1.421378 h 0.7693 v 1.743752 h -0.7693 z m 0,-2.447115 h 0.67406 v 0.146534 q 0,0.498215 -0.20515,0.923163 -0.19782,0.417621 -0.57148,0.747322 -0.36634,0.329701 -0.87188,0.549502 -0.50554,0.219801 -1.11366,0.315048 l -0.28574,-0.608115 q 0.54218,-0.08059 0.98178,-0.256435 0.4396,-0.183167 0.74732,-0.439601 0.30772,-0.256434 0.47624,-0.571482 0.16851,-0.315048 0.16851,-0.659402 z m 0.0952,0 h 0.67405 v 0.146534 q 0,0.344354 0.16852,0.659402 0.16851,0.315048 0.47623,0.571482 0.30772,0.256434 0.74732,0.439601 0.43961,0.175841 0.98178,0.256435 l -0.28574,0.608115 q -0.60812,-0.09525 -1.11366,-0.315048 -0.50554,-0.219801 -0.8792,-0.549502 -0.36633,-0.329701 -0.57148,-0.747322 -0.19782,-0.424948 -0.19782,-0.923163 z m -2.19801,-0.402968 h 4.9675 v 0.622769 h -4.9675 z m 2.10276,-0.871876 h 0.7693 v 1.113657 h -0.7693 z m 4.10295,3.01127 h 6.05184 v 0.630095 h -6.05184 z m 0.74732,-1.172271 h 4.60116 v 0.615442 h -4.60116 z m 0,-1.729099 h 4.56453 v 0.622769 h -3.80255 v 1.399398 h -0.76198 z m 2.25662,4.022353 q 1.08435,0 1.69247,0.322375 0.61544,0.315047 0.61544,0.901183 0,0.578808 -0.61544,0.893856 -0.60812,0.315048 -1.69247,0.315048 -1.0697,0 -1.68514,-0.315048 -0.61544,-0.315048 -0.61544,-0.893856 0,-0.586136 0.61544,-0.901183 0.61544,-0.322375 1.68514,-0.322375 z m 0,0.593462 q -0.48356,0 -0.82791,0.07327 -0.34436,0.07327 -0.52753,0.212474 -0.17584,0.131881 -0.17584,0.344355 0,0.205147 0.17584,0.344354 0.18317,0.139207 0.52753,0.212474 0.34435,0.06594 0.82791,0.06594 0.49822,0 0.83524,-0.06594 0.34436,-0.07327 0.5202,-0.212474 0.17584,-0.139207 0.17584,-0.344354 0,-0.212474 -0.17584,-0.344355 -0.17584,-0.139207 -0.5202,-0.212474 -0.33702,-0.07327 -0.83524,-0.07327 z m 3.73662,-4.190867 h 3.94908 v 0.608116 h -3.94908 z m 1.9782,0.893857 q 0.47624,0 0.84257,0.15386 0.36634,0.153861 0.57148,0.432275 0.20515,0.271087 0.20515,0.637422 0,0.366334 -0.20515,0.644749 -0.20514,0.271087 -0.57148,0.424948 -0.36633,0.146534 -0.84257,0.146534 -0.48356,0 -0.84989,-0.146534 -0.36634,-0.153861 -0.57149,-0.424948 -0.20514,-0.278415 -0.20514,-0.644749 0,-0.366335 0.20514,-0.637422 0.20515,-0.278414 0.57149,-0.432275 0.36633,-0.15386 0.84989,-0.15386 z m 0,0.593462 q -0.40297,0 -0.65207,0.168513 -0.24178,0.161188 -0.24178,0.461582 0,0.293068 0.24178,0.461581 0.2491,0.168514 0.65207,0.168514 0.39564,0 0.63742,-0.168514 0.24178,-0.168513 0.24178,-0.461581 0,-0.300394 -0.24178,-0.461582 -0.24178,-0.168513 -0.63742,-0.168513 z m 2.47642,-2.139394 h 0.76198 v 4.190867 h -0.76198 z m 0.55683,1.787712 h 1.15029 v 0.637423 h -1.15029 z m -4.19087,2.725529 h 4.39602 v 2.183354 h -0.76198 v -1.567912 h -3.63404 z m 0.76931,-4.549874 h 0.7693 v 1.033063 h -0.7693 z m 5.75145,0.659402 h 4.27879 v 0.622768 h -4.27879 z m -0.60812,4.564528 h 6.05185 v 0.630095 h -6.05185 z m 1.39207,-2.168701 h 0.75465 v 2.381175 h -0.75465 z m 3.26038,-2.395827 h 0.76198 v 0.696035 q 0,0.417622 -0.007,0.871876 -0.007,0.454255 -0.0586,0.981777 -0.044,0.527522 -0.16119,1.179597 l -0.76198,-0.08059 q 0.16852,-0.923163 0.19782,-1.626525 0.0293,-0.710689 0.0293,-1.326131 z m -1.60454,2.395827 h 0.75465 v 2.381175 h -0.75465 z"
             id="text5-9-8"
             aria-label="중산 초등학교" />
          <path
             style="font-weight:500;font-size:72px;line-height:1.25;font-family:'Noto Sans TC';-inkscape-font-specification:'Noto Sans TC Medium';white-space:pre"
             d="m 194.07342,116.00141 h 25.848 v 4.968 h -25.848 z m -7.704,-36.000004 h 39.888 v 4.968 h -39.888 z m 2.232,8.856 h 35.712 v 4.752 h -35.712 z m -2.376,8.928 h 40.752 v 5.040004 h -40.752 z m 7.92,27.720004 h 25.632 v 4.896 h -25.632 z m 22.104,-19.08 h 6.48 v 28.224 q 0,2.376 -0.648,3.744 -0.576,1.368 -2.232,2.016 -1.728,0.792 -4.32,0.864 -2.592,0.144 -6.408,0.144 -0.216,-1.224 -0.792,-2.952 -0.504,-1.656 -1.08,-2.808 2.448,0.072 4.68,0.072 2.304,0 3.024,0 0.72,-0.072 1.008,-0.288 0.288,-0.288 0.288,-0.936 z m -13.32,-31.752004 h 6.408 v 24.696 h -6.408 z m -13.104,31.752004 h 6.408 v 13.248 q 0,3.456 -0.504,7.56 -0.432,4.032 -1.728,7.992 -1.224,3.96 -3.744,6.984 -0.432,-0.648 -1.368,-1.584 -0.936,-0.936 -1.944,-1.8 -0.936,-0.792 -1.584,-1.224 2.016,-2.592 2.952,-5.688 0.936,-3.168 1.224,-6.336 0.288,-3.24 0.288,-6.048 z m 3.672,0 h 27.648 v 4.896 h -27.648 z m -26.928,-26.352004 h 16.416 v 48.168004 h -16.416 v -6.12 h 10.872 V 86.265406 h -10.872 z m 0.144,20.736004 h 14.04 v 6.048 h -14.04 z m -3.6,-20.736004 h 5.832 v 53.928004 h -5.832 z m 108.36,26.568004 h 6.84 v 25.344 q 0,1.8 0.504,2.376 0.576,0.576 2.52,0.576 0.504,0 1.584,0 1.08,0 2.376,0 1.368,0 2.52,0 1.224,0 1.8,0 1.296,0 1.944,-0.864 0.72,-0.864 1.008,-3.384 0.288,-2.52 0.432,-7.56 0.72,0.576 1.8,1.152 1.152,0.504 2.304,0.936 1.224,0.432 2.16,0.72 -0.36,6.048 -1.296,9.432 -0.864,3.312 -2.736,4.608 -1.8,1.368 -5.04,1.368 -0.576,0 -1.944,0 -1.368,0 -2.952,0 -1.584,0 -2.952,0 -1.296,0 -1.872,0 -3.528,0 -5.544,-0.864 -1.944,-0.864 -2.736,-2.88 -0.72,-2.016 -0.72,-5.544 z m -19.224,0.36 h 7.272 q -0.504,6.048 -1.584,11.376 -1.08,5.256 -3.528,9.648 -2.376,4.32 -6.768,7.704 -4.392,3.456 -11.448,5.832 -0.432,-0.936 -1.152,-2.088 -0.648,-1.08 -1.512,-2.16 -0.792,-1.008 -1.584,-1.656 6.48,-1.944 10.368,-4.752 3.888,-2.808 5.904,-6.408 2.016,-3.672 2.808,-8.064 0.864,-4.392 1.224,-9.432 z m -12.96,-26.712004 6.12,-2.304 q 1.8,2.736 3.456,5.904 1.728,3.168 3.096,6.264 1.368,3.024 1.944,5.472 l -6.552,2.592 q -0.576,-2.376 -1.872,-5.472 -1.224,-3.096 -2.88,-6.336 -1.584,-3.312 -3.312,-6.12 z m 47.016,-2.952 7.128,2.448 q -1.512,3.168 -3.312,6.552 -1.728,3.312 -3.456,6.336 -1.656,3.024 -3.24,5.256 l -5.904,-2.232 q 1.512,-2.448 3.168,-5.616 1.656,-3.24 3.096,-6.552 1.512,-3.384 2.52,-6.192 z m -52.704,24.336004 h 64.656 v 6.48 h -64.656 z m 28.584,-27.000004 h 6.912 v 29.664004 h -6.912 z m 47.664,22.896 h 53.424 v 5.544004 h -46.872 v 38.232 h -6.552 z m 49.968,0 h 6.336 v 37.080004 q 0,2.376 -0.72,3.6 -0.72,1.296 -2.448,1.944 -1.8,0.648 -4.752,0.792 -2.88,0.144 -7.416,0.144 -0.144,-1.224 -0.72,-2.664 -0.576,-1.44 -1.224,-2.52 2.088,0.072 3.96,0.072 1.944,0.072 3.384,0 1.44,0 2.016,0 0.864,0 1.224,-0.36 0.36,-0.288 0.36,-1.08 z m -32.112,17.856004 h 23.616 v 16.992 h -23.616 v -4.824 h 18 v -7.272 h -18 z m -3.6,0 h 5.76 v 20.16 h -5.76 z m -18.072,-33.408004 h 63.792 v 5.832 h -63.792 z m 15.264,7.488 5.832,-1.944 q 1.152,1.872 2.376,4.176 1.296,2.304 2.016,3.816 l -6.12,2.376 q -0.648,-1.656 -1.872,-4.032 -1.152,-2.448 -2.232,-4.392 z m 27,-1.512 6.912,1.44 q -1.728,2.88 -3.6,5.832 -1.872,2.952 -3.384,4.968004 l -5.328,-1.512004 q 1.008,-1.512 2.016,-3.384 1.008,-1.872 1.872,-3.816 0.936,-1.944 1.512,-3.528 z m -15.048,-12.168 6.408,-1.584 q 0.936,2.16 1.872,4.752 0.936,2.592 1.44,4.464 l -6.696,1.872 q -0.432,-1.872 -1.368,-4.536 -0.864,-2.736 -1.656,-4.968 z m -5.184,24.624004 h 5.976 q -0.288,4.392 -1.656,7.488 -1.296,3.096 -4.392,5.112 -3.024,2.016 -8.568,3.24 -0.36,-1.008 -1.368,-2.376 -0.936,-1.44 -1.8,-2.232 4.68,-0.864 7.128,-2.232 2.448,-1.368 3.456,-3.528 1.008,-2.232 1.224,-5.472 z m 12.528,0.144 h 6.12 v 5.976 q 0,1.152 0.216,1.656 0.216,0.504 1.152,0.504 0.36,0 1.008,0 0.72,0 1.512,0 0.864,0 1.584,0 0.72,0 1.08,0 0.792,0 2.088,-0.072 1.296,-0.144 2.016,-0.288 0.072,1.152 0.144,2.376 0.072,1.152 0.288,2.304 -0.72,0.216 -1.944,0.36 -1.224,0.072 -2.448,0.072 -0.504,0 -1.44,0 -0.936,0 -2.016,0 -1.08,0 -2.016,0 -0.864,0 -1.296,0 -2.52,0 -3.816,-0.792 -1.296,-0.792 -1.8,-2.304 -0.432,-1.584 -0.432,-3.888 z m 59.544,10.08 h 16.344 v 4.032 h -16.344 z m -2.52,0 h 5.472 v 13.464 q 0,1.44 0.72,1.872 0.72,0.36 3.168,0.36 0.576,0 2.16,0 1.584,0 3.456,0 1.944,0 3.6,0 1.656,0 2.448,0 1.224,0 1.872,-0.36 0.648,-0.36 0.936,-1.512 0.288,-1.224 0.432,-3.528 0.864,0.576 2.16,1.08 1.368,0.432 2.448,0.72 -0.216,3.168 -1.008,4.896 -0.72,1.728 -2.232,2.376 -1.44,0.648 -4.032,0.648 -0.432,0 -1.728,0 -1.296,0 -3.024,0 -1.656,0 -3.312,0 -1.656,0 -2.952,0 -1.224,0 -1.656,0 -3.456,0 -5.4,-0.504 -1.944,-0.504 -2.736,-1.944 -0.792,-1.44 -0.792,-4.032 z m 17.064,0 h 4.752 q 0,0 0,0.648 0,0.576 -0.072,1.08 -0.144,3.96 -0.504,5.976 -0.288,2.016 -1.008,2.88 -1.152,1.224 -3.456,1.368 -0.792,0 -2.448,0 -1.584,0 -3.24,-0.072 -0.072,-0.864 -0.36,-1.944 -0.288,-1.08 -0.792,-1.8 1.656,0.144 2.952,0.216 1.296,0 1.8,0 1.08,0 1.512,-0.504 0.36,-0.432 0.504,-2.016 0.216,-1.584 0.36,-5.256 z m 5.904,-24.840004 5.256,1.368 q -1.224,2.448 -2.52,4.752 -1.296,2.304 -2.448,4.104 l -4.248,-1.296 q 1.008,-1.872 2.16,-4.392 1.152,-2.592 1.8,-4.536 z m -27,1.728 4.248,-1.656 q 1.224,1.368 2.304,3.168 1.08,1.728 1.44,3.096 l -4.464,1.8 q -0.288,-1.44 -1.368,-3.24 -1.008,-1.8 -2.16,-3.168 z m -14.112,-10.224 h 60.984 v 64.080004 h -6.624 V 83.241406 h -48.024 v 58.176004 h -6.336 z m 4.032,55.728004 h 53.712 v 5.688 h -53.712 z m 4.968,-31.104 h 42.912 v 4.392 h -42.912 z m 2.952,-8.064004 h 37.584 v 4.176 h -37.584 z m 16.056,-9.288 5.616,0.648 q -2.448,12.168 -8.136,20.232004 -5.616,8.064 -14.976,12.96 -0.288,-0.576 -0.936,-1.44 -0.648,-0.864 -1.368,-1.728 -0.72,-0.864 -1.296,-1.368 8.784,-4.032 13.968,-11.304 5.184,-7.272004 7.128,-18.000004 z m 5.904,21.240004 3.6,-2.808 q 2.592,1.584 5.328,3.672 2.736,2.088 5.112,4.176 2.448,2.016 3.96,3.672 l -3.888,3.312 q -1.44,-1.728 -3.816,-3.816 -2.304,-2.16 -5.04,-4.32 -2.736,-2.16 -5.256,-3.888 z"
             id="text4-0"
             transform="matrix(0.13881852,0,0,0.13881852,115.38133,4.8720375)"
             aria-label="晴光商圈" />
          <path
             style="font-size:3.81724px;line-height:1.25;font-family:'AR UDJingXiHeiE1G30 EB';-inkscape-font-specification:'AR UDJingXiHeiE1G30 EB';stroke-width:0.13633"
             d="m 140.29098,28.36609 0.33974,0.282476 -0.24431,0.286293 -0.41608,-0.351186 q -0.14123,0.06871 -0.31301,0.103065 -0.16796,0.03817 -0.355,0.03817 -0.64893,0 -1.01539,-0.377907 -0.36645,-0.377907 -0.36645,-1.038289 0,-0.671835 0.37027,-1.053559 0.37027,-0.385541 1.01157,-0.385541 0.64893,0 1.01157,0.381724 0.36263,0.381724 0.36263,1.057376 0,0.339734 -0.0992,0.606941 -0.0993,0.267207 -0.2863,0.450434 z m -0.98866,-2.118568 q -0.4199,0 -0.65275,0.293927 -0.22904,0.290111 -0.22904,0.767266 0,0.488606 0.23286,0.763448 0.23285,0.274841 0.64893,0.274841 0.0916,0 0.17177,-0.01527 0.084,-0.01527 0.15651,-0.04581 l -0.29393,-0.24812 0.25957,-0.278659 0.34737,0.293927 q 0.1107,-0.125968 0.16796,-0.313013 0.0611,-0.190862 0.0611,-0.431348 0,-0.48479 -0.22904,-0.771083 -0.22903,-0.29011 -0.64129,-0.29011 z m 2.38577,-0.3321 v 2.759865 h -0.48479 v -2.759865 z m 1.11845,0.767265 v 1.9926 h -0.48479 v -2.759865 h 0.50006 l 1.35512,2.038406 v -2.038406 h 0.48479 v 2.759865 h -0.5306 z m 4.51579,1.656682 q -0.14123,0.198497 -0.355,0.293928 -0.20995,0.09161 -0.48097,0.09161 -0.59549,0 -0.94668,-0.37409 -0.35118,-0.377907 -0.35118,-1.053558 0,-0.679469 0.37027,-1.053558 0.37027,-0.37409 1.00012,-0.37409 0.50769,0 0.82452,0.232852 0.32065,0.229034 0.38554,0.656565 h -0.48479 q -0.0382,-0.225217 -0.22522,-0.366455 -0.18322,-0.145055 -0.50005,-0.145055 -0.42372,0 -0.64512,0.274841 -0.2214,0.271024 -0.2214,0.7749 0,0.538231 0.23285,0.793986 0.23286,0.251938 0.63367,0.251938 0.35118,0 0.55731,-0.206131 0.20613,-0.206131 0.20613,-0.473338 v -0.05726 h -0.78253 v -0.377906 h 1.24824 v 1.446734 h -0.46571 z m 3.06525,0 q -0.14124,0.198497 -0.35501,0.293928 -0.20995,0.09161 -0.48097,0.09161 -0.59549,0 -0.94668,-0.37409 -0.35118,-0.377907 -0.35118,-1.053558 0,-0.679469 0.37027,-1.053558 0.37027,-0.37409 1.00012,-0.37409 0.50769,0 0.82452,0.232852 0.32065,0.229034 0.38554,0.656565 h -0.48479 q -0.0382,-0.225217 -0.22521,-0.366455 -0.18323,-0.145055 -0.50006,-0.145055 -0.42372,0 -0.64512,0.274841 -0.2214,0.271024 -0.2214,0.7749 0,0.538231 0.23286,0.793986 0.23285,0.251938 0.63366,0.251938 0.35118,0 0.55731,-0.206131 0.20614,-0.206131 0.20614,-0.473338 v -0.05726 h -0.78254 v -0.377906 h 1.24824 v 1.446734 h -0.4657 z m 3.35153,-0.629844 q 0,0.480972 -0.30156,0.748179 -0.30156,0.267207 -0.85888,0.267207 -0.56495,0 -0.87033,-0.26339 -0.30156,-0.263389 -0.30156,-0.748179 v -1.79792 h 0.48479 v 1.775017 q 0,0.313013 0.17177,0.484789 0.17178,0.171776 0.51533,0.171776 0.32446,0 0.49624,-0.164141 0.17559,-0.167959 0.17559,-0.500059 v -1.767382 h 0.48861 z m 2.08421,-0.148872 -0.43516,-1.179528 -0.4428,1.179528 z m -1.0192,0.377906 -0.27484,0.736728 h -0.49242 l 1.11081,-2.759865 h 0.49624 l 1.10319,2.759865 h -0.50388 l -0.27866,-0.736728 z m 2.74459,-1.255872 v 1.9926 h -0.48479 v -2.759865 h 0.50006 l 1.35512,2.038406 v -2.038406 h 0.48479 v 2.759865 h -0.53059 z m 4.5158,1.656682 q -0.14124,0.198497 -0.35501,0.293928 -0.20995,0.09161 -0.48097,0.09161 -0.59549,0 -0.94668,-0.37409 -0.35118,-0.377907 -0.35118,-1.053558 0,-0.679469 0.37027,-1.053558 0.37027,-0.37409 1.00012,-0.37409 0.50769,0 0.82452,0.232852 0.32065,0.229034 0.38554,0.656565 h -0.48479 q -0.0382,-0.225217 -0.22521,-0.366455 -0.18323,-0.145055 -0.50006,-0.145055 -0.42372,0 -0.64512,0.274841 -0.2214,0.271024 -0.2214,0.7749 0,0.538231 0.23286,0.793986 0.23285,0.251938 0.63366,0.251938 0.35118,0 0.55731,-0.206131 0.20614,-0.206131 0.20614,-0.473338 v -0.05726 h -0.78254 v -0.377906 h 1.24824 v 1.446734 h -0.4657 z m 4.00046,-0.626027 h 0.48479 q -0.0191,0.454252 -0.31683,0.73291 -0.29775,0.278659 -0.8627,0.278659 -0.66802,0 -1.02302,-0.377907 -0.35119,-0.377907 -0.35119,-1.049741 0,-0.6642 0.35119,-1.045924 0.355,-0.381724 1.01539,-0.381724 0.53059,0 0.82452,0.244304 0.29393,0.240486 0.33592,0.626027 h -0.48479 q -0.0305,-0.2214 -0.20232,-0.355003 -0.17177,-0.137421 -0.48479,-0.137421 -0.38554,0 -0.61839,0.259572 -0.23285,0.259573 -0.23285,0.790169 0,0.538231 0.23285,0.793986 0.23667,0.255755 0.62603,0.255755 0.3321,0 0.51151,-0.171776 0.17941,-0.175593 0.19468,-0.461886 z m 3.6111,-0.404627 q 0,0.664199 -0.37027,1.042106 -0.36645,0.37409 -1.00393,0.37409 -0.64893,0 -1.01539,-0.377907 -0.36645,-0.377907 -0.36645,-1.038289 0,-0.671835 0.37027,-1.053559 0.37027,-0.385541 1.01157,-0.385541 0.64893,0 1.01157,0.381724 0.36263,0.381724 0.36263,1.057376 z m -1.3742,1.038289 q 0.41608,0 0.64129,-0.274841 0.22904,-0.274842 0.22904,-0.763448 0,-0.48479 -0.22904,-0.771083 -0.22903,-0.29011 -0.64129,-0.29011 -0.4199,0 -0.65275,0.293927 -0.22904,0.290111 -0.22904,0.767266 0,0.488606 0.23286,0.763448 0.23285,0.274841 0.64893,0.274841 z m 2.37051,-1.660499 v 1.988782 h -0.46952 v -2.759865 h 0.61457 l 0.79399,2.141472 0.76344,-2.141472 h 0.62985 v 2.759865 h -0.47334 v -2.004051 l -0.71764,2.004051 h -0.40844 z m 3.43551,0 v 1.988782 h -0.46952 v -2.759865 h 0.61457 l 0.79399,2.141472 0.76345,-2.141472 h 0.62984 v 2.759865 h -0.47334 v -2.004051 l -0.71764,2.004051 h -0.40844 z m 5.00822,1.988782 h -2.04223 v -2.759865 h 2.03078 v 0.377907 h -1.54599 v 0.778717 h 1.44292 v 0.377907 h -1.44292 v 0.847427 h 1.55744 z m 2.24072,-1.969696 q 0,-0.202314 -0.10688,-0.305379 -0.10689,-0.106883 -0.3092,-0.106883 h -0.82834 v 0.858879 h 0.80162 q 0.19849,0 0.32065,-0.118335 0.12215,-0.118334 0.12215,-0.328282 z m -1.24442,0.820706 v 1.14899 h -0.48479 v -2.759865 h 1.40474 q 0.37791,0 0.59931,0.202314 0.22522,0.198496 0.22522,0.564951 0,0.240486 -0.11452,0.412262 -0.1107,0.171776 -0.27866,0.244304 0.21377,0.122151 0.32828,0.423713 0.11452,0.301562 0.14506,0.912321 h -0.50388 q -0.0229,-0.641297 -0.14124,-0.893235 -0.11451,-0.255755 -0.37027,-0.255755 z m 4.26767,0.187045 h 0.48479 q -0.0191,0.454252 -0.31683,0.73291 -0.29774,0.278659 -0.86269,0.278659 -0.66802,0 -1.02302,-0.377907 -0.35119,-0.377907 -0.35119,-1.049741 0,-0.6642 0.35119,-1.045924 0.355,-0.381724 1.01538,-0.381724 0.5306,0 0.82453,0.244304 0.29392,0.240486 0.33591,0.626027 h -0.48479 q -0.0305,-0.2214 -0.20231,-0.355003 -0.17178,-0.137421 -0.48479,-0.137421 -0.38554,0 -0.61839,0.259572 -0.23285,0.259573 -0.23285,0.790169 0,0.538231 0.23285,0.793986 0.23667,0.255755 0.62603,0.255755 0.3321,0 0.51151,-0.171776 0.17941,-0.175593 0.19467,-0.461886 z m 1.44292,-1.79792 v 2.759865 h -0.48479 v -2.759865 z m 2.1033,1.645231 -0.43517,-1.179528 -0.4428,1.179528 z m -1.01921,0.377906 -0.27484,0.736728 h -0.49242 l 1.11081,-2.759865 h 0.49625 l 1.10318,2.759865 h -0.50388 l -0.27866,-0.736728 z m 4.19897,0.736728 h -1.93916 v -2.759865 h 0.48479 v 2.381958 h 1.45437 z m 1.33985,-2.759865 h 2.16055 v 0.347369 l -1.66431,2.034589 h 1.70249 v 0.377907 h -2.3247 v -0.347369 l 1.66431,-2.034589 h -1.53834 z m 5.29832,1.393293 q 0,0.664199 -0.37027,1.042106 -0.36645,0.37409 -1.00393,0.37409 -0.64893,0 -1.01539,-0.377907 -0.36645,-0.377907 -0.36645,-1.038289 0,-0.671835 0.37027,-1.053559 0.37027,-0.385541 1.01157,-0.385541 0.64893,0 1.01157,0.381724 0.36263,0.381724 0.36263,1.057376 z m -1.3742,1.038289 q 0.41608,0 0.64129,-0.274841 0.22904,-0.274842 0.22904,-0.763448 0,-0.48479 -0.22904,-0.771083 -0.22903,-0.29011 -0.64129,-0.29011 -0.4199,0 -0.65275,0.293927 -0.22903,0.290111 -0.22903,0.767266 0,0.488606 0.23285,0.763448 0.23285,0.274841 0.64893,0.274841 z m 2.38578,-1.664317 v 1.9926 h -0.48479 v -2.759865 h 0.50005 l 1.35513,2.038406 v -2.038406 h 0.48478 v 2.759865 h -0.53059 z m 4.53105,1.9926 h -2.04222 v -2.759865 h 2.03077 v 0.377907 h -1.54598 v 0.778717 h 1.44292 v 0.377907 h -1.44292 v 0.847427 h 1.55743 z"
             id="text5-8"
             aria-label="QINGGUANG COMMERCIAL ZONE" />
          <path
             d="m 138.09499,30.305061 h 0.7178 v 2.343381 h -0.7178 v -0.295561 h 0.43631 v -1.752258 h -0.43631 z m -0.0281,1.016873 h 0.57002 v 0.292043 h -0.57002 z m -0.18296,-1.016873 h 0.27445 v 2.628387 h -0.27445 z m 1.17873,0.02815 h 1.87892 v 0.242783 h -1.87892 z m 0.088,0.429268 h 1.72411 v 0.232227 h -1.72411 z m -0.18297,0.429268 h 2.04782 v 0.24982 h -2.04782 z m 0.86558,-1.132986 h 0.32019 v 1.270211 h -0.32019 z m -0.63687,1.565773 h 1.41096 v 0.246301 h -1.10132 v 1.453178 h -0.30964 z m 1.31244,0 h 0.30963 v 1.379287 q 0,0.112595 -0.0281,0.172411 -0.0282,0.06333 -0.10555,0.09852 -0.0774,0.03167 -0.19705,0.03871 -0.11611,0.01056 -0.285,0.007 -0.0106,-0.05982 -0.0352,-0.137225 -0.0246,-0.07389 -0.0563,-0.130188 0.1126,0.0035 0.2076,0.0035 0.0985,0 0.13019,0 0.0352,0 0.0457,-0.01407 0.0141,-0.01056 0.0141,-0.0387 z m -1.13651,0.464453 h 1.28429 v 0.228709 h -1.28429 z m 0,0.453899 h 1.28429 v 0.225189 h -1.28429 z m 3.81063,-0.921871 h 0.33427 v 1.238544 q 0,0.08796 0.0246,0.116113 0.0281,0.02815 0.12315,0.02815 0.0246,0 0.0774,0 0.0528,0 0.11611,0 0.0669,0 0.12315,0 0.0598,0 0.088,0 0.0633,0 0.095,-0.04222 0.0352,-0.04222 0.0493,-0.165374 0.0141,-0.123151 0.0211,-0.369452 0.0352,0.02815 0.088,0.0563 0.0563,0.02463 0.11259,0.04574 0.0598,0.02111 0.10556,0.03519 -0.0176,0.295562 -0.0633,0.460935 -0.0422,0.161856 -0.13371,0.22519 -0.088,0.06685 -0.2463,0.06685 -0.0282,0 -0.095,0 -0.0669,0 -0.14427,0 -0.0774,0 -0.14426,0 -0.0633,0 -0.0915,0 -0.17241,0 -0.27093,-0.04222 -0.095,-0.04222 -0.13371,-0.140743 -0.0352,-0.09852 -0.0352,-0.270932 z m -0.93946,0.01759 h 0.35538 q -0.0246,0.295562 -0.0774,0.555937 -0.0528,0.256857 -0.17241,0.471491 -0.11612,0.211116 -0.33075,0.376489 -0.21463,0.168893 -0.55946,0.285006 -0.0211,-0.04574 -0.0563,-0.102039 -0.0317,-0.05278 -0.0739,-0.105558 -0.0387,-0.04926 -0.0774,-0.08093 0.31667,-0.095 0.50667,-0.232227 0.19001,-0.137225 0.28853,-0.313155 0.0985,-0.179448 0.13722,-0.394082 0.0422,-0.214634 0.0598,-0.460935 z m -0.63335,-1.305397 0.29908,-0.112595 q 0.088,0.133707 0.1689,0.288525 0.0844,0.154818 0.1513,0.306117 0.0668,0.147781 0.095,0.267413 l -0.32019,0.126669 q -0.0282,-0.116113 -0.0915,-0.267413 -0.0598,-0.151299 -0.14074,-0.309636 -0.0774,-0.161855 -0.16186,-0.29908 z m 2.29764,-0.144262 0.34834,0.119632 q -0.0739,0.154818 -0.16185,0.320192 -0.0845,0.161855 -0.16889,0.309636 -0.0809,0.14778 -0.15834,0.256857 l -0.28852,-0.109077 q 0.0739,-0.119632 0.15481,-0.27445 0.0809,-0.158336 0.1513,-0.320191 0.0739,-0.165374 0.12315,-0.302599 z m -2.5756,1.189283 h 3.15969 v 0.316673 h -3.15969 z m 1.39688,-1.319471 h 0.33778 v 1.449659 h -0.33778 z m 2.16745,0.302599 h 3.06821 v 0.306117 h -3.06821 z m 1.34762,-0.302599 h 0.3413 v 0.482047 h -0.3413 z m -1.2104,0.935945 h 2.67765 v 0.292043 h -2.36097 v 2.033745 h -0.31668 z m 2.50524,0 h 0.32019 v 1.94578 q 0,0.130188 -0.0352,0.207597 -0.0352,0.08093 -0.12667,0.119632 -0.095,0.03871 -0.2463,0.04926 -0.14778,0.01056 -0.36241,0.01056 -0.007,-0.04574 -0.0246,-0.105558 -0.0176,-0.0563 -0.0387,-0.116113 -0.0211,-0.05982 -0.0457,-0.102039 0.15834,0.007 0.29556,0.007 0.13723,0 0.18297,0 0.0457,-0.0035 0.0633,-0.01759 0.0176,-0.01759 0.0176,-0.05278 z m -1.61855,0.235746 h 0.29908 q -0.0176,0.221671 -0.0809,0.380007 -0.0633,0.158337 -0.21463,0.263895 -0.14779,0.105557 -0.42224,0.168892 -0.0211,-0.05278 -0.0669,-0.123151 -0.0457,-0.07037 -0.0915,-0.112595 0.22871,-0.04222 0.34834,-0.112595 0.12315,-0.07389 0.16889,-0.186485 0.0493,-0.112595 0.0598,-0.277968 z m 0.65445,0 h 0.28853 v 0.351859 q 0,0.04926 0.0141,0.06333 0.0176,0.01407 0.0774,0.01407 0.0106,0 0.0457,0 0.0352,0 0.0739,0 0.0422,0 0.0774,0 0.0387,0 0.0563,0 0.0317,0 0.0493,-0.01407 0.0176,-0.01407 0.0282,-0.05982 0.0106,-0.04574 0.0141,-0.140743 0.0422,0.02815 0.11612,0.0563 0.0739,0.02815 0.13019,0.0387 -0.0176,0.218153 -0.0845,0.292043 -0.0668,0.07389 -0.21815,0.07389 -0.0176,0 -0.0669,0 -0.0457,0 -0.0985,0 -0.0528,0 -0.0985,0 -0.0457,0 -0.0669,0 -0.13723,0 -0.21112,-0.02815 -0.0739,-0.02815 -0.10204,-0.09852 -0.0246,-0.07037 -0.0246,-0.193523 z m -0.81279,0.837424 h 0.29556 v 1.094281 H 145.762 Z m 0.17945,0 h 1.18224 v 0.890203 h -1.18224 V 32.70474 h 0.87965 v -0.383527 h -0.87965 z m -0.38705,-1.407436 0.32723,-0.0563 q 0.0528,0.08796 0.10556,0.204078 0.0528,0.112595 0.0739,0.197041 l -0.3413,0.07389 q -0.0176,-0.08445 -0.0669,-0.200559 -0.0457,-0.119633 -0.0985,-0.218153 z m 1.39688,-0.06685 0.36594,0.06333 q -0.0598,0.119632 -0.11963,0.228709 -0.0598,0.109076 -0.1126,0.186485 l -0.33075,-0.05982 q 0.0528,-0.08797 0.10556,-0.207597 0.0563,-0.119632 0.0915,-0.211115 z m 1.97745,0.82335 h 2.03023 v 0.207597 h -2.03023 z m 0.35186,-0.422231 h 1.32651 v 0.197041 h -1.32651 z m 0.19,0.82335 h 0.79872 v 0.190004 h -0.79872 z m 0.78465,-0.731867 q 0.0633,0.193523 0.17241,0.369452 0.10908,0.17593 0.25686,0.309636 0.1513,0.133707 0.33075,0.207597 -0.0422,0.03871 -0.0915,0.102039 -0.0493,0.05982 -0.0809,0.109076 -0.19,-0.095 -0.34834,-0.249819 -0.15481,-0.158337 -0.27093,-0.362415 -0.11259,-0.204078 -0.18648,-0.436305 z m -0.49612,-0.485565 0.26037,0.03167 q -0.10203,0.57353 -0.34482,0.967612 -0.23926,0.390564 -0.65094,0.633347 -0.0141,-0.02815 -0.0457,-0.06685 -0.0282,-0.0387 -0.0633,-0.07741 -0.0317,-0.0387 -0.0563,-0.06333 0.38353,-0.204078 0.60168,-0.559456 0.21815,-0.355378 0.29908,-0.865573 z m -0.4539,0.01759 0.23223,0.06333 q -0.0739,0.154818 -0.19001,0.306118 -0.11611,0.151299 -0.23574,0.256857 -0.0282,-0.03167 -0.0915,-0.07389 -0.0598,-0.04574 -0.10555,-0.07037 0.11963,-0.095 0.22167,-0.221671 0.10556,-0.12667 0.16889,-0.260376 z m 0.0422,1.199839 h 0.26742 v 0.629828 q 0,0.07037 0.0352,0.08796 0.0352,0.01759 0.15834,0.01759 0.0282,0 0.10204,0 0.0774,0 0.16889,0 0.095,0 0.17593,0 0.0809,0 0.11963,0 0.0598,0 0.0915,-0.01759 0.0317,-0.01759 0.0457,-0.07389 0.0141,-0.05982 0.0211,-0.168892 0.0422,0.02463 0.10556,0.04926 0.0669,0.02463 0.11963,0.03519 -0.0106,0.154818 -0.0493,0.239264 -0.0352,0.08445 -0.10908,0.116113 -0.0704,0.03167 -0.19704,0.03167 -0.0211,0 -0.0845,0 -0.0633,0 -0.14778,0 -0.0809,0 -0.16185,0 -0.0809,0 -0.14426,0 -0.0598,0 -0.0809,0 -0.16889,0 -0.2639,-0.02463 -0.095,-0.02463 -0.1337,-0.09148 -0.0387,-0.07037 -0.0387,-0.197041 z m 0.97113,-1.083726 0.19705,-0.112595 q 0.0844,0.07389 0.17241,0.165374 0.088,0.08797 0.16185,0.179448 0.0774,0.08797 0.11963,0.161855 l -0.20759,0.130188 q -0.0422,-0.07389 -0.11612,-0.165373 -0.0704,-0.095 -0.15833,-0.186486 -0.0845,-0.095 -0.1689,-0.172411 z m -0.13722,1.083726 h 0.23223 q 0,0 0,0.03167 0,0.02815 -0.004,0.05278 -0.007,0.179448 -0.0246,0.27445 -0.0141,0.095 -0.0493,0.137225 -0.0282,0.03167 -0.0704,0.04574 -0.0387,0.01407 -0.095,0.02111 -0.0422,0 -0.11963,0 -0.0774,0 -0.15834,-0.0035 -0.004,-0.04222 -0.0211,-0.095 -0.0141,-0.05278 -0.0352,-0.08796 0.0774,0.0035 0.14074,0.007 0.0633,0.0035 0.088,0.0035 0.0528,0 0.0739,-0.02463 0.0176,-0.01759 0.0246,-0.09148 0.0105,-0.07389 0.0176,-0.242782 z m -1.72411,-1.615033 h 2.97673 v 3.124508 h -0.32723 v -2.821909 h -2.33283 v 2.821909 h -0.31667 z m 0.20056,2.681166 h 2.62487 v 0.302599 h -2.62487 z"
             id="text5-9-1"
             style="font-weight:500;font-size:3.51859px;line-height:1.25;font-family:'Noto Sans JP';-inkscape-font-specification:'Noto Sans JP Medium';stroke-width:0.125664"
             aria-label="晴光商圈" />
          <path
             style="font-weight:500;font-size:3.51859px;line-height:1.25;font-family:'Noto Sans kr';-inkscape-font-specification:'Noto Sans kr Medium';stroke-width:0.125664"
             d="m 155.37883,30.728313 h 0.29908 v 0.130188 q 0,0.281487 -0.10907,0.527788 -0.10556,0.246301 -0.30964,0.429268 -0.20056,0.179448 -0.4926,0.270932 l -0.17593,-0.288525 q 0.18648,-0.0563 0.33075,-0.151299 0.14778,-0.09852 0.24982,-0.221671 0.10204,-0.12667 0.15481,-0.270932 0.0528,-0.144262 0.0528,-0.295561 z m 0.0633,0 h 0.3026 v 0.130188 q 0,0.140743 0.0528,0.27445 0.0563,0.133706 0.15833,0.24982 0.10204,0.112594 0.24982,0.200559 0.14778,0.08797 0.33427,0.140744 l -0.17241,0.288524 q -0.28853,-0.08093 -0.49612,-0.24982 -0.2076,-0.172411 -0.3202,-0.404638 -0.10907,-0.232226 -0.10907,-0.499639 z m -0.76002,-0.168892 h 1.75226 v 0.292043 h -1.75226 z m 0.69668,-0.365934 h 0.36594 v 0.496121 h -0.36594 z m 1.44614,0 h 0.36946 v 1.956336 h -0.36946 z m -0.70723,2.016152 q 0.33778,0 0.58056,0.07389 0.24631,0.07037 0.37649,0.204078 0.13371,0.130188 0.13371,0.320192 0,0.285005 -0.29204,0.439823 -0.29205,0.154818 -0.79872,0.154818 -0.50316,0 -0.7952,-0.154818 -0.29205,-0.154818 -0.29205,-0.439823 0,-0.281488 0.29205,-0.439824 0.29204,-0.158337 0.7952,-0.158337 z m 0,0.288525 q -0.22519,0 -0.38705,0.03519 -0.16185,0.03518 -0.2463,0.105557 -0.0845,0.06685 -0.0845,0.168893 0,0.151299 0.18649,0.232226 0.19,0.07741 0.53131,0.07741 0.34482,0 0.5313,-0.07741 0.19001,-0.08093 0.19001,-0.232226 0,-0.10204 -0.0844,-0.168893 -0.0844,-0.07037 -0.2463,-0.105557 -0.15834,-0.03519 -0.39056,-0.03519 z m 1.82263,-2.118192 h 1.40391 v 0.299081 h -1.40391 z m 0.44686,0.707237 h 0.36241 v 0.781127 h -0.36241 z m 0.80927,-0.707237 h 0.36242 v 0.190004 q 0,0.154818 -0.0106,0.369452 -0.007,0.214634 -0.0704,0.489084 l -0.3589,-0.02815 q 0.0598,-0.270932 0.0669,-0.471492 0.0105,-0.204078 0.0105,-0.358896 z m 0.74594,-0.190003 h 0.36946 v 1.988003 h -0.36946 z m 0.21464,0.837424 h 0.58057 v 0.309636 h -0.58057 z m -2.36801,0.971131 -0.0422,-0.302599 q 0.29205,0 0.63335,-0.0035 0.3413,-0.0035 0.68964,-0.02463 0.35186,-0.02111 0.67557,-0.05982 l 0.0246,0.263895 q -0.33074,0.05278 -0.67908,0.08093 -0.34834,0.02815 -0.68261,0.03871 -0.33427,0.007 -0.61927,0.007 z m 1.46373,0.218152 q 0.33779,0 0.58057,0.07037 0.2463,0.07037 0.37649,0.204078 0.1337,0.130188 0.1337,0.316674 0,0.186485 -0.1337,0.316673 -0.13019,0.133706 -0.37649,0.204078 -0.24278,0.07389 -0.58057,0.07389 -0.33075,0 -0.57705,-0.07389 -0.24278,-0.07037 -0.37649,-0.204078 -0.13019,-0.130188 -0.13019,-0.316673 0,-0.186486 0.13019,-0.316674 0.13371,-0.133706 0.37649,-0.204078 0.2463,-0.07037 0.57705,-0.07037 z m 0,0.285006 q -0.33427,0 -0.52427,0.08093 -0.18648,0.07741 -0.18648,0.22519 0,0.14778 0.18648,0.225189 0.19,0.07741 0.52427,0.07741 0.33779,0 0.52427,-0.07741 0.18649,-0.07741 0.18649,-0.225189 0,-0.147781 -0.18649,-0.22519 -0.18648,-0.08093 -0.52427,-0.08093 z m 3.49748,-2.139302 h 0.30612 v 0.309635 q 0,0.313155 -0.10556,0.587605 -0.10204,0.270931 -0.3026,0.47501 -0.19704,0.204078 -0.47853,0.306117 l -0.19704,-0.292043 q 0.25334,-0.08797 0.42575,-0.253339 0.17593,-0.165373 0.2639,-0.376489 0.088,-0.214634 0.088,-0.446861 z m 0.0739,0 h 0.29908 v 0.341303 q 0,0.154818 0.0493,0.302598 0.0493,0.144263 0.14426,0.27445 0.0985,0.12667 0.23927,0.22519 0.14074,0.09852 0.32019,0.158337 l -0.19352,0.288524 q -0.27093,-0.09852 -0.46446,-0.285006 -0.19,-0.186485 -0.29204,-0.432786 -0.10204,-0.24982 -0.10204,-0.531307 z m 1.32299,-0.168893 h 0.36594 v 1.928187 h -0.36594 z m 0.26741,0.791683 h 0.55242 v 0.306117 h -0.55242 z m -0.93594,1.217432 q 0.33427,0 0.57001,0.07037 0.23927,0.07037 0.36945,0.207597 0.13019,0.133706 0.13019,0.32371 0,0.186485 -0.13019,0.320192 -0.13018,0.137225 -0.36945,0.207596 -0.23574,0.07037 -0.57001,0.07037 -0.33075,0 -0.57353,-0.07037 -0.23926,-0.07037 -0.36945,-0.207596 -0.12667,-0.133707 -0.12667,-0.320192 0,-0.190004 0.12667,-0.32371 0.13019,-0.137225 0.36945,-0.207597 0.24278,-0.07037 0.57353,-0.07037 z m 0,0.288524 q -0.22167,0 -0.38001,0.03519 -0.15833,0.03519 -0.24278,0.105558 -0.0845,0.07037 -0.0845,0.172411 0,0.09852 0.0845,0.168892 0.0845,0.07037 0.24278,0.109077 0.15834,0.03518 0.38001,0.03518 0.22519,0 0.38001,-0.03518 0.15833,-0.03871 0.24278,-0.109077 0.0845,-0.07037 0.0845,-0.168892 0,-0.102039 -0.0845,-0.172411 -0.0845,-0.07037 -0.24278,-0.105558 -0.15482,-0.03519 -0.38001,-0.03519 z m 3.48692,-1.523549 h 0.66854 v 0.302599 h -0.66854 z m 0.57001,-0.77409 h 0.36946 v 1.868371 h -0.36946 z m -1.7417,2.016152 h 2.11116 v 1.157616 h -2.11116 z m 1.75226,0.288525 h -1.38984 v 0.577048 h 1.38984 z m -1.52003,-2.005597 h 0.3026 v 0.235746 q 0,0.295561 -0.10908,0.562974 -0.10556,0.263895 -0.30612,0.460936 -0.20055,0.197041 -0.48556,0.29908 l -0.19,-0.292043 q 0.19,-0.06685 0.33426,-0.172411 0.14778,-0.105558 0.24982,-0.242783 0.10204,-0.140743 0.1513,-0.295561 0.0528,-0.158337 0.0528,-0.320192 z m 0.0739,0 h 0.29908 v 0.235746 q 0,0.197041 0.088,0.387045 0.088,0.190004 0.25686,0.341303 0.16889,0.151299 0.41168,0.235746 l -0.18297,0.288524 q -0.27797,-0.095 -0.47501,-0.285006 -0.19352,-0.190004 -0.29556,-0.439824 -0.10204,-0.253338 -0.10204,-0.527788 z M 165.347,30.379972 h 1.72059 v 0.295562 H 165.347 Z m 5.25326,-0.190003 h 0.36945 v 3.215991 h -0.36945 z m 0.27445,1.270211 h 0.58056 v 0.306117 h -0.58056 z m -1.10484,-0.928908 h 0.3589 q 0,0.467972 -0.14427,0.893722 -0.14074,0.42223 -0.46093,0.777608 -0.31668,0.355378 -0.84446,0.619272 l -0.20408,-0.281487 q 0.4363,-0.22519 0.72131,-0.513714 0.28852,-0.288525 0.42927,-0.647421 0.14426,-0.358896 0.14426,-0.788164 z m -1.13299,0 h 1.32299 v 0.29908 h -1.32299 z"
             id="text5-9-1-0"
             aria-label="칭광 상점가" />
          <path
             id="rect2"
             style="stroke-width:0.821704"
             d="m 132.9724,15.158131 h 1.13854 V 33.33456 h -1.13854 z" />
        </g>
      </g>
    </g>
    <text
       xml:space="preserve"
       transform="matrix(0.31615295,0,0,0.31615295,-10.474341,-6.4462013)"
       id="text6"
       style="font-size:55px;line-height:1.25;font-family:'Microsoft JhengHei';-inkscape-font-specification:'Microsoft JhengHei';white-space:pre;shape-inside:url(#rect6);display:inline" />
  </g>
</svg>
