<?xml version="1.0" encoding="UTF-8" standalone="no"?>
<!-- Created with Inkscape (http://www.inkscape.org/) -->

<svg
   width="500"
   height="250"
   viewBox="0 0 132.29166 66.145833"
   version="1.1"
   id="svg1"
   inkscape:version="1.3.2 (091e20e, 2023-11-25, custom)"
   sodipodi:docname="o11.svg"
   xmlns:inkscape="http://www.inkscape.org/namespaces/inkscape"
   xmlns:sodipodi="http://sodipodi.sourceforge.net/DTD/sodipodi-0.dtd"
   xmlns="http://www.w3.org/2000/svg"
   xmlns:svg="http://www.w3.org/2000/svg">
  <sodipodi:namedview
     id="namedview1"
     pagecolor="#9e652e"
     bordercolor="#ffffff"
     borderopacity="1"
     inkscape:showpageshadow="0"
     inkscape:pageopacity="0"
     inkscape:pagecheckerboard="false"
     inkscape:deskcolor="#d1d1d1"
     inkscape:document-units="mm"
     inkscape:zoom="2.0208096"
     inkscape:cx="225.15728"
     inkscape:cy="106.88785"
     inkscape:window-width="1920"
     inkscape:window-height="1009"
     inkscape:window-x="1912"
     inkscape:window-y="-8"
     inkscape:window-maximized="1"
     inkscape:current-layer="g1" />
  <defs
     id="defs1">
    <rect
       x="560.66638"
       y="34.144731"
       width="279.32397"
       height="128.59143"
       id="rect6" />
    <rect
       x="157.85752"
       y="62.351248"
       width="329.07603"
       height="135.09437"
       id="rect4" />
    <rect
       x="157.85751"
       y="62.35125"
       width="329.07602"
       height="135.09438"
       id="rect4-5" />
  </defs>
  <g
     inkscape:label="Layer 1"
     inkscape:groupmode="layer"
     id="layer1">
    <rect
       style="fill:#f4eed7;fill-opacity:1;stroke:none;stroke-width:0.953294;stroke-dasharray:none"
       id="rect5"
       width="132.29167"
       height="66.145836"
       x="-2.5431316e-06"
       y="-1.2715658e-06"
       ry="0" />
    <g
       id="g1"
       transform="translate(23.824458)"
       style="fill:#000000">
      <g
         id="g2"
         transform="translate(-18.92485)">
        <path
           id="rect1"
           style="fill:none;fill-opacity:0;stroke:#000000;stroke-width:0.942789"
           d="m 15.91309,14.352791 h 12.425164 c 3.927062,0 7.088559,3.161497 7.088559,7.088559 v 23.263136 c 0,3.927062 -3.161497,7.088559 -7.088559,7.088559 H 15.91309 c -3.927061,0 -7.0885584,-3.161497 -7.0885584,-7.088559 V 21.44135 c 0,-3.927062 3.1614974,-7.088559 7.0885584,-7.088559 z" />
        <path
           style="font-size:12.8597px;line-height:1.25;font-family:'AR UDJingXiHeiE1G30 EB';-inkscape-font-specification:'AR UDJingXiHeiE1G30 EB';stroke-width:0.26791"
           d="m 26.768042,25.4975 q 0,2.237587 -1.247391,3.510698 -1.234531,1.26025 -3.382101,1.26025 -2.186149,0 -3.420681,-1.27311 -1.234531,-1.27311 -1.234531,-3.497838 0,-2.263308 1.247391,-3.549278 1.247391,-1.298829 3.407821,-1.298829 2.186149,0 3.40782,1.28597 1.221672,1.28597 1.221672,3.562137 z m -4.629492,3.497838 q 1.401707,0 2.160429,-0.925898 0.771582,-0.925899 0.771582,-2.57194 0,-1.633182 -0.771582,-2.59766 -0.771582,-0.977337 -2.160429,-0.977337 -1.414567,0 -2.199009,0.990197 -0.771582,0.977337 -0.771582,2.5848 0,1.646041 0.784442,2.57194 0.784441,0.925898 2.186149,0.925898 z"
           id="text2"
           aria-label="O" />
        <path
           style="font-size:14.3917px;line-height:1.25;font-family:'AR UDJingXiHeiE1G30 EB';-inkscape-font-specification:'AR UDJingXiHeiE1G30 EB';stroke-width:0.261667"
           d="m 17.21808,36.584172 -1.683829,1.568695 -0.834718,-1.280861 2.705639,-2.460981 h 1.568695 V 44.816224 H 17.21808 Z m 8.563051,0 -1.683829,1.568695 -0.834718,-1.280861 2.705639,-2.460981 h 1.568696 v 10.405199 h -1.755788 z"
           id="text3"
           aria-label="11" />
        <path
           style="font-weight:500;font-size:72px;line-height:1.25;font-family:'Noto Sans TC';-inkscape-font-specification:'Noto Sans TC Medium';white-space:pre"
           d="m 190.68942,99.225406 h 6.984 q 0.36,7.056004 2.016,13.392004 1.728,6.264 4.248,11.088 2.592,4.824 5.544,7.56 3.024,2.664 5.976,2.664 1.584,0 2.232,-2.448 0.648,-2.448 0.936,-7.992 1.152,1.008 2.88,1.944 1.728,0.864 3.096,1.296 -0.504,5.616 -1.656,8.64 -1.08,3.024 -3.024,4.176 -1.872,1.152 -4.752,1.152 -4.896,0 -9.144,-3.312 -4.248,-3.312 -7.56,-9.072 -3.24,-5.76 -5.256,-13.248 -2.016,-7.488 -2.52,-15.840004 z m -21.024,10.800004 h 53.496 v 6.336 h -53.496 z m 0,-31.824004 h 48.24 v 22.032004 h -48.24 v -6.336004 h 41.328 v -9.36 h -41.328 z m -3.96,63.648004 -0.504,-5.904 3.312,-2.448 23.472,-6.048 q 0,0.936 0.072,2.16 0.144,1.152 0.288,2.304 0.216,1.152 0.36,1.944 -6.552,1.8 -11.016,3.024 -4.464,1.296 -7.344,2.088 -2.88,0.792 -4.608,1.296 -1.656,0.504 -2.52,0.864 -0.864,0.36 -1.512,0.72 z m 0,0 q -0.288,-0.864 -0.864,-2.088 -0.504,-1.152 -1.152,-2.232 -0.576,-1.08 -1.152,-1.728 1.152,-0.648 2.304,-2.016 1.152,-1.44 1.152,-3.744 V 78.201406 h 7.056 v 57.096004 q 0,0 -0.72,0.432 -0.72,0.432 -1.8,1.08 -1.08,0.72 -2.232,1.584 -1.152,0.864 -1.872,1.728 -0.72,0.936 -0.72,1.728 z m 89.928,-61.848004 h 14.328 v 5.112 h -14.328 z m 27.504,0 h 16.128 v 5.112 h -16.128 z m -15.336,-5.328 h 5.904 v 13.68 h -5.904 z m 12.456,0 h 5.976 v 13.536 h -5.976 z m 3.6,19.368 v 5.472 h 7.056 v -5.472 z m -5.112,-4.32 h 17.424 v 14.184004 h -17.424 z m -15.552,4.32 v 5.472 h 6.912 v -5.472 z m -5.04,-4.32 h 17.208 v 14.184004 h -17.208 z m 5.328,27.792004 h 31.032 v 4.536 h -31.032 z m 0,8.208 h 31.032 v 4.608 h -31.032 z m -0.36,8.352 h 35.64 v 4.968 h -35.64 z m 12.528,-21.96 h 5.904 v 25.488 h -5.904 z m -9.504,-2.664 h 31.176 v 4.392 h -31.176 v 27.648 h -6.048 v -29.16 l 2.808,-2.88 z m -1.8,-6.408 5.544,1.8 q -2.448,5.256 -6.048,10.224 -3.6,4.896 -7.488,8.208 -0.216,-0.648 -0.864,-1.656 -0.576,-1.08 -1.296,-2.16 -0.648,-1.08 -1.224,-1.728 3.384,-2.736 6.408,-6.624 3.096,-3.888 4.968,-8.064 z m 9.864,2.808 5.832,-1.584 q 0.864,1.872 1.584,4.104 0.792,2.16 1.224,3.744 l -6.048,1.872 q -0.36,-1.584 -1.152,-3.888 -0.72,-2.376 -1.44,-4.248 z m -40.608,-17.496004 h 22.752 v 6.336 h -22.752 z m 9.432,-13.68 h 5.976 v 66.744004 h -5.976 z m -0.432,18.072 3.6,1.656 q -0.792,4.176 -1.944,8.784004 -1.152,4.536 -2.664,9 -1.44,4.392 -3.096,8.28 -1.656,3.816 -3.456,6.624 -0.288,-1.008 -0.864,-2.232 -0.576,-1.296 -1.224,-2.52 -0.576,-1.224 -1.152,-2.088 1.728,-2.304 3.312,-5.544 1.584,-3.312 3.024,-7.056 1.44,-3.744 2.592,-7.56 1.152,-3.816004 1.872,-7.344004 z m 6.192,5.184 q 0.576,0.648 1.656,2.232004 1.152,1.512 2.448,3.384 1.368,1.872 2.448,3.456 1.08,1.584 1.512,2.304 l -3.744,4.752 q -0.576,-1.296 -1.512,-3.168 -0.936,-1.872 -2.088,-3.888 -1.08,-2.088 -2.088,-3.816 -1.008,-1.8 -1.656,-2.88 z m 64.656,32.688004 h 49.392 v 6.264 h -49.392 z m -3.888,-35.712004 h 57.24 v 46.152004 h -6.84 v -39.888 h -43.776 v 40.032 h -6.624 z m -3.744,-15.912 h 63.936 v 6.624 h -63.936 z m 21.024,4.104 h 6.12 v 15.84 q 0,4.104004 -1.008,8.424004 -0.936,4.248 -3.96,8.136 -2.952,3.816 -8.712,6.624 -0.36,-0.72 -1.152,-1.656 -0.72,-0.936 -1.584,-1.8 -0.792,-0.936 -1.44,-1.44 5.256,-2.376 7.776,-5.4 2.52,-3.096 3.24,-6.408 0.72,-3.312 0.72,-6.624004 z m 15.336,-0.072 h 6.48 v 27.864004 q 0,1.656 0.432,2.088 0.432,0.36 2.16,0.36 0.36,0 1.296,0 1.008,0 2.232,0 1.224,0 2.232,0 1.08,0 1.584,0 0.936,0 1.296,-0.072 0.36,-0.144 0.504,-0.36 1.008,0.72 2.664,1.44 1.656,0.648 3.168,0.936 -0.648,2.52 -2.304,3.528 -1.584,0.936 -4.68,0.936 -0.504,0 -1.8,0 -1.296,0 -2.736,0 -1.44,0 -2.664,0 -1.224,0 -1.728,0 -3.312,0 -5.112,-0.792 -1.728,-0.792 -2.376,-2.664 -0.648,-1.944 -0.648,-5.328 z m 70.272,49.824004 h 23.328 v 5.904 h -23.328 z m 3.384,-51.048004 h 18.648 v 5.832 h -18.648 z m -6.048,33.264004 h 28.944 v 26.064 h -6.552 v -20.304 h -16.128 v 20.52 h -6.264 z m 22.32,-33.264004 h 1.224 l 1.224,-0.288 4.32,1.872 q -2.016,6.696 -5.328,12.24 -3.312,5.544004 -7.56,10.008004 -4.248,4.392 -9.216,7.704 -4.896,3.312 -10.152,5.544 -0.648,-1.152 -1.8,-2.664 -1.08,-1.584 -2.088,-2.448 4.752,-1.8 9.288,-4.752 4.608,-3.024 8.568,-6.984 3.96,-3.960004 6.912,-8.784004 2.952,-4.824 4.608,-10.296 z m -15.48,-7.2 6.48,1.584 q -1.584,4.896 -3.816,9.504 -2.232,4.608 -4.968,8.568 -2.664,3.888 -5.688,6.912004 -0.504,-0.648 -1.512,-1.440004 -0.936,-0.864 -2.016,-1.656 -1.008,-0.864 -1.728,-1.368 4.32,-3.888 7.776,-9.72 3.528,-5.904 5.472,-12.384 z m -0.72,10.656 q 1.584,3.744 4.104,7.704 2.592,3.96 6.12,7.632004 3.6,3.672 8.136,6.696 4.536,3.024 10.08,4.968 -0.648,0.648 -1.512,1.728 -0.792,1.008 -1.512,2.088 -0.72,1.008 -1.224,1.944 -5.544,-2.304 -10.152,-5.688 -4.536,-3.384 -8.136,-7.416 -3.528,-4.032 -6.192,-8.208004 -2.592,-4.248 -4.248,-8.136 z m -36.216,21.240004 h 5.616 v 26.136 h -5.616 z m 6.264,-23.112004 v 11.16 h 11.736 v -11.16 z m -6.048,-5.832 h 24.12 v 22.896004 h -24.12 z m 10.152,20.304 h 6.12 v 32.544004 h -6.12 z m -13.824,33.912004 q 3.672,-0.72 8.424,-1.728 4.752,-1.008 10.008,-2.232 5.328,-1.224 10.584,-2.448 l 0.648,6.048 q -7.56,1.872 -15.12,3.744 -7.488,1.8 -13.392,3.168 z m 16.128,-21.744 h 12.312 v 5.976 h -12.312 z"
           id="text4"
           transform="matrix(0.26166763,0,0,0.26166763,-2.1314997,-4.0633201)"
           aria-label="民權西路" />
        <path
           style="font-size:7.32669px;line-height:1.25;font-family:'AR UDJingXiHeiE1G30 EB';-inkscape-font-specification:'AR UDJingXiHeiE1G30 EB';stroke-width:0.261667"
           d="m 41.293131,37.069213 v 3.817206 h -0.901183 v -5.297197 h 1.179597 l 1.523952,4.110273 1.465338,-4.110273 h 1.208903 v 5.297197 h -0.908509 v -3.846513 l -1.377418,3.846513 h -0.783956 z m 6.623325,-1.479991 v 5.297197 h -0.93049 v -5.297197 z m 2.146715,1.472664 v 3.824533 h -0.93049 v -5.297197 h 0.959796 l 2.600975,3.912452 v -3.912452 h 0.93049 v 5.297197 h -1.01841 z m 9.129051,3.231071 0.652075,0.542175 -0.468908,0.549502 -0.798609,-0.674056 q -0.271087,0.131881 -0.600789,0.197821 -0.322374,0.07327 -0.681382,0.07327 -1.245537,0 -1.948899,-0.725343 -0.703363,-0.725342 -0.703363,-1.992859 0,-1.289498 0.710689,-2.022167 0.710689,-0.739996 1.941573,-0.739996 1.245538,0 1.941573,0.732669 0.696036,0.732669 0.696036,2.029494 0,0.652075 -0.190494,1.164943 -0.190494,0.512869 -0.549502,0.86455 z m -1.897613,-4.066313 q -0.805936,0 -1.252864,0.564155 -0.439601,0.556828 -0.439601,1.472665 0,0.937816 0.446928,1.465338 0.446928,0.527521 1.245537,0.527521 0.175841,0 0.329701,-0.02931 0.161188,-0.02931 0.300395,-0.08792 l -0.564155,-0.476235 0.498214,-0.534848 0.666729,0.564155 q 0.212474,-0.241781 0.322375,-0.600788 0.117227,-0.366335 0.117227,-0.827916 0,-0.93049 -0.439602,-1.479992 -0.439601,-0.556828 -1.230884,-0.556828 z m 8.088667,2.806122 q 0,0.923163 -0.578809,1.436031 -0.578809,0.512869 -1.648505,0.512869 -1.08435,0 -1.670486,-0.505542 -0.578808,-0.505542 -0.578808,-1.436031 v -3.450871 h 0.930489 v 3.406911 q 0,0.600788 0.329702,0.930489 0.329701,0.329701 0.989103,0.329701 0.622768,0 0.952469,-0.315047 0.337028,-0.322375 0.337028,-0.959797 v -3.392257 h 0.937817 z m 4.000375,-0.285741 -0.835243,-2.263947 -0.849896,2.263947 z m -1.956227,0.725343 -0.527521,1.414051 H 65.95476 l 2.132066,-5.297197 h 0.95247 l 2.117414,5.297197 h -0.967123 l -0.534849,-1.414051 z m 5.267883,-2.410482 v 3.824533 h -0.93049 v -5.297197 h 0.959797 l 2.600975,3.912452 v -3.912452 h 0.930489 v 5.297197 h -1.01841 z m 9.517359,-0.24178 -1.069696,4.066313 h -0.959797 l -1.362764,-5.297197 h 0.989103 l 0.886529,4.015026 1.033064,-4.015026 h 0.981776 l 1.01841,4.015026 0.937817,-4.015026 h 0.959796 l -1.399398,5.297197 H 83.26771 Z m 5.136007,2.989289 v 1.077024 h -1.10633 v -1.077024 z m 6.440158,-2.703548 q 0,-0.388315 -0.205148,-0.586136 -0.205147,-0.205147 -0.593461,-0.205147 H 91.40033 v 1.648505 h 1.538605 q 0.380988,0 0.615442,-0.227127 0.234454,-0.227127 0.234454,-0.630095 z m -2.388501,1.575238 v 2.205334 h -0.93049 v -5.297197 h 2.696222 q 0.725342,0 1.15029,0.388314 0.432275,0.380988 0.432275,1.08435 0,0.461582 -0.2198,0.791283 -0.212475,0.329701 -0.534849,0.468908 0.410295,0.234454 0.630095,0.813263 0.219801,0.578808 0.278415,1.751079 h -0.967123 q -0.04396,-1.230884 -0.271088,-1.714446 -0.219801,-0.490888 -0.710689,-0.490888 z m 8.93857,-0.505542 q 0,1.318805 -0.622771,2.01484 -0.615442,0.696036 -1.721773,0.696036 h -2.1687 v -5.297197 h 2.1687 q 1.106331,0 1.721773,0.652075 0.622771,0.652076 0.622771,1.934246 z m -0.967126,0 q 0,-0.959796 -0.395641,-1.406724 -0.388315,-0.454255 -1.135637,-0.454255 h -1.08435 v 3.846512 h 1.091677 q 0.718015,0 1.120983,-0.476234 0.402968,-0.476235 0.402968,-1.509299 z m 3.069876,1.633852 v 1.077024 h -1.10633 v -1.077024 z"
           id="text5"
           aria-label="MINQUAN W. RD." />
        <path
           d="M 43.288385,45.923105 H 44.0064 q 0.03663,0.732669 0.205148,1.384744 0.17584,0.652076 0.432274,1.157617 0.263761,0.498215 0.564156,0.783956 0.307721,0.278414 0.608115,0.271088 0.15386,0 0.219801,-0.249108 0.07327,-0.249107 0.102573,-0.827916 0.117227,0.109901 0.285741,0.205148 0.175841,0.08792 0.322375,0.13188 -0.05129,0.571482 -0.168514,0.879203 -0.117227,0.315048 -0.307721,0.432275 -0.190494,0.117227 -0.490889,0.117227 -0.498214,0 -0.930489,-0.344355 -0.432275,-0.337028 -0.769303,-0.930489 -0.329701,-0.600789 -0.534848,-1.370091 -0.205147,-0.77663 -0.256434,-1.641179 z m -2.139394,1.025737 h 5.436404 v 0.644748 h -5.436404 z m -1.12831,2.432461 q 0.446928,-0.05129 1.047717,-0.124554 0.600788,-0.07327 1.26019,-0.161187 0.666729,-0.08792 1.326131,-0.175841 l 0.02198,0.681382 q -0.615442,0.08792 -1.245537,0.175841 -0.630095,0.09525 -1.208904,0.175841 -0.578808,0.08059 -1.055043,0.146533 z m 0.769302,-5.612245 h 0.710689 v 5.846699 h -0.710689 z m 0.351682,0 h 4.908882 v 2.293254 h -4.908882 v -0.644749 h 4.20552 v -1.003756 h -4.20552 z m 9.510043,0.359008 h 3.187111 v 0.586135 h -3.187111 z m 0.293068,3.414237 h 2.835429 v 0.468909 h -2.835429 z m 0.0073,0.945143 h 2.835429 v 0.454255 h -2.835429 z m -0.07327,0.95247 h 3.172457 v 0.527522 H 50.878836 Z M 49.831119,45.38093 h 4.212847 v 0.593462 h -4.212847 z m 2.542362,0.571482 0.681382,0.13188 q -0.124554,0.241781 -0.256434,0.476235 -0.131881,0.227127 -0.241781,0.395641 l -0.586135,-0.13188 q 0.1099,-0.183167 0.2198,-0.432275 0.117227,-0.249107 0.183168,-0.439601 z m -0.344355,0.967123 h 0.622769 v 2.769489 h -0.622769 z m -0.879203,-0.329701 h 2.776816 v 0.498215 h -2.776816 v 3.113843 h -0.644748 v -3.18711 l 0.417621,-0.424948 z m -0.432274,-3.216417 0.637422,0.146534 q -0.161187,0.534848 -0.424948,1.033063 -0.263761,0.498215 -0.556829,0.842569 -0.05129,-0.05129 -0.15386,-0.117227 -0.102574,-0.07327 -0.212474,-0.139207 -0.102574,-0.06594 -0.183168,-0.102574 0.300395,-0.307721 0.527522,-0.747322 0.234454,-0.446928 0.366335,-0.915836 z m 0.798609,1.003756 0.652075,0.146534 q -0.337027,1.120984 -0.901183,2.0588 -0.564155,0.937816 -1.296824,1.560585 -0.04396,-0.07327 -0.13188,-0.168514 -0.08792,-0.09525 -0.183167,-0.190494 -0.09525,-0.102573 -0.168514,-0.15386 0.710689,-0.542175 1.223557,-1.392071 0.520195,-0.849896 0.805936,-1.86098 z m -4.176214,0.593462 h 2.395828 v 0.644749 h -2.395828 z m 0.967124,-1.560585 h 0.630095 v 6.791842 h -0.630095 z m -0.01465,1.97088 0.402968,0.139207 q -0.08059,0.432275 -0.205147,0.901183 -0.124554,0.468908 -0.278414,0.923163 -0.153861,0.454255 -0.337028,0.842569 -0.175841,0.388315 -0.366335,0.666729 -0.05129,-0.139207 -0.15386,-0.315048 -0.09525,-0.17584 -0.175841,-0.293067 0.175841,-0.241781 0.344355,-0.578809 0.17584,-0.337028 0.322374,-0.718015 0.146534,-0.388315 0.256434,-0.791283 0.117227,-0.402968 0.190494,-0.776629 z m 0.586135,0.322374 q 0.06594,0.07327 0.197821,0.249108 0.139207,0.168514 0.285741,0.373661 0.15386,0.197821 0.278414,0.373661 0.124554,0.168514 0.175841,0.249108 l -0.366335,0.505541 q -0.06594,-0.139207 -0.183167,-0.337028 -0.1099,-0.205147 -0.241781,-0.424948 -0.124554,-0.2198 -0.241781,-0.410294 -0.117227,-0.190494 -0.19782,-0.300395 z m 6.586695,3.399584 h 5.09205 v 0.637423 h -5.09205 z M 55.018416,45.46885 h 5.934619 v 4.696409 h -0.696036 v -4.058987 h -4.564528 v 4.07364 h -0.674055 z m 3.340971,0.278414 h 0.666728 v 1.450685 q 0,0.124554 0.02931,0.161187 0.03663,0.02931 0.161187,0.02931 0.03663,0 0.131881,0 0.102573,0 0.212474,0 0.1099,0 0.146534,0 0.08059,0 0.117227,-0.02931 0.03663,-0.03663 0.05129,-0.139207 0.02198,-0.102574 0.02931,-0.315048 0.06594,0.05129 0.168514,0.102574 0.102574,0.04396 0.212474,0.08059 0.1099,0.03663 0.205147,0.06594 -0.03663,0.329701 -0.117227,0.520195 -0.08059,0.183167 -0.2198,0.256434 -0.139207,0.07327 -0.359008,0.07327 -0.05129,0 -0.146534,0 -0.09525,0 -0.205147,0 -0.102574,0 -0.197821,0 -0.08792,0 -0.13188,0 -0.307721,0 -0.468909,-0.07327 -0.161187,-0.07327 -0.227127,-0.249107 -0.05861,-0.175841 -0.05861,-0.483562 z m -3.648692,-1.897612 h 6.506101 v 0.674055 h -6.506101 z m 2.03682,0.490888 h 0.681382 v 1.494645 h -0.681382 z m 1.619198,0 h 0.696036 v 1.494645 h -0.696036 z m -1.582565,1.282171 h 0.644749 v 0.718015 q 0,0.351681 -0.102574,0.732669 -0.09525,0.373661 -0.373661,0.725343 -0.271088,0.344354 -0.798609,0.615442 -0.04396,-0.06594 -0.139207,-0.153861 -0.08792,-0.08792 -0.183168,-0.168514 -0.09525,-0.08792 -0.168513,-0.13188 0.483561,-0.234454 0.718015,-0.505542 0.241781,-0.278414 0.322375,-0.564155 0.08059,-0.293068 0.08059,-0.564155 z m 8.777375,3.707305 h 2.373847 v 0.600788 h -2.373847 z m 0.344354,-5.194623 h 1.897613 v 0.593461 h -1.897613 z m -0.615442,3.38493 h 2.945329 v 2.652262 h -0.666728 v -2.066126 h -1.641179 v 2.088106 h -0.637422 z m 2.271274,-3.38493 h 0.124554 l 0.124553,-0.02931 0.439602,0.190494 q -0.205147,0.681382 -0.542175,1.245537 -0.337028,0.564155 -0.769303,1.01841 -0.432274,0.446928 -0.937816,0.783956 -0.498215,0.337028 -1.033063,0.564155 -0.06594,-0.117227 -0.183168,-0.271088 -0.1099,-0.161187 -0.212474,-0.249107 0.483562,-0.183167 0.945143,-0.483562 0.468909,-0.307721 0.871877,-0.710689 0.402967,-0.402968 0.703362,-0.893856 0.300394,-0.490888 0.468908,-1.047716 z m -1.575238,-0.73267 0.659402,0.161188 q -0.161188,0.498215 -0.388315,0.967123 -0.227127,0.468908 -0.505542,0.871876 -0.271087,0.395641 -0.578808,0.703362 -0.05129,-0.06594 -0.153861,-0.146534 -0.09525,-0.08792 -0.205147,-0.168514 -0.102574,-0.08792 -0.17584,-0.139207 0.439601,-0.395641 0.791282,-0.989103 0.359008,-0.600788 0.556829,-1.260191 z m -0.07327,1.084351 q 0.161187,0.380988 0.417621,0.783955 0.263761,0.402968 0.622769,0.77663 0.366334,0.373661 0.827916,0.681382 0.461581,0.307721 1.025736,0.505541 -0.06594,0.06594 -0.15386,0.175841 -0.08059,0.102574 -0.153861,0.212474 -0.07327,0.102574 -0.124553,0.197821 -0.564156,-0.234454 -1.033064,-0.578809 -0.461581,-0.344354 -0.827916,-0.754649 -0.359008,-0.410295 -0.630095,-0.835243 -0.263761,-0.432274 -0.432275,-0.827916 z m -3.685326,2.161373 h 0.571482 v 2.659589 h -0.571482 z m 0.637423,-2.351867 v 1.135637 h 1.19425 V 44.29658 Z M 62.249859,43.703118 H 64.7043 v 2.329887 h -2.454441 z m 1.033063,2.066126 h 0.622769 v 3.311664 h -0.622769 z m -1.406725,3.450872 q 0.373662,-0.07327 0.857223,-0.175841 0.483562,-0.102574 1.01841,-0.227127 0.542175,-0.124554 1.077024,-0.249108 l 0.06594,0.615442 q -0.769303,0.190494 -1.538605,0.380988 -0.761976,0.183167 -1.362765,0.322374 z m 1.641179,-2.212661 h 1.252864 v 0.608115 h -1.252864 z"
           id="text5-9"
           style="font-weight:500;font-size:7.32669px;line-height:1.25;font-family:'Noto Sans JP';-inkscape-font-specification:'Noto Sans JP Medium';stroke-width:0.261667"
           aria-label="民権西路" />
        <path
           style="font-weight:500;font-size:7.32669px;line-height:1.25;font-family:'Noto Sans KR';-inkscape-font-specification:'Noto Sans KR Medium';stroke-width:0.261667"
           d="M 75.757943,44.141675 H 78.9304 v 3.179783 h -3.172457 z m 2.425135,0.615442 h -1.677812 v 1.948899 h 1.677812 z m 1.978206,-1.164944 h 0.769302 v 4.791655 h -0.769302 z m -3.597405,5.883332 h 4.557201 v 0.622769 h -4.557201 z m 0,-1.538605 h 0.761976 v 1.809693 h -0.761976 z m 7.414611,-3.135823 h 0.622769 v 0.08792 q 0,0.490888 -0.219801,0.90851 -0.212474,0.417621 -0.630095,0.710689 -0.410295,0.293067 -1.011083,0.432274 l -0.315048,-0.600788 q 0.498215,-0.1099 0.842569,-0.322374 0.344355,-0.212474 0.527522,-0.505542 0.183167,-0.293068 0.183167,-0.622769 z m 0.146534,0 h 0.622769 v 0.08792 q 0,0.307721 0.17584,0.578809 0.183168,0.271087 0.527522,0.476235 0.344355,0.19782 0.835243,0.300394 l -0.307721,0.593462 q -0.593462,-0.124554 -1.011083,-0.402968 -0.410295,-0.285741 -0.630096,-0.681382 -0.212474,-0.395642 -0.212474,-0.86455 z m -1.545931,-0.498215 h 3.568098 v 0.600789 H 82.579093 Z M 83.97849,43.5995 h 0.769303 v 1.120983 H 83.97849 Z m 0,3.809879 h 0.77663 v 2.674242 h -0.77663 z m 2.952656,-3.817206 h 0.761976 v 6.696595 h -0.761976 z m -4.681755,4.366707 -0.09525,-0.637422 q 0.622769,0 1.355438,-0.0073 0.739996,-0.01465 1.501972,-0.05861 0.769302,-0.04396 1.479991,-0.139207 l 0.05129,0.556829 q -0.732669,0.13188 -1.494645,0.190493 -0.754649,0.05861 -1.472665,0.08059 -0.710689,0.01465 -1.326131,0.01465 z m 11.107264,-4.374034 h 0.761975 v 4.908883 h -0.761975 z m 0.534848,1.985533 h 1.17227 v 0.637422 h -1.17227 z m -4.0077,3.956413 h 4.513242 v 0.622769 h -4.513242 z m 0,-1.538605 h 0.769303 v 1.809693 h -0.769303 z m 0.871877,-3.949086 q 0.505541,0 0.908509,0.219801 0.402968,0.212474 0.637422,0.593462 0.234454,0.373661 0.234454,0.864549 0,0.483562 -0.234454,0.86455 -0.234454,0.373661 -0.637422,0.593462 -0.402968,0.212474 -0.908509,0.212474 -0.498215,0 -0.901183,-0.212474 -0.402968,-0.219801 -0.637422,-0.593462 -0.234454,-0.380988 -0.234454,-0.86455 0,-0.490888 0.234454,-0.864549 0.234454,-0.380988 0.637422,-0.593462 0.402968,-0.219801 0.901183,-0.219801 z m 0,0.666729 q -0.285741,0 -0.520195,0.124554 -0.234455,0.124553 -0.373662,0.351681 -0.13188,0.227127 -0.13188,0.534848 0,0.300395 0.13188,0.527522 0.139207,0.219801 0.373662,0.344354 0.234454,0.124554 0.520195,0.124554 0.293067,0 0.527521,-0.124554 0.241781,-0.124553 0.373661,-0.344354 0.131881,-0.227127 0.131881,-0.527522 0,-0.307721 -0.131881,-0.534848 -0.13188,-0.227128 -0.373661,-0.351681 Q 91.048747,44.70583 90.75568,44.70583 Z m 6.586696,-0.564155 h 0.630095 v 1.099003 q 0,0.608116 -0.13188,1.172271 -0.131881,0.564155 -0.388315,1.055043 -0.249107,0.490888 -0.608115,0.86455 -0.351681,0.373661 -0.805936,0.593462 l -0.461582,-0.630096 q 0.402968,-0.183167 0.725343,-0.498215 0.329701,-0.322374 0.556828,-0.732669 0.234454,-0.410294 0.359008,-0.879203 0.124554,-0.468908 0.124554,-0.945143 z m 0.139207,0 h 0.630095 v 1.099003 q 0,0.461582 0.117227,0.90851 0.124554,0.446928 0.351681,0.842569 0.227128,0.395642 0.549502,0.696036 0.322375,0.300394 0.710689,0.483561 l -0.446928,0.615442 q -0.446928,-0.212474 -0.798609,-0.571481 -0.351681,-0.359008 -0.600789,-0.827916 -0.249107,-0.468909 -0.380988,-1.01841 -0.13188,-0.549502 -0.13188,-1.128311 z m 2.894047,-0.556829 h 0.7693 v 6.711249 h -0.7693 z m 2.71087,0.249108 h 4.63047 v 1.853652 h -3.83919 v 1.091677 h -0.77663 v -1.670485 h 3.84652 v -0.666729 h -3.86117 z m 0.0147,2.571668 h 4.77701 v 0.622769 h -4.77701 z m -0.72534,1.223557 h 6.0665 v 0.622769 h -6.0665 z m 2.63761,0.227128 h 0.76198 v 2.439788 h -0.76198 z"
           id="text5-9-8"
           aria-label="민취안시루" />
      </g>
    </g>
    <text
       xml:space="preserve"
       transform="matrix(0.31615295,0,0,0.31615295,-10.474341,-6.4462013)"
       id="text6"
       style="font-size:55px;line-height:1.25;font-family:'Microsoft JhengHei';-inkscape-font-specification:'Microsoft JhengHei';white-space:pre;shape-inside:url(#rect6);display:inline;fill:#000000" />
  </g>
</svg>
