<?xml version="1.0" encoding="UTF-8" standalone="no"?>
<!-- Created with Inkscape (http://www.inkscape.org/) -->

<svg
   width="500"
   height="250"
   viewBox="0 0 132.29166 66.145833"
   version="1.1"
   id="svg1"
   inkscape:version="1.3.2 (091e20e, 2023-11-25, custom)"
   sodipodi:docname="o12.svg"
   xmlns:inkscape="http://www.inkscape.org/namespaces/inkscape"
   xmlns:sodipodi="http://sodipodi.sourceforge.net/DTD/sodipodi-0.dtd"
   xmlns="http://www.w3.org/2000/svg"
   xmlns:svg="http://www.w3.org/2000/svg">
  <sodipodi:namedview
     id="namedview1"
     pagecolor="#9e652e"
     bordercolor="#ffffff"
     borderopacity="1"
     inkscape:showpageshadow="0"
     inkscape:pageopacity="0"
     inkscape:pagecheckerboard="false"
     inkscape:deskcolor="#d1d1d1"
     inkscape:document-units="mm"
     inkscape:zoom="2.0208096"
     inkscape:cx="192.49711"
     inkscape:cy="117.27973"
     inkscape:window-width="1920"
     inkscape:window-height="1009"
     inkscape:window-x="1912"
     inkscape:window-y="-8"
     inkscape:window-maximized="1"
     inkscape:current-layer="layer1" />
  <defs
     id="defs1">
    <rect
       x="560.66638"
       y="34.144731"
       width="279.32397"
       height="128.59143"
       id="rect6" />
    <rect
       x="157.85752"
       y="62.351248"
       width="329.07603"
       height="135.09437"
       id="rect4" />
    <rect
       x="157.85751"
       y="62.35125"
       width="329.07602"
       height="135.09438"
       id="rect4-5" />
    <rect
       x="157.85751"
       y="62.35125"
       width="329.07602"
       height="135.09438"
       id="rect4-5-7" />
  </defs>
  <g
     inkscape:label="Layer 1"
     inkscape:groupmode="layer"
     id="layer1">
    <path
       id="rect5"
       style="fill:#f4eed7;stroke-width:0.953294"
       d="M -2.5431316e-6,-1.2715658e-6 H 132.29167 V 66.145835 H -2.5431316e-6 Z" />
    <g
       id="g4"
       transform="matrix(1.132463,0,0,1.132463,0.28125703,-4.3809382)">
      <path
         id="rect1"
         style="fill-opacity:0;stroke:#000000;stroke-width:0.674412"
         d="m 7.228313,19.681723 h 8.888176 c 2.809171,0 5.070706,2.261535 5.070706,5.070706 v 16.640976 c 0,2.809171 -2.261535,5.070706 -5.070706,5.070706 H 7.228313 c -2.8091714,0 -5.0707064,-2.261535 -5.0707064,-5.070706 V 24.752429 c 0,-2.809171 2.261535,-5.070706 5.0707064,-5.070706 z" />
      <path
         style="font-size:9.97737px;line-height:1.25;font-family:'AR UDJingXiHeiE1G30 EB';-inkscape-font-specification:'AR UDJingXiHeiE1G30 EB';stroke-width:0.207861"
         d="m 15.274255,28.0348 q 0,1.736063 -0.967805,2.723822 -0.957827,0.977783 -2.624048,0.977783 -1.6961529,0 -2.6539804,-0.98776 -0.9578275,-0.98776 -0.9578275,-2.713845 0,-1.756017 0.9678049,-2.753754 0.967805,-1.007714 2.644003,-1.007714 1.696153,0 2.644003,0.997737 0.94785,0.997737 0.94785,2.763731 z m -3.591853,2.713845 q 1.087533,0 1.676198,-0.718371 0.598643,-0.71837 0.598643,-1.995474 0,-1.267126 -0.598643,-2.015428 -0.598642,-0.758281 -1.676198,-0.758281 -1.097511,0 -1.7061302,0.768258 -0.5986422,0.75828 -0.5986422,2.005451 0,1.277104 0.6086195,1.995474 0.6086199,0.718371 1.6961529,0.718371 z"
         id="text2"
         aria-label="O" />
      <path
         style="font-size:10.2949px;line-height:1.25;font-family:'AR UDJingXiHeiE1G30 EB';-inkscape-font-specification:'AR UDJingXiHeiE1G30 EB';stroke-width:0.18718"
         d="M 8.1618163,35.584653 6.9573131,36.706798 6.3602089,35.790551 8.29565,34.030124 h 1.1221441 v 7.443212 H 8.1618163 Z m 4.1282477,0.803003 q 0,-1.153029 0.700053,-1.811903 0.700053,-0.669168 1.832492,-0.669168 1.163324,0 1.811903,0.586809 0.658873,0.576514 0.658873,1.606004 0,0.730938 -0.473565,1.472171 -0.463271,0.730938 -1.461876,1.616299 l -1.400106,1.266273 h 3.314958 v 1.019195 H 12.259179 V 40.5365 l 2.07957,-1.873671 q 0.916246,-0.833887 1.276568,-1.420697 0.370616,-0.597104 0.370616,-1.142734 0,-0.514745 -0.298552,-0.833886 -0.298552,-0.319142 -0.864772,-0.319142 -0.566219,0 -0.916246,0.391206 -0.350026,0.391206 -0.350026,1.05008 z"
         id="text3"
         aria-label="12" />
      <path
         style="font-weight:500;font-size:72px;line-height:1.25;font-family:'Noto Sans TC';-inkscape-font-specification:'Noto Sans TC Medium';white-space:pre"
         d="m 162.17742,94.761406 h 63.648 v 7.056004 h -63.648 z m 35.856,2.808 q 2.304,8.496004 6.192,15.840004 3.96,7.344 9.648,12.888 5.76,5.472 13.32,8.64 -0.864,0.72 -1.872,1.872 -0.936,1.152 -1.8,2.304 -0.864,1.224 -1.44,2.16 -7.992,-3.744 -13.968,-9.864 -5.904,-6.192 -10.008,-14.328 -4.104,-8.136 -6.912,-17.856004 z m -7.92,-22.896 h 7.416 q 0,5.112 -0.288,11.016 -0.216,5.832 -1.08,12.024 -0.864,6.192004 -2.808,12.384004 -1.944,6.192 -5.4,11.952 -3.456,5.76 -8.856,10.728 -5.4,4.896 -13.176,8.568 -0.864,-1.368 -2.304,-3.024 -1.44,-1.584 -2.88,-2.664 7.488,-3.384 12.6,-7.848 5.184,-4.536 8.352,-9.792 3.24,-5.328 4.968,-11.016 1.728,-5.688 2.448,-11.376004 0.72,-5.688 0.864,-11.016 0.144,-5.328 0.144,-9.936 z m 66.816,11.88 h 41.472 v 5.328 h -41.472 z m 14.472,13.464004 v 5.256 h 11.88 v -5.256 z m -5.688,-4.248004 h 23.544 v 13.680004 h -23.544 z m -7.992,16.632004 h 36.216 v 5.256 h -30.024 v 23.904 h -6.192 z m 33.336,0 h 6.336 v 22.464 q 0,2.232 -0.576,3.528 -0.504,1.296 -2.16,2.088 -1.584,0.648 -3.96,0.792 -2.304,0.144 -5.616,0.144 -0.216,-1.224 -0.864,-2.88 -0.576,-1.584 -1.224,-2.736 2.376,0.072 4.248,0.072 1.944,0 2.592,0 0.72,-0.072 0.936,-0.288 0.288,-0.216 0.288,-0.792 z m -0.576,-37.008004 3.96,4.464 q -3.456,0.792 -7.704,1.368 -4.176,0.576 -8.856,1.008 -4.608,0.36 -9.288,0.576 -4.608,0.216 -8.928,0.288 -0.144,-1.008 -0.576,-2.304 -0.432,-1.368 -0.864,-2.304 4.176,-0.144 8.64,-0.36 4.536,-0.288 8.856,-0.648 4.392,-0.36 8.208,-0.864 3.816,-0.504 6.552,-1.224 z m -5.328,13.032 q 1.512,2.664 3.888,5.328 2.448,2.592 5.328,4.752 2.88,2.088004 5.904,3.384004 -1.008,0.792 -2.304,2.304 -1.224,1.44 -1.872,2.592 -3.168,-1.656 -6.12,-4.248 -2.952,-2.664004 -5.472,-5.904004 -2.52,-3.24 -4.248,-6.48 z m -13.464,-7.2 6.192,0.792 q -1.296,4.68 -3.744,9.216 -2.448,4.464 -6.264,8.424 -3.816,3.960004 -9.288,7.200004 -0.36,-0.792 -1.152,-1.656 -0.72,-0.864 -1.512,-1.584 -0.792,-0.792 -1.44,-1.224 5.04,-2.736004 8.496,-6.192004 3.456,-3.456 5.544,-7.272 2.16,-3.888 3.168,-7.704 z m -0.432,39.816004 h 15.408 v 13.68 h -15.408 v -4.104 h 10.368 v -5.4 h -10.368 z m -2.952,0 h 4.968 v 16.704 h -4.968 z m -34.92,-31.032004 h 22.752 v 6.336 h -22.752 z m 9.072,-15.336 h 6.192 v 66.744004 h -6.192 z m -0.144,19.368 3.96,1.368 q -0.792,4.248 -1.944,8.856004 -1.08,4.608 -2.592,9.072 -1.44,4.464 -3.168,8.352 -1.728,3.816 -3.6,6.552 -0.504,-1.368 -1.512,-3.096 -0.936,-1.728 -1.728,-2.952 1.728,-2.376 3.312,-5.688 1.656,-3.312 3.024,-7.056 1.44,-3.816 2.52,-7.776 1.08,-3.960004 1.728,-7.632004 z m 5.904,6.408004 q 0.576,0.72 1.8,2.592 1.224,1.8 2.592,3.96 1.44,2.16 2.592,4.032 1.224,1.8 1.656,2.592 l -3.456,4.896 q -0.576,-1.44 -1.656,-3.528 -1.008,-2.16 -2.232,-4.464 -1.224,-2.304 -2.304,-4.248 -1.08,-2.016 -1.728,-3.096 z m 57.168,-22.104004 h 28.728 v 6.264 h -28.728 z m 7.848,17.856 v 8.856004 h 13.104 v -8.856004 z m -5.832,-5.472 h 25.056 v 19.728004 h -25.056 z m 16.848,21.384004 6.624,1.512 q -1.08,3.816 -2.232,7.776 -1.08,3.96 -2.088,6.768 l -5.184,-1.44 q 0.576,-2.016 1.152,-4.536 0.576,-2.592 1.008,-5.256 0.504,-2.664 0.72,-4.824 z m -15.48,1.944 5.4,-1.368 q 1.296,3.096 2.088,6.768 0.792,3.672 0.864,6.336 l -5.76,1.512 q -0.072,-2.664 -0.792,-6.336 -0.72,-3.744 -1.8,-6.912 z m -4.464,17.424 q 3.744,-0.648 8.712,-1.656 4.968,-1.008 10.512,-2.16 5.544,-1.152 11.016,-2.304 l 0.576,5.832 q -7.632,1.8 -15.408,3.6 -7.776,1.728 -13.824,3.096 z m 31.68,-53.640004 h 34.848 v 5.832 h -34.848 z m 8.208,27.648004 v 6.048 h 18.072 v -6.048 z m 0,10.872 v 6.048 h 18.072 v -6.048 z m 0,-21.600004 v 5.976004 h 18.072 v -5.976004 z m -6.264,-5.112 h 30.888 v 37.872004 h -30.888 z m 11.304,-8.712 7.704,0.936 q -0.936,3.24 -1.944,6.408 -1.008,3.168 -1.872,5.472 l -5.976,-1.152 q 0.432,-1.656 0.792,-3.672 0.432,-2.088 0.72,-4.176 0.36,-2.16 0.576,-3.816 z m -4.464,47.520004 5.76,3.6 q -1.944,1.8 -4.608,3.6 -2.664,1.8 -5.616,3.312 -2.952,1.584 -5.688,2.664 -0.792,-1.008 -2.16,-2.304 -1.296,-1.296 -2.376,-2.16 2.736,-1.008 5.544,-2.448 2.808,-1.44 5.184,-3.096 2.448,-1.656 3.96,-3.168 z m 10.44,3.816 5.112,-3.312 q 2.088,1.224 4.392,2.88 2.304,1.584 4.392,3.24 2.16,1.584 3.528,2.88 l -5.472,3.6 q -1.152,-1.296 -3.24,-2.952 -2.016,-1.656 -4.32,-3.312 -2.304,-1.728 -4.392,-3.024 z"
         id="text4"
         transform="matrix(0.18718046,0,0,0.18718046,-5.6796464,6.5080024)"
         aria-label="大橋頭" />
      <path
         style="font-size:5.24105px;line-height:1.25;font-family:'AR UDJingXiHeiE1G30 EB';-inkscape-font-specification:'AR UDJingXiHeiE1G30 EB';stroke-width:0.18718"
         d="m 27.967424,36.723013 q 0,0.943389 -0.445489,1.441289 -0.440248,0.497899 -1.231647,0.497899 h -1.551351 v -3.789279 h 1.551351 q 0.791399,0 1.231647,0.466454 0.445489,0.466453 0.445489,1.383637 z m -0.691818,0 q 0,-0.686578 -0.283017,-1.006282 -0.277776,-0.324945 -0.812363,-0.324945 h -0.775675 v 2.751551 h 0.780916 q 0.513623,0 0.801881,-0.340668 0.288258,-0.340668 0.288258,-1.079656 z m 3.438124,0.408802 -0.59748,-1.619485 -0.607962,1.619485 z m -1.399361,0.518864 -0.377355,1.011522 h -0.676096 l 1.525146,-3.789279 H 30.4674 l 1.514664,3.789279 h -0.691819 l -0.382596,-1.011522 z m 6.215881,0.586997 0.466453,0.387838 -0.335427,0.393079 -0.571274,-0.482177 q -0.193919,0.09434 -0.429767,0.141508 -0.230606,0.05241 -0.487417,0.05241 -0.890979,0 -1.394119,-0.518864 -0.503141,-0.518864 -0.503141,-1.425566 0,-0.922424 0.508382,-1.446529 0.508381,-0.529346 1.388878,-0.529346 0.890978,0 1.388878,0.524105 0.4979,0.524105 0.4979,1.45177 0,0.466454 -0.136268,0.833327 -0.136267,0.366874 -0.393078,0.618444 z m -1.357432,-2.908782 q -0.576516,0 -0.89622,0.40356 -0.314463,0.39832 -0.314463,1.053451 0,0.670855 0.319704,1.04821 0.319704,0.377356 0.890979,0.377356 0.125785,0 0.235847,-0.02096 0.115303,-0.02096 0.214883,-0.06289 l -0.403561,-0.340668 0.356392,-0.382597 0.476935,0.403561 q 0.151991,-0.172954 0.230606,-0.429766 0.08386,-0.262052 0.08386,-0.592239 0,-0.665613 -0.314463,-1.058692 -0.314463,-0.398319 -0.880496,-0.398319 z m 3.275657,-0.455972 v 3.789279 h -0.665613 v -3.789279 z m 2.887814,2.258893 -0.597479,-1.619485 -0.607962,1.619485 z m -1.39936,0.518864 -0.377355,1.011522 h -0.676096 l 1.525146,-3.789279 h 0.681336 l 1.514663,3.789279 h -0.691818 l -0.382597,-1.011522 z m 6.745228,-0.864774 q 0,0.911943 -0.508382,1.430807 -0.503141,0.513623 -1.378396,0.513623 -0.890979,0 -1.394119,-0.518864 -0.503141,-0.518864 -0.503141,-1.425566 0,-0.922424 0.508382,-1.446529 0.508381,-0.529346 1.388878,-0.529346 0.890978,0 1.388878,0.524105 0.4979,0.524105 0.4979,1.45177 z m -1.886778,1.425566 q 0.571274,0 0.880496,-0.377356 0.314463,-0.377355 0.314463,-1.04821 0,-0.665613 -0.314463,-1.058692 -0.314463,-0.398319 -0.880496,-0.398319 -0.576516,0 -0.89622,0.40356 -0.314463,0.39832 -0.314463,1.053451 0,0.670855 0.319704,1.04821 0.319704,0.377356 0.890979,0.377356 z m 3.417165,-2.819685 h -1.179236 v -0.518864 h 3.018844 v 0.518864 h -1.173995 v 3.270415 h -0.665613 z m 5.985278,1.394119 q 0,0.911943 -0.508382,1.430807 -0.503141,0.513623 -1.378396,0.513623 -0.890979,0 -1.394119,-0.518864 -0.503141,-0.518864 -0.503141,-1.425566 0,-0.922424 0.508382,-1.446529 0.508381,-0.529346 1.388878,-0.529346 0.890978,0 1.388878,0.524105 0.4979,0.524105 0.4979,1.45177 z m -1.886778,1.425566 q 0.571274,0 0.880496,-0.377356 0.314463,-0.377355 0.314463,-1.04821 0,-0.665613 -0.314463,-1.058692 -0.314463,-0.398319 -0.880496,-0.398319 -0.576516,0 -0.89622,0.40356 -0.314463,0.39832 -0.314463,1.053451 0,0.670855 0.319704,1.04821 0.319704,0.377356 0.890979,0.377356 z m 5.786119,-0.875255 q 0,0.660372 -0.414042,1.027245 -0.414043,0.366874 -1.179237,0.366874 -0.775675,0 -1.194959,-0.361633 -0.414043,-0.361632 -0.414043,-1.027245 v -2.468535 h 0.665613 v 2.437088 q 0,0.429767 0.235848,0.665614 0.235847,0.235847 0.707541,0.235847 0.44549,0 0.681337,-0.225365 0.241088,-0.230606 0.241088,-0.686578 v -2.426606 h 0.670854 z"
         id="text5"
         aria-label="DAQIAOTOU" />
      <path
         d="m 24.525769,41.929699 h 4.633088 v 0.513623 h -4.633088 z m 2.610042,0.204401 q 0.167714,0.618444 0.450731,1.153031 0.288257,0.534587 0.7023,0.938148 0.419284,0.398319 0.969595,0.628926 -0.06289,0.05241 -0.136268,0.136267 -0.06813,0.08386 -0.131026,0.167714 -0.06289,0.0891 -0.104821,0.157231 -0.581757,-0.272535 -1.016764,-0.718024 -0.429766,-0.45073 -0.728506,-1.042969 -0.298739,-0.592238 -0.50314,-1.29978 z m -0.576515,-1.666654 h 0.539828 q 0,0.372115 -0.02096,0.801881 -0.01572,0.424525 -0.07862,0.875255 -0.06289,0.45073 -0.204401,0.901461 -0.141508,0.45073 -0.393079,0.870014 -0.25157,0.419284 -0.644649,0.780916 -0.393078,0.356392 -0.959112,0.623685 -0.06289,-0.09958 -0.167713,-0.220124 -0.104821,-0.115303 -0.209642,-0.193919 0.545069,-0.246329 0.917183,-0.571274 0.377356,-0.330186 0.607962,-0.712783 0.235847,-0.387838 0.361633,-0.801881 0.125785,-0.414043 0.178195,-0.828085 0.05241,-0.414043 0.06289,-0.801881 0.01048,-0.387838 0.01048,-0.723265 z m 4.863694,0.864773 h 3.018845 v 0.387838 H 31.42299 Z m 1.053451,0.980077 v 0.382596 h 0.864773 v -0.382596 z m -0.414043,-0.309222 h 1.713823 v 0.995799 h -1.713823 z m -0.581756,1.210682 h 2.636248 v 0.382597 h -2.185518 v 1.740028 h -0.45073 z m 2.426606,0 h 0.461212 v 1.635208 q 0,0.162472 -0.04193,0.256811 -0.03669,0.09434 -0.157232,0.151991 -0.115303,0.04717 -0.288258,0.05765 -0.167713,0.01048 -0.408801,0.01048 -0.01572,-0.0891 -0.06289,-0.209642 -0.04193,-0.115303 -0.0891,-0.19916 0.172955,0.0052 0.309222,0.0052 0.141508,0 0.188678,0 0.05241,-0.0052 0.06813,-0.02096 0.02097,-0.01572 0.02097,-0.05765 z m -0.04193,-2.693899 0.288258,0.324945 q -0.25157,0.05765 -0.560792,0.09958 -0.303981,0.04193 -0.644649,0.07337 -0.335428,0.02621 -0.676096,0.04193 -0.335427,0.01572 -0.64989,0.02096 -0.01048,-0.07337 -0.04193,-0.167714 -0.03145,-0.09958 -0.06289,-0.167713 0.303981,-0.01048 0.628926,-0.02621 0.330186,-0.02096 0.644649,-0.04717 0.319704,-0.0262 0.59748,-0.06289 0.277775,-0.03669 0.476935,-0.0891 z m -0.387837,0.94863 q 0.110062,0.193918 0.283016,0.387837 0.178196,0.188678 0.387838,0.345909 0.209642,0.151991 0.429766,0.24633 -0.07337,0.05765 -0.167714,0.167713 -0.0891,0.104821 -0.136267,0.188678 -0.230606,-0.120544 -0.445489,-0.309222 -0.214883,-0.193919 -0.39832,-0.429766 -0.183437,-0.235847 -0.309222,-0.471694 z m -0.980077,-0.524105 0.450731,0.05765 q -0.09434,0.340668 -0.272535,0.670854 -0.178196,0.324946 -0.455971,0.613203 -0.277776,0.288258 -0.676096,0.524105 -0.02621,-0.05765 -0.08386,-0.120544 -0.05241,-0.06289 -0.110062,-0.115303 -0.05765,-0.05765 -0.104821,-0.0891 0.366874,-0.19916 0.618444,-0.45073 0.251571,-0.25157 0.403561,-0.529346 0.157232,-0.283017 0.230606,-0.560792 z m -0.03145,2.8983 h 1.121585 v 0.9958 h -1.121585 v -0.29874 h 0.754711 v -0.393079 h -0.754711 z m -0.214883,0 h 0.361632 v 1.215924 H 32.251076 Z M 29.709167,41.58379 h 1.656172 v 0.461212 h -1.656172 z m 0.660372,-1.116344 h 0.45073 v 4.858453 h -0.45073 z m -0.01048,1.409842 0.288258,0.09958 q -0.05765,0.309222 -0.141509,0.644649 -0.07861,0.335428 -0.188677,0.660373 -0.104821,0.324945 -0.230607,0.607962 -0.125785,0.277775 -0.262052,0.476935 -0.03669,-0.09958 -0.110062,-0.225365 -0.06813,-0.125785 -0.125785,-0.214883 0.125785,-0.172955 0.241088,-0.414043 0.120544,-0.241088 0.220124,-0.513623 0.104821,-0.277776 0.183437,-0.566033 0.07862,-0.288258 0.125785,-0.555552 z m 0.429766,0.466454 q 0.04193,0.05241 0.131026,0.188678 0.0891,0.131026 0.188678,0.288257 0.104821,0.157232 0.188678,0.293499 0.0891,0.131026 0.120544,0.188678 l -0.25157,0.356391 q -0.04193,-0.104821 -0.120544,-0.256811 -0.07338,-0.157232 -0.162473,-0.324945 -0.0891,-0.167714 -0.167714,-0.309222 -0.07861,-0.14675 -0.125785,-0.225365 z m 4.161394,-1.609002 h 2.091178 v 0.455971 h -2.091178 z m 0.571274,1.29978 v 0.644649 h 0.953871 V 42.03452 Z M 35.096966,41.6362 h 1.823885 v 1.436048 h -1.823885 z m 1.226406,1.556592 0.482176,0.110062 q -0.07862,0.277776 -0.162472,0.566033 -0.07862,0.288258 -0.151991,0.492659 L 36.11373,44.256725 q 0.04193,-0.146749 0.08386,-0.330186 0.04193,-0.188678 0.07337,-0.382597 0.03669,-0.193919 0.05241,-0.35115 z m -1.126826,0.141508 0.393079,-0.09958 q 0.09434,0.225365 0.15199,0.492659 0.05765,0.267294 0.06289,0.461212 l -0.419284,0.110062 q -0.0052,-0.193918 -0.05765,-0.461212 -0.05241,-0.272535 -0.131026,-0.503141 z m -0.324945,1.268334 q 0.272534,-0.04717 0.634167,-0.120544 0.361632,-0.07337 0.765193,-0.157231 0.403561,-0.08386 0.801881,-0.167714 l 0.04193,0.424525 q -0.555551,0.131026 -1.121585,0.262053 -0.566033,0.125785 -1.006281,0.225365 z m 2.306062,-3.904582 h 2.536668 v 0.424525 h -2.536668 z m 0.597479,2.012563 v 0.440249 h 1.315504 v -0.440249 z m 0,0.791399 v 0.440248 h 1.315504 v -0.440248 z m 0,-1.572315 v 0.435007 h 1.315504 v -0.435007 z m -0.455971,-0.372115 h 2.24841 v 2.756793 h -2.24841 z m 0.822845,-0.634167 0.560792,0.06813 q -0.06813,0.235847 -0.141508,0.466453 -0.07338,0.230607 -0.136267,0.39832 l -0.435008,-0.08386 q 0.03145,-0.120544 0.05765,-0.267293 0.03145,-0.151991 0.05241,-0.303981 0.02621,-0.157231 0.04193,-0.277776 z m -0.324945,3.459093 0.419284,0.262053 q -0.141509,0.131026 -0.335427,0.262052 -0.193919,0.131026 -0.408802,0.241088 -0.214883,0.115304 -0.414043,0.193919 -0.05765,-0.07337 -0.157232,-0.167713 -0.09434,-0.09434 -0.172954,-0.157232 0.19916,-0.07337 0.40356,-0.178195 0.204401,-0.104821 0.377356,-0.225366 0.178196,-0.120544 0.288258,-0.230606 z m 0.759952,0.277776 0.372115,-0.241088 q 0.15199,0.0891 0.319704,0.209642 0.167713,0.115303 0.319704,0.235847 0.157231,0.115303 0.256811,0.209642 l -0.39832,0.262052 Q 39.36318,45.242042 39.21119,45.121498 39.064441,45.000954 38.896727,44.88041 38.729013,44.754625 38.577023,44.660286 Z"
         id="text5-9"
         style="font-weight:500;font-size:5.24105px;line-height:1.25;font-family:'Noto Sans JP';-inkscape-font-specification:'Noto Sans JP Medium';stroke-width:0.18718"
         aria-label="大橋頭" />
      <path
         style="font-weight:500;font-size:5.24105px;line-height:1.25;font-family:'Noto Sans KR';-inkscape-font-specification:'Noto Sans KR Medium';stroke-width:0.18718"
         d="m 49.332426,40.592484 h 0.55031 v 4.800801 h -0.55031 z m 0.429766,1.839608 h 0.864773 v 0.455972 h -0.864773 z m -3.3962,1.325986 h 0.387837 q 0.429766,0 0.791399,-0.01048 0.361632,-0.01572 0.7023,-0.04717 0.340669,-0.03669 0.691819,-0.09958 l 0.05765,0.455972 q -0.361633,0.06813 -0.712783,0.104821 -0.345909,0.03145 -0.723265,0.04717 -0.372115,0.01048 -0.807122,0.01048 h -0.387837 z m 0,-2.709623 h 2.227446 v 0.445489 h -1.682377 v 2.479017 h -0.545069 z m 5.73895,0.733747 h 0.435007 v 0.335427 q 0,0.377356 -0.0891,0.738988 -0.0891,0.361633 -0.262052,0.681337 -0.172955,0.314463 -0.414043,0.555551 -0.235848,0.241088 -0.54507,0.387838 l -0.298739,-0.424525 q 0.272534,-0.131026 0.492658,-0.335427 0.220124,-0.209642 0.372115,-0.471695 0.15199,-0.262052 0.230606,-0.55031 0.07862,-0.288258 0.07862,-0.581757 z m 0.115303,0 h 0.429766 v 0.335427 q 0,0.272535 0.07337,0.550311 0.07861,0.272534 0.220124,0.524105 0.146749,0.246329 0.356391,0.45073 0.209642,0.19916 0.482177,0.330186 l -0.303981,0.419284 q -0.293499,-0.141508 -0.529346,-0.377356 -0.230606,-0.241088 -0.393079,-0.539828 -0.162473,-0.303981 -0.25157,-0.64989 -0.08386,-0.345909 -0.08386,-0.707542 z m -1.14779,-0.377355 h 2.589078 v 0.435007 h -2.589078 z m 1.032487,-0.712783 h 0.545069 v 0.94863 h -0.545069 z m 2.04925,-0.09434 h 0.55031 v 4.790319 h -0.55031 z m 0.429766,1.918224 h 0.864773 v 0.455971 h -0.864773 z m 3.118425,0.780917 h 0.550311 v 1.147789 h -0.550311 z m 0.277776,-2.416124 q 0.508382,0 0.901461,0.157231 0.398319,0.157232 0.628926,0.445489 0.230606,0.288258 0.230606,0.676096 0,0.393078 -0.230606,0.681336 -0.230607,0.288258 -0.628926,0.45073 -0.393079,0.157232 -0.901461,0.157232 -0.508382,0 -0.906702,-0.157232 -0.398319,-0.162472 -0.628925,-0.45073 -0.230607,-0.288258 -0.230607,-0.681336 0,-0.387838 0.230607,-0.676096 0.230606,-0.288257 0.628925,-0.445489 0.39832,-0.157231 0.906702,-0.157231 z m 0,0.435007 q -0.361632,0 -0.639408,0.104821 -0.272535,0.09958 -0.429766,0.288257 -0.157232,0.188678 -0.157232,0.450731 0,0.262052 0.157232,0.455971 0.157231,0.188678 0.429766,0.293499 0.277776,0.09958 0.639408,0.09958 0.356391,0 0.634167,-0.09958 0.277776,-0.104821 0.435007,-0.293499 0.157232,-0.193919 0.157232,-0.455971 0,-0.262053 -0.157232,-0.450731 Q 58.892102,41.52015 58.614326,41.42057 58.33655,41.315749 57.980159,41.315749 Z m -2.164553,3.029326 h 4.339589 v 0.450731 h -4.339589 z m 8.249413,-3.752591 h 0.55031 v 4.800801 h -0.55031 z m -0.917184,1.75051 h 0.990559 v 0.450731 h -0.990559 z m -2.290339,1.483218 h 0.372115 q 0.429766,0 0.775675,-0.01048 0.351151,-0.01048 0.670855,-0.03669 0.319704,-0.03145 0.655131,-0.0891 l 0.05241,0.440248 q -0.345909,0.05765 -0.676095,0.0891 -0.324945,0.03145 -0.686577,0.04193 -0.356392,0.01048 -0.791399,0.01048 h -0.372115 z m 0,-2.814444 h 2.211723 v 0.45073 h -1.666653 v 2.505222 h -0.54507 z m 0.408802,1.341709 h 1.614244 v 0.435007 h -1.614244 z m 4.19284,0.953871 h 4.339589 v 0.45073 h -4.339589 z m 1.881537,0.288257 h 0.545069 v 1.792439 h -0.545069 z m 0.277776,-2.819684 q 0.503141,0 0.885737,0.131026 0.382597,0.131026 0.59748,0.366873 0.214883,0.235848 0.214883,0.560793 0,0.324945 -0.214883,0.566033 -0.214883,0.235847 -0.59748,0.366874 -0.382596,0.131026 -0.885737,0.131026 -0.503141,0 -0.890979,-0.131026 -0.382596,-0.131027 -0.597479,-0.366874 -0.214883,-0.241088 -0.214883,-0.566033 0,-0.324945 0.214883,-0.560793 0.214883,-0.235847 0.597479,-0.366873 0.387838,-0.131026 0.890979,-0.131026 z m -0.0052,0.435007 q -0.340668,0 -0.59748,0.07861 -0.25157,0.07337 -0.393079,0.214884 -0.141508,0.136267 -0.141508,0.330186 0,0.193918 0.141508,0.335427 0.141509,0.141508 0.393079,0.214883 0.256812,0.07337 0.59748,0.07337 0.345909,0 0.597479,-0.07337 0.256812,-0.07337 0.39832,-0.214883 0.141509,-0.141509 0.141509,-0.335427 0,-0.193919 -0.141509,-0.330186 -0.141508,-0.141509 -0.39832,-0.214884 -0.25157,-0.07861 -0.597479,-0.07861 z"
         id="text5-9-8"
         aria-label="다차오터우" />
      <path
         style="font-weight:500;font-size:72px;line-height:1.25;font-family:'Noto Sans TC';-inkscape-font-specification:'Noto Sans TC Medium';white-space:pre"
         d="m 162.17742,94.761406 h 63.648 v 7.056004 h -63.648 z m 35.856,2.808 q 2.304,8.496004 6.192,15.840004 3.96,7.344 9.648,12.888 5.76,5.472 13.32,8.64 -0.864,0.72 -1.872,1.872 -0.936,1.152 -1.8,2.304 -0.864,1.224 -1.44,2.16 -7.992,-3.744 -13.968,-9.864 -5.904,-6.192 -10.008,-14.328 -4.104,-8.136 -6.912,-17.856004 z m -7.92,-22.896 h 7.416 q 0,5.112 -0.288,11.016 -0.216,5.832 -1.08,12.024 -0.864,6.192004 -2.808,12.384004 -1.944,6.192 -5.4,11.952 -3.456,5.76 -8.856,10.728 -5.4,4.896 -13.176,8.568 -0.864,-1.368 -2.304,-3.024 -1.44,-1.584 -2.88,-2.664 7.488,-3.384 12.6,-7.848 5.184,-4.536 8.352,-9.792 3.24,-5.328 4.968,-11.016 1.728,-5.688 2.448,-11.376004 0.72,-5.688 0.864,-11.016 0.144,-5.328 0.144,-9.936 z m 66.816,11.88 h 41.472 v 5.328 h -41.472 z m 14.472,13.464004 v 5.256 h 11.88 v -5.256 z m -5.688,-4.248004 h 23.544 v 13.680004 h -23.544 z m -7.992,16.632004 h 36.216 v 5.256 h -30.024 v 23.904 h -6.192 z m 33.336,0 h 6.336 v 22.464 q 0,2.232 -0.576,3.528 -0.504,1.296 -2.16,2.088 -1.584,0.648 -3.96,0.792 -2.304,0.144 -5.616,0.144 -0.216,-1.224 -0.864,-2.88 -0.576,-1.584 -1.224,-2.736 2.376,0.072 4.248,0.072 1.944,0 2.592,0 0.72,-0.072 0.936,-0.288 0.288,-0.216 0.288,-0.792 z m -0.576,-37.008004 3.96,4.464 q -3.456,0.792 -7.704,1.368 -4.176,0.576 -8.856,1.008 -4.608,0.36 -9.288,0.576 -4.608,0.216 -8.928,0.288 -0.144,-1.008 -0.576,-2.304 -0.432,-1.368 -0.864,-2.304 4.176,-0.144 8.64,-0.36 4.536,-0.288 8.856,-0.648 4.392,-0.36 8.208,-0.864 3.816,-0.504 6.552,-1.224 z m -5.328,13.032 q 1.512,2.664 3.888,5.328 2.448,2.592 5.328,4.752 2.88,2.088004 5.904,3.384004 -1.008,0.792 -2.304,2.304 -1.224,1.44 -1.872,2.592 -3.168,-1.656 -6.12,-4.248 -2.952,-2.664004 -5.472,-5.904004 -2.52,-3.24 -4.248,-6.48 z m -13.464,-7.2 6.192,0.792 q -1.296,4.68 -3.744,9.216 -2.448,4.464 -6.264,8.424 -3.816,3.960004 -9.288,7.200004 -0.36,-0.792 -1.152,-1.656 -0.72,-0.864 -1.512,-1.584 -0.792,-0.792 -1.44,-1.224 5.04,-2.736004 8.496,-6.192004 3.456,-3.456 5.544,-7.272 2.16,-3.888 3.168,-7.704 z m -0.432,39.816004 h 15.408 v 13.68 h -15.408 v -4.104 h 10.368 v -5.4 h -10.368 z m -2.952,0 h 4.968 v 16.704 h -4.968 z m -34.92,-31.032004 h 22.752 v 6.336 h -22.752 z m 9.072,-15.336 h 6.192 v 66.744004 h -6.192 z m -0.144,19.368 3.96,1.368 q -0.792,4.248 -1.944,8.856004 -1.08,4.608 -2.592,9.072 -1.44,4.464 -3.168,8.352 -1.728,3.816 -3.6,6.552 -0.504,-1.368 -1.512,-3.096 -0.936,-1.728 -1.728,-2.952 1.728,-2.376 3.312,-5.688 1.656,-3.312 3.024,-7.056 1.44,-3.816 2.52,-7.776 1.08,-3.960004 1.728,-7.632004 z m 5.904,6.408004 q 0.576,0.72 1.8,2.592 1.224,1.8 2.592,3.96 1.44,2.16 2.592,4.032 1.224,1.8 1.656,2.592 l -3.456,4.896 q -0.576,-1.44 -1.656,-3.528 -1.008,-2.16 -2.232,-4.464 -1.224,-2.304 -2.304,-4.248 -1.08,-2.016 -1.728,-3.096 z m 69.048,-7.920004 h 41.256 v 4.968 h -41.256 z m 29.52,-4.968 3.096,-3.168 q 1.944,0.936 4.104,2.304 2.16,1.296 3.312,2.448 l -3.24,3.456 q -1.152,-1.224 -3.24,-2.664 -2.088,-1.44 -4.032,-2.376 z m 4.032,12.672004 5.328,1.08 q -2.664,9.936 -7.92,17.352 -5.184,7.344 -12.456,12.096 -0.36,-0.576 -1.08,-1.368 -0.72,-0.792 -1.44,-1.584 -0.72,-0.792 -1.368,-1.224 7.128,-4.104 11.88,-10.8 4.752,-6.696 7.056,-15.552 z m -34.344,20.88 q 4.104,-0.576 9.648,-1.368 5.616,-0.864 11.52,-1.872 l 0.144,4.68 q -5.4,0.936 -10.8,1.944 -5.328,0.936 -9.72,1.728 z m 7.632,-15.84 v 6.192 h 6.696 v -6.192 z m -4.608,-3.816 h 16.128 v 13.824 h -16.128 z m 18.216,-15.912004 h 5.688 q 0.288,7.2 0.936,13.968 0.72,6.696004 1.872,12.096004 1.224,5.328 2.88,8.64 1.728,3.312 3.96,3.744 0.72,0.216 1.152,-1.8 0.504,-2.016 0.792,-5.4 0.576,0.576 1.368,1.224 0.792,0.648 1.584,1.152 0.864,0.504 1.44,0.864 -0.792,6.192 -3.024,8.496 -2.16,2.232 -5.328,0.936 -3.6,-0.936 -5.976,-4.824 -2.376,-3.96 -3.816,-10.008 -1.44,-6.048 -2.304,-13.536 -0.792,-7.488004 -1.224,-15.552004 z m -30.312,-7.632 h 60.912 v 63.792004 h -6.768 V 84.033406 h -47.664 v 57.672004 h -6.48 z m 4.104,54.432004 h 53.712 v 6.192 h -53.712 z m 94.896,-56.664004 h 7.416 v 56.880004 q 0,3.456 -0.936,5.112 -0.864,1.656 -3.096,2.52 -2.16,0.792 -5.76,1.008 -3.6,0.288 -8.712,0.288 -0.216,-1.008 -0.72,-2.304 -0.432,-1.224 -1.008,-2.52 -0.504,-1.296 -1.08,-2.304 2.592,0.144 4.968,0.216 2.448,0 4.248,0 1.872,-0.072 2.664,-0.072 1.08,-0.072 1.512,-0.432 0.504,-0.432 0.504,-1.512 z m 17.352,18.576 6.624,-2.448 q 3.096,5.04 5.904,10.872004 2.88,5.76 5.04,11.304 2.232,5.544 3.096,9.936 l -7.416,2.952 q -0.792,-4.32 -2.808,-9.936 -1.944,-5.616 -4.68,-11.52 -2.736,-5.976004 -5.76,-11.160004 z m -36.216,-1.872 7.704,1.296 q -1.152,5.328 -2.952,11.232004 -1.8,5.904 -4.248,11.304 -2.448,5.328 -5.616,9.36 -0.792,-0.576 -2.016,-1.224 -1.152,-0.72 -2.376,-1.296 -1.224,-0.648 -2.16,-1.08 3.096,-3.744 5.4,-8.784 2.304,-5.112 3.888,-10.584 1.584,-5.472004 2.376,-10.224004 z"
         id="text4-0"
         transform="matrix(0.09930198,0,0,0.09930198,54.360034,12.899792)"
         aria-label="大橋國小" />
      <path
         style="font-size:2.73061px;line-height:1.25;font-family:'AR UDJingXiHeiE1G30 EB';-inkscape-font-specification:'AR UDJingXiHeiE1G30 EB';stroke-width:0.0975218"
         d="m 72.238889,28.916805 q 0,0.49151 -0.232102,0.750918 -0.229371,0.259407 -0.641693,0.259407 H 70.556833 V 27.9529 h 0.808261 q 0.412322,0 0.641693,0.243024 0.232102,0.243024 0.232102,0.720881 z m -0.360441,0 q 0,-0.35771 -0.147453,-0.524277 -0.144722,-0.169298 -0.423244,-0.169298 h -0.40413 v 1.43357 h 0.406861 q 0.267599,0 0.417783,-0.17749 0.150183,-0.177489 0.150183,-0.562505 z m 1.791278,0.212987 -0.311289,-0.843758 -0.316751,0.843758 z m -0.729073,0.270331 -0.196604,0.527007 h -0.352248 l 0.794607,-1.97423 h 0.354979 l 0.789147,1.97423 h -0.360441 l -0.199334,-0.527007 z m 3.238501,0.305828 0.243024,0.202065 -0.174759,0.204796 -0.297636,-0.251216 q -0.101033,0.04915 -0.22391,0.07373 -0.120147,0.02731 -0.253947,0.02731 -0.464204,0 -0.726342,-0.27033 -0.262139,-0.27033 -0.262139,-0.742726 0,-0.480587 0.264869,-0.753648 0.26487,-0.275792 0.723612,-0.275792 0.464204,0 0.723612,0.273061 0.259408,0.273061 0.259408,0.756379 0,0.243024 -0.071,0.434167 -0.071,0.191143 -0.204796,0.322212 z m -0.707228,-1.515488 q -0.300367,0 -0.466934,0.210257 -0.163837,0.207526 -0.163837,0.548852 0,0.349518 0.166567,0.546122 0.166568,0.196604 0.464204,0.196604 0.06553,0 0.122878,-0.01092 0.06007,-0.01092 0.111955,-0.03277 l -0.210257,-0.177489 0.185681,-0.199335 0.248486,0.210257 q 0.07919,-0.09011 0.120146,-0.22391 0.04369,-0.13653 0.04369,-0.308559 0,-0.346787 -0.163836,-0.551583 -0.163837,-0.207526 -0.458743,-0.207526 z M 77.178558,27.9529 v 1.97423 H 76.83177 V 27.9529 Z m 1.504564,1.176892 -0.31129,-0.843758 -0.316751,0.843758 z m -0.729073,0.270331 -0.196604,0.527007 h -0.352249 l 0.794608,-1.97423 h 0.354979 l 0.789146,1.97423 h -0.36044 l -0.199335,-0.527007 z m 3.514293,-0.450551 q 0,0.475126 -0.264869,0.745457 -0.262139,0.267599 -0.718151,0.267599 -0.464203,0 -0.726342,-0.27033 -0.262138,-0.27033 -0.262138,-0.742726 0,-0.480587 0.264869,-0.753648 0.264869,-0.275792 0.723611,-0.275792 0.464204,0 0.723612,0.273061 0.259408,0.273061 0.259408,0.756379 z m -0.98302,0.742726 q 0.297637,0 0.458743,-0.196604 0.163836,-0.196604 0.163836,-0.546122 0,-0.346787 -0.163836,-0.551583 -0.163837,-0.207526 -0.458743,-0.207526 -0.300367,0 -0.466934,0.210257 -0.163837,0.207526 -0.163837,0.548852 0,0.349518 0.166568,0.546122 0.166567,0.196604 0.464203,0.196604 z M 84.02146,29.92713 H 82.560584 V 27.9529 h 1.452684 v 0.27033 h -1.105897 v 0.557044 h 1.032171 v 0.270331 H 82.907371 V 29.6568 h 1.114089 z m 1.753053,0 h -1.38715 V 27.9529 h 0.346788 v 1.7039 h 1.040362 z m 1.747593,0 H 86.06123 V 27.9529 h 1.452684 v 0.27033 h -1.105897 v 0.557044 h 1.032171 v 0.270331 H 86.408017 V 29.6568 h 1.114089 z m 0.701769,-1.422647 V 29.92713 H 87.88801 V 27.9529 h 0.439628 l 0.567967,1.531872 0.546122,-1.531872 h 0.450551 v 1.97423 h -0.338596 v -1.43357 l -0.513355,1.43357 h -0.292175 z m 3.582559,1.422647 H 90.345558 V 27.9529 h 1.452685 v 0.27033 h -1.105897 v 0.557044 h 1.03217 v 0.270331 h -1.03217 V 29.6568 h 1.114088 z m 0.71269,-1.425378 V 29.92713 H 92.172336 V 27.9529 h 0.35771 l 0.969367,1.458145 V 27.9529 H 93.8462 v 1.97423 h -0.379554 z m 2.20087,-0.278522 H 94.105607 V 27.9529 h 1.572831 v 0.27033 h -0.611656 v 1.7039 h -0.346788 z m 2.271867,0.906562 -0.311289,-0.843758 -0.316751,0.843758 z m -0.729073,0.270331 -0.196603,0.527007 h -0.352249 l 0.794607,-1.97423 h 0.35498 l 0.789146,1.97423 h -0.360441 l -0.199334,-0.527007 z m 2.853485,-0.881987 q 0,-0.144723 -0.07646,-0.218449 -0.07646,-0.07646 -0.221179,-0.07646 h -0.592543 v 0.614387 h 0.573428 q 0.141992,0 0.229371,-0.08465 0.08738,-0.08465 0.08738,-0.234832 z m -0.890179,0.587081 V 29.92713 H 97.879307 V 27.9529 h 1.004864 q 0.270331,0 0.428706,0.144722 0.161106,0.141992 0.161106,0.40413 0,0.172029 -0.08192,0.294906 -0.07919,0.122877 -0.199335,0.174759 0.152914,0.08738 0.234833,0.303098 0.08192,0.215718 0.103763,0.652615 h -0.360441 q -0.01638,-0.458742 -0.101032,-0.638962 -0.08192,-0.182951 -0.26487,-0.182951 z m 2.381096,-0.278522 0.5625,-0.873795 h 0.38775 l -0.77822,1.160509 v 0.813721 h -0.34679 V 29.113409 L 99.640553,27.9529 h 0.395937 z m 2.5422,0.207526 q -0.36044,-0.06553 -0.5352,-0.202065 -0.17476,-0.136531 -0.17476,-0.382285 0,-0.229372 0.18568,-0.379555 0.18841,-0.150184 0.57889,-0.150184 0.35771,0 0.55431,0.152914 0.19661,0.152914 0.21572,0.442359 h -0.34679 q -0.003,-0.139261 -0.10922,-0.232102 -0.1065,-0.09284 -0.32494,-0.09284 -0.2048,0 -0.3031,0.06827 -0.0983,0.06827 -0.0956,0.191143 0,0.133799 0.13107,0.199334 0.1338,0.06554 0.43416,0.125608 0.37683,0.07646 0.5352,0.207526 0.16111,0.13107 0.16111,0.393208 0,0.251216 -0.21299,0.420514 -0.21299,0.166567 -0.60619,0.166567 -0.4014,0 -0.62531,-0.169297 -0.22391,-0.169298 -0.22391,-0.48878 h 0.34678 q 0,0.17749 0.1338,0.283984 0.1338,0.103763 0.37137,0.103763 0.21844,0 0.34132,-0.08465 0.12288,-0.08465 0.12288,-0.221179 0,-0.158376 -0.12288,-0.226641 -0.12288,-0.06826 -0.43143,-0.125608 z m 2.63504,0.204796 h 0.34678 q -0.0136,0.324942 -0.22664,0.524277 -0.21299,0.199334 -0.61712,0.199334 -0.47785,0 -0.7318,-0.27033 -0.25122,-0.27033 -0.25122,-0.750918 0,-0.475126 0.25122,-0.748187 0.25395,-0.273061 0.72634,-0.273061 0.37956,0 0.58981,0.174759 0.21026,0.172029 0.2403,0.44782 h -0.34679 q -0.0218,-0.158375 -0.14472,-0.253946 -0.12288,-0.0983 -0.34679,-0.0983 -0.27579,0 -0.44236,0.185681 -0.16656,0.185682 -0.16656,0.565236 0,0.385016 0.16656,0.567967 0.1693,0.182951 0.44782,0.182951 0.23757,0 0.3659,-0.122877 0.12834,-0.125608 0.13927,-0.330404 z m 1.03216,-0.188412 V 29.92713 H 106.4698 V 27.9529 h 0.34679 v 0.827374 h 0.94752 V 27.9529 h 0.34679 v 1.97423 h -0.34679 v -0.876525 z m 3.64537,-0.101033 q 0,0.475126 -0.26487,0.745457 -0.26214,0.267599 -0.71815,0.267599 -0.46421,0 -0.72634,-0.27033 -0.26214,-0.27033 -0.26214,-0.742726 0,-0.480587 0.26487,-0.753648 0.26487,-0.275792 0.72361,-0.275792 0.4642,0 0.72361,0.273061 0.25941,0.273061 0.25941,0.756379 z m -0.98302,0.742726 q 0.29763,0 0.45874,-0.196604 0.16384,-0.196604 0.16384,-0.546122 0,-0.346787 -0.16384,-0.551583 -0.16384,-0.207526 -0.45874,-0.207526 -0.30037,0 -0.46694,0.210257 -0.16383,0.207526 -0.16383,0.548852 0,0.349518 0.16656,0.546122 0.16657,0.196604 0.46421,0.196604 z m 3.25762,-0.742726 q 0,0.475126 -0.26487,0.745457 -0.26214,0.267599 -0.71815,0.267599 -0.46421,0 -0.72635,-0.27033 -0.26214,-0.27033 -0.26214,-0.742726 0,-0.480587 0.26487,-0.753648 0.26487,-0.275792 0.72362,-0.275792 0.4642,0 0.72361,0.273061 0.25941,0.273061 0.25941,0.756379 z m -0.98302,0.742726 q 0.29763,0 0.45874,-0.196604 0.16383,-0.196604 0.16383,-0.546122 0,-0.346787 -0.16383,-0.551583 -0.16384,-0.207526 -0.45874,-0.207526 -0.30037,0 -0.46694,0.210257 -0.16384,0.207526 -0.16384,0.548852 0,0.349518 0.16657,0.546122 0.16657,0.196604 0.46421,0.196604 z m 2.74699,0.234832 h -1.38715 V 27.9529 h 0.34679 v 1.7039 h 1.04036 z"
         id="text5-8"
         aria-label="DAQIAO ELEMENTARY SCHOOL" />
      <path
         d="m 70.426722,31.619014 h 2.22501 v 0.246664 h -2.22501 z m 1.253456,0.09816 q 0.08054,0.297003 0.216461,0.553735 0.138433,0.256732 0.337275,0.45054 0.201358,0.19129 0.465641,0.302037 -0.0302,0.02517 -0.06544,0.06544 -0.03272,0.04027 -0.06292,0.08054 -0.0302,0.04279 -0.05034,0.07551 -0.279385,-0.130883 -0.488295,-0.344827 -0.206392,-0.21646 -0.34986,-0.500879 -0.143468,-0.284418 -0.24163,-0.624211 z m -0.276868,-0.8004 h 0.259249 q 0,0.178706 -0.01007,0.385098 -0.0075,0.203875 -0.03775,0.420336 -0.0302,0.21646 -0.09816,0.43292 -0.06796,0.216461 -0.188774,0.417819 -0.120815,0.201358 -0.309588,0.37503 -0.188774,0.171155 -0.460608,0.299521 -0.0302,-0.04782 -0.08054,-0.105714 -0.05034,-0.05537 -0.100679,-0.09313 0.261766,-0.118298 0.440471,-0.274351 0.181223,-0.158569 0.29197,-0.342309 0.113264,-0.186256 0.173671,-0.385098 0.06041,-0.198841 0.08558,-0.397683 0.02517,-0.198841 0.0302,-0.385098 0.005,-0.186256 0.005,-0.347343 z m 2.335758,0.415302 h 1.44978 v 0.186256 h -1.44978 z m 0.505913,0.470675 v 0.18374 h 0.415301 v -0.18374 z m -0.198842,-0.148502 h 0.823053 v 0.478226 h -0.823053 z m -0.279384,0.581423 h 1.266041 v 0.183739 h -1.049581 v 0.835637 h -0.21646 z m 1.165361,0 h 0.221495 v 0.785297 q 0,0.07803 -0.02014,0.123332 -0.01762,0.04531 -0.07551,0.07299 -0.05537,0.02265 -0.138434,0.02769 -0.08054,0.005 -0.196324,0.005 -0.0076,-0.04279 -0.0302,-0.10068 -0.02014,-0.05537 -0.04279,-0.09565 0.08306,0.0025 0.148501,0.0025 0.06796,0 0.09061,0 0.02517,-0.0025 0.03272,-0.01007 0.01007,-0.0076 0.01007,-0.02769 z m -0.02014,-1.293728 0.138434,0.156053 q -0.120815,0.02769 -0.269316,0.04782 -0.145985,0.02014 -0.309589,0.03524 -0.161087,0.01258 -0.32469,0.02014 -0.161087,0.0076 -0.312106,0.01007 -0.005,-0.03524 -0.02014,-0.08054 -0.0151,-0.04782 -0.0302,-0.08054 0.145985,-0.005 0.302038,-0.01259 0.15857,-0.01007 0.309589,-0.02265 0.153535,-0.01259 0.286935,-0.0302 0.1334,-0.01762 0.229045,-0.04279 z m -0.186256,0.455573 q 0.05286,0.09313 0.135917,0.186257 0.08558,0.09061 0.186256,0.16612 0.10068,0.07299 0.206393,0.118299 -0.03524,0.02769 -0.08054,0.08054 -0.04279,0.05034 -0.06544,0.09061 -0.110747,-0.05789 -0.213943,-0.148502 -0.103197,-0.09313 -0.191291,-0.206392 -0.08809,-0.113264 -0.148502,-0.226528 z m -0.470675,-0.251698 0.21646,0.02769 q -0.04531,0.163604 -0.130883,0.322173 -0.08558,0.156053 -0.218977,0.294487 -0.1334,0.138434 -0.324691,0.251698 -0.01259,-0.02769 -0.04027,-0.05789 -0.02517,-0.0302 -0.05286,-0.05537 -0.02769,-0.02769 -0.05034,-0.04279 0.176189,-0.09564 0.297004,-0.21646 0.120815,-0.120815 0.193808,-0.254215 0.07551,-0.135917 0.110747,-0.269317 z m -0.0151,1.39189 h 0.538634 v 0.478226 H 74.239947 V 32.87247 h 0.362445 v -0.188774 h -0.362445 z m -0.103196,0 h 0.173671 v 0.58394 h -0.173671 z m -1.220736,-1.084818 h 0.795366 v 0.221494 h -0.795366 z m 0.31714,-0.536117 h 0.21646 v 2.333241 h -0.21646 z m -0.005,0.677068 0.138434,0.04782 q -0.02769,0.148502 -0.06796,0.309589 -0.03775,0.161087 -0.09061,0.317139 -0.05034,0.156053 -0.110747,0.29197 -0.06041,0.1334 -0.125849,0.229045 -0.01762,-0.04782 -0.05286,-0.10823 -0.03272,-0.06041 -0.06041,-0.103196 0.06041,-0.08306 0.115781,-0.198842 0.05789,-0.115781 0.105713,-0.246664 0.05034,-0.1334 0.08809,-0.271833 0.03775,-0.138434 0.06041,-0.2668 z m 0.206392,0.224011 q 0.02014,0.02517 0.06293,0.09061 0.04279,0.06292 0.09061,0.138434 0.05034,0.07551 0.09061,0.140951 0.04279,0.06292 0.05789,0.09061 l -0.120815,0.171155 q -0.02014,-0.05034 -0.05789,-0.123332 -0.03524,-0.07551 -0.07803,-0.156053 -0.04279,-0.08054 -0.08054,-0.148502 -0.03776,-0.07047 -0.06041,-0.10823 z m 3.012825,-0.865841 h 0.259249 v 1.988414 q 0,0.120815 -0.03272,0.178706 -0.0302,0.05789 -0.10823,0.08809 -0.07551,0.02769 -0.201358,0.03524 -0.125849,0.01007 -0.304555,0.01007 -0.0076,-0.03524 -0.02517,-0.08054 -0.0151,-0.04279 -0.03524,-0.08809 -0.01762,-0.04531 -0.03775,-0.08054 0.09061,0.005 0.173672,0.0076 0.08558,0 0.148502,0 0.06544,-0.0025 0.09313,-0.0025 0.03775,-0.0025 0.05286,-0.0151 0.01762,-0.0151 0.01762,-0.05286 z m 0.606592,0.649381 0.231563,-0.08558 q 0.10823,0.176189 0.206392,0.380064 0.100679,0.201359 0.176188,0.395166 0.07803,0.193808 0.108231,0.347343 l -0.259249,0.103197 q -0.02769,-0.151019 -0.09816,-0.347344 -0.06796,-0.196324 -0.163603,-0.402716 -0.09565,-0.20891 -0.201359,-0.390132 z m -1.266041,-0.06544 0.269317,0.04531 q -0.04027,0.186256 -0.103196,0.392649 -0.06292,0.206392 -0.148502,0.395166 -0.08558,0.186256 -0.196324,0.327207 -0.02769,-0.02014 -0.07048,-0.04279 -0.04027,-0.02517 -0.08306,-0.0453 -0.04279,-0.02265 -0.07551,-0.03776 0.10823,-0.130883 0.188773,-0.307072 0.08054,-0.178705 0.135917,-0.369996 0.05537,-0.19129 0.08306,-0.357411 z m 2.617659,0.234079 h 1.210668 v 0.20891 h -1.210668 z m -0.43292,0.571355 h 2.237595 v 0.218977 h -2.237595 z m 0.99169,-0.176189 h 0.244147 v 0.820536 q 0,0.09816 -0.0302,0.151018 -0.02769,0.05286 -0.10823,0.08054 -0.07803,0.02517 -0.193807,0.0302 -0.115781,0.0075 -0.284419,0.0075 -0.01007,-0.05034 -0.04027,-0.118298 -0.02769,-0.06544 -0.05789,-0.113264 0.08809,0.0025 0.171154,0.005 0.08558,0.0025 0.148502,0.0025 0.06292,-0.0025 0.08809,-0.0025 0.03776,-0.0025 0.05034,-0.01259 0.01259,-0.01007 0.01259,-0.03775 z m 0.576388,-0.395166 h 0.05789 l 0.05286,-0.01259 0.151019,0.115781 q -0.08558,0.09061 -0.196324,0.178706 -0.110747,0.08809 -0.234079,0.163604 -0.120815,0.07551 -0.24163,0.1334 -0.02265,-0.03272 -0.06292,-0.07299 -0.03776,-0.04279 -0.06796,-0.06796 0.103196,-0.04782 0.206392,-0.115781 0.105713,-0.06796 0.193807,-0.138434 0.08809,-0.07299 0.140951,-0.138434 z M 78.0129,31.327044 h 2.159568 V 31.9135 H 79.938389 V 31.53847 H 78.239428 V 31.9135 H 78.0129 Z m 1.77447,-0.395166 0.254215,0.08054 q -0.08306,0.120815 -0.176188,0.239113 -0.09313,0.118299 -0.171155,0.201359 l -0.19129,-0.07551 q 0.05034,-0.06041 0.103196,-0.138433 0.05286,-0.07803 0.100679,-0.15857 0.05034,-0.08054 0.08054,-0.148502 z m -1.603316,0.103196 0.201359,-0.09061 q 0.07048,0.07551 0.138433,0.171155 0.06796,0.09564 0.09816,0.168637 l -0.211427,0.103196 q -0.0302,-0.07299 -0.09565,-0.171154 -0.06544,-0.09816 -0.130883,-0.181223 z m 0.64183,-0.05286 0.208909,-0.07803 q 0.06041,0.08558 0.118298,0.193808 0.06041,0.105713 0.08306,0.183739 l -0.221494,0.08809 q -0.02014,-0.08054 -0.07551,-0.188774 -0.05286,-0.110747 -0.113264,-0.198841 z m 2.529565,0.297003 h 1.389373 v 0.218977 h -1.389373 z m 0.571355,-0.362445 h 0.234079 V 31.3799 h -0.234079 z m -0.256732,0.634279 0.21646,0.08809 q -0.08054,0.15857 -0.196325,0.312106 -0.113264,0.151019 -0.239113,0.259249 -0.02769,-0.03272 -0.07803,-0.07551 -0.04782,-0.0453 -0.08558,-0.07299 0.115781,-0.09565 0.218977,-0.236596 0.103196,-0.140951 0.163604,-0.274351 z m 0.523531,0.09564 0.186257,-0.103196 q 0.07803,0.08054 0.15857,0.176189 0.08054,0.09313 0.145984,0.186256 0.06796,0.09313 0.105714,0.171155 l -0.201359,0.115781 q -0.03524,-0.07803 -0.09816,-0.171155 -0.06292,-0.09564 -0.140951,-0.193807 -0.07803,-0.09816 -0.156053,-0.181223 z m -0.395165,0.369996 q 0.08558,0.234079 0.226528,0.437955 0.143468,0.201358 0.337275,0.354894 0.193808,0.153536 0.432921,0.239113 -0.02769,0.02265 -0.06041,0.06041 -0.0302,0.03775 -0.06041,0.07803 -0.02769,0.04027 -0.04782,0.07299 Q 82.37986,33.154371 82.181019,32.9807 81.984694,32.807028 81.836192,32.577983 81.690207,32.346421 81.592045,32.074587 Z m 0.442988,-0.0151 0.24163,0.04782 q -0.08558,0.271834 -0.231562,0.505913 -0.145985,0.234079 -0.362445,0.412785 -0.21646,0.178705 -0.518498,0.291969 -0.01259,-0.02769 -0.03524,-0.06292 -0.02014,-0.03272 -0.0453,-0.06796 -0.02265,-0.03272 -0.04279,-0.05789 0.276868,-0.09816 0.475709,-0.256732 0.201359,-0.161087 0.329725,-0.367479 0.128366,-0.208909 0.188773,-0.445506 z m -1.774471,-0.553735 h 0.863324 v 0.221494 h -0.863324 z m 0.347343,-0.531083 h 0.221495 v 2.333241 h -0.221495 z m -0.005,0.677068 0.143468,0.04782 q -0.0302,0.151019 -0.07551,0.314623 -0.04279,0.161087 -0.09816,0.317139 -0.05537,0.153536 -0.118298,0.289453 -0.06293,0.1334 -0.1334,0.229045 -0.01762,-0.04782 -0.05286,-0.10823 -0.03272,-0.06292 -0.06292,-0.105713 0.06544,-0.08306 0.123332,-0.196325 0.06041,-0.115781 0.113264,-0.249181 0.05286,-0.1334 0.09313,-0.269316 0.04279,-0.138434 0.06796,-0.269317 z m 0.216461,0.224011 q 0.02265,0.02769 0.06796,0.09313 0.04782,0.06544 0.103196,0.145985 0.05537,0.07803 0.10068,0.145985 0.0453,0.06544 0.06292,0.09564 l -0.1334,0.178706 q -0.02265,-0.05286 -0.06292,-0.128366 -0.04027,-0.07551 -0.08809,-0.15857 -0.0453,-0.08306 -0.08809,-0.153536 -0.04279,-0.07299 -0.07048,-0.115781 z"
         id="text5-9-1"
         style="font-weight:500;font-size:2.51698px;line-height:1.25;font-family:'Noto Sans JP';-inkscape-font-specification:'Noto Sans JP Medium';stroke-width:0.0898921"
         aria-label="大橋小学校" />
      <path
         style="font-weight:500;font-size:2.51698px;line-height:1.25;font-family:'Noto Sans kr';-inkscape-font-specification:'Noto Sans kr Medium';stroke-width:0.0898921"
         d="m 87.597097,31.010636 h 0.264283 v 2.305553 h -0.264283 z m 0.206393,0.88346 h 0.415301 v 0.218977 H 87.80349 Z m -1.631003,0.636796 h 0.186256 q 0.206392,0 0.380064,-0.005 0.173672,-0.0076 0.337275,-0.02265 0.163604,-0.01762 0.332242,-0.04782 l 0.02769,0.218977 q -0.173672,0.03272 -0.34231,0.05034 -0.16612,0.0151 -0.347343,0.02265 -0.178706,0.005 -0.387615,0.005 h -0.186256 z m 0,-1.301279 h 1.069716 v 0.213943 h -0.80795 v 1.190532 h -0.261766 z m 2.756093,0.352377 h 0.208909 v 0.161087 q 0,0.181222 -0.04279,0.354894 -0.04279,0.173672 -0.125849,0.327207 -0.08306,0.151019 -0.198841,0.2668 -0.113264,0.115781 -0.261766,0.186257 l -0.143468,-0.203876 q 0.130883,-0.06292 0.236596,-0.161086 0.105713,-0.100679 0.178706,-0.226528 0.07299,-0.125849 0.110747,-0.264283 0.03775,-0.138434 0.03775,-0.279385 z m 0.05537,0 h 0.206393 v 0.161087 q 0,0.130883 0.03524,0.264283 0.03776,0.130883 0.105713,0.251698 0.07048,0.118298 0.171155,0.21646 0.100679,0.09564 0.231562,0.15857 l -0.145985,0.201358 q -0.14095,-0.06796 -0.254215,-0.181222 -0.110747,-0.115781 -0.188773,-0.259249 -0.07803,-0.145985 -0.120815,-0.312106 -0.04027,-0.16612 -0.04027,-0.339792 z m -0.551218,-0.181222 h 1.243388 v 0.208909 h -1.243388 z m 0.495845,-0.34231 h 0.261766 v 0.455574 H 88.92858 Z m 0.984139,-0.04531 h 0.264283 v 2.300519 h -0.264283 z m 0.206392,0.921214 h 0.415302 v 0.218978 h -0.415302 z m 1.497603,0.37503 h 0.264283 v 0.551219 h -0.264283 z m 0.1334,-1.160327 q 0.244147,0 0.432921,0.07551 0.19129,0.07551 0.302037,0.213943 0.110748,0.138434 0.110748,0.324691 0,0.188773 -0.110748,0.327207 -0.110747,0.138434 -0.302037,0.21646 -0.188774,0.07551 -0.432921,0.07551 -0.244147,0 -0.435437,-0.07551 -0.191291,-0.07803 -0.302038,-0.21646 -0.110747,-0.138434 -0.110747,-0.327207 0,-0.186257 0.110747,-0.324691 0.110747,-0.138434 0.302038,-0.213943 0.19129,-0.07551 0.435437,-0.07551 z m 0,0.208909 q -0.173671,0 -0.307071,0.05034 -0.130883,0.04782 -0.206393,0.138433 -0.07551,0.09061 -0.07551,0.216461 0,0.125849 0.07551,0.218977 0.07551,0.09061 0.206393,0.140951 0.1334,0.04782 0.307071,0.04782 0.171155,0 0.304555,-0.04782 0.1334,-0.05034 0.208909,-0.140951 0.07551,-0.09313 0.07551,-0.218977 0,-0.125849 -0.07551,-0.216461 -0.07551,-0.09061 -0.208909,-0.138433 -0.1334,-0.05034 -0.304555,-0.05034 z m -1.039512,1.454814 h 2.084059 v 0.216461 h -2.084059 z m 2.315621,0.0076 h 2.08406 v 0.216461 h -2.08406 z m 0.90863,-0.488294 h 0.264283 v 0.599041 h -0.264283 z m 0,-0.840671 h 0.231562 v 0.05034 q 0,0.171155 -0.07048,0.31714 -0.06796,0.143468 -0.196325,0.256732 -0.125849,0.113264 -0.29952,0.188773 -0.173672,0.07551 -0.382581,0.108231 l -0.09816,-0.20891 q 0.186256,-0.02769 0.337275,-0.08809 0.151019,-0.06292 0.256732,-0.151019 0.105713,-0.08809 0.163604,-0.196324 0.05789,-0.10823 0.05789,-0.226529 z m 0.03272,0 h 0.231562 v 0.05034 q 0,0.118299 0.05789,0.226529 0.05789,0.10823 0.163603,0.196324 0.105713,0.08809 0.256732,0.151019 0.151019,0.06041 0.337276,0.08809 l -0.09816,0.20891 q -0.208909,-0.03272 -0.382581,-0.108231 -0.173671,-0.07551 -0.302037,-0.188773 -0.125849,-0.113264 -0.196325,-0.256732 -0.06796,-0.145985 -0.06796,-0.31714 z M 93.21248,31.352945 h 1.706512 v 0.213943 H 93.21248 Z m 0.722373,-0.299521 h 0.264283 v 0.382581 h -0.264283 z m 1.409509,1.034479 h 2.079025 v 0.21646 h -2.079025 z m 0.256732,-0.402717 h 1.580663 v 0.211427 h -1.580663 z m 0,-0.594007 h 1.568078 v 0.213943 H 95.86286 v 0.480744 h -0.261766 z m 0.77523,1.381822 q 0.372513,0 0.581422,0.110747 0.211426,0.10823 0.211426,0.309589 0,0.198841 -0.211426,0.307071 -0.208909,0.10823 -0.581422,0.10823 -0.36748,0 -0.578906,-0.10823 -0.211426,-0.10823 -0.211426,-0.307071 0,-0.201359 0.211426,-0.309589 0.211426,-0.110747 0.578906,-0.110747 z m 0,0.203875 q -0.166121,0 -0.284419,0.02517 -0.118298,0.02517 -0.181223,0.07299 -0.06041,0.0453 -0.06041,0.118298 0,0.07047 0.06041,0.118298 0.06293,0.04782 0.181223,0.07299 0.118298,0.02265 0.284419,0.02265 0.171154,0 0.286935,-0.02265 0.118298,-0.02517 0.178706,-0.07299 0.06041,-0.04782 0.06041,-0.118298 0,-0.07299 -0.06041,-0.118298 -0.06041,-0.04782 -0.178706,-0.07299 -0.115781,-0.02517 -0.286935,-0.02517 z m 1.283659,-1.439712 h 1.356652 v 0.208909 h -1.356652 z m 0.679585,0.307071 q 0.163603,0 0.289452,0.05286 0.125849,0.05286 0.196325,0.148502 0.07048,0.09313 0.07048,0.218977 0,0.125849 -0.07048,0.221494 -0.07048,0.09313 -0.196325,0.145985 -0.125849,0.05034 -0.289452,0.05034 -0.166121,0 -0.29197,-0.05034 -0.125849,-0.05286 -0.196324,-0.145985 -0.07048,-0.09564 -0.07048,-0.221494 0,-0.125849 0.07048,-0.218977 0.07048,-0.09565 0.196324,-0.148502 0.125849,-0.05286 0.29197,-0.05286 z m 0,0.203876 q -0.138434,0 -0.224011,0.05789 -0.08306,0.05537 -0.08306,0.15857 0,0.100679 0.08306,0.15857 0.08558,0.05789 0.224011,0.05789 0.135917,0 0.218977,-0.05789 0.08306,-0.05789 0.08306,-0.15857 0,-0.103196 -0.08306,-0.15857 -0.08306,-0.05789 -0.218977,-0.05789 z m 0.850739,-0.734958 h 0.261766 v 1.439712 h -0.261766 z m 0.19129,0.614143 h 0.395166 v 0.218977 h -0.395166 z m -1.439712,0.936316 h 1.510188 v 0.75006 h -0.261766 v -0.538633 h -1.248422 z m 0.264283,-1.563044 h 0.264283 v 0.354894 h -0.264283 z m 1.975832,0.226528 h 1.46991 v 0.213943 H 100.182 Z m -0.208911,1.568078 h 2.079021 v 0.216461 h -2.079021 z m 0.478221,-0.745026 h 0.25925 v 0.818019 h -0.25925 z m 1.12006,-0.823052 h 0.26177 v 0.239113 q 0,0.143468 -0.003,0.299521 -0.003,0.156052 -0.0201,0.337275 -0.0151,0.181223 -0.0554,0.405234 l -0.26177,-0.02769 q 0.0579,-0.317139 0.068,-0.55877 0.0101,-0.244147 0.0101,-0.455573 z m -0.55122,0.823052 h 0.25925 v 0.818019 h -0.25925 z"
         id="text5-9-1-0"
         aria-label="다차오초등학교" />
      <path
         id="rect2"
         style="stroke-width:0.587795"
         d="m 66.943565,20.257812 h 0.814439 V 33.26008 h -0.814439 z" />
    </g>
    <text
       xml:space="preserve"
       transform="matrix(0.31615295,0,0,0.31615295,-10.474341,-6.4462013)"
       id="text6"
       style="font-size:55px;line-height:1.25;font-family:'Microsoft JhengHei';-inkscape-font-specification:'Microsoft JhengHei';white-space:pre;shape-inside:url(#rect6);display:inline" />
  </g>
</svg>
