<?xml version="1.0" encoding="UTF-8" standalone="no"?>
<!-- Created with Inkscape (http://www.inkscape.org/) -->

<svg
   width="500"
   height="250"
   viewBox="0 0 132.29166 66.145833"
   version="1.1"
   id="svg1"
   inkscape:version="1.3.2 (091e20e, 2023-11-25, custom)"
   sodipodi:docname="o13.svg"
   xmlns:inkscape="http://www.inkscape.org/namespaces/inkscape"
   xmlns:sodipodi="http://sodipodi.sourceforge.net/DTD/sodipodi-0.dtd"
   xmlns="http://www.w3.org/2000/svg"
   xmlns:svg="http://www.w3.org/2000/svg">
  <sodipodi:namedview
     id="namedview1"
     pagecolor="#9e652e"
     bordercolor="#ffffff"
     borderopacity="1"
     inkscape:showpageshadow="0"
     inkscape:pageopacity="0"
     inkscape:pagecheckerboard="false"
     inkscape:deskcolor="#d1d1d1"
     inkscape:document-units="mm"
     inkscape:zoom="2.0208096"
     inkscape:cx="192.49711"
     inkscape:cy="117.27973"
     inkscape:window-width="1920"
     inkscape:window-height="1009"
     inkscape:window-x="1912"
     inkscape:window-y="-8"
     inkscape:window-maximized="1"
     inkscape:current-layer="layer1" />
  <defs
     id="defs1">
    <rect
       x="560.66638"
       y="34.144731"
       width="279.32397"
       height="128.59143"
       id="rect6" />
    <rect
       x="157.85752"
       y="62.351248"
       width="329.07603"
       height="135.09437"
       id="rect4" />
    <rect
       x="157.85751"
       y="62.35125"
       width="329.07602"
       height="135.09438"
       id="rect4-5" />
    <rect
       x="157.85751"
       y="62.35125"
       width="329.07602"
       height="135.09438"
       id="rect4-5-7" />
  </defs>
  <g
     inkscape:label="Layer 1"
     inkscape:groupmode="layer"
     id="layer1">
    <rect
       style="fill:#f4eed7;fill-opacity:1;stroke:none;stroke-width:0.953294;stroke-dasharray:none"
       id="rect5"
       width="132.29167"
       height="66.145836"
       x="-2.5431316e-06"
       y="-1.2715658e-06"
       ry="0" />
    <g
       id="g4"
       transform="matrix(1.0498224,0,0,1.0498224,19.544718,-1.6477732)">
      <path
         id="rect1"
         style="fill-opacity:0;stroke:#000000;stroke-width:0.763747"
         d="M 8.4670539,17.907885 H 18.532584 c 3.181282,0 5.742387,2.561104 5.742387,5.742387 v 18.84529 c 0,3.181283 -2.561105,5.742387 -5.742387,5.742387 H 8.4670539 c -3.1812826,0 -5.7423873,-2.561104 -5.7423873,-5.742387 v -18.84529 c 0,-3.181283 2.5611047,-5.742387 5.7423873,-5.742387 z" />
      <path
         style="font-size:11.299px;line-height:1.25;font-family:'AR UDJingXiHeiE1G30 EB';-inkscape-font-specification:'AR UDJingXiHeiE1G30 EB';stroke-width:0.235395"
         d="m 17.578784,27.367438 q 0,1.966026 -1.096003,3.084627 -1.084704,1.107302 -2.971637,1.107302 -1.92083,0 -3.005534,-1.118601 -1.0847038,-1.118601 -1.0847038,-3.073328 0,-1.988624 1.0960028,-3.118524 1.096003,-1.141199 2.994235,-1.141199 1.92083,0 2.994235,1.1299 1.073405,1.1299 1.073405,3.129823 z m -4.06764,3.073328 q 1.231591,0 1.898232,-0.813528 0.67794,-0.813528 0.67794,-2.2598 0,-1.434973 -0.67794,-2.282398 -0.67794,-0.858724 -1.898232,-0.858724 -1.24289,0 -1.932129,0.870023 -0.67794,0.858724 -0.67794,2.271099 0,1.446272 0.689239,2.2598 0.689239,0.813528 1.92083,0.813528 z"
         id="text2"
         aria-label="O" />
      <path
         style="font-size:11.6586px;line-height:1.25;font-family:'AR UDJingXiHeiE1G30 EB';-inkscape-font-specification:'AR UDJingXiHeiE1G30 EB';stroke-width:0.211974"
         d="M 9.5242137,35.917362 8.1601575,37.18815 7.4839587,36.150534 9.6757755,34.156914 h 1.2707875 v 8.429168 H 9.5242137 Z m 7.4265203,-0.74615 q -0.641223,0 -1.00264,0.384734 -0.361416,0.384734 -0.361416,1.002639 H 14.15267 q 0,-1.142542 0.74615,-1.842058 0.757809,-0.699516 2.051914,-0.699516 1.200836,0 1.946986,0.594588 0.746151,0.594589 0.746151,1.702156 0,0.606247 -0.25649,1.072591 -0.256489,0.466344 -0.769467,0.711175 0.652881,0.221513 1.002639,0.74615 0.361417,0.524637 0.361417,1.24747 0,1.24747 -0.792785,1.946986 -0.792785,0.699516 -2.203475,0.699516 -1.434008,0 -2.215134,-0.687857 -0.781126,-0.687857 -0.781126,-1.877035 h 1.445666 q 0,0.629565 0.41971,1.025957 0.431368,0.384734 1.142542,0.384734 0.699516,0 1.095909,-0.384734 0.408051,-0.384734 0.408051,-1.095908 0,-0.594589 -0.373075,-0.967664 -0.373076,-0.384734 -1.072592,-0.384734 h -0.524637 v -1.154201 h 0.524637 q 0.466344,0 0.781127,-0.3381 0.32644,-0.338099 0.32644,-0.90937 0,-0.524637 -0.314782,-0.851078 -0.314782,-0.326441 -0.897712,-0.326441 z"
         id="text3"
         aria-label="13" />
      <path
         style="font-weight:500;font-size:72px;line-height:1.25;font-family:'Noto Sans TC';-inkscape-font-specification:'Noto Sans TC Medium';white-space:pre"
         d="m 173.55342,131.04941 h 40.176 v 6.552 h -40.176 z m -3.384,-20.592 h 47.376 v 30.888 h -7.272 v -24.336 h -33.12 v 24.408 h -6.984 z m 30.312,-24.768004 5.328,-3.528 q 3.384,3.024 7.128,6.84 3.744,3.744 6.912,7.488 3.24,3.744004 5.112,6.768004 l -5.832,4.248 q -1.728,-3.096 -4.824,-6.912 -3.096,-3.816004 -6.768,-7.704004 -3.6,-3.888 -7.056,-7.2 z m -33.48,19.296004 q -0.144,-0.72 -0.576,-1.944 -0.36,-1.224 -0.792,-2.52 -0.432,-1.296004 -0.864,-2.160004 1.368,-0.288 2.736,-1.368 1.368,-1.152 3.168,-2.88 1.008,-0.864 2.88,-2.88 1.872,-2.016 4.176,-4.752 2.304,-2.736 4.68,-5.976 2.376,-3.24 4.392,-6.48 l 6.84,2.952 q -3.312,4.68 -7.128,9.144 -3.744,4.392 -7.632,8.28 -3.816,3.888 -7.632,6.984004 v 0.216 q 0,0 -0.648,0.36 -0.648,0.288 -1.512,0.864 -0.864,0.504 -1.512,1.08 -0.576,0.576 -0.576,1.08 z m 0,0 -0.072,-5.328004 4.824,-2.52 45.216,-1.8 q 0.072,1.368 0.288,3.168 0.216,1.800004 0.432,2.880004 -10.656,0.576 -18.36,1.008 -7.704,0.36 -13.032,0.648 -5.256,0.288 -8.712,0.576 -3.384,0.216 -5.472,0.432 -2.016,0.144 -3.168,0.36 -1.08,0.216 -1.944,0.576 z m 67.248,-12.600004 h 21.24 v 6.84 h -21.24 z m 35.64,-16.416 h 7.128 v 51.912004 q 0,2.808 0.504,3.6 0.576,0.792 2.448,0.792 0.504,0 1.512,0 1.08,0 2.304,0 1.224,0 2.304,0 1.08,0 1.584,0 1.512,0 2.232,-1.368 0.792,-1.44 1.08,-5.112 0.36,-3.744 0.576,-10.44 0.864,0.648 2.016,1.368 1.152,0.648 2.376,1.152 1.224,0.504 2.16,0.72 -0.36,7.488 -1.224,11.952 -0.864,4.392 -2.88,6.336 -1.944,2.016 -5.688,2.016 -0.576,0 -1.872,0 -1.296,0 -2.808,0 -1.512,0 -2.808,0 -1.224,0 -1.8,0 -3.456,0 -5.472,-1.008 -2.016,-0.936 -2.88,-3.384 -0.792,-2.448 -0.792,-6.696 z m -18.072,-0.072 h 7.056 v 53.496004 h -7.056 z m -19.944,57.888004 q 3.888,-1.296 9.144,-3.168 5.256,-1.872 11.088,-4.032 5.904,-2.16 11.664,-4.32 l 1.152,6.048 q -5.112,2.232 -10.44,4.464 -5.328,2.16 -10.296,4.176 -4.968,2.016 -9.216,3.672 z m 41.76,-41.472004 h 23.04 v 6.84 h -23.04 z m 55.296,-5.76 h 41.472 v 5.328 h -41.472 z m 14.472,13.464004 v 5.256 h 11.88 v -5.256 z m -5.688,-4.248004 h 23.544 v 13.680004 h -23.544 z m -7.992,16.632004 h 36.216 v 5.256 h -30.024 v 23.904 h -6.192 z m 33.336,0 h 6.336 v 22.464 q 0,2.232 -0.576,3.528 -0.504,1.296 -2.16,2.088 -1.584,0.648 -3.96,0.792 -2.304,0.144 -5.616,0.144 -0.216,-1.224 -0.864,-2.88 -0.576,-1.584 -1.224,-2.736 2.376,0.072 4.248,0.072 1.944,0 2.592,0 0.72,-0.072 0.936,-0.288 0.288,-0.216 0.288,-0.792 z m -0.576,-37.008004 3.96,4.464 q -3.456,0.792 -7.704,1.368 -4.176,0.576 -8.856,1.008 -4.608,0.36 -9.288,0.576 -4.608,0.216 -8.928,0.288 -0.144,-1.008 -0.576,-2.304 -0.432,-1.368 -0.864,-2.304 4.176,-0.144 8.64,-0.36 4.536,-0.288 8.856,-0.648 4.392,-0.36 8.208,-0.864 3.816,-0.504 6.552,-1.224 z m -5.328,13.032 q 1.512,2.664 3.888,5.328 2.448,2.592 5.328,4.752 2.88,2.088004 5.904,3.384004 -1.008,0.792 -2.304,2.304 -1.224,1.44 -1.872,2.592 -3.168,-1.656 -6.12,-4.248 -2.952,-2.664004 -5.472,-5.904004 -2.52,-3.24 -4.248,-6.48 z m -13.464,-7.2 6.192,0.792 q -1.296,4.68 -3.744,9.216 -2.448,4.464 -6.264,8.424 -3.816,3.960004 -9.288,7.200004 -0.36,-0.792 -1.152,-1.656 -0.72,-0.864 -1.512,-1.584 -0.792,-0.792 -1.44,-1.224 5.04,-2.736004 8.496,-6.192004 3.456,-3.456 5.544,-7.272 2.16,-3.888 3.168,-7.704 z m -0.432,39.816004 h 15.408 v 13.68 h -15.408 v -4.104 h 10.368 v -5.4 h -10.368 z m -2.952,0 h 4.968 v 16.704 h -4.968 z m -34.92,-31.032004 h 22.752 v 6.336 h -22.752 z m 9.072,-15.336 h 6.192 v 66.744004 h -6.192 z m -0.144,19.368 3.96,1.368 q -0.792,4.248 -1.944,8.856004 -1.08,4.608 -2.592,9.072 -1.44,4.464 -3.168,8.352 -1.728,3.816 -3.6,6.552 -0.504,-1.368 -1.512,-3.096 -0.936,-1.728 -1.728,-2.952 1.728,-2.376 3.312,-5.688 1.656,-3.312 3.024,-7.056 1.44,-3.816 2.52,-7.776 1.08,-3.960004 1.728,-7.632004 z m 5.904,6.408004 q 0.576,0.72 1.8,2.592 1.224,1.8 2.592,3.96 1.44,2.16 2.592,4.032 1.224,1.8 1.656,2.592 l -3.456,4.896 q -0.576,-1.44 -1.656,-3.528 -1.008,-2.16 -2.232,-4.464 -1.224,-2.304 -2.304,-4.248 -1.08,-2.016 -1.728,-3.096 z"
         id="text4"
         transform="matrix(0.21197495,0,0,0.21197495,-6.1507324,2.9891337)"
         aria-label="台北橋" />
      <path
         style="font-size:5.9353px;line-height:1.25;font-family:'AR UDJingXiHeiE1G30 EB';-inkscape-font-specification:'AR UDJingXiHeiE1G30 EB';stroke-width:0.211974"
         d="m 29.211226,35.698946 h -1.335443 v -0.587595 h 3.418733 v 0.587595 h -1.329507 v 3.703627 h -0.753783 z m 4.938168,1.970519 -0.676624,-1.834007 -0.688495,1.834007 z m -1.584725,0.587595 -0.427341,1.145513 h -0.765654 l 1.727172,-4.291222 h 0.771589 l 1.715302,4.291222 h -0.78346 L 34.369,38.25706 Z m 4.267475,-3.145709 v 4.291222 h -0.753783 v -4.291222 z m 1.739039,2.587791 v 1.703431 H 37.8174 v -4.291222 h 2.018002 q 0.629142,0 0.98526,0.344248 0.356118,0.344247 0.356118,0.914036 0,0.641012 -0.367989,0.98526 -0.362053,0.344247 -0.979324,0.344247 z m 1.839943,-1.317637 q 0,-0.332376 -0.18993,-0.5045 -0.189929,-0.178059 -0.557918,-0.178059 h -1.092095 v 1.412601 h 1.092095 q 0.367989,0 0.557918,-0.178059 0.18993,-0.183994 0.18993,-0.551983 z m 4.665144,3.021068 h -3.175385 v -4.291222 h 3.157579 v 0.587595 h -2.403796 v 1.210801 h 2.243543 v 0.587595 h -2.243543 v 1.317636 h 2.421602 z m 1.549116,-4.291222 v 4.291222 h -0.753783 v -4.291222 z m 4.795713,4.291222 h -2.255413 v -4.291222 h 2.065484 q 0.611336,0 0.967454,0.296765 0.356118,0.296765 0.356118,0.789395 0,0.320506 -0.142447,0.563854 -0.136512,0.237412 -0.415471,0.391729 0.362053,0.142448 0.546047,0.39173 0.18993,0.249283 0.18993,0.59353 0,0.569789 -0.373924,0.919972 -0.373924,0.344247 -0.937778,0.344247 z m 0.350183,-3.110097 q 0,-0.29083 -0.166188,-0.439212 -0.166189,-0.154318 -0.48076,-0.154318 h -1.204865 v 1.210801 h 1.246413 q 0.267088,0 0.433276,-0.154318 0.172124,-0.160253 0.172124,-0.462953 z m 0.178059,1.839943 q 0,-0.308636 -0.189929,-0.468889 -0.183995,-0.166188 -0.486695,-0.166188 h -1.353248 v 1.317636 h 1.341377 q 0.314571,0 0.498566,-0.172123 0.189929,-0.172124 0.189929,-0.510436 z m 4.225937,-1.792461 q 0,-0.314571 -0.166188,-0.474824 -0.166189,-0.166188 -0.480759,-0.166188 H 54.24037 v 1.335442 h 1.246413 q 0.308636,0 0.498566,-0.183994 0.189929,-0.183994 0.189929,-0.510436 z m -1.934908,1.27609 v 1.786525 h -0.753783 v -4.291222 h 2.184191 q 0.587594,0 0.931842,0.314571 0.350183,0.308636 0.350183,0.878424 0,0.373924 -0.178059,0.641013 -0.172124,0.267088 -0.433277,0.379859 0.332376,0.18993 0.510435,0.658818 0.178059,0.468889 0.225542,1.418537 h -0.78346 q -0.03561,-0.99713 -0.219606,-1.38886 -0.178059,-0.397665 -0.575724,-0.397665 z m 4.338709,-2.504697 v 4.291222 h -0.753783 v -4.291222 z m 4.641402,2.095161 q 0,1.068354 -0.5045,1.632208 -0.498565,0.563853 -1.394796,0.563853 h -1.756848 v -4.291222 h 1.756848 q 0.896231,0 1.394796,0.528242 0.5045,0.528242 0.5045,1.566919 z m -0.783459,0 q 0,-0.777524 -0.320506,-1.139578 -0.314571,-0.367988 -0.919972,-0.367988 H 60.31812 v 3.116032 h 0.884359 q 0.58166,0 0.908101,-0.385794 0.326442,-0.385795 0.326442,-1.222672 z m 4.760103,1.673755 q -0.219606,0.308635 -0.551983,0.457018 -0.326442,0.142447 -0.747848,0.142447 -0.925907,0 -1.471954,-0.581659 -0.546048,-0.587595 -0.546048,-1.638143 0,-1.056484 0.575724,-1.638143 0.575724,-0.581659 1.555049,-0.581659 0.789395,0 1.282025,0.362053 0.498565,0.356118 0.599465,1.020871 h -0.753783 q -0.05935,-0.350182 -0.350183,-0.569788 -0.284894,-0.225542 -0.777524,-0.225542 -0.658818,0 -1.003066,0.427342 -0.344247,0.421406 -0.344247,1.204866 0,0.836877 0.362053,1.234542 0.362053,0.39173 0.98526,0.39173 0.546047,0 0.866554,-0.320506 0.320506,-0.320506 0.320506,-0.735977 v -0.08903 h -1.216737 v -0.587595 h 1.940843 v 2.249479 h -0.724106 z m 4.789786,0.522306 h -3.175386 v -4.291222 h 3.15758 v 0.587595 h -2.403797 v 1.210801 h 2.243544 v 0.587595 h -2.243544 v 1.317636 h 2.421603 z"
         id="text5"
         aria-label="TAIPEI BRIDGE" />
      <path
         d="m 28.99356,46.159572 h 3.305962 v 0.540112 H 28.99356 Z m -0.255217,-1.78059 h 3.86388 v 2.56405 h -0.599466 v -2.029873 h -2.694626 v 2.041743 h -0.569788 z m 1.175189,-2.96765 0.635077,0.213671 q -0.183994,0.356118 -0.409536,0.730042 -0.219606,0.373924 -0.439212,0.712236 -0.219606,0.338312 -0.421406,0.599465 L 28.77989,43.459011 q 0.195865,-0.267089 0.4036,-0.617272 0.213671,-0.356118 0.4036,-0.730042 0.195865,-0.373923 0.326442,-0.700365 z m 1.430407,1.003066 0.439212,-0.326442 q 0.302701,0.243348 0.611336,0.540113 0.314571,0.290829 0.58166,0.587594 0.267088,0.296765 0.421406,0.551983 L 32.910858,44.14157 Q 32.768411,43.892287 32.513193,43.589587 32.257975,43.280952 31.94934,42.978251 31.646639,42.669616 31.343939,42.414398 Z m -3.282221,0.789395 q 0.439213,-0.01187 0.98526,-0.02968 0.546048,-0.01781 1.157384,-0.04155 0.617271,-0.02374 1.252348,-0.04748 0.641012,-0.02968 1.264219,-0.05935 l -0.02374,0.540112 q -0.623207,0.03561 -1.258284,0.06529 -0.629142,0.02968 -1.234542,0.05935 -0.599466,0.02374 -1.139578,0.04748 -0.534177,0.01781 -0.961519,0.03561 z m 5.9353,-0.296765 h 1.750914 v 0.563853 h -1.750914 z m 2.937974,-1.353249 h 0.587594 v 4.350575 q 0,0.237412 0.04748,0.308636 0.05342,0.06529 0.231476,0.06529 0.04155,0 0.142448,0 0.106835,0 0.231476,0 0.124642,0 0.231477,0 0.106835,0 0.154318,0 0.130576,0 0.195865,-0.1009 0.06529,-0.106836 0.09497,-0.373924 0.02968,-0.267089 0.04748,-0.747848 0.07122,0.05342 0.166188,0.106836 0.09497,0.05342 0.195865,0.09496 0.1009,0.03561 0.178059,0.05342 -0.02968,0.551983 -0.106835,0.890295 -0.07122,0.332377 -0.237412,0.480759 -0.166189,0.148383 -0.480759,0.148383 -0.04748,0 -0.172124,0 -0.124641,0 -0.273024,0 -0.148382,0 -0.273024,0 -0.118706,0 -0.166188,0 -0.308636,0 -0.480759,-0.08309 -0.172124,-0.0831 -0.243348,-0.29083 -0.07122,-0.2018 -0.07122,-0.563854 z m -1.466019,-0.0059 h 0.581659 v 5.35364 h -0.581659 z m 3.412797,0.902166 0.409536,0.498565 q -0.284895,0.213671 -0.623207,0.421406 -0.338312,0.207736 -0.69443,0.409536 -0.350183,0.2018 -0.688495,0.379859 -0.02968,-0.09497 -0.1009,-0.225541 -0.06529,-0.130577 -0.124641,-0.213671 0.326441,-0.178059 0.658818,-0.39173 0.332377,-0.219606 0.635077,-0.445148 0.302701,-0.231476 0.528242,-0.433276 z m -5.080617,3.187256 q 0.243348,-0.07716 0.557919,-0.18993 0.31457,-0.112771 0.664753,-0.243347 0.356118,-0.130577 0.712236,-0.267089 l 0.106835,0.510436 q -0.457018,0.2018 -0.931842,0.4036 -0.468888,0.195865 -0.854683,0.356118 z m 8.000785,-3.210998 h 3.418732 v 0.439213 h -3.418732 z m 1.192995,1.109901 v 0.433277 h 0.979324 v -0.433277 z m -0.468889,-0.350182 h 1.940843 v 1.127707 h -1.940843 z m -0.658818,1.371054 h 2.985456 v 0.433277 h -2.47502 v 1.970519 h -0.510436 z m 2.748044,0 h 0.522306 v 1.851814 q 0,0.183994 -0.04748,0.290829 -0.04155,0.106836 -0.178059,0.172124 -0.130577,0.05342 -0.326442,0.06529 -0.189929,0.01187 -0.462953,0.01187 -0.01781,-0.1009 -0.07122,-0.237412 -0.04748,-0.130577 -0.1009,-0.225542 0.195865,0.0059 0.350183,0.0059 0.160253,0 0.213671,0 0.05935,-0.0059 0.07716,-0.02374 0.02374,-0.01781 0.02374,-0.06529 z m -0.04748,-3.050744 0.326442,0.367988 q -0.284895,0.06529 -0.635077,0.112771 -0.344248,0.04748 -0.730042,0.08309 -0.379859,0.02968 -0.765654,0.04748 -0.379859,0.01781 -0.735977,0.02374 -0.01187,-0.08309 -0.04748,-0.18993 -0.03561,-0.11277 -0.07122,-0.189929 0.344247,-0.01187 0.712236,-0.02968 0.373924,-0.02374 0.730042,-0.05342 0.362053,-0.02968 0.676624,-0.07122 0.314571,-0.04155 0.540112,-0.1009 z m -0.439212,1.074289 q 0.124641,0.219606 0.320506,0.439212 0.201801,0.213671 0.439213,0.39173 0.237411,0.172124 0.486694,0.278959 -0.08309,0.06529 -0.18993,0.18993 -0.1009,0.118706 -0.154317,0.213671 -0.261153,-0.136512 -0.504501,-0.350183 -0.243347,-0.219606 -0.451083,-0.486695 -0.207735,-0.267088 -0.350182,-0.534177 z m -1.109901,-0.59353 0.510436,0.06529 q -0.106836,0.385795 -0.308636,0.759719 -0.2018,0.367988 -0.516371,0.69443 -0.314571,0.326441 -0.765654,0.59353 -0.02968,-0.06529 -0.09496,-0.136512 -0.05935,-0.07122 -0.124642,-0.130577 -0.06529,-0.06529 -0.118706,-0.1009 0.415471,-0.225541 0.700366,-0.510435 0.284894,-0.284895 0.457018,-0.599466 0.178059,-0.320506 0.261153,-0.635077 z m -0.03561,3.282221 h 1.270154 v 1.127707 h -1.270154 v -0.338312 h 0.854683 v -0.445148 h -0.854683 z m -0.243347,0 h 0.409536 v 1.37699 h -0.409536 z m -2.87862,-2.558114 h 1.875554 v 0.522306 h -1.875554 z m 0.747847,-1.264219 h 0.510436 v 5.502023 h -0.510436 z m -0.01187,1.596596 0.326441,0.11277 q -0.06529,0.350183 -0.160253,0.730042 -0.08903,0.379859 -0.213671,0.747848 -0.118706,0.367989 -0.261153,0.688495 -0.142447,0.314571 -0.296765,0.540112 -0.04155,-0.112771 -0.124641,-0.255218 -0.07716,-0.142447 -0.142447,-0.243347 0.142447,-0.195865 0.273023,-0.468889 0.136512,-0.273024 0.249283,-0.581659 0.118706,-0.314571 0.207735,-0.641013 0.08903,-0.326441 0.142448,-0.629141 z m 0.486694,0.528241 q 0.04748,0.05935 0.148383,0.213671 0.1009,0.148383 0.213671,0.326442 0.118706,0.178059 0.21367,0.332376 0.1009,0.148383 0.136512,0.213671 l -0.284894,0.403601 q -0.04748,-0.118706 -0.136512,-0.29083 -0.08309,-0.178059 -0.183994,-0.367989 -0.1009,-0.189929 -0.18993,-0.350182 -0.08903,-0.166189 -0.142447,-0.255218 z"
         id="text5-9"
         style="font-weight:500;font-size:5.9353px;line-height:1.25;font-family:'Noto Sans JP';-inkscape-font-specification:'Noto Sans JP Medium';stroke-width:0.211974"
         aria-label="台北橋" />
      <path
         style="font-weight:500;font-size:5.9353px;line-height:1.25;font-family:'Noto Sans KR';-inkscape-font-specification:'Noto Sans KR Medium';stroke-width:0.211974"
         d="m 52.794963,45.238754 h 0.433277 q 0.48076,0 0.890295,-0.01187 0.409536,-0.01187 0.789395,-0.04155 0.385795,-0.03561 0.789395,-0.100901 l 0.05935,0.498566 q -0.409536,0.06529 -0.807201,0.106835 -0.39173,0.03561 -0.813136,0.04748 -0.415471,0.0059 -0.908101,0.0059 h -0.433277 z m 0,-3.175385 h 2.534373 v 0.510436 h -1.917101 v 2.837073 h -0.617272 z m 0.468889,1.519437 h 1.964584 v 0.492629 h -1.964584 z m 2.884556,-1.988326 h 0.623206 v 5.424864 h -0.623206 z m 0.486694,2.124837 h 0.979325 v 0.516372 h -0.979325 z m 5.234935,-2.130772 h 0.623207 v 5.436735 h -0.623207 z m -2.261349,0.397665 q 0.403601,0 0.718171,0.237412 0.320507,0.237412 0.498566,0.664754 0.178059,0.427341 0.178059,1.009 0,0.587595 -0.178059,1.020872 -0.178059,0.427342 -0.498566,0.664754 -0.31457,0.231476 -0.718171,0.231476 -0.4036,0 -0.724106,-0.231476 -0.314571,-0.237412 -0.498566,-0.664754 -0.178059,-0.433277 -0.178059,-1.020872 0,-0.581659 0.178059,-1.009 0.183995,-0.427342 0.498566,-0.664754 0.320506,-0.237412 0.724106,-0.237412 z m 0,0.563853 q -0.237412,0 -0.421406,0.160254 -0.178059,0.160253 -0.278959,0.462953 -0.1009,0.3027 -0.1009,0.724106 0,0.427342 0.1009,0.730042 0.1009,0.302701 0.278959,0.468889 0.183994,0.160253 0.421406,0.160253 0.237412,0 0.415471,-0.160253 0.178059,-0.166188 0.278959,-0.468889 0.1009,-0.3027 0.1009,-0.730042 0,-0.421406 -0.1009,-0.724106 -0.1009,-0.3027 -0.278959,-0.462953 -0.178059,-0.160254 -0.415471,-0.160254 z m 4.059746,-0.439212 h 0.587594 v 1.282025 h 0.943713 v -1.282025 h 0.575724 v 3.578986 h -2.107031 z m 0.587594,1.78059 v 1.293896 h 0.943713 v -1.293896 z m 3.270351,-2.302896 h 0.59353 v 5.424864 h -0.59353 z m -1.851814,2.029872 h 0.979325 v 0.504501 h -0.979325 z m 0.765654,-1.923037 h 0.581659 v 5.062811 h -0.581659 z m 6.350772,-0.106835 h 0.623206 v 5.436735 h -0.623206 z m -2.26135,0.397665 q 0.403601,0 0.718172,0.237412 0.320506,0.237412 0.498565,0.664754 0.178059,0.427341 0.178059,1.009 0,0.587595 -0.178059,1.020872 -0.178059,0.427342 -0.498565,0.664754 -0.314571,0.231476 -0.718172,0.231476 -0.4036,0 -0.724106,-0.231476 -0.314571,-0.237412 -0.498565,-0.664754 -0.178059,-0.433277 -0.178059,-1.020872 0,-0.581659 0.178059,-1.009 0.183994,-0.427342 0.498565,-0.664754 0.320506,-0.237412 0.724106,-0.237412 z m 0,0.563853 q -0.237412,0 -0.421406,0.160254 -0.178059,0.160253 -0.278959,0.462953 -0.1009,0.3027 -0.1009,0.724106 0,0.427342 0.1009,0.730042 0.1009,0.302701 0.278959,0.468889 0.183994,0.160253 0.421406,0.160253 0.237412,0 0.415471,-0.160253 0.178059,-0.166188 0.278959,-0.468889 0.100901,-0.3027 0.100901,-0.730042 0,-0.421406 -0.100901,-0.724106 -0.1009,-0.3027 -0.278959,-0.462953 -0.178059,-0.160254 -0.415471,-0.160254 z m 9.573643,-0.961518 h 0.59353 v 5.424864 h -0.59353 z m -0.830942,2.136708 h 0.98526 v 0.510436 h -0.98526 z m -0.391729,-2.023937 h 0.581659 v 5.045004 h -0.581659 z m -2.629338,3.513697 h 0.362053 q 0.373924,0 0.688495,-0.01187 0.314571,-0.01187 0.611336,-0.04155 0.3027,-0.03561 0.617271,-0.09496 l 0.05935,0.510435 q -0.326442,0.06529 -0.635077,0.1009 -0.308636,0.02968 -0.635077,0.04155 -0.320507,0.01187 -0.706301,0.01187 h -0.362053 z m 0,-2.97952 h 2.006131 v 0.5045 h -1.394795 v 2.712432 h -0.611336 z m 5.775046,-0.136512 h 3.466216 v 0.5045 h -3.466216 z m -0.492629,3.697691 h 4.902557 v 0.510436 h -4.902557 z m 1.127707,-1.756848 h 0.611335 v 1.928972 h -0.611335 z m 2.641208,-1.940843 h 0.617271 v 0.563853 q 0,0.338312 -0.0059,0.706301 -0.0059,0.367988 -0.04748,0.79533 -0.03561,0.427342 -0.130577,0.955583 l -0.617271,-0.06529 q 0.136512,-0.747848 0.160253,-1.317637 0.02374,-0.575724 0.02374,-1.074289 z m -1.299831,1.940843 h 0.611336 v 1.928972 h -0.611336 z"
         id="text5-9-8"
         aria-label="타이베이 대교" />
    </g>
    <text
       xml:space="preserve"
       transform="matrix(0.31615295,0,0,0.31615295,-10.474341,-6.4462013)"
       id="text6"
       style="font-size:55px;line-height:1.25;font-family:'Microsoft JhengHei';-inkscape-font-specification:'Microsoft JhengHei';white-space:pre;shape-inside:url(#rect6);display:inline" />
  </g>
</svg>
