<?xml version="1.0" encoding="UTF-8" standalone="no"?>
<!-- Created with Inkscape (http://www.inkscape.org/) -->

<svg
   width="500"
   height="250"
   viewBox="0 0 132.29166 66.145833"
   version="1.1"
   id="svg1"
   inkscape:version="1.3.2 (091e20e, 2023-11-25, custom)"
   sodipodi:docname="o14.svg"
   xmlns:inkscape="http://www.inkscape.org/namespaces/inkscape"
   xmlns:sodipodi="http://sodipodi.sourceforge.net/DTD/sodipodi-0.dtd"
   xmlns="http://www.w3.org/2000/svg"
   xmlns:svg="http://www.w3.org/2000/svg">
  <sodipodi:namedview
     id="namedview1"
     pagecolor="#9e652e"
     bordercolor="#ffffff"
     borderopacity="1"
     inkscape:showpageshadow="0"
     inkscape:pageopacity="0"
     inkscape:pagecheckerboard="false"
     inkscape:deskcolor="#d1d1d1"
     inkscape:document-units="mm"
     inkscape:zoom="2.0208096"
     inkscape:cx="221.69333"
     inkscape:cy="117.27973"
     inkscape:window-width="1920"
     inkscape:window-height="1009"
     inkscape:window-x="1912"
     inkscape:window-y="-8"
     inkscape:window-maximized="1"
     inkscape:current-layer="layer1" />
  <defs
     id="defs1">
    <rect
       x="560.66638"
       y="34.144731"
       width="279.32397"
       height="128.59143"
       id="rect6" />
    <rect
       x="157.85752"
       y="62.351248"
       width="329.07603"
       height="135.09437"
       id="rect4" />
    <rect
       x="157.85751"
       y="62.35125"
       width="329.07602"
       height="135.09438"
       id="rect4-5" />
    <rect
       x="157.85751"
       y="62.35125"
       width="329.07602"
       height="135.09438"
       id="rect4-5-7" />
    <rect
       x="157.85751"
       y="62.35125"
       width="462.90293"
       height="131.58831"
       id="rect4-5-0" />
  </defs>
  <g
     inkscape:label="Layer 1"
     inkscape:groupmode="layer"
     id="layer1">
    <rect
       style="fill:#f4eed7;fill-opacity:1;stroke:none;stroke-width:0.953294;stroke-dasharray:none"
       id="rect5"
       width="132.29167"
       height="66.145836"
       x="-2.5431316e-06"
       y="-1.2715658e-06"
       ry="0" />
    <g
       id="g4"
       transform="matrix(1.0815428,0,0,1.0815428,-18.433025,-2.6968589)">
      <path
         id="rect1"
         style="fill-opacity:0;stroke:#000000;stroke-width:0.801799"
         d="M 28.433621,17.152325 H 39.00064 c 3.339782,0 6.028487,2.688705 6.028487,6.028486 v 19.784208 c 0,3.339781 -2.688705,6.028486 -6.028487,6.028486 H 28.433621 c -3.339782,0 -6.028487,-2.688705 -6.028487,-6.028486 V 23.180811 c 0,-3.339781 2.688705,-6.028486 6.028487,-6.028486 z" />
      <path
         style="font-size:11.8619px;line-height:1.25;font-family:'AR UDJingXiHeiE1G30 EB';-inkscape-font-specification:'AR UDJingXiHeiE1G30 EB';stroke-width:0.247123"
         d="m 37.999286,27.083192 q 0,2.06397 -1.150605,3.238298 -1.138742,1.162467 -3.11968,1.162467 -2.016523,0 -3.155265,-1.174329 -1.138742,-1.174328 -1.138742,-3.226436 0,-2.087695 1.150604,-3.273885 1.150604,-1.198052 3.143403,-1.198052 2.016524,0 3.143404,1.18619 1.126881,1.18619 1.126881,3.285747 z m -4.270285,3.226436 q 1.292948,0 1.9928,-0.854056 0.711714,-0.854057 0.711714,-2.37238 0,-1.506462 -0.711714,-2.396104 -0.711714,-0.901505 -1.9928,-0.901505 -1.304809,0 -2.028384,0.913367 -0.711714,0.901504 -0.711714,2.384242 0,1.518323 0.723575,2.37238 0.723576,0.854056 2.016523,0.854056 z"
         id="text2"
         aria-label="O" />
      <path
         style="font-size:12.2395px;line-height:1.25;font-family:'AR UDJingXiHeiE1G30 EB';-inkscape-font-specification:'AR UDJingXiHeiE1G30 EB';stroke-width:0.222535"
         d="m 29.54346,36.059055 -1.432021,1.334105 -0.709891,-1.089315 2.301026,-2.092955 h 1.334105 v 8.849159 H 29.54346 Z m 8.433007,5.091632 H 34.145504 V 40.073611 L 37.90303,34.21089 h 1.578896 v 5.715847 h 1.162752 v 1.22395 h -1.162752 v 1.909362 h -1.505459 z m -2.276547,-1.22395 h 2.276547 v -3.598413 z"
         id="text3"
         aria-label="14" />
      <path
         style="font-weight:500;font-size:72px;line-height:1.25;font-family:'Noto Sans TC';-inkscape-font-specification:'Noto Sans TC Medium';white-space:pre"
         d="m 161.96142,116.14541 h 64.08 v 5.904 h -64.08 z m 28.152,-5.256 h 7.128 v 30.6 h -7.128 z m -2.16,7.92 5.328,2.376 q -3.24,4.176 -7.992,7.92 -4.68,3.744 -10.08,6.624 -5.328,2.952 -10.728,4.752 -0.432,-0.864 -1.224,-1.944 -0.792,-1.08 -1.656,-2.088 -0.864,-1.008 -1.584,-1.728 3.888,-1.08 7.92,-2.736 4.032,-1.656 7.776,-3.744 3.744,-2.088 6.912,-4.464 3.168,-2.376 5.328,-4.968 z m 11.736,0.216 q 2.88,3.312 7.344,6.264 4.464,2.952 9.792,5.256 5.328,2.232 10.656,3.528 -0.72,0.648 -1.656,1.656 -0.864,1.08 -1.656,2.16 -0.72,1.152 -1.224,2.016 -5.4,-1.728 -10.728,-4.464 -5.328,-2.808 -9.936,-6.408 -4.536,-3.672 -7.704,-7.848 z m 16.416,-29.952004 5.328,5.184 q -5.544,1.296 -12.312,2.232 -6.768,0.864 -14.184,1.512 -7.344,0.648 -14.904,1.008 -7.488,0.288 -14.472,0.432 -0.072,-1.296 -0.576,-3.024 -0.504,-1.728 -0.936,-2.808 6.84,-0.144 14.112,-0.432 7.272,-0.36 14.256,-0.936 7.056,-0.648 13.104,-1.368 6.12,-0.792 10.584,-1.8 z m -48.888,13.536004 5.76,-2.304 q 2.016,2.376 3.816,5.328 1.872,2.952 2.592,5.184 l -6.048,2.52 q -0.648,-2.232 -2.448,-5.256 -1.728,-3.024 -3.672,-5.472 z m 20.016,-1.8 5.904,-1.944004 q 1.584,2.376004 2.88,5.184004 1.296,2.736 1.728,4.968 l -6.336,2.16 q -0.288,-2.16 -1.512,-5.04 -1.224,-2.88 -2.664,-5.328 z m 27.864,-3.312004 6.984,2.520004 q -2.304,3.6 -4.824,7.272 -2.448,3.672 -4.536,6.264 l -5.328,-2.304 q 1.296,-1.872 2.736,-4.248 1.44,-2.376 2.736,-4.896 1.368,-2.520004 2.232,-4.608004 z m -53.568,-18.072 h 30.168 v 5.76 h -30.168 z m 14.616,-4.752 h 6.624 v 15.408 h -6.624 z m 29.304,0 h 6.48 v 14.688 h -6.48 z m -10.008,4.752 h 30.456 v 5.76 h -30.456 z m 39.672,0.72 h 61.344 v 12.672 h -6.624 v -7.2 h -48.384 v 7.2 h -6.336 z m 7.848,10.728 h 45.648 v 5.4 h -45.648 z m 19.872,-5.328 6.624,1.44 q -2.808,7.56 -7.704,13.104004 -4.824,5.472 -11.304,9.216 -6.48,3.672 -14.328,6.12 -0.432,-0.72 -1.296,-1.728 -0.792,-1.008 -1.656,-1.944 -0.864,-0.936 -1.584,-1.584 7.776,-1.944 13.968,-5.112 6.264,-3.24 10.656,-8.064004 4.392,-4.824 6.624,-11.448 z m 9.432,7.128 q 2.52,4.104 6.624,7.488004 4.104,3.384 9.36,5.832 5.328,2.376 11.448,3.672 -1.08,0.936 -2.232,2.592 -1.152,1.584 -1.872,2.808 -6.336,-1.584 -11.808,-4.464 -5.472,-2.952 -9.792,-6.984 -4.248,-4.104004 -7.2,-9.144004 z m -34.848,7.056 4.32,-3.384 q 2.232,1.44 4.752,3.384 2.592,1.872004 3.96,3.384004 l -4.608,3.816 q -1.296,-1.512 -3.744,-3.528 -2.448,-2.088 -4.68,-3.672004 z m 51.48,-3.816 5.76,3.24 q -2.592,2.088004 -5.328,4.104004 -2.664,1.944 -4.968,3.312 l -4.248,-2.808 q 1.44,-1.008 3.024,-2.376 1.656,-1.368 3.168,-2.808004 1.584,-1.44 2.592,-2.664 z m -36.288,20.592004 v 4.032 h 26.28 v -4.032 z m 0,-8.28 v 3.96 h 26.28 v -3.96 z m -6.264,-4.536 h 39.096 v 21.384 h -39.096 z m 16.128,18.288 h 6.768 v 12.888 q 0,2.376 -0.648,3.672 -0.648,1.368 -2.592,2.088 -1.872,0.648 -4.608,0.72 -2.664,0.144 -6.552,0.144 -0.288,-1.296 -1.008,-2.952 -0.648,-1.656 -1.368,-2.88 1.872,0.072 3.6,0.072 1.8,0.072 3.168,0.072 1.368,0 1.944,-0.072 0.792,-0.072 1.008,-0.288 0.288,-0.216 0.288,-0.792 z m -14.256,4.032 6.408,2.16 q -2.664,3.528 -6.768,6.84 -4.032,3.24 -7.92,5.4 -0.504,-0.648 -1.44,-1.512 -0.936,-0.792 -1.944,-1.656 -1.008,-0.864 -1.728,-1.368 3.816,-1.8 7.488,-4.392 3.672,-2.592 5.904,-5.472 z m 27.36,2.88 5.4,-3.024 q 2.448,1.584 5.112,3.528 2.664,1.944 5.04,3.96 2.376,2.016 3.888,3.672 l -5.688,3.312 q -1.368,-1.584 -3.672,-3.672 -2.304,-2.016 -4.968,-4.104 -2.592,-2.088 -5.112,-3.672 z m -15.48,-52.776004 6.912,-1.944 q 1.08,1.728 2.16,3.888 1.08,2.16 1.512,3.816 l -7.272,2.232 q -0.432,-1.584 -1.368,-3.816 -0.864,-2.304 -1.944,-4.176 z"
         id="text4"
         transform="matrix(0.22253605,0,0,0.22253605,13.087541,1.4902863)"
         aria-label="菜寮" />
      <path
         style="font-size:6.23101px;line-height:1.25;font-family:'AR UDJingXiHeiE1G30 EB';-inkscape-font-specification:'AR UDJingXiHeiE1G30 EB';stroke-width:0.222535"
         d="m 52.454479,38.147718 h 0.791338 q -0.03116,0.74149 -0.517174,1.196353 -0.486019,0.454864 -1.408208,0.454864 -1.090427,0 -1.669911,-0.61687 -0.573253,-0.61687 -0.573253,-1.713528 0,-1.084195 0.573253,-1.707296 0.579484,-0.623101 1.657449,-0.623101 0.86611,0 1.345898,0.398784 0.479788,0.392554 0.548329,1.021886 h -0.791338 q -0.04985,-0.361399 -0.330244,-0.579484 -0.280395,-0.224316 -0.791338,-0.224316 -0.629332,0 -1.009424,0.423708 -0.380091,0.423709 -0.380091,1.289819 0,0.878573 0.380091,1.296051 0.386323,0.417477 1.021886,0.417477 0.542098,0 0.834955,-0.280395 0.292858,-0.286627 0.317782,-0.753952 z m 3.962918,-0.249241 -0.710335,-1.925382 -0.722797,1.925382 z m -1.663679,0.61687 -0.448633,1.202585 h -0.8038 l 1.813223,-4.50502 h 0.810032 l 1.800762,4.50502 h -0.822494 l -0.454863,-1.202585 z m 4.48009,-3.302435 v 4.50502 H 58.44247 v -4.50502 z m 4.199696,4.50502 h -3.165353 v -4.50502 h 0.791339 v 3.88815 h 2.374014 z m 1.4456,-4.50502 v 4.50502 h -0.791338 v -4.50502 z m 3.433281,2.685565 -0.710335,-1.925382 -0.722797,1.925382 z m -1.663679,0.61687 -0.448633,1.202585 h -0.8038 l 1.813224,-4.50502 h 0.810031 l 1.800762,4.50502 H 68.997796 L 68.542933,38.515347 Z M 74.66801,37.48723 q 0,1.084196 -0.604408,1.701066 -0.598177,0.610639 -1.638756,0.610639 -1.059272,0 -1.657449,-0.61687 -0.598177,-0.61687 -0.598177,-1.694835 0,-1.096657 0.604408,-1.719758 0.604408,-0.629332 1.651218,-0.629332 1.059272,0 1.651218,0.623101 0.591946,0.623101 0.591946,1.725989 z m -2.243164,1.694835 q 0.67918,0 1.04681,-0.448633 0.37386,-0.448632 0.37386,-1.246202 0,-0.791338 -0.37386,-1.258664 -0.373861,-0.473556 -1.04681,-0.473556 -0.685411,0 -1.065503,0.479787 -0.37386,0.473557 -0.37386,1.252433 0,0.79757 0.380091,1.246202 0.380092,0.448633 1.059272,0.448633 z"
         id="text5"
         aria-label="CAILIAO" />
      <path
         d="m 48.985845,42.275405 h 5.526906 v 0.517174 h -5.526906 z m 1.41444,-0.411247 h 0.598177 v 1.370823 h -0.598177 z m 2.087388,0 h 0.598177 v 1.302281 h -0.598177 z m -3.508059,3.589062 h 5.545599 v 0.523405 h -5.545599 z m 2.442556,-0.454864 h 0.610639 v 2.64818 H 51.42217 Z m -0.193161,0.685411 0.479788,0.218086 q -0.286627,0.348936 -0.697873,0.666718 -0.405016,0.31155 -0.872342,0.55456 -0.461094,0.24924 -0.922189,0.398784 -0.04362,-0.081 -0.118389,-0.174468 -0.06854,-0.09347 -0.149545,-0.18693 -0.07477,-0.09347 -0.137082,-0.149544 0.336475,-0.09347 0.685411,-0.230548 0.348937,-0.137082 0.672949,-0.31155 0.324013,-0.174469 0.591946,-0.373861 0.274165,-0.199392 0.467326,-0.411247 z m 1.009424,0.03739 q 0.24924,0.280395 0.635563,0.529635 0.386322,0.24301 0.841186,0.42994 0.461095,0.18693 0.92842,0.299089 -0.06854,0.06231 -0.143313,0.149544 -0.07477,0.09347 -0.143313,0.18693 -0.06854,0.0997 -0.112158,0.180699 -0.467326,-0.143313 -0.928421,-0.37386 -0.461094,-0.236779 -0.859879,-0.542098 -0.392554,-0.311551 -0.672949,-0.666718 z m 1.426901,-2.635718 0.467326,0.461095 q -0.479788,0.105927 -1.065503,0.18693 -0.585715,0.081 -1.227509,0.137083 -0.641794,0.04985 -1.29605,0.081 -0.648025,0.02492 -1.252433,0.03739 -0.0062,-0.105927 -0.04985,-0.261703 -0.04362,-0.155775 -0.081,-0.24924 0.591946,-0.0062 1.221278,-0.03739 0.629332,-0.03115 1.23374,-0.081 0.610639,-0.04985 1.134043,-0.118389 0.529636,-0.06854 0.915958,-0.155776 z m -4.230856,1.208816 0.498481,-0.199392 q 0.174468,0.199392 0.330243,0.454864 0.162007,0.255471 0.224317,0.454863 l -0.523405,0.218086 Q 49.908034,45.029514 49.75226,44.767812 49.602715,44.50611 49.434478,44.294255 Z m 1.732221,-0.149544 0.510943,-0.168237 q 0.130851,0.193161 0.236778,0.423708 0.112158,0.230548 0.143313,0.411247 l -0.548329,0.180699 q -0.02492,-0.174468 -0.12462,-0.411246 -0.09347,-0.236779 -0.218085,-0.436171 z m 2.411401,-0.292857 0.604408,0.218085 q -0.199393,0.31155 -0.417478,0.629332 -0.211854,0.317781 -0.392554,0.542098 l -0.461094,-0.205624 q 0.112158,-0.155775 0.236778,-0.361398 0.12462,-0.211854 0.236778,-0.423709 0.11839,-0.218085 0.193162,-0.398784 z m 4.093773,-1.987693 h 0.591946 v 0.810032 h -0.591946 z m -2.361552,0.436171 h 5.30882 v 1.165199 h -0.573253 v -0.660487 h -4.187239 v 0.660487 h -0.548328 z m 0.697873,0.965807 h 3.937998 v 0.473556 h -3.937998 z m 1.507904,-0.542098 0.573253,0.112158 q -0.211854,0.654256 -0.585715,1.146506 -0.373861,0.486019 -0.884803,0.828724 -0.504712,0.336475 -1.127813,0.567022 -0.03739,-0.05608 -0.112158,-0.143313 -0.07477,-0.08723 -0.149545,-0.168237 -0.07477,-0.08723 -0.137082,-0.137083 0.92219,-0.274164 1.545291,-0.810031 0.623101,-0.535867 0.878572,-1.395746 z m 1.127813,0.697873 q 0.199392,0.355167 0.523405,0.648025 0.330243,0.286626 0.760183,0.498481 0.42994,0.211854 0.922189,0.324012 -0.08723,0.081 -0.193161,0.218086 -0.0997,0.137082 -0.155775,0.243009 -0.517174,-0.143313 -0.959576,-0.392554 -0.442401,-0.255471 -0.791338,-0.604408 -0.342705,-0.348936 -0.579484,-0.778876 z m -3.121736,0.591946 0.392554,-0.30532 q 0.18693,0.124621 0.405015,0.292858 0.218086,0.168237 0.336475,0.305319 l -0.411247,0.330244 Q 56.126583,44.499879 55.914729,44.32541 55.709105,44.144711 55.522175,44.01386 Z m 4.467634,-0.324013 0.49225,0.274165 q -0.218086,0.18693 -0.454864,0.355167 -0.230547,0.168238 -0.42994,0.286627 l -0.367629,-0.236779 q 0.12462,-0.09347 0.261702,-0.211854 0.143313,-0.118389 0.274165,-0.243009 0.137082,-0.124621 0.224316,-0.224317 z m -3.165353,1.794531 v 0.348937 h 2.274319 v -0.348937 z m 0,-0.716566 v 0.342706 h 2.274319 v -0.342706 z m -0.542098,-0.392554 h 3.383439 v 1.85061 h -3.383439 z m 1.395746,1.582677 h 0.585715 v 1.115351 q 0,0.205623 -0.05608,0.317781 -0.05608,0.118389 -0.224316,0.1807 -0.162006,0.05608 -0.398785,0.06231 -0.230547,0.01246 -0.567022,0.01246 -0.02492,-0.112159 -0.08723,-0.255472 -0.05608,-0.143313 -0.118389,-0.24924 0.162006,0.0062 0.31155,0.0062 0.155776,0.0062 0.274165,0.0062 0.118389,0 0.168237,-0.0062 0.06854,-0.0062 0.08723,-0.02492 0.02492,-0.01869 0.02492,-0.06854 z m -1.23374,0.348936 0.567022,0.186931 q -0.230547,0.305319 -0.585715,0.591946 -0.348936,0.286626 -0.685411,0.479788 -0.04985,-0.06231 -0.137082,-0.137083 -0.081,-0.07477 -0.168237,-0.149544 -0.08723,-0.07477 -0.149544,-0.118389 0.330243,-0.155775 0.648025,-0.380092 0.317781,-0.224316 0.510942,-0.473557 z m 2.330398,0.249241 0.479788,-0.274165 q 0.211854,0.130852 0.442402,0.30532 0.230547,0.168237 0.43617,0.342705 0.211855,0.168238 0.342706,0.311551 l -0.510943,0.305319 Q 59.846496,47.403526 59.647103,47.229058 59.447711,47.05459 59.217164,46.87389 58.986616,46.693191 58.774762,46.556109 Z"
         id="text5-9"
         style="font-weight:500;font-size:6.23101px;line-height:1.25;font-family:'Noto Sans JP';-inkscape-font-specification:'Noto Sans JP Medium';stroke-width:0.222535"
         aria-label="菜寮" />
      <path
         style="font-weight:500;font-size:6.23101px;line-height:1.25;font-family:'Noto Sans KR';-inkscape-font-specification:'Noto Sans KR Medium';stroke-width:0.222535"
         d="m 69.17506,43.427253 h 0.517174 v 0.398784 q 0,0.448633 -0.105928,0.878573 -0.105927,0.42994 -0.31155,0.810031 -0.205623,0.373861 -0.49225,0.660487 -0.280395,0.286627 -0.648025,0.461095 l -0.355168,-0.504712 q 0.324013,-0.155775 0.585715,-0.398784 0.261703,-0.249241 0.442402,-0.560791 0.180699,-0.311551 0.274165,-0.654256 0.09347,-0.342706 0.09347,-0.691643 z m 0.137082,0 h 0.510943 v 0.398784 q 0,0.324013 0.08723,0.654257 0.09346,0.324012 0.261702,0.623101 0.174469,0.292857 0.423709,0.535866 0.24924,0.236779 0.573253,0.392554 l -0.361399,0.498481 q -0.348936,-0.168237 -0.629332,-0.448633 -0.274164,-0.286626 -0.467325,-0.641794 -0.193162,-0.361399 -0.299089,-0.772645 -0.0997,-0.411247 -0.0997,-0.841187 z M 67.947551,42.97862 h 3.078119 v 0.517174 h -3.078119 z m 1.227509,-0.847417 h 0.648025 v 1.127813 H 69.17506 Z m 2.436325,-0.112158 h 0.654256 v 5.695143 h -0.654256 z m 0.510942,2.280549 h 1.028117 v 0.542098 h -1.028117 z m 5.495752,-2.28678 h 0.654256 v 5.707605 h -0.654256 z m -2.374015,0.417477 q 0.423709,0 0.753952,0.249241 0.336475,0.24924 0.523405,0.697873 0.18693,0.448632 0.18693,1.059271 0,0.61687 -0.18693,1.071734 -0.18693,0.448633 -0.523405,0.697873 -0.330243,0.24301 -0.753952,0.24301 -0.423709,0 -0.760183,-0.24301 -0.330244,-0.24924 -0.523405,-0.697873 -0.18693,-0.454864 -0.18693,-1.071734 0,-0.610639 0.18693,-1.059271 0.193161,-0.448633 0.523405,-0.697873 0.336474,-0.249241 0.760183,-0.249241 z m 0,0.591946 q -0.249241,0 -0.442402,0.168237 -0.18693,0.168238 -0.292857,0.486019 -0.105927,0.317782 -0.105927,0.760183 0,0.448633 0.105927,0.766415 0.105927,0.317781 0.292857,0.492249 0.193161,0.168238 0.442402,0.168238 0.24924,0 0.436171,-0.168238 0.18693,-0.174468 0.292857,-0.492249 0.105927,-0.317782 0.105927,-0.766415 0,-0.442401 -0.105927,-0.760183 -0.105927,-0.317781 -0.292857,-0.486019 -0.186931,-0.168237 -0.436171,-0.168237 z m 8.305937,0.417478 h 1.028116 v 0.548329 h -1.028116 z m 0,1.651217 h 1.028116 v 0.535867 h -1.028116 z m -0.467326,-3.078118 h 0.654256 v 5.707605 h -0.654256 z m -3.532983,3.813378 h 0.467326 q 0.510943,0 0.940882,-0.01246 0.436171,-0.01246 0.847418,-0.05608 0.411246,-0.04362 0.834955,-0.11839 l 0.06231,0.535867 q -0.442401,0.07477 -0.859879,0.118389 -0.411247,0.04362 -0.859879,0.06231 -0.442402,0.01246 -0.965807,0.01246 h -0.467326 z m -0.01246,-3.302436 h 2.598331 v 2.112313 h -1.937844 v 1.401977 h -0.648025 v -1.925382 h 1.937844 V 43.053392 H 79.53723 Z m 7.757609,2.704259 h 0.654256 v 1.364591 h -0.654256 z m 0.330244,-2.872496 q 0.604408,0 1.071733,0.18693 0.473557,0.186931 0.747721,0.529636 0.274165,0.342706 0.274165,0.803801 0,0.467325 -0.274165,0.810031 -0.274164,0.342705 -0.747721,0.535867 -0.467325,0.18693 -1.071733,0.18693 -0.604408,0 -1.077965,-0.18693 -0.473557,-0.193162 -0.747721,-0.535867 -0.274165,-0.342706 -0.274165,-0.810031 0,-0.461095 0.274165,-0.803801 0.274164,-0.342705 0.747721,-0.529636 0.473557,-0.18693 1.077965,-0.18693 z m 0,0.517174 q -0.42994,0 -0.760184,0.12462 -0.324012,0.118389 -0.510942,0.342706 -0.186931,0.224316 -0.186931,0.535867 0,0.31155 0.186931,0.542097 0.18693,0.224317 0.510942,0.348937 0.330244,0.118389 0.760184,0.118389 0.423708,0 0.753952,-0.118389 0.330243,-0.12462 0.517174,-0.348937 0.18693,-0.230547 0.18693,-0.542097 0,-0.311551 -0.18693,-0.535867 -0.186931,-0.224317 -0.517174,-0.342706 -0.330244,-0.12462 -0.753952,-0.12462 z m -2.573408,3.601524 h 5.159277 v 0.535867 h -5.159277 z"
         id="text5-9-8"
         aria-label="차이랴오" />
      <path
         style="font-weight:500;font-size:72px;line-height:1.25;font-family:'Noto Sans TC';-inkscape-font-specification:'Noto Sans TC Medium';white-space:pre"
         d="m 200.91342,98.721406 h 26.28 v 6.336004 h -26.28 z m -38.88,-16.704 h 32.04 v 5.616 h -32.04 z m -0.792,28.584004 h 32.976 v 5.832 h -32.976 z m -0.36,-12.312004 h 34.344 v 5.688004 h -34.344 z m 52.272,3.168004 h 6.624 v 39.672 h -6.624 z m -46.872,-12.312004 5.544,-1.296 q 0.936,2.088 1.656,4.608 0.792,2.52 1.08,4.32 l -5.76,1.584 q -0.216,-1.872 -0.936,-4.464 -0.648,-2.592 -1.584,-4.752 z m 17.928,-1.44 6.264,1.296 q -1.152,3.024 -2.376,6.12 -1.224,3.096 -2.304,5.256004 l -5.544,-1.224004 q 0.72,-1.584 1.44,-3.6 0.72,-2.016 1.368,-4.104 0.72,-2.088 1.152,-3.744 z m 36.36,-12.024 5.328,5.04 q -3.528,1.368 -7.92,2.52 -4.32,1.08 -8.856,1.944 -4.464,0.864 -8.784,1.512 -0.216,-1.08 -0.864,-2.592 -0.576,-1.512 -1.224,-2.52 4.104,-0.72 8.208,-1.656 4.104,-0.936 7.776,-2.016 3.744,-1.152 6.336,-2.232 z m -47.88,0.144 6.768,-1.728 q 1.224,2.232 2.376,4.968 1.224,2.664 1.8,4.608 l -7.056,2.016 q -0.504,-2.016 -1.656,-4.752 -1.08,-2.808 -2.232,-5.112 z m 25.56,5.76 h 6.408 v 25.272004 q 0,3.96 -0.288,8.496 -0.216,4.536 -1.008,9.144 -0.792,4.608 -2.232,8.928 -1.44,4.32 -3.888,7.776 -0.504,-0.648 -1.512,-1.44 -0.936,-0.792 -2.016,-1.512 -1.008,-0.72 -1.728,-1.08 2.88,-4.248 4.248,-9.504 1.368,-5.256 1.656,-10.656 0.36,-5.4 0.36,-10.152 z m -13.824,39.816004 4.536,-2.448 q 1.8,2.592 3.456,5.688 1.656,3.024 2.52,5.256 l -4.68,2.808 q -0.864,-2.232 -2.592,-5.472 -1.656,-3.24 -3.24,-5.832 z m -17.28,-1.8 5.328,1.512 q -1.296,3.888 -3.384,7.92 -2.016,3.96 -4.032,6.768 -0.792,-0.72 -2.232,-1.656 -1.368,-1.008 -2.376,-1.512 2.016,-2.592 3.744,-6.048 1.8,-3.528 2.952,-6.984 z m 8.136,-18.216 h 6.624 v 39.744 h -6.624 z m 58.968,-9.000004 h 21.24 v 6.84 h -21.24 z m 35.64,-16.416 h 7.128 v 51.912004 q 0,2.808 0.504,3.6 0.576,0.792 2.448,0.792 0.504,0 1.512,0 1.08,0 2.304,0 1.224,0 2.304,0 1.08,0 1.584,0 1.512,0 2.232,-1.368 0.792,-1.44 1.08,-5.112 0.36,-3.744 0.576,-10.44 0.864,0.648 2.016,1.368 1.152,0.648 2.376,1.152 1.224,0.504 2.16,0.72 -0.36,7.488 -1.224,11.952 -0.864,4.392 -2.88,6.336 -1.944,2.016 -5.688,2.016 -0.576,0 -1.872,0 -1.296,0 -2.808,0 -1.512,0 -2.808,0 -1.224,0 -1.8,0 -3.456,0 -5.472,-1.008 -2.016,-0.936 -2.88,-3.384 -0.792,-2.448 -0.792,-6.696 z m -18.072,-0.072 h 7.056 v 53.496004 h -7.056 z m -19.944,57.888004 q 3.888,-1.296 9.144,-3.168 5.256,-1.872 11.088,-4.032 5.904,-2.16 11.664,-4.32 l 1.152,6.048 q -5.112,2.232 -10.44,4.464 -5.328,2.16 -10.296,4.176 -4.968,2.016 -9.216,3.672 z m 41.76,-41.472004 h 23.04 v 6.84 h -23.04 z m 60.408,-3.024 h 7.128 v 51.984004 h -7.128 z m -28.8,-4.392 h 65.376 v 6.624 h -65.376 z m 6.624,15.696004 h 47.376 v 6.624 h -40.536 v 26.28 h -6.84 z m 45.648,0 h 7.056 v 24.984 q 0,2.664 -0.72,4.248 -0.648,1.584 -2.664,2.376 -2.088,0.792 -5.184,1.008 -3.096,0.144 -7.632,0.144 -0.144,-1.512 -0.864,-3.384 -0.72,-1.944 -1.44,-3.312 2.16,0.072 4.176,0.144 2.088,0.072 3.6,0.072 1.512,-0.072 2.088,-0.072 0.936,-0.072 1.224,-0.36 0.36,-0.288 0.36,-0.936 z m -26.496,-24.552004 6.696,-2.016 q 1.512,2.52 3.168,5.616 1.656,3.024 2.448,5.256 l -7.128,2.376 q -0.432,-1.512 -1.296,-3.384 -0.864,-1.944 -1.872,-4.032 -1.008,-2.088 -2.016,-3.816 z m 49.536,11.952 h 58.824 v 6.84 h -58.824 z m -3.096,43.704004 h 64.872 v 6.912 h -64.872 z m 12.672,-32.184004 6.84,-1.584 q 1.44,4.680004 2.736,10.008004 1.368,5.256 2.448,10.368 1.152,5.04 1.728,9.072 l -7.272,1.8 q -0.432,-4.032 -1.512,-9.144 -1.008,-5.112 -2.376,-10.44 -1.296,-5.4 -2.592,-10.080004 z m 32.688,-1.512 7.704,1.44 q -1.224,4.464004 -2.664,9.288004 -1.368,4.752 -2.952,9.432 -1.512,4.68 -3.096,8.928 -1.512,4.176 -2.952,7.488 l -6.768,-1.584 q 1.512,-3.312 3.024,-7.632 1.584,-4.392 3.024,-9.144 1.44,-4.752 2.664,-9.432 1.224,-4.68 2.016,-8.784004 z m -18.792,-22.176 6.696,-1.728 q 1.08,2.736 2.16,5.976 1.08,3.168 1.656,5.544 l -7.056,2.016 q -0.432,-2.376 -1.44,-5.688 -1.008,-3.384 -2.016,-6.12 z m 56.016,59.256004 h 43.56 v 3.816 h -43.56 z m 7.56,-5.976 h 29.448 v 3.6 h -29.448 z m -19.08,-19.728 h 66.528 v 4.536 h -66.528 z m 15.12,-28.512004 4.032,0.936 q -0.864,2.304 -2.376,4.608 -1.512,2.232 -3.168,3.888 -0.576,-0.504 -1.728,-1.152 -1.08,-0.648 -1.8,-1.008 3.384,-3.096 5.04,-7.272 z m 21.096,9.216 h 20.592 v 4.176 h -20.592 z m -21.528,-6.12 h 16.992 v 3.456 h -16.992 z m -4.032,6.696 h 22.32 v 3.6 h -22.32 z m 31.032,-14.184 h 12.888 v 4.752 h -12.888 z m 14.256,13.608 h 1.08 l 1.008,-0.144 3.312,1.368 q -2.088,4.896 -5.832,8.496 -3.672,3.528004 -8.424,5.832004 -4.752,2.304 -10.08,3.6 -0.432,-0.936 -1.296,-2.16 -0.792,-1.296 -1.512,-2.016 4.752,-1.008 9.072,-2.88 4.392,-1.872 7.704,-4.752004 3.312,-2.88 4.968,-6.552 z m -16.704,-13.608 h 5.256 v 3.816 q 0,2.016 -0.648,4.032 -0.648,1.944 -2.376,3.744 -1.728,1.728 -5.04,3.168 -0.36,-0.648 -1.08,-1.44 -0.648,-0.792 -1.368,-1.584 -0.72,-0.792 -1.224,-1.08 2.808,-1.08 4.176,-2.16 1.368,-1.152 1.8,-2.304 0.504,-1.224 0.504,-2.52 z m -19.512,9 h 4.464 v 5.184 q 0,1.944 -0.792,4.248 -0.72,2.232 -2.952,4.392 -2.16,2.088004 -6.624,3.744004 -0.504,-0.792 -1.368,-1.656 -0.792,-0.936 -1.512,-1.584004 3.96,-1.152 5.76,-2.736 1.872,-1.584 2.448,-3.312 0.576,-1.728 0.576,-3.168 z m 5.832,26.424004 h 5.256 v 6.912 q 0,1.728 -0.648,3.24 -0.648,1.44 -2.304,2.736 -1.584,1.224 -4.392,2.232 -2.808,0.936 -7.128,1.584 -0.432,-0.864 -1.296,-2.016 -0.864,-1.224 -1.584,-1.944 3.744,-0.36 6.12,-0.936 2.376,-0.576 3.672,-1.296 1.368,-0.792 1.8,-1.656 0.504,-0.936 0.504,-1.944 z m 11.592,0.072 h 5.328 v 10.08 q 0,1.08 0.432,1.368 0.432,0.288 1.944,0.288 0.36,0 1.296,0 1.008,0 2.16,0 1.224,0 2.232,0 1.08,0 1.512,0 0.864,0 1.224,-0.072 0.36,-0.072 0.504,-0.36 0.864,0.432 2.088,0.792 1.224,0.288 2.16,0.432 -0.216,1.44 -1.44,2.016 -1.224,0.576 -3.744,0.576 -0.432,0 -1.656,0 -1.224,0 -2.736,0 -1.44,0 -2.664,0 -1.224,0 -1.656,0 -2.736,0 -4.32,-0.36 -1.512,-0.432 -2.088,-1.512 -0.576,-1.152 -0.576,-3.24 z m -17.28,-16.200004 2.592,-2.592 q 2.592,1.368 5.4,3.24 2.808,1.8 4.392,3.312 l -2.808,2.952004 q -1.512,-1.512 -4.32,-3.456004 -2.736,-1.944 -5.256,-3.456 z m 16.416,2.52 2.376,-3.456 q 2.952,1.152 6.264,2.52 3.312,1.296 6.624,2.736004 3.312,1.368 6.192,2.736 2.952,1.296 5.04,2.448 l -2.52,3.96 q -2.016,-1.152 -4.896,-2.52 -2.88,-1.368 -6.192,-2.88 -3.24,-1.512 -6.624,-2.88 -3.312,-1.440004 -6.264,-2.664004 z m 15.696,-21.816 h 5.4 v 6.12 q 0,1.008 0.144,1.44 0.144,0.36 0.792,0.36 0.432,0 1.44,0 1.008,0 1.44,0 0.72,0 1.656,-0.072 0.936,-0.072 1.512,-0.216 0.144,0.936 0.216,2.232 0.072,1.296 0.216,2.232 -0.576,0.216 -1.512,0.288 -0.936,0.072 -1.872,0.072 -0.432,0 -1.224,0 -0.72,0 -1.44,0 -0.72,0 -1.224,0 -2.304,0 -3.528,-0.648 -1.152,-0.648 -1.584,-2.088 -0.432,-1.44 -0.432,-3.672 z m -44.712,40.248004 h 52.272 v 24.696 h -6.408 v -20.88 h -39.672 v 20.88 h -6.192 z m -5.616,-39.960004 h 32.328 v 4.176 h -32.328 z m 2.376,2.592 h 5.256 v 20.304 q 0,1.872004 0.648,2.664004 0.648,0.72 2.52,0.72 0.648,0 2.088,0 1.512,0 3.312,0 1.8,0 3.6,0 1.872,0 3.24,0 1.44,0 2.16,0 1.512,0 3.6,-0.072 2.16,-0.144 3.24,-0.36 0.144,1.08 0.288,2.232 0.144,1.152 0.288,2.016 -1.008,0.288 -2.952,0.36 -1.944,0.072 -4.032,0.072 -0.72,0 -2.304,0 -1.584,0 -3.6,0 -1.944,0 -3.888,0 -1.944,0 -3.384,0 -1.44,0 -2.016,0 -3.096,0 -4.896,-0.72 -1.8,-0.792 -2.52,-2.52 -0.648,-1.8 -0.648,-4.608004 z m 98.784,17.064 h 29.376 v 5.976004 h -29.376 z m -5.472,12.888004 h 41.04 v 6.12 h -41.04 z m -0.288,-25.920004 h 40.896 v 13.392 h -6.552 v -7.488 h -28.008 v 7.488 h -6.336 z m 9.936,28.872004 h 6.552 q -0.288,5.4 -1.224,9.936 -0.864,4.536 -2.808,8.208 -1.944,3.6 -5.472,6.336 -3.528,2.808 -9.072,4.752 -0.504,-1.296 -1.656,-2.952 -1.152,-1.584 -2.232,-2.52 4.968,-1.512 7.992,-3.744 3.024,-2.232 4.608,-5.112 1.656,-2.952 2.304,-6.624 0.72,-3.744 1.008,-8.28 z m 12.744,-0.144 h 6.408 v 20.448 q 0,1.44 0.288,1.8 0.288,0.36 1.296,0.36 0.288,0 1.08,0 0.864,0 1.728,0 0.864,0 1.224,0 0.648,0 1.008,-0.576 0.36,-0.648 0.504,-2.52 0.216,-1.944 0.288,-5.76 0.72,0.504 1.728,1.008 1.008,0.504 2.088,0.936 1.08,0.36 1.944,0.576 -0.288,4.752 -1.008,7.416 -0.72,2.664 -2.16,3.672 -1.368,1.08 -3.672,1.08 -0.432,0 -1.296,0 -0.792,0 -1.728,0 -0.864,0 -1.656,0 -0.792,0 -1.152,0 -2.808,0 -4.32,-0.72 -1.512,-0.72 -2.088,-2.52 -0.504,-1.728 -0.504,-4.752 z m -8.424,-36.216004 6.336,-1.872 q 1.368,2.16 2.592,4.824 1.296,2.592 1.944,4.536 l -6.696,2.232 q -0.504,-1.944 -1.728,-4.68 -1.152,-2.808 -2.448,-5.04 z m -36.648,1.656 h 16.704 v 6.12 h -10.656 v 57.672004 h -6.048 z m 15.12,0 h 1.08 l 1.008,-0.216 4.464,2.52 q -1.512,4.464 -3.312,9.504 -1.728,5.04 -3.456,9.288 3.672,4.464004 4.752,8.352004 1.152,3.816 1.152,7.128 0,3.168 -0.72,5.472 -0.648,2.232 -2.304,3.456 -0.792,0.576 -1.8,0.936 -0.936,0.288 -2.088,0.504 -1.008,0.072 -2.304,0.144 -1.224,0 -2.448,-0.072 -0.072,-1.152 -0.504,-2.88 -0.36,-1.728 -1.08,-3.024 1.08,0.072 2.016,0.144 0.936,0 1.728,-0.072 1.296,-0.072 2.088,-0.576 0.792,-0.576 1.08,-1.8 0.288,-1.296 0.288,-2.952 0,-2.808 -1.152,-6.336 -1.152,-3.6 -4.68,-7.704004 0.936,-2.376 1.8,-5.112 0.864,-2.736 1.656,-5.472 0.864,-2.736 1.512,-5.184 0.72,-2.448 1.224,-4.176 z"
         id="text4-0"
         transform="matrix(0.11251009,0,0,0.11251009,68.261759,9.783664)"
         aria-label="新北市立醫院" />
      <path
         style="font-size:3.09381px;line-height:1.25;font-family:'AR UDJingXiHeiE1G30 EB';-inkscape-font-specification:'AR UDJingXiHeiE1G30 EB';stroke-width:0.110493"
         d="M 87.005787,27.460831 V 29.0758 h -0.392914 v -2.236825 h 0.405289 l 1.098303,1.652095 v -1.652095 h 0.392914 V 29.0758 h -0.43004 z m 3.67235,1.614969 h -1.655188 v -2.236825 h 1.645907 v 0.306287 H 89.415863 V 27.7764 h 1.16946 v 0.306287 h -1.16946 v 0.686826 h 1.262274 z M 92.283826,27.358735 91.83213,29.0758 h -0.405289 l -0.575449,-2.236825 h 0.417665 l 0.374351,1.695408 0.436227,-1.695408 h 0.41457 l 0.43004,1.695408 0.396008,-1.695408 h 0.405289 L 93.134624,29.0758 h -0.405289 z m 2.997899,-0.213473 h -0.696107 v -0.306287 h 1.782035 v 0.306287 H 95.674639 V 29.0758 h -0.392914 z m 2.574049,1.027145 -0.352694,-0.955987 -0.358882,0.955987 z m -0.826047,0.306288 -0.222754,0.597105 h -0.399102 l 0.900299,-2.236825 h 0.402195 l 0.894111,2.236825 h -0.408383 l -0.225848,-0.597105 z m 2.224447,-1.63972 V 29.0758 H 98.86126 v -2.236825 z m 0.906486,1.348901 V 29.0758 h -0.392916 v -2.236825 h 1.051896 q 0.32794,0 0.51357,0.179441 0.18563,0.179441 0.18563,0.476447 0,0.334131 -0.19182,0.513572 -0.18872,0.179441 -0.51047,0.179441 z m 0.95908,-0.686825 q 0,-0.173254 -0.099,-0.262974 -0.099,-0.09282 -0.29082,-0.09282 h -0.56926 v 0.736327 h 0.56926 q 0.19182,0 0.29082,-0.09281 0.099,-0.09591 0.099,-0.287724 z m 2.43173,1.574749 h -1.65519 v -2.236825 h 1.64591 v 0.306287 H 102.2892 V 27.7764 h 1.16946 v 0.306287 h -1.16946 v 0.686826 h 1.26227 z m 0.80749,-2.236825 V 29.0758 h -0.39291 v -2.236825 z m 2.91436,1.457185 h 0.39292 q -0.0155,0.368163 -0.25679,0.594011 -0.24132,0.225848 -0.6992,0.225848 -0.54142,0 -0.82914,-0.306287 -0.28463,-0.306287 -0.28463,-0.850798 0,-0.538323 0.28463,-0.847704 0.28772,-0.309381 0.82295,-0.309381 0.43004,0 0.66827,0.198004 0.23822,0.19491 0.27225,0.507385 h -0.39291 q -0.0247,-0.179441 -0.16397,-0.287724 -0.13923,-0.111377 -0.39292,-0.111377 -0.31247,0 -0.5012,0.210379 -0.18872,0.210379 -0.18872,0.640418 0,0.436228 0.18872,0.643513 0.19182,0.207285 0.50739,0.207285 0.26916,0 0.41457,-0.139221 0.14541,-0.142316 0.15778,-0.374351 z m 1.16946,-1.457185 V 29.0758 h -0.39291 v -2.236825 z m 0.99002,0.306287 h -0.69611 v -0.306287 h 1.78204 v 0.306287 h -0.69302 V 29.0758 h -0.39291 z m 2.21207,0.683732 0.63733,-0.990019 h 0.43932 l -0.88174,1.314869 V 29.0758 h -0.39291 v -0.921956 l -0.89721,-1.314869 h 0.44861 z m 2.53074,0.253693 V 29.0758 h -0.39292 v -2.236825 h 0.39292 V 27.7764 h 1.07355 v -0.937425 h 0.39291 V 29.0758 h -0.39291 v -0.993113 z m 4.13024,-0.114471 q 0,0.538323 -0.3001,0.84461 -0.29701,0.303193 -0.81368,0.303193 -0.52594,0 -0.82295,-0.306287 -0.29701,-0.306287 -0.29701,-0.841516 0,-0.544511 0.3001,-0.853892 0.3001,-0.312475 0.81986,-0.312475 0.52595,0 0.81986,0.309381 0.29392,0.309381 0.29392,0.856986 z m -1.11378,0.841516 q 0.33723,0 0.51976,-0.222754 0.18563,-0.222754 0.18563,-0.618762 0,-0.392914 -0.18563,-0.62495 -0.18562,-0.235129 -0.51976,-0.235129 -0.34032,0 -0.52904,0.238223 -0.18563,0.23513 -0.18563,0.621856 0,0.396008 0.18873,0.618762 0.18872,0.222754 0.52594,0.222754 z m 2.28324,-0.745608 q -0.40839,-0.07425 -0.60639,-0.228942 -0.198,-0.15469 -0.198,-0.433133 0,-0.25988 0.21037,-0.43004 0.21348,-0.17016 0.65589,-0.17016 0.40529,0 0.62805,0.173254 0.22275,0.173253 0.24441,0.501197 h -0.39292 q -0.003,-0.157784 -0.12375,-0.262974 -0.12066,-0.105189 -0.36816,-0.105189 -0.23204,0 -0.34342,0.07735 -0.11137,0.07735 -0.10828,0.216567 0,0.151596 0.1485,0.225848 0.1516,0.07425 0.49192,0.142315 0.42695,0.08663 0.60639,0.23513 0.18253,0.148502 0.18253,0.445508 0,0.284631 -0.24132,0.476447 -0.24131,0.188722 -0.68682,0.188722 -0.45479,0 -0.70848,-0.191816 -0.2537,-0.191816 -0.2537,-0.553792 h 0.39292 q 0,0.201098 0.15159,0.321756 0.1516,0.117565 0.42076,0.117565 0.24751,0 0.38673,-0.09591 0.13922,-0.09591 0.13922,-0.250599 0,-0.179441 -0.13922,-0.256786 -0.13922,-0.07735 -0.48882,-0.142315 z m 1.78822,0.123752 V 29.0758 h -0.39292 v -2.236825 h 1.0519 q 0.32794,0 0.51357,0.179441 0.18563,0.179441 0.18563,0.476447 0,0.334131 -0.19182,0.513572 -0.18872,0.179441 -0.51048,0.179441 z m 0.95908,-0.686825 q 0,-0.173254 -0.099,-0.262974 -0.099,-0.09282 -0.29082,-0.09282 h -0.56926 v 0.736327 h 0.56926 q 0.19181,0 0.29082,-0.09281 0.099,-0.09591 0.099,-0.287724 z m 1.16946,-0.662076 V 29.0758 h -0.39292 v -2.236825 z m 0.99002,0.306287 h -0.69611 v -0.306287 h 1.78203 v 0.306287 H 124.775 V 29.0758 h -0.39291 z m 2.57405,1.027145 -0.3527,-0.955987 -0.35888,0.955987 z m -0.82605,0.306288 -0.22276,0.597105 h -0.3991 l 0.9003,-2.236825 h 0.4022 l 0.89411,2.236825 h -0.40839 l -0.22584,-0.597105 z m 3.40319,0.597105 h -1.57166 v -2.236825 h 0.39291 v 1.930538 h 1.17875 z"
         id="text5-8"
         aria-label="NEW TAIPEI CITY HOSPITAL" />
      <path
         d="m 87.97974,31.149564 h 1.063706 v 0.250955 H 87.97974 Z m -1.519988,-0.661608 h 1.269033 v 0.222437 h -1.269033 z m -0.03137,1.132149 h 1.306106 v 0.230992 h -1.306106 z m -0.0086,-0.487651 h 1.340327 v 0.225289 h -1.340327 z m 2.058971,0.125477 h 0.262362 v 1.57132 h -0.262362 z m -1.514285,-1.043744 h 0.262362 v 0.379284 h -0.262362 z m 0,1.11789 h 0.262362 v 1.508581 h -0.262362 z m 0.889749,-0.90686 0.322249,0.09411 q -0.0057,0.03422 -0.06559,0.04563 v 0.861231 q 0,0.16255 -0.01711,0.347915 -0.01426,0.182512 -0.05989,0.376432 -0.04563,0.191068 -0.136884,0.373581 -0.08841,0.179661 -0.233845,0.330804 -0.01711,-0.03137 -0.05133,-0.06844 -0.03422,-0.03707 -0.07415,-0.07129 -0.03707,-0.03137 -0.06844,-0.04563 0.131181,-0.134032 0.208178,-0.288027 0.077,-0.153995 0.114071,-0.319397 0.03992,-0.165403 0.05133,-0.325101 0.01141,-0.16255 0.01141,-0.313694 z m 0.943933,-0.196771 0.216734,0.196771 q -0.136885,0.06274 -0.310842,0.116923 -0.171106,0.05133 -0.350767,0.09411 -0.179661,0.03992 -0.347914,0.07129 -0.0086,-0.04278 -0.03422,-0.102664 -0.02566,-0.06274 -0.05133,-0.102663 0.159698,-0.03422 0.322249,-0.077 0.165402,-0.04563 0.310842,-0.09411 0.145439,-0.05133 0.245251,-0.102663 z m -1.591282,1.659724 q 0.03137,0.01996 0.09411,0.07129 0.06559,0.04848 0.136884,0.105515 0.07415,0.05704 0.134033,0.108367 0.06274,0.04848 0.0884,0.07129 l -0.156847,0.196772 q -0.03422,-0.03992 -0.09126,-0.09981 -0.05704,-0.05989 -0.125478,-0.122626 -0.06559,-0.06559 -0.128329,-0.119774 -0.05989,-0.05704 -0.09981,-0.09126 z m -0.590314,-1.129297 0.21103,-0.04848 q 0.04278,0.08841 0.07415,0.19392 0.03137,0.105515 0.03992,0.179661 l -0.222437,0.06274 q -0.0057,-0.07985 -0.03422,-0.188217 -0.02852,-0.108366 -0.06844,-0.199623 z m 0.724347,-0.05418 0.239547,0.05133 q -0.03992,0.102663 -0.07985,0.205326 -0.03992,0.09981 -0.07415,0.173958 l -0.216733,-0.04848 q 0.02281,-0.05418 0.04563,-0.119774 0.02567,-0.06844 0.04848,-0.136885 0.02281,-0.06844 0.03707,-0.125477 z m -0.373581,1.043744 0.191068,0.07129 q -0.06844,0.156847 -0.171106,0.313694 -0.102663,0.156846 -0.219585,0.290879 -0.116922,0.134033 -0.230993,0.225289 -0.02852,-0.04563 -0.0827,-0.102663 -0.05133,-0.05703 -0.09411,-0.09126 0.114071,-0.07414 0.228141,-0.188216 0.116922,-0.11407 0.213882,-0.248103 0.09981,-0.136884 0.165402,-0.270917 z m 2.352702,-0.849824 h 0.841269 v 0.270917 h -0.841269 z m 1.411621,-0.650202 h 0.282324 v 2.09034 q 0,0.114071 0.02281,0.148292 0.02567,0.03137 0.111219,0.03137 0.01996,0 0.06844,0 0.05133,0 0.111219,0 0.05989,0 0.111219,0 0.05133,0 0.07415,0 0.06274,0 0.09411,-0.04848 0.03137,-0.05133 0.04563,-0.179661 0.01426,-0.128329 0.02281,-0.359321 0.03422,0.02567 0.07985,0.05133 0.04563,0.02567 0.09411,0.04563 0.04848,0.01711 0.08555,0.02567 -0.01426,0.265214 -0.05133,0.427764 -0.03422,0.159699 -0.11407,0.230993 -0.07985,0.07129 -0.230993,0.07129 -0.02281,0 -0.0827,0 -0.05989,0 -0.131181,0 -0.07129,0 -0.131181,0 -0.05703,0 -0.07985,0 -0.148292,0 -0.230993,-0.03992 -0.0827,-0.03992 -0.116922,-0.139736 -0.03422,-0.09696 -0.03422,-0.270917 z m -0.704385,-0.0029 h 0.279473 v 2.572288 h -0.279473 z m 1.639762,0.433468 0.196772,0.239548 q -0.136885,0.102663 -0.299435,0.202475 -0.16255,0.09981 -0.333656,0.196771 -0.168254,0.09696 -0.330804,0.182513 -0.01426,-0.04563 -0.04848,-0.108367 -0.03137,-0.06274 -0.05989,-0.102663 0.156847,-0.08555 0.316545,-0.188217 0.159699,-0.105515 0.305139,-0.213882 0.145439,-0.111218 0.253806,-0.208178 z m -2.441106,1.531395 q 0.116922,-0.03707 0.268065,-0.09126 0.151144,-0.05418 0.319397,-0.116922 0.171106,-0.06274 0.342212,-0.12833 l 0.05133,0.245252 q -0.219585,0.09696 -0.447726,0.193919 -0.225289,0.09411 -0.410653,0.171106 z m 4.046647,-2.027601 h 0.288028 v 0.556093 h -0.288028 z m 0.0029,0.638794 h 0.279472 v 2.027601 H 93.275458 Z M 92.131902,30.576361 H 94.7213 v 0.262362 h -2.589398 z m 0.285176,0.613128 h 1.873606 v 0.262362 h -1.602689 v 1.043744 h -0.270917 z m 1.770943,0 h 0.279473 v 0.989561 q 0,0.105515 -0.02852,0.168254 -0.02567,0.06274 -0.105515,0.09696 -0.0827,0.02852 -0.205327,0.03707 -0.122626,0.0086 -0.302286,0.0086 -0.0057,-0.06274 -0.03422,-0.136885 -0.02852,-0.07415 -0.05703,-0.131181 0.08555,0.0029 0.165402,0.0057 0.0827,0.0029 0.142588,0.0029 0.05989,-0.0029 0.0827,-0.0029 0.03707,0 0.04848,-0.01141 0.01426,-0.01141 0.01426,-0.03993 z m 0.898304,-0.459133 h 2.398331 v 0.265213 h -2.398331 z m -0.09696,1.725314 h 2.577991 v 0.270918 h -2.577991 z m 1.137852,-2.258593 h 0.282324 v 0.68157 h -0.282324 z m 0.667312,0.915415 0.30799,0.05703 q -0.04278,0.176809 -0.09411,0.365025 -0.05133,0.185364 -0.108367,0.370729 -0.05418,0.182512 -0.111219,0.347914 -0.05418,0.165403 -0.108367,0.296584 l -0.25951,-0.06274 q 0.05418,-0.134033 0.105515,-0.302287 0.05418,-0.171105 0.102664,-0.35647 0.05133,-0.185364 0.09411,-0.367877 0.04278,-0.185364 0.07129,-0.347914 z m -1.331772,0.0827 0.256658,-0.06844 q 0.07129,0.182513 0.128329,0.38784 0.05704,0.205326 0.09411,0.402098 0.03993,0.193919 0.05418,0.350766 l -0.279473,0.07129 q -0.0057,-0.153995 -0.04278,-0.350766 -0.03422,-0.199623 -0.09126,-0.40495 -0.05418,-0.208179 -0.119774,-0.387839 z m 2.366961,-0.884046 h 1.026633 v 0.2424 h -1.026633 z m 0.282324,0.601721 h 0.507613 v 0.225289 h -0.507613 z m 0.838417,1.209147 h 0.427764 v 0.185364 H 98.95046 Z m 0.881194,0 h 0.442027 v 0.185364 h -0.442027 z m -1.719611,-0.624536 h 0.507613 v 0.225289 h -0.507613 z m -0.142588,-1.060855 h 0.225289 v 1.810868 h -0.225289 z m 0.507613,0 h 0.230993 v 2.406886 h -0.230993 z m 1.220553,1.140704 h 0.222438 v 1.266182 H 99.69762 Z m -0.824158,0.09981 h 0.199623 v 0.750013 h -0.199623 z m 1.274738,0 h 0.20818 v 0.744309 h -0.20818 z m -2.358407,0.51902 q 0.153995,-0.02281 0.365025,-0.05989 0.213882,-0.03707 0.436319,-0.0827 l 0.01711,0.236696 q -0.202475,0.03993 -0.40495,0.0827 -0.199623,0.04278 -0.367877,0.077 z m 1.497174,-0.613128 h 0.219585 v 0.476244 q 0,0.159698 -0.03137,0.30799 -0.03137,0.14544 -0.128329,0.268065 -0.09696,0.125478 -0.299435,0.216734 -0.01141,-0.02567 -0.03707,-0.05989 -0.02281,-0.03137 -0.04848,-0.06559 -0.02567,-0.03137 -0.04848,-0.05133 0.165402,-0.077 0.245252,-0.176809 0.07985,-0.09981 0.102663,-0.21103 0.02567,-0.111219 0.02567,-0.230993 z m -0.50191,-0.248103 q 0.139736,-0.0086 0.325101,-0.02281 0.185364,-0.01426 0.387839,-0.02852 l 0.0029,0.179661 q -0.185365,0.01996 -0.362174,0.03707 -0.176809,0.01426 -0.3251,0.02852 z m 0.03992,-0.618832 0.116922,-0.153995 q 0.09981,0.077 0.199623,0.179661 0.09981,0.09981 0.14544,0.182512 l -0.125478,0.173958 q -0.04563,-0.0827 -0.142588,-0.191068 -0.09696,-0.108367 -0.193919,-0.191068 z m 0.493354,0.416357 0.16255,-0.05133 q 0.05704,0.09696 0.102664,0.213882 0.04563,0.116922 0.05703,0.202475 l -0.171106,0.05989 q -0.01141,-0.08555 -0.05418,-0.202475 -0.04278,-0.119774 -0.09696,-0.222437 z m -0.14544,-0.935377 0.222438,0.07129 q -0.07129,0.128329 -0.151144,0.270917 -0.077,0.139736 -0.142588,0.233844 l -0.151143,-0.05989 q 0.04278,-0.06844 0.0827,-0.159698 0.04278,-0.09126 0.07985,-0.185365 0.03707,-0.09411 0.05989,-0.171105 z m 0.205327,0.35647 0.202475,0.07129 q -0.07415,0.134032 -0.165402,0.282324 -0.0884,0.148291 -0.179661,0.288028 -0.09126,0.136884 -0.173957,0.239547 l -0.142588,-0.06559 q 0.07985,-0.105515 0.165402,-0.248103 0.08555,-0.142588 0.16255,-0.293731 0.07985,-0.151144 0.131181,-0.273769 z m 0.2424,0.775678 q 0.139736,-0.0086 0.3251,-0.02281 0.185362,-0.01426 0.387832,-0.02852 l 0.003,0.176809 q -0.18252,0.01711 -0.359322,0.03707 -0.173958,0.01711 -0.322249,0.03137 z m -0.01711,-0.618832 0.114071,-0.159698 q 0.105515,0.077 0.208178,0.179661 0.105523,0.09981 0.151153,0.185364 l -0.119784,0.182513 q -0.04848,-0.08841 -0.151143,-0.196772 -0.09981,-0.108367 -0.202475,-0.191068 z m 0.516172,0.422061 0.16826,-0.05703 q 0.0656,0.105515 0.11691,0.233844 0.0542,0.125477 0.0684,0.216734 l -0.17966,0.06559 q -0.0114,-0.09126 -0.0627,-0.219585 -0.0485,-0.131181 -0.11122,-0.239548 z m -0.15685,-0.935377 0.22814,0.07129 q -0.0742,0.131181 -0.154,0.273769 -0.07984,0.139736 -0.145434,0.236696 l -0.156847,-0.06559 q 0.03992,-0.06844 0.0827,-0.159698 0.04278,-0.09126 0.07985,-0.185365 0.03992,-0.09411 0.06559,-0.171105 z m 0.21389,0.347914 0.21102,0.077 q -0.0742,0.134033 -0.1654,0.282324 -0.0913,0.148292 -0.18252,0.285176 -0.09125,0.136885 -0.17395,0.239548 l -0.148291,-0.06559 q 0.07985,-0.108366 0.165402,-0.250954 0.08555,-0.142588 0.162549,-0.29088 0.077,-0.151143 0.13118,-0.276621 z m 1.08651,0.578908 h 1.43728 v 0.239547 h -1.43728 z m -0.0428,1.371696 h 1.50289 v 0.239548 h -1.50289 z m -0.12262,-0.807048 h 1.77949 v 1.157815 h -0.27661 v -0.915415 h -1.23767 v 0.915415 h -0.26521 z m 0.87263,-1.220553 q -0.11691,0.168254 -0.29943,0.350766 -0.1825,0.179661 -0.40495,0.345063 -0.22244,0.165402 -0.46483,0.296583 -0.0171,-0.03137 -0.0456,-0.07129 -0.0285,-0.03992 -0.0599,-0.077 -0.0314,-0.03993 -0.0627,-0.06844 0.24809,-0.122625 0.47909,-0.296583 0.23099,-0.176809 0.41351,-0.370728 0.18536,-0.19392 0.29373,-0.373581 h 0.27661 q 0.11692,0.159699 0.25952,0.310842 0.14543,0.148291 0.30799,0.282324 0.1654,0.131181 0.33651,0.236696 0.17396,0.102664 0.34506,0.176809 -0.0513,0.05133 -0.097,0.116923 -0.0456,0.06274 -0.0827,0.122625 -0.1654,-0.0884 -0.33651,-0.199623 -0.1711,-0.11407 -0.3308,-0.245251 -0.15685,-0.131181 -0.29373,-0.268066 -0.13689,-0.136884 -0.23385,-0.268065 z m 2.35842,0.51902 h 1.79661 v 0.228141 h -1.79661 z m 0.77283,0.966747 0.16255,-0.134033 q 0.0856,0.07129 0.17965,0.159699 0.097,0.0884 0.18251,0.173957 0.0855,0.0827 0.13974,0.148291 l -0.17111,0.151144 q -0.0513,-0.06559 -0.13402,-0.153995 -0.0827,-0.08841 -0.17966,-0.179661 -0.0941,-0.09126 -0.17966,-0.165402 z m -0.69583,-0.481948 h 1.48005 v 0.230993 h -1.23766 v 1.143556 h -0.2424 z m 1.37739,0 h 0.25952 v 1.095076 q 0,0.09126 -0.0257,0.14544 -0.0228,0.05704 -0.0913,0.0884 -0.0627,0.02852 -0.1654,0.03422 -0.0998,0.0086 -0.24525,0.0057 -0.006,-0.04848 -0.0342,-0.116922 -0.0257,-0.06844 -0.0542,-0.116922 0.10266,0.0029 0.19105,0.0029 0.0884,0.0029 0.11408,0 0.0314,-0.0029 0.0399,-0.01141 0.0114,-0.01141 0.0114,-0.03707 z m -0.70153,-0.407801 h 0.2367 v 0.481947 q 0,0.11407 -0.02,0.239548 -0.02,0.122626 -0.077,0.245251 -0.057,0.122626 -0.16255,0.233845 -0.10552,0.111218 -0.27662,0.199623 -0.0228,-0.03707 -0.0713,-0.0884 -0.0456,-0.05418 -0.0827,-0.08555 0.15115,-0.07129 0.2424,-0.16255 0.0941,-0.09126 0.13689,-0.191068 0.0456,-0.102663 0.0599,-0.202475 0.0142,-0.09981 0.0142,-0.188216 z m -0.981,-0.55039 h 2.04756 v 0.2424 h -2.04756 z m -0.14544,0 h 0.25666 v 0.852676 q 0,0.168254 -0.0171,0.365025 -0.0143,0.19392 -0.0627,0.393543 -0.0485,0.199623 -0.13974,0.384988 -0.0884,0.182513 -0.23669,0.327952 -0.02,-0.02567 -0.057,-0.06274 -0.0342,-0.03422 -0.0742,-0.06844 -0.0371,-0.03137 -0.0627,-0.04848 0.13403,-0.136884 0.21103,-0.296583 0.0798,-0.16255 0.11692,-0.333656 0.0399,-0.171105 0.0513,-0.342211 0.0143,-0.171105 0.0143,-0.322249 z m 0.87264,-0.316545 h 0.28517 v 0.479095 h -0.28517 z m -1.31181,0.644497 0.19677,-0.09696 q 0.0741,0.122626 0.13688,0.270918 0.0627,0.148291 0.0856,0.253806 l -0.21103,0.114071 q -0.0143,-0.07415 -0.0456,-0.165402 -0.0314,-0.09411 -0.0742,-0.191068 -0.0428,-0.09981 -0.0884,-0.185365 z m -0.0371,1.012375 q 0.10267,-0.04563 0.23955,-0.11407 0.13974,-0.06844 0.28803,-0.14544 l 0.0656,0.213882 q -0.12548,0.07415 -0.25666,0.151143 -0.12833,0.077 -0.25095,0.142588 z m 4.51149,-1.648317 h 0.26236 v 0.436319 h -0.26236 z m -0.66446,0.313693 h 1.64261 v 0.538983 h -0.2481 v -0.30799 h -1.15211 v 0.30799 h -0.2424 z m 0.21958,0.513317 h 1.19774 v 0.233845 h -1.19774 z m -0.18251,0.507613 h 1.60554 v 0.2424 h -1.60554 z m 0.35647,0.111219 h 0.25666 q -0.0114,0.228141 -0.0428,0.416357 -0.0314,0.185364 -0.10551,0.333656 -0.0713,0.148292 -0.20818,0.256658 -0.13403,0.111219 -0.35077,0.185365 -0.0114,-0.03137 -0.0371,-0.07129 -0.0257,-0.03993 -0.0542,-0.077 -0.0285,-0.03707 -0.057,-0.05989 0.19392,-0.06274 0.30799,-0.151143 0.11407,-0.08841 0.17396,-0.208178 0.0627,-0.119774 0.0855,-0.276621 0.0228,-0.156847 0.0314,-0.347915 z m 0.52758,-0.02567 h 0.2538 v 0.85838 q 0,0.05703 0.009,0.07129 0.0114,0.01426 0.0485,0.01426 0.0114,0 0.0428,0 0.0314,0 0.0627,0 0.0342,0 0.0456,0 0.0285,0 0.0428,-0.02281 0.0143,-0.02281 0.02,-0.09696 0.006,-0.077 0.009,-0.228141 0.0257,0.02281 0.0656,0.04278 0.0399,0.01996 0.0827,0.03707 0.0456,0.01426 0.0798,0.02281 -0.0114,0.191068 -0.0399,0.296584 -0.0285,0.108366 -0.0827,0.148291 -0.0542,0.04278 -0.14829,0.04278 -0.0171,0 -0.0485,0 -0.0285,0 -0.0627,0 -0.0342,0 -0.0656,0 -0.0285,0 -0.0456,0 -0.10836,0 -0.16825,-0.03137 -0.057,-0.02852 -0.0798,-0.09981 -0.02,-0.07129 -0.02,-0.196771 z m -1.77095,-1.306106 h 0.67017 v 0.2424 h -0.43347 v 2.28426 h -0.2367 z m 0.59032,0 h 0.0428 l 0.0399,-0.01141 0.17681,0.102664 q -0.0399,0.119773 -0.0855,0.256658 -0.0456,0.134033 -0.0941,0.265214 -0.0456,0.131181 -0.0913,0.245251 0.14544,0.171106 0.19107,0.319397 0.0456,0.148292 0.0456,0.279473 0,0.122625 -0.0285,0.21103 -0.0257,0.0884 -0.0913,0.134033 -0.0314,0.02281 -0.0713,0.03707 -0.0371,0.01141 -0.0827,0.01996 -0.0827,0.0086 -0.18822,0.0029 -0.003,-0.04848 -0.02,-0.11407 -0.0143,-0.06844 -0.0428,-0.116922 0.0428,0.0029 0.0799,0.0029 0.0371,0 0.0684,0 0.0542,-0.0029 0.0856,-0.02567 0.0285,-0.02281 0.0399,-0.07129 0.0114,-0.04848 0.0114,-0.111219 0,-0.108367 -0.0456,-0.245251 -0.0456,-0.136885 -0.18536,-0.293731 0.0371,-0.09696 0.0713,-0.208179 0.0342,-0.111219 0.0656,-0.222437 0.0342,-0.114071 0.0599,-0.21103 0.0285,-0.09981 0.0485,-0.168254 z"
         id="text5-9-1"
         style="font-weight:500;font-size:2.85176px;line-height:1.25;font-family:'Noto Sans JP';-inkscape-font-specification:'Noto Sans JP Medium';stroke-width:0.101849"
         aria-label="新北市立聯合病院" />
      <path
         style="font-weight:500;font-size:2.85176px;line-height:1.25;font-family:'Noto Sans kr';-inkscape-font-specification:'Noto Sans kr Medium';stroke-width:0.101849"
         d="m 115.60945,30.30627 h 0.29944 v 1.904976 h -0.29944 z m -1.40021,2.309926 h 1.77379 v 0.242399 h -1.77379 z m 0,-0.581759 h 0.29658 v 0.701533 h -0.29658 z m 0.19962,-1.585579 h 0.24811 v 0.25951 q 0,0.256659 -0.0856,0.484799 -0.0855,0.225289 -0.2481,0.396395 -0.16255,0.171106 -0.39639,0.25951 l -0.154,-0.236696 q 0.20533,-0.077 0.34792,-0.216734 0.14258,-0.142588 0.21388,-0.319397 0.0741,-0.179661 0.0741,-0.367877 z m 0.0599,0 h 0.2424 v 0.25951 q 0,0.139737 0.0399,0.270917 0.0428,0.12833 0.12263,0.2424 0.0827,0.11407 0.19962,0.202475 0.11693,0.0884 0.26807,0.139736 l -0.154,0.239548 q -0.22814,-0.08555 -0.39069,-0.245251 -0.16255,-0.162551 -0.24525,-0.379284 -0.0827,-0.219586 -0.0827,-0.470541 z m 2.00194,0.105515 h 0.28232 v 0.61598 h 0.45343 v -0.61598 h 0.27662 v 1.719611 h -1.01237 z m 0.28232,0.855528 v 0.621684 h 0.45343 v -0.621684 z m 1.57132,-1.106483 h 0.28518 v 2.606509 h -0.28518 z m -0.88975,0.975302 h 0.47054 v 0.2424 h -0.47054 z m 0.36788,-0.92397 h 0.27947 v 2.432551 h -0.27947 z m 3.05138,-0.05133 h 0.29944 v 2.612212 h -0.29944 z m -1.08652,0.191068 q 0.19392,0 0.34506,0.114071 0.154,0.11407 0.23955,0.319397 0.0855,0.205326 0.0855,0.484799 0,0.282324 -0.0855,0.490503 -0.0855,0.205326 -0.23955,0.319397 -0.15114,0.111218 -0.34506,0.111218 -0.19392,0 -0.34791,-0.111218 -0.15115,-0.114071 -0.23955,-0.319397 -0.0856,-0.208179 -0.0856,-0.490503 0,-0.279473 0.0856,-0.484799 0.0884,-0.205327 0.23955,-0.319397 0.15399,-0.114071 0.34791,-0.114071 z m 0,0.270917 q -0.11407,0 -0.20247,0.077 -0.0856,0.077 -0.13404,0.222437 -0.0485,0.14544 -0.0485,0.347915 0,0.205327 0.0485,0.350766 0.0485,0.14544 0.13404,0.225289 0.0884,0.077 0.20247,0.077 0.11407,0 0.19962,-0.077 0.0856,-0.07985 0.13404,-0.225289 0.0485,-0.145439 0.0485,-0.350766 0,-0.202475 -0.0485,-0.347915 -0.0485,-0.145439 -0.13404,-0.222437 -0.0855,-0.077 -0.19962,-0.077 z m 2.52951,-0.245251 h 0.24525 v 0.427764 q 0,0.236696 -0.0513,0.456282 -0.0513,0.219585 -0.15114,0.410653 -0.097,0.191068 -0.2367,0.336508 -0.13688,0.14544 -0.31369,0.230992 l -0.1797,-0.245253 q 0.15684,-0.07129 0.28232,-0.19392 0.12833,-0.125477 0.21674,-0.285176 0.0913,-0.159698 0.13973,-0.342211 0.0485,-0.182513 0.0485,-0.367877 z m 0.0542,0 h 0.24525 v 0.427764 q 0,0.179661 0.0456,0.353618 0.0485,0.173958 0.13688,0.327953 0.0884,0.153995 0.21388,0.270917 0.12548,0.116922 0.27662,0.188216 l -0.17396,0.239548 q -0.17395,-0.0827 -0.31084,-0.222437 -0.13688,-0.139737 -0.23384,-0.322249 -0.097,-0.182513 -0.14829,-0.396395 -0.0513,-0.213882 -0.0513,-0.439171 z m 1.12644,-0.216734 h 0.29944 v 2.612212 h -0.29944 z m 2.62647,0.0029 h 0.29944 v 1.440139 h -0.29944 z m -1.71391,1.149259 h 0.21674 q 0.24525,0 0.44772,-0.0057 0.20533,-0.0057 0.39355,-0.02281 0.18821,-0.01711 0.38784,-0.05133 l 0.0342,0.2424 q -0.20533,0.03422 -0.39925,0.05133 -0.19392,0.01711 -0.40495,0.02281 -0.20818,0.0057 -0.45913,0.0057 h -0.21674 z m -0.006,-1.026633 h 1.19204 V 31.1647 h -0.8926 v 0.447726 h -0.29374 v -0.675867 h 0.8926 v -0.268065 h -0.8983 z m 0.31369,1.440139 h 0.29659 v 0.265213 h 1.11504 v -0.265213 h 0.29373 v 1.009523 h -1.70536 z m 0.29659,0.499058 v 0.270917 h 1.11504 v -0.270917 z m 3.12553,-1.659725 h 0.69012 v 0.2424 h -0.69012 z m 0,0.536131 h 0.69012 v 0.239548 h -0.69012 z m -1.12075,-0.781382 h 0.29659 v 0.384988 h 0.61027 v -0.384988 h 0.29374 v 1.237664 h -1.2006 z m 0.29659,0.618832 v 0.382136 h 0.61027 v -0.382136 z m 1.44299,-0.775679 h 0.29943 v 1.565616 h -0.29943 z m -0.5675,1.616948 q 0.27377,0 0.46769,0.05989 0.19677,0.05704 0.30228,0.168254 0.10837,0.108367 0.10837,0.265213 0,0.233845 -0.2367,0.362174 -0.23384,0.128329 -0.64164,0.128329 -0.4078,0 -0.6445,-0.128329 -0.2367,-0.128329 -0.2367,-0.362174 0,-0.156846 0.10552,-0.265213 0.10837,-0.111219 0.30514,-0.168254 0.19962,-0.05989 0.47054,-0.05989 z m 0,0.230993 q -0.18537,0 -0.31655,0.03137 -0.12833,0.02852 -0.19677,0.08555 -0.0684,0.05703 -0.0684,0.145439 0,0.0827 0.0684,0.142588 0.0684,0.05989 0.19677,0.09126 0.13118,0.02852 0.31655,0.02852 0.18536,0 0.31369,-0.02852 0.12833,-0.03137 0.19677,-0.09126 0.0713,-0.05989 0.0713,-0.142588 0,-0.0884 -0.0713,-0.145439 -0.0684,-0.05703 -0.19677,-0.08555 -0.12833,-0.03137 -0.31369,-0.03137 z m 2.04471,-0.524724 h 0.29658 v 0.573203 h -0.29658 z m 1.14641,-1.323217 h 0.29943 v 1.97627 h -0.29943 z m -1.52284,2.309926 h 1.88501 v 0.242399 h -1.88501 z m 0,-0.524724 h 0.29943 v 0.590314 h -0.29943 z m -0.31084,-0.362174 -0.0371,-0.242399 q 0.23955,-0.0029 0.52188,-0.0057 0.28232,-0.0057 0.57605,-0.01996 0.29658,-0.01711 0.57035,-0.05133 l 0.0228,0.213882 q -0.27948,0.04563 -0.57321,0.06844 -0.29088,0.02281 -0.5675,0.02852 -0.27662,0.0057 -0.51331,0.0086 z m 1.32321,0.102664 h 0.58461 v 0.21103 h -0.58461 z m -0.51902,-1.428732 q 0.19392,0 0.33651,0.05703 0.14544,0.05703 0.22529,0.16255 0.0827,0.102664 0.0827,0.239548 0,0.136885 -0.0827,0.2424 -0.0798,0.105515 -0.22529,0.16255 -0.14259,0.05418 -0.33651,0.05418 -0.18821,0 -0.33651,-0.05418 -0.14544,-0.05704 -0.22814,-0.16255 -0.0798,-0.105515 -0.0798,-0.2424 0,-0.136884 0.0798,-0.239548 0.0827,-0.105515 0.22814,-0.16255 0.1483,-0.05703 0.33651,-0.05703 z m 0,0.219585 q -0.1597,0 -0.26236,0.06559 -0.0998,0.06274 -0.0998,0.173957 0,0.111219 0.0998,0.176809 0.10266,0.06274 0.26236,0.06274 0.1597,0 0.25951,-0.06274 0.0998,-0.06559 0.0998,-0.176809 0,-0.07414 -0.0456,-0.125477 -0.0456,-0.05418 -0.12548,-0.0827 -0.0798,-0.03137 -0.18822,-0.03137 z"
         id="text5-9-1-0"
         aria-label="신베이시립병원" />
      <path
         id="rect2"
         style="stroke-width:0.665977"
         d="M 82.519012,18.120369 H 83.44178 V 32.852063 H 82.519012 Z" />
    </g>
    <text
       xml:space="preserve"
       transform="matrix(0.31615295,0,0,0.31615295,-10.474341,-6.4462013)"
       id="text6"
       style="font-size:55px;line-height:1.25;font-family:'Microsoft JhengHei';-inkscape-font-specification:'Microsoft JhengHei';white-space:pre;shape-inside:url(#rect6);display:inline" />
  </g>
</svg>
