<?xml version="1.0" encoding="UTF-8" standalone="no"?>
<!-- Created with Inkscape (http://www.inkscape.org/) -->

<svg
   width="500"
   height="250"
   viewBox="0 0 132.29166 66.145833"
   version="1.1"
   id="svg1"
   inkscape:version="1.3.2 (091e20e, 2023-11-25, custom)"
   sodipodi:docname="o15.svg"
   xmlns:inkscape="http://www.inkscape.org/namespaces/inkscape"
   xmlns:sodipodi="http://sodipodi.sourceforge.net/DTD/sodipodi-0.dtd"
   xmlns="http://www.w3.org/2000/svg"
   xmlns:svg="http://www.w3.org/2000/svg">
  <sodipodi:namedview
     id="namedview1"
     pagecolor="#9e652e"
     bordercolor="#ffffff"
     borderopacity="1"
     inkscape:showpageshadow="0"
     inkscape:pageopacity="0"
     inkscape:pagecheckerboard="false"
     inkscape:deskcolor="#d1d1d1"
     inkscape:document-units="mm"
     inkscape:zoom="2.0208096"
     inkscape:cx="221.69333"
     inkscape:cy="117.27973"
     inkscape:window-width="1920"
     inkscape:window-height="1009"
     inkscape:window-x="1912"
     inkscape:window-y="-8"
     inkscape:window-maximized="1"
     inkscape:current-layer="layer1" />
  <defs
     id="defs1">
    <rect
       x="560.66638"
       y="34.144731"
       width="279.32397"
       height="128.59143"
       id="rect6" />
    <rect
       x="157.85752"
       y="62.351248"
       width="329.07603"
       height="135.09437"
       id="rect4" />
    <rect
       x="157.85751"
       y="62.35125"
       width="329.07602"
       height="135.09438"
       id="rect4-5" />
    <rect
       x="157.85751"
       y="62.35125"
       width="329.07602"
       height="135.09438"
       id="rect4-5-7" />
    <rect
       x="157.85751"
       y="62.35125"
       width="462.90293"
       height="131.58831"
       id="rect4-5-0" />
  </defs>
  <g
     inkscape:label="Layer 1"
     inkscape:groupmode="layer"
     id="layer1">
    <rect
       style="fill:#f4eed7;fill-opacity:1;stroke:none;stroke-width:0.953294;stroke-dasharray:none"
       id="rect5"
       width="132.29167"
       height="66.145836"
       x="-2.5431316e-06"
       y="-1.2715658e-06"
       ry="0" />
    <g
       id="g4"
       transform="matrix(1.3207748,0,0,1.3207748,10.418194,-10.608957)">
      <path
         id="rect1"
         style="fill-opacity:0;stroke:#000000;stroke-width:0.801799"
         d="m 16.377412,17.152325 h 10.56702 c 3.339781,0 6.028487,2.688705 6.028487,6.028486 v 19.784208 c 0,3.339781 -2.688706,6.028486 -6.028487,6.028486 h -10.56702 c -3.339781,0 -6.028486,-2.688705 -6.028486,-6.028486 V 23.180811 c 0,-3.339781 2.688705,-6.028486 6.028486,-6.028486 z" />
      <path
         style="font-size:11.8619px;line-height:1.25;font-family:'AR UDJingXiHeiE1G30 EB';-inkscape-font-specification:'AR UDJingXiHeiE1G30 EB';stroke-width:0.247123"
         d="m 25.943076,27.083192 q 0,2.06397 -1.150604,3.238298 -1.138743,1.162467 -3.11968,1.162467 -2.016523,0 -3.155266,-1.174329 -1.138742,-1.174328 -1.138742,-3.226436 0,-2.087695 1.150604,-3.273885 1.150605,-1.198052 3.143404,-1.198052 2.016523,0 3.143404,1.18619 1.12688,1.18619 1.12688,3.285747 z m -4.270284,3.226436 q 1.292947,0 1.992799,-0.854056 0.711714,-0.854057 0.711714,-2.37238 0,-1.506462 -0.711714,-2.396104 -0.711714,-0.901505 -1.992799,-0.901505 -1.304809,0 -2.028385,0.913367 -0.711714,0.901504 -0.711714,2.384242 0,1.518323 0.723576,2.37238 0.723576,0.854056 2.016523,0.854056 z"
         id="text2"
         aria-label="O" />
      <path
         style="font-size:12.2395px;line-height:1.25;font-family:'AR UDJingXiHeiE1G30 EB';-inkscape-font-specification:'AR UDJingXiHeiE1G30 EB';stroke-width:0.222535"
         d="M 17.487252,36.059055 16.05523,37.39316 15.345339,36.303845 17.646365,34.21089 h 1.334106 v 8.849159 h -1.493219 z m 7.833271,2.20311 q -0.526298,0 -0.905723,0.195832 -0.379424,0.183592 -0.648693,0.563017 l -1.370824,-0.146874 0.660933,-4.66325 h 4.944758 v 1.211711 h -3.696329 l -0.342706,2.313265 q 0.305987,-0.342706 0.73437,-0.514059 0.440622,-0.183592 1.028118,-0.183592 1.260668,0 1.995038,0.820046 0.73437,0.820047 0.73437,2.239829 0,1.48098 -0.820046,2.301026 -0.820047,0.820047 -2.301026,0.820047 -1.456501,0 -2.276547,-0.722131 -0.820047,-0.72213 -0.844526,-1.94608 h 1.505459 q -0.01224,0.575256 0.391664,1.015878 0.403903,0.440622 1.187231,0.440622 0.74661,0 1.174992,-0.48958 0.440622,-0.501819 0.440622,-1.444261 0,-0.881244 -0.452861,-1.346345 -0.452862,-0.465101 -1.138274,-0.465101 z"
         id="text3"
         aria-label="15" />
      <path
         style="font-weight:500;font-size:72px;line-height:1.25;font-family:'Noto Sans TC';-inkscape-font-specification:'Noto Sans TC Medium';white-space:pre"
         d="m 166.56942,81.585406 h 54.648 v 6.984 h -54.648 z m 4.824,23.400004 h 44.136 v 6.912 h -44.136 z m -8.928,24.768 h 62.64 v 6.912 h -62.64 z m 70.92,4.104 h 65.088 v 5.472 h -65.088 z m 0.432,-46.440004 h 64.152 v 5.472 h -64.152 z m 4.968,36.000004 h 55.008 v 5.256 h -55.008 z m 23.328,-42.696004 h 6.84 v 55.800004 h -6.84 z m 25.704,-5.832 3.384,5.328 q -5.04,0.864 -11.16,1.512 -6.12,0.648 -12.816,1.152 -6.696,0.432 -13.536,0.72 -6.768,0.216 -13.032,0.36 -0.072,-1.224 -0.576,-2.736 -0.432,-1.584 -0.864,-2.592 6.336,-0.216 13.032,-0.504 6.696,-0.288 13.176,-0.72 6.48,-0.504 12.24,-1.08 5.76,-0.648 10.152,-1.44 z m -40.104,35.064004 v 4.536 h 36.504 v -4.536 z m 0,-8.712 v 4.464 h 36.504 v -4.464 z m -6.624,-4.680004 h 50.04 v 22.608004 h -50.04 z"
         id="text4"
         transform="matrix(0.22253605,0,0,0.22253605,1.031332,1.4902879)"
         aria-label="三重" />
      <path
         style="font-size:6.23101px;line-height:1.25;font-family:'AR UDJingXiHeiE1G30 EB';-inkscape-font-specification:'AR UDJingXiHeiE1G30 EB';stroke-width:0.222535"
         d="m 38.690972,37.680392 q -0.822493,-0.149544 -1.221278,-0.461095 -0.398784,-0.31155 -0.398784,-0.872341 0,-0.523405 0.423708,-0.866111 0.42994,-0.342705 1.320975,-0.342705 0.816262,0 1.264895,0.348936 0.448632,0.348937 0.492249,1.009424 h -0.791338 q -0.0062,-0.317782 -0.24924,-0.529636 -0.24301,-0.211854 -0.74149,-0.211854 -0.467326,0 -0.691643,0.155775 -0.224316,0.155775 -0.218085,0.436171 0,0.305319 0.299089,0.454863 0.305319,0.149545 0.99073,0.286627 0.85988,0.174468 1.221278,0.473557 0.36763,0.299088 0.36763,0.897265 0,0.573253 -0.486019,0.959576 -0.486019,0.380091 -1.383284,0.380091 -0.915959,0 -1.426902,-0.386322 -0.510942,-0.386323 -0.510942,-1.115351 h 0.791338 q 0,0.405015 0.305319,0.648025 0.30532,0.236778 0.847418,0.236778 0.498481,0 0.778876,-0.193161 0.280395,-0.193161 0.280395,-0.504712 0,-0.361399 -0.280395,-0.517174 -0.280395,-0.155775 -0.9845,-0.286626 z m 5.209125,0.218085 -0.710335,-1.925382 -0.722798,1.925382 z m -1.66368,0.61687 -0.448633,1.202585 h -0.8038 l 1.813224,-4.50502 h 0.810031 l 1.800762,4.50502 h -0.822493 l -0.454864,-1.202585 z m 4.48009,-2.050002 v 3.252587 h -0.791338 v -4.50502 h 0.816262 l 2.212009,3.327359 v -3.327359 h 0.791338 v 4.50502 h -0.86611 z m 7.265354,1.682373 h 0.791338 q -0.03115,0.74149 -0.517174,1.196353 -0.486019,0.454864 -1.408208,0.454864 -1.090427,0 -1.669911,-0.61687 -0.573253,-0.61687 -0.573253,-1.713528 0,-1.084195 0.573253,-1.707296 0.579484,-0.623101 1.657449,-0.623101 0.86611,0 1.345898,0.398784 0.479788,0.392554 0.548329,1.021886 H 53.938244 Q 53.888395,36.197411 53.608,35.979326 53.327605,35.75501 52.816662,35.75501 q -0.629332,0 -1.009424,0.423708 -0.380092,0.423709 -0.380092,1.289819 0,0.878573 0.380092,1.296051 0.386323,0.417477 1.021886,0.417477 0.542098,0 0.834955,-0.280395 0.292858,-0.286627 0.317782,-0.753952 z m 2.355319,-0.42994 v 2.000154 h -0.791339 v -4.50502 h 0.791339 v 1.887996 h 2.16216 v -1.887996 h 0.791338 v 4.50502 H 58.49934 v -2.000154 z m 8.318398,-0.230548 q 0,1.084196 -0.604408,1.701066 -0.598177,0.610639 -1.638756,0.610639 -1.059272,0 -1.657449,-0.61687 -0.598177,-0.61687 -0.598177,-1.694835 0,-1.096657 0.604408,-1.719758 0.604408,-0.629332 1.651218,-0.629332 1.059272,0 1.651218,0.623101 0.591946,0.623101 0.591946,1.725989 z m -2.243164,1.694835 q 0.67918,0 1.04681,-0.448633 0.37386,-0.448632 0.37386,-1.246202 0,-0.791338 -0.37386,-1.258664 -0.373861,-0.473556 -1.04681,-0.473556 -0.685411,0 -1.065503,0.479787 -0.37386,0.473557 -0.37386,1.252433 0,0.79757 0.380091,1.246202 0.380092,0.448633 1.059272,0.448633 z m 3.894383,-2.71672 v 3.252587 h -0.791338 v -4.50502 h 0.816262 l 2.212009,3.327359 v -3.327359 h 0.791338 v 4.50502 h -0.86611 z m 7.371281,2.704258 q -0.230548,0.324013 -0.579484,0.479788 -0.342706,0.149544 -0.785107,0.149544 -0.972038,0 -1.545291,-0.610639 -0.573253,-0.61687 -0.573253,-1.719759 0,-1.109119 0.604408,-1.719758 0.604408,-0.610639 1.632525,-0.610639 0.828724,0 1.345898,0.380091 0.523405,0.373861 0.629332,1.071734 h -0.791338 q -0.06231,-0.36763 -0.36763,-0.598177 -0.299088,-0.236778 -0.816262,-0.236778 -0.691642,0 -1.053041,0.448632 -0.361398,0.442402 -0.361398,1.264895 0,0.878573 0.380091,1.296051 0.380092,0.411246 1.034348,0.411246 0.573253,0 0.909727,-0.336474 0.336475,-0.336475 0.336475,-0.772646 v -0.09346 h -1.277357 v -0.61687 h 2.03754 v 2.361553 h -0.760183 z"
         id="text5"
         aria-label="SANCHONG" />
      <path
         d="m 37.32219,42.462335 h 4.729336 v 0.604408 H 37.32219 Z m 0.417477,2.025079 h 3.819609 v 0.598177 h -3.819609 z m -0.772645,2.143467 h 5.420979 v 0.598177 h -5.420979 z m 6.137545,0.355168 H 48.7374 v 0.473556 h -5.632833 z m 0.03739,-4.019002 h 5.55183 v 0.473557 h -5.55183 z m 0.429939,3.115505 h 4.760492 v 0.454864 h -4.760492 z m 2.018848,-3.694989 h 0.591946 v 4.829033 h -0.59195 z m 2.22447,-0.504712 0.292858,0.461095 q -0.436171,0.07477 -0.965807,0.130851 -0.529636,0.05608 -1.10912,0.0997 -0.579483,0.03739 -1.171429,0.06231 -0.585715,0.01869 -1.127813,0.03116 -0.0062,-0.105927 -0.04985,-0.236779 -0.03739,-0.137082 -0.07477,-0.224316 0.548328,-0.01869 1.127812,-0.04362 0.579484,-0.02492 1.140275,-0.06231 0.560791,-0.04362 1.059272,-0.09347 0.498481,-0.05608 0.878572,-0.124621 z m -3.470672,3.034502 v 0.392554 h 3.159122 v -0.392554 z m 0,-0.753952 v 0.386323 h 3.159122 v -0.386323 z m -0.573253,-0.405016 h 4.330552 v 1.956538 h -4.330552 z"
         id="text5-9"
         style="font-weight:500;font-size:6.23101px;line-height:1.25;font-family:'Noto Sans JP';-inkscape-font-specification:'Noto Sans JP Medium';stroke-width:0.222535"
         aria-label="三重" />
      <path
         style="font-weight:500;font-size:6.23101px;line-height:1.25;font-family:'Noto Sans KR';-inkscape-font-specification:'Noto Sans KR Medium';stroke-width:0.222535"
         d="m 59.729643,42.019045 h 0.654256 v 4.162314 h -0.654256 z m 0.324013,1.676141 h 0.984499 v 0.542098 h -0.984499 z m -3.439518,3.370977 h 3.981616 v 0.529635 h -3.981616 z m 0,-1.289819 h 0.654256 v 1.389515 h -0.654256 z m -0.03739,-3.358515 h 0.473557 v 0.629332 q 0,0.311551 -0.04985,0.641794 -0.04985,0.330244 -0.162006,0.641794 -0.105928,0.30532 -0.292858,0.567022 -0.18693,0.255472 -0.467326,0.423709 l -0.355167,-0.461095 q 0.243009,-0.155775 0.405016,-0.367629 0.168237,-0.211855 0.267933,-0.454864 0.0997,-0.249241 0.137082,-0.504712 0.04362,-0.255471 0.04362,-0.486019 z m 0.155775,0 h 0.461095 v 0.629332 q 0,0.218086 0.03116,0.473557 0.03115,0.255471 0.112158,0.510943 0.08723,0.24924 0.236779,0.473557 0.155775,0.224316 0.398784,0.392553 l -0.317781,0.486019 q -0.280395,-0.18693 -0.467326,-0.461095 -0.180699,-0.274164 -0.280395,-0.598177 -0.09347,-0.324012 -0.137082,-0.654256 -0.03739,-0.330243 -0.03739,-0.623101 z m 1.383285,0 h 0.467325 v 0.629332 q 0,0.299089 -0.04362,0.635563 -0.03739,0.336475 -0.137082,0.660487 -0.09346,0.317782 -0.274164,0.591946 -0.1807,0.267934 -0.473557,0.448633 l -0.311551,-0.486019 q 0.24301,-0.168237 0.392554,-0.386322 0.155775,-0.224317 0.236778,-0.473557 0.081,-0.255472 0.112159,-0.504712 0.03115,-0.255471 0.03115,-0.486019 z m 0.149544,0 h 0.467326 v 0.629332 q 0,0.336475 0.07477,0.67918 0.081,0.342706 0.267933,0.641794 0.193162,0.292858 0.517174,0.49225 l -0.361399,0.461095 q -0.367629,-0.224317 -0.585714,-0.585715 -0.211855,-0.36763 -0.299089,-0.8038 -0.081,-0.442402 -0.081,-0.884804 z m 5.508213,2.71049 h 0.648025 v 0.841186 h -0.648025 z m -2.243163,-0.336475 h 5.146814 v 0.517174 h -5.146814 z m 2.243163,-2.77903 H 64.42159 V 42.79169 H 63.773569 Z M 63.742414,42.854 h 0.573253 v 0.0997 q 0,0.336475 -0.168237,0.610639 -0.168237,0.274164 -0.479788,0.479788 -0.31155,0.205623 -0.74149,0.330243 -0.423709,0.124621 -0.940883,0.168238 l -0.193161,-0.49225 q 0.454864,-0.03739 0.816262,-0.130851 0.361399,-0.0997 0.610639,-0.24301 0.255472,-0.149544 0.386323,-0.330243 0.137082,-0.186931 0.137082,-0.392554 z m 0.143313,0 h 0.573253 v 0.0997 q 0,0.205623 0.130852,0.392554 0.137082,0.180699 0.386322,0.330243 0.255472,0.143313 0.610639,0.24301 0.361399,0.09347 0.822493,0.130851 l -0.193161,0.49225 q -0.517174,-0.04362 -0.947113,-0.168238 -0.423709,-0.12462 -0.73526,-0.330243 -0.31155,-0.205624 -0.479787,-0.479788 -0.168238,-0.274164 -0.168238,-0.610639 z m -1.844379,-0.299089 h 4.124929 v 0.510943 h -4.124929 z m 2.050003,3.240126 q 0.92842,0 1.445594,0.24924 0.517174,0.243009 0.517174,0.710335 0,0.461095 -0.517174,0.704104 -0.517174,0.24301 -1.445594,0.24301 -0.92219,0 -1.439364,-0.24301 -0.517173,-0.243009 -0.517173,-0.704104 0,-0.467326 0.517173,-0.710335 0.517174,-0.24924 1.439364,-0.24924 z m 0,0.492249 q -0.629332,0 -0.965807,0.11839 -0.336474,0.112158 -0.336474,0.348936 0,0.224317 0.336474,0.342706 0.336475,0.118389 0.965807,0.118389 0.635563,0 0.965806,-0.118389 0.336475,-0.118389 0.336475,-0.342706 0,-0.236778 -0.336475,-0.348936 -0.330243,-0.11839 -0.965806,-0.11839 z"
         id="text5-9-8"
         aria-label="싼충" />
    </g>
    <text
       xml:space="preserve"
       transform="matrix(0.31615295,0,0,0.31615295,-10.474341,-6.4462013)"
       id="text6"
       style="font-size:55px;line-height:1.25;font-family:'Microsoft JhengHei';-inkscape-font-specification:'Microsoft JhengHei';white-space:pre;shape-inside:url(#rect6);display:inline" />
  </g>
</svg>
