<?xml version="1.0" encoding="UTF-8" standalone="no"?>
<!-- Created with Inkscape (http://www.inkscape.org/) -->

<svg
   width="500"
   height="250"
   viewBox="0 0 132.29166 66.145833"
   version="1.1"
   id="svg1"
   inkscape:version="1.3.2 (091e20e, 2023-11-25, custom)"
   sodipodi:docname="o16.svg"
   xmlns:inkscape="http://www.inkscape.org/namespaces/inkscape"
   xmlns:sodipodi="http://sodipodi.sourceforge.net/DTD/sodipodi-0.dtd"
   xmlns="http://www.w3.org/2000/svg"
   xmlns:svg="http://www.w3.org/2000/svg">
  <sodipodi:namedview
     id="namedview1"
     pagecolor="#9e652e"
     bordercolor="#ffffff"
     borderopacity="1"
     inkscape:showpageshadow="0"
     inkscape:pageopacity="0"
     inkscape:pagecheckerboard="false"
     inkscape:deskcolor="#d1d1d1"
     inkscape:document-units="mm"
     inkscape:zoom="2.0208096"
     inkscape:cx="221.69333"
     inkscape:cy="117.27973"
     inkscape:window-width="1920"
     inkscape:window-height="1009"
     inkscape:window-x="1912"
     inkscape:window-y="-8"
     inkscape:window-maximized="1"
     inkscape:current-layer="layer1" />
  <defs
     id="defs1">
    <rect
       x="560.66638"
       y="34.144731"
       width="279.32397"
       height="128.59143"
       id="rect6" />
    <rect
       x="157.85752"
       y="62.351248"
       width="329.07603"
       height="135.09437"
       id="rect4" />
    <rect
       x="157.85751"
       y="62.35125"
       width="329.07602"
       height="135.09438"
       id="rect4-5" />
    <rect
       x="157.85751"
       y="62.35125"
       width="329.07602"
       height="135.09438"
       id="rect4-5-7" />
    <rect
       x="157.85751"
       y="62.35125"
       width="462.90293"
       height="131.58831"
       id="rect4-5-0" />
  </defs>
  <g
     inkscape:label="Layer 1"
     inkscape:groupmode="layer"
     id="layer1">
    <rect
       style="fill:#f4eed7;fill-opacity:1;stroke:none;stroke-width:0.953294;stroke-dasharray:none"
       id="rect5"
       width="132.29167"
       height="66.145836"
       x="-2.5431316e-06"
       y="-1.2715658e-06"
       ry="0" />
    <g
       id="g4"
       transform="translate(17.400781)">
      <path
         id="rect1"
         style="fill-opacity:0;stroke:#000000;stroke-width:0.801799"
         d="m 16.377412,17.152325 h 10.56702 c 3.339781,0 6.028487,2.688705 6.028487,6.028486 v 19.784208 c 0,3.339781 -2.688706,6.028486 -6.028487,6.028486 h -10.56702 c -3.339781,0 -6.028486,-2.688705 -6.028486,-6.028486 V 23.180811 c 0,-3.339781 2.688705,-6.028486 6.028486,-6.028486 z" />
      <path
         style="font-size:11.8619px;line-height:1.25;font-family:'AR UDJingXiHeiE1G30 EB';-inkscape-font-specification:'AR UDJingXiHeiE1G30 EB';stroke-width:0.247123"
         d="m 25.943076,27.083192 q 0,2.06397 -1.150604,3.238298 -1.138743,1.162467 -3.11968,1.162467 -2.016523,0 -3.155266,-1.174329 -1.138742,-1.174328 -1.138742,-3.226436 0,-2.087695 1.150604,-3.273885 1.150605,-1.198052 3.143404,-1.198052 2.016523,0 3.143404,1.18619 1.12688,1.18619 1.12688,3.285747 z m -4.270284,3.226436 q 1.292947,0 1.992799,-0.854056 0.711714,-0.854057 0.711714,-2.37238 0,-1.506462 -0.711714,-2.396104 -0.711714,-0.901505 -1.992799,-0.901505 -1.304809,0 -2.028385,0.913367 -0.711714,0.901504 -0.711714,2.384242 0,1.518323 0.723576,2.37238 0.723576,0.854056 2.016523,0.854056 z"
         id="text2"
         aria-label="O" />
      <path
         style="font-size:12.2395px;line-height:1.25;font-family:'AR UDJingXiHeiE1G30 EB';-inkscape-font-specification:'AR UDJingXiHeiE1G30 EB';stroke-width:0.222535"
         d="M 17.487252,36.059055 16.05523,37.39316 15.345339,36.303845 17.646365,34.21089 h 1.334106 v 8.849159 h -1.493219 z m 7.980145,7.160108 q -0.697651,0 -1.272908,-0.195832 -0.563017,-0.195832 -0.96692,-0.624215 -0.48958,-0.501819 -0.73437,-1.358584 -0.24479,-0.869005 -0.24479,-2.154153 0,-2.288786 0.832286,-3.549455 0.844525,-1.272908 2.411181,-1.272908 1.272908,0 1.97056,0.685412 0.709891,0.685412 0.783328,1.689051 h -1.493219 q -0.02448,-0.416143 -0.342706,-0.783328 -0.305988,-0.379424 -0.905723,-0.379424 -0.795568,0 -1.260669,0.869004 -0.452861,0.869005 -0.465101,2.154152 0.367185,-0.501819 0.893484,-0.758849 0.526298,-0.257029 1.187231,-0.257029 1.22395,0 1.921602,0.807807 0.697651,0.795567 0.697651,2.068476 0,1.46874 -0.832286,2.264307 -0.832286,0.795568 -2.178631,0.795568 z m 1.46874,-2.998678 q 0,-0.758849 -0.416143,-1.23619 -0.403903,-0.48958 -1.064836,-0.48958 -0.722131,0 -1.150513,0.465101 -0.416143,0.452862 -0.440622,1.223951 0,0.856765 0.416143,1.346345 0.428382,0.47734 1.162752,0.47734 0.709891,0 1.101555,-0.465101 0.391664,-0.465101 0.391664,-1.321866 z"
         id="text3"
         aria-label="16" />
      <path
         style="font-weight:500;font-size:72px;line-height:1.25;font-family:'Noto Sans TC';-inkscape-font-specification:'Noto Sans TC Medium';white-space:pre"
         d="m 199.54542,110.02541 h 6.84 v 21.24 q 0,1.728 0.504,2.232 0.576,0.432 2.52,0.432 0.432,0 1.44,0 1.08,0 2.376,0 1.296,0 2.376,0 1.152,0 1.656,0 1.224,0 1.872,-0.72 0.648,-0.792 0.864,-2.952 0.288,-2.232 0.432,-6.768 0.72,0.576 1.8,1.152 1.152,0.504 2.304,0.936 1.224,0.432 2.088,0.648 -0.288,5.616 -1.224,8.712 -0.864,3.024 -2.664,4.248 -1.728,1.224 -4.896,1.224 -0.504,0 -1.872,0 -1.296,0 -2.808,0 -1.512,0 -2.808,0 -1.296,0 -1.872,0 -3.6,0 -5.544,-0.864 -1.872,-0.792 -2.664,-2.808 -0.72,-2.016 -0.72,-5.472 z m -37.512,-4.896 h 63.792 v 6.552 h -63.792 z m 11.88,-19.872004 h 46.512 v 6.552 h -46.512 z m 6.408,24.912004 h 7.056 q -0.504,5.328 -1.656,10.08 -1.152,4.752 -3.528,8.856 -2.304,4.032 -6.408,7.2 -4.032,3.24 -10.512,5.544 -0.36,-0.936 -1.08,-2.016 -0.72,-1.008 -1.584,-2.088 -0.792,-1.08 -1.584,-1.728 5.832,-1.872 9.432,-4.464 3.6,-2.664 5.544,-5.976 2.016,-3.312 2.952,-7.128 0.936,-3.888 1.368,-8.28 z m -5.616,-34.128004 6.912,1.368 q -1.152,4.176 -2.808,8.712 -1.584,4.536 -3.672,8.784 -2.016,4.248 -4.536,7.416004 -0.792,-0.504 -1.872,-1.08 -1.08,-0.648 -2.16,-1.152 -1.08,-0.576004 -1.944,-0.864004 2.448,-3.096 4.392,-7.056 1.944,-3.96 3.384,-8.136 1.44,-4.248 2.304,-7.992 z m 15.768,-1.368 h 6.912 v 32.472004 h -6.912 z m 47.376,5.112 h 56.664 v 5.688 h -56.664 z m 7.056,54.216004 h 42.48 v 5.328 h -42.48 z m -11.016,-33.408 h 64.08 v 5.832 h -64.08 z m 28.44,-25.992004 h 6.696 v 30.744004 h -6.696 z m -21.816,35.280004 h 51.696 v 31.176 h -6.912 v -25.92 h -38.232 v 26.28 h -6.552 z m 17.928,12.24 v 4.608 h 15.048 v -4.608 z m -5.4,-3.672 h 26.136 v 11.952 h -26.136 z m -4.248,-33.048004 5.544,1.296 q -1.872,4.536 -5.328,8.28 -3.456,3.672 -7.488,6.120004 -0.432,-0.576 -1.224,-1.224004 -0.792,-0.72 -1.656,-1.368 -0.792,-0.72 -1.44,-1.152 3.888,-2.016 6.984,-5.112 3.096,-3.096 4.608,-6.84 z m 32.472,-0.072 5.184,1.368 q -1.872,4.392 -5.04,8.208 -3.168,3.816 -6.768,6.264004 -0.432,-0.504 -1.152,-1.224004 -0.72,-0.72 -1.512,-1.44 -0.792,-0.72 -1.368,-1.152 3.456,-2.088 6.264,-5.184 2.808,-3.168 4.392,-6.84 z m -34.128,7.848 3.456,-3.384 q 2.448,1.584 5.184,3.528 2.808,1.944 4.392,3.456 l -3.6,3.816004 q -1.512,-1.584004 -4.248,-3.672004 -2.736,-2.16 -5.184,-3.744 z m 32.832,0.216 3.6,-3.528 q 1.872,1.008 3.888,2.304 2.088,1.224 3.888,2.52 1.872,1.296 3.024,2.376 l -3.816,3.888004 q -1.08,-1.152004 -2.88,-2.448004 -1.8,-1.368 -3.816,-2.736 -2.016,-1.368 -3.888,-2.376 z m 45.576,4.824 v 8.064004 h 24.192 v -8.064004 z m -6.408,-5.544 h 37.44 v 19.152004 h -37.44 z m 14.832,15.912004 7.92,1.512 q -1.584,3.168 -3.24,6.336 -1.656,3.096 -3.024,5.256 l -6.048,-1.512 q 1.224,-2.448 2.448,-5.688 1.224,-3.312 1.944,-5.904 z m -20.304,8.784 h 49.176 v 23.76 h -7.056 v -17.784 h -35.28 v 17.928 h -6.84 z m 3.456,15.192 h 41.904 v 5.904 h -41.904 z m -9.72,-51.408004 h 61.2 v 17.064 h -6.984 v -10.872 h -47.592 v 10.872 h -6.624 z m 24.336,-5.04 6.912,-2.016 q 1.368,2.232 2.592,4.968 1.296,2.736 1.872,4.752 l -7.344,2.232 q -0.432,-1.944 -1.584,-4.752 -1.152,-2.88 -2.448,-5.184 z"
         id="text4"
         transform="matrix(0.22253605,0,0,0.22253605,1.031332,1.4902879)"
         aria-label="先嗇宮" />
      <path
         style="font-size:6.23101px;line-height:1.25;font-family:'AR UDJingXiHeiE1G30 EB';-inkscape-font-specification:'AR UDJingXiHeiE1G30 EB';stroke-width:0.222535"
         d="m 39.84994,35.212912 h 0.915959 l -1.551522,2.174622 1.638756,2.330398 h -0.92219 l -1.177661,-1.738452 -1.17766,1.738452 h -0.897266 l 1.626294,-2.336629 -1.557753,-2.168391 h 0.928421 l 1.084195,1.620062 z m 2.311705,0 v 4.50502 h -0.791338 v -4.50502 z m 3.433282,2.685565 -0.710335,-1.925382 -0.722797,1.925382 z m -1.66368,0.61687 -0.448632,1.202585 h -0.803801 l 1.813224,-4.50502 h 0.810032 l 1.800761,4.50502 h -0.822493 l -0.454864,-1.202585 z m 4.480091,-2.050002 v 3.252587 H 47.62 v -4.50502 h 0.816262 l 2.212009,3.327359 v -3.327359 h 0.791338 v 4.50502 h -0.86611 z m 5.558057,1.215047 q -0.822494,-0.149544 -1.221278,-0.461095 -0.398785,-0.31155 -0.398785,-0.872341 0,-0.523405 0.423709,-0.866111 0.42994,-0.342705 1.320974,-0.342705 0.816262,0 1.264895,0.348936 0.448633,0.348937 0.49225,1.009424 h -0.791339 q -0.0062,-0.317782 -0.24924,-0.529636 -0.243009,-0.211854 -0.74149,-0.211854 -0.467326,0 -0.691642,0.155775 -0.224317,0.155775 -0.218086,0.436171 0,0.305319 0.299089,0.454863 0.305319,0.149545 0.990731,0.286627 0.859879,0.174468 1.221277,0.473557 0.36763,0.299088 0.36763,0.897265 0,0.573253 -0.486019,0.959576 -0.486019,0.380091 -1.383284,0.380091 -0.915958,0 -1.426901,-0.386322 -0.510943,-0.386323 -0.510943,-1.115351 h 0.791338 q 0,0.405015 0.30532,0.648025 0.305319,0.236778 0.847417,0.236778 0.498481,0 0.778876,-0.193161 0.280396,-0.193161 0.280396,-0.504712 0,-0.361399 -0.280396,-0.517174 -0.280395,-0.155775 -0.984499,-0.286626 z m 6.143775,2.03754 h -3.333591 v -4.50502 h 3.314898 v 0.61687 h -2.52356 v 1.271126 h 2.355322 v 0.61687 h -2.355322 v 1.383284 h 2.542253 z m 3.427054,-3.88815 h -1.401977 v -0.61687 h 3.589062 v 0.61687 h -1.395747 v 3.88815 h -0.791338 z m 6.118852,3.88815 h -3.333591 v -4.50502 h 3.314898 v 0.61687 h -2.523559 v 1.271126 h 2.355321 v 0.61687 h -2.355321 v 1.383284 h 2.542252 z m 1.601372,-3.246356 v 3.246356 h -0.766414 v -4.50502 h 1.003192 l 1.296051,3.495596 1.246202,-3.495596 h 1.028116 v 4.50502 H 74.29495 v -3.27128 l -1.17143,3.27128 h -0.666718 z m 5.63283,1.458056 v 1.7883 H 76.10194 v -4.50502 h 2.118544 q 0.660487,0 1.034347,0.361398 0.373861,0.361399 0.373861,0.959576 0,0.672949 -0.386323,1.034348 -0.380091,0.361398 -1.028116,0.361398 z m 1.931614,-1.383284 q 0,-0.348937 -0.199393,-0.529636 -0.199392,-0.18693 -0.585715,-0.18693 h -1.146506 v 1.48298 h 1.146506 q 0.386323,0 0.585715,-0.18693 0.199393,-0.193161 0.199393,-0.579484 z m 4.729335,3.171584 h -3.165353 v -4.50502 h 0.791338 v 3.88815 h 2.374015 z m 3.987852,0 h -3.33359 v -4.50502 h 3.314897 v 0.61687 h -2.523559 v 1.271126 h 2.355322 v 0.61687 h -2.355322 v 1.383284 h 2.542252 z"
         id="text5"
         aria-label="XIANSE TEMPLE" />
      <path
         d="m 40.175992,44.923584 h 0.591946 v 1.838148 q 0,0.149544 0.04362,0.193162 0.04985,0.03739 0.218085,0.03739 0.03739,0 0.124621,0 0.09347,0 0.205623,0 0.112158,0 0.205623,0 0.0997,0 0.143314,0 0.105927,0 0.162006,-0.06231 0.05608,-0.06854 0.07477,-0.255471 0.02492,-0.193161 0.03739,-0.585715 0.06231,0.04985 0.155775,0.0997 0.0997,0.04362 0.199393,0.081 0.105927,0.03739 0.180699,0.05608 -0.02492,0.486018 -0.105927,0.753952 -0.07477,0.261702 -0.230548,0.367629 -0.149544,0.105927 -0.423708,0.105927 -0.04362,0 -0.162007,0 -0.112158,0 -0.243009,0 -0.130851,0 -0.243009,0 -0.112159,0 -0.162007,0 -0.31155,0 -0.479787,-0.07477 -0.162007,-0.06854 -0.230548,-0.243009 -0.06231,-0.174468 -0.06231,-0.473557 z m -3.246356,-0.423708 h 5.520675 v 0.567022 h -5.520675 z m 1.028117,-1.719759 h 4.025232 v 0.567022 h -4.025232 z m 0.554559,2.155929 h 0.610639 q -0.04362,0.461095 -0.143313,0.872342 -0.0997,0.411246 -0.305319,0.766414 -0.199393,0.348936 -0.55456,0.623101 -0.348937,0.280395 -0.909728,0.479788 -0.03115,-0.081 -0.09347,-0.174469 -0.06231,-0.08723 -0.137082,-0.180699 -0.06854,-0.09346 -0.137082,-0.149544 0.504712,-0.162006 0.816262,-0.386323 0.311551,-0.230547 0.479788,-0.517174 0.174468,-0.286626 0.255471,-0.61687 0.081,-0.336474 0.118389,-0.716566 z m -0.486018,-2.953498 0.598177,0.118389 q -0.0997,0.361398 -0.24301,0.753952 -0.137082,0.392554 -0.317781,0.760183 -0.174469,0.36763 -0.392554,0.641794 -0.06854,-0.04362 -0.162006,-0.09347 -0.09347,-0.05608 -0.18693,-0.0997 -0.09347,-0.04985 -0.168238,-0.07477 0.211855,-0.267934 0.380092,-0.610639 0.168237,-0.342706 0.292857,-0.704104 0.124621,-0.36763 0.199393,-0.691642 z m 1.364591,-0.11839 h 0.598177 v 2.810186 h -0.598177 z m 4.100004,0.442402 h 4.903805 v 0.49225 h -4.903805 z m 0.610639,4.691951 h 3.676296 v 0.461094 h -3.676296 z m -0.953344,-2.891189 h 5.545599 v 0.504712 h -5.545599 z m 2.461249,-2.249395 h 0.579484 v 2.660642 h -0.579484 z m -1.887996,3.053195 h 4.473865 v 2.698028 h -0.598177 v -2.243164 h -3.308666 v 2.274319 h -0.567022 z m 1.551521,1.059272 v 0.398785 h 1.302281 v -0.398785 z m -0.467326,-0.317782 h 2.261857 v 1.034348 h -2.261857 z m -0.367629,-2.860033 0.479788,0.112158 q -0.162007,0.392554 -0.461095,0.716566 -0.299089,0.317782 -0.648025,0.529636 -0.03739,-0.04985 -0.105927,-0.105927 -0.06854,-0.06231 -0.143314,-0.118389 -0.06854,-0.06231 -0.12462,-0.0997 0.336475,-0.174469 0.604408,-0.442402 0.267934,-0.267934 0.398785,-0.591946 z m 2.810185,-0.0062 0.448633,0.118389 q -0.162006,0.380092 -0.436171,0.710335 -0.274164,0.330244 -0.585715,0.542098 -0.03739,-0.04362 -0.0997,-0.105927 -0.06231,-0.06231 -0.130851,-0.12462 -0.06854,-0.06231 -0.118389,-0.0997 0.299088,-0.1807 0.542098,-0.448633 0.243009,-0.274165 0.380091,-0.591946 z m -2.953498,0.67918 0.299088,-0.292858 q 0.211854,0.137083 0.448633,0.30532 0.243009,0.168237 0.380091,0.299088 l -0.31155,0.330244 Q 44.980101,43.97024 44.743322,43.78954 44.506544,43.60261 44.29469,43.465528 Z m 2.84134,0.01869 0.311551,-0.30532 q 0.162006,0.08723 0.336474,0.199393 0.1807,0.105927 0.336475,0.218085 0.162006,0.112158 0.261702,0.205623 l -0.330243,0.336475 q -0.09347,-0.0997 -0.249241,-0.211854 -0.155775,-0.11839 -0.330243,-0.236779 -0.174469,-0.118389 -0.336475,-0.205623 z m 3.94423,0.417478 v 0.697873 h 2.093619 V 43.901699 Z M 50.5257,43.421911 h 3.240125 V 45.07936 H 50.5257 Z m 1.29605,1.383284 0.685411,0.118389 q -0.07477,0.267934 -0.143313,0.542098 -0.06231,0.274165 -0.124621,0.461095 l -0.510942,-0.118389 q 0.03115,-0.218086 0.05608,-0.498481 0.03116,-0.280396 0.03739,-0.504712 z m -1.732221,0.753952 h 4.205932 v 2.056234 h -0.610639 v -1.53906 h -3.009578 v 1.551522 h -0.585715 z m 0.261702,1.314743 h 3.626448 v 0.510943 h -3.626448 z m 1.451826,-5.015963 h 0.623101 v 0.872342 h -0.623101 z m -2.293012,0.567022 h 5.296358 v 1.47675 h -0.604408 v -0.940883 h -4.118697 v 0.940883 h -0.573253 z"
         id="text5-9"
         style="font-weight:500;font-size:6.23101px;line-height:1.25;font-family:'Noto Sans JP';-inkscape-font-specification:'Noto Sans JP Medium';stroke-width:0.222535"
         aria-label="先嗇宮" />
      <path
         style="font-weight:500;font-size:6.23101px;line-height:1.25;font-family:'Noto Sans KR';-inkscape-font-specification:'Noto Sans KR Medium';stroke-width:0.222535"
         d="m 63.432407,42.878924 h 0.965807 v 0.523405 h -0.965807 z m 0,1.071734 h 0.965807 v 0.523405 h -0.965807 z m 1.856841,-1.931613 h 0.623101 v 4.280703 h -0.623101 z m -3.14666,5.047118 h 3.925537 v 0.529635 h -3.925537 z m 0,-1.264895 h 0.654256 v 1.6076 h -0.654256 z m 2.025079,-3.682527 h 0.610639 v 4.019001 h -0.610639 z m -1.987693,0.267933 h 0.510943 v 0.884804 q 0,0.473556 -0.143313,0.92842 -0.137082,0.448633 -0.417478,0.822493 -0.280395,0.36763 -0.704104,0.573253 l -0.361398,-0.498481 q 0.37386,-0.18693 0.61687,-0.486018 0.24924,-0.299089 0.37386,-0.648025 0.12462,-0.348937 0.12462,-0.691642 z m 0.11839,0 h 0.510943 v 0.884804 q 0,0.342705 0.112158,0.672949 0.118389,0.330243 0.348936,0.604408 0.236779,0.267933 0.598177,0.442401 L 63.50718,45.489717 Q 63.095933,45.296556 62.828,44.95385 62.560066,44.611145 62.429215,44.174974 62.298364,43.738803 62.298364,43.271478 Z m 8.686028,-0.367629 h 0.654256 v 5.695143 h -0.654256 z m -0.872341,1.987692 h 1.177661 v 0.560791 h -1.177661 z m -2.542252,-1.507905 h 0.479787 v 1.134044 q 0,0.386323 -0.04362,0.791338 -0.03739,0.398785 -0.137082,0.778877 -0.0997,0.37386 -0.280395,0.691642 -0.174469,0.31155 -0.448633,0.529636 L 66.71615,45.969505 q 0.261703,-0.205623 0.42994,-0.479788 0.168237,-0.274164 0.255471,-0.585715 0.09346,-0.317781 0.130852,-0.641794 0.03739,-0.330243 0.03739,-0.629332 z m 0.143313,0 h 0.467326 v 1.134044 q 0,0.286627 0.03115,0.610639 0.03116,0.324013 0.118389,0.648025 0.08723,0.324013 0.24924,0.61687 0.168237,0.286627 0.436171,0.504712 l -0.361399,0.486019 q -0.299088,-0.224317 -0.486018,-0.560791 -0.1807,-0.336475 -0.280396,-0.729028 -0.0997,-0.398785 -0.137082,-0.803801 -0.03739,-0.411246 -0.03739,-0.772645 z m 1.414439,0 h 0.473557 v 1.134044 q 0,0.373861 -0.03739,0.785107 -0.03739,0.411247 -0.137082,0.803801 -0.0997,0.392553 -0.286627,0.722797 -0.18693,0.330243 -0.486019,0.55456 l -0.355167,-0.486019 q 0.267933,-0.211854 0.429939,-0.49225 0.168238,-0.286626 0.249241,-0.610639 0.08723,-0.324012 0.118389,-0.648025 0.03115,-0.330243 0.03115,-0.629332 z m 0.149544,0 h 0.473557 v 1.134044 q 0,0.30532 0.03115,0.635563 0.03739,0.330244 0.130851,0.641794 0.09347,0.311551 0.255472,0.585715 0.168237,0.274165 0.43617,0.473557 l -0.398784,0.473557 q -0.286627,-0.211855 -0.467326,-0.529636 -0.180699,-0.317782 -0.286626,-0.697873 -0.0997,-0.380092 -0.137083,-0.785108 -0.03739,-0.405015 -0.03739,-0.797569 z m 3.925537,-0.255471 h 3.63891 v 0.523405 h -3.63891 z m -0.648025,2.006385 h 5.159276 v 0.523405 h -5.159276 z m 2.243164,0.361399 h 0.654256 v 1.165199 h -0.654256 z m 1.632524,-2.367784 h 0.641794 v 0.42994 q 0,0.355167 -0.02492,0.797569 -0.01869,0.442402 -0.155775,1.009424 l -0.641794,-0.06854 q 0.137082,-0.56079 0.155775,-0.972037 0.02492,-0.417478 0.02492,-0.766414 z m -1.308512,3.314897 q 0.928421,0 1.458056,0.286627 0.529636,0.280395 0.529636,0.791338 0,0.510943 -0.529636,0.791338 -0.529635,0.280396 -1.458056,0.280396 -0.922189,0 -1.451825,-0.280396 -0.529636,-0.280395 -0.529636,-0.791338 0,-0.510943 0.529636,-0.791338 0.529636,-0.286627 1.451825,-0.286627 z m 0,0.523405 q -0.417478,0 -0.716566,0.06854 -0.299088,0.06231 -0.454864,0.18693 -0.155775,0.11839 -0.155775,0.299089 0,0.180699 0.155775,0.305319 0.155776,0.11839 0.454864,0.1807 0.299088,0.06231 0.716566,0.06231 0.423709,0 0.722797,-0.06231 0.299089,-0.06231 0.454864,-0.1807 0.155775,-0.12462 0.155775,-0.305319 0,-0.180699 -0.155775,-0.299089 -0.155775,-0.12462 -0.454864,-0.18693 -0.299088,-0.06854 -0.722797,-0.06854 z"
         id="text5-9-8"
         aria-label="셴써궁" />
    </g>
    <text
       xml:space="preserve"
       transform="matrix(0.31615295,0,0,0.31615295,-10.474341,-6.4462013)"
       id="text6"
       style="font-size:55px;line-height:1.25;font-family:'Microsoft JhengHei';-inkscape-font-specification:'Microsoft JhengHei';white-space:pre;shape-inside:url(#rect6);display:inline" />
  </g>
</svg>
