<?xml version="1.0" encoding="UTF-8" standalone="no"?>
<!-- Created with Inkscape (http://www.inkscape.org/) -->

<svg
   width="500"
   height="250"
   viewBox="0 0 132.29166 66.145833"
   version="1.1"
   id="svg1"
   inkscape:version="1.3.2 (091e20e, 2023-11-25, custom)"
   sodipodi:docname="o17.svg"
   xmlns:inkscape="http://www.inkscape.org/namespaces/inkscape"
   xmlns:sodipodi="http://sodipodi.sourceforge.net/DTD/sodipodi-0.dtd"
   xmlns="http://www.w3.org/2000/svg"
   xmlns:svg="http://www.w3.org/2000/svg">
  <sodipodi:namedview
     id="namedview1"
     pagecolor="#9e652e"
     bordercolor="#ffffff"
     borderopacity="1"
     inkscape:showpageshadow="0"
     inkscape:pageopacity="0"
     inkscape:pagecheckerboard="false"
     inkscape:deskcolor="#d1d1d1"
     inkscape:document-units="mm"
     inkscape:zoom="2.0208096"
     inkscape:cx="221.4459"
     inkscape:cy="117.27973"
     inkscape:window-width="1920"
     inkscape:window-height="1009"
     inkscape:window-x="1912"
     inkscape:window-y="-8"
     inkscape:window-maximized="1"
     inkscape:current-layer="layer1"
     showguides="true">
    <sodipodi:guide
       position="142.71301,-1.1518642"
       orientation="1,0"
       id="guide4"
       inkscape:locked="false" />
  </sodipodi:namedview>
  <defs
     id="defs1">
    <rect
       x="560.66638"
       y="34.144731"
       width="279.32397"
       height="128.59143"
       id="rect6" />
    <rect
       x="157.85752"
       y="62.351248"
       width="329.07603"
       height="135.09437"
       id="rect4" />
    <rect
       x="157.85751"
       y="62.35125"
       width="329.07602"
       height="135.09438"
       id="rect4-5" />
    <rect
       x="157.85751"
       y="62.35125"
       width="329.07602"
       height="135.09438"
       id="rect4-5-7" />
    <rect
       x="157.85751"
       y="62.35125"
       width="462.90293"
       height="131.58831"
       id="rect4-5-0" />
    <rect
       x="157.85751"
       y="62.35125"
       width="329.07602"
       height="135.09438"
       id="rect4-5-79" />
  </defs>
  <g
     inkscape:label="Layer 1"
     inkscape:groupmode="layer"
     id="layer1">
    <rect
       style="fill:#f4eed7;fill-opacity:1;stroke:none;stroke-width:0.953294;stroke-dasharray:none"
       id="rect5"
       width="132.29167"
       height="66.145836"
       x="-2.5431316e-06"
       y="-1.2715658e-06"
       ry="0" />
    <text
       xml:space="preserve"
       transform="matrix(0.31615295,0,0,0.31615295,-10.474341,-6.4462013)"
       id="text6"
       style="font-size:55px;line-height:1.25;font-family:'Microsoft JhengHei';-inkscape-font-specification:'Microsoft JhengHei';white-space:pre;shape-inside:url(#rect6);display:inline" />
    <g
       id="g4"
       transform="translate(-15.89602)">
      <path
         id="rect1"
         style="fill-opacity:0;stroke:#000000;stroke-width:0.801799"
         d="m 33.778193,17.152325 h 10.567019 c 3.339782,0 6.028487,2.688705 6.028487,6.028486 v 19.784208 c 0,3.339781 -2.688705,6.028486 -6.028487,6.028486 H 33.778193 c -3.339782,0 -6.028487,-2.688705 -6.028487,-6.028486 V 23.180811 c 0,-3.339781 2.688705,-6.028486 6.028487,-6.028486 z" />
      <path
         style="font-size:11.8619px;line-height:1.25;font-family:'AR UDJingXiHeiE1G30 EB';-inkscape-font-specification:'AR UDJingXiHeiE1G30 EB';stroke-width:0.247123"
         d="m 43.343858,27.083192 q 0,2.06397 -1.150605,3.238298 -1.138742,1.162467 -3.119679,1.162467 -2.016523,0 -3.155266,-1.174329 -1.138742,-1.174328 -1.138742,-3.226436 0,-2.087695 1.150604,-3.273885 1.150604,-1.198052 3.143404,-1.198052 2.016523,0 3.143403,1.18619 1.126881,1.18619 1.126881,3.285747 z m -4.270284,3.226436 q 1.292947,0 1.992799,-0.854056 0.711714,-0.854057 0.711714,-2.37238 0,-1.506462 -0.711714,-2.396104 -0.711714,-0.901505 -1.992799,-0.901505 -1.304809,0 -2.028385,0.913367 -0.711714,0.901504 -0.711714,2.384242 0,1.518323 0.723576,2.37238 0.723575,0.854056 2.016523,0.854056 z"
         id="text2"
         aria-label="O" />
      <path
         style="font-size:12.2395px;line-height:1.25;font-family:'AR UDJingXiHeiE1G30 EB';-inkscape-font-specification:'AR UDJingXiHeiE1G30 EB';stroke-width:0.222535"
         d="M 34.888032,36.059055 33.456011,37.39316 32.74612,36.303845 35.047146,34.21089 h 1.334105 v 8.849159 h -1.493219 z m 6.156461,7.000994 3.121072,-7.637448 H 39.747106 V 34.21089 h 5.997355 v 1.015879 l -3.121073,7.83328 z"
         id="text3"
         aria-label="17" />
      <path
         style="font-weight:500;font-size:72px;line-height:1.25;font-family:'Noto Sans TC';-inkscape-font-specification:'Noto Sans TC Medium';white-space:pre"
         d="m 161.38542,78.345406 h 28.728 v 6.264 h -28.728 z m 7.848,17.856 v 8.856004 h 13.104 v -8.856004 z m -5.832,-5.472 h 25.056 v 19.728004 h -25.056 z m 16.848,21.384004 6.624,1.512 q -1.08,3.816 -2.232,7.776 -1.08,3.96 -2.088,6.768 l -5.184,-1.44 q 0.576,-2.016 1.152,-4.536 0.576,-2.592 1.008,-5.256 0.504,-2.664 0.72,-4.824 z m -15.48,1.944 5.4,-1.368 q 1.296,3.096 2.088,6.768 0.792,3.672 0.864,6.336 l -5.76,1.512 q -0.072,-2.664 -0.792,-6.336 -0.72,-3.744 -1.8,-6.912 z m -4.464,17.424 q 3.744,-0.648 8.712,-1.656 4.968,-1.008 10.512,-2.16 5.544,-1.152 11.016,-2.304 l 0.576,5.832 q -7.632,1.8 -15.408,3.6 -7.776,1.728 -13.824,3.096 z m 31.68,-53.640004 h 34.848 v 5.832 h -34.848 z m 8.208,27.648004 v 6.048 h 18.072 v -6.048 z m 0,10.872 v 6.048 h 18.072 v -6.048 z m 0,-21.600004 v 5.976004 h 18.072 v -5.976004 z m -6.264,-5.112 h 30.888 v 37.872004 h -30.888 z m 11.304,-8.712 7.704,0.936 q -0.936,3.24 -1.944,6.408 -1.008,3.168 -1.872,5.472 l -5.976,-1.152 q 0.432,-1.656 0.792,-3.672 0.432,-2.088 0.72,-4.176 0.36,-2.16 0.576,-3.816 z m -4.464,47.520004 5.76,3.6 q -1.944,1.8 -4.608,3.6 -2.664,1.8 -5.616,3.312 -2.952,1.584 -5.688,2.664 -0.792,-1.008 -2.16,-2.304 -1.296,-1.296 -2.376,-2.16 2.736,-1.008 5.544,-2.448 2.808,-1.44 5.184,-3.096 2.448,-1.656 3.96,-3.168 z m 10.44,3.816 5.112,-3.312 q 2.088,1.224 4.392,2.88 2.304,1.584 4.392,3.24 2.16,1.584 3.528,2.88 l -5.472,3.6 q -1.152,-1.296 -3.24,-2.952 -2.016,-1.656 -4.32,-3.312 -2.304,-1.728 -4.392,-3.024 z m 22.248,-46.512004 h 64.872 v 6.192 h -64.872 z m 7.92,23.688004 h 19.512 v 5.184 h -19.512 z m 0,11.376 h 19.512 v 5.112 h -19.512 z m 31.32,-22.392004 h 6.264 v 29.592004 h -6.264 z m -14.256,-0.72 h 6.624 v 36.576004 q 0,2.376 -0.648,3.744 -0.576,1.368 -2.232,2.088 -1.656,0.792 -4.104,0.936 -2.448,0.216 -5.976,0.216 -0.216,-1.296 -0.864,-3.024 -0.648,-1.728 -1.368,-2.88 2.448,0.072 4.536,0.072 2.088,0.072 2.808,0 0.72,-0.072 0.936,-0.288 0.288,-0.288 0.288,-0.936 z m 28.728,-1.368 h 6.768 v 37.224004 q 0,2.736 -0.72,4.176 -0.72,1.512 -2.592,2.304 -1.8,0.792 -4.68,1.008 -2.88,0.216 -6.912,0.216 -0.288,-1.368 -1.008,-3.312 -0.72,-1.872 -1.44,-3.168 3.024,0.072 5.616,0.144 2.592,0 3.456,-0.072 0.864,-0.072 1.152,-0.288 0.36,-0.288 0.36,-1.08 z m -43.128,-19.512 6.408,-2.232 q 2.016,2.16 4.032,4.968 2.016,2.736 2.952,4.824 l -6.768,2.448 q -0.792,-2.016 -2.736,-4.824 -1.872,-2.88 -3.888,-5.184 z m 37.008,-2.448 7.344,2.232 q -2.088,3.456 -4.392,6.84 -2.232,3.384 -4.248,5.832 l -6.048,-2.16 q 1.296,-1.728 2.664,-3.96 1.368,-2.232 2.592,-4.536 1.296,-2.304 2.088,-4.248 z m -42.912,23.328 h 6.192 v 16.992004 q 0,4.104 -0.504,9 -0.432,4.896 -1.728,9.576 -1.296,4.68 -3.96,8.352 -0.504,-0.576 -1.512,-1.368 -0.936,-0.72 -1.944,-1.44 -1.008,-0.72 -1.728,-1.08 2.376,-3.312 3.456,-7.272 1.08,-4.032 1.368,-8.136 0.36,-4.104 0.36,-7.704 z m 3.96,0 h 19.584 v 5.472004 h -19.584 z m 80.208,8.784004 h 44.64 v 6.48 h -44.64 z m -4.824,26.28 h 53.136 v 6.552 h -53.136 z m 22.896,-39.960004 h 6.984 v 43.920004 h -6.984 z m -26.712,-8.712 h 56.664 v 6.336 h -56.664 z m -3.096,0 h 6.768 v 18.720004 q 0,4.248 -0.288,9.36 -0.216,5.04 -0.936,10.296 -0.72,5.256 -2.088,10.296 -1.296,4.968 -3.6,9.216 -0.576,-0.504 -1.728,-1.152 -1.152,-0.576 -2.376,-1.152 -1.152,-0.504 -2.088,-0.792 2.232,-3.96 3.456,-8.568 1.296,-4.68 1.872,-9.504 0.648,-4.824 0.792,-9.432 0.216,-4.68 0.216,-8.64 z m 24.552,-8.208 6.696,-1.872 q 1.152,2.088 2.376,4.608 1.224,2.448 1.8,4.176 l -7.056,2.16 q -0.504,-1.8 -1.656,-4.392 -1.08,-2.592 -2.16,-4.68 z"
         id="text4"
         transform="matrix(0.22253605,0,0,0.22253605,18.432113,1.4902895)"
         aria-label="頭前庄" />
      <path
         style="font-size:6.23101px;line-height:1.25;font-family:'AR UDJingXiHeiE1G30 EB';-inkscape-font-specification:'AR UDJingXiHeiE1G30 EB';stroke-width:0.222535"
         d="m 55.555885,35.829782 h -1.401977 v -0.61687 h 3.589062 v 0.61687 h -1.395746 v 3.88815 h -0.791339 z m 7.115812,1.657448 q 0,1.084196 -0.604407,1.701066 -0.598177,0.610639 -1.638756,0.610639 -1.059272,0 -1.657449,-0.61687 -0.598177,-0.61687 -0.598177,-1.694835 0,-1.096657 0.604408,-1.719758 0.604408,-0.629332 1.651218,-0.629332 1.059272,0 1.651218,0.623101 0.591945,0.623101 0.591945,1.725989 z m -2.243163,1.694835 q 0.67918,0 1.04681,-0.448633 0.37386,-0.448632 0.37386,-1.246202 0,-0.791338 -0.37386,-1.258664 -0.373861,-0.473556 -1.04681,-0.473556 -0.685411,0 -1.065503,0.479787 -0.37386,0.473557 -0.37386,1.252433 0,0.79757 0.380091,1.246202 0.380092,0.448633 1.059272,0.448633 z m 6.879036,-1.040578 q 0,0.785107 -0.49225,1.221277 -0.492249,0.436171 -1.401977,0.436171 -0.922189,0 -1.42067,-0.42994 -0.49225,-0.429939 -0.49225,-1.221277 v -2.934806 h 0.791338 v 2.897419 q 0,0.510943 0.280396,0.791339 0.280395,0.280395 0.841186,0.280395 0.529636,0 0.810031,-0.267933 0.286627,-0.274165 0.286627,-0.816263 v -2.884957 h 0.797569 z m 4.704414,1.071733 0.55456,0.461095 -0.398784,0.467326 -0.679181,-0.573253 q -0.230547,0.112158 -0.510942,0.168237 -0.274165,0.06231 -0.579484,0.06231 -1.059272,0 -1.657449,-0.61687 -0.598177,-0.61687 -0.598177,-1.694835 0,-1.096657 0.604408,-1.719758 0.604408,-0.629332 1.651218,-0.629332 1.059271,0 1.651217,0.623101 0.591946,0.623101 0.591946,1.725989 0,0.55456 -0.162006,0.990731 -0.162006,0.436171 -0.467326,0.735259 z m -1.613831,-3.45821 q -0.685411,0 -1.065503,0.479787 -0.373861,0.473557 -0.373861,1.252433 0,0.79757 0.380092,1.246202 0.380092,0.448633 1.059272,0.448633 0.149544,0 0.280395,-0.02492 0.137082,-0.02492 0.255472,-0.07477 l -0.479788,-0.405016 0.423708,-0.454863 0.567022,0.479787 q 0.1807,-0.205623 0.274165,-0.510942 0.0997,-0.311551 0.0997,-0.704105 0,-0.791338 -0.373861,-1.258664 -0.37386,-0.473556 -1.046809,-0.473556 z m 3.894381,-0.542098 v 4.50502 h -0.791338 v -4.50502 z m 3.433282,2.685565 -0.710335,-1.925382 -0.722797,1.925382 z m -1.663679,0.61687 -0.448633,1.202585 h -0.8038 l 1.813224,-4.50502 h 0.810031 l 1.800762,4.50502 h -0.822493 l -0.454864,-1.202585 z m 4.48009,-2.050002 v 3.252587 h -0.791338 v -4.50502 h 0.816262 l 2.212009,3.327359 v -3.327359 h 0.791338 v 4.50502 h -0.86611 z m 3.962918,-1.252433 h 3.526752 v 0.567022 l -2.716721,3.321128 h 2.779031 v 0.61687 H 84.299522 V 39.15091 l 2.71672,-3.321128 h -2.511097 z m 5.109428,2.504866 v 2.000154 h -0.791338 v -4.50502 h 0.791338 v 1.887996 h 2.16216 v -1.887996 h 0.791339 v 4.50502 h -0.791339 v -2.000154 z m 7.76384,0.423709 q 0,0.785107 -0.49225,1.221277 -0.49225,0.436171 -1.401977,0.436171 -0.92219,0 -1.42067,-0.42994 -0.49225,-0.429939 -0.49225,-1.221277 v -2.934806 h 0.791338 v 2.897419 q 0,0.510943 0.280396,0.791339 0.280395,0.280395 0.841186,0.280395 0.529636,0 0.810031,-0.267933 0.286627,-0.274165 0.286627,-0.816263 v -2.884957 h 0.797569 z m 3.402137,-0.24301 -0.71034,-1.925382 -0.722796,1.925382 z m -1.663684,0.61687 -0.448632,1.202585 h -0.803801 l 1.813224,-4.50502 h 0.810033 l 1.80076,4.50502 h -0.82249 l -0.45487,-1.202585 z m 4.480094,-2.050002 v 3.252587 h -0.79134 v -4.50502 h 0.81626 l 2.21201,3.327359 v -3.327359 h 0.79134 v 4.50502 h -0.86611 z m 7.37128,2.704258 q -0.23055,0.324013 -0.57949,0.479788 -0.3427,0.149544 -0.78511,0.149544 -0.97203,0 -1.54529,-0.610639 -0.57325,-0.61687 -0.57325,-1.719759 0,-1.109119 0.60441,-1.719758 0.60441,-0.610639 1.63252,-0.610639 0.82873,0 1.3459,0.380091 0.52341,0.373861 0.62933,1.071734 h -0.79133 q -0.0623,-0.36763 -0.36763,-0.598177 -0.29909,-0.236778 -0.81627,-0.236778 -0.69164,0 -1.05304,0.448632 -0.3614,0.442402 -0.3614,1.264895 0,0.878573 0.3801,1.296051 0.38009,0.411246 1.03434,0.411246 0.57326,0 0.90973,-0.336474 0.33648,-0.336475 0.33648,-0.772646 v -0.09346 h -1.27736 v -0.61687 h 2.03754 v 2.361553 h -0.76018 z"
         id="text5"
         aria-label="TOUQIANZHUANG" />
      <path
         d="m 54.274337,42.18194 h 2.486172 v 0.542098 h -2.486172 z m 0.67918,1.54529 v 0.766415 H 56.08756 V 43.72723 Z m -0.504712,-0.473556 h 2.168391 v 1.707296 h -2.168391 z m 1.458056,1.85061 0.573253,0.130851 q -0.09347,0.330243 -0.193161,0.672949 -0.09346,0.342705 -0.1807,0.585715 l -0.448632,-0.12462 q 0.04985,-0.174469 0.0997,-0.392554 0.04985,-0.224316 0.08723,-0.454864 0.04362,-0.230547 0.06231,-0.417477 z m -1.339667,0.168237 0.467326,-0.118389 q 0.112158,0.267933 0.180699,0.585715 0.06854,0.317781 0.07477,0.548328 l -0.498481,0.130852 q -0.0062,-0.230548 -0.06854,-0.548329 -0.06231,-0.324013 -0.155775,-0.598177 z m -0.386323,1.507904 q 0.324013,-0.05608 0.753953,-0.143313 0.429939,-0.08723 0.909727,-0.18693 0.479788,-0.0997 0.953345,-0.199393 l 0.04985,0.504712 q -0.660487,0.155775 -1.333437,0.311551 -0.672949,0.149544 -1.196353,0.267933 z m 2.741645,-4.642102 h 3.015809 v 0.504712 h -3.015809 z m 0.710335,2.392708 v 0.523404 h 1.563983 v -0.523404 z m 0,0.940882 v 0.523405 h 1.563983 v -0.523405 z m 0,-1.869303 v 0.517174 h 1.563983 V 43.60261 Z m -0.542098,-0.442402 h 2.673103 v 3.277512 h -2.673103 z m 0.978269,-0.753952 0.666718,0.081 q -0.081,0.280396 -0.168238,0.55456 -0.08723,0.274165 -0.162006,0.473557 l -0.517174,-0.0997 q 0.03739,-0.143313 0.06854,-0.317782 0.03739,-0.180699 0.06231,-0.361398 0.03115,-0.186931 0.04985,-0.330244 z m -0.386323,4.112467 0.498481,0.31155 q -0.168238,0.155776 -0.398785,0.311551 -0.230547,0.155775 -0.486019,0.286626 -0.255471,0.137083 -0.492249,0.230548 -0.06854,-0.08723 -0.186931,-0.199393 -0.112158,-0.112158 -0.205623,-0.18693 0.236778,-0.08723 0.479788,-0.211854 0.243009,-0.124621 0.448632,-0.267934 0.211855,-0.143313 0.342706,-0.274164 z m 0.903496,0.330243 0.442402,-0.286626 q 0.180699,0.105927 0.380092,0.24924 0.199392,0.137083 0.380091,0.280396 0.186931,0.137082 0.30532,0.24924 l -0.473557,0.311551 q -0.0997,-0.112159 -0.280395,-0.255472 -0.174469,-0.143313 -0.373861,-0.286626 -0.199392,-0.149544 -0.380092,-0.261703 z m 1.925382,-4.025232 h 5.61414 v 0.535867 h -5.61414 z m 0.685412,2.050002 h 1.688603 v 0.448633 h -1.688603 z m 0,0.9845 h 1.688603 v 0.442401 h -1.688603 z m 2.710489,-1.937844 h 0.542098 v 2.560945 h -0.542098 z m -1.23374,-0.06231 h 0.573253 v 3.165353 q 0,0.205623 -0.05608,0.324012 -0.04985,0.118389 -0.193162,0.180699 -0.143313,0.06854 -0.355167,0.081 -0.211854,0.01869 -0.517174,0.01869 -0.01869,-0.112159 -0.07477,-0.261703 -0.05608,-0.149544 -0.118389,-0.24924 0.211854,0.0062 0.392553,0.0062 0.1807,0.0062 0.24301,0 0.06231,-0.0062 0.081,-0.02492 0.02492,-0.02492 0.02492,-0.081 z m 2.486173,-0.11839 h 0.585715 v 3.221433 q 0,0.236778 -0.06231,0.361398 -0.06231,0.130851 -0.224317,0.199392 -0.155775,0.06854 -0.405015,0.08723 -0.249241,0.01869 -0.598177,0.01869 -0.02492,-0.11839 -0.08723,-0.286627 -0.06231,-0.162006 -0.124621,-0.274164 0.261703,0.0062 0.486019,0.01246 0.224317,0 0.299089,-0.0062 0.07477,-0.0062 0.0997,-0.02492 0.03115,-0.02492 0.03115,-0.09346 z m -3.732375,-1.688603 0.55456,-0.193162 q 0.174468,0.186931 0.348936,0.42994 0.174469,0.236778 0.255472,0.417478 l -0.585715,0.211854 q -0.06854,-0.174468 -0.236779,-0.417478 -0.162006,-0.24924 -0.336474,-0.448632 z m 3.202739,-0.211855 0.635563,0.193162 q -0.180699,0.299088 -0.380092,0.591946 -0.193161,0.292857 -0.367629,0.504711 l -0.523405,-0.18693 q 0.112158,-0.149544 0.230547,-0.342705 0.11839,-0.193162 0.224317,-0.392554 0.112158,-0.199392 0.180699,-0.36763 z m -3.751068,2.018848 h 1.968999 v 0.504711 h -1.408208 v 3.252588 h -0.560791 z m 7.321437,0.74149 h 3.863226 v 0.560791 h -3.863226 z m -0.417478,2.293011 h 4.598485 v 0.567022 h -4.598485 z m 1.981461,-3.526751 h 0.604408 v 3.807147 h -0.604408 z m -0.336474,-1.501674 h 0.610639 v 1.096658 h -0.610639 z m -1.981461,0.772646 h 4.94119 v 0.560791 h -4.94119 z m -0.292858,0 h 0.591946 v 1.595138 q 0,0.36763 -0.02492,0.810031 -0.02492,0.442402 -0.09346,0.903497 -0.06231,0.461095 -0.193161,0.903496 -0.124621,0.436171 -0.330244,0.79757 -0.04985,-0.04985 -0.143313,-0.11839 -0.09346,-0.06854 -0.193162,-0.130851 -0.0997,-0.05608 -0.168237,-0.08723 0.193162,-0.336474 0.30532,-0.729028 0.112158,-0.392554 0.162006,-0.8038 0.05608,-0.417478 0.06854,-0.810032 0.01869,-0.398784 0.01869,-0.735259 z"
         id="text5-9"
         style="font-weight:500;font-size:6.23101px;line-height:1.25;font-family:'Noto Sans JP';-inkscape-font-specification:'Noto Sans JP Medium';stroke-width:0.222535"
         aria-label="頭前庄" />
      <path
         style="font-weight:500;font-size:6.23101px;line-height:1.25;font-family:'Noto Sans KR';-inkscape-font-specification:'Noto Sans KR Medium';stroke-width:0.222535"
         d="m 82.565412,42.012814 h 0.654256 v 5.707605 h -0.654256 z m -1.090427,2.081157 h 1.177661 v 0.535867 h -1.177661 z m -2.722951,1.763376 h 0.442401 q 0.510943,0 0.92219,-0.01246 0.417478,-0.01246 0.797569,-0.04362 0.380092,-0.03739 0.778876,-0.105928 l 0.06231,0.523405 q -0.411247,0.06854 -0.803801,0.105927 -0.386322,0.03739 -0.816262,0.04985 -0.423709,0.01246 -0.940883,0.01246 h -0.442401 z m 0,-3.346053 h 2.629486 v 0.535867 h -1.981461 v 2.978423 h -0.648025 z m 0.486018,1.595139 h 1.919152 v 0.517174 h -1.919152 z m 4.984809,1.134044 h 5.159276 v 0.535867 h -5.159276 z m 2.236933,0.342705 h 0.648025 v 2.131006 h -0.648025 z m 0.330243,-3.352283 q 0.598177,0 1.053041,0.155775 0.454863,0.155775 0.710335,0.436171 0.255471,0.280395 0.255471,0.666718 0,0.386323 -0.255471,0.672949 -0.255472,0.280395 -0.710335,0.436171 -0.454864,0.155775 -1.053041,0.155775 -0.598177,0 -1.059272,-0.155775 -0.454863,-0.155776 -0.710335,-0.436171 -0.255471,-0.286626 -0.255471,-0.672949 0,-0.386323 0.255471,-0.666718 0.255472,-0.280396 0.710335,-0.436171 0.461095,-0.155775 1.059272,-0.155775 z m -0.0062,0.517174 q -0.405016,0 -0.710335,0.09347 -0.299089,0.08723 -0.467326,0.255471 -0.168237,0.162007 -0.168237,0.392554 0,0.230547 0.168237,0.398785 0.168237,0.168237 0.467326,0.255471 0.305319,0.08723 0.710335,0.08723 0.411247,0 0.710335,-0.08723 0.30532,-0.08723 0.473557,-0.255471 0.168237,-0.168238 0.168237,-0.398785 0,-0.230547 -0.168237,-0.392554 -0.168237,-0.168237 -0.473557,-0.255471 -0.299088,-0.09347 -0.710335,-0.09347 z m 5.520675,1.021885 h 0.972038 v 0.529636 H 92.304481 Z M 91.06451,43.178012 h 0.498481 v 0.1807 q 0,0.479787 -0.137082,0.92842 -0.137082,0.448633 -0.411247,0.797569 -0.274164,0.348937 -0.704104,0.542098 l -0.330243,-0.486018 q 0.367629,-0.168238 0.604408,-0.448633 0.236778,-0.280396 0.355167,-0.623101 0.12462,-0.348937 0.12462,-0.710335 z m 0.130852,0 h 0.486018 v 0.1807 q 0,0.342705 0.11839,0.672949 0.12462,0.324012 0.367629,0.591946 0.243009,0.261702 0.604408,0.417477 l -0.317781,0.486019 q -0.423709,-0.180699 -0.704105,-0.510943 -0.280395,-0.336474 -0.417477,-0.760183 -0.137082,-0.42994 -0.137082,-0.897265 z m -1.084196,-0.37386 h 2.517328 v 0.523405 h -2.517328 z m 0.953344,-0.660487 h 0.61687 v 0.86611 h -0.61687 z m 3.090581,-0.12462 h 0.623101 v 4.293165 h -0.623101 z m -1.109119,0.112158 h 0.616869 v 4.037694 h -0.616869 z m -2.037541,4.93496 h 3.925537 v 0.529635 h -3.925537 z m 0,-1.221278 h 0.654256 v 1.557752 h -0.654256 z m 6.087698,-3.333591 h 0.523405 v 0.324013 q 0,0.37386 -0.193161,0.697873 -0.18693,0.324013 -0.548329,0.560791 -0.361399,0.230547 -0.884803,0.330243 l -0.255472,-0.49848 q 0.436171,-0.081 0.74149,-0.24301 0.30532,-0.168237 0.461095,-0.386322 0.155775,-0.224317 0.155775,-0.461095 z m 0.130852,0 h 0.523404 v 0.324013 q 0,0.224316 0.155776,0.42994 0.155775,0.205623 0.448632,0.355167 0.299089,0.149544 0.710336,0.224316 l -0.255472,0.498481 q -0.504712,-0.0997 -0.859879,-0.317781 -0.348937,-0.218086 -0.535867,-0.523405 -0.18693,-0.30532 -0.18693,-0.666718 z m -1.283588,-0.18693 h 2.96596 v 0.523405 h -2.96596 z m 1.152736,1.825686 h 0.654256 v 0.953345 h -0.654256 z m 2.398939,-2.131005 h 0.648022 v 3.676295 h -0.648022 z m 0.398785,1.557752 h 1.034347 v 0.535867 h -1.034347 z m -4.143622,1.838148 -0.07477,-0.529636 q 0.498481,-0.0062 1.090427,-0.01246 0.591946,-0.01246 1.208816,-0.04985 0.61687,-0.03739 1.177661,-0.112158 l 0.04362,0.473557 q -0.573253,0.0997 -1.183892,0.149544 -0.610639,0.04985 -1.190123,0.06854 -0.579484,0.01246 -1.071734,0.01246 z m 2.517328,0.324013 q 0.903497,0 1.408209,0.255471 0.504712,0.255471 0.504712,0.729028 0,0.467326 -0.504712,0.722797 -0.504712,0.255472 -1.408209,0.255472 -0.897265,0 -1.401977,-0.255472 -0.504712,-0.255471 -0.504712,-0.722797 0,-0.473557 0.504712,-0.729028 0.504712,-0.255471 1.401977,-0.255471 z m 0,0.504711 q -0.610639,0 -0.934651,0.124621 -0.324013,0.118389 -0.324013,0.355167 0,0.236778 0.324013,0.361399 0.324012,0.12462 0.934651,0.12462 0.61687,0 0.934652,-0.12462 0.324012,-0.124621 0.324012,-0.361399 0,-0.236778 -0.324012,-0.355167 -0.317782,-0.124621 -0.934652,-0.124621 z"
         id="text5-9-8"
         aria-label="터우첸좡" />
      <path
         style="font-weight:500;font-size:72px;line-height:1.25;font-family:'Noto Sans TC';-inkscape-font-specification:'Noto Sans TC Medium';white-space:pre"
         d="m 162.17742,78.633406 h 63.576 v 4.464 h -63.576 z m 0.144,56.520004 h 63.216 v 4.752 h -63.216 z m 5.328,-48.960004 h 52.488 v 4.248 h -52.488 z m 2.88,27.360004 h 46.224 v 3.888 h -46.224 z m -1.152,14.184 h 49.68 v 4.248 h -49.68 z m -6.12,-21.312 h 61.272 v 10.512 h -6.408 v -6.048 h -48.744 v 6.048 h -6.12 z m 26.928,-31.824004 h 6.912 v 14.184 h -6.912 z m 0,48.312004 h 6.912 v 14.688 h -6.912 z m -13.176,-26.208004 v 3.384004 h 33.768 v -3.384004 z m -6.336,-3.672 h 46.8 v 10.728004 h -46.8 z m 30.456,24.840004 4.032,-3.024 q 2.448,1.224 5.04,2.808 2.592,1.584 4.968,3.24 2.376,1.656 3.888,3.024 l -4.032,3.384 q -1.512,-1.44 -3.888,-3.168 -2.304,-1.728 -4.968,-3.384 -2.592,-1.656 -5.04,-2.88 z m -27.792,7.992 q -0.216,-0.792 -0.648,-2.232 -0.432,-1.44 -0.864,-2.376 1.728,-0.144 3.888,-0.936 0.792,-0.288 2.52,-1.08 1.728,-0.792 3.816,-1.944 2.16,-1.152 4.032,-2.52 l 4.824,1.728 q -3.528,2.376 -7.2,4.176 -3.6,1.728 -6.984,2.664 v 0.072 q 0,0 -0.864,0.432 -0.864,0.36 -1.728,0.936 -0.792,0.504 -0.792,1.08 z m 0,0 v -3.24 l 3.024,-1.584 35.28,-0.504 q 0.144,0.864 0.36,1.944 0.288,1.08 0.504,1.872 -10.152,0.216 -16.92,0.36 -6.768,0.144 -10.944,0.288 -4.104,0.144 -6.408,0.288 -2.232,0.072 -3.312,0.216 -1.008,0.144 -1.584,0.36 z m 60.912,-33.480004 h 21.24 v 6.84 h -21.24 z m 35.64,-16.416 h 7.128 v 51.912004 q 0,2.808 0.504,3.6 0.576,0.792 2.448,0.792 0.504,0 1.512,0 1.08,0 2.304,0 1.224,0 2.304,0 1.08,0 1.584,0 1.512,0 2.232,-1.368 0.792,-1.44 1.08,-5.112 0.36,-3.744 0.576,-10.44 0.864,0.648 2.016,1.368 1.152,0.648 2.376,1.152 1.224,0.504 2.16,0.72 -0.36,7.488 -1.224,11.952 -0.864,4.392 -2.88,6.336 -1.944,2.016 -5.688,2.016 -0.576,0 -1.872,0 -1.296,0 -2.808,0 -1.512,0 -2.808,0 -1.224,0 -1.8,0 -3.456,0 -5.472,-1.008 -2.016,-0.936 -2.88,-3.384 -0.792,-2.448 -0.792,-6.696 z m -18.072,-0.072 h 7.056 v 53.496004 h -7.056 z m -19.944,57.888004 q 3.888,-1.296 9.144,-3.168 5.256,-1.872 11.088,-4.032 5.904,-2.16 11.664,-4.32 l 1.152,6.048 q -5.112,2.232 -10.44,4.464 -5.328,2.16 -10.296,4.176 -4.968,2.016 -9.216,3.672 z m 41.76,-41.472004 h 23.04 v 6.84 h -23.04 z m 42.408,42.768004 h 43.56 v 3.816 h -43.56 z m 7.56,-5.976 h 29.448 v 3.6 h -29.448 z m -19.08,-19.728 h 66.528 v 4.536 h -66.528 z m 15.12,-28.512004 4.032,0.936 q -0.864,2.304 -2.376,4.608 -1.512,2.232 -3.168,3.888 -0.576,-0.504 -1.728,-1.152 -1.08,-0.648 -1.8,-1.008 3.384,-3.096 5.04,-7.272 z m 21.096,9.216 h 20.592 v 4.176 h -20.592 z m -21.528,-6.12 h 16.992 v 3.456 h -16.992 z m -4.032,6.696 h 22.32 v 3.6 h -22.32 z m 31.032,-14.184 h 12.888 v 4.752 h -12.888 z m 14.256,13.608 h 1.08 l 1.008,-0.144 3.312,1.368 q -2.088,4.896 -5.832,8.496 -3.672,3.528004 -8.424,5.832004 -4.752,2.304 -10.08,3.6 -0.432,-0.936 -1.296,-2.16 -0.792,-1.296 -1.512,-2.016 4.752,-1.008 9.072,-2.88 4.392,-1.872 7.704,-4.752004 3.312,-2.88 4.968,-6.552 z m -16.704,-13.608 h 5.256 v 3.816 q 0,2.016 -0.648,4.032 -0.648,1.944 -2.376,3.744 -1.728,1.728 -5.04,3.168 -0.36,-0.648 -1.08,-1.44 -0.648,-0.792 -1.368,-1.584 -0.72,-0.792 -1.224,-1.08 2.808,-1.08 4.176,-2.16 1.368,-1.152 1.8,-2.304 0.504,-1.224 0.504,-2.52 z m -19.512,9 h 4.464 v 5.184 q 0,1.944 -0.792,4.248 -0.72,2.232 -2.952,4.392 -2.16,2.088004 -6.624,3.744004 -0.504,-0.792 -1.368,-1.656 -0.792,-0.936 -1.512,-1.584004 3.96,-1.152 5.76,-2.736 1.872,-1.584 2.448,-3.312 0.576,-1.728 0.576,-3.168 z m 5.832,26.424004 h 5.256 v 6.912 q 0,1.728 -0.648,3.24 -0.648,1.44 -2.304,2.736 -1.584,1.224 -4.392,2.232 -2.808,0.936 -7.128,1.584 -0.432,-0.864 -1.296,-2.016 -0.864,-1.224 -1.584,-1.944 3.744,-0.36 6.12,-0.936 2.376,-0.576 3.672,-1.296 1.368,-0.792 1.8,-1.656 0.504,-0.936 0.504,-1.944 z m 11.592,0.072 h 5.328 v 10.08 q 0,1.08 0.432,1.368 0.432,0.288 1.944,0.288 0.36,0 1.296,0 1.008,0 2.16,0 1.224,0 2.232,0 1.08,0 1.512,0 0.864,0 1.224,-0.072 0.36,-0.072 0.504,-0.36 0.864,0.432 2.088,0.792 1.224,0.288 2.16,0.432 -0.216,1.44 -1.44,2.016 -1.224,0.576 -3.744,0.576 -0.432,0 -1.656,0 -1.224,0 -2.736,0 -1.44,0 -2.664,0 -1.224,0 -1.656,0 -2.736,0 -4.32,-0.36 -1.512,-0.432 -2.088,-1.512 -0.576,-1.152 -0.576,-3.24 z m -17.28,-16.200004 2.592,-2.592 q 2.592,1.368 5.4,3.24 2.808,1.8 4.392,3.312 l -2.808,2.952004 q -1.512,-1.512 -4.32,-3.456004 -2.736,-1.944 -5.256,-3.456 z m 16.416,2.52 2.376,-3.456 q 2.952,1.152 6.264,2.52 3.312,1.296 6.624,2.736004 3.312,1.368 6.192,2.736 2.952,1.296 5.04,2.448 l -2.52,3.96 q -2.016,-1.152 -4.896,-2.52 -2.88,-1.368 -6.192,-2.88 -3.24,-1.512 -6.624,-2.88 -3.312,-1.440004 -6.264,-2.664004 z m 15.696,-21.816 h 5.4 v 6.12 q 0,1.008 0.144,1.44 0.144,0.36 0.792,0.36 0.432,0 1.44,0 1.008,0 1.44,0 0.72,0 1.656,-0.072 0.936,-0.072 1.512,-0.216 0.144,0.936 0.216,2.232 0.072,1.296 0.216,2.232 -0.576,0.216 -1.512,0.288 -0.936,0.072 -1.872,0.072 -0.432,0 -1.224,0 -0.72,0 -1.44,0 -0.72,0 -1.224,0 -2.304,0 -3.528,-0.648 -1.152,-0.648 -1.584,-2.088 -0.432,-1.44 -0.432,-3.672 z m -44.712,40.248004 h 52.272 v 24.696 h -6.408 v -20.88 h -39.672 v 20.88 h -6.192 z m -5.616,-39.960004 h 32.328 v 4.176 h -32.328 z m 2.376,2.592 h 5.256 v 20.304 q 0,1.872004 0.648,2.664004 0.648,0.72 2.52,0.72 0.648,0 2.088,0 1.512,0 3.312,0 1.8,0 3.6,0 1.872,0 3.24,0 1.44,0 2.16,0 1.512,0 3.6,-0.072 2.16,-0.144 3.24,-0.36 0.144,1.08 0.288,2.232 0.144,1.152 0.288,2.016 -1.008,0.288 -2.952,0.36 -1.944,0.072 -4.032,0.072 -0.72,0 -2.304,0 -1.584,0 -3.6,0 -1.944,0 -3.888,0 -1.944,0 -3.384,0 -1.44,0 -2.016,0 -3.096,0 -4.896,-0.72 -1.8,-0.792 -2.52,-2.52 -0.648,-1.8 -0.648,-4.608004 z m 98.784,17.064 h 29.376 v 5.976004 h -29.376 z m -5.472,12.888004 h 41.04 v 6.12 h -41.04 z m -0.288,-25.920004 h 40.896 v 13.392 h -6.552 v -7.488 h -28.008 v 7.488 h -6.336 z m 9.936,28.872004 h 6.552 q -0.288,5.4 -1.224,9.936 -0.864,4.536 -2.808,8.208 -1.944,3.6 -5.472,6.336 -3.528,2.808 -9.072,4.752 -0.504,-1.296 -1.656,-2.952 -1.152,-1.584 -2.232,-2.52 4.968,-1.512 7.992,-3.744 3.024,-2.232 4.608,-5.112 1.656,-2.952 2.304,-6.624 0.72,-3.744 1.008,-8.28 z m 12.744,-0.144 h 6.408 v 20.448 q 0,1.44 0.288,1.8 0.288,0.36 1.296,0.36 0.288,0 1.08,0 0.864,0 1.728,0 0.864,0 1.224,0 0.648,0 1.008,-0.576 0.36,-0.648 0.504,-2.52 0.216,-1.944 0.288,-5.76 0.72,0.504 1.728,1.008 1.008,0.504 2.088,0.936 1.08,0.36 1.944,0.576 -0.288,4.752 -1.008,7.416 -0.72,2.664 -2.16,3.672 -1.368,1.08 -3.672,1.08 -0.432,0 -1.296,0 -0.792,0 -1.728,0 -0.864,0 -1.656,0 -0.792,0 -1.152,0 -2.808,0 -4.32,-0.72 -1.512,-0.72 -2.088,-2.52 -0.504,-1.728 -0.504,-4.752 z m -8.424,-36.216004 6.336,-1.872 q 1.368,2.16 2.592,4.824 1.296,2.592 1.944,4.536 l -6.696,2.232 q -0.504,-1.944 -1.728,-4.68 -1.152,-2.808 -2.448,-5.04 z m -36.648,1.656 h 16.704 v 6.12 h -10.656 v 57.672004 h -6.048 z m 15.12,0 h 1.08 l 1.008,-0.216 4.464,2.52 q -1.512,4.464 -3.312,9.504 -1.728,5.04 -3.456,9.288 3.672,4.464004 4.752,8.352004 1.152,3.816 1.152,7.128 0,3.168 -0.72,5.472 -0.648,2.232 -2.304,3.456 -0.792,0.576 -1.8,0.936 -0.936,0.288 -2.088,0.504 -1.008,0.072 -2.304,0.144 -1.224,0 -2.448,-0.072 -0.072,-1.152 -0.504,-2.88 -0.36,-1.728 -1.08,-3.024 1.08,0.072 2.016,0.144 0.936,0 1.728,-0.072 1.296,-0.072 2.088,-0.576 0.792,-0.576 1.08,-1.8 0.288,-1.296 0.288,-2.952 0,-2.808 -1.152,-6.336 -1.152,-3.6 -4.68,-7.704004 0.936,-2.376 1.8,-5.112 0.864,-2.736 1.656,-5.472 0.864,-2.736 1.512,-5.184 0.72,-2.448 1.224,-4.176 z"
         id="text4-0"
         transform="matrix(0.10413976,0,0,0.10413976,90.51336,11.677482)"
         aria-label="臺北醫院" />
      <path
         style="font-size:2.86364px;line-height:1.25;font-family:'AR UDJingXiHeiE1G30 EB';-inkscape-font-specification:'AR UDJingXiHeiE1G30 EB';stroke-width:0.102273"
         d="m 107.94023,27.747443 h -0.64432 v -0.2835 h 1.64945 v 0.2835 h -0.64145 v 1.786911 h -0.36368 z m 2.38254,0.950729 -0.32645,-0.884865 -0.33218,0.884865 z m -0.76459,0.2835 -0.20618,0.552682 h -0.36941 l 0.83332,-2.070411 h 0.37227 l 0.82759,2.070411 h -0.378 l -0.20904,-0.552682 z m 2.05896,-1.517729 v 2.070411 h -0.36369 v -2.070411 z m 0.83904,1.248547 v 0.821864 h -0.36368 v -2.070411 h 0.97364 q 0.30354,0 0.47536,0.166091 0.17182,0.166091 0.17182,0.441 0,0.309274 -0.17755,0.475365 -0.17468,0.166091 -0.4725,0.166091 z m 0.88773,-0.635728 q 0,-0.160364 -0.0916,-0.24341 -0.0916,-0.08591 -0.26918,-0.08591 h -0.52691 v 0.681546 h 0.52691 q 0.17755,0 0.26918,-0.08591 0.0916,-0.08877 0.0916,-0.266318 z m 2.25082,1.457592 h -1.53205 v -2.070411 h 1.52346 v 0.2835 h -1.15978 v 0.584183 h 1.08246 v 0.2835 h -1.08246 v 0.635728 h 1.16837 z m 0.74741,-2.070411 v 2.070411 h -0.36368 v -2.070411 z m 1.58932,1.151183 v 0.919228 h -0.36368 v -2.070411 h 0.36368 v 0.867683 h 0.99368 v -0.867683 h 0.36368 v 2.070411 h -0.36368 v -0.919228 z m 3.82296,-0.105955 q 0,0.498274 -0.27778,0.781774 -0.27491,0.280637 -0.75313,0.280637 -0.48682,0 -0.76173,-0.283501 -0.27491,-0.2835 -0.27491,-0.77891 0,-0.504 0.27777,-0.790364 0.27778,-0.289228 0.75887,-0.289228 0.48682,0 0.75886,0.286364 0.27205,0.286364 0.27205,0.793228 z m -1.03091,0.77891 q 0.31213,0 0.48109,-0.206182 0.17182,-0.206182 0.17182,-0.572728 0,-0.363682 -0.17182,-0.578455 -0.17182,-0.217637 -0.48109,-0.217637 -0.315,0 -0.48969,0.220501 -0.17181,0.217636 -0.17181,0.575591 0,0.366546 0.17468,0.572728 0.17468,0.206182 0.48682,0.206182 z m 2.11336,-0.690137 q -0.378,-0.06873 -0.56127,-0.211909 -0.18327,-0.143182 -0.18327,-0.40091 0,-0.240546 0.19473,-0.398046 0.19759,-0.1575 0.60709,-0.1575 0.37513,0 0.58132,0.160364 0.20618,0.160364 0.22622,0.46391 h -0.36368 q -0.003,-0.146046 -0.11454,-0.24341 -0.11169,-0.09736 -0.34078,-0.09736 -0.21477,0 -0.31786,0.07159 -0.10309,0.07159 -0.10023,0.200455 0,0.140319 0.13746,0.209046 0.14031,0.06873 0.45531,0.131727 0.39519,0.08018 0.56128,0.217637 0.16895,0.137455 0.16895,0.412364 0,0.263455 -0.22336,0.441001 -0.22336,0.174682 -0.63573,0.174682 -0.42095,0 -0.65577,-0.177546 -0.23482,-0.177546 -0.23482,-0.512591 h 0.36368 q 0,0.186136 0.14032,0.297818 0.14032,0.108818 0.38945,0.108818 0.2291,0 0.35796,-0.08877 0.12886,-0.08877 0.12886,-0.231955 0,-0.166091 -0.12886,-0.237682 -0.12886,-0.07159 -0.45246,-0.131728 z m 1.65519,0.114546 v 0.821864 h -0.36368 v -2.070411 h 0.97363 q 0.30355,0 0.47537,0.166091 0.17182,0.166091 0.17182,0.441 0,0.309274 -0.17755,0.475365 -0.17468,0.166091 -0.4725,0.166091 z m 0.88773,-0.635728 q 0,-0.160364 -0.0916,-0.24341 -0.0916,-0.08591 -0.26918,-0.08591 h -0.52691 v 0.681546 h 0.52691 q 0.17754,0 0.26918,-0.08591 0.0916,-0.08877 0.0916,-0.266318 z m 1.08245,-0.612819 v 2.070411 h -0.36368 v -2.070411 z m 0.91636,0.2835 h -0.64432 v -0.2835 h 1.64946 v 0.2835 h -0.64145 v 1.786911 h -0.36369 z m 2.38255,0.950729 -0.32645,-0.884865 -0.33218,0.884865 z m -0.76459,0.2835 -0.20618,0.552682 h -0.36941 l 0.83332,-2.070411 h 0.37227 l 0.82759,2.070411 h -0.378 l -0.20904,-0.552682 z m 3.15,0.552682 h -1.45473 v -2.070411 h 0.36369 v 1.786911 h 1.09104 z"
         id="text5-8"
         aria-label="TAIPEI HOSPITAL" />
      <path
         d="m 107.77983,32.668057 h 1.47026 v 0.240204 h -1.47026 z m -0.1135,-0.79188 h 1.71838 v 1.140308 h -0.2666 v -0.902744 h -1.19838 v 0.908023 h -0.2534 z m 0.52264,-1.3198 0.28244,0.09503 q -0.0818,0.158376 -0.18214,0.324671 -0.0977,0.166295 -0.19533,0.316752 -0.0977,0.150457 -0.18741,0.266599 l -0.22172,-0.09239 q 0.0871,-0.118782 0.17949,-0.274518 0.095,-0.158376 0.17949,-0.324671 0.0871,-0.166295 0.14518,-0.311473 z m 0.63614,0.446093 0.19533,-0.145178 q 0.13462,0.108223 0.27188,0.240203 0.1399,0.129341 0.25868,0.261321 0.11879,0.13198 0.18742,0.245483 l -0.21645,0.166294 q -0.0633,-0.110863 -0.17686,-0.245482 -0.1135,-0.13726 -0.25076,-0.271879 -0.13462,-0.137259 -0.26924,-0.250762 z m -1.4597,0.351067 q 0.19534,-0.0053 0.43818,-0.0132 0.24284,-0.0079 0.51472,-0.01848 0.27452,-0.01056 0.55696,-0.02112 0.28507,-0.0132 0.56223,-0.0264 l -0.0106,0.240203 q -0.27716,0.01584 -0.55959,0.02904 -0.2798,0.0132 -0.54904,0.0264 -0.2666,0.01056 -0.5068,0.02112 -0.23757,0.0079 -0.42762,0.01584 z m 2.6396,-0.13198 h 0.77869 v 0.250762 h -0.77869 z m 1.30661,-0.601829 h 0.26132 v 1.934827 q 0,0.105584 0.0211,0.137259 0.0238,0.02904 0.10295,0.02904 0.0185,0 0.0633,0 0.0475,0 0.10294,0 0.0554,0 0.10295,0 0.0475,0 0.0686,0 0.0581,0 0.0871,-0.04487 0.029,-0.04751 0.0422,-0.166295 0.0132,-0.118782 0.0211,-0.332589 0.0317,0.02376 0.0739,0.04751 0.0422,0.02376 0.0871,0.04223 0.0449,0.01584 0.0792,0.02376 -0.0132,0.245482 -0.0475,0.39594 -0.0317,0.147817 -0.10559,0.213807 -0.0739,0.06599 -0.21381,0.06599 -0.0211,0 -0.0765,0 -0.0554,0 -0.12143,0 -0.066,0 -0.12142,0 -0.0528,0 -0.0739,0 -0.13726,0 -0.2138,-0.03695 -0.0765,-0.03695 -0.10823,-0.129341 -0.0317,-0.08975 -0.0317,-0.250762 z m -0.65198,-0.0026 h 0.25868 v 2.380919 h -0.25868 z m 1.51777,0.401219 0.18213,0.221727 q -0.1267,0.09502 -0.27716,0.187411 -0.15046,0.09239 -0.30883,0.182133 -0.15574,0.08975 -0.3062,0.168934 -0.0132,-0.04223 -0.0449,-0.100305 -0.029,-0.05807 -0.0554,-0.09502 0.14518,-0.07919 0.29299,-0.174214 0.14782,-0.09767 0.28244,-0.19797 0.13462,-0.102944 0.23493,-0.192691 z m -2.2595,1.417466 q 0.10822,-0.03431 0.24812,-0.08447 0.1399,-0.05015 0.29564,-0.108223 0.15837,-0.05807 0.31675,-0.118782 l 0.0475,0.227005 q -0.20325,0.08975 -0.41442,0.179493 -0.20853,0.08711 -0.3801,0.158376 z m 3.5397,-1.235333 h 1.31452 v 0.211168 h -1.31452 z m -0.35107,0.477767 h 1.78437 v 0.216448 h -1.78437 z m 0.75229,-0.398579 h 0.24812 v 0.424975 q 0,0.121422 -0.0343,0.242844 -0.0343,0.118782 -0.12406,0.234924 -0.0898,0.116142 -0.25868,0.219087 -0.16894,0.100305 -0.44346,0.182132 -0.0158,-0.0264 -0.0422,-0.06071 -0.0264,-0.03431 -0.0554,-0.06863 -0.029,-0.03431 -0.0554,-0.05543 0.25604,-0.06599 0.40913,-0.147817 0.15574,-0.08447 0.22965,-0.176854 0.0765,-0.09503 0.1003,-0.190051 0.0264,-0.09502 0.0264,-0.182132 z m -0.3801,-0.314113 0.23492,0.05543 q -0.0713,0.174214 -0.18477,0.32995 -0.11086,0.155736 -0.23228,0.26132 -0.0238,-0.01848 -0.0633,-0.04223 -0.037,-0.02376 -0.0765,-0.04487 -0.037,-0.02376 -0.0686,-0.03695 0.1267,-0.09502 0.22964,-0.232285 0.10295,-0.139898 0.16102,-0.290356 z m 0.6203,0.849952 q 0.095,0.224366 0.30356,0.364264 0.20853,0.13726 0.52,0.187412 -0.0396,0.03695 -0.0845,0.09766 -0.0422,0.06071 -0.066,0.110863 -0.33787,-0.07391 -0.55695,-0.250762 -0.21645,-0.176853 -0.32995,-0.46193 z m -1.38051,-1.108632 h 2.22783 v 0.240203 h -1.9797 v 2.074726 h -0.24813 z m 0.1531,1.958583 h 2.13544 v 0.240203 h -2.13544 z m 3.85646,-2.085284 h 0.24284 v 0.403859 h -0.24284 z m -0.61503,0.290356 h 1.52041 v 0.498884 h -0.22965 v -0.285077 h -1.06639 v 0.285077 h -0.22437 z m 0.20325,0.475128 h 1.10863 v 0.216447 h -1.10863 z m -0.16894,0.469849 h 1.4861 v 0.224366 h -1.4861 z m 0.32995,0.102944 h 0.23757 q -0.0106,0.211168 -0.0396,0.385382 -0.029,0.171574 -0.0977,0.308833 -0.066,0.137259 -0.19269,0.237564 -0.12406,0.102944 -0.32467,0.171574 -0.0106,-0.02904 -0.0343,-0.06599 -0.0238,-0.03695 -0.0502,-0.07127 -0.0264,-0.03431 -0.0528,-0.05543 0.17949,-0.05807 0.28508,-0.139899 0.10558,-0.08183 0.16101,-0.192691 0.0581,-0.110863 0.0792,-0.256041 0.0211,-0.145178 0.029,-0.322031 z m 0.48833,-0.02376 h 0.23492 v 0.794519 q 0,0.05279 0.008,0.06599 0.0106,0.0132 0.0449,0.0132 0.0106,0 0.0396,0 0.029,0 0.0581,0 0.0317,0 0.0422,0 0.0264,0 0.0396,-0.02112 0.0132,-0.02112 0.0185,-0.08975 0.005,-0.07127 0.008,-0.211168 0.0238,0.02112 0.0607,0.03959 0.037,0.01848 0.0765,0.03431 0.0422,0.0132 0.0739,0.02112 -0.0106,0.176853 -0.037,0.274518 -0.0264,0.100305 -0.0765,0.137259 -0.0502,0.03959 -0.13726,0.03959 -0.0158,0 -0.0449,0 -0.0264,0 -0.0581,0 -0.0317,0 -0.0607,0 -0.0264,0 -0.0422,0 -0.1003,0 -0.15573,-0.02904 -0.0528,-0.0264 -0.0739,-0.09239 -0.0185,-0.06599 -0.0185,-0.182133 z m -1.63919,-1.208937 h 0.6203 v 0.224366 h -0.40121 v 2.114319 h -0.21909 z m 0.5464,0 h 0.0396 l 0.0369,-0.01056 0.16366,0.09503 q -0.037,0.110863 -0.0792,0.237564 -0.0422,0.124061 -0.0871,0.245483 -0.0422,0.121421 -0.0845,0.227005 0.13462,0.158376 0.17685,0.295636 0.0422,0.137259 0.0422,0.25868 0,0.113503 -0.0264,0.195331 -0.0238,0.08183 -0.0845,0.124061 -0.029,0.02112 -0.066,0.03431 -0.0343,0.01056 -0.0766,0.01848 -0.0765,0.0079 -0.17421,0.0026 -0.003,-0.04487 -0.0185,-0.105584 -0.0132,-0.06335 -0.0396,-0.108224 0.0396,0.0026 0.0739,0.0026 0.0343,0 0.0633,0 0.0502,-0.0026 0.0792,-0.02376 0.0264,-0.02112 0.037,-0.06599 0.0106,-0.04487 0.0106,-0.102944 0,-0.100305 -0.0422,-0.227006 -0.0422,-0.126701 -0.17157,-0.271879 0.0343,-0.08975 0.066,-0.19269 0.0317,-0.102945 0.0607,-0.205889 0.0317,-0.105584 0.0554,-0.195331 0.0264,-0.09239 0.0449,-0.155736 z"
         id="text5-9-1"
         style="font-weight:500;font-size:2.6396px;line-height:1.25;font-family:'Noto Sans JP';-inkscape-font-specification:'Noto Sans JP Medium';stroke-width:0.0942717"
         aria-label="台北医院" />
      <path
         style="font-weight:500;font-size:2.6396px;line-height:1.25;font-family:'Noto Sans kr';-inkscape-font-specification:'Noto Sans kr Medium';stroke-width:0.0942717"
         d="m 119.99364,32.294001 h 0.19269 q 0.21381,0 0.39594,-0.0053 0.18213,-0.0053 0.35107,-0.01848 0.17157,-0.01584 0.35106,-0.04487 l 0.0264,0.221726 q -0.18213,0.02904 -0.35899,0.04751 -0.17421,0.01584 -0.36162,0.02112 -0.18477,0.0026 -0.40386,0.0026 h -0.19269 z m 0,-1.412186 h 1.12711 v 0.227006 h -0.85259 v 1.261729 h -0.27452 z m 0.20853,0.675738 h 0.8737 v 0.219087 h -0.8737 z m 1.28284,-0.884266 h 0.27716 v 2.412594 h -0.27716 z m 0.21645,0.944977 h 0.43553 v 0.229645 h -0.43553 z m 2.32813,-0.947617 h 0.27715 v 2.417874 h -0.27715 z m -1.00569,0.176854 q 0.17949,0 0.31939,0.105584 0.14254,0.105584 0.22173,0.295635 0.0792,0.190051 0.0792,0.448732 0,0.26132 -0.0792,0.454011 -0.0792,0.190051 -0.22173,0.295635 -0.1399,0.102945 -0.31939,0.102945 -0.17949,0 -0.32203,-0.102945 -0.1399,-0.105584 -0.22173,-0.295635 -0.0792,-0.192691 -0.0792,-0.454011 0,-0.258681 0.0792,-0.448732 0.0818,-0.190051 0.22173,-0.295635 0.14254,-0.105584 0.32203,-0.105584 z m 0,0.250762 q -0.10558,0 -0.18741,0.07127 -0.0792,0.07127 -0.12406,0.205889 -0.0449,0.134619 -0.0449,0.322031 0,0.190051 0.0449,0.324671 0.0449,0.134619 0.12406,0.208528 0.0818,0.07127 0.18741,0.07127 0.10558,0 0.18477,-0.07127 0.0792,-0.07391 0.12406,-0.208528 0.0449,-0.13462 0.0449,-0.324671 0,-0.187412 -0.0449,-0.322031 -0.0449,-0.13462 -0.12406,-0.205889 -0.0792,-0.07127 -0.18477,-0.07127 z m 3.53706,-0.424976 h 0.26396 v 2.412594 h -0.26396 z m -0.75756,0.900104 h 0.3669 v 0.242843 h -0.3669 z m 0.28507,-0.847312 h 0.25869 v 2.238381 h -0.25869 z m -1.31716,0.237564 h 1.09808 v 0.221726 h -1.09808 z m -0.0158,1.549445 -0.029,-0.229645 q 0.11614,0 0.26132,-0.0026 0.14782,-0.0026 0.30883,-0.0079 0.16366,-0.0079 0.32204,-0.01848 0.15837,-0.01056 0.29563,-0.02904 l 0.0185,0.200609 q -0.18741,0.03695 -0.40386,0.05807 -0.21381,0.01848 -0.41706,0.02376 -0.20061,0.0053 -0.35634,0.0053 z m 0.19005,-1.406907 h 0.25076 v 1.237973 h -0.25076 z m 0.4936,0 h 0.2534 v 1.237973 h -0.2534 z m 3.44732,-0.435534 h 0.27716 v 2.417874 h -0.27716 z m -1.00569,0.176854 q 0.1795,0 0.31939,0.105584 0.14254,0.105584 0.22173,0.295635 0.0792,0.190051 0.0792,0.448732 0,0.26132 -0.0792,0.454011 -0.0792,0.190051 -0.22173,0.295635 -0.13989,0.102945 -0.31939,0.102945 -0.17949,0 -0.32203,-0.102945 -0.1399,-0.105584 -0.22172,-0.295635 -0.0792,-0.192691 -0.0792,-0.454011 0,-0.258681 0.0792,-0.448732 0.0818,-0.190051 0.22172,-0.295635 0.14254,-0.105584 0.32203,-0.105584 z m 0,0.250762 q -0.10558,0 -0.18741,0.07127 -0.0792,0.07127 -0.12406,0.205889 -0.0449,0.134619 -0.0449,0.322031 0,0.190051 0.0449,0.324671 0.0449,0.134619 0.12406,0.208528 0.0818,0.07127 0.18741,0.07127 0.10559,0 0.18478,-0.07127 0.0792,-0.07391 0.12406,-0.208528 0.0449,-0.13462 0.0449,-0.324671 0,-0.187412 -0.0449,-0.322031 -0.0449,-0.13462 -0.12406,-0.205889 -0.0792,-0.07127 -0.18478,-0.07127 z m 3.61362,-0.05279 h 0.63878 v 0.224366 h -0.63878 z m 0,0.496244 h 0.63878 v 0.221727 h -0.63878 z m -1.03736,-0.72325 h 0.27451 v 0.356346 h 0.56488 v -0.356346 h 0.27188 v 1.145586 h -1.11127 z m 0.27451,0.572793 v 0.353707 h 0.56488 v -0.353707 z m 1.33564,-0.717971 h 0.27716 v 1.44914 h -0.27716 z m -0.52528,1.496653 q 0.2534,0 0.4329,0.05543 0.18213,0.05279 0.27979,0.155736 0.10031,0.100305 0.10031,0.245483 0,0.216447 -0.21909,0.335229 -0.21645,0.118782 -0.59391,0.118782 -0.37746,0 -0.59655,-0.118782 -0.21909,-0.118782 -0.21909,-0.335229 0,-0.145178 0.0977,-0.245483 0.1003,-0.102944 0.28244,-0.155736 0.18477,-0.05543 0.43553,-0.05543 z m 0,0.213808 q -0.17157,0 -0.29299,0.02904 -0.11879,0.0264 -0.18214,0.07919 -0.0633,0.05279 -0.0633,0.13462 0,0.07655 0.0633,0.13198 0.0634,0.05543 0.18214,0.08447 0.12142,0.0264 0.29299,0.0264 0.17157,0 0.29036,-0.0264 0.11878,-0.02904 0.18213,-0.08447 0.066,-0.05543 0.066,-0.13198 0,-0.08183 -0.066,-0.13462 -0.0633,-0.05279 -0.18213,-0.07919 -0.11879,-0.02904 -0.29036,-0.02904 z m 1.89259,-0.485687 h 0.27452 v 0.53056 h -0.27452 z m 1.06112,-1.224774 h 0.27716 v 1.829243 h -0.27716 z m -1.40954,2.138076 h 1.74477 v 0.224366 h -1.74477 z m 0,-0.485686 h 0.27716 v 0.546397 h -0.27716 z m -0.28772,-0.33523 -0.0343,-0.224366 q 0.22172,-0.0026 0.48304,-0.0053 0.26132,-0.0053 0.5332,-0.01848 0.27452,-0.01584 0.52792,-0.04751 l 0.0211,0.19797 q -0.25868,0.04223 -0.53056,0.06335 -0.26924,0.02112 -0.52528,0.0264 -0.25604,0.0053 -0.47513,0.0079 z m 1.22478,0.09503 h 0.54111 v 0.19533 h -0.54111 z m -0.48041,-1.32244 q 0.17949,0 0.31147,0.05279 0.13462,0.05279 0.20853,0.150458 0.0765,0.09502 0.0765,0.221726 0,0.126701 -0.0765,0.224366 -0.0739,0.09766 -0.20853,0.150457 -0.13198,0.05015 -0.31147,0.05015 -0.17422,0 -0.31147,-0.05015 -0.13462,-0.05279 -0.21117,-0.150457 -0.0739,-0.09766 -0.0739,-0.224366 0,-0.126701 0.0739,-0.221726 0.0765,-0.09767 0.21117,-0.150458 0.13725,-0.05279 0.31147,-0.05279 z m 0,0.20325 q -0.14782,0 -0.24285,0.06071 -0.0924,0.05807 -0.0924,0.161016 0,0.102944 0.0924,0.163655 0.095,0.05807 0.24285,0.05807 0.14782,0 0.2402,-0.05807 0.0924,-0.06071 0.0924,-0.163655 0,-0.06863 -0.0422,-0.116142 -0.0422,-0.05015 -0.11614,-0.07655 -0.0739,-0.02904 -0.17421,-0.02904 z"
         id="text5-9-1-0"
         aria-label="타이페이 병원" />
      <path
         id="rect2"
         style="stroke-width:0.616431"
         d="m 103.70993,19.393967 h 0.85412 v 13.63571 h -0.85412 z" />
    </g>
  </g>
</svg>
