<?xml version="1.0" encoding="UTF-8" standalone="no"?>
<!-- Created with Inkscape (http://www.inkscape.org/) -->

<svg
   width="500"
   height="250"
   viewBox="0 0 132.29166 66.145833"
   version="1.1"
   id="svg1"
   inkscape:version="1.3.2 (091e20e, 2023-11-25, custom)"
   sodipodi:docname="o18.svg"
   xmlns:inkscape="http://www.inkscape.org/namespaces/inkscape"
   xmlns:sodipodi="http://sodipodi.sourceforge.net/DTD/sodipodi-0.dtd"
   xmlns="http://www.w3.org/2000/svg"
   xmlns:svg="http://www.w3.org/2000/svg">
  <sodipodi:namedview
     id="namedview1"
     pagecolor="#9e652e"
     bordercolor="#ffffff"
     borderopacity="1"
     inkscape:showpageshadow="0"
     inkscape:pageopacity="0"
     inkscape:pagecheckerboard="false"
     inkscape:deskcolor="#d1d1d1"
     inkscape:document-units="mm"
     inkscape:zoom="2.0208096"
     inkscape:cx="221.69333"
     inkscape:cy="117.27973"
     inkscape:window-width="1920"
     inkscape:window-height="1009"
     inkscape:window-x="1912"
     inkscape:window-y="-8"
     inkscape:window-maximized="1"
     inkscape:current-layer="layer1"
     showguides="true">
    <sodipodi:guide
       position="142.71301,-1.1518642"
       orientation="1,0"
       id="guide4"
       inkscape:locked="false" />
  </sodipodi:namedview>
  <defs
     id="defs1">
    <rect
       x="560.66638"
       y="34.144731"
       width="279.32397"
       height="128.59143"
       id="rect6" />
    <rect
       x="157.85752"
       y="62.351248"
       width="329.07603"
       height="135.09437"
       id="rect4" />
    <rect
       x="157.85751"
       y="62.35125"
       width="329.07602"
       height="135.09438"
       id="rect4-5" />
    <rect
       x="157.85751"
       y="62.35125"
       width="329.07602"
       height="135.09438"
       id="rect4-5-7" />
    <rect
       x="157.85751"
       y="62.35125"
       width="462.90293"
       height="131.58831"
       id="rect4-5-0" />
    <rect
       x="157.85751"
       y="62.35125"
       width="329.07602"
       height="135.09438"
       id="rect4-5-79" />
  </defs>
  <g
     inkscape:label="Layer 1"
     inkscape:groupmode="layer"
     id="layer1">
    <rect
       style="fill:#f4eed7;fill-opacity:1;stroke:none;stroke-width:0.953294;stroke-dasharray:none"
       id="rect5"
       width="132.29167"
       height="66.145836"
       x="-2.5431316e-06"
       y="-1.2715658e-06"
       ry="0" />
    <text
       xml:space="preserve"
       transform="matrix(0.31615295,0,0,0.31615295,-10.474341,-6.4462013)"
       id="text6"
       style="font-size:55px;line-height:1.25;font-family:'Microsoft JhengHei';-inkscape-font-specification:'Microsoft JhengHei';white-space:pre;shape-inside:url(#rect6);display:inline" />
    <g
       id="g4"
       transform="matrix(1.1889399,0,0,1.1889399,-7.0175004,-6.2487912)">
      <path
         id="rect1"
         style="fill-opacity:0;stroke:#000000;stroke-width:0.801799"
         d="m 17.882173,17.152325 h 10.56702 c 3.339781,0 6.028486,2.688705 6.028486,6.028486 v 19.784208 c 0,3.339781 -2.688705,6.028486 -6.028486,6.028486 h -10.56702 c -3.339782,0 -6.028487,-2.688705 -6.028487,-6.028486 V 23.180811 c 0,-3.339781 2.688705,-6.028486 6.028487,-6.028486 z" />
      <path
         style="font-size:11.8619px;line-height:1.25;font-family:'AR UDJingXiHeiE1G30 EB';-inkscape-font-specification:'AR UDJingXiHeiE1G30 EB';stroke-width:0.247123"
         d="m 27.447837,27.083192 q 0,2.06397 -1.150605,3.238298 -1.138742,1.162467 -3.119679,1.162467 -2.016523,0 -3.155266,-1.174329 -1.138742,-1.174328 -1.138742,-3.226436 0,-2.087695 1.150604,-3.273885 1.150604,-1.198052 3.143404,-1.198052 2.016523,0 3.143403,1.18619 1.126881,1.18619 1.126881,3.285747 z m -4.270284,3.226436 q 1.292947,0 1.992799,-0.854056 0.711714,-0.854057 0.711714,-2.37238 0,-1.506462 -0.711714,-2.396104 -0.711714,-0.901505 -1.992799,-0.901505 -1.304809,0 -2.028385,0.913367 -0.711714,0.901504 -0.711714,2.384242 0,1.518323 0.723576,2.37238 0.723576,0.854056 2.016523,0.854056 z"
         id="text2"
         aria-label="O" />
      <path
         style="font-size:12.2395px;line-height:1.25;font-family:'AR UDJingXiHeiE1G30 EB';-inkscape-font-specification:'AR UDJingXiHeiE1G30 EB';stroke-width:0.222535"
         d="M 18.992013,36.059055 17.559991,37.39316 16.8501,36.303845 19.151126,34.21089 h 1.334106 v 8.849159 h -1.493219 z m 9.546801,2.301026 q 0.74661,0.305987 1.126034,0.881244 0.379425,0.563017 0.379425,1.297387 0,1.23619 -0.856765,1.95832 -0.844526,0.722131 -2.337745,0.722131 -1.542177,0 -2.374463,-0.722131 -0.832286,-0.72213 -0.832286,-1.94608 0,-0.709891 0.367185,-1.272909 0.367185,-0.575256 1.077076,-0.905723 -0.575256,-0.269269 -0.856765,-0.746609 -0.281508,-0.48958 -0.293748,-1.101555 0,-1.077076 0.758849,-1.762488 0.771089,-0.697652 2.154152,-0.697652 1.346345,0 2.092955,0.685412 0.746609,0.685412 0.746609,1.774728 0,0.587496 -0.293748,1.077076 -0.281508,0.47734 -0.856765,0.758849 z m -1.70129,-0.563017 q 0.587496,0 0.942441,-0.342706 0.354946,-0.354946 0.354946,-0.917963 0,-0.587496 -0.354946,-0.917962 -0.342706,-0.342706 -0.930202,-0.342706 -0.611975,0 -0.991399,0.342706 -0.367185,0.342706 -0.367185,0.917962 0,0.550778 0.367185,0.905723 0.367185,0.354946 0.97916,0.354946 z m 1.664572,2.741648 q 0,-0.697651 -0.48958,-1.089316 -0.477341,-0.391664 -1.174992,-0.391664 -0.709891,0 -1.174992,0.428383 -0.452862,0.416143 -0.465101,1.064837 0,0.685412 0.452861,1.064836 0.452862,0.379425 1.199471,0.391664 0.73437,0 1.187232,-0.379424 0.465101,-0.391664 0.465101,-1.089316 z"
         id="text3"
         aria-label="18" />
      <path
         style="font-weight:500;font-size:72px;line-height:1.25;font-family:'Noto Sans TC';-inkscape-font-specification:'Noto Sans TC Medium';white-space:pre"
         d="m 200.91342,98.721406 h 26.28 v 6.336004 h -26.28 z m -38.88,-16.704 h 32.04 v 5.616 h -32.04 z m -0.792,28.584004 h 32.976 v 5.832 h -32.976 z m -0.36,-12.312004 h 34.344 v 5.688004 h -34.344 z m 52.272,3.168004 h 6.624 v 39.672 h -6.624 z m -46.872,-12.312004 5.544,-1.296 q 0.936,2.088 1.656,4.608 0.792,2.52 1.08,4.32 l -5.76,1.584 q -0.216,-1.872 -0.936,-4.464 -0.648,-2.592 -1.584,-4.752 z m 17.928,-1.44 6.264,1.296 q -1.152,3.024 -2.376,6.12 -1.224,3.096 -2.304,5.256004 l -5.544,-1.224004 q 0.72,-1.584 1.44,-3.6 0.72,-2.016 1.368,-4.104 0.72,-2.088 1.152,-3.744 z m 36.36,-12.024 5.328,5.04 q -3.528,1.368 -7.92,2.52 -4.32,1.08 -8.856,1.944 -4.464,0.864 -8.784,1.512 -0.216,-1.08 -0.864,-2.592 -0.576,-1.512 -1.224,-2.52 4.104,-0.72 8.208,-1.656 4.104,-0.936 7.776,-2.016 3.744,-1.152 6.336,-2.232 z m -47.88,0.144 6.768,-1.728 q 1.224,2.232 2.376,4.968 1.224,2.664 1.8,4.608 l -7.056,2.016 q -0.504,-2.016 -1.656,-4.752 -1.08,-2.808 -2.232,-5.112 z m 25.56,5.76 h 6.408 v 25.272004 q 0,3.96 -0.288,8.496 -0.216,4.536 -1.008,9.144 -0.792,4.608 -2.232,8.928 -1.44,4.32 -3.888,7.776 -0.504,-0.648 -1.512,-1.44 -0.936,-0.792 -2.016,-1.512 -1.008,-0.72 -1.728,-1.08 2.88,-4.248 4.248,-9.504 1.368,-5.256 1.656,-10.656 0.36,-5.4 0.36,-10.152 z m -13.824,39.816004 4.536,-2.448 q 1.8,2.592 3.456,5.688 1.656,3.024 2.52,5.256 l -4.68,2.808 q -0.864,-2.232 -2.592,-5.472 -1.656,-3.24 -3.24,-5.832 z m -17.28,-1.8 5.328,1.512 q -1.296,3.888 -3.384,7.92 -2.016,3.96 -4.032,6.768 -0.792,-0.72 -2.232,-1.656 -1.368,-1.008 -2.376,-1.512 2.016,-2.592 3.744,-6.048 1.8,-3.528 2.952,-6.984 z m 8.136,-18.216 h 6.624 v 39.744 h -6.624 z m 84.096,5.904 h 39.096 v 6.336 h -39.096 z m -26.28,9.792 h 19.944 v 6.048 h -19.944 z m 27.648,15.696 h 36.504 v 6.264 h -36.504 z m -10.44,-39.312004 h 6.48 v 48.096004 h -6.48 z m 24.84,0 h 6.768 v 43.848004 h -6.768 z m -37.08,25.776004 h 5.832 v 3.024 q 0,2.88 -0.432,6.336 -0.432,3.384 -1.872,6.84 -1.368,3.384 -4.392,6.336 -0.864,-1.008 -2.376,-2.232 -1.512,-1.152 -2.736,-1.8 2.736,-2.448 3.96,-5.184 1.296,-2.808 1.656,-5.544 0.36,-2.736 0.36,-4.968 z m -1.728,-23.832004 h 5.976 v 10.296004 h 12.168 v 5.832 h -18.144 z m -2.376,-15.264 h 30.528 v 6.048 h -30.528 z m 13.032,-5.544 h 6.768 v 16.848 h -6.768 z m 31.032,0 h 6.696 v 17.424 h -6.696 z m -10.8,5.544 h 30.744 v 6.048 h -30.744 z"
         id="text4"
         transform="matrix(0.22253605,0,0,0.22253605,2.536093,1.4902911)"
         aria-label="新莊" />
      <path
         style="font-size:6.23101px;line-height:1.25;font-family:'AR UDJingXiHeiE1G30 EB';-inkscape-font-specification:'AR UDJingXiHeiE1G30 EB';stroke-width:0.222535"
         d="m 41.354701,35.212912 h 0.915958 l -1.551521,2.174622 1.638756,2.330398 h -0.92219 l -1.177661,-1.738452 -1.177661,1.738452 h -0.897265 l 1.626294,-2.336629 -1.557753,-2.168391 h 0.928421 l 1.084195,1.620062 z m 2.311705,0 v 4.50502 h -0.791338 v -4.50502 z m 1.825681,1.252433 v 3.252587 h -0.791338 v -4.50502 h 0.816262 l 2.212009,3.327359 v -3.327359 h 0.791338 v 4.50502 h -0.86611 z m 3.962919,-1.252433 h 3.526751 v 0.567022 l -2.71672,3.321128 h 2.77903 v 0.61687 H 49.249382 V 39.15091 l 2.716721,-3.321128 h -2.511097 z m 5.109427,2.504866 v 2.000154 h -0.791338 v -4.50502 h 0.791338 v 1.887996 h 2.162161 v -1.887996 h 0.791338 v 4.50502 h -0.791338 v -2.000154 z m 7.76384,0.423709 q 0,0.785107 -0.49225,1.221277 -0.49225,0.436171 -1.401978,0.436171 -0.922189,0 -1.42067,-0.42994 -0.49225,-0.429939 -0.49225,-1.221277 v -2.934806 h 0.791339 v 2.897419 q 0,0.510943 0.280395,0.791339 0.280396,0.280395 0.841186,0.280395 0.529636,0 0.810032,-0.267933 0.286626,-0.274165 0.286626,-0.816263 v -2.884957 h 0.79757 z m 3.402133,-0.24301 -0.710336,-1.925382 -0.722797,1.925382 z m -1.66368,0.61687 -0.448633,1.202585 h -0.8038 l 1.813224,-4.50502 h 0.810031 l 1.800762,4.50502 h -0.822493 l -0.454864,-1.202585 z m 4.48009,-2.050002 v 3.252587 h -0.791338 v -4.50502 h 0.816262 l 2.212009,3.327359 v -3.327359 h 0.791338 v 4.50502 h -0.86611 z m 7.371283,2.704258 q -0.230548,0.324013 -0.579484,0.479788 -0.342706,0.149544 -0.785108,0.149544 -0.972037,0 -1.54529,-0.610639 -0.573253,-0.61687 -0.573253,-1.719759 0,-1.109119 0.604408,-1.719758 0.604408,-0.610639 1.632525,-0.610639 0.828724,0 1.345898,0.380091 0.523405,0.373861 0.629332,1.071734 h -0.791339 q -0.06231,-0.36763 -0.367629,-0.598177 -0.299089,-0.236778 -0.816262,-0.236778 -0.691643,0 -1.053041,0.448632 -0.361399,0.442402 -0.361399,1.264895 0,0.878573 0.380092,1.296051 0.380092,0.411246 1.034348,0.411246 0.573252,0 0.909727,-0.336474 0.336475,-0.336475 0.336475,-0.772646 v -0.09346 h -1.277357 v -0.61687 h 2.03754 v 2.361553 h -0.760183 z"
         id="text5"
         aria-label="XINZHUANG" />
      <path
         d="m 41.755525,43.945316 h 2.324167 v 0.548329 h -2.324167 z m -3.321128,-1.445595 h 2.772799 v 0.486019 h -2.772799 z m -0.06854,2.473711 h 2.853802 v 0.504712 h -2.853802 z m -0.01869,-1.065502 h 2.928575 v 0.492249 h -2.928575 z m 4.49879,0.274164 h 0.573253 v 3.433287 h -0.573253 z m -3.308667,-2.28055 h 0.573253 v 0.828725 H 39.53729 Z m 0,2.442556 h 0.573253 v 3.296205 H 39.53729 Z m 1.944075,-1.981461 0.704105,0.205624 q -0.01246,0.07477 -0.143314,0.0997 v 1.881765 q 0,0.355167 -0.03739,0.760183 -0.03115,0.398785 -0.130851,0.822493 -0.0997,0.417478 -0.299088,0.816263 -0.193162,0.392553 -0.510943,0.722797 -0.03739,-0.06854 -0.112158,-0.149545 -0.07477,-0.081 -0.162007,-0.155775 -0.081,-0.06854 -0.149544,-0.0997 0.286627,-0.292857 0.454864,-0.629332 0.168237,-0.336475 0.24924,-0.697873 0.08723,-0.361399 0.112158,-0.710335 0.02492,-0.355168 0.02492,-0.685411 z m 2.062465,-0.429939 0.473557,0.429939 q -0.299089,0.137082 -0.679181,0.255472 -0.37386,0.112158 -0.766414,0.205623 -0.392553,0.08723 -0.760183,0.155775 -0.01869,-0.09347 -0.07477,-0.224316 -0.05608,-0.137082 -0.112158,-0.224317 0.348936,-0.07477 0.704104,-0.168237 0.361398,-0.0997 0.67918,-0.205623 0.317781,-0.112158 0.535867,-0.224316 z m -3.476904,3.626447 q 0.06854,0.04362 0.205624,0.155776 0.143313,0.105927 0.299088,0.230547 0.162006,0.12462 0.292858,0.236778 0.137082,0.105927 0.193161,0.155776 l -0.342706,0.429939 q -0.07477,-0.08723 -0.199392,-0.218085 -0.12462,-0.130851 -0.274164,-0.267934 -0.143314,-0.143313 -0.280396,-0.261702 -0.130851,-0.12462 -0.218085,-0.199392 z m -1.289819,-2.46748 0.461095,-0.105927 q 0.09347,0.193161 0.162006,0.423709 0.06854,0.230547 0.08723,0.392553 L 39.00142,43.939085 Q 38.98896,43.764616 38.92665,43.527838 38.86434,43.29106 38.777106,43.091667 Z m 1.582677,-0.118389 0.523405,0.112158 q -0.08723,0.224317 -0.174469,0.448633 -0.08723,0.218085 -0.162006,0.380092 l -0.473557,-0.105928 q 0.04985,-0.118389 0.0997,-0.261702 0.05608,-0.149544 0.105928,-0.299088 0.04985,-0.149545 0.081,-0.274165 z m -0.816263,2.28055 0.417478,0.155775 q -0.149544,0.342706 -0.373861,0.685411 -0.224316,0.342706 -0.479787,0.635563 -0.255472,0.292858 -0.504712,0.49225 -0.06231,-0.0997 -0.180699,-0.224316 -0.112159,-0.124621 -0.205624,-0.199393 0.249241,-0.162006 0.498481,-0.411246 0.255471,-0.249241 0.467326,-0.542098 0.218085,-0.299089 0.361398,-0.591946 z m 7.259127,1.620062 h 3.3959 v 0.560791 h -3.3959 z M 46.65933,44.730423 h 3.601524 v 0.560791 H 46.65933 Z m 1.501673,-1.096658 h 0.585715 v 3.620217 h -0.585715 z m -2.336629,0 h 0.579484 v 4.012771 h -0.579484 z m -1.339667,2.754107 q 0.261703,-0.124621 0.623101,-0.317782 0.361399,-0.193161 0.74149,-0.392554 l 0.168238,0.504712 q -0.317782,0.199393 -0.648025,0.398785 -0.330244,0.193161 -0.623101,0.36763 z m 0.12462,-2.268088 0.49225,-0.199392 q 0.149545,0.168237 0.286627,0.37386 0.143313,0.199393 0.255471,0.398785 0.118389,0.193161 0.174468,0.355167 l -0.535866,0.224317 Q 45.232428,45.110515 45.12027,44.911122 45.014343,44.705499 44.877261,44.499876 44.74641,44.294252 44.609327,44.119784 Z m 0.04362,-1.769607 h 5.533136 v 0.529636 H 44.652947 Z M 46.03,41.864158 h 0.579484 v 1.576446 H 46.03 Z m 2.174622,0 h 0.585715 v 1.576446 H 48.20462 Z"
         id="text5-9"
         style="font-weight:500;font-size:6.23101px;line-height:1.25;font-family:'Noto Sans JP';-inkscape-font-specification:'Noto Sans JP Medium';stroke-width:0.222535"
         aria-label="新荘" />
      <path
         style="font-weight:500;font-size:6.23101px;line-height:1.25;font-family:'Noto Sans KR';-inkscape-font-specification:'Noto Sans KR Medium';stroke-width:0.222535"
         d="m 61.869502,42.019045 h 0.654256 v 4.162314 h -0.654256 z m -3.059426,5.047118 h 3.875688 v 0.529635 h -3.875688 z m 0,-1.271126 h 0.648025 v 1.532828 h -0.648025 z m 0.436171,-3.464442 h 0.542098 v 0.567022 q 0,0.560791 -0.18693,1.059272 -0.186931,0.492249 -0.542098,0.86611 -0.355168,0.373861 -0.866111,0.567022 l -0.336474,-0.517174 q 0.448632,-0.168237 0.760183,-0.473557 0.31155,-0.31155 0.467326,-0.697873 0.162006,-0.392553 0.162006,-0.8038 z m 0.130851,0 h 0.529636 v 0.567022 q 0,0.305319 0.08723,0.591946 0.09346,0.280395 0.267934,0.529636 0.180699,0.24924 0.43617,0.442401 0.255472,0.193162 0.585715,0.30532 l -0.336474,0.523405 Q 60.448828,45.103395 60.09366,44.754458 59.738493,44.39929 59.557793,43.925734 59.377094,43.445946 59.377094,42.897617 Z m 5.595448,0.180699 h 0.523404 v 0.324013 q 0,0.37386 -0.193161,0.697873 -0.18693,0.324013 -0.548329,0.560791 -0.361398,0.230547 -0.884803,0.330243 l -0.255472,-0.49848 q 0.436171,-0.081 0.741491,-0.24301 0.305319,-0.168237 0.461094,-0.386322 0.155776,-0.224317 0.155776,-0.461095 z m 0.130851,0 h 0.523405 v 0.324013 q 0,0.224316 0.155775,0.42994 0.155775,0.205623 0.448633,0.355167 0.299088,0.149544 0.710335,0.224316 l -0.255472,0.498481 q -0.504711,-0.0997 -0.859879,-0.317781 -0.348937,-0.218086 -0.535867,-0.523405 -0.18693,-0.30532 -0.18693,-0.666718 z m -1.283588,-0.18693 h 2.965961 v 0.523405 h -2.965961 z m 1.152737,1.825686 h 0.654256 v 0.953345 h -0.654256 z m 2.398938,-2.131005 h 0.648025 v 3.676295 h -0.648025 z m 0.398785,1.557752 h 1.034348 v 0.535867 h -1.034348 z m -4.143622,1.838148 -0.07477,-0.529636 q 0.498481,-0.0062 1.090427,-0.01246 0.591946,-0.01246 1.208816,-0.04985 0.61687,-0.03739 1.177661,-0.112158 l 0.04362,0.473557 q -0.573253,0.0997 -1.183892,0.149544 -0.610639,0.04985 -1.190123,0.06854 -0.579484,0.01246 -1.071734,0.01246 z m 2.517328,0.324013 q 0.903497,0 1.408209,0.255471 0.504712,0.255471 0.504712,0.729028 0,0.467326 -0.504712,0.722797 -0.504712,0.255472 -1.408209,0.255472 -0.897265,0 -1.401977,-0.255472 -0.504712,-0.255471 -0.504712,-0.722797 0,-0.473557 0.504712,-0.729028 0.504712,-0.255471 1.401977,-0.255471 z m 0,0.504711 q -0.610638,0 -0.934651,0.124621 -0.324013,0.118389 -0.324013,0.355167 0,0.236778 0.324013,0.361399 0.324013,0.12462 0.934651,0.12462 0.61687,0 0.934652,-0.12462 0.324013,-0.124621 0.324013,-0.361399 0,-0.236778 -0.324013,-0.355167 -0.317782,-0.124621 -0.934652,-0.124621 z"
         id="text5-9-8"
         aria-label="신좡" />
      <path
         style="font-weight:500;font-size:72px;line-height:1.25;font-family:'Noto Sans TC';-inkscape-font-specification:'Noto Sans TC Medium';white-space:pre"
         d="m 200.91342,98.721406 h 26.28 v 6.336004 h -26.28 z m -38.88,-16.704 h 32.04 v 5.616 h -32.04 z m -0.792,28.584004 h 32.976 v 5.832 h -32.976 z m -0.36,-12.312004 h 34.344 v 5.688004 h -34.344 z m 52.272,3.168004 h 6.624 v 39.672 h -6.624 z m -46.872,-12.312004 5.544,-1.296 q 0.936,2.088 1.656,4.608 0.792,2.52 1.08,4.32 l -5.76,1.584 q -0.216,-1.872 -0.936,-4.464 -0.648,-2.592 -1.584,-4.752 z m 17.928,-1.44 6.264,1.296 q -1.152,3.024 -2.376,6.12 -1.224,3.096 -2.304,5.256004 l -5.544,-1.224004 q 0.72,-1.584 1.44,-3.6 0.72,-2.016 1.368,-4.104 0.72,-2.088 1.152,-3.744 z m 36.36,-12.024 5.328,5.04 q -3.528,1.368 -7.92,2.52 -4.32,1.08 -8.856,1.944 -4.464,0.864 -8.784,1.512 -0.216,-1.08 -0.864,-2.592 -0.576,-1.512 -1.224,-2.52 4.104,-0.72 8.208,-1.656 4.104,-0.936 7.776,-2.016 3.744,-1.152 6.336,-2.232 z m -47.88,0.144 6.768,-1.728 q 1.224,2.232 2.376,4.968 1.224,2.664 1.8,4.608 l -7.056,2.016 q -0.504,-2.016 -1.656,-4.752 -1.08,-2.808 -2.232,-5.112 z m 25.56,5.76 h 6.408 v 25.272004 q 0,3.96 -0.288,8.496 -0.216,4.536 -1.008,9.144 -0.792,4.608 -2.232,8.928 -1.44,4.32 -3.888,7.776 -0.504,-0.648 -1.512,-1.44 -0.936,-0.792 -2.016,-1.512 -1.008,-0.72 -1.728,-1.08 2.88,-4.248 4.248,-9.504 1.368,-5.256 1.656,-10.656 0.36,-5.4 0.36,-10.152 z m -13.824,39.816004 4.536,-2.448 q 1.8,2.592 3.456,5.688 1.656,3.024 2.52,5.256 l -4.68,2.808 q -0.864,-2.232 -2.592,-5.472 -1.656,-3.24 -3.24,-5.832 z m -17.28,-1.8 5.328,1.512 q -1.296,3.888 -3.384,7.92 -2.016,3.96 -4.032,6.768 -0.792,-0.72 -2.232,-1.656 -1.368,-1.008 -2.376,-1.512 2.016,-2.592 3.744,-6.048 1.8,-3.528 2.952,-6.984 z m 8.136,-18.216 h 6.624 v 39.744 h -6.624 z m 84.096,5.904 h 39.096 v 6.336 h -39.096 z m -26.28,9.792 h 19.944 v 6.048 h -19.944 z m 27.648,15.696 h 36.504 v 6.264 h -36.504 z m -10.44,-39.312004 h 6.48 v 48.096004 h -6.48 z m 24.84,0 h 6.768 v 43.848004 h -6.768 z m -37.08,25.776004 h 5.832 v 3.024 q 0,2.88 -0.432,6.336 -0.432,3.384 -1.872,6.84 -1.368,3.384 -4.392,6.336 -0.864,-1.008 -2.376,-2.232 -1.512,-1.152 -2.736,-1.8 2.736,-2.448 3.96,-5.184 1.296,-2.808 1.656,-5.544 0.36,-2.736 0.36,-4.968 z m -1.728,-23.832004 h 5.976 v 10.296004 h 12.168 v 5.832 h -18.144 z m -2.376,-15.264 h 30.528 v 6.048 h -30.528 z m 13.032,-5.544 h 6.768 v 16.848 h -6.768 z m 31.032,0 h 6.696 v 17.424 h -6.696 z m -10.8,5.544 h 30.744 v 6.048 h -30.744 z m 50.544,13.104 h 25.92 v 4.896 h -25.92 z m 31.824,-2.448 h 15.192 v 5.472 h -15.192 z m -21.888,-2.664 h 5.904 v 15.480004 h -5.904 z m -11.448,38.088004 h 27.648 v 5.4 h -27.648 z m 11.448,-6.552 h 5.904 v 21.888 h -5.904 z m -3.312,-5.832 v 4.032 h 12.528 v -4.032 z m 0,-7.704 v 3.816 h 12.528 v -3.816 z m -5.328,-4.104 h 23.328 v 19.872 h -23.328 z m 27.576,-11.232004 h 5.976 v 19.728004 q 0,3.528 -0.36,7.704 -0.288,4.104 -1.224,8.352 -0.864,4.248 -2.52,8.136 -1.656,3.888 -4.392,7.128 -0.432,-0.648 -1.296,-1.44 -0.792,-0.792 -1.728,-1.584 -0.864,-0.72 -1.512,-1.08 3.24,-3.888 4.68,-8.568 1.512,-4.752 1.944,-9.576 0.432,-4.896 0.432,-9.144 z m 15.768,0 h 5.976 v 43.848004 q 0,2.376 -0.576,3.744 -0.504,1.368 -2.088,2.088 -1.512,0.72 -3.96,0.864 -2.376,0.216 -5.904,0.144 -0.216,-1.152 -0.792,-2.808 -0.504,-1.656 -1.08,-2.952 2.376,0.072 4.392,0.072 2.088,0.072 2.808,0.072 0.72,-0.072 0.936,-0.36 0.288,-0.216 0.288,-0.936 z m -49.176,-10.296 h 57.24 v 5.76 h -57.24 z m -3.888,0 h 6.264 v 22.104004 q 0,4.248 -0.216,9.36 -0.216,5.04 -0.936,10.368 -0.648,5.256 -1.944,10.296 -1.224,4.968 -3.384,9.072 -0.504,-0.576 -1.512,-1.368 -0.936,-0.792 -2.016,-1.512 -1.008,-0.648 -1.728,-1.008 1.872,-3.816 2.952,-8.28 1.152,-4.464 1.656,-9.144 0.576,-4.752 0.72,-9.288 0.144,-4.536 0.144,-8.496 z m 23.76,-4.248 5.832,-2.304 q 1.656,1.872 2.952,4.176 1.368,2.232 2.016,4.104 l -6.192,2.664 q -0.504,-1.872 -1.8,-4.248 -1.296,-2.448 -2.808,-4.392 z m 16.992,27.720004 h 14.544 v 4.968 h -14.544 z m -0.576,13.248 h 14.544 v 4.968 h -14.544 z m 47.016,-33.984004 h 24.408 v 5.76 h -24.408 z m 27.432,-4.536 h 18.216 v 6.12 h -18.216 z m -0.576,19.368 h 19.8 v 6.120004 h -19.8 z m -28.296,-0.576 h 27.072 v 5.976004 h -27.072 z m 10.368,-22.824 h 6.408 v 26.280004 h -6.408 z m -9.936,38.376004 h 26.136 v 5.832 h -26.136 z m 9.864,-8.208 h 6.408 v 26.136 l -6.408,1.08 z m -11.88,25.344 q 3.816,-0.36 8.64,-0.864 4.896,-0.504 10.296,-1.08 5.4,-0.576 10.8,-1.224 l 0.144,5.904 q -7.776,1.008 -15.48,1.944 -7.704,0.936 -13.68,1.584 z m 36.864,-29.592 h 6.696 v 33.048 q 0,2.664 -0.648,4.176 -0.576,1.584 -2.376,2.448 -1.656,0.792 -4.392,1.008 -2.664,0.216 -6.48,0.216 -0.216,-1.44 -0.792,-3.456 -0.504,-1.944 -1.224,-3.384 2.736,0.072 4.896,0.144 2.16,0 3.024,-0.072 0.72,0 1.008,-0.216 0.288,-0.288 0.288,-1.008 z m -41.976,-25.920004 6.192,2.232 q -1.872,3.024 -4.32,6.192 -2.448,3.096 -5.256,5.904 -2.736,2.808 -5.544,4.968 -0.36,-0.72 -1.08,-1.656 -0.648,-0.936 -1.368,-1.872 -0.648,-0.936 -1.224,-1.584 2.448,-1.8 4.824,-4.176 2.448,-2.376 4.464,-4.968 2.016,-2.664 3.312,-5.04 z m -4.176,29.664004 5.4,-5.400004 0.864,0.288 v 42.336004 h -6.264 z m 6.048,-14.832004 6.12,2.016 q -2.088,4.536 -4.968,9.072004 -2.88,4.464 -6.12,8.424 -3.24,3.888 -6.624,6.84 -0.288,-0.72 -1.008,-1.872 -0.648,-1.152 -1.44,-2.304 -0.72,-1.224 -1.368,-1.944 4.536,-3.672 8.64,-9.072 4.176,-5.400004 6.768,-11.160004 z"
         id="text4-0"
         transform="matrix(0.10413976,0,0,0.10413976,59.271497,11.677484)"
         aria-label="新莊廟街" />
      <path
         style="font-size:2.86364px;line-height:1.25;font-family:'AR UDJingXiHeiE1G30 EB';-inkscape-font-specification:'AR UDJingXiHeiE1G30 EB';stroke-width:0.102273"
         d="m 77.477269,27.463943 h 0.420955 l -0.713046,0.99941 0.753137,1.071001 h -0.423819 l -0.541228,-0.798955 -0.541228,0.798955 h -0.412364 l 0.74741,-1.073865 -0.71591,-0.996546 h 0.426683 l 0.498273,0.744546 z m 1.062411,0 v 2.070411 h -0.363683 v -2.070411 z m 0.839044,0.575591 v 1.49482 h -0.363682 v -2.070411 h 0.375137 l 1.016592,1.529183 v -1.529183 h 0.363682 v 2.070411 h -0.398046 z m 1.821273,-0.575591 h 1.620821 v 0.260591 l -1.248547,1.52632 h 1.277183 v 0.2835 h -1.743957 v -0.260591 l 1.248547,-1.52632 h -1.154047 z m 2.348185,1.151183 v 0.919228 H 83.1845 v -2.070411 h 0.363682 v 0.867683 h 0.993683 v -0.867683 h 0.363683 v 2.070411 h -0.363683 v -0.919228 z m 3.568096,0.194728 q 0,0.360818 -0.226227,0.561273 -0.226228,0.200455 -0.644319,0.200455 -0.423819,0 -0.65291,-0.197591 -0.226228,-0.197592 -0.226228,-0.561274 v -1.348774 h 0.363683 v 1.331592 q 0,0.234819 0.128863,0.363683 0.128864,0.128863 0.386592,0.128863 0.243409,0 0.372273,-0.123136 0.131728,-0.126 0.131728,-0.375137 v -1.325865 h 0.366545 z m 1.563549,-0.111682 -0.326455,-0.884865 -0.332182,0.884865 z m -0.764592,0.2835 -0.206182,0.552682 h -0.36941 l 0.83332,-2.070411 h 0.372273 l 0.827592,2.070411 h -0.378001 l -0.209045,-0.552682 z m 2.058954,-0.942138 v 1.49482 h -0.363682 v -2.070411 h 0.375137 l 1.016592,1.529183 v -1.529183 h 0.363682 v 2.070411 h -0.398046 z m 3.387685,1.24282 q -0.105955,0.148909 -0.266319,0.2205 -0.1575,0.06873 -0.360819,0.06873 -0.446727,0 -0.710182,-0.280637 -0.263455,-0.2835 -0.263455,-0.790365 0,-0.509728 0.277773,-0.790364 0.277773,-0.280637 0.750274,-0.280637 0.380864,0 0.618546,0.174682 0.240546,0.171818 0.289227,0.492546 h -0.363682 q -0.02864,-0.168955 -0.168955,-0.274909 -0.137454,-0.108819 -0.375136,-0.108819 -0.317864,0 -0.483956,0.206182 -0.166091,0.203319 -0.166091,0.581319 0,0.403774 0.174682,0.595638 0.174682,0.189 0.475365,0.189 0.263454,0 0.418091,-0.154637 0.154637,-0.154636 0.154637,-0.355091 v -0.04296 h -0.587047 v -0.2835 h 0.936411 v 1.085319 h -0.349364 z m 1.970181,-1.534911 h -0.64432 v -0.2835 h 1.649457 v 0.2835 h -0.641455 v 1.786911 h -0.363682 z m 2.812093,1.786911 H 96.6121 v -2.070411 h 1.523457 v 0.2835 h -1.159774 v 0.584183 h 1.082456 v 0.2835 h -1.082456 v 0.635728 h 1.168365 z m 0.735957,-1.491956 v 1.491956 h -0.352227 v -2.070411 h 0.461046 l 0.595637,1.606502 0.572729,-1.606502 h 0.4725 v 2.070411 h -0.35509 v -1.503411 l -0.538366,1.503411 h -0.30641 z m 2.588725,0.670092 v 0.821864 h -0.36368 v -2.070411 h 0.97364 q 0.30355,0 0.47536,0.166091 0.17182,0.166091 0.17182,0.441 0,0.309274 -0.17754,0.475365 -0.17469,0.166091 -0.4725,0.166091 z m 0.88773,-0.635728 q 0,-0.160364 -0.0916,-0.24341 -0.0916,-0.08591 -0.26919,-0.08591 h -0.52691 v 0.681546 h 0.52691 q 0.17755,0 0.26919,-0.08591 0.0916,-0.08877 0.0916,-0.266318 z m 2.17351,1.457592 h -1.45473 v -2.070411 h 0.36368 v 1.786911 h 1.09105 z m 1.83273,0 h -1.53205 v -2.070411 h 1.52346 v 0.2835 h -1.15978 v 0.584183 h 1.08246 v 0.2835 h -1.08246 v 0.635728 h 1.16837 z m 1.82127,-0.93641 q -0.378,-0.06873 -0.56127,-0.211909 -0.18328,-0.143182 -0.18328,-0.40091 0,-0.240546 0.19473,-0.398046 0.19759,-0.1575 0.60709,-0.1575 0.37514,0 0.58132,0.160364 0.20618,0.160364 0.22623,0.46391 h -0.36368 q -0.003,-0.146046 -0.11455,-0.24341 -0.11168,-0.09736 -0.34077,-0.09736 -0.21477,0 -0.31786,0.07159 -0.1031,0.07159 -0.10023,0.200455 0,0.140319 0.13745,0.209046 0.14032,0.06873 0.45532,0.131727 0.39518,0.08018 0.56127,0.217637 0.16896,0.137455 0.16896,0.412364 0,0.263455 -0.22336,0.441001 -0.22337,0.174682 -0.63573,0.174682 -0.42096,0 -0.65578,-0.177546 -0.23481,-0.177546 -0.23481,-0.512591 h 0.36368 q 0,0.186136 0.14032,0.297818 0.14031,0.108818 0.38945,0.108818 0.22909,0 0.35796,-0.08877 0.12886,-0.08877 0.12886,-0.231955 0,-0.166091 -0.12886,-0.237682 -0.12887,-0.07159 -0.45246,-0.131728 z m 1.7325,-0.850501 h -0.64431 v -0.2835 h 1.64945 v 0.2835 h -0.64145 v 1.786911 h -0.36369 z m 1.70387,1.365956 v 0.420955 h -0.43241 v -0.420955 z"
         id="text5-8"
         aria-label="XINZHUANG TEMPLE ST." />
      <path
         d="m 77.522536,31.453841 h 0.98457 v 0.232285 h -0.98457 z m -1.406907,-0.612387 h 1.174622 v 0.205889 h -1.174622 z m -0.02904,1.047921 h 1.208937 v 0.213808 h -1.208937 z m -0.0079,-0.451371 h 1.240612 v 0.208528 h -1.240612 z m 1.905792,0.116142 h 0.242843 v 1.45442 h -0.242843 z m -1.401628,-0.966093 h 0.242843 v 0.351066 h -0.242843 z m 0,1.034723 h 0.242843 v 1.396348 h -0.242843 z m 0.823555,-0.839393 0.298275,0.08711 q -0.0053,0.03167 -0.06071,0.04223 v 0.79716 q 0,0.150457 -0.01584,0.322031 -0.0132,0.168934 -0.05543,0.348427 -0.04223,0.176853 -0.126701,0.345788 -0.08183,0.166294 -0.216447,0.306193 -0.01584,-0.02904 -0.04751,-0.06335 -0.03168,-0.03431 -0.06863,-0.06599 -0.03432,-0.02904 -0.06335,-0.04223 0.121422,-0.124061 0.192691,-0.266599 0.07127,-0.142539 0.105584,-0.295636 0.03695,-0.153096 0.04751,-0.300914 0.01056,-0.150457 0.01056,-0.290356 z m 0.873708,-0.182132 0.200609,0.182132 q -0.1267,0.05807 -0.287716,0.108224 -0.158376,0.04751 -0.324671,0.08711 -0.166295,0.03696 -0.322031,0.06599 -0.0079,-0.03959 -0.03167,-0.09502 -0.02376,-0.05807 -0.04751,-0.09503 0.147818,-0.03167 0.298275,-0.07127 0.153097,-0.04223 0.287716,-0.08711 0.13462,-0.04751 0.227006,-0.09502 z m -1.472897,1.536247 q 0.02904,0.01848 0.08711,0.06599 0.06071,0.04487 0.126701,0.09766 0.06863,0.05279 0.124061,0.100305 0.05807,0.04487 0.08183,0.06599 l -0.145178,0.182132 q -0.03167,-0.03695 -0.08447,-0.09239 -0.05279,-0.05543 -0.116142,-0.113503 -0.06071,-0.06071 -0.118782,-0.110863 -0.05543,-0.05279 -0.09239,-0.08447 z m -0.546397,-1.045282 0.19533,-0.04487 q 0.03959,0.08183 0.06863,0.179493 0.02904,0.09767 0.03695,0.166295 l -0.205889,0.05807 q -0.0053,-0.07391 -0.03168,-0.174214 -0.0264,-0.100305 -0.06335,-0.184772 z m 0.670458,-0.05015 0.221727,0.04751 q -0.03695,0.09503 -0.07391,0.190051 -0.03695,0.09239 -0.06863,0.161015 l -0.200609,-0.04487 q 0.02112,-0.05015 0.04223,-0.110863 0.02376,-0.06335 0.04487,-0.126701 0.02112,-0.06335 0.03431,-0.116142 z m -0.345787,0.966093 0.176853,0.06599 q -0.06335,0.145178 -0.158376,0.290356 -0.09503,0.145178 -0.203249,0.26924 -0.108224,0.124061 -0.213808,0.208528 -0.0264,-0.04223 -0.07655,-0.09503 -0.04751,-0.05279 -0.08711,-0.08447 0.105584,-0.06863 0.211168,-0.174213 0.108223,-0.105584 0.19797,-0.229646 0.09239,-0.1267 0.153097,-0.250762 z m 3.075134,0.686296 h 1.438582 v 0.237564 h -1.438582 z m -0.06071,-0.908022 h 1.525689 v 0.237564 h -1.525689 z m 0.636144,-0.46457 h 0.248122 v 1.533608 h -0.248122 z m -0.989851,0 h 0.245483 v 1.699903 H 79.24621 Z m -0.567514,1.166704 q 0.110864,-0.05279 0.26396,-0.13462 0.153097,-0.08183 0.314113,-0.166295 l 0.07127,0.213808 q -0.13462,0.08447 -0.274518,0.168934 -0.139899,0.08183 -0.26396,0.155737 z m 0.05279,-0.960815 0.208529,-0.08447 q 0.06335,0.07127 0.121421,0.158376 0.06071,0.08447 0.108224,0.168934 0.05015,0.08183 0.07391,0.150458 l -0.227006,0.09502 q -0.02112,-0.06863 -0.06863,-0.153097 -0.04487,-0.08711 -0.102945,-0.174213 -0.05543,-0.08711 -0.113503,-0.161016 z m 0.01848,-0.749646 h 2.343965 V 31.00247 H 78.74995 Z m 0.583351,-0.205889 H 79.5788 v 0.667819 h -0.245483 z m 0.921221,0 h 0.248122 v 0.667819 h -0.248122 z m 2.813813,1.100713 0.129341,-0.108223 q 0.07391,0.04751 0.155736,0.113502 0.08183,0.06599 0.124061,0.118782 l -0.134619,0.121422 q -0.03959,-0.05543 -0.118782,-0.124061 -0.07919,-0.07127 -0.155737,-0.121422 z m -0.0079,0.472489 0.137259,-0.105584 q 0.07655,0.05279 0.158376,0.1267 0.08183,0.07127 0.124061,0.13198 l -0.139899,0.116143 q -0.04223,-0.05807 -0.121421,-0.13462 -0.07919,-0.07655 -0.158376,-0.134619 z m -1.235333,-0.892185 h 0.950256 v 0.179493 h -0.950256 z m 1.166703,-0.08975 h 0.556956 v 0.20061 h -0.556956 z m -0.802438,-0.09767 h 0.216447 v 0.567514 h -0.216447 z m -0.419697,1.396349 h 1.013607 v 0.19797 h -1.013607 z m 0.419697,-0.240204 h 0.216447 v 0.802438 h -0.216447 z m -0.121422,-0.213808 v 0.147818 h 0.45929 v -0.147818 z m 0,-0.282437 v 0.139899 h 0.45929 V 31.72572 Z m -0.19533,-0.150457 h 0.85523 v 0.72853 h -0.85523 z m 1.010966,-0.411778 h 0.219087 v 0.723251 q 0,0.12934 -0.0132,0.282437 -0.01056,0.150457 -0.04487,0.306194 -0.03167,0.155736 -0.09239,0.298274 -0.06071,0.142539 -0.161016,0.261321 -0.01584,-0.02376 -0.04751,-0.05279 -0.02904,-0.02904 -0.06335,-0.05807 -0.03167,-0.0264 -0.05543,-0.03959 0.118782,-0.142539 0.171574,-0.314113 0.05543,-0.174213 0.07127,-0.351067 0.01584,-0.179492 0.01584,-0.335229 z m 0.578073,0 h 0.219087 v 1.607517 q 0,0.08711 -0.02112,0.137259 -0.01848,0.05015 -0.07655,0.07655 -0.05543,0.0264 -0.145178,0.03168 -0.08711,0.0079 -0.216447,0.0053 -0.0079,-0.04223 -0.02903,-0.102945 -0.01848,-0.06071 -0.03959,-0.108223 0.08711,0.0026 0.161015,0.0026 0.07655,0.0026 0.102945,0.0026 0.0264,-0.0026 0.03431,-0.0132 0.01056,-0.0079 0.01056,-0.03431 z m -0.950256,-0.59127 h 0.258681 V 30.89424 H 82.51138 Z m -0.852591,0.213808 h 2.098482 v 0.211168 h -2.098482 z m -0.142538,0 h 0.229645 v 0.810357 q 0,0.155736 -0.0079,0.343148 -0.0079,0.184772 -0.03432,0.380102 -0.02376,0.192691 -0.07127,0.377463 -0.04487,0.182132 -0.124061,0.33259 -0.01848,-0.02112 -0.05543,-0.05015 -0.03432,-0.02904 -0.07391,-0.05543 -0.03695,-0.02376 -0.06335,-0.03695 0.06863,-0.139899 0.108224,-0.303554 0.04223,-0.163655 0.06071,-0.335229 0.02112,-0.174214 0.0264,-0.340508 0.0053,-0.166295 0.0053,-0.311473 z m 3.196555,0.100304 h 0.894825 v 0.211168 H 84.71284 Z m 1.005688,-0.166294 h 0.667819 v 0.224366 h -0.667819 z m -0.02112,0.710052 h 0.72589 v 0.224366 h -0.72589 z m -1.037363,-0.02112 h 0.99249 v 0.219087 h -0.99249 z m 0.380103,-0.836753 h 0.234924 v 0.963454 h -0.234924 z m -0.364265,1.406907 h 0.958175 v 0.213807 h -0.958175 z m 0.361625,-0.300915 h 0.234925 v 0.958175 l -0.234925,0.03959 z m -0.435534,0.92914 q 0.139899,-0.0132 0.316752,-0.03168 0.179493,-0.01848 0.377463,-0.03959 0.19797,-0.02112 0.39594,-0.04487 l 0.0053,0.216447 q -0.285077,0.03695 -0.567514,0.07127 -0.282437,0.03431 -0.501524,0.05807 z m 1.351475,-1.084876 h 0.245483 v 1.211576 q 0,0.09767 -0.02376,0.153097 -0.02112,0.05807 -0.08711,0.08975 -0.06071,0.02904 -0.161016,0.03695 -0.09766,0.0079 -0.237564,0.0079 -0.0079,-0.05279 -0.02904,-0.126701 -0.01848,-0.07127 -0.04487,-0.124061 0.100304,0.0026 0.179492,0.0053 0.07919,0 0.110864,-0.0026 0.0264,0 0.03695,-0.0079 0.01056,-0.01056 0.01056,-0.03695 z m -1.538886,-0.950256 0.227005,0.08183 q -0.06863,0.110863 -0.158376,0.227005 -0.08975,0.113503 -0.192691,0.216447 -0.100304,0.102945 -0.203249,0.182133 -0.0132,-0.0264 -0.03959,-0.06071 -0.02376,-0.03431 -0.05015,-0.06863 -0.02376,-0.03431 -0.04487,-0.05807 0.08975,-0.06599 0.176853,-0.153097 0.08975,-0.08711 0.163655,-0.182132 0.07391,-0.09766 0.121422,-0.184772 z m -0.153097,1.087515 0.19797,-0.19797 0.03167,0.01056 v 1.552084 h -0.229645 z m 0.221726,-0.543757 0.224366,0.07391 q -0.07655,0.166295 -0.182132,0.33259 -0.105584,0.163655 -0.224366,0.308833 -0.118782,0.142539 -0.242843,0.250762 -0.01056,-0.0264 -0.03696,-0.06863 -0.02376,-0.04223 -0.05279,-0.08447 -0.0264,-0.04487 -0.05015,-0.07127 0.166295,-0.134619 0.316752,-0.332589 0.153097,-0.19797 0.248122,-0.409138 z"
         id="text5-9-1"
         style="font-weight:500;font-size:2.6396px;line-height:1.25;font-family:'Noto Sans JP';-inkscape-font-specification:'Noto Sans JP Medium';stroke-width:0.0942717"
         aria-label="新荘廟街" />
      <path
         style="font-weight:500;font-size:2.6396px;line-height:1.25;font-family:'Noto Sans kr';-inkscape-font-specification:'Noto Sans kr Medium';stroke-width:0.0942717"
         d="m 90.361935,30.673287 h 0.277158 v 1.763253 h -0.277158 z m -1.296044,2.138076 h 1.641831 v 0.224366 h -1.641831 z m 0,-0.538478 h 0.274518 v 0.649341 h -0.274518 z m 0.184772,-1.467618 h 0.229645 v 0.240204 q 0,0.237564 -0.07919,0.448732 -0.07919,0.208528 -0.229645,0.366904 -0.150457,0.158376 -0.366904,0.240204 L 88.66203,31.882224 q 0.190051,-0.07127 0.322031,-0.20061 0.13198,-0.13198 0.19797,-0.295635 0.06863,-0.166295 0.06863,-0.340508 z m 0.05543,0 h 0.224366 v 0.240204 q 0,0.12934 0.03695,0.250762 0.03959,0.118782 0.113503,0.224366 0.07655,0.105584 0.184772,0.187411 0.108223,0.08183 0.248122,0.129341 l -0.142538,0.221726 q -0.211168,-0.07919 -0.361625,-0.227006 -0.150458,-0.150457 -0.227006,-0.351066 -0.07655,-0.20325 -0.07655,-0.435534 z m 2.370361,0.07655 h 0.221726 v 0.13726 q 0,0.158376 -0.08183,0.295635 -0.07919,0.137259 -0.232284,0.237564 -0.153097,0.09766 -0.374824,0.139899 l -0.108223,-0.211168 q 0.184772,-0.03431 0.314112,-0.102945 0.129341,-0.07127 0.195331,-0.163655 0.06599,-0.09503 0.06599,-0.19533 z m 0.05543,0 h 0.221727 v 0.13726 q 0,0.09502 0.06599,0.182132 0.06599,0.08711 0.190051,0.150457 0.126701,0.06335 0.300914,0.09503 l -0.108223,0.211168 q -0.213808,-0.04223 -0.364265,-0.13462 -0.147818,-0.09239 -0.227006,-0.221726 -0.07919,-0.129341 -0.07919,-0.282437 z m -0.543757,-0.07919 h 1.256449 v 0.221727 H 91.18813 Z m 0.488326,0.773403 h 0.277158 v 0.403859 h -0.277158 z m 1.016246,-0.902743 h 0.274518 v 1.557364 h -0.274518 z m 0.168934,0.6599 h 0.438174 v 0.227006 h -0.438174 z m -1.755334,0.778682 -0.03167,-0.224366 q 0.211168,-0.0026 0.46193,-0.0053 0.250762,-0.0053 0.512082,-0.02112 0.261321,-0.01584 0.498885,-0.04751 l 0.01848,0.20061 q -0.242843,0.04223 -0.501524,0.06335 -0.258681,0.02112 -0.504164,0.02904 -0.245483,0.0053 -0.454011,0.0053 z m 1.066398,0.137259 q 0.382742,0 0.59655,0.108224 0.213808,0.108223 0.213808,0.308833 0,0.19797 -0.213808,0.306194 -0.213808,0.108223 -0.59655,0.108223 -0.380102,0 -0.59391,-0.108223 -0.213807,-0.108224 -0.213807,-0.306194 0,-0.20061 0.213807,-0.308833 0.213808,-0.108224 0.59391,-0.108224 z m 0,0.213808 q -0.25868,0 -0.39594,0.05279 -0.137259,0.05015 -0.137259,0.150457 0,0.100305 0.137259,0.153097 0.13726,0.05279 0.39594,0.05279 0.261321,0 0.39594,-0.05279 0.13726,-0.05279 0.13726,-0.153097 0,-0.100305 -0.13726,-0.150457 -0.134619,-0.05279 -0.39594,-0.05279 z m 3.130566,-1.203658 H 95.7388 v 0.229645 h -0.435534 z m 0,0.712692 H 95.7388 v 0.227006 h -0.435534 z m -1.710461,-1.066398 h 1.129749 v 1.578481 h -1.129749 z m 0.85787,0.221726 h -0.585991 v 1.137668 h 0.585991 z m 0.649342,-0.454011 h 0.277158 v 2.412594 h -0.277158 z m 1.787009,1.359394 h 0.277158 v 0.578072 h -0.277158 z m 0.139899,-1.216856 q 0.256041,0 0.454011,0.07919 0.20061,0.07919 0.316752,0.224366 0.116143,0.145178 0.116143,0.340509 0,0.19797 -0.116143,0.343148 -0.116142,0.145178 -0.316752,0.227005 -0.19797,0.07919 -0.454011,0.07919 -0.256041,0 -0.456651,-0.07919 -0.200609,-0.08183 -0.316752,-0.227005 -0.116142,-0.145178 -0.116142,-0.343148 0,-0.195331 0.116142,-0.340509 0.116143,-0.145178 0.316752,-0.224366 0.20061,-0.07919 0.456651,-0.07919 z m 0,0.219087 q -0.182132,0 -0.322031,0.05279 -0.137259,0.05015 -0.216447,0.145178 -0.07919,0.09503 -0.07919,0.227006 0,0.13198 0.07919,0.229645 0.07919,0.09503 0.216447,0.147818 0.139899,0.05015 0.322031,0.05015 0.179493,0 0.319392,-0.05015 0.139898,-0.05279 0.219086,-0.147818 0.07919,-0.09766 0.07919,-0.229645 0,-0.13198 -0.07919,-0.227006 -0.07919,-0.09502 -0.219086,-0.145178 -0.139899,-0.05279 -0.319392,-0.05279 z m -1.090155,1.525689 h 2.185589 v 0.227006 H 95.93677 Z m 4.220723,-1.889954 h 0.26396 v 2.412595 h -0.26396 z m -0.842034,0.849952 h 0.435534 v 0.224366 H 99.315459 Z M 99.674444,30.7208 h 0.258681 v 2.246299 h -0.258681 z m -0.844672,0.332589 h 0.208529 v 0.282438 q 0,0.19797 -0.03432,0.3933 -0.03167,0.192691 -0.100305,0.361625 -0.06599,0.168935 -0.168934,0.306194 -0.102945,0.134619 -0.240204,0.219087 l -0.168934,-0.20325 q 0.174213,-0.108223 0.285076,-0.277158 0.110864,-0.171574 0.163656,-0.377462 0.05543,-0.208529 0.05543,-0.422336 z m 0.05807,0 h 0.208529 v 0.282438 q 0,0.205888 0.05279,0.403858 0.05279,0.19797 0.161016,0.358986 0.110863,0.158376 0.279797,0.258681 l -0.163655,0.200609 q -0.182132,-0.110863 -0.300914,-0.298274 -0.118782,-0.190052 -0.179493,-0.427616 -0.05807,-0.237564 -0.05807,-0.496244 z m -0.485686,-0.118782 h 1.090155 v 0.227006 h -1.090155 z"
         id="text5-9-1-0"
         aria-label="신좡먀오제" />
      <path
         id="rect2"
         style="stroke-width:0.616431"
         d="m 72.468063,19.393967 h 0.854117 v 13.63571 h -0.854117 z" />
    </g>
  </g>
</svg>
