<?xml version="1.0" encoding="UTF-8" standalone="no"?>
<!-- Created with Inkscape (http://www.inkscape.org/) -->

<svg
   width="500"
   height="250"
   viewBox="0 0 132.29166 66.145833"
   version="1.1"
   id="svg1"
   inkscape:version="1.3.2 (091e20e, 2023-11-25, custom)"
   sodipodi:docname="o19.svg"
   xmlns:inkscape="http://www.inkscape.org/namespaces/inkscape"
   xmlns:sodipodi="http://sodipodi.sourceforge.net/DTD/sodipodi-0.dtd"
   xmlns="http://www.w3.org/2000/svg"
   xmlns:svg="http://www.w3.org/2000/svg">
  <sodipodi:namedview
     id="namedview1"
     pagecolor="#9e652e"
     bordercolor="#ffffff"
     borderopacity="1"
     inkscape:showpageshadow="0"
     inkscape:pageopacity="0"
     inkscape:pagecheckerboard="false"
     inkscape:deskcolor="#d1d1d1"
     inkscape:document-units="mm"
     inkscape:zoom="2.0208096"
     inkscape:cx="221.4459"
     inkscape:cy="117.27973"
     inkscape:window-width="1920"
     inkscape:window-height="1009"
     inkscape:window-x="1912"
     inkscape:window-y="-8"
     inkscape:window-maximized="1"
     inkscape:current-layer="layer1"
     showguides="true">
    <sodipodi:guide
       position="142.71301,-1.1518642"
       orientation="1,0"
       id="guide4"
       inkscape:locked="false" />
  </sodipodi:namedview>
  <defs
     id="defs1">
    <rect
       x="560.66638"
       y="34.144731"
       width="279.32397"
       height="128.59143"
       id="rect6" />
    <rect
       x="157.85752"
       y="62.351248"
       width="329.07603"
       height="135.09437"
       id="rect4" />
    <rect
       x="157.85751"
       y="62.35125"
       width="329.07602"
       height="135.09438"
       id="rect4-5" />
    <rect
       x="157.85751"
       y="62.35125"
       width="329.07602"
       height="135.09438"
       id="rect4-5-7" />
    <rect
       x="157.85751"
       y="62.35125"
       width="462.90293"
       height="131.58831"
       id="rect4-5-0" />
    <rect
       x="157.85751"
       y="62.35125"
       width="329.07602"
       height="135.09438"
       id="rect4-5-79" />
  </defs>
  <g
     inkscape:label="Layer 1"
     inkscape:groupmode="layer"
     id="layer1">
    <rect
       style="fill:#f4eed7;fill-opacity:1;stroke:none;stroke-width:0.953294;stroke-dasharray:none"
       id="rect5"
       width="132.29167"
       height="66.145836"
       x="-2.5431316e-06"
       y="-1.2715658e-06"
       ry="0" />
    <text
       xml:space="preserve"
       transform="matrix(0.31615295,0,0,0.31615295,-10.474341,-6.4462013)"
       id="text6"
       style="font-size:55px;line-height:1.25;font-family:'Microsoft JhengHei';-inkscape-font-specification:'Microsoft JhengHei';white-space:pre;shape-inside:url(#rect6);display:inline" />
    <g
       id="g4"
       transform="translate(6.0470209)">
      <path
         id="rect1"
         style="fill-opacity:0;stroke:#000000;stroke-width:0.927563"
         d="m 15.644095,14.655146 h 12.224482 c 3.863634,0 6.974069,3.110434 6.974069,6.974068 v 22.887408 c 0,3.863634 -3.110435,6.974068 -6.974069,6.974068 H 15.644095 c -3.863634,0 -6.9740682,-3.110434 -6.9740682,-6.974068 V 21.629214 c 0,-3.863634 3.1104342,-6.974068 6.9740682,-6.974068 z" />
      <path
         style="font-size:13.7225px;line-height:1.25;font-family:'AR UDJingXiHeiE1G30 EB';-inkscape-font-specification:'AR UDJingXiHeiE1G30 EB';stroke-width:0.285885"
         d="m 26.710182,26.143679 q 0,2.387715 -1.331083,3.746243 -1.31736,1.344805 -3.609017,1.344805 -2.332825,0 -3.650185,-1.358528 -1.31736,-1.358527 -1.31736,-3.73252 0,-2.41516 1.331082,-3.787409 1.331083,-1.385973 3.636463,-1.385973 2.332825,0 3.636462,1.37225 1.303638,1.37225 1.303638,3.801132 z m -4.9401,3.73252 q 1.495752,0 2.30538,-0.98802 0.82335,-0.98802 0.82335,-2.7445 0,-1.742757 -0.82335,-2.771944 -0.82335,-1.04291 -2.30538,-1.04291 -1.509475,0 -2.346548,1.056632 -0.82335,1.04291 -0.82335,2.758222 0,1.75648 0.837073,2.7445 0.837072,0.98802 2.332825,0.98802 z"
         id="text2"
         aria-label="O" />
      <path
         style="font-size:14.1593px;line-height:1.25;font-family:'AR UDJingXiHeiE1G30 EB';-inkscape-font-specification:'AR UDJingXiHeiE1G30 EB';stroke-width:0.25744"
         d="m 16.928017,36.527438 -1.656638,1.543363 -0.821239,-1.260177 2.661948,-2.421241 h 1.543364 v 10.237174 h -1.727435 z m 8.976986,-0.906195 q -0.764602,0 -1.231859,0.538053 -0.453098,0.523894 -0.453098,1.500886 0,0.934514 0.424779,1.472567 0.438939,0.538053 1.274337,0.552213 0.792921,0 1.23186,-0.509735 0.453097,-0.523894 0.453097,-1.500886 0,-1.01947 -0.438938,-1.529204 -0.438938,-0.523894 -1.260178,-0.523894 z m 0.02832,7.787614 q 0.991151,0 1.472567,-0.821239 0.481416,-0.821239 0.481416,-2.661948 -0.353982,0.566372 -0.962832,0.863717 -0.594691,0.297345 -1.330974,0.297345 -1.444249,0 -2.307966,-0.934513 -0.863718,-0.948674 -0.863718,-2.4354 0,-1.529204 0.934514,-2.506196 0.948673,-0.991151 2.534515,-0.991151 1.883187,0 2.789382,1.231859 0.906195,1.231859 0.906195,3.653099 0,2.973453 -0.892036,4.346905 -0.892036,1.359293 -2.775223,1.359293 -1.642478,0 -2.463718,-0.80708 -0.821239,-0.821239 -0.835398,-1.953983 h 1.741593 q 0.01416,0.59469 0.41062,0.976991 0.396461,0.382301 1.161063,0.382301 z"
         id="text3"
         aria-label="19" />
      <path
         style="font-weight:500;font-size:72px;line-height:1.25;font-family:'Noto Sans TC';-inkscape-font-specification:'Noto Sans TC Medium';white-space:pre"
         d="m 190.97742,84.321406 h 36.072 v 5.904 h -36.072 z m 4.824,23.472004 h 26.712 v 5.688 h -26.712 z m 0,12.024 h 26.712 v 5.76 h -26.712 z m 9.792,-45.144004 h 6.048 v 66.312004 h -6.048 z m -13.464,21.168 h 29.088 v 5.832004 h -22.968 v 39.816 h -6.12 z m 27,0 h 6.336 v 38.664004 q 0,2.16 -0.504,3.528 -0.432,1.44 -1.728,2.232 -1.296,0.792 -3.24,0.936 -1.872,0.216 -4.608,0.216 -0.072,-1.296 -0.576,-3.096 -0.432,-1.728 -1.008,-3.024 1.512,0.072 2.736,0.072 1.296,0 1.8,0 0.504,0 0.648,-0.144 0.144,-0.216 0.144,-0.792 z m -5.256,-18.144 3.744,-3.168 q 2.304,1.44 4.752,3.384 2.448,1.944 3.744,3.456 l -3.96,3.528 q -1.224,-1.584 -3.672,-3.6 -2.376,-2.088 -4.608,-3.6 z m -52.56,4.392 h 28.152 v 5.976 h -28.152 z m -1.008,41.328004 h 30.168 v 5.976 h -30.168 z m 12.24,-48.744004 h 6.12 v 20.304 h -6.12 z m 0.792,20.448 h 4.608 v 20.592004 h 0.72 v 25.848 h -6.12 v -25.848 h 0.792 z m -5.544,12.672004 v 5.544 h 15.84 v -5.544 z m 0,-10.152004 v 5.472004 h 15.84 v -5.472004 z m -4.968,-4.896 h 25.92 v 25.488004 h -25.92 z m 71.352,2.016 h 63.648 v 7.056004 h -63.648 z m 35.856,2.808 q 2.304,8.496004 6.192,15.840004 3.96,7.344 9.648,12.888 5.76,5.472 13.32,8.64 -0.864,0.72 -1.872,1.872 -0.936,1.152 -1.8,2.304 -0.864,1.224 -1.44,2.16 -7.992,-3.744 -13.968,-9.864 -5.904,-6.192 -10.008,-14.328 -4.104,-8.136 -6.912,-17.856004 z m -7.92,-22.896 h 7.416 q 0,5.112 -0.288,11.016 -0.216,5.832 -1.08,12.024 -0.864,6.192004 -2.808,12.384004 -1.944,6.192 -5.4,11.952 -3.456,5.76 -8.856,10.728 -5.4,4.896 -13.176,8.568 -0.864,-1.368 -2.304,-3.024 -1.44,-1.584 -2.88,-2.664 7.488,-3.384 12.6,-7.848 5.184,-4.536 8.352,-9.792 3.24,-5.328 4.968,-11.016 1.728,-5.688 2.448,-11.376004 0.72,-5.688 0.864,-11.016 0.144,-5.328 0.144,-9.936 z"
         id="text4"
         transform="matrix(0.25744134,0,0,0.25744134,-2.1090529,-3.4635139)"
         aria-label="輔大" />
      <path
         style="font-size:7.20836px;line-height:1.25;font-family:'AR UDJingXiHeiE1G30 EB';-inkscape-font-specification:'AR UDJingXiHeiE1G30 EB';stroke-width:0.25744"
         d="m 40.643043,38.446337 v 2.313884 h -0.915461 v -5.211644 h 3.654638 v 0.713627 h -2.739177 v 1.470506 h 2.407593 v 0.713627 z m 7.871536,0.490169 q 0,0.908253 -0.56946,1.412838 -0.569461,0.504586 -1.621881,0.504586 -1.066838,0 -1.643507,-0.497377 -0.56946,-0.497377 -0.56946,-1.412839 v -3.395137 h 0.915462 v 3.351887 q 0,0.591086 0.324376,0.915462 0.324376,0.324376 0.973129,0.324376 0.61271,0 0.937086,-0.309959 0.331585,-0.317168 0.331585,-0.944296 v -3.33747 h 0.92267 z m 3.683468,0.490168 q 0,0.331585 0.165792,0.519002 0.165792,0.187418 0.533418,0.187418 0.360418,0.0072 0.547836,-0.194626 0.187417,-0.209043 0.187417,-0.591086 v -3.798805 h 0.908254 v 3.878097 q 0,0.655961 -0.432502,1.045213 -0.425293,0.382043 -1.218213,0.382043 -0.771294,0 -1.189379,-0.374835 -0.418085,-0.382043 -0.418085,-0.973129 v -0.461335 h 0.915462 z m 7.359732,1.333547 h -3.856473 v -5.211644 h 3.834848 v 0.713627 h -2.919386 v 1.470506 h 2.72476 v 0.713627 h -2.72476 v 1.600256 h 2.941011 z m 1.881386,-3.762764 v 3.762764 h -0.915462 v -5.211644 h 0.944295 l 2.558968,3.849264 v -3.849264 h 0.915462 v 5.211644 h -1.001962 z m 10.956697,1.939049 q 0,0.908253 -0.56946,1.412838 -0.569461,0.504586 -1.621881,0.504586 -1.066837,0 -1.643506,-0.497377 -0.569461,-0.497377 -0.569461,-1.412839 v -3.395137 h 0.915462 v 3.351887 q 0,0.591086 0.324376,0.915462 0.324376,0.324376 0.973129,0.324376 0.612711,0 0.937087,-0.309959 0.331584,-0.317168 0.331584,-0.944296 v -3.33747 h 0.92267 z m 2.076008,-1.939049 v 3.762764 h -0.915461 v -5.211644 h 0.944295 l 2.558968,3.849264 v -3.849264 h 0.915461 v 5.211644 h -1.001962 z m 5.615307,-1.44888 v 5.211644 h -0.915462 v -5.211644 z m 5.348599,0 -1.852548,5.211644 h -1.059629 l -1.838132,-5.211644 h 0.980337 l 1.391213,4.288974 1.412839,-4.288974 z m 4.45477,5.211644 h -3.856473 v -5.211644 h 3.834848 v 0.713627 h -2.919386 v 1.470506 h 2.72476 v 0.713627 h -2.72476 v 1.600256 h 2.941011 z m 4.231314,-3.719514 q 0,-0.382043 -0.201834,-0.576669 -0.201834,-0.201834 -0.583877,-0.201834 h -1.564215 v 1.621881 h 1.513756 q 0.374835,0 0.605502,-0.223459 0.230668,-0.223459 0.230668,-0.619919 z m -2.349926,1.549798 v 2.169716 h -0.915461 v -5.211644 h 2.652676 q 0.713628,0 1.131713,0.382043 0.425293,0.374834 0.425293,1.066837 0,0.454127 -0.216251,0.778503 -0.209042,0.324376 -0.52621,0.461335 0.403668,0.230667 0.619919,0.800128 0.216251,0.56946 0.273918,1.722798 h -0.951504 q -0.04325,-1.211005 -0.266709,-1.686756 -0.216251,-0.48296 -0.699211,-0.48296 z m 6.083863,-0.187418 q -0.951504,-0.173 -1.412839,-0.533418 -0.461335,-0.360418 -0.461335,-1.009171 0,-0.605502 0.490169,-1.001962 0.497376,-0.39646 1.528172,-0.39646 0.944295,0 1.463297,0.403668 0.519002,0.403669 0.569459,1.167755 h -0.91546 q -0.0072,-0.367627 -0.288335,-0.612711 -0.281126,-0.245084 -0.857795,-0.245084 -0.540627,0 -0.800128,0.180209 -0.259501,0.180209 -0.252292,0.504585 0,0.35321 0.346001,0.52621 0.35321,0.173001 1.146129,0.331585 0.994754,0.201834 1.412839,0.547835 0.425291,0.346002 0.425291,1.038004 0,0.663169 -0.56225,1.110088 -0.562252,0.43971 -1.600256,0.43971 -1.059629,0 -1.650714,-0.446919 -0.591086,-0.446918 -0.591086,-1.290296 h 0.915462 q 0,0.468543 0.35321,0.749669 0.353209,0.273918 0.980337,0.273918 0.576668,0 0.901045,-0.223459 0.324376,-0.223459 0.324376,-0.583877 0,-0.418085 -0.324376,-0.598294 -0.324377,-0.180209 -1.138921,-0.331585 z m 4.166433,-2.85451 v 5.211644 h -0.91546 v -5.211644 z m 2.30667,0.713627 h -1.62189 v -0.713627 h 4.15202 v 0.713627 h -1.61467 v 4.498017 h -0.91546 z m 5.15397,1.593048 1.48492,-2.306675 h 1.02359 L 109.937,38.61213 v 2.148091 h -0.91546 V 38.61213 l -2.09043,-3.063553 h 1.04521 z"
         id="text5"
         aria-label="FU JEN UNIVERSITY" />
      <path
         d="m 42.317742,44.209007 h 3.611388 v 0.591085 h -3.611388 z m 0.48296,2.349925 h 2.674301 v 0.569461 h -2.674301 z m 0,1.203796 h 2.674301 v 0.576669 h -2.674301 z m 0.980337,-4.519642 h 0.605502 v 6.6389 h -0.605502 z m -1.347964,2.119258 h 2.912178 v 0.583878 h -2.299467 v 3.986223 h -0.612711 z m 2.703135,0 h 0.634336 v 3.87089 q 0,0.216251 -0.05046,0.353209 -0.04325,0.144168 -0.173001,0.22346 -0.129751,0.07929 -0.324376,0.09371 -0.187418,0.02163 -0.461335,0.02163 -0.0072,-0.12975 -0.05767,-0.309959 -0.04325,-0.173001 -0.100917,-0.302751 0.151375,0.0072 0.273917,0.0072 0.129751,0 0.180209,0 0.05046,0 0.06488,-0.01442 0.01442,-0.02163 0.01442,-0.07929 z M 44.61,43.545838 44.984835,43.22867 q 0.230667,0.144167 0.475752,0.338793 0.245084,0.194625 0.374834,0.346001 l -0.396459,0.35321 Q 45.316419,44.10809 45.071335,43.906256 44.833459,43.697213 44.61,43.545838 Z m -5.262103,0.43971 h 2.818469 v 0.598293 h -2.818469 z m -0.100917,4.137598 h 3.020303 V 48.72144 H 39.24698 Z m 1.225421,-4.88006 h 0.612711 v 2.032758 h -0.612711 z m 0.07929,2.047175 h 0.461335 v 2.061591 h 0.07208 v 2.587801 h -0.612711 v -2.587801 h 0.07929 z m -0.555043,1.268671 v 0.555044 h 1.585839 v -0.555044 z m 0,-1.016379 v 0.547836 h 1.585839 v -0.547836 z m -0.497377,-0.490168 h 2.595009 v 2.551759 h -2.595009 z m 9.551077,-0.619919 h 3.777181 v 0.720836 H 49.05035 Z m -0.403668,4.296183 h 4.4836 v 0.720836 h -4.4836 z m -1.153338,-3.460013 0.670378,-0.670378 0.0072,0.0072 v 5.312561 h -0.677586 z m 0.74967,-2.003924 0.677586,0.21625 q -0.245085,0.627128 -0.583878,1.247047 -0.331584,0.61271 -0.720836,1.160546 -0.389251,0.540627 -0.800128,0.958712 -0.03604,-0.0865 -0.108125,-0.216251 -0.07208,-0.136959 -0.158584,-0.273918 -0.07929,-0.136959 -0.144167,-0.216251 0.367626,-0.353209 0.706419,-0.807336 0.346001,-0.461335 0.634336,-0.987545 0.288334,-0.533419 0.497377,-1.081254 z m 5.608104,1.989507 h 6.37219 v 0.706419 h -6.37219 z m 3.589763,0.281126 q 0.230668,0.850586 0.619919,1.585839 0.39646,0.735253 0.965921,1.290297 0.576668,0.547835 1.333546,0.865003 -0.0865,0.07208 -0.187417,0.187417 -0.09371,0.115334 -0.180209,0.230668 -0.0865,0.122542 -0.144167,0.216251 -0.800128,-0.374835 -1.398422,-0.987546 -0.591086,-0.619919 -1.001962,-1.434463 -0.410877,-0.814545 -0.692003,-1.787674 z m -0.792919,-2.292259 h 0.742461 q 0,0.511794 -0.02883,1.10288 -0.02163,0.583877 -0.108125,1.203796 -0.0865,0.619919 -0.281126,1.239838 -0.194626,0.619919 -0.540627,1.196587 -0.346001,0.576669 -0.886628,1.074046 -0.540627,0.490169 -1.31913,0.857795 -0.0865,-0.136959 -0.230668,-0.302751 -0.144167,-0.158584 -0.288334,-0.266709 0.749669,-0.338793 1.261463,-0.785712 0.519002,-0.454126 0.83617,-0.980337 0.324376,-0.533418 0.497376,-1.102879 0.173001,-0.56946 0.245085,-1.138921 0.07208,-0.56946 0.0865,-1.102879 0.01442,-0.533419 0.01442,-0.994754 z m 5.636937,2.443635 h 3.467221 v 0.598293 h -3.467221 z m -1.239838,1.636297 h 6.408232 v 0.627128 h -6.408232 z m 2.840094,-0.504585 h 0.699211 v 2.349926 q 0,0.281126 -0.0865,0.432501 -0.07929,0.151376 -0.309959,0.230668 -0.223459,0.07208 -0.555044,0.0865 -0.331584,0.02163 -0.814544,0.02163 -0.02883,-0.144167 -0.115334,-0.338793 -0.07929,-0.187417 -0.165793,-0.324376 0.252293,0.0072 0.490169,0.01442 0.245084,0.0072 0.425293,0.0072 0.180209,-0.0072 0.252293,-0.0072 0.108125,-0.0072 0.144167,-0.03604 0.03604,-0.02883 0.03604,-0.108126 z m 1.650714,-1.131712 h 0.165793 l 0.151375,-0.03604 0.432502,0.331584 q -0.245084,0.259501 -0.562252,0.511794 -0.317168,0.252292 -0.670378,0.468543 -0.346001,0.216251 -0.692002,0.382043 -0.06488,-0.09371 -0.180209,-0.209042 -0.108126,-0.122542 -0.194626,-0.194626 0.295543,-0.136959 0.591085,-0.331584 0.302752,-0.194626 0.555044,-0.39646 0.252293,-0.209043 0.403668,-0.39646 z m -4.375474,-1.268672 h 6.184773 v 1.679548 H 66.67479 v -1.074046 h -4.865643 v 1.074046 h -0.648752 z m 5.081894,-1.131712 0.728044,0.230667 q -0.237876,0.346001 -0.504585,0.684794 -0.26671,0.338793 -0.490169,0.576669 l -0.547835,-0.216251 q 0.144167,-0.173 0.295543,-0.396459 0.151375,-0.22346 0.288334,-0.454127 0.144167,-0.230668 0.230668,-0.425293 z m -4.591726,0.295542 0.576669,-0.259501 q 0.201834,0.216251 0.39646,0.490169 0.194626,0.273918 0.281126,0.48296 l -0.605502,0.295543 q -0.0865,-0.209043 -0.273918,-0.490169 -0.187417,-0.281126 -0.374835,-0.519002 z m 1.838132,-0.151375 0.598294,-0.223459 q 0.173001,0.245084 0.338793,0.555043 0.173,0.302752 0.237876,0.526211 l -0.634336,0.252292 q -0.05767,-0.230667 -0.216251,-0.540627 -0.151375,-0.317168 -0.324376,-0.56946 z"
         id="text5-9"
         style="font-weight:500;font-size:7.20836px;line-height:1.25;font-family:'Noto Sans JP';-inkscape-font-specification:'Noto Sans JP Medium';stroke-width:0.25744"
         aria-label="輔仁大学" />
      <path
         style="font-weight:500;font-size:7.20836px;line-height:1.25;font-family:'Noto Sans KR';-inkscape-font-specification:'Noto Sans KR Medium';stroke-width:0.25744"
         d="m 76.695269,43.753852 h 4.865643 v 0.605502 h -4.865643 z m 0.03604,2.263425 h 4.79356 v 0.605502 h -4.79356 z m 0.886628,-1.780465 h 0.756878 v 2.104841 h -0.756878 z m 2.263425,0 h 0.756878 v 2.104841 h -0.756878 z m -3.741138,3.049136 h 5.968522 v 0.619919 h -5.968522 z m 2.602218,0.273918 h 0.756877 V 50.0035 h -0.756877 z m 4.296183,-0.785711 h 0.519002 q 0.634335,0 1.117296,-0.0072 0.490168,-0.01442 0.915461,-0.05046 0.432502,-0.04325 0.872212,-0.115334 l 0.06488,0.612711 q -0.454127,0.07208 -0.893837,0.115333 -0.43971,0.03604 -0.937086,0.05046 -0.497377,0.0072 -1.138921,0.0072 h -0.519002 z m -0.01442,-2.904969 h 2.948219 v 2.011132 h -2.184133 v 1.290297 h -0.749669 v -1.866966 h 2.184133 v -0.828961 h -2.19855 z m 4.454767,-0.446919 h 0.756877 v 4.844018 h -0.756877 z m -3.546514,5.838772 h 4.490809 v 0.612711 h -4.490809 z m 0,-1.369588 h 0.756878 v 1.564214 h -0.756878 z m 2.407593,-2.818469 h 1.311921 v 0.648752 h -1.311921 z m 9.983584,-1.657923 h 0.720836 V 50.0035 H 96.32364 Z m -1.00917,2.59501 h 1.196588 v 0.619919 H 95.31447 Z m -0.475752,-2.458051 h 0.706419 v 6.127106 h -0.706419 z m -3.193304,4.267349 h 0.43971 q 0.454127,0 0.83617,-0.01442 0.382043,-0.01442 0.742461,-0.05046 0.367627,-0.04325 0.74967,-0.115334 l 0.07208,0.619919 q -0.39646,0.07929 -0.771294,0.122542 -0.374835,0.03604 -0.771295,0.05046 -0.389251,0.01442 -0.857795,0.01442 h -0.43971 z m 0,-3.618597 h 2.436426 v 0.612711 h -1.693965 v 3.29422 h -0.742461 z m 6.42265,-0.136959 h 3.885306 v 0.598294 h -3.885306 z m 1.946256,0.87942 q 0.46854,0 0.82896,0.151376 0.36042,0.151375 0.56225,0.425293 0.20184,0.266709 0.20184,0.627127 0,0.360418 -0.20184,0.634336 -0.20183,0.266709 -0.56225,0.418085 -0.36042,0.144167 -0.82896,0.144167 -0.475751,0 -0.836169,-0.144167 -0.360418,-0.151376 -0.562252,-0.418085 -0.201834,-0.273918 -0.201834,-0.634336 0,-0.360418 0.201834,-0.627127 0.201834,-0.273918 0.562252,-0.425293 0.360418,-0.151376 0.836169,-0.151376 z m 0,0.583877 q -0.396459,0 -0.641543,0.165793 -0.237876,0.158584 -0.237876,0.454126 0,0.288335 0.237876,0.454127 0.245084,0.165792 0.641543,0.165792 0.38925,0 0.62713,-0.165792 0.23787,-0.165792 0.23787,-0.454127 0,-0.295542 -0.23787,-0.454126 -0.23788,-0.165793 -0.62713,-0.165793 z m 2.43643,-2.104841 h 0.74967 v 4.123182 h -0.74967 z m 0.54783,1.75884 h 1.13171 v 0.627127 h -1.13171 z m -4.12318,2.68151 h 4.32502 v 2.148091 h -0.74967 V 48.468119 H 98.8754 Z m 0.756878,-4.476392 h 0.756882 v 1.016379 h -0.756882 z m 5.658562,0.648753 h 4.20968 v 0.61271 h -4.20968 z m -0.59829,4.490808 h 5.9541 v 0.619919 h -5.9541 z m 1.36958,-2.133674 h 0.74247 v 2.342717 h -0.74247 z m 3.20773,-2.357134 h 0.74966 v 0.684794 q 0,0.410877 -0.007,0.857795 -0.007,0.446918 -0.0577,0.96592 -0.0433,0.519002 -0.15858,1.160546 l -0.74967,-0.07929 q 0.16579,-0.908253 0.19462,-1.600256 0.0288,-0.699211 0.0288,-1.304713 z m -1.57864,2.357134 h 0.74247 v 2.342717 h -0.74247 z"
         id="text5-9-8"
         aria-label="푸런 대학교" />
    </g>
  </g>
</svg>
