<?xml version="1.0" encoding="UTF-8" standalone="no"?>
<!-- Created with Inkscape (http://www.inkscape.org/) -->

<svg
   width="500"
   height="250"
   viewBox="0 0 132.29166 66.145833"
   version="1.1"
   id="svg1"
   inkscape:version="1.3.2 (091e20e, 2023-11-25, custom)"
   sodipodi:docname="o20.svg"
   xmlns:inkscape="http://www.inkscape.org/namespaces/inkscape"
   xmlns:sodipodi="http://sodipodi.sourceforge.net/DTD/sodipodi-0.dtd"
   xmlns="http://www.w3.org/2000/svg"
   xmlns:svg="http://www.w3.org/2000/svg">
  <sodipodi:namedview
     id="namedview1"
     pagecolor="#9e652e"
     bordercolor="#ffffff"
     borderopacity="1"
     inkscape:showpageshadow="0"
     inkscape:pageopacity="0"
     inkscape:pagecheckerboard="false"
     inkscape:deskcolor="#d1d1d1"
     inkscape:document-units="mm"
     inkscape:zoom="2.0208096"
     inkscape:cx="221.4459"
     inkscape:cy="117.27973"
     inkscape:window-width="1920"
     inkscape:window-height="1009"
     inkscape:window-x="1912"
     inkscape:window-y="-8"
     inkscape:window-maximized="1"
     inkscape:current-layer="layer1"
     showguides="true">
    <sodipodi:guide
       position="142.71301,-1.1518642"
       orientation="1,0"
       id="guide4"
       inkscape:locked="false" />
  </sodipodi:namedview>
  <defs
     id="defs1">
    <rect
       x="560.66638"
       y="34.144731"
       width="279.32397"
       height="128.59143"
       id="rect6" />
    <rect
       x="157.85752"
       y="62.351248"
       width="329.07603"
       height="135.09437"
       id="rect4" />
    <rect
       x="157.85751"
       y="62.35125"
       width="329.07602"
       height="135.09438"
       id="rect4-5" />
    <rect
       x="157.85751"
       y="62.35125"
       width="329.07602"
       height="135.09438"
       id="rect4-5-7" />
    <rect
       x="157.85751"
       y="62.35125"
       width="462.90293"
       height="131.58831"
       id="rect4-5-0" />
    <rect
       x="157.85751"
       y="62.35125"
       width="329.07602"
       height="135.09438"
       id="rect4-5-79" />
  </defs>
  <g
     inkscape:label="Layer 1"
     inkscape:groupmode="layer"
     id="layer1">
    <path
       id="rect5"
       style="fill:#f4eed7;stroke-width:0.953294"
       d="M -2.5431316e-6,-1.2715658e-6 H 132.29167 V 66.145835 H -2.5431316e-6 Z" />
    <text
       xml:space="preserve"
       transform="matrix(0.31615295,0,0,0.31615295,-10.474341,-6.4462013)"
       id="text6"
       style="font-size:55px;line-height:1.25;font-family:'Microsoft JhengHei';-inkscape-font-specification:'Microsoft JhengHei';white-space:pre;shape-inside:url(#rect6);display:inline" />
    <g
       id="g4"
       transform="translate(24.309401)">
      <path
         id="rect1"
         style="fill-opacity:0;stroke:#000000;stroke-width:0.927563"
         d="m 15.644095,14.655146 h 12.224482 c 3.863634,0 6.974069,3.110434 6.974069,6.974068 v 22.887408 c 0,3.863634 -3.110435,6.974068 -6.974069,6.974068 H 15.644095 c -3.863634,0 -6.9740682,-3.110434 -6.9740682,-6.974068 V 21.629214 c 0,-3.863634 3.1104342,-6.974068 6.9740682,-6.974068 z" />
      <path
         style="font-size:13.7225px;line-height:1.25;font-family:'AR UDJingXiHeiE1G30 EB';-inkscape-font-specification:'AR UDJingXiHeiE1G30 EB';stroke-width:0.285885"
         d="m 26.710182,26.143679 q 0,2.387715 -1.331083,3.746243 -1.31736,1.344805 -3.609017,1.344805 -2.332825,0 -3.650185,-1.358528 -1.31736,-1.358527 -1.31736,-3.73252 0,-2.41516 1.331082,-3.787409 1.331083,-1.385973 3.636463,-1.385973 2.332825,0 3.636462,1.37225 1.303638,1.37225 1.303638,3.801132 z m -4.9401,3.73252 q 1.495752,0 2.30538,-0.98802 0.82335,-0.98802 0.82335,-2.7445 0,-1.742757 -0.82335,-2.771944 -0.82335,-1.04291 -2.30538,-1.04291 -1.509475,0 -2.346548,1.056632 -0.82335,1.04291 -0.82335,2.758222 0,1.75648 0.837073,2.7445 0.837072,0.98802 2.332825,0.98802 z"
         id="text2"
         aria-label="O" />
      <path
         style="font-size:14.1593px;line-height:1.25;font-family:'AR UDJingXiHeiE1G30 EB';-inkscape-font-specification:'AR UDJingXiHeiE1G30 EB';stroke-width:0.25744"
         d="m 14.181113,37.631863 q 0,-1.585841 0.962832,-2.492037 0.962833,-0.920354 2.520356,-0.920354 1.600001,0 2.492037,0.80708 0.906195,0.792921 0.906195,2.208851 0,1.00531 -0.651328,2.02478 -0.637168,1.00531 -2.010621,2.22301 l -1.925664,1.741594 h 4.559294 v 1.40177 h -6.895579 v -1.288496 l 2.860179,-2.576993 q 1.260177,-1.146903 1.755753,-1.953983 0.509735,-0.821239 0.509735,-1.571682 0,-0.707965 -0.41062,-1.146904 -0.41062,-0.438938 -1.189381,-0.438938 -0.778762,0 -1.260178,0.538054 -0.481416,0.538053 -0.481416,1.444248 z m 15.37699,1.953984 q 0,2.676107 -0.863718,3.950444 -0.863717,1.274337 -2.676107,1.274337 -1.755754,0 -2.661949,-1.274337 -0.906195,-1.274337 -0.906195,-3.950444 0,-2.860179 0.863717,-4.106197 0.863718,-1.260178 2.704427,-1.260178 1.798231,0 2.661948,1.260178 0.877877,1.246018 0.877877,4.106197 z m -3.539825,3.82301 q 0.906195,0 1.330974,-0.892035 0.424779,-0.906196 0.424779,-2.930975 0,-2.180533 -0.41062,-3.072569 -0.39646,-0.892035 -1.345133,-0.892035 -0.948674,0 -1.359293,0.906195 -0.41062,0.892036 -0.41062,3.058409 0,2.01062 0.424779,2.916815 0.424779,0.906195 1.345134,0.906195 z"
         id="text3"
         aria-label="20" />
      <path
         style="font-weight:500;font-size:72px;line-height:1.25;font-family:'Noto Sans TC';-inkscape-font-specification:'Noto Sans TC Medium';white-space:pre"
         d="m 175.42542,78.129406 h 38.16 v 6.336 h -38.16 z m -13.896,27.792004 h 64.8 v 6.48 h -64.8 z m 10.152,-27.792004 h 6.768 v 24.768004 q 0,4.536 -0.504,9.72 -0.432,5.112 -1.8,10.368 -1.296,5.256 -3.96,10.08 -2.664,4.752 -7.056,8.568 -0.504,-0.72 -1.44,-1.656 -0.864,-0.936 -1.872,-1.872 -1.008,-0.864 -1.728,-1.296 3.888,-3.456 6.264,-7.632 2.376,-4.248 3.456,-8.712 1.152,-4.536 1.512,-9 0.36,-4.536 0.36,-8.64 z m 38.304,0 h 6.912 v 55.008004 q 0,3.168 -0.936,4.824 -0.864,1.656 -3.024,2.448 -2.16,0.792 -5.832,1.008 -3.6,0.216 -9.144,0.216 -0.216,-0.936 -0.648,-2.16 -0.36,-1.224 -0.864,-2.448 -0.504,-1.224 -1.008,-2.088 2.664,0.144 5.184,0.216 2.592,0 4.536,0 1.944,-0.072 2.736,-0.072 1.152,-0.072 1.584,-0.432 0.504,-0.432 0.504,-1.584 z m -25.416,13.032 4.824,-3.816 q 2.376,1.728 4.968,3.888 2.592,2.16 4.896,4.32 2.304,2.088 3.744,3.816 l -5.184,4.320004 q -1.368,-1.728 -3.6,-3.888004 -2.232,-2.232 -4.752,-4.464 -2.52,-2.304 -4.896,-4.176 z m 58.896,-13.176 h 44.352 v 5.832 h -44.352 z m 4.896,8.856 h 34.704 v 4.248 h -34.704 z m 2.088,34.344004 h 28.944 v 3.888 h -28.944 z m 3.816,-6.768 h 29.52 v 3.888 h -29.52 z m 0,-13.176 h 22.104 v 3.528 h -22.104 z m -14.472,-23.256004 h 6.48 v 19.512 q 0,4.752004 -0.288,10.440004 -0.288,5.688 -1.224,11.664 -0.864,5.976 -2.664,11.592 -1.728,5.616 -4.608,10.296 -0.576,-0.576 -1.584,-1.296 -1.008,-0.72 -2.16,-1.44 -1.08,-0.648 -1.872,-1.008 2.736,-4.392 4.32,-9.504 1.584,-5.112 2.376,-10.512 0.792,-5.4 1.008,-10.584 0.216,-5.184 0.216,-9.648004 z m 45.288,0 h 6.624 q -0.072,6.624 -0.072,13.32 0,6.696 0.072,13.032004 0.072,6.264 0.288,11.736 0.216,5.4 0.648,9.504 0.432,4.032 1.008,6.336 0.648,2.304 1.584,2.304 0.432,0 0.648,-1.44 0.288,-1.44 0.432,-3.816 0.216,-2.448 0.216,-5.472 0.864,1.368 1.944,2.808 1.08,1.44 1.944,2.304 -0.288,4.464 -0.936,7.272 -0.576,2.88 -1.8,4.248 -1.152,1.368 -3.096,1.368 -2.52,0 -4.248,-2.376 -1.656,-2.376 -2.664,-6.768 -1.008,-4.392 -1.584,-10.296 -0.504,-5.976 -0.72,-13.032 -0.144,-7.128 -0.216,-14.976004 0,-7.92 -0.072,-16.056 z m -22.968,11.088 6.768,0.576 q -0.792,1.944 -1.728,3.816 -0.936,1.8 -1.656,3.096 l -4.896,-0.936 q 0.432,-1.584 0.864,-3.384 0.504,-1.8 0.648,-3.168 z m -11.664,5.4 h 6.12 v 28.008004 h -6.12 z m 3.6,0 h 25.776 v 17.136004 h -25.776 v -3.816 h 19.728 v -9.432004 h -19.728 z m 24.552,26.712004 h 5.76 q 0,0 -0.072,0.792 0,0.792 -0.072,1.368 -0.216,4.968 -0.576,8.136 -0.36,3.168 -0.864,4.896 -0.432,1.728 -1.152,2.592 -0.864,0.864 -1.872,1.296 -1.008,0.432 -2.304,0.504 -1.008,0.072 -2.952,0.072 -1.872,0 -3.96,-0.072 -0.072,-1.08 -0.432,-2.376 -0.36,-1.296 -0.936,-2.304 1.872,0.216 3.384,0.216 1.512,0.072 2.232,0.072 1.296,0 1.944,-0.576 0.648,-0.72 1.08,-3.744 0.432,-3.096 0.792,-10.08 z m -29.808,5.832 4.248,1.584 q -0.936,3.096 -2.592,6.12 -1.656,3.024 -4.248,4.968 l -4.032,-2.664 q 2.448,-1.8 4.104,-4.464 1.656,-2.736 2.52,-5.544 z m 5.832,1.08 3.96,-0.432 q 0.504,2.376 0.72,5.184 0.288,2.736 0.216,4.752 l -4.176,0.504 q 0.144,-2.016 -0.072,-4.824 -0.144,-2.808 -0.648,-5.184 z m 6.624,0.072 3.744,-0.936 q 0.936,1.944 1.728,4.32 0.792,2.304 1.08,4.032 l -4.032,1.08 q -0.216,-1.728 -0.936,-4.104 -0.72,-2.448 -1.584,-4.392 z m 6.912,-0.432 3.456,-1.368 q 1.296,1.44 2.376,3.24 1.152,1.728 1.656,3.096 l -3.672,1.584 q -0.432,-1.44 -1.512,-3.24 -1.08,-1.8 -2.304,-3.312 z"
         id="text4"
         transform="matrix(0.25744134,0,0,0.25744134,-2.1090529,-3.4635139)"
         aria-label="丹鳳" />
      <path
         style="font-size:7.20836px;line-height:1.25;font-family:'AR UDJingXiHeiE1G30 EB';-inkscape-font-specification:'AR UDJingXiHeiE1G30 EB';stroke-width:0.25744"
         d="m 44.167931,38.093128 q 0,1.297505 -0.61271,1.982299 -0.605502,0.684794 -1.693965,0.684794 h -2.133674 v -5.211644 h 2.133674 q 1.088463,0 1.693965,0.641544 0.61271,0.641544 0.61271,1.903007 z m -0.951503,0 q 0,-0.944295 -0.389252,-1.384005 -0.382043,-0.446919 -1.117295,-0.446919 h -1.066838 v 3.784389 h 1.074046 q 0.706419,0 1.102879,-0.468543 0.39646,-0.468543 0.39646,-1.484922 z m 4.728678,0.562252 -0.821753,-2.227383 -0.83617,2.227383 z m -1.924632,0.713627 -0.519002,1.391214 h -0.929878 l 2.097633,-5.211644 h 0.937086 l 2.083217,5.211644 h -0.951504 l -0.52621,-1.391214 z m 5.182804,-2.37155 v 3.762764 h -0.915461 v -5.211644 h 0.944295 l 2.558968,3.849264 v -3.849264 h 0.915461 v 5.211644 h -1.001962 z m 5.615308,1.44888 v 2.313884 h -0.915462 v -5.211644 h 3.654639 v 0.713627 h -2.739177 v 1.470506 h 2.407592 v 0.713627 z m 7.359743,2.313884 h -3.856473 v -5.211644 h 3.834848 v 0.713627 h -2.919386 v 1.470506 h 2.72476 v 0.713627 h -2.72476 v 1.600256 h 2.941011 z m 1.881386,-3.762764 v 3.762764 h -0.915462 v -5.211644 h 0.944296 l 2.558967,3.849264 v -3.849264 h 0.915462 v 5.211644 h -1.001962 z m 8.527484,3.128428 q -0.266709,0.374835 -0.670377,0.555044 -0.39646,0.173001 -0.908253,0.173001 -1.124505,0 -1.787674,-0.70642 -0.663169,-0.713627 -0.663169,-1.989507 0,-1.283088 0.699211,-1.989507 0.699211,-0.70642 1.88859,-0.70642 0.958712,0 1.557006,0.43971 0.605503,0.432502 0.728045,1.239838 h -0.915462 q -0.07208,-0.425293 -0.425293,-0.692002 -0.346002,-0.273918 -0.944296,-0.273918 -0.800128,0 -1.218212,0.519002 -0.418085,0.511793 -0.418085,1.463297 0,1.016379 0.43971,1.499339 0.43971,0.475752 1.196587,0.475752 0.66317,0 1.052421,-0.389252 0.389251,-0.389251 0.389251,-0.893836 V 38.74188 h -1.477713 v -0.713628 h 2.357133 v 2.731969 h -0.87942 z"
         id="text5"
         aria-label="DANFENG" />
      <path
         d="m 40.760736,43.589088 h 3.820431 v 0.634335 h -3.820431 z m -1.391214,2.782427 h 6.487524 v 0.648752 h -6.487524 z m 1.016379,-2.782427 h 0.677586 v 2.479676 q 0,0.454126 -0.05046,0.973128 -0.04325,0.511794 -0.180209,1.038004 -0.12975,0.52621 -0.396459,1.009171 -0.26671,0.475751 -0.70642,0.857794 -0.05046,-0.07208 -0.144167,-0.165792 -0.0865,-0.09371 -0.187417,-0.187417 -0.100917,-0.0865 -0.173001,-0.129751 0.389252,-0.346001 0.627127,-0.764086 0.237876,-0.425293 0.346002,-0.872211 0.115333,-0.454127 0.151375,-0.901046 0.03604,-0.454126 0.03604,-0.865003 z m 3.834848,0 h 0.692002 v 5.507187 q 0,0.317168 -0.09371,0.48296 -0.0865,0.165792 -0.302752,0.245084 -0.21625,0.07929 -0.583877,0.100917 -0.360418,0.02163 -0.915461,0.02163 -0.02163,-0.09371 -0.06488,-0.21625 -0.03604,-0.122543 -0.0865,-0.245085 -0.05046,-0.122542 -0.100917,-0.209042 0.266709,0.01442 0.519002,0.02162 0.259501,0 0.454127,0 0.194625,-0.0072 0.273917,-0.0072 0.115334,-0.0072 0.158584,-0.04325 0.05046,-0.04325 0.05046,-0.158583 z m -2.544551,1.304713 0.48296,-0.382043 q 0.237876,0.173 0.497377,0.389251 0.2595,0.216251 0.490168,0.432502 0.230668,0.209042 0.374835,0.382043 l -0.519002,0.432502 q -0.136959,-0.173001 -0.360418,-0.389252 -0.223459,-0.223459 -0.475752,-0.446918 -0.252293,-0.230668 -0.490168,-0.418085 z m 5.896438,-1.31913 h 4.44035 v 0.583877 h -4.44035 z m 0.490169,0.886628 h 3.474429 v 0.425294 h -3.474429 z m 0.209042,3.438388 h 2.897761 v 0.389252 h -2.897761 z m 0.382043,-0.677586 h 2.955428 v 0.389252 H 48.65389 Z m 0,-1.31913 h 2.212967 v 0.35321 H 48.65389 Z m -1.44888,-2.3283 h 0.648752 v 1.953466 q 0,0.475751 -0.02883,1.045212 -0.02883,0.56946 -0.122542,1.167754 -0.0865,0.598294 -0.26671,1.160546 -0.173,0.562252 -0.461335,1.030796 -0.05767,-0.05767 -0.158584,-0.129751 -0.100917,-0.07208 -0.21625,-0.144167 -0.108126,-0.06488 -0.187418,-0.100917 0.273918,-0.43971 0.432502,-0.951504 0.158584,-0.511793 0.237876,-1.05242 0.07929,-0.540627 0.100917,-1.059629 0.02163,-0.519002 0.02163,-0.96592 z m 4.534058,0 h 0.66317 q -0.0072,0.663169 -0.0072,1.333547 0,0.670377 0.0072,1.304713 0.0072,0.627127 0.02883,1.174963 0.02163,0.540627 0.06488,0.951503 0.04325,0.403668 0.100917,0.634336 0.06488,0.230667 0.158584,0.230667 0.04325,0 0.06488,-0.144167 0.02883,-0.144167 0.04325,-0.382043 0.02163,-0.245084 0.02163,-0.547835 0.0865,0.136958 0.194625,0.281126 0.108126,0.144167 0.194626,0.230667 -0.02883,0.446919 -0.09371,0.728045 -0.05767,0.288334 -0.180209,0.425293 -0.115333,0.136959 -0.309959,0.136959 -0.252293,0 -0.425293,-0.237876 -0.165793,-0.237876 -0.26671,-0.677586 -0.100917,-0.43971 -0.158584,-1.030796 -0.05046,-0.598293 -0.07208,-1.304713 -0.01442,-0.713627 -0.02163,-1.499339 0,-0.792919 -0.0072,-1.607464 z m -2.299467,1.110087 0.677586,0.05767 q -0.07929,0.194626 -0.173,0.382043 -0.09371,0.180209 -0.165793,0.30996 l -0.490168,-0.09371 q 0.04325,-0.158584 0.0865,-0.338793 0.05046,-0.180209 0.06488,-0.317168 z m -1.167754,0.540627 h 0.612711 v 2.804053 h -0.612711 z m 0.360418,0 h 2.580593 v 1.71559 h -2.580593 v -0.382043 h 1.975091 v -0.944295 h -1.975091 z m 2.458051,2.674302 h 0.576669 q 0,0 -0.0072,0.07929 0,0.07929 -0.0072,0.136959 -0.02163,0.497377 -0.05767,0.814545 -0.03604,0.317167 -0.0865,0.490168 -0.04325,0.173001 -0.115334,0.259501 -0.0865,0.0865 -0.187417,0.129751 -0.100917,0.04325 -0.230668,0.05046 -0.100917,0.0072 -0.295543,0.0072 -0.187417,0 -0.396459,-0.0072 -0.0072,-0.108125 -0.04325,-0.237876 -0.03604,-0.12975 -0.09371,-0.230667 0.187417,0.02163 0.338793,0.02163 0.151375,0.0072 0.223459,0.0072 0.12975,0 0.194626,-0.05767 0.06488,-0.07208 0.108125,-0.374834 0.04325,-0.30996 0.07929,-1.009171 z m -2.984261,0.583877 0.425293,0.158584 q -0.09371,0.30996 -0.259501,0.612711 -0.165792,0.302751 -0.425293,0.497377 l -0.403668,-0.26671 q 0.245084,-0.180209 0.410876,-0.446918 0.165793,-0.273918 0.252293,-0.555044 z m 0.583877,0.108126 0.39646,-0.04325 q 0.05046,0.237875 0.07208,0.519001 0.02883,0.273918 0.02163,0.475752 l -0.418085,0.05046 q 0.01442,-0.201834 -0.0072,-0.48296 -0.01442,-0.281126 -0.06488,-0.519002 z m 0.663169,0.0072 0.374835,-0.09371 q 0.09371,0.194626 0.173001,0.432502 0.07929,0.230668 0.108125,0.403668 l -0.403668,0.108126 q -0.02163,-0.173001 -0.09371,-0.410877 -0.07208,-0.245084 -0.158584,-0.43971 z m 0.692003,-0.04325 0.346001,-0.136959 q 0.12975,0.144167 0.237876,0.324376 0.115334,0.173001 0.165792,0.30996 l -0.367626,0.158584 q -0.04325,-0.144168 -0.151376,-0.324377 -0.108125,-0.180209 -0.230667,-0.331584 z"
         id="text5-9"
         style="font-weight:500;font-size:7.20836px;line-height:1.25;font-family:'Noto Sans JP';-inkscape-font-specification:'Noto Sans JP Medium';stroke-width:0.25744"
         aria-label="丹鳳" />
      <path
         style="font-weight:500;font-size:7.20836px;line-height:1.25;font-family:'Noto Sans KR';-inkscape-font-specification:'Noto Sans KR Medium';stroke-width:0.25744"
         d="m 66.249811,43.415059 h 0.74967 v 4.771934 h -0.74967 z m 0.533419,1.88859 h 1.153338 v 0.619919 H 66.78323 Z m -4.649392,1.138921 h 0.533418 q 0.692003,0 1.196588,-0.01442 0.511794,-0.01442 0.929879,-0.05767 0.418085,-0.05046 0.83617,-0.136959 l 0.07929,0.605502 q -0.425293,0.0865 -0.857794,0.136959 -0.432502,0.04325 -0.958712,0.06488 -0.519002,0.02163 -1.225422,0.02163 h -0.533418 z m 0,-2.479676 h 2.926594 v 0.612711 h -2.169716 v 2.19855 h -0.756878 z m 0.699211,5.298145 h 4.44035 v 0.612711 h -4.44035 z m 0,-1.564214 h 0.756878 v 1.859757 h -0.756878 z m 9.291577,-2.587801 h 1.499339 v 0.61271 h -1.499339 z m -3.452805,-1.211005 h 3.488846 v 0.612711 h -3.488846 z m -0.09371,3.193304 -0.07929,-0.619919 q 0.569461,0 1.23263,-0.0072 0.670378,-0.01442 1.36238,-0.04325 0.699211,-0.03604 1.326338,-0.108125 l 0.05046,0.547835 q -0.648753,0.108125 -1.333547,0.158584 -0.684794,0.05046 -1.347963,0.06488 -0.655961,0.0072 -1.211005,0.0072 z m 0.684795,-2.717552 h 0.735252 v 2.306675 h -0.735252 z m 1.571422,0 h 0.735253 v 2.306675 h -0.735253 z m 2.357134,-0.951504 h 0.756878 v 3.979015 h -0.756878 z m -1.434464,4.108766 q 1.030796,0 1.621881,0.324376 0.598294,0.317168 0.598294,0.908253 0,0.583877 -0.598294,0.908254 -0.591085,0.324376 -1.621881,0.324376 -1.030795,0 -1.629089,-0.324376 -0.598294,-0.324377 -0.598294,-0.908254 0,-0.591085 0.598294,-0.908253 0.598294,-0.324376 1.629089,-0.324376 z m 0,0.583877 q -0.468543,0 -0.800128,0.07929 -0.331584,0.07208 -0.504585,0.21625 -0.165792,0.144168 -0.165792,0.35321 0,0.209043 0.165792,0.360418 0.173001,0.144167 0.504585,0.216251 0.331585,0.07208 0.800128,0.07208 0.468544,0 0.79292,-0.07208 0.331584,-0.07208 0.504585,-0.216251 0.173001,-0.151375 0.173001,-0.360418 0,-0.209042 -0.173001,-0.35321 -0.173001,-0.144167 -0.504585,-0.21625 -0.324376,-0.07929 -0.79292,-0.07929 z"
         id="text5-9-8"
         aria-label="단펑" />
    </g>
  </g>
</svg>
