<?xml version="1.0" encoding="UTF-8" standalone="no"?>
<!-- Created with Inkscape (http://www.inkscape.org/) -->

<svg
   width="500"
   height="250"
   viewBox="0 0 132.29166 66.145833"
   version="1.1"
   id="svg1"
   inkscape:version="1.3.2 (091e20e, 2023-11-25, custom)"
   sodipodi:docname="o21.svg"
   xmlns:inkscape="http://www.inkscape.org/namespaces/inkscape"
   xmlns:sodipodi="http://sodipodi.sourceforge.net/DTD/sodipodi-0.dtd"
   xmlns="http://www.w3.org/2000/svg"
   xmlns:svg="http://www.w3.org/2000/svg">
  <sodipodi:namedview
     id="namedview1"
     pagecolor="#9e652e"
     bordercolor="#ffffff"
     borderopacity="1"
     inkscape:showpageshadow="0"
     inkscape:pageopacity="0"
     inkscape:pagecheckerboard="false"
     inkscape:deskcolor="#d1d1d1"
     inkscape:document-units="mm"
     inkscape:zoom="2.0208096"
     inkscape:cx="241.23995"
     inkscape:cy="117.27973"
     inkscape:window-width="1920"
     inkscape:window-height="1009"
     inkscape:window-x="1912"
     inkscape:window-y="-8"
     inkscape:window-maximized="1"
     inkscape:current-layer="layer1"
     showguides="true">
    <sodipodi:guide
       position="142.71301,-1.1518642"
       orientation="1,0"
       id="guide4"
       inkscape:locked="false" />
  </sodipodi:namedview>
  <defs
     id="defs1">
    <rect
       x="560.66638"
       y="34.144731"
       width="279.32397"
       height="128.59143"
       id="rect6" />
    <rect
       x="157.85752"
       y="62.351248"
       width="329.07603"
       height="135.09437"
       id="rect4" />
    <rect
       x="157.85751"
       y="62.35125"
       width="329.07602"
       height="135.09438"
       id="rect4-5" />
    <rect
       x="157.85751"
       y="62.35125"
       width="329.07602"
       height="135.09438"
       id="rect4-5-7" />
    <rect
       x="157.85751"
       y="62.35125"
       width="462.90293"
       height="131.58831"
       id="rect4-5-0" />
    <rect
       x="157.85751"
       y="62.35125"
       width="329.07602"
       height="135.09438"
       id="rect4-5-79" />
    <rect
       x="157.85751"
       y="62.35125"
       width="329.07602"
       height="135.09438"
       id="rect4-5-2" />
  </defs>
  <g
     inkscape:label="Layer 1"
     inkscape:groupmode="layer"
     id="layer1">
    <rect
       style="fill:#f4eed7;fill-opacity:1;stroke:none;stroke-width:0.953294;stroke-dasharray:none"
       id="rect5"
       width="132.29167"
       height="66.145836"
       x="-2.5431316e-06"
       y="-1.2715658e-06"
       ry="0" />
    <text
       xml:space="preserve"
       transform="matrix(0.31615295,0,0,0.31615295,-10.474341,-6.4462013)"
       id="text6"
       style="font-size:55px;line-height:1.25;font-family:'Microsoft JhengHei';-inkscape-font-specification:'Microsoft JhengHei';white-space:pre;shape-inside:url(#rect6);display:inline" />
    <g
       id="g5"
       transform="translate(-13.325013)">
      <g
         id="g4"
         transform="translate(24.309401)">
        <path
           id="rect1"
           style="fill-opacity:0;stroke:#000000;stroke-width:0.927563"
           d="m 15.644095,14.655146 h 12.224482 c 3.863634,0 6.974069,3.110434 6.974069,6.974068 v 22.887408 c 0,3.863634 -3.110435,6.974068 -6.974069,6.974068 H 15.644095 c -3.863634,0 -6.9740682,-3.110434 -6.9740682,-6.974068 V 21.629214 c 0,-3.863634 3.1104342,-6.974068 6.9740682,-6.974068 z" />
        <path
           style="font-size:13.7225px;line-height:1.25;font-family:'AR UDJingXiHeiE1G30 EB';-inkscape-font-specification:'AR UDJingXiHeiE1G30 EB';stroke-width:0.285885"
           d="m 26.710182,26.143679 q 0,2.387715 -1.331083,3.746243 -1.31736,1.344805 -3.609017,1.344805 -2.332825,0 -3.650185,-1.358528 -1.31736,-1.358527 -1.31736,-3.73252 0,-2.41516 1.331082,-3.787409 1.331083,-1.385973 3.636463,-1.385973 2.332825,0 3.636462,1.37225 1.303638,1.37225 1.303638,3.801132 z m -4.9401,3.73252 q 1.495752,0 2.30538,-0.98802 0.82335,-0.98802 0.82335,-2.7445 0,-1.742757 -0.82335,-2.771944 -0.82335,-1.04291 -2.30538,-1.04291 -1.509475,0 -2.346548,1.056632 -0.82335,1.04291 -0.82335,2.758222 0,1.75648 0.837073,2.7445 0.837072,0.98802 2.332825,0.98802 z"
           id="text2"
           aria-label="O" />
        <path
           style="font-size:14.1593px;line-height:1.25;font-family:'AR UDJingXiHeiE1G30 EB';-inkscape-font-specification:'AR UDJingXiHeiE1G30 EB';stroke-width:0.25744"
           d="m 14.181113,37.631863 q 0,-1.585841 0.962832,-2.492037 0.962833,-0.920354 2.520356,-0.920354 1.600001,0 2.492037,0.80708 0.906195,0.792921 0.906195,2.208851 0,1.00531 -0.651328,2.02478 -0.637168,1.00531 -2.010621,2.22301 l -1.925664,1.741594 h 4.559294 v 1.40177 h -6.895579 v -1.288496 l 2.860179,-2.576993 q 1.260177,-1.146903 1.755753,-1.953983 0.509735,-0.821239 0.509735,-1.571682 0,-0.707965 -0.41062,-1.146904 -0.41062,-0.438938 -1.189381,-0.438938 -0.778762,0 -1.260178,0.538054 -0.481416,0.538053 -0.481416,1.444248 z m 11.171677,-1.104425 -1.656638,1.543363 -0.821239,-1.260177 2.661948,-2.421241 h 1.543364 V 44.626557 H 25.35279 Z"
           id="text3"
           aria-label="21" />
        <path
           style="font-weight:500;font-size:72px;line-height:1.25;font-family:'Noto Sans TC';-inkscape-font-specification:'Noto Sans TC Medium';white-space:pre"
           d="m 199.83342,95.985406 v 12.528004 h 7.848 V 95.985406 Z m -4.608,-4.752 h 17.28 v 22.032004 h -17.28 z m -31.824,-13.176 5.04,-3.096 q 1.728,1.728 3.456,3.744 1.8,1.944 3.384,3.816 1.584,1.872 2.592,3.312 l -5.184,3.816 q -1.008,-1.584 -2.592,-3.6 -1.512,-2.016 -3.312,-4.104 -1.728,-2.16 -3.384,-3.888 z m -2.304,13.32 h 15.408 v 5.544 h -15.408 z m 13.68,32.256004 q 2.088,4.752 5.76,7.056 3.672,2.304 8.928,3.024 5.328,0.72 12.168,0.72 3.816,0 8.496,-0.144 4.68,-0.144 9.432,-0.36 4.752,-0.216 8.568,-0.576 -0.504,0.72 -0.936,1.872 -0.432,1.152 -0.792,2.376 -0.288,1.224 -0.504,2.16 -3.528,0.216 -7.632,0.36 -4.104,0.144 -8.352,0.216 -4.248,0.072 -8.352,0.072 -6.336,0 -11.304,-0.576 -4.896,-0.576 -8.712,-2.088 -3.744,-1.512 -6.552,-4.392 -2.808,-2.952 -4.824,-7.776 z m -0.072,-14.544 h 1.656 l 1.08,-0.144 3.384,1.224 q -1.872,11.736 -6.336,19.584 -4.392,7.776 -10.584,11.88 -0.432,-0.72 -1.224,-1.656 -0.792,-0.864 -1.656,-1.728 -0.864,-0.792 -1.584,-1.224 5.904,-3.6 9.864,-10.296 3.96,-6.768 5.4,-16.488 z m -12.384,6.48 v -5.04 l 2.808,-1.44 h 11.52 l -0.072,5.4 h -9.864 q -1.368,0 -2.664,0.36 -1.296,0.288 -1.728,0.72 z m 0,0 q -0.144,-0.792 -0.648,-1.872 -0.432,-1.08 -0.936,-2.16 -0.432,-1.152 -0.72,-1.8 0.792,-0.216 1.656,-0.648 0.936,-0.504 1.944,-1.512 0.792,-0.864 2.304,-2.808 1.512,-1.944 3.24,-4.32 1.8,-2.448004 3.312,-4.680004 1.512,-2.304 2.448,-3.744 v -0.216 l 1.872,-0.792 4.32,1.944 q -1.296,1.872 -3.024,4.32 -1.728,2.448 -3.672,5.112004 -1.944,2.664 -3.816,5.112 -1.872,2.376 -3.456,4.104 0,0 -0.72,0.432 -0.72,0.36 -1.728,1.008 -0.936,0.576 -1.656,1.296 -0.72,0.648 -0.72,1.224 z m 27.648,-31.464004 v 36.144004 h 28.008 V 84.105406 Z m -5.976,-6.048 h 40.248 v 48.240004 h -40.248 z m 49.824,2.52 h 31.032 v 5.688 h -31.032 z m -1.152,14.544 h 33.336 v 5.760004 h -33.336 z m 5.544,-7.272 5.472,-1.296 q 0.792,1.944 1.512,4.392 0.792,2.376 1.08,4.032 l -5.616,1.512 q -0.288,-1.728 -1.008,-4.176 -0.648,-2.448 -1.44,-4.464 z m 16.704,-1.296 6.12,1.44 q -1.152,2.592 -2.304,5.112 -1.152,2.52 -2.088,4.464 l -5.184,-1.368 q 0.648,-1.368 1.296,-3.024 0.648,-1.728 1.224,-3.456 0.648,-1.728 0.936,-3.168 z m 1.368,17.928004 h 6.696 v 29.592 q 0,2.304 -0.576,3.672 -0.504,1.368 -2.088,2.16 -1.512,0.792 -3.816,0.936 -2.232,0.144 -5.256,0.144 -0.288,-1.368 -0.936,-3.096 -0.648,-1.728 -1.296,-2.952 2.088,0.072 3.816,0.144 1.728,0 2.376,-0.072 0.576,0 0.792,-0.216 0.288,-0.216 0.288,-0.792 z m 15.624,-24.480004 h 26.424 v 5.544 h -26.424 z m 0,30.168004 h 23.616 v 4.176 h -23.616 z m 0.36,7.992 h 22.824 v 4.176 h -22.824 z m -0.648,8.064 h 24.192 v 4.176 h -24.192 z m -2.304,-51.552004 h 6.624 v 19.296 h -6.624 z m 0,15.912 h 26.208 v 15.840004 h -26.208 v -5.184 h 19.584 v -5.400004 h -19.584 z m 0,13.392004 h 6.624 v 28.512 q 0,1.872 0.648,2.448 0.648,0.504 3.096,0.504 0.576,0 2.016,0 1.512,0 3.312,0 1.8,0 3.384,0 1.584,0 2.232,0 1.296,0 1.872,-0.432 0.648,-0.432 0.936,-1.656 0.36,-1.296 0.432,-3.672 1.08,0.792 2.808,1.44 1.728,0.648 3.096,0.936 -0.36,3.456 -1.224,5.4 -0.864,1.944 -2.592,2.736 -1.728,0.864 -4.752,0.864 -0.504,0 -1.8,0 -1.224,0 -2.808,0 -1.512,0 -3.168,0 -1.584,0 -2.808,0 -1.224,0 -1.728,0 -3.744,0 -5.832,-0.72 -2.088,-0.72 -2.952,-2.592 -0.792,-1.8 -0.792,-5.256 z m -24.264,-28.224004 6.12,-1.512 q 0.864,1.872 1.656,4.104 0.792,2.232 1.152,3.816 l -6.48,1.8 q -0.216,-1.728 -0.936,-4.032 -0.72,-2.304 -1.512,-4.176 z m -5.472,28.728004 h 18.504 v 5.112 h -18.504 z m -3.024,0 h 5.76 v 14.4 q 0,3.456 -0.36,7.632 -0.288,4.104 -1.224,8.136 -0.936,3.96 -2.88,7.2 -0.432,-0.576 -1.368,-1.224 -0.936,-0.648 -1.872,-1.296 -0.936,-0.576 -1.656,-0.936 1.656,-2.88 2.376,-6.264 0.792,-3.456 1.008,-6.912 0.216,-3.456 0.216,-6.48 z m 5.328,22.248 q 3.168,-1.008 7.344,-2.52 4.176,-1.584 8.568,-3.24 l 0.936,3.96 q -3.888,1.944 -7.704,3.816 -3.744,1.8 -7.056,3.456 z m 0.864,-11.016 2.736,-3.312 q 1.656,0.648 3.6,1.44 2.016,0.72 3.816,1.512 1.8,0.792 3.024,1.44 l -2.736,3.672 q -1.152,-0.648 -2.952,-1.44 -1.8,-0.864 -3.744,-1.728 -1.944,-0.864 -3.744,-1.584 z"
           id="text4"
           transform="matrix(0.25744134,0,0,0.25744134,-2.1090529,-3.4635139)"
           aria-label="迴龍" />
        <path
           style="font-size:7.20836px;line-height:1.25;font-family:'AR UDJingXiHeiE1G30 EB';-inkscape-font-specification:'AR UDJingXiHeiE1G30 EB';stroke-width:0.25744"
           d="m 40.643043,38.446337 v 2.313884 h -0.915461 v -5.211644 h 0.915461 v 2.184133 h 2.501301 v -2.184133 h 0.915462 v 5.211644 h -0.915462 v -2.313884 z m 8.981619,0.490169 q 0,0.908253 -0.569461,1.412838 -0.56946,0.504586 -1.621881,0.504586 -1.066837,0 -1.643506,-0.497377 -0.56946,-0.497377 -0.56946,-1.412839 v -3.395137 h 0.915461 v 3.351887 q 0,0.591086 0.324377,0.915462 0.324376,0.324376 0.973128,0.324376 0.612711,0 0.937087,-0.309959 0.331585,-0.317168 0.331585,-0.944296 v -3.33747 h 0.92267 z m 2.076009,-3.387929 v 5.211644 h -0.915462 v -5.211644 z m 4.85843,5.211644 h -3.661847 v -5.211644 h 0.915461 v 4.498016 h 2.746386 z m 5.766695,-2.580593 q 0,1.254255 -0.699211,1.967882 -0.692003,0.70642 -1.895799,0.70642 -1.225421,0 -1.917424,-0.713628 -0.692002,-0.713628 -0.692002,-1.960674 0,-1.268671 0.699211,-1.989507 0.69921,-0.728045 1.910215,-0.728045 1.225421,0 1.910215,0.720836 0.684795,0.720836 0.684795,1.996716 z m -2.59501,1.960674 q 0.785711,0 1.211004,-0.519002 0.432502,-0.519002 0.432502,-1.441672 0,-0.915462 -0.432502,-1.456089 -0.432501,-0.547835 -1.211004,-0.547835 -0.79292,0 -1.23263,0.555044 -0.432501,0.547835 -0.432501,1.44888 0,0.92267 0.43971,1.441672 0.43971,0.519002 1.225421,0.519002 z m 4.505225,-3.142845 v 3.762764 H 63.32055 v -5.211644 h 0.944295 l 2.558968,3.849264 v -3.849264 h 0.915461 v 5.211644 h -1.001962 z m 8.527487,3.128428 q -0.26671,0.374835 -0.670378,0.555044 -0.39646,0.173001 -0.908253,0.173001 -1.124504,0 -1.787674,-0.70642 -0.663169,-0.713627 -0.663169,-1.989507 0,-1.283088 0.699211,-1.989507 0.699211,-0.70642 1.888591,-0.70642 0.958711,0 1.557005,0.43971 0.605503,0.432502 0.728045,1.239838 h -0.915462 q -0.07208,-0.425293 -0.425293,-0.692002 -0.346002,-0.273918 -0.944295,-0.273918 -0.800128,0 -1.218213,0.519002 -0.418085,0.511793 -0.418085,1.463297 0,1.016379 0.43971,1.499339 0.43971,0.475752 1.196588,0.475752 0.663169,0 1.05242,-0.389252 0.389252,-0.389251 0.389252,-0.893836 V 38.74188 h -1.477714 v -0.713628 h 2.357134 v 2.731969 h -0.87942 z"
           id="text5"
           aria-label="HUILONG" />
        <path
           d="m 43.081828,45.448845 v 1.232629 h 0.850586 v -1.232629 z m -0.48296,-0.48296 h 1.838131 v 2.198549 h -1.838131 z m -1.71559,1.593047 v 2.191342 H 40.2129 v -1.557006 h -0.886628 v -0.634336 z m 0,1.823715 q 0.245084,0.382043 0.684794,0.562252 0.446918,0.180209 1.052421,0.209043 0.309959,0.01442 0.742461,0.02163 0.43971,0 0.92267,-0.0072 0.48296,-0.01442 0.929878,-0.02883 0.454127,-0.01442 0.800128,-0.04325 -0.03604,0.07929 -0.0865,0.201834 -0.04325,0.122542 -0.07929,0.245084 -0.03604,0.129751 -0.05767,0.230668 -0.309959,0.02163 -0.728044,0.02883 -0.410877,0.0072 -0.857795,0.0072 -0.446918,0.0072 -0.865003,0 -0.410877,0 -0.720836,-0.0072 -0.699211,-0.03604 -1.196588,-0.230667 -0.490169,-0.187418 -0.83617,-0.612711 -0.237876,0.223459 -0.497377,0.446918 -0.259501,0.22346 -0.540627,0.461335 L 39.20373,49.182775 q 0.252293,-0.165792 0.52621,-0.374834 0.281126,-0.209043 0.540627,-0.425294 z m -1.254255,-4.649392 0.454127,-0.425293 q 0.209042,0.108125 0.43971,0.259501 0.230667,0.151375 0.425293,0.309959 0.201834,0.158584 0.324376,0.295543 L 40.789569,44.6343 Q 40.674235,44.497341 40.47961,44.331549 40.284984,44.165757 40.061525,44.014381 39.845274,43.855797 39.629023,43.733255 Z m -0.281126,1.456089 0.446919,-0.43971 q 0.223459,0.108125 0.454126,0.252292 0.237876,0.136959 0.446919,0.288335 0.209042,0.151375 0.338792,0.288334 l -0.475751,0.490169 Q 40.443568,45.924596 40.241734,45.766013 40.0399,45.607429 39.802024,45.463261 39.571356,45.311886 39.347897,45.189344 Z m 2.68151,-0.937087 v 3.633013 h 2.99147 v -3.633013 z m -0.598294,-0.605502 h 4.224099 v 4.836809 h -4.224099 z m 6.393816,-0.403669 h 0.663169 v 0.908254 h -0.663169 z m -1.218213,0.591086 h 3.106803 v 0.56946 h -3.106803 z m -0.115334,1.470505 h 3.337471 v 0.583878 h -3.337471 z m 0.627127,1.910216 h 2.076008 v 0.454127 h -2.076008 z m 0,0.893837 h 2.076008 v 0.454126 h -2.076008 z m -0.09371,-3.618597 0.540627,-0.122542 q 0.09371,0.201834 0.165792,0.446918 0.07208,0.245084 0.108126,0.418085 l -0.569461,0.144167 q -0.02163,-0.173001 -0.09371,-0.425293 -0.06488,-0.252293 -0.151375,-0.461335 z m 1.722798,-0.144167 0.612711,0.144167 q -0.100918,0.245084 -0.201835,0.475752 -0.09371,0.223459 -0.165792,0.403668 l -0.519002,-0.136959 q 0.07208,-0.187418 0.151376,-0.43971 0.0865,-0.252293 0.122542,-0.446918 z m -1.881382,1.939048 h 2.357134 v 0.497377 h -1.722798 v 3.135637 h -0.634336 z m 1.989507,0 h 0.670378 v 2.94822 q 0,0.230667 -0.05767,0.367626 -0.05046,0.136959 -0.209043,0.216251 -0.158583,0.07929 -0.382043,0.09371 -0.223459,0.01442 -0.52621,0.01442 -0.02883,-0.136959 -0.09371,-0.309959 -0.06488,-0.173001 -0.12975,-0.295543 0.209042,0.0072 0.382043,0.0072 0.173001,0.0072 0.237876,0 0.05767,0 0.07929,-0.02163 0.02883,-0.02163 0.02883,-0.0865 z m 1.564214,-2.508509 h 2.645469 v 0.555044 h -2.645469 z m 0,3.020303 h 2.364343 v 0.418085 h -2.364343 z m 0.03604,0.800128 h 2.28505 v 0.418085 h -2.28505 z m -0.06487,0.807336 h 2.422009 v 0.418085 h -2.422009 z m -0.230668,-5.161186 h 0.66317 v 1.931841 h -0.66317 z m 0,1.593048 h 2.623844 v 1.585839 h -2.623844 v -0.519002 h 1.960674 v -0.540627 h -1.960674 z m 0,1.340755 h 0.66317 V 49.0314 q 0,0.187417 0.06488,0.245084 0.06487,0.05046 0.309959,0.05046 0.05767,0 0.201834,0 0.151376,0 0.331585,0 0.180209,0 0.338793,0 0.158584,0 0.223459,0 0.122542,0 0.187417,-0.04325 0.06488,-0.04325 0.09371,-0.165792 0.03604,-0.12975 0.04325,-0.367626 0.108126,0.07929 0.281126,0.144167 0.173001,0.06488 0.30996,0.09371 -0.03604,0.346001 -0.122542,0.540627 -0.0865,0.194625 -0.259501,0.273917 -0.173001,0.0865 -0.475752,0.0865 -0.05046,0 -0.180209,0 -0.122542,0 -0.281126,0 -0.151376,0 -0.317168,0 -0.158584,0 -0.281126,0 -0.122542,0 -0.173001,0 -0.374834,0 -0.583877,-0.07208 -0.209042,-0.07208 -0.295543,-0.259501 -0.07929,-0.180209 -0.07929,-0.52621 z"
           id="text5-9"
           style="font-weight:500;font-size:7.20836px;line-height:1.25;font-family:'Noto Sans JP';-inkscape-font-specification:'Noto Sans JP Medium';stroke-width:0.25744"
           aria-label="迴龍" />
        <path
           style="font-weight:500;font-size:7.20836px;line-height:1.25;font-family:'Noto Sans KR';-inkscape-font-specification:'Noto Sans KR Medium';stroke-width:0.25744"
           d="m 62.155463,44.143103 h 5.326978 v 0.598294 h -5.326978 z m -0.295543,3.546513 h 5.968522 v 0.605503 H 61.85992 Z m 2.59501,0.519002 h 0.756878 v 1.80209 H 64.45493 Z m 0.382043,-3.142845 q 1.030795,0 1.607464,0.288335 0.583877,0.288334 0.583877,0.828961 0,0.533419 -0.583877,0.821753 -0.576669,0.288335 -1.607464,0.288335 -1.038004,0 -1.614673,-0.288335 -0.576669,-0.288334 -0.576669,-0.821753 0,-0.540627 0.576669,-0.828961 0.583877,-0.288335 1.614673,-0.288335 z m 0,0.569461 q -0.692003,0 -1.052421,0.136959 -0.360418,0.136958 -0.360418,0.410876 0,0.26671 0.360418,0.403668 0.360418,0.136959 1.052421,0.136959 0.684794,0 1.045212,-0.136959 0.360418,-0.136958 0.360418,-0.403668 0,-0.273918 -0.360418,-0.410876 -0.360418,-0.136959 -1.045212,-0.136959 z m -0.382043,-2.2418 h 0.756878 v 1.146129 H 64.45493 Z m 8.700491,0.02163 h 0.756878 v 6.602858 h -0.756878 z m -2.746385,0.48296 q 0.490168,0 0.872211,0.288334 0.389252,0.288335 0.605503,0.807337 0.216251,0.519002 0.216251,1.225421 0,0.713628 -0.216251,1.239838 -0.216251,0.519002 -0.605503,0.807336 -0.382043,0.281126 -0.872211,0.281126 -0.490169,0 -0.87942,-0.281126 -0.382043,-0.288334 -0.605502,-0.807336 -0.216251,-0.52621 -0.216251,-1.239838 0,-0.706419 0.216251,-1.225421 0.223459,-0.519002 0.605502,-0.807337 0.389251,-0.288334 0.87942,-0.288334 z m 0,0.684794 q -0.288335,0 -0.511794,0.194626 -0.21625,0.194626 -0.338793,0.562252 -0.122542,0.367626 -0.122542,0.87942 0,0.519002 0.122542,0.886628 0.122543,0.367627 0.338793,0.569461 0.223459,0.194625 0.511794,0.194625 0.288334,0 0.504585,-0.194625 0.216251,-0.201834 0.338793,-0.569461 0.122542,-0.367626 0.122542,-0.886628 0,-0.511794 -0.122542,-0.87942 -0.122542,-0.367626 -0.338793,-0.562252 -0.216251,-0.194626 -0.504585,-0.194626 z m 4.714268,2.205758 h 5.968522 v 0.598294 h -5.968522 z m 2.602218,0.216251 H 78.4824 v 1.196588 h -0.756878 z m -1.859757,-3.409554 h 4.476392 v 1.650714 h -3.719514 v 0.821753 h -0.742461 v -1.36238 h 3.712305 v -0.52621 h -3.726722 z m 0.01442,2.191341 h 4.591725 v 0.583878 h -4.591725 z m 2.205758,2.083216 q 1.095671,0 1.693965,0.273918 0.598294,0.273918 0.598294,0.800128 0,0.511794 -0.598294,0.785711 -0.598294,0.273918 -1.693965,0.273918 -1.088462,0 -1.686756,-0.273918 -0.598294,-0.273917 -0.598294,-0.792919 0,-0.519002 0.598294,-0.79292 0.598294,-0.273918 1.686756,-0.273918 z m 0.0072,0.562253 q -0.756877,0 -1.146129,0.12975 -0.382043,0.122542 -0.382043,0.374835 0,0.165792 0.173001,0.281126 0.173,0.115334 0.511793,0.173 0.346002,0.05046 0.843378,0.05046 0.497377,0 0.83617,-0.05046 0.338793,-0.05767 0.511794,-0.173 0.180209,-0.115334 0.180209,-0.281126 0,-0.252293 -0.389252,-0.374835 -0.389251,-0.12975 -1.138921,-0.12975 z"
           id="text5-9-8"
           aria-label="후이룽" />
      </g>
      <path
         style="font-weight:500;font-size:72px;line-height:1.25;font-family:'Noto Sans TC';-inkscape-font-specification:'Noto Sans TC Medium';white-space:pre"
         d="m 161.45742,114.84941 h 64.8 v 5.688 h -64.8 z m 29.088,-4.032 h 6.84 v 30.528 h -6.84 z m -0.504,-13.248004 v 6.408004 h 7.56 v -6.408004 z m 0,-11.16 v 6.264 h 7.56 v -6.264 z m -5.832,-5.112 h 19.512 v 27.792004 h -19.512 z m 7.2,-7.056 6.264,1.08 q -0.936,2.376 -1.872,4.752 -0.864,2.376 -1.584,4.032 l -4.608,-1.152 q 0.576,-1.872 1.08,-4.32 0.504,-2.52 0.72,-4.392 z m 27.504,25.704 4.392,-1.152 q 1.008,2.736004 1.872,6.048004 0.936,3.312 1.368,5.688 l -4.752,1.368 q -0.288,-2.448 -1.152,-5.76 -0.864,-3.384 -1.728,-6.192004 z m -42.768,-1.224 4.464,-1.008 q 0.864,2.880004 1.584,6.408004 0.792,3.456 1.08,5.976 l -4.68,1.152 q -0.288,-2.52 -1.008,-6.048 -0.72,-3.528 -1.44,-6.480004 z m -12.312,-2.304 q -0.144,-0.504 -0.504,-1.44 -0.288,-1.008 -0.648,-1.944 -0.36,-1.008 -0.648,-1.656 0.72,-0.216 1.44,-0.936 0.792,-0.792 1.512,-2.016 0.504,-0.792 1.584,-2.808 1.152,-2.016 2.376,-4.752 1.296,-2.808 2.088,-5.616 l 5.4,1.944 q -1.8,4.464 -4.32,8.856 -2.52,4.392 -4.968,7.416 v 0.144 q 0,0 -0.504,0.288 -0.432,0.288 -1.152,0.72 -0.72,0.432 -1.224,0.936 -0.432,0.432 -0.432,0.864 z m 0,0 -0.144,-3.96 2.52,-1.584 10.224,-0.936 q -0.144,1.008 -0.288,2.304 -0.072,1.296 -0.144,2.088 -4.608,0.576 -7.056,0.936 -2.448,0.36 -3.528,0.648 -1.08,0.216 -1.584,0.504 z m -0.144,14.184004 q -0.144,-0.576 -0.504,-1.512 -0.288,-0.936 -0.648,-1.944 -0.288,-1.008 -0.648,-1.728 1.08,-0.216 2.088,-1.224 1.08,-1.008 2.448,-2.664 0.648,-0.72 2.016,-2.520004 1.368,-1.8 3.024,-4.32 1.728,-2.52 3.384,-5.4 1.656,-2.88 3.096,-5.76 l 4.896,2.664 q -3.384,5.976 -7.632,11.664 -4.248,5.688004 -8.496,9.936004 v 0.144 q 0,0 -0.792,0.432 -0.72,0.432 -1.512,1.08 -0.72,0.648 -0.72,1.152 z m 0,0 -0.216,-3.96 2.592,-1.728 14.904,-1.728 q -0.216,1.008 -0.288,2.304 -0.072,1.296 0,2.16 -5.112,0.648 -8.28,1.152 -3.168,0.504 -4.896,0.792 -1.656,0.288 -2.52,0.576 -0.864,0.216 -1.296,0.432 z m 42.408,-13.536004 q -0.216,-0.648 -0.504,-1.584 -0.288,-0.936 -0.648,-1.944 -0.36,-1.08 -0.72,-1.728 0.792,-0.144 1.512,-0.936 0.72,-0.792 1.44,-2.088 0.576,-0.792 1.656,-2.88 1.152,-2.088 2.376,-4.896 1.296,-2.88 2.16,-5.76 l 5.616,1.656 q -1.872,4.68 -4.464,9.288 -2.592,4.608 -5.04,7.848 v 0.072 q 0,0 -0.504,0.288 -0.504,0.288 -1.224,0.792 -0.648,0.432 -1.152,0.936 -0.504,0.432 -0.504,0.936 z m 0,0 -0.216,-4.176 2.592,-1.656 11.736,-1.152 q -0.216,1.008 -0.36,2.376 -0.072,1.368 -0.072,2.232 -5.328,0.648 -8.064,1.08 -2.736,0.432 -3.888,0.72 -1.152,0.288 -1.728,0.576 z m 0.576,14.184004 q -0.072,-0.576 -0.432,-1.512 -0.288,-1.008 -0.648,-2.016 -0.288,-1.08 -0.648,-1.8 1.008,-0.216 2.088,-1.224 1.152,-1.008 2.448,-2.592 0.72,-0.792 2.088,-2.592004 1.368,-1.8 3.096,-4.248 1.728,-2.52 3.384,-5.328 1.728,-2.88 3.096,-5.832 l 5.04,2.808 q -3.456,5.904 -7.704,11.592 -4.248,5.616004 -8.568,9.792004 v 0.216 q 0,0 -0.864,0.432 -0.792,0.432 -1.584,1.08 -0.792,0.648 -0.792,1.224 z m 0,0 -0.072,-4.032 2.664,-1.656 15.12,-1.44 q -0.216,1.008 -0.36,2.376 -0.144,1.296 -0.072,2.088 -5.112,0.648 -8.352,1.08 -3.168,0.36 -4.968,0.648 -1.728,0.216 -2.592,0.504 -0.864,0.216 -1.368,0.432 z m -25.056,11.52 5.616,2.232 q -2.592,3.096 -6.336,5.904 -3.744,2.736 -8.064,4.896 -4.248,2.16 -8.568,3.456 -0.432,-0.936 -1.224,-2.016 -0.792,-1.008 -1.656,-1.944 -0.864,-1.008 -1.656,-1.656 4.176,-1.008 8.28,-2.592 4.176,-1.656 7.704,-3.744 3.6,-2.16 5.904,-4.536 z m 19.944,3.672 4.104,-4.32 q 3.384,1.728 7.272,3.96 3.96,2.232 7.488,4.536 3.528,2.304 5.832,4.104 l -4.32,4.968 q -2.16,-1.944 -5.616,-4.248 -3.456,-2.376 -7.344,-4.752 -3.888,-2.376 -7.416,-4.248 z m 43.272,-38.160004 h 49.968 v 6.624 h -49.968 z m -3.096,21.096004 h 50.4 v 6.552 h -50.4 z m -8.064,23.256 h 64.656 v 6.624 h -64.656 z m 28.8,-57.960004 h 7.056 v 61.272004 h -7.056 z m -16.416,1.008 7.056,1.584 q -1.584,5.544 -3.816,10.944 -2.16,5.328 -4.752,9.936 -2.592,4.536004 -5.4,7.992004 -0.72,-0.576 -1.872,-1.296 -1.08,-0.792 -2.232,-1.512 -1.152,-0.792 -2.088,-1.224 2.952,-3.168004 5.4,-7.344004 2.448,-4.248 4.392,-9.144 2.016,-4.896 3.312,-9.936 z"
         id="text4-0"
         transform="matrix(0.12803532,0,0,0.12803532,86.530773,6.8027863)"
         aria-label="樂生" />
      <path
         style="font-size:3.52072px;line-height:1.25;font-family:'AR UDJingXiHeiE1G30 EB';-inkscape-font-specification:'AR UDJingXiHeiE1G30 EB';stroke-width:0.12574"
         d="m 109.20268,28.757036 h -1.78853 v -2.54548 h 0.44713 v 2.196929 h 1.3414 z m 2.81658,-1.260417 q 0,0.612605 -0.34151,0.961156 -0.33799,0.345031 -0.92595,0.345031 -0.59852,0 -0.93651,-0.348551 -0.33799,-0.348552 -0.33799,-0.957636 0,-0.619647 0.34151,-0.971719 0.34151,-0.355593 0.93299,-0.355593 0.59852,0 0.93299,0.352072 0.33447,0.352072 0.33447,0.97524 z m -1.26746,0.957636 q 0.38376,0 0.59148,-0.253492 0.21124,-0.253492 0.21124,-0.704144 0,-0.447132 -0.21124,-0.711186 -0.21124,-0.267574 -0.59148,-0.267574 -0.38728,0 -0.60204,0.271095 -0.21125,0.267575 -0.21125,0.707665 0,0.450652 0.21477,0.704144 0.21476,0.253492 0.59852,0.253492 z m 2.71799,-0.897784 v 0.352072 h -1.1231 v -0.352072 z m 1.27099,0.04929 q -0.46474,-0.0845 -0.69006,-0.260533 -0.22533,-0.176036 -0.22533,-0.492901 0,-0.295741 0.23941,-0.48938 0.24293,-0.19364 0.74639,-0.19364 0.46122,0 0.71471,0.197161 0.25349,0.19716 0.27813,0.570356 h -0.44713 q -0.004,-0.179557 -0.14083,-0.299261 -0.1373,-0.119704 -0.41896,-0.119704 -0.26406,0 -0.3908,0.08802 -0.12675,0.08802 -0.12323,0.24645 0,0.172515 0.169,0.257012 0.17251,0.0845 0.55979,0.161954 0.48586,0.09858 0.69006,0.267574 0.20773,0.168995 0.20773,0.506984 0,0.323906 -0.27462,0.542191 -0.27462,0.214764 -0.7816,0.214764 -0.51755,0 -0.80625,-0.218285 -0.28869,-0.218284 -0.28869,-0.630209 h 0.44713 q 0,0.228847 0.17251,0.366155 0.17252,0.133788 0.47882,0.133788 0.28166,0 0.44009,-0.109143 0.15843,-0.109142 0.15843,-0.285178 0,-0.204202 -0.15843,-0.29222 -0.15843,-0.08802 -0.55627,-0.161953 z m 2.03497,0.02112 v 1.130151 h -0.44713 v -2.54548 h 0.44713 v 1.066778 h 1.22169 v -1.066778 h 0.44713 v 2.54548 h -0.44713 v -1.130151 z m 4.13685,1.130151 h -1.88359 v -2.54548 h 1.87303 v 0.348551 h -1.42589 v 0.718227 h 1.33083 v 0.348551 h -1.33083 v 0.7816 h 1.43645 z m 0.91891,-1.837815 v 1.837815 h -0.44713 v -2.54548 h 0.46121 l 1.24986,1.880064 v -1.880064 h 0.44713 v 2.54548 h -0.48938 z m 4.16501,1.527992 q -0.13027,0.183078 -0.32743,0.271096 -0.19364,0.0845 -0.44361,0.0845 -0.54923,0 -0.87314,-0.345031 -0.3239,-0.348551 -0.3239,-0.971718 0,-0.626689 0.34151,-0.971719 0.34151,-0.345031 0.92242,-0.345031 0.46826,0 0.76048,0.214764 0.29574,0.211243 0.35559,0.605564 h -0.44713 q -0.0352,-0.207722 -0.20772,-0.337989 -0.169,-0.133787 -0.46122,-0.133787 -0.39079,0 -0.595,0.253491 -0.2042,0.249971 -0.2042,0.714707 0,0.496421 0.21477,0.732309 0.21476,0.232368 0.58443,0.232368 0.32391,0 0.51403,-0.190119 0.19012,-0.190119 0.19012,-0.436569 v -0.05281 h -0.72175 v -0.348551 h 1.15128 v 1.334352 h -0.42953 z"
         id="text5-8"
         aria-label="LO-SHENG" />
      <path
         d="m 107.23345,31.879604 h 2.88829 v 0.269357 h -2.88829 z m 1.27863,-0.292075 h 0.31155 v 1.453881 h -0.31155 z m -0.11358,0.402414 0.24988,0.110339 q -0.14603,0.194716 -0.35697,0.369961 -0.2077,0.171999 -0.44785,0.3083 -0.24015,0.136302 -0.4803,0.223924 -0.0227,-0.03894 -0.0584,-0.08762 -0.0357,-0.04543 -0.0746,-0.09411 -0.0389,-0.04543 -0.0714,-0.07464 0.23366,-0.0714 0.47056,-0.184981 0.2369,-0.11683 0.43811,-0.262867 0.20121,-0.149282 0.33102,-0.3083 z m 0.53871,0.0097 q 0.13306,0.155772 0.33102,0.295319 0.20121,0.139547 0.44136,0.249886 0.24015,0.107094 0.48354,0.175244 -0.0324,0.02921 -0.0746,0.07464 -0.0389,0.04868 -0.0746,0.09411 -0.0325,0.04868 -0.0584,0.09087 -0.24015,-0.08113 -0.48355,-0.210943 -0.24339,-0.133056 -0.45434,-0.298564 -0.21094,-0.168754 -0.36347,-0.353735 z m -0.59388,-0.895695 v 0.285584 h 0.65554 v -0.285584 z m 0,-0.506262 v 0.279093 h 0.65554 v -0.279093 z m -0.28558,-0.24015 h 1.23644 v 1.272146 h -1.23644 z m 0.47705,-0.327772 0.33751,0.04543 q -0.0422,0.120075 -0.0876,0.23366 -0.0454,0.110339 -0.0876,0.194716 l -0.26611,-0.05192 q 0.0292,-0.09087 0.0584,-0.210943 0.0292,-0.120075 0.0454,-0.210942 z m -1.29162,0.376451 0.21095,-0.175245 q 0.10384,0.06491 0.20445,0.149283 0.10385,0.08438 0.18822,0.171999 0.0876,0.08762 0.13955,0.162264 l -0.22392,0.201206 q -0.0487,-0.07789 -0.13306,-0.168754 -0.0844,-0.09087 -0.18498,-0.17849 -0.1006,-0.09087 -0.20121,-0.162263 z m 2.02181,0.785355 0.17849,-0.204452 q 0.12332,0.06166 0.26286,0.142792 0.13955,0.07789 0.26936,0.162264 0.12981,0.08438 0.21094,0.155773 l -0.19147,0.230414 q -0.0779,-0.0714 -0.2012,-0.159018 -0.12333,-0.08762 -0.26287,-0.175245 -0.13955,-0.08762 -0.26611,-0.152528 z m 0.55818,-0.996298 0.26287,0.155773 q -0.12657,0.139547 -0.27909,0.282339 -0.14929,0.139546 -0.2791,0.24015 l -0.22717,-0.152528 q 0.0844,-0.06815 0.17849,-0.159018 0.0974,-0.09087 0.18823,-0.184981 0.0909,-0.09736 0.15577,-0.181735 z m -2.66436,1.239694 q 0.14928,-0.07464 0.35698,-0.188226 0.20769,-0.113585 0.42513,-0.23366 l 0.0811,0.249886 q -0.17525,0.110339 -0.36347,0.220679 -0.18498,0.110339 -0.344,0.201206 z m 3.81319,-0.788601 h 2.25222 v 0.298565 H 110.972 Z m -0.13955,0.950864 h 2.27169 v 0.29532 h -2.27169 z m -0.36347,1.048222 h 2.91425 v 0.298565 h -2.91425 z m 1.29811,-2.612442 h 0.31804 v 2.761725 h -0.31804 z m -0.73992,0.04543 0.31803,0.0714 q -0.0714,0.249885 -0.172,0.493281 -0.0973,0.24015 -0.21418,0.447847 -0.11683,0.204452 -0.2434,0.360225 -0.0324,-0.02596 -0.0844,-0.05842 -0.0487,-0.0357 -0.1006,-0.06815 -0.0519,-0.0357 -0.0941,-0.05517 0.13305,-0.142792 0.24339,-0.331018 0.11034,-0.191471 0.19797,-0.412149 0.0909,-0.220678 0.14928,-0.447847 z"
         id="text5-9-1"
         style="font-weight:500;font-size:3.24527px;line-height:1.25;font-family:'Noto Sans JP';-inkscape-font-specification:'Noto Sans JP Medium';stroke-width:0.115903"
         aria-label="楽生" />
      <path
         style="font-weight:500;font-size:3.24527px;line-height:1.25;font-family:'Noto Sans kr';-inkscape-font-specification:'Noto Sans kr Medium';stroke-width:0.115903"
         d="m 119.47972,30.154061 h 0.33751 v 2.972668 h -0.33751 z m -0.52249,1.106637 h 0.59713 v 0.279094 h -0.59713 z m -1.48958,0.882714 h 0.23366 q 0.25313,0 0.46732,-0.0065 0.21743,-0.0065 0.42188,-0.02596 0.2077,-0.01947 0.42513,-0.05517 l 0.0292,0.279093 q -0.22068,0.0357 -0.43162,0.05517 -0.21094,0.01947 -0.43162,0.02921 -0.22068,0.0065 -0.4803,0.0065 h -0.23366 z m -0.006,-1.723239 h 1.32731 v 1.074185 h -0.98656 v 0.733431 h -0.33426 v -1.006034 h 0.98656 v -0.528979 h -0.99305 z m 3.60549,-0.103848 h 0.28234 v 0.288829 q 0,0.292074 -0.0974,0.545205 -0.0974,0.249886 -0.28558,0.438112 -0.18498,0.18498 -0.45434,0.285583 l -0.17849,-0.275848 q 0.24015,-0.08113 0.40242,-0.230414 0.16226,-0.152527 0.24664,-0.350489 0.0844,-0.197961 0.0844,-0.412149 z m 0.0682,0 h 0.27585 v 0.272603 q 0,0.204452 0.0779,0.389432 0.0811,0.18498 0.2369,0.324527 0.15578,0.139547 0.3797,0.214188 l -0.17849,0.266112 q -0.25313,-0.09087 -0.43162,-0.266112 -0.17849,-0.175245 -0.26936,-0.41215 -0.0909,-0.236904 -0.0909,-0.515997 z m 1.32732,-0.159018 h 0.34075 v 1.745955 h -0.34075 z m -0.64581,1.827087 q 0.46408,0 0.73019,0.149282 0.26935,0.149282 0.26935,0.41864 0,0.269357 -0.26935,0.415394 -0.26611,0.149283 -0.73019,0.149283 -0.46407,0 -0.73343,-0.149283 -0.26936,-0.146037 -0.26936,-0.415394 0,-0.269358 0.26936,-0.41864 0.26936,-0.149282 0.73343,-0.149282 z m 0,0.266112 q -0.21094,0 -0.36022,0.0357 -0.14604,0.03245 -0.22393,0.100603 -0.0779,0.06815 -0.0779,0.165509 0,0.09411 0.0779,0.162263 0.0779,0.06815 0.22393,0.103849 0.14928,0.0357 0.36022,0.0357 0.21094,0 0.35698,-0.0357 0.14604,-0.0357 0.22392,-0.103849 0.0811,-0.06815 0.0811,-0.162263 0,-0.09736 -0.0811,-0.165509 -0.0779,-0.06815 -0.22392,-0.100603 -0.14604,-0.0357 -0.35698,-0.0357 z m 0.0487,-1.505806 h 0.65879 v 0.279094 h -0.65879 z"
         id="text5-9-1-0"
         aria-label="러성" />
      <path
         id="rect2"
         style="stroke-width:0.757875"
         d="m 102.75541,16.289871 h 1.0501 v 16.764515 h -1.0501 z" />
    </g>
  </g>
</svg>
