<?xml version="1.0" encoding="UTF-8" standalone="no"?>
<!-- Created with Inkscape (http://www.inkscape.org/) -->

<svg
   width="500"
   height="250"
   viewBox="0 0 132.29166 66.145833"
   version="1.1"
   id="svg1"
   inkscape:version="1.3.2 (091e20e, 2023-11-25, custom)"
   sodipodi:docname="o50.svg"
   xmlns:inkscape="http://www.inkscape.org/namespaces/inkscape"
   xmlns:sodipodi="http://sodipodi.sourceforge.net/DTD/sodipodi-0.dtd"
   xmlns="http://www.w3.org/2000/svg"
   xmlns:svg="http://www.w3.org/2000/svg">
  <sodipodi:namedview
     id="namedview1"
     pagecolor="#9e652e"
     bordercolor="#ffffff"
     borderopacity="1"
     inkscape:showpageshadow="0"
     inkscape:pageopacity="0"
     inkscape:pagecheckerboard="false"
     inkscape:deskcolor="#d1d1d1"
     inkscape:document-units="mm"
     inkscape:zoom="1.4289282"
     inkscape:cx="183.0043"
     inkscape:cy="151.16225"
     inkscape:window-width="1920"
     inkscape:window-height="1009"
     inkscape:window-x="1912"
     inkscape:window-y="-8"
     inkscape:window-maximized="1"
     inkscape:current-layer="layer1"
     showguides="true">
    <sodipodi:guide
       position="142.71301,-1.1518642"
       orientation="1,0"
       id="guide4"
       inkscape:locked="false" />
  </sodipodi:namedview>
  <defs
     id="defs1">
    <rect
       x="560.66638"
       y="34.144731"
       width="279.32397"
       height="128.59143"
       id="rect6" />
    <rect
       x="157.85752"
       y="62.351248"
       width="329.07603"
       height="135.09437"
       id="rect4" />
    <rect
       x="157.85751"
       y="62.35125"
       width="329.07602"
       height="135.09438"
       id="rect4-5" />
    <rect
       x="157.85751"
       y="62.35125"
       width="329.07602"
       height="135.09438"
       id="rect4-5-7" />
    <rect
       x="157.85751"
       y="62.35125"
       width="462.90293"
       height="131.58831"
       id="rect4-5-0" />
    <rect
       x="157.85751"
       y="62.35125"
       width="329.07602"
       height="135.09438"
       id="rect4-5-79" />
    <rect
       x="157.85751"
       y="62.35125"
       width="329.07602"
       height="135.09438"
       id="rect4-5-2" />
  </defs>
  <g
     inkscape:label="Layer 1"
     inkscape:groupmode="layer"
     id="layer1">
    <rect
       style="fill:#f4eed7;fill-opacity:1;stroke:none;stroke-width:0.953294;stroke-dasharray:none"
       id="rect5"
       width="132.29167"
       height="66.145836"
       x="-2.5431316e-06"
       y="-1.2715658e-06"
       ry="0" />
    <text
       xml:space="preserve"
       transform="matrix(0.31615295,0,0,0.31615295,-10.474341,-6.4462013)"
       id="text6"
       style="font-size:55px;line-height:1.25;font-family:'Microsoft JhengHei';-inkscape-font-specification:'Microsoft JhengHei';white-space:pre;shape-inside:url(#rect6);display:inline" />
    <g
       id="g4"
       transform="matrix(0.78638341,0,0,0.78638341,-3.9619024,7.064924)">
      <path
         id="rect1"
         style="fill-opacity:0;stroke:#000000;stroke-width:0.927563"
         d="m 15.644095,14.655146 h 12.224482 c 3.863634,0 6.974069,3.110434 6.974069,6.974068 v 22.887408 c 0,3.863634 -3.110435,6.974068 -6.974069,6.974068 H 15.644095 c -3.863634,0 -6.9740682,-3.110434 -6.9740682,-6.974068 V 21.629214 c 0,-3.863634 3.1104342,-6.974068 6.9740682,-6.974068 z" />
      <path
         style="font-size:13.7225px;line-height:1.25;font-family:'AR UDJingXiHeiE1G30 EB';-inkscape-font-specification:'AR UDJingXiHeiE1G30 EB';stroke-width:0.285885"
         d="m 26.710182,26.143679 q 0,2.387715 -1.331083,3.746243 -1.31736,1.344805 -3.609017,1.344805 -2.332825,0 -3.650185,-1.358528 -1.31736,-1.358527 -1.31736,-3.73252 0,-2.41516 1.331082,-3.787409 1.331083,-1.385973 3.636463,-1.385973 2.332825,0 3.636462,1.37225 1.303638,1.37225 1.303638,3.801132 z m -4.9401,3.73252 q 1.495752,0 2.30538,-0.98802 0.82335,-0.98802 0.82335,-2.7445 0,-1.742757 -0.82335,-2.771944 -0.82335,-1.04291 -2.30538,-1.04291 -1.509475,0 -2.346548,1.056632 -0.82335,1.04291 -0.82335,2.758222 0,1.75648 0.837073,2.7445 0.837072,0.98802 2.332825,0.98802 z"
         id="text2"
         aria-label="O" />
      <path
         style="font-size:14.1593px;line-height:1.25;font-family:'AR UDJingXiHeiE1G30 EB';-inkscape-font-specification:'AR UDJingXiHeiE1G30 EB';stroke-width:0.25744"
         d="m 17.565186,39.076112 q -0.60885,0 -1.047788,0.226549 -0.438939,0.212389 -0.750443,0.651327 l -1.585842,-0.169911 0.764602,-5.394694 h 5.720357 v 1.401771 h -4.276108 l -0.396461,2.676108 q 0.353983,-0.396461 0.849558,-0.594691 0.509735,-0.212389 1.189382,-0.212389 1.458408,0 2.307966,0.948673 0.849557,0.948673 0.849557,2.591152 0,1.713275 -0.948673,2.661948 -0.948673,0.948673 -2.661948,0.948673 -1.684957,0 -2.63363,-0.835399 -0.948673,-0.835398 -0.976991,-2.251328 h 1.741593 q -0.01416,0.665487 0.453098,1.175222 0.467257,0.509734 1.373452,0.509734 0.863717,0 1.359293,-0.566372 0.509735,-0.580531 0.509735,-1.670797 0,-1.019469 -0.523894,-1.557523 -0.523894,-0.538053 -1.316815,-0.538053 z m 11.992917,0.509735 q 0,2.676107 -0.863718,3.950444 -0.863717,1.274337 -2.676107,1.274337 -1.755754,0 -2.661949,-1.274337 -0.906195,-1.274337 -0.906195,-3.950444 0,-2.860179 0.863717,-4.106197 0.863718,-1.260178 2.704427,-1.260178 1.798231,0 2.661948,1.260178 0.877877,1.246018 0.877877,4.106197 z m -3.539825,3.82301 q 0.906195,0 1.330974,-0.892035 0.424779,-0.906196 0.424779,-2.930975 0,-2.180533 -0.41062,-3.072569 -0.39646,-0.892035 -1.345133,-0.892035 -0.948674,0 -1.359293,0.906195 -0.41062,0.892036 -0.41062,3.058409 0,2.01062 0.424779,2.916815 0.424779,0.906195 1.345134,0.906195 z"
         id="text3"
         aria-label="50" />
      <path
         style="font-weight:500;font-size:72px;line-height:1.25;font-family:'Noto Sans TC';-inkscape-font-specification:'Noto Sans TC Medium';white-space:pre"
         d="m 166.56942,81.585406 h 54.648 v 6.984 h -54.648 z m 4.824,23.400004 h 44.136 v 6.912 h -44.136 z m -8.928,24.768 h 62.64 v 6.912 h -62.64 z m 70.92,4.104 h 65.088 v 5.472 h -65.088 z m 0.432,-46.440004 h 64.152 v 5.472 h -64.152 z m 4.968,36.000004 h 55.008 v 5.256 h -55.008 z m 23.328,-42.696004 h 6.84 v 55.800004 h -6.84 z m 25.704,-5.832 3.384,5.328 q -5.04,0.864 -11.16,1.512 -6.12,0.648 -12.816,1.152 -6.696,0.432 -13.536,0.72 -6.768,0.216 -13.032,0.36 -0.072,-1.224 -0.576,-2.736 -0.432,-1.584 -0.864,-2.592 6.336,-0.216 13.032,-0.504 6.696,-0.288 13.176,-0.72 6.48,-0.504 12.24,-1.08 5.76,-0.648 10.152,-1.44 z m -40.104,35.064004 v 4.536 h 36.504 v -4.536 z m 0,-8.712 v 4.464 h 36.504 v -4.464 z m -6.624,-4.680004 h 50.04 v 22.608004 h -50.04 z m 76.176,-4.032 h 41.256 v 4.968 h -41.256 z m 29.52,-4.968 3.096,-3.168 q 1.944,0.936 4.104,2.304 2.16,1.296 3.312,2.448 l -3.24,3.456 q -1.152,-1.224 -3.24,-2.664 -2.088,-1.44 -4.032,-2.376 z m 4.032,12.672004 5.328,1.08 q -2.664,9.936 -7.92,17.352 -5.184,7.344 -12.456,12.096 -0.36,-0.576 -1.08,-1.368 -0.72,-0.792 -1.44,-1.584 -0.72,-0.792 -1.368,-1.224 7.128,-4.104 11.88,-10.8 4.752,-6.696 7.056,-15.552 z m -34.344,20.88 q 4.104,-0.576 9.648,-1.368 5.616,-0.864 11.52,-1.872 l 0.144,4.68 q -5.4,0.936 -10.8,1.944 -5.328,0.936 -9.72,1.728 z m 7.632,-15.84 v 6.192 h 6.696 v -6.192 z m -4.608,-3.816 h 16.128 v 13.824 h -16.128 z m 18.216,-15.912004 h 5.688 q 0.288,7.2 0.936,13.968 0.72,6.696004 1.872,12.096004 1.224,5.328 2.88,8.64 1.728,3.312 3.96,3.744 0.72,0.216 1.152,-1.8 0.504,-2.016 0.792,-5.4 0.576,0.576 1.368,1.224 0.792,0.648 1.584,1.152 0.864,0.504 1.44,0.864 -0.792,6.192 -3.024,8.496 -2.16,2.232 -5.328,0.936 -3.6,-0.936 -5.976,-4.824 -2.376,-3.96 -3.816,-10.008 -1.44,-6.048 -2.304,-13.536 -0.792,-7.488004 -1.224,-15.552004 z m -30.312,-7.632 h 60.912 v 63.792004 h -6.768 V 84.033406 h -47.664 v 57.672004 h -6.48 z m 4.104,54.432004 h 53.712 v 6.192 h -53.712 z m 94.896,-56.664004 h 7.416 v 56.880004 q 0,3.456 -0.936,5.112 -0.864,1.656 -3.096,2.52 -2.16,0.792 -5.76,1.008 -3.6,0.288 -8.712,0.288 -0.216,-1.008 -0.72,-2.304 -0.432,-1.224 -1.008,-2.52 -0.504,-1.296 -1.08,-2.304 2.592,0.144 4.968,0.216 2.448,0 4.248,0 1.872,-0.072 2.664,-0.072 1.08,-0.072 1.512,-0.432 0.504,-0.432 0.504,-1.512 z m 17.352,18.576 6.624,-2.448 q 3.096,5.04 5.904,10.872004 2.88,5.76 5.04,11.304 2.232,5.544 3.096,9.936 l -7.416,2.952 q -0.792,-4.32 -2.808,-9.936 -1.944,-5.616 -4.68,-11.52 -2.736,-5.976004 -5.76,-11.160004 z m -36.216,-1.872 7.704,1.296 q -1.152,5.328 -2.952,11.232004 -1.8,5.904 -4.248,11.304 -2.448,5.328 -5.616,9.36 -0.792,-0.576 -2.016,-1.224 -1.152,-0.72 -2.376,-1.296 -1.224,-0.648 -2.16,-1.08 3.096,-3.744 5.4,-8.784 2.304,-5.112 3.888,-10.584 1.584,-5.472004 2.376,-10.224004 z"
         id="text4"
         transform="matrix(0.25744134,0,0,0.25744134,-2.1090529,-3.4635139)"
         aria-label="三重國小" />
      <path
         style="font-size:7.20836px;line-height:1.25;font-family:'AR UDJingXiHeiE1G30 EB';-inkscape-font-specification:'AR UDJingXiHeiE1G30 EB';stroke-width:0.25744"
         d="m 41.457588,38.403087 q -0.951503,-0.173 -1.412839,-0.533418 -0.461335,-0.360418 -0.461335,-1.009171 0,-0.605502 0.490169,-1.001962 0.497377,-0.39646 1.528172,-0.39646 0.944295,0 1.463297,0.403668 0.519002,0.403669 0.569461,1.167755 h -0.915462 q -0.0072,-0.367627 -0.288334,-0.612711 -0.281126,-0.245084 -0.857795,-0.245084 -0.540627,0 -0.800128,0.180209 -0.259501,0.180209 -0.252293,0.504585 0,0.35321 0.346002,0.52621 0.353209,0.173001 1.146129,0.331585 0.994754,0.201834 1.412838,0.547835 0.425294,0.346002 0.425294,1.038004 0,0.663169 -0.562252,1.110088 -0.562253,0.43971 -1.600256,0.43971 -1.059629,0 -1.650715,-0.446919 -0.591085,-0.446918 -0.591085,-1.290296 h 0.915461 q 0,0.468543 0.35321,0.749669 0.35321,0.273918 0.980337,0.273918 0.576669,0 0.901045,-0.223459 0.324376,-0.223459 0.324376,-0.583877 0,-0.418085 -0.324376,-0.598294 -0.324376,-0.180209 -1.138921,-0.331585 z m 6.026189,0.252293 -0.821753,-2.227383 -0.83617,2.227383 z m -1.924632,0.713627 -0.519002,1.391214 h -0.929879 l 2.097633,-5.211644 h 0.937087 l 2.083216,5.211644 h -0.951504 l -0.52621,-1.391214 z m 5.182804,-2.37155 v 3.762764 h -0.915462 v -5.211644 h 0.944295 l 2.558968,3.849264 v -3.849264 h 0.915462 v 5.211644 H 53.24325 Z m 8.404943,1.946257 h 0.915462 q -0.03604,0.857795 -0.598294,1.384005 -0.562252,0.526211 -1.629089,0.526211 -1.261463,0 -1.931841,-0.713628 -0.663169,-0.713628 -0.663169,-1.982299 0,-1.254255 0.663169,-1.975091 0.670378,-0.720836 1.917424,-0.720836 1.001962,0 1.557006,0.461335 0.555043,0.454127 0.634335,1.182171 h -0.915461 q -0.05767,-0.418085 -0.382043,-0.670377 -0.324377,-0.259501 -0.915462,-0.259501 -0.728045,0 -1.167755,0.490168 -0.43971,0.490169 -0.43971,1.492131 0,1.016379 0.43971,1.499339 0.446919,0.48296 1.182171,0.48296 0.627128,0 0.965921,-0.324376 0.338793,-0.331585 0.367626,-0.872212 z m 2.724755,-0.497377 v 2.313884 h -0.915462 v -5.211644 h 0.915462 v 2.184133 h 2.501301 v -2.184133 h 0.915461 v 5.211644 h -0.915461 v -2.313884 z m 9.623163,-0.266709 q 0,1.254255 -0.699211,1.967882 -0.692003,0.70642 -1.895799,0.70642 -1.225421,0 -1.917424,-0.713628 -0.692002,-0.713628 -0.692002,-1.960674 0,-1.268671 0.699211,-1.989507 0.69921,-0.728045 1.910215,-0.728045 1.225421,0 1.910215,0.720836 0.684795,0.720836 0.684795,1.996716 z m -2.59501,1.960674 q 0.785711,0 1.211004,-0.519002 0.432502,-0.519002 0.432502,-1.441672 0,-0.915462 -0.432502,-1.456089 -0.432501,-0.547835 -1.211004,-0.547835 -0.79292,0 -1.23263,0.555044 -0.432501,0.547835 -0.432501,1.44888 0,0.92267 0.43971,1.441672 0.43971,0.519002 1.225421,0.519002 z m 4.505225,-3.142845 v 3.762764 h -0.915461 v -5.211644 h 0.944295 l 2.558968,3.849264 v -3.849264 h 0.915461 v 5.211644 h -1.001962 z m 8.527489,3.128428 q -0.26671,0.374835 -0.670378,0.555044 -0.39646,0.173001 -0.908253,0.173001 -1.124505,0 -1.787674,-0.70642 -0.663169,-0.713627 -0.663169,-1.989507 0,-1.283088 0.699211,-1.989507 0.699211,-0.70642 1.88859,-0.70642 0.958712,0 1.557006,0.43971 0.605503,0.432502 0.728045,1.239838 H 81.86043 q -0.07208,-0.425293 -0.425293,-0.692002 -0.346002,-0.273918 -0.944296,-0.273918 -0.800128,0 -1.218212,0.519002 -0.418085,0.511793 -0.418085,1.463297 0,1.016379 0.43971,1.499339 0.43971,0.475752 1.196587,0.475752 0.66317,0 1.052421,-0.389252 0.389252,-0.389251 0.389252,-0.893836 V 38.74188 H 80.4548 v -0.713628 h 2.357133 v 2.731969 h -0.879419 z m 7.705724,0.634336 h -3.856472 v -5.211644 h 3.834847 v 0.713627 h -2.919386 v 1.470506 h 2.72476 v 0.713627 h -2.72476 v 1.600256 h 2.941011 z m 4.627774,0 h -3.661847 v -5.211644 h 0.915461 v 4.498016 h 2.746386 z m 4.613357,0 h -3.856473 v -5.211644 h 3.834848 v 0.713627 h -2.919386 v 1.470506 h 2.72476 v 0.713627 h -2.72476 v 1.600256 h 2.941011 z m 1.852551,-3.755556 v 3.755556 h -0.886628 v -5.211644 h 1.160548 l 1.49934,4.04389 1.44167,-4.04389 h 1.18938 v 5.211644 h -0.89384 v -3.784389 l -1.35517,3.784389 h -0.77129 z m 9.45737,3.755556 h -3.85648 v -5.211644 h 3.83485 v 0.713627 h -2.91938 v 1.470506 h 2.72476 v 0.713627 h -2.72476 v 1.600256 h 2.94101 z m 1.88138,-3.762764 v 3.762764 h -0.91546 v -5.211644 h 0.94429 l 2.55897,3.849264 v -3.849264 h 0.91546 v 5.211644 h -1.00196 z m 5.80994,-0.735253 h -1.62188 v -0.713627 h 4.15201 v 0.713627 h -1.61467 v 4.498017 h -0.91546 z m 5.99735,2.393176 -0.82175,-2.227383 -0.83617,2.227383 z m -1.92463,0.713627 -0.519,1.391214 h -0.92988 l 2.09763,-5.211644 h 0.93709 l 2.08321,5.211644 h -0.9515 l -0.52621,-1.391214 z m 7.53273,-2.3283 q 0,-0.382043 -0.20184,-0.576669 -0.20183,-0.201834 -0.58387,-0.201834 h -1.56422 v 1.621881 h 1.51376 q 0.37483,0 0.6055,-0.223459 0.23067,-0.223459 0.23067,-0.619919 z m -2.34993,1.549798 v 2.169716 h -0.91546 v -5.211644 h 2.65268 q 0.71362,0 1.13171,0.382043 0.42529,0.374834 0.42529,1.066837 0,0.454127 -0.21625,0.778503 -0.20904,0.324376 -0.52621,0.461335 0.40367,0.230667 0.61992,0.800128 0.21625,0.56946 0.27392,1.722798 h -0.95151 q -0.0433,-1.211005 -0.26671,-1.686756 -0.21625,-0.48296 -0.69921,-0.48296 z m 6.2857,-0.735253 1.48492,-2.306675 h 1.02359 l -2.05439,3.063553 v 2.148091 h -0.91546 V 38.61213 l -2.09042,-3.063553 h 1.04521 z m 6.71098,0.547835 q -0.9515,-0.173 -1.41284,-0.533418 -0.46133,-0.360418 -0.46133,-1.009171 0,-0.605502 0.49017,-1.001962 0.49737,-0.39646 1.52817,-0.39646 0.94429,0 1.4633,0.403668 0.519,0.403669 0.56946,1.167755 h -0.91546 q -0.007,-0.367627 -0.28834,-0.612711 -0.28113,-0.245084 -0.85779,-0.245084 -0.54063,0 -0.80013,0.180209 -0.2595,0.180209 -0.25229,0.504585 0,0.35321 0.346,0.52621 0.35321,0.173001 1.14613,0.331585 0.99475,0.201834 1.41283,0.547835 0.4253,0.346002 0.4253,1.038004 0,0.663169 -0.56225,1.110088 -0.56226,0.43971 -1.60026,0.43971 -1.05963,0 -1.65071,-0.446919 -0.59109,-0.446918 -0.59109,-1.290296 h 0.91546 q 0,0.468543 0.35321,0.749669 0.35321,0.273918 0.98034,0.273918 0.57667,0 0.90104,-0.223459 0.32438,-0.223459 0.32438,-0.583877 0,-0.418085 -0.32438,-0.598294 -0.32437,-0.180209 -1.13892,-0.331585 z m 6.95607,0.540627 h 0.91546 q -0.036,0.857795 -0.5983,1.384005 -0.56225,0.526211 -1.62909,0.526211 -1.26146,0 -1.93184,-0.713628 -0.66317,-0.713628 -0.66317,-1.982299 0,-1.254255 0.66317,-1.975091 0.67038,-0.720836 1.91743,-0.720836 1.00196,0 1.557,0.461335 0.55505,0.454127 0.63434,1.182171 h -0.91546 q -0.0577,-0.418085 -0.38205,-0.670377 -0.32437,-0.259501 -0.91546,-0.259501 -0.72804,0 -1.16775,0.490168 -0.43971,0.490169 -0.43971,1.492131 0,1.016379 0.43971,1.499339 0.44692,0.48296 1.18217,0.48296 0.62713,0 0.96592,-0.324376 0.33879,-0.331585 0.36763,-0.872212 z m 2.72476,-0.497377 v 2.313884 h -0.91547 v -5.211644 h 0.91547 v 2.184133 h 2.5013 v -2.184133 h 0.91546 v 5.211644 h -0.91546 v -2.313884 z m 9.62315,-0.266709 q 0,1.254255 -0.69921,1.967882 -0.692,0.70642 -1.8958,0.70642 -1.22542,0 -1.91742,-0.713628 -0.692,-0.713628 -0.692,-1.960674 0,-1.268671 0.69921,-1.989507 0.69921,-0.728045 1.91021,-0.728045 1.22543,0 1.91022,0.720836 0.68479,0.720836 0.68479,1.996716 z m -2.59501,1.960674 q 0.78572,0 1.21101,-0.519002 0.4325,-0.519002 0.4325,-1.441672 0,-0.915462 -0.4325,-1.456089 -0.4325,-0.547835 -1.21101,-0.547835 -0.79292,0 -1.23263,0.555044 -0.4325,0.547835 -0.4325,1.44888 0,0.92267 0.43971,1.441672 0.43971,0.519002 1.22542,0.519002 z m 8.59958,-1.960674 q 0,1.254255 -0.69921,1.967882 -0.692,0.70642 -1.8958,0.70642 -1.22542,0 -1.91742,-0.713628 -0.692,-0.713628 -0.692,-1.960674 0,-1.268671 0.69921,-1.989507 0.69921,-0.728045 1.91021,-0.728045 1.22543,0 1.91022,0.720836 0.68479,0.720836 0.68479,1.996716 z m -2.59501,1.960674 q 0.78572,0 1.21101,-0.519002 0.4325,-0.519002 0.4325,-1.441672 0,-0.915462 -0.4325,-1.456089 -0.4325,-0.547835 -1.21101,-0.547835 -0.79292,0 -1.23263,0.555044 -0.4325,0.547835 -0.4325,1.44888 0,0.92267 0.43971,1.441672 0.43971,0.519002 1.22542,0.519002 z m 7.25161,0.619919 h -3.66184 v -5.211644 h 0.91546 v 4.498016 h 2.74638 z"
         id="text5"
         aria-label="SANCHONG ELEMENTARY SCHOOL" />
      <path
         d="m 39.874107,43.935089 h 5.471146 V 44.6343 h -5.471146 z m 0.482961,2.342717 h 4.418724 v 0.692003 h -4.418724 z m -0.893837,2.479676 h 6.271273 v 0.692003 h -6.271273 z m 7.100235,0.410877 h 6.516357 v 0.547835 h -6.516357 z m 0.04325,-4.649393 h 6.422649 v 0.547836 h -6.422649 z m 0.497377,3.60418 h 5.507187 v 0.526211 h -5.507187 z m 2.335508,-4.274557 h 0.684795 v 5.586479 h -0.684795 z m 2.573385,-0.583877 0.338793,0.533418 q -0.504585,0.0865 -1.117296,0.151376 -0.61271,0.06488 -1.283088,0.115334 -0.670377,0.04325 -1.355172,0.07208 -0.677586,0.02163 -1.304713,0.03604 -0.0072,-0.122542 -0.05767,-0.273918 -0.04325,-0.158584 -0.0865,-0.259501 0.634336,-0.02163 1.304713,-0.05046 0.670378,-0.02883 1.31913,-0.07208 0.648752,-0.05046 1.225421,-0.108125 0.576669,-0.06488 1.016379,-0.144167 z m -4.015057,3.510471 v 0.454127 h 3.654639 v -0.454127 z m 0,-0.872212 v 0.446919 h 3.654639 V 45.902971 Z M 47.33476,45.434428 h 5.009811 v 2.263425 H 47.33476 Z m 9.342035,-2.090425 h 0.742461 v 5.694605 q 0,0.346001 -0.09371,0.511794 -0.0865,0.165792 -0.30996,0.252292 -0.216251,0.07929 -0.576669,0.100917 -0.360418,0.02883 -0.872211,0.02883 -0.02163,-0.100917 -0.07208,-0.230668 -0.04325,-0.122542 -0.100917,-0.252292 -0.05046,-0.129751 -0.108125,-0.230668 0.259501,0.01442 0.497376,0.02163 0.245085,0 0.425294,0 0.187417,-0.0072 0.266709,-0.0072 0.108125,-0.0072 0.151376,-0.04325 0.05046,-0.04325 0.05046,-0.151376 z m 1.737215,1.859757 0.663169,-0.245084 q 0.30996,0.504585 0.591086,1.088463 0.288334,0.576668 0.504585,1.131712 0.223459,0.555044 0.309959,0.994754 l -0.742461,0.295543 Q 59.661056,48.036646 59.459222,47.474394 59.264596,46.912142 58.990679,46.321056 58.716761,45.722762 58.41401,45.20376 Z m -3.625805,-0.187417 0.771294,0.129751 q -0.115333,0.533418 -0.295542,1.124504 -0.18021,0.591085 -0.425294,1.131712 -0.245084,0.533419 -0.562252,0.937087 -0.07929,-0.05767 -0.201834,-0.122542 -0.115334,-0.07208 -0.237876,-0.129751 -0.122542,-0.06487 -0.216251,-0.108125 0.30996,-0.374835 0.540627,-0.87942 0.230668,-0.511793 0.389252,-1.059629 0.158584,-0.547835 0.237876,-1.023587 z m 7.496694,0.670378 h 3.467221 v 0.598293 h -3.467221 z m -1.239838,1.636297 h 6.408232 v 0.627128 h -6.408232 z m 2.840094,-0.504585 h 0.699211 v 2.349926 q 0,0.281126 -0.0865,0.432501 -0.07929,0.151376 -0.309959,0.230668 -0.223459,0.07208 -0.555044,0.0865 -0.331584,0.02163 -0.814544,0.02163 -0.02883,-0.144167 -0.115334,-0.338793 -0.07929,-0.187417 -0.165793,-0.324376 0.252293,0.0072 0.490169,0.01442 0.245084,0.0072 0.425293,0.0072 0.180209,-0.0072 0.252293,-0.0072 0.108125,-0.0072 0.144167,-0.03604 0.03604,-0.02883 0.03604,-0.108126 z m 1.650714,-1.131712 h 0.165793 l 0.151375,-0.03604 0.432502,0.331584 q -0.245084,0.259501 -0.562252,0.511794 -0.317168,0.252292 -0.670378,0.468543 -0.346001,0.216251 -0.692002,0.382043 -0.06488,-0.09371 -0.180209,-0.209042 -0.108126,-0.122542 -0.194626,-0.194626 0.295543,-0.136959 0.591085,-0.331584 0.302752,-0.194626 0.555044,-0.39646 0.252293,-0.209043 0.403668,-0.39646 z m -4.375474,-1.268672 h 6.184773 v 1.679548 H 66.67479 v -1.074046 h -4.865643 v 1.074046 h -0.648752 z m 5.081894,-1.131712 0.728044,0.230667 q -0.237876,0.346001 -0.504585,0.684794 -0.26671,0.338793 -0.490169,0.576669 l -0.547835,-0.216251 q 0.144167,-0.173 0.295543,-0.396459 0.151375,-0.22346 0.288334,-0.454127 0.144167,-0.230668 0.230668,-0.425293 z m -4.591726,0.295542 0.576669,-0.259501 q 0.201834,0.216251 0.39646,0.490169 0.194626,0.273918 0.281126,0.48296 l -0.605502,0.295543 q -0.0865,-0.209043 -0.273918,-0.490169 -0.187417,-0.281126 -0.374835,-0.519002 z m 1.838132,-0.151375 0.598294,-0.223459 q 0.173001,0.245084 0.338793,0.555043 0.173,0.302752 0.237876,0.526211 l -0.634336,0.252292 q -0.05767,-0.230667 -0.216251,-0.540627 -0.151375,-0.317168 -0.324376,-0.56946 z m 7.244402,0.850586 h 3.979015 v 0.627128 h -3.979015 z m 1.636298,-1.038004 h 0.670378 v 1.326339 h -0.670378 z m -0.735252,1.816507 0.619918,0.252293 q -0.230667,0.454127 -0.562252,0.893836 -0.324376,0.432502 -0.684794,0.742462 -0.07929,-0.09371 -0.223459,-0.216251 -0.136959,-0.129751 -0.245084,-0.209043 0.331584,-0.273917 0.627127,-0.677586 0.295543,-0.403668 0.468544,-0.785711 z m 1.499338,0.273918 0.533419,-0.295543 q 0.223459,0.230668 0.454127,0.504585 0.230667,0.26671 0.418085,0.533419 0.194625,0.266709 0.302751,0.490168 l -0.576669,0.331585 Q 74.164277,46.674266 73.984068,46.407557 73.803859,46.133639 73.5804,45.852513 73.356941,45.571387 73.133481,45.333511 Z m -1.131712,1.059629 q 0.245084,0.670377 0.648752,1.254255 0.410877,0.576668 0.965921,1.016378 0.555043,0.43971 1.239838,0.684795 -0.07929,0.06488 -0.173001,0.173 -0.0865,0.108126 -0.173001,0.223459 -0.07929,0.115334 -0.136959,0.209043 Q 73.6669,49.651319 73.09744,49.153942 72.535188,48.656565 72.109894,48.000604 71.691809,47.337435 71.410683,46.558932 Z m 1.268671,-0.04325 0.692003,0.136959 q -0.245084,0.778502 -0.663169,1.44888 -0.418085,0.670377 -1.038004,1.182171 -0.619919,0.511794 -1.484922,0.83617 -0.03604,-0.07929 -0.100917,-0.180209 -0.05767,-0.09371 -0.129751,-0.194626 -0.06488,-0.09371 -0.122542,-0.165792 0.79292,-0.281126 1.36238,-0.735253 0.576669,-0.461335 0.944295,-1.052421 0.367627,-0.598293 0.540627,-1.275879 z m -5.081894,-1.58584 h 2.472468 v 0.634336 H 68.188546 Z M 69.1833,43.243086 h 0.634336 v 6.68215 H 69.1833 Z m -0.01442,1.939049 0.410877,0.136959 q -0.0865,0.432502 -0.216251,0.901045 -0.122542,0.461335 -0.281126,0.908254 -0.158584,0.43971 -0.338793,0.828961 -0.180209,0.382043 -0.382043,0.655961 -0.05046,-0.136959 -0.151376,-0.30996 -0.09371,-0.180209 -0.180209,-0.302751 0.187418,-0.237876 0.35321,-0.562252 0.173001,-0.331584 0.324376,-0.713628 0.151376,-0.382043 0.26671,-0.771294 0.122542,-0.39646 0.194625,-0.771295 z m 0.619919,0.641544 q 0.06488,0.07929 0.194626,0.26671 0.136959,0.187417 0.295543,0.418085 0.158584,0.223459 0.288334,0.418084 0.129751,0.187418 0.180209,0.273918 l -0.382043,0.511794 q -0.06488,-0.151376 -0.180209,-0.367627 -0.115334,-0.21625 -0.252292,-0.454126 -0.129751,-0.237876 -0.252293,-0.43971 -0.122542,-0.209043 -0.201834,-0.331585 z"
         id="text5-9"
         style="font-weight:500;font-size:7.20836px;line-height:1.25;font-family:'Noto Sans JP';-inkscape-font-specification:'Noto Sans JP Medium';stroke-width:0.25744"
         aria-label="三重小学校" />
      <path
         style="font-weight:500;font-size:7.20836px;line-height:1.25;font-family:'Noto Sans KR';-inkscape-font-specification:'Noto Sans KR Medium';stroke-width:0.25744"
         d="m 87.575082,43.422267 h 0.756878 v 4.815185 h -0.756878 z m 0.374835,1.939049 h 1.138921 v 0.627127 h -1.138921 z m -3.979015,3.899723 h 4.606143 v 0.612711 h -4.606143 z m 0,-1.492131 h 0.756878 v 1.607465 h -0.756878 z m -0.04325,-3.885306 h 0.547836 v 0.728045 q 0,0.360418 -0.05767,0.742461 -0.05767,0.382043 -0.187418,0.742461 -0.122542,0.35321 -0.338793,0.655961 -0.21625,0.295542 -0.540627,0.490168 l -0.410876,-0.533419 q 0.281126,-0.180209 0.468543,-0.425293 0.194626,-0.245084 0.30996,-0.52621 0.115333,-0.288334 0.158584,-0.583877 0.05046,-0.295543 0.05046,-0.562252 z m 0.180209,0 h 0.533419 v 0.728045 q 0,0.252292 0.03604,0.547835 0.03604,0.295543 0.12975,0.591086 0.100917,0.288334 0.273918,0.547835 0.180209,0.259501 0.461335,0.454127 l -0.367627,0.562252 q -0.324376,-0.216251 -0.540627,-0.533419 -0.209042,-0.317168 -0.324376,-0.692002 -0.108125,-0.374835 -0.158584,-0.756878 -0.04325,-0.382043 -0.04325,-0.720836 z m 1.600256,0 h 0.540627 v 0.728045 q 0,0.346001 -0.05046,0.735252 -0.04325,0.389252 -0.158584,0.764087 -0.108126,0.367626 -0.317168,0.684794 -0.209043,0.309959 -0.547836,0.519002 L 84.81428,46.75253 q 0.281127,-0.194626 0.454127,-0.446919 0.180209,-0.259501 0.273918,-0.547835 0.09371,-0.295543 0.12975,-0.583877 0.03604,-0.295543 0.03604,-0.562252 z m 0.173001,0 h 0.540627 v 0.728045 q 0,0.389251 0.0865,0.785711 0.09371,0.39646 0.30996,0.742461 0.223459,0.338793 0.598294,0.56946 l -0.418085,0.533419 q -0.425294,-0.259501 -0.677586,-0.677586 -0.245084,-0.425293 -0.346002,-0.929878 -0.09371,-0.511794 -0.09371,-1.023587 z m 6.372191,3.135637 h 0.749669 v 0.973129 h -0.749669 z m -2.59501,-0.389251 h 5.954106 v 0.598293 h -5.954106 z m 2.59501,-3.214929 h 0.749669 v 0.901045 h -0.749669 z m -0.03604,0.973128 h 0.663169 v 0.115334 q 0,0.389252 -0.194626,0.70642 -0.194625,0.317167 -0.555043,0.555043 -0.360418,0.237876 -0.857795,0.382043 -0.490169,0.144168 -1.088463,0.194626 l -0.223459,-0.56946 q 0.526211,-0.04325 0.944295,-0.151376 0.418085,-0.115334 0.70642,-0.281126 0.295542,-0.173001 0.446918,-0.382043 0.158584,-0.216251 0.158584,-0.454127 z m 0.165792,0 h 0.663169 v 0.115334 q 0,0.237876 0.151376,0.454127 0.158584,0.209042 0.446918,0.382043 0.295543,0.165792 0.70642,0.281126 0.418084,0.108125 0.951503,0.151376 l -0.223459,0.56946 q -0.598294,-0.05046 -1.095671,-0.194626 -0.490168,-0.144167 -0.850586,-0.382043 -0.360418,-0.237876 -0.555044,-0.555043 -0.194626,-0.317168 -0.194626,-0.70642 z m -2.133674,-0.346001 h 4.771934 v 0.591086 h -4.771934 z m 2.37155,3.748348 q 1.074046,0 1.67234,0.288334 0.598294,0.281126 0.598294,0.821753 0,0.533419 -0.598294,0.814545 -0.598294,0.281126 -1.67234,0.281126 -1.066837,0 -1.665131,-0.281126 -0.598294,-0.281126 -0.598294,-0.814545 0,-0.540627 0.598294,-0.821753 0.598294,-0.288334 1.665131,-0.288334 z m 0,0.56946 q -0.728044,0 -1.117296,0.136959 -0.389251,0.12975 -0.389251,0.403668 0,0.259501 0.389251,0.39646 0.389252,0.136959 1.117296,0.136959 0.735253,0 1.117296,-0.136959 0.389251,-0.136959 0.389251,-0.39646 0,-0.273918 -0.389251,-0.403668 -0.382043,-0.136959 -1.117296,-0.136959 z m 5.687402,0.237876 h 5.968523 v 0.619919 h -5.968523 z m 2.602213,-1.398422 h 0.75688 v 1.71559 h -0.75688 z m 0,-2.407592 h 0.66317 v 0.144167 q 0,0.490168 -0.20183,0.908253 -0.19463,0.410877 -0.56225,0.735253 -0.36042,0.324376 -0.857797,0.540627 -0.497377,0.216251 -1.095671,0.309959 l -0.281126,-0.598293 q 0.533419,-0.07929 0.96592,-0.252293 0.432502,-0.180209 0.735254,-0.432502 0.30275,-0.252292 0.46854,-0.562252 0.16579,-0.309959 0.16579,-0.648752 z m 0.0937,0 h 0.66317 v 0.144167 q 0,0.338793 0.16579,0.648752 0.1658,0.30996 0.46855,0.562252 0.30275,0.252293 0.73525,0.432502 0.4325,0.173001 0.96592,0.252293 l -0.28112,0.598293 q -0.5983,-0.09371 -1.09568,-0.309959 -0.49737,-0.216251 -0.865,-0.540627 -0.36042,-0.324376 -0.56225,-0.735253 -0.19463,-0.418085 -0.19463,-0.908253 z m -2.162504,-0.39646 h 4.887264 v 0.61271 h -4.887264 z m 2.068794,-0.857795 h 0.75688 v 1.095671 h -0.75688 z m 4.03669,2.962636 h 5.9541 v 0.619919 h -5.9541 z m 0.73525,-1.153338 h 4.52685 v 0.605503 h -4.52685 z m 0,-1.701173 h 4.49081 v 0.612711 h -3.74114 v 1.376797 h -0.74967 z m 2.22017,3.95739 q 1.06684,0 1.66514,0.317168 0.6055,0.309959 0.6055,0.886628 0,0.569461 -0.6055,0.87942 -0.5983,0.30996 -1.66514,0.30996 -1.05242,0 -1.65792,-0.30996 -0.6055,-0.309959 -0.6055,-0.87942 0,-0.576669 0.6055,-0.886628 0.6055,-0.317168 1.65792,-0.317168 z m 0,0.583877 q -0.47575,0 -0.81454,0.07208 -0.33879,0.07208 -0.519,0.209042 -0.173,0.129751 -0.173,0.338793 0,0.201834 0.173,0.338793 0.18021,0.136959 0.519,0.209043 0.33879,0.06488 0.81454,0.06488 0.49017,0 0.82176,-0.06488 0.33879,-0.07208 0.51179,-0.209043 0.173,-0.136959 0.173,-0.338793 0,-0.209042 -0.173,-0.338793 -0.173,-0.136958 -0.51179,-0.209042 -0.33159,-0.07208 -0.82176,-0.07208 z m 3.67627,-4.123182 h 3.8853 v 0.598294 h -3.8853 z m 1.94626,0.87942 q 0.46854,0 0.82896,0.151376 0.36041,0.151375 0.56225,0.425293 0.20183,0.266709 0.20183,0.627127 0,0.360418 -0.20183,0.634336 -0.20184,0.266709 -0.56225,0.418085 -0.36042,0.144167 -0.82896,0.144167 -0.47576,0 -0.83617,-0.144167 -0.36042,-0.151376 -0.56226,-0.418085 -0.20183,-0.273918 -0.20183,-0.634336 0,-0.360418 0.20183,-0.627127 0.20184,-0.273918 0.56226,-0.425293 0.36041,-0.151376 0.83617,-0.151376 z m 0,0.583877 q -0.39646,0 -0.64155,0.165793 -0.23787,0.158584 -0.23787,0.454126 0,0.288335 0.23787,0.454127 0.24509,0.165792 0.64155,0.165792 0.38925,0 0.62712,-0.165792 0.23788,-0.165792 0.23788,-0.454127 0,-0.295542 -0.23788,-0.454126 -0.23787,-0.165793 -0.62712,-0.165793 z m 2.43642,-2.104841 h 0.74967 v 4.123182 h -0.74967 z m 0.54784,1.75884 h 1.13171 v 0.627127 h -1.13171 z m -4.12319,2.68151 h 4.32502 v 2.148091 h -0.74967 v -1.542589 h -3.57535 z m 0.75688,-4.476392 h 0.75688 v 1.016379 h -0.75688 z m 5.65856,0.648753 h 4.20969 v 0.61271 h -4.20969 z m -0.59829,4.490808 h 5.95411 v 0.619919 h -5.95411 z m 1.36959,-2.133674 h 0.74246 v 2.342717 H 119.573 Z m 3.20772,-2.357134 h 0.74967 v 0.684794 q 0,0.410877 -0.007,0.857795 -0.007,0.446918 -0.0577,0.96592 -0.0433,0.519002 -0.15858,1.160546 l -0.74967,-0.07929 q 0.16579,-0.908253 0.19463,-1.600256 0.0288,-0.699211 0.0288,-1.304713 z m -1.57863,2.357134 h 0.74246 v 2.342717 h -0.74246 z"
         id="text5-9-8"
         aria-label="싼충 초등학교" />
    </g>
  </g>
</svg>
