<?xml version="1.0" encoding="UTF-8" standalone="no"?>
<!-- Created with Inkscape (http://www.inkscape.org/) -->

<svg
   width="500"
   height="250"
   viewBox="0 0 132.29166 66.145833"
   version="1.1"
   id="svg1"
   inkscape:version="1.3.2 (091e20e, 2023-11-25, custom)"
   sodipodi:docname="o51.svg"
   xmlns:inkscape="http://www.inkscape.org/namespaces/inkscape"
   xmlns:sodipodi="http://sodipodi.sourceforge.net/DTD/sodipodi-0.dtd"
   xmlns="http://www.w3.org/2000/svg"
   xmlns:svg="http://www.w3.org/2000/svg">
  <sodipodi:namedview
     id="namedview1"
     pagecolor="#9e652e"
     bordercolor="#ffffff"
     borderopacity="1"
     inkscape:showpageshadow="0"
     inkscape:pageopacity="0"
     inkscape:pagecheckerboard="false"
     inkscape:deskcolor="#d1d1d1"
     inkscape:document-units="mm"
     inkscape:zoom="1.4289282"
     inkscape:cx="183.0043"
     inkscape:cy="151.16225"
     inkscape:window-width="1920"
     inkscape:window-height="1009"
     inkscape:window-x="1912"
     inkscape:window-y="-8"
     inkscape:window-maximized="1"
     inkscape:current-layer="layer1"
     showguides="true">
    <sodipodi:guide
       position="142.71301,-1.1518642"
       orientation="1,0"
       id="guide4"
       inkscape:locked="false" />
  </sodipodi:namedview>
  <defs
     id="defs1">
    <rect
       x="560.66638"
       y="34.144731"
       width="279.32397"
       height="128.59143"
       id="rect6" />
    <rect
       x="157.85752"
       y="62.351248"
       width="329.07603"
       height="135.09437"
       id="rect4" />
    <rect
       x="157.85751"
       y="62.35125"
       width="329.07602"
       height="135.09438"
       id="rect4-5" />
    <rect
       x="157.85751"
       y="62.35125"
       width="329.07602"
       height="135.09438"
       id="rect4-5-7" />
    <rect
       x="157.85751"
       y="62.35125"
       width="462.90293"
       height="131.58831"
       id="rect4-5-0" />
    <rect
       x="157.85751"
       y="62.35125"
       width="329.07602"
       height="135.09438"
       id="rect4-5-79" />
    <rect
       x="157.85751"
       y="62.35125"
       width="329.07602"
       height="135.09438"
       id="rect4-5-2" />
  </defs>
  <g
     inkscape:label="Layer 1"
     inkscape:groupmode="layer"
     id="layer1">
    <rect
       style="fill:#f4eed7;fill-opacity:1;stroke:none;stroke-width:0.953294;stroke-dasharray:none"
       id="rect5"
       width="132.29167"
       height="66.145836"
       x="-2.5431316e-06"
       y="-1.2715658e-06"
       ry="0" />
    <text
       xml:space="preserve"
       transform="matrix(0.31615295,0,0,0.31615295,-10.474341,-6.4462013)"
       id="text6"
       style="font-size:55px;line-height:1.25;font-family:'Microsoft JhengHei';-inkscape-font-specification:'Microsoft JhengHei';white-space:pre;shape-inside:url(#rect6);display:inline" />
    <g
       id="g4"
       transform="matrix(0.78638341,0,0,0.78638341,3.6339404,7.0649227)">
      <path
         id="rect1"
         style="fill-opacity:0;stroke:#000000;stroke-width:0.927563"
         d="m 15.644095,14.655146 h 12.224482 c 3.863634,0 6.974069,3.110434 6.974069,6.974068 v 22.887408 c 0,3.863634 -3.110435,6.974068 -6.974069,6.974068 H 15.644095 c -3.863634,0 -6.9740682,-3.110434 -6.9740682,-6.974068 V 21.629214 c 0,-3.863634 3.1104342,-6.974068 6.9740682,-6.974068 z" />
      <path
         style="font-size:13.7225px;line-height:1.25;font-family:'AR UDJingXiHeiE1G30 EB';-inkscape-font-specification:'AR UDJingXiHeiE1G30 EB';stroke-width:0.285885"
         d="m 26.710182,26.143679 q 0,2.387715 -1.331083,3.746243 -1.31736,1.344805 -3.609017,1.344805 -2.332825,0 -3.650185,-1.358528 -1.31736,-1.358527 -1.31736,-3.73252 0,-2.41516 1.331082,-3.787409 1.331083,-1.385973 3.636463,-1.385973 2.332825,0 3.636462,1.37225 1.303638,1.37225 1.303638,3.801132 z m -4.9401,3.73252 q 1.495752,0 2.30538,-0.98802 0.82335,-0.98802 0.82335,-2.7445 0,-1.742757 -0.82335,-2.771944 -0.82335,-1.04291 -2.30538,-1.04291 -1.509475,0 -2.346548,1.056632 -0.82335,1.04291 -0.82335,2.758222 0,1.75648 0.837073,2.7445 0.837072,0.98802 2.332825,0.98802 z"
         id="text2"
         aria-label="O" />
      <path
         style="font-size:14.1593px;line-height:1.25;font-family:'AR UDJingXiHeiE1G30 EB';-inkscape-font-specification:'AR UDJingXiHeiE1G30 EB';stroke-width:0.25744"
         d="m 17.565186,39.076112 q -0.60885,0 -1.047788,0.226549 -0.438939,0.212389 -0.750443,0.651327 l -1.585842,-0.169911 0.764602,-5.394694 h 5.720357 v 1.401771 h -4.276108 l -0.396461,2.676108 q 0.353983,-0.396461 0.849558,-0.594691 0.509735,-0.212389 1.189382,-0.212389 1.458408,0 2.307966,0.948673 0.849557,0.948673 0.849557,2.591152 0,1.713275 -0.948673,2.661948 -0.948673,0.948673 -2.661948,0.948673 -1.684957,0 -2.63363,-0.835399 -0.948673,-0.835398 -0.976991,-2.251328 h 1.741593 q -0.01416,0.665487 0.453098,1.175222 0.467257,0.509734 1.373452,0.509734 0.863717,0 1.359293,-0.566372 0.509735,-0.580531 0.509735,-1.670797 0,-1.019469 -0.523894,-1.557523 -0.523894,-0.538053 -1.316815,-0.538053 z m 7.787604,-2.548674 -1.656638,1.543363 -0.821239,-1.260177 2.661948,-2.421241 h 1.543364 V 44.626557 H 25.35279 Z"
         id="text3"
         aria-label="51" />
      <path
         style="font-weight:500;font-size:72px;line-height:1.25;font-family:'Noto Sans TC';-inkscape-font-specification:'Noto Sans TC Medium';white-space:pre"
         d="m 166.56942,81.585406 h 54.648 v 6.984 h -54.648 z m 4.824,23.400004 h 44.136 v 6.912 h -44.136 z m -8.928,24.768 h 62.64 v 6.912 h -62.64 z m 107.64,-3.96 h 21.96 v 6.48 h -21.96 z m -2.52,-44.424004 h 27.792 v 56.304004 h -6.984 V 87.921406 h -14.112 v 50.256004 h -6.696 z m -20.736,-0.216 h 6.84 v 60.264004 h -6.84 z m -13.608,14.832 h 32.112 v 6.336004 h -32.112 z m 13.248,2.376 4.608,1.584 q -1.152,4.320004 -2.88,8.856004 -1.728,4.464 -3.816,8.784 -2.088,4.248 -4.464,7.992 -2.304,3.672 -4.752,6.336 -0.504,-1.512 -1.584,-3.312 -1.08,-1.8 -2.016,-3.024 2.304,-2.376 4.464,-5.544 2.232,-3.168 4.248,-6.768 2.016,-3.672 3.6,-7.488 1.584,-3.816 2.592,-7.416004 z m 14.256,-23.04 4.464,5.328 q -3.96,1.44 -9,2.664 -4.968,1.152 -10.296,2.016 -5.328,0.864 -10.224,1.44 -0.216,-1.152 -0.792,-2.664 -0.576,-1.584 -1.152,-2.664 4.752,-0.648 9.72,-1.584 5.04,-0.936 9.504,-2.088 4.536,-1.224 7.776,-2.448 z m -7.632,28.008004 q 0.72,0.648 1.944,2.088 1.296,1.368 2.808,3.096 1.512,1.728 3.024,3.528 1.584,1.728 2.736,3.168 1.152,1.368 1.728,2.016 l -4.032,5.688 q -0.936,-1.584 -2.448,-3.816 -1.512,-2.232 -3.24,-4.608 -1.656,-2.376 -3.24,-4.464 -1.584,-2.088 -2.592,-3.384 z m 64.152,-10.800004 h 41.256 v 4.968 h -41.256 z m 29.52,-4.968 3.096,-3.168 q 1.944,0.936 4.104,2.304 2.16,1.296 3.312,2.448 l -3.24,3.456 q -1.152,-1.224 -3.24,-2.664 -2.088,-1.44 -4.032,-2.376 z m 4.032,12.672004 5.328,1.08 q -2.664,9.936 -7.92,17.352 -5.184,7.344 -12.456,12.096 -0.36,-0.576 -1.08,-1.368 -0.72,-0.792 -1.44,-1.584 -0.72,-0.792 -1.368,-1.224 7.128,-4.104 11.88,-10.8 4.752,-6.696 7.056,-15.552 z m -34.344,20.88 q 4.104,-0.576 9.648,-1.368 5.616,-0.864 11.52,-1.872 l 0.144,4.68 q -5.4,0.936 -10.8,1.944 -5.328,0.936 -9.72,1.728 z m 7.632,-15.84 v 6.192 h 6.696 v -6.192 z m -4.608,-3.816 h 16.128 v 13.824 h -16.128 z m 18.216,-15.912004 h 5.688 q 0.288,7.2 0.936,13.968 0.72,6.696004 1.872,12.096004 1.224,5.328 2.88,8.64 1.728,3.312 3.96,3.744 0.72,0.216 1.152,-1.8 0.504,-2.016 0.792,-5.4 0.576,0.576 1.368,1.224 0.792,0.648 1.584,1.152 0.864,0.504 1.44,0.864 -0.792,6.192 -3.024,8.496 -2.16,2.232 -5.328,0.936 -3.6,-0.936 -5.976,-4.824 -2.376,-3.96 -3.816,-10.008 -1.44,-6.048 -2.304,-13.536 -0.792,-7.488004 -1.224,-15.552004 z m -30.312,-7.632 h 60.912 v 63.792004 h -6.768 V 84.033406 h -47.664 v 57.672004 h -6.48 z m 4.104,54.432004 h 53.712 v 6.192 h -53.712 z m 69.048,-45.000004 h 58.608 v 34.920004 h -7.056 V 94.041406 h -44.784 v 28.584004 h -6.768 z m 3.528,24.264004 h 52.056 v 6.696 h -52.056 z m 22.032,-36.936004 h 7.128 v 66.744004 h -7.128 z"
         id="text4"
         transform="matrix(0.25744134,0,0,0.25744134,-2.1090529,-3.4635139)"
         aria-label="三和國中" />
      <path
         style="font-size:7.20836px;line-height:1.25;font-family:'AR UDJingXiHeiE1G30 EB';-inkscape-font-specification:'AR UDJingXiHeiE1G30 EB';stroke-width:0.25744"
         d="m 41.457588,38.403087 q -0.951503,-0.173 -1.412839,-0.533418 -0.461335,-0.360418 -0.461335,-1.009171 0,-0.605502 0.490169,-1.001962 0.497377,-0.39646 1.528172,-0.39646 0.944295,0 1.463297,0.403668 0.519002,0.403669 0.569461,1.167755 h -0.915462 q -0.0072,-0.367627 -0.288334,-0.612711 -0.281126,-0.245084 -0.857795,-0.245084 -0.540627,0 -0.800128,0.180209 -0.259501,0.180209 -0.252293,0.504585 0,0.35321 0.346002,0.52621 0.353209,0.173001 1.146129,0.331585 0.994754,0.201834 1.412838,0.547835 0.425294,0.346002 0.425294,1.038004 0,0.663169 -0.562252,1.110088 -0.562253,0.43971 -1.600256,0.43971 -1.059629,0 -1.650715,-0.446919 -0.591085,-0.446918 -0.591085,-1.290296 h 0.915461 q 0,0.468543 0.35321,0.749669 0.35321,0.273918 0.980337,0.273918 0.576669,0 0.901045,-0.223459 0.324376,-0.223459 0.324376,-0.583877 0,-0.418085 -0.324376,-0.598294 -0.324376,-0.180209 -1.138921,-0.331585 z m 6.026189,0.252293 -0.821753,-2.227383 -0.83617,2.227383 z m -1.924632,0.713627 -0.519002,1.391214 h -0.929879 l 2.097633,-5.211644 h 0.937087 l 2.083216,5.211644 h -0.951504 l -0.52621,-1.391214 z m 5.182804,-2.37155 v 3.762764 h -0.915462 v -5.211644 h 0.944295 l 2.558968,3.849264 v -3.849264 h 0.915462 v 5.211644 H 53.24325 Z m 5.615308,1.44888 v 2.313884 h -0.915462 v -5.211644 h 0.915462 v 2.184133 h 2.501301 v -2.184133 h 0.915461 v 5.211644 h -0.915461 v -2.313884 z m 8.469824,2.313884 h -3.856473 v -5.211644 h 3.834848 v 0.713627 H 61.88607 v 1.470506 h 2.72476 v 0.713627 h -2.72476 v 1.600256 h 2.941011 z m 3.488846,-1.333547 q 0,0.331585 0.165793,0.519002 0.165792,0.187418 0.533418,0.187418 0.360418,0.0072 0.547836,-0.194626 0.187417,-0.209043 0.187417,-0.591086 v -3.798805 h 0.908253 v 3.878097 q 0,0.655961 -0.432501,1.045213 -0.425293,0.382043 -1.218213,0.382043 -0.771295,0 -1.18938,-0.374835 -0.418084,-0.382043 -0.418084,-0.973129 v -0.461335 h 0.915461 z m 7.871523,-0.490168 q 0,0.908253 -0.56946,1.412838 -0.569461,0.504586 -1.621881,0.504586 -1.066838,0 -1.643506,-0.497377 -0.569461,-0.497377 -0.569461,-1.412839 v -3.395137 h 0.915462 v 3.351887 q 0,0.591086 0.324376,0.915462 0.324376,0.324376 0.973129,0.324376 0.61271,0 0.937087,-0.309959 0.331584,-0.317168 0.331584,-0.944296 v -3.33747 h 0.92267 z m 2.076012,-1.939049 v 3.762764 H 77.348 v -5.211644 h 0.944295 l 2.558968,3.849264 v -3.849264 h 0.915462 v 5.211644 h -1.001962 z m 5.615307,-1.44888 v 5.211644 h -0.915462 v -5.211644 z m 6.206394,2.631051 q 0,1.254255 -0.699211,1.967882 -0.692003,0.70642 -1.895799,0.70642 -1.225421,0 -1.917424,-0.713628 -0.692002,-0.713628 -0.692002,-1.960674 0,-1.268671 0.699211,-1.989507 0.69921,-0.728045 1.910215,-0.728045 1.225421,0 1.910215,0.720836 0.684795,0.720836 0.684795,1.996716 z m -2.59501,1.960674 q 0.785711,0 1.211004,-0.519002 0.432502,-0.519002 0.432502,-1.441672 0,-0.915462 -0.432502,-1.456089 -0.432501,-0.547835 -1.211004,-0.547835 -0.79292,0 -1.23263,0.555044 -0.432501,0.547835 -0.432501,1.44888 0,0.92267 0.43971,1.441672 0.43971,0.519002 1.225421,0.519002 z m 6.855149,-3.099595 q 0,-0.382043 -0.201834,-0.576669 -0.201834,-0.201834 -0.583877,-0.201834 h -1.564215 v 1.621881 h 1.513756 q 0.374835,0 0.605502,-0.223459 0.230668,-0.223459 0.230668,-0.619919 z m -2.349926,1.549798 v 2.169716 h -0.915461 v -5.211644 h 2.652676 q 0.713628,0 1.131713,0.382043 0.425293,0.374834 0.425293,1.066837 0,0.454127 -0.216251,0.778503 -0.209042,0.324376 -0.52621,0.461335 0.403668,0.230667 0.619919,0.800128 0.216251,0.56946 0.273918,1.722798 h -0.951504 q -0.04325,-1.211005 -0.266709,-1.686756 -0.216251,-0.48296 -0.699211,-0.48296 z m 7.157906,-0.144168 v 2.313884 H 98.23782 v -5.211644 h 0.915462 v 2.184133 h 2.501298 v -2.184133 h 0.91546 v 5.211644 h -0.91546 v -2.313884 z m 5.528808,-2.89776 v 5.211644 h -0.91546 v -5.211644 z m 5.02422,4.577308 q -0.26671,0.374835 -0.67037,0.555044 -0.39646,0.173001 -0.90826,0.173001 -1.1245,0 -1.78767,-0.70642 -0.66317,-0.713627 -0.66317,-1.989507 0,-1.283088 0.69921,-1.989507 0.69921,-0.70642 1.88859,-0.70642 0.95871,0 1.55701,0.43971 0.6055,0.432502 0.72804,1.239838 h -0.91546 q -0.0721,-0.425293 -0.42529,-0.692002 -0.346,-0.273918 -0.9443,-0.273918 -0.80013,0 -1.21821,0.519002 -0.41809,0.511793 -0.41809,1.463297 0,1.016379 0.43971,1.499339 0.43971,0.475752 1.19659,0.475752 0.66317,0 1.05242,-0.389252 0.38925,-0.389251 0.38925,-0.893836 V 38.74188 h -1.47771 v -0.713628 h 2.35713 v 2.731969 h -0.87942 z m 2.87614,-1.679548 v 2.313884 h -0.91546 v -5.211644 h 0.91546 v 2.184133 h 2.5013 v -2.184133 h 0.91546 v 5.211644 h -0.91546 v -2.313884 z m 8.23194,-0.04325 q -0.9515,-0.173 -1.41284,-0.533418 -0.46133,-0.360418 -0.46133,-1.009171 0,-0.605502 0.49017,-1.001962 0.49737,-0.39646 1.52817,-0.39646 0.94429,0 1.4633,0.403668 0.519,0.403669 0.56946,1.167755 h -0.91547 q -0.007,-0.367627 -0.28833,-0.612711 -0.28113,-0.245084 -0.85779,-0.245084 -0.54063,0 -0.80013,0.180209 -0.2595,0.180209 -0.25229,0.504585 0,0.35321 0.346,0.52621 0.35321,0.173001 1.14613,0.331585 0.99475,0.201834 1.41283,0.547835 0.4253,0.346002 0.4253,1.038004 0,0.663169 -0.56225,1.110088 -0.56226,0.43971 -1.60026,0.43971 -1.05963,0 -1.65072,-0.446919 -0.59108,-0.446918 -0.59108,-1.290296 h 0.91546 q 0,0.468543 0.35321,0.749669 0.35321,0.273918 0.98034,0.273918 0.57667,0 0.90104,-0.223459 0.32438,-0.223459 0.32438,-0.583877 0,-0.418085 -0.32438,-0.598294 -0.32437,-0.180209 -1.13892,-0.331585 z m 6.95606,0.540627 h 0.91547 q -0.0361,0.857795 -0.5983,1.384005 -0.56225,0.526211 -1.62909,0.526211 -1.26146,0 -1.93184,-0.713628 -0.66317,-0.713628 -0.66317,-1.982299 0,-1.254255 0.66317,-1.975091 0.67038,-0.720836 1.91743,-0.720836 1.00196,0 1.557,0.461335 0.55505,0.454127 0.63434,1.182171 H 127.72 q -0.0577,-0.418085 -0.38205,-0.670377 -0.32437,-0.259501 -0.91546,-0.259501 -0.72804,0 -1.16775,0.490168 -0.43971,0.490169 -0.43971,1.492131 0,1.016379 0.43971,1.499339 0.44692,0.48296 1.18217,0.48296 0.62713,0 0.96592,-0.324376 0.33879,-0.331585 0.36762,-0.872212 z m 2.72477,-0.497377 v 2.313884 h -0.91547 v -5.211644 h 0.91547 v 2.184133 h 2.5013 v -2.184133 h 0.91546 v 5.211644 h -0.91546 v -2.313884 z m 9.62315,-0.266709 q 0,1.254255 -0.69921,1.967882 -0.692,0.70642 -1.8958,0.70642 -1.22542,0 -1.91742,-0.713628 -0.692,-0.713628 -0.692,-1.960674 0,-1.268671 0.69921,-1.989507 0.69921,-0.728045 1.91021,-0.728045 1.22542,0 1.91022,0.720836 0.68479,0.720836 0.68479,1.996716 z m -2.59501,1.960674 q 0.78571,0 1.21101,-0.519002 0.4325,-0.519002 0.4325,-1.441672 0,-0.915462 -0.4325,-1.456089 -0.4325,-0.547835 -1.21101,-0.547835 -0.79292,0 -1.23263,0.555044 -0.4325,0.547835 -0.4325,1.44888 0,0.92267 0.43971,1.441672 0.43971,0.519002 1.22542,0.519002 z m 8.59958,-1.960674 q 0,1.254255 -0.69921,1.967882 -0.692,0.70642 -1.8958,0.70642 -1.22542,0 -1.91742,-0.713628 -0.692,-0.713628 -0.692,-1.960674 0,-1.268671 0.69921,-1.989507 0.69921,-0.728045 1.91021,-0.728045 1.22542,0 1.91022,0.720836 0.68479,0.720836 0.68479,1.996716 z m -2.59501,1.960674 q 0.78571,0 1.21101,-0.519002 0.4325,-0.519002 0.4325,-1.441672 0,-0.915462 -0.4325,-1.456089 -0.4325,-0.547835 -1.21101,-0.547835 -0.79292,0 -1.23263,0.555044 -0.4325,0.547835 -0.4325,1.44888 0,0.92267 0.43971,1.441672 0.43971,0.519002 1.22542,0.519002 z m 7.25161,0.619919 h -3.66184 v -5.211644 h 0.91546 v 4.498016 h 2.74638 z"
         id="text5"
         aria-label="SANHE JUNIOR HIGH SCHOOL" />
      <path
         d="m 39.874107,43.935089 h 5.471146 V 44.6343 h -5.471146 z m 0.482961,2.342717 h 4.418724 v 0.692003 h -4.418724 z m -0.893837,2.479676 h 6.271273 v 0.692003 h -6.271273 z m 10.776498,-0.39646 h 2.19855 v 0.648753 h -2.19855 z m -0.252292,-4.447558 h 2.782427 v 5.636938 h -0.699211 v -4.980977 h -1.412839 v 5.031435 h -0.670377 z m -2.076008,-0.02163 h 0.684794 v 6.033397 h -0.684794 z m -1.36238,1.484922 h 3.214929 v 0.634336 h -3.214929 z m 1.326338,0.237876 0.461335,0.158584 q -0.115333,0.432501 -0.288334,0.886628 -0.173001,0.446919 -0.382043,0.87942 -0.209043,0.425293 -0.446918,0.800128 -0.230668,0.367626 -0.475752,0.634336 -0.05046,-0.151376 -0.158584,-0.331585 -0.108126,-0.180209 -0.201834,-0.302751 0.230667,-0.237876 0.446918,-0.555044 0.223459,-0.317167 0.425293,-0.677585 0.201834,-0.367627 0.360418,-0.74967 0.158584,-0.382043 0.259501,-0.742461 z m 1.427256,-2.306675 0.446918,0.533418 q -0.39646,0.144168 -0.901045,0.26671 -0.497377,0.115333 -1.030796,0.201834 -0.533418,0.0865 -1.023587,0.144167 -0.02163,-0.115334 -0.07929,-0.266709 -0.05767,-0.158584 -0.115333,-0.26671 0.475751,-0.06488 0.973128,-0.158584 0.504585,-0.09371 0.951504,-0.209042 0.454126,-0.122542 0.778503,-0.245084 z m -0.764087,2.804052 q 0.07208,0.06488 0.194626,0.209042 0.129751,0.136959 0.281126,0.30996 0.151376,0.173 0.302751,0.353209 0.158584,0.173001 0.273918,0.317168 0.115334,0.136959 0.173001,0.201834 L 49.36031,48.072688 Q 49.266601,47.914104 49.115225,47.690645 48.96385,47.467186 48.790849,47.22931 48.625057,46.991434 48.466473,46.782391 48.307889,46.573349 48.206972,46.443598 Z m 5.550438,-1.600256 h 5.867605 v 3.496055 H 59.25018 v -2.825678 h -4.4836 v 2.861719 h -0.677586 z m 0.353209,2.429217 h 5.211645 v 0.670378 h -5.211645 z m 2.205759,-3.697889 h 0.713627 v 6.68215 h -0.713627 z m 5.636937,2.443635 h 3.467221 v 0.598293 h -3.467221 z m -1.239838,1.636297 h 6.408232 v 0.627128 h -6.408232 z m 2.840094,-0.504585 h 0.699211 v 2.349926 q 0,0.281126 -0.0865,0.432501 -0.07929,0.151376 -0.309959,0.230668 -0.223459,0.07208 -0.555044,0.0865 -0.331584,0.02163 -0.814544,0.02163 -0.02883,-0.144167 -0.115334,-0.338793 -0.07929,-0.187417 -0.165793,-0.324376 0.252293,0.0072 0.490169,0.01442 0.245084,0.0072 0.425293,0.0072 0.180209,-0.0072 0.252293,-0.0072 0.108125,-0.0072 0.144167,-0.03604 0.03604,-0.02883 0.03604,-0.108126 z m 1.650714,-1.131712 h 0.165793 l 0.151375,-0.03604 0.432502,0.331584 q -0.245084,0.259501 -0.562252,0.511794 -0.317168,0.252292 -0.670378,0.468543 -0.346001,0.216251 -0.692002,0.382043 -0.06488,-0.09371 -0.180209,-0.209042 -0.108126,-0.122542 -0.194626,-0.194626 0.295543,-0.136959 0.591085,-0.331584 0.302752,-0.194626 0.555044,-0.39646 0.252293,-0.209043 0.403668,-0.39646 z m -4.375474,-1.268672 h 6.184773 v 1.679548 H 66.67479 v -1.074046 h -4.865643 v 1.074046 h -0.648752 z m 5.081894,-1.131712 0.728044,0.230667 q -0.237876,0.346001 -0.504585,0.684794 -0.26671,0.338793 -0.490169,0.576669 l -0.547835,-0.216251 q 0.144167,-0.173 0.295543,-0.396459 0.151375,-0.22346 0.288334,-0.454127 0.144167,-0.230668 0.230668,-0.425293 z m -4.591726,0.295542 0.576669,-0.259501 q 0.201834,0.216251 0.39646,0.490169 0.194626,0.273918 0.281126,0.48296 l -0.605502,0.295543 q -0.0865,-0.209043 -0.273918,-0.490169 -0.187417,-0.281126 -0.374835,-0.519002 z m 1.838132,-0.151375 0.598294,-0.223459 q 0.173001,0.245084 0.338793,0.555043 0.173,0.302752 0.237876,0.526211 l -0.634336,0.252292 q -0.05767,-0.230667 -0.216251,-0.540627 -0.151375,-0.317168 -0.324376,-0.56946 z m 7.244402,0.850586 h 3.979015 v 0.627128 h -3.979015 z m 1.636298,-1.038004 h 0.670378 v 1.326339 h -0.670378 z m -0.735252,1.816507 0.619918,0.252293 q -0.230667,0.454127 -0.562252,0.893836 -0.324376,0.432502 -0.684794,0.742462 -0.07929,-0.09371 -0.223459,-0.216251 -0.136959,-0.129751 -0.245084,-0.209043 0.331584,-0.273917 0.627127,-0.677586 0.295543,-0.403668 0.468544,-0.785711 z m 1.499338,0.273918 0.533419,-0.295543 q 0.223459,0.230668 0.454127,0.504585 0.230667,0.26671 0.418085,0.533419 0.194625,0.266709 0.302751,0.490168 l -0.576669,0.331585 Q 74.164277,46.674266 73.984068,46.407557 73.803859,46.133639 73.5804,45.852513 73.356941,45.571387 73.133481,45.333511 Z m -1.131712,1.059629 q 0.245084,0.670377 0.648752,1.254255 0.410877,0.576668 0.965921,1.016378 0.555043,0.43971 1.239838,0.684795 -0.07929,0.06488 -0.173001,0.173 -0.0865,0.108126 -0.173001,0.223459 -0.07929,0.115334 -0.136959,0.209043 Q 73.6669,49.651319 73.09744,49.153942 72.535188,48.656565 72.109894,48.000604 71.691809,47.337435 71.410683,46.558932 Z m 1.268671,-0.04325 0.692003,0.136959 q -0.245084,0.778502 -0.663169,1.44888 -0.418085,0.670377 -1.038004,1.182171 -0.619919,0.511794 -1.484922,0.83617 -0.03604,-0.07929 -0.100917,-0.180209 -0.05767,-0.09371 -0.129751,-0.194626 -0.06488,-0.09371 -0.122542,-0.165792 0.79292,-0.281126 1.36238,-0.735253 0.576669,-0.461335 0.944295,-1.052421 0.367627,-0.598293 0.540627,-1.275879 z m -5.081894,-1.58584 h 2.472468 v 0.634336 H 68.188546 Z M 69.1833,43.243086 h 0.634336 v 6.68215 H 69.1833 Z m -0.01442,1.939049 0.410877,0.136959 q -0.0865,0.432502 -0.216251,0.901045 -0.122542,0.461335 -0.281126,0.908254 -0.158584,0.43971 -0.338793,0.828961 -0.180209,0.382043 -0.382043,0.655961 -0.05046,-0.136959 -0.151376,-0.30996 -0.09371,-0.180209 -0.180209,-0.302751 0.187418,-0.237876 0.35321,-0.562252 0.173001,-0.331584 0.324376,-0.713628 0.151376,-0.382043 0.26671,-0.771294 0.122542,-0.39646 0.194625,-0.771295 z m 0.619919,0.641544 q 0.06488,0.07929 0.194626,0.26671 0.136959,0.187417 0.295543,0.418085 0.158584,0.223459 0.288334,0.418084 0.129751,0.187418 0.180209,0.273918 l -0.382043,0.511794 q -0.06488,-0.151376 -0.180209,-0.367627 -0.115334,-0.21625 -0.252292,-0.454126 -0.129751,-0.237876 -0.252293,-0.43971 -0.122542,-0.209043 -0.201834,-0.331585 z"
         id="text5-9"
         style="font-weight:500;font-size:7.20836px;line-height:1.25;font-family:'Noto Sans JP';-inkscape-font-specification:'Noto Sans JP Medium';stroke-width:0.25744"
         aria-label="三和中学校" />
      <path
         style="font-weight:500;font-size:7.20836px;line-height:1.25;font-family:'Noto Sans KR';-inkscape-font-specification:'Noto Sans KR Medium';stroke-width:0.25744"
         d="m 87.575082,43.422267 h 0.756878 v 4.815185 h -0.756878 z m 0.374835,1.939049 h 1.138921 v 0.627127 h -1.138921 z m -3.979015,3.899723 h 4.606143 v 0.612711 h -4.606143 z m 0,-1.492131 h 0.756878 v 1.607465 h -0.756878 z m -0.04325,-3.885306 h 0.547836 v 0.728045 q 0,0.360418 -0.05767,0.742461 -0.05767,0.382043 -0.187418,0.742461 -0.122542,0.35321 -0.338793,0.655961 -0.21625,0.295542 -0.540627,0.490168 l -0.410876,-0.533419 q 0.281126,-0.180209 0.468543,-0.425293 0.194626,-0.245084 0.30996,-0.52621 0.115333,-0.288334 0.158584,-0.583877 0.05046,-0.295543 0.05046,-0.562252 z m 0.180209,0 h 0.533419 v 0.728045 q 0,0.252292 0.03604,0.547835 0.03604,0.295543 0.12975,0.591086 0.100917,0.288334 0.273918,0.547835 0.180209,0.259501 0.461335,0.454127 l -0.367627,0.562252 q -0.324376,-0.216251 -0.540627,-0.533419 -0.209042,-0.317168 -0.324376,-0.692002 -0.108125,-0.374835 -0.158584,-0.756878 -0.04325,-0.382043 -0.04325,-0.720836 z m 1.600256,0 h 0.540627 v 0.728045 q 0,0.346001 -0.05046,0.735252 -0.04325,0.389252 -0.158584,0.764087 -0.108126,0.367626 -0.317168,0.684794 -0.209043,0.309959 -0.547836,0.519002 L 84.81428,46.75253 q 0.281127,-0.194626 0.454127,-0.446919 0.180209,-0.259501 0.273918,-0.547835 0.09371,-0.295543 0.12975,-0.583877 0.03604,-0.295543 0.03604,-0.562252 z m 0.173001,0 h 0.540627 v 0.728045 q 0,0.389251 0.0865,0.785711 0.09371,0.39646 0.30996,0.742461 0.223459,0.338793 0.598294,0.56946 l -0.418085,0.533419 q -0.425294,-0.259501 -0.677586,-0.677586 -0.245084,-0.425293 -0.346002,-0.929878 -0.09371,-0.511794 -0.09371,-1.023587 z m 3.777181,0.555044 h 3.863681 v 0.612711 h -3.863681 z m 1.939049,1.074046 q 0.446918,0 0.800128,0.201834 0.35321,0.194625 0.555044,0.540627 0.201834,0.346001 0.201834,0.800128 0,0.446918 -0.209043,0.792919 -0.201834,0.346002 -0.555043,0.547836 -0.346002,0.194625 -0.79292,0.194625 -0.446918,0 -0.800128,-0.194625 -0.35321,-0.201834 -0.562252,-0.547836 -0.201834,-0.346001 -0.201834,-0.792919 0,-0.454127 0.201834,-0.800128 0.209042,-0.346002 0.562252,-0.540627 0.35321,-0.201834 0.800128,-0.201834 z m 0,0.634335 q -0.245084,0 -0.43971,0.115334 -0.194626,0.108126 -0.309959,0.317168 -0.115334,0.201834 -0.115334,0.475752 0,0.266709 0.115334,0.475752 0.115333,0.201834 0.309959,0.317167 0.194626,0.108126 0.43971,0.108126 0.245084,0 0.43971,-0.108126 0.194626,-0.115333 0.302751,-0.317167 0.115334,-0.209043 0.115334,-0.475752 0,-0.273918 -0.115334,-0.475752 -0.108125,-0.209042 -0.302751,-0.317168 -0.194626,-0.115334 -0.43971,-0.115334 z m -0.382043,-2.638259 h 0.756878 v 1.232629 h -0.756878 z m 3.157262,-0.0865 h 0.756877 v 6.588441 h -0.756877 z m -0.980337,2.68151 h 1.564214 v 0.619919 H 93.39223 Z m 7.51112,0.612711 h 0.75687 v 1.160546 h -0.75687 z m -2.595013,-0.252293 h 5.954103 v 0.605502 h -5.954103 z m 2.962633,1.18938 q 1.06684,0 1.66513,0.309959 0.60551,0.302751 0.60551,0.865003 0,0.562252 -0.60551,0.865004 -0.59829,0.302751 -1.66513,0.302751 -1.05963,0 -1.665128,-0.302751 -0.598294,-0.302752 -0.598294,-0.865004 0,-0.562252 0.598294,-0.865003 0.605498,-0.309959 1.665128,-0.309959 z m 0,0.583877 q -0.47575,0 -0.81454,0.07208 -0.33879,0.06488 -0.519004,0.194626 -0.173,0.129751 -0.173,0.324376 0,0.194626 0.173,0.331585 0.180214,0.12975 0.519004,0.194626 0.33879,0.06488 0.81454,0.06488 0.49017,0 0.82176,-0.06488 0.33879,-0.06488 0.51179,-0.194626 0.173,-0.136959 0.173,-0.331585 0,-0.194625 -0.173,-0.324376 -0.173,-0.12975 -0.51179,-0.194626 -0.33159,-0.07208 -0.82176,-0.07208 z m -0.49017,-4.238516 h 0.67038 v 0.180209 q 0,0.30996 -0.12254,0.583877 -0.12254,0.26671 -0.35321,0.497377 -0.23067,0.223459 -0.54784,0.403668 -0.31716,0.180209 -0.713623,0.295543 -0.389251,0.115334 -0.843378,0.165792 L 98.60388,45.534317 q 0.389251,-0.03604 0.720836,-0.122542 0.338793,-0.09371 0.605502,-0.22346 0.266712,-0.12975 0.454122,-0.288334 0.18742,-0.165792 0.28834,-0.346001 0.10812,-0.187418 0.10812,-0.374835 z m 0.3388,0 h 0.67037 v 0.180209 q 0,0.194626 0.10092,0.382043 0.10092,0.180209 0.28834,0.338793 0.18741,0.158584 0.45412,0.288334 0.27392,0.129751 0.60551,0.22346 0.33879,0.0865 0.72804,0.122542 l -0.26671,0.591085 q -0.45413,-0.05046 -0.85059,-0.165792 -0.38925,-0.115334 -0.71362,-0.288334 -0.31717,-0.180209 -0.54784,-0.403669 -0.22346,-0.230667 -0.346,-0.504585 -0.12254,-0.281126 -0.12254,-0.583877 z m -2.270636,-0.288334 h 4.872856 v 0.598294 h -4.872856 z m 6.098276,0.353209 h 3.8853 v 0.598294 h -3.8853 z m 1.94625,0.87942 q 0.46855,0 0.82897,0.151376 0.36041,0.151375 0.56225,0.425293 0.20183,0.266709 0.20183,0.627127 0,0.360418 -0.20183,0.634336 -0.20184,0.266709 -0.56225,0.418085 -0.36042,0.144167 -0.82897,0.144167 -0.47575,0 -0.83617,-0.144167 -0.36041,-0.151376 -0.56225,-0.418085 -0.20183,-0.273918 -0.20183,-0.634336 0,-0.360418 0.20183,-0.627127 0.20184,-0.273918 0.56225,-0.425293 0.36042,-0.151376 0.83617,-0.151376 z m 0,0.583877 q -0.39646,0 -0.64154,0.165793 -0.23788,0.158584 -0.23788,0.454126 0,0.288335 0.23788,0.454127 0.24508,0.165792 0.64154,0.165792 0.38926,0 0.62713,-0.165792 0.23788,-0.165792 0.23788,-0.454127 0,-0.295542 -0.23788,-0.454126 -0.23787,-0.165793 -0.62713,-0.165793 z m 2.43643,-2.104841 h 0.74967 v 4.123182 h -0.74967 z m 0.54784,1.75884 h 1.13171 v 0.627127 h -1.13171 z m -4.12319,2.68151 h 4.32502 v 2.148091 h -0.74967 v -1.542589 h -3.57535 z m 0.75688,-4.476392 h 0.75688 v 1.016379 h -0.75688 z m 5.65856,0.648753 h 4.20969 v 0.61271 h -4.20969 z m -0.59829,4.490808 h 5.95411 v 0.619919 h -5.95411 z m 1.36959,-2.133674 h 0.74246 v 2.342717 h -0.74246 z m 3.20772,-2.357134 h 0.74967 v 0.684794 q 0,0.410877 -0.007,0.857795 -0.007,0.446918 -0.0577,0.96592 -0.0433,0.519002 -0.15858,1.160546 l -0.74967,-0.07929 q 0.16579,-0.908253 0.19463,-1.600256 0.0288,-0.699211 0.0288,-1.304713 z m -1.57863,2.357134 h 0.74246 v 2.342717 h -0.74246 z"
         id="text5-9-8"
         aria-label="싼허 중학교" />
    </g>
  </g>
</svg>
