<?xml version="1.0" encoding="UTF-8" standalone="no"?>
<!-- Created with Inkscape (http://www.inkscape.org/) -->

<svg
   width="500"
   height="250"
   viewBox="0 0 132.29166 66.145833"
   version="1.1"
   id="svg1"
   inkscape:version="1.3.2 (091e20e, 2023-11-25, custom)"
   sodipodi:docname="o52.svg"
   xmlns:inkscape="http://www.inkscape.org/namespaces/inkscape"
   xmlns:sodipodi="http://sodipodi.sourceforge.net/DTD/sodipodi-0.dtd"
   xmlns="http://www.w3.org/2000/svg"
   xmlns:svg="http://www.w3.org/2000/svg">
  <sodipodi:namedview
     id="namedview1"
     pagecolor="#9e652e"
     bordercolor="#ffffff"
     borderopacity="1"
     inkscape:showpageshadow="0"
     inkscape:pageopacity="0"
     inkscape:pagecheckerboard="false"
     inkscape:deskcolor="#d1d1d1"
     inkscape:document-units="mm"
     inkscape:zoom="1.4289282"
     inkscape:cx="183.0043"
     inkscape:cy="151.16225"
     inkscape:window-width="1920"
     inkscape:window-height="1009"
     inkscape:window-x="1912"
     inkscape:window-y="-8"
     inkscape:window-maximized="1"
     inkscape:current-layer="layer1"
     showguides="true">
    <sodipodi:guide
       position="142.71301,-1.1518642"
       orientation="1,0"
       id="guide4"
       inkscape:locked="false" />
  </sodipodi:namedview>
  <defs
     id="defs1">
    <rect
       x="560.66638"
       y="34.144731"
       width="279.32397"
       height="128.59143"
       id="rect6" />
    <rect
       x="157.85752"
       y="62.351248"
       width="329.07603"
       height="135.09437"
       id="rect4" />
    <rect
       x="157.85751"
       y="62.35125"
       width="329.07602"
       height="135.09438"
       id="rect4-5" />
    <rect
       x="157.85751"
       y="62.35125"
       width="329.07602"
       height="135.09438"
       id="rect4-5-7" />
    <rect
       x="157.85751"
       y="62.35125"
       width="462.90293"
       height="131.58831"
       id="rect4-5-0" />
    <rect
       x="157.85751"
       y="62.35125"
       width="329.07602"
       height="135.09438"
       id="rect4-5-79" />
    <rect
       x="157.85751"
       y="62.35125"
       width="329.07602"
       height="135.09438"
       id="rect4-5-2" />
  </defs>
  <g
     inkscape:label="Layer 1"
     inkscape:groupmode="layer"
     id="layer1">
    <rect
       style="fill:#f4eed7;fill-opacity:1;stroke:none;stroke-width:0.953294;stroke-dasharray:none"
       id="rect5"
       width="132.29167"
       height="66.145836"
       x="-2.5431316e-06"
       y="-1.2715658e-06"
       ry="0" />
    <text
       xml:space="preserve"
       transform="matrix(0.31615295,0,0,0.31615295,-10.474341,-6.4462013)"
       id="text6"
       style="font-size:55px;line-height:1.25;font-family:'Microsoft JhengHei';-inkscape-font-specification:'Microsoft JhengHei';white-space:pre;shape-inside:url(#rect6);display:inline" />
    <g
       id="g4"
       transform="matrix(0.78638341,0,0,0.78638341,6.6155942,7.0649227)">
      <path
         id="rect1"
         style="fill-opacity:0;stroke:#000000;stroke-width:0.927563"
         d="m 15.644095,14.655146 h 12.224482 c 3.863634,0 6.974069,3.110434 6.974069,6.974068 v 22.887408 c 0,3.863634 -3.110435,6.974068 -6.974069,6.974068 H 15.644095 c -3.863634,0 -6.9740682,-3.110434 -6.9740682,-6.974068 V 21.629214 c 0,-3.863634 3.1104342,-6.974068 6.9740682,-6.974068 z" />
      <path
         style="font-size:13.7225px;line-height:1.25;font-family:'AR UDJingXiHeiE1G30 EB';-inkscape-font-specification:'AR UDJingXiHeiE1G30 EB';stroke-width:0.285885"
         d="m 26.710182,26.143679 q 0,2.387715 -1.331083,3.746243 -1.31736,1.344805 -3.609017,1.344805 -2.332825,0 -3.650185,-1.358528 -1.31736,-1.358527 -1.31736,-3.73252 0,-2.41516 1.331082,-3.787409 1.331083,-1.385973 3.636463,-1.385973 2.332825,0 3.636462,1.37225 1.303638,1.37225 1.303638,3.801132 z m -4.9401,3.73252 q 1.495752,0 2.30538,-0.98802 0.82335,-0.98802 0.82335,-2.7445 0,-1.742757 -0.82335,-2.771944 -0.82335,-1.04291 -2.30538,-1.04291 -1.509475,0 -2.346548,1.056632 -0.82335,1.04291 -0.82335,2.758222 0,1.75648 0.837073,2.7445 0.837072,0.98802 2.332825,0.98802 z"
         id="text2"
         aria-label="O" />
      <path
         style="font-size:14.1593px;line-height:1.25;font-family:'AR UDJingXiHeiE1G30 EB';-inkscape-font-specification:'AR UDJingXiHeiE1G30 EB';stroke-width:0.25744"
         d="m 17.565186,39.076112 q -0.60885,0 -1.047788,0.226549 -0.438939,0.212389 -0.750443,0.651327 l -1.585842,-0.169911 0.764602,-5.394694 h 5.720357 v 1.401771 h -4.276108 l -0.396461,2.676108 q 0.353983,-0.396461 0.849558,-0.594691 0.509735,-0.212389 1.189382,-0.212389 1.458408,0 2.307966,0.948673 0.849557,0.948673 0.849557,2.591152 0,1.713275 -0.948673,2.661948 -0.948673,0.948673 -2.661948,0.948673 -1.684957,0 -2.63363,-0.835399 -0.948673,-0.835398 -0.976991,-2.251328 h 1.741593 q -0.01416,0.665487 0.453098,1.175222 0.467257,0.509734 1.373452,0.509734 0.863717,0 1.359293,-0.566372 0.509735,-0.580531 0.509735,-1.670797 0,-1.019469 -0.523894,-1.557523 -0.523894,-0.538053 -1.316815,-0.538053 z m 5.0407,-1.444249 q 0,-1.585841 0.962833,-2.492037 0.962832,-0.920354 2.520355,-0.920354 1.600001,0 2.492037,0.80708 0.906195,0.792921 0.906195,2.208851 0,1.00531 -0.651328,2.02478 -0.637168,1.00531 -2.01062,2.22301 l -1.925665,1.741594 h 4.559294 v 1.40177 h -6.895579 v -1.288496 l 2.860179,-2.576993 q 1.260178,-1.146903 1.755753,-1.953983 0.509735,-0.821239 0.509735,-1.571682 0,-0.707965 -0.41062,-1.146904 -0.410619,-0.438938 -1.189381,-0.438938 -0.778761,0 -1.260178,0.538054 -0.481416,0.538053 -0.481416,1.444248 z"
         id="text3"
         aria-label="52" />
      <path
         style="font-weight:500;font-size:72px;line-height:1.25;font-family:'Noto Sans TC';-inkscape-font-specification:'Noto Sans TC Medium';white-space:pre"
         d="m 189.75342,96.633406 h 28.08 v 5.976004 h -28.08 z m -7.272,13.896004 h 42.552 v 6.048 h -42.552 z m 5.688,9.072 6.192,1.584 q -1.656,4.464 -4.176,8.928 -2.448,4.392 -4.896,7.416 -0.648,-0.576 -1.656,-1.224 -1.008,-0.576 -2.088,-1.152 -1.008,-0.648 -1.8,-1.008 2.52,-2.736 4.752,-6.624 2.304,-3.96 3.672,-7.92 z m 23.832,2.448 5.328,-2.664 q 1.944,2.232 3.744,4.824 1.872,2.592 3.384,5.112 1.512,2.52 2.376,4.608 l -5.616,3.024 q -0.792,-2.088 -2.304,-4.68 -1.512,-2.592 -3.312,-5.256 -1.8,-2.736 -3.6,-4.968 z m -11.736,-24.048004 h 6.696 v 36.072004 q 0,2.52 -0.648,3.96 -0.576,1.512 -2.232,2.304 -1.656,0.792 -4.248,0.936 -2.52,0.216 -6.264,0.216 -0.144,-1.296 -0.792,-3.168 -0.648,-1.8 -1.368,-3.168 2.52,0.072 4.608,0.144 2.16,0 2.952,0 0.72,-0.072 1.008,-0.36 0.288,-0.288 0.288,-0.864 z m -23.976,-8.784 6.048,2.232 q -2.448,4.32 -5.616,8.640004 -3.168,4.248 -6.768,8.064 -3.528,3.816 -7.056,6.696 -0.288,-0.72 -1.008,-1.872 -0.648,-1.224 -1.368,-2.376 -0.72,-1.224 -1.296,-1.944 3.168,-2.448 6.336,-5.544 3.168,-3.096 5.904,-6.624004 2.808,-3.6 4.824,-7.272 z m -1.512,-14.544 6.048,2.376 q -2.16,3.096 -5.04,6.264 -2.88,3.168 -5.976,6.048 -3.096,2.88 -6.192,5.112 -0.432,-0.72 -1.08,-1.584 -0.648,-0.936 -1.368,-1.872 -0.648,-0.936 -1.224,-1.512 2.736,-1.944 5.544,-4.392 2.808,-2.52 5.256,-5.256 2.448,-2.736 4.032,-5.184 z m -4.824,29.376004 5.688,-5.688004 0.72,0.288 v 43.056004 h -6.408 z m 32.472,-29.664004 5.616,2.16 q -2.664,5.256 -6.48,9.936 -3.744,4.68 -8.208,8.64 -4.464,3.888 -9.216,6.912004 -0.72,-1.224 -2.016,-2.592004 -1.224,-1.44 -2.448,-2.52 4.536,-2.376 8.784,-5.904 4.32,-3.528 7.92,-7.776 3.672,-4.248 6.048,-8.856 z m 3.456,4.32 q 5.328,6.696 10.728,10.872 5.472,4.176 10.656,6.84 -1.152,1.008 -2.52,2.592 -1.296,1.512004 -1.944,2.880004 -3.528,-2.304004 -7.2,-5.112004 -3.672,-2.808 -7.416,-6.624 -3.672,-3.816 -7.632,-9.072 z m 63,13.392 h 27.216 v 5.328 h -27.216 v 33.336004 h -5.976 V 96.345406 l 3.744,-4.248 z m -23.832,33.912004 q 1.368,-1.944 3.024,-4.464 1.656,-2.592 3.384,-5.472 1.8,-2.952 3.312,-5.832 l 3.96,4.104 q -2.016,3.888 -4.392,8.136 -2.304,4.176 -4.536,7.848 z m -2.16,-25.2 3.6,-3.960004 q 2.592,1.152 5.472,2.952 2.88,1.800004 4.536,3.384004 l -3.744,4.464 q -1.512,-1.584 -4.392,-3.456 -2.808,-1.944 -5.472,-3.384 z m 3.6,-12.960004 3.6,-4.032 q 2.592,1.152 5.328,2.952 2.808,1.728 4.392,3.384 l -3.888,4.32 q -0.936,-1.008 -2.52,-2.232 -1.584,-1.224 -3.384,-2.376 -1.8,-1.224 -3.528,-2.016 z m 20.808,-4.464 5.616,1.656 q -1.584,4.392 -3.816,8.712 -2.16,4.32 -4.752,8.064004 -2.592,3.672 -5.4,6.552 -0.432,-0.648 -1.152,-1.584 -0.72,-0.936 -1.512,-1.872 -0.72,-0.936 -1.368,-1.512 3.888,-3.600004 7.128,-8.928004 3.24,-5.328 5.256,-11.088 z m -0.216,19.152004 h 26.784 v 4.824 h -26.784 z m 0,9.792 h 26.784 v 4.896 h -26.784 z m -0.504,10.296 h 29.736 v 5.328 h -29.736 z m 11.592,-27.648004 h 6.192 v 31.608004 h -6.192 z m -42.192,-17.784 h 61.128 v 5.76 h -54.504 v 55.872004 h -6.624 z m 4.176,55.872004 h 58.32 v 5.76 h -58.32 z m 36.792,-46.944004 5.976,-1.728 q 1.296,2.088 2.448,4.68 1.152,2.592 1.656,4.392 l -6.336,2.016 q -0.432,-1.872 -1.512,-4.536 -1.08,-2.664 -2.232,-4.824 z m 31.608,1.224 h 58.608 v 34.920004 h -7.056 V 94.041406 h -44.784 v 28.584004 h -6.768 z m 3.528,24.264004 h 52.056 v 6.696 h -52.056 z m 22.032,-36.936004 h 7.128 v 66.744004 h -7.128 z m 43.344,47.520004 h 64.8 v 5.544 h -64.8 z m 13.68,-12.528 h 32.976 v 4.968 h -32.976 z m 16.128,9.864 h 6.696 v 15.192 q 0,2.448 -0.72,3.744 -0.648,1.296 -2.592,2.016 -1.944,0.648 -4.896,0.72 -2.88,0.144 -7.128,0.144 -0.216,-1.296 -0.864,-2.88 -0.648,-1.584 -1.368,-2.88 2.088,0.072 3.96,0.072 1.944,0.072 3.384,0.072 1.512,0 2.016,0 0.864,0 1.152,-0.288 0.36,-0.216 0.36,-0.936 z m 15.12,-9.864 h 1.656 l 1.44,-0.36 3.888,3.528 q -2.592,1.944 -5.76,3.816 -3.168,1.872 -6.552,3.528 -3.312,1.656 -6.624,2.952 -0.576,-0.864 -1.584,-1.872 -0.936,-1.08 -1.584,-1.728 2.736,-1.008 5.616,-2.52 2.88,-1.512 5.4,-3.096 2.52,-1.656 4.104,-3.024 z m -43.488,-9.144 h 62.208 v 13.896 h -6.768 v -8.856 h -48.96 v 8.856 h -6.48 z m 51.768,-23.328004 h 6.48 q -0.216,4.248 -0.504,9 -0.288,4.752 -0.648,9.216 -0.36,4.464 -0.72,7.704004 h -6.552 q 0.432,-3.384004 0.792,-7.848004 0.432,-4.464 0.72,-9.216 0.288,-4.752 0.432,-8.856 z m -10.944,0 h 13.608 v 4.464 h -13.608 z m -22.32,-2.016 2.88,4.032 q -3.24,1.296 -7.416,2.16 -4.104,0.864 -7.344,1.368 l -2.376,-3.816 q 2.088,-0.432 4.68,-1.008 2.664,-0.648 5.184,-1.368 2.52,-0.792 4.392,-1.368 z m -10.872,9.792 h 13.32 v 4.464 h -13.32 z m 0.288,7.776 h 13.248 v 4.392 h -13.248 z m 33.336,-7.776 h 12.6 v 4.464 h -12.6 z m -0.36,7.776 h 12.456 v 4.392 h -12.456 z m -6.768,-17.496 4.536,1.296 q -2.376,3.312 -6.12,6.264 -3.744,2.952 -7.344,4.896 -0.576,-0.648 -1.728,-1.584 -1.152,-1.008 -2.016,-1.584 3.744,-1.728 7.128,-4.104 3.456,-2.448 5.544,-5.184 z m -11.232,3.528 3.24,-2.808 q 2.304,1.008 4.752,2.448 2.52,1.368 4.752,2.88 2.232,1.44 3.672,2.664 l -3.384,3.168 q -1.368,-1.296 -3.528,-2.808 -2.16,-1.512 -4.68,-2.952 -2.448,-1.512 -4.824,-2.592 z m 11.376,8.568 4.536,1.44 q -2.592,3.528 -6.48,6.696 -3.888,3.096 -7.848,5.184004 -0.504,-0.720004 -1.656,-1.800004 -1.152,-1.08 -1.872,-1.728 3.816,-1.728 7.416,-4.248 3.672,-2.592 5.904,-5.544 z m -11.664,3.6 3.24,-2.808 q 2.448,1.152 5.04,2.664 2.592,1.512 4.896,3.096 2.376,1.584 3.888,3.024 l -3.528,3.168004 q -1.368,-1.440004 -3.672,-3.024004 -2.232,-1.656 -4.824,-3.24 -2.592,-1.656 -5.04,-2.88 z m -18.36,-12.024 6.48,1.656 1.368,22.320004 h -6.408 z"
         id="text4"
         transform="matrix(0.25744134,0,0,0.25744134,-2.1090529,-3.4635139)"
         aria-label="徐匯中學" />
      <path
         style="font-size:7.20836px;line-height:1.25;font-family:'AR UDJingXiHeiE1G30 EB';-inkscape-font-specification:'AR UDJingXiHeiE1G30 EB';stroke-width:0.25744"
         d="m 41.457588,38.403087 q -0.951503,-0.173 -1.412839,-0.533418 -0.461335,-0.360418 -0.461335,-1.009171 0,-0.605502 0.490169,-1.001962 0.497377,-0.39646 1.528172,-0.39646 0.944295,0 1.463297,0.403668 0.519002,0.403669 0.569461,1.167755 h -0.915462 q -0.0072,-0.367627 -0.288334,-0.612711 -0.281126,-0.245084 -0.857795,-0.245084 -0.540627,0 -0.800128,0.180209 -0.259501,0.180209 -0.252293,0.504585 0,0.35321 0.346002,0.52621 0.353209,0.173001 1.146129,0.331585 0.994754,0.201834 1.412838,0.547835 0.425294,0.346002 0.425294,1.038004 0,0.663169 -0.562252,1.110088 -0.562253,0.43971 -1.600256,0.43971 -1.059629,0 -1.650715,-0.446919 -0.591085,-0.446918 -0.591085,-1.290296 h 0.915461 q 0,0.468543 0.35321,0.749669 0.35321,0.273918 0.980337,0.273918 0.576669,0 0.901045,-0.223459 0.324376,-0.223459 0.324376,-0.583877 0,-0.418085 -0.324376,-0.598294 -0.324376,-0.180209 -1.138921,-0.331585 z m 4.361058,-2.140883 h -1.621881 v -0.713627 h 4.152015 v 0.713627 h -1.614673 v 4.498017 h -0.915461 z m 4.288973,3.438388 v 1.059629 h -1.088462 v -1.059629 z m 3.986219,-4.152015 v 5.211644 h -0.915462 v -5.211644 z m 5.024221,4.577308 q -0.266709,0.374835 -0.670377,0.555044 -0.39646,0.173001 -0.908253,0.173001 -1.124505,0 -1.787674,-0.70642 -0.663169,-0.713627 -0.663169,-1.989507 0,-1.283088 0.699211,-1.989507 0.699211,-0.70642 1.88859,-0.70642 0.958712,0 1.557006,0.43971 0.605502,0.432502 0.728045,1.239838 h -0.915462 q -0.07208,-0.425293 -0.425293,-0.692002 -0.346002,-0.273918 -0.944296,-0.273918 -0.800128,0 -1.218212,0.519002 -0.418085,0.511793 -0.418085,1.463297 0,1.016379 0.43971,1.499339 0.43971,0.475752 1.196587,0.475752 0.66317,0 1.052421,-0.389252 0.389251,-0.389251 0.389251,-0.893836 V 38.74188 h -1.477713 v -0.713628 h 2.357133 v 2.731969 h -0.87942 z m 2.876133,-3.128428 v 3.762764 H 61.07873 v -5.211644 h 0.944295 l 2.558968,3.849264 v -3.849264 h 0.915462 v 5.211644 h -1.001962 z m 7.475064,1.657923 -0.821753,-2.227383 -0.83617,2.227383 z m -1.924632,0.713627 -0.519002,1.391214 h -0.929879 l 2.097633,-5.211644 h 0.937087 l 2.083216,5.211644 h -0.951504 l -0.52621,-1.391214 z m 5.37743,-3.106803 h -1.621881 v -0.713627 h 4.152015 v 0.713627 h -1.614672 v 4.498017 h -0.915462 z m 4.137596,-0.713627 v 5.211644 h -0.915461 v -5.211644 z m 5.56485,3.387929 q 0,0.908253 -0.56946,1.412838 -0.569461,0.504586 -1.621881,0.504586 -1.066838,0 -1.643507,-0.497377 -0.56946,-0.497377 -0.56946,-1.412839 v -3.395137 h 0.915462 v 3.351887 q 0,0.591086 0.324376,0.915462 0.324376,0.324376 0.973129,0.324376 0.61271,0 0.937086,-0.309959 0.331585,-0.317168 0.331585,-0.944296 v -3.33747 h 0.92267 z m 2.890556,-0.533419 q -0.951503,-0.173 -1.412838,-0.533418 -0.461335,-0.360418 -0.461335,-1.009171 0,-0.605502 0.490168,-1.001962 0.497377,-0.39646 1.528173,-0.39646 0.944295,0 1.463297,0.403668 0.519002,0.403669 0.56946,1.167755 H 86.77652 q -0.0072,-0.367627 -0.288335,-0.612711 -0.281126,-0.245084 -0.857795,-0.245084 -0.540627,0 -0.800128,0.180209 -0.259501,0.180209 -0.252292,0.504585 0,0.35321 0.346001,0.52621 0.35321,0.173001 1.146129,0.331585 0.994754,0.201834 1.412839,0.547835 0.425293,0.346002 0.425293,1.038004 0,0.663169 -0.562252,1.110088 -0.562252,0.43971 -1.600256,0.43971 -1.059629,0 -1.650714,-0.446919 -0.591086,-0.446918 -0.591086,-1.290296 h 0.915462 q 0,0.468543 0.353209,0.749669 0.35321,0.273918 0.980337,0.273918 0.576669,0 0.901045,-0.223459 0.324377,-0.223459 0.324377,-0.583877 0,-0.418085 -0.324377,-0.598294 -0.324376,-0.180209 -1.138921,-0.331585 z m 6.055016,0.04325 v 2.313884 H 90.65461 v -5.211644 h 0.915462 v 2.184133 h 2.501301 v -2.184133 h 0.915462 v 5.211644 h -0.915462 v -2.313884 z m 5.528812,-2.89776 v 5.211644 h -0.915461 v -5.211644 z m 5.024226,4.577308 q -0.26671,0.374835 -0.67038,0.555044 -0.39646,0.173001 -0.90825,0.173001 -1.124508,0 -1.787677,-0.70642 -0.663169,-0.713627 -0.663169,-1.989507 0,-1.283088 0.699211,-1.989507 0.699211,-0.70642 1.888595,-0.70642 0.95871,0 1.557,0.43971 0.6055,0.432502 0.72805,1.239838 h -0.91547 q -0.0721,-0.425293 -0.42529,-0.692002 -0.346,-0.273918 -0.94429,-0.273918 -0.800133,0 -1.218218,0.519002 -0.418085,0.511793 -0.418085,1.463297 0,1.016379 0.43971,1.499339 0.43971,0.475752 1.196593,0.475752 0.66316,0 1.05242,-0.389252 0.38925,-0.389251 0.38925,-0.893836 V 38.74188 h -1.47772 v -0.713628 h 2.35714 v 2.731969 h -0.87942 z m 2.87613,-1.679548 v 2.313884 h -0.91546 v -5.211644 h 0.91546 v 2.184133 h 2.5013 v -2.184133 h 0.91546 v 5.211644 h -0.91546 v -2.313884 z m 8.23194,-0.04325 q -0.95151,-0.173 -1.41284,-0.533418 -0.46134,-0.360418 -0.46134,-1.009171 0,-0.605502 0.49017,-1.001962 0.49738,-0.39646 1.52818,-0.39646 0.94429,0 1.46329,0.403668 0.519,0.403669 0.56946,1.167755 h -0.91546 q -0.007,-0.367627 -0.28833,-0.612711 -0.28113,-0.245084 -0.8578,-0.245084 -0.54063,0 -0.80013,0.180209 -0.2595,0.180209 -0.25229,0.504585 0,0.35321 0.346,0.52621 0.35321,0.173001 1.14613,0.331585 0.99476,0.201834 1.41284,0.547835 0.42529,0.346002 0.42529,1.038004 0,0.663169 -0.56225,1.110088 -0.56225,0.43971 -1.60025,0.43971 -1.05963,0 -1.65072,-0.446919 -0.59108,-0.446918 -0.59108,-1.290296 h 0.91546 q 0,0.468543 0.35321,0.749669 0.35321,0.273918 0.98033,0.273918 0.57667,0 0.90105,-0.223459 0.32438,-0.223459 0.32438,-0.583877 0,-0.418085 -0.32438,-0.598294 -0.32438,-0.180209 -1.13892,-0.331585 z m 6.95607,0.540627 h 0.91546 q -0.036,0.857795 -0.59829,1.384005 -0.56226,0.526211 -1.62909,0.526211 -1.26147,0 -1.93184,-0.713628 -0.66317,-0.713628 -0.66317,-1.982299 0,-1.254255 0.66317,-1.975091 0.67037,-0.720836 1.91742,-0.720836 1.00196,0 1.55701,0.461335 0.55504,0.454127 0.63433,1.182171 h -0.91546 q -0.0577,-0.418085 -0.38204,-0.670377 -0.32438,-0.259501 -0.91546,-0.259501 -0.72805,0 -1.16776,0.490168 -0.43971,0.490169 -0.43971,1.492131 0,1.016379 0.43971,1.499339 0.44692,0.48296 1.18217,0.48296 0.62713,0 0.96592,-0.324376 0.3388,-0.331585 0.36763,-0.872212 z m 2.72475,-0.497377 v 2.313884 h -0.91546 v -5.211644 h 0.91546 v 2.184133 h 2.5013 v -2.184133 h 0.91547 v 5.211644 h -0.91547 v -2.313884 z m 9.62317,-0.266709 q 0,1.254255 -0.69921,1.967882 -0.69201,0.70642 -1.8958,0.70642 -1.22542,0 -1.91743,-0.713628 -0.692,-0.713628 -0.692,-1.960674 0,-1.268671 0.69921,-1.989507 0.69921,-0.728045 1.91022,-0.728045 1.22542,0 1.91021,0.720836 0.6848,0.720836 0.6848,1.996716 z m -2.59501,1.960674 q 0.78571,0 1.211,-0.519002 0.4325,-0.519002 0.4325,-1.441672 0,-0.915462 -0.4325,-1.456089 -0.4325,-0.547835 -1.211,-0.547835 -0.79292,0 -1.23263,0.555044 -0.4325,0.547835 -0.4325,1.44888 0,0.92267 0.43971,1.441672 0.43971,0.519002 1.22542,0.519002 z m 8.59957,-1.960674 q 0,1.254255 -0.69921,1.967882 -0.692,0.70642 -1.8958,0.70642 -1.22542,0 -1.91742,-0.713628 -0.69201,-0.713628 -0.69201,-1.960674 0,-1.268671 0.69921,-1.989507 0.69922,-0.728045 1.91022,-0.728045 1.22542,0 1.91022,0.720836 0.68479,0.720836 0.68479,1.996716 z m -2.59501,1.960674 q 0.78571,0 1.211,-0.519002 0.43251,-0.519002 0.43251,-1.441672 0,-0.915462 -0.43251,-1.456089 -0.4325,-0.547835 -1.211,-0.547835 -0.79292,0 -1.23263,0.555044 -0.4325,0.547835 -0.4325,1.44888 0,0.92267 0.43971,1.441672 0.43971,0.519002 1.22542,0.519002 z m 7.25162,0.619919 h -3.66185 v -5.211644 h 0.91546 v 4.498016 h 2.74639 z"
         id="text5"
         aria-label="ST. IGNATIUS HIGH SCHOOL" />
      <path
         d="m 43.543163,43.971131 q -0.209043,0.331584 -0.533419,0.706419 -0.324376,0.374835 -0.720836,0.735253 -0.389251,0.35321 -0.807336,0.634336 -0.05767,-0.122543 -0.165792,-0.288335 -0.108126,-0.173 -0.209043,-0.273918 0.432502,-0.266709 0.828962,-0.634335 0.403668,-0.374835 0.735252,-0.778503 0.331585,-0.403668 0.526211,-0.756878 h 0.641544 q 0.281126,0.39646 0.641544,0.79292 0.360418,0.396459 0.764086,0.742461 0.403668,0.338793 0.800128,0.56946 -0.100917,0.122542 -0.216251,0.295543 -0.108125,0.165792 -0.187417,0.309959 -0.374835,-0.266709 -0.771295,-0.619919 -0.39646,-0.353209 -0.742461,-0.728044 -0.346001,-0.374835 -0.583877,-0.706419 z m -1.347964,1.470505 h 2.811261 v 0.598294 h -2.811261 z m -0.728044,1.391214 h 4.260141 v 0.605502 h -4.260141 z m 0.569461,0.908253 0.619919,0.158584 q -0.158584,0.446918 -0.410877,0.893837 -0.245084,0.43971 -0.497377,0.742461 -0.06488,-0.05767 -0.165792,-0.122542 -0.100917,-0.05767 -0.209043,-0.115334 -0.100917,-0.06487 -0.180209,-0.100917 0.259501,-0.273918 0.482961,-0.663169 0.223459,-0.389252 0.360418,-0.79292 z m 2.385967,0.245084 0.533418,-0.266709 q 0.201835,0.216251 0.382044,0.475752 0.187417,0.259501 0.338792,0.519002 0.158584,0.252292 0.245085,0.454127 l -0.576669,0.309959 Q 45.265961,49.269276 45.114585,49.009775 44.96321,48.750274 44.783001,48.483564 44.602792,48.209647 44.422583,47.986187 Z M 43.24762,45.578595 h 0.670378 v 3.611389 q 0,0.252292 -0.06488,0.396459 -0.05767,0.151376 -0.223459,0.230668 -0.165792,0.07929 -0.425293,0.09371 -0.252293,0.02163 -0.627127,0.02163 -0.01442,-0.129751 -0.07929,-0.317168 -0.06488,-0.180209 -0.136959,-0.317168 0.252292,0.0072 0.461335,0.01442 0.216251,0 0.295543,0 0.07208,-0.0072 0.100917,-0.03604 0.02883,-0.02883 0.02883,-0.0865 z m -2.400384,-0.828961 0.605502,0.223459 q -0.245084,0.432501 -0.562252,0.865003 -0.317168,0.425293 -0.677586,0.807336 -0.353209,0.374835 -0.706419,0.670378 -0.02883,-0.07929 -0.100917,-0.194626 -0.06488,-0.115334 -0.136959,-0.237876 -0.07208,-0.122542 -0.12975,-0.187417 0.317168,-0.245084 0.634335,-0.555044 0.317168,-0.309959 0.591086,-0.663169 0.281126,-0.360418 0.48296,-0.728044 z m -0.151375,-1.506548 0.605502,0.237876 q -0.216251,0.30996 -0.504585,0.627128 -0.288335,0.317168 -0.598294,0.605502 -0.30996,0.288334 -0.619919,0.511793 -0.04325,-0.07208 -0.108126,-0.158583 -0.06488,-0.09371 -0.136959,-0.187418 -0.06488,-0.09371 -0.122542,-0.151375 0.273918,-0.194626 0.555044,-0.43971 0.281126,-0.252293 0.52621,-0.526211 0.245085,-0.273917 0.403669,-0.519002 z m -0.482961,2.941011 0.569461,-0.56946 0.07208,0.02883 v 4.3106 H 40.2129 Z m 9.882662,-1.117295 h 2.652677 v 0.504585 h -2.652677 v 3.157262 H 49.497268 V 45.47047 l 0.382043,-0.403668 z m 1.138921,-0.79292 0.627127,0.151376 q -0.122542,0.281126 -0.252292,0.562252 -0.129751,0.273917 -0.245084,0.475751 l -0.526211,-0.144167 q 0.108126,-0.209042 0.216251,-0.511793 0.115334,-0.302752 0.180209,-0.533419 z m -3.460013,4.036682 q 0.187418,-0.259501 0.418085,-0.641544 0.237876,-0.382043 0.446918,-0.764087 l 0.403669,0.382044 q -0.180209,0.346001 -0.389252,0.728044 -0.209042,0.374835 -0.418085,0.706419 z m -0.266709,-2.443634 0.35321,-0.382044 q 0.245084,0.108126 0.511793,0.26671 0.266709,0.158584 0.418085,0.302751 l -0.367626,0.425293 q -0.144168,-0.144167 -0.410877,-0.317168 -0.259501,-0.173 -0.504585,-0.295542 z m 0.367626,-1.218213 0.367627,-0.374835 q 0.237876,0.108125 0.497377,0.273918 0.266709,0.158584 0.410876,0.302751 l -0.389251,0.410876 q -0.136959,-0.151375 -0.39646,-0.324376 -0.252293,-0.173001 -0.490169,-0.288334 z m 2.061591,-0.432502 0.562252,0.151376 q -0.237875,0.65596 -0.61271,1.261463 -0.367627,0.598294 -0.785711,1.00917 -0.03604,-0.05767 -0.115334,-0.144167 -0.07208,-0.09371 -0.151376,-0.180209 -0.07208,-0.09371 -0.12975,-0.151376 0.382043,-0.353209 0.706419,-0.865003 0.331585,-0.519002 0.52621,-1.081254 z m -0.01442,1.830924 h 2.652676 v 0.461335 h -2.652676 z m 0,0.958711 h 2.652676 v 0.461336 h -2.652676 z m -0.05046,0.980337 h 2.962636 v 0.504586 h -2.962636 z m 1.030796,-2.623843 h 0.598293 v 2.998678 h -0.598293 z m -4.058307,-1.816506 h 6.083856 v 0.61271 h -5.420687 v 5.781105 h -0.663169 z m 0.432501,5.442312 h 5.845981 v 0.627127 h -5.845981 z m 6.59565,-5.096311 h 6.292898 v 0.583877 h -6.292898 z m 2.760802,-0.655961 h 0.699211 v 0.944295 h -0.699211 z m -2.450843,3.510471 h 5.31977 v 0.576669 h -4.6566 v 2.616635 h -0.66317 z m 5.053061,0 h 0.677586 v 2.42201 q 0,0.2595 -0.06487,0.410876 -0.06488,0.151376 -0.252293,0.230668 -0.187417,0.07929 -0.48296,0.09371 -0.295543,0.02163 -0.720836,0.02163 -0.02163,-0.144167 -0.0865,-0.331584 -0.06488,-0.180209 -0.129751,-0.30996 0.30996,0.0072 0.562252,0.0072 0.259501,0 0.346001,-0.0072 0.0865,0 0.115334,-0.02883 0.03604,-0.02883 0.03604,-0.09371 z M 55.646,47.726686 h 0.591085 V 49.64411 H 55.646 Z m 0.309959,0 h 2.443634 v 1.571423 h -2.443634 v -0.475752 h 1.838132 v -0.619919 h -1.838132 z m -0.237876,-2.429217 v 0.583877 h 2.580593 v -0.583877 z m -0.655961,-0.468543 h 3.921348 v 1.53538 h -3.921348 z m 8.462615,-0.547836 h 3.979015 v 0.627128 h -3.979015 z m 1.636298,-1.038004 h 0.670377 v 1.326339 h -0.670377 z m -0.735253,1.816507 0.619919,0.252293 q -0.230668,0.454127 -0.562252,0.893836 -0.324376,0.432502 -0.684795,0.742462 -0.07929,-0.09371 -0.223459,-0.216251 -0.136959,-0.129751 -0.245084,-0.209043 0.331585,-0.273917 0.627127,-0.677586 0.295543,-0.403668 0.468544,-0.785711 z m 1.499339,0.273918 0.533418,-0.295543 q 0.22346,0.230668 0.454127,0.504585 0.230668,0.26671 0.418085,0.533419 0.194626,0.266709 0.302751,0.490168 l -0.576669,0.331585 Q 66.955916,46.674266 66.775707,46.407557 66.595498,46.133639 66.372039,45.852513 66.14858,45.571387 65.925121,45.333511 Z m -1.131713,1.059629 q 0.245084,0.670377 0.648753,1.254255 0.410876,0.576668 0.96592,1.016378 0.555044,0.43971 1.239838,0.684795 -0.07929,0.06488 -0.173001,0.173 -0.0865,0.108126 -0.173,0.223459 -0.07929,0.115334 -0.136959,0.209043 -0.70642,-0.302751 -1.27588,-0.800128 -0.562252,-0.497377 -0.987545,-1.153338 -0.418085,-0.663169 -0.699211,-1.441672 z m 1.268672,-0.04325 0.692002,0.136959 q -0.245084,0.778502 -0.663169,1.44888 -0.418085,0.670377 -1.038004,1.182171 -0.619919,0.511794 -1.484922,0.83617 -0.03604,-0.07929 -0.100917,-0.180209 -0.05767,-0.09371 -0.129751,-0.194626 -0.06488,-0.09371 -0.122542,-0.165792 0.79292,-0.281126 1.36238,-0.735253 0.576669,-0.461335 0.944296,-1.052421 0.367626,-0.598293 0.540627,-1.275879 z m -5.081894,-1.58584 h 2.472467 v 0.634336 h -2.472467 z m 0.994753,-1.520964 h 0.634336 v 6.68215 h -0.634336 z m -0.01442,1.939049 0.410876,0.136959 q -0.0865,0.432502 -0.216251,0.901045 -0.122542,0.461335 -0.281126,0.908254 -0.158584,0.43971 -0.338793,0.828961 -0.180209,0.382043 -0.382043,0.655961 -0.05046,-0.136959 -0.151375,-0.30996 -0.09371,-0.180209 -0.180209,-0.302751 0.187417,-0.237876 0.353209,-0.562252 0.173001,-0.331584 0.324377,-0.713628 0.151375,-0.382043 0.266709,-0.771294 0.122542,-0.39646 0.194626,-0.771295 z m 0.619919,0.641544 q 0.06488,0.07929 0.194625,0.26671 0.136959,0.187417 0.295543,0.418085 0.158584,0.223459 0.288335,0.418084 0.12975,0.187418 0.180209,0.273918 L 63.15711,47.71227 q -0.06488,-0.151376 -0.180209,-0.367627 -0.115333,-0.21625 -0.252292,-0.454126 -0.129751,-0.237876 -0.252293,-0.43971 -0.122542,-0.209043 -0.201834,-0.331585 z"
         id="text5-9"
         style="font-weight:500;font-size:7.20836px;line-height:1.25;font-family:'Noto Sans JP';-inkscape-font-specification:'Noto Sans JP Medium';stroke-width:0.25744"
         aria-label="徐匯高校" />
      <path
         style="font-weight:500;font-size:7.20836px;line-height:1.25;font-family:'Noto Sans KR';-inkscape-font-specification:'Noto Sans KR Medium';stroke-width:0.25744"
         d="m 79.402146,43.696185 h 0.619919 v 0.374835 q 0,0.547835 -0.223459,1.023587 -0.223459,0.468543 -0.648752,0.807336 -0.418085,0.331585 -1.023587,0.504585 l -0.35321,-0.598294 q 0.52621,-0.136958 0.886628,-0.396459 0.360418,-0.259501 0.547836,-0.605503 0.194625,-0.353209 0.194625,-0.735252 z m 0.151376,0 h 0.627127 v 0.374835 q 0,0.360418 0.180209,0.684794 0.187418,0.317168 0.540627,0.555044 0.35321,0.237875 0.865003,0.360418 l -0.331584,0.591085 q -0.605502,-0.151375 -1.023587,-0.461335 -0.418085,-0.317168 -0.641544,-0.756878 -0.216251,-0.43971 -0.216251,-0.973128 z m -0.115334,3.409554 h 0.764086 v 2.695927 h -0.764086 z m 2.904969,-3.683472 h 0.74967 v 6.588441 h -0.74967 z m -4.606142,4.101557 -0.09371,-0.619919 q 0.605503,0 1.326339,-0.0072 0.720836,-0.01442 1.477713,-0.05767 0.756878,-0.05046 1.463298,-0.151376 l 0.05046,0.547836 q -0.720836,0.136959 -1.470505,0.201834 -0.74967,0.05767 -1.456089,0.07208 -0.699211,0.01442 -1.297505,0.01442 z m 6.833526,-3.380721 h 5.326978 v 0.598294 h -5.326978 z m -0.295543,3.546513 h 5.968523 v 0.605503 h -5.968523 z m 2.59501,0.519002 h 0.756878 v 1.80209 h -0.756878 z m 0.382043,-3.142845 q 1.030796,0 1.607464,0.288335 0.583878,0.288334 0.583878,0.828961 0,0.533419 -0.583878,0.821753 -0.576668,0.288335 -1.607464,0.288335 -1.038004,0 -1.614673,-0.288335 -0.576668,-0.288334 -0.576668,-0.821753 0,-0.540627 0.576668,-0.828961 0.583878,-0.288335 1.614673,-0.288335 z m 0,0.569461 q -0.692003,0 -1.052421,0.136959 -0.360418,0.136958 -0.360418,0.410876 0,0.26671 0.360418,0.403668 0.360418,0.136959 1.052421,0.136959 0.684794,0 1.045212,-0.136959 0.360418,-0.136958 0.360418,-0.403668 0,-0.273918 -0.360418,-0.410876 -0.360418,-0.136959 -1.045212,-0.136959 z m -0.382043,-2.2418 h 0.756878 v 1.146129 h -0.756878 z m 8.700491,0.02163 h 0.756878 v 6.602858 h -0.756878 z m -2.746385,0.48296 q 0.490169,0 0.872212,0.288334 0.389251,0.288335 0.605502,0.807337 0.216251,0.519002 0.216251,1.225421 0,0.713628 -0.216251,1.239838 -0.216251,0.519002 -0.605502,0.807336 -0.382043,0.281126 -0.872212,0.281126 -0.490168,0 -0.87942,-0.281126 -0.382043,-0.288334 -0.605502,-0.807336 -0.216251,-0.52621 -0.216251,-1.239838 0,-0.706419 0.216251,-1.225421 0.223459,-0.519002 0.605502,-0.807337 0.389252,-0.288334 0.87942,-0.288334 z m 0,0.684794 q -0.288334,0 -0.511794,0.194626 -0.21625,0.194626 -0.338792,0.562252 -0.122543,0.367626 -0.122543,0.87942 0,0.519002 0.122543,0.886628 0.122542,0.367627 0.338792,0.569461 0.22346,0.194625 0.511794,0.194625 0.288334,0 0.504585,-0.194625 0.216251,-0.201834 0.338793,-0.569461 0.122542,-0.367626 0.122542,-0.886628 0,-0.511794 -0.122542,-0.87942 -0.122542,-0.367626 -0.338793,-0.562252 -0.216251,-0.194626 -0.504585,-0.194626 z m 7.352536,-0.547835 h 4.20968 v 0.61271 h -4.20968 z m -0.619922,4.490808 h 5.954102 v 0.619919 h -5.954102 z m 2.220172,-2.313883 h 0.75688 v 2.616634 h -0.75688 z m 2.33551,-2.176925 h 0.74967 v 0.641544 q 0,0.410876 -0.007,0.865003 -0.007,0.454127 -0.0577,1.001962 -0.0505,0.547836 -0.18021,1.23263 l -0.75688,-0.0865 q 0.18742,-0.96592 0.21625,-1.693964 0.036,-0.728045 0.036,-1.31913 z m 2.08322,2.465259 h 5.9541 v 0.619919 h -5.9541 z m 0.73525,-1.153338 h 4.52685 v 0.605503 h -4.52685 z m 0,-1.701173 h 4.49081 v 0.612711 h -3.74114 v 1.376797 h -0.74967 z m 2.22018,3.95739 q 1.06683,0 1.66513,0.317168 0.6055,0.309959 0.6055,0.886628 0,0.569461 -0.6055,0.87942 -0.5983,0.30996 -1.66513,0.30996 -1.05243,0 -1.65793,-0.30996 -0.6055,-0.309959 -0.6055,-0.87942 0,-0.576669 0.6055,-0.886628 0.6055,-0.317168 1.65793,-0.317168 z m 0,0.583877 q -0.47576,0 -0.81455,0.07208 -0.33879,0.07208 -0.519,0.209042 -0.173,0.129751 -0.173,0.338793 0,0.201834 0.173,0.338793 0.18021,0.136959 0.519,0.209043 0.33879,0.06488 0.81455,0.06488 0.49016,0 0.82175,-0.06488 0.33879,-0.07208 0.51179,-0.209043 0.173,-0.136959 0.173,-0.338793 0,-0.209042 -0.173,-0.338793 -0.173,-0.136958 -0.51179,-0.209042 -0.33159,-0.07208 -0.82175,-0.07208 z m 3.67626,-4.123182 h 3.8853 v 0.598294 h -3.8853 z m 1.94626,0.87942 q 0.46854,0 0.82896,0.151376 0.36042,0.151375 0.56225,0.425293 0.20183,0.266709 0.20183,0.627127 0,0.360418 -0.20183,0.634336 -0.20183,0.266709 -0.56225,0.418085 -0.36042,0.144167 -0.82896,0.144167 -0.47576,0 -0.83617,-0.144167 -0.36042,-0.151376 -0.56226,-0.418085 -0.20183,-0.273918 -0.20183,-0.634336 0,-0.360418 0.20183,-0.627127 0.20184,-0.273918 0.56226,-0.425293 0.36041,-0.151376 0.83617,-0.151376 z m 0,0.583877 q -0.39646,0 -0.64155,0.165793 -0.23787,0.158584 -0.23787,0.454126 0,0.288335 0.23787,0.454127 0.24509,0.165792 0.64155,0.165792 0.38925,0 0.62712,-0.165792 0.23788,-0.165792 0.23788,-0.454127 0,-0.295542 -0.23788,-0.454126 -0.23787,-0.165793 -0.62712,-0.165793 z M 117.21,43.422267 h 0.74967 v 4.123182 H 117.21 Z m 0.54784,1.75884 h 1.13171 v 0.627127 h -1.13171 z m -4.12319,2.68151 h 4.32502 v 2.148091 H 117.21 v -1.542589 h -3.57535 z m 0.75688,-4.476392 h 0.75688 v 1.016379 h -0.75688 z m 5.65857,0.648753 h 4.20968 v 0.61271 h -4.20968 z m -0.5983,4.490808 h 5.95411 v 0.619919 h -5.95411 z m 1.36959,-2.133674 h 0.74246 v 2.342717 h -0.74246 z m 3.20772,-2.357134 h 0.74967 v 0.684794 q 0,0.410877 -0.007,0.857795 -0.007,0.446918 -0.0577,0.96592 -0.0433,0.519002 -0.15859,1.160546 l -0.74967,-0.07929 q 0.1658,-0.908253 0.19463,-1.600256 0.0288,-0.699211 0.0288,-1.304713 z m -1.57863,2.357134 h 0.74246 v 2.342717 h -0.74246 z"
         id="text5-9-8"
         aria-label="쉬후이 고등학교" />
    </g>
  </g>
</svg>
