<?xml version="1.0" encoding="UTF-8" standalone="no"?>
<!-- Created with Inkscape (http://www.inkscape.org/) -->

<svg
   width="500"
   height="250"
   viewBox="0 0 132.29166 66.145833"
   version="1.1"
   id="svg1"
   inkscape:version="1.3.2 (091e20e, 2023-11-25, custom)"
   sodipodi:docname="o53.svg"
   xmlns:inkscape="http://www.inkscape.org/namespaces/inkscape"
   xmlns:sodipodi="http://sodipodi.sourceforge.net/DTD/sodipodi-0.dtd"
   xmlns="http://www.w3.org/2000/svg"
   xmlns:svg="http://www.w3.org/2000/svg">
  <sodipodi:namedview
     id="namedview1"
     pagecolor="#9e652e"
     bordercolor="#ffffff"
     borderopacity="1"
     inkscape:showpageshadow="0"
     inkscape:pageopacity="0"
     inkscape:pagecheckerboard="false"
     inkscape:deskcolor="#d1d1d1"
     inkscape:document-units="mm"
     inkscape:zoom="2.0208096"
     inkscape:cx="279.83834"
     inkscape:cy="130.14586"
     inkscape:window-width="1920"
     inkscape:window-height="1009"
     inkscape:window-x="1912"
     inkscape:window-y="-8"
     inkscape:window-maximized="1"
     inkscape:current-layer="layer1"
     showguides="true">
    <sodipodi:guide
       position="142.71301,-1.1518642"
       orientation="1,0"
       id="guide4"
       inkscape:locked="false" />
  </sodipodi:namedview>
  <defs
     id="defs1">
    <rect
       x="560.66638"
       y="34.144731"
       width="279.32397"
       height="128.59143"
       id="rect6" />
    <rect
       x="157.85752"
       y="62.351248"
       width="329.07603"
       height="135.09437"
       id="rect4" />
    <rect
       x="157.85751"
       y="62.35125"
       width="329.07602"
       height="135.09438"
       id="rect4-5" />
    <rect
       x="157.85751"
       y="62.35125"
       width="329.07602"
       height="135.09438"
       id="rect4-5-7" />
    <rect
       x="157.85751"
       y="62.35125"
       width="462.90293"
       height="131.58831"
       id="rect4-5-0" />
    <rect
       x="157.85751"
       y="62.35125"
       width="329.07602"
       height="135.09438"
       id="rect4-5-79" />
    <rect
       x="157.85751"
       y="62.35125"
       width="329.07602"
       height="135.09438"
       id="rect4-5-2" />
    <rect
       x="157.85751"
       y="62.35125"
       width="329.07602"
       height="135.09438"
       id="rect4-5-6" />
  </defs>
  <g
     inkscape:label="Layer 1"
     inkscape:groupmode="layer"
     id="layer1">
    <rect
       style="fill:#f4eed7;fill-opacity:1;stroke:none;stroke-width:0.953294;stroke-dasharray:none"
       id="rect5"
       width="132.29167"
       height="66.145836"
       x="-2.5431316e-06"
       y="-1.2715658e-06"
       ry="0" />
    <text
       xml:space="preserve"
       transform="matrix(0.31615295,0,0,0.31615295,-10.474341,-6.4462013)"
       id="text6"
       style="font-size:55px;line-height:1.25;font-family:'Microsoft JhengHei';-inkscape-font-specification:'Microsoft JhengHei';white-space:pre;shape-inside:url(#rect6);display:inline" />
    <g
       id="g5"
       transform="translate(-12.469004)">
      <path
         style="font-weight:500;font-size:72px;line-height:1.25;font-family:'Noto Sans TC';-inkscape-font-specification:'Noto Sans TC Medium';white-space:pre"
         d="m 190.61742,116.64941 h 7.128 v 20.016 h -7.128 z m -27.72,-34.056004 h 61.848 v 15.336 h -7.056 v -9.072 h -48.096 v 10.656 h -6.696 z m 7.128,30.744004 h 48.312 v 6.336 h -48.312 z m -7.2,20.16 h 62.424 v 6.48 h -62.424 z m 24.624,-57.384004 7.128,-1.944 q 1.368,2.376 2.736,5.328 1.44,2.88 2.088,4.896 l -7.488,2.304 q -0.576,-2.088 -1.872,-5.04 -1.296,-3.024 -2.592,-5.544 z m -3.6,11.16 h 6.984 q -0.36,5.112 -1.44,8.928 -1.008,3.816004 -3.6,6.624004 -2.52,2.736 -7.2,4.608 -4.608,1.8 -12.096,2.952 -0.216,-0.864 -0.72,-1.872 -0.504,-1.08 -1.224,-2.088 -0.648,-1.008 -1.296,-1.656 6.696,-0.792 10.656,-2.088 3.96,-1.368 5.976,-3.384004 2.088,-2.088 2.88,-5.04 0.864,-2.952 1.08,-6.984 z m 14.688,-0.072 h 6.696 v 12.024 q 0,1.512004 0.432,2.160004 0.504,0.576 2.088,0.576 0.576,0 2.16,0 1.656,0 3.528,0 1.944,0 3.528,0 1.656,0 2.376,0 1.44,0 3.312,-0.072 1.944,-0.144 3.024,-0.36 0.144,1.296 0.288,3.096 0.144,1.728 0.36,2.952 -1.008,0.288 -2.88,0.36 -1.872,0.072 -3.816,0.072 -0.72,0 -2.448,0 -1.728,0 -3.744,0 -1.944,0 -3.6,0 -1.584,0 -2.232,0 -3.528,0 -5.544,-0.792 -2.016,-0.864 -2.808,-2.808 -0.72,-2.016 -0.72,-5.256004 z m 38.016,0.144 h 58.608 v 34.920004 h -7.056 V 94.041406 h -44.784 v 28.584004 h -6.768 z m 3.528,24.264004 h 52.056 v 6.696 h -52.056 z m 22.032,-36.936004 h 7.128 v 66.744004 h -7.128 z m 44.064,20.088 h 63.648 v 7.056004 h -63.648 z m 35.856,2.808 q 2.304,8.496004 6.192,15.840004 3.96,7.344 9.648,12.888 5.76,5.472 13.32,8.64 -0.864,0.72 -1.872,1.872 -0.936,1.152 -1.8,2.304 -0.864,1.224 -1.44,2.16 -7.992,-3.744 -13.968,-9.864 -5.904,-6.192 -10.008,-14.328 -4.104,-8.136 -6.912,-17.856004 z m -7.92,-22.896 h 7.416 q 0,5.112 -0.288,11.016 -0.216,5.832 -1.08,12.024 -0.864,6.192004 -2.808,12.384004 -1.944,6.192 -5.4,11.952 -3.456,5.76 -8.856,10.728 -5.4,4.896 -13.176,8.568 -0.864,-1.368 -2.304,-3.024 -1.44,-1.584 -2.88,-2.664 7.488,-3.384 12.6,-7.848 5.184,-4.536 8.352,-9.792 3.24,-5.328 4.968,-11.016 1.728,-5.688 2.448,-11.376004 0.72,-5.688 0.864,-11.016 0.144,-5.328 0.144,-9.936 z m 43.344,47.520004 h 64.8 v 5.544 h -64.8 z m 13.68,-12.528 h 32.976 v 4.968 h -32.976 z m 16.128,9.864 h 6.696 v 15.192 q 0,2.448 -0.72,3.744 -0.648,1.296 -2.592,2.016 -1.944,0.648 -4.896,0.72 -2.88,0.144 -7.128,0.144 -0.216,-1.296 -0.864,-2.88 -0.648,-1.584 -1.368,-2.88 2.088,0.072 3.96,0.072 1.944,0.072 3.384,0.072 1.512,0 2.016,0 0.864,0 1.152,-0.288 0.36,-0.216 0.36,-0.936 z m 15.12,-9.864 h 1.656 l 1.44,-0.36 3.888,3.528 q -2.592,1.944 -5.76,3.816 -3.168,1.872 -6.552,3.528 -3.312,1.656 -6.624,2.952 -0.576,-0.864 -1.584,-1.872 -0.936,-1.08 -1.584,-1.728 2.736,-1.008 5.616,-2.52 2.88,-1.512 5.4,-3.096 2.52,-1.656 4.104,-3.024 z m -43.488,-9.144 h 62.208 v 13.896 h -6.768 v -8.856 h -48.96 v 8.856 h -6.48 z m 51.768,-23.328004 h 6.48 q -0.216,4.248 -0.504,9 -0.288,4.752 -0.648,9.216 -0.36,4.464 -0.72,7.704004 h -6.552 q 0.432,-3.384004 0.792,-7.848004 0.432,-4.464 0.72,-9.216 0.288,-4.752 0.432,-8.856 z m -10.944,0 h 13.608 v 4.464 h -13.608 z m -22.32,-2.016 2.88,4.032 q -3.24,1.296 -7.416,2.16 -4.104,0.864 -7.344,1.368 l -2.376,-3.816 q 2.088,-0.432 4.68,-1.008 2.664,-0.648 5.184,-1.368 2.52,-0.792 4.392,-1.368 z m -10.872,9.792 h 13.32 v 4.464 h -13.32 z m 0.288,7.776 h 13.248 v 4.392 h -13.248 z m 33.336,-7.776 h 12.6 v 4.464 h -12.6 z m -0.36,7.776 h 12.456 v 4.392 h -12.456 z m -6.768,-17.496 4.536,1.296 q -2.376,3.312 -6.12,6.264 -3.744,2.952 -7.344,4.896 -0.576,-0.648 -1.728,-1.584 -1.152,-1.008 -2.016,-1.584 3.744,-1.728 7.128,-4.104 3.456,-2.448 5.544,-5.184 z m -11.232,3.528 3.24,-2.808 q 2.304,1.008 4.752,2.448 2.52,1.368 4.752,2.88 2.232,1.44 3.672,2.664 l -3.384,3.168 q -1.368,-1.296 -3.528,-2.808 -2.16,-1.512 -4.68,-2.952 -2.448,-1.512 -4.824,-2.592 z m 11.376,8.568 4.536,1.44 q -2.592,3.528 -6.48,6.696 -3.888,3.096 -7.848,5.184004 -0.504,-0.720004 -1.656,-1.800004 -1.152,-1.08 -1.872,-1.728 3.816,-1.728 7.416,-4.248 3.672,-2.592 5.904,-5.544 z m -11.664,3.6 3.24,-2.808 q 2.448,1.152 5.04,2.664 2.592,1.512 4.896,3.096 2.376,1.584 3.888,3.024 l -3.528,3.168004 q -1.368,-1.440004 -3.672,-3.024004 -2.232,-1.656 -4.824,-3.24 -2.592,-1.656 -5.04,-2.88 z m -18.36,-12.024 6.48,1.656 1.368,22.320004 h -6.408 z"
         id="text4-0"
         transform="matrix(0.10548954,0,0,0.10548954,83.704485,11.461147)"
         aria-label="空中大學" />
      <path
         style="font-size:2.90076px;line-height:1.25;font-family:'AR UDJingXiHeiE1G30 EB';-inkscape-font-specification:'AR UDJingXiHeiE1G30 EB';stroke-width:0.103598"
         d="m 101.27891,28.035271 v 1.514196 h -0.3684 v -2.097249 h 0.38 l 1.02977,1.549006 v -1.549006 h 0.3684 v 2.097249 h -0.40321 z m 3.00808,0.667175 -0.33068,-0.896335 -0.33649,0.896335 z m -0.7745,0.287175 -0.20886,0.559846 h -0.37419 l 0.84412,-2.097249 h 0.3771 l 0.83832,2.097249 h -0.3829 l -0.21176,-0.559846 z m 2.16396,-1.250228 h -0.65267 v -0.287175 h 1.67084 v 0.287175 h -0.64977 v 1.810074 h -0.3684 z m 1.66504,-0.287175 v 2.097249 h -0.3684 v -2.097249 z m 2.49755,1.058777 q 0,0.504733 -0.28137,0.791908 -0.27848,0.284274 -0.7629,0.284274 -0.49313,0 -0.7716,-0.287175 -0.27848,-0.287175 -0.27848,-0.789007 0,-0.510533 0.28138,-0.800609 0.28137,-0.292977 0.7687,-0.292977 0.49313,0 0.7687,0.290076 0.27557,0.290076 0.27557,0.80351 z m -1.04427,0.789007 q 0.31618,0 0.48733,-0.208855 0.17404,-0.208854 0.17404,-0.580152 0,-0.368396 -0.17404,-0.585953 -0.17405,-0.220458 -0.48733,-0.220458 -0.31909,0 -0.49603,0.223359 -0.17405,0.220457 -0.17405,0.583052 0,0.371298 0.17695,0.580152 0.17694,0.208855 0.49313,0.208855 z m 1.81297,-1.264731 v 1.514196 h -0.36839 v -2.097249 h 0.38 l 1.02977,1.549006 v -1.549006 h 0.36839 v 2.097249 h -0.4032 z m 3.00809,0.667175 -0.33069,-0.896335 -0.33649,0.896335 z m -0.7745,0.287175 -0.20886,0.559846 h -0.3742 l 0.84413,-2.097249 h 0.37709 l 0.83832,2.097249 h -0.3829 l -0.21175,-0.559846 z m 3.19083,0.559846 h -1.47359 v -2.097249 h 0.3684 v 1.810074 h 1.10519 z m 3.08061,-1.038472 q 0,0.504733 -0.28138,0.791908 -0.27847,0.284274 -0.7629,0.284274 -0.49313,0 -0.7716,-0.287175 -0.27847,-0.287175 -0.27847,-0.789007 0,-0.510533 0.28137,-0.800609 0.28138,-0.292977 0.7687,-0.292977 0.49313,0 0.76871,0.290076 0.27557,0.290076 0.27557,0.80351 z m -1.04428,0.789007 q 0.31619,0 0.48733,-0.208855 0.17405,-0.208854 0.17405,-0.580152 0,-0.368396 -0.17405,-0.585953 -0.17404,-0.220458 -0.48733,-0.220458 -0.31908,0 -0.49603,0.223359 -0.17404,0.220457 -0.17404,0.583052 0,0.371298 0.17694,0.580152 0.17695,0.208855 0.49313,0.208855 z m 1.81298,-0.583053 v 0.832518 h -0.3684 v -2.097249 h 0.98626 q 0.30748,0 0.48153,0.168244 0.17404,0.168244 0.17404,0.446717 0,0.313282 -0.17984,0.481526 -0.17695,0.168244 -0.47863,0.168244 z m 0.89924,-0.643968 q 0,-0.162443 -0.0928,-0.246565 -0.0928,-0.08702 -0.27267,-0.08702 h -0.53374 v 0.690381 h 0.53374 q 0.17985,0 0.27267,-0.08702 0.0928,-0.08992 0.0928,-0.26977 z m 2.27999,1.476486 h -1.5519 v -2.097249 h 1.5432 v 0.287175 h -1.17481 v 0.591755 h 1.09649 v 0.287175 h -1.09649 v 0.643969 h 1.18351 z m 0.7571,-1.514196 v 1.514196 h -0.3684 v -2.097249 h 0.38 l 1.02977,1.549006 v -1.549006 h 0.3684 v 2.097249 h -0.40321 z m 4.40915,0.780304 q 0,0.365496 -0.22916,0.568549 -0.22916,0.203053 -0.65267,0.203053 -0.42931,0 -0.66137,-0.200152 -0.22916,-0.200153 -0.22916,-0.568549 v -1.366258 h 0.36839 v 1.348853 q 0,0.237863 0.13054,0.368397 0.13053,0.130534 0.3916,0.130534 0.24657,0 0.3771,-0.124733 0.13344,-0.127633 0.13344,-0.379999 v -1.343052 h 0.37129 z m 0.83542,-0.780304 v 1.514196 h -0.36839 v -2.097249 h 0.38 l 1.02977,1.549006 v -1.549006 h 0.36839 v 2.097249 h -0.4032 z m 2.25969,-0.583053 v 2.097249 h -0.36839 v -2.097249 z m 2.15236,0 -0.74549,2.097249 h -0.42641 l -0.7397,-2.097249 h 0.39451 l 0.55984,1.725952 0.56855,-1.725952 z m 1.79267,2.097249 h -1.5519 v -2.097249 h 1.5432 v 0.287175 h -1.17481 v 0.591755 h 1.09649 v 0.287175 h -1.09649 v 0.643969 h 1.18351 z m 1.70275,-1.496792 q 0,-0.15374 -0.0812,-0.232061 -0.0812,-0.08122 -0.23496,-0.08122 h -0.62947 v 0.652671 h 0.60916 q 0.15084,0 0.24367,-0.08992 0.0928,-0.08992 0.0928,-0.249466 z m -0.94565,0.623664 v 0.873128 h -0.36839 v -2.097249 h 1.06748 q 0.28717,0 0.45542,0.15374 0.17114,0.15084 0.17114,0.429313 0,0.182748 -0.087,0.313282 -0.0841,0.130534 -0.21176,0.185648 0.16245,0.09283 0.24947,0.321985 0.087,0.22916 0.11023,0.693281 h -0.3829 q -0.0174,-0.487327 -0.10733,-0.678777 -0.087,-0.194351 -0.28137,-0.194351 z m 2.44825,-0.07542 q -0.3829,-0.06962 -0.56855,-0.214656 -0.18565,-0.145038 -0.18565,-0.406107 0,-0.243664 0.19725,-0.403205 0.20015,-0.159542 0.61496,-0.159542 0.38,0 0.58886,0.162442 0.20885,0.162443 0.22916,0.469924 h -0.3684 q -0.003,-0.147939 -0.11603,-0.246565 -0.11313,-0.09863 -0.34519,-0.09863 -0.21756,0 -0.32198,0.07252 -0.10443,0.07252 -0.10153,0.203053 0,0.142138 0.13924,0.211756 0.14213,0.06962 0.46122,0.133435 0.4003,0.08122 0.56854,0.220457 0.17115,0.139237 0.17115,0.41771 0,0.26687 -0.22626,0.446717 -0.22626,0.176946 -0.64397,0.176946 -0.42641,0 -0.66427,-0.179847 -0.23786,-0.179847 -0.23786,-0.519236 h 0.36839 q 0,0.18855 0.14214,0.301679 0.14214,0.110229 0.3945,0.110229 0.23206,0 0.3626,-0.08992 0.13053,-0.08992 0.13053,-0.234961 0,-0.168244 -0.13053,-0.240763 -0.13054,-0.07252 -0.45832,-0.133435 z m 1.67664,-1.148701 v 2.097249 h -0.3684 v -2.097249 z m 0.92824,0.287175 h -0.65267 v -0.287175 h 1.67084 v 0.287175 h -0.64977 v 1.810074 h -0.3684 z m 2.07404,0.641068 0.59756,-0.928243 h 0.41191 l -0.82672,1.232823 v 0.864426 h -0.3684 v -0.864426 l -0.84122,-1.232823 h 0.42061 z"
         id="text5-8"
         aria-label="NATIONAL OPEN UNIVERSITY" />
      <path
         d="m 101.81241,30.60078 h 0.25936 v 0.417114 h -0.25936 z m 0,1.569526 h 0.25936 v 0.727276 h -0.25936 z m -0.29412,-1.104283 h 0.26471 q -0.0214,0.179145 -0.0669,0.323531 -0.0428,0.144385 -0.13636,0.259359 -0.0909,0.1123 -0.25134,0.195188 -0.16043,0.08022 -0.41177,0.136365 -0.0107,-0.03209 -0.0348,-0.06952 -0.0214,-0.04011 -0.0481,-0.08021 -0.0267,-0.04011 -0.0535,-0.06417 0.22193,-0.04278 0.36096,-0.104279 0.13904,-0.0615 0.21658,-0.147059 0.0775,-0.08556 0.1123,-0.197862 0.0348,-0.1123 0.0481,-0.251338 z m 0.59359,-0.008 h 0.24866 v 0.518719 q 0,0.05348 0.0187,0.06685 0.0214,0.01337 0.0909,0.01337 0.016,0 0.0535,0 0.0401,0 0.0882,0 0.0508,0 0.0936,0 0.0428,0 0.0615,0 0.0374,0 0.0562,-0.01337 0.0214,-0.01604 0.0294,-0.05882 0.008,-0.04545 0.0134,-0.133691 0.0241,0.01604 0.0615,0.03476 0.0401,0.01604 0.0802,0.03208 0.0428,0.01337 0.0775,0.02139 -0.0134,0.131017 -0.0455,0.205883 -0.0321,0.07219 -0.0909,0.101605 -0.0562,0.02674 -0.15508,0.02674 -0.0214,0 -0.0722,0 -0.0508,0 -0.10963,0 -0.0562,0 -0.10695,0 -0.0481,0 -0.0669,0 -0.13369,0 -0.20321,-0.02406 -0.0695,-0.02674 -0.0962,-0.09091 -0.0267,-0.06685 -0.0267,-0.179145 z m -1.29947,-0.197862 h 2.28076 v 0.516046 h -0.26204 v -0.283424 h -1.76739 v 0.3369 h -0.25133 z m 0.24064,1.205889 h 1.84225 v 0.229947 h -1.84225 z m -0.28075,0.708559 h 2.35295 v 0.229948 h -2.35295 z m 2.76204,-1.703217 h 2.17649 v 1.296798 h -0.26204 v -1.048133 h -1.66311 v 1.061502 h -0.25134 z m 0.13102,0.901074 h 1.93317 v 0.248664 h -1.93317 z m 0.81819,-1.371664 h 0.2647 v 2.478622 h -0.2647 z m 1.63637,0.745993 h 2.36365 v 0.262033 h -2.36365 z m 1.33156,0.104278 q 0.0856,0.31551 0.22994,0.588238 0.14706,0.272729 0.35829,0.478612 0.21391,0.20321 0.49466,0.320858 -0.0321,0.02674 -0.0695,0.06952 -0.0348,0.04278 -0.0669,0.08556 -0.0321,0.04545 -0.0535,0.08021 -0.29679,-0.139038 -0.51872,-0.366312 -0.21925,-0.229948 -0.37166,-0.532088 -0.15241,-0.302141 -0.25669,-0.663105 z m -0.29412,-0.850271 h 0.2754 q 0,0.18984 -0.0107,0.409093 -0.008,0.216578 -0.0401,0.446526 -0.0321,0.229947 -0.10428,0.459895 -0.0722,0.229948 -0.20054,0.443853 -0.12834,0.213904 -0.32888,0.398397 -0.20053,0.181819 -0.4893,0.318184 -0.0321,-0.0508 -0.0856,-0.1123 -0.0535,-0.05882 -0.10695,-0.09893 0.27808,-0.125669 0.46792,-0.291446 0.19251,-0.16845 0.31016,-0.363638 0.12032,-0.197862 0.18449,-0.409093 0.0642,-0.211231 0.0909,-0.422462 0.0267,-0.211231 0.0321,-0.409093 0.005,-0.197862 0.005,-0.368985 z m 2.09092,0.906421 h 1.2861 v 0.221926 h -1.2861 z m -0.4599,0.606955 h 2.37702 v 0.232622 h -2.37702 z m 1.05348,-0.187167 h 0.25936 v 0.871662 q 0,0.104279 -0.0321,0.160429 -0.0294,0.05615 -0.11498,0.08556 -0.0829,0.02674 -0.20588,0.03209 -0.123,0.008 -0.30214,0.008 -0.0107,-0.05348 -0.0428,-0.125669 -0.0294,-0.06952 -0.0615,-0.120321 0.0936,0.0027 0.18182,0.0053 0.0909,0.0027 0.15775,0.0027 0.0668,-0.0027 0.0936,-0.0027 0.0401,-0.0027 0.0535,-0.01337 0.0134,-0.01069 0.0134,-0.04011 z m 0.6123,-0.419788 h 0.0615 l 0.0562,-0.01337 0.16043,0.122995 q -0.0909,0.09626 -0.20856,0.189841 -0.11764,0.09358 -0.24866,0.173798 -0.12834,0.08021 -0.25669,0.141712 -0.0241,-0.03476 -0.0668,-0.07754 -0.0401,-0.04546 -0.0722,-0.07219 0.10962,-0.0508 0.21925,-0.122995 0.1123,-0.07219 0.20588,-0.14706 0.0936,-0.07754 0.14973,-0.147059 z m -1.623,-0.47059 h 2.29413 v 0.622997 h -0.24866 v -0.398397 h -1.80483 v 0.398397 h -0.24064 z m 1.88504,-0.419789 0.27005,0.08556 q -0.0882,0.128343 -0.18716,0.254012 -0.0989,0.125669 -0.18182,0.213905 l -0.20321,-0.08021 q 0.0535,-0.06417 0.10962,-0.14706 0.0562,-0.08289 0.10696,-0.16845 0.0535,-0.08556 0.0856,-0.157755 z m -1.70322,0.109627 0.21391,-0.09626 q 0.0749,0.08021 0.14706,0.181819 0.0722,0.101604 0.10427,0.179145 l -0.2246,0.109626 q -0.0321,-0.07754 -0.1016,-0.181819 -0.0695,-0.104279 -0.13904,-0.192514 z m 0.68182,-0.05615 0.22193,-0.08289 q 0.0642,0.09091 0.12567,0.205883 0.0642,0.1123 0.0882,0.195188 l -0.23529,0.09358 q -0.0214,-0.08556 -0.0802,-0.200535 -0.0561,-0.117648 -0.12032,-0.211231 z"
         id="text5-9-1"
         style="font-weight:500;font-size:2.67381px;line-height:1.25;font-family:'Noto Sans JP';-inkscape-font-specification:'Noto Sans JP Medium';stroke-width:0.0954936"
         aria-label="空中大学" />
      <path
         style="font-weight:500;font-size:2.67381px;line-height:1.25;font-family:'Noto Sans kr';-inkscape-font-specification:'Noto Sans kr Medium';stroke-width:0.0954936"
         d="m 113.74335,30.796742 h 1.5615 v 0.227274 h -1.5615 z m -0.27808,0.994657 h 2.21124 v 0.2246 h -2.21124 z m 1.66311,-0.994657 h 0.27541 v 0.200536 q 0,0.173797 -0.0107,0.377007 -0.008,0.203209 -0.0669,0.473264 l -0.2754,-0.02941 q 0.0588,-0.259359 0.0669,-0.454547 0.0107,-0.197862 0.0107,-0.366312 z m 0.0829,0.451874 v 0.203209 l -1.49733,0.06685 -0.0374,-0.229948 z m -0.7861,0.703212 h 0.27808 v 0.387702 h -0.27808 z m 0.13904,0.304814 q 0.39572,0 0.61765,0.114974 0.2246,0.114974 0.2246,0.328879 0,0.211231 -0.2246,0.326204 -0.22193,0.117648 -0.61765,0.117648 -0.39038,0 -0.61498,-0.117648 -0.2246,-0.114973 -0.2246,-0.326204 0,-0.213905 0.2246,-0.328879 0.2246,-0.114974 0.61498,-0.114974 z m 0,0.216579 q -0.17647,0 -0.30214,0.02674 -0.12567,0.02406 -0.19252,0.07487 -0.0642,0.04813 -0.0642,0.12567 0,0.07487 0.0642,0.125669 0.0668,0.0508 0.19252,0.07754 0.12567,0.02406 0.30214,0.02406 0.18182,0 0.30481,-0.02406 0.12567,-0.02674 0.18984,-0.07754 0.0642,-0.0508 0.0642,-0.125669 0,-0.07754 -0.0642,-0.12567 -0.0642,-0.0508 -0.18984,-0.07487 -0.12299,-0.02674 -0.30481,-0.02674 z m 2.32354,-0.548131 h 0.28075 v 0.430483 h -0.28075 z m -0.96257,-0.09358 h 2.20857 v 0.2246 h -2.20857 z m 1.09893,0.441179 q 0.39573,0 0.61765,0.114974 0.2246,0.1123 0.2246,0.320857 0,0.208557 -0.2246,0.320857 -0.22192,0.1123 -0.61765,0.1123 -0.39305,0 -0.61765,-0.1123 -0.22192,-0.1123 -0.22192,-0.320857 0,-0.208557 0.22192,-0.320857 0.2246,-0.114974 0.61765,-0.114974 z m 0,0.216579 q -0.17647,0 -0.30214,0.02674 -0.12567,0.02406 -0.19251,0.07219 -0.0642,0.04813 -0.0642,0.120321 0,0.07219 0.0642,0.122995 0.0668,0.04813 0.19251,0.07219 0.12567,0.02406 0.30214,0.02406 0.18182,0 0.30482,-0.02406 0.12567,-0.02406 0.18984,-0.07219 0.0642,-0.0508 0.0642,-0.122995 0,-0.07219 -0.0642,-0.120321 -0.0642,-0.04813 -0.18984,-0.07219 -0.123,-0.02674 -0.30482,-0.02674 z m -0.18181,-1.572201 h 0.24866 v 0.06685 q 0,0.114973 -0.0455,0.216578 -0.0455,0.09893 -0.13101,0.184493 -0.0856,0.08289 -0.20321,0.149733 -0.11765,0.06685 -0.26471,0.109627 -0.14438,0.04278 -0.31283,0.0615 l -0.0989,-0.219252 q 0.14439,-0.01337 0.26739,-0.04546 0.12566,-0.03476 0.2246,-0.08289 0.0989,-0.04813 0.16845,-0.106952 0.0695,-0.0615 0.10695,-0.128343 0.0401,-0.06952 0.0401,-0.139038 z m 0.12566,0 h 0.24867 v 0.06685 q 0,0.07219 0.0374,0.141711 0.0374,0.06685 0.10695,0.12567 0.0695,0.05882 0.16845,0.106952 0.10161,0.04813 0.2246,0.08289 0.12567,0.03209 0.27006,0.04546 l -0.0989,0.219252 q -0.16845,-0.01872 -0.31551,-0.0615 -0.14439,-0.04278 -0.26471,-0.106953 -0.11765,-0.06685 -0.20321,-0.149733 -0.0829,-0.08556 -0.12834,-0.187167 -0.0455,-0.104278 -0.0455,-0.216578 z m -0.84225,-0.106952 h 1.8075 v 0.221926 h -1.8075 z m 4.07489,-0.109626 h 0.26738 v 2.443862 h -0.26738 z m -0.37433,0.962571 h 0.44385 v 0.229948 h -0.44385 z m -0.17647,-0.911769 h 0.26203 v 2.272739 h -0.26203 z m -1.1845,1.582896 h 0.1631 q 0.16845,0 0.31016,-0.0053 0.14171,-0.0053 0.2754,-0.01872 0.13637,-0.01604 0.27808,-0.04278 l 0.0267,0.229948 q -0.14706,0.02941 -0.2861,0.04546 -0.13904,0.01337 -0.2861,0.01872 -0.14438,0.0053 -0.31818,0.0053 h -0.1631 z m 0,-1.342253 h 0.90375 v 0.227274 h -0.62835 v 1.221931 h -0.2754 z m 2.38236,-0.0508 h 1.44119 v 0.221926 h -1.44119 z m 0.72193,0.326204 q 0.1738,0 0.30749,0.05615 0.13369,0.05615 0.20856,0.157755 0.0749,0.09893 0.0749,0.232622 0,0.13369 -0.0749,0.235295 -0.0749,0.09893 -0.20856,0.155081 -0.13369,0.05348 -0.30749,0.05348 -0.17647,0 -0.31016,-0.05348 -0.13369,-0.05615 -0.20856,-0.155081 -0.0749,-0.101605 -0.0749,-0.235295 0,-0.133691 0.0749,-0.232622 0.0749,-0.101605 0.20856,-0.157755 0.13369,-0.05615 0.31016,-0.05615 z m 0,0.216579 q -0.14706,0 -0.23797,0.0615 -0.0882,0.05882 -0.0882,0.16845 0,0.106952 0.0882,0.16845 0.0909,0.0615 0.23797,0.0615 0.14439,0 0.23262,-0.0615 0.0882,-0.0615 0.0882,-0.16845 0,-0.109627 -0.0882,-0.16845 -0.0882,-0.0615 -0.23262,-0.0615 z m 0.90375,-0.780753 h 0.27808 v 1.52942 h -0.27808 z m 0.20321,0.65241 h 0.41979 v 0.232622 h -0.41979 z m -1.52942,0.994657 h 1.60429 v 0.796796 h -0.27808 v -0.572196 h -1.32621 z m 0.28075,-1.660436 h 0.28075 v 0.377008 h -0.28075 z m 2.09894,0.240643 h 1.56151 v 0.227274 h -1.56151 z m -0.22193,1.665784 h 2.20857 v 0.229948 h -2.20857 z m 0.50803,-0.791448 h 0.2754 v 0.868988 h -0.2754 z m 1.18984,-0.874336 h 0.27808 v 0.254012 q 0,0.152407 -0.003,0.318184 -0.003,0.165776 -0.0214,0.35829 -0.0161,0.192515 -0.0588,0.430484 l -0.27807,-0.02941 q 0.0615,-0.3369 0.0722,-0.593586 0.0107,-0.25936 0.0107,-0.48396 z m -0.58556,0.874336 h 0.2754 v 0.868988 h -0.2754 z"
         id="text5-9-1-0"
         aria-label="쿵중대학교" />
      <path
         id="rect2"
         style="stroke-width:0.624421"
         d="m 97.072105,19.277649 h 0.865187 v 13.812446 h -0.865187 z" />
      <g
         id="g4"
         transform="matrix(0.78638341,0,0,0.78638341,6.6155942,7.0649227)">
        <path
           id="rect1"
           style="fill-opacity:0;stroke:#000000;stroke-width:0.927563"
           d="m 15.644095,14.655146 h 12.224482 c 3.863634,0 6.974069,3.110434 6.974069,6.974068 v 22.887408 c 0,3.863634 -3.110435,6.974068 -6.974069,6.974068 H 15.644095 c -3.863634,0 -6.9740682,-3.110434 -6.9740682,-6.974068 V 21.629214 c 0,-3.863634 3.1104342,-6.974068 6.9740682,-6.974068 z" />
        <path
           style="font-size:13.7225px;line-height:1.25;font-family:'AR UDJingXiHeiE1G30 EB';-inkscape-font-specification:'AR UDJingXiHeiE1G30 EB';stroke-width:0.285885"
           d="m 26.710182,26.143679 q 0,2.387715 -1.331083,3.746243 -1.31736,1.344805 -3.609017,1.344805 -2.332825,0 -3.650185,-1.358528 -1.31736,-1.358527 -1.31736,-3.73252 0,-2.41516 1.331082,-3.787409 1.331083,-1.385973 3.636463,-1.385973 2.332825,0 3.636462,1.37225 1.303638,1.37225 1.303638,3.801132 z m -4.9401,3.73252 q 1.495752,0 2.30538,-0.98802 0.82335,-0.98802 0.82335,-2.7445 0,-1.742757 -0.82335,-2.771944 -0.82335,-1.04291 -2.30538,-1.04291 -1.509475,0 -2.346548,1.056632 -0.82335,1.04291 -0.82335,2.758222 0,1.75648 0.837073,2.7445 0.837072,0.98802 2.332825,0.98802 z"
           id="text2"
           aria-label="O" />
        <path
           style="font-size:14.1593px;line-height:1.25;font-family:'AR UDJingXiHeiE1G30 EB';-inkscape-font-specification:'AR UDJingXiHeiE1G30 EB';stroke-width:0.25744"
           d="m 17.565186,39.076112 q -0.60885,0 -1.047788,0.226549 -0.438939,0.212389 -0.750443,0.651327 l -1.585842,-0.169911 0.764602,-5.394694 h 5.720357 v 1.401771 h -4.276108 l -0.396461,2.676108 q 0.353983,-0.396461 0.849558,-0.594691 0.509735,-0.212389 1.189382,-0.212389 1.458408,0 2.307966,0.948673 0.849557,0.948673 0.849557,2.591152 0,1.713275 -0.948673,2.661948 -0.948673,0.948673 -2.661948,0.948673 -1.684957,0 -2.63363,-0.835399 -0.948673,-0.835398 -0.976991,-2.251328 h 1.741593 q -0.01416,0.665487 0.453098,1.175222 0.467257,0.509734 1.373452,0.509734 0.863717,0 1.359293,-0.566372 0.509735,-0.580531 0.509735,-1.670797 0,-1.019469 -0.523894,-1.557523 -0.523894,-0.538053 -1.316815,-0.538053 z m 8.382295,-3.454869 q -0.778761,0 -1.2177,0.467256 -0.438938,0.467257 -0.438938,1.2177 h -1.741594 q 0,-1.387611 0.906195,-2.237169 0.920355,-0.849558 2.492037,-0.849558 1.458408,0 2.364603,0.722124 0.906195,0.722124 0.906195,2.067258 0,0.736284 -0.311504,1.302656 -0.311505,0.566372 -0.934514,0.863717 0.792921,0.269027 1.2177,0.906195 0.438938,0.637168 0.438938,1.515045 0,1.515045 -0.962832,2.364603 -0.962833,0.849558 -2.676108,0.849558 -1.741594,0 -2.690267,-0.835399 -0.948673,-0.835398 -0.948673,-2.279647 h 1.755753 q 0,0.764602 0.509735,1.246019 0.523894,0.467256 1.387611,0.467256 0.849558,0 1.330974,-0.467256 0.495576,-0.467257 0.495576,-1.330975 0,-0.722124 -0.453098,-1.175222 -0.453097,-0.467256 -1.302655,-0.467256 h -0.637169 v -1.401771 h 0.637169 q 0.566372,0 0.948673,-0.41062 0.39646,-0.410619 0.39646,-1.104425 0,-0.637169 -0.382301,-1.033629 -0.382301,-0.39646 -1.090266,-0.39646 z"
           id="text3"
           aria-label="53" />
        <path
           style="font-weight:500;font-size:72px;line-height:1.25;font-family:'Noto Sans TC';-inkscape-font-specification:'Noto Sans TC Medium';white-space:pre"
           d="m 166.56942,81.585406 h 54.648 v 6.984 h -54.648 z m 4.824,23.400004 h 44.136 v 6.912 h -44.136 z m -8.928,24.768 h 62.64 v 6.912 h -62.64 z m 100.224,-30.528004 h 6.984 q 0.36,7.056004 2.016,13.392004 1.728,6.264 4.248,11.088 2.592,4.824 5.544,7.56 3.024,2.664 5.976,2.664 1.584,0 2.232,-2.448 0.648,-2.448 0.936,-7.992 1.152,1.008 2.88,1.944 1.728,0.864 3.096,1.296 -0.504,5.616 -1.656,8.64 -1.08,3.024 -3.024,4.176 -1.872,1.152 -4.752,1.152 -4.896,0 -9.144,-3.312 -4.248,-3.312 -7.56,-9.072 -3.24,-5.76 -5.256,-13.248 -2.016,-7.488 -2.52,-15.840004 z m -21.024,10.800004 h 53.496 v 6.336 h -53.496 z m 0,-31.824004 h 48.24 v 22.032004 h -48.24 v -6.336004 h 41.328 v -9.36 h -41.328 z m -3.96,63.648004 -0.504,-5.904 3.312,-2.448 23.472,-6.048 q 0,0.936 0.072,2.16 0.144,1.152 0.288,2.304 0.216,1.152 0.36,1.944 -6.552,1.8 -11.016,3.024 -4.464,1.296 -7.344,2.088 -2.88,0.792 -4.608,1.296 -1.656,0.504 -2.52,0.864 -0.864,0.36 -1.512,0.72 z m 0,0 q -0.288,-0.864 -0.864,-2.088 -0.504,-1.152 -1.152,-2.232 -0.576,-1.08 -1.152,-1.728 1.152,-0.648 2.304,-2.016 1.152,-1.44 1.152,-3.744 V 78.201406 h 7.056 v 57.096004 q 0,0 -0.72,0.432 -0.72,0.432 -1.8,1.08 -1.08,0.72 -2.232,1.584 -1.152,0.864 -1.872,1.728 -0.72,0.936 -0.72,1.728 z m 68.256,-60.048004 h 63.504 v 5.832 h -63.504 z m 17.136,14.112 v 5.400004 h 29.808 v -5.400004 z m -6.768,-4.752 h 43.704 v 14.904004 h -43.704 z m -7.992,18.432004 h 57.024 v 5.616 h -50.4 v 26.28 h -6.624 z m 52.272,0 h 6.84 v 25.2 q 0,2.376 -0.648,3.528 -0.648,1.152 -2.448,1.8 -1.656,0.576 -4.248,0.72 -2.52,0.144 -6.192,0.072 -0.216,-1.152 -0.864,-2.592 -0.648,-1.368 -1.224,-2.448 1.512,0.072 3.096,0.072 1.584,0.072 2.736,0 1.224,0 1.656,0 1.296,0 1.296,-1.152 z m -27.792,-33.696004 6.84,-1.584 q 1.008,2.232 2.016,5.04 1.008,2.736 1.512,4.536 l -7.2,2.016 q -0.432,-1.944 -1.368,-4.752 -0.936,-2.808 -1.8,-5.256 z m -7.272,42.912004 h 27.36 v 15.336 h -27.36 v -4.824 h 21.312 v -5.688 h -21.312 z m -3.672,0 h 6.408 v 18.72 h -6.408 z m 58.68,-31.464004 h 58.608 v 34.920004 h -7.056 V 94.041406 h -44.784 v 28.584004 h -6.768 z m 3.528,24.264004 h 52.056 v 6.696 h -52.056 z m 22.032,-36.936004 h 7.128 v 66.744004 h -7.128 z"
           id="text4"
           transform="matrix(0.25744134,0,0,0.25744134,-2.1090529,-3.4635139)"
           aria-label="三民高中" />
        <path
           style="font-size:7.20836px;line-height:1.25;font-family:'AR UDJingXiHeiE1G30 EB';-inkscape-font-specification:'AR UDJingXiHeiE1G30 EB';stroke-width:0.25744"
           d="m 41.457588,38.403087 q -0.951503,-0.173 -1.412839,-0.533418 -0.461335,-0.360418 -0.461335,-1.009171 0,-0.605502 0.490169,-1.001962 0.497377,-0.39646 1.528172,-0.39646 0.944295,0 1.463297,0.403668 0.519002,0.403669 0.569461,1.167755 h -0.915462 q -0.0072,-0.367627 -0.288334,-0.612711 -0.281126,-0.245084 -0.857795,-0.245084 -0.540627,0 -0.800128,0.180209 -0.259501,0.180209 -0.252293,0.504585 0,0.35321 0.346002,0.52621 0.353209,0.173001 1.146129,0.331585 0.994754,0.201834 1.412838,0.547835 0.425294,0.346002 0.425294,1.038004 0,0.663169 -0.562252,1.110088 -0.562253,0.43971 -1.600256,0.43971 -1.059629,0 -1.650715,-0.446919 -0.591085,-0.446918 -0.591085,-1.290296 h 0.915461 q 0,0.468543 0.35321,0.749669 0.35321,0.273918 0.980337,0.273918 0.576669,0 0.901045,-0.223459 0.324376,-0.223459 0.324376,-0.583877 0,-0.418085 -0.324376,-0.598294 -0.324376,-0.180209 -1.138921,-0.331585 z m 6.026189,0.252293 -0.821753,-2.227383 -0.83617,2.227383 z m -1.924632,0.713627 -0.519002,1.391214 h -0.929879 l 2.097633,-5.211644 h 0.937087 l 2.083216,5.211644 h -0.951504 l -0.52621,-1.391214 z m 5.182804,-2.37155 v 3.762764 h -0.915462 v -5.211644 h 0.944295 l 2.558968,3.849264 v -3.849264 h 0.915462 v 5.211644 H 53.24325 Z m 5.586474,0.0072 v 3.755556 h -0.886628 v -5.211644 h 1.160546 l 1.499339,4.04389 1.441672,-4.04389 h 1.189379 v 5.211644 h -0.893836 v -3.784389 l -1.355172,3.784389 h -0.771295 z m 6.516355,-1.456088 v 5.211644 h -0.915462 v -5.211644 z m 2.112045,1.44888 v 3.762764 h -0.915462 v -5.211644 h 0.944296 l 2.558968,3.849264 v -3.849264 h 0.915461 v 5.211644 h -1.001962 z m 8.318436,1.40563 q -0.951504,-0.173 -1.412839,-0.533418 -0.461335,-0.360418 -0.461335,-1.009171 0,-0.605502 0.490169,-1.001962 0.497377,-0.39646 1.528172,-0.39646 0.944295,0 1.463297,0.403668 0.519002,0.403669 0.569461,1.167755 h -0.915462 q -0.0072,-0.367627 -0.288334,-0.612711 -0.281127,-0.245084 -0.857795,-0.245084 -0.540627,0 -0.800128,0.180209 -0.259501,0.180209 -0.252293,0.504585 0,0.35321 0.346001,0.52621 0.35321,0.173001 1.14613,0.331585 0.994753,0.201834 1.412838,0.547835 0.425293,0.346002 0.425293,1.038004 0,0.663169 -0.562252,1.110088 -0.562252,0.43971 -1.600256,0.43971 -1.059629,0 -1.650714,-0.446919 -0.591086,-0.446918 -0.591086,-1.290296 h 0.915462 q 0,0.468543 0.35321,0.749669 0.353209,0.273918 0.980337,0.273918 0.576669,0 0.901045,-0.223459 0.324376,-0.223459 0.324376,-0.583877 0,-0.418085 -0.324376,-0.598294 -0.324376,-0.180209 -1.138921,-0.331585 z m 7.107444,2.357134 H 76.52623 v -5.211644 h 3.834848 v 0.713627 h -2.919386 v 1.470506 h 2.72476 v 0.713627 h -2.72476 v 1.600256 h 2.941011 z m 1.881385,-3.762764 v 3.762764 h -0.915462 v -5.211644 h 0.944295 l 2.558968,3.849264 v -3.849264 h 0.915462 v 5.211644 h -1.001962 z m 5.61531,-1.44888 v 5.211644 h -0.915462 v -5.211644 z m 6.20639,2.631051 q 0,1.254255 -0.699211,1.967882 -0.692002,0.70642 -1.895798,0.70642 -1.225422,0 -1.917424,-0.713628 -0.692003,-0.713628 -0.692003,-1.960674 0,-1.268671 0.699211,-1.989507 0.699211,-0.728045 1.910216,-0.728045 1.225421,0 1.910215,0.720836 0.684794,0.720836 0.684794,1.996716 z m -2.595009,1.960674 q 0.785711,0 1.211004,-0.519002 0.432502,-0.519002 0.432502,-1.441672 0,-0.915462 -0.432502,-1.456089 -0.432502,-0.547835 -1.211004,-0.547835 -0.79292,0 -1.23263,0.555044 -0.432502,0.547835 -0.432502,1.44888 0,0.92267 0.43971,1.441672 0.43971,0.519002 1.225422,0.519002 z m 6.855152,-3.099595 q 0,-0.382043 -0.201834,-0.576669 -0.201834,-0.201834 -0.583877,-0.201834 h -1.564214 v 1.621881 h 1.513755 q 0.374835,0 0.605503,-0.223459 0.230667,-0.223459 0.230667,-0.619919 z m -2.349925,1.549798 v 2.169716 h -0.915462 v -5.211644 h 2.652677 q 0.713627,0 1.131712,0.382043 0.425293,0.374834 0.425293,1.066837 0,0.454127 -0.21625,0.778503 -0.209043,0.324376 -0.526211,0.461335 0.403669,0.230667 0.619919,0.800128 0.216251,0.56946 0.273918,1.722798 h -0.951504 q -0.04325,-1.211005 -0.266709,-1.686756 -0.216251,-0.48296 -0.699211,-0.48296 z m 7.157904,-0.144168 v 2.313884 h -0.91546 v -5.211644 h 0.91546 v 2.184133 h 2.5013 v -2.184133 h 0.91546 v 5.211644 h -0.91546 v -2.313884 z m 5.52881,-2.89776 v 5.211644 h -0.91546 v -5.211644 z m 5.02423,4.577308 q -0.26671,0.374835 -0.67038,0.555044 -0.39646,0.173001 -0.90825,0.173001 -1.12451,0 -1.78768,-0.70642 -0.66317,-0.713627 -0.66317,-1.989507 0,-1.283088 0.69921,-1.989507 0.69922,-0.70642 1.88859,-0.70642 0.95872,0 1.55701,0.43971 0.6055,0.432502 0.72804,1.239838 h -0.91546 q -0.0721,-0.425293 -0.42529,-0.692002 -0.346,-0.273918 -0.9443,-0.273918 -0.80012,0 -1.21821,0.519002 -0.41808,0.511793 -0.41808,1.463297 0,1.016379 0.43971,1.499339 0.43971,0.475752 1.19658,0.475752 0.66317,0 1.05243,-0.389252 0.38925,-0.389251 0.38925,-0.893836 V 38.74188 h -1.47772 v -0.713628 h 2.35714 v 2.731969 h -0.87942 z m 2.87613,-1.679548 v 2.313884 h -0.91547 v -5.211644 h 0.91547 v 2.184133 h 2.5013 v -2.184133 h 0.91546 v 5.211644 h -0.91546 v -2.313884 z m 8.23194,-0.04325 q -0.95151,-0.173 -1.41284,-0.533418 -0.46134,-0.360418 -0.46134,-1.009171 0,-0.605502 0.49017,-1.001962 0.49738,-0.39646 1.52817,-0.39646 0.9443,0 1.4633,0.403668 0.519,0.403669 0.56946,1.167755 h -0.91546 q -0.007,-0.367627 -0.28833,-0.612711 -0.28113,-0.245084 -0.8578,-0.245084 -0.54063,0 -0.80013,0.180209 -0.2595,0.180209 -0.25229,0.504585 0,0.35321 0.346,0.52621 0.35321,0.173001 1.14613,0.331585 0.99476,0.201834 1.41284,0.547835 0.42529,0.346002 0.42529,1.038004 0,0.663169 -0.56225,1.110088 -0.56225,0.43971 -1.60025,0.43971 -1.05963,0 -1.65072,-0.446919 -0.59108,-0.446918 -0.59108,-1.290296 h 0.91546 q 0,0.468543 0.35321,0.749669 0.35321,0.273918 0.98033,0.273918 0.57667,0 0.90105,-0.223459 0.32437,-0.223459 0.32437,-0.583877 0,-0.418085 -0.32437,-0.598294 -0.32438,-0.180209 -1.13892,-0.331585 z m 6.95607,0.540627 h 0.91546 q -0.036,0.857795 -0.59829,1.384005 -0.56226,0.526211 -1.62909,0.526211 -1.26147,0 -1.93184,-0.713628 -0.66317,-0.713628 -0.66317,-1.982299 0,-1.254255 0.66317,-1.975091 0.67037,-0.720836 1.91742,-0.720836 1.00196,0 1.55701,0.461335 0.55504,0.454127 0.63433,1.182171 h -0.91546 q -0.0577,-0.418085 -0.38204,-0.670377 -0.32438,-0.259501 -0.91547,-0.259501 -0.72804,0 -1.16775,0.490168 -0.43971,0.490169 -0.43971,1.492131 0,1.016379 0.43971,1.499339 0.44692,0.48296 1.18217,0.48296 0.62713,0 0.96592,-0.324376 0.33879,-0.331585 0.36763,-0.872212 z m 2.72475,-0.497377 v 2.313884 h -0.91546 v -5.211644 h 0.91546 v 2.184133 h 2.5013 v -2.184133 h 0.91546 v 5.211644 h -0.91546 v -2.313884 z m 9.62317,-0.266709 q 0,1.254255 -0.69921,1.967882 -0.69201,0.70642 -1.8958,0.70642 -1.22542,0 -1.91743,-0.713628 -0.692,-0.713628 -0.692,-1.960674 0,-1.268671 0.69921,-1.989507 0.69921,-0.728045 1.91022,-0.728045 1.22542,0 1.91021,0.720836 0.6848,0.720836 0.6848,1.996716 z m -2.59501,1.960674 q 0.78571,0 1.211,-0.519002 0.4325,-0.519002 0.4325,-1.441672 0,-0.915462 -0.4325,-1.456089 -0.4325,-0.547835 -1.211,-0.547835 -0.79292,0 -1.23263,0.555044 -0.4325,0.547835 -0.4325,1.44888 0,0.92267 0.43971,1.441672 0.43971,0.519002 1.22542,0.519002 z m 8.59957,-1.960674 q 0,1.254255 -0.69921,1.967882 -0.692,0.70642 -1.8958,0.70642 -1.22542,0 -1.91742,-0.713628 -0.69201,-0.713628 -0.69201,-1.960674 0,-1.268671 0.69921,-1.989507 0.69921,-0.728045 1.91022,-0.728045 1.22542,0 1.91021,0.720836 0.6848,0.720836 0.6848,1.996716 z m -2.59501,1.960674 q 0.78571,0 1.211,-0.519002 0.43251,-0.519002 0.43251,-1.441672 0,-0.915462 -0.43251,-1.456089 -0.4325,-0.547835 -1.211,-0.547835 -0.79292,0 -1.23263,0.555044 -0.4325,0.547835 -0.4325,1.44888 0,0.92267 0.43971,1.441672 0.43971,0.519002 1.22542,0.519002 z m 7.25161,0.619919 h -3.66185 v -5.211644 h 0.91546 v 4.498016 h 2.74639 z"
           id="text5"
           aria-label="SANMIN SENIOR HIGH SCHOOL" />
        <path
           d="m 39.874107,43.935089 h 5.471146 V 44.6343 h -5.471146 z m 0.482961,2.342717 h 4.418724 v 0.692003 h -4.418724 z m -0.893837,2.479676 h 6.271273 v 0.692003 h -6.271273 z m 10.322372,-3.041928 h 0.706419 q 0.03604,0.720836 0.201834,1.36238 0.173001,0.641544 0.425293,1.138921 0.259501,0.490168 0.555044,0.771295 0.302751,0.273917 0.598294,0.266709 0.151376,0 0.216251,-0.245084 0.07208,-0.245085 0.100917,-0.814545 0.115334,0.108125 0.281126,0.201834 0.173001,0.0865 0.317168,0.12975 -0.05046,0.562253 -0.165793,0.865004 -0.115333,0.309959 -0.302751,0.425293 -0.187417,0.115334 -0.48296,0.115334 -0.490168,0 -0.915462,-0.338793 Q 50.89569,49.262067 50.564106,48.67819 50.239729,48.087104 50.037895,47.330227 49.836061,46.56614 49.785603,45.715554 Z m -2.104841,1.00917 h 5.348603 V 47.35906 H 47.680762 Z M 46.570674,49.1179 q 0.43971,-0.05046 1.030796,-0.122542 0.591085,-0.07208 1.239838,-0.158584 0.65596,-0.0865 1.304713,-0.173001 l 0.02163,0.670378 q -0.605502,0.0865 -1.225421,0.173 -0.619919,0.09371 -1.18938,0.173001 -0.56946,0.07929 -1.038004,0.144167 z m 0.756878,-5.521604 h 0.699211 v 5.752272 h -0.699211 z m 0.346001,0 h 4.829602 v 2.256217 h -4.829602 v -0.634336 h 4.137599 v -0.987545 h -4.137599 z m 6.19919,0.295543 h 6.292898 v 0.583877 h -6.292898 z m 2.760802,-0.655961 h 0.699211 v 0.944295 h -0.699211 z m -2.450843,3.510471 h 5.31977 v 0.576669 h -4.6566 v 2.616635 h -0.66317 z m 5.053061,0 h 0.677586 v 2.42201 q 0,0.2595 -0.06487,0.410876 -0.06488,0.151376 -0.252293,0.230668 -0.187417,0.07929 -0.48296,0.09371 -0.295543,0.02163 -0.720836,0.02163 -0.02163,-0.144167 -0.0865,-0.331584 -0.06488,-0.180209 -0.129751,-0.30996 0.30996,0.0072 0.562252,0.0072 0.259501,0 0.346001,-0.0072 0.0865,0 0.115334,-0.02883 0.03604,-0.02883 0.03604,-0.09371 z M 55.646,47.726686 h 0.591085 V 49.64411 H 55.646 Z m 0.309959,0 h 2.443634 v 1.571423 h -2.443634 v -0.475752 h 1.838132 v -0.619919 h -1.838132 z m -0.237876,-2.429217 v 0.583877 h 2.580593 v -0.583877 z m -0.655961,-0.468543 h 3.921348 v 1.53538 h -3.921348 z m 8.462615,-0.547836 h 3.979015 v 0.627128 h -3.979015 z m 1.636298,-1.038004 h 0.670377 v 1.326339 h -0.670377 z m -0.735253,1.816507 0.619919,0.252293 q -0.230668,0.454127 -0.562252,0.893836 -0.324376,0.432502 -0.684795,0.742462 -0.07929,-0.09371 -0.223459,-0.216251 -0.136959,-0.129751 -0.245084,-0.209043 0.331585,-0.273917 0.627127,-0.677586 0.295543,-0.403668 0.468544,-0.785711 z m 1.499339,0.273918 0.533418,-0.295543 q 0.22346,0.230668 0.454127,0.504585 0.230668,0.26671 0.418085,0.533419 0.194626,0.266709 0.302751,0.490168 l -0.576669,0.331585 Q 66.955916,46.674266 66.775707,46.407557 66.595498,46.133639 66.372039,45.852513 66.14858,45.571387 65.925121,45.333511 Z m -1.131713,1.059629 q 0.245084,0.670377 0.648753,1.254255 0.410876,0.576668 0.96592,1.016378 0.555044,0.43971 1.239838,0.684795 -0.07929,0.06488 -0.173001,0.173 -0.0865,0.108126 -0.173,0.223459 -0.07929,0.115334 -0.136959,0.209043 -0.70642,-0.302751 -1.27588,-0.800128 -0.562252,-0.497377 -0.987545,-1.153338 -0.418085,-0.663169 -0.699211,-1.441672 z m 1.268672,-0.04325 0.692002,0.136959 q -0.245084,0.778502 -0.663169,1.44888 -0.418085,0.670377 -1.038004,1.182171 -0.619919,0.511794 -1.484922,0.83617 -0.03604,-0.07929 -0.100917,-0.180209 -0.05767,-0.09371 -0.129751,-0.194626 -0.06488,-0.09371 -0.122542,-0.165792 0.79292,-0.281126 1.36238,-0.735253 0.576669,-0.461335 0.944296,-1.052421 0.367626,-0.598293 0.540627,-1.275879 z m -5.081894,-1.58584 h 2.472467 v 0.634336 h -2.472467 z m 0.994753,-1.520964 h 0.634336 v 6.68215 h -0.634336 z m -0.01442,1.939049 0.410876,0.136959 q -0.0865,0.432502 -0.216251,0.901045 -0.122542,0.461335 -0.281126,0.908254 -0.158584,0.43971 -0.338793,0.828961 -0.180209,0.382043 -0.382043,0.655961 -0.05046,-0.136959 -0.151375,-0.30996 -0.09371,-0.180209 -0.180209,-0.302751 0.187417,-0.237876 0.353209,-0.562252 0.173001,-0.331584 0.324377,-0.713628 0.151375,-0.382043 0.266709,-0.771294 0.122542,-0.39646 0.194626,-0.771295 z m 0.619919,0.641544 q 0.06488,0.07929 0.194625,0.26671 0.136959,0.187417 0.295543,0.418085 0.158584,0.223459 0.288335,0.418084 0.12975,0.187418 0.180209,0.273918 L 63.15711,47.71227 q -0.06488,-0.151376 -0.180209,-0.367627 -0.115333,-0.21625 -0.252292,-0.454126 -0.129751,-0.237876 -0.252293,-0.43971 -0.122542,-0.209043 -0.201834,-0.331585 z"
           id="text5-9"
           style="font-weight:500;font-size:7.20836px;line-height:1.25;font-family:'Noto Sans JP';-inkscape-font-specification:'Noto Sans JP Medium';stroke-width:0.25744"
           aria-label="三民高校" />
        <path
           style="font-weight:500;font-size:7.20836px;line-height:1.25;font-family:'Noto Sans KR';-inkscape-font-specification:'Noto Sans KR Medium';stroke-width:0.25744"
           d="m 82.191782,43.422267 h 0.756877 v 4.815185 h -0.756877 z m 0.374834,1.939049 h 1.138921 v 0.627127 h -1.138921 z m -3.979014,3.899723 h 4.606142 v 0.612711 h -4.606142 z m 0,-1.492131 h 0.756877 v 1.607465 h -0.756877 z m -0.04325,-3.885306 h 0.547836 v 0.728045 q 0,0.360418 -0.05767,0.742461 -0.05767,0.382043 -0.187417,0.742461 -0.122543,0.35321 -0.338793,0.655961 -0.216251,0.295542 -0.540627,0.490168 l -0.410877,-0.533419 q 0.281126,-0.180209 0.468543,-0.425293 0.194626,-0.245084 0.30996,-0.52621 0.115334,-0.288334 0.158584,-0.583877 0.05046,-0.295543 0.05046,-0.562252 z m 0.180209,0 h 0.533419 v 0.728045 q 0,0.252292 0.03604,0.547835 0.03604,0.295543 0.12975,0.591086 0.100917,0.288334 0.273918,0.547835 0.180209,0.259501 0.461335,0.454127 l -0.367626,0.562252 Q 79.467022,47.098531 79.250771,46.781363 79.041728,46.464195 78.926394,46.089361 78.818269,45.714526 78.767811,45.332483 78.72456,44.95044 78.72456,44.611647 Z m 1.600256,0 h 0.540627 v 0.728045 q 0,0.346001 -0.05046,0.735252 -0.04325,0.389252 -0.158584,0.764087 -0.108125,0.367626 -0.317168,0.684794 -0.209042,0.309959 -0.547835,0.519002 L 79.43098,46.75253 q 0.281126,-0.194626 0.454126,-0.446919 0.180209,-0.259501 0.273918,-0.547835 0.09371,-0.295543 0.129751,-0.583877 0.03604,-0.295543 0.03604,-0.562252 z m 0.173001,0 h 0.540627 v 0.728045 q 0,0.389251 0.0865,0.785711 0.09371,0.39646 0.30996,0.742461 0.223459,0.338793 0.598294,0.56946 l -0.418085,0.533419 q -0.425293,-0.259501 -0.677586,-0.677586 -0.245084,-0.425293 -0.346001,-0.929878 -0.09371,-0.511794 -0.09371,-1.023587 z m 4.115974,0.07929 h 3.12122 v 3.128429 h -3.12122 z m 2.385967,0.605502 h -1.650714 v 1.917424 h 1.650714 z m 1.946258,-1.146129 h 0.756878 v 4.714268 h -0.756878 z m -3.539305,5.788313 h 4.4836 v 0.612711 h -4.4836 z m 0,-1.513755 h 0.749669 v 1.780465 h -0.749669 z m 8.138244,-3.661847 h 4.209682 v 0.61271 h -4.209682 z m -0.619919,4.490808 h 5.954106 v 0.619919 h -5.954106 z m 2.220175,-2.313883 h 0.756878 v 2.616634 h -0.756878 z m 2.335509,-2.176925 h 0.749669 v 0.641544 q 0,0.410876 -0.0072,0.865003 -0.0072,0.454127 -0.05767,1.001962 -0.05046,0.547836 -0.180209,1.23263 l -0.756878,-0.0865 q 0.187417,-0.96592 0.216251,-1.693964 0.03604,-0.728045 0.03604,-1.31913 z m 2.083216,2.465259 h 5.954104 v 0.619919 h -5.954104 z m 0.735254,-1.153338 h 4.52685 v 0.605503 h -4.52685 z m 0,-1.701173 H 104.79 v 0.612711 h -3.74114 v 1.376797 h -0.74967 z m 2.22017,3.95739 q 1.06684,0 1.66514,0.317168 0.6055,0.309959 0.6055,0.886628 0,0.569461 -0.6055,0.87942 -0.5983,0.30996 -1.66514,0.30996 -1.05242,0 -1.65792,-0.30996 -0.6055,-0.309959 -0.6055,-0.87942 0,-0.576669 0.6055,-0.886628 0.6055,-0.317168 1.65792,-0.317168 z m 0,0.583877 q -0.47575,0 -0.81454,0.07208 -0.33879,0.07208 -0.519,0.209042 -0.173,0.129751 -0.173,0.338793 0,0.201834 0.173,0.338793 0.18021,0.136959 0.519,0.209043 0.33879,0.06488 0.81454,0.06488 0.49017,0 0.82176,-0.06488 0.33879,-0.07208 0.51179,-0.209043 0.173,-0.136959 0.173,-0.338793 0,-0.209042 -0.173,-0.338793 -0.173,-0.136958 -0.51179,-0.209042 -0.33159,-0.07208 -0.82176,-0.07208 z m 3.67627,-4.123182 h 3.8853 v 0.598294 h -3.8853 z m 1.94625,0.87942 q 0.46855,0 0.82897,0.151376 0.36041,0.151375 0.56225,0.425293 0.20183,0.266709 0.20183,0.627127 0,0.360418 -0.20183,0.634336 -0.20184,0.266709 -0.56225,0.418085 -0.36042,0.144167 -0.82897,0.144167 -0.47575,0 -0.83617,-0.144167 -0.36041,-0.151376 -0.56225,-0.418085 -0.20183,-0.273918 -0.20183,-0.634336 0,-0.360418 0.20183,-0.627127 0.20184,-0.273918 0.56225,-0.425293 0.36042,-0.151376 0.83617,-0.151376 z m 0,0.583877 q -0.39646,0 -0.64154,0.165793 -0.23788,0.158584 -0.23788,0.454126 0,0.288335 0.23788,0.454127 0.24508,0.165792 0.64154,0.165792 0.38926,0 0.62713,-0.165792 0.23788,-0.165792 0.23788,-0.454127 0,-0.295542 -0.23788,-0.454126 -0.23787,-0.165793 -0.62713,-0.165793 z m 2.43643,-2.104841 h 0.74967 v 4.123182 h -0.74967 z m 0.54784,1.75884 h 1.13171 v 0.627127 h -1.13171 z m -4.12319,2.68151 h 4.32502 v 2.148091 h -0.74967 v -1.542589 h -3.57535 z m 0.75688,-4.476392 h 0.75688 v 1.016379 h -0.75688 z m 5.65856,0.648753 h 4.20969 v 0.61271 h -4.20969 z m -0.59829,4.490808 h 5.95411 v 0.619919 h -5.95411 z m 1.36959,-2.133674 h 0.74246 v 2.342717 h -0.74246 z m 3.20772,-2.357134 h 0.74967 v 0.684794 q 0,0.410877 -0.007,0.857795 -0.007,0.446918 -0.0577,0.96592 -0.0433,0.519002 -0.15858,1.160546 l -0.74967,-0.07929 q 0.16579,-0.908253 0.19463,-1.600256 0.0288,-0.699211 0.0288,-1.304713 z m -1.57863,2.357134 h 0.74246 v 2.342717 h -0.74246 z"
           id="text5-9-8"
           aria-label="싼민 고등학교" />
      </g>
    </g>
  </g>
</svg>
