<?xml version="1.0" encoding="UTF-8" standalone="no"?>
<!-- Created with Inkscape (http://www.inkscape.org/) -->

<svg
   width="500"
   height="250"
   viewBox="0 0 132.29166 66.145833"
   version="1.1"
   id="svg1"
   inkscape:version="1.3.2 (091e20e, 2023-11-25, custom)"
   sodipodi:docname="o54.svg"
   xmlns:inkscape="http://www.inkscape.org/namespaces/inkscape"
   xmlns:sodipodi="http://sodipodi.sourceforge.net/DTD/sodipodi-0.dtd"
   xmlns="http://www.w3.org/2000/svg"
   xmlns:svg="http://www.w3.org/2000/svg">
  <sodipodi:namedview
     id="namedview1"
     pagecolor="#9e652e"
     bordercolor="#ffffff"
     borderopacity="1"
     inkscape:showpageshadow="0"
     inkscape:pageopacity="0"
     inkscape:pagecheckerboard="false"
     inkscape:deskcolor="#d1d1d1"
     inkscape:document-units="mm"
     inkscape:zoom="2.0208096"
     inkscape:cx="288.25081"
     inkscape:cy="130.14586"
     inkscape:window-width="1920"
     inkscape:window-height="1009"
     inkscape:window-x="1912"
     inkscape:window-y="-8"
     inkscape:window-maximized="1"
     inkscape:current-layer="layer1"
     showguides="true">
    <sodipodi:guide
       position="142.71301,-1.1518642"
       orientation="1,0"
       id="guide4"
       inkscape:locked="false" />
  </sodipodi:namedview>
  <defs
     id="defs1">
    <rect
       x="560.66638"
       y="34.144731"
       width="279.32397"
       height="128.59143"
       id="rect6" />
    <rect
       x="157.85752"
       y="62.351248"
       width="329.07603"
       height="135.09437"
       id="rect4" />
    <rect
       x="157.85751"
       y="62.35125"
       width="329.07602"
       height="135.09438"
       id="rect4-5" />
    <rect
       x="157.85751"
       y="62.35125"
       width="329.07602"
       height="135.09438"
       id="rect4-5-7" />
    <rect
       x="157.85751"
       y="62.35125"
       width="462.90293"
       height="131.58831"
       id="rect4-5-0" />
    <rect
       x="157.85751"
       y="62.35125"
       width="329.07602"
       height="135.09438"
       id="rect4-5-79" />
    <rect
       x="157.85751"
       y="62.35125"
       width="329.07602"
       height="135.09438"
       id="rect4-5-2" />
    <rect
       x="157.85751"
       y="62.35125"
       width="329.07602"
       height="135.09438"
       id="rect4-5-6" />
  </defs>
  <g
     inkscape:label="Layer 1"
     inkscape:groupmode="layer"
     id="layer1">
    <path
       id="rect5"
       style="fill:#f4eed7;stroke-width:0.953294"
       d="M -2.5431316e-6,-1.2715658e-6 H 132.29167 V 66.145835 H -2.5431316e-6 Z" />
    <text
       xml:space="preserve"
       transform="matrix(0.31615295,0,0,0.31615295,-10.474341,-6.4462013)"
       id="text6"
       style="font-size:55px;line-height:1.25;font-family:'Microsoft JhengHei';-inkscape-font-specification:'Microsoft JhengHei';white-space:pre;shape-inside:url(#rect6);display:inline" />
    <g
       id="g5"
       transform="translate(3.2625546)">
      <path
         style="font-weight:500;font-size:72px;line-height:1.25;font-family:'Noto Sans TC';-inkscape-font-specification:'Noto Sans TC Medium';white-space:pre"
         d="m 194.07342,88.281406 h 26.712 v 3.384 h -26.712 z m -24.552,5.616 h 51.552 v 4.32 h -51.552 z m 0,41.256004 h 57.096 v 4.248 h -57.096 z m 8.424,-60.480004 h 6.768 v 12.528 h -6.768 z m 24.84,0 h 6.768 v 12.384 h -6.768 z m -7.488,37.080004 h 5.328 v 11.376 h -5.328 z m -5.472,-26.352004 h 6.408 v 9.576 h -6.408 z m -13.32,40.824004 h 43.704 v 10.584 h -5.832 v -7.056 h -7.56 v 7.056 h -4.968 v -7.056 h -7.416 v 7.056 h -4.968 v -7.056 h -7.344 v 7.056 h -5.616 z m 7.992,-7.344 v 2.664 h 27.432 v -2.664 z m 0,-5.256 v 2.52 h 27.432 v -2.52 z m -5.616,-2.808 h 39.024 v 13.536 h -39.024 z m -12.456,-16.920004 h 6.048 v 13.680004 q 0,3.744 -0.288,8.136 -0.288,4.32 -1.08,8.928 -0.792,4.536 -2.304,8.856 -1.44,4.32 -3.744,7.92 -0.576,-0.432 -1.584,-1.08 -0.936,-0.648 -1.944,-1.296 -1.008,-0.576 -1.728,-0.864 3.024,-4.536 4.392,-9.936 1.44,-5.472 1.8,-10.872 0.432,-5.4 0.432,-9.864 z m 52.92,0 h 0.936 l 1.08,-0.216 4.392,0.864 q -0.576,2.304 -1.368,4.752 -0.792,2.448004 -1.584,4.176004 l -5.544,-1.08 q 0.576,-1.512 1.152,-3.600004 0.576,-2.16 0.936,-4.176 z m -57.168,-15.12 h 30.744 v 4.824 h -30.744 z m 33.048,0 h 30.6 v 4.824 h -30.6 z m -19.872,22.464004 17.28,-0.792 0.216,4.392 -17.28,1.008 z m 13.536,-4.176004 h 5.4 v 5.760004 q 0,1.368 0.432,1.872 0.432,0.504 2.16,0.504 0.576,0 1.872,0 1.368,0 3.096,0 1.728,0 3.456,0 1.8,0 3.168,0 1.368,0 2.016,0 1.08,0 2.52,-0.072 1.44,-0.072 2.736,-0.216 1.368,-0.144 2.016,-0.216 0.144,1.08 0.216,2.016 0.144,0.936 0.288,1.8 -1.008,0.288 -3.096,0.36 -2.016,0.072 -4.032,0.072 -0.72,0 -2.376,0 -1.584,0 -3.6,0 -2.016,0 -4.032,0 -1.944,0 -3.456,0 -1.512,0 -2.016,0 -2.808,0 -4.32,-0.648 -1.44,-0.72 -1.944,-2.088 -0.504,-1.368 -0.504,-3.456 z m 3.384,3.312004 20.016,-0.792004 0.072,3.168004 -20.016,0.936 z m 82.008,-22.824004 h 6.408 v 62.136004 h -6.408 z m 15.48,-1.296 h 6.552 v 65.160004 h -6.552 z m -31.032,0.072 h 6.408 v 24.768004 q 0,7.056 -0.648,14.184 -0.576,7.128 -2.736,13.824 -2.088,6.624 -6.552,12.384 -0.648,-0.648 -1.728,-1.44 -1.008,-0.72 -2.088,-1.44 -1.008,-0.72 -1.944,-1.08 4.248,-5.256 6.192,-11.232 1.944,-5.976 2.52,-12.384 0.576,-6.408 0.576,-12.888 z m 5.904,21.816 4.608,-1.656 q 1.08,2.52 2.016,5.400004 1.008,2.88 1.8,5.616 0.864,2.736 1.224,4.896 l -4.824,1.872 q -0.36,-2.232 -1.152,-4.968 -0.72,-2.808 -1.656,-5.688 -0.936,-2.952 -2.016,-5.472004 z m 14.328,-0.792 4.608,-2.016 q 1.512,2.664 2.952,5.688004 1.512,3.024 2.664,5.904 1.224,2.88 1.944,5.184 l -4.968,2.304 q -0.576,-2.304 -1.728,-5.256 -1.152,-2.952 -2.592,-6.048 -1.44,-3.096 -2.88,-5.760004 z m -43.704,-17.064 4.032,-4.896 q 1.944,0.936 4.176,2.232 2.232,1.296 4.32,2.592 2.088,1.296 3.384,2.448 l -4.176,5.472 q -1.224,-1.08 -3.24,-2.52 -2.016,-1.44 -4.248,-2.808 -2.232,-1.44 -4.248,-2.52 z m -3.024,19.368 3.888,-4.968 q 2.016,0.864 4.248,2.088 2.304,1.224 4.464,2.448 2.16,1.224004 3.528,2.232004 l -4.032,5.544 q -1.224,-1.08 -3.384,-2.376 -2.088,-1.296 -4.392,-2.592 -2.232,-1.368 -4.32,-2.376004 z m 1.368,37.440004 q 1.512,-2.808 3.168,-6.624 1.728,-3.816 3.456,-8.064 1.728,-4.32 3.168,-8.424 l 5.472,3.6 q -1.296,3.744 -2.808,7.776 -1.512,4.032 -3.168,7.92 -1.584,3.888 -3.096,7.344 z m 15.336,-39.168004 4.968,-1.728 q 1.152,2.736 2.16,5.760004 1.08,3.024 1.8,5.976 0.792,2.88 1.152,5.184 l -5.328,1.944 q -0.288,-2.304 -1.008,-5.256 -0.72,-3.024 -1.728,-6.12 -0.936,-3.096 -2.016,-5.760004 z m 57.456,-16.488 h 63 v 5.904 h -63 z m 27.792,-6.768 h 6.912 v 28.800004 h -6.912 z m -1.512,9.576 5.688,2.52 q -2.592,2.88 -6.048,5.544 -3.384,2.664 -7.344,4.896 -3.888,2.232 -8.136,4.032004 -4.176,1.728 -8.352,2.952 -0.432,-0.864 -1.224,-1.872 -0.72,-1.008 -1.584,-2.016 -0.792,-1.008004 -1.512,-1.656004 4.032,-1.008 8.136,-2.448 4.104,-1.512 7.92,-3.312 3.816,-1.872 6.984,-4.032 3.24,-2.232 5.472,-4.608 z m -14.616,20.592004 h 34.2 v 5.904 h -34.2 z m -12.384,13.968 h 64.44 v 6.192 h -64.44 z m 28.584,-3.456 h 6.696 v 18.576 q 0,2.664 -0.792,4.032 -0.792,1.44 -2.88,2.232 -2.088,0.792 -5.112,0.936 -3.024,0.144 -7.344,0.144 -0.288,-0.936 -0.792,-2.088 -0.504,-1.152 -1.08,-2.304 -0.576,-1.152 -1.152,-1.944 2.304,0.072 4.464,0.144 2.232,0 3.96,0 1.728,0 2.376,0 0.936,-0.072 1.296,-0.288 0.36,-0.288 0.36,-1.008 z m 16.704,-10.512 h 1.728 l 1.512,-0.36 4.32,3.816 q -4.32,3.096 -9.864,6.048 -5.544,2.88 -11.016,4.896 -0.576,-0.864 -1.656,-2.016 -1.008,-1.152 -1.728,-1.872 3.096,-1.08 6.264,-2.664 3.24,-1.584 5.976,-3.312 2.736,-1.728 4.464,-3.24 z m -14.688,-13.968004 3.384,-4.464 q 3.816,1.224 8.064,2.808 4.248,1.584 8.496,3.312 4.248,1.728 7.992,3.456 3.744,1.656 6.408,3.096 l -3.672,5.256004 q -2.52,-1.44 -6.192,-3.168 -3.672,-1.800004 -7.92,-3.600004 -4.176,-1.872 -8.496,-3.6 -4.248,-1.728 -8.064,-3.096 z m 88.488,0.288 5.4,5.544 q -4.392,1.656 -9.72,2.952 -5.256,1.296004 -11.088,2.376004 -5.76,1.008 -11.664,1.8 -5.904,0.792 -11.52,1.368 -0.144,-1.296 -0.792,-3.024 -0.576,-1.8 -1.224,-2.952004 5.544,-0.648 11.232,-1.44 5.688,-0.792 11.016,-1.8 5.4,-1.008 10.08,-2.232 4.68,-1.224 8.28,-2.592 z m -21.6,9.864004 h 7.344 v 29.016 q 0,2.304 0.936,2.952 1.008,0.648 4.32,0.648 0.648,0 1.944,0 1.368,0 3.096,0 1.8,0 3.528,0 1.8,0 3.312,0 1.512,0 2.304,0 1.944,0 2.952,-0.72 1.008,-0.72 1.44,-2.736 0.432,-2.088 0.648,-6.12 0.864,0.576 2.016,1.152 1.224,0.504 2.448,0.936 1.296,0.432 2.304,0.648 -0.432,5.256 -1.584,8.208 -1.08,2.952 -3.384,4.104 -2.304,1.224 -6.336,1.224 -0.72,0 -2.304,0 -1.512,0 -3.528,0 -1.944,0 -3.888,0 -1.944,0 -3.456,0 -1.512,0 -2.16,0 -4.68,0 -7.272,-0.936 -2.592,-0.864 -3.672,-3.168 -1.008,-2.232 -1.008,-6.192 z m -23.832,-19.368004 h 61.2 v 15.48 h -7.2 v -9 h -47.088 v 9 h -6.912 z m 24.768,-5.4 6.768,-1.944 q 1.296,2.088 2.592,4.68 1.296,2.592 1.8,4.464 l -7.056,2.232 q -0.504,-1.872 -1.656,-4.536 -1.152,-2.664 -2.448,-4.896 z m -23.256,35.856004 h 56.664 v 6.624 h -56.664 z"
         id="text4-0"
         transform="matrix(0.10548954,0,0,0.10548954,43.18963,11.461147)"
         aria-label="蘆洲李宅" />
      <path
         style="font-size:2.90076px;line-height:1.25;font-family:'AR UDJingXiHeiE1G30 EB';-inkscape-font-specification:'AR UDJingXiHeiE1G30 EB';stroke-width:0.103598"
         d="m 60.842364,27.739393 h -0.652671 v -0.287175 h 1.670838 v 0.287175 h -0.64977 v 1.810074 h -0.368397 z m 1.665036,0.87893 v 0.931144 H 62.139004 V 27.452218 H 62.5074 v 0.87893 h 1.006564 v -0.87893 h 0.368396 v 2.097249 h -0.368396 v -0.931144 z m 3.408394,0.931144 h -1.551907 v -2.097249 h 1.543204 v 0.287175 h -1.174807 v 0.591755 h 1.096487 v 0.287175 h -1.096487 v 0.643969 h 1.18351 z m 2.622286,0 h -1.473586 v -2.097249 h 0.368397 v 1.810074 h 1.105189 z m 2.062443,-0.733892 q 0,0.365496 -0.22916,0.568549 -0.22916,0.203053 -0.652671,0.203053 -0.429313,0 -0.661374,-0.200152 -0.22916,-0.200153 -0.22916,-0.568549 v -1.366258 h 0.368397 v 1.348853 q 0,0.237863 0.130534,0.368397 0.130534,0.130534 0.391603,0.130534 0.246564,0 0.377099,-0.124733 0.133434,-0.127633 0.133434,-0.379999 v -1.343052 h 0.371298 z m 0.420611,-1.363357 h 1.64183 v 0.263969 l -1.264731,1.546105 h 1.293739 v 0.287175 h -1.766563 v -0.263969 l 1.264731,-1.546105 h -1.169006 z m 2.378623,1.166105 v 0.931144 H 73.03136 v -2.097249 h 0.368397 v 0.87893 h 1.006563 v -0.87893 h 0.368397 v 2.097249 H 74.40632 v -0.931144 z m 3.872515,-0.107328 q 0,0.504733 -0.281373,0.791908 -0.278473,0.284274 -0.7629,0.284274 -0.49313,0 -0.771602,-0.287175 -0.278473,-0.287175 -0.278473,-0.789007 0,-0.510533 0.281373,-0.800609 0.281374,-0.292977 0.768702,-0.292977 0.493129,0 0.768701,0.290076 0.275572,0.290076 0.275572,0.80351 z m -1.044273,0.789007 q 0.316182,0 0.487327,-0.208855 0.174046,-0.208854 0.174046,-0.580152 0,-0.368396 -0.174046,-0.585953 -0.174045,-0.220458 -0.487327,-0.220458 -0.319084,0 -0.49603,0.223359 -0.174046,0.220457 -0.174046,0.583052 0,0.371298 0.176946,0.580152 0.176947,0.208855 0.49313,0.208855 z m 3.202439,-0.484427 q 0,0.365496 -0.22916,0.568549 -0.22916,0.203053 -0.652671,0.203053 -0.429313,0 -0.661373,-0.200152 -0.229161,-0.200153 -0.229161,-0.568549 v -1.366258 h 0.368397 v 1.348853 q 0,0.237863 0.130534,0.368397 0.130534,0.130534 0.391603,0.130534 0.246564,0 0.377099,-0.124733 0.133435,-0.127633 0.133435,-0.379999 v -1.343052 h 0.371297 z m 2.700606,0.733892 h -1.473586 v -2.097249 h 0.368396 v 1.810074 h 1.10519 z m 1.856488,0 h -1.551907 v -2.097249 h 1.543205 v 0.287175 h -1.174808 v 0.591755 h 1.096487 v 0.287175 h -1.096487 v 0.643969 h 1.18351 z m 1.940611,0 h -1.551907 v -2.097249 h 1.543205 v 0.287175 h -1.174808 v 0.591755 h 1.096487 v 0.287175 h -1.096487 v 0.643969 h 1.18351 z m 1.517097,-0.931144 v 0.931144 h -0.368396 v -2.097249 h 1.470685 v 0.287175 H 87.44524 v 0.591755 h 0.968854 v 0.287175 z m 2.526564,0.08412 -0.330687,-0.896335 -0.336488,0.896335 z m -0.774503,0.287175 -0.208855,0.559846 h -0.374198 l 0.844121,-2.097249 h 0.377099 l 0.83832,2.097249 h -0.3829 l -0.211756,-0.559846 z m 2.074042,-0.95145 v 1.511296 h -0.356794 v -2.097249 h 0.467023 l 0.603358,1.627326 0.580152,-1.627326 h 0.478625 v 2.097249 h -0.359694 v -1.522899 l -0.545343,1.522899 h -0.310381 z m 2.622286,-0.585953 v 2.097249 h -0.368396 v -2.097249 z m 1.955108,2.097249 h -1.473586 v -2.097249 h 0.368397 v 1.810074 h 1.105189 z m 1.081985,-1.169006 0.597557,-0.928243 h 0.411908 l -0.826717,1.232823 v 0.864426 h -0.368396 v -0.864426 l -0.841221,-1.232823 h 0.420611 z m 2.372823,0.237862 v 0.931144 h -0.368396 v -2.097249 h 0.368396 v 0.87893 h 1.006565 v -0.87893 h 0.3684 v 2.097249 h -0.3684 v -0.931144 z m 2.224885,-1.166105 v 2.097249 h -0.3684 v -2.097249 z m 1.1777,1.148701 q -0.3829,-0.06962 -0.56855,-0.214656 -0.18564,-0.145038 -0.18564,-0.406107 0,-0.243664 0.19725,-0.403205 0.20015,-0.159542 0.61496,-0.159542 0.38,0 0.58885,0.162442 0.20886,0.162443 0.22916,0.469924 h -0.36839 q -0.003,-0.147939 -0.11603,-0.246565 -0.11313,-0.09863 -0.34519,-0.09863 -0.21756,0 -0.32199,0.07252 -0.10443,0.07252 -0.10153,0.203053 0,0.142138 0.13924,0.211756 0.14214,0.06962 0.46122,0.133435 0.40031,0.08122 0.56855,0.220457 0.17115,0.139237 0.17115,0.41771 0,0.26687 -0.22626,0.446717 -0.22626,0.176946 -0.64397,0.176946 -0.42641,0 -0.66428,-0.179847 -0.23786,-0.179847 -0.23786,-0.519236 h 0.3684 q 0,0.18855 0.14214,0.301679 0.14213,0.110229 0.3945,0.110229 0.23206,0 0.36259,-0.08992 0.13054,-0.08992 0.13054,-0.234961 0,-0.168244 -0.13054,-0.240763 -0.13053,-0.07252 -0.45832,-0.133435 z m 1.75496,-0.861526 h -0.65267 v -0.287175 h 1.67084 v 0.287175 h -0.64977 v 1.810074 h -0.3684 z m 3.31267,0.771602 q 0,0.504733 -0.28137,0.791908 -0.27847,0.284274 -0.7629,0.284274 -0.49313,0 -0.7716,-0.287175 -0.27848,-0.287175 -0.27848,-0.789007 0,-0.510533 0.28138,-0.800609 0.28137,-0.292977 0.7687,-0.292977 0.49313,0 0.7687,0.290076 0.27557,0.290076 0.27557,0.80351 z m -1.04427,0.789007 q 0.31618,0 0.48733,-0.208855 0.17404,-0.208854 0.17404,-0.580152 0,-0.368396 -0.17404,-0.585953 -0.17405,-0.220458 -0.48733,-0.220458 -0.31908,0 -0.49603,0.223359 -0.17405,0.220457 -0.17405,0.583052 0,0.371298 0.17695,0.580152 0.17695,0.208855 0.49313,0.208855 z m 2.75862,-1.247327 q 0,-0.15374 -0.0812,-0.232061 -0.0812,-0.08122 -0.23496,-0.08122 h -0.62947 v 0.652671 h 0.60916 q 0.15084,0 0.24367,-0.08992 0.0928,-0.08992 0.0928,-0.249466 z m -0.94565,0.623664 v 0.873128 h -0.36839 v -2.097249 h 1.06748 q 0.28717,0 0.45542,0.15374 0.17114,0.15084 0.17114,0.429313 0,0.182748 -0.087,0.313282 -0.0841,0.130534 -0.21176,0.185648 0.16244,0.09283 0.24947,0.321985 0.087,0.22916 0.11023,0.693281 h -0.3829 q -0.0174,-0.487327 -0.10733,-0.678777 -0.087,-0.194351 -0.28138,-0.194351 z m 2.12046,-1.224121 v 2.097249 h -0.3684 v -2.097249 z m 1.97252,1.366258 h 0.36839 q -0.0145,0.34519 -0.24076,0.556946 -0.22626,0.211755 -0.65557,0.211755 -0.50763,0 -0.77741,-0.287175 -0.26687,-0.287175 -0.26687,-0.797709 0,-0.504732 0.26687,-0.794808 0.26978,-0.290076 0.77161,-0.290076 0.4032,0 0.62656,0.185648 0.22336,0.182748 0.25527,0.475725 h -0.3684 q -0.0232,-0.168244 -0.15374,-0.269771 -0.13053,-0.104427 -0.3684,-0.104427 -0.29297,0 -0.46992,0.197252 -0.17695,0.197251 -0.17695,0.600457 0,0.409007 0.17695,0.603358 0.17985,0.194351 0.47573,0.194351 0.25236,0 0.3887,-0.130534 0.13633,-0.133435 0.14794,-0.350992 z m 3.03999,0.730991 h -1.55191 v -2.097249 h 1.54321 v 0.287175 h -1.17481 v 0.591755 h 1.09649 v 0.287175 h -1.09649 v 0.643969 h 1.18351 z m 1.08488,-0.948548 q -0.3829,-0.06962 -0.56855,-0.214656 -0.18564,-0.145038 -0.18564,-0.406107 0,-0.243664 0.19725,-0.403205 0.20015,-0.159542 0.61496,-0.159542 0.38,0 0.58885,0.162442 0.20886,0.162443 0.22916,0.469924 h -0.36839 q -0.003,-0.147939 -0.11603,-0.246565 -0.11313,-0.09863 -0.34519,-0.09863 -0.21756,0 -0.32199,0.07252 -0.10443,0.07252 -0.10153,0.203053 0,0.142138 0.13924,0.211756 0.14214,0.06962 0.46122,0.133435 0.40031,0.08122 0.56855,0.220457 0.17115,0.139237 0.17115,0.41771 0,0.26687 -0.22626,0.446717 -0.22626,0.176946 -0.64397,0.176946 -0.42641,0 -0.66428,-0.179847 -0.23786,-0.179847 -0.23786,-0.519236 h 0.3684 q 0,0.18855 0.14214,0.301679 0.14213,0.110229 0.3945,0.110229 0.23206,0 0.36259,-0.08992 0.13054,-0.08992 0.13054,-0.234961 0,-0.168244 -0.13054,-0.240763 -0.13053,-0.07252 -0.45832,-0.133435 z m 1.75496,-0.861526 h -0.65267 v -0.287175 h 1.67084 v 0.287175 h -0.64977 v 1.810074 h -0.3684 z m 2.41343,0.963053 -0.33068,-0.896335 -0.33649,0.896335 z m -0.7745,0.287175 -0.20885,0.559846 h -0.3742 l 0.84412,-2.097249 h 0.3771 l 0.83832,2.097249 h -0.3829 l -0.21176,-0.559846 z m 2.16397,-1.250228 h -0.65267 v -0.287175 h 1.67083 v 0.287175 h -0.64977 v 1.810074 h -0.36839 z m 2.84854,1.810074 h -1.5519 v -2.097249 h 1.5432 v 0.287175 h -1.17481 v 0.591755 h 1.09649 v 0.287175 h -1.09649 v 0.643969 h 1.18351 z"
         id="text5-8"
         aria-label="THE LUZHOU LEE FAMILY HISTORIC ESTATE" />
      <path
         d="m 60.249415,30.761208 h 2.377017 v 0.181819 h -2.377017 z m 1.192519,0.344922 h 0.991984 v 0.125669 h -0.991984 z m -0.911769,0.208557 h 1.914448 v 0.160429 h -1.914448 z m 0,1.532093 h 2.120331 v 0.157755 h -2.120331 z m 0.312836,-2.246 h 0.251338 v 0.465243 h -0.251338 z m 0.922464,0 h 0.251338 v 0.459895 h -0.251338 z m -0.278076,1.36899 h 0.197862 v 0.419789 h -0.197862 z m -0.20321,-0.970593 h 0.237969 v 0.355617 h -0.237969 z m -0.494654,1.516051 h 1.623002 v 0.39305 h -0.216578 v -0.262034 h -0.28075 v 0.262034 h -0.184493 v -0.262034 h -0.275403 v 0.262034 H 61.27081 v -0.262034 h -0.272728 v 0.262034 h -0.208557 z m 0.296792,-0.28075 v 0.09626 h 1.018722 v -0.09626 z m 0,-0.195189 v 0.09358 h 1.018722 v -0.09358 z M 60.87776,31.932337 h 1.449205 v 0.502676 H 60.87776 Z m -0.462569,-0.61765 h 0.2246 v 0.508024 q 0,0.139038 -0.0107,0.30214 -0.01069,0.160429 -0.04011,0.331553 -0.02941,0.16845 -0.08556,0.328878 -0.05348,0.160429 -0.139038,0.29412 -0.02139,-0.01604 -0.05882,-0.04011 -0.03476,-0.02406 -0.07219,-0.04813 -0.03743,-0.02139 -0.06417,-0.03209 0.1123,-0.16845 0.163102,-0.368986 0.05348,-0.203209 0.06684,-0.403745 0.01604,-0.200536 0.01604,-0.366312 z m 0.3369,0.28075 1.371665,-0.06952 0.0053,0.1123 -1.371664,0.07487 z m 0.508024,-0.165776 h 0.20321 v 0.248664 q 0,0.04546 0.02941,0.05882 0.03209,0.01337 0.131016,0.01337 0.02139,0 0.08824,0 0.06952,0 0.149733,0 0.08289,0 0.155081,0 0.07219,0 0.104279,0 0.0615,0 0.08289,-0.01872 0.02406,-0.01872 0.02941,-0.08824 0.03476,0.01604 0.07754,0.02941 0.04546,0.0107 0.08289,0.01604 -0.0107,0.106953 -0.06417,0.144386 -0.05348,0.03743 -0.181819,0.03743 -0.01872,0 -0.07487,0 -0.05348,0 -0.125669,0 -0.07219,0 -0.144385,0 -0.06952,0 -0.122996,0 -0.05348,0 -0.07219,0 -0.13369,0 -0.211231,-0.01604 -0.07487,-0.01604 -0.106952,-0.05615 -0.02941,-0.04278 -0.02941,-0.122996 z m 1.120326,-0.114974 h 0.03476 l 0.04011,-0.008 0.163103,0.03209 q -0.02139,0.08556 -0.0508,0.176472 -0.02941,0.09091 -0.05882,0.155081 l -0.205883,-0.04011 q 0.02139,-0.05615 0.04278,-0.13369 0.02139,-0.08021 0.03476,-0.155081 z m 2.037444,-0.606955 h 0.237969 v 2.307498 h -0.237969 z m 0.574869,-0.04813 h 0.243317 v 2.419799 h -0.243317 z m -1.136369,0.0027 h 0.237969 v 0.919791 q 0,0.262033 -0.02406,0.52674 -0.02139,0.264708 -0.101604,0.513372 -0.07754,0.245991 -0.243317,0.459895 -0.02406,-0.02406 -0.06417,-0.05348 -0.03743,-0.02674 -0.07754,-0.05348 -0.03743,-0.02674 -0.07219,-0.04011 0.157755,-0.195188 0.229948,-0.417115 0.07219,-0.221926 0.09358,-0.459895 0.02139,-0.237969 0.02139,-0.478612 z m -0.221927,0.705886 0.192515,0.05882 q -0.01872,0.1123 -0.04813,0.237969 -0.02941,0.125669 -0.06952,0.243317 -0.04011,0.114974 -0.09626,0.205883 l -0.189841,-0.104278 q 0.05615,-0.08021 0.09626,-0.187167 0.04011,-0.109626 0.06952,-0.227274 0.02941,-0.117648 0.04545,-0.227274 z m 0.42781,0.114974 0.179145,-0.06952 q 0.04546,0.08824 0.08289,0.192514 0.03743,0.101605 0.06417,0.200536 0.02941,0.09893 0.04278,0.176471 l -0.192515,0.07754 q -0.01069,-0.08021 -0.03743,-0.179145 -0.02674,-0.101605 -0.06417,-0.205884 -0.03476,-0.104278 -0.07487,-0.192514 z m 0.532088,-0.04011 0.181819,-0.08021 q 0.0615,0.09358 0.114974,0.20321 0.05615,0.106952 0.09893,0.211231 0.04278,0.104279 0.06417,0.187167 l -0.195189,0.09358 q -0.02139,-0.08556 -0.06417,-0.192514 -0.04011,-0.106953 -0.09358,-0.216579 -0.0508,-0.109626 -0.106953,-0.205883 z m -1.623002,-0.633693 0.149733,-0.181819 q 0.07219,0.03476 0.155081,0.08289 0.08289,0.04813 0.160428,0.09626 0.07754,0.04813 0.12567,0.09091 l -0.155081,0.203209 q -0.04545,-0.04011 -0.120322,-0.09358 -0.07487,-0.05348 -0.157755,-0.104279 -0.08289,-0.05348 -0.157754,-0.09358 z m -0.112301,0.719255 0.144386,-0.184493 q 0.07487,0.03209 0.157755,0.07754 0.08556,0.04546 0.165776,0.09091 0.08021,0.04546 0.131017,0.08289 l -0.149733,0.205883 q -0.04545,-0.04011 -0.12567,-0.08824 -0.07754,-0.04813 -0.163102,-0.09626 -0.08289,-0.0508 -0.160429,-0.08824 z m 0.0508,1.390381 q 0.05615,-0.104279 0.117648,-0.245991 0.06417,-0.141712 0.128342,-0.299466 0.06417,-0.160429 0.117648,-0.312836 l 0.20321,0.13369 q -0.04813,0.139039 -0.104279,0.288772 -0.05615,0.149733 -0.117648,0.294119 -0.05882,0.144386 -0.114973,0.272729 z m 2.681831,-2.029422 h 2.382365 v 0.235295 h -2.382365 z m 1.056155,-0.288771 h 0.251338 v 1.069524 h -0.251338 z m -0.131016,0.35829 0.219252,0.08824 q -0.08824,0.125669 -0.205883,0.243317 -0.117648,0.114973 -0.254012,0.216578 -0.136365,0.101605 -0.286098,0.181819 -0.14706,0.08021 -0.294119,0.136365 -0.01872,-0.02941 -0.04813,-0.06685 -0.02941,-0.04011 -0.0615,-0.07754 -0.03209,-0.03743 -0.05882,-0.0615 0.141712,-0.04813 0.283424,-0.117647 0.144385,-0.06952 0.275402,-0.155081 0.133691,-0.08556 0.243317,-0.184493 0.1123,-0.09893 0.187167,-0.20321 z m 0.502676,0.0053 q 0.07754,0.101605 0.18984,0.195188 0.1123,0.09358 0.245991,0.176471 0.136364,0.08289 0.283424,0.149734 0.147059,0.06684 0.294119,0.109626 -0.02674,0.02406 -0.0615,0.06417 -0.03209,0.03743 -0.0615,0.07754 -0.02674,0.04011 -0.04813,0.07219 -0.149733,-0.05348 -0.299467,-0.131017 -0.149733,-0.08021 -0.288771,-0.179145 -0.136365,-0.09893 -0.256686,-0.211231 -0.117648,-0.114974 -0.208557,-0.237969 z m -0.973267,0.770057 h 1.27006 v 0.219252 h -1.27006 z M 65.58634,32.25052 h 2.39306 v 0.229948 h -2.39306 z m 1.061502,-0.131016 h 0.251338 v 0.687169 q 0,0.09626 -0.02941,0.149733 -0.02941,0.05348 -0.109626,0.08289 -0.07487,0.02674 -0.187166,0.03209 -0.1123,0.0053 -0.272729,0.0053 -0.01069,-0.03476 -0.02941,-0.07754 -0.01872,-0.04278 -0.04011,-0.08556 -0.02139,-0.04011 -0.04278,-0.07219 0.08556,0.0027 0.165776,0.0053 0.08289,0 0.144386,0 0.06417,0 0.09091,0 0.03476,-0.0027 0.04546,-0.0107 0.01337,-0.01069 0.01337,-0.03743 z m 0.620324,-0.385029 h 0.06417 l 0.05615,-0.01337 0.157754,0.139038 q -0.09893,0.08021 -0.219252,0.163103 -0.120321,0.08021 -0.251338,0.152407 -0.131017,0.06952 -0.25936,0.125669 -0.02139,-0.02941 -0.0615,-0.07219 -0.04011,-0.04278 -0.06685,-0.06952 0.106953,-0.04545 0.216579,-0.109626 0.1123,-0.06685 0.208557,-0.136365 0.09893,-0.07219 0.155081,-0.131016 z m 2.70857,-0.52674 0.200535,0.205883 q -0.157754,0.06417 -0.347595,0.120321 -0.18984,0.05348 -0.398398,0.09893 -0.205883,0.04278 -0.419788,0.07754 -0.213904,0.03209 -0.417114,0.05882 -0.008,-0.04813 -0.03209,-0.1123 -0.02406,-0.06417 -0.04546,-0.109627 0.197862,-0.02674 0.401072,-0.0615 0.205883,-0.03476 0.401071,-0.07754 0.195189,-0.04546 0.360965,-0.09358 0.16845,-0.0508 0.296793,-0.106952 z m -1.721934,0.909095 2.358301,-0.251338 0.02941,0.235295 -2.355626,0.25936 z m 0.951876,-0.537436 h 0.272729 v 1.10161 q 0,0.05882 0.01337,0.08824 0.01604,0.02941 0.05615,0.04011 0.04011,0.008 0.125669,0.008 0.02406,0 0.07219,0 0.0508,0 0.114974,0 0.06685,0 0.13369,0 0.06685,0 0.120322,0 0.05348,0 0.08289,0 0.07487,0 0.1123,-0.02674 0.04011,-0.02941 0.05615,-0.114974 0.01604,-0.08556 0.02406,-0.248664 0.03209,0.02139 0.07487,0.04278 0.04546,0.02139 0.09358,0.03743 0.04813,0.01604 0.08556,0.02674 -0.01872,0.205884 -0.0615,0.323531 -0.04011,0.114974 -0.125669,0.160429 -0.08556,0.04813 -0.240643,0.04813 -0.02406,0 -0.08289,0 -0.05615,0 -0.131017,0 -0.07219,0 -0.144386,0 -0.07219,0 -0.128343,0 -0.05615,0 -0.08021,0 -0.173798,0 -0.270055,-0.03476 -0.09626,-0.03209 -0.136364,-0.117648 -0.03743,-0.08289 -0.03743,-0.229947 z m 0.106953,-0.978614 h 0.270055 v 0.457221 h -0.270055 z m -0.991984,0.259359 h 2.272739 v 0.601607 h -0.267381 v -0.360964 h -1.748672 v 0.360964 h -0.256686 z"
         id="text5-9-1"
         style="font-weight:500;font-size:2.67381px;line-height:1.25;font-family:'Noto Sans JP';-inkscape-font-specification:'Noto Sans JP Medium';stroke-width:0.0954936"
         aria-label="蘆洲李宅" />
      <path
         style="font-weight:500;font-size:2.67381px;line-height:1.25;font-family:'Noto Sans kr';-inkscape-font-specification:'Noto Sans kr Medium';stroke-width:0.0954936"
         d="m 73.209778,30.791394 h 1.689848 v 0.676474 h -1.401077 v 0.398398 h -0.283423 v -0.609629 h 1.40375 V 31.01332 h -1.409098 z m 0.0053,0.938508 h 1.743324 v 0.227273 h -1.743324 z m -0.264708,0.446526 h 2.213915 v 0.227274 h -2.213915 z m 0.962572,0.08289 h 0.278076 v 0.890379 H 73.91299 Z m 3.246005,-1.558831 h 0.278077 v 2.44921 h -0.278077 z m -0.483959,0.874336 h 0.556152 v 0.227273 H 76.675036 Z M 76.00391,31.066797 h 0.2246 v 0.299466 q 0,0.208558 -0.04813,0.409093 -0.04813,0.200536 -0.136364,0.377008 -0.08824,0.173797 -0.213905,0.310161 -0.125669,0.136365 -0.283424,0.216579 l -0.163102,-0.221926 q 0.139038,-0.06952 0.254012,-0.184493 0.114973,-0.117648 0.197862,-0.262033 0.08289,-0.14706 0.125669,-0.312836 0.04278,-0.165776 0.04278,-0.331553 z m 0.06417,0 h 0.219252 v 0.299466 q 0,0.157755 0.04278,0.31551 0.04546,0.155081 0.125669,0.296793 0.08289,0.139038 0.197862,0.251338 0.114974,0.1123 0.256686,0.176471 l -0.165776,0.221927 q -0.155081,-0.07754 -0.28075,-0.205884 -0.125669,-0.131016 -0.213905,-0.299466 -0.08824,-0.16845 -0.136364,-0.360965 -0.04545,-0.195188 -0.04545,-0.395724 z m -0.590912,-0.122996 h 1.339579 v 0.229948 h -1.339579 z m 2.39306,1.141717 h 2.213915 v 0.229948 h -2.213915 z m 0.959898,0.14706 h 0.278076 v 0.914443 h -0.278076 z m 0.141712,-1.43851 q 0.256686,0 0.451874,0.06685 0.195188,0.06685 0.304814,0.187167 0.109626,0.120321 0.109626,0.286098 0,0.165776 -0.109626,0.288771 -0.109626,0.120322 -0.304814,0.187167 -0.195188,0.06685 -0.451874,0.06685 -0.256686,0 -0.454548,-0.06685 -0.195188,-0.06685 -0.304814,-0.187167 -0.109626,-0.122995 -0.109626,-0.288771 0,-0.165777 0.109626,-0.286098 0.109626,-0.120321 0.304814,-0.187167 0.197862,-0.06685 0.454548,-0.06685 z m -0.0027,0.221926 q -0.173798,0 -0.304814,0.04011 -0.128343,0.03743 -0.200536,0.109627 -0.07219,0.06952 -0.07219,0.16845 0,0.09893 0.07219,0.171123 0.07219,0.07219 0.200536,0.109627 0.131016,0.03743 0.304814,0.03743 0.176472,0 0.304814,-0.03743 0.131017,-0.03743 0.20321,-0.109627 0.07219,-0.07219 0.07219,-0.171123 0,-0.09893 -0.07219,-0.16845 -0.07219,-0.07219 -0.20321,-0.109627 -0.128342,-0.04011 -0.304814,-0.04011 z m 3.096272,-0.315509 h 0.28075 v 2.44921 h -0.28075 z m -1.598938,1.636371 h 0.208557 q 0.211231,0 0.403745,-0.0053 0.195188,-0.008 0.387703,-0.02674 0.192514,-0.01872 0.398397,-0.0508 l 0.02674,0.227274 q -0.315509,0.05348 -0.604281,0.07219 -0.288771,0.01604 -0.612302,0.01604 h -0.208557 z m -0.0053,-1.417119 h 1.141717 v 0.903748 h -0.852946 v 0.601607 h -0.283423 v -0.823533 h 0.850271 v -0.454548 h -0.855619 z m 2.906432,0.14706 h 0.2246 v 0.342247 q 0,0.197862 -0.0508,0.39305 -0.04813,0.192515 -0.139039,0.366312 -0.09091,0.171124 -0.219252,0.304815 -0.125669,0.131016 -0.278076,0.208557 l -0.160429,-0.221926 q 0.139038,-0.06952 0.251338,-0.181819 0.114974,-0.114974 0.197862,-0.256686 0.08556,-0.144386 0.128343,-0.299467 0.04545,-0.157755 0.04545,-0.312836 z m 0.05615,0 h 0.221926 v 0.342247 q 0,0.144386 0.04278,0.291446 0.04278,0.144385 0.122995,0.28075 0.08021,0.13369 0.192515,0.243316 0.114973,0.106953 0.254012,0.173798 l -0.155081,0.221926 q -0.155081,-0.07487 -0.28075,-0.200535 -0.122996,-0.128343 -0.213905,-0.291446 -0.08824,-0.163102 -0.136365,-0.347595 -0.04813,-0.184493 -0.04813,-0.37166 z m -0.590912,-0.122996 h 1.328883 v 0.232622 h -1.328883 z m 1.569526,-0.240643 h 0.28075 v 2.443863 h -0.28075 z M 84.6216,31.66573 h 0.441178 v 0.232622 H 84.6216 Z m 2.358301,-0.965245 h 0.28075 v 2.44921 h -0.28075 z m -1.018722,0.179145 q 0.181819,0 0.323531,0.106952 0.144386,0.106953 0.2246,0.299467 0.08021,0.192514 0.08021,0.454548 0,0.264707 -0.08021,0.459895 -0.08021,0.192514 -0.2246,0.299467 -0.141712,0.104278 -0.323531,0.104278 -0.181819,0 -0.326205,-0.104278 -0.141712,-0.106953 -0.2246,-0.299467 -0.08021,-0.195188 -0.08021,-0.459895 0,-0.262034 0.08021,-0.454548 0.08289,-0.192514 0.2246,-0.299467 0.144386,-0.106952 0.326205,-0.106952 z m 0,0.254012 q -0.106952,0 -0.189841,0.07219 -0.08021,0.07219 -0.125669,0.208557 -0.04545,0.136364 -0.04545,0.326205 0,0.192514 0.04545,0.328878 0.04546,0.136365 0.125669,0.211231 0.08289,0.07219 0.189841,0.07219 0.106952,0 0.187167,-0.07219 0.08021,-0.07487 0.125669,-0.211231 0.04545,-0.136364 0.04545,-0.328878 0,-0.189841 -0.04545,-0.326205 -0.04546,-0.136364 -0.125669,-0.208557 -0.08022,-0.07219 -0.187167,-0.07219 z"
         id="text5-9-1-0"
         aria-label="루저우리자이" />
      <path
         id="rect2"
         style="stroke-width:0.624421"
         d="M 56.557243,19.277649 H 57.42243 V 33.090095 H 56.557243 Z" />
      <g
         id="g4"
         transform="matrix(0.78638341,0,0,0.78638341,-5.8534098,7.0649227)">
        <path
           id="rect1"
           style="fill-opacity:0;stroke:#000000;stroke-width:0.927563"
           d="m 15.644095,14.655146 h 12.224482 c 3.863634,0 6.974069,3.110434 6.974069,6.974068 v 22.887408 c 0,3.863634 -3.110435,6.974068 -6.974069,6.974068 H 15.644095 c -3.863634,0 -6.9740682,-3.110434 -6.9740682,-6.974068 V 21.629214 c 0,-3.863634 3.1104342,-6.974068 6.9740682,-6.974068 z" />
        <path
           style="font-size:13.7225px;line-height:1.25;font-family:'AR UDJingXiHeiE1G30 EB';-inkscape-font-specification:'AR UDJingXiHeiE1G30 EB';stroke-width:0.285885"
           d="m 26.710182,26.143679 q 0,2.387715 -1.331083,3.746243 -1.31736,1.344805 -3.609017,1.344805 -2.332825,0 -3.650185,-1.358528 -1.31736,-1.358527 -1.31736,-3.73252 0,-2.41516 1.331082,-3.787409 1.331083,-1.385973 3.636463,-1.385973 2.332825,0 3.636462,1.37225 1.303638,1.37225 1.303638,3.801132 z m -4.9401,3.73252 q 1.495752,0 2.30538,-0.98802 0.82335,-0.98802 0.82335,-2.7445 0,-1.742757 -0.82335,-2.771944 -0.82335,-1.04291 -2.30538,-1.04291 -1.509475,0 -2.346548,1.056632 -0.82335,1.04291 -0.82335,2.758222 0,1.75648 0.837073,2.7445 0.837072,0.98802 2.332825,0.98802 z"
           id="text2"
           aria-label="O" />
        <path
           style="font-size:14.1593px;line-height:1.25;font-family:'AR UDJingXiHeiE1G30 EB';-inkscape-font-specification:'AR UDJingXiHeiE1G30 EB';stroke-width:0.25744"
           d="m 17.565186,39.076112 q -0.60885,0 -1.047788,0.226549 -0.438939,0.212389 -0.750443,0.651327 l -1.585842,-0.169911 0.764602,-5.394694 h 5.720357 v 1.401771 h -4.276108 l -0.396461,2.676108 q 0.353983,-0.396461 0.849558,-0.594691 0.509735,-0.212389 1.189382,-0.212389 1.458408,0 2.307966,0.948673 0.849557,0.948673 0.849557,2.591152 0,1.713275 -0.948673,2.661948 -0.948673,0.948673 -2.661948,0.948673 -1.684957,0 -2.63363,-0.835399 -0.948673,-0.835398 -0.976991,-2.251328 h 1.741593 q -0.01416,0.665487 0.453098,1.175222 0.467257,0.509734 1.373452,0.509734 0.863717,0 1.359293,-0.566372 0.509735,-0.580531 0.509735,-1.670797 0,-1.019469 -0.523894,-1.557523 -0.523894,-0.538053 -1.316815,-0.538053 z m 9.118579,3.341594 h -4.431861 v -1.246018 l 4.346905,-6.782305 h 1.82655 v 6.612393 h 1.345133 v 1.41593 h -1.345133 v 2.208851 h -1.741594 z m -2.63363,-1.41593 h 2.63363 v -4.162834 z"
           id="text3"
           aria-label="54" />
        <path
           style="font-weight:500;font-size:72px;line-height:1.25;font-family:'Noto Sans TC';-inkscape-font-specification:'Noto Sans TC Medium';white-space:pre"
           d="m 194.07342,88.281406 h 26.712 v 3.384 h -26.712 z m -24.552,5.616 h 51.552 v 4.32 h -51.552 z m 0,41.256004 h 57.096 v 4.248 h -57.096 z m 8.424,-60.480004 h 6.768 v 12.528 h -6.768 z m 24.84,0 h 6.768 v 12.384 h -6.768 z m -7.488,37.080004 h 5.328 v 11.376 h -5.328 z m -5.472,-26.352004 h 6.408 v 9.576 h -6.408 z m -13.32,40.824004 h 43.704 v 10.584 h -5.832 v -7.056 h -7.56 v 7.056 h -4.968 v -7.056 h -7.416 v 7.056 h -4.968 v -7.056 h -7.344 v 7.056 h -5.616 z m 7.992,-7.344 v 2.664 h 27.432 v -2.664 z m 0,-5.256 v 2.52 h 27.432 v -2.52 z m -5.616,-2.808 h 39.024 v 13.536 h -39.024 z m -12.456,-16.920004 h 6.048 v 13.680004 q 0,3.744 -0.288,8.136 -0.288,4.32 -1.08,8.928 -0.792,4.536 -2.304,8.856 -1.44,4.32 -3.744,7.92 -0.576,-0.432 -1.584,-1.08 -0.936,-0.648 -1.944,-1.296 -1.008,-0.576 -1.728,-0.864 3.024,-4.536 4.392,-9.936 1.44,-5.472 1.8,-10.872 0.432,-5.4 0.432,-9.864 z m 52.92,0 h 0.936 l 1.08,-0.216 4.392,0.864 q -0.576,2.304 -1.368,4.752 -0.792,2.448004 -1.584,4.176004 l -5.544,-1.08 q 0.576,-1.512 1.152,-3.600004 0.576,-2.16 0.936,-4.176 z m -57.168,-15.12 h 30.744 v 4.824 h -30.744 z m 33.048,0 h 30.6 v 4.824 h -30.6 z m -19.872,22.464004 17.28,-0.792 0.216,4.392 -17.28,1.008 z m 13.536,-4.176004 h 5.4 v 5.760004 q 0,1.368 0.432,1.872 0.432,0.504 2.16,0.504 0.576,0 1.872,0 1.368,0 3.096,0 1.728,0 3.456,0 1.8,0 3.168,0 1.368,0 2.016,0 1.08,0 2.52,-0.072 1.44,-0.072 2.736,-0.216 1.368,-0.144 2.016,-0.216 0.144,1.08 0.216,2.016 0.144,0.936 0.288,1.8 -1.008,0.288 -3.096,0.36 -2.016,0.072 -4.032,0.072 -0.72,0 -2.376,0 -1.584,0 -3.6,0 -2.016,0 -4.032,0 -1.944,0 -3.456,0 -1.512,0 -2.016,0 -2.808,0 -4.32,-0.648 -1.44,-0.72 -1.944,-2.088 -0.504,-1.368 -0.504,-3.456 z m 3.384,3.312004 20.016,-0.792004 0.072,3.168004 -20.016,0.936 z m 82.008,-22.824004 h 6.408 v 62.136004 h -6.408 z m 15.48,-1.296 h 6.552 v 65.160004 h -6.552 z m -31.032,0.072 h 6.408 v 24.768004 q 0,7.056 -0.648,14.184 -0.576,7.128 -2.736,13.824 -2.088,6.624 -6.552,12.384 -0.648,-0.648 -1.728,-1.44 -1.008,-0.72 -2.088,-1.44 -1.008,-0.72 -1.944,-1.08 4.248,-5.256 6.192,-11.232 1.944,-5.976 2.52,-12.384 0.576,-6.408 0.576,-12.888 z m 5.904,21.816 4.608,-1.656 q 1.08,2.52 2.016,5.400004 1.008,2.88 1.8,5.616 0.864,2.736 1.224,4.896 l -4.824,1.872 q -0.36,-2.232 -1.152,-4.968 -0.72,-2.808 -1.656,-5.688 -0.936,-2.952 -2.016,-5.472004 z m 14.328,-0.792 4.608,-2.016 q 1.512,2.664 2.952,5.688004 1.512,3.024 2.664,5.904 1.224,2.88 1.944,5.184 l -4.968,2.304 q -0.576,-2.304 -1.728,-5.256 -1.152,-2.952 -2.592,-6.048 -1.44,-3.096 -2.88,-5.760004 z m -43.704,-17.064 4.032,-4.896 q 1.944,0.936 4.176,2.232 2.232,1.296 4.32,2.592 2.088,1.296 3.384,2.448 l -4.176,5.472 q -1.224,-1.08 -3.24,-2.52 -2.016,-1.44 -4.248,-2.808 -2.232,-1.44 -4.248,-2.52 z m -3.024,19.368 3.888,-4.968 q 2.016,0.864 4.248,2.088 2.304,1.224 4.464,2.448 2.16,1.224004 3.528,2.232004 l -4.032,5.544 q -1.224,-1.08 -3.384,-2.376 -2.088,-1.296 -4.392,-2.592 -2.232,-1.368 -4.32,-2.376004 z m 1.368,37.440004 q 1.512,-2.808 3.168,-6.624 1.728,-3.816 3.456,-8.064 1.728,-4.32 3.168,-8.424 l 5.472,3.6 q -1.296,3.744 -2.808,7.776 -1.512,4.032 -3.168,7.92 -1.584,3.888 -3.096,7.344 z m 15.336,-39.168004 4.968,-1.728 q 1.152,2.736 2.16,5.760004 1.08,3.024 1.8,5.976 0.792,2.88 1.152,5.184 l -5.328,1.944 q -0.288,-2.304 -1.008,-5.256 -0.72,-3.024 -1.728,-6.12 -0.936,-3.096 -2.016,-5.760004 z"
           id="text4"
           transform="matrix(0.25744134,0,0,0.25744134,-2.1090529,-3.4635139)"
           aria-label="蘆洲" />
        <path
           style="font-size:7.20836px;line-height:1.25;font-family:'AR UDJingXiHeiE1G30 EB';-inkscape-font-specification:'AR UDJingXiHeiE1G30 EB';stroke-width:0.25744"
           d="m 43.389429,40.760221 h -3.661847 v -5.211644 h 0.915461 v 4.498016 h 2.746386 z m 5.12515,-1.823715 q 0,0.908253 -0.56946,1.412838 -0.569461,0.504586 -1.621881,0.504586 -1.066838,0 -1.643507,-0.497377 -0.56946,-0.497377 -0.56946,-1.412839 v -3.395137 h 0.915462 v 3.351887 q 0,0.591086 0.324376,0.915462 0.324376,0.324376 0.973129,0.324376 0.61271,0 0.937086,-0.309959 0.331585,-0.317168 0.331585,-0.944296 v -3.33747 h 0.92267 z m 1.045214,-3.387929 h 4.079932 v 0.65596 l -3.142845,3.842056 h 3.214928 v 0.713628 H 49.321917 V 40.10426 l 3.142845,-3.842056 h -2.904969 z m 5.910856,2.89776 v 2.313884 h -0.915462 v -5.211644 h 0.915462 v 2.184133 h 2.501301 v -2.184133 h 0.915461 v 5.211644 H 57.97195 v -2.313884 z m 9.623162,-0.266709 q 0,1.254255 -0.699211,1.967882 -0.692003,0.70642 -1.895799,0.70642 -1.225421,0 -1.917424,-0.713628 -0.692002,-0.713628 -0.692002,-1.960674 0,-1.268671 0.69921,-1.989507 0.699211,-0.728045 1.910216,-0.728045 1.225421,0 1.910215,0.720836 0.684795,0.720836 0.684795,1.996716 z m -2.59501,1.960674 q 0.785711,0 1.211004,-0.519002 0.432502,-0.519002 0.432502,-1.441672 0,-0.915462 -0.432502,-1.456089 -0.432501,-0.547835 -1.211004,-0.547835 -0.79292,0 -1.23263,0.555044 -0.432501,0.547835 -0.432501,1.44888 0,0.92267 0.43971,1.441672 0.43971,0.519002 1.225421,0.519002 z m 7.958032,-1.203796 q 0,0.908253 -0.569461,1.412838 -0.56946,0.504586 -1.621881,0.504586 -1.066837,0 -1.643506,-0.497377 -0.56946,-0.497377 -0.56946,-1.412839 v -3.395137 h 0.915461 v 3.351887 q 0,0.591086 0.324377,0.915462 0.324376,0.324376 0.973128,0.324376 0.612711,0 0.937087,-0.309959 0.331585,-0.317168 0.331585,-0.944296 v -3.33747 h 0.92267 z"
           id="text5"
           aria-label="LUZHOU" />
        <path
           d="m 39.412772,43.675588 h 6.408233 v 0.490169 h -6.408233 z m 3.214929,0.929879 h 2.674302 v 0.338792 h -2.674302 z m -2.458051,0.562252 h 5.161186 V 45.60022 H 40.16965 Z m 0,4.13039 h 5.71623 v 0.425293 h -5.71623 z m 0.843378,-6.055023 h 0.677586 v 1.254255 h -0.677586 z m 2.486885,0 h 0.677586 v 1.239838 h -0.677586 z m -0.74967,3.690681 h 0.533419 v 1.131712 h -0.533419 z m -0.547835,-2.616635 h 0.641544 v 0.958712 h -0.641544 z m -1.333547,4.08714 h 4.375475 v 1.059629 h -0.583877 v -0.706419 h -0.756878 v 0.706419 h -0.497377 v -0.706419 h -0.742461 v 0.706419 h -0.497377 v -0.706419 h -0.735253 v 0.706419 h -0.562252 z m 0.800128,-0.756877 v 0.2595 h 2.746385 v -0.2595 z m 0,-0.526211 v 0.252293 h 2.746385 V 47.121184 Z M 41.106737,46.83285 h 3.906931 v 1.355172 h -3.906931 z m -1.247046,-1.665131 h 0.605502 v 1.369588 q 0,0.374835 -0.02883,0.814545 -0.02883,0.432501 -0.108126,0.893836 -0.07929,0.454127 -0.230667,0.886629 -0.144168,0.432501 -0.374835,0.792919 -0.05767,-0.04325 -0.158584,-0.108125 -0.09371,-0.06487 -0.194626,-0.129751 -0.100917,-0.05767 -0.173,-0.0865 0.302751,-0.454127 0.43971,-0.994754 0.144167,-0.547835 0.180209,-1.088462 0.04325,-0.540627 0.04325,-0.987545 z m 0.908253,0.756877 3.697889,-0.187417 0.01442,0.302751 -3.697889,0.201834 z m 1.369589,-0.446918 h 0.547835 v 0.670378 q 0,0.122542 0.07929,0.158584 0.0865,0.03604 0.35321,0.03604 0.05767,0 0.237875,0 0.187418,0 0.403669,0 0.223459,0 0.418085,0 0.194625,0 0.281126,0 0.165792,0 0.223459,-0.05046 0.06487,-0.05046 0.07929,-0.237876 0.09371,0.04325 0.209042,0.07929 0.122542,0.02883 0.223459,0.04325 -0.02883,0.288334 -0.173,0.389251 -0.144168,0.100918 -0.490169,0.100918 -0.05046,0 -0.201834,0 -0.144167,0 -0.338793,0 -0.194626,0 -0.389251,0 -0.187418,0 -0.331585,0 -0.144167,0 -0.194626,0 -0.360418,0 -0.56946,-0.04325 -0.201834,-0.04325 -0.288334,-0.151375 -0.07929,-0.115334 -0.07929,-0.331585 z m 3.020303,-0.309959 h 0.09371 l 0.108126,-0.02163 0.43971,0.0865 q -0.05767,0.230667 -0.136959,0.475752 -0.07929,0.245084 -0.158584,0.418085 l -0.555044,-0.108126 q 0.05767,-0.151375 0.115334,-0.360418 0.05767,-0.216251 0.09371,-0.418085 z m 5.49277,-1.636298 h 0.641544 v 6.220815 h -0.641544 z m 1.549797,-0.129751 h 0.655961 v 6.523566 h -0.655961 z m -3.063553,0.0072 h 0.641544 v 2.479676 q 0,0.706419 -0.06488,1.420047 -0.05767,0.713627 -0.273918,1.384005 -0.209042,0.663169 -0.65596,1.239838 -0.06488,-0.06488 -0.173001,-0.144168 -0.100917,-0.07208 -0.209042,-0.144167 -0.100917,-0.07208 -0.194626,-0.108125 0.425293,-0.52621 0.619919,-1.124504 0.194626,-0.598294 0.252292,-1.239838 0.05767,-0.641544 0.05767,-1.290297 z m -0.598294,1.903007 0.519002,0.158584 q -0.05046,0.302751 -0.12975,0.641544 -0.07929,0.338793 -0.187417,0.655961 -0.108126,0.309959 -0.259501,0.555043 l -0.511794,-0.281126 q 0.151376,-0.216251 0.259501,-0.504585 0.108125,-0.295543 0.187417,-0.612711 0.07929,-0.317167 0.122542,-0.61271 z m 1.153338,0.309959 0.48296,-0.187417 q 0.122542,0.237876 0.223459,0.519002 0.100917,0.273918 0.173001,0.540627 0.07929,0.266709 0.115334,0.475752 l -0.519002,0.209042 q -0.02883,-0.216251 -0.100917,-0.48296 -0.07208,-0.273918 -0.173001,-0.555044 -0.09371,-0.281126 -0.201834,-0.519002 z m 1.434464,-0.108125 0.490168,-0.216251 q 0.165793,0.252293 0.30996,0.547835 0.151375,0.288335 0.266709,0.569461 0.115334,0.281126 0.173001,0.504585 l -0.526211,0.252293 q -0.05767,-0.230668 -0.173,-0.519002 -0.108126,-0.288335 -0.252293,-0.583877 -0.136959,-0.295543 -0.288334,-0.555044 z m -4.375475,-1.708381 0.403668,-0.490169 q 0.194626,0.09371 0.418085,0.223459 0.223459,0.129751 0.432502,0.259501 0.209042,0.129751 0.338793,0.245084 L 47.925846,44.59105 Q 47.803304,44.482924 47.60147,44.338757 47.399636,44.19459 47.176176,44.057631 46.952717,43.913464 46.750883,43.805339 Z m -0.302751,1.939048 0.389251,-0.497376 q 0.201835,0.0865 0.425294,0.209042 0.230667,0.122542 0.446918,0.245084 0.216251,0.122542 0.35321,0.223459 l -0.403669,0.555044 q -0.122542,-0.108125 -0.338792,-0.237876 -0.209043,-0.12975 -0.43971,-0.259501 -0.22346,-0.136959 -0.432502,-0.237876 z m 0.136959,3.748348 q 0.151375,-0.281126 0.317168,-0.663169 0.173,-0.382043 0.346001,-0.807337 0.173001,-0.432501 0.317168,-0.843378 l 0.547835,0.360418 q -0.12975,0.374835 -0.281126,0.778503 -0.151375,0.403668 -0.317168,0.79292 -0.158584,0.389251 -0.309959,0.735252 z"
           id="text5-9"
           style="font-weight:500;font-size:7.20836px;line-height:1.25;font-family:'Noto Sans JP';-inkscape-font-specification:'Noto Sans JP Medium';stroke-width:0.25744"
           aria-label="蘆洲" />
        <path
           style="font-weight:500;font-size:7.20836px;line-height:1.25;font-family:'Noto Sans KR';-inkscape-font-specification:'Noto Sans KR Medium';stroke-width:0.25744"
           d="m 61.519702,43.660143 h 4.555684 v 1.823715 h -3.777181 v 1.074046 h -0.764086 v -1.643506 h 3.784389 v -0.655961 h -3.798806 z m 0.01442,2.530135 h 4.699851 v 0.61271 h -4.699851 z m -0.713628,1.203796 h 5.968523 v 0.61271 h -5.968523 z m 2.59501,0.223459 h 0.74967 v 2.400384 h -0.74967 z m 8.75095,-4.202474 h 0.749669 v 6.602858 h -0.749669 z m -1.304713,2.357134 h 1.499339 v 0.61271 h -1.499339 z m -1.809299,-1.369589 h 0.605503 v 0.807337 q 0,0.562252 -0.129751,1.102879 -0.12975,0.540627 -0.367626,1.016378 -0.237876,0.468544 -0.576669,0.83617 -0.338793,0.367627 -0.764086,0.583877 L 67.3801,48.150952 q 0.374834,-0.187418 0.684794,-0.497377 0.309959,-0.317168 0.533419,-0.70642 0.223459,-0.396459 0.338793,-0.843378 0.115333,-0.446918 0.115333,-0.893836 z m 0.173001,0 h 0.591086 v 0.807337 q 0,0.425293 0.115333,0.850586 0.122542,0.418085 0.338793,0.800128 0.223459,0.374835 0.533419,0.677586 0.309959,0.302751 0.692002,0.475752 l -0.446918,0.598294 Q 70.63107,48.403244 70.292277,48.057243 69.953484,47.704033 69.715608,47.249906 69.477733,46.79578 69.347982,46.276778 69.22544,45.750568 69.22544,45.209941 Z M 67.632392,44.07102 h 3.611389 v 0.619919 h -3.611389 z m 6.451483,3.077969 h 5.968523 v 0.619919 h -5.968523 z m 2.587802,0.39646 h 0.749669 v 2.465259 h -0.749669 z m 0.382043,-3.878098 q 0.692002,0 1.218213,0.180209 0.52621,0.180209 0.821753,0.504586 0.295542,0.324376 0.295542,0.771294 0,0.446919 -0.295542,0.778503 -0.295543,0.324376 -0.821753,0.504585 -0.526211,0.180209 -1.218213,0.180209 -0.692003,0 -1.225422,-0.180209 -0.52621,-0.180209 -0.821753,-0.504585 -0.295542,-0.331584 -0.295542,-0.778503 0,-0.446918 0.295542,-0.771294 0.295543,-0.324377 0.821753,-0.504586 0.533419,-0.180209 1.225422,-0.180209 z m -0.0072,0.598294 q -0.468543,0 -0.821753,0.108126 -0.346001,0.100917 -0.540627,0.295543 -0.194625,0.187417 -0.194625,0.454126 0,0.26671 0.194625,0.461335 0.194626,0.194626 0.540627,0.295543 0.35321,0.100917 0.821753,0.100917 0.475752,0 0.821753,-0.100917 0.35321,-0.100917 0.547836,-0.295543 0.194625,-0.194625 0.194625,-0.461335 0,-0.266709 -0.194625,-0.454126 -0.194626,-0.194626 -0.547836,-0.295543 -0.346001,-0.108126 -0.821753,-0.108126 z"
           id="text5-9-8"
           aria-label="루저우" />
      </g>
    </g>
  </g>
</svg>
