<?xml version="1.0" encoding="UTF-8" standalone="no"?>
<!-- Created with Inkscape (http://www.inkscape.org/) -->

<svg
   width="1000"
   height="250"
   viewBox="0 0 264.58332 66.145835"
   version="1.1"
   id="svg5"
   inkscape:version="1.1 (c68e22c387, 2021-05-23)"
   sodipodi:docname="BL_logo.svg"
   xmlns:inkscape="http://www.inkscape.org/namespaces/inkscape"
   xmlns:sodipodi="http://sodipodi.sourceforge.net/DTD/sodipodi-0.dtd"
   xmlns="http://www.w3.org/2000/svg"
   xmlns:svg="http://www.w3.org/2000/svg">
  <sodipodi:namedview
     id="namedview7"
     pagecolor="#505050"
     bordercolor="#ffffff"
     borderopacity="1"
     inkscape:pageshadow="0"
     inkscape:pageopacity="0"
     inkscape:pagecheckerboard="1"
     inkscape:document-units="mm"
     showgrid="false"
     units="px"
     inkscape:zoom="0.96253026"
     inkscape:cx="451.93384"
     inkscape:cy="375.05314"
     inkscape:window-width="1920"
     inkscape:window-height="1009"
     inkscape:window-x="1912"
     inkscape:window-y="-8"
     inkscape:window-maximized="1"
     inkscape:current-layer="layer1" />
  <defs
     id="defs2">
    <rect
       x="229.20559"
       y="161.61933"
       width="728.57797"
       height="176.45595"
       id="rect12841" />
    <rect
       x="224.06316"
       y="51.424331"
       width="603.13395"
       height="130.76473"
       id="rect1827" />
    <clipPath
       id="clip_1791">
      <path
         transform="matrix(1,0,0,-1,0,595.276)"
         d="M 0,-0.001 H 841.89 V 595.275 H 0 Z"
         id="path17" />
    </clipPath>
    <clipPath
       id="clip_1807">
      <path
         transform="matrix(1,0,0,-1,0,595.276)"
         d="M 0,-0.001 H 841.89 V 595.275 H 0 Z"
         id="path65" />
    </clipPath>
    <clipPath
       id="clip_1791-1">
      <path
         transform="matrix(1,0,0,-1,0,595.276)"
         d="M 0,-0.001 H 841.89 V 595.275 H 0 Z"
         id="path17-1" />
    </clipPath>
    <clipPath
       id="clip_1815">
      <path
         transform="matrix(1,0,0,-1,0,595.276)"
         d="M 0,-0.001 H 841.89 V 595.275 H 0 Z"
         id="path89" />
    </clipPath>
    <clipPath
       id="clip_1809">
      <path
         transform="matrix(1,0,0,-1,0,595.276)"
         d="M 0,-0.001 H 841.89 V 595.275 H 0 Z"
         id="path71" />
    </clipPath>
    <clipPath
       id="clip_1793">
      <path
         transform="matrix(1,0,0,-1,0,595.276)"
         d="M 0,-0.001 H 841.89 V 595.275 H 0 Z"
         id="path23" />
    </clipPath>
    <clipPath
       id="clip_1799">
      <path
         transform="matrix(1,0,0,-1,0,595.276)"
         d="M 0,-0.001 H 841.89 V 595.275 H 0 Z"
         id="path41" />
    </clipPath>
    <clipPath
       id="clip_1817">
      <path
         transform="matrix(1,0,0,-1,0,595.276)"
         d="M 0,-0.001 H 841.89 V 595.275 H 0 Z"
         id="path95" />
    </clipPath>
    <clipPath
       id="clip_1803">
      <path
         transform="matrix(1,0,0,-1,0,595.276)"
         d="M 0,-0.001 H 841.89 V 595.275 H 0 Z"
         id="path53" />
    </clipPath>
    <clipPath
       id="clip_1813">
      <path
         transform="matrix(1,0,0,-1,0,595.276)"
         d="M 0,-0.001 H 841.89 V 595.275 H 0 Z"
         id="path83" />
    </clipPath>
    <clipPath
       id="clip_1805">
      <path
         transform="matrix(1,0,0,-1,0,595.276)"
         d="M 0,-0.001 H 841.89 V 595.275 H 0 Z"
         id="path59" />
    </clipPath>
    <clipPath
       id="clip_1795">
      <path
         transform="matrix(1,0,0,-1,0,595.276)"
         d="M 0,-0.001 H 841.89 V 595.275 H 0 Z"
         id="path29" />
    </clipPath>
    <clipPath
       id="clip_1801">
      <path
         transform="matrix(1,0,0,-1,0,595.276)"
         d="M 0,-0.001 H 841.89 V 595.275 H 0 Z"
         id="path47" />
    </clipPath>
    <clipPath
       id="clip_1819">
      <path
         transform="matrix(1,0,0,-1,0,595.276)"
         d="M 0,-0.001 H 841.89 V 595.275 H 0 Z"
         id="path101" />
    </clipPath>
    <clipPath
       id="clip_1827">
      <path
         transform="matrix(1,0,0,-1,0,595.276)"
         d="M 0,-0.001 H 841.89 V 595.275 H 0 Z"
         id="path125" />
    </clipPath>
    <clipPath
       id="clip_1821">
      <path
         transform="matrix(1,0,0,-1,0,595.276)"
         d="M 0,-0.001 H 841.89 V 595.275 H 0 Z"
         id="path107" />
    </clipPath>
    <clipPath
       id="clip_1811">
      <path
         transform="matrix(1,0,0,-1,0,595.276)"
         d="M 0,-0.001 H 841.89 V 595.275 H 0 Z"
         id="path77" />
    </clipPath>
    <clipPath
       id="clip_1829">
      <path
         transform="matrix(1,0,0,-1,0,595.276)"
         d="M 0,-0.001 H 841.89 V 595.275 H 0 Z"
         id="path131" />
    </clipPath>
    <clipPath
       id="clip_1825">
      <path
         transform="matrix(1,0,0,-1,0,595.276)"
         d="M 0,-0.001 H 841.89 V 595.275 H 0 Z"
         id="path119" />
    </clipPath>
    <clipPath
       id="clip_2156">
      <path
         transform="matrix(1,0,0,-1,0,595.276)"
         d="M 0,-0.001 H 841.89 V 595.275 H 0 Z"
         id="path397" />
    </clipPath>
    <clipPath
       id="clip_2087">
      <path
         transform="matrix(1,0,0,-1,0,595.276)"
         d="M 0,-0.001 H 841.89 V 595.275 H 0 Z"
         id="path70" />
    </clipPath>
    <clipPath
       id="clip_2160">
      <path
         transform="matrix(1,0,0,-1,0,595.276)"
         d="M 0,-0.001 H 841.89 V 595.275 H 0 Z"
         id="path415" />
    </clipPath>
    <clipPath
       id="clip_2125">
      <path
         transform="matrix(1,0,0,-1,0,595.276)"
         d="M 0,-0.001 H 841.89 V 595.275 H 0 Z"
         id="path252" />
    </clipPath>
    <clipPath
       id="clip_2129">
      <path
         transform="matrix(1,0,0,-1,0,595.276)"
         d="M 0,-0.001 H 841.89 V 595.275 H 0 Z"
         id="path271" />
    </clipPath>
    <clipPath
       id="clip_2131">
      <path
         transform="matrix(1,0,0,-1,0,595.276)"
         d="M 0,-0.001 H 841.89 V 595.275 H 0 Z"
         id="path278" />
    </clipPath>
    <clipPath
       id="clip_2127">
      <path
         transform="matrix(1,0,0,-1,0,595.276)"
         d="M 0,-0.001 H 841.89 V 595.275 H 0 Z"
         id="path264" />
    </clipPath>
    <clipPath
       id="clip_2135">
      <path
         transform="matrix(1,0,0,-1,0,595.276)"
         d="M 0,-0.001 H 841.89 V 595.275 H 0 Z"
         id="path294" />
    </clipPath>
    <clipPath
       id="clip_2133">
      <path
         transform="matrix(1,0,0,-1,0,595.276)"
         d="M 0,-0.001 H 841.89 V 595.275 H 0 Z"
         id="path286" />
    </clipPath>
    <clipPath
       id="clip_2137">
      <path
         transform="matrix(1,0,0,-1,0,595.276)"
         d="M 0,-0.001 H 841.89 V 595.275 H 0 Z"
         id="path303" />
    </clipPath>
    <clipPath
       id="clip_2146">
      <path
         transform="matrix(1,0,0,-1,0,595.276)"
         d="M 0,-0.001 H 841.89 V 595.275 H 0 Z"
         id="path345" />
    </clipPath>
    <clipPath
       id="clip_2141">
      <path
         transform="matrix(1,0,0,-1,0,595.276)"
         d="M 0,-0.001 H 841.89 V 595.275 H 0 Z"
         id="path322" />
    </clipPath>
    <clipPath
       id="clip_2143">
      <path
         transform="matrix(1,0,0,-1,0,595.276)"
         d="M 0,-0.001 H 841.89 V 595.275 H 0 Z"
         id="path330" />
    </clipPath>
    <clipPath
       id="clip_2123">
      <path
         transform="matrix(1,0,0,-1,0,595.276)"
         d="M 0,-0.001 H 841.89 V 595.275 H 0 Z"
         id="path241" />
    </clipPath>
    <clipPath
       id="clip_2208">
      <path
         transform="matrix(1,0,0,-1,0,595.276)"
         d="m -69.189,-0.001 h 841.89 v 595.276 h -841.89 z"
         id="path200" />
    </clipPath>
    <clipPath
       id="clip_2212">
      <path
         transform="matrix(1,0,0,-1,0,595.276)"
         d="m -69.189,-0.001 h 841.89 v 595.276 h -841.89 z"
         id="path214" />
    </clipPath>
    <clipPath
       id="clip_2206">
      <path
         transform="matrix(1,0,0,-1,0,595.276)"
         d="m -69.189,-0.001 h 841.89 v 595.276 h -841.89 z"
         id="path194" />
    </clipPath>
    <clipPath
       id="clip_2198">
      <path
         transform="matrix(1,0,0,-1,0,595.276)"
         d="m -69.189,-0.001 h 841.89 v 595.276 h -841.89 z"
         id="path162" />
    </clipPath>
    <clipPath
       id="clip_2200">
      <path
         transform="matrix(1,0,0,-1,0,595.276)"
         d="m -69.189,-0.001 h 841.89 v 595.276 h -841.89 z"
         id="path171" />
    </clipPath>
    <clipPath
       id="clip_2202">
      <path
         transform="matrix(1,0,0,-1,0,595.276)"
         d="m -69.189,-0.001 h 841.89 v 595.276 h -841.89 z"
         id="path177" />
    </clipPath>
    <clipPath
       id="clip_2189">
      <path
         transform="matrix(1,0,0,-1,0,595.276)"
         d="m -69.189,-0.001 h 841.89 v 595.276 h -841.89 z"
         id="path112" />
    </clipPath>
    <clipPath
       id="clip_2191">
      <path
         transform="matrix(1,0,0,-1,0,595.276)"
         d="m -69.189,-0.001 h 841.89 v 595.276 h -841.89 z"
         id="path122" />
    </clipPath>
    <clipPath
       id="clip_2195">
      <path
         transform="matrix(1,0,0,-1,0,595.276)"
         d="m -69.189,-0.001 h 841.89 v 595.276 h -841.89 z"
         id="path143" />
    </clipPath>
    <clipPath
       id="clip_2195-0">
      <path
         transform="matrix(1,0,0,-1,0,595.276)"
         d="m -69.189,-0.001 h 841.89 v 595.276 h -841.89 z"
         id="path143-0" />
    </clipPath>
    <clipPath
       id="clip_2169">
      <path
         transform="matrix(1,0,0,-1,0,595.276)"
         d="m -69.189,-0.001 h 841.89 v 595.276 h -841.89 z"
         id="path21" />
    </clipPath>
    <clipPath
       id="clip_1791-0">
      <path
         transform="matrix(1,0,0,-1,0,595.276)"
         d="M 0,-0.001 H 841.89 V 595.275 H 0 Z"
         id="path17-0" />
    </clipPath>
    <clipPath
       id="clip_1807-5">
      <path
         transform="matrix(1,0,0,-1,0,595.276)"
         d="M 0,-0.001 H 841.89 V 595.275 H 0 Z"
         id="path65-3" />
    </clipPath>
    <clipPath
       id="clip_1791-1-8">
      <path
         transform="matrix(1,0,0,-1,0,595.276)"
         d="M 0,-0.001 H 841.89 V 595.275 H 0 Z"
         id="path17-1-6" />
    </clipPath>
    <clipPath
       id="clip_1815-8">
      <path
         transform="matrix(1,0,0,-1,0,595.276)"
         d="M 0,-0.001 H 841.89 V 595.275 H 0 Z"
         id="path89-6" />
    </clipPath>
    <clipPath
       id="clip_1809-6">
      <path
         transform="matrix(1,0,0,-1,0,595.276)"
         d="M 0,-0.001 H 841.89 V 595.275 H 0 Z"
         id="path71-5" />
    </clipPath>
    <clipPath
       id="clip_1793-7">
      <path
         transform="matrix(1,0,0,-1,0,595.276)"
         d="M 0,-0.001 H 841.89 V 595.275 H 0 Z"
         id="path23-6" />
    </clipPath>
    <clipPath
       id="clip_1799-5">
      <path
         transform="matrix(1,0,0,-1,0,595.276)"
         d="M 0,-0.001 H 841.89 V 595.275 H 0 Z"
         id="path41-3" />
    </clipPath>
    <clipPath
       id="clip_1817-6">
      <path
         transform="matrix(1,0,0,-1,0,595.276)"
         d="M 0,-0.001 H 841.89 V 595.275 H 0 Z"
         id="path95-8" />
    </clipPath>
    <clipPath
       id="clip_1803-1">
      <path
         transform="matrix(1,0,0,-1,0,595.276)"
         d="M 0,-0.001 H 841.89 V 595.275 H 0 Z"
         id="path53-4" />
    </clipPath>
    <clipPath
       id="clip_1813-3">
      <path
         transform="matrix(1,0,0,-1,0,595.276)"
         d="M 0,-0.001 H 841.89 V 595.275 H 0 Z"
         id="path83-5" />
    </clipPath>
    <clipPath
       id="clip_1805-8">
      <path
         transform="matrix(1,0,0,-1,0,595.276)"
         d="M 0,-0.001 H 841.89 V 595.275 H 0 Z"
         id="path59-0" />
    </clipPath>
    <clipPath
       id="clip_1795-9">
      <path
         transform="matrix(1,0,0,-1,0,595.276)"
         d="M 0,-0.001 H 841.89 V 595.275 H 0 Z"
         id="path29-1" />
    </clipPath>
    <clipPath
       id="clip_1801-6">
      <path
         transform="matrix(1,0,0,-1,0,595.276)"
         d="M 0,-0.001 H 841.89 V 595.275 H 0 Z"
         id="path47-2" />
    </clipPath>
    <clipPath
       id="clip_1819-9">
      <path
         transform="matrix(1,0,0,-1,0,595.276)"
         d="M 0,-0.001 H 841.89 V 595.275 H 0 Z"
         id="path101-6" />
    </clipPath>
    <clipPath
       id="clip_1827-4">
      <path
         transform="matrix(1,0,0,-1,0,595.276)"
         d="M 0,-0.001 H 841.89 V 595.275 H 0 Z"
         id="path125-5" />
    </clipPath>
    <clipPath
       id="clip_1821-6">
      <path
         transform="matrix(1,0,0,-1,0,595.276)"
         d="M 0,-0.001 H 841.89 V 595.275 H 0 Z"
         id="path107-8" />
    </clipPath>
    <clipPath
       id="clip_1811-1">
      <path
         transform="matrix(1,0,0,-1,0,595.276)"
         d="M 0,-0.001 H 841.89 V 595.275 H 0 Z"
         id="path77-3" />
    </clipPath>
    <clipPath
       id="clip_1829-1">
      <path
         transform="matrix(1,0,0,-1,0,595.276)"
         d="M 0,-0.001 H 841.89 V 595.275 H 0 Z"
         id="path131-8" />
    </clipPath>
    <clipPath
       id="clip_1825-5">
      <path
         transform="matrix(1,0,0,-1,0,595.276)"
         d="M 0,-0.001 H 841.89 V 595.275 H 0 Z"
         id="path119-2" />
    </clipPath>
    <clipPath
       id="clip_2156-4">
      <path
         transform="matrix(1,0,0,-1,0,595.276)"
         d="M 0,-0.001 H 841.89 V 595.275 H 0 Z"
         id="path397-3" />
    </clipPath>
    <clipPath
       id="clip_2087-1">
      <path
         transform="matrix(1,0,0,-1,0,595.276)"
         d="M 0,-0.001 H 841.89 V 595.275 H 0 Z"
         id="path70-2" />
    </clipPath>
    <clipPath
       id="clip_2160-0">
      <path
         transform="matrix(1,0,0,-1,0,595.276)"
         d="M 0,-0.001 H 841.89 V 595.275 H 0 Z"
         id="path415-2" />
    </clipPath>
    <clipPath
       id="clip_2125-3">
      <path
         transform="matrix(1,0,0,-1,0,595.276)"
         d="M 0,-0.001 H 841.89 V 595.275 H 0 Z"
         id="path252-2" />
    </clipPath>
    <clipPath
       id="clip_2129-7">
      <path
         transform="matrix(1,0,0,-1,0,595.276)"
         d="M 0,-0.001 H 841.89 V 595.275 H 0 Z"
         id="path271-3" />
    </clipPath>
    <clipPath
       id="clip_2131-8">
      <path
         transform="matrix(1,0,0,-1,0,595.276)"
         d="M 0,-0.001 H 841.89 V 595.275 H 0 Z"
         id="path278-2" />
    </clipPath>
    <clipPath
       id="clip_2127-5">
      <path
         transform="matrix(1,0,0,-1,0,595.276)"
         d="M 0,-0.001 H 841.89 V 595.275 H 0 Z"
         id="path264-7" />
    </clipPath>
    <clipPath
       id="clip_2135-0">
      <path
         transform="matrix(1,0,0,-1,0,595.276)"
         d="M 0,-0.001 H 841.89 V 595.275 H 0 Z"
         id="path294-9" />
    </clipPath>
    <clipPath
       id="clip_2133-9">
      <path
         transform="matrix(1,0,0,-1,0,595.276)"
         d="M 0,-0.001 H 841.89 V 595.275 H 0 Z"
         id="path286-9" />
    </clipPath>
    <clipPath
       id="clip_2137-9">
      <path
         transform="matrix(1,0,0,-1,0,595.276)"
         d="M 0,-0.001 H 841.89 V 595.275 H 0 Z"
         id="path303-1" />
    </clipPath>
    <clipPath
       id="clip_2146-0">
      <path
         transform="matrix(1,0,0,-1,0,595.276)"
         d="M 0,-0.001 H 841.89 V 595.275 H 0 Z"
         id="path345-2" />
    </clipPath>
    <clipPath
       id="clip_2141-7">
      <path
         transform="matrix(1,0,0,-1,0,595.276)"
         d="M 0,-0.001 H 841.89 V 595.275 H 0 Z"
         id="path322-0" />
    </clipPath>
    <clipPath
       id="clip_2143-2">
      <path
         transform="matrix(1,0,0,-1,0,595.276)"
         d="M 0,-0.001 H 841.89 V 595.275 H 0 Z"
         id="path330-1" />
    </clipPath>
    <clipPath
       id="clip_2123-6">
      <path
         transform="matrix(1,0,0,-1,0,595.276)"
         d="M 0,-0.001 H 841.89 V 595.275 H 0 Z"
         id="path241-9" />
    </clipPath>
    <clipPath
       id="clip_2208-8">
      <path
         transform="matrix(1,0,0,-1,0,595.276)"
         d="m -69.189,-0.001 h 841.89 v 595.276 h -841.89 z"
         id="path200-1" />
    </clipPath>
    <clipPath
       id="clip_2212-3">
      <path
         transform="matrix(1,0,0,-1,0,595.276)"
         d="m -69.189,-0.001 h 841.89 v 595.276 h -841.89 z"
         id="path214-2" />
    </clipPath>
    <clipPath
       id="clip_2206-4">
      <path
         transform="matrix(1,0,0,-1,0,595.276)"
         d="m -69.189,-0.001 h 841.89 v 595.276 h -841.89 z"
         id="path194-2" />
    </clipPath>
    <clipPath
       id="clip_2198-7">
      <path
         transform="matrix(1,0,0,-1,0,595.276)"
         d="m -69.189,-0.001 h 841.89 v 595.276 h -841.89 z"
         id="path162-6" />
    </clipPath>
    <clipPath
       id="clip_2200-1">
      <path
         transform="matrix(1,0,0,-1,0,595.276)"
         d="m -69.189,-0.001 h 841.89 v 595.276 h -841.89 z"
         id="path171-3" />
    </clipPath>
    <clipPath
       id="clip_2202-5">
      <path
         transform="matrix(1,0,0,-1,0,595.276)"
         d="m -69.189,-0.001 h 841.89 v 595.276 h -841.89 z"
         id="path177-4" />
    </clipPath>
    <clipPath
       id="clip_2189-9">
      <path
         transform="matrix(1,0,0,-1,0,595.276)"
         d="m -69.189,-0.001 h 841.89 v 595.276 h -841.89 z"
         id="path112-0" />
    </clipPath>
    <clipPath
       id="clip_2191-7">
      <path
         transform="matrix(1,0,0,-1,0,595.276)"
         d="m -69.189,-0.001 h 841.89 v 595.276 h -841.89 z"
         id="path122-0" />
    </clipPath>
    <clipPath
       id="clip_2195-6">
      <path
         transform="matrix(1,0,0,-1,0,595.276)"
         d="m -69.189,-0.001 h 841.89 v 595.276 h -841.89 z"
         id="path143-8" />
    </clipPath>
    <clipPath
       id="clip_2195-0-8">
      <path
         transform="matrix(1,0,0,-1,0,595.276)"
         d="m -69.189,-0.001 h 841.89 v 595.276 h -841.89 z"
         id="path143-0-7" />
    </clipPath>
    <clipPath
       id="clip_2169-7">
      <path
         transform="matrix(1,0,0,-1,0,595.276)"
         d="m -69.189,-0.001 h 841.89 v 595.276 h -841.89 z"
         id="path21-9" />
    </clipPath>
    <clipPath
       id="clip_1791-8">
      <path
         transform="matrix(1,0,0,-1,0,595.276)"
         d="M 0,-0.001 H 841.89 V 595.275 H 0 Z"
         id="path17-8" />
    </clipPath>
    <clipPath
       id="clip_1807-4">
      <path
         transform="matrix(1,0,0,-1,0,595.276)"
         d="M 0,-0.001 H 841.89 V 595.275 H 0 Z"
         id="path65-8" />
    </clipPath>
    <clipPath
       id="clip_1791-1-6">
      <path
         transform="matrix(1,0,0,-1,0,595.276)"
         d="M 0,-0.001 H 841.89 V 595.275 H 0 Z"
         id="path17-1-65" />
    </clipPath>
    <clipPath
       id="clip_1815-5">
      <path
         transform="matrix(1,0,0,-1,0,595.276)"
         d="M 0,-0.001 H 841.89 V 595.275 H 0 Z"
         id="path89-7" />
    </clipPath>
    <clipPath
       id="clip_1809-9">
      <path
         transform="matrix(1,0,0,-1,0,595.276)"
         d="M 0,-0.001 H 841.89 V 595.275 H 0 Z"
         id="path71-0" />
    </clipPath>
    <clipPath
       id="clip_1793-6">
      <path
         transform="matrix(1,0,0,-1,0,595.276)"
         d="M 0,-0.001 H 841.89 V 595.275 H 0 Z"
         id="path23-5" />
    </clipPath>
    <clipPath
       id="clip_1799-0">
      <path
         transform="matrix(1,0,0,-1,0,595.276)"
         d="M 0,-0.001 H 841.89 V 595.275 H 0 Z"
         id="path41-4" />
    </clipPath>
    <clipPath
       id="clip_1817-9">
      <path
         transform="matrix(1,0,0,-1,0,595.276)"
         d="M 0,-0.001 H 841.89 V 595.275 H 0 Z"
         id="path95-0" />
    </clipPath>
    <clipPath
       id="clip_1803-9">
      <path
         transform="matrix(1,0,0,-1,0,595.276)"
         d="M 0,-0.001 H 841.89 V 595.275 H 0 Z"
         id="path53-8" />
    </clipPath>
    <clipPath
       id="clip_1813-0">
      <path
         transform="matrix(1,0,0,-1,0,595.276)"
         d="M 0,-0.001 H 841.89 V 595.275 H 0 Z"
         id="path83-3" />
    </clipPath>
    <clipPath
       id="clip_1805-3">
      <path
         transform="matrix(1,0,0,-1,0,595.276)"
         d="M 0,-0.001 H 841.89 V 595.275 H 0 Z"
         id="path59-4" />
    </clipPath>
    <clipPath
       id="clip_1795-2">
      <path
         transform="matrix(1,0,0,-1,0,595.276)"
         d="M 0,-0.001 H 841.89 V 595.275 H 0 Z"
         id="path29-4" />
    </clipPath>
    <clipPath
       id="clip_1801-5">
      <path
         transform="matrix(1,0,0,-1,0,595.276)"
         d="M 0,-0.001 H 841.89 V 595.275 H 0 Z"
         id="path47-6" />
    </clipPath>
    <clipPath
       id="clip_1819-3">
      <path
         transform="matrix(1,0,0,-1,0,595.276)"
         d="M 0,-0.001 H 841.89 V 595.275 H 0 Z"
         id="path101-8" />
    </clipPath>
    <clipPath
       id="clip_1827-40">
      <path
         transform="matrix(1,0,0,-1,0,595.276)"
         d="M 0,-0.001 H 841.89 V 595.275 H 0 Z"
         id="path125-2" />
    </clipPath>
    <clipPath
       id="clip_1821-7">
      <path
         transform="matrix(1,0,0,-1,0,595.276)"
         d="M 0,-0.001 H 841.89 V 595.275 H 0 Z"
         id="path107-1" />
    </clipPath>
    <clipPath
       id="clip_1811-18">
      <path
         transform="matrix(1,0,0,-1,0,595.276)"
         d="M 0,-0.001 H 841.89 V 595.275 H 0 Z"
         id="path77-4" />
    </clipPath>
    <clipPath
       id="clip_1829-5">
      <path
         transform="matrix(1,0,0,-1,0,595.276)"
         d="M 0,-0.001 H 841.89 V 595.275 H 0 Z"
         id="path131-7" />
    </clipPath>
    <clipPath
       id="clip_1825-2">
      <path
         transform="matrix(1,0,0,-1,0,595.276)"
         d="M 0,-0.001 H 841.89 V 595.275 H 0 Z"
         id="path119-9" />
    </clipPath>
    <clipPath
       id="clip_2156-8">
      <path
         transform="matrix(1,0,0,-1,0,595.276)"
         d="M 0,-0.001 H 841.89 V 595.275 H 0 Z"
         id="path397-0" />
    </clipPath>
    <clipPath
       id="clip_2087-12">
      <path
         transform="matrix(1,0,0,-1,0,595.276)"
         d="M 0,-0.001 H 841.89 V 595.275 H 0 Z"
         id="path70-20" />
    </clipPath>
    <clipPath
       id="clip_2160-7">
      <path
         transform="matrix(1,0,0,-1,0,595.276)"
         d="M 0,-0.001 H 841.89 V 595.275 H 0 Z"
         id="path415-1" />
    </clipPath>
    <clipPath
       id="clip_2125-0">
      <path
         transform="matrix(1,0,0,-1,0,595.276)"
         d="M 0,-0.001 H 841.89 V 595.275 H 0 Z"
         id="path252-8" />
    </clipPath>
    <clipPath
       id="clip_2129-8">
      <path
         transform="matrix(1,0,0,-1,0,595.276)"
         d="M 0,-0.001 H 841.89 V 595.275 H 0 Z"
         id="path271-0" />
    </clipPath>
    <clipPath
       id="clip_2131-9">
      <path
         transform="matrix(1,0,0,-1,0,595.276)"
         d="M 0,-0.001 H 841.89 V 595.275 H 0 Z"
         id="path278-7" />
    </clipPath>
    <clipPath
       id="clip_2127-9">
      <path
         transform="matrix(1,0,0,-1,0,595.276)"
         d="M 0,-0.001 H 841.89 V 595.275 H 0 Z"
         id="path264-0" />
    </clipPath>
    <clipPath
       id="clip_2135-03">
      <path
         transform="matrix(1,0,0,-1,0,595.276)"
         d="M 0,-0.001 H 841.89 V 595.275 H 0 Z"
         id="path294-1" />
    </clipPath>
    <clipPath
       id="clip_2133-97">
      <path
         transform="matrix(1,0,0,-1,0,595.276)"
         d="M 0,-0.001 H 841.89 V 595.275 H 0 Z"
         id="path286-1" />
    </clipPath>
    <clipPath
       id="clip_2137-4">
      <path
         transform="matrix(1,0,0,-1,0,595.276)"
         d="M 0,-0.001 H 841.89 V 595.275 H 0 Z"
         id="path303-9" />
    </clipPath>
    <clipPath
       id="clip_2146-1">
      <path
         transform="matrix(1,0,0,-1,0,595.276)"
         d="M 0,-0.001 H 841.89 V 595.275 H 0 Z"
         id="path345-6" />
    </clipPath>
    <clipPath
       id="clip_2141-78">
      <path
         transform="matrix(1,0,0,-1,0,595.276)"
         d="M 0,-0.001 H 841.89 V 595.275 H 0 Z"
         id="path322-3" />
    </clipPath>
    <clipPath
       id="clip_2143-1">
      <path
         transform="matrix(1,0,0,-1,0,595.276)"
         d="M 0,-0.001 H 841.89 V 595.275 H 0 Z"
         id="path330-7" />
    </clipPath>
    <clipPath
       id="clip_2123-5">
      <path
         transform="matrix(1,0,0,-1,0,595.276)"
         d="M 0,-0.001 H 841.89 V 595.275 H 0 Z"
         id="path241-6" />
    </clipPath>
    <clipPath
       id="clip_2208-0">
      <path
         transform="matrix(1,0,0,-1,0,595.276)"
         d="m -69.189,-0.001 h 841.89 v 595.276 h -841.89 z"
         id="path200-7" />
    </clipPath>
    <clipPath
       id="clip_2212-1">
      <path
         transform="matrix(1,0,0,-1,0,595.276)"
         d="m -69.189,-0.001 h 841.89 v 595.276 h -841.89 z"
         id="path214-8" />
    </clipPath>
    <clipPath
       id="clip_2206-3">
      <path
         transform="matrix(1,0,0,-1,0,595.276)"
         d="m -69.189,-0.001 h 841.89 v 595.276 h -841.89 z"
         id="path194-5" />
    </clipPath>
    <clipPath
       id="clip_2198-1">
      <path
         transform="matrix(1,0,0,-1,0,595.276)"
         d="m -69.189,-0.001 h 841.89 v 595.276 h -841.89 z"
         id="path162-4" />
    </clipPath>
    <clipPath
       id="clip_2200-15">
      <path
         transform="matrix(1,0,0,-1,0,595.276)"
         d="m -69.189,-0.001 h 841.89 v 595.276 h -841.89 z"
         id="path171-6" />
    </clipPath>
    <clipPath
       id="clip_2202-7">
      <path
         transform="matrix(1,0,0,-1,0,595.276)"
         d="m -69.189,-0.001 h 841.89 v 595.276 h -841.89 z"
         id="path177-0" />
    </clipPath>
    <clipPath
       id="clip_2189-6">
      <path
         transform="matrix(1,0,0,-1,0,595.276)"
         d="m -69.189,-0.001 h 841.89 v 595.276 h -841.89 z"
         id="path112-9" />
    </clipPath>
    <clipPath
       id="clip_2191-2">
      <path
         transform="matrix(1,0,0,-1,0,595.276)"
         d="m -69.189,-0.001 h 841.89 v 595.276 h -841.89 z"
         id="path122-2" />
    </clipPath>
    <clipPath
       id="clip_2195-9">
      <path
         transform="matrix(1,0,0,-1,0,595.276)"
         d="m -69.189,-0.001 h 841.89 v 595.276 h -841.89 z"
         id="path143-81" />
    </clipPath>
    <clipPath
       id="clip_2195-0-82">
      <path
         transform="matrix(1,0,0,-1,0,595.276)"
         d="m -69.189,-0.001 h 841.89 v 595.276 h -841.89 z"
         id="path143-0-4" />
    </clipPath>
    <clipPath
       id="clip_2169-2">
      <path
         transform="matrix(1,0,0,-1,0,595.276)"
         d="m -69.189,-0.001 h 841.89 v 595.276 h -841.89 z"
         id="path21-7" />
    </clipPath>
    <clipPath
       id="clip_1832">
      <path
         transform="matrix(1,0,0,-1,0,595.276)"
         d="M 68.598,29.763 H 826.299 V 565.511 H 68.598 Z"
         id="path8" />
    </clipPath>
    <clipPath
       id="clip_1791-6">
      <path
         transform="matrix(1,0,0,-1,0,595.276)"
         d="M 0,-0.001 H 841.89 V 595.275 H 0 Z"
         id="path17-4" />
    </clipPath>
    <clipPath
       id="clip_1807-3">
      <path
         transform="matrix(1,0,0,-1,0,595.276)"
         d="M 0,-0.001 H 841.89 V 595.275 H 0 Z"
         id="path65-9" />
    </clipPath>
    <clipPath
       id="clip_1791-1-7">
      <path
         transform="matrix(1,0,0,-1,0,595.276)"
         d="M 0,-0.001 H 841.89 V 595.275 H 0 Z"
         id="path17-1-4" />
    </clipPath>
    <clipPath
       id="clip_1815-83">
      <path
         transform="matrix(1,0,0,-1,0,595.276)"
         d="M 0,-0.001 H 841.89 V 595.275 H 0 Z"
         id="path89-3" />
    </clipPath>
    <clipPath
       id="clip_1809-69">
      <path
         transform="matrix(1,0,0,-1,0,595.276)"
         d="M 0,-0.001 H 841.89 V 595.275 H 0 Z"
         id="path71-9" />
    </clipPath>
    <clipPath
       id="clip_1793-2">
      <path
         transform="matrix(1,0,0,-1,0,595.276)"
         d="M 0,-0.001 H 841.89 V 595.275 H 0 Z"
         id="path23-0" />
    </clipPath>
    <clipPath
       id="clip_1799-4">
      <path
         transform="matrix(1,0,0,-1,0,595.276)"
         d="M 0,-0.001 H 841.89 V 595.275 H 0 Z"
         id="path41-5" />
    </clipPath>
    <clipPath
       id="clip_1817-2">
      <path
         transform="matrix(1,0,0,-1,0,595.276)"
         d="M 0,-0.001 H 841.89 V 595.275 H 0 Z"
         id="path95-4" />
    </clipPath>
    <clipPath
       id="clip_1803-4">
      <path
         transform="matrix(1,0,0,-1,0,595.276)"
         d="M 0,-0.001 H 841.89 V 595.275 H 0 Z"
         id="path53-2" />
    </clipPath>
    <clipPath
       id="clip_1813-8">
      <path
         transform="matrix(1,0,0,-1,0,595.276)"
         d="M 0,-0.001 H 841.89 V 595.275 H 0 Z"
         id="path83-7" />
    </clipPath>
    <clipPath
       id="clip_1805-35">
      <path
         transform="matrix(1,0,0,-1,0,595.276)"
         d="M 0,-0.001 H 841.89 V 595.275 H 0 Z"
         id="path59-3" />
    </clipPath>
    <clipPath
       id="clip_1795-1">
      <path
         transform="matrix(1,0,0,-1,0,595.276)"
         d="M 0,-0.001 H 841.89 V 595.275 H 0 Z"
         id="path29-0" />
    </clipPath>
    <clipPath
       id="clip_1801-7">
      <path
         transform="matrix(1,0,0,-1,0,595.276)"
         d="M 0,-0.001 H 841.89 V 595.275 H 0 Z"
         id="path47-20" />
    </clipPath>
    <clipPath
       id="clip_1819-37">
      <path
         transform="matrix(1,0,0,-1,0,595.276)"
         d="M 0,-0.001 H 841.89 V 595.275 H 0 Z"
         id="path101-0" />
    </clipPath>
    <clipPath
       id="clip_1827-8">
      <path
         transform="matrix(1,0,0,-1,0,595.276)"
         d="M 0,-0.001 H 841.89 V 595.275 H 0 Z"
         id="path125-8" />
    </clipPath>
    <clipPath
       id="clip_1821-1">
      <path
         transform="matrix(1,0,0,-1,0,595.276)"
         d="M 0,-0.001 H 841.89 V 595.275 H 0 Z"
         id="path107-10" />
    </clipPath>
    <clipPath
       id="clip_1811-17">
      <path
         transform="matrix(1,0,0,-1,0,595.276)"
         d="M 0,-0.001 H 841.89 V 595.275 H 0 Z"
         id="path77-6" />
    </clipPath>
    <clipPath
       id="clip_1829-51">
      <path
         transform="matrix(1,0,0,-1,0,595.276)"
         d="M 0,-0.001 H 841.89 V 595.275 H 0 Z"
         id="path131-1" />
    </clipPath>
    <clipPath
       id="clip_1825-1">
      <path
         transform="matrix(1,0,0,-1,0,595.276)"
         d="M 0,-0.001 H 841.89 V 595.275 H 0 Z"
         id="path119-5" />
    </clipPath>
    <clipPath
       id="clip_2156-41">
      <path
         transform="matrix(1,0,0,-1,0,595.276)"
         d="M 0,-0.001 H 841.89 V 595.275 H 0 Z"
         id="path397-6" />
    </clipPath>
    <clipPath
       id="clip_2087-5">
      <path
         transform="matrix(1,0,0,-1,0,595.276)"
         d="M 0,-0.001 H 841.89 V 595.275 H 0 Z"
         id="path70-3" />
    </clipPath>
    <clipPath
       id="clip_2160-8">
      <path
         transform="matrix(1,0,0,-1,0,595.276)"
         d="M 0,-0.001 H 841.89 V 595.275 H 0 Z"
         id="path415-6" />
    </clipPath>
    <clipPath
       id="clip_2125-6">
      <path
         transform="matrix(1,0,0,-1,0,595.276)"
         d="M 0,-0.001 H 841.89 V 595.275 H 0 Z"
         id="path252-0" />
    </clipPath>
    <clipPath
       id="clip_2129-4">
      <path
         transform="matrix(1,0,0,-1,0,595.276)"
         d="M 0,-0.001 H 841.89 V 595.275 H 0 Z"
         id="path271-4" />
    </clipPath>
    <clipPath
       id="clip_2131-0">
      <path
         transform="matrix(1,0,0,-1,0,595.276)"
         d="M 0,-0.001 H 841.89 V 595.275 H 0 Z"
         id="path278-1" />
    </clipPath>
    <clipPath
       id="clip_2127-2">
      <path
         transform="matrix(1,0,0,-1,0,595.276)"
         d="M 0,-0.001 H 841.89 V 595.275 H 0 Z"
         id="path264-4" />
    </clipPath>
    <clipPath
       id="clip_2135-5">
      <path
         transform="matrix(1,0,0,-1,0,595.276)"
         d="M 0,-0.001 H 841.89 V 595.275 H 0 Z"
         id="path294-3" />
    </clipPath>
    <clipPath
       id="clip_2133-3">
      <path
         transform="matrix(1,0,0,-1,0,595.276)"
         d="M 0,-0.001 H 841.89 V 595.275 H 0 Z"
         id="path286-7" />
    </clipPath>
    <clipPath
       id="clip_2137-8">
      <path
         transform="matrix(1,0,0,-1,0,595.276)"
         d="M 0,-0.001 H 841.89 V 595.275 H 0 Z"
         id="path303-6" />
    </clipPath>
    <clipPath
       id="clip_2146-8">
      <path
         transform="matrix(1,0,0,-1,0,595.276)"
         d="M 0,-0.001 H 841.89 V 595.275 H 0 Z"
         id="path345-8" />
    </clipPath>
    <clipPath
       id="clip_2141-6">
      <path
         transform="matrix(1,0,0,-1,0,595.276)"
         d="M 0,-0.001 H 841.89 V 595.275 H 0 Z"
         id="path322-38" />
    </clipPath>
    <clipPath
       id="clip_2143-21">
      <path
         transform="matrix(1,0,0,-1,0,595.276)"
         d="M 0,-0.001 H 841.89 V 595.275 H 0 Z"
         id="path330-3" />
    </clipPath>
    <clipPath
       id="clip_2123-9">
      <path
         transform="matrix(1,0,0,-1,0,595.276)"
         d="M 0,-0.001 H 841.89 V 595.275 H 0 Z"
         id="path241-2" />
    </clipPath>
    <clipPath
       id="clip_2208-03">
      <path
         transform="matrix(1,0,0,-1,0,595.276)"
         d="m -69.189,-0.001 h 841.89 v 595.276 h -841.89 z"
         id="path200-4" />
    </clipPath>
    <clipPath
       id="clip_2212-7">
      <path
         transform="matrix(1,0,0,-1,0,595.276)"
         d="m -69.189,-0.001 h 841.89 v 595.276 h -841.89 z"
         id="path214-4" />
    </clipPath>
    <clipPath
       id="clip_2206-42">
      <path
         transform="matrix(1,0,0,-1,0,595.276)"
         d="m -69.189,-0.001 h 841.89 v 595.276 h -841.89 z"
         id="path194-3" />
    </clipPath>
    <clipPath
       id="clip_2198-2">
      <path
         transform="matrix(1,0,0,-1,0,595.276)"
         d="m -69.189,-0.001 h 841.89 v 595.276 h -841.89 z"
         id="path162-64" />
    </clipPath>
    <clipPath
       id="clip_2200-2">
      <path
         transform="matrix(1,0,0,-1,0,595.276)"
         d="m -69.189,-0.001 h 841.89 v 595.276 h -841.89 z"
         id="path171-4" />
    </clipPath>
    <clipPath
       id="clip_2202-79">
      <path
         transform="matrix(1,0,0,-1,0,595.276)"
         d="m -69.189,-0.001 h 841.89 v 595.276 h -841.89 z"
         id="path177-2" />
    </clipPath>
    <clipPath
       id="clip_2189-2">
      <path
         transform="matrix(1,0,0,-1,0,595.276)"
         d="m -69.189,-0.001 h 841.89 v 595.276 h -841.89 z"
         id="path112-7" />
    </clipPath>
    <clipPath
       id="clip_2191-8">
      <path
         transform="matrix(1,0,0,-1,0,595.276)"
         d="m -69.189,-0.001 h 841.89 v 595.276 h -841.89 z"
         id="path122-7" />
    </clipPath>
    <clipPath
       id="clip_2195-4">
      <path
         transform="matrix(1,0,0,-1,0,595.276)"
         d="m -69.189,-0.001 h 841.89 v 595.276 h -841.89 z"
         id="path143-7" />
    </clipPath>
    <clipPath
       id="clip_2195-0-7">
      <path
         transform="matrix(1,0,0,-1,0,595.276)"
         d="m -69.189,-0.001 h 841.89 v 595.276 h -841.89 z"
         id="path143-0-44" />
    </clipPath>
    <clipPath
       id="clip_2169-3">
      <path
         transform="matrix(1,0,0,-1,0,595.276)"
         d="m -69.189,-0.001 h 841.89 v 595.276 h -841.89 z"
         id="path21-77" />
    </clipPath>
    <clipPath
       id="clip_1832-9">
      <path
         transform="matrix(1,0,0,-1,0,595.276)"
         d="M 68.598,29.763 H 826.299 V 565.511 H 68.598 Z"
         id="path8-9" />
    </clipPath>
    <clipPath
       id="clip_1791-9">
      <path
         transform="matrix(1,0,0,-1,0,595.276)"
         d="M 0,-0.001 H 841.89 V 595.275 H 0 Z"
         id="path17-6" />
    </clipPath>
    <clipPath
       id="clip_1807-7">
      <path
         transform="matrix(1,0,0,-1,0,595.276)"
         d="M 0,-0.001 H 841.89 V 595.275 H 0 Z"
         id="path65-7" />
    </clipPath>
    <clipPath
       id="clip_1791-1-81">
      <path
         transform="matrix(1,0,0,-1,0,595.276)"
         d="M 0,-0.001 H 841.89 V 595.275 H 0 Z"
         id="path17-1-1" />
    </clipPath>
    <clipPath
       id="clip_1815-9">
      <path
         transform="matrix(1,0,0,-1,0,595.276)"
         d="M 0,-0.001 H 841.89 V 595.275 H 0 Z"
         id="path89-8" />
    </clipPath>
    <clipPath
       id="clip_1809-7">
      <path
         transform="matrix(1,0,0,-1,0,595.276)"
         d="M 0,-0.001 H 841.89 V 595.275 H 0 Z"
         id="path71-92" />
    </clipPath>
    <clipPath
       id="clip_1793-9">
      <path
         transform="matrix(1,0,0,-1,0,595.276)"
         d="M 0,-0.001 H 841.89 V 595.275 H 0 Z"
         id="path23-55" />
    </clipPath>
    <clipPath
       id="clip_1799-6">
      <path
         transform="matrix(1,0,0,-1,0,595.276)"
         d="M 0,-0.001 H 841.89 V 595.275 H 0 Z"
         id="path41-38" />
    </clipPath>
    <clipPath
       id="clip_1817-7">
      <path
         transform="matrix(1,0,0,-1,0,595.276)"
         d="M 0,-0.001 H 841.89 V 595.275 H 0 Z"
         id="path95-41" />
    </clipPath>
    <clipPath
       id="clip_1803-7">
      <path
         transform="matrix(1,0,0,-1,0,595.276)"
         d="M 0,-0.001 H 841.89 V 595.275 H 0 Z"
         id="path53-1" />
    </clipPath>
    <clipPath
       id="clip_1813-1">
      <path
         transform="matrix(1,0,0,-1,0,595.276)"
         d="M 0,-0.001 H 841.89 V 595.275 H 0 Z"
         id="path83-6" />
    </clipPath>
    <clipPath
       id="clip_1805-7">
      <path
         transform="matrix(1,0,0,-1,0,595.276)"
         d="M 0,-0.001 H 841.89 V 595.275 H 0 Z"
         id="path59-43" />
    </clipPath>
    <clipPath
       id="clip_1795-18">
      <path
         transform="matrix(1,0,0,-1,0,595.276)"
         d="M 0,-0.001 H 841.89 V 595.275 H 0 Z"
         id="path29-5" />
    </clipPath>
    <clipPath
       id="clip_1801-3">
      <path
         transform="matrix(1,0,0,-1,0,595.276)"
         d="M 0,-0.001 H 841.89 V 595.275 H 0 Z"
         id="path47-4" />
    </clipPath>
    <clipPath
       id="clip_1819-0">
      <path
         transform="matrix(1,0,0,-1,0,595.276)"
         d="M 0,-0.001 H 841.89 V 595.275 H 0 Z"
         id="path101-02" />
    </clipPath>
    <clipPath
       id="clip_1827-0">
      <path
         transform="matrix(1,0,0,-1,0,595.276)"
         d="M 0,-0.001 H 841.89 V 595.275 H 0 Z"
         id="path125-1" />
    </clipPath>
    <clipPath
       id="clip_1821-4">
      <path
         transform="matrix(1,0,0,-1,0,595.276)"
         d="M 0,-0.001 H 841.89 V 595.275 H 0 Z"
         id="path107-7" />
    </clipPath>
    <clipPath
       id="clip_1811-7">
      <path
         transform="matrix(1,0,0,-1,0,595.276)"
         d="M 0,-0.001 H 841.89 V 595.275 H 0 Z"
         id="path77-1" />
    </clipPath>
    <clipPath
       id="clip_1829-4">
      <path
         transform="matrix(1,0,0,-1,0,595.276)"
         d="M 0,-0.001 H 841.89 V 595.275 H 0 Z"
         id="path131-6" />
    </clipPath>
    <clipPath
       id="clip_1825-6">
      <path
         transform="matrix(1,0,0,-1,0,595.276)"
         d="M 0,-0.001 H 841.89 V 595.275 H 0 Z"
         id="path119-3" />
    </clipPath>
    <clipPath
       id="clip_2156-0">
      <path
         transform="matrix(1,0,0,-1,0,595.276)"
         d="M 0,-0.001 H 841.89 V 595.275 H 0 Z"
         id="path397-08" />
    </clipPath>
    <clipPath
       id="clip_2087-0">
      <path
         transform="matrix(1,0,0,-1,0,595.276)"
         d="M 0,-0.001 H 841.89 V 595.275 H 0 Z"
         id="path70-6" />
    </clipPath>
    <clipPath
       id="clip_2160-5">
      <path
         transform="matrix(1,0,0,-1,0,595.276)"
         d="M 0,-0.001 H 841.89 V 595.275 H 0 Z"
         id="path415-66" />
    </clipPath>
    <clipPath
       id="clip_2125-1">
      <path
         transform="matrix(1,0,0,-1,0,595.276)"
         d="M 0,-0.001 H 841.89 V 595.275 H 0 Z"
         id="path252-1" />
    </clipPath>
    <clipPath
       id="clip_2129-89">
      <path
         transform="matrix(1,0,0,-1,0,595.276)"
         d="M 0,-0.001 H 841.89 V 595.275 H 0 Z"
         id="path271-8" />
    </clipPath>
    <clipPath
       id="clip_2131-2">
      <path
         transform="matrix(1,0,0,-1,0,595.276)"
         d="M 0,-0.001 H 841.89 V 595.275 H 0 Z"
         id="path278-9" />
    </clipPath>
    <clipPath
       id="clip_2127-6">
      <path
         transform="matrix(1,0,0,-1,0,595.276)"
         d="M 0,-0.001 H 841.89 V 595.275 H 0 Z"
         id="path264-3" />
    </clipPath>
    <clipPath
       id="clip_2135-4">
      <path
         transform="matrix(1,0,0,-1,0,595.276)"
         d="M 0,-0.001 H 841.89 V 595.275 H 0 Z"
         id="path294-37" />
    </clipPath>
    <clipPath
       id="clip_2133-5">
      <path
         transform="matrix(1,0,0,-1,0,595.276)"
         d="M 0,-0.001 H 841.89 V 595.275 H 0 Z"
         id="path286-77" />
    </clipPath>
    <clipPath
       id="clip_2137-1">
      <path
         transform="matrix(1,0,0,-1,0,595.276)"
         d="M 0,-0.001 H 841.89 V 595.275 H 0 Z"
         id="path303-2" />
    </clipPath>
    <clipPath
       id="clip_2146-4">
      <path
         transform="matrix(1,0,0,-1,0,595.276)"
         d="M 0,-0.001 H 841.89 V 595.275 H 0 Z"
         id="path345-1" />
    </clipPath>
    <clipPath
       id="clip_2141-4">
      <path
         transform="matrix(1,0,0,-1,0,595.276)"
         d="M 0,-0.001 H 841.89 V 595.275 H 0 Z"
         id="path322-5" />
    </clipPath>
    <clipPath
       id="clip_2143-6">
      <path
         transform="matrix(1,0,0,-1,0,595.276)"
         d="M 0,-0.001 H 841.89 V 595.275 H 0 Z"
         id="path330-5" />
    </clipPath>
    <clipPath
       id="clip_2123-7">
      <path
         transform="matrix(1,0,0,-1,0,595.276)"
         d="M 0,-0.001 H 841.89 V 595.275 H 0 Z"
         id="path241-1" />
    </clipPath>
    <clipPath
       id="clip_2208-2">
      <path
         transform="matrix(1,0,0,-1,0,595.276)"
         d="m -69.189,-0.001 h 841.89 v 595.276 h -841.89 z"
         id="path200-0" />
    </clipPath>
    <clipPath
       id="clip_2212-10">
      <path
         transform="matrix(1,0,0,-1,0,595.276)"
         d="m -69.189,-0.001 h 841.89 v 595.276 h -841.89 z"
         id="path214-44" />
    </clipPath>
    <clipPath
       id="clip_2206-6">
      <path
         transform="matrix(1,0,0,-1,0,595.276)"
         d="m -69.189,-0.001 h 841.89 v 595.276 h -841.89 z"
         id="path194-0" />
    </clipPath>
    <clipPath
       id="clip_2198-29">
      <path
         transform="matrix(1,0,0,-1,0,595.276)"
         d="m -69.189,-0.001 h 841.89 v 595.276 h -841.89 z"
         id="path162-1" />
    </clipPath>
    <clipPath
       id="clip_2200-9">
      <path
         transform="matrix(1,0,0,-1,0,595.276)"
         d="m -69.189,-0.001 h 841.89 v 595.276 h -841.89 z"
         id="path171-2" />
    </clipPath>
    <clipPath
       id="clip_2202-6">
      <path
         transform="matrix(1,0,0,-1,0,595.276)"
         d="m -69.189,-0.001 h 841.89 v 595.276 h -841.89 z"
         id="path177-08" />
    </clipPath>
    <clipPath
       id="clip_2189-97">
      <path
         transform="matrix(1,0,0,-1,0,595.276)"
         d="m -69.189,-0.001 h 841.89 v 595.276 h -841.89 z"
         id="path112-3" />
    </clipPath>
    <clipPath
       id="clip_2191-0">
      <path
         transform="matrix(1,0,0,-1,0,595.276)"
         d="m -69.189,-0.001 h 841.89 v 595.276 h -841.89 z"
         id="path122-9" />
    </clipPath>
    <clipPath
       id="clip_2195-3">
      <path
         transform="matrix(1,0,0,-1,0,595.276)"
         d="m -69.189,-0.001 h 841.89 v 595.276 h -841.89 z"
         id="path143-6" />
    </clipPath>
    <clipPath
       id="clip_2195-0-9">
      <path
         transform="matrix(1,0,0,-1,0,595.276)"
         d="m -69.189,-0.001 h 841.89 v 595.276 h -841.89 z"
         id="path143-0-5" />
    </clipPath>
    <clipPath
       id="clip_2169-9">
      <path
         transform="matrix(1,0,0,-1,0,595.276)"
         d="m -69.189,-0.001 h 841.89 v 595.276 h -841.89 z"
         id="path21-0" />
    </clipPath>
    <clipPath
       id="clip_1832-1">
      <path
         transform="matrix(1,0,0,-1,0,595.276)"
         d="M 68.598,29.763 H 826.299 V 565.511 H 68.598 Z"
         id="path8-7" />
    </clipPath>
  </defs>
  <g
     inkscape:label="Layer 1"
     inkscape:groupmode="layer"
     id="layer1">
    <g
       aria-label="板南線"
       transform="matrix(0.26458333,0,0,0.26458333,0.97185864,-6.414267)"
       id="text1825"
       style="font-size:110px;line-height:1.25;font-family:'Noto Sans TC';-inkscape-font-specification:'Noto Sans TC';white-space:pre;shape-inside:url(#rect1827)">
      <path
         d="m 279.3925,75.403828 h 49.06 v 10.89 h -49.06 z m 0.11,28.050002 h 38.94 v 10.67 h -38.94 z m -6.05,-28.050002 h 11.44 v 31.240002 q 0,7.04 -0.66,15.51 -0.55,8.47 -2.2,17.27 -1.54,8.8 -4.62,17.05 -3.08,8.25 -8.25,14.85 -0.88,-0.99 -2.64,-2.42 -1.76,-1.32 -3.63,-2.64 -1.76,-1.32 -3.08,-1.87 4.62,-6.27 7.37,-13.53 2.75,-7.37 4.07,-15.07 1.32,-7.81 1.76,-15.29 0.44,-7.48 0.44,-13.97 z m 18.81,35.750002 q 3.08,11.55 8.36,21.56 5.28,10.01 12.98,17.6 7.7,7.48 17.93,11.66 -1.32,1.21 -2.86,2.86 -1.43,1.76 -2.75,3.63 -1.32,1.87 -2.31,3.41 -10.78,-5.17 -18.7,-13.75 -7.92,-8.58 -13.42,-19.91 -5.5,-11.33 -9.13,-24.86 z m 23.98,-7.7 h 2.09 l 1.98,-0.44 7.37,2.31 q -2.75,16.83 -8.69,29.7 -5.83,12.76 -14.41,21.78 -8.58,9.02 -19.47,14.74 -0.77,-1.43 -1.98,-3.19 -1.21,-1.65 -2.53,-3.41 -1.32,-1.65 -2.64,-2.75 9.57,-4.29 17.38,-12.43 7.92,-8.14 13.31,-19.36 5.39,-11.22 7.59,-24.86 z m -87.01,-11.660002 h 39.16 v 11.000002 h -39.16 z m 15.07,-22.99 h 11.11 V 171.43383 h -11.11 z m -0.44,30.36 7.04,2.530002 q -1.32,6.6 -3.3,13.64 -1.87,7.04 -4.29,13.86 -2.42,6.82 -5.28,12.76 -2.86,5.83 -5.94,10.01 -0.88,-2.42 -2.64,-5.5 -1.65,-3.19 -2.97,-5.39 2.86,-3.63 5.5,-8.47 2.64,-4.95 4.95,-10.56 2.31,-5.72 4.07,-11.55 1.76,-5.83 2.86,-11.330002 z m 11.11,10.010002 q 0.99,1.1 3.19,3.96 2.2,2.75 4.62,6.05 2.53,3.3 4.51,6.05 1.98,2.75 2.86,3.96 l -6.71,9.13 q -1.1,-2.42 -2.86,-5.72 -1.76,-3.3 -3.85,-6.71 -1.98,-3.41 -3.96,-6.49 -1.87,-3.08 -3.19,-5.06 z"
         style="font-weight:600;-inkscape-font-specification:'Noto Sans TC Semi-Bold';fill:#ffffff"
         id="path2367" />
      <path
         d="m 340.33229,78.483828 h 97.46 v 11 h -97.46 z m 23.76,46.420002 h 50.05 v 9.24 h -50.05 z m -2.31,17.6 h 54.67 v 9.57 h -54.67 z m 21.34,-13.09 h 11.22 v 39.27 h -11.22 z m -38.17,-30.690002 h 79.64 v 10.890002 h -67.76 v 61.71 h -11.88 z m 76.23,0 h 12.1 v 60.390002 q 0,4.51 -1.32,6.82 -1.21,2.42 -4.4,3.63 -3.19,1.21 -8.03,1.43 -4.84,0.33 -11.44,0.33 -0.44,-2.2 -1.65,-5.17 -1.1,-2.86 -2.31,-4.95 2.97,0.11 5.94,0.22 2.97,0.11 5.28,0.11 2.42,-0.11 3.19,-0.11 1.54,-0.11 2.09,-0.55 0.55,-0.55 0.55,-1.76 z m -52.47,13.970002 9.35,-2.75 q 1.98,2.75 3.74,6.16 1.87,3.41 2.75,6.05 l -9.9,3.3 q -0.66,-2.64 -2.42,-6.27 -1.76,-3.63 -3.52,-6.49 z m 31.68,-2.64 10.01,2.86 q -2.2,3.96 -4.4,7.81 -2.2,3.85 -4.29,6.71 l -8.36,-2.53 q 1.32,-2.09 2.53,-4.73 1.32,-2.64 2.53,-5.28 1.21,-2.64 1.98,-4.84 z m -17.71,-40.700002 h 12.98 v 36.960002 h -12.98 z"
         style="font-weight:600;-inkscape-font-specification:'Noto Sans TC Semi-Bold';fill:#ffffff"
         id="path2369" />
      <path
         d="m 513.14207,68.693828 13.31,2.53 q -2.09,4.18 -4.29,8.25 -2.09,3.96 -3.96,6.82 l -10.01,-2.53 q 1.54,-3.19 2.86,-7.37 1.32,-4.29 2.09,-7.7 z m -8.69,35.860002 v 6.82 h 29.81 v -6.82 z m 0,-15.070002 v 6.71 h 29.81 v -6.71 z m -10.89,-9.02 h 52.14 v 39.930002 h -52.14 z m 21.23,35.860002 h 11.22 v 43.23 q 0,4.07 -0.99,6.49 -0.88,2.42 -3.52,3.85 -2.64,1.32 -6.49,1.54 -3.85,0.33 -9.13,0.33 -0.33,-2.42 -1.21,-5.5 -0.88,-3.08 -1.98,-5.28 3.3,0.11 6.27,0.11 2.97,0 4.07,-0.11 0.99,0 1.32,-0.33 0.44,-0.33 0.44,-1.21 z m -25.19,11.55 h 16.06 v 9.57 h -16.06 z m 13.42,0 h 1.98 l 1.76,-0.33 6.93,2.31 q -1.87,8.58 -5.28,15.51 -3.3,6.93 -7.92,12.21 -4.62,5.17 -10.45,8.69 -1.1,-1.87 -3.08,-4.29 -1.87,-2.42 -3.52,-3.96 4.73,-2.53 8.58,-6.93 3.96,-4.4 6.82,-9.9 2.97,-5.5 4.18,-11.66 z m 37.51,-5.17 8.69,7.26 q -4.51,3.74 -9.13,7.59 -4.62,3.85 -8.58,6.49 l -6.38,-5.83 q 2.42,-2.09 5.28,-4.73 2.86,-2.64 5.5,-5.5 2.75,-2.97 4.62,-5.28 z m -15.07,-0.33 q 2.2,7.48 5.83,14.41 3.63,6.93 8.58,12.43 5.06,5.39 11.11,8.69 -1.21,1.1 -2.64,2.75 -1.43,1.54 -2.75,3.3 -1.32,1.76 -2.2,3.3 -6.38,-4.29 -11.44,-10.78 -4.95,-6.6 -8.58,-14.85 -3.63,-8.25 -5.94,-17.38 z m -52.25,-8.8 8.69,-2.31 q 1.21,3.63 2.42,7.92 1.32,4.29 2.2,8.36 0.99,3.96 1.32,6.93 l -9.13,2.86 q -0.44,-3.08 -1.32,-7.15 -0.77,-4.18 -1.87,-8.47 -1.1,-4.4 -2.31,-8.14 z m -9.57,28.71 8.36,-1.54 q 0.99,5.61 1.65,12.1 0.77,6.49 0.88,11.33 l -8.91,1.65 q 0,-4.84 -0.66,-11.44 -0.55,-6.6 -1.32,-12.1 z m -11.55,-1.32 9.13,1.43 q -0.66,7.48 -1.98,15.07 -1.32,7.48 -3.08,12.76 -1.1,-0.55 -2.75,-1.21 -1.54,-0.55 -3.3,-1.1 -1.65,-0.55 -2.75,-0.88 1.87,-5.06 2.97,-12.1 1.21,-7.04 1.76,-13.97 z m -1.54,-29.15 q -0.22,-1.1 -0.88,-2.97 -0.66,-1.98 -1.43,-3.96 -0.66,-2.09 -1.32,-3.52 1.54,-0.33 2.97,-1.870002 1.54,-1.54 3.08,-3.96 1.21,-1.65 3.41,-5.83 2.31,-4.18 4.84,-9.79 2.64,-5.61 4.51,-11.44 l 10.78,4.4 q -2.53,5.94 -5.72,11.88 -3.19,5.94 -6.71,11.44 -3.41,5.390002 -6.82,9.790002 v 0.22 q 0,0 -0.99,0.66 -0.99,0.55 -2.42,1.43 -1.32,0.77 -2.31,1.76 -0.99,0.88 -0.99,1.76 z m 0,0 -0.33,-8.25 4.95,-3.19 19.14,-1.430002 q -0.44,2.200002 -0.77,4.950002 -0.33,2.64 -0.33,4.4 -6.49,0.66 -10.56,1.21 -4.07,0.44 -6.49,0.88 -2.31,0.33 -3.63,0.66 -1.21,0.33 -1.98,0.77 z m 0.77,25.3 q -0.22,-1.21 -0.88,-3.08 -0.66,-1.98 -1.43,-4.07 -0.77,-2.09 -1.43,-3.63 2.09,-0.55 4.07,-2.31 1.98,-1.87 4.62,-4.95 1.32,-1.54 3.85,-4.95 2.64,-3.52 5.83,-8.25 3.19,-4.73 6.38,-10.230002 3.19,-5.61 5.72,-11.22 l 10.12,6.16 q -3.96,7.37 -8.91,14.740002 -4.95,7.26 -10.34,13.86 -5.28,6.6 -10.67,11.99 v 0.33 q 0,0 -1.1,0.66 -0.99,0.55 -2.42,1.43 -1.32,0.77 -2.42,1.76 -0.99,0.99 -0.99,1.76 z m 0,0 -0.44,-8.47 4.95,-3.3 26.51,-3.19 q -0.33,2.09 -0.55,4.84 -0.22,2.75 -0.11,4.4 -8.91,1.32 -14.52,2.2 -5.5,0.88 -8.69,1.54 -3.08,0.55 -4.62,1.1 -1.54,0.44 -2.53,0.88 z m 23.1,2.97 7.81,-2.42 q 1.43,3.85 2.75,8.25 1.43,4.4 1.98,7.7 l -8.14,2.86 q -0.55,-3.3 -1.87,-7.92 -1.21,-4.62 -2.53,-8.47 z"
         style="font-weight:600;-inkscape-font-specification:'Noto Sans TC Semi-Bold';fill:#ffffff"
         id="path2371" />
    </g>
    <g
       aria-label="Bannan Line

"
       transform="matrix(0.26458333,0,0,0.26458333,0.34678218,-3.8874346)"
       id="text12839"
       style="font-size:60px;line-height:1.25;font-family:'Microsoft JhengHei';-inkscape-font-specification:'Microsoft JhengHei';word-spacing:0px;white-space:pre;shape-inside:url(#rect12841)">
      <path
         d="m 256.98508,222.46734 h -22.8 v -43.38 h 20.88 q 6.18,0 9.78,3 3.6,3 3.6,7.98 0,3.24 -1.44,5.7 -1.38,2.4 -4.2,3.96 3.66,1.44 5.52,3.96 1.92,2.52 1.92,6 0,5.76 -3.78,9.3 -3.78,3.48 -9.48,3.48 z m 3.54,-31.44 q 0,-2.94 -1.68,-4.44 -1.68,-1.56 -4.86,-1.56 h -12.18 v 12.24 h 12.6 q 2.7,0 4.38,-1.56 1.74,-1.62 1.74,-4.68 z m 1.8,18.6 q 0,-3.12 -1.92,-4.74 -1.86,-1.68 -4.92,-1.68 h -13.68 v 13.32 h 13.56 q 3.18,0 5.04,-1.74 1.92,-1.74 1.92,-5.16 z"
         style="font-family:'AR UDJingXiHeiE1G30 EB';-inkscape-font-specification:'AR UDJingXiHeiE1G30 EB';fill:#ffffff"
         id="path2374" />
      <path
         d="m 288.005,217.36734 q 2.82,0 5.16,-1.02 2.34,-1.02 4.14,-3.3 v -5.04 h -4.5 q -5.16,0 -7.62,1.44 -2.46,1.44 -2.46,3.96 0,1.8 1.32,2.88 1.32,1.08 3.96,1.08 z m 2.52,-27.96 q 7.2,0 10.68,2.94 3.54,2.88 3.54,8.52 v 21.6 h -7.44 v -3.84 q -2.04,2.28 -4.74,3.48 -2.64,1.14 -6.24,1.14 -5.34,0 -8.28,-2.58 -2.94,-2.64 -2.94,-6.9 0,-5.1 4.38,-7.86 4.38,-2.76 13.32,-2.76 h 4.5 v -2.64 q 0,-2.7 -1.68,-4.08 -1.62,-1.38 -5.1,-1.38 -3.54,0 -5.34,1.44 -1.74,1.38 -1.74,3.72 h -7.38 q 0,-4.56 3.66,-7.68 3.72,-3.12 10.8,-3.12 z"
         style="font-family:'AR UDJingXiHeiE1G30 EB';-inkscape-font-specification:'AR UDJingXiHeiE1G30 EB';fill:#ffffff"
         id="path2376" />
      <path
         d="m 320.10491,201.10734 v 21.36 h -7.44 v -32.28 h 7.44 v 3.66 q 1.5,-1.86 4.08,-3.12 2.64,-1.32 5.88,-1.32 5.16,0 7.98,2.88 2.88,2.88 2.88,8.1 v 22.08 h -7.38 v -21.12 q 0,-2.88 -1.38,-4.44 -1.38,-1.62 -4.08,-1.62 -2.7,0 -4.92,1.74 -2.22,1.68 -3.06,4.08 z"
         style="font-family:'AR UDJingXiHeiE1G30 EB';-inkscape-font-specification:'AR UDJingXiHeiE1G30 EB';fill:#ffffff"
         id="path2378" />
      <path
         d="m 356.3448,201.10734 v 21.36 h -7.44 v -32.28 h 7.44 v 3.66 q 1.5,-1.86 4.08,-3.12 2.64,-1.32 5.88,-1.32 5.16,0 7.98,2.88 2.88,2.88 2.88,8.1 v 22.08 h -7.38 v -21.12 q 0,-2.88 -1.38,-4.44 -1.38,-1.62 -4.08,-1.62 -2.7,0 -4.92,1.74 -2.22,1.68 -3.06,4.08 z"
         style="font-family:'AR UDJingXiHeiE1G30 EB';-inkscape-font-specification:'AR UDJingXiHeiE1G30 EB';fill:#ffffff"
         id="path2380" />
      <path
         d="m 396.0647,217.36734 q 2.82,0 5.16,-1.02 2.34,-1.02 4.14,-3.3 v -5.04 h -4.5 q -5.16,0 -7.62,1.44 -2.46,1.44 -2.46,3.96 0,1.8 1.32,2.88 1.32,1.08 3.96,1.08 z m 2.52,-27.96 q 7.2,0 10.68,2.94 3.54,2.88 3.54,8.52 v 21.6 h -7.44 v -3.84 q -2.04,2.28 -4.74,3.48 -2.64,1.14 -6.24,1.14 -5.34,0 -8.28,-2.58 -2.94,-2.64 -2.94,-6.9 0,-5.1 4.38,-7.86 4.38,-2.76 13.32,-2.76 h 4.5 v -2.64 q 0,-2.7 -1.68,-4.08 -1.62,-1.38 -5.1,-1.38 -3.54,0 -5.34,1.44 -1.74,1.38 -1.74,3.72 h -7.38 q 0,-4.56 3.66,-7.68 3.72,-3.12 10.8,-3.12 z"
         style="font-family:'AR UDJingXiHeiE1G30 EB';-inkscape-font-specification:'AR UDJingXiHeiE1G30 EB';fill:#ffffff"
         id="path2382" />
      <path
         d="m 428.1646,201.10734 v 21.36 h -7.44 v -32.28 h 7.44 v 3.66 q 1.5,-1.86 4.08,-3.12 2.64,-1.32 5.88,-1.32 5.16,0 7.98,2.88 2.88,2.88 2.88,8.1 v 22.08 h -7.38 v -21.12 q 0,-2.88 -1.38,-4.44 -1.38,-1.62 -4.08,-1.62 -2.7,0 -4.92,1.74 -2.22,1.68 -3.06,4.08 z"
         style="font-family:'AR UDJingXiHeiE1G30 EB';-inkscape-font-specification:'AR UDJingXiHeiE1G30 EB';fill:#ffffff"
         id="path2384" />
      <path
         d="m 503.94444,222.46734 h -30.48 v -43.38 h 7.62 v 37.44 h 22.86 z"
         style="font-family:'AR UDJingXiHeiE1G30 EB';-inkscape-font-specification:'AR UDJingXiHeiE1G30 EB';fill:#ffffff"
         id="path2386" />
      <path
         d="m 517.08437,178.00734 v 7.14 h -8.04 v -7.14 z m -0.36,12.18 v 32.28 h -7.44 v -32.28 z"
         style="font-family:'AR UDJingXiHeiE1G30 EB';-inkscape-font-specification:'AR UDJingXiHeiE1G30 EB';fill:#ffffff"
         id="path2388" />
      <path
         d="m 532.56438,201.10734 v 21.36 h -7.44 v -32.28 h 7.44 v 3.66 q 1.5,-1.86 4.08,-3.12 2.64,-1.32 5.88,-1.32 5.16,0 7.98,2.88 2.88,2.88 2.88,8.1 v 22.08 h -7.38 v -21.12 q 0,-2.88 -1.38,-4.44 -1.38,-1.62 -4.08,-1.62 -2.7,0 -4.92,1.74 -2.22,1.68 -3.06,4.08 z"
         style="font-family:'AR UDJingXiHeiE1G30 EB';-inkscape-font-specification:'AR UDJingXiHeiE1G30 EB';fill:#ffffff"
         id="path2390" />
      <path
         d="m 575.40425,189.40734 q 7.02,0 11.1,4.62 4.14,4.56 4.08,14.28 h -22.98 q 0.06,4.38 2.16,6.84 2.1,2.4 6.3,2.4 2.76,0 4.62,-1.08 1.92,-1.14 2.46,-3.06 h 7.14 q -0.72,4.14 -4.38,7.02 -3.66,2.82 -9.84,2.82 -7.8,0 -11.94,-4.38 -4.08,-4.38 -4.08,-12.42 -0.06,-7.62 3.96,-12.3 4.08,-4.74 11.4,-4.74 z m 0,5.7 q -3.18,0 -5.34,2.16 -2.16,2.16 -2.34,6.06 h 15.12 q -0.06,-3.72 -2.04,-5.94 -1.98,-2.28 -5.4,-2.28 z"
         style="font-family:'AR UDJingXiHeiE1G30 EB';-inkscape-font-specification:'AR UDJingXiHeiE1G30 EB';fill:#ffffff"
         id="path2392" />
    </g>
    <g
       inkscape:label="Layer 1"
       id="layer1-1"
       transform="matrix(1.0671904,0,0,1.0671904,12.404,11.433)">
      <path
         d="M 32.399816,40.499947 H 8.1001303 C 3.6262027,40.499947 0,36.873391 0,32.399816 V 8.1001303 C 0,3.6265555 3.6262027,0 8.1001303,0 H 32.399816 c 4.473575,0 8.10013,3.6265555 8.10013,8.1001304 V 32.399816 c 0,4.473575 -3.626555,8.100131 -8.10013,8.100131"
         fill="#005cb9"
         id="path480"
         style="stroke-width:0.352778" />
      <path
         d="m 27.046519,11.137441 v 15.049853 h 8.754533 V 29.36053 H 22.856577 V 11.137441 Z"
         fill="#ffffff"
         id="path482"
         style="stroke-width:0.352778" />
      <path
         d="m 12.957245,26.188141 c 0.744008,0 1.330325,-0.202142 1.760361,-0.607484 0.429683,-0.404989 0.644878,-0.987777 0.644878,-1.748014 0,-0.727427 -0.215195,-1.280936 -0.644878,-1.661583 -0.430036,-0.379942 -1.025172,-0.570089 -1.785055,-0.570089 H 9.1260783 v 4.58717 z M 12.411851,18.42703 c 0.694266,0 1.231194,-0.177448 1.611488,-0.5334 0.379942,-0.355248 0.570442,-0.871361 0.570442,-1.549753 0,-0.6604 -0.1905,-1.160992 -0.570442,-1.500011 -0.380294,-0.338314 -0.950383,-0.508353 -1.710972,-0.508353 H 9.1260783 V 18.42703 Z M 4.9354316,11.136877 h 7.9473774 c 1.851025,0 3.318228,0.430036 4.401255,1.289403 1.082323,0.860072 1.624189,2.017183 1.624189,3.471686 0,0.909461 -0.222955,1.744133 -0.669219,2.504016 -0.264936,0.479778 -0.7112,0.94227 -1.339497,1.388887 0.843491,0.429683 1.471436,0.900994 1.884891,1.413227 0.594784,0.743656 0.892528,1.628422 0.892528,2.653242 0,1.669697 -0.558094,3.004608 -1.673578,4.004733 -1.116189,1.000125 -2.583391,1.499658 -4.401255,1.499658 H 4.9354316 Z"
         fill="#ffffff"
         id="path484"
         style="stroke-width:0.352778" />
    </g>
  </g>
</svg>
