<?xml version="1.0" encoding="UTF-8" standalone="no"?>
<!-- Created with Inkscape (http://www.inkscape.org/) -->

<svg
   width="400"
   height="100"
   viewBox="0 0 105.83334 26.458333"
   version="1.1"
   id="svg5"
   inkscape:version="1.1 (c68e22c387, 2021-05-23)"
   sodipodi:docname="compare.svg"
   xmlns:inkscape="http://www.inkscape.org/namespaces/inkscape"
   xmlns:sodipodi="http://sodipodi.sourceforge.net/DTD/sodipodi-0.dtd"
   xmlns="http://www.w3.org/2000/svg"
   xmlns:svg="http://www.w3.org/2000/svg">
  <sodipodi:namedview
     id="namedview7"
     pagecolor="#333333"
     bordercolor="#999999"
     borderopacity="1"
     inkscape:pageshadow="0"
     inkscape:pageopacity="1"
     inkscape:pagecheckerboard="true"
     inkscape:document-units="mm"
     showgrid="false"
     inkscape:zoom="1.8973437"
     inkscape:cx="219.2539"
     inkscape:cy="40.056"
     inkscape:window-width="1920"
     inkscape:window-height="1094"
     inkscape:window-x="-11"
     inkscape:window-y="-11"
     inkscape:window-maximized="1"
     inkscape:current-layer="layer1"
     units="px" />
  <defs
     id="defs2">
    <rect
       x="11.595158"
       y="16.865684"
       width="295.80415"
       height="51.764489"
       id="rect3186" />
    <rect
       x="202.91527"
       y="13.176316"
       width="329.4079"
       height="59.029896"
       id="rect5816" />
  </defs>
  <g
     inkscape:label="Layer 1"
     inkscape:groupmode="layer"
     id="layer1">
    <path
       id="rect38779"
       style="fill:#550000;stroke-width:0.555625"
       d="M -5.0862632e-6,-3.1789145e-7 H 105.83334 V 26.458334 H -5.0862632e-6 Z" />
    <g
       aria-label="問卷調查"
       transform="matrix(0.34769656,0,0,0.34769656,-2.7694083,-5.0674345)"
       id="text3184"
       style="font-size:40px;line-height:1.25;white-space:pre;shape-inside:url(#rect3186)">
      <path
         d="m 93.377223,42.665234 h 13.599997 v 12.12 H 93.377223 v -3.16 h 10.039997 v -5.84 H 93.377223 Z m -1.64,0 h 3.48 v 14.44 h -3.48 z m -6.96,-11.92 h 10.64 v 2.64 h -10.64 z m 18.519997,0 h 10.76 v 2.64 h -10.76 z m 9.16,-5.8 h 3.8 v 30.72 q 0,1.72 -0.44,2.64 -0.4,0.92 -1.52,1.44 -1.12,0.48 -2.96,0.56 -1.84,0.12 -4.52,0.12 -0.08,-0.56 -0.32,-1.28 -0.2,-0.68 -0.48,-1.4 -0.24,-0.68 -0.52,-1.2 1.24,0.08 2.44,0.08 1.24,0 2.16,0 0.96,0 1.36,0 0.56,-0.04 0.76,-0.24 0.24,-0.24 0.24,-0.76 z m -27.359997,0 h 12.72 v 14.48 h -12.72 v -2.96 h 9.16 v -8.56 h -9.16 z m 29.359997,0 v 2.92 h -9.8 v 8.64 h 9.8 v 2.92 h -13.4 v -14.48 z m -31.479997,0 h 3.72 v 35.52 h -3.72 z"
         style="font-weight:500;font-family:'Noto Sans TC';-inkscape-font-specification:'Noto Sans TC Medium';text-align:center;text-anchor:middle;fill:#ffffff"
         id="path28923" />
      <path
         d="m 131.73715,43.825234 h 13.72 v 3.28 h -13.72 z m -2.44,0 h 3.72 v 10.92 q 0,0.76 0.24,1.16 0.28,0.36 1.08,0.52 0.84,0.12 2.4,0.12 0.44,0 1.4,0 1,0 2.28,0 1.28,0 2.6,0 1.32,0 2.4,0 1.08,0 1.64,0 1.32,0 1.96,-0.36 0.64,-0.36 0.92,-1.36 0.28,-1.04 0.44,-3.12 0.68,0.44 1.68,0.84 1.04,0.36 1.8,0.52 -0.28,2.72 -0.92,4.2 -0.6,1.52 -1.92,2.08 -1.32,0.56 -3.76,0.56 -0.4,0 -1.48,0 -1.04,0 -2.48,0 -1.4,0 -2.8,0 -1.4,0 -2.48,0 -1.08,0 -1.44,0 -2.8,0 -4.4,-0.44 -1.56,-0.4 -2.24,-1.52 -0.64,-1.12 -0.64,-3.16 z m 15,0 h 3.76 q 0,0 -0.04,0.52 0,0.48 -0.04,0.84 -0.24,3.36 -0.6,5.04 -0.36,1.68 -1,2.32 -0.52,0.56 -1.2,0.8 -0.64,0.2 -1.48,0.24 -0.8,0.08 -2.2,0.08 -1.36,-0.04 -3,-0.12 -0.04,-0.68 -0.28,-1.48 -0.24,-0.8 -0.6,-1.4 1.36,0.12 2.56,0.16 1.24,0 1.76,0 0.92,0 1.28,-0.32 0.4,-0.36 0.64,-1.76 0.24,-1.4 0.44,-4.44 z m -22.44,-7.04 h 35.4 v 3.4 h -35.4 z m 2.48,-7.04 h 30.24 v 3.28 h -30.24 z m 21.28,7.36 q 1.2,2.04 3.2,3.84 2.04,1.76 4.52,3.12 2.52,1.32 5.32,2.08 -0.4,0.4 -0.88,0.96 -0.48,0.52 -0.92,1.12 -0.4,0.56 -0.68,1.04 -2.88,-0.96 -5.52,-2.6 -2.6,-1.64 -4.72,-3.8 -2.12,-2.16 -3.56,-4.64 z m -7.2,-13.96 3.96,0.4 q -0.6,3.8 -2,7.52 -1.4,3.72 -3.72,7.08 -2.28,3.36 -5.68,6.2 -3.36,2.84 -7.92,4.96 -0.2,-0.52 -0.6,-1.08 -0.4,-0.6 -0.88,-1.16 -0.44,-0.56 -0.88,-0.88 4.36,-1.88 7.52,-4.44 3.16,-2.56 5.24,-5.6 2.12,-3.08 3.32,-6.36 1.24,-3.32 1.64,-6.64 z m -10.8,2.44 2.92,-1.56 q 1,1.08 2,2.44 1,1.32 1.48,2.32 l -3.08,1.76 q -0.44,-1 -1.4,-2.4 -0.96,-1.4 -1.92,-2.56 z m 20.88,-1.4 3.52,1.12 q -1.08,1.68 -2.28,3.32 -1.16,1.64 -2.16,2.84 l -2.88,-1.04 q 0.64,-0.84 1.36,-1.92 0.72,-1.12 1.36,-2.24 0.64,-1.16 1.08,-2.08 z"
         style="font-weight:500;font-family:'Noto Sans TC';-inkscape-font-specification:'Noto Sans TC Medium';text-align:center;text-anchor:middle;fill:#ffffff"
         id="path28925" />
      <path
         d="m 162.57707,35.425234 h 11.08 v 2.96 h -11.08 z m 1.52,10.76 h 9.64 v 11.92 h -9.64 v -3.08 h 6.6 v -5.72 h -6.6 z m -1.6,0 h 3.08 v 13.64 h -3.08 z m 0.04,-5.4 h 11.12 v 2.92 h -11.12 z m -1.6,-10.8 h 13.96 v 3.08 h -13.96 z m 4.2,-5.36 2.76,-1.24 q 0.84,1.24 1.68,2.76 0.84,1.48 1.28,2.52 l -2.96,1.44 q -0.4,-1.08 -1.24,-2.64 -0.8,-1.56 -1.52,-2.84 z m 11.68,0.32 h 3.08 v 15.32 q 0,2.28 -0.16,4.96 -0.12,2.64 -0.48,5.4 -0.36,2.72 -1.12,5.28 -0.72,2.56 -1.92,4.6 -0.28,-0.28 -0.76,-0.64 -0.48,-0.36 -1,-0.72 -0.48,-0.32 -0.84,-0.48 1.48,-2.6 2.12,-5.8 0.68,-3.2 0.88,-6.48 0.2,-3.28 0.2,-6.12 z m 1.68,0 h 16.8 v 3.32 h -16.8 z m 15.16,0 h 3.16 v 31.2 q 0,1.32 -0.32,2.08 -0.32,0.8 -1.16,1.2 -0.84,0.44 -2.16,0.52 -1.32,0.12 -3.32,0.12 -0.08,-0.68 -0.4,-1.64 -0.32,-0.96 -0.64,-1.6 1.4,0.04 2.56,0.08 1.16,0 1.56,-0.04 0.4,0 0.56,-0.16 0.16,-0.16 0.16,-0.6 z m -14.44,7 h 15.16 v 3.04 h -15.16 z m -0.16,6.52 h 15.4 v 3 h -15.4 z m 6.12,-11.6 h 3.12 v 13.24 h -3.12 z m -2.2,16.88 h 8.84 v 9.68 h -8.84 v -2.72 h 6 v -4.2 h -6 z m -1.64,0 h 2.68 v 11.52 h -2.68 z"
         style="font-weight:500;font-family:'Noto Sans TC';-inkscape-font-specification:'Noto Sans TC Medium';text-align:center;text-anchor:middle;fill:#ffffff"
         id="path28927" />
      <path
         d="m 212.05699,47.945234 v 2.88 h 14.56 v -2.88 z m 0,-5.32 v 2.8 h 14.56 v -2.8 z m -3.72,-2.64 h 22.2 v 13.48 h -22.2 z m -6.64,-11.88 h 35.64 v 3.32 h -35.64 z m 15.8,-4.8 h 3.76 v 17.72 h -3.76 z m -1.76,5.8 3.16,1.24 q -1.32,1.96 -3.08,3.8 -1.72,1.84 -3.76,3.44 -2.04,1.6 -4.24,2.88 -2.2,1.28 -4.44,2.16 -0.28,-0.44 -0.72,-1 -0.44,-0.56 -0.88,-1.08 -0.44,-0.56 -0.88,-0.92 2.16,-0.72 4.32,-1.84 2.16,-1.12 4.12,-2.48 2,-1.4 3.6,-2.96 1.64,-1.56 2.8,-3.24 z m -13.52,26.76 h 34.68 v 3.36 h -34.68 z m 17.56,-24.44 2.28,-2.32 q 1.84,1.12 3.96,2.48 2.12,1.32 4.2,2.76 2.08,1.4 3.88,2.76 1.8,1.32 3.08,2.44 l -2.48,2.76 q -1.2,-1.08 -2.96,-2.48 -1.72,-1.4 -3.8,-2.88 -2.04,-1.48 -4.16,-2.88 -2.08,-1.44 -4,-2.64 z"
         style="font-weight:500;font-family:'Noto Sans TC';-inkscape-font-specification:'Noto Sans TC Medium';text-align:center;text-anchor:middle;fill:#ffffff"
         id="path28929" />
    </g>
    <g
       aria-label="Questionnaire"
       id="text27824"
       style="font-size:7.48059px;line-height:1.25;stroke-width:0.187015"
       transform="translate(-1.0393158)">
      <path
         d="m 33.302076,22.743064 0.665773,0.553563 -0.478758,0.561045 -0.815385,-0.688215 q -0.276781,0.134651 -0.613408,0.201976 -0.329146,0.07481 -0.695695,0.07481 -1.2717,0 -1.989837,-0.740578 -0.718136,-0.740579 -0.718136,-2.034721 0,-1.316584 0.725617,-2.064643 0.725617,-0.755539 1.982356,-0.755539 1.271701,0 1.982357,0.748059 0.710656,0.748059 0.710656,2.072123 0,0.665773 -0.194496,1.189414 -0.194495,0.523641 -0.561044,0.88271 z m -1.937473,-4.151728 q -0.822865,0 -1.279181,0.576006 -0.448835,0.568525 -0.448835,1.503598 0,0.957516 0.456316,1.496118 0.456316,0.538603 1.2717,0.538603 0.179534,0 0.336627,-0.02992 0.164573,-0.02992 0.306704,-0.08977 l -0.576005,-0.486238 0.50868,-0.546083 0.680733,0.576005 q 0.216937,-0.246859 0.329146,-0.613408 0.11969,-0.37403 0.11969,-0.845307 0,-0.950035 -0.448836,-1.511079 -0.448835,-0.568525 -1.256739,-0.568525 z"
         style="font-family:'AR UDJingXiHeiE1G30 EB';-inkscape-font-specification:'AR UDJingXiHeiE1G30 EB';fill:#ffffff"
         id="path28896" />
      <path
         d="m 37.551038,21.995005 v -2.670571 h 0.920113 v 4.024557 h -0.920113 v -0.456316 q -0.201976,0.239379 -0.531122,0.396472 -0.321665,0.149612 -0.740578,0.149612 -0.63585,0 -0.987438,-0.351588 -0.344107,-0.359069 -0.344107,-1.00988 v -2.752857 h 0.927593 v 2.633168 q 0,0.374029 0.172054,0.561044 0.172053,0.187015 0.51616,0.187015 0.329146,0 0.605928,-0.209457 0.276782,-0.209456 0.38151,-0.501199 z"
         style="font-family:'AR UDJingXiHeiE1G30 EB';-inkscape-font-specification:'AR UDJingXiHeiE1G30 EB';fill:#ffffff"
         id="path28898" />
      <path
         d="m 41.231477,19.227186 q 0.875229,0 1.383909,0.576006 0.516161,0.568525 0.50868,1.78038 H 40.259 q 0.0075,0.546083 0.269301,0.852787 0.261821,0.299224 0.785462,0.299224 0.344107,0 0.576006,-0.134651 0.239379,-0.142131 0.306704,-0.38151 h 0.89019 q -0.08977,0.516161 -0.546083,0.875229 -0.456316,0.351588 -1.226817,0.351588 -0.972476,0 -1.488637,-0.546083 -0.50868,-0.546083 -0.50868,-1.548482 -0.0075,-0.950035 0.493719,-1.533521 0.50868,-0.590967 1.421312,-0.590967 z m 0,0.710656 q -0.396472,0 -0.665773,0.269302 -0.269301,0.269301 -0.291743,0.755539 h 1.885109 q -0.0075,-0.463796 -0.25434,-0.740578 -0.24686,-0.284263 -0.673253,-0.284263 z"
         style="font-family:'AR UDJingXiHeiE1G30 EB';-inkscape-font-specification:'AR UDJingXiHeiE1G30 EB';fill:#ffffff"
         id="path28900" />
      <path
         d="m 45.256021,21.635936 q -0.7705,-0.12717 -1.129569,-0.411432 -0.351587,-0.291743 -0.351587,-0.807904 0,-0.50868 0.411432,-0.845306 0.411433,-0.344108 1.219336,-0.344108 0.845307,0 1.2717,0.37403 0.426394,0.374029 0.426394,0.927593 h -0.927593 q -0.02992,-0.291743 -0.224418,-0.441355 -0.194495,-0.149612 -0.546083,-0.149612 -0.336626,0 -0.51616,0.11969 -0.172054,0.112209 -0.172054,0.336626 0,0.25434 0.261821,0.37403 0.26182,0.119689 0.920112,0.231898 0.76302,0.12717 1.062244,0.418913 0.306704,0.284263 0.306704,0.800423 0,0.561045 -0.456316,0.897671 -0.456316,0.329146 -1.279181,0.329146 -0.964996,0 -1.406351,-0.388991 -0.433874,-0.396471 -0.441354,-0.964996 h 0.927593 q 0.01496,0.299224 0.239379,0.471277 0.231898,0.172054 0.673253,0.172054 0.366549,0 0.583486,-0.119689 0.216937,-0.11969 0.216937,-0.366549 0,-0.25434 -0.216937,-0.37403 -0.216937,-0.12717 -0.852788,-0.239379 z"
         style="font-family:'AR UDJingXiHeiE1G30 EB';-inkscape-font-specification:'AR UDJingXiHeiE1G30 EB';fill:#ffffff"
         id="path28902" />
      <path
         d="m 49.228209,19.324434 h 0.777981 v 0.703176 h -0.777981 v 2.281579 q 0,0.164573 0.08229,0.25434 0.08977,0.08229 0.269301,0.08229 h 0.426393 v 0.703175 h -0.748059 q -0.463796,0 -0.710656,-0.216937 -0.246859,-0.224417 -0.246859,-0.688214 v -2.41623 h -0.680734 v -0.703176 h 0.680734 v -0.994918 h 0.927593 z"
         style="font-family:'AR UDJingXiHeiE1G30 EB';-inkscape-font-specification:'AR UDJingXiHeiE1G30 EB';fill:#ffffff"
         id="path28904" />
      <path
         d="m 51.659387,17.805874 v 0.890191 h -1.002399 v -0.890191 z m -0.04488,1.51856 v 4.024557 H 50.68691 v -4.024557 z"
         style="font-family:'AR UDJingXiHeiE1G30 EB';-inkscape-font-specification:'AR UDJingXiHeiE1G30 EB';fill:#ffffff"
         id="path28906" />
      <path
         d="m 54.52445,19.227186 q 0.994918,0 1.503598,0.590967 0.516161,0.583486 0.516161,1.503599 0,0.920112 -0.516161,1.52604 -0.50868,0.598447 -1.503598,0.598447 -0.979957,0 -1.511079,-0.598447 -0.523642,-0.605928 -0.523642,-1.52604 0,-0.912632 0.516161,-1.503599 0.523641,-0.590967 1.51856,-0.590967 z m 1.069724,2.094566 q 0,-0.680734 -0.299223,-1.032322 -0.299224,-0.351588 -0.770501,-0.351588 -0.493719,0 -0.792943,0.344108 -0.291743,0.344107 -0.291743,1.039802 0,0.703175 0.299224,1.062243 0.299223,0.351588 0.785462,0.351588 0.471277,0 0.770501,-0.351588 0.299223,-0.351587 0.299223,-1.062243 z"
         style="font-family:'AR UDJingXiHeiE1G30 EB';-inkscape-font-specification:'AR UDJingXiHeiE1G30 EB';fill:#ffffff"
         id="path28908" />
      <path
         d="m 58.347028,20.685901 v 2.66309 h -0.927593 v -4.024557 h 0.927593 v 0.456316 q 0.187015,-0.231898 0.50868,-0.388991 0.329146,-0.164573 0.733098,-0.164573 0.643331,0 0.994919,0.359069 0.359068,0.359068 0.359068,1.009879 v 2.752857 H 60.02268 v -2.633167 q 0,-0.359069 -0.172053,-0.553564 -0.172054,-0.201976 -0.50868,-0.201976 -0.336627,0 -0.613409,0.216937 -0.276781,0.209457 -0.38151,0.50868 z"
         style="font-family:'AR UDJingXiHeiE1G30 EB';-inkscape-font-specification:'AR UDJingXiHeiE1G30 EB';fill:#ffffff"
         id="path28910" />
      <path
         d="m 62.865293,20.685901 v 2.66309 H 61.9377 v -4.024557 h 0.927593 v 0.456316 q 0.187015,-0.231898 0.50868,-0.388991 0.329146,-0.164573 0.733098,-0.164573 0.643331,0 0.994918,0.359069 0.359069,0.359068 0.359069,1.009879 v 2.752857 h -0.920113 v -2.633167 q 0,-0.359069 -0.172053,-0.553564 -0.172054,-0.201976 -0.50868,-0.201976 -0.336627,0 -0.613409,0.216937 -0.276782,0.209457 -0.38151,0.50868 z"
         style="font-family:'AR UDJingXiHeiE1G30 EB';-inkscape-font-specification:'AR UDJingXiHeiE1G30 EB';fill:#ffffff"
         id="path28912" />
      <path
         d="m 67.817428,22.713141 q 0.351588,0 0.643331,-0.12717 0.291743,-0.12717 0.516161,-0.411432 v -0.62837 h -0.561045 q -0.64333,0 -0.950034,0.179534 -0.306705,0.179535 -0.306705,0.493719 0,0.224418 0.164573,0.359069 0.164573,0.13465 0.493719,0.13465 z m 0.314185,-3.485955 q 0.897671,0 1.331545,0.366549 0.441355,0.359069 0.441355,1.062244 v 2.693012 H 68.97692 v -0.478757 q -0.25434,0.284262 -0.590967,0.433874 -0.329146,0.142131 -0.777981,0.142131 -0.665773,0 -1.032322,-0.321665 -0.366549,-0.329146 -0.366549,-0.860268 0,-0.63585 0.546084,-0.979957 0.546083,-0.344108 1.66069,-0.344108 h 0.561045 v -0.329145 q 0,-0.336627 -0.209457,-0.508681 -0.201976,-0.172053 -0.63585,-0.172053 -0.441355,0 -0.665772,0.179534 -0.216938,0.172054 -0.216938,0.463797 h -0.920112 q 0,-0.568525 0.456316,-0.957516 0.463796,-0.388991 1.346506,-0.388991 z"
         style="font-family:'AR UDJingXiHeiE1G30 EB';-inkscape-font-specification:'AR UDJingXiHeiE1G30 EB';fill:#ffffff"
         id="path28914" />
      <path
         d="m 71.841974,17.805874 v 0.890191 h -1.002399 v -0.890191 z m -0.04488,1.51856 v 4.024557 h -0.927593 v -4.024557 z"
         style="font-family:'AR UDJingXiHeiE1G30 EB';-inkscape-font-specification:'AR UDJingXiHeiE1G30 EB';fill:#ffffff"
         id="path28916" />
      <path
         d="m 73.704641,20.842994 v 2.505997 h -0.920112 v -4.024557 h 0.920112 v 0.620889 q 0.261821,-0.366549 0.590967,-0.538602 0.336626,-0.179535 0.733098,-0.179535 v 0.860268 q -0.448836,0 -0.800423,0.216937 -0.351588,0.209457 -0.523642,0.538603 z"
         style="font-family:'AR UDJingXiHeiE1G30 EB';-inkscape-font-specification:'AR UDJingXiHeiE1G30 EB';fill:#ffffff"
         id="path28918" />
      <path
         d="m 77.362638,19.227186 q 0.875229,0 1.38391,0.576006 0.51616,0.568525 0.50868,1.78038 h -2.865066 q 0.0075,0.546083 0.269301,0.852787 0.261821,0.299224 0.785462,0.299224 0.344107,0 0.576005,-0.134651 0.239379,-0.142131 0.306705,-0.38151 h 0.89019 q -0.08977,0.516161 -0.546083,0.875229 -0.456316,0.351588 -1.226817,0.351588 -0.972477,0 -1.488637,-0.546083 -0.508681,-0.546083 -0.508681,-1.548482 -0.0075,-0.950035 0.493719,-1.533521 0.50868,-0.590967 1.421312,-0.590967 z m 0,0.710656 q -0.396471,0 -0.665772,0.269302 -0.269301,0.269301 -0.291743,0.755539 h 1.885109 q -0.0075,-0.463796 -0.25434,-0.740578 -0.24686,-0.284263 -0.673254,-0.284263 z"
         style="font-family:'AR UDJingXiHeiE1G30 EB';-inkscape-font-specification:'AR UDJingXiHeiE1G30 EB';fill:#ffffff"
         id="path28920" />
    </g>
  </g>
  <style
     type="text/css"
     id="style824">
	.st0{fill:#38B035;}
	.st1{fill:#007AB0;}
</style>
</svg>
