<?xml version="1.0" encoding="UTF-8" standalone="no"?>
<!-- Created with Inkscape (http://www.inkscape.org/) -->

<svg
   width="1000"
   height="250"
   viewBox="0 0 264.58332 66.145835"
   version="1.1"
   id="svg5"
   inkscape:version="1.1 (c68e22c387, 2021-05-23)"
   sodipodi:docname="G_logo.svg"
   xmlns:inkscape="http://www.inkscape.org/namespaces/inkscape"
   xmlns:sodipodi="http://sodipodi.sourceforge.net/DTD/sodipodi-0.dtd"
   xmlns="http://www.w3.org/2000/svg"
   xmlns:svg="http://www.w3.org/2000/svg">
  <sodipodi:namedview
     id="namedview7"
     pagecolor="#505050"
     bordercolor="#ffffff"
     borderopacity="1"
     inkscape:pageshadow="0"
     inkscape:pageopacity="0"
     inkscape:pagecheckerboard="1"
     inkscape:document-units="mm"
     showgrid="false"
     units="px"
     inkscape:zoom="0.96253026"
     inkscape:cx="451.93384"
     inkscape:cy="362.586"
     inkscape:window-width="1920"
     inkscape:window-height="1009"
     inkscape:window-x="1912"
     inkscape:window-y="-8"
     inkscape:window-maximized="1"
     inkscape:current-layer="layer1" />
  <defs
     id="defs2">
    <rect
       x="229.20559"
       y="161.61933"
       width="728.57797"
       height="176.45595"
       id="rect12841" />
    <rect
       x="224.06316"
       y="51.424331"
       width="603.13395"
       height="130.76473"
       id="rect1827" />
    <clipPath
       id="clip_1791">
      <path
         transform="matrix(1,0,0,-1,0,595.276)"
         d="M 0,-0.001 H 841.89 V 595.275 H 0 Z"
         id="path17" />
    </clipPath>
    <clipPath
       id="clip_1807">
      <path
         transform="matrix(1,0,0,-1,0,595.276)"
         d="M 0,-0.001 H 841.89 V 595.275 H 0 Z"
         id="path65" />
    </clipPath>
    <clipPath
       id="clip_1791-1">
      <path
         transform="matrix(1,0,0,-1,0,595.276)"
         d="M 0,-0.001 H 841.89 V 595.275 H 0 Z"
         id="path17-1" />
    </clipPath>
    <clipPath
       id="clip_1815">
      <path
         transform="matrix(1,0,0,-1,0,595.276)"
         d="M 0,-0.001 H 841.89 V 595.275 H 0 Z"
         id="path89" />
    </clipPath>
    <clipPath
       id="clip_1809">
      <path
         transform="matrix(1,0,0,-1,0,595.276)"
         d="M 0,-0.001 H 841.89 V 595.275 H 0 Z"
         id="path71" />
    </clipPath>
    <clipPath
       id="clip_1793">
      <path
         transform="matrix(1,0,0,-1,0,595.276)"
         d="M 0,-0.001 H 841.89 V 595.275 H 0 Z"
         id="path23" />
    </clipPath>
    <clipPath
       id="clip_1799">
      <path
         transform="matrix(1,0,0,-1,0,595.276)"
         d="M 0,-0.001 H 841.89 V 595.275 H 0 Z"
         id="path41" />
    </clipPath>
    <clipPath
       id="clip_1817">
      <path
         transform="matrix(1,0,0,-1,0,595.276)"
         d="M 0,-0.001 H 841.89 V 595.275 H 0 Z"
         id="path95" />
    </clipPath>
    <clipPath
       id="clip_1803">
      <path
         transform="matrix(1,0,0,-1,0,595.276)"
         d="M 0,-0.001 H 841.89 V 595.275 H 0 Z"
         id="path53" />
    </clipPath>
    <clipPath
       id="clip_1813">
      <path
         transform="matrix(1,0,0,-1,0,595.276)"
         d="M 0,-0.001 H 841.89 V 595.275 H 0 Z"
         id="path83" />
    </clipPath>
    <clipPath
       id="clip_1805">
      <path
         transform="matrix(1,0,0,-1,0,595.276)"
         d="M 0,-0.001 H 841.89 V 595.275 H 0 Z"
         id="path59" />
    </clipPath>
    <clipPath
       id="clip_1795">
      <path
         transform="matrix(1,0,0,-1,0,595.276)"
         d="M 0,-0.001 H 841.89 V 595.275 H 0 Z"
         id="path29" />
    </clipPath>
    <clipPath
       id="clip_1801">
      <path
         transform="matrix(1,0,0,-1,0,595.276)"
         d="M 0,-0.001 H 841.89 V 595.275 H 0 Z"
         id="path47" />
    </clipPath>
    <clipPath
       id="clip_1819">
      <path
         transform="matrix(1,0,0,-1,0,595.276)"
         d="M 0,-0.001 H 841.89 V 595.275 H 0 Z"
         id="path101" />
    </clipPath>
    <clipPath
       id="clip_1827">
      <path
         transform="matrix(1,0,0,-1,0,595.276)"
         d="M 0,-0.001 H 841.89 V 595.275 H 0 Z"
         id="path125" />
    </clipPath>
    <clipPath
       id="clip_1821">
      <path
         transform="matrix(1,0,0,-1,0,595.276)"
         d="M 0,-0.001 H 841.89 V 595.275 H 0 Z"
         id="path107" />
    </clipPath>
    <clipPath
       id="clip_1811">
      <path
         transform="matrix(1,0,0,-1,0,595.276)"
         d="M 0,-0.001 H 841.89 V 595.275 H 0 Z"
         id="path77" />
    </clipPath>
    <clipPath
       id="clip_1829">
      <path
         transform="matrix(1,0,0,-1,0,595.276)"
         d="M 0,-0.001 H 841.89 V 595.275 H 0 Z"
         id="path131" />
    </clipPath>
    <clipPath
       id="clip_1825">
      <path
         transform="matrix(1,0,0,-1,0,595.276)"
         d="M 0,-0.001 H 841.89 V 595.275 H 0 Z"
         id="path119" />
    </clipPath>
    <clipPath
       id="clip_2156">
      <path
         transform="matrix(1,0,0,-1,0,595.276)"
         d="M 0,-0.001 H 841.89 V 595.275 H 0 Z"
         id="path397" />
    </clipPath>
    <clipPath
       id="clip_2087">
      <path
         transform="matrix(1,0,0,-1,0,595.276)"
         d="M 0,-0.001 H 841.89 V 595.275 H 0 Z"
         id="path70" />
    </clipPath>
    <clipPath
       id="clip_2160">
      <path
         transform="matrix(1,0,0,-1,0,595.276)"
         d="M 0,-0.001 H 841.89 V 595.275 H 0 Z"
         id="path415" />
    </clipPath>
    <clipPath
       id="clip_2125">
      <path
         transform="matrix(1,0,0,-1,0,595.276)"
         d="M 0,-0.001 H 841.89 V 595.275 H 0 Z"
         id="path252" />
    </clipPath>
    <clipPath
       id="clip_2129">
      <path
         transform="matrix(1,0,0,-1,0,595.276)"
         d="M 0,-0.001 H 841.89 V 595.275 H 0 Z"
         id="path271" />
    </clipPath>
    <clipPath
       id="clip_2131">
      <path
         transform="matrix(1,0,0,-1,0,595.276)"
         d="M 0,-0.001 H 841.89 V 595.275 H 0 Z"
         id="path278" />
    </clipPath>
    <clipPath
       id="clip_2127">
      <path
         transform="matrix(1,0,0,-1,0,595.276)"
         d="M 0,-0.001 H 841.89 V 595.275 H 0 Z"
         id="path264" />
    </clipPath>
    <clipPath
       id="clip_2135">
      <path
         transform="matrix(1,0,0,-1,0,595.276)"
         d="M 0,-0.001 H 841.89 V 595.275 H 0 Z"
         id="path294" />
    </clipPath>
    <clipPath
       id="clip_2133">
      <path
         transform="matrix(1,0,0,-1,0,595.276)"
         d="M 0,-0.001 H 841.89 V 595.275 H 0 Z"
         id="path286" />
    </clipPath>
    <clipPath
       id="clip_2137">
      <path
         transform="matrix(1,0,0,-1,0,595.276)"
         d="M 0,-0.001 H 841.89 V 595.275 H 0 Z"
         id="path303" />
    </clipPath>
    <clipPath
       id="clip_2146">
      <path
         transform="matrix(1,0,0,-1,0,595.276)"
         d="M 0,-0.001 H 841.89 V 595.275 H 0 Z"
         id="path345" />
    </clipPath>
    <clipPath
       id="clip_2141">
      <path
         transform="matrix(1,0,0,-1,0,595.276)"
         d="M 0,-0.001 H 841.89 V 595.275 H 0 Z"
         id="path322" />
    </clipPath>
    <clipPath
       id="clip_2143">
      <path
         transform="matrix(1,0,0,-1,0,595.276)"
         d="M 0,-0.001 H 841.89 V 595.275 H 0 Z"
         id="path330" />
    </clipPath>
    <clipPath
       id="clip_2123">
      <path
         transform="matrix(1,0,0,-1,0,595.276)"
         d="M 0,-0.001 H 841.89 V 595.275 H 0 Z"
         id="path241" />
    </clipPath>
    <clipPath
       id="clip_2208">
      <path
         transform="matrix(1,0,0,-1,0,595.276)"
         d="m -69.189,-0.001 h 841.89 v 595.276 h -841.89 z"
         id="path200" />
    </clipPath>
    <clipPath
       id="clip_2212">
      <path
         transform="matrix(1,0,0,-1,0,595.276)"
         d="m -69.189,-0.001 h 841.89 v 595.276 h -841.89 z"
         id="path214" />
    </clipPath>
    <clipPath
       id="clip_2206">
      <path
         transform="matrix(1,0,0,-1,0,595.276)"
         d="m -69.189,-0.001 h 841.89 v 595.276 h -841.89 z"
         id="path194" />
    </clipPath>
    <clipPath
       id="clip_2198">
      <path
         transform="matrix(1,0,0,-1,0,595.276)"
         d="m -69.189,-0.001 h 841.89 v 595.276 h -841.89 z"
         id="path162" />
    </clipPath>
    <clipPath
       id="clip_2200">
      <path
         transform="matrix(1,0,0,-1,0,595.276)"
         d="m -69.189,-0.001 h 841.89 v 595.276 h -841.89 z"
         id="path171" />
    </clipPath>
    <clipPath
       id="clip_2202">
      <path
         transform="matrix(1,0,0,-1,0,595.276)"
         d="m -69.189,-0.001 h 841.89 v 595.276 h -841.89 z"
         id="path177" />
    </clipPath>
    <clipPath
       id="clip_2189">
      <path
         transform="matrix(1,0,0,-1,0,595.276)"
         d="m -69.189,-0.001 h 841.89 v 595.276 h -841.89 z"
         id="path112" />
    </clipPath>
    <clipPath
       id="clip_2191">
      <path
         transform="matrix(1,0,0,-1,0,595.276)"
         d="m -69.189,-0.001 h 841.89 v 595.276 h -841.89 z"
         id="path122" />
    </clipPath>
    <clipPath
       id="clip_2195">
      <path
         transform="matrix(1,0,0,-1,0,595.276)"
         d="m -69.189,-0.001 h 841.89 v 595.276 h -841.89 z"
         id="path143" />
    </clipPath>
    <clipPath
       id="clip_2195-0">
      <path
         transform="matrix(1,0,0,-1,0,595.276)"
         d="m -69.189,-0.001 h 841.89 v 595.276 h -841.89 z"
         id="path143-0" />
    </clipPath>
    <clipPath
       id="clip_2169">
      <path
         transform="matrix(1,0,0,-1,0,595.276)"
         d="m -69.189,-0.001 h 841.89 v 595.276 h -841.89 z"
         id="path21" />
    </clipPath>
    <clipPath
       id="clip_1791-0">
      <path
         transform="matrix(1,0,0,-1,0,595.276)"
         d="M 0,-0.001 H 841.89 V 595.275 H 0 Z"
         id="path17-0" />
    </clipPath>
    <clipPath
       id="clip_1807-5">
      <path
         transform="matrix(1,0,0,-1,0,595.276)"
         d="M 0,-0.001 H 841.89 V 595.275 H 0 Z"
         id="path65-3" />
    </clipPath>
    <clipPath
       id="clip_1791-1-8">
      <path
         transform="matrix(1,0,0,-1,0,595.276)"
         d="M 0,-0.001 H 841.89 V 595.275 H 0 Z"
         id="path17-1-6" />
    </clipPath>
    <clipPath
       id="clip_1815-8">
      <path
         transform="matrix(1,0,0,-1,0,595.276)"
         d="M 0,-0.001 H 841.89 V 595.275 H 0 Z"
         id="path89-6" />
    </clipPath>
    <clipPath
       id="clip_1809-6">
      <path
         transform="matrix(1,0,0,-1,0,595.276)"
         d="M 0,-0.001 H 841.89 V 595.275 H 0 Z"
         id="path71-5" />
    </clipPath>
    <clipPath
       id="clip_1793-7">
      <path
         transform="matrix(1,0,0,-1,0,595.276)"
         d="M 0,-0.001 H 841.89 V 595.275 H 0 Z"
         id="path23-6" />
    </clipPath>
    <clipPath
       id="clip_1799-5">
      <path
         transform="matrix(1,0,0,-1,0,595.276)"
         d="M 0,-0.001 H 841.89 V 595.275 H 0 Z"
         id="path41-3" />
    </clipPath>
    <clipPath
       id="clip_1817-6">
      <path
         transform="matrix(1,0,0,-1,0,595.276)"
         d="M 0,-0.001 H 841.89 V 595.275 H 0 Z"
         id="path95-8" />
    </clipPath>
    <clipPath
       id="clip_1803-1">
      <path
         transform="matrix(1,0,0,-1,0,595.276)"
         d="M 0,-0.001 H 841.89 V 595.275 H 0 Z"
         id="path53-4" />
    </clipPath>
    <clipPath
       id="clip_1813-3">
      <path
         transform="matrix(1,0,0,-1,0,595.276)"
         d="M 0,-0.001 H 841.89 V 595.275 H 0 Z"
         id="path83-5" />
    </clipPath>
    <clipPath
       id="clip_1805-8">
      <path
         transform="matrix(1,0,0,-1,0,595.276)"
         d="M 0,-0.001 H 841.89 V 595.275 H 0 Z"
         id="path59-0" />
    </clipPath>
    <clipPath
       id="clip_1795-9">
      <path
         transform="matrix(1,0,0,-1,0,595.276)"
         d="M 0,-0.001 H 841.89 V 595.275 H 0 Z"
         id="path29-1" />
    </clipPath>
    <clipPath
       id="clip_1801-6">
      <path
         transform="matrix(1,0,0,-1,0,595.276)"
         d="M 0,-0.001 H 841.89 V 595.275 H 0 Z"
         id="path47-2" />
    </clipPath>
    <clipPath
       id="clip_1819-9">
      <path
         transform="matrix(1,0,0,-1,0,595.276)"
         d="M 0,-0.001 H 841.89 V 595.275 H 0 Z"
         id="path101-6" />
    </clipPath>
    <clipPath
       id="clip_1827-4">
      <path
         transform="matrix(1,0,0,-1,0,595.276)"
         d="M 0,-0.001 H 841.89 V 595.275 H 0 Z"
         id="path125-5" />
    </clipPath>
    <clipPath
       id="clip_1821-6">
      <path
         transform="matrix(1,0,0,-1,0,595.276)"
         d="M 0,-0.001 H 841.89 V 595.275 H 0 Z"
         id="path107-8" />
    </clipPath>
    <clipPath
       id="clip_1811-1">
      <path
         transform="matrix(1,0,0,-1,0,595.276)"
         d="M 0,-0.001 H 841.89 V 595.275 H 0 Z"
         id="path77-3" />
    </clipPath>
    <clipPath
       id="clip_1829-1">
      <path
         transform="matrix(1,0,0,-1,0,595.276)"
         d="M 0,-0.001 H 841.89 V 595.275 H 0 Z"
         id="path131-8" />
    </clipPath>
    <clipPath
       id="clip_1825-5">
      <path
         transform="matrix(1,0,0,-1,0,595.276)"
         d="M 0,-0.001 H 841.89 V 595.275 H 0 Z"
         id="path119-2" />
    </clipPath>
    <clipPath
       id="clip_2156-4">
      <path
         transform="matrix(1,0,0,-1,0,595.276)"
         d="M 0,-0.001 H 841.89 V 595.275 H 0 Z"
         id="path397-3" />
    </clipPath>
    <clipPath
       id="clip_2087-1">
      <path
         transform="matrix(1,0,0,-1,0,595.276)"
         d="M 0,-0.001 H 841.89 V 595.275 H 0 Z"
         id="path70-2" />
    </clipPath>
    <clipPath
       id="clip_2160-0">
      <path
         transform="matrix(1,0,0,-1,0,595.276)"
         d="M 0,-0.001 H 841.89 V 595.275 H 0 Z"
         id="path415-2" />
    </clipPath>
    <clipPath
       id="clip_2125-3">
      <path
         transform="matrix(1,0,0,-1,0,595.276)"
         d="M 0,-0.001 H 841.89 V 595.275 H 0 Z"
         id="path252-2" />
    </clipPath>
    <clipPath
       id="clip_2129-7">
      <path
         transform="matrix(1,0,0,-1,0,595.276)"
         d="M 0,-0.001 H 841.89 V 595.275 H 0 Z"
         id="path271-3" />
    </clipPath>
    <clipPath
       id="clip_2131-8">
      <path
         transform="matrix(1,0,0,-1,0,595.276)"
         d="M 0,-0.001 H 841.89 V 595.275 H 0 Z"
         id="path278-2" />
    </clipPath>
    <clipPath
       id="clip_2127-5">
      <path
         transform="matrix(1,0,0,-1,0,595.276)"
         d="M 0,-0.001 H 841.89 V 595.275 H 0 Z"
         id="path264-7" />
    </clipPath>
    <clipPath
       id="clip_2135-0">
      <path
         transform="matrix(1,0,0,-1,0,595.276)"
         d="M 0,-0.001 H 841.89 V 595.275 H 0 Z"
         id="path294-9" />
    </clipPath>
    <clipPath
       id="clip_2133-9">
      <path
         transform="matrix(1,0,0,-1,0,595.276)"
         d="M 0,-0.001 H 841.89 V 595.275 H 0 Z"
         id="path286-9" />
    </clipPath>
    <clipPath
       id="clip_2137-9">
      <path
         transform="matrix(1,0,0,-1,0,595.276)"
         d="M 0,-0.001 H 841.89 V 595.275 H 0 Z"
         id="path303-1" />
    </clipPath>
    <clipPath
       id="clip_2146-0">
      <path
         transform="matrix(1,0,0,-1,0,595.276)"
         d="M 0,-0.001 H 841.89 V 595.275 H 0 Z"
         id="path345-2" />
    </clipPath>
    <clipPath
       id="clip_2141-7">
      <path
         transform="matrix(1,0,0,-1,0,595.276)"
         d="M 0,-0.001 H 841.89 V 595.275 H 0 Z"
         id="path322-0" />
    </clipPath>
    <clipPath
       id="clip_2143-2">
      <path
         transform="matrix(1,0,0,-1,0,595.276)"
         d="M 0,-0.001 H 841.89 V 595.275 H 0 Z"
         id="path330-1" />
    </clipPath>
    <clipPath
       id="clip_2123-6">
      <path
         transform="matrix(1,0,0,-1,0,595.276)"
         d="M 0,-0.001 H 841.89 V 595.275 H 0 Z"
         id="path241-9" />
    </clipPath>
    <clipPath
       id="clip_2208-8">
      <path
         transform="matrix(1,0,0,-1,0,595.276)"
         d="m -69.189,-0.001 h 841.89 v 595.276 h -841.89 z"
         id="path200-1" />
    </clipPath>
    <clipPath
       id="clip_2212-3">
      <path
         transform="matrix(1,0,0,-1,0,595.276)"
         d="m -69.189,-0.001 h 841.89 v 595.276 h -841.89 z"
         id="path214-2" />
    </clipPath>
    <clipPath
       id="clip_2206-4">
      <path
         transform="matrix(1,0,0,-1,0,595.276)"
         d="m -69.189,-0.001 h 841.89 v 595.276 h -841.89 z"
         id="path194-2" />
    </clipPath>
    <clipPath
       id="clip_2198-7">
      <path
         transform="matrix(1,0,0,-1,0,595.276)"
         d="m -69.189,-0.001 h 841.89 v 595.276 h -841.89 z"
         id="path162-6" />
    </clipPath>
    <clipPath
       id="clip_2200-1">
      <path
         transform="matrix(1,0,0,-1,0,595.276)"
         d="m -69.189,-0.001 h 841.89 v 595.276 h -841.89 z"
         id="path171-3" />
    </clipPath>
    <clipPath
       id="clip_2202-5">
      <path
         transform="matrix(1,0,0,-1,0,595.276)"
         d="m -69.189,-0.001 h 841.89 v 595.276 h -841.89 z"
         id="path177-4" />
    </clipPath>
    <clipPath
       id="clip_2189-9">
      <path
         transform="matrix(1,0,0,-1,0,595.276)"
         d="m -69.189,-0.001 h 841.89 v 595.276 h -841.89 z"
         id="path112-0" />
    </clipPath>
    <clipPath
       id="clip_2191-7">
      <path
         transform="matrix(1,0,0,-1,0,595.276)"
         d="m -69.189,-0.001 h 841.89 v 595.276 h -841.89 z"
         id="path122-0" />
    </clipPath>
    <clipPath
       id="clip_2195-6">
      <path
         transform="matrix(1,0,0,-1,0,595.276)"
         d="m -69.189,-0.001 h 841.89 v 595.276 h -841.89 z"
         id="path143-8" />
    </clipPath>
    <clipPath
       id="clip_2195-0-8">
      <path
         transform="matrix(1,0,0,-1,0,595.276)"
         d="m -69.189,-0.001 h 841.89 v 595.276 h -841.89 z"
         id="path143-0-7" />
    </clipPath>
    <clipPath
       id="clip_2169-7">
      <path
         transform="matrix(1,0,0,-1,0,595.276)"
         d="m -69.189,-0.001 h 841.89 v 595.276 h -841.89 z"
         id="path21-9" />
    </clipPath>
    <clipPath
       id="clip_1791-8">
      <path
         transform="matrix(1,0,0,-1,0,595.276)"
         d="M 0,-0.001 H 841.89 V 595.275 H 0 Z"
         id="path17-8" />
    </clipPath>
    <clipPath
       id="clip_1807-4">
      <path
         transform="matrix(1,0,0,-1,0,595.276)"
         d="M 0,-0.001 H 841.89 V 595.275 H 0 Z"
         id="path65-8" />
    </clipPath>
    <clipPath
       id="clip_1791-1-6">
      <path
         transform="matrix(1,0,0,-1,0,595.276)"
         d="M 0,-0.001 H 841.89 V 595.275 H 0 Z"
         id="path17-1-65" />
    </clipPath>
    <clipPath
       id="clip_1815-5">
      <path
         transform="matrix(1,0,0,-1,0,595.276)"
         d="M 0,-0.001 H 841.89 V 595.275 H 0 Z"
         id="path89-7" />
    </clipPath>
    <clipPath
       id="clip_1809-9">
      <path
         transform="matrix(1,0,0,-1,0,595.276)"
         d="M 0,-0.001 H 841.89 V 595.275 H 0 Z"
         id="path71-0" />
    </clipPath>
    <clipPath
       id="clip_1793-6">
      <path
         transform="matrix(1,0,0,-1,0,595.276)"
         d="M 0,-0.001 H 841.89 V 595.275 H 0 Z"
         id="path23-5" />
    </clipPath>
    <clipPath
       id="clip_1799-0">
      <path
         transform="matrix(1,0,0,-1,0,595.276)"
         d="M 0,-0.001 H 841.89 V 595.275 H 0 Z"
         id="path41-4" />
    </clipPath>
    <clipPath
       id="clip_1817-9">
      <path
         transform="matrix(1,0,0,-1,0,595.276)"
         d="M 0,-0.001 H 841.89 V 595.275 H 0 Z"
         id="path95-0" />
    </clipPath>
    <clipPath
       id="clip_1803-9">
      <path
         transform="matrix(1,0,0,-1,0,595.276)"
         d="M 0,-0.001 H 841.89 V 595.275 H 0 Z"
         id="path53-8" />
    </clipPath>
    <clipPath
       id="clip_1813-0">
      <path
         transform="matrix(1,0,0,-1,0,595.276)"
         d="M 0,-0.001 H 841.89 V 595.275 H 0 Z"
         id="path83-3" />
    </clipPath>
    <clipPath
       id="clip_1805-3">
      <path
         transform="matrix(1,0,0,-1,0,595.276)"
         d="M 0,-0.001 H 841.89 V 595.275 H 0 Z"
         id="path59-4" />
    </clipPath>
    <clipPath
       id="clip_1795-2">
      <path
         transform="matrix(1,0,0,-1,0,595.276)"
         d="M 0,-0.001 H 841.89 V 595.275 H 0 Z"
         id="path29-4" />
    </clipPath>
    <clipPath
       id="clip_1801-5">
      <path
         transform="matrix(1,0,0,-1,0,595.276)"
         d="M 0,-0.001 H 841.89 V 595.275 H 0 Z"
         id="path47-6" />
    </clipPath>
    <clipPath
       id="clip_1819-3">
      <path
         transform="matrix(1,0,0,-1,0,595.276)"
         d="M 0,-0.001 H 841.89 V 595.275 H 0 Z"
         id="path101-8" />
    </clipPath>
    <clipPath
       id="clip_1827-40">
      <path
         transform="matrix(1,0,0,-1,0,595.276)"
         d="M 0,-0.001 H 841.89 V 595.275 H 0 Z"
         id="path125-2" />
    </clipPath>
    <clipPath
       id="clip_1821-7">
      <path
         transform="matrix(1,0,0,-1,0,595.276)"
         d="M 0,-0.001 H 841.89 V 595.275 H 0 Z"
         id="path107-1" />
    </clipPath>
    <clipPath
       id="clip_1811-18">
      <path
         transform="matrix(1,0,0,-1,0,595.276)"
         d="M 0,-0.001 H 841.89 V 595.275 H 0 Z"
         id="path77-4" />
    </clipPath>
    <clipPath
       id="clip_1829-5">
      <path
         transform="matrix(1,0,0,-1,0,595.276)"
         d="M 0,-0.001 H 841.89 V 595.275 H 0 Z"
         id="path131-7" />
    </clipPath>
    <clipPath
       id="clip_1825-2">
      <path
         transform="matrix(1,0,0,-1,0,595.276)"
         d="M 0,-0.001 H 841.89 V 595.275 H 0 Z"
         id="path119-9" />
    </clipPath>
    <clipPath
       id="clip_2156-8">
      <path
         transform="matrix(1,0,0,-1,0,595.276)"
         d="M 0,-0.001 H 841.89 V 595.275 H 0 Z"
         id="path397-0" />
    </clipPath>
    <clipPath
       id="clip_2087-12">
      <path
         transform="matrix(1,0,0,-1,0,595.276)"
         d="M 0,-0.001 H 841.89 V 595.275 H 0 Z"
         id="path70-20" />
    </clipPath>
    <clipPath
       id="clip_2160-7">
      <path
         transform="matrix(1,0,0,-1,0,595.276)"
         d="M 0,-0.001 H 841.89 V 595.275 H 0 Z"
         id="path415-1" />
    </clipPath>
    <clipPath
       id="clip_2125-0">
      <path
         transform="matrix(1,0,0,-1,0,595.276)"
         d="M 0,-0.001 H 841.89 V 595.275 H 0 Z"
         id="path252-8" />
    </clipPath>
    <clipPath
       id="clip_2129-8">
      <path
         transform="matrix(1,0,0,-1,0,595.276)"
         d="M 0,-0.001 H 841.89 V 595.275 H 0 Z"
         id="path271-0" />
    </clipPath>
    <clipPath
       id="clip_2131-9">
      <path
         transform="matrix(1,0,0,-1,0,595.276)"
         d="M 0,-0.001 H 841.89 V 595.275 H 0 Z"
         id="path278-7" />
    </clipPath>
    <clipPath
       id="clip_2127-9">
      <path
         transform="matrix(1,0,0,-1,0,595.276)"
         d="M 0,-0.001 H 841.89 V 595.275 H 0 Z"
         id="path264-0" />
    </clipPath>
    <clipPath
       id="clip_2135-03">
      <path
         transform="matrix(1,0,0,-1,0,595.276)"
         d="M 0,-0.001 H 841.89 V 595.275 H 0 Z"
         id="path294-1" />
    </clipPath>
    <clipPath
       id="clip_2133-97">
      <path
         transform="matrix(1,0,0,-1,0,595.276)"
         d="M 0,-0.001 H 841.89 V 595.275 H 0 Z"
         id="path286-1" />
    </clipPath>
    <clipPath
       id="clip_2137-4">
      <path
         transform="matrix(1,0,0,-1,0,595.276)"
         d="M 0,-0.001 H 841.89 V 595.275 H 0 Z"
         id="path303-9" />
    </clipPath>
    <clipPath
       id="clip_2146-1">
      <path
         transform="matrix(1,0,0,-1,0,595.276)"
         d="M 0,-0.001 H 841.89 V 595.275 H 0 Z"
         id="path345-6" />
    </clipPath>
    <clipPath
       id="clip_2141-78">
      <path
         transform="matrix(1,0,0,-1,0,595.276)"
         d="M 0,-0.001 H 841.89 V 595.275 H 0 Z"
         id="path322-3" />
    </clipPath>
    <clipPath
       id="clip_2143-1">
      <path
         transform="matrix(1,0,0,-1,0,595.276)"
         d="M 0,-0.001 H 841.89 V 595.275 H 0 Z"
         id="path330-7" />
    </clipPath>
    <clipPath
       id="clip_2123-5">
      <path
         transform="matrix(1,0,0,-1,0,595.276)"
         d="M 0,-0.001 H 841.89 V 595.275 H 0 Z"
         id="path241-6" />
    </clipPath>
    <clipPath
       id="clip_2208-0">
      <path
         transform="matrix(1,0,0,-1,0,595.276)"
         d="m -69.189,-0.001 h 841.89 v 595.276 h -841.89 z"
         id="path200-7" />
    </clipPath>
    <clipPath
       id="clip_2212-1">
      <path
         transform="matrix(1,0,0,-1,0,595.276)"
         d="m -69.189,-0.001 h 841.89 v 595.276 h -841.89 z"
         id="path214-8" />
    </clipPath>
    <clipPath
       id="clip_2206-3">
      <path
         transform="matrix(1,0,0,-1,0,595.276)"
         d="m -69.189,-0.001 h 841.89 v 595.276 h -841.89 z"
         id="path194-5" />
    </clipPath>
    <clipPath
       id="clip_2198-1">
      <path
         transform="matrix(1,0,0,-1,0,595.276)"
         d="m -69.189,-0.001 h 841.89 v 595.276 h -841.89 z"
         id="path162-4" />
    </clipPath>
    <clipPath
       id="clip_2200-15">
      <path
         transform="matrix(1,0,0,-1,0,595.276)"
         d="m -69.189,-0.001 h 841.89 v 595.276 h -841.89 z"
         id="path171-6" />
    </clipPath>
    <clipPath
       id="clip_2202-7">
      <path
         transform="matrix(1,0,0,-1,0,595.276)"
         d="m -69.189,-0.001 h 841.89 v 595.276 h -841.89 z"
         id="path177-0" />
    </clipPath>
    <clipPath
       id="clip_2189-6">
      <path
         transform="matrix(1,0,0,-1,0,595.276)"
         d="m -69.189,-0.001 h 841.89 v 595.276 h -841.89 z"
         id="path112-9" />
    </clipPath>
    <clipPath
       id="clip_2191-2">
      <path
         transform="matrix(1,0,0,-1,0,595.276)"
         d="m -69.189,-0.001 h 841.89 v 595.276 h -841.89 z"
         id="path122-2" />
    </clipPath>
    <clipPath
       id="clip_2195-9">
      <path
         transform="matrix(1,0,0,-1,0,595.276)"
         d="m -69.189,-0.001 h 841.89 v 595.276 h -841.89 z"
         id="path143-81" />
    </clipPath>
    <clipPath
       id="clip_2195-0-82">
      <path
         transform="matrix(1,0,0,-1,0,595.276)"
         d="m -69.189,-0.001 h 841.89 v 595.276 h -841.89 z"
         id="path143-0-4" />
    </clipPath>
    <clipPath
       id="clip_2169-2">
      <path
         transform="matrix(1,0,0,-1,0,595.276)"
         d="m -69.189,-0.001 h 841.89 v 595.276 h -841.89 z"
         id="path21-7" />
    </clipPath>
    <clipPath
       id="clip_1832">
      <path
         transform="matrix(1,0,0,-1,0,595.276)"
         d="M 68.598,29.763 H 826.299 V 565.511 H 68.598 Z"
         id="path8" />
    </clipPath>
  </defs>
  <g
     inkscape:label="Layer 1"
     inkscape:groupmode="layer"
     id="layer1">
    <g
       aria-label="松山新店線"
       transform="matrix(0.26458333,0,0,0.26458333,0.97185864,-6.414267)"
       id="text1825"
       style="font-size:110px;line-height:1.25;font-family:'Noto Sans TC';-inkscape-font-specification:'Noto Sans TC';white-space:pre;shape-inside:url(#rect1827)">
      <path
         d="m 228.7925,90.913828 h 38.83 v 11.000002 h -38.83 z m 14.96,-22.11 h 10.67 V 171.43383 h -10.67 z m -0.11,30.03 6.49,2.640002 q -1.21,6.82 -3.08,13.97 -1.87,7.15 -4.18,14.08 -2.2,6.82 -4.95,12.76 -2.64,5.83 -5.5,10.12 -0.55,-1.76 -1.54,-3.85 -0.99,-2.2 -2.09,-4.29 -1.1,-2.2 -2.2,-3.74 2.75,-3.52 5.28,-8.36 2.64,-4.84 4.84,-10.45 2.31,-5.72 4.07,-11.55 1.76,-5.94 2.86,-11.330002 z m 10.34,6.710002 q 0.99,1.21 2.97,4.07 2.09,2.75 4.4,6.16 2.31,3.3 4.18,6.16 1.98,2.75 2.75,4.07 l -6.93,8.14 q -0.88,-2.31 -2.53,-5.61 -1.65,-3.41 -3.52,-6.93 -1.87,-3.52 -3.74,-6.6 -1.76,-3.19 -2.97,-5.17 z m 16.94,61.71 q -0.22,-1.21 -0.88,-3.19 -0.66,-1.98 -1.43,-4.18 -0.77,-2.2 -1.43,-3.74 1.87,-0.55 3.52,-2.86 1.65,-2.42 3.74,-6.27 1.1,-1.98 2.97,-6.16 1.98,-4.29 4.29,-10.12 2.31,-5.94 4.62,-12.54 2.31,-6.71 4.07,-13.53 l 11.88,2.97 q -2.97,9.79 -6.82,19.36 -3.85,9.57 -8.03,18.15 -4.18,8.58 -8.36,15.51 v 0.22 q 0,0 -1.21,0.66 -1.21,0.66 -2.86,1.65 -1.65,1.1 -2.86,2.2 -1.21,1.1 -1.21,1.87 z m 0,0 -0.44,-9.46 6.05,-3.96 42.24,-4.84 q 0.11,2.42 0.66,5.39 0.55,2.97 0.99,4.84 -12.1,1.54 -20.35,2.75 -8.14,1.1 -13.42,1.87 -5.28,0.77 -8.36,1.32 -2.97,0.55 -4.62,0.99 -1.65,0.55 -2.75,1.1 z m 32.89,-33.11 10.12,-4.18 q 2.64,5.5 5.61,11.99 2.97,6.49 5.61,12.54 2.64,5.94 4.18,10.34 l -10.89,5.17 q -1.43,-4.62 -3.96,-10.78 -2.42,-6.16 -5.28,-12.76 -2.75,-6.71 -5.39,-12.32 z m -23.43,-61.600002 11.11,2.2 q -1.65,9.24 -4.18,18.15 -2.42,8.910002 -5.72,16.830002 -3.19,7.92 -7.37,13.86 -0.66,-1.21 -2.09,-2.97 -1.43,-1.87 -3.08,-3.63 -1.54,-1.76 -2.75,-2.75 3.63,-5.06 6.27,-11.66 2.75,-6.710002 4.62,-14.300002 1.98,-7.7 3.19,-15.73 z m 20.24,-0.77 h 12.1 q 1.43,8.03 3.85,15.95 2.53,7.92 5.83,14.740002 3.3,6.82 7.26,11.44 -1.32,0.99 -2.97,2.75 -1.65,1.65 -3.19,3.41 -1.54,1.76 -2.64,3.3 -4.07,-5.83 -7.59,-13.31 -3.41,-7.59 -6.05,-15.950002 -2.53,-8.47 -4.29,-16.72 h -2.31 z m -6.16,0 h 16.17 v 10.01 h -16.17 z"
         style="font-weight:600;-inkscape-font-specification:'Noto Sans TC Semi-Bold';fill:#ffffff"
         id="path1100" />
      <path
         d="m 382.68229,69.793828 h 12.54 v 86.900002 h -12.54 z m 38.72,22.22 h 12.32 v 79.310002 h -12.32 z m -76.56,0.33 h 12.1 v 58.850002 h 70.4 v 12.1 h -82.5 z"
         style="font-weight:600;-inkscape-font-specification:'Noto Sans TC Semi-Bold';fill:#ffffff"
         id="path1102" />
      <path
         d="m 509.84207,105.43383 h 40.37 v 10.89 h -40.37 z m -59.62,-25.520002 h 49.17 v 9.68 h -49.17 z m -1.1,43.780002 h 50.38 v 10.01 h -50.38 z m -0.66,-19.14 h 52.69 v 9.79 h -52.69 z m 79.53,5.61 h 11.44 v 60.83 h -11.44 z m -71.61,-18.370002 9.46,-2.31 q 1.32,3.08 2.31,6.71 1.1,3.52 1.54,6.050002 l -9.79,2.75 q -0.33,-2.64 -1.32,-6.380002 -0.99,-3.74 -2.2,-6.82 z m 27.17,-2.42 10.67,2.09 q -1.76,4.51 -3.52,8.910002 -1.76,4.4 -3.3,7.59 l -9.57,-2.09 q 0.99,-2.31 1.98,-5.17 1.1,-2.970002 2.09,-5.940002 0.99,-2.97 1.65,-5.39 z m 55.55,-19.25 9.24,8.69 q -5.61,2.09 -12.32,3.96 -6.71,1.76 -13.64,3.19 -6.93,1.32 -13.53,2.31 -0.33,-1.98 -1.43,-4.51 -0.99,-2.64 -2.09,-4.4 6.16,-1.1 12.43,-2.53 6.27,-1.43 11.77,-3.19 5.61,-1.76 9.57,-3.52 z m -73.04,0.66 11.88,-2.86 q 1.76,3.41 3.52,7.59 1.76,4.18 2.53,7.15 l -12.32,3.41 q -0.66,-3.08 -2.31,-7.37 -1.65,-4.4 -3.3,-7.92 z m 39.27,8.58 h 11 v 39.050002 q 0,6.05 -0.44,12.98 -0.33,6.93 -1.54,14.08 -1.1,7.15 -3.3,13.75 -2.2,6.6 -5.83,11.88 -0.88,-1.1 -2.64,-2.53 -1.65,-1.32 -3.41,-2.64 -1.76,-1.21 -2.97,-1.76 4.18,-6.38 6.16,-14.3 1.98,-7.92 2.42,-16.06 0.55,-8.25 0.55,-15.4 z m -20.68,61.600002 7.7,-4.29 q 2.64,3.85 5.17,8.47 2.53,4.51 3.96,7.7 l -8.14,4.95 q -1.32,-3.41 -3.85,-8.14 -2.53,-4.84 -4.84,-8.69 z m -27.28,-3.19 9.24,2.64 q -2.09,5.83 -5.17,12.1 -3.08,6.16 -6.16,10.45 -1.32,-1.21 -3.74,-2.86 -2.42,-1.65 -4.07,-2.53 2.97,-3.96 5.61,-9.24 2.64,-5.39 4.29,-10.56 z m 12.65,-27.83 h 11.55 v 60.83 h -11.55 z"
         style="font-weight:600;-inkscape-font-specification:'Noto Sans TC Semi-Bold';fill:#ffffff"
         id="path1104" />
      <path
         d="m 615.11186,107.19383 h 40.92 v 10.67 h -40.92 z m -22.66,48.18 h 52.47 v 10.45 h -52.47 z m 17.05,-59.290002 h 12.1 v 40.700002 h -12.1 z m -23.32,33.220002 h 64.68 v 40.7 h -12.1 v -29.81 h -41.03 v 29.92 h -11.55 z m -13.86,-47.850002 h 86.57 v 11.22 h -86.57 z m -5.5,0 h 12.1 v 28.270002 q 0,6.6 -0.44,14.63 -0.33,8.03 -1.65,16.5 -1.21,8.47 -3.63,16.39 -2.31,7.92 -6.05,14.3 -1.1,-1.1 -3.08,-2.42 -1.98,-1.32 -3.96,-2.64 -1.98,-1.21 -3.52,-1.76 3.63,-5.94 5.61,-12.98 2.09,-7.04 3.08,-14.41 0.99,-7.48 1.21,-14.52 0.33,-7.15 0.33,-13.2 z m 37.51,-10.12 11.77,-2.42 q 2.31,3.52 4.18,7.81 1.87,4.29 2.53,7.59 l -12.54,2.97 q -0.55,-3.3 -2.2,-7.81 -1.65,-4.51 -3.74,-8.14 z"
         style="font-weight:600;-inkscape-font-specification:'Noto Sans TC Semi-Bold';fill:#ffffff"
         id="path1106" />
      <path
         d="m 733.14165,68.693828 13.31,2.53 q -2.09,4.18 -4.29,8.25 -2.09,3.96 -3.96,6.82 l -10.01,-2.53 q 1.54,-3.19 2.86,-7.37 1.32,-4.29 2.09,-7.7 z m -8.69,35.860002 v 6.82 h 29.81 v -6.82 z m 0,-15.070002 v 6.71 h 29.81 v -6.71 z m -10.89,-9.02 h 52.14 v 39.930002 h -52.14 z m 21.23,35.860002 h 11.22 v 43.23 q 0,4.07 -0.99,6.49 -0.88,2.42 -3.52,3.85 -2.64,1.32 -6.49,1.54 -3.85,0.33 -9.13,0.33 -0.33,-2.42 -1.21,-5.5 -0.88,-3.08 -1.98,-5.28 3.3,0.11 6.27,0.11 2.97,0 4.07,-0.11 0.99,0 1.32,-0.33 0.44,-0.33 0.44,-1.21 z m -25.19,11.55 h 16.06 v 9.57 h -16.06 z m 13.42,0 h 1.98 l 1.76,-0.33 6.93,2.31 q -1.87,8.58 -5.28,15.51 -3.3,6.93 -7.92,12.21 -4.62,5.17 -10.45,8.69 -1.1,-1.87 -3.08,-4.29 -1.87,-2.42 -3.52,-3.96 4.73,-2.53 8.58,-6.93 3.96,-4.4 6.82,-9.9 2.97,-5.5 4.18,-11.66 z m 37.51,-5.17 8.69,7.26 q -4.51,3.74 -9.13,7.59 -4.62,3.85 -8.58,6.49 l -6.38,-5.83 q 2.42,-2.09 5.28,-4.73 2.86,-2.64 5.5,-5.5 2.75,-2.97 4.62,-5.28 z m -15.07,-0.33 q 2.2,7.48 5.83,14.41 3.63,6.93 8.58,12.43 5.06,5.39 11.11,8.69 -1.21,1.1 -2.64,2.75 -1.43,1.54 -2.75,3.3 -1.32,1.76 -2.2,3.3 -6.38,-4.29 -11.44,-10.78 -4.95,-6.6 -8.58,-14.85 -3.63,-8.25 -5.94,-17.38 z m -52.25,-8.8 8.69,-2.31 q 1.21,3.63 2.42,7.92 1.32,4.29 2.2,8.36 0.99,3.96 1.32,6.93 l -9.13,2.86 q -0.44,-3.08 -1.32,-7.15 -0.77,-4.18 -1.87,-8.47 -1.1,-4.4 -2.31,-8.14 z m -9.57,28.71 8.36,-1.54 q 0.99,5.61 1.65,12.1 0.77,6.49 0.88,11.33 l -8.91,1.65 q 0,-4.84 -0.66,-11.44 -0.55,-6.6 -1.32,-12.1 z m -11.55,-1.32 9.13,1.43 q -0.66,7.48 -1.98,15.07 -1.32,7.48 -3.08,12.76 -1.1,-0.55 -2.75,-1.21 -1.54,-0.55 -3.3,-1.1 -1.65,-0.55 -2.75,-0.88 1.87,-5.06 2.97,-12.1 1.21,-7.04 1.76,-13.97 z m -1.54,-29.15 q -0.22,-1.1 -0.88,-2.97 -0.66,-1.98 -1.43,-3.96 -0.66,-2.09 -1.32,-3.52 1.54,-0.33 2.97,-1.870002 1.54,-1.54 3.08,-3.96 1.21,-1.65 3.41,-5.83 2.31,-4.18 4.84,-9.79 2.64,-5.61 4.51,-11.44 l 10.78,4.4 q -2.53,5.94 -5.72,11.88 -3.19,5.94 -6.71,11.44 -3.41,5.390002 -6.82,9.790002 v 0.22 q 0,0 -0.99,0.66 -0.99,0.55 -2.42,1.43 -1.32,0.77 -2.31,1.76 -0.99,0.88 -0.99,1.76 z m 0,0 -0.33,-8.25 4.95,-3.19 19.14,-1.430002 q -0.44,2.200002 -0.77,4.950002 -0.33,2.64 -0.33,4.4 -6.49,0.66 -10.56,1.21 -4.07,0.44 -6.49,0.88 -2.31,0.33 -3.63,0.66 -1.21,0.33 -1.98,0.77 z m 0.77,25.3 q -0.22,-1.21 -0.88,-3.08 -0.66,-1.98 -1.43,-4.07 -0.77,-2.09 -1.43,-3.63 2.09,-0.55 4.07,-2.31 1.98,-1.87 4.62,-4.95 1.32,-1.54 3.85,-4.95 2.64,-3.52 5.83,-8.25 3.19,-4.73 6.38,-10.230002 3.19,-5.61 5.72,-11.22 l 10.12,6.16 q -3.96,7.37 -8.91,14.740002 -4.95,7.26 -10.34,13.86 -5.28,6.6 -10.67,11.99 v 0.33 q 0,0 -1.1,0.66 -0.99,0.55 -2.42,1.43 -1.32,0.77 -2.42,1.76 -0.99,0.99 -0.99,1.76 z m 0,0 -0.44,-8.47 4.95,-3.3 26.51,-3.19 q -0.33,2.09 -0.55,4.84 -0.22,2.75 -0.11,4.4 -8.91,1.32 -14.52,2.2 -5.5,0.88 -8.69,1.54 -3.08,0.55 -4.62,1.1 -1.54,0.44 -2.53,0.88 z m 23.1,2.97 7.81,-2.42 q 1.43,3.85 2.75,8.25 1.43,4.4 1.98,7.7 l -8.14,2.86 q -0.55,-3.3 -1.87,-7.92 -1.21,-4.62 -2.53,-8.47 z"
         style="font-weight:600;-inkscape-font-specification:'Noto Sans TC Semi-Bold';fill:#ffffff"
         id="path1108" />
    </g>
    <g
       aria-label="Songshan-Xindian Line

"
       transform="matrix(0.26458333,0,0,0.26458333,0.34678218,-3.8874346)"
       id="text12839"
       style="font-size:60px;line-height:1.25;font-family:'Microsoft JhengHei';-inkscape-font-specification:'Microsoft JhengHei';word-spacing:0px;white-space:pre;shape-inside:url(#rect12841)">
      <path
         d="m 248.58508,202.84734 q -7.92,-1.44 -11.76,-4.44 -3.84,-3 -3.84,-8.4 0,-5.04 4.08,-8.34 4.14,-3.3 12.72,-3.3 7.86,0 12.18,3.36 4.32,3.36 4.74,9.72 h -7.62 q -0.06,-3.06 -2.4,-5.1 -2.34,-2.04 -7.14,-2.04 -4.5,0 -6.66,1.5 -2.16,1.5 -2.1,4.2 0,2.94 2.88,4.38 2.94,1.44 9.54,2.76 8.28,1.68 11.76,4.56 3.54,2.88 3.54,8.64 0,5.52 -4.68,9.24 -4.68,3.66 -13.32,3.66 -8.82,0 -13.74,-3.72 -4.92,-3.72 -4.92,-10.74 h 7.62 q 0,3.9 2.94,6.24 2.94,2.28 8.16,2.28 4.8,0 7.5,-1.86 2.7,-1.86 2.7,-4.86 0,-3.48 -2.7,-4.98 -2.7,-1.5 -9.48,-2.76 z"
         style="font-family:'AR UDJingXiHeiE1G30 EB';-inkscape-font-specification:'AR UDJingXiHeiE1G30 EB';fill:#ffffff"
         id="path1111" />
      <path
         d="m 289.80508,189.40734 q 7.98,0 12.06,4.74 4.14,4.68 4.14,12.06 0,7.38 -4.14,12.24 -4.08,4.8 -12.06,4.8 -7.86,0 -12.12,-4.8 -4.2,-4.86 -4.2,-12.24 0,-7.32 4.14,-12.06 4.2,-4.74 12.18,-4.74 z m 8.58,16.8 q 0,-5.46 -2.4,-8.28 -2.4,-2.82 -6.18,-2.82 -3.96,0 -6.36,2.76 -2.34,2.76 -2.34,8.34 0,5.64 2.4,8.52 2.4,2.82 6.3,2.82 3.78,0 6.18,-2.82 2.4,-2.82 2.4,-8.52 z"
         style="font-family:'AR UDJingXiHeiE1G30 EB';-inkscape-font-specification:'AR UDJingXiHeiE1G30 EB';fill:#ffffff"
         id="path1113" />
      <path
         d="m 320.46506,201.10734 v 21.36 h -7.44 v -32.28 h 7.44 v 3.66 q 1.5,-1.86 4.08,-3.12 2.64,-1.32 5.88,-1.32 5.16,0 7.98,2.88 2.88,2.88 2.88,8.1 v 22.08 h -7.38 v -21.12 q 0,-2.88 -1.38,-4.44 -1.38,-1.62 -4.08,-1.62 -2.7,0 -4.92,1.74 -2.22,1.68 -3.06,4.08 z"
         style="font-family:'AR UDJingXiHeiE1G30 EB';-inkscape-font-specification:'AR UDJingXiHeiE1G30 EB';fill:#ffffff"
         id="path1115" />
      <path
         d="m 370.98495,208.48734 v -4.74 q -0.12,-3.66 -2.4,-6.12 -2.22,-2.46 -5.82,-2.46 -3.54,0 -5.64,2.82 -2.1,2.82 -2.1,8.58 0,5.28 1.92,8.1 1.98,2.82 5.76,2.82 3.36,0 5.7,-2.4 2.4,-2.46 2.58,-6.6 z m 0,9.9 q -1.62,2.34 -4.08,3.6 -2.46,1.26 -5.34,1.26 -6.48,0 -10.32,-4.44 -3.84,-4.44 -3.84,-12.3 0,-7.98 3.78,-12.54 3.84,-4.56 10.32,-4.56 2.88,0 5.28,1.2 2.4,1.2 4.2,3.48 v -3.9 h 7.44 v 33.72 q 0,5.88 -4.02,9.48 -3.96,3.6 -11.58,3.6 -7.44,0 -10.98,-3 -3.54,-3 -3.84,-7.68 h 7.44 q 0.12,2.46 2.04,3.72 1.92,1.32 5.34,1.32 3.84,0 6,-1.92 2.16,-1.86 2.16,-5.46 z"
         style="font-family:'AR UDJingXiHeiE1G30 EB';-inkscape-font-specification:'AR UDJingXiHeiE1G30 EB';fill:#ffffff"
         id="path1117" />
      <path
         d="m 396.90493,208.72734 q -6.18,-1.02 -9.06,-3.3 -2.82,-2.34 -2.82,-6.48 0,-4.08 3.3,-6.78 3.3,-2.76 9.78,-2.76 6.78,0 10.2,3 3.42,3 3.42,7.44 h -7.44 q -0.24,-2.34 -1.8,-3.54 -1.56,-1.2 -4.38,-1.2 -2.7,0 -4.14,0.96 -1.38,0.9 -1.38,2.7 0,2.04 2.1,3 2.1,0.96 7.38,1.86 6.12,1.02 8.52,3.36 2.46,2.28 2.46,6.42 0,4.5 -3.66,7.2 -3.66,2.64 -10.26,2.64 -7.74,0 -11.28,-3.12 -3.48,-3.18 -3.54,-7.74 h 7.44 q 0.12,2.4 1.92,3.78 1.86,1.38 5.4,1.38 2.94,0 4.68,-0.96 1.74,-0.96 1.74,-2.94 0,-2.04 -1.74,-3 -1.74,-1.02 -6.84,-1.92 z"
         style="font-family:'AR UDJingXiHeiE1G30 EB';-inkscape-font-specification:'AR UDJingXiHeiE1G30 EB';fill:#ffffff"
         id="path1119" />
      <path
         d="m 426.48486,201.10734 v 21.36 h -7.38 v -45.54 h 7.38 v 16.92 q 1.56,-1.92 4.2,-3.18 2.7,-1.26 5.88,-1.26 5.16,0 7.98,2.88 2.82,2.88 2.82,8.1 v 22.08 h -7.38 v -21.12 q 0,-2.88 -1.38,-4.44 -1.32,-1.62 -4.14,-1.62 -2.58,0 -4.8,1.68 -2.22,1.62 -3.18,4.14 z"
         style="font-family:'AR UDJingXiHeiE1G30 EB';-inkscape-font-specification:'AR UDJingXiHeiE1G30 EB';fill:#ffffff"
         id="path1121" />
      <path
         d="m 466.26481,217.36734 q 2.82,0 5.16,-1.02 2.34,-1.02 4.14,-3.3 v -5.04 h -4.5 q -5.16,0 -7.62,1.44 -2.46,1.44 -2.46,3.96 0,1.8 1.32,2.88 1.32,1.08 3.96,1.08 z m 2.52,-27.96 q 7.2,0 10.68,2.94 3.54,2.88 3.54,8.52 v 21.6 h -7.44 v -3.84 q -2.04,2.28 -4.74,3.48 -2.64,1.14 -6.24,1.14 -5.34,0 -8.28,-2.58 -2.94,-2.64 -2.94,-6.9 0,-5.1 4.38,-7.86 4.38,-2.76 13.32,-2.76 h 4.5 v -2.64 q 0,-2.7 -1.68,-4.08 -1.62,-1.38 -5.1,-1.38 -3.54,0 -5.34,1.44 -1.74,1.38 -1.74,3.72 h -7.38 q 0,-4.56 3.66,-7.68 3.72,-3.12 10.8,-3.12 z"
         style="font-family:'AR UDJingXiHeiE1G30 EB';-inkscape-font-specification:'AR UDJingXiHeiE1G30 EB';fill:#ffffff"
         id="path1123" />
      <path
         d="m 498.36473,201.10734 v 21.36 h -7.44 v -32.28 h 7.44 v 3.66 q 1.5,-1.86 4.08,-3.12 2.64,-1.32 5.88,-1.32 5.16,0 7.98,2.88 2.88,2.88 2.88,8.1 v 22.08 h -7.38 v -21.12 q 0,-2.88 -1.38,-4.44 -1.38,-1.62 -4.08,-1.62 -2.7,0 -4.92,1.74 -2.22,1.68 -3.06,4.08 z"
         style="font-family:'AR UDJingXiHeiE1G30 EB';-inkscape-font-specification:'AR UDJingXiHeiE1G30 EB';fill:#ffffff"
         id="path1125" />
      <path
         d="m 544.3846,202.00734 v 6 h -19.14 v -6 z"
         style="font-family:'AR UDJingXiHeiE1G30 EB';-inkscape-font-specification:'AR UDJingXiHeiE1G30 EB';fill:#ffffff"
         id="path1127" />
      <path
         d="m 577.20452,179.08734 h 8.82 l -14.94,20.94 15.78,22.44 h -8.88 l -11.34,-16.74 -11.34,16.74 h -8.64 l 15.66,-22.5 -15,-20.88 h 8.94 l 10.44,15.6 z"
         style="font-family:'AR UDJingXiHeiE1G30 EB';-inkscape-font-specification:'AR UDJingXiHeiE1G30 EB';fill:#ffffff"
         id="path1129" />
      <path
         d="m 598.68441,178.00734 v 7.14 h -8.04 v -7.14 z m -0.36,12.18 v 32.28 h -7.44 v -32.28 z"
         style="font-family:'AR UDJingXiHeiE1G30 EB';-inkscape-font-specification:'AR UDJingXiHeiE1G30 EB';fill:#ffffff"
         id="path1131" />
      <path
         d="m 614.16441,201.10734 v 21.36 h -7.44 v -32.28 h 7.44 v 3.66 q 1.5,-1.86 4.08,-3.12 2.64,-1.32 5.88,-1.32 5.16,0 7.98,2.88 2.88,2.88 2.88,8.1 v 22.08 h -7.38 v -21.12 q 0,-2.88 -1.38,-4.44 -1.38,-1.62 -4.08,-1.62 -2.7,0 -4.92,1.74 -2.22,1.68 -3.06,4.08 z"
         style="font-family:'AR UDJingXiHeiE1G30 EB';-inkscape-font-specification:'AR UDJingXiHeiE1G30 EB';fill:#ffffff"
         id="path1133" />
      <path
         d="m 665.28428,208.72734 v -4.86 q -0.12,-3.78 -2.46,-6.24 -2.34,-2.46 -5.82,-2.46 -3.9,0 -6,2.88 -2.04,2.82 -2.04,8.4 0,5.04 2.04,8.04 2.04,3 6,3 3.6,0 5.88,-2.46 2.34,-2.46 2.4,-6.3 z m 0,9.84 q -1.92,2.34 -4.32,3.54 -2.34,1.14 -5.16,1.14 -6.78,0 -10.68,-4.56 -3.84,-4.56 -3.84,-12.3 0,-7.8 3.72,-12.36 3.78,-4.56 10.38,-4.62 3.06,0 5.52,1.14 2.52,1.14 4.38,3.42 v -17.04 h 7.44 v 45.54 h -7.44 z"
         style="font-family:'AR UDJingXiHeiE1G30 EB';-inkscape-font-specification:'AR UDJingXiHeiE1G30 EB';fill:#ffffff"
         id="path1135" />
      <path
         d="m 688.5043,178.00734 v 7.14 h -8.04 v -7.14 z m -0.36,12.18 v 32.28 h -7.44 v -32.28 z"
         style="font-family:'AR UDJingXiHeiE1G30 EB';-inkscape-font-specification:'AR UDJingXiHeiE1G30 EB';fill:#ffffff"
         id="path1137" />
      <path
         d="m 707.46427,217.36734 q 2.82,0 5.16,-1.02 2.34,-1.02 4.14,-3.3 v -5.04 h -4.5 q -5.16,0 -7.62,1.44 -2.46,1.44 -2.46,3.96 0,1.8 1.32,2.88 1.32,1.08 3.96,1.08 z m 2.52,-27.96 q 7.2,0 10.68,2.94 3.54,2.88 3.54,8.52 v 21.6 h -7.44 v -3.84 q -2.04,2.28 -4.74,3.48 -2.64,1.14 -6.24,1.14 -5.34,0 -8.28,-2.58 -2.94,-2.64 -2.94,-6.9 0,-5.1 4.38,-7.86 4.38,-2.76 13.32,-2.76 h 4.5 v -2.64 q 0,-2.7 -1.68,-4.08 -1.62,-1.38 -5.1,-1.38 -3.54,0 -5.34,1.44 -1.74,1.38 -1.74,3.72 h -7.38 q 0,-4.56 3.66,-7.68 3.72,-3.12 10.8,-3.12 z"
         style="font-family:'AR UDJingXiHeiE1G30 EB';-inkscape-font-specification:'AR UDJingXiHeiE1G30 EB';fill:#ffffff"
         id="path1139" />
      <path
         d="m 739.56419,201.10734 v 21.36 h -7.44 v -32.28 h 7.44 v 3.66 q 1.5,-1.86 4.08,-3.12 2.64,-1.32 5.88,-1.32 5.16,0 7.98,2.88 2.88,2.88 2.88,8.1 v 22.08 h -7.38 v -21.12 q 0,-2.88 -1.38,-4.44 -1.38,-1.62 -4.08,-1.62 -2.7,0 -4.92,1.74 -2.22,1.68 -3.06,4.08 z"
         style="font-family:'AR UDJingXiHeiE1G30 EB';-inkscape-font-specification:'AR UDJingXiHeiE1G30 EB';fill:#ffffff"
         id="path1141" />
      <path
         d="m 815.34403,222.46734 h -30.48 v -43.38 h 7.62 v 37.44 h 22.86 z"
         style="font-family:'AR UDJingXiHeiE1G30 EB';-inkscape-font-specification:'AR UDJingXiHeiE1G30 EB';fill:#ffffff"
         id="path1143" />
      <path
         d="m 828.48394,178.00734 v 7.14 h -8.04 v -7.14 z m -0.36,12.18 v 32.28 h -7.44 v -32.28 z"
         style="font-family:'AR UDJingXiHeiE1G30 EB';-inkscape-font-specification:'AR UDJingXiHeiE1G30 EB';fill:#ffffff"
         id="path1145" />
      <path
         d="m 843.96391,201.10734 v 21.36 h -7.44 v -32.28 h 7.44 v 3.66 q 1.5,-1.86 4.08,-3.12 2.64,-1.32 5.88,-1.32 5.16,0 7.98,2.88 2.88,2.88 2.88,8.1 v 22.08 h -7.38 v -21.12 q 0,-2.88 -1.38,-4.44 -1.38,-1.62 -4.08,-1.62 -2.7,0 -4.92,1.74 -2.22,1.68 -3.06,4.08 z"
         style="font-family:'AR UDJingXiHeiE1G30 EB';-inkscape-font-specification:'AR UDJingXiHeiE1G30 EB';fill:#ffffff"
         id="path1147" />
      <path
         d="m 886.80384,189.40734 q 7.02,0 11.1,4.62 4.14,4.56 4.08,14.28 h -22.98 q 0.06,4.38 2.16,6.84 2.1,2.4 6.3,2.4 2.76,0 4.62,-1.08 1.92,-1.14 2.46,-3.06 h 7.14 q -0.72,4.14 -4.38,7.02 -3.66,2.82 -9.84,2.82 -7.8,0 -11.94,-4.38 -4.08,-4.38 -4.08,-12.42 -0.06,-7.62 3.96,-12.3 4.08,-4.74 11.4,-4.74 z m 0,5.7 q -3.18,0 -5.34,2.16 -2.16,2.16 -2.34,6.06 h 15.12 q -0.06,-3.72 -2.04,-5.94 -1.98,-2.28 -5.4,-2.28 z"
         style="font-family:'AR UDJingXiHeiE1G30 EB';-inkscape-font-specification:'AR UDJingXiHeiE1G30 EB';fill:#ffffff"
         id="path1149" />
    </g>
    <g
       clip-path="url(#clip_1832)"
       id="g218"
       transform="matrix(0.37648104,0,0,0.37648106,-245.85217,-14.540361)">
      <path
         transform="matrix(1,0,0,-1,777.8159,183.79282)"
         d="m 0,0 h -68.881 c -12.682,0 -22.961,10.28 -22.961,22.961 v 68.881 c 0,12.681 10.279,22.961 22.961,22.961 H 0 c 12.681,0 22.961,-10.28 22.961,-22.961 V 22.961 C 22.961,10.28 12.681,0 0,0"
         fill="#00754a"
         id="path214-7" />
      <path
         transform="matrix(1,0,0,-1,744.0403,123.96689)"
         d="M 0,0 H 24.791 V -28.153 H 13.376 v 4.832 c -1.54,-1.728 -3.198,-2.988 -4.972,-3.782 -2.989,-1.4 -6.397,-2.1 -10.225,-2.1 -7.517,0 -13.446,2.311 -17.788,6.932 -4.342,4.623 -6.514,11.229 -6.514,19.82 0,8.73 2.3,15.383 6.899,19.959 4.598,4.575 11.123,6.863 19.574,6.863 7.003,0 12.582,-1.541 16.738,-4.621 4.155,-3.082 6.653,-7.518 7.494,-13.307 H 12.676 c -0.468,2.707 -1.728,4.867 -3.782,6.478 -2.055,1.61 -4.857,2.416 -8.404,2.416 -4.809,0 -8.404,-1.495 -10.785,-4.482 -2.381,-2.988 -3.571,-7.423 -3.571,-13.306 0,-6.303 1.236,-10.844 3.711,-13.621 2.474,-2.779 6.116,-4.167 10.925,-4.167 3.735,0 6.769,1.026 9.105,3.081 2.333,2.054 3.501,4.528 3.501,7.424 v 0.77 H 0 Z"
         fill="#ffffff"
         id="path216" />
    </g>
  </g>
</svg>
