<?xml version="1.0" encoding="UTF-8" standalone="no"?>
<!-- Created with Inkscape (http://www.inkscape.org/) -->

<svg
   width="400"
   height="100"
   viewBox="0 0 105.83334 26.458333"
   version="1.1"
   id="svg5"
   inkscape:version="1.1 (c68e22c387, 2021-05-23)"
   sodipodi:docname="general.svg"
   xmlns:inkscape="http://www.inkscape.org/namespaces/inkscape"
   xmlns:sodipodi="http://sodipodi.sourceforge.net/DTD/sodipodi-0.dtd"
   xmlns="http://www.w3.org/2000/svg"
   xmlns:svg="http://www.w3.org/2000/svg">
  <sodipodi:namedview
     id="namedview7"
     pagecolor="#333333"
     bordercolor="#999999"
     borderopacity="1"
     inkscape:pageshadow="0"
     inkscape:pageopacity="1"
     inkscape:pagecheckerboard="true"
     inkscape:document-units="mm"
     showgrid="false"
     inkscape:zoom="1.8973437"
     inkscape:cx="142.83126"
     inkscape:cy="40.056"
     inkscape:window-width="1920"
     inkscape:window-height="1094"
     inkscape:window-x="-11"
     inkscape:window-y="-11"
     inkscape:window-maximized="1"
     inkscape:current-layer="layer1"
     units="px" />
  <defs
     id="defs2">
    <rect
       x="327.82674"
       y="9.4869475"
       width="152.84526"
       height="52.178211"
       id="rect3983" />
    <rect
       x="202.91527"
       y="13.176316"
       width="329.4079"
       height="59.029896"
       id="rect5816" />
  </defs>
  <g
     inkscape:label="Layer 1"
     inkscape:groupmode="layer"
     id="layer1">
    <rect
       style="fill:#333333;stroke:none;stroke-width:0.555625"
       id="rect38779"
       width="105.83334"
       height="26.458334"
       x="-5.0862632e-06"
       y="-3.1789145e-07" />
    <rect
       style="fill:#9e652e;stroke:none;stroke-width:0.555625;fill-opacity:1"
       id="rect40247"
       width="17.647709"
       height="2.6458333"
       x="-5.0862632e-06"
       y="23.8125" />
    <path
       id="rect40247-3"
       style="fill:#d0002b;stroke-width:0.555625"
       d="m 17.647703,23.8125 h 17.647709 v 2.645833 H 17.647703 Z" />
    <path
       id="rect40247-3-6"
       style="fill:#007846;stroke-width:0.555625"
       d="m 35.29541,23.8125 h 17.647709 v 2.645833 H 35.29541 Z" />
    <path
       id="rect40247-3-6-3"
       style="fill:#ffa000;stroke-width:0.555625"
       d="m 52.943119,23.8125 h 17.647709 v 2.645833 H 52.943119 Z" />
    <path
       id="rect40247-3-6-3-5"
       style="fill:#005fb9;stroke-width:0.555625"
       d="m 70.590828,23.8125 h 17.647709 v 2.645833 H 70.590828 Z" />
    <rect
       style="fill:#fedb00;fill-opacity:1;stroke:none;stroke-width:0.555625"
       id="rect40247-3-6-3-5-3"
       width="17.647709"
       height="2.6458333"
       x="88.185631"
       y="23.8125" />
    <text
       xml:space="preserve"
       transform="scale(0.26458333)"
       id="text3981"
       style="fill:black;fill-opacity:1;line-height:1.25;stroke:none;font-family:sans-serif;font-style:normal;font-weight:normal;font-size:40px;white-space:pre;shape-inside:url(#rect3983)" />
    <g
       aria-label="宣導事項"
       id="text7685"
       style="font-size:14.6934px;line-height:1.25;stroke-width:0.367335">
      <path
         d="m 26.520038,5.7447039 h 8.007903 v 1.395873 H 26.520038 Z M 24.02216,14.002395 h 13.018353 v 1.586887 H 24.02216 Z m 3.967218,-2.791746 v 0.82283 h 4.966369 v -0.82283 z m 0,-2.012996 v 0.7934436 h 4.966369 V 9.197653 Z M 26.299637,7.8752469 h 8.434012 V 13.355885 H 26.299637 Z M 24.257254,3.3937598 H 36.849498 V 6.6703881 H 35.04221 V 4.9512603 h -9.065828 v 1.7191278 h -1.719128 z m 4.96637,-0.8228304 1.719127,-0.4848822 q 0.249788,0.4114152 0.470189,0.8962974 0.220401,0.4848822 0.308562,0.8669106 L 29.89952,4.3929111 Q 29.840746,4.0402694 29.649732,3.5260004 29.458718,2.997038 29.223624,2.5709294 Z"
         style="font-weight:bold;font-family:'Noto Sans TC';-inkscape-font-specification:'Noto Sans TC Bold';fill:#ffffff"
         id="path17309" />
      <path
         d="m 38.568599,11.813078 h 13.326914 v 1.3371 H 38.568599 Z m 3.923137,-8.4046248 h 9.315616 v 1.1754721 h -9.315616 z m 4.613728,7.8756628 h 1.689741 v 3.02684 q 0,0.573043 -0.146934,0.910991 -0.13224,0.337948 -0.602429,0.514269 -0.426109,0.176321 -1.028538,0.205708 -0.60243,0.04408 -1.42526,0.04408 -0.04408,-0.352642 -0.205708,-0.77875 -0.161627,-0.426109 -0.337948,-0.749364 0.352642,0.01469 0.719977,0.02939 0.367335,0 0.646509,0 0.293868,0 0.396722,0 0.176321,-0.01469 0.235095,-0.05877 0.05877,-0.04408 0.05877,-0.161628 z m -5.96552,2.497878 1.204858,-0.969765 q 0.514269,0.352642 1.087312,0.837524 0.573043,0.484883 0.881604,0.866911 l -1.293019,1.072618 Q 42.844378,15.324801 42.521123,15.001546 42.212562,14.678291 41.845227,14.36973 41.477892,14.046475 41.139944,13.781994 Z m 2.98276,-11.3286118 1.410566,-0.367335 q 0.205708,0.3085614 0.426109,0.7052832 0.220401,0.3967218 0.308561,0.7052832 L 44.7986,3.8933354 Q 44.71044,3.5994674 44.519426,3.2027456 44.328411,2.7913304 44.122704,2.4533822 Z m 0.808137,4.5843409 v 0.4554954 h 4.246393 V 7.0377231 Z m 0,1.2048589 v 0.4701888 h 4.246393 V 8.242582 Z m 0,-2.3950243 v 0.440802 h 4.246393 V 5.8475577 Z M 43.476194,5.0541141 h 7.229153 V 9.491521 h -7.229153 z m 2.865213,-1.1607787 1.763208,0.1175472 Q 47.913601,4.4222979 47.73728,4.7749395 47.575653,5.1275811 47.428719,5.4067557 L 46.032846,5.2157415 Q 46.1357,4.8924867 46.22386,4.5398451 46.312021,4.17251 46.341407,3.8933354 Z M 48.633578,2.1448208 50.293932,2.409302 Q 50.044144,2.850104 49.779663,3.217439 49.529875,3.584774 49.324168,3.8639486 L 47.913601,3.584774 q 0.191014,-0.3232548 0.396722,-0.7199766 0.205708,-0.3967218 0.323255,-0.7199766 z m -8.992361,0.4114152 1.46934,-0.3085614 q 0.205707,0.3379482 0.411415,0.7493634 0.205708,0.4114152 0.337948,0.7052832 L 40.3465,4.099043 Q 40.243646,3.7757882 40.037939,3.3496796 39.832231,2.9088776 39.641217,2.556236 Z m -0.705283,1.5721938 h 3.02684 v 1.3664863 h -3.02684 z m 3.115,4.143539 q 0.367335,0.7493634 0.969765,1.102005 0.617123,0.3526416 1.51342,0.4554954 0.896297,0.08816 2.101156,0.08816 0.808137,0 1.807289,-0.014693 0.999151,-0.029387 2.012995,-0.08816 1.013845,-0.058774 1.836675,-0.1322406 -0.161627,0.2497878 -0.308561,0.7052828 -0.132241,0.440802 -0.205708,0.778751 -0.73467,0.02939 -1.616274,0.07347 -0.86691,0.02939 -1.777901,0.04408 -0.896297,0.01469 -1.763208,0.01469 -1.51342,0 -2.571345,-0.176321 -1.057925,-0.191014 -1.763208,-0.73467 Q 41.580746,9.8294692 41.12525,8.7127708 Z M 41.566052,6.5528409 h 0.587736 l 0.249788,-0.058774 0.573043,0.440802 q -0.484883,1.6162741 -1.42526,2.7917461 -0.940378,1.1607786 -2.07177,1.8072886 -0.07347,-0.176321 -0.235094,-0.411416 Q 39.082868,10.872701 38.906547,10.6523 38.730226,10.431899 38.597985,10.314351 39.61183,9.8147758 40.419967,8.8890916 41.228104,7.9634073 41.566052,6.7732419 Z M 39.303269,8.1397282 V 6.8760957 l 0.631816,-0.3232548 h 2.145236 l -0.01469,1.3664862 h -1.851369 q -0.264481,0 -0.543655,0.073467 -0.264482,0.058774 -0.367335,0.1469341 z m 0,-0.014693 Q 39.273882,7.9634073 39.171028,7.7136195 39.082868,7.4638317 38.980014,7.2287373 38.87716,6.9789495 38.789,6.8467089 q 0.161627,-0.04408 0.337948,-0.1322406 0.191014,-0.08816 0.382028,-0.2644812 0.146934,-0.1322406 0.396722,-0.3967218 0.264481,-0.2791746 0.558349,-0.6171228 0.308562,-0.3526416 0.573043,-0.661203 0.264481,-0.3232548 0.426108,-0.5583493 V 4.17251 l 0.426109,-0.1616274 0.955071,0.4848823 q -0.293868,0.3820284 -0.73467,0.8962974 -0.440802,0.4995756 -0.910991,0.9991512 -0.455495,0.4995756 -0.82283,0.8669106 0,0 -0.161628,0.08816 -0.161627,0.08816 -0.382028,0.220401 -0.205708,0.1322406 -0.367335,0.293868 -0.161627,0.146934 -0.161627,0.2644812 z"
         style="font-weight:bold;font-family:'Noto Sans TC';-inkscape-font-specification:'Noto Sans TC Bold';fill:#ffffff"
         id="path17311" />
      <path
         d="m 58.977704,2.188901 h 1.792595 v 12.122055 q 0,0.64651 -0.176321,0.969765 -0.176321,0.323255 -0.602429,0.514269 -0.426109,0.161627 -1.057925,0.205707 -0.617123,0.04408 -1.557501,0.04408 -0.05877,-0.308562 -0.235094,-0.719977 -0.176321,-0.396722 -0.352642,-0.675896 0.367335,0.01469 0.73467,0.02939 0.367335,0 0.661203,0 0.308562,0 0.426109,0 0.205708,-0.01469 0.279175,-0.08816 0.08816,-0.07347 0.08816,-0.279175 z M 53.482372,3.1586654 H 66.412565 V 4.5398451 H 53.482372 Z m 3.188468,3.1003075 v 0.6905898 h 6.47979 V 6.2589729 Z M 54.981099,5.1422745 h 9.976819 V 8.0662611 H 54.981099 Z M 54.628457,8.7274642 H 65.207706 V 14.472584 H 63.415111 V 9.9176296 h -8.786654 z m -1.484033,1.8219818 h 13.606089 v 1.337099 H 53.144424 Z m 1.366486,2.012996 h 9.873965 v 1.278325 H 54.51091 Z"
         style="font-weight:bold;font-family:'Noto Sans TC';-inkscape-font-specification:'Noto Sans TC Bold';fill:#ffffff"
         id="path17313" />
      <path
         d="m 67.940649,3.7757882 h 5.069223 v 1.6309675 h -5.069223 z m 1.645661,0.9550711 h 1.777901 V 11.680838 H 69.58631 Z m -2.042383,6.9499787 q 0.705283,-0.205708 1.616274,-0.484883 0.925684,-0.279174 1.954222,-0.602429 1.043232,-0.323255 2.057076,-0.661203 l 0.293868,1.542807 q -1.351793,0.499576 -2.718279,0.999151 -1.366486,0.499576 -2.468491,0.881604 z m 5.642266,-8.8895076 h 8.375238 v 1.46934 h -8.375238 z m 2.24809,5.9214404 v 0.9403776 h 3.849671 V 8.7127708 Z m 0,2.1452362 v 0.940378 h 3.849671 v -0.940378 z m 0,-4.2757793 v 0.9256842 h 3.849671 V 6.5822277 Z M 73.788622,5.2892085 h 7.21446 v 7.7875025 h -7.21446 z m 2.586038,-1.6897411 2.057077,0.2497878 q -0.220401,0.6905899 -0.470189,1.3517929 -0.235095,0.661203 -0.440802,1.1313918 L 75.948552,6.0532653 q 0.13224,-0.5436558 0.249788,-1.2195522 0.13224,-0.6758965 0.17632,-1.2342457 z m -1.028538,9.4478566 1.42526,1.013845 q -0.484882,0.367335 -1.131392,0.719976 -0.646509,0.367335 -1.351792,0.675897 -0.69059,0.323254 -1.3371,0.528962 -0.176321,-0.249788 -0.499575,-0.617123 -0.308562,-0.352641 -0.573043,-0.587736 0.617123,-0.205707 1.278326,-0.484882 0.661203,-0.293868 1.234245,-0.617123 0.587736,-0.337948 0.955071,-0.631816 z m 2.218704,1.013845 1.307713,-0.940378 q 0.470188,0.249788 1.013844,0.573042 0.558349,0.323255 1.072618,0.661204 0.514269,0.337948 0.852218,0.617122 l -1.395873,1.043232 q -0.308562,-0.279175 -0.793444,-0.631816 -0.484882,-0.337949 -1.028538,-0.69059 -0.543656,-0.352642 -1.028538,-0.631816 z"
         style="font-weight:bold;font-family:'Noto Sans TC';-inkscape-font-specification:'Noto Sans TC Bold';fill:#ffffff"
         id="path17315" />
    </g>
    <g
       aria-label="Publicity Matters"
       id="text12413"
       style="font-size:6.66697px;line-height:1.25;stroke-width:0.166674">
      <path
         d="m 26.962213,20.594103 v 1.913421 h -0.846705 v -4.820219 h 2.266769 q 0.706699,0 1.106717,0.386684 0.400018,0.386684 0.400018,1.026713 0,0.720033 -0.413352,1.106717 -0.406685,0.386684 -1.10005,0.386684 z m 2.06676,-1.480067 q 0,-0.37335 -0.213343,-0.566692 -0.213343,-0.200009 -0.626695,-0.200009 h -1.226722 v 1.586738 h 1.226722 q 0.413352,0 0.626695,-0.200009 0.213343,-0.206676 0.213343,-0.620028 z"
         style="font-family:'AR UDJingXiHeiE1G30 EB';-inkscape-font-specification:'AR UDJingXiHeiE1G30 EB';fill:#ffffff"
         id="path17318" />
      <path
         d="m 32.895814,21.300802 v -2.380108 h 0.820037 v 3.58683 h -0.820037 v -0.406685 q -0.180008,0.213343 -0.473355,0.353349 -0.286679,0.133339 -0.66003,0.133339 -0.566692,0 -0.88004,-0.313347 -0.30668,-0.320015 -0.30668,-0.900041 v -2.453445 h 0.826704 v 2.346773 q 0,0.333349 0.15334,0.500023 0.153341,0.166674 0.460021,0.166674 0.293347,0 0.540025,-0.186675 0.246678,-0.186675 0.340015,-0.446687 z"
         style="font-family:'AR UDJingXiHeiE1G30 EB';-inkscape-font-specification:'AR UDJingXiHeiE1G30 EB';fill:#ffffff"
         id="path17320" />
      <path
         d="m 35.422586,19.34738 q 0.186675,-0.240011 0.473355,-0.37335 0.293346,-0.140007 0.646696,-0.140007 0.740034,0 1.146719,0.520024 0.413352,0.520024 0.413352,1.353395 0,0.873373 -0.426686,1.380063 -0.426686,0.506689 -1.146719,0.506689 -0.360016,0 -0.640029,-0.140006 -0.273346,-0.146673 -0.466688,-0.400018 v 0.453354 h -0.826704 v -5.06023 h 0.826704 z m 0,0.993379 v 0.673363 q 0.02667,0.413353 0.28668,0.680031 0.260011,0.260012 0.66003,0.260012 0.426686,0 0.653363,-0.320014 0.233344,-0.326682 0.233344,-0.926709 0,-0.59336 -0.246678,-0.913375 -0.240011,-0.320015 -0.666697,-0.320015 -0.366684,0 -0.626695,0.253345 -0.260012,0.246678 -0.293347,0.613362 z"
         style="font-family:'AR UDJingXiHeiE1G30 EB';-inkscape-font-specification:'AR UDJingXiHeiE1G30 EB';fill:#ffffff"
         id="path17322" />
      <path
         d="m 39.642777,17.447294 v 5.06023 h -0.826704 v -5.06023 z"
         style="font-family:'AR UDJingXiHeiE1G30 EB';-inkscape-font-specification:'AR UDJingXiHeiE1G30 EB';fill:#ffffff"
         id="path17324" />
      <path
         d="m 41.409513,17.567299 v 0.79337 h -0.893374 v -0.79337 z m -0.04,1.353395 v 3.58683 h -0.826704 v -3.58683 z"
         style="font-family:'AR UDJingXiHeiE1G30 EB';-inkscape-font-specification:'AR UDJingXiHeiE1G30 EB';fill:#ffffff"
         id="path17326" />
      <path
         d="m 43.936292,22.594194 q -0.893374,0 -1.340061,-0.513356 -0.44002,-0.520024 -0.44002,-1.406731 0,-0.81337 0.446687,-1.326727 0.453354,-0.513357 1.30006,-0.513357 0.720032,0 1.140051,0.35335 0.426686,0.353349 0.473355,0.946709 H 44.68966 q -0.01333,-0.293346 -0.22001,-0.480021 -0.200009,-0.186676 -0.580026,-0.186676 -0.413353,0 -0.653363,0.320015 -0.233344,0.313348 -0.233344,0.886707 0,0.66003 0.246677,0.973378 0.253345,0.313347 0.673364,0.313347 0.373351,0 0.57336,-0.193342 0.200009,-0.193342 0.206676,-0.520024 h 0.826704 q -0.0067,0.613362 -0.426686,0.980045 -0.413352,0.366683 -1.16672,0.366683 z"
         style="font-family:'AR UDJingXiHeiE1G30 EB';-inkscape-font-specification:'AR UDJingXiHeiE1G30 EB';fill:#ffffff"
         id="path17328" />
      <path
         d="m 47.09643,17.567299 v 0.79337 h -0.893374 v -0.79337 z m -0.04,1.353395 v 3.58683 h -0.826704 v -3.58683 z"
         style="font-family:'AR UDJingXiHeiE1G30 EB';-inkscape-font-specification:'AR UDJingXiHeiE1G30 EB';fill:#ffffff"
         id="path17330" />
      <path
         d="m 49.029848,18.920694 h 0.693365 v 0.626695 h -0.693365 v 2.033426 q 0,0.146673 0.07334,0.226677 0.08,0.07334 0.240011,0.07334 h 0.380017 v 0.626695 h -0.666697 q -0.413352,0 -0.633362,-0.193342 -0.22001,-0.20001 -0.22001,-0.613362 V 19.547389 H 47.59645 v -0.626695 h 0.606694 v -0.886707 h 0.826704 z"
         style="font-family:'AR UDJingXiHeiE1G30 EB';-inkscape-font-specification:'AR UDJingXiHeiE1G30 EB';fill:#ffffff"
         id="path17332" />
      <path
         d="m 51.703292,21.594149 0.860039,-2.673455 h 0.840038 l -1.633407,4.600209 q -0.100005,0.293347 -0.320015,0.433353 -0.213343,0.140007 -0.560025,0.140007 H 50.05655 v -0.626696 h 0.586694 q 0.173341,0 0.280013,-0.07334 0.106671,-0.07334 0.160007,-0.226677 l 0.233344,-0.666697 -1.413398,-3.580163 h 0.873373 z"
         style="font-family:'AR UDJingXiHeiE1G30 EB';-inkscape-font-specification:'AR UDJingXiHeiE1G30 EB';fill:#ffffff"
         id="path17334" />
      <path
         d="m 56.543495,19.034032 v 3.473492 h -0.820037 v -4.820219 h 1.073382 l 1.38673,3.74017 1.333394,-3.74017 h 1.10005 v 4.820219 h -0.826705 v -3.500159 l -1.25339,3.500159 h -0.713366 z"
         style="font-family:'AR UDJingXiHeiE1G30 EB';-inkscape-font-specification:'AR UDJingXiHeiE1G30 EB';fill:#ffffff"
         id="path17336" />
      <path
         d="m 62.850445,21.940831 q 0.313347,0 0.573359,-0.113338 0.260012,-0.113339 0.460021,-0.366684 v -0.560025 h -0.500023 q -0.573359,0 -0.846705,0.160007 -0.273346,0.160008 -0.273346,0.44002 0,0.200009 0.146674,0.320015 0.146673,0.120005 0.44002,0.120005 z m 0.280012,-3.106808 q 0.800037,0 1.186721,0.326682 0.393351,0.320014 0.393351,0.94671 v 2.400109 h -0.826704 v -0.426686 q -0.226677,0.253344 -0.526691,0.386684 -0.293346,0.126672 -0.693365,0.126672 -0.59336,0 -0.920041,-0.286679 -0.326682,-0.293347 -0.326682,-0.766702 0,-0.566692 0.486689,-0.873373 0.486689,-0.306681 1.480067,-0.306681 h 0.500023 v -0.293346 q 0,-0.300014 -0.186675,-0.453354 -0.180008,-0.15334 -0.566693,-0.15334 -0.393351,0 -0.59336,0.160007 -0.193342,0.15334 -0.193342,0.413352 h -0.820037 q 0,-0.50669 0.406685,-0.853372 0.413352,-0.346683 1.200054,-0.346683 z"
         style="font-family:'AR UDJingXiHeiE1G30 EB';-inkscape-font-specification:'AR UDJingXiHeiE1G30 EB';fill:#ffffff"
         id="path17338" />
      <path
         d="m 66.630606,18.920694 h 0.693365 v 0.626695 h -0.693365 v 2.033426 q 0,0.146673 0.07334,0.226677 0.08,0.07334 0.240011,0.07334 h 0.380017 v 0.626695 h -0.666697 q -0.413352,0 -0.633362,-0.193342 -0.22001,-0.20001 -0.22001,-0.613362 v -2.153431 h -0.606694 v -0.626695 h 0.606694 v -0.886707 h 0.826704 z"
         style="font-family:'AR UDJingXiHeiE1G30 EB';-inkscape-font-specification:'AR UDJingXiHeiE1G30 EB';fill:#ffffff"
         id="path17340" />
      <path
         d="m 68.990702,18.920694 h 0.693365 v 0.626695 h -0.693365 v 2.033426 q 0,0.146673 0.07334,0.226677 0.08,0.07334 0.240011,0.07334 h 0.380017 v 0.626695 H 69.01737 q -0.413352,0 -0.633362,-0.193342 -0.22001,-0.20001 -0.22001,-0.613362 v -2.153431 h -0.606695 v -0.626695 h 0.606695 v -0.886707 h 0.826704 z"
         style="font-family:'AR UDJingXiHeiE1G30 EB';-inkscape-font-specification:'AR UDJingXiHeiE1G30 EB';fill:#ffffff"
         id="path17342" />
      <path
         d="m 71.870822,18.834023 q 0.780035,0 1.233389,0.513357 0.460021,0.50669 0.453354,1.586739 h -2.553449 q 0.0067,0.486689 0.24001,0.760034 0.233344,0.266679 0.700032,0.266679 0.306681,0 0.513357,-0.120005 0.213343,-0.126673 0.273346,-0.340016 h 0.793369 q -0.08,0.460021 -0.486689,0.780036 -0.406685,0.313347 -1.093383,0.313347 -0.866706,0 -1.326727,-0.486688 -0.453354,-0.486689 -0.453354,-1.380063 -0.0067,-0.846705 0.44002,-1.366729 0.453354,-0.526691 1.266725,-0.526691 z m 0,0.633362 q -0.35335,0 -0.593361,0.240011 -0.240011,0.240011 -0.260012,0.673364 h 1.680077 q -0.0067,-0.413352 -0.226677,-0.66003 -0.22001,-0.253345 -0.600027,-0.253345 z"
         style="font-family:'AR UDJingXiHeiE1G30 EB';-inkscape-font-specification:'AR UDJingXiHeiE1G30 EB';fill:#ffffff"
         id="path17344" />
      <path
         d="m 75.05762,20.274089 v 2.233435 h -0.820038 v -3.58683 h 0.820038 v 0.553358 q 0.233344,-0.326681 0.52669,-0.480021 0.300014,-0.160008 0.653363,-0.160008 v 0.766702 q -0.400018,0 -0.713366,0.193342 -0.313347,0.186675 -0.466687,0.480022 z"
         style="font-family:'AR UDJingXiHeiE1G30 EB';-inkscape-font-specification:'AR UDJingXiHeiE1G30 EB';fill:#ffffff"
         id="path17346" />
      <path
         d="m 77.924412,20.980788 q -0.686698,-0.113339 -1.006713,-0.366684 -0.313347,-0.260012 -0.313347,-0.720032 0,-0.453354 0.366683,-0.753368 0.366683,-0.306681 1.086716,-0.306681 0.753368,0 1.133385,0.333349 0.380017,0.333348 0.380017,0.826704 h -0.826704 q -0.02667,-0.260012 -0.200009,-0.393351 -0.173341,-0.13334 -0.486689,-0.13334 -0.300013,0 -0.460021,0.106672 -0.15334,0.100005 -0.15334,0.300014 0,0.226677 0.233344,0.333348 0.233344,0.106672 0.820037,0.206676 0.680031,0.113339 0.94671,0.373351 0.273346,0.253344 0.273346,0.713365 0,0.500023 -0.406686,0.800037 -0.406685,0.293346 -1.140051,0.293346 -0.860039,0 -1.253391,-0.346682 -0.386684,-0.35335 -0.393351,-0.860039 h 0.826704 q 0.01333,0.266679 0.213343,0.420019 0.206676,0.15334 0.600028,0.15334 0.326681,0 0.520023,-0.106671 0.193342,-0.106672 0.193342,-0.326682 0,-0.226677 -0.193342,-0.333348 -0.193342,-0.113339 -0.760034,-0.213343 z"
         style="font-family:'AR UDJingXiHeiE1G30 EB';-inkscape-font-specification:'AR UDJingXiHeiE1G30 EB';fill:#ffffff"
         id="path17348" />
    </g>
  </g>
  <style
     type="text/css"
     id="style824">
	.st0{fill:#38B035;}
	.st1{fill:#007AB0;}
</style>
</svg>
