<?xml version="1.0" encoding="UTF-8" standalone="no"?>
<!-- Created with Inkscape (http://www.inkscape.org/) -->

<svg
   width="400"
   height="100"
   viewBox="0 0 105.83334 26.458333"
   version="1.1"
   id="svg5"
   inkscape:version="1.1 (c68e22c387, 2021-05-23)"
   sodipodi:docname="left.svg"
   xmlns:inkscape="http://www.inkscape.org/namespaces/inkscape"
   xmlns:sodipodi="http://sodipodi.sourceforge.net/DTD/sodipodi-0.dtd"
   xmlns="http://www.w3.org/2000/svg"
   xmlns:svg="http://www.w3.org/2000/svg">
  <sodipodi:namedview
     id="namedview7"
     pagecolor="#333333"
     bordercolor="#999999"
     borderopacity="1"
     inkscape:pageshadow="0"
     inkscape:pageopacity="1"
     inkscape:pagecheckerboard="true"
     inkscape:document-units="mm"
     showgrid="false"
     inkscape:zoom="1.8973437"
     inkscape:cx="216.09158"
     inkscape:cy="40.056"
     inkscape:window-width="1920"
     inkscape:window-height="1094"
     inkscape:window-x="-11"
     inkscape:window-y="-11"
     inkscape:window-maximized="1"
     inkscape:current-layer="layer1"
     units="px" />
  <defs
     id="defs2">
    <rect
       x="202.91527"
       y="13.176316"
       width="329.4079"
       height="59.029896"
       id="rect5816" />
  </defs>
  <g
     inkscape:label="Layer 1"
     inkscape:groupmode="layer"
     id="layer1">
    <rect
       style="fill:#333333;stroke:none;stroke-width:0.555625"
       id="rect38779"
       width="105.83334"
       height="26.458334"
       x="-5.0862632e-06"
       y="-3.1789145e-07" />
    <g
       id="g1047"
       transform="translate(0,0.86005637)">
      <g
         aria-label="左側開門"
         id="text51566"
         style="font-size:13.7431px;line-height:1.25;stroke-width:0.343577">
        <path
           d="M 26.619326,3.7645745 H 38.768227 V 5.3450311 H 26.619326 Z m 4.054215,3.696894 h 7.819824 V 9.041925 h -7.819824 z m -1.484255,5.0024885 h 9.79883 v 1.5942 h -9.79883 z m 4.191645,-4.2328749 h 1.690402 v 5.0986899 h -1.690402 z m -2.74862,-6.7890915 1.731631,0.2198896 q -0.274862,1.649172 -0.687155,3.3258303 -0.412293,1.6629151 -1.01699,3.2571147 -0.604696,1.5804565 -1.470511,2.9685098 -0.852072,1.37431 -2.047722,2.432529 -0.123688,-0.178661 -0.316091,-0.43978 -0.192404,-0.247375 -0.39855,-0.481008 -0.192404,-0.233633 -0.371064,-0.39855 1.071962,-0.920788 1.841575,-2.17141 0.783357,-1.2643651 1.319338,-2.7211337 0.535981,-1.4567686 0.865815,-2.9822527 0.343578,-1.5392273 0.549724,-3.009739 z"
           style="font-weight:bold;font-family:'Noto Sans TC';-inkscape-font-specification:'Noto Sans TC Bold';fill:#ffffff"
           id="path69426" />
        <path
           d="m 45.364889,5.9909568 v 1.1956497 h 1.223136 V 5.9909568 Z m 0,2.4187856 v 1.2093928 h 1.223136 V 8.4097424 Z m 0,-4.8238282 v 1.1819067 h 1.223136 V 3.5859142 Z M 43.990579,2.2665766 H 48.03105 V 10.92473 h -4.040471 z m 2.198896,9.3590514 1.168163,-0.645926 q 0.357321,0.535981 0.700899,1.181907 0.35732,0.645925 0.522237,1.113191 l -1.250622,0.742127 q -0.0962,-0.316091 -0.288605,-0.728384 -0.17866,-0.412293 -0.412293,-0.852072 -0.219889,-0.439779 -0.439779,-0.810843 z m 2.56996,-8.6581533 h 1.415539 V 11.185849 H 48.759435 Z M 50.99956,1.6618802 h 1.497998 V 12.532672 q 0,0.604697 -0.137431,0.948274 -0.123688,0.357321 -0.467266,0.535981 -0.343577,0.206147 -0.865815,0.261119 -0.522238,0.06872 -1.250622,0.06872 -0.04123,-0.329835 -0.17866,-0.783357 -0.123688,-0.453522 -0.274862,-0.783357 0.467265,0.01374 0.865815,0.01374 0.39855,0 0.535981,0 0.151174,0 0.206146,-0.05497 0.06872,-0.06872 0.06872,-0.206147 z m -6.321826,9.3040788 1.319338,0.714641 q -0.206147,0.439779 -0.522238,0.934531 -0.302348,0.481009 -0.632183,0.920788 -0.329834,0.453522 -0.645926,0.769613 -0.206146,-0.192403 -0.549724,-0.453522 -0.329834,-0.261119 -0.604696,-0.439779 0.329834,-0.302348 0.632183,-0.714641 0.316091,-0.426036 0.57721,-0.879559 0.261119,-0.467265 0.426036,-0.852072 z M 42.437609,1.4694768 43.963093,1.9229991 Q 43.578286,3.1186488 43.028562,4.3417847 42.492581,5.5649207 41.846655,6.6643687 41.20073,7.7500736 40.499831,8.5746596 40.444859,8.3822562 40.307428,8.0386787 40.169997,7.6951012 40.00508,7.3515237 39.840163,7.0079462 39.716475,6.7880566 40.266199,6.1421309 40.774693,5.2900587 41.296931,4.4379865 41.722967,3.4622263 42.149003,2.4727231 42.437609,1.4694768 Z m -1.099448,3.7793526 1.525484,-1.5254842 0.04123,0.027486 V 14.346762 h -1.566713 z"
           style="font-weight:bold;font-family:'Noto Sans TC';-inkscape-font-specification:'Noto Sans TC Bold';fill:#ffffff"
           id="path69428" />
        <path
           d="m 56.826609,7.5714133 h 6.665403 v 1.2918514 h -6.665403 z m -0.192404,2.336327 h 7.09144 v 1.3468237 h -7.09144 z m 4.109187,-1.9377771 h 1.456769 v 6.1294228 h -1.456769 z m -2.679904,0.068716 h 1.415539 v 2.6249328 q 0,0.343577 -0.08246,0.810843 -0.08246,0.467265 -0.288605,1.003246 -0.192403,0.522238 -0.549724,1.003246 -0.35732,0.494752 -0.893301,0.865816 -0.17866,-0.21989 -0.494752,-0.508495 -0.316091,-0.274862 -0.563467,-0.439779 0.57721,-0.357321 0.893302,-0.865816 0.329834,-0.508494 0.439779,-1.016989 0.123688,-0.508495 0.123688,-0.852072 z M 55.204923,3.8470331 h 3.449518 V 4.918995 h -3.449518 z m 6.376798,0 h 3.463262 V 4.918995 h -3.463262 z m 2.817336,-1.8690616 h 1.621686 V 12.436471 q 0,0.632182 -0.137431,0.989503 -0.123688,0.371064 -0.508495,0.57721 -0.371064,0.206147 -0.920788,0.261119 -0.549724,0.05497 -1.346824,0.04123 -0.02749,-0.219889 -0.109944,-0.522237 -0.06872,-0.288606 -0.164918,-0.590954 -0.0962,-0.302348 -0.219889,-0.508494 0.467265,0.01374 0.907044,0.02749 0.43978,0 0.604697,-0.01374 0.151174,0 0.206146,-0.06872 0.06872,-0.06871 0.06872,-0.206146 z m -9.04296,0 h 4.34282 v 4.8788006 h -4.34282 V 5.6748655 h 2.803592 V 3.146135 h -2.803592 z m 9.895032,0 V 3.146135 h -3.092197 v 2.5699598 h 3.092197 V 6.8980014 H 60.592218 V 1.9779715 Z m -10.870792,0 H 55.98828 V 14.360505 h -1.607943 z"
           style="font-weight:bold;font-family:'Noto Sans TC';-inkscape-font-specification:'Noto Sans TC Bold';fill:#ffffff"
           id="path69430" />
        <path
           d="m 68.947999,4.0531796 h 3.435775 v 1.1681636 h -3.435775 z m 6.349312,0 h 3.463262 v 1.1681636 h -3.463262 z m 2.803593,-2.061465 h 1.676658 V 12.354012 q 0,0.714641 -0.17866,1.099448 -0.17866,0.39855 -0.61844,0.590953 -0.453522,0.206147 -1.15442,0.247376 -0.700898,0.05497 -1.704145,0.05497 -0.02749,-0.233633 -0.123687,-0.549724 -0.0962,-0.302349 -0.21989,-0.61844 -0.109945,-0.302348 -0.247376,-0.522238 0.439779,0.02749 0.893302,0.04123 0.453522,0 0.7971,0 0.35732,0 0.494751,0 0.21989,0 0.302348,-0.08246 0.08246,-0.08246 0.08246,-0.274862 z m -9.029217,0 h 4.329077 v 5.346066 H 69.071687 V 6.0046999 h 2.789849 V 3.3247953 h -2.789849 z m 9.922518,0 v 1.3330807 h -3.078454 v 2.7211339 h 3.078454 V 7.3652668 H 74.349038 V 1.9917146 Z m -10.857049,0 h 1.635429 V 14.360505 h -1.635429 z"
           style="font-weight:bold;font-family:'Noto Sans TC';-inkscape-font-specification:'Noto Sans TC Bold';fill:#ffffff"
           id="path69432" />
      </g>
      <g
         aria-label="Doors open on the LEFT side"
         id="text56184"
         style="font-size:7.56567px;line-height:1.25;fill:#ffffff;stroke-width:0.189143">
        <path
           d="m 14.29019,18.711434 q 0,1.301295 -0.559859,2.050297 -0.552294,0.741435 -1.482871,0.741435 h -1.74767 v -5.469979 h 1.740104 q 0.923012,0 1.482871,0.696041 0.567425,0.688476 0.567425,1.982206 z m -0.847355,0 q 0,-0.968406 -0.340455,-1.475306 -0.340455,-0.514465 -1.006234,-0.514465 h -0.779264 v 4.093027 h 0.794395 q 0.643082,0 0.983538,-0.537162 0.34802,-0.537163 0.34802,-1.566094 z"
           style="font-weight:800;font-family:'AR UDJingXiHeiE1C80B5HK EB';-inkscape-font-specification:'AR UDJingXiHeiE1C80B5HK EB Ultra-Bold'"
           id="path69381" />
        <path
           d="m 16.491791,17.342048 q 0.809527,0 1.233204,0.582556 0.431243,0.582557 0.431243,1.528266 0,1.028931 -0.431243,1.58879 -0.423677,0.55986 -1.233204,0.55986 -0.801961,0 -1.233204,-0.55986 -0.423678,-0.559859 -0.423678,-1.58879 0,-0.945709 0.423678,-1.528266 0.423677,-0.582556 1.233204,-0.582556 z m 0,0.650647 q -0.385849,0 -0.612819,0.363152 -0.219405,0.355587 -0.219405,1.097023 0,0.786829 0.22697,1.142416 0.22697,0.355586 0.605254,0.355586 0.393415,0 0.612819,-0.363152 0.22697,-0.363152 0.22697,-1.13485 0,-0.73387 -0.219404,-1.097023 -0.219405,-0.363152 -0.620385,-0.363152 z"
           style="font-weight:800;font-family:'AR UDJingXiHeiE1C80B5HK EB';-inkscape-font-specification:'AR UDJingXiHeiE1C80B5HK EB Ultra-Bold'"
           id="path69383" />
        <path
           d="m 20.327586,17.342048 q 0.809526,0 1.233204,0.582556 0.431243,0.582557 0.431243,1.528266 0,1.028931 -0.431243,1.58879 -0.423678,0.55986 -1.233204,0.55986 -0.801961,0 -1.233204,-0.55986 -0.423678,-0.559859 -0.423678,-1.58879 0,-0.945709 0.423678,-1.528266 0.423677,-0.582556 1.233204,-0.582556 z m 0,0.650647 q -0.385849,0 -0.61282,0.363152 -0.219404,0.355587 -0.219404,1.097023 0,0.786829 0.22697,1.142416 0.22697,0.355586 0.605254,0.355586 0.393415,0 0.612819,-0.363152 0.22697,-0.363152 0.22697,-1.13485 0,-0.73387 -0.219404,-1.097023 -0.219405,-0.363152 -0.620385,-0.363152 z"
           style="font-weight:800;font-family:'AR UDJingXiHeiE1C80B5HK EB';-inkscape-font-specification:'AR UDJingXiHeiE1C80B5HK EB Ultra-Bold'"
           id="path69385" />
        <path
           d="m 23.421945,21.503166 h -0.817093 v -4.07033 h 0.817093 v 0.605253 q 0.204273,-0.34802 0.45394,-0.5069 0.295061,-0.189141 0.620385,-0.189141 v 0.809526 q -0.340455,0 -0.658214,0.234536 -0.279929,0.204273 -0.416111,0.55986 z"
           style="font-weight:800;font-family:'AR UDJingXiHeiE1C80B5HK EB';-inkscape-font-specification:'AR UDJingXiHeiE1C80B5HK EB Ultra-Bold'"
           id="path69387" />
        <path
           d="m 24.753494,20.292659 h 0.809527 q 0.0076,0.310192 0.189142,0.484203 0.181576,0.166445 0.522031,0.166445 0.272364,0 0.446374,-0.136182 0.174011,-0.143748 0.174011,-0.38585 0,-0.219404 -0.189142,-0.363152 -0.189142,-0.143748 -0.627951,-0.310192 -0.741435,-0.27993 -1.006234,-0.567425 -0.257233,-0.287496 -0.257233,-0.688476 0,-0.476638 0.38585,-0.809527 0.385849,-0.340455 0.975971,-0.340455 0.650648,0 1.028931,0.363152 0.385849,0.355586 0.385849,0.892749 h -0.809526 q -0.03026,-0.302627 -0.189142,-0.446375 -0.151313,-0.151313 -0.408546,-0.151313 -0.242102,0 -0.393415,0.136182 -0.151313,0.128616 -0.151313,0.340455 0,0.234536 0.22697,0.385849 0.234535,0.143748 0.673344,0.310193 0.55986,0.211839 0.870052,0.491768 0.310193,0.27993 0.310193,0.741436 0,0.529597 -0.400981,0.862486 -0.393415,0.33289 -1.028931,0.33289 -0.688476,0 -1.112153,-0.363152 -0.423678,-0.363152 -0.423678,-0.945709 z"
           style="font-weight:800;font-family:'AR UDJingXiHeiE1C80B5HK EB';-inkscape-font-specification:'AR UDJingXiHeiE1C80B5HK EB Ultra-Bold'"
           id="path69389" />
        <path
           d="m 31.396142,17.342048 q 0.809526,0 1.233204,0.582556 0.431243,0.582557 0.431243,1.528266 0,1.028931 -0.431243,1.58879 -0.423678,0.55986 -1.233204,0.55986 -0.801961,0 -1.233205,-0.55986 -0.423677,-0.559859 -0.423677,-1.58879 0,-0.945709 0.423677,-1.528266 0.423678,-0.582556 1.233205,-0.582556 z m 0,0.650647 q -0.38585,0 -0.61282,0.363152 -0.219404,0.355587 -0.219404,1.097023 0,0.786829 0.22697,1.142416 0.22697,0.355586 0.605254,0.355586 0.393414,0 0.612819,-0.363152 0.22697,-0.363152 0.22697,-1.13485 0,-0.73387 -0.219404,-1.097023 -0.219405,-0.363152 -0.620385,-0.363152 z"
           style="font-weight:800;font-family:'AR UDJingXiHeiE1C80B5HK EB';-inkscape-font-specification:'AR UDJingXiHeiE1C80B5HK EB Ultra-Bold'"
           id="path69391" />
        <path
           d="m 33.665842,17.432836 h 0.817093 v 0.484203 q 0.17401,-0.257233 0.393415,-0.400981 0.272364,-0.17401 0.605253,-0.17401 0.696042,0 1.074325,0.590122 0.385849,0.582557 0.385849,1.535831 0,1.006234 -0.416111,1.573659 -0.408547,0.55986 -1.06676,0.55986 -0.302627,0 -0.582556,-0.166445 -0.234536,-0.136182 -0.393415,-0.40098 v 2.262135 h -0.817093 z m 0.817093,2.511802 q 0.03026,0.400981 0.264798,0.696042 0.242102,0.295061 0.55986,0.295061 0.378283,0 0.590122,-0.370718 0.219404,-0.370718 0.219404,-1.089456 0,-0.741436 -0.22697,-1.104588 -0.22697,-0.363152 -0.590122,-0.363152 -0.302627,0 -0.544728,0.287495 -0.234536,0.287496 -0.272364,0.68091 z"
           style="font-weight:800;font-family:'AR UDJingXiHeiE1C80B5HK EB';-inkscape-font-specification:'AR UDJingXiHeiE1C80B5HK EB Ultra-Bold'"
           id="path69393" />
        <path
           d="m 38.50786,20.617983 q 0.211839,0.325324 0.597688,0.325324 0.27993,0 0.469072,-0.136182 0.189142,-0.143748 0.242101,-0.38585 h 0.779264 q -0.09835,0.529597 -0.499334,0.854921 -0.40098,0.325324 -0.991103,0.325324 -0.771698,0 -1.202941,-0.567425 -0.423678,-0.574991 -0.423678,-1.550963 0,-0.975971 0.423678,-1.558528 0.423677,-0.582556 1.165113,-0.582556 0.764133,0 1.165113,0.590122 0.400981,0.582557 0.400981,1.762801 h -2.330227 q 0,0.620385 0.204273,0.923012 z m 1.104588,-2.292398 q -0.196707,-0.325324 -0.537162,-0.325324 -0.33289,0 -0.552294,0.302627 -0.204273,0.27993 -0.219405,0.832223 h 1.498003 q -0.0076,-0.529596 -0.189142,-0.809526 z"
           style="font-weight:800;font-family:'AR UDJingXiHeiE1C80B5HK EB';-inkscape-font-specification:'AR UDJingXiHeiE1C80B5HK EB Ultra-Bold'"
           id="path69395" />
        <path
           d="m 42.010761,21.503166 h -0.817092 v -4.07033 h 0.817092 v 0.416112 q 0.143748,-0.189142 0.378284,-0.33289 0.287495,-0.17401 0.620385,-0.17401 0.522031,0 0.817092,0.340455 0.302627,0.332889 0.302627,0.975971 v 2.844692 h -0.817092 v -2.753904 q 0,-0.363152 -0.128617,-0.544728 -0.121051,-0.189142 -0.370718,-0.189142 -0.22697,0 -0.484203,0.234536 -0.211838,0.196708 -0.317758,0.446375 z"
           style="font-weight:800;font-family:'AR UDJingXiHeiE1C80B5HK EB';-inkscape-font-specification:'AR UDJingXiHeiE1C80B5HK EB Ultra-Bold'"
           id="path69397" />
        <path
           d="m 47.964934,17.342048 q 0.809527,0 1.233204,0.582556 0.431243,0.582557 0.431243,1.528266 0,1.028931 -0.431243,1.58879 -0.423677,0.55986 -1.233204,0.55986 -0.801961,0 -1.233204,-0.55986 -0.423678,-0.559859 -0.423678,-1.58879 0,-0.945709 0.423678,-1.528266 0.423677,-0.582556 1.233204,-0.582556 z m 0,0.650647 q -0.385849,0 -0.612819,0.363152 -0.219405,0.355587 -0.219405,1.097023 0,0.786829 0.22697,1.142416 0.22697,0.355586 0.605254,0.355586 0.393415,0 0.612819,-0.363152 0.22697,-0.363152 0.22697,-1.13485 0,-0.73387 -0.219404,-1.097023 -0.219405,-0.363152 -0.620385,-0.363152 z"
           style="font-weight:800;font-family:'AR UDJingXiHeiE1C80B5HK EB';-inkscape-font-specification:'AR UDJingXiHeiE1C80B5HK EB Ultra-Bold'"
           id="path69399" />
        <path
           d="m 51.066856,21.503166 h -0.817092 v -4.07033 h 0.817092 v 0.416112 q 0.143748,-0.189142 0.378284,-0.33289 0.287495,-0.17401 0.620385,-0.17401 0.522031,0 0.817092,0.340455 0.302627,0.332889 0.302627,0.975971 v 2.844692 h -0.817092 v -2.753904 q 0,-0.363152 -0.128617,-0.544728 -0.12105,-0.189142 -0.370718,-0.189142 -0.22697,0 -0.484202,0.234536 -0.211839,0.196708 -0.317759,0.446375 z"
           style="font-weight:800;font-family:'AR UDJingXiHeiE1C80B5HK EB';-inkscape-font-specification:'AR UDJingXiHeiE1C80B5HK EB Ultra-Bold'"
           id="path69401" />
        <path
           d="m 55.159874,18.083483 v -0.650647 h 0.552294 v -1.006234 h 0.817092 v 1.006234 h 0.627951 v 0.650647 H 56.52926 v 2.42858 q 0,0.181577 0.07566,0.264799 0.07566,0.07566 0.22697,0.07566 h 0.325324 v 0.650647 H 56.52926 q -0.416111,0 -0.620384,-0.234536 -0.196708,-0.234535 -0.196708,-0.658213 v -2.526934 z"
           style="font-weight:800;font-family:'AR UDJingXiHeiE1C80B5HK EB';-inkscape-font-specification:'AR UDJingXiHeiE1C80B5HK EB Ultra-Bold'"
           id="path69403" />
        <path
           d="m 59.434468,17.342048 q 0.537162,0 0.832223,0.355586 0.302627,0.355587 0.302627,0.998669 v 2.806863 h -0.817092 v -2.716075 q 0,-0.393415 -0.128617,-0.582557 -0.12105,-0.189142 -0.370717,-0.189142 -0.249668,0 -0.491769,0.234536 -0.189142,0.181576 -0.302627,0.499334 v 2.753904 h -0.817092 v -5.742343 h 0.817092 v 2.118387 q 0.158879,-0.22697 0.385849,-0.363152 0.27993,-0.17401 0.590123,-0.17401 z"
           style="font-weight:800;font-family:'AR UDJingXiHeiE1C80B5HK EB';-inkscape-font-specification:'AR UDJingXiHeiE1C80B5HK EB Ultra-Bold'"
           id="path69405" />
        <path
           d="m 62.211056,20.617983 q 0.211839,0.325324 0.597688,0.325324 0.27993,0 0.469071,-0.136182 0.189142,-0.143748 0.242102,-0.38585 h 0.779264 q -0.09835,0.529597 -0.499334,0.854921 -0.400981,0.325324 -0.991103,0.325324 -0.771699,0 -1.202942,-0.567425 -0.423677,-0.574991 -0.423677,-1.550963 0,-0.975971 0.423677,-1.558528 0.423678,-0.582556 1.165113,-0.582556 0.764133,0 1.165114,0.590122 0.40098,0.582557 0.40098,1.762801 h -2.330226 q 0,0.620385 0.204273,0.923012 z m 1.104588,-2.292398 q -0.196708,-0.325324 -0.537163,-0.325324 -0.332889,0 -0.552294,0.302627 -0.204273,0.27993 -0.219404,0.832223 h 1.498002 q -0.0076,-0.529596 -0.189141,-0.809526 z"
           style="font-weight:800;font-family:'AR UDJingXiHeiE1C80B5HK EB';-inkscape-font-specification:'AR UDJingXiHeiE1C80B5HK EB Ultra-Bold'"
           id="path69407" />
        <path
           d="m 67.431358,16.033187 v 4.781503 h 2.315095 v 0.688476 h -3.132187 v -5.469979 z"
           style="font-weight:800;font-family:'AR UDJingXiHeiE1C80B5HK EB';-inkscape-font-specification:'AR UDJingXiHeiE1C80B5HK EB Ultra-Bold'"
           id="path69409" />
        <path
           d="m 70.321437,16.033187 h 3.275935 v 0.688476 H 71.13853 v 1.626619 h 2.299963 v 0.696041 H 71.13853 v 1.770367 h 2.48154 v 0.688476 h -3.298633 z"
           style="font-weight:800;font-family:'AR UDJingXiHeiE1C80B5HK EB';-inkscape-font-specification:'AR UDJingXiHeiE1C80B5HK EB Ultra-Bold'"
           id="path69411" />
        <path
           d="m 74.452289,16.033187 h 3.124622 v 0.688476 h -2.30753 v 1.626619 h 2.0276 v 0.696041 h -2.0276 v 2.458843 h -0.817092 z"
           style="font-weight:800;font-family:'AR UDJingXiHeiE1C80B5HK EB';-inkscape-font-specification:'AR UDJingXiHeiE1C80B5HK EB Ultra-Bold'"
           id="path69413" />
        <path
           d="m 77.902231,16.729228 v -0.696041 h 3.548299 v 0.696041 h -1.361821 v 4.773938 h -0.824658 v -4.773938 z"
           style="font-weight:800;font-family:'AR UDJingXiHeiE1C80B5HK EB';-inkscape-font-specification:'AR UDJingXiHeiE1C80B5HK EB Ultra-Bold'"
           id="path69415" />
        <path
           d="m 83.304104,20.292659 h 0.809526 q 0.0076,0.310192 0.189142,0.484203 0.181576,0.166445 0.522031,0.166445 0.272365,0 0.446375,-0.136182 0.17401,-0.143748 0.17401,-0.38585 0,-0.219404 -0.189141,-0.363152 -0.189142,-0.143748 -0.627951,-0.310192 -0.741436,-0.27993 -1.006234,-0.567425 -0.257233,-0.287496 -0.257233,-0.688476 0,-0.476638 0.385849,-0.809527 0.385849,-0.340455 0.975972,-0.340455 0.650647,0 1.028931,0.363152 0.385849,0.355586 0.385849,0.892749 h -0.809527 q -0.03026,-0.302627 -0.189141,-0.446375 -0.151314,-0.151313 -0.408547,-0.151313 -0.242101,0 -0.393414,0.136182 -0.151314,0.128616 -0.151314,0.340455 0,0.234536 0.22697,0.385849 0.234536,0.143748 0.673345,0.310193 0.559859,0.211839 0.870052,0.491768 0.310192,0.27993 0.310192,0.741436 0,0.529597 -0.40098,0.862486 -0.393415,0.33289 -1.028931,0.33289 -0.688476,0 -1.112154,-0.363152 -0.423677,-0.363152 -0.423677,-0.945709 z"
           style="font-weight:800;font-family:'AR UDJingXiHeiE1C80B5HK EB';-inkscape-font-specification:'AR UDJingXiHeiE1C80B5HK EB Ultra-Bold'"
           id="path69417" />
        <path
           d="m 87.692183,15.897005 v 0.85492 h -0.877618 v -0.85492 z m -0.03026,1.535831 v 4.07033 H 86.84483 v -4.07033 z"
           style="font-weight:800;font-family:'AR UDJingXiHeiE1C80B5HK EB';-inkscape-font-specification:'AR UDJingXiHeiE1C80B5HK EB Ultra-Bold'"
           id="path69419" />
        <path
           d="m 90.741141,15.760823 h 0.817093 v 5.742343 h -0.817093 v -0.499334 q -0.158879,0.27993 -0.393415,0.423677 -0.279929,0.174011 -0.567425,0.174011 -0.665779,0 -1.066759,-0.55986 -0.400981,-0.559859 -0.408547,-1.573659 0,-0.945709 0.378284,-1.535831 0.378283,-0.590122 1.066759,-0.590122 0.317759,0 0.597688,0.17401 0.234536,0.143748 0.393415,0.393415 z m -1.603922,3.722309 q 0,0.696042 0.204273,1.074325 0.204273,0.378284 0.582557,0.378284 0.325324,0 0.567425,-0.317758 0.242102,-0.325324 0.249667,-0.801961 v -0.779264 q -0.0076,-0.400981 -0.249667,-0.711173 -0.234536,-0.317758 -0.552294,-0.317758 -0.370718,0 -0.590122,0.370717 -0.211839,0.370718 -0.211839,1.104588 z"
           style="font-weight:800;font-family:'AR UDJingXiHeiE1C80B5HK EB';-inkscape-font-specification:'AR UDJingXiHeiE1C80B5HK EB Ultra-Bold'"
           id="path69421" />
        <path
           d="m 93.20755,20.617983 q 0.211839,0.325324 0.597688,0.325324 0.27993,0 0.469072,-0.136182 0.189141,-0.143748 0.242101,-0.38585 h 0.779264 q -0.09835,0.529597 -0.499334,0.854921 -0.400981,0.325324 -0.991103,0.325324 -0.771698,0 -1.202941,-0.567425 -0.423678,-0.574991 -0.423678,-1.550963 0,-0.975971 0.423678,-1.558528 0.423677,-0.582556 1.165113,-0.582556 0.764132,0 1.165113,0.590122 0.40098,0.582557 0.40098,1.762801 h -2.330226 q 0,0.620385 0.204273,0.923012 z m 1.104588,-2.292398 q -0.196707,-0.325324 -0.537163,-0.325324 -0.332889,0 -0.552293,0.302627 -0.204274,0.27993 -0.219405,0.832223 h 1.498003 q -0.0076,-0.529596 -0.189142,-0.809526 z"
           style="font-weight:800;font-family:'AR UDJingXiHeiE1C80B5HK EB';-inkscape-font-specification:'AR UDJingXiHeiE1C80B5HK EB Ultra-Bold'"
           id="path69423" />
      </g>
    </g>
  </g>
  <style
     type="text/css"
     id="style824">
	.st0{fill:#38B035;}
	.st1{fill:#007AB0;}
</style>
</svg>
