<?xml version="1.0" encoding="UTF-8" standalone="no"?>
<!-- Created with Inkscape (http://www.inkscape.org/) -->

<svg
   width="1000"
   height="250"
   viewBox="0 0 264.58332 66.145835"
   version="1.1"
   id="svg5"
   inkscape:version="1.1 (c68e22c387, 2021-05-23)"
   sodipodi:docname="O_logo.svg"
   xmlns:inkscape="http://www.inkscape.org/namespaces/inkscape"
   xmlns:sodipodi="http://sodipodi.sourceforge.net/DTD/sodipodi-0.dtd"
   xmlns="http://www.w3.org/2000/svg"
   xmlns:svg="http://www.w3.org/2000/svg">
  <sodipodi:namedview
     id="namedview7"
     pagecolor="#505050"
     bordercolor="#ffffff"
     borderopacity="1"
     inkscape:pageshadow="0"
     inkscape:pageopacity="0"
     inkscape:pagecheckerboard="1"
     inkscape:document-units="mm"
     showgrid="false"
     units="px"
     inkscape:zoom="0.96253026"
     inkscape:cx="451.93384"
     inkscape:cy="42.596063"
     inkscape:window-width="1920"
     inkscape:window-height="1009"
     inkscape:window-x="1912"
     inkscape:window-y="-8"
     inkscape:window-maximized="1"
     inkscape:current-layer="layer1" />
  <defs
     id="defs2">
    <rect
       x="229.20559"
       y="161.61933"
       width="728.57797"
       height="176.45595"
       id="rect12841" />
    <rect
       x="224.06316"
       y="51.424331"
       width="603.13395"
       height="130.76473"
       id="rect1827" />
    <clipPath
       id="clip_1791">
      <path
         transform="matrix(1,0,0,-1,0,595.276)"
         d="M 0,-0.001 H 841.89 V 595.275 H 0 Z"
         id="path17" />
    </clipPath>
    <clipPath
       id="clip_1807">
      <path
         transform="matrix(1,0,0,-1,0,595.276)"
         d="M 0,-0.001 H 841.89 V 595.275 H 0 Z"
         id="path65" />
    </clipPath>
    <clipPath
       id="clip_1791-1">
      <path
         transform="matrix(1,0,0,-1,0,595.276)"
         d="M 0,-0.001 H 841.89 V 595.275 H 0 Z"
         id="path17-1" />
    </clipPath>
    <clipPath
       id="clip_1815">
      <path
         transform="matrix(1,0,0,-1,0,595.276)"
         d="M 0,-0.001 H 841.89 V 595.275 H 0 Z"
         id="path89" />
    </clipPath>
    <clipPath
       id="clip_1809">
      <path
         transform="matrix(1,0,0,-1,0,595.276)"
         d="M 0,-0.001 H 841.89 V 595.275 H 0 Z"
         id="path71" />
    </clipPath>
    <clipPath
       id="clip_1793">
      <path
         transform="matrix(1,0,0,-1,0,595.276)"
         d="M 0,-0.001 H 841.89 V 595.275 H 0 Z"
         id="path23" />
    </clipPath>
    <clipPath
       id="clip_1799">
      <path
         transform="matrix(1,0,0,-1,0,595.276)"
         d="M 0,-0.001 H 841.89 V 595.275 H 0 Z"
         id="path41" />
    </clipPath>
    <clipPath
       id="clip_1817">
      <path
         transform="matrix(1,0,0,-1,0,595.276)"
         d="M 0,-0.001 H 841.89 V 595.275 H 0 Z"
         id="path95" />
    </clipPath>
    <clipPath
       id="clip_1803">
      <path
         transform="matrix(1,0,0,-1,0,595.276)"
         d="M 0,-0.001 H 841.89 V 595.275 H 0 Z"
         id="path53" />
    </clipPath>
    <clipPath
       id="clip_1813">
      <path
         transform="matrix(1,0,0,-1,0,595.276)"
         d="M 0,-0.001 H 841.89 V 595.275 H 0 Z"
         id="path83" />
    </clipPath>
    <clipPath
       id="clip_1805">
      <path
         transform="matrix(1,0,0,-1,0,595.276)"
         d="M 0,-0.001 H 841.89 V 595.275 H 0 Z"
         id="path59" />
    </clipPath>
    <clipPath
       id="clip_1795">
      <path
         transform="matrix(1,0,0,-1,0,595.276)"
         d="M 0,-0.001 H 841.89 V 595.275 H 0 Z"
         id="path29" />
    </clipPath>
    <clipPath
       id="clip_1801">
      <path
         transform="matrix(1,0,0,-1,0,595.276)"
         d="M 0,-0.001 H 841.89 V 595.275 H 0 Z"
         id="path47" />
    </clipPath>
    <clipPath
       id="clip_1819">
      <path
         transform="matrix(1,0,0,-1,0,595.276)"
         d="M 0,-0.001 H 841.89 V 595.275 H 0 Z"
         id="path101" />
    </clipPath>
    <clipPath
       id="clip_1827">
      <path
         transform="matrix(1,0,0,-1,0,595.276)"
         d="M 0,-0.001 H 841.89 V 595.275 H 0 Z"
         id="path125" />
    </clipPath>
    <clipPath
       id="clip_1821">
      <path
         transform="matrix(1,0,0,-1,0,595.276)"
         d="M 0,-0.001 H 841.89 V 595.275 H 0 Z"
         id="path107" />
    </clipPath>
    <clipPath
       id="clip_1811">
      <path
         transform="matrix(1,0,0,-1,0,595.276)"
         d="M 0,-0.001 H 841.89 V 595.275 H 0 Z"
         id="path77" />
    </clipPath>
    <clipPath
       id="clip_1829">
      <path
         transform="matrix(1,0,0,-1,0,595.276)"
         d="M 0,-0.001 H 841.89 V 595.275 H 0 Z"
         id="path131" />
    </clipPath>
    <clipPath
       id="clip_1825">
      <path
         transform="matrix(1,0,0,-1,0,595.276)"
         d="M 0,-0.001 H 841.89 V 595.275 H 0 Z"
         id="path119" />
    </clipPath>
    <clipPath
       id="clip_2156">
      <path
         transform="matrix(1,0,0,-1,0,595.276)"
         d="M 0,-0.001 H 841.89 V 595.275 H 0 Z"
         id="path397" />
    </clipPath>
    <clipPath
       id="clip_2087">
      <path
         transform="matrix(1,0,0,-1,0,595.276)"
         d="M 0,-0.001 H 841.89 V 595.275 H 0 Z"
         id="path70" />
    </clipPath>
    <clipPath
       id="clip_2160">
      <path
         transform="matrix(1,0,0,-1,0,595.276)"
         d="M 0,-0.001 H 841.89 V 595.275 H 0 Z"
         id="path415" />
    </clipPath>
    <clipPath
       id="clip_2125">
      <path
         transform="matrix(1,0,0,-1,0,595.276)"
         d="M 0,-0.001 H 841.89 V 595.275 H 0 Z"
         id="path252" />
    </clipPath>
    <clipPath
       id="clip_2129">
      <path
         transform="matrix(1,0,0,-1,0,595.276)"
         d="M 0,-0.001 H 841.89 V 595.275 H 0 Z"
         id="path271" />
    </clipPath>
    <clipPath
       id="clip_2131">
      <path
         transform="matrix(1,0,0,-1,0,595.276)"
         d="M 0,-0.001 H 841.89 V 595.275 H 0 Z"
         id="path278" />
    </clipPath>
    <clipPath
       id="clip_2127">
      <path
         transform="matrix(1,0,0,-1,0,595.276)"
         d="M 0,-0.001 H 841.89 V 595.275 H 0 Z"
         id="path264" />
    </clipPath>
    <clipPath
       id="clip_2135">
      <path
         transform="matrix(1,0,0,-1,0,595.276)"
         d="M 0,-0.001 H 841.89 V 595.275 H 0 Z"
         id="path294" />
    </clipPath>
    <clipPath
       id="clip_2133">
      <path
         transform="matrix(1,0,0,-1,0,595.276)"
         d="M 0,-0.001 H 841.89 V 595.275 H 0 Z"
         id="path286" />
    </clipPath>
    <clipPath
       id="clip_2137">
      <path
         transform="matrix(1,0,0,-1,0,595.276)"
         d="M 0,-0.001 H 841.89 V 595.275 H 0 Z"
         id="path303" />
    </clipPath>
    <clipPath
       id="clip_2146">
      <path
         transform="matrix(1,0,0,-1,0,595.276)"
         d="M 0,-0.001 H 841.89 V 595.275 H 0 Z"
         id="path345" />
    </clipPath>
    <clipPath
       id="clip_2141">
      <path
         transform="matrix(1,0,0,-1,0,595.276)"
         d="M 0,-0.001 H 841.89 V 595.275 H 0 Z"
         id="path322" />
    </clipPath>
    <clipPath
       id="clip_2143">
      <path
         transform="matrix(1,0,0,-1,0,595.276)"
         d="M 0,-0.001 H 841.89 V 595.275 H 0 Z"
         id="path330" />
    </clipPath>
    <clipPath
       id="clip_2123">
      <path
         transform="matrix(1,0,0,-1,0,595.276)"
         d="M 0,-0.001 H 841.89 V 595.275 H 0 Z"
         id="path241" />
    </clipPath>
    <clipPath
       id="clip_2208">
      <path
         transform="matrix(1,0,0,-1,0,595.276)"
         d="m -69.189,-0.001 h 841.89 v 595.276 h -841.89 z"
         id="path200" />
    </clipPath>
    <clipPath
       id="clip_2212">
      <path
         transform="matrix(1,0,0,-1,0,595.276)"
         d="m -69.189,-0.001 h 841.89 v 595.276 h -841.89 z"
         id="path214" />
    </clipPath>
    <clipPath
       id="clip_2206">
      <path
         transform="matrix(1,0,0,-1,0,595.276)"
         d="m -69.189,-0.001 h 841.89 v 595.276 h -841.89 z"
         id="path194" />
    </clipPath>
    <clipPath
       id="clip_2198">
      <path
         transform="matrix(1,0,0,-1,0,595.276)"
         d="m -69.189,-0.001 h 841.89 v 595.276 h -841.89 z"
         id="path162" />
    </clipPath>
    <clipPath
       id="clip_2200">
      <path
         transform="matrix(1,0,0,-1,0,595.276)"
         d="m -69.189,-0.001 h 841.89 v 595.276 h -841.89 z"
         id="path171" />
    </clipPath>
    <clipPath
       id="clip_2202">
      <path
         transform="matrix(1,0,0,-1,0,595.276)"
         d="m -69.189,-0.001 h 841.89 v 595.276 h -841.89 z"
         id="path177" />
    </clipPath>
    <clipPath
       id="clip_2189">
      <path
         transform="matrix(1,0,0,-1,0,595.276)"
         d="m -69.189,-0.001 h 841.89 v 595.276 h -841.89 z"
         id="path112" />
    </clipPath>
    <clipPath
       id="clip_2191">
      <path
         transform="matrix(1,0,0,-1,0,595.276)"
         d="m -69.189,-0.001 h 841.89 v 595.276 h -841.89 z"
         id="path122" />
    </clipPath>
    <clipPath
       id="clip_2195">
      <path
         transform="matrix(1,0,0,-1,0,595.276)"
         d="m -69.189,-0.001 h 841.89 v 595.276 h -841.89 z"
         id="path143" />
    </clipPath>
    <clipPath
       id="clip_2195-0">
      <path
         transform="matrix(1,0,0,-1,0,595.276)"
         d="m -69.189,-0.001 h 841.89 v 595.276 h -841.89 z"
         id="path143-0" />
    </clipPath>
    <clipPath
       id="clip_2169">
      <path
         transform="matrix(1,0,0,-1,0,595.276)"
         d="m -69.189,-0.001 h 841.89 v 595.276 h -841.89 z"
         id="path21" />
    </clipPath>
    <clipPath
       id="clip_1791-0">
      <path
         transform="matrix(1,0,0,-1,0,595.276)"
         d="M 0,-0.001 H 841.89 V 595.275 H 0 Z"
         id="path17-0" />
    </clipPath>
    <clipPath
       id="clip_1807-5">
      <path
         transform="matrix(1,0,0,-1,0,595.276)"
         d="M 0,-0.001 H 841.89 V 595.275 H 0 Z"
         id="path65-3" />
    </clipPath>
    <clipPath
       id="clip_1791-1-8">
      <path
         transform="matrix(1,0,0,-1,0,595.276)"
         d="M 0,-0.001 H 841.89 V 595.275 H 0 Z"
         id="path17-1-6" />
    </clipPath>
    <clipPath
       id="clip_1815-8">
      <path
         transform="matrix(1,0,0,-1,0,595.276)"
         d="M 0,-0.001 H 841.89 V 595.275 H 0 Z"
         id="path89-6" />
    </clipPath>
    <clipPath
       id="clip_1809-6">
      <path
         transform="matrix(1,0,0,-1,0,595.276)"
         d="M 0,-0.001 H 841.89 V 595.275 H 0 Z"
         id="path71-5" />
    </clipPath>
    <clipPath
       id="clip_1793-7">
      <path
         transform="matrix(1,0,0,-1,0,595.276)"
         d="M 0,-0.001 H 841.89 V 595.275 H 0 Z"
         id="path23-6" />
    </clipPath>
    <clipPath
       id="clip_1799-5">
      <path
         transform="matrix(1,0,0,-1,0,595.276)"
         d="M 0,-0.001 H 841.89 V 595.275 H 0 Z"
         id="path41-3" />
    </clipPath>
    <clipPath
       id="clip_1817-6">
      <path
         transform="matrix(1,0,0,-1,0,595.276)"
         d="M 0,-0.001 H 841.89 V 595.275 H 0 Z"
         id="path95-8" />
    </clipPath>
    <clipPath
       id="clip_1803-1">
      <path
         transform="matrix(1,0,0,-1,0,595.276)"
         d="M 0,-0.001 H 841.89 V 595.275 H 0 Z"
         id="path53-4" />
    </clipPath>
    <clipPath
       id="clip_1813-3">
      <path
         transform="matrix(1,0,0,-1,0,595.276)"
         d="M 0,-0.001 H 841.89 V 595.275 H 0 Z"
         id="path83-5" />
    </clipPath>
    <clipPath
       id="clip_1805-8">
      <path
         transform="matrix(1,0,0,-1,0,595.276)"
         d="M 0,-0.001 H 841.89 V 595.275 H 0 Z"
         id="path59-0" />
    </clipPath>
    <clipPath
       id="clip_1795-9">
      <path
         transform="matrix(1,0,0,-1,0,595.276)"
         d="M 0,-0.001 H 841.89 V 595.275 H 0 Z"
         id="path29-1" />
    </clipPath>
    <clipPath
       id="clip_1801-6">
      <path
         transform="matrix(1,0,0,-1,0,595.276)"
         d="M 0,-0.001 H 841.89 V 595.275 H 0 Z"
         id="path47-2" />
    </clipPath>
    <clipPath
       id="clip_1819-9">
      <path
         transform="matrix(1,0,0,-1,0,595.276)"
         d="M 0,-0.001 H 841.89 V 595.275 H 0 Z"
         id="path101-6" />
    </clipPath>
    <clipPath
       id="clip_1827-4">
      <path
         transform="matrix(1,0,0,-1,0,595.276)"
         d="M 0,-0.001 H 841.89 V 595.275 H 0 Z"
         id="path125-5" />
    </clipPath>
    <clipPath
       id="clip_1821-6">
      <path
         transform="matrix(1,0,0,-1,0,595.276)"
         d="M 0,-0.001 H 841.89 V 595.275 H 0 Z"
         id="path107-8" />
    </clipPath>
    <clipPath
       id="clip_1811-1">
      <path
         transform="matrix(1,0,0,-1,0,595.276)"
         d="M 0,-0.001 H 841.89 V 595.275 H 0 Z"
         id="path77-3" />
    </clipPath>
    <clipPath
       id="clip_1829-1">
      <path
         transform="matrix(1,0,0,-1,0,595.276)"
         d="M 0,-0.001 H 841.89 V 595.275 H 0 Z"
         id="path131-8" />
    </clipPath>
    <clipPath
       id="clip_1825-5">
      <path
         transform="matrix(1,0,0,-1,0,595.276)"
         d="M 0,-0.001 H 841.89 V 595.275 H 0 Z"
         id="path119-2" />
    </clipPath>
    <clipPath
       id="clip_2156-4">
      <path
         transform="matrix(1,0,0,-1,0,595.276)"
         d="M 0,-0.001 H 841.89 V 595.275 H 0 Z"
         id="path397-3" />
    </clipPath>
    <clipPath
       id="clip_2087-1">
      <path
         transform="matrix(1,0,0,-1,0,595.276)"
         d="M 0,-0.001 H 841.89 V 595.275 H 0 Z"
         id="path70-2" />
    </clipPath>
    <clipPath
       id="clip_2160-0">
      <path
         transform="matrix(1,0,0,-1,0,595.276)"
         d="M 0,-0.001 H 841.89 V 595.275 H 0 Z"
         id="path415-2" />
    </clipPath>
    <clipPath
       id="clip_2125-3">
      <path
         transform="matrix(1,0,0,-1,0,595.276)"
         d="M 0,-0.001 H 841.89 V 595.275 H 0 Z"
         id="path252-2" />
    </clipPath>
    <clipPath
       id="clip_2129-7">
      <path
         transform="matrix(1,0,0,-1,0,595.276)"
         d="M 0,-0.001 H 841.89 V 595.275 H 0 Z"
         id="path271-3" />
    </clipPath>
    <clipPath
       id="clip_2131-8">
      <path
         transform="matrix(1,0,0,-1,0,595.276)"
         d="M 0,-0.001 H 841.89 V 595.275 H 0 Z"
         id="path278-2" />
    </clipPath>
    <clipPath
       id="clip_2127-5">
      <path
         transform="matrix(1,0,0,-1,0,595.276)"
         d="M 0,-0.001 H 841.89 V 595.275 H 0 Z"
         id="path264-7" />
    </clipPath>
    <clipPath
       id="clip_2135-0">
      <path
         transform="matrix(1,0,0,-1,0,595.276)"
         d="M 0,-0.001 H 841.89 V 595.275 H 0 Z"
         id="path294-9" />
    </clipPath>
    <clipPath
       id="clip_2133-9">
      <path
         transform="matrix(1,0,0,-1,0,595.276)"
         d="M 0,-0.001 H 841.89 V 595.275 H 0 Z"
         id="path286-9" />
    </clipPath>
    <clipPath
       id="clip_2137-9">
      <path
         transform="matrix(1,0,0,-1,0,595.276)"
         d="M 0,-0.001 H 841.89 V 595.275 H 0 Z"
         id="path303-1" />
    </clipPath>
    <clipPath
       id="clip_2146-0">
      <path
         transform="matrix(1,0,0,-1,0,595.276)"
         d="M 0,-0.001 H 841.89 V 595.275 H 0 Z"
         id="path345-2" />
    </clipPath>
    <clipPath
       id="clip_2141-7">
      <path
         transform="matrix(1,0,0,-1,0,595.276)"
         d="M 0,-0.001 H 841.89 V 595.275 H 0 Z"
         id="path322-0" />
    </clipPath>
    <clipPath
       id="clip_2143-2">
      <path
         transform="matrix(1,0,0,-1,0,595.276)"
         d="M 0,-0.001 H 841.89 V 595.275 H 0 Z"
         id="path330-1" />
    </clipPath>
    <clipPath
       id="clip_2123-6">
      <path
         transform="matrix(1,0,0,-1,0,595.276)"
         d="M 0,-0.001 H 841.89 V 595.275 H 0 Z"
         id="path241-9" />
    </clipPath>
    <clipPath
       id="clip_2208-8">
      <path
         transform="matrix(1,0,0,-1,0,595.276)"
         d="m -69.189,-0.001 h 841.89 v 595.276 h -841.89 z"
         id="path200-1" />
    </clipPath>
    <clipPath
       id="clip_2212-3">
      <path
         transform="matrix(1,0,0,-1,0,595.276)"
         d="m -69.189,-0.001 h 841.89 v 595.276 h -841.89 z"
         id="path214-2" />
    </clipPath>
    <clipPath
       id="clip_2206-4">
      <path
         transform="matrix(1,0,0,-1,0,595.276)"
         d="m -69.189,-0.001 h 841.89 v 595.276 h -841.89 z"
         id="path194-2" />
    </clipPath>
    <clipPath
       id="clip_2198-7">
      <path
         transform="matrix(1,0,0,-1,0,595.276)"
         d="m -69.189,-0.001 h 841.89 v 595.276 h -841.89 z"
         id="path162-6" />
    </clipPath>
    <clipPath
       id="clip_2200-1">
      <path
         transform="matrix(1,0,0,-1,0,595.276)"
         d="m -69.189,-0.001 h 841.89 v 595.276 h -841.89 z"
         id="path171-3" />
    </clipPath>
    <clipPath
       id="clip_2202-5">
      <path
         transform="matrix(1,0,0,-1,0,595.276)"
         d="m -69.189,-0.001 h 841.89 v 595.276 h -841.89 z"
         id="path177-4" />
    </clipPath>
    <clipPath
       id="clip_2189-9">
      <path
         transform="matrix(1,0,0,-1,0,595.276)"
         d="m -69.189,-0.001 h 841.89 v 595.276 h -841.89 z"
         id="path112-0" />
    </clipPath>
    <clipPath
       id="clip_2191-7">
      <path
         transform="matrix(1,0,0,-1,0,595.276)"
         d="m -69.189,-0.001 h 841.89 v 595.276 h -841.89 z"
         id="path122-0" />
    </clipPath>
    <clipPath
       id="clip_2195-6">
      <path
         transform="matrix(1,0,0,-1,0,595.276)"
         d="m -69.189,-0.001 h 841.89 v 595.276 h -841.89 z"
         id="path143-8" />
    </clipPath>
    <clipPath
       id="clip_2195-0-8">
      <path
         transform="matrix(1,0,0,-1,0,595.276)"
         d="m -69.189,-0.001 h 841.89 v 595.276 h -841.89 z"
         id="path143-0-7" />
    </clipPath>
    <clipPath
       id="clip_2169-7">
      <path
         transform="matrix(1,0,0,-1,0,595.276)"
         d="m -69.189,-0.001 h 841.89 v 595.276 h -841.89 z"
         id="path21-9" />
    </clipPath>
    <clipPath
       id="clip_1791-8">
      <path
         transform="matrix(1,0,0,-1,0,595.276)"
         d="M 0,-0.001 H 841.89 V 595.275 H 0 Z"
         id="path17-8" />
    </clipPath>
    <clipPath
       id="clip_1807-4">
      <path
         transform="matrix(1,0,0,-1,0,595.276)"
         d="M 0,-0.001 H 841.89 V 595.275 H 0 Z"
         id="path65-8" />
    </clipPath>
    <clipPath
       id="clip_1791-1-6">
      <path
         transform="matrix(1,0,0,-1,0,595.276)"
         d="M 0,-0.001 H 841.89 V 595.275 H 0 Z"
         id="path17-1-65" />
    </clipPath>
    <clipPath
       id="clip_1815-5">
      <path
         transform="matrix(1,0,0,-1,0,595.276)"
         d="M 0,-0.001 H 841.89 V 595.275 H 0 Z"
         id="path89-7" />
    </clipPath>
    <clipPath
       id="clip_1809-9">
      <path
         transform="matrix(1,0,0,-1,0,595.276)"
         d="M 0,-0.001 H 841.89 V 595.275 H 0 Z"
         id="path71-0" />
    </clipPath>
    <clipPath
       id="clip_1793-6">
      <path
         transform="matrix(1,0,0,-1,0,595.276)"
         d="M 0,-0.001 H 841.89 V 595.275 H 0 Z"
         id="path23-5" />
    </clipPath>
    <clipPath
       id="clip_1799-0">
      <path
         transform="matrix(1,0,0,-1,0,595.276)"
         d="M 0,-0.001 H 841.89 V 595.275 H 0 Z"
         id="path41-4" />
    </clipPath>
    <clipPath
       id="clip_1817-9">
      <path
         transform="matrix(1,0,0,-1,0,595.276)"
         d="M 0,-0.001 H 841.89 V 595.275 H 0 Z"
         id="path95-0" />
    </clipPath>
    <clipPath
       id="clip_1803-9">
      <path
         transform="matrix(1,0,0,-1,0,595.276)"
         d="M 0,-0.001 H 841.89 V 595.275 H 0 Z"
         id="path53-8" />
    </clipPath>
    <clipPath
       id="clip_1813-0">
      <path
         transform="matrix(1,0,0,-1,0,595.276)"
         d="M 0,-0.001 H 841.89 V 595.275 H 0 Z"
         id="path83-3" />
    </clipPath>
    <clipPath
       id="clip_1805-3">
      <path
         transform="matrix(1,0,0,-1,0,595.276)"
         d="M 0,-0.001 H 841.89 V 595.275 H 0 Z"
         id="path59-4" />
    </clipPath>
    <clipPath
       id="clip_1795-2">
      <path
         transform="matrix(1,0,0,-1,0,595.276)"
         d="M 0,-0.001 H 841.89 V 595.275 H 0 Z"
         id="path29-4" />
    </clipPath>
    <clipPath
       id="clip_1801-5">
      <path
         transform="matrix(1,0,0,-1,0,595.276)"
         d="M 0,-0.001 H 841.89 V 595.275 H 0 Z"
         id="path47-6" />
    </clipPath>
    <clipPath
       id="clip_1819-3">
      <path
         transform="matrix(1,0,0,-1,0,595.276)"
         d="M 0,-0.001 H 841.89 V 595.275 H 0 Z"
         id="path101-8" />
    </clipPath>
    <clipPath
       id="clip_1827-40">
      <path
         transform="matrix(1,0,0,-1,0,595.276)"
         d="M 0,-0.001 H 841.89 V 595.275 H 0 Z"
         id="path125-2" />
    </clipPath>
    <clipPath
       id="clip_1821-7">
      <path
         transform="matrix(1,0,0,-1,0,595.276)"
         d="M 0,-0.001 H 841.89 V 595.275 H 0 Z"
         id="path107-1" />
    </clipPath>
    <clipPath
       id="clip_1811-18">
      <path
         transform="matrix(1,0,0,-1,0,595.276)"
         d="M 0,-0.001 H 841.89 V 595.275 H 0 Z"
         id="path77-4" />
    </clipPath>
    <clipPath
       id="clip_1829-5">
      <path
         transform="matrix(1,0,0,-1,0,595.276)"
         d="M 0,-0.001 H 841.89 V 595.275 H 0 Z"
         id="path131-7" />
    </clipPath>
    <clipPath
       id="clip_1825-2">
      <path
         transform="matrix(1,0,0,-1,0,595.276)"
         d="M 0,-0.001 H 841.89 V 595.275 H 0 Z"
         id="path119-9" />
    </clipPath>
    <clipPath
       id="clip_2156-8">
      <path
         transform="matrix(1,0,0,-1,0,595.276)"
         d="M 0,-0.001 H 841.89 V 595.275 H 0 Z"
         id="path397-0" />
    </clipPath>
    <clipPath
       id="clip_2087-12">
      <path
         transform="matrix(1,0,0,-1,0,595.276)"
         d="M 0,-0.001 H 841.89 V 595.275 H 0 Z"
         id="path70-20" />
    </clipPath>
    <clipPath
       id="clip_2160-7">
      <path
         transform="matrix(1,0,0,-1,0,595.276)"
         d="M 0,-0.001 H 841.89 V 595.275 H 0 Z"
         id="path415-1" />
    </clipPath>
    <clipPath
       id="clip_2125-0">
      <path
         transform="matrix(1,0,0,-1,0,595.276)"
         d="M 0,-0.001 H 841.89 V 595.275 H 0 Z"
         id="path252-8" />
    </clipPath>
    <clipPath
       id="clip_2129-8">
      <path
         transform="matrix(1,0,0,-1,0,595.276)"
         d="M 0,-0.001 H 841.89 V 595.275 H 0 Z"
         id="path271-0" />
    </clipPath>
    <clipPath
       id="clip_2131-9">
      <path
         transform="matrix(1,0,0,-1,0,595.276)"
         d="M 0,-0.001 H 841.89 V 595.275 H 0 Z"
         id="path278-7" />
    </clipPath>
    <clipPath
       id="clip_2127-9">
      <path
         transform="matrix(1,0,0,-1,0,595.276)"
         d="M 0,-0.001 H 841.89 V 595.275 H 0 Z"
         id="path264-0" />
    </clipPath>
    <clipPath
       id="clip_2135-03">
      <path
         transform="matrix(1,0,0,-1,0,595.276)"
         d="M 0,-0.001 H 841.89 V 595.275 H 0 Z"
         id="path294-1" />
    </clipPath>
    <clipPath
       id="clip_2133-97">
      <path
         transform="matrix(1,0,0,-1,0,595.276)"
         d="M 0,-0.001 H 841.89 V 595.275 H 0 Z"
         id="path286-1" />
    </clipPath>
    <clipPath
       id="clip_2137-4">
      <path
         transform="matrix(1,0,0,-1,0,595.276)"
         d="M 0,-0.001 H 841.89 V 595.275 H 0 Z"
         id="path303-9" />
    </clipPath>
    <clipPath
       id="clip_2146-1">
      <path
         transform="matrix(1,0,0,-1,0,595.276)"
         d="M 0,-0.001 H 841.89 V 595.275 H 0 Z"
         id="path345-6" />
    </clipPath>
    <clipPath
       id="clip_2141-78">
      <path
         transform="matrix(1,0,0,-1,0,595.276)"
         d="M 0,-0.001 H 841.89 V 595.275 H 0 Z"
         id="path322-3" />
    </clipPath>
    <clipPath
       id="clip_2143-1">
      <path
         transform="matrix(1,0,0,-1,0,595.276)"
         d="M 0,-0.001 H 841.89 V 595.275 H 0 Z"
         id="path330-7" />
    </clipPath>
    <clipPath
       id="clip_2123-5">
      <path
         transform="matrix(1,0,0,-1,0,595.276)"
         d="M 0,-0.001 H 841.89 V 595.275 H 0 Z"
         id="path241-6" />
    </clipPath>
    <clipPath
       id="clip_2208-0">
      <path
         transform="matrix(1,0,0,-1,0,595.276)"
         d="m -69.189,-0.001 h 841.89 v 595.276 h -841.89 z"
         id="path200-7" />
    </clipPath>
    <clipPath
       id="clip_2212-1">
      <path
         transform="matrix(1,0,0,-1,0,595.276)"
         d="m -69.189,-0.001 h 841.89 v 595.276 h -841.89 z"
         id="path214-8" />
    </clipPath>
    <clipPath
       id="clip_2206-3">
      <path
         transform="matrix(1,0,0,-1,0,595.276)"
         d="m -69.189,-0.001 h 841.89 v 595.276 h -841.89 z"
         id="path194-5" />
    </clipPath>
    <clipPath
       id="clip_2198-1">
      <path
         transform="matrix(1,0,0,-1,0,595.276)"
         d="m -69.189,-0.001 h 841.89 v 595.276 h -841.89 z"
         id="path162-4" />
    </clipPath>
    <clipPath
       id="clip_2200-15">
      <path
         transform="matrix(1,0,0,-1,0,595.276)"
         d="m -69.189,-0.001 h 841.89 v 595.276 h -841.89 z"
         id="path171-6" />
    </clipPath>
    <clipPath
       id="clip_2202-7">
      <path
         transform="matrix(1,0,0,-1,0,595.276)"
         d="m -69.189,-0.001 h 841.89 v 595.276 h -841.89 z"
         id="path177-0" />
    </clipPath>
    <clipPath
       id="clip_2189-6">
      <path
         transform="matrix(1,0,0,-1,0,595.276)"
         d="m -69.189,-0.001 h 841.89 v 595.276 h -841.89 z"
         id="path112-9" />
    </clipPath>
    <clipPath
       id="clip_2191-2">
      <path
         transform="matrix(1,0,0,-1,0,595.276)"
         d="m -69.189,-0.001 h 841.89 v 595.276 h -841.89 z"
         id="path122-2" />
    </clipPath>
    <clipPath
       id="clip_2195-9">
      <path
         transform="matrix(1,0,0,-1,0,595.276)"
         d="m -69.189,-0.001 h 841.89 v 595.276 h -841.89 z"
         id="path143-81" />
    </clipPath>
    <clipPath
       id="clip_2195-0-82">
      <path
         transform="matrix(1,0,0,-1,0,595.276)"
         d="m -69.189,-0.001 h 841.89 v 595.276 h -841.89 z"
         id="path143-0-4" />
    </clipPath>
    <clipPath
       id="clip_2169-2">
      <path
         transform="matrix(1,0,0,-1,0,595.276)"
         d="m -69.189,-0.001 h 841.89 v 595.276 h -841.89 z"
         id="path21-7" />
    </clipPath>
    <clipPath
       id="clip_1832">
      <path
         transform="matrix(1,0,0,-1,0,595.276)"
         d="M 68.598,29.763 H 826.299 V 565.511 H 68.598 Z"
         id="path8" />
    </clipPath>
    <clipPath
       id="clip_1791-6">
      <path
         transform="matrix(1,0,0,-1,0,595.276)"
         d="M 0,-0.001 H 841.89 V 595.275 H 0 Z"
         id="path17-4" />
    </clipPath>
    <clipPath
       id="clip_1807-3">
      <path
         transform="matrix(1,0,0,-1,0,595.276)"
         d="M 0,-0.001 H 841.89 V 595.275 H 0 Z"
         id="path65-9" />
    </clipPath>
    <clipPath
       id="clip_1791-1-7">
      <path
         transform="matrix(1,0,0,-1,0,595.276)"
         d="M 0,-0.001 H 841.89 V 595.275 H 0 Z"
         id="path17-1-4" />
    </clipPath>
    <clipPath
       id="clip_1815-83">
      <path
         transform="matrix(1,0,0,-1,0,595.276)"
         d="M 0,-0.001 H 841.89 V 595.275 H 0 Z"
         id="path89-3" />
    </clipPath>
    <clipPath
       id="clip_1809-69">
      <path
         transform="matrix(1,0,0,-1,0,595.276)"
         d="M 0,-0.001 H 841.89 V 595.275 H 0 Z"
         id="path71-9" />
    </clipPath>
    <clipPath
       id="clip_1793-2">
      <path
         transform="matrix(1,0,0,-1,0,595.276)"
         d="M 0,-0.001 H 841.89 V 595.275 H 0 Z"
         id="path23-0" />
    </clipPath>
    <clipPath
       id="clip_1799-4">
      <path
         transform="matrix(1,0,0,-1,0,595.276)"
         d="M 0,-0.001 H 841.89 V 595.275 H 0 Z"
         id="path41-5" />
    </clipPath>
    <clipPath
       id="clip_1817-2">
      <path
         transform="matrix(1,0,0,-1,0,595.276)"
         d="M 0,-0.001 H 841.89 V 595.275 H 0 Z"
         id="path95-4" />
    </clipPath>
    <clipPath
       id="clip_1803-4">
      <path
         transform="matrix(1,0,0,-1,0,595.276)"
         d="M 0,-0.001 H 841.89 V 595.275 H 0 Z"
         id="path53-2" />
    </clipPath>
    <clipPath
       id="clip_1813-8">
      <path
         transform="matrix(1,0,0,-1,0,595.276)"
         d="M 0,-0.001 H 841.89 V 595.275 H 0 Z"
         id="path83-7" />
    </clipPath>
    <clipPath
       id="clip_1805-35">
      <path
         transform="matrix(1,0,0,-1,0,595.276)"
         d="M 0,-0.001 H 841.89 V 595.275 H 0 Z"
         id="path59-3" />
    </clipPath>
    <clipPath
       id="clip_1795-1">
      <path
         transform="matrix(1,0,0,-1,0,595.276)"
         d="M 0,-0.001 H 841.89 V 595.275 H 0 Z"
         id="path29-0" />
    </clipPath>
    <clipPath
       id="clip_1801-7">
      <path
         transform="matrix(1,0,0,-1,0,595.276)"
         d="M 0,-0.001 H 841.89 V 595.275 H 0 Z"
         id="path47-20" />
    </clipPath>
    <clipPath
       id="clip_1819-37">
      <path
         transform="matrix(1,0,0,-1,0,595.276)"
         d="M 0,-0.001 H 841.89 V 595.275 H 0 Z"
         id="path101-0" />
    </clipPath>
    <clipPath
       id="clip_1827-8">
      <path
         transform="matrix(1,0,0,-1,0,595.276)"
         d="M 0,-0.001 H 841.89 V 595.275 H 0 Z"
         id="path125-8" />
    </clipPath>
    <clipPath
       id="clip_1821-1">
      <path
         transform="matrix(1,0,0,-1,0,595.276)"
         d="M 0,-0.001 H 841.89 V 595.275 H 0 Z"
         id="path107-10" />
    </clipPath>
    <clipPath
       id="clip_1811-17">
      <path
         transform="matrix(1,0,0,-1,0,595.276)"
         d="M 0,-0.001 H 841.89 V 595.275 H 0 Z"
         id="path77-6" />
    </clipPath>
    <clipPath
       id="clip_1829-51">
      <path
         transform="matrix(1,0,0,-1,0,595.276)"
         d="M 0,-0.001 H 841.89 V 595.275 H 0 Z"
         id="path131-1" />
    </clipPath>
    <clipPath
       id="clip_1825-1">
      <path
         transform="matrix(1,0,0,-1,0,595.276)"
         d="M 0,-0.001 H 841.89 V 595.275 H 0 Z"
         id="path119-5" />
    </clipPath>
    <clipPath
       id="clip_2156-41">
      <path
         transform="matrix(1,0,0,-1,0,595.276)"
         d="M 0,-0.001 H 841.89 V 595.275 H 0 Z"
         id="path397-6" />
    </clipPath>
    <clipPath
       id="clip_2087-5">
      <path
         transform="matrix(1,0,0,-1,0,595.276)"
         d="M 0,-0.001 H 841.89 V 595.275 H 0 Z"
         id="path70-3" />
    </clipPath>
    <clipPath
       id="clip_2160-8">
      <path
         transform="matrix(1,0,0,-1,0,595.276)"
         d="M 0,-0.001 H 841.89 V 595.275 H 0 Z"
         id="path415-6" />
    </clipPath>
    <clipPath
       id="clip_2125-6">
      <path
         transform="matrix(1,0,0,-1,0,595.276)"
         d="M 0,-0.001 H 841.89 V 595.275 H 0 Z"
         id="path252-0" />
    </clipPath>
    <clipPath
       id="clip_2129-4">
      <path
         transform="matrix(1,0,0,-1,0,595.276)"
         d="M 0,-0.001 H 841.89 V 595.275 H 0 Z"
         id="path271-4" />
    </clipPath>
    <clipPath
       id="clip_2131-0">
      <path
         transform="matrix(1,0,0,-1,0,595.276)"
         d="M 0,-0.001 H 841.89 V 595.275 H 0 Z"
         id="path278-1" />
    </clipPath>
    <clipPath
       id="clip_2127-2">
      <path
         transform="matrix(1,0,0,-1,0,595.276)"
         d="M 0,-0.001 H 841.89 V 595.275 H 0 Z"
         id="path264-4" />
    </clipPath>
    <clipPath
       id="clip_2135-5">
      <path
         transform="matrix(1,0,0,-1,0,595.276)"
         d="M 0,-0.001 H 841.89 V 595.275 H 0 Z"
         id="path294-3" />
    </clipPath>
    <clipPath
       id="clip_2133-3">
      <path
         transform="matrix(1,0,0,-1,0,595.276)"
         d="M 0,-0.001 H 841.89 V 595.275 H 0 Z"
         id="path286-7" />
    </clipPath>
    <clipPath
       id="clip_2137-8">
      <path
         transform="matrix(1,0,0,-1,0,595.276)"
         d="M 0,-0.001 H 841.89 V 595.275 H 0 Z"
         id="path303-6" />
    </clipPath>
    <clipPath
       id="clip_2146-8">
      <path
         transform="matrix(1,0,0,-1,0,595.276)"
         d="M 0,-0.001 H 841.89 V 595.275 H 0 Z"
         id="path345-8" />
    </clipPath>
    <clipPath
       id="clip_2141-6">
      <path
         transform="matrix(1,0,0,-1,0,595.276)"
         d="M 0,-0.001 H 841.89 V 595.275 H 0 Z"
         id="path322-38" />
    </clipPath>
    <clipPath
       id="clip_2143-21">
      <path
         transform="matrix(1,0,0,-1,0,595.276)"
         d="M 0,-0.001 H 841.89 V 595.275 H 0 Z"
         id="path330-3" />
    </clipPath>
    <clipPath
       id="clip_2123-9">
      <path
         transform="matrix(1,0,0,-1,0,595.276)"
         d="M 0,-0.001 H 841.89 V 595.275 H 0 Z"
         id="path241-2" />
    </clipPath>
    <clipPath
       id="clip_2208-03">
      <path
         transform="matrix(1,0,0,-1,0,595.276)"
         d="m -69.189,-0.001 h 841.89 v 595.276 h -841.89 z"
         id="path200-4" />
    </clipPath>
    <clipPath
       id="clip_2212-7">
      <path
         transform="matrix(1,0,0,-1,0,595.276)"
         d="m -69.189,-0.001 h 841.89 v 595.276 h -841.89 z"
         id="path214-4" />
    </clipPath>
    <clipPath
       id="clip_2206-42">
      <path
         transform="matrix(1,0,0,-1,0,595.276)"
         d="m -69.189,-0.001 h 841.89 v 595.276 h -841.89 z"
         id="path194-3" />
    </clipPath>
    <clipPath
       id="clip_2198-2">
      <path
         transform="matrix(1,0,0,-1,0,595.276)"
         d="m -69.189,-0.001 h 841.89 v 595.276 h -841.89 z"
         id="path162-64" />
    </clipPath>
    <clipPath
       id="clip_2200-2">
      <path
         transform="matrix(1,0,0,-1,0,595.276)"
         d="m -69.189,-0.001 h 841.89 v 595.276 h -841.89 z"
         id="path171-4" />
    </clipPath>
    <clipPath
       id="clip_2202-79">
      <path
         transform="matrix(1,0,0,-1,0,595.276)"
         d="m -69.189,-0.001 h 841.89 v 595.276 h -841.89 z"
         id="path177-2" />
    </clipPath>
    <clipPath
       id="clip_2189-2">
      <path
         transform="matrix(1,0,0,-1,0,595.276)"
         d="m -69.189,-0.001 h 841.89 v 595.276 h -841.89 z"
         id="path112-7" />
    </clipPath>
    <clipPath
       id="clip_2191-8">
      <path
         transform="matrix(1,0,0,-1,0,595.276)"
         d="m -69.189,-0.001 h 841.89 v 595.276 h -841.89 z"
         id="path122-7" />
    </clipPath>
    <clipPath
       id="clip_2195-4">
      <path
         transform="matrix(1,0,0,-1,0,595.276)"
         d="m -69.189,-0.001 h 841.89 v 595.276 h -841.89 z"
         id="path143-7" />
    </clipPath>
    <clipPath
       id="clip_2195-0-7">
      <path
         transform="matrix(1,0,0,-1,0,595.276)"
         d="m -69.189,-0.001 h 841.89 v 595.276 h -841.89 z"
         id="path143-0-44" />
    </clipPath>
    <clipPath
       id="clip_2169-3">
      <path
         transform="matrix(1,0,0,-1,0,595.276)"
         d="m -69.189,-0.001 h 841.89 v 595.276 h -841.89 z"
         id="path21-77" />
    </clipPath>
    <clipPath
       id="clip_1832-9">
      <path
         transform="matrix(1,0,0,-1,0,595.276)"
         d="M 68.598,29.763 H 826.299 V 565.511 H 68.598 Z"
         id="path8-9" />
    </clipPath>
  </defs>
  <g
     inkscape:label="Layer 1"
     inkscape:groupmode="layer"
     id="layer1">
    <g
       aria-label="中和新蘆線"
       transform="matrix(0.26458333,0,0,0.26458333,0.97185864,-6.414267)"
       id="text1825"
       style="font-size:110px;line-height:1.25;font-family:'Noto Sans TC';-inkscape-font-specification:'Noto Sans TC';white-space:pre;shape-inside:url(#rect1827)">
      <path
         d="m 233.9625,88.053828 h 90.31 v 54.230002 h -12.32 V 99.713828 h -66.11 v 43.120002 h -11.88 z m 6.16,36.850002 h 78.76 v 11.66 h -78.76 z m 32.45,-56.100002 h 12.43 V 171.43383 h -12.43 z"
         style="font-weight:600;-inkscape-font-specification:'Noto Sans TC Semi-Bold';fill:#ffffff"
         id="path1190" />
      <path
         d="m 395.55229,146.13383 h 33.33 v 11.33 h -33.33 z m -4.29,-66.990002 h 43.34 v 86.350002 h -12.1 V 90.363828 h -19.69 v 75.900002 h -11.55 z m -31.9,0.11 h 11.77 v 92.070002 h -11.77 z m -20.24,22.220002 h 49.06 v 11 h -49.06 z m 19.47,4.18 7.92,2.64 q -1.76,6.71 -4.29,13.64 -2.53,6.93 -5.61,13.64 -3.08,6.6 -6.6,12.32 -3.52,5.61 -7.37,9.79 -0.88,-2.64 -2.75,-5.72 -1.76,-3.19 -3.3,-5.39 3.52,-3.52 6.82,-8.36 3.3,-4.84 6.16,-10.23 2.97,-5.5 5.28,-11.22 2.31,-5.72 3.74,-11.11 z m 21.89,-35.860002 7.7,9.24 q -6.27,2.2 -13.97,4.07 -7.59,1.87 -15.73,3.19 -8.03,1.32 -15.51,2.2 -0.33,-1.98 -1.32,-4.62 -0.99,-2.75 -1.98,-4.62 7.26,-0.99 14.74,-2.42 7.59,-1.43 14.3,-3.19 6.82,-1.87 11.77,-3.85 z m -10.34,43.780002 q 0.99,0.88 2.86,2.97 1.98,2.09 4.29,4.73 2.31,2.53 4.51,5.17 2.31,2.64 4.07,4.73 1.76,2.09 2.64,3.08 l -6.93,9.79 q -1.32,-2.42 -3.63,-5.83 -2.2,-3.41 -4.73,-6.93 -2.53,-3.63 -4.95,-6.82 -2.31,-3.19 -3.85,-5.28 z"
         style="font-weight:600;-inkscape-font-specification:'Noto Sans TC Semi-Bold';fill:#ffffff"
         id="path1192" />
      <path
         d="m 509.84207,105.43383 h 40.37 v 10.89 h -40.37 z m -59.62,-25.520002 h 49.17 v 9.68 h -49.17 z m -1.1,43.780002 h 50.38 v 10.01 h -50.38 z m -0.66,-19.14 h 52.69 v 9.79 h -52.69 z m 79.53,5.61 h 11.44 v 60.83 h -11.44 z m -71.61,-18.370002 9.46,-2.31 q 1.32,3.08 2.31,6.71 1.1,3.52 1.54,6.050002 l -9.79,2.75 q -0.33,-2.64 -1.32,-6.380002 -0.99,-3.74 -2.2,-6.82 z m 27.17,-2.42 10.67,2.09 q -1.76,4.51 -3.52,8.910002 -1.76,4.4 -3.3,7.59 l -9.57,-2.09 q 0.99,-2.31 1.98,-5.17 1.1,-2.970002 2.09,-5.940002 0.99,-2.97 1.65,-5.39 z m 55.55,-19.25 9.24,8.69 q -5.61,2.09 -12.32,3.96 -6.71,1.76 -13.64,3.19 -6.93,1.32 -13.53,2.31 -0.33,-1.98 -1.43,-4.51 -0.99,-2.64 -2.09,-4.4 6.16,-1.1 12.43,-2.53 6.27,-1.43 11.77,-3.19 5.61,-1.76 9.57,-3.52 z m -73.04,0.66 11.88,-2.86 q 1.76,3.41 3.52,7.59 1.76,4.18 2.53,7.15 l -12.32,3.41 q -0.66,-3.08 -2.31,-7.37 -1.65,-4.4 -3.3,-7.92 z m 39.27,8.58 h 11 v 39.050002 q 0,6.05 -0.44,12.98 -0.33,6.93 -1.54,14.08 -1.1,7.15 -3.3,13.75 -2.2,6.6 -5.83,11.88 -0.88,-1.1 -2.64,-2.53 -1.65,-1.32 -3.41,-2.64 -1.76,-1.21 -2.97,-1.76 4.18,-6.38 6.16,-14.3 1.98,-7.92 2.42,-16.06 0.55,-8.25 0.55,-15.4 z m -20.68,61.600002 7.7,-4.29 q 2.64,3.85 5.17,8.47 2.53,4.51 3.96,7.7 l -8.14,4.95 q -1.32,-3.41 -3.85,-8.14 -2.53,-4.84 -4.84,-8.69 z m -27.28,-3.19 9.24,2.64 q -2.09,5.83 -5.17,12.1 -3.08,6.16 -6.16,10.45 -1.32,-1.21 -3.74,-2.86 -2.42,-1.65 -4.07,-2.53 2.97,-3.96 5.61,-9.24 2.64,-5.39 4.29,-10.56 z m 12.65,-27.83 h 11.55 v 60.83 h -11.55 z"
         style="font-weight:600;-inkscape-font-specification:'Noto Sans TC Semi-Bold';fill:#ffffff"
         id="path1194" />
      <path
         d="m 609.94186,89.703828 h 40.81 v 5.5 h -40.81 z m -37.84,8.69 h 77.88 v 7.260002 h -77.88 z m 0.22,62.810002 h 87.01 v 7.15 h -87.01 z m 11.66,-92.400002 h 11.77 v 19.36 h -11.77 z m 38.06,0 h 11.77 v 19.03 h -11.77 z m -10.89,57.530002 h 9.13 v 17.05 h -9.13 z m -8.69,-40.700002 h 11 v 14.410002 h -11 z m -19.69,62.370002 h 66.99 v 15.95 h -10.12 v -10.23 h -10.23 v 10.23 h -8.36 v -10.23 h -10.23 v 10.23 h -8.36 v -10.23 h -10.01 v 10.23 h -9.68 z m 13.42,-10.78 v 3.63 h 39.82 v -3.63 z m 0,-7.81 v 3.41 h 39.82 v -3.41 z m -9.79,-4.62 h 59.84 v 20.57 h -59.84 z m -19.69,-26.400002 h 10.34 v 21.120002 q 0,5.72 -0.44,12.43 -0.44,6.71 -1.65,13.75 -1.1,6.93 -3.41,13.64 -2.31,6.6 -5.83,12.1 -0.99,-0.88 -2.64,-1.98 -1.65,-0.99 -3.41,-2.09 -1.76,-0.99 -3.08,-1.43 4.62,-6.93 6.71,-15.07 2.2,-8.25 2.75,-16.5 0.66,-8.25 0.66,-14.96 z m 80.3,0 h 1.54 l 1.87,-0.33 7.7,1.43 q -0.88,3.630002 -2.2,7.480002 -1.21,3.74 -2.42,6.38 l -9.46,-1.76 q 0.77,-2.42 1.54,-5.61 0.88,-3.3 1.43,-6.380002 z m -86.57,-23.65 h 47.3 v 8.25 h -47.3 z m 50.71,0 h 46.97 v 8.25 h -46.97 z m -29.92,35.200002 26.18,-1.21 0.33,7.59 -26.18,1.43 z m 19.8,-6.27 h 9.24 v 8.91 q 0,1.98 0.66,2.75 0.66,0.77 3.3,0.77 0.99,0 2.86,0 1.98,0 4.4,0 2.53,0 5.06,0 2.53,0 4.51,0 2.09,0 3.08,0 1.65,0 3.96,-0.11 2.31,-0.11 4.4,-0.33 2.2,-0.22 3.19,-0.44 0.22,1.87 0.33,3.41 0.22,1.54 0.55,2.97 -1.65,0.44 -4.95,0.66 -3.3,0.11 -6.49,0.11 -1.1,0 -3.52,0 -2.42,0 -5.39,0 -2.97,0 -5.94,0 -2.97,0 -5.28,0 -2.2,0 -2.97,0 -4.51,0 -6.93,-1.1 -2.42,-1.1 -3.3,-3.3 -0.77,-2.31 -0.77,-5.5 z m 6.05,5.06 30.03,-1.21 v 5.28 l -30.03,1.43 z"
         style="font-weight:600;-inkscape-font-specification:'Noto Sans TC Semi-Bold';fill:#ffffff"
         id="path1196" />
      <path
         d="m 733.14165,68.693828 13.31,2.53 q -2.09,4.18 -4.29,8.25 -2.09,3.96 -3.96,6.82 l -10.01,-2.53 q 1.54,-3.19 2.86,-7.37 1.32,-4.29 2.09,-7.7 z m -8.69,35.860002 v 6.82 h 29.81 v -6.82 z m 0,-15.070002 v 6.71 h 29.81 v -6.71 z m -10.89,-9.02 h 52.14 v 39.930002 h -52.14 z m 21.23,35.860002 h 11.22 v 43.23 q 0,4.07 -0.99,6.49 -0.88,2.42 -3.52,3.85 -2.64,1.32 -6.49,1.54 -3.85,0.33 -9.13,0.33 -0.33,-2.42 -1.21,-5.5 -0.88,-3.08 -1.98,-5.28 3.3,0.11 6.27,0.11 2.97,0 4.07,-0.11 0.99,0 1.32,-0.33 0.44,-0.33 0.44,-1.21 z m -25.19,11.55 h 16.06 v 9.57 h -16.06 z m 13.42,0 h 1.98 l 1.76,-0.33 6.93,2.31 q -1.87,8.58 -5.28,15.51 -3.3,6.93 -7.92,12.21 -4.62,5.17 -10.45,8.69 -1.1,-1.87 -3.08,-4.29 -1.87,-2.42 -3.52,-3.96 4.73,-2.53 8.58,-6.93 3.96,-4.4 6.82,-9.9 2.97,-5.5 4.18,-11.66 z m 37.51,-5.17 8.69,7.26 q -4.51,3.74 -9.13,7.59 -4.62,3.85 -8.58,6.49 l -6.38,-5.83 q 2.42,-2.09 5.28,-4.73 2.86,-2.64 5.5,-5.5 2.75,-2.97 4.62,-5.28 z m -15.07,-0.33 q 2.2,7.48 5.83,14.41 3.63,6.93 8.58,12.43 5.06,5.39 11.11,8.69 -1.21,1.1 -2.64,2.75 -1.43,1.54 -2.75,3.3 -1.32,1.76 -2.2,3.3 -6.38,-4.29 -11.44,-10.78 -4.95,-6.6 -8.58,-14.85 -3.63,-8.25 -5.94,-17.38 z m -52.25,-8.8 8.69,-2.31 q 1.21,3.63 2.42,7.92 1.32,4.29 2.2,8.36 0.99,3.96 1.32,6.93 l -9.13,2.86 q -0.44,-3.08 -1.32,-7.15 -0.77,-4.18 -1.87,-8.47 -1.1,-4.4 -2.31,-8.14 z m -9.57,28.71 8.36,-1.54 q 0.99,5.61 1.65,12.1 0.77,6.49 0.88,11.33 l -8.91,1.65 q 0,-4.84 -0.66,-11.44 -0.55,-6.6 -1.32,-12.1 z m -11.55,-1.32 9.13,1.43 q -0.66,7.48 -1.98,15.07 -1.32,7.48 -3.08,12.76 -1.1,-0.55 -2.75,-1.21 -1.54,-0.55 -3.3,-1.1 -1.65,-0.55 -2.75,-0.88 1.87,-5.06 2.97,-12.1 1.21,-7.04 1.76,-13.97 z m -1.54,-29.15 q -0.22,-1.1 -0.88,-2.97 -0.66,-1.98 -1.43,-3.96 -0.66,-2.09 -1.32,-3.52 1.54,-0.33 2.97,-1.870002 1.54,-1.54 3.08,-3.96 1.21,-1.65 3.41,-5.83 2.31,-4.18 4.84,-9.79 2.64,-5.61 4.51,-11.44 l 10.78,4.4 q -2.53,5.94 -5.72,11.88 -3.19,5.94 -6.71,11.44 -3.41,5.390002 -6.82,9.790002 v 0.22 q 0,0 -0.99,0.66 -0.99,0.55 -2.42,1.43 -1.32,0.77 -2.31,1.76 -0.99,0.88 -0.99,1.76 z m 0,0 -0.33,-8.25 4.95,-3.19 19.14,-1.430002 q -0.44,2.200002 -0.77,4.950002 -0.33,2.64 -0.33,4.4 -6.49,0.66 -10.56,1.21 -4.07,0.44 -6.49,0.88 -2.31,0.33 -3.63,0.66 -1.21,0.33 -1.98,0.77 z m 0.77,25.3 q -0.22,-1.21 -0.88,-3.08 -0.66,-1.98 -1.43,-4.07 -0.77,-2.09 -1.43,-3.63 2.09,-0.55 4.07,-2.31 1.98,-1.87 4.62,-4.95 1.32,-1.54 3.85,-4.95 2.64,-3.52 5.83,-8.25 3.19,-4.73 6.38,-10.230002 3.19,-5.61 5.72,-11.22 l 10.12,6.16 q -3.96,7.37 -8.91,14.740002 -4.95,7.26 -10.34,13.86 -5.28,6.6 -10.67,11.99 v 0.33 q 0,0 -1.1,0.66 -0.99,0.55 -2.42,1.43 -1.32,0.77 -2.42,1.76 -0.99,0.99 -0.99,1.76 z m 0,0 -0.44,-8.47 4.95,-3.3 26.51,-3.19 q -0.33,2.09 -0.55,4.84 -0.22,2.75 -0.11,4.4 -8.91,1.32 -14.52,2.2 -5.5,0.88 -8.69,1.54 -3.08,0.55 -4.62,1.1 -1.54,0.44 -2.53,0.88 z m 23.1,2.97 7.81,-2.42 q 1.43,3.85 2.75,8.25 1.43,4.4 1.98,7.7 l -8.14,2.86 q -0.55,-3.3 -1.87,-7.92 -1.21,-4.62 -2.53,-8.47 z"
         style="font-weight:600;-inkscape-font-specification:'Noto Sans TC Semi-Bold';fill:#ffffff"
         id="path1198" />
    </g>
    <g
       aria-label="Zhonghe-Xinlu Line

"
       transform="matrix(0.26458333,0,0,0.26458333,0.34678218,-3.8874346)"
       id="text12839"
       style="font-size:60px;line-height:1.25;font-family:'Microsoft JhengHei';-inkscape-font-specification:'Microsoft JhengHei';word-spacing:0px;white-space:pre;shape-inside:url(#rect12841)">
      <path
         d="m 233.22508,179.08734 h 33.96 v 5.46 l -26.16,31.98 h 26.76 v 5.94 h -36.54 v -5.46 l 26.16,-31.98 h -24.18 z"
         style="font-family:'AR UDJingXiHeiE1G30 EB';-inkscape-font-specification:'AR UDJingXiHeiE1G30 EB';fill:#ffffff"
         id="path1201" />
      <path
         d="m 281.10497,201.10734 v 21.36 h -7.38 v -45.54 h 7.38 v 16.92 q 1.56,-1.92 4.2,-3.18 2.7,-1.26 5.88,-1.26 5.16,0 7.98,2.88 2.82,2.88 2.82,8.1 v 22.08 h -7.38 v -21.12 q 0,-2.88 -1.38,-4.44 -1.32,-1.62 -4.14,-1.62 -2.58,0 -4.8,1.68 -2.22,1.62 -3.18,4.14 z"
         style="font-family:'AR UDJingXiHeiE1G30 EB';-inkscape-font-specification:'AR UDJingXiHeiE1G30 EB';fill:#ffffff"
         id="path1203" />
      <path
         d="m 324.90491,189.40734 q 7.98,0 12.06,4.74 4.14,4.68 4.14,12.06 0,7.38 -4.14,12.24 -4.08,4.8 -12.06,4.8 -7.86,0 -12.12,-4.8 -4.2,-4.86 -4.2,-12.24 0,-7.32 4.14,-12.06 4.2,-4.74 12.18,-4.74 z m 8.58,16.8 q 0,-5.46 -2.4,-8.28 -2.4,-2.82 -6.18,-2.82 -3.96,0 -6.36,2.76 -2.34,2.76 -2.34,8.34 0,5.64 2.4,8.52 2.4,2.82 6.3,2.82 3.78,0 6.18,-2.82 2.4,-2.82 2.4,-8.52 z"
         style="font-family:'AR UDJingXiHeiE1G30 EB';-inkscape-font-specification:'AR UDJingXiHeiE1G30 EB';fill:#ffffff"
         id="path1205" />
      <path
         d="m 355.56489,201.10734 v 21.36 h -7.44 v -32.28 h 7.44 v 3.66 q 1.5,-1.86 4.08,-3.12 2.64,-1.32 5.88,-1.32 5.16,0 7.98,2.88 2.88,2.88 2.88,8.1 v 22.08 h -7.38 v -21.12 q 0,-2.88 -1.38,-4.44 -1.38,-1.62 -4.08,-1.62 -2.7,0 -4.92,1.74 -2.22,1.68 -3.06,4.08 z"
         style="font-family:'AR UDJingXiHeiE1G30 EB';-inkscape-font-specification:'AR UDJingXiHeiE1G30 EB';fill:#ffffff"
         id="path1207" />
      <path
         d="m 406.08478,208.48734 v -4.74 q -0.12,-3.66 -2.4,-6.12 -2.22,-2.46 -5.82,-2.46 -3.54,0 -5.64,2.82 -2.1,2.82 -2.1,8.58 0,5.28 1.92,8.1 1.98,2.82 5.76,2.82 3.36,0 5.7,-2.4 2.4,-2.46 2.58,-6.6 z m 0,9.9 q -1.62,2.34 -4.08,3.6 -2.46,1.26 -5.34,1.26 -6.48,0 -10.32,-4.44 -3.84,-4.44 -3.84,-12.3 0,-7.98 3.78,-12.54 3.84,-4.56 10.32,-4.56 2.88,0 5.28,1.2 2.4,1.2 4.2,3.48 v -3.9 h 7.44 v 33.72 q 0,5.88 -4.02,9.48 -3.96,3.6 -11.58,3.6 -7.44,0 -10.98,-3 -3.54,-3 -3.84,-7.68 h 7.44 q 0.12,2.46 2.04,3.72 1.92,1.32 5.34,1.32 3.84,0 6,-1.92 2.16,-1.86 2.16,-5.46 z"
         style="font-family:'AR UDJingXiHeiE1G30 EB';-inkscape-font-specification:'AR UDJingXiHeiE1G30 EB';fill:#ffffff"
         id="path1209" />
      <path
         d="m 428.58475,201.10734 v 21.36 h -7.38 v -45.54 h 7.38 v 16.92 q 1.56,-1.92 4.2,-3.18 2.7,-1.26 5.88,-1.26 5.16,0 7.98,2.88 2.82,2.88 2.82,8.1 v 22.08 h -7.38 v -21.12 q 0,-2.88 -1.38,-4.44 -1.32,-1.62 -4.14,-1.62 -2.58,0 -4.8,1.68 -2.22,1.62 -3.18,4.14 z"
         style="font-family:'AR UDJingXiHeiE1G30 EB';-inkscape-font-specification:'AR UDJingXiHeiE1G30 EB';fill:#ffffff"
         id="path1211" />
      <path
         d="m 471.48469,189.40734 q 7.02,0 11.1,4.62 4.14,4.56 4.08,14.28 h -22.98 q 0.06,4.38 2.16,6.84 2.1,2.4 6.3,2.4 2.76,0 4.62,-1.08 1.92,-1.14 2.46,-3.06 h 7.14 q -0.72,4.14 -4.38,7.02 -3.66,2.82 -9.84,2.82 -7.8,0 -11.94,-4.38 -4.08,-4.38 -4.08,-12.42 -0.06,-7.62 3.96,-12.3 4.08,-4.74 11.4,-4.74 z m 0,5.7 q -3.18,0 -5.34,2.16 -2.16,2.16 -2.34,6.06 h 15.12 q -0.06,-3.72 -2.04,-5.94 -1.98,-2.28 -5.4,-2.28 z"
         style="font-family:'AR UDJingXiHeiE1G30 EB';-inkscape-font-specification:'AR UDJingXiHeiE1G30 EB';fill:#ffffff"
         id="path1213" />
      <path
         d="m 510.48458,202.00734 v 6 h -19.14 v -6 z"
         style="font-family:'AR UDJingXiHeiE1G30 EB';-inkscape-font-specification:'AR UDJingXiHeiE1G30 EB';fill:#ffffff"
         id="path1215" />
      <path
         d="m 543.3045,179.08734 h 8.82 l -14.94,20.94 15.78,22.44 h -8.88 l -11.34,-16.74 -11.34,16.74 h -8.64 l 15.66,-22.5 -15,-20.88 h 8.94 l 10.44,15.6 z"
         style="font-family:'AR UDJingXiHeiE1G30 EB';-inkscape-font-specification:'AR UDJingXiHeiE1G30 EB';fill:#ffffff"
         id="path1217" />
      <path
         d="m 564.78439,178.00734 v 7.14 h -8.04 v -7.14 z m -0.36,12.18 v 32.28 h -7.44 v -32.28 z"
         style="font-family:'AR UDJingXiHeiE1G30 EB';-inkscape-font-specification:'AR UDJingXiHeiE1G30 EB';fill:#ffffff"
         id="path1219" />
      <path
         d="m 580.26436,201.10734 v 21.36 h -7.44 v -32.28 h 7.44 v 3.66 q 1.5,-1.86 4.08,-3.12 2.64,-1.32 5.88,-1.32 5.16,0 7.98,2.88 2.88,2.88 2.88,8.1 v 22.08 h -7.38 v -21.12 q 0,-2.88 -1.38,-4.44 -1.38,-1.62 -4.08,-1.62 -2.7,0 -4.92,1.74 -2.22,1.68 -3.06,4.08 z"
         style="font-family:'AR UDJingXiHeiE1G30 EB';-inkscape-font-specification:'AR UDJingXiHeiE1G30 EB';fill:#ffffff"
         id="path1221" />
      <path
         d="m 616.38426,176.92734 v 45.54 h -7.44 v -45.54 z"
         style="font-family:'AR UDJingXiHeiE1G30 EB';-inkscape-font-specification:'AR UDJingXiHeiE1G30 EB';fill:#ffffff"
         id="path1223" />
      <path
         d="m 645.18417,211.60734 v -21.42 h 7.38 v 32.28 h -7.38 v -3.66 q -1.62,1.92 -4.26,3.18 -2.58,1.2 -5.94,1.2 -5.1,0 -7.92,-2.82 -2.76,-2.88 -2.76,-8.1 v -22.08 h 7.44 v 21.12 q 0,3 1.38,4.5 1.38,1.5 4.14,1.5 2.64,0 4.86,-1.68 2.22,-1.68 3.06,-4.02 z"
         style="font-family:'AR UDJingXiHeiE1G30 EB';-inkscape-font-specification:'AR UDJingXiHeiE1G30 EB';fill:#ffffff"
         id="path1225" />
      <path
         d="m 707.64402,222.46734 h -30.48 v -43.38 h 7.62 v 37.44 h 22.86 z"
         style="font-family:'AR UDJingXiHeiE1G30 EB';-inkscape-font-specification:'AR UDJingXiHeiE1G30 EB';fill:#ffffff"
         id="path1227" />
      <path
         d="m 720.78396,178.00734 v 7.14 h -8.04 v -7.14 z m -0.36,12.18 v 32.28 h -7.44 v -32.28 z"
         style="font-family:'AR UDJingXiHeiE1G30 EB';-inkscape-font-specification:'AR UDJingXiHeiE1G30 EB';fill:#ffffff"
         id="path1229" />
      <path
         d="m 736.26393,201.10734 v 21.36 h -7.44 v -32.28 h 7.44 v 3.66 q 1.5,-1.86 4.08,-3.12 2.64,-1.32 5.88,-1.32 5.16,0 7.98,2.88 2.88,2.88 2.88,8.1 v 22.08 h -7.38 v -21.12 q 0,-2.88 -1.38,-4.44 -1.38,-1.62 -4.08,-1.62 -2.7,0 -4.92,1.74 -2.22,1.68 -3.06,4.08 z"
         style="font-family:'AR UDJingXiHeiE1G30 EB';-inkscape-font-specification:'AR UDJingXiHeiE1G30 EB';fill:#ffffff"
         id="path1231" />
      <path
         d="m 779.10383,189.40734 q 7.02,0 11.1,4.62 4.14,4.56 4.08,14.28 h -22.98 q 0.06,4.38 2.16,6.84 2.1,2.4 6.3,2.4 2.76,0 4.62,-1.08 1.92,-1.14 2.46,-3.06 h 7.14 q -0.72,4.14 -4.38,7.02 -3.66,2.82 -9.84,2.82 -7.8,0 -11.94,-4.38 -4.08,-4.38 -4.08,-12.42 -0.06,-7.62 3.96,-12.3 4.08,-4.74 11.4,-4.74 z m 0,5.7 q -3.18,0 -5.34,2.16 -2.16,2.16 -2.34,6.06 h 15.12 q -0.06,-3.72 -2.04,-5.94 -1.98,-2.28 -5.4,-2.28 z"
         style="font-family:'AR UDJingXiHeiE1G30 EB';-inkscape-font-specification:'AR UDJingXiHeiE1G30 EB';fill:#ffffff"
         id="path1233" />
    </g>
    <g
       inkscape:label="Layer 1"
       id="layer1-3"
       transform="matrix(1.0671903,0,0,1.0671904,12.404,11.433)">
      <path
         d="M 32.399816,40.499947 H 8.099778 C 3.626203,40.499947 0,36.873391 0,32.399816 V 8.1001304 C 0,3.6265555 3.626203,0 8.099778,0 h 24.300038 c 4.473575,0 8.100131,3.6265555 8.100131,8.1001304 V 32.399816 c 0,4.473575 -3.626556,8.100131 -8.100131,8.100131"
         fill="#ffa300"
         id="path486"
         style="stroke-width:0.352778" />
      <path
         d="m 25.455986,20.299292 c 0,-2.0066 -0.440267,-3.560939 -1.320095,-4.663369 -0.88018,-1.101725 -2.17558,-1.653117 -3.885847,-1.653117 -1.710972,0 -3.002492,0.551392 -3.873853,1.653117 -0.872066,1.10243 -1.307747,2.656769 -1.307747,4.663369 0,1.990372 0.444147,3.524603 1.332442,4.601633 0.887941,1.077383 2.179461,1.616075 3.8735,1.616075 1.694039,0 2.981325,-0.538692 3.861505,-1.616075 0.879828,-1.07703 1.320095,-2.611261 1.320095,-4.601633 m 4.293305,0 c 0,3.043061 -0.822678,5.370689 -2.467328,6.982883 -1.645002,1.612194 -3.981097,2.417586 -7.007577,2.417586 -3.07587,0 -5.432425,-0.809978 -7.068961,-2.429933 -1.636889,-1.620308 -2.454981,-3.943703 -2.454981,-6.970536 0,-3.075517 0.826559,-5.428192 2.480028,-7.056614 1.652764,-1.628775 4.000853,-2.442634 7.043914,-2.442634 3.043414,0 5.383036,0.813859 7.019572,2.442634 1.636889,1.628422 2.455333,3.981097 2.455333,7.056614"
         id="path488"
         style="stroke-width:0.352778" />
    </g>
  </g>
</svg>
