<?xml version="1.0" encoding="UTF-8" standalone="no"?>
<!-- Created with Inkscape (http://www.inkscape.org/) -->

<svg
   width="1000"
   height="250"
   viewBox="0 0 264.58332 66.145835"
   version="1.1"
   id="svg5"
   inkscape:version="1.1 (c68e22c387, 2021-05-23)"
   sodipodi:docname="R_logo.svg"
   xmlns:inkscape="http://www.inkscape.org/namespaces/inkscape"
   xmlns:sodipodi="http://sodipodi.sourceforge.net/DTD/sodipodi-0.dtd"
   xmlns="http://www.w3.org/2000/svg"
   xmlns:svg="http://www.w3.org/2000/svg">
  <sodipodi:namedview
     id="namedview7"
     pagecolor="#505050"
     bordercolor="#ffffff"
     borderopacity="1"
     inkscape:pageshadow="0"
     inkscape:pageopacity="0"
     inkscape:pagecheckerboard="1"
     inkscape:document-units="mm"
     showgrid="false"
     units="px"
     inkscape:zoom="0.68061167"
     inkscape:cx="759.61084"
     inkscape:cy="342.33912"
     inkscape:window-width="1920"
     inkscape:window-height="1009"
     inkscape:window-x="1912"
     inkscape:window-y="-8"
     inkscape:window-maximized="1"
     inkscape:current-layer="layer1" />
  <defs
     id="defs2">
    <rect
       x="229.20559"
       y="161.61933"
       width="727.28696"
       height="93.298429"
       id="rect12841" />
    <rect
       x="224.06316"
       y="51.424331"
       width="603.13395"
       height="130.76473"
       id="rect1827" />
    <clipPath
       id="clip_1791">
      <path
         transform="matrix(1,0,0,-1,0,595.276)"
         d="M 0,-0.001 H 841.89 V 595.275 H 0 Z"
         id="path17" />
    </clipPath>
    <clipPath
       id="clip_1807">
      <path
         transform="matrix(1,0,0,-1,0,595.276)"
         d="M 0,-0.001 H 841.89 V 595.275 H 0 Z"
         id="path65" />
    </clipPath>
    <clipPath
       id="clip_1791-1">
      <path
         transform="matrix(1,0,0,-1,0,595.276)"
         d="M 0,-0.001 H 841.89 V 595.275 H 0 Z"
         id="path17-1" />
    </clipPath>
    <clipPath
       id="clip_1815">
      <path
         transform="matrix(1,0,0,-1,0,595.276)"
         d="M 0,-0.001 H 841.89 V 595.275 H 0 Z"
         id="path89" />
    </clipPath>
    <clipPath
       id="clip_1809">
      <path
         transform="matrix(1,0,0,-1,0,595.276)"
         d="M 0,-0.001 H 841.89 V 595.275 H 0 Z"
         id="path71" />
    </clipPath>
    <clipPath
       id="clip_1793">
      <path
         transform="matrix(1,0,0,-1,0,595.276)"
         d="M 0,-0.001 H 841.89 V 595.275 H 0 Z"
         id="path23" />
    </clipPath>
    <clipPath
       id="clip_1799">
      <path
         transform="matrix(1,0,0,-1,0,595.276)"
         d="M 0,-0.001 H 841.89 V 595.275 H 0 Z"
         id="path41" />
    </clipPath>
    <clipPath
       id="clip_1817">
      <path
         transform="matrix(1,0,0,-1,0,595.276)"
         d="M 0,-0.001 H 841.89 V 595.275 H 0 Z"
         id="path95" />
    </clipPath>
    <clipPath
       id="clip_1803">
      <path
         transform="matrix(1,0,0,-1,0,595.276)"
         d="M 0,-0.001 H 841.89 V 595.275 H 0 Z"
         id="path53" />
    </clipPath>
    <clipPath
       id="clip_1813">
      <path
         transform="matrix(1,0,0,-1,0,595.276)"
         d="M 0,-0.001 H 841.89 V 595.275 H 0 Z"
         id="path83" />
    </clipPath>
    <clipPath
       id="clip_1805">
      <path
         transform="matrix(1,0,0,-1,0,595.276)"
         d="M 0,-0.001 H 841.89 V 595.275 H 0 Z"
         id="path59" />
    </clipPath>
    <clipPath
       id="clip_1795">
      <path
         transform="matrix(1,0,0,-1,0,595.276)"
         d="M 0,-0.001 H 841.89 V 595.275 H 0 Z"
         id="path29" />
    </clipPath>
    <clipPath
       id="clip_1801">
      <path
         transform="matrix(1,0,0,-1,0,595.276)"
         d="M 0,-0.001 H 841.89 V 595.275 H 0 Z"
         id="path47" />
    </clipPath>
    <clipPath
       id="clip_1819">
      <path
         transform="matrix(1,0,0,-1,0,595.276)"
         d="M 0,-0.001 H 841.89 V 595.275 H 0 Z"
         id="path101" />
    </clipPath>
    <clipPath
       id="clip_1827">
      <path
         transform="matrix(1,0,0,-1,0,595.276)"
         d="M 0,-0.001 H 841.89 V 595.275 H 0 Z"
         id="path125" />
    </clipPath>
    <clipPath
       id="clip_1821">
      <path
         transform="matrix(1,0,0,-1,0,595.276)"
         d="M 0,-0.001 H 841.89 V 595.275 H 0 Z"
         id="path107" />
    </clipPath>
    <clipPath
       id="clip_1811">
      <path
         transform="matrix(1,0,0,-1,0,595.276)"
         d="M 0,-0.001 H 841.89 V 595.275 H 0 Z"
         id="path77" />
    </clipPath>
    <clipPath
       id="clip_1829">
      <path
         transform="matrix(1,0,0,-1,0,595.276)"
         d="M 0,-0.001 H 841.89 V 595.275 H 0 Z"
         id="path131" />
    </clipPath>
    <clipPath
       id="clip_1825">
      <path
         transform="matrix(1,0,0,-1,0,595.276)"
         d="M 0,-0.001 H 841.89 V 595.275 H 0 Z"
         id="path119" />
    </clipPath>
    <clipPath
       id="clip_2156">
      <path
         transform="matrix(1,0,0,-1,0,595.276)"
         d="M 0,-0.001 H 841.89 V 595.275 H 0 Z"
         id="path397" />
    </clipPath>
    <clipPath
       id="clip_2087">
      <path
         transform="matrix(1,0,0,-1,0,595.276)"
         d="M 0,-0.001 H 841.89 V 595.275 H 0 Z"
         id="path70" />
    </clipPath>
    <clipPath
       id="clip_2160">
      <path
         transform="matrix(1,0,0,-1,0,595.276)"
         d="M 0,-0.001 H 841.89 V 595.275 H 0 Z"
         id="path415" />
    </clipPath>
    <clipPath
       id="clip_2125">
      <path
         transform="matrix(1,0,0,-1,0,595.276)"
         d="M 0,-0.001 H 841.89 V 595.275 H 0 Z"
         id="path252" />
    </clipPath>
    <clipPath
       id="clip_2129">
      <path
         transform="matrix(1,0,0,-1,0,595.276)"
         d="M 0,-0.001 H 841.89 V 595.275 H 0 Z"
         id="path271" />
    </clipPath>
    <clipPath
       id="clip_2131">
      <path
         transform="matrix(1,0,0,-1,0,595.276)"
         d="M 0,-0.001 H 841.89 V 595.275 H 0 Z"
         id="path278" />
    </clipPath>
    <clipPath
       id="clip_2127">
      <path
         transform="matrix(1,0,0,-1,0,595.276)"
         d="M 0,-0.001 H 841.89 V 595.275 H 0 Z"
         id="path264" />
    </clipPath>
    <clipPath
       id="clip_2135">
      <path
         transform="matrix(1,0,0,-1,0,595.276)"
         d="M 0,-0.001 H 841.89 V 595.275 H 0 Z"
         id="path294" />
    </clipPath>
    <clipPath
       id="clip_2133">
      <path
         transform="matrix(1,0,0,-1,0,595.276)"
         d="M 0,-0.001 H 841.89 V 595.275 H 0 Z"
         id="path286" />
    </clipPath>
    <clipPath
       id="clip_2137">
      <path
         transform="matrix(1,0,0,-1,0,595.276)"
         d="M 0,-0.001 H 841.89 V 595.275 H 0 Z"
         id="path303" />
    </clipPath>
    <clipPath
       id="clip_2146">
      <path
         transform="matrix(1,0,0,-1,0,595.276)"
         d="M 0,-0.001 H 841.89 V 595.275 H 0 Z"
         id="path345" />
    </clipPath>
    <clipPath
       id="clip_2141">
      <path
         transform="matrix(1,0,0,-1,0,595.276)"
         d="M 0,-0.001 H 841.89 V 595.275 H 0 Z"
         id="path322" />
    </clipPath>
    <clipPath
       id="clip_2143">
      <path
         transform="matrix(1,0,0,-1,0,595.276)"
         d="M 0,-0.001 H 841.89 V 595.275 H 0 Z"
         id="path330" />
    </clipPath>
    <clipPath
       id="clip_2123">
      <path
         transform="matrix(1,0,0,-1,0,595.276)"
         d="M 0,-0.001 H 841.89 V 595.275 H 0 Z"
         id="path241" />
    </clipPath>
    <clipPath
       id="clip_2208">
      <path
         transform="matrix(1,0,0,-1,0,595.276)"
         d="m -69.189,-0.001 h 841.89 v 595.276 h -841.89 z"
         id="path200" />
    </clipPath>
    <clipPath
       id="clip_2212">
      <path
         transform="matrix(1,0,0,-1,0,595.276)"
         d="m -69.189,-0.001 h 841.89 v 595.276 h -841.89 z"
         id="path214" />
    </clipPath>
    <clipPath
       id="clip_2206">
      <path
         transform="matrix(1,0,0,-1,0,595.276)"
         d="m -69.189,-0.001 h 841.89 v 595.276 h -841.89 z"
         id="path194" />
    </clipPath>
    <clipPath
       id="clip_2198">
      <path
         transform="matrix(1,0,0,-1,0,595.276)"
         d="m -69.189,-0.001 h 841.89 v 595.276 h -841.89 z"
         id="path162" />
    </clipPath>
    <clipPath
       id="clip_2200">
      <path
         transform="matrix(1,0,0,-1,0,595.276)"
         d="m -69.189,-0.001 h 841.89 v 595.276 h -841.89 z"
         id="path171" />
    </clipPath>
    <clipPath
       id="clip_2202">
      <path
         transform="matrix(1,0,0,-1,0,595.276)"
         d="m -69.189,-0.001 h 841.89 v 595.276 h -841.89 z"
         id="path177" />
    </clipPath>
    <clipPath
       id="clip_2189">
      <path
         transform="matrix(1,0,0,-1,0,595.276)"
         d="m -69.189,-0.001 h 841.89 v 595.276 h -841.89 z"
         id="path112" />
    </clipPath>
    <clipPath
       id="clip_2191">
      <path
         transform="matrix(1,0,0,-1,0,595.276)"
         d="m -69.189,-0.001 h 841.89 v 595.276 h -841.89 z"
         id="path122" />
    </clipPath>
    <clipPath
       id="clip_2195">
      <path
         transform="matrix(1,0,0,-1,0,595.276)"
         d="m -69.189,-0.001 h 841.89 v 595.276 h -841.89 z"
         id="path143" />
    </clipPath>
    <clipPath
       id="clip_2195-0">
      <path
         transform="matrix(1,0,0,-1,0,595.276)"
         d="m -69.189,-0.001 h 841.89 v 595.276 h -841.89 z"
         id="path143-0" />
    </clipPath>
    <clipPath
       id="clip_2169">
      <path
         transform="matrix(1,0,0,-1,0,595.276)"
         d="m -69.189,-0.001 h 841.89 v 595.276 h -841.89 z"
         id="path21" />
    </clipPath>
    <clipPath
       id="clip_1791-0">
      <path
         transform="matrix(1,0,0,-1,0,595.276)"
         d="M 0,-0.001 H 841.89 V 595.275 H 0 Z"
         id="path17-0" />
    </clipPath>
    <clipPath
       id="clip_1807-5">
      <path
         transform="matrix(1,0,0,-1,0,595.276)"
         d="M 0,-0.001 H 841.89 V 595.275 H 0 Z"
         id="path65-3" />
    </clipPath>
    <clipPath
       id="clip_1791-1-8">
      <path
         transform="matrix(1,0,0,-1,0,595.276)"
         d="M 0,-0.001 H 841.89 V 595.275 H 0 Z"
         id="path17-1-6" />
    </clipPath>
    <clipPath
       id="clip_1815-8">
      <path
         transform="matrix(1,0,0,-1,0,595.276)"
         d="M 0,-0.001 H 841.89 V 595.275 H 0 Z"
         id="path89-6" />
    </clipPath>
    <clipPath
       id="clip_1809-6">
      <path
         transform="matrix(1,0,0,-1,0,595.276)"
         d="M 0,-0.001 H 841.89 V 595.275 H 0 Z"
         id="path71-5" />
    </clipPath>
    <clipPath
       id="clip_1793-7">
      <path
         transform="matrix(1,0,0,-1,0,595.276)"
         d="M 0,-0.001 H 841.89 V 595.275 H 0 Z"
         id="path23-6" />
    </clipPath>
    <clipPath
       id="clip_1799-5">
      <path
         transform="matrix(1,0,0,-1,0,595.276)"
         d="M 0,-0.001 H 841.89 V 595.275 H 0 Z"
         id="path41-3" />
    </clipPath>
    <clipPath
       id="clip_1817-6">
      <path
         transform="matrix(1,0,0,-1,0,595.276)"
         d="M 0,-0.001 H 841.89 V 595.275 H 0 Z"
         id="path95-8" />
    </clipPath>
    <clipPath
       id="clip_1803-1">
      <path
         transform="matrix(1,0,0,-1,0,595.276)"
         d="M 0,-0.001 H 841.89 V 595.275 H 0 Z"
         id="path53-4" />
    </clipPath>
    <clipPath
       id="clip_1813-3">
      <path
         transform="matrix(1,0,0,-1,0,595.276)"
         d="M 0,-0.001 H 841.89 V 595.275 H 0 Z"
         id="path83-5" />
    </clipPath>
    <clipPath
       id="clip_1805-8">
      <path
         transform="matrix(1,0,0,-1,0,595.276)"
         d="M 0,-0.001 H 841.89 V 595.275 H 0 Z"
         id="path59-0" />
    </clipPath>
    <clipPath
       id="clip_1795-9">
      <path
         transform="matrix(1,0,0,-1,0,595.276)"
         d="M 0,-0.001 H 841.89 V 595.275 H 0 Z"
         id="path29-1" />
    </clipPath>
    <clipPath
       id="clip_1801-6">
      <path
         transform="matrix(1,0,0,-1,0,595.276)"
         d="M 0,-0.001 H 841.89 V 595.275 H 0 Z"
         id="path47-2" />
    </clipPath>
    <clipPath
       id="clip_1819-9">
      <path
         transform="matrix(1,0,0,-1,0,595.276)"
         d="M 0,-0.001 H 841.89 V 595.275 H 0 Z"
         id="path101-6" />
    </clipPath>
    <clipPath
       id="clip_1827-4">
      <path
         transform="matrix(1,0,0,-1,0,595.276)"
         d="M 0,-0.001 H 841.89 V 595.275 H 0 Z"
         id="path125-5" />
    </clipPath>
    <clipPath
       id="clip_1821-6">
      <path
         transform="matrix(1,0,0,-1,0,595.276)"
         d="M 0,-0.001 H 841.89 V 595.275 H 0 Z"
         id="path107-8" />
    </clipPath>
    <clipPath
       id="clip_1811-1">
      <path
         transform="matrix(1,0,0,-1,0,595.276)"
         d="M 0,-0.001 H 841.89 V 595.275 H 0 Z"
         id="path77-3" />
    </clipPath>
    <clipPath
       id="clip_1829-1">
      <path
         transform="matrix(1,0,0,-1,0,595.276)"
         d="M 0,-0.001 H 841.89 V 595.275 H 0 Z"
         id="path131-8" />
    </clipPath>
    <clipPath
       id="clip_1825-5">
      <path
         transform="matrix(1,0,0,-1,0,595.276)"
         d="M 0,-0.001 H 841.89 V 595.275 H 0 Z"
         id="path119-2" />
    </clipPath>
    <clipPath
       id="clip_2156-4">
      <path
         transform="matrix(1,0,0,-1,0,595.276)"
         d="M 0,-0.001 H 841.89 V 595.275 H 0 Z"
         id="path397-3" />
    </clipPath>
    <clipPath
       id="clip_2087-1">
      <path
         transform="matrix(1,0,0,-1,0,595.276)"
         d="M 0,-0.001 H 841.89 V 595.275 H 0 Z"
         id="path70-2" />
    </clipPath>
    <clipPath
       id="clip_2160-0">
      <path
         transform="matrix(1,0,0,-1,0,595.276)"
         d="M 0,-0.001 H 841.89 V 595.275 H 0 Z"
         id="path415-2" />
    </clipPath>
    <clipPath
       id="clip_2125-3">
      <path
         transform="matrix(1,0,0,-1,0,595.276)"
         d="M 0,-0.001 H 841.89 V 595.275 H 0 Z"
         id="path252-2" />
    </clipPath>
    <clipPath
       id="clip_2129-7">
      <path
         transform="matrix(1,0,0,-1,0,595.276)"
         d="M 0,-0.001 H 841.89 V 595.275 H 0 Z"
         id="path271-3" />
    </clipPath>
    <clipPath
       id="clip_2131-8">
      <path
         transform="matrix(1,0,0,-1,0,595.276)"
         d="M 0,-0.001 H 841.89 V 595.275 H 0 Z"
         id="path278-2" />
    </clipPath>
    <clipPath
       id="clip_2127-5">
      <path
         transform="matrix(1,0,0,-1,0,595.276)"
         d="M 0,-0.001 H 841.89 V 595.275 H 0 Z"
         id="path264-7" />
    </clipPath>
    <clipPath
       id="clip_2135-0">
      <path
         transform="matrix(1,0,0,-1,0,595.276)"
         d="M 0,-0.001 H 841.89 V 595.275 H 0 Z"
         id="path294-9" />
    </clipPath>
    <clipPath
       id="clip_2133-9">
      <path
         transform="matrix(1,0,0,-1,0,595.276)"
         d="M 0,-0.001 H 841.89 V 595.275 H 0 Z"
         id="path286-9" />
    </clipPath>
    <clipPath
       id="clip_2137-9">
      <path
         transform="matrix(1,0,0,-1,0,595.276)"
         d="M 0,-0.001 H 841.89 V 595.275 H 0 Z"
         id="path303-1" />
    </clipPath>
    <clipPath
       id="clip_2146-0">
      <path
         transform="matrix(1,0,0,-1,0,595.276)"
         d="M 0,-0.001 H 841.89 V 595.275 H 0 Z"
         id="path345-2" />
    </clipPath>
    <clipPath
       id="clip_2141-7">
      <path
         transform="matrix(1,0,0,-1,0,595.276)"
         d="M 0,-0.001 H 841.89 V 595.275 H 0 Z"
         id="path322-0" />
    </clipPath>
    <clipPath
       id="clip_2143-2">
      <path
         transform="matrix(1,0,0,-1,0,595.276)"
         d="M 0,-0.001 H 841.89 V 595.275 H 0 Z"
         id="path330-1" />
    </clipPath>
    <clipPath
       id="clip_2123-6">
      <path
         transform="matrix(1,0,0,-1,0,595.276)"
         d="M 0,-0.001 H 841.89 V 595.275 H 0 Z"
         id="path241-9" />
    </clipPath>
    <clipPath
       id="clip_2208-8">
      <path
         transform="matrix(1,0,0,-1,0,595.276)"
         d="m -69.189,-0.001 h 841.89 v 595.276 h -841.89 z"
         id="path200-1" />
    </clipPath>
    <clipPath
       id="clip_2212-3">
      <path
         transform="matrix(1,0,0,-1,0,595.276)"
         d="m -69.189,-0.001 h 841.89 v 595.276 h -841.89 z"
         id="path214-2" />
    </clipPath>
    <clipPath
       id="clip_2206-4">
      <path
         transform="matrix(1,0,0,-1,0,595.276)"
         d="m -69.189,-0.001 h 841.89 v 595.276 h -841.89 z"
         id="path194-2" />
    </clipPath>
    <clipPath
       id="clip_2198-7">
      <path
         transform="matrix(1,0,0,-1,0,595.276)"
         d="m -69.189,-0.001 h 841.89 v 595.276 h -841.89 z"
         id="path162-6" />
    </clipPath>
    <clipPath
       id="clip_2200-1">
      <path
         transform="matrix(1,0,0,-1,0,595.276)"
         d="m -69.189,-0.001 h 841.89 v 595.276 h -841.89 z"
         id="path171-3" />
    </clipPath>
    <clipPath
       id="clip_2202-5">
      <path
         transform="matrix(1,0,0,-1,0,595.276)"
         d="m -69.189,-0.001 h 841.89 v 595.276 h -841.89 z"
         id="path177-4" />
    </clipPath>
    <clipPath
       id="clip_2189-9">
      <path
         transform="matrix(1,0,0,-1,0,595.276)"
         d="m -69.189,-0.001 h 841.89 v 595.276 h -841.89 z"
         id="path112-0" />
    </clipPath>
    <clipPath
       id="clip_2191-7">
      <path
         transform="matrix(1,0,0,-1,0,595.276)"
         d="m -69.189,-0.001 h 841.89 v 595.276 h -841.89 z"
         id="path122-0" />
    </clipPath>
    <clipPath
       id="clip_2195-6">
      <path
         transform="matrix(1,0,0,-1,0,595.276)"
         d="m -69.189,-0.001 h 841.89 v 595.276 h -841.89 z"
         id="path143-8" />
    </clipPath>
    <clipPath
       id="clip_2195-0-8">
      <path
         transform="matrix(1,0,0,-1,0,595.276)"
         d="m -69.189,-0.001 h 841.89 v 595.276 h -841.89 z"
         id="path143-0-7" />
    </clipPath>
    <clipPath
       id="clip_2169-7">
      <path
         transform="matrix(1,0,0,-1,0,595.276)"
         d="m -69.189,-0.001 h 841.89 v 595.276 h -841.89 z"
         id="path21-9" />
    </clipPath>
  </defs>
  <g
     inkscape:label="Layer 1"
     inkscape:groupmode="layer"
     id="layer1">
    <g
       aria-label="淡水信義線"
       transform="matrix(0.26458333,0,0,0.26458333,0.97185864,-6.414267)"
       id="text1825"
       style="font-size:110px;line-height:1.25;font-family:'Noto Sans TC';-inkscape-font-specification:'Noto Sans TC';white-space:pre;shape-inside:url(#rect1827)">
      <path
         d="m 286.2125,100.48383 6.71,-8.140002 q 5.72,2.64 12.21,6.16 6.49,3.520002 12.43,7.150002 5.94,3.52 9.68,6.6 l -7.15,9.24 q -3.52,-3.08 -9.35,-6.82 -5.72,-3.85 -12.21,-7.59 -6.49,-3.74 -12.32,-6.6 z m 2.31,-31.680002 h 11.66 q -0.33,11.22 -1.76,19.8 -1.32,8.58 -4.84,14.960002 -3.52,6.38 -10.56,10.89 -6.93,4.4 -18.59,7.26 -0.44,-1.43 -1.54,-3.19 -1.1,-1.87 -2.42,-3.52 -1.21,-1.76 -2.42,-2.86 10.45,-2.31 16.39,-5.72 6.05,-3.52 8.91,-8.580002 2.97,-5.06 3.85,-12.21 0.99,-7.15 1.32,-16.83 z m 26.07,6.38 11.88,3.85 q -3.19,5.17 -6.82,10.34 -3.63,5.06 -6.6,8.69 l -9.13,-3.52 q 1.87,-2.64 3.85,-6.05 1.98,-3.41 3.74,-6.93 1.87,-3.52 3.08,-6.38 z m 0.99,47.850002 12.21,3.96 q -2.2,3.74 -4.62,7.59 -2.31,3.74 -4.62,7.15 -2.31,3.3 -4.4,5.94 l -9.68,-3.63 q 1.98,-2.86 4.07,-6.49 2.09,-3.63 3.85,-7.37 1.87,-3.85 3.19,-7.15 z m -27.5,-7.92 h 11.66 q -0.44,11.77 -1.87,21.01 -1.32,9.13 -5.17,15.95 -3.74,6.71 -11.33,11.44 -7.48,4.84 -20.13,7.92 -0.55,-1.54 -1.65,-3.41 -1.1,-1.87 -2.42,-3.74 -1.21,-1.76 -2.42,-2.97 9.13,-1.98 15.07,-4.73 5.94,-2.86 9.46,-6.6 3.52,-3.74 5.28,-8.69 1.87,-5.06 2.53,-11.55 0.66,-6.49 0.99,-14.63 z m 10.34,14.63 q 2.97,12.43 10.78,20.57 7.92,8.14 22.55,10.67 -1.21,1.21 -2.64,2.97 -1.43,1.87 -2.64,3.74 -1.1,1.98 -1.87,3.52 -10.78,-2.64 -18.04,-8.03 -7.15,-5.28 -11.55,-13.31 -4.29,-8.03 -6.82,-18.7 z m -65.56,-50.820002 7.26,-8.03 q 3.3,1.54 7.04,3.74 3.85,2.09 7.26,4.29 3.52,2.2 5.72,4.07 l -7.59,9.13 q -2.09,-1.98 -5.5,-4.29 -3.3,-2.42 -7.04,-4.73 -3.74,-2.42 -7.15,-4.18 z m -5.72,29.810002 7.37,-8.03 q 3.3,1.54 7.15,3.63 3.85,1.98 7.26,4.07 3.52,2.09 5.72,3.96 l -7.7,8.91 q -2.09,-1.87 -5.5,-4.07 -3.3,-2.31 -7.15,-4.51 -3.74,-2.31 -7.15,-3.96 z m 2.64,53.02 q 2.64,-4.18 5.83,-9.79 3.19,-5.72 6.49,-12.1 3.3,-6.38 6.16,-12.65 l 9.35,7.7 q -2.53,5.72 -5.39,11.77 -2.86,5.94 -5.94,11.77 -2.97,5.72 -5.83,11 z m 31.13,-81.840002 9.35,-5.06 q 1.98,2.86 4.18,6.38 2.2,3.52 4.07,6.82 1.98,3.19 3.19,5.61 l -10.01,5.94 q -0.99,-2.53 -2.86,-5.94 -1.87,-3.41 -3.96,-7.04 -2.09,-3.63 -3.96,-6.71 z m -1.54,47.080002 9.46,-4.62 q 2.09,3.19 4.51,6.93 2.42,3.74 4.51,7.26 2.2,3.52 3.52,6.27 l -10.12,5.39 q -1.21,-2.75 -3.3,-6.38 -1.98,-3.74 -4.29,-7.59 -2.2,-3.96 -4.29,-7.26 z"
         style="font-weight:600;-inkscape-font-specification:'Noto Sans TC Semi-Bold';fill:#ffffff"
         id="path1008" />
      <path
         d="m 340.77229,96.083828 h 30.25 v 11.990002 h -30.25 z m 42.35,-27.17 h 12.65 v 87.340002 q 0,5.28 -1.21,8.14 -1.21,2.97 -4.29,4.62 -3.08,1.54 -7.81,2.09 -4.73,0.55 -11.33,0.55 -0.33,-1.87 -1.1,-4.29 -0.66,-2.31 -1.54,-4.73 -0.88,-2.31 -1.87,-4.07 4.62,0.11 8.58,0.22 3.96,0 5.39,0 1.43,-0.11 1.98,-0.55 0.55,-0.55 0.55,-1.98 z m -16.17,27.17 h 2.42 l 2.09,-0.44 7.81,2.97 q -2.42,14.850002 -7.26,26.950002 -4.84,12.1 -11.33,21.23 -6.38,9.02 -14.08,14.74 -0.99,-1.43 -2.75,-3.19 -1.65,-1.76 -3.52,-3.41 -1.87,-1.65 -3.3,-2.53 7.48,-5.06 13.53,-12.87 6.05,-7.92 10.23,-18.26 4.18,-10.34 6.16,-22.550002 z m 28.05,-2.64 q 3.08,9.130002 7.59,17.710002 4.62,8.47 10.56,15.95 5.94,7.37 13.2,13.31 7.26,5.83 15.62,9.57 -1.32,1.21 -3.08,3.19 -1.65,1.87 -3.19,3.96 -1.54,1.98 -2.53,3.85 -8.69,-4.62 -15.95,-11.33 -7.15,-6.71 -13.09,-15.18 -5.83,-8.47 -10.45,-18.26 -4.51,-9.79 -7.92,-20.460002 z m 27.61,-4.95 10.89,7.7 q -4.18,4.400002 -9.02,9.130002 -4.73,4.62 -9.46,8.91 -4.62,4.18 -8.69,7.37 l -8.25,-6.6 q 3.96,-3.3 8.47,-7.81 4.51,-4.62 8.69,-9.460002 4.29,-4.95 7.37,-9.24 z"
         style="font-weight:600;-inkscape-font-specification:'Noto Sans TC Semi-Bold';fill:#ffffff"
         id="path1010" />
      <path
         d="m 486.19207,102.57383 h 54.89 v 9.35 h -54.89 z m 0,15.95 h 54.89 v 9.35 h -54.89 z m 5.61,39.71 h 43.67 v 9.46 h -43.67 z m -13.42,-71.940002 h 70.95 v 9.57 h -70.95 z m 6.27,48.620002 h 57.75 v 36.08 h -10.45 v -26.62 h -37.29 v 26.95 h -10.01 z m 18.81,-62.480002 10.01,-3.85 q 2.31,3.41 4.51,7.48 2.31,4.07 3.52,7.15 l -10.34,4.51 q -1.1,-3.08 -3.41,-7.37 -2.2,-4.29 -4.29,-7.92 z m -32.89,-3.19 10.45,3.19 q -3.19,9.24 -7.59,18.48 -4.4,9.240002 -9.68,17.380002 -5.17,8.14 -10.67,14.52 -0.55,-1.43 -1.65,-3.52 -0.99,-2.2 -2.31,-4.4 -1.21,-2.2 -2.2,-3.63 4.73,-5.06 9.13,-11.880002 4.4,-6.82 8.14,-14.52 3.74,-7.7 6.38,-15.62 z m -8.8,30.03 10.78,-10.78 v 0.11 83.270002 h -10.78 z"
         style="font-weight:600;-inkscape-font-specification:'Noto Sans TC Semi-Bold';fill:#ffffff"
         id="path1012" />
      <path
         d="m 564.84186,79.473828 h 88.66 v 8.91 h -88.66 z m 5.83,13.75 h 77 v 8.250002 h -77 z m -10.78,13.200002 h 98.45 v 8.91 h -98.45 z m -0.11,25.3 h 99.11 v 8.8 h -99.11 z m 43.01,-47.300002 h 12.21 v 26.510002 h -12.21 z m 23.65,-15.84 12.87,2.64 q -2.2,3.3 -4.4,6.27 -2.2,2.97 -3.96,5.06 l -10.12,-2.64 q 1.54,-2.53 3.08,-5.72 1.54,-3.19 2.53,-5.61 z m -67.1,78.870002 q 6.49,-0.33 14.74,-0.77 8.36,-0.44 17.71,-0.99 9.46,-0.55 18.92,-1.21 v 8.03 q -9.02,0.77 -18.04,1.54 -9.02,0.77 -17.38,1.43 -8.25,0.55 -14.96,1.1 z m 22.66,-27.17 h 11.44 v 40.7 q 0,4.07 -1.1,6.05 -1.1,2.09 -4.07,3.08 -2.97,0.99 -7.26,1.21 -4.29,0.22 -10.56,0.22 -0.33,-2.09 -1.32,-4.62 -0.99,-2.53 -2.09,-4.51 2.64,0.11 5.28,0.11 2.64,0.11 4.62,0 2.09,0 2.86,0 1.21,0 1.65,-0.44 0.55,-0.33 0.55,-1.43 z m 20.46,-4.84 6.82,6.93 q -6.05,1.54 -13.86,2.64 -7.7,0.99 -15.84,1.65 -8.03,0.66 -15.62,0.99 -0.22,-1.54 -0.99,-3.63 -0.77,-2.2 -1.54,-3.63 7.26,-0.44 14.85,-1.1 7.7,-0.66 14.52,-1.65 6.93,-0.99 11.66,-2.2 z m 9.46,1.43 h 11.33 q 0.44,9.24 2.53,17.27 2.2,8.03 5.5,14.08 3.41,5.94 7.59,9.24 4.29,3.3 8.91,3.3 2.09,-0.11 2.86,-1.98 0.77,-1.87 1.21,-6.93 1.76,1.54 4.18,2.75 2.53,1.21 4.62,1.87 -0.88,6.16 -2.53,9.35 -1.54,3.19 -4.18,4.4 -2.64,1.21 -6.71,1.21 -7.48,0 -13.64,-4.18 -6.16,-4.07 -10.78,-11.44 -4.62,-7.37 -7.48,-17.27 -2.75,-10.01 -3.41,-21.67 z m 29.37,23.65 10.12,3.41 q -5.06,6.6 -12.54,11.88 -7.48,5.17 -16.28,9.02 -8.69,3.85 -17.82,6.49 -0.44,-1.21 -1.54,-2.97 -0.99,-1.65 -2.2,-3.52 -1.1,-1.76 -2.09,-2.86 8.47,-1.87 16.61,-4.84 8.14,-3.08 14.85,-7.26 6.82,-4.18 10.89,-9.35 z m -12.76,-18.26 6.38,-6.82 q 3.3,1.21 6.71,2.86 3.52,1.65 6.6,3.52 3.19,1.76 5.17,3.41 l -6.71,7.48 q -1.87,-1.65 -4.95,-3.52 -3.08,-1.98 -6.6,-3.74 -3.41,-1.87 -6.6,-3.19 z m -47.96,-50.050002 10.23,-3.41 q 2.31,2.31 4.29,5.39 1.98,2.97 2.86,5.28 l -10.89,4.07 q -0.77,-2.31 -2.64,-5.5 -1.76,-3.3 -3.85,-5.83 z"
         style="font-weight:600;-inkscape-font-specification:'Noto Sans TC Semi-Bold';fill:#ffffff"
         id="path1014" />
      <path
         d="m 733.14165,68.693828 13.31,2.53 q -2.09,4.18 -4.29,8.25 -2.09,3.96 -3.96,6.82 l -10.01,-2.53 q 1.54,-3.19 2.86,-7.37 1.32,-4.29 2.09,-7.7 z m -8.69,35.860002 v 6.82 h 29.81 v -6.82 z m 0,-15.070002 v 6.71 h 29.81 v -6.71 z m -10.89,-9.02 h 52.14 v 39.930002 h -52.14 z m 21.23,35.860002 h 11.22 v 43.23 q 0,4.07 -0.99,6.49 -0.88,2.42 -3.52,3.85 -2.64,1.32 -6.49,1.54 -3.85,0.33 -9.13,0.33 -0.33,-2.42 -1.21,-5.5 -0.88,-3.08 -1.98,-5.28 3.3,0.11 6.27,0.11 2.97,0 4.07,-0.11 0.99,0 1.32,-0.33 0.44,-0.33 0.44,-1.21 z m -25.19,11.55 h 16.06 v 9.57 h -16.06 z m 13.42,0 h 1.98 l 1.76,-0.33 6.93,2.31 q -1.87,8.58 -5.28,15.51 -3.3,6.93 -7.92,12.21 -4.62,5.17 -10.45,8.69 -1.1,-1.87 -3.08,-4.29 -1.87,-2.42 -3.52,-3.96 4.73,-2.53 8.58,-6.93 3.96,-4.4 6.82,-9.9 2.97,-5.5 4.18,-11.66 z m 37.51,-5.17 8.69,7.26 q -4.51,3.74 -9.13,7.59 -4.62,3.85 -8.58,6.49 l -6.38,-5.83 q 2.42,-2.09 5.28,-4.73 2.86,-2.64 5.5,-5.5 2.75,-2.97 4.62,-5.28 z m -15.07,-0.33 q 2.2,7.48 5.83,14.41 3.63,6.93 8.58,12.43 5.06,5.39 11.11,8.69 -1.21,1.1 -2.64,2.75 -1.43,1.54 -2.75,3.3 -1.32,1.76 -2.2,3.3 -6.38,-4.29 -11.44,-10.78 -4.95,-6.6 -8.58,-14.85 -3.63,-8.25 -5.94,-17.38 z m -52.25,-8.8 8.69,-2.31 q 1.21,3.63 2.42,7.92 1.32,4.29 2.2,8.36 0.99,3.96 1.32,6.93 l -9.13,2.86 q -0.44,-3.08 -1.32,-7.15 -0.77,-4.18 -1.87,-8.47 -1.1,-4.4 -2.31,-8.14 z m -9.57,28.71 8.36,-1.54 q 0.99,5.61 1.65,12.1 0.77,6.49 0.88,11.33 l -8.91,1.65 q 0,-4.84 -0.66,-11.44 -0.55,-6.6 -1.32,-12.1 z m -11.55,-1.32 9.13,1.43 q -0.66,7.48 -1.98,15.07 -1.32,7.48 -3.08,12.76 -1.1,-0.55 -2.75,-1.21 -1.54,-0.55 -3.3,-1.1 -1.65,-0.55 -2.75,-0.88 1.87,-5.06 2.97,-12.1 1.21,-7.04 1.76,-13.97 z m -1.54,-29.15 q -0.22,-1.1 -0.88,-2.97 -0.66,-1.98 -1.43,-3.96 -0.66,-2.09 -1.32,-3.52 1.54,-0.33 2.97,-1.870002 1.54,-1.54 3.08,-3.96 1.21,-1.65 3.41,-5.83 2.31,-4.18 4.84,-9.79 2.64,-5.61 4.51,-11.44 l 10.78,4.4 q -2.53,5.94 -5.72,11.88 -3.19,5.94 -6.71,11.44 -3.41,5.390002 -6.82,9.790002 v 0.22 q 0,0 -0.99,0.66 -0.99,0.55 -2.42,1.43 -1.32,0.77 -2.31,1.76 -0.99,0.88 -0.99,1.76 z m 0,0 -0.33,-8.25 4.95,-3.19 19.14,-1.430002 q -0.44,2.200002 -0.77,4.950002 -0.33,2.64 -0.33,4.4 -6.49,0.66 -10.56,1.21 -4.07,0.44 -6.49,0.88 -2.31,0.33 -3.63,0.66 -1.21,0.33 -1.98,0.77 z m 0.77,25.3 q -0.22,-1.21 -0.88,-3.08 -0.66,-1.98 -1.43,-4.07 -0.77,-2.09 -1.43,-3.63 2.09,-0.55 4.07,-2.31 1.98,-1.87 4.62,-4.95 1.32,-1.54 3.85,-4.95 2.64,-3.52 5.83,-8.25 3.19,-4.73 6.38,-10.230002 3.19,-5.61 5.72,-11.22 l 10.12,6.16 q -3.96,7.37 -8.91,14.740002 -4.95,7.26 -10.34,13.86 -5.28,6.6 -10.67,11.99 v 0.33 q 0,0 -1.1,0.66 -0.99,0.55 -2.42,1.43 -1.32,0.77 -2.42,1.76 -0.99,0.99 -0.99,1.76 z m 0,0 -0.44,-8.47 4.95,-3.3 26.51,-3.19 q -0.33,2.09 -0.55,4.84 -0.22,2.75 -0.11,4.4 -8.91,1.32 -14.52,2.2 -5.5,0.88 -8.69,1.54 -3.08,0.55 -4.62,1.1 -1.54,0.44 -2.53,0.88 z m 23.1,2.97 7.81,-2.42 q 1.43,3.85 2.75,8.25 1.43,4.4 1.98,7.7 l -8.14,2.86 q -0.55,-3.3 -1.87,-7.92 -1.21,-4.62 -2.53,-8.47 z"
         style="font-weight:600;-inkscape-font-specification:'Noto Sans TC Semi-Bold';fill:#ffffff"
         id="path1016" />
    </g>
    <g
       aria-label="Tamsui-Xinyi Line"
       transform="matrix(0.26458333,0,0,0.26458333,0.34678218,-3.8874346)"
       id="text12839"
       style="font-size:60px;line-height:1.25;font-family:'Microsoft JhengHei';-inkscape-font-specification:'Microsoft JhengHei';white-space:pre;shape-inside:url(#rect12841)">
      <path
         d="m 243.42508,185.02734 h -13.5 v -5.94 h 34.56 v 5.94 h -13.44 v 37.44 h -7.62 z"
         style="font-family:'AR UDJingXiHeiE1G30 EB';-inkscape-font-specification:'AR UDJingXiHeiE1G30 EB';fill:#ffffff"
         id="path1019" />
      <path
         d="m 280.38507,217.36734 q 2.82,0 5.16,-1.02 2.34,-1.02 4.14,-3.3 v -5.04 h -4.5 q -5.16,0 -7.62,1.44 -2.46,1.44 -2.46,3.96 0,1.8 1.32,2.88 1.32,1.08 3.96,1.08 z m 2.52,-27.96 q 7.2,0 10.68,2.94 3.54,2.88 3.54,8.52 v 21.6 h -7.44 v -3.84 q -2.04,2.28 -4.74,3.48 -2.64,1.14 -6.24,1.14 -5.34,0 -8.28,-2.58 -2.94,-2.64 -2.94,-6.9 0,-5.1 4.38,-7.86 4.38,-2.76 13.32,-2.76 h 4.5 v -2.64 q 0,-2.7 -1.68,-4.08 -1.62,-1.38 -5.1,-1.38 -3.54,0 -5.34,1.44 -1.74,1.38 -1.74,3.72 h -7.38 q 0,-4.56 3.66,-7.68 3.72,-3.12 10.8,-3.12 z"
         style="font-family:'AR UDJingXiHeiE1G30 EB';-inkscape-font-specification:'AR UDJingXiHeiE1G30 EB';fill:#ffffff"
         id="path1021" />
      <path
         d="m 312.06498,201.28734 v 21.18 h -7.38 v -32.28 h 7.38 v 4.26 q 1.56,-2.16 4.02,-3.6 2.46,-1.44 5.58,-1.44 3.24,0 5.4,1.44 2.16,1.38 3.12,3.9 1.92,-2.46 4.44,-3.9 2.58,-1.44 5.7,-1.44 4.8,0 7.44,2.94 2.7,2.94 2.7,8.4 v 21.72 h -7.38 v -21.42 q 0,-2.7 -1.26,-4.2 -1.2,-1.5 -3.48,-1.5 -2.34,0 -4.32,1.68 -1.92,1.62 -2.7,4.14 v 21.3 h -7.44 v -21.36 q 0,-2.76 -1.2,-4.26 -1.14,-1.5 -3.48,-1.5 -2.4,0 -4.44,1.8 -1.98,1.8 -2.7,4.14 z"
         style="font-family:'AR UDJingXiHeiE1G30 EB';-inkscape-font-specification:'AR UDJingXiHeiE1G30 EB';fill:#ffffff"
         id="path1023" />
      <path
         d="m 369.00491,208.72734 q -6.18,-1.02 -9.06,-3.3 -2.82,-2.34 -2.82,-6.48 0,-4.08 3.3,-6.78 3.3,-2.76 9.78,-2.76 6.78,0 10.2,3 3.42,3 3.42,7.44 h -7.44 q -0.24,-2.34 -1.8,-3.54 -1.56,-1.2 -4.38,-1.2 -2.7,0 -4.14,0.96 -1.38,0.9 -1.38,2.7 0,2.04 2.1,3 2.1,0.96 7.38,1.86 6.12,1.02 8.52,3.36 2.46,2.28 2.46,6.42 0,4.5 -3.66,7.2 -3.66,2.64 -10.26,2.64 -7.74,0 -11.28,-3.12 -3.48,-3.18 -3.54,-7.74 h 7.44 q 0.12,2.4 1.92,3.78 1.86,1.38 5.4,1.38 2.94,0 4.68,-0.96 1.74,-0.96 1.74,-2.94 0,-2.04 -1.74,-3 -1.74,-1.02 -6.84,-1.92 z"
         style="font-family:'AR UDJingXiHeiE1G30 EB';-inkscape-font-specification:'AR UDJingXiHeiE1G30 EB';fill:#ffffff"
         id="path1025" />
      <path
         d="m 412.02487,211.60734 v -21.42 h 7.38 v 32.28 h -7.38 v -3.66 q -1.62,1.92 -4.26,3.18 -2.58,1.2 -5.94,1.2 -5.1,0 -7.92,-2.82 -2.76,-2.88 -2.76,-8.1 v -22.08 h 7.44 v 21.12 q 0,3 1.38,4.5 1.38,1.5 4.14,1.5 2.64,0 4.86,-1.68 2.22,-1.68 3.06,-4.02 z"
         style="font-family:'AR UDJingXiHeiE1G30 EB';-inkscape-font-specification:'AR UDJingXiHeiE1G30 EB';fill:#ffffff"
         id="path1027" />
      <path
         d="m 435.12478,178.00734 v 7.14 h -8.04 v -7.14 z m -0.36,12.18 v 32.28 h -7.44 v -32.28 z"
         style="font-family:'AR UDJingXiHeiE1G30 EB';-inkscape-font-specification:'AR UDJingXiHeiE1G30 EB';fill:#ffffff"
         id="path1029" />
      <path
         d="m 460.38475,202.00734 v 6 h -19.14 v -6 z"
         style="font-family:'AR UDJingXiHeiE1G30 EB';-inkscape-font-specification:'AR UDJingXiHeiE1G30 EB';fill:#ffffff"
         id="path1031" />
      <path
         d="m 493.20467,179.08734 h 8.82 l -14.94,20.94 15.78,22.44 h -8.88 l -11.34,-16.74 -11.34,16.74 h -8.64 l 15.66,-22.5 -15,-20.88 h 8.94 l 10.44,15.6 z"
         style="font-family:'AR UDJingXiHeiE1G30 EB';-inkscape-font-specification:'AR UDJingXiHeiE1G30 EB';fill:#ffffff"
         id="path1033" />
      <path
         d="m 514.68456,178.00734 v 7.14 h -8.04 v -7.14 z m -0.36,12.18 v 32.28 h -7.44 v -32.28 z"
         style="font-family:'AR UDJingXiHeiE1G30 EB';-inkscape-font-specification:'AR UDJingXiHeiE1G30 EB';fill:#ffffff"
         id="path1035" />
      <path
         d="m 530.16454,201.10734 v 21.36 h -7.44 v -32.28 h 7.44 v 3.66 q 1.5,-1.86 4.08,-3.12 2.64,-1.32 5.88,-1.32 5.16,0 7.98,2.88 2.88,2.88 2.88,8.1 v 22.08 h -7.38 v -21.12 q 0,-2.88 -1.38,-4.44 -1.38,-1.62 -4.08,-1.62 -2.7,0 -4.92,1.74 -2.22,1.68 -3.06,4.08 z"
         style="font-family:'AR UDJingXiHeiE1G30 EB';-inkscape-font-specification:'AR UDJingXiHeiE1G30 EB';fill:#ffffff"
         id="path1037" />
      <path
         d="m 571.14443,214.24734 7.74,-24.06 h 7.56 l -14.7,41.4 q -0.9,2.64 -2.88,3.9 -1.92,1.26 -5.04,1.26 h -7.5 v -5.64 h 5.28 q 1.56,0 2.52,-0.66 0.96,-0.66 1.44,-2.04 l 2.1,-6 -12.72,-32.22 h 7.86 z"
         style="font-family:'AR UDJingXiHeiE1G30 EB';-inkscape-font-specification:'AR UDJingXiHeiE1G30 EB';fill:#ffffff"
         id="path1039" />
      <path
         d="m 598.44433,178.00734 v 7.14 h -8.04 v -7.14 z m -0.36,12.18 v 32.28 h -7.44 v -32.28 z"
         style="font-family:'AR UDJingXiHeiE1G30 EB';-inkscape-font-specification:'AR UDJingXiHeiE1G30 EB';fill:#ffffff"
         id="path1041" />
      <path
         d="m 653.46424,222.46734 h -30.48 v -43.38 h 7.62 v 37.44 h 22.86 z"
         style="font-family:'AR UDJingXiHeiE1G30 EB';-inkscape-font-specification:'AR UDJingXiHeiE1G30 EB';fill:#ffffff"
         id="path1043" />
      <path
         d="m 666.60418,178.00734 v 7.14 h -8.04 v -7.14 z m -0.36,12.18 v 32.28 h -7.44 v -32.28 z"
         style="font-family:'AR UDJingXiHeiE1G30 EB';-inkscape-font-specification:'AR UDJingXiHeiE1G30 EB';fill:#ffffff"
         id="path1045" />
      <path
         d="m 682.08415,201.10734 v 21.36 h -7.44 v -32.28 h 7.44 v 3.66 q 1.5,-1.86 4.08,-3.12 2.64,-1.32 5.88,-1.32 5.16,0 7.98,2.88 2.88,2.88 2.88,8.1 v 22.08 h -7.38 v -21.12 q 0,-2.88 -1.38,-4.44 -1.38,-1.62 -4.08,-1.62 -2.7,0 -4.92,1.74 -2.22,1.68 -3.06,4.08 z"
         style="font-family:'AR UDJingXiHeiE1G30 EB';-inkscape-font-specification:'AR UDJingXiHeiE1G30 EB';fill:#ffffff"
         id="path1047" />
      <path
         d="m 724.92405,189.40734 q 7.02,0 11.1,4.62 4.14,4.56 4.08,14.28 h -22.98 q 0.06,4.38 2.16,6.84 2.1,2.4 6.3,2.4 2.76,0 4.62,-1.08 1.92,-1.14 2.46,-3.06 h 7.14 q -0.72,4.14 -4.38,7.02 -3.66,2.82 -9.84,2.82 -7.8,0 -11.94,-4.38 -4.08,-4.38 -4.08,-12.42 -0.06,-7.62 3.96,-12.3 4.08,-4.74 11.4,-4.74 z m 0,5.7 q -3.18,0 -5.34,2.16 -2.16,2.16 -2.34,6.06 h 15.12 q -0.06,-3.72 -2.04,-5.94 -1.98,-2.28 -5.4,-2.28 z"
         style="font-family:'AR UDJingXiHeiE1G30 EB';-inkscape-font-specification:'AR UDJingXiHeiE1G30 EB';fill:#ffffff"
         id="path1049" />
    </g>
    <g
       inkscape:label="Layer 1"
       id="layer1-9"
       transform="matrix(1.0671903,0,0,1.0671904,12.404,11.433)">
      <path
         d="M 32.399816,40.499946 H 8.0997776 C 3.6262026,40.499946 0,36.873391 0,32.399816 V 8.1001304 C 0,3.6265555 3.6262026,0 8.0997776,0 H 32.399816 c 4.473575,0 8.100131,3.6265555 8.100131,8.1001304 V 32.399816 c 0,4.473575 -3.626556,8.10013 -8.100131,8.10013"
         fill="#ce2d30"
         id="path466"
         style="stroke-width:0.352778" />
      <path
         d="m 20.944064,18.948181 c 0.793397,0 1.417461,-0.218723 1.871839,-0.657225 0.45473,-0.437797 0.682272,-1.020586 0.682272,-1.748014 0,-0.710495 -0.202847,-1.256242 -0.607483,-1.636536 -0.405342,-0.379942 -1.012825,-0.570089 -1.82245,-0.570089 H 16.3322 v 4.611864 z m -8.802511,-7.810853 h 9.819216 c 1.768828,0 3.19017,0.446617 4.265084,1.339145 1.074208,0.892527 1.611488,2.148769 1.611488,3.768724 0,1.124656 -0.281163,2.099734 -0.842786,2.926292 -0.347133,0.529167 -0.860072,0.983544 -1.537405,1.363486 0.280458,0.198614 0.536928,0.42157 0.768703,0.669572 0.528461,0.578909 0.917222,1.231548 1.165225,1.958975 0.24765,0.727428 0.450144,1.599495 0.607483,2.615847 0.156986,1.016706 0.276578,2.211212 0.35948,3.583164 H 23.969133 C 23.902813,26.734339 23.663275,24.870614 23.250172,23.771006 22.836717,22.67175 22.076128,22.12177 20.968758,22.12177 H 16.3322 v 7.240763 h -4.190647 z"
         fill="#ffffff"
         id="path468"
         style="stroke-width:0.352778" />
    </g>
  </g>
</svg>
