<?xml version="1.0" encoding="UTF-8" standalone="no"?>
<!-- Created with Inkscape (http://www.inkscape.org/) -->

<svg
   width="400"
   height="100"
   viewBox="0 0 105.83334 26.458333"
   version="1.1"
   id="svg5"
   inkscape:version="1.1 (c68e22c387, 2021-05-23)"
   sodipodi:docname="reg.svg"
   xmlns:inkscape="http://www.inkscape.org/namespaces/inkscape"
   xmlns:sodipodi="http://sodipodi.sourceforge.net/DTD/sodipodi-0.dtd"
   xmlns="http://www.w3.org/2000/svg"
   xmlns:svg="http://www.w3.org/2000/svg">
  <sodipodi:namedview
     id="namedview7"
     pagecolor="#333333"
     bordercolor="#999999"
     borderopacity="1"
     inkscape:pageshadow="0"
     inkscape:pageopacity="1"
     inkscape:pagecheckerboard="true"
     inkscape:document-units="mm"
     showgrid="false"
     inkscape:zoom="1.8973437"
     inkscape:cx="219.2539"
     inkscape:cy="40.056"
     inkscape:window-width="1920"
     inkscape:window-height="1094"
     inkscape:window-x="-11"
     inkscape:window-y="-11"
     inkscape:window-maximized="1"
     inkscape:current-layer="layer1"
     units="px" />
  <defs
     id="defs2">
    <rect
       x="202.91527"
       y="13.176316"
       width="329.4079"
       height="59.029896"
       id="rect5816" />
  </defs>
  <g
     inkscape:label="Layer 1"
     inkscape:groupmode="layer"
     id="layer1">
    <rect
       style="fill:#333333;stroke:none;stroke-width:0.555625"
       id="rect38779"
       width="105.83334"
       height="26.458334"
       x="-5.0862632e-06"
       y="-3.1789145e-07" />
    <rect
       style="fill:#9e652e;stroke:none;stroke-width:0.555625;fill-opacity:1"
       id="rect40247"
       width="17.647709"
       height="2.6458333"
       x="-5.0862632e-06"
       y="23.8125" />
    <rect
       style="fill:#d0002b;fill-opacity:1;stroke:none;stroke-width:0.555625"
       id="rect40247-3"
       width="17.647709"
       height="2.6458333"
       x="17.647703"
       y="23.8125" />
    <rect
       style="fill:#007846;fill-opacity:1;stroke:none;stroke-width:0.555625"
       id="rect40247-3-6"
       width="17.647709"
       height="2.6458333"
       x="35.29541"
       y="23.8125" />
    <rect
       style="fill:#ffa000;fill-opacity:1;stroke:none;stroke-width:0.555625"
       id="rect40247-3-6-3"
       width="17.647709"
       height="2.6458333"
       x="52.943119"
       y="23.8125" />
    <rect
       style="fill:#005fb9;fill-opacity:1;stroke:none;stroke-width:0.555625"
       id="rect40247-3-6-3-5"
       width="17.647709"
       height="2.6458333"
       x="70.590828"
       y="23.8125" />
    <rect
       style="fill:#fedb00;fill-opacity:1;stroke:none;stroke-width:0.555625"
       id="rect40247-3-6-3-5-3"
       width="17.647709"
       height="2.6458333"
       x="88.185631"
       y="23.8125" />
    <g
       aria-label="一般廣播"
       id="text4857"
       style="font-size:14.7328px;line-height:1.25;stroke-width:0.368321">
      <path
         d="M 23.907827,7.8463313 H 37.550399 V 9.776328 H 23.907827 Z"
         style="font-weight:bold;font-family:'Noto Sans TC';-inkscape-font-specification:'Noto Sans TC Bold';fill:#ffffff"
         id="path12232" />
      <path
         d="m 38.493271,8.5387729 q 0.839769,-0.058931 1.929996,-0.1325952 1.090228,-0.073664 2.327783,-0.1620608 1.237555,-0.1031296 2.47511,-0.2062592 l 0.01473,1.3848832 Q 44.077002,9.5553361 42.883645,9.6879313 41.705021,9.8205264 40.614794,9.9383888 39.5393,10.056251 38.625866,10.144648 Z m 2.121523,-4.9796863 h 3.123353 v 1.399616 h -3.123353 z m 0.825037,-1.5764095 1.782668,0.2062592 q -0.220992,0.5598464 -0.427251,1.0460288 -0.191526,0.4861823 -0.36832,0.8545023 L 40.938915,3.8537426 q 0.132596,-0.3977855 0.279924,-0.9281663 0.147328,-0.5303808 0.220992,-0.9428992 z m -1.929997,1.5764095 h 1.546944 v 4.4345727 q 0,0.8545024 -0.0442,1.8857983 -0.0442,1.0165634 -0.16206,2.0920574 -0.117863,1.075495 -0.353588,2.077325 -0.235724,1.00183 -0.618777,1.8416 -0.147328,-0.147328 -0.397786,-0.324122 -0.250457,-0.162061 -0.515648,-0.324121 -0.250457,-0.162061 -0.441984,-0.235725 0.338855,-0.751373 0.530381,-1.650074 0.206259,-0.8987 0.294656,-1.826867 0.10313,-0.942899 0.132595,-1.8415997 0.02947,-0.9134336 0.02947,-1.694272 z m 7.543193,-0.8397695 h 2.976026 v 1.4880127 h -2.976026 z m -1.47328,5.4953342 h 5.15648 v 1.5469439 h -5.15648 z M 45.9628,2.7193171 h 1.635341 V 4.781909 q 0,0.5745792 -0.10313,1.1933568 -0.103129,0.6040448 -0.397785,1.1638911 -0.294656,0.5451136 -0.869235,0.9428992 -0.117863,-0.147328 -0.36832,-0.36832 -0.235725,-0.220992 -0.486183,-0.4272512 -0.250457,-0.2062592 -0.427251,-0.3093888 0.47145,-0.3241216 0.692442,-0.6777087 0.220992,-0.36832 0.26519,-0.7661056 0.05893,-0.3977856 0.05893,-0.7955712 z m -2.622438,0.8397695 h 1.591142 V 13.975176 q 0,0.589312 -0.147328,0.928166 -0.132595,0.338855 -0.515648,0.545114 -0.383053,0.176793 -0.942899,0.220992 -0.559846,0.0442 -1.355418,0.0442 -0.02947,-0.309389 -0.176793,-0.751373 -0.132595,-0.441984 -0.294656,-0.751372 0.471449,0.01473 0.942899,0.02947 0.47145,0 0.618778,0 0.279923,-0.01473 0.279923,-0.294656 z m -2.342515,2.3425152 1.075494,-0.5451136 q 0.324122,0.4714496 0.63351,1.031296 0.324122,0.5451135 0.500916,0.9428991 L 42.088074,7.9641937 Q 41.926013,7.5516753 41.601891,6.9770961 41.292503,6.3877842 40.997847,5.9016018 Z m 9.428991,2.3130495 h 0.324122 l 0.294656,-0.044198 1.016563,0.3830528 q -0.412518,2.0478593 -1.281753,3.4769403 -0.854503,1.429082 -2.106791,2.342516 -1.237555,0.913433 -2.784499,1.399615 -0.0884,-0.191526 -0.279923,-0.471449 -0.176794,-0.265191 -0.36832,-0.530381 -0.191526,-0.250458 -0.353587,-0.397785 1.47328,-0.397786 2.592972,-1.119693 1.134426,-0.73664 1.885799,-1.900531 0.751373,-1.178624 1.060761,-2.8581635 z m -3.182284,1.3554176 q 0.662976,1.6353411 2.018393,2.8728961 1.355418,1.222822 3.270682,1.797401 -0.176794,0.162061 -0.397786,0.427251 -0.220992,0.265191 -0.427251,0.530381 -0.191526,0.279923 -0.309389,0.515648 -2.062592,-0.73664 -3.476941,-2.180454 -1.399615,-1.458547 -2.239385,-3.491674 z m -6.246707,1.1638911 1.119692,-0.559846 q 0.324122,0.515648 0.662976,1.119692 0.353588,0.604045 0.515648,1.046029 l -1.149158,0.648243 Q 41.970211,12.531362 41.64609,11.897851 41.321968,11.249608 40.997847,10.73396 Z m 8.2651,-8.0146429 h 1.605875 v 2.8581631 q 0,0.294656 0.0442,0.4272512 0.0442,0.1178624 0.162061,0.1178624 0.05893,0 0.16206,0 0.117863,0 0.20626,0 0.103129,0 0.176793,0 0.147328,0 0.353587,-0.014733 0.220992,-0.029466 0.353588,-0.088397 0.02946,0.3241216 0.0442,0.7219071 0.02947,0.3830528 0.07366,0.6777088 -0.147328,0.073664 -0.36832,0.088397 -0.220992,0.014733 -0.427251,0.014733 -0.0884,0 -0.235725,0 -0.132595,0 -0.279923,0 -0.132595,0 -0.235725,0 -0.677709,0 -1.031296,-0.1915264 Q 49.513405,7.1244241 49.38081,6.6824401 49.262947,6.2404562 49.262947,5.5627474 Z"
         style="font-weight:bold;font-family:'Noto Sans TC';-inkscape-font-specification:'Noto Sans TC Bold';fill:#ffffff"
         id="path12234" />
      <path
         d="M 55.524359,3.1023699 H 66.927546 V 4.5903826 H 55.524359 Z m 1.10496,2.1804543 h 9.797312 V 6.2699218 H 56.629319 Z M 54.493063,3.1023699 h 1.67954 v 4.478771 q 0,0.9134336 -0.05893,1.988928 -0.05893,1.0607611 -0.220992,2.1804541 -0.147328,1.10496 -0.456716,2.150989 -0.294656,1.046029 -0.795572,1.885798 -0.16206,-0.132595 -0.441984,-0.309389 -0.26519,-0.176793 -0.559846,-0.338854 -0.279923,-0.147328 -0.486182,-0.220992 0.471449,-0.795571 0.73664,-1.723737 0.26519,-0.928167 0.397785,-1.900532 0.132595,-0.987097 0.162061,-1.9299963 0.0442,-0.957632 0.0442,-1.7826688 z m 6.187776,6.320371 h 1.650074 V 13.076475 H 60.680839 Z M 58.52985,11.779989 v 0.63351 h 5.863655 v -0.63351 z m 0,-1.591143 v 0.633511 h 5.863655 V 10.188846 Z M 56.953441,9.1722833 h 9.10487 v 4.2577787 h -9.10487 z m 5.244877,5.1712127 0.692441,-1.134426 q 0.707175,0.235725 1.443814,0.515648 0.73664,0.265191 1.399616,0.530381 0.662976,0.250458 1.149159,0.456717 l -0.810304,1.222822 q -0.456717,-0.220992 -1.10496,-0.500915 -0.633511,-0.26519 -1.355418,-0.559846 -0.707174,-0.279924 -1.414348,-0.530381 z m -2.504576,-1.149158 1.26702,1.134425 q -0.63351,0.279923 -1.384883,0.574579 -0.73664,0.294656 -1.47328,0.559847 -0.73664,0.279923 -1.325952,0.486182 -0.16206,-0.26519 -0.427251,-0.618778 -0.26519,-0.338854 -0.515648,-0.589312 0.604045,-0.176793 1.311219,-0.441983 0.707175,-0.279924 1.384883,-0.559847 0.677709,-0.294656 1.163892,-0.545113 z m 0.01473,-10.9022721 1.8416,-0.36832 q 0.162061,0.4125184 0.324122,0.8987008 0.162061,0.4714496 0.235725,0.8250367 L 60.20939,4.0894674 Q 60.150458,3.7211474 60.00313,3.2202323 59.855802,2.7193171 59.708474,2.2920659 Z m -1.37015,2.4456447 h 1.679539 v 2.0331263 h 2.813965 V 4.7377106 h 1.767936 v 2.7697663 h -6.26144 z M 56.452526,7.8315985 H 66.898081 V 8.8334289 H 56.452526 Z"
         style="font-weight:bold;font-family:'Noto Sans TC';-inkscape-font-specification:'Noto Sans TC Bold';fill:#ffffff"
         id="path12236" />
      <path
         d="m 80.452228,2.1005395 0.913433,1.2817536 q -0.869235,0.1473279 -1.885798,0.2799231 -1.001831,0.1178624 -2.092058,0.2062592 -1.075494,0.073664 -2.165721,0.1325952 -1.075495,0.058931 -2.092058,0.073664 -0.02947,-0.294656 -0.147328,-0.6629759 -0.117862,-0.36832 -0.235725,-0.6187776 1.001831,-0.044198 2.04786,-0.1031296 1.060761,-0.058931 2.092057,-0.147328 1.031296,-0.088397 1.94473,-0.1915264 0.913433,-0.1178624 1.620608,-0.2504576 z m -7.808384,3.8010623 h 8.957542 v 1.3554175 h -8.957542 z m 3.58007,-2.8139647 h 1.591142 v 6.4824318 h -1.591142 z m 0.05893,7.2632699 h 1.414349 v 4.287245 h -1.414349 z m -2.7403,-5.9962492 1.384883,-0.4125184 q 0.191526,0.3830528 0.383053,0.8397696 0.206259,0.441984 0.309388,0.7513728 L 74.176055,6.0194642 Q 74.072925,5.6953426 73.896132,5.223893 73.719338,4.7377106 73.542545,4.3546578 Z m 5.598463,-0.6187776 1.517479,0.3830528 q -0.294656,0.662976 -0.589312,1.3112192 -0.279923,0.6482432 -0.545114,1.10496 l -1.311219,-0.36832 q 0.176794,-0.3388544 0.338854,-0.7513728 0.176794,-0.4272512 0.338855,-0.8692352 0.162061,-0.441984 0.250457,-0.810304 z m -3.712665,3.0054911 1.37015,0.4567168 Q 76.385975,7.9199953 75.78193,8.5829713 75.192618,9.2312145 74.485444,9.7468624 73.793002,10.26251 73.026897,10.601365 72.850103,10.321442 72.525981,9.9531216 72.216593,9.5700689 71.951402,9.3343441 72.658577,9.0838865 73.321553,8.6861009 73.984529,8.2883153 74.529642,7.7874001 75.089489,7.2717521 75.428343,6.7413713 Z m -2.31305,3.1086207 h 7.896781 v 5.966784 h -1.620608 v -4.626099 h -4.729229 v 4.68503 h -1.546944 z m 1.193357,2.136256 h 5.465869 V 13.20907 H 74.30865 Z m 0,2.077325 h 5.451136 v 1.237555 H 74.30865 Z M 67.840951,9.6584657 q 0.869235,-0.2357248 2.077325,-0.6187776 1.208089,-0.3977856 2.430912,-0.7955712 l 0.279923,1.5616767 q -1.134426,0.4125184 -2.31305,0.8250364 -1.163891,0.397786 -2.165721,0.73664 z m 0.250458,-4.8323583 h 4.508236 v 1.620608 h -4.508236 z m 1.546944,-2.7844991 h 1.620608 V 14.004642 q 0,0.604044 -0.132596,0.957631 -0.117862,0.36832 -0.456716,0.57458 -0.324122,0.206259 -0.825037,0.279923 -0.486182,0.07366 -1.222822,0.05893 -0.02947,-0.324122 -0.162061,-0.810304 -0.132595,-0.47145 -0.294656,-0.825037 0.412518,0.01473 0.751373,0.02947 0.353587,0 0.486182,-0.01473 0.132595,0 0.176794,-0.0442 0.05893,-0.05893 0.05893,-0.206259 z m 7.454796,5.4806014 0.913434,-0.9723647 q 0.648243,0.3683199 1.384883,0.8545023 0.751373,0.4714496 1.429082,0.957632 0.677708,0.4714496 1.10496,0.8692352 L 80.923677,10.350907 Q 80.540624,9.9531216 79.877648,9.4522065 79.229405,8.9365585 78.478032,8.4356433 77.741392,7.9199953 77.093149,7.5222097 Z"
         style="font-weight:bold;font-family:'Noto Sans TC';-inkscape-font-specification:'Noto Sans TC Bold';fill:#ffffff"
         id="path12238" />
    </g>
    <g
       aria-label="Standard Announcements"
       id="text8779"
       style="font-size:6.60935px;line-height:1.25;stroke-width:0.165234">
      <path
         d="m 13.141682,19.884185 q -0.872434,-0.158625 -1.295433,-0.489092 -0.422998,-0.330468 -0.422998,-0.925309 0,-0.555186 0.449436,-0.9187 0.456045,-0.363514 1.401182,-0.363514 0.865825,0 1.341698,0.370123 0.475873,0.370124 0.522139,1.070715 h -0.839388 q -0.0066,-0.337077 -0.264374,-0.561795 -0.257765,-0.224718 -0.786513,-0.224718 -0.495701,0 -0.733637,0.165234 -0.237937,0.165234 -0.231328,0.462655 0,0.323858 0.317249,0.482482 0.323858,0.158625 1.050887,0.30403 0.91209,0.185062 1.295432,0.502311 0.389952,0.317249 0.389952,0.951746 0,0.608061 -0.515529,1.01784 -0.51553,0.403171 -1.467276,0.403171 -0.971574,0 -1.513541,-0.40978 -0.541967,-0.40978 -0.541967,-1.183074 h 0.839388 q 0,0.429608 0.323858,0.687373 0.323858,0.251155 0.898871,0.251155 0.528748,0 0.826169,-0.20489 0.297421,-0.20489 0.297421,-0.535357 0,-0.383342 -0.297421,-0.548576 -0.297421,-0.165234 -1.044277,-0.30403 z"
         style="font-family:'AR UDJingXiHeiE1G30 EB';-inkscape-font-specification:'AR UDJingXiHeiE1G30 EB';fill:#ffffff"
         id="path12241" />
      <path
         d="m 17.067636,18.489612 h 0.687372 v 0.621279 h -0.687372 v 2.015852 q 0,0.145405 0.0727,0.224717 0.07931,0.0727 0.237936,0.0727 h 0.376733 v 0.621279 h -0.660935 q -0.40978,0 -0.627888,-0.191671 -0.218109,-0.19828 -0.218109,-0.60806 v -2.13482 h -0.601451 v -0.621279 h 0.601451 v -0.879044 h 0.81956 z"
         style="font-family:'AR UDJingXiHeiE1G30 EB';-inkscape-font-specification:'AR UDJingXiHeiE1G30 EB';fill:#ffffff"
         id="path12243" />
      <path
         d="m 19.579177,21.483647 q 0.31064,0 0.568404,-0.112359 0.257765,-0.112358 0.456045,-0.363514 v -0.555185 h -0.495701 q -0.568404,0 -0.839387,0.158624 -0.270984,0.158625 -0.270984,0.436217 0,0.198281 0.145406,0.317249 0.145406,0.118968 0.436217,0.118968 z M 19.85677,18.40369 q 0.793122,0 1.176464,0.323858 0.389952,0.317249 0.389952,0.938528 v 2.379366 h -0.81956 v -0.422998 q -0.224717,0.251155 -0.522138,0.383342 -0.290812,0.125578 -0.687373,0.125578 -0.588232,0 -0.91209,-0.284202 -0.323858,-0.290812 -0.323858,-0.760076 0,-0.561794 0.482482,-0.865824 0.482483,-0.304031 1.467276,-0.304031 h 0.495701 V 19.62642 q 0,-0.297421 -0.185061,-0.449436 -0.178453,-0.152015 -0.561795,-0.152015 -0.389952,0 -0.588232,0.158625 -0.191671,0.152015 -0.191671,0.409779 h -0.81295 q 0,-0.50231 0.40317,-0.845997 0.40978,-0.343686 1.189683,-0.343686 z"
         style="font-family:'AR UDJingXiHeiE1G30 EB';-inkscape-font-specification:'AR UDJingXiHeiE1G30 EB';fill:#ffffff"
         id="path12245" />
      <path
         d="m 23.115169,19.692514 v 2.352928 H 22.29561 v -3.55583 h 0.819559 v 0.40317 q 0.165234,-0.20489 0.449436,-0.343686 0.290812,-0.145406 0.647716,-0.145406 0.568405,0 0.879044,0.317249 0.317249,0.317249 0.317249,0.892262 v 2.432241 h -0.81295 v -2.326491 q 0,-0.317249 -0.152015,-0.489092 -0.152015,-0.178452 -0.449436,-0.178452 -0.297421,0 -0.541967,0.191671 -0.244546,0.185062 -0.337077,0.449436 z"
         style="font-family:'AR UDJingXiHeiE1G30 EB';-inkscape-font-specification:'AR UDJingXiHeiE1G30 EB';fill:#ffffff"
         id="path12247" />
      <path
         d="m 28.746324,20.531901 v -0.535357 q -0.01322,-0.416389 -0.270983,-0.687373 -0.257765,-0.270983 -0.641107,-0.270983 -0.429608,0 -0.660935,0.317249 -0.224718,0.310639 -0.224718,0.925309 0,0.555185 0.224718,0.885653 0.224718,0.330467 0.660935,0.330467 0.396561,0 0.647716,-0.270983 0.257765,-0.270984 0.264374,-0.693982 z m 0,1.083933 q -0.211499,0.257765 -0.475873,0.389952 -0.257765,0.125578 -0.568404,0.125578 -0.746857,0 -1.176465,-0.502311 -0.422998,-0.50231 -0.422998,-1.354917 0,-0.859215 0.40978,-1.361526 0.416389,-0.50231 1.143417,-0.50892 0.337077,0 0.60806,0.125578 0.277593,0.125578 0.482483,0.376733 v -1.877056 h 0.819559 v 5.016497 h -0.819559 z"
         style="font-family:'AR UDJingXiHeiE1G30 EB';-inkscape-font-specification:'AR UDJingXiHeiE1G30 EB';fill:#ffffff"
         id="path12249" />
      <path
         d="m 31.667657,21.483647 q 0.31064,0 0.568404,-0.112359 0.257765,-0.112358 0.456045,-0.363514 v -0.555185 h -0.495701 q -0.568404,0 -0.839387,0.158624 -0.270984,0.158625 -0.270984,0.436217 0,0.198281 0.145406,0.317249 0.145406,0.118968 0.436217,0.118968 z M 31.94525,18.40369 q 0.793122,0 1.176464,0.323858 0.389952,0.317249 0.389952,0.938528 v 2.379366 h -0.81956 v -0.422998 q -0.224717,0.251155 -0.522138,0.383342 -0.290812,0.125578 -0.687373,0.125578 -0.588232,0 -0.91209,-0.284202 -0.323858,-0.290812 -0.323858,-0.760076 0,-0.561794 0.482482,-0.865824 0.482483,-0.304031 1.467276,-0.304031 h 0.495701 V 19.62642 q 0,-0.297421 -0.185061,-0.449436 -0.178453,-0.152015 -0.561795,-0.152015 -0.389952,0 -0.588232,0.158625 -0.191671,0.152015 -0.191671,0.409779 h -0.81295 q 0,-0.50231 0.40317,-0.845997 0.40978,-0.343686 1.189683,-0.343686 z"
         style="font-family:'AR UDJingXiHeiE1G30 EB';-inkscape-font-specification:'AR UDJingXiHeiE1G30 EB';fill:#ffffff"
         id="path12251" />
      <path
         d="m 35.144165,19.83131 v 2.214132 h -0.81295 v -3.55583 h 0.81295 v 0.548576 q 0.231327,-0.323858 0.522139,-0.475873 0.297421,-0.158625 0.647716,-0.158625 v 0.760076 q -0.396561,0 -0.7072,0.191671 -0.31064,0.185061 -0.462655,0.475873 z"
         style="font-family:'AR UDJingXiHeiE1G30 EB';-inkscape-font-specification:'AR UDJingXiHeiE1G30 EB';fill:#ffffff"
         id="path12253" />
      <path
         d="m 39.28822,20.531901 v -0.535357 q -0.01322,-0.416389 -0.270983,-0.687373 -0.257765,-0.270983 -0.641107,-0.270983 -0.429608,0 -0.660935,0.317249 -0.224718,0.310639 -0.224718,0.925309 0,0.555185 0.224718,0.885653 0.224717,0.330467 0.660935,0.330467 0.396561,0 0.647716,-0.270983 0.257765,-0.270984 0.264374,-0.693982 z m 0,1.083933 q -0.211499,0.257765 -0.475873,0.389952 -0.257765,0.125578 -0.568404,0.125578 -0.746857,0 -1.176465,-0.502311 -0.422998,-0.50231 -0.422998,-1.354917 0,-0.859215 0.40978,-1.361526 0.416389,-0.50231 1.143417,-0.50892 0.337077,0 0.60806,0.125578 0.277593,0.125578 0.482483,0.376733 v -1.877056 h 0.819559 v 5.016497 H 39.28822 Z"
         style="font-family:'AR UDJingXiHeiE1G30 EB';-inkscape-font-specification:'AR UDJingXiHeiE1G30 EB';fill:#ffffff"
         id="path12255" />
      <path
         d="m 45.368817,20.115512 -0.753466,-2.042289 -0.766684,2.042289 z m -1.764696,0.654326 -0.475873,1.275604 h -0.852607 l 1.923321,-4.77856 h 0.859216 l 1.910102,4.77856 h -0.872434 l -0.482483,-1.275604 z"
         style="font-family:'AR UDJingXiHeiE1G30 EB';-inkscape-font-specification:'AR UDJingXiHeiE1G30 EB';fill:#ffffff"
         id="path12257" />
      <path
         d="m 48.250486,19.692514 v 2.352928 h -0.819559 v -3.55583 h 0.819559 v 0.40317 q 0.165234,-0.20489 0.449436,-0.343686 0.290811,-0.145406 0.647716,-0.145406 0.568404,0 0.879044,0.317249 0.317249,0.317249 0.317249,0.892262 v 2.432241 h -0.81295 v -2.326491 q 0,-0.317249 -0.152015,-0.489092 -0.152016,-0.178452 -0.449436,-0.178452 -0.297421,0 -0.541967,0.191671 -0.244546,0.185062 -0.337077,0.449436 z"
         style="font-family:'AR UDJingXiHeiE1G30 EB';-inkscape-font-specification:'AR UDJingXiHeiE1G30 EB';fill:#ffffff"
         id="path12259" />
      <path
         d="m 52.242525,19.692514 v 2.352928 h -0.81956 v -3.55583 h 0.81956 v 0.40317 q 0.165234,-0.20489 0.449436,-0.343686 0.290811,-0.145406 0.647716,-0.145406 0.568404,0 0.879044,0.317249 0.317248,0.317249 0.317248,0.892262 v 2.432241 h -0.81295 v -2.326491 q 0,-0.317249 -0.152015,-0.489092 -0.152015,-0.178452 -0.449436,-0.178452 -0.29742,0 -0.541966,0.191671 -0.244546,0.185062 -0.337077,0.449436 z"
         style="font-family:'AR UDJingXiHeiE1G30 EB';-inkscape-font-specification:'AR UDJingXiHeiE1G30 EB';fill:#ffffff"
         id="path12261" />
      <path
         d="m 57.060729,18.40369 q 0.879043,0 1.328479,0.522139 0.456045,0.515529 0.456045,1.328479 0,0.81295 -0.456045,1.348308 -0.449436,0.528748 -1.328479,0.528748 -0.865825,0 -1.335089,-0.528748 -0.462655,-0.535358 -0.462655,-1.348308 0,-0.80634 0.456045,-1.328479 0.462655,-0.522139 1.341699,-0.522139 z m 0.945137,1.850618 q 0,-0.601451 -0.264374,-0.91209 -0.264374,-0.310639 -0.680763,-0.310639 -0.436218,0 -0.700592,0.30403 -0.257764,0.30403 -0.257764,0.918699 0,0.621279 0.264374,0.938528 0.264374,0.310639 0.693982,0.310639 0.416389,0 0.680763,-0.310639 0.264374,-0.310639 0.264374,-0.938528 z"
         style="font-family:'AR UDJingXiHeiE1G30 EB';-inkscape-font-specification:'AR UDJingXiHeiE1G30 EB';fill:#ffffff"
         id="path12263" />
      <path
         d="m 61.878943,20.84915 v -2.359538 h 0.81295 v 3.55583 h -0.81295 v -0.40317 q -0.178453,0.211499 -0.469264,0.350295 -0.284202,0.132187 -0.654326,0.132187 -0.561795,0 -0.872434,-0.310639 -0.30403,-0.317249 -0.30403,-0.892262 v -2.432241 h 0.819559 v 2.326491 q 0,0.330468 0.152015,0.495701 0.152015,0.165234 0.456046,0.165234 0.290811,0 0.535357,-0.185062 0.244546,-0.185062 0.337077,-0.442826 z"
         style="font-family:'AR UDJingXiHeiE1G30 EB';-inkscape-font-specification:'AR UDJingXiHeiE1G30 EB';fill:#ffffff"
         id="path12265" />
      <path
         d="m 64.403703,19.692514 v 2.352928 h -0.819559 v -3.55583 h 0.819559 v 0.40317 q 0.165234,-0.20489 0.449436,-0.343686 0.290812,-0.145406 0.647717,-0.145406 0.568404,0 0.879043,0.317249 0.317249,0.317249 0.317249,0.892262 v 2.432241 h -0.81295 v -2.326491 q 0,-0.317249 -0.152015,-0.489092 -0.152015,-0.178452 -0.449436,-0.178452 -0.297421,0 -0.541967,0.191671 -0.244546,0.185062 -0.337077,0.449436 z"
         style="font-family:'AR UDJingXiHeiE1G30 EB';-inkscape-font-specification:'AR UDJingXiHeiE1G30 EB';fill:#ffffff"
         id="path12267" />
      <path
         d="m 69.19547,22.131364 q -0.885653,0 -1.32848,-0.50892 -0.436217,-0.51553 -0.436217,-1.394573 0,-0.806341 0.442827,-1.315261 0.449436,-0.50892 1.288823,-0.50892 0.71381,0 1.130199,0.350296 0.422998,0.350295 0.469264,0.938528 h -0.81956 q -0.01322,-0.290812 -0.218108,-0.475874 -0.198281,-0.185061 -0.575014,-0.185061 -0.409779,0 -0.647716,0.317248 -0.231327,0.31064 -0.231327,0.879044 0,0.654326 0.244546,0.964965 0.251155,0.310639 0.667544,0.310639 0.370124,0 0.568404,-0.191671 0.198281,-0.191671 0.20489,-0.515529 h 0.819559 q -0.0066,0.60806 -0.422998,0.971574 -0.40978,0.363515 -1.156636,0.363515 z"
         style="font-family:'AR UDJingXiHeiE1G30 EB';-inkscape-font-specification:'AR UDJingXiHeiE1G30 EB';fill:#ffffff"
         id="path12269" />
      <path
         d="m 73.035498,18.40369 q 0.773294,0 1.22273,0.50892 0.456045,0.502311 0.449436,1.573026 h -2.531381 q 0.0066,0.482482 0.237936,0.753465 0.231327,0.264374 0.693982,0.264374 0.30403,0 0.50892,-0.118968 0.211499,-0.125577 0.270983,-0.337077 h 0.786513 q -0.07931,0.456045 -0.482483,0.773294 -0.40317,0.31064 -1.083933,0.31064 -0.859216,0 -1.315261,-0.482483 -0.449436,-0.482482 -0.449436,-1.368135 -0.0066,-0.839388 0.436218,-1.354917 0.449435,-0.522139 1.255776,-0.522139 z m 0,0.627889 q -0.350295,0 -0.588232,0.237936 -0.237937,0.237937 -0.257765,0.667544 h 1.665556 q -0.0066,-0.409779 -0.224717,-0.654325 -0.218109,-0.251155 -0.594842,-0.251155 z"
         style="font-family:'AR UDJingXiHeiE1G30 EB';-inkscape-font-specification:'AR UDJingXiHeiE1G30 EB';fill:#ffffff"
         id="path12271" />
      <path
         d="m 76.207974,19.712342 v 2.3331 h -0.81295 v -3.55583 h 0.81295 v 0.469264 q 0.171843,-0.237937 0.442827,-0.396561 0.270983,-0.158625 0.614669,-0.158625 0.356905,0 0.594842,0.158625 0.237937,0.152015 0.343686,0.429607 0.211499,-0.270983 0.489092,-0.429607 0.284202,-0.158625 0.627888,-0.158625 0.528748,0 0.81956,0.323858 0.29742,0.323859 0.29742,0.925309 v 2.392585 h -0.81295 v -2.359538 q 0,-0.297421 -0.138796,-0.462654 -0.132187,-0.165234 -0.383342,-0.165234 -0.257765,0 -0.475873,0.185062 -0.2115,0.178452 -0.297421,0.456045 v 2.346319 h -0.81956 v -2.352928 q 0,-0.304031 -0.132187,-0.469264 -0.125577,-0.165234 -0.383342,-0.165234 -0.264374,0 -0.489092,0.19828 -0.218108,0.198281 -0.297421,0.456046 z"
         style="font-family:'AR UDJingXiHeiE1G30 EB';-inkscape-font-specification:'AR UDJingXiHeiE1G30 EB';fill:#ffffff"
         id="path12273" />
      <path
         d="m 82.870192,18.40369 q 0.773294,0 1.22273,0.50892 0.456045,0.502311 0.449436,1.573026 h -2.531382 q 0.0066,0.482482 0.237937,0.753465 0.231327,0.264374 0.693982,0.264374 0.30403,0 0.50892,-0.118968 0.211499,-0.125577 0.270983,-0.337077 h 0.786513 q -0.07931,0.456045 -0.482483,0.773294 -0.40317,0.31064 -1.083933,0.31064 -0.859216,0 -1.315261,-0.482483 -0.449436,-0.482482 -0.449436,-1.368135 -0.0066,-0.839388 0.436217,-1.354917 0.449436,-0.522139 1.255777,-0.522139 z m 0,0.627889 q -0.350296,0 -0.588232,0.237936 -0.237937,0.237937 -0.257765,0.667544 h 1.665556 q -0.0066,-0.409779 -0.224718,-0.654325 -0.218108,-0.251155 -0.594841,-0.251155 z"
         style="font-family:'AR UDJingXiHeiE1G30 EB';-inkscape-font-specification:'AR UDJingXiHeiE1G30 EB';fill:#ffffff"
         id="path12275" />
      <path
         d="m 86.088934,19.692514 v 2.352928 h -0.81956 v -3.55583 h 0.81956 v 0.40317 q 0.165233,-0.20489 0.449436,-0.343686 0.290811,-0.145406 0.647716,-0.145406 0.568404,0 0.879043,0.317249 0.317249,0.317249 0.317249,0.892262 v 2.432241 h -0.81295 v -2.326491 q 0,-0.317249 -0.152015,-0.489092 -0.152015,-0.178452 -0.449436,-0.178452 -0.29742,0 -0.541966,0.191671 -0.244546,0.185062 -0.337077,0.449436 z"
         style="font-family:'AR UDJingXiHeiE1G30 EB';-inkscape-font-specification:'AR UDJingXiHeiE1G30 EB';fill:#ffffff"
         id="path12277" />
      <path
         d="m 90.292468,18.489612 h 0.687372 v 0.621279 h -0.687372 v 2.015852 q 0,0.145405 0.0727,0.224717 0.07931,0.0727 0.237936,0.0727 h 0.376733 v 0.621279 h -0.660935 q -0.409779,0 -0.627888,-0.191671 -0.218109,-0.19828 -0.218109,-0.60806 v -2.13482 h -0.60145 v -0.621279 h 0.60145 v -0.879044 h 0.81956 z"
         style="font-family:'AR UDJingXiHeiE1G30 EB';-inkscape-font-specification:'AR UDJingXiHeiE1G30 EB';fill:#ffffff"
         id="path12279" />
      <path
         d="m 92.757744,20.531901 q -0.680763,-0.112359 -0.998012,-0.363514 -0.310639,-0.257765 -0.310639,-0.71381 0,-0.449436 0.363514,-0.746857 0.363514,-0.30403 1.077324,-0.30403 0.746857,0 1.12359,0.330468 0.376733,0.330467 0.376733,0.819559 h -0.81956 q -0.02644,-0.257764 -0.19828,-0.389951 -0.171843,-0.132187 -0.482483,-0.132187 -0.29742,0 -0.456045,0.105749 -0.152015,0.09914 -0.152015,0.297421 0,0.224718 0.231327,0.330467 0.231328,0.10575 0.81295,0.20489 0.674154,0.112359 0.938528,0.370124 0.270983,0.251155 0.270983,0.7072 0,0.495702 -0.40317,0.793122 -0.40317,0.290812 -1.130199,0.290812 -0.852606,0 -1.242558,-0.343686 -0.383342,-0.350296 -0.389951,-0.852607 h 0.819559 q 0.01322,0.264374 0.211499,0.416389 0.20489,0.152015 0.594842,0.152015 0.323858,0 0.515529,-0.105749 0.191671,-0.10575 0.191671,-0.323858 0,-0.224718 -0.191671,-0.330468 -0.191671,-0.112359 -0.753466,-0.211499 z"
         style="font-family:'AR UDJingXiHeiE1G30 EB';-inkscape-font-specification:'AR UDJingXiHeiE1G30 EB';fill:#ffffff"
         id="path12281" />
    </g>
  </g>
  <style
     type="text/css"
     id="style824">
	.st0{fill:#38B035;}
	.st1{fill:#007AB0;}
</style>
</svg>
