<?xml version="1.0" encoding="UTF-8" standalone="no"?>
<!-- Created with Inkscape (http://www.inkscape.org/) -->

<svg
   width="400"
   height="100"
   viewBox="0 0 105.83334 26.458333"
   version="1.1"
   id="svg5"
   inkscape:version="1.1 (c68e22c387, 2021-05-23)"
   sodipodi:docname="right.svg"
   xmlns:inkscape="http://www.inkscape.org/namespaces/inkscape"
   xmlns:sodipodi="http://sodipodi.sourceforge.net/DTD/sodipodi-0.dtd"
   xmlns="http://www.w3.org/2000/svg"
   xmlns:svg="http://www.w3.org/2000/svg">
  <sodipodi:namedview
     id="namedview7"
     pagecolor="#333333"
     bordercolor="#999999"
     borderopacity="1"
     inkscape:pageshadow="0"
     inkscape:pageopacity="1"
     inkscape:pagecheckerboard="true"
     inkscape:document-units="mm"
     showgrid="false"
     inkscape:zoom="1.8973437"
     inkscape:cx="240.336"
     inkscape:cy="40.056"
     inkscape:window-width="1920"
     inkscape:window-height="1094"
     inkscape:window-x="-11"
     inkscape:window-y="-11"
     inkscape:window-maximized="1"
     inkscape:current-layer="layer1"
     units="px" />
  <defs
     id="defs2">
    <rect
       x="202.91527"
       y="13.176316"
       width="329.4079"
       height="59.029896"
       id="rect5816" />
  </defs>
  <g
     inkscape:label="Layer 1"
     inkscape:groupmode="layer"
     id="layer1">
    <rect
       style="fill:#333333;stroke:none;stroke-width:0.555625"
       id="rect38779"
       width="105.83334"
       height="26.458334"
       x="-5.0862632e-06"
       y="-3.1789145e-07" />
    <g
       id="g1000"
       transform="translate(0,0.86005637)">
      <g
         aria-label="右側開門"
         id="text51566"
         style="font-size:13.7431px;line-height:1.25;stroke-width:0.343577">
        <path
           d="M 26.59184,3.7920607 H 38.795713 V 5.4000035 H 26.59184 Z m 3.72438,8.2183743 h 6.390542 v 1.594199 H 30.31622 Z M 29.34046,7.6263857 h 8.506979 V 14.305532 H 36.115808 V 9.2205853 H 30.989632 V 14.374248 H 29.34046 Z M 31.07209,1.4419906 32.803721,1.771825 Q 32.473887,3.2011074 31.992878,4.6166468 31.525613,6.018443 30.852201,7.3377806 30.192532,8.6433751 29.285487,9.7703093 28.392186,10.8835 27.196536,11.735573 q -0.109945,-0.192404 -0.316091,-0.43978 -0.192403,-0.247375 -0.39855,-0.481008 -0.206146,-0.247376 -0.384807,-0.39855 1.085705,-0.7421274 1.910291,-1.7591168 0.824586,-1.0169894 1.415539,-2.198896 0.604697,-1.1956497 1.003247,-2.4737581 0.412293,-1.2781083 0.645925,-2.5424735 z"
           style="font-weight:bold;font-family:'Noto Sans TC';-inkscape-font-specification:'Noto Sans TC Bold';fill:#ffffff"
           id="path74835" />
        <path
           d="m 45.364889,5.9909568 v 1.1956497 h 1.223136 V 5.9909568 Z m 0,2.4187856 v 1.2093928 h 1.223136 V 8.4097424 Z m 0,-4.8238282 v 1.1819067 h 1.223136 V 3.5859142 Z M 43.990579,2.2665766 H 48.03105 V 10.92473 h -4.040471 z m 2.198896,9.3590514 1.168163,-0.645926 q 0.357321,0.535981 0.700899,1.181907 0.35732,0.645925 0.522237,1.113191 l -1.250622,0.742127 q -0.0962,-0.316091 -0.288605,-0.728384 -0.17866,-0.412293 -0.412293,-0.852072 -0.219889,-0.439779 -0.439779,-0.810843 z m 2.56996,-8.6581533 h 1.415539 V 11.185849 H 48.759435 Z M 50.99956,1.6618802 h 1.497998 V 12.532672 q 0,0.604697 -0.137431,0.948274 -0.123688,0.357321 -0.467266,0.535981 -0.343577,0.206147 -0.865815,0.261119 -0.522238,0.06872 -1.250622,0.06872 -0.04123,-0.329835 -0.17866,-0.783357 -0.123688,-0.453522 -0.274862,-0.783357 0.467265,0.01374 0.865815,0.01374 0.39855,0 0.535981,0 0.151174,0 0.206146,-0.05497 0.06872,-0.06872 0.06872,-0.206147 z m -6.321826,9.3040788 1.319338,0.714641 q -0.206147,0.439779 -0.522238,0.934531 -0.302348,0.481009 -0.632183,0.920788 -0.329834,0.453522 -0.645926,0.769613 -0.206146,-0.192403 -0.549724,-0.453522 -0.329834,-0.261119 -0.604696,-0.439779 0.329834,-0.302348 0.632183,-0.714641 0.316091,-0.426036 0.57721,-0.879559 0.261119,-0.467265 0.426036,-0.852072 z M 42.437609,1.4694768 43.963093,1.9229991 Q 43.578286,3.1186488 43.028562,4.3417847 42.492581,5.5649207 41.846655,6.6643687 41.20073,7.7500736 40.499831,8.5746596 40.444859,8.3822562 40.307428,8.0386787 40.169997,7.6951012 40.00508,7.3515237 39.840163,7.0079462 39.716475,6.7880566 40.266199,6.1421309 40.774693,5.2900587 41.296931,4.4379865 41.722967,3.4622263 42.149003,2.4727231 42.437609,1.4694768 Z m -1.099448,3.7793526 1.525484,-1.5254842 0.04123,0.027486 V 14.346762 h -1.566713 z"
           style="font-weight:bold;font-family:'Noto Sans TC';-inkscape-font-specification:'Noto Sans TC Bold';fill:#ffffff"
           id="path74837" />
        <path
           d="m 56.826609,7.5714133 h 6.665403 v 1.2918514 h -6.665403 z m -0.192404,2.336327 h 7.09144 v 1.3468237 h -7.09144 z m 4.109187,-1.9377771 h 1.456769 v 6.1294228 h -1.456769 z m -2.679904,0.068716 h 1.415539 v 2.6249328 q 0,0.343577 -0.08246,0.810843 -0.08246,0.467265 -0.288605,1.003246 -0.192403,0.522238 -0.549724,1.003246 -0.35732,0.494752 -0.893301,0.865816 -0.17866,-0.21989 -0.494752,-0.508495 -0.316091,-0.274862 -0.563467,-0.439779 0.57721,-0.357321 0.893302,-0.865816 0.329834,-0.508494 0.439779,-1.016989 0.123688,-0.508495 0.123688,-0.852072 z M 55.204923,3.8470331 h 3.449518 V 4.918995 h -3.449518 z m 6.376798,0 h 3.463262 V 4.918995 h -3.463262 z m 2.817336,-1.8690616 h 1.621686 V 12.436471 q 0,0.632182 -0.137431,0.989503 -0.123688,0.371064 -0.508495,0.57721 -0.371064,0.206147 -0.920788,0.261119 -0.549724,0.05497 -1.346824,0.04123 -0.02749,-0.219889 -0.109944,-0.522237 -0.06872,-0.288606 -0.164918,-0.590954 -0.0962,-0.302348 -0.219889,-0.508494 0.467265,0.01374 0.907044,0.02749 0.43978,0 0.604697,-0.01374 0.151174,0 0.206146,-0.06872 0.06872,-0.06871 0.06872,-0.206146 z m -9.04296,0 h 4.34282 v 4.8788006 h -4.34282 V 5.6748655 h 2.803592 V 3.146135 h -2.803592 z m 9.895032,0 V 3.146135 h -3.092197 v 2.5699598 h 3.092197 V 6.8980014 H 60.592218 V 1.9779715 Z m -10.870792,0 H 55.98828 V 14.360505 h -1.607943 z"
           style="font-weight:bold;font-family:'Noto Sans TC';-inkscape-font-specification:'Noto Sans TC Bold';fill:#ffffff"
           id="path74839" />
        <path
           d="m 68.947999,4.0531796 h 3.435775 v 1.1681636 h -3.435775 z m 6.349312,0 h 3.463262 v 1.1681636 h -3.463262 z m 2.803593,-2.061465 h 1.676658 V 12.354012 q 0,0.714641 -0.17866,1.099448 -0.17866,0.39855 -0.61844,0.590953 -0.453522,0.206147 -1.15442,0.247376 -0.700898,0.05497 -1.704145,0.05497 -0.02749,-0.233633 -0.123687,-0.549724 -0.0962,-0.302349 -0.21989,-0.61844 -0.109945,-0.302348 -0.247376,-0.522238 0.439779,0.02749 0.893302,0.04123 0.453522,0 0.7971,0 0.35732,0 0.494751,0 0.21989,0 0.302348,-0.08246 0.08246,-0.08246 0.08246,-0.274862 z m -9.029217,0 h 4.329077 v 5.346066 H 69.071687 V 6.0046999 h 2.789849 V 3.3247953 h -2.789849 z m 9.922518,0 v 1.3330807 h -3.078454 v 2.7211339 h 3.078454 V 7.3652668 H 74.349038 V 1.9917146 Z m -10.857049,0 h 1.635429 V 14.360505 h -1.635429 z"
           style="font-weight:bold;font-family:'Noto Sans TC';-inkscape-font-specification:'Noto Sans TC Bold';fill:#ffffff"
           id="path74841" />
      </g>
      <g
         aria-label="Doors open on the RIGHT side"
         id="text56184"
         style="font-size:7.56567px;line-height:1.25;fill:#ffffff;stroke-width:0.189143">
        <path
           d="m 12.28154,18.711434 q 0,1.301295 -0.55986,2.050297 -0.552294,0.741435 -1.482871,0.741435 h -1.74767 v -5.469979 h 1.740104 q 0.923012,0 1.482871,0.696041 0.567426,0.688476 0.567426,1.982206 z m -0.847355,0 q 0,-0.968406 -0.340456,-1.475306 -0.340455,-0.514465 -1.006234,-0.514465 H 9.3082313 v 4.093027 h 0.7943957 q 0.643082,0 0.983537,-0.537162 0.348021,-0.537163 0.348021,-1.566094 z"
           style="font-weight:800;font-family:'AR UDJingXiHeiE1C80B5HK EB';-inkscape-font-specification:'AR UDJingXiHeiE1C80B5HK EB Ultra-Bold'"
           id="path74788" />
        <path
           d="m 14.48314,17.342048 q 0.809527,0 1.233204,0.582556 0.431243,0.582557 0.431243,1.528266 0,1.028931 -0.431243,1.58879 -0.423677,0.55986 -1.233204,0.55986 -0.801961,0 -1.233204,-0.55986 -0.423678,-0.559859 -0.423678,-1.58879 0,-0.945709 0.423678,-1.528266 0.423677,-0.582556 1.233204,-0.582556 z m 0,0.650647 q -0.385849,0 -0.612819,0.363152 -0.219405,0.355587 -0.219405,1.097023 0,0.786829 0.22697,1.142416 0.226971,0.355586 0.605254,0.355586 0.393415,0 0.612819,-0.363152 0.22697,-0.363152 0.22697,-1.13485 0,-0.73387 -0.219404,-1.097023 -0.219404,-0.363152 -0.620385,-0.363152 z"
           style="font-weight:800;font-family:'AR UDJingXiHeiE1C80B5HK EB';-inkscape-font-specification:'AR UDJingXiHeiE1C80B5HK EB Ultra-Bold'"
           id="path74790" />
        <path
           d="m 18.318935,17.342048 q 0.809527,0 1.233204,0.582556 0.431243,0.582557 0.431243,1.528266 0,1.028931 -0.431243,1.58879 -0.423677,0.55986 -1.233204,0.55986 -0.801961,0 -1.233204,-0.55986 -0.423678,-0.559859 -0.423678,-1.58879 0,-0.945709 0.423678,-1.528266 0.423677,-0.582556 1.233204,-0.582556 z m 0,0.650647 q -0.385849,0 -0.612819,0.363152 -0.219405,0.355587 -0.219405,1.097023 0,0.786829 0.22697,1.142416 0.22697,0.355586 0.605254,0.355586 0.393415,0 0.612819,-0.363152 0.22697,-0.363152 0.22697,-1.13485 0,-0.73387 -0.219404,-1.097023 -0.219405,-0.363152 -0.620385,-0.363152 z"
           style="font-weight:800;font-family:'AR UDJingXiHeiE1C80B5HK EB';-inkscape-font-specification:'AR UDJingXiHeiE1C80B5HK EB Ultra-Bold'"
           id="path74792" />
        <path
           d="m 21.413294,21.503166 h -0.817093 v -4.07033 h 0.817093 v 0.605253 q 0.204273,-0.34802 0.45394,-0.5069 0.295061,-0.189141 0.620385,-0.189141 v 0.809526 q -0.340455,0 -0.658213,0.234536 -0.27993,0.204273 -0.416112,0.55986 z"
           style="font-weight:800;font-family:'AR UDJingXiHeiE1C80B5HK EB';-inkscape-font-specification:'AR UDJingXiHeiE1C80B5HK EB Ultra-Bold'"
           id="path74794" />
        <path
           d="m 22.744843,20.292659 h 0.809527 q 0.0076,0.310192 0.189142,0.484203 0.181576,0.166445 0.522031,0.166445 0.272364,0 0.446375,-0.136182 0.17401,-0.143748 0.17401,-0.38585 0,-0.219404 -0.189142,-0.363152 -0.189142,-0.143748 -0.62795,-0.310192 -0.741436,-0.27993 -1.006235,-0.567425 -0.257232,-0.287496 -0.257232,-0.688476 0,-0.476638 0.385849,-0.809527 0.385849,-0.340455 0.975971,-0.340455 0.650648,0 1.028931,0.363152 0.38585,0.355586 0.38585,0.892749 h -0.809527 q -0.03026,-0.302627 -0.189142,-0.446375 -0.151313,-0.151313 -0.408546,-0.151313 -0.242101,0 -0.393415,0.136182 -0.151313,0.128616 -0.151313,0.340455 0,0.234536 0.22697,0.385849 0.234536,0.143748 0.673344,0.310193 0.55986,0.211839 0.870053,0.491768 0.310192,0.27993 0.310192,0.741436 0,0.529597 -0.400981,0.862486 -0.393414,0.33289 -1.028931,0.33289 -0.688476,0 -1.112153,-0.363152 -0.423678,-0.363152 -0.423678,-0.945709 z"
           style="font-weight:800;font-family:'AR UDJingXiHeiE1C80B5HK EB';-inkscape-font-specification:'AR UDJingXiHeiE1C80B5HK EB Ultra-Bold'"
           id="path74796" />
        <path
           d="m 29.387491,17.342048 q 0.809526,0 1.233204,0.582556 0.431243,0.582557 0.431243,1.528266 0,1.028931 -0.431243,1.58879 -0.423678,0.55986 -1.233204,0.55986 -0.801961,0 -1.233204,-0.55986 -0.423678,-0.559859 -0.423678,-1.58879 0,-0.945709 0.423678,-1.528266 0.423677,-0.582556 1.233204,-0.582556 z m 0,0.650647 q -0.385849,0 -0.612819,0.363152 -0.219405,0.355587 -0.219405,1.097023 0,0.786829 0.22697,1.142416 0.22697,0.355586 0.605254,0.355586 0.393415,0 0.612819,-0.363152 0.22697,-0.363152 0.22697,-1.13485 0,-0.73387 -0.219404,-1.097023 -0.219405,-0.363152 -0.620385,-0.363152 z"
           style="font-weight:800;font-family:'AR UDJingXiHeiE1C80B5HK EB';-inkscape-font-specification:'AR UDJingXiHeiE1C80B5HK EB Ultra-Bold'"
           id="path74798" />
        <path
           d="m 31.657192,17.432836 h 0.817092 v 0.484203 q 0.17401,-0.257233 0.393415,-0.400981 0.272364,-0.17401 0.605253,-0.17401 0.696042,0 1.074325,0.590122 0.38585,0.582557 0.38585,1.535831 0,1.006234 -0.416112,1.573659 -0.408546,0.55986 -1.06676,0.55986 -0.302626,0 -0.582556,-0.166445 -0.234536,-0.136182 -0.393415,-0.40098 v 2.262135 h -0.817092 z m 0.817092,2.511802 q 0.03026,0.400981 0.264798,0.696042 0.242102,0.295061 0.55986,0.295061 0.378283,0 0.590122,-0.370718 0.219405,-0.370718 0.219405,-1.089456 0,-0.741436 -0.22697,-1.104588 -0.226971,-0.363152 -0.590123,-0.363152 -0.302627,0 -0.544728,0.287495 -0.234536,0.287496 -0.272364,0.68091 z"
           style="font-weight:800;font-family:'AR UDJingXiHeiE1C80B5HK EB';-inkscape-font-specification:'AR UDJingXiHeiE1C80B5HK EB Ultra-Bold'"
           id="path74800" />
        <path
           d="m 36.49921,20.617983 q 0.211838,0.325324 0.597687,0.325324 0.27993,0 0.469072,-0.136182 0.189142,-0.143748 0.242101,-0.38585 h 0.779264 q -0.09835,0.529597 -0.499334,0.854921 -0.40098,0.325324 -0.991103,0.325324 -0.771698,0 -1.202941,-0.567425 -0.423678,-0.574991 -0.423678,-1.550963 0,-0.975971 0.423678,-1.558528 0.423677,-0.582556 1.165113,-0.582556 0.764133,0 1.165113,0.590122 0.400981,0.582557 0.400981,1.762801 h -2.330227 q 0,0.620385 0.204274,0.923012 z m 1.104587,-2.292398 q -0.196707,-0.325324 -0.537162,-0.325324 -0.33289,0 -0.552294,0.302627 -0.204273,0.27993 -0.219405,0.832223 h 1.498003 q -0.0076,-0.529596 -0.189142,-0.809526 z"
           style="font-weight:800;font-family:'AR UDJingXiHeiE1C80B5HK EB';-inkscape-font-specification:'AR UDJingXiHeiE1C80B5HK EB Ultra-Bold'"
           id="path74802" />
        <path
           d="m 40.002111,21.503166 h -0.817093 v -4.07033 h 0.817093 v 0.416112 q 0.143747,-0.189142 0.378283,-0.33289 0.287496,-0.17401 0.620385,-0.17401 0.522031,0 0.817092,0.340455 0.302627,0.332889 0.302627,0.975971 v 2.844692 h -0.817092 v -2.753904 q 0,-0.363152 -0.128617,-0.544728 -0.12105,-0.189142 -0.370717,-0.189142 -0.226971,0 -0.484203,0.234536 -0.211839,0.196708 -0.317758,0.446375 z"
           style="font-weight:800;font-family:'AR UDJingXiHeiE1C80B5HK EB';-inkscape-font-specification:'AR UDJingXiHeiE1C80B5HK EB Ultra-Bold'"
           id="path74804" />
        <path
           d="m 45.956283,17.342048 q 0.809527,0 1.233204,0.582556 0.431244,0.582557 0.431244,1.528266 0,1.028931 -0.431244,1.58879 -0.423677,0.55986 -1.233204,0.55986 -0.801961,0 -1.233204,-0.55986 -0.423678,-0.559859 -0.423678,-1.58879 0,-0.945709 0.423678,-1.528266 0.423677,-0.582556 1.233204,-0.582556 z m 0,0.650647 q -0.385849,0 -0.612819,0.363152 -0.219405,0.355587 -0.219405,1.097023 0,0.786829 0.226971,1.142416 0.22697,0.355586 0.605253,0.355586 0.393415,0 0.612819,-0.363152 0.226971,-0.363152 0.226971,-1.13485 0,-0.73387 -0.219405,-1.097023 -0.219404,-0.363152 -0.620385,-0.363152 z"
           style="font-weight:800;font-family:'AR UDJingXiHeiE1C80B5HK EB';-inkscape-font-specification:'AR UDJingXiHeiE1C80B5HK EB Ultra-Bold'"
           id="path74806" />
        <path
           d="m 49.058206,21.503166 h -0.817093 v -4.07033 h 0.817093 v 0.416112 q 0.143747,-0.189142 0.378283,-0.33289 0.287496,-0.17401 0.620385,-0.17401 0.522031,0 0.817092,0.340455 0.302627,0.332889 0.302627,0.975971 v 2.844692 h -0.817092 v -2.753904 q 0,-0.363152 -0.128616,-0.544728 -0.121051,-0.189142 -0.370718,-0.189142 -0.22697,0 -0.484203,0.234536 -0.211839,0.196708 -0.317758,0.446375 z"
           style="font-weight:800;font-family:'AR UDJingXiHeiE1C80B5HK EB';-inkscape-font-specification:'AR UDJingXiHeiE1C80B5HK EB Ultra-Bold'"
           id="path74808" />
        <path
           d="m 53.151223,18.083483 v -0.650647 h 0.552294 v -1.006234 h 0.817093 v 1.006234 h 0.62795 v 0.650647 h -0.62795 v 2.42858 q 0,0.181577 0.07566,0.264799 0.07566,0.07566 0.226971,0.07566 h 0.325323 v 0.650647 h -0.62795 q -0.416112,0 -0.620385,-0.234536 -0.196708,-0.234535 -0.196708,-0.658213 v -2.526934 z"
           style="font-weight:800;font-family:'AR UDJingXiHeiE1C80B5HK EB';-inkscape-font-specification:'AR UDJingXiHeiE1C80B5HK EB Ultra-Bold'"
           id="path74810" />
        <path
           d="m 57.425817,17.342048 q 0.537162,0 0.832224,0.355586 0.302626,0.355587 0.302626,0.998669 v 2.806863 h -0.817092 v -2.716075 q 0,-0.393415 -0.128616,-0.582557 -0.121051,-0.189142 -0.370718,-0.189142 -0.249667,0 -0.491769,0.234536 -0.189142,0.181576 -0.302627,0.499334 v 2.753904 h -0.817092 v -5.742343 h 0.817092 v 2.118387 q 0.158879,-0.22697 0.38585,-0.363152 0.279929,-0.17401 0.590122,-0.17401 z"
           style="font-weight:800;font-family:'AR UDJingXiHeiE1C80B5HK EB';-inkscape-font-specification:'AR UDJingXiHeiE1C80B5HK EB Ultra-Bold'"
           id="path74812" />
        <path
           d="m 60.202405,20.617983 q 0.211839,0.325324 0.597688,0.325324 0.27993,0 0.469072,-0.136182 0.189141,-0.143748 0.242101,-0.38585 h 0.779264 q -0.09835,0.529597 -0.499334,0.854921 -0.400981,0.325324 -0.991103,0.325324 -0.771698,0 -1.202941,-0.567425 -0.423678,-0.574991 -0.423678,-1.550963 0,-0.975971 0.423678,-1.558528 0.423677,-0.582556 1.165113,-0.582556 0.764132,0 1.165113,0.590122 0.40098,0.582557 0.40098,1.762801 h -2.330226 q 0,0.620385 0.204273,0.923012 z m 1.104588,-2.292398 q -0.196707,-0.325324 -0.537163,-0.325324 -0.332889,0 -0.552294,0.302627 -0.204273,0.27993 -0.219404,0.832223 h 1.498003 q -0.0076,-0.529596 -0.189142,-0.809526 z"
           style="font-weight:800;font-family:'AR UDJingXiHeiE1C80B5HK EB';-inkscape-font-specification:'AR UDJingXiHeiE1C80B5HK EB Ultra-Bold'"
           id="path74814" />
        <path
           d="m 64.59805,16.033187 h 2.027599 q 0.696042,0 1.127285,0.408546 0.438809,0.40098 0.438809,1.089456 0,0.453941 -0.219405,0.824658 -0.196707,0.33289 -0.544728,0.491769 0.408546,0.219404 0.627951,0.847355 0.242101,0.696042 0.264798,1.808195 H 67.48057 q -0.01513,-1.157547 -0.242102,-1.724973 -0.219404,-0.57499 -0.718738,-0.57499 h -1.104588 v 2.299963 H 64.59805 Z m 1.906549,2.473974 q 0.34802,0 0.590122,-0.249667 0.249667,-0.257233 0.249667,-0.665779 0,-0.416112 -0.22697,-0.643082 -0.22697,-0.22697 -0.574991,-0.22697 h -1.127285 v 1.785498 z"
           style="font-weight:800;font-family:'AR UDJingXiHeiE1C80B5HK EB';-inkscape-font-specification:'AR UDJingXiHeiE1C80B5HK EB Ultra-Bold'"
           id="path74816" />
        <path
           d="m 69.841053,16.033187 v 5.469979 h -0.817092 v -5.469979 z"
           style="font-weight:800;font-family:'AR UDJingXiHeiE1C80B5HK EB';-inkscape-font-specification:'AR UDJingXiHeiE1C80B5HK EB Ultra-Bold'"
           id="path74818" />
        <path
           d="m 72.79165,18.673606 h 2.035166 v 2.82956 H 74.03242 v -0.597688 q -0.181576,0.295061 -0.469071,0.476637 -0.355587,0.219405 -0.809527,0.219405 -0.998668,0 -1.558528,-0.764133 Q 70.643,20.073255 70.643,18.771959 q 0,-1.308861 0.590122,-2.065428 0.597688,-0.764132 1.611488,-0.764132 0.832224,0 1.354255,0.461506 0.522031,0.45394 0.597688,1.240769 h -0.832224 q -0.05296,-0.45394 -0.348021,-0.733869 -0.295061,-0.27993 -0.764132,-0.27993 -0.635516,0 -0.998669,0.567425 -0.363152,0.567425 -0.363152,1.573659 0,1.028931 0.348021,1.581225 0.355587,0.552294 1.021365,0.552294 0.5069,0 0.832224,-0.40098 0.33289,-0.400981 0.340455,-0.991103 v -0.151313 h -1.24077 z"
           style="font-weight:800;font-family:'AR UDJingXiHeiE1C80B5HK EB';-inkscape-font-specification:'AR UDJingXiHeiE1C80B5HK EB Ultra-Bold'"
           id="path74820" />
        <path
           d="m 76.49125,21.503166 h -0.824658 v -5.469979 h 0.824658 v 2.315095 h 2.057862 v -2.315095 h 0.817093 v 5.469979 H 78.549112 V 19.044323 H 76.49125 Z"
           style="font-weight:800;font-family:'AR UDJingXiHeiE1C80B5HK EB';-inkscape-font-specification:'AR UDJingXiHeiE1C80B5HK EB Ultra-Bold'"
           id="path74822" />
        <path
           d="m 79.910922,16.729228 v -0.696041 h 3.548299 v 0.696041 H 82.0974 v 4.773938 h -0.824658 v -4.773938 z"
           style="font-weight:800;font-family:'AR UDJingXiHeiE1C80B5HK EB';-inkscape-font-specification:'AR UDJingXiHeiE1C80B5HK EB Ultra-Bold'"
           id="path74824" />
        <path
           d="m 85.312795,20.292659 h 0.809526 q 0.0076,0.310192 0.189142,0.484203 0.181576,0.166445 0.522031,0.166445 0.272364,0 0.446375,-0.136182 0.17401,-0.143748 0.17401,-0.38585 0,-0.219404 -0.189142,-0.363152 -0.189141,-0.143748 -0.62795,-0.310192 -0.741436,-0.27993 -1.006234,-0.567425 -0.257233,-0.287496 -0.257233,-0.688476 0,-0.476638 0.385849,-0.809527 0.385849,-0.340455 0.975972,-0.340455 0.650647,0 1.028931,0.363152 0.385849,0.355586 0.385849,0.892749 h -0.809527 q -0.03026,-0.302627 -0.189142,-0.446375 -0.151313,-0.151313 -0.408546,-0.151313 -0.242101,0 -0.393415,0.136182 -0.151313,0.128616 -0.151313,0.340455 0,0.234536 0.22697,0.385849 0.234536,0.143748 0.673345,0.310193 0.559859,0.211839 0.870052,0.491768 0.310192,0.27993 0.310192,0.741436 0,0.529597 -0.40098,0.862486 -0.393415,0.33289 -1.028931,0.33289 -0.688476,0 -1.112154,-0.363152 -0.423677,-0.363152 -0.423677,-0.945709 z"
           style="font-weight:800;font-family:'AR UDJingXiHeiE1C80B5HK EB';-inkscape-font-specification:'AR UDJingXiHeiE1C80B5HK EB Ultra-Bold'"
           id="path74826" />
        <path
           d="m 89.700874,15.897005 v 0.85492 h -0.877618 v -0.85492 z m -0.03026,1.535831 v 4.07033 h -0.817092 v -4.07033 z"
           style="font-weight:800;font-family:'AR UDJingXiHeiE1C80B5HK EB';-inkscape-font-specification:'AR UDJingXiHeiE1C80B5HK EB Ultra-Bold'"
           id="path74828" />
        <path
           d="m 92.74984,15.760823 h 0.817092 v 5.742343 H 92.74984 v -0.499334 q -0.158879,0.27993 -0.393415,0.423677 -0.27993,0.174011 -0.567425,0.174011 -0.665779,0 -1.06676,-0.55986 -0.40098,-0.559859 -0.408546,-1.573659 0,-0.945709 0.378283,-1.535831 0.378284,-0.590122 1.06676,-0.590122 0.317758,0 0.597688,0.17401 0.234536,0.143748 0.393415,0.393415 z m -1.603922,3.722309 q 0,0.696042 0.204273,1.074325 0.204273,0.378284 0.582556,0.378284 0.325324,0 0.567426,-0.317758 0.242101,-0.325324 0.249667,-0.801961 v -0.779264 q -0.0076,-0.400981 -0.249667,-0.711173 -0.234536,-0.317758 -0.552294,-0.317758 -0.370718,0 -0.590123,0.370717 -0.211838,0.370718 -0.211838,1.104588 z"
           style="font-weight:800;font-family:'AR UDJingXiHeiE1C80B5HK EB';-inkscape-font-specification:'AR UDJingXiHeiE1C80B5HK EB Ultra-Bold'"
           id="path74830" />
        <path
           d="m 95.216241,20.617983 q 0.211839,0.325324 0.597688,0.325324 0.27993,0 0.469071,-0.136182 0.189142,-0.143748 0.242102,-0.38585 h 0.779264 q -0.09835,0.529597 -0.499334,0.854921 -0.400981,0.325324 -0.991103,0.325324 -0.771698,0 -1.202942,-0.567425 -0.423677,-0.574991 -0.423677,-1.550963 0,-0.975971 0.423677,-1.558528 0.423678,-0.582556 1.165114,-0.582556 0.764132,0 1.165113,0.590122 0.40098,0.582557 0.40098,1.762801 h -2.330226 q 0,0.620385 0.204273,0.923012 z m 1.104588,-2.292398 q -0.196708,-0.325324 -0.537163,-0.325324 -0.332889,0 -0.552294,0.302627 -0.204273,0.27993 -0.219404,0.832223 h 1.498003 q -0.0076,-0.529596 -0.189142,-0.809526 z"
           style="font-weight:800;font-family:'AR UDJingXiHeiE1C80B5HK EB';-inkscape-font-specification:'AR UDJingXiHeiE1C80B5HK EB Ultra-Bold'"
           id="path74832" />
      </g>
    </g>
  </g>
  <style
     type="text/css"
     id="style824">
	.st0{fill:#38B035;}
	.st1{fill:#007AB0;}
</style>
</svg>
