<?xml version="1.0" encoding="UTF-8" standalone="no"?>
<!-- Created with Inkscape (http://www.inkscape.org/) -->

<svg
   width="230mm"
   height="40mm"
   viewBox="0 0 230 40"
   version="1.1"
   id="svg5"
   inkscape:version="1.1 (c68e22c387, 2021-05-23)"
   sodipodi:docname="title.svg"
   xmlns:inkscape="http://www.inkscape.org/namespaces/inkscape"
   xmlns:sodipodi="http://sodipodi.sourceforge.net/DTD/sodipodi-0.dtd"
   xmlns="http://www.w3.org/2000/svg"
   xmlns:svg="http://www.w3.org/2000/svg">
  <sodipodi:namedview
     id="namedview7"
     pagecolor="#333333"
     bordercolor="#999999"
     borderopacity="1"
     inkscape:pageshadow="0"
     inkscape:pageopacity="1"
     inkscape:pagecheckerboard="true"
     inkscape:document-units="mm"
     showgrid="false"
     inkscape:zoom="0.94867184"
     inkscape:cx="458.5358"
     inkscape:cy="98.031792"
     inkscape:window-width="1920"
     inkscape:window-height="1094"
     inkscape:window-x="-11"
     inkscape:window-y="-11"
     inkscape:window-maximized="1"
     inkscape:current-layer="layer1" />
  <defs
     id="defs2">
    <rect
       x="202.91527"
       y="13.176316"
       width="329.4079"
       height="59.029896"
       id="rect5816" />
  </defs>
  <g
     inkscape:label="Layer 1"
     inkscape:groupmode="layer"
     id="layer1">
    <g
       id="g840"
       transform="matrix(0.24546331,0,0,0.24546331,4.8510912,9.1320004)">
      <g
         id="g6382"
         transform="matrix(0.35277777,0,0,-0.35277777,65.170734,166.67719)">
	<path
   id="path6384"
   class="st0"
   d="m -184.7,321.8 26.1,31.2 c 10.2,12.1 25.2,19.1 40.9,19.1 h 17.1 c 15.8,0 30.8,7 40.9,19.1 l 52.2,62.3 c 10.2,12.1 25.2,19.1 41,19.1 H 209.2 L 183,441.3 c -10.1,-12.1 -25.1,-19.1 -41,-19.1 h -17 c -15.8,0 -30.7,-7 -40.9,-19.1 L 31.8,340.8 c -10,-12 -25.1,-19 -40.8,-19 z" />

</g>
      <g
         id="g6386"
         transform="matrix(0.35277777,0,0,-0.35277777,66.874015,168.14788)">
	<path
   id="path6388"
   class="st1"
   d="m -73.2,225.5 26.1,31.2 c 10.2,12.1 25.1,19.1 40.9,19.1 h 17.1 c 15.8,0 30.8,7 40.9,19.1 l 52.3,62.3 c 10.2,12.1 25.1,19.1 40.9,19.1 H 320.7 L 294.6,345.1 C 284.4,333 269.4,326 253.6,326 h -17.1 c -15.8,0 -30.7,-7 -40.9,-19.1 l -52.3,-62.3 c -10.1,-12.1 -25.1,-19.1 -40.9,-19.1 z" />

</g>
    </g>
    <text
       xml:space="preserve"
       transform="scale(0.26458333)"
       id="text5814"
       style="font-style:normal;font-weight:normal;font-size:40px;line-height:1.25;font-family:sans-serif;white-space:pre;shape-inside:url(#rect5816);fill:#000000;fill-opacity:1;stroke:none" />
    <g
       id="g38620"
       transform="translate(0,5.0000204)">
      <g
         aria-label="台北捷運廣播選播"
         id="text15484"
         style="font-size:15.7331px;line-height:1.25;stroke-width:0.231261">
        <path
           d="m 58.010343,13.710795 h 8.684671 v 1.82504 H 58.010343 Z M 57.08209,9.3841926 H 67.749132 V 16.32249 h -2.02957 v -5.128991 h -6.702301 v 5.144724 H 57.08209 Z m 6.623635,-5.3807202 1.478911,-0.9911853 q 0.723723,0.6765233 1.526111,1.5103776 0.802388,0.8338543 1.510378,1.6519755 0.707989,0.8023881 1.11705,1.4789114 L 67.749132,8.817801 Q 67.355804,8.1570108 66.679281,7.3231565 66.018491,6.4735691 65.231836,5.6082486 64.445181,4.727195 63.705725,4.0034724 Z M 56.562898,8.3300749 Q 56.531431,8.1412777 56.4213,7.8108826 56.311168,7.4804875 56.185303,7.1186262 56.059438,6.7567649 55.949307,6.5207684 56.279702,6.4421029 56.578631,6.2218395 56.87756,5.985843 57.270887,5.6239817 q 0.20453,-0.2045303 0.597858,-0.629324 0.393327,-0.4247937 0.86532,-1.0069184 0.487727,-0.5978578 0.975453,-1.2743811 0.503459,-0.6922564 0.896786,-1.4002459 l 1.919438,0.8181212 q -0.707989,0.9911853 -1.52611,1.9509044 -0.802388,0.9597191 -1.651976,1.8093065 -0.833854,0.8338543 -1.667708,1.4946445 v 0.047199 q 0,0 -0.173064,0.094399 -0.157331,0.094399 -0.377595,0.2359965 -0.220263,0.1258648 -0.393327,0.2989289 -0.173064,0.157331 -0.173064,0.2674626 z m 0,0 -0.01573,-1.4631783 1.274381,-0.6607902 9.675856,-0.3303951 q 0.01573,0.3933275 0.06293,0.8967867 0.0472,0.5034592 0.110132,0.8023881 -2.265566,0.1101317 -3.933275,0.1887972 -1.651975,0.078665 -2.800492,0.1415979 -1.132783,0.062932 -1.903705,0.1101317 -0.755188,0.047199 -1.227181,0.094399 -0.45626,0.047199 -0.739456,0.1101317 -0.283196,0.047199 -0.503459,0.1101317 z"
           style="font-weight:bold;font-family:'Noto Sans TC';-inkscape-font-specification:'Noto Sans TC Bold';fill:#ffffff"
           id="path38274" />
        <path
           d="m 71.163185,5.3093197 h 4.67273 v 1.8722389 h -4.67273 z m 7.693486,-3.4770151 h 1.966637 V 13.034272 q 0,0.645057 0.0944,0.818121 0.110131,0.173064 0.487726,0.173064 0.0944,0 0.283196,0 0.188797,0 0.40906,0 0.235997,0 0.424794,0 0.20453,0 0.283196,0 0.314662,0 0.45626,-0.298929 0.141598,-0.298929 0.20453,-1.069851 0.07867,-0.786655 0.125865,-2.202634 0.235996,0.188798 0.550658,0.361862 0.330395,0.173064 0.66079,0.314662 0.346129,0.141598 0.597858,0.20453 -0.0944,1.636242 -0.314662,2.643161 -0.20453,0.991185 -0.707989,1.431712 -0.487726,0.45626 -1.36878,0.45626 -0.125865,0 -0.393327,0 -0.25173,0 -0.566392,0 -0.298929,0 -0.566392,0 -0.251729,0 -0.361861,0 -0.881054,0 -1.36878,-0.25173 -0.487726,-0.251729 -0.692256,-0.881053 -0.20453,-0.629324 -0.20453,-1.714908 z m -4.043407,0 h 1.966637 V 13.58493 H 74.813264 Z M 70.596793,14.198521 q 0.865321,-0.267463 2.02957,-0.66079 1.164249,-0.393328 2.454364,-0.849587 1.305847,-0.45626 2.580228,-0.896787 l 0.330395,1.683442 q -1.11705,0.487726 -2.265566,0.959719 -1.148517,0.45626 -2.2341,0.881053 -1.085584,0.440527 -2.02957,0.818121 z m 9.282529,-8.9206675 h 5.066058 v 1.887972 h -5.066058 z"
           style="font-weight:bold;font-family:'Noto Sans TC';-inkscape-font-specification:'Noto Sans TC Bold';fill:#ffffff"
           id="path38276" />
        <path
           d="m 91.663384,2.7448244 h 9.329726 v 1.4789114 h -9.329726 z m 4.609799,8.8577356 h 4.200737 v 1.463178 H 96.273183 Z M 91.395922,7.0242276 h 9.959048 V 8.4874059 H 91.395922 Z M 92.324175,4.884526 h 8.039615 V 10.69004 H 92.324175 V 9.289794 h 6.29324 V 6.3162381 h -6.29324 z m 2.942089,-3.3196841 h 1.746374 V 15.40997 l -1.746374,-1.006919 z m -3.020755,9.3454611 1.714908,0.220264 q -0.235996,1.667708 -0.786655,3.036488 -0.534925,1.353047 -1.431712,2.249833 -0.157331,-0.141598 -0.424794,-0.346128 -0.251729,-0.20453 -0.534925,-0.393327 -0.267463,-0.188798 -0.471993,-0.298929 0.849587,-0.739456 1.305847,-1.903705 0.45626,-1.16425 0.629324,-2.564496 z m 1.258648,1.337314 q 0.440527,0.975452 1.16425,1.478911 0.723722,0.503459 1.651975,0.676523 0.943986,0.173065 2.02957,0.188798 0.173064,0 0.566392,0 0.393327,0 0.86532,0 0.487726,0 0.912516,0 0.4248,-0.01573 0.67653,-0.03147 -0.11013,0.188798 -0.22027,0.487727 -0.11013,0.298928 -0.18879,0.597857 -0.0787,0.298929 -0.12587,0.534926 h -0.62932 -1.982373 q -1.400246,0 -2.548762,-0.283196 -1.132783,-0.267463 -1.998104,-1.006918 -0.86532,-0.755189 -1.478911,-2.139702 z M 86.345597,9.4785912 Q 87.289583,9.2740609 88.59543,8.9279327 89.91701,8.5818045 91.254324,8.2042101 l 0.235996,1.6991748 q -1.211448,0.3618611 -2.454363,0.7237221 -1.227182,0.361862 -2.2813,0.660791 z m 0.251729,-4.9244603 h 4.814329 v 1.730641 H 86.597326 Z M 88.249302,1.580575 h 1.730641 v 12.775277 q 0,0.645057 -0.141598,1.022652 -0.125865,0.393327 -0.487726,0.613591 -0.346128,0.220263 -0.881054,0.298928 -0.519192,0.07867 -1.305847,0.06293 -0.03147,-0.346128 -0.173064,-0.865321 -0.141598,-0.503459 -0.314662,-0.881053 0.440527,0.01573 0.802388,0.03147 0.377594,0 0.519192,-0.01573 0.141598,0 0.188797,-0.0472 0.06293,-0.06293 0.06293,-0.220264 z"
           style="font-weight:bold;font-family:'Noto Sans TC';-inkscape-font-specification:'Noto Sans TC Bold';fill:#ffffff"
           id="path38278" />
        <path
           d="m 110.70041,3.8776076 h 1.82504 V 14.04119 h -1.82504 z m -1.54185,5.2863216 v 0.629324 h 4.98739 v -0.629324 z m 0,-1.6991748 v 0.629324 h 4.98739 v -0.629324 z m -1.54184,-1.1485163 h 8.13401 v 4.6412649 h -8.13401 z m -0.83386,-4.247937 h 9.56573 v 3.0522214 h -1.80931 V 3.4370808 h -6.04151 v 1.6834417 h -1.71491 z m 1.29012,2.359965 h 7.09563 v 1.3058473 h -7.09563 z m -1.11705,7.1900269 h 9.56572 v 1.384513 h -9.56572 z m -4.16927,-9.2038637 1.43171,-0.8495874 q 0.53492,0.5663916 1.08558,1.2429149 0.55066,0.6607902 0.86532,1.1485163 l -1.47891,1.0069184 q -0.1888,-0.3303951 -0.51919,-0.7709219 -0.31466,-0.4562599 -0.67652,-0.9125198 -0.36187,-0.471993 -0.70799,-0.8653205 z m -0.3776,2.8634242 h 3.28822 V 6.772498 h -3.28822 z m 3.19382,6.7966995 q 0.44053,1.054117 1.17998,1.57331 0.75519,0.503459 1.84078,0.66079 1.10131,0.141598 2.53303,0.157331 0.83385,0 1.9037,-0.03147 1.06985,-0.03147 2.15544,-0.07867 1.10131,-0.06293 1.9981,-0.157331 -0.12587,0.188797 -0.25173,0.503459 -0.11013,0.314662 -0.20453,0.645057 -0.0944,0.330396 -0.1416,0.597858 -0.81812,0.03147 -1.74637,0.06293 -0.91252,0.0472 -1.87224,0.06293 -0.94399,0.01573 -1.87224,0.01573 -1.38451,0 -2.45436,-0.141598 -1.06985,-0.125865 -1.88798,-0.487726 -0.80238,-0.346128 -1.40024,-1.038384 -0.59786,-0.692257 -1.03839,-1.840773 z m -0.61359,-3.0050224 h 0.56639 l 0.2832,-0.047199 0.78665,0.314662 q -0.34613,2.5959614 -1.21145,4.3738014 -0.84958,1.762107 -2.10823,2.69036 -0.11013,-0.188797 -0.34613,-0.440527 -0.22026,-0.251729 -0.45626,-0.487726 -0.236,-0.220263 -0.42479,-0.330395 1.16425,-0.802388 1.9037,-2.265566 0.73946,-1.478912 1.00692,-3.5242143 z m -2.2813,1.6991744 V 9.4156588 l 0.67652,-0.3461282 h 2.3285 l -0.0157,1.4631784 h -2.01384 q -0.28319,0 -0.58212,0.06293 -0.2832,0.06293 -0.39333,0.173064 z m 0,0 q -0.0472,-0.20453 -0.15733,-0.487726 -0.11013,-0.2989286 -0.236,-0.5821244 -0.12586,-0.2989289 -0.20453,-0.4562599 0.1888,-0.047199 0.39333,-0.157331 0.20453,-0.1101317 0.42479,-0.3461282 0.17307,-0.1730641 0.472,-0.5821247 0.31466,-0.4090606 0.67652,-0.9125198 0.36186,-0.5191923 0.67652,-1.0069184 0.3304,-0.4877261 0.53493,-0.8181212 V 5.356519 l 0.48773,-0.1887972 1.13278,0.5034592 q -0.26746,0.4090606 -0.62933,0.9597191 -0.36186,0.5349254 -0.77092,1.101317 -0.40906,0.5663916 -0.80239,1.101317 -0.39332,0.5349254 -0.72372,0.9125198 0,0 -0.1888,0.094399 -0.18879,0.094399 -0.45625,0.2674621 -0.25173,0.157331 -0.44053,0.330395 -0.1888,0.173064 -0.1888,0.330395 z"
           style="font-weight:bold;font-family:'Noto Sans TC';-inkscape-font-specification:'Noto Sans TC Bold';fill:#ffffff"
           id="path38280" />
        <path
           d="m 120.37623,2.7133582 h 12.17742 v 1.5890431 h -12.17742 z m 1.17999,2.3284988 h 10.46251 v 1.0541177 h -10.46251 z m -2.2813,-2.3284988 h 1.79357 v 4.7828624 q 0,0.9754522 -0.0629,2.1239685 -0.0629,1.1327829 -0.236,2.3284989 -0.15733,1.179982 -0.48773,2.297032 -0.31466,1.117051 -0.84958,2.013837 -0.17307,-0.141598 -0.472,-0.330395 -0.28319,-0.188797 -0.59785,-0.361861 -0.29893,-0.157331 -0.5192,-0.235997 0.50346,-0.849587 0.78666,-1.840772 0.28319,-0.991186 0.42479,-2.02957 0.1416,-1.054118 0.17307,-2.0610363 0.0472,-1.0226515 0.0472,-1.9037051 z m 6.6079,6.7494999 h 1.7621 v 3.9018089 h -1.7621 z m -2.29703,2.5172959 v 0.676523 h 6.26177 v -0.676523 z m 0,-1.699175 v 0.676524 h 6.26177 v -0.676524 z m -1.68345,-1.0855836 h 9.72306 v 4.5468656 h -9.72306 z m 5.60099,5.5223176 0.73945,-1.211448 q 0.75519,0.251729 1.54185,0.550658 0.78665,0.283196 1.49464,0.566392 0.70799,0.267463 1.22718,0.487726 l -0.86532,1.305847 q -0.48772,-0.235996 -1.17998,-0.534925 -0.67652,-0.283196 -1.44745,-0.597858 -0.75518,-0.298929 -1.51037,-0.566392 z m -2.67463,-1.227181 1.35305,1.211448 q -0.67653,0.298929 -1.47891,0.613591 -0.78666,0.314662 -1.57331,0.597858 -0.78666,0.298929 -1.41598,0.519192 -0.17307,-0.283195 -0.45626,-0.66079 -0.2832,-0.361861 -0.55066,-0.629324 0.64505,-0.188797 1.40024,-0.471993 0.75519,-0.298929 1.47892,-0.597858 0.72372,-0.314662 1.24291,-0.582124 z m 0.0157,-11.6424943 1.96664,-0.3933275 q 0.17306,0.4405268 0.34613,0.9597191 0.17306,0.5034592 0.25173,0.8810536 l -2.02957,0.471993 Q 125.31643,3.3741484 125.1591,2.839223 125.00176,2.3042976 124.84443,1.8480377 Z m -1.46318,2.6116946 h 1.79358 v 2.1711678 h 3.00502 V 4.4597323 h 1.88797 v 2.9578228 h -6.68657 z m -2.01383,3.303951 h 11.15477 v 1.0698508 h -11.15477 z"
           style="font-weight:bold;font-family:'Noto Sans TC';-inkscape-font-specification:'Noto Sans TC Bold';fill:#ffffff"
           id="path38282" />
        <path
           d="m 146.99661,1.6435074 0.97545,1.3687797 q -0.92825,0.157331 -2.01384,0.2989289 -1.06985,0.1258648 -2.2341,0.2202634 -1.14851,0.078666 -2.31276,0.1415979 -1.14852,0.062932 -2.2341,0.078666 -0.0315,-0.314662 -0.15733,-0.7079895 -0.12587,-0.3933275 -0.25173,-0.6607902 1.06985,-0.047199 2.1869,-0.1101317 1.13278,-0.062932 2.2341,-0.157331 1.10132,-0.094399 2.07677,-0.2045303 0.97545,-0.1258648 1.73064,-0.2674632 z m -8.33854,4.0591398 h 9.56572 v 1.4474452 h -9.56572 z m 3.82314,-3.0050221 h 1.69917 v 6.922564 h -1.69917 z m 0.0629,7.7564179 h 1.51038 v 4.578332 h -1.51038 z m -2.92636,-6.4033713 1.47892,-0.4405268 q 0.20453,0.4090606 0.40906,0.8967867 0.22026,0.471993 0.33039,0.8023881 l -1.54184,0.5191923 q -0.11013,-0.3461282 -0.29893,-0.8495874 -0.1888,-0.5191923 -0.3776,-0.9282529 z m 5.97858,-0.6607902 1.62051,0.4090606 q -0.31466,0.7079895 -0.62932,1.4002459 -0.29893,0.6922564 -0.58213,1.1799825 L 144.60518,5.985843 q 0.18879,-0.3618613 0.36186,-0.8023881 0.1888,-0.4562599 0.36186,-0.9282529 0.17306,-0.471993 0.26746,-0.8653205 z m -3.96474,3.2095524 1.46318,0.4877261 q -0.44053,0.7709219 -1.08558,1.4789114 -0.62933,0.6922564 -1.38452,1.2429149 -0.73945,0.5506587 -1.55757,0.9125197 -0.1888,-0.298929 -0.53493,-0.692256 -0.33039,-0.4090609 -0.61359,-0.6607905 0.75519,-0.2674627 1.46318,-0.6922564 0.70799,-0.4247937 1.29011,-0.9597191 0.59786,-0.5506585 0.95972,-1.1170501 z m -2.4701,3.3196841 h 8.43295 v 6.371905 H 145.8638 V 11.35083 h -5.05033 v 5.003126 h -1.65198 z m 1.27439,2.281299 h 5.83698 v 1.305848 h -5.83698 z m 0,2.218368 h 5.82124 v 1.32158 h -5.82124 z m -6.90684,-4.7041973 q 0.92826,-0.2517296 2.21837,-0.6607902 1.29012,-0.4247937 2.59596,-0.8495874 l 0.29893,1.6677086 q -1.21145,0.4405263 -2.47009,0.8810533 -1.24292,0.424794 -2.31277,0.786655 z m 0.26747,-5.1604568 h 4.81433 v 1.730641 h -4.81433 z m 1.65197,-2.9735559 h 1.73064 v 12.775277 q 0,0.645057 -0.14159,1.022652 -0.12587,0.393327 -0.48773,0.613591 -0.34613,0.220263 -0.88105,0.298928 -0.5192,0.07867 -1.30585,0.06293 -0.0315,-0.346128 -0.17307,-0.865321 -0.14159,-0.503459 -0.31466,-0.881053 0.44053,0.01573 0.80239,0.03147 0.3776,0 0.51919,-0.01573 0.1416,0 0.1888,-0.0472 0.0629,-0.06293 0.0629,-0.220264 z m 7.96095,5.8527132 0.97545,-1.0383846 q 0.69226,0.3933275 1.47892,0.9125198 0.80238,0.5034592 1.52611,1.0226515 0.72372,0.5034592 1.17998,0.9282529 l -1.06985,1.1957152 q -0.40906,-0.424793 -1.11705,-0.9597187 -0.69226,-0.5506585 -1.49465,-1.0855839 -0.78665,-0.5506585 -1.47891,-0.9754522 z"
           style="font-weight:bold;font-family:'Noto Sans TC';-inkscape-font-specification:'Noto Sans TC Bold';fill:#ffffff"
           id="path38284" />
        <path
           d="m 154.3282,8.1255446 h 9.04654 v 1.3687797 h -9.04654 z m -0.58212,2.3442314 h 10.19505 v 1.384513 h -10.19505 z m 2.50156,-3.1623526 h 1.73064 v 3.9332746 h -1.73064 z m 3.44555,0 h 1.74637 v 3.9332746 h -1.74637 z m -0.25173,5.1761896 1.22718,-0.818121 q 0.78666,0.377594 1.62051,0.849587 0.83386,0.471993 1.35305,0.833855 l -1.68344,0.770922 q -0.40906,-0.361862 -1.11705,-0.818122 -0.69226,-0.456259 -1.40025,-0.818121 z m -2.65889,-0.755189 1.66771,0.566392 q -0.59786,0.566392 -1.46318,1.069851 -0.84959,0.503459 -1.65198,0.833854 -0.15733,-0.173064 -0.40906,-0.377594 -0.236,-0.220264 -0.50346,-0.424794 -0.26746,-0.20453 -0.47199,-0.330395 0.80239,-0.25173 1.57331,-0.597858 0.78665,-0.361861 1.25865,-0.739456 z m -1.91944,-9.6286567 h 3.68154 v 3.0050221 h -3.68154 V 3.9562731 h 2.10823 V 3.2482836 h -2.10823 z m 4.97166,0.015733 h 3.79168 v 3.0050221 h -3.79168 V 3.9720062 h 2.20263 V 3.2640167 h -2.20263 z m -0.69226,0 h 1.47891 V 5.199188 q 0,0.3303951 0.0629,0.471993 0.0787,0.1258648 0.33039,0.1258648 0.11013,0 0.3304,0 0.22026,0 0.47199,0 0.26746,0 0.48772,0 0.236,0 0.34613,0 0.236,0 0.56639,-0.015733 0.3304,-0.031466 0.5192,-0.078665 0.0315,0.2831958 0.0629,0.6450571 0.0315,0.3618613 0.0629,0.629324 -0.1888,0.047199 -0.51919,0.078666 -0.3304,0.031466 -0.66079,0.031466 -0.11013,0 -0.36186,0 -0.236,0 -0.53493,0 -0.28319,0 -0.53492,0 -0.236,0 -0.3304,0 -0.72372,0 -1.11705,-0.1887972 -0.37759,-0.2045303 -0.51919,-0.6135909 -0.1416,-0.4247937 -0.1416,-1.1170501 z m -4.89299,5.4279195 -0.0629,-1.1170501 0.66079,-0.4405268 3.71301,-0.5191923 q -0.0787,0.2831958 -0.15733,0.6765233 -0.0787,0.3775944 -0.11014,0.6135909 -1.19571,0.2045303 -1.9509,0.3303951 -0.73946,0.1101317 -1.16425,0.2045303 -0.40906,0.078665 -0.61359,0.1415979 -0.20453,0.047199 -0.31466,0.1101317 z m 0,0 q -0.0472,-0.1887972 -0.15733,-0.4562599 -0.0944,-0.2674627 -0.22027,-0.5191923 -0.11013,-0.2517296 -0.23599,-0.4247937 0.20453,-0.094399 0.36186,-0.314662 0.15733,-0.2359965 0.15733,-0.7079895 V 2.0997673 h 1.46318 v 4.2164708 q 0,0 -0.22027,0.1258648 -0.20453,0.1101317 -0.47199,0.2989289 -0.26746,0.1887972 -0.47199,0.4090606 -0.20453,0.2045303 -0.20453,0.3933274 z M 149.7656,2.4616285 151.16585,1.596308 q 0.37759,0.3618613 0.77092,0.8023881 0.40906,0.4247937 0.75519,0.8338543 0.34613,0.4090606 0.58213,0.7237226 l -1.43172,1.0541177 Q 151.62211,4.6642626 151.27598,4.2237358 150.92985,3.783209 150.53653,3.3269491 150.1432,2.8549561 149.7656,2.4616285 Z m -0.14159,2.8162249 h 2.89489 V 6.772498 h -2.89489 z m 3.16235,6.7966996 q 0.42479,1.054117 1.17998,1.57331 0.75519,0.503459 1.84077,0.66079 1.10132,0.141598 2.53303,0.157331 0.84959,0 1.91944,-0.03147 1.06985,-0.03147 2.15544,-0.0944 1.10131,-0.06293 1.9981,-0.141598 -0.12586,0.188797 -0.25173,0.503459 -0.11013,0.314662 -0.20453,0.645057 -0.0944,0.330396 -0.1416,0.597858 -0.81812,0.0472 -1.74637,0.07867 -0.92825,0.0472 -1.88797,0.0472 -0.94399,0.01573 -1.87224,0.01573 -1.38452,0 -2.45437,-0.125865 -1.06985,-0.125864 -1.88797,-0.487726 -0.80239,-0.361861 -1.41598,-1.054117 -0.59785,-0.692257 -1.02265,-1.82504 z m -0.66079,-3.0050225 h 0.45626 l 0.28319,-0.047199 0.89679,0.314662 q -0.34613,2.5802285 -1.19571,4.3423355 -0.83386,1.746374 -2.09251,2.674627 -0.11013,-0.173064 -0.34612,-0.424794 -0.22027,-0.251729 -0.45626,-0.487726 -0.236,-0.220263 -0.4248,-0.346128 1.16425,-0.786655 1.88797,-2.2341 0.72373,-1.463179 0.99119,-3.5084814 z m -2.15544,1.6991745 V 9.4156588 l 0.66079,-0.3461282 h 1.99811 v 1.4631784 h -1.73064 q -0.25173,0 -0.53493,0.06293 -0.28319,0.06293 -0.39333,0.173064 z m 0,0 q -0.0315,-0.20453 -0.15733,-0.487726 -0.11013,-0.2831956 -0.23599,-0.5663914 -0.11013,-0.2831958 -0.20453,-0.4562599 0.18879,-0.062932 0.37759,-0.157331 0.1888,-0.1101317 0.3776,-0.3461282 0.14159,-0.157331 0.40906,-0.5663916 0.28319,-0.4247937 0.58212,-0.943986 0.31466,-0.5191923 0.59786,-1.0069184 0.28319,-0.4877261 0.44053,-0.8181212 V 5.356519 l 0.47199,-0.1730641 1.14851,0.4405268 q -0.23599,0.4090606 -0.55065,0.9597191 -0.31467,0.5349254 -0.67653,1.1327832 -0.34613,0.5821247 -0.69225,1.1170501 -0.34613,0.5349254 -0.64506,0.8967867 0,0 -0.1888,0.1101317 -0.18879,0.094399 -0.44052,0.2674625 -0.236,0.157331 -0.4248,0.330395 -0.1888,0.173064 -0.1888,0.330395 z"
           style="font-weight:bold;font-family:'Noto Sans TC';-inkscape-font-specification:'Noto Sans TC Bold';fill:#ffffff"
           id="path38286" />
        <path
           d="m 178.46275,1.6435074 0.97545,1.3687797 q -0.92825,0.157331 -2.01384,0.2989289 -1.06985,0.1258648 -2.2341,0.2202634 -1.14851,0.078666 -2.31276,0.1415979 -1.14852,0.062932 -2.2341,0.078666 -0.0315,-0.314662 -0.15733,-0.7079895 -0.12587,-0.3933275 -0.25173,-0.6607902 1.06985,-0.047199 2.1869,-0.1101317 1.13278,-0.062932 2.2341,-0.157331 1.10132,-0.094399 2.07677,-0.2045303 0.97545,-0.1258648 1.73064,-0.2674632 z m -8.33854,4.0591398 h 9.56572 v 1.4474452 h -9.56572 z m 3.82314,-3.0050221 h 1.69917 v 6.922564 h -1.69917 z m 0.0629,7.7564179 h 1.51038 v 4.578332 h -1.51038 z m -2.92635,-6.4033713 1.47891,-0.4405268 q 0.20453,0.4090606 0.40906,0.8967867 0.22026,0.471993 0.33039,0.8023881 l -1.54184,0.5191923 q -0.11013,-0.3461282 -0.29893,-0.8495874 -0.1888,-0.5191923 -0.37759,-0.9282529 z m 5.97857,-0.6607902 1.62051,0.4090606 q -0.31466,0.7079895 -0.62932,1.4002459 -0.29893,0.6922564 -0.58213,1.1799825 L 176.07132,5.985843 q 0.18879,-0.3618613 0.36186,-0.8023881 0.1888,-0.4562599 0.36186,-0.9282529 0.17306,-0.471993 0.26746,-0.8653205 z m -3.96474,3.2095524 1.46318,0.4877261 q -0.44053,0.7709219 -1.08558,1.4789114 -0.62933,0.6922564 -1.38452,1.2429149 -0.73945,0.5506587 -1.55757,0.9125197 -0.1888,-0.298929 -0.53493,-0.692256 -0.33039,-0.4090609 -0.61359,-0.6607905 0.75519,-0.2674627 1.46318,-0.6922564 0.70799,-0.4247937 1.29011,-0.9597191 0.59786,-0.5506585 0.95972,-1.1170501 z m -2.47009,3.3196841 h 8.43294 v 6.371905 h -1.73064 V 11.35083 h -5.05033 v 5.003126 h -1.65197 z m 1.27438,2.281299 h 5.83698 v 1.305848 h -5.83698 z m 0,2.218368 h 5.82124 v 1.32158 h -5.82124 z m -6.90683,-4.7041973 q 0.92825,-0.2517296 2.21836,-0.6607902 1.29012,-0.4247937 2.59596,-0.8495874 l 0.29893,1.6677086 q -1.21145,0.4405263 -2.47009,0.8810533 -1.24292,0.424794 -2.31277,0.786655 z m 0.26746,-5.1604568 h 4.81433 v 1.730641 h -4.81433 z m 1.65197,-2.9735559 h 1.73064 v 12.775277 q 0,0.645057 -0.14159,1.022652 -0.12587,0.393327 -0.48773,0.613591 -0.34613,0.220263 -0.88105,0.298928 -0.5192,0.07867 -1.30585,0.06293 -0.0315,-0.346128 -0.17306,-0.865321 -0.1416,-0.503459 -0.31467,-0.881053 0.44053,0.01573 0.80239,0.03147 0.3776,0 0.51919,-0.01573 0.1416,0 0.1888,-0.0472 0.0629,-0.06293 0.0629,-0.220264 z m 7.96095,5.8527132 0.97545,-1.0383846 q 0.69226,0.3933275 1.47892,0.9125198 0.80238,0.5034592 1.52611,1.0226515 0.72372,0.5034592 1.17998,0.9282529 l -1.06985,1.1957152 Q 178.55715,10.02925 177.84916,9.4943243 177.1569,8.9436658 176.35451,8.4087404 175.56786,7.8580819 174.8756,7.4332882 Z"
           style="font-weight:bold;font-family:'Noto Sans TC';-inkscape-font-specification:'Noto Sans TC Bold';fill:#ffffff"
           id="path38288" />
      </g>
      <g
         aria-label="Taipei Metro Station Announcements"
         id="text28143"
         style="font-size:9.25042px;line-height:1.25;stroke-width:0.231261">
        <path
           d="M 58.365304,20.722236 H 56.28396 v -0.915792 h 5.328241 v 0.915792 h -2.072094 v 5.772262 h -1.174803 z"
           style="font-family:'AR UDJingXiHeiE1G30 EB';-inkscape-font-specification:'AR UDJingXiHeiE1G30 EB';fill:#ffffff"
           id="path38291" />
        <path
           d="m 64.063561,25.708212 q 0.43477,0 0.795536,-0.157257 0.360766,-0.157257 0.638279,-0.508773 v -0.777036 h -0.693781 q -0.795537,0 -1.174804,0.22201 -0.379267,0.222011 -0.379267,0.610528 0,0.277513 0.203509,0.44402 0.20351,0.166508 0.610528,0.166508 z m 0.388518,-4.310696 q 1.11005,0 1.646574,0.453271 0.545775,0.44402 0.545775,1.313559 v 3.330152 h -1.147052 v -0.592027 q -0.314514,0.351516 -0.730783,0.536524 -0.407019,0.175758 -0.962044,0.175758 -0.823287,0 -1.276558,-0.397768 -0.45327,-0.407019 -0.45327,-1.063798 0,-0.786286 0.67528,-1.211805 0.675281,-0.42552 2.053594,-0.42552 h 0.693781 v -0.407018 q 0,-0.416269 -0.259012,-0.629029 -0.249761,-0.212759 -0.786285,-0.212759 -0.545775,0 -0.823288,0.22201 -0.268262,0.212759 -0.268262,0.573526 h -1.137802 q 0,-0.703032 0.564276,-1.184054 0.573526,-0.481022 1.665076,-0.481022 z"
           style="font-family:'AR UDJingXiHeiE1G30 EB';-inkscape-font-specification:'AR UDJingXiHeiE1G30 EB';fill:#ffffff"
           id="path38293" />
        <path
           d="m 69.040273,19.639937 v 1.1008 h -1.239556 v -1.1008 z m -0.0555,1.877835 v 4.976726 h -1.147052 v -4.976726 z"
           style="font-family:'AR UDJingXiHeiE1G30 EB';-inkscape-font-specification:'AR UDJingXiHeiE1G30 EB';fill:#ffffff"
           id="path38295" />
        <path
           d="m 71.408377,24.505657 q 0.0555,0.508773 0.407019,0.86954 0.360766,0.351516 0.915791,0.351516 0.527274,0 0.86954,-0.397768 0.351516,-0.407019 0.351516,-1.31356 0,-0.851039 -0.333016,-1.285808 -0.333015,-0.44402 -0.89729,-0.44402 -0.536525,0 -0.888041,0.333015 -0.351516,0.333015 -0.425519,0.869539 z m 0,-2.312605 q 0.305264,-0.416268 0.703032,-0.601277 0.407018,-0.194259 0.906541,-0.194259 0.999045,0 1.554071,0.703032 0.564275,0.703032 0.564275,1.905587 0,1.248806 -0.610527,1.933337 -0.601278,0.675281 -1.563321,0.675281 -0.481022,0 -0.888041,-0.185008 -0.397768,-0.185009 -0.66603,-0.573526 v 2.830628 h -1.147052 v -7.169075 h 1.147052 z"
           style="font-family:'AR UDJingXiHeiE1G30 EB';-inkscape-font-specification:'AR UDJingXiHeiE1G30 EB';fill:#ffffff"
           id="path38297" />
        <path
           d="m 78.373933,21.397516 q 1.082299,0 1.711328,0.712283 0.638279,0.703032 0.629028,2.201599 h -3.54291 q 0.0092,0.675281 0.333015,1.054548 0.323765,0.370017 0.971294,0.370017 0.425519,0 0.712282,-0.166507 0.296014,-0.175758 0.379267,-0.471772 h 1.1008 q -0.111005,0.638279 -0.67528,1.082299 -0.564276,0.43477 -1.517069,0.43477 -1.202555,0 -1.840834,-0.675281 -0.629028,-0.67528 -0.629028,-1.914837 -0.0093,-1.174803 0.610528,-1.896336 0.629028,-0.730783 1.757579,-0.730783 z m 0,0.87879 q -0.490272,0 -0.823287,0.333015 -0.333015,0.333015 -0.360766,0.934293 h 2.331105 q -0.0092,-0.573526 -0.314514,-0.915792 -0.305264,-0.351516 -0.832538,-0.351516 z"
           style="font-family:'AR UDJingXiHeiE1G30 EB';-inkscape-font-specification:'AR UDJingXiHeiE1G30 EB';fill:#ffffff"
           id="path38299" />
        <path
           d="m 82.906622,19.639937 v 1.1008 h -1.239556 v -1.1008 z m -0.0555,1.877835 v 4.976726 H 81.70407 v -4.976726 z"
           style="font-family:'AR UDJingXiHeiE1G30 EB';-inkscape-font-specification:'AR UDJingXiHeiE1G30 EB';fill:#ffffff"
           id="path38301" />
        <path
           d="m 87.827833,21.675029 v 4.819469 h -1.137801 v -6.688054 h 1.489317 l 1.924088,5.189486 1.850084,-5.189486 h 1.526319 v 6.688054 h -1.147052 v -4.856471 l -1.739079,4.856471 h -0.989795 z"
           style="font-family:'AR UDJingXiHeiE1G30 EB';-inkscape-font-specification:'AR UDJingXiHeiE1G30 EB';fill:#ffffff"
           id="path38303" />
        <path
           d="m 97.059747,21.397516 q 1.082299,0 1.711328,0.712283 0.638279,0.703032 0.629028,2.201599 h -3.54291 q 0.0093,0.675281 0.333015,1.054548 0.323764,0.370017 0.971294,0.370017 0.425519,0 0.712282,-0.166507 0.296014,-0.175758 0.379267,-0.471772 h 1.1008 q -0.111005,0.638279 -0.67528,1.082299 -0.564276,0.43477 -1.517069,0.43477 -1.202555,0 -1.840834,-0.675281 -0.629028,-0.67528 -0.629028,-1.914837 -0.0093,-1.174803 0.610527,-1.896336 0.629029,-0.730783 1.75758,-0.730783 z m 0,0.87879 q -0.490272,0 -0.823287,0.333015 -0.333015,0.333015 -0.360767,0.934293 h 2.331106 q -0.0093,-0.573526 -0.314514,-0.915792 -0.305264,-0.351516 -0.832538,-0.351516 z"
           style="font-family:'AR UDJingXiHeiE1G30 EB';-inkscape-font-specification:'AR UDJingXiHeiE1G30 EB';fill:#ffffff"
           id="path38305" />
        <path
           d="m 101.8607,21.517772 h 0.96204 v 0.869539 h -0.96204 v 2.821378 q 0,0.203509 0.10175,0.314514 0.11101,0.101755 0.33302,0.101755 h 0.52727 v 0.86954 h -0.92504 q -0.57353,0 -0.87879,-0.268263 -0.30526,-0.277512 -0.30526,-0.851038 v -2.987886 h -0.841792 v -0.869539 h 0.841792 v -1.230306 h 1.14705 z"
           style="font-family:'AR UDJingXiHeiE1G30 EB';-inkscape-font-specification:'AR UDJingXiHeiE1G30 EB';fill:#ffffff"
           id="path38307" />
        <path
           d="m 104.75606,23.395607 v 3.098891 h -1.1378 v -4.976726 h 1.1378 v 0.767785 q 0.32377,-0.453271 0.73079,-0.666031 0.41626,-0.22201 0.90654,-0.22201 v 1.063799 q -0.55503,0 -0.9898,0.268262 -0.43477,0.259011 -0.64753,0.66603 z"
           style="font-family:'AR UDJingXiHeiE1G30 EB';-inkscape-font-specification:'AR UDJingXiHeiE1G30 EB';fill:#ffffff"
           id="path38309" />
        <path
           d="m 109.41826,21.397516 q 1.23031,0 1.85934,0.730783 0.63828,0.721533 0.63828,1.859335 0,1.137801 -0.63828,1.887085 -0.62903,0.740034 -1.85934,0.740034 -1.2118,0 -1.86858,-0.740034 -0.64753,-0.749284 -0.64753,-1.887085 0,-1.128551 0.63828,-1.859335 0.64753,-0.730783 1.87783,-0.730783 z m 1.32281,2.590118 q 0,-0.841788 -0.37001,-1.276558 -0.37002,-0.43477 -0.9528,-0.43477 -0.61052,0 -0.98054,0.425519 -0.36077,0.42552 -0.36077,1.285809 0,0.869539 0.37002,1.313559 0.37002,0.43477 0.97129,0.43477 0.58278,0 0.9528,-0.43477 0.37001,-0.434769 0.37001,-1.313559 z"
           style="font-family:'AR UDJingXiHeiE1G30 EB';-inkscape-font-specification:'AR UDJingXiHeiE1G30 EB';fill:#ffffff"
           id="path38311" />
        <path
           d="m 117.76213,23.46961 q -1.22105,-0.22201 -1.81308,-0.684531 -0.59203,-0.462521 -0.59203,-1.295058 0,-0.777036 0.62903,-1.285809 0.63828,-0.508773 1.96109,-0.508773 1.21181,0 1.87784,0.518024 0.66603,0.518023 0.73078,1.498568 h -1.1748 q -0.009,-0.471772 -0.37002,-0.786286 -0.36077,-0.314514 -1.1008,-0.314514 -0.69378,0 -1.0268,0.23126 -0.33301,0.231261 -0.32376,0.64753 0,0.45327 0.44402,0.67528 0.45327,0.22201 1.47081,0.425519 1.27656,0.259012 1.81309,0.703032 0.54577,0.44402 0.54577,1.332061 0,0.851038 -0.72153,1.424564 -0.72153,0.564276 -2.05359,0.564276 -1.35982,0 -2.11835,-0.573526 -0.75854,-0.573526 -0.75854,-1.655825 h 1.17481 q 0,0.601277 0.45327,0.962043 0.45327,0.351516 1.25806,0.351516 0.74003,0 1.1563,-0.286763 0.41627,-0.286763 0.41627,-0.749284 0,-0.536524 -0.41627,-0.767784 -0.41627,-0.231261 -1.46157,-0.42552 z"
           style="font-family:'AR UDJingXiHeiE1G30 EB';-inkscape-font-specification:'AR UDJingXiHeiE1G30 EB';fill:#ffffff"
           id="path38313" />
        <path
           d="m 123.25688,21.517772 h 0.96204 v 0.869539 h -0.96204 v 2.821378 q 0,0.203509 0.10176,0.314514 0.111,0.101755 0.33301,0.101755 h 0.52727 v 0.86954 h -0.92504 q -0.57352,0 -0.87879,-0.268263 -0.30526,-0.277512 -0.30526,-0.851038 v -2.987886 h -0.84179 v -0.869539 h 0.84179 v -1.230306 h 1.14705 z"
           style="font-family:'AR UDJingXiHeiE1G30 EB';-inkscape-font-specification:'AR UDJingXiHeiE1G30 EB';fill:#ffffff"
           id="path38315" />
        <path
           d="m 126.77203,25.708212 q 0.43477,0 0.79553,-0.157257 0.36077,-0.157257 0.63828,-0.508773 v -0.777036 h -0.69378 q -0.79553,0 -1.1748,0.22201 -0.37927,0.222011 -0.37927,0.610528 0,0.277513 0.20351,0.44402 0.20351,0.166508 0.61053,0.166508 z m 0.38852,-4.310696 q 1.11005,0 1.64657,0.453271 0.54577,0.44402 0.54577,1.313559 v 3.330152 h -1.14705 v -0.592027 q -0.31451,0.351516 -0.73078,0.536524 -0.40702,0.175758 -0.96204,0.175758 -0.82329,0 -1.27656,-0.397768 -0.45327,-0.407019 -0.45327,-1.063798 0,-0.786286 0.67528,-1.211805 0.67528,-0.42552 2.05359,-0.42552 h 0.69378 v -0.407018 q 0,-0.416269 -0.25901,-0.629029 -0.24976,-0.212759 -0.78628,-0.212759 -0.54578,0 -0.82329,0.22201 -0.26826,0.212759 -0.26826,0.573526 h -1.13781 q 0,-0.703032 0.56428,-1.184054 0.57353,-0.481022 1.66508,-0.481022 z"
           style="font-family:'AR UDJingXiHeiE1G30 EB';-inkscape-font-specification:'AR UDJingXiHeiE1G30 EB';fill:#ffffff"
           id="path38317" />
        <path
           d="m 132.017,21.517772 h 0.96204 v 0.869539 H 132.017 v 2.821378 q 0,0.203509 0.10175,0.314514 0.11101,0.101755 0.33302,0.101755 h 0.52727 v 0.86954 H 132.054 q -0.57353,0 -0.87879,-0.268263 -0.30526,-0.277512 -0.30526,-0.851038 v -2.987886 h -0.84179 v -0.869539 h 0.84179 v -1.230306 h 1.14705 z"
           style="font-family:'AR UDJingXiHeiE1G30 EB';-inkscape-font-specification:'AR UDJingXiHeiE1G30 EB';fill:#ffffff"
           id="path38319" />
        <path
           d="m 135.02337,19.639937 v 1.1008 h -1.23956 v -1.1008 z m -0.0555,1.877835 v 4.976726 h -1.14705 v -4.976726 z"
           style="font-family:'AR UDJingXiHeiE1G30 EB';-inkscape-font-specification:'AR UDJingXiHeiE1G30 EB';fill:#ffffff"
           id="path38321" />
        <path
           d="m 138.56627,21.397516 q 1.23031,0 1.85934,0.730783 0.63828,0.721533 0.63828,1.859335 0,1.137801 -0.63828,1.887085 -0.62903,0.740034 -1.85934,0.740034 -1.2118,0 -1.86858,-0.740034 -0.64753,-0.749284 -0.64753,-1.887085 0,-1.128551 0.63828,-1.859335 0.64753,-0.730783 1.87783,-0.730783 z m 1.32281,2.590118 q 0,-0.841788 -0.37001,-1.276558 -0.37002,-0.43477 -0.9528,-0.43477 -0.61052,0 -0.98054,0.425519 -0.36077,0.42552 -0.36077,1.285809 0,0.869539 0.37002,1.313559 0.37002,0.43477 0.97129,0.43477 0.58278,0 0.9528,-0.43477 0.37001,-0.434769 0.37001,-1.313559 z"
           style="font-family:'AR UDJingXiHeiE1G30 EB';-inkscape-font-specification:'AR UDJingXiHeiE1G30 EB';fill:#ffffff"
           id="path38323" />
        <path
           d="m 143.29323,23.201348 v 3.29315 h -1.14705 v -4.976726 h 1.14705 v 0.564275 q 0.23127,-0.286763 0.62903,-0.481021 0.40702,-0.20351 0.90654,-0.20351 0.79554,0 1.23031,0.44402 0.44402,0.444021 0.44402,1.248807 v 3.404155 h -1.1378 V 23.23835 q 0,-0.44402 -0.21276,-0.684531 -0.21276,-0.249762 -0.62903,-0.249762 -0.41627,0 -0.75853,0.268263 -0.34227,0.259011 -0.47178,0.629028 z"
           style="font-family:'AR UDJingXiHeiE1G30 EB';-inkscape-font-specification:'AR UDJingXiHeiE1G30 EB';fill:#ffffff"
           id="path38325" />
        <path
           d="m 153.83869,23.793375 -1.05455,-2.85838 -1.07305,2.85838 z m -2.46986,0.915792 -0.66603,1.785331 h -1.19331 l 2.69188,-6.688054 h 1.20255 l 2.67337,6.688054 h -1.22105 l -0.67528,-1.785331 z"
           style="font-family:'AR UDJingXiHeiE1G30 EB';-inkscape-font-specification:'AR UDJingXiHeiE1G30 EB';fill:#ffffff"
           id="path38327" />
        <path
           d="m 157.87186,23.201348 v 3.29315 h -1.14705 v -4.976726 h 1.14705 v 0.564275 q 0.23126,-0.286763 0.62903,-0.481021 0.40702,-0.20351 0.90654,-0.20351 0.79554,0 1.23031,0.44402 0.44402,0.444021 0.44402,1.248807 v 3.404155 h -1.1378 V 23.23835 q 0,-0.44402 -0.21276,-0.684531 -0.21276,-0.249762 -0.62903,-0.249762 -0.41627,0 -0.75854,0.268263 -0.34226,0.259011 -0.47177,0.629028 z"
           style="font-family:'AR UDJingXiHeiE1G30 EB';-inkscape-font-specification:'AR UDJingXiHeiE1G30 EB';fill:#ffffff"
           id="path38329" />
        <path
           d="m 163.45911,23.201348 v 3.29315 h -1.14706 v -4.976726 h 1.14706 v 0.564275 q 0.23126,-0.286763 0.62902,-0.481021 0.40702,-0.20351 0.90655,-0.20351 0.79553,0 1.2303,0.44402 0.44402,0.444021 0.44402,1.248807 v 3.404155 h -1.1378 V 23.23835 q 0,-0.44402 -0.21276,-0.684531 -0.21276,-0.249762 -0.62903,-0.249762 -0.41627,0 -0.75853,0.268263 -0.34227,0.259011 -0.47177,0.629028 z"
           style="font-family:'AR UDJingXiHeiE1G30 EB';-inkscape-font-specification:'AR UDJingXiHeiE1G30 EB';fill:#ffffff"
           id="path38331" />
        <path
           d="m 170.20264,21.397516 q 1.23031,0 1.85934,0.730783 0.63828,0.721533 0.63828,1.859335 0,1.137801 -0.63828,1.887085 -0.62903,0.740034 -1.85934,0.740034 -1.2118,0 -1.86858,-0.740034 -0.64753,-0.749284 -0.64753,-1.887085 0,-1.128551 0.63828,-1.859335 0.64753,-0.730783 1.87783,-0.730783 z m 1.32281,2.590118 q 0,-0.841788 -0.37001,-1.276558 -0.37002,-0.43477 -0.9528,-0.43477 -0.61053,0 -0.98054,0.425519 -0.36077,0.42552 -0.36077,1.285809 0,0.869539 0.37002,1.313559 0.37002,0.43477 0.97129,0.43477 0.58278,0 0.9528,-0.43477 0.37001,-0.434769 0.37001,-1.313559 z"
           style="font-family:'AR UDJingXiHeiE1G30 EB';-inkscape-font-specification:'AR UDJingXiHeiE1G30 EB';fill:#ffffff"
           id="path38333" />
        <path
           d="m 176.94619,24.820172 v -3.3024 h 1.13781 v 4.976726 h -1.13781 v -0.564276 q -0.24976,0.296013 -0.65678,0.490272 -0.39776,0.185009 -0.91579,0.185009 -0.78628,0 -1.22105,-0.43477 -0.42552,-0.44402 -0.42552,-1.248807 v -3.404154 h 1.14705 v 3.256147 q 0,0.462521 0.21276,0.693782 0.21276,0.23126 0.63828,0.23126 0.40702,0 0.74928,-0.259011 0.34227,-0.259012 0.47177,-0.619778 z"
           style="font-family:'AR UDJingXiHeiE1G30 EB';-inkscape-font-specification:'AR UDJingXiHeiE1G30 EB';fill:#ffffff"
           id="path38335" />
        <path
           d="m 180.47984,23.201348 v 3.29315 h -1.14705 v -4.976726 h 1.14705 v 0.564275 q 0.23126,-0.286763 0.62903,-0.481021 0.40702,-0.20351 0.90654,-0.20351 0.79554,0 1.23031,0.44402 0.44402,0.444021 0.44402,1.248807 v 3.404155 h -1.1378 V 23.23835 q 0,-0.44402 -0.21276,-0.684531 -0.21276,-0.249762 -0.62903,-0.249762 -0.41627,0 -0.75854,0.268263 -0.34226,0.259011 -0.47177,0.629028 z"
           style="font-family:'AR UDJingXiHeiE1G30 EB';-inkscape-font-specification:'AR UDJingXiHeiE1G30 EB';fill:#ffffff"
           id="path38337" />
        <path
           d="m 187.18639,26.614753 q -1.23956,0 -1.85934,-0.712282 -0.61053,-0.721533 -0.61053,-1.951839 0,-1.128551 0.61978,-1.840833 0.62903,-0.712283 1.80383,-0.712283 0.99905,0 1.58182,0.490273 0.59203,0.490272 0.65678,1.313559 h -1.14705 q -0.0185,-0.407018 -0.30526,-0.66603 -0.27751,-0.259012 -0.80479,-0.259012 -0.57352,0 -0.90654,0.44402 -0.32376,0.43477 -0.32376,1.230306 0,0.915792 0.34226,1.350561 0.35152,0.43477 0.93429,0.43477 0.51803,0 0.79554,-0.268262 0.27751,-0.268262 0.28676,-0.721533 h 1.14706 q -0.009,0.851039 -0.59203,1.359812 -0.57353,0.508773 -1.61882,0.508773 z"
           style="font-family:'AR UDJingXiHeiE1G30 EB';-inkscape-font-specification:'AR UDJingXiHeiE1G30 EB';fill:#ffffff"
           id="path38339" />
        <path
           d="m 192.56086,21.397516 q 1.0823,0 1.71132,0.712283 0.63828,0.703032 0.62903,2.201599 h -3.54291 q 0.009,0.675281 0.33302,1.054548 0.32376,0.370017 0.97129,0.370017 0.42552,0 0.71228,-0.166507 0.29602,-0.175758 0.37927,-0.471772 h 1.1008 q -0.111,0.638279 -0.67528,1.082299 -0.56427,0.43477 -1.51707,0.43477 -1.20255,0 -1.84083,-0.675281 -0.62903,-0.67528 -0.62903,-1.914837 -0.009,-1.174803 0.61053,-1.896336 0.62903,-0.730783 1.75758,-0.730783 z m 0,0.87879 q -0.49027,0 -0.82329,0.333015 -0.33302,0.333015 -0.36077,0.934293 h 2.33111 q -0.009,-0.573526 -0.31451,-0.915792 -0.30527,-0.351516 -0.83254,-0.351516 z"
           style="font-family:'AR UDJingXiHeiE1G30 EB';-inkscape-font-specification:'AR UDJingXiHeiE1G30 EB';fill:#ffffff"
           id="path38341" />
        <path
           d="m 197.00105,23.229099 v 3.265399 h -1.1378 v -4.976726 h 1.1378 v 0.65678 q 0.24051,-0.333016 0.61978,-0.555026 0.37926,-0.22201 0.86029,-0.22201 0.49952,0 0.83253,0.22201 0.33302,0.21276 0.48103,0.601278 0.29601,-0.379268 0.68453,-0.601278 0.39777,-0.22201 0.87879,-0.22201 0.74003,0 1.14705,0.453271 0.41627,0.45327 0.41627,1.295059 v 3.348652 h -1.1378 v -3.3024 q 0,-0.416269 -0.19426,-0.64753 -0.18501,-0.23126 -0.53653,-0.23126 -0.36076,0 -0.66603,0.259012 -0.29601,0.249761 -0.41627,0.638279 v 3.283899 h -1.14705 v -3.29315 q 0,-0.425519 -0.18501,-0.65678 -0.17575,-0.23126 -0.53652,-0.23126 -0.37002,0 -0.68453,0.277512 -0.30527,0.277513 -0.41627,0.638279 z"
           style="font-family:'AR UDJingXiHeiE1G30 EB';-inkscape-font-specification:'AR UDJingXiHeiE1G30 EB';fill:#ffffff"
           id="path38343" />
        <path
           d="m 206.32546,21.397516 q 1.0823,0 1.71133,0.712283 0.63828,0.703032 0.62903,2.201599 h -3.54291 q 0.009,0.675281 0.33301,1.054548 0.32377,0.370017 0.97129,0.370017 0.42552,0 0.71229,-0.166507 0.29601,-0.175758 0.37926,-0.471772 h 1.1008 q -0.111,0.638279 -0.67528,1.082299 -0.56427,0.43477 -1.51707,0.43477 -1.20255,0 -1.84083,-0.675281 -0.62903,-0.67528 -0.62903,-1.914837 -0.009,-1.174803 0.61053,-1.896336 0.62903,-0.730783 1.75758,-0.730783 z m 0,0.87879 q -0.49027,0 -0.82329,0.333015 -0.33301,0.333015 -0.36076,0.934293 h 2.3311 q -0.009,-0.573526 -0.31451,-0.915792 -0.30527,-0.351516 -0.83254,-0.351516 z"
           style="font-family:'AR UDJingXiHeiE1G30 EB';-inkscape-font-specification:'AR UDJingXiHeiE1G30 EB';fill:#ffffff"
           id="path38345" />
        <path
           d="m 210.83041,23.201348 v 3.29315 h -1.14706 v -4.976726 h 1.14706 v 0.564275 q 0.23126,-0.286763 0.62902,-0.481021 0.40702,-0.20351 0.90654,-0.20351 0.79554,0 1.23031,0.44402 0.44402,0.444021 0.44402,1.248807 v 3.404155 h -1.1378 V 23.23835 q 0,-0.44402 -0.21276,-0.684531 -0.21276,-0.249762 -0.62903,-0.249762 -0.41627,0 -0.75853,0.268263 -0.34227,0.259011 -0.47177,0.629028 z"
           style="font-family:'AR UDJingXiHeiE1G30 EB';-inkscape-font-specification:'AR UDJingXiHeiE1G30 EB';fill:#ffffff"
           id="path38347" />
        <path
           d="m 216.71365,21.517772 h 0.96205 v 0.869539 h -0.96205 v 2.821378 q 0,0.203509 0.10176,0.314514 0.111,0.101755 0.33301,0.101755 h 0.52728 v 0.86954 h -0.92505 q -0.57352,0 -0.87879,-0.268263 -0.30526,-0.277512 -0.30526,-0.851038 v -2.987886 h -0.84179 v -0.869539 h 0.84179 v -1.230306 h 1.14705 z"
           style="font-family:'AR UDJingXiHeiE1G30 EB';-inkscape-font-specification:'AR UDJingXiHeiE1G30 EB';fill:#ffffff"
           id="path38349" />
        <path
           d="m 220.16404,24.376151 q -0.95279,-0.157257 -1.39681,-0.508773 -0.43477,-0.360766 -0.43477,-0.999045 0,-0.629029 0.50877,-1.045297 0.50877,-0.42552 1.50782,-0.42552 1.04529,0 1.57257,0.462521 0.52727,0.462521 0.52727,1.147052 h -1.14705 q -0.037,-0.360766 -0.27751,-0.545774 -0.24051,-0.185009 -0.67528,-0.185009 -0.41627,0 -0.63828,0.148007 -0.21276,0.138756 -0.21276,0.416269 0,0.314514 0.32376,0.462521 0.32377,0.148006 1.1378,0.286763 0.94355,0.157257 1.31356,0.518023 0.37927,0.351516 0.37927,0.989795 0,0.693782 -0.56427,1.110051 -0.56428,0.407018 -1.58183,0.407018 -1.1933,0 -1.73907,-0.481022 -0.53653,-0.490272 -0.54578,-1.193304 h 1.14705 q 0.0185,0.370017 0.29602,0.582776 0.28676,0.21276 0.83253,0.21276 0.45327,0 0.72154,-0.148007 0.26826,-0.148006 0.26826,-0.45327 0,-0.314514 -0.26826,-0.462521 -0.26827,-0.157257 -1.05455,-0.296014 z"
           style="font-family:'AR UDJingXiHeiE1G30 EB';-inkscape-font-specification:'AR UDJingXiHeiE1G30 EB';fill:#ffffff"
           id="path38351" />
      </g>
    </g>
  </g>
  <style
     type="text/css"
     id="style824">
	.st0{fill:#38B035;}
	.st1{fill:#007AB0;}
</style>
</svg>
