<?xml version="1.0" encoding="UTF-8" standalone="no"?>
<!-- Created with Inkscape (http://www.inkscape.org/) -->

<svg
   width="400"
   height="100"
   viewBox="0 0 105.83334 26.458333"
   version="1.1"
   id="svg5"
   inkscape:version="1.1 (c68e22c387, 2021-05-23)"
   sodipodi:docname="transfer.svg"
   xmlns:inkscape="http://www.inkscape.org/namespaces/inkscape"
   xmlns:sodipodi="http://sodipodi.sourceforge.net/DTD/sodipodi-0.dtd"
   xmlns="http://www.w3.org/2000/svg"
   xmlns:svg="http://www.w3.org/2000/svg">
  <sodipodi:namedview
     id="namedview7"
     pagecolor="#333333"
     bordercolor="#999999"
     borderopacity="1"
     inkscape:pageshadow="0"
     inkscape:pageopacity="1"
     inkscape:pagecheckerboard="true"
     inkscape:document-units="mm"
     showgrid="false"
     inkscape:zoom="1.8973437"
     inkscape:cx="219.2539"
     inkscape:cy="40.056"
     inkscape:window-width="1920"
     inkscape:window-height="1094"
     inkscape:window-x="-11"
     inkscape:window-y="-11"
     inkscape:window-maximized="1"
     inkscape:current-layer="layer1"
     units="px" />
  <defs
     id="defs2">
    <rect
       x="202.91527"
       y="13.176316"
       width="329.4079"
       height="59.029896"
       id="rect5816" />
  </defs>
  <g
     inkscape:label="Layer 1"
     inkscape:groupmode="layer"
     id="layer1">
    <rect
       style="fill:#333333;stroke:none;stroke-width:0.555625"
       id="rect38779"
       width="105.83334"
       height="26.458334"
       x="-5.0862632e-06"
       y="-3.1789145e-07" />
    <rect
       style="fill:#9e652e;stroke:none;stroke-width:0.555625;fill-opacity:1"
       id="rect40247"
       width="17.647709"
       height="2.6458333"
       x="-5.0862632e-06"
       y="23.8125" />
    <rect
       style="fill:#d0002b;fill-opacity:1;stroke:none;stroke-width:0.555625"
       id="rect40247-3"
       width="17.647709"
       height="2.6458333"
       x="17.647703"
       y="23.8125" />
    <rect
       style="fill:#007846;fill-opacity:1;stroke:none;stroke-width:0.555625"
       id="rect40247-3-6"
       width="17.647709"
       height="2.6458333"
       x="35.29541"
       y="23.8125" />
    <rect
       style="fill:#ffa000;fill-opacity:1;stroke:none;stroke-width:0.555625"
       id="rect40247-3-6-3"
       width="17.647709"
       height="2.6458333"
       x="52.943119"
       y="23.8125" />
    <rect
       style="fill:#005fb9;fill-opacity:1;stroke:none;stroke-width:0.555625"
       id="rect40247-3-6-3-5"
       width="17.647709"
       height="2.6458333"
       x="70.590828"
       y="23.8125" />
    <rect
       style="fill:#fedb00;fill-opacity:1;stroke:none;stroke-width:0.555625"
       id="rect40247-3-6-3-5-3"
       width="17.647709"
       height="2.6458333"
       x="88.185631"
       y="23.8125" />
    <g
       aria-label="轉乘、終點站廣播"
       id="text4857"
       style="font-size:12.9824px;line-height:1.25;stroke-width:0.324561">
      <path
         d="M 6.9201515,3.7211305 H 13.359422 V 4.8765641 H 6.9201515 Z M 6.8033099,11.095134 h 6.7378651 v 1.142451 H 6.8033099 Z M 9.4127723,2.8642921 H 10.749959 V 9.8618057 H 9.4127723 Z M 8.3611979,7.4860265 v 0.519296 h 3.4663011 v -0.519296 z m 0,-1.29824 V 6.6811177 H 11.827499 V 6.1877865 Z M 7.1408523,5.3439305 h 5.9719037 v 3.505248 H 7.1408523 Z M 6.7903275,9.4593513 q 0.7399968,-0.012982 1.687712,-0.025965 0.9606976,-0.012982 2.0382365,-0.025965 1.077539,-0.025965 2.155079,-0.05193 l -0.03895,1.0645569 q -1.038592,0.02596 -2.077184,0.06491 -1.0256091,0.02596 -1.9733243,0.05193 -0.9347328,0.01298 -1.7006944,0.03895 z m 3.8427905,1.1164867 h 1.428064 v 3.128758 q 0,0.493331 -0.129824,0.765962 -0.116842,0.27263 -0.480349,0.415436 -0.350525,0.155789 -0.843856,0.181754 -0.493331,0.02596 -1.1813983,0.02596 -0.038947,-0.298595 -0.1687712,-0.64912 -0.1168416,-0.337543 -0.2336832,-0.610173 0.4154368,0.01298 0.8178912,0.02597 0.4154365,0 0.5452605,0 0.142807,-0.01298 0.194736,-0.05193 0.05193,-0.03895 0.05193,-0.142806 z m -3.2326177,2.038236 1.0515744,-0.610172 q 0.3635072,0.32456 0.6880672,0.739996 0.32456,0.415437 0.4933312,0.75298 L 8.5169867,14.197927 Q 8.3741803,13.860385 8.0626027,13.418983 7.7510251,12.964599 7.4005003,12.614074 Z m 3.8557727,-3.5961243 1.02561,-0.4803488 q 0.402454,0.4154368 0.765961,0.9217504 0.37649,0.4933312 0.571226,0.8828027 l -1.090522,0.558244 Q 12.359777,10.497943 11.99627,9.9656649 11.632763,9.4333865 11.256273,9.0179497 Z M 1.5064907,4.1106025 H 6.6605035 V 5.4477897 H 1.5064907 Z M 1.3247371,11.627412 h 5.4915552 v 1.363152 H 1.3247371 Z M 3.4278859,2.8642921 H 4.8040203 V 6.6551529 H 3.4278859 Z m 0.1817536,3.8038432 h 1.0126272 v 3.6091067 h 0.1817536 v 4.764541 H 3.4278859 V 10.277242 H 3.6096395 Z M 2.8566603,9.0049673 V 9.7709289 H 5.4012107 V 9.0049673 Z m 0,-1.7785888 V 7.9793577 H 5.4012107 V 7.2263785 Z M 1.7661387,6.1358569 H 6.5436619 V 10.86145 H 1.7661387 Z"
         style="font-weight:bold;font-family:'Noto Sans TC';-inkscape-font-specification:'Noto Sans TC Bold';fill:#ffffff"
         id="path20700" />
      <path
         d="m 19.616914,4.1884969 h 1.648765 V 15.041783 h -1.648765 z m -2.375779,2.9729696 h 1.402099 V 10.355137 H 17.241135 Z M 14.748514,5.4607721 h 11.3596 v 1.4020992 h -11.3596 z m 0.402454,2.401744 h 2.959987 v 1.2073632 h -2.959987 z m 9.334346,-5.0112064 0.688067,1.3501696 q -0.97368,0.1557888 -2.116131,0.2856128 -1.129469,0.129824 -2.349815,0.2207008 -1.207363,0.077894 -2.427708,0.129824 -1.220346,0.038947 -2.362797,0.05193 -0.01298,-0.2985952 -0.129824,-0.6750848 -0.103859,-0.3764896 -0.207719,-0.6361376 1.155434,-0.038947 2.349815,-0.090877 1.207363,-0.064912 2.388761,-0.1557888 1.181399,-0.090877 2.245956,-0.2077184 1.064556,-0.129824 1.921395,-0.2726304 z m -4.686647,6.81576 1.181399,0.4284193 q -0.597191,1.077539 -1.467011,1.986307 -0.869821,0.895786 -1.94736,1.583853 -1.07754,0.675085 -2.297885,1.090521 -0.116842,-0.194736 -0.298595,-0.441401 -0.168772,-0.246666 -0.363508,-0.480349 -0.181753,-0.233683 -0.350524,-0.389472 1.19438,-0.311578 2.258937,-0.869821 1.064557,-0.571225 1.908413,-1.311222 0.843856,-0.739997 1.376134,-1.5968353 z m 1.285258,0.012982 q 0.389472,0.6231549 0.960698,1.2073629 0.571225,0.571226 1.285257,1.064557 0.714032,0.480349 1.531923,0.843856 0.830874,0.363507 1.713677,0.59719 -0.155789,0.142807 -0.350525,0.37649 -0.194736,0.233683 -0.363507,0.480349 -0.168771,0.259648 -0.27263,0.467366 -1.220346,-0.402454 -2.284903,-1.077539 -1.064556,-0.688067 -1.921395,-1.583853 -0.843856,-0.908768 -1.441046,-1.973325 z M 14.735531,10.458996 Q 15.566405,10.26426 16.708856,9.9786473 17.86429,9.6800521 19.058671,9.3554921 l 0.155788,1.1164859 q -1.077539,0.32456 -2.16806,0.662103 -1.07754,0.32456 -1.973325,0.584208 z m 7.425933,-3.2975295 h 1.492976 v 2.2199904 q 0,0.259648 0.05193,0.3764896 0.06491,0.1038592 0.259648,0.1038592 0.07789,0 0.233683,0 0.168771,0 0.350525,0 0.194736,0 0.363507,0 0.168771,0 0.259648,0 0.194736,0 0.493331,-0.025965 0.298595,-0.025965 0.454384,-0.064912 0.02596,0.2856131 0.05193,0.6361371 0.02596,0.337543 0.06491,0.610173 -0.168771,0.05193 -0.454384,0.07789 -0.285613,0.02596 -0.571226,0.02596 -0.09088,0 -0.285613,0 -0.194736,0 -0.415436,0 -0.220701,0 -0.402455,0 -0.181753,0 -0.285613,0 -0.675084,0 -1.038592,-0.181753 -0.350524,-0.181754 -0.493331,-0.558243 -0.129824,-0.3894723 -0.129824,-1.0126275 z m 0.739997,0.6880672 h 2.947005 v 1.2073632 h -2.947005 z"
         style="font-weight:bold;font-family:'Noto Sans TC';-inkscape-font-specification:'Noto Sans TC Bold';fill:#ffffff"
         id="path20702" />
      <path
         d="M 34.144195,11.121098 Q 33.754723,10.64075 33.274374,10.134436 32.794025,9.6151401 32.300694,9.1347913 31.807363,8.6414601 31.352979,8.2649705 l 1.350169,-1.1813984 q 0.467367,0.3764896 0.986663,0.8957856 0.532278,0.5063136 1.025609,1.0256096 0.493331,0.519296 0.817891,0.9217504 z"
         style="font-weight:bold;font-family:'Noto Sans TC';-inkscape-font-specification:'Noto Sans TC Bold';fill:#ffffff"
         id="path20704" />
      <path
         d="m 47.191481,10.770574 0.869821,-0.9736803 q 0.480348,0.1687712 0.97368,0.4154363 0.506313,0.246666 0.960697,0.506314 0.454384,0.259648 0.765962,0.493331 l -0.895786,1.077539 q -0.311577,-0.246665 -0.765961,-0.519296 -0.441402,-0.285612 -0.947716,-0.54526 -0.493331,-0.272631 -0.960697,-0.454384 z m -1.415082,2.323849 0.895786,-1.090521 q 0.636137,0.168771 1.311222,0.402454 0.675085,0.233683 1.324205,0.493331 0.662102,0.259648 1.24631,0.532279 0.584208,0.27263 1.038592,0.519296 l -0.908768,1.220345 Q 50.112521,14.8081 49.281647,14.418628 48.463756,14.029156 47.542006,13.691614 46.633238,13.341089 45.776399,13.094423 Z M 47.386217,2.8513097 48.892175,3.0979753 Q 48.411826,4.2923561 47.684812,5.4607721 46.957798,6.6162057 45.867276,7.6028681 45.750434,7.4340969 45.555698,7.2393609 45.373945,7.0446249 45.166226,6.8758537 44.97149,6.6941001 44.802719,6.6032233 45.451839,6.0449801 45.94517,5.4088425 46.451484,4.7727049 46.802009,4.1235849 47.165516,3.4614825 47.386217,2.8513097 Z M 47.6199,4.0976201 h 3.232618 v 1.3242048 h -3.89472 z m 2.804198,0 h 0.298596 l 0.259648,-0.064912 0.947715,0.5452608 q -0.571226,1.4410464 -1.518941,2.6094624 -0.947715,1.168416 -2.116131,2.0252544 -1.168416,0.8438563 -2.427709,1.3631523 -0.09088,-0.181754 -0.259648,-0.415437 -0.168771,-0.2336833 -0.363507,-0.4543841 -0.181754,-0.2336832 -0.32456,-0.3635072 1.207363,-0.4414016 2.297885,-1.1554336 1.103504,-0.7270144 1.934377,-1.7006944 0.843856,-0.97368 1.272275,-2.1291136 z m -2.947004,1.0126272 q 0.493331,0.9347328 1.285257,1.7656064 0.791927,0.8308736 1.791571,1.4799936 1.012628,0.6361376 2.142096,1.0126272 -0.168771,0.1557888 -0.363507,0.3764896 -0.181753,0.2207008 -0.350525,0.4543839 -0.168771,0.233683 -0.285612,0.441402 Q 50.527958,10.160401 49.502348,9.4074217 48.476738,8.6414601 47.645865,7.6677801 46.827974,6.6811177 46.230783,5.5516489 Z M 43.257814,8.2390057 44.3743,7.9274281 q 0.155789,0.4414016 0.298595,0.9477152 0.155789,0.5063136 0.272631,0.97368 0.116841,0.4673667 0.168771,0.8308737 l -1.181399,0.376489 Q 43.880969,10.692679 43.77711,10.21233 43.67325,9.7319817 43.530444,9.2126857 43.40062,8.6933897 43.257814,8.2390057 Z M 42.310098,11.61443 43.40062,11.393729 q 0.129824,0.675085 0.220701,1.467011 0.103859,0.778944 0.129824,1.35017 l -1.142451,0.233683 q 0,-0.389472 -0.05193,-0.869821 -0.03895,-0.493331 -0.103859,-0.999645 -0.06491,-0.519296 -0.142807,-0.960697 z m -1.505958,-0.181754 1.220346,0.194736 q -0.0779,0.869821 -0.220701,1.739642 -0.142807,0.856838 -0.350525,1.454028 -0.129824,-0.07789 -0.350525,-0.168771 -0.220701,-0.07789 -0.441401,-0.142806 -0.220701,-0.06491 -0.389472,-0.103859 0.233683,-0.584208 0.350524,-1.376135 0.116842,-0.804909 0.181754,-1.596835 z M 40.674316,8.0183049 Q 40.635369,7.8754985 40.557474,7.6288329 40.47958,7.3821673 40.388703,7.1355017 40.297826,6.8758537 40.20695,6.6941001 q 0.207718,-0.064912 0.376489,-0.2466656 0.181754,-0.1817536 0.37649,-0.4673664 0.129824,-0.1817536 0.415437,-0.6750848 0.285612,-0.5063136 0.610172,-1.168416 0.32456,-0.6621024 0.545261,-1.363152 l 1.389117,0.5712256 q -0.311578,0.714032 -0.714032,1.428064 -0.402454,0.7010496 -0.830874,1.3501696 -0.415436,0.6361376 -0.856838,1.1424512 v 0.038947 q 0,0 -0.129824,0.077894 -0.116842,0.064912 -0.285613,0.1817536 -0.168771,0.1168416 -0.298595,0.2336832 -0.129824,0.1168416 -0.129824,0.2207008 z m 0,0 -0.02596,-1.0256096 0.597191,-0.4024544 2.258937,-0.1557888 q -0.06491,0.2726304 -0.103859,0.6231552 -0.03895,0.3375424 -0.05193,0.5582432 -0.752979,0.064912 -1.233328,0.129824 -0.480348,0.05193 -0.765961,0.090877 -0.272631,0.038947 -0.428419,0.090877 -0.155789,0.038947 -0.246666,0.090877 z m 0.103859,3.0119171 q -0.03895,-0.142807 -0.129824,-0.402455 -0.07789,-0.259648 -0.181753,-0.519296 -0.09088,-0.2726301 -0.181754,-0.4673661 0.259648,-0.064912 0.493331,-0.2726304 0.233683,-0.2207008 0.532279,-0.584208 0.168771,-0.1817536 0.467366,-0.584208 0.311578,-0.4154368 0.688067,-0.97368 0.37649,-0.5582432 0.752979,-1.2073632 0.37649,-0.6621024 0.675085,-1.3112224 l 1.29824,0.7919264 q -0.480349,0.8568384 -1.064557,1.7136768 -0.571225,0.8568384 -1.207363,1.6357824 -0.636137,0.778944 -1.272275,1.4150815 v 0.05193 q 0,0 -0.142806,0.07789 -0.129824,0.06491 -0.298596,0.181754 -0.168771,0.103859 -0.298595,0.233683 -0.129824,0.116841 -0.129824,0.220701 z m 0,0 -0.07789,-1.0645571 0.610173,-0.4154368 3.076828,-0.4024544 q -0.03895,0.2726304 -0.06491,0.6101728 -0.01298,0.3245595 0,0.5452605 -1.038592,0.168771 -1.700694,0.285613 -0.64912,0.103859 -1.012627,0.181754 -0.363507,0.07789 -0.545261,0.142806 -0.181754,0.05193 -0.285613,0.116842 z m 2.908058,0.350524 1.025609,-0.350524 q 0.220701,0.558243 0.441402,1.220345 0.233683,0.64912 0.337542,1.129469 L 44.413247,13.78249 Q 44.32237,13.302142 44.10167,12.627057 43.893951,11.951972 43.686233,11.380746 Z"
         style="font-weight:bold;font-family:'Noto Sans TC';-inkscape-font-specification:'Noto Sans TC Bold';fill:#ffffff"
         id="path20706" />
      <path
         d="m 59.719473,8.9919849 h 5.309801 v 5.9978691 h -1.492976 v -4.582788 h -2.414726 v 4.634717 h -1.402099 z m 1.726659,-6.1147104 h 1.505958 v 6.5041824 h -1.505958 z m 0.895786,2.6743744 h 3.128758 V 6.9926953 H 62.341918 Z M 60.45947,13.120388 h 3.777878 V 14.53547 H 60.45947 Z M 54.903002,4.2923561 v 2.8431456 h 3.154724 V 4.2923561 Z m -1.155433,-1.038592 h 5.51752 v 4.9203296 h -5.51752 z m 1.129469,1.5968352 0.64912,-0.1817536 q 0.155788,0.4414016 0.27263,0.9606976 0.116842,0.519296 0.142806,0.8957856 L 55.253527,6.7460297 Q 55.240545,6.3695401 55.136686,5.8372617 55.032826,5.3049833 54.877038,4.8505993 Z m 0.402454,7.5817217 0.960698,-0.103859 q 0.09088,0.54526 0.129824,1.181398 0.05193,0.623155 0.03895,1.090522 l -0.999645,0.116841 q 0.02597,-0.467366 -0.01298,-1.103504 -0.03895,-0.636137 -0.116842,-1.181398 z m 1.324205,-0.02596 0.92175,-0.168771 q 0.181754,0.519296 0.337543,1.116486 0.155788,0.584208 0.207718,1.038592 l -0.97368,0.194736 q -0.02596,-0.441401 -0.168771,-1.051574 -0.142807,-0.610173 -0.32456,-1.129469 z m 1.29824,-0.02597 0.934733,-0.337542 q 0.285612,0.480349 0.54526,1.064557 0.259648,0.571225 0.363508,0.999644 l -0.986663,0.389472 q -0.09088,-0.441401 -0.337542,-1.025609 -0.233683,-0.597191 -0.519296,-1.090522 z m -3.881738,-0.337542 1.038592,0.389472 q -0.129824,0.59719 -0.32456,1.272275 -0.181753,0.675085 -0.454384,1.142451 l -1.077539,-0.441401 q 0.181754,-0.298596 0.337542,-0.70105 0.168772,-0.402454 0.285613,-0.830874 0.116842,-0.441401 0.194736,-0.830873 z m 3.401389,-7.3869857 0.778944,0.259648 Q 58.018778,5.3828777 57.824042,5.9021737 57.642289,6.4214697 57.4865,6.7719945 L 56.902292,6.5512937 q 0.103859,-0.2726304 0.194736,-0.5971904 0.103859,-0.3375424 0.194736,-0.6750848 0.09088,-0.3505248 0.129824,-0.6231552 z m -3.648054,4.0764736 h 5.46559 v 1.1813984 h -5.46559 z m 2.21999,-4.9462944 h 0.934733 v 3.9077024 h 0.220701 V 11.082151 H 55.772823 V 7.6937449 h 0.220701 z m -2.479638,6.7768125 h 5.906992 v 1.181399 h -5.906992 z"
         style="font-weight:bold;font-family:'Noto Sans TC';-inkscape-font-specification:'Noto Sans TC Bold';fill:#ffffff"
         id="path20708" />
      <path
         d="m 66.496258,5.1362121 h 5.218925 v 1.428064 h -5.218925 z m -0.103859,7.2052319 q 0.64912,-0.116842 1.467011,-0.285613 0.830874,-0.168771 1.752624,-0.363507 0.92175,-0.207718 1.817536,-0.402454 l 0.155789,1.441046 q -1.259293,0.298595 -2.544551,0.610173 -1.272275,0.298595 -2.310867,0.532278 z M 66.924677,7.2523433 68.13204,7.0316425 q 0.142807,0.6880672 0.259648,1.4540288 0.116842,0.7659616 0.194736,1.5059584 0.09088,0.7399963 0.129824,1.3371873 l -1.272275,0.259648 Q 67.418008,10.991274 67.340114,10.251278 67.275202,9.4982985 67.15836,8.7193545 67.054501,7.9274281 66.924677,7.2523433 Z m 2.895075,-0.32456 1.441047,0.2336832 q -0.103859,0.6361376 -0.233683,1.3112224 -0.116842,0.6750848 -0.259648,1.3371872 -0.142807,0.6621019 -0.285613,1.2592929 -0.129824,0.584208 -0.272631,1.051574 l -1.142451,-0.246665 q 0.129824,-0.493332 0.246666,-1.103504 0.116841,-0.610173 0.207718,-1.2852579 0.09088,-0.6750848 0.168771,-1.3242048 0.09088,-0.6621024 0.129824,-1.233328 z m -1.869465,-3.635072 1.350169,-0.3764896 q 0.259648,0.4414016 0.493332,0.97368 0.233683,0.519296 0.350524,0.8957856 L 68.742213,5.2530537 Q 68.638354,4.8505993 68.417653,4.3053385 68.196952,3.7470953 67.950287,3.2927113 Z m 6.724883,1.94736 h 3.764896 v 1.492976 H 74.67517 Z m -2.168061,7.7375107 h 4.647699 v 1.441046 H 72.507109 Z M 73.818332,2.8383273 h 1.596835 V 9.6021577 H 73.818332 Z M 71.80606,8.9660201 h 6.192604 V 14.989854 H 76.401829 V 10.420049 H 73.325 v 4.621734 h -1.51894 z"
         style="font-weight:bold;font-family:'Noto Sans TC';-inkscape-font-specification:'Noto Sans TC Bold';fill:#ffffff"
         id="path20710" />
      <path
         d="M 81.24424,3.7990249 H 91.292618 V 5.1102473 H 81.24424 Z m 0.97368,1.9213952 h 8.633296 V 6.5902409 H 82.21792 Z M 80.335472,3.7990249 h 1.479994 v 3.9466496 q 0,0.8049088 -0.05193,1.752624 -0.05193,0.9347325 -0.194736,1.9213955 -0.129824,0.97368 -0.402454,1.89543 -0.259648,0.92175 -0.70105,1.661747 -0.142806,-0.116841 -0.389472,-0.27263 -0.233683,-0.155789 -0.493331,-0.298595 -0.246665,-0.129824 -0.428419,-0.194736 0.415437,-0.70105 0.64912,-1.518941 0.233683,-0.817891 0.350525,-1.67473 0.116841,-0.869821 0.142806,-1.7006941 0.03895,-0.843856 0.03895,-1.5708704 z m 5.452608,5.5694496 h 1.454029 V 12.58811 H 85.78808 Z m -1.89543,2.0771835 v 0.558244 h 5.166995 v -0.558244 z m 0,-1.402099 v 0.558243 h 5.166995 V 10.043559 Z M 82.503533,9.1477737 h 8.023123 v 3.7519133 h -8.023123 z m 4.621735,4.5568223 0.610172,-0.999645 q 0.623156,0.207719 1.272276,0.454384 0.64912,0.233683 1.233328,0.467367 0.584208,0.2207 1.012627,0.402454 l -0.714032,1.077539 q -0.402455,-0.194736 -0.97368,-0.441401 -0.558243,-0.233684 -1.194381,-0.493332 -0.623155,-0.246665 -1.24631,-0.467366 z m -2.207008,-1.012627 1.116486,0.999645 q -0.558243,0.246665 -1.220346,0.506313 -0.64912,0.259648 -1.29824,0.493331 -0.64912,0.246666 -1.168416,0.42842 -0.142806,-0.233684 -0.376489,-0.545261 -0.233683,-0.298595 -0.454384,-0.519296 0.532278,-0.155789 1.155433,-0.389472 0.623156,-0.246666 1.220346,-0.493331 0.59719,-0.259648 1.02561,-0.480349 z m 0.01298,-9.6069761 1.6228,-0.32456 q 0.142806,0.3635072 0.285613,0.7919264 0.142806,0.4154368 0.207718,0.7270144 l -1.674729,0.389472 Q 85.320714,4.3442857 85.19089,3.9028841 85.061066,3.4614825 84.931242,3.0849929 Z m -1.207363,2.1550784 h 1.479993 v 1.7915712 h 2.479639 V 5.2400713 h 1.557888 v 2.4406912 h -5.51752 z m -1.661747,2.726304 h 9.204521 v 0.8828032 h -9.204521 z"
         style="font-weight:bold;font-family:'Noto Sans TC';-inkscape-font-specification:'Noto Sans TC Bold';fill:#ffffff"
         id="path20712" />
      <path
         d="m 103.21044,2.9162217 0.80491,1.1294688 q -0.76597,0.129824 -1.66175,0.2466656 -0.8828,0.1038592 -1.8435,0.1817536 -0.947717,0.064912 -1.908415,0.1168416 -0.947715,0.05193 -1.8435,0.064912 -0.02596,-0.259648 -0.129824,-0.584208 -0.10386,-0.32456 -0.207719,-0.5452608 0.882803,-0.038947 1.804554,-0.090877 0.934733,-0.05193 1.843504,-0.129824 0.90876,-0.077894 1.71367,-0.1687712 0.80491,-0.1038592 1.42807,-0.2207008 z m -6.880675,3.3494592 h 7.893295 v 1.1943808 h -7.893295 z m 3.154724,-2.4796384 h 1.402101 v 5.712256 h -1.402101 z m 0.05193,6.4003235 h 1.246312 v 3.777878 H 99.536418 Z M 97.121692,4.9025289 98.342037,4.5390217 q 0.168772,0.3375424 0.337543,0.7399968 0.181753,0.389472 0.27263,0.6621024 L 97.679935,6.3695401 Q 97.589058,6.0839273 97.433269,5.6684905 97.277481,5.2400713 97.121692,4.9025289 Z m 4.933308,-0.5452608 1.33719,0.3375424 q -0.25965,0.584208 -0.5193,1.1554336 -0.24666,0.5712256 -0.48034,0.97368 l -1.15544,-0.32456 q 0.15579,-0.2985952 0.2986,-0.6621024 0.15579,-0.3764896 0.29859,-0.7659616 0.14281,-0.389472 0.2207,-0.714032 z m -3.271561,2.6484096 1.207363,0.4024544 Q 99.627295,8.0442697 99.095017,8.6284777 98.575721,9.1997033 97.952565,9.6540873 97.342393,10.108471 96.667308,10.407066 96.511519,10.160401 96.225906,9.8358409 95.953276,9.4982985 95.719593,9.2905801 96.342748,9.0698793 96.926956,8.7193545 97.511164,8.3688297 97.991513,7.9274281 98.484844,7.4730441 98.783439,7.0056777 Z m -2.038237,2.7392864 h 6.958568 v 5.2578719 h -1.42807 v -4.076474 h -4.167346 v 4.128404 h -1.363152 z m 1.051575,1.8824479 h 4.816473 v 1.077539 h -4.816473 z m 0,1.830518 h 4.803483 v 1.090522 H 97.796777 Z M 92.097503,9.5761929 q 0.765962,-0.2077184 1.830518,-0.5452608 1.064557,-0.3505248 2.142096,-0.7010496 l 0.246666,1.3761344 q -0.999645,0.3635071 -2.038237,0.7270141 -1.025609,0.350525 -1.908413,0.64912 z m 0.220701,-4.2582272 h 3.972614 v 1.428064 H 92.318204 Z M 93.681356,2.8642921 H 95.10942 V 13.406001 q 0,0.532278 -0.116842,0.843856 -0.103859,0.32456 -0.402454,0.506313 -0.285613,0.181754 -0.727015,0.246666 -0.428419,0.06491 -1.077539,0.05193 -0.02597,-0.285613 -0.142806,-0.714032 -0.116842,-0.415437 -0.259648,-0.727015 0.363507,0.01298 0.662102,0.02597 0.311578,0 0.428419,-0.01298 0.116842,0 0.155789,-0.03895 0.05193,-0.05193 0.05193,-0.181753 z m 6.569094,4.8294528 0.80491,-0.8568384 q 0.57122,0.32456 1.22034,0.7529792 0.66211,0.4154368 1.2593,0.843856 0.59719,0.4154368 0.97368,0.7659616 l -0.88281,0.9866627 q -0.33754,-0.3505251 -0.92175,-0.7919267 -0.57122,-0.454384 -1.23332,-0.8957856 -0.64912,-0.454384 -1.22035,-0.8049088 z"
         style="font-weight:bold;font-family:'Noto Sans TC';-inkscape-font-specification:'Noto Sans TC Bold';fill:#ffffff"
         id="path20714" />
    </g>
    <g
       aria-label="Transfer and Terminal Announcements"
       id="text8779"
       style="font-size:5.52555px;line-height:1.25;stroke-width:0.138139">
      <path
         d="M 2.4436754,18.193241 H 1.2004267 v -0.54703 h 3.1827167 v 0.54703 H 3.1454203 v 3.447943 H 2.4436754 Z"
         style="font-family:'AR UDJingXiHeiE1G30 EB';-inkscape-font-specification:'AR UDJingXiHeiE1G30 EB';fill:#ffffff"
         id="path20717" />
      <path
         d="m 5.4772015,19.790125 v 1.851059 H 4.7975589 v -2.972746 h 0.6796426 v 0.458621 q 0.1933942,-0.270752 0.4365184,-0.39784 0.2486498,-0.132613 0.5415039,-0.132613 v 0.635438 q -0.331533,0 -0.5912338,0.160241 -0.2597009,0.154715 -0.3867885,0.39784 z"
         style="font-family:'AR UDJingXiHeiE1G30 EB';-inkscape-font-specification:'AR UDJingXiHeiE1G30 EB';fill:#ffffff"
         id="path20719" />
      <path
         d="m 7.8918608,21.171512 q 0.2597008,0 0.4751973,-0.09393 0.2154964,-0.09393 0.3812629,-0.303905 V 20.309526 H 8.3339048 q -0.4751973,0 -0.7017449,0.132614 -0.2265475,0.132613 -0.2265475,0.364686 0,0.165766 0.1215621,0.265226 0.1215621,0.09946 0.3646863,0.09946 z m 0.2320731,-2.574906 q 0.6630659,0 0.9835478,0.270752 0.3260075,0.265226 0.3260075,0.784628 v 1.989198 H 8.748321 v -0.353635 q -0.1878687,0.209971 -0.4365184,0.320482 -0.2431242,0.104985 -0.5746572,0.104985 -0.491774,0 -0.7625259,-0.237599 -0.270752,-0.243124 -0.270752,-0.635438 0,-0.469672 0.4033652,-0.723847 0.4033651,-0.254175 1.2266721,-0.254175 H 8.748321 v -0.243124 q 0,-0.24865 -0.1547154,-0.375738 -0.1491898,-0.127087 -0.4696717,-0.127087 -0.3260075,0 -0.491774,0.132613 Q 7.471919,19.375708 7.471919,19.591205 H 6.7922763 q 0,-0.419942 0.3370586,-0.707271 0.3425841,-0.287328 0.994599,-0.287328 z"
         style="font-family:'AR UDJingXiHeiE1G30 EB';-inkscape-font-specification:'AR UDJingXiHeiE1G30 EB';fill:#ffffff"
         id="path20721" />
      <path
         d="m 10.848022,19.674088 v 1.967096 h -0.685169 v -2.972746 h 0.685169 v 0.337059 q 0.138138,-0.171292 0.375737,-0.287329 0.243124,-0.121562 0.541504,-0.121562 0.475197,0 0.734898,0.265226 0.265226,0.265227 0.265226,0.74595 v 2.033402 H 12.085745 V 19.69619 q 0,-0.265226 -0.127088,-0.40889 -0.127087,-0.14919 -0.375737,-0.14919 -0.24865,0 -0.453095,0.160241 -0.204446,0.154715 -0.281803,0.375737 z"
         style="font-family:'AR UDJingXiHeiE1G30 EB';-inkscape-font-specification:'AR UDJingXiHeiE1G30 EB';fill:#ffffff"
         id="path20723" />
      <path
         d="m 14.467247,20.375833 q -0.569132,-0.09393 -0.834358,-0.303905 -0.259701,-0.215497 -0.259701,-0.59676 0,-0.375737 0.303905,-0.624387 0.303906,-0.254175 0.900665,-0.254175 0.624387,0 0.939344,0.276277 0.314956,0.276278 0.314956,0.685169 H 15.14689 q -0.0221,-0.215497 -0.165767,-0.326008 -0.143664,-0.110511 -0.403365,-0.110511 -0.24865,0 -0.381263,0.08841 -0.127088,0.08288 -0.127088,0.24865 0,0.187868 0.193395,0.276277 0.193394,0.08841 0.679642,0.171292 0.563606,0.09393 0.784628,0.309431 0.226548,0.209971 0.226548,0.591234 0,0.414416 -0.337059,0.663066 -0.337058,0.243124 -0.944869,0.243124 -0.712796,0 -1.038803,-0.287329 -0.320482,-0.292854 -0.326007,-0.712795 h 0.685168 q 0.01105,0.221022 0.176817,0.348109 0.171292,0.127088 0.4973,0.127088 0.270752,0 0.430993,-0.08841 0.160241,-0.08841 0.160241,-0.270752 0,-0.187869 -0.160241,-0.276277 -0.160241,-0.09394 -0.629913,-0.176818 z"
         style="font-family:'AR UDJingXiHeiE1G30 EB';-inkscape-font-specification:'AR UDJingXiHeiE1G30 EB';fill:#ffffff"
         id="path20725" />
      <path
         d="m 17.395784,19.18784 v 2.453344 H 16.710616 V 19.18784 h -0.497299 v -0.519402 h 0.497299 v -0.453095 q 0,-0.342584 0.226548,-0.552555 0.226547,-0.215496 0.60781,-0.215496 h 0.59676 v 0.524927 h -0.408891 q -0.165767,0 -0.254175,0.08841 -0.08288,0.08288 -0.08288,0.243124 v 0.364686 h 0.674117 v 0.519402 z"
         style="font-family:'AR UDJingXiHeiE1G30 EB';-inkscape-font-specification:'AR UDJingXiHeiE1G30 EB';fill:#ffffff"
         id="path20727" />
      <path
         d="m 19.749659,18.596606 q 0.64649,0 1.022227,0.425467 0.381263,0.419942 0.375737,1.315081 h -2.116285 q 0.0055,0.403365 0.19892,0.629913 0.193394,0.221022 0.580182,0.221022 0.254176,0 0.425468,-0.09946 0.176817,-0.104986 0.226547,-0.281803 h 0.657541 q -0.06631,0.381263 -0.403366,0.646489 -0.337058,0.259701 -0.90619,0.259701 -0.718321,0 -1.099584,-0.403365 -0.375738,-0.403365 -0.375738,-1.143789 -0.0055,-0.701745 0.364687,-1.132738 0.375737,-0.436518 1.049854,-0.436518 z m 0,0.524927 q -0.292854,0 -0.491774,0.19892 -0.19892,0.19892 -0.215496,0.55808 h 1.392438 q -0.0055,-0.342584 -0.187868,-0.547029 -0.182343,-0.209971 -0.4973,-0.209971 z"
         style="font-family:'AR UDJingXiHeiE1G30 EB';-inkscape-font-specification:'AR UDJingXiHeiE1G30 EB';fill:#ffffff"
         id="path20729" />
      <path
         d="m 22.390861,19.790125 v 1.851059 h -0.679643 v -2.972746 h 0.679643 v 0.458621 q 0.193394,-0.270752 0.436519,-0.39784 0.248649,-0.132613 0.541503,-0.132613 v 0.635438 q -0.331533,0 -0.591233,0.160241 -0.259701,0.154715 -0.386789,0.39784 z"
         style="font-family:'AR UDJingXiHeiE1G30 EB';-inkscape-font-specification:'AR UDJingXiHeiE1G30 EB';fill:#ffffff"
         id="path20731" />
      <path
         d="m 26.253211,21.171512 q 0.259701,0 0.475197,-0.09393 0.215497,-0.09393 0.381263,-0.303905 v -0.464147 h -0.414416 q -0.475197,0 -0.701745,0.132614 -0.226548,0.132613 -0.226548,0.364686 0,0.165766 0.121563,0.265226 0.121562,0.09946 0.364686,0.09946 z m 0.232073,-2.574906 q 0.663066,0 0.983548,0.270752 0.326007,0.265226 0.326007,0.784628 v 1.989198 h -0.685168 v -0.353635 q -0.187869,0.209971 -0.436518,0.320482 -0.243125,0.104985 -0.574658,0.104985 -0.491774,0 -0.762525,-0.237599 -0.270752,-0.243124 -0.270752,-0.635438 0,-0.469672 0.403365,-0.723847 0.403365,-0.254175 1.226672,-0.254175 h 0.414416 v -0.243124 q 0,-0.24865 -0.154715,-0.375738 -0.14919,-0.127087 -0.469672,-0.127087 -0.326008,0 -0.491774,0.132613 -0.160241,0.127087 -0.160241,0.342584 h -0.679643 q 0,-0.419942 0.337059,-0.707271 0.342584,-0.287328 0.994599,-0.287328 z"
         style="font-family:'AR UDJingXiHeiE1G30 EB';-inkscape-font-specification:'AR UDJingXiHeiE1G30 EB';fill:#ffffff"
         id="path20733" />
      <path
         d="m 29.209371,19.674088 v 1.967096 h -0.685168 v -2.972746 h 0.685168 v 0.337059 q 0.138139,-0.171292 0.375737,-0.287329 0.243124,-0.121562 0.541504,-0.121562 0.475197,0 0.734898,0.265226 0.265227,0.265227 0.265227,0.74595 v 2.033402 H 30.447094 V 19.69619 q 0,-0.265226 -0.127088,-0.40889 -0.127087,-0.14919 -0.375737,-0.14919 -0.24865,0 -0.453095,0.160241 -0.204446,0.154715 -0.281803,0.375737 z"
         style="font-family:'AR UDJingXiHeiE1G30 EB';-inkscape-font-specification:'AR UDJingXiHeiE1G30 EB';fill:#ffffff"
         id="path20735" />
      <path
         d="m 33.91713,20.375833 v -0.44757 q -0.01105,-0.348109 -0.226547,-0.574657 -0.215497,-0.226547 -0.535978,-0.226547 -0.359161,0 -0.552555,0.265226 -0.187869,0.259701 -0.187869,0.773577 0,0.464146 0.187869,0.740424 0.187868,0.276277 0.552555,0.276277 0.331533,0 0.541503,-0.226547 0.215497,-0.226548 0.221022,-0.580183 z m 0,0.90619 q -0.176817,0.215497 -0.397839,0.326008 -0.215497,0.104985 -0.475197,0.104985 -0.624388,0 -0.983548,-0.419942 -0.353635,-0.419942 -0.353635,-1.132737 0,-0.718322 0.342584,-1.138264 0.348109,-0.419942 0.95592,-0.425467 0.281803,0 0.50835,0.104985 0.232073,0.104986 0.403365,0.314957 v -1.569256 h 0.685169 v 4.193892 H 33.91713 Z"
         style="font-family:'AR UDJingXiHeiE1G30 EB';-inkscape-font-specification:'AR UDJingXiHeiE1G30 EB';fill:#ffffff"
         id="path20737" />
      <path
         d="m 37.724227,18.193241 h -1.243248 v -0.54703 h 3.182716 v 0.54703 h -1.237723 v 3.447943 h -0.701745 z"
         style="font-family:'AR UDJingXiHeiE1G30 EB';-inkscape-font-specification:'AR UDJingXiHeiE1G30 EB';fill:#ffffff"
         id="path20739" />
      <path
         d="m 41.415297,18.596606 q 0.64649,0 1.022227,0.425467 0.381263,0.419942 0.375737,1.315081 h -2.116285 q 0.0055,0.403365 0.198919,0.629913 0.193395,0.221022 0.580183,0.221022 0.254176,0 0.425468,-0.09946 0.176817,-0.104986 0.226547,-0.281803 h 0.657541 q -0.06631,0.381263 -0.403366,0.646489 -0.337058,0.259701 -0.90619,0.259701 -0.718321,0 -1.099584,-0.403365 -0.375738,-0.403365 -0.375738,-1.143789 -0.0055,-0.701745 0.364687,-1.132738 0.375737,-0.436518 1.049854,-0.436518 z m 0,0.524927 q -0.292854,0 -0.491774,0.19892 -0.19892,0.19892 -0.215496,0.55808 h 1.392438 q -0.0055,-0.342584 -0.187868,-0.547029 -0.182343,-0.209971 -0.4973,-0.209971 z"
         style="font-family:'AR UDJingXiHeiE1G30 EB';-inkscape-font-specification:'AR UDJingXiHeiE1G30 EB';fill:#ffffff"
         id="path20741" />
      <path
         d="m 44.056497,19.790125 v 1.851059 h -0.679643 v -2.972746 h 0.679643 v 0.458621 q 0.193394,-0.270752 0.436519,-0.39784 0.248649,-0.132613 0.541503,-0.132613 v 0.635438 q -0.331533,0 -0.591233,0.160241 -0.259701,0.154715 -0.386789,0.39784 z"
         style="font-family:'AR UDJingXiHeiE1G30 EB';-inkscape-font-specification:'AR UDJingXiHeiE1G30 EB';fill:#ffffff"
         id="path20743" />
      <path
         d="m 46.111997,19.690665 v 1.950519 h -0.679643 v -2.972746 h 0.679643 v 0.392314 q 0.143664,-0.19892 0.370212,-0.331533 0.226547,-0.132613 0.513876,-0.132613 0.29838,0 0.4973,0.132613 0.198919,0.127088 0.287328,0.359161 0.176818,-0.226548 0.408891,-0.359161 0.237598,-0.132613 0.524927,-0.132613 0.442044,0 0.685168,0.270752 0.24865,0.270752 0.24865,0.773577 v 2.000249 h -0.679643 v -1.972621 q 0,-0.24865 -0.116036,-0.386789 -0.110511,-0.138139 -0.320482,-0.138139 -0.215497,0 -0.39784,0.154716 -0.176817,0.14919 -0.248649,0.381263 v 1.96157 H 47.20053 v -1.967096 q 0,-0.254175 -0.110511,-0.392314 -0.104985,-0.138139 -0.320481,-0.138139 -0.221022,0 -0.408891,0.165767 -0.182343,0.165766 -0.24865,0.381263 z"
         style="font-family:'AR UDJingXiHeiE1G30 EB';-inkscape-font-specification:'AR UDJingXiHeiE1G30 EB';fill:#ffffff"
         id="path20745" />
      <path
         d="m 51.090512,17.546751 v 0.657541 h -0.740423 v -0.657541 z m -0.03315,1.121687 v 2.972746 h -0.685168 v -2.972746 z"
         style="font-family:'AR UDJingXiHeiE1G30 EB';-inkscape-font-specification:'AR UDJingXiHeiE1G30 EB';fill:#ffffff"
         id="path20747" />
      <path
         d="m 52.516101,19.674088 v 1.967096 h -0.685168 v -2.972746 h 0.685168 v 0.337059 q 0.138139,-0.171292 0.375737,-0.287329 0.243125,-0.121562 0.541504,-0.121562 0.475198,0 0.734898,0.265226 0.265227,0.265227 0.265227,0.74595 v 2.033402 H 53.753824 V 19.69619 q 0,-0.265226 -0.127087,-0.40889 -0.127088,-0.14919 -0.375738,-0.14919 -0.24865,0 -0.453095,0.160241 -0.204445,0.154715 -0.281803,0.375737 z"
         style="font-family:'AR UDJingXiHeiE1G30 EB';-inkscape-font-specification:'AR UDJingXiHeiE1G30 EB';fill:#ffffff"
         id="path20749" />
      <path
         d="m 56.174004,21.171512 q 0.259701,0 0.475198,-0.09393 0.215496,-0.09393 0.381263,-0.303905 v -0.464147 h -0.414417 q -0.475197,0 -0.701744,0.132614 -0.226548,0.132613 -0.226548,0.364686 0,0.165766 0.121562,0.265226 0.121562,0.09946 0.364686,0.09946 z m 0.232073,-2.574906 q 0.663066,0 0.983548,0.270752 0.326008,0.265226 0.326008,0.784628 v 1.989198 h -0.685168 v -0.353635 q -0.187869,0.209971 -0.436519,0.320482 -0.243124,0.104985 -0.574657,0.104985 -0.491774,0 -0.762526,-0.237599 -0.270752,-0.243124 -0.270752,-0.635438 0,-0.469672 0.403365,-0.723847 0.403365,-0.254175 1.226672,-0.254175 h 0.414417 v -0.243124 q 0,-0.24865 -0.154716,-0.375738 -0.14919,-0.127087 -0.469672,-0.127087 -0.326007,0 -0.491773,0.132613 -0.160241,0.127087 -0.160241,0.342584 H 55.07442 q 0,-0.419942 0.337058,-0.707271 0.342585,-0.287328 0.994599,-0.287328 z"
         style="font-family:'AR UDJingXiHeiE1G30 EB';-inkscape-font-specification:'AR UDJingXiHeiE1G30 EB';fill:#ffffff"
         id="path20751" />
      <path
         d="m 59.119113,17.447292 v 4.193892 h -0.685168 v -4.193892 z"
         style="font-family:'AR UDJingXiHeiE1G30 EB';-inkscape-font-specification:'AR UDJingXiHeiE1G30 EB';fill:#ffffff"
         id="path20753" />
      <path
         d="m 63.528488,20.027723 -0.629913,-1.707395 -0.640963,1.707395 z m -1.475322,0.54703 -0.397839,1.066431 h -0.712796 l 1.607935,-3.994973 h 0.718321 l 1.596884,3.994973 h -0.729372 l -0.403366,-1.066431 z"
         style="font-family:'AR UDJingXiHeiE1G30 EB';-inkscape-font-specification:'AR UDJingXiHeiE1G30 EB';fill:#ffffff"
         id="path20755" />
      <path
         d="m 65.937625,19.674088 v 1.967096 h -0.685168 v -2.972746 h 0.685168 v 0.337059 q 0.138139,-0.171292 0.375737,-0.287329 0.243125,-0.121562 0.541504,-0.121562 0.475198,0 0.734899,0.265226 0.265226,0.265227 0.265226,0.74595 v 2.033402 H 67.175348 V 19.69619 q 0,-0.265226 -0.127087,-0.40889 -0.127088,-0.14919 -0.375738,-0.14919 -0.24865,0 -0.453095,0.160241 -0.204445,0.154715 -0.281803,0.375737 z"
         style="font-family:'AR UDJingXiHeiE1G30 EB';-inkscape-font-specification:'AR UDJingXiHeiE1G30 EB';fill:#ffffff"
         id="path20757" />
      <path
         d="m 69.275047,19.674088 v 1.967096 h -0.685169 v -2.972746 h 0.685169 v 0.337059 q 0.138138,-0.171292 0.375737,-0.287329 0.243124,-0.121562 0.541504,-0.121562 0.475197,0 0.734898,0.265226 0.265226,0.265227 0.265226,0.74595 v 2.033402 H 70.51277 V 19.69619 q 0,-0.265226 -0.127088,-0.40889 -0.127088,-0.14919 -0.375737,-0.14919 -0.24865,0 -0.453095,0.160241 -0.204446,0.154715 -0.281803,0.375737 z"
         style="font-family:'AR UDJingXiHeiE1G30 EB';-inkscape-font-specification:'AR UDJingXiHeiE1G30 EB';fill:#ffffff"
         id="path20759" />
      <path
         d="m 73.303165,18.596606 q 0.734899,0 1.110636,0.436518 0.381263,0.430993 0.381263,1.110636 0,0.679643 -0.381263,1.127212 -0.375737,0.442044 -1.110636,0.442044 -0.723847,0 -1.116161,-0.442044 -0.386788,-0.447569 -0.386788,-1.127212 0,-0.674117 0.381263,-1.110636 0.386788,-0.436518 1.121686,-0.436518 z m 0.790154,1.547154 q 0,-0.502825 -0.221022,-0.762526 -0.221022,-0.259701 -0.569132,-0.259701 -0.364686,0 -0.585708,0.254175 -0.215496,0.254176 -0.215496,0.768052 0,0.519402 0.221022,0.784628 0.221022,0.259701 0.580182,0.259701 0.34811,0 0.569132,-0.259701 0.221022,-0.259701 0.221022,-0.784628 z"
         style="font-family:'AR UDJingXiHeiE1G30 EB';-inkscape-font-specification:'AR UDJingXiHeiE1G30 EB';fill:#ffffff"
         id="path20761" />
      <path
         d="m 77.331286,20.641059 v -1.972621 h 0.679642 v 2.972746 h -0.679642 v -0.337059 q -0.14919,0.176818 -0.392314,0.292854 -0.237599,0.110511 -0.54703,0.110511 -0.469672,0 -0.729372,-0.2597 -0.254176,-0.265227 -0.254176,-0.74595 v -2.033402 h 0.685169 v 1.944994 q 0,0.276277 0.127087,0.414416 0.127088,0.138139 0.381263,0.138139 0.243124,0 0.44757,-0.154716 0.204445,-0.154715 0.281803,-0.370212 z"
         style="font-family:'AR UDJingXiHeiE1G30 EB';-inkscape-font-specification:'AR UDJingXiHeiE1G30 EB';fill:#ffffff"
         id="path20763" />
      <path
         d="m 79.442039,19.674088 v 1.967096 h -0.685168 v -2.972746 h 0.685168 v 0.337059 q 0.138138,-0.171292 0.375737,-0.287329 0.243124,-0.121562 0.541504,-0.121562 0.475197,0 0.734898,0.265226 0.265227,0.265227 0.265227,0.74595 v 2.033402 H 80.679762 V 19.69619 q 0,-0.265226 -0.127088,-0.40889 -0.127087,-0.14919 -0.375737,-0.14919 -0.24865,0 -0.453095,0.160241 -0.204446,0.154715 -0.281803,0.375737 z"
         style="font-family:'AR UDJingXiHeiE1G30 EB';-inkscape-font-specification:'AR UDJingXiHeiE1G30 EB';fill:#ffffff"
         id="path20765" />
      <path
         d="m 83.448048,21.713016 q -0.740424,0 -1.110636,-0.425467 -0.364686,-0.430993 -0.364686,-1.165891 0,-0.674117 0.370212,-1.099585 0.375737,-0.425467 1.077482,-0.425467 0.596759,0 0.944869,0.292854 0.353635,0.292854 0.392314,0.784628 h -0.685168 q -0.01105,-0.243124 -0.182343,-0.397839 -0.165767,-0.154716 -0.480723,-0.154716 -0.342584,0 -0.541504,0.265227 -0.193394,0.2597 -0.193394,0.734898 0,0.547029 0.204445,0.80673 0.209971,0.259701 0.558081,0.259701 0.309431,0 0.475197,-0.160241 0.165767,-0.160241 0.171292,-0.430993 h 0.685168 q -0.0055,0.508351 -0.353635,0.812256 -0.342584,0.303905 -0.966971,0.303905 z"
         style="font-family:'AR UDJingXiHeiE1G30 EB';-inkscape-font-specification:'AR UDJingXiHeiE1G30 EB';fill:#ffffff"
         id="path20767" />
      <path
         d="m 86.658393,18.596606 q 0.646489,0 1.022226,0.425467 0.381263,0.419942 0.375738,1.315081 h -2.116286 q 0.0055,0.403365 0.19892,0.629913 0.193394,0.221022 0.580183,0.221022 0.254175,0 0.425467,-0.09946 0.176818,-0.104986 0.226548,-0.281803 h 0.65754 q -0.06631,0.381263 -0.403365,0.646489 -0.337059,0.259701 -0.90619,0.259701 -0.718322,0 -1.099585,-0.403365 -0.375737,-0.403365 -0.375737,-1.143789 -0.0055,-0.701745 0.364686,-1.132738 0.375737,-0.436518 1.049855,-0.436518 z m 0,0.524927 q -0.292855,0 -0.491774,0.19892 -0.19892,0.19892 -0.215497,0.55808 h 1.392439 q -0.0055,-0.342584 -0.187869,-0.547029 -0.182343,-0.209971 -0.497299,-0.209971 z"
         style="font-family:'AR UDJingXiHeiE1G30 EB';-inkscape-font-specification:'AR UDJingXiHeiE1G30 EB';fill:#ffffff"
         id="path20769" />
      <path
         d="m 89.310647,19.690665 v 1.950519 h -0.679642 v -2.972746 h 0.679642 v 0.392314 q 0.143665,-0.19892 0.370212,-0.331533 0.226548,-0.132613 0.513876,-0.132613 0.29838,0 0.4973,0.132613 0.19892,0.127088 0.287329,0.359161 0.176817,-0.226548 0.40889,-0.359161 0.237599,-0.132613 0.524927,-0.132613 0.442044,0 0.685169,0.270752 0.248649,0.270752 0.248649,0.773577 v 2.000249 h -0.679642 v -1.972621 q 0,-0.24865 -0.116037,-0.386789 -0.110511,-0.138139 -0.320482,-0.138139 -0.215496,0 -0.397839,0.154716 -0.176818,0.14919 -0.24865,0.381263 v 1.96157 h -0.685168 v -1.967096 q 0,-0.254175 -0.110511,-0.392314 -0.104986,-0.138139 -0.320482,-0.138139 -0.221022,0 -0.408891,0.165767 -0.182343,0.165766 -0.24865,0.381263 z"
         style="font-family:'AR UDJingXiHeiE1G30 EB';-inkscape-font-specification:'AR UDJingXiHeiE1G30 EB';fill:#ffffff"
         id="path20771" />
      <path
         d="m 94.880393,18.596606 q 0.646489,0 1.022226,0.425467 0.381263,0.419942 0.375738,1.315081 h -2.116286 q 0.0055,0.403365 0.19892,0.629913 0.193394,0.221022 0.580183,0.221022 0.254175,0 0.425467,-0.09946 0.176818,-0.104986 0.226548,-0.281803 h 0.65754 q -0.06631,0.381263 -0.403365,0.646489 -0.337059,0.259701 -0.90619,0.259701 -0.718322,0 -1.099585,-0.403365 -0.375737,-0.403365 -0.375737,-1.143789 -0.0055,-0.701745 0.364686,-1.132738 0.375738,-0.436518 1.049855,-0.436518 z m 0,0.524927 q -0.292854,0 -0.491774,0.19892 -0.19892,0.19892 -0.215497,0.55808 h 1.392439 q -0.0055,-0.342584 -0.187869,-0.547029 -0.182343,-0.209971 -0.497299,-0.209971 z"
         style="font-family:'AR UDJingXiHeiE1G30 EB';-inkscape-font-specification:'AR UDJingXiHeiE1G30 EB';fill:#ffffff"
         id="path20773" />
      <path
         d="m 97.571326,19.674088 v 1.967096 h -0.685168 v -2.972746 h 0.685168 v 0.337059 q 0.138139,-0.171292 0.375738,-0.287329 0.243124,-0.121562 0.541504,-0.121562 0.475197,0 0.734898,0.265226 0.265226,0.265227 0.265226,0.74595 v 2.033402 H 98.80905 V 19.69619 q 0,-0.265226 -0.127088,-0.40889 -0.127088,-0.14919 -0.375737,-0.14919 -0.24865,0 -0.453096,0.160241 -0.204445,0.154715 -0.281803,0.375737 z"
         style="font-family:'AR UDJingXiHeiE1G30 EB';-inkscape-font-specification:'AR UDJingXiHeiE1G30 EB';fill:#ffffff"
         id="path20775" />
      <path
         d="m 101.08556,18.668438 h 0.57466 v 0.519402 h -0.57466 v 1.685292 q 0,0.121563 0.0608,0.187869 0.0663,0.06078 0.19892,0.06078 h 0.31496 v 0.519402 h -0.55256 q -0.34258,0 -0.52492,-0.160241 -0.18235,-0.165767 -0.18235,-0.508351 V 19.18784 h -0.502822 v -0.519402 h 0.502822 V 17.93354 h 0.68517 z"
         style="font-family:'AR UDJingXiHeiE1G30 EB';-inkscape-font-specification:'AR UDJingXiHeiE1G30 EB';fill:#ffffff"
         id="path20777" />
      <path
         d="m 103.14659,20.375833 q -0.56914,-0.09393 -0.83436,-0.303905 -0.2597,-0.215497 -0.2597,-0.59676 0,-0.375737 0.3039,-0.624387 0.30391,-0.254175 0.90067,-0.254175 0.62438,0 0.93934,0.276277 0.31496,0.276278 0.31496,0.685169 h -0.68517 q -0.0221,-0.215497 -0.16577,-0.326008 -0.14366,-0.110511 -0.40336,-0.110511 -0.24865,0 -0.38127,0.08841 -0.12708,0.08288 -0.12708,0.24865 0,0.187868 0.19339,0.276277 0.1934,0.08841 0.67964,0.171292 0.56361,0.09393 0.78463,0.309431 0.22655,0.209971 0.22655,0.591234 0,0.414416 -0.33706,0.663066 -0.33706,0.243124 -0.94487,0.243124 -0.71279,0 -1.0388,-0.287329 -0.32048,-0.292854 -0.32601,-0.712795 h 0.68517 q 0.011,0.221022 0.17682,0.348109 0.17129,0.127088 0.4973,0.127088 0.27075,0 0.43099,-0.08841 0.16024,-0.08841 0.16024,-0.270752 0,-0.187869 -0.16024,-0.276277 -0.16024,-0.09394 -0.62991,-0.176818 z"
         style="font-family:'AR UDJingXiHeiE1G30 EB';-inkscape-font-specification:'AR UDJingXiHeiE1G30 EB';fill:#ffffff"
         id="path20779" />
    </g>
  </g>
  <style
     type="text/css"
     id="style824">
	.st0{fill:#38B035;}
	.st1{fill:#007AB0;}
</style>
</svg>
