<?xml version="1.0" encoding="UTF-8" standalone="no"?>
<!-- Created with Inkscape (http://www.inkscape.org/) -->

<svg
   width="1000"
   height="250"
   viewBox="0 0 264.58332 66.145835"
   version="1.1"
   id="svg5"
   inkscape:version="1.1 (c68e22c387, 2021-05-23)"
   sodipodi:docname="Y_logo.svg"
   xmlns:inkscape="http://www.inkscape.org/namespaces/inkscape"
   xmlns:sodipodi="http://sodipodi.sourceforge.net/DTD/sodipodi-0.dtd"
   xmlns="http://www.w3.org/2000/svg"
   xmlns:svg="http://www.w3.org/2000/svg">
  <sodipodi:namedview
     id="namedview7"
     pagecolor="#505050"
     bordercolor="#ffffff"
     borderopacity="1"
     inkscape:pageshadow="0"
     inkscape:pageopacity="0"
     inkscape:pagecheckerboard="1"
     inkscape:document-units="mm"
     showgrid="false"
     units="px"
     inkscape:zoom="0.96253026"
     inkscape:cx="451.93384"
     inkscape:cy="370.89743"
     inkscape:window-width="1920"
     inkscape:window-height="1009"
     inkscape:window-x="1912"
     inkscape:window-y="-8"
     inkscape:window-maximized="1"
     inkscape:current-layer="layer1" />
  <defs
     id="defs2">
    <rect
       x="229.20559"
       y="161.61933"
       width="728.57797"
       height="176.45595"
       id="rect12841" />
    <rect
       x="224.06316"
       y="51.424331"
       width="603.13395"
       height="130.76473"
       id="rect1827" />
    <clipPath
       id="clip_1791">
      <path
         transform="matrix(1,0,0,-1,0,595.276)"
         d="M 0,-0.001 H 841.89 V 595.275 H 0 Z"
         id="path17" />
    </clipPath>
    <clipPath
       id="clip_1807">
      <path
         transform="matrix(1,0,0,-1,0,595.276)"
         d="M 0,-0.001 H 841.89 V 595.275 H 0 Z"
         id="path65" />
    </clipPath>
    <clipPath
       id="clip_1791-1">
      <path
         transform="matrix(1,0,0,-1,0,595.276)"
         d="M 0,-0.001 H 841.89 V 595.275 H 0 Z"
         id="path17-1" />
    </clipPath>
    <clipPath
       id="clip_1815">
      <path
         transform="matrix(1,0,0,-1,0,595.276)"
         d="M 0,-0.001 H 841.89 V 595.275 H 0 Z"
         id="path89" />
    </clipPath>
    <clipPath
       id="clip_1809">
      <path
         transform="matrix(1,0,0,-1,0,595.276)"
         d="M 0,-0.001 H 841.89 V 595.275 H 0 Z"
         id="path71" />
    </clipPath>
    <clipPath
       id="clip_1793">
      <path
         transform="matrix(1,0,0,-1,0,595.276)"
         d="M 0,-0.001 H 841.89 V 595.275 H 0 Z"
         id="path23" />
    </clipPath>
    <clipPath
       id="clip_1799">
      <path
         transform="matrix(1,0,0,-1,0,595.276)"
         d="M 0,-0.001 H 841.89 V 595.275 H 0 Z"
         id="path41" />
    </clipPath>
    <clipPath
       id="clip_1817">
      <path
         transform="matrix(1,0,0,-1,0,595.276)"
         d="M 0,-0.001 H 841.89 V 595.275 H 0 Z"
         id="path95" />
    </clipPath>
    <clipPath
       id="clip_1803">
      <path
         transform="matrix(1,0,0,-1,0,595.276)"
         d="M 0,-0.001 H 841.89 V 595.275 H 0 Z"
         id="path53" />
    </clipPath>
    <clipPath
       id="clip_1813">
      <path
         transform="matrix(1,0,0,-1,0,595.276)"
         d="M 0,-0.001 H 841.89 V 595.275 H 0 Z"
         id="path83" />
    </clipPath>
    <clipPath
       id="clip_1805">
      <path
         transform="matrix(1,0,0,-1,0,595.276)"
         d="M 0,-0.001 H 841.89 V 595.275 H 0 Z"
         id="path59" />
    </clipPath>
    <clipPath
       id="clip_1795">
      <path
         transform="matrix(1,0,0,-1,0,595.276)"
         d="M 0,-0.001 H 841.89 V 595.275 H 0 Z"
         id="path29" />
    </clipPath>
    <clipPath
       id="clip_1801">
      <path
         transform="matrix(1,0,0,-1,0,595.276)"
         d="M 0,-0.001 H 841.89 V 595.275 H 0 Z"
         id="path47" />
    </clipPath>
    <clipPath
       id="clip_1819">
      <path
         transform="matrix(1,0,0,-1,0,595.276)"
         d="M 0,-0.001 H 841.89 V 595.275 H 0 Z"
         id="path101" />
    </clipPath>
    <clipPath
       id="clip_1827">
      <path
         transform="matrix(1,0,0,-1,0,595.276)"
         d="M 0,-0.001 H 841.89 V 595.275 H 0 Z"
         id="path125" />
    </clipPath>
    <clipPath
       id="clip_1821">
      <path
         transform="matrix(1,0,0,-1,0,595.276)"
         d="M 0,-0.001 H 841.89 V 595.275 H 0 Z"
         id="path107" />
    </clipPath>
    <clipPath
       id="clip_1811">
      <path
         transform="matrix(1,0,0,-1,0,595.276)"
         d="M 0,-0.001 H 841.89 V 595.275 H 0 Z"
         id="path77" />
    </clipPath>
    <clipPath
       id="clip_1829">
      <path
         transform="matrix(1,0,0,-1,0,595.276)"
         d="M 0,-0.001 H 841.89 V 595.275 H 0 Z"
         id="path131" />
    </clipPath>
    <clipPath
       id="clip_1825">
      <path
         transform="matrix(1,0,0,-1,0,595.276)"
         d="M 0,-0.001 H 841.89 V 595.275 H 0 Z"
         id="path119" />
    </clipPath>
    <clipPath
       id="clip_2156">
      <path
         transform="matrix(1,0,0,-1,0,595.276)"
         d="M 0,-0.001 H 841.89 V 595.275 H 0 Z"
         id="path397" />
    </clipPath>
    <clipPath
       id="clip_2087">
      <path
         transform="matrix(1,0,0,-1,0,595.276)"
         d="M 0,-0.001 H 841.89 V 595.275 H 0 Z"
         id="path70" />
    </clipPath>
    <clipPath
       id="clip_2160">
      <path
         transform="matrix(1,0,0,-1,0,595.276)"
         d="M 0,-0.001 H 841.89 V 595.275 H 0 Z"
         id="path415" />
    </clipPath>
    <clipPath
       id="clip_2125">
      <path
         transform="matrix(1,0,0,-1,0,595.276)"
         d="M 0,-0.001 H 841.89 V 595.275 H 0 Z"
         id="path252" />
    </clipPath>
    <clipPath
       id="clip_2129">
      <path
         transform="matrix(1,0,0,-1,0,595.276)"
         d="M 0,-0.001 H 841.89 V 595.275 H 0 Z"
         id="path271" />
    </clipPath>
    <clipPath
       id="clip_2131">
      <path
         transform="matrix(1,0,0,-1,0,595.276)"
         d="M 0,-0.001 H 841.89 V 595.275 H 0 Z"
         id="path278" />
    </clipPath>
    <clipPath
       id="clip_2127">
      <path
         transform="matrix(1,0,0,-1,0,595.276)"
         d="M 0,-0.001 H 841.89 V 595.275 H 0 Z"
         id="path264" />
    </clipPath>
    <clipPath
       id="clip_2135">
      <path
         transform="matrix(1,0,0,-1,0,595.276)"
         d="M 0,-0.001 H 841.89 V 595.275 H 0 Z"
         id="path294" />
    </clipPath>
    <clipPath
       id="clip_2133">
      <path
         transform="matrix(1,0,0,-1,0,595.276)"
         d="M 0,-0.001 H 841.89 V 595.275 H 0 Z"
         id="path286" />
    </clipPath>
    <clipPath
       id="clip_2137">
      <path
         transform="matrix(1,0,0,-1,0,595.276)"
         d="M 0,-0.001 H 841.89 V 595.275 H 0 Z"
         id="path303" />
    </clipPath>
    <clipPath
       id="clip_2146">
      <path
         transform="matrix(1,0,0,-1,0,595.276)"
         d="M 0,-0.001 H 841.89 V 595.275 H 0 Z"
         id="path345" />
    </clipPath>
    <clipPath
       id="clip_2141">
      <path
         transform="matrix(1,0,0,-1,0,595.276)"
         d="M 0,-0.001 H 841.89 V 595.275 H 0 Z"
         id="path322" />
    </clipPath>
    <clipPath
       id="clip_2143">
      <path
         transform="matrix(1,0,0,-1,0,595.276)"
         d="M 0,-0.001 H 841.89 V 595.275 H 0 Z"
         id="path330" />
    </clipPath>
    <clipPath
       id="clip_2123">
      <path
         transform="matrix(1,0,0,-1,0,595.276)"
         d="M 0,-0.001 H 841.89 V 595.275 H 0 Z"
         id="path241" />
    </clipPath>
    <clipPath
       id="clip_2208">
      <path
         transform="matrix(1,0,0,-1,0,595.276)"
         d="m -69.189,-0.001 h 841.89 v 595.276 h -841.89 z"
         id="path200" />
    </clipPath>
    <clipPath
       id="clip_2212">
      <path
         transform="matrix(1,0,0,-1,0,595.276)"
         d="m -69.189,-0.001 h 841.89 v 595.276 h -841.89 z"
         id="path214" />
    </clipPath>
    <clipPath
       id="clip_2206">
      <path
         transform="matrix(1,0,0,-1,0,595.276)"
         d="m -69.189,-0.001 h 841.89 v 595.276 h -841.89 z"
         id="path194" />
    </clipPath>
    <clipPath
       id="clip_2198">
      <path
         transform="matrix(1,0,0,-1,0,595.276)"
         d="m -69.189,-0.001 h 841.89 v 595.276 h -841.89 z"
         id="path162" />
    </clipPath>
    <clipPath
       id="clip_2200">
      <path
         transform="matrix(1,0,0,-1,0,595.276)"
         d="m -69.189,-0.001 h 841.89 v 595.276 h -841.89 z"
         id="path171" />
    </clipPath>
    <clipPath
       id="clip_2202">
      <path
         transform="matrix(1,0,0,-1,0,595.276)"
         d="m -69.189,-0.001 h 841.89 v 595.276 h -841.89 z"
         id="path177" />
    </clipPath>
    <clipPath
       id="clip_2189">
      <path
         transform="matrix(1,0,0,-1,0,595.276)"
         d="m -69.189,-0.001 h 841.89 v 595.276 h -841.89 z"
         id="path112" />
    </clipPath>
    <clipPath
       id="clip_2191">
      <path
         transform="matrix(1,0,0,-1,0,595.276)"
         d="m -69.189,-0.001 h 841.89 v 595.276 h -841.89 z"
         id="path122" />
    </clipPath>
    <clipPath
       id="clip_2195">
      <path
         transform="matrix(1,0,0,-1,0,595.276)"
         d="m -69.189,-0.001 h 841.89 v 595.276 h -841.89 z"
         id="path143" />
    </clipPath>
    <clipPath
       id="clip_2195-0">
      <path
         transform="matrix(1,0,0,-1,0,595.276)"
         d="m -69.189,-0.001 h 841.89 v 595.276 h -841.89 z"
         id="path143-0" />
    </clipPath>
    <clipPath
       id="clip_2169">
      <path
         transform="matrix(1,0,0,-1,0,595.276)"
         d="m -69.189,-0.001 h 841.89 v 595.276 h -841.89 z"
         id="path21" />
    </clipPath>
    <clipPath
       id="clip_1791-0">
      <path
         transform="matrix(1,0,0,-1,0,595.276)"
         d="M 0,-0.001 H 841.89 V 595.275 H 0 Z"
         id="path17-0" />
    </clipPath>
    <clipPath
       id="clip_1807-5">
      <path
         transform="matrix(1,0,0,-1,0,595.276)"
         d="M 0,-0.001 H 841.89 V 595.275 H 0 Z"
         id="path65-3" />
    </clipPath>
    <clipPath
       id="clip_1791-1-8">
      <path
         transform="matrix(1,0,0,-1,0,595.276)"
         d="M 0,-0.001 H 841.89 V 595.275 H 0 Z"
         id="path17-1-6" />
    </clipPath>
    <clipPath
       id="clip_1815-8">
      <path
         transform="matrix(1,0,0,-1,0,595.276)"
         d="M 0,-0.001 H 841.89 V 595.275 H 0 Z"
         id="path89-6" />
    </clipPath>
    <clipPath
       id="clip_1809-6">
      <path
         transform="matrix(1,0,0,-1,0,595.276)"
         d="M 0,-0.001 H 841.89 V 595.275 H 0 Z"
         id="path71-5" />
    </clipPath>
    <clipPath
       id="clip_1793-7">
      <path
         transform="matrix(1,0,0,-1,0,595.276)"
         d="M 0,-0.001 H 841.89 V 595.275 H 0 Z"
         id="path23-6" />
    </clipPath>
    <clipPath
       id="clip_1799-5">
      <path
         transform="matrix(1,0,0,-1,0,595.276)"
         d="M 0,-0.001 H 841.89 V 595.275 H 0 Z"
         id="path41-3" />
    </clipPath>
    <clipPath
       id="clip_1817-6">
      <path
         transform="matrix(1,0,0,-1,0,595.276)"
         d="M 0,-0.001 H 841.89 V 595.275 H 0 Z"
         id="path95-8" />
    </clipPath>
    <clipPath
       id="clip_1803-1">
      <path
         transform="matrix(1,0,0,-1,0,595.276)"
         d="M 0,-0.001 H 841.89 V 595.275 H 0 Z"
         id="path53-4" />
    </clipPath>
    <clipPath
       id="clip_1813-3">
      <path
         transform="matrix(1,0,0,-1,0,595.276)"
         d="M 0,-0.001 H 841.89 V 595.275 H 0 Z"
         id="path83-5" />
    </clipPath>
    <clipPath
       id="clip_1805-8">
      <path
         transform="matrix(1,0,0,-1,0,595.276)"
         d="M 0,-0.001 H 841.89 V 595.275 H 0 Z"
         id="path59-0" />
    </clipPath>
    <clipPath
       id="clip_1795-9">
      <path
         transform="matrix(1,0,0,-1,0,595.276)"
         d="M 0,-0.001 H 841.89 V 595.275 H 0 Z"
         id="path29-1" />
    </clipPath>
    <clipPath
       id="clip_1801-6">
      <path
         transform="matrix(1,0,0,-1,0,595.276)"
         d="M 0,-0.001 H 841.89 V 595.275 H 0 Z"
         id="path47-2" />
    </clipPath>
    <clipPath
       id="clip_1819-9">
      <path
         transform="matrix(1,0,0,-1,0,595.276)"
         d="M 0,-0.001 H 841.89 V 595.275 H 0 Z"
         id="path101-6" />
    </clipPath>
    <clipPath
       id="clip_1827-4">
      <path
         transform="matrix(1,0,0,-1,0,595.276)"
         d="M 0,-0.001 H 841.89 V 595.275 H 0 Z"
         id="path125-5" />
    </clipPath>
    <clipPath
       id="clip_1821-6">
      <path
         transform="matrix(1,0,0,-1,0,595.276)"
         d="M 0,-0.001 H 841.89 V 595.275 H 0 Z"
         id="path107-8" />
    </clipPath>
    <clipPath
       id="clip_1811-1">
      <path
         transform="matrix(1,0,0,-1,0,595.276)"
         d="M 0,-0.001 H 841.89 V 595.275 H 0 Z"
         id="path77-3" />
    </clipPath>
    <clipPath
       id="clip_1829-1">
      <path
         transform="matrix(1,0,0,-1,0,595.276)"
         d="M 0,-0.001 H 841.89 V 595.275 H 0 Z"
         id="path131-8" />
    </clipPath>
    <clipPath
       id="clip_1825-5">
      <path
         transform="matrix(1,0,0,-1,0,595.276)"
         d="M 0,-0.001 H 841.89 V 595.275 H 0 Z"
         id="path119-2" />
    </clipPath>
    <clipPath
       id="clip_2156-4">
      <path
         transform="matrix(1,0,0,-1,0,595.276)"
         d="M 0,-0.001 H 841.89 V 595.275 H 0 Z"
         id="path397-3" />
    </clipPath>
    <clipPath
       id="clip_2087-1">
      <path
         transform="matrix(1,0,0,-1,0,595.276)"
         d="M 0,-0.001 H 841.89 V 595.275 H 0 Z"
         id="path70-2" />
    </clipPath>
    <clipPath
       id="clip_2160-0">
      <path
         transform="matrix(1,0,0,-1,0,595.276)"
         d="M 0,-0.001 H 841.89 V 595.275 H 0 Z"
         id="path415-2" />
    </clipPath>
    <clipPath
       id="clip_2125-3">
      <path
         transform="matrix(1,0,0,-1,0,595.276)"
         d="M 0,-0.001 H 841.89 V 595.275 H 0 Z"
         id="path252-2" />
    </clipPath>
    <clipPath
       id="clip_2129-7">
      <path
         transform="matrix(1,0,0,-1,0,595.276)"
         d="M 0,-0.001 H 841.89 V 595.275 H 0 Z"
         id="path271-3" />
    </clipPath>
    <clipPath
       id="clip_2131-8">
      <path
         transform="matrix(1,0,0,-1,0,595.276)"
         d="M 0,-0.001 H 841.89 V 595.275 H 0 Z"
         id="path278-2" />
    </clipPath>
    <clipPath
       id="clip_2127-5">
      <path
         transform="matrix(1,0,0,-1,0,595.276)"
         d="M 0,-0.001 H 841.89 V 595.275 H 0 Z"
         id="path264-7" />
    </clipPath>
    <clipPath
       id="clip_2135-0">
      <path
         transform="matrix(1,0,0,-1,0,595.276)"
         d="M 0,-0.001 H 841.89 V 595.275 H 0 Z"
         id="path294-9" />
    </clipPath>
    <clipPath
       id="clip_2133-9">
      <path
         transform="matrix(1,0,0,-1,0,595.276)"
         d="M 0,-0.001 H 841.89 V 595.275 H 0 Z"
         id="path286-9" />
    </clipPath>
    <clipPath
       id="clip_2137-9">
      <path
         transform="matrix(1,0,0,-1,0,595.276)"
         d="M 0,-0.001 H 841.89 V 595.275 H 0 Z"
         id="path303-1" />
    </clipPath>
    <clipPath
       id="clip_2146-0">
      <path
         transform="matrix(1,0,0,-1,0,595.276)"
         d="M 0,-0.001 H 841.89 V 595.275 H 0 Z"
         id="path345-2" />
    </clipPath>
    <clipPath
       id="clip_2141-7">
      <path
         transform="matrix(1,0,0,-1,0,595.276)"
         d="M 0,-0.001 H 841.89 V 595.275 H 0 Z"
         id="path322-0" />
    </clipPath>
    <clipPath
       id="clip_2143-2">
      <path
         transform="matrix(1,0,0,-1,0,595.276)"
         d="M 0,-0.001 H 841.89 V 595.275 H 0 Z"
         id="path330-1" />
    </clipPath>
    <clipPath
       id="clip_2123-6">
      <path
         transform="matrix(1,0,0,-1,0,595.276)"
         d="M 0,-0.001 H 841.89 V 595.275 H 0 Z"
         id="path241-9" />
    </clipPath>
    <clipPath
       id="clip_2208-8">
      <path
         transform="matrix(1,0,0,-1,0,595.276)"
         d="m -69.189,-0.001 h 841.89 v 595.276 h -841.89 z"
         id="path200-1" />
    </clipPath>
    <clipPath
       id="clip_2212-3">
      <path
         transform="matrix(1,0,0,-1,0,595.276)"
         d="m -69.189,-0.001 h 841.89 v 595.276 h -841.89 z"
         id="path214-2" />
    </clipPath>
    <clipPath
       id="clip_2206-4">
      <path
         transform="matrix(1,0,0,-1,0,595.276)"
         d="m -69.189,-0.001 h 841.89 v 595.276 h -841.89 z"
         id="path194-2" />
    </clipPath>
    <clipPath
       id="clip_2198-7">
      <path
         transform="matrix(1,0,0,-1,0,595.276)"
         d="m -69.189,-0.001 h 841.89 v 595.276 h -841.89 z"
         id="path162-6" />
    </clipPath>
    <clipPath
       id="clip_2200-1">
      <path
         transform="matrix(1,0,0,-1,0,595.276)"
         d="m -69.189,-0.001 h 841.89 v 595.276 h -841.89 z"
         id="path171-3" />
    </clipPath>
    <clipPath
       id="clip_2202-5">
      <path
         transform="matrix(1,0,0,-1,0,595.276)"
         d="m -69.189,-0.001 h 841.89 v 595.276 h -841.89 z"
         id="path177-4" />
    </clipPath>
    <clipPath
       id="clip_2189-9">
      <path
         transform="matrix(1,0,0,-1,0,595.276)"
         d="m -69.189,-0.001 h 841.89 v 595.276 h -841.89 z"
         id="path112-0" />
    </clipPath>
    <clipPath
       id="clip_2191-7">
      <path
         transform="matrix(1,0,0,-1,0,595.276)"
         d="m -69.189,-0.001 h 841.89 v 595.276 h -841.89 z"
         id="path122-0" />
    </clipPath>
    <clipPath
       id="clip_2195-6">
      <path
         transform="matrix(1,0,0,-1,0,595.276)"
         d="m -69.189,-0.001 h 841.89 v 595.276 h -841.89 z"
         id="path143-8" />
    </clipPath>
    <clipPath
       id="clip_2195-0-8">
      <path
         transform="matrix(1,0,0,-1,0,595.276)"
         d="m -69.189,-0.001 h 841.89 v 595.276 h -841.89 z"
         id="path143-0-7" />
    </clipPath>
    <clipPath
       id="clip_2169-7">
      <path
         transform="matrix(1,0,0,-1,0,595.276)"
         d="m -69.189,-0.001 h 841.89 v 595.276 h -841.89 z"
         id="path21-9" />
    </clipPath>
    <clipPath
       id="clip_1791-8">
      <path
         transform="matrix(1,0,0,-1,0,595.276)"
         d="M 0,-0.001 H 841.89 V 595.275 H 0 Z"
         id="path17-8" />
    </clipPath>
    <clipPath
       id="clip_1807-4">
      <path
         transform="matrix(1,0,0,-1,0,595.276)"
         d="M 0,-0.001 H 841.89 V 595.275 H 0 Z"
         id="path65-8" />
    </clipPath>
    <clipPath
       id="clip_1791-1-6">
      <path
         transform="matrix(1,0,0,-1,0,595.276)"
         d="M 0,-0.001 H 841.89 V 595.275 H 0 Z"
         id="path17-1-65" />
    </clipPath>
    <clipPath
       id="clip_1815-5">
      <path
         transform="matrix(1,0,0,-1,0,595.276)"
         d="M 0,-0.001 H 841.89 V 595.275 H 0 Z"
         id="path89-7" />
    </clipPath>
    <clipPath
       id="clip_1809-9">
      <path
         transform="matrix(1,0,0,-1,0,595.276)"
         d="M 0,-0.001 H 841.89 V 595.275 H 0 Z"
         id="path71-0" />
    </clipPath>
    <clipPath
       id="clip_1793-6">
      <path
         transform="matrix(1,0,0,-1,0,595.276)"
         d="M 0,-0.001 H 841.89 V 595.275 H 0 Z"
         id="path23-5" />
    </clipPath>
    <clipPath
       id="clip_1799-0">
      <path
         transform="matrix(1,0,0,-1,0,595.276)"
         d="M 0,-0.001 H 841.89 V 595.275 H 0 Z"
         id="path41-4" />
    </clipPath>
    <clipPath
       id="clip_1817-9">
      <path
         transform="matrix(1,0,0,-1,0,595.276)"
         d="M 0,-0.001 H 841.89 V 595.275 H 0 Z"
         id="path95-0" />
    </clipPath>
    <clipPath
       id="clip_1803-9">
      <path
         transform="matrix(1,0,0,-1,0,595.276)"
         d="M 0,-0.001 H 841.89 V 595.275 H 0 Z"
         id="path53-8" />
    </clipPath>
    <clipPath
       id="clip_1813-0">
      <path
         transform="matrix(1,0,0,-1,0,595.276)"
         d="M 0,-0.001 H 841.89 V 595.275 H 0 Z"
         id="path83-3" />
    </clipPath>
    <clipPath
       id="clip_1805-3">
      <path
         transform="matrix(1,0,0,-1,0,595.276)"
         d="M 0,-0.001 H 841.89 V 595.275 H 0 Z"
         id="path59-4" />
    </clipPath>
    <clipPath
       id="clip_1795-2">
      <path
         transform="matrix(1,0,0,-1,0,595.276)"
         d="M 0,-0.001 H 841.89 V 595.275 H 0 Z"
         id="path29-4" />
    </clipPath>
    <clipPath
       id="clip_1801-5">
      <path
         transform="matrix(1,0,0,-1,0,595.276)"
         d="M 0,-0.001 H 841.89 V 595.275 H 0 Z"
         id="path47-6" />
    </clipPath>
    <clipPath
       id="clip_1819-3">
      <path
         transform="matrix(1,0,0,-1,0,595.276)"
         d="M 0,-0.001 H 841.89 V 595.275 H 0 Z"
         id="path101-8" />
    </clipPath>
    <clipPath
       id="clip_1827-40">
      <path
         transform="matrix(1,0,0,-1,0,595.276)"
         d="M 0,-0.001 H 841.89 V 595.275 H 0 Z"
         id="path125-2" />
    </clipPath>
    <clipPath
       id="clip_1821-7">
      <path
         transform="matrix(1,0,0,-1,0,595.276)"
         d="M 0,-0.001 H 841.89 V 595.275 H 0 Z"
         id="path107-1" />
    </clipPath>
    <clipPath
       id="clip_1811-18">
      <path
         transform="matrix(1,0,0,-1,0,595.276)"
         d="M 0,-0.001 H 841.89 V 595.275 H 0 Z"
         id="path77-4" />
    </clipPath>
    <clipPath
       id="clip_1829-5">
      <path
         transform="matrix(1,0,0,-1,0,595.276)"
         d="M 0,-0.001 H 841.89 V 595.275 H 0 Z"
         id="path131-7" />
    </clipPath>
    <clipPath
       id="clip_1825-2">
      <path
         transform="matrix(1,0,0,-1,0,595.276)"
         d="M 0,-0.001 H 841.89 V 595.275 H 0 Z"
         id="path119-9" />
    </clipPath>
    <clipPath
       id="clip_2156-8">
      <path
         transform="matrix(1,0,0,-1,0,595.276)"
         d="M 0,-0.001 H 841.89 V 595.275 H 0 Z"
         id="path397-0" />
    </clipPath>
    <clipPath
       id="clip_2087-12">
      <path
         transform="matrix(1,0,0,-1,0,595.276)"
         d="M 0,-0.001 H 841.89 V 595.275 H 0 Z"
         id="path70-20" />
    </clipPath>
    <clipPath
       id="clip_2160-7">
      <path
         transform="matrix(1,0,0,-1,0,595.276)"
         d="M 0,-0.001 H 841.89 V 595.275 H 0 Z"
         id="path415-1" />
    </clipPath>
    <clipPath
       id="clip_2125-0">
      <path
         transform="matrix(1,0,0,-1,0,595.276)"
         d="M 0,-0.001 H 841.89 V 595.275 H 0 Z"
         id="path252-8" />
    </clipPath>
    <clipPath
       id="clip_2129-8">
      <path
         transform="matrix(1,0,0,-1,0,595.276)"
         d="M 0,-0.001 H 841.89 V 595.275 H 0 Z"
         id="path271-0" />
    </clipPath>
    <clipPath
       id="clip_2131-9">
      <path
         transform="matrix(1,0,0,-1,0,595.276)"
         d="M 0,-0.001 H 841.89 V 595.275 H 0 Z"
         id="path278-7" />
    </clipPath>
    <clipPath
       id="clip_2127-9">
      <path
         transform="matrix(1,0,0,-1,0,595.276)"
         d="M 0,-0.001 H 841.89 V 595.275 H 0 Z"
         id="path264-0" />
    </clipPath>
    <clipPath
       id="clip_2135-03">
      <path
         transform="matrix(1,0,0,-1,0,595.276)"
         d="M 0,-0.001 H 841.89 V 595.275 H 0 Z"
         id="path294-1" />
    </clipPath>
    <clipPath
       id="clip_2133-97">
      <path
         transform="matrix(1,0,0,-1,0,595.276)"
         d="M 0,-0.001 H 841.89 V 595.275 H 0 Z"
         id="path286-1" />
    </clipPath>
    <clipPath
       id="clip_2137-4">
      <path
         transform="matrix(1,0,0,-1,0,595.276)"
         d="M 0,-0.001 H 841.89 V 595.275 H 0 Z"
         id="path303-9" />
    </clipPath>
    <clipPath
       id="clip_2146-1">
      <path
         transform="matrix(1,0,0,-1,0,595.276)"
         d="M 0,-0.001 H 841.89 V 595.275 H 0 Z"
         id="path345-6" />
    </clipPath>
    <clipPath
       id="clip_2141-78">
      <path
         transform="matrix(1,0,0,-1,0,595.276)"
         d="M 0,-0.001 H 841.89 V 595.275 H 0 Z"
         id="path322-3" />
    </clipPath>
    <clipPath
       id="clip_2143-1">
      <path
         transform="matrix(1,0,0,-1,0,595.276)"
         d="M 0,-0.001 H 841.89 V 595.275 H 0 Z"
         id="path330-7" />
    </clipPath>
    <clipPath
       id="clip_2123-5">
      <path
         transform="matrix(1,0,0,-1,0,595.276)"
         d="M 0,-0.001 H 841.89 V 595.275 H 0 Z"
         id="path241-6" />
    </clipPath>
    <clipPath
       id="clip_2208-0">
      <path
         transform="matrix(1,0,0,-1,0,595.276)"
         d="m -69.189,-0.001 h 841.89 v 595.276 h -841.89 z"
         id="path200-7" />
    </clipPath>
    <clipPath
       id="clip_2212-1">
      <path
         transform="matrix(1,0,0,-1,0,595.276)"
         d="m -69.189,-0.001 h 841.89 v 595.276 h -841.89 z"
         id="path214-8" />
    </clipPath>
    <clipPath
       id="clip_2206-3">
      <path
         transform="matrix(1,0,0,-1,0,595.276)"
         d="m -69.189,-0.001 h 841.89 v 595.276 h -841.89 z"
         id="path194-5" />
    </clipPath>
    <clipPath
       id="clip_2198-1">
      <path
         transform="matrix(1,0,0,-1,0,595.276)"
         d="m -69.189,-0.001 h 841.89 v 595.276 h -841.89 z"
         id="path162-4" />
    </clipPath>
    <clipPath
       id="clip_2200-15">
      <path
         transform="matrix(1,0,0,-1,0,595.276)"
         d="m -69.189,-0.001 h 841.89 v 595.276 h -841.89 z"
         id="path171-6" />
    </clipPath>
    <clipPath
       id="clip_2202-7">
      <path
         transform="matrix(1,0,0,-1,0,595.276)"
         d="m -69.189,-0.001 h 841.89 v 595.276 h -841.89 z"
         id="path177-0" />
    </clipPath>
    <clipPath
       id="clip_2189-6">
      <path
         transform="matrix(1,0,0,-1,0,595.276)"
         d="m -69.189,-0.001 h 841.89 v 595.276 h -841.89 z"
         id="path112-9" />
    </clipPath>
    <clipPath
       id="clip_2191-2">
      <path
         transform="matrix(1,0,0,-1,0,595.276)"
         d="m -69.189,-0.001 h 841.89 v 595.276 h -841.89 z"
         id="path122-2" />
    </clipPath>
    <clipPath
       id="clip_2195-9">
      <path
         transform="matrix(1,0,0,-1,0,595.276)"
         d="m -69.189,-0.001 h 841.89 v 595.276 h -841.89 z"
         id="path143-81" />
    </clipPath>
    <clipPath
       id="clip_2195-0-82">
      <path
         transform="matrix(1,0,0,-1,0,595.276)"
         d="m -69.189,-0.001 h 841.89 v 595.276 h -841.89 z"
         id="path143-0-4" />
    </clipPath>
    <clipPath
       id="clip_2169-2">
      <path
         transform="matrix(1,0,0,-1,0,595.276)"
         d="m -69.189,-0.001 h 841.89 v 595.276 h -841.89 z"
         id="path21-7" />
    </clipPath>
    <clipPath
       id="clip_1832">
      <path
         transform="matrix(1,0,0,-1,0,595.276)"
         d="M 68.598,29.763 H 826.299 V 565.511 H 68.598 Z"
         id="path8" />
    </clipPath>
    <clipPath
       id="clip_1791-6">
      <path
         transform="matrix(1,0,0,-1,0,595.276)"
         d="M 0,-0.001 H 841.89 V 595.275 H 0 Z"
         id="path17-4" />
    </clipPath>
    <clipPath
       id="clip_1807-3">
      <path
         transform="matrix(1,0,0,-1,0,595.276)"
         d="M 0,-0.001 H 841.89 V 595.275 H 0 Z"
         id="path65-9" />
    </clipPath>
    <clipPath
       id="clip_1791-1-7">
      <path
         transform="matrix(1,0,0,-1,0,595.276)"
         d="M 0,-0.001 H 841.89 V 595.275 H 0 Z"
         id="path17-1-4" />
    </clipPath>
    <clipPath
       id="clip_1815-83">
      <path
         transform="matrix(1,0,0,-1,0,595.276)"
         d="M 0,-0.001 H 841.89 V 595.275 H 0 Z"
         id="path89-3" />
    </clipPath>
    <clipPath
       id="clip_1809-69">
      <path
         transform="matrix(1,0,0,-1,0,595.276)"
         d="M 0,-0.001 H 841.89 V 595.275 H 0 Z"
         id="path71-9" />
    </clipPath>
    <clipPath
       id="clip_1793-2">
      <path
         transform="matrix(1,0,0,-1,0,595.276)"
         d="M 0,-0.001 H 841.89 V 595.275 H 0 Z"
         id="path23-0" />
    </clipPath>
    <clipPath
       id="clip_1799-4">
      <path
         transform="matrix(1,0,0,-1,0,595.276)"
         d="M 0,-0.001 H 841.89 V 595.275 H 0 Z"
         id="path41-5" />
    </clipPath>
    <clipPath
       id="clip_1817-2">
      <path
         transform="matrix(1,0,0,-1,0,595.276)"
         d="M 0,-0.001 H 841.89 V 595.275 H 0 Z"
         id="path95-4" />
    </clipPath>
    <clipPath
       id="clip_1803-4">
      <path
         transform="matrix(1,0,0,-1,0,595.276)"
         d="M 0,-0.001 H 841.89 V 595.275 H 0 Z"
         id="path53-2" />
    </clipPath>
    <clipPath
       id="clip_1813-8">
      <path
         transform="matrix(1,0,0,-1,0,595.276)"
         d="M 0,-0.001 H 841.89 V 595.275 H 0 Z"
         id="path83-7" />
    </clipPath>
    <clipPath
       id="clip_1805-35">
      <path
         transform="matrix(1,0,0,-1,0,595.276)"
         d="M 0,-0.001 H 841.89 V 595.275 H 0 Z"
         id="path59-3" />
    </clipPath>
    <clipPath
       id="clip_1795-1">
      <path
         transform="matrix(1,0,0,-1,0,595.276)"
         d="M 0,-0.001 H 841.89 V 595.275 H 0 Z"
         id="path29-0" />
    </clipPath>
    <clipPath
       id="clip_1801-7">
      <path
         transform="matrix(1,0,0,-1,0,595.276)"
         d="M 0,-0.001 H 841.89 V 595.275 H 0 Z"
         id="path47-20" />
    </clipPath>
    <clipPath
       id="clip_1819-37">
      <path
         transform="matrix(1,0,0,-1,0,595.276)"
         d="M 0,-0.001 H 841.89 V 595.275 H 0 Z"
         id="path101-0" />
    </clipPath>
    <clipPath
       id="clip_1827-8">
      <path
         transform="matrix(1,0,0,-1,0,595.276)"
         d="M 0,-0.001 H 841.89 V 595.275 H 0 Z"
         id="path125-8" />
    </clipPath>
    <clipPath
       id="clip_1821-1">
      <path
         transform="matrix(1,0,0,-1,0,595.276)"
         d="M 0,-0.001 H 841.89 V 595.275 H 0 Z"
         id="path107-10" />
    </clipPath>
    <clipPath
       id="clip_1811-17">
      <path
         transform="matrix(1,0,0,-1,0,595.276)"
         d="M 0,-0.001 H 841.89 V 595.275 H 0 Z"
         id="path77-6" />
    </clipPath>
    <clipPath
       id="clip_1829-51">
      <path
         transform="matrix(1,0,0,-1,0,595.276)"
         d="M 0,-0.001 H 841.89 V 595.275 H 0 Z"
         id="path131-1" />
    </clipPath>
    <clipPath
       id="clip_1825-1">
      <path
         transform="matrix(1,0,0,-1,0,595.276)"
         d="M 0,-0.001 H 841.89 V 595.275 H 0 Z"
         id="path119-5" />
    </clipPath>
    <clipPath
       id="clip_2156-41">
      <path
         transform="matrix(1,0,0,-1,0,595.276)"
         d="M 0,-0.001 H 841.89 V 595.275 H 0 Z"
         id="path397-6" />
    </clipPath>
    <clipPath
       id="clip_2087-5">
      <path
         transform="matrix(1,0,0,-1,0,595.276)"
         d="M 0,-0.001 H 841.89 V 595.275 H 0 Z"
         id="path70-3" />
    </clipPath>
    <clipPath
       id="clip_2160-8">
      <path
         transform="matrix(1,0,0,-1,0,595.276)"
         d="M 0,-0.001 H 841.89 V 595.275 H 0 Z"
         id="path415-6" />
    </clipPath>
    <clipPath
       id="clip_2125-6">
      <path
         transform="matrix(1,0,0,-1,0,595.276)"
         d="M 0,-0.001 H 841.89 V 595.275 H 0 Z"
         id="path252-0" />
    </clipPath>
    <clipPath
       id="clip_2129-4">
      <path
         transform="matrix(1,0,0,-1,0,595.276)"
         d="M 0,-0.001 H 841.89 V 595.275 H 0 Z"
         id="path271-4" />
    </clipPath>
    <clipPath
       id="clip_2131-0">
      <path
         transform="matrix(1,0,0,-1,0,595.276)"
         d="M 0,-0.001 H 841.89 V 595.275 H 0 Z"
         id="path278-1" />
    </clipPath>
    <clipPath
       id="clip_2127-2">
      <path
         transform="matrix(1,0,0,-1,0,595.276)"
         d="M 0,-0.001 H 841.89 V 595.275 H 0 Z"
         id="path264-4" />
    </clipPath>
    <clipPath
       id="clip_2135-5">
      <path
         transform="matrix(1,0,0,-1,0,595.276)"
         d="M 0,-0.001 H 841.89 V 595.275 H 0 Z"
         id="path294-3" />
    </clipPath>
    <clipPath
       id="clip_2133-3">
      <path
         transform="matrix(1,0,0,-1,0,595.276)"
         d="M 0,-0.001 H 841.89 V 595.275 H 0 Z"
         id="path286-7" />
    </clipPath>
    <clipPath
       id="clip_2137-8">
      <path
         transform="matrix(1,0,0,-1,0,595.276)"
         d="M 0,-0.001 H 841.89 V 595.275 H 0 Z"
         id="path303-6" />
    </clipPath>
    <clipPath
       id="clip_2146-8">
      <path
         transform="matrix(1,0,0,-1,0,595.276)"
         d="M 0,-0.001 H 841.89 V 595.275 H 0 Z"
         id="path345-8" />
    </clipPath>
    <clipPath
       id="clip_2141-6">
      <path
         transform="matrix(1,0,0,-1,0,595.276)"
         d="M 0,-0.001 H 841.89 V 595.275 H 0 Z"
         id="path322-38" />
    </clipPath>
    <clipPath
       id="clip_2143-21">
      <path
         transform="matrix(1,0,0,-1,0,595.276)"
         d="M 0,-0.001 H 841.89 V 595.275 H 0 Z"
         id="path330-3" />
    </clipPath>
    <clipPath
       id="clip_2123-9">
      <path
         transform="matrix(1,0,0,-1,0,595.276)"
         d="M 0,-0.001 H 841.89 V 595.275 H 0 Z"
         id="path241-2" />
    </clipPath>
    <clipPath
       id="clip_2208-03">
      <path
         transform="matrix(1,0,0,-1,0,595.276)"
         d="m -69.189,-0.001 h 841.89 v 595.276 h -841.89 z"
         id="path200-4" />
    </clipPath>
    <clipPath
       id="clip_2212-7">
      <path
         transform="matrix(1,0,0,-1,0,595.276)"
         d="m -69.189,-0.001 h 841.89 v 595.276 h -841.89 z"
         id="path214-4" />
    </clipPath>
    <clipPath
       id="clip_2206-42">
      <path
         transform="matrix(1,0,0,-1,0,595.276)"
         d="m -69.189,-0.001 h 841.89 v 595.276 h -841.89 z"
         id="path194-3" />
    </clipPath>
    <clipPath
       id="clip_2198-2">
      <path
         transform="matrix(1,0,0,-1,0,595.276)"
         d="m -69.189,-0.001 h 841.89 v 595.276 h -841.89 z"
         id="path162-64" />
    </clipPath>
    <clipPath
       id="clip_2200-2">
      <path
         transform="matrix(1,0,0,-1,0,595.276)"
         d="m -69.189,-0.001 h 841.89 v 595.276 h -841.89 z"
         id="path171-4" />
    </clipPath>
    <clipPath
       id="clip_2202-79">
      <path
         transform="matrix(1,0,0,-1,0,595.276)"
         d="m -69.189,-0.001 h 841.89 v 595.276 h -841.89 z"
         id="path177-2" />
    </clipPath>
    <clipPath
       id="clip_2189-2">
      <path
         transform="matrix(1,0,0,-1,0,595.276)"
         d="m -69.189,-0.001 h 841.89 v 595.276 h -841.89 z"
         id="path112-7" />
    </clipPath>
    <clipPath
       id="clip_2191-8">
      <path
         transform="matrix(1,0,0,-1,0,595.276)"
         d="m -69.189,-0.001 h 841.89 v 595.276 h -841.89 z"
         id="path122-7" />
    </clipPath>
    <clipPath
       id="clip_2195-4">
      <path
         transform="matrix(1,0,0,-1,0,595.276)"
         d="m -69.189,-0.001 h 841.89 v 595.276 h -841.89 z"
         id="path143-7" />
    </clipPath>
    <clipPath
       id="clip_2195-0-7">
      <path
         transform="matrix(1,0,0,-1,0,595.276)"
         d="m -69.189,-0.001 h 841.89 v 595.276 h -841.89 z"
         id="path143-0-44" />
    </clipPath>
    <clipPath
       id="clip_2169-3">
      <path
         transform="matrix(1,0,0,-1,0,595.276)"
         d="m -69.189,-0.001 h 841.89 v 595.276 h -841.89 z"
         id="path21-77" />
    </clipPath>
    <clipPath
       id="clip_1832-9">
      <path
         transform="matrix(1,0,0,-1,0,595.276)"
         d="M 68.598,29.763 H 826.299 V 565.511 H 68.598 Z"
         id="path8-9" />
    </clipPath>
    <clipPath
       id="clip_1791-9">
      <path
         transform="matrix(1,0,0,-1,0,595.276)"
         d="M 0,-0.001 H 841.89 V 595.275 H 0 Z"
         id="path17-6" />
    </clipPath>
    <clipPath
       id="clip_1807-7">
      <path
         transform="matrix(1,0,0,-1,0,595.276)"
         d="M 0,-0.001 H 841.89 V 595.275 H 0 Z"
         id="path65-7" />
    </clipPath>
    <clipPath
       id="clip_1791-1-81">
      <path
         transform="matrix(1,0,0,-1,0,595.276)"
         d="M 0,-0.001 H 841.89 V 595.275 H 0 Z"
         id="path17-1-1" />
    </clipPath>
    <clipPath
       id="clip_1815-9">
      <path
         transform="matrix(1,0,0,-1,0,595.276)"
         d="M 0,-0.001 H 841.89 V 595.275 H 0 Z"
         id="path89-8" />
    </clipPath>
    <clipPath
       id="clip_1809-7">
      <path
         transform="matrix(1,0,0,-1,0,595.276)"
         d="M 0,-0.001 H 841.89 V 595.275 H 0 Z"
         id="path71-92" />
    </clipPath>
    <clipPath
       id="clip_1793-9">
      <path
         transform="matrix(1,0,0,-1,0,595.276)"
         d="M 0,-0.001 H 841.89 V 595.275 H 0 Z"
         id="path23-55" />
    </clipPath>
    <clipPath
       id="clip_1799-6">
      <path
         transform="matrix(1,0,0,-1,0,595.276)"
         d="M 0,-0.001 H 841.89 V 595.275 H 0 Z"
         id="path41-38" />
    </clipPath>
    <clipPath
       id="clip_1817-7">
      <path
         transform="matrix(1,0,0,-1,0,595.276)"
         d="M 0,-0.001 H 841.89 V 595.275 H 0 Z"
         id="path95-41" />
    </clipPath>
    <clipPath
       id="clip_1803-7">
      <path
         transform="matrix(1,0,0,-1,0,595.276)"
         d="M 0,-0.001 H 841.89 V 595.275 H 0 Z"
         id="path53-1" />
    </clipPath>
    <clipPath
       id="clip_1813-1">
      <path
         transform="matrix(1,0,0,-1,0,595.276)"
         d="M 0,-0.001 H 841.89 V 595.275 H 0 Z"
         id="path83-6" />
    </clipPath>
    <clipPath
       id="clip_1805-7">
      <path
         transform="matrix(1,0,0,-1,0,595.276)"
         d="M 0,-0.001 H 841.89 V 595.275 H 0 Z"
         id="path59-43" />
    </clipPath>
    <clipPath
       id="clip_1795-18">
      <path
         transform="matrix(1,0,0,-1,0,595.276)"
         d="M 0,-0.001 H 841.89 V 595.275 H 0 Z"
         id="path29-5" />
    </clipPath>
    <clipPath
       id="clip_1801-3">
      <path
         transform="matrix(1,0,0,-1,0,595.276)"
         d="M 0,-0.001 H 841.89 V 595.275 H 0 Z"
         id="path47-4" />
    </clipPath>
    <clipPath
       id="clip_1819-0">
      <path
         transform="matrix(1,0,0,-1,0,595.276)"
         d="M 0,-0.001 H 841.89 V 595.275 H 0 Z"
         id="path101-02" />
    </clipPath>
    <clipPath
       id="clip_1827-0">
      <path
         transform="matrix(1,0,0,-1,0,595.276)"
         d="M 0,-0.001 H 841.89 V 595.275 H 0 Z"
         id="path125-1" />
    </clipPath>
    <clipPath
       id="clip_1821-4">
      <path
         transform="matrix(1,0,0,-1,0,595.276)"
         d="M 0,-0.001 H 841.89 V 595.275 H 0 Z"
         id="path107-7" />
    </clipPath>
    <clipPath
       id="clip_1811-7">
      <path
         transform="matrix(1,0,0,-1,0,595.276)"
         d="M 0,-0.001 H 841.89 V 595.275 H 0 Z"
         id="path77-1" />
    </clipPath>
    <clipPath
       id="clip_1829-4">
      <path
         transform="matrix(1,0,0,-1,0,595.276)"
         d="M 0,-0.001 H 841.89 V 595.275 H 0 Z"
         id="path131-6" />
    </clipPath>
    <clipPath
       id="clip_1825-6">
      <path
         transform="matrix(1,0,0,-1,0,595.276)"
         d="M 0,-0.001 H 841.89 V 595.275 H 0 Z"
         id="path119-3" />
    </clipPath>
    <clipPath
       id="clip_2156-0">
      <path
         transform="matrix(1,0,0,-1,0,595.276)"
         d="M 0,-0.001 H 841.89 V 595.275 H 0 Z"
         id="path397-08" />
    </clipPath>
    <clipPath
       id="clip_2087-0">
      <path
         transform="matrix(1,0,0,-1,0,595.276)"
         d="M 0,-0.001 H 841.89 V 595.275 H 0 Z"
         id="path70-6" />
    </clipPath>
    <clipPath
       id="clip_2160-5">
      <path
         transform="matrix(1,0,0,-1,0,595.276)"
         d="M 0,-0.001 H 841.89 V 595.275 H 0 Z"
         id="path415-66" />
    </clipPath>
    <clipPath
       id="clip_2125-1">
      <path
         transform="matrix(1,0,0,-1,0,595.276)"
         d="M 0,-0.001 H 841.89 V 595.275 H 0 Z"
         id="path252-1" />
    </clipPath>
    <clipPath
       id="clip_2129-89">
      <path
         transform="matrix(1,0,0,-1,0,595.276)"
         d="M 0,-0.001 H 841.89 V 595.275 H 0 Z"
         id="path271-8" />
    </clipPath>
    <clipPath
       id="clip_2131-2">
      <path
         transform="matrix(1,0,0,-1,0,595.276)"
         d="M 0,-0.001 H 841.89 V 595.275 H 0 Z"
         id="path278-9" />
    </clipPath>
    <clipPath
       id="clip_2127-6">
      <path
         transform="matrix(1,0,0,-1,0,595.276)"
         d="M 0,-0.001 H 841.89 V 595.275 H 0 Z"
         id="path264-3" />
    </clipPath>
    <clipPath
       id="clip_2135-4">
      <path
         transform="matrix(1,0,0,-1,0,595.276)"
         d="M 0,-0.001 H 841.89 V 595.275 H 0 Z"
         id="path294-37" />
    </clipPath>
    <clipPath
       id="clip_2133-5">
      <path
         transform="matrix(1,0,0,-1,0,595.276)"
         d="M 0,-0.001 H 841.89 V 595.275 H 0 Z"
         id="path286-77" />
    </clipPath>
    <clipPath
       id="clip_2137-1">
      <path
         transform="matrix(1,0,0,-1,0,595.276)"
         d="M 0,-0.001 H 841.89 V 595.275 H 0 Z"
         id="path303-2" />
    </clipPath>
    <clipPath
       id="clip_2146-4">
      <path
         transform="matrix(1,0,0,-1,0,595.276)"
         d="M 0,-0.001 H 841.89 V 595.275 H 0 Z"
         id="path345-1" />
    </clipPath>
    <clipPath
       id="clip_2141-4">
      <path
         transform="matrix(1,0,0,-1,0,595.276)"
         d="M 0,-0.001 H 841.89 V 595.275 H 0 Z"
         id="path322-5" />
    </clipPath>
    <clipPath
       id="clip_2143-6">
      <path
         transform="matrix(1,0,0,-1,0,595.276)"
         d="M 0,-0.001 H 841.89 V 595.275 H 0 Z"
         id="path330-5" />
    </clipPath>
    <clipPath
       id="clip_2123-7">
      <path
         transform="matrix(1,0,0,-1,0,595.276)"
         d="M 0,-0.001 H 841.89 V 595.275 H 0 Z"
         id="path241-1" />
    </clipPath>
    <clipPath
       id="clip_2208-2">
      <path
         transform="matrix(1,0,0,-1,0,595.276)"
         d="m -69.189,-0.001 h 841.89 v 595.276 h -841.89 z"
         id="path200-0" />
    </clipPath>
    <clipPath
       id="clip_2212-10">
      <path
         transform="matrix(1,0,0,-1,0,595.276)"
         d="m -69.189,-0.001 h 841.89 v 595.276 h -841.89 z"
         id="path214-44" />
    </clipPath>
    <clipPath
       id="clip_2206-6">
      <path
         transform="matrix(1,0,0,-1,0,595.276)"
         d="m -69.189,-0.001 h 841.89 v 595.276 h -841.89 z"
         id="path194-0" />
    </clipPath>
    <clipPath
       id="clip_2198-29">
      <path
         transform="matrix(1,0,0,-1,0,595.276)"
         d="m -69.189,-0.001 h 841.89 v 595.276 h -841.89 z"
         id="path162-1" />
    </clipPath>
    <clipPath
       id="clip_2200-9">
      <path
         transform="matrix(1,0,0,-1,0,595.276)"
         d="m -69.189,-0.001 h 841.89 v 595.276 h -841.89 z"
         id="path171-2" />
    </clipPath>
    <clipPath
       id="clip_2202-6">
      <path
         transform="matrix(1,0,0,-1,0,595.276)"
         d="m -69.189,-0.001 h 841.89 v 595.276 h -841.89 z"
         id="path177-08" />
    </clipPath>
    <clipPath
       id="clip_2189-97">
      <path
         transform="matrix(1,0,0,-1,0,595.276)"
         d="m -69.189,-0.001 h 841.89 v 595.276 h -841.89 z"
         id="path112-3" />
    </clipPath>
    <clipPath
       id="clip_2191-0">
      <path
         transform="matrix(1,0,0,-1,0,595.276)"
         d="m -69.189,-0.001 h 841.89 v 595.276 h -841.89 z"
         id="path122-9" />
    </clipPath>
    <clipPath
       id="clip_2195-3">
      <path
         transform="matrix(1,0,0,-1,0,595.276)"
         d="m -69.189,-0.001 h 841.89 v 595.276 h -841.89 z"
         id="path143-6" />
    </clipPath>
    <clipPath
       id="clip_2195-0-9">
      <path
         transform="matrix(1,0,0,-1,0,595.276)"
         d="m -69.189,-0.001 h 841.89 v 595.276 h -841.89 z"
         id="path143-0-5" />
    </clipPath>
    <clipPath
       id="clip_2169-9">
      <path
         transform="matrix(1,0,0,-1,0,595.276)"
         d="m -69.189,-0.001 h 841.89 v 595.276 h -841.89 z"
         id="path21-0" />
    </clipPath>
    <clipPath
       id="clip_1832-1">
      <path
         transform="matrix(1,0,0,-1,0,595.276)"
         d="M 68.598,29.763 H 826.299 V 565.511 H 68.598 Z"
         id="path8-7" />
    </clipPath>
    <clipPath
       id="clip_1791-2">
      <path
         transform="matrix(1,0,0,-1,0,595.276)"
         d="M 0,-0.001 H 841.89 V 595.275 H 0 Z"
         id="path17-14" />
    </clipPath>
    <clipPath
       id="clip_1807-0">
      <path
         transform="matrix(1,0,0,-1,0,595.276)"
         d="M 0,-0.001 H 841.89 V 595.275 H 0 Z"
         id="path65-6" />
    </clipPath>
    <clipPath
       id="clip_1791-1-1">
      <path
         transform="matrix(1,0,0,-1,0,595.276)"
         d="M 0,-0.001 H 841.89 V 595.275 H 0 Z"
         id="path17-1-66" />
    </clipPath>
    <clipPath
       id="clip_1815-81">
      <path
         transform="matrix(1,0,0,-1,0,595.276)"
         d="M 0,-0.001 H 841.89 V 595.275 H 0 Z"
         id="path89-0" />
    </clipPath>
    <clipPath
       id="clip_1809-2">
      <path
         transform="matrix(1,0,0,-1,0,595.276)"
         d="M 0,-0.001 H 841.89 V 595.275 H 0 Z"
         id="path71-7" />
    </clipPath>
    <clipPath
       id="clip_1793-3">
      <path
         transform="matrix(1,0,0,-1,0,595.276)"
         d="M 0,-0.001 H 841.89 V 595.275 H 0 Z"
         id="path23-1" />
    </clipPath>
    <clipPath
       id="clip_1799-8">
      <path
         transform="matrix(1,0,0,-1,0,595.276)"
         d="M 0,-0.001 H 841.89 V 595.275 H 0 Z"
         id="path41-0" />
    </clipPath>
    <clipPath
       id="clip_1817-0">
      <path
         transform="matrix(1,0,0,-1,0,595.276)"
         d="M 0,-0.001 H 841.89 V 595.275 H 0 Z"
         id="path95-81" />
    </clipPath>
    <clipPath
       id="clip_1803-8">
      <path
         transform="matrix(1,0,0,-1,0,595.276)"
         d="M 0,-0.001 H 841.89 V 595.275 H 0 Z"
         id="path53-5" />
    </clipPath>
    <clipPath
       id="clip_1813-9">
      <path
         transform="matrix(1,0,0,-1,0,595.276)"
         d="M 0,-0.001 H 841.89 V 595.275 H 0 Z"
         id="path83-9" />
    </clipPath>
    <clipPath
       id="clip_1805-5">
      <path
         transform="matrix(1,0,0,-1,0,595.276)"
         d="M 0,-0.001 H 841.89 V 595.275 H 0 Z"
         id="path59-06" />
    </clipPath>
    <clipPath
       id="clip_1795-6">
      <path
         transform="matrix(1,0,0,-1,0,595.276)"
         d="M 0,-0.001 H 841.89 V 595.275 H 0 Z"
         id="path29-00" />
    </clipPath>
    <clipPath
       id="clip_1801-4">
      <path
         transform="matrix(1,0,0,-1,0,595.276)"
         d="M 0,-0.001 H 841.89 V 595.275 H 0 Z"
         id="path47-41" />
    </clipPath>
    <clipPath
       id="clip_1819-4">
      <path
         transform="matrix(1,0,0,-1,0,595.276)"
         d="M 0,-0.001 H 841.89 V 595.275 H 0 Z"
         id="path101-7" />
    </clipPath>
    <clipPath
       id="clip_1827-1">
      <path
         transform="matrix(1,0,0,-1,0,595.276)"
         d="M 0,-0.001 H 841.89 V 595.275 H 0 Z"
         id="path125-9" />
    </clipPath>
    <clipPath
       id="clip_1821-9">
      <path
         transform="matrix(1,0,0,-1,0,595.276)"
         d="M 0,-0.001 H 841.89 V 595.275 H 0 Z"
         id="path107-76" />
    </clipPath>
    <clipPath
       id="clip_1811-8">
      <path
         transform="matrix(1,0,0,-1,0,595.276)"
         d="M 0,-0.001 H 841.89 V 595.275 H 0 Z"
         id="path77-14" />
    </clipPath>
    <clipPath
       id="clip_1829-2">
      <path
         transform="matrix(1,0,0,-1,0,595.276)"
         d="M 0,-0.001 H 841.89 V 595.275 H 0 Z"
         id="path131-79" />
    </clipPath>
    <clipPath
       id="clip_1825-3">
      <path
         transform="matrix(1,0,0,-1,0,595.276)"
         d="M 0,-0.001 H 841.89 V 595.275 H 0 Z"
         id="path119-7" />
    </clipPath>
    <clipPath
       id="clip_2156-3">
      <path
         transform="matrix(1,0,0,-1,0,595.276)"
         d="M 0,-0.001 H 841.89 V 595.275 H 0 Z"
         id="path397-9" />
    </clipPath>
    <clipPath
       id="clip_2087-8">
      <path
         transform="matrix(1,0,0,-1,0,595.276)"
         d="M 0,-0.001 H 841.89 V 595.275 H 0 Z"
         id="path70-0" />
    </clipPath>
    <clipPath
       id="clip_2160-3">
      <path
         transform="matrix(1,0,0,-1,0,595.276)"
         d="M 0,-0.001 H 841.89 V 595.275 H 0 Z"
         id="path415-5" />
    </clipPath>
    <clipPath
       id="clip_2125-4">
      <path
         transform="matrix(1,0,0,-1,0,595.276)"
         d="M 0,-0.001 H 841.89 V 595.275 H 0 Z"
         id="path252-11" />
    </clipPath>
    <clipPath
       id="clip_2129-1">
      <path
         transform="matrix(1,0,0,-1,0,595.276)"
         d="M 0,-0.001 H 841.89 V 595.275 H 0 Z"
         id="path271-87" />
    </clipPath>
    <clipPath
       id="clip_2131-4">
      <path
         transform="matrix(1,0,0,-1,0,595.276)"
         d="M 0,-0.001 H 841.89 V 595.275 H 0 Z"
         id="path278-4" />
    </clipPath>
    <clipPath
       id="clip_2127-8">
      <path
         transform="matrix(1,0,0,-1,0,595.276)"
         d="M 0,-0.001 H 841.89 V 595.275 H 0 Z"
         id="path264-47" />
    </clipPath>
    <clipPath
       id="clip_2135-51">
      <path
         transform="matrix(1,0,0,-1,0,595.276)"
         d="M 0,-0.001 H 841.89 V 595.275 H 0 Z"
         id="path294-95" />
    </clipPath>
    <clipPath
       id="clip_2133-8">
      <path
         transform="matrix(1,0,0,-1,0,595.276)"
         d="M 0,-0.001 H 841.89 V 595.275 H 0 Z"
         id="path286-95" />
    </clipPath>
    <clipPath
       id="clip_2137-6">
      <path
         transform="matrix(1,0,0,-1,0,595.276)"
         d="M 0,-0.001 H 841.89 V 595.275 H 0 Z"
         id="path303-19" />
    </clipPath>
    <clipPath
       id="clip_2146-9">
      <path
         transform="matrix(1,0,0,-1,0,595.276)"
         d="M 0,-0.001 H 841.89 V 595.275 H 0 Z"
         id="path345-4" />
    </clipPath>
    <clipPath
       id="clip_2141-63">
      <path
         transform="matrix(1,0,0,-1,0,595.276)"
         d="M 0,-0.001 H 841.89 V 595.275 H 0 Z"
         id="path322-2" />
    </clipPath>
    <clipPath
       id="clip_2143-4">
      <path
         transform="matrix(1,0,0,-1,0,595.276)"
         d="M 0,-0.001 H 841.89 V 595.275 H 0 Z"
         id="path330-9" />
    </clipPath>
    <clipPath
       id="clip_2123-2">
      <path
         transform="matrix(1,0,0,-1,0,595.276)"
         d="M 0,-0.001 H 841.89 V 595.275 H 0 Z"
         id="path241-97" />
    </clipPath>
    <clipPath
       id="clip_2208-033">
      <path
         transform="matrix(1,0,0,-1,0,595.276)"
         d="m -69.189,-0.001 h 841.89 v 595.276 h -841.89 z"
         id="path200-2" />
    </clipPath>
    <clipPath
       id="clip_2212-5">
      <path
         transform="matrix(1,0,0,-1,0,595.276)"
         d="m -69.189,-0.001 h 841.89 v 595.276 h -841.89 z"
         id="path214-80" />
    </clipPath>
    <clipPath
       id="clip_2206-8">
      <path
         transform="matrix(1,0,0,-1,0,595.276)"
         d="m -69.189,-0.001 h 841.89 v 595.276 h -841.89 z"
         id="path194-6" />
    </clipPath>
    <clipPath
       id="clip_2198-4">
      <path
         transform="matrix(1,0,0,-1,0,595.276)"
         d="m -69.189,-0.001 h 841.89 v 595.276 h -841.89 z"
         id="path162-48" />
    </clipPath>
    <clipPath
       id="clip_2200-7">
      <path
         transform="matrix(1,0,0,-1,0,595.276)"
         d="m -69.189,-0.001 h 841.89 v 595.276 h -841.89 z"
         id="path171-48" />
    </clipPath>
    <clipPath
       id="clip_2202-4">
      <path
         transform="matrix(1,0,0,-1,0,595.276)"
         d="m -69.189,-0.001 h 841.89 v 595.276 h -841.89 z"
         id="path177-5" />
    </clipPath>
    <clipPath
       id="clip_2189-7">
      <path
         transform="matrix(1,0,0,-1,0,595.276)"
         d="m -69.189,-0.001 h 841.89 v 595.276 h -841.89 z"
         id="path112-95" />
    </clipPath>
    <clipPath
       id="clip_2191-86">
      <path
         transform="matrix(1,0,0,-1,0,595.276)"
         d="m -69.189,-0.001 h 841.89 v 595.276 h -841.89 z"
         id="path122-77" />
    </clipPath>
    <clipPath
       id="clip_2195-1">
      <path
         transform="matrix(1,0,0,-1,0,595.276)"
         d="m -69.189,-0.001 h 841.89 v 595.276 h -841.89 z"
         id="path143-4" />
    </clipPath>
    <clipPath
       id="clip_2195-0-1">
      <path
         transform="matrix(1,0,0,-1,0,595.276)"
         d="m -69.189,-0.001 h 841.89 v 595.276 h -841.89 z"
         id="path143-0-0" />
    </clipPath>
    <clipPath
       id="clip_2169-78">
      <path
         transform="matrix(1,0,0,-1,0,595.276)"
         d="m -69.189,-0.001 h 841.89 v 595.276 h -841.89 z"
         id="path21-5" />
    </clipPath>
    <clipPath
       id="clip_1832-6">
      <path
         transform="matrix(1,0,0,-1,0,595.276)"
         d="M 68.598,29.763 H 826.299 V 565.511 H 68.598 Z"
         id="path8-6" />
    </clipPath>
  </defs>
  <g
     inkscape:label="Layer 1"
     inkscape:groupmode="layer"
     id="layer1">
    <g
       aria-label=""
       transform="matrix(0.26458333,0,0,0.26458333,0.97185864,-6.414267)"
       id="text1825"
       style="font-size:110px;line-height:1.25;font-family:'Noto Sans TC';-inkscape-font-specification:'Noto Sans TC';white-space:pre;shape-inside:url(#rect1827)">
      <path
         d="m 227.8025,75.513828 h 29.92 v 10.45 h -29.92 z m 0.88,32.010002 h 28.05 v 10.34 h -28.05 z m -2.31,41.47 q 6.05,-1.32 14.19,-3.41 8.14,-2.2 16.5,-4.51 l 1.32,10.23 q -7.7,2.2 -15.51,4.4 -7.7,2.2 -14.3,4.07 z m 11.44,-66.990002 h 10.34 v 66.880002 l -10.34,2.53 z m 23.65,19.140002 h 67.32 v 9.35 h -67.32 z m 17.16,22.11 v 7.37 h 32.67 v -7.37 z m -10.45,-8.25 h 54.23 v 23.87 h -54.23 z m 38.72,-34.540002 v 8.47 h 8.25 v -8.47 z m -15.95,0 v 8.47 h 8.14 v -8.47 z m -15.62,0 v 8.47 h 7.81 v -8.47 z m -9.68,-8.03 h 59.62 v 24.64 h -59.62 z m 36.19,62.590002 q 2.31,6.27 6.27,11.55 4.07,5.17 9.9,9.02 5.83,3.74 13.2,5.72 -1.87,1.54 -3.96,4.18 -1.98,2.75 -2.97,4.84 -12.1,-4.07 -19.91,-12.65 -7.81,-8.69 -11.88,-20.68 z m 18.7,4.29 7.7,7.04 q -4.73,2.53 -9.79,5.06 -4.95,2.42 -9.02,3.96 l -5.61,-5.39 q 2.53,-1.43 5.61,-3.19 3.08,-1.87 6.05,-3.85 3.08,-1.98 5.06,-3.63 z m -31.13,-5.94 8.03,3.52 q -3.96,4.18 -9.68,8.25 -5.72,3.96 -12.21,7.15 -6.38,3.08 -12.65,5.06 -1.1,-1.87 -3.08,-4.18 -1.98,-2.42 -3.63,-3.96 6.16,-1.43 12.43,-3.85 6.38,-2.42 11.77,-5.5 5.5,-3.19 9.02,-6.49 z m -16.94,37.84 q -0.44,-1.65 -1.65,-4.18 -1.21,-2.42 -2.31,-3.85 1.43,-0.66 2.86,-2.31 1.43,-1.76 1.43,-5.06 v -9.57 l 9.46,-2.31 v 19.03 q 0,0 -1.54,0.77 -1.43,0.88 -3.41,2.2 -1.98,1.32 -3.41,2.75 -1.43,1.43 -1.43,2.53 z m 0,0 -0.66,-7.81 4.29,-3.19 22.55,-4.62 q -0.22,1.98 -0.33,4.51 0,2.53 0.11,4.18 -7.59,1.76 -12.43,2.86 -4.73,1.21 -7.48,1.87 -2.64,0.77 -3.96,1.21 -1.32,0.55 -2.09,0.99 z"
         style="font-weight:600;-inkscape-font-specification:'Noto Sans TC Semi-Bold';fill:#ffffff"
         id="path1370" />
      <path
         d="m 379.71229,100.26383 h 60.5 v 11.66 h -60.5 z m 36.52,-24.090002 9.35,-4.4 q 2.64,2.97 5.17,6.49 2.53,3.41 4.62,6.82 2.2,3.41 3.41,6.16 l -10.01,4.95 q -1.1,-2.75 -3.08,-6.16 -1.98,-3.52 -4.51,-7.15 -2.42,-3.74 -4.95,-6.71 z m -69.19,23.43 h 22.44 v 10.560002 h -22.44 z m -8.8,23.540002 h 29.37 v 10.67 h -29.37 z m 26.73,-54.340002 h 11 V 171.43383 h -11 z m -22.77,4.84 h 10.78 v 36.410002 h -10.78 z m 3.19,53.570002 h 10.67 v 9.02 q 0,3.3 -0.33,7.48 -0.33,4.18 -1.43,8.8 -1.1,4.51 -3.19,8.8 -1.98,4.29 -5.17,7.81 -0.99,-0.77 -2.64,-1.87 -1.65,-1.1 -3.41,-2.09 -1.65,-0.88 -2.97,-1.43 3.74,-4.18 5.5,-9.24 1.87,-5.06 2.42,-10.01 0.55,-4.95 0.55,-8.58 z m 56.1,-58.300002 h 11.33 v 31.900002 q 0,9.02 -0.99,18.59 -0.88,9.57 -3.96,18.92 -2.97,9.24 -9.13,17.82 -6.05,8.47 -16.39,15.62 -0.77,-1.32 -2.2,-3.08 -1.32,-1.76 -2.97,-3.41 -1.54,-1.65 -2.75,-2.64 9.24,-6.16 14.63,-13.64 5.39,-7.59 8.03,-15.73 2.75,-8.25 3.52,-16.5 0.88,-8.25 0.88,-15.95 z m 13.09,35.310002 q 0.33,4.51 0.99,10.34 0.77,5.72 2.31,12.21 1.65,6.38 4.62,12.65 2.97,6.27 7.59,11.99 4.73,5.72 11.66,9.9 -2.53,1.76 -4.95,4.4 -2.31,2.75 -3.74,5.28 -7.26,-4.84 -12.21,-11.33 -4.95,-6.6 -8.14,-13.97 -3.19,-7.37 -5.06,-14.74 -1.76,-7.48 -2.64,-14.08 -0.77,-6.71 -1.32,-11.77 z"
         style="font-weight:600;-inkscape-font-specification:'Noto Sans TC Semi-Bold';fill:#ffffff"
         id="path1372" />
      <path
         d="m 513.14207,68.693828 13.31,2.53 q -2.09,4.18 -4.29,8.25 -2.09,3.96 -3.96,6.82 l -10.01,-2.53 q 1.54,-3.19 2.86,-7.37 1.32,-4.29 2.09,-7.7 z m -8.69,35.860002 v 6.82 h 29.81 v -6.82 z m 0,-15.070002 v 6.71 h 29.81 v -6.71 z m -10.89,-9.02 h 52.14 v 39.930002 h -52.14 z m 21.23,35.860002 h 11.22 v 43.23 q 0,4.07 -0.99,6.49 -0.88,2.42 -3.52,3.85 -2.64,1.32 -6.49,1.54 -3.85,0.33 -9.13,0.33 -0.33,-2.42 -1.21,-5.5 -0.88,-3.08 -1.98,-5.28 3.3,0.11 6.27,0.11 2.97,0 4.07,-0.11 0.99,0 1.32,-0.33 0.44,-0.33 0.44,-1.21 z m -25.19,11.55 h 16.06 v 9.57 h -16.06 z m 13.42,0 h 1.98 l 1.76,-0.33 6.93,2.31 q -1.87,8.58 -5.28,15.51 -3.3,6.93 -7.92,12.21 -4.62,5.17 -10.45,8.69 -1.1,-1.87 -3.08,-4.29 -1.87,-2.42 -3.52,-3.96 4.73,-2.53 8.58,-6.93 3.96,-4.4 6.82,-9.9 2.97,-5.5 4.18,-11.66 z m 37.51,-5.17 8.69,7.26 q -4.51,3.74 -9.13,7.59 -4.62,3.85 -8.58,6.49 l -6.38,-5.83 q 2.42,-2.09 5.28,-4.73 2.86,-2.64 5.5,-5.5 2.75,-2.97 4.62,-5.28 z m -15.07,-0.33 q 2.2,7.48 5.83,14.41 3.63,6.93 8.58,12.43 5.06,5.39 11.11,8.69 -1.21,1.1 -2.64,2.75 -1.43,1.54 -2.75,3.3 -1.32,1.76 -2.2,3.3 -6.38,-4.29 -11.44,-10.78 -4.95,-6.6 -8.58,-14.85 -3.63,-8.25 -5.94,-17.38 z m -52.25,-8.8 8.69,-2.31 q 1.21,3.63 2.42,7.92 1.32,4.29 2.2,8.36 0.99,3.96 1.32,6.93 l -9.13,2.86 q -0.44,-3.08 -1.32,-7.15 -0.77,-4.18 -1.87,-8.47 -1.1,-4.4 -2.31,-8.14 z m -9.57,28.71 8.36,-1.54 q 0.99,5.61 1.65,12.1 0.77,6.49 0.88,11.33 l -8.91,1.65 q 0,-4.84 -0.66,-11.44 -0.55,-6.6 -1.32,-12.1 z m -11.55,-1.32 9.13,1.43 q -0.66,7.48 -1.98,15.07 -1.32,7.48 -3.08,12.76 -1.1,-0.55 -2.75,-1.21 -1.54,-0.55 -3.3,-1.1 -1.65,-0.55 -2.75,-0.88 1.87,-5.06 2.97,-12.1 1.21,-7.04 1.76,-13.97 z m -1.54,-29.15 q -0.22,-1.1 -0.88,-2.97 -0.66,-1.98 -1.43,-3.96 -0.66,-2.09 -1.32,-3.52 1.54,-0.33 2.97,-1.870002 1.54,-1.54 3.08,-3.96 1.21,-1.65 3.41,-5.83 2.31,-4.18 4.84,-9.79 2.64,-5.61 4.51,-11.44 l 10.78,4.4 q -2.53,5.94 -5.72,11.88 -3.19,5.94 -6.71,11.44 -3.41,5.390002 -6.82,9.790002 v 0.22 q 0,0 -0.99,0.66 -0.99,0.55 -2.42,1.43 -1.32,0.77 -2.31,1.76 -0.99,0.88 -0.99,1.76 z m 0,0 -0.33,-8.25 4.95,-3.19 19.14,-1.430002 q -0.44,2.200002 -0.77,4.950002 -0.33,2.64 -0.33,4.4 -6.49,0.66 -10.56,1.21 -4.07,0.44 -6.49,0.88 -2.31,0.33 -3.63,0.66 -1.21,0.33 -1.98,0.77 z m 0.77,25.3 q -0.22,-1.21 -0.88,-3.08 -0.66,-1.98 -1.43,-4.07 -0.77,-2.09 -1.43,-3.63 2.09,-0.55 4.07,-2.31 1.98,-1.87 4.62,-4.95 1.32,-1.54 3.85,-4.95 2.64,-3.52 5.83,-8.25 3.19,-4.73 6.38,-10.230002 3.19,-5.61 5.72,-11.22 l 10.12,6.16 q -3.96,7.37 -8.91,14.740002 -4.95,7.26 -10.34,13.86 -5.28,6.6 -10.67,11.99 v 0.33 q 0,0 -1.1,0.66 -0.99,0.55 -2.42,1.43 -1.32,0.77 -2.42,1.76 -0.99,0.99 -0.99,1.76 z m 0,0 -0.44,-8.47 4.95,-3.3 26.51,-3.19 q -0.33,2.09 -0.55,4.84 -0.22,2.75 -0.11,4.4 -8.91,1.32 -14.52,2.2 -5.5,0.88 -8.69,1.54 -3.08,0.55 -4.62,1.1 -1.54,0.44 -2.53,0.88 z m 23.1,2.97 7.81,-2.42 q 1.43,3.85 2.75,8.25 1.43,4.4 1.98,7.7 l -8.14,2.86 q -0.55,-3.3 -1.87,-7.92 -1.21,-4.62 -2.53,-8.47 z"
         style="font-weight:600;-inkscape-font-specification:'Noto Sans TC Semi-Bold';fill:#ffffff"
         id="path1374" />
    </g>
    <g
       aria-label="Circular Line

"
       transform="matrix(0.26458333,0,0,0.26458333,0.34678218,-3.8874346)"
       id="text12839"
       style="font-size:60px;line-height:1.25;font-family:'Microsoft JhengHei';-inkscape-font-specification:'Microsoft JhengHei';word-spacing:0px;white-space:pre;shape-inside:url(#rect12841)">
      <path
         d="m 265.02508,207.34734 h 7.62 q -0.3,7.14 -4.98,11.52 -4.68,4.38 -13.56,4.38 -10.5,0 -16.08,-5.94 -5.52,-5.94 -5.52,-16.5 0,-10.44 5.52,-16.44 5.58,-6 15.96,-6 8.34,0 12.96,3.84 4.62,3.78 5.28,9.84 h -7.62 q -0.48,-3.48 -3.18,-5.58 -2.7,-2.16 -7.62,-2.16 -6.06,0 -9.72,4.08 -3.66,4.08 -3.66,12.42 0,8.46 3.66,12.48 3.72,4.02 9.84,4.02 5.22,0 8.04,-2.7 2.82,-2.76 3.06,-7.26 z"
         style="font-family:'AR UDJingXiHeiE1G30 EB';-inkscape-font-specification:'AR UDJingXiHeiE1G30 EB';fill:#ffffff"
         id="path1377" />
      <path
         d="m 286.92504,178.00734 v 7.14 h -8.04 v -7.14 z m -0.36,12.18 v 32.28 h -7.44 v -32.28 z"
         style="font-family:'AR UDJingXiHeiE1G30 EB';-inkscape-font-specification:'AR UDJingXiHeiE1G30 EB';fill:#ffffff"
         id="path1379" />
      <path
         d="m 301.86502,202.36734 v 20.1 h -7.38 v -32.28 h 7.38 v 4.98 q 2.1,-2.94 4.74,-4.32 2.7,-1.44 5.88,-1.44 v 6.9 q -3.6,0 -6.42,1.74 -2.82,1.68 -4.2,4.32 z"
         style="font-family:'AR UDJingXiHeiE1G30 EB';-inkscape-font-specification:'AR UDJingXiHeiE1G30 EB';fill:#ffffff"
         id="path1381" />
      <path
         d="m 331.86496,223.24734 q -8.04,0 -12.06,-4.62 -3.96,-4.68 -3.96,-12.66 0,-7.32 4.02,-11.94 4.08,-4.62 11.7,-4.62 6.48,0 10.26,3.18 3.84,3.18 4.26,8.52 h -7.44 q -0.12,-2.64 -1.98,-4.32 -1.8,-1.68 -5.22,-1.68 -3.72,0 -5.88,2.88 -2.1,2.82 -2.1,7.98 0,5.94 2.22,8.76 2.28,2.82 6.06,2.82 3.36,0 5.16,-1.74 1.8,-1.74 1.86,-4.68 h 7.44 q -0.06,5.52 -3.84,8.82 -3.72,3.3 -10.5,3.3 z"
         style="font-family:'AR UDJingXiHeiE1G30 EB';-inkscape-font-specification:'AR UDJingXiHeiE1G30 EB';fill:#ffffff"
         id="path1383" />
      <path
         d="m 373.2049,211.60734 v -21.42 h 7.38 v 32.28 h -7.38 v -3.66 q -1.62,1.92 -4.26,3.18 -2.58,1.2 -5.94,1.2 -5.1,0 -7.92,-2.82 -2.76,-2.88 -2.76,-8.1 v -22.08 h 7.44 v 21.12 q 0,3 1.38,4.5 1.38,1.5 4.14,1.5 2.64,0 4.86,-1.68 2.22,-1.68 3.06,-4.02 z"
         style="font-family:'AR UDJingXiHeiE1G30 EB';-inkscape-font-specification:'AR UDJingXiHeiE1G30 EB';fill:#ffffff"
         id="path1385" />
      <path
         d="m 396.0048,176.92734 v 45.54 h -7.44 v -45.54 z"
         style="font-family:'AR UDJingXiHeiE1G30 EB';-inkscape-font-specification:'AR UDJingXiHeiE1G30 EB';fill:#ffffff"
         id="path1387" />
      <path
         d="m 415.20472,217.36734 q 2.82,0 5.16,-1.02 2.34,-1.02 4.14,-3.3 v -5.04 h -4.5 q -5.16,0 -7.62,1.44 -2.46,1.44 -2.46,3.96 0,1.8 1.32,2.88 1.32,1.08 3.96,1.08 z m 2.52,-27.96 q 7.2,0 10.68,2.94 3.54,2.88 3.54,8.52 v 21.6 h -7.44 v -3.84 q -2.04,2.28 -4.74,3.48 -2.64,1.14 -6.24,1.14 -5.34,0 -8.28,-2.58 -2.94,-2.64 -2.94,-6.9 0,-5.1 4.38,-7.86 4.38,-2.76 13.32,-2.76 h 4.5 v -2.64 q 0,-2.7 -1.68,-4.08 -1.62,-1.38 -5.1,-1.38 -3.54,0 -5.34,1.44 -1.74,1.38 -1.74,3.72 h -7.38 q 0,-4.56 3.66,-7.68 3.72,-3.12 10.8,-3.12 z"
         style="font-family:'AR UDJingXiHeiE1G30 EB';-inkscape-font-specification:'AR UDJingXiHeiE1G30 EB';fill:#ffffff"
         id="path1389" />
      <path
         d="m 446.76461,202.36734 v 20.1 h -7.38 v -32.28 h 7.38 v 4.98 q 2.1,-2.94 4.74,-4.32 2.7,-1.44 5.88,-1.44 v 6.9 q -3.6,0 -6.42,1.74 -2.82,1.68 -4.2,4.32 z"
         style="font-family:'AR UDJingXiHeiE1G30 EB';-inkscape-font-specification:'AR UDJingXiHeiE1G30 EB';fill:#ffffff"
         id="path1391" />
      <path
         d="m 509.0445,222.46734 h -30.48 v -43.38 h 7.62 v 37.44 h 22.86 z"
         style="font-family:'AR UDJingXiHeiE1G30 EB';-inkscape-font-specification:'AR UDJingXiHeiE1G30 EB';fill:#ffffff"
         id="path1393" />
      <path
         d="m 522.18444,178.00734 v 7.14 h -8.04 v -7.14 z m -0.36,12.18 v 32.28 h -7.44 v -32.28 z"
         style="font-family:'AR UDJingXiHeiE1G30 EB';-inkscape-font-specification:'AR UDJingXiHeiE1G30 EB';fill:#ffffff"
         id="path1395" />
      <path
         d="m 537.66441,201.10734 v 21.36 h -7.44 v -32.28 h 7.44 v 3.66 q 1.5,-1.86 4.08,-3.12 2.64,-1.32 5.88,-1.32 5.16,0 7.98,2.88 2.88,2.88 2.88,8.1 v 22.08 h -7.38 v -21.12 q 0,-2.88 -1.38,-4.44 -1.38,-1.62 -4.08,-1.62 -2.7,0 -4.92,1.74 -2.22,1.68 -3.06,4.08 z"
         style="font-family:'AR UDJingXiHeiE1G30 EB';-inkscape-font-specification:'AR UDJingXiHeiE1G30 EB';fill:#ffffff"
         id="path1397" />
      <path
         d="m 580.50431,189.40734 q 7.02,0 11.1,4.62 4.14,4.56 4.08,14.28 h -22.98 q 0.06,4.38 2.16,6.84 2.1,2.4 6.3,2.4 2.76,0 4.62,-1.08 1.92,-1.14 2.46,-3.06 h 7.14 q -0.72,4.14 -4.38,7.02 -3.66,2.82 -9.84,2.82 -7.8,0 -11.94,-4.38 -4.08,-4.38 -4.08,-12.42 -0.06,-7.62 3.96,-12.3 4.08,-4.74 11.4,-4.74 z m 0,5.7 q -3.18,0 -5.34,2.16 -2.16,2.16 -2.34,6.06 h 15.12 q -0.06,-3.72 -2.04,-5.94 -1.98,-2.28 -5.4,-2.28 z"
         style="font-family:'AR UDJingXiHeiE1G30 EB';-inkscape-font-specification:'AR UDJingXiHeiE1G30 EB';fill:#ffffff"
         id="path1399" />
    </g>
    <g
       inkscape:label="Layer 1"
       id="layer1-9"
       transform="matrix(1.0671903,0,0,1.0671904,12.404,11.433)">
      <path
         d="M 32.399816,40.499946 H 8.0997776 C 3.6262026,40.499946 0,36.87339 0,32.399815 V 8.1001304 C 0,3.6265555 3.6262026,0 8.0997776,0 H 32.399816 c 4.473575,0 8.100131,3.6265555 8.100131,8.1001304 V 32.399815 c 0,4.473575 -3.626556,8.100131 -8.100131,8.100131"
         fill="#fdda00"
         id="path470"
         style="stroke-width:0.352778" />
      <path
         d="m 15.550974,11.137441 4.711347,7.265458 4.736041,-7.265458 h 4.736042 l -7.364589,10.736438 v 7.488767 H 18.179168 V 21.873879 L 10.76519,11.137441 Z"
         id="path472"
         style="stroke-width:0.352778" />
    </g>
  </g>
</svg>
