<?xml version="1.0" encoding="UTF-8" standalone="no"?>
<svg
   height="534"
   width="534"
   viewBox="-38.4024 -64.00725 148.10526 256.34904"
   version="1.1"
   id="svg60"
   sodipodi:docname="edge.svg"
   inkscape:version="1.1.2 (b8e25be833, 2022-02-05)"
   xmlns:inkscape="http://www.inkscape.org/namespaces/inkscape"
   xmlns:sodipodi="http://sodipodi.sourceforge.net/DTD/sodipodi-0.dtd"
   xmlns="http://www.w3.org/2000/svg"
   xmlns:svg="http://www.w3.org/2000/svg">
  <sodipodi:namedview
     id="namedview62"
     pagecolor="#ffffff"
     bordercolor="#666666"
     borderopacity="1.0"
     inkscape:pageshadow="2"
     inkscape:pageopacity="0.0"
     inkscape:pagecheckerboard="0"
     showgrid="false"
     inkscape:zoom="0.98166667"
     inkscape:cx="600"
     inkscape:cy="399.83022"
     inkscape:window-width="1920"
     inkscape:window-height="1018"
     inkscape:window-x="-8"
     inkscape:window-y="-8"
     inkscape:window-maximized="1"
     inkscape:current-layer="svg60" />
  <defs
     id="defs46">
    <radialGradient
       gradientUnits="userSpaceOnUse"
       gradientTransform="matrix(0.75003809,0,0,-0.7125003,-95.981967,118.93283)"
       r="95.379997"
       cy="68.910004"
       cx="161.83"
       id="b">
      <stop
         stop-opacity="0"
         offset=".72"
         id="stop2" />
      <stop
         stop-opacity=".53"
         offset=".95"
         id="stop4" />
      <stop
         offset="1"
         id="stop6" />
    </radialGradient>
    <radialGradient
       gradientUnits="userSpaceOnUse"
       gradientTransform="matrix(0.11250571,-0.74250031,-0.60003047,-0.09000004,36.504761,-161.74729)"
       r="143.24001"
       cy="62.990002"
       cx="-340.29001"
       id="d">
      <stop
         stop-opacity="0"
         offset=".76"
         id="stop9" />
      <stop
         stop-opacity=".5"
         offset=".95"
         id="stop11" />
      <stop
         offset="1"
         id="stop13" />
    </radialGradient>
    <radialGradient
       gradientUnits="userSpaceOnUse"
       gradientTransform="matrix(-0.03000152,0.75000031,1.5975811,0.06000002,-980.6819,-147.71479)"
       r="202.42999"
       cy="570.21002"
       cx="113.37"
       id="e">
      <stop
         stop-color="#35c1f1"
         offset="0"
         id="stop16" />
      <stop
         stop-color="#34c1ed"
         offset=".11"
         id="stop18" />
      <stop
         stop-color="#2fc2df"
         offset=".23"
         id="stop20" />
      <stop
         stop-color="#2bc3d2"
         offset=".31"
         id="stop22" />
      <stop
         stop-color="#36c752"
         offset=".67"
         id="stop24" />
    </radialGradient>
    <radialGradient
       gradientUnits="userSpaceOnUse"
       gradientTransform="matrix(0.21001066,0.7200003,0.58502971,-0.17250007,-323.81354,-179.0723)"
       r="97.339996"
       cy="567.96997"
       cx="376.51999"
       id="f">
      <stop
         stop-color="#66eb6e"
         offset="0"
         id="stop27" />
      <stop
         stop-opacity="0"
         stop-color="#66eb6e"
         offset="1"
         id="stop29" />
    </radialGradient>
    <linearGradient
       gradientUnits="userSpaceOnUse"
       gradientTransform="matrix(0.75003809,0,0,-0.75000031,-95.981967,131.80283)"
       y2="84.029999"
       x2="241.67"
       y1="84.029999"
       x1="63.330002"
       id="a">
      <stop
         stop-color="#0c59a4"
         offset="0"
         id="stop32" />
      <stop
         stop-color="#114a8b"
         offset="1"
         id="stop34" />
    </linearGradient>
    <linearGradient
       gradientUnits="userSpaceOnUse"
       gradientTransform="matrix(0.75003809,0,0,-0.75000031,-95.981967,131.80283)"
       y2="40.060001"
       x2="45.959999"
       y1="161.39"
       x1="157.35001"
       id="c">
      <stop
         stop-color="#1b9de2"
         offset="0"
         id="stop37" />
      <stop
         stop-color="#1595df"
         offset=".16"
         id="stop39" />
      <stop
         stop-color="#0680d7"
         offset=".67"
         id="stop41" />
      <stop
         stop-color="#0078d4"
         offset="1"
         id="stop43" />
    </linearGradient>
  </defs>
  <g
     id="g919"
     transform="translate(32.163644,32.163643)">
    <path
       d="m 80.787008,78.897811 a 70.301069,70.29753 0 0 1 -7.905397,3.532506 76.40638,76.402534 0 0 1 -26.926369,4.844996 c -35.491802,0 -66.408372,-24.412512 -66.408372,-55.740022 A 23.611199,23.61001 0 0 1 -8.1300048,11.052783 c -32.1016302,1.350001 -40.3520492,34.800015 -40.3520492,54.39752 0,55.410027 51.0700938,61.027537 62.073152,61.027537 5.932801,0 14.880756,-1.72501 20.251029,-3.42001 l 0.98255,-0.33 A 96.259884,96.255042 0 0 0 84.777212,83.12781 3.0001524,3.0000013 0 0 0 80.787008,78.897811 Z"
       fill="url(#a)"
       id="path48"
       style="fill:url(#a);stroke-width:0.750019" />
    <path
       style="isolation:isolate;fill:url(#b);stroke-width:0.750019"
       d="m 80.787008,78.897811 a 70.301069,70.29753 0 0 1 -7.905397,3.532506 76.40638,76.402534 0 0 1 -26.926369,4.844996 c -35.491802,0 -66.408372,-24.412512 -66.408372,-55.740022 A 23.611199,23.61001 0 0 1 -8.1300048,11.052783 c -32.1016302,1.350001 -40.3520492,34.800015 -40.3520492,54.39752 0,55.410027 51.0700938,61.027537 62.073152,61.027537 5.932801,0 14.880756,-1.72501 20.251029,-3.42001 l 0.98255,-0.33 A 96.259884,96.255042 0 0 0 84.777212,83.12781 3.0001524,3.0000013 0 0 0 80.787008,78.897811 Z"
       fill="url(#b)"
       opacity="0.35"
       id="path50" />
    <path
       d="M -13.222763,117.05783 A 59.403017,59.400025 0 0 1 -30.27863,101.05282 60.543075,60.540026 0 0 1 -8.1300048,11.052783 C -5.7898856,9.950282 -1.7921825,7.955282 3.5255873,8.0527815 a 24.263732,24.262511 0 0 1 19.2684787,9.7500045 23.911214,23.91001 0 0 1 4.770242,13.995006 c 0,-0.1575 18.345931,-59.700025 -60.003047,-59.700025 -32.926672,0 -60.003047,31.2450127 -60.003047,58.657524 a 97.617458,97.612544 0 0 0 9.082962,42.000016 96.00488,96.000037 0 0 0 117.290955,50.332523 56.665378,56.662525 0 0 1 -47.087391,-6 z"
       fill="url(#c)"
       id="path52"
       style="fill:url(#c);stroke-width:0.750019" />
    <path
       style="isolation:isolate;fill:url(#d);stroke-width:0.750019"
       d="M -13.222763,117.05783 A 59.403017,59.400025 0 0 1 -30.27863,101.05282 60.543075,60.540026 0 0 1 -8.1300048,11.052783 C -5.7898856,9.950282 -1.7921825,7.955282 3.5255873,8.0527815 a 24.263732,24.262511 0 0 1 19.2684787,9.7500045 23.911214,23.91001 0 0 1 4.770242,13.995006 c 0,-0.1575 18.345931,-59.700025 -60.003047,-59.700025 -32.926672,0 -60.003047,31.2450127 -60.003047,58.657524 a 97.617458,97.612544 0 0 0 9.082962,42.000016 96.00488,96.000037 0 0 0 117.290955,50.332523 56.665378,56.662525 0 0 1 -47.087391,-6 z"
       fill="url(#d)"
       opacity="0.41"
       id="path54" />
    <path
       d="m 21.729011,47.637799 c -0.60753,0.7875 -2.475125,1.875 -2.475125,4.245001 0,1.957501 1.275065,3.840002 3.54018,5.422503 10.785547,7.5 31.11908,6.509999 31.171583,6.509999 A 44.672268,44.670019 0 0 0 76.669299,57.552803 46.037338,46.035019 0 0 0 99.492963,17.892786 C 99.687968,1.0852789 93.492661,-10.089726 90.987532,-15.039728 75.094219,-46.127242 40.787479,-64.007249 3.4805847,-64.007249 A 96.00488,96.000037 0 0 0 -92.52429,30.642791 c 0.360019,-27.4050113 27.601401,-49.537521 60.003047,-49.537521 2.625133,0 17.595893,0.255 31.5015992,7.552503 12.2556218,6.4350029 18.6759488,14.2050067 23.1386758,21.90751 4.635234,8.002503 5.460276,18.112508 5.460276,22.140009 0,4.027502 -2.055104,9.997504 -5.850297,14.932507 z"
       fill="url(#e)"
       id="path56"
       style="fill:url(#e);stroke-width:0.750019" />
    <path
       d="m 21.729011,47.637799 c -0.60753,0.7875 -2.475125,1.875 -2.475125,4.245001 0,1.957501 1.275065,3.840002 3.54018,5.422503 10.785547,7.5 31.11908,6.509999 31.171583,6.509999 A 44.672268,44.670019 0 0 0 76.669299,57.552803 46.037338,46.035019 0 0 0 99.492963,17.892786 C 99.687968,1.0852789 93.492661,-10.089726 90.987532,-15.039728 75.094219,-46.127242 40.787479,-64.007249 3.4805847,-64.007249 A 96.00488,96.000037 0 0 0 -92.52429,30.642791 c 0.360019,-27.4050113 27.601401,-49.537521 60.003047,-49.537521 2.625133,0 17.595893,0.255 31.5015992,7.552503 12.2556218,6.4350029 18.6759488,14.2050067 23.1386758,21.90751 4.635234,8.002503 5.460276,18.112508 5.460276,22.140009 0,4.027502 -2.055104,9.997504 -5.850297,14.932507 z"
       fill="url(#f)"
       id="path58"
       style="fill:url(#f);stroke-width:0.750019" />
  </g>
</svg>
