<?xml version="1.0" encoding="UTF-8" standalone="no"?>
<svg
   height="534"
   width="534"
   viewBox="-9.92187 -16.44595 251.86636 251.86636"
   version="1.1"
   id="svg44"
   sodipodi:docname="safari.svg"
   inkscape:version="1.1.2 (b8e25be833, 2022-02-05)"
   xmlns:inkscape="http://www.inkscape.org/namespaces/inkscape"
   xmlns:sodipodi="http://sodipodi.sourceforge.net/DTD/sodipodi-0.dtd"
   xmlns:xlink="http://www.w3.org/1999/xlink"
   xmlns="http://www.w3.org/2000/svg"
   xmlns:svg="http://www.w3.org/2000/svg">
  <sodipodi:namedview
     id="namedview46"
     pagecolor="#ffffff"
     bordercolor="#666666"
     borderopacity="1.0"
     inkscape:pageshadow="2"
     inkscape:pageopacity="0.0"
     inkscape:pagecheckerboard="0"
     showgrid="false"
     units="px"
     scale-x="0.47165984"
     width="534px"
     inkscape:zoom="0.64"
     inkscape:cx="-303.125"
     inkscape:cy="483.59375"
     inkscape:window-width="1920"
     inkscape:window-height="1018"
     inkscape:window-x="-8"
     inkscape:window-y="-8"
     inkscape:window-maximized="1"
     inkscape:current-layer="svg44" />
  <defs
     id="defs26">
    <linearGradient
       id="b">
      <stop
         offset="0"
         stop-color="#06c2e7"
         id="stop2" />
      <stop
         offset=".25"
         stop-color="#0db8ec"
         id="stop4" />
      <stop
         offset=".5"
         stop-color="#12aef1"
         id="stop6" />
      <stop
         offset=".75"
         stop-color="#1f86f9"
         id="stop8" />
      <stop
         offset="1"
         stop-color="#107ddd"
         id="stop10" />
    </linearGradient>
    <linearGradient
       id="a">
      <stop
         offset="0"
         stop-color="#bdbdbd"
         id="stop13" />
      <stop
         offset="1"
         stop-color="#fff"
         id="stop15" />
    </linearGradient>
    <linearGradient
       gradientTransform="matrix(1.4111642,0,0,1.411162,-466.76871,-100.07197)"
       gradientUnits="userSpaceOnUse"
       y2="59.3922"
       x2="412.97501"
       y1="237.6078"
       x1="412.97501"
       id="d"
       xlink:href="#a" />
    <filter
       height="1.0445149"
       y="-0.022257471"
       width="1.0429906"
       x="-0.021495325"
       id="f"
       color-interpolation-filters="sRGB">
      <feGaussianBlur
         stdDeviation=".9577"
         id="feGaussianBlur19" />
    </filter>
    <filter
       height="1.0959997"
       y="-0.04799984"
       width="1.0959997"
       x="-0.04799984"
       id="c"
       color-interpolation-filters="sRGB">
      <feGaussianBlur
         stdDeviation="3.5643"
         id="feGaussianBlur22" />
    </filter>
    <radialGradient
       gradientTransform="matrix(1.5311497,0,0,1.5311473,-515.925,-116.90042)"
       gradientUnits="userSpaceOnUse"
       r="82.125397"
       fy="136.81821"
       fx="413.06131"
       cy="136.81821"
       cx="413.06131"
       id="e"
       xlink:href="#b" />
  </defs>
  <g
     id="g1133"
     transform="matrix(0.74905981,0,0,0.74899628,29.111903,27.481705)">
    <path
       d="M 241.75782,109.48723 A 125.74672,125.74651 0 0 1 116.0111,235.23374 125.74672,125.74651 0 0 1 -9.735208,109.48723 125.74672,125.74651 0 0 1 116.0111,-16.259288 125.74672,125.74651 0 0 1 241.75782,109.48723 Z"
       fill="url(#d)"
       stroke="#cdcdcd"
       stroke-width="0.373324"
       stroke-linecap="round"
       stroke-linejoin="round"
       paint-order="markers stroke fill"
       id="path30"
       style="fill:url(#d)" />
    <path
       d="M 231.90448,109.48723 A 115.89338,115.89319 0 0 1 116.0111,225.38042 115.89338,115.89319 0 0 1 0.118133,109.48723 115.89338,115.89319 0 0 1 116.0111,-6.405958 115.89338,115.89319 0 0 1 231.90448,109.48723 Z"
       fill="url(#e)"
       paint-order="markers stroke fill"
       id="path32"
       style="fill:url(#e);stroke-width:4.01424" />
    <path
       d="m 116.01151,-0.362135 a 1.6859787,1.685976 0 0 0 -1.69,1.689989 v 19.48948 a 1.6859787,1.685976 0 0 0 1.69,1.68999 1.6859787,1.685976 0 0 0 1.68919,-1.68999 V 1.327454 a 1.6859787,1.685976 0 0 0 -1.6896,-1.689589 z m -11.054,0.698469 a 1.5494947,1.5494923 0 0 0 -0.34362,0.002 1.6859787,1.685976 0 0 0 -1.50534,1.85578 l 0.85182,8.1537 a 1.6859787,1.685976 0 0 0 1.85578,1.50533 1.6859787,1.685976 0 0 0 1.50534,-1.85617 l -0.85102,-8.1533 a 1.6859787,1.685976 0 0 0 -1.51336,-1.50695 z m 22.18507,0.008 a 1.6859787,1.685976 0 0 0 -1.51417,1.50613 l -0.85744,8.1529 a 1.6867816,1.6867789 0 0 0 1.50453,1.85739 1.6855773,1.6855746 0 0 0 1.85659,-1.50373 l 0.85744,-8.15371 a 1.6859787,1.685976 0 0 0 -1.50454,-1.85658 1.7871374,1.7871346 0 0 0 -0.34281,-0.002 z m -33.540136,1.6386 a 1.6859787,1.685976 0 0 0 -1.64423,2.03923 l 4.03591,19.06719 a 1.6859787,1.685976 0 0 0 2.00311,1.30301 1.6859787,1.685976 0 0 0 1.30342,-2.00229 l -4.03632,-19.06759 a 1.6859787,1.685976 0 0 0 -1.66189,-1.34075 z m 44.894406,0.0161 a 1.6839716,1.6839689 0 0 0 -1.66271,1.33914 l -4.05036,19.06438 a 1.6859787,1.685976 0 0 0 1.30182,2.0039 1.6859787,1.685976 0 0 0 2.0039,-1.30141 l 4.05037,-19.06478 a 1.6859787,1.685976 0 0 0 -1.64302,-2.04003 z m -55.731236,3.03957 a 1.637005,1.6370024 0 0 0 -0.66716,0.0779 1.6859787,1.685976 0 0 0 -1.08505,2.12874 l 2.53298,7.79724 a 1.6863801,1.6863774 0 0 0 2.12955,1.08505 1.6859787,1.685976 0 0 0 1.08465,-2.12955 l -2.53338,-7.79686 a 1.6855773,1.6855746 0 0 0 -1.46159,-1.16252 z m 66.506636,0.004 a 1.6859787,1.685976 0 0 0 -1.46158,1.16252 l -2.53499,7.79644 a 1.6859787,1.685976 0 0 0 1.08464,2.12914 1.6859787,1.685976 0 0 0 2.12916,-1.08424 l 2.53499,-7.79724 a 1.6859787,1.685976 0 0 0 -1.08425,-2.12915 1.6968172,1.6968144 0 0 0 -0.66797,-0.0775 z m -77.223036,3.91789 a 1.6855773,1.6855746 0 0 0 -0.65553,0.14692 1.6859787,1.685976 0 0 0 -0.85743,2.22991 l 7.91607,17.80993 a 1.6855773,1.6855746 0 0 0 2.2299,0.85744 1.6859787,1.685976 0 0 0 0.85825,-2.22991 l -7.91647,-17.80972 a 1.6859787,1.685976 0 0 0 -1.57479,-1.00516 z m 88.060266,0.0592 a 1.6891902,1.6891874 0 0 0 -1.57598,1.00276 l -7.94016,17.79909 a 1.6859787,1.685976 0 0 0 0.85503,2.23111 1.6859787,1.685976 0 0 0 2.23112,-0.85503 l 7.94015,-17.79829 a 1.6859787,1.685976 0 0 0 -0.85503,-2.23151 1.70043,1.7004272 0 0 0 -0.65513,-0.14813 z m -98.007136,5.20321 a 1.6699218,1.6699191 0 0 0 -0.96262,0.22399 1.6859787,1.685976 0 0 0 -0.61819,2.30819 l 4.09894,7.09996 a 1.6859787,1.685976 0 0 0 2.30818,0.61819 1.6859787,1.685976 0 0 0 0.61819,-2.30818 l -4.09853,-7.09957 a 1.6859787,1.685976 0 0 0 -1.34557,-0.84258 z m 107.817526,0 a 1.6807603,1.6807575 0 0 0 -1.34477,0.84219 l -4.09972,7.09996 a 1.6859787,1.685976 0 0 0 0.61899,2.30818 1.6859787,1.685976 0 0 0 2.30818,-0.61819 l 4.09893,-7.10037 a 1.6859787,1.685976 0 0 0 -0.61818,-2.30818 1.6879858,1.6879832 0 0 0 -0.96343,-0.22359 z m -117.476576,6.02415 a 1.6940072,1.6940045 0 0 0 -0.93452,0.32234 1.6859787,1.685976 0 0 0 -0.375318,2.35997 l 11.444178,15.77592 a 1.6867816,1.6867789 0 0 0 2.36038,0.37533 1.6859787,1.685976 0 0 0 0.37531,-2.35956 l -11.44458,-15.77592 a 1.6847745,1.6847718 0 0 0 -1.42505,-0.69767 z m 127.256466,0.0859 a 1.6827673,1.6827646 0 0 0 -1.42546,0.69566 l -11.46586,15.76067 a 1.6859787,1.685976 0 0 0 0.37253,2.36036 1.6863801,1.6863774 0 0 0 2.36037,-0.37171 l 11.46506,-15.76027 a 1.6863801,1.6863774 0 0 0 -0.37253,-2.36036 1.687183,1.6871803 0 0 0 -0.93411,-0.32435 z m -135.889889,7.15483 a 1.6787531,1.6787504 0 0 0 -1.219122,0.43353 1.6859787,1.685976 0 0 0 -0.125234,2.38606 l 5.485454,6.0936 a 1.6855773,1.6855746 0 0 0 2.38606,0.12485 1.6863801,1.6863774 0 0 0 0.125234,-2.38646 l -5.484647,-6.0932 a 1.6847745,1.6847718 0 0 0 -1.167343,-0.55838 z m 144.414909,0.0121 a 1.6915986,1.6915959 0 0 0 -1.16773,0.55878 l -5.48506,6.09199 a 1.6859787,1.685976 0 0 0 0.12443,2.38686 1.6859787,1.685976 0 0 0 2.38647,-0.12524 l 5.48585,-6.092 a 1.6867816,1.6867789 0 0 0 -0.12523,-2.38686 1.6835702,1.6835675 0 0 0 -1.21832,-0.43353 z m -152.689449,7.93613 a 1.689993,1.6899902 0 0 0 -1.166941,0.55878 1.6859787,1.685976 0 0 0 0.125233,2.38646 l 14.485368,13.0394 a 1.6859787,1.685976 0 0 0 2.386057,-0.12525 1.6855773,1.6855746 0 0 0 -0.124851,-2.38605 L 36.754453,35.869884 a 1.6851759,1.6851732 0 0 0 -1.219524,-0.43353 z m 161.004139,0.0574 a 1.6811616,1.6811589 0 0 0 -1.22032,0.43233 l -14.4934,13.02938 a 1.6859787,1.685976 0 0 0 -0.12765,2.38606 1.6867816,1.6867789 0 0 0 2.38686,0.12685 l 14.49461,-13.02938 a 1.6859787,1.685976 0 0 0 0.12684,-2.38605 1.6851759,1.6851732 0 0 0 -1.16694,-0.55919 z m -167.885342,8.79116 a 1.6827673,1.6827646 0 0 0 -1.425454,0.69687 1.6855773,1.6855746 0 0 0 0.374133,2.36037 l 6.632319,4.81827 a 1.6851759,1.6851732 0 0 0 2.35997,-0.37332 1.6863801,1.6863774 0 0 0 -0.373329,-2.36037 l -6.632714,-4.81868 a 1.6879858,1.6879832 0 0 0 -0.934913,-0.32314 z m 174.759722,0.0614 a 1.6907958,1.6907931 0 0 0 -0.93451,0.32234 l -6.63554,4.81426 a 1.6867816,1.6867789 0 0 0 -0.37573,2.36037 1.6859787,1.685976 0 0 0 2.35997,0.37533 l 6.63593,-4.81467 a 1.6859787,1.685976 0 0 0 0.37493,-2.35956 1.6847745,1.6847718 0 0 0 -1.42505,-0.69807 z m -181.189722,9.37641 a 1.6811616,1.6811589 0 0 0 -1.344769,0.84219 1.6859787,1.685976 0 0 0 0.618189,2.30818 l 16.878657,9.74494 a 1.6859787,1.685976 0 0 0 2.308186,-0.61819 1.6859787,1.685976 0 0 0 -0.618194,-2.30819 l -16.878652,-9.74493 a 1.6883872,1.6883846 0 0 0 -0.963417,-0.22399 z m 187.574762,0 a 1.6727318,1.672729 0 0 0 -0.96341,0.224 l -16.87825,9.74494 a 1.6859787,1.685976 0 0 0 -0.6182,2.30818 1.6859787,1.685976 0 0 0 2.30819,0.61819 l 16.87905,-9.74454 a 1.6859787,1.685976 0 0 0 0.61819,-2.30818 1.6859787,1.685976 0 0 0 -1.34557,-0.84219 z M 17.361682,63.782434 a 1.6819645,1.6819618 0 0 0 -1.575588,1.00235 1.6859787,1.685976 0 0 0 0.854634,2.23151 l 7.487753,3.33984 a 1.6859787,1.685976 0 0 0 2.231509,-0.85463 1.6859787,1.685976 0 0 0 -0.855031,-2.23151 l -7.487349,-3.33984 a 1.6851759,1.6851732 0 0 0 -0.655928,-0.14732 z m 197.331768,0.06985 a 1.6891902,1.6891874 0 0 0 -0.65633,0.14732 l -7.48935,3.33422 a 1.6859787,1.685976 0 0 0 -0.85705,2.2307 1.687183,1.6871803 0 0 0 2.23192,0.85664 l 7.48896,-3.33462 a 1.6859787,1.685976 0 0 0 0.85624,-2.23071 1.6851759,1.6851732 0 0 0 -1.57439,-1.00355 z M 13.028715,74.297304 a 1.6847745,1.6847718 0 0 0 -1.461979,1.16091 1.6859787,1.685976 0 0 0 1.08264,2.12995 l 18.530909,6.0382 a 1.6859787,1.685976 0 0 0 2.130355,-1.08303 1.6859787,1.685976 0 0 0 -1.083041,-2.12995 l -18.530913,-6.03861 a 1.689993,1.6899902 0 0 0 -0.667971,-0.0779 z m 205.989675,0.0722 a 1.637005,1.6370024 0 0 0 -0.66717,0.0779 l -18.53533,6.02495 a 1.6859787,1.685976 0 0 0 -1.08424,2.12955 1.6859787,1.685976 0 0 0 2.12955,1.08384 l 18.53453,-6.02455 a 1.6863801,1.6863774 0 0 0 1.08504,-2.12955 1.6867816,1.6867789 0 0 0 -1.46238,-1.16252 z M 10.329144,85.334014 a 1.6855773,1.6855746 0 0 0 -1.663497,1.33955 1.6859787,1.685976 0 0 0 1.301815,2.0039 l 8.019236,1.70445 a 1.6859787,1.685976 0 0 0 2.003906,-1.30182 1.6859787,1.685976 0 0 0 -1.301414,-2.0039 l -8.018835,-1.70444 a 1.6574777,1.657475 0 0 0 -0.341208,-0.036 z m 211.367946,0.0161 a 2.077768,2.0777647 0 0 0 -0.34041,0.036 l -8.01964,1.70364 a 1.6855773,1.6855746 0 0 0 -1.30141,2.0031 1.6867816,1.6867789 0 0 0 2.0039,1.30262 l 8.01882,-1.70364 a 1.6867816,1.6867789 0 0 0 1.30223,-2.00372 1.6867816,1.6867789 0 0 0 -1.66349,-1.33955 z M 8.285496,96.436214 a 1.6851759,1.6851732 0 0 0 -1.51457,1.50413 1.6859787,1.685976 0 0 0 1.502529,1.85859 l 19.381529,2.048856 a 1.6859787,1.685976 0 0 0 1.858592,-1.50292 1.6859787,1.685976 0 0 0 -1.503331,-1.858186 L 8.628314,96.437374 a 1.7325438,1.7325411 0 0 0 -0.342814,-0.001 z m 215.469284,0.14574 a 1.5494947,1.5494923 0 0 0 -0.34362,0.001 l -19.38394,2.02318 a 1.6859787,1.685976 0 0 0 -1.50534,1.855766 1.6859787,1.685976 0 0 0 1.85618,1.50533 l 19.38395,-2.023156 a 1.6859787,1.685976 0 0 0 1.50534,-1.85577 1.6855773,1.6855746 0 0 0 -1.51258,-1.50695 z M 7.957534,107.80048 a 1.6859787,1.685976 0 0 0 -1.689993,1.68999 1.6859787,1.685976 0 0 0 1.689993,1.68919 h 8.198271 a 1.6863801,1.6863774 0 0 0 1.689993,-1.68959 1.6863801,1.6863774 0 0 0 -1.689993,-1.68999 z m 207.909286,0 a 1.6859787,1.685976 0 0 0 -1.69,1.68999 1.6859787,1.685976 0 0 0 1.69,1.68919 h 8.19827 a 1.6859787,1.685976 0 0 0 1.68958,-1.6896 1.6859787,1.685976 0 0 0 -1.68999,-1.68999 z m -187.879457,9.21065 a 1.5426706,1.5426681 0 0 0 -0.342815,0.002 L 8.259807,119.0359 a 1.6859787,1.685976 0 0 0 -1.505335,1.85577 1.6859787,1.685976 0 0 0 1.855774,1.50534 l 19.384745,-2.02317 a 1.6859787,1.685976 0 0 0 1.50534,-1.85578 1.6859787,1.685976 0 0 0 -1.51337,-1.50654 z m 176.036647,0.11963 a 1.6851759,1.6851732 0 0 0 -1.51457,1.50453 1.6859787,1.685976 0 0 0 1.50213,1.85819 l 19.38193,2.04886 a 1.6859787,1.685976 0 0 0 1.85819,-1.50293 1.6859787,1.685976 0 0 0 -1.50293,-1.85778 l -19.38113,-2.04926 a 1.7409737,1.7409709 0 0 0 -0.34362,-0.002 z M 18.325099,128.54602 a 1.7265225,1.7265198 0 0 0 -0.341208,0.036 l -8.019239,1.70364 a 1.6859787,1.685976 0 0 0 -1.301816,2.0039 1.6859787,1.685976 0 0 0 2.003906,1.30182 l 8.019637,-1.70284 a 1.6859787,1.685976 0 0 0 1.301414,-2.0039 1.6859787,1.685976 0 0 0 -1.662694,-1.33995 z m 195.370011,0.0161 a 1.6839716,1.6839689 0 0 0 -1.66269,1.33874 1.6855773,1.6855746 0 0 0 1.30061,2.0043 l 8.01964,1.70404 a 1.6855773,1.6855746 0 0 0 2.0043,-1.3006 1.6867816,1.6867789 0 0 0 -1.30181,-2.00511 l -8.01884,-1.70404 a 1.6574777,1.657475 0 0 0 -0.34121,-0.036 z m -181.866124,6.65513 a 1.637005,1.6370024 0 0 0 -0.667167,0.0779 l -18.535326,6.02496 a 1.6859787,1.685976 0 0 0 -1.084245,2.12915 1.6859787,1.685976 0 0 0 2.12915,1.08464 l 18.534528,-6.02536 a 1.6863801,1.6863774 0 0 0 1.085043,-2.12914 1.6867816,1.6867789 0 0 0 -1.461983,-1.16253 z m 168.345374,0.0598 a 1.6847745,1.6847718 0 0 0 -1.46198,1.16092 1.6859787,1.685976 0 0 0 1.08304,2.12995 l 18.53051,6.0382 a 1.6859787,1.685976 0 0 0 2.13036,-1.08304 1.6859787,1.685976 0 0 0 -1.08305,-2.12995 l -18.53091,-6.0382 a 1.689993,1.6899902 0 0 0 -0.66797,-0.0779 z M 24.756304,148.41362 a 1.684373,1.6843703 0 0 0 -0.655924,0.14655 l -7.490162,3.33462 a 1.6859787,1.685976 0 0 0 -0.855832,2.2307 1.6859787,1.685976 0 0 0 2.230706,0.85623 l 7.490162,-3.33421 a 1.6859787,1.685976 0 0 0 0.855835,-2.23071 1.6859787,1.685976 0 0 0 -1.575187,-1.00356 z m 182.482316,0.0642 a 1.6819645,1.6819618 0 0 0 -1.57599,1.00195 1.6859787,1.685976 0 0 0 0.85503,2.23151 l 7.48655,3.33984 a 1.6859787,1.685976 0 0 0 2.23191,-0.85503 1.6859787,1.685976 0 0 0 -0.85503,-2.23111 l -7.48655,-3.33984 a 1.6847745,1.6847718 0 0 0 -0.65592,-0.14735 z M 39.338819,152.1392 a 1.6727318,1.672729 0 0 0 -0.963418,0.22402 l -16.878253,9.74494 a 1.6859787,1.685976 0 0 0 -0.618191,2.30818 1.6859787,1.685976 0 0 0 2.307785,0.61819 l 16.87825,-9.74414 a 1.6867816,1.6867789 0 0 0 0.618195,-2.30858 1.6851759,1.6851732 0 0 0 -1.34477,-0.84259 z m 153.344981,0 a 1.6819645,1.6819618 0 0 0 -1.34558,0.84219 1.6867816,1.6867789 0 0 0 0.61821,2.30898 l 16.87864,9.74414 a 1.6867816,1.6867789 0 0 0 2.30859,-0.61819 1.6859787,1.685976 0 0 0 -0.61819,-2.30818 l -16.87906,-9.74495 a 1.6859787,1.685976 0 0 0 -0.96261,-0.22401 z M 35.12909,166.43988 a 1.6920001,1.6919974 0 0 0 -0.93532,0.32316 l -6.635528,4.81427 a 1.6859787,1.685976 0 0 0 -0.375356,2.35996 1.6859787,1.685976 0 0 0 2.359569,0.37535 l 6.636335,-4.81467 a 1.6859787,1.685976 0 0 0 0.375737,-2.35956 1.6867816,1.6867789 0 0 0 -1.425858,-0.69847 z m 161.72349,0.057 a 1.6827673,1.6827646 0 0 0 -1.42545,0.69688 1.6859787,1.685976 0 0 0 0.37413,2.36036 l 6.63232,4.81908 a 1.6855773,1.6855746 0 0 0 2.35996,-0.37412 1.6859787,1.685976 0 0 0 -0.37333,-2.35957 l -6.63232,-4.81908 a 1.6891902,1.6891874 0 0 0 -0.93531,-0.32396 z m -146.695397,0.58324 a 1.6795559,1.6795532 0 0 0 -1.219524,0.43234 l -14.494202,13.02938 a 1.6859787,1.685976 0 0 0 -0.12684,2.38606 1.6859787,1.685976 0 0 0 2.386061,0.12682 l 14.494186,-13.0294 a 1.6859787,1.685976 0 0 0 0.12684,-2.38605 1.684373,1.6843703 0 0 0 -1.166536,-0.55919 z m 131.666907,0.0466 a 1.6915986,1.6915959 0 0 0 -1.16734,0.55838 1.6859787,1.685976 0 0 0 0.12523,2.38646 l 14.48537,13.03941 a 1.6867816,1.6867789 0 0 0 2.38646,-0.12522 1.6859787,1.685976 0 0 0 -0.12523,-2.38605 l -14.48577,-13.0398 a 1.6835702,1.6835675 0 0 0 -1.21832,-0.43313 z M 63.908344,179.50465 a 1.6831687,1.683166 0 0 0 -1.42626,0.69566 l -11.465055,15.76026 a 1.6859787,1.685976 0 0 0 0.371723,2.36037 1.6859787,1.685976 0 0 0 2.360372,-0.37172 l 11.46546,-15.76067 a 1.6859787,1.685976 0 0 0 -0.37172,-2.36037 1.6831687,1.683166 0 0 0 -0.93452,-0.32354 z m 104.112396,0.0707 a 1.6907958,1.6907931 0 0 0 -0.93532,0.32235 1.6859787,1.685976 0 0 0 -0.37536,2.35956 l 11.44379,15.77592 a 1.6859787,1.685976 0 0 0 2.35997,0.37574 1.6859787,1.685976 0 0 0 0.37574,-2.35997 l -11.44419,-15.77596 a 1.6851759,1.6851732 0 0 0 -1.42505,-0.69768 z m -118.912879,2.43424 a 1.6915986,1.6915959 0 0 0 -1.167741,0.55838 l -5.485453,6.0932 a 1.6863801,1.6863774 0 0 0 0.124851,2.38646 1.6855773,1.6855746 0 0 0 2.38606,-0.12565 l 5.486257,-6.09199 A 1.6867816,1.6867789 0 0 0 50.326601,182.44313 1.6835702,1.6835675 0 0 0 49.10788,182.01 Z m 133.797259,0.008 a 1.676746,1.6767433 0 0 0 -1.21832,0.43314 1.6859787,1.685976 0 0 0 -0.12565,2.38605 l 5.48464,6.0936 a 1.6855773,1.6855746 0 0 0 2.38607,0.12522 1.6863801,1.6863774 0 0 0 0.12523,-2.38686 l -5.48462,-6.09284 a 1.6847745,1.6847718 0 0 0 -1.16775,-0.55878 z m -102.985996,6.7583 a 1.6811616,1.6811589 0 0 0 -1.57519,1.00195 l -7.94096,17.79909 a 1.6859787,1.685976 0 0 0 0.85503,2.23111 1.6859787,1.685976 0 0 0 2.23152,-0.85463 l 7.94056,-17.79868 a 1.6859787,1.685976 0 0 0 -0.85504,-2.23152 1.6883872,1.6883846 0 0 0 -0.65592,-0.14735 z m 72.077996,0.049 a 1.6879858,1.6879832 0 0 0 -0.65633,0.14655 1.6859787,1.685976 0 0 0 -0.85784,2.2303 l 7.91606,17.80953 a 1.6867816,1.6867789 0 0 0 2.23072,0.85744 1.6859787,1.685976 0 0 0 0.85744,-2.2299 l -7.91607,-17.80953 a 1.6863801,1.6863774 0 0 0 -1.57398,-1.00436 z m -86.031476,5.45413 a 1.6807603,1.6807575 0 0 0 -1.34477,0.84219 l -4.09894,7.09996 a 1.6859787,1.685976 0 0 0 0.61819,2.30818 1.6859787,1.685976 0 0 0 2.30819,-0.61819 l 4.09934,-7.10037 a 1.6859787,1.685976 0 0 0 -0.6186,-2.30818 1.6879858,1.6879832 0 0 0 -0.96341,-0.22359 z m 100.091736,0 a 1.6735346,1.6735319 0 0 0 -0.96261,0.22402 1.6859787,1.685976 0 0 0 -0.6182,2.30818 l 4.09894,7.09997 a 1.6859787,1.685976 0 0 0 2.30819,0.61818 1.6859787,1.685976 0 0 0 0.61819,-2.30817 l -4.09894,-7.09957 a 1.6859787,1.685976 0 0 0 -1.34557,-0.84258 z m -68.460766,0.25454 a 1.6839716,1.6839689 0 0 0 -1.6627,1.33873 l -4.05036,19.06478 a 1.6859787,1.685976 0 0 0 1.30181,2.0039 1.6859787,1.685976 0 0 0 2.00431,-1.30181 l 4.05036,-19.06438 a 1.6859787,1.685976 0 0 0 -1.64342,-2.04005 z m 36.770386,0.0119 a 1.6855773,1.6855746 0 0 0 -1.64343,2.03842 l 4.03591,19.06759 a 1.6859787,1.685976 0 0 0 2.0031,1.30342 1.6859787,1.685976 0 0 0 1.30343,-2.0031 l -4.03712,-19.06638 a 1.6859787,1.685976 0 0 0 -1.66189,-1.34075 z m -18.35549,1.92277 a 1.6859787,1.685976 0 0 0 -1.68959,1.69016 v 19.48949 a 1.6859787,1.685976 0 0 0 1.68999,1.68999 1.6859787,1.685976 0 0 0 1.68919,-1.68999 V 198.1588 a 1.6859787,1.685976 0 0 0 -1.68959,-1.69 z m -31.015986,6.29833 a 1.6867816,1.6867789 0 0 0 -1.46238,1.16212 l -2.53419,7.79684 a 1.6859787,1.685976 0 0 0 1.08464,2.12955 1.6863801,1.6863774 0 0 0 2.12915,-1.08505 l 2.53419,-7.79627 a 1.6859787,1.685976 0 0 0 -1.08424,-2.12915 1.6940072,1.6940045 0 0 0 -0.66717,-0.0778 z m 62.019126,0.004 a 1.6434278,1.6434252 0 0 0 -0.66717,0.0771 1.6863801,1.6863774 0 0 0 -1.08504,2.12955 l 2.53298,7.79683 a 1.6859787,1.685976 0 0 0 2.12955,1.08465 1.6859787,1.685976 0 0 0 1.08545,-2.12874 l -2.53419,-7.79691 a 1.6859787,1.685976 0 0 0 -1.46118,-1.16211 z m -41.60915,4.34255 a 1.6859787,1.685976 0 0 0 -1.51457,1.50533 l -0.85704,8.15371 a 1.6855773,1.6855746 0 0 0 1.50373,1.85657 1.6859787,1.685976 0 0 0 1.85738,-1.50372 l 0.85704,-8.1529 a 1.6859787,1.685976 0 0 0 -1.50373,-1.85739 1.7325438,1.7325411 0 0 0 -0.34281,-0.002 z m 21.14458,0.008 a 1.5494947,1.5494923 0 0 0 -0.34362,0.002 1.6859787,1.685976 0 0 0 -1.50534,1.85578 l 0.85182,8.1545 a 1.6851759,1.6851732 0 0 0 1.85578,1.50453 1.6859787,1.685976 0 0 0 1.50534,-1.85618 l -0.85103,-8.1537 a 1.6859787,1.685976 0 0 0 -1.51337,-1.50654 z"
       fill="#f4f2f3"
       paint-order="markers stroke fill"
       id="path34"
       style="stroke-width:4.01424" />
    <path
       d="M 129.26009,123.36161 102.76212,95.612444 196.75985,32.380324 Z"
       fill="#ff5150"
       paint-order="markers stroke fill"
       id="path38"
       style="stroke-width:4.01424" />
    <path
       d="M 129.26009,123.36161 102.76212,95.612444 35.262763,186.59414 Z"
       fill="#f1f1f1"
       paint-order="markers stroke fill"
       id="path40"
       style="stroke-width:4.01424" />
    <path
       d="M 35.262361,186.59374 129.25969,123.36161 196.75985,32.380324 Z"
       opacity="0.243"
       id="path42"
       style="stroke-width:4.01424" />
  </g>
</svg>
