<?xml version="1.0" encoding="UTF-8" standalone="no"?>
<!-- Created with Inkscape (http://www.inkscape.org/) -->

<svg
   width="1.212cm"
   height="1.212cm"
   viewBox="0 0 12.12 12.120001"
   version="1.1"
   id="svg5"
   inkscape:version="1.4.2 (f4327f4, 2025-05-13)"
   sodipodi:docname="bus.svg"
   xmlns:inkscape="http://www.inkscape.org/namespaces/inkscape"
   xmlns:sodipodi="http://sodipodi.sourceforge.net/DTD/sodipodi-0.dtd"
   xmlns:xlink="http://www.w3.org/1999/xlink"
   xmlns="http://www.w3.org/2000/svg"
   xmlns:svg="http://www.w3.org/2000/svg">
  <sodipodi:namedview
     id="namedview7"
     pagecolor="#505050"
     bordercolor="#ffffff"
     borderopacity="1"
     inkscape:pageshadow="0"
     inkscape:pageopacity="0"
     inkscape:pagecheckerboard="1"
     inkscape:document-units="mm"
     showgrid="false"
     units="cm"
     width="1.2cm"
     inkscape:zoom="11.313708"
     inkscape:cx="20.815457"
     inkscape:cy="26.737476"
     inkscape:window-width="1920"
     inkscape:window-height="1094"
     inkscape:window-x="-11"
     inkscape:window-y="-11"
     inkscape:window-maximized="1"
     inkscape:current-layer="layer1"
     inkscape:showpageshadow="0"
     inkscape:deskcolor="#d1d1d1" />
  <defs
     id="defs2">
    <linearGradient
       id="linearGradient1"
       inkscape:collect="always">
      <stop
         style="stop-color:#83c1ff;stop-opacity:1;"
         offset="0"
         id="stop1" />
      <stop
         style="stop-color:#006ad7;stop-opacity:1;"
         offset="1"
         id="stop2" />
    </linearGradient>
    <clipPath
       id="clip_1791">
      <path
         transform="matrix(1,0,0,-1,0,595.276)"
         d="M 0,-0.001 H 841.89 V 595.275 H 0 Z"
         id="path17" />
    </clipPath>
    <clipPath
       id="clip_1807">
      <path
         transform="matrix(1,0,0,-1,0,595.276)"
         d="M 0,-0.001 H 841.89 V 595.275 H 0 Z"
         id="path65" />
    </clipPath>
    <clipPath
       id="clip_1791-1">
      <path
         transform="matrix(1,0,0,-1,0,595.276)"
         d="M 0,-0.001 H 841.89 V 595.275 H 0 Z"
         id="path17-1" />
    </clipPath>
    <clipPath
       id="clip_1815">
      <path
         transform="matrix(1,0,0,-1,0,595.276)"
         d="M 0,-0.001 H 841.89 V 595.275 H 0 Z"
         id="path89" />
    </clipPath>
    <clipPath
       id="clip_1809">
      <path
         transform="matrix(1,0,0,-1,0,595.276)"
         d="M 0,-0.001 H 841.89 V 595.275 H 0 Z"
         id="path71" />
    </clipPath>
    <clipPath
       id="clip_1793">
      <path
         transform="matrix(1,0,0,-1,0,595.276)"
         d="M 0,-0.001 H 841.89 V 595.275 H 0 Z"
         id="path23" />
    </clipPath>
    <clipPath
       id="clip_1799">
      <path
         transform="matrix(1,0,0,-1,0,595.276)"
         d="M 0,-0.001 H 841.89 V 595.275 H 0 Z"
         id="path41" />
    </clipPath>
    <clipPath
       id="clip_1817">
      <path
         transform="matrix(1,0,0,-1,0,595.276)"
         d="M 0,-0.001 H 841.89 V 595.275 H 0 Z"
         id="path95" />
    </clipPath>
    <clipPath
       id="clip_1803">
      <path
         transform="matrix(1,0,0,-1,0,595.276)"
         d="M 0,-0.001 H 841.89 V 595.275 H 0 Z"
         id="path53" />
    </clipPath>
    <clipPath
       id="clip_1813">
      <path
         transform="matrix(1,0,0,-1,0,595.276)"
         d="M 0,-0.001 H 841.89 V 595.275 H 0 Z"
         id="path83" />
    </clipPath>
    <clipPath
       id="clip_1805">
      <path
         transform="matrix(1,0,0,-1,0,595.276)"
         d="M 0,-0.001 H 841.89 V 595.275 H 0 Z"
         id="path59" />
    </clipPath>
    <clipPath
       id="clip_1795">
      <path
         transform="matrix(1,0,0,-1,0,595.276)"
         d="M 0,-0.001 H 841.89 V 595.275 H 0 Z"
         id="path29" />
    </clipPath>
    <clipPath
       id="clip_1801">
      <path
         transform="matrix(1,0,0,-1,0,595.276)"
         d="M 0,-0.001 H 841.89 V 595.275 H 0 Z"
         id="path47" />
    </clipPath>
    <clipPath
       id="clip_1819">
      <path
         transform="matrix(1,0,0,-1,0,595.276)"
         d="M 0,-0.001 H 841.89 V 595.275 H 0 Z"
         id="path101" />
    </clipPath>
    <clipPath
       id="clip_1827">
      <path
         transform="matrix(1,0,0,-1,0,595.276)"
         d="M 0,-0.001 H 841.89 V 595.275 H 0 Z"
         id="path125" />
    </clipPath>
    <clipPath
       id="clip_1821">
      <path
         transform="matrix(1,0,0,-1,0,595.276)"
         d="M 0,-0.001 H 841.89 V 595.275 H 0 Z"
         id="path107" />
    </clipPath>
    <clipPath
       id="clip_1811">
      <path
         transform="matrix(1,0,0,-1,0,595.276)"
         d="M 0,-0.001 H 841.89 V 595.275 H 0 Z"
         id="path77" />
    </clipPath>
    <clipPath
       id="clip_1829">
      <path
         transform="matrix(1,0,0,-1,0,595.276)"
         d="M 0,-0.001 H 841.89 V 595.275 H 0 Z"
         id="path131" />
    </clipPath>
    <clipPath
       id="clip_1825">
      <path
         transform="matrix(1,0,0,-1,0,595.276)"
         d="M 0,-0.001 H 841.89 V 595.275 H 0 Z"
         id="path119" />
    </clipPath>
    <clipPath
       id="clip_2156">
      <path
         transform="matrix(1,0,0,-1,0,595.276)"
         d="M 0,-0.001 H 841.89 V 595.275 H 0 Z"
         id="path397" />
    </clipPath>
    <clipPath
       id="clip_2087">
      <path
         transform="matrix(1,0,0,-1,0,595.276)"
         d="M 0,-0.001 H 841.89 V 595.275 H 0 Z"
         id="path70" />
    </clipPath>
    <clipPath
       id="clip_2160">
      <path
         transform="matrix(1,0,0,-1,0,595.276)"
         d="M 0,-0.001 H 841.89 V 595.275 H 0 Z"
         id="path415" />
    </clipPath>
    <clipPath
       id="clip_2125">
      <path
         transform="matrix(1,0,0,-1,0,595.276)"
         d="M 0,-0.001 H 841.89 V 595.275 H 0 Z"
         id="path252" />
    </clipPath>
    <clipPath
       id="clip_2129">
      <path
         transform="matrix(1,0,0,-1,0,595.276)"
         d="M 0,-0.001 H 841.89 V 595.275 H 0 Z"
         id="path271" />
    </clipPath>
    <clipPath
       id="clip_2131">
      <path
         transform="matrix(1,0,0,-1,0,595.276)"
         d="M 0,-0.001 H 841.89 V 595.275 H 0 Z"
         id="path278" />
    </clipPath>
    <clipPath
       id="clip_2127">
      <path
         transform="matrix(1,0,0,-1,0,595.276)"
         d="M 0,-0.001 H 841.89 V 595.275 H 0 Z"
         id="path264" />
    </clipPath>
    <clipPath
       id="clip_2135">
      <path
         transform="matrix(1,0,0,-1,0,595.276)"
         d="M 0,-0.001 H 841.89 V 595.275 H 0 Z"
         id="path294" />
    </clipPath>
    <clipPath
       id="clip_2133">
      <path
         transform="matrix(1,0,0,-1,0,595.276)"
         d="M 0,-0.001 H 841.89 V 595.275 H 0 Z"
         id="path286" />
    </clipPath>
    <clipPath
       id="clip_2137">
      <path
         transform="matrix(1,0,0,-1,0,595.276)"
         d="M 0,-0.001 H 841.89 V 595.275 H 0 Z"
         id="path303" />
    </clipPath>
    <clipPath
       id="clip_2146">
      <path
         transform="matrix(1,0,0,-1,0,595.276)"
         d="M 0,-0.001 H 841.89 V 595.275 H 0 Z"
         id="path345" />
    </clipPath>
    <clipPath
       id="clip_2141">
      <path
         transform="matrix(1,0,0,-1,0,595.276)"
         d="M 0,-0.001 H 841.89 V 595.275 H 0 Z"
         id="path322" />
    </clipPath>
    <clipPath
       id="clip_2143">
      <path
         transform="matrix(1,0,0,-1,0,595.276)"
         d="M 0,-0.001 H 841.89 V 595.275 H 0 Z"
         id="path330" />
    </clipPath>
    <clipPath
       id="clip_2123">
      <path
         transform="matrix(1,0,0,-1,0,595.276)"
         d="M 0,-0.001 H 841.89 V 595.275 H 0 Z"
         id="path241" />
    </clipPath>
    <clipPath
       id="clip_2254">
      <path
         transform="matrix(1,0,0,-1,0,595.276)"
         d="M 0,-0.001 H 841.89 V 595.275 H 0 Z"
         id="path159" />
    </clipPath>
    <clipPath
       id="clip_2252">
      <path
         transform="matrix(1,0,0,-1,0,595.276)"
         d="M 0,-0.001 H 841.89 V 595.275 H 0 Z"
         id="path151" />
    </clipPath>
    <clipPath
       id="clip_2230">
      <path
         transform="matrix(1,0,0,-1,0,595.276)"
         d="M 0,-0.001 H 841.89 V 595.275 H 0 Z"
         id="path52" />
    </clipPath>
    <clipPath
       id="clip_2226">
      <path
         transform="matrix(1,0,0,-1,0,595.276)"
         d="M 0,-0.001 H 841.89 V 595.275 H 0 Z"
         id="path34" />
    </clipPath>
    <clipPath
       id="clip_2274">
      <path
         transform="matrix(1,0,0,-1,0,595.276)"
         d="M 0,-0.001 H 841.89 V 595.275 H 0 Z"
         id="path247" />
    </clipPath>
    <clipPath
       id="clip_2234">
      <path
         transform="matrix(1,0,0,-1,0,595.276)"
         d="M 0,-0.001 H 841.89 V 595.275 H 0 Z"
         id="path69" />
    </clipPath>
    <clipPath
       id="clip_2228">
      <path
         transform="matrix(1,0,0,-1,0,595.276)"
         d="M 0,-0.001 H 841.89 V 595.275 H 0 Z"
         id="path43" />
    </clipPath>
    <clipPath
       id="clip_2286">
      <path
         transform="matrix(1,0,0,-1,0,595.276)"
         d="M 0,-0.001 H 841.89 V 595.275 H 0 Z"
         id="path295" />
    </clipPath>
    <clipPath
       id="clip_2287">
      <path
         transform="matrix(1,0,0,-1,0,595.276)"
         d="m 693.669,498.614 c -3.759,0 -6.803,-3.046 -6.803,-6.803 v -20.41 c 0,-3.756 3.044,-6.802 6.803,-6.802 h 20.409 c 3.758,0 6.803,3.046 6.803,6.802 v 20.41 c 0,3.757 -3.045,6.803 -6.803,6.803 z"
         id="path298" />
    </clipPath>
    <clipPath
       id="clip_2288">
      <path
         transform="matrix(1,0,0,-1,0,595.276)"
         d="M 0,-0.001 H 841.89 V 595.275 H 0 Z"
         id="path301" />
    </clipPath>
    <clipPath
       id="clip_2222">
      <path
         transform="matrix(1,0,0,-1,0,595.276)"
         d="M 0,-0.001 H 841.89 V 595.275 H 0 Z"
         id="path20" />
    </clipPath>
    <clipPath
       id="clip_2266">
      <path
         transform="matrix(1,0,0,-1,0,595.276)"
         d="M 0,-0.001 H 841.89 V 595.275 H 0 Z"
         id="path209" />
    </clipPath>
    <clipPath
       id="clip_2268">
      <path
         transform="matrix(1,0,0,-1,0,595.276)"
         d="M 0,-0.001 H 841.89 V 595.275 H 0 Z"
         id="path220" />
    </clipPath>
    <clipPath
       id="clip_2270">
      <path
         transform="matrix(1,0,0,-1,0,595.276)"
         d="M 0,-0.001 H 841.89 V 595.275 H 0 Z"
         id="path232" />
    </clipPath>
    <clipPath
       id="clip_2262">
      <path
         transform="matrix(1,0,0,-1,0,595.276)"
         d="M 0,-0.001 H 841.89 V 595.275 H 0 Z"
         id="path195" />
    </clipPath>
    <clipPath
       id="clip_2272">
      <path
         transform="matrix(1,0,0,-1,0,595.276)"
         d="M 0,-0.001 H 841.89 V 595.275 H 0 Z"
         id="path239" />
    </clipPath>
    <clipPath
       id="clip_2236">
      <path
         transform="matrix(1,0,0,-1,0,595.276)"
         d="M 0,-0.001 H 841.89 V 595.275 H 0 Z"
         id="path78" />
    </clipPath>
    <clipPath
       id="clip_2232">
      <path
         transform="matrix(1,0,0,-1,0,595.276)"
         d="M 0,-0.001 H 841.89 V 595.275 H 0 Z"
         id="path61" />
    </clipPath>
    <clipPath
       id="clip_2278">
      <path
         transform="matrix(1,0,0,-1,0,595.276)"
         d="M 0,-0.001 H 841.89 V 595.275 H 0 Z"
         id="path263" />
    </clipPath>
    <clipPath
       id="clip_2276">
      <path
         transform="matrix(1,0,0,-1,0,595.276)"
         d="M 0,-0.001 H 841.89 V 595.275 H 0 Z"
         id="path255" />
    </clipPath>
    <clipPath
       id="clip_2256">
      <path
         transform="matrix(1,0,0,-1,0,595.276)"
         d="M 0,-0.001 H 841.89 V 595.275 H 0 Z"
         id="path169" />
    </clipPath>
    <clipPath
       id="clip_2256-6">
      <path
         transform="matrix(1,0,0,-1,0,595.276)"
         d="M 0,-0.001 H 841.89 V 595.275 H 0 Z"
         id="path169-1" />
    </clipPath>
    <clipPath
       id="clip_2250">
      <path
         transform="matrix(1,0,0,-1,0,595.276)"
         d="M 0,-0.001 H 841.89 V 595.275 H 0 Z"
         id="path144" />
    </clipPath>
    <clipPath
       id="clip_2248">
      <path
         transform="matrix(1,0,0,-1,0,595.276)"
         d="M 0,-0.001 H 841.89 V 595.275 H 0 Z"
         id="path136" />
    </clipPath>
    <clipPath
       id="clip_2250-0">
      <path
         transform="matrix(1,0,0,-1,0,595.276)"
         d="M 0,-0.001 H 841.89 V 595.275 H 0 Z"
         id="path144-4" />
    </clipPath>
    <clipPath
       id="clip_2258">
      <path
         transform="matrix(1,0,0,-1,0,595.276)"
         d="M 0,-0.001 H 841.89 V 595.275 H 0 Z"
         id="path175" />
    </clipPath>
    <clipPath
       id="clip_2246">
      <path
         transform="matrix(1,0,0,-1,0,595.276)"
         d="M 0,-0.001 H 841.89 V 595.275 H 0 Z"
         id="path125-5" />
    </clipPath>
    <clipPath
       id="clip_2246-9">
      <path
         transform="matrix(1,0,0,-1,0,595.276)"
         d="M 0,-0.001 H 841.89 V 595.275 H 0 Z"
         id="path125-1" />
    </clipPath>
    <linearGradient
       inkscape:collect="always"
       xlink:href="#linearGradient1"
       id="linearGradient2"
       x1="6.0623674"
       y1="2.621376"
       x2="6.0623674"
       y2="9.4959564"
       gradientUnits="userSpaceOnUse" />
  </defs>
  <g
     inkscape:label="Layer 1"
     inkscape:groupmode="layer"
     id="layer1">
    <path
       d="M 9.6601008,12.060048 H 2.4602593 c -1.3257389,0 -2.40029996,-1.074561 -2.40029996,-2.3999472 V 2.4599065 c 0,-1.325386 1.07456106,-2.39994712 2.40029996,-2.39994712 h 7.1998415 c 1.3253862,0 2.3999472,1.07456112 2.3999472,2.39994712 v 7.2001943 c 0,1.3253862 -1.074561,2.3999472 -2.3999472,2.3999472"
       fill="#ffffff"
       id="path643"
       style="stroke-width:0.352778;stroke:none;fill:#ffffff;fill-opacity:1" />
    <path
       stroke-width="0.116417"
       stroke-linecap="butt"
       stroke-miterlimit="10"
       stroke-linejoin="miter"
       fill="none"
       stroke="#000000"
       d="M 9.6601008,12.060048 H 2.4602593 c -1.3257389,0 -2.40029996,-1.074561 -2.40029996,-2.3999472 V 2.4599065 c 0,-1.325386 1.07456106,-2.39994712 2.40029996,-2.39994712 h 7.1998415 c 1.3253862,0 2.3999472,1.07456112 2.3999472,2.39994712 v 7.2001943 c 0,1.3253862 -1.074561,2.3999472 -2.3999472,2.3999472 z"
       id="path645"
       style="stroke:none" />
    <path
       d="m 8.3894658,8.4924801 c -0.263525,0 -0.4773083,-0.2137833 -0.4773083,-0.4773083 0,-0.2638778 0.2137833,-0.4773083 0.4773083,-0.4773083 0.263525,0 0.4773083,0.2134305 0.4773083,0.4773083 0,0.263525 -0.2137833,0.4773083 -0.4773083,0.4773083 m -4.6407916,0 c -0.263525,0 -0.4773083,-0.2137833 -0.4773083,-0.4773083 0,-0.2638778 0.2137833,-0.4773083 0.4773083,-0.4773083 0.263525,0 0.4773084,0.2134305 0.4773084,0.4773083 0,0.263525 -0.2137834,0.4773083 -0.4773084,0.4773083 M 3.7063409,3.9920941 C 3.7303298,3.7299802 3.9497576,3.5296024 4.2129298,3.5296024 h 3.8234055 c 0.2628194,0 0.4825999,0.2003778 0.5065888,0.4624917 L 8.671688,5.4003829 C 8.6988519,5.6984802 8.4646075,5.9553024 8.1650991,5.9553024 h -4.081286 c -0.2991555,0 -0.5337527,-0.2568222 -0.5065889,-0.5549195 z M 4.7646742,2.6691775 h 2.71145 c 0.1241777,0 0.2250722,0.1008944 0.2250722,0.2250722 0,0.1241777 -0.1008945,0.2247194 -0.2250722,0.2247194 h -2.71145 c -0.1241778,0 -0.2247194,-0.1005417 -0.2247194,-0.2247194 0,-0.1241778 0.1005416,-0.2250722 0.2247194,-0.2250722 m 4.7349832,2.992261 v 0 L 9.1535824,3.3059413 C 9.0713852,2.7474941 8.6596936,2.2962913 8.1114769,2.1636469 7.5057575,2.0172441 6.7060103,1.860258 6.0621909,1.8595525 5.4183714,1.860258 4.618977,2.0172441 4.0132576,2.1636469 3.4650409,2.2962913 3.0529965,2.7474941 2.971152,3.3059413 L 2.625077,5.6614385 v 3.5083749 h 0.67945 v 0.6438194 c 0,0.2451802 0.1989667,0.4441472 0.4441472,0.4441472 0.2451806,0 0.4441472,-0.198967 0.4441472,-0.4441472 V 9.1698134 h 3.7524972 v 0.6438194 c 0,0.2451802 0.1989666,0.4441472 0.4441472,0.4441472 0.2451806,0 0.4441472,-0.198967 0.4441472,-0.4441472 V 9.1698134 h 0.6660444 z"
       id="path647"
       style="stroke-width:0.352778;fill:url(#linearGradient2);fill-opacity:1" />
    <path
       d="m 6.058589,1.8594643 h 0.00353 0.00388 z"
       id="path649"
       style="stroke-width:0.352778" />
  </g>
</svg>
