<?xml version="1.0" encoding="UTF-8" standalone="no"?>
<!-- Created with Inkscape (http://www.inkscape.org/) -->

<svg
   width="500"
   height="250"
   viewBox="0 0 132.29166 66.145833"
   version="1.1"
   id="svg1"
   inkscape:version="1.3.2 (091e20e, 2023-11-25, custom)"
   sodipodi:docname="br01.svg"
   xmlns:inkscape="http://www.inkscape.org/namespaces/inkscape"
   xmlns:sodipodi="http://sodipodi.sourceforge.net/DTD/sodipodi-0.dtd"
   xmlns="http://www.w3.org/2000/svg"
   xmlns:svg="http://www.w3.org/2000/svg">
  <sodipodi:namedview
     id="namedview1"
     pagecolor="#9e652e"
     bordercolor="#ffffff"
     borderopacity="1"
     inkscape:showpageshadow="0"
     inkscape:pageopacity="0"
     inkscape:pagecheckerboard="false"
     inkscape:deskcolor="#d1d1d1"
     inkscape:document-units="mm"
     inkscape:zoom="2.0208096"
     inkscape:cx="254.84835"
     inkscape:cy="103.4239"
     inkscape:window-width="1920"
     inkscape:window-height="1009"
     inkscape:window-x="1912"
     inkscape:window-y="-8"
     inkscape:window-maximized="1"
     inkscape:current-layer="layer1" />
  <defs
     id="defs1">
    <rect
       x="157.85752"
       y="62.351248"
       width="271.17844"
       height="95.011425"
       id="rect4" />
  </defs>
  <g
     inkscape:label="Layer 1"
     inkscape:groupmode="layer"
     id="layer1">
    <path
       id="rect5"
       style="fill:#9e652e;stroke-width:0.953294"
       d="M -2.5431316e-6,-1.2715658e-6 H 132.29167 V 66.145835 H -2.5431316e-6 Z" />
    <path
       id="rect1"
       style="fill-opacity:0;stroke:#ffffff;stroke-width:0.953294"
       d="m 27.645174,14.144197 h 12.563614 c 3.97082,0 7.167545,3.196725 7.167545,7.167545 v 23.522352 c 0,3.970819 -3.196725,7.167544 -7.167545,7.167544 H 27.645174 c -3.97082,0 -7.167545,-3.196725 -7.167545,-7.167544 V 21.311742 c 0,-3.97082 3.196725,-7.167545 7.167545,-7.167545 z" />
    <path
       style="font-size:12.7px;line-height:1.25;font-family:'AR UDJingXiHeiE1G30 EB';-inkscape-font-specification:'AR UDJingXiHeiE1G30 EB';fill:#f9f9f9;stroke-width:0.264583"
       d="m 30.288433,30.493842 h -4.826 v -9.1821 h 4.4196 q 1.3081,0 2.0701,0.635 0.762,0.635 0.762,1.6891 0,0.6858 -0.3048,1.2065 -0.2921,0.508 -0.889,0.8382 0.7747,0.3048 1.1684,0.8382 0.4064,0.5334 0.4064,1.27 0,1.2192 -0.8001,1.9685 -0.8001,0.7366 -2.0066,0.7366 z m 0.7493,-6.6548 q 0,-0.6223 -0.3556,-0.9398 -0.3556,-0.3302 -1.0287,-0.3302 h -2.5781 v 2.5908 h 2.667 q 0.5715,0 0.9271,-0.3302 0.3683,-0.3429 0.3683,-0.9906 z m 0.381,3.937 q 0,-0.6604 -0.4064,-1.0033 -0.3937,-0.3556 -1.0414,-0.3556 h -2.8956 v 2.8194 h 2.8702 q 0.6731,0 1.0668,-0.3683 0.4064,-0.3683 0.4064,-1.0922 z m 9.042408,-3.8354 q 0,-0.6731 -0.3556,-1.016 -0.3556,-0.3556 -1.0287,-0.3556 h -2.7559 v 2.8575 h 2.667 q 0.6604,0 1.0668,-0.3937 0.4064,-0.3937 0.4064,-1.0922 z m -4.1402,2.7305 v 3.8227 h -1.6129 v -9.1821 h 4.6736 q 1.2573,0 1.9939,0.6731 0.7493,0.6604 0.7493,1.8796 0,0.8001 -0.381,1.3716 -0.3683,0.5715 -0.9271,0.8128 0.7112,0.4064 1.0922,1.4097 0.381,1.0033 0.4826,3.0353 h -1.6764 q -0.0762,-2.1336 -0.4699,-2.9718 -0.381,-0.8509 -1.2319,-0.8509 z"
       id="text2"
       aria-label="BR" />
    <path
       style="font-size:14.5521px;line-height:1.25;font-family:'AR UDJingXiHeiE1G30 EB';-inkscape-font-specification:'AR UDJingXiHeiE1G30 EB';fill:#f9f9f9;stroke-width:0.264583"
       d="m 34.523629,39.766528 q 0,2.750347 -0.887678,4.060036 -0.887678,1.309689 -2.750347,1.309689 -1.804461,0 -2.735795,-1.309689 -0.931334,-1.309689 -0.931334,-4.060036 0,-2.939524 0.887678,-4.220109 0.887678,-1.295137 2.779451,-1.295137 1.848117,0 2.735795,1.295137 0.90223,1.280585 0.90223,4.220109 z m -3.638025,3.929067 q 0.931334,0 1.367897,-0.916782 0.436563,-0.931334 0.436563,-3.012285 0,-2.241023 -0.422011,-3.157806 -0.407458,-0.916782 -1.382449,-0.916782 -0.974991,0 -1.397002,0.931335 -0.422011,0.916782 -0.422011,3.143253 0,2.066398 0.436563,2.997733 0.436563,0.931334 1.38245,0.931334 z m 7.97454,-7.07232 -1.702595,1.586178 -0.844022,-1.295136 2.735795,-2.48841 h 1.586179 v 10.521169 h -1.775357 z"
       id="text3"
       aria-label="01" />
    <path
       style="font-weight:500;font-size:72px;line-height:1.25;font-family:'Noto Sans TC';-inkscape-font-specification:'Noto Sans TC Medium';white-space:pre;fill:#f9f9f9"
       d="m 162.46542,121.47341 h 33.192 v 5.04 h -33.192 z m -1.8,-34.488004 h 36 v 5.112 h -36 z m 15.048,-5.904 h 6.264 v 52.416004 h -6.264 z m -15.192,52.128004 q 4.392,-0.432 10.152,-0.864 5.832,-0.504 12.312,-1.08 6.48,-0.648 12.888,-1.224 l 0.072,5.184 q -6.12,0.72 -12.384,1.368 -6.192,0.72 -11.88,1.296 -5.688,0.648 -10.296,1.08 z m 7.704,-24.264 v 4.392 h 21.456 v -4.392 z m 0,-8.64 v 4.392 h 21.456 v -4.392 z m -5.544,-4.464004 h 32.76 v 21.960004 h -32.76 z m 29.736,-20.592 3.168,5.112 q -4.392,0.936 -10.008,1.656 -5.544,0.72 -11.52,1.152 -5.904,0.36 -11.304,0.576 -0.144,-1.08 -0.648,-2.52 -0.432,-1.44 -0.936,-2.448 4.032,-0.216 8.28,-0.576 4.32,-0.36 8.496,-0.792 4.176,-0.432 7.848,-0.936 3.744,-0.576 6.624,-1.224 z m 3.96,15.984 h 25.488 v 6.336 h -25.488 z m 22.824,0 h 6.552 q 0,0 0,0.648 0,0.648 -0.072,1.368 0,0.72 0,1.224 -0.288,11.232004 -0.576,19.080004 -0.288,7.776 -0.72,12.744 -0.36,4.968 -1.008,7.704 -0.576,2.736 -1.44,3.96 -1.08,1.584 -2.376,2.232 -1.224,0.648 -2.88,0.864 -1.584,0.288 -3.96,0.288 -2.376,0 -4.896,-0.144 -0.144,-1.368 -0.72,-3.24 -0.504,-1.872 -1.296,-3.24 2.52,0.216 4.608,0.288 2.088,0 3.168,0 0.864,0 1.44,-0.216 0.576,-0.216 1.08,-0.936 0.648,-0.792 1.08,-3.312 0.504,-2.52 0.792,-7.272 0.36,-4.824 0.648,-12.312 0.36,-7.488 0.576,-18.216004 z m -14.904,-15.552 h 6.552 q -0.072,8.856 -0.288,16.992 -0.144,8.136004 -0.936,15.408004 -0.72,7.2 -2.592,13.464 -1.8,6.264 -5.04,11.376 -3.168,5.112 -8.28,9 -0.504,-0.792 -1.368,-1.8 -0.792,-0.936 -1.728,-1.8 -0.936,-0.864 -1.8,-1.368 4.824,-3.528 7.776,-8.136 2.952,-4.68 4.536,-10.368 1.656,-5.76 2.232,-12.456 0.648,-6.768004 0.792,-14.328004 0.144,-7.56 0.144,-15.984 z m 63.432,-1.008 6.192,1.152 q -1.296,5.976 -3.312,11.52 -1.944,5.544 -4.536,10.368 -2.52,4.752004 -5.472,8.352004 -0.576,-0.504 -1.512,-1.224 -0.936,-0.792 -1.944,-1.512 -1.008,-0.72 -1.8,-1.152 3.024,-3.168004 5.328,-7.560004 2.376,-4.392 4.104,-9.432 1.8,-5.112 2.952,-10.512 z m 24.552,11.664 h 6.48 q 0,0 0,0.648 0,0.648 0,1.44 0,0.72 -0.072,1.224 -0.576,12.240004 -1.224,20.736004 -0.576,8.496 -1.224,13.968 -0.648,5.472 -1.512,8.568 -0.792,3.096 -1.872,4.392 -1.152,1.656 -2.376,2.304 -1.224,0.648 -2.952,0.936 -1.44,0.216 -3.672,0.216 -2.16,0.072 -4.536,-0.072 -0.072,-1.512 -0.576,-3.456 -0.432,-1.872 -1.296,-3.24 2.304,0.216 4.176,0.288 1.872,0 2.88,0 0.936,0 1.512,-0.216 0.576,-0.288 1.224,-1.008 0.792,-1.008 1.512,-3.816 0.72,-2.808 1.296,-8.064 0.648,-5.256 1.152,-13.392 0.576,-8.208004 1.08,-19.872004 z m -23.904,0 h 26.784 v 6.336 h -29.736 z m 6.408,2.016 5.04,2.52 q -1.512,6.264 -4.176,12.816004 -2.592,6.48 -6.048,12.096 -3.456,5.616 -7.488,9.288 -0.936,-0.936 -2.448,-2.016 -1.44,-1.152 -2.88,-1.872 3.168,-2.52 5.976,-6.12 2.808,-3.672 5.112,-8.064 2.304,-4.464 4.032,-9.216004 1.728,-4.824 2.88,-9.432 z m 10.152,0.648 5.328,2.448 q -1.296,7.2 -3.456,14.256004 -2.16,7.056 -5.112,13.536 -2.88,6.48 -6.624,11.808 -3.672,5.328 -8.28,9 -0.936,-0.936 -2.592,-2.16 -1.584,-1.152 -3.024,-1.872 4.752,-3.384 8.568,-8.424 3.816,-5.112 6.696,-11.376 2.952,-6.264 5.04,-13.176 2.16,-6.984004 3.456,-14.040004 z m -52.776,25.344004 q 3.456,-0.864 7.848,-2.088 4.464,-1.224 9.36,-2.664 4.968,-1.44 9.936,-2.88 l 0.864,6.048 q -6.768,2.088 -13.752,4.248 -6.984,2.16 -12.528,3.888 z m 13.176,-39.672004 h 6.336 v 66.816004 h -6.336 z m -9.144,4.104 5.76,0.936 q -0.504,4.824 -1.296,9.576 -0.72,4.752 -1.728,8.928 -1.008,4.176004 -2.376,7.416004 -0.576,-0.432 -1.512,-1.008 -0.864,-0.576 -1.872,-1.152 -0.936,-0.576 -1.584,-0.936 1.296,-2.952004 2.16,-6.840004 0.864,-3.888 1.44,-8.208 0.648,-4.32 1.008,-8.712 z m 1.152,10.296 h 21.096 v 6.48 h -22.32 z m 79.56,7.2 h 41.544 v 4.032004 h -41.544 z m 3.888,-7.704 h 34.272 v 3.96 h -34.272 z m 13.68,-3.6 h 6.192 v 13.68 h -6.192 z m -0.216,25.992004 4.68,1.728 q -2.376,2.088 -5.832,3.96 -3.456,1.8 -7.272,3.312 -3.744,1.44 -7.344,2.448 -0.288,-0.504 -0.936,-1.152 -0.576,-0.72 -1.224,-1.44 -0.648,-0.792 -1.224,-1.224 3.528,-0.864 7.128,-1.944 3.6,-1.152 6.768,-2.592 3.168,-1.44 5.256,-3.096 z m 20.232,3.6 4.248,2.664 q -2.376,1.728 -5.112,3.24 -2.736,1.512 -5.112,2.592 l -3.456,-2.376 q 1.512,-0.792 3.24,-1.872 1.8,-1.08 3.384,-2.16 1.656,-1.152 2.808,-2.088 z m -27.648,-8.568 v 4.104 h 21.816 v -4.104 z m -5.688,-3.312 h 33.552 v 10.656 h -33.552 z m -13.752,-25.056004 h 60.912 v 63.936004 h -6.696 V 83.817406 h -47.736 v 57.744004 h -6.48 z m 4.104,54.864004 h 53.712 v 6.192 h -53.712 z m 24.552,-15.624 4.176,-2.376 q 3.096,1.728 6.624,4.032 3.528,2.304 6.768,4.608 3.24,2.232 5.4,4.032 l -4.464,2.808 q -1.944,-1.8 -5.112,-4.104 -3.096,-2.376 -6.624,-4.68 -3.528,-2.376 -6.768,-4.32 z m -11.592,15.192 -0.288,-3.888 2.16,-1.8 14.112,-3.312 q -0.072,1.008 -0.072,2.232 0,1.224 0.072,2.016 -4.824,1.224 -7.848,2.088 -2.952,0.792 -4.608,1.296 -1.656,0.504 -2.376,0.864 -0.72,0.288 -1.152,0.504 z m 0,0 q -0.216,-0.864 -0.792,-2.016 -0.504,-1.224 -0.936,-1.8 0.792,-0.36 1.656,-1.152 0.936,-0.864 0.936,-2.808 v -8.136 h 5.04 v 11.88 q 0,0 -0.936,0.432 -0.864,0.36 -2.016,1.008 -1.152,0.576 -2.088,1.296 -0.864,0.648 -0.864,1.296 z"
       id="text4"
       transform="matrix(0.26458333,0,0,0.26458333,9.3995206,-4.4771203)"
       aria-label="動物園" />
    <path
       style="font-size:7.40833px;line-height:1.25;font-family:'AR UDJingXiHeiE1G30 EB';-inkscape-font-specification:'AR UDJingXiHeiE1G30 EB';fill:#f9f9f9;stroke-width:0.264583"
       d="m 53.537696,36.350686 h -1.666875 v -0.733425 h 4.267198 v 0.733425 h -1.659466 v 4.622798 h -0.940857 z m 6.163729,2.459566 -0.84455,-2.289174 -0.859366,2.289174 z m -1.978024,0.733424 -0.5334,1.429808 h -0.955675 l 2.155824,-5.356223 h 0.963083 l 2.141008,5.356223 h -0.9779 l -0.540808,-1.429808 z m 5.326582,-3.926415 v 5.356223 h -0.940858 v -5.356223 z m 2.170636,3.230032 v 2.126191 h -0.940858 v -5.356223 h 2.518832 q 0.785283,0 1.229783,0.429683 0.444499,0.429684 0.444499,1.140883 0,0.8001 -0.459316,1.229783 -0.451908,0.429683 -1.222374,0.429683 z m 2.296582,-1.644649 q 0,-0.414867 -0.237067,-0.629708 -0.237066,-0.22225 -0.696383,-0.22225 h -1.363132 v 1.763182 h 1.363132 q 0.459317,0 0.696383,-0.222249 0.237067,-0.229659 0.237067,-0.688975 z m 5.822946,3.77084 H 69.37669 v -5.356223 h 3.941232 v 0.733425 h -3.000374 v 1.511299 h 2.800349 v 0.733425 h -2.800349 v 1.644649 h 3.022599 z m 1.933578,-5.356223 v 5.356223 h -0.940858 v -5.356223 z m 3.052219,0 h 4.193115 v 0.674158 l -3.230032,3.94864 h 3.304115 v 0.733425 h -4.511673 v -0.674158 l 3.230032,-3.94864 h -2.985557 z m 10.282763,2.704041 q 0,1.289049 -0.718608,2.022474 -0.7112,0.726016 -1.948391,0.726016 -1.259416,0 -1.970616,-0.733425 -0.7112,-0.733424 -0.7112,-2.015065 0,-1.303866 0.718609,-2.044699 0.718608,-0.748242 1.963207,-0.748242 1.259416,0 1.963207,0.740833 0.703792,0.740833 0.703792,2.052108 z m -2.666999,2.015065 q 0.807508,0 1.244599,-0.533399 0.4445,-0.5334 0.4445,-1.481666 0,-0.940858 -0.4445,-1.496483 -0.444499,-0.563033 -1.244599,-0.563033 -0.814916,0 -1.266824,0.570441 -0.4445,0.563033 -0.4445,1.489075 0,0.948266 0.451908,1.481666 0.451908,0.533399 1.259416,0.533399 z m 8.838139,-2.015065 q 0,1.289049 -0.718608,2.022474 -0.711199,0.726016 -1.94839,0.726016 -1.259416,0 -1.970616,-0.733425 -0.7112,-0.733424 -0.7112,-2.015065 0,-1.303866 0.718608,-2.044699 0.718608,-0.748242 1.963208,-0.748242 1.259416,0 1.963207,0.740833 0.703791,0.740833 0.703791,2.052108 z m -2.666998,2.015065 q 0.807508,0 1.244599,-0.533399 0.4445,-0.5334 0.4445,-1.481666 0,-0.940858 -0.4445,-1.496483 -0.4445,-0.563033 -1.244599,-0.563033 -0.814917,0 -1.266825,0.570441 -0.4445,0.563033 -0.4445,1.489075 0,0.948266 0.451909,1.481666 0.451908,0.533399 1.259416,0.533399 z"
       id="text5"
       aria-label="TAIPEI ZOO" />
    <path
       style="font-weight:500;font-size:7.40833px;line-height:1.25;font-family:'Noto Sans JP';-inkscape-font-specification:'Noto Sans JP Medium';fill:#f9f9f9;stroke-width:0.264583"
       d="m 52.125126,48.34065 h 3.415241 v 0.518583 h -3.415241 z m -0.185208,-3.54859 h 3.704165 v 0.525992 h -3.704165 z m 1.548341,-0.607483 h 0.644525 v 5.393264 h -0.644525 z m -1.563157,5.363631 q 0.451908,-0.04445 1.044574,-0.0889 0.600075,-0.05186 1.266825,-0.111125 0.666749,-0.06667 1.326091,-0.125941 l 0.0074,0.533399 q -0.629708,0.07408 -1.274233,0.140759 -0.637116,0.07408 -1.222374,0.13335 -0.585258,0.06668 -1.059391,0.111125 z m 0.792691,-2.496607 v 0.451908 h 2.207682 v -0.451908 z m 0,-0.889 v 0.451908 h 2.207682 v -0.451908 z m -0.570442,-0.459316 h 3.370791 v 2.259541 h -3.370791 z m 3.059641,-2.118782 0.325966,0.525991 q -0.451908,0.09631 -1.029758,0.170392 -0.570441,0.07408 -1.185332,0.118533 -0.607483,0.03704 -1.163108,0.05927 -0.01482,-0.111124 -0.06668,-0.259291 -0.04445,-0.148167 -0.09631,-0.251883 0.414866,-0.02222 0.851957,-0.05927 0.4445,-0.03704 0.874183,-0.08149 0.429684,-0.04445 0.807508,-0.09631 0.385234,-0.05927 0.681567,-0.125941 z m 0.407458,1.644649 h 2.622549 v 0.651933 H 55.61445 Z m 2.34844,0 h 0.674159 q 0,0 0,0.06668 0,0.06667 -0.0074,0.140758 0,0.07408 0,0.125942 -0.02963,1.155699 -0.05927,1.963207 -0.02963,0.8001 -0.07408,1.311274 -0.03704,0.511175 -0.103716,0.792692 -0.05927,0.281516 -0.148167,0.407458 -0.111125,0.162983 -0.244475,0.229658 -0.125941,0.06668 -0.296333,0.0889 -0.162983,0.02963 -0.407458,0.02963 -0.244475,0 -0.503767,-0.01482 -0.01482,-0.140759 -0.07408,-0.333375 -0.05186,-0.192617 -0.13335,-0.333375 0.259292,0.02222 0.474133,0.02963 0.214842,0 0.325967,0 0.0889,0 0.148166,-0.02222 0.05927,-0.02222 0.111125,-0.09631 0.06668,-0.08149 0.111125,-0.340783 0.05186,-0.259292 0.08149,-0.748241 0.03704,-0.496359 0.06668,-1.266825 0.03704,-0.770466 0.05927,-1.874307 z m -1.533524,-1.6002 h 0.674158 q -0.0074,0.911225 -0.02963,1.748366 -0.01482,0.837142 -0.09631,1.585383 -0.07408,0.740833 -0.2667,1.385358 -0.185209,0.644524 -0.518583,1.170516 -0.325967,0.525991 -0.851958,0.926041 -0.05186,-0.08149 -0.140759,-0.185208 -0.08149,-0.09631 -0.1778,-0.185208 -0.09631,-0.0889 -0.185208,-0.140759 0.496358,-0.363008 0.8001,-0.837141 0.303741,-0.481541 0.466725,-1.0668 0.170391,-0.592666 0.229658,-1.281641 0.06667,-0.696383 0.08149,-1.474257 0.01482,-0.777875 0.01482,-1.64465 z m 6.526739,-0.103716 0.637116,0.118533 q -0.13335,0.614892 -0.340783,1.185333 -0.200025,0.570441 -0.466725,1.066799 -0.259291,0.48895 -0.563033,0.859367 -0.05927,-0.05186 -0.155575,-0.125942 -0.09631,-0.08149 -0.200025,-0.155575 -0.103716,-0.07408 -0.185208,-0.118533 0.31115,-0.325967 0.548217,-0.777875 0.244474,-0.451908 0.422274,-0.970491 0.185209,-0.525991 0.303742,-1.081616 z m 2.52624,1.200149 h 0.66675 q 0,0 0,0.06667 0,0.06668 0,0.148167 0,0.07408 -0.0074,0.125942 -0.05927,1.259416 -0.125942,2.133599 -0.05927,0.874182 -0.125941,1.437216 -0.06668,0.563033 -0.155575,0.881591 -0.08149,0.318558 -0.192617,0.451908 -0.118533,0.170392 -0.244475,0.237067 -0.125941,0.06667 -0.303741,0.09631 -0.148167,0.02222 -0.377825,0.02222 -0.22225,0.0074 -0.466725,-0.0074 -0.0074,-0.155574 -0.05927,-0.355599 -0.04445,-0.192617 -0.13335,-0.333375 0.237067,0.02222 0.429684,0.02963 0.192616,0 0.296333,0 0.09631,0 0.155575,-0.02222 0.05927,-0.02963 0.125941,-0.103717 0.08149,-0.103716 0.155575,-0.392641 0.07408,-0.288925 0.13335,-0.829733 0.06668,-0.540808 0.118533,-1.377949 0.05927,-0.84455 0.111125,-2.044699 z m -2.459565,0 h 2.755899 v 0.651933 h -3.059641 z m 0.659341,0.207434 0.518583,0.259291 q -0.155575,0.644525 -0.429683,1.318683 -0.2667,0.66675 -0.6223,1.244599 -0.355599,0.57785 -0.770466,0.955675 -0.09631,-0.09631 -0.251883,-0.207433 -0.148167,-0.118534 -0.296333,-0.192617 0.325966,-0.259292 0.614891,-0.629708 0.288925,-0.377825 0.525992,-0.829733 0.237066,-0.459316 0.414866,-0.948266 0.1778,-0.496358 0.296333,-0.970491 z m 1.044575,0.06667 0.548216,0.251883 q -0.13335,0.740833 -0.3556,1.466849 -0.22225,0.726016 -0.525991,1.392766 -0.296333,0.66675 -0.681566,1.214966 -0.377825,0.548217 -0.851958,0.926041 -0.09631,-0.09631 -0.2667,-0.222249 -0.162984,-0.118534 -0.31115,-0.192617 0.48895,-0.348192 0.881591,-0.866775 0.392642,-0.525991 0.688975,-1.170516 0.303741,-0.644524 0.518583,-1.355724 0.22225,-0.718608 0.3556,-1.444624 z m -5.430306,2.607732 q 0.3556,-0.0889 0.807508,-0.214842 0.459316,-0.125941 0.963083,-0.274108 0.511174,-0.148167 1.022349,-0.296333 l 0.0889,0.622299 q -0.696383,0.214842 -1.414991,0.437092 -0.718608,0.22225 -1.289049,0.40005 z m 1.355724,-4.08199 h 0.651933 v 6.87493 h -0.651933 z m -0.940858,0.422275 0.592667,0.09631 q -0.05186,0.496358 -0.13335,0.985308 -0.07408,0.48895 -0.1778,0.918633 -0.103717,0.429683 -0.244475,0.763058 -0.05927,-0.04445 -0.155575,-0.103717 -0.0889,-0.05927 -0.192617,-0.118533 -0.09631,-0.05927 -0.162983,-0.09631 0.13335,-0.303742 0.22225,-0.703792 0.0889,-0.40005 0.148167,-0.844549 0.06667,-0.4445 0.103716,-0.896408 z m 0.118534,1.059391 h 2.17064 v 0.66675 h -2.296582 z m 8.186204,0.740833 h 4.274607 v 0.414866 h -4.274607 z m 0.40005,-0.792691 h 3.526365 v 0.407458 h -3.526365 z m 1.407583,-0.370417 h 0.637116 v 1.407583 h -0.637116 z m -0.0889,3.163357 h 0.6223 v 1.533524 h -0.6223 z m 0.681566,-0.13335 q 0.200025,0.259292 0.525992,0.496358 0.325966,0.229658 0.718608,0.414867 0.392641,0.1778 0.792691,0.274108 -0.0889,0.08149 -0.200025,0.22225 -0.103717,0.13335 -0.162983,0.229658 -0.414867,-0.13335 -0.822325,-0.3556 -0.40005,-0.22225 -0.740833,-0.503766 -0.340783,-0.288925 -0.570441,-0.607483 z m -0.288925,-0.251883 0.540808,0.192616 q -0.281516,0.325967 -0.681566,0.614892 -0.40005,0.281516 -0.84455,0.511175 -0.444499,0.229658 -0.881591,0.400049 -0.04445,-0.06667 -0.118533,-0.148166 -0.06668,-0.0889 -0.140758,-0.170392 -0.07408,-0.0889 -0.13335,-0.140758 0.429683,-0.13335 0.859366,-0.318558 0.429683,-0.192617 0.792691,-0.429683 0.370417,-0.237067 0.607483,-0.511175 z m 1.711324,0.185208 0.429684,0.2667 q -0.237067,0.200025 -0.525992,0.385233 -0.281516,0.1778 -0.525991,0.303742 l -0.3556,-0.244475 q 0.155575,-0.09631 0.333375,-0.22225 0.185208,-0.125942 0.3556,-0.251883 0.170391,-0.13335 0.288924,-0.237067 z m -2.800348,-0.7112 v 0.503767 h 2.244724 v -0.503767 z m -0.585258,-0.377824 h 3.452281 v 1.266824 h -3.452281 z m -1.414991,-2.629958 h 6.267447 v 6.578597 h -0.688975 v -5.94148 h -4.911723 v 5.94148 h -0.666749 z m 0.422274,5.645148 h 5.526615 v 0.637116 h -5.526615 z"
       id="text5-9"
       aria-label="動物園" />
    <path
       style="font-weight:500;font-size:7.40833px;line-height:1.25;font-family:'Noto Sans KR';-inkscape-font-specification:'Noto Sans KR Medium';fill:#f9f9f9;stroke-width:0.264583"
       d="m 79.201158,46.888618 h 6.11928 v 0.622299 h -6.11928 z m 2.666999,-1.059392 h 0.770466 v 1.303867 h -0.770466 z m -1.91135,-0.244474 h 4.652432 v 0.622299 h -4.652432 z m 0,-1.666875 h 4.61539 v 0.614892 h -3.844923 v 1.437216 h -0.770467 z m 2.281766,4.007907 q 1.096433,0 1.711324,0.325966 0.6223,0.318559 0.6223,0.903817 0,0.592666 -0.6223,0.911224 -0.614891,0.318558 -1.711324,0.318558 -1.081616,0 -1.703916,-0.318558 -0.6223,-0.318558 -0.6223,-0.911224 0,-0.585258 0.6223,-0.903817 0.6223,-0.325966 1.703916,-0.325966 z m 0,0.600075 q -0.48895,0 -0.837141,0.07408 -0.348192,0.07408 -0.5334,0.214841 -0.1778,0.13335 -0.1778,0.340784 0,0.207433 0.1778,0.355599 0.185208,0.140759 0.5334,0.214842 0.348191,0.06667 0.837141,0.06667 0.503767,0 0.84455,-0.06667 0.348191,-0.07408 0.525991,-0.214842 0.1778,-0.148166 0.1778,-0.355599 0,-0.207434 -0.1778,-0.340784 -0.1778,-0.140758 -0.525991,-0.214841 -0.340783,-0.07408 -0.84455,-0.07408 z m 6.43784,-1.681691 h 0.770466 v 0.992716 H 88.676413 Z M 86.009414,46.39226 h 6.11928 v 0.622299 h -6.11928 z m 0.777874,-2.563283 h 4.556123 v 2.089149 h -4.556123 z m 3.793065,0.607483 h -3.037415 v 0.881592 h 3.037415 z m -3.852331,3.133724 h 4.630206 V 49.1852 h -3.852332 v 0.726016 h -0.763058 v -1.274232 h 3.852332 v -0.481542 h -3.867148 z m 0.01482,2.163232 h 4.808007 v 0.592667 h -4.808007 z m 7.934323,-2.674407 h 0.770466 v 1.489075 h -0.770466 z m 2.978148,-3.437465 h 0.777875 v 5.133973 h -0.777875 z m -3.956048,6.000747 h 4.896906 v 0.629708 h -4.896906 z m 0,-1.363132 h 0.777875 v 1.533524 h -0.777875 z m -0.807508,-0.940858 -0.09631,-0.629708 q 0.622299,-0.0074 1.355724,-0.01482 0.733425,-0.01482 1.496483,-0.05186 0.770466,-0.04445 1.481666,-0.13335 l 0.05927,0.555625 q -0.726016,0.118533 -1.489074,0.1778 -0.75565,0.05927 -1.474258,0.07408 -0.718608,0.01482 -1.333499,0.02222 z m 3.437465,0.2667 h 1.518708 v 0.548216 h -1.518708 z m -1.348316,-3.711574 q 0.503767,0 0.874183,0.148167 0.377825,0.148167 0.585258,0.422275 0.214842,0.2667 0.214842,0.6223 0,0.355599 -0.214842,0.629708 -0.207433,0.274108 -0.585258,0.422274 -0.370416,0.140759 -0.874183,0.140759 -0.48895,0 -0.874183,-0.140759 -0.377825,-0.148166 -0.592666,-0.422274 -0.207433,-0.274109 -0.207433,-0.629708 0,-0.3556 0.207433,-0.6223 0.214841,-0.274108 0.592666,-0.422275 0.385233,-0.148167 0.874183,-0.148167 z m 0,0.570442 q -0.414866,0 -0.681566,0.170391 -0.259292,0.162984 -0.259292,0.451909 0,0.288924 0.259292,0.459316 0.2667,0.162983 0.681566,0.162983 0.414867,0 0.674158,-0.162983 0.259292,-0.170392 0.259292,-0.459316 0,-0.192617 -0.118534,-0.325967 -0.118533,-0.140758 -0.325966,-0.214842 -0.207433,-0.08149 -0.48895,-0.08149 z"
       id="text5-9-8"
       aria-label="동물원" />
  </g>
</svg>
