<?xml version="1.0" encoding="UTF-8" standalone="no"?>
<!-- Created with Inkscape (http://www.inkscape.org/) -->

<svg
   width="500"
   height="250"
   viewBox="0 0 132.29166 66.145833"
   version="1.1"
   id="svg1"
   inkscape:version="1.3.2 (091e20e, 2023-11-25, custom)"
   sodipodi:docname="br02.svg"
   xmlns:inkscape="http://www.inkscape.org/namespaces/inkscape"
   xmlns:sodipodi="http://sodipodi.sourceforge.net/DTD/sodipodi-0.dtd"
   xmlns="http://www.w3.org/2000/svg"
   xmlns:svg="http://www.w3.org/2000/svg">
  <sodipodi:namedview
     id="namedview1"
     pagecolor="#9e652e"
     bordercolor="#ffffff"
     borderopacity="1"
     inkscape:showpageshadow="0"
     inkscape:pageopacity="0"
     inkscape:pagecheckerboard="false"
     inkscape:deskcolor="#d1d1d1"
     inkscape:document-units="mm"
     inkscape:zoom="2.0208096"
     inkscape:cx="254.84835"
     inkscape:cy="103.4239"
     inkscape:window-width="1920"
     inkscape:window-height="1009"
     inkscape:window-x="1912"
     inkscape:window-y="-8"
     inkscape:window-maximized="1"
     inkscape:current-layer="layer1" />
  <defs
     id="defs1">
    <rect
       x="157.85752"
       y="62.351248"
       width="271.17844"
       height="95.011425"
       id="rect4" />
  </defs>
  <g
     inkscape:label="Layer 1"
     inkscape:groupmode="layer"
     id="layer1">
    <path
       id="rect5"
       style="fill:#9e652e;stroke-width:0.953294"
       d="M -2.5431316e-6,-1.2715658e-6 H 132.29167 V 66.145835 H -2.5431316e-6 Z" />
    <path
       id="rect1"
       style="fill-opacity:0;stroke:#f9f9f9;stroke-width:0.953294"
       d="m 38.228517,14.144197 h 12.563615 c 3.97082,0 7.167545,3.196725 7.167545,7.167545 v 23.522352 c 0,3.970819 -3.196725,7.167544 -7.167545,7.167544 H 38.228517 c -3.97082,0 -7.167545,-3.196725 -7.167545,-7.167544 V 21.311742 c 0,-3.97082 3.196725,-7.167545 7.167545,-7.167545 z" />
    <path
       style="font-size:12.7px;line-height:1.25;font-family:'AR UDJingXiHeiE1G30 EB';-inkscape-font-specification:'AR UDJingXiHeiE1G30 EB';fill:#f9f9f9;stroke-width:0.264583"
       d="m 40.871776,30.493842 h -4.826 v -9.1821 h 4.4196 q 1.3081,0 2.0701,0.635 0.762,0.635 0.762,1.6891 0,0.6858 -0.3048,1.2065 -0.2921,0.508 -0.889,0.8382 0.7747,0.3048 1.1684,0.8382 0.4064,0.5334 0.4064,1.27 0,1.2192 -0.8001,1.9685 -0.8001,0.7366 -2.0066,0.7366 z m 0.7493,-6.6548 q 0,-0.6223 -0.3556,-0.9398 -0.3556,-0.3302 -1.0287,-0.3302 h -2.5781 v 2.5908 h 2.667 q 0.5715,0 0.9271,-0.3302 0.3683,-0.3429 0.3683,-0.9906 z m 0.381,3.937 q 0,-0.6604 -0.4064,-1.0033 -0.3937,-0.3556 -1.0414,-0.3556 h -2.8956 v 2.8194 h 2.8702 q 0.6731,0 1.0668,-0.3683 0.4064,-0.3683 0.4064,-1.0922 z m 9.042409,-3.8354 q 0,-0.6731 -0.3556,-1.016 -0.3556,-0.3556 -1.0287,-0.3556 h -2.7559 v 2.8575 h 2.667 q 0.6604,0 1.0668,-0.3937 0.4064,-0.3937 0.4064,-1.0922 z m -4.1402,2.7305 v 3.8227 h -1.6129 v -9.1821 h 4.6736 q 1.2573,0 1.9939,0.6731 0.7493,0.6604 0.7493,1.8796 0,0.8001 -0.381,1.3716 -0.3683,0.5715 -0.9271,0.8128 0.7112,0.4064 1.0922,1.4097 0.381,1.0033 0.4826,3.0353 h -1.6764 q -0.0762,-2.1336 -0.4699,-2.9718 -0.381,-0.8509 -1.2319,-0.8509 z"
       id="text2"
       aria-label="BR" />
    <path
       style="font-size:14.5521px;line-height:1.25;font-family:'AR UDJingXiHeiE1G30 EB';-inkscape-font-specification:'AR UDJingXiHeiE1G30 EB';fill:#f9f9f9;stroke-width:0.264583"
       d="m 43.870036,39.766528 q 0,2.750347 -0.887678,4.060036 -0.887678,1.309689 -2.750347,1.309689 -1.804461,0 -2.735795,-1.309689 -0.931334,-1.309689 -0.931334,-4.060036 0,-2.939524 0.887678,-4.220109 0.887678,-1.295137 2.779451,-1.295137 1.848117,0 2.735795,1.295137 0.90223,1.280585 0.90223,4.220109 z m -3.638025,3.929067 q 0.931334,0 1.367897,-0.916782 0.436563,-0.931334 0.436563,-3.012285 0,-2.241023 -0.422011,-3.157806 -0.407459,-0.916782 -1.382449,-0.916782 -0.974991,0 -1.397002,0.931335 -0.422011,0.916782 -0.422011,3.143253 0,2.066398 0.436563,2.997733 0.436563,0.931334 1.38245,0.931334 z m 5.151433,-5.937257 q 0,-1.629835 0.989543,-2.561169 0.989542,-0.945887 2.590274,-0.945887 1.644387,0 2.561169,0.82947 0.931335,0.814918 0.931335,2.270128 0,1.033199 -0.669397,2.08095 -0.654845,1.033199 -2.066398,2.28468 l -1.979086,1.789908 h 4.685776 v 1.440658 h -7.086872 v -1.324241 l 2.939524,-2.648482 q 1.295137,-1.178721 1.80446,-2.00819 0.523876,-0.844022 0.523876,-1.615283 0,-0.727605 -0.422011,-1.178721 -0.422011,-0.451115 -1.222376,-0.451115 -0.800366,0 -1.295137,0.55298 -0.494772,0.55298 -0.494772,1.484314 z"
       id="text3"
       aria-label="02" />
    <path
       style="font-weight:500;font-size:72px;line-height:1.25;font-family:'Noto Sans TC';-inkscape-font-specification:'Noto Sans TC Medium';white-space:pre;fill:#f9f9f9"
       d="m 162.46542,92.025406 h 62.856 v 6.696 h -62.856 z m 27.72,-17.352 h 7.272 v 66.816004 h -7.272 z m -1.512,20.88 5.976,2.088 q -2.448,5.616004 -5.76,10.944004 -3.24,5.328 -7.128,10.152 -3.888,4.752 -8.28,8.712 -4.32,3.96 -8.928,6.768 -0.576,-0.864 -1.512,-1.944 -0.864,-1.08 -1.872,-2.088 -0.936,-1.08 -1.728,-1.8 4.464,-2.376 8.712,-5.904 4.32,-3.6 8.208,-7.992 3.888,-4.392 6.984,-9.216 3.168,-4.824 5.328,-9.720004 z m 10.08,0.216 q 2.304,4.752004 5.472,9.504004 3.24,4.68 7.128,9 3.888,4.32 8.136,7.848 4.32,3.528 8.64,5.976 -0.792,0.648 -1.8,1.728 -1.008,1.008 -1.872,2.16 -0.864,1.08 -1.44,2.016 -4.464,-2.88 -8.784,-6.768 -4.248,-3.96 -8.136,-8.712 -3.888,-4.752 -7.2,-10.008 -3.312,-5.256 -5.904,-10.656004 z m 56.952,8.784004 h 44.424 v 6.12 h -44.424 z m 4.392,-26.280004 h 33.84 v 5.832 h -27.864 v 57.312004 h -5.976 z m 10.656,2.52 h 4.752 v 59.760004 h -4.752 z m 9.576,0 h 4.752 v 59.760004 h -4.752 z m 9.864,-2.52 h 6.12 v 56.448004 q 0,1.944 -0.432,3.312 -0.36,1.44 -1.584,2.304 -1.152,0.792 -2.592,1.008 -1.44,0.216 -3.6,0.216 -0.072,-0.864 -0.432,-2.016 -0.288,-1.08 -0.72,-2.232 -0.432,-1.08 -0.864,-1.8 1.152,0 2.088,0 0.936,0 1.296,0 0.72,0 0.72,-0.864 z m -56.808,11.736 h 23.4 v 6.336 h -23.4 z m 9.504,-15.336 h 6.192 v 66.744004 h -6.192 z m -0.144,19.368 3.96,1.368 q -0.792,4.248 -2.016,8.856004 -1.224,4.608 -2.736,9.072 -1.512,4.464 -3.312,8.28 -1.728,3.816 -3.6,6.552 -0.504,-1.368 -1.512,-3.096 -0.936,-1.728 -1.728,-2.88 1.728,-2.376 3.384,-5.688 1.728,-3.312 3.168,-7.056 1.44,-3.816 2.52,-7.776 1.152,-3.960004 1.872,-7.632004 z m 5.976,6.048004 q 0.648,0.792 1.872,2.664 1.296,1.8 2.736,4.032 1.512,2.232 2.664,4.104 1.224,1.8 1.728,2.592 l -3.672,5.04 q -0.576,-1.512 -1.728,-3.672 -1.08,-2.16 -2.304,-4.464 -1.224,-2.304 -2.376,-4.248 -1.152,-2.016 -1.872,-3.24 z"
       id="text4"
       transform="matrix(0.26458333,0,0,0.26458333,19.98286,-4.4771203)"
       aria-label="木柵" />
    <path
       style="font-size:7.40833px;line-height:1.25;font-family:'AR UDJingXiHeiE1G30 EB';-inkscape-font-specification:'AR UDJingXiHeiE1G30 EB';fill:#f9f9f9;stroke-width:0.264583"
       d="m 63.891381,37.113744 v 3.85974 h -0.911225 v -5.356223 h 1.192741 l 1.540933,4.156073 1.481666,-4.156073 h 1.222374 v 5.356223 h -0.918632 v -3.889373 l -1.392766,3.889373 H 65.31378 Z m 10.245718,1.985432 q 0,0.93345 -0.585259,1.452033 -0.585258,0.518583 -1.666874,0.518583 -1.096433,0 -1.689099,-0.511175 -0.585258,-0.511174 -0.585258,-1.452032 v -3.489324 h 0.940858 v 3.444874 q 0,0.607483 0.333375,0.940858 0.333375,0.333374 1.000124,0.333374 0.629708,0 0.963083,-0.318558 0.340783,-0.325966 0.340783,-0.970491 v -3.430057 h 0.948267 z m 1.074209,-3.481915 h 4.193114 v 0.674158 l -3.230031,3.94864 h 3.304115 v 0.733425 h -4.511673 v -0.674158 l 3.230032,-3.94864 h -2.985557 z m 6.07483,2.978149 v 2.378074 H 80.34528 v -5.356223 h 0.940858 v 2.244724 h 2.57069 v -2.244724 h 0.940858 v 5.356223 H 83.856828 V 38.59541 Z m 7.593539,0.214842 -0.84455,-2.289174 -0.859366,2.289174 z m -1.978024,0.733424 -0.5334,1.429808 h -0.955674 l 2.155824,-5.356223 h 0.963082 l 2.141008,5.356223 h -0.9779 l -0.540808,-1.429808 z"
       id="text5"
       aria-label="MUZHA" />
    <path
       d="m 62.70847,45.310643 h 6.467472 v 0.688975 H 62.70847 Z m 2.852207,-1.785407 h 0.748241 v 6.87493 h -0.748241 z m -0.155575,2.148416 0.614891,0.214841 q -0.251883,0.57785 -0.592666,1.126066 -0.333375,0.548217 -0.733425,1.044575 -0.400049,0.48895 -0.851958,0.896408 -0.444499,0.407458 -0.918632,0.696383 -0.05927,-0.0889 -0.155575,-0.200025 -0.0889,-0.111125 -0.192617,-0.214842 -0.09631,-0.111125 -0.1778,-0.185208 0.459317,-0.244475 0.896408,-0.607483 0.4445,-0.370417 0.84455,-0.822325 0.400049,-0.451908 0.718608,-0.948266 0.325966,-0.496358 0.548216,-1.000124 z m 1.037166,0.02223 q 0.237067,0.488949 0.563033,0.977899 0.333375,0.481542 0.733425,0.926041 0.40005,0.4445 0.837141,0.807508 0.4445,0.363008 0.889,0.614892 -0.08149,0.06668 -0.185208,0.1778 -0.103717,0.103716 -0.192617,0.22225 -0.0889,0.111124 -0.148167,0.207433 -0.459316,-0.296333 -0.903816,-0.696383 -0.437091,-0.407458 -0.837141,-0.896408 -0.40005,-0.48895 -0.740833,-1.029758 -0.340783,-0.540808 -0.607483,-1.096433 z m 5.859989,0.903816 h 4.57094 v 0.629708 h -4.57094 z m 0.451908,-2.704041 h 3.481915 v 0.600075 h -2.867023 v 5.897031 h -0.614892 z m 1.096433,0.259292 h 0.48895 v 6.148914 h -0.48895 z m 0.985308,0 h 0.48895 v 6.148914 h -0.48895 z m 1.014941,-0.259292 h 0.629708 v 5.808131 q 0,0.200025 -0.04445,0.340783 -0.03704,0.148167 -0.162983,0.237067 -0.118533,0.08149 -0.2667,0.103716 -0.148166,0.02222 -0.370416,0.02222 -0.0074,-0.0889 -0.04445,-0.207433 -0.02963,-0.111125 -0.07408,-0.229658 -0.04445,-0.111125 -0.0889,-0.185208 0.118533,0 0.214841,0 0.09631,0 0.13335,0 0.07408,0 0.07408,-0.0889 z m -5.845172,1.207558 h 2.407707 v 0.651933 h -2.407707 z m 0.9779,-1.577974 h 0.637116 v 6.867522 h -0.637116 z m -0.01482,1.992841 0.407458,0.140758 q -0.08149,0.437091 -0.207433,0.911224 -0.125942,0.474134 -0.281517,0.93345 -0.155575,0.459317 -0.340783,0.851958 -0.1778,0.392641 -0.370416,0.674158 -0.05186,-0.140758 -0.155575,-0.318558 -0.09631,-0.1778 -0.1778,-0.296333 0.1778,-0.244475 0.348191,-0.585258 0.1778,-0.340784 0.325967,-0.726017 0.148166,-0.392641 0.259291,-0.800099 0.118534,-0.407459 0.192617,-0.785283 z m 0.614891,0.622299 q 0.06668,0.08149 0.192617,0.274109 0.13335,0.185208 0.281516,0.414866 0.155575,0.229658 0.274109,0.422275 0.125941,0.185208 0.1778,0.2667 l -0.377825,0.518583 q -0.05927,-0.155575 -0.1778,-0.377825 -0.111125,-0.22225 -0.237067,-0.459316 -0.125941,-0.237067 -0.244475,-0.437092 -0.118533,-0.207433 -0.192616,-0.333375 z"
       id="text5-9"
       style="font-weight:500;font-size:7.40833px;line-height:1.25;font-family:'Noto Sans JP';-inkscape-font-specification:'Noto Sans JP Medium';fill:#f9f9f9;stroke-width:0.264583"
       aria-label="木柵" />
    <path
       style="font-weight:500;font-size:7.40833px;line-height:1.25;font-family:'Noto Sans KR';-inkscape-font-specification:'Noto Sans KR Medium';fill:#f9f9f9;stroke-width:0.264583"
       d="m 84.278062,47.569125 h 6.134097 v 0.629708 h -6.134097 z m 2.65959,0.392642 h 0.770467 v 2.511423 h -0.770467 z m -1.918757,-3.896782 h 4.622798 v 2.674407 h -4.622798 z m 3.867148,0.614891 h -3.096682 v 1.444625 h 3.096682 z m 3.807882,0.03704 h 0.6223 v 0.948266 q 0,0.548217 -0.140758,1.089025 -0.13335,0.5334 -0.385233,1.014941 -0.251883,0.474133 -0.607483,0.84455 -0.348192,0.363008 -0.770467,0.577849 l -0.444499,-0.614891 q 0.385233,-0.192617 0.696383,-0.503766 0.318558,-0.318559 0.548216,-0.7112 0.237067,-0.40005 0.3556,-0.829733 0.125941,-0.437092 0.125941,-0.866775 z m 0.155575,0 h 0.614892 v 0.948266 q 0,0.40005 0.118533,0.807508 0.118533,0.40005 0.340783,0.777875 0.22225,0.370416 0.5334,0.674158 0.318558,0.296333 0.703791,0.481541 l -0.429683,0.614892 Q 94.301533,48.813725 93.953342,48.465533 93.612558,48.109933 93.360675,47.658025 93.1162,47.206117 92.98285,46.694942 92.8495,46.183767 92.8495,45.665184 Z m -1.637241,-0.340783 h 3.68194 v 0.644525 h -3.68194 z m 4.34869,-0.66675 h 0.777875 v 6.771214 h -0.777875 z m 0.607483,2.666999 h 1.222375 v 0.644525 h -1.222375 z"
       id="text5-9-8"
       aria-label="무자" />
  </g>
</svg>
