<?xml version="1.0" encoding="UTF-8" standalone="no"?>
<!-- Created with Inkscape (http://www.inkscape.org/) -->

<svg
   width="500"
   height="250"
   viewBox="0 0 132.29166 66.145833"
   version="1.1"
   id="svg1"
   inkscape:version="1.3.2 (091e20e, 2023-11-25, custom)"
   sodipodi:docname="br03.svg"
   xmlns:inkscape="http://www.inkscape.org/namespaces/inkscape"
   xmlns:sodipodi="http://sodipodi.sourceforge.net/DTD/sodipodi-0.dtd"
   xmlns="http://www.w3.org/2000/svg"
   xmlns:svg="http://www.w3.org/2000/svg">
  <sodipodi:namedview
     id="namedview1"
     pagecolor="#9e652e"
     bordercolor="#ffffff"
     borderopacity="1"
     inkscape:showpageshadow="0"
     inkscape:pageopacity="0"
     inkscape:pagecheckerboard="false"
     inkscape:deskcolor="#d1d1d1"
     inkscape:document-units="mm"
     inkscape:zoom="2.0208096"
     inkscape:cx="220.20877"
     inkscape:cy="103.4239"
     inkscape:window-width="1920"
     inkscape:window-height="1009"
     inkscape:window-x="1912"
     inkscape:window-y="-8"
     inkscape:window-maximized="1"
     inkscape:current-layer="layer1" />
  <defs
     id="defs1">
    <rect
       x="157.85752"
       y="62.351248"
       width="329.07603"
       height="135.09437"
       id="rect4" />
  </defs>
  <g
     inkscape:label="Layer 1"
     inkscape:groupmode="layer"
     id="layer1">
    <path
       id="rect5"
       style="fill:#9e652e;stroke-width:0.953294"
       d="M -2.5431316e-6,-1.2715658e-6 H 132.29167 V 66.145835 H -2.5431316e-6 Z" />
    <path
       id="rect1"
       style="fill-opacity:0;stroke:#f9f9f9;stroke-width:0.953294"
       d="m 11.770176,14.144197 h 12.563615 c 3.97082,0 7.167545,3.196725 7.167545,7.167545 v 23.522352 c 0,3.970819 -3.196725,7.167544 -7.167545,7.167544 H 11.770176 c -3.9708199,0 -7.1675449,-3.196725 -7.1675449,-7.167544 V 21.311742 c 0,-3.97082 3.196725,-7.167545 7.1675449,-7.167545 z" />
    <path
       style="font-size:12.7px;line-height:1.25;font-family:'AR UDJingXiHeiE1G30 EB';-inkscape-font-specification:'AR UDJingXiHeiE1G30 EB';fill:#f9f9f9;stroke-width:0.264583"
       d="M 14.413432,30.493842 H 9.5874319 v -9.1821 h 4.4196001 q 1.3081,0 2.0701,0.635 0.762,0.635 0.762,1.6891 0,0.6858 -0.3048,1.2065 -0.2921,0.508 -0.889,0.8382 0.7747,0.3048 1.1684,0.8382 0.4064,0.5334 0.4064,1.27 0,1.2192 -0.8001,1.9685 -0.8001,0.7366 -2.0066,0.7366 z m 0.7493,-6.6548 q 0,-0.6223 -0.3556,-0.9398 -0.3556,-0.3302 -1.0287,-0.3302 h -2.5781 v 2.5908 h 2.667 q 0.5715,0 0.9271,-0.3302 0.3683,-0.3429 0.3683,-0.9906 z m 0.381,3.937 q 0,-0.6604 -0.4064,-1.0033 -0.3937,-0.3556 -1.0414,-0.3556 h -2.8956 v 2.8194 h 2.8702 q 0.6731,0 1.0668,-0.3683 0.4064,-0.3683 0.4064,-1.0922 z m 9.042408,-3.8354 q 0,-0.6731 -0.3556,-1.016 -0.3556,-0.3556 -1.0287,-0.3556 h -2.7559 v 2.8575 h 2.667 q 0.6604,0 1.0668,-0.3937 0.4064,-0.3937 0.4064,-1.0922 z m -4.1402,2.7305 v 3.8227 h -1.6129 v -9.1821 h 4.6736 q 1.2573,0 1.9939,0.6731 0.7493,0.6604 0.7493,1.8796 0,0.8001 -0.381,1.3716 -0.3683,0.5715 -0.9271,0.8128 0.7112,0.4064 1.0922,1.4097 0.381,1.0033 0.4826,3.0353 h -1.6764 q -0.0762,-2.1336 -0.4699,-2.9718 -0.381,-0.8509 -1.2319,-0.8509 z"
       id="text2"
       aria-label="BR" />
    <path
       style="font-size:14.5521px;line-height:1.25;font-family:'AR UDJingXiHeiE1G30 EB';-inkscape-font-specification:'AR UDJingXiHeiE1G30 EB';fill:#f9f9f9;stroke-width:0.264583"
       d="m 17.411689,39.766528 q 0,2.750347 -0.887678,4.060036 -0.887678,1.309689 -2.750347,1.309689 -1.80446,0 -2.735794,-1.309689 -0.931335,-1.309689 -0.931335,-4.060036 0,-2.939524 0.887678,-4.220109 0.887678,-1.295137 2.779451,-1.295137 1.848117,0 2.735795,1.295137 0.90223,1.280585 0.90223,4.220109 z m -3.638025,3.929067 q 0.931335,0 1.367898,-0.916782 0.436563,-0.931334 0.436563,-3.012285 0,-2.241023 -0.422011,-3.157806 -0.407459,-0.916782 -1.38245,-0.916782 -0.97499,0 -1.397001,0.931335 -0.422011,0.916782 -0.422011,3.143253 0,2.066398 0.436563,2.997733 0.436563,0.931334 1.382449,0.931334 z m 8.585729,-8.003655 q -0.800365,0 -1.25148,0.480219 -0.451116,0.48022 -0.451116,1.251481 h -1.789908 q 0,-1.426106 0.931335,-2.299232 0.945886,-0.873126 2.561169,-0.873126 1.498866,0 2.430201,0.742157 0.931334,0.742157 0.931334,2.124607 0,0.756709 -0.320146,1.338793 -0.320146,0.582084 -0.960439,0.887678 0.814918,0.27649 1.251481,0.931335 0.451115,0.654844 0.451115,1.557074 0,1.557075 -0.989543,2.430201 -0.989542,0.873126 -2.750347,0.873126 -1.789908,0 -2.764899,-0.858574 -0.97499,-0.858574 -0.97499,-2.342888 h 1.80446 q 0,0.785814 0.523876,1.280585 0.538427,0.480219 1.426106,0.480219 0.873126,0 1.367897,-0.480219 0.509323,-0.480219 0.509323,-1.367897 0,-0.742158 -0.465667,-1.207825 -0.465667,-0.480219 -1.338793,-0.480219 h -0.654844 v -1.440658 h 0.654844 q 0.582084,0 0.974991,-0.422011 0.407459,-0.422011 0.407459,-1.135064 0,-0.654844 -0.392907,-1.062303 -0.392907,-0.407459 -1.120512,-0.407459 z"
       id="text3"
       aria-label="03" />
    <path
       style="font-weight:500;font-size:72px;line-height:1.25;font-family:'Noto Sans TC';-inkscape-font-specification:'Noto Sans TC Medium';white-space:pre;fill:#f9f9f9"
       d="m 190.47342,91.809406 h 6.48 v 38.520004 h -6.48 z m -13.896,10.944004 v 4.392 h 34.56 v -4.392 z m 0,-8.784004 v 4.392 h 34.56 v -4.392 z m -6.552,-4.608 h 47.952 v 22.464004 h -47.952 z m 46.296,26.208004 h 6.624 v 19.44 q 0,2.232 -0.504,3.456 -0.432,1.296 -2.016,2.016 -1.512,0.72 -3.816,0.864 -2.232,0.144 -5.472,0.144 -0.216,-1.296 -0.792,-2.88 -0.504,-1.512 -1.08,-2.664 2.088,0.072 3.744,0.072 1.656,0 2.232,-0.072 0.648,0 0.864,-0.216 0.216,-0.144 0.216,-0.792 z m -40.536,13.032 q 4.104,-0.144 9.36,-0.36 5.328,-0.216 11.232,-0.504 5.976,-0.288 12.024,-0.576 l -0.072,5.4 q -5.76,0.36 -11.592,0.72 -5.76,0.288 -11.016,0.576 -5.184,0.288 -9.432,0.576 z m 25.992,-5.328 5.112,-1.44 q 1.44,2.016 2.736,4.392 1.368,2.304 2.376,4.608 1.008,2.304 1.44,4.176 l -5.4,1.584 q -0.36,-1.8 -1.368,-4.104 -0.936,-2.376 -2.232,-4.752 -1.224,-2.448 -2.664,-4.464 z m -24.192,-48.600004 h 6.696 v 13.68 h -6.696 z m 25.416,0 h 6.696 v 13.68 h -6.696 z m -41.112,4.032 h 30.6 v 5.76 h -30.6 z m 33.192,0 h 30.6 v 5.76 h -30.6 z m -32.472,36.864004 h 56.736 v 5.616 h -56.736 z m 2.808,-2.376 h 6.552 v 28.224 h -6.552 z m 89.856,0.216 h 31.032 v 6.12 h -31.032 z m -1.8,-10.368 h 7.344 q -0.576,5.976 -1.728,11.664 -1.152,5.616 -3.672,10.656 -2.448,5.04 -6.984,9.144 -4.464,4.104 -11.808,6.984 -0.36,-0.864 -1.08,-1.944 -0.72,-1.08 -1.584,-2.088 -0.792,-1.008 -1.584,-1.656 6.696,-2.448 10.656,-5.976 4.032,-3.528 6.12,-7.848 2.088,-4.32 2.952,-9.144 0.936,-4.824 1.368,-9.792 z m 29.664,10.368 h 6.984 q 0,0 -0.072,0.504 0,0.504 -0.072,1.224 0,0.648 -0.144,1.08 -0.576,6.984 -1.296,11.592 -0.72,4.536 -1.656,7.128 -0.864,2.592 -2.088,3.816 -1.368,1.296 -2.808,1.728 -1.44,0.504 -3.528,0.648 -1.8,0.144 -4.896,0.072 -3.024,0 -6.408,-0.144 -0.144,-1.44 -0.792,-3.24 -0.576,-1.8 -1.512,-3.168 3.384,0.288 6.48,0.432 3.168,0.072 4.536,0.072 1.08,0 1.8,-0.144 0.72,-0.144 1.368,-0.648 0.936,-0.72 1.656,-2.952 0.72,-2.304 1.296,-6.408 0.576,-4.176 1.08,-10.656 z m -48.456,-13.968004 h 62.64 v 6.336004 h -62.64 z m 27.216,-7.704 5.76,-1.44 q 1.44,2.304 2.808,5.184 1.368,2.88 2.016,4.968004 l -6.12,1.8 q -0.576,-2.16 -1.872,-5.112004 -1.296,-2.952 -2.592,-5.4 z m -27.936,-10.152 h 30.528 v 6.048 h -30.528 z m 13.032,-6.984 h 6.768 v 19.512 h -6.768 z m 31.032,0 h 6.696 v 19.512 h -6.696 z m -10.8,6.984 h 30.744 v 6.048 h -30.744 z m 38.232,5.328 h 22.248 v 6.192 h -22.248 z m 10.008,22.608004 6.696,-7.92 v 39.816 h -6.696 z m 6.408,-6.048 q 0.792,0.576 2.304,2.088 1.584,1.44 3.312,3.168 1.8,1.728 3.24,3.24 1.512,1.44 2.232,2.088 l -4.248,5.688 q -0.864,-1.296 -2.304,-3.024 -1.44,-1.8 -3.024,-3.672 -1.584,-1.872 -3.024,-3.456 -1.44,-1.656 -2.448,-2.736 z m 3.744,-16.560004 h 1.44 l 1.152,-0.288 3.672,2.592 q -2.592,6.48 -6.696,12.528004 -4.104,5.976 -9.072,10.872 -4.896,4.824 -9.864,8.064 -0.288,-0.936 -0.792,-2.232 -0.432,-1.368 -1.008,-2.664 -0.504,-1.296 -1.008,-1.944 4.536,-2.592 8.856,-6.696 4.392,-4.104 7.92,-9.000004 3.528,-4.896 5.4,-9.936 z m -12.888,-9.576 5.256,-2.88 q 2.016,2.088 3.888,4.68 1.944,2.592 2.952,4.608 l -5.616,3.312 q -0.864,-2.016 -2.736,-4.752 -1.872,-2.736 -3.744,-4.968 z m 16.92,54.864004 h 41.616 v 6.696 h -41.616 z m 3.24,-35.424004 h 36.72 v 6.624004 h -36.72 z m 15.12,-22.032 h 6.912 v 60.696004 h -6.912 z m 58.248,17.712 v 7.272 h 14.472 v -7.272 z m -6.336,-4.68 h 27.576 v 16.560004 h -27.576 z m -2.016,25.488004 v 9.432 h 7.776 v -9.432 z m -5.688,-4.752 h 19.368 v 18.936 h -19.368 z m 29.232,4.752 v 9.432 h 8.28 v -9.432 z m -5.688,-4.752 h 19.944 v 18.936 h -19.944 z m -37.728,-30.888004 h 61.056 v 6.048 h -61.056 z m 2.88,0.288 h 6.696 v 45.504004 q 0,3.168 0.936,5.112 0.936,1.872 3.168,2.736 2.232,0.864 6.048,0.864 1.152,0 3.528,0 2.376,0 5.4,0 3.096,0 6.408,0 3.384,0 6.552,0 3.168,0 5.616,0 2.52,0 3.816,0 2.088,0 4.464,-0.072 2.376,-0.144 4.536,-0.288 2.232,-0.216 3.6,-0.432 0.144,0.792 0.288,2.088 0.144,1.224 0.36,2.376 0.216,1.152 0.36,1.944 -1.152,0.288 -3.312,0.432 -2.16,0.216 -4.968,0.216 -2.736,0.072 -5.544,0.072 -1.296,0 -3.816,0 -2.52,0 -5.76,0 -3.168,0 -6.552,0 -3.312,0 -6.336,0 -3.024,0 -5.184,0 -2.088,0 -2.808,0 -5.904,0 -9.792,-1.44 -3.888,-1.368 -5.832,-4.752 -1.872,-3.456 -1.872,-9.288 z"
       id="text4"
       transform="matrix(0.26458333,0,0,0.26458333,-6.4754802,-4.4771203)"
       aria-label="萬芳社區" />
    <path
       style="font-size:7.40833px;line-height:1.25;font-family:'AR UDJingXiHeiE1G30 EB';-inkscape-font-specification:'AR UDJingXiHeiE1G30 EB';fill:#f9f9f9;stroke-width:0.264583"
       d="m 39.374005,36.861861 -1.081617,4.111623 h -0.970491 l -1.377949,-5.356223 h 1.000124 l 0.896408,4.059765 1.044575,-4.059765 h 0.992716 l 1.029758,4.059765 0.948266,-4.059765 h 0.970491 l -1.414991,5.356223 h -0.970491 z m 6.949011,1.948391 -0.84455,-2.289174 -0.859366,2.289174 z m -1.978024,0.733424 -0.5334,1.429808 h -0.955675 l 2.155824,-5.356223 h 0.963083 l 2.141008,5.356223 h -0.9779 l -0.540808,-1.429808 z m 5.326583,-2.43734 v 3.867148 h -0.940858 v -5.356223 h 0.970491 l 2.629957,3.956048 v -3.956048 h 0.940858 v 5.356223 h -1.029758 z m 5.771084,1.489074 v 2.378074 h -0.940858 v -5.356223 h 3.756023 v 0.733425 h -2.815165 v 1.511299 h 2.474382 v 0.733425 z m 6.452662,0.214842 -0.84455,-2.289174 -0.859366,2.289174 z m -1.978024,0.733424 -0.5334,1.429808 h -0.955674 l 2.155824,-5.356223 h 0.963083 l 2.141007,5.356223 h -0.9779 l -0.540808,-1.429808 z m 5.326582,-2.43734 v 3.867148 h -0.940858 v -5.356223 h 0.970491 l 2.629957,3.956048 v -3.956048 h 0.940858 v 5.356223 h -1.029758 z m 8.764049,3.215215 q -0.274108,0.385233 -0.688975,0.570441 -0.407458,0.1778 -0.933449,0.1778 -1.1557,0 -1.837266,-0.726016 -0.681567,-0.733425 -0.681567,-2.044699 0,-1.318683 0.718608,-2.044699 0.718608,-0.726017 1.940983,-0.726017 0.985308,0 1.600199,0.451908 0.6223,0.4445 0.748241,1.274233 h -0.940857 q -0.07408,-0.437091 -0.437092,-0.711199 -0.3556,-0.281517 -0.970491,-0.281517 -0.822325,0 -1.252008,0.5334 -0.429683,0.525991 -0.429683,1.503891 0,1.044574 0.451908,1.540932 0.451908,0.48895 1.229783,0.48895 0.681566,0 1.081616,-0.40005 0.40005,-0.400049 0.40005,-0.918633 V 38.899151 H 72.48922 v -0.733424 h 2.422524 v 2.807757 h -0.903816 z m 7.76392,-1.214966 h 0.940858 q -0.03704,0.881591 -0.614891,1.422399 -0.57785,0.540808 -1.674283,0.540808 -1.296457,0 -1.985432,-0.733425 -0.681567,-0.733424 -0.681567,-2.03729 0,-1.28905 0.681567,-2.029883 0.688975,-0.740833 1.970616,-0.740833 1.029757,0 1.600199,0.474133 0.570441,0.466725 0.651933,1.214967 H 81.71999 q -0.05927,-0.429684 -0.392641,-0.688975 -0.333375,-0.2667 -0.940858,-0.2667 -0.748242,0 -1.20015,0.503766 -0.451908,0.503767 -0.451908,1.533525 0,1.044574 0.451908,1.540932 0.459317,0.496358 1.214966,0.496358 0.644525,0 0.992716,-0.333374 0.348192,-0.340784 0.377825,-0.896408 z m 7.008274,-0.785283 q 0,1.289049 -0.718608,2.022474 -0.7112,0.726016 -1.948391,0.726016 -1.259416,0 -1.970616,-0.733425 -0.711199,-0.733424 -0.711199,-2.015065 0,-1.303866 0.718608,-2.044699 0.718608,-0.748242 1.963207,-0.748242 1.259416,0 1.963208,0.740833 0.703791,0.740833 0.703791,2.052108 z m -2.666999,2.015065 q 0.807508,0 1.2446,-0.533399 0.4445,-0.5334 0.4445,-1.481666 0,-0.940858 -0.4445,-1.496483 -0.4445,-0.563033 -1.2446,-0.563033 -0.814916,0 -1.266824,0.570441 -0.4445,0.563033 -0.4445,1.489075 0,0.948266 0.451908,1.481666 0.451908,0.533399 1.259416,0.533399 z M 90.7137,37.113744 v 3.85974 h -0.911225 v -5.356223 h 1.192741 l 1.540933,4.156073 1.481666,-4.156073 h 1.222375 v 5.356223 h -0.918633 v -3.889373 l -1.392766,3.889373 h -0.792692 z m 6.667492,0 v 3.85974 h -0.911225 v -5.356223 h 1.192741 l 1.540933,4.156073 1.481669,-4.156073 h 1.22237 v 5.356223 h -0.91863 v -3.889373 l -1.392768,3.889373 h -0.792691 z m 10.245718,1.985432 q 0,0.93345 -0.58526,1.452033 -0.58526,0.518583 -1.66688,0.518583 -1.09643,0 -1.68909,-0.511175 -0.58526,-0.511174 -0.58526,-1.452032 v -3.489324 h 0.94086 v 3.444874 q 0,0.607483 0.33337,0.940858 0.33338,0.333374 1.00012,0.333374 0.62971,0 0.96309,-0.318558 0.34078,-0.325966 0.34078,-0.970491 v -3.430057 h 0.94827 z m 2.1336,-1.99284 v 3.867148 h -0.94085 v -5.356223 h 0.97049 l 2.62996,3.956048 v -3.956048 h 0.94085 v 5.356223 h -1.02975 z m 5.77108,-1.489075 v 5.356223 h -0.94085 v -5.356223 z m 2.37067,0.733425 h -1.66688 v -0.733425 h 4.2672 v 0.733425 h -1.65946 v 4.622798 h -0.94086 z m 5.29695,1.637241 1.52611,-2.370666 h 1.05199 l -2.11138,3.148541 v 2.207682 h -0.94085 v -2.207682 l -2.14842,-3.148541 h 1.07421 z"
       id="text5"
       aria-label="WANFANG COMMUNITY" />
    <path
       d="m 36.227886,44.058636 h 6.511922 v 0.688974 h -6.511922 z m 2.341032,2.066924 h 3.044824 v 0.681566 h -3.044824 z m 2.800349,0 h 0.726017 q 0,0 0,0.06667 0,0.05927 -0.0074,0.140758 0,0.07408 -0.0074,0.118533 -0.03704,0.889 -0.0889,1.5113 -0.05186,0.622299 -0.118533,1.037166 -0.05927,0.414866 -0.140759,0.659341 -0.08149,0.244475 -0.185208,0.363008 -0.148166,0.162984 -0.318558,0.22225 -0.162983,0.06668 -0.392642,0.0889 -0.207433,0.02222 -0.570441,0.01482 -0.3556,-0.0074 -0.733425,-0.02223 -0.0074,-0.155575 -0.07408,-0.3556 -0.06667,-0.192617 -0.170392,-0.333375 0.40005,0.02963 0.75565,0.03704 0.3556,0.0074 0.511175,0.0074 0.13335,0.0074 0.207433,-0.0074 0.08149,-0.02222 0.148167,-0.08149 0.118533,-0.111125 0.200025,-0.474133 0.08149,-0.370417 0.140758,-1.0668 0.06667,-0.703791 0.118533,-1.800224 z M 38.11701,44.629077 h 0.733425 q -0.02222,0.629708 -0.06667,1.289049 -0.04445,0.651933 -0.1778,1.296458 -0.125941,0.637117 -0.377825,1.229783 -0.244475,0.585258 -0.666749,1.089024 -0.422275,0.496359 -1.074208,0.874183 -0.08149,-0.140758 -0.229658,-0.303741 -0.140759,-0.155575 -0.281517,-0.259292 0.614891,-0.325966 1.007533,-0.777874 0.392641,-0.451908 0.614891,-0.985308 0.22225,-0.5334 0.325967,-1.11125 0.111125,-0.585258 0.140758,-1.177924 0.03704,-0.592667 0.05186,-1.163108 z m 7.682439,2.815165 h 3.19299 v 0.629708 h -3.19299 z m 0.733424,-2.296582 h 0.688975 v 1.237191 h -0.688975 z m -0.866774,1.229783 h 0.748241 q -0.05927,0.644525 -0.1778,1.252008 -0.111125,0.600074 -0.377825,1.126066 -0.259291,0.525991 -0.748241,0.955674 -0.481542,0.422275 -1.266825,0.718608 -0.05927,-0.13335 -0.185208,-0.311149 -0.125941,-0.1778 -0.251883,-0.281517 0.726016,-0.251883 1.155699,-0.614891 0.429684,-0.363009 0.651933,-0.814917 0.22225,-0.451908 0.31115,-0.963083 0.09631,-0.518583 0.140759,-1.066799 z m 3.000373,1.066799 h 0.718608 q 0,0 -0.0074,0.05186 0,0.05186 -0.0074,0.125941 0,0.06667 -0.01482,0.118534 -0.05927,0.748241 -0.140758,1.237191 -0.07408,0.48895 -0.170392,0.763058 -0.09631,0.274108 -0.229658,0.40005 -0.125942,0.133349 -0.281517,0.185208 -0.148166,0.05186 -0.370416,0.07408 -0.1778,0.0074 -0.496358,0 -0.318559,0 -0.66675,-0.01482 -0.01482,-0.148166 -0.08149,-0.333374 -0.05927,-0.185209 -0.155575,-0.325967 0.3556,0.02963 0.674158,0.04445 0.318559,0.0074 0.459317,0.0074 0.111125,0 0.185208,-0.01482 0.08149,-0.01482 0.148167,-0.06667 0.09631,-0.08149 0.170391,-0.325967 0.08149,-0.244475 0.140759,-0.688974 0.06667,-0.4445 0.118533,-1.140883 z M 43.57695,46.029251 h 6.630455 v 0.651933 H 43.57695 Z m 0.04445,-1.911349 h 6.548963 V 44.74761 H 43.6214 Z m 1.615015,-0.592666 h 0.688975 v 1.911349 h -0.688975 z m 2.585508,0 h 0.696383 v 1.911349 h -0.696383 z m 3.993089,1.096433 q 0.200025,0.01482 0.437092,0.02963 0.237066,0.01482 0.422275,0.01482 h 3.68194 q 0.148166,0 0.318558,0 0.1778,-0.0074 0.274108,-0.01482 -0.0074,0.125942 -0.01482,0.303742 0,0.170391 0,0.318558 v 3.830106 q 0,0.192617 0.0074,0.429683 0.01482,0.229659 0.02222,0.3556 h -0.84455 q 0,-0.125941 0.0074,-0.31115 0.0074,-0.192616 0.0074,-0.392641 v -3.77084 h -3.45969 q -0.214842,0 -0.466725,0.0074 -0.251883,0.0074 -0.392642,0.02222 z m -0.0889,4.059765 q 0.162983,0.0074 0.392641,0.02222 0.229658,0.01482 0.466725,0.01482 h 3.985681 v 0.770466 h -3.956048 q -0.22225,0 -0.474133,0.0074 -0.251883,0.0074 -0.414866,0.02222 z m 8.393638,-4.600573 q 0.288925,0.03704 0.688975,0.111125 0.40005,0.06667 0.851958,0.155575 0.451908,0.0889 0.896408,0.192616 0.451908,0.103717 0.844549,0.214842 0.392642,0.103716 0.674159,0.200025 l -0.303742,0.726016 q -0.259292,-0.103717 -0.644525,-0.207433 -0.377825,-0.103717 -0.822324,-0.207434 -0.437092,-0.111125 -0.889,-0.207433 -0.4445,-0.09631 -0.851958,-0.170391 -0.40005,-0.07408 -0.718608,-0.111125 z m -0.333375,1.978024 q 0.385234,0.06668 0.889,0.170391 0.503766,0.09631 1.044575,0.22225 0.540808,0.118533 1.022349,0.251883 0.48895,0.125942 0.837141,0.251884 l -0.288924,0.718608 q -0.325967,-0.118534 -0.8001,-0.251884 -0.474133,-0.140758 -1.014941,-0.266699 -0.5334,-0.125942 -1.051983,-0.229659 -0.511175,-0.103716 -0.911225,-0.162983 z m -0.392641,2.141007 q 0.370416,0.05927 0.84455,0.155575 0.474133,0.0889 0.977899,0.207433 0.503767,0.111125 0.992716,0.237067 0.496358,0.125941 0.926042,0.259291 0.429683,0.125942 0.733424,0.244475 L 63.5424,50.02975 q -0.296333,-0.125942 -0.726017,-0.251884 -0.422274,-0.13335 -0.918633,-0.259291 -0.496358,-0.13335 -1.007532,-0.244475 -0.503767,-0.118533 -0.970492,-0.207433 -0.459316,-0.0889 -0.822324,-0.140759 z m 11.542177,-1.948391 q -0.01482,0.05927 -0.02963,0.13335 -0.01482,0.07408 -0.02963,0.13335 -0.01482,0.155575 -0.05927,0.4445 -0.03704,0.281517 -0.0889,0.6223 -0.05186,0.340783 -0.103717,0.681566 -0.05186,0.333375 -0.09631,0.614891 -0.03704,0.281517 -0.06667,0.437092 h -0.792691 q 0.02222,-0.13335 0.05927,-0.385233 0.04445,-0.259292 0.09631,-0.570442 0.05186,-0.31115 0.09631,-0.629708 0.04445,-0.318558 0.07408,-0.577849 0.03704,-0.2667 0.03704,-0.407459 -0.125942,0 -0.363008,0 -0.237067,0 -0.525992,0 -0.288925,0 -0.570441,0 -0.274108,0 -0.474133,0 -0.200025,0 -0.2667,0 -0.162983,0 -0.340783,0.0074 -0.170392,0.0074 -0.318559,0.01482 v -0.770466 q 0.09631,0.0074 0.207434,0.02222 0.118533,0.0074 0.237066,0.01482 0.118534,0 0.207434,0 0.09631,0 0.303741,0 0.207433,0 0.459316,0 0.259292,0 0.525992,0 0.2667,0 0.481541,0 0.214842,0 0.333375,0 0.06667,0 0.155575,-0.0074 0.0889,-0.0074 0.170392,-0.02222 0.08149,-0.01482 0.118533,-0.02963 z m -4.452406,2.778124 q 0.148166,0.01482 0.318558,0.02963 0.170392,0.0074 0.348191,0.0074 0.103717,0 0.407459,0 0.303741,0 0.718608,0 0.422274,0 0.874183,0 0.459316,0 0.874183,0 0.414866,0 0.711199,0 0.296333,0 0.392642,0 0.125941,0 0.318558,-0.0074 0.192616,-0.0074 0.325966,-0.02222 v 0.75565 q -0.07408,-0.0074 -0.192616,-0.01482 -0.111125,0 -0.229658,0 -0.118534,0 -0.207434,0 -0.09631,0 -0.407458,0 -0.303741,0 -0.726016,0 -0.414867,0 -0.874183,0 -0.459317,0 -0.881591,0 -0.414867,0 -0.7112,0 -0.296333,0 -0.392642,0 -0.177799,0 -0.325966,0 -0.148167,0.0074 -0.340783,0.01482 z m 7.630579,-4.163481 q 0.185208,0.01482 0.392641,0.02963 0.207433,0.0074 0.392642,0.0074 0.13335,0 0.385233,0 0.259291,0 0.57785,0 0.318558,0 0.659341,0 0.340783,0 0.644525,0 0.303741,0 0.533399,0 0.229659,0 0.325967,0 0.214841,0 0.414866,-0.0074 0.207434,-0.01482 0.3556,-0.02963 v 0.844549 q -0.148166,-0.01482 -0.363008,-0.01482 -0.214842,-0.0074 -0.407458,-0.0074 -0.0889,0 -0.325967,0 -0.237066,0 -0.563033,0 -0.318558,0 -0.666749,0 -0.348192,0 -0.674158,0 -0.318559,0 -0.555625,0 -0.237067,0 -0.333375,0 -0.200025,0 -0.407458,0.0074 -0.207433,0 -0.385233,0.01482 z m -0.637117,3.644898 q 0.207434,0.01482 0.422275,0.02963 0.214842,0.01482 0.422275,0.01482 0.09631,0 0.3556,0 0.259291,0 0.622299,0 0.370417,0 0.785283,0 0.422275,0 0.837142,0 0.414866,0 0.777874,0 0.370417,0 0.629708,0 0.259292,0 0.348192,0 0.1778,0 0.370416,-0.0074 0.192617,-0.01482 0.370417,-0.03704 v 0.896408 q -0.1778,-0.02222 -0.385233,-0.02963 -0.200025,-0.0074 -0.3556,-0.0074 -0.0889,0 -0.348192,0 -0.259291,0 -0.629708,0 -0.363008,0 -0.777874,0 -0.414867,0 -0.837142,0 -0.414866,0 -0.785283,0 -0.363008,0 -0.622299,0 -0.259292,0 -0.3556,0 -0.207433,0 -0.429683,0.01482 -0.214842,0.0074 -0.414867,0.02222 z m 8.297333,-4.30424 q 0.170391,0.02222 0.3556,0.03704 0.185208,0.01482 0.363008,0.01482 0.140758,0 0.437091,0 0.303742,0 0.681567,0 0.385233,0 0.770466,0 0.385233,0 0.681566,0 0.296333,0 0.422275,0 0.170392,0 0.363008,-0.01482 0.200025,-0.01482 0.377825,-0.03704 v 0.763058 q -0.1778,-0.01482 -0.370416,-0.01482 -0.192617,-0.0074 -0.370417,-0.0074 -0.125942,0 -0.422275,0 -0.296333,0 -0.681566,0 -0.377825,0 -0.763058,0 -0.377825,0 -0.681566,0 -0.303742,0 -0.437092,0 -0.185208,0 -0.377825,0.0074 -0.192616,0 -0.348191,0.01482 z m -0.874183,1.881716 q 0.155575,0.01482 0.325966,0.02963 0.1778,0.0074 0.348192,0.0074 0.0889,0 0.377825,0 0.288925,0 0.696383,0 0.414866,0 0.881591,0 0.474133,0 0.948266,0 0.474133,0 0.881591,0 0.407459,0 0.688975,0 0.288925,0 0.370417,0 0.118533,0 0.303741,-0.0074 0.185208,-0.01482 0.318558,-0.02963 v 0.763058 q -0.125941,-0.01482 -0.303741,-0.01482 -0.170392,-0.0074 -0.318558,-0.0074 -0.08149,0 -0.370417,0 -0.281516,0 -0.688975,0 -0.407458,0 -0.881591,0 -0.474133,0 -0.948266,0 -0.466725,0 -0.881591,0 -0.407458,0 -0.696383,0 -0.288925,0 -0.377825,0 -0.170392,0 -0.348192,0.0074 -0.1778,0 -0.325966,0.01482 z m 3.622673,0.392642 q 0,0.703791 -0.111125,1.281641 -0.111125,0.577849 -0.3556,1.044574 -0.13335,0.244475 -0.363008,0.503767 -0.22225,0.251883 -0.503766,0.481541 -0.281517,0.229658 -0.607483,0.392642 l -0.681567,-0.496359 q 0.407458,-0.170391 0.777875,-0.466724 0.370416,-0.303742 0.592666,-0.637117 0.281517,-0.437091 0.363009,-0.963083 0.08149,-0.533399 0.0889,-1.140882 z m 3.51896,1.296457 q 0.488949,-0.111125 0.985307,-0.296333 0.503767,-0.185208 0.940858,-0.40005 0.437092,-0.214841 0.740833,-0.392641 0.3556,-0.22225 0.696383,-0.48895 0.340784,-0.2667 0.6223,-0.540808 0.288925,-0.274108 0.481542,-0.511175 l 0.577849,0.563033 q -0.214841,0.229658 -0.548216,0.518583 -0.325967,0.281517 -0.718608,0.563033 -0.385233,0.281517 -0.777875,0.518583 -0.244475,0.148167 -0.555625,0.303742 -0.311149,0.155575 -0.666749,0.31115 -0.348192,0.155575 -0.718608,0.296333 -0.363008,0.140758 -0.703792,0.251883 z m 2.585507,-0.651933 0.792691,-0.170391 v 2.718857 q 0,0.118533 0,0.259291 0.0074,0.148167 0.01482,0.2667 0.0074,0.118533 0.02223,0.185208 h -0.859367 q 0.0074,-0.06667 0.01482,-0.185208 0.0074,-0.118533 0.0074,-0.2667 0.0074,-0.140758 0.0074,-0.259291 z"
       id="text5-9"
       style="font-weight:500;font-size:7.40833px;line-height:1.25;font-family:'Noto Sans JP';-inkscape-font-specification:'Noto Sans JP Medium';fill:#f9f9f9;stroke-width:0.264583"
       aria-label="万芳コミュニティ" />
    <path
       style="font-weight:500;font-size:7.40833px;line-height:1.25;font-family:'Noto Sans KR';-inkscape-font-specification:'Noto Sans KR Medium';fill:#f9f9f9;stroke-width:0.264583"
       d="m 102.87089,46.487509 h 0.77047 v 1.022349 h -0.77047 z m 0.37042,-2.489199 q 0.48895,0 0.86677,0.170392 0.38524,0.170391 0.60008,0.481541 0.21484,0.303742 0.21484,0.703791 0,0.40005 -0.21484,0.7112 -0.21484,0.303742 -0.60008,0.474133 -0.37782,0.170392 -0.86677,0.170392 -0.48895,0 -0.86678,-0.170392 -0.37782,-0.170391 -0.59266,-0.474133 -0.21484,-0.31115 -0.21484,-0.7112 0,-0.400049 0.21484,-0.703791 0.21484,-0.31115 0.59266,-0.481541 0.37783,-0.170392 0.86678,-0.170392 z m 0,0.592666 q -0.27411,0 -0.49636,0.09631 -0.21484,0.0889 -0.33337,0.2667 -0.11854,0.170391 -0.11854,0.400049 0,0.229659 0.11854,0.407459 0.11853,0.170391 0.33337,0.266699 0.22225,0.0889 0.49636,0.0889 0.28152,0 0.49636,-0.0889 0.21484,-0.09631 0.33337,-0.266699 0.12594,-0.1778 0.12594,-0.407459 0,-0.229658 -0.12594,-0.400049 -0.11853,-0.1778 -0.33337,-0.2667 -0.21484,-0.09631 -0.49636,-0.09631 z m 2.49661,-0.881591 h 0.77046 V 48.8804 h -0.77046 z m 0.47413,2.215091 h 1.22978 v 0.644525 h -1.22978 z m -4.08199,3.785656 h 4.61539 v 0.629709 h -4.61539 z m 0,-1.266824 h 0.77787 v 1.540933 h -0.77787 z m -0.84455,-0.511175 -0.0889,-0.622299 q 0.57785,0 1.28164,-0.01482 0.7112,-0.01482 1.44463,-0.05927 0.74083,-0.04445 1.41499,-0.140758 l 0.0593,0.563033 q -0.69638,0.125942 -1.4298,0.185208 -0.73343,0.05927 -1.4224,0.07408 -0.68157,0.01482 -1.25942,0.01482 z m 6.91197,-3.674531 h 3.62268 v 0.622299 h -3.62268 z m -0.0889,3.178173 -0.0889,-0.637116 q 0.57785,0 1.26683,-0.0074 0.69638,-0.01482 1.4224,-0.05927 0.72601,-0.04445 1.38535,-0.125942 l 0.0519,0.570442 q -0.67416,0.111125 -1.39276,0.170391 -0.71861,0.05927 -1.40018,0.07408 -0.67416,0.01482 -1.2446,0.01482 z m 0.70379,-2.718857 h 0.74825 v 2.326216 h -0.74825 z m 1.64465,0 h 0.74824 v 2.326216 h -0.74824 z m 0.66675,3.23744 q 0.69639,0 1.20015,0.155575 0.51118,0.148167 0.77788,0.429683 0.27411,0.274109 0.27411,0.674158 0,0.592667 -0.60749,0.918633 -0.60007,0.333375 -1.64465,0.333375 -0.69638,0 -1.20755,-0.148166 -0.50377,-0.140759 -0.77788,-0.429684 -0.27411,-0.281516 -0.27411,-0.674158 0,-0.400049 0.27411,-0.674158 0.27411,-0.281516 0.77788,-0.429683 0.51117,-0.155575 1.20755,-0.155575 z m 0,0.614892 q -0.47413,0 -0.8075,0.07408 -0.32597,0.07408 -0.50377,0.214842 -0.1778,0.140758 -0.1778,0.355599 0,0.207434 0.1778,0.3556 0.1778,0.140758 0.50377,0.22225 0.33337,0.07408 0.8075,0.07408 0.47414,0 0.80751,-0.07408 0.33338,-0.08149 0.50377,-0.22225 0.1778,-0.148166 0.1778,-0.3556 0,-0.214841 -0.1778,-0.355599 -0.17039,-0.140759 -0.50377,-0.214842 -0.33337,-0.07408 -0.80751,-0.07408 z m 1.41499,-4.859865 h 0.77047 v 4.111623 h -0.77047 z m 0.56304,1.681691 h 1.1631 v 0.644525 h -1.1631 z m 8.32697,-1.689099 h 0.77046 v 4.904314 h -0.77046 z m 0.54821,1.940982 h 1.18533 v 0.637117 h -1.18533 z m -4.77837,1.170516 h 0.54822 q 0.7112,0 1.22978,-0.01482 0.52599,-0.01482 0.95567,-0.05927 0.42969,-0.05186 0.85937,-0.140758 l 0.0815,0.6223 q -0.43709,0.0889 -0.88159,0.140758 -0.4445,0.04445 -0.98531,0.06668 -0.5334,0.02222 -1.25941,0.02222 h -0.54822 z m 0,-2.548465 h 3.00778 v 0.629708 h -2.22991 v 2.259541 h -0.77787 z m 0.71861,5.445122 h 4.56353 v 0.629709 h -4.56353 z m 0,-1.607607 h 0.77787 v 1.911349 h -0.77787 z m 7.53427,-3.385607 h 0.6223 v 0.948266 q 0,0.563033 -0.13335,1.103841 -0.13335,0.5334 -0.39264,1.007533 -0.25189,0.474133 -0.60749,0.837142 -0.3556,0.363008 -0.78528,0.577849 l -0.45191,-0.614891 q 0.39264,-0.185208 0.7112,-0.496358 0.32597,-0.31115 0.55563,-0.703791 0.22966,-0.40005 0.3556,-0.837142 0.12594,-0.437091 0.12594,-0.874183 z m 0.16298,0 h 0.6223 v 0.948266 q 0,0.422275 0.12594,0.837142 0.12595,0.414866 0.3556,0.785283 0.22966,0.370416 0.54822,0.659341 0.31856,0.288925 0.71861,0.459316 l -0.42969,0.614892 q -0.44449,-0.200025 -0.80009,-0.540808 -0.3556,-0.340783 -0.6149,-0.785283 -0.25188,-0.451908 -0.39264,-0.963083 -0.13335,-0.518583 -0.13335,-1.0668 z m -1.66687,-0.340783 h 3.79306 v 0.644525 h -3.79306 z m 4.57835,-0.66675 h 0.77787 v 6.771214 h -0.77787 z"
       id="text5-9-8"
       aria-label="완팡 단지" />
  </g>
</svg>
