<?xml version="1.0" encoding="UTF-8" standalone="no"?>
<!-- Created with Inkscape (http://www.inkscape.org/) -->

<svg
   width="500"
   height="250"
   viewBox="0 0 132.29166 66.145833"
   version="1.1"
   id="svg1"
   inkscape:version="1.3.2 (091e20e, 2023-11-25, custom)"
   sodipodi:docname="br04.svg"
   xmlns:inkscape="http://www.inkscape.org/namespaces/inkscape"
   xmlns:sodipodi="http://sodipodi.sourceforge.net/DTD/sodipodi-0.dtd"
   xmlns="http://www.w3.org/2000/svg"
   xmlns:svg="http://www.w3.org/2000/svg">
  <sodipodi:namedview
     id="namedview1"
     pagecolor="#9e652e"
     bordercolor="#ffffff"
     borderopacity="1"
     inkscape:showpageshadow="0"
     inkscape:pageopacity="0"
     inkscape:pagecheckerboard="false"
     inkscape:deskcolor="#d1d1d1"
     inkscape:document-units="mm"
     inkscape:zoom="2.0208096"
     inkscape:cx="220.20877"
     inkscape:cy="103.4239"
     inkscape:window-width="1920"
     inkscape:window-height="1009"
     inkscape:window-x="1912"
     inkscape:window-y="-8"
     inkscape:window-maximized="1"
     inkscape:current-layer="layer1" />
  <defs
     id="defs1">
    <rect
       x="157.85752"
       y="62.351248"
       width="329.07603"
       height="135.09437"
       id="rect4" />
  </defs>
  <g
     inkscape:label="Layer 1"
     inkscape:groupmode="layer"
     id="layer1">
    <path
       id="rect5"
       style="fill:#9e652e;stroke-width:0.953294"
       d="M -2.5431316e-6,-1.2715658e-6 H 132.29167 V 66.145835 H -2.5431316e-6 Z" />
    <path
       id="rect1"
       style="fill-opacity:0;stroke:#f9f9f9;stroke-width:0.953294"
       d="m 17.591008,14.144197 h 12.563615 c 3.970819,0 7.167544,3.196725 7.167544,7.167545 v 23.522352 c 0,3.970819 -3.196725,7.167544 -7.167544,7.167544 H 17.591008 c -3.97082,0 -7.167545,-3.196725 -7.167545,-7.167544 V 21.311742 c 0,-3.97082 3.196725,-7.167545 7.167545,-7.167545 z" />
    <path
       style="font-size:12.7px;line-height:1.25;font-family:'AR UDJingXiHeiE1G30 EB';-inkscape-font-specification:'AR UDJingXiHeiE1G30 EB';fill:#f9f9f9;stroke-width:0.264583"
       d="m 20.23426,30.493842 h -4.826 v -9.1821 h 4.4196 q 1.3081,0 2.0701,0.635 0.762,0.635 0.762,1.6891 0,0.6858 -0.3048,1.2065 -0.2921,0.508 -0.889,0.8382 0.7747,0.3048 1.1684,0.8382 0.4064,0.5334 0.4064,1.27 0,1.2192 -0.8001,1.9685 -0.8001,0.7366 -2.0066,0.7366 z m 0.7493,-6.6548 q 0,-0.6223 -0.3556,-0.9398 -0.3556,-0.3302 -1.0287,-0.3302 h -2.5781 v 2.5908 h 2.667 q 0.5715,0 0.9271,-0.3302 0.3683,-0.3429 0.3683,-0.9906 z m 0.381,3.937 q 0,-0.6604 -0.4064,-1.0033 -0.3937,-0.3556 -1.0414,-0.3556 h -2.8956 v 2.8194 h 2.8702 q 0.6731,0 1.0668,-0.3683 0.4064,-0.3683 0.4064,-1.0922 z m 9.042409,-3.8354 q 0,-0.6731 -0.3556,-1.016 -0.3556,-0.3556 -1.0287,-0.3556 h -2.7559 v 2.8575 h 2.667 q 0.6604,0 1.0668,-0.3937 0.4064,-0.3937 0.4064,-1.0922 z m -4.1402,2.7305 v 3.8227 h -1.6129 v -9.1821 h 4.6736 q 1.2573,0 1.9939,0.6731 0.7493,0.6604 0.7493,1.8796 0,0.8001 -0.381,1.3716 -0.3683,0.5715 -0.9271,0.8128 0.7112,0.4064 1.0922,1.4097 0.381,1.0033 0.4826,3.0353 h -1.6764 q -0.0762,-2.1336 -0.4699,-2.9718 -0.381,-0.8509 -1.2319,-0.8509 z"
       id="text2"
       aria-label="BR" />
    <path
       style="font-size:14.5521px;line-height:1.25;font-family:'AR UDJingXiHeiE1G30 EB';-inkscape-font-specification:'AR UDJingXiHeiE1G30 EB';fill:#f9f9f9;stroke-width:0.264583"
       d="m 23.232518,39.766528 q 0,2.750347 -0.887678,4.060036 -0.887678,1.309689 -2.750347,1.309689 -1.804461,0 -2.735795,-1.309689 -0.931334,-1.309689 -0.931334,-4.060036 0,-2.939524 0.887678,-4.220109 0.887678,-1.295137 2.779451,-1.295137 1.848117,0 2.735795,1.295137 0.90223,1.280585 0.90223,4.220109 z m -3.638025,3.929067 q 0.931334,0 1.367897,-0.916782 0.436563,-0.931334 0.436563,-3.012285 0,-2.241023 -0.422011,-3.157806 -0.407458,-0.916782 -1.382449,-0.916782 -0.974991,0 -1.397002,0.931335 -0.422011,0.916782 -0.422011,3.143253 0,2.066398 0.436563,2.997733 0.436563,0.931334 1.38245,0.931334 z m 9.342438,-1.018647 h -4.554808 v -1.280585 l 4.467495,-6.970456 h 1.877221 v 6.795831 h 1.38245 v 1.45521 h -1.38245 v 2.270128 h -1.789908 z m -2.706691,-1.45521 h 2.706691 v -4.278317 z"
       id="text3"
       aria-label="04" />
    <path
       style="font-weight:500;font-size:72px;line-height:1.25;font-family:'Noto Sans TC';-inkscape-font-specification:'Noto Sans TC Medium';white-space:pre;fill:#f9f9f9"
       d="m 190.47342,91.809406 h 6.48 v 38.520004 h -6.48 z m -13.896,10.944004 v 4.392 h 34.56 v -4.392 z m 0,-8.784004 v 4.392 h 34.56 v -4.392 z m -6.552,-4.608 h 47.952 v 22.464004 h -47.952 z m 46.296,26.208004 h 6.624 v 19.44 q 0,2.232 -0.504,3.456 -0.432,1.296 -2.016,2.016 -1.512,0.72 -3.816,0.864 -2.232,0.144 -5.472,0.144 -0.216,-1.296 -0.792,-2.88 -0.504,-1.512 -1.08,-2.664 2.088,0.072 3.744,0.072 1.656,0 2.232,-0.072 0.648,0 0.864,-0.216 0.216,-0.144 0.216,-0.792 z m -40.536,13.032 q 4.104,-0.144 9.36,-0.36 5.328,-0.216 11.232,-0.504 5.976,-0.288 12.024,-0.576 l -0.072,5.4 q -5.76,0.36 -11.592,0.72 -5.76,0.288 -11.016,0.576 -5.184,0.288 -9.432,0.576 z m 25.992,-5.328 5.112,-1.44 q 1.44,2.016 2.736,4.392 1.368,2.304 2.376,4.608 1.008,2.304 1.44,4.176 l -5.4,1.584 q -0.36,-1.8 -1.368,-4.104 -0.936,-2.376 -2.232,-4.752 -1.224,-2.448 -2.664,-4.464 z m -24.192,-48.600004 h 6.696 v 13.68 h -6.696 z m 25.416,0 h 6.696 v 13.68 h -6.696 z m -41.112,4.032 h 30.6 v 5.76 h -30.6 z m 33.192,0 h 30.6 v 5.76 h -30.6 z m -32.472,36.864004 h 56.736 v 5.616 h -56.736 z m 2.808,-2.376 h 6.552 v 28.224 h -6.552 z m 89.856,0.216 h 31.032 v 6.12 h -31.032 z m -1.8,-10.368 h 7.344 q -0.576,5.976 -1.728,11.664 -1.152,5.616 -3.672,10.656 -2.448,5.04 -6.984,9.144 -4.464,4.104 -11.808,6.984 -0.36,-0.864 -1.08,-1.944 -0.72,-1.08 -1.584,-2.088 -0.792,-1.008 -1.584,-1.656 6.696,-2.448 10.656,-5.976 4.032,-3.528 6.12,-7.848 2.088,-4.32 2.952,-9.144 0.936,-4.824 1.368,-9.792 z m 29.664,10.368 h 6.984 q 0,0 -0.072,0.504 0,0.504 -0.072,1.224 0,0.648 -0.144,1.08 -0.576,6.984 -1.296,11.592 -0.72,4.536 -1.656,7.128 -0.864,2.592 -2.088,3.816 -1.368,1.296 -2.808,1.728 -1.44,0.504 -3.528,0.648 -1.8,0.144 -4.896,0.072 -3.024,0 -6.408,-0.144 -0.144,-1.44 -0.792,-3.24 -0.576,-1.8 -1.512,-3.168 3.384,0.288 6.48,0.432 3.168,0.072 4.536,0.072 1.08,0 1.8,-0.144 0.72,-0.144 1.368,-0.648 0.936,-0.72 1.656,-2.952 0.72,-2.304 1.296,-6.408 0.576,-4.176 1.08,-10.656 z m -48.456,-13.968004 h 62.64 v 6.336004 h -62.64 z m 27.216,-7.704 5.76,-1.44 q 1.44,2.304 2.808,5.184 1.368,2.88 2.016,4.968004 l -6.12,1.8 q -0.576,-2.16 -1.872,-5.112004 -1.296,-2.952 -2.592,-5.4 z m -27.936,-10.152 h 30.528 v 6.048 h -30.528 z m 13.032,-6.984 h 6.768 v 19.512 h -6.768 z m 31.032,0 h 6.696 v 19.512 h -6.696 z m -10.8,6.984 h 30.744 v 6.048 h -30.744 z m 48.816,53.496004 h 43.56 v 3.816 h -43.56 z m 7.56,-5.976 h 29.448 v 3.6 h -29.448 z m -19.08,-19.728 h 66.528 v 4.536 h -66.528 z m 15.12,-28.512004 4.032,0.936 q -0.864,2.304 -2.376,4.608 -1.512,2.232 -3.168,3.888 -0.576,-0.504 -1.728,-1.152 -1.08,-0.648 -1.8,-1.008 3.384,-3.096 5.04,-7.272 z m 21.096,9.216 h 20.592 v 4.176 h -20.592 z m -21.528,-6.12 h 16.992 v 3.456 h -16.992 z m -4.032,6.696 h 22.32 v 3.6 h -22.32 z m 31.032,-14.184 h 12.888 v 4.752 h -12.888 z m 14.256,13.608 h 1.08 l 1.008,-0.144 3.312,1.368 q -2.088,4.896 -5.832,8.496 -3.672,3.528004 -8.424,5.832004 -4.752,2.304 -10.08,3.6 -0.432,-0.936 -1.296,-2.16 -0.792,-1.296 -1.512,-2.016 4.752,-1.008 9.072,-2.88 4.392,-1.872 7.704,-4.752004 3.312,-2.88 4.968,-6.552 z m -16.704,-13.608 h 5.256 v 3.816 q 0,2.016 -0.648,4.032 -0.648,1.944 -2.376,3.744 -1.728,1.728 -5.04,3.168 -0.36,-0.648 -1.08,-1.44 -0.648,-0.792 -1.368,-1.584 -0.72,-0.792 -1.224,-1.08 2.808,-1.08 4.176,-2.16 1.368,-1.152 1.8,-2.304 0.504,-1.224 0.504,-2.52 z m -19.512,9 h 4.464 v 5.184 q 0,1.944 -0.792,4.248 -0.72,2.232 -2.952,4.392 -2.16,2.088004 -6.624,3.744004 -0.504,-0.792 -1.368,-1.656 -0.792,-0.936 -1.512,-1.584004 3.96,-1.152 5.76,-2.736 1.872,-1.584 2.448,-3.312 0.576,-1.728 0.576,-3.168 z m 5.832,26.424004 h 5.256 v 6.912 q 0,1.728 -0.648,3.24 -0.648,1.44 -2.304,2.736 -1.584,1.224 -4.392,2.232 -2.808,0.936 -7.128,1.584 -0.432,-0.864 -1.296,-2.016 -0.864,-1.224 -1.584,-1.944 3.744,-0.36 6.12,-0.936 2.376,-0.576 3.672,-1.296 1.368,-0.792 1.8,-1.656 0.504,-0.936 0.504,-1.944 z m 11.592,0.072 h 5.328 v 10.08 q 0,1.08 0.432,1.368 0.432,0.288 1.944,0.288 0.36,0 1.296,0 1.008,0 2.16,0 1.224,0 2.232,0 1.08,0 1.512,0 0.864,0 1.224,-0.072 0.36,-0.072 0.504,-0.36 0.864,0.432 2.088,0.792 1.224,0.288 2.16,0.432 -0.216,1.44 -1.44,2.016 -1.224,0.576 -3.744,0.576 -0.432,0 -1.656,0 -1.224,0 -2.736,0 -1.44,0 -2.664,0 -1.224,0 -1.656,0 -2.736,0 -4.32,-0.36 -1.512,-0.432 -2.088,-1.512 -0.576,-1.152 -0.576,-3.24 z m -17.28,-16.200004 2.592,-2.592 q 2.592,1.368 5.4,3.24 2.808,1.8 4.392,3.312 l -2.808,2.952004 q -1.512,-1.512 -4.32,-3.456004 -2.736,-1.944 -5.256,-3.456 z m 16.416,2.52 2.376,-3.456 q 2.952,1.152 6.264,2.52 3.312,1.296 6.624,2.736004 3.312,1.368 6.192,2.736 2.952,1.296 5.04,2.448 l -2.52,3.96 q -2.016,-1.152 -4.896,-2.52 -2.88,-1.368 -6.192,-2.88 -3.24,-1.512 -6.624,-2.88 -3.312,-1.440004 -6.264,-2.664004 z m 15.696,-21.816 h 5.4 v 6.12 q 0,1.008 0.144,1.44 0.144,0.36 0.792,0.36 0.432,0 1.44,0 1.008,0 1.44,0 0.72,0 1.656,-0.072 0.936,-0.072 1.512,-0.216 0.144,0.936 0.216,2.232 0.072,1.296 0.216,2.232 -0.576,0.216 -1.512,0.288 -0.936,0.072 -1.872,0.072 -0.432,0 -1.224,0 -0.72,0 -1.44,0 -0.72,0 -1.224,0 -2.304,0 -3.528,-0.648 -1.152,-0.648 -1.584,-2.088 -0.432,-1.44 -0.432,-3.672 z m -44.712,40.248004 h 52.272 v 24.696 h -6.408 v -20.88 h -39.672 v 20.88 h -6.192 z m -5.616,-39.960004 h 32.328 v 4.176 h -32.328 z m 2.376,2.592 h 5.256 v 20.304 q 0,1.872004 0.648,2.664004 0.648,0.72 2.52,0.72 0.648,0 2.088,0 1.512,0 3.312,0 1.8,0 3.6,0 1.872,0 3.24,0 1.44,0 2.16,0 1.512,0 3.6,-0.072 2.16,-0.144 3.24,-0.36 0.144,1.08 0.288,2.232 0.144,1.152 0.288,2.016 -1.008,0.288 -2.952,0.36 -1.944,0.072 -4.032,0.072 -0.72,0 -2.304,0 -1.584,0 -3.6,0 -1.944,0 -3.888,0 -1.944,0 -3.384,0 -1.44,0 -2.016,0 -3.096,0 -4.896,-0.72 -1.8,-0.792 -2.52,-2.52 -0.648,-1.8 -0.648,-4.608004 z m 98.784,17.064 h 29.376 v 5.976004 h -29.376 z m -5.472,12.888004 h 41.04 v 6.12 h -41.04 z m -0.288,-25.920004 h 40.896 v 13.392 h -6.552 v -7.488 h -28.008 v 7.488 h -6.336 z m 9.936,28.872004 h 6.552 q -0.288,5.4 -1.224,9.936 -0.864,4.536 -2.808,8.208 -1.944,3.6 -5.472,6.336 -3.528,2.808 -9.072,4.752 -0.504,-1.296 -1.656,-2.952 -1.152,-1.584 -2.232,-2.52 4.968,-1.512 7.992,-3.744 3.024,-2.232 4.608,-5.112 1.656,-2.952 2.304,-6.624 0.72,-3.744 1.008,-8.28 z m 12.744,-0.144 h 6.408 v 20.448 q 0,1.44 0.288,1.8 0.288,0.36 1.296,0.36 0.288,0 1.08,0 0.864,0 1.728,0 0.864,0 1.224,0 0.648,0 1.008,-0.576 0.36,-0.648 0.504,-2.52 0.216,-1.944 0.288,-5.76 0.72,0.504 1.728,1.008 1.008,0.504 2.088,0.936 1.08,0.36 1.944,0.576 -0.288,4.752 -1.008,7.416 -0.72,2.664 -2.16,3.672 -1.368,1.08 -3.672,1.08 -0.432,0 -1.296,0 -0.792,0 -1.728,0 -0.864,0 -1.656,0 -0.792,0 -1.152,0 -2.808,0 -4.32,-0.72 -1.512,-0.72 -2.088,-2.52 -0.504,-1.728 -0.504,-4.752 z m -8.424,-36.216004 6.336,-1.872 q 1.368,2.16 2.592,4.824 1.296,2.592 1.944,4.536 l -6.696,2.232 q -0.504,-1.944 -1.728,-4.68 -1.152,-2.808 -2.448,-5.04 z m -36.648,1.656 h 16.704 v 6.12 h -10.656 v 57.672004 h -6.048 z m 15.12,0 h 1.08 l 1.008,-0.216 4.464,2.52 q -1.512,4.464 -3.312,9.504 -1.728,5.04 -3.456,9.288 3.672,4.464004 4.752,8.352004 1.152,3.816 1.152,7.128 0,3.168 -0.72,5.472 -0.648,2.232 -2.304,3.456 -0.792,0.576 -1.8,0.936 -0.936,0.288 -2.088,0.504 -1.008,0.072 -2.304,0.144 -1.224,0 -2.448,-0.072 -0.072,-1.152 -0.504,-2.88 -0.36,-1.728 -1.08,-3.024 1.08,0.072 2.016,0.144 0.936,0 1.728,-0.072 1.296,-0.072 2.088,-0.576 0.792,-0.576 1.08,-1.8 0.288,-1.296 0.288,-2.952 0,-2.808 -1.152,-6.336 -1.152,-3.6 -4.68,-7.704004 0.936,-2.376 1.8,-5.112 0.864,-2.736 1.656,-5.472 0.864,-2.736 1.512,-5.184 0.72,-2.448 1.224,-4.176 z"
       id="text4"
       transform="matrix(0.26458333,0,0,0.26458333,-0.65464653,-4.4771203)"
       aria-label="萬芳醫院" />
    <path
       style="font-size:7.40833px;line-height:1.25;font-family:'AR UDJingXiHeiE1G30 EB';-inkscape-font-specification:'AR UDJingXiHeiE1G30 EB';fill:#f9f9f9;stroke-width:0.264583"
       d="m 45.194843,36.861861 -1.081616,4.111623 h -0.970491 l -1.377949,-5.356223 h 1.000124 l 0.896408,4.059765 1.044575,-4.059765 h 0.992716 l 1.029758,4.059765 0.948266,-4.059765 h 0.970491 l -1.414991,5.356223 h -0.970491 z m 6.949012,1.948391 -0.84455,-2.289174 -0.859366,2.289174 z m -1.978024,0.733424 -0.5334,1.429808 h -0.955675 l 2.155824,-5.356223 h 0.963083 l 2.141008,5.356223 h -0.9779 l -0.540808,-1.429808 z m 5.326583,-2.43734 v 3.867148 h -0.940858 v -5.356223 h 0.970491 l 2.629957,3.956048 v -3.956048 h 0.940858 v 5.356223 h -1.029758 z m 5.771084,1.489074 v 2.378074 H 60.32264 v -5.356223 h 3.756023 v 0.733425 h -2.815165 v 1.511299 h 2.474382 v 0.733425 z m 6.452662,0.214842 -0.84455,-2.289174 -0.859366,2.289174 z m -1.978024,0.733424 -0.5334,1.429808 h -0.955674 l 2.155824,-5.356223 h 0.963082 l 2.141008,5.356223 h -0.9779 l -0.540808,-1.429808 z m 5.326582,-2.43734 v 3.867148 H 70.12386 v -5.356223 h 0.970491 l 2.629957,3.956048 v -3.956048 h 0.940858 v 5.356223 h -1.029758 z m 8.764049,3.215215 q -0.274108,0.385233 -0.688975,0.570441 -0.407458,0.1778 -0.933449,0.1778 -1.1557,0 -1.837266,-0.726016 -0.681567,-0.733425 -0.681567,-2.044699 0,-1.318683 0.718608,-2.044699 0.718608,-0.726017 1.940983,-0.726017 0.985308,0 1.600199,0.451908 0.6223,0.4445 0.748241,1.274233 h -0.940858 q -0.07408,-0.437091 -0.437091,-0.711199 -0.3556,-0.281517 -0.970491,-0.281517 -0.822325,0 -1.252008,0.5334 -0.429683,0.525991 -0.429683,1.503891 0,1.044574 0.451908,1.540932 0.451908,0.48895 1.229783,0.48895 0.681566,0 1.081616,-0.40005 0.40005,-0.400049 0.40005,-0.918633 v -0.111125 h -1.518708 v -0.733424 h 2.422524 v 2.807757 h -0.903816 z m 4.896897,-1.726141 v 2.378074 h -0.940858 v -5.356223 h 0.940858 v 2.244724 h 2.57069 v -2.244724 h 0.940858 v 5.356223 H 87.296354 V 38.59541 Z m 9.890121,-0.274108 q 0,1.289049 -0.718608,2.022474 -0.7112,0.726016 -1.948391,0.726016 -1.259416,0 -1.970616,-0.733425 -0.711199,-0.733424 -0.711199,-2.015065 0,-1.303866 0.718608,-2.044699 0.718608,-0.748242 1.963207,-0.748242 1.259416,0 1.963208,0.740833 0.703791,0.740833 0.703791,2.052108 z m -2.666999,2.015065 q 0.807508,0 1.2446,-0.533399 0.444499,-0.5334 0.444499,-1.481666 0,-0.940858 -0.444499,-1.496483 -0.4445,-0.563033 -1.2446,-0.563033 -0.814916,0 -1.266824,0.570441 -0.4445,0.563033 -0.4445,1.489075 0,0.948266 0.451908,1.481666 0.451908,0.533399 1.259416,0.533399 z m 5.467348,-1.785407 q -0.9779,-0.1778 -1.452033,-0.548216 -0.474133,-0.370417 -0.474133,-1.037167 0,-0.622299 0.503766,-1.029758 0.511175,-0.407458 1.570566,-0.407458 0.970491,0 1.503891,0.414867 0.5334,0.414866 0.585258,1.200149 h -0.940858 q -0.0074,-0.377825 -0.296333,-0.629708 -0.288925,-0.251883 -0.881591,-0.251883 -0.555625,0 -0.822325,0.185208 -0.2667,0.185208 -0.259291,0.518583 0,0.363009 0.355599,0.540808 0.363009,0.1778 1.177925,0.340784 1.022349,0.207433 1.452033,0.563033 0.437091,0.3556 0.437091,1.066799 0,0.681567 -0.57785,1.140883 -0.577849,0.451908 -1.644649,0.451908 -1.089024,0 -1.696507,-0.459316 -0.607484,-0.459317 -0.607484,-1.326091 h 0.940858 q 0,0.481541 0.363009,0.770466 0.363008,0.281516 1.007532,0.281516 0.592667,0 0.926042,-0.229658 0.333375,-0.229658 0.333375,-0.600074 0,-0.429684 -0.333375,-0.614892 -0.333375,-0.185208 -1.170516,-0.340783 z m 4.282016,0.296333 v 2.126191 h -0.94086 v -5.356223 h 2.51883 q 0.78529,0 1.22979,0.429683 0.44449,0.429684 0.44449,1.140883 0,0.8001 -0.45931,1.229783 -0.45191,0.429683 -1.22238,0.429683 z m 2.29658,-1.644649 q 0,-0.414867 -0.23707,-0.629708 -0.23706,-0.22225 -0.69638,-0.22225 h -1.36313 v 1.763182 h 1.36313 q 0.45932,0 0.69638,-0.222249 0.23707,-0.229659 0.23707,-0.688975 z m 2.80035,-1.585383 v 5.356223 h -0.94086 v -5.356223 z m 2.37066,0.733425 h -1.66687 v -0.733425 h 4.26719 v 0.733425 h -1.65946 v 4.622798 h -0.94086 z m 6.16372,2.459566 -0.84455,-2.289174 -0.85936,2.289174 z m -1.97802,0.733424 -0.5334,1.429808 h -0.95567 l 2.15582,-5.356223 h 0.96308 l 2.14101,5.356223 h -0.9779 l -0.54081,-1.429808 z m 8.14916,1.429808 h -3.76343 v -5.356223 h 0.94086 v 4.622798 h 2.82257 z"
       id="text5"
       aria-label="WANFANG HOSPITAL" />
    <path
       d="m 42.048725,44.058636 h 6.511922 v 0.688974 h -6.511922 z m 2.341032,2.066924 h 3.044824 v 0.681566 h -3.044824 z m 2.800349,0 h 0.726016 q 0,0 0,0.06667 0,0.05927 -0.0074,0.140758 0,0.07408 -0.0074,0.118533 -0.03704,0.889 -0.0889,1.5113 -0.05186,0.622299 -0.118533,1.037166 -0.05927,0.414866 -0.140759,0.659341 -0.08149,0.244475 -0.185208,0.363008 -0.148167,0.162984 -0.318558,0.22225 -0.162983,0.06668 -0.392642,0.0889 -0.207433,0.02222 -0.570441,0.01482 -0.3556,-0.0074 -0.733425,-0.02223 -0.0074,-0.155575 -0.07408,-0.3556 -0.06667,-0.192617 -0.170392,-0.333375 0.40005,0.02963 0.75565,0.03704 0.3556,0.0074 0.511175,0.0074 0.13335,0.0074 0.207433,-0.0074 0.08149,-0.02222 0.148167,-0.08149 0.118533,-0.111125 0.200025,-0.474133 0.08149,-0.370417 0.140758,-1.0668 0.06667,-0.703791 0.118533,-1.800224 z m -3.252257,-1.496483 h 0.733425 q -0.02222,0.629708 -0.06667,1.289049 -0.04445,0.651933 -0.1778,1.296458 -0.125942,0.637117 -0.377825,1.229783 -0.244475,0.585258 -0.666749,1.089024 -0.422275,0.496359 -1.074208,0.874183 -0.08149,-0.140758 -0.229659,-0.303741 -0.140758,-0.155575 -0.281516,-0.259292 0.614891,-0.325966 1.007533,-0.777874 0.392641,-0.451908 0.614891,-0.985308 0.22225,-0.5334 0.325967,-1.11125 0.111125,-0.585258 0.140758,-1.177924 0.03704,-0.592667 0.05186,-1.163108 z m 7.682438,2.815165 h 3.192991 v 0.629708 h -3.192991 z m 0.733425,-2.296582 h 0.688975 v 1.237191 h -0.688975 z m -0.866774,1.229783 h 0.748241 q -0.05927,0.644525 -0.1778,1.252008 -0.111125,0.600074 -0.377825,1.126066 -0.259291,0.525991 -0.748241,0.955674 -0.481542,0.422275 -1.266825,0.718608 -0.05927,-0.13335 -0.185208,-0.311149 -0.125942,-0.1778 -0.251883,-0.281517 0.726016,-0.251883 1.155699,-0.614891 0.429683,-0.363009 0.651933,-0.814917 0.22225,-0.451908 0.31115,-0.963083 0.09631,-0.518583 0.140759,-1.066799 z m 3.000373,1.066799 h 0.718608 q 0,0 -0.0074,0.05186 0,0.05186 -0.0074,0.125941 0,0.06667 -0.01482,0.118534 -0.05927,0.748241 -0.140758,1.237191 -0.07408,0.48895 -0.170392,0.763058 -0.09631,0.274108 -0.229658,0.40005 -0.125942,0.133349 -0.281517,0.185208 -0.148166,0.05186 -0.370416,0.07408 -0.1778,0.0074 -0.496358,0 -0.318559,0 -0.66675,-0.01482 -0.01482,-0.148166 -0.08149,-0.333374 -0.05927,-0.185209 -0.155575,-0.325967 0.3556,0.02963 0.674158,0.04445 0.318559,0.0074 0.459317,0.0074 0.111125,0 0.185208,-0.01482 0.08149,-0.01482 0.148167,-0.06667 0.09631,-0.08149 0.170391,-0.325967 0.08149,-0.244475 0.140759,-0.688974 0.06667,-0.4445 0.118533,-1.140883 z m -5.089523,-1.414991 h 6.630456 v 0.651933 h -6.630456 z m 0.04445,-1.911349 h 6.548964 v 0.629708 h -6.548964 z m 1.615016,-0.592666 h 0.688975 v 1.911349 h -0.688975 z m 2.585508,0 h 0.696383 v 1.911349 h -0.696383 z m 5.171014,2.052107 h 4.667248 v 0.592667 h -4.667248 z m 2.007657,2.511424 0.422275,-0.348191 q 0.22225,0.185208 0.466725,0.414866 0.251883,0.229658 0.474133,0.451908 0.22225,0.214842 0.363008,0.385233 l -0.4445,0.392642 q -0.13335,-0.170392 -0.348191,-0.40005 -0.214842,-0.229658 -0.466725,-0.466725 -0.244475,-0.237066 -0.466725,-0.429683 z m -1.807632,-1.252008 h 3.844923 v 0.600075 h -3.215215 v 2.97074 h -0.629708 z m 3.578223,0 h 0.674158 v 2.844799 q 0,0.237067 -0.06668,0.377825 -0.05927,0.148167 -0.237066,0.229658 -0.162984,0.07408 -0.429684,0.0889 -0.259291,0.02222 -0.637116,0.01482 -0.01482,-0.125942 -0.0889,-0.303742 -0.06668,-0.1778 -0.140758,-0.303741 0.2667,0.0074 0.496358,0.0074 0.229658,0.0074 0.296333,0 0.08149,-0.0074 0.103717,-0.02963 0.02963,-0.02963 0.02963,-0.09631 z m -1.822449,-1.059391 h 0.614891 v 1.252008 q 0,0.296333 -0.05186,0.6223 -0.05186,0.318558 -0.200025,0.637116 -0.148166,0.318558 -0.422275,0.607483 Q 60.4362,49.1852 59.9917,49.414858 59.932434,49.31855 59.806492,49.1852 59.687959,49.044442 59.59165,48.96295 q 0.392642,-0.185208 0.629709,-0.422275 0.244474,-0.237066 0.355599,-0.496358 0.118534,-0.2667 0.155575,-0.525991 0.03704,-0.259292 0.03704,-0.48895 z m -2.548466,-1.429807 h 5.319181 v 0.629708 h -5.319181 z m -0.377824,0 h 0.666749 v 2.21509 q 0,0.437092 -0.04445,0.948266 -0.03704,0.503767 -0.162983,1.02235 -0.125942,0.518583 -0.363008,1.000124 -0.229658,0.474134 -0.614891,0.851958 -0.05186,-0.06667 -0.148167,-0.162983 -0.0889,-0.0889 -0.192617,-0.1778 -0.09631,-0.08149 -0.162983,-0.125941 0.348192,-0.3556 0.548217,-0.770467 0.207433,-0.422274 0.303741,-0.866774 0.103717,-0.4445 0.13335,-0.889 0.03704,-0.4445 0.03704,-0.837141 z m 2.266949,-0.822325 h 0.740833 v 1.244599 h -0.740833 z m -3.407832,1.674282 0.511175,-0.251883 q 0.192616,0.318558 0.355599,0.703792 0.162984,0.385233 0.22225,0.659341 l -0.548216,0.296333 q -0.03704,-0.192616 -0.118533,-0.429683 -0.08149,-0.244475 -0.192617,-0.496358 -0.111125,-0.259292 -0.229658,-0.481542 z m -0.09631,2.629958 q 0.266699,-0.118534 0.622299,-0.296334 0.363008,-0.1778 0.748242,-0.377824 l 0.170391,0.555624 q -0.325966,0.192617 -0.66675,0.392642 -0.333374,0.200025 -0.651933,0.370416 z m 11.719978,-4.282015 h 0.681567 v 1.133474 h -0.681567 z m -1.72614,0.814916 h 4.267198 v 1.400175 h -0.644525 v -0.8001 H 67.22964 v 0.8001 h -0.629708 z m 0.570441,1.3335 h 3.111499 v 0.607483 h -3.111499 z m -0.474133,1.318682 h 4.17089 v 0.629708 h -4.17089 z m 0.926041,0.288925 h 0.66675 q -0.02963,0.592667 -0.111125,1.081616 -0.08149,0.481542 -0.274108,0.866775 -0.185209,0.385233 -0.540808,0.66675 -0.348192,0.288925 -0.911225,0.481541 -0.02963,-0.08149 -0.09631,-0.185208 -0.06668,-0.103717 -0.140759,-0.200025 -0.07408,-0.09631 -0.148166,-0.155575 0.503766,-0.162983 0.800099,-0.392641 0.296334,-0.229659 0.451909,-0.540809 0.162983,-0.311149 0.22225,-0.718608 0.05927,-0.407458 0.08149,-0.903816 z m 1.370541,-0.06667 h 0.659342 v 2.229908 q 0,0.148166 0.02223,0.185208 0.02963,0.03704 0.125941,0.03704 0.02963,0 0.111125,0 0.08149,0 0.162983,0 0.0889,0 0.118534,0 0.07408,0 0.111125,-0.05927 0.03704,-0.05927 0.05186,-0.251883 0.01482,-0.200025 0.02223,-0.592667 0.06668,0.05927 0.170391,0.111125 0.103717,0.05186 0.214842,0.09631 0.118533,0.03704 0.207433,0.05927 -0.02963,0.496358 -0.103716,0.770466 -0.07408,0.281517 -0.214842,0.385234 -0.140758,0.111124 -0.385233,0.111124 -0.04445,0 -0.125942,0 -0.07408,0 -0.162983,0 -0.0889,0 -0.170392,0 -0.07408,0 -0.118533,0 -0.281516,0 -0.437091,-0.08149 -0.148167,-0.07408 -0.207434,-0.259292 -0.05186,-0.185208 -0.05186,-0.511174 z m -4.600573,-3.393015 h 1.740958 v 0.629708 h -1.126066 v 5.934072 h -0.614892 z m 1.533525,0 h 0.111125 l 0.103716,-0.02963 0.459317,0.2667 q -0.103717,0.311149 -0.22225,0.666749 -0.118534,0.348192 -0.244475,0.688975 -0.118533,0.340783 -0.237067,0.637116 0.377825,0.4445 0.496358,0.829733 0.118534,0.385233 0.118534,0.726017 0,0.318558 -0.07408,0.548216 -0.06668,0.229658 -0.237066,0.348192 -0.08149,0.05927 -0.185208,0.09631 -0.09631,0.02963 -0.214842,0.05186 -0.214842,0.02222 -0.48895,0.0074 -0.0074,-0.125942 -0.05186,-0.296334 -0.03704,-0.1778 -0.111125,-0.303741 0.111125,0.0074 0.207433,0.0074 0.09631,0 0.1778,0 0.140758,-0.0074 0.22225,-0.06667 0.07408,-0.05927 0.103717,-0.185208 0.02963,-0.125942 0.02963,-0.288925 0,-0.281516 -0.118533,-0.637116 -0.118534,-0.3556 -0.481542,-0.763058 0.09631,-0.251884 0.185208,-0.540808 0.0889,-0.288925 0.170392,-0.57785 0.0889,-0.296333 0.155575,-0.548217 0.07408,-0.259291 0.125942,-0.437091 z"
       id="text5-9"
       style="font-weight:500;font-size:7.40833px;line-height:1.25;font-family:'Noto Sans JP';-inkscape-font-specification:'Noto Sans JP Medium';fill:#f9f9f9;stroke-width:0.264583"
       aria-label="万芳病院" />
    <path
       style="font-weight:500;font-size:7.40833px;line-height:1.25;font-family:'Noto Sans KR';-inkscape-font-specification:'Noto Sans KR Medium';fill:#f9f9f9;stroke-width:0.264583"
       d="m 81.704206,46.487509 h 0.770466 v 1.022349 h -0.770466 z m 0.370416,-2.489199 q 0.48895,0 0.866775,0.170392 0.385233,0.170391 0.600075,0.481541 0.214841,0.303742 0.214841,0.703791 0,0.40005 -0.214841,0.7112 -0.214842,0.303742 -0.600075,0.474133 -0.377825,0.170392 -0.866775,0.170392 -0.48895,0 -0.866774,-0.170392 -0.377825,-0.170391 -0.592667,-0.474133 -0.214841,-0.31115 -0.214841,-0.7112 0,-0.400049 0.214841,-0.703791 0.214842,-0.31115 0.592667,-0.481541 0.377824,-0.170392 0.866774,-0.170392 z m 0,0.592666 q -0.274108,0 -0.496358,0.09631 -0.214841,0.0889 -0.333375,0.2667 -0.118533,0.170391 -0.118533,0.400049 0,0.229659 0.118533,0.407459 0.118534,0.170391 0.333375,0.266699 0.22225,0.0889 0.496358,0.0889 0.281517,0 0.496358,-0.0889 0.214842,-0.09631 0.333375,-0.266699 0.125942,-0.1778 0.125942,-0.407459 0,-0.229658 -0.125942,-0.400049 -0.118533,-0.1778 -0.333375,-0.2667 -0.214841,-0.09631 -0.496358,-0.09631 z m 2.496607,-0.881591 h 0.770467 V 48.8804 h -0.770467 z m 0.474134,2.215091 h 1.229782 v 0.644525 h -1.229782 z m -4.08199,3.785656 h 4.615389 v 0.629709 h -4.615389 z m 0,-1.266824 h 0.777874 v 1.540933 h -0.777874 z m -0.84455,-0.511175 -0.0889,-0.622299 q 0.57785,0 1.281641,-0.01482 0.7112,-0.01482 1.444625,-0.05927 0.740833,-0.04445 1.414991,-0.140758 l 0.05927,0.563033 q -0.696383,0.125942 -1.429807,0.185208 -0.733425,0.05927 -1.4224,0.07408 -0.681566,0.01482 -1.259416,0.01482 z m 6.911973,-3.674531 h 3.622673 v 0.622299 h -3.622673 z m -0.0889,3.178173 -0.0889,-0.637116 q 0.577849,0 1.266824,-0.0074 0.696383,-0.01482 1.4224,-0.05927 0.726016,-0.04445 1.385357,-0.125942 l 0.05186,0.570442 q -0.674158,0.111125 -1.392766,0.170391 -0.718609,0.05927 -1.400175,0.07408 -0.674158,0.01482 -1.244599,0.01482 z m 0.703791,-2.718857 h 0.748241 v 2.326216 h -0.748241 z m 1.644649,0 h 0.748242 v 2.326216 h -0.748242 z m 0.66675,3.23744 q 0.696383,0 1.200149,0.155575 0.511175,0.148167 0.777875,0.429683 0.274108,0.274109 0.274108,0.674158 0,0.592667 -0.607483,0.918633 -0.600074,0.333375 -1.644649,0.333375 -0.696383,0 -1.207558,-0.148166 -0.503766,-0.140759 -0.777874,-0.429684 -0.274109,-0.281516 -0.274109,-0.674158 0,-0.400049 0.274109,-0.674158 0.274108,-0.281516 0.777874,-0.429683 0.511175,-0.155575 1.207558,-0.155575 z m 0,0.614892 q -0.474133,0 -0.807508,0.07408 -0.325966,0.07408 -0.503766,0.214842 -0.1778,0.140758 -0.1778,0.355599 0,0.207434 0.1778,0.3556 0.1778,0.140758 0.503766,0.22225 0.333375,0.07408 0.807508,0.07408 0.474133,0 0.807508,-0.07408 0.333375,-0.08149 0.503766,-0.22225 0.1778,-0.148166 0.1778,-0.3556 0,-0.214841 -0.1778,-0.355599 -0.170391,-0.140759 -0.503766,-0.214842 -0.333375,-0.07408 -0.807508,-0.07408 z m 1.414991,-4.859865 h 0.770466 v 4.111623 h -0.770466 z m 0.563033,1.681691 h 1.163108 v 0.644525 H 91.93511 Z m 7.037919,-0.637116 h 1.792811 v 0.629708 h -1.792811 z m 0,1.392766 h 1.792811 v 0.622299 h -1.792811 z m -2.911474,-2.029883 h 0.770467 v 1.000125 h 1.585382 v -1.000125 h 0.763058 v 3.215216 h -3.118907 z m 0.770467,1.607608 v 0.992716 h 1.585382 v -0.992716 z m 3.748618,-2.015066 h 0.77787 v 4.067173 h -0.77787 z m -1.474261,4.200523 q 0.7112,0 1.214961,0.155575 0.51118,0.148167 0.78529,0.437092 0.28151,0.281516 0.28151,0.688974 0,0.607483 -0.61489,0.940858 -0.60748,0.333375 -1.666871,0.333375 -1.059391,0 -1.674283,-0.333375 -0.614891,-0.333375 -0.614891,-0.940858 0,-0.407458 0.274108,-0.688974 0.281517,-0.288925 0.792691,-0.437092 0.518583,-0.155575 1.222375,-0.155575 z m 0,0.600075 q -0.481542,0 -0.822325,0.08149 -0.333375,0.07408 -0.511175,0.22225 -0.177799,0.148166 -0.177799,0.377824 0,0.214842 0.177799,0.370417 0.1778,0.155575 0.511175,0.237066 0.340783,0.07408 0.822325,0.07408 0.481541,0 0.814916,-0.07408 0.333375,-0.08149 0.511175,-0.237066 0.18521,-0.155575 0.18521,-0.370417 0,-0.229658 -0.18521,-0.377824 -0.1778,-0.148167 -0.511175,-0.22225 -0.333375,-0.08149 -0.814916,-0.08149 z m 5.311771,-1.363133 h 0.77047 v 1.489075 h -0.77047 z m 2.97815,-3.437465 h 0.77788 v 5.133973 h -0.77788 z m -3.95605,6.000747 h 4.89691 v 0.629709 h -4.89691 z m 0,-1.363132 h 0.77788 v 1.533524 h -0.77788 z m -0.80751,-0.940858 -0.0963,-0.629708 q 0.6223,-0.0074 1.35572,-0.01482 0.73343,-0.01482 1.49648,-0.05186 0.77047,-0.04445 1.48167,-0.13335 l 0.0593,0.555625 q -0.72602,0.118533 -1.48908,0.1778 -0.75565,0.05927 -1.47426,0.07408 -0.7186,0.01482 -1.3335,0.02223 z m 3.43747,0.2667 h 1.51871 v 0.548216 h -1.51871 z m -1.34832,-3.711574 q 0.50377,0 0.87419,0.148167 0.37782,0.148167 0.58525,0.422275 0.21485,0.2667 0.21485,0.6223 0,0.355599 -0.21485,0.629708 -0.20743,0.274108 -0.58525,0.422274 -0.37042,0.140759 -0.87419,0.140759 -0.48895,0 -0.87418,-0.140759 -0.37782,-0.148166 -0.59267,-0.422274 -0.20743,-0.274109 -0.20743,-0.629708 0,-0.3556 0.20743,-0.6223 0.21485,-0.274108 0.59267,-0.422275 0.38523,-0.148167 0.87418,-0.148167 z m 0,0.570442 q -0.41486,0 -0.68156,0.170391 -0.25929,0.162984 -0.25929,0.451909 0,0.288924 0.25929,0.459316 0.2667,0.162983 0.68156,0.162983 0.41487,0 0.67416,-0.162983 0.25929,-0.170392 0.25929,-0.459316 0,-0.192617 -0.11853,-0.325967 -0.11853,-0.140758 -0.32597,-0.214842 -0.20743,-0.08149 -0.48895,-0.08149 z"
       id="text5-9-8"
       aria-label="완팡 병원" />
  </g>
</svg>
