<?xml version="1.0" encoding="UTF-8" standalone="no"?>
<!-- Created with Inkscape (http://www.inkscape.org/) -->

<svg
   width="500"
   height="250"
   viewBox="0 0 132.29166 66.145833"
   version="1.1"
   id="svg1"
   inkscape:version="1.3.2 (091e20e, 2023-11-25, custom)"
   sodipodi:docname="br05.svg"
   xmlns:inkscape="http://www.inkscape.org/namespaces/inkscape"
   xmlns:sodipodi="http://sodipodi.sourceforge.net/DTD/sodipodi-0.dtd"
   xmlns="http://www.w3.org/2000/svg"
   xmlns:svg="http://www.w3.org/2000/svg">
  <sodipodi:namedview
     id="namedview1"
     pagecolor="#9e652e"
     bordercolor="#ffffff"
     borderopacity="1"
     inkscape:showpageshadow="0"
     inkscape:pageopacity="0"
     inkscape:pagecheckerboard="false"
     inkscape:deskcolor="#d1d1d1"
     inkscape:document-units="mm"
     inkscape:zoom="2.0208096"
     inkscape:cx="220.20877"
     inkscape:cy="103.4239"
     inkscape:window-width="1920"
     inkscape:window-height="1009"
     inkscape:window-x="1912"
     inkscape:window-y="-8"
     inkscape:window-maximized="1"
     inkscape:current-layer="layer1" />
  <defs
     id="defs1">
    <rect
       x="157.85752"
       y="62.351248"
       width="329.07603"
       height="135.09437"
       id="rect4" />
  </defs>
  <g
     inkscape:label="Layer 1"
     inkscape:groupmode="layer"
     id="layer1">
    <path
       id="rect5"
       style="fill:#9e652e;stroke-width:0.953294"
       d="M -2.5431316e-6,-1.2715658e-6 H 132.29167 V 66.145835 H -2.5431316e-6 Z" />
    <path
       id="rect1"
       style="fill-opacity:0;stroke:#f9f9f9;stroke-width:0.953294"
       d="M 36.641016,14.144197 H 49.20463 c 3.97082,0 7.167545,3.196725 7.167545,7.167545 v 23.522352 c 0,3.970819 -3.196725,7.167544 -7.167545,7.167544 H 36.641016 c -3.97082,0 -7.167545,-3.196725 -7.167545,-7.167544 V 21.311742 c 0,-3.97082 3.196725,-7.167545 7.167545,-7.167545 z" />
    <path
       style="font-size:12.7px;line-height:1.25;font-family:'AR UDJingXiHeiE1G30 EB';-inkscape-font-specification:'AR UDJingXiHeiE1G30 EB';fill:#f9f9f9;stroke-width:0.264583"
       d="m 39.284275,30.493842 h -4.826 v -9.1821 h 4.4196 q 1.3081,0 2.0701,0.635 0.762,0.635 0.762,1.6891 0,0.6858 -0.3048,1.2065 -0.2921,0.508 -0.889,0.8382 0.7747,0.3048 1.1684,0.8382 0.4064,0.5334 0.4064,1.27 0,1.2192 -0.8001,1.9685 -0.8001,0.7366 -2.0066,0.7366 z m 0.7493,-6.6548 q 0,-0.6223 -0.3556,-0.9398 -0.3556,-0.3302 -1.0287,-0.3302 h -2.5781 v 2.5908 h 2.667 q 0.5715,0 0.9271,-0.3302 0.3683,-0.3429 0.3683,-0.9906 z m 0.381,3.937 q 0,-0.6604 -0.4064,-1.0033 -0.3937,-0.3556 -1.0414,-0.3556 h -2.8956 v 2.8194 h 2.8702 q 0.6731,0 1.0668,-0.3683 0.4064,-0.3683 0.4064,-1.0922 z m 9.042408,-3.8354 q 0,-0.6731 -0.3556,-1.016 -0.3556,-0.3556 -1.0287,-0.3556 h -2.7559 v 2.8575 h 2.667 q 0.6604,0 1.0668,-0.3937 0.4064,-0.3937 0.4064,-1.0922 z m -4.1402,2.7305 v 3.8227 h -1.6129 v -9.1821 h 4.6736 q 1.2573,0 1.9939,0.6731 0.7493,0.6604 0.7493,1.8796 0,0.8001 -0.381,1.3716 -0.3683,0.5715 -0.9271,0.8128 0.7112,0.4064 1.0922,1.4097 0.381,1.0033 0.4826,3.0353 h -1.6764 q -0.0762,-2.1336 -0.4699,-2.9718 -0.381,-0.8509 -1.2319,-0.8509 z"
       id="text2"
       aria-label="BR" />
    <path
       style="font-size:14.5521px;line-height:1.25;font-family:'AR UDJingXiHeiE1G30 EB';-inkscape-font-specification:'AR UDJingXiHeiE1G30 EB';fill:#f9f9f9;stroke-width:0.264583"
       d="m 42.282534,39.766528 q 0,2.750347 -0.887678,4.060036 -0.887678,1.309689 -2.750347,1.309689 -1.80446,0 -2.735795,-1.309689 -0.931334,-1.309689 -0.931334,-4.060036 0,-2.939524 0.887678,-4.220109 0.887678,-1.295137 2.779451,-1.295137 1.848117,0 2.735795,1.295137 0.90223,1.280585 0.90223,4.220109 z m -3.638025,3.929067 q 0.931335,0 1.367898,-0.916782 0.436563,-0.931334 0.436563,-3.012285 0,-2.241023 -0.422011,-3.157806 -0.407459,-0.916782 -1.38245,-0.916782 -0.97499,0 -1.397001,0.931335 -0.422011,0.916782 -0.422011,3.143253 0,2.066398 0.436563,2.997733 0.436563,0.931334 1.382449,0.931334 z m 8.629385,-4.452942 q -0.62574,0 -1.076855,0.232833 -0.451115,0.218282 -0.771261,0.669397 l -1.629836,-0.174625 0.785814,-5.544351 h 5.879048 v 1.440658 H 46.06607 l -0.407459,2.750347 q 0.363803,-0.407459 0.873126,-0.611188 0.523876,-0.218281 1.222377,-0.218281 1.498866,0 2.371992,0.97499 0.873126,0.974991 0.873126,2.663035 0,1.760804 -0.974991,2.735794 -0.97499,0.974991 -2.735795,0.974991 -1.7317,0 -2.70669,-0.858574 -0.974991,-0.858574 -1.004095,-2.313784 h 1.789908 q -0.01455,0.683949 0.465667,1.207825 0.48022,0.523875 1.411554,0.523875 0.887678,0 1.397002,-0.582084 0.523875,-0.596636 0.523875,-1.717148 0,-1.047751 -0.538427,-1.600731 -0.538428,-0.552979 -1.353346,-0.552979 z"
       id="text3"
       aria-label="05" />
    <path
       style="font-weight:500;font-size:72px;line-height:1.25;font-family:'Noto Sans TC';-inkscape-font-specification:'Noto Sans TC Medium';white-space:pre;fill:#f9f9f9"
       d="m 166.49742,83.385406 h 55.368 v 6.336 h -55.368 z m -4.824,18.648004 h 64.44 v 6.408 h -64.44 z m 3.384,16.704 h 58.104 v 6.48 h -58.104 z m 25.056,-12.384 h 7.128 v 35.064 h -7.128 z m -14.904,-14.760004 6.264,-1.944 q 1.512,2.664 2.88,5.832 1.44,3.168 1.944,5.400004 l -6.624,2.304 q -0.288,-1.512 -1.008,-3.528004 -0.72,-2.016 -1.656,-4.104 -0.864,-2.16 -1.8,-3.96 z m 31.032,-2.088 7.128,1.728 q -1.008,2.376 -2.16,4.896 -1.08,2.52 -2.16,4.752004 -1.08,2.232 -2.088,4.032 l -5.904,-1.656 q 0.936,-1.872 1.944,-4.248004 1.008,-2.448 1.8,-4.896 0.864,-2.52 1.44,-4.608 z m -18.432,-13.32 6.408,-2.016 q 1.512,2.592 2.952,5.76 1.512,3.096 2.232,5.4 l -6.768,2.376 q -0.576,-2.304 -2.016,-5.544 -1.368,-3.24 -2.808,-5.976 z m 80.208,49.752004 5.76,-4.248 q 2.808,1.584 5.976,3.456 3.24,1.8 6.408,3.816 3.168,1.944 5.976,3.888 2.808,1.944 4.824,3.6 l -6.264,4.824 q -2.448,-2.16 -6.336,-4.896 -3.816,-2.736 -8.136,-5.472 -4.32,-2.808 -8.208,-4.968 z m -34.2,-42.552004 h 64.368 v 6.624 h -64.368 z m 43.776,10.656 6.408,3.168 q -4.896,6.984004 -11.808,12.456004 -6.84,5.472 -15.192,9.504 -8.28,4.032 -17.64,6.696 -0.576,-1.44 -1.8,-3.24 -1.152,-1.8 -2.376,-3.024 8.928,-2.232 16.992,-5.832 8.064,-3.6 14.616,-8.496 6.552,-4.968 10.8,-11.232004 z m 9.216,10.368004 6.408,3.528 q -5.976,8.64 -14.4,15.12 -8.424,6.48 -18.792,11.016 -10.368,4.536 -22.32,7.416 -0.648,-1.44 -1.8,-3.312 -1.08,-1.8 -2.304,-3.168 11.592,-2.52 21.744,-6.624 10.152,-4.176 18.144,-10.08 8.064,-5.976 13.32,-13.896 z m -27.072,-28.224004 6.984,-2.088 q 1.44,2.16 2.952,4.824 1.584,2.664 2.304,4.608 l -7.344,2.376 q -0.648,-1.872 -2.088,-4.68 -1.368,-2.808 -2.808,-5.04 z m -17.424,32.976004 q -0.072,-0.864 -0.432,-2.232 -0.288,-1.44 -0.648,-2.736 -0.36,-1.368 -0.576,-2.16 1.08,-0.216 2.592,-0.72 1.512,-0.504 2.736,-1.512004 0.648,-0.576 1.872,-1.8 1.224,-1.296 2.736,-2.88 1.512,-1.656 3.024,-3.384 1.584,-1.728 2.88,-3.24 1.296,-1.512 2.16,-2.592 h 8.712 q -1.656,2.088 -3.888,4.68 -2.16,2.52 -4.536,5.112 -2.304,2.592 -4.536,4.968004 -2.16,2.376 -3.888,4.032 0,0 -0.864,0.288 -0.792,0.288 -2.016,0.72 -1.224,0.432 -2.448,1.08 -1.224,0.576 -2.088,1.224 -0.792,0.576 -0.792,1.152 z m 0,0 -0.144,-5.4 4.104,-2.304 27.936,-1.512004 q -0.432,0.936004 -0.936,2.160004 -0.432,1.152 -0.792,2.304 -0.288,1.08 -0.504,1.872 -7.2,0.432 -12.096,0.792 -4.896,0.36 -8.064,0.648 -3.168,0.288 -5.04,0.576 -1.8,0.216 -2.808,0.432 -1.008,0.216 -1.656,0.432 z"
       id="text4"
       transform="matrix(0.26458333,0,0,0.26458333,18.395359,-4.4771203)"
       aria-label="辛亥" />
    <path
       style="font-size:7.40833px;line-height:1.25;font-family:'AR UDJingXiHeiE1G30 EB';-inkscape-font-specification:'AR UDJingXiHeiE1G30 EB';fill:#f9f9f9;stroke-width:0.264583"
       d="m 64.548603,35.617261 h 1.089025 l -1.844674,2.585507 1.94839,2.770716 h -1.096432 l -1.400175,-2.066924 -1.400174,2.066924 h -1.0668 l 1.933574,-2.778124 -1.852082,-2.578099 h 1.103841 l 1.28905,1.926166 z m 2.748491,0 v 5.356223 h -0.940858 v -5.356223 z m 2.170635,1.489075 v 3.867148 h -0.940857 v -5.356223 h 0.970491 l 2.629957,3.956048 v -3.956048 h 0.940858 v 5.356223 H 72.03842 Z m 5.771084,1.489074 v 2.378074 h -0.940858 v -5.356223 h 0.940858 v 2.244724 h 2.57069 v -2.244724 h 0.940858 v 5.356223 H 77.809503 V 38.59541 Z m 7.593539,0.214842 -0.84455,-2.289174 -0.859366,2.289174 z m -1.978024,0.733424 -0.5334,1.429808 h -0.955675 l 2.155824,-5.356223 h 0.963083 l 2.141008,5.356223 h -0.9779 L 83.10646,39.543676 Z m 5.326583,-3.926415 v 5.356223 h -0.940857 v -5.356223 z"
       id="text5"
       aria-label="XINHAI" />
    <path
       d="m 61.535835,44.421644 h 5.697006 v 0.651933 h -5.697006 z m -0.496358,1.918757 h 6.630455 v 0.659342 h -6.630455 z m 0.348191,1.718733 h 5.978523 v 0.66675 h -5.978523 z m 2.578099,-4.533898 h 0.733425 v 1.170516 h -0.733425 z m 0,3.437465 h 0.733425 v 3.444873 h -0.733425 z m -1.429808,-1.726141 0.6223,-0.192616 q 0.162983,0.259291 0.318558,0.570441 0.155575,0.31115 0.22225,0.5334 l -0.666749,0.22225 q -0.05927,-0.22225 -0.200025,-0.540809 -0.140759,-0.325966 -0.296334,-0.592666 z m 3.096682,-0.214841 0.740833,0.177799 q -0.125941,0.244475 -0.259291,0.496359 -0.13335,0.251883 -0.2667,0.481541 -0.13335,0.22225 -0.259292,0.392641 l -0.600074,-0.170391 q 0.111125,-0.192617 0.229658,-0.429683 0.125942,-0.237067 0.229658,-0.48895 0.111125,-0.251883 0.185208,-0.459316 z m 3.289299,1.266824 0.525991,-0.459317 q 0.333375,0.185209 0.7112,0.429684 0.377825,0.237066 0.7112,0.488949 0.340783,0.244475 0.555624,0.459317 l -0.577849,0.525991 q -0.192617,-0.214841 -0.518583,-0.466724 -0.325967,-0.259292 -0.696383,-0.518584 -0.370417,-0.259291 -0.7112,-0.459316 z m 3.089273,2.52624 0.6223,-0.444499 q 0.281517,0.155575 0.607483,0.348191 0.325967,0.192617 0.651933,0.40005 0.333375,0.200025 0.6223,0.40005 0.288925,0.192616 0.48895,0.363008 l -0.674158,0.518583 Q 74.144813,50.237183 73.870704,50.037158 73.596596,49.837133 73.27063,49.622291 72.952071,49.40745 72.626105,49.200017 72.300138,48.992583 72.011213,48.814783 Z m -0.726016,-3.993089 0.718608,0.333374 q -0.259291,0.281517 -0.563033,0.570442 -0.303741,0.288925 -0.607483,0.548216 -0.296333,0.251884 -0.563033,0.451908 l -0.563033,-0.311149 q 0.259291,-0.214842 0.548216,-0.481542 0.296333,-0.274108 0.563033,-0.563033 0.274109,-0.288925 0.466725,-0.548216 z m -2.822574,-0.40005 h 6.600822 v 0.659341 h -6.600822 z m 2.904066,-0.903816 h 0.740833 v 1.192741 h -0.740833 z m 1.585382,1.978024 0.644525,0.333374 q -0.518583,0.696384 -1.244599,1.259417 -0.726017,0.563033 -1.585383,0.977899 -0.859366,0.414867 -1.807632,0.696383 -0.06668,-0.13335 -0.192617,-0.31115 -0.118533,-0.185208 -0.237067,-0.31115 0.911225,-0.237066 1.748366,-0.607483 0.84455,-0.377824 1.533525,-0.888999 0.688974,-0.511175 1.140882,-1.148291 z m 0.963083,1.163107 0.659342,0.370417 q -0.614892,0.874183 -1.496483,1.526116 -0.874183,0.651933 -1.963207,1.111249 -1.081617,0.459317 -2.311399,0.740833 -0.06668,-0.148166 -0.185209,-0.340783 -0.111125,-0.185208 -0.237066,-0.325966 1.207558,-0.251884 2.25954,-0.66675 1.051983,-0.414866 1.889125,-1.014941 0.844549,-0.600075 1.385357,-1.400175 z"
       id="text5-9"
       style="font-weight:500;font-size:7.40833px;line-height:1.25;font-family:'Noto Sans JP';-inkscape-font-specification:'Noto Sans JP Medium';fill:#f9f9f9;stroke-width:0.264583"
       aria-label="辛亥" />
    <path
       style="font-weight:500;font-size:7.40833px;line-height:1.25;font-family:'Noto Sans KR';-inkscape-font-specification:'Noto Sans KR Medium';fill:#f9f9f9;stroke-width:0.264583"
       d="m 87.491173,43.709385 h 0.777875 v 4.948765 h -0.777875 z m -3.63749,6.000747 h 4.607982 v 0.629709 h -4.607982 z m 0,-1.511299 h 0.770467 v 1.822449 h -0.770467 z m 0.518584,-4.119031 h 0.644524 v 0.674158 q 0,0.666749 -0.22225,1.259416 -0.22225,0.585258 -0.644524,1.029758 -0.422275,0.444499 -1.029758,0.674158 L 82.720209,47.1024 q 0.5334,-0.200025 0.903816,-0.563033 0.370417,-0.370416 0.555625,-0.829733 0.192617,-0.466724 0.192617,-0.955674 z m 0.155574,0 h 0.629709 v 0.674158 q 0,0.363008 0.103716,0.703791 0.111125,0.333375 0.318558,0.629708 0.214842,0.296333 0.518583,0.525992 0.303742,0.229658 0.696383,0.363008 l -0.400049,0.622299 Q 85.802074,47.376509 85.379799,46.961642 84.957525,46.539367 84.742683,45.976334 84.527841,45.405893 84.527841,44.75396 Z m 9.45303,-0.370417 h 0.777875 v 6.771214 h -0.777875 z m 0.600075,2.718857 h 1.222374 v 0.644525 H 94.580946 Z M 89.469198,44.75396 h 3.970865 v 0.622299 h -3.970865 z m 2.015066,1.103841 q 0.481541,0 0.859366,0.207433 0.377825,0.200025 0.592667,0.555625 0.22225,0.3556 0.22225,0.814916 0,0.466725 -0.22225,0.822325 -0.214842,0.3556 -0.592667,0.563033 -0.377825,0.200025 -0.866774,0.200025 -0.481542,0 -0.859367,-0.200025 -0.377824,-0.207433 -0.600074,-0.563033 -0.214842,-0.3556 -0.214842,-0.822325 0,-0.459316 0.214842,-0.814916 0.22225,-0.3556 0.600074,-0.555625 0.377825,-0.207433 0.866775,-0.207433 z m -0.0074,0.637116 q -0.2667,0 -0.481542,0.118534 -0.214841,0.118533 -0.340783,0.333374 -0.118533,0.207434 -0.118533,0.48895 0,0.288925 0.118533,0.503767 0.125942,0.207433 0.340783,0.325966 0.214842,0.118533 0.481542,0.118533 0.274108,0 0.481541,-0.118533 0.214842,-0.118533 0.333375,-0.325966 0.125942,-0.214842 0.125942,-0.503767 0,-0.281516 -0.125942,-0.48895 -0.118533,-0.214841 -0.333375,-0.333374 -0.207433,-0.118534 -0.481541,-0.118534 z m -0.392642,-2.696632 h 0.777875 v 1.214966 h -0.777875 z m 10.030876,-0.09631 h 0.77788 v 6.78603 h -0.77788 z m -2.82257,0.496358 q 0.503766,0 0.896408,0.296333 0.40005,0.296333 0.6223,0.829733 0.222252,0.5334 0.222252,1.259416 0,0.733425 -0.222252,1.274233 -0.22225,0.5334 -0.6223,0.829733 -0.392642,0.288925 -0.896408,0.288925 -0.503766,0 -0.903816,-0.288925 -0.392642,-0.296333 -0.6223,-0.829733 -0.22225,-0.540808 -0.22225,-1.274233 0,-0.726016 0.22225,-1.259416 0.229658,-0.5334 0.6223,-0.829733 0.40005,-0.296333 0.903816,-0.296333 z m 0,0.703791 q -0.296333,0 -0.525991,0.200025 -0.22225,0.200025 -0.348192,0.57785 -0.125942,0.377825 -0.125942,0.903816 0,0.5334 0.125942,0.911225 0.125942,0.377825 0.348192,0.585258 0.229658,0.200025 0.525991,0.200025 0.296333,0 0.518583,-0.200025 0.22225,-0.207433 0.348192,-0.585258 0.125941,-0.377825 0.125941,-0.911225 0,-0.525991 -0.125941,-0.903816 -0.125942,-0.377825 -0.348192,-0.57785 -0.22225,-0.200025 -0.518583,-0.200025 z"
       id="text5-9-8"
       aria-label="신하이" />
  </g>
</svg>
