<?xml version="1.0" encoding="UTF-8" standalone="no"?>
<!-- Created with Inkscape (http://www.inkscape.org/) -->

<svg
   width="500"
   height="250"
   viewBox="0 0 132.29166 66.145833"
   version="1.1"
   id="svg1"
   inkscape:version="1.3.2 (091e20e, 2023-11-25, custom)"
   sodipodi:docname="br06.svg"
   xmlns:inkscape="http://www.inkscape.org/namespaces/inkscape"
   xmlns:sodipodi="http://sodipodi.sourceforge.net/DTD/sodipodi-0.dtd"
   xmlns="http://www.w3.org/2000/svg"
   xmlns:svg="http://www.w3.org/2000/svg">
  <sodipodi:namedview
     id="namedview1"
     pagecolor="#9e652e"
     bordercolor="#ffffff"
     borderopacity="1"
     inkscape:showpageshadow="0"
     inkscape:pageopacity="0"
     inkscape:pagecheckerboard="false"
     inkscape:deskcolor="#d1d1d1"
     inkscape:document-units="mm"
     inkscape:zoom="2.0208096"
     inkscape:cx="220.20877"
     inkscape:cy="103.4239"
     inkscape:window-width="1920"
     inkscape:window-height="1009"
     inkscape:window-x="1912"
     inkscape:window-y="-8"
     inkscape:window-maximized="1"
     inkscape:current-layer="layer1" />
  <defs
     id="defs1">
    <rect
       x="157.85752"
       y="62.351248"
       width="329.07603"
       height="135.09437"
       id="rect4" />
  </defs>
  <g
     inkscape:label="Layer 1"
     inkscape:groupmode="layer"
     id="layer1">
    <path
       id="rect5"
       style="fill:#9e652e;stroke-width:0.953294"
       d="M -2.5431316e-6,-1.2715658e-6 H 132.29167 V 66.145835 H -2.5431316e-6 Z" />
    <path
       id="rect1"
       style="fill-opacity:0;stroke:#f9f9f9;stroke-width:0.953294"
       d="M 36.641016,14.144197 H 49.20463 c 3.97082,0 7.167545,3.196725 7.167545,7.167545 v 23.522352 c 0,3.970819 -3.196725,7.167544 -7.167545,7.167544 H 36.641016 c -3.97082,0 -7.167545,-3.196725 -7.167545,-7.167544 V 21.311742 c 0,-3.97082 3.196725,-7.167545 7.167545,-7.167545 z" />
    <path
       style="font-size:12.7px;line-height:1.25;font-family:'AR UDJingXiHeiE1G30 EB';-inkscape-font-specification:'AR UDJingXiHeiE1G30 EB';fill:#f9f9f9;stroke-width:0.264583"
       d="m 39.284275,30.493842 h -4.826 v -9.1821 h 4.4196 q 1.3081,0 2.0701,0.635 0.762,0.635 0.762,1.6891 0,0.6858 -0.3048,1.2065 -0.2921,0.508 -0.889,0.8382 0.7747,0.3048 1.1684,0.8382 0.4064,0.5334 0.4064,1.27 0,1.2192 -0.8001,1.9685 -0.8001,0.7366 -2.0066,0.7366 z m 0.7493,-6.6548 q 0,-0.6223 -0.3556,-0.9398 -0.3556,-0.3302 -1.0287,-0.3302 h -2.5781 v 2.5908 h 2.667 q 0.5715,0 0.9271,-0.3302 0.3683,-0.3429 0.3683,-0.9906 z m 0.381,3.937 q 0,-0.6604 -0.4064,-1.0033 -0.3937,-0.3556 -1.0414,-0.3556 h -2.8956 v 2.8194 h 2.8702 q 0.6731,0 1.0668,-0.3683 0.4064,-0.3683 0.4064,-1.0922 z m 9.042408,-3.8354 q 0,-0.6731 -0.3556,-1.016 -0.3556,-0.3556 -1.0287,-0.3556 h -2.7559 v 2.8575 h 2.667 q 0.6604,0 1.0668,-0.3937 0.4064,-0.3937 0.4064,-1.0922 z m -4.1402,2.7305 v 3.8227 h -1.6129 v -9.1821 h 4.6736 q 1.2573,0 1.9939,0.6731 0.7493,0.6604 0.7493,1.8796 0,0.8001 -0.381,1.3716 -0.3683,0.5715 -0.9271,0.8128 0.7112,0.4064 1.0922,1.4097 0.381,1.0033 0.4826,3.0353 h -1.6764 q -0.0762,-2.1336 -0.4699,-2.9718 -0.381,-0.8509 -1.2319,-0.8509 z"
       id="text2"
       aria-label="BR" />
    <path
       style="font-size:14.5521px;line-height:1.25;font-family:'AR UDJingXiHeiE1G30 EB';-inkscape-font-specification:'AR UDJingXiHeiE1G30 EB';fill:#f9f9f9;stroke-width:0.264583"
       d="m 42.282534,39.766528 q 0,2.750347 -0.887678,4.060036 -0.887678,1.309689 -2.750347,1.309689 -1.80446,0 -2.735795,-1.309689 -0.931334,-1.309689 -0.931334,-4.060036 0,-2.939524 0.887678,-4.220109 0.887678,-1.295137 2.779451,-1.295137 1.848117,0 2.735795,1.295137 0.90223,1.280585 0.90223,4.220109 z m -3.638025,3.929067 q 0.931335,0 1.367898,-0.916782 0.436563,-0.931334 0.436563,-3.012285 0,-2.241023 -0.422011,-3.157806 -0.407459,-0.916782 -1.38245,-0.916782 -0.97499,0 -1.397001,0.931335 -0.422011,0.916782 -0.422011,3.143253 0,2.066398 0.436563,2.997733 0.436563,0.931334 1.382449,0.931334 z m 8.80401,1.440658 q -0.829469,0 -1.513418,-0.232833 -0.669397,-0.232834 -1.149616,-0.742158 -0.582084,-0.596636 -0.873126,-1.615283 -0.291042,-1.033199 -0.291042,-2.561169 0,-2.721243 0.989543,-4.220109 1.004095,-1.513419 2.866764,-1.513419 1.513418,0 2.342888,0.814918 0.844022,0.814917 0.931334,2.00819 H 48.97649 q -0.0291,-0.494772 -0.407459,-0.931335 -0.363802,-0.451115 -1.076855,-0.451115 -0.945887,0 -1.498867,1.033199 -0.538427,1.033199 -0.552979,2.56117 0.436563,-0.596636 1.062303,-0.90223 0.62574,-0.305594 1.411554,-0.305594 1.45521,0 2.284679,0.960438 0.82947,0.945887 0.82947,2.459305 0,1.746252 -0.989543,2.692139 -0.989542,0.945886 -2.590274,0.945886 z m 1.746253,-3.565264 q 0,-0.902231 -0.494772,-1.469763 -0.480219,-0.582084 -1.266033,-0.582084 -0.858574,0 -1.367897,0.55298 -0.494771,0.538428 -0.523876,1.45521 0,1.018647 0.494772,1.600731 0.509323,0.567532 1.382449,0.567532 0.844022,0 1.309689,-0.55298 0.465668,-0.552979 0.465668,-1.571626 z"
       id="text3"
       aria-label="06" />
    <path
       style="font-weight:500;font-size:72px;line-height:1.25;font-family:'Noto Sans TC';-inkscape-font-specification:'Noto Sans TC Medium';white-space:pre;fill:#f9f9f9"
       d="m 194.43342,86.913406 h 31.824 v 5.472 h -31.824 z m 15.984,24.768004 h 16.56 v 5.184 h -16.56 z m -2.808,-37.008004 h 5.616 v 31.896004 h -5.616 z m 10.296,30.744004 h 4.968 v 36 h -4.968 z m 2.448,-29.304004 5.328,2.088 q -1.512,2.376 -2.952,4.68 -1.44,2.232 -2.736,3.96 l -4.248,-1.872 q 1.152,-1.872 2.448,-4.392 1.368,-2.52 2.16,-4.464 z m -24.768,2.304 4.608,-1.872 q 1.44,1.944 2.736,4.32 1.368,2.304 1.944,4.104 l -4.752,2.088 q -0.576,-1.728 -1.872,-4.176 -1.224,-2.448 -2.664,-4.464 z m 6.912,15.624 4.248,1.44 q -1.08,2.16 -2.736,4.248 -1.656,2.088004 -3.672,3.888004 -1.944,1.8 -4.032,2.88 -0.648,-0.936 -1.8,-2.16 -1.152,-1.296 -2.088,-2.088 2.016,-0.792 3.96,-2.088 1.944,-1.368004 3.528,-2.952004 1.584,-1.584 2.592,-3.168 z m -8.64,28.440004 3.24,-3.672 q 1.8,1.368 3.816,3.168 2.088,1.8 3.24,3.096 l -3.312,4.176 q -1.152,-1.44 -3.168,-3.312 -2.016,-1.872 -3.816,-3.456 z m 11.16,-11.88 h 0.864 l 0.864,-0.072 2.88,0.648 q -1.224,11.304 -4.896,18.936 -3.672,7.632 -9.36,11.592 -0.432,-0.864 -1.368,-2.16 -0.864,-1.224 -1.584,-1.872 4.896,-3.168 8.208,-9.936 3.384,-6.84 4.392,-16.344 z m -7.416,-5.976 4.536,0.864 q -1.296,6.408 -3.6,12.312 -2.232,5.832 -5.472,9.864 -0.216,-0.504 -0.72,-1.224 -0.504,-0.792 -1.08,-1.584 -0.576,-0.792 -1.08,-1.224 2.808,-3.528 4.608,-8.496 1.8,-5.04 2.808,-10.512 z m 1.44,5.976 h 6.984 v 4.752 h -9.288 z m -33.12,-28.944004 h 27.216 v 5.544 h -27.216 z m 7.344,37.080004 h 6.552 v 5.04 h -6.552 z m -1.008,-30.384004 h 4.104 v 20.304004 h -4.104 z m 7.992,0 h 4.104 v 20.304004 h -4.104 z m -14.328,4.752 h 26.424 v 17.784004 h -26.424 v -5.112 h 21.96 v -7.560004 h -21.96 z m -2.448,-11.448 h 5.04 v 29.520004 q 0,3.528 -0.144,7.56 -0.144,4.032 -0.648,8.136 -0.432,4.104 -1.296,7.92 -0.864,3.816 -2.304,6.912 -0.432,-0.432 -1.224,-1.008 -0.792,-0.576 -1.656,-1.152 -0.792,-0.504 -1.368,-0.72 1.728,-3.888 2.448,-8.64 0.792,-4.752 0.936,-9.72 0.216,-4.968 0.216,-9.288 z m 10.296,-5.688 5.4,-1.512 q 1.224,2.088 2.304,4.608 1.08,2.448 1.656,4.248 l -5.76,1.8 q -0.432,-1.8 -1.512,-4.392 -1.008,-2.592 -2.088,-4.752 z m -3.096,63.720004 -0.504,-4.176 1.8,-1.8 7.92,-2.808 q 0.072,0.936 0.216,2.16 0.216,1.224 0.432,1.944 -3.672,1.512 -5.688,2.376 -2.016,0.864 -2.88,1.296 -0.864,0.504 -1.296,1.008 z m 13.464,-20.952 h 6.912 v 5.04 h -6.912 z m -2.376,21.024 -0.504,-4.392 1.872,-1.872 8.136,-2.736 q 0.072,1.008 0.216,2.304 0.216,1.224 0.432,2.016 -3.744,1.512 -5.832,2.376 -2.088,0.936 -2.952,1.368 -0.864,0.504 -1.368,0.936 z m 30.168,-13.968 h 15.624 v 5.328 h -16.704 z m -0.216,-10.224 3.744,0.36 q -0.504,3.672 -1.224,7.92 -0.648,4.248 -1.296,7.2 h -3.456 q 0.432,-2.088 0.864,-4.68 0.432,-2.664 0.792,-5.472 0.36,-2.88 0.576,-5.328 z m -41.04,24.12 q -0.36,-0.864 -1.152,-2.016 -0.792,-1.08 -1.44,-1.728 0.792,-0.576 1.656,-1.944 0.864,-1.368 0.864,-3.816 v -18.288 h 4.68 v 22.176 q 0,0 -0.72,0.576 -0.72,0.576 -1.656,1.512 -0.864,0.936 -1.584,1.872 -0.648,0.936 -0.648,1.656 z m 11.088,0.072 q -0.36,-0.864 -1.152,-2.016 -0.792,-1.08 -1.368,-1.728 0.792,-0.576 1.584,-1.872 0.864,-1.368 0.864,-3.888 v -18.288 h 4.68 v 22.176 q 0,0 -0.72,0.648 -0.648,0.576 -1.584,1.44 -0.936,0.936 -1.656,1.872 -0.648,0.936 -0.648,1.656 z m 35.208,-45.864004 q 0.864,0.432 2.448,1.44 1.584,1.008 3.384,2.16 1.8,1.152 3.312,2.16 1.512,1.008004 2.16,1.512004 l -3.312,4.896 q -0.864,-0.864 -2.304,-2.088 -1.44,-1.296 -3.168,-2.664 -1.656,-1.440004 -3.168,-2.592004 -1.44,-1.224 -2.448,-1.944 z m 54.504,12.744004 h 6.84 v 25.344 q 0,1.8 0.504,2.376 0.576,0.576 2.52,0.576 0.504,0 1.584,0 1.08,0 2.376,0 1.368,0 2.52,0 1.224,0 1.8,0 1.296,0 1.944,-0.864 0.72,-0.864 1.008,-3.384 0.288,-2.52 0.432,-7.56 0.72,0.576 1.8,1.152 1.152,0.504 2.304,0.936 1.224,0.432 2.16,0.72 -0.36,6.048 -1.296,9.432 -0.864,3.312 -2.736,4.608 -1.8,1.368 -5.04,1.368 -0.576,0 -1.944,0 -1.368,0 -2.952,0 -1.584,0 -2.952,0 -1.296,0 -1.872,0 -3.528,0 -5.544,-0.864 -1.944,-0.864 -2.736,-2.88 -0.72,-2.016 -0.72,-5.544 z m -19.224,0.36 h 7.272 q -0.504,6.048 -1.584,11.376 -1.08,5.256 -3.528,9.648 -2.376,4.32 -6.768,7.704 -4.392,3.456 -11.448,5.832 -0.432,-0.936 -1.152,-2.088 -0.648,-1.08 -1.512,-2.16 -0.792,-1.008 -1.584,-1.656 6.48,-1.944 10.368,-4.752 3.888,-2.808 5.904,-6.408 2.016,-3.672 2.808,-8.064 0.864,-4.392 1.224,-9.432 z m -12.96,-26.712004 6.12,-2.304 q 1.8,2.736 3.456,5.904 1.728,3.168 3.096,6.264 1.368,3.024 1.944,5.472 l -6.552,2.592 q -0.576,-2.376 -1.872,-5.472 -1.224,-3.096 -2.88,-6.336 -1.584,-3.312 -3.312,-6.12 z m 47.016,-2.952 7.128,2.448 q -1.512,3.168 -3.312,6.552 -1.728,3.312 -3.456,6.336 -1.656,3.024 -3.24,5.256 l -5.904,-2.232 q 1.512,-2.448 3.168,-5.616 1.656,-3.24 3.096,-6.552 1.512,-3.384 2.52,-6.192 z m -52.704,24.336004 h 64.656 v 6.48 h -64.656 z m 28.584,-27.000004 h 6.912 v 29.664004 h -6.912 z"
       id="text4"
       transform="matrix(0.26458333,0,0,0.26458333,18.395359,-4.4771203)"
       aria-label="麟光" />
    <path
       style="font-size:7.40833px;line-height:1.25;font-family:'AR UDJingXiHeiE1G30 EB';-inkscape-font-specification:'AR UDJingXiHeiE1G30 EB';fill:#f9f9f9;stroke-width:0.264583"
       d="m 65.156086,40.973484 h -3.763431 v -5.356223 h 0.940858 v 4.622798 h 2.822573 z m 1.718739,-5.356223 v 5.356223 h -0.940858 v -5.356223 z m 2.170636,1.489075 v 3.867148 h -0.940858 v -5.356223 h 0.970491 l 2.629957,3.956048 v -3.956048 h 0.940858 v 5.356223 h -1.029758 z m 8.764049,3.215215 q -0.274108,0.385233 -0.688974,0.570441 -0.407459,0.1778 -0.93345,0.1778 -1.1557,0 -1.837266,-0.726016 -0.681566,-0.733425 -0.681566,-2.044699 0,-1.318683 0.718608,-2.044699 0.718608,-0.726017 1.940982,-0.726017 0.985308,0 1.600199,0.451908 0.6223,0.4445 0.748242,1.274233 h -0.940858 q -0.07408,-0.437091 -0.437092,-0.711199 -0.355599,-0.281517 -0.970491,-0.281517 -0.822324,0 -1.252008,0.5334 -0.429683,0.525991 -0.429683,1.503891 0,1.044574 0.451908,1.540932 0.451909,0.48895 1.229783,0.48895 0.681567,0 1.081616,-0.40005 0.40005,-0.400049 0.40005,-0.918633 v -0.111125 h -1.518707 v -0.733424 h 2.422523 v 2.807757 H 77.80951 Z m 6.50451,-1.222375 q 0,0.93345 -0.585258,1.452033 -0.585258,0.518583 -1.666874,0.518583 -1.096433,0 -1.6891,-0.511175 -0.585258,-0.511174 -0.585258,-1.452032 v -3.489324 h 0.940858 v 3.444874 q 0,0.607483 0.333375,0.940858 0.333375,0.333374 1.000125,0.333374 0.629708,0 0.963082,-0.318558 0.340784,-0.325966 0.340784,-0.970491 v -3.430057 h 0.948266 z m 4.044949,-0.288924 -0.84455,-2.289174 -0.859366,2.289174 z m -1.978024,0.733424 -0.5334,1.429808 H 84.89187 l 2.155825,-5.356223 h 0.963082 l 2.141008,5.356223 h -0.9779 l -0.540808,-1.429808 z m 5.326583,-2.43734 v 3.867148 h -0.940857 v -5.356223 h 0.970491 l 2.629957,3.956048 v -3.956048 h 0.940858 v 5.356223 h -1.029758 z m 8.764052,3.215215 q -0.27411,0.385233 -0.688977,0.570441 -0.407458,0.1778 -0.93345,0.1778 -1.155699,0 -1.837265,-0.726016 -0.681567,-0.733425 -0.681567,-2.044699 0,-1.318683 0.718608,-2.044699 0.718608,-0.726017 1.940983,-0.726017 0.985307,0 1.600198,0.451908 0.6223,0.4445 0.74824,1.274233 h -0.94086 q -0.0741,-0.437091 -0.437087,-0.711199 -0.3556,-0.281517 -0.970491,-0.281517 -0.822325,0 -1.252008,0.5334 -0.429683,0.525991 -0.429683,1.503891 0,1.044574 0.451908,1.540932 0.451908,0.48895 1.229783,0.48895 0.681566,0 1.081618,-0.40005 0.40005,-0.400049 0.40005,-0.918633 v -0.111125 h -1.51871 v -0.733424 h 2.42252 v 2.807757 h -0.90381 z"
       id="text5"
       aria-label="LINGUANG" />
    <path
       d="m 64.321367,44.769835 h 3.422648 v 0.540808 h -3.422648 z m -2.844799,-0.481541 h 2.807757 v 0.570441 h -2.807757 z m 0.75565,3.793065 h 0.688975 v 0.511175 h -0.688975 z m 3.63749,-0.748242 h 1.896532 v 0.5334 h -1.896532 z m -0.207433,1.452033 h 2.178049 v 0.555625 h -2.178049 z m 0.05186,-5.252506 h 0.592666 v 3.267074 h -0.592666 z m -3.230032,-0.02963 h 0.600075 v 1.081616 H 62.484101 Z M 62.09146,44.92541 h 0.429683 v 2.089149 H 62.09146 Z m 0.829733,0 h 0.422274 v 2.089149 h -0.422274 z m 3.118907,2.681816 h 0.429683 V 49.14075 H 66.0401 Z m 0.792691,-0.963083 h 0.5334 v 3.748615 h -0.5334 z m 0.237066,-3.022599 0.5334,0.244475 q -0.162983,0.251883 -0.325966,0.48895 -0.162984,0.237066 -0.303742,0.407458 l -0.429683,-0.207433 q 0.125942,-0.192617 0.281517,-0.459317 0.155574,-0.2667 0.244474,-0.474133 z m -3.118907,4.104215 0.333375,0.385233 q -0.200025,0.170392 -0.422274,0.333375 -0.22225,0.155575 -0.40005,0.2667 l -0.251884,-0.318558 q 0.162984,-0.125942 0.377825,-0.318559 0.22225,-0.200024 0.363008,-0.348191 z m 2.600324,-2.666999 q 0.148167,0.207433 0.363008,0.437092 0.22225,0.22225 0.474134,0.414866 0.251883,0.185208 0.481541,0.303742 -0.09631,0.08149 -0.229658,0.229658 -0.125942,0.140758 -0.200025,0.251883 -0.229658,-0.162983 -0.474133,-0.40005 -0.244475,-0.244475 -0.459317,-0.525991 -0.214841,-0.288925 -0.370416,-0.548217 z m -2.207682,3.37079 0.288925,-0.414866 q 0.1778,0.118533 0.370416,0.288925 0.200025,0.162983 0.296334,0.296333 l -0.288925,0.466725 Q 64.906625,48.9185 64.714008,48.7407 64.5288,48.5629 64.343592,48.42955 Z m 0.09631,-4.541306 0.48895,-0.214842 q 0.155575,0.200025 0.303742,0.451909 0.155575,0.244474 0.214841,0.429683 l -0.511175,0.244475 q -0.05927,-0.192617 -0.200025,-0.4445 -0.140758,-0.259292 -0.296333,-0.466725 z m 0.985308,3.304115 h 0.0889 l 0.0889,-0.01482 0.31115,0.07408 q -0.13335,1.170516 -0.511175,1.955799 -0.377825,0.785283 -0.970491,1.192741 -0.04445,-0.0889 -0.140758,-0.22225 -0.0889,-0.125941 -0.170392,-0.207433 0.511175,-0.325967 0.851958,-1.02235 0.348192,-0.703791 0.451908,-1.674282 z m -0.718608,-0.6223 0.503767,0.09631 q -0.140759,0.659341 -0.385234,1.252008 -0.244474,0.592666 -0.585258,1.000124 -0.05927,-0.06668 -0.1778,-0.1778 -0.118533,-0.118533 -0.207433,-0.1778 0.318558,-0.370416 0.525992,-0.888999 0.214841,-0.525992 0.325966,-1.103842 z m 0.7112,-1.526115 0.459316,0.155574 q -0.148166,0.296334 -0.370416,0.592667 -0.22225,0.296333 -0.481542,0.540808 -0.259291,0.237066 -0.525991,0.40005 -0.06668,-0.111125 -0.185208,-0.244475 -0.118534,-0.140758 -0.22225,-0.22225 0.259291,-0.125942 0.511175,-0.318558 0.251883,-0.192617 0.466724,-0.429683 0.214842,-0.237067 0.348192,-0.474133 z m -3.941232,0.407458 h 2.711449 v 1.829857 h -2.711449 v -0.525991 h 2.244724 v -0.777875 h -2.244724 z m 0.13335,4.230156 q 0.2667,-0.05186 0.600075,-0.13335 0.340783,-0.08149 0.7112,-0.170391 l 0.07408,0.503766 q -0.318558,0.09631 -0.629708,0.1778 -0.31115,0.08149 -0.607483,0.162983 z m -0.385233,-5.393264 h 0.518583 v 2.978149 q 0,0.466724 -0.03704,1.029757 -0.02963,0.563033 -0.125942,1.103842 -0.09631,0.533399 -0.288925,0.948266 -0.04445,-0.04445 -0.125942,-0.103717 -0.08149,-0.05927 -0.170391,-0.118533 -0.08149,-0.05186 -0.140758,-0.08149 0.177799,-0.392641 0.251883,-0.866774 0.08149,-0.481542 0.09631,-0.9779 0.02222,-0.496358 0.02222,-0.933449 z m 0.75565,3.081865 h 0.459316 v 2.318807 l -0.459316,0.07408 z m 2.844798,-0.1778 h 0.718608 v 0.48895 h -0.955674 z m -1.785407,0.1778 h 0.466725 v 2.178049 q 0,0.111125 0.01482,0.140758 0.01482,0.02222 0.07408,0.02222 0.01482,0 0.05186,0 0.04445,0 0.0889,0 0.04445,0 0.05927,0 0.06668,0 0.08149,-0.08149 0.02223,-0.0889 0.02963,-0.437092 0.07408,0.05186 0.200024,0.111125 0.125942,0.05186 0.229659,0.07408 -0.03704,0.459316 -0.148167,0.622299 -0.103717,0.162984 -0.333375,0.162984 -0.02963,0 -0.09631,0 -0.06667,0 -0.13335,0 -0.06667,0 -0.103717,0 -0.296333,0 -0.392641,-0.125942 -0.0889,-0.125942 -0.0889,-0.48895 z m 9.297454,-0.555625 h 0.703791 v 2.607733 q 0,0.185208 0.05186,0.244474 0.05927,0.05927 0.259291,0.05927 0.05186,0 0.162983,0 0.111125,0 0.244475,0 0.140759,0 0.259292,0 0.125942,0 0.185208,0 0.13335,0 0.200025,-0.0889 0.07408,-0.0889 0.103717,-0.348191 0.02963,-0.259292 0.04445,-0.777875 0.07408,0.05927 0.185208,0.118533 0.118533,0.05186 0.237066,0.09631 0.125942,0.04445 0.22225,0.07408 -0.03704,0.6223 -0.13335,0.970491 -0.0889,0.340783 -0.281516,0.474133 -0.185208,0.140758 -0.518583,0.140758 -0.05927,0 -0.200025,0 -0.140758,0 -0.303742,0 -0.162983,0 -0.303741,0 -0.13335,0 -0.192617,0 -0.363008,0 -0.570441,-0.0889 -0.200025,-0.0889 -0.281517,-0.296333 -0.07408,-0.207433 -0.07408,-0.570441 z m -1.978024,0.03704 h 0.748241 q -0.05186,0.6223 -0.162983,1.170516 -0.111125,0.540808 -0.363008,0.992716 -0.244475,0.4445 -0.696383,0.792692 -0.451908,0.3556 -1.177925,0.600074 -0.04445,-0.09631 -0.118533,-0.214841 -0.06668,-0.111125 -0.155575,-0.22225 -0.08149,-0.103717 -0.162983,-0.170392 0.66675,-0.200025 1.066799,-0.488949 0.40005,-0.288925 0.607483,-0.659342 0.207434,-0.377825 0.288925,-0.829733 0.0889,-0.451908 0.125942,-0.970491 z m -1.333499,-2.74849 0.629708,-0.237067 q 0.185208,0.281517 0.355599,0.607483 0.1778,0.325967 0.318559,0.644525 0.140758,0.31115 0.200024,0.563033 l -0.674158,0.2667 Q 69.796123,45.703285 69.662773,45.384727 69.536831,45.066169 69.36644,44.732794 69.203456,44.39201 69.025657,44.103086 Z m 4.837639,-0.303742 0.733425,0.251883 q -0.155575,0.325967 -0.340784,0.674158 -0.177799,0.340784 -0.355599,0.651933 -0.170392,0.31115 -0.333375,0.540808 L 72.95948,45.688468 q 0.155575,-0.251883 0.325966,-0.57785 0.170392,-0.333374 0.318558,-0.674158 0.155575,-0.348191 0.259292,-0.637116 z m -5.422898,2.504016 h 6.652681 v 0.666749 h -6.652681 z m 2.941107,-2.778124 h 0.7112 v 3.052232 h -0.7112 z"
       id="text5-9"
       style="font-weight:500;font-size:7.40833px;line-height:1.25;font-family:'Noto Sans JP';-inkscape-font-specification:'Noto Sans JP Medium';fill:#f9f9f9;stroke-width:0.264583"
       aria-label="麟光" />
    <path
       style="font-weight:500;font-size:7.40833px;line-height:1.25;font-family:'Noto Sans KR';-inkscape-font-specification:'Noto Sans KR Medium';fill:#f9f9f9;stroke-width:0.264583"
       d="m 87.491173,43.709385 h 0.777875 v 4.985806 h -0.777875 z m -3.689348,6.000747 h 4.645023 v 0.629709 h -4.645023 z m 0,-1.414991 H 84.5797 v 1.740958 H 83.801825 Z M 83.038767,47.154259 H 83.6018 q 0.674158,0 1.207558,-0.01482 0.540808,-0.02223 1.014941,-0.06668 0.481542,-0.05186 0.9779,-0.140758 l 0.08149,0.629708 q -0.511174,0.0889 -1.007532,0.140758 -0.48895,0.04445 -1.037167,0.06668 -0.548216,0.01482 -1.237191,0.01482 h -0.563033 z m -0.01482,-2.985557 h 3.096681 v 2.059515 h -2.318807 v 1.11125 h -0.763058 v -1.703916 h 2.318807 V 44.79841 h -2.333623 z m 6.815664,-0.06668 h 2.955923 v 0.629708 h -2.955923 z m 0.940858,1.489074 h 0.763058 v 1.644649 h -0.763058 z m 1.703916,-1.489074 h 0.763058 v 0.40005 q 0,0.325966 -0.02222,0.777874 -0.01482,0.451908 -0.148167,1.029758 l -0.75565,-0.05927 q 0.125942,-0.570441 0.140759,-0.992716 0.02222,-0.429683 0.02222,-0.755649 z m 1.570566,-0.40005 h 0.777874 v 4.185706 h -0.777874 z m 0.451908,1.763182 h 1.222374 v 0.651933 h -1.222374 z m -4.985806,2.044699 -0.0889,-0.637116 q 0.614891,0 1.333499,-0.0074 0.718608,-0.0074 1.452033,-0.05186 0.740833,-0.04445 1.422399,-0.125941 l 0.05186,0.555625 q -0.696383,0.111125 -1.429807,0.170391 -0.733425,0.05927 -1.437216,0.08149 -0.703792,0.01482 -1.303866,0.01482 z m 3.081865,0.459317 q 0.7112,0 1.222374,0.148167 0.518583,0.148166 0.792692,0.429683 0.281516,0.274108 0.281516,0.666749 0,0.392642 -0.281516,0.66675 -0.274109,0.281517 -0.792692,0.429683 -0.511174,0.155575 -1.222374,0.155575 -0.696383,0 -1.214966,-0.155575 -0.511175,-0.148166 -0.792692,-0.429683 -0.274108,-0.274108 -0.274108,-0.66675 0,-0.392641 0.274108,-0.666749 0.281517,-0.281517 0.792692,-0.429683 0.518583,-0.148167 1.214966,-0.148167 z m 0,0.600075 q -0.703791,0 -1.103841,0.170391 -0.392642,0.162984 -0.392642,0.474133 0,0.31115 0.392642,0.474133 0.40005,0.162984 1.103841,0.162984 0.7112,0 1.103841,-0.162984 0.392642,-0.162983 0.392642,-0.474133 0,-0.311149 -0.392642,-0.474133 -0.392641,-0.170391 -1.103841,-0.170391 z"
       id="text5-9-8"
       aria-label="린광" />
  </g>
</svg>
