<?xml version="1.0" encoding="UTF-8" standalone="no"?>
<!-- Created with Inkscape (http://www.inkscape.org/) -->

<svg
   width="500"
   height="250"
   viewBox="0 0 132.29166 66.145833"
   version="1.1"
   id="svg1"
   inkscape:version="1.3.2 (091e20e, 2023-11-25, custom)"
   sodipodi:docname="br07.svg"
   xmlns:inkscape="http://www.inkscape.org/namespaces/inkscape"
   xmlns:sodipodi="http://sodipodi.sourceforge.net/DTD/sodipodi-0.dtd"
   xmlns="http://www.w3.org/2000/svg"
   xmlns:svg="http://www.w3.org/2000/svg">
  <sodipodi:namedview
     id="namedview1"
     pagecolor="#9e652e"
     bordercolor="#ffffff"
     borderopacity="1"
     inkscape:showpageshadow="0"
     inkscape:pageopacity="0"
     inkscape:pagecheckerboard="false"
     inkscape:deskcolor="#d1d1d1"
     inkscape:document-units="mm"
     inkscape:zoom="2.0208096"
     inkscape:cx="220.20877"
     inkscape:cy="103.4239"
     inkscape:window-width="1920"
     inkscape:window-height="1009"
     inkscape:window-x="1912"
     inkscape:window-y="-8"
     inkscape:window-maximized="1"
     inkscape:current-layer="layer1" />
  <defs
     id="defs1">
    <rect
       x="157.85752"
       y="62.351248"
       width="329.07603"
       height="135.09437"
       id="rect4" />
  </defs>
  <g
     inkscape:label="Layer 1"
     inkscape:groupmode="layer"
     id="layer1">
    <path
       id="rect5"
       style="fill:#9e652e;stroke-width:0.953294"
       d="M -2.5431316e-6,-1.2715658e-6 H 132.29167 V 66.145835 H -2.5431316e-6 Z" />
    <path
       id="rect1"
       style="fill-opacity:0;stroke:#f9f9f9;stroke-width:0.953294"
       d="M 29.232675,14.144197 H 41.79629 c 3.97082,0 7.167545,3.196725 7.167545,7.167545 v 23.522352 c 0,3.970819 -3.196725,7.167544 -7.167545,7.167544 H 29.232675 c -3.97082,0 -7.167545,-3.196725 -7.167545,-7.167544 V 21.311742 c 0,-3.97082 3.196725,-7.167545 7.167545,-7.167545 z" />
    <path
       style="font-size:12.7px;line-height:1.25;font-family:'AR UDJingXiHeiE1G30 EB';-inkscape-font-specification:'AR UDJingXiHeiE1G30 EB';fill:#f9f9f9;stroke-width:0.264583"
       d="m 31.875934,30.493842 h -4.826 v -9.1821 h 4.4196 q 1.3081,0 2.0701,0.635 0.762,0.635 0.762,1.6891 0,0.6858 -0.3048,1.2065 -0.2921,0.508 -0.889,0.8382 0.7747,0.3048 1.1684,0.8382 0.4064,0.5334 0.4064,1.27 0,1.2192 -0.8001,1.9685 -0.8001,0.7366 -2.0066,0.7366 z m 0.7493,-6.6548 q 0,-0.6223 -0.3556,-0.9398 -0.3556,-0.3302 -1.0287,-0.3302 h -2.5781 v 2.5908 h 2.667 q 0.5715,0 0.9271,-0.3302 0.3683,-0.3429 0.3683,-0.9906 z m 0.381,3.937 q 0,-0.6604 -0.4064,-1.0033 -0.3937,-0.3556 -1.0414,-0.3556 h -2.8956 v 2.8194 h 2.8702 q 0.6731,0 1.0668,-0.3683 0.4064,-0.3683 0.4064,-1.0922 z m 9.042409,-3.8354 q 0,-0.6731 -0.3556,-1.016 -0.3556,-0.3556 -1.0287,-0.3556 h -2.7559 v 2.8575 h 2.667 q 0.6604,0 1.0668,-0.3937 0.4064,-0.3937 0.4064,-1.0922 z m -4.1402,2.7305 v 3.8227 h -1.6129 v -9.1821 h 4.6736 q 1.2573,0 1.9939,0.6731 0.7493,0.6604 0.7493,1.8796 0,0.8001 -0.381,1.3716 -0.3683,0.5715 -0.9271,0.8128 0.7112,0.4064 1.0922,1.4097 0.381,1.0033 0.4826,3.0353 h -1.6764 q -0.0762,-2.1336 -0.4699,-2.9718 -0.381,-0.8509 -1.2319,-0.8509 z"
       id="text2"
       aria-label="BR" />
    <path
       style="font-size:14.5521px;line-height:1.25;font-family:'AR UDJingXiHeiE1G30 EB';-inkscape-font-specification:'AR UDJingXiHeiE1G30 EB';fill:#f9f9f9;stroke-width:0.264583"
       d="m 34.874194,39.766528 q 0,2.750347 -0.887678,4.060036 -0.887678,1.309689 -2.750347,1.309689 -1.804461,0 -2.735795,-1.309689 -0.931334,-1.309689 -0.931334,-4.060036 0,-2.939524 0.887678,-4.220109 0.887678,-1.295137 2.779451,-1.295137 1.848117,0 2.735795,1.295137 0.90223,1.280585 0.90223,4.220109 z m -3.638025,3.929067 q 0.931334,0 1.367897,-0.916782 0.436563,-0.931334 0.436563,-3.012285 0,-2.241023 -0.422011,-3.157806 -0.407458,-0.916782 -1.382449,-0.916782 -0.974991,0 -1.397002,0.931335 -0.422011,0.916782 -0.422011,3.143253 0,2.066398 0.436563,2.997733 0.436563,0.931334 1.38245,0.931334 z m 6.635747,1.251481 3.710786,-9.080511 h -5.253309 v -1.440658 h 7.13053 v 1.207825 l -3.710786,9.313344 z"
       id="text3"
       aria-label="07" />
    <path
       style="font-weight:500;font-size:72px;line-height:1.25;font-family:'Noto Sans TC';-inkscape-font-specification:'Noto Sans TC Medium';white-space:pre;fill:#f9f9f9"
       d="m 161.67342,93.321406 h 64.584 v 7.056004 h -64.584 z m 17.784,14.472004 7.632,2.376 q -2.664,5.544 -5.976,11.232 -3.312,5.616 -6.84,10.656 -3.456,5.04 -6.696,8.928 -0.792,-0.648 -2.088,-1.584 -1.224,-0.864 -2.52,-1.728 -1.296,-0.792 -2.304,-1.368 3.456,-3.528 6.84,-8.208 3.456,-4.68 6.552,-9.936 3.096,-5.256 5.4,-10.368 z m 20.88,2.52 6.48,-3.096 q 2.448,3.456 5.184,7.416 2.736,3.888 5.4,7.92 2.664,3.96 4.968,7.632 2.376,3.6 4.032,6.48 l -7.2,3.888 q -1.44,-2.88 -3.672,-6.552 -2.16,-3.672 -4.752,-7.776 -2.592,-4.104 -5.328,-8.136 -2.664,-4.104 -5.112,-7.776 z m -13.896,-33.048004 7.128,-2.376 q 1.224,2.304 2.52,5.04 1.368,2.664 2.52,5.256 1.224,2.52 2.016,4.392 l -7.56,2.88 q -0.648,-1.944 -1.728,-4.536 -1.08,-2.664 -2.376,-5.4 -1.296,-2.808 -2.52,-5.256 z m 78.264,0.576 h 32.256 v 5.472 h -32.256 z m -0.432,10.152 h 29.952 v 4.896 h -29.952 z m -7.632,19.584004 h 41.688 v 5.904 h -41.688 z m 5.328,-29.736004 h 6.624 v 33.624004 h -6.624 z m 30.024,37.008004 5.112,4.248 q -2.952,2.304 -6.12,4.536 -3.168,2.16 -5.76,3.672 l -3.744,-3.456 q 1.656,-1.08 3.6,-2.664 2.016,-1.584 3.816,-3.24 1.872,-1.656 3.096,-3.096 z m -15.12,-3.744 q 2.16,5.112 5.616,9.792 3.528,4.608 7.92,8.352 4.464,3.672 9.432,5.832 -0.72,0.576 -1.656,1.512 -0.864,1.008 -1.656,2.016 -0.792,1.08 -1.296,1.944 -5.112,-2.664 -9.648,-6.912 -4.464,-4.248 -8.064,-9.576 -3.6,-5.4 -6.048,-11.304 z m -12.168,-13.464004 h 29.52 v 4.968004 h -29.52 z m -3.888,43.992004 -0.576,-5.472 2.52,-2.232 14.76,-4.536 q 0,1.224 0.144,2.88 0.144,1.656 0.288,2.664 -5.04,1.8 -8.208,2.88 -3.168,1.152 -4.968,1.8 -1.728,0.72 -2.592,1.152 -0.864,0.504 -1.368,0.864 z m -11.88,-31.608 h 6.336 q 0,0 -0.072,0.504 0,0.504 0,1.152 0,0.648 -0.072,1.08 -0.36,8.352 -0.864,13.68 -0.504,5.328 -1.152,8.208 -0.648,2.808 -1.728,3.96 -1.008,1.296 -2.16,1.8 -1.152,0.504 -2.88,0.72 -1.368,0.144 -3.744,0.144 -2.376,0.072 -5.04,-0.072 -0.072,-1.584 -0.648,-3.456 -0.504,-1.872 -1.44,-3.24 2.592,0.216 4.752,0.288 2.232,0.072 3.312,0.072 0.864,0 1.44,-0.144 0.576,-0.144 1.08,-0.648 0.72,-0.72 1.224,-3.168 0.504,-2.448 0.864,-7.272 0.432,-4.824 0.792,-12.6 z m -13.464,-16.272004 h 6.048 q 0,3.672 -0.144,7.776004 -0.072,4.032 -0.216,7.848 -0.144,3.816 -0.36,6.624 h -6.12 q 0.288,-2.952 0.432,-6.768 0.216,-3.816 0.288,-7.848 0.144,-4.104004 0.072,-7.632004 z m 2.016,16.272004 h 12.672 v 5.976 h -13.392 z m -0.576,-16.272004 h 11.88 v -9.72 h -14.616 v -6.048 h 20.808 v 21.888 h -18.072 z m 23.904,47.880004 q -0.216,-0.72 -0.72,-1.8 -0.504,-1.08 -1.08,-2.16 -0.576,-1.008 -1.152,-1.584 0.936,-0.576 1.8,-1.728 0.864,-1.152 0.864,-3.312 v -19.728 h 6.408 v 24.552 q 0,0 -0.648,0.36 -0.648,0.432 -1.584,1.008 -0.864,0.648 -1.8,1.368 -0.864,0.792 -1.512,1.584 -0.576,0.792 -0.576,1.44 z m 56.736,-28.368 h 46.224 v 5.688 h -46.224 z m -11.88,-26.352004 h 34.848 v 5.184 h -34.848 z m -0.288,38.016004 h 64.872 v 5.832 h -64.872 z m 28.944,-18.36 h 6.984 v 34.92 h -6.984 z m 11.088,-29.304004 h 6.264 v 23.040004 h -6.264 z m -25.128,2.448 h 6.624 v 28.152004 h -6.624 z m -1.872,28.080004 6.552,1.656 q -2.016,4.464 -5.112,8.64 -3.096,4.104 -6.264,6.912 -0.648,-0.576 -1.728,-1.224 -1.008,-0.72 -2.16,-1.368 -1.152,-0.648 -1.944,-1.08 3.312,-2.52 6.12,-6.12 2.88,-3.6 4.536,-7.416 z m 42.192,-32.400004 h 6.48 v 26.424004 q 0,2.448 -0.648,3.744 -0.648,1.296 -2.376,2.016 -1.728,0.648 -4.32,0.792 -2.592,0.144 -6.408,0.144 -0.216,-1.296 -0.864,-2.88 -0.648,-1.584 -1.224,-2.808 2.52,0.072 4.896,0.072 2.376,0 3.096,-0.072 0.792,0 1.08,-0.216 0.288,-0.216 0.288,-0.936 z m -26.856,-0.576 4.896,4.032 q -3.96,1.224 -9.144,2.088 -5.112,0.792 -10.656,1.296 -5.472,0.432 -10.584,0.648 -0.144,-0.936 -0.648,-2.232 -0.432,-1.368 -1.008,-2.304 4.896,-0.216 10.008,-0.72 5.112,-0.504 9.576,-1.152 4.536,-0.72 7.56,-1.656 z m -13.608,14.472 4.536,1.872 q -1.8,3.168 -4.392,6.336 -2.592,3.096004 -5.544,5.832004 -2.952,2.664 -5.832,4.392 -0.72,-1.008 -1.944,-2.376 -1.224,-1.368 -2.16,-2.088 2.88,-1.44 5.76,-3.672004 2.952,-2.232 5.4,-4.896 2.52,-2.664 4.176,-5.4 z m 6.408,2.664 q 0.864,0.504 2.52,1.584 1.656,1.08 3.456,2.376 1.872,1.224 3.384,2.304 1.584,1.08 2.304,1.656 l -3.312,4.752004 q -0.936,-0.864 -2.448,-2.232 -1.512,-1.368 -3.312,-2.808004 -1.728,-1.44 -3.312,-2.664 -1.512,-1.296 -2.52,-2.016 z"
       id="text4"
       transform="matrix(0.26458333,0,0,0.26458333,10.987021,-4.4771203)"
       aria-label="六張犁" />
    <path
       style="font-size:7.40833px;line-height:1.25;font-family:'AR UDJingXiHeiE1G30 EB';-inkscape-font-specification:'AR UDJingXiHeiE1G30 EB';fill:#f9f9f9;stroke-width:0.264583"
       d="m 57.747746,40.973484 h -3.763432 v -5.356223 h 0.940858 v 4.622798 h 2.822574 z m 1.718739,-5.356223 v 5.356223 h -0.940858 v -5.356223 z m 5.719225,3.481915 q 0,0.93345 -0.585258,1.452033 -0.585258,0.518583 -1.666874,0.518583 -1.096433,0 -1.689099,-0.511175 -0.585258,-0.511174 -0.585258,-1.452032 v -3.489324 h 0.940857 v 3.444874 q 0,0.607483 0.333375,0.940858 0.333375,0.333374 1.000125,0.333374 0.629708,0 0.963083,-0.318558 0.340783,-0.325966 0.340783,-0.970491 v -3.430057 h 0.948266 z m 1.074209,-3.481915 h 4.193115 v 0.674158 l -3.230032,3.94864 h 3.304115 v 0.733425 h -4.511673 v -0.674158 l 3.230032,-3.94864 h -2.985557 z m 6.074832,2.978149 v 2.378074 h -0.940858 v -5.356223 h 0.940858 v 2.244724 h 2.57069 v -2.244724 h 0.940858 v 5.356223 H 74.905441 V 38.59541 Z m 7.593539,0.214842 -0.84455,-2.289174 -0.859366,2.289174 z m -1.978024,0.733424 -0.5334,1.429808 h -0.955675 l 2.155824,-5.356223 h 0.963083 l 2.141007,5.356223 h -0.977899 l -0.540808,-1.429808 z m 5.326583,-2.43734 v 3.867148 h -0.940858 v -5.356223 h 0.970491 l 2.629958,3.956048 v -3.956048 h 0.940858 v 5.356223 H 85.84754 Z m 8.764049,3.215215 q -0.274108,0.385233 -0.688974,0.570441 -0.407459,0.1778 -0.93345,0.1778 -1.155699,0 -1.837266,-0.726016 -0.681566,-0.733425 -0.681566,-2.044699 0,-1.318683 0.718608,-2.044699 0.718608,-0.726017 1.940982,-0.726017 0.985308,0 1.6002,0.451908 0.622299,0.4445 0.748241,1.274233 h -0.940858 q -0.07408,-0.437091 -0.437091,-0.711199 -0.3556,-0.281517 -0.970492,-0.281517 -0.822324,0 -1.252007,0.5334 -0.429684,0.525991 -0.429684,1.503891 0,1.044574 0.451909,1.540932 0.451908,0.48895 1.229782,0.48895 0.681567,0 1.081616,-0.40005 0.40005,-0.400049 0.40005,-0.918633 v -0.111125 h -1.518707 v -0.733424 h 2.422524 v 2.807757 h -0.903817 z m 5.778492,0.651933 h -3.763432 v -5.356223 h 0.940858 v 4.622798 h 2.822574 z m 1.718739,-5.356223 v 5.356223 h -0.940858 v -5.356223 z"
       id="text5"
       aria-label="LIUZHANGLI" />
    <path
       d="m 53.668178,45.214335 h 6.548964 v 0.726016 h -6.548964 z m 2.874432,-1.659466 h 0.75565 v 2.037291 h -0.75565 z m -1.229783,3.311524 0.807508,0.207433 q -0.229658,0.614891 -0.540808,1.214966 -0.31115,0.600075 -0.66675,1.126066 -0.348191,0.518583 -0.711199,0.903816 -0.07408,-0.06668 -0.207433,-0.162983 -0.125942,-0.09631 -0.259292,-0.185208 -0.13335,-0.0889 -0.237067,-0.148167 0.377825,-0.348191 0.7112,-0.822324 0.340783,-0.481542 0.6223,-1.02235 0.288925,-0.548216 0.481541,-1.111249 z m 2.429932,0.281516 0.7112,-0.281516 q 0.251883,0.363008 0.518583,0.770466 0.2667,0.40005 0.511175,0.814916 0.251883,0.414867 0.451908,0.807508 0.200025,0.385233 0.318558,0.703792 l -0.777874,0.340783 q -0.111125,-0.31115 -0.303742,-0.696383 -0.185208,-0.392642 -0.422275,-0.814917 -0.229658,-0.429683 -0.488949,-0.851957 -0.259292,-0.422275 -0.518584,-0.792692 z m 6.689722,-2.252132 h 2.726266 v 0.511175 h -2.726266 z m 0,1.022349 h 2.726266 v 0.503767 h -2.726266 z m -0.888999,1.029758 h 4.252381 v 0.614892 h -4.252381 z m 0.57785,-3.155948 h 3.32634 v 0.600074 h -2.659591 v 2.881841 H 64.121332 Z M 63.521257,49.6297 q 0.481541,-0.05927 1.148291,-0.155575 0.674158,-0.09631 1.363133,-0.207433 l 0.02963,0.614891 q -0.637116,0.111125 -1.274233,0.214842 -0.629708,0.111125 -1.148291,0.200024 z m 2.355849,-2.370666 q 0.148166,0.592667 0.414866,1.096433 0.274108,0.503766 0.674158,0.874183 0.407458,0.370416 0.940858,0.570441 -0.08149,0.06667 -0.170391,0.1778 -0.0889,0.111125 -0.170392,0.22225 -0.07408,0.118533 -0.125942,0.214842 -0.570441,-0.2667 -0.985307,-0.703792 -0.414867,-0.444499 -0.696383,-1.037166 -0.281517,-0.592666 -0.459317,-1.303866 z m 1.318683,0.429683 0.577849,0.325967 q -0.31115,0.2667 -0.659341,0.518583 -0.348192,0.251883 -0.637116,0.429683 l -0.429684,-0.274108 q 0.185209,-0.13335 0.392642,-0.303742 0.214841,-0.1778 0.414866,-0.3556 0.200025,-0.185208 0.340784,-0.340783 z m -3.059641,-0.548216 h 0.674158 v 2.555874 l -0.674158,0.118533 z m -2.822573,-0.0074 h 1.852082 v 0.629708 h -1.852082 z m 1.533524,0 h 0.703791 q 0,0 -0.0074,0.05186 0,0.05186 -0.0074,0.118533 0,0.06668 -0.0074,0.118533 -0.05186,0.881592 -0.118533,1.437216 -0.05927,0.548217 -0.140758,0.851958 -0.08149,0.296334 -0.192617,0.422275 -0.111125,0.125942 -0.237066,0.1778 -0.118534,0.05927 -0.288925,0.07408 -0.140759,0.01482 -0.385234,0.01482 -0.237066,0.0074 -0.511174,-0.0074 -0.0074,-0.148167 -0.05927,-0.333375 -0.05186,-0.185208 -0.125942,-0.318558 0.244475,0.02222 0.451909,0.02963 0.207433,0 0.303741,0 0.09631,0 0.155575,-0.01482 0.05927,-0.01482 0.103717,-0.06667 0.08149,-0.0889 0.140758,-0.348191 0.06668,-0.259292 0.125942,-0.763058 0.05927,-0.511175 0.09631,-1.333499 z M 61.29135,45.599568 h 0.644524 q -0.04445,0.40005 -0.103716,0.84455 -0.05186,0.4445 -0.111125,0.866774 -0.05186,0.414867 -0.103717,0.726017 l -0.651933,-0.07408 q 0.05927,-0.303742 0.118533,-0.7112 0.06667,-0.407458 0.118534,-0.837141 0.05927,-0.437092 0.0889,-0.814917 z m 0.07408,0 h 1.414991 v -1.051983 h -1.703916 v -0.644524 h 2.348441 v 2.341032 h -2.059516 z m 8.304738,1.896533 h 4.756148 v 0.585258 h -4.756148 z m -1.222375,-2.711449 h 3.585632 v 0.5334 h -3.585632 z m -0.02963,3.911598 h 6.674905 v 0.600075 h -6.674905 z m 2.978149,-1.889124 h 0.718608 v 3.59304 h -0.718608 z m 1.140882,-3.01519 h 0.644525 v 2.370665 h -0.644525 z m -2.585507,0.251883 h 0.681567 v 2.896657 h -0.681567 z m -0.192616,2.889249 0.674158,0.170391 q -0.207434,0.459317 -0.525992,0.889 -0.318558,0.422275 -0.644524,0.7112 -0.06668,-0.05927 -0.1778,-0.125942 -0.103717,-0.07408 -0.22225,-0.140758 -0.118534,-0.06668 -0.200025,-0.111125 0.340783,-0.259292 0.629708,-0.629708 0.296333,-0.370417 0.466725,-0.763058 z m 4.341281,-3.333749 h 0.66675 v 2.718857 q 0,0.251883 -0.06667,0.385233 -0.06668,0.13335 -0.244475,0.207434 -0.1778,0.06668 -0.4445,0.08149 -0.2667,0.01482 -0.659341,0.01482 -0.02222,-0.13335 -0.0889,-0.296333 -0.06668,-0.162984 -0.125942,-0.288925 0.259292,0.0074 0.503767,0.0074 0.244474,0 0.318558,-0.0074 0.08149,0 0.111125,-0.02222 0.02963,-0.02222 0.02963,-0.09631 z m -2.763307,-0.05927 0.503766,0.414866 q -0.407458,0.125942 -0.940857,0.214842 -0.525992,0.08149 -1.096433,0.13335 -0.563033,0.04445 -1.089025,0.06667 -0.01482,-0.09631 -0.06668,-0.229658 -0.04445,-0.140758 -0.103716,-0.237066 0.503766,-0.02222 1.029757,-0.07408 0.525992,-0.05186 0.985308,-0.118533 0.466725,-0.07408 0.777875,-0.170391 z m -1.400174,1.489074 0.466724,0.192616 q -0.185208,0.325967 -0.451908,0.651933 -0.2667,0.318559 -0.570441,0.600075 -0.303742,0.274108 -0.600075,0.451908 -0.07408,-0.103716 -0.200025,-0.244475 -0.125941,-0.140758 -0.22225,-0.214841 0.296334,-0.148167 0.592667,-0.377825 0.303741,-0.229658 0.555624,-0.503766 0.259292,-0.274109 0.429684,-0.555625 z m 0.659341,0.274108 q 0.0889,0.05186 0.259292,0.162983 0.170391,0.111125 0.355599,0.244475 0.192617,0.125942 0.348192,0.237067 0.162983,0.111125 0.237066,0.170391 l -0.340783,0.48895 q -0.09631,-0.0889 -0.251883,-0.229658 -0.155575,-0.140758 -0.340783,-0.288925 -0.1778,-0.148167 -0.340783,-0.274108 -0.155575,-0.13335 -0.259292,-0.207433 z"
       id="text5-9"
       style="font-weight:500;font-size:7.40833px;line-height:1.25;font-family:'Noto Sans JP';-inkscape-font-specification:'Noto Sans JP Medium';fill:#f9f9f9;stroke-width:0.264583"
       aria-label="六張犁" />
    <path
       style="font-weight:500;font-size:7.40833px;line-height:1.25;font-family:'Noto Sans KR';-inkscape-font-specification:'Noto Sans KR Medium';fill:#f9f9f9;stroke-width:0.264583"
       d="m 83.219743,47.709883 h 6.134097 v 0.6223 h -6.134097 z m 1.511299,0.333375 h 0.777875 v 2.437341 h -0.777875 z m 2.333624,0 h 0.770466 v 2.437341 h -0.770466 z m -3.126315,-4.096806 h 4.682064 v 1.844674 H 84.73845 v 1.118658 h -0.785282 v -1.696508 h 3.889373 v -0.644525 h -3.90419 z m 0.01482,2.541057 h 4.830231 v 0.629708 h -4.830231 z m 7.67503,-2.044699 h 0.637116 v 0.496358 q 0,0.629708 -0.222249,1.185333 -0.22225,0.555625 -0.644525,0.970491 -0.422275,0.407458 -1.029758,0.6223 L 89.97614,47.1024 q 0.5334,-0.185208 0.903817,-0.518583 0.370416,-0.333375 0.555624,-0.755649 0.192617,-0.429684 0.192617,-0.889 z m 0.155575,0 h 0.629708 v 0.496358 q 0,0.414866 0.185208,0.8001 0.185209,0.385233 0.540808,0.688974 0.3556,0.296333 0.866775,0.459317 l -0.370417,0.607483 Q 93.035781,47.302425 92.620914,46.9246 92.213456,46.546776 91.998615,46.035601 91.783773,45.517018 91.783773,44.939168 Z m -1.592791,-0.259292 h 3.63749 v 0.629708 h -3.63749 z m 4.356098,-0.474133 h 0.770466 v 4.044948 H 94.54708 Z m 0.563033,1.644649 h 1.163108 v 0.637117 h -1.163108 z m -1.970616,2.555874 q 0.696383,0 1.20015,0.155575 0.503766,0.148167 0.777874,0.437092 0.274109,0.281516 0.274109,0.681566 0,0.407458 -0.274109,0.688975 -0.274108,0.288925 -0.777874,0.437091 -0.503767,0.155575 -1.20015,0.155575 -0.696383,0 -1.207557,-0.155575 -0.503767,-0.148166 -0.777875,-0.437091 -0.2667,-0.281517 -0.2667,-0.688975 0,-0.40005 0.2667,-0.681566 0.274108,-0.288925 0.777875,-0.437092 0.511174,-0.155575 1.207557,-0.155575 z m 0,0.614892 q -0.466724,0 -0.800099,0.07408 -0.333375,0.07408 -0.511175,0.22225 -0.1778,0.148166 -0.1778,0.363008 0,0.22225 0.1778,0.377825 0.1778,0.148166 0.511175,0.229658 0.333375,0.07408 0.800099,0.07408 0.474133,0 0.8001,-0.07408 0.333375,-0.08149 0.511175,-0.229658 0.1778,-0.155575 0.1778,-0.377825 0,-0.214842 -0.1778,-0.363008 -0.1778,-0.148167 -0.511175,-0.22225 -0.325967,-0.07408 -0.8001,-0.07408 z m 8.519583,-4.822823 h 0.77787 v 6.78603 h -0.77787 z m -4.430184,4.533898 h 0.57785 q 0.585258,0 1.118658,-0.01482 0.540808,-0.02222 1.074208,-0.07408 0.533398,-0.05186 1.103838,-0.140758 l 0.0741,0.629708 q -0.87419,0.148166 -1.674286,0.200025 -0.8001,0.04445 -1.696508,0.04445 h -0.57785 z M 97.21408,44.30946 h 3.16336 v 2.504015 h -2.363261 v 1.666875 h -0.785283 v -2.281766 h 2.355849 V 44.939168 H 97.21408 Z"
       id="text5-9-8"
       aria-label="류장리" />
  </g>
</svg>
