<?xml version="1.0" encoding="UTF-8" standalone="no"?>
<!-- Created with Inkscape (http://www.inkscape.org/) -->

<svg
   width="500"
   height="250"
   viewBox="0 0 132.29166 66.145833"
   version="1.1"
   id="svg1"
   inkscape:version="1.3.2 (091e20e, 2023-11-25, custom)"
   sodipodi:docname="br08.svg"
   xmlns:inkscape="http://www.inkscape.org/namespaces/inkscape"
   xmlns:sodipodi="http://sodipodi.sourceforge.net/DTD/sodipodi-0.dtd"
   xmlns="http://www.w3.org/2000/svg"
   xmlns:svg="http://www.w3.org/2000/svg">
  <sodipodi:namedview
     id="namedview1"
     pagecolor="#9e652e"
     bordercolor="#ffffff"
     borderopacity="1"
     inkscape:showpageshadow="0"
     inkscape:pageopacity="0"
     inkscape:pagecheckerboard="false"
     inkscape:deskcolor="#d1d1d1"
     inkscape:document-units="mm"
     inkscape:zoom="2.0208096"
     inkscape:cx="270.18874"
     inkscape:cy="103.4239"
     inkscape:window-width="1920"
     inkscape:window-height="1009"
     inkscape:window-x="1912"
     inkscape:window-y="-8"
     inkscape:window-maximized="1"
     inkscape:current-layer="layer1" />
  <defs
     id="defs1">
    <rect
       x="157.85752"
       y="62.351248"
       width="329.07603"
       height="135.09437"
       id="rect4" />
  </defs>
  <g
     inkscape:label="Layer 1"
     inkscape:groupmode="layer"
     id="layer1">
    <path
       id="rect5"
       style="fill:#9e652e;stroke-width:0.953294"
       d="M -2.5431316e-6,-1.2715658e-6 H 132.29167 V 66.145835 H -2.5431316e-6 Z" />
    <g
       id="g5"
       transform="matrix(0.86976363,0,0,0.86976363,0.59225395,4.3072955)">
      <path
         id="rect1"
         style="fill-opacity:0;stroke:#f9f9f9;stroke-width:0.953294"
         d="m 10.182676,14.144197 h 12.563615 c 3.97082,0 7.167545,3.196725 7.167545,7.167545 v 23.522352 c 0,3.970819 -3.196725,7.167544 -7.167545,7.167544 H 10.182676 c -3.97082,0 -7.167545,-3.196725 -7.167545,-7.167544 V 21.311742 c 0,-3.97082 3.196725,-7.167545 7.167545,-7.167545 z" />
      <path
         style="font-size:12.7px;line-height:1.25;font-family:'AR UDJingXiHeiE1G30 EB';-inkscape-font-specification:'AR UDJingXiHeiE1G30 EB';fill:#f9f9f9;stroke-width:0.264583"
         d="M 12.825932,30.493842 H 7.9999322 v -9.1821 h 4.4195998 q 1.3081,0 2.0701,0.635 0.762,0.635 0.762,1.6891 0,0.6858 -0.3048,1.2065 -0.2921,0.508 -0.889,0.8382 0.7747,0.3048 1.1684,0.8382 0.4064,0.5334 0.4064,1.27 0,1.2192 -0.8001,1.9685 -0.8001,0.7366 -2.0066,0.7366 z m 0.7493,-6.6548 q 0,-0.6223 -0.3556,-0.9398 -0.3556,-0.3302 -1.0287,-0.3302 H 9.6128322 v 2.5908 h 2.6669998 q 0.5715,0 0.9271,-0.3302 0.3683,-0.3429 0.3683,-0.9906 z m 0.381,3.937 q 0,-0.6604 -0.4064,-1.0033 -0.3937,-0.3556 -1.0414,-0.3556 H 9.6128322 v 2.8194 h 2.8701998 q 0.6731,0 1.0668,-0.3683 0.4064,-0.3683 0.4064,-1.0922 z m 9.042408,-3.8354 q 0,-0.6731 -0.3556,-1.016 -0.3556,-0.3556 -1.028699,-0.3556 h -2.7559 v 2.8575 h 2.667 q 0.660399,0 1.066799,-0.3937 0.4064,-0.3937 0.4064,-1.0922 z m -4.140199,2.7305 v 3.8227 h -1.6129 v -9.1821 h 4.673599 q 1.2573,0 1.9939,0.6731 0.7493,0.6604 0.7493,1.8796 0,0.8001 -0.381,1.3716 -0.3683,0.5715 -0.9271,0.8128 0.7112,0.4064 1.0922,1.4097 0.381,1.0033 0.4826,3.0353 h -1.6764 q -0.0762,-2.1336 -0.4699,-2.9718 -0.381,-0.8509 -1.231899,-0.8509 z"
         id="text2"
         aria-label="BR" />
      <path
         style="font-size:14.5521px;line-height:1.25;font-family:'AR UDJingXiHeiE1G30 EB';-inkscape-font-specification:'AR UDJingXiHeiE1G30 EB';fill:#f9f9f9;stroke-width:0.264583"
         d="m 15.82419,39.766528 q 0,2.750347 -0.887678,4.060036 -0.887678,1.309689 -2.750347,1.309689 -1.80446,0 -2.7357946,-1.309689 -0.9313344,-1.309689 -0.9313344,-4.060036 0,-2.939524 0.8876781,-4.220109 0.8876779,-1.295137 2.7794509,-1.295137 1.848117,0 2.735795,1.295137 0.90223,1.280585 0.90223,4.220109 z m -3.638025,3.929067 q 0.931335,0 1.367898,-0.916782 0.436563,-0.931334 0.436563,-3.012285 0,-2.241023 -0.422011,-3.157806 -0.407459,-0.916782 -1.38245,-0.916782 -0.97499,0 -1.397001,0.931335 -0.422011,0.916782 -0.422011,3.143253 0,2.066398 0.436563,2.997733 0.436563,0.931334 1.382449,0.931334 z m 10.666679,-4.336526 q 0.887678,0.363803 1.338794,1.047752 0.451115,0.669396 0.451115,1.542522 0,1.469762 -1.018647,2.328336 -1.004095,0.858574 -2.779452,0.858574 -1.833564,0 -2.823107,-0.858574 -0.989543,-0.858574 -0.989543,-2.313784 0,-0.844021 0.436563,-1.513418 0.436563,-0.683949 1.280585,-1.076856 -0.683949,-0.320146 -1.018647,-0.887678 -0.334698,-0.582084 -0.34925,-1.309689 0,-1.280584 0.90223,-2.095502 0.916782,-0.82947 2.561169,-0.82947 1.600732,0 2.48841,0.814918 0.887678,0.814917 0.887678,2.110054 0,0.698501 -0.349251,1.280585 -0.334698,0.567532 -1.018647,0.90223 z m -2.022742,-0.669396 q 0.698501,0 1.120512,-0.407459 0.422011,-0.422011 0.422011,-1.091408 0,-0.6985 -0.422011,-1.091407 -0.407459,-0.407459 -1.10596,-0.407459 -0.727605,0 -1.17872,0.407459 -0.436563,0.407459 -0.436563,1.091407 0,0.654845 0.436563,1.076856 0.436563,0.422011 1.164168,0.422011 z m 1.979086,3.25967 q 0,-0.829469 -0.582084,-1.295137 -0.567532,-0.465667 -1.397002,-0.465667 -0.844021,0 -1.397001,0.509324 -0.538428,0.494771 -0.55298,1.266032 0,0.814918 0.538428,1.266033 0.538427,0.451115 1.426105,0.465667 0.873127,0 1.411554,-0.451115 0.55298,-0.465667 0.55298,-1.295137 z"
         id="text3"
         aria-label="08" />
      <path
         style="font-weight:500;font-size:72px;line-height:1.25;font-family:'Noto Sans TC';-inkscape-font-specification:'Noto Sans TC Medium';white-space:pre;fill:#f9f9f9"
         d="m 172.25742,80.937406 h 6.624 v 60.480004 h -6.624 z m -11.592,13.968 h 28.368 v 6.408004 h -28.368 z m 11.952,2.52 4.104,1.8 q -1.08,3.816004 -2.592,7.992004 -1.512,4.104 -3.312,8.136 -1.728,4.032 -3.744,7.56 -2.016,3.528 -4.104,6.048 -0.504,-1.44 -1.512,-3.24 -1.008,-1.872 -1.8,-3.096 1.944,-2.16 3.816,-5.112 1.872,-3.024 3.6,-6.408 1.8,-3.456 3.168,-6.984 1.44,-3.528 2.376,-6.696004 z m 11.736,-21.96 3.96,5.544 q -3.456,1.296 -7.776,2.448 -4.248,1.08 -8.784,1.872 -4.464,0.72 -8.64,1.296 -0.144,-1.08 -0.72,-2.592 -0.576,-1.584 -1.152,-2.664 4.104,-0.648 8.352,-1.512 4.248,-0.936 8.064,-2.016 3.888,-1.152 6.696,-2.376 z m -5.688,26.568004 q 0.648,0.648 2.088,2.304 1.44,1.656 3.024,3.6 1.656,1.872 2.952,3.6 1.368,1.656 1.944,2.376 l -4.104,5.328 q -0.648,-1.368 -1.8,-3.312 -1.152,-2.016 -2.52,-4.176 -1.368,-2.16 -2.592,-4.032 -1.224,-1.872 -2.088,-2.952 z m 33.336,-27.432004 h 6.696 v 66.816004 h -6.696 z m -23.976,46.728004 38.592,-6.408 1.008,6.336 -38.52,6.552 z m 5.328,-38.088004 4.392,-3.888 q 2.088,1.368 4.32,3.168 2.232,1.8 4.176,3.6 1.944,1.8 3.096,3.384 l -4.752,4.32 q -1.08,-1.512 -2.952,-3.384 -1.8,-1.944 -4.032,-3.816 -2.16,-1.872 -4.248,-3.384 z m -2.736,18.864004 4.32,-3.960004 q 2.232,1.44 4.608,3.312004 2.448,1.8 4.536,3.672 2.088,1.8 3.312,3.384 l -4.608,4.464 q -1.152,-1.656 -3.24,-3.6 -2.016,-1.944 -4.392,-3.816 -2.304,-1.944 -4.536,-3.456 z m 66.672,-16.560004 h 39.96 v 6.336 h -39.96 z m 1.368,16.200004 h 31.392 v 6.192 h -31.392 z m 14.976,-27.072004 h 6.768 v 30.456004 h -6.768 z m -6.912,31.824004 q 4.032,10.728 12.384,18.432 8.424,7.632 20.808,10.8 -0.72,0.648 -1.584,1.656 -0.864,1.08 -1.584,2.16 -0.72,1.152 -1.224,2.016 -12.96,-3.816 -21.528,-12.312 -8.568,-8.496 -13.392,-20.952 z m 22.68,-4.752 h 1.224 l 1.224,-0.288 4.392,1.872 q -2.304,7.848 -6.192,14.04 -3.816,6.12 -9,10.8 -5.112,4.68 -11.304,7.92 -6.12,3.312 -12.96,5.328 -0.288,-0.936 -0.936,-2.088 -0.576,-1.08 -1.296,-2.232 -0.72,-1.152 -1.368,-1.8 6.264,-1.584 12.024,-4.392 5.832,-2.88 10.584,-6.912 4.824,-4.104 8.28,-9.36 3.528,-5.328 5.328,-11.808 z m -57.168,10.368 q 3.024,-0.72 6.912,-1.656 3.96,-1.008 8.28,-2.16 4.392,-1.224 8.64,-2.304 l 0.864,6.192 q -5.904,1.728 -11.952,3.456 -5.976,1.656 -10.944,3.024 z m 0.864,-23.256004 h 23.184 v 6.336 h -23.184 z m 8.928,-14.184 h 6.696 v 58.968004 q 0,2.664 -0.648,4.104 -0.648,1.44 -2.232,2.232 -1.584,0.792 -4.104,1.008 -2.52,0.288 -6.264,0.216 -0.216,-1.296 -0.792,-3.096 -0.576,-1.728 -1.224,-3.096 2.376,0.072 4.392,0.072 2.088,0 2.808,-0.072 1.368,0 1.368,-1.368 z m 64.152,20.088 h 63.648 v 7.056004 h -63.648 z m 35.856,2.808 q 2.304,8.496004 6.192,15.840004 3.96,7.344 9.648,12.888 5.76,5.472 13.32,8.64 -0.864,0.72 -1.872,1.872 -0.936,1.152 -1.8,2.304 -0.864,1.224 -1.44,2.16 -7.992,-3.744 -13.968,-9.864 -5.904,-6.192 -10.008,-14.328 -4.104,-8.136 -6.912,-17.856004 z m -7.92,-22.896 h 7.416 q 0,5.112 -0.288,11.016 -0.216,5.832 -1.08,12.024 -0.864,6.192004 -2.808,12.384004 -1.944,6.192 -5.4,11.952 -3.456,5.76 -8.856,10.728 -5.4,4.896 -13.176,8.568 -0.864,-1.368 -2.304,-3.024 -1.44,-1.584 -2.88,-2.664 7.488,-3.384 12.6,-7.848 5.184,-4.536 8.352,-9.792 3.24,-5.328 4.968,-11.016 1.728,-5.688 2.448,-11.376004 0.72,-5.688 0.864,-11.016 0.144,-5.328 0.144,-9.936 z m 64.728,43.992004 h 44.424 v 5.256 h -44.424 z m 18.648,-44.064004 h 6.336 v 38.520004 h -6.336 z m -8.64,8.568 v 10.944 h 23.616 v -10.944 z m -5.832,-4.32 h 35.496 v 19.584 h -35.496 z m 4.536,27.072004 v 3.744 h 26.352 v -3.744 z m -6.048,-4.392 h 38.808 v 12.456 h -38.808 z m 29.448,14.4 h 6.048 q -0.792,4.32 -2.304,7.92 -1.512,3.528 -4.104,6.408 -2.52,2.808 -6.552,5.04 -3.96,2.16 -9.792,3.672 -5.832,1.584 -13.968,2.592 -0.288,-1.152 -1.08,-2.664 -0.72,-1.44 -1.44,-2.304 7.56,-0.792 12.96,-2.016 5.4,-1.296 9,-3.024 3.6,-1.8 5.832,-4.104 2.232,-2.304 3.456,-5.112 1.224,-2.88 1.944,-6.408 z m -28.44,13.968 4.32,-3.744 q 4.32,0.792 9.144,2.088 4.824,1.224 9.648,2.736 4.896,1.44 9.216,3.024 4.32,1.584 7.56,3.096 l -4.752,4.248 q -2.88,-1.44 -7.056,-3.024 -4.104,-1.584 -8.928,-3.096 -4.752,-1.584 -9.72,-2.952 -4.968,-1.44 -9.432,-2.376 z m -3.672,-43.920004 h 8.136 v 0.648 h 27.576 v -0.648 h 8.136 v 5.112 h -8.136 v -0.72 h -27.576 v 0.72 h -8.136 z m 3.672,43.920004 q 2.232,-2.376 4.752,-5.4 2.52,-3.024 4.824,-6.264 2.304,-3.312 3.888,-6.264 l 6.048,1.584 q -1.584,2.88 -3.816,5.904 -2.16,3.024 -4.392,5.76 -2.16,2.736 -4.032,4.68 z m -25.92,-41.544004 h 20.88 v 6.336 h -20.88 z m 7.848,-13.68 h 6.192 v 66.744004 h -6.192 z m -0.432,18.072 3.384,2.016 q -0.648,3.672 -1.584,8.064004 -0.936,4.392 -2.088,8.856 -1.152,4.392 -2.448,8.424 -1.296,4.032 -2.664,7.128 -0.504,-1.584 -1.512,-3.6 -0.936,-2.016 -1.656,-3.384 1.224,-2.376 2.52,-5.832 1.296,-3.456 2.448,-7.272 1.224,-3.816 2.088,-7.560004 0.936,-3.744 1.512,-6.84 z m 6.408,5.184 q 0.576,0.72 1.8,2.592004 1.296,1.8 2.664,3.96 1.44,2.16 2.592,4.032 1.224,1.872 1.728,2.664 l -4.104,4.752 q -0.576,-1.44 -1.584,-3.6 -1.008,-2.16 -2.232,-4.464 -1.152,-2.304 -2.232,-4.248 -1.08,-2.016 -1.8,-3.24 z"
         id="text4"
         transform="matrix(0.26458333,0,0,0.26458333,-8.0629803,-4.4771203)"
         aria-label="科技大樓" />
      <path
         style="font-size:7.40833px;line-height:1.25;font-family:'AR UDJingXiHeiE1G30 EB';-inkscape-font-specification:'AR UDJingXiHeiE1G30 EB';fill:#f9f9f9;stroke-width:0.264583"
         d="m 36.075179,36.350686 h -1.666874 v -0.733425 h 4.267198 v 0.733425 h -1.659466 v 4.622798 h -0.940858 z m 7.274978,4.622798 h -3.963456 v -5.356223 h 3.941232 v 0.733425 h -3.000374 v 1.511299 h 2.800349 v 0.733425 h -2.800349 v 1.644649 h 3.022598 z m 4.800603,-1.866899 h 0.940858 q -0.03704,0.881591 -0.614891,1.422399 -0.57785,0.540808 -1.674283,0.540808 -1.296458,0 -1.985432,-0.733425 -0.681567,-0.733424 -0.681567,-2.03729 0,-1.28905 0.681567,-2.029883 0.688974,-0.740833 1.970616,-0.740833 1.029757,0 1.600199,0.474133 0.570441,0.466725 0.651933,1.214967 h -0.940858 q -0.05927,-0.429684 -0.392642,-0.688975 -0.333374,-0.2667 -0.940857,-0.2667 -0.748242,0 -1.20015,0.503766 -0.451908,0.503767 -0.451908,1.533525 0,1.044574 0.451908,1.540932 0.459317,0.496358 1.214966,0.496358 0.644525,0 0.992716,-0.333374 0.348192,-0.340784 0.377825,-0.896408 z m 2.800345,-0.511175 v 2.378074 h -0.940858 v -5.356223 h 0.940858 v 2.244724 h 2.57069 v -2.244724 h 0.940858 v 5.356223 H 53.521795 V 38.59541 Z m 5.682189,-1.489074 v 3.867148 h -0.940857 v -5.356223 h 0.970491 l 2.629957,3.956048 v -3.956048 h 0.940858 v 5.356223 h -1.029758 z m 9.979016,1.214966 q 0,1.289049 -0.718608,2.022474 -0.7112,0.726016 -1.948391,0.726016 -1.259416,0 -1.970616,-0.733425 -0.7112,-0.733424 -0.7112,-2.015065 0,-1.303866 0.718608,-2.044699 0.718608,-0.748242 1.963208,-0.748242 1.259416,0 1.963207,0.740833 0.703792,0.740833 0.703792,2.052108 z m -2.666999,2.015065 q 0.807508,0 1.244599,-0.533399 0.4445,-0.5334 0.4445,-1.481666 0,-0.940858 -0.4445,-1.496483 -0.444499,-0.563033 -1.244599,-0.563033 -0.814916,0 -1.266825,0.570441 -0.444499,0.563033 -0.444499,1.489075 0,0.948266 0.451908,1.481666 0.451908,0.533399 1.259416,0.533399 z m 7.45278,0.637117 h -3.763432 v -5.356223 h 0.940858 v 4.622798 h 2.822574 z m 5.926671,-2.652182 q 0,1.289049 -0.718608,2.022474 -0.7112,0.726016 -1.948391,0.726016 -1.259416,0 -1.970616,-0.733425 -0.7112,-0.733424 -0.7112,-2.015065 0,-1.303866 0.718608,-2.044699 0.718608,-0.748242 1.963208,-0.748242 1.259416,0 1.963207,0.740833 0.703792,0.740833 0.703792,2.052108 z m -2.666999,2.015065 q 0.807508,0 1.244599,-0.533399 0.4445,-0.5334 0.4445,-1.481666 0,-0.940858 -0.4445,-1.496483 -0.4445,-0.563033 -1.244599,-0.563033 -0.814916,0 -1.266825,0.570441 -0.444499,0.563033 -0.444499,1.489075 0,0.948266 0.451908,1.481666 0.451908,0.533399 1.259416,0.533399 z m 7.623175,-0.01482 q -0.274108,0.385233 -0.688975,0.570441 -0.407458,0.1778 -0.933449,0.1778 -1.1557,0 -1.837266,-0.726016 -0.681566,-0.733425 -0.681566,-2.044699 0,-1.318683 0.718608,-2.044699 0.718608,-0.726017 1.940982,-0.726017 0.985308,0 1.600199,0.451908 0.6223,0.4445 0.748242,1.274233 h -0.940858 q -0.07408,-0.437091 -0.437092,-0.711199 -0.355599,-0.281517 -0.970491,-0.281517 -0.822325,0 -1.252008,0.5334 -0.429683,0.525991 -0.429683,1.503891 0,1.044574 0.451908,1.540932 0.451908,0.48895 1.229783,0.48895 0.681566,0 1.081616,-0.40005 0.40005,-0.400049 0.40005,-0.918633 V 38.899151 H 80.76223 v -0.733424 h 2.422524 v 2.807757 h -0.903816 z m 4.000492,-2.333624 1.526116,-2.370666 h 1.051983 l -2.111374,3.148541 v 2.207682 h -0.940858 v -2.207682 l -2.148415,-3.148541 h 1.074207 z m 7.934321,2.985557 h -2.815165 v -5.356223 h 2.578098 q 0.763058,0 1.207558,0.370417 0.4445,0.370416 0.4445,0.985308 0,0.400049 -0.1778,0.703791 -0.170392,0.296333 -0.518583,0.48895 0.451908,0.1778 0.681566,0.48895 0.237067,0.311149 0.237067,0.740833 0,0.711199 -0.466725,1.148291 -0.466725,0.429683 -1.170516,0.429683 z m 0.437091,-3.881965 q 0,-0.363008 -0.207433,-0.548216 -0.207433,-0.192617 -0.600075,-0.192617 h -1.503891 v 1.511299 h 1.55575 q 0.333375,0 0.540808,-0.192616 0.214841,-0.200025 0.214841,-0.57785 z m 0.22225,2.296582 q 0,-0.385233 -0.237066,-0.585258 -0.229659,-0.207433 -0.607483,-0.207433 h -1.6891 v 1.644649 h 1.674283 q 0.392641,0 0.6223,-0.214841 0.237066,-0.214842 0.237066,-0.637117 z m 6.408208,-0.288925 q 0,0.93345 -0.58526,1.452033 -0.58525,0.518583 -1.66687,0.518583 -1.096433,0 -1.689099,-0.511175 -0.585259,-0.511174 -0.585259,-1.452032 v -3.489324 h 0.940858 v 3.444874 q 0,0.607483 0.333375,0.940858 0.333375,0.333374 1.000125,0.333374 0.629708,0 0.963083,-0.318558 0.340787,-0.325966 0.340787,-0.970491 v -3.430057 h 0.94826 z m 2.1336,-3.481915 v 5.356223 h -0.94086 v -5.356223 z m 4.99321,5.356223 h -3.76343 v -5.356223 h 0.94085 v 4.622798 h 2.82258 z m 5.34141,-2.741082 q 0,1.333499 -0.62971,2.037291 -0.6223,0.703791 -1.74096,0.703791 h -2.19286 v -5.356223 h 2.19286 q 1.11866,0 1.74096,0.659342 0.62971,0.659341 0.62971,1.955799 z m -0.9779,0 q 0,-0.970491 -0.40005,-1.4224 -0.39264,-0.459316 -1.14829,-0.459316 h -1.09643 v 3.889373 h 1.10384 q 0.72601,0 1.13347,-0.481541 0.40746,-0.481542 0.40746,-1.526116 z m 2.94851,-2.615141 v 5.356223 h -0.94086 v -5.356223 z m 2.17064,1.489075 v 3.867148 h -0.94086 v -5.356223 h 0.97049 l 2.62996,3.956048 v -3.956048 h 0.94086 v 5.356223 h -1.02976 z m 8.76405,3.215215 q -0.27411,0.385233 -0.68898,0.570441 -0.40746,0.1778 -0.93345,0.1778 -1.1557,0 -1.83726,-0.726016 -0.68157,-0.733425 -0.68157,-2.044699 0,-1.318683 0.71861,-2.044699 0.71861,-0.726017 1.94098,-0.726017 0.98531,0 1.6002,0.451908 0.6223,0.4445 0.74824,1.274233 h -0.94086 q -0.0741,-0.437091 -0.43709,-0.711199 -0.3556,-0.281517 -0.97049,-0.281517 -0.82233,0 -1.25201,0.5334 -0.42968,0.525991 -0.42968,1.503891 0,1.044574 0.45191,1.540932 0.4519,0.48895 1.22978,0.48895 0.68157,0 1.08162,-0.40005 0.40005,-0.400049 0.40005,-0.918633 v -0.111125 h -1.51871 v -0.733424 h 2.42252 v 2.807757 h -0.90381 z"
         id="text5"
         aria-label="TECHNOLOGY BUILDING" />
      <path
         d="m 35.736818,44.206802 q 0.170391,0.02222 0.355599,0.03704 0.185209,0.01482 0.363009,0.01482 0.140758,0 0.437091,0 0.303742,0 0.681566,0 0.385234,0 0.770467,0 0.385233,0 0.681566,0 0.296333,0 0.422275,0 0.170391,0 0.363008,-0.01482 0.200025,-0.01482 0.377825,-0.03704 v 0.763058 q -0.1778,-0.01482 -0.370417,-0.01482 -0.192616,-0.0074 -0.370416,-0.0074 -0.125942,0 -0.422275,0 -0.296333,0 -0.681566,0 -0.377825,0 -0.763058,0 -0.377825,0 -0.681567,0 -0.303741,0 -0.437091,0 -0.185208,0 -0.377825,0.0074 -0.192617,0 -0.348191,0.01482 z m -0.874183,1.881716 q 0.155575,0.01482 0.325966,0.02963 0.1778,0.0074 0.348192,0.0074 0.0889,0 0.377824,0 0.288925,0 0.696383,0 0.414867,0 0.881592,0 0.474133,0 0.948266,0 0.474133,0 0.881591,0 0.407458,0 0.688975,0 0.288925,0 0.370416,0 0.118534,0 0.303742,-0.0074 0.185208,-0.01482 0.318558,-0.02963 v 0.763058 q -0.125941,-0.01482 -0.303741,-0.01482 -0.170392,-0.0074 -0.318559,-0.0074 -0.08149,0 -0.370416,0 -0.281517,0 -0.688975,0 -0.407458,0 -0.881591,0 -0.474133,0 -0.948266,0 -0.466725,0 -0.881592,0 -0.407458,0 -0.696383,0 -0.288924,0 -0.377824,0 -0.170392,0 -0.348192,0.0074 -0.1778,0 -0.325966,0.01482 z m 3.622673,0.392642 q 0,0.703791 -0.111125,1.281641 -0.111125,0.577849 -0.3556,1.044574 -0.13335,0.244475 -0.363008,0.503767 -0.22225,0.251883 -0.503766,0.481541 -0.281517,0.229658 -0.607484,0.392642 l -0.681566,-0.496359 q 0.407458,-0.170391 0.777875,-0.466724 0.370416,-0.303742 0.592666,-0.637117 0.281517,-0.437091 0.363008,-0.963083 0.08149,-0.533399 0.0889,-1.140882 z m 9.660462,-1.326092 q -0.05927,0.0889 -0.111125,0.214842 -0.05186,0.125942 -0.09631,0.237067 -0.09631,0.355599 -0.274108,0.785283 -0.1778,0.429683 -0.437092,0.881591 -0.259291,0.4445 -0.592666,0.851958 -0.511175,0.629708 -1.222375,1.140883 -0.703791,0.511174 -1.740957,0.911224 l -0.688975,-0.614891 q 0.718608,-0.214842 1.259416,-0.496358 0.548217,-0.288925 0.963083,-0.629708 0.422275,-0.340784 0.748242,-0.726017 0.281516,-0.318558 0.503766,-0.703791 0.229658,-0.392642 0.392641,-0.777875 0.170392,-0.392641 0.229659,-0.703791 h -2.637366 l 0.281517,-0.66675 q 0.09631,0 0.325966,0 0.237067,0 0.5334,0 0.303742,0 0.592666,0 0.296334,0 0.511175,0 0.22225,0 0.296333,0 0.155575,0 0.303742,-0.01482 0.148167,-0.02222 0.251883,-0.05927 z m -2.452157,-1.140882 q -0.111125,0.162983 -0.22225,0.355599 -0.103717,0.192617 -0.162983,0.303742 -0.229658,0.422275 -0.585258,0.896408 -0.348192,0.474133 -0.807508,0.93345 -0.459317,0.451908 -1.029758,0.837141 l -0.651933,-0.48895 q 0.481541,-0.288925 0.859366,-0.614891 0.377825,-0.325967 0.651933,-0.651933 0.281517,-0.333375 0.481542,-0.637117 0.200025,-0.303741 0.333375,-0.548216 0.06667,-0.111125 0.148166,-0.303742 0.08149,-0.200025 0.125942,-0.363008 z m 8.912225,0.392641 q -0.08149,0.170392 -0.155575,0.370417 -0.06667,0.200025 -0.118534,0.355599 -0.148166,0.414867 -0.355599,0.896408 -0.200025,0.481542 -0.459317,0.948267 -0.251883,0.466724 -0.563033,0.859366 -0.318558,0.414866 -0.770466,0.822325 -0.4445,0.400049 -0.963083,0.740833 -0.511175,0.340783 -1.0668,0.570441 L 49.49409,49.288917 q 0.570441,-0.200025 1.081616,-0.496359 0.518583,-0.303741 0.955675,-0.674158 0.444499,-0.370416 0.777874,-0.777874 0.348192,-0.429683 0.6223,-0.963083 0.274108,-0.540808 0.474133,-1.103841 0.200025,-0.570442 0.296333,-1.103841 z m 2.378074,0.214842 q 0.229659,0.0074 0.40005,0.01482 0.1778,0 0.318558,0 0.09631,0 0.340784,0 0.244475,0 0.577849,0 0.333375,0 0.7112,0 0.385233,0 0.770466,0 0.385234,0 0.7112,0 0.333375,0 0.570441,0 0.244475,0 0.340784,0 0.125941,0 0.311149,0 0.192617,0 0.370417,-0.0074 -0.0074,0.148167 -0.01482,0.318558 0,0.162983 0,0.318558 0,0.08149 0,0.303742 0,0.214842 0,0.525991 0,0.303742 0,0.659342 0,0.348191 0,0.696383 0,0.348191 0,0.651933 0,0.303741 0,0.518583 0,0.207433 0,0.281516 0,0.09631 0,0.251884 0.0074,0.148166 0.0074,0.303741 0,0.155575 0,0.2667 0.0074,0.111125 0.0074,0.13335 h -0.807508 q 0.0074,-0.02963 0.0074,-0.1778 0,-0.148167 0,-0.348191 0.0074,-0.200025 0.0074,-0.370417 0,-0.07408 0,-0.303741 0,-0.229659 0,-0.555625 0,-0.325967 0,-0.696383 0,-0.370417 0,-0.726017 0,-0.363008 0,-0.651933 0,-0.296333 0,-0.474133 0,-0.1778 0,-0.1778 h -3.844924 q 0,0 0,0.1778 0,0.170392 0,0.466725 0,0.296333 0,0.651933 0,0.3556 0,0.726016 0,0.370417 0,0.696383 0,0.325967 0,0.555625 0,0.229658 0,0.31115 0,0.103717 0,0.251883 0,0.140759 0,0.281517 0.0074,0.13335 0.0074,0.237066 0.0074,0.103717 0.0074,0.125942 h -0.807508 q 0,-0.02222 0,-0.13335 0.0074,-0.111125 0.0074,-0.259291 0.0074,-0.148167 0.0074,-0.296334 0.0074,-0.155575 0.0074,-0.2667 0,-0.08149 0,-0.296333 0,-0.214841 0,-0.518583 0,-0.31115 0,-0.659341 0,-0.3556 0,-0.703792 0,-0.348191 0,-0.651933 0,-0.303741 0,-0.518583 0,-0.214841 0,-0.288925 0,-0.140758 0,-0.318558 0,-0.1778 -0.01482,-0.325966 z m 4.92654,4.08199 v 0.740833 h -4.519081 v -0.740833 z m 6.815662,-4.52649 q 0.09631,0.140758 0.22225,0.348191 0.13335,0.207434 0.251884,0.422275 0.125941,0.207433 0.207433,0.385233 l -0.518583,0.22225 Q 68.792789,45.340277 68.681665,45.14766 68.577948,44.947635 68.466823,44.755019 68.355698,44.562402 68.222348,44.39201 Z m 0.992717,-0.3556 q 0.103716,0.13335 0.229658,0.333375 0.13335,0.200025 0.259291,0.414866 0.125942,0.207434 0.214842,0.377825 l -0.518583,0.229658 q -0.09631,-0.214841 -0.214842,-0.407458 -0.111125,-0.192616 -0.229658,-0.377825 -0.118533,-0.185208 -0.251883,-0.355599 z m -4.178298,0.229658 q 0.170391,0.09631 0.392641,0.244475 0.229658,0.140758 0.466725,0.296333 0.237066,0.148167 0.4445,0.288925 0.207433,0.13335 0.340783,0.229658 l -0.4445,0.637117 q -0.13335,-0.103717 -0.340783,-0.244475 -0.207433,-0.140758 -0.4445,-0.288925 -0.229658,-0.148166 -0.451908,-0.281516 -0.214842,-0.140759 -0.385233,-0.237067 z m -1.229783,5.28214 q 0.414866,-0.07408 0.844549,-0.185209 0.429684,-0.118533 0.851958,-0.281516 0.422275,-0.170392 0.807508,-0.377825 0.6223,-0.3556 1.148292,-0.792691 0.533399,-0.437092 0.963082,-0.93345 0.429684,-0.496358 0.726017,-1.022349 l 0.451908,0.785283 q -0.496358,0.755649 -1.2446,1.444624 -0.748241,0.688975 -1.652057,1.214966 -0.370417,0.207433 -0.814916,0.392641 -0.4445,0.185209 -0.874183,0.318559 -0.429684,0.140758 -0.770467,0.200025 z m 0.09631,-3.600449 q 0.1778,0.0889 0.407458,0.229658 0.229659,0.13335 0.466725,0.281517 0.237067,0.148167 0.4445,0.281517 0.207433,0.133349 0.340783,0.222249 l -0.429683,0.659342 q -0.148167,-0.103717 -0.3556,-0.244475 -0.207433,-0.140758 -0.437091,-0.288925 -0.229659,-0.148167 -0.451909,-0.274108 -0.222249,-0.13335 -0.400049,-0.229658 z m 7.097179,0.740833 q 0.125942,0.0074 0.303742,0.02222 0.185208,0.0074 0.392641,0.01482 0.214842,0.0074 0.407458,0.0074 0.148167,0 0.407459,0 0.259291,0 0.585258,0 0.333375,0 0.696383,0 0.363008,0 0.718608,0 0.363008,0 0.681566,0 0.318558,0 0.563033,0 0.244475,0 0.377825,0 0.2667,0 0.481541,-0.01482 0.214842,-0.02222 0.348192,-0.02963 v 0.918633 q -0.125942,-0.0074 -0.3556,-0.02222 -0.229658,-0.01482 -0.474133,-0.01482 -0.125942,0 -0.377825,0 -0.244475,0 -0.563033,0 -0.318558,0 -0.681566,0 -0.3556,0 -0.718608,0 -0.363008,0 -0.696383,0 -0.325967,0 -0.585258,0 -0.259292,0 -0.407459,0 -0.303741,0 -0.607483,0.01482 -0.303741,0.0074 -0.496358,0.02222 z m 12.120031,-2.585507 q 0.09631,0.125942 0.200025,0.31115 0.111125,0.185208 0.214841,0.370416 0.103717,0.185209 0.1778,0.333375 l -0.481541,0.207433 q -0.111125,-0.222249 -0.281517,-0.518583 -0.162983,-0.296333 -0.311149,-0.503766 z m 0.837141,-0.31115 q 0.09631,0.13335 0.207433,0.318558 0.118534,0.185209 0.229659,0.370417 0.111125,0.1778 0.170391,0.318558 l -0.481541,0.207433 q -0.111125,-0.237066 -0.281517,-0.518583 -0.162983,-0.288925 -0.318558,-0.496358 z m -4.111623,0.585258 q -0.01482,0.148167 -0.02963,0.333375 -0.01482,0.185208 -0.01482,0.348192 0,0.09631 0,0.385233 0,0.281516 0,0.674158 0,0.385233 0,0.814916 0,0.422275 0,0.822325 0,0.392641 0,0.696383 0,0.303741 0,0.437091 0,0.2667 0.118533,0.370417 0.125942,0.09631 0.385234,0.148166 0.170391,0.02222 0.414866,0.03704 0.251883,0.01482 0.511175,0.01482 0.288925,0 0.637116,-0.01482 0.348192,-0.01482 0.696383,-0.04445 0.3556,-0.02963 0.674158,-0.07408 0.318558,-0.05186 0.548217,-0.111125 v 0.851958 q -0.333375,0.04445 -0.792692,0.07408 -0.451908,0.03704 -0.926041,0.05186 -0.474133,0.02222 -0.881591,0.02222 -0.340783,0 -0.659342,-0.02222 -0.318558,-0.01482 -0.555624,-0.05186 -0.4445,-0.08149 -0.696383,-0.318558 -0.244475,-0.244475 -0.244475,-0.7112 0,-0.192616 0,-0.5334 0,-0.340783 0,-0.763058 0,-0.422274 0,-0.859366 0,-0.4445 0,-0.829733 0,-0.392641 0,-0.674158 0,-0.288925 0,-0.392641 0,-0.0889 -0.0074,-0.207434 -0.0074,-0.125941 -0.01482,-0.244475 -0.0074,-0.125941 -0.02963,-0.229658 z m -0.385233,2.311399 q 0.340783,-0.07408 0.740833,-0.1778 0.407458,-0.111125 0.814916,-0.237066 0.414867,-0.125942 0.8001,-0.259292 0.385233,-0.140758 0.688975,-0.274108 0.185208,-0.07408 0.363008,-0.162983 0.1778,-0.0889 0.3556,-0.200025 l 0.325966,0.748241 q -0.185208,0.07408 -0.392641,0.162983 -0.207434,0.08149 -0.385234,0.155575 -0.333374,0.13335 -0.755649,0.274109 -0.422275,0.140758 -0.874183,0.281516 -0.451908,0.13335 -0.889,0.251883 -0.429683,0.118534 -0.792691,0.207434 z m 9.453028,3.141132 q 0.02223,-0.09631 0.03704,-0.214841 0.01482,-0.125942 0.01482,-0.251884 0,-0.08149 0,-0.325966 0,-0.251883 0,-0.607483 0,-0.363008 0,-0.777875 0,-0.422275 0,-0.84455 0,-0.429683 0,-0.800099 0,-0.370417 0,-0.644525 0,-0.274108 0,-0.385233 0,-0.229658 -0.02222,-0.392642 -0.02223,-0.162983 -0.02223,-0.200024 h 0.859367 q 0,0.03704 -0.02223,0.200024 -0.01482,0.162984 -0.01482,0.392642 0,0.111125 0,0.370416 0,0.259292 0,0.614892 0,0.348191 0,0.748241 0,0.392642 0,0.785283 0,0.385233 0,0.718608 0,0.333375 0,0.563033 0,0.229658 0,0.296333 0.325967,-0.148166 0.688975,-0.392641 0.363008,-0.251883 0.711199,-0.585258 0.348192,-0.333375 0.614892,-0.726016 l 0.451908,0.637116 q -0.318558,0.422275 -0.748241,0.807508 -0.422275,0.385233 -0.889,0.703791 -0.459317,0.318558 -0.889,0.5334 -0.103716,0.05186 -0.170391,0.09631 -0.06668,0.05186 -0.111125,0.0889 z m -3.41524,-0.06667 q 0.481541,-0.333375 0.8001,-0.807508 0.318558,-0.481541 0.481541,-0.992716 0.08149,-0.244475 0.125942,-0.614891 0.04445,-0.370417 0.05927,-0.785283 0.02223,-0.422275 0.02223,-0.829733 0.0074,-0.407459 0.0074,-0.726017 0,-0.192616 -0.01482,-0.333375 -0.01482,-0.140758 -0.04445,-0.266699 h 0.859366 q 0,0.02963 -0.01482,0.125941 -0.0074,0.0889 -0.01482,0.214842 -0.0074,0.118533 -0.0074,0.251883 0,0.318558 -0.0074,0.748241 -0.0074,0.422275 -0.03704,0.874183 -0.02223,0.451908 -0.06668,0.859367 -0.03704,0.407458 -0.118534,0.681566 -0.162983,0.607483 -0.503766,1.140883 -0.340783,0.533399 -0.814916,0.933449 z"
         id="text5-9"
         style="font-weight:500;font-size:7.40833px;line-height:1.25;font-family:'Noto Sans JP';-inkscape-font-specification:'Noto Sans JP Medium';fill:#f9f9f9;stroke-width:0.264583"
         aria-label="テクノロジービル" />
      <path
         style="font-weight:500;font-size:7.40833px;line-height:1.25;font-family:'Noto Sans KR';-inkscape-font-specification:'Noto Sans KR Medium';fill:#f9f9f9;stroke-width:0.264583"
         d="m 102.40946,46.220809 h 1.2446 v 0.637116 h -1.2446 z m -2.563285,2.059516 h 0.451905 q 0.50377,0 0.89641,-0.0074 0.39264,-0.01482 0.74083,-0.04445 0.3556,-0.03704 0.72602,-0.103716 l 0.0667,0.629708 q -0.38524,0.06668 -0.74825,0.103717 -0.363,0.02963 -0.77046,0.04445 -0.40005,0.0074 -0.91123,0.0074 h -0.451905 z m 0,-3.793065 h 2.511425 v 0.6223 h -1.77059 v 3.393015 h -0.740835 z m 0.525995,1.829857 h 1.70391 V 46.9246 h -1.70391 z m 4.28942,-2.61514 h 0.74083 v 6.771213 h -0.74083 z m -1.38536,0.148166 h 0.73343 v 6.304489 h -0.73343 z m 3.87456,0.503767 h 4.28201 v 0.629708 h -4.28201 z m -0.7112,4.607981 h 6.11928 v 0.637117 h -6.11928 z m 4.66725,-4.607981 h 0.76306 v 0.807508 q 0,0.496358 -0.0148,0.992716 -0.0148,0.496358 -0.0741,1.0668 -0.0593,0.570441 -0.21485,1.281641 l -0.77046,-0.06668 q 0.15557,-0.66675 0.21484,-1.222375 0.0667,-0.563033 0.0815,-1.066799 0.0148,-0.503767 0.0148,-0.985308 z m 0.17039,1.859491 v 0.577849 l -4.20793,0.22225 -0.10372,-0.637116 z m 2.77072,-1.037166 h 4.6302 v 0.629708 h -4.6302 z m -0.7927,1.266824 h 6.1341 v 0.6223 h -6.1341 z m 0.7927,-2.652182 h 0.76305 v 1.718732 h -0.76305 z m -0.0667,3.756023 h 4.65243 v 1.659466 h -3.85974 v 0.770466 h -0.77787 v -1.326091 h 3.85974 v -0.511174 h -3.87456 z m 0.0148,2.252132 h 4.85245 v 0.592667 h -4.85245 z m 1.94098,-4.244973 h 0.77047 v 1.2446 h -0.77047 z m 4.13385,3.489324 h 6.1341 v 0.637116 h -6.1341 z m 2.667,-1.37795 h 0.77787 v 1.637241 h -0.77787 z m -1.94099,-3.489323 h 4.68207 v 2.148416 h -3.90419 v 1.252007 h -0.76306 v -1.866899 h 3.89678 v -0.903816 h -3.9116 z m 0.0148,3.089274 h 4.82282 v 0.622299 h -4.82282 z m 7.79356,-2.548466 h 0.6223 v 0.948266 q 0,0.563033 -0.13335,1.103841 -0.13335,0.5334 -0.39264,1.007533 -0.25188,0.474133 -0.60748,0.837142 -0.3556,0.363008 -0.78528,0.577849 l -0.45191,-0.614891 q 0.39264,-0.185208 0.7112,-0.496358 0.32597,-0.31115 0.55562,-0.703791 0.22966,-0.40005 0.3556,-0.837142 0.12594,-0.437091 0.12594,-0.874183 z m 0.16299,0 h 0.6223 v 0.948266 q 0,0.422275 0.12594,0.837142 0.12594,0.414866 0.3556,0.785283 0.22966,0.370416 0.54822,0.659341 0.31855,0.288925 0.7186,0.459316 l -0.42968,0.614892 q -0.4445,-0.200025 -0.8001,-0.540808 -0.3556,-0.340783 -0.61489,-0.785283 -0.25188,-0.451908 -0.39264,-0.963083 -0.13335,-0.518583 -0.13335,-1.0668 z m -1.66688,-0.340783 h 3.79307 v 0.644525 h -3.79307 z m 4.57835,-0.66675 h 0.77788 v 6.771214 h -0.77788 z m 8.89741,0 h 0.77788 v 3.50414 h -0.77788 z m -3.65971,3.830107 h 4.43759 v 1.689099 h -3.65972 v 0.851958 h -0.76305 v -1.407583 h 3.65971 v -0.540808 h -3.67453 z m 0.0148,2.274357 h 4.6302 v 0.600075 h -4.6302 z m -0.80751,-5.830356 h 0.76306 v 0.881592 h 1.68909 v -0.881592 h 0.77047 v 2.970741 h -3.22262 z m 0.76306,1.474258 v 0.881591 h 1.68909 v -0.881591 z m 10.50501,-1.755774 h 0.77787 V 47.8136 h -0.77787 z m -4.40055,2.941107 h 0.57044 q 0.73342,0 1.28164,-0.01482 0.55563,-0.01482 1.01494,-0.06668 0.45932,-0.05186 0.92604,-0.148166 l 0.0815,0.629708 q -0.47413,0.09631 -0.94826,0.148166 -0.47413,0.04445 -1.04458,0.06668 -0.56303,0.01482 -1.31127,0.01482 h -0.57044 z m 0,-2.415116 h 3.19299 v 0.6223 h -2.42253 v 2.141007 h -0.77046 z m 2.91147,3.622674 q 0.7112,0 1.22238,0.155575 0.51117,0.155575 0.79269,0.451908 0.28151,0.288925 0.28151,0.703791 0,0.414867 -0.28151,0.7112 -0.28152,0.296333 -0.79269,0.4445 -0.51118,0.155574 -1.22238,0.155574 -0.70379,0 -1.22237,-0.155574 -0.51118,-0.148167 -0.79269,-0.4445 -0.27411,-0.296333 -0.27411,-0.7112 0,-0.414866 0.27411,-0.703791 0.28151,-0.296333 0.79269,-0.451908 0.51858,-0.155575 1.22237,-0.155575 z m 0,0.607483 q -0.47413,0 -0.81491,0.08149 -0.34079,0.08149 -0.51859,0.237067 -0.1778,0.155575 -0.1778,0.385233 0,0.229658 0.1778,0.392642 0.1778,0.155574 0.51859,0.237066 0.34078,0.08149 0.81491,0.08149 0.48895,0 0.82233,-0.08149 0.34078,-0.08149 0.51858,-0.237066 0.1778,-0.162984 0.1778,-0.392642 0,-0.229658 -0.1778,-0.385233 -0.1778,-0.155575 -0.51858,-0.237067 -0.33338,-0.08149 -0.82233,-0.08149 z"
         id="text5-9-8"
         aria-label="테크놀로지 빌딩" />
    </g>
  </g>
</svg>
