<?xml version="1.0" encoding="UTF-8" standalone="no"?>
<!-- Created with Inkscape (http://www.inkscape.org/) -->

<svg
   width="500"
   height="250"
   viewBox="0 0 132.29166 66.145833"
   version="1.1"
   id="svg1"
   inkscape:version="1.3.2 (091e20e, 2023-11-25, custom)"
   sodipodi:docname="br09.svg"
   xmlns:inkscape="http://www.inkscape.org/namespaces/inkscape"
   xmlns:sodipodi="http://sodipodi.sourceforge.net/DTD/sodipodi-0.dtd"
   xmlns="http://www.w3.org/2000/svg"
   xmlns:svg="http://www.w3.org/2000/svg">
  <sodipodi:namedview
     id="namedview1"
     pagecolor="#9e652e"
     bordercolor="#ffffff"
     borderopacity="1"
     inkscape:showpageshadow="0"
     inkscape:pageopacity="0"
     inkscape:pagecheckerboard="false"
     inkscape:deskcolor="#d1d1d1"
     inkscape:document-units="mm"
     inkscape:zoom="2.0208096"
     inkscape:cx="176.66187"
     inkscape:cy="144.49654"
     inkscape:window-width="1920"
     inkscape:window-height="1009"
     inkscape:window-x="1912"
     inkscape:window-y="-8"
     inkscape:window-maximized="1"
     inkscape:current-layer="layer1" />
  <defs
     id="defs1">
    <rect
       x="157.85752"
       y="62.351248"
       width="329.07603"
       height="135.09437"
       id="rect4" />
  </defs>
  <g
     inkscape:label="Layer 1"
     inkscape:groupmode="layer"
     id="layer1">
    <path
       id="rect5"
       style="fill:#9e652e;stroke-width:0.953294"
       d="M -2.5431316e-6,-1.2715658e-6 H 132.29167 V 66.145835 H -2.5431316e-6 Z" />
    <g
       id="g10"
       transform="matrix(1.3817476,0,0,1.3817476,5.5515957,-12.08277)">
      <path
         id="rect6"
         style="fill:#9e652e;stroke:#ffffff;stroke-width:0.575409"
         d="m 9.6812866,24.650414 h 5.7010484 c 1.810114,0 3.267355,1.45724 3.267355,3.267354 v 9.52472 c 0,1.810114 -1.457241,3.267355 -3.267355,3.267355 H 9.6812866 c -1.8101145,0 -3.2673548,-1.457241 -3.2673548,-3.267355 v -9.52472 c 0,-1.810114 1.4572403,-3.267354 3.2673548,-3.267354 z" />
      <path
         style="font-weight:bold;font-size:5.82083px;line-height:1.25;font-family:'Optima Bold';-inkscape-font-specification:'Optima Bold,  Bold';fill:#f9f9f9;stroke-width:0.264583"
         d="m 9.0655057,31.750372 v -3.987269 h 0.2328332 1.3795371 q 0.01164,0.01164 0.02328,0.01164 0.01746,0 0.0291,0 0.01164,0 0.02328,0 0.01746,0 0.0291,0 0.186266,0.0058 0.35507,0.05239 0.168804,0.04075 0.325967,0.122237 0.157162,0.07567 0.232833,0.232833 0.08149,0.151342 0.08149,0.384175 v 0.01746 0.01746 0.02328 0.01746 q 0,0.174625 -0.06403,0.331787 -0.06403,0.151342 -0.186266,0.291042 -0.122238,0.139699 -0.2794,0.227012 -0.157162,0.08149 -0.343429,0.116417 0.203729,0.03493 0.384175,0.09895 0.180445,0.06403 0.325966,0.157162 0.151342,0.09313 0.221192,0.273579 0.07567,0.174625 0.07567,0.430741 0,0.308504 -0.104775,0.535517 -0.09895,0.221191 -0.302684,0.35507 -0.197908,0.1397 -0.42492,0.215371 -0.221192,0.06985 -0.465667,0.07567 h -0.232833 q -0.0058,0 -0.01746,0 -0.0058,0 -0.01164,0 -0.01164,0 -0.01746,0 -0.0058,0 -0.01746,0 -0.01746,0 -0.03492,0 -0.01164,0 -0.02328,0 H 9.0655057 v 0 z M 9.8047511,31.52336 h 0.3201459 q 0.203729,0.01164 0.360891,-0.03493 0.162983,-0.05239 0.291042,-0.151342 0.122237,-0.09895 0.203729,-0.203729 0.08149,-0.110596 0.122237,-0.232833 0,-0.01164 0,-0.02328 0.0058,-0.01164 0.01164,-0.0291 0,-0.01164 0,-0.02328 0.0058,-0.01164 0.0058,-0.02328 0.0058,-0.02328 0.0058,-0.04657 0.0058,-0.02328 0.0058,-0.04657 0,-0.291041 -0.09313,-0.483128 -0.08731,-0.197909 -0.273579,-0.291042 -0.157162,-0.08149 -0.395816,-0.128058 -0.238654,-0.04657 -0.5646209,-0.05239 v 1.769533 z m 0,-2.019828 h 0.1338791 q 0.2561168,0.01164 0.4540248,-0.03493 0.197908,-0.05239 0.337608,-0.151342 0.133879,-0.09895 0.20955,-0.244475 0.08149,-0.145521 0.09895,-0.337608 v -0.02328 l 0.0058,-0.01746 v -0.01164 -0.01746 q 0,-0.162983 -0.06985,-0.291041 -0.06985,-0.128059 -0.20955,-0.20955 -0.1397,-0.08149 -0.302683,-0.122238 -0.157162,-0.04075 -0.337608,-0.04075 l -0.3201459,-0.01164 v 1.513416 z m 3.0268279,2.24684 v -4.033835 h 0.232833 1.420282 q 0.291042,0.01164 0.506413,0.08149 0.221191,0.06985 0.360891,0.203729 0.1397,0.1397 0.20955,0.314325 0.06985,0.168804 0.06985,0.372533 0,0.197909 -0.05821,0.360892 -0.05239,0.157162 -0.168805,0.273579 -0.110595,0.116416 -0.238654,0.203729 -0.122237,0.08731 -0.256116,0.1397 -0.06403,0.02328 -0.128058,0.04657 -0.05821,0.02328 -0.122238,0.03493 -0.05821,0.01746 -0.116416,0.02911 -0.05821,0.0058 -0.104775,0.01164 l 1.559982,1.96162 h -0.232833 q -0.02328,0 -0.04657,0 -0.01746,0 -0.04075,-0.0058 -0.02328,0 -0.04657,0 -0.01746,-0.0058 -0.03493,-0.01164 -0.01746,0 -0.03492,0 -0.01164,0 -0.02328,0 -0.0058,0 -0.01164,0 -0.0058,0 -0.01746,0 -0.0058,0.0058 -0.01164,0.0058 -0.0058,0 -0.01746,0 -0.04075,0.0058 -0.08731,0.01164 -0.04075,0 -0.08731,0 H 15.072598 L 13.61157,29.881886 v 1.868486 h -0.232833 q -0.01746,0 -0.03492,0 -0.01746,0 -0.03492,-0.0058 -0.0058,0 -0.01746,0 -0.0058,0 -0.01164,-0.0058 -0.01164,0 -0.01746,0 -0.0058,-0.0058 -0.01746,-0.0058 -0.0058,0 -0.01164,0 -0.0058,0 -0.0058,0 -0.0058,0.0058 -0.01164,0.0058 -0.0058,0 -0.01164,0 -0.03492,0.0058 -0.06985,0.01164 -0.03492,0 -0.06985,0 h -0.232833 v 0 z m 0.779991,-2.153707 q 0.01164,0.01164 0.0291,0.01746 0.01746,0 0.03492,0 0.221192,-0.0058 0.395816,-0.04075 0.174625,-0.03492 0.291042,-0.104775 0.133879,-0.07567 0.221191,-0.157163 0.09313,-0.08731 0.145521,-0.180446 0.04075,-0.06403 0.06403,-0.128058 0.0291,-0.06985 0.03492,-0.128058 0.01164,-0.06403 0.01164,-0.110596 0.0058,-0.04657 0.0058,-0.07567 0,-0.0291 -0.0058,-0.06403 -0.0058,-0.03493 -0.01746,-0.08149 -0.0058,-0.04657 -0.0291,-0.09313 -0.02328,-0.04657 -0.05239,-0.09895 -0.04075,-0.07567 -0.116417,-0.14552 -0.07567,-0.06985 -0.174625,-0.128059 -0.09895,-0.06403 -0.238654,-0.09313 -0.1397,-0.0291 -0.325966,-0.0291 l -0.273579,-0.01164 v 1.653116 0 z"
         id="text6"
         aria-label="BR" />
      <path
         style="font-weight:bold;font-size:5.82083px;line-height:1.25;font-family:'Optima Bold';-inkscape-font-specification:'Optima Bold,  Bold';fill:#f9f9f9;stroke-width:0.264583"
         d="m 9.365277,35.593402 q 0,-0.0058 0,-0.01164 0,-0.01164 0,-0.0291 0,-0.01164 0,-0.0291 0.00582,-0.01746 0.011642,-0.03493 0,-0.07567 0.00582,-0.168804 0.011642,-0.09895 0.017463,-0.215371 0.011642,-0.116417 0.029104,-0.238654 0.023283,-0.128058 0.058208,-0.256116 0.052388,-0.20373 0.1513416,-0.384175 0.098954,-0.186267 0.2444749,-0.34925 0.1397005,-0.168804 0.3667125,-0.250296 0.227013,-0.08149 0.535517,-0.08149 l 0.232833,-0.0058 q 0.28522,0.0058 0.49477,0.09313 0.20955,0.08149 0.34925,0.250296 0.1397,0.168804 0.232833,0.35507 0.09895,0.180446 0.151342,0.384175 0.04075,0.151342 0.06403,0.296863 0.02328,0.14552 0.0291,0.279399 0.0058,0.1397 0.0058,0.244475 0.0058,0.09895 0.0058,0.162983 0,0.06985 -0.01164,0.168804 -0.0058,0.09313 -0.01746,0.215371 -0.01164,0.122238 -0.04075,0.250296 -0.02328,0.128058 -0.06403,0.261937 -0.05821,0.192088 -0.162984,0.372533 -0.09895,0.174625 -0.238654,0.331788 -0.1397,0.162983 -0.349249,0.238654 -0.203729,0.07567 -0.477308,0.07567 h -0.232834 -0.01746 -0.01164 -0.01746 -0.01164 q -0.34925,0 -0.599545,-0.128058 Q 9.8542267,37.26398 9.7028852,36.996222 9.5573644,36.734284 9.470052,36.443243 9.38856,36.146381 9.371098,35.826235 q 0,-0.01164 0,-0.02328 0,-0.01746 0,-0.03493 -0.00582,-0.01164 -0.00582,-0.02328 0,-0.01746 0,-0.0291 0,-0.01164 0,-0.02328 0,-0.01746 0,-0.03492 0,-0.01164 0,-0.02328 0,-0.01746 0,-0.02911 v -0.01164 z m 0.739245,0.09895 q 0,0.07567 0,0.151341 0.0058,0.07567 0.01164,0.157163 0,0.04075 0.0058,0.08731 0.0058,0.04075 0.01164,0.08149 0.0058,0.04657 0.01164,0.08731 0.01164,0.04075 0.01746,0.08731 0.03492,0.180446 0.09895,0.34925 0.06403,0.162983 0.157162,0.314324 0.08149,0.128059 0.186267,0.197909 0.110596,0.06985 0.256116,0.09313 0.180446,-0.02328 0.302683,-0.110596 0.128059,-0.09313 0.203729,-0.250296 0.08731,-0.186266 0.1397,-0.384174 0.05821,-0.203729 0.08149,-0.4191 0.0058,-0.04075 0.0058,-0.08149 0.0058,-0.04075 0.0058,-0.08149 0.0058,-0.03493 0.0058,-0.07567 0,-0.04075 0,-0.08149 0,-0.04075 0,-0.07567 0,-0.04075 0.0058,-0.08149 0,-0.03493 0,-0.06985 0,-0.04075 0,-0.07567 0,-0.378354 -0.05821,-0.692679 -0.05239,-0.314324 -0.157162,-0.558799 -0.09313,-0.215371 -0.221192,-0.331788 -0.122237,-0.122237 -0.2794,-0.151341 -0.256116,0.03492 -0.419099,0.192087 -0.162984,0.151342 -0.227013,0.424921 -0.07567,0.291041 -0.110596,0.617008 -0.03493,0.325966 -0.03493,0.686858 z m 2.794004,-0.832379 q 0,-0.01746 0,-0.04075 0,-0.0291 0,-0.05239 0,-0.01164 0,-0.02328 0,-0.01746 0.0058,-0.03493 0,-0.01164 0,-0.02328 0.0058,-0.01746 0.0058,-0.0291 0.01746,-0.203729 0.09313,-0.384175 0.08149,-0.186266 0.221192,-0.349249 0.139699,-0.168804 0.389995,-0.250296 0.250296,-0.08149 0.617008,-0.08149 l 0.232833,-0.0058 q 0.256117,0.0058 0.442383,0.07567 0.192088,0.06985 0.320146,0.203729 0.133879,0.133879 0.221192,0.285221 0.09313,0.145521 0.14552,0.302683 0.0291,0.09313 0.05239,0.180446 0.02328,0.08731 0.0291,0.174625 0.01164,0.08731 0.01746,0.162983 0.0058,0.06985 0.0058,0.133879 v 0.01746 0.02328 0.0291 0.02328 q 0,0.552979 -0.110596,0.966258 -0.110595,0.407458 -0.331787,0.681037 -0.227012,0.267758 -0.471487,0.430742 -0.244475,0.162983 -0.512233,0.209549 -0.04075,0.01164 -0.08149,0.01164 -0.04075,0.0058 -0.08149,0.01164 -0.04075,0.0058 -0.08149,0.0058 -0.03493,0.0058 -0.06985,0.0058 h -0.232833 q -0.04657,0 -0.09313,-0.0058 -0.04657,0 -0.09313,-0.0058 -0.04657,-0.0058 -0.09313,-0.01746 -0.04075,-0.0058 -0.08731,-0.01746 l -0.186267,-0.366712 h 0.232833 0.1397 q 0.05821,0.06403 0.116417,0.104774 0.05821,0.03492 0.116416,0.05821 0.0291,0.01164 0.05821,0.02328 0.03492,0.0058 0.05821,0.01164 0.186267,-0.0291 0.355071,-0.162983 0.168804,-0.1397 0.314324,-0.372534 0.145521,-0.238654 0.232834,-0.500591 0.08731,-0.261937 0.110595,-0.541337 -0.04075,0.04075 -0.09313,0.06985 -0.04657,0.02328 -0.09313,0.04657 -0.05821,0.02328 -0.122238,0.04075 -0.05821,0.01746 -0.116416,0.0291 -0.05821,0.0058 -0.110596,0.01164 -0.04657,0 -0.09313,0 l -0.232833,-0.0058 q -0.238654,0.0058 -0.442384,-0.05239 -0.203729,-0.06403 -0.372533,-0.192088 -0.162983,-0.128058 -0.250295,-0.325966 -0.08149,-0.203729 -0.08149,-0.477308 V 34.86 Z m 0.785812,-0.174625 q 0,0.01164 0,0.02328 0,0.0058 0,0.01164 0,0.01164 0,0.01746 0,0.0058 0,0.01746 0,0.01746 0,0.03493 0,0.01746 0.0058,0.0291 0.01164,0.157163 0.04657,0.302684 0.04074,0.139699 0.110595,0.273579 0.05821,0.104774 0.151342,0.168804 0.09895,0.05821 0.232833,0.07567 0.168804,-0.02328 0.285221,-0.09313 0.122237,-0.07567 0.203729,-0.192087 0.08731,-0.133879 0.133879,-0.2794 0.04657,-0.151342 0.04657,-0.314325 v -0.03493 -0.03493 q -0.0058,-0.168804 -0.05821,-0.325966 -0.05239,-0.157163 -0.151341,-0.302683 -0.07567,-0.116417 -0.180446,-0.186267 -0.09895,-0.06985 -0.215371,-0.09313 -0.09313,0.01164 -0.168804,0.05239 -0.06985,0.03493 -0.133879,0.09895 -0.07567,0.08149 -0.133879,0.174625 -0.05821,0.08731 -0.09313,0.186267 -0.02328,0.05821 -0.04075,0.110595 -0.01164,0.05239 -0.02328,0.104775 -0.0058,0.05239 -0.01164,0.09895 -0.0058,0.04657 -0.0058,0.08149 z"
         id="text6-8"
         aria-label="09" />
      <path
         style="font-weight:bold;font-size:14.8167px;line-height:1.25;font-family:'Noto Serif TC';-inkscape-font-specification:'Noto Serif TC Bold';fill:#ffffff;stroke-width:0.264583"
         d="m 36.027913,30.605776 c 0.222251,0 0.385235,-0.07408 0.429685,-0.237068 C 35.716763,29.73159 34.51661,28.827772 34.51661,28.827772 l -1.096436,1.348319 h -3.333757 c 0.103717,-1.200152 0.118533,-2.459572 0.148167,-3.748625 0.355601,-0.05927 0.488951,-0.207434 0.533401,-0.429684 l -2.489206,-0.237067 c 0,1.540936 0.01482,3.022606 -0.0889,4.415376 h -5.496996 l 0.118534,0.429685 h 5.348829 c -0.325968,3.378207 -1.48167,6.311914 -5.600713,8.801119 l 0.13335,0.222251 c 5.378463,-2.118788 6.860133,-5.141395 7.304634,-8.66777 0.40005,2.96334 1.511303,6.563798 4.963594,8.66777 0.162984,-1.007536 0.696385,-1.555754 1.600204,-1.718737 l 0.02963,-0.162984 c -4.148676,-1.674287 -5.867413,-4.40056 -6.385998,-7.141649 z m 12.816446,-2.015072 c -0.0889,0.607485 -0.281517,1.377953 -0.429684,1.881721 l 0.118533,0.103717 c 0.711202,-0.400051 1.644654,-1.096436 2.178055,-1.629837 0.311151,-0.01482 0.459318,-0.05927 0.577851,-0.1778 l -1.61502,-1.52612 -0.918635,0.918635 h -3.704175 c 0.918635,-0.474134 1.007535,-2.222505 -2.133605,-2.429939 l -0.103717,0.103717 c 0.518585,0.488951 0.903819,1.333503 0.874185,2.089155 0.118534,0.103717 0.251884,0.1778 0.370418,0.237067 h -4.622811 c -0.07408,-0.281517 -0.1778,-0.563035 -0.31115,-0.874185 H 38.91717 c 0.103717,0.785285 -0.385234,1.600203 -0.829735,1.911354 -0.444501,0.251884 -0.740835,0.696385 -0.548218,1.244603 0.237067,0.563034 1.007535,0.666751 1.43722,0.311151 0.459317,-0.355601 0.726018,-1.111253 0.548218,-2.163239 z m -3.14114,4.193126 c -0.266701,1.200153 -0.726019,2.281772 -1.570571,3.274491 -0.874185,-0.1778 -1.852087,-0.325967 -2.978156,-0.459318 0.488951,-0.829735 1.022352,-1.83727 1.52612,-2.815173 z m 2.741089,-0.429684 h -0.651935 c 0.05927,-0.325967 0.118534,-0.666751 0.162984,-1.007535 0.340784,0.01482 0.533401,-0.103717 0.577851,-0.340785 l -2.563289,-0.488951 c -0.02963,0.637118 -0.0889,1.244603 -0.1778,1.837271 h -2.889257 c 0.429685,-0.874185 0.814919,-1.689104 1.096436,-2.252138 0.474134,0.01482 0.607485,-0.133351 0.666752,-0.296334 l -2.415123,-0.726019 c -0.207433,0.711202 -0.726018,1.970622 -1.289052,3.274491 h -3.289308 l 0.13335,0.429684 h 2.96334 c -0.503767,1.111253 -1.037169,2.192872 -1.437219,2.889257 1.422403,0.385234 2.696639,0.829735 3.852342,1.289053 -1.229787,0.992719 -2.96334,1.822454 -5.422913,2.459572 l 0.0889,0.1778 c 3.022606,-0.414867 5.141394,-1.111252 6.637881,-2.074338 1.377953,0.637119 2.474389,1.289053 3.244857,1.881721 1.570571,0.844552 3.807892,-1.407586 -1.926171,-2.96334 0.992719,-1.037169 1.555754,-2.252138 1.896538,-3.659725 h 3.00779 c 0.207434,0 0.370418,-0.07408 0.414868,-0.237067 C 50.459379,31.968912 49.37776,31.16881 49.37776,31.16881 Z"
         id="text7"
         aria-label="大安" />
      <path
         style="font-weight:bold;font-size:5.82083px;line-height:1.25;font-family:'Optima Bold';-inkscape-font-specification:'Optima Bold,  Bold';fill:#f9f9f9;stroke-width:0.264583"
         d="m 56.007313,28.391015 h 1.880128 q 0.500591,0.01164 0.84402,0.157163 0.34925,0.1397 0.547158,0.4191 0.197908,0.279399 0.296863,0.611187 0.09895,0.325966 0.09895,0.70432 0,0.09313 -0.01164,0.192087 -0.0058,0.09896 -0.02328,0.20955 -0.01746,0.110596 -0.04657,0.221192 -0.02328,0.104775 -0.06403,0.215371 -0.08731,0.232833 -0.238654,0.454024 -0.145521,0.215371 -0.355071,0.4191 -0.20955,0.197908 -0.518054,0.308504 -0.308504,0.110596 -0.710141,0.122237 h -0.23283 -1.699682 v -4.033835 h 0.232833 z m 0.552979,0.2794 v 3.480856 q 0.06985,0.01164 0.133879,0.01746 0.06985,0.0058 0.133879,0.01164 0.01746,0 0.0291,0 0.01746,0 0.0291,0 0.01746,0.0058 0.0291,0.0058 0.01746,0 0.0291,0 0.471488,-0.01164 0.820737,-0.116416 0.34925,-0.104775 0.564621,-0.302683 0.227012,-0.20955 0.355071,-0.570442 0.133879,-0.360891 0.162983,-0.867303 0,-0.01164 0,-0.02328 0,-0.01164 0.0058,-0.02328 0,-0.01164 0,-0.02328 0,-0.01164 0,-0.02328 0,-0.02328 0,-0.04075 0,-0.02328 0,-0.04657 0,-0.395816 -0.104775,-0.669395 -0.09895,-0.273579 -0.302683,-0.430742 -0.20373,-0.157162 -0.430742,-0.256116 -0.221191,-0.09895 -0.465666,-0.133879 -0.0291,-0.0058 -0.05821,-0.0058 -0.0291,-0.0058 -0.05821,-0.0058 -0.03493,-0.0058 -0.06403,-0.0058 -0.0291,-0.0058 -0.05821,-0.0058 -0.01746,0 -0.03493,0 -0.01746,-0.0058 -0.0291,-0.0058 -0.01746,0 -0.03493,0 -0.01746,0 -0.03492,0 -0.01746,0 -0.03493,0 -0.01746,0 -0.03493,0 -0.02328,0 -0.04075,0.0058 -0.01746,0 -0.03493,0 -0.06403,0.0058 -0.122238,0.01164 -0.05821,0 -0.110595,0.0058 -0.04075,0.0058 -0.07567,0.01164 -0.03493,0 -0.06403,0 -0.0291,0.0058 -0.05821,0.01164 -0.02328,0 -0.04075,0 z m 3.486675,3.754435 1.833562,-4.080401 h 0.232833 0.133879 l 1.792815,4.080401 h -0.232833 q -0.01746,0 -0.04075,0 -0.01746,0 -0.04075,0 -0.02328,0 -0.04657,0 -0.01746,0 -0.04657,0 -0.01164,0 -0.0291,0 -0.01164,0 -0.02328,-0.0058 -0.01164,0 -0.0291,0 -0.01164,0 -0.02328,0 -0.01164,0.0058 -0.0291,0.0058 -0.01164,0 -0.02328,0 -0.01164,0 -0.02328,0 -0.01164,0 -0.01746,0 -0.01164,0 -0.02328,0 -0.0058,0 -0.01746,0 H 63.161111 L 62.52082,30.818301 h -1.187449 l -0.593725,1.606549 h -0.232833 q -0.01164,0 -0.0291,0 -0.01164,0 -0.02328,0 l -0.0291,-0.0058 q -0.0058,0.0058 -0.01746,0.0058 -0.01164,0 -0.01746,0 -0.01164,0 -0.02328,0 -0.0058,0 -0.01746,0 H 60.11684 q -0.01746,0 -0.03492,0 -0.01746,0 -0.03493,0 v 0 z m 1.426103,-1.880128 h 0.954617 L 61.950379,29.40384 Z m 2.700864,1.880128 1.833561,-4.080401 h 0.232833 0.133879 l 1.792816,4.080401 H 67.93419 q -0.01746,0 -0.04075,0 -0.01746,0 -0.04075,0 -0.02328,0 -0.04657,0 -0.01746,0 -0.04657,0 -0.01164,0 -0.0291,0 -0.01164,0 -0.02328,-0.0058 -0.01164,0 -0.0291,0 -0.01164,0 -0.02328,0 -0.01164,0.0058 -0.0291,0.0058 -0.01164,0 -0.02328,0 -0.01164,0 -0.02328,0 -0.01164,0 -0.01746,0 -0.01164,0 -0.02328,0 -0.0058,0 -0.01746,0 h -0.232833 l -0.640292,-1.606549 h -1.187449 l -0.593725,1.606549 h -0.232833 q -0.01164,0 -0.0291,0 -0.01164,0 -0.02328,0 l -0.0291,-0.0058 q -0.0058,0.0058 -0.01746,0.0058 -0.01164,0 -0.01746,0 -0.01164,0 -0.02328,0 -0.0058,0 -0.01746,0 h -0.232833 q -0.01746,0 -0.03493,0 -0.01746,0 -0.03493,0 v 0 z m 1.426103,-1.880128 h 0.954616 L 66.077345,29.40384 Z m 3.201455,1.880128 v -4.033835 h 0.232833 0.2794 l 2.561165,2.817282 v -2.817282 h 0.232833 q 0.01164,0.01746 0.0291,0.02328 0.01746,0.0058 0.03493,0.01164 0.02328,-0.0058 0.04075,-0.01164 0.01746,-0.0058 0.0291,-0.01164 l 0.232833,-0.0058 V 32.42485 H 72.241602 72.01459 l -2.613553,-2.904594 v 2.904594 h -0.232833 q -0.0058,0 -0.01164,0 -0.0058,0 -0.01164,0 -0.01164,0 -0.01746,0 -0.0058,-0.0058 -0.01164,-0.0058 -0.01164,0 -0.02328,0 -0.0058,0 -0.01746,0.0058 -0.01164,0 -0.02328,0 -0.0058,0 -0.01746,0 h -0.232833 v 0 z"
         id="text8"
         aria-label="DAAN" />
      <path
         style="font-weight:500;font-size:5.82083px;line-height:1.25;font-family:'Noto Sans JP';-inkscape-font-specification:'Noto Sans JP Medium';fill:#ffffff;stroke-width:0.264583"
         d="m 55.890895,36.403587 h 5.145613 v 0.570442 h -5.145613 z m 2.898773,0.227013 q 0.186267,0.686858 0.500591,1.280582 0.320146,0.593725 0.779992,1.041929 0.465666,0.442383 1.076853,0.698499 -0.06985,0.05821 -0.151341,0.151342 -0.07567,0.09313 -0.145521,0.186266 -0.06985,0.09895 -0.116417,0.174625 -0.646112,-0.302683 -1.129241,-0.797453 -0.477308,-0.500592 -0.809095,-1.158346 -0.331787,-0.657753 -0.5588,-1.443565 z m -0.640291,-1.851024 h 0.599545 q 0,0.413279 -0.02328,0.890587 -0.01746,0.471487 -0.08731,0.972078 -0.06985,0.500592 -0.227013,1.001183 -0.157162,0.500591 -0.436562,0.966258 -0.2794,0.465666 -0.715962,0.867303 -0.436562,0.395817 -1.065212,0.692679 -0.06985,-0.110596 -0.186267,-0.244475 -0.116416,-0.128058 -0.232833,-0.21537 0.605367,-0.273579 1.018645,-0.634471 0.4191,-0.366712 0.675217,-0.791633 0.261937,-0.430741 0.401637,-0.890587 0.1397,-0.459845 0.197908,-0.919691 0.05821,-0.459845 0.06985,-0.890587 0.01164,-0.430741 0.01164,-0.803274 z m 5.815009,-0.0058 h 0.587904 v 0.995362 h -0.587904 z m -2.130424,0.576262 h 4.90696 v 1.309687 h -0.582083 v -0.791633 h -3.766077 v 0.791633 h -0.5588 z m 1.909232,0.721783 0.576262,0.122237 q -0.162983,0.34925 -0.349249,0.721783 -0.186267,0.372533 -0.384175,0.750887 -0.192087,0.378354 -0.378354,0.715962 -0.186267,0.337609 -0.337608,0.605367 l -0.576262,-0.151342 q 0.162983,-0.267758 0.349249,-0.605366 0.192088,-0.337608 0.384175,-0.710141 0.197908,-0.378354 0.384175,-0.750887 0.186267,-0.372534 0.331787,-0.6985 z m 1.513416,1.26312 0.611187,0.08731 q -0.180445,0.675217 -0.506412,1.152525 -0.325966,0.471487 -0.791633,0.791633 -0.459845,0.314324 -1.071033,0.506412 -0.611187,0.197908 -1.362074,0.314325 -0.02328,-0.06985 -0.08149,-0.162984 -0.05821,-0.08731 -0.122238,-0.180445 -0.05821,-0.09313 -0.116416,-0.157163 0.977899,-0.110595 1.682219,-0.360891 0.704321,-0.256117 1.140883,-0.733425 0.442383,-0.477308 0.617008,-1.257299 z m -3.568169,-0.355071 h 5.180539 v 0.523875 h -5.180539 z m 0.983721,1.688041 0.389995,-0.389996 q 0.442383,0.122238 0.931333,0.296863 0.494771,0.168804 0.977899,0.366712 0.483129,0.192087 0.90805,0.395816 0.42492,0.20373 0.727604,0.395817 l -0.424921,0.448204 Q 65.896901,39.995039 65.489443,39.785489 65.081985,39.57594 64.598856,39.37221 64.121548,39.162661 63.620957,38.982215 63.126186,38.801769 62.672162,38.66789 Z"
         id="text9"
         aria-label="大安" />
      <path
         style="font-weight:500;font-size:5.82083px;line-height:1.25;font-family:'Noto Sans KR';-inkscape-font-specification:'Noto Sans KR Medium';fill:#ffffff;stroke-width:0.264583"
         d="m 74.8341,34.855247 h 0.611187 v 5.33188 H 74.8341 Z m 0.477308,2.043111 h 0.960437 v 0.506412 h -0.960437 z m -3.771898,1.47267 h 0.430742 q 0.477308,0 0.878945,-0.01164 0.401637,-0.01746 0.779991,-0.05239 0.378354,-0.04075 0.76835,-0.110596 l 0.06403,0.506412 q -0.401638,0.07567 -0.791633,0.116417 -0.384175,0.03493 -0.803275,0.05239 -0.413279,0.01164 -0.896407,0.01164 H 71.53951 Z m 0,-3.009369 h 2.473853 v 0.494771 h -1.868487 v 2.753252 H 71.53951 Z m 8.684679,-0.506412 h 0.605366 v 3.899956 h -0.605366 z m 0.42492,1.577445 h 0.931333 v 0.506412 h -0.931333 z m -3.183994,3.143248 h 3.585632 v 0.49477 h -3.585632 z m 0,-1.222374 h 0.611188 v 1.437745 h -0.611188 z m 0.692679,-3.137428 q 0.401637,0 0.721783,0.174625 0.320146,0.168804 0.506412,0.471487 0.186267,0.296863 0.186267,0.686858 0,0.384175 -0.186267,0.686858 -0.186266,0.296863 -0.506412,0.471488 -0.320146,0.168804 -0.721783,0.168804 -0.395816,0 -0.715962,-0.168804 -0.320145,-0.174625 -0.506412,-0.471488 -0.186267,-0.302683 -0.186267,-0.686858 0,-0.389995 0.186267,-0.686858 0.186267,-0.302683 0.506412,-0.471487 0.320146,-0.174625 0.715962,-0.174625 z m 0,0.529696 q -0.227012,0 -0.413279,0.09895 -0.186266,0.09895 -0.296862,0.2794 -0.104775,0.180446 -0.104775,0.42492 0,0.238654 0.104775,0.4191 0.110596,0.174625 0.296862,0.273579 0.186267,0.09895 0.413279,0.09895 0.232833,0 0.4191,-0.09895 0.192087,-0.09895 0.296862,-0.273579 0.104775,-0.180446 0.104775,-0.4191 0,-0.244474 -0.104775,-0.42492 -0.104775,-0.180446 -0.296862,-0.2794 -0.186267,-0.09895 -0.4191,-0.09895 z"
         id="text9-3"
         aria-label="다안" />
    </g>
  </g>
</svg>
