<?xml version="1.0" encoding="UTF-8" standalone="no"?>
<!-- Created with Inkscape (http://www.inkscape.org/) -->

<svg
   width="500"
   height="250"
   viewBox="0 0 132.29166 66.145833"
   version="1.1"
   id="svg1"
   inkscape:version="1.3.2 (091e20e, 2023-11-25, custom)"
   sodipodi:docname="br09_2.svg"
   xmlns:inkscape="http://www.inkscape.org/namespaces/inkscape"
   xmlns:sodipodi="http://sodipodi.sourceforge.net/DTD/sodipodi-0.dtd"
   xmlns="http://www.w3.org/2000/svg"
   xmlns:svg="http://www.w3.org/2000/svg">
  <sodipodi:namedview
     id="namedview1"
     pagecolor="#9e652e"
     bordercolor="#ffffff"
     borderopacity="1"
     inkscape:showpageshadow="0"
     inkscape:pageopacity="0"
     inkscape:pagecheckerboard="false"
     inkscape:deskcolor="#d1d1d1"
     inkscape:document-units="mm"
     inkscape:zoom="2.0208096"
     inkscape:cx="192.49711"
     inkscape:cy="106.88785"
     inkscape:window-width="1920"
     inkscape:window-height="1009"
     inkscape:window-x="1912"
     inkscape:window-y="-8"
     inkscape:window-maximized="1"
     inkscape:current-layer="g4" />
  <defs
     id="defs1">
    <rect
       x="560.66638"
       y="34.144731"
       width="279.32397"
       height="128.59143"
       id="rect6" />
    <rect
       x="157.85752"
       y="62.351248"
       width="329.07603"
       height="135.09437"
       id="rect4" />
    <rect
       x="157.85751"
       y="62.35125"
       width="329.07602"
       height="135.09438"
       id="rect4-5" />
  </defs>
  <g
     inkscape:label="Layer 1"
     inkscape:groupmode="layer"
     id="layer1">
    <rect
       style="fill:#9e652e;fill-opacity:1;stroke:none;stroke-width:0.953294;stroke-dasharray:none"
       id="rect5"
       width="132.29167"
       height="66.145836"
       x="-2.5431316e-06"
       y="-1.2715658e-06"
       ry="0" />
    <g
       id="g4"
       transform="translate(-4.3520962)">
      <g
         id="g1"
         transform="translate(24.116479)">
        <path
           id="rect1"
           style="fill-opacity:0;stroke:#f9f9f9;stroke-width:0.942789"
           d="M 20.265186,14.352791 H 32.69035 c 3.927062,0 7.088559,3.161497 7.088559,7.088559 v 23.263136 c 0,3.927062 -3.161497,7.088559 -7.088559,7.088559 H 20.265186 c -3.927062,0 -7.088559,-3.161497 -7.088559,-7.088559 V 21.44135 c 0,-3.927062 3.161497,-7.088559 7.088559,-7.088559 z" />
        <path
           style="font-size:12.56px;line-height:1.25;font-family:'AR UDJingXiHeiE1G30 EB';-inkscape-font-specification:'AR UDJingXiHeiE1G30 EB';fill:#f9f9f9;stroke-width:0.261667"
           d="m 22.879293,30.522264 h -4.7728 v -9.08088 h 4.37088 q 1.29368,0 2.04728,0.628 0.7536,0.628 0.7536,1.67048 0,0.67824 -0.30144,1.1932 -0.28888,0.5024 -0.8792,0.82896 0.76616,0.30144 1.15552,0.82896 0.40192,0.52752 0.40192,1.256 0,1.20576 -0.79128,1.9468 -0.79128,0.72848 -1.98448,0.72848 z m 0.74104,-6.58144 q 0,-0.61544 -0.35168,-0.92944 -0.35168,-0.32656 -1.01736,-0.32656 h -2.54968 v 2.56224 h 2.6376 q 0.5652,0 0.91688,-0.32656 0.36424,-0.33912 0.36424,-0.97968 z m 0.3768,3.8936 q 0,-0.65312 -0.40192,-0.99224 -0.38936,-0.35168 -1.02992,-0.35168 h -2.86368 v 2.78832 h 2.83856 q 0.66568,0 1.05504,-0.36424 0.40192,-0.36424 0.40192,-1.08016 z m 8.942728,-3.79312 q 0,-0.66568 -0.35168,-1.0048 -0.35168,-0.35168 -1.01736,-0.35168 h -2.72552 v 2.826 h 2.6376 q 0.65312,0 1.05504,-0.38936 0.40192,-0.38936 0.40192,-1.08016 z m -4.09456,2.7004 v 3.78056 h -1.59512 v -9.08088 h 4.62208 q 1.24344,0 1.97192,0.66568 0.74104,0.65312 0.74104,1.85888 0,0.79128 -0.3768,1.35648 -0.36424,0.5652 -0.91688,0.80384 0.70336,0.40192 1.08016,1.39416 0.3768,0.99224 0.47728,3.00184 h -1.65792 q -0.07536,-2.11008 -0.46472,-2.93904 -0.3768,-0.84152 -1.21832,-0.84152 z"
           id="text2"
           aria-label="BR" />
        <path
           style="font-size:14.3917px;line-height:1.25;font-family:'AR UDJingXiHeiE1G30 EB';-inkscape-font-specification:'AR UDJingXiHeiE1G30 EB';fill:#f9f9f9;stroke-width:0.261667"
           d="m 25.844511,39.692779 q 0,2.720031 -0.877894,4.015284 -0.877894,1.295253 -2.720031,1.295253 -1.784571,0 -2.70564,-1.295253 -0.921069,-1.295253 -0.921069,-4.015284 0,-2.907123 0.877894,-4.173593 0.877894,-1.280861 2.748815,-1.280861 1.827745,0 2.705639,1.280861 0.892286,1.26647 0.892286,4.173593 z m -3.597925,3.885759 q 0.921068,0 1.352819,-0.906677 0.431751,-0.921069 0.431751,-2.979082 0,-2.216322 -0.417359,-3.122999 -0.402968,-0.906677 -1.367211,-0.906677 -0.964244,0 -1.381604,0.921069 -0.417359,0.906677 -0.417359,3.108607 0,2.043622 0.431751,2.96469 0.431751,0.921069 1.367212,0.921069 z m 8.447917,-7.915435 q -0.777152,0 -1.252078,0.546885 -0.460534,0.532493 -0.460534,1.52552 0,0.949852 0.431751,1.496737 0.446143,0.546884 1.295253,0.561276 0.805935,0 1.252078,-0.518101 0.460534,-0.532493 0.460534,-1.52552 0,-1.036203 -0.446143,-1.554304 -0.446142,-0.532493 -1.280861,-0.532493 z m 0.02878,7.915435 q 1.007419,0 1.496736,-0.834718 0.489318,-0.834719 0.489318,-2.70564 -0.359792,0.575668 -0.978635,0.877894 -0.604452,0.302225 -1.35282,0.302225 -1.467954,0 -2.345847,-0.949852 -0.877894,-0.964244 -0.877894,-2.475372 0,-1.554304 0.949852,-2.547331 0.964244,-1.007419 2.576115,-1.007419 1.914096,0 2.835164,1.252078 0.921069,1.252078 0.921069,3.713058 0,3.022257 -0.906677,4.418252 -0.906677,1.381603 -2.820773,1.381603 -1.669437,0 -2.504156,-0.820326 -0.834718,-0.834719 -0.84911,-1.986055 h 1.770179 q 0.01439,0.604451 0.417359,0.993027 0.402968,0.388576 1.18012,0.388576 z"
           id="text3"
           aria-label="09" />
        <path
           style="font-weight:500;font-size:72px;line-height:1.25;font-family:'Noto Sans TC';-inkscape-font-specification:'Noto Sans TC Medium';white-space:pre;fill:#f9f9f9"
           d="m 162.17742,94.761406 h 63.648 v 7.056004 h -63.648 z m 35.856,2.808 q 2.304,8.496004 6.192,15.840004 3.96,7.344 9.648,12.888 5.76,5.472 13.32,8.64 -0.864,0.72 -1.872,1.872 -0.936,1.152 -1.8,2.304 -0.864,1.224 -1.44,2.16 -7.992,-3.744 -13.968,-9.864 -5.904,-6.192 -10.008,-14.328 -4.104,-8.136 -6.912,-17.856004 z m -7.92,-22.896 h 7.416 q 0,5.112 -0.288,11.016 -0.216,5.832 -1.08,12.024 -0.864,6.192004 -2.808,12.384004 -1.944,6.192 -5.4,11.952 -3.456,5.76 -8.856,10.728 -5.4,4.896 -13.176,8.568 -0.864,-1.368 -2.304,-3.024 -1.44,-1.584 -2.88,-2.664 7.488,-3.384 12.6,-7.848 5.184,-4.536 8.352,-9.792 3.24,-5.328 4.968,-11.016 1.728,-5.688 2.448,-11.376004 0.72,-5.688 0.864,-11.016 0.144,-5.328 0.144,-9.936 z m 45.936,8.064 h 59.688 v 15.264 h -7.2 v -8.928 h -45.576 v 8.928 h -6.912 z m 41.904,13.968 8.28,0.576 q -1.728,10.944004 -5.184,18.648004 -3.456,7.704 -9.072,12.816 -5.616,5.04 -13.752,8.064 -8.136,3.096 -19.152,4.824 -0.36,-0.864 -1.152,-2.16 -0.72,-1.296 -1.584,-2.52 -0.864,-1.224 -1.584,-2.088 10.728,-1.224 18.432,-3.744 7.704,-2.52 12.816,-6.84 5.112,-4.392 7.992,-11.088 2.88,-6.768 3.96,-16.488004 z m -43.488,6.840004 h 63 v 6.48 h -63 z m 24.912,-27.648004 7.488,-1.8 q 1.296,2.376 2.664,5.256 1.368,2.808 2.088,4.752 l -7.848,2.088 q -0.648,-1.944 -1.944,-4.896 -1.224,-2.952 -2.448,-5.4 z m -16.272,43.848004 4.464,-5.04 q 6.12,1.8 12.888,4.248 6.84,2.448 13.536,5.256 6.768,2.808 12.672,5.76 5.904,2.88 10.152,5.544 l -5.112,5.976 q -3.96,-2.664 -9.648,-5.616 -5.616,-2.952 -12.312,-5.904 -6.624,-3.024 -13.536,-5.616 -6.84,-2.664 -13.104,-4.608 z m 0,0 q 1.944,-2.664 4.104,-6.048 2.232,-3.456 4.248,-7.2 2.088,-3.816 3.888,-7.632004 1.8,-3.816 3.096,-7.344 l 7.848,1.44 q -1.368,3.6 -3.168,7.344004 -1.8,3.744 -3.816,7.416 -2.016,3.6 -3.96,6.84 -1.944,3.24 -3.672,5.76 z"
           id="text4"
           transform="matrix(0.26166763,0,0,0.26166763,2.2205965,-4.0633201)"
           aria-label="大安" />
        <path
           style="font-size:7.32669px;line-height:1.25;font-family:'AR UDJingXiHeiE1G30 EB';-inkscape-font-specification:'AR UDJingXiHeiE1G30 EB';fill:#f9f9f9;stroke-width:0.261667"
           d="m 49.257286,38.175543 q 0,1.318805 -0.622769,2.01484 -0.615442,0.696036 -1.721772,0.696036 h -2.168701 v -5.297197 h 2.168701 q 1.10633,0 1.721772,0.652075 0.622769,0.652076 0.622769,1.934246 z m -0.967124,0 q 0,-0.959796 -0.395641,-1.406724 -0.388314,-0.454255 -1.135637,-0.454255 h -1.08435 v 3.846512 h 1.091677 q 0.718016,0 1.120983,-0.476234 0.402968,-0.476235 0.402968,-1.509299 z m 4.806303,0.571482 -0.835243,-2.263947 -0.849896,2.263947 z m -1.956226,0.725343 -0.527522,1.414051 h -0.945143 l 2.132067,-5.297197 h 0.95247 l 2.117413,5.297197 h -0.967123 l -0.534849,-1.414051 z m 7.158169,-0.725343 -0.835242,-2.263947 -0.849896,2.263947 z m -1.956226,0.725343 -0.527522,1.414051 h -0.945143 l 2.132067,-5.297197 h 0.95247 l 2.117413,5.297197 h -0.967123 l -0.534848,-1.414051 z m 5.267884,-2.410482 v 3.824533 h -0.93049 v -5.297197 h 0.959796 l 2.600975,3.912452 v -3.912452 h 0.93049 v 5.297197 h -1.01841 z"
           id="text5"
           aria-label="DAAN" />
        <path
           d="m 44.446044,45.454197 h 6.476795 v 0.718015 h -6.476795 z m 3.648692,0.285741 q 0.234454,0.864549 0.630096,1.611872 0.402967,0.747322 0.981776,1.311477 0.586135,0.556829 1.355438,0.879203 -0.08792,0.07327 -0.190494,0.190494 -0.09525,0.117227 -0.183168,0.234454 -0.08792,0.124554 -0.146533,0.219801 -0.813263,-0.380988 -1.421378,-1.003757 -0.600789,-0.630095 -1.01841,-1.458011 -0.417621,-0.827916 -0.703362,-1.817019 z M 47.2888,43.41005 h 0.754649 q 0,0.520195 -0.02931,1.120984 -0.02198,0.593462 -0.109901,1.223557 -0.08792,0.630095 -0.285741,1.260191 -0.19782,0.630095 -0.549501,1.21623 -0.351682,0.586136 -0.901183,1.091677 -0.549502,0.498215 -1.340785,0.871876 -0.08792,-0.139207 -0.234454,-0.307721 -0.146534,-0.161187 -0.293067,-0.271087 0.761975,-0.344355 1.28217,-0.798609 0.527522,-0.461582 0.849896,-0.99643 0.329702,-0.542175 0.505542,-1.120984 0.175841,-0.578808 0.249108,-1.157617 0.07327,-0.578809 0.08792,-1.120984 0.01465,-0.542175 0.01465,-1.011083 z m 7.319364,-0.0073 h 0.739995 v 1.252865 h -0.739995 z m -2.681569,0.725343 h 6.1764 v 1.648505 h -0.732669 v -0.99643 h -4.740369 v 0.99643 h -0.703362 z m 2.403155,0.908509 0.725342,0.153861 q -0.205147,0.439601 -0.439602,0.908509 -0.234454,0.468909 -0.483561,0.945144 -0.241781,0.476234 -0.476235,0.901182 -0.234454,0.424948 -0.424948,0.761976 l -0.725342,-0.190494 q 0.205147,-0.337028 0.439601,-0.761976 0.241781,-0.424948 0.483562,-0.893856 0.249107,-0.476235 0.483561,-0.945143 0.234454,-0.468908 0.417622,-0.879203 z m 1.904939,1.589892 0.769302,0.109901 q -0.227127,0.849896 -0.637422,1.450684 -0.410294,0.593462 -0.996429,0.99643 -0.578809,0.395641 -1.348111,0.637422 -0.769303,0.249108 -1.714446,0.395641 -0.02931,-0.08792 -0.102574,-0.205147 -0.07327,-0.1099 -0.15386,-0.227127 -0.07327,-0.117227 -0.146534,-0.197821 1.230884,-0.139207 2.117414,-0.454255 0.886529,-0.322374 1.436031,-0.923163 0.556828,-0.600788 0.776629,-1.582565 z m -4.491261,-0.446928 h 6.520754 v 0.659402 h -6.520754 z m 1.238211,2.12474 0.490888,-0.490888 q 0.556828,0.15386 1.17227,0.373661 0.622769,0.212474 1.230884,0.461582 0.608115,0.24178 1.142964,0.498215 0.534848,0.256434 0.915836,0.498215 l -0.534848,0.564155 Q 57.040625,49.974765 56.527757,49.711004 56.014888,49.447243 55.406773,49.190809 54.805984,48.927048 54.175889,48.69992 53.55312,48.472793 52.981639,48.304279 Z"
           id="text5-9"
           style="font-weight:500;font-size:7.32669px;line-height:1.25;font-family:'Noto Sans JP';-inkscape-font-specification:'Noto Sans JP Medium';fill:#f9f9f9;stroke-width:0.261667"
           aria-label="大安" />
        <path
           style="font-weight:500;font-size:7.32669px;line-height:1.25;font-family:'Noto Sans KR';-inkscape-font-specification:'Noto Sans KR Medium';fill:#f9f9f9;stroke-width:0.261667"
           d="m 69.896166,43.584846 h 0.769302 v 6.711249 h -0.769302 z m 0.600788,2.571669 h 1.208904 v 0.637422 h -1.208904 z m -4.747695,1.853652 h 0.542175 q 0.600789,0 1.10633,-0.01465 0.505542,-0.02198 0.981777,-0.06594 0.476235,-0.05129 0.967123,-0.139207 l 0.08059,0.637422 q -0.505542,0.09525 -0.99643,0.146533 -0.483562,0.04396 -1.011084,0.06594 -0.520195,0.01465 -1.12831,0.01465 h -0.542175 z m 0,-3.787899 h 3.113843 v 0.622769 h -2.351867 v 3.465525 h -0.761976 z m 10.931423,-0.637422 h 0.761975 v 4.908883 h -0.761975 z m 0.534848,1.985533 h 1.17227 v 0.637422 h -1.17227 z m -4.0077,3.956413 h 4.513242 v 0.622769 H 73.20783 Z m 0,-1.538605 h 0.769303 V 49.79788 H 73.20783 Z m 0.871877,-3.949086 q 0.505541,0 0.908509,0.219801 0.402968,0.212474 0.637422,0.593462 0.234454,0.373661 0.234454,0.864549 0,0.483562 -0.234454,0.86455 -0.234454,0.373661 -0.637422,0.593462 -0.402968,0.212474 -0.908509,0.212474 -0.498215,0 -0.901183,-0.212474 -0.402968,-0.219801 -0.637422,-0.593462 -0.234454,-0.380988 -0.234454,-0.86455 0,-0.490888 0.234454,-0.864549 0.234454,-0.380988 0.637422,-0.593462 0.402968,-0.219801 0.901183,-0.219801 z m 0,0.666729 q -0.285741,0 -0.520195,0.124554 -0.234454,0.124553 -0.373662,0.351681 -0.13188,0.227127 -0.13188,0.534848 0,0.300395 0.13188,0.527522 0.139208,0.219801 0.373662,0.344354 0.234454,0.124554 0.520195,0.124554 0.293067,0 0.527521,-0.124554 0.241781,-0.124553 0.373662,-0.344354 0.13188,-0.227127 0.13188,-0.527522 0,-0.307721 -0.13188,-0.534848 -0.131881,-0.227128 -0.373662,-0.351681 -0.234454,-0.124554 -0.527521,-0.124554 z"
           id="text5-9-8"
           aria-label="다안" />
      </g>
      <text
         xml:space="preserve"
         transform="matrix(0.31615295,0,0,0.31615295,-6.1222449,-6.4462013)"
         id="text6"
         style="font-size:55px;line-height:1.25;font-family:'Microsoft JhengHei';-inkscape-font-specification:'Microsoft JhengHei';white-space:pre;shape-inside:url(#rect6);display:inline" />
    </g>
  </g>
</svg>
