<?xml version="1.0" encoding="UTF-8" standalone="no"?>
<!-- Created with Inkscape (http://www.inkscape.org/) -->

<svg
   width="500"
   height="250"
   viewBox="0 0 132.29166 66.145833"
   version="1.1"
   id="svg1"
   inkscape:version="1.3.2 (091e20e, 2023-11-25, custom)"
   sodipodi:docname="br10.svg"
   xmlns:inkscape="http://www.inkscape.org/namespaces/inkscape"
   xmlns:sodipodi="http://sodipodi.sourceforge.net/DTD/sodipodi-0.dtd"
   xmlns="http://www.w3.org/2000/svg"
   xmlns:svg="http://www.w3.org/2000/svg">
  <sodipodi:namedview
     id="namedview1"
     pagecolor="#9e652e"
     bordercolor="#ffffff"
     borderopacity="1"
     inkscape:showpageshadow="0"
     inkscape:pageopacity="0"
     inkscape:pagecheckerboard="false"
     inkscape:deskcolor="#d1d1d1"
     inkscape:document-units="mm"
     inkscape:zoom="2.0208096"
     inkscape:cx="179.63098"
     inkscape:cy="156.86782"
     inkscape:window-width="1920"
     inkscape:window-height="1009"
     inkscape:window-x="1912"
     inkscape:window-y="-8"
     inkscape:window-maximized="1"
     inkscape:current-layer="g10" />
  <defs
     id="defs1">
    <rect
       x="157.85752"
       y="62.351248"
       width="329.07603"
       height="135.09437"
       id="rect4" />
  </defs>
  <g
     inkscape:label="Layer 1"
     inkscape:groupmode="layer"
     id="layer1">
    <rect
       style="fill:#9e652e;fill-opacity:1;stroke:none;stroke-width:0.953294;stroke-dasharray:none"
       id="rect5"
       width="132.29167"
       height="66.145836"
       x="-2.5431316e-06"
       y="-1.2715658e-06"
       ry="0" />
    <g
       id="g10"
       transform="matrix(0.89362912,0,0,0.89362912,-2.0257029,3.8690026)">
      <path
         id="rect6"
         style="fill:#9e652e;stroke:#ffffff;stroke-width:0.575409"
         d="m 9.6812866,24.650414 h 5.7010484 c 1.810114,0 3.267355,1.45724 3.267355,3.267354 v 9.52472 c 0,1.810114 -1.457241,3.267355 -3.267355,3.267355 H 9.6812866 c -1.8101145,0 -3.2673548,-1.457241 -3.2673548,-3.267355 v -9.52472 c 0,-1.810114 1.4572403,-3.267354 3.2673548,-3.267354 z" />
      <path
         style="font-weight:bold;font-size:5.82083px;line-height:1.25;font-family:'Optima Bold';-inkscape-font-specification:'Optima Bold,  Bold';fill:#f9f9f9;stroke-width:0.264583"
         d="m 9.0655057,31.750372 v -3.987269 h 0.2328332 1.3795371 q 0.01164,0.01164 0.02328,0.01164 0.01746,0 0.0291,0 0.01164,0 0.02328,0 0.01746,0 0.0291,0 0.186266,0.0058 0.35507,0.05239 0.168804,0.04075 0.325967,0.122237 0.157162,0.07567 0.232833,0.232833 0.08149,0.151342 0.08149,0.384175 v 0.01746 0.01746 0.02328 0.01746 q 0,0.174625 -0.06403,0.331787 -0.06403,0.151342 -0.186266,0.291042 -0.122238,0.139699 -0.2794,0.227012 -0.157162,0.08149 -0.343429,0.116417 0.203729,0.03493 0.384175,0.09895 0.180445,0.06403 0.325966,0.157162 0.151342,0.09313 0.221192,0.273579 0.07567,0.174625 0.07567,0.430741 0,0.308504 -0.104775,0.535517 -0.09895,0.221191 -0.302684,0.35507 -0.197908,0.1397 -0.42492,0.215371 -0.221192,0.06985 -0.465667,0.07567 h -0.232833 q -0.0058,0 -0.01746,0 -0.0058,0 -0.01164,0 -0.01164,0 -0.01746,0 -0.0058,0 -0.01746,0 -0.01746,0 -0.03492,0 -0.01164,0 -0.02328,0 H 9.0655057 v 0 z M 9.8047511,31.52336 h 0.3201459 q 0.203729,0.01164 0.360891,-0.03493 0.162983,-0.05239 0.291042,-0.151342 0.122237,-0.09895 0.203729,-0.203729 0.08149,-0.110596 0.122237,-0.232833 0,-0.01164 0,-0.02328 0.0058,-0.01164 0.01164,-0.0291 0,-0.01164 0,-0.02328 0.0058,-0.01164 0.0058,-0.02328 0.0058,-0.02328 0.0058,-0.04657 0.0058,-0.02328 0.0058,-0.04657 0,-0.291041 -0.09313,-0.483128 -0.08731,-0.197909 -0.273579,-0.291042 -0.157162,-0.08149 -0.395816,-0.128058 -0.238654,-0.04657 -0.5646209,-0.05239 v 1.769533 z m 0,-2.019828 h 0.1338791 q 0.2561168,0.01164 0.4540248,-0.03493 0.197908,-0.05239 0.337608,-0.151342 0.133879,-0.09895 0.20955,-0.244475 0.08149,-0.145521 0.09895,-0.337608 v -0.02328 l 0.0058,-0.01746 v -0.01164 -0.01746 q 0,-0.162983 -0.06985,-0.291041 -0.06985,-0.128059 -0.20955,-0.20955 -0.1397,-0.08149 -0.302683,-0.122238 -0.157162,-0.04075 -0.337608,-0.04075 l -0.3201459,-0.01164 v 1.513416 z m 3.0268279,2.24684 v -4.033835 h 0.232833 1.420282 q 0.291042,0.01164 0.506413,0.08149 0.221191,0.06985 0.360891,0.203729 0.1397,0.1397 0.20955,0.314325 0.06985,0.168804 0.06985,0.372533 0,0.197909 -0.05821,0.360892 -0.05239,0.157162 -0.168805,0.273579 -0.110595,0.116416 -0.238654,0.203729 -0.122237,0.08731 -0.256116,0.1397 -0.06403,0.02328 -0.128058,0.04657 -0.05821,0.02328 -0.122238,0.03493 -0.05821,0.01746 -0.116416,0.02911 -0.05821,0.0058 -0.104775,0.01164 l 1.559982,1.96162 h -0.232833 q -0.02328,0 -0.04657,0 -0.01746,0 -0.04075,-0.0058 -0.02328,0 -0.04657,0 -0.01746,-0.0058 -0.03493,-0.01164 -0.01746,0 -0.03492,0 -0.01164,0 -0.02328,0 -0.0058,0 -0.01164,0 -0.0058,0 -0.01746,0 -0.0058,0.0058 -0.01164,0.0058 -0.0058,0 -0.01746,0 -0.04075,0.0058 -0.08731,0.01164 -0.04075,0 -0.08731,0 H 15.072598 L 13.61157,29.881886 v 1.868486 h -0.232833 q -0.01746,0 -0.03492,0 -0.01746,0 -0.03492,-0.0058 -0.0058,0 -0.01746,0 -0.0058,0 -0.01164,-0.0058 -0.01164,0 -0.01746,0 -0.0058,-0.0058 -0.01746,-0.0058 -0.0058,0 -0.01164,0 -0.0058,0 -0.0058,0 -0.0058,0.0058 -0.01164,0.0058 -0.0058,0 -0.01164,0 -0.03492,0.0058 -0.06985,0.01164 -0.03492,0 -0.06985,0 h -0.232833 v 0 z m 0.779991,-2.153707 q 0.01164,0.01164 0.0291,0.01746 0.01746,0 0.03492,0 0.221192,-0.0058 0.395816,-0.04075 0.174625,-0.03492 0.291042,-0.104775 0.133879,-0.07567 0.221191,-0.157163 0.09313,-0.08731 0.145521,-0.180446 0.04075,-0.06403 0.06403,-0.128058 0.0291,-0.06985 0.03492,-0.128058 0.01164,-0.06403 0.01164,-0.110596 0.0058,-0.04657 0.0058,-0.07567 0,-0.0291 -0.0058,-0.06403 -0.0058,-0.03493 -0.01746,-0.08149 -0.0058,-0.04657 -0.0291,-0.09313 -0.02328,-0.04657 -0.05239,-0.09895 -0.04075,-0.07567 -0.116417,-0.14552 -0.07567,-0.06985 -0.174625,-0.128059 -0.09895,-0.06403 -0.238654,-0.09313 -0.1397,-0.0291 -0.325966,-0.0291 l -0.273579,-0.01164 v 1.653116 0 z"
         id="text6"
         aria-label="BR" />
      <path
         style="font-weight:bold;font-size:5.82083px;line-height:1.25;font-family:'Optima Bold';-inkscape-font-specification:'Optima Bold,  Bold';fill:#f9f9f9;stroke-width:0.264583"
         d="m 9.7319893,34.079986 q 0.1688041,-0.07567 0.3317877,-0.151342 0.168804,-0.07567 0.331787,-0.151341 0.162983,-0.06985 0.291041,-0.1397 0.133879,-0.06985 0.238654,-0.1397 l 0.232834,-0.0058 0.1397,0.04075 v 3.987268 h -0.232834 q -0.03492,-0.0058 -0.06403,-0.01746 -0.0291,-0.0058 -0.05821,-0.01164 -0.03492,0.0058 -0.06985,0.01164 -0.03492,0.01164 -0.08149,0.01746 h -0.232833 v -3.44011 l -0.407458,0.232833 H 9.9182559 q -0.00582,0 -0.017463,-0.0058 -0.00582,-0.01164 -0.017462,-0.0291 -0.00582,-0.01164 -0.011642,-0.01746 -0.00582,-0.01164 -0.00582,-0.01746 -0.00582,-0.01164 -0.011642,-0.01746 -0.00582,-0.01164 -0.011642,-0.01746 -0.00582,-0.01164 -0.011642,-0.01746 -0.00582,-0.0058 -0.011642,-0.01746 -0.011642,-0.0058 -0.017463,-0.01164 -0.00582,-0.01164 -0.011642,-0.01746 -0.011642,-0.01746 -0.029104,-0.0291 -0.011642,-0.01746 -0.029104,-0.02328 v -0.01164 z m 3.1199697,1.513416 q 0,-0.0058 0,-0.01164 0,-0.01164 0,-0.0291 0,-0.01164 0,-0.0291 0.0058,-0.01746 0.01164,-0.03493 0,-0.07567 0.0058,-0.168804 0.01164,-0.09895 0.01746,-0.215371 0.01164,-0.116417 0.0291,-0.238654 0.02328,-0.128058 0.05821,-0.256116 0.05239,-0.20373 0.151341,-0.384175 0.09896,-0.186267 0.244475,-0.34925 0.1397,-0.168804 0.366713,-0.250296 0.227012,-0.08149 0.535516,-0.08149 l 0.232833,-0.0058 q 0.285221,0.0058 0.494771,0.09313 0.20955,0.08149 0.349249,0.250296 0.1397,0.168804 0.232834,0.35507 0.09895,0.180446 0.151341,0.384175 0.04075,0.151342 0.06403,0.296863 0.02328,0.14552 0.0291,0.279399 0.0058,0.1397 0.0058,0.244475 0.0058,0.09895 0.0058,0.162983 0,0.06985 -0.01164,0.168804 -0.0058,0.09313 -0.01746,0.215371 -0.01164,0.122238 -0.04075,0.250296 -0.02328,0.128058 -0.06403,0.261937 -0.05821,0.192088 -0.162983,0.372533 -0.09895,0.174625 -0.238654,0.331788 -0.1397,0.162983 -0.34925,0.238654 -0.203729,0.07567 -0.477308,0.07567 h -0.232833 -0.01746 -0.01164 -0.01746 -0.01164 q -0.349249,0 -0.599545,-0.128058 -0.244475,-0.128058 -0.395816,-0.395816 -0.145521,-0.261938 -0.232834,-0.552979 -0.08149,-0.296862 -0.09895,-0.617008 0,-0.01164 0,-0.02328 0,-0.01746 0,-0.03493 -0.0058,-0.01164 -0.0058,-0.02328 0,-0.01746 0,-0.0291 0,-0.01164 0,-0.02328 0,-0.01746 0,-0.03492 0,-0.01164 0,-0.02328 0,-0.01746 0,-0.02911 v -0.01164 z m 0.739246,0.09895 q 0,0.07567 0,0.151341 0.0058,0.07567 0.01164,0.157163 0,0.04075 0.0058,0.08731 0.0058,0.04075 0.01164,0.08149 0.0058,0.04657 0.01164,0.08731 0.01164,0.04075 0.01746,0.08731 0.03493,0.180446 0.09895,0.34925 0.06403,0.162983 0.157163,0.314324 0.08149,0.128059 0.186266,0.197909 0.110596,0.06985 0.256117,0.09313 0.180445,-0.02328 0.302683,-0.110596 0.128058,-0.09313 0.203729,-0.250296 0.08731,-0.186266 0.1397,-0.384174 0.05821,-0.203729 0.08149,-0.4191 0.0058,-0.04075 0.0058,-0.08149 0.0058,-0.04075 0.0058,-0.08149 0.0058,-0.03493 0.0058,-0.07567 0,-0.04075 0,-0.08149 0,-0.04075 0,-0.07567 0,-0.04075 0.0058,-0.08149 0,-0.03493 0,-0.06985 0,-0.04075 0,-0.07567 0,-0.378354 -0.05821,-0.692679 -0.05239,-0.314324 -0.157162,-0.558799 -0.09313,-0.215371 -0.221191,-0.331788 -0.122238,-0.122237 -0.2794,-0.151341 -0.256117,0.03492 -0.4191,0.192087 -0.162983,0.151342 -0.227012,0.424921 -0.07567,0.291041 -0.110596,0.617008 -0.03492,0.325966 -0.03492,0.686858 z"
         id="text6-8"
         aria-label="10" />
      <path
         style="font-weight:bold;font-size:14.8167px;line-height:1.25;font-family:'Noto Serif TC';-inkscape-font-specification:'Noto Serif TC Bold';fill:#ffffff;stroke-width:0.264583"
         d="m 24.767221,34.443301 c 0.01482,1.081619 -0.666751,2.000254 -1.303869,2.341038 -0.459318,0.237068 -0.740835,0.637119 -0.563035,1.12607 0.207434,0.548218 0.889002,0.637118 1.407587,0.31115 0.770468,-0.474134 1.39277,-1.807637 0.666751,-3.763441 z m 3.941243,-5.985947 v 2.667006 h -2.65219 v -2.667006 z m 4.44501,0 v 2.667006 h -2.69664 v -2.667006 z m -4.44501,3.09669 v 2.192872 h 0.281517 c 0.681568,0 1.466853,-0.370418 1.466853,-0.548218 v -1.644654 h 2.69664 v 0.918636 h 0.296334 c 0.563034,0 1.43722,-0.296334 1.452036,-0.385234 v -3.348575 c 0.311151,-0.05927 0.503768,-0.192617 0.592668,-0.31115 l -1.689104,-1.25942 -0.800101,0.859369 h -2.548473 v -1.674287 c 0.400051,-0.04445 0.518585,-0.207434 0.548218,-0.414868 l -2.296588,-0.207434 v 2.296589 h -2.518839 l -1.852088,-0.711202 v 5.437729 h 0.251884 c 0.696385,0 1.466853,-0.370417 1.466853,-0.533401 v -0.666752 z m 0.251884,2.415122 c 0.563034,0.651935 1.155702,1.659471 1.229786,2.578106 1.466853,1.126069 2.859623,-1.837271 -1.111253,-2.667006 z m 4.207942,1.615021 h -0.162983 c -0.296334,0.903818 -0.548218,1.52612 -0.711202,1.778004 -0.118534,0.148167 -0.192617,0.192617 -0.444501,0.207434 -0.251884,0.01482 -0.844552,0.02963 -1.48167,0.02963 H 28.54548 c -0.577851,0 -0.651935,-0.05927 -0.651935,-0.296334 v -2.78554 c 0.296334,-0.04445 0.429684,-0.1778 0.459318,-0.370417 L 26.145175,33.95435 v 3.704175 c 0,1.185336 0.40005,1.466853 2.103971,1.466853 h 1.926171 c 2.978157,0 3.689358,-0.251884 3.689358,-1.022352 0,-0.311151 -0.118533,-0.503768 -0.651935,-0.681568 z m -0.0889,-1.111253 c 0.785285,0.859369 1.496487,2.237322 1.585387,3.422658 1.674287,1.363136 3.185591,-2.207688 -1.452037,-3.526375 z m 11.068075,-3.985692 v -2.118788 h 2.696639 c -0.726018,0.711201 -1.540936,1.422403 -2.415122,2.118788 z m 4.53391,4.800611 h -3.170774 v -0.859369 c 0.325968,-0.04445 0.459318,-0.148167 0.503768,-0.370417 h -0.02963 c 0.933452,-0.296334 1.970621,-0.711202 2.622556,-1.096436 0.325967,-0.01482 0.488951,-0.04445 0.622301,-0.162984 l -1.52612,-1.43722 -0.889002,0.874186 h -2.889256 c 0.755651,-0.414868 1.48167,-0.859369 2.148421,-1.318687 h 4.756161 c 0.207434,0 0.370417,-0.07408 0.414867,-0.237067 -0.651934,-0.577851 -1.689103,-1.39277 -1.689103,-1.39277 l -0.933453,1.200153 h -1.926171 c 1.25942,-0.903819 2.326222,-1.837271 3.185591,-2.74109 0.340784,0.118534 0.518584,0.07408 0.637118,-0.07408 l -1.807637,-1.422403 c -0.385235,0.518584 -0.844552,1.051985 -1.363137,1.600203 -0.577851,-0.518584 -1.303869,-1.066802 -1.303869,-1.066802 l -0.903819,1.155703 h -0.992719 v -1.659471 c 0.355601,-0.05927 0.459318,-0.192617 0.488951,-0.385234 l -2.222505,-0.192617 v 2.237322 h -3.763442 l 0.118534,0.429684 h 3.644908 v 2.118788 H 37.4355 l 0.118534,0.429684 h 6.311914 c -0.607485,0.459318 -1.244603,0.889002 -1.911355,1.318687 h -1.70392 l 0.13335,0.429684 h 0.889002 c -1.274236,0.770468 -2.607739,1.452036 -3.985692,2.015071 l 0.0889,0.207434 c 2.059521,-0.548218 3.985692,-1.318686 5.734063,-2.222505 h 3.526375 c -0.385235,0.444501 -0.903819,0.948269 -1.34832,1.333503 l -1.52612,-0.13335 v 1.422403 h -5.719246 l 0.118533,0.414867 h 5.600713 v 1.852088 c 0,0.1778 -0.05927,0.251884 -0.281517,0.251884 -0.325968,0 -1.970622,-0.118534 -1.970622,-0.118534 v 0.207434 c 0.770469,0.118534 1.096436,0.311151 1.34832,0.548218 0.237067,0.2667 0.311151,0.637118 0.355601,1.155702 2.015071,-0.162983 2.296588,-0.800101 2.296588,-1.985437 V 35.70272 h 5.348829 c 0.222251,0 0.370418,-0.07408 0.400051,-0.237067 C 50.63718,34.902619 49.600011,34.0877 49.600011,34.0877 Z m 6.652699,-9.541955 c -0.592668,1.185336 -1.896538,3.00779 -3.126324,4.178309 l 0.118533,0.148167 c 1.733554,-0.755651 3.407841,-1.955804 4.459827,-2.933706 0.340784,0.05927 0.474135,-0.02963 0.563035,-0.177801 z m 7.49725,8.993737 c -0.385234,0.755652 -0.918636,1.422403 -1.57057,2.029888 -0.785286,-0.311151 -1.511304,-0.696385 -2.148422,-1.155703 0.281517,-0.281517 0.563035,-0.577851 0.814919,-0.874185 z m 0.533401,-5.274745 v 1.214969 H 59.57165 V 29.46489 Z m -3.793075,2.904073 v -1.25942 h 3.793075 v 1.25942 z m 4.267209,1.081619 -0.977902,0.859369 h -2.592922 c 0.192617,-0.251884 0.370417,-0.518585 0.533401,-0.755652 0.385234,0.01482 0.503768,-0.04445 0.563034,-0.207434 l -1.79282,-0.414868 v -0.01482 -0.133351 h 3.793075 v 0.459318 h 0.266701 c 0.548217,0 1.333503,-0.340784 1.348319,-0.444501 v -3.081873 c 0.281518,-0.05927 0.503768,-0.192618 0.592668,-0.296334 L 63.97221,28.20547 63.216558,29.035205 H 59.66055 l -0.681568,-0.2667 c 0.1778,-0.296334 0.355601,-0.592668 0.518584,-0.903819 h 6.237831 c 0.192617,0 0.355601,-0.07408 0.400051,-0.237067 -0.637118,-0.592668 -1.703921,-1.43722 -1.703921,-1.43722 l -0.933452,1.244603 h -3.778258 c 0.118533,-0.251884 0.237067,-0.518585 0.355601,-0.800102 0.325967,0 0.518584,-0.118534 0.577851,-0.311151 L 58.35668,25.701448 c -0.22225,1.422403 -0.622301,2.904073 -1.111252,4.104226 l -1.822454,-1.007536 c -0.607485,1.52612 -1.940988,3.837525 -3.318941,5.348829 l 0.148167,0.148167 c 0.696385,-0.400051 1.377953,-0.874185 2.000254,-1.39277 v 6.756415 h 0.311151 c 0.726018,0 1.377953,-0.429684 1.377953,-0.592668 v -6.978665 c 0.281518,-0.04445 0.414868,-0.148167 0.459318,-0.266701 l -0.696385,-0.251884 c 0.488951,-0.488951 0.903819,-0.977902 1.244603,-1.422403 0.05927,0 0.103717,0.01482 0.162984,0.01482 -0.118534,0.281517 -0.237068,0.533401 -0.355601,0.770468 l 0.192617,0.118534 c 0.340784,-0.281518 0.696385,-0.607485 1.022352,-0.977903 v 3.348575 h 0.222251 c 0.296334,0 0.592668,-0.07408 0.844552,-0.162984 -0.192618,0.548218 -0.459318,1.126069 -0.755652,1.674287 -0.370418,-0.370418 -0.696385,-0.770468 -0.948269,-1.229786 l -0.192617,0.13335 c 0.237067,0.592668 0.518584,1.126069 0.844552,1.61502 -0.400051,0.666752 -0.859369,1.274237 -1.30387,1.718738 l 0.133351,0.13335 c 0.577851,-0.296334 1.155702,-0.696385 1.70392,-1.140886 0.474134,0.563035 1.007536,1.051986 1.61502,1.48167 -1.140886,0.755652 -2.504022,1.363136 -4.044959,1.778004 l 0.0889,0.222251 c 1.881721,-0.251884 3.526375,-0.726019 4.904328,-1.407587 1.081619,0.607485 2.341039,1.051986 3.718992,1.377953 0.192617,-0.814918 0.666751,-1.363136 1.377953,-1.540937 l 0.01482,-0.162983 c -1.200153,-0.133351 -2.385489,-0.340784 -3.511558,-0.666752 0.829735,-0.622301 1.511303,-1.363136 2.044704,-2.222505 0.355601,-0.01482 0.518585,-0.07408 0.622302,-0.207434 z m 3.200408,6.14893 c 2.163238,-0.444501 4.296843,-1.303869 5.541445,-2.192871 0.488951,0.05927 0.755652,-0.02963 0.859369,-0.207434 l -2.252138,-1.200153 c -0.800102,1.111253 -2.533656,2.578106 -4.22276,3.437475 z m 8.297352,-3.00779 c 1.807637,0.800102 2.904073,1.866905 3.467107,2.667006 1.48167,1.452037 4.519094,-2.029888 -3.393024,-2.844806 z m -1.111253,-6.000763 v 2.444755 h -0.563035 v -2.444755 z m -0.563035,2.87444 h 0.563035 v 0.666751 h 0.13335 c 0.281518,0 0.726019,-0.207434 0.726019,-0.311151 v -3.200407 c 0.1778,-0.02963 0.325967,-0.118533 0.385234,-0.192617 L 74.56615,29.73159 74.121649,30.161275 h -0.400051 l -0.889002,-0.400051 v 4.637627 h 0.118534 c 0.355601,0 0.711201,-0.192617 0.711201,-0.266701 z m -3.881975,-0.503768 h 1.155703 c 0.07408,0 0.13335,-0.01482 0.1778,-0.02963 v 2.533656 h -1.274236 z m 1.333503,-5.97113 v 2.652189 c -0.311151,-0.385234 -0.755652,-0.844552 -0.755652,-0.844552 l -0.503767,0.859369 h -0.148167 l -0.04445,-2.252139 c 0.548218,-0.13335 1.08162,-0.31115 1.39277,-0.444501 z m -1.39277,3.081873 h 1.185336 c 0.07408,0 0.148167,-0.01482 0.207434,-0.04445 v 2.459572 C 70.787892,32.102262 70.373024,31.657761 70.373024,31.657761 L 69.85444,32.56158 h -0.07408 z m 5.808147,-2.904073 v 1.511304 c -0.400051,-0.400051 -0.977903,-0.874186 -0.977903,-0.874186 l -0.577851,0.755652 h -1.39277 l 0.118534,0.429684 h 2.518839 c 0.13335,0 0.237067,-0.02963 0.311151,-0.103717 v 6.578615 h -3.141141 v -8.297352 z m 1.674287,0.02963 h 0.977902 l -0.04445,2.459572 h -1.081619 l 0.13335,0.414867 h 0.933452 l -0.05927,2.489206 h -1.066802 l 0.13335,0.400051 h 0.933452 l -0.05927,2.504022 h -1.185336 v -8.164002 c 0.148167,-0.04445 0.281517,-0.103716 0.370417,-0.162983 z m 2.296588,8.119551 0.162984,-7.897301 c 0.311151,-0.04445 0.444501,-0.103717 0.563035,-0.22225 l -1.511304,-1.25942 -0.666751,0.829735 h -0.977903 l 0.04445,0.162984 -1.08162,-0.844552 -0.637118,0.651935 h -2.933706 l -1.34832,-0.548218 v 0.370417 L 70.16559,25.656998 c -0.162983,0.2667 -0.503768,0.785285 -0.829735,1.229786 l -1.140886,-0.355601 0.192617,8.93447 H 66.93555 l 0.13335,0.414868 h 13.794348 c 0.207433,0 0.340784,-0.07408 0.385234,-0.237067 -0.414868,-0.488952 -1.185336,-1.21497 -1.185336,-1.21497 z"
         id="text7"
         aria-label="忠孝復興" />
      <path
         style="font-weight:bold;font-size:5.82083px;line-height:1.25;font-family:'Optima Bold';-inkscape-font-specification:'Optima Bold,  Bold';fill:#f9f9f9;stroke-width:0.264583"
         d="m 84.355324,28.437582 h 3.119965 v 0.1397 q -0.308504,0.424921 -0.622829,0.849841 -0.314325,0.424921 -0.628649,0.861483 -0.314325,0.436562 -0.646113,0.908049 -0.325966,0.465667 -0.669395,0.966258 0.291041,0 0.576262,-0.0058 0.285221,-0.0058 0.564621,-0.01164 0.325966,-0.01164 0.611187,-0.04075 0.28522,-0.0291 0.535516,-0.08149 l 0.232833,-0.0058 q -0.0058,0.04075 -0.01746,0.06985 -0.0058,0.0291 -0.01164,0.05821 -0.0058,0.02328 -0.0058,0.05239 0,0.02328 0,0.04657 v 0.0291 l 0.0058,0.0291 q 0,0.01164 0,0.02328 0,0.0058 0,0.01164 0,0.01164 0,0.01746 0.0058,0.0058 0.0058,0.01746 0.0058,0.01746 0.01164,0.03492 0.0058,0.01164 0.01164,0.01746 h -0.232833 -3.30041 v -0.180445 l 2.514598,-3.527423 q -0.261937,0.01164 -0.512233,0.01746 -0.244475,0.0058 -0.483129,0.01746 -0.145521,0.0058 -0.285221,0.01746 -0.133879,0.0058 -0.267758,0.01164 -0.133879,0.01164 -0.261937,0.01746 -0.122237,0.0058 -0.244475,0.01746 l -0.232833,-0.0058 q 0.0058,-0.01164 0.0058,-0.0291 0.0058,-0.01746 0.01164,-0.03493 0.0058,-0.01746 0.0058,-0.03492 0.0058,-0.01746 0.01164,-0.03493 v -0.02328 -0.02328 q 0,-0.01746 -0.0058,-0.03493 0,-0.02328 -0.0058,-0.04657 -0.0058,-0.02328 -0.01164,-0.04657 0,-0.0291 -0.01164,-0.05239 v -0.01164 h 0.232833 z m 3.713686,3.987268 v -4.080401 h 0.232833 q 0.01746,0.01164 0.04075,0.02328 0.02328,0.0058 0.04657,0.01164 0.0058,0 0.01164,0.0058 0.01164,0 0.01746,0 0.0058,0 0.01164,0 0.01164,0 0.01746,0 0,0 0,0 0.0058,0 0.01164,0 0.0058,0 0.0058,0 0.0058,0 0.0058,0 0.0291,-0.0058 0.05239,-0.01164 0.0291,-0.01164 0.04657,-0.01746 l 0.232833,-0.0058 v 1.693861 q 0.08149,0.02328 0.20955,0.03493 0.128058,0.01164 0.302683,0.02328 0.157163,0.0058 0.320146,0.01164 0.168804,0.0058 0.337608,0.0058 0.151342,0 0.291041,0 0.145521,-0.0058 0.285221,-0.01164 0.168804,-0.01164 0.296862,-0.02328 0.128059,-0.01164 0.203729,-0.0291 v -1.711324 h 0.232834 q 0.0058,0.01164 0.01164,0.01746 0.0058,0 0.01164,0 0,0.0058 0.0058,0.0058 0.0058,0 0.01164,0 0.01164,0.0058 0.02328,0.0058 0.01164,0 0.02328,0 0.0058,0 0.01164,0.0058 0.0058,0 0.01164,0 0.0058,0.0058 0.01164,0.0058 0.0058,0 0.01164,0 0.0058,0 0.0058,0 0.0058,0 0.01164,0 0.0291,-0.0058 0.05821,-0.01164 0.03493,-0.01164 0.05821,-0.01746 l 0.232833,-0.0058 v 4.07458 h -0.232833 q -0.02328,0 -0.05239,0 -0.02328,-0.0058 -0.05239,-0.01164 0,0 -0.0058,0 0,0 0,0 0,0 -0.0058,0 0,0 0,0 0,0 -0.0058,0 0,0 -0.0058,0 -0.03493,0.0058 -0.06985,0.01164 -0.03493,0 -0.06985,0 h -0.232834 v -2.014007 q -0.04075,0 -0.09895,0 -0.05239,-0.0058 -0.116416,-0.01164 -0.06403,0 -0.1397,0 -0.06985,-0.0058 -0.151342,-0.01164 -0.128058,-0.01164 -0.267758,-0.01164 -0.1397,-0.0058 -0.291041,-0.0058 -0.02911,0 -0.05821,0 -0.0291,0 -0.05239,0 -0.0291,0.0058 -0.05821,0.0058 -0.02328,0 -0.05239,0 -0.03493,0 -0.06985,0 -0.03493,0 -0.06985,0 -0.04075,0.0058 -0.07567,0.0058 -0.03493,0 -0.06985,0 -0.04075,0 -0.08731,0.0058 -0.04075,0 -0.08149,0 -0.04657,0.0058 -0.08731,0.01164 -0.04075,0 -0.08731,0 -0.08731,0.0058 -0.168804,0.01164 -0.08149,0 -0.162983,0.01164 v 2.002365 h -0.232833 q -0.03493,0 -0.06403,0 -0.02328,-0.0058 -0.05239,-0.01164 -0.03492,0.0058 -0.06985,0.01164 -0.03493,0 -0.08149,0 H 88.06901 v 0 z m 4.540246,-2.014007 q 0,-0.02328 0,-0.04657 0,-0.0291 0,-0.05239 0,-0.0291 0,-0.05821 0.0058,-0.0291 0.01164,-0.05821 0.03493,-0.34925 0.192088,-0.669396 0.157162,-0.325966 0.436562,-0.622829 0.273579,-0.296862 0.675216,-0.442383 0.401637,-0.151341 0.931333,-0.151341 l 0.232833,-0.0058 q 0.535516,0.02328 0.91387,0.145521 0.384175,0.122237 0.617008,0.360891 0.232833,0.232833 0.378354,0.48895 0.151342,0.256116 0.215371,0.535516 0.01164,0.03493 0.01746,0.06985 0.0058,0.03493 0.01164,0.06403 0.0058,0.03493 0.01164,0.06985 0.0058,0.03493 0.01164,0.06985 0.01164,0.06985 0.01164,0.1397 0.0058,0.06403 0.01164,0.128058 v 0.01164 0.01746 0.02328 0.01746 q 0,0.48895 -0.168804,0.873125 -0.162984,0.378354 -0.500592,0.651933 -0.337608,0.2794 -0.721783,0.413279 -0.378354,0.133879 -0.803274,0.133879 h -0.232833 q -0.01164,0 -0.02328,0 -0.01164,0 -0.02328,0 -0.01164,0 -0.0291,0 -0.01164,0 -0.02328,0 -0.07567,0 -0.151342,-0.0058 -0.06985,0 -0.145521,-0.01164 -0.07567,-0.0058 -0.151341,-0.02328 -0.07567,-0.01746 -0.151342,-0.03493 -0.291041,-0.06403 -0.5588,-0.221192 -0.267758,-0.157162 -0.512233,-0.395816 -0.244474,-0.238654 -0.366712,-0.587904 -0.116416,-0.35507 -0.116416,-0.814916 v -0.01164 z m 0.832378,0.0058 q 0,0.454025 0.110596,0.803275 0.116417,0.343429 0.34925,0.587903 0.20955,0.221192 0.471487,0.343429 0.267758,0.122238 0.587904,0.1397 0.296862,-0.01746 0.541337,-0.1397 0.250296,-0.122237 0.448204,-0.343429 0.221191,-0.244474 0.34925,-0.593724 0.128058,-0.34925 0.162983,-0.791633 0,-0.01164 0,-0.02328 0,-0.01746 0,-0.02328 0,-0.01164 0,-0.02328 0,-0.01164 0,-0.02328 0,-0.378354 -0.116417,-0.6985 -0.110595,-0.320146 -0.337608,-0.576262 -0.215371,-0.232833 -0.48895,-0.360891 -0.267758,-0.128059 -0.593724,-0.145521 -0.285221,0.01746 -0.512233,0.122237 -0.227013,0.09895 -0.384175,0.285221 -0.174625,0.20955 -0.296862,0.436562 -0.116417,0.227012 -0.186267,0.471487 -0.01746,0.07567 -0.03493,0.145521 -0.01746,0.06985 -0.0291,0.1397 -0.01164,0.06985 -0.02328,0.1397 -0.0058,0.06985 -0.01746,0.133879 z m 4.580993,2.008186 v -4.033835 h 0.232833 0.2794 l 2.56116,2.817282 v -2.817282 h 0.23284 q 0.0116,0.01746 0.0291,0.02328 0.0175,0.0058 0.0349,0.01164 0.0233,-0.0058 0.0407,-0.01164 0.0175,-0.0058 0.0291,-0.01164 l 0.23283,-0.0058 v 4.028014 h -0.23283 -0.22702 l -2.613548,-2.904594 v 2.904594 h -0.232833 q -0.0058,0 -0.01164,0 -0.0058,0 -0.01164,0 -0.01164,0 -0.01746,0 -0.0058,-0.0058 -0.01164,-0.0058 -0.01164,0 -0.02328,0 -0.0058,0 -0.01746,0.0058 -0.01164,0 -0.02328,0 -0.0058,0 -0.01746,0 h -0.232833 v 0 z m 4.546063,-1.973261 q 0.0233,-0.459845 0.13388,-0.803274 0.11642,-0.343429 0.32015,-0.564621 0.20373,-0.221191 0.42492,-0.372533 0.22701,-0.151342 0.47149,-0.232833 0.12805,-0.04657 0.25029,-0.07567 0.12806,-0.0291 0.2503,-0.04657 0.12224,-0.01746 0.23283,-0.0291 0.11642,-0.01164 0.20955,-0.01746 l 0.23283,-0.0058 q 0.18627,0.0058 0.37254,0.0291 0.19208,0.01746 0.38417,0.05821 0.18627,0.04075 0.37254,0.116417 0.19208,0.06985 0.38417,0.168804 l -0.18627,0.494771 h -0.23283 q -0.0291,-0.01164 -0.064,-0.03493 -0.0349,-0.0291 -0.0699,-0.06403 -0.0349,-0.03492 -0.0757,-0.06985 -0.0349,-0.03493 -0.0815,-0.06985 -0.0815,-0.06403 -0.18627,-0.122238 -0.10477,-0.05821 -0.22701,-0.110596 -0.099,-0.04657 -0.22701,-0.06985 -0.12224,-0.0291 -0.26776,-0.03493 -0.0291,0 -0.064,0.0058 -0.0291,0 -0.064,0.0058 -0.0582,0.0058 -0.12224,0.01746 -0.0582,0.01164 -0.12223,0.0291 -0.21537,0.05821 -0.4191,0.186266 -0.19791,0.122238 -0.38418,0.314325 -0.18044,0.192087 -0.28522,0.471487 -0.10477,0.2794 -0.13388,0.657754 v 0.01746 0.02328 0.02328 0.02328 q -0.006,0.430741 0.1106,0.779991 0.11641,0.34925 0.34925,0.617008 0.22119,0.250295 0.50059,0.384174 0.28522,0.128059 0.63447,0.145521 0.11642,-0.0058 0.22119,-0.01746 0.1106,-0.01746 0.21537,-0.04075 0.13388,-0.0291 0.22701,-0.06985 0.099,-0.04657 0.16881,-0.09895 v -1.525058 h 0.23283 q 0.0116,0.01164 0.0233,0.01746 0.0117,0 0.0291,0.0058 0.0116,0.0058 0.0233,0.01164 0.0116,0 0.0233,0 0.006,0 0.006,0 0.006,0 0.0116,0 0.006,0.0058 0.006,0.0058 0.006,0 0.0116,0 0,0 0,0 0,0 0.006,0 0,0 0,0 0,0 0,0 0.0291,-0.0058 0.064,-0.01164 0.0349,-0.01164 0.0699,-0.01746 l 0.23283,-0.0058 v 1.693862 l -0.0175,0.01746 -0.0175,0.0058 q -0.0291,0.01746 -0.0699,0.0291 -0.0349,0.01164 -0.0757,0.02328 -0.0407,0.01746 -0.0873,0.0291 -0.0466,0.01164 -0.099,0.02328 -0.10477,0.02328 -0.20955,0.04075 -0.10477,0.01746 -0.22119,0.0291 -0.10478,0.01746 -0.20373,0.0291 -0.0931,0.01746 -0.19209,0.02328 -0.0931,0.01164 -0.17462,0.01746 -0.0815,0.0058 -0.14552,0.0058 h -0.23284 q -0.0116,0 -0.0291,0 -0.0116,0 -0.0233,0 -0.0116,0 -0.0291,0 -0.0116,0 -0.0233,0 -0.49477,0 -0.88477,-0.133879 -0.38999,-0.133879 -0.68103,-0.4191 -0.28522,-0.2794 -0.43075,-0.651933 -0.14552,-0.378354 -0.14552,-0.849841 v -0.01164 z m 6.01292,-0.04075 -1.23984,-1.973261 h 0.23284 q 0.0349,0.01746 0.0698,0.0291 0.0407,0.0058 0.0815,0.01164 0.006,0 0.0116,0 0.006,0 0.0116,0 0.006,0 0.0116,0.0058 0.006,0 0.0116,0 0.006,0 0.0117,0 0.006,0 0.0175,-0.0058 0.006,0 0.0116,0 0.006,0 0.0116,0 0.0466,-0.0058 0.0815,-0.01164 0.0408,-0.01164 0.0757,-0.01746 l 0.23284,-0.0058 0.80327,1.321328 0.84402,-1.327149 h 0.23284 q 0.0233,0.01164 0.0407,0.02328 0.0175,0.0058 0.0349,0.01164 0.0291,-0.0058 0.0524,-0.01164 0.0291,-0.0058 0.0524,-0.01164 l 0.23283,-0.0058 -1.23983,1.781174 1.37953,2.200273 h -0.23283 q -0.0407,0 -0.0873,0 -0.0408,-0.0058 -0.0873,-0.01164 -0.006,0 -0.0117,0 -0.006,0 -0.0116,-0.0058 -0.0116,0 -0.0175,0 -0.006,0 -0.0116,0 -0.006,0 -0.0116,0 -0.006,0 -0.0116,0 -0.0117,0.0058 -0.0175,0.0058 -0.006,0 -0.0116,0 -0.0407,0.0058 -0.0873,0.01164 -0.0408,0 -0.0873,0 h -0.23284 l -0.8964,-1.583265 -0.89059,1.583265 h -0.23283 -0.0291 l -0.0233,-0.01164 q -0.006,0.0058 -0.0116,0.0058 -0.006,0 -0.0175,-0.0058 -0.006,0 -0.0116,0 -0.006,0 -0.0175,0 0,0 0,0 0,0 0,0 -0.006,0 -0.006,0 0,0 0,0 -0.0349,0.0058 -0.0757,0.01164 -0.0349,0 -0.0815,0 h -0.23284 l 1.37954,-2.014007 v 0 z m 3.02683,-2.019828 q 0.0291,0.01746 0.0524,0.02911 0.0291,0.0058 0.064,0.01164 0.006,0 0.006,0 0.006,0 0.0117,0 0.006,0 0.006,0 0.006,0 0.0116,0 0.0349,-0.0058 0.064,-0.01164 0.0349,-0.01164 0.0582,-0.01746 l 0.23283,-0.0058 v 4.028014 h -0.23283 q -0.0233,0 -0.0582,0 -0.0291,-0.0058 -0.0582,-0.01164 -0.006,0 -0.0116,0 0,0 -0.006,0 -0.006,0 -0.0117,0 -0.006,0 -0.0116,0 -0.0349,0.0058 -0.064,0.01164 -0.0233,0 -0.0524,0 h -0.23284 v -4.033835 h 0.23284 v 0 z m 1.10595,4.033835 1.83357,-4.080401 h 0.23283 0.13388 l 1.79281,4.080401 h -0.23283 q -0.0175,0 -0.0408,0 -0.0175,0 -0.0407,0 -0.0233,0 -0.0466,0 -0.0175,0 -0.0466,0 -0.0117,0 -0.0291,0 -0.0116,0 -0.0233,-0.0058 -0.0116,0 -0.0291,0 -0.0116,0 -0.0233,0 -0.0116,0.0058 -0.0291,0.0058 -0.0117,0 -0.0233,0 -0.0116,0 -0.0233,0 -0.0116,0 -0.0175,0 -0.0116,0 -0.0233,0 -0.006,0 -0.0175,0 h -0.23283 l -0.64029,-1.606549 h -1.18745 l -0.59373,1.606549 h -0.23283 q -0.0116,0 -0.0291,0 -0.0117,0 -0.0233,0 l -0.0291,-0.0058 q -0.006,0.0058 -0.0175,0.0058 -0.0116,0 -0.0175,0 -0.0116,0 -0.0233,0 -0.006,0 -0.0175,0 h -0.23284 q -0.0175,0 -0.0349,0 -0.0175,0 -0.0349,0 v 0 z m 1.42611,-1.880128 h 0.95461 l -0.4773,-1.140882 -0.47731,1.140882 z m 2.8813,-0.133879 q 0,-0.02328 0,-0.04657 0,-0.0291 0,-0.05239 0,-0.0291 0,-0.05821 0.006,-0.0291 0.0117,-0.05821 0.0349,-0.34925 0.19208,-0.669396 0.15717,-0.325966 0.43657,-0.622829 0.27357,-0.296862 0.67521,-0.442383 0.40164,-0.151341 0.93133,-0.151341 l 0.23284,-0.0058 q 0.53551,0.02328 0.91387,0.145521 0.38417,0.122237 0.61701,0.360891 0.23283,0.232833 0.37835,0.48895 0.15134,0.256116 0.21537,0.535516 0.0116,0.03493 0.0175,0.06985 0.006,0.03493 0.0117,0.06403 0.006,0.03493 0.0116,0.06985 0.006,0.03493 0.0116,0.06985 0.0116,0.06985 0.0116,0.1397 0.006,0.06403 0.0116,0.128058 v 0.01164 0.01746 0.02328 0.01746 q 0,0.48895 -0.1688,0.873125 -0.16299,0.378354 -0.50059,0.651933 -0.33761,0.2794 -0.72179,0.413279 -0.37835,0.133879 -0.80327,0.133879 h -0.23283 q -0.0116,0 -0.0233,0 -0.0116,0 -0.0233,0 -0.0116,0 -0.0291,0 -0.0116,0 -0.0233,0 -0.0757,0 -0.15134,-0.0058 -0.0699,0 -0.14552,-0.01164 -0.0757,-0.0058 -0.15134,-0.02328 -0.0757,-0.01746 -0.15134,-0.03493 -0.29105,-0.06403 -0.5588,-0.221192 -0.26776,-0.157162 -0.51224,-0.395816 -0.24447,-0.238654 -0.36671,-0.587904 -0.11642,-0.35507 -0.11642,-0.814916 v -0.01164 z m 0.83238,0.0058 q 0,0.454025 0.1106,0.803275 0.11642,0.343429 0.34925,0.587903 0.20955,0.221192 0.47149,0.343429 0.26775,0.122238 0.5879,0.1397 0.29686,-0.01746 0.54134,-0.1397 0.25029,-0.122237 0.4482,-0.343429 0.22119,-0.244474 0.34925,-0.593724 0.12806,-0.34925 0.16298,-0.791633 0,-0.01164 0,-0.02328 0,-0.01746 0,-0.02328 0,-0.01164 0,-0.02328 0,-0.01164 0,-0.02328 0,-0.378354 -0.11641,-0.6985 -0.1106,-0.320146 -0.33761,-0.576262 -0.21537,-0.232833 -0.48895,-0.360891 -0.26776,-0.128059 -0.59373,-0.145521 -0.28522,0.01746 -0.51223,0.122237 -0.22701,0.09895 -0.38417,0.285221 -0.17463,0.20955 -0.29687,0.436562 -0.11641,0.227012 -0.18626,0.471487 -0.0175,0.07567 -0.0349,0.145521 -0.0175,0.06985 -0.0291,0.1397 -0.0116,0.06985 -0.0233,0.1397 -0.006,0.06985 -0.0175,0.133879 z m 6.61247,-1.979082 h 2.06057 q -0.006,0.02328 -0.0116,0.04075 0,0.01164 -0.006,0.02328 -0.006,0.01164 -0.006,0.02328 0,0.01164 0,0.02328 -0.006,0.01746 -0.0116,0.0291 0,0.01164 0,0.02328 0,0.01164 0,0.0291 0,0.01164 0,0.02328 0,0.02328 0,0.05239 0,0.02328 0.006,0.05239 0.006,0.02328 0.0116,0.05239 0.0116,0.02328 0.0175,0.05239 l -0.23283,-0.0058 q -0.0233,0.0058 -0.0466,0.0058 -0.0175,-0.0058 -0.0349,-0.01164 -0.0175,0 -0.0349,-0.0058 -0.0175,-0.0058 -0.0349,-0.01164 -0.0873,-0.01164 -0.17463,-0.02328 -0.0873,-0.01164 -0.1688,-0.02328 -0.0873,-0.0058 -0.17463,-0.01746 -0.0873,-0.01164 -0.17462,-0.01746 -0.11642,-0.01164 -0.23866,-0.01746 -0.12223,-0.0058 -0.24447,-0.0058 v 1.40282 h 0.64029 l 0.59372,-0.04657 h 0.23284 q -0.006,0.0291 -0.0116,0.05239 -0.006,0.01746 -0.0117,0.03493 0,0.0058 -0.006,0.01746 0,0.0058 0,0.01164 -0.006,0.01164 -0.006,0.01746 0,0.0058 0,0.01746 v 0.01164 0.02328 q 0,0.02911 0,0.05239 0,0.01746 0.006,0.04075 0,0.01164 0,0.02328 0.006,0.01164 0.0117,0.02328 0.006,0.01746 0.006,0.0291 0.006,0.01164 0.0116,0.02328 l -0.23284,-0.0058 -0.59372,-0.04657 h -0.64029 v 2.014007 h -0.23283 q -0.0233,0 -0.0524,0 -0.0233,-0.0058 -0.0524,-0.01164 0,0 -0.006,0 0,0 0,0 0,0 -0.006,0 0,0 0,0 0,0 -0.006,0 0,0 -0.006,0 -0.0349,0.0058 -0.0699,0.01164 -0.0349,0 -0.0699,0 h -0.23284 v -3.987268 h 0.23284 v 0 z m 2.9337,2.427286 v -2.473853 h 0.23283 q 0.0408,0.01746 0.0757,0.02911 0.0408,0.0058 0.0757,0.01164 0.0175,0 0.0349,0 0.0175,0 0.0349,-0.0058 0.0233,-0.0058 0.0466,-0.01164 0.0233,-0.0058 0.0466,-0.01164 l 0.23283,-0.0058 v 2.38072 q 0,0.407458 0.0815,0.692678 0.0873,0.2794 0.26194,0.448204 0.15716,0.151342 0.35507,0.238654 0.19791,0.08149 0.43074,0.09313 0.29104,-0.01164 0.50059,-0.104775 0.21537,-0.09313 0.34343,-0.256117 0.1397,-0.186266 0.21537,-0.448204 0.0815,-0.267758 0.099,-0.611187 v -2.438928 h 0.23283 q 0.0116,0.01164 0.0175,0.01746 0.006,0 0.0175,0.0058 0.006,0.0058 0.0117,0.01164 0.0116,0 0.0175,0 0.0116,0 0.0175,0 0.0116,-0.0058 0.0175,-0.01164 0.0116,-0.0058 0.0175,-0.0058 0.0116,-0.0058 0.0175,-0.0058 l 0.23283,-0.0058 v 2.334153 q 0,0.407458 -0.0989,0.733425 -0.0931,0.320145 -0.28522,0.56462 -0.19209,0.250296 -0.51806,0.372533 -0.32596,0.116417 -0.79163,0.116417 h -0.23283 q -0.0117,0 -0.0291,0 -0.0116,0 -0.0233,0 -0.0116,0 -0.0291,0 -0.0116,0 -0.0233,0 -0.48313,0 -0.80909,-0.122238 -0.32597,-0.122237 -0.49477,-0.372533 -0.16299,-0.256116 -0.2503,-0.541337 -0.0815,-0.285221 -0.0815,-0.605366 v -0.01164 z m 5.82665,-0.454025 -1.23984,-1.973261 h 0.23283 q 0.0349,0.01746 0.0699,0.0291 0.0408,0.0058 0.0815,0.01164 0.006,0 0.0116,0 0.006,0 0.0116,0 0.006,0 0.0116,0.0058 0.006,0 0.0116,0 0.006,0 0.0116,0 0.006,0 0.0175,-0.0058 0.006,0 0.0116,0 0.006,0 0.0116,0 0.0466,-0.0058 0.0815,-0.01164 0.0408,-0.01164 0.0757,-0.01746 l 0.23284,-0.0058 0.80327,1.321328 0.84402,-1.327149 h 0.23283 q 0.0233,0.01164 0.0408,0.02328 0.0175,0.0058 0.0349,0.01164 0.0291,-0.0058 0.0524,-0.01164 0.0291,-0.0058 0.0524,-0.01164 l 0.23283,-0.0058 -1.23983,1.781174 1.37953,2.200273 h -0.23283 q -0.0408,0 -0.0873,0 -0.0408,-0.0058 -0.0873,-0.01164 -0.006,0 -0.0116,0 -0.006,0 -0.0116,-0.0058 -0.0116,0 -0.0175,0 -0.006,0 -0.0116,0 -0.006,0 -0.0117,0 -0.006,0 -0.0116,0 -0.0116,0.0058 -0.0175,0.0058 -0.006,0 -0.0116,0 -0.0408,0.0058 -0.0873,0.01164 -0.0408,0 -0.0873,0 h -0.23283 l -0.89641,-1.583265 -0.89058,1.583265 h -0.23284 -0.0291 l -0.0233,-0.01164 q -0.006,0.0058 -0.0117,0.0058 -0.006,0 -0.0175,-0.0058 -0.006,0 -0.0116,0 -0.006,0 -0.0175,0 0,0 0,0 0,0 0,0 -0.006,0 -0.006,0 0,0 0,0 -0.0349,0.0058 -0.0757,0.01164 -0.0349,0 -0.0815,0 h -0.23283 l 1.37954,-2.014007 v 0 z m 3.02683,-2.019828 q 0.0291,0.01746 0.0524,0.02911 0.0291,0.0058 0.064,0.01164 0.006,0 0.006,0 0.006,0 0.0117,0 0.006,0 0.006,0 0.006,0 0.0116,0 0.0349,-0.0058 0.064,-0.01164 0.0349,-0.01164 0.0582,-0.01746 l 0.23283,-0.0058 v 4.028014 h -0.23283 q -0.0233,0 -0.0582,0 -0.0291,-0.0058 -0.0582,-0.01164 -0.006,0 -0.0116,0 0,0 -0.006,0 -0.006,0 -0.0117,0 -0.006,0 -0.0116,0 -0.0349,0.0058 -0.064,0.01164 -0.0233,0 -0.0524,0 h -0.23284 v -4.033835 h 0.23284 v 0 z m 1.60655,4.033835 v -4.033835 h 0.23283 0.2794 l 2.56116,2.817282 v -2.817282 h 0.23284 q 0.0116,0.01746 0.0291,0.02328 0.0175,0.0058 0.0349,0.01164 0.0233,-0.0058 0.0407,-0.01164 0.0175,-0.0058 0.0291,-0.01164 l 0.23283,-0.0058 v 4.028014 h -0.23283 -0.22702 l -2.61355,-2.904594 v 2.904594 h -0.23283 q -0.006,0 -0.0116,0 -0.006,0 -0.0117,0 -0.0116,0 -0.0175,0 -0.006,-0.0058 -0.0116,-0.0058 -0.0116,0 -0.0233,0 -0.006,0 -0.0175,0.0058 -0.0116,0 -0.0233,0 -0.006,0 -0.0175,0 h -0.23283 v 0 z m 4.54606,-1.973261 q 0.0233,-0.459845 0.13388,-0.803274 0.11642,-0.343429 0.32015,-0.564621 0.20373,-0.221191 0.42492,-0.372533 0.22701,-0.151342 0.47148,-0.232833 0.12806,-0.04657 0.2503,-0.07567 0.12806,-0.0291 0.2503,-0.04657 0.12223,-0.01746 0.23283,-0.0291 0.11642,-0.01164 0.20955,-0.01746 l 0.23283,-0.0058 q 0.18627,0.0058 0.37253,0.0291 0.19209,0.01746 0.38418,0.05821 0.18627,0.04075 0.37253,0.116417 0.19209,0.06985 0.38418,0.168804 l -0.18627,0.494771 H 146.027 q -0.0291,-0.01164 -0.064,-0.03493 -0.0349,-0.0291 -0.0699,-0.06403 -0.0349,-0.03492 -0.0757,-0.06985 -0.0349,-0.03493 -0.0815,-0.06985 -0.0815,-0.06403 -0.18627,-0.122238 -0.10478,-0.05821 -0.22701,-0.110596 -0.099,-0.04657 -0.22701,-0.06985 -0.12224,-0.0291 -0.26776,-0.03493 -0.0291,0 -0.064,0.0058 -0.0291,0 -0.064,0.0058 -0.0582,0.0058 -0.12224,0.01746 -0.0582,0.01164 -0.12224,0.0291 -0.21537,0.05821 -0.4191,0.186266 -0.1979,0.122238 -0.38417,0.314325 -0.18045,0.192087 -0.28522,0.471487 -0.10478,0.2794 -0.13388,0.657754 v 0.01746 0.02328 0.02328 0.02328 q -0.006,0.430741 0.1106,0.779991 0.11641,0.34925 0.34925,0.617008 0.22119,0.250295 0.50059,0.384174 0.28522,0.128059 0.63447,0.145521 0.11641,-0.0058 0.22119,-0.01746 0.11059,-0.01746 0.21537,-0.04075 0.13388,-0.0291 0.22701,-0.06985 0.099,-0.04657 0.16881,-0.09895 v -1.525058 h 0.23283 q 0.0116,0.01164 0.0233,0.01746 0.0116,0 0.0291,0.0058 0.0116,0.0058 0.0233,0.01164 0.0116,0 0.0233,0 0.006,0 0.006,0 0.006,0 0.0116,0 0.006,0.0058 0.006,0.0058 0.006,0 0.0116,0 0,0 0,0 0,0 0.006,0 0,0 0,0 0,0 0,0 0.0291,-0.0058 0.064,-0.01164 0.0349,-0.01164 0.0699,-0.01746 l 0.23283,-0.0058 v 1.693862 l -0.0175,0.01746 -0.0175,0.0058 q -0.0291,0.01746 -0.0699,0.0291 -0.0349,0.01164 -0.0757,0.02328 -0.0408,0.01746 -0.0873,0.0291 -0.0466,0.01164 -0.099,0.02328 -0.10478,0.02328 -0.20955,0.04075 -0.10478,0.01746 -0.22119,0.0291 -0.10478,0.01746 -0.20373,0.0291 -0.0931,0.01746 -0.19209,0.02328 -0.0931,0.01164 -0.17462,0.01746 -0.0815,0.0058 -0.14552,0.0058 h -0.23284 q -0.0116,0 -0.0291,0 -0.0116,0 -0.0233,0 -0.0116,0 -0.0291,0 -0.0116,0 -0.0233,0 -0.49477,0 -0.88477,-0.133879 -0.38999,-0.133879 -0.68104,-0.4191 -0.28522,-0.2794 -0.43074,-0.651933 -0.14552,-0.378354 -0.14552,-0.849841 v -0.01164 z"
         id="text8"
         aria-label="ZHONGXIAO FUXING" />
      <path
         style="font-weight:500;font-size:5.82083px;line-height:1.25;font-family:'Noto Sans JP';-inkscape-font-specification:'Noto Sans JP Medium';fill:#ffffff;stroke-width:0.264583"
         d="m 85.055171,38.306997 h 0.541337 v 1.146704 q 0,0.128058 0.05821,0.162983 0.06403,0.03493 0.28522,0.03493 0.04657,0 0.168804,0 0.128059,0 0.2794,0 0.151342,0 0.2794,0 0.133879,0 0.203729,0 0.128058,0 0.186267,-0.04657 0.06403,-0.04657 0.09313,-0.192087 0.0291,-0.145521 0.04075,-0.442383 0.05821,0.04657 0.14552,0.08731 0.08731,0.04075 0.180446,0.06985 0.09313,0.0291 0.162983,0.05239 -0.0291,0.384174 -0.110595,0.593724 -0.07567,0.20955 -0.227013,0.291042 -0.151341,0.08149 -0.42492,0.08149 -0.04657,0 -0.151342,0 -0.09895,0 -0.232833,0 -0.133879,0 -0.273579,0 -0.133879,0 -0.238654,0 -0.09895,0 -0.1397,0 -0.325966,0 -0.512233,-0.06403 -0.180446,-0.05821 -0.250296,-0.21537 -0.06403,-0.151342 -0.06403,-0.413279 z m 0.395817,-0.227012 0.384174,-0.314325 q 0.197909,0.110596 0.401638,0.256117 0.20955,0.139699 0.384174,0.291041 0.174625,0.145521 0.273579,0.285221 l -0.413279,0.349249 q -0.09895,-0.139699 -0.267758,-0.296862 -0.162983,-0.157162 -0.366712,-0.302683 -0.197908,-0.151342 -0.395816,-0.267758 z m 1.973261,0.413279 0.465666,-0.232833 q 0.221192,0.203729 0.430742,0.454024 0.20955,0.244475 0.372533,0.500592 0.168804,0.250295 0.256116,0.465666 l -0.512233,0.256117 q -0.07567,-0.20955 -0.232833,-0.459846 -0.151341,-0.256117 -0.35507,-0.512233 -0.20373,-0.256117 -0.424921,-0.471487 z m -3.15489,-0.162984 0.494771,0.151342 q -0.104775,0.424921 -0.285221,0.826558 -0.174625,0.395816 -0.506412,0.657754 l -0.459846,-0.302683 q 0.302683,-0.227013 0.48895,-0.582083 0.186267,-0.360892 0.267758,-0.750888 z m -0.215371,-2.840564 h 4.336519 v 2.171169 h -0.552979 v -1.670578 h -3.253844 v 1.717145 h -0.529696 z m 0.325967,1.472669 h 3.707869 v 0.494771 h -3.707869 z m 1.54252,-2.147886 h 0.552979 v 3.183994 h -0.552979 z m 3.498319,1.61237 h 5.256209 v 0.483129 h -5.256209 z m 0.541337,2.054753 h 4.679947 v 0.477308 h -4.679947 z m 0.675216,-1.12342 h 2.858027 v 0.442383 h -2.858027 z m -0.710141,-1.938336 h 3.352798 v 0.477308 h -3.352798 z m 1.507595,-0.605367 h 0.547158 v 1.862666 h -0.547158 z m 2.444748,0.215371 0.459846,0.261937 q -0.582083,0.704321 -1.338791,1.303866 -0.756708,0.593725 -1.61237,1.065212 -0.855662,0.471487 -1.740428,0.814916 -0.03493,-0.06403 -0.09895,-0.145521 -0.06403,-0.08731 -0.133879,-0.168804 -0.06403,-0.08731 -0.116417,-0.133879 0.896408,-0.308504 1.746249,-0.750887 0.849841,-0.448204 1.577445,-1.018645 0.727604,-0.570441 1.257299,-1.228195 z m -1.89759,3.137427 h 0.547158 v 1.47267 q 0,0.20955 -0.06403,0.320146 -0.05821,0.116416 -0.221192,0.180446 -0.168804,0.05239 -0.4191,0.06403 -0.244475,0.01746 -0.605366,0.01746 -0.02328,-0.116416 -0.08731,-0.256116 -0.05821,-0.1397 -0.116417,-0.244475 0.180446,0.0058 0.34925,0.0058 0.174625,0.0058 0.302683,0 0.133879,0 0.186266,0 0.07567,0 0.09896,-0.01746 0.0291,-0.02328 0.0291,-0.08149 z m 1.356253,-0.809095 h 0.1397 l 0.116417,-0.02328 0.343429,0.296862 q -0.221192,0.168804 -0.48895,0.343429 -0.261938,0.168804 -0.541337,0.320146 -0.2794,0.151341 -0.5588,0.267758 -0.05239,-0.06985 -0.133879,-0.157163 -0.08149,-0.09313 -0.1397,-0.14552 0.227012,-0.09313 0.471487,-0.232834 0.244475,-0.1397 0.448204,-0.28522 0.20955,-0.151342 0.343429,-0.2794 z m 4.324877,-2.549524 0.541337,0.128059 q -0.180446,0.49477 -0.454025,0.960437 -0.267758,0.459845 -0.570441,0.77417 -0.04657,-0.04657 -0.133879,-0.104775 -0.08731,-0.06403 -0.180446,-0.122237 -0.08731,-0.05821 -0.151342,-0.09313 0.302684,-0.279399 0.552979,-0.692678 0.250296,-0.413279 0.395817,-0.849842 z m 0.02328,0.570442 h 2.799818 v 0.454024 h -3.038472 z m 0.256117,1.82774 v 0.337608 h 1.676399 V 37.20686 Z m 0,-0.669395 v 0.325966 h 1.676399 v -0.325966 z m -0.494771,-0.366712 h 2.683402 v 1.734607 h -2.683402 z m 0.663575,1.583265 0.477308,0.1397 q -0.244475,0.436562 -0.634471,0.809096 -0.389995,0.372533 -0.791633,0.611187 -0.04075,-0.04657 -0.110595,-0.110596 -0.06985,-0.06403 -0.145521,-0.128058 -0.06985,-0.06403 -0.128058,-0.104775 0.401637,-0.20955 0.762528,-0.523875 0.360892,-0.320146 0.570442,-0.692679 z m -0.09313,0.750887 q 0.221192,0.331788 0.605367,0.587904 0.389995,0.256117 0.902228,0.424921 0.512236,0.162983 1.111776,0.232833 -0.0815,0.08149 -0.17462,0.215371 -0.0931,0.1397 -0.14552,0.244475 -0.628653,-0.09313 -1.152527,-0.302684 -0.518054,-0.209549 -0.919691,-0.523874 -0.395817,-0.320146 -0.663575,-0.739246 z m 0.01164,-0.244474 h 1.740428 v 0.378353 h -2.089678 z m 1.600728,0 h 0.104775 l 0.09313,-0.02328 0.331783,0.162983 q -0.203724,0.413279 -0.529691,0.721783 -0.325966,0.302684 -0.745066,0.523875 -0.4191,0.215371 -0.902229,0.355071 -0.477308,0.1397 -0.989541,0.221191 -0.0291,-0.09895 -0.104775,-0.232833 -0.06985,-0.133879 -0.133879,-0.221192 0.471487,-0.05239 0.91387,-0.162983 0.448204,-0.116416 0.832379,-0.291041 0.384175,-0.174625 0.675216,-0.4191 0.291042,-0.244475 0.454025,-0.564621 z m -3.183994,-2.229378 0.48895,0.180445 q -0.197908,0.34925 -0.454025,0.6985 -0.256116,0.343429 -0.547158,0.651933 -0.28522,0.302683 -0.570441,0.541337 -0.02328,-0.06403 -0.08149,-0.157162 -0.05239,-0.09313 -0.110596,-0.192088 -0.05821,-0.09895 -0.104774,-0.151341 0.256116,-0.197908 0.512233,-0.448204 0.256116,-0.250296 0.477308,-0.535516 0.227012,-0.291042 0.389995,-0.587904 z m -0.122237,-1.216554 0.48895,0.192088 q -0.174625,0.250295 -0.407459,0.506412 -0.232833,0.256116 -0.483128,0.48895 -0.250296,0.232833 -0.500592,0.413278 -0.03492,-0.05821 -0.08731,-0.128058 -0.05239,-0.07567 -0.110596,-0.151341 -0.05239,-0.07567 -0.09895,-0.122238 0.221191,-0.157162 0.448204,-0.35507 0.227012,-0.203729 0.42492,-0.424921 0.197909,-0.221192 0.325967,-0.4191 z m -0.389996,2.374899 0.459846,-0.459846 0.05821,0.02328 v 3.480856 h -0.518054 z m 5.099048,1.175807 h 5.31442 v 0.512234 h -5.31442 z m 2.18281,-2.508777 h 0.94298 v 0.360891 h -0.94298 z m 1.63565,-0.756708 h 0.9197 v 0.454025 h -0.9197 z m 0.0291,1.094316 h 0.84402 v 0.448204 h -0.84402 z m 0,1.071033 h 0.82656 v 0.448204 h -0.82656 z M 101.662,36.194036 h 0.8382 v 0.448204 h -0.8382 z m 0.0175,1.071033 h 0.82074 v 0.448204 h -0.82074 z m 0.98372,-2.17117 h 2.0664 v 3.480856 H 104.3163 V 35.51882 h -1.2573 v 3.055935 h -0.39582 z m 0.84402,1.792816 v 0.663574 h 0.34925 v -0.663574 z m -0.25029,-0.337608 h 0.85566 v 1.33297 h -0.85566 z m -1.81028,-1.431925 0.60536,0.116417 q -0.0175,0.06403 -0.12805,0.08149 l 0.0931,3.271306 h -0.47149 z m 4.03383,-0.01746 h 0.48313 q -0.006,0.430741 -0.0175,0.91387 -0.006,0.483129 -0.0233,0.966258 -0.0175,0.483129 -0.0408,0.91387 -0.0175,0.430742 -0.0407,0.756708 h -0.47731 q 0.0291,-0.331787 0.0466,-0.768349 0.0233,-0.436563 0.0407,-0.919692 0.0175,-0.483128 0.0233,-0.960436 0.006,-0.477309 0.006,-0.902229 z m -3.03847,-0.261937 0.37253,0.413278 q -0.25029,0.128059 -0.52969,0.244475 -0.2794,0.116417 -0.52388,0.197909 -0.0175,-0.07567 -0.064,-0.186267 -0.0466,-0.116417 -0.0931,-0.197908 0.22119,-0.09895 0.45403,-0.227013 0.23283,-0.133879 0.38417,-0.244474 z m 1.71132,4.435472 0.40164,-0.366712 q 0.32015,0.14552 0.65193,0.314324 0.33179,0.162984 0.62283,0.325967 0.29687,0.162983 0.50642,0.296862 l -0.52388,0.378354 q -0.19209,-0.133879 -0.46567,-0.302683 -0.26775,-0.162983 -0.57626,-0.331787 -0.3085,-0.168804 -0.61701,-0.314325 z m -1.46102,-0.366712 0.50641,0.343429 q -0.22701,0.174625 -0.52388,0.35507 -0.29104,0.180446 -0.60536,0.337608 -0.30851,0.162984 -0.57626,0.2794 -0.0815,-0.08731 -0.20955,-0.203729 -0.12224,-0.110596 -0.2212,-0.186266 0.2794,-0.116417 0.58791,-0.267759 0.3085,-0.157162 0.58208,-0.331787 0.2794,-0.174625 0.45985,-0.325966 z"
         id="text9"
         aria-label="忠孝復興" />
      <path
         style="font-weight:500;font-size:5.82083px;line-height:1.25;font-family:'Noto Sans KR';-inkscape-font-specification:'Noto Sans KR Medium';fill:#ffffff;stroke-width:0.264583"
         d="m 114.69468,37.521187 h 0.61118 v 0.937154 h -0.61118 z m -2.0955,-0.203729 h 4.808 v 0.48895 h -4.808 z m 2.39236,0.960437 q 0.86148,0 1.34461,0.250296 0.48895,0.244474 0.48895,0.698499 0,0.454025 -0.48895,0.6985 -0.48313,0.244475 -1.34461,0.244475 -0.85566,0 -1.34461,-0.244475 -0.48313,-0.244475 -0.48313,-0.6985 0,-0.454025 0.48313,-0.698499 0.48895,-0.250296 1.34461,-0.250296 z m 0,0.471487 q -0.38417,0 -0.65775,0.05821 -0.27358,0.05239 -0.4191,0.157163 -0.1397,0.104775 -0.1397,0.261937 0,0.157163 0.1397,0.267758 0.14552,0.104775 0.4191,0.157163 0.27358,0.05239 0.65775,0.05239 0.39582,0 0.66357,-0.05239 0.27358,-0.05239 0.41328,-0.157163 0.1397,-0.110595 0.1397,-0.267758 0,-0.157162 -0.1397,-0.261937 -0.1397,-0.104775 -0.41328,-0.157163 -0.26775,-0.05821 -0.66357,-0.05821 z m -0.39582,-3.422648 h 0.54134 v 0.145521 q 0,0.250296 -0.099,0.471487 -0.099,0.215371 -0.28522,0.401637 -0.18627,0.180446 -0.44239,0.325967 -0.25611,0.145521 -0.57626,0.238654 -0.31432,0.09313 -0.68104,0.133879 l -0.21537,-0.477308 q 0.31433,-0.0291 0.58209,-0.09895 0.27358,-0.07567 0.48895,-0.180446 0.21537,-0.104775 0.36671,-0.232833 0.15134,-0.133879 0.23283,-0.2794 0.0873,-0.151342 0.0873,-0.302683 z m 0.27358,0 h 0.54134 v 0.145521 q 0,0.157162 0.0815,0.308504 0.0815,0.145521 0.23283,0.273579 0.15135,0.128058 0.36672,0.232833 0.22119,0.104775 0.48895,0.180446 0.27358,0.06985 0.5879,0.09895 l -0.21537,0.477308 q -0.36671,-0.04075 -0.68686,-0.133879 -0.31432,-0.09313 -0.57626,-0.232833 -0.25612,-0.145521 -0.44238,-0.325967 -0.18045,-0.186266 -0.2794,-0.407458 -0.099,-0.227012 -0.099,-0.471487 z m -1.83356,-0.232833 h 3.93488 v 0.483129 h -3.93488 z m 8.87677,1.059391 h 0.96043 v 0.506412 h -0.96043 z m 0,1.565803 h 0.96043 v 0.506412 h -0.96043 z m -2.70087,-2.421465 h 0.49477 v 0.873124 q 0,0.459846 -0.099,0.90805 -0.099,0.442383 -0.29104,0.832379 -0.18627,0.384174 -0.45403,0.686857 -0.26776,0.302684 -0.60536,0.483129 l -0.39582,-0.488949 q 0.3085,-0.151342 0.5588,-0.407458 0.2503,-0.261938 0.42492,-0.587904 0.18045,-0.331788 0.27358,-0.692679 0.0931,-0.366712 0.0931,-0.733425 z m 0.1106,0 h 0.49477 v 0.873124 q 0,0.360892 0.0873,0.715963 0.0873,0.349249 0.25612,0.657753 0.17462,0.308504 0.41328,0.552979 0.23865,0.238654 0.53551,0.378354 l -0.36671,0.48895 q -0.33761,-0.168804 -0.59954,-0.454025 -0.26194,-0.291041 -0.44821,-0.657754 -0.18044,-0.366712 -0.2794,-0.797453 -0.0931,-0.430742 -0.0931,-0.884767 z m 2.14206,-0.436562 h 0.61119 v 5.320238 h -0.61119 z m 3.94071,2.997727 h 0.61118 v 1.274762 h -0.61118 z m 0.3085,-2.683402 q 0.56462,0 1.00118,0.174624 0.44239,0.174625 0.6985,0.494771 0.25612,0.320146 0.25612,0.750887 0,0.436562 -0.25612,0.756708 -0.25611,0.320146 -0.6985,0.500591 -0.43656,0.174625 -1.00118,0.174625 -0.56462,0 -1.007,-0.174625 -0.44239,-0.180445 -0.6985,-0.500591 -0.25612,-0.320146 -0.25612,-0.756708 0,-0.430741 0.25612,-0.750887 0.25611,-0.320146 0.6985,-0.494771 0.44238,-0.174624 1.007,-0.174624 z m 0,0.483128 q -0.40164,0 -0.71014,0.116417 -0.30268,0.110596 -0.47731,0.320146 -0.17462,0.20955 -0.17462,0.500591 0,0.291042 0.17462,0.506412 0.17463,0.20955 0.47731,0.325967 0.3085,0.110595 0.71014,0.110595 0.39582,0 0.70432,-0.110595 0.3085,-0.116417 0.48313,-0.325967 0.17462,-0.21537 0.17462,-0.506412 0,-0.291041 -0.17462,-0.500591 -0.17463,-0.20955 -0.48313,-0.320146 -0.3085,-0.116417 -0.70432,-0.116417 z m -2.404,3.36444 h 4.81964 v 0.500591 h -4.81964 z m 7.42738,-3.894135 h 3.92906 v 0.48895 h -3.92906 z m 0.0291,1.82774 h 3.87086 v 0.48895 h -3.87086 z m 0.71597,-1.437745 h 0.61118 v 1.699683 h -0.61118 z m 1.82774,0 h 0.61118 v 1.699683 h -0.61118 z m -3.02101,2.462212 h 4.81964 v 0.500591 h -4.81964 z m 2.10132,0.221191 h 0.61118 v 1.973261 h -0.61118 z m 7.03156,-3.341156 h 0.61119 v 3.16071 h -0.61119 z m -1.15835,3.265485 q 0.5588,0 0.96044,0.122238 0.40164,0.122237 0.62283,0.349249 0.22119,0.227013 0.22119,0.547159 0,0.320145 -0.22119,0.552978 -0.22119,0.227013 -0.62283,0.343429 -0.40164,0.122238 -0.96044,0.122238 -0.55297,0 -0.96043,-0.122238 -0.40164,-0.116416 -0.62283,-0.343429 -0.21537,-0.232833 -0.21537,-0.552978 0,-0.320146 0.21537,-0.547159 0.22119,-0.227012 0.62283,-0.349249 0.40746,-0.122238 0.96043,-0.122238 z m 0,0.477308 q -0.37253,0 -0.64029,0.06403 -0.26775,0.06403 -0.41328,0.186267 -0.1397,0.116417 -0.1397,0.291042 0,0.174624 0.1397,0.296862 0.14553,0.116416 0.41328,0.180446 0.26776,0.05821 0.64029,0.05821 0.38418,0 0.64612,-0.05821 0.26776,-0.06403 0.40746,-0.180446 0.1397,-0.122238 0.1397,-0.296862 0,-0.174625 -0.1397,-0.291042 -0.1397,-0.122237 -0.40746,-0.186267 -0.26194,-0.06403 -0.64612,-0.06403 z m -1.29222,-3.50996 h 0.50641 v 0.512233 q 0,0.512233 -0.18044,0.966258 -0.17463,0.448204 -0.51224,0.785812 -0.33178,0.337608 -0.81491,0.506412 l -0.30269,-0.483129 q 0.31433,-0.110596 0.55298,-0.296862 0.24448,-0.186267 0.41328,-0.4191 0.16881,-0.238654 0.2503,-0.506412 0.0873,-0.273579 0.0873,-0.552979 z m 0.12224,0 h 0.49477 v 0.512233 q 0,0.267758 0.0873,0.523875 0.0873,0.250295 0.2503,0.471487 0.1688,0.215371 0.40745,0.384175 0.24448,0.162983 0.54716,0.261937 l -0.29686,0.477308 q -0.35507,-0.116417 -0.63447,-0.320146 -0.27358,-0.20955 -0.46567,-0.488949 -0.19208,-0.2794 -0.29104,-0.611187 -0.099,-0.331788 -0.099,-0.6985 z"
         id="text9-3"
         aria-label="중샤오 푸싱" />
    </g>
  </g>
</svg>
