<?xml version="1.0" encoding="UTF-8" standalone="no"?>
<!-- Created with Inkscape (http://www.inkscape.org/) -->

<svg
   width="500"
   height="250"
   viewBox="0 0 132.29166 66.145833"
   version="1.1"
   id="svg1"
   inkscape:version="1.3.2 (091e20e, 2023-11-25, custom)"
   sodipodi:docname="br11.svg"
   xmlns:inkscape="http://www.inkscape.org/namespaces/inkscape"
   xmlns:sodipodi="http://sodipodi.sourceforge.net/DTD/sodipodi-0.dtd"
   xmlns="http://www.w3.org/2000/svg"
   xmlns:svg="http://www.w3.org/2000/svg">
  <sodipodi:namedview
     id="namedview1"
     pagecolor="#9e652e"
     bordercolor="#ffffff"
     borderopacity="1"
     inkscape:showpageshadow="0"
     inkscape:pageopacity="0"
     inkscape:pagecheckerboard="false"
     inkscape:deskcolor="#d1d1d1"
     inkscape:document-units="mm"
     inkscape:zoom="1.4289282"
     inkscape:cx="172.85683"
     inkscape:cy="154.66137"
     inkscape:window-width="1920"
     inkscape:window-height="1009"
     inkscape:window-x="1912"
     inkscape:window-y="-8"
     inkscape:window-maximized="1"
     inkscape:current-layer="g10" />
  <defs
     id="defs1">
    <rect
       x="157.85752"
       y="62.351248"
       width="329.07603"
       height="135.09437"
       id="rect4" />
  </defs>
  <g
     inkscape:label="Layer 1"
     inkscape:groupmode="layer"
     id="layer1">
    <rect
       style="fill:#9e652e;fill-opacity:1;stroke:none;stroke-width:0.953294;stroke-dasharray:none"
       id="rect5"
       width="132.29167"
       height="66.145836"
       x="-2.5431316e-06"
       y="-1.2715658e-06"
       ry="0" />
    <g
       id="g10"
       transform="translate(-1.5200092,0.39278857)">
      <path
         id="rect6"
         style="fill:#9e652e;stroke:#ffffff;stroke-width:0.555526"
         d="m 10.192887,24.927881 h 5.504048 c 1.747566,0 3.154451,1.406885 3.154451,3.154451 v 9.195593 c 0,1.747566 -1.406885,3.154451 -3.154451,3.154451 h -5.504048 c -1.747566,0 -3.1544511,-1.406885 -3.1544511,-3.154451 v -9.195593 c 0,-1.747566 1.4068851,-3.154451 3.1544511,-3.154451 z" />
      <path
         style="font-weight:bold;font-size:5.61969px;line-height:1.25;font-family:'Optima Bold';-inkscape-font-specification:'Optima Bold,  Bold';fill:#f9f9f9;stroke-width:0.25544"
         d="m 9.598385,31.782499 v -3.849487 h 0.2247876 1.3318664 q 0.01124,0.01124 0.02248,0.01124 0.01686,0 0.0281,0 0.01124,0 0.02248,0 0.01686,0 0.0281,0 0.17983,0.0056 0.342801,0.05058 0.162971,0.03934 0.314702,0.118014 0.151732,0.07306 0.224788,0.224787 0.07868,0.146112 0.07868,0.3709 v 0.01686 0.01686 0.02248 0.01686 q 0,0.168591 -0.06182,0.320322 -0.06182,0.146112 -0.17983,0.280985 -0.118014,0.134872 -0.269745,0.219168 -0.151732,0.07867 -0.331562,0.112393 0.196689,0.03372 0.3709,0.09554 0.17421,0.06182 0.314702,0.151732 0.146112,0.08992 0.213548,0.264125 0.07306,0.168591 0.07306,0.415857 0,0.297844 -0.101154,0.517012 -0.09553,0.213548 -0.292224,0.342801 -0.191069,0.134872 -0.410237,0.207928 -0.213548,0.06744 -0.449575,0.07306 h -0.224788 q -0.0056,0 -0.01686,0 -0.0056,0 -0.01124,0 -0.01124,0 -0.01686,0 -0.0056,0 -0.01686,0 -0.01686,0 -0.03372,0 -0.01124,0 -0.02248,0 H 9.598385 v 0 z m 0.713701,-0.219168 h 0.309083 q 0.196689,0.01124 0.34842,-0.03372 0.157352,-0.05058 0.280985,-0.146112 0.118013,-0.09553 0.196689,-0.196689 0.07868,-0.106774 0.118013,-0.224787 0,-0.01124 0,-0.02248 0.0056,-0.01124 0.01124,-0.0281 0,-0.01124 0,-0.02248 0.0056,-0.01124 0.0056,-0.02248 0.0056,-0.02248 0.0056,-0.04496 0.0056,-0.02248 0.0056,-0.04496 0,-0.280985 -0.08991,-0.466434 -0.0843,-0.19107 -0.264126,-0.280985 -0.151731,-0.07868 -0.382138,-0.123633 -0.230408,-0.04496 -0.54511,-0.05058 v 1.708385 z m 0,-1.950032 h 0.129253 q 0.247266,0.01124 0.438335,-0.03372 0.19107,-0.05058 0.325942,-0.146112 0.129253,-0.09553 0.202309,-0.236027 0.07868,-0.140492 0.09553,-0.325942 v -0.02248 l 0.0056,-0.01686 v -0.01124 -0.01686 q 0,-0.157352 -0.06744,-0.280985 -0.06744,-0.123633 -0.202309,-0.202309 -0.134872,-0.07868 -0.292223,-0.118013 -0.151732,-0.03934 -0.325942,-0.03934 l -0.309083,-0.01124 v 1.461119 z m 2.922235,2.1692 v -3.894445 h 0.224787 1.371205 q 0.280984,0.01124 0.488913,0.07868 0.213548,0.06744 0.34842,0.196689 0.134873,0.134873 0.202309,0.303463 0.06744,0.162971 0.06744,0.35966 0,0.19107 -0.0562,0.348421 -0.05058,0.151732 -0.162971,0.264126 -0.106775,0.112393 -0.230408,0.196689 -0.118013,0.0843 -0.247266,0.134872 -0.06182,0.02248 -0.123633,0.04496 -0.0562,0.02248 -0.118014,0.03372 -0.0562,0.01686 -0.112394,0.0281 -0.0562,0.0056 -0.101154,0.01124 l 1.506077,1.893835 h -0.224788 q -0.02248,0 -0.04496,0 -0.01686,0 -0.03934,-0.0056 -0.02248,0 -0.04496,0 -0.01686,-0.0056 -0.03372,-0.01124 -0.01686,0 -0.03372,0 -0.01124,0 -0.02248,0 -0.0056,0 -0.01124,0 -0.0056,0 -0.01686,0 -0.0056,0.0056 -0.01124,0.0056 -0.0056,0 -0.01686,0 -0.03934,0.0056 -0.0843,0.01124 -0.03934,0 -0.0843,0 h -0.224788 l -1.410542,-1.80392 v 1.80392 h -0.224788 q -0.01686,0 -0.03372,0 -0.01686,0 -0.03372,-0.0056 -0.0056,0 -0.01686,0 -0.0056,0 -0.01124,-0.0056 -0.01124,0 -0.01686,0 -0.0056,-0.0056 -0.01686,-0.0056 -0.0056,0 -0.01124,0 -0.0056,0 -0.0056,0 -0.0056,0.0056 -0.01124,0.0056 -0.0056,0 -0.01124,0 -0.03372,0.0056 -0.06744,0.01124 -0.03372,0 -0.06744,0 h -0.224787 v 0 z m 0.753038,-2.079285 q 0.01124,0.01124 0.0281,0.01686 0.01686,0 0.03372,0 0.213548,-0.0056 0.382139,-0.03934 0.16859,-0.03372 0.280984,-0.101154 0.129253,-0.07306 0.213548,-0.151732 0.08992,-0.08429 0.140493,-0.17421 0.03934,-0.06182 0.06182,-0.123633 0.0281,-0.06744 0.03372,-0.123634 0.01124,-0.06182 0.01124,-0.106774 0.0056,-0.04496 0.0056,-0.07306 0,-0.0281 -0.0056,-0.06182 -0.0056,-0.03372 -0.01686,-0.07868 -0.0056,-0.04496 -0.0281,-0.08992 -0.02248,-0.04496 -0.05058,-0.09554 -0.03934,-0.07306 -0.112394,-0.140492 -0.07306,-0.06744 -0.168591,-0.123633 -0.09553,-0.06182 -0.230407,-0.08991 -0.134872,-0.0281 -0.314703,-0.0281 l -0.264125,-0.01124 v 1.595992 0 z"
         id="text6"
         aria-label="BR" />
      <path
         style="font-weight:bold;font-size:5.61969px;line-height:1.25;font-family:'Optima Bold';-inkscape-font-specification:'Optima Bold,  Bold';fill:#f9f9f9;stroke-width:0.25544"
         d="m 10.241838,34.031613 q 0.162971,-0.07306 0.320322,-0.146112 0.162971,-0.07306 0.320323,-0.146112 0.157351,-0.06744 0.280984,-0.134873 0.129253,-0.06744 0.230407,-0.134872 l 0.224788,-0.0056 0.134873,0.03934 v 3.849487 h -0.224788 q -0.03372,-0.0056 -0.06182,-0.01686 -0.0281,-0.0056 -0.0562,-0.01124 -0.03372,0.0056 -0.06744,0.01124 -0.03372,0.01124 -0.07868,0.01686 H 11.039834 V 34.031613 L 10.646456,34.2564 h -0.224788 q -0.0056,0 -0.01686,-0.0056 -0.0056,-0.01124 -0.01686,-0.0281 -0.0056,-0.01124 -0.01124,-0.01686 -0.0056,-0.01124 -0.0056,-0.01686 -0.0056,-0.01124 -0.01124,-0.01686 -0.0056,-0.01124 -0.01124,-0.01686 -0.0056,-0.01124 -0.01124,-0.01686 -0.0056,-0.0056 -0.01124,-0.01686 -0.01124,-0.0056 -0.01686,-0.01124 -0.0056,-0.01124 -0.01124,-0.01686 -0.01124,-0.01686 -0.0281,-0.0281 -0.01124,-0.01686 -0.0281,-0.02248 v -0.01124 z m 3.3662,0 q 0.162971,-0.07306 0.320322,-0.146112 0.162971,-0.07306 0.320322,-0.146112 0.157351,-0.06744 0.280985,-0.134873 0.129253,-0.06744 0.230407,-0.134872 l 0.224788,-0.0056 0.134872,0.03934 v 3.849487 h -0.224787 q -0.03372,-0.0056 -0.06182,-0.01686 -0.0281,-0.0056 -0.0562,-0.01124 -0.03372,0.0056 -0.06744,0.01124 -0.03372,0.01124 -0.07868,0.01686 H 14.406033 V 34.031613 L 14.012655,34.2564 h -0.224787 q -0.0056,0 -0.01686,-0.0056 -0.0056,-0.01124 -0.01686,-0.0281 -0.0056,-0.01124 -0.01124,-0.01686 -0.0056,-0.01124 -0.0056,-0.01686 -0.0056,-0.01124 -0.01124,-0.01686 -0.0056,-0.01124 -0.01124,-0.01686 -0.0056,-0.01124 -0.01124,-0.01686 -0.0056,-0.0056 -0.01124,-0.01686 -0.01124,-0.0056 -0.01686,-0.01124 -0.0056,-0.01124 -0.01124,-0.01686 -0.01124,-0.01686 -0.0281,-0.0281 -0.01124,-0.01686 -0.0281,-0.02248 v -0.01124 z"
         id="text6-8"
         aria-label="11" />
      <path
         style="font-weight:bold;font-size:14.3047px;line-height:1.25;font-family:'Noto Serif TC';-inkscape-font-specification:'Noto Serif TC Bold';fill:#ffffff;stroke-width:0.25544"
         d="m 32.596498,35.912978 c 0.200266,0 0.343313,-0.07152 0.386227,-0.228875 -0.543578,-0.472056 -1.416165,-1.130072 -1.416165,-1.130072 l -0.772454,0.958415 H 30.13609 v -1.730869 h 2.360275 c 0.200266,0 0.343313,-0.07152 0.371923,-0.228875 -0.500665,-0.443445 -1.273119,-1.015633 -1.273119,-1.015633 l -0.70093,0.829672 h -0.815368 c 0.586493,-0.543578 1.18729,-1.201595 1.587822,-1.67365 0.300398,0.01431 0.472055,-0.100133 0.529274,-0.271789 l -1.888221,-0.543579 c -0.143047,0.72954 -0.400531,1.745174 -0.643711,2.489018 h -3.404519 l 0.114438,0.414836 h 2.1314 v 1.730869 h -2.560541 l 0.114437,0.400532 h 2.446104 v 3.018291 h 0.286094 c 0.843977,0 1.330337,-0.271789 1.344642,-0.343312 V 35.912978 Z M 26.702962,31.04938 c 0.357617,0.500664 0.686625,1.273118 0.70093,1.974048 1.230204,1.058548 2.703588,-1.330337 -0.543578,-2.059876 z m 6.465724,-3.018292 H 30.207613 V 26.51479 c 0.386227,-0.05722 0.500665,-0.200266 0.529274,-0.400532 l -2.231533,-0.185961 v 2.102791 h -5.750489 l 0.128742,0.400532 h 5.621747 v 1.88822 H 25.758852 L 23.92785,29.575996 v 9.813024 h 0.271789 c 0.715235,0 1.444775,-0.400532 1.444775,-0.586493 v -8.082155 h 7.6101 v 6.594466 c 0,0.185961 -0.05722,0.300399 -0.300398,0.300399 -0.386227,0 -1.873916,-0.114438 -1.873916,-0.114438 v 0.200266 c 0.743844,0.114438 1.058548,0.314704 1.301728,0.557884 0.228875,0.257484 0.314703,0.629406 0.357617,1.15868 1.959744,-0.185961 2.245838,-0.829672 2.245838,-1.931134 v -6.480029 c 0.286094,-0.05722 0.48636,-0.185961 0.572188,-0.300399 l -1.659345,-1.273118 -0.786759,0.886891 h -2.903854 v -1.88822 h 5.364263 c 0.21457,0 0.371922,-0.07152 0.414836,-0.228875 -0.70093,-0.586493 -1.816697,-1.43047 -1.816697,-1.43047 z m 6.994999,6.580162 c -0.600798,1.2159 -1.931135,2.946768 -3.290081,4.019621 l 0.128742,0.143047 c 1.845306,-0.643712 3.56187,-1.816697 4.591808,-2.86094 0.329009,0.05722 0.457751,-0.02861 0.529274,-0.157352 z m 1.015633,-1.344642 V 30.56302 h 4.978036 v 2.703588 z m 4.978036,0.414837 v 0.729539 h 0.314703 c 0.586493,0 1.444775,-0.357617 1.45908,-0.45775 v -3.10412 c 0.300398,-0.05722 0.500664,-0.185961 0.586492,-0.300399 l -1.687954,-1.273118 -0.815368,0.872587 H 41.279451 L 39.41984,29.432949 v 5.106778 h 0.24318 c 0.72954,0 1.516298,-0.386227 1.516298,-0.543579 v -0.314703 h 1.645041 v 3.633393 c 0,0.171657 -0.07152,0.257485 -0.314704,0.257485 -0.314703,0 -1.831001,-0.100133 -1.831001,-0.100133 v 0.185961 c 0.772453,0.114438 1.101462,0.314704 1.316032,0.557883 0.200266,0.24318 0.271789,0.629407 0.314703,1.158681 1.988354,-0.143047 2.274448,-0.886891 2.274448,-2.002658 v -3.690612 z m -0.686626,1.358946 c 0.97272,0.872587 2.202924,2.231533 2.732198,3.390214 1.788087,0.958415 2.717893,-2.517627 -2.603456,-3.490347 z m 2.088486,-6.894865 h -3.07551 c 0.858282,-0.529274 0.658016,-2.388885 -2.589151,-2.274448 l -0.100133,0.08583 c 0.629407,0.500664 1.344642,1.358946 1.587822,2.160009 l 0.05722,0.02861 h -6.379896 l 0.114437,0.414836 H 49.91949 c 0.21457,0 0.371922,-0.07152 0.414836,-0.228875 -0.658016,-0.586493 -1.788087,-1.444775 -1.788087,-1.444775 z m 6.708905,-2.16001 c -0.572188,1.144376 -1.831002,2.903854 -3.018292,4.033925 l 0.114438,0.143047 c 1.673649,-0.729539 3.29008,-1.88822 4.305714,-2.83233 0.329008,0.05722 0.457751,-0.02861 0.543579,-0.171657 z m 7.238178,8.682953 c -0.371922,0.72954 -0.886892,1.373251 -1.516298,1.959744 -0.75815,-0.300399 -1.45908,-0.672321 -2.074182,-1.115767 0.271789,-0.271789 0.543579,-0.557883 0.786759,-0.843977 z m 0.514969,-5.092473 v 1.172985 h -3.662003 v -1.172985 z m -3.662003,2.803721 v -1.2159 h 3.662003 v 1.2159 z m 4.119753,1.044243 -0.94411,0.829673 h -2.503322 c 0.185961,-0.24318 0.357617,-0.500665 0.514969,-0.72954 0.371922,0.01431 0.48636,-0.04291 0.543578,-0.200266 l -1.730868,-0.400532 v -0.0143 -0.128743 h 3.662003 v 0.443446 h 0.257485 c 0.529273,0 1.287423,-0.329008 1.301727,-0.429141 v -2.975377 c 0.27179,-0.05722 0.48636,-0.185962 0.572188,-0.286094 l -1.544907,-1.172986 -0.72954,0.801063 h -3.433128 l -0.658016,-0.257484 c 0.171656,-0.286094 0.343313,-0.572188 0.500664,-0.872587 h 6.022279 c 0.185961,0 0.343313,-0.07152 0.386227,-0.228875 -0.615102,-0.572188 -1.645041,-1.387556 -1.645041,-1.387556 l -0.901196,1.201595 H 58.50231 c 0.114437,-0.24318 0.228875,-0.500665 0.343313,-0.772454 0.314703,0 0.500664,-0.114438 0.557883,-0.300399 l -2.217229,-0.600797 c -0.21457,1.373251 -0.600797,2.803721 -1.072852,3.962402 l -1.759478,-0.97272 c -0.586493,1.473384 -1.873916,3.704917 -3.204253,5.163997 l 0.143047,0.143047 c 0.672321,-0.386227 1.330337,-0.843977 1.931135,-1.344642 v 6.522943 h 0.300398 c 0.700931,0 1.330337,-0.414836 1.330337,-0.572188 v -6.737513 c 0.27179,-0.04292 0.400532,-0.143047 0.443446,-0.257485 l -0.672321,-0.24318 c 0.472055,-0.472055 0.872587,-0.94411 1.201595,-1.373251 0.05722,0 0.100133,0.01431 0.157352,0.01431 -0.114438,0.271789 -0.228876,0.514969 -0.343313,0.743844 l 0.185961,0.114438 c 0.329008,-0.27179 0.672321,-0.586493 0.987024,-0.944111 v 3.232863 h 0.214571 c 0.286094,0 0.572188,-0.07152 0.815368,-0.157352 -0.185962,0.529274 -0.443446,1.087157 -0.72954,1.616431 -0.357618,-0.357618 -0.672321,-0.743844 -0.915501,-1.18729 l -0.185961,0.128742 c 0.228875,0.572188 0.500664,1.087157 0.815368,1.559212 -0.386227,0.643712 -0.829673,1.230205 -1.258814,1.659346 l 0.128743,0.128742 c 0.557883,-0.286094 1.115766,-0.672321 1.64504,-1.101462 0.45775,0.543579 0.97272,1.015634 1.559212,1.43047 -1.101462,0.72954 -2.417494,1.316032 -3.905183,1.716564 l 0.08583,0.214571 c 1.816697,-0.24318 3.404519,-0.700931 4.734856,-1.358947 1.044243,0.586493 2.260143,1.015634 3.59048,1.330337 0.185961,-0.786758 0.643711,-1.316032 1.330337,-1.487689 l 0.0143,-0.157351 c -1.158681,-0.128743 -2.303057,-0.329008 -3.390214,-0.643712 0.801063,-0.600797 1.459079,-1.316032 1.974048,-2.145705 0.343313,-0.01431 0.500665,-0.07152 0.600798,-0.200266 z m 3.089816,5.93645 c 2.088487,-0.429141 4.148363,-1.258813 5.349958,-2.117095 0.472055,0.05722 0.72954,-0.02861 0.829673,-0.200266 l -2.174315,-1.158681 c -0.772453,1.072853 -2.446103,2.489018 -4.076839,3.318691 z m 8.010632,-2.903854 c 1.745174,0.772454 2.803722,1.802393 3.3473,2.574846 1.43047,1.401861 4.362934,-1.959744 -3.275776,-2.746502 z m -1.072852,-5.793403 v 2.360275 h -0.543579 v -2.360275 z m -0.543579,2.775112 h 0.543579 v 0.643711 h 0.128742 c 0.27179,0 0.700931,-0.200266 0.700931,-0.300399 v -3.089815 c 0.171656,-0.02861 0.314703,-0.114437 0.371922,-0.185961 L 72.83562,29.83348 72.406479,30.248317 H 72.020252 L 71.16197,29.86209 v 4.477371 h 0.114438 c 0.343313,0 0.686625,-0.185961 0.686625,-0.257485 z m -3.747831,-0.48636 h 1.115767 c 0.07152,0 0.128742,-0.0143 0.171656,-0.02861 v 2.446104 h -1.230204 z m 1.287423,-5.764794 v 2.560541 c -0.300399,-0.371922 -0.72954,-0.815368 -0.72954,-0.815368 l -0.48636,0.829673 h -0.143047 l -0.04291,-2.174315 c 0.529274,-0.128742 1.044243,-0.300398 1.344642,-0.429141 z m -1.344642,2.975377 h 1.144376 c 0.07152,0 0.143047,-0.0143 0.200266,-0.04291 v 2.37458 C 69.187922,32.122232 68.78739,31.693091 68.78739,31.693091 l -0.500665,0.872587 h -0.07152 z m 5.607443,-2.803721 v 1.45908 C 73.379199,28.43162 72.821315,27.973869 72.821315,27.973869 l -0.557883,0.72954 H 70.91879 l 0.114438,0.414836 h 2.431799 c 0.128742,0 0.228875,-0.02861 0.300399,-0.100133 v 6.351287 h -3.032597 v -8.010632 z m 1.616431,0.02861 h 0.94411 l -0.04291,2.37458 H 75.23881 l 0.128742,0.400531 h 0.901196 l -0.05722,2.40319 h -1.029938 l 0.128742,0.386227 h 0.901196 l -0.05722,2.417494 H 75.009934 V 27.48751 c 0.143047,-0.04292 0.27179,-0.100133 0.357618,-0.157352 z m 2.217228,7.838975 0.157352,-7.624405 c 0.300398,-0.04291 0.429141,-0.100133 0.543578,-0.21457 l -1.459079,-1.2159 -0.643712,0.801063 h -0.94411 l 0.04291,0.157352 -1.044243,-0.815368 -0.615102,0.629407 h -2.83233 l -1.301728,-0.529274 v 0.357618 l -0.915501,-0.872587 c -0.157352,0.257484 -0.48636,0.758149 -0.801063,1.18729 l -1.101462,-0.343313 0.185961,8.625734 H 65.4687 l 0.128742,0.400532 h 13.317675 c 0.200266,0 0.329009,-0.07152 0.371923,-0.228875 C 78.886508,35.069 78.142664,34.36807 78.142664,34.36807 Z"
         id="text7"
         aria-label="南京復興" />
      <path
         style="font-weight:bold;font-size:5.61969px;line-height:1.25;font-family:'Optima Bold';-inkscape-font-specification:'Optima Bold,  Bold';fill:#f9f9f9;stroke-width:0.25544"
         d="m 81.770049,32.43367 v -3.894445 h 0.224788 0.269745 l 2.472664,2.71993 v -2.71993 h 0.224787 q 0.01124,0.01686 0.0281,0.02248 0.01686,0.0056 0.03372,0.01124 0.02248,-0.0056 0.03934,-0.01124 0.01686,-0.0056 0.0281,-0.01124 l 0.224788,-0.0056 V 32.43367 H 85.091286 84.872118 L 82.348877,29.629445 V 32.43367 H 82.12409 q -0.0056,0 -0.01124,0 -0.0056,0 -0.01124,0 -0.01124,0 -0.01686,0 -0.0056,-0.0056 -0.01124,-0.0056 -0.01124,0 -0.02248,0 -0.0056,0 -0.01686,0.0056 -0.01124,0 -0.02248,0 -0.0056,0 -0.01686,0 h -0.224788 v 0 z m 4.124851,0 1.770202,-3.939403 h 0.224788 0.129253 l 1.730864,3.939403 h -0.224788 q -0.01686,0 -0.03934,0 -0.01686,0 -0.03934,0 -0.02248,0 -0.04496,0 -0.01686,0 -0.04496,0 -0.01124,0 -0.0281,0 -0.01124,0 -0.02248,-0.0056 -0.01124,0 -0.0281,0 -0.01124,0 -0.02248,0 -0.01124,0.0056 -0.0281,0.0056 -0.01124,0 -0.02248,0 -0.01124,0 -0.02248,0 -0.01124,0 -0.01686,0 -0.01124,0 -0.02248,0 -0.0056,0 -0.01686,0 h -0.224787 l -0.618166,-1.551034 h -1.146417 l -0.573208,1.551034 h -0.224788 q -0.01124,0 -0.0281,0 -0.01124,0 -0.02248,0 l -0.0281,-0.0056 q -0.0056,0.0056 -0.01686,0.0056 -0.01124,0 -0.01686,0 -0.01124,0 -0.02248,0 -0.0056,0 -0.01686,0 h -0.224788 q -0.01686,0 -0.03372,0 -0.01686,0 -0.03372,0 v 0 z m 1.376824,-1.81516 h 0.921629 l -0.460815,-1.101459 -0.460814,1.101459 z m 3.090827,1.81516 v -3.894445 h 0.224787 0.269746 l 2.472663,2.71993 v -2.71993 h 0.224788 q 0.01124,0.01686 0.0281,0.02248 0.01686,0.0056 0.03372,0.01124 0.02248,-0.0056 0.03934,-0.01124 0.01686,-0.0056 0.0281,-0.01124 l 0.224787,-0.0056 V 32.43367 H 93.683788 93.46462 l -2.523241,-2.804225 v 2.804225 h -0.224788 q -0.0056,0 -0.01124,0 -0.0056,0 -0.01124,0 -0.01124,0 -0.01686,0 -0.0056,-0.0056 -0.01124,-0.0056 -0.01124,0 -0.02248,0 -0.0056,0 -0.01686,0.0056 -0.01124,0 -0.02248,0 -0.0056,0 -0.01686,0 h -0.224787 v 0 z m 4.922846,-3.894445 q 0.0281,0.01686 0.05058,0.0281 0.0281,0.0056 0.06182,0.01124 0.0056,0 0.0056,0 0.0056,0 0.01124,0 0.0056,0 0.0056,0 0.0056,0 0.01124,0 0.03372,-0.0056 0.06182,-0.01124 0.03372,-0.01124 0.0562,-0.01686 l 0.224787,-0.0056 v 3.6247 q 0,0.213548 -0.07868,0.387758 -0.07868,0.174211 -0.241647,0.325942 -0.157351,0.151732 -0.348421,0.224788 -0.18545,0.07868 -0.404617,0.0843 h -0.224788 -0.02248 -0.01124 l -0.01686,-0.0056 h -0.02248 l -0.0056,-0.17983 q 0.230408,-0.01686 0.3709,-0.106774 0.140492,-0.08991 0.191069,-0.252886 0.05058,-0.157351 0.07306,-0.348421 0.0281,-0.196689 0.0281,-0.427096 v -3.332476 h 0.224787 v 0 z m 1.685907,0 q 0.0281,0.01686 0.05058,0.0281 0.0281,0.0056 0.06182,0.01124 0.0056,0 0.0056,0 0.0056,0 0.01124,0 0.0056,0 0.0056,0 0.0056,0 0.01124,0 0.03372,-0.0056 0.06182,-0.01124 0.03372,-0.01124 0.0562,-0.01686 l 0.224788,-0.0056 v 3.888825 h -0.224788 q -0.02248,0 -0.0562,0 -0.0281,-0.0056 -0.0562,-0.01124 -0.0056,0 -0.01124,0 0,0 -0.0056,0 -0.0056,0 -0.01124,0 -0.0056,0 -0.01124,0 -0.03372,0.0056 -0.06182,0.01124 -0.02248,0 -0.05058,0 h -0.224788 v -3.894445 h 0.224788 v 0 z m 1.551034,3.894445 v -3.894445 h 0.224788 0.269745 l 2.472659,2.71993 v -2.71993 h 0.22479 q 0.0112,0.01686 0.0281,0.02248 0.0169,0.0056 0.0337,0.01124 0.0225,-0.0056 0.0393,-0.01124 0.0169,-0.0056 0.0281,-0.01124 l 0.22479,-0.0056 v 3.888825 h -0.22479 -0.21916 l -2.523244,-2.804225 v 2.804225 h -0.224787 q -0.0056,0 -0.01124,0 -0.0056,0 -0.01124,0 -0.01124,0 -0.01686,0 -0.0056,-0.0056 -0.01124,-0.0056 -0.01124,0 -0.02248,0 -0.0056,0 -0.01686,0.0056 -0.01124,0 -0.02248,0 -0.0056,0 -0.01686,0 h -0.224788 v 0 z m 4.388972,-1.905075 q 0.0225,-0.443955 0.12926,-0.775517 0.11239,-0.331562 0.30908,-0.54511 0.19669,-0.213548 0.41024,-0.35966 0.21917,-0.146112 0.45519,-0.224788 0.12364,-0.04496 0.24165,-0.07306 0.12363,-0.0281 0.24165,-0.04496 0.11801,-0.01686 0.22478,-0.0281 0.1124,-0.01124 0.20231,-0.01686 l 0.22479,-0.0056 q 0.17983,0.0056 0.35966,0.0281 0.18545,0.01686 0.3709,0.0562 0.17983,0.03934 0.35966,0.112394 0.18545,0.06744 0.3709,0.162971 l -0.17983,0.477673 h -0.22479 q -0.0281,-0.01124 -0.0618,-0.03372 -0.0337,-0.0281 -0.0674,-0.06182 -0.0337,-0.03372 -0.0731,-0.06744 -0.0337,-0.03372 -0.0787,-0.06744 -0.0787,-0.06182 -0.17983,-0.118013 -0.10116,-0.0562 -0.21917,-0.106775 -0.0955,-0.04496 -0.21917,-0.06744 -0.11801,-0.0281 -0.2585,-0.03372 -0.0281,0 -0.0618,0.0056 -0.0281,0 -0.0618,0.0056 -0.0562,0.0056 -0.11801,0.01686 -0.0562,0.01124 -0.11801,0.0281 -0.20793,0.0562 -0.40462,0.17983 -0.19107,0.118014 -0.3709,0.303463 -0.17421,0.18545 -0.27537,0.455195 -0.10115,0.269745 -0.12925,0.635025 v 0.01686 0.02248 0.02248 0.02248 q -0.006,0.415858 0.10678,0.753039 0.11239,0.337181 0.33718,0.595687 0.21354,0.241647 0.48329,0.3709 0.27536,0.123633 0.61255,0.140492 0.11239,-0.0056 0.21354,-0.01686 0.10678,-0.01686 0.20793,-0.03934 0.12926,-0.0281 0.21917,-0.06744 0.0955,-0.04496 0.16297,-0.09554 V 30.61851 h 0.22479 q 0.0112,0.01124 0.0225,0.01686 0.0112,0 0.0281,0.0056 0.0112,0.0056 0.0225,0.01124 0.0112,0 0.0225,0 0.006,0 0.006,0 0.006,0 0.0112,0 0.006,0.0056 0.006,0.0056 0.006,0 0.0112,0 0,0 0,0 0,0 0.006,0 0,0 0,0 0,0 0,0 0.0281,-0.0056 0.0618,-0.01124 0.0337,-0.01124 0.0674,-0.01686 l 0.22479,-0.0056 v 1.63533 l -0.0169,0.01686 -0.0169,0.0056 q -0.0281,0.01686 -0.0674,0.0281 -0.0337,0.01124 -0.0731,0.02248 -0.0393,0.01686 -0.0843,0.0281 -0.045,0.01124 -0.0955,0.02248 -0.10115,0.02248 -0.20231,0.03934 -0.10115,0.01686 -0.21355,0.0281 -0.10115,0.01686 -0.19668,0.0281 -0.0899,0.01686 -0.18545,0.02248 -0.0899,0.01124 -0.16859,0.01686 -0.0787,0.0056 -0.1405,0.0056 h -0.22478 q -0.0112,0 -0.0281,0 -0.0112,0 -0.0225,0 -0.0112,0 -0.0281,0 -0.0112,0 -0.0225,0 -0.47767,0 -0.85419,-0.129253 -0.37652,-0.129253 -0.65751,-0.404617 -0.27536,-0.269746 -0.41585,-0.629406 -0.1405,-0.36528 -0.1405,-0.820474 v -0.01124 z m 6.78859,-1.944413 h 1.98937 q -0.006,0.02248 -0.0112,0.03934 0,0.01124 -0.006,0.02248 -0.006,0.01124 -0.006,0.02248 0,0.01124 0,0.02248 -0.006,0.01686 -0.0112,0.0281 0,0.01124 0,0.02248 0,0.01124 0,0.0281 0,0.01124 0,0.02248 0,0.02248 0,0.05058 0,0.02248 0.006,0.05058 0.006,0.02248 0.0112,0.05058 0.0112,0.02248 0.0169,0.05058 l -0.22479,-0.0056 q -0.0225,0.0056 -0.045,0.0056 -0.0169,-0.0056 -0.0337,-0.01124 -0.0169,0 -0.0337,-0.0056 -0.0169,-0.0056 -0.0337,-0.01124 -0.0843,-0.01124 -0.16859,-0.02248 -0.0843,-0.01124 -0.16297,-0.02248 -0.0843,-0.0056 -0.16859,-0.01686 -0.0843,-0.01124 -0.16859,-0.01686 -0.1124,-0.01124 -0.23041,-0.01686 -0.11801,-0.0056 -0.23603,-0.0056 v 1.354345 h 0.61817 l 0.57321,-0.04496 h 0.22478 q -0.006,0.0281 -0.0112,0.05058 -0.006,0.01686 -0.0112,0.03372 0,0.0056 -0.006,0.01686 0,0.0056 0,0.01124 -0.006,0.01124 -0.006,0.01686 0,0.0056 0,0.01686 v 0.01124 0.02248 q 0,0.0281 0,0.05058 0,0.01686 0.006,0.03934 0,0.01124 0,0.02248 0.006,0.01124 0.0112,0.02248 0.006,0.01686 0.006,0.0281 0.006,0.01124 0.0112,0.02248 l -0.22478,-0.0056 -0.57321,-0.04496 h -0.61817 v 1.944413 h -0.22479 q -0.0225,0 -0.0506,0 -0.0225,-0.0056 -0.0506,-0.01124 0,0 -0.006,0 0,0 0,0 0,0 -0.006,0 0,0 0,0 0,0 -0.006,0 0,0 -0.006,0 -0.0337,0.0056 -0.0674,0.01124 -0.0337,0 -0.0674,0 h -0.22479 v -3.849488 h 0.22479 v 0 z m 2.83233,2.343411 v -2.388368 h 0.22478 q 0.0393,0.01686 0.0731,0.0281 0.0393,0.0056 0.073,0.01124 0.0169,0 0.0337,0 0.0169,0 0.0337,-0.0056 0.0225,-0.0056 0.045,-0.01124 0.0225,-0.0056 0.045,-0.01124 l 0.22478,-0.0056 v 2.298453 q 0,0.393378 0.0787,0.668743 0.0843,0.269745 0.25289,0.432716 0.15173,0.146112 0.3428,0.230407 0.19107,0.07868 0.41585,0.08991 0.28099,-0.01124 0.4833,-0.101154 0.20793,-0.08991 0.33156,-0.247266 0.13487,-0.179831 0.20793,-0.432717 0.0787,-0.258505 0.0955,-0.590067 v -2.35465 h 0.22479 q 0.0112,0.01124 0.0169,0.01686 0.006,0 0.0169,0.0056 0.006,0.0056 0.0112,0.01124 0.0112,0 0.0169,0 0.0112,0 0.0168,0 0.0112,-0.0056 0.0169,-0.01124 0.0112,-0.0056 0.0169,-0.0056 0.0112,-0.0056 0.0169,-0.0056 l 0.22479,-0.0056 v 2.253495 q 0,0.393379 -0.0955,0.708081 -0.0899,0.309083 -0.27537,0.54511 -0.18545,0.241647 -0.50015,0.35966 -0.3147,0.112394 -0.76428,0.112394 h -0.22479 q -0.0112,0 -0.0281,0 -0.0112,0 -0.0225,0 -0.0112,0 -0.0281,0 -0.0112,0 -0.0225,0 -0.46644,0 -0.78114,-0.118013 -0.3147,-0.118014 -0.47767,-0.359661 -0.15735,-0.247266 -0.24165,-0.522631 -0.0787,-0.275365 -0.0787,-0.584447 v -0.01124 z m 5.6253,-0.438336 -1.19699,-1.905075 h 0.22479 q 0.0337,0.01686 0.0674,0.0281 0.0393,0.0056 0.0787,0.01124 0.006,0 0.0112,0 0.006,0 0.0112,0 0.006,0 0.0112,0.0056 0.006,0 0.0112,0 0.006,0 0.0112,0 0.006,0 0.0169,-0.0056 0.006,0 0.0112,0 0.006,0 0.0112,0 0.045,-0.0056 0.0787,-0.01124 0.0393,-0.01124 0.073,-0.01686 l 0.22479,-0.0056 0.77552,1.27567 0.81485,-1.28129 h 0.22479 q 0.0225,0.01124 0.0393,0.02248 0.0169,0.0056 0.0337,0.01124 0.0281,-0.0056 0.0506,-0.01124 0.0281,-0.0056 0.0506,-0.01124 l 0.22479,-0.0056 -1.19699,1.719625 1.33186,2.124243 h -0.22479 q -0.0393,0 -0.0843,0 -0.0393,-0.0056 -0.0843,-0.01124 -0.006,0 -0.0112,0 -0.006,0 -0.0112,-0.0056 -0.0112,0 -0.0169,0 -0.006,0 -0.0112,0 -0.006,0 -0.0112,0 -0.006,0 -0.0112,0 -0.0112,0.0056 -0.0169,0.0056 -0.006,0 -0.0112,0 -0.0393,0.0056 -0.0843,0.01124 -0.0393,0 -0.0843,0 h -0.22479 l -0.86543,-1.528556 -0.85981,1.528556 h -0.22479 -0.0281 l -0.0225,-0.01124 q -0.006,0.0056 -0.0112,0.0056 -0.006,0 -0.0169,-0.0056 -0.006,0 -0.0112,0 -0.006,0 -0.0169,0 0,0 0,0 0,0 0,0 -0.006,0 -0.006,0 0,0 0,0 -0.0337,0.0056 -0.073,0.01124 -0.0337,0 -0.0787,0 h -0.22478 l 1.33186,-1.944413 v 0 z m 2.92224,-1.950032 q 0.0281,0.01686 0.0506,0.0281 0.0281,0.0056 0.0618,0.01124 0.006,0 0.006,0 0.006,0 0.0112,0 0.006,0 0.006,0 0.006,0 0.0112,0 0.0337,-0.0056 0.0618,-0.01124 0.0337,-0.01124 0.0562,-0.01686 l 0.22479,-0.0056 v 3.888825 h -0.22479 q -0.0225,0 -0.0562,0 -0.0281,-0.0056 -0.0562,-0.01124 -0.006,0 -0.0112,0 0,0 -0.006,0 -0.006,0 -0.0112,0 -0.006,0 -0.0112,0 -0.0337,0.0056 -0.0618,0.01124 -0.0225,0 -0.0506,0 h -0.22479 v -3.894445 h 0.22479 v 0 z m 1.55103,3.894445 v -3.894445 h 0.22479 0.26974 l 2.47267,2.71993 v -2.71993 h 0.22479 q 0.0112,0.01686 0.0281,0.02248 0.0169,0.0056 0.0337,0.01124 0.0225,-0.0056 0.0393,-0.01124 0.0169,-0.0056 0.0281,-0.01124 l 0.22479,-0.0056 v 3.888825 h -0.22479 -0.21917 l -2.52324,-2.804225 v 2.804225 h -0.22479 q -0.006,0 -0.0112,0 -0.006,0 -0.0112,0 -0.0112,0 -0.0169,0 -0.006,-0.0056 -0.0112,-0.0056 -0.0112,0 -0.0225,0 -0.006,0 -0.0169,0.0056 -0.0112,0 -0.0225,0 -0.006,0 -0.0169,0 h -0.22479 v 0 z m 4.38898,-1.905075 q 0.0225,-0.443955 0.12925,-0.775517 0.11239,-0.331562 0.30908,-0.54511 0.19669,-0.213548 0.41024,-0.35966 0.21917,-0.146112 0.45519,-0.224788 0.12364,-0.04496 0.24165,-0.07306 0.12363,-0.0281 0.24165,-0.04496 0.11801,-0.01686 0.22479,-0.0281 0.11239,-0.01124 0.2023,-0.01686 l 0.22479,-0.0056 q 0.17983,0.0056 0.35966,0.0281 0.18545,0.01686 0.3709,0.0562 0.17983,0.03934 0.35966,0.112394 0.18545,0.06744 0.3709,0.162971 l -0.17983,0.477673 h -0.22479 q -0.0281,-0.01124 -0.0618,-0.03372 -0.0337,-0.0281 -0.0674,-0.06182 -0.0337,-0.03372 -0.0731,-0.06744 -0.0337,-0.03372 -0.0787,-0.06744 -0.0787,-0.06182 -0.17983,-0.118013 -0.10116,-0.0562 -0.21917,-0.106775 -0.0955,-0.04496 -0.21917,-0.06744 -0.11801,-0.0281 -0.2585,-0.03372 -0.0281,0 -0.0618,0.0056 -0.0281,0 -0.0618,0.0056 -0.0562,0.0056 -0.11801,0.01686 -0.0562,0.01124 -0.11801,0.0281 -0.20793,0.0562 -0.40462,0.17983 -0.19107,0.118014 -0.3709,0.303463 -0.17421,0.18545 -0.27536,0.455195 -0.10116,0.269745 -0.12926,0.635025 v 0.01686 0.02248 0.02248 0.02248 q -0.006,0.415858 0.10678,0.753039 0.11239,0.337181 0.33718,0.595687 0.21355,0.241647 0.48329,0.3709 0.27537,0.123633 0.61255,0.140492 0.11239,-0.0056 0.21355,-0.01686 0.10677,-0.01686 0.20792,-0.03934 0.12926,-0.0281 0.21917,-0.06744 0.0955,-0.04496 0.16297,-0.09554 V 30.61851 h 0.22479 q 0.0112,0.01124 0.0225,0.01686 0.0112,0 0.0281,0.0056 0.0112,0.0056 0.0225,0.01124 0.0112,0 0.0225,0 0.006,0 0.006,0 0.006,0 0.0112,0 0.006,0.0056 0.006,0.0056 0.006,0 0.0112,0 0,0 0,0 0,0 0.006,0 0,0 0,0 0,0 0,0 0.0281,-0.0056 0.0618,-0.01124 0.0337,-0.01124 0.0674,-0.01686 l 0.22478,-0.0056 v 1.63533 l -0.0169,0.01686 -0.0169,0.0056 q -0.0281,0.01686 -0.0674,0.0281 -0.0337,0.01124 -0.0731,0.02248 -0.0393,0.01686 -0.0843,0.0281 -0.045,0.01124 -0.0955,0.02248 -0.10115,0.02248 -0.20231,0.03934 -0.10115,0.01686 -0.21354,0.0281 -0.10116,0.01686 -0.19669,0.0281 -0.0899,0.01686 -0.18545,0.02248 -0.0899,0.01124 -0.16859,0.01686 -0.0787,0.0056 -0.1405,0.0056 h -0.22478 q -0.0112,0 -0.0281,0 -0.0112,0 -0.0225,0 -0.0112,0 -0.0281,0 -0.0112,0 -0.0225,0 -0.47767,0 -0.85419,-0.129253 -0.37652,-0.129253 -0.6575,-0.404617 -0.27537,-0.269746 -0.41586,-0.629406 -0.14049,-0.36528 -0.14049,-0.820474 v -0.01124 z"
         id="text8"
         aria-label="NANJING FUXING" />
      <path
         style="font-weight:500;font-size:5.61969px;line-height:1.25;font-family:'Noto Sans JP';-inkscape-font-specification:'Noto Sans JP Medium';fill:#ffffff;stroke-width:0.25544"
         d="m 81.871207,35.22404 h 4.967806 v 0.500152 h -4.967806 z m 1.191374,2.326551 h 2.596297 v 0.421477 h -2.596297 z m -0.118013,0.90477 h 2.826704 v 0.438336 h -2.826704 z m 1.140797,-0.696841 h 0.505772 v 2.034328 h -0.505772 z m -1.950032,-1.517316 h 4.068655 v 0.494532 h -3.534785 v 3.175125 h -0.53387 z m 3.905684,0 h 0.53949 v 3.102068 q 0,0.213549 -0.0562,0.325942 -0.0562,0.112394 -0.213548,0.168591 -0.151731,0.0562 -0.398998,0.06744 -0.241646,0.01124 -0.584447,0.01124 -0.01686,-0.101155 -0.07306,-0.236027 -0.05058,-0.129253 -0.106775,-0.224788 0.162971,0.0056 0.314703,0.0056 0.157351,0.0056 0.280985,0 0.123633,0 0.16859,0 0.07868,0 0.101155,-0.02248 0.0281,-0.0281 0.0281,-0.09553 z m -2.71993,0.663123 0.421477,-0.129253 q 0.106774,0.146112 0.202309,0.325942 0.09553,0.17983 0.140492,0.314703 L 83.63579,37.57307 q -0.03372,-0.140492 -0.129253,-0.325942 -0.08991,-0.191069 -0.18545,-0.342801 z m 1.657809,-0.129253 0.449575,0.134873 q -0.106774,0.207928 -0.224788,0.415857 -0.118013,0.207928 -0.224787,0.35404 l -0.382139,-0.118013 q 0.06744,-0.106774 0.134872,-0.247267 0.07306,-0.140492 0.134873,-0.280984 0.06744,-0.140492 0.112394,-0.258506 z m -0.91039,-2.051187 h 0.584448 v 1.860118 h -0.584448 z m 3.43925,0.584448 h 4.934088 v 0.511392 h -4.934088 z m 2.169201,-0.606926 h 0.567588 v 0.865432 h -0.567588 z m -0.972207,2.039947 v 0.803616 h 2.551339 v -0.803616 z m -0.528251,-0.460815 h 3.641559 v 1.730865 h -3.641559 z m 2.804226,2.242257 0.483293,-0.236027 q 0.18545,0.185449 0.382139,0.404617 0.202309,0.213549 0.382139,0.427097 0.17983,0.207928 0.292224,0.376519 l -0.522632,0.269745 q -0.09553,-0.168591 -0.269745,-0.382139 -0.16859,-0.219168 -0.365279,-0.443955 -0.19669,-0.230408 -0.382139,-0.415857 z m -1.292529,-0.708081 h 0.556349 v 1.522936 q 0,0.213548 -0.0562,0.331561 -0.0562,0.118014 -0.224787,0.174211 -0.162971,0.0562 -0.415857,0.06744 -0.247267,0.01124 -0.606927,0.01124 -0.01686,-0.112393 -0.06744,-0.252886 -0.05058,-0.140492 -0.106774,-0.252886 0.17421,0.0056 0.337181,0.01124 0.162971,0 0.286604,0 0.123634,-0.0056 0.168591,-0.0056 0.07868,0 0.101154,-0.01686 0.0281,-0.02248 0.0281,-0.07868 z m -1.309388,0.472054 0.53949,0.17421 q -0.134872,0.219168 -0.320322,0.455195 -0.17983,0.230407 -0.382139,0.438336 -0.202309,0.202309 -0.404618,0.36528 -0.08429,-0.07868 -0.213548,-0.168591 -0.123633,-0.08991 -0.219168,-0.146112 0.202309,-0.140492 0.393379,-0.325942 0.191069,-0.191069 0.34842,-0.398998 0.157352,-0.207929 0.258506,-0.393378 z m 7.018993,-3.585362 0.522631,0.123633 q -0.17421,0.477673 -0.438336,0.927249 -0.258505,0.443955 -0.550729,0.747418 -0.04496,-0.04496 -0.129253,-0.101154 -0.0843,-0.06182 -0.174211,-0.118014 -0.08429,-0.0562 -0.146112,-0.08991 0.292224,-0.269745 0.533871,-0.668743 0.241647,-0.398998 0.382139,-0.820474 z m 0.02248,0.550729 h 2.703071 v 0.438336 h -2.933479 z m 0.247266,1.764583 v 0.325942 h 1.618471 v -0.325942 z m 0,-0.646265 v 0.314703 h 1.618471 v -0.314703 z m -0.477674,-0.35404 h 2.590677 v 1.674668 h -2.590677 z m 0.640645,1.528556 0.460815,0.134872 q -0.236027,0.421477 -0.612547,0.781137 -0.376519,0.35966 -0.764277,0.590068 -0.03934,-0.04496 -0.106775,-0.106775 -0.06744,-0.06182 -0.140492,-0.123633 -0.06744,-0.06182 -0.123633,-0.101154 0.387759,-0.202309 0.736179,-0.505772 0.348421,-0.309083 0.55073,-0.668743 z m -0.08992,0.72494 q 0.213548,0.320322 0.584448,0.567588 0.376519,0.247267 0.871052,0.410238 0.494532,0.157351 1.07336,0.224787 -0.07868,0.07868 -0.16859,0.207929 -0.08991,0.134872 -0.140492,0.236027 -0.606927,-0.08991 -1.112699,-0.292224 -0.500152,-0.202309 -0.887911,-0.505772 -0.382139,-0.309083 -0.640645,-0.713701 z m 0.01124,-0.236027 h 1.680288 v 0.36528 H 95.41466 Z m 1.545415,0 h 0.101155 l 0.08992,-0.02248 0.320322,0.157351 q -0.196689,0.398998 -0.511392,0.696842 -0.314703,0.292224 -0.71932,0.505772 -0.404618,0.207928 -0.871052,0.342801 -0.460815,0.134873 -0.955347,0.213548 -0.0281,-0.09553 -0.101155,-0.224787 -0.06744,-0.129253 -0.129253,-0.213549 0.455195,-0.05058 0.882292,-0.157351 0.432716,-0.112394 0.803615,-0.280984 0.3709,-0.168591 0.651884,-0.404618 0.280985,-0.236027 0.438336,-0.54511 z m -3.07397,-2.152342 0.472054,0.174211 q -0.19107,0.337181 -0.438336,0.674363 -0.247267,0.331561 -0.528251,0.629405 -0.275365,0.292224 -0.55073,0.522631 -0.02248,-0.06182 -0.07867,-0.151732 -0.05058,-0.08991 -0.106774,-0.185449 -0.0562,-0.09553 -0.101155,-0.146112 0.247267,-0.19107 0.494533,-0.432716 0.247266,-0.241647 0.460814,-0.517012 0.219168,-0.280984 0.37652,-0.567589 z m -0.118014,-1.174515 0.472054,0.18545 q -0.168591,0.241647 -0.393378,0.488913 -0.224788,0.247266 -0.466434,0.472054 -0.241647,0.224788 -0.483294,0.398998 -0.03372,-0.0562 -0.08429,-0.123633 -0.05058,-0.07306 -0.106774,-0.146112 -0.05058,-0.07306 -0.09553,-0.118014 0.213548,-0.151731 0.432716,-0.342801 0.219168,-0.196689 0.410238,-0.410237 0.191069,-0.213548 0.314702,-0.404618 z m -0.376519,2.292834 0.443955,-0.443956 0.0562,0.02248 v 3.360575 h -0.500152 z m 4.922848,1.135177 h 5.130779 v 0.494533 h -5.130779 z m 2.107389,-2.422086 h 0.91038 v 0.348421 h -0.91038 z m 1.57913,-0.73056 h 0.88791 v 0.438336 h -0.88791 z m 0.0281,1.056502 h 0.81485 v 0.432716 h -0.81485 z m 0,1.034023 h 0.79799 v 0.432716 h -0.79799 z m -3.107692,-1.034023 h 0.809232 v 0.432716 h -0.809232 z m 0.01686,1.034023 h 0.792373 v 0.432716 h -0.792373 z m 0.949723,-2.096145 h 1.99499 v 3.360575 h -0.39899 v -2.950337 h -1.21386 v 2.950337 h -0.38214 z m 0.81486,1.730865 v 0.640645 h 0.33718 v -0.640645 z m -0.24165,-0.325942 h 0.8261 v 1.286909 h -0.8261 z m -1.747721,-1.382444 0.584448,0.112394 q -0.01686,0.06182 -0.123633,0.07868 l 0.08992,3.158265 h -0.455195 z m 3.894441,-0.01686 h 0.46644 q -0.006,0.415857 -0.0169,0.882291 -0.006,0.466435 -0.0225,0.932869 -0.0169,0.466434 -0.0393,0.882291 -0.0169,0.415857 -0.0393,0.73056 h -0.46082 q 0.0281,-0.320322 0.045,-0.741799 0.0225,-0.421477 0.0393,-0.887911 0.0169,-0.466434 0.0225,-0.927249 0.006,-0.460815 0.006,-0.871052 z m -2.93347,-0.252886 0.35966,0.398998 q -0.24165,0.123633 -0.511395,0.236027 -0.269745,0.112394 -0.505772,0.191069 -0.01686,-0.07306 -0.06182,-0.17983 -0.04496,-0.112393 -0.08992,-0.191069 0.213548,-0.09553 0.438336,-0.219168 0.224787,-0.129253 0.370903,-0.236027 z m 1.65219,4.282204 0.38775,-0.354041 q 0.30909,0.140493 0.62941,0.303464 0.32032,0.157351 0.60131,0.314702 0.2866,0.157351 0.48891,0.286604 l -0.50577,0.36528 q -0.18545,-0.129253 -0.44958,-0.292224 -0.2585,-0.157351 -0.55635,-0.320322 -0.29784,-0.162971 -0.59568,-0.303463 z m -1.41055,-0.354041 0.48892,0.331562 q -0.21917,0.168591 -0.50578,0.342801 -0.280981,0.17421 -0.584444,0.325942 -0.297843,0.157351 -0.556349,0.269745 -0.07868,-0.08429 -0.202309,-0.196689 -0.118013,-0.106774 -0.213548,-0.17983 0.269745,-0.112394 0.567589,-0.258506 0.297843,-0.151731 0.561969,-0.320322 0.269742,-0.168591 0.443952,-0.314703 z"
         id="text9"
         aria-label="南京復興" />
      <path
         style="font-weight:500;font-size:5.61969px;line-height:1.25;font-family:'Noto Sans KR';-inkscape-font-specification:'Noto Sans KR Medium';fill:#ffffff;stroke-width:0.25544"
         d="m 109.78485,35.139748 h 0.58445 v 2.15796 h -0.58445 z m 0,1.972511 h 0.41586 q 0.53949,0 1.1127,-0.04496 0.57882,-0.04496 1.20261,-0.168591 l 0.0674,0.477674 q -0.63503,0.129253 -1.23072,0.17983 -0.59006,0.04496 -1.15203,0.04496 h -0.41586 z m 3.19198,-2.326552 h 0.58445 v 3.703376 h -0.58445 z m 0.41024,1.483598 h 0.89915 v 0.500153 h -0.89915 z m -3.06273,3.068351 h 3.41115 v 0.477674 h -3.41115 z m 0,-1.202614 h 0.59007 v 1.44988 h -0.59007 z m 8.04178,-3.349335 h 0.59006 v 3.07397 h -0.59006 z m -1.12956,3.186364 q 0.53949,0 0.92725,0.118014 0.38776,0.112394 0.6013,0.337181 0.21355,0.219168 0.21355,0.522631 0,0.314703 -0.21355,0.533871 -0.21354,0.219168 -0.6013,0.331562 -0.38776,0.118013 -0.92725,0.118013 -0.53387,0 -0.92725,-0.118013 -0.38776,-0.112394 -0.60131,-0.331562 -0.20793,-0.219168 -0.20793,-0.533871 0,-0.303463 0.20793,-0.522631 0.21355,-0.224787 0.60131,-0.337181 0.39338,-0.118014 0.92725,-0.118014 z m 0,0.460815 q -0.35966,0 -0.61817,0.06182 -0.2585,0.0562 -0.39338,0.174211 -0.13487,0.118013 -0.13487,0.280984 0,0.168591 0.13487,0.286604 0.13488,0.118014 0.39338,0.179831 0.25851,0.06182 0.61817,0.06182 0.3709,0 0.62378,-0.06182 0.25851,-0.06182 0.39338,-0.179831 0.13488,-0.118013 0.13488,-0.286604 0,-0.162971 -0.13488,-0.280984 -0.13487,-0.118014 -0.39338,-0.174211 -0.25288,-0.06182 -0.62378,-0.06182 z m -1.197,-3.124548 h 0.4833 v 0.3709 q 0,0.477673 -0.17421,0.89915 -0.16859,0.421477 -0.48892,0.73618 -0.32032,0.309082 -0.78113,0.472053 l -0.30347,-0.460814 q 0.41024,-0.140492 0.68561,-0.393378 0.28098,-0.258506 0.42709,-0.578828 0.15173,-0.325942 0.15173,-0.674363 z m 0.11802,0 h 0.48329 v 0.3709 q 0,0.241646 0.0787,0.472054 0.0843,0.230407 0.24726,0.432716 0.16297,0.202309 0.39338,0.35966 0.23603,0.157351 0.53387,0.247266 l -0.29784,0.466435 q -0.44958,-0.151732 -0.77552,-0.443956 -0.32032,-0.292224 -0.49453,-0.685602 -0.16859,-0.398998 -0.16859,-0.848573 z m -1.23071,-0.151731 h 2.80422 v 0.472054 h -2.80422 z m 6.96842,-0.112394 h 3.79329 v 0.472054 h -3.79329 z m 0.0281,1.764582 h 3.7371 v 0.472054 h -3.7371 z m 0.69123,-1.388063 h 0.59006 v 1.640949 h -0.59006 z m 1.76458,0 h 0.59007 v 1.640949 h -0.59007 z m -2.91662,2.377129 h 4.6531 v 0.483293 h -4.6531 z m 2.02871,0.213548 h 0.59006 v 1.905075 h -0.59006 z m 6.78858,-3.225702 h 0.59007 v 3.051492 h -0.59007 z m -1.11831,3.152646 q 0.53949,0 0.92724,0.118014 0.38776,0.118013 0.60131,0.337181 0.21355,0.219168 0.21355,0.528251 0,0.309083 -0.21355,0.53387 -0.21355,0.219168 -0.60131,0.331562 -0.38775,0.118014 -0.92724,0.118014 -0.53388,0 -0.92725,-0.118014 -0.38776,-0.112394 -0.60131,-0.331562 -0.20793,-0.224787 -0.20793,-0.53387 0,-0.309083 0.20793,-0.528251 0.21355,-0.219168 0.60131,-0.337181 0.39337,-0.118014 0.92725,-0.118014 z m 0,0.460815 q -0.35966,0 -0.61817,0.06182 -0.25851,0.06182 -0.399,0.17983 -0.13487,0.112394 -0.13487,0.280985 0,0.168591 0.13487,0.286604 0.14049,0.112394 0.399,0.17421 0.25851,0.0562 0.61817,0.0562 0.37089,0 0.62378,-0.0562 0.25851,-0.06182 0.39338,-0.17421 0.13487,-0.118013 0.13487,-0.286604 0,-0.168591 -0.13487,-0.280985 -0.13487,-0.118013 -0.39338,-0.17983 -0.25289,-0.06182 -0.62378,-0.06182 z m -1.24758,-3.388673 h 0.48892 v 0.494532 q 0,0.494533 -0.17421,0.932869 -0.16859,0.432716 -0.49454,0.758658 -0.32032,0.325942 -0.78675,0.488913 l -0.29223,-0.466434 q 0.30347,-0.106774 0.53387,-0.286604 0.23603,-0.17983 0.399,-0.404618 0.16297,-0.230407 0.24165,-0.488913 0.0843,-0.264126 0.0843,-0.533871 z m 0.11802,0 h 0.47767 v 0.494532 q 0,0.258506 0.0843,0.505772 0.0843,0.241647 0.24164,0.455195 0.16297,0.207929 0.39338,0.3709 0.23603,0.157351 0.52825,0.252886 l -0.2866,0.460815 q -0.3428,-0.112394 -0.61255,-0.309083 -0.26412,-0.202309 -0.44957,-0.472054 -0.18545,-0.269746 -0.28099,-0.590068 -0.0955,-0.320322 -0.0955,-0.674363 z"
         id="text9-3"
         aria-label="난징 푸싱" />
    </g>
  </g>
</svg>
