<?xml version="1.0" encoding="UTF-8" standalone="no"?>
<!-- Created with Inkscape (http://www.inkscape.org/) -->

<svg
   width="500"
   height="250"
   viewBox="0 0 132.29166 66.145833"
   version="1.1"
   id="svg1"
   inkscape:version="1.3.2 (091e20e, 2023-11-25, custom)"
   sodipodi:docname="br12.svg"
   xmlns:inkscape="http://www.inkscape.org/namespaces/inkscape"
   xmlns:sodipodi="http://sodipodi.sourceforge.net/DTD/sodipodi-0.dtd"
   xmlns="http://www.w3.org/2000/svg"
   xmlns:svg="http://www.w3.org/2000/svg">
  <sodipodi:namedview
     id="namedview1"
     pagecolor="#9e652e"
     bordercolor="#ffffff"
     borderopacity="1"
     inkscape:showpageshadow="0"
     inkscape:pageopacity="0"
     inkscape:pagecheckerboard="false"
     inkscape:deskcolor="#d1d1d1"
     inkscape:document-units="mm"
     inkscape:zoom="2.0208096"
     inkscape:cx="270.18874"
     inkscape:cy="103.4239"
     inkscape:window-width="1920"
     inkscape:window-height="1009"
     inkscape:window-x="1912"
     inkscape:window-y="-8"
     inkscape:window-maximized="1"
     inkscape:current-layer="layer1" />
  <defs
     id="defs1">
    <rect
       x="157.85752"
       y="62.351248"
       width="329.07603"
       height="135.09437"
       id="rect4" />
  </defs>
  <g
     inkscape:label="Layer 1"
     inkscape:groupmode="layer"
     id="layer1">
    <path
       id="rect5"
       style="fill:#9e652e;stroke-width:0.953294"
       d="M -2.5431316e-6,-1.2715658e-6 H 132.29167 V 66.145835 H -2.5431316e-6 Z" />
    <g
       id="g5"
       transform="matrix(0.73684362,0,0,0.73684362,1.5843165,8.7033481)">
      <path
         id="rect1"
         style="fill-opacity:0;stroke:#f9f9f9;stroke-width:0.953294"
         d="m 10.182676,14.144197 h 12.563615 c 3.97082,0 7.167545,3.196725 7.167545,7.167545 v 23.522352 c 0,3.970819 -3.196725,7.167544 -7.167545,7.167544 H 10.182676 c -3.97082,0 -7.167545,-3.196725 -7.167545,-7.167544 V 21.311742 c 0,-3.97082 3.196725,-7.167545 7.167545,-7.167545 z" />
      <path
         style="font-size:12.7px;line-height:1.25;font-family:'AR UDJingXiHeiE1G30 EB';-inkscape-font-specification:'AR UDJingXiHeiE1G30 EB';fill:#f9f9f9;stroke-width:0.264583"
         d="M 12.825932,30.493842 H 7.9999322 v -9.1821 h 4.4195998 q 1.3081,0 2.0701,0.635 0.762,0.635 0.762,1.6891 0,0.6858 -0.3048,1.2065 -0.2921,0.508 -0.889,0.8382 0.7747,0.3048 1.1684,0.8382 0.4064,0.5334 0.4064,1.27 0,1.2192 -0.8001,1.9685 -0.8001,0.7366 -2.0066,0.7366 z m 0.7493,-6.6548 q 0,-0.6223 -0.3556,-0.9398 -0.3556,-0.3302 -1.0287,-0.3302 H 9.6128322 v 2.5908 h 2.6669998 q 0.5715,0 0.9271,-0.3302 0.3683,-0.3429 0.3683,-0.9906 z m 0.381,3.937 q 0,-0.6604 -0.4064,-1.0033 -0.3937,-0.3556 -1.0414,-0.3556 H 9.6128322 v 2.8194 h 2.8701998 q 0.6731,0 1.0668,-0.3683 0.4064,-0.3683 0.4064,-1.0922 z m 9.042408,-3.8354 q 0,-0.6731 -0.3556,-1.016 -0.3556,-0.3556 -1.028699,-0.3556 h -2.7559 v 2.8575 h 2.667 q 0.660399,0 1.066799,-0.3937 0.4064,-0.3937 0.4064,-1.0922 z m -4.140199,2.7305 v 3.8227 h -1.6129 v -9.1821 h 4.673599 q 1.2573,0 1.9939,0.6731 0.7493,0.6604 0.7493,1.8796 0,0.8001 -0.381,1.3716 -0.3683,0.5715 -0.9271,0.8128 0.7112,0.4064 1.0922,1.4097 0.381,1.0033 0.4826,3.0353 h -1.6764 q -0.0762,-2.1336 -0.4699,-2.9718 -0.381,-0.8509 -1.231899,-0.8509 z"
         id="text2"
         aria-label="BR" />
      <path
         style="font-size:14.5521px;line-height:1.25;font-family:'AR UDJingXiHeiE1G30 EB';-inkscape-font-specification:'AR UDJingXiHeiE1G30 EB';fill:#f9f9f9;stroke-width:0.264583"
         d="m 11.502217,36.623275 -1.7025962,1.586178 -0.8440218,-1.295136 2.735795,-2.48841 h 1.586179 v 10.521169 h -1.775356 z m 5.835381,1.135063 q 0,-1.629835 0.989543,-2.561169 0.989543,-0.945887 2.590274,-0.945887 1.644387,0 2.56117,0.82947 0.931334,0.814918 0.931334,2.270128 0,1.033199 -0.669397,2.08095 -0.654844,1.033199 -2.066398,2.28468 l -1.979085,1.789908 h 4.685776 v 1.440658 h -7.086873 v -1.324241 l 2.939524,-2.648482 q 1.295137,-1.178721 1.804461,-2.00819 0.523875,-0.844022 0.523875,-1.615283 0,-0.727605 -0.422011,-1.178721 -0.42201,-0.451115 -1.222376,-0.451115 -0.800366,0 -1.295137,0.55298 -0.494771,0.55298 -0.494771,1.484314 z"
         id="text3"
         aria-label="12" />
      <path
         style="font-weight:500;font-size:72px;line-height:1.25;font-family:'Noto Sans TC';-inkscape-font-specification:'Noto Sans TC Medium';white-space:pre;fill:#f9f9f9"
         d="m 164.55342,87.345406 h 58.608 v 34.920004 h -7.056 V 94.041406 h -44.784 v 28.584004 h -6.768 z m 3.528,24.264004 h 52.056 v 6.696 h -52.056 z m 22.032,-36.936004 h 7.128 v 66.744004 h -7.128 z m 72.072,0.72 h 7.2 v 56.880004 h -7.2 z m 25.488,14.328 h 7.056 v 51.552004 h -7.056 z m -50.472,0.216 h 6.984 v 39.168004 h 46.944 v 6.912 h -53.928 z m 80.064,2.592 h 41.256 v 4.968 h -41.256 z m 29.52,-4.968 3.096,-3.168 q 1.944,0.936 4.104,2.304 2.16,1.296 3.312,2.448 l -3.24,3.456 q -1.152,-1.224 -3.24,-2.664 -2.088,-1.44 -4.032,-2.376 z m 4.032,12.672004 5.328,1.08 q -2.664,9.936 -7.92,17.352 -5.184,7.344 -12.456,12.096 -0.36,-0.576 -1.08,-1.368 -0.72,-0.792 -1.44,-1.584 -0.72,-0.792 -1.368,-1.224 7.128,-4.104 11.88,-10.8 4.752,-6.696 7.056,-15.552 z m -34.344,20.88 q 4.104,-0.576 9.648,-1.368 5.616,-0.864 11.52,-1.872 l 0.144,4.68 q -5.4,0.936 -10.8,1.944 -5.328,0.936 -9.72,1.728 z m 7.632,-15.84 v 6.192 h 6.696 v -6.192 z m -4.608,-3.816 h 16.128 v 13.824 h -16.128 z m 18.216,-15.912004 h 5.688 q 0.288,7.2 0.936,13.968 0.72,6.696004 1.872,12.096004 1.224,5.328 2.88,8.64 1.728,3.312 3.96,3.744 0.72,0.216 1.152,-1.8 0.504,-2.016 0.792,-5.4 0.576,0.576 1.368,1.224 0.792,0.648 1.584,1.152 0.864,0.504 1.44,0.864 -0.792,6.192 -3.024,8.496 -2.16,2.232 -5.328,0.936 -3.6,-0.936 -5.976,-4.824 -2.376,-3.96 -3.816,-10.008 -1.44,-6.048 -2.304,-13.536 -0.792,-7.488004 -1.224,-15.552004 z m -30.312,-7.632 h 60.912 v 63.792004 h -6.768 V 84.033406 h -47.664 v 57.672004 h -6.48 z m 4.104,54.432004 h 53.712 v 6.192 h -53.712 z m 69.048,-45.000004 h 58.608 v 34.920004 h -7.056 V 94.041406 h -44.784 v 28.584004 h -6.768 z m 3.528,24.264004 h 52.056 v 6.696 h -52.056 z m 22.032,-36.936004 h 7.128 v 66.744004 h -7.128 z"
         id="text4"
         transform="matrix(0.26458333,0,0,0.26458333,-8.0629803,-4.4771203)"
         aria-label="中山國中" />
      <path
         style="font-size:7.40833px;line-height:1.25;font-family:'AR UDJingXiHeiE1G30 EB';-inkscape-font-specification:'AR UDJingXiHeiE1G30 EB';fill:#f9f9f9;stroke-width:0.264583"
         d="m 34.815763,35.617261 h 4.193114 v 0.674158 l -3.230031,3.94864 h 3.304115 v 0.733425 h -4.511673 v -0.674158 l 3.230032,-3.94864 h -2.985557 z m 6.07483,2.978149 v 2.378074 h -0.940858 v -5.356223 h 0.940858 v 2.244724 h 2.570691 v -2.244724 h 0.940858 v 5.356223 H 43.461284 V 38.59541 Z m 9.890122,-0.274108 q 0,1.289049 -0.718608,2.022474 -0.711199,0.726016 -1.948391,0.726016 -1.259416,0 -1.970615,-0.733425 -0.7112,-0.733424 -0.7112,-2.015065 0,-1.303866 0.718608,-2.044699 0.718608,-0.748242 1.963207,-0.748242 1.259417,0 1.963208,0.740833 0.703791,0.740833 0.703791,2.052108 z m -2.666999,2.015065 q 0.807508,0 1.2446,-0.533399 0.4445,-0.5334 0.4445,-1.481666 0,-0.940858 -0.4445,-1.496483 -0.4445,-0.563033 -1.2446,-0.563033 -0.814916,0 -1.266824,0.570441 -0.4445,0.563033 -0.4445,1.489075 0,0.948266 0.451908,1.481666 0.451908,0.533399 1.259416,0.533399 z m 4.630208,-3.230031 v 3.867148 h -0.940857 v -5.356223 h 0.970491 l 2.629957,3.956048 v -3.956048 h 0.940858 v 5.356223 h -1.029758 z m 8.76405,3.215215 q -0.274109,0.385233 -0.688975,0.570441 -0.407458,0.1778 -0.93345,0.1778 -1.155699,0 -1.837265,-0.726016 -0.681567,-0.733425 -0.681567,-2.044699 0,-1.318683 0.718608,-2.044699 0.718608,-0.726017 1.940983,-0.726017 0.985308,0 1.600199,0.451908 0.6223,0.4445 0.748241,1.274233 H 61.43389 q -0.07408,-0.437091 -0.437091,-0.711199 -0.3556,-0.281517 -0.970491,-0.281517 -0.822325,0 -1.252008,0.5334 -0.429683,0.525991 -0.429683,1.503891 0,1.044574 0.451908,1.540932 0.451908,0.48895 1.229783,0.48895 0.681566,0 1.081616,-0.40005 0.40005,-0.400049 0.40005,-0.918633 v -0.111125 h -1.518708 v -0.733424 h 2.422524 v 2.807757 h -0.903816 z m 3.793061,-1.770591 q -0.9779,-0.1778 -1.452033,-0.548216 -0.474133,-0.370417 -0.474133,-1.037167 0,-0.622299 0.503766,-1.029758 0.511175,-0.407458 1.570566,-0.407458 0.970491,0 1.503891,0.414867 0.5334,0.414866 0.585258,1.200149 h -0.940858 q -0.0074,-0.377825 -0.296333,-0.629708 -0.288925,-0.251883 -0.881591,-0.251883 -0.555625,0 -0.822325,0.185208 -0.2667,0.185208 -0.259291,0.518583 0,0.363009 0.3556,0.540808 0.363008,0.1778 1.177924,0.340784 1.02235,0.207433 1.452033,0.563033 0.437091,0.3556 0.437091,1.066799 0,0.681567 -0.57785,1.140883 -0.577849,0.451908 -1.644649,0.451908 -1.089024,0 -1.696507,-0.459316 -0.607483,-0.459317 -0.607483,-1.326091 h 0.940857 q 0,0.481541 0.363009,0.770466 0.363008,0.281516 1.007532,0.281516 0.592667,0 0.926042,-0.229658 0.333375,-0.229658 0.333375,-0.600074 0,-0.429684 -0.333375,-0.614892 -0.333375,-0.185208 -1.170516,-0.340783 z m 4.282012,0.04445 v 2.378074 h -0.940858 v -5.356223 h 0.940858 v 2.244724 h 2.570691 v -2.244724 h 0.940858 v 5.356223 H 72.153738 V 38.59541 Z m 7.593543,0.214842 -0.844549,-2.289174 -0.859367,2.289174 z m -1.978024,0.733424 -0.5334,1.429808 h -0.955674 l 2.155824,-5.356223 h 0.963083 l 2.141007,5.356223 h -0.9779 l -0.540808,-1.429808 z m 5.326582,-2.43734 v 3.867148 H 79.58429 v -5.356223 h 0.970491 l 2.629957,3.956048 v -3.956048 h 0.940858 v 5.356223 h -1.029758 z m 7.423134,2.496607 q 0,0.340783 0.170392,0.5334 0.170391,0.192616 0.548216,0.192616 0.370416,0.0074 0.563033,-0.200025 0.192617,-0.214841 0.192617,-0.607483 v -3.90419 h 0.933449 v 3.985682 q 0,0.674158 -0.4445,1.074208 -0.437091,0.392641 -1.252007,0.392641 -0.792692,0 -1.222375,-0.385233 -0.429683,-0.392642 -0.429683,-1.000125 v -0.474133 h 0.940858 z m 8.089891,-0.503767 q 0,0.93345 -0.585258,1.452033 -0.585258,0.518583 -1.666874,0.518583 -1.096433,0 -1.689099,-0.511175 -0.585258,-0.511174 -0.585258,-1.452032 v -3.489324 h 0.940858 v 3.444874 q 0,0.607483 0.333375,0.940858 0.333374,0.333374 1.000124,0.333374 0.629708,0 0.963083,-0.318558 0.340783,-0.325966 0.340783,-0.970491 v -3.430057 h 0.948266 z m 2.1336,-1.99284 v 3.867148 h -0.940858 v -5.356223 h 0.970492 l 2.629953,3.956048 v -3.956048 h 0.94086 v 5.356223 h -1.02976 z m 5.771087,-1.489075 v 5.356223 H 103.002 v -5.356223 z m 6.37857,2.704041 q 0,1.289049 -0.71861,2.022474 -0.7112,0.726016 -1.94839,0.726016 -1.25942,0 -1.97062,-0.733425 -0.7112,-0.733424 -0.7112,-2.015065 0,-1.303866 0.71861,-2.044699 0.71861,-0.748242 1.96321,-0.748242 1.25941,0 1.96321,0.740833 0.70379,0.740833 0.70379,2.052108 z m -2.667,2.015065 q 0.80751,0 1.2446,-0.533399 0.4445,-0.5334 0.4445,-1.481666 0,-0.940858 -0.4445,-1.496483 -0.4445,-0.563033 -1.2446,-0.563033 -0.81492,0 -1.26683,0.570441 -0.4445,0.563033 -0.4445,1.489075 0,0.948266 0.45191,1.481666 0.45191,0.533399 1.25942,0.533399 z m 7.04532,-3.185581 q 0,-0.392642 -0.20744,-0.592667 -0.20743,-0.207433 -0.60007,-0.207433 h -1.60761 v 1.666874 h 1.55575 q 0.38523,0 0.6223,-0.229658 0.23707,-0.229658 0.23707,-0.637116 z m -2.41512,1.592791 v 2.229907 h -0.94086 v -5.356223 h 2.72627 q 0.73342,0 1.16311,0.392642 0.43709,0.385233 0.43709,1.096433 0,0.466724 -0.22225,0.800099 -0.21484,0.333375 -0.54081,0.474133 0.41487,0.237067 0.63712,0.822325 0.22225,0.585258 0.28151,1.770591 h -0.9779 q -0.0444,-1.2446 -0.2741,-1.733549 -0.22225,-0.496358 -0.71861,-0.496358 z m 7.35648,-0.148167 v 2.378074 h -0.94086 v -5.356223 h 0.94086 v 2.244724 h 2.57069 v -2.244724 h 0.94086 v 5.356223 H 122.2118 V 38.59541 Z m 5.68219,-2.978149 v 5.356223 h -0.94086 v -5.356223 z m 5.16359,4.70429 q -0.2741,0.385233 -0.68897,0.570441 -0.40746,0.1778 -0.93345,0.1778 -1.1557,0 -1.83727,-0.726016 -0.68156,-0.733425 -0.68156,-2.044699 0,-1.318683 0.71861,-2.044699 0.7186,-0.726017 1.94098,-0.726017 0.98531,0 1.6002,0.451908 0.6223,0.4445 0.74824,1.274233 h -0.94086 q -0.0741,-0.437091 -0.43709,-0.711199 -0.3556,-0.281517 -0.97049,-0.281517 -0.82233,0 -1.25201,0.5334 -0.42968,0.525991 -0.42968,1.503891 0,1.044574 0.4519,1.540932 0.45191,0.48895 1.22979,0.48895 0.68156,0 1.08161,-0.40005 0.40005,-0.400049 0.40005,-0.918633 v -0.111125 h -1.5187 v -0.733424 h 2.42252 v 2.807757 h -0.90382 z m 2.95593,-1.726141 v 2.378074 h -0.94086 v -5.356223 h 0.94086 v 2.244724 h 2.57069 v -2.244724 h 0.94086 v 5.356223 h -0.94086 V 38.59541 Z m 8.4603,-0.04445 q -0.9779,-0.1778 -1.45203,-0.548216 -0.47413,-0.370417 -0.47413,-1.037167 0,-0.622299 0.50376,-1.029758 0.51118,-0.407458 1.57057,-0.407458 0.97049,0 1.50389,0.414867 0.5334,0.414866 0.58526,1.200149 h -0.94086 q -0.007,-0.377825 -0.29633,-0.629708 -0.28893,-0.251883 -0.8816,-0.251883 -0.55562,0 -0.82232,0.185208 -0.2667,0.185208 -0.25929,0.518583 0,0.363009 0.3556,0.540808 0.36301,0.1778 1.17792,0.340784 1.02235,0.207433 1.45204,0.563033 0.43709,0.3556 0.43709,1.066799 0,0.681567 -0.57785,1.140883 -0.57785,0.451908 -1.64465,0.451908 -1.08903,0 -1.69651,-0.459316 -0.60748,-0.459317 -0.60748,-1.326091 h 0.94086 q 0,0.481541 0.363,0.770466 0.36301,0.281516 1.00754,0.281516 0.59266,0 0.92604,-0.229658 0.33337,-0.229658 0.33337,-0.600074 0,-0.429684 -0.33337,-0.614892 -0.33338,-0.185208 -1.17052,-0.340783 z m 7.14904,0.555625 h 0.94086 q -0.037,0.881591 -0.61489,1.422399 -0.57785,0.540808 -1.67429,0.540808 -1.29645,0 -1.98543,-0.733425 -0.68156,-0.733424 -0.68156,-2.03729 0,-1.28905 0.68156,-2.029883 0.68898,-0.740833 1.97062,-0.740833 1.02976,0 1.6002,0.474133 0.57044,0.466725 0.65193,1.214967 h -0.94086 q -0.0593,-0.429684 -0.39264,-0.688975 -0.33337,-0.2667 -0.94086,-0.2667 -0.74824,0 -1.20015,0.503766 -0.45191,0.503767 -0.45191,1.533525 0,1.044574 0.45191,1.540932 0.45932,0.496358 1.21497,0.496358 0.64452,0 0.99272,-0.333374 0.34819,-0.340784 0.37782,-0.896408 z m 2.80035,-0.511175 v 2.378074 h -0.94086 v -5.356223 h 0.94086 v 2.244724 h 2.57069 v -2.244724 h 0.94086 v 5.356223 H 154.4232 V 38.59541 Z m 9.89012,-0.274108 q 0,1.289049 -0.71861,2.022474 -0.7112,0.726016 -1.94839,0.726016 -1.25941,0 -1.97061,-0.733425 -0.7112,-0.733424 -0.7112,-2.015065 0,-1.303866 0.7186,-2.044699 0.71861,-0.748242 1.96321,-0.748242 1.25942,0 1.96321,0.740833 0.70379,0.740833 0.70379,2.052108 z m -2.667,2.015065 q 0.80751,0 1.2446,-0.533399 0.4445,-0.5334 0.4445,-1.481666 0,-0.940858 -0.4445,-1.496483 -0.4445,-0.563033 -1.2446,-0.563033 -0.81491,0 -1.26682,0.570441 -0.4445,0.563033 -0.4445,1.489075 0,0.948266 0.45191,1.481666 0.4519,0.533399 1.25941,0.533399 z m 8.83814,-2.015065 q 0,1.289049 -0.71861,2.022474 -0.7112,0.726016 -1.94839,0.726016 -1.25942,0 -1.97062,-0.733425 -0.7112,-0.733424 -0.7112,-2.015065 0,-1.303866 0.71861,-2.044699 0.71861,-0.748242 1.96321,-0.748242 1.25941,0 1.9632,0.740833 0.7038,0.740833 0.7038,2.052108 z m -2.667,2.015065 q 0.80751,0 1.2446,-0.533399 0.4445,-0.5334 0.4445,-1.481666 0,-0.940858 -0.4445,-1.496483 -0.4445,-0.563033 -1.2446,-0.563033 -0.81492,0 -1.26683,0.570441 -0.4445,0.563033 -0.4445,1.489075 0,0.948266 0.45191,1.481666 0.45191,0.533399 1.25942,0.533399 z m 7.45279,0.637117 h -3.76343 v -5.356223 h 0.94085 v 4.622798 h 2.82258 z"
         id="text5"
         aria-label="ZHONGSHAN JUNIOR HIGH SCHOOL" />
      <path
         d="m 34.877451,44.829102 h 6.030381 v 3.59304 h -0.726016 v -2.904065 h -4.607982 v 2.941107 h -0.696383 z m 0.363008,2.496607 h 5.356223 v 0.688975 h -5.356223 z m 2.266949,-3.800473 h 0.733425 v 6.867522 h -0.733425 z m 7.393514,0.1778 h 0.740833 v 5.756272 h -0.740833 z m -2.563282,1.607607 h 0.711199 v 5.000623 H 42.33764 Z m 5.23028,-0.01482 h 0.726017 v 4.993214 H 47.56792 Z m -4.882089,3.741206 h 5.200648 v 0.718608 h -5.200648 z m 7.00828,-4.207931 h 6.030381 v 3.59304 h -0.726017 v -2.904065 h -4.607981 v 2.941107 h -0.696383 z m 0.363008,2.496607 h 5.356223 v 0.688975 h -5.356223 z m 2.266949,-3.800473 h 0.733425 v 6.867522 h -0.733425 z m 5.793315,2.511424 h 3.563407 v 0.614891 h -3.563407 z m -1.274232,1.681691 h 6.586005 v 0.644524 h -6.586005 z m 2.918882,-0.518583 h 0.718608 v 2.415115 q 0,0.288925 -0.0889,0.4445 -0.08149,0.155575 -0.318559,0.237066 -0.229658,0.07408 -0.570441,0.0889 -0.340783,0.02222 -0.837141,0.02222 -0.02963,-0.148166 -0.118534,-0.348191 -0.08149,-0.192617 -0.170391,-0.333375 0.259291,0.0074 0.503766,0.01482 0.251884,0.0074 0.437092,0.0074 0.185208,-0.0074 0.259291,-0.0074 0.111125,-0.0074 0.148167,-0.03704 0.03704,-0.02963 0.03704,-0.111125 z M 61.45854,46.03666 h 0.170392 l 0.155575,-0.03704 0.444499,0.340783 q -0.251883,0.2667 -0.577849,0.525992 -0.325967,0.259291 -0.688975,0.481541 -0.3556,0.22225 -0.7112,0.392642 -0.06668,-0.09631 -0.185208,-0.214842 -0.111125,-0.125942 -0.200025,-0.200025 0.303742,-0.140758 0.607483,-0.340783 0.31115,-0.200025 0.570442,-0.407458 0.259291,-0.214842 0.414866,-0.407458 z m -4.496856,-1.303866 h 6.356347 v 1.726141 h -0.688975 v -1.103842 h -5.000622 v 1.103842 h -0.66675 z m 5.222872,-1.163108 0.748242,0.237066 q -0.244475,0.3556 -0.518583,0.703792 -0.274109,0.348191 -0.503767,0.592666 l -0.563033,-0.22225 q 0.148167,-0.1778 0.303742,-0.407458 0.155575,-0.229658 0.296333,-0.466725 0.148166,-0.237066 0.237066,-0.437091 z m -4.719106,0.303741 0.592667,-0.266699 q 0.207433,0.222249 0.407458,0.503766 0.200025,0.281516 0.288925,0.496358 l -0.6223,0.303742 q -0.0889,-0.214842 -0.281517,-0.503767 -0.192616,-0.288925 -0.385233,-0.5334 z m 1.889124,-0.155575 0.614892,-0.229658 q 0.1778,0.251883 0.348191,0.570442 0.1778,0.311149 0.244475,0.540808 l -0.651933,0.259291 q -0.05927,-0.237066 -0.22225,-0.555624 -0.155575,-0.325967 -0.333375,-0.585259 z m 7.445371,0.874183 h 4.089398 v 0.644525 h -4.089398 z m 1.681691,-1.066799 h 0.688975 v 1.363133 h -0.688975 z m -0.75565,1.866899 0.637117,0.259292 q -0.237067,0.466724 -0.57785,0.918632 -0.333375,0.4445 -0.703791,0.763058 -0.08149,-0.09631 -0.229659,-0.222249 -0.140758,-0.13335 -0.251883,-0.214842 0.340783,-0.281517 0.644525,-0.696383 0.303741,-0.414866 0.481541,-0.807508 z m 1.540933,0.281517 0.548216,-0.303742 q 0.229659,0.237067 0.466725,0.518583 0.237067,0.274108 0.429683,0.548217 0.200025,0.274108 0.31115,0.503766 l -0.592666,0.340783 Q 70.32631,47.051601 70.141102,46.777493 69.955894,46.495976 69.726235,46.207051 69.496577,45.918126 69.266919,45.673652 Z m -1.163108,1.089024 q 0.251883,0.688975 0.66675,1.289049 0.422275,0.592667 0.992716,1.044575 0.570441,0.451908 1.274233,0.703791 -0.08149,0.06667 -0.1778,0.1778 -0.0889,0.111125 -0.1778,0.229659 -0.08149,0.118533 -0.140758,0.214841 -0.726017,-0.31115 -1.311275,-0.822325 -0.577849,-0.511174 -1.014941,-1.185332 -0.429683,-0.681567 -0.718608,-1.481666 z m 1.303866,-0.04445 0.7112,0.140758 q -0.251883,0.8001 -0.681566,1.489075 -0.429684,0.688974 -1.0668,1.214966 -0.637116,0.525991 -1.526116,0.859366 -0.03704,-0.08149 -0.103717,-0.185208 -0.05927,-0.09631 -0.13335,-0.200025 -0.06667,-0.09631 -0.125941,-0.170392 0.814916,-0.288925 1.400174,-0.755649 0.592667,-0.474133 0.970491,-1.081617 0.377825,-0.614891 0.555625,-1.311274 z m -5.222872,-1.629833 h 2.541057 v 0.651934 h -2.541057 z m 1.022349,-1.563157 h 0.651933 v 6.867522 h -0.651933 z m -0.01482,1.992841 0.422275,0.140758 q -0.0889,0.4445 -0.22225,0.926041 -0.125941,0.474133 -0.288924,0.93345 -0.162984,0.451908 -0.348192,0.851958 -0.185208,0.392641 -0.392641,0.674158 -0.05186,-0.140759 -0.155575,-0.318558 -0.09631,-0.185209 -0.185209,-0.31115 0.192617,-0.244475 0.363008,-0.57785 0.1778,-0.340783 0.333375,-0.733425 0.155575,-0.392641 0.274109,-0.792691 0.125941,-0.407458 0.200024,-0.792691 z m 0.637117,0.659341 q 0.06668,0.08149 0.200025,0.274108 0.140758,0.192617 0.303741,0.429683 0.162984,0.229659 0.296333,0.429683 0.13335,0.192617 0.185209,0.281517 L 66.42212,48.1184 q -0.06668,-0.155574 -0.185208,-0.377824 -0.118533,-0.22225 -0.259292,-0.466725 -0.13335,-0.244475 -0.259291,-0.451908 -0.125942,-0.214842 -0.207433,-0.340783 z"
         id="text5-9"
         style="font-weight:500;font-size:7.40833px;line-height:1.25;font-family:'Noto Sans JP';-inkscape-font-specification:'Noto Sans JP Medium';fill:#f9f9f9;stroke-width:0.264583"
         aria-label="中山中学校" />
      <path
         style="font-weight:500;font-size:7.40833px;line-height:1.25;font-family:'Noto Sans KR';-inkscape-font-specification:'Noto Sans KR Medium';fill:#f9f9f9;stroke-width:0.264583"
         d="m 82.213524,47.094992 h 0.777874 v 1.192741 H 82.213524 Z M 79.546525,46.8357 h 6.119281 v 0.6223 h -6.119281 z m 3.044824,1.222375 q 1.096433,0 1.711324,0.318558 0.6223,0.31115 0.6223,0.889 0,0.577849 -0.6223,0.888999 -0.614891,0.31115 -1.711324,0.31115 -1.089025,0 -1.711325,-0.31115 -0.614891,-0.31115 -0.614891,-0.888999 0,-0.57785 0.614891,-0.889 0.6223,-0.318558 1.711325,-0.318558 z m 0,0.600075 q -0.48895,0 -0.837142,0.07408 -0.348191,0.06667 -0.533399,0.200025 -0.1778,0.13335 -0.1778,0.333375 0,0.200025 0.1778,0.340783 0.185208,0.13335 0.533399,0.200025 0.348192,0.06668 0.837142,0.06668 0.503766,0 0.844549,-0.06668 0.348192,-0.06667 0.525992,-0.200025 0.1778,-0.140758 0.1778,-0.340783 0,-0.200025 -0.1778,-0.333375 -0.1778,-0.13335 -0.525992,-0.200025 -0.340783,-0.07408 -0.844549,-0.07408 z m -0.503767,-4.356098 h 0.688975 v 0.185208 q 0,0.318558 -0.125942,0.600075 -0.125941,0.274108 -0.363008,0.511174 -0.237066,0.229659 -0.563033,0.414867 -0.325966,0.185208 -0.733425,0.303741 -0.400049,0.118534 -0.866774,0.170392 l -0.274108,-0.607483 q 0.400049,-0.03704 0.740833,-0.125942 0.348191,-0.09631 0.622299,-0.229658 0.274109,-0.13335 0.466725,-0.296333 0.192617,-0.170392 0.296333,-0.3556 0.111125,-0.192617 0.111125,-0.385233 z m 0.348192,0 h 0.688974 v 0.185208 q 0,0.200025 0.103717,0.392641 0.103717,0.185209 0.296333,0.348192 0.192617,0.162983 0.466725,0.296333 0.281517,0.13335 0.6223,0.229658 0.348191,0.0889 0.748241,0.125942 l -0.274108,0.607483 q -0.466725,-0.05186 -0.874183,-0.170392 -0.40005,-0.118533 -0.733425,-0.296333 -0.325966,-0.185208 -0.563033,-0.414866 -0.229658,-0.237067 -0.3556,-0.518583 Q 82.435774,44.79841 82.435774,44.48726 Z M 80.10215,44.005718 h 5.008031 V 44.62061 H 80.10215 Z m 7.860239,0.111125 h 0.637116 v 0.785283 q 0,0.66675 -0.22225,1.2446 -0.214841,0.570441 -0.637116,0.992716 -0.422275,0.422275 -1.02235,0.644525 l -0.422275,-0.607483 q 0.548217,-0.185209 0.918633,-0.525992 0.370417,-0.348191 0.555625,-0.800099 0.192617,-0.451909 0.192617,-0.948267 z m 0.148166,0 h 0.629708 v 0.807508 q 0,0.333375 0.103717,0.651933 0.111125,0.318559 0.31115,0.600075 0.207433,0.281517 0.503766,0.496358 0.303742,0.214842 0.696383,0.348192 L 89.962638,47.6358 q -0.592667,-0.214841 -1.007533,-0.614891 -0.414867,-0.40005 -0.629708,-0.940858 -0.214842,-0.548217 -0.214842,-1.1557 z m 2.763307,-0.414866 h 0.770467 v 4.978398 h -0.770467 z m 0.540808,2.029882 h 1.185333 v 0.644525 H 91.41467 Z m -4.037539,3.978273 h 4.541306 v 0.629709 h -4.541306 z m 0,-1.503891 h 0.777874 v 1.829858 h -0.777874 z m 10.542058,-1.111249 h 0.777875 v 1.192741 H 97.919189 Z M 95.252191,46.8357 h 6.119279 v 0.6223 h -6.119279 z m 3.044823,1.222375 q 1.096433,0 1.711326,0.318558 0.6223,0.31115 0.6223,0.889 0,0.577849 -0.6223,0.888999 -0.614893,0.31115 -1.711326,0.31115 -1.089024,0 -1.711324,-0.31115 -0.614891,-0.31115 -0.614891,-0.888999 0,-0.57785 0.614891,-0.889 0.6223,-0.318558 1.711324,-0.318558 z m 0,0.600075 q -0.48895,0 -0.837141,0.07408 -0.348192,0.06667 -0.5334,0.200025 -0.1778,0.13335 -0.1778,0.333375 0,0.200025 0.1778,0.340783 0.185208,0.13335 0.5334,0.200025 0.348191,0.06668 0.837141,0.06668 0.503767,0 0.84455,-0.06668 0.348191,-0.06667 0.525991,-0.200025 0.1778,-0.140758 0.1778,-0.340783 0,-0.200025 -0.1778,-0.333375 -0.1778,-0.13335 -0.525991,-0.200025 -0.340783,-0.07408 -0.84455,-0.07408 z m -0.503766,-4.356098 h 0.688975 v 0.185208 q 0,0.318558 -0.125942,0.600075 -0.125942,0.274108 -0.363008,0.511174 -0.237067,0.229659 -0.563033,0.414867 -0.325967,0.185208 -0.733425,0.303741 -0.40005,0.118534 -0.866775,0.170392 l -0.274108,-0.607483 q 0.40005,-0.03704 0.740833,-0.125942 0.348192,-0.09631 0.6223,-0.229658 0.274108,-0.13335 0.466725,-0.296333 0.192616,-0.170392 0.296333,-0.3556 0.111125,-0.192617 0.111125,-0.385233 z m 0.348191,0 h 0.688975 v 0.185208 q 0,0.200025 0.103717,0.392641 0.103716,0.185209 0.296333,0.348192 0.192616,0.162983 0.466725,0.296333 0.281516,0.13335 0.622301,0.229658 0.34819,0.0889 0.74824,0.125942 l -0.27411,0.607483 q -0.46672,-0.05186 -0.874181,-0.170392 -0.40005,-0.118533 -0.733425,-0.296333 -0.325967,-0.185208 -0.563033,-0.414866 -0.229658,-0.237067 -0.3556,-0.518583 -0.125942,-0.288925 -0.125942,-0.600075 z m -2.333624,-0.296334 h 5.008035 v 0.614892 h -5.008035 z m 6.267445,0.363009 h 3.99309 v 0.614891 h -3.99309 z m 2.00025,0.903816 q 0.48154,0 0.85196,0.155575 0.37042,0.155575 0.57785,0.437091 0.20743,0.274108 0.20743,0.644525 0,0.370416 -0.20743,0.651933 -0.20743,0.274108 -0.57785,0.429683 -0.37042,0.148167 -0.85196,0.148167 -0.48895,0 -0.85936,-0.148167 -0.37042,-0.155575 -0.57785,-0.429683 -0.20744,-0.281517 -0.20744,-0.651933 0,-0.370417 0.20744,-0.644525 0.20743,-0.281516 0.57785,-0.437091 0.37041,-0.155575 0.85936,-0.155575 z m 0,0.600075 q -0.40746,0 -0.65934,0.170391 -0.24447,0.162983 -0.24447,0.466725 0,0.296333 0.24447,0.466725 0.25188,0.170391 0.65934,0.170391 0.40005,0 0.64453,-0.170391 0.24447,-0.170392 0.24447,-0.466725 0,-0.303742 -0.24447,-0.466725 -0.24448,-0.170391 -0.64453,-0.170391 z m 2.50402,-2.163233 h 0.77046 v 4.237565 h -0.77046 z m 0.56303,1.807633 h 1.16311 v 0.644524 h -1.16311 z m -4.23756,2.755898 h 4.44499 v 2.207683 h -0.77046 V 48.895216 H 102.905 Z m 0.77787,-4.600572 h 0.77788 v 1.044574 h -0.77788 z m 5.81554,0.666749 h 4.32647 v 0.629708 h -4.32647 z m -0.61489,4.61539 h 6.11928 v 0.637116 h -6.11928 z m 1.40758,-2.192866 h 0.76306 v 2.407707 h -0.76306 z m 3.29671,-2.422524 h 0.77047 v 0.703792 q 0,0.422274 -0.007,0.881591 -0.007,0.459316 -0.0593,0.992716 -0.0444,0.5334 -0.16298,1.192741 l -0.77047,-0.08149 q 0.17039,-0.93345 0.20003,-1.64465 0.0296,-0.718608 0.0296,-1.340907 z m -1.62243,2.422524 h 0.76306 v 2.407707 h -0.76306 z"
         id="text5-9-8"
         aria-label="중산 중학교" />
    </g>
  </g>
</svg>
