<?xml version="1.0" encoding="UTF-8" standalone="no"?>
<!-- Created with Inkscape (http://www.inkscape.org/) -->

<svg
   width="500"
   height="250"
   viewBox="0 0 132.29166 66.145833"
   version="1.1"
   id="svg1"
   inkscape:version="1.1 (c68e22c387, 2021-05-23)"
   sodipodi:docname="br13.svg"
   xmlns:inkscape="http://www.inkscape.org/namespaces/inkscape"
   xmlns:sodipodi="http://sodipodi.sourceforge.net/DTD/sodipodi-0.dtd"
   xmlns="http://www.w3.org/2000/svg"
   xmlns:svg="http://www.w3.org/2000/svg">
  <sodipodi:namedview
     id="namedview1"
     pagecolor="#9e652e"
     bordercolor="#ffffff"
     borderopacity="1"
     inkscape:showpageshadow="0"
     inkscape:pageopacity="0"
     inkscape:pagecheckerboard="false"
     inkscape:deskcolor="#d1d1d1"
     inkscape:document-units="mm"
     inkscape:zoom="2.0208096"
     inkscape:cx="270.18874"
     inkscape:cy="103.4239"
     inkscape:window-width="1920"
     inkscape:window-height="1094"
     inkscape:window-x="-11"
     inkscape:window-y="-11"
     inkscape:window-maximized="1"
     inkscape:current-layer="layer1"
     inkscape:pageshadow="0"
     showgrid="false" />
  <defs
     id="defs1">
    <rect
       x="157.85752"
       y="62.351248"
       width="329.07603"
       height="135.09437"
       id="rect4" />
  </defs>
  <g
     inkscape:label="Layer 1"
     inkscape:groupmode="layer"
     id="layer1">
    <rect
       style="fill:#9e652e;fill-opacity:1;stroke:none;stroke-width:0.953294;stroke-dasharray:none"
       id="rect5"
       width="132.29167"
       height="66.145836"
       x="-2.5431316e-06"
       y="-1.2715658e-06"
       ry="0" />
    <g
       id="g5"
       transform="matrix(0.99747567,0,0,0.99747567,7.530588,0.0834872)">
      <path
         id="rect1"
         style="fill-opacity:0;stroke:#f9f9f9;stroke-width:0.953294"
         d="m 10.182676,14.144197 h 12.563615 c 3.97082,0 7.167545,3.196725 7.167545,7.167545 v 23.522352 c 0,3.970819 -3.196725,7.167544 -7.167545,7.167544 H 10.182676 c -3.97082,0 -7.167545,-3.196725 -7.167545,-7.167544 V 21.311742 c 0,-3.97082 3.196725,-7.167545 7.167545,-7.167545 z" />
      <path
         style="font-size:12.7px;line-height:1.25;font-family:'AR UDJingXiHeiE1G30 EB';-inkscape-font-specification:'AR UDJingXiHeiE1G30 EB';fill:#f9f9f9;stroke-width:0.264583"
         d="M 12.825932,30.493842 H 7.9999322 v -9.1821 h 4.4195998 q 1.3081,0 2.0701,0.635 0.762,0.635 0.762,1.6891 0,0.6858 -0.3048,1.2065 -0.2921,0.508 -0.889,0.8382 0.7747,0.3048 1.1684,0.8382 0.4064,0.5334 0.4064,1.27 0,1.2192 -0.8001,1.9685 -0.8001,0.7366 -2.0066,0.7366 z m 0.7493,-6.6548 q 0,-0.6223 -0.3556,-0.9398 -0.3556,-0.3302 -1.0287,-0.3302 H 9.6128322 v 2.5908 h 2.6669998 q 0.5715,0 0.9271,-0.3302 0.3683,-0.3429 0.3683,-0.9906 z m 0.381,3.937 q 0,-0.6604 -0.4064,-1.0033 -0.3937,-0.3556 -1.0414,-0.3556 H 9.6128322 v 2.8194 h 2.8701998 q 0.6731,0 1.0668,-0.3683 0.4064,-0.3683 0.4064,-1.0922 z m 9.042408,-3.8354 q 0,-0.6731 -0.3556,-1.016 -0.3556,-0.3556 -1.028699,-0.3556 h -2.7559 v 2.8575 h 2.667 q 0.660399,0 1.066799,-0.3937 0.4064,-0.3937 0.4064,-1.0922 z m -4.140199,2.7305 v 3.8227 h -1.6129 v -9.1821 h 4.673599 q 1.2573,0 1.9939,0.6731 0.7493,0.6604 0.7493,1.8796 0,0.8001 -0.381,1.3716 -0.3683,0.5715 -0.9271,0.8128 0.7112,0.4064 1.0922,1.4097 0.381,1.0033 0.4826,3.0353 h -1.6764 q -0.0762,-2.1336 -0.4699,-2.9718 -0.381,-0.8509 -1.231899,-0.8509 z"
         id="text2"
         aria-label="BR" />
      <path
         style="font-size:14.5521px;line-height:1.25;font-family:'AR UDJingXiHeiE1G30 EB';-inkscape-font-specification:'AR UDJingXiHeiE1G30 EB';fill:#f9f9f9;stroke-width:0.264583"
         d="m 11.502217,36.623275 -1.7025962,1.586178 -0.8440218,-1.295136 2.735795,-2.48841 h 1.586179 v 10.521169 h -1.775356 z m 9.269677,-0.931335 q -0.800366,0 -1.251481,0.480219 -0.451115,0.48022 -0.451115,1.251481 H 17.27939 q 0,-1.426106 0.931334,-2.299232 0.945887,-0.873126 2.56117,-0.873126 1.498866,0 2.430201,0.742157 0.931334,0.742157 0.931334,2.124607 0,0.756709 -0.320146,1.338793 -0.320146,0.582084 -0.960439,0.887678 0.814918,0.27649 1.251481,0.931335 0.451115,0.654844 0.451115,1.557074 0,1.557075 -0.989543,2.430201 -0.989543,0.873126 -2.750347,0.873126 -1.789908,0 -2.764899,-0.858574 -0.97499,-0.858574 -0.97499,-2.342888 h 1.80446 q 0,0.785814 0.523876,1.280585 0.538427,0.480219 1.426105,0.480219 0.873126,0 1.367898,-0.480219 0.509323,-0.480219 0.509323,-1.367897 0,-0.742158 -0.465667,-1.207825 -0.465667,-0.480219 -1.338793,-0.480219 h -0.654845 v -1.440658 h 0.654845 q 0.582084,0 0.974991,-0.422011 0.407458,-0.422011 0.407458,-1.135064 0,-0.654844 -0.392906,-1.062303 -0.392907,-0.407459 -1.120512,-0.407459 z"
         id="text3"
         aria-label="13" />
      <path
         style="font-weight:500;font-size:72px;line-height:1.25;font-family:'Noto Sans TC';-inkscape-font-specification:'Noto Sans TC Medium';white-space:pre;fill:#f9f9f9"
         d="m 161.09742,89.433406 h 25.2 v 6.408 h -25.2 z m 10.224,-14.76 h 6.192 v 66.744004 h -6.192 z m -0.144,19.152 3.888,1.512 q -0.864,4.464 -2.088,9.144004 -1.224,4.68 -2.808,9.216 -1.512,4.464 -3.312,8.352 -1.728,3.816 -3.672,6.552 -0.288,-0.936 -0.864,-2.16 -0.576,-1.224 -1.296,-2.448 -0.648,-1.224 -1.224,-2.088 1.8,-2.304 3.528,-5.544 1.728,-3.312 3.24,-7.128 1.512,-3.816 2.664,-7.704 1.224,-3.960004 1.944,-7.704004 z m 5.976,4.608 q 0.648,0.792 1.944,2.664004 1.368,1.8 2.808,4.032 1.512,2.16 2.808,4.032 1.296,1.8 1.8,2.664 l -4.104,4.752 q -0.576,-1.44 -1.656,-3.6 -1.08,-2.16 -2.376,-4.464 -1.224,-2.304 -2.448,-4.32 -1.152,-2.016 -1.872,-3.24 z m 11.592,40.176004 q -0.144,-0.648 -0.576,-1.872 -0.36,-1.152 -0.792,-2.376 -0.432,-1.296 -0.864,-2.16 1.224,-0.36 2.304,-1.944 1.08,-1.584 2.376,-4.176 0.72,-1.296 1.944,-4.104 1.296,-2.808 2.736,-6.696 1.512,-3.888 3.024,-8.28 1.512,-4.392 2.592,-8.856004 l 6.912,1.8 q -1.944,6.336004 -4.392,12.600004 -2.448,6.264 -5.112,11.952 -2.592,5.616 -5.328,10.296 v 0.072 q 0,0 -0.72,0.432 -0.72,0.36 -1.728,0.936 -0.936,0.648 -1.656,1.296 -0.72,0.648 -0.72,1.08 z m 0,0 -0.216,-5.4 3.6,-2.376 27.864,-3.24 q 0.072,1.368 0.36,3.096 0.36,1.728 0.648,2.808 -7.992,1.008 -13.392,1.8 -5.4,0.72 -8.856,1.152 -3.384,0.504 -5.328,0.864 -1.944,0.432 -3.024,0.72 -1.008,0.288 -1.656,0.576 z m 21.744,-21.168 5.832,-2.376 q 1.8,3.528 3.672,7.704 1.944,4.104 3.6,7.92 1.728,3.816 2.736,6.624 l -6.264,2.952 q -0.936,-2.952 -2.592,-6.84 -1.584,-3.96 -3.456,-8.136 -1.8,-4.248 -3.528,-7.848 z m -15.048,-40.248004 6.408,1.224 q -1.008,5.976 -2.664,11.736 -1.584,5.76 -3.672,10.800004 -2.088,4.968 -4.824,8.784 -0.36,-0.648 -1.224,-1.656 -0.792,-1.008 -1.728,-2.016 -0.936,-1.08 -1.656,-1.656 2.376,-3.24 4.176,-7.560004 1.8,-4.392 3.024,-9.36 1.296,-5.04 2.16,-10.296 z m 12.96,-0.576 h 7.056 q 1.008,5.256 2.592,10.512 1.656,5.256 3.816,9.72 2.16,4.392004 4.608,7.416004 -0.72,0.576 -1.728,1.512 -0.936,0.936 -1.872,2.016 -0.864,1.008 -1.44,1.8 -2.664,-3.6 -4.896,-8.424 -2.232,-4.896004 -3.96,-10.296004 -1.656,-5.472 -2.736,-10.872 h -1.44 z m -4.464,0 h 10.224 v 5.832 h -10.224 z m 58.248,-1.224 h 7.2 v 56.880004 h -7.2 z m 25.488,14.328 h 7.056 v 51.552004 h -7.056 z m -50.472,0.216 h 6.984 v 39.168004 h 46.944 v 6.912 h -53.928 z m 67.968,-1.584 h 18.36 v 6.336 h -18.36 z m 7.056,-13.68 h 5.904 v 66.744004 h -5.904 z m 0,17.784 3.312,1.44 q -0.576,4.248 -1.584,8.784004 -0.936,4.464 -2.16,8.856 -1.152,4.392 -2.592,8.208 -1.368,3.744 -2.88,6.48 -0.288,-1.008 -0.792,-2.232 -0.504,-1.224 -1.08,-2.448 -0.504,-1.224 -1.008,-2.088 1.44,-2.232 2.736,-5.4 1.296,-3.24 2.448,-6.84 1.224,-3.672 2.088,-7.488004 0.936,-3.816 1.512,-7.272 z m 5.544,5.688 q 0.432,0.648 1.44,2.232004 1.008,1.584 2.088,3.456 1.152,1.872 2.088,3.456 0.936,1.584 1.368,2.304 l -3.096,4.752 q -0.504,-1.296 -1.368,-3.168 -0.792,-1.872 -1.8,-3.888 -0.936,-2.016 -1.8,-3.744 -0.864,-1.8 -1.512,-2.808 z m 7.272,13.680004 h 44.568 v 5.4 h -44.568 z m 6.264,10.872 4.032,-3.6 q 1.656,1.296 3.528,2.88 1.944,1.584 3.672,3.096 1.728,1.512 2.808,2.664 l -4.104,4.104 q -1.08,-1.224 -2.808,-2.808 -1.728,-1.656 -3.6,-3.312 -1.8,-1.656 -3.528,-3.024 z m 23.832,-14.76 3.456,-3.096 q 1.8,1.08 3.816,2.592 2.088,1.44 3.24,2.52 l -3.6,3.528 q -1.152,-1.224 -3.168,-2.808 -1.944,-1.584 -3.744,-2.736 z m 5.76,9.432 5.76,2.232 q -3.744,7.344 -10.368,12.816 -6.552,5.472 -14.904,8.784 -0.576,-0.936 -1.656,-2.232 -1.08,-1.296 -1.944,-2.16 7.992,-2.952 14.04,-7.92 6.048,-5.04 9.072,-11.52 z m -18.144,-42.192004 h 5.76 q 0.288,12.672 1.296,23.4 1.08,10.728004 2.952,18.720004 1.872,7.992 4.752,12.6 2.88,4.536 6.84,4.968 1.152,0.072 1.8,-1.872 0.72,-2.016 1.152,-5.832 0.504,0.576 1.296,1.296 0.864,0.72 1.656,1.296 0.864,0.576 1.44,0.864 -0.792,4.248 -1.872,6.624 -1.08,2.376 -2.448,3.312 -1.296,0.936 -2.808,0.864 -4.824,-0.36 -8.352,-3.672 -3.528,-3.312 -5.976,-9.144 -2.376,-5.904 -3.888,-13.968 -1.512,-8.136 -2.376,-18.072004 -0.864,-10.008 -1.224,-21.384 z m -6.264,22.104 4.104,-1.08 q 1.08,2.52 2.016,5.544004 0.936,3.024 1.296,5.04 l -4.32,1.44 q -0.36,-2.16 -1.224,-5.256 -0.864,-3.096004 -1.872,-5.688004 z m -10.584,-2.232 q -0.144,-0.792 -0.648,-2.304 -0.504,-1.512 -0.936,-2.52 0.648,-0.144 1.296,-0.792 0.72,-0.72 1.368,-1.728 0.504,-0.72 1.512,-2.592 1.008,-1.872 2.088,-4.392 1.152,-2.52 1.944,-5.184 l 5.04,1.512 q -1.8,4.176 -4.176,8.352 -2.304,4.104 -4.536,6.912 v 0.072 q 0,0 -0.72,0.504 -0.72,0.432 -1.512,1.008 -0.72,0.576 -0.72,1.152 z m 0,0 -0.072,-3.672 2.376,-1.512 9.864,-0.864 q -0.504,0.936 -1.008,2.232 -0.504,1.224 -0.72,2.016 -3.888,0.432 -5.976,0.792 -2.088,0.288 -3.024,0.576 -0.936,0.216 -1.44,0.432 z m 0.72,12.744004 q -0.072,-0.576 -0.36,-1.44 -0.288,-0.936 -0.648,-1.872 -0.288,-0.936 -0.576,-1.584 0.864,-0.216 1.728,-1.008 0.936,-0.864 1.872,-2.232004 0.72,-0.864 2.304,-3.168 1.656,-2.376 3.456,-5.544 1.872,-3.168 3.24,-6.408 l 4.968,1.728 q -2.88,5.256 -6.408,10.296 -3.456,4.968004 -6.84,8.424004 v 0.144 q 0,0 -0.72,0.432 -0.648,0.432 -1.368,1.08 -0.648,0.576 -0.648,1.152 z m 0,0 -0.144,-3.96 2.16,-1.44 11.232,-1.368 q 0.144,1.008 0.432,2.16 0.36,1.152 0.576,1.944 -4.248,0.576 -6.912,1.008 -2.592,0.432 -4.104,0.72 -1.44,0.216 -2.16,0.504 -0.648,0.216 -1.08,0.432 z m 36.144,-11.592004 3.96,-1.152 q 1.152,2.592 2.16,5.616004 1.08,3.024 1.584,5.04 l -4.248,1.512 q -0.432,-2.16 -1.44,-5.256 -1.008,-3.168004 -2.016,-5.760004 z m -10.656,-2.376 q -0.144,-0.864 -0.648,-2.376 -0.504,-1.512 -0.936,-2.52 0.576,-0.072 1.224,-0.72 0.648,-0.648 1.224,-1.656 0.432,-0.648 1.296,-2.376 0.936,-1.728 1.872,-4.032 1.008,-2.376 1.728,-4.824 l 4.968,1.512 q -1.584,3.96 -3.744,7.776 -2.088,3.816 -4.104,6.408 v 0.072 q 0,0 -0.72,0.504 -0.72,0.432 -1.44,1.08 -0.72,0.576 -0.72,1.152 z m 0,0 -0.072,-3.816 2.304,-1.44 9.576,-0.864 q -0.504,1.008 -1.008,2.304 -0.432,1.224 -0.72,1.944 -3.744,0.504 -5.76,0.792 -2.016,0.288 -2.952,0.576 -0.936,0.216 -1.368,0.504 z m 0.792,12.672004 q -0.144,-0.504 -0.432,-1.44 -0.288,-0.936 -0.576,-1.872 -0.288,-0.936 -0.576,-1.656 0.792,-0.216 1.656,-1.008 0.936,-0.864004 1.872,-2.232004 0.72,-0.864 2.232,-3.168 1.512,-2.376 3.312,-5.544 1.8,-3.168 3.096,-6.48 l 5.04,1.872 q -2.736,5.256 -6.12,10.224 -3.384,4.968004 -6.696,8.496004 v 0.144 q 0,0 -0.72,0.504 -0.648,0.432 -1.368,1.08 -0.72,0.576 -0.72,1.08 z m 0,0 -0.144,-3.816 2.16,-1.512 11.16,-1.368004 q 0.144,0.936004 0.432,2.088004 0.36,1.152 0.576,1.944 -4.176,0.648 -6.84,1.08 -2.592,0.36 -4.032,0.72 -1.44,0.288 -2.232,0.504 -0.72,0.144 -1.08,0.36 z m -22.824,7.272 h 5.76 v 3.384 q 0,3.672 -0.936,8.064 -0.936,4.32 -3.456,8.568 -2.448,4.248 -6.984,7.704 -0.432,-0.576 -1.296,-1.368 -0.864,-0.792 -1.728,-1.512 -0.864,-0.72 -1.512,-1.08 4.248,-3.096 6.408,-6.696 2.16,-3.6 2.952,-7.2 0.792,-3.6 0.792,-6.624 z m 67.824,-9.792 h 45.432 v 5.832 h -45.432 z m 7.992,10.152 h 30.6 v 5.472 h -30.6 z m 3.168,-7.992 5.904,1.512 q -2.736,6.12 -7.344,11.232 -4.536,5.112 -9.648,8.496 -0.432,-0.576 -1.296,-1.368 -0.864,-0.792 -1.728,-1.584 -0.864,-0.792 -1.584,-1.224 5.04,-2.88 9.216,-7.344 4.176,-4.464 6.48,-9.72 z m 26.28,7.992 h 6.336 q 0,0 -0.072,1.008 0,0.936 -0.072,1.584 -0.504,7.2 -1.152,11.808 -0.576,4.536 -1.296,6.984 -0.72,2.52 -1.728,3.6 -1.008,1.08 -2.088,1.512 -1.008,0.432 -2.376,0.576 -1.224,0.072 -3.168,0.072 -1.872,0.072 -4.032,0 -0.072,-1.296 -0.504,-2.88 -0.36,-1.584 -1.08,-2.592 1.872,0.144 3.384,0.144 1.584,0.072 2.376,0.072 0.72,0 1.224,-0.144 0.504,-0.144 0.864,-0.648 0.72,-0.72 1.296,-2.808 0.576,-2.16 1.08,-6.336 0.576,-4.176 1.008,-10.944 z m -24.624,-23.256004 v 4.752 h 21.24 v -4.752 z m 0,-9.36 v 4.752 h 21.24 v -4.752 z m -6.12,-4.824 h 33.624 v 23.832004 h -33.624 z m -27.216,13.392 h 21.672 v 6.48 h -21.672 z m 7.92,-14.688 h 6.408 v 44.496004 h -6.408 z m -9.36,46.728004 q 2.736,-1.08 6.408,-2.592 3.672,-1.584 7.776,-3.384 4.104,-1.872 8.208,-3.672 l 1.512,5.904 q -5.472,2.736 -11.088,5.544 -5.616,2.808 -10.224,5.04 z m 50.616,-6.84 4.68,2.52 q -1.368,4.464 -3.744,9.072 -2.304,4.536 -5.256,8.496 -2.952,3.888 -6.264,6.408 -0.864,-0.936 -2.232,-2.016 -1.368,-1.08 -2.664,-1.8 3.384,-2.232 6.408,-5.904 3.096,-3.672 5.4,-8.064 2.376,-4.392 3.672,-8.712 z m -11.088,0.072 4.536,2.664 q -1.872,3.888 -4.824,7.776 -2.88,3.888 -6.408,7.272 -3.456,3.312 -6.912,5.544 -0.792,-1.008 -2.088,-2.16 -1.224,-1.152 -2.448,-1.944 3.6,-1.872 7.056,-4.968 3.528,-3.096 6.408,-6.768 2.88,-3.744 4.68,-7.416 z"
         id="text4"
         transform="matrix(0.26458333,0,0,0.26458333,-8.0629803,-4.4771203)"
         aria-label="松山機場" />
      <path
         style="font-size:7.40833px;line-height:1.25;font-family:'AR UDJingXiHeiE1G30 EB';-inkscape-font-specification:'AR UDJingXiHeiE1G30 EB';fill:#f9f9f9;stroke-width:0.264583"
         d="m 36.712295,38.55096 q -0.977899,-0.1778 -1.452032,-0.548216 -0.474134,-0.370417 -0.474134,-1.037167 0,-0.622299 0.503767,-1.029758 0.511175,-0.407458 1.570566,-0.407458 0.970491,0 1.503891,0.414867 0.5334,0.414866 0.585258,1.200149 h -0.940858 q -0.0074,-0.377825 -0.296333,-0.629708 -0.288925,-0.251883 -0.881592,-0.251883 -0.555624,0 -0.822324,0.185208 -0.2667,0.185208 -0.259292,0.518583 0,0.363009 0.3556,0.540808 0.363008,0.1778 1.177925,0.340784 1.022349,0.207433 1.452032,0.563033 0.437092,0.3556 0.437092,1.066799 0,0.681567 -0.57785,1.140883 -0.57785,0.451908 -1.644649,0.451908 -1.089025,0 -1.696508,-0.459316 -0.607483,-0.459317 -0.607483,-1.326091 h 0.940858 q 0,0.481541 0.363008,0.770466 0.363008,0.281516 1.007533,0.281516 0.592666,0 0.926041,-0.229658 0.333375,-0.229658 0.333375,-0.600074 0,-0.429684 -0.333375,-0.614892 -0.333375,-0.185208 -1.170516,-0.340783 z m 8.489946,-0.229658 q 0,1.289049 -0.718608,2.022474 -0.711199,0.726016 -1.948391,0.726016 -1.259416,0 -1.970615,-0.733425 -0.7112,-0.733424 -0.7112,-2.015065 0,-1.303866 0.718608,-2.044699 0.718608,-0.748242 1.963207,-0.748242 1.259417,0 1.963208,0.740833 0.703791,0.740833 0.703791,2.052108 z m -2.666999,2.015065 q 0.807508,0 1.2446,-0.533399 0.4445,-0.5334 0.4445,-1.481666 0,-0.940858 -0.4445,-1.496483 -0.4445,-0.563033 -1.2446,-0.563033 -0.814916,0 -1.266824,0.570441 -0.4445,0.563033 -0.4445,1.489075 0,0.948266 0.451908,1.481666 0.451908,0.533399 1.259416,0.533399 z m 4.630208,-3.230031 v 3.867148 h -0.940857 v -5.356223 h 0.970491 l 2.629957,3.956048 v -3.956048 h 0.940858 v 5.356223 h -1.029758 z m 8.76405,3.215215 q -0.274109,0.385233 -0.688975,0.570441 -0.407458,0.1778 -0.93345,0.1778 -1.155699,0 -1.837266,-0.726016 -0.681566,-0.733425 -0.681566,-2.044699 0,-1.318683 0.718608,-2.044699 0.718608,-0.726017 1.940983,-0.726017 0.985307,0 1.600199,0.451908 0.6223,0.4445 0.748241,1.274233 h -0.940858 q -0.07408,-0.437091 -0.437091,-0.711199 -0.3556,-0.281517 -0.970491,-0.281517 -0.822325,0 -1.252008,0.5334 -0.429683,0.525991 -0.429683,1.503891 0,1.044574 0.451908,1.540932 0.451908,0.48895 1.229783,0.48895 0.681566,0 1.081616,-0.40005 0.40005,-0.400049 0.40005,-0.918633 v -0.111125 h -1.518708 v -0.733424 h 2.422524 v 2.807757 H 55.9295 Z m 3.793061,-1.770591 q -0.9779,-0.1778 -1.452033,-0.548216 -0.474133,-0.370417 -0.474133,-1.037167 0,-0.622299 0.503766,-1.029758 0.511175,-0.407458 1.570566,-0.407458 0.970491,0 1.503891,0.414867 0.5334,0.414866 0.585258,1.200149 h -0.940858 q -0.0074,-0.377825 -0.296333,-0.629708 -0.288925,-0.251883 -0.881591,-0.251883 -0.555625,0 -0.822325,0.185208 -0.2667,0.185208 -0.259291,0.518583 0,0.363009 0.355599,0.540808 0.363009,0.1778 1.177925,0.340784 1.022349,0.207433 1.452033,0.563033 0.437091,0.3556 0.437091,1.066799 0,0.681567 -0.57785,1.140883 -0.577849,0.451908 -1.644649,0.451908 -1.089024,0 -1.696507,-0.459316 -0.607484,-0.459317 -0.607484,-1.326091 h 0.940858 q 0,0.481541 0.363009,0.770466 0.363008,0.281516 1.007532,0.281516 0.592667,0 0.926042,-0.229658 0.333375,-0.229658 0.333375,-0.600074 0,-0.429684 -0.333375,-0.614892 -0.333375,-0.185208 -1.170516,-0.340783 z m 4.282014,0.04445 v 2.378074 h -0.940858 v -5.356223 h 0.940858 v 2.244724 h 2.570691 v -2.244724 h 0.940858 v 5.356223 H 66.575266 V 38.59541 Z m 7.593539,0.214842 -0.844549,-2.289174 -0.859367,2.289174 z m -1.978024,0.733424 -0.5334,1.429808 h -0.955674 l 2.155824,-5.356223 h 0.963083 l 2.141007,5.356223 h -0.9779 l -0.540808,-1.429808 z m 5.326582,-2.43734 v 3.867148 h -0.940858 v -5.356223 h 0.970491 l 2.629957,3.956048 v -3.956048 h 0.940858 v 5.356223 h -1.029758 z m 9.623412,1.703916 -0.84455,-2.289174 -0.859366,2.289174 z m -1.978024,0.733424 -0.5334,1.429808 h -0.955675 l 2.155824,-5.356223 h 0.963083 L 86.3629,40.973484 H 85.385 l -0.540808,-1.429808 z m 5.326581,-3.926415 v 5.356223 h -0.940857 v -5.356223 z m 4.585751,1.533525 q 0,-0.392642 -0.207433,-0.592667 -0.207433,-0.207433 -0.600075,-0.207433 h -1.607607 v 1.666874 h 1.555749 q 0.385233,0 0.6223,-0.229658 0.237066,-0.229658 0.237066,-0.637116 z m -2.415115,1.592791 v 2.229907 h -0.940858 v -5.356223 h 2.726265 q 0.733425,0 1.163108,0.392642 0.437091,0.385233 0.437091,1.096433 0,0.466724 -0.222249,0.800099 -0.214842,0.333375 -0.540809,0.474133 0.414867,0.237067 0.637117,0.822325 0.22225,0.585258 0.281516,1.770591 h -0.977899 q -0.04445,-1.2446 -0.274108,-1.733549 -0.22225,-0.496358 -0.718608,-0.496358 z m 5.415496,0.103716 v 2.126191 h -0.940857 v -5.356223 h 2.518832 q 0.785283,0 1.229783,0.429683 0.444499,0.429684 0.444499,1.140883 0,0.8001 -0.459316,1.229783 -0.451908,0.429683 -1.222375,0.429683 z m 2.296583,-1.644649 q 0,-0.414867 -0.237067,-0.629708 -0.237066,-0.22225 -0.696383,-0.22225 h -1.363133 v 1.763182 h 1.363133 q 0.459317,0 0.696383,-0.222249 0.237067,-0.229659 0.237067,-0.688975 z m 7.008274,1.118658 q 0,1.289049 -0.71861,2.022474 -0.7112,0.726016 -1.94839,0.726016 -1.25941,0 -1.97061,-0.733425 -0.711202,-0.733424 -0.711202,-2.015065 0,-1.303866 0.718612,-2.044699 0.7186,-0.748242 1.9632,-0.748242 1.25942,0 1.96321,0.740833 0.70379,0.740833 0.70379,2.052108 z m -2.667,2.015065 q 0.80751,0 1.2446,-0.533399 0.4445,-0.5334 0.4445,-1.481666 0,-0.940858 -0.4445,-1.496483 -0.4445,-0.563033 -1.2446,-0.563033 -0.81491,0 -1.26682,0.570441 -0.4445,0.563033 -0.4445,1.489075 0,0.948266 0.45191,1.481666 0.45191,0.533399 1.25941,0.533399 z m 7.04533,-3.185581 q 0,-0.392642 -0.20743,-0.592667 -0.20744,-0.207433 -0.60008,-0.207433 h -1.60761 v 1.666874 h 1.55575 q 0.38524,0 0.6223,-0.229658 0.23707,-0.229658 0.23707,-0.637116 z m -2.41512,1.592791 v 2.229907 h -0.94085 v -5.356223 h 2.72626 q 0.73343,0 1.16311,0.392642 0.43709,0.385233 0.43709,1.096433 0,0.466724 -0.22225,0.800099 -0.21484,0.333375 -0.54081,0.474133 0.41487,0.237067 0.63712,0.822325 0.22225,0.585258 0.28152,1.770591 h -0.9779 q -0.0444,-1.2446 -0.27411,-1.733549 -0.22225,-0.496358 -0.71861,-0.496358 z m 5.61553,-2.392891 h -1.66688 v -0.733425 h 4.2672 v 0.733425 h -1.65947 v 4.622798 h -0.94085 z"
         id="text5"
         aria-label="SONGSHAN AIRPORT" />
      <path
         d="m 38.707558,46.399668 0.800099,0.192616 q -0.125941,0.392642 -0.281516,0.822325 -0.148167,0.422275 -0.31115,0.84455 -0.155575,0.422275 -0.318558,0.807508 -0.155575,0.377825 -0.303742,0.681566 l -0.600074,-0.192617 q 0.13335,-0.311149 0.281516,-0.703791 0.148167,-0.40005 0.281517,-0.822325 0.140758,-0.429683 0.251883,-0.844549 0.111125,-0.414867 0.200025,-0.785283 z m -1.703916,3.01519 q 0.466725,-0.02223 1.081616,-0.05186 0.6223,-0.02963 1.318683,-0.07408 0.703791,-0.04445 1.400174,-0.08149 l -0.0074,0.644525 q -0.651933,0.05186 -1.318683,0.103716 -0.659341,0.05186 -1.266824,0.09631 -0.600075,0.04445 -1.089025,0.07408 z m 2.607732,-1.370541 0.600075,-0.288925 q 0.237066,0.363008 0.474133,0.785283 0.237066,0.414867 0.429683,0.822325 0.200025,0.40005 0.303742,0.7112 l -0.659342,0.340783 q -0.0889,-0.31115 -0.274108,-0.718608 -0.185208,-0.414867 -0.414866,-0.84455 -0.229659,-0.429683 -0.459317,-0.807508 z m -1.459441,-4.363506 0.726016,0.148166 q -0.13335,0.592667 -0.333374,1.163108 -0.200025,0.563033 -0.4445,1.051983 -0.244475,0.48895 -0.525992,0.866775 -0.05927,-0.06667 -0.170391,-0.155575 -0.111125,-0.0889 -0.229658,-0.170392 -0.111125,-0.0889 -0.200025,-0.140758 0.274108,-0.325967 0.496358,-0.763058 0.229658,-0.4445 0.40005,-0.955675 0.177799,-0.511174 0.281516,-1.044574 z m 2.052107,-0.02222 q 0.13335,0.474133 0.325967,0.970491 0.200025,0.48895 0.429683,0.926041 0.237067,0.429683 0.466725,0.740833 -0.0889,0.05927 -0.200025,0.162984 -0.103717,0.09631 -0.207433,0.207433 -0.09631,0.103716 -0.170392,0.200025 -0.244475,-0.363008 -0.481541,-0.859367 -0.237067,-0.496358 -0.4445,-1.051982 -0.200025,-0.563034 -0.348192,-1.096433 z m -5.652555,1.429807 h 2.622549 v 0.651934 h -2.622549 z m 1.051983,-1.563157 h 0.666749 v 6.867522 h -0.666749 z m -0.02222,1.992841 0.422274,0.148166 q -0.0889,0.4445 -0.222249,0.926041 -0.13335,0.474134 -0.303742,0.93345 -0.170392,0.459317 -0.363008,0.851958 -0.192617,0.392641 -0.40005,0.681566 -0.05186,-0.148166 -0.162983,-0.333374 -0.103717,-0.185209 -0.185209,-0.31115 0.192617,-0.244475 0.370417,-0.57785 0.185208,-0.340783 0.348191,-0.733425 0.162984,-0.392641 0.288925,-0.792691 0.125942,-0.407458 0.207434,-0.792691 z m 0.651933,0.726016 q 0.07408,0.07408 0.214841,0.259292 0.148167,0.185208 0.318558,0.407458 0.170392,0.214841 0.303742,0.407458 0.140758,0.185208 0.200025,0.2667 l -0.414867,0.540808 q -0.06667,-0.148167 -0.192616,-0.363008 -0.125942,-0.22225 -0.2667,-0.451909 -0.140758,-0.229658 -0.274108,-0.429683 -0.125942,-0.200025 -0.214842,-0.325966 z m 8.667746,-2.541057 h 0.740833 v 5.756272 h -0.740833 z m -2.563282,1.607607 h 0.711199 v 5.000623 H 42.33764 Z m 5.23028,-0.01482 h 0.726017 v 4.993214 H 47.56792 Z m -4.882089,3.741206 h 5.200648 v 0.718608 h -5.200648 z m 9.645646,-5.511797 h 0.718608 v 1.155699 h -0.718608 z m 0,4.34869 h 0.718608 v 2.015065 H 52.331477 Z M 51.51656,44.814285 h 0.733425 q -0.05927,0.496358 -0.185208,0.896408 -0.118534,0.40005 -0.377825,0.718608 -0.251883,0.31115 -0.696383,0.540808 -0.4445,0.22225 -1.140883,0.377825 -0.02963,-0.0889 -0.09631,-0.192616 -0.05927,-0.111125 -0.13335,-0.22225 -0.07408,-0.111125 -0.148167,-0.1778 0.614892,-0.118534 1.000125,-0.288925 0.385233,-0.170392 0.600075,-0.407458 0.214841,-0.237067 0.311149,-0.548217 0.09631,-0.31115 0.13335,-0.696383 z m 1.64465,-0.02222 h 0.688974 v 1.437216 q 0,0.148167 0.05186,0.185209 0.05927,0.03704 0.251883,0.03704 0.04445,0 0.148166,0 0.111125,0 0.244475,0 0.140759,0 0.259292,0 0.118533,0 0.170391,0 0.103717,0 0.155575,-0.03704 0.05927,-0.04445 0.08149,-0.162984 0.02222,-0.125941 0.03704,-0.370416 0.06667,0.04445 0.170391,0.09631 0.111125,0.04445 0.22225,0.0889 0.118533,0.03704 0.214842,0.05927 -0.03704,0.363008 -0.125942,0.570441 -0.0889,0.200025 -0.251883,0.281517 -0.155575,0.07408 -0.429683,0.07408 -0.05927,0 -0.200025,0 -0.140758,0 -0.303742,0 -0.155575,0 -0.296333,0 -0.13335,0 -0.185208,0 -0.370417,0 -0.563033,-0.06667 -0.192617,-0.07408 -0.2667,-0.251883 -0.07408,-0.185209 -0.07408,-0.496358 z m -3.600449,-0.548216 h 6.319306 v 1.429808 H 55.15405 v -0.785283 h -4.896906 v 0.933449 h -0.696383 z m 0.66675,3.341157 h 5.104339 v 0.637116 h -5.104339 z m -0.777875,1.963207 h 6.519331 v 0.637117 h -6.519331 z m 9.27523,-5.222872 h 4.645023 v 0.637116 h -4.645023 z m -0.296333,1.363132 h 5.156198 v 0.637117 h -5.156198 z m 1.259416,-2.155824 h 0.681567 v 2.622549 h -0.681567 z m 1.948391,0 h 0.688975 V 46.17001 H 61.63634 Z m -1.852082,2.555874 0.600074,0.207433 q -0.1778,0.407458 -0.437091,0.8001 -0.251883,0.392641 -0.555625,0.726016 -0.303741,0.333375 -0.6223,0.555625 -0.05186,-0.08149 -0.140758,-0.1778 -0.08149,-0.103717 -0.1778,-0.192616 -0.0889,-0.09631 -0.162983,-0.155575 0.296333,-0.185209 0.57785,-0.466725 0.288924,-0.281517 0.525991,-0.614892 0.237067,-0.340783 0.392642,-0.681566 z m 2.444748,-0.02222 q 0.140759,0.325967 0.370417,0.651933 0.237066,0.325967 0.518583,0.592666 0.288925,0.259292 0.592666,0.429684 -0.08149,0.06668 -0.177799,0.162983 -0.09631,0.0889 -0.1778,0.200025 -0.08149,0.103716 -0.140759,0.192616 -0.318558,-0.214841 -0.622299,-0.533399 -0.296334,-0.325967 -0.540808,-0.7112 -0.244475,-0.385233 -0.414867,-0.785283 z m -2.489198,2.163232 h 1.881715 v -0.681566 h -1.785407 v -0.555625 h 2.429932 v 1.800224 h -2.52624 z m -0.296334,0 h 0.659342 v 1.28905 q 0,0.155575 0.09631,0.207433 0.09631,0.04445 0.4445,0.04445 0.05927,0 0.200025,0 0.140758,0 0.325966,0 0.185208,0 0.370417,0 0.185208,0 0.340783,0 0.155575,0 0.237066,0 0.185209,0 0.274109,-0.05186 0.09631,-0.05927 0.13335,-0.229659 0.04445,-0.177799 0.06668,-0.525991 0.111125,0.08149 0.288924,0.148167 0.185209,0.06667 0.318559,0.09631 -0.03704,0.474133 -0.140759,0.726016 -0.103716,0.259292 -0.311149,0.3556 -0.207434,0.09631 -0.585259,0.09631 -0.05186,0 -0.214841,0 -0.162983,0 -0.370417,0 -0.200025,0 -0.407458,0 -0.207433,0 -0.370416,0 -0.155575,0 -0.207433,0 -0.4445,0 -0.696384,-0.07408 -0.251883,-0.07408 -0.355599,-0.259291 -0.09631,-0.185209 -0.09631,-0.525992 z M 57.028359,44.088269 57.421,43.569686 q 0.22225,0.0889 0.466725,0.22225 0.244475,0.13335 0.459317,0.274108 0.214841,0.13335 0.355599,0.2667 l -0.414866,0.570441 Q 58.161833,44.777244 57.946992,44.629077 57.739558,44.48091 57.495084,44.340152 57.250609,44.191986 57.028359,44.088269 Z m -0.385233,2.000249 0.385233,-0.525991 q 0.229658,0.08149 0.474133,0.207433 0.244475,0.118533 0.459316,0.251883 0.214842,0.13335 0.3556,0.251883 l -0.407458,0.585258 q -0.125942,-0.125941 -0.340783,-0.2667 -0.214842,-0.140758 -0.459317,-0.274108 -0.237066,-0.13335 -0.466724,-0.229658 z m 0.192616,3.800473 q 0.1778,-0.288925 0.385233,-0.681566 0.207434,-0.392642 0.422275,-0.837141 0.214842,-0.4445 0.40005,-0.866775 l 0.548216,0.422275 q -0.162983,0.392641 -0.355599,0.807508 -0.185209,0.414866 -0.385234,0.822324 -0.192616,0.40005 -0.385233,0.75565 z"
         id="text5-9"
         style="font-weight:500;font-size:7.40833px;line-height:1.25;font-family:'Noto Sans JP';-inkscape-font-specification:'Noto Sans JP Medium';fill:#f9f9f9;stroke-width:0.264583"
         aria-label="松山空港" />
      <path
         style="font-weight:500;font-size:7.40833px;line-height:1.25;font-family:'Noto Sans KR';-inkscape-font-specification:'Noto Sans KR Medium';fill:#f9f9f9;stroke-width:0.264583"
         d="m 76.468285,46.087459 h 0.770466 v 1.2446 h -0.770466 z m -0.01482,-2.266949 h 0.674158 v 0.259292 q 0,0.363008 -0.13335,0.696383 -0.13335,0.325966 -0.377825,0.607483 -0.244475,0.274108 -0.57785,0.48895 -0.333374,0.214841 -0.740833,0.370416 -0.407458,0.148167 -0.866774,0.22225 l -0.296333,-0.614891 q 0.407458,-0.05186 0.763058,-0.170392 0.355599,-0.118533 0.637116,-0.288925 0.288925,-0.170391 0.496358,-0.377825 0.207433,-0.207433 0.31115,-0.4445 0.111125,-0.244474 0.111125,-0.488949 z m 0.125942,0 h 0.666749 v 0.259292 q 0,0.251883 0.111125,0.488949 0.111125,0.237067 0.31115,0.451909 0.207433,0.207433 0.496358,0.377824 0.288925,0.170392 0.637117,0.288925 0.355599,0.111125 0.763058,0.162984 l -0.288925,0.614891 q -0.459317,-0.07408 -0.866775,-0.22225 -0.407458,-0.155575 -0.748241,-0.370416 -0.333375,-0.214842 -0.57785,-0.48895 Q 76.846109,45.10956 76.712759,44.783593 76.57941,44.450218 76.57941,44.079802 Z m -2.778124,3.185582 h 6.11928 v 0.6223 h -6.11928 z m 3.044823,1.089025 q 1.096433,0 1.711325,0.311149 0.622299,0.31115 0.622299,0.881592 0,0.570441 -0.622299,0.874183 -0.614892,0.303741 -1.711325,0.303741 -1.089024,0 -1.711324,-0.303741 -0.614891,-0.303742 -0.614891,-0.874183 0,-0.570442 0.614891,-0.881592 0.6223,-0.311149 1.711324,-0.311149 z m 0,0.592666 q -0.748241,0 -1.148291,0.155575 -0.40005,0.148166 -0.40005,0.4445 0,0.296333 0.40005,0.444499 0.40005,0.148167 1.148291,0.148167 0.748242,0 1.148292,-0.148167 0.400049,-0.148166 0.400049,-0.444499 0,-0.296334 -0.400049,-0.4445 -0.40005,-0.155575 -1.148292,-0.155575 z m 5.37104,-4.57094 h 0.637117 v 0.785283 q 0,0.66675 -0.22225,1.2446 -0.214842,0.570441 -0.637117,0.992716 -0.422274,0.422275 -1.022349,0.644525 l -0.422275,-0.607483 q 0.548217,-0.185209 0.918633,-0.525992 0.370417,-0.348191 0.555625,-0.800099 0.192616,-0.451909 0.192616,-0.948267 z m 0.148167,0 h 0.629708 v 0.807508 q 0,0.333375 0.103717,0.651933 0.111125,0.318559 0.311149,0.600075 0.207434,0.281517 0.503767,0.496358 0.303741,0.214842 0.696383,0.348192 L 84.217398,47.6358 q -0.592666,-0.214841 -1.007532,-0.614891 -0.414867,-0.40005 -0.629708,-0.940858 -0.214842,-0.548217 -0.214842,-1.1557 z m 2.763307,-0.414866 h 0.770466 v 4.978398 H 85.12862 Z m 0.540808,2.029882 h 1.185333 v 0.644525 h -1.185333 z m -4.03754,3.978273 h 4.541307 v 0.629709 h -4.541307 z m 0,-1.503891 h 0.777875 v 1.829858 h -0.777875 z m 10.905067,-0.251883 q 0.726017,0 1.259416,0.155575 0.5334,0.148167 0.822325,0.429683 0.296333,0.281517 0.296333,0.674158 0,0.392642 -0.296333,0.674158 -0.288925,0.281517 -0.822325,0.429684 -0.533399,0.148166 -1.259416,0.148166 -0.726016,0 -1.259416,-0.148166 -0.5334,-0.148167 -0.829733,-0.429684 -0.288925,-0.281516 -0.288925,-0.674158 0,-0.392641 0.288925,-0.674158 0.296333,-0.281516 0.829733,-0.429683 0.5334,-0.155575 1.259416,-0.155575 z m 0,0.592667 q -0.496358,0 -0.859366,0.07408 -0.3556,0.07408 -0.548216,0.229658 -0.192617,0.148167 -0.192617,0.363008 0,0.207434 0.192617,0.3556 0.192616,0.148167 0.548216,0.229658 0.363008,0.08149 0.859366,0.08149 0.503767,0 0.859367,-0.08149 0.355599,-0.08149 0.548216,-0.229658 0.200025,-0.148166 0.200025,-0.3556 0,-0.214841 -0.200025,-0.363008 -0.192617,-0.155575 -0.548216,-0.229658 -0.3556,-0.07408 -0.859367,-0.07408 z m -2.318807,-4.519082 h 4.326465 v 0.6223 h -4.326465 z m -0.703791,2.770716 h 6.104464 v 0.6223 H 89.51436 Z m 2.400299,-1.2446 h 0.770466 v 1.414991 h -0.770466 z m 2.178049,-1.526116 h 0.770466 v 0.570442 q 0,0.407458 -0.02223,0.844549 -0.02222,0.429684 -0.162983,0.955675 L 93.9149,46.317119 q 0.13335,-0.525991 0.155575,-0.926041 0.02223,-0.40005 0.02223,-0.792691 z m 6.741585,-0.318558 h 0.77046 v 4.326465 h -0.77046 z m 0.56303,1.807633 h 1.16311 v 0.644524 h -1.16311 z m -1.948392,2.578099 q 0.688982,0 1.185332,0.148166 0.50377,0.140758 0.77047,0.407458 0.27411,0.259292 0.27411,0.637117 0,0.370416 -0.27411,0.637116 -0.2667,0.2667 -0.77047,0.40005 -0.49635,0.140758 -1.185332,0.140758 -0.688975,0 -1.192741,-0.140758 -0.496358,-0.13335 -0.770467,-0.40005 -0.274108,-0.2667 -0.274108,-0.637116 0,-0.377825 0.274108,-0.637117 0.274109,-0.2667 0.770467,-0.407458 0.503766,-0.148166 1.192741,-0.148166 z m 0,0.600074 q -0.696383,0 -1.081616,0.148167 -0.385233,0.148166 -0.385233,0.4445 0,0.288925 0.385233,0.444499 0.385233,0.148167 1.081616,0.148167 0.696382,0 1.081622,-0.148167 0.38523,-0.155574 0.38523,-0.444499 0,-0.296334 -0.38523,-0.4445 -0.38524,-0.148167 -1.081622,-0.148167 z m -3.118907,-4.282014 h 3.993089 v 0.614891 h -3.993089 z m 2.000249,0.903816 q 0.48895,0 0.851958,0.148166 0.370417,0.148167 0.57785,0.422275 0.207433,0.2667 0.207433,0.637117 0,0.355599 -0.207433,0.629708 -0.207433,0.274108 -0.57785,0.422274 -0.363008,0.148167 -0.851958,0.148167 -0.48895,0 -0.859366,-0.148167 -0.370417,-0.148166 -0.57785,-0.422274 -0.207433,-0.274109 -0.207433,-0.629708 0,-0.370417 0.207433,-0.637117 0.207433,-0.274108 0.57785,-0.422275 0.370416,-0.148166 0.859366,-0.148166 z m 0,0.57785 q -0.407458,0 -0.659341,0.170391 -0.244475,0.162983 -0.244475,0.459317 0,0.288924 0.244475,0.459316 0.251883,0.162983 0.659341,0.162983 0.40005,0 0.644525,-0.162983 0.244475,-0.170392 0.244475,-0.459316 0,-0.296334 -0.244475,-0.459317 -0.244475,-0.170391 -0.644525,-0.170391 z m -0.392641,-2.237316 h 0.777874 v 1.089024 h -0.777874 z"
         id="text5-9-8"
         aria-label="송산 공항" />
    </g>
  </g>
</svg>
