<?xml version="1.0" encoding="UTF-8" standalone="no"?>
<!-- Created with Inkscape (http://www.inkscape.org/) -->

<svg
   width="500"
   height="250"
   viewBox="0 0 132.29166 66.145833"
   version="1.1"
   id="svg1"
   inkscape:version="1.3.2 (091e20e, 2023-11-25, custom)"
   sodipodi:docname="br14.svg"
   xmlns:inkscape="http://www.inkscape.org/namespaces/inkscape"
   xmlns:sodipodi="http://sodipodi.sourceforge.net/DTD/sodipodi-0.dtd"
   xmlns="http://www.w3.org/2000/svg"
   xmlns:svg="http://www.w3.org/2000/svg">
  <sodipodi:namedview
     id="namedview1"
     pagecolor="#9e652e"
     bordercolor="#ffffff"
     borderopacity="1"
     inkscape:showpageshadow="0"
     inkscape:pageopacity="0"
     inkscape:pagecheckerboard="false"
     inkscape:deskcolor="#d1d1d1"
     inkscape:document-units="mm"
     inkscape:zoom="2.0208096"
     inkscape:cx="305.81802"
     inkscape:cy="106.88785"
     inkscape:window-width="1920"
     inkscape:window-height="1009"
     inkscape:window-x="1912"
     inkscape:window-y="-8"
     inkscape:window-maximized="1"
     inkscape:current-layer="layer1" />
  <defs
     id="defs1">
    <rect
       x="157.85752"
       y="62.351248"
       width="329.07603"
       height="135.09437"
       id="rect4" />
    <rect
       x="157.85751"
       y="62.35125"
       width="329.07602"
       height="135.09438"
       id="rect4-5" />
  </defs>
  <g
     inkscape:label="Layer 1"
     inkscape:groupmode="layer"
     id="layer1">
    <path
       id="rect5"
       style="fill:#9e652e;stroke-width:0.953294"
       d="M -2.5431316e-6,-1.2715658e-6 H 132.29167 V 66.145835 H -2.5431316e-6 Z" />
    <g
       id="g4"
       transform="matrix(1.1974746,0,0,1.1974746,-17.67727,-6.5310623)">
      <g
         id="g5"
         transform="matrix(0.82766152,0,0,0.82766152,17.509474,5.6997351)">
        <path
           id="rect1"
           style="fill-opacity:0;stroke:#f9f9f9;stroke-width:0.953294"
           d="m 10.182676,14.144197 h 12.563615 c 3.97082,0 7.167545,3.196725 7.167545,7.167545 v 23.522352 c 0,3.970819 -3.196725,7.167544 -7.167545,7.167544 H 10.182676 c -3.97082,0 -7.167545,-3.196725 -7.167545,-7.167544 V 21.311742 c 0,-3.97082 3.196725,-7.167545 7.167545,-7.167545 z" />
        <path
           style="font-size:12.7px;line-height:1.25;font-family:'AR UDJingXiHeiE1G30 EB';-inkscape-font-specification:'AR UDJingXiHeiE1G30 EB';fill:#f9f9f9;stroke-width:0.264583"
           d="M 12.825932,30.493842 H 7.9999322 v -9.1821 h 4.4195998 q 1.3081,0 2.0701,0.635 0.762,0.635 0.762,1.6891 0,0.6858 -0.3048,1.2065 -0.2921,0.508 -0.889,0.8382 0.7747,0.3048 1.1684,0.8382 0.4064,0.5334 0.4064,1.27 0,1.2192 -0.8001,1.9685 -0.8001,0.7366 -2.0066,0.7366 z m 0.7493,-6.6548 q 0,-0.6223 -0.3556,-0.9398 -0.3556,-0.3302 -1.0287,-0.3302 H 9.6128322 v 2.5908 h 2.6669998 q 0.5715,0 0.9271,-0.3302 0.3683,-0.3429 0.3683,-0.9906 z m 0.381,3.937 q 0,-0.6604 -0.4064,-1.0033 -0.3937,-0.3556 -1.0414,-0.3556 H 9.6128322 v 2.8194 h 2.8701998 q 0.6731,0 1.0668,-0.3683 0.4064,-0.3683 0.4064,-1.0922 z m 9.042408,-3.8354 q 0,-0.6731 -0.3556,-1.016 -0.3556,-0.3556 -1.028699,-0.3556 h -2.7559 v 2.8575 h 2.667 q 0.660399,0 1.066799,-0.3937 0.4064,-0.3937 0.4064,-1.0922 z m -4.140199,2.7305 v 3.8227 h -1.6129 v -9.1821 h 4.673599 q 1.2573,0 1.9939,0.6731 0.7493,0.6604 0.7493,1.8796 0,0.8001 -0.381,1.3716 -0.3683,0.5715 -0.9271,0.8128 0.7112,0.4064 1.0922,1.4097 0.381,1.0033 0.4826,3.0353 h -1.6764 q -0.0762,-2.1336 -0.4699,-2.9718 -0.381,-0.8509 -1.231899,-0.8509 z"
           id="text2"
           aria-label="BR" />
        <path
           style="font-size:14.5521px;line-height:1.25;font-family:'AR UDJingXiHeiE1G30 EB';-inkscape-font-specification:'AR UDJingXiHeiE1G30 EB';fill:#f9f9f9;stroke-width:0.264583"
           d="m 11.502217,36.623275 -1.7025962,1.586178 -0.8440218,-1.295136 2.735795,-2.48841 h 1.586179 v 10.521169 h -1.775356 z m 10.026386,6.053673 h -4.554807 v -1.280585 l 4.467495,-6.970456 h 1.877221 v 6.795831 h 1.382449 v 1.45521 h -1.382449 v 2.270128 h -1.789909 z m -2.70669,-1.45521 h 2.70669 v -4.278317 z"
           id="text3"
           aria-label="14" />
        <path
           style="font-weight:500;font-size:72px;line-height:1.25;font-family:'Noto Sans TC';-inkscape-font-specification:'Noto Sans TC Medium';white-space:pre;fill:#f9f9f9"
           d="m 162.17742,94.761406 h 63.648 v 7.056004 h -63.648 z m 35.856,2.808 q 2.304,8.496004 6.192,15.840004 3.96,7.344 9.648,12.888 5.76,5.472 13.32,8.64 -0.864,0.72 -1.872,1.872 -0.936,1.152 -1.8,2.304 -0.864,1.224 -1.44,2.16 -7.992,-3.744 -13.968,-9.864 -5.904,-6.192 -10.008,-14.328 -4.104,-8.136 -6.912,-17.856004 z m -7.92,-22.896 h 7.416 q 0,5.112 -0.288,11.016 -0.216,5.832 -1.08,12.024 -0.864,6.192004 -2.808,12.384004 -1.944,6.192 -5.4,11.952 -3.456,5.76 -8.856,10.728 -5.4,4.896 -13.176,8.568 -0.864,-1.368 -2.304,-3.024 -1.44,-1.584 -2.88,-2.664 7.488,-3.384 12.6,-7.848 5.184,-4.536 8.352,-9.792 3.24,-5.328 4.968,-11.016 1.728,-5.688 2.448,-11.376004 0.72,-5.688 0.864,-11.016 0.144,-5.328 0.144,-9.936 z m 44.928,5.76 h 61.704 v 6.048 h -61.704 z m 27,-5.904 7.56,0.72 q -0.576,3.456 -1.296,7.128 -0.648,3.672 -1.368,6.984 -0.648,3.312 -1.296,5.904 l -6.336,-0.936 q 0.648,-2.664 1.152,-6.12 0.576,-3.528 1.008,-7.128 0.432,-3.6 0.576,-6.552 z m -15.696,27.576004 h 39.456 v 5.112 h -39.456 z m 0,9.936 h 39.456 v 5.112 h -39.456 z m -13.32,20.88 h 65.808 v 6.192 h -65.808 z m 9.936,-41.544004 h 46.224 v 44.208004 h -6.912 V 97.065406 h -32.76 v 38.520004 h -6.552 z m 3.672,30.960004 h 39.528 v 5.112 h -39.528 z"
           id="text4"
           transform="matrix(0.26458333,0,0,0.26458333,-8.0629803,-4.4771203)"
           aria-label="大直" />
        <path
           style="font-weight:500;font-size:72px;line-height:1.25;font-family:'Noto Sans TC';-inkscape-font-specification:'Noto Sans TC Medium';white-space:pre;fill:#f9f9f9"
           d="m 163.47342,80.721406 h 60.912 v 12.024 h -6.408 v -6.624 h -48.312 v 6.624 h -6.192 z m 27.936,10.08 h 5.76 q -0.288,3.384 -0.72,7.272 -0.36,3.816004 -0.792,6.480004 h -5.76 q 0.504,-2.808 0.864,-6.624004 0.432,-3.816 0.648,-7.128 z m -13.968,27.792004 v 2.88 h 33.048 v -2.88 z m 0,6.408 v 2.88 h 33.048 v -2.88 z m 0,-12.672 v 2.736 h 33.048 v -2.736 z m -6.624,-3.744 h 46.584 v 23.04 h -46.584 z m 26.928,26.136 3.6,-3.888 q 4.176,1.008 8.424,2.232 4.248,1.152 7.992,2.304 3.816,1.152 6.696,2.16 l -4.608,4.248 q -2.592,-1.008 -6.192,-2.232 -3.528,-1.152 -7.632,-2.448 -4.032,-1.224 -8.28,-2.376 z m -18,-41.904004 -1.224,9.432004 h 29.232 l 0.72,-9.432004 z m -5.616,-3.744 h 41.04 l -1.512,16.920004 h -41.76 z m 10.656,41.760004 5.4,3.744 q -3.024,1.584 -7.128,2.952 -4.032,1.44 -8.496,2.52 -4.392,1.08 -8.496,1.728 -0.648,-0.936 -1.728,-2.376 -1.008,-1.368 -1.944,-2.304 4.032,-0.576 8.28,-1.584 4.248,-0.936 7.992,-2.16 3.816,-1.296 6.12,-2.52 z m -23.616,-35.928004 h 15.984 v 0.648 h 33.048 v -0.648 h 16.56 v 5.04 h -16.56 v -0.648 h -33.048 v 0.648 h -15.984 z m 26.784,-19.08 5.976,-1.728 q 1.296,1.8 2.52,4.176 1.296,2.304 1.872,3.96 l -6.264,1.944 q -0.432,-1.656 -1.656,-4.032 -1.152,-2.376 -2.448,-4.32 z m 100.584,13.104 5.472,2.16 q -3.6,3.744 -8.928,6.696 -5.256,2.952004 -11.376,5.184004 -6.048,2.232 -12.024,3.672 -0.216,-0.648 -0.792,-1.584 -0.576,-1.008 -1.224,-2.016 -0.648,-1.008 -1.224,-1.584 5.76,-1.152 11.448,-2.880004 5.76,-1.8 10.656,-4.176 4.896,-2.448 7.992,-5.472 z m -29.52,-3.6 38.592,-2.808 0.432,5.328 -38.592,2.88 z m 19.44,-7.632 4.176,-3.168 q 1.8,0.576 3.672,1.512 1.944,0.936 3.6,1.944 1.728,0.936 2.88,1.872 l -4.32,3.6 q -1.08,-0.936 -2.808,-2.016 -1.656,-1.08 -3.6,-2.016 -1.872,-1.008 -3.6,-1.728 z m 10.224,41.976004 5.76,2.304 q -3.744,4.896 -9.504,8.64 -5.688,3.744 -12.456,6.408 -6.696,2.736 -13.536,4.608 -0.36,-0.72 -1.008,-1.8 -0.576,-1.08 -1.296,-2.16 -0.648,-1.008 -1.224,-1.656 6.696,-1.368 13.032,-3.6 6.408,-2.304 11.664,-5.472 5.328,-3.168 8.568,-7.272 z m -30.312,-3.384 40.32,-2.88 0.36,5.328 -40.248,3.024 z m 18.216,-7.992 4.176,-3.096 q 1.8,0.72 3.672,1.728 1.944,1.008 3.672,2.088 1.728,1.008 2.88,1.872 l -4.32,3.528 q -1.08,-0.936 -2.808,-2.088 -1.728,-1.152 -3.672,-2.232 -1.872,-1.08 -3.6,-1.8 z m -35.208,-24.984004 v 11.52 h 10.224 v -11.52 z m -5.76,-5.688 h 22.032 v 22.968004 h -22.032 z m 8.928,20.232 h 5.832 v 33.264004 h -5.832 z m -9.144,8.712004 h 5.4 v 26.568 h -5.4 z m -3.168,24.192 q 3.384,-0.648 7.704,-1.584 4.392,-1.008 9.216,-2.16 4.896,-1.152 9.72,-2.232 l 0.648,5.832 q -6.84,1.728 -13.752,3.384 -6.912,1.656 -12.384,2.952 z m 14.904,-20.952 h 11.448 v 5.904 h -11.448 z m 19.872,-35.136004 h 6.336 q 0.864,5.688 2.52,10.512 1.728,4.752 4.104,8.352 2.448,3.6 5.472,5.616 3.024,1.944004 6.552,2.160004 1.08,0 1.656,-1.296 0.648,-1.368004 0.936,-4.320004 1.008,0.936 2.376,1.872 1.368,0.864 2.448,1.368 -1.152,5.040004 -2.88,6.984004 -1.656,1.872 -3.96,1.8 -5.544,-0.216 -9.864,-2.808 -4.248,-2.664 -7.416,-7.128004 -3.096,-4.464 -5.184,-10.368 -2.016,-5.976 -3.096,-12.744 z m -1.152,30.672004 h 6.408 q 0.864,6.336 2.592,11.736 1.8,5.328 4.32,9.36 2.592,3.96 5.832,6.264 3.312,2.304 7.2,2.52 1.152,0.072 1.8,-1.512 0.648,-1.656 1.08,-5.04 1.008,0.936 2.448,1.872 1.44,0.936 2.52,1.44 -1.08,5.472 -2.952,7.632 -1.8,2.16 -4.392,2.088 -5.904,-0.288 -10.44,-3.168 -4.536,-2.808 -7.848,-7.704 -3.24,-4.968 -5.4,-11.448 -2.16,-6.48 -3.168,-14.04 z m 40.32,-10.584004 h 63.648 v 7.056004 h -63.648 z m 35.856,2.808 q 2.304,8.496004 6.192,15.840004 3.96,7.344 9.648,12.888 5.76,5.472 13.32,8.64 -0.864,0.72 -1.872,1.872 -0.936,1.152 -1.8,2.304 -0.864,1.224 -1.44,2.16 -7.992,-3.744 -13.968,-9.864 -5.904,-6.192 -10.008,-14.328 -4.104,-8.136 -6.912,-17.856004 z m -7.92,-22.896 h 7.416 q 0,5.112 -0.288,11.016 -0.216,5.832 -1.08,12.024 -0.864,6.192004 -2.808,12.384004 -1.944,6.192 -5.4,11.952 -3.456,5.76 -8.856,10.728 -5.4,4.896 -13.176,8.568 -0.864,-1.368 -2.304,-3.024 -1.44,-1.584 -2.88,-2.664 7.488,-3.384 12.6,-7.848 5.184,-4.536 8.352,-9.792 3.24,-5.328 4.968,-11.016 1.728,-5.688 2.448,-11.376004 0.72,-5.688 0.864,-11.016 0.144,-5.328 0.144,-9.936 z m 43.344,47.520004 h 64.8 v 5.544 h -64.8 z m 13.68,-12.528 h 32.976 v 4.968 h -32.976 z m 16.128,9.864 h 6.696 v 15.192 q 0,2.448 -0.72,3.744 -0.648,1.296 -2.592,2.016 -1.944,0.648 -4.896,0.72 -2.88,0.144 -7.128,0.144 -0.216,-1.296 -0.864,-2.88 -0.648,-1.584 -1.368,-2.88 2.088,0.072 3.96,0.072 1.944,0.072 3.384,0.072 1.512,0 2.016,0 0.864,0 1.152,-0.288 0.36,-0.216 0.36,-0.936 z m 15.12,-9.864 h 1.656 l 1.44,-0.36 3.888,3.528 q -2.592,1.944 -5.76,3.816 -3.168,1.872 -6.552,3.528 -3.312,1.656 -6.624,2.952 -0.576,-0.864 -1.584,-1.872 -0.936,-1.08 -1.584,-1.728 2.736,-1.008 5.616,-2.52 2.88,-1.512 5.4,-3.096 2.52,-1.656 4.104,-3.024 z m -43.488,-9.144 h 62.208 v 13.896 h -6.768 v -8.856 h -48.96 v 8.856 h -6.48 z m 51.768,-23.328004 h 6.48 q -0.216,4.248 -0.504,9 -0.288,4.752 -0.648,9.216 -0.36,4.464 -0.72,7.704004 h -6.552 q 0.432,-3.384004 0.792,-7.848004 0.432,-4.464 0.72,-9.216 0.288,-4.752 0.432,-8.856 z m -10.944,0 h 13.608 v 4.464 h -13.608 z m -22.32,-2.016 2.88,4.032 q -3.24,1.296 -7.416,2.16 -4.104,0.864 -7.344,1.368 l -2.376,-3.816 q 2.088,-0.432 4.68,-1.008 2.664,-0.648 5.184,-1.368 2.52,-0.792 4.392,-1.368 z m -10.872,9.792 h 13.32 v 4.464 h -13.32 z m 0.288,7.776 h 13.248 v 4.392 h -13.248 z m 33.336,-7.776 h 12.6 v 4.464 h -12.6 z m -0.36,7.776 h 12.456 v 4.392 h -12.456 z m -6.768,-17.496 4.536,1.296 q -2.376,3.312 -6.12,6.264 -3.744,2.952 -7.344,4.896 -0.576,-0.648 -1.728,-1.584 -1.152,-1.008 -2.016,-1.584 3.744,-1.728 7.128,-4.104 3.456,-2.448 5.544,-5.184 z m -11.232,3.528 3.24,-2.808 q 2.304,1.008 4.752,2.448 2.52,1.368 4.752,2.88 2.232,1.44 3.672,2.664 l -3.384,3.168 q -1.368,-1.296 -3.528,-2.808 -2.16,-1.512 -4.68,-2.952 -2.448,-1.512 -4.824,-2.592 z m 11.376,8.568 4.536,1.44 q -2.592,3.528 -6.48,6.696 -3.888,3.096 -7.848,5.184004 -0.504,-0.720004 -1.656,-1.800004 -1.152,-1.08 -1.872,-1.728 3.816,-1.728 7.416,-4.248 3.672,-2.592 5.904,-5.544 z m -11.664,3.6 3.24,-2.808 q 2.448,1.152 5.04,2.664 2.592,1.512 4.896,3.096 2.376,1.584 3.888,3.024 l -3.528,3.168004 q -1.368,-1.440004 -3.672,-3.024004 -2.232,-1.656 -4.824,-3.24 -2.592,-1.656 -5.04,-2.88 z m -18.36,-12.024 6.48,1.656 1.368,22.320004 h -6.408 z"
           id="text4-0"
           transform="matrix(0.12946199,0,0,0.12946199,58.992542,6.3204728)"
           aria-label="實踐大學" />
        <path
           style="font-size:7.40833px;line-height:1.25;font-family:'AR UDJingXiHeiE1G30 EB';-inkscape-font-specification:'AR UDJingXiHeiE1G30 EB';fill:#f9f9f9;stroke-width:0.264583"
           d="m 39.497827,38.232402 q 0,1.333499 -0.629708,2.037291 -0.6223,0.703791 -1.740957,0.703791 h -2.192866 v -5.356223 h 2.192866 q 1.118657,0 1.740957,0.659342 0.629708,0.659341 0.629708,1.955799 z m -0.977899,0 q 0,-0.970491 -0.40005,-1.4224 -0.392642,-0.459316 -1.148291,-0.459316 h -1.096433 v 3.889373 h 1.103841 q 0.726016,0 1.133475,-0.481541 0.407458,-0.481542 0.407458,-1.526116 z m 4.859858,0.57785 -0.84455,-2.289174 -0.859366,2.289174 z m -1.978024,0.733424 -0.5334,1.429808 h -0.955675 l 2.155824,-5.356223 h 0.963083 l 2.141008,5.356223 h -0.9779 l -0.540808,-1.429808 z m 4.267191,-3.926415 h 4.193115 v 0.674158 l -3.230032,3.94864 h 3.304115 v 0.733425 h -4.511673 v -0.674158 l 3.230032,-3.94864 h -2.985557 z m 6.07483,2.978149 v 2.378074 h -0.940858 v -5.356223 h 0.940858 v 2.244724 h 2.570691 v -2.244724 h 0.940858 v 5.356223 H 54.314474 V 38.59541 Z m 5.68219,-2.978149 v 5.356223 h -0.940858 v -5.356223 z"
           id="text5"
           aria-label="DAZHI" />
        <path
           style="font-size:3.55995px;line-height:1.25;font-family:'AR UDJingXiHeiE1G30 EB';-inkscape-font-specification:'AR UDJingXiHeiE1G30 EB';fill:#f9f9f9;stroke-width:0.127141"
           d="m 80.963012,27.355251 q -0.469913,-0.08544 -0.69775,-0.263436 -0.227837,-0.177998 -0.227837,-0.498393 0,-0.299036 0.242077,-0.494833 0.245637,-0.195797 0.754709,-0.195797 0.466354,0 0.72267,0.199357 0.256317,0.199357 0.281236,0.576712 h -0.452113 q -0.0036,-0.181558 -0.142398,-0.302596 -0.138838,-0.121038 -0.423634,-0.121038 -0.266997,0 -0.395155,0.089 -0.128158,0.089 -0.124598,0.249197 0,0.174437 0.170877,0.259876 0.174438,0.08544 0.566033,0.163758 0.491273,0.09968 0.69775,0.270556 0.210037,0.170878 0.210037,0.512633 0,0.327515 -0.277676,0.548232 -0.277676,0.217157 -0.790309,0.217157 -0.523313,0 -0.815229,-0.220717 Q 79.969786,28.1242 79.969786,27.707686 H 80.4219 q 0,0.231397 0.174438,0.370235 0.174437,0.135278 0.484153,0.135278 0.284796,0 0.444994,-0.110358 0.160197,-0.110359 0.160197,-0.288356 0,-0.206477 -0.160197,-0.295476 -0.160198,-0.089 -0.562473,-0.163758 z m 2.057651,0.02136 v 1.142744 H 82.56855 v -2.573844 h 0.452113 v 1.078665 h 1.235303 v -1.078665 h 0.452114 v 2.573844 h -0.452114 v -1.142744 z m 2.730483,-1.4311 v 2.573844 h -0.452114 v -2.573844 z m 1.043062,1.4311 v 1.142744 h -0.452113 v -2.573844 h 0.452113 v 1.078665 h 1.235303 v -1.078665 h 0.452114 v 2.573844 h -0.452114 v -1.142744 z m 5.040888,0.245637 h 0.452113 q -0.0178,0.423634 -0.295475,0.68351 -0.277677,0.259876 -0.804549,0.259876 -0.622991,0 -0.954067,-0.352435 -0.327515,-0.352435 -0.327515,-0.978986 0,-0.619431 0.327515,-0.975426 0.331076,-0.355995 0.946947,-0.355995 0.494833,0 0.768949,0.227836 0.274116,0.224277 0.313276,0.583832 h -0.452114 q -0.02848,-0.206477 -0.188677,-0.331075 -0.160198,-0.128158 -0.452114,-0.128158 -0.359555,0 -0.576712,0.242076 -0.217157,0.242077 -0.217157,0.73691 0,0.501953 0.217157,0.74047 0.220717,0.238516 0.583832,0.238516 0.309716,0 0.477033,-0.160198 0.167318,-0.163757 0.181558,-0.430753 z m 1.345658,-0.245637 v 1.142744 H 92.72864 v -2.573844 h 0.452114 v 1.078665 h 1.235303 v -1.078665 h 0.452113 v 2.573844 h -0.452113 v -1.142744 z m 2.730482,-1.4311 v 2.573844 h -0.452113 v -2.573844 z m 2.495524,2.573844 h -1.904573 v -2.573844 h 1.893893 v 0.352435 H 96.9543 v 0.72623 h 1.345661 v 0.352435 H 96.9543 v 0.790309 h 1.45246 z m 0.929149,-1.858294 v 1.858294 h -0.452113 v -2.573844 h 0.466353 l 1.263781,1.901013 v -1.901013 h 0.45212 v 2.573844 h -0.49484 z m 5.411121,0.957627 q 0,0.448553 -0.28124,0.69775 -0.28123,0.249196 -0.80099,0.249196 -0.52687,0 -0.81167,-0.245636 -0.28123,-0.245637 -0.28123,-0.69775 v -1.676737 h 0.45211 v 1.655377 q 0,0.291916 0.1602,0.452113 0.1602,0.160198 0.48059,0.160198 0.3026,0 0.4628,-0.153078 0.16375,-0.156637 0.16375,-0.466353 v -1.648257 h 0.45568 z m 1.02526,-0.957627 v 1.858294 h -0.45211 v -2.573844 h 0.46635 l 1.26379,1.901013 v -1.901013 h 0.45211 v 2.573844 h -0.49483 z m 2.7732,-0.71555 v 2.573844 h -0.45211 v -2.573844 z m 2.64148,0 -0.9149,2.573844 h -0.52332 l -0.90778,-2.573844 h 0.48415 l 0.68707,2.11817 0.69775,-2.11817 z m 2.20005,2.573844 h -1.90457 v -2.573844 h 1.89389 v 0.352435 h -1.44178 v 0.72623 h 1.34566 v 0.352435 h -1.34566 v 0.790309 h 1.45246 z m 2.0897,-1.836934 q 0,-0.188678 -0.0997,-0.284796 -0.0997,-0.09968 -0.28836,-0.09968 h -0.77251 v 0.800989 h 0.74759 q 0.18512,0 0.29904,-0.110359 0.11392,-0.110358 0.11392,-0.306155 z m -1.16055,0.765389 v 1.071545 h -0.45211 v -2.573844 h 1.31006 q 0.35244,0 0.55891,0.188677 0.21004,0.185118 0.21004,0.526873 0,0.224277 -0.1068,0.384475 -0.10324,0.160197 -0.25987,0.227836 0.19935,0.113919 0.30615,0.395155 0.1068,0.281236 0.13528,0.850828 h -0.46991 q -0.0214,-0.598072 -0.13172,-0.833028 -0.1068,-0.238517 -0.34532,-0.238517 z m 3.0046,-0.09256 q -0.46991,-0.08544 -0.69775,-0.263436 -0.22783,-0.177998 -0.22783,-0.498393 0,-0.299036 0.24207,-0.494833 0.24564,-0.195797 0.75471,-0.195797 0.46636,0 0.72267,0.199357 0.25632,0.199357 0.28124,0.576712 h -0.45211 q -0.004,-0.181558 -0.1424,-0.302596 -0.13884,-0.121038 -0.42364,-0.121038 -0.26699,0 -0.39515,0.089 -0.12816,0.089 -0.1246,0.249197 0,0.174437 0.17088,0.259876 0.17444,0.08544 0.56603,0.163758 0.49127,0.09968 0.69775,0.270556 0.21004,0.170878 0.21004,0.512633 0,0.327515 -0.27768,0.548232 -0.27768,0.217157 -0.79031,0.217157 -0.52331,0 -0.81523,-0.220717 -0.29191,-0.220717 -0.29191,-0.637231 h 0.45211 q 0,0.231397 0.17444,0.370235 0.17444,0.135278 0.48415,0.135278 0.2848,0 0.445,-0.110358 0.16019,-0.110359 0.16019,-0.288356 0,-0.206477 -0.16019,-0.295476 -0.1602,-0.089 -0.56248,-0.163758 z m 2.05766,-1.40974 v 2.573844 h -0.45212 v -2.573844 z m 1.13917,0.352435 h -0.80098 v -0.352435 h 2.05053 v 0.352435 h -0.79743 v 2.221409 h -0.45212 z m 2.54537,0.786749 0.73335,-1.139184 h 0.50551 l -1.01458,1.512979 v 1.060865 h -0.45212 V 27.45849 l -1.03238,-1.512979 h 0.51619 z"
           id="text5-8"
           aria-label="SHIH CHIEN UNIVERSITY" />
        <path
           d="m 34.632976,45.59216 h 6.548964 v 0.726016 h -6.548964 z m 3.689349,0.288925 q 0.237066,0.874183 0.637116,1.629832 0.407458,0.75565 0.992716,1.326091 0.592667,0.563034 1.370541,0.889 -0.0889,0.07408 -0.192616,0.192617 -0.09631,0.118533 -0.185209,0.237066 -0.0889,0.125942 -0.148166,0.22225 -0.822325,-0.385233 -1.437216,-1.014941 -0.607483,-0.637116 -1.029758,-1.474258 -0.422275,-0.837141 -0.7112,-1.837266 z m -0.814917,-2.355849 h 0.763058 q 0,0.525991 -0.02963,1.133474 -0.02222,0.600075 -0.111125,1.237191 -0.0889,0.637117 -0.288925,1.274233 -0.200025,0.637117 -0.555625,1.229783 -0.355599,0.592666 -0.911224,1.103841 -0.555625,0.503767 -1.355724,0.881591 -0.0889,-0.140758 -0.237067,-0.311149 -0.148167,-0.162984 -0.296333,-0.274109 0.770466,-0.348191 1.296458,-0.807508 0.533399,-0.466724 0.859366,-1.007532 0.333375,-0.548217 0.511175,-1.133475 0.177799,-0.585258 0.251883,-1.170516 0.07408,-0.585258 0.0889,-1.133475 0.01482,-0.548216 0.01482,-1.022349 z m 5.23769,5.859989 h 5.911847 v 0.659341 h -5.911847 z m -0.703792,-5.215464 h 6.548964 v 0.651933 h -6.548964 z m 0.363008,1.385357 h 0.688975 v 4.859865 h -0.688975 z m 2.081741,1.274233 v 0.511175 h 2.600324 v -0.511175 z m 0,0.992716 v 0.511175 h 2.600324 v -0.511175 z m 0,-1.970616 v 0.496359 h 2.600324 v -0.496359 z m -0.666749,-0.511174 h 3.963456 v 3.50414 h -3.963456 z m 1.229782,-1.844674 0.814917,0.03704 q -0.03704,0.370417 -0.09631,0.75565 -0.05927,0.377825 -0.118533,0.726016 -0.05927,0.348192 -0.118533,0.614892 l -0.688975,-0.05927 q 0.04445,-0.281517 0.0889,-0.644525 0.04445,-0.363008 0.07408,-0.740833 0.03704,-0.377825 0.04445,-0.688974 z"
           id="text5-9"
           style="font-weight:500;font-size:7.40833px;line-height:1.25;font-family:'Noto Sans JP';-inkscape-font-specification:'Noto Sans JP Medium';fill:#f9f9f9;stroke-width:0.264583"
           aria-label="大直" />
        <path
           d="m 81.218762,29.81286 h 0.32158 v 0.495496 h -0.32158 z m -1.230536,0.305173 h 2.789216 v 0.66613 h -0.321581 v -0.393771 h -2.162462 v 0.393771 h -0.305173 z m 0.282203,0.603783 h 2.24778 v 0.25267 h -2.24778 z m -0.32158,1.027088 h 2.887658 v 0.269077 h -2.887658 z m 0.374083,-0.521748 h 2.142774 v 0.255952 h -2.142774 z m 1.24038,0.580813 q 0.150946,0.334706 0.479089,0.528311 0.331425,0.193604 0.833483,0.255951 -0.04594,0.04594 -0.101724,0.127976 -0.0525,0.08204 -0.08532,0.144383 -0.357676,-0.06235 -0.630035,-0.190323 -0.272358,-0.124694 -0.462681,-0.324862 -0.190323,-0.200167 -0.311736,-0.479089 z m -0.351113,-1.322416 h 0.315018 v 0.859735 q 0,0.167353 -0.03281,0.337987 -0.02953,0.170634 -0.11485,0.334706 -0.08532,0.164071 -0.246107,0.315017 -0.16079,0.150946 -0.416741,0.282203 -0.252671,0.131257 -0.623472,0.239544 -0.01641,-0.03281 -0.04922,-0.07875 -0.03281,-0.04594 -0.07219,-0.09188 -0.0361,-0.04594 -0.06891,-0.07875 0.357676,-0.09188 0.593939,-0.203449 0.239544,-0.11485 0.380646,-0.239544 0.144383,-0.127976 0.216574,-0.265796 0.07219,-0.13782 0.09516,-0.278922 0.02297,-0.141101 0.02297,-0.278921 z m 2.349504,-0.278922 v 0.515185 h 0.502059 v -0.515185 z m -0.265795,-0.262514 h 1.046776 v 1.040213 h -1.046776 z m 0.426585,0.922082 h 0.272359 v 1.519302 h -0.272359 z m -0.433148,0.393772 h 0.249388 v 1.233817 h -0.249388 z m -0.157509,1.155063 q 0.164072,-0.03281 0.377364,-0.07875 0.213293,-0.04922 0.449556,-0.105006 0.239545,-0.05579 0.475808,-0.11485 l 0.03281,0.269077 q -0.334706,0.0886 -0.672693,0.173916 -0.337987,0.08204 -0.600502,0.147664 z m 0.715352,-0.994273 h 0.561124 v 0.272358 h -0.561124 z m 0.603783,-1.023807 1.594775,-0.154227 0.02625,0.262515 -1.591493,0.16079 z m 0.08532,0.511904 1.443829,-0.150946 0.02953,0.255951 -1.443829,0.154227 z m -0.07875,0.534873 1.703062,-0.177198 0.02953,0.262515 -1.703062,0.18376 z m 0.479089,-1.630871 h 0.311735 q -0.0033,0.446274 0.01969,0.853172 0.02625,0.406897 0.07875,0.751447 0.0525,0.34455 0.127976,0.600502 0.07875,0.25267 0.177197,0.393771 0.09844,0.141102 0.213293,0.141102 0.05907,0 0.08532,-0.09188 0.02953,-0.09188 0.04266,-0.331425 0.04594,0.04922 0.111569,0.09516 0.06891,0.04266 0.124694,0.06563 -0.02625,0.219855 -0.07219,0.341268 -0.04594,0.124695 -0.121412,0.173916 -0.07547,0.04922 -0.200168,0.04922 -0.167353,0 -0.301891,-0.11485 -0.131257,-0.111568 -0.2297,-0.318298 -0.09844,-0.20673 -0.170635,-0.488933 -0.06891,-0.285485 -0.111568,-0.623472 -0.04266,-0.341269 -0.06563,-0.718633 -0.01969,-0.380646 -0.01969,-0.777699 z m 0.446274,0.173916 0.173916,-0.187042 q 0.07875,0.0361 0.167353,0.08532 0.0886,0.04594 0.167353,0.09516 0.07875,0.04922 0.127975,0.09516 l -0.177197,0.210012 q -0.04922,-0.04594 -0.127976,-0.09844 -0.07547,-0.05578 -0.164071,-0.108287 -0.08532,-0.0525 -0.167353,-0.09188 z m 0.403616,1.660403 0.265796,0.118132 q -0.167353,0.242826 -0.41346,0.446274 -0.242826,0.203449 -0.534874,0.360958 -0.288765,0.154227 -0.607064,0.259232 -0.02953,-0.05907 -0.08204,-0.131257 -0.0525,-0.07219 -0.105006,-0.124694 0.301892,-0.0886 0.584095,-0.223137 0.282203,-0.134539 0.511903,-0.311736 0.232982,-0.180479 0.380646,-0.393772 z m 0.715352,-0.922082 h 2.900784 v 0.321581 h -2.900784 z m 1.634152,0.127976 q 0.105006,0.387209 0.282203,0.721915 0.180478,0.334706 0.439711,0.587376 0.262515,0.249388 0.607065,0.393771 -0.03938,0.03281 -0.08532,0.08532 -0.04266,0.0525 -0.08204,0.105005 -0.03938,0.05579 -0.06563,0.09844 -0.364238,-0.170634 -0.636597,-0.449556 -0.269077,-0.282203 -0.456119,-0.653004 -0.187041,-0.370802 -0.315017,-0.813795 z m -0.360958,-1.043495 h 0.337988 q 0,0.232982 -0.01313,0.502059 -0.0098,0.265796 -0.04922,0.547999 -0.03938,0.282203 -0.127976,0.564406 -0.0886,0.282203 -0.246107,0.544717 -0.157509,0.262515 -0.403616,0.488933 -0.246108,0.223138 -0.600502,0.390491 -0.03938,-0.06235 -0.105006,-0.13782 -0.06563,-0.07219 -0.131257,-0.121413 0.341269,-0.154228 0.57425,-0.357676 0.236263,-0.20673 0.380646,-0.446275 0.147665,-0.242826 0.226419,-0.502058 0.07875,-0.259233 0.111568,-0.518466 0.03281,-0.259233 0.03938,-0.502059 0.0066,-0.242826 0.0066,-0.452838 z m 2.566079,1.112405 h 1.578367 v 0.272359 h -1.578367 z m -0.564406,0.744885 h 2.917191 v 0.285484 h -2.917191 z m 1.292883,-0.2297 h 0.318299 v 1.069746 q 0,0.127976 -0.03938,0.196886 -0.0361,0.06891 -0.141102,0.105005 -0.101724,0.03281 -0.25267,0.03938 -0.150946,0.0098 -0.370802,0.0098 -0.01313,-0.06563 -0.0525,-0.154227 -0.03609,-0.08532 -0.07547,-0.147665 0.11485,0.0033 0.223137,0.0066 0.111568,0.0033 0.193604,0.0033 0.08204,-0.0033 0.11485,-0.0033 0.04922,-0.0033 0.06563,-0.01641 0.01641,-0.01313 0.01641,-0.04922 z m 0.751447,-0.515185 h 0.07547 l 0.06891,-0.01641 0.196886,0.150946 q -0.111568,0.118131 -0.255951,0.232981 -0.144383,0.11485 -0.305173,0.213293 -0.157509,0.09844 -0.315018,0.173916 -0.02953,-0.04266 -0.08203,-0.09516 -0.04922,-0.05579 -0.0886,-0.0886 0.134539,-0.06235 0.269077,-0.150946 0.13782,-0.0886 0.25267,-0.180478 0.11485,-0.09516 0.18376,-0.180479 z m -1.991828,-0.577531 h 2.815467 v 0.764573 h -0.305173 v -0.488933 h -2.214965 v 0.488933 h -0.295329 z m 2.313409,-0.515185 0.331424,0.105006 q -0.108287,0.157508 -0.2297,0.311736 -0.121413,0.154227 -0.223137,0.262514 l -0.249389,-0.09844 q 0.06563,-0.07875 0.134539,-0.180479 0.06891,-0.101724 0.131257,-0.20673 0.06563,-0.105005 0.105006,-0.193604 z m -2.090271,0.134539 0.262514,-0.118132 q 0.09188,0.09844 0.180479,0.223137 0.0886,0.124695 0.127975,0.219856 l -0.27564,0.134539 q -0.03938,-0.09516 -0.124694,-0.223137 -0.08532,-0.127976 -0.170634,-0.236263 z m 0.836764,-0.06891 0.272359,-0.101725 q 0.07875,0.111569 0.154227,0.25267 0.07876,0.13782 0.108287,0.239545 l -0.288765,0.11485 q -0.02625,-0.105006 -0.09844,-0.246107 -0.06891,-0.144383 -0.147665,-0.259233 z"
           id="text5-9-1"
           style="font-weight:500;font-size:3.28143px;line-height:1.25;font-family:'Noto Sans JP';-inkscape-font-specification:'Noto Sans JP Medium';fill:#f9f9f9;stroke-width:0.117194"
           aria-label="実践大学" />
        <path
           style="font-weight:500;font-size:3.28143px;line-height:1.25;font-family:'Noto Sans kr';-inkscape-font-specification:'Noto Sans kr Medium';fill:#f9f9f9;stroke-width:0.117194"
           d="m 97.956775,30.125549 h 0.29861 v 0.223137 q 0,0.196886 -0.06235,0.377364 -0.05907,0.177198 -0.170634,0.334706 -0.111569,0.154227 -0.265796,0.278922 -0.150946,0.124694 -0.334706,0.213293 -0.18376,0.08532 -0.383927,0.127976 l -0.150946,-0.285485 q 0.177197,-0.03281 0.337987,-0.101724 0.16079,-0.07219 0.295329,-0.173916 0.134539,-0.105006 0.2297,-0.226419 0.09844,-0.124694 0.150946,-0.262514 0.05578,-0.141102 0.05578,-0.282203 z m 0.06563,0 h 0.29861 v 0.223137 q 0,0.144383 0.0525,0.282203 0.05578,0.13782 0.154227,0.262514 0.09844,0.124695 0.232982,0.226419 0.134538,0.101724 0.295328,0.173916 0.16079,0.06891 0.337988,0.101724 l -0.150946,0.285485 q -0.200167,-0.04266 -0.383928,-0.127976 -0.18376,-0.0886 -0.337987,-0.213293 -0.150946,-0.124695 -0.262514,-0.278922 -0.111569,-0.157508 -0.173916,-0.334706 -0.06235,-0.180478 -0.06235,-0.377364 z m -1.227255,2.136211 h 2.717024 v 0.285484 h -2.717024 z m 5.230601,-2.326534 h 0.32814 v 2.244498 h -0.32814 z m -0.9713,0.813794 h 0.50862 v 0.282203 h -0.50862 z m 0.3872,-0.754728 h 0.32487 v 2.109959 h -0.32487 z m -1.07302,2.598892 h 2.0673 v 0.278922 h -2.0673 z m 0,-0.672693 h 0.34455 v 0.84989 h -0.34455 z m 0.023,-1.512739 h 0.27236 v 0.219856 q 0,0.239544 -0.0755,0.465963 -0.0755,0.226418 -0.22642,0.403615 -0.15094,0.173916 -0.383924,0.272359 l -0.177197,-0.265796 q 0.200171,-0.08203 0.328141,-0.223137 0.13126,-0.141101 0.19689,-0.308454 0.0656,-0.170635 0.0656,-0.34455 z m 0.0656,0 h 0.26579 v 0.216574 q 0,0.164072 0.0623,0.324862 0.0656,0.157508 0.19032,0.285484 0.1247,0.127976 0.31174,0.203449 l -0.17392,0.269077 q -0.22314,-0.09188 -0.3708,-0.259233 -0.14438,-0.167353 -0.21657,-0.380646 -0.0689,-0.213293 -0.0689,-0.442993 z m -0.580818,-0.200168 h 1.328978 v 0.275641 h -1.328978 z m 5.184658,-0.27564 h 0.32814 v 2.999227 h -0.32814 z m -0.4594,1.181315 h 0.54472 v 0.282203 h -0.54472 z m -0.21657,-1.118967 h 0.32158 v 2.789215 h -0.32158 z m -1.45368,1.942606 h 0.20017 q 0.20673,0 0.38065,-0.0066 0.17391,-0.0066 0.33798,-0.02297 0.16736,-0.01969 0.34127,-0.0525 l 0.0328,0.282203 q -0.18048,0.0361 -0.35112,0.05579 -0.17063,0.01641 -0.35111,0.02297 -0.1772,0.0066 -0.39049,0.0066 h -0.20017 z m 0,-1.647278 h 1.10913 v 0.278922 h -0.77114 v 1.499613 h -0.33799 z m 2.92376,-0.06235 h 1.76869 v 0.272359 h -1.76869 z m 0.88598,0.400335 q 0.2133,0 0.37737,0.06891 0.16407,0.06891 0.25595,0.193604 0.0919,0.121413 0.0919,0.285484 0,0.164072 -0.0919,0.288766 -0.0919,0.121413 -0.25595,0.190323 -0.16407,0.06563 -0.37737,0.06563 -0.21657,0 -0.38064,-0.06563 -0.16407,-0.06891 -0.25595,-0.190323 -0.0919,-0.124694 -0.0919,-0.288766 0,-0.164071 0.0919,-0.285484 0.0919,-0.124694 0.25595,-0.193604 0.16407,-0.06891 0.38064,-0.06891 z m 0,0.265795 q -0.18047,0 -0.29204,0.07547 -0.10829,0.07219 -0.10829,0.20673 0,0.131258 0.10829,0.20673 0.11157,0.07547 0.29204,0.07547 0.1772,0 0.28549,-0.07547 0.10829,-0.07547 0.10829,-0.20673 0,-0.134538 -0.10829,-0.20673 -0.10829,-0.07547 -0.28549,-0.07547 z m 1.10913,-0.958177 h 0.34127 v 1.876978 h -0.34127 z m 0.24939,0.800669 h 0.51518 v 0.285484 h -0.51518 z m -1.87698,1.220692 h 1.96886 v 0.977866 h -0.34127 v -0.702226 h -1.62759 z m 0.34455,-2.037768 h 0.34455 V 30.3815 h -0.34455 z m 2.57592,0.295328 h 1.91636 v 0.278922 h -1.91636 z m -0.27236,2.044331 h 2.71046 v 0.282203 h -2.71046 z m 0.62347,-0.971303 h 0.33799 v 1.066465 h -0.33799 z m 1.46024,-1.073028 h 0.34127 v 0.311736 q 0,0.187042 -0.003,0.39049 -0.003,0.203449 -0.0262,0.439712 -0.0197,0.236263 -0.0722,0.52831 l -0.34126,-0.0361 q 0.0755,-0.41346 0.0886,-0.728477 0.0131,-0.318299 0.0131,-0.593939 z m -0.71863,1.073028 h 0.33798 v 1.066465 h -0.33798 z"
           id="text5-9-1-0"
           aria-label="스젠대학교" />
        <path
           style="font-weight:500;font-size:7.40833px;line-height:1.25;font-family:'Noto Sans KR';-inkscape-font-specification:'Noto Sans KR Medium';fill:#f9f9f9;stroke-width:0.264583"
           d="m 60.366684,43.701977 h 0.777874 v 6.78603 h -0.777874 z m 0.607483,2.600324 h 1.222374 v 0.644524 h -1.222374 z m -4.800598,1.874307 h 0.548216 q 0.607484,0 1.118658,-0.01482 0.511175,-0.02222 0.992717,-0.06667 0.481541,-0.05186 0.977899,-0.140759 l 0.08149,0.644525 q -0.511175,0.09631 -1.007533,0.148167 -0.48895,0.04445 -1.02235,0.06667 -0.525991,0.01482 -1.140883,0.01482 h -0.548216 z m 0,-3.830106 h 3.14854 v 0.629708 h -2.378074 v 3.50414 h -0.770466 z m 6.541556,4.637614 h 6.134097 v 0.637117 h -6.134097 z m 2.652182,-4.356098 h 0.659342 v 0.481542 q 0,0.422274 -0.140759,0.800099 -0.13335,0.377825 -0.385233,0.703792 -0.251883,0.325966 -0.592666,0.585258 -0.340783,0.251883 -0.75565,0.437091 -0.407458,0.1778 -0.851958,0.2667 l -0.318558,-0.629708 q 0.40005,-0.05927 0.75565,-0.207433 0.3556,-0.148167 0.651933,-0.3556 0.303741,-0.207433 0.518583,-0.459317 0.22225,-0.251883 0.340783,-0.540808 0.118533,-0.288925 0.118533,-0.600074 z m 0.155575,0 h 0.659342 v 0.481542 q 0,0.311149 0.118533,0.600074 0.118533,0.281517 0.340783,0.5334 0.22225,0.251883 0.518583,0.459317 0.303742,0.200024 0.66675,0.348191 0.370416,0.140758 0.770466,0.200025 l -0.31115,0.614891 Q 67.826873,47.783967 67.412006,47.606167 66.99714,47.428367 66.648948,47.176484 66.308165,46.9246 66.056282,46.606042 65.804399,46.287484 65.66364,45.909659 65.522882,45.531834 65.522882,45.10956 Z m -2.30399,-0.296333 h 5.111747 v 0.629708 h -5.111747 z"
           id="text5-9-8"
           aria-label="다즈" />
      </g>
      <path
         id="rect2"
         style="fill:#ffffff;stroke-width:0.634253"
         d="m 79.913445,18.870537 h 0.878811 v 14.029954 h -0.878811 z" />
    </g>
  </g>
</svg>
