<?xml version="1.0" encoding="UTF-8" standalone="no"?>
<!-- Created with Inkscape (http://www.inkscape.org/) -->

<svg
   width="500"
   height="250"
   viewBox="0 0 132.29166 66.145833"
   version="1.1"
   id="svg1"
   inkscape:version="1.3.2 (091e20e, 2023-11-25, custom)"
   sodipodi:docname="br15.svg"
   xmlns:inkscape="http://www.inkscape.org/namespaces/inkscape"
   xmlns:sodipodi="http://sodipodi.sourceforge.net/DTD/sodipodi-0.dtd"
   xmlns="http://www.w3.org/2000/svg"
   xmlns:svg="http://www.w3.org/2000/svg">
  <sodipodi:namedview
     id="namedview1"
     pagecolor="#9e652e"
     bordercolor="#ffffff"
     borderopacity="1"
     inkscape:showpageshadow="0"
     inkscape:pageopacity="0"
     inkscape:pagecheckerboard="false"
     inkscape:deskcolor="#d1d1d1"
     inkscape:document-units="mm"
     inkscape:zoom="2.0208096"
     inkscape:cx="305.81802"
     inkscape:cy="106.88785"
     inkscape:window-width="1920"
     inkscape:window-height="1009"
     inkscape:window-x="1912"
     inkscape:window-y="-8"
     inkscape:window-maximized="1"
     inkscape:current-layer="layer1" />
  <defs
     id="defs1">
    <rect
       x="560.66638"
       y="34.144731"
       width="279.32397"
       height="128.59143"
       id="rect6" />
    <rect
       x="157.85752"
       y="62.351248"
       width="329.07603"
       height="135.09437"
       id="rect4" />
    <rect
       x="157.85751"
       y="62.35125"
       width="329.07602"
       height="135.09438"
       id="rect4-5" />
  </defs>
  <g
     inkscape:label="Layer 1"
     inkscape:groupmode="layer"
     id="layer1">
    <path
       id="rect5"
       style="fill:#9e652e;stroke-width:0.953294"
       d="M -2.5431316e-6,-1.2715658e-6 H 132.29167 V 66.145835 H -2.5431316e-6 Z" />
    <g
       id="g4"
       transform="matrix(1.1903961,0,0,1.1903961,-17.774629,-6.2969553)">
      <g
         id="g5"
         transform="matrix(0.82766152,0,0,0.82766152,17.509474,5.6997351)">
        <path
           id="rect1"
           style="fill-opacity:0;stroke:#f9f9f9;stroke-width:0.953294"
           d="m 10.182676,14.144197 h 12.563615 c 3.97082,0 7.167545,3.196725 7.167545,7.167545 v 23.522352 c 0,3.970819 -3.196725,7.167544 -7.167545,7.167544 H 10.182676 c -3.97082,0 -7.167545,-3.196725 -7.167545,-7.167544 V 21.311742 c 0,-3.97082 3.196725,-7.167545 7.167545,-7.167545 z" />
        <path
           style="font-size:12.7px;line-height:1.25;font-family:'AR UDJingXiHeiE1G30 EB';-inkscape-font-specification:'AR UDJingXiHeiE1G30 EB';fill:#f9f9f9;stroke-width:0.264583"
           d="M 12.825932,30.493842 H 7.9999322 v -9.1821 h 4.4195998 q 1.3081,0 2.0701,0.635 0.762,0.635 0.762,1.6891 0,0.6858 -0.3048,1.2065 -0.2921,0.508 -0.889,0.8382 0.7747,0.3048 1.1684,0.8382 0.4064,0.5334 0.4064,1.27 0,1.2192 -0.8001,1.9685 -0.8001,0.7366 -2.0066,0.7366 z m 0.7493,-6.6548 q 0,-0.6223 -0.3556,-0.9398 -0.3556,-0.3302 -1.0287,-0.3302 H 9.6128322 v 2.5908 h 2.6669998 q 0.5715,0 0.9271,-0.3302 0.3683,-0.3429 0.3683,-0.9906 z m 0.381,3.937 q 0,-0.6604 -0.4064,-1.0033 -0.3937,-0.3556 -1.0414,-0.3556 H 9.6128322 v 2.8194 h 2.8701998 q 0.6731,0 1.0668,-0.3683 0.4064,-0.3683 0.4064,-1.0922 z m 9.042408,-3.8354 q 0,-0.6731 -0.3556,-1.016 -0.3556,-0.3556 -1.028699,-0.3556 h -2.7559 v 2.8575 h 2.667 q 0.660399,0 1.066799,-0.3937 0.4064,-0.3937 0.4064,-1.0922 z m -4.140199,2.7305 v 3.8227 h -1.6129 v -9.1821 h 4.673599 q 1.2573,0 1.9939,0.6731 0.7493,0.6604 0.7493,1.8796 0,0.8001 -0.381,1.3716 -0.3683,0.5715 -0.9271,0.8128 0.7112,0.4064 1.0922,1.4097 0.381,1.0033 0.4826,3.0353 h -1.6764 q -0.0762,-2.1336 -0.4699,-2.9718 -0.381,-0.8509 -1.231899,-0.8509 z"
           id="text2"
           aria-label="BR" />
        <path
           style="font-size:14.5521px;line-height:1.25;font-family:'AR UDJingXiHeiE1G30 EB';-inkscape-font-specification:'AR UDJingXiHeiE1G30 EB';fill:#f9f9f9;stroke-width:0.264583"
           d="m 11.502217,36.623275 -1.7025962,1.586178 -0.8440218,-1.295136 2.735795,-2.48841 h 1.586179 v 10.521169 h -1.775356 z m 9.313333,2.619378 q -0.62574,0 -1.076855,0.232833 -0.451115,0.218282 -0.771261,0.669397 l -1.629836,-0.174625 0.785814,-5.544351 h 5.879048 v 1.440658 h -4.394734 l -0.407459,2.750347 q 0.363803,-0.407459 0.873126,-0.611188 0.523876,-0.218281 1.222377,-0.218281 1.498866,0 2.371992,0.97499 0.873126,0.974991 0.873126,2.663035 0,1.760804 -0.974991,2.735794 -0.97499,0.974991 -2.735795,0.974991 -1.7317,0 -2.70669,-0.858574 -0.974991,-0.858574 -1.004095,-2.313784 h 1.789908 q -0.01455,0.683949 0.465667,1.207825 0.48022,0.523875 1.411554,0.523875 0.887678,0 1.397002,-0.582084 0.523875,-0.596636 0.523875,-1.717148 0,-1.047751 -0.538427,-1.600731 -0.538428,-0.552979 -1.353346,-0.552979 z"
           id="text3"
           aria-label="15" />
        <path
           style="font-weight:500;font-size:72px;line-height:1.25;font-family:'Noto Sans TC';-inkscape-font-specification:'Noto Sans TC Medium';white-space:pre;fill:#f9f9f9"
           d="m 204.29742,82.161406 h 6.048 v 40.248004 h -6.048 z m 14.112,-6.12 h 6.192 v 57.528004 q 0,2.88 -0.72,4.392 -0.72,1.512 -2.376,2.304 -1.656,0.792 -4.464,1.008 -2.736,0.216 -7.056,0.216 -0.216,-1.368 -0.792,-3.168 -0.504,-1.8 -1.224,-3.168 2.952,0.072 5.472,0.144 2.52,0 3.384,-0.072 0.864,0 1.224,-0.36 0.36,-0.36 0.36,-1.296 z m -49.68,28.080004 v 8.568 h 6.192 v -8.568 z m -4.608,-4.752004 h 15.624 v 18.072004 h -15.624 z m 23.544,4.752004 v 8.568 h 6.624 v -8.568 z m -4.536,-4.752004 h 15.984 v 18.072004 h -15.984 z m -12.456,19.656004 5.616,1.08 q -1.656,6.192 -4.752,11.448 -3.096,5.256 -6.984,8.784 -0.432,-0.504 -1.296,-1.224 -0.792,-0.648 -1.656,-1.368 -0.864,-0.72 -1.512,-1.152 3.816,-3.024 6.48,-7.632 2.736,-4.608 4.104,-9.936 z m 0.36,-28.872004 h 21.96 v 5.328 h -21.96 z m -1.152,39.168004 3.096,-4.104 q 2.16,1.368 4.392,3.168 2.304,1.8 3.528,3.24 l -3.24,4.608 q -1.224,-1.512 -3.456,-3.456 -2.232,-2.016 -4.32,-3.456 z m 18.936,-10.152 5.616,1.008 q -1.44,6.264 -4.248,11.592 -2.736,5.328 -6.336,9 -0.432,-0.504 -1.296,-1.224 -0.864,-0.648 -1.728,-1.296 -0.864,-0.648 -1.584,-1.008 3.456,-3.24 5.904,-7.92 2.448,-4.752 3.672,-10.152 z m -0.576,10.44 3.6,-3.816 q 1.728,1.296 3.528,2.88 1.8,1.512 3.456,3.024 1.656,1.512 2.592,2.736 l -3.816,4.392 q -0.936,-1.368 -2.52,-3.024 -1.584,-1.584 -3.384,-3.168 -1.8,-1.656 -3.456,-3.024 z m -7.776,-55.656004 5.976,2.16 q -3.744,6.048 -9.504,11.232 -5.76,5.112 -12.528,8.784 -0.504,-0.72 -1.296,-1.512 -0.792,-0.864 -1.656,-1.656 -0.864,-0.864 -1.512,-1.368 4.32,-2.232 8.208,-5.04 3.96,-2.88 7.128,-6.048 3.168,-3.24 5.184,-6.552 z m -0.576,7.632 3.168,-4.464 q 3.096,1.728 6.552,3.888 3.528,2.16 6.624,4.32 3.168,2.088 5.04,3.888 l -3.384,5.184 q -1.944,-1.872 -5.04,-4.104 -3.024,-2.304 -6.48,-4.608 -3.384,-2.304 -6.48,-4.104 z m 54.144,-0.288 h 63.648 v 6.408 h -63.648 z m 15.264,29.808004 h 33.264 v 5.4 h -33.264 z m -1.512,11.592 h 36.216 v 5.616 h -36.216 z m 14.616,-8.928 h 6.48 v 26.064 h -6.48 z m -24.984,-19.440004 h 52.128 v 6.336004 h -45.288 v 40.68 h -6.84 z m 50.04,0 h 6.912 v 39.744004 q 0,2.736 -0.72,4.176 -0.72,1.44 -2.736,2.16 -1.944,0.72 -5.112,0.864 -3.096,0.144 -7.488,0.144 -0.216,-1.296 -0.936,-3.024 -0.648,-1.656 -1.368,-2.88 2.088,0.072 4.032,0.072 2.016,0.072 3.6,0 1.584,0 2.16,0 1.008,0 1.296,-0.288 0.36,-0.36 0.36,-1.224 z m -34.848,8.496004 5.4,-1.656 q 1.368,1.872 2.592,4.176 1.224,2.304 1.8,4.032 l -5.76,2.016 q -0.432,-1.8 -1.656,-4.176 -1.152,-2.448 -2.376,-4.392 z m 21.24,-1.656 5.76,1.728 q -1.368,2.664 -2.88,5.328 -1.512,2.664 -2.88,4.536 l -4.896,-1.512 q 0.864,-1.368 1.728,-3.168 0.936,-1.8 1.728,-3.6 0.864,-1.8 1.44,-3.312 z m -11.664,-26.280004 h 7.488 v 23.832 h -7.488 z m 78.264,57.960004 h 23.328 v 5.904 h -23.328 z m 3.384,-51.048004 h 18.648 v 5.832 h -18.648 z m -6.048,33.264004 h 28.944 v 26.064 h -6.552 v -20.304 h -16.128 v 20.52 h -6.264 z m 22.32,-33.264004 h 1.224 l 1.224,-0.288 4.32,1.872 q -2.016,6.696 -5.328,12.24 -3.312,5.544004 -7.56,10.008004 -4.248,4.392 -9.216,7.704 -4.896,3.312 -10.152,5.544 -0.648,-1.152 -1.8,-2.664 -1.08,-1.584 -2.088,-2.448 4.752,-1.8 9.288,-4.752 4.608,-3.024 8.568,-6.984 3.96,-3.960004 6.912,-8.784004 2.952,-4.824 4.608,-10.296 z m -15.48,-7.2 6.48,1.584 q -1.584,4.896 -3.816,9.504 -2.232,4.608 -4.968,8.568 -2.664,3.888 -5.688,6.912004 -0.504,-0.648 -1.512,-1.440004 -0.936,-0.864 -2.016,-1.656 -1.008,-0.864 -1.728,-1.368 4.32,-3.888 7.776,-9.72 3.528,-5.904 5.472,-12.384 z m -0.72,10.656 q 1.584,3.744 4.104,7.704 2.592,3.96 6.12,7.632004 3.6,3.672 8.136,6.696 4.536,3.024 10.08,4.968 -0.648,0.648 -1.512,1.728 -0.792,1.008 -1.512,2.088 -0.72,1.008 -1.224,1.944 -5.544,-2.304 -10.152,-5.688 -4.536,-3.384 -8.136,-7.416 -3.528,-4.032 -6.192,-8.208004 -2.592,-4.248 -4.248,-8.136 z m -36.216,21.240004 h 5.616 v 26.136 h -5.616 z m 6.264,-23.112004 v 11.16 h 11.736 v -11.16 z m -6.048,-5.832 h 24.12 v 22.896004 h -24.12 z m 10.152,20.304 h 6.12 v 32.544004 h -6.12 z m -13.824,33.912004 q 3.672,-0.72 8.424,-1.728 4.752,-1.008 10.008,-2.232 5.328,-1.224 10.584,-2.448 l 0.648,6.048 q -7.56,1.872 -15.12,3.744 -7.488,1.8 -13.392,3.168 z m 16.128,-21.744 h 12.312 v 5.976 h -12.312 z"
           id="text4"
           transform="matrix(0.26458333,0,0,0.26458333,-8.0629803,-4.4771203)"
           aria-label="劍南路" />
        <path
           style="font-weight:500;font-size:72px;line-height:1.25;font-family:'Noto Sans TC';-inkscape-font-specification:'Noto Sans TC Medium';white-space:pre;fill:#f9f9f9"
           d="m 164.12142,84.177406 h 59.328 v 6.048 h -59.328 z m 4.104,11.016 h 51.696 v 5.760004 h -51.696 z m -4.896,21.672004 h 61.632 v 5.832 h -61.632 z m -1.656,-10.8 h 64.872 v 5.976 h -64.872 z m 28.512,-18.216004 h 7.056 v 22.824004 h -7.056 z m -16.344,-11.16 6.048,-2.376 q 1.8,1.944 3.456,4.464 1.656,2.448 2.448,4.392 l -6.336,2.808 q -0.72,-2.016 -2.304,-4.608 -1.584,-2.592 -3.312,-4.68 z m 32.976,-2.376 7.272,1.944 q -1.8,2.952 -3.888,5.832 -2.016,2.808 -3.672,4.752 l -5.976,-1.872 q 1.08,-1.44 2.232,-3.312 1.152,-1.944 2.232,-3.816 1.08,-1.944 1.8,-3.528 z m -17.28,36.216004 h 7.2 q -0.504,4.968 -1.584,9.216 -1.008,4.176 -3.168,7.632 -2.088,3.384 -5.688,6.048 -3.528,2.664 -9,4.608 -5.472,2.016 -13.392,3.312 -0.288,-0.936 -0.864,-2.088 -0.576,-1.08 -1.296,-2.232 -0.648,-1.08 -1.296,-1.8 7.272,-1.008 12.24,-2.52 4.968,-1.584 8.136,-3.672 3.168,-2.16 4.896,-4.896 1.728,-2.736 2.52,-6.12 0.864,-3.384 1.296,-7.488 z m 4.608,17.208 3.024,-5.04 q 3.6,1.224 7.632,2.88 4.104,1.656 8.136,3.456 4.104,1.728 7.632,3.528 3.528,1.728 5.976,3.24 l -3.168,5.904 q -2.376,-1.584 -5.904,-3.384 -3.456,-1.8 -7.488,-3.672 -3.96,-1.944 -8.064,-3.672 -4.104,-1.8 -7.776,-3.24 z m 46.872,-28.296004 h 56.304 v 4.752004 h -56.304 z m -3.096,0 h 6.336 v 12.384004 q 0,3.312 -0.36,7.272 -0.288,3.888 -1.08,7.92 -0.72,4.032 -2.232,7.848 -1.512,3.816 -3.816,6.912 -0.504,-0.648 -1.44,-1.512 -0.936,-0.864 -1.944,-1.656 -0.936,-0.72 -1.656,-1.08 2.808,-3.816 4.104,-8.352 1.296,-4.536 1.656,-9.072 0.432,-4.536 0.432,-8.352 z m 16.992,3.816004 h 6.12 v 15.336 h -6.12 z m 17.208,0 h 6.12 v 15.336 h -6.12 z m -20.232,21.456 h 17.064 v 4.608 h -17.064 z m 19.584,-4.752 h 6.336 v 13.32 q 0,1.368 0.576,1.8 0.648,0.432 2.736,0.432 0.504,0 1.8,0 1.296,0 2.88,0 1.584,0 2.952,0 1.368,0 2.016,0 1.08,0 1.584,-0.36 0.576,-0.36 0.864,-1.44 0.288,-1.08 0.432,-3.096 0.936,0.648 2.52,1.224 1.584,0.504 2.808,0.792 -0.504,4.608 -2.088,6.192 -1.584,1.656 -5.472,1.656 -0.432,0 -1.584,0 -1.08,0 -2.52,0 -1.44,0 -2.88,0 -1.368,0 -2.448,0 -1.08,0 -1.584,0 -3.6,0 -5.544,-0.648 -1.944,-0.576 -2.664,-2.16 -0.72,-1.584 -0.72,-4.32 z m -30.312,-12.456 h 54.216 v 13.104 h -54.216 v -4.392 h 47.808 v -4.248 h -47.808 z m -5.688,-30.528004 h 29.16 v 4.608 h -29.16 z m 32.4,0 h 29.592 v 4.608 h -29.592 z m -30.312,7.416 h 25.848 v 13.104 h -6.048 v -9.144 h -13.896 v 9.288 h -5.904 z m 31.824,0 h 26.28 v 13.104 h -6.12 v -9.144 h -14.328 v 9.288 h -5.832 z m -23.904,7.2 3.312,-2.808 q 1.656,1.224 3.312,2.88 1.728,1.584 2.592,2.88 l -3.456,3.168 q -0.864,-1.368 -2.52,-3.024 -1.584,-1.728 -3.24,-3.096 z m 31.824,0.072 3.312,-2.952 q 1.728,1.152 3.528,2.808 1.8,1.656 2.736,3.024 l -3.384,3.168 q -0.936,-1.368 -2.736,-3.024 -1.728,-1.728 -3.456,-3.024 z m -15.696,4.536 6.12,-2.016 q 1.008,1.584 1.944,3.456 0.936,1.872 1.224,3.240004 l -6.408,2.232 q -0.288,-1.44 -1.08,-3.312004 -0.792,-1.944 -1.8,-3.6 z m -14.4,44.784004 -0.072,-4.32 3.096,-1.872 18.936,-1.656 q -0.072,1.08 -0.072,2.448 0,1.44 0.072,2.376 -6.696,0.72 -10.8,1.152 -4.032,0.504 -6.264,0.792 -2.16,0.36 -3.24,0.576 -1.008,0.288 -1.656,0.504 z m 0,0 q -0.072,-0.72 -0.36,-1.728 -0.216,-1.008 -0.648,-2.016 -0.36,-0.936 -0.72,-1.44 0.864,-0.288 1.728,-0.864 0.864,-0.648 0.864,-2.448 v -13.104 h 6.336 v 17.64 q 0,0 -0.72,0.216 -0.72,0.216 -1.8,0.576 -1.08,0.432 -2.16,0.936 -1.08,0.576 -1.8,1.08 -0.72,0.576 -0.72,1.152 z m 26.208,-16.272 h 21.024 v 4.608 h -21.024 z m 33.768,-21.024 h 23.904 v 5.832 h -23.904 z m -1.8,12.024 h 65.16 v 5.904 h -65.16 z m 1.8,-23.616004 h 61.416 v 5.688 h -61.416 z m 2.016,34.560004 h 56.952 v 5.616 h -56.952 z m 25.056,-32.328004 h 6.696 v 47.232004 h -6.696 z m -17.28,5.112 h 6.336 v 14.688004 h -6.336 z m 35.496,0 h 6.336 v 14.688004 h -6.336 z m -30.6,-24.768 h 6.624 v 15.624 h -6.624 z m 24.912,0 h 6.624 v 15.624 h -6.624 z m -40.896,4.68 h 30.6 v 6.048 h -30.6 z m 33.192,0 h 30.6 v 6.048 h -30.6 z m 5.256,24.048004 h 23.904 v 5.832 h -23.904 z"
           id="text4-0"
           transform="matrix(0.12946199,0,0,0.12946199,77.53375,6.3204728)"
           aria-label="美麗華" />
        <path
           style="font-size:7.40833px;line-height:1.25;font-family:'AR UDJingXiHeiE1G30 EB';-inkscape-font-specification:'AR UDJingXiHeiE1G30 EB';fill:#f9f9f9;stroke-width:0.264583"
           d="m 35.586229,39.602943 q 0,0.340783 0.170392,0.5334 0.170391,0.192616 0.548216,0.192616 0.370417,0.0074 0.563033,-0.200025 0.192617,-0.214841 0.192617,-0.607483 v -3.90419 h 0.933449 v 3.985682 q 0,0.674158 -0.4445,1.074208 -0.437091,0.392641 -1.252007,0.392641 -0.792692,0 -1.222375,-0.385233 -0.429683,-0.392642 -0.429683,-1.000125 v -0.474133 h 0.940858 z m 4.541302,-3.985682 v 5.356223 h -0.940858 v -5.356223 z m 4.081984,3.192991 -0.844549,-2.289174 -0.859367,2.289174 z m -1.978024,0.733424 -0.5334,1.429808 h -0.955674 l 2.155824,-5.356223 h 0.963083 l 2.141007,5.356223 h -0.977899 l -0.540809,-1.429808 z m 5.326583,-2.43734 v 3.867148 h -0.940858 v -5.356223 h 0.970492 l 2.629957,3.956048 v -3.956048 h 0.940858 v 5.356223 h -1.029758 z m 5.771084,0 v 3.867148 H 52.3883 v -5.356223 h 0.970492 l 2.629957,3.956048 v -3.956048 h 0.940858 v 5.356223 h -1.029758 z m 7.682433,1.703916 -0.844549,-2.289174 -0.859367,2.289174 z m -1.978024,0.733424 -0.5334,1.429808 h -0.955674 l 2.155824,-5.356223 H 60.6634 l 2.141007,5.356223 h -0.9779 l -0.540808,-1.429808 z m 5.326582,-2.43734 v 3.867148 h -0.940858 v -5.356223 h 0.970491 l 2.629957,3.956048 v -3.956048 h 0.940858 v 5.356223 h -1.029758 z m 10.127176,0.04445 q 0,-0.392642 -0.207433,-0.592667 -0.207433,-0.207433 -0.600075,-0.207433 H 72.07221 v 1.666874 h 1.555749 q 0.385233,0 0.6223,-0.229658 0.237066,-0.229658 0.237066,-0.637116 z m -2.415115,1.592791 v 2.229907 h -0.940858 v -5.356223 h 2.726265 q 0.733425,0 1.163108,0.392642 0.437092,0.385233 0.437092,1.096433 0,0.466724 -0.22225,0.800099 -0.214842,0.333375 -0.540808,0.474133 0.414866,0.237067 0.637116,0.822325 0.22225,0.585258 0.281516,1.770591 h -0.977899 q -0.04445,-1.2446 -0.274108,-1.733549 -0.22225,-0.496358 -0.718608,-0.496358 z m 9.03817,-0.511175 q 0,1.333499 -0.629708,2.037291 -0.6223,0.703791 -1.740958,0.703791 h -2.192865 v -5.356223 h 2.192865 q 1.118658,0 1.740958,0.659342 0.629708,0.659341 0.629708,1.955799 z m -0.9779,0 q 0,-0.970491 -0.400049,-1.4224 -0.392642,-0.459316 -1.148292,-0.459316 h -1.096432 v 3.889373 h 1.103841 q 0.726016,0 1.133474,-0.481541 0.407458,-0.481542 0.407458,-1.526116 z m 3.104082,1.652057 v 1.089025 h -1.118658 v -1.089025 z"
           id="text5"
           aria-label="JIANNAN RD." />
        <path
           style="font-size:3.55995px;line-height:1.25;font-family:'AR UDJingXiHeiE1G30 EB';-inkscape-font-specification:'AR UDJingXiHeiE1G30 EB';fill:#f9f9f9;stroke-width:0.127141"
           d="m 99.087674,26.664621 v 1.854734 H 98.6498 v -2.573844 h 0.573152 l 0.74047,1.997132 0.711988,-1.997132 h 0.58739 v 2.573844 h -0.44143 v -1.868974 l -0.66927,1.868974 h -0.380916 z m 3.218196,-0.71911 v 2.573844 h -0.45212 v -2.573844 z m 2.2036,0.73691 q 0,-0.188678 -0.0997,-0.284796 -0.0997,-0.09968 -0.28836,-0.09968 h -0.77251 v 0.800989 h 0.74759 q 0.18512,0 0.29904,-0.110359 0.11391,-0.110358 0.11391,-0.306155 z m -1.16054,0.765389 v 1.071545 h -0.45211 v -2.573844 h 1.31006 q 0.35243,0 0.55891,0.188677 0.21004,0.185118 0.21004,0.526873 0,0.224277 -0.1068,0.384475 -0.10324,0.160197 -0.25988,0.227836 0.19936,0.113919 0.30616,0.395155 0.1068,0.281236 0.13528,0.850828 h -0.46992 q -0.0214,-0.598072 -0.13172,-0.833028 -0.10679,-0.238517 -0.34531,-0.238517 z m 3.52079,0.03204 -0.40583,-1.100025 -0.41295,1.100025 z m -0.9505,0.352435 -0.25632,0.68707 h -0.45923 l 1.03594,-2.573844 h 0.4628 l 1.02882,2.573844 h -0.46991 l -0.25988,-0.68707 z m 2.54536,-1.167664 v 1.854734 h -0.43788 v -2.573844 h 0.57316 l 0.74047,1.997132 0.71199,-1.997132 h 0.58739 v 2.573844 h -0.44144 v -1.868974 l -0.66927,1.868974 h -0.38091 z m 4.13666,0.815229 -0.40584,-1.100025 -0.41295,1.100025 z m -0.95051,0.352435 -0.25631,0.68707 h -0.45924 l 1.03595,-2.573844 h 0.46279 l 1.02883,2.573844 h -0.46992 l -0.25987,-0.68707 z m 3.72015,-1.149864 q 0,-0.188678 -0.0997,-0.284796 -0.0997,-0.09968 -0.28836,-0.09968 h -0.77251 v 0.800989 h 0.74759 q 0.18512,0 0.29904,-0.110359 0.11392,-0.110358 0.11392,-0.306155 z m -1.16055,0.765389 v 1.071545 h -0.45211 v -2.573844 h 1.31006 q 0.35244,0 0.55891,0.188677 0.21004,0.185118 0.21004,0.526873 0,0.224277 -0.1068,0.384475 -0.10324,0.160197 -0.25987,0.227836 0.19935,0.113919 0.30615,0.395155 0.1068,0.281236 0.13528,0.850828 h -0.46991 q -0.0214,-0.598072 -0.13172,-0.833028 -0.1068,-0.238517 -0.34532,-0.238517 z"
           id="text5-8"
           aria-label="MIRAMAR" />
        <path
           d="m 38.774233,44.303111 h 0.674158 v 4.230156 h -0.674158 z m 1.577974,-0.637117 h 0.688975 v 5.859989 q 0,0.318558 -0.08149,0.481542 -0.07408,0.170391 -0.2667,0.251883 -0.192616,0.0889 -0.511174,0.111125 -0.31115,0.02963 -0.785283,0.02963 -0.0074,-0.103717 -0.05186,-0.229658 -0.03704,-0.125942 -0.08149,-0.259292 -0.04445,-0.125941 -0.09631,-0.22225 0.333375,0.01482 0.6223,0.01482 0.288925,0 0.385233,0 0.103717,-0.0074 0.140758,-0.04445 0.03704,-0.03704 0.03704,-0.13335 z m -4.919131,1.607608 h 2.363257 v 0.570441 h -2.363257 z m 0.837141,0.363008 h 0.659342 v 1.659466 q 0,0.407458 -0.08149,0.837141 -0.07408,0.429683 -0.288925,0.851958 -0.214841,0.414867 -0.614891,0.785283 -0.40005,0.370417 -1.044575,0.651933 -0.03704,-0.06667 -0.118533,-0.170392 -0.07408,-0.103716 -0.155575,-0.200024 -0.08149,-0.09631 -0.148167,-0.148167 0.600075,-0.2667 0.955675,-0.57785 0.3556,-0.31115 0.5334,-0.651933 0.185208,-0.340783 0.244475,-0.696383 0.05927,-0.3556 0.05927,-0.696383 z m 0.407458,2.607732 q 0.103717,0.06667 0.274109,0.200025 0.1778,0.13335 0.385233,0.296333 0.214841,0.162983 0.422275,0.333375 0.207433,0.162983 0.370416,0.303742 0.170392,0.133349 0.251883,0.200024 l -0.459316,0.57785 q -0.140758,-0.148166 -0.363008,-0.3556 -0.22225,-0.207433 -0.474133,-0.429683 -0.244475,-0.22225 -0.474134,-0.414866 -0.222249,-0.200025 -0.377824,-0.318558 z m -1.148291,-1.348316 v 0.75565 h 2.118783 v -0.75565 z M 34.936718,46.34781 h 3.333748 v 1.852082 h -3.333748 z m 1.311274,-2.778124 h 0.385233 v 0.140758 h 0.22225 v 0.200025 q -0.214841,0.31115 -0.511174,0.681566 -0.296334,0.363009 -0.688975,0.733425 -0.392642,0.370417 -0.889,0.7112 -0.04445,-0.08149 -0.118533,-0.1778 -0.07408,-0.09631 -0.155575,-0.185208 -0.08149,-0.0889 -0.162983,-0.140759 0.459316,-0.281516 0.822324,-0.614891 0.370417,-0.340783 0.644525,-0.688975 0.274108,-0.348191 0.451908,-0.659341 z m 0.155575,0 h 0.511175 q 0.281517,0.214841 0.592666,0.481541 0.318559,0.2667 0.607483,0.5334 0.288925,0.2667 0.481542,0.474133 l -0.466725,0.540808 q -0.1778,-0.214841 -0.451908,-0.48895 -0.2667,-0.281516 -0.570441,-0.555624 -0.303742,-0.281517 -0.57785,-0.48895 h -0.125942 z m 5.622923,0.637116 h 6.548963 v 0.659342 H 42.02649 Z m 1.570566,3.067049 h 3.422648 v 0.555625 h -3.422648 z m -0.155575,1.192741 h 3.72639 v 0.57785 h -3.72639 z m 1.503891,-0.918633 h 0.666749 v 2.681815 H 44.945372 Z M 42.374681,45.54771 h 5.363631 v 0.651933 h -4.659839 v 4.185706 h -0.703792 z m 5.148789,0 h 0.7112 v 4.089398 q 0,0.281517 -0.07408,0.429683 -0.07408,0.148167 -0.281517,0.22225 -0.200025,0.07408 -0.525991,0.0889 -0.318558,0.01482 -0.770466,0.01482 -0.02222,-0.13335 -0.09631,-0.31115 -0.06667,-0.170392 -0.140758,-0.296333 0.214842,0.0074 0.414867,0.0074 0.207433,0.0074 0.370416,0 0.162983,0 0.22225,0 0.103717,0 0.13335,-0.02963 0.03704,-0.03704 0.03704,-0.125942 z m -3.585631,0.874183 0.555625,-0.170392 q 0.140758,0.192617 0.266699,0.429683 0.125942,0.237067 0.185209,0.414867 l -0.592667,0.207433 q -0.04445,-0.185208 -0.170391,-0.429683 -0.118534,-0.251883 -0.244475,-0.451908 z m 2.185457,-0.170392 0.592667,0.1778 q -0.140759,0.274108 -0.296334,0.548217 -0.155575,0.274108 -0.296333,0.466724 L 45.61953,47.288667 q 0.0889,-0.140758 0.1778,-0.325966 0.09631,-0.185208 0.1778,-0.370417 0.0889,-0.185208 0.148166,-0.340783 z m -1.200149,-2.70404 h 0.770466 v 2.452157 h -0.770466 z m 8.052854,5.963705 H 55.3763 v 0.607484 h -2.400299 z m 0.348192,-5.252505 h 1.918757 v 0.600074 h -1.918757 z m -0.6223,3.422648 h 2.978149 v 2.681815 h -0.674158 v -2.089149 h -1.659466 v 2.111374 h -0.644525 z m 2.296582,-3.422648 h 0.125942 l 0.125942,-0.02963 0.444499,0.192617 q -0.207433,0.688974 -0.548216,1.259416 -0.340783,0.570441 -0.777875,1.029758 -0.437091,0.451908 -0.948266,0.792691 -0.503766,0.340783 -1.044574,0.570441 -0.06667,-0.118533 -0.185209,-0.274108 -0.111125,-0.162983 -0.214841,-0.251883 0.48895,-0.185208 0.955674,-0.48895 0.474133,-0.31115 0.881592,-0.718608 0.407458,-0.407458 0.711199,-0.903816 0.303742,-0.496358 0.474133,-1.059391 z m -1.592791,-0.740833 0.66675,0.162983 q -0.162983,0.503766 -0.392641,0.977899 -0.229659,0.474133 -0.511175,0.881592 -0.274108,0.400049 -0.585258,0.711199 -0.05186,-0.06667 -0.155575,-0.148166 -0.09631,-0.0889 -0.207433,-0.170392 -0.103717,-0.0889 -0.1778,-0.140758 0.4445,-0.40005 0.800099,-1.000125 0.363009,-0.607483 0.563033,-1.274232 z m -0.07408,1.096432 q 0.162983,0.385234 0.422275,0.792692 0.2667,0.407458 0.629708,0.785283 0.370417,0.377824 0.837141,0.688974 0.466725,0.31115 1.037167,0.511175 -0.06667,0.06668 -0.155575,0.1778 -0.08149,0.103717 -0.155575,0.214842 -0.07408,0.103716 -0.125942,0.200025 -0.570441,-0.237067 -1.044574,-0.585259 -0.466725,-0.348191 -0.837142,-0.763058 -0.363008,-0.414866 -0.637116,-0.844549 -0.2667,-0.437092 -0.437092,-0.837141 z m -3.72639,2.185458 h 0.57785 v 2.689223 h -0.57785 z m 0.644525,-2.378074 v 1.148291 h 1.207558 v -1.148291 z m -0.6223,-0.600075 h 2.481791 v 2.355849 h -2.481791 z m 1.044575,2.089149 h 0.629708 v 3.348565 h -0.629708 z m -1.4224,3.489324 q 0.377825,-0.07408 0.866775,-0.1778 0.48895,-0.103717 1.029758,-0.229659 0.548216,-0.125941 1.089024,-0.251883 l 0.06667,0.6223 q -0.777874,0.192616 -1.555749,0.385233 -0.770466,0.185208 -1.377949,0.325967 z m 1.659466,-2.237316 h 1.266825 v 0.614891 H 50.90908 Z"
           id="text5-9"
           style="font-weight:500;font-size:7.40833px;line-height:1.25;font-family:'Noto Sans JP';-inkscape-font-specification:'Noto Sans JP Medium';fill:#f9f9f9;stroke-width:0.264583"
           aria-label="剣南路 " />
        <path
           d="m 98.598312,30.242727 h 2.654678 v 0.27564 h -2.654678 z m 0.157509,0.502059 h 2.356069 V 31.0073 h -2.356069 z m -0.292048,0.492215 h 2.917187 v 0.278921 h -2.917187 z m -0.02297,0.538154 h 2.976257 v 0.27564 h -2.976257 z m 1.315854,-1.365075 h 0.321583 v 1.040213 h -0.321583 z m -0.751448,-0.495496 0.27564,-0.111568 q 0.08204,0.0886 0.157509,0.200167 0.07547,0.108287 0.111569,0.196886 l -0.292048,0.127975 q -0.02953,-0.0886 -0.101724,-0.20673 -0.06891,-0.118131 -0.150946,-0.20673 z m 1.509461,-0.11485 0.32814,0.09188 q -0.0755,0.11485 -0.15751,0.219856 -0.082,0.105006 -0.15094,0.18376 l -0.27893,-0.0886 q 0.0459,-0.05578 0.0919,-0.124694 0.0492,-0.07219 0.0952,-0.144383 0.0459,-0.07547 0.0722,-0.13782 z m -0.784265,1.666967 h 0.328145 q -0.023,0.226418 -0.07547,0.416741 -0.04922,0.187042 -0.147664,0.341269 -0.09516,0.154227 -0.259233,0.27564 -0.16079,0.118132 -0.41346,0.20673 -0.25267,0.0886 -0.613627,0.147664 -0.0098,-0.04266 -0.0361,-0.09516 -0.02625,-0.04922 -0.05907,-0.101724 -0.03281,-0.04922 -0.06235,-0.08204 0.334706,-0.04594 0.561124,-0.11485 0.2297,-0.06891 0.374083,-0.164072 0.144383,-0.09516 0.223138,-0.216574 0.08204,-0.124694 0.121413,-0.27564 0.03938,-0.154227 0.05907,-0.337987 z m 0.410175,0.39049 q 0.13782,0.331424 0.46597,0.502059 0.33142,0.170634 0.86958,0.213293 -0.0328,0.03281 -0.0722,0.08532 -0.0361,0.0525 -0.0689,0.105005 -0.0295,0.0525 -0.0492,0.09844 -0.38064,-0.04922 -0.65956,-0.164071 -0.27893,-0.111569 -0.46925,-0.305173 -0.18704,-0.193605 -0.305172,-0.48237 z m 1.93277,-0.918801 h 2.56607 v 0.216575 h -2.56607 z m -0.14111,0 h 0.28877 v 0.564406 q 0,0.150946 -0.0164,0.331425 -0.0131,0.177197 -0.0492,0.360957 -0.0328,0.18376 -0.10172,0.357676 -0.0689,0.173916 -0.17392,0.315017 -0.023,-0.02953 -0.0656,-0.06891 -0.0427,-0.03938 -0.0886,-0.07547 -0.0426,-0.03281 -0.0755,-0.04922 0.12798,-0.173916 0.18704,-0.380646 0.0591,-0.20673 0.0755,-0.41346 0.0197,-0.20673 0.0197,-0.380646 z m 1.16163,-0.18376 h 0.26252 v 0.308455 h -0.26252 z m -0.38721,0.357676 h 0.27892 v 0.698945 h -0.27892 z m 0.78426,0 h 0.27893 v 0.698945 h -0.27893 z m -0.9352,0.977866 h 0.7777 v 0.210012 h -0.7777 z m -0.43972,0.492215 q 0.23627,-0.01969 0.56769,-0.04594 0.33143,-0.02625 0.67598,-0.05907 v 0.219856 q -0.32486,0.03281 -0.64973,0.06235 -0.32486,0.03281 -0.57097,0.05907 z m 2.31998,-0.616909 0.1936,0.18376 q -0.13454,0.04266 -0.29533,0.08204 -0.16079,0.03938 -0.32814,0.07219 -0.16407,0.02953 -0.3183,0.0525 -0.007,-0.0361 -0.0295,-0.0886 -0.023,-0.0525 -0.0427,-0.09188 0.14438,-0.02625 0.29861,-0.05906 0.15423,-0.0361 0.29205,-0.07219 0.13782,-0.03938 0.2297,-0.07875 z m -0.97459,-0.07875 h 0.28877 v 0.603783 q 0,0.06563 0.0295,0.08532 0.0295,0.01641 0.12798,0.01641 0.0197,0 0.0787,0 0.0624,0 0.13454,0 0.0755,0 0.13782,0 0.0656,0 0.0952,0 0.0525,0 0.0787,-0.01969 0.0295,-0.02297 0.0427,-0.08532 0.0131,-0.06563 0.0164,-0.193604 0.0492,0.02953 0.12141,0.05907 0.0722,0.02625 0.12798,0.03938 -0.0131,0.170634 -0.0525,0.262514 -0.0361,0.09188 -0.10829,0.127976 -0.0722,0.03938 -0.19689,0.03938 -0.023,0 -0.0755,0 -0.0492,0 -0.11485,0 -0.0656,0 -0.13454,0 -0.0656,0 -0.11813,0 -0.0492,0 -0.0689,0 -0.16407,0 -0.25267,-0.02953 -0.0886,-0.02625 -0.12469,-0.09844 -0.0328,-0.07219 -0.0328,-0.200167 z m -1.38148,-0.580813 h 2.47092 v 0.59722 h -2.47092 v -0.200167 h 2.17887 v -0.193605 h -2.17887 z m 0.31502,0.580813 h 0.28876 v 0.777699 l -0.28876,0.02625 z m -0.57425,-1.97214 h 1.32898 V 30.1246 h -1.32898 z m 1.47664,0 h 1.34867 V 30.1246 h -1.34867 z m -1.38148,0.337988 h 1.17803 v 0.59722 h -0.27564 V 30.43305 h -0.63332 v 0.423305 h -0.26907 z m 1.45039,0 h 1.19772 v 0.59722 h -0.27892 V 30.43305 h -0.653 v 0.423305 h -0.2658 z m -1.08944,0.328143 0.15095,-0.127976 q 0.0755,0.05578 0.15095,0.131257 0.0787,0.07219 0.11813,0.131257 l -0.15751,0.144383 q -0.0394,-0.06235 -0.11485,-0.13782 -0.0722,-0.07875 -0.14767,-0.141101 z m 1.4504,0.0033 0.15094,-0.134539 q 0.0788,0.0525 0.16079,0.127976 0.082,0.07547 0.1247,0.13782 l -0.15423,0.144383 q -0.0427,-0.06235 -0.12469,-0.13782 -0.0788,-0.07875 -0.15751,-0.13782 z m 1.27975,0.544717 h 2.96314 v 0.265796 h -2.96314 z m 0.0427,1.043495 h 2.88766 v 0.269077 h -2.88766 z m 0.19689,-1.568523 h 2.50373 v 0.259232 h -2.50373 z m -0.0427,1.063183 h 2.59561 v 0.259233 h -2.59561 z m 1.11897,-0.961459 h 0.30517 v 2.152618 h -0.30517 z m -0.7252,0.02625 h 0.28877 v 1.063184 h -0.28877 z m 1.48977,0 h 0.28877 v 1.063184 h -0.28877 z M 105.75839,29.8096 h 0.30189 v 0.712071 h -0.30189 z m 1.13538,0 h 0.30189 v 0.712071 h -0.30189 z m -1.85401,0.213293 h 2.90078 v 0.275641 h -2.90078 z"
           id="text5-9-1"
           style="font-weight:500;font-size:3.28143px;line-height:1.25;font-family:'Noto Sans JP';-inkscape-font-specification:'Noto Sans JP Medium';fill:#f9f9f9;stroke-width:0.117194"
           aria-label="美麗華" />
        <path
           style="font-weight:500;font-size:3.28143px;line-height:1.25;font-family:'Noto Sans kr';-inkscape-font-specification:'Noto Sans kr Medium';fill:#f9f9f9;stroke-width:0.117194"
           d="m 112.9397,30.214147 h 1.40445 v 1.981984 h -1.40445 z m 1.06974,0.27564 h -0.73176 v 1.433985 h 0.73176 z m 0.89255,-0.557843 h 0.34455 v 3.00579 h -0.34455 z m 2.87782,0 h 0.34455 v 3.00579 h -0.34455 z m 0.26579,1.164908 h 0.54144 v 0.285484 h -0.54144 z m -2.12637,0.843328 h 0.24611 q 0.26908,0 0.4955,-0.0066 0.2297,-0.0066 0.44627,-0.02953 0.21658,-0.02297 0.43971,-0.06235 l 0.0328,0.282203 q -0.23298,0.03938 -0.45284,0.06235 -0.21657,0.02297 -0.45284,0.03281 -0.23298,0.0066 -0.50862,0.0066 h -0.24611 z m -0.007,-1.739158 h 1.36836 v 1.112404 h -1.02053 v 0.738322 h -0.34127 v -1.013962 h 1.02053 v -0.557843 h -1.02709 z m 3.00907,0.02297 h 1.40446 v 1.962295 h -1.40446 z m 1.06647,0.27564 h -0.72848 v 1.414296 h 0.72848 z m 0.80723,-0.564406 h 0.34455 v 2.999227 H 120.795 Z m 0.26908,1.168189 h 0.54143 v 0.285484 h -0.54143 z"
           id="text5-9-1-0"
           aria-label="미라마" />
        <path
           style="font-weight:500;font-size:7.40833px;line-height:1.25;font-family:'Noto Sans KR';-inkscape-font-specification:'Noto Sans KR Medium';fill:#f9f9f9;stroke-width:0.264583"
           d="m 68.564886,43.709385 h 0.740833 v 5.067298 h -0.740833 z m -2.192866,1.837266 h 1.148291 v 0.637116 H 66.37202 Z m 0.874183,-1.703916 h 0.733425 v 4.763556 h -0.733425 z m -2.422524,5.867397 h 4.667248 v 0.629709 h -4.667248 z m 0,-1.518707 h 0.777875 v 1.918757 h -0.777875 z m 0.05186,-3.41524 h 0.614891 v 0.496358 q 0,0.540808 -0.170392,1.051983 -0.170391,0.511174 -0.511174,0.911224 -0.340784,0.392642 -0.866775,0.614892 l -0.40005,-0.600075 q 0.451908,-0.185208 0.740833,-0.503767 0.296333,-0.318558 0.4445,-0.696383 0.148167,-0.385233 0.148167,-0.777874 z m 0.148166,0 h 0.600075 v 0.488949 q 0,0.370417 0.140758,0.733425 0.148167,0.3556 0.429683,0.644525 0.281517,0.288925 0.703792,0.459316 L 66.50537,47.709883 Q 66.001604,47.50245 65.668229,47.124625 65.342262,46.7468 65.179279,46.265259 65.023704,45.783718 65.023704,45.265134 Z M 63.71243,44.324277 h 3.000373 v 0.622299 H 63.71243 Z m 6.978647,-0.148167 h 0.770467 v 2.844799 h -0.770467 z m 0,2.600324 h 0.548217 q 0.711199,0 1.466849,-0.05927 0.763058,-0.05927 1.585383,-0.22225 l 0.0889,0.629708 q -0.837142,0.170392 -1.622425,0.237067 -0.777874,0.05927 -1.518707,0.05927 h -0.548217 z m 4.207932,-3.067049 h 0.770466 v 4.88209 h -0.770466 z m 0.540808,1.955799 h 1.185333 v 0.659342 h -1.185333 z m -4.03754,4.044948 h 4.496856 v 0.629709 h -4.496856 z m 0,-1.585382 h 0.777875 v 1.911349 h -0.777875 z m 6.519331,-4.17089 h 4.682065 v 1.874308 h -3.881965 v 1.103841 H 77.936425 V 45.24291 h 3.889373 v -0.674159 h -3.90419 z m 0.01482,2.600324 h 4.830231 v 0.629708 H 77.936425 Z M 77.203,47.791375 h 6.134097 v 0.629708 H 77.203 Z m 2.666999,0.229658 h 0.770466 v 2.466974 h -0.770466 z"
           id="text5-9-8"
           aria-label="젠난루" />
        <text
           xml:space="preserve"
           transform="matrix(0.31967577,0,0,0.31967577,-16.498784,-6.8865533)"
           id="text6"
           style="font-size:55px;line-height:1.25;font-family:'Microsoft JhengHei';-inkscape-font-specification:'Microsoft JhengHei';white-space:pre;shape-inside:url(#rect6)" />
      </g>
      <path
         id="rect2"
         style="fill:#ffffff;stroke-width:0.634253"
         d="m 95.259293,18.870537 h 0.878811 v 14.029954 h -0.878811 z" />
    </g>
  </g>
</svg>
