<?xml version="1.0" encoding="UTF-8" standalone="no"?>
<!-- Created with Inkscape (http://www.inkscape.org/) -->

<svg
   width="500"
   height="250"
   viewBox="0 0 132.29166 66.145833"
   version="1.1"
   id="svg1"
   inkscape:version="1.3.2 (091e20e, 2023-11-25, custom)"
   sodipodi:docname="br16.svg"
   xmlns:inkscape="http://www.inkscape.org/namespaces/inkscape"
   xmlns:sodipodi="http://sodipodi.sourceforge.net/DTD/sodipodi-0.dtd"
   xmlns="http://www.w3.org/2000/svg"
   xmlns:svg="http://www.w3.org/2000/svg">
  <sodipodi:namedview
     id="namedview1"
     pagecolor="#9e652e"
     bordercolor="#ffffff"
     borderopacity="1"
     inkscape:showpageshadow="0"
     inkscape:pageopacity="0"
     inkscape:pagecheckerboard="false"
     inkscape:deskcolor="#d1d1d1"
     inkscape:document-units="mm"
     inkscape:zoom="2.0208096"
     inkscape:cx="305.81802"
     inkscape:cy="106.88785"
     inkscape:window-width="1920"
     inkscape:window-height="1009"
     inkscape:window-x="1912"
     inkscape:window-y="-8"
     inkscape:window-maximized="1"
     inkscape:current-layer="g4" />
  <defs
     id="defs1">
    <rect
       x="560.66638"
       y="34.144731"
       width="279.32397"
       height="128.59143"
       id="rect6" />
    <rect
       x="157.85752"
       y="62.351248"
       width="329.07603"
       height="135.09437"
       id="rect4" />
    <rect
       x="157.85751"
       y="62.35125"
       width="329.07602"
       height="135.09438"
       id="rect4-5" />
  </defs>
  <g
     inkscape:label="Layer 1"
     inkscape:groupmode="layer"
     id="layer1">
    <rect
       style="fill:#9e652e;fill-opacity:1;stroke:none;stroke-width:0.953294;stroke-dasharray:none"
       id="rect5"
       width="132.29167"
       height="66.145836"
       x="-2.5431316e-06"
       y="-1.2715658e-06"
       ry="0" />
    <g
       id="g4"
       transform="translate(-4.3520962)">
      <g
         id="g7"
         transform="matrix(1.1949088,0,0,1.1949088,-10.727502,-6.4462012)">
        <g
           id="g5"
           transform="matrix(0.82766152,0,0,0.82766152,17.509474,5.6997351)">
          <path
             id="rect1"
             style="fill-opacity:0;stroke:#f9f9f9;stroke-width:0.953294"
             d="m 10.182676,14.144197 h 12.563615 c 3.97082,0 7.167545,3.196725 7.167545,7.167545 v 23.522352 c 0,3.970819 -3.196725,7.167544 -7.167545,7.167544 H 10.182676 c -3.97082,0 -7.167545,-3.196725 -7.167545,-7.167544 V 21.311742 c 0,-3.97082 3.196725,-7.167545 7.167545,-7.167545 z" />
          <path
             style="font-size:12.7px;line-height:1.25;font-family:'AR UDJingXiHeiE1G30 EB';-inkscape-font-specification:'AR UDJingXiHeiE1G30 EB';fill:#f9f9f9;stroke-width:0.264583"
             d="M 12.825932,30.493842 H 7.9999322 v -9.1821 h 4.4195998 q 1.3081,0 2.0701,0.635 0.762,0.635 0.762,1.6891 0,0.6858 -0.3048,1.2065 -0.2921,0.508 -0.889,0.8382 0.7747,0.3048 1.1684,0.8382 0.4064,0.5334 0.4064,1.27 0,1.2192 -0.8001,1.9685 -0.8001,0.7366 -2.0066,0.7366 z m 0.7493,-6.6548 q 0,-0.6223 -0.3556,-0.9398 -0.3556,-0.3302 -1.0287,-0.3302 H 9.6128322 v 2.5908 h 2.6669998 q 0.5715,0 0.9271,-0.3302 0.3683,-0.3429 0.3683,-0.9906 z m 0.381,3.937 q 0,-0.6604 -0.4064,-1.0033 -0.3937,-0.3556 -1.0414,-0.3556 H 9.6128322 v 2.8194 h 2.8701998 q 0.6731,0 1.0668,-0.3683 0.4064,-0.3683 0.4064,-1.0922 z m 9.042408,-3.8354 q 0,-0.6731 -0.3556,-1.016 -0.3556,-0.3556 -1.028699,-0.3556 h -2.7559 v 2.8575 h 2.667 q 0.660399,0 1.066799,-0.3937 0.4064,-0.3937 0.4064,-1.0922 z m -4.140199,2.7305 v 3.8227 h -1.6129 v -9.1821 h 4.673599 q 1.2573,0 1.9939,0.6731 0.7493,0.6604 0.7493,1.8796 0,0.8001 -0.381,1.3716 -0.3683,0.5715 -0.9271,0.8128 0.7112,0.4064 1.0922,1.4097 0.381,1.0033 0.4826,3.0353 h -1.6764 q -0.0762,-2.1336 -0.4699,-2.9718 -0.381,-0.8509 -1.231899,-0.8509 z"
             id="text2"
             aria-label="BR" />
          <path
             style="font-size:14.5521px;line-height:1.25;font-family:'AR UDJingXiHeiE1G30 EB';-inkscape-font-specification:'AR UDJingXiHeiE1G30 EB';fill:#f9f9f9;stroke-width:0.264583"
             d="m 11.502217,36.623275 -1.7025962,1.586178 -0.8440218,-1.295136 2.735795,-2.48841 h 1.586179 v 10.521169 h -1.775356 z m 9.487958,8.512978 q -0.829469,0 -1.513418,-0.232833 -0.669397,-0.232834 -1.149616,-0.742158 -0.582084,-0.596636 -0.873126,-1.615283 -0.291042,-1.033199 -0.291042,-2.561169 0,-2.721243 0.989543,-4.220109 1.004095,-1.513419 2.866764,-1.513419 1.513418,0 2.342888,0.814918 0.844022,0.814917 0.931334,2.00819 h -1.775356 q -0.0291,-0.494772 -0.407459,-0.931335 -0.363802,-0.451115 -1.076855,-0.451115 -0.945887,0 -1.498867,1.033199 -0.538427,1.033199 -0.552979,2.56117 0.436563,-0.596636 1.062303,-0.90223 0.62574,-0.305594 1.411554,-0.305594 1.45521,0 2.284679,0.960438 0.82947,0.945887 0.82947,2.459305 0,1.746252 -0.989543,2.692139 -0.989542,0.945886 -2.590274,0.945886 z m 1.746253,-3.565264 q 0,-0.902231 -0.494772,-1.469763 -0.480219,-0.582084 -1.266033,-0.582084 -0.858574,0 -1.367897,0.55298 -0.494771,0.538428 -0.523876,1.45521 0,1.018647 0.494772,1.600731 0.509323,0.567532 1.382449,0.567532 0.844022,0 1.309689,-0.55298 0.465668,-0.552979 0.465668,-1.571626 z"
             id="text3"
             aria-label="16" />
          <path
             style="font-weight:500;font-size:72px;line-height:1.25;font-family:'Noto Sans TC';-inkscape-font-specification:'Noto Sans TC Medium';white-space:pre;fill:#f9f9f9"
             d="m 169.44942,130.61741 h 49.392 v 6.264 h -49.392 z m -3.888,-35.712004 h 57.24 v 46.152004 h -6.84 v -39.888 h -43.776 v 40.032 h -6.624 z m -3.744,-15.912 h 63.936 v 6.624 h -63.936 z m 21.024,4.104 h 6.12 v 15.84 q 0,4.104004 -1.008,8.424004 -0.936,4.248 -3.96,8.136 -2.952,3.816 -8.712,6.624 -0.36,-0.72 -1.152,-1.656 -0.72,-0.936 -1.584,-1.8 -0.792,-0.936 -1.44,-1.44 5.256,-2.376 7.776,-5.4 2.52,-3.096 3.24,-6.408 0.72,-3.312 0.72,-6.624004 z m 15.336,-0.072 h 6.48 v 27.864004 q 0,1.656 0.432,2.088 0.432,0.36 2.16,0.36 0.36,0 1.296,0 1.008,0 2.232,0 1.224,0 2.232,0 1.08,0 1.584,0 0.936,0 1.296,-0.072 0.36,-0.144 0.504,-0.36 1.008,0.72 2.664,1.44 1.656,0.648 3.168,0.936 -0.648,2.52 -2.304,3.528 -1.584,0.936 -4.68,0.936 -0.504,0 -1.8,0 -1.296,0 -2.736,0 -1.44,0 -2.664,0 -1.224,0 -1.728,0 -3.312,0 -5.112,-0.792 -1.728,-0.792 -2.376,-2.664 -0.648,-1.944 -0.648,-5.328 z m 60.264,-6.336 h 6.264 v 33.696004 h -6.264 z m -10.152,12.528 h 25.416 v 6.264 h -25.416 z m 30.96,-11.952 h 14.832 v 6.048 h -14.832 z m -28.584,30.384004 h 5.904 v 29.448 h -5.904 z m 3.096,0 h 18.216 v 24.048 h -18.216 v -5.904 h 12.24 v -12.24 h -12.24 z m 22.536,-30.384004 h 6.048 v 29.160004 q 0,4.176 -0.36,8.856 -0.288,4.68 -1.296,9.432 -0.936,4.752 -2.808,9.144 -1.872,4.392 -4.968,7.848 -0.504,-0.576 -1.44,-1.224 -0.936,-0.648 -1.944,-1.296 -1.008,-0.648 -1.728,-1.008 2.952,-3.24 4.608,-7.128 1.728,-3.96 2.52,-8.136 0.864,-4.248 1.08,-8.424 0.288,-4.248 0.288,-8.064 z m 14.76,0 h 6.192 v 56.592004 q 0,2.304 -0.576,3.672 -0.576,1.368 -2.16,2.16 -1.44,0.72 -3.744,0.936 -2.304,0.216 -5.76,0.144 -0.216,-1.152 -0.864,-2.88 -0.576,-1.656 -1.224,-2.808 2.304,0.072 4.248,0.072 1.944,0 2.664,0 0.72,-0.072 0.936,-0.288 0.288,-0.288 0.288,-1.08 z m -55.728,3.024 3.744,-4.824 q 2.016,0.864 4.176,2.088 2.232,1.152 4.176,2.448 1.944,1.296 3.168,2.52 l -3.96,5.328 q -1.152,-1.224 -3.096,-2.592 -1.872,-1.368 -4.032,-2.664 -2.16,-1.368 -4.176,-2.304 z m -2.952,19.296 3.672,-4.824 q 2.088,0.72 4.32,1.872 2.232,1.08 4.176,2.304 2.016,1.224004 3.312,2.304004 l -3.888,5.4 q -1.152,-1.08 -3.168,-2.376 -1.944,-1.296 -4.176,-2.52 -2.16,-1.224 -4.248,-2.160004 z m 1.224,37.584004 q 1.512,-2.808 3.168,-6.624 1.728,-3.888 3.456,-8.136 1.728,-4.248 3.168,-8.352 l 5.4,3.528 q -1.296,3.816 -2.808,7.848 -1.44,4.032 -3.096,7.92 -1.584,3.888 -3.096,7.344 z m 48.24,-21.312 q 2.088,-1.368 4.824,-3.456 2.808,-2.088 5.76,-4.392 l 1.944,3.816 q -2.52,2.448 -5.04,4.824 -2.52,2.376 -4.968,4.608 z m -0.648,-19.944004 3.6,-2.448 q 2.16,1.944 4.248,4.32 2.16,2.376004 3.312,4.104004 l -3.744,2.952 q -1.08,-1.8 -3.24,-4.32 -2.16,-2.520004 -4.176,-4.608004 z"
             id="text4"
             transform="matrix(0.26458333,0,0,0.26458333,-8.0629803,-4.4771203)"
             aria-label="西湖" />
          <path
             style="font-weight:500;font-size:72px;line-height:1.25;font-family:'Noto Sans TC';-inkscape-font-specification:'Noto Sans TC Medium';white-space:pre;fill:#ffffff"
             d="m 181.68942,80.217406 h 45.288 v 5.472 h -45.288 z m -0.792,32.616004 h 46.44 v 5.544 h -46.44 z m 17.928,7.128 5.04,-1.728 q 1.368,2.016 2.808,4.536 1.44,2.52 2.232,4.176 l -5.256,2.088 q -0.72,-1.728 -2.16,-4.32 -1.368,-2.592 -2.664,-4.752 z m -7.632,3.456 h 5.976 v 10.008 q 0,1.152 0.504,1.512 0.576,0.36 2.592,0.36 0.432,0 1.584,0 1.152,0 2.52,0 1.368,0 2.592,0 1.224,0 1.8,0 1.08,0 1.656,-0.36 0.576,-0.432 0.792,-1.872 0.288,-1.44 0.36,-4.248 0.936,0.648 2.52,1.224 1.584,0.576 2.808,0.864 -0.288,3.888 -1.08,5.976 -0.72,2.088 -2.304,2.88 -1.512,0.792 -4.104,0.792 -0.504,0 -1.944,0 -1.368,0 -3.024,0 -1.656,0 -3.024,0 -1.368,0 -1.872,0 -3.312,0 -5.184,-0.648 -1.8,-0.648 -2.52,-2.232 -0.648,-1.512 -0.648,-4.248 z m -7.344,-0.936 5.256,2.016 q -1.008,3.528 -2.592,7.56 -1.512,3.96 -3.528,6.84 l -5.184,-2.952 q 1.296,-1.728 2.448,-4.032 1.224,-2.304 2.088,-4.752 0.936,-2.448 1.512,-4.68 z m 31.248,1.584 5.04,-2.16 q 1.512,2.088 3.024,4.608 1.512,2.448 2.664,4.896 1.224,2.376 1.872,4.248 l -5.472,2.448 q -0.504,-1.872 -1.656,-4.32 -1.08,-2.448 -2.52,-4.968 -1.44,-2.592 -2.952,-4.752 z m -2.808,-28.872004 v 8.568004 h 6.552 v -8.568004 z m -11.304,0 v 8.568004 h 6.48 v -8.568004 z m -11.016,0 v 8.568004 h 6.192 v -8.568004 z m -5.4,-4.968 h 39.96 v 18.576004 h -39.96 z m 16.416,-15.768 7.2,0.216 q -0.432,3.096 -0.936,6.264 -0.432,3.168 -0.936,6.048 -0.432,2.88 -0.936,5.04 l -6.336,-0.432 q 0.432,-2.304 0.792,-5.328 0.432,-3.024 0.72,-6.12 0.36,-3.168 0.432,-5.688 z m -25.056,15.912 6.12,2.232 q -2.376,4.68 -5.472,9.504004 -3.096,4.752 -6.48,9.144 -3.312,4.32 -6.624,7.632 -0.36,-0.792 -1.08,-1.944 -0.648,-1.224 -1.44,-2.448 -0.792,-1.224 -1.368,-1.944 3.024,-2.736 5.976,-6.336 3.024,-3.6 5.688,-7.632004 2.664,-4.104 4.68,-8.208 z m -1.224,-15.696 6.12,2.592 q -2.376,3.168 -5.328,6.624 -2.88,3.384 -6.048,6.624 -3.096,3.168 -6.12,5.688 -0.288,-0.72 -0.864,-1.728 -0.576,-1.08 -1.224,-2.088 -0.648,-1.008 -1.152,-1.728 2.52,-2.088 5.256,-4.824 2.808,-2.808 5.256,-5.688 2.448,-2.952 4.104,-5.472 z m -4.824,30.096004 3.24,-3.24 3.168,1.08 v 38.952 h -6.408 z m 69.048,-25.920004 h 20.664 v 43.560004 h -20.664 v -6.264 h 14.328 V 85.113406 h -14.328 z m 0.072,18.432 h 16.848 v 6.120004 h -16.848 z m 30.6,-19.584 h 23.256 v 6.264 h -23.256 z m 0,17.28 h 23.256 v 6.192004 h -23.256 z m -0.36,17.424004 h 23.544 v 6.192 h -23.544 z m -33.984,-33.552004 h 6.336 v 50.040004 h -6.336 z m 55.08,-1.152 h 6.768 v 55.512004 q 0,2.88 -0.792,4.464 -0.72,1.656 -2.592,2.448 -1.944,0.864 -5.04,1.08 -3.096,0.216 -7.704,0.216 -0.144,-0.936 -0.576,-2.16 -0.36,-1.224 -0.864,-2.448 -0.432,-1.152 -1.008,-2.016 2.16,0.072 4.248,0.072 2.088,0 3.6,0 1.584,0 2.232,0 1.008,-0.072 1.368,-0.432 0.36,-0.36 0.36,-1.296 z m -24.768,0 h 6.624 v 25.848004 q 0,4.608 -0.504,9.792 -0.504,5.184 -2.016,10.368 -1.512,5.184 -4.536,9.936 -2.952,4.68 -7.92,8.352 -0.504,-0.648 -1.44,-1.584 -0.864,-0.864 -1.872,-1.728 -1.008,-0.864 -1.728,-1.296 4.536,-3.456 7.2,-7.56 2.736,-4.104 4.032,-8.64 1.368,-4.536 1.728,-9 0.432,-4.464 0.432,-8.712 z m 50.688,3.24 h 6.624 v 60.480004 h -6.624 z m -11.592,13.968 h 28.368 v 6.408004 h -28.368 z m 11.952,2.52 4.104,1.8 q -1.08,3.816004 -2.592,7.992004 -1.512,4.104 -3.312,8.136 -1.728,4.032 -3.744,7.56 -2.016,3.528 -4.104,6.048 -0.504,-1.44 -1.512,-3.24 -1.008,-1.872 -1.8,-3.096 1.944,-2.16 3.816,-5.112 1.872,-3.024 3.6,-6.408 1.8,-3.456 3.168,-6.984 1.44,-3.528 2.376,-6.696004 z m 11.736,-21.96 3.96,5.544 q -3.456,1.296 -7.776,2.448 -4.248,1.08 -8.784,1.872 -4.464,0.72 -8.64,1.296 -0.144,-1.08 -0.72,-2.592 -0.576,-1.584 -1.152,-2.664 4.104,-0.648 8.352,-1.512 4.248,-0.936 8.064,-2.016 3.888,-1.152 6.696,-2.376 z m -5.688,26.568004 q 0.648,0.648 2.088,2.304 1.44,1.656 3.024,3.6 1.656,1.872 2.952,3.6 1.368,1.656 1.944,2.376 l -4.104,5.328 q -0.648,-1.368 -1.8,-3.312 -1.152,-2.016 -2.52,-4.176 -1.368,-2.16 -2.592,-4.032 -1.224,-1.872 -2.088,-2.952 z m 33.336,-27.432004 h 6.696 v 66.816004 h -6.696 z m -23.976,46.728004 38.592,-6.408 1.008,6.336 -38.52,6.552 z m 5.328,-38.088004 4.392,-3.888 q 2.088,1.368 4.32,3.168 2.232,1.8 4.176,3.6 1.944,1.8 3.096,3.384 l -4.752,4.32 q -1.08,-1.512 -2.952,-3.384 -1.8,-1.944 -4.032,-3.816 -2.16,-1.872 -4.248,-3.384 z m -2.736,18.864004 4.32,-3.960004 q 2.232,1.44 4.608,3.312004 2.448,1.8 4.536,3.672 2.088,1.8 3.312,3.384 l -4.608,4.464 q -1.152,-1.656 -3.24,-3.6 -2.016,-1.944 -4.392,-3.816 -2.304,-1.944 -4.536,-3.456 z m 43.56,-7.344004 h 63.648 v 7.056004 h -63.648 z m 35.856,2.808 q 2.304,8.496004 6.192,15.840004 3.96,7.344 9.648,12.888 5.76,5.472 13.32,8.64 -0.864,0.72 -1.872,1.872 -0.936,1.152 -1.8,2.304 -0.864,1.224 -1.44,2.16 -7.992,-3.744 -13.968,-9.864 -5.904,-6.192 -10.008,-14.328 -4.104,-8.136 -6.912,-17.856004 z m -7.92,-22.896 h 7.416 q 0,5.112 -0.288,11.016 -0.216,5.832 -1.08,12.024 -0.864,6.192004 -2.808,12.384004 -1.944,6.192 -5.4,11.952 -3.456,5.76 -8.856,10.728 -5.4,4.896 -13.176,8.568 -0.864,-1.368 -2.304,-3.024 -1.44,-1.584 -2.88,-2.664 7.488,-3.384 12.6,-7.848 5.184,-4.536 8.352,-9.792 3.24,-5.328 4.968,-11.016 1.728,-5.688 2.448,-11.376004 0.72,-5.688 0.864,-11.016 0.144,-5.328 0.144,-9.936 z"
             id="text4-0"
             transform="matrix(0.12946199,0,0,0.12946199,58.992542,6.3204728)"
             aria-label="德明科大" />
          <path
             style="font-size:7.40833px;line-height:1.25;font-family:'AR UDJingXiHeiE1G30 EB';-inkscape-font-specification:'AR UDJingXiHeiE1G30 EB';fill:#f9f9f9;stroke-width:0.264583"
             d="m 38.090245,35.617261 h 1.089024 l -1.844674,2.585507 1.948391,2.770716 h -1.096433 l -1.400175,-2.066924 -1.400174,2.066924 h -1.066799 l 1.933574,-2.778124 -1.852083,-2.578099 h 1.103841 l 1.28905,1.926166 z m 2.74849,0 v 5.356223 h -0.940857 v -5.356223 z m 2.170636,2.978149 v 2.378074 h -0.940858 v -5.356223 h 0.940858 v 2.244724 h 2.57069 v -2.244724 h 0.940858 v 5.356223 H 45.580061 V 38.59541 Z m 9.23078,0.503766 q 0,0.93345 -0.585258,1.452033 -0.585258,0.518583 -1.666874,0.518583 -1.096433,0 -1.689099,-0.511175 -0.585258,-0.511174 -0.585258,-1.452032 v -3.489324 h 0.940857 v 3.444874 q 0,0.607483 0.333375,0.940858 0.333375,0.333374 1.000125,0.333374 0.629708,0 0.963083,-0.318558 0.340783,-0.325966 0.340783,-0.970491 v -3.430057 h 0.948266 z"
             id="text5"
             aria-label="XIHU" />
          <path
             style="font-size:3.55995px;line-height:1.25;font-family:'AR UDJingXiHeiE1G30 EB';-inkscape-font-specification:'AR UDJingXiHeiE1G30 EB';fill:#ffffff;stroke-width:0.127141"
             d="m 80.656857,26.297946 h -0.800989 v -0.352435 h 2.050531 v 0.352435 H 81.10897 v 2.221409 H 80.656857 Z M 83.618735,27.47985 83.2129,26.379825 82.799946,27.47985 Z m -0.950507,0.352435 -0.256316,0.68707 h -0.459234 l 1.035945,-2.573844 h 0.462794 l 1.028826,2.573844 h -0.469914 l -0.259876,-0.68707 z m 2.559601,-0.199358 v 0.886428 h -0.452114 v -2.573844 h 0.452114 v 1.164104 l 1.128504,-1.164104 h 0.551792 l -1.039505,1.043065 1.078665,1.530779 h -0.548232 l -0.833029,-1.235303 z m 2.456366,-0.968306 v 1.854734 h -0.437873 v -2.573844 h 0.573152 l 0.740469,1.997132 0.71199,-1.997132 h 0.587392 v 2.573844 h -0.441434 v -1.868974 l -0.66927,1.868974 h -0.380915 z m 3.218194,-0.71911 v 2.573844 h -0.452114 v -2.573844 z m 1.043063,0.71555 v 1.858294 h -0.452114 v -2.573844 h 0.466354 l 1.263782,1.901013 v -1.901013 h 0.452114 v 2.573844 h -0.494833 z m 4.211418,1.545018 q -0.131718,0.185118 -0.331075,0.274116 -0.195797,0.08544 -0.448554,0.08544 -0.555352,0 -0.882868,-0.348875 -0.327515,-0.352435 -0.327515,-0.982546 0,-0.633671 0.345315,-0.982546 0.345315,-0.348875 0.932707,-0.348875 0.473473,0 0.768949,0.217157 0.299036,0.213597 0.359555,0.612311 h -0.452113 q -0.0356,-0.210037 -0.210037,-0.341755 -0.170878,-0.135278 -0.466354,-0.135278 -0.395154,0 -0.601631,0.256316 -0.206478,0.252757 -0.206478,0.72267 0,0.501953 0.217157,0.74047 0.217157,0.234956 0.590952,0.234956 0.327516,0 0.519753,-0.192237 0.192237,-0.192237 0.192237,-0.441434 v -0.0534 h -0.72979 v -0.352435 h 1.164104 v 1.349221 H 96.15687 Z m 4.05834,-0.587391 q 0,0.448553 -0.281237,0.69775 -0.281236,0.249196 -0.800989,0.249196 -0.526872,0 -0.811668,-0.245636 -0.281236,-0.245637 -0.281236,-0.69775 v -1.676737 h 0.452113 v 1.655377 q 0,0.291916 0.160198,0.452113 0.160198,0.160198 0.480593,0.160198 0.302596,0 0.462794,-0.153078 0.163758,-0.156637 0.163758,-0.466353 v -1.648257 h 0.455674 z m 1.02527,-0.957627 v 1.858294 h -0.45212 v -2.573844 h 0.46635 l 1.26379,1.901013 v -1.901013 h 0.45211 v 2.573844 h -0.49483 z m 2.77319,-0.71555 v 2.573844 h -0.45211 v -2.573844 z m 2.64148,0 -0.9149,2.573844 h -0.52332 l -0.90778,-2.573844 h 0.48415 l 0.68707,2.11817 0.69775,-2.11817 z m 0.82235,2.050531 v 0.523313 h -0.53755 v -0.523313 z"
             id="text5-8"
             aria-label="TAKMING UNIV." />
          <path
             d="m 35.358993,49.281508 h 5.148789 v 0.644525 h -5.148789 z m -0.451908,-3.674531 h 6.000747 v 4.748739 H 40.20404 v -4.104215 h -4.615389 v 4.119032 h -0.681566 z m 3.378198,0.281516 h 0.674158 v 1.466849 q 0,0.125942 0.02963,0.162984 0.03704,0.02963 0.162984,0.02963 0.03704,0 0.13335,0 0.103716,0 0.214841,0 0.111125,0 0.148167,0 0.08149,0 0.118533,-0.02963 0.03704,-0.03704 0.05186,-0.140759 0.02222,-0.103716 0.02963,-0.318558 0.06667,0.05186 0.170391,0.103717 0.103717,0.04445 0.214842,0.08149 0.111125,0.03704 0.207433,0.06667 -0.03704,0.333375 -0.118533,0.525992 -0.08149,0.185208 -0.22225,0.259291 -0.140758,0.07408 -0.363008,0.07408 -0.05186,0 -0.148167,0 -0.09631,0 -0.207433,0 -0.103717,0 -0.200025,0 -0.0889,0 -0.13335,0 -0.31115,0 -0.474133,-0.07408 -0.162983,-0.07408 -0.229658,-0.251883 -0.05927,-0.1778 -0.05927,-0.48895 z m -3.689348,-1.918757 h 6.578597 v 0.681566 h -6.578597 z m 2.059515,0.496358 h 0.688975 v 1.511299 H 36.65545 Z m 1.637241,0 h 0.703792 v 1.511299 h -0.703792 z m -1.600199,1.296458 h 0.651933 v 0.726016 q 0,0.3556 -0.103716,0.740833 -0.09631,0.377825 -0.377825,0.733425 -0.274109,0.348191 -0.807508,0.622299 -0.04445,-0.06667 -0.140759,-0.155575 -0.0889,-0.0889 -0.185208,-0.170391 -0.09631,-0.0889 -0.170391,-0.13335 0.488949,-0.237067 0.726016,-0.511175 0.244475,-0.281517 0.325966,-0.570441 0.08149,-0.296334 0.08149,-0.570442 z m 7.845422,-2.029883 h 0.644524 v 3.467099 h -0.644524 z m -1.044575,1.28905 h 2.61514 v 0.644524 h -2.61514 z m 3.185582,-1.229783 h 1.526116 v 0.622299 h -1.526116 z m 0,1.755774 h 1.548341 v 0.6223 h -1.548341 z m 0,1.785407 h 1.548341 v 0.6223 h -1.548341 z m -2.941107,-0.414866 h 0.607483 v 3.030007 h -0.607483 z m 0.318558,0 h 1.874308 v 2.474382 H 44.056372 V 48.78515 h 1.259416 v -1.259416 h -1.259416 z m 2.318807,-3.126315 h 0.6223 v 3.000373 q 0,0.429684 -0.03704,0.911225 -0.02963,0.481541 -0.13335,0.970491 -0.09631,0.48895 -0.288924,0.940858 -0.192617,0.451908 -0.511175,0.807508 -0.05186,-0.05927 -0.148167,-0.125942 -0.09631,-0.06668 -0.200025,-0.133349 -0.103716,-0.06667 -0.1778,-0.103717 0.303742,-0.333375 0.474134,-0.733425 0.177799,-0.407458 0.259291,-0.837141 0.0889,-0.437092 0.111125,-0.866775 0.02963,-0.437091 0.02963,-0.829733 z m 1.518708,0 h 0.637116 v 5.822947 q 0,0.237067 -0.05927,0.377825 -0.05927,0.140758 -0.22225,0.22225 -0.148167,0.07408 -0.385233,0.09631 -0.237067,0.02222 -0.592667,0.01482 -0.02222,-0.118533 -0.0889,-0.296333 -0.05927,-0.170392 -0.125941,-0.288925 0.237066,0.0074 0.437091,0.0074 0.200025,0 0.274108,0 0.07408,-0.0074 0.09631,-0.02963 0.02963,-0.02963 0.02963,-0.111125 z m -5.734047,0.31115 0.385233,-0.496358 q 0.207433,0.0889 0.429683,0.214841 0.229658,0.118533 0.429683,0.251883 0.200025,0.13335 0.325967,0.259292 l -0.407459,0.548216 q -0.118533,-0.125941 -0.318558,-0.2667 -0.192616,-0.140758 -0.414866,-0.274108 -0.22225,-0.140758 -0.429683,-0.237066 z m -0.303742,1.985432 0.377825,-0.496358 q 0.214841,0.07408 0.4445,0.192617 0.229658,0.111124 0.429683,0.237066 0.207433,0.125942 0.340783,0.237067 l -0.40005,0.555624 Q 42.930306,46.703409 42.722873,46.570059 42.522848,46.43671 42.29319,46.310768 42.07094,46.184826 41.856098,46.088518 Z m 0.125942,3.867148 q 0.155575,-0.288925 0.325966,-0.681566 0.1778,-0.40005 0.3556,-0.837141 0.1778,-0.437092 0.325967,-0.859367 l 0.555624,0.363009 q -0.13335,0.392641 -0.288925,0.807507 -0.148166,0.414867 -0.318558,0.814917 -0.162983,0.40005 -0.318558,0.755649 z"
             id="text5-9"
             style="font-weight:500;font-size:7.40833px;line-height:1.25;font-family:'Noto Sans JP';-inkscape-font-specification:'Noto Sans JP Medium';fill:#f9f9f9;stroke-width:0.264583"
             aria-label="西湖" />
          <path
             d="m 80.818428,30.147566 h 2.027924 v 0.278921 h -2.027924 z m 0.846609,-0.337988 h 0.305173 v 1.043495 h -0.305173 z m -0.370802,2.146056 h 0.285485 v 0.515184 q 0,0.05578 0.01969,0.07219 0.02297,0.01641 0.101725,0.01641 0.01641,0 0.06235,0 0.04594,0 0.09844,0 0.05578,0 0.101724,0 0.04922,0 0.07547,0 0.04594,0 0.06891,-0.01969 0.02297,-0.01969 0.03281,-0.08532 0.0098,-0.06891 0.01313,-0.203449 0.04594,0.03281 0.121413,0.06235 0.07547,0.02953 0.131257,0.04266 -0.01313,0.18376 -0.04922,0.282203 -0.0361,0.101724 -0.105006,0.13782 -0.06891,0.03938 -0.18376,0.03938 -0.02297,0 -0.08204,0 -0.05578,0 -0.121413,0 -0.06563,0 -0.121413,0 -0.05578,0 -0.07875,0 -0.147665,0 -0.2297,-0.03281 -0.07876,-0.02953 -0.111569,-0.105006 -0.02953,-0.07219 -0.02953,-0.20673 z m -0.360957,-0.0033 0.255951,0.07875 q -0.0361,0.196885 -0.108287,0.397053 -0.07219,0.196885 -0.210011,0.331424 l -0.232982,-0.164071 q 0.118132,-0.111569 0.190323,-0.285485 0.07219,-0.177197 0.105006,-0.357676 z m 0.498777,-0.150946 0.177198,-0.180478 q 0.09844,0.04594 0.203448,0.105006 0.108287,0.05907 0.200167,0.124694 0.09516,0.06235 0.154228,0.121413 l -0.190323,0.200167 q -0.05579,-0.05907 -0.147665,-0.124694 -0.0886,-0.06891 -0.193604,-0.131257 -0.105006,-0.06563 -0.203449,-0.114851 z m 0.826921,0.219856 0.246107,-0.105005 q 0.09516,0.105005 0.18376,0.2297 0.0886,0.124694 0.157509,0.249388 0.06891,0.124695 0.09844,0.2297 l -0.265796,0.118132 q -0.02625,-0.101724 -0.09188,-0.226419 -0.06235,-0.127976 -0.147665,-0.255951 -0.08532,-0.131258 -0.180478,-0.239545 z m -0.0525,-1.063183 v 0.410179 h 0.301891 v -0.410179 z m -0.521748,0 v 0.410179 h 0.295329 v -0.410179 z m -0.518466,0 v 0.410179 h 0.285485 v -0.410179 z m -0.25267,-0.25267 h 1.863853 v 0.912237 h -1.863853 z m -0.331424,-0.210012 0.27564,0.101725 q -0.111569,0.196885 -0.255952,0.393771 -0.144382,0.193605 -0.308454,0.36752 -0.16079,0.170635 -0.32158,0.305173 -0.01313,-0.03609 -0.04594,-0.0886 -0.02953,-0.0525 -0.06235,-0.108287 -0.03281,-0.05579 -0.05907,-0.08532 0.144383,-0.111568 0.288766,-0.25267 0.144383,-0.141101 0.269077,-0.301891 0.127976,-0.164072 0.219856,-0.331425 z m -0.06891,-0.685819 0.27564,0.108288 q -0.09844,0.141101 -0.2297,0.285484 -0.131257,0.144383 -0.272359,0.27564 -0.141101,0.131257 -0.282203,0.232982 -0.01969,-0.03281 -0.04922,-0.07219 -0.02953,-0.04266 -0.06235,-0.08532 -0.02953,-0.04266 -0.05579,-0.06891 0.124695,-0.0886 0.25267,-0.200167 0.127976,-0.11485 0.239545,-0.239545 0.111568,-0.124694 0.18376,-0.236263 z m -0.219856,1.338824 0.259233,-0.259233 0.03281,0.01641 v 1.949169 h -0.292047 z m 3.14361,-1.148501 h 0.94177 v 1.985266 h -0.94177 v -0.285485 h 0.653005 v -1.414296 h -0.653005 z m 0.0033,0.840046 h 0.767855 v 0.278922 H 83.44029 Z m 1.394608,-0.892548 H 85.8948 v 0.285484 h -1.059902 z m 0,0.787543 H 85.8948 v 0.282203 h -1.059902 z m -0.01641,0.794106 h 1.073028 v 0.282203 h -1.073028 z m -1.548835,-1.529147 h 0.288766 v 2.280594 h -0.288766 z m 2.510294,-0.0525 h 0.308454 v 2.529982 q 0,0.131257 -0.0361,0.203449 -0.03281,0.07547 -0.118132,0.111568 -0.0886,0.03938 -0.2297,0.04922 -0.141101,0.0098 -0.351113,0.0098 -0.0066,-0.04266 -0.02625,-0.09844 -0.01641,-0.05578 -0.03938,-0.111568 -0.01969,-0.0525 -0.04594,-0.09188 0.09844,0.0033 0.193604,0.0033 0.09516,0 0.164071,0 0.07219,0 0.101725,0 0.04594,-0.0033 0.06235,-0.01969 0.01641,-0.01641 0.01641,-0.05906 z m -1.128812,0 h 0.301892 v 1.178033 q 0,0.210011 -0.02297,0.446274 -0.02297,0.236263 -0.09188,0.472526 -0.06891,0.236263 -0.20673,0.452838 -0.134539,0.213293 -0.360958,0.380646 -0.02297,-0.02953 -0.06563,-0.07219 -0.03938,-0.03938 -0.08532,-0.07875 -0.04594,-0.03938 -0.07875,-0.05907 0.20673,-0.157509 0.328143,-0.34455 0.124694,-0.187042 0.18376,-0.393772 0.06235,-0.20673 0.07876,-0.410179 0.01969,-0.203448 0.01969,-0.397053 z m 2.310127,0.147664 h 0.301891 v 2.756401 h -0.301891 z m -0.52831,0.636597 h 1.292883 v 0.292048 h -1.292883 z m 0.544717,0.11485 0.187042,0.08204 q -0.04922,0.173916 -0.118132,0.364239 -0.06891,0.187041 -0.150946,0.370801 -0.07875,0.18376 -0.170634,0.344551 -0.09188,0.16079 -0.187042,0.27564 -0.02297,-0.06563 -0.06891,-0.147665 -0.04594,-0.08532 -0.08203,-0.141101 0.0886,-0.09844 0.173915,-0.232982 0.08532,-0.13782 0.164072,-0.292047 0.08204,-0.157509 0.144383,-0.318299 0.06563,-0.16079 0.108287,-0.305173 z m 0.534873,-1.000836 0.180479,0.25267 q -0.157509,0.05907 -0.354395,0.111569 -0.193604,0.04922 -0.400334,0.08532 -0.203449,0.03281 -0.393772,0.05907 -0.0066,-0.04922 -0.03281,-0.118132 -0.02625,-0.07219 -0.0525,-0.121413 0.187042,-0.02953 0.380646,-0.06891 0.193604,-0.04266 0.36752,-0.09188 0.177197,-0.0525 0.305173,-0.108287 z m -0.259233,1.210848 q 0.02953,0.02953 0.09516,0.105006 0.06563,0.07547 0.13782,0.164071 0.07547,0.08532 0.134538,0.164072 0.06235,0.07547 0.0886,0.108287 l -0.187042,0.242826 q -0.02953,-0.06235 -0.08204,-0.150946 -0.0525,-0.09188 -0.11485,-0.190323 -0.06235,-0.09844 -0.118132,-0.18376 -0.05578,-0.08532 -0.09516,-0.134539 z m 1.519302,-1.250225 h 0.305173 v 3.045167 h -0.305173 z m -1.092716,2.129648 1.758847,-0.292047 0.04594,0.288766 -1.755566,0.29861 z m 0.242826,-1.735876 0.200167,-0.177198 q 0.09516,0.06235 0.196886,0.144383 0.101724,0.08204 0.190323,0.164072 0.0886,0.08204 0.141101,0.154227 l -0.216574,0.196886 q -0.04922,-0.06891 -0.134539,-0.154227 -0.08204,-0.0886 -0.18376,-0.173916 -0.09844,-0.08532 -0.193604,-0.154227 z m -0.124694,0.859734 0.196885,-0.180478 q 0.101725,0.06563 0.210012,0.150945 0.111568,0.08204 0.20673,0.167353 0.09516,0.08204 0.150946,0.154228 l -0.210012,0.203448 q -0.0525,-0.07547 -0.147664,-0.164071 -0.09188,-0.0886 -0.200167,-0.173916 -0.105006,-0.0886 -0.20673,-0.157509 z m 1.985264,-0.334706 h 2.900785 v 0.321581 h -2.900785 z m 1.634153,0.127976 q 0.105005,0.387209 0.282203,0.721915 0.180478,0.334706 0.439711,0.587376 0.262515,0.249388 0.607065,0.393771 -0.03938,0.03281 -0.08532,0.08532 -0.04266,0.0525 -0.08204,0.105005 -0.03938,0.05579 -0.06563,0.09844 -0.364239,-0.170634 -0.636597,-0.449556 -0.269078,-0.282203 -0.456119,-0.653004 -0.187042,-0.370802 -0.315017,-0.813795 z m -0.360958,-1.043495 h 0.337988 q 0,0.232982 -0.01313,0.502059 -0.0098,0.265796 -0.04922,0.547999 -0.03938,0.282203 -0.127975,0.564406 -0.0886,0.282203 -0.246108,0.544717 -0.157508,0.262515 -0.403616,0.488933 -0.246107,0.223138 -0.600501,0.390491 -0.03938,-0.06235 -0.105006,-0.13782 -0.06563,-0.07219 -0.131257,-0.121413 0.341269,-0.154228 0.57425,-0.357676 0.236263,-0.20673 0.380646,-0.446275 0.147664,-0.242826 0.226419,-0.502058 0.07875,-0.259233 0.111568,-0.518466 0.03281,-0.259233 0.03938,-0.502059 0.0066,-0.242826 0.0066,-0.452838 z"
             id="text5-9-1"
             style="font-weight:500;font-size:3.28143px;line-height:1.25;font-family:'Noto Sans JP';-inkscape-font-specification:'Noto Sans JP Medium';fill:#f9f9f9;stroke-width:0.117194"
             aria-label="徳明科大" />
          <path
             style="font-weight:500;font-size:3.28143px;line-height:1.25;font-family:'Noto Sans kr';-inkscape-font-specification:'Noto Sans kr Medium';fill:#f9f9f9;stroke-width:0.117194"
             d="m 95.664112,31.920491 h 0.232981 q 0.27564,0 0.492215,-0.0066 0.219855,-0.0098 0.41346,-0.02953 0.196886,-0.01969 0.400334,-0.05578 l 0.0361,0.282203 q -0.210012,0.03938 -0.41346,0.05907 -0.200167,0.01969 -0.423305,0.02953 -0.223137,0.0066 -0.50534,0.0066 h -0.232981 z m 0,-1.709625 h 1.358512 v 0.27564 H 96.00538 v 1.538991 h -0.341268 z m 1.99839,-0.278922 h 0.344551 v 3.00579 h -0.344551 z m -0.800669,1.066465 h 0.948334 v 0.282203 h -0.948334 z m 1.827757,-0.84989 h 1.42086 v 1.325697 h -1.42086 z m 1.086154,0.27564 h -0.751448 v 0.774417 h 0.751448 z m 0.885986,-0.488933 h 0.34455 v 1.778535 h -0.34455 z m -0.653,1.831038 q 0.31173,0 0.53815,0.06891 0.2297,0.06891 0.35111,0.200167 0.1247,0.127976 0.1247,0.311736 0,0.18376 -0.1247,0.315017 -0.12141,0.131257 -0.35111,0.196886 -0.22642,0.06891 -0.53815,0.06891 -0.311741,0 -0.541441,-0.06891 -0.226418,-0.06563 -0.351113,-0.196886 -0.121413,-0.131257 -0.121413,-0.315017 0,-0.18376 0.121413,-0.311736 0.124695,-0.127976 0.351113,-0.196886 0.2297,-0.07219 0.541441,-0.07219 z m 0,0.269077 q -0.213298,0 -0.364244,0.0361 -0.150945,0.03609 -0.2297,0.105005 -0.07875,0.06891 -0.07875,0.170635 0,0.101724 0.07875,0.173916 0.07875,0.06891 0.2297,0.105005 0.150946,0.0361 0.364244,0.0361 0.21329,0 0.36095,-0.0361 0.15095,-0.0361 0.2297,-0.105005 0.082,-0.07219 0.082,-0.173916 0,-0.101724 -0.082,-0.170635 -0.0787,-0.06891 -0.2297,-0.105005 -0.14766,-0.0361 -0.36095,-0.0361 z m 1.67681,-1.788379 h 1.32569 v 0.278921 h -1.32569 z m 0.42986,0.859734 h 0.33799 v 1.017244 h -0.33799 z m 0.75801,-0.859734 h 0.33799 v 0.200167 q 0,0.196886 -0.01,0.485652 -0.01,0.288765 -0.0755,0.685818 l -0.33798,-0.02953 q 0.0623,-0.383928 0.0722,-0.662849 0.0131,-0.282203 0.0131,-0.479089 z m 0.66285,-0.315018 h 0.34127 v 2.999227 h -0.34127 z m 0.24283,1.233818 h 0.54472 v 0.285484 h -0.54472 z m -2.21825,1.135375 -0.0361,-0.285485 q 0.26907,0 0.58409,-0.0033 0.31502,-0.0066 0.63988,-0.02297 0.32486,-0.01969 0.62347,-0.05578 l 0.0197,0.25267 q -0.30845,0.04922 -0.63332,0.07547 -0.32158,0.02297 -0.62675,0.02953 -0.30517,0.0066 -0.57097,0.0098 z m 3.01564,-2.073864 h 1.76869 v 0.272359 h -1.76869 z m 0.88598,0.400335 q 0.2133,0 0.37737,0.06891 0.16407,0.06891 0.25595,0.193604 0.0919,0.121413 0.0919,0.285484 0,0.164072 -0.0919,0.288766 -0.0919,0.121413 -0.25595,0.190323 -0.16407,0.06563 -0.37737,0.06563 -0.21657,0 -0.38064,-0.06563 -0.16408,-0.06891 -0.25596,-0.190323 -0.0919,-0.124694 -0.0919,-0.288766 0,-0.164071 0.0919,-0.285484 0.0919,-0.124694 0.25596,-0.193604 0.16407,-0.06891 0.38064,-0.06891 z m 0,0.265795 q -0.18048,0 -0.29205,0.07547 -0.10828,0.07219 -0.10828,0.20673 0,0.131258 0.10828,0.20673 0.11157,0.07547 0.29205,0.07547 0.1772,0 0.28549,-0.07547 0.10828,-0.07547 0.10828,-0.20673 0,-0.134538 -0.10828,-0.20673 -0.10829,-0.07547 -0.28549,-0.07547 z m 1.10913,-0.958177 h 0.34126 v 1.876978 h -0.34126 z m 0.24938,0.800669 h 0.51519 v 0.285484 h -0.51519 z m -1.87697,1.220692 h 1.96885 v 0.977866 h -0.34126 V 32.232227 H 104.944 Z m 0.34455,-2.037768 h 0.34455 V 30.3815 h -0.34455 z m 4.43649,0.01313 h 0.34455 v 2.999227 h -0.34455 z m -0.8827,0.318299 h 0.34126 q 0,0.334706 -0.0722,0.639879 -0.0722,0.305173 -0.23626,0.580813 -0.16079,0.272359 -0.42659,0.50534 -0.26251,0.232982 -0.64972,0.420023 l -0.18376,-0.272358 q 0.43643,-0.210012 0.70551,-0.479089 0.26908,-0.269077 0.39377,-0.600502 0.12798,-0.334706 0.12798,-0.73504 z m -1.07959,0 h 1.23381 v 0.27564 h -1.23381 z m 4.02631,-0.301891 h 0.29205 v 0.08532 q 0,0.154227 -0.0591,0.288766 -0.0591,0.131257 -0.17063,0.242825 -0.10829,0.111569 -0.25924,0.196886 -0.15094,0.08532 -0.3347,0.144383 -0.18376,0.05578 -0.39049,0.07875 l -0.11485,-0.259233 q 0.18048,-0.01969 0.33799,-0.06235 0.1575,-0.04594 0.28548,-0.111568 0.13126,-0.06563 0.22314,-0.147665 0.0919,-0.08204 0.1411,-0.173916 0.0492,-0.09516 0.0492,-0.196885 z m 0.0623,0 h 0.28876 v 0.08532 q 0,0.101724 0.0492,0.196885 0.0492,0.09188 0.14111,0.173916 0.0952,0.08204 0.22313,0.147665 0.12798,0.06563 0.28549,0.111568 0.16079,0.04266 0.34127,0.06235 l -0.11813,0.259233 q -0.20673,-0.02297 -0.3905,-0.07875 -0.18047,-0.05907 -0.3347,-0.144383 -0.15095,-0.08532 -0.25923,-0.196886 -0.10829,-0.111568 -0.16736,-0.242825 -0.0591,-0.134539 -0.0591,-0.288766 z m -0.0591,1.411014 h 0.34127 v 0.439712 h -0.34127 z m -1.18131,-0.210011 h 2.71046 v 0.27564 h -2.71046 z m 0.3183,0.525029 h 2.05089 v 0.725196 h -1.70634 v 0.315017 h -0.33799 v -0.557843 h 1.70634 v -0.223137 h -1.7129 z m 0.007,0.968022 h 2.12965 v 0.262514 h -2.12965 z m 4.92214,-2.710462 h 0.32815 v 2.999227 h -0.32815 z m -0.4594,1.181315 h 0.54472 v 0.282203 h -0.54472 z m -0.21657,-1.118967 h 0.32158 v 2.789215 h -0.32158 z m -1.45368,1.942606 h 0.20017 q 0.20673,0 0.38065,-0.0066 0.17391,-0.0066 0.33799,-0.02297 0.16735,-0.01969 0.34126,-0.0525 l 0.0328,0.282203 q -0.18048,0.0361 -0.35111,0.05579 -0.17064,0.01641 -0.35112,0.02297 -0.17719,0.0066 -0.39049,0.0066 h -0.20017 z m 0,-1.647278 h 1.10913 v 0.278922 h -0.77114 v 1.499613 h -0.33799 z m 2.92376,-0.06235 h 1.76869 v 0.272359 h -1.76869 z m 0.88599,0.400335 q 0.21329,0 0.37736,0.06891 0.16407,0.06891 0.25595,0.193604 0.0919,0.121413 0.0919,0.285484 0,0.164072 -0.0919,0.288766 -0.0919,0.121413 -0.25595,0.190323 -0.16407,0.06563 -0.37736,0.06563 -0.21658,0 -0.38065,-0.06563 -0.16407,-0.06891 -0.25595,-0.190323 -0.0919,-0.124694 -0.0919,-0.288766 0,-0.164071 0.0919,-0.285484 0.0919,-0.124694 0.25595,-0.193604 0.16407,-0.06891 0.38065,-0.06891 z m 0,0.265795 q -0.18048,0 -0.29205,0.07547 -0.10829,0.07219 -0.10829,0.20673 0,0.131258 0.10829,0.20673 0.11157,0.07547 0.29205,0.07547 0.17719,0 0.28548,-0.07547 0.10829,-0.07547 0.10829,-0.20673 0,-0.134538 -0.10829,-0.20673 -0.10829,-0.07547 -0.28548,-0.07547 z m 1.10912,-0.958177 h 0.34127 v 1.876978 h -0.34127 z m 0.24939,0.800669 h 0.51518 v 0.285484 h -0.51518 z m -1.87698,1.220692 h 1.96886 v 0.977866 h -0.34127 v -0.702226 h -1.62759 z m 0.34455,-2.037768 h 0.34455 V 30.3815 h -0.34455 z"
             id="text5-9-1-0"
             aria-label="더밍과학기술대학" />
          <path
             style="font-weight:500;font-size:7.40833px;line-height:1.25;font-family:'Noto Sans KR';-inkscape-font-specification:'Noto Sans KR Medium';fill:#f9f9f9;stroke-width:0.264583"
             d="m 57.625602,44.26501 h 0.637116 v 1.111249 q 0,0.614892 -0.13335,1.185333 -0.13335,0.570442 -0.392641,1.0668 -0.251884,0.496358 -0.614892,0.874183 -0.3556,0.377825 -0.814916,0.600074 l -0.466725,-0.637116 q 0.407458,-0.185208 0.733425,-0.503766 0.333375,-0.325967 0.563033,-0.740833 0.237067,-0.414867 0.363008,-0.889 0.125942,-0.474133 0.125942,-0.955675 z m 0.140758,0 h 0.637116 v 1.111249 q 0,0.466725 0.118534,0.918633 0.125941,0.451908 0.355599,0.851958 0.229659,0.40005 0.555625,0.703792 0.325967,0.303741 0.718608,0.488949 l -0.451908,0.6223 Q 59.248026,48.74705 58.892426,48.384041 58.536826,48.021033 58.284943,47.5469 58.03306,47.072767 57.89971,46.517142 57.76636,45.961518 57.76636,45.376259 Z m 2.92629,-0.563033 h 0.777875 v 6.78603 H 60.69265 Z m 2.326217,0.748241 h 5.474756 v 0.614892 h -5.474756 z m -0.303742,3.644899 h 6.134097 v 0.622299 h -6.134097 z m 2.666999,0.533399 h 0.777875 v 1.852083 h -0.777875 z m 0.392641,-3.230032 q 1.059392,0 1.652058,0.296334 0.600075,0.296333 0.600075,0.851958 0,0.548216 -0.600075,0.844549 -0.592666,0.296333 -1.652058,0.296333 -1.066799,0 -1.659465,-0.296333 -0.592667,-0.296333 -0.592667,-0.844549 0,-0.555625 0.592667,-0.851958 0.600074,-0.296334 1.659465,-0.296334 z m 0,0.585258 q -0.711199,0 -1.081616,0.140759 -0.370416,0.140758 -0.370416,0.422275 0,0.274108 0.370416,0.414866 0.370417,0.140758 1.081616,0.140758 0.703792,0 1.074208,-0.140758 0.370417,-0.140758 0.370417,-0.414866 0,-0.281517 -0.370417,-0.422275 -0.370416,-0.140759 -1.074208,-0.140759 z m -0.392641,-2.30399 h 0.777875 v 1.177924 h -0.777875 z"
             id="text5-9-8"
             aria-label="시후" />
          <text
             xml:space="preserve"
             transform="matrix(0.31967577,0,0,0.31967577,-16.498784,-6.8865533)"
             id="text6"
             style="font-size:55px;line-height:1.25;font-family:'Microsoft JhengHei';-inkscape-font-specification:'Microsoft JhengHei';white-space:pre;shape-inside:url(#rect6);display:inline" />
        </g>
        <path
           id="rect2"
           style="fill:#ffffff;stroke-width:0.634253"
           d="m 79.913445,18.870537 h 0.878811 v 14.029954 h -0.878811 z" />
      </g>
    </g>
  </g>
</svg>
