<?xml version="1.0" encoding="UTF-8" standalone="no"?>
<!-- Created with Inkscape (http://www.inkscape.org/) -->

<svg
   width="500"
   height="250"
   viewBox="0 0 132.29166 66.145833"
   version="1.1"
   id="svg1"
   inkscape:version="1.3.2 (091e20e, 2023-11-25, custom)"
   sodipodi:docname="br17.svg"
   xmlns:inkscape="http://www.inkscape.org/namespaces/inkscape"
   xmlns:sodipodi="http://sodipodi.sourceforge.net/DTD/sodipodi-0.dtd"
   xmlns="http://www.w3.org/2000/svg"
   xmlns:svg="http://www.w3.org/2000/svg">
  <sodipodi:namedview
     id="namedview1"
     pagecolor="#9e652e"
     bordercolor="#ffffff"
     borderopacity="1"
     inkscape:showpageshadow="0"
     inkscape:pageopacity="0"
     inkscape:pagecheckerboard="false"
     inkscape:deskcolor="#d1d1d1"
     inkscape:document-units="mm"
     inkscape:zoom="2.0208096"
     inkscape:cx="305.81802"
     inkscape:cy="106.88785"
     inkscape:window-width="1920"
     inkscape:window-height="1009"
     inkscape:window-x="1912"
     inkscape:window-y="-8"
     inkscape:window-maximized="1"
     inkscape:current-layer="layer1" />
  <defs
     id="defs1">
    <rect
       x="560.66638"
       y="34.144731"
       width="279.32397"
       height="128.59143"
       id="rect6" />
    <rect
       x="157.85752"
       y="62.351248"
       width="329.07603"
       height="135.09437"
       id="rect4" />
    <rect
       x="157.85751"
       y="62.35125"
       width="329.07602"
       height="135.09438"
       id="rect4-5" />
  </defs>
  <g
     inkscape:label="Layer 1"
     inkscape:groupmode="layer"
     id="layer1">
    <rect
       style="fill:#9e652e;fill-opacity:1;stroke:none;stroke-width:0.953294;stroke-dasharray:none"
       id="rect5"
       width="132.29167"
       height="66.145836"
       x="-2.5431316e-06"
       y="-1.2715658e-06"
       ry="0" />
    <g
       id="g4"
       transform="matrix(1.260863,0,0,1.260863,-0.09396116,-8.6274992)">
      <g
         id="g7"
         transform="translate(2.5216672)">
        <g
           id="g5"
           transform="matrix(0.82766152,0,0,0.82766152,17.509474,5.6997351)">
          <path
             id="rect1"
             style="fill-opacity:0;stroke:#f9f9f9;stroke-width:0.953294"
             d="m 10.182676,14.144197 h 12.563615 c 3.97082,0 7.167545,3.196725 7.167545,7.167545 v 23.522352 c 0,3.970819 -3.196725,7.167544 -7.167545,7.167544 H 10.182676 c -3.97082,0 -7.167545,-3.196725 -7.167545,-7.167544 V 21.311742 c 0,-3.97082 3.196725,-7.167545 7.167545,-7.167545 z" />
          <path
             style="font-size:12.7px;line-height:1.25;font-family:'AR UDJingXiHeiE1G30 EB';-inkscape-font-specification:'AR UDJingXiHeiE1G30 EB';fill:#f9f9f9;stroke-width:0.264583"
             d="M 12.825932,30.493842 H 7.9999322 v -9.1821 h 4.4195998 q 1.3081,0 2.0701,0.635 0.762,0.635 0.762,1.6891 0,0.6858 -0.3048,1.2065 -0.2921,0.508 -0.889,0.8382 0.7747,0.3048 1.1684,0.8382 0.4064,0.5334 0.4064,1.27 0,1.2192 -0.8001,1.9685 -0.8001,0.7366 -2.0066,0.7366 z m 0.7493,-6.6548 q 0,-0.6223 -0.3556,-0.9398 -0.3556,-0.3302 -1.0287,-0.3302 H 9.6128322 v 2.5908 h 2.6669998 q 0.5715,0 0.9271,-0.3302 0.3683,-0.3429 0.3683,-0.9906 z m 0.381,3.937 q 0,-0.6604 -0.4064,-1.0033 -0.3937,-0.3556 -1.0414,-0.3556 H 9.6128322 v 2.8194 h 2.8701998 q 0.6731,0 1.0668,-0.3683 0.4064,-0.3683 0.4064,-1.0922 z m 9.042408,-3.8354 q 0,-0.6731 -0.3556,-1.016 -0.3556,-0.3556 -1.028699,-0.3556 h -2.7559 v 2.8575 h 2.667 q 0.660399,0 1.066799,-0.3937 0.4064,-0.3937 0.4064,-1.0922 z m -4.140199,2.7305 v 3.8227 h -1.6129 v -9.1821 h 4.673599 q 1.2573,0 1.9939,0.6731 0.7493,0.6604 0.7493,1.8796 0,0.8001 -0.381,1.3716 -0.3683,0.5715 -0.9271,0.8128 0.7112,0.4064 1.0922,1.4097 0.381,1.0033 0.4826,3.0353 h -1.6764 q -0.0762,-2.1336 -0.4699,-2.9718 -0.381,-0.8509 -1.231899,-0.8509 z"
             id="text2"
             aria-label="BR" />
          <path
             style="font-size:14.5521px;line-height:1.25;font-family:'AR UDJingXiHeiE1G30 EB';-inkscape-font-specification:'AR UDJingXiHeiE1G30 EB';fill:#f9f9f9;stroke-width:0.264583"
             d="m 11.502217,36.623275 -1.7025962,1.586178 -0.8440218,-1.295136 2.735795,-2.48841 h 1.586179 v 10.521169 h -1.775356 z m 7.319696,8.323801 3.710785,-9.080511 H 17.27939 v -1.440658 h 7.130529 v 1.207825 l -3.710786,9.313344 z"
             id="text3"
             aria-label="17" />
          <path
             style="font-weight:500;font-size:72px;line-height:1.25;font-family:'Noto Sans TC';-inkscape-font-specification:'Noto Sans TC Medium';white-space:pre;fill:#f9f9f9"
             d="m 188.38542,108.80141 h 6.264 v 23.112 q 0,1.944 0.864,2.52 0.936,0.504 4.176,0.504 0.576,0 1.944,0 1.368,0 3.168,0 1.8,0 3.528,0 1.8,0 3.312,0 1.512,0 2.232,0 1.8,0 2.664,-0.504 0.864,-0.576 1.224,-2.232 0.432,-1.728 0.576,-5.04 1.152,0.792 2.808,1.44 1.728,0.648 3.096,1.008 -0.432,4.392 -1.44,6.84 -0.936,2.52 -2.952,3.456 -1.944,1.008 -5.472,1.008 -0.576,0 -2.16,0 -1.512,0 -3.528,0 -1.944,0 -3.96,0 -1.944,0 -3.456,0 -1.512,0 -2.088,0 -4.176,0 -6.552,-0.792 -2.376,-0.72 -3.312,-2.664 -0.936,-1.944 -0.936,-5.472 z m -24.552,-28.656004 3.816,-5.04 q 2.16,0.864 4.536,2.16 2.376,1.296 4.464,2.664 2.088,1.296 3.456,2.592 l -4.032,5.544 q -1.224,-1.224 -3.312,-2.664 -2.016,-1.44 -4.392,-2.808 -2.376,-1.44 -4.536,-2.448 z m -3.744,19.44 3.744,-5.112 q 2.232,0.792 4.608,2.016 2.376,1.152 4.464,2.448 2.088,1.296004 3.456,2.448004 l -3.96,5.688 q -1.224,-1.224 -3.312,-2.592 -2.088,-1.368 -4.464,-2.664 -2.304,-1.296 -4.536,-2.232004 z m 1.872,36.936004 q 1.728,-2.808 3.744,-6.624 2.016,-3.816 4.104,-8.136 2.088,-4.32 3.888,-8.424 l 5.328,4.104 q -1.584,3.816 -3.456,7.848 -1.8,4.032 -3.744,7.992 -1.872,3.888 -3.744,7.344 z m 29.376,-27.72 h 24.12 v 16.776 h -24.12 v -5.256 h 18 v -6.264 h -18 z m -11.016,-25.992004 h 45.144 v 6.12 h -45.144 z m -2.88,13.176 h 50.112 v 6.192004 h -50.112 z m 12.24,-21.24 h 6.624 v 25.488004 h -6.624 z m 18.936,0 h 6.696 v 25.632004 h -6.696 z m -18,25.128 5.832,2.016004 q -1.728,3.96 -4.248,7.776 -2.448,3.816 -5.4,7.056 -2.952,3.24 -6.048,5.4 -0.504,-0.792 -1.368,-1.728 -0.792,-0.936 -1.728,-1.872 -0.864,-0.936 -1.584,-1.512 2.88,-1.8 5.616,-4.536 2.808,-2.736 5.112,-5.976 2.304,-3.24 3.816,-6.624004 z m 23.76,-0.216 q 1.368,3.240004 3.6,6.408004 2.304,3.096 5.04,5.688 2.808,2.592 5.76,4.176 -0.792,0.648 -1.728,1.584 -0.936,0.936 -1.728,1.944 -0.792,1.008 -1.368,1.872 -3.096,-2.088 -6.048,-5.184 -2.88,-3.168 -5.256,-6.912 -2.376,-3.744 -4.032,-7.632 z m 18.72,-7.632 h 17.928 v 6.336 h -17.928 z m 6.048,-16.416 h 6.192 v 47.376004 h -6.192 z m -7.272,47.448004 q 3.672,-1.224 8.784,-3.168 5.112,-2.016 10.368,-4.104 l 1.368,5.904 q -4.68,2.016 -9.504,4.104 -4.752,2.088 -8.856,3.744 z m 46.872,-22.248 h 12.744 v 6.12 h -12.744 z m 3.672,-26.208004 6.408,1.224 q -1.44,7.128 -3.888,13.68 -2.448,6.552 -5.616,11.016004 -0.648,-0.504 -1.656,-1.152004 -0.936,-0.648 -2.016,-1.296 -1.08,-0.72 -1.872,-1.08 3.168,-4.104 5.328,-10.008 2.232,-5.976 3.312,-12.384 z m 0.576,10.944 h 16.344 v 6.12 h -19.368 z m 7.2,15.264004 h 1.008 l 1.44,-0.072 4.032,0.936 q -0.072,0.288 -0.216,0.72 -0.072,0.36 -0.216,0.72 -3.528,7.344 -5.904,12.384 -2.304,5.04 -3.672,8.28 -1.368,3.24 -2.016,5.112 -0.648,1.872 -0.864,2.88 -0.216,1.008 -0.216,1.728 0,1.008 0.648,1.44 0.648,0.36 1.8,0.36 h 6.912 q 0.792,0 1.152,-0.576 0.36,-0.648 0.576,-2.592 0.216,-2.016 0.288,-6.12 1.224,0.648 2.592,1.224 1.368,0.504 2.52,0.792 -0.216,5.616 -1.008,8.496 -0.792,2.88 -2.304,3.816 -1.44,1.008 -3.816,1.008 h -7.344 q -4.392,0 -6.408,-1.8 -2.016,-1.8 -2.016,-4.896 0,-1.008 0.144,-2.232 0.216,-1.296 0.864,-3.456 0.648,-2.16 2.016,-5.688 1.44,-3.528 3.816,-9 2.448,-5.544 6.192,-13.464 z m -29.448,-26.136004 h 6.192 v 20.736 h -6.192 z m 0,39.744004 h 6.192 v 27.072 h -6.192 z m -1.944,-6.48 v 4.896 h 10.08 v -4.896 z m 0,-9.792004 v 4.824004 h 10.08 v -4.824004 z m -5.76,-5.328 h 21.816 v 25.272004 h -21.816 z m -1.656,-11.088 h 25.2 v 5.976 h -25.2 z m -0.936,41.904004 h 26.64 v 6.048 h -26.64 z"
             id="text4"
             transform="matrix(0.26458333,0,0,0.26458333,-8.0629803,-4.4771203)"
             aria-label="港墘" />
          <path
             style="font-size:7.40833px;line-height:1.25;font-family:'AR UDJingXiHeiE1G30 EB';-inkscape-font-specification:'AR UDJingXiHeiE1G30 EB';fill:#f9f9f9;stroke-width:0.264583"
             d="m 38.868119,40.321551 q -0.274108,0.385233 -0.688974,0.570441 -0.407459,0.1778 -0.93345,0.1778 -1.1557,0 -1.837266,-0.726016 -0.681566,-0.733425 -0.681566,-2.044699 0,-1.318683 0.718608,-2.044699 0.718608,-0.726017 1.940982,-0.726017 0.985308,0 1.600199,0.451908 0.6223,0.4445 0.748242,1.274233 h -0.940858 q -0.07408,-0.437091 -0.437092,-0.711199 -0.355599,-0.281517 -0.970491,-0.281517 -0.822324,0 -1.252008,0.5334 -0.429683,0.525991 -0.429683,1.503891 0,1.044574 0.451908,1.540932 0.451909,0.48895 1.229783,0.48895 0.681567,0 1.081616,-0.40005 0.40005,-0.400049 0.40005,-0.918633 v -0.111125 h -1.518707 v -0.733424 h 2.422523 v 2.807757 h -0.903816 z m 4.867269,-1.511299 -0.844549,-2.289174 -0.859366,2.289174 z m -1.978024,0.733424 -0.533399,1.429808 H 40.26829 l 2.155824,-5.356223 h 0.963083 l 2.141007,5.356223 h -0.977899 l -0.540808,-1.429808 z m 5.326584,-2.43734 v 3.867148 H 46.14309 v -5.356223 h 0.970491 l 2.629957,3.956048 v -3.956048 h 0.940858 v 5.356223 h -1.029758 z m 8.764049,3.215215 q -0.274109,0.385233 -0.688975,0.570441 -0.407458,0.1778 -0.93345,0.1778 -1.155699,0 -1.837265,-0.726016 -0.681567,-0.733425 -0.681567,-2.044699 0,-1.318683 0.718608,-2.044699 0.718608,-0.726017 1.940983,-0.726017 0.985308,0 1.600199,0.451908 0.6223,0.4445 0.748241,1.274233 h -0.940858 q -0.07408,-0.437091 -0.437091,-0.711199 -0.3556,-0.281517 -0.970491,-0.281517 -0.822325,0 -1.252008,0.5334 -0.429683,0.525991 -0.429683,1.503891 0,1.044574 0.451908,1.540932 0.451908,0.48895 1.229783,0.48895 0.681566,0 1.081616,-0.40005 0.40005,-0.400049 0.40005,-0.918633 v -0.111125 h -1.518708 v -0.733424 h 2.422524 v 2.807757 h -0.903816 z m 6.415609,0.05186 0.659342,0.548217 -0.474133,0.555624 -0.807508,-0.681566 q -0.274109,0.13335 -0.607483,0.200025 -0.325967,0.07408 -0.688975,0.07408 -1.259416,0 -1.970616,-0.733425 -0.711199,-0.733424 -0.711199,-2.015065 0,-1.303866 0.718608,-2.044699 0.718608,-0.748242 1.963207,-0.748242 1.259416,0 1.963207,0.740833 0.703792,0.740833 0.703792,2.052108 0,0.659341 -0.192617,1.177924 -0.192616,0.518583 -0.555625,0.874183 z m -1.918757,-4.111623 q -0.814916,0 -1.266824,0.570441 -0.4445,0.563033 -0.4445,1.489075 0,0.948266 0.451908,1.481666 0.451908,0.533399 1.259416,0.533399 0.1778,0 0.333375,-0.02963 0.162983,-0.02963 0.303741,-0.0889 l -0.570441,-0.481541 0.503766,-0.540808 0.674158,0.570441 q 0.214842,-0.244475 0.325967,-0.607483 0.118533,-0.370416 0.118533,-0.837141 0,-0.940858 -0.4445,-1.496483 -0.444499,-0.563033 -1.244599,-0.563033 z m 4.630208,-0.644525 v 5.356223 h -0.940858 v -5.356223 z m 4.081984,3.192991 -0.844549,-2.289174 -0.859367,2.289174 z m -1.978024,0.733424 -0.5334,1.429808 h -0.955674 l 2.155824,-5.356223 h 0.963083 l 2.141007,5.356223 H 69.871958 L 69.33115,39.543676 Z m 5.326582,-2.43734 v 3.867148 h -0.940858 v -5.356223 h 0.970491 l 2.629957,3.956048 v -3.956048 h 0.940858 v 5.356223 h -1.029758 z"
             id="text5"
             aria-label="GANGQIAN" />
          <path
             d="m 36.499876,44.325336 h 4.645022 v 0.637116 h -4.645022 z m -0.296334,1.363132 h 5.156198 v 0.637117 h -5.156198 z m 1.259416,-2.155824 h 0.681567 v 2.622549 h -0.681567 z m 1.948391,0 h 0.688975 v 2.637366 h -0.688975 z m -1.852082,2.555874 0.600074,0.207433 q -0.177799,0.407458 -0.437091,0.8001 -0.251883,0.392641 -0.555625,0.726016 -0.303741,0.333375 -0.6223,0.555625 -0.05186,-0.08149 -0.140758,-0.1778 -0.08149,-0.103717 -0.1778,-0.192616 -0.0889,-0.09631 -0.162983,-0.155575 0.296333,-0.185209 0.57785,-0.466725 0.288925,-0.281517 0.525991,-0.614892 0.237067,-0.340783 0.392642,-0.681566 z m 2.444749,-0.02222 q 0.140758,0.325967 0.370416,0.651933 0.237067,0.325967 0.518583,0.592666 0.288925,0.259292 0.592667,0.429684 -0.08149,0.06668 -0.1778,0.162983 -0.09631,0.0889 -0.1778,0.200025 -0.08149,0.103716 -0.140759,0.192616 -0.318558,-0.214841 -0.622299,-0.533399 -0.296333,-0.325967 -0.540808,-0.7112 -0.244475,-0.385233 -0.414867,-0.785283 z m -2.489199,2.163232 h 1.881716 v -0.681566 h -1.785408 v -0.555625 h 2.429932 v 1.800224 h -2.52624 z m -0.296333,0 h 0.659341 v 1.28905 q 0,0.155575 0.09631,0.207433 0.09631,0.04445 0.4445,0.04445 0.05927,0 0.200025,0 0.140758,0 0.325966,0 0.185209,0 0.370417,0 0.185208,0 0.340783,0 0.155575,0 0.237067,0 0.185208,0 0.274108,-0.05186 0.09631,-0.05927 0.13335,-0.229659 0.04445,-0.177799 0.06668,-0.525991 0.111125,0.08149 0.288925,0.148167 0.185208,0.06667 0.318558,0.09631 -0.03704,0.474133 -0.140758,0.726016 -0.103717,0.259292 -0.31115,0.3556 -0.207434,0.09631 -0.585258,0.09631 -0.05186,0 -0.214842,0 -0.162983,0 -0.370416,0 -0.200025,0 -0.407459,0 -0.207433,0 -0.370416,0 -0.155575,0 -0.207433,0 -0.4445,0 -0.696383,-0.07408 -0.251884,-0.07408 -0.3556,-0.259291 -0.09631,-0.185209 -0.09631,-0.525992 z m -2.415116,-4.141256 0.392641,-0.518583 q 0.22225,0.0889 0.466725,0.22225 0.244475,0.13335 0.459317,0.274108 0.214841,0.13335 0.3556,0.2667 l -0.414867,0.570441 Q 35.936842,44.777244 35.722001,44.629077 35.514568,44.48091 35.270093,44.340152 35.025618,44.191986 34.803368,44.088269 Z m -0.385233,2.000249 0.385233,-0.525991 q 0.229658,0.08149 0.474133,0.207433 0.244475,0.118533 0.459317,0.251883 0.214841,0.13335 0.355599,0.251883 l -0.407458,0.585258 q -0.125941,-0.125941 -0.340783,-0.2667 -0.214842,-0.140758 -0.459316,-0.274108 -0.237067,-0.13335 -0.466725,-0.229658 z m 0.192616,3.800473 q 0.1778,-0.288925 0.385234,-0.681566 0.207433,-0.392642 0.422274,-0.837141 0.214842,-0.4445 0.40005,-0.866775 l 0.548217,0.422275 q -0.162984,0.392641 -0.3556,0.807508 -0.185209,0.414866 -0.385233,0.822324 -0.192617,0.40005 -0.385234,0.75565 z m 7.31943,-4.578348 h 1.844675 v 0.651933 h -1.844675 z m 0.6223,-1.689099 h 0.637116 v 4.874681 h -0.637116 z m -0.748241,4.88209 q 0.377825,-0.125942 0.903816,-0.325967 0.525991,-0.207433 1.0668,-0.422275 l 0.140758,0.607483 q -0.481542,0.207434 -0.9779,0.422275 -0.48895,0.214842 -0.911224,0.385233 z m 4.822823,-2.289174 h 1.311274 v 0.629708 h -1.311274 z m 0.377824,-2.696632 0.659342,0.125941 q -0.148167,0.733425 -0.40005,1.407583 -0.251883,0.674158 -0.57785,1.133474 -0.06668,-0.05186 -0.170391,-0.118533 -0.09631,-0.06668 -0.207434,-0.13335 -0.111125,-0.07408 -0.192616,-0.111125 0.325966,-0.422275 0.548216,-1.029758 0.229658,-0.614891 0.340783,-1.274232 z m 0.05927,1.126066 h 1.681691 v 0.629708 h -1.992841 z m 0.740833,1.570566 h 0.103717 l 0.148166,-0.0074 0.414867,0.09631 q -0.0074,0.02963 -0.02222,0.07408 -0.0074,0.03704 -0.02222,0.07408 -0.363008,0.75565 -0.607483,1.274233 -0.237067,0.518583 -0.377825,0.851958 -0.140758,0.333375 -0.207433,0.525991 -0.06668,0.192617 -0.0889,0.296334 -0.02222,0.103716 -0.02222,0.177799 0,0.103717 0.06667,0.148167 0.06668,0.03704 0.185208,0.03704 h 0.7112 q 0.08149,0 0.118533,-0.05927 0.03704,-0.06668 0.05927,-0.2667 0.02222,-0.207433 0.02963,-0.629708 0.125941,0.06667 0.2667,0.125942 0.140758,0.05186 0.259291,0.08149 -0.02222,0.57785 -0.103716,0.874183 -0.08149,0.296334 -0.237067,0.392642 -0.148167,0.103716 -0.392641,0.103716 h -0.75565 q -0.451908,0 -0.659341,-0.185208 -0.207434,-0.185208 -0.207434,-0.503766 0,-0.103717 0.01482,-0.229658 0.02222,-0.13335 0.0889,-0.3556 0.06667,-0.22225 0.207433,-0.585258 0.148167,-0.363009 0.392642,-0.926042 0.251883,-0.570441 0.637116,-1.385357 z M 44.77498,43.525236 h 0.637116 v 2.133599 H 44.77498 Z m 0,4.089398 h 0.637116 v 2.785532 H 44.77498 Z m -0.200025,-0.66675 v 0.503767 h 1.037166 v -0.503767 z m 0,-1.007533 v 0.496359 h 1.037166 v -0.496359 z m -0.592666,-0.548216 h 2.244724 v 2.600324 h -2.244724 z m -0.170392,-1.140883 h 2.592916 v 0.614892 h -2.592916 z m -0.09631,4.311648 h 2.741082 v 0.6223 h -2.741082 z"
             id="text5-9"
             style="font-weight:500;font-size:7.40833px;line-height:1.25;font-family:'Noto Sans JP';-inkscape-font-specification:'Noto Sans JP Medium';fill:#f9f9f9;stroke-width:0.264583"
             aria-label="港墘" />
          <path
             style="font-weight:500;font-size:7.40833px;line-height:1.25;font-family:'Noto Sans KR';-inkscape-font-specification:'Noto Sans KR Medium';fill:#f9f9f9;stroke-width:0.264583"
             d="M 60.411134,43.701977 H 61.1816 v 3.99309 h -0.770466 z m 0.563033,1.674282 h 1.163108 v 0.644525 H 60.974167 Z M 58.507193,44.17611 h 0.837141 q 0,0.889 -0.377825,1.600199 -0.377824,0.703792 -1.081616,1.214966 -0.696383,0.503767 -1.689099,0.785283 l -0.318558,-0.622299 q 0.844549,-0.237067 1.429808,-0.6223 0.585258,-0.392642 0.888999,-0.896408 0.31115,-0.503766 0.31115,-1.089025 z m -2.318807,0 h 2.778123 v 0.629708 h -2.778123 z m 2.844798,3.607857 q 0.674158,0 1.170517,0.162983 0.503766,0.162983 0.777874,0.466725 0.281517,0.296333 0.281517,0.711199 0,0.414867 -0.281517,0.718608 -0.274108,0.296334 -0.777874,0.459317 -0.496359,0.170391 -1.170517,0.170391 -0.674158,0 -1.185332,-0.170391 -0.503767,-0.162983 -0.777875,-0.459317 -0.274108,-0.303741 -0.274108,-0.718608 0,-0.414866 0.274108,-0.711199 0.274108,-0.303742 0.777875,-0.466725 0.511174,-0.162983 1.185332,-0.162983 z m 0,0.607483 q -0.451908,0 -0.785283,0.0889 -0.325966,0.08149 -0.511174,0.251883 -0.1778,0.162983 -0.1778,0.392641 0,0.229659 0.1778,0.40005 0.185208,0.162983 0.511174,0.251883 0.333375,0.08149 0.785283,0.08149 0.451909,0 0.777875,-0.08149 0.333375,-0.0889 0.511175,-0.251883 0.1778,-0.170391 0.1778,-0.40005 0,-0.229658 -0.1778,-0.392641 -0.1778,-0.170392 -0.511175,-0.251883 -0.325966,-0.0889 -0.777875,-0.0889 z m 6.474882,-2.600324 h 1.155699 v 0.629708 h -1.155699 z m -1.474258,-0.703791 h 0.592666 v 0.214841 q 0,0.570442 -0.162983,1.103841 -0.162983,0.5334 -0.48895,0.948267 -0.325966,0.414866 -0.837141,0.644524 l -0.392642,-0.577849 q 0.437092,-0.200025 0.718608,-0.5334 0.281517,-0.333375 0.422275,-0.740833 0.148167,-0.414867 0.148167,-0.84455 z m 0.155575,0 h 0.57785 v 0.214841 q 0,0.407458 0.140758,0.8001 0.148166,0.385233 0.437091,0.703791 0.288925,0.31115 0.718608,0.496358 l -0.377825,0.57785 q -0.503766,-0.214842 -0.837141,-0.607483 -0.333375,-0.40005 -0.496358,-0.903816 -0.162983,-0.511175 -0.162983,-1.0668 z m -1.28905,-0.4445 h 2.992966 v 0.622299 h -2.992966 z m 1.133475,-0.785283 h 0.733425 v 1.029758 h -0.733425 z m 3.674532,-0.148167 h 0.740833 v 5.10434 H 67.70834 Z m -1.318683,0.13335 h 0.733424 v 4.800598 h -0.733424 z m -2.422524,5.867397 h 4.667248 v 0.629709 h -4.667248 z m 0,-1.452032 h 0.777875 v 1.852082 h -0.777875 z"
             id="text5-9-8"
             aria-label="강첸" />
          <text
             xml:space="preserve"
             transform="matrix(0.31967577,0,0,0.31967577,-16.498784,-6.8865533)"
             id="text6"
             style="font-size:55px;line-height:1.25;font-family:'Microsoft JhengHei';-inkscape-font-specification:'Microsoft JhengHei';white-space:pre;shape-inside:url(#rect6);display:inline" />
        </g>
      </g>
    </g>
  </g>
</svg>
