<?xml version="1.0" encoding="UTF-8" standalone="no"?>
<!-- Created with Inkscape (http://www.inkscape.org/) -->

<svg
   width="500"
   height="250"
   viewBox="0 0 132.29166 66.145833"
   version="1.1"
   id="svg1"
   inkscape:version="1.3.2 (091e20e, 2023-11-25, custom)"
   sodipodi:docname="br18.svg"
   xmlns:inkscape="http://www.inkscape.org/namespaces/inkscape"
   xmlns:sodipodi="http://sodipodi.sourceforge.net/DTD/sodipodi-0.dtd"
   xmlns="http://www.w3.org/2000/svg"
   xmlns:svg="http://www.w3.org/2000/svg">
  <sodipodi:namedview
     id="namedview1"
     pagecolor="#9e652e"
     bordercolor="#ffffff"
     borderopacity="1"
     inkscape:showpageshadow="0"
     inkscape:pageopacity="0"
     inkscape:pagecheckerboard="false"
     inkscape:deskcolor="#d1d1d1"
     inkscape:document-units="mm"
     inkscape:zoom="2.0208096"
     inkscape:cx="305.81802"
     inkscape:cy="106.88785"
     inkscape:window-width="1920"
     inkscape:window-height="1009"
     inkscape:window-x="1912"
     inkscape:window-y="-8"
     inkscape:window-maximized="1"
     inkscape:current-layer="layer1" />
  <defs
     id="defs1">
    <rect
       x="560.66638"
       y="34.144731"
       width="279.32397"
       height="128.59143"
       id="rect6" />
    <rect
       x="157.85752"
       y="62.351248"
       width="329.07603"
       height="135.09437"
       id="rect4" />
    <rect
       x="157.85751"
       y="62.35125"
       width="329.07602"
       height="135.09438"
       id="rect4-5" />
  </defs>
  <g
     inkscape:label="Layer 1"
     inkscape:groupmode="layer"
     id="layer1">
    <rect
       style="fill:#9e652e;fill-opacity:1;stroke:none;stroke-width:0.953294;stroke-dasharray:none"
       id="rect5"
       width="132.29167"
       height="66.145836"
       x="-2.5431316e-06"
       y="-1.2715658e-06"
       ry="0" />
    <g
       id="g4"
       transform="translate(-2.663203)">
      <g
         id="g7"
         transform="matrix(1.1949088,0,0,1.1949088,-10.727502,-6.4462012)">
        <g
           id="g5"
           transform="matrix(0.82766152,0,0,0.82766152,17.509474,5.6997351)">
          <path
             id="rect1"
             style="fill-opacity:0;stroke:#f9f9f9;stroke-width:0.953294"
             d="m 10.182676,14.144197 h 12.563615 c 3.97082,0 7.167545,3.196725 7.167545,7.167545 v 23.522352 c 0,3.970819 -3.196725,7.167544 -7.167545,7.167544 H 10.182676 c -3.97082,0 -7.167545,-3.196725 -7.167545,-7.167544 V 21.311742 c 0,-3.97082 3.196725,-7.167545 7.167545,-7.167545 z" />
          <path
             style="font-size:12.7px;line-height:1.25;font-family:'AR UDJingXiHeiE1G30 EB';-inkscape-font-specification:'AR UDJingXiHeiE1G30 EB';fill:#f9f9f9;stroke-width:0.264583"
             d="M 12.825932,30.493842 H 7.9999322 v -9.1821 h 4.4195998 q 1.3081,0 2.0701,0.635 0.762,0.635 0.762,1.6891 0,0.6858 -0.3048,1.2065 -0.2921,0.508 -0.889,0.8382 0.7747,0.3048 1.1684,0.8382 0.4064,0.5334 0.4064,1.27 0,1.2192 -0.8001,1.9685 -0.8001,0.7366 -2.0066,0.7366 z m 0.7493,-6.6548 q 0,-0.6223 -0.3556,-0.9398 -0.3556,-0.3302 -1.0287,-0.3302 H 9.6128322 v 2.5908 h 2.6669998 q 0.5715,0 0.9271,-0.3302 0.3683,-0.3429 0.3683,-0.9906 z m 0.381,3.937 q 0,-0.6604 -0.4064,-1.0033 -0.3937,-0.3556 -1.0414,-0.3556 H 9.6128322 v 2.8194 h 2.8701998 q 0.6731,0 1.0668,-0.3683 0.4064,-0.3683 0.4064,-1.0922 z m 9.042408,-3.8354 q 0,-0.6731 -0.3556,-1.016 -0.3556,-0.3556 -1.028699,-0.3556 h -2.7559 v 2.8575 h 2.667 q 0.660399,0 1.066799,-0.3937 0.4064,-0.3937 0.4064,-1.0922 z m -4.140199,2.7305 v 3.8227 h -1.6129 v -9.1821 h 4.673599 q 1.2573,0 1.9939,0.6731 0.7493,0.6604 0.7493,1.8796 0,0.8001 -0.381,1.3716 -0.3683,0.5715 -0.9271,0.8128 0.7112,0.4064 1.0922,1.4097 0.381,1.0033 0.4826,3.0353 h -1.6764 q -0.0762,-2.1336 -0.4699,-2.9718 -0.381,-0.8509 -1.231899,-0.8509 z"
             id="text2"
             aria-label="BR" />
          <path
             style="font-size:14.5521px;line-height:1.25;font-family:'AR UDJingXiHeiE1G30 EB';-inkscape-font-specification:'AR UDJingXiHeiE1G30 EB';fill:#f9f9f9;stroke-width:0.264583"
             d="m 11.502217,36.623275 -1.7025962,1.586178 -0.8440218,-1.295136 2.735795,-2.48841 h 1.586179 v 10.521169 h -1.775356 z m 11.350627,2.735794 q 0.887678,0.363803 1.338794,1.047752 0.451115,0.669396 0.451115,1.542522 0,1.469762 -1.018647,2.328336 -1.004095,0.858574 -2.779452,0.858574 -1.833564,0 -2.823107,-0.858574 -0.989543,-0.858574 -0.989543,-2.313784 0,-0.844021 0.436563,-1.513418 0.436563,-0.683949 1.280585,-1.076856 -0.683949,-0.320146 -1.018647,-0.887678 -0.334698,-0.582084 -0.34925,-1.309689 0,-1.280584 0.90223,-2.095502 0.916782,-0.82947 2.561169,-0.82947 1.600732,0 2.48841,0.814918 0.887678,0.814917 0.887678,2.110054 0,0.698501 -0.349251,1.280585 -0.334698,0.567532 -1.018647,0.90223 z m -2.022742,-0.669396 q 0.698501,0 1.120512,-0.407459 0.422011,-0.422011 0.422011,-1.091408 0,-0.6985 -0.422011,-1.091407 -0.407459,-0.407459 -1.10596,-0.407459 -0.727605,0 -1.17872,0.407459 -0.436563,0.407459 -0.436563,1.091407 0,0.654845 0.436563,1.076856 0.436563,0.422011 1.164168,0.422011 z m 1.979086,3.25967 q 0,-0.829469 -0.582084,-1.295137 -0.567532,-0.465667 -1.397002,-0.465667 -0.844021,0 -1.397001,0.509324 -0.538428,0.494771 -0.55298,1.266032 0,0.814918 0.538428,1.266033 0.538427,0.451115 1.426105,0.465667 0.873127,0 1.411554,-0.451115 0.55298,-0.465667 0.55298,-1.295137 z"
             id="text3"
             aria-label="18" />
          <path
             style="font-weight:500;font-size:72px;line-height:1.25;font-family:'Noto Sans TC';-inkscape-font-specification:'Noto Sans TC Medium';white-space:pre;fill:#f9f9f9"
             d="m 208.97742,90.225406 7.056,1.944 q -4.464,13.176004 -11.592,22.680004 -7.056,9.504 -16.992,15.984 -9.936,6.408 -23.112,10.512 -0.432,-0.792 -1.152,-2.016 -0.72,-1.224 -1.584,-2.448 -0.792,-1.152 -1.512,-1.944 12.888,-3.456 22.392,-9.288 9.504,-5.832 16.056,-14.544 6.552,-8.712 10.44,-20.880004 z m -30.6,0.432 q 3.96,10.872004 10.728,19.728004 6.84,8.784 16.488,14.976 9.72,6.192 22.248,9.288 -0.72,0.72 -1.656,1.872 -0.864,1.152 -1.656,2.304 -0.792,1.152 -1.296,2.16 -13.032,-3.6 -22.896,-10.296 -9.792,-6.696 -16.776,-16.272 -6.912,-9.648 -11.448,-21.816004 z m -17.064,-3.528 h 65.448 v 6.624 h -65.448 z m 26.64,-10.944 7.2,-2.16 q 1.584,2.592 3.096,5.688 1.584,3.096 2.232,5.4 l -7.56,2.376 q -0.576,-2.232 -2.016,-5.4 -1.44,-3.24 -2.952,-5.904 z m 65.736,4.032 h 45.288 v 5.472 h -45.288 z m -0.792,32.616004 h 46.44 v 5.544 h -46.44 z m 17.928,7.128 5.04,-1.728 q 1.368,2.016 2.808,4.536 1.44,2.52 2.232,4.176 l -5.256,2.088 q -0.72,-1.728 -2.16,-4.32 -1.368,-2.592 -2.664,-4.752 z m -7.632,3.456 h 5.976 v 10.008 q 0,1.152 0.504,1.512 0.576,0.36 2.592,0.36 0.432,0 1.584,0 1.152,0 2.52,0 1.368,0 2.592,0 1.224,0 1.8,0 1.08,0 1.656,-0.36 0.576,-0.432 0.792,-1.872 0.288,-1.44 0.36,-4.248 0.936,0.648 2.52,1.224 1.584,0.576 2.808,0.864 -0.288,3.888 -1.08,5.976 -0.72,2.088 -2.304,2.88 -1.512,0.792 -4.104,0.792 -0.504,0 -1.944,0 -1.368,0 -3.024,0 -1.656,0 -3.024,0 -1.368,0 -1.872,0 -3.312,0 -5.184,-0.648 -1.8,-0.648 -2.52,-2.232 -0.648,-1.512 -0.648,-4.248 z m -7.344,-0.936 5.256,2.016 q -1.008,3.528 -2.592,7.56 -1.512,3.96 -3.528,6.84 l -5.184,-2.952 q 1.296,-1.728 2.448,-4.032 1.224,-2.304 2.088,-4.752 0.936,-2.448 1.512,-4.68 z m 31.248,1.584 5.04,-2.16 q 1.512,2.088 3.024,4.608 1.512,2.448 2.664,4.896 1.224,2.376 1.872,4.248 l -5.472,2.448 q -0.504,-1.872 -1.656,-4.32 -1.08,-2.448 -2.52,-4.968 -1.44,-2.592 -2.952,-4.752 z m -2.808,-28.872004 v 8.568004 h 6.552 v -8.568004 z m -11.304,0 v 8.568004 h 6.48 v -8.568004 z m -11.016,0 v 8.568004 h 6.192 v -8.568004 z m -5.4,-4.968 h 39.96 v 18.576004 h -39.96 z m 16.416,-15.768 7.2,0.216 q -0.432,3.096 -0.936,6.264 -0.432,3.168 -0.936,6.048 -0.432,2.88 -0.936,5.04 l -6.336,-0.432 q 0.432,-2.304 0.792,-5.328 0.432,-3.024 0.72,-6.12 0.36,-3.168 0.432,-5.688 z m -25.056,15.912 6.12,2.232 q -2.376,4.68 -5.472,9.504004 -3.096,4.752 -6.48,9.144 -3.312,4.32 -6.624,7.632 -0.36,-0.792 -1.08,-1.944 -0.648,-1.224 -1.44,-2.448 -0.792,-1.224 -1.368,-1.944 3.024,-2.736 5.976,-6.336 3.024,-3.6 5.688,-7.632004 2.664,-4.104 4.68,-8.208 z m -1.224,-15.696 6.12,2.592 q -2.376,3.168 -5.328,6.624 -2.88,3.384 -6.048,6.624 -3.096,3.168 -6.12,5.688 -0.288,-0.72 -0.864,-1.728 -0.576,-1.08 -1.224,-2.088 -0.648,-1.008 -1.152,-1.728 2.52,-2.088 5.256,-4.824 2.808,-2.808 5.256,-5.688 2.448,-2.952 4.104,-5.472 z m -4.824,30.096004 3.24,-3.24 3.168,1.08 v 38.952 h -6.408 z"
             id="text4"
             transform="matrix(0.26458333,0,0,0.26458333,-8.0629803,-4.4771203)"
             aria-label="文德" />
          <path
             style="font-weight:500;font-size:72px;line-height:1.25;font-family:'Noto Sans TC';-inkscape-font-specification:'Noto Sans TC Medium';white-space:pre;fill:#f9f9f9"
             d="m 162.96942,78.201406 h 27.72 v 5.256 h -27.72 z m -1.224,32.688004 h 64.296 v 5.4 h -64.296 z m 2.016,-21.600004 h 25.56 v 5.256 h -25.56 z m 14.976,44.568004 h 36.36 v 5.256 h -36.36 z m -17.064,-31.68 q 3.744,-0.288 8.568,-0.648 4.824,-0.36 10.224,-0.792 5.472,-0.504 10.944,-0.936004 v 5.256004 q -7.92,0.792 -15.696,1.512 -7.704,0.648 -13.608,1.224 z m 11.952,-21.960004 h 6.48 v 22.608004 l -6.48,0.792 z m 32.4,-5.544 7.416,0.792 q -0.936,2.232 -1.872,4.32 -0.936,2.088 -1.728,3.672 l -5.904,-0.936 q 0.576,-1.872 1.152,-4.032 0.648,-2.16 0.936,-3.816 z m -5.688,21.024 v 5.976004 h 16.416 v -5.976004 z m 0,-10.872 v 5.904 h 16.416 v -5.904 z m -6.192,-5.256 h 29.16 v 27.360004 h -29.16 z m -12.312,32.256004 6.192,2.088 q -2.664,4.608 -6.552,8.64 -3.888,4.032 -8.424,7.272 -4.464,3.24 -9.144,5.688 -0.36,-0.72 -1.152,-1.728 -0.72,-1.08 -1.584,-2.088 -0.792,-1.08 -1.512,-1.656 4.536,-1.944 8.784,-4.68 4.248,-2.808 7.704,-6.192 3.528,-3.384 5.688,-7.344 z m -7.56,9.936 h 45.432 v 19.44 h -7.2 v -14.184 h -31.32 v 14.544 h -6.912 z m 84.168,-45.072004 h 6.264 v 33.696004 h -6.264 z m -10.152,12.528 h 25.416 v 6.264 h -25.416 z m 30.96,-11.952 h 14.832 v 6.048 h -14.832 z m -28.584,30.384004 h 5.904 v 29.448 h -5.904 z m 3.096,0 h 18.216 v 24.048 h -18.216 v -5.904 h 12.24 v -12.24 h -12.24 z m 22.536,-30.384004 h 6.048 v 29.160004 q 0,4.176 -0.36,8.856 -0.288,4.68 -1.296,9.432 -0.936,4.752 -2.808,9.144 -1.872,4.392 -4.968,7.848 -0.504,-0.576 -1.44,-1.224 -0.936,-0.648 -1.944,-1.296 -1.008,-0.648 -1.728,-1.008 2.952,-3.24 4.608,-7.128 1.728,-3.96 2.52,-8.136 0.864,-4.248 1.08,-8.424 0.288,-4.248 0.288,-8.064 z m 14.76,0 h 6.192 v 56.592004 q 0,2.304 -0.576,3.672 -0.576,1.368 -2.16,2.16 -1.44,0.72 -3.744,0.936 -2.304,0.216 -5.76,0.144 -0.216,-1.152 -0.864,-2.88 -0.576,-1.656 -1.224,-2.808 2.304,0.072 4.248,0.072 1.944,0 2.664,0 0.72,-0.072 0.936,-0.288 0.288,-0.288 0.288,-1.08 z m -55.728,3.024 3.744,-4.824 q 2.016,0.864 4.176,2.088 2.232,1.152 4.176,2.448 1.944,1.296 3.168,2.52 l -3.96,5.328 q -1.152,-1.224 -3.096,-2.592 -1.872,-1.368 -4.032,-2.664 -2.16,-1.368 -4.176,-2.304 z m -2.952,19.296 3.672,-4.824 q 2.088,0.72 4.32,1.872 2.232,1.08 4.176,2.304 2.016,1.224004 3.312,2.304004 l -3.888,5.4 q -1.152,-1.08 -3.168,-2.376 -1.944,-1.296 -4.176,-2.52 -2.16,-1.224 -4.248,-2.160004 z m 1.224,37.584004 q 1.512,-2.808 3.168,-6.624 1.728,-3.888 3.456,-8.136 1.728,-4.248 3.168,-8.352 l 5.4,3.528 q -1.296,3.816 -2.808,7.848 -1.44,4.032 -3.096,7.92 -1.584,3.888 -3.096,7.344 z m 48.24,-21.312 q 2.088,-1.368 4.824,-3.456 2.808,-2.088 5.76,-4.392 l 1.944,3.816 q -2.52,2.448 -5.04,4.824 -2.52,2.376 -4.968,4.608 z m -0.648,-19.944004 3.6,-2.448 q 2.16,1.944 4.248,4.32 2.16,2.376004 3.312,4.104004 l -3.744,2.952 q -1.08,-1.8 -3.24,-4.32 -2.16,-2.520004 -4.176,-4.608004 z m 64.08,19.944004 6.552,-2.952 q 2.952,3.888 6.048,8.352 3.096,4.464 5.76,8.712 2.664,4.248 4.392,7.56 l -6.912,3.744 q -1.656,-3.384 -4.32,-7.776 -2.592,-4.464 -5.688,-9.072 -3.024,-4.608 -5.832,-8.568 z m -21.312,-39.312004 7.56,2.376 q -2.592,5.976 -6.12,11.736 -3.456,5.76 -7.416,10.800004 -3.888,4.968 -7.92,8.712 -0.576,-0.792 -1.728,-1.872 -1.08,-1.08 -2.232,-2.088 -1.152,-1.08 -2.088,-1.728 3.96,-3.312 7.704,-7.776004 3.744,-4.464 6.84,-9.648 3.168,-5.184 5.4,-10.512 z m -10.656,61.848004 q -0.288,-0.792 -0.792,-2.16 -0.432,-1.296 -0.936,-2.736 -0.504,-1.44 -1.08,-2.448 1.656,-0.432 3.24,-1.944 1.584,-1.584 3.744,-4.104 1.152,-1.224 3.24,-3.96 2.16,-2.808 4.752,-6.696 2.592,-3.888 5.256,-8.352 2.664,-4.464 4.824,-9.000004 l 7.848,3.312004 q -3.528,6.264 -7.632,12.456 -4.104,6.12 -8.496,11.664 -4.32,5.472 -8.64,9.864 v 0.216 q 0,0 -0.864,0.432 -0.792,0.36 -1.872,0.936 -1.008,0.576 -1.8,1.224 -0.792,0.72 -0.792,1.296 z m 0,0 -0.216,-5.76 4.752,-2.664 41.976,-2.52 q 0.216,1.584 0.648,3.456 0.504,1.872 0.864,3.024 -10.08,0.72 -17.352,1.296 -7.272,0.504 -12.312,0.864 -4.968,0.432 -8.208,0.72 -3.24,0.288 -5.184,0.504 -1.944,0.288 -3.096,0.504 -1.08,0.216 -1.872,0.576 z m 31.968,-61.992004 h 8.064 q 1.656,5.472 4.464,10.656 2.808,5.112 6.48,9.36 3.672,4.248004 7.992,6.984004 -0.792,0.72 -1.8,1.944 -1.008,1.152 -1.944,2.448 -0.864,1.224 -1.512,2.304 -4.464,-3.456 -8.352,-8.208 -3.888,-4.824004 -6.912,-10.368004 -2.952,-5.544 -4.824,-11.232 h -1.656 z m -9.792,0 h 15.48 v 7.056 h -15.48 z m 53.424,19.872 h 41.544 v 4.032004 h -41.544 z m 3.888,-7.704 h 34.272 v 3.96 h -34.272 z m 13.68,-3.6 h 6.192 v 13.68 h -6.192 z m -0.216,25.992004 4.68,1.728 q -2.376,2.088 -5.832,3.96 -3.456,1.8 -7.272,3.312 -3.744,1.44 -7.344,2.448 -0.288,-0.504 -0.936,-1.152 -0.576,-0.72 -1.224,-1.44 -0.648,-0.792 -1.224,-1.224 3.528,-0.864 7.128,-1.944 3.6,-1.152 6.768,-2.592 3.168,-1.44 5.256,-3.096 z m 20.232,3.6 4.248,2.664 q -2.376,1.728 -5.112,3.24 -2.736,1.512 -5.112,2.592 l -3.456,-2.376 q 1.512,-0.792 3.24,-1.872 1.8,-1.08 3.384,-2.16 1.656,-1.152 2.808,-2.088 z m -27.648,-8.568 v 4.104 h 21.816 v -4.104 z m -5.688,-3.312 h 33.552 v 10.656 h -33.552 z m -13.752,-25.056004 h 60.912 v 63.936004 h -6.696 V 83.817406 h -47.736 v 57.744004 h -6.48 z m 4.104,54.864004 h 53.712 v 6.192 h -53.712 z m 24.552,-15.624 4.176,-2.376 q 3.096,1.728 6.624,4.032 3.528,2.304 6.768,4.608 3.24,2.232 5.4,4.032 l -4.464,2.808 q -1.944,-1.8 -5.112,-4.104 -3.096,-2.376 -6.624,-4.68 -3.528,-2.376 -6.768,-4.32 z m -11.592,15.192 -0.288,-3.888 2.16,-1.8 14.112,-3.312 q -0.072,1.008 -0.072,2.232 0,1.224 0.072,2.016 -4.824,1.224 -7.848,2.088 -2.952,0.792 -4.608,1.296 -1.656,0.504 -2.376,0.864 -0.72,0.288 -1.152,0.504 z m 0,0 q -0.216,-0.864 -0.792,-2.016 -0.504,-1.224 -0.936,-1.8 0.792,-0.36 1.656,-1.152 0.936,-0.864 0.936,-2.808 v -8.136 h 5.04 v 11.88 q 0,0 -0.936,0.432 -0.864,0.36 -2.016,1.008 -1.152,0.576 -2.088,1.296 -0.864,0.648 -0.864,1.296 z"
             id="text4-0"
             transform="matrix(0.12946199,0,0,0.12946199,58.992542,6.3204728)"
             aria-label="碧湖公園&#10;" />
          <path
             style="font-size:7.40833px;line-height:1.25;font-family:'AR UDJingXiHeiE1G30 EB';-inkscape-font-specification:'AR UDJingXiHeiE1G30 EB';fill:#f9f9f9;stroke-width:0.264583"
             d="m 37.786503,36.861861 -1.081616,4.111623 h -0.970491 l -1.37795,-5.356223 h 1.000125 l 0.896408,4.059765 1.044574,-4.059765 h 0.992716 l 1.029758,4.059765 0.948267,-4.059765 h 0.970491 l -1.414991,5.356223 h -0.970491 z m 8.060261,4.111623 h -3.963457 v -5.356223 h 3.941232 v 0.733425 h -3.000374 v 1.511299 h 2.800349 v 0.733425 h -2.800349 v 1.644649 h 3.022599 z m 1.933578,-3.867148 v 3.867148 h -0.940857 v -5.356223 h 0.970491 l 2.629957,3.956048 v -3.956048 h 0.940858 v 5.356223 h -1.029758 z m 9.393759,1.126066 q 0,1.333499 -0.629708,2.037291 -0.6223,0.703791 -1.740958,0.703791 h -2.192866 v -5.356223 h 2.192866 q 1.118658,0 1.740958,0.659342 0.629708,0.659341 0.629708,1.955799 z m -0.9779,0 q 0,-0.970491 -0.40005,-1.4224 -0.392641,-0.459316 -1.148291,-0.459316 h -1.096433 v 3.889373 h 1.103841 q 0.726017,0 1.133475,-0.481541 0.407458,-0.481542 0.407458,-1.526116 z m 5.971106,2.741082 H 58.20385 v -5.356223 h 3.941232 v 0.733425 h -3.000374 v 1.511299 h 2.800349 v 0.733425 h -2.800349 v 1.644649 h 3.022599 z"
             id="text5"
             aria-label="WENDE" />
          <path
             style="font-size:3.55995px;line-height:1.25;font-family:'AR UDJingXiHeiE1G30 EB';-inkscape-font-specification:'AR UDJingXiHeiE1G30 EB';fill:#ffffff;stroke-width:0.127141"
             d="m 81.461405,28.519355 h -1.352781 v -2.573844 h 1.238863 q 0.366675,0 0.580272,0.177998 0.213597,0.177997 0.213597,0.473473 0,0.192237 -0.08544,0.338195 -0.08188,0.142398 -0.249196,0.234957 0.217157,0.08544 0.327515,0.234957 0.113918,0.149517 0.113918,0.355995 0,0.341755 -0.224276,0.551792 -0.224277,0.206477 -0.562473,0.206477 z m 0.210037,-1.865414 q 0,-0.174437 -0.09968,-0.263436 -0.09968,-0.09256 -0.288356,-0.09256 h -0.72267 v 0.72623 h 0.74759 q 0.160197,0 0.259876,-0.09256 0.103238,-0.09612 0.103238,-0.277676 z m 0.106799,1.103585 q 0,-0.185118 -0.113918,-0.281236 -0.110359,-0.09968 -0.291916,-0.09968 h -0.811669 v 0.790309 h 0.804549 q 0.188677,0 0.299036,-0.103239 0.113918,-0.103238 0.113918,-0.306155 z m 1.374143,-1.812015 v 2.573844 H 82.70027 v -2.573844 z m 1.043063,1.4311 v 1.142744 h -0.452114 v -2.573844 h 0.452114 v 1.078665 h 1.235303 v -1.078665 h 0.452113 v 2.573844 H 85.43075 v -1.142744 z m 4.435698,0.242077 q 0,0.448553 -0.281236,0.69775 -0.281236,0.249196 -0.800989,0.249196 -0.526872,0 -0.811668,-0.245636 -0.281236,-0.245637 -0.281236,-0.69775 v -1.676737 h 0.452113 v 1.655377 q 0,0.291916 0.160198,0.452113 0.160198,0.160198 0.480593,0.160198 0.302596,0 0.462794,-0.153078 0.163757,-0.156637 0.163757,-0.466353 v -1.648257 h 0.455674 z m 1.957971,-0.121039 v 1.021706 h -0.452114 v -2.573844 h 1.210383 q 0.377355,0 0.590952,0.206477 0.213597,0.206477 0.213597,0.548232 0,0.384475 -0.220717,0.590952 -0.217157,0.206477 -0.587392,0.206477 z M 91.6927,26.70734 q 0,-0.199357 -0.113918,-0.302595 -0.113919,-0.106799 -0.334636,-0.106799 h -0.65503 v 0.847268 h 0.65503 q 0.220717,0 0.334636,-0.106798 Q 91.6927,26.928057 91.6927,26.70734 Z m 2.264127,0.77251 -0.405834,-1.100025 -0.412954,1.100025 z m -0.950506,0.352435 -0.256317,0.68707 h -0.459233 l 1.035945,-2.573844 h 0.462794 l 1.028825,2.573844 h -0.469913 l -0.259877,-0.68707 z m 3.720144,-1.149864 q 0,-0.188678 -0.09968,-0.284796 -0.09968,-0.09968 -0.288356,-0.09968 h -0.772509 v 0.800989 h 0.74759 q 0.185117,0 0.299036,-0.110359 0.113918,-0.110358 0.113918,-0.306155 z m -1.160544,0.765389 v 1.071545 h -0.452113 v -2.573844 h 1.310061 q 0.352435,0 0.558912,0.188677 0.210037,0.185118 0.210037,0.526873 0,0.224277 -0.106798,0.384475 -0.103239,0.160197 -0.259876,0.227836 0.199357,0.113919 0.306155,0.395155 0.106799,0.281236 0.135278,0.850828 H 96.797664 Q 96.776304,27.921283 96.665946,27.686327 96.559147,27.44781 96.320631,27.44781 Z m 2.602327,0.185117 v 0.886428 h -0.452114 v -2.573844 h 0.452114 v 1.164104 l 1.128504,-1.164104 h 0.551792 l -1.039505,1.043065 1.078665,1.530779 h -0.548233 l -0.833028,-1.235303 z"
             id="text5-8"
             aria-label="BIHU PARK" />
          <path
             d="m 39.448391,45.110618 0.748241,0.22225 q -0.466725,1.340908 -1.200149,2.326216 -0.733425,0.9779 -1.755774,1.652058 -1.02235,0.674158 -2.363258,1.103841 -0.03704,-0.0889 -0.118533,-0.214842 -0.07408,-0.125941 -0.162983,-0.259291 -0.0889,-0.125942 -0.162984,-0.207434 1.303867,-0.363008 2.281766,-0.970491 0.9779,-0.607483 1.652058,-1.503891 0.681566,-0.903816 1.081616,-2.148416 z m -3.14854,0.04445 q 0.392641,1.1557 1.074207,2.066925 0.681567,0.911224 1.681691,1.54834 1.000125,0.629709 2.326216,0.940858 -0.08149,0.08149 -0.185208,0.207434 -0.09631,0.125941 -0.185209,0.251883 -0.08149,0.13335 -0.140758,0.237066 -1.377949,-0.363008 -2.385482,-1.051982 -1.007533,-0.696383 -1.711324,-1.696508 -0.703792,-1.000125 -1.170516,-2.289174 z M 34.544076,44.74761 h 6.734172 v 0.681567 h -6.734172 z m 2.985557,-1.222374 h 0.718608 v 1.637241 h -0.718608 z m 6.497106,0.763058 h 4.578348 v 0.629708 h -4.578348 z m 1.911349,-0.763058 h 0.688975 v 2.355849 h -0.688975 z m -0.837141,4.845048 h 0.644524 v 1.163107 q 0,0.125942 0.04445,0.162984 0.05186,0.03704 0.229659,0.03704 0.03704,0 0.140758,0 0.103716,0 0.22225,0 0.125941,0 0.229658,0 0.111125,0 0.170392,0 0.103716,0 0.155574,-0.04445 0.05186,-0.04445 0.07408,-0.192616 0.02222,-0.155575 0.02963,-0.459317 0.103717,0.07408 0.274108,0.140759 0.170392,0.06668 0.296333,0.09631 -0.02963,0.414866 -0.111124,0.637116 -0.08149,0.229659 -0.237067,0.31115 -0.155575,0.0889 -0.414867,0.0889 -0.05186,0 -0.185208,0 -0.125941,0 -0.274108,0 -0.148167,0 -0.274108,0 -0.125942,0 -0.1778,0 -0.333375,0 -0.518583,-0.07408 -0.1778,-0.06668 -0.251883,-0.237067 -0.06668,-0.162983 -0.06668,-0.466725 z m -0.814917,-0.0074 0.57785,0.1778 q -0.08149,0.4445 -0.244475,0.896408 -0.162983,0.4445 -0.474133,0.748242 l -0.525991,-0.370417 q 0.266699,-0.251883 0.429683,-0.644525 0.162983,-0.40005 0.237066,-0.807508 z m 1.126066,-0.340783 0.40005,-0.407458 q 0.22225,0.103717 0.459317,0.237067 0.244475,0.13335 0.451908,0.281516 0.214841,0.140758 0.348191,0.274108 l -0.429683,0.451908 q -0.125941,-0.133349 -0.333375,-0.281516 -0.200025,-0.155575 -0.437091,-0.296333 -0.237067,-0.148167 -0.459317,-0.259292 z m 1.8669,0.496358 0.555624,-0.237066 q 0.214842,0.237066 0.414867,0.518583 0.200025,0.281516 0.3556,0.563033 0.155575,0.281516 0.22225,0.518583 l -0.600075,0.2667 q -0.05927,-0.229658 -0.207433,-0.511175 -0.140759,-0.288925 -0.333375,-0.57785 -0.192617,-0.296333 -0.407458,-0.540808 z m -0.118534,-2.400299 v 0.926042 h 0.681567 v -0.926042 z m -1.177924,0 v 0.926042 h 0.66675 v -0.926042 z m -1.170516,0 v 0.926042 h 0.644524 V 46.118151 Z M 44.24158,45.54771 h 4.207932 v 2.059516 H 44.24158 Z m -0.748241,-0.474133 0.6223,0.229658 q -0.251884,0.4445 -0.57785,0.889 -0.325967,0.437091 -0.696383,0.829733 -0.363008,0.385233 -0.726016,0.688974 -0.02963,-0.08149 -0.103717,-0.200025 -0.06668,-0.118533 -0.140758,-0.244474 -0.07408,-0.125942 -0.13335,-0.192617 0.325966,-0.251883 0.651933,-0.570441 0.325966,-0.318559 0.607483,-0.681567 0.288925,-0.370416 0.496358,-0.748241 z m -0.155575,-1.548341 0.6223,0.244475 q -0.22225,0.318558 -0.518583,0.644524 -0.296334,0.325967 -0.614892,0.6223 -0.318558,0.296333 -0.637116,0.525992 -0.04445,-0.07408 -0.111125,-0.162984 -0.06667,-0.09631 -0.140758,-0.192616 -0.06668,-0.09631 -0.125942,-0.155575 0.281517,-0.200025 0.570442,-0.451908 0.288924,-0.259292 0.540808,-0.540808 0.251883,-0.281517 0.414866,-0.5334 z m -0.496358,3.022598 0.585258,-0.585258 0.07408,0.03704 v 4.400548 h -0.659341 z"
             id="text5-9"
             style="font-weight:500;font-size:7.40833px;line-height:1.25;font-family:'Noto Sans JP';-inkscape-font-specification:'Noto Sans JP Medium';fill:#f9f9f9;stroke-width:0.264583"
             aria-label="文徳" />
          <path
             d="m 79.9751,29.970369 h 1.263351 v 0.239544 H 79.9751 Z m -0.05578,1.489769 h 2.930317 v 0.246107 h -2.930317 z m 0.09188,-0.984429 h 1.164908 v 0.239544 h -1.164908 z m 0.682538,2.031205 h 1.657122 v 0.239544 h -1.657122 z m -0.777699,-1.443829 q 0.170634,-0.01313 0.39049,-0.02953 0.219856,-0.01641 0.465963,-0.0361 0.249389,-0.02297 0.498777,-0.04266 v 0.239544 q -0.360957,0.0361 -0.715352,0.06891 -0.351113,0.02953 -0.62019,0.05578 z m 0.544717,-1.000836 h 0.295329 v 1.030369 l -0.295329,0.03609 z m 1.476644,-0.252671 0.337987,0.0361 q -0.04266,0.101725 -0.08532,0.196886 -0.04266,0.09516 -0.07876,0.167353 l -0.269077,-0.04266 q 0.02625,-0.08532 0.0525,-0.18376 0.02953,-0.09844 0.04266,-0.173916 z m -0.259233,0.958178 v 0.272359 h 0.748166 v -0.272359 z m 0,-0.495496 v 0.269077 h 0.748166 V 30.27226 Z M 81.39596,30.032716 h 1.328979 v 1.246943 H 81.39596 Z m -0.561125,1.47008 0.282203,0.09516 q -0.121413,0.210011 -0.29861,0.393771 -0.177197,0.18376 -0.383927,0.331425 -0.203449,0.147664 -0.416742,0.259233 -0.01641,-0.03281 -0.0525,-0.07875 -0.03281,-0.04922 -0.07219,-0.09516 -0.0361,-0.04922 -0.06891,-0.07547 0.20673,-0.0886 0.400334,-0.213293 0.193604,-0.127976 0.351113,-0.282203 0.16079,-0.154227 0.259233,-0.334706 z m -0.34455,0.452838 h 2.070582 v 0.885986 h -0.328143 v -0.646442 h -1.427422 v 0.662849 h -0.315017 z m 3.835992,-2.054176 h 0.285484 v 1.53571 h -0.285484 z m -0.462682,0.570969 h 1.158345 v 0.285485 H 83.863595 Z M 85.27461,29.92771 h 0.675974 v 0.27564 H 85.27461 Z m 0,0.777699 h 0.685819 v 0.27564 H 85.27461 Z m 0,0.790824 h 0.685819 v 0.275641 H 85.27461 Z m -1.302728,-0.18376 h 0.269077 v 1.342105 h -0.269077 z m 0.141102,0 h 0.830201 v 1.095998 h -0.830201 v -0.269077 h 0.557843 v -0.557843 h -0.557843 z m 1.027087,-1.384763 h 0.27564 v 1.328979 q 0,0.190323 -0.01641,0.403616 -0.01313,0.213293 -0.05907,0.429867 -0.04266,0.216575 -0.127975,0.416742 -0.08532,0.200167 -0.226419,0.357676 -0.02297,-0.02625 -0.06563,-0.05579 -0.04266,-0.02953 -0.0886,-0.05906 -0.04594,-0.02953 -0.07876,-0.04594 0.134539,-0.147665 0.210012,-0.324862 0.07875,-0.180479 0.11485,-0.370801 0.03938,-0.193605 0.04922,-0.383928 0.01313,-0.193604 0.01313,-0.36752 z m 0.672693,0 h 0.282203 v 2.579204 q 0,0.105006 -0.02625,0.167353 -0.02625,0.06235 -0.09844,0.09844 -0.06563,0.03281 -0.170634,0.04266 -0.105006,0.0098 -0.262515,0.0066 -0.0098,-0.0525 -0.03938,-0.131257 -0.02625,-0.07547 -0.05578,-0.127976 0.105006,0.0033 0.193604,0.0033 0.0886,0 0.121413,0 0.03281,-0.0033 0.04266,-0.01313 0.01313,-0.01313 0.01313,-0.04922 z m -2.539826,0.13782 0.170634,-0.219856 q 0.09188,0.03938 0.190323,0.09516 0.101724,0.0525 0.190323,0.111568 0.0886,0.05907 0.144383,0.11485 l -0.180479,0.242826 q -0.0525,-0.05578 -0.141101,-0.118131 -0.08532,-0.06235 -0.183761,-0.121413 -0.09844,-0.06235 -0.190322,-0.105006 z m -0.134539,0.879423 0.167353,-0.219856 q 0.09516,0.03281 0.196886,0.08532 0.101724,0.04922 0.190323,0.105005 0.09188,0.05579 0.150945,0.105006 l -0.177197,0.246107 q -0.0525,-0.04922 -0.144383,-0.108287 -0.0886,-0.05907 -0.190323,-0.11485 -0.09844,-0.05578 -0.193604,-0.09844 z m 0.05578,1.712907 q 0.06891,-0.127976 0.144383,-0.301892 0.07875,-0.177197 0.157509,-0.370801 0.07875,-0.193605 0.144383,-0.380646 l 0.246107,0.16079 q -0.05907,0.173916 -0.127976,0.357676 -0.06563,0.18376 -0.141101,0.360957 -0.07219,0.177197 -0.141102,0.334706 z m 4.456182,-1.657122 0.36752,0.09188 q -0.07547,0.190323 -0.167353,0.39049 -0.09188,0.200167 -0.190323,0.400334 -0.09516,0.196886 -0.193604,0.377365 -0.09844,0.177197 -0.187041,0.324861 l -0.288766,-0.09188 q 0.0886,-0.150946 0.180478,-0.334706 0.09516,-0.187041 0.18376,-0.387208 0.0886,-0.200168 0.164072,-0.397053 0.07875,-0.196886 0.131257,-0.374083 z m -1.053339,1.397889 q 0.2297,-0.0098 0.515185,-0.01969 0.285484,-0.0098 0.603783,-0.02297 0.32158,-0.01641 0.656286,-0.03281 0.334706,-0.01641 0.662849,-0.02953 l -0.0098,0.29861 q -0.423304,0.02625 -0.856453,0.04922 -0.433149,0.02625 -0.82692,0.04594 -0.393772,0.02297 -0.702226,0.03938 z m 1.686655,-0.675975 0.29861,-0.13782 q 0.147665,0.173916 0.295329,0.377365 0.150946,0.200167 0.278922,0.393771 0.127975,0.190323 0.210011,0.34455 l -0.318299,0.170635 q -0.07547,-0.154228 -0.200167,-0.354395 -0.124694,-0.200167 -0.272359,-0.406897 -0.147664,-0.210012 -0.292047,-0.387209 z m -0.971303,-1.827756 0.351113,0.09844 q -0.108287,0.262514 -0.255952,0.511903 -0.144383,0.249388 -0.311736,0.465963 -0.164071,0.213293 -0.337987,0.370801 -0.02953,-0.03281 -0.08532,-0.07547 -0.05578,-0.04266 -0.11485,-0.08532 -0.05578,-0.04266 -0.09844,-0.06563 0.177197,-0.144383 0.334706,-0.337988 0.16079,-0.193604 0.295329,-0.420023 0.134538,-0.226418 0.223137,-0.462681 z m 1.24038,0.0033 q 0.07547,0.154227 0.18376,0.318299 0.108288,0.16079 0.229701,0.32158 0.124694,0.157509 0.249388,0.295329 0.127976,0.13782 0.239545,0.242825 -0.03938,0.02953 -0.09188,0.07876 -0.04922,0.04594 -0.09516,0.09844 -0.04266,0.04922 -0.07547,0.09188 -0.11485,-0.121413 -0.242826,-0.278922 -0.124694,-0.157508 -0.25267,-0.331424 -0.127975,-0.177198 -0.246107,-0.357676 -0.11485,-0.180479 -0.210011,-0.354395 z m 1.719469,0.89583 h 1.893386 v 0.183761 h -1.893386 z m 0.177198,-0.351113 h 1.56196 v 0.180479 h -1.56196 z m 0.623471,-0.164071 h 0.282203 v 0.623472 h -0.282203 z m -0.03938,1.401171 h 0.27564 v 0.679256 h -0.27564 z m 0.301892,-0.05907 q 0.0886,0.11485 0.232981,0.219856 0.144383,0.101724 0.318299,0.18376 0.173916,0.07875 0.351113,0.121413 -0.03938,0.03609 -0.0886,0.09844 -0.04594,0.05907 -0.07219,0.101724 -0.18376,-0.05907 -0.364239,-0.157509 -0.177197,-0.09844 -0.328143,-0.223137 -0.150946,-0.127976 -0.25267,-0.269077 z m -0.127976,-0.111569 0.239544,0.08532 q -0.124694,0.144383 -0.301891,0.272359 -0.177197,0.124694 -0.374083,0.226419 -0.196886,0.101724 -0.39049,0.177197 -0.01969,-0.02953 -0.0525,-0.06563 -0.02953,-0.03938 -0.06235,-0.07547 -0.03281,-0.03938 -0.05907,-0.06235 0.190323,-0.05907 0.380646,-0.141101 0.190323,-0.08532 0.351113,-0.190323 0.164071,-0.105006 0.269077,-0.226419 z m 0.75801,0.08204 0.190323,0.118131 q -0.105005,0.0886 -0.232981,0.170635 -0.124695,0.07875 -0.232982,0.134538 l -0.157508,-0.108287 q 0.06891,-0.04266 0.147664,-0.09844 0.08204,-0.05578 0.157509,-0.111568 0.07547,-0.05907 0.127975,-0.105006 z m -1.24038,-0.315017 v 0.223137 h 0.994273 v -0.223137 z m -0.259233,-0.167353 h 1.529146 v 0.561124 h -1.529146 z m -0.626753,-1.164908 h 2.77609 v 2.91391 H 92.309996 V 30.22632 h -2.175589 v 2.631707 h -0.295328 z m 0.187041,2.50045 h 2.447947 V 32.72677 H 90.02612 Z"
             id="text5-9-1"
             style="font-weight:500;font-size:3.28143px;line-height:1.25;font-family:'Noto Sans JP';-inkscape-font-specification:'Noto Sans JP Medium';fill:#f9f9f9;stroke-width:0.117194"
             aria-label="碧湖公園 " />
          <path
             style="font-weight:500;font-size:3.28143px;line-height:1.25;font-family:'Noto Sans kr';-inkscape-font-specification:'Noto Sans kr Medium';fill:#f9f9f9;stroke-width:0.117194"
             d="m 97.639532,29.931944 h 0.344551 v 3.00579 h -0.344551 z m -1.962295,0.246108 h 0.341269 v 0.764573 h 0.75801 v -0.764573 h 0.341269 v 2.047612 h -1.440548 z m 0.341269,1.03365 v 0.73504 h 0.75801 v -0.73504 z m 2.651396,-0.948333 h 2.424978 v 0.272358 h -2.424978 z m -0.134539,1.614463 h 2.717027 v 0.27564 h -2.717027 z m 1.181315,0.236263 h 0.344552 v 0.820358 h -0.344552 z m 0.173916,-1.430703 q 0.469246,0 0.731756,0.131257 0.2658,0.131257 0.2658,0.377364 0,0.242826 -0.2658,0.374083 -0.26251,0.131258 -0.731756,0.131258 -0.472526,0 -0.735041,-0.131258 -0.262514,-0.131257 -0.262514,-0.374083 0,-0.246107 0.262514,-0.377364 0.265796,-0.131257 0.735041,-0.131257 z m 0,0.259233 q -0.315018,0 -0.479089,0.06235 -0.164072,0.06235 -0.164072,0.187041 0,0.121413 0.164072,0.183761 0.164071,0.06235 0.479089,0.06235 0.311736,0 0.475806,-0.06235 0.16407,-0.06235 0.16407,-0.183761 0,-0.124694 -0.16407,-0.187041 -0.16407,-0.06235 -0.475806,-0.06235 z M 99.716678,29.9221 h 0.344552 v 0.521747 h -0.344552 z m 3.179702,1.893385 q 0.32158,0 0.55785,0.06891 0.23626,0.06563 0.36424,0.190323 0.13125,0.124694 0.13125,0.29861 0,0.173916 -0.13125,0.29861 -0.12798,0.124695 -0.36424,0.190323 -0.23627,0.06563 -0.55785,0.06563 -0.32158,0 -0.55784,-0.06563 -0.23626,-0.06563 -0.36752,-0.190323 -0.12798,-0.124694 -0.12798,-0.29861 0,-0.173916 0.12798,-0.29861 0.13126,-0.124694 0.36752,-0.190323 0.23626,-0.06891 0.55784,-0.06891 z m 0,0.262515 q -0.21985,0 -0.38064,0.03281 -0.15751,0.03281 -0.24283,0.101724 -0.0853,0.06563 -0.0853,0.16079 0,0.09188 0.0853,0.157509 0.0853,0.06563 0.24283,0.101724 0.16079,0.0361 0.38064,0.0361 0.22314,0 0.38065,-0.0361 0.15751,-0.0361 0.24283,-0.101724 0.0886,-0.06563 0.0886,-0.157509 0,-0.09516 -0.0886,-0.16079 -0.0853,-0.06891 -0.24283,-0.101724 -0.15751,-0.03281 -0.38065,-0.03281 z m -1.02708,-2.001673 h 1.91635 v 0.27564 h -1.91635 z m -0.31174,1.227255 h 2.7039 v 0.27564 h -2.7039 z m 1.06318,-0.55128 h 0.34127 v 0.626753 h -0.34127 z m 0.96474,-0.675975 h 0.34127 v 0.25267 q 0,0.180479 -0.01,0.374083 -0.01,0.190323 -0.0722,0.423305 l -0.33799,-0.0361 q 0.0591,-0.232981 0.0689,-0.410179 0.01,-0.177197 0.01,-0.351113 z m 1.80807,1.381482 h 0.34127 v 0.659568 h -0.34127 z m 1.31914,-1.522583 h 0.34455 v 2.274031 h -0.34455 z m -1.75229,2.657958 h 2.16903 v 0.278922 h -2.16903 z m 0,-0.603783 h 0.34455 v 0.679256 h -0.34455 z m -0.35767,-0.416742 -0.0427,-0.278921 q 0.27564,-0.0033 0.6005,-0.0066 0.32486,-0.0066 0.66285,-0.02297 0.34127,-0.01969 0.65629,-0.05907 l 0.0263,0.246107 q -0.32158,0.0525 -0.65957,0.07875 -0.33471,0.02625 -0.65301,0.03281 -0.31829,0.0066 -0.59065,0.0098 z m 1.52258,0.118132 h 0.67269 v 0.242826 h -0.67269 z m -0.59722,-1.643997 q 0.22314,0 0.38721,0.06563 0.16735,0.06563 0.25923,0.187042 0.0952,0.118131 0.0952,0.27564 0,0.157508 -0.0952,0.278921 -0.0919,0.121413 -0.25923,0.187042 -0.16407,0.06235 -0.38721,0.06235 -0.21657,0 -0.38721,-0.06235 -0.16735,-0.06563 -0.26251,-0.187042 -0.0919,-0.121413 -0.0919,-0.278921 0,-0.157509 0.0919,-0.27564 0.0952,-0.121413 0.26251,-0.187042 0.17064,-0.06563 0.38721,-0.06563 z m 0,0.252671 q -0.18376,0 -0.30189,0.07547 -0.11485,0.07219 -0.11485,0.200168 0,0.127975 0.11485,0.203448 0.11813,0.07219 0.30189,0.07219 0.18376,0 0.29861,-0.07219 0.11485,-0.07547 0.11485,-0.203448 0,-0.08532 -0.0525,-0.144383 -0.0525,-0.06235 -0.14438,-0.09516 -0.0919,-0.03609 -0.21658,-0.03609 z"
             id="text5-9-1-0"
             aria-label="비후공원" />
          <path
             style="font-weight:500;font-size:7.40833px;line-height:1.25;font-family:'Noto Sans KR';-inkscape-font-specification:'Noto Sans KR Medium';fill:#f9f9f9;stroke-width:0.264583"
             d="m 57.751543,47.14685 h 0.770467 v 1.489075 h -0.770467 z m 2.978149,-3.437465 h 0.777875 v 5.133973 h -0.777875 z m -3.956048,6.000747 h 4.896906 v 0.629709 h -4.896906 z m 0,-1.363132 h 0.777874 v 1.533524 h -0.777874 z m -0.807508,-0.940858 -0.09631,-0.629708 q 0.622299,-0.0074 1.355724,-0.01482 0.733425,-0.01482 1.496483,-0.05186 0.770466,-0.04445 1.481666,-0.13335 l 0.05927,0.555625 q -0.726016,0.118533 -1.489074,0.1778 -0.75565,0.05927 -1.474258,0.07408 -0.718608,0.01482 -1.333499,0.02223 z m 3.437465,0.2667 h 1.518708 v 0.548216 h -1.518708 z m -1.348316,-3.711574 q 0.503766,0 0.874183,0.148167 0.377825,0.148167 0.585258,0.422275 0.214841,0.2667 0.214841,0.6223 0,0.355599 -0.214841,0.629708 -0.207433,0.274108 -0.585258,0.422274 -0.370417,0.140759 -0.874183,0.140759 -0.48895,0 -0.874183,-0.140759 -0.377825,-0.148166 -0.592666,-0.422274 -0.207434,-0.274109 -0.207434,-0.629708 0,-0.3556 0.207434,-0.6223 0.214841,-0.274108 0.592666,-0.422275 0.385233,-0.148167 0.874183,-0.148167 z m 0,0.570442 q -0.414867,0 -0.681566,0.170391 -0.259292,0.162984 -0.259292,0.451909 0,0.288924 0.259292,0.459316 0.266699,0.162983 0.681566,0.162983 0.414866,0 0.674158,-0.162983 0.259291,-0.170392 0.259291,-0.459316 0,-0.192617 -0.118533,-0.325967 -0.118533,-0.140758 -0.325966,-0.214842 -0.207434,-0.08149 -0.48895,-0.08149 z m 4.993215,3.659715 h 0.525991 q 0.6223,0 1.11125,-0.01482 0.496358,-0.02222 0.933449,-0.06668 0.4445,-0.04445 0.903817,-0.125941 l 0.08149,0.637116 q -0.474133,0.0889 -0.933449,0.13335 -0.451908,0.04445 -0.955675,0.06668 -0.503766,0.01482 -1.140883,0.01482 H 63.0485 Z m 0,-3.85974 h 3.067049 v 0.6223 h -2.296583 v 3.474506 H 63.0485 Z m 4.511673,-0.629708 h 0.777875 v 6.78603 h -0.777875 z m -1.807633,2.407707 h 2.141008 V 46.7468 H 65.75254 Z"
             id="text5-9-8"
             aria-label="원더" />
          <text
             xml:space="preserve"
             transform="matrix(0.31967577,0,0,0.31967577,-16.498784,-6.8865533)"
             id="text6"
             style="font-size:55px;line-height:1.25;font-family:'Microsoft JhengHei';-inkscape-font-specification:'Microsoft JhengHei';white-space:pre;shape-inside:url(#rect6);display:inline" />
        </g>
        <path
           id="rect2"
           style="fill:#ffffff;stroke-width:0.634253"
           d="m 79.913445,18.870537 h 0.878811 v 14.029954 h -0.878811 z" />
      </g>
    </g>
  </g>
</svg>
