<?xml version="1.0" encoding="UTF-8" standalone="no"?>
<!-- Created with Inkscape (http://www.inkscape.org/) -->

<svg
   width="500"
   height="250"
   viewBox="0 0 132.29166 66.145833"
   version="1.1"
   id="svg1"
   inkscape:version="1.3.2 (091e20e, 2023-11-25, custom)"
   sodipodi:docname="br19.svg"
   xmlns:inkscape="http://www.inkscape.org/namespaces/inkscape"
   xmlns:sodipodi="http://sodipodi.sourceforge.net/DTD/sodipodi-0.dtd"
   xmlns="http://www.w3.org/2000/svg"
   xmlns:svg="http://www.w3.org/2000/svg">
  <sodipodi:namedview
     id="namedview1"
     pagecolor="#9e652e"
     bordercolor="#ffffff"
     borderopacity="1"
     inkscape:showpageshadow="0"
     inkscape:pageopacity="0"
     inkscape:pagecheckerboard="false"
     inkscape:deskcolor="#d1d1d1"
     inkscape:document-units="mm"
     inkscape:zoom="2.0208096"
     inkscape:cx="305.81802"
     inkscape:cy="106.88785"
     inkscape:window-width="1920"
     inkscape:window-height="1009"
     inkscape:window-x="1912"
     inkscape:window-y="-8"
     inkscape:window-maximized="1"
     inkscape:current-layer="layer1" />
  <defs
     id="defs1">
    <rect
       x="560.66638"
       y="34.144731"
       width="279.32397"
       height="128.59143"
       id="rect6" />
    <rect
       x="157.85752"
       y="62.351248"
       width="329.07603"
       height="135.09437"
       id="rect4" />
    <rect
       x="157.85751"
       y="62.35125"
       width="329.07602"
       height="135.09438"
       id="rect4-5" />
  </defs>
  <g
     inkscape:label="Layer 1"
     inkscape:groupmode="layer"
     id="layer1">
    <rect
       style="fill:#9e652e;fill-opacity:1;stroke:none;stroke-width:0.953294;stroke-dasharray:none"
       id="rect5"
       width="132.29167"
       height="66.145836"
       x="-2.5431316e-06"
       y="-1.2715658e-06"
       ry="0" />
    <g
       id="g4"
       transform="translate(17.280325)">
      <g
         id="g7"
         transform="matrix(1.1949088,0,0,1.1949088,-10.727502,-6.4462012)">
        <g
           id="g5"
           transform="matrix(0.82766152,0,0,0.82766152,17.509474,5.6997351)">
          <path
             id="rect1"
             style="fill-opacity:0;stroke:#f9f9f9;stroke-width:0.953294"
             d="m 10.182676,14.144197 h 12.563615 c 3.97082,0 7.167545,3.196725 7.167545,7.167545 v 23.522352 c 0,3.970819 -3.196725,7.167544 -7.167545,7.167544 H 10.182676 c -3.97082,0 -7.167545,-3.196725 -7.167545,-7.167544 V 21.311742 c 0,-3.97082 3.196725,-7.167545 7.167545,-7.167545 z" />
          <path
             style="font-size:12.7px;line-height:1.25;font-family:'AR UDJingXiHeiE1G30 EB';-inkscape-font-specification:'AR UDJingXiHeiE1G30 EB';fill:#f9f9f9;stroke-width:0.264583"
             d="M 12.825932,30.493842 H 7.9999322 v -9.1821 h 4.4195998 q 1.3081,0 2.0701,0.635 0.762,0.635 0.762,1.6891 0,0.6858 -0.3048,1.2065 -0.2921,0.508 -0.889,0.8382 0.7747,0.3048 1.1684,0.8382 0.4064,0.5334 0.4064,1.27 0,1.2192 -0.8001,1.9685 -0.8001,0.7366 -2.0066,0.7366 z m 0.7493,-6.6548 q 0,-0.6223 -0.3556,-0.9398 -0.3556,-0.3302 -1.0287,-0.3302 H 9.6128322 v 2.5908 h 2.6669998 q 0.5715,0 0.9271,-0.3302 0.3683,-0.3429 0.3683,-0.9906 z m 0.381,3.937 q 0,-0.6604 -0.4064,-1.0033 -0.3937,-0.3556 -1.0414,-0.3556 H 9.6128322 v 2.8194 h 2.8701998 q 0.6731,0 1.0668,-0.3683 0.4064,-0.3683 0.4064,-1.0922 z m 9.042408,-3.8354 q 0,-0.6731 -0.3556,-1.016 -0.3556,-0.3556 -1.028699,-0.3556 h -2.7559 v 2.8575 h 2.667 q 0.660399,0 1.066799,-0.3937 0.4064,-0.3937 0.4064,-1.0922 z m -4.140199,2.7305 v 3.8227 h -1.6129 v -9.1821 h 4.673599 q 1.2573,0 1.9939,0.6731 0.7493,0.6604 0.7493,1.8796 0,0.8001 -0.381,1.3716 -0.3683,0.5715 -0.9271,0.8128 0.7112,0.4064 1.0922,1.4097 0.381,1.0033 0.4826,3.0353 h -1.6764 q -0.0762,-2.1336 -0.4699,-2.9718 -0.381,-0.8509 -1.231899,-0.8509 z"
             id="text2"
             aria-label="BR" />
          <path
             style="font-size:14.5521px;line-height:1.25;font-family:'AR UDJingXiHeiE1G30 EB';-inkscape-font-specification:'AR UDJingXiHeiE1G30 EB';fill:#f9f9f9;stroke-width:0.264583"
             d="m 11.502217,36.623275 -1.7025962,1.586178 -0.8440218,-1.295136 2.735795,-2.48841 h 1.586179 v 10.521169 h -1.775356 z m 9.226021,-0.931335 q -0.785814,0 -1.266033,0.55298 -0.465667,0.538428 -0.465667,1.542523 0,0.960438 0.436563,1.513418 0.451115,0.55298 1.309689,0.567532 0.814917,0 1.266033,-0.523876 0.465667,-0.538427 0.465667,-1.542522 0,-1.047752 -0.451115,-1.571627 Q 21.57226,35.69194 20.728238,35.69194 Z m 0.0291,8.003655 q 1.018647,0 1.513418,-0.844022 0.494772,-0.844021 0.494772,-2.735794 -0.363803,0.582084 -0.989543,0.887678 -0.611188,0.305594 -1.367898,0.305594 -1.484314,0 -2.371992,-0.960439 -0.887678,-0.974991 -0.887678,-2.502961 0,-1.571627 0.960439,-2.575722 0.97499,-1.018647 2.604826,-1.018647 1.935429,0 2.866763,1.266033 0.931335,1.266033 0.931335,3.754442 0,3.055941 -0.916783,4.467495 -0.916782,1.397001 -2.852211,1.397001 -1.688044,0 -2.532066,-0.82947 -0.844021,-0.844021 -0.858574,-2.008189 h 1.789909 q 0.01455,0.611188 0.422011,1.004095 0.407458,0.392906 1.193272,0.392906 z"
             id="text3"
             aria-label="19" />
          <path
             style="font-weight:500;font-size:72px;line-height:1.25;font-family:'Noto Sans TC';-inkscape-font-specification:'Noto Sans TC Medium';white-space:pre;fill:#f9f9f9"
             d="m 165.41742,90.729406 h 53.928 v 6.696 h -47.088 v 44.136004 h -6.84 z m 50.472,0 h 6.912 v 42.408004 q 0,2.952 -0.792,4.608 -0.72,1.728 -2.736,2.52 -2.016,0.864 -5.328,1.008 -3.24,0.216 -7.92,0.216 -0.072,-1.008 -0.504,-2.304 -0.36,-1.224 -0.864,-2.52 -0.504,-1.224 -0.936,-2.16 2.16,0.072 4.32,0.144 2.16,0 3.816,0 1.656,0 2.304,0 1.008,-0.072 1.368,-0.36 0.36,-0.36 0.36,-1.224 z m -37.8,-12.96 h 15.768 v 5.976 h -15.768 z m 11.232,0 h 7.344 q 0.36,7.416 1.44,13.824 1.152,6.408 3.384,11.664004 2.232,5.256 5.76,9.144 3.528,3.888 8.712,6.264 -0.72,0.648 -1.656,1.728 -0.864,1.008 -1.728,2.16 -0.864,1.08 -1.44,2.016 -5.4,-2.952 -9.144,-7.272 -3.744,-4.32 -6.192,-9.864 -2.376,-5.616 -3.6,-12.240004 -1.224,-6.696 -1.656,-14.184 h -1.224 z m 0.648,14.688 6.336,1.08 q -1.872,11.232004 -6.552,19.080004 -4.68,7.848 -13.32,12.384 -0.432,-0.792 -1.224,-1.8 -0.792,-1.08 -1.728,-2.088 -0.864,-1.008 -1.584,-1.584 7.848,-3.744 12.24,-10.512 4.392,-6.84 5.832,-16.560004 z m 68.472,-15.768 h 6.264 v 33.696004 h -6.264 z m -10.152,12.528 h 25.416 v 6.264 h -25.416 z m 30.96,-11.952 h 14.832 v 6.048 h -14.832 z m -28.584,30.384004 h 5.904 v 29.448 h -5.904 z m 3.096,0 h 18.216 v 24.048 h -18.216 v -5.904 h 12.24 v -12.24 h -12.24 z m 22.536,-30.384004 h 6.048 v 29.160004 q 0,4.176 -0.36,8.856 -0.288,4.68 -1.296,9.432 -0.936,4.752 -2.808,9.144 -1.872,4.392 -4.968,7.848 -0.504,-0.576 -1.44,-1.224 -0.936,-0.648 -1.944,-1.296 -1.008,-0.648 -1.728,-1.008 2.952,-3.24 4.608,-7.128 1.728,-3.96 2.52,-8.136 0.864,-4.248 1.08,-8.424 0.288,-4.248 0.288,-8.064 z m 14.76,0 h 6.192 v 56.592004 q 0,2.304 -0.576,3.672 -0.576,1.368 -2.16,2.16 -1.44,0.72 -3.744,0.936 -2.304,0.216 -5.76,0.144 -0.216,-1.152 -0.864,-2.88 -0.576,-1.656 -1.224,-2.808 2.304,0.072 4.248,0.072 1.944,0 2.664,0 0.72,-0.072 0.936,-0.288 0.288,-0.288 0.288,-1.08 z m -55.728,3.024 3.744,-4.824 q 2.016,0.864 4.176,2.088 2.232,1.152 4.176,2.448 1.944,1.296 3.168,2.52 l -3.96,5.328 q -1.152,-1.224 -3.096,-2.592 -1.872,-1.368 -4.032,-2.664 -2.16,-1.368 -4.176,-2.304 z m -2.952,19.296 3.672,-4.824 q 2.088,0.72 4.32,1.872 2.232,1.08 4.176,2.304 2.016,1.224004 3.312,2.304004 l -3.888,5.4 q -1.152,-1.08 -3.168,-2.376 -1.944,-1.296 -4.176,-2.52 -2.16,-1.224 -4.248,-2.160004 z m 1.224,37.584004 q 1.512,-2.808 3.168,-6.624 1.728,-3.888 3.456,-8.136 1.728,-4.248 3.168,-8.352 l 5.4,3.528 q -1.296,3.816 -2.808,7.848 -1.44,4.032 -3.096,7.92 -1.584,3.888 -3.096,7.344 z m 48.24,-21.312 q 2.088,-1.368 4.824,-3.456 2.808,-2.088 5.76,-4.392 l 1.944,3.816 q -2.52,2.448 -5.04,4.824 -2.52,2.376 -4.968,4.608 z m -0.648,-19.944004 3.6,-2.448 q 2.16,1.944 4.248,4.32 2.16,2.376004 3.312,4.104004 l -3.744,2.952 q -1.08,-1.8 -3.24,-4.32 -2.16,-2.520004 -4.176,-4.608004 z"
             id="text4"
             transform="matrix(0.26458333,0,0,0.26458333,-8.0629803,-4.4771203)"
             aria-label="內湖" />
          <path
             style="font-size:7.40833px;line-height:1.25;font-family:'AR UDJingXiHeiE1G30 EB';-inkscape-font-specification:'AR UDJingXiHeiE1G30 EB';fill:#f9f9f9;stroke-width:0.264583"
             d="m 35.875154,37.106336 v 3.867148 h -0.940858 v -5.356223 h 0.970491 l 2.629957,3.956048 v -3.956048 h 0.940858 v 5.356223 h -1.029758 z m 8.793682,3.867148 H 40.70538 v -5.356223 h 3.941231 v 0.733425 h -3.000373 v 1.511299 h 2.800348 v 0.733425 h -2.800348 v 1.644649 h 3.022598 z m 1.933578,-5.356223 v 5.356223 h -0.940857 v -5.356223 z m 2.170636,2.978149 v 2.378074 h -0.940858 v -5.356223 h 0.940858 v 2.244724 h 2.57069 v -2.244724 h 0.940858 v 5.356223 H 51.34374 V 38.59541 Z m 9.23078,0.503766 q 0,0.93345 -0.585258,1.452033 -0.585258,0.518583 -1.666875,0.518583 -1.096432,0 -1.689099,-0.511175 -0.585258,-0.511174 -0.585258,-1.452032 v -3.489324 h 0.940858 v 3.444874 q 0,0.607483 0.333375,0.940858 0.333375,0.333374 1.000124,0.333374 0.629708,0 0.963083,-0.318558 0.340783,-0.325966 0.340783,-0.970491 v -3.430057 h 0.948267 z"
             id="text5"
             aria-label="NEIHU" />
          <path
             d="m 34.966351,45.177293 h 5.548839 v 0.688975 h -4.845047 v 4.541306 h -0.703792 z m 5.19324,0 H 40.87079 V 49.5408 q 0,0.303741 -0.08149,0.474133 -0.07408,0.1778 -0.281517,0.259291 -0.207433,0.0889 -0.548216,0.103717 -0.333375,0.02222 -0.814917,0.02222 -0.0074,-0.103717 -0.05186,-0.237066 -0.03704,-0.125942 -0.0889,-0.259292 -0.05186,-0.125942 -0.09631,-0.22225 0.22225,0.0074 0.4445,0.01482 0.222249,0 0.392641,0 0.170392,0 0.237067,0 0.103716,-0.0074 0.140758,-0.03704 0.03704,-0.03704 0.03704,-0.125942 z m -3.889374,-1.333499 h 1.622425 v 0.614891 h -1.622425 z m 1.1557,0 h 0.755649 q 0.03704,0.763058 0.148167,1.422399 0.118533,0.659342 0.348192,1.20015 0.229658,0.540808 0.592666,0.940858 0.363008,0.40005 0.896408,0.644524 -0.07408,0.06668 -0.170392,0.1778 -0.0889,0.103717 -0.1778,0.22225 -0.0889,0.111125 -0.148166,0.207434 -0.555625,-0.303742 -0.940858,-0.748242 -0.385233,-0.4445 -0.637117,-1.014941 -0.244474,-0.57785 -0.370416,-1.259416 -0.125942,-0.688975 -0.170392,-1.459441 h -0.125941 z m 0.06668,1.511299 0.651933,0.111125 q -0.192617,1.1557 -0.674158,1.963208 -0.481542,0.807508 -1.370541,1.274233 -0.04445,-0.08149 -0.125942,-0.185209 -0.08149,-0.111125 -0.1778,-0.214841 -0.0889,-0.103717 -0.162983,-0.162984 0.807508,-0.385233 1.259416,-1.081616 0.451908,-0.703791 0.600075,-1.703916 z m 7.045322,-1.622424 h 0.644524 v 3.467099 h -0.644524 z m -1.044575,1.28905 h 2.61514 v 0.644524 h -2.61514 z m 3.185582,-1.229783 h 1.526116 v 0.622299 h -1.526116 z m 0,1.755774 h 1.548341 v 0.6223 h -1.548341 z m 0,1.785407 h 1.548341 v 0.6223 h -1.548341 z m -2.941107,-0.414866 h 0.607483 v 3.030007 h -0.607483 z m 0.318558,0 h 1.874308 v 2.474382 H 44.056372 V 48.78515 h 1.259416 v -1.259416 h -1.259416 z m 2.318807,-3.126315 h 0.6223 v 3.000373 q 0,0.429684 -0.03704,0.911225 -0.02963,0.481541 -0.13335,0.970491 -0.09631,0.48895 -0.288924,0.940858 -0.192617,0.451908 -0.511175,0.807508 -0.05186,-0.05927 -0.148167,-0.125942 -0.09631,-0.06668 -0.200025,-0.133349 -0.103716,-0.06667 -0.1778,-0.103717 0.303742,-0.333375 0.474134,-0.733425 0.177799,-0.407458 0.259291,-0.837141 0.0889,-0.437092 0.111125,-0.866775 0.02963,-0.437091 0.02963,-0.829733 z m 1.518708,0 h 0.637116 v 5.822947 q 0,0.237067 -0.05927,0.377825 -0.05927,0.140758 -0.22225,0.22225 -0.148167,0.07408 -0.385233,0.09631 -0.237067,0.02222 -0.592667,0.01482 -0.02222,-0.118533 -0.0889,-0.296333 -0.05927,-0.170392 -0.125941,-0.288925 0.237066,0.0074 0.437091,0.0074 0.200025,0 0.274108,0 0.07408,-0.0074 0.09631,-0.02963 0.02963,-0.02963 0.02963,-0.111125 z m -5.734047,0.31115 0.385233,-0.496358 q 0.207433,0.0889 0.429683,0.214841 0.229658,0.118533 0.429683,0.251883 0.200025,0.13335 0.325967,0.259292 l -0.407459,0.548216 q -0.118533,-0.125941 -0.318558,-0.2667 -0.192616,-0.140758 -0.414866,-0.274108 -0.22225,-0.140758 -0.429683,-0.237066 z m -0.303742,1.985432 0.377825,-0.496358 q 0.214841,0.07408 0.4445,0.192617 0.229658,0.111124 0.429683,0.237066 0.207433,0.125942 0.340783,0.237067 l -0.40005,0.555624 Q 42.930306,46.703409 42.722873,46.570059 42.522848,46.43671 42.29319,46.310768 42.07094,46.184826 41.856098,46.088518 Z m 0.125942,3.867148 q 0.155575,-0.288925 0.325966,-0.681566 0.1778,-0.40005 0.3556,-0.837141 0.1778,-0.437092 0.325967,-0.859367 l 0.555624,0.363009 q -0.13335,0.392641 -0.288925,0.807507 -0.148166,0.414867 -0.318558,0.814917 -0.162983,0.40005 -0.318558,0.755649 z"
             id="text5-9"
             style="font-weight:500;font-size:7.40833px;line-height:1.25;font-family:'Noto Sans JP';-inkscape-font-specification:'Noto Sans JP Medium';fill:#f9f9f9;stroke-width:0.264583"
             aria-label="內湖" />
          <path
             style="font-weight:500;font-size:7.40833px;line-height:1.25;font-family:'Noto Sans KR';-inkscape-font-specification:'Noto Sans KR Medium';fill:#f9f9f9;stroke-width:0.264583"
             d="m 56.195794,44.39836 h 0.763058 V 48.347 h -0.763058 z m 0,3.741207 h 0.451908 q 0.600075,0 1.1557,-0.03704 0.555624,-0.03704 1.177924,-0.162983 l 0.09631,0.651933 q -0.637116,0.13335 -1.222374,0.1778 -0.57785,0.03704 -1.207558,0.03704 h -0.451908 z m 4.74874,-4.43759 h 0.740833 v 6.771213 h -0.740833 z m -2.867024,2.215091 h 1.622424 v 0.637116 H 58.07751 Z m 1.429808,-2.074333 h 0.733424 v 6.304489 h -0.733424 z m 8.000997,-0.140758 h 0.777874 v 6.78603 h -0.777874 z m -2.822574,0.496358 q 0.503766,0 0.896408,0.296333 0.40005,0.296333 0.6223,0.829733 0.222249,0.5334 0.222249,1.259416 0,0.733425 -0.222249,1.274233 -0.22225,0.5334 -0.6223,0.829733 -0.392642,0.288925 -0.896408,0.288925 -0.503767,0 -0.903816,-0.288925 -0.392642,-0.296333 -0.6223,-0.829733 -0.22225,-0.540808 -0.22225,-1.274233 0,-0.726016 0.22225,-1.259416 0.229658,-0.5334 0.6223,-0.829733 0.400049,-0.296333 0.903816,-0.296333 z m 0,0.703791 q -0.296333,0 -0.525992,0.200025 -0.222249,0.200025 -0.348191,0.57785 -0.125942,0.377825 -0.125942,0.903816 0,0.5334 0.125942,0.911225 0.125942,0.377825 0.348191,0.585258 0.229659,0.200025 0.525992,0.200025 0.296333,0 0.518583,-0.200025 0.22225,-0.207433 0.348192,-0.585258 0.125941,-0.377825 0.125941,-0.911225 0,-0.525991 -0.125941,-0.903816 -0.125942,-0.377825 -0.348192,-0.57785 -0.22225,-0.200025 -0.518583,-0.200025 z m 5.14879,-0.451908 h 5.474756 v 0.614892 h -5.474756 z m -0.303742,3.644899 h 6.134098 v 0.622299 h -6.134098 z m 2.666999,0.533399 h 0.777875 v 1.852083 h -0.777875 z m 0.392642,-3.230032 q 1.059391,0 1.652057,0.296334 0.600075,0.296333 0.600075,0.851958 0,0.548216 -0.600075,0.844549 -0.592666,0.296333 -1.652057,0.296333 -1.0668,0 -1.659466,-0.296333 -0.592667,-0.296333 -0.592667,-0.844549 0,-0.555625 0.592667,-0.851958 0.600075,-0.296334 1.659466,-0.296334 z m 0,0.585258 q -0.7112,0 -1.081616,0.140759 -0.370417,0.140758 -0.370417,0.422275 0,0.274108 0.370417,0.414866 0.370416,0.140758 1.081616,0.140758 0.703791,0 1.074208,-0.140758 0.370416,-0.140758 0.370416,-0.414866 0,-0.281517 -0.370416,-0.422275 -0.370417,-0.140759 -1.074208,-0.140759 z m -0.392642,-2.30399 h 0.777875 v 1.177924 h -0.777875 z"
             id="text5-9-8"
             aria-label="네이후" />
          <text
             xml:space="preserve"
             transform="matrix(0.31967577,0,0,0.31967577,-16.498784,-6.8865533)"
             id="text6"
             style="font-size:55px;line-height:1.25;font-family:'Microsoft JhengHei';-inkscape-font-specification:'Microsoft JhengHei';white-space:pre;shape-inside:url(#rect6);display:inline" />
        </g>
      </g>
    </g>
  </g>
</svg>
