<?xml version="1.0" encoding="UTF-8" standalone="no"?>
<!-- Created with Inkscape (http://www.inkscape.org/) -->

<svg
   width="500"
   height="250"
   viewBox="0 0 132.29166 66.145833"
   version="1.1"
   id="svg1"
   inkscape:version="1.3.2 (091e20e, 2023-11-25, custom)"
   sodipodi:docname="br20.svg"
   xmlns:inkscape="http://www.inkscape.org/namespaces/inkscape"
   xmlns:sodipodi="http://sodipodi.sourceforge.net/DTD/sodipodi-0.dtd"
   xmlns="http://www.w3.org/2000/svg"
   xmlns:svg="http://www.w3.org/2000/svg">
  <sodipodi:namedview
     id="namedview1"
     pagecolor="#9e652e"
     bordercolor="#ffffff"
     borderopacity="1"
     inkscape:showpageshadow="0"
     inkscape:pageopacity="0"
     inkscape:pagecheckerboard="false"
     inkscape:deskcolor="#d1d1d1"
     inkscape:document-units="mm"
     inkscape:zoom="2.0208096"
     inkscape:cx="305.81802"
     inkscape:cy="106.88785"
     inkscape:window-width="1920"
     inkscape:window-height="1009"
     inkscape:window-x="1912"
     inkscape:window-y="-8"
     inkscape:window-maximized="1"
     inkscape:current-layer="layer1" />
  <defs
     id="defs1">
    <rect
       x="560.66638"
       y="34.144731"
       width="279.32397"
       height="128.59143"
       id="rect6" />
    <rect
       x="157.85752"
       y="62.351248"
       width="329.07603"
       height="135.09437"
       id="rect4" />
    <rect
       x="157.85751"
       y="62.35125"
       width="329.07602"
       height="135.09438"
       id="rect4-5" />
  </defs>
  <g
     inkscape:label="Layer 1"
     inkscape:groupmode="layer"
     id="layer1">
    <rect
       style="fill:#9e652e;fill-opacity:1;stroke:none;stroke-width:0.953294;stroke-dasharray:none"
       id="rect5"
       width="132.29167"
       height="66.145836"
       x="-2.5431316e-06"
       y="-1.2715658e-06"
       ry="0" />
    <g
       id="g4"
       transform="translate(1.0750341)">
      <g
         id="g7"
         transform="matrix(1.1949088,0,0,1.1949088,-10.727502,-6.4462012)">
        <g
           id="g5"
           transform="matrix(0.82766152,0,0,0.82766152,17.509474,5.6997351)">
          <path
             id="rect1"
             style="fill-opacity:0;stroke:#f9f9f9;stroke-width:0.953294"
             d="m 10.182676,14.144197 h 12.563615 c 3.97082,0 7.167545,3.196725 7.167545,7.167545 v 23.522352 c 0,3.970819 -3.196725,7.167544 -7.167545,7.167544 H 10.182676 c -3.97082,0 -7.167545,-3.196725 -7.167545,-7.167544 V 21.311742 c 0,-3.97082 3.196725,-7.167545 7.167545,-7.167545 z" />
          <path
             style="font-size:12.7px;line-height:1.25;font-family:'AR UDJingXiHeiE1G30 EB';-inkscape-font-specification:'AR UDJingXiHeiE1G30 EB';fill:#f9f9f9;stroke-width:0.264583"
             d="M 12.825932,30.493842 H 7.9999322 v -9.1821 h 4.4195998 q 1.3081,0 2.0701,0.635 0.762,0.635 0.762,1.6891 0,0.6858 -0.3048,1.2065 -0.2921,0.508 -0.889,0.8382 0.7747,0.3048 1.1684,0.8382 0.4064,0.5334 0.4064,1.27 0,1.2192 -0.8001,1.9685 -0.8001,0.7366 -2.0066,0.7366 z m 0.7493,-6.6548 q 0,-0.6223 -0.3556,-0.9398 -0.3556,-0.3302 -1.0287,-0.3302 H 9.6128322 v 2.5908 h 2.6669998 q 0.5715,0 0.9271,-0.3302 0.3683,-0.3429 0.3683,-0.9906 z m 0.381,3.937 q 0,-0.6604 -0.4064,-1.0033 -0.3937,-0.3556 -1.0414,-0.3556 H 9.6128322 v 2.8194 h 2.8701998 q 0.6731,0 1.0668,-0.3683 0.4064,-0.3683 0.4064,-1.0922 z m 9.042408,-3.8354 q 0,-0.6731 -0.3556,-1.016 -0.3556,-0.3556 -1.028699,-0.3556 h -2.7559 v 2.8575 h 2.667 q 0.660399,0 1.066799,-0.3937 0.4064,-0.3937 0.4064,-1.0922 z m -4.140199,2.7305 v 3.8227 h -1.6129 v -9.1821 h 4.673599 q 1.2573,0 1.9939,0.6731 0.7493,0.6604 0.7493,1.8796 0,0.8001 -0.381,1.3716 -0.3683,0.5715 -0.9271,0.8128 0.7112,0.4064 1.0922,1.4097 0.381,1.0033 0.4826,3.0353 h -1.6764 q -0.0762,-2.1336 -0.4699,-2.9718 -0.381,-0.8509 -1.231899,-0.8509 z"
             id="text2"
             aria-label="BR" />
          <path
             style="font-size:14.5521px;line-height:1.25;font-family:'AR UDJingXiHeiE1G30 EB';-inkscape-font-specification:'AR UDJingXiHeiE1G30 EB';fill:#f9f9f9;stroke-width:0.264583"
             d="m 8.6791091,37.758338 q 0,-1.629835 0.9895428,-2.561169 0.9895431,-0.945887 2.5902741,-0.945887 1.644387,0 2.561169,0.82947 0.931335,0.814918 0.931335,2.270128 0,1.033199 -0.669397,2.08095 -0.654844,1.033199 -2.066398,2.28468 l -1.979086,1.789908 h 4.685777 v 1.440658 H 8.6354528 v -1.324241 l 2.9395242,-2.648482 q 1.295137,-1.178721 1.80446,-2.00819 0.523876,-0.844022 0.523876,-1.615283 0,-0.727605 -0.422011,-1.178721 -0.422011,-0.451115 -1.222376,-0.451115 -0.800366,0 -1.295137,0.55298 -0.494772,0.55298 -0.494772,1.484314 z m 15.8035709,2.00819 q 0,2.750347 -0.887679,4.060036 -0.887678,1.309689 -2.750347,1.309689 -1.80446,0 -2.735794,-1.309689 -0.931335,-1.309689 -0.931335,-4.060036 0,-2.939524 0.887678,-4.220109 0.887678,-1.295137 2.779451,-1.295137 1.848117,0 2.735795,1.295137 0.902231,1.280585 0.902231,4.220109 z m -3.638026,3.929067 q 0.931335,0 1.367898,-0.916782 0.436563,-0.931334 0.436563,-3.012285 0,-2.241023 -0.422011,-3.157806 -0.407459,-0.916782 -1.38245,-0.916782 -0.97499,0 -1.397001,0.931335 -0.422011,0.916782 -0.422011,3.143253 0,2.066398 0.436563,2.997733 0.436563,0.931334 1.382449,0.931334 z"
             id="text3"
             aria-label="20" />
          <path
             style="font-weight:500;font-size:72px;line-height:1.25;font-family:'Noto Sans TC';-inkscape-font-specification:'Noto Sans TC Medium';white-space:pre;fill:#f9f9f9"
             d="m 162.17742,94.761406 h 63.648 v 7.056004 h -63.648 z m 35.856,2.808 q 2.304,8.496004 6.192,15.840004 3.96,7.344 9.648,12.888 5.76,5.472 13.32,8.64 -0.864,0.72 -1.872,1.872 -0.936,1.152 -1.8,2.304 -0.864,1.224 -1.44,2.16 -7.992,-3.744 -13.968,-9.864 -5.904,-6.192 -10.008,-14.328 -4.104,-8.136 -6.912,-17.856004 z m -7.92,-22.896 h 7.416 q 0,5.112 -0.288,11.016 -0.216,5.832 -1.08,12.024 -0.864,6.192004 -2.808,12.384004 -1.944,6.192 -5.4,11.952 -3.456,5.76 -8.856,10.728 -5.4,4.896 -13.176,8.568 -0.864,-1.368 -2.304,-3.024 -1.44,-1.584 -2.88,-2.664 7.488,-3.384 12.6,-7.848 5.184,-4.536 8.352,-9.792 3.24,-5.328 4.968,-11.016 1.728,-5.688 2.448,-11.376004 0.72,-5.688 0.864,-11.016 0.144,-5.328 0.144,-9.936 z m 68.328,2.016 h 6.264 v 33.696004 h -6.264 z m -10.152,12.528 h 25.416 v 6.264 h -25.416 z m 30.96,-11.952 h 14.832 v 6.048 h -14.832 z m -28.584,30.384004 h 5.904 v 29.448 h -5.904 z m 3.096,0 h 18.216 v 24.048 h -18.216 v -5.904 h 12.24 v -12.24 h -12.24 z m 22.536,-30.384004 h 6.048 v 29.160004 q 0,4.176 -0.36,8.856 -0.288,4.68 -1.296,9.432 -0.936,4.752 -2.808,9.144 -1.872,4.392 -4.968,7.848 -0.504,-0.576 -1.44,-1.224 -0.936,-0.648 -1.944,-1.296 -1.008,-0.648 -1.728,-1.008 2.952,-3.24 4.608,-7.128 1.728,-3.96 2.52,-8.136 0.864,-4.248 1.08,-8.424 0.288,-4.248 0.288,-8.064 z m 14.76,0 h 6.192 v 56.592004 q 0,2.304 -0.576,3.672 -0.576,1.368 -2.16,2.16 -1.44,0.72 -3.744,0.936 -2.304,0.216 -5.76,0.144 -0.216,-1.152 -0.864,-2.88 -0.576,-1.656 -1.224,-2.808 2.304,0.072 4.248,0.072 1.944,0 2.664,0 0.72,-0.072 0.936,-0.288 0.288,-0.288 0.288,-1.08 z m -55.728,3.024 3.744,-4.824 q 2.016,0.864 4.176,2.088 2.232,1.152 4.176,2.448 1.944,1.296 3.168,2.52 l -3.96,5.328 q -1.152,-1.224 -3.096,-2.592 -1.872,-1.368 -4.032,-2.664 -2.16,-1.368 -4.176,-2.304 z m -2.952,19.296 3.672,-4.824 q 2.088,0.72 4.32,1.872 2.232,1.08 4.176,2.304 2.016,1.224004 3.312,2.304004 l -3.888,5.4 q -1.152,-1.08 -3.168,-2.376 -1.944,-1.296 -4.176,-2.52 -2.16,-1.224 -4.248,-2.160004 z m 1.224,37.584004 q 1.512,-2.808 3.168,-6.624 1.728,-3.888 3.456,-8.136 1.728,-4.248 3.168,-8.352 l 5.4,3.528 q -1.296,3.816 -2.808,7.848 -1.44,4.032 -3.096,7.92 -1.584,3.888 -3.096,7.344 z m 48.24,-21.312 q 2.088,-1.368 4.824,-3.456 2.808,-2.088 5.76,-4.392 l 1.944,3.816 q -2.52,2.448 -5.04,4.824 -2.52,2.376 -4.968,4.608 z m -0.648,-19.944004 3.6,-2.448 q 2.16,1.944 4.248,4.32 2.16,2.376004 3.312,4.104004 l -3.744,2.952 q -1.08,-1.8 -3.24,-4.32 -2.16,-2.520004 -4.176,-4.608004 z m 64.08,19.944004 6.552,-2.952 q 2.952,3.888 6.048,8.352 3.096,4.464 5.76,8.712 2.664,4.248 4.392,7.56 l -6.912,3.744 q -1.656,-3.384 -4.32,-7.776 -2.592,-4.464 -5.688,-9.072 -3.024,-4.608 -5.832,-8.568 z m -21.312,-39.312004 7.56,2.376 q -2.592,5.976 -6.12,11.736 -3.456,5.76 -7.416,10.800004 -3.888,4.968 -7.92,8.712 -0.576,-0.792 -1.728,-1.872 -1.08,-1.08 -2.232,-2.088 -1.152,-1.08 -2.088,-1.728 3.96,-3.312 7.704,-7.776004 3.744,-4.464 6.84,-9.648 3.168,-5.184 5.4,-10.512 z m -10.656,61.848004 q -0.288,-0.792 -0.792,-2.16 -0.432,-1.296 -0.936,-2.736 -0.504,-1.44 -1.08,-2.448 1.656,-0.432 3.24,-1.944 1.584,-1.584 3.744,-4.104 1.152,-1.224 3.24,-3.96 2.16,-2.808 4.752,-6.696 2.592,-3.888 5.256,-8.352 2.664,-4.464 4.824,-9.000004 l 7.848,3.312004 q -3.528,6.264 -7.632,12.456 -4.104,6.12 -8.496,11.664 -4.32,5.472 -8.64,9.864 v 0.216 q 0,0 -0.864,0.432 -0.792,0.36 -1.872,0.936 -1.008,0.576 -1.8,1.224 -0.792,0.72 -0.792,1.296 z m 0,0 -0.216,-5.76 4.752,-2.664 41.976,-2.52 q 0.216,1.584 0.648,3.456 0.504,1.872 0.864,3.024 -10.08,0.72 -17.352,1.296 -7.272,0.504 -12.312,0.864 -4.968,0.432 -8.208,0.72 -3.24,0.288 -5.184,0.504 -1.944,0.288 -3.096,0.504 -1.08,0.216 -1.872,0.576 z m 31.968,-61.992004 h 8.064 q 1.656,5.472 4.464,10.656 2.808,5.112 6.48,9.36 3.672,4.248004 7.992,6.984004 -0.792,0.72 -1.8,1.944 -1.008,1.152 -1.944,2.448 -0.864,1.224 -1.512,2.304 -4.464,-3.456 -8.352,-8.208 -3.888,-4.824004 -6.912,-10.368004 -2.952,-5.544 -4.824,-11.232 h -1.656 z m -9.792,0 h 15.48 v 7.056 h -15.48 z m 53.424,19.872 h 41.544 v 4.032004 h -41.544 z m 3.888,-7.704 h 34.272 v 3.96 h -34.272 z m 13.68,-3.6 h 6.192 v 13.68 h -6.192 z m -0.216,25.992004 4.68,1.728 q -2.376,2.088 -5.832,3.96 -3.456,1.8 -7.272,3.312 -3.744,1.44 -7.344,2.448 -0.288,-0.504 -0.936,-1.152 -0.576,-0.72 -1.224,-1.44 -0.648,-0.792 -1.224,-1.224 3.528,-0.864 7.128,-1.944 3.6,-1.152 6.768,-2.592 3.168,-1.44 5.256,-3.096 z m 20.232,3.6 4.248,2.664 q -2.376,1.728 -5.112,3.24 -2.736,1.512 -5.112,2.592 l -3.456,-2.376 q 1.512,-0.792 3.24,-1.872 1.8,-1.08 3.384,-2.16 1.656,-1.152 2.808,-2.088 z m -27.648,-8.568 v 4.104 h 21.816 v -4.104 z m -5.688,-3.312 h 33.552 v 10.656 h -33.552 z m -13.752,-25.056004 h 60.912 v 63.936004 h -6.696 V 83.817406 h -47.736 v 57.744004 h -6.48 z m 4.104,54.864004 h 53.712 v 6.192 h -53.712 z m 24.552,-15.624 4.176,-2.376 q 3.096,1.728 6.624,4.032 3.528,2.304 6.768,4.608 3.24,2.232 5.4,4.032 l -4.464,2.808 q -1.944,-1.8 -5.112,-4.104 -3.096,-2.376 -6.624,-4.68 -3.528,-2.376 -6.768,-4.32 z m -11.592,15.192 -0.288,-3.888 2.16,-1.8 14.112,-3.312 q -0.072,1.008 -0.072,2.232 0,1.224 0.072,2.016 -4.824,1.224 -7.848,2.088 -2.952,0.792 -4.608,1.296 -1.656,0.504 -2.376,0.864 -0.72,0.288 -1.152,0.504 z m 0,0 q -0.216,-0.864 -0.792,-2.016 -0.504,-1.224 -0.936,-1.8 0.792,-0.36 1.656,-1.152 0.936,-0.864 0.936,-2.808 v -8.136 h 5.04 v 11.88 q 0,0 -0.936,0.432 -0.864,0.36 -2.016,1.008 -1.152,0.576 -2.088,1.296 -0.864,0.648 -0.864,1.296 z"
             id="text4"
             transform="matrix(0.26458333,0,0,0.26458333,-8.0629803,-4.4771203)"
             aria-label="大湖公園" />
          <path
             style="font-size:7.40833px;line-height:1.25;font-family:'AR UDJingXiHeiE1G30 EB';-inkscape-font-specification:'AR UDJingXiHeiE1G30 EB';fill:#f9f9f9;stroke-width:0.264583"
             d="m 39.497827,38.232402 q 0,1.333499 -0.629708,2.037291 -0.6223,0.703791 -1.740957,0.703791 h -2.192866 v -5.356223 h 2.192866 q 1.118657,0 1.740957,0.659342 0.629708,0.659341 0.629708,1.955799 z m -0.977899,0 q 0,-0.970491 -0.40005,-1.4224 -0.392642,-0.459316 -1.148291,-0.459316 h -1.096433 v 3.889373 h 1.103841 q 0.726016,0 1.133475,-0.481541 0.407458,-0.481542 0.407458,-1.526116 z m 4.859858,0.57785 -0.84455,-2.289174 -0.859366,2.289174 z m -1.978024,0.733424 -0.5334,1.429808 h -0.955675 l 2.155824,-5.356223 h 0.963083 l 2.141008,5.356223 h -0.9779 l -0.540808,-1.429808 z m 5.326582,-0.948266 v 2.378074 h -0.940858 v -5.356223 h 0.940858 v 2.244724 h 2.570691 v -2.244724 h 0.940858 v 5.356223 H 49.299035 V 38.59541 Z m 9.230781,0.503766 q 0,0.93345 -0.585258,1.452033 -0.585258,0.518583 -1.666874,0.518583 -1.096433,0 -1.689099,-0.511175 -0.585258,-0.511174 -0.585258,-1.452032 v -3.489324 h 0.940858 v 3.444874 q 0,0.607483 0.333374,0.940858 0.333375,0.333374 1.000125,0.333374 0.629708,0 0.963083,-0.318558 0.340783,-0.325966 0.340783,-0.970491 v -3.430057 h 0.948266 z M 60.0337,38.847293 v 2.126191 h -0.940858 v -5.356223 h 2.518833 q 0.785283,0 1.229782,0.429683 0.4445,0.429684 0.4445,1.140883 0,0.8001 -0.459316,1.229783 -0.451908,0.429683 -1.222375,0.429683 z m 2.296583,-1.644649 q 0,-0.414867 -0.237067,-0.629708 -0.237066,-0.22225 -0.696383,-0.22225 H 60.0337 v 1.763182 h 1.363133 q 0.459317,0 0.696383,-0.222249 0.237067,-0.229659 0.237067,-0.688975 z m 4.711696,1.607608 -0.84455,-2.289174 -0.859366,2.289174 z m -1.978024,0.733424 -0.5334,1.429808 h -0.955674 l 2.155824,-5.356223 h 0.963083 l 2.141007,5.356223 h -0.9779 l -0.540808,-1.429808 z m 7.741699,-2.39289 q 0,-0.392642 -0.207433,-0.592667 -0.207433,-0.207433 -0.600075,-0.207433 h -1.607607 v 1.666874 h 1.555749 q 0.385233,0 0.6223,-0.229658 0.237066,-0.229658 0.237066,-0.637116 z m -2.415115,1.592791 v 2.229907 h -0.940858 v -5.356223 h 2.726265 q 0.733425,0 1.163108,0.392642 0.437091,0.385233 0.437091,1.096433 0,0.466724 -0.22225,0.800099 -0.214841,0.333375 -0.540808,0.474133 0.414867,0.237067 0.637117,0.822325 0.22225,0.585258 0.281516,1.770591 h -0.977899 q -0.04445,-1.2446 -0.274108,-1.733549 -0.22225,-0.496358 -0.718608,-0.496358 z m 5.415496,0.385233 v 1.844674 h -0.940858 v -5.356223 h 0.940858 v 2.422524 l 2.348441,-2.422524 h 1.148291 l -2.163232,2.170641 2.244724,3.185582 h -1.140883 l -1.733549,-2.570691 z"
             id="text5"
             aria-label="DAHU PARK" />
          <path
             d="m 34.632976,45.59216 h 6.548964 v 0.726016 h -6.548964 z m 3.689349,0.288925 q 0.237066,0.874183 0.637116,1.629832 0.407458,0.75565 0.992716,1.326091 0.592667,0.563034 1.370541,0.889 -0.0889,0.07408 -0.192616,0.192617 -0.09631,0.118533 -0.185209,0.237066 -0.0889,0.125942 -0.148166,0.22225 -0.822325,-0.385233 -1.437216,-1.014941 -0.607483,-0.637116 -1.029758,-1.474258 -0.422275,-0.837141 -0.7112,-1.837266 z m -0.814917,-2.355849 h 0.763058 q 0,0.525991 -0.02963,1.133474 -0.02222,0.600075 -0.111125,1.237191 -0.0889,0.637117 -0.288925,1.274233 -0.200025,0.637117 -0.555625,1.229783 -0.355599,0.592666 -0.911224,1.103841 -0.555625,0.503767 -1.355724,0.881591 -0.0889,-0.140758 -0.237067,-0.311149 -0.148167,-0.162984 -0.296333,-0.274109 0.770466,-0.348191 1.296458,-0.807508 0.533399,-0.466724 0.859366,-1.007532 0.333375,-0.548217 0.511175,-1.133475 0.177799,-0.585258 0.251883,-1.170516 0.07408,-0.585258 0.0889,-1.133475 0.01482,-0.548216 0.01482,-1.022349 z m 7.030506,0.207433 h 0.644524 v 3.467099 h -0.644524 z m -1.044575,1.28905 h 2.61514 v 0.644524 h -2.61514 z m 3.185582,-1.229783 h 1.526116 v 0.622299 h -1.526116 z m 0,1.755774 h 1.548341 v 0.6223 h -1.548341 z m 0,1.785407 h 1.548341 v 0.6223 h -1.548341 z m -2.941107,-0.414866 h 0.607483 v 3.030007 h -0.607483 z m 0.318558,0 h 1.874308 v 2.474382 H 44.056372 V 48.78515 h 1.259416 v -1.259416 h -1.259416 z m 2.318807,-3.126315 h 0.6223 v 3.000373 q 0,0.429684 -0.03704,0.911225 -0.02963,0.481541 -0.13335,0.970491 -0.09631,0.48895 -0.288924,0.940858 -0.192617,0.451908 -0.511175,0.807508 -0.05186,-0.05927 -0.148167,-0.125942 -0.09631,-0.06668 -0.200025,-0.133349 -0.103716,-0.06667 -0.1778,-0.103717 0.303742,-0.333375 0.474134,-0.733425 0.177799,-0.407458 0.259291,-0.837141 0.0889,-0.437092 0.111125,-0.866775 0.02963,-0.437091 0.02963,-0.829733 z m 1.518708,0 h 0.637116 v 5.822947 q 0,0.237067 -0.05927,0.377825 -0.05927,0.140758 -0.22225,0.22225 -0.148167,0.07408 -0.385233,0.09631 -0.237067,0.02222 -0.592667,0.01482 -0.02222,-0.118533 -0.0889,-0.296333 -0.05927,-0.170392 -0.125941,-0.288925 0.237066,0.0074 0.437091,0.0074 0.200025,0 0.274108,0 0.07408,-0.0074 0.09631,-0.02963 0.02963,-0.02963 0.02963,-0.111125 z m -5.734047,0.31115 0.385233,-0.496358 q 0.207433,0.0889 0.429683,0.214841 0.229658,0.118533 0.429683,0.251883 0.200025,0.13335 0.325967,0.259292 l -0.407459,0.548216 q -0.118533,-0.125941 -0.318558,-0.2667 -0.192616,-0.140758 -0.414866,-0.274108 -0.22225,-0.140758 -0.429683,-0.237066 z m -0.303742,1.985432 0.377825,-0.496358 q 0.214841,0.07408 0.4445,0.192617 0.229658,0.111124 0.429683,0.237066 0.207433,0.125942 0.340783,0.237067 l -0.40005,0.555624 Q 42.930306,46.703409 42.722873,46.570059 42.522848,46.43671 42.29319,46.310768 42.07094,46.184826 41.856098,46.088518 Z m 0.125942,3.867148 q 0.155575,-0.288925 0.325966,-0.681566 0.1778,-0.40005 0.3556,-0.837141 0.1778,-0.437092 0.325967,-0.859367 l 0.555624,0.363009 q -0.13335,0.392641 -0.288925,0.807507 -0.148166,0.414867 -0.318558,0.814917 -0.162983,0.40005 -0.318558,0.755649 z m 10.060512,-3.741206 0.829733,0.207433 q -0.170392,0.429683 -0.377825,0.881591 -0.207433,0.451908 -0.429683,0.903816 -0.214842,0.4445 -0.437092,0.851958 -0.22225,0.40005 -0.422275,0.733425 L 50.553477,49.58525 q 0.200025,-0.340783 0.407459,-0.75565 0.214841,-0.422275 0.414866,-0.874183 0.200025,-0.451908 0.370417,-0.896408 0.177799,-0.4445 0.296333,-0.844549 z m -2.378074,3.155948 q 0.518583,-0.02222 1.163108,-0.04445 0.644524,-0.02222 1.363132,-0.05186 0.726017,-0.03704 1.481666,-0.07408 0.75565,-0.03704 1.496483,-0.06668 l -0.02222,0.674158 q -0.955675,0.05927 -1.933574,0.111125 -0.9779,0.05927 -1.866899,0.103716 -0.889,0.05186 -1.585383,0.0889 z m 3.807881,-1.526116 0.674158,-0.31115 q 0.333375,0.392642 0.66675,0.851958 0.340783,0.451908 0.629708,0.889 0.288925,0.429683 0.474133,0.777875 L 55.1985,50.437208 q -0.170391,-0.348192 -0.451908,-0.8001 -0.281516,-0.451908 -0.614891,-0.918633 -0.333375,-0.474133 -0.659342,-0.874183 z m -2.192865,-4.12644 0.792691,0.22225 q -0.244475,0.592667 -0.57785,1.1557 -0.325966,0.563033 -0.703791,1.051983 -0.370416,0.481541 -0.763058,0.837141 -0.06668,-0.07408 -0.192617,-0.170392 -0.125941,-0.09631 -0.259291,-0.192616 -0.125942,-0.09631 -0.22225,-0.148167 0.40005,-0.325966 0.75565,-0.763058 0.363008,-0.437091 0.666749,-0.948266 0.303742,-0.511175 0.503767,-1.044575 z m 2.800349,0.0074 q 0.170391,0.348191 0.414866,0.718608 0.244475,0.363008 0.518583,0.726016 0.281517,0.3556 0.563033,0.66675 0.288925,0.31115 0.540808,0.548216 -0.0889,0.06668 -0.207433,0.1778 -0.111125,0.103717 -0.214842,0.22225 -0.09631,0.111125 -0.170391,0.207433 -0.259292,-0.274108 -0.548217,-0.629708 -0.281516,-0.3556 -0.570441,-0.748241 -0.288925,-0.40005 -0.555625,-0.807508 -0.259291,-0.407458 -0.474133,-0.8001 z m 3.881965,2.022474 h 4.274607 v 0.414866 h -4.274607 z m 0.40005,-0.792691 h 3.526365 v 0.407458 h -3.526365 z m 1.407583,-0.370417 h 0.637116 v 1.407583 h -0.637116 z m -0.0889,3.163357 h 0.6223 v 1.533524 h -0.6223 z m 0.681566,-0.13335 q 0.200025,0.259292 0.525992,0.496358 0.325966,0.229658 0.718608,0.414867 0.392641,0.1778 0.792691,0.274108 -0.0889,0.08149 -0.200025,0.22225 -0.103717,0.13335 -0.162983,0.229658 -0.414867,-0.13335 -0.822325,-0.3556 -0.40005,-0.22225 -0.740833,-0.503766 -0.340783,-0.288925 -0.570441,-0.607483 z m -0.288925,-0.251883 0.540808,0.192616 q -0.281516,0.325967 -0.681566,0.614892 -0.40005,0.281516 -0.844549,0.511175 -0.4445,0.229658 -0.881592,0.400049 -0.04445,-0.06667 -0.118533,-0.148166 -0.06667,-0.0889 -0.140758,-0.170392 -0.07408,-0.0889 -0.13335,-0.140758 0.429683,-0.13335 0.859366,-0.318558 0.429683,-0.192617 0.792691,-0.429683 0.370417,-0.237067 0.607483,-0.511175 z m 1.711325,0.185208 0.429683,0.2667 q -0.237067,0.200025 -0.525992,0.385233 -0.281516,0.1778 -0.525991,0.303742 l -0.3556,-0.244475 q 0.155575,-0.09631 0.333375,-0.22225 0.185208,-0.125942 0.3556,-0.251883 0.170391,-0.13335 0.288925,-0.237067 z m -2.800349,-0.7112 v 0.503767 h 2.244724 V 46.836759 Z M 58.3989,46.458935 h 3.452282 v 1.266824 H 58.3989 Z m -1.414991,-2.629958 h 6.267447 v 6.578597 h -0.688975 v -5.94148 h -4.911722 v 5.94148 h -0.66675 z m 0.422275,5.645148 h 5.526614 v 0.637116 h -5.526614 z"
             id="text5-9"
             style="font-weight:500;font-size:7.40833px;line-height:1.25;font-family:'Noto Sans JP';-inkscape-font-specification:'Noto Sans JP Medium';fill:#f9f9f9;stroke-width:0.264583"
             aria-label="大湖公園" />
          <path
             style="font-weight:500;font-size:7.40833px;line-height:1.25;font-family:'Noto Sans KR';-inkscape-font-specification:'Noto Sans KR Medium';fill:#f9f9f9;stroke-width:0.264583"
             d="m 74.813431,43.701977 h 0.777874 v 6.78603 h -0.777874 z m 0.607483,2.600324 h 1.222374 v 0.644524 h -1.222374 z m -4.800598,1.874307 h 0.548216 q 0.607483,0 1.118658,-0.01482 0.511175,-0.02222 0.992716,-0.06667 0.481542,-0.05186 0.9779,-0.140759 l 0.08149,0.644525 q -0.511175,0.09631 -1.007533,0.148167 -0.48895,0.04445 -1.02235,0.06667 -0.525991,0.01482 -1.140883,0.01482 h -0.548216 z m 0,-3.830106 h 3.14854 v 0.629708 h -2.378074 v 3.50414 h -0.770466 z m 6.845297,0.103716 h 5.474756 v 0.614892 h -5.474756 z m -0.303741,3.644899 h 6.134097 v 0.622299 h -6.134097 z m 2.666999,0.533399 h 0.777874 v 1.852083 h -0.777874 z m 0.392641,-3.230032 q 1.059391,0 1.652058,0.296334 0.600075,0.296333 0.600075,0.851958 0,0.548216 -0.600075,0.844549 -0.592667,0.296333 -1.652058,0.296333 -1.066799,0 -1.659466,-0.296333 -0.592666,-0.296333 -0.592666,-0.844549 0,-0.555625 0.592666,-0.851958 0.600075,-0.296334 1.659466,-0.296334 z m 0,0.585258 q -0.711199,0 -1.081616,0.140759 -0.370416,0.140758 -0.370416,0.422275 0,0.274108 0.370416,0.414866 0.370417,0.140758 1.081616,0.140758 0.703792,0 1.074208,-0.140758 0.370417,-0.140758 0.370417,-0.414866 0,-0.281517 -0.370417,-0.422275 -0.370416,-0.140759 -1.074208,-0.140759 z m -0.392641,-2.30399 h 0.777874 v 1.177924 h -0.777874 z m 9.253009,4.274606 q 0.726017,0 1.259416,0.155575 0.5334,0.148167 0.822325,0.429683 0.296333,0.281517 0.296333,0.674158 0,0.392642 -0.296333,0.674158 -0.288925,0.281517 -0.822325,0.429684 -0.533399,0.148166 -1.259416,0.148166 -0.726016,0 -1.259416,-0.148166 -0.5334,-0.148167 -0.829733,-0.429684 -0.288925,-0.281516 -0.288925,-0.674158 0,-0.392641 0.288925,-0.674158 0.296333,-0.281516 0.829733,-0.429683 0.5334,-0.155575 1.259416,-0.155575 z m 0,0.592667 q -0.496358,0 -0.859366,0.07408 -0.3556,0.07408 -0.548216,0.229658 -0.192617,0.148167 -0.192617,0.363008 0,0.207434 0.192617,0.3556 0.192616,0.148167 0.548216,0.229658 0.363008,0.08149 0.859366,0.08149 0.503767,0 0.859366,-0.08149 0.3556,-0.08149 0.548217,-0.229658 0.200025,-0.148166 0.200025,-0.3556 0,-0.214841 -0.200025,-0.363008 -0.192617,-0.155575 -0.548217,-0.229658 -0.355599,-0.07408 -0.859366,-0.07408 z m -2.318807,-4.519082 h 4.326465 v 0.6223 h -4.326465 z m -0.703791,2.770716 h 6.104463 v 0.6223 h -6.104463 z m 2.400299,-1.2446 h 0.770466 v 1.414991 h -0.770466 z m 2.178049,-1.526116 h 0.770466 v 0.570442 q 0,0.407458 -0.02223,0.844549 -0.02222,0.429684 -0.162983,0.955675 l -0.763058,-0.08149 q 0.13335,-0.525991 0.155575,-0.926041 0.02223,-0.40005 0.02223,-0.792691 z m 4.08199,3.118907 h 0.770466 v 1.489075 H 94.71962 Z m 2.978149,-3.437465 h 0.777874 v 5.133973 h -0.777874 z m -3.956049,6.000747 h 4.896907 v 0.629709 H 93.74172 Z m 0,-1.363132 h 0.777875 v 1.533524 H 93.74172 Z m -0.807507,-0.940858 -0.09631,-0.629708 q 0.6223,-0.0074 1.355725,-0.01482 0.733424,-0.01482 1.496482,-0.05186 0.770467,-0.04445 1.481666,-0.13335 l 0.05927,0.555625 q -0.726016,0.118533 -1.489074,0.1778 -0.75565,0.05927 -1.474258,0.07408 -0.718608,0.01482 -1.333499,0.02223 z m 3.437465,0.2667 h 1.518707 v 0.548216 h -1.518707 z m -1.348316,-3.711574 q 0.503766,0 0.874183,0.148167 0.377824,0.148167 0.585258,0.422275 0.214841,0.2667 0.214841,0.6223 0,0.355599 -0.214841,0.629708 -0.207434,0.274108 -0.585258,0.422274 -0.370417,0.140759 -0.874183,0.140759 -0.48895,0 -0.874183,-0.140759 -0.377825,-0.148166 -0.592667,-0.422274 -0.207433,-0.274109 -0.207433,-0.629708 0,-0.3556 0.207433,-0.6223 0.214842,-0.274108 0.592667,-0.422275 0.385233,-0.148167 0.874183,-0.148167 z m 0,0.570442 q -0.414867,0 -0.681567,0.170391 -0.259291,0.162984 -0.259291,0.451909 0,0.288924 0.259291,0.459316 0.2667,0.162983 0.681567,0.162983 0.414866,0 0.674158,-0.162983 0.259291,-0.170392 0.259291,-0.459316 0,-0.192617 -0.118533,-0.325967 -0.118533,-0.140758 -0.325967,-0.214842 -0.207433,-0.08149 -0.488949,-0.08149 z"
             id="text5-9-8"
             aria-label="다후 공원" />
          <text
             xml:space="preserve"
             transform="matrix(0.31967577,0,0,0.31967577,-16.498784,-6.8865533)"
             id="text6"
             style="font-size:55px;line-height:1.25;font-family:'Microsoft JhengHei';-inkscape-font-specification:'Microsoft JhengHei';white-space:pre;shape-inside:url(#rect6);display:inline" />
        </g>
      </g>
    </g>
  </g>
</svg>
