<?xml version="1.0" encoding="UTF-8" standalone="no"?>
<!-- Created with Inkscape (http://www.inkscape.org/) -->

<svg
   width="500"
   height="250"
   viewBox="0 0 132.29166 66.145833"
   version="1.1"
   id="svg1"
   inkscape:version="1.3.2 (091e20e, 2023-11-25, custom)"
   sodipodi:docname="br21.svg"
   xmlns:inkscape="http://www.inkscape.org/namespaces/inkscape"
   xmlns:sodipodi="http://sodipodi.sourceforge.net/DTD/sodipodi-0.dtd"
   xmlns="http://www.w3.org/2000/svg"
   xmlns:svg="http://www.w3.org/2000/svg">
  <sodipodi:namedview
     id="namedview1"
     pagecolor="#9e652e"
     bordercolor="#ffffff"
     borderopacity="1"
     inkscape:showpageshadow="0"
     inkscape:pageopacity="0"
     inkscape:pagecheckerboard="false"
     inkscape:deskcolor="#d1d1d1"
     inkscape:document-units="mm"
     inkscape:zoom="2.0208096"
     inkscape:cx="305.81802"
     inkscape:cy="146.47595"
     inkscape:window-width="1920"
     inkscape:window-height="1009"
     inkscape:window-x="1912"
     inkscape:window-y="-8"
     inkscape:window-maximized="1"
     inkscape:current-layer="layer1" />
  <defs
     id="defs1">
    <rect
       x="560.66638"
       y="34.144731"
       width="279.32397"
       height="128.59143"
       id="rect6" />
    <rect
       x="157.85752"
       y="62.351248"
       width="329.07603"
       height="135.09437"
       id="rect4" />
    <rect
       x="157.85751"
       y="62.35125"
       width="329.07602"
       height="135.09438"
       id="rect4-5" />
  </defs>
  <g
     inkscape:label="Layer 1"
     inkscape:groupmode="layer"
     id="layer1">
    <rect
       style="fill:#9e652e;fill-opacity:1;stroke:none;stroke-width:0.953294;stroke-dasharray:none"
       id="rect5"
       width="132.29167"
       height="66.145836"
       x="-2.5431316e-06"
       y="-1.2715658e-06"
       ry="0" />
    <g
       id="g4"
       transform="translate(17.280325)">
      <g
         id="g7"
         transform="matrix(1.1949088,0,0,1.1949088,-10.727502,-6.4462012)">
        <g
           id="g5"
           transform="matrix(0.82766152,0,0,0.82766152,17.509474,5.6997351)">
          <path
             id="rect1"
             style="fill-opacity:0;stroke:#f9f9f9;stroke-width:0.953294"
             d="m 10.182676,14.144197 h 12.563615 c 3.97082,0 7.167545,3.196725 7.167545,7.167545 v 23.522352 c 0,3.970819 -3.196725,7.167544 -7.167545,7.167544 H 10.182676 c -3.97082,0 -7.167545,-3.196725 -7.167545,-7.167544 V 21.311742 c 0,-3.97082 3.196725,-7.167545 7.167545,-7.167545 z" />
          <path
             style="font-size:12.7px;line-height:1.25;font-family:'AR UDJingXiHeiE1G30 EB';-inkscape-font-specification:'AR UDJingXiHeiE1G30 EB';fill:#f9f9f9;stroke-width:0.264583"
             d="M 12.825932,30.493842 H 7.9999322 v -9.1821 h 4.4195998 q 1.3081,0 2.0701,0.635 0.762,0.635 0.762,1.6891 0,0.6858 -0.3048,1.2065 -0.2921,0.508 -0.889,0.8382 0.7747,0.3048 1.1684,0.8382 0.4064,0.5334 0.4064,1.27 0,1.2192 -0.8001,1.9685 -0.8001,0.7366 -2.0066,0.7366 z m 0.7493,-6.6548 q 0,-0.6223 -0.3556,-0.9398 -0.3556,-0.3302 -1.0287,-0.3302 H 9.6128322 v 2.5908 h 2.6669998 q 0.5715,0 0.9271,-0.3302 0.3683,-0.3429 0.3683,-0.9906 z m 0.381,3.937 q 0,-0.6604 -0.4064,-1.0033 -0.3937,-0.3556 -1.0414,-0.3556 H 9.6128322 v 2.8194 h 2.8701998 q 0.6731,0 1.0668,-0.3683 0.4064,-0.3683 0.4064,-1.0922 z m 9.042408,-3.8354 q 0,-0.6731 -0.3556,-1.016 -0.3556,-0.3556 -1.028699,-0.3556 h -2.7559 v 2.8575 h 2.667 q 0.660399,0 1.066799,-0.3937 0.4064,-0.3937 0.4064,-1.0922 z m -4.140199,2.7305 v 3.8227 h -1.6129 v -9.1821 h 4.673599 q 1.2573,0 1.9939,0.6731 0.7493,0.6604 0.7493,1.8796 0,0.8001 -0.381,1.3716 -0.3683,0.5715 -0.9271,0.8128 0.7112,0.4064 1.0922,1.4097 0.381,1.0033 0.4826,3.0353 h -1.6764 q -0.0762,-2.1336 -0.4699,-2.9718 -0.381,-0.8509 -1.231899,-0.8509 z"
             id="text2"
             aria-label="BR" />
          <path
             style="font-size:14.5521px;line-height:1.25;font-family:'AR UDJingXiHeiE1G30 EB';-inkscape-font-specification:'AR UDJingXiHeiE1G30 EB';fill:#f9f9f9;stroke-width:0.264583"
             d="m 8.6791091,37.758338 q 0,-1.629835 0.9895428,-2.561169 0.9895431,-0.945887 2.5902741,-0.945887 1.644387,0 2.561169,0.82947 0.931335,0.814918 0.931335,2.270128 0,1.033199 -0.669397,2.08095 -0.654844,1.033199 -2.066398,2.28468 l -1.979086,1.789908 h 4.685777 v 1.440658 H 8.6354528 v -1.324241 l 2.9395242,-2.648482 q 1.295137,-1.178721 1.80446,-2.00819 0.523876,-0.844022 0.523876,-1.615283 0,-0.727605 -0.422011,-1.178721 -0.422011,-0.451115 -1.222376,-0.451115 -0.800366,0 -1.295137,0.55298 -0.494772,0.55298 -0.494772,1.484314 z m 11.4815969,-1.135063 -1.702596,1.586178 -0.844022,-1.295136 2.735795,-2.48841 h 1.586179 v 10.521169 h -1.775356 z"
             id="text3"
             aria-label="21" />
          <path
             style="font-weight:500;font-size:72px;line-height:1.25;font-family:'Noto Sans TC';-inkscape-font-specification:'Noto Sans TC Medium';white-space:pre;fill:#f9f9f9"
             d="m 161.74542,98.937406 h 30.888 v 5.904004 h -30.888 z m 38.16,-6.408 h 19.368 v 5.76 h -19.368 z m -21.528,-17.856 h 6.696 v 14.976 h -6.696 z m -4.104,16.416 h 6.48 v 25.272004 h -6.48 z m 28.152,-16.416 h 6.768 v 15.768 h -6.768 z m -34.776,39.168004 h 22.68 v 20.88 h -22.68 v -5.904 h 16.272 v -9.072 h -16.272 z m 29.016,-21.312004 h 6.48 v 19.224004 q 0,3.528 -0.36,7.56 -0.36,3.96 -1.368,7.92 -1.008,3.96 -2.952,7.632 -1.872,3.672 -5.04,6.624 -0.504,-0.576 -1.44,-1.368 -0.936,-0.792 -2.016,-1.584 -1.008,-0.792 -1.728,-1.224 3.816,-3.6 5.616,-7.992 1.8,-4.392 2.304,-8.928 0.504,-4.608 0.504,-8.712 z m 19.872,0 h 6.552 v 41.256004 q 0,2.52 -0.648,4.032 -0.576,1.512 -2.232,2.376 -1.728,0.72 -4.32,0.936 -2.592,0.216 -6.336,0.216 -0.144,-1.368 -0.792,-3.24 -0.648,-1.872 -1.368,-3.168 2.592,0.072 4.752,0.144 2.232,0 3.024,-0.072 0.72,0 1.008,-0.288 0.36,-0.288 0.36,-1.008 z m -52.056,21.312004 h 6.408 v 25.488 h -6.408 z m -2.592,-34.560004 h 30.6 v 5.904 h -30.6 z m 33.192,0 h 30.6 v 5.904 h -30.6 z m 7.2,42.696004 q 3.384,-1.224 7.992,-3.096 4.608,-1.944 9.432,-3.96 l 1.584,5.616 q -4.176,1.944 -8.424,3.888 -4.248,1.872 -7.848,3.528 z m 0.144,-14.616 3.96,-3.528 q 1.872,0.936 3.96,2.16 2.088,1.224 3.96,2.52 1.872,1.224 3.096,2.232 l -4.176,3.96 q -1.224,-1.008 -3.024,-2.304 -1.8,-1.296 -3.888,-2.592 -2.016,-1.368 -3.888,-2.448 z m 71.856,-29.808004 h 6.408 v 62.136004 h -6.408 z m 15.48,-1.296 h 6.552 v 65.160004 h -6.552 z m -31.032,0.072 h 6.408 v 24.768004 q 0,7.056 -0.648,14.184 -0.576,7.128 -2.736,13.824 -2.088,6.624 -6.552,12.384 -0.648,-0.648 -1.728,-1.44 -1.008,-0.72 -2.088,-1.44 -1.008,-0.72 -1.944,-1.08 4.248,-5.256 6.192,-11.232 1.944,-5.976 2.52,-12.384 0.576,-6.408 0.576,-12.888 z m 5.904,21.816 4.608,-1.656 q 1.08,2.52 2.016,5.400004 1.008,2.88 1.8,5.616 0.864,2.736 1.224,4.896 l -4.824,1.872 q -0.36,-2.232 -1.152,-4.968 -0.72,-2.808 -1.656,-5.688 -0.936,-2.952 -2.016,-5.472004 z m 14.328,-0.792 4.608,-2.016 q 1.512,2.664 2.952,5.688004 1.512,3.024 2.664,5.904 1.224,2.88 1.944,5.184 l -4.968,2.304 q -0.576,-2.304 -1.728,-5.256 -1.152,-2.952 -2.592,-6.048 -1.44,-3.096 -2.88,-5.760004 z m -43.704,-17.064 4.032,-4.896 q 1.944,0.936 4.176,2.232 2.232,1.296 4.32,2.592 2.088,1.296 3.384,2.448 l -4.176,5.472 q -1.224,-1.08 -3.24,-2.52 -2.016,-1.44 -4.248,-2.808 -2.232,-1.44 -4.248,-2.52 z m -3.024,19.368 3.888,-4.968 q 2.016,0.864 4.248,2.088 2.304,1.224 4.464,2.448 2.16,1.224004 3.528,2.232004 l -4.032,5.544 q -1.224,-1.08 -3.384,-2.376 -2.088,-1.296 -4.392,-2.592 -2.232,-1.368 -4.32,-2.376004 z m 1.368,37.440004 q 1.512,-2.808 3.168,-6.624 1.728,-3.816 3.456,-8.064 1.728,-4.32 3.168,-8.424 l 5.472,3.6 q -1.296,3.744 -2.808,7.776 -1.512,4.032 -3.168,7.92 -1.584,3.888 -3.096,7.344 z m 15.336,-39.168004 4.968,-1.728 q 1.152,2.736 2.16,5.760004 1.08,3.024 1.8,5.976 0.792,2.88 1.152,5.184 l -5.328,1.944 q -0.288,-2.304 -1.008,-5.256 -0.72,-3.024 -1.728,-6.12 -0.936,-3.096 -2.016,-5.760004 z"
             id="text4"
             transform="matrix(0.26458333,0,0,0.26458333,-8.0629803,-4.4771203)"
             aria-label="葫洲" />
          <path
             style="font-size:7.40833px;line-height:1.25;font-family:'AR UDJingXiHeiE1G30 EB';-inkscape-font-specification:'AR UDJingXiHeiE1G30 EB';fill:#f9f9f9;stroke-width:0.264583"
             d="m 35.875154,38.59541 v 2.378074 h -0.940858 v -5.356223 h 0.940858 v 2.244724 h 2.57069 v -2.244724 h 0.940858 v 5.356223 H 38.445844 V 38.59541 Z m 9.23078,0.503766 q 0,0.93345 -0.585258,1.452033 -0.585258,0.518583 -1.666874,0.518583 -1.096433,0 -1.689099,-0.511175 -0.585258,-0.511174 -0.585258,-1.452032 v -3.489324 h 0.940858 v 3.444874 q 0,0.607483 0.333375,0.940858 0.333374,0.333374 1.000124,0.333374 0.629708,0 0.963083,-0.318558 0.340783,-0.325966 0.340783,-0.970491 v -3.430057 h 0.948266 z m 1.07421,-3.481915 h 4.193114 v 0.674158 l -3.230032,3.94864 h 3.304116 v 0.733425 h -4.511673 v -0.674158 l 3.230032,-3.94864 h -2.985557 z m 6.07483,2.978149 v 2.378074 h -0.940858 v -5.356223 h 0.940858 v 2.244724 h 2.57069 v -2.244724 h 0.940858 v 5.356223 H 54.825664 V 38.59541 Z m 9.890123,-0.274108 q 0,1.289049 -0.718608,2.022474 -0.7112,0.726016 -1.948391,0.726016 -1.259416,0 -1.970616,-0.733425 -0.711199,-0.733424 -0.711199,-2.015065 0,-1.303866 0.718608,-2.044699 0.718608,-0.748242 1.963207,-0.748242 1.259416,0 1.963208,0.740833 0.703791,0.740833 0.703791,2.052108 z m -2.666999,2.015065 q 0.807508,0 1.2446,-0.533399 0.444499,-0.5334 0.444499,-1.481666 0,-0.940858 -0.444499,-1.496483 -0.4445,-0.563033 -1.2446,-0.563033 -0.814916,0 -1.266824,0.570441 -0.4445,0.563033 -0.4445,1.489075 0,0.948266 0.451908,1.481666 0.451908,0.533399 1.259416,0.533399 z m 8.178796,-1.237191 q 0,0.93345 -0.585258,1.452033 -0.585258,0.518583 -1.666874,0.518583 -1.096433,0 -1.689099,-0.511175 -0.585258,-0.511174 -0.585258,-1.452032 v -3.489324 h 0.940858 v 3.444874 q 0,0.607483 0.333375,0.940858 0.333374,0.333374 1.000124,0.333374 0.629708,0 0.963083,-0.318558 0.340783,-0.325966 0.340783,-0.970491 v -3.430057 h 0.948266 z"
             id="text5"
             aria-label="HUZHOU" />
          <path
             d="m 34.581118,43.999369 h 6.637864 v 0.607483 h -6.637864 z m 0.03704,2.022474 h 3.133723 v 0.614891 H 34.61816 Z m 3.933823,-0.659341 h 1.948391 v 0.592666 h -1.948391 z m 0,1.259416 h 1.948391 v 0.592666 h -1.948391 z m -0.02222,1.281641 h 1.978024 v 0.592666 h -1.978024 z m -2.229907,-4.378323 h 0.703791 v 1.600199 h -0.703791 z m -0.422275,1.674282 h 0.688974 v 2.615141 h -0.688974 z m 2.896657,-1.674282 h 0.711199 v 1.600199 h -0.711199 z m -3.54859,4.030131 H 37.5 v 2.148416 H 35.225643 V 49.0963 h 1.615016 v -0.93345 h -1.615016 z m 2.992965,-2.192865 h 0.66675 v 1.985432 q 0,0.370417 -0.04445,0.785283 -0.03704,0.414867 -0.155575,0.829733 -0.118533,0.407458 -0.340783,0.785283 -0.214842,0.370417 -0.57785,0.674158 -0.05186,-0.05927 -0.148167,-0.148167 -0.09631,-0.08149 -0.207433,-0.162983 -0.103717,-0.08149 -0.1778,-0.125941 0.4445,-0.370417 0.651933,-0.814917 0.207433,-0.451908 0.2667,-0.926041 0.06668,-0.474133 0.06668,-0.903816 z m 2.037291,0 h 0.681566 v 4.252381 q 0,0.251883 -0.06668,0.407458 -0.05927,0.155575 -0.237066,0.244475 -0.170392,0.08149 -0.437092,0.09631 -0.2667,0.02222 -0.651933,0.02222 -0.02222,-0.13335 -0.0889,-0.325966 -0.06667,-0.192617 -0.13335,-0.333375 0.259292,0.0074 0.48895,0.01482 0.229658,0 0.31115,0 0.07408,0 0.103716,-0.02963 0.02963,-0.02963 0.02963,-0.103716 z m -5.356223,2.192865 h 0.674158 v 2.622549 h -0.674158 z m 11.260662,-3.733798 h 0.659341 v 6.393389 h -0.659341 z m 1.592791,-0.13335 h 0.674158 v 6.704539 h -0.674158 z m -3.148541,0.0074 h 0.659342 v 2.548466 q 0,0.726016 -0.06668,1.459441 -0.05927,0.733425 -0.281517,1.422399 -0.214841,0.681567 -0.674158,1.274233 -0.06667,-0.06667 -0.1778,-0.148167 -0.103716,-0.07408 -0.214841,-0.148166 -0.103717,-0.07408 -0.200025,-0.111125 0.437091,-0.540808 0.637116,-1.1557 0.200025,-0.614891 0.259292,-1.274232 0.05927,-0.659342 0.05927,-1.326091 z m -0.614891,1.9558 0.5334,0.162983 q -0.05186,0.31115 -0.13335,0.659341 -0.08149,0.348192 -0.192617,0.674158 -0.111125,0.318558 -0.2667,0.570442 l -0.525991,-0.288925 q 0.155575,-0.22225 0.2667,-0.518583 0.111125,-0.303742 0.192616,-0.629708 0.08149,-0.325967 0.125942,-0.629708 z m 1.185333,0.318558 0.496358,-0.192617 q 0.125942,0.244475 0.229658,0.5334 0.103717,0.281516 0.1778,0.555625 0.08149,0.274108 0.118533,0.488949 l -0.533399,0.214842 q -0.02963,-0.22225 -0.103717,-0.496358 -0.07408,-0.281517 -0.1778,-0.570441 -0.09631,-0.288925 -0.207433,-0.5334 z m 1.474258,-0.111125 0.503766,-0.22225 q 0.170392,0.259291 0.318558,0.563033 0.155575,0.296333 0.274108,0.585258 0.118534,0.288925 0.1778,0.518583 l -0.540808,0.259292 q -0.05927,-0.237067 -0.1778,-0.5334 -0.111125,-0.296333 -0.259291,-0.600075 -0.140759,-0.303741 -0.296333,-0.570441 z m -4.496857,-1.755774 0.414867,-0.503767 q 0.200025,0.09631 0.429683,0.229658 0.229658,0.13335 0.4445,0.2667 0.214841,0.13335 0.348191,0.251884 l -0.429683,0.563033 q -0.125942,-0.111125 -0.333375,-0.259292 -0.207433,-0.148167 -0.437091,-0.288925 -0.229658,-0.148166 -0.437092,-0.259291 z m -0.31115,1.99284 0.40005,-0.511174 q 0.207433,0.0889 0.437092,0.214841 0.237066,0.125942 0.459316,0.251883 0.22225,0.125942 0.363008,0.229659 l -0.414866,0.570441 q -0.125942,-0.111125 -0.348192,-0.244475 -0.214841,-0.13335 -0.451908,-0.2667 -0.229658,-0.140758 -0.4445,-0.244475 z m 0.140759,3.852332 q 0.155575,-0.288925 0.325966,-0.681566 0.1778,-0.392642 0.3556,-0.829733 0.1778,-0.4445 0.325967,-0.866775 l 0.563033,0.370417 q -0.13335,0.385233 -0.288925,0.800099 -0.155575,0.414867 -0.325967,0.814916 -0.162983,0.40005 -0.318558,0.75565 z"
             id="text5-9"
             style="font-weight:500;font-size:7.40833px;line-height:1.25;font-family:'Noto Sans JP';-inkscape-font-specification:'Noto Sans JP Medium';fill:#f9f9f9;stroke-width:0.264583"
             aria-label="葫洲" />
          <path
             style="font-weight:500;font-size:7.40833px;line-height:1.25;font-family:'Noto Sans KR';-inkscape-font-specification:'Noto Sans KR Medium';fill:#f9f9f9;stroke-width:0.264583"
             d="m 56.203202,44.450218 h 5.474756 v 0.614892 h -5.474756 z m -0.303741,3.644899 h 6.134097 v 0.622299 h -6.134097 z m 2.666999,0.533399 h 0.777874 v 1.852083 H 58.56646 Z m 0.392641,-3.230032 q 1.059391,0 1.652058,0.296334 0.600074,0.296333 0.600074,0.851958 0,0.548216 -0.600074,0.844549 -0.592667,0.296333 -1.652058,0.296333 -1.066799,0 -1.659466,-0.296333 -0.592666,-0.296333 -0.592666,-0.844549 0,-0.555625 0.592666,-0.851958 0.600075,-0.296334 1.659466,-0.296334 z m 0,0.585258 q -0.7112,0 -1.081616,0.140759 -0.370417,0.140758 -0.370417,0.422275 0,0.274108 0.370417,0.414866 0.370416,0.140758 1.081616,0.140758 0.703791,0 1.074208,-0.140758 0.370416,-0.140758 0.370416,-0.414866 0,-0.281517 -0.370416,-0.422275 -0.370417,-0.140759 -1.074208,-0.140759 z m -0.392641,-2.30399 h 0.777874 v 1.177924 H 58.56646 Z m 8.993713,0.02222 h 0.770466 v 6.78603 h -0.770466 z m -1.340908,2.422524 h 1.540933 v 0.629708 h -1.540933 z m -1.859491,-1.407583 h 0.6223 v 0.829733 q 0,0.57785 -0.13335,1.133475 -0.13335,0.555624 -0.377825,1.044574 -0.244475,0.481541 -0.592666,0.859366 -0.348192,0.377825 -0.785283,0.600075 L 62.641042,48.56925 q 0.385233,-0.192617 0.703791,-0.511175 0.318558,-0.325967 0.548217,-0.726016 0.229658,-0.407459 0.348191,-0.866775 0.118533,-0.459317 0.118533,-0.918633 z m 0.1778,0 h 0.607483 v 0.829733 q 0,0.437091 0.118534,0.874183 0.125941,0.429683 0.348191,0.822325 0.229658,0.385233 0.548217,0.696383 0.318558,0.311149 0.711199,0.488949 l -0.459316,0.614892 q -0.429683,-0.214842 -0.777875,-0.570442 -0.348191,-0.363008 -0.592666,-0.829733 -0.244475,-0.466724 -0.377825,-1.000124 -0.125942,-0.540808 -0.125942,-1.096433 z m -1.637241,-0.340783 h 3.711574 v 0.637116 h -3.711574 z m 6.630456,3.163357 h 6.134098 v 0.637116 h -6.134098 z m 2.659591,0.407458 h 0.770466 v 2.533649 H 72.19038 Z m 0.392641,-3.985682 q 0.7112,0 1.252008,0.185209 0.540808,0.185208 0.84455,0.518583 0.303741,0.333375 0.303741,0.792691 0,0.459317 -0.303741,0.8001 -0.303742,0.333375 -0.84455,0.518583 -0.540808,0.185208 -1.252008,0.185208 -0.711199,0 -1.259416,-0.185208 -0.540808,-0.185208 -0.844549,-0.518583 -0.303742,-0.340783 -0.303742,-0.8001 0,-0.459316 0.303742,-0.792691 0.303741,-0.333375 0.844549,-0.518583 0.548217,-0.185209 1.259416,-0.185209 z m -0.0074,0.614892 q -0.481541,0 -0.84455,0.111125 -0.355599,0.103716 -0.555624,0.303741 -0.200025,0.192617 -0.200025,0.466725 0,0.274108 0.200025,0.474133 0.200025,0.200025 0.555624,0.303742 0.363009,0.103716 0.84455,0.103716 0.48895,0 0.84455,-0.103716 0.363008,-0.103717 0.563033,-0.303742 0.200025,-0.200025 0.200025,-0.474133 0,-0.274108 -0.200025,-0.466725 -0.200025,-0.200025 -0.563033,-0.303741 -0.3556,-0.111125 -0.84455,-0.111125 z"
             id="text5-9-8"
             aria-label="후저우" />
          <text
             xml:space="preserve"
             transform="matrix(0.31967577,0,0,0.31967577,-16.498784,-6.8865533)"
             id="text6"
             style="font-size:55px;line-height:1.25;font-family:'Microsoft JhengHei';-inkscape-font-specification:'Microsoft JhengHei';white-space:pre;shape-inside:url(#rect6);display:inline" />
        </g>
      </g>
    </g>
  </g>
</svg>
