<?xml version="1.0" encoding="UTF-8" standalone="no"?>
<!-- Created with Inkscape (http://www.inkscape.org/) -->

<svg
   width="500"
   height="250"
   viewBox="0 0 132.29166 66.145833"
   version="1.1"
   id="svg1"
   inkscape:version="1.3.2 (091e20e, 2023-11-25, custom)"
   sodipodi:docname="br22.svg"
   xmlns:inkscape="http://www.inkscape.org/namespaces/inkscape"
   xmlns:sodipodi="http://sodipodi.sourceforge.net/DTD/sodipodi-0.dtd"
   xmlns="http://www.w3.org/2000/svg"
   xmlns:svg="http://www.w3.org/2000/svg">
  <sodipodi:namedview
     id="namedview1"
     pagecolor="#9e652e"
     bordercolor="#ffffff"
     borderopacity="1"
     inkscape:showpageshadow="0"
     inkscape:pageopacity="0"
     inkscape:pagecheckerboard="false"
     inkscape:deskcolor="#d1d1d1"
     inkscape:document-units="mm"
     inkscape:zoom="2.0208096"
     inkscape:cx="305.81802"
     inkscape:cy="146.47595"
     inkscape:window-width="1920"
     inkscape:window-height="1009"
     inkscape:window-x="1912"
     inkscape:window-y="-8"
     inkscape:window-maximized="1"
     inkscape:current-layer="layer1" />
  <defs
     id="defs1">
    <rect
       x="560.66638"
       y="34.144731"
       width="279.32397"
       height="128.59143"
       id="rect6" />
    <rect
       x="157.85752"
       y="62.351248"
       width="329.07603"
       height="135.09437"
       id="rect4" />
    <rect
       x="157.85751"
       y="62.35125"
       width="329.07602"
       height="135.09438"
       id="rect4-5" />
  </defs>
  <g
     inkscape:label="Layer 1"
     inkscape:groupmode="layer"
     id="layer1">
    <rect
       style="fill:#9e652e;fill-opacity:1;stroke:none;stroke-width:0.953294;stroke-dasharray:none"
       id="rect5"
       width="132.29167"
       height="66.145836"
       x="-2.5431316e-06"
       y="-1.2715658e-06"
       ry="0" />
    <g
       id="g4"
       transform="translate(19.792643)">
      <g
         id="g7"
         transform="matrix(1.1949088,0,0,1.1949088,-10.727502,-6.4462012)">
        <g
           id="g5"
           transform="matrix(0.82766152,0,0,0.82766152,17.509474,5.6997351)">
          <path
             id="rect1"
             style="fill-opacity:0;stroke:#f9f9f9;stroke-width:0.953294"
             d="m 10.182676,14.144197 h 12.563615 c 3.97082,0 7.167545,3.196725 7.167545,7.167545 v 23.522352 c 0,3.970819 -3.196725,7.167544 -7.167545,7.167544 H 10.182676 c -3.97082,0 -7.167545,-3.196725 -7.167545,-7.167544 V 21.311742 c 0,-3.97082 3.196725,-7.167545 7.167545,-7.167545 z" />
          <path
             style="font-size:12.7px;line-height:1.25;font-family:'AR UDJingXiHeiE1G30 EB';-inkscape-font-specification:'AR UDJingXiHeiE1G30 EB';fill:#f9f9f9;stroke-width:0.264583"
             d="M 12.825932,30.493842 H 7.9999322 v -9.1821 h 4.4195998 q 1.3081,0 2.0701,0.635 0.762,0.635 0.762,1.6891 0,0.6858 -0.3048,1.2065 -0.2921,0.508 -0.889,0.8382 0.7747,0.3048 1.1684,0.8382 0.4064,0.5334 0.4064,1.27 0,1.2192 -0.8001,1.9685 -0.8001,0.7366 -2.0066,0.7366 z m 0.7493,-6.6548 q 0,-0.6223 -0.3556,-0.9398 -0.3556,-0.3302 -1.0287,-0.3302 H 9.6128322 v 2.5908 h 2.6669998 q 0.5715,0 0.9271,-0.3302 0.3683,-0.3429 0.3683,-0.9906 z m 0.381,3.937 q 0,-0.6604 -0.4064,-1.0033 -0.3937,-0.3556 -1.0414,-0.3556 H 9.6128322 v 2.8194 h 2.8701998 q 0.6731,0 1.0668,-0.3683 0.4064,-0.3683 0.4064,-1.0922 z m 9.042408,-3.8354 q 0,-0.6731 -0.3556,-1.016 -0.3556,-0.3556 -1.028699,-0.3556 h -2.7559 v 2.8575 h 2.667 q 0.660399,0 1.066799,-0.3937 0.4064,-0.3937 0.4064,-1.0922 z m -4.140199,2.7305 v 3.8227 h -1.6129 v -9.1821 h 4.673599 q 1.2573,0 1.9939,0.6731 0.7493,0.6604 0.7493,1.8796 0,0.8001 -0.381,1.3716 -0.3683,0.5715 -0.9271,0.8128 0.7112,0.4064 1.0922,1.4097 0.381,1.0033 0.4826,3.0353 h -1.6764 q -0.0762,-2.1336 -0.4699,-2.9718 -0.381,-0.8509 -1.231899,-0.8509 z"
             id="text2"
             aria-label="BR" />
          <path
             style="font-size:14.5521px;line-height:1.25;font-family:'AR UDJingXiHeiE1G30 EB';-inkscape-font-specification:'AR UDJingXiHeiE1G30 EB';fill:#f9f9f9;stroke-width:0.264583"
             d="m 8.6791091,37.758338 q 0,-1.629835 0.9895428,-2.561169 0.9895431,-0.945887 2.5902741,-0.945887 1.644387,0 2.561169,0.82947 0.931335,0.814918 0.931335,2.270128 0,1.033199 -0.669397,2.08095 -0.654844,1.033199 -2.066398,2.28468 l -1.979086,1.789908 h 4.685777 v 1.440658 H 8.6354528 v -1.324241 l 2.9395242,-2.648482 q 1.295137,-1.178721 1.80446,-2.00819 0.523876,-0.844022 0.523876,-1.615283 0,-0.727605 -0.422011,-1.178721 -0.422011,-0.451115 -1.222376,-0.451115 -0.800366,0 -1.295137,0.55298 -0.494772,0.55298 -0.494772,1.484314 z m 8.6584889,0 q 0,-1.629835 0.989543,-2.561169 0.989543,-0.945887 2.590274,-0.945887 1.644387,0 2.56117,0.82947 0.931334,0.814918 0.931334,2.270128 0,1.033199 -0.669397,2.08095 -0.654844,1.033199 -2.066398,2.28468 l -1.979085,1.789908 h 4.685776 v 1.440658 h -7.086873 v -1.324241 l 2.939524,-2.648482 q 1.295137,-1.178721 1.804461,-2.00819 0.523875,-0.844022 0.523875,-1.615283 0,-0.727605 -0.422011,-1.178721 -0.42201,-0.451115 -1.222376,-0.451115 -0.800366,0 -1.295137,0.55298 -0.494771,0.55298 -0.494771,1.484314 z"
             id="text3"
             aria-label="22" />
          <path
             style="font-weight:500;font-size:72px;line-height:1.25;font-family:'Noto Sans TC';-inkscape-font-specification:'Noto Sans TC Medium';white-space:pre;fill:#f9f9f9"
             d="m 162.32142,81.153406 h 63.432 v 6.336 h -63.432 z m 27.792,-6.48 h 7.128 v 66.816004 h -7.128 z m -1.872,41.184004 5.76,2.448 q -2.52,3.528 -5.832,6.84 -3.312,3.24 -7.128,6.12 -3.816,2.88 -7.848,5.184 -4.032,2.376 -8.064,4.032 -0.504,-0.864 -1.368,-1.944 -0.792,-1.008 -1.728,-2.088 -0.864,-1.008 -1.584,-1.656 3.888,-1.368 7.848,-3.384 4.032,-2.016 7.776,-4.536 3.744,-2.52 6.84,-5.328 3.096,-2.808 5.328,-5.688 z m 11.016,0.216 q 2.304,2.88 5.472,5.616 3.24,2.736 6.984,5.256 3.744,2.52 7.776,4.536 4.032,1.944 8.064,3.24 -0.792,0.72 -1.728,1.728 -0.936,1.08 -1.8,2.16 -0.792,1.08 -1.368,2.016 -3.96,-1.656 -8.064,-4.032 -4.032,-2.304 -7.92,-5.184 -3.816,-2.952 -7.128,-6.192 -3.24,-3.312 -5.832,-6.696 z m -24.048,-7.416 v 5.832 h 37.8 v -5.832 z m 0,-10.728004 v 5.760004 h 37.8 v -5.760004 z m -6.696,-5.184 h 51.408 v 27.000004 h -51.408 z m 89.928,-16.056 h 6.264 v 33.696004 h -6.264 z m -10.152,12.528 h 25.416 v 6.264 h -25.416 z m 30.96,-11.952 h 14.832 v 6.048 h -14.832 z m -28.584,30.384004 h 5.904 v 29.448 h -5.904 z m 3.096,0 h 18.216 v 24.048 h -18.216 v -5.904 h 12.24 v -12.24 h -12.24 z m 22.536,-30.384004 h 6.048 v 29.160004 q 0,4.176 -0.36,8.856 -0.288,4.68 -1.296,9.432 -0.936,4.752 -2.808,9.144 -1.872,4.392 -4.968,7.848 -0.504,-0.576 -1.44,-1.224 -0.936,-0.648 -1.944,-1.296 -1.008,-0.648 -1.728,-1.008 2.952,-3.24 4.608,-7.128 1.728,-3.96 2.52,-8.136 0.864,-4.248 1.08,-8.424 0.288,-4.248 0.288,-8.064 z m 14.76,0 h 6.192 v 56.592004 q 0,2.304 -0.576,3.672 -0.576,1.368 -2.16,2.16 -1.44,0.72 -3.744,0.936 -2.304,0.216 -5.76,0.144 -0.216,-1.152 -0.864,-2.88 -0.576,-1.656 -1.224,-2.808 2.304,0.072 4.248,0.072 1.944,0 2.664,0 0.72,-0.072 0.936,-0.288 0.288,-0.288 0.288,-1.08 z m -55.728,3.024 3.744,-4.824 q 2.016,0.864 4.176,2.088 2.232,1.152 4.176,2.448 1.944,1.296 3.168,2.52 l -3.96,5.328 q -1.152,-1.224 -3.096,-2.592 -1.872,-1.368 -4.032,-2.664 -2.16,-1.368 -4.176,-2.304 z m -2.952,19.296 3.672,-4.824 q 2.088,0.72 4.32,1.872 2.232,1.08 4.176,2.304 2.016,1.224004 3.312,2.304004 l -3.888,5.4 q -1.152,-1.08 -3.168,-2.376 -1.944,-1.296 -4.176,-2.52 -2.16,-1.224 -4.248,-2.160004 z m 1.224,37.584004 q 1.512,-2.808 3.168,-6.624 1.728,-3.888 3.456,-8.136 1.728,-4.248 3.168,-8.352 l 5.4,3.528 q -1.296,3.816 -2.808,7.848 -1.44,4.032 -3.096,7.92 -1.584,3.888 -3.096,7.344 z m 48.24,-21.312 q 2.088,-1.368 4.824,-3.456 2.808,-2.088 5.76,-4.392 l 1.944,3.816 q -2.52,2.448 -5.04,4.824 -2.52,2.376 -4.968,4.608 z m -0.648,-19.944004 3.6,-2.448 q 2.16,1.944 4.248,4.32 2.16,2.376004 3.312,4.104004 l -3.744,2.952 q -1.08,-1.8 -3.24,-4.32 -2.16,-2.520004 -4.176,-4.608004 z"
             id="text4"
             transform="matrix(0.26458333,0,0,0.26458333,-8.0629803,-4.4771203)"
             aria-label="東湖" />
          <path
             style="font-size:7.40833px;line-height:1.25;font-family:'AR UDJingXiHeiE1G30 EB';-inkscape-font-specification:'AR UDJingXiHeiE1G30 EB';fill:#f9f9f9;stroke-width:0.264583"
             d="m 39.497827,38.232402 q 0,1.333499 -0.629708,2.037291 -0.6223,0.703791 -1.740957,0.703791 h -2.192866 v -5.356223 h 2.192866 q 1.118657,0 1.740957,0.659342 0.629708,0.659341 0.629708,1.955799 z m -0.977899,0 q 0,-0.970491 -0.40005,-1.4224 -0.392642,-0.459316 -1.148291,-0.459316 h -1.096433 v 3.889373 h 1.103841 q 0.726016,0 1.133475,-0.481541 0.407458,-0.481542 0.407458,-1.526116 z m 7.15644,0.0889 q 0,1.289049 -0.718608,2.022474 -0.7112,0.726016 -1.948391,0.726016 -1.259416,0 -1.970616,-0.733425 -0.711199,-0.733424 -0.711199,-2.015065 0,-1.303866 0.718608,-2.044699 0.718608,-0.748242 1.963207,-0.748242 1.259416,0 1.963208,0.740833 0.703791,0.740833 0.703791,2.052108 z m -2.666999,2.015065 q 0.807508,0 1.2446,-0.533399 0.444499,-0.5334 0.444499,-1.481666 0,-0.940858 -0.444499,-1.496483 -0.4445,-0.563033 -1.2446,-0.563033 -0.814916,0 -1.266824,0.570441 -0.4445,0.563033 -0.4445,1.489075 0,0.948266 0.451908,1.481666 0.451908,0.533399 1.259416,0.533399 z m 4.630208,-3.230031 v 3.867148 h -0.940858 v -5.356223 h 0.970492 l 2.629957,3.956048 v -3.956048 h 0.940858 v 5.356223 h -1.029758 z m 8.764049,3.215215 q -0.274108,0.385233 -0.688974,0.570441 -0.407458,0.1778 -0.93345,0.1778 -1.155699,0 -1.837266,-0.726016 -0.681566,-0.733425 -0.681566,-2.044699 0,-1.318683 0.718608,-2.044699 0.718608,-0.726017 1.940982,-0.726017 0.985308,0 1.6002,0.451908 0.622299,0.4445 0.748241,1.274233 h -0.940858 q -0.07408,-0.437091 -0.437091,-0.711199 -0.3556,-0.281517 -0.970492,-0.281517 -0.822324,0 -1.252007,0.5334 -0.429683,0.525991 -0.429683,1.503891 0,1.044574 0.451908,1.540932 0.451908,0.48895 1.229782,0.48895 0.681567,0 1.081617,-0.40005 0.400049,-0.400049 0.400049,-0.918633 v -0.111125 h -1.518707 v -0.733424 h 2.422524 v 2.807757 h -0.903817 z m 2.95592,-1.726141 v 2.378074 h -0.940858 v -5.356223 h 0.940858 v 2.244724 h 2.570691 v -2.244724 h 0.940857 v 5.356223 H 61.930237 V 38.59541 Z m 9.23078,0.503766 q 0,0.93345 -0.585258,1.452033 -0.585258,0.518583 -1.666874,0.518583 -1.096433,0 -1.689099,-0.511175 -0.585259,-0.511174 -0.585259,-1.452032 v -3.489324 h 0.940858 v 3.444874 q 0,0.607483 0.333375,0.940858 0.333375,0.333374 1.000125,0.333374 0.629708,0 0.963083,-0.318558 0.340783,-0.325966 0.340783,-0.970491 v -3.430057 h 0.948266 z"
             id="text5"
             aria-label="DONGHU" />
          <path
             d="m 34.647793,44.191986 h 6.526739 v 0.651933 h -6.526739 z m 2.859615,-0.66675 h 0.733425 v 6.87493 h -0.733425 z m -0.192616,4.237565 0.592666,0.251883 q -0.259291,0.363008 -0.600075,0.703791 -0.340783,0.333375 -0.733424,0.629708 -0.392642,0.296333 -0.807508,0.5334 -0.414867,0.244475 -0.829733,0.414866 -0.05186,-0.0889 -0.140758,-0.200024 -0.08149,-0.103717 -0.1778,-0.214842 -0.0889,-0.103717 -0.162984,-0.170392 0.40005,-0.140758 0.807508,-0.348191 0.414867,-0.207433 0.8001,-0.466725 0.385233,-0.259291 0.703791,-0.548216 0.318559,-0.288925 0.548217,-0.585258 z m 1.133474,0.02222 q 0.237067,0.296333 0.563033,0.577849 0.333375,0.281517 0.718608,0.540808 0.385234,0.259292 0.8001,0.466725 0.414866,0.200025 0.829733,0.333375 -0.08149,0.07408 -0.1778,0.1778 -0.09631,0.111125 -0.185208,0.22225 -0.08149,0.111125 -0.140758,0.207433 Q 40.448515,50.140875 40.026241,49.8964 39.611374,49.659333 39.211324,49.363 38.818683,49.059258 38.4779,48.725884 38.144525,48.3851 37.877825,48.036909 Z m -2.474382,-0.763058 v 0.600074 h 3.889373 v -0.600074 z m 0,-1.103842 v 0.592667 h 3.889373 v -0.592667 z m -0.688975,-0.533399 h 5.289548 v 2.778123 h -5.289548 z m 9.253005,-1.652058 h 0.644524 v 3.467099 h -0.644524 z m -1.044575,1.28905 h 2.61514 v 0.644524 h -2.61514 z m 3.185582,-1.229783 h 1.526116 v 0.622299 h -1.526116 z m 0,1.755774 h 1.548341 v 0.6223 h -1.548341 z m 0,1.785407 h 1.548341 v 0.6223 h -1.548341 z m -2.941107,-0.414866 h 0.607483 v 3.030007 h -0.607483 z m 0.318558,0 h 1.874308 v 2.474382 H 44.056372 V 48.78515 h 1.259416 v -1.259416 h -1.259416 z m 2.318807,-3.126315 h 0.6223 v 3.000373 q 0,0.429684 -0.03704,0.911225 -0.02963,0.481541 -0.13335,0.970491 -0.09631,0.48895 -0.288924,0.940858 -0.192617,0.451908 -0.511175,0.807508 -0.05186,-0.05927 -0.148167,-0.125942 -0.09631,-0.06668 -0.200025,-0.133349 -0.103716,-0.06667 -0.1778,-0.103717 0.303742,-0.333375 0.474134,-0.733425 0.177799,-0.407458 0.259291,-0.837141 0.0889,-0.437092 0.111125,-0.866775 0.02963,-0.437091 0.02963,-0.829733 z m 1.518708,0 h 0.637116 v 5.822947 q 0,0.237067 -0.05927,0.377825 -0.05927,0.140758 -0.22225,0.22225 -0.148167,0.07408 -0.385233,0.09631 -0.237067,0.02222 -0.592667,0.01482 -0.02222,-0.118533 -0.0889,-0.296333 -0.05927,-0.170392 -0.125941,-0.288925 0.237066,0.0074 0.437091,0.0074 0.200025,0 0.274108,0 0.07408,-0.0074 0.09631,-0.02963 0.02963,-0.02963 0.02963,-0.111125 z m -5.734047,0.31115 0.385233,-0.496358 q 0.207433,0.0889 0.429683,0.214841 0.229658,0.118533 0.429683,0.251883 0.200025,0.13335 0.325967,0.259292 l -0.407459,0.548216 q -0.118533,-0.125941 -0.318558,-0.2667 -0.192616,-0.140758 -0.414866,-0.274108 -0.22225,-0.140758 -0.429683,-0.237066 z m -0.303742,1.985432 0.377825,-0.496358 q 0.214841,0.07408 0.4445,0.192617 0.229658,0.111124 0.429683,0.237066 0.207433,0.125942 0.340783,0.237067 l -0.40005,0.555624 Q 42.930306,46.703409 42.722873,46.570059 42.522848,46.43671 42.29319,46.310768 42.07094,46.184826 41.856098,46.088518 Z m 0.125942,3.867148 q 0.155575,-0.288925 0.325966,-0.681566 0.1778,-0.40005 0.3556,-0.837141 0.1778,-0.437092 0.325967,-0.859367 l 0.555624,0.363009 q -0.13335,0.392641 -0.288925,0.807507 -0.148166,0.414867 -0.318558,0.814917 -0.162983,0.40005 -0.318558,0.755649 z"
             id="text5-9"
             style="font-weight:500;font-size:7.40833px;line-height:1.25;font-family:'Noto Sans JP';-inkscape-font-specification:'Noto Sans JP Medium';fill:#f9f9f9;stroke-width:0.264583"
             aria-label="東湖" />
          <path
             style="font-weight:500;font-size:7.40833px;line-height:1.25;font-family:'Noto Sans KR';-inkscape-font-specification:'Noto Sans KR Medium';fill:#f9f9f9;stroke-width:0.264583"
             d="m 55.906869,46.828292 h 6.119281 v 0.6223 h -6.119281 z m 2.666999,0.281517 h 0.770466 v 1.252007 h -0.770466 z m 0.370416,0.903816 q 1.096433,0 1.711325,0.318558 0.622299,0.318558 0.622299,0.911225 0,0.585258 -0.622299,0.903816 -0.614892,0.325966 -1.711325,0.325966 -1.081616,0 -1.703915,-0.325966 -0.6223,-0.318558 -0.6223,-0.903816 0,-0.592667 0.6223,-0.911225 0.622299,-0.318558 1.703915,-0.318558 z m 0,0.592666 q -0.488949,0 -0.837141,0.07408 -0.348191,0.07408 -0.5334,0.214841 -0.177799,0.13335 -0.177799,0.348192 0,0.207433 0.177799,0.348191 0.185209,0.140758 0.5334,0.214842 0.348192,0.06668 0.837141,0.06668 0.503767,0 0.84455,-0.06668 0.348192,-0.07408 0.525992,-0.214842 0.177799,-0.140758 0.177799,-0.348191 0,-0.214842 -0.177799,-0.348192 -0.1778,-0.140758 -0.525992,-0.214841 -0.340783,-0.07408 -0.84455,-0.07408 z m -2.281765,-2.948515 h 4.652431 v 0.6223 h -4.652431 z m 0,-1.652058 h 4.615389 v 0.614892 h -3.844923 v 1.437216 h -0.770466 z m 6.356348,0.4445 h 5.474756 v 0.614892 h -5.474756 z m -0.303742,3.644899 h 6.134097 v 0.622299 h -6.134097 z m 2.666999,0.533399 h 0.777875 v 1.852083 h -0.777875 z m 0.392641,-3.230032 q 1.059392,0 1.652058,0.296334 0.600075,0.296333 0.600075,0.851958 0,0.548216 -0.600075,0.844549 -0.592666,0.296333 -1.652058,0.296333 -1.066799,0 -1.659465,-0.296333 -0.592667,-0.296333 -0.592667,-0.844549 0,-0.555625 0.592667,-0.851958 0.600074,-0.296334 1.659465,-0.296334 z m 0,0.585258 q -0.711199,0 -1.081616,0.140759 -0.370416,0.140758 -0.370416,0.422275 0,0.274108 0.370416,0.414866 0.370417,0.140758 1.081616,0.140758 0.703792,0 1.074208,-0.140758 0.370417,-0.140758 0.370417,-0.414866 0,-0.281517 -0.370417,-0.422275 -0.370416,-0.140759 -1.074208,-0.140759 z m -0.392641,-2.30399 h 0.777875 v 1.177924 h -0.777875 z"
             id="text5-9-8"
             aria-label="둥후" />
          <text
             xml:space="preserve"
             transform="matrix(0.31967577,0,0,0.31967577,-16.498784,-6.8865533)"
             id="text6"
             style="font-size:55px;line-height:1.25;font-family:'Microsoft JhengHei';-inkscape-font-specification:'Microsoft JhengHei';white-space:pre;shape-inside:url(#rect6);display:inline" />
        </g>
      </g>
    </g>
  </g>
</svg>
