<?xml version="1.0" encoding="UTF-8" standalone="no"?>
<!-- Created with Inkscape (http://www.inkscape.org/) -->

<svg
   width="500"
   height="250"
   viewBox="0 0 132.29166 66.145833"
   version="1.1"
   id="svg1"
   inkscape:version="1.3.2 (091e20e, 2023-11-25, custom)"
   sodipodi:docname="br23.svg"
   xmlns:inkscape="http://www.inkscape.org/namespaces/inkscape"
   xmlns:sodipodi="http://sodipodi.sourceforge.net/DTD/sodipodi-0.dtd"
   xmlns="http://www.w3.org/2000/svg"
   xmlns:svg="http://www.w3.org/2000/svg">
  <sodipodi:namedview
     id="namedview1"
     pagecolor="#9e652e"
     bordercolor="#ffffff"
     borderopacity="1"
     inkscape:showpageshadow="0"
     inkscape:pageopacity="0"
     inkscape:pagecheckerboard="false"
     inkscape:deskcolor="#d1d1d1"
     inkscape:document-units="mm"
     inkscape:zoom="2.0208096"
     inkscape:cx="279.59091"
     inkscape:cy="146.47595"
     inkscape:window-width="1920"
     inkscape:window-height="1009"
     inkscape:window-x="1912"
     inkscape:window-y="-8"
     inkscape:window-maximized="1"
     inkscape:current-layer="layer1" />
  <defs
     id="defs1">
    <rect
       x="560.66638"
       y="34.144731"
       width="279.32397"
       height="128.59143"
       id="rect6" />
    <rect
       x="157.85752"
       y="62.351248"
       width="451.6655"
       height="145.36297"
       id="rect4" />
    <rect
       x="157.85751"
       y="62.35125"
       width="329.07602"
       height="135.09438"
       id="rect4-5" />
  </defs>
  <g
     inkscape:label="Layer 1"
     inkscape:groupmode="layer"
     id="layer1">
    <rect
       style="fill:#9e652e;fill-opacity:1;stroke:none;stroke-width:0.953294;stroke-dasharray:none"
       id="rect5"
       width="132.29167"
       height="66.145836"
       x="-2.5431316e-06"
       y="-1.2715658e-06"
       ry="0" />
    <g
       id="g4"
       transform="matrix(0.68394261,0,0,0.68394261,-4.9385639,10.452939)">
      <g
         id="g7"
         transform="matrix(1.1949088,0,0,1.1949088,-10.727502,-6.4462012)">
        <g
           id="g5"
           transform="matrix(0.82766152,0,0,0.82766152,17.509474,5.6997351)">
          <path
             id="rect1"
             style="fill-opacity:0;stroke:#f9f9f9;stroke-width:0.953294"
             d="m 10.182676,14.144197 h 12.563615 c 3.97082,0 7.167545,3.196725 7.167545,7.167545 v 23.522352 c 0,3.970819 -3.196725,7.167544 -7.167545,7.167544 H 10.182676 c -3.97082,0 -7.167545,-3.196725 -7.167545,-7.167544 V 21.311742 c 0,-3.97082 3.196725,-7.167545 7.167545,-7.167545 z" />
          <path
             style="font-size:12.7px;line-height:1.25;font-family:'AR UDJingXiHeiE1G30 EB';-inkscape-font-specification:'AR UDJingXiHeiE1G30 EB';fill:#f9f9f9;stroke-width:0.264583"
             d="M 12.825932,30.493842 H 7.9999322 v -9.1821 h 4.4195998 q 1.3081,0 2.0701,0.635 0.762,0.635 0.762,1.6891 0,0.6858 -0.3048,1.2065 -0.2921,0.508 -0.889,0.8382 0.7747,0.3048 1.1684,0.8382 0.4064,0.5334 0.4064,1.27 0,1.2192 -0.8001,1.9685 -0.8001,0.7366 -2.0066,0.7366 z m 0.7493,-6.6548 q 0,-0.6223 -0.3556,-0.9398 -0.3556,-0.3302 -1.0287,-0.3302 H 9.6128322 v 2.5908 h 2.6669998 q 0.5715,0 0.9271,-0.3302 0.3683,-0.3429 0.3683,-0.9906 z m 0.381,3.937 q 0,-0.6604 -0.4064,-1.0033 -0.3937,-0.3556 -1.0414,-0.3556 H 9.6128322 v 2.8194 h 2.8701998 q 0.6731,0 1.0668,-0.3683 0.4064,-0.3683 0.4064,-1.0922 z m 9.042408,-3.8354 q 0,-0.6731 -0.3556,-1.016 -0.3556,-0.3556 -1.028699,-0.3556 h -2.7559 v 2.8575 h 2.667 q 0.660399,0 1.066799,-0.3937 0.4064,-0.3937 0.4064,-1.0922 z m -4.140199,2.7305 v 3.8227 h -1.6129 v -9.1821 h 4.673599 q 1.2573,0 1.9939,0.6731 0.7493,0.6604 0.7493,1.8796 0,0.8001 -0.381,1.3716 -0.3683,0.5715 -0.9271,0.8128 0.7112,0.4064 1.0922,1.4097 0.381,1.0033 0.4826,3.0353 h -1.6764 q -0.0762,-2.1336 -0.4699,-2.9718 -0.381,-0.8509 -1.231899,-0.8509 z"
             id="text2"
             aria-label="BR" />
          <path
             style="font-size:14.5521px;line-height:1.25;font-family:'AR UDJingXiHeiE1G30 EB';-inkscape-font-specification:'AR UDJingXiHeiE1G30 EB';fill:#f9f9f9;stroke-width:0.264583"
             d="m 8.6791091,37.758338 q 0,-1.629835 0.9895428,-2.561169 0.9895431,-0.945887 2.5902741,-0.945887 1.644387,0 2.561169,0.82947 0.931335,0.814918 0.931335,2.270128 0,1.033199 -0.669397,2.08095 -0.654844,1.033199 -2.066398,2.28468 l -1.979086,1.789908 h 4.685777 v 1.440658 H 8.6354528 v -1.324241 l 2.9395242,-2.648482 q 1.295137,-1.178721 1.80446,-2.00819 0.523876,-0.844022 0.523876,-1.615283 0,-0.727605 -0.422011,-1.178721 -0.422011,-0.451115 -1.222376,-0.451115 -0.800366,0 -1.295137,0.55298 -0.494772,0.55298 -0.494772,1.484314 z M 20.771894,35.69194 q -0.800366,0 -1.251481,0.480219 -0.451115,0.48022 -0.451115,1.251481 H 17.27939 q 0,-1.426106 0.931334,-2.299232 0.945887,-0.873126 2.56117,-0.873126 1.498866,0 2.430201,0.742157 0.931334,0.742157 0.931334,2.124607 0,0.756709 -0.320146,1.338793 -0.320146,0.582084 -0.960439,0.887678 0.814918,0.27649 1.251481,0.931335 0.451115,0.654844 0.451115,1.557074 0,1.557075 -0.989543,2.430201 -0.989543,0.873126 -2.750347,0.873126 -1.789908,0 -2.764899,-0.858574 -0.97499,-0.858574 -0.97499,-2.342888 h 1.80446 q 0,0.785814 0.523876,1.280585 0.538427,0.480219 1.426105,0.480219 0.873126,0 1.367898,-0.480219 0.509323,-0.480219 0.509323,-1.367897 0,-0.742158 -0.465667,-1.207825 -0.465667,-0.480219 -1.338793,-0.480219 h -0.654845 v -1.440658 h 0.654845 q 0.582084,0 0.974991,-0.422011 0.407458,-0.422011 0.407458,-1.135064 0,-0.654844 -0.392906,-1.062303 -0.392907,-0.407459 -1.120512,-0.407459 z"
             id="text3"
             aria-label="23" />
          <path
             style="font-weight:500;font-size:72px;line-height:1.25;font-family:'Noto Sans TC';-inkscape-font-specification:'Noto Sans TC Medium';white-space:pre;fill:#f9f9f9"
             d="m 162.03342,81.297406 h 63.648 v 6.408 h -63.648 z m 15.264,29.808004 h 33.264 v 5.4 h -33.264 z m -1.512,11.592 h 36.216 v 5.616 h -36.216 z m 14.616,-8.928 h 6.48 v 26.064 h -6.48 z m -24.984,-19.440004 h 52.128 v 6.336004 h -45.288 v 40.68 h -6.84 z m 50.04,0 h 6.912 v 39.744004 q 0,2.736 -0.72,4.176 -0.72,1.44 -2.736,2.16 -1.944,0.72 -5.112,0.864 -3.096,0.144 -7.488,0.144 -0.216,-1.296 -0.936,-3.024 -0.648,-1.656 -1.368,-2.88 2.088,0.072 4.032,0.072 2.016,0.072 3.6,0 1.584,0 2.16,0 1.008,0 1.296,-0.288 0.36,-0.36 0.36,-1.224 z m -34.848,8.496004 5.4,-1.656 q 1.368,1.872 2.592,4.176 1.224,2.304 1.8,4.032 l -5.76,2.016 q -0.432,-1.8 -1.656,-4.176 -1.152,-2.448 -2.376,-4.392 z m 21.24,-1.656 5.76,1.728 q -1.368,2.664 -2.88,5.328 -1.512,2.664 -2.88,4.536 l -4.896,-1.512 q 0.864,-1.368 1.728,-3.168 0.936,-1.8 1.728,-3.6 0.864,-1.8 1.44,-3.312 z m -11.664,-26.280004 h 7.488 v 23.832 h -7.488 z m 70.2,33.912004 h 6.264 v 23.112 q 0,1.944 0.864,2.52 0.936,0.504 4.176,0.504 0.576,0 1.944,0 1.368,0 3.168,0 1.8,0 3.528,0 1.8,0 3.312,0 1.512,0 2.232,0 1.8,0 2.664,-0.504 0.864,-0.576 1.224,-2.232 0.432,-1.728 0.576,-5.04 1.152,0.792 2.808,1.44 1.728,0.648 3.096,1.008 -0.432,4.392 -1.44,6.84 -0.936,2.52 -2.952,3.456 -1.944,1.008 -5.472,1.008 -0.576,0 -2.16,0 -1.512,0 -3.528,0 -1.944,0 -3.96,0 -1.944,0 -3.456,0 -1.512,0 -2.088,0 -4.176,0 -6.552,-0.792 -2.376,-0.72 -3.312,-2.664 -0.936,-1.944 -0.936,-5.472 z m -24.552,-28.656004 3.816,-5.04 q 2.16,0.864 4.536,2.16 2.376,1.296 4.464,2.664 2.088,1.296 3.456,2.592 l -4.032,5.544 q -1.224,-1.224 -3.312,-2.664 -2.016,-1.44 -4.392,-2.808 -2.376,-1.44 -4.536,-2.448 z m -3.744,19.44 3.744,-5.112 q 2.232,0.792 4.608,2.016 2.376,1.152 4.464,2.448 2.088,1.296004 3.456,2.448004 l -3.96,5.688 q -1.224,-1.224 -3.312,-2.592 -2.088,-1.368 -4.464,-2.664 -2.304,-1.296 -4.536,-2.232004 z m 1.872,36.936004 q 1.728,-2.808 3.744,-6.624 2.016,-3.816 4.104,-8.136 2.088,-4.32 3.888,-8.424 l 5.328,4.104 q -1.584,3.816 -3.456,7.848 -1.8,4.032 -3.744,7.992 -1.872,3.888 -3.744,7.344 z m 29.376,-27.72 h 24.12 v 16.776 h -24.12 v -5.256 h 18 v -6.264 h -18 z m -11.016,-25.992004 h 45.144 v 6.12 h -45.144 z m -2.88,13.176 h 50.112 v 6.192004 h -50.112 z m 12.24,-21.24 h 6.624 v 25.488004 h -6.624 z m 18.936,0 h 6.696 v 25.632004 h -6.696 z m -18,25.128 5.832,2.016004 q -1.728,3.96 -4.248,7.776 -2.448,3.816 -5.4,7.056 -2.952,3.24 -6.048,5.4 -0.504,-0.792 -1.368,-1.728 -0.792,-0.936 -1.728,-1.872 -0.864,-0.936 -1.584,-1.512 2.88,-1.8 5.616,-4.536 2.808,-2.736 5.112,-5.976 2.304,-3.24 3.816,-6.624004 z m 23.76,-0.216 q 1.368,3.240004 3.6,6.408004 2.304,3.096 5.04,5.688 2.808,2.592 5.76,4.176 -0.792,0.648 -1.728,1.584 -0.936,0.936 -1.728,1.944 -0.792,1.008 -1.368,1.872 -3.096,-2.088 -6.048,-5.184 -2.88,-3.168 -5.256,-6.912 -2.376,-3.744 -4.032,-7.632 z m 57.24,-11.808 h 21.96 v 6.12 h -21.96 z m 0.576,-13.248 6.696,0.936 q -0.864,6.264 -2.232,12.096 -1.296,5.832 -3.168,10.872 -1.872,4.968004 -4.392,8.856004 -0.576,-0.576 -1.656,-1.296 -1.008,-0.72 -2.088,-1.44 -1.08,-0.72 -1.872,-1.152 2.376,-3.384 4.104,-7.920004 1.728,-4.608 2.88,-9.936 1.152,-5.4 1.728,-11.016 z m 19.944,13.248 h 1.008 l 1.008,-0.288 4.536,1.152 q -0.648,3.456 -1.44,7.128 -0.792,3.672 -1.584,7.056004 -0.792,3.312 -1.584,5.832 l -5.472,-1.44 q 0.576,-2.304 1.224,-5.4 0.648,-3.168004 1.224,-6.552004 0.648,-3.456 1.08,-6.48 z m -14.976,11.16 h 6.696 v 3.456004 q 0,4.032 -0.576,8.928 -0.504,4.896 -2.304,10.152 -1.8,5.184 -5.544,10.296 -3.744,5.04 -10.152,9.432 -0.504,-0.792 -1.44,-1.728 -0.864,-0.864 -1.872,-1.728 -1.008,-0.864 -1.872,-1.44 5.976,-3.888 9.36,-8.352 3.456,-4.536 5.112,-9.072 1.656,-4.608 2.088,-8.856 0.504,-4.248 0.504,-7.776 z m 6.552,8.784004 q 1.224,6.12 3.384,11.664 2.16,5.472 5.4,9.72 3.312,4.176 7.848,6.48 -0.792,0.648 -1.656,1.656 -0.864,1.008 -1.656,2.088 -0.792,1.08 -1.368,2.016 -4.824,-2.952 -8.28,-7.776 -3.456,-4.824 -5.688,-11.16 -2.232,-6.408 -3.672,-13.68 z m -50.328,-25.776004 h 30.96 v 6.048 h -30.96 z m -0.72,41.400004 h 32.688 v 6.048 h -32.688 z m 13.536,-48.816004 h 5.688 v 20.592 h -5.688 z m 0.36,20.448 h 4.824 v 20.520004 h 0.432 v 25.848 h -5.688 v -25.848 h 0.432 z m -6.408,12.744004 v 5.544 h 17.568 v -5.544 z m 0,-10.080004 v 5.400004 h 17.568 v -5.400004 z m -4.968,-4.968 h 27.648 v 25.560004 h -27.648 z m 99.072,13.032004 h 36.432 v 4.968 h -36.432 z m -0.792,29.304 h 37.872 v 5.112 h -37.872 z m 10.944,-60.408004 h 5.4 v 8.856 h -5.4 z m 9.648,0 h 5.472 v 8.856 h -5.472 z m -13.32,18.72 v 4.464 h 22.896 v -4.464 z m 0,-8.64 v 4.32 h 22.896 v -4.32 z m -5.184,-4.68 h 33.48 v 22.464004 h -33.48 z m 7.848,38.016004 v 5.04 h 17.64 v -5.04 z m -5.976,-4.32 h 29.952 v 13.68 h -29.952 z m 20.88,13.536 6.12,1.728 q -1.368,2.376 -2.736,4.824 -1.368,2.448 -2.448,4.104 l -4.464,-1.584 q 0.936,-1.944 1.944,-4.536 1.008,-2.592 1.584,-4.536 z m -17.568,1.656 5.184,-1.512 q 0.936,1.944 1.8,4.32 0.936,2.376 1.44,4.104 l -5.4,1.8 q -0.36,-1.728 -1.224,-4.176 -0.864,-2.52 -1.8,-4.536 z m 4.752,-46.440004 h 4.32 v 18.072004 h -4.32 z m 8.856,0 h 4.392 v 18.072004 h -4.392 z m -42.984,23.544004 h 16.344 v 4.608 h -16.344 z m 13.176,0 h 5.688 v 29.088 q 0,2.016 -0.504,3.168 -0.432,1.152 -1.728,1.872 -1.296,0.648 -3.312,0.792 -2.016,0.144 -4.968,0.144 -0.144,-1.08 -0.72,-2.592 -0.504,-1.44 -1.008,-2.52 1.872,0.072 3.456,0.072 1.584,0 2.088,-0.072 1.008,0 1.008,-0.936 z m -16.416,-29.016004 h 22.32 v 22.536 h -5.688 v -17.496 h -11.232 v 17.496 h -5.4 z m -2.88,20.304 h 28.224 v 10.800004 h -5.256 v -6.048 h -17.928 v 6.048 h -5.04 z m 12.024,-11.376 h 11.232 v 4.032 h -7.488 v 9 h -3.744 z m -8.496,20.088004 h 5.616 v 13.68 q 0,3.312 -0.36,7.272 -0.36,3.96 -1.44,7.848 -1.008,3.816 -3.096,6.84 -0.432,-0.504 -1.368,-1.224 -0.864,-0.648 -1.8,-1.296 -0.936,-0.576 -1.584,-0.864 1.872,-2.808 2.736,-5.976 0.864,-3.24 1.08,-6.552 0.216,-3.312 0.216,-6.192 z m 4.896,21.456 q 2.664,-1.08 6.12,-2.808 3.528,-1.728 7.272,-3.672 l 1.08,3.528 q -3.168,2.016 -6.264,3.96 -3.024,1.944 -5.832,3.6 z m 0.504,-11.592 2.952,-3.024 q 2.016,1.296 4.104,2.88 2.16,1.512 3.312,2.664 l -3.096,3.528 q -1.152,-1.224 -3.24,-2.952 -2.088,-1.8 -4.032,-3.096 z m 74.736,-19.656004 h 41.544 v 4.032004 h -41.544 z m 3.888,-7.704 h 34.272 v 3.96 h -34.272 z m 13.68,-3.6 h 6.192 v 13.68 h -6.192 z m -0.216,25.992004 4.68,1.728 q -2.376,2.088 -5.832,3.96 -3.456,1.8 -7.272,3.312 -3.744,1.44 -7.344,2.448 -0.288,-0.504 -0.936,-1.152 -0.576,-0.72 -1.224,-1.44 -0.648,-0.792 -1.224,-1.224 3.528,-0.864 7.128,-1.944 3.6,-1.152 6.768,-2.592 3.168,-1.44 5.256,-3.096 z m 20.232,3.6 4.248,2.664 q -2.376,1.728 -5.112,3.24 -2.736,1.512 -5.112,2.592 l -3.456,-2.376 q 1.512,-0.792 3.24,-1.872 1.8,-1.08 3.384,-2.16 1.656,-1.152 2.808,-2.088 z m -27.648,-8.568 v 4.104 h 21.816 v -4.104 z m -5.688,-3.312 h 33.552 v 10.656 h -33.552 z m -13.752,-25.056004 h 60.912 v 63.936004 h -6.696 V 83.817406 h -47.736 v 57.744004 h -6.48 z m 4.104,54.864004 h 53.712 v 6.192 h -53.712 z m 24.552,-15.624 4.176,-2.376 q 3.096,1.728 6.624,4.032 3.528,2.304 6.768,4.608 3.24,2.232 5.4,4.032 l -4.464,2.808 q -1.944,-1.8 -5.112,-4.104 -3.096,-2.376 -6.624,-4.68 -3.528,-2.376 -6.768,-4.32 z m -11.592,15.192 -0.288,-3.888 2.16,-1.8 14.112,-3.312 q -0.072,1.008 -0.072,2.232 0,1.224 0.072,2.016 -4.824,1.224 -7.848,2.088 -2.952,0.792 -4.608,1.296 -1.656,0.504 -2.376,0.864 -0.72,0.288 -1.152,0.504 z m 0,0 q -0.216,-0.864 -0.792,-2.016 -0.504,-1.224 -0.936,-1.8 0.792,-0.36 1.656,-1.152 0.936,-0.864 0.936,-2.808 v -8.136 h 5.04 v 11.88 q 0,0 -0.936,0.432 -0.864,0.36 -2.016,1.008 -1.152,0.576 -2.088,1.296 -0.864,0.648 -0.864,1.296 z m 81.792,-39.600004 v 7.272 h 14.472 v -7.272 z m -6.336,-4.68 h 27.576 v 16.560004 h -27.576 z m -2.016,25.488004 v 9.432 h 7.776 v -9.432 z m -5.688,-4.752 h 19.368 v 18.936 h -19.368 z m 29.232,4.752 v 9.432 h 8.28 v -9.432 z m -5.688,-4.752 h 19.944 v 18.936 h -19.944 z m -37.728,-30.888004 h 61.056 v 6.048 h -61.056 z m 2.88,0.288 h 6.696 v 45.504004 q 0,3.168 0.936,5.112 0.936,1.872 3.168,2.736 2.232,0.864 6.048,0.864 1.152,0 3.528,0 2.376,0 5.4,0 3.096,0 6.408,0 3.384,0 6.552,0 3.168,0 5.616,0 2.52,0 3.816,0 2.088,0 4.464,-0.072 2.376,-0.144 4.536,-0.288 2.232,-0.216 3.6,-0.432 0.144,0.792 0.288,2.088 0.144,1.224 0.36,2.376 0.216,1.152 0.36,1.944 -1.152,0.288 -3.312,0.432 -2.16,0.216 -4.968,0.216 -2.736,0.072 -5.544,0.072 -1.296,0 -3.816,0 -2.52,0 -5.76,0 -3.168,0 -6.552,0 -3.312,0 -6.336,0 -3.024,0 -5.184,0 -2.088,0 -2.808,0 -5.904,0 -9.792,-1.44 -3.888,-1.368 -5.832,-4.752 -1.872,-3.456 -1.872,-9.288 z"
             id="text4"
             transform="matrix(0.26458333,0,0,0.26458333,-8.0629803,-4.4771203)"
             aria-label="南港軟體園區" />
          <path
             style="font-size:7.40833px;line-height:1.25;font-family:'AR UDJingXiHeiE1G30 EB';-inkscape-font-specification:'AR UDJingXiHeiE1G30 EB';fill:#f9f9f9;stroke-width:0.264583"
             d="m 35.875154,37.106336 v 3.867148 h -0.940858 v -5.356223 h 0.970491 l 2.629957,3.956048 v -3.956048 h 0.940858 v 5.356223 h -1.029758 z m 7.682433,1.703916 -0.84455,-2.289174 -0.859366,2.289174 z m -1.978024,0.733424 -0.5334,1.429808 h -0.955675 l 2.155824,-5.356223 h 0.963083 l 2.141008,5.356223 h -0.9779 l -0.540808,-1.429808 z m 5.326582,-2.43734 v 3.867148 h -0.940857 v -5.356223 h 0.970491 l 2.629957,3.956048 v -3.956048 h 0.940858 v 5.356223 h -1.029758 z m 8.764049,3.215215 q -0.274109,0.385233 -0.688975,0.570441 -0.407458,0.1778 -0.93345,0.1778 -1.155699,0 -1.837265,-0.726016 -0.681567,-0.733425 -0.681567,-2.044699 0,-1.318683 0.718608,-2.044699 0.718608,-0.726017 1.940983,-0.726017 0.985308,0 1.600199,0.451908 0.6223,0.4445 0.748241,1.274233 H 55.59611 q -0.07408,-0.437091 -0.437091,-0.711199 -0.3556,-0.281517 -0.970491,-0.281517 -0.822325,0 -1.252008,0.5334 -0.429683,0.525991 -0.429683,1.503891 0,1.044574 0.451908,1.540932 0.451908,0.48895 1.229783,0.48895 0.681566,0 1.081616,-0.40005 0.40005,-0.400049 0.40005,-0.918633 v -0.111125 h -1.518708 v -0.733424 h 2.422524 v 2.807757 h -0.903816 z m 4.86727,-1.511299 -0.844549,-2.289174 -0.859367,2.289174 z m -1.978024,0.733424 -0.5334,1.429808 h -0.955674 l 2.155824,-5.356223 h 0.963083 l 2.141007,5.356223 h -0.977899 l -0.540808,-1.429808 z m 5.326582,-2.43734 v 3.867148 h -0.940858 v -5.356223 h 0.970491 l 2.629957,3.956048 v -3.956048 h 0.940858 v 5.356223 h -1.029758 z m 8.764049,3.215215 q -0.274108,0.385233 -0.688975,0.570441 -0.407458,0.1778 -0.933449,0.1778 -1.1557,0 -1.837266,-0.726016 -0.681566,-0.733425 -0.681566,-2.044699 0,-1.318683 0.718608,-2.044699 0.718608,-0.726017 1.940982,-0.726017 0.985308,0 1.600199,0.451908 0.6223,0.4445 0.748242,1.274233 h -0.940858 q -0.07408,-0.437091 -0.437092,-0.711199 -0.3556,-0.281517 -0.970491,-0.281517 -0.822325,0 -1.252008,0.5334 -0.429683,0.525991 -0.429683,1.503891 0,1.044574 0.451908,1.540932 0.451908,0.48895 1.229783,0.48895 0.681566,0 1.081616,-0.40005 0.40005,-0.400049 0.40005,-0.918633 v -0.111125 h -1.518708 v -0.733424 h 2.422524 v 2.807757 h -0.903816 z m 5.734038,-1.770591 q -0.977899,-0.1778 -1.452033,-0.548216 -0.474133,-0.370417 -0.474133,-1.037167 0,-0.622299 0.503767,-1.029758 0.511175,-0.407458 1.570566,-0.407458 0.970491,0 1.503891,0.414867 0.533399,0.414866 0.585258,1.200149 h -0.940858 q -0.0074,-0.377825 -0.296333,-0.629708 -0.288925,-0.251883 -0.881592,-0.251883 -0.555624,0 -0.822324,0.185208 -0.2667,0.185208 -0.259292,0.518583 0,0.363009 0.3556,0.540808 0.363008,0.1778 1.177925,0.340784 1.022349,0.207433 1.452032,0.563033 0.437092,0.3556 0.437092,1.066799 0,0.681567 -0.57785,1.140883 -0.57785,0.451908 -1.644649,0.451908 -1.089025,0 -1.696508,-0.459316 -0.607483,-0.459317 -0.607483,-1.326091 h 0.940858 q 0,0.481541 0.363008,0.770466 0.363008,0.281516 1.007533,0.281516 0.592666,0 0.926041,-0.229658 0.333375,-0.229658 0.333375,-0.600074 0,-0.429684 -0.333375,-0.614892 -0.333375,-0.185208 -1.170516,-0.340783 z m 8.489946,-0.229658 q 0,1.289049 -0.718608,2.022474 -0.7112,0.726016 -1.948391,0.726016 -1.259416,0 -1.970615,-0.733425 -0.7112,-0.733424 -0.7112,-2.015065 0,-1.303866 0.718608,-2.044699 0.718608,-0.748242 1.963207,-0.748242 1.259416,0 1.963208,0.740833 0.703791,0.740833 0.703791,2.052108 z m -2.666999,2.015065 q 0.807508,0 1.2446,-0.533399 0.4445,-0.5334 0.4445,-1.481666 0,-0.940858 -0.4445,-1.496483 -0.4445,-0.563033 -1.2446,-0.563033 -0.814916,0 -1.266824,0.570441 -0.4445,0.563033 -0.4445,1.489075 0,0.948266 0.451908,1.481666 0.451908,0.533399 1.259416,0.533399 z m 4.630207,-1.740957 v 2.378074 h -0.940858 v -5.356223 h 3.756023 v 0.733425 h -2.815165 v 1.511299 h 2.474382 v 0.733425 z m 4.741338,-2.244724 h -1.666875 v -0.733425 h 4.267198 v 0.733425 h -1.659466 v 4.622798 h -0.940857 z m 6.163728,0.511175 -1.081616,4.111623 h -0.970492 l -1.377949,-5.356223 h 1.000125 l 0.896408,4.059765 1.044574,-4.059765 h 0.992721 l 1.02975,4.059765 0.94827,-4.059765 h 0.97049 l -1.41499,5.356223 h -0.97049 z m 6.949011,1.948391 -0.84455,-2.289174 -0.85936,2.289174 z m -1.97802,0.733424 -0.5334,1.429808 h -0.95568 l 2.15583,-5.356223 h 0.96308 l 2.14101,5.356223 h -0.9779 l -0.54081,-1.429808 z m 7.7417,-2.39289 q 0,-0.392642 -0.20743,-0.592667 -0.20744,-0.207433 -0.60008,-0.207433 h -1.60761 v 1.666874 h 1.55575 q 0.38524,0 0.6223,-0.229658 0.23707,-0.229658 0.23707,-0.637116 z m -2.41512,1.592791 v 2.229907 h -0.94085 v -5.356223 h 2.72626 q 0.73343,0 1.16311,0.392642 0.43709,0.385233 0.43709,1.096433 0,0.466724 -0.22225,0.800099 -0.21484,0.333375 -0.54081,0.474133 0.41487,0.237067 0.63712,0.822325 0.22225,0.585258 0.28151,1.770591 h -0.97789 q -0.0444,-1.2446 -0.27411,-1.733549 -0.22225,-0.496358 -0.71861,-0.496358 z m 8.4381,2.229907 h -3.96346 v -5.356223 h 3.94123 v 0.733425 h -3.00037 v 1.511299 h 2.80035 v 0.733425 h -2.80035 v 1.644649 h 3.0226 z m 3.87455,-2.126191 v 2.126191 h -0.94086 v -5.356223 h 2.51883 q 0.78529,0 1.22979,0.429683 0.44449,0.429684 0.44449,1.140883 0,0.8001 -0.45931,1.229783 -0.45191,0.429683 -1.22238,0.429683 z m 2.29658,-1.644649 q 0,-0.414867 -0.23707,-0.629708 -0.23706,-0.22225 -0.69638,-0.22225 h -1.36313 v 1.763182 h 1.36313 q 0.45932,0 0.69638,-0.222249 0.23707,-0.229659 0.23707,-0.688975 z m 4.7117,1.607608 -0.84455,-2.289174 -0.85937,2.289174 z m -1.97803,0.733424 -0.5334,1.429808 h -0.95567 l 2.15582,-5.356223 h 0.96309 l 2.141,5.356223 h -0.9779 l -0.5408,-1.429808 z m 7.74171,-2.39289 q 0,-0.392642 -0.20744,-0.592667 -0.20743,-0.207433 -0.60007,-0.207433 h -1.60761 v 1.666874 h 1.55575 q 0.38523,0 0.6223,-0.229658 0.23707,-0.229658 0.23707,-0.637116 z m -2.41512,1.592791 v 2.229907 h -0.94086 v -5.356223 h 2.72627 q 0.73342,0 1.16311,0.392642 0.43709,0.385233 0.43709,1.096433 0,0.466724 -0.22225,0.800099 -0.21484,0.333375 -0.54081,0.474133 0.41487,0.237067 0.63712,0.822325 0.22225,0.585258 0.28151,1.770591 h -0.9779 q -0.0445,-1.2446 -0.27411,-1.733549 -0.22225,-0.496358 -0.7186,-0.496358 z m 5.41549,0.385233 v 1.844674 h -0.94086 v -5.356223 h 0.94086 v 2.422524 l 2.34844,-2.422524 h 1.14829 l -2.16323,2.170641 2.24472,3.185582 h -1.14088 l -1.73355,-2.570691 z"
             id="text5"
             aria-label="NANGANG SOFTWARE PARK" />
          <path
             d="m 34.61816,44.206802 h 6.548963 v 0.659342 H 34.61816 Z m 1.570566,3.067049 h 3.422648 v 0.555625 h -3.422648 z m -0.155575,1.192741 h 3.72639 v 0.57785 h -3.72639 z m 1.503891,-0.918633 h 0.666749 v 2.681815 H 37.537042 Z M 34.966351,45.54771 h 5.363631 v 0.651933 h -4.659839 v 4.185706 h -0.703792 z m 5.14879,0 h 0.711199 v 4.089398 q 0,0.281517 -0.07408,0.429683 -0.07408,0.148167 -0.281517,0.22225 -0.200025,0.07408 -0.525991,0.0889 -0.318558,0.01482 -0.770466,0.01482 -0.02223,-0.13335 -0.09631,-0.31115 -0.06667,-0.170392 -0.140758,-0.296333 0.214842,0.0074 0.414867,0.0074 0.207433,0.0074 0.370416,0 0.162983,0 0.22225,0 0.103717,0 0.13335,-0.02963 0.03704,-0.03704 0.03704,-0.125942 z m -3.585632,0.874183 0.555625,-0.170392 q 0.140758,0.192617 0.266699,0.429683 0.125942,0.237067 0.185209,0.414867 l -0.592667,0.207433 q -0.04445,-0.185208 -0.170391,-0.429683 -0.118534,-0.251883 -0.244475,-0.451908 z m 2.185457,-0.170392 0.592667,0.1778 q -0.140759,0.274108 -0.296334,0.548217 -0.155575,0.274108 -0.296333,0.466724 L 38.2112,47.288667 q 0.0889,-0.140758 0.1778,-0.325966 0.09631,-0.185208 0.1778,-0.370417 0.0889,-0.185208 0.148166,-0.340783 z m -1.200149,-2.70404 h 0.770466 v 2.452157 h -0.770466 z m 6.393388,0.777875 h 4.645023 v 0.637116 h -4.645023 z m -0.296333,1.363132 h 5.156198 v 0.637117 h -5.156198 z m 1.259416,-2.155824 h 0.681567 v 2.622549 h -0.681567 z m 1.948391,0 h 0.688975 v 2.637366 h -0.688975 z m -1.852082,2.555874 0.600074,0.207433 q -0.1778,0.407458 -0.437091,0.8001 -0.251883,0.392641 -0.555625,0.726016 -0.303741,0.333375 -0.6223,0.555625 -0.05186,-0.08149 -0.140758,-0.1778 -0.08149,-0.103717 -0.1778,-0.192616 -0.0889,-0.09631 -0.162983,-0.155575 0.296333,-0.185209 0.57785,-0.466725 0.288925,-0.281517 0.525991,-0.614892 0.237067,-0.340783 0.392642,-0.681566 z m 2.444749,-0.02222 q 0.140758,0.325967 0.370416,0.651933 0.237067,0.325967 0.518583,0.592666 0.288925,0.259292 0.592667,0.429684 -0.08149,0.06668 -0.1778,0.162983 -0.09631,0.0889 -0.1778,0.200025 -0.08149,0.103716 -0.140759,0.192616 -0.318558,-0.214841 -0.622299,-0.533399 -0.296333,-0.325967 -0.540808,-0.7112 -0.244475,-0.385233 -0.414867,-0.785283 z m -2.489199,2.163232 h 1.881715 v -0.681566 h -1.785407 v -0.555625 h 2.429932 v 1.800224 h -2.52624 z m -0.296334,0 h 0.659342 v 1.28905 q 0,0.155575 0.09631,0.207433 0.09631,0.04445 0.4445,0.04445 0.05927,0 0.200025,0 0.140758,0 0.325966,0 0.185209,0 0.370417,0 0.185208,0 0.340783,0 0.155575,0 0.237067,0 0.185208,0 0.274108,-0.05186 0.09631,-0.05927 0.13335,-0.229659 0.04445,-0.177799 0.06668,-0.525991 0.111125,0.08149 0.288925,0.148167 0.185208,0.06667 0.318558,0.09631 -0.03704,0.474133 -0.140758,0.726016 -0.103717,0.259292 -0.31115,0.3556 -0.207434,0.09631 -0.585258,0.09631 -0.05186,0 -0.214842,0 -0.162983,0 -0.370416,0 -0.200025,0 -0.407459,0 -0.207433,0 -0.370416,0 -0.155575,0 -0.207433,0 -0.4445,0 -0.696383,-0.07408 -0.251884,-0.07408 -0.3556,-0.259291 -0.09631,-0.185209 -0.09631,-0.525992 z m -2.415115,-4.141256 0.392641,-0.518583 q 0.22225,0.0889 0.466725,0.22225 0.244475,0.13335 0.459317,0.274108 0.214841,0.13335 0.355599,0.2667 l -0.414866,0.570441 Q 43.345172,44.777244 43.130331,44.629077 42.922898,44.48091 42.678423,44.340152 42.433948,44.191986 42.211698,44.088269 Z m -0.385233,2.000249 0.385233,-0.525991 q 0.229658,0.08149 0.474133,0.207433 0.244475,0.118533 0.459316,0.251883 0.214842,0.13335 0.3556,0.251883 l -0.407458,0.585258 q -0.125941,-0.125941 -0.340783,-0.2667 -0.214842,-0.140758 -0.459316,-0.274108 -0.237067,-0.13335 -0.466725,-0.229658 z m 0.192616,3.800473 q 0.1778,-0.288925 0.385233,-0.681566 0.207434,-0.392642 0.422275,-0.837141 0.214842,-0.4445 0.40005,-0.866775 l 0.548217,0.422275 q -0.162984,0.392641 -0.3556,0.807508 -0.185209,0.414866 -0.385233,0.822324 -0.192617,0.40005 -0.385234,0.75565 z m 8.87518,-0.451908 q 0.918633,-0.370416 1.540932,-0.918633 0.629708,-0.555624 1.044575,-1.155699 0.414866,-0.614892 0.607483,-1.229783 0.200025,-0.6223 0.296333,-1.111249 0.03704,-0.192617 0.05186,-0.40005 0.02222,-0.214842 0.02222,-0.325967 l 0.93345,0.125942 q -0.05186,0.1778 -0.103717,0.385233 -0.04445,0.200025 -0.07408,0.318558 -0.13335,0.659342 -0.370416,1.3335 -0.237067,0.666749 -0.644525,1.296457 -0.437092,0.66675 -1.074208,1.259416 -0.637116,0.592667 -1.533524,1.02235 z m -0.318559,-5.082114 q 0.125942,0.192616 0.296334,0.474133 0.1778,0.281516 0.363008,0.600075 0.185208,0.31115 0.340783,0.592666 0.155575,0.281517 0.259292,0.466725 l -0.763058,0.429683 q -0.125942,-0.2667 -0.288925,-0.57785 -0.162984,-0.31115 -0.340783,-0.614891 -0.170392,-0.303742 -0.333375,-0.563033 -0.155575,-0.259292 -0.281517,-0.422275 z m 12.305237,0.496358 q -0.03704,0.0889 -0.07408,0.207433 -0.02963,0.111125 -0.05927,0.22225 -0.05927,0.281517 -0.155575,0.629708 -0.09631,0.348192 -0.237067,0.718608 -0.13335,0.370417 -0.31115,0.726016 -0.1778,0.348192 -0.40005,0.644525 -0.340783,0.437092 -0.770466,0.814916 -0.422275,0.377825 -0.963083,0.681567 -0.540808,0.296333 -1.214966,0.511175 l -0.637116,-0.696383 q 0.733424,-0.1778 1.266824,-0.437092 0.5334,-0.2667 0.926041,-0.600075 0.40005,-0.340783 0.703792,-0.726016 0.259291,-0.325966 0.444499,-0.726016 0.185209,-0.40005 0.31115,-0.8001 0.125942,-0.407458 0.170392,-0.748241 -0.103717,0 -0.385233,0 -0.274108,0 -0.644525,0 -0.370416,0 -0.777875,0 -0.400049,0 -0.777874,0 -0.370417,0 -0.651933,0 -0.281517,0 -0.40005,0 -0.237067,0 -0.451908,0.0074 -0.207433,0.0074 -0.348192,0.02222 v -0.829733 q 0.103717,0.01482 0.244475,0.02963 0.140758,0.0074 0.288925,0.02222 0.148167,0.0074 0.2667,0.0074 0.103717,0 0.325966,0 0.229659,0 0.525992,0 0.303741,0 0.644525,0 0.340783,0 0.674158,0 0.340783,0 0.629708,0 0.296333,0 0.503766,0 0.207433,0 0.288925,0 0.09631,0 0.22225,-0.0074 0.13335,-0.01482 0.251883,-0.04445 z M 66.24432,49.0963 q 0,-0.118533 0,-0.429683 0,-0.318558 0,-0.748241 0,-0.437092 0,-0.903817 0,-0.474133 0,-0.918633 0,-0.444499 0,-0.785283 0,-0.340783 0,-0.496358 0,-0.1778 -0.01482,-0.407458 -0.01482,-0.237066 -0.05186,-0.422275 h 0.911225 q -0.01482,0.1778 -0.03704,0.407458 -0.01482,0.229659 -0.01482,0.422275 0,0.251884 0,0.637117 0,0.377824 0,0.822324 0,0.4445 0,0.896408 0,0.451908 0,0.851958 0,0.392642 0,0.681567 0,0.288924 0,0.392641 0,0.118533 0.0074,0.288925 0.0074,0.170391 0.02222,0.348191 0.01482,0.170392 0.02963,0.31115 h -0.911224 q 0.02963,-0.192616 0.04445,-0.459316 0.01482,-0.274108 0.01482,-0.48895 z m 0.6223,-3.178174 q 0.363008,0.103717 0.814916,0.259292 0.451908,0.148167 0.911225,0.325967 0.459316,0.170391 0.874183,0.340783 0.414866,0.170391 0.703791,0.31115 l -0.333375,0.807508 q -0.31115,-0.170392 -0.703791,-0.340784 -0.385233,-0.1778 -0.792691,-0.340783 -0.407458,-0.162983 -0.792692,-0.296333 -0.377824,-0.13335 -0.681566,-0.229658 z m 8.46772,-2.12619 q -0.02222,0.200025 -0.03704,0.340783 -0.0074,0.13335 -0.0074,0.274108 0,0.0889 0,0.281517 0,0.192616 0,0.400049 0,0.200025 0,0.340784 h -0.800099 q 0,-0.155575 0,-0.363008 0,-0.207434 0,-0.385234 0,-0.185208 0,-0.274108 0,-0.140758 -0.0074,-0.274108 -0.0074,-0.140758 -0.04445,-0.340783 z m 2.518832,1.496482 q -0.03704,0.09631 -0.07408,0.251884 -0.03704,0.148166 -0.05186,0.251883 -0.03704,0.244475 -0.103717,0.518583 -0.05927,0.2667 -0.148166,0.548216 -0.0889,0.281517 -0.207434,0.563033 -0.111125,0.281517 -0.251883,0.540809 -0.288925,0.511174 -0.726016,0.933449 -0.437092,0.422275 -1.007533,0.733425 -0.570441,0.303741 -1.237191,0.48895 l -0.607483,-0.703792 q 0.214841,-0.03704 0.451908,-0.103716 0.237066,-0.06667 0.437091,-0.140759 0.340784,-0.118533 0.688975,-0.318558 0.348192,-0.200025 0.651933,-0.474133 0.303742,-0.274108 0.525992,-0.600075 0.192616,-0.296333 0.325966,-0.644524 0.140758,-0.3556 0.229658,-0.718608 0.0889,-0.363009 0.125942,-0.681567 h -3.941232 q 0,0.111125 0,0.281517 0,0.162983 0,0.348191 0,0.185208 0,0.348192 0,0.155575 0,0.237066 0,0.111125 0.0074,0.251884 0.0074,0.140758 0.02222,0.237066 h -0.807508 q 0.01482,-0.118533 0.02223,-0.2667 0.0074,-0.148166 0.0074,-0.2667 0,-0.0889 0,-0.259291 0,-0.1778 0,-0.377825 0,-0.207433 0,-0.377825 0,-0.1778 0,-0.281516 0,-0.118534 -0.0074,-0.296334 -0.0074,-0.1778 -0.02223,-0.303741 0.170391,0.01482 0.340783,0.02963 0.1778,0.0074 0.377825,0.0074 h 3.911598 q 0.22225,0 0.348191,-0.02223 0.125942,-0.02222 0.207434,-0.05186 z m 2.274361,0.57785 q 0.118533,0.01482 0.274108,0.02963 0.162983,0.0074 0.2667,0.0074 h 3.407831 q 0.13335,0 0.274109,-0.0074 0.148166,-0.01482 0.2667,-0.02963 v 0.740833 q -0.125942,-0.01482 -0.274109,-0.01482 -0.140758,-0.0074 -0.2667,-0.0074 h -3.407831 q -0.09631,0 -0.259292,0.0074 -0.162983,0 -0.281516,0.01482 z m 1.81504,3.689348 v -3.274481 h 0.763058 v 3.274481 z m -2.185457,-0.437091 q 0.13335,0.01482 0.281517,0.02963 0.155575,0.0074 0.281516,0.0074 h 4.096807 q 0.148166,0 0.281516,-0.0074 0.13335,-0.01482 0.244475,-0.02963 V 49.8964 q -0.111125,-0.02222 -0.274108,-0.02963 -0.155575,0 -0.251883,0 h -4.096807 q -0.125941,0 -0.274108,0 -0.148167,0.0074 -0.288925,0.02963 z m 13.268318,-4.34869 q -0.05186,0.05927 -0.125942,0.155575 -0.06667,0.0889 -0.118533,0.155575 -0.155575,0.274108 -0.437091,0.644525 -0.274108,0.370416 -0.629708,0.748241 -0.348192,0.370417 -0.748242,0.651933 l -0.614891,-0.496358 q 0.244475,-0.140758 0.474133,-0.333375 0.237067,-0.200025 0.437092,-0.414866 0.207433,-0.214842 0.363008,-0.414867 0.155575,-0.207433 0.237066,-0.370416 -0.103716,0 -0.3556,0 -0.244474,0 -0.592666,0 -0.340783,0 -0.733425,0 -0.385233,0 -0.770466,0 -0.385233,0 -0.718608,0 -0.333375,0 -0.570441,0 -0.237067,0 -0.318559,0 -0.222249,0 -0.429683,0.01482 -0.207433,0.0074 -0.444499,0.02963 v -0.822325 q 0.207433,0.02223 0.429683,0.04445 0.22225,0.02222 0.444499,0.02222 0.08149,0 0.325967,0 0.244475,0 0.585258,0 0.348192,0 0.748241,0 0.40005,0 0.8001,0 0.40005,0 0.748241,0 0.348192,0 0.592667,0 0.244475,0 0.340783,0 0.08149,0 0.200025,0 0.125941,-0.0074 0.237066,-0.02222 0.118534,-0.01482 0.1778,-0.02963 z m -2.992965,0.985308 q 0,0.57785 -0.02963,1.096433 -0.02963,0.518583 -0.140758,0.985308 -0.103716,0.459316 -0.325966,0.866775 -0.22225,0.400049 -0.600075,0.755649 -0.377825,0.3556 -0.963083,0.651933 l -0.681566,-0.555625 q 0.162983,-0.05186 0.348191,-0.140758 0.192617,-0.09631 0.363008,-0.22225 0.40005,-0.259291 0.644525,-0.563033 0.244475,-0.303741 0.363008,-0.651933 0.125942,-0.3556 0.170392,-0.763058 0.05186,-0.407458 0.05186,-0.866774 0,-0.148167 -0.0074,-0.288925 -0.0074,-0.140759 -0.03704,-0.303742 z m 9.134466,-1.214966 q 0,0.192617 0.13335,0.325967 0.13335,0.13335 0.325966,0.13335 0.192617,0 0.325967,-0.13335 0.140762,-0.13335 0.140762,-0.325967 0,-0.192616 -0.140762,-0.325966 -0.13335,-0.140759 -0.325967,-0.140759 -0.192616,0 -0.325966,0.140759 -0.13335,0.13335 -0.13335,0.325966 z m -0.392642,0 q 0,-0.237066 0.111125,-0.429683 0.118534,-0.192617 0.31115,-0.31115 0.192617,-0.118533 0.429683,-0.118533 0.237067,0 0.429679,0.118533 0.19262,0.118533 0.31115,0.31115 0.11854,0.192617 0.11854,0.429683 0,0.237067 -0.11854,0.429683 -0.11853,0.192617 -0.31115,0.31115 -0.192612,0.111125 -0.429679,0.111125 -0.237066,0 -0.429683,-0.111125 -0.192616,-0.118533 -0.31115,-0.31115 -0.111125,-0.192616 -0.111125,-0.429683 z m -3.933823,2.978149 q 0.118533,-0.303742 0.229658,-0.644525 0.118534,-0.340783 0.214842,-0.703791 0.09631,-0.370417 0.162983,-0.733425 0.07408,-0.363008 0.111125,-0.696383 l 0.837141,0.170392 q -0.02223,0.09631 -0.05186,0.214841 -0.02963,0.111125 -0.05927,0.22225 -0.02223,0.111125 -0.04445,0.192617 -0.03704,0.1778 -0.103716,0.459316 -0.05927,0.274108 -0.148167,0.592666 -0.0889,0.31115 -0.192616,0.637117 -0.09631,0.318558 -0.207434,0.592666 -0.13335,0.348192 -0.311149,0.718608 -0.1778,0.363008 -0.377825,0.7112 -0.200025,0.348191 -0.40005,0.637116 l -0.807508,-0.340783 q 0.348191,-0.459316 0.651933,-1.007533 0.303742,-0.555624 0.496358,-1.022349 z m 3.652307,-0.229659 q -0.111125,-0.288924 -0.251883,-0.614891 -0.13335,-0.325966 -0.281517,-0.651933 -0.140758,-0.333375 -0.281517,-0.6223 -0.140758,-0.288925 -0.259291,-0.496358 l 0.763058,-0.251883 q 0.111125,0.207433 0.251883,0.496358 0.148167,0.288925 0.296333,0.6223 0.148167,0.325966 0.288925,0.651933 0.140758,0.325966 0.251883,0.607483 0.103717,0.2667 0.22225,0.600075 0.125942,0.333375 0.244475,0.688974 0.125942,0.348192 0.229658,0.681567 0.103716,0.325966 0.177796,0.592666 l -0.844545,0.274108 q -0.09631,-0.407458 -0.229658,-0.851958 -0.13335,-0.444499 -0.281517,-0.888999 -0.140758,-0.4445 -0.296333,-0.837142 z m 2.941113,-0.814916 q 0.12594,0.0074 0.30374,0.02222 0.18521,0.0074 0.39264,0.01482 0.21484,0.0074 0.40746,0.0074 0.14816,0 0.40746,0 0.25929,0 0.58525,0 0.33338,0 0.69639,0 0.36301,0 0.71861,0 0.363,0 0.68156,0 0.31856,0 0.56303,0 0.24448,0 0.37783,0 0.2667,0 0.48154,-0.01482 0.21484,-0.02222 0.34819,-0.02963 v 0.918633 q -0.12594,-0.0074 -0.3556,-0.02222 -0.22966,-0.01482 -0.47413,-0.01482 -0.12594,0 -0.37783,0 -0.24447,0 -0.56303,0 -0.31856,0 -0.68156,0 -0.3556,0 -0.71861,0 -0.36301,0 -0.69639,0 -0.32596,0 -0.58525,0 -0.2593,0 -0.40746,0 -0.30374,0 -0.60749,0.01482 -0.30374,0.0074 -0.49635,0.02222 z m 13.23868,-1.318683 q -0.0593,0.0889 -0.11113,0.214842 -0.0519,0.125942 -0.0963,0.237067 -0.0963,0.355599 -0.2741,0.785283 -0.1778,0.429683 -0.4371,0.881591 -0.25929,0.4445 -0.59266,0.851958 -0.51118,0.629708 -1.22238,1.140883 -0.70379,0.511174 -1.74095,0.911224 l -0.68898,-0.614891 q 0.71861,-0.214842 1.25942,-0.496358 0.54821,-0.288925 0.96308,-0.629708 0.42228,-0.340784 0.74824,-0.726017 0.28152,-0.318558 0.50377,-0.703791 0.22966,-0.392642 0.39264,-0.777875 0.17039,-0.392641 0.22966,-0.703791 h -2.63737 l 0.28152,-0.66675 q 0.0963,0 0.32597,0 0.23706,0 0.5334,0 0.30374,0 0.59266,0 0.29633,0 0.51118,0 0.22225,0 0.29633,0 0.15557,0 0.30374,-0.01482 0.14817,-0.02222 0.25188,-0.05927 z m -2.45216,-1.140882 q -0.11112,0.162983 -0.22225,0.355599 -0.10372,0.192617 -0.16298,0.303742 -0.22966,0.422275 -0.58526,0.896408 -0.34819,0.474133 -0.80751,0.93345 -0.45932,0.451908 -1.02976,0.837141 l -0.65193,-0.48895 q 0.48154,-0.288925 0.85937,-0.614891 0.37782,-0.325967 0.65193,-0.651933 0.28152,-0.333375 0.48154,-0.637117 0.20003,-0.303741 0.33338,-0.548216 0.0667,-0.111125 0.14816,-0.303742 0.0815,-0.200025 0.12594,-0.363008 z"
             id="text5-9"
             style="font-weight:500;font-size:7.40833px;line-height:1.25;font-family:'Noto Sans JP';-inkscape-font-specification:'Noto Sans JP Medium';fill:#f9f9f9;stroke-width:0.264583"
             aria-label="南港ソフトウェアパーク" />
          <path
             style="font-weight:500;font-size:7.40833px;line-height:1.25;font-family:'Noto Sans KR';-inkscape-font-specification:'Noto Sans KR Medium';fill:#f9f9f9;stroke-width:0.264583"
             d="m 123.08633,44.17611 h 0.77046 v 2.844799 h -0.77046 z m 0,2.600324 h 0.54821 q 0.7112,0 1.46685,-0.05927 0.76306,-0.05927 1.58539,-0.22225 l 0.0889,0.629708 q -0.83715,0.170392 -1.62243,0.237067 -0.77787,0.05927 -1.51871,0.05927 h -0.54821 z m 4.20793,-3.067049 h 0.77047 v 4.88209 h -0.77047 z m 0.54081,1.955799 h 1.18533 v 0.659342 h -1.18533 z m -4.03754,4.044948 h 4.49685 v 0.629709 h -4.49685 z m 0,-1.585382 h 0.77787 v 1.911349 h -0.77787 z m 10.31239,-4.422773 h 0.77047 v 3.99309 h -0.77047 z m 0.56304,1.674282 h 1.1631 v 0.644525 h -1.1631 z m -2.46698,-1.200149 h 0.83714 q 0,0.889 -0.37782,1.600199 -0.37783,0.703792 -1.08162,1.214966 -0.69638,0.503767 -1.6891,0.785283 l -0.31855,-0.622299 q 0.84455,-0.237067 1.4298,-0.6223 0.58526,-0.392642 0.889,-0.896408 0.31115,-0.503766 0.31115,-1.089025 z m -2.3188,0 h 2.77812 v 0.629708 h -2.77812 z m 2.84479,3.607857 q 0.67416,0 1.17052,0.162983 0.50377,0.162983 0.77787,0.466725 0.28152,0.296333 0.28152,0.711199 0,0.414867 -0.28152,0.718608 -0.2741,0.296334 -0.77787,0.459317 -0.49636,0.170391 -1.17052,0.170391 -0.67415,0 -1.18533,-0.170391 -0.50377,-0.162983 -0.77787,-0.459317 -0.27411,-0.303741 -0.27411,-0.718608 0,-0.414866 0.27411,-0.711199 0.2741,-0.303742 0.77787,-0.466725 0.51118,-0.162983 1.18533,-0.162983 z m 0,0.607483 q -0.4519,0 -0.78528,0.0889 -0.32597,0.08149 -0.51117,0.251883 -0.1778,0.162983 -0.1778,0.392641 0,0.229659 0.1778,0.40005 0.1852,0.162983 0.51117,0.251883 0.33338,0.08149 0.78528,0.08149 0.45191,0 0.77788,-0.08149 0.33337,-0.0889 0.51117,-0.251883 0.1778,-0.170391 0.1778,-0.40005 0,-0.229658 -0.1778,-0.392641 -0.1778,-0.170392 -0.51117,-0.251883 -0.32597,-0.0889 -0.77788,-0.0889 z m 5.75628,0.607483 h 6.1341 v 0.637116 h -6.1341 z m 2.65218,-1.585383 h 0.77047 v 1.770591 h -0.77047 z m -0.0296,-3.289298 h 0.68157 v 0.511174 q 0,0.429684 -0.14076,0.829733 -0.13335,0.392642 -0.39264,0.733425 -0.25189,0.340783 -0.60008,0.614891 -0.34819,0.274109 -0.77046,0.466725 -0.41487,0.192617 -0.87419,0.281517 l -0.32596,-0.651933 q 0.40005,-0.06668 0.76305,-0.22225 0.36301,-0.155575 0.66675,-0.377825 0.30375,-0.22225 0.526,-0.48895 0.22225,-0.274108 0.34078,-0.570441 0.12594,-0.303742 0.12594,-0.614892 z m 0.14817,0 h 0.67416 v 0.511174 q 0,0.31115 0.12594,0.614892 0.12594,0.303741 0.34819,0.570441 0.22225,0.2667 0.52599,0.496358 0.30374,0.22225 0.66675,0.377825 0.36301,0.148167 0.77047,0.214842 l -0.33338,0.651933 q -0.45932,-0.0889 -0.88159,-0.281517 -0.41487,-0.192616 -0.76306,-0.459316 -0.34819,-0.274108 -0.60748,-0.614892 -0.25188,-0.348191 -0.39264,-0.740833 -0.13335,-0.400049 -0.13335,-0.829733 z m 4.04495,4.882089 h 6.13409 v 0.644525 h -6.13409 z m 0.50376,-4.667248 h 5.08953 v 0.629708 h -5.08953 z m 0.0296,2.837391 h 5.04507 v 0.622299 h -5.04507 z m 0.97049,-2.252133 h 0.77046 v 2.311399 h -0.77046 z m 2.3188,0 h 0.77047 v 2.311399 h -0.77047 z m 3.74862,2.355849 h 4.69688 v 0.6223 h -4.69688 z m -0.75565,1.733549 h 6.1341 v 0.637117 h -6.1341 z m 0.75565,-4.763556 h 4.63761 v 0.6223 h -3.85233 v 2.592915 h -0.78528 z m 0.54822,1.496483 h 3.94123 v 0.614891 h -3.94123 z m 7.2009,-1.629833 q 0.43709,0 0.77046,0.162984 0.33338,0.155575 0.52599,0.437091 0.19262,0.281517 0.19262,0.659341 0,0.370417 -0.19262,0.659342 -0.19261,0.288925 -0.52599,0.451908 -0.33337,0.155575 -0.77046,0.155575 -0.42228,0 -0.76306,-0.155575 -0.33338,-0.162983 -0.52599,-0.451908 -0.19262,-0.288925 -0.19262,-0.659342 0,-0.377824 0.19262,-0.659341 0.19261,-0.281516 0.52599,-0.437091 0.34078,-0.162984 0.76306,-0.162984 z m 0,0.57785 q -0.22966,0 -0.40746,0.0889 -0.1778,0.08149 -0.28152,0.237067 -0.0963,0.148166 -0.0963,0.355599 0,0.207434 0.0963,0.363009 0.10372,0.148166 0.28152,0.237066 0.1778,0.0889 0.40746,0.0889 0.23706,0 0.41486,-0.0889 0.1778,-0.0889 0.28152,-0.237066 0.10372,-0.155575 0.10372,-0.363009 0,-0.207433 -0.10372,-0.355599 -0.10372,-0.155575 -0.28152,-0.237067 -0.1778,-0.0889 -0.41486,-0.0889 z m 3.3856,-0.985308 h 0.74084 v 6.771214 h -0.74084 z m -1.31127,0.13335 h 0.72601 v 6.304489 h -0.72601 z m -1.17052,4.267198 h 1.4224 V 48.7026 h -1.4224 z m -1.28905,-0.703791 h 0.73343 v 2.533649 h -0.73343 z m -1.31127,0.325966 -0.0889,-0.644524 q 0.34819,0 0.77787,0 0.42969,-0.0074 0.89641,-0.02222 0.47413,-0.02222 0.93345,-0.05186 0.45932,-0.03704 0.85937,-0.09631 l 0.0593,0.570441 q -0.56303,0.111125 -1.18533,0.162984 -0.6223,0.05186 -1.20756,0.06668 -0.58526,0.01482 -1.04457,0.01482 z m 8.64552,-3.533773 q 0.50376,0 0.889,0.296333 0.38523,0.296333 0.60748,0.829733 0.22225,0.5334 0.22225,1.259416 0,0.733425 -0.22225,1.274233 -0.22225,0.5334 -0.60748,0.829733 -0.38524,0.288925 -0.889,0.288925 -0.49636,0 -0.889,-0.288925 -0.38523,-0.296333 -0.60748,-0.829733 -0.21485,-0.540808 -0.21485,-1.274233 0,-0.726016 0.21485,-1.259416 0.22225,-0.5334 0.60748,-0.829733 0.39264,-0.296333 0.889,-0.296333 z m 0,0.703791 q -0.28893,0 -0.51118,0.200025 -0.21484,0.200025 -0.34078,0.57785 -0.11853,0.377825 -0.11853,0.903816 0,0.5334 0.11853,0.911225 0.12594,0.377825 0.34078,0.585258 0.22225,0.200025 0.51118,0.200025 0.29633,0 0.51117,-0.200025 0.22225,-0.207433 0.34079,-0.585258 0.12594,-0.377825 0.12594,-0.911225 0,-0.525991 -0.12594,-0.903816 -0.11854,-0.377825 -0.34079,-0.57785 -0.21484,-0.200025 -0.51117,-0.200025 z m 3.0226,-1.200149 h 0.77787 v 6.78603 h -0.77787 z m -1.54834,2.518832 h 1.88171 v 0.629708 h -1.88171 z m 10.10497,-2.518832 h 0.77046 v 4.904314 h -0.77046 z m 0.54821,1.940982 h 1.18533 v 0.637117 h -1.18533 z m -4.77837,1.170516 h 0.54822 q 0.71119,0 1.22978,-0.01482 0.52599,-0.01482 0.95567,-0.05927 0.42969,-0.05186 0.85937,-0.140758 l 0.0815,0.6223 q -0.43709,0.0889 -0.88159,0.140758 -0.4445,0.04445 -0.98531,0.06668 -0.5334,0.02222 -1.25941,0.02222 h -0.54822 z m 0,-2.548465 h 3.00778 v 0.629708 h -2.22991 v 2.259541 h -0.77787 z m 0.71861,5.445122 h 4.56353 v 0.629709 h -4.56353 z m 0,-1.607607 h 0.77787 v 1.911349 h -0.77787 z m 7.53427,-3.385607 h 0.6223 v 0.948266 q 0,0.563033 -0.13335,1.103841 -0.13335,0.5334 -0.39264,1.007533 -0.25189,0.474133 -0.60749,0.837142 -0.3556,0.363008 -0.78528,0.577849 l -0.45191,-0.614891 q 0.39264,-0.185208 0.7112,-0.496358 0.32597,-0.31115 0.55563,-0.703791 0.22965,-0.40005 0.3556,-0.837142 0.12594,-0.437091 0.12594,-0.874183 z m 0.16298,0 h 0.6223 v 0.948266 q 0,0.422275 0.12594,0.837142 0.12594,0.414866 0.3556,0.785283 0.22966,0.370416 0.54822,0.659341 0.31856,0.288925 0.71861,0.459316 l -0.42969,0.614892 q -0.4445,-0.200025 -0.8001,-0.540808 -0.3556,-0.340783 -0.61489,-0.785283 -0.25188,-0.451908 -0.39264,-0.963083 -0.13335,-0.518583 -0.13335,-1.0668 z m -1.66687,-0.340783 h 3.79306 v 0.644525 h -3.79306 z m 4.57834,-0.66675 h 0.77788 v 6.771214 h -0.77788 z"
             id="text5-9-8"
             aria-label="난강 소프트웨어 단지" />
          <text
             xml:space="preserve"
             transform="matrix(0.31967577,0,0,0.31967577,-16.498784,-6.8865533)"
             id="text6"
             style="font-size:55px;line-height:1.25;font-family:'Microsoft JhengHei';-inkscape-font-specification:'Microsoft JhengHei';white-space:pre;shape-inside:url(#rect6);display:inline" />
        </g>
      </g>
    </g>
  </g>
</svg>
