<?xml version="1.0" encoding="UTF-8" standalone="no"?>
<!-- Created with Inkscape (http://www.inkscape.org/) -->

<svg
   width="500"
   height="250"
   viewBox="0 0 132.29166 66.145833"
   version="1.1"
   id="svg1"
   inkscape:version="1.3.2 (091e20e, 2023-11-25, custom)"
   sodipodi:docname="br24.svg"
   xmlns:inkscape="http://www.inkscape.org/namespaces/inkscape"
   xmlns:sodipodi="http://sodipodi.sourceforge.net/DTD/sodipodi-0.dtd"
   xmlns="http://www.w3.org/2000/svg"
   xmlns:svg="http://www.w3.org/2000/svg">
  <sodipodi:namedview
     id="namedview1"
     pagecolor="#9e652e"
     bordercolor="#ffffff"
     borderopacity="1"
     inkscape:showpageshadow="0"
     inkscape:pageopacity="0"
     inkscape:pagecheckerboard="false"
     inkscape:deskcolor="#d1d1d1"
     inkscape:document-units="mm"
     inkscape:zoom="2.0208096"
     inkscape:cx="300.37466"
     inkscape:cy="144.49654"
     inkscape:window-width="1920"
     inkscape:window-height="1009"
     inkscape:window-x="1912"
     inkscape:window-y="-8"
     inkscape:window-maximized="1"
     inkscape:current-layer="layer1" />
  <defs
     id="defs1">
    <rect
       x="157.85752"
       y="62.351248"
       width="329.07603"
       height="135.09437"
       id="rect4" />
  </defs>
  <g
     inkscape:label="Layer 1"
     inkscape:groupmode="layer"
     id="layer1">
    <path
       id="rect5"
       style="fill:#9e652e;stroke-width:0.953294"
       d="M -2.5431316e-6,-1.2715658e-6 H 132.29167 V 66.145835 H -2.5431316e-6 Z" />
    <g
       id="g3"
       transform="matrix(0.81604106,0,0,0.81604106,6.1632468,2.7710783)">
      <path
         id="rect6"
         style="fill:#9e652e;stroke:#ffffff;stroke-width:0.575409"
         d="m 9.3009131,19.849001 h 5.7010479 c 1.810115,0 3.267355,1.45724 3.267355,3.267355 v 9.524719 c 0,1.810115 -1.45724,3.267355 -3.267355,3.267355 H 9.3009131 c -1.8101145,0 -3.2673547,-1.45724 -3.2673547,-3.267355 v -9.524719 c 0,-1.810115 1.4572402,-3.267355 3.2673547,-3.267355 z" />
      <path
         style="font-weight:bold;font-size:5.82083px;line-height:1.25;font-family:'Optima Bold';-inkscape-font-specification:'Optima Bold,  Bold';fill:#f9f9f9;stroke-width:0.264583"
         d="m 8.6851327,26.948961 v -3.987268 h 0.2328332 1.3795371 q 0.01164,0.01164 0.02328,0.01164 0.01746,0 0.0291,0 0.01164,0 0.02328,0 0.01746,0 0.02911,0 0.186266,0.0058 0.35507,0.05239 0.168804,0.04075 0.325967,0.122237 0.157162,0.07567 0.232833,0.232834 0.08149,0.151341 0.08149,0.384174 v 0.01746 0.01746 0.02328 0.01746 q 0,0.174625 -0.06403,0.331787 -0.06403,0.151342 -0.186266,0.291042 -0.122238,0.1397 -0.2794,0.227012 -0.157162,0.08149 -0.343429,0.116417 0.203729,0.03493 0.384175,0.09895 0.180445,0.06403 0.325966,0.157162 0.151342,0.09313 0.221192,0.273579 0.07567,0.174625 0.07567,0.430742 0,0.308504 -0.104775,0.535516 -0.09895,0.221192 -0.302684,0.355071 -0.197908,0.1397 -0.42492,0.21537 -0.221192,0.06985 -0.465667,0.07567 H 10.00064 q -0.00582,0 -0.017462,0 -0.00582,0 -0.011642,0 -0.011642,0 -0.017462,0 -0.00582,0 -0.017463,0 -0.017463,0 -0.034925,0 -0.011642,0 -0.023283,0 H 8.6851327 v 0 z m 0.7392454,-0.227012 h 0.3201457 q 0.203729,0.01164 0.3608912,-0.03492 0.162983,-0.05239 0.291042,-0.151342 0.122237,-0.09895 0.203729,-0.203729 0.08149,-0.110595 0.122237,-0.232833 0,-0.01164 0,-0.02328 0.0058,-0.01164 0.01164,-0.0291 0,-0.01164 0,-0.02328 0.0058,-0.01164 0.0058,-0.02328 0.0058,-0.02328 0.0058,-0.04657 0.0058,-0.02328 0.0058,-0.04657 0,-0.291042 -0.09313,-0.483129 -0.08731,-0.197908 -0.273579,-0.291042 -0.157162,-0.08149 -0.3958164,-0.128058 -0.238654,-0.04657 -0.5646205,-0.05239 v 1.769532 z m 0,-2.019828 h 0.1338791 q 0.2561165,0.01164 0.4540248,-0.03493 0.197908,-0.05239 0.337608,-0.151342 0.133879,-0.09895 0.20955,-0.244474 0.08149,-0.145521 0.09895,-0.337609 v -0.02328 l 0.0058,-0.01746 v -0.01164 -0.01746 q 0,-0.162983 -0.06985,-0.291041 -0.06985,-0.128058 -0.20955,-0.20955 -0.1397,-0.08149 -0.302683,-0.122237 -0.1571625,-0.04075 -0.3376082,-0.04075 l -0.3201457,-0.01164 v 1.513416 z m 3.0268279,2.24684 v -4.033835 h 0.232833 1.420282 q 0.291042,0.01164 0.506413,0.08149 0.221191,0.06985 0.360891,0.203729 0.1397,0.1397 0.20955,0.314325 0.06985,0.168804 0.06985,0.372533 0,0.197908 -0.05821,0.360891 -0.05239,0.157163 -0.168805,0.273579 -0.110595,0.116417 -0.238654,0.203729 -0.122237,0.08731 -0.256116,0.1397 -0.06403,0.02328 -0.128058,0.04657 -0.05821,0.02328 -0.122238,0.03493 -0.05821,0.01746 -0.116416,0.0291 -0.05821,0.0058 -0.104775,0.01164 l 1.559982,1.961619 h -0.232833 q -0.02328,0 -0.04657,0 -0.01746,0 -0.04075,-0.0058 -0.02328,0 -0.04657,0 -0.01746,-0.0058 -0.03492,-0.01164 -0.01746,0 -0.03493,0 -0.01164,0 -0.02328,0 -0.0058,0 -0.01164,0 -0.0058,0 -0.01746,0 -0.0058,0.0058 -0.01164,0.0058 -0.0058,0 -0.01746,0 -0.04075,0.0058 -0.08731,0.01164 -0.04075,0 -0.08731,0 h -0.232833 l -1.461028,-1.868486 v 1.868486 h -0.232833 q -0.01746,0 -0.03493,0 -0.01746,0 -0.03492,-0.0058 -0.0058,0 -0.01746,0 -0.0058,0 -0.01164,-0.0058 -0.01164,0 -0.01746,0 -0.0058,-0.0058 -0.01746,-0.0058 -0.0058,0 -0.01164,0 -0.0058,0 -0.0058,0 -0.0058,0.0058 -0.01164,0.0058 -0.0058,0 -0.01164,0 -0.03492,0.0058 -0.06985,0.01164 -0.03492,0 -0.06985,0 h -0.232833 v 0 z m 0.779991,-2.153707 q 0.01164,0.01164 0.0291,0.01746 0.01746,0 0.03492,0 0.221192,-0.0058 0.395816,-0.04075 0.174625,-0.03493 0.291042,-0.104775 0.133879,-0.07567 0.221191,-0.157162 0.09313,-0.08731 0.145521,-0.180446 0.04075,-0.06403 0.06403,-0.128058 0.0291,-0.06985 0.03492,-0.128059 0.01164,-0.06403 0.01164,-0.110595 0.0058,-0.04657 0.0058,-0.07567 0,-0.0291 -0.0058,-0.06403 -0.0058,-0.03493 -0.01746,-0.08149 -0.0058,-0.04657 -0.0291,-0.09313 -0.02328,-0.04657 -0.05239,-0.09895 -0.04075,-0.07567 -0.116417,-0.145521 -0.07567,-0.06985 -0.174625,-0.128058 -0.09895,-0.06403 -0.238654,-0.09313 -0.1397,-0.0291 -0.325966,-0.0291 l -0.273579,-0.01164 v 1.653115 0 z"
         id="text6"
         aria-label="BR" />
      <path
         style="font-weight:bold;font-size:5.82083px;line-height:1.25;font-family:'Optima Bold';-inkscape-font-specification:'Optima Bold,  Bold';fill:#f9f9f9;stroke-width:0.264583"
         d="m 9.2643039,29.325142 q 0.098954,-0.162983 0.2095498,-0.2794 0.1164166,-0.116416 0.2444749,-0.174625 0.1280582,-0.06403 0.273579,-0.09313 0.1513414,-0.03493 0.3259664,-0.03493 l 0.232833,-0.0058 q 0.01164,0.0058 0.01746,0.0058 0.0058,0 0.01746,0 0.0058,0.0058 0.01164,0.0058 0.01164,0 0.01746,0 0.01746,0 0.03492,0 0.01746,0 0.03492,0 0.186267,0.01746 0.360892,0.09313 0.174625,0.06985 0.331787,0.203729 0.157163,0.128058 0.238654,0.331787 0.08149,0.197909 0.08149,0.465667 0,0.122237 -0.02328,0.250296 -0.02328,0.128058 -0.06985,0.261937 -0.04657,0.133879 -0.139699,0.273579 -0.09313,0.133879 -0.227013,0.267758 l -1.327149,1.356253 1.594907,-0.04075 h 0.232834 q -0.0058,0.03493 -0.01164,0.06403 -0.0058,0.02328 -0.01164,0.05239 -0.0058,0.02328 -0.0058,0.05239 0,0.02328 0,0.05239 0,0.0291 0,0.06403 0,0.0291 0.0058,0.05821 0,0.0291 0.0058,0.06403 0.01164,0.0291 0.01746,0.05239 H 11.505323 8.984904 v -0.09313 q 0.046567,-0.03493 0.093133,-0.07567 0.046567,-0.04657 0.093133,-0.08731 0.046567,-0.04657 0.093133,-0.09313 0.052387,-0.04657 0.098954,-0.09895 0.017463,-0.01746 0.034925,-0.03493 0.017463,-0.01746 0.040746,-0.03492 0.017463,-0.01746 0.034925,-0.03493 0.017463,-0.02328 0.034925,-0.04075 0.017462,-0.01746 0.034925,-0.03492 0.017463,-0.01746 0.040746,-0.04075 0.017463,-0.01746 0.034925,-0.03493 0.017463,-0.02328 0.034925,-0.04075 0.1804457,-0.186267 0.3376081,-0.360892 0.1629834,-0.180445 0.3085044,-0.349249 0.14552,-0.168804 0.238654,-0.291042 0.09895,-0.128058 0.14552,-0.215371 0.04075,-0.06403 0.07567,-0.139699 0.03493,-0.07567 0.05821,-0.151342 0.0291,-0.08149 0.04657,-0.162983 0.01746,-0.08149 0.03493,-0.168804 0,-0.0291 0,-0.05821 0.0058,-0.03492 0.01164,-0.06403 0,-0.01746 0,-0.0291 0,-0.01746 0.0058,-0.03493 0,-0.01164 0,-0.0291 0,-0.01746 0,-0.03492 0,-0.162983 -0.04075,-0.302683 -0.04075,-0.145521 -0.122238,-0.267758 -0.06985,-0.104775 -0.174625,-0.168804 -0.104775,-0.06403 -0.256116,-0.07567 -0.07567,0.0058 -0.145521,0.04075 -0.06985,0.0291 -0.133879,0.07567 -0.075671,0.05821 -0.133879,0.128059 -0.052388,0.06985 -0.087312,0.14552 -0.00582,0.02328 -0.017463,0.04657 -0.00582,0.01746 -0.017462,0.03493 -0.00582,0.02328 -0.011642,0.04075 -0.00582,0.01746 -0.00582,0.03493 l -0.093133,0.0291 H 9.4447496 L 9.2643039,29.325142 v 0 z m 3.0734031,2.24684 v -0.1397 l 1.880128,-2.654298 h 0.232834 0.407458 v 2.409824 l 0.320145,-0.02911 h 0.232834 q -0.0058,0.03493 -0.01746,0.06403 -0.0058,0.0291 -0.01164,0.05821 -0.0058,0.02328 -0.0058,0.05821 0,0.0291 0,0.05821 0,0.02911 0,0.06403 0,0.0291 0.0058,0.05821 0.0058,0.0291 0.01164,0.05821 0.01164,0.02328 0.01746,0.05239 l -0.232834,-0.0058 -0.320145,-0.0291 v 1.076853 h -0.232834 q -0.05239,0 -0.104774,0 -0.05239,0 -0.110596,0 -0.05821,0 -0.133879,0 -0.06985,0 -0.151342,0 v -1.100137 h -1.786995 v 0 z m 1.786995,-0.366712 v -1.54252 l -1.05357,1.54252 h 1.05357 v 0 z"
         id="text6-8"
         aria-label="24" />
    </g>
    <g
       id="g2"
       transform="translate(0,-5.9271034)">
      <path
         style="font-weight:bold;font-size:14.8167px;line-height:1.25;font-family:'Noto Serif TC';-inkscape-font-specification:'Noto Serif TC Bold';letter-spacing:1.5875px;fill:#ffffff;stroke-width:0.264583"
         d="m 36.530433,34.833974 c 0.207433,0 0.3556,-0.07408 0.400051,-0.237067 -0.563035,-0.488951 -1.466854,-1.170519 -1.466854,-1.170519 l -0.800102,0.992719 H 33.98196 v -1.792821 h 2.444756 c 0.207434,0 0.355601,-0.07408 0.385234,-0.237067 -0.518585,-0.459318 -1.318686,-1.051986 -1.318686,-1.051986 l -0.726019,0.859369 h -0.844552 c 0.607485,-0.563035 1.229787,-1.244603 1.644654,-1.733554 0.311151,0.01482 0.488951,-0.103717 0.548218,-0.281518 l -1.955804,-0.563034 c -0.148167,0.755651 -0.414868,1.807637 -0.666752,2.578106 h -3.526374 l 0.118533,0.429684 h 2.207688 v 1.792821 h -2.652189 l 0.118534,0.414867 h 2.533655 v 3.126324 h 0.296334 c 0.874186,0 1.377954,-0.281517 1.39277,-0.355601 v -2.770723 z m -6.104481,-5.037678 c 0.370418,0.518585 0.711202,1.318686 0.726019,2.044705 1.274236,1.096436 2.800356,-1.377953 -0.563035,-2.133605 z m 6.697149,-3.126324 h -3.067057 v -1.57057 c 0.400051,-0.05927 0.518584,-0.207434 0.548218,-0.414867 l -2.311406,-0.192617 v 2.178054 h -5.956313 l 0.13335,0.414868 h 5.822963 v 1.955804 H 29.44805 l -1.896538,-0.770468 v 10.164256 h 0.281518 c 0.740835,0 1.496486,-0.414867 1.496486,-0.607484 v -8.371436 h 7.882485 v 6.830499 c 0,0.192617 -0.05927,0.31115 -0.311151,0.31115 -0.400051,0 -1.940988,-0.118533 -1.940988,-0.118533 v 0.207434 c 0.770469,0.118533 1.096436,0.325967 1.34832,0.577851 0.237067,0.266701 0.325968,0.651935 0.370418,1.200153 2.029888,-0.192617 2.326222,-0.859369 2.326222,-2.000255 v -6.711965 c 0.296334,-0.05927 0.503767,-0.192617 0.592668,-0.311151 l -1.718738,-1.318686 -0.814918,0.918635 h -3.00779 V 27.08484 h 5.556262 c 0.222251,0 0.385234,-0.07408 0.429685,-0.237067 -0.726019,-0.607485 -1.881721,-1.48167 -1.881721,-1.48167 z m 6.506644,-1.940987 c 0.474134,0.592668 1.066802,1.496486 1.214969,2.311405 1.48167,1.051986 2.844806,-1.792821 -1.081619,-2.400305 z m -1.081619,3.200407 c 0.503767,0.533401 1.007535,1.39277 1.111252,2.163238 1.407587,1.066803 2.78554,-1.70392 -0.977902,-2.252138 z m 10.030905,3.022607 -0.711201,0.726018 h -2.089155 l -0.474134,-0.1778 c 0.385234,-0.488951 0.726018,-1.007536 0.992719,-1.555754 h 2.192871 c 0.148167,0.459318 0.311151,0.903819 0.503768,1.30387 z m -2.992973,2.978156 v -1.822454 h 2.415122 v 1.822454 z m 0.459318,-6.489714 h 1.70392 v 2.074338 h -1.70392 z m 6.178564,2.504022 c 0.22225,0 0.385234,-0.07408 0.414867,-0.237067 -0.592668,-0.577851 -1.585387,-1.407587 -1.585387,-1.407587 l -0.889002,1.21497 h -0.755651 v -2.074338 h 2.563289 c 0.207434,0 0.370417,-0.07408 0.414867,-0.237067 -0.577851,-0.563035 -1.540936,-1.363137 -1.540936,-1.363137 l -0.859369,1.17052 h -0.577851 v -1.778004 c 0.400051,-0.05927 0.518584,-0.207434 0.548218,-0.414868 l -2.207689,-0.192617 v 2.385489 h -1.70392 v -1.778004 c 0.400051,-0.05927 0.518584,-0.207434 0.548218,-0.429685 l -2.133605,-0.1778 v 2.385489 h -2.029888 l 0.118534,0.429684 h 1.911354 v 2.074338 h -2.222505 c 0.162984,-0.592668 0.340784,-1.170519 0.474134,-1.629837 l -0.237067,-0.04445 c -2.355855,5.289562 -2.355855,5.289562 -2.652189,5.808146 -0.162984,0.296334 -0.222251,0.296334 -0.429685,0.296334 h -0.666751 v 0.281517 c 0.325967,0.02963 0.548218,0.103717 0.755652,0.251884 0.340784,0.222251 0.414867,1.585387 0.13335,3.155957 0.103717,0.548218 0.429684,0.770469 0.740835,0.770469 0.681568,0 1.170519,-0.488951 1.200153,-1.21497 0.04445,-1.318686 -0.533402,-1.88172 -0.563035,-2.652189 -0.01482,-0.370417 0.0889,-0.874185 0.192617,-1.333503 0.118534,-0.503768 0.592668,-2.133605 1.022352,-3.630091 l 0.103717,0.370417 h 2.089155 c -0.622301,1.57057 -1.65947,3.111507 -3.067057,4.207943 l 0.118534,0.192617 c 0.918635,-0.429684 1.74837,-0.933452 2.474389,-1.511303 v 3.793075 c 0,1.200153 0.444501,1.48167 2.118788,1.48167 h 1.955804 c 3.022607,0 3.718992,-0.296334 3.718992,-1.022352 0,-0.296334 -0.148167,-0.488952 -0.637118,-0.666752 L 55.038604,34.62654 H 54.87562 c -0.281517,0.844552 -0.518585,1.48167 -0.696385,1.733554 -0.103717,0.148167 -0.22225,0.192617 -0.459318,0.207434 -0.2667,0.02963 -0.874185,0.02963 -1.57057,0.02963 H 50.29726 c -0.622302,0 -0.711202,-0.07408 -0.711202,-0.325967 v -1.926171 h 2.415122 v 0.711202 h 0.266701 c 0.488951,0 1.303869,-0.222251 1.318686,-0.311151 v -2.459572 c 0.488951,0.726018 1.096436,1.318686 1.822454,1.763187 0.207434,-0.889002 0.666752,-1.43722 1.30387,-1.600204 l 0.02963,-0.162983 c -1.452036,-0.370418 -3.00779,-1.200153 -3.911609,-2.341039 z m 8.04758,0.814919 v 1.985437 h -1.955804 c 0.103717,-0.681568 0.162984,-1.333503 0.192617,-1.985437 z m 5.822964,-4.830245 v 1.940988 h -7.556517 v -1.940988 z m -2.296589,4.830245 v 1.985437 h -1.881721 v -1.985437 z m 2.444756,2.415122 c -0.355601,0.488951 -1.037169,1.303869 -1.644654,1.955804 -0.696385,-0.503768 -1.25942,-1.140886 -1.659471,-1.955804 h 5.630346 c 0.207434,0 0.370418,-0.07408 0.414868,-0.237067 -0.622301,-0.577852 -1.644654,-1.422404 -1.644654,-1.422404 l -0.918635,1.229786 h -0.992719 v -1.985437 h 2.370672 c 0.222251,0 0.370418,-0.07408 0.400051,-0.237068 -0.548218,-0.533401 -1.48167,-1.289052 -1.48167,-1.289052 l -0.829735,1.096435 h -0.459318 v -1.185336 c 0.311151,-0.05927 0.414868,-0.1778 0.429684,-0.340784 L 67.797895,28.61096 v 1.718737 h -1.881721 v -1.229786 c 0.311151,-0.04445 0.400051,-0.1778 0.429684,-0.340784 L 64.27152,28.56651 v 1.763187 h -1.74837 c 0.01482,-0.340784 0.01482,-0.681568 0.01482,-1.007535 v -1.022353 h 7.556517 v 0.563035 h 0.296334 c 0.533401,0 1.392769,-0.281517 1.407586,-0.370417 v -2.281772 c 0.296334,-0.05927 0.518585,-0.192617 0.607485,-0.311151 l -1.674287,-1.244603 -0.785285,0.844552 h -7.14165 l -2.029888,-0.711201 v 4.548726 c 0,2.992974 -0.162983,6.297098 -1.837271,8.949287 l 0.148167,0.103717 c 1.896538,-1.43722 2.755907,-3.333757 3.141141,-5.215478 h 1.333503 v 2.755906 c 0,0.281517 -0.0889,0.429684 -0.622302,0.726018 l 1.007536,1.866904 c 0.103717,-0.05927 0.222251,-0.162983 0.325967,-0.296334 1.363137,-0.903818 2.474389,-1.807637 3.067057,-2.281771 l -0.04445,-0.162984 c -0.726018,0.207434 -1.43722,0.400051 -2.089154,0.563035 v -3.170774 h 1.452036 c 0.800102,3.00779 2.429939,4.35611 5.037678,5.274745 0.207434,-0.844552 0.681568,-1.407587 1.377953,-1.585387 l 0.01482,-0.1778 C 71.59097,36.478628 70.1982,36.10821 69.072131,35.441459 c 0.859369,-0.281517 1.763188,-0.607485 2.400306,-0.859369 0.325967,0.0889 0.474134,0.02963 0.563034,-0.103717 z m 14.374313,-4.711711 v 1.289053 h -0.592668 v -1.289053 z m 2.74109,0 v 1.289053 h -0.607485 v -1.289053 z m -1.985438,1.289053 v -1.289053 h 0.622301 v 1.289053 z m -3.022607,-1.896538 c 0.162984,-0.07408 0.325967,-0.148167 0.488951,-0.237067 v 3.081874 h 0.177801 c 0.474134,0 1.007535,-0.251884 1.007535,-0.355601 v -0.1778 h 3.333758 v 0.429684 h 0.237067 c 0.400051,0 1.066802,-0.237067 1.081619,-0.340784 v -1.659471 c 0.22225,-0.04445 0.385234,-0.13335 0.459318,-0.237067 l -1.289053,-0.948269 -0.607485,0.622302 h -3.14114 l -1.140886,-0.474135 c 0.533401,-0.296334 1.051985,-0.696384 1.496486,-1.185336 h 2.222505 l -0.592668,0.696385 h -2.326221 l 0.118533,0.414868 h 3.585642 c 0.207433,0 0.3556,-0.07408 0.385234,-0.237067 -0.385234,-0.325968 -0.948269,-0.755652 -1.096436,-0.874186 h 2.074338 c 0.207434,0 0.355601,-0.07408 0.385234,-0.237067 -0.548218,-0.503768 -1.43722,-1.170519 -1.43722,-1.170519 l -0.785285,0.992719 h -2.178055 c 0.103717,-0.148167 0.207434,-0.296334 0.311151,-0.459318 0.325967,0.02963 0.518584,-0.0889 0.577851,-0.2667 l -2.118788,-0.770469 c -0.2667,1.274236 -0.814918,2.489206 -1.39277,3.259674 z m -4.44501,-0.948268 v -1.007536 h 1.022352 v 1.007536 z m 2.667006,0.414867 v 0.992719 h -2.667006 v -0.992719 z m -1.644654,2.592923 h -1.022352 v -1.17052 h 1.022352 z m -0.918635,0.429684 h 4.222759 c 0.192618,0 0.325968,-0.07408 0.370418,-0.237067 -0.488951,-0.459318 -1.289053,-1.051986 -1.289053,-1.051986 l -0.696385,0.859369 h -0.370417 v -1.17052 h 0.325967 v 0.207434 h 0.251884 c 0.444501,0 1.155703,-0.251884 1.170519,-0.355601 v -1.126069 c 0.222251,-0.04445 0.370418,-0.148167 0.444501,-0.22225 l -1.333503,-0.977902 -0.637118,0.637118 h -0.22225 v -1.007536 h 1.926171 c 0.207433,0 0.3556,-0.07408 0.400051,-0.237067 -0.518585,-0.474135 -1.377954,-1.140886 -1.377954,-1.140886 l -0.740835,0.948269 h -2.504022 l -1.540937,-0.770469 v 5.067312 c -0.1778,0.13335 -0.340784,0.281517 -0.459317,0.414867 l 1.585387,0.948269 z m 1.65947,3.881975 h 5.541446 v 0.933453 h -5.541446 z m 5.541446,-2.592922 v 0.903819 h -5.541446 v -0.903819 z m 0,2.178055 h -5.541446 v -0.859369 h 5.541446 z m 3.393024,1.48167 h -0.148167 c -0.2667,0.711201 -0.488951,1.155702 -0.637118,1.363136 -0.0889,0.118534 -0.148167,0.162984 -0.340784,0.162984 -0.22225,0.01482 -0.637118,0.01482 -1.096436,0.01482 h -1.303869 c -0.414868,0 -0.444501,-0.04445 -0.444501,-0.207434 v -0.889002 -0.148167 h 0.577851 v 0.474134 h 0.281517 c 0.548218,0 1.377954,-0.296334 1.39277,-0.414867 v -3.778259 c 0.281518,-0.05927 0.459318,-0.1778 0.548218,-0.281517 l -1.600203,-1.200153 -0.770469,0.814919 h -5.289562 l -1.763187,-0.696385 v 5.645162 h 0.237067 c 0.696385,0 1.422403,-0.370417 1.422403,-0.533401 v -0.02963 h 0.459318 c -0.444501,1.452036 -1.852087,2.148421 -4.282026,2.607739 l 0.02963,0.207434 c 3.215224,-0.192617 5.496996,-0.859369 6.134114,-2.815173 h 0.933452 v 1.229786 c 0,0.977902 0.251884,1.259419 1.748371,1.259419 h 1.511303 c 2.459572,0 3.022607,-0.192617 3.022607,-0.770468 0,-0.266701 -0.118534,-0.444501 -0.577851,-0.622301 z M 100.28033,24.521551 c 0.37041,0.444501 0.74083,1.170519 0.77047,1.866904 1.49648,1.126069 3.09669,-1.674287 -0.66676,-1.940988 z m 3.14114,3.615275 -0.7112,0.755651 h -2.35586 l -1.244602,-0.533401 c 0.192617,-0.281517 0.281517,-0.711201 0.22225,-1.259419 h 4.474642 c -0.0148,0.414867 -0.0445,0.903818 -0.0741,1.274236 z m -3.12633,3.422657 v -2.237321 h 2.54848 v 2.237321 z m 2.99298,2.533656 v 2.637373 h -2.99298 v -2.637373 z m -7.393536,-4.119042 v 1.303869 h -1.615021 v -1.303869 z m -1.615021,3.067056 v -1.348319 h 1.615021 v 1.348319 z m 10.223527,-7.200916 -0.84456,0.844552 h -4.400555 c -0.07408,-0.237067 -0.162984,-0.488951 -0.281518,-0.755652 h -0.22225 c 0.103717,0.488952 -0.207434,1.051986 -0.503768,1.274237 -0.13335,0.05927 -0.251884,0.13335 -0.355601,0.22225 0.311151,-0.577851 -0.04445,-1.600203 -2.296588,-2.192871 v -0.01482 c 0.385234,-0.04445 0.533401,-0.162984 0.577851,-0.355601 l -2.489206,-0.488951 c -0.251884,1.466853 -1.037169,3.941242 -1.955804,5.378462 l 0.13335,0.103717 c 0.296334,-0.207434 0.592668,-0.444501 0.874186,-0.711202 v 6.845316 c 0,0.325967 -0.07408,0.459317 -0.533402,0.726018 l 0.889002,1.674287 c 0.162984,-0.0889 0.355601,-0.281517 0.474135,-0.548218 1.066802,-0.740835 1.985438,-1.466853 2.622556,-1.985438 0.192617,0.444501 0.340784,0.918636 0.400051,1.34832 1.422403,1.140886 2.829989,-1.74837 -1.066803,-2.91889 l -0.148167,0.07408 c 0.222251,0.325967 0.459318,0.726018 0.651935,1.140886 -0.607485,0.207433 -1.214969,0.414867 -1.748371,0.592668 v -2.622556 h 1.615021 v 0.429684 h 0.2667 c 0.488951,0 1.244603,-0.296334 1.25942,-0.414868 V 30.18153 c 0.237067,-0.05927 0.414867,-0.162983 0.488951,-0.251884 l -1.452037,-1.081619 -0.681568,0.726019 h -1.43722 l -1.452036,-0.563035 c 0.2667,-0.251884 0.518584,-0.533401 0.755651,-0.800102 l 0.07408,0.237067 h 2.992973 c 0.192617,0 0.355601,-0.07408 0.385234,-0.237067 -0.503767,-0.474134 -1.318686,-1.111252 -1.318686,-1.111252 l -0.711202,0.918635 h -1.259419 c 0.696385,-0.829735 1.259419,-1.70392 1.65947,-2.518839 0.577852,0.696385 0.977903,1.540937 1.140886,2.118788 0.385234,0.340784 0.829735,0.296334 1.126069,0.02963 -0.103716,0.162983 -0.13335,0.370417 -0.07408,0.607484 0.162984,0.459318 0.711202,0.592668 1.096436,0.414868 v 9.719755 h 0.251884 c 0.681568,0 1.289049,-0.355601 1.289049,-0.548218 v -0.681568 h 2.99298 v 0.992719 h 0.2667 c 0.51858,0 1.25942,-0.325967 1.27423,-0.444501 V 34.31539 c 0.2667,-0.05927 0.45932,-0.177801 0.54822,-0.281518 l -1.5113,-1.140886 -0.7112,0.770469 h -2.85963 v -1.674287 h 2.54848 v 0.651935 h 0.2667 c 0.48895,0 1.25942,-0.266701 1.27423,-0.355601 v -2.755906 c 0.2667,-0.04445 0.45932,-0.162984 0.5334,-0.266701 l -0.96308,-0.711202 c 0.45932,-0.296334 1.08162,-0.800101 1.45204,-1.140886 0.29633,-0.02963 0.42968,-0.04445 0.54821,-0.1778 z"
         id="text7"
         aria-label="南港展覽館" />
      <path
         style="font-weight:bold;font-size:5.82083px;line-height:1.25;font-family:'Optima Bold';-inkscape-font-specification:'Optima Bold,  Bold';fill:#f9f9f9;stroke-width:0.264583"
         d="m 11.272867,45.648716 v -3.742794 q -0.0058,0.0058 -0.01164,0.0058 -0.0058,0 -0.01164,0 -0.0058,0.0058 -0.01164,0.0058 -0.0058,0 -0.01164,0 -0.08731,0.0058 -0.180446,0.01746 -0.08731,0.0058 -0.180445,0.01746 -0.03492,0.0058 -0.06985,0.01164 -0.02911,0 -0.05821,0.0058 -0.0291,0.0058 -0.06403,0.01164 -0.0291,0 -0.05821,0 -0.05821,0.0058 -0.116417,0.01746 -0.05239,0.0058 -0.104775,0.01746 -0.05239,0.0058 -0.09313,0.01164 -0.04075,0.0058 -0.07567,0.01164 l -0.2328329,-0.0058 q 0.00582,-0.0058 0.00582,-0.01746 0.00582,-0.01746 0.011642,-0.0291 0,-0.01164 0,-0.02328 0.0058,-0.01164 0.01164,-0.0291 0,-0.01164 0,-0.02328 0,-0.01164 0,-0.02328 0,-0.0058 0,-0.01164 0,-0.0058 0.0058,-0.01746 0,-0.0058 0,-0.01164 0,-0.0058 0,-0.01164 0,-0.0291 -0.0058,-0.05239 0,-0.0291 -0.0058,-0.05239 -0.0058,-0.0291 -0.01164,-0.05239 0,-0.0291 -0.011642,-0.05239 l 3.0675769,-0.01164 h 0.232834 q -0.0058,0.02328 -0.01164,0.04075 0,0.01164 -0.0058,0.02328 -0.0058,0.01164 -0.0058,0.02328 0,0.01164 0,0.02328 -0.0058,0.01746 -0.01164,0.0291 0,0.01164 0,0.02328 0,0.01164 0,0.0291 0,0.01164 0,0.02328 0,0.02328 0,0.05239 0,0.02328 0.0058,0.05239 0.0058,0.02328 0.01164,0.05239 0.01164,0.02328 0.01746,0.05239 l -0.232834,-0.0058 q -0.203729,-0.0291 -0.395816,-0.05239 -0.192087,-0.0291 -0.366712,-0.04657 -0.08149,-0.01164 -0.151342,-0.01164 -0.06985,-0.0058 -0.133879,-0.01164 v 3.736973 h -0.232833 q -0.01164,0 -0.0291,0 -0.01164,0 -0.02328,-0.0058 -0.01746,0 -0.03492,0 -0.01164,-0.0058 -0.02328,-0.0058 0,0 -0.0058,0 0,0 0,0 0,0 -0.0058,0 0,0 0,0 0,0 -0.0058,0 0,0 -0.0058,0 -0.03493,0.0058 -0.06985,0.01164 -0.03492,0 -0.06985,0 h -0.232833 v 0 z m 2.159533,0 1.833561,-4.080402 h 0.232834 0.133879 l 1.792815,4.080402 h -0.232833 q -0.01746,0 -0.04075,0 -0.01746,0 -0.04075,0 -0.02328,0 -0.04657,0 -0.01746,0 -0.04657,0 -0.01164,0 -0.0291,0 -0.01164,0 -0.02328,-0.0058 -0.01164,0 -0.02911,0 -0.01164,0 -0.02328,0 -0.01164,0.0058 -0.0291,0.0058 -0.01164,0 -0.02328,0 -0.01164,0 -0.02328,0 -0.01164,0 -0.01746,0 -0.01164,0 -0.02328,0 -0.0058,0 -0.01746,0 h -0.232833 l -0.640291,-1.606549 h -1.18745 l -0.593724,1.606549 h -0.232834 q -0.01164,0 -0.0291,0 -0.01164,0 -0.02328,0 l -0.0291,-0.0058 q -0.0058,0.0058 -0.01746,0.0058 -0.01164,0 -0.01746,0 -0.01164,0 -0.02328,0 -0.0058,0 -0.01746,0 H 13.50225 q -0.01746,0 -0.03492,0 -0.01746,0 -0.03493,0 v 0 z m 1.426103,-1.880128 h 0.954616 l -0.477308,-1.140883 -0.477308,1.140883 z m 3.434288,-2.153707 q 0.0291,0.01746 0.05239,0.0291 0.0291,0.0058 0.06403,0.01164 0.0058,0 0.0058,0 0.0058,0 0.01164,0 0.0058,0 0.0058,0 0.0058,0 0.01164,0 0.03492,-0.0058 0.06403,-0.01164 0.03493,-0.01164 0.05821,-0.01746 l 0.232833,-0.0058 v 4.028014 H 18.56637 q -0.02328,0 -0.05821,0 -0.0291,-0.0058 -0.05821,-0.01164 -0.0058,0 -0.01164,0 0,0 -0.0058,0 -0.0058,0 -0.01164,0 -0.0058,0 -0.01164,0 -0.03493,0.0058 -0.06403,0.01164 -0.02328,0 -0.05239,0 h -0.232833 v -4.033835 h 0.232833 v 0 z m 1.705504,0 h 1.466849 q 0.291041,0.01164 0.506412,0.07567 0.221191,0.05821 0.360891,0.174625 0.1397,0.116416 0.20955,0.291041 0.06985,0.168804 0.06985,0.389996 v 0.01746 l 0.0058,0.02328 v 0.02328 0.02328 q 0,0.267758 -0.08731,0.459846 -0.08731,0.192087 -0.256116,0.325966 -0.168804,0.128058 -0.355071,0.215371 -0.186266,0.08731 -0.389995,0.133879 -0.07567,0.01746 -0.151342,0.0291 -0.06985,0.0058 -0.1397,0.01746 -0.06985,0.0058 -0.1397,0.01164 -0.06403,0 -0.128058,0 l -0.232833,-0.0058 q -0.05239,0.0058 -0.09895,0.0058 -0.04657,0 -0.09313,-0.0058 v 1.827741 h -0.232834 q -0.03493,0 -0.06985,0 -0.0291,-0.0058 -0.05821,-0.01164 0,0 -0.0058,0 0,0 0,0 0,0 -0.0058,0 0,0 0,0 -0.0058,0 -0.01164,0 0,0 -0.0058,0 -0.03492,0.0058 -0.07567,0.01164 -0.03492,0 -0.08149,0 h -0.232834 v -4.033835 h 0.232834 v 0 z m 0.547158,1.926695 h 0.320145 q 0.20955,0.01164 0.372533,-0.05239 0.162984,-0.06985 0.2794,-0.197908 0.116417,-0.133879 0.180446,-0.2794 0.06985,-0.145521 0.08731,-0.308504 0,-0.0058 0,-0.01164 0,-0.0058 0.0058,-0.01164 0,-0.0058 0,-0.01164 0,-0.0058 0,-0.01164 0,-0.01164 0,-0.02328 0,-0.01164 0,-0.02328 0,-0.151342 -0.04657,-0.2794 -0.04657,-0.133879 -0.139699,-0.250296 -0.09313,-0.116416 -0.232834,-0.174625 -0.1397,-0.05821 -0.325966,-0.05821 l 0.232833,-0.0058 h -0.02328 -0.01746 l -0.02328,0.0058 h -0.232833 -0.02328 l -0.413278,-0.0058 v 1.699683 z m 2.799824,2.10714 v -3.987268 h 0.232833 2.10714 q -0.0058,0.0291 -0.01164,0.05239 -0.0058,0.01746 -0.01164,0.03492 0,0.0058 -0.0058,0.01746 0,0.0058 0,0.01164 -0.0058,0.01164 -0.0058,0.01746 0,0.0058 0,0.01746 v 0.01164 0.02328 q 0,0.0291 0,0.05239 0,0.01746 0.0058,0.04075 0,0.01164 0,0.02328 0.0058,0.01164 0.01164,0.02328 0.0058,0.01746 0.0058,0.0291 0.0058,0.01164 0.01164,0.02328 l -0.232833,-0.0058 q -0.08731,-0.01164 -0.174625,-0.02328 -0.08731,-0.01164 -0.186267,-0.01746 -0.09313,-0.0058 -0.192087,-0.0058 -0.09313,-0.0058 -0.192087,-0.0058 0,0 0,0 0,0 0,0 -0.0058,0 -0.0058,0 0,0 0,0 -0.02328,0.0058 -0.04657,0.0058 -0.01746,0 -0.04075,0 -0.02328,0 -0.04657,0 -0.02328,0 -0.04075,0 -0.02328,0 -0.05239,0 -0.02328,0 -0.05239,0 -0.02328,0.0058 -0.05239,0.0058 -0.02328,0 -0.04657,0 -0.05239,0 -0.104775,0 -0.04657,0 -0.09313,0 v 1.408641 h 0.640291 l 0.547158,-0.04657 h 0.232833 q -0.0058,0.0291 -0.01746,0.05239 -0.0058,0.01746 -0.01164,0.03493 -0.0058,0.02328 -0.0058,0.04657 0,0.01746 0,0.04075 0,0.01164 0,0.02328 0,0.01164 0,0.02328 0,0.01746 0,0.0291 0.0058,0.01164 0.0058,0.02328 0.0058,0.02328 0.01164,0.05239 0.01164,0.02328 0.01746,0.05239 l -0.232833,-0.0058 -0.686858,-0.05239 h -0.500591 v 1.653115 q 0.04075,0.01164 0.08731,0.01746 0.04657,0.0058 0.09895,0.0058 0.04657,0.0058 0.09313,0.0058 0.04657,0 0.09895,0 0.0291,0 0.05239,0 0.02328,0 0.04657,-0.0058 0.02328,0 0.04657,0 0.0291,0 0.05239,0 0.116416,-0.0058 0.227012,-0.01164 0.110596,-0.0058 0.221192,-0.01164 0.104775,-0.01164 0.192087,-0.01746 0.08731,-0.01164 0.157163,-0.01746 l 0.232833,-0.0058 q -0.0058,0.0291 -0.01746,0.05821 -0.0058,0.02328 -0.01164,0.05239 -0.0058,0.02328 -0.0058,0.04657 0,0.02328 0,0.04657 0,0.02328 0,0.04657 0,0.02328 0.0058,0.04657 0.0058,0.02328 0.01164,0.04075 0.01164,0.01746 0.01746,0.02328 h -0.232833 -2.153707 v 0 z m 3.440114,-4.033835 q 0.0291,0.01746 0.05239,0.0291 0.02911,0.0058 0.06403,0.01164 0.0058,0 0.0058,0 0.0058,0 0.01164,0 0.0058,0 0.0058,0 0.0058,0 0.01164,0 0.03493,-0.0058 0.06403,-0.01164 0.03492,-0.01164 0.05821,-0.01746 l 0.232833,-0.0058 v 4.028014 H 27.05897 q -0.02328,0 -0.05821,0 -0.02911,-0.0058 -0.05821,-0.01164 -0.0058,0 -0.01164,0 0,0 -0.0058,0 -0.0058,0 -0.01164,0 -0.0058,0 -0.01164,0 -0.03492,0.0058 -0.06403,0.01164 -0.02328,0 -0.05239,0 h -0.232833 v -4.033835 h 0.232833 v 0 z m 3.445931,4.033835 v -4.033835 h 0.232833 0.2794 l 2.561165,2.817282 v -2.817282 h 0.232833 q 0.01164,0.01746 0.0291,0.02328 0.01746,0.0058 0.03493,0.01164 0.02328,-0.0058 0.04075,-0.01164 0.01746,-0.0058 0.02911,-0.01164 l 0.232833,-0.0058 v 4.028014 H 33.671433 33.44442 l -2.613552,-2.904594 v 2.904594 h -0.232834 q -0.0058,0 -0.01164,0 -0.0058,0 -0.01164,0 -0.01164,0 -0.01746,0 -0.0058,-0.0058 -0.01164,-0.0058 -0.01164,0 -0.02328,0 -0.0058,0 -0.01746,0.0058 -0.01164,0 -0.02328,0 -0.0058,0 -0.01746,0 h -0.232833 v 0 z m 4.272488,0 1.833561,-4.080402 h 0.232833 0.133879 l 1.792816,4.080402 h -0.232833 q -0.01746,0 -0.04075,0 -0.01746,0 -0.04075,0 -0.02328,0 -0.04657,0 -0.01746,0 -0.04657,0 -0.01164,0 -0.0291,0 -0.01164,0 -0.02328,-0.0058 -0.01164,0 -0.0291,0 -0.01164,0 -0.02328,0 -0.01164,0.0058 -0.0291,0.0058 -0.01164,0 -0.02328,0 -0.01164,0 -0.02328,0 -0.01164,0 -0.01746,0 -0.01164,0 -0.02328,0 -0.0058,0 -0.01746,0 h -0.232833 l -0.640292,-1.606549 h -1.187449 l -0.593725,1.606549 h -0.232833 q -0.01164,0 -0.0291,0 -0.01164,0 -0.02328,0 l -0.0291,-0.0058 q -0.0058,0.0058 -0.01746,0.0058 -0.01164,0 -0.01746,0 -0.01164,0 -0.02328,0 -0.0058,0 -0.01746,0 H 34.57366 q -0.01746,0 -0.03492,0 -0.01746,0 -0.03493,0 v 0 z m 1.426103,-1.880128 h 0.954616 l -0.477308,-1.140883 -0.477308,1.140883 z m 3.201454,1.880128 v -4.033835 h 0.232834 0.279399 l 2.561166,2.817282 v -2.817282 h 0.232833 q 0.01164,0.01746 0.0291,0.02328 0.01746,0.0058 0.03492,0.01164 0.02328,-0.0058 0.04075,-0.01164 0.01746,-0.0058 0.0291,-0.01164 l 0.232833,-0.0058 v 4.028014 h -0.232833 -0.227012 l -2.613553,-2.904594 v 2.904594 H 39.49808 q -0.0058,0 -0.01164,0 -0.0058,0 -0.01164,0 -0.01164,0 -0.01746,0 -0.0058,-0.0058 -0.01164,-0.0058 -0.01164,0 -0.02328,0 -0.0058,0 -0.01746,0.0058 -0.01164,0 -0.02328,0 -0.0058,0 -0.01746,0 h -0.232834 v 0 z m 4.546067,-1.973261 q 0.02328,-0.459846 0.133879,-0.803275 0.116417,-0.343429 0.320146,-0.56462 0.203729,-0.221192 0.42492,-0.372533 0.227013,-0.151342 0.471488,-0.232834 0.128058,-0.04657 0.250295,-0.07567 0.128058,-0.02911 0.250296,-0.04657 0.122237,-0.01746 0.232833,-0.0291 0.116417,-0.01164 0.20955,-0.01746 l 0.232833,-0.0058 q 0.186267,0.0058 0.372533,0.02911 0.192088,0.01746 0.384175,0.05821 0.186267,0.04075 0.372533,0.116416 0.192088,0.06985 0.384175,0.168805 l -0.186267,0.49477 H 47.29799 q -0.0291,-0.01164 -0.06403,-0.03493 -0.03493,-0.0291 -0.06985,-0.06403 -0.03493,-0.03493 -0.07567,-0.06985 -0.03493,-0.03493 -0.08149,-0.06985 -0.08149,-0.06403 -0.186267,-0.122237 -0.104775,-0.05821 -0.227012,-0.110596 -0.09895,-0.04657 -0.227013,-0.06985 -0.122237,-0.0291 -0.267758,-0.03493 -0.0291,0 -0.06403,0.0058 -0.0291,0 -0.06403,0.0058 -0.05821,0.0058 -0.122237,0.01746 -0.05821,0.01164 -0.122238,0.0291 -0.215371,0.05821 -0.4191,0.186267 -0.197908,0.122237 -0.384174,0.314325 -0.180446,0.192087 -0.285221,0.471487 -0.104775,0.2794 -0.133879,0.657754 v 0.01746 0.02328 0.02328 0.02328 q -0.0058,0.430741 0.110596,0.779991 0.116416,0.34925 0.349249,0.617008 0.221192,0.250296 0.500592,0.384175 0.28522,0.128058 0.63447,0.145521 0.116417,-0.0058 0.221192,-0.01746 0.110596,-0.01746 0.21537,-0.04075 0.13388,-0.0291 0.227013,-0.06985 0.09895,-0.04657 0.168804,-0.09895 v -1.525057 h 0.232833 q 0.01164,0.01164 0.02328,0.01746 0.01164,0 0.02911,0.0058 0.01164,0.0058 0.02328,0.01164 0.01164,0 0.02328,0 0.0058,0 0.0058,0 0.0058,0 0.01164,0 0.0058,0.0058 0.0058,0.0058 0.0058,0 0.01164,0 0,0 0,0 0,0 0.0058,0 0,0 0,0 0,0 0,0 0.0291,-0.0058 0.06403,-0.01164 0.03493,-0.01164 0.06985,-0.01746 l 0.232833,-0.0058 v 1.693861 l -0.01746,0.01746 -0.01746,0.0058 q -0.0291,0.01746 -0.06985,0.0291 -0.03493,0.01164 -0.07567,0.02328 -0.04075,0.01746 -0.08731,0.0291 -0.04657,0.01164 -0.09895,0.02328 -0.104775,0.02328 -0.20955,0.04075 -0.104775,0.01746 -0.221191,0.0291 -0.104775,0.01746 -0.203729,0.02911 -0.09313,0.01746 -0.192088,0.02328 -0.09313,0.01164 -0.174625,0.01746 -0.08149,0.0058 -0.14552,0.0058 h -0.232834 q -0.01164,0 -0.0291,0 -0.01164,0 -0.02328,0 -0.01164,0 -0.0291,0 -0.01164,0 -0.02328,0 -0.49477,0 -0.884766,-0.133879 -0.389995,-0.133879 -0.681037,-0.4191 -0.285221,-0.279399 -0.430741,-0.651933 -0.145521,-0.378353 -0.145521,-0.849841 v -0.01164 z m 4.4995,1.973261 1.833561,-4.080402 h 0.232834 0.133879 l 1.792815,4.080402 H 51.93719 q -0.01746,0 -0.04075,0 -0.01746,0 -0.04075,0 -0.02328,0 -0.04657,0 -0.01746,0 -0.04657,0 -0.01164,0 -0.0291,0 -0.01164,0 -0.02328,-0.0058 -0.01164,0 -0.02911,0 -0.01164,0 -0.02328,0 -0.01164,0.0058 -0.0291,0.0058 -0.01164,0 -0.02328,0 -0.01164,0 -0.02328,0 -0.01164,0 -0.01746,0 -0.01164,0 -0.02328,0 -0.0058,0 -0.01746,0 h -0.232833 l -0.640291,-1.606549 h -1.18745 l -0.593724,1.606549 h -0.232834 q -0.01164,0 -0.0291,0 -0.01164,0 -0.02328,0 l -0.0291,-0.0058 q -0.0058,0.0058 -0.01746,0.0058 -0.01164,0 -0.01746,0 -0.01164,0 -0.02328,0 -0.0058,0 -0.01746,0 h -0.232833 q -0.01746,0 -0.03493,0 -0.01746,0 -0.03492,0 v 0 z m 1.426103,-1.880128 h 0.954616 l -0.477308,-1.140883 -0.477308,1.140883 z m 3.201453,1.880128 v -4.033835 h 0.232833 0.2794 l 2.561165,2.817282 v -2.817282 h 0.232833 q 0.01164,0.01746 0.0291,0.02328 0.01746,0.0058 0.03493,0.01164 0.02328,-0.0058 0.04075,-0.01164 0.01746,-0.0058 0.0291,-0.01164 l 0.232834,-0.0058 v 4.028014 H 56.2446 56.017588 l -2.613553,-2.904594 v 2.904594 h -0.232833 q -0.0058,0 -0.01164,0 -0.0058,0 -0.01164,0 -0.01164,0 -0.01746,0 -0.0058,-0.0058 -0.01164,-0.0058 -0.01164,0 -0.02328,0 -0.0058,0 -0.01746,0.0058 -0.01164,0 -0.02328,0 -0.0058,0 -0.01746,0 H 52.80449 v 0 z m 4.546066,-1.973261 q 0.02328,-0.459846 0.133879,-0.803275 0.116417,-0.343429 0.320146,-0.56462 0.203729,-0.221192 0.424921,-0.372533 0.227012,-0.151342 0.471487,-0.232834 0.128058,-0.04657 0.250296,-0.07567 0.128058,-0.02911 0.250295,-0.04657 0.122238,-0.01746 0.232834,-0.0291 0.116416,-0.01164 0.209549,-0.01746 l 0.232834,-0.0058 q 0.186266,0.0058 0.372533,0.02911 0.192087,0.01746 0.384174,0.05821 0.186267,0.04075 0.372534,0.116416 0.192087,0.06985 0.384174,0.168805 l -0.186266,0.49477 h -0.232833 q -0.02911,-0.01164 -0.06403,-0.03493 -0.03493,-0.0291 -0.06985,-0.06403 -0.03493,-0.03493 -0.07567,-0.06985 -0.03493,-0.03493 -0.08149,-0.06985 -0.08149,-0.06403 -0.186266,-0.122237 -0.104775,-0.05821 -0.227013,-0.110596 -0.09895,-0.04657 -0.227012,-0.06985 -0.122238,-0.0291 -0.267758,-0.03493 -0.02911,0 -0.06403,0.0058 -0.02911,0 -0.06403,0.0058 -0.05821,0.0058 -0.122237,0.01746 -0.05821,0.01164 -0.122237,0.0291 -0.215371,0.05821 -0.4191,0.186267 -0.197908,0.122237 -0.384175,0.314325 -0.180446,0.192087 -0.285221,0.471487 -0.104775,0.2794 -0.133879,0.657754 v 0.01746 0.02328 0.02328 0.02328 q -0.0058,0.430741 0.110596,0.779991 0.116417,0.34925 0.34925,0.617008 0.221191,0.250296 0.500591,0.384175 0.285221,0.128058 0.634471,0.145521 0.116416,-0.0058 0.221191,-0.01746 0.110596,-0.01746 0.215371,-0.04075 0.133879,-0.0291 0.227012,-0.06985 0.09895,-0.04657 0.168804,-0.09895 v -1.525057 h 0.232834 q 0.01164,0.01164 0.02328,0.01746 0.01164,0 0.0291,0.0058 0.01164,0.0058 0.02328,0.01164 0.01164,0 0.02328,0 0.0058,0 0.0058,0 0.0058,0 0.01164,0 0.0058,0.0058 0.0058,0.0058 0.0058,0 0.01164,0 0,0 0,0 0,0 0.0058,0 0,0 0,0 0,0 0,0 0.0291,-0.0058 0.06403,-0.01164 0.03493,-0.01164 0.06985,-0.01746 l 0.232833,-0.0058 v 1.693861 l -0.01746,0.01746 -0.01746,0.0058 q -0.0291,0.01746 -0.06985,0.0291 -0.03493,0.01164 -0.07567,0.02328 -0.04075,0.01746 -0.08731,0.0291 -0.04657,0.01164 -0.09895,0.02328 -0.104775,0.02328 -0.209549,0.04075 -0.104775,0.01746 -0.221192,0.0291 -0.104775,0.01746 -0.203729,0.02911 -0.09313,0.01746 -0.192087,0.02328 -0.09313,0.01164 -0.174625,0.01746 -0.08149,0.0058 -0.145521,0.0058 h -0.232833 q -0.01164,0 -0.0291,0 -0.01164,0 -0.02328,0 -0.01164,0 -0.0291,0 -0.01164,0 -0.02328,0 -0.494771,0 -0.884766,-0.133879 -0.389996,-0.133879 -0.681037,-0.4191 -0.285221,-0.279399 -0.430742,-0.651933 -0.145521,-0.378353 -0.145521,-0.849841 v -0.01164 z m 6.798728,1.973261 v -3.987268 h 0.232833 2.107141 q -0.0058,0.0291 -0.01164,0.05239 -0.0058,0.01746 -0.01164,0.03492 0,0.0058 -0.0058,0.01746 0,0.0058 0,0.01164 -0.0058,0.01164 -0.0058,0.01746 0,0.0058 0,0.01746 v 0.01164 0.02328 q 0,0.0291 0,0.05239 0,0.01746 0.0058,0.04075 0,0.01164 0,0.02328 0.0058,0.01164 0.01164,0.02328 0.0058,0.01746 0.0058,0.0291 0.0058,0.01164 0.01164,0.02328 l -0.232834,-0.0058 q -0.08731,-0.01164 -0.174624,-0.02328 -0.08731,-0.01164 -0.186267,-0.01746 -0.09313,-0.0058 -0.192087,-0.0058 -0.09313,-0.0058 -0.192088,-0.0058 0,0 0,0 0,0 0,0 -0.0058,0 -0.0058,0 0,0 0,0 -0.02328,0.0058 -0.04657,0.0058 -0.01746,0 -0.04075,0 -0.02328,0 -0.04657,0 -0.02328,0 -0.04075,0 -0.02328,0 -0.05239,0 -0.02328,0 -0.05239,0 -0.02328,0.0058 -0.05239,0.0058 -0.02328,0 -0.04657,0 -0.05239,0 -0.104774,0 -0.04657,0 -0.09313,0 v 1.408641 h 0.640292 l 0.547158,-0.04657 h 0.232833 q -0.0058,0.0291 -0.01746,0.05239 -0.0058,0.01746 -0.01164,0.03493 -0.0058,0.02328 -0.0058,0.04657 0,0.01746 0,0.04075 0,0.01164 0,0.02328 0,0.01164 0,0.02328 0,0.01746 0,0.0291 0.0058,0.01164 0.0058,0.02328 0.0058,0.02328 0.01164,0.05239 0.01164,0.02328 0.01746,0.05239 l -0.232833,-0.0058 -0.686858,-0.05239 h -0.500592 v 1.653115 q 0.04075,0.01164 0.08731,0.01746 0.04657,0.0058 0.09895,0.0058 0.04657,0.0058 0.09313,0.0058 0.04657,0 0.09895,0 0.0291,0 0.05239,0 0.02328,0 0.04657,-0.0058 0.02328,0 0.04657,0 0.0291,0 0.05239,0 0.116417,-0.0058 0.227013,-0.01164 0.110596,-0.0058 0.221191,-0.01164 0.104775,-0.01164 0.192088,-0.01746 0.08731,-0.01164 0.157162,-0.01746 l 0.232833,-0.0058 q -0.0058,0.0291 -0.01746,0.05821 -0.0058,0.02328 -0.01164,0.05239 -0.0058,0.02328 -0.0058,0.04657 0,0.02328 0,0.04657 0,0.02328 0,0.04657 0,0.02328 0.0058,0.04657 0.0058,0.02328 0.01164,0.04075 0.01164,0.01746 0.01746,0.02328 h -0.232833 -2.153707 v 0 z m 4.220108,-2.014007 -1.239836,-1.973261 h 0.232833 q 0.03493,0.01746 0.06985,0.0291 0.04075,0.0058 0.08149,0.01164 0.0058,0 0.01164,0 0.0058,0 0.01164,0 0.0058,0 0.01164,0.0058 0.0058,0 0.01164,0 0.0058,0 0.01164,0 0.0058,0 0.01746,-0.0058 0.0058,0 0.01164,0 0.0058,0 0.01164,0 0.04657,-0.0058 0.08149,-0.01164 0.04075,-0.01164 0.07567,-0.01746 l 0.232833,-0.0058 0.803275,1.321329 0.84402,-1.327149 h 0.232833 q 0.02328,0.01164 0.04075,0.02328 0.01746,0.0058 0.03493,0.01164 0.0291,-0.0058 0.05239,-0.01164 0.0291,-0.0058 0.05239,-0.01164 l 0.232833,-0.0058 -1.239837,1.781174 1.379537,2.200274 h -0.232833 q -0.04075,0 -0.08731,0 -0.04075,-0.0058 -0.08731,-0.01164 -0.0058,0 -0.01164,0 -0.0058,0 -0.01164,-0.0058 -0.01164,0 -0.01746,0 -0.0058,0 -0.01164,0 -0.0058,0 -0.01164,0 -0.0058,0 -0.01164,0 -0.01164,0.0058 -0.01746,0.0058 -0.0058,0 -0.01164,0 -0.04075,0.0058 -0.08731,0.01164 -0.04075,0 -0.08731,0 h -0.232833 l -0.896408,-1.583266 -0.890587,1.583266 h -0.232833 -0.0291 l -0.02328,-0.01164 q -0.0058,0.0058 -0.01164,0.0058 -0.0058,0 -0.01746,-0.0058 -0.0058,0 -0.01164,0 -0.0058,0 -0.01746,0 0,0 0,0 0,0 0,0 -0.0058,0 -0.0058,0 0,0 0,0 -0.03493,0.0058 -0.07567,0.01164 -0.03493,0 -0.08149,0 h -0.232833 l 1.379536,-2.014007 v 0 z m 2.70668,2.014007 v -4.080402 h 0.232833 q 0.01746,0.01164 0.04075,0.02328 0.02328,0.0058 0.04657,0.01164 0.0058,0 0.01164,0.0058 0.01164,0 0.01746,0 0.0058,0 0.01164,0 0.01164,0 0.01746,0 0,0 0,0 0.0058,0 0.01164,0 0.0058,0 0.0058,0 0.0058,0 0.0058,0 0.0291,-0.0058 0.05239,-0.01164 0.02911,-0.01164 0.04657,-0.01746 l 0.232833,-0.0058 v 1.693862 q 0.08149,0.02328 0.20955,0.03493 0.128058,0.01164 0.302683,0.02328 0.157163,0.0058 0.320146,0.01164 0.168804,0.0058 0.337608,0.0058 0.151342,0 0.291042,0 0.14552,-0.0058 0.28522,-0.01164 0.168804,-0.01164 0.296863,-0.02328 0.128058,-0.01164 0.203729,-0.0291 v -1.711324 h 0.232833 q 0.0058,0.01164 0.01164,0.01746 0.0058,0 0.01164,0 0,0.0058 0.0058,0.0058 0.0058,0 0.01164,0 0.01164,0.0058 0.02328,0.0058 0.01164,0 0.02328,0 0.0058,0 0.01164,0.0058 0.0058,0 0.01164,0 0.0058,0.0058 0.01164,0.0058 0.0058,0 0.01164,0 0.0058,0 0.0058,0 0.0058,0 0.01164,0 0.02911,-0.0058 0.05821,-0.01164 0.03493,-0.01164 0.05821,-0.01746 l 0.232833,-0.0058 v 4.074581 h -0.232833 q -0.02328,0 -0.05239,0 -0.02328,-0.0058 -0.05239,-0.01164 0,0 -0.0058,0 0,0 0,0 0,0 -0.0058,0 0,0 0,0 0,0 -0.0058,0 0,0 -0.0058,0 -0.03493,0.0058 -0.06985,0.01164 -0.03493,0 -0.06985,0 h -0.232833 v -2.014007 q -0.04075,0 -0.09895,0 -0.05239,-0.0058 -0.116417,-0.01164 -0.06403,0 -0.1397,0 -0.06985,-0.0058 -0.151342,-0.01164 -0.128058,-0.01164 -0.267758,-0.01164 -0.1397,-0.0058 -0.291041,-0.0058 -0.0291,0 -0.05821,0 -0.0291,0 -0.05239,0 -0.0291,0.0058 -0.05821,0.0058 -0.02328,0 -0.05239,0 -0.03493,0 -0.06985,0 -0.03493,0 -0.06985,0 -0.04075,0.0058 -0.07567,0.0058 -0.03493,0 -0.06985,0 -0.04075,0 -0.08731,0.0058 -0.04075,0 -0.08149,0 -0.04657,0.0058 -0.08731,0.01164 -0.04075,0 -0.08731,0 -0.08731,0.0058 -0.168804,0.01164 -0.08149,0 -0.162984,0.01164 v 2.002366 h -0.232833 q -0.03493,0 -0.06403,0 -0.02328,-0.0058 -0.05239,-0.01164 -0.03493,0.0058 -0.06985,0.01164 -0.03492,0 -0.08149,0 h -0.232833 v 0 z M 76.1693,41.614881 q 0.0291,0.01746 0.05239,0.0291 0.0291,0.0058 0.06403,0.01164 0.0058,0 0.0058,0 0.0058,0 0.01164,0 0.0058,0 0.0058,0 0.0058,0 0.01164,0 0.03492,-0.0058 0.06403,-0.01164 0.03493,-0.01164 0.05821,-0.01746 l 0.232833,-0.0058 v 4.028014 h -0.232833 q -0.02328,0 -0.05821,0 -0.0291,-0.0058 -0.05821,-0.01164 -0.0058,0 -0.01164,0 0,0 -0.0058,0 -0.0058,0 -0.01164,0 -0.0058,0 -0.01164,0 -0.03493,0.0058 -0.06403,0.01164 -0.02328,0 -0.05239,0 H 75.936467 V 41.614881 H 76.1693 v 0 z m 1.606545,4.033835 v -3.987268 h 0.232833 1.379537 q 0.01164,0.01164 0.02328,0.01164 0.01746,0 0.02911,0 0.01164,0 0.02328,0 0.01746,0 0.0291,0 0.186267,0.0058 0.355071,0.05239 0.168804,0.04075 0.325966,0.122237 0.157163,0.07567 0.232833,0.232833 0.08149,0.151342 0.08149,0.384175 v 0.01746 0.01746 0.02328 0.01746 q 0,0.174625 -0.06403,0.331787 -0.06403,0.151342 -0.186267,0.291042 -0.122237,0.1397 -0.2794,0.227012 -0.157162,0.08149 -0.343428,0.116417 0.203729,0.03493 0.384174,0.09895 0.180446,0.06403 0.325967,0.157162 0.151341,0.09313 0.221191,0.273579 0.07567,0.174625 0.07567,0.430742 0,0.308503 -0.104775,0.535516 -0.09895,0.221191 -0.302683,0.35507 -0.197908,0.1397 -0.424921,0.215371 -0.221191,0.06985 -0.465666,0.07567 h -0.232833 q -0.0058,0 -0.01746,0 -0.0058,0 -0.01164,0 -0.01164,0 -0.01746,0 -0.0058,0 -0.01746,0 -0.01746,0 -0.03492,0 -0.01164,0 -0.02328,0 h -1.19327 v 0 z m 0.739246,-0.227012 h 0.320145 q 0.203729,0.01164 0.360892,-0.03493 0.162983,-0.05239 0.291041,-0.151342 0.122238,-0.09895 0.203729,-0.203729 0.08149,-0.110596 0.122238,-0.232833 0,-0.01164 0,-0.02328 0.0058,-0.01164 0.01164,-0.0291 0,-0.01164 0,-0.02328 0.0058,-0.01164 0.0058,-0.02328 0.0058,-0.02328 0.0058,-0.04657 0.0058,-0.02328 0.0058,-0.04657 0,-0.291041 -0.09313,-0.483128 -0.08731,-0.197909 -0.273579,-0.291042 -0.157163,-0.08149 -0.395817,-0.128058 -0.238654,-0.04657 -0.56462,-0.05239 v 1.769533 z m 0,-2.019828 h 0.133879 q 0.256116,0.01164 0.454025,-0.03493 0.197908,-0.05239 0.337608,-0.151342 0.133879,-0.09895 0.20955,-0.244475 0.08149,-0.145521 0.09895,-0.337608 v -0.02328 l 0.0058,-0.01746 v -0.01164 -0.01746 q 0,-0.162983 -0.06985,-0.291041 -0.06985,-0.128059 -0.209549,-0.20955 -0.1397,-0.08149 -0.302684,-0.122238 -0.157162,-0.04075 -0.337608,-0.04075 l -0.320145,-0.01164 v 1.513416 z m 3.300404,-1.786995 q 0.0291,0.01746 0.05239,0.0291 0.0291,0.0058 0.06403,0.01164 0.0058,0 0.0058,0 0.0058,0 0.01164,0 0.0058,0 0.0058,0 0.0058,0 0.01164,0 0.03493,-0.0058 0.06403,-0.01164 0.03493,-0.01164 0.05821,-0.01746 l 0.232833,-0.0058 v 4.028014 h -0.232833 q -0.02328,0 -0.05821,0 -0.0291,-0.0058 -0.05821,-0.01164 -0.0058,0 -0.01164,0 0,0 -0.0058,0 -0.0058,0 -0.01164,0 -0.0058,0 -0.01164,0 -0.03493,0.0058 -0.06403,0.01164 -0.02328,0 -0.05239,0 h -0.232834 v -4.033835 h 0.232834 v 0 z m 2.43311,4.033835 v -3.742794 q -0.0058,0.0058 -0.01164,0.0058 -0.0058,0 -0.01164,0 -0.0058,0.0058 -0.01164,0.0058 -0.0058,0 -0.01164,0 -0.08731,0.0058 -0.180446,0.01746 -0.08731,0.0058 -0.180446,0.01746 -0.03493,0.0058 -0.06985,0.01164 -0.0291,0 -0.05821,0.0058 -0.0291,0.0058 -0.06403,0.01164 -0.0291,0 -0.05821,0 -0.05821,0.0058 -0.116416,0.01746 -0.05239,0.0058 -0.104775,0.01746 -0.05239,0.0058 -0.09313,0.01164 -0.04075,0.0058 -0.07567,0.01164 l -0.232833,-0.0058 q 0.0058,-0.0058 0.0058,-0.01746 0.0058,-0.01746 0.01164,-0.0291 0,-0.01164 0,-0.02328 0.0058,-0.01164 0.01164,-0.0291 0,-0.01164 0,-0.02328 0,-0.01164 0,-0.02328 0,-0.0058 0,-0.01164 0,-0.0058 0.0058,-0.01746 0,-0.0058 0,-0.01164 0,-0.0058 0,-0.01164 0,-0.0291 -0.0058,-0.05239 0,-0.0291 -0.0058,-0.05239 -0.0058,-0.0291 -0.01164,-0.05239 0,-0.0291 -0.01164,-0.05239 l 3.067577,-0.01164 h 0.232833 q -0.0058,0.02328 -0.01164,0.04075 0,0.01164 -0.0058,0.02328 -0.0058,0.01164 -0.0058,0.02328 0,0.01164 0,0.02328 -0.0058,0.01746 -0.01164,0.0291 0,0.01164 0,0.02328 0,0.01164 0,0.0291 0,0.01164 0,0.02328 0,0.02328 0,0.05239 0,0.02328 0.0058,0.05239 0.0058,0.02328 0.01164,0.05239 0.01164,0.02328 0.01746,0.05239 l -0.232833,-0.0058 q -0.203729,-0.0291 -0.395816,-0.05239 -0.192088,-0.0291 -0.366713,-0.04657 -0.08149,-0.01164 -0.151341,-0.01164 -0.06985,-0.0058 -0.133879,-0.01164 v 3.736973 h -0.232834 q -0.01164,0 -0.0291,0 -0.01164,0 -0.02328,-0.0058 -0.01746,0 -0.03493,0 -0.01164,-0.0058 -0.02328,-0.0058 0,0 -0.0058,0 0,0 0,0 0,0 -0.0058,0 0,0 0,0 0,0 -0.0058,0 0,0 -0.0058,0 -0.03493,0.0058 -0.06985,0.01164 -0.03493,0 -0.06985,0 h -0.232833 v 0 z m 2.892955,-4.033835 q 0.0291,0.01746 0.05239,0.0291 0.0291,0.0058 0.06403,0.01164 0.0058,0 0.0058,0 0.0058,0 0.01164,0 0.0058,0 0.0058,0 0.0058,0 0.01164,0 0.03493,-0.0058 0.06403,-0.01164 0.03493,-0.01164 0.05821,-0.01746 l 0.232833,-0.0058 v 4.028014 h -0.232833 q -0.02328,0 -0.05821,0 -0.0291,-0.0058 -0.05821,-0.01164 -0.0058,0 -0.01164,0 0,0 -0.0058,0 -0.0058,0 -0.01164,0 -0.0058,0 -0.01164,0 -0.03493,0.0058 -0.06403,0.01164 -0.02328,0 -0.05239,0 h -0.232834 v -4.033835 h 0.232834 v 0 z m 1.286407,2.019828 q 0,-0.02328 0,-0.04657 0,-0.0291 0,-0.05239 0,-0.0291 0,-0.05821 0.0058,-0.0291 0.01164,-0.05821 0.03492,-0.34925 0.192088,-0.669395 0.157162,-0.325967 0.436562,-0.622829 0.273579,-0.296862 0.675216,-0.442383 0.401638,-0.151342 0.931333,-0.151342 l 0.232833,-0.0058 q 0.535517,0.02328 0.913871,0.145521 0.384174,0.122238 0.617008,0.360892 0.232833,0.232833 0.378354,0.488949 0.151341,0.256117 0.21537,0.535517 0.01164,0.03493 0.01746,0.06985 0.0058,0.03492 0.01164,0.06403 0.0058,0.03493 0.01164,0.06985 0.0058,0.03493 0.01164,0.06985 0.01164,0.06985 0.01164,0.1397 0.0058,0.06403 0.01164,0.128058 v 0.01164 0.01746 0.02328 0.01746 q 0,0.48895 -0.168804,0.873124 -0.162983,0.378354 -0.500591,0.651933 -0.337609,0.2794 -0.721783,0.413279 -0.378354,0.133879 -0.803275,0.133879 h -0.232833 q -0.01164,0 -0.02328,0 -0.01164,0 -0.02328,0 -0.01164,0 -0.0291,0 -0.01164,0 -0.02328,0 -0.07567,0 -0.151342,-0.0058 -0.06985,0 -0.14552,-0.01164 -0.07567,-0.0058 -0.151342,-0.02328 -0.07567,-0.01746 -0.151342,-0.03493 -0.291041,-0.06403 -0.558799,-0.221191 -0.267758,-0.157162 -0.512233,-0.395817 -0.244475,-0.238654 -0.366713,-0.587903 -0.116416,-0.355071 -0.116416,-0.814917 v -0.01164 z m 0.832378,0.0058 q 0,0.454024 0.110596,0.803274 0.116417,0.343429 0.34925,0.587904 0.20955,0.221192 0.471487,0.343429 0.267758,0.122237 0.587904,0.1397 0.296862,-0.01746 0.541337,-0.1397 0.250296,-0.122237 0.448204,-0.343429 0.221192,-0.244475 0.34925,-0.593725 0.128058,-0.349249 0.162983,-0.791633 0,-0.01164 0,-0.02328 0,-0.01746 0,-0.02328 0,-0.01164 0,-0.02328 0,-0.01164 0,-0.02328 0,-0.378354 -0.116416,-0.698499 -0.110596,-0.320146 -0.337609,-0.576263 -0.21537,-0.232833 -0.488949,-0.360891 -0.267758,-0.128058 -0.593725,-0.145521 -0.285221,0.01746 -0.512233,0.122238 -0.227012,0.09895 -0.384175,0.28522 -0.174625,0.20955 -0.296862,0.436563 -0.116417,0.227012 -0.186267,0.471487 -0.01746,0.07567 -0.03493,0.145521 -0.01746,0.06985 -0.0291,0.139699 -0.01164,0.06985 -0.02328,0.1397 -0.0058,0.06985 -0.01746,0.133879 z m 4.580991,2.008186 v -4.033835 h 0.232833 0.2794 l 2.561165,2.817282 v -2.817282 h 0.232833 q 0.01164,0.01746 0.02911,0.02328 0.01746,0.0058 0.03493,0.01164 0.02328,-0.0058 0.04075,-0.01164 0.01746,-0.0058 0.0291,-0.01164 l 0.232834,-0.0058 v 4.028014 h -0.232834 -0.227012 l -2.613553,-2.904594 v 2.904594 h -0.232833 q -0.0058,0 -0.01164,0 -0.0058,0 -0.01164,0 -0.01164,0 -0.01746,0 -0.0058,-0.0058 -0.01164,-0.0058 -0.01164,0 -0.02328,0 -0.0058,0 -0.01746,0.0058 -0.01164,0 -0.02328,0 -0.0058,0 -0.01746,0 h -0.232833 v 0 z m 6.292324,-1.973261 q 0,-0.407458 0.14552,-0.762529 0.14552,-0.360892 0.43074,-0.669396 0.29104,-0.308503 0.68686,-0.459845 0.39581,-0.157162 0.89058,-0.157162 l 0.23284,-0.0058 q 0.0291,0.0058 0.0582,0.0058 0.0291,0 0.0582,0 0.0291,0.0058 0.0582,0.0058 0.0291,0 0.0582,0 0.064,0.0058 0.12224,0.01164 0.064,0 0.12805,0.0058 0.12224,0.0058 0.23866,0.0291 0.12224,0.01746 0.23865,0.04657 0.11642,0.0291 0.22119,0.07567 0.10478,0.04075 0.19791,0.09895 l -0.1397,0.448203 h -0.23283 -0.0466 q -0.10477,-0.09313 -0.21537,-0.168804 -0.11059,-0.08149 -0.22701,-0.1397 -0.11642,-0.05821 -0.23865,-0.09313 -0.11642,-0.04075 -0.23284,-0.06403 -0.0349,-0.0058 -0.0699,-0.0058 -0.0349,-0.0058 -0.064,-0.01164 -0.006,0 -0.0116,0 0,0 0,0 -0.006,0 -0.0116,0 0,0 -0.006,0 -0.26776,0.02328 -0.51223,0.139699 -0.23866,0.116417 -0.44821,0.320146 -0.23283,0.232833 -0.35507,0.552979 -0.12224,0.320146 -0.12224,0.733425 v 0.03492 0.03493 q 0.0117,0.500592 0.13388,0.855662 0.12806,0.355071 0.37254,0.5588 0.22701,0.192088 0.47148,0.296862 0.24448,0.09896 0.51224,0.116417 0.15134,-0.01164 0.29686,-0.04075 0.14552,-0.03492 0.29104,-0.09313 0.15134,-0.05821 0.28522,-0.133879 0.13388,-0.08149 0.24448,-0.174625 l 0.23283,-0.0058 -0.0466,0.360892 q -0.0407,0.0291 -0.0815,0.05239 -0.0408,0.02328 -0.0757,0.04657 -0.0408,0.02328 -0.0815,0.04075 -0.0407,0.01746 -0.0815,0.03492 -0.064,0.02328 -0.12806,0.04075 -0.0582,0.01746 -0.11642,0.04075 -0.0233,0.0058 -0.0466,0.01164 -0.0175,0.0058 -0.0349,0.01164 -0.0873,0.01746 -0.1688,0.03492 -0.0815,0.01746 -0.16299,0.02911 -0.0815,0.01164 -0.16298,0.01746 -0.0757,0.0058 -0.15716,0.0058 h -0.23284 q -0.42492,0 -0.79163,-0.133879 -0.36671,-0.133879 -0.68104,-0.4191 -0.31432,-0.285221 -0.47148,-0.669395 -0.15134,-0.389996 -0.15134,-0.878946 v -0.01164 z m 4.40636,1.973261 v -3.987268 h 0.23284 2.10714 q -0.006,0.0291 -0.0116,0.05239 -0.006,0.01746 -0.0116,0.03492 0,0.0058 -0.006,0.01746 0,0.0058 0,0.01164 -0.006,0.01164 -0.006,0.01746 0,0.0058 0,0.01746 v 0.01164 0.02328 q 0,0.0291 0,0.05239 0,0.01746 0.006,0.04075 0,0.01164 0,0.02328 0.006,0.01164 0.0116,0.02328 0.006,0.01746 0.006,0.0291 0.006,0.01164 0.0116,0.02328 l -0.23284,-0.0058 q -0.0873,-0.01164 -0.17462,-0.02328 -0.0873,-0.01164 -0.18627,-0.01746 -0.0931,-0.0058 -0.19208,-0.0058 -0.0931,-0.0058 -0.19209,-0.0058 0,0 0,0 0,0 0,0 -0.006,0 -0.006,0 0,0 0,0 -0.0233,0.0058 -0.0466,0.0058 -0.0175,0 -0.0408,0 -0.0233,0 -0.0466,0 -0.0233,0 -0.0408,0 -0.0233,0 -0.0524,0 -0.0233,0 -0.0524,0 -0.0233,0.0058 -0.0524,0.0058 -0.0233,0 -0.0466,0 -0.0524,0 -0.10477,0 -0.0466,0 -0.0931,0 v 1.408641 h 0.6403 l 0.54715,-0.04657 h 0.23284 q -0.006,0.0291 -0.0175,0.05239 -0.006,0.01746 -0.0116,0.03493 -0.006,0.02328 -0.006,0.04657 0,0.01746 0,0.04075 0,0.01164 0,0.02328 0,0.01164 0,0.02328 0,0.01746 0,0.0291 0.006,0.01164 0.006,0.02328 0.006,0.02328 0.0116,0.05239 0.0117,0.02328 0.0175,0.05239 l -0.23284,-0.0058 -0.68685,-0.05239 h -0.5006 v 1.653115 q 0.0408,0.01164 0.0873,0.01746 0.0466,0.0058 0.099,0.0058 0.0466,0.0058 0.0931,0.0058 0.0466,0 0.099,0 0.0291,0 0.0524,0 0.0233,0 0.0466,-0.0058 0.0233,0 0.0466,0 0.0291,0 0.0524,0 0.11641,-0.0058 0.22701,-0.01164 0.11059,-0.0058 0.22119,-0.01164 0.10478,-0.01164 0.19209,-0.01746 0.0873,-0.01164 0.15716,-0.01746 l 0.23283,-0.0058 q -0.006,0.0291 -0.0175,0.05821 -0.006,0.02328 -0.0116,0.05239 -0.006,0.02328 -0.006,0.04657 0,0.02328 0,0.04657 0,0.02328 0,0.04657 0,0.02328 0.006,0.04657 0.006,0.02328 0.0116,0.04075 0.0116,0.01746 0.0175,0.02328 h -0.23283 -2.15371 v 0 z m 3.20728,0 v -4.033835 h 0.23284 0.2794 l 2.56116,2.817282 v -2.817282 h 0.23284 q 0.0116,0.01746 0.0291,0.02328 0.0175,0.0058 0.0349,0.01164 0.0233,-0.0058 0.0408,-0.01164 0.0175,-0.0058 0.0291,-0.01164 l 0.23284,-0.0058 v 4.028014 h -0.23284 -0.22701 l -2.61355,-2.904594 v 2.904594 h -0.23283 q -0.006,0 -0.0117,0 -0.006,0 -0.0116,0 -0.0116,0 -0.0175,0 -0.006,-0.0058 -0.0116,-0.0058 -0.0116,0 -0.0233,0 -0.006,0 -0.0175,0.0058 -0.0116,0 -0.0233,0 -0.006,0 -0.0175,0 h -0.23284 v 0 z m 5.59964,0 v -3.742794 q -0.006,0.0058 -0.0116,0.0058 -0.006,0 -0.0116,0 -0.006,0.0058 -0.0116,0.0058 -0.006,0 -0.0117,0 -0.0873,0.0058 -0.18044,0.01746 -0.0873,0.0058 -0.18045,0.01746 -0.0349,0.0058 -0.0699,0.01164 -0.0291,0 -0.0582,0.0058 -0.0291,0.0058 -0.064,0.01164 -0.0291,0 -0.0582,0 -0.0582,0.0058 -0.11642,0.01746 -0.0524,0.0058 -0.10477,0.01746 -0.0524,0.0058 -0.0931,0.01164 -0.0407,0.0058 -0.0757,0.01164 l -0.23283,-0.0058 q 0.006,-0.0058 0.006,-0.01746 0.006,-0.01746 0.0116,-0.0291 0,-0.01164 0,-0.02328 0.006,-0.01164 0.0116,-0.0291 0,-0.01164 0,-0.02328 0,-0.01164 0,-0.02328 0,-0.0058 0,-0.01164 0,-0.0058 0.006,-0.01746 0,-0.0058 0,-0.01164 0,-0.0058 0,-0.01164 0,-0.0291 -0.006,-0.05239 0,-0.0291 -0.006,-0.05239 -0.006,-0.0291 -0.0116,-0.05239 0,-0.0291 -0.0116,-0.05239 l 3.06758,-0.01164 h 0.23283 q -0.006,0.02328 -0.0116,0.04075 0,0.01164 -0.006,0.02328 -0.006,0.01164 -0.006,0.02328 0,0.01164 0,0.02328 -0.006,0.01746 -0.0117,0.0291 0,0.01164 0,0.02328 0,0.01164 0,0.0291 0,0.01164 0,0.02328 0,0.02328 0,0.05239 0,0.02328 0.006,0.05239 0.006,0.02328 0.0117,0.05239 0.0116,0.02328 0.0175,0.05239 l -0.23283,-0.0058 q -0.20373,-0.0291 -0.39582,-0.05239 -0.19209,-0.0291 -0.36671,-0.04657 -0.0815,-0.01164 -0.15135,-0.01164 -0.0698,-0.0058 -0.13387,-0.01164 v 3.736973 h -0.23284 q -0.0116,0 -0.0291,0 -0.0116,0 -0.0233,-0.0058 -0.0175,0 -0.0349,0 -0.0116,-0.0058 -0.0233,-0.0058 0,0 -0.006,0 0,0 0,0 0,0 -0.006,0 0,0 0,0 0,0 -0.006,0 0,0 -0.006,0 -0.0349,0.0058 -0.0699,0.01164 -0.0349,0 -0.0699,0 h -0.23283 v 0 z m 2.61938,0 v -3.987268 h 0.23283 2.10714 q -0.006,0.0291 -0.0116,0.05239 -0.006,0.01746 -0.0116,0.03492 0,0.0058 -0.006,0.01746 0,0.0058 0,0.01164 -0.006,0.01164 -0.006,0.01746 0,0.0058 0,0.01746 v 0.01164 0.02328 q 0,0.0291 0,0.05239 0,0.01746 0.006,0.04075 0,0.01164 0,0.02328 0.006,0.01164 0.0116,0.02328 0.006,0.01746 0.006,0.0291 0.006,0.01164 0.0116,0.02328 l -0.23283,-0.0058 q -0.0873,-0.01164 -0.17463,-0.02328 -0.0873,-0.01164 -0.18627,-0.01746 -0.0931,-0.0058 -0.19208,-0.0058 -0.0931,-0.0058 -0.19209,-0.0058 0,0 0,0 0,0 0,0 -0.006,0 -0.006,0 0,0 0,0 -0.0233,0.0058 -0.0466,0.0058 -0.0175,0 -0.0407,0 -0.0233,0 -0.0466,0 -0.0233,0 -0.0407,0 -0.0233,0 -0.0524,0 -0.0233,0 -0.0524,0 -0.0233,0.0058 -0.0524,0.0058 -0.0233,0 -0.0466,0 -0.0524,0 -0.10478,0 -0.0466,0 -0.0931,0 v 1.408641 h 0.64029 l 0.54716,-0.04657 h 0.23283 q -0.006,0.0291 -0.0175,0.05239 -0.006,0.01746 -0.0116,0.03493 -0.006,0.02328 -0.006,0.04657 0,0.01746 0,0.04075 0,0.01164 0,0.02328 0,0.01164 0,0.02328 0,0.01746 0,0.0291 0.006,0.01164 0.006,0.02328 0.006,0.02328 0.0116,0.05239 0.0116,0.02328 0.0175,0.05239 l -0.23283,-0.0058 -0.68686,-0.05239 h -0.50059 v 1.653115 q 0.0407,0.01164 0.0873,0.01746 0.0466,0.0058 0.099,0.0058 0.0466,0.0058 0.0931,0.0058 0.0466,0 0.099,0 0.0291,0 0.0524,0 0.0233,0 0.0466,-0.0058 0.0233,0 0.0466,0 0.0291,0 0.0524,0 0.11642,-0.0058 0.22701,-0.01164 0.1106,-0.0058 0.22119,-0.01164 0.10478,-0.01164 0.19209,-0.01746 0.0873,-0.01164 0.15716,-0.01746 l 0.23284,-0.0058 q -0.006,0.0291 -0.0175,0.05821 -0.006,0.02328 -0.0116,0.05239 -0.006,0.02328 -0.006,0.04657 0,0.02328 0,0.04657 0,0.02328 0,0.04657 0,0.02328 0.006,0.04657 0.006,0.02328 0.0116,0.04075 0.0117,0.01746 0.0175,0.02328 h -0.23284 -2.1537 v 0 z m 3.16653,0 v -4.033835 h 0.23283 1.42029 q 0.29104,0.01164 0.50641,0.08149 0.22119,0.06985 0.36089,0.20373 0.1397,0.139699 0.20955,0.314324 0.0699,0.168804 0.0699,0.372533 0,0.197909 -0.0582,0.360892 -0.0524,0.157162 -0.1688,0.273579 -0.1106,0.116417 -0.23866,0.203729 -0.12223,0.08731 -0.25611,0.1397 -0.064,0.02328 -0.12806,0.04657 -0.0582,0.02328 -0.12224,0.03492 -0.0582,0.01746 -0.11642,0.02911 -0.0582,0.0058 -0.10477,0.01164 l 1.55998,1.96162 h -0.23283 q -0.0233,0 -0.0466,0 -0.0175,0 -0.0407,-0.0058 -0.0233,0 -0.0466,0 -0.0175,-0.0058 -0.0349,-0.01164 -0.0175,0 -0.0349,0 -0.0116,0 -0.0233,0 -0.006,0 -0.0117,0 -0.006,0 -0.0175,0 -0.006,0.0058 -0.0116,0.0058 -0.006,0 -0.0175,0 -0.0408,0.0058 -0.0873,0.01164 -0.0407,0 -0.0873,0 h -0.23283 l -1.46103,-1.868486 v 1.868486 h -0.23283 q -0.0175,0 -0.0349,0 -0.0175,0 -0.0349,-0.0058 -0.006,0 -0.0175,0 -0.006,0 -0.0116,-0.0058 -0.0116,0 -0.0175,0 -0.006,-0.0058 -0.0175,-0.0058 -0.006,0 -0.0116,0 -0.006,0 -0.006,0 -0.006,0.0058 -0.0116,0.0058 -0.006,0 -0.0117,0 -0.0349,0.0058 -0.0699,0.01164 -0.0349,0 -0.0699,0 h -0.23283 v 0 z m 0.77999,-2.153707 q 0.0116,0.01164 0.0291,0.01746 0.0175,0 0.0349,0 0.22119,-0.0058 0.39582,-0.04075 0.17462,-0.03492 0.29104,-0.104775 0.13388,-0.07567 0.22119,-0.157163 0.0931,-0.08731 0.14552,-0.180445 0.0408,-0.06403 0.064,-0.128059 0.0291,-0.06985 0.0349,-0.128058 0.0117,-0.06403 0.0117,-0.110596 0.006,-0.04657 0.006,-0.07567 0,-0.0291 -0.006,-0.06403 -0.006,-0.03493 -0.0175,-0.08149 -0.006,-0.04657 -0.0291,-0.09313 -0.0233,-0.04657 -0.0524,-0.09895 -0.0407,-0.07567 -0.11641,-0.14552 -0.0757,-0.06985 -0.17463,-0.128059 -0.099,-0.06403 -0.23865,-0.09313 -0.1397,-0.0291 -0.32597,-0.0291 l -0.27358,-0.01164 v 1.653116 0 z"
         id="text8"
         aria-label="TAIPEI NANGANG EXHIBITION CENTER" />
      <g
         id="g1"
         transform="translate(9.6304544,-0.52916667)">
        <path
           style="font-weight:500;font-size:5.82083px;line-height:1.25;font-family:'Noto Sans JP';-inkscape-font-specification:'Noto Sans JP Medium';fill:#ffffff;stroke-width:0.264583"
           d="m 25.385128,49.277967 h 5.145613 v 0.518054 h -5.145613 z m 1.234016,2.409824 h 2.689223 v 0.436562 h -2.689223 z m -0.122238,0.937154 h 2.927878 v 0.454024 h -2.927878 z m 1.181629,-0.721783 h 0.523874 v 2.10714 h -0.523874 z m -2.019828,-1.571624 h 4.214281 v 0.512233 h -3.661302 v 3.288769 h -0.552979 z m 4.045477,0 h 0.558799 v 3.213098 q 0,0.221191 -0.05821,0.337608 -0.05821,0.116416 -0.221192,0.174625 -0.157162,0.05821 -0.413279,0.06985 -0.250295,0.01164 -0.605366,0.01164 -0.01746,-0.104775 -0.07567,-0.244474 -0.05239,-0.13388 -0.110595,-0.232834 0.168804,0.0058 0.325966,0.0058 0.162983,0.0058 0.291042,0 0.128058,0 0.174624,0 0.08149,0 0.104775,-0.02328 0.02911,-0.0291 0.02911,-0.09895 z m -2.817282,0.686858 0.436562,-0.13388 q 0.110596,0.151342 0.20955,0.337609 0.09895,0.186266 0.145521,0.325966 l -0.465667,0.162983 q -0.03493,-0.14552 -0.133879,-0.337608 -0.09313,-0.197908 -0.192087,-0.35507 z m 1.717145,-0.13388 0.465666,0.1397 q -0.110596,0.215371 -0.232833,0.430742 -0.122237,0.21537 -0.232833,0.366712 L 28.20823,51.699433 q 0.06985,-0.110596 0.1397,-0.256117 0.07567,-0.145521 0.1397,-0.291041 0.06985,-0.145521 0.116417,-0.267759 z m -0.942975,-2.124602 h 0.605367 v 1.926694 h -0.605367 z m 5.023376,0.611187 h 3.649661 v 0.500591 h -3.649661 z m -0.232833,1.071032 h 4.051298 v 0.500592 h -4.051298 z m 0.989541,-1.693861 h 0.535517 v 2.060574 h -0.535517 z m 1.530879,0 h 0.541337 v 2.072215 h -0.541337 z m -1.455208,2.008186 0.471487,0.162983 q -0.1397,0.320146 -0.343429,0.62865 -0.197908,0.308504 -0.436562,0.570441 -0.238654,0.261938 -0.48895,0.436563 -0.04074,-0.06403 -0.110595,-0.1397 -0.06403,-0.08149 -0.1397,-0.151342 -0.06985,-0.07567 -0.128058,-0.122237 0.232833,-0.145521 0.454024,-0.366713 0.227013,-0.221191 0.413279,-0.483128 0.186267,-0.267759 0.308504,-0.535517 z m 1.920874,-0.01746 q 0.110596,0.256116 0.291041,0.512233 0.186267,0.256116 0.407459,0.465666 0.227012,0.203729 0.465666,0.337608 -0.06403,0.05239 -0.1397,0.128059 -0.07567,0.06985 -0.1397,0.157162 -0.06403,0.08149 -0.110596,0.151342 -0.250295,-0.168805 -0.488949,-0.4191 -0.232834,-0.256117 -0.424921,-0.5588 -0.192087,-0.302683 -0.325966,-0.617008 z m -1.955799,1.699682 h 1.478491 v -0.535516 h -1.40282 v -0.436563 h 1.909232 v 1.414462 h -1.984903 z m -0.232833,0 h 0.518054 v 1.012824 q 0,0.122238 0.07567,0.162984 0.07567,0.03493 0.349249,0.03493 0.04657,0 0.157163,0 0.110596,0 0.256116,0 0.145521,0 0.291042,0 0.145521,0 0.267758,0 0.122237,0 0.186267,0 0.14552,0 0.21537,-0.04075 0.07567,-0.04657 0.104775,-0.180446 0.03492,-0.1397 0.05239,-0.413279 0.08731,0.06403 0.227012,0.116417 0.145521,0.05239 0.250296,0.07567 -0.0291,0.372533 -0.110596,0.570441 -0.08149,0.203729 -0.244475,0.2794 -0.162983,0.07567 -0.459845,0.07567 -0.04075,0 -0.168805,0 -0.128058,0 -0.291041,0 -0.157162,0 -0.320146,0 -0.162983,0 -0.291041,0 -0.122238,0 -0.162983,0 -0.34925,0 -0.547158,-0.05821 -0.197909,-0.05821 -0.2794,-0.203729 -0.07567,-0.145521 -0.07567,-0.413279 z m -1.897591,-3.253844 0.308504,-0.407458 q 0.174625,0.06985 0.366713,0.174625 0.192087,0.104775 0.360891,0.215371 0.168804,0.104775 0.2794,0.20955 l -0.325966,0.448203 q -0.09896,-0.09895 -0.267759,-0.21537 -0.162983,-0.116417 -0.35507,-0.227013 -0.192088,-0.116416 -0.366713,-0.197908 z m -0.302683,1.571624 0.302683,-0.413279 q 0.180446,0.06403 0.372534,0.162984 0.192087,0.09313 0.360891,0.197908 0.168804,0.104775 0.2794,0.197908 l -0.320146,0.459846 q -0.09895,-0.09896 -0.267758,-0.20955 -0.168804,-0.110596 -0.360891,-0.215371 -0.186267,-0.104775 -0.366713,-0.180446 z m 0.151342,2.986086 q 0.1397,-0.227012 0.302683,-0.535516 0.162983,-0.308504 0.331787,-0.657754 0.168804,-0.34925 0.314325,-0.681037 l 0.430742,0.331787 q -0.128059,0.308504 -0.2794,0.63447 -0.145521,0.325967 -0.302683,0.646113 -0.151342,0.314324 -0.302684,0.593724 z m 6.996637,-2.764894 h 3.795181 v 0.465666 h -3.795181 z m -0.174625,0.972078 h 4.220102 v 0.471488 h -4.220102 z m 0.989542,-1.507595 h 0.506412 v 1.740429 h -0.506412 z m -0.308504,1.676399 h 0.512233 v 1.530879 h -0.512233 z m 1.851023,-1.676399 h 0.518054 V 52.17092 H 40.55421 Z m -3.073398,-1.431924 h 0.552979 v 1.717145 q 0,0.372533 -0.02328,0.820737 -0.02328,0.442383 -0.09313,0.90805 -0.06985,0.465666 -0.20955,0.902228 -0.1397,0.436562 -0.372533,0.797454 -0.05239,-0.04657 -0.145521,-0.104775 -0.08731,-0.05239 -0.180446,-0.104775 -0.09313,-0.04657 -0.162983,-0.07567 0.221191,-0.337608 0.343429,-0.739245 0.128058,-0.401637 0.186266,-0.820737 0.06403,-0.424921 0.08149,-0.826558 0.02328,-0.407458 0.02328,-0.756708 z m 0.331788,0 h 4.097864 v 1.495954 H 37.8126 v -0.471488 h 3.544885 V 49.481696 H 37.8126 Z m 0.256116,4.551889 q 0.285221,-0.03493 0.657754,-0.08731 0.372533,-0.05239 0.785812,-0.116417 0.4191,-0.06403 0.838199,-0.128058 l 0.02328,0.477308 q -0.582083,0.09895 -1.175808,0.192087 -0.593725,0.09313 -1.047749,0.168804 z m 2.159528,-1.420282 q 0.244475,0.605366 0.76835,1.007003 0.529695,0.395817 1.303865,0.552979 -0.08731,0.08149 -0.180445,0.215371 -0.09313,0.133879 -0.145521,0.238654 -0.826558,-0.20955 -1.373716,-0.686858 -0.547158,-0.483129 -0.832379,-1.222374 z m 1.33297,0.261937 0.413279,0.291042 q -0.238654,0.174624 -0.523875,0.343429 -0.28522,0.162983 -0.518054,0.279399 l -0.35507,-0.267758 q 0.157162,-0.08149 0.337608,-0.192087 0.180446,-0.110596 0.34925,-0.227013 0.168804,-0.122237 0.296862,-0.227012 z M 44.1282,52.025399 v 0.250296 h 2.561166 v -0.250296 z m 0,0.547158 v 0.250296 h 2.561166 v -0.250296 z m 0,-1.082674 v 0.244475 h 2.561166 v -0.244475 z m -0.523874,-0.308504 h 3.632198 v 1.949978 h -3.632198 z m 2.124603,1.786995 h 0.541337 v 0.529695 q 0,0.09895 0.05239,0.128058 0.05239,0.02328 0.244475,0.02328 0.04075,0 0.151342,0 0.110596,0 0.238654,0 0.128058,0 0.244475,0 0.116416,0 0.174625,0 0.104774,0 0.157162,-0.03493 0.05239,-0.03493 0.07567,-0.145521 0.02328,-0.110596 0.03493,-0.331787 0.07567,0.05239 0.21537,0.104775 0.1397,0.04657 0.244475,0.06985 -0.02328,0.308503 -0.09313,0.477308 -0.06985,0.168804 -0.20955,0.232833 -0.133879,0.06403 -0.372533,0.06403 -0.03492,0 -0.133879,0 -0.09313,0 -0.215371,0 -0.116416,0 -0.232833,0 -0.116417,0 -0.20955,0 -0.09313,0 -0.133879,0 -0.308504,0 -0.477308,-0.05239 -0.168804,-0.05239 -0.232833,-0.180445 -0.06403,-0.122238 -0.06403,-0.34925 z m -1.268941,0.0291 h 0.541337 q -0.05821,0.256116 -0.186267,0.448204 -0.122237,0.192087 -0.35507,0.331787 -0.227013,0.1397 -0.587904,0.227012 -0.360891,0.09313 -0.896408,0.151342 -0.02328,-0.09313 -0.09895,-0.221192 -0.07567,-0.128058 -0.1397,-0.203729 0.465667,-0.0291 0.774171,-0.08731 0.314324,-0.05821 0.506412,-0.145521 0.192087,-0.08731 0.291041,-0.20955 0.104775,-0.122237 0.151342,-0.291041 z m 1.513416,-2.613553 h 1.938336 v 0.430742 h -1.938336 z m 0.05821,-1.065212 h 2.031469 v 0.436562 h -2.031469 z m 0.03492,-0.582083 0.500591,0.110596 q -0.133879,0.442383 -0.343429,0.861483 -0.20955,0.413279 -0.454025,0.698499 -0.04075,-0.04074 -0.122237,-0.09313 -0.07567,-0.05821 -0.157162,-0.110596 -0.08149,-0.05239 -0.145521,-0.08149 0.238654,-0.256117 0.42492,-0.622829 0.192088,-0.372533 0.296863,-0.762529 z m -2.025649,0.366713 h 0.448204 v 0.547158 h -0.448204 z m 0,1.094316 h 0.448204 v 0.558799 h -0.448204 z m -0.745066,-0.686858 h 2.002365 v 0.884766 h -2.002365 v -0.314325 h 1.519236 v -0.256117 h -1.519236 z m 2.112961,-0.564621 v 0.320146 h -1.89177 v 1.40282 h 1.973262 v 0.325966 H 43.022243 V 48.94618 Z m 6.152617,4.441293 h 1.973261 v 0.471488 H 51.5614 Z M 51.334387,50.319896 H 51.8408 v 3.824285 h -0.506413 z m 0.227013,0 h 1.944157 v 1.507595 H 51.5614 v -0.448204 h 1.437745 V 50.762279 H 51.5614 Z M 50.990958,49.36528 h 2.892953 v 1.030287 h -0.512233 v -0.576262 h -1.885949 v 0.576262 h -0.494771 z m 1.146704,-0.62865 h 0.535516 v 0.867304 H 52.137662 Z M 51.5614,52.264053 h 2.188632 v 1.845203 H 53.237799 V 52.718078 H 51.5614 Z m -1.880128,-2.485494 h 0.454024 v 0.727604 h -0.454024 z m -0.76835,0.523874 h 0.48895 v 3.242203 h -0.48895 z m 0.314325,0.785813 h 1.315508 v 0.366712 h -1.315508 z m -0.692679,2.339973 q 0.250296,-0.05239 0.564621,-0.122237 0.320145,-0.07567 0.681037,-0.157163 0.360891,-0.08731 0.715962,-0.174625 l 0.05239,0.442383 q -0.477308,0.1397 -0.972078,0.273579 -0.48895,0.13388 -0.884766,0.244475 z m 1.367895,-0.838199 0.436562,-0.192088 q 0.151342,0.20955 0.291042,0.448204 0.1397,0.238654 0.250296,0.471487 0.116416,0.232834 0.168804,0.4191 l -0.471488,0.215371 q -0.04657,-0.186267 -0.151341,-0.4191 -0.104775,-0.238654 -0.244475,-0.483129 -0.133879,-0.250296 -0.2794,-0.459845 z m -0.715962,-2.287587 h 1.583266 v 1.949978 h -1.583266 v -0.401637 h 1.100137 v -1.146703 h -1.100137 z m 0.34925,-1.559982 h 0.296862 v 0.110596 h 0.162983 v 0.145521 q -0.122237,0.227012 -0.296862,0.49477 -0.168804,0.267758 -0.401637,0.541337 -0.227012,0.273579 -0.535516,0.529696 -0.03493,-0.05821 -0.09895,-0.128058 -0.05821,-0.06985 -0.128058,-0.128059 -0.06403,-0.06403 -0.116416,-0.09895 0.273579,-0.215371 0.488949,-0.465666 0.215371,-0.250296 0.372533,-0.506412 0.162984,-0.261938 0.256117,-0.494771 z m 0.133879,0 h 0.384175 q 0.174625,0.145521 0.35507,0.325967 0.186267,0.174624 0.343429,0.35507 0.162984,0.174625 0.256117,0.325967 l -0.355071,0.401637 q -0.08731,-0.145521 -0.232833,-0.331787 -0.1397,-0.192088 -0.314325,-0.378354 -0.174625,-0.192088 -0.337608,-0.320146 h -0.09895 z"
           id="text9"
           aria-label="南港展覧館" />
        <path
           style="font-weight:500;font-size:5.82083px;line-height:1.25;font-family:'Noto Sans KR';-inkscape-font-specification:'Noto Sans KR Medium';fill:#ffffff;stroke-width:0.264583"
           d="m 59.944294,49.196477 h 0.605366 v 2.235198 h -0.605366 z m 0,2.043111 h 0.430741 q 0.5588,0 1.152524,-0.04657 0.599546,-0.04657 1.245658,-0.174625 l 0.06985,0.494771 q -0.657754,0.133879 -1.274762,0.186266 -0.611187,0.04657 -1.19327,0.04657 h -0.430741 z m 3.306231,-2.409824 h 0.605366 v 3.835927 h -0.605366 z m 0.424921,1.536699 h 0.931332 v 0.518054 h -0.931332 z m -3.172353,3.178174 h 3.533244 v 0.49477 h -3.533244 z m 0,-1.245658 h 0.611187 v 1.501774 h -0.611187 z m 8.102596,-3.475036 h 0.605366 v 3.137428 h -0.605366 z m 0.442383,1.315508 h 0.91387 v 0.506412 h -0.91387 z m -1.938336,-0.942974 h 0.657754 q 0,0.698499 -0.296863,1.257299 -0.296862,0.552979 -0.849841,0.954616 -0.547158,0.395816 -1.327149,0.617008 l -0.250296,-0.48895 q 0.663575,-0.186266 1.12342,-0.48895 0.459846,-0.308503 0.6985,-0.70432 0.244475,-0.395816 0.244475,-0.855662 z m -1.82192,0 h 2.182811 v 0.49477 h -2.182811 z m 2.235199,2.834744 q 0.529695,0 0.919691,0.128058 0.395816,0.128058 0.611187,0.366712 0.221192,0.232833 0.221192,0.5588 0,0.325966 -0.221192,0.56462 -0.215371,0.232834 -0.611187,0.360892 -0.389996,0.133879 -0.919691,0.133879 -0.529696,0 -0.931333,-0.133879 -0.395816,-0.128058 -0.611187,-0.360892 -0.215371,-0.238654 -0.215371,-0.56462 0,-0.325967 0.215371,-0.5588 0.215371,-0.238654 0.611187,-0.366712 0.401637,-0.128058 0.931333,-0.128058 z m 0,0.477308 q -0.355071,0 -0.617008,0.06985 -0.256117,0.06403 -0.401637,0.197908 -0.1397,0.128058 -0.1397,0.308504 0,0.180446 0.1397,0.314325 0.14552,0.128058 0.401637,0.197908 0.261937,0.06403 0.617008,0.06403 0.35507,0 0.611187,-0.06403 0.261937,-0.06985 0.401637,-0.197908 0.1397,-0.133879 0.1397,-0.314325 0,-0.180446 -0.1397,-0.308504 -0.1397,-0.133879 -0.401637,-0.197908 -0.256117,-0.06985 -0.611187,-0.06985 z m 7.357533,-2.252661 h 1.292224 v 0.49477 h -1.292224 z m 0.960437,-1.426104 h 0.611187 v 3.888315 h -0.611187 z m -2.834744,4.714873 h 3.585631 v 0.49477 h -3.585631 z m 0,-1.164166 h 0.611187 v 1.437745 h -0.611187 z m 0.337608,-2.87549 h 0.500591 v 0.389995 q 0,0.48895 -0.180445,0.931333 -0.174625,0.436562 -0.506413,0.762529 -0.331787,0.325966 -0.803274,0.49477 l -0.314325,-0.483129 q 0.314325,-0.110595 0.552979,-0.28522 0.244475,-0.174625 0.413279,-0.401638 0.168804,-0.227012 0.250295,-0.488949 0.08731,-0.261938 0.08731,-0.529696 z m 0.122237,0 h 0.494771 v 0.384174 q 0,0.331788 0.145521,0.646112 0.14552,0.314325 0.42492,0.564621 0.2794,0.250296 0.681037,0.389996 l -0.302683,0.477308 q -0.459845,-0.162984 -0.785812,-0.471488 -0.320146,-0.314324 -0.48895,-0.727603 -0.168804,-0.4191 -0.168804,-0.878946 z m -1.245657,-0.273579 h 2.846386 v 0.488949 h -2.846386 z m 8.725424,-0.401638 h 0.605366 v 3.166532 h -0.605366 z m 0.430741,1.309687 h 0.931333 v 0.506412 h -0.931333 z m -3.22474,2.10132 h 3.399365 v 1.839382 h -3.399365 z m 2.80564,0.483128 H 78.7514 v 0.873125 h 2.206094 z m -3.341156,-1.461028 h 0.430742 q 0.500591,0 0.908049,-0.01164 0.407458,-0.01746 0.779991,-0.05239 0.372533,-0.03493 0.762529,-0.104775 l 0.05821,0.494771 q -0.401637,0.06985 -0.785812,0.110595 -0.378354,0.03493 -0.797454,0.04657 -0.413278,0.01164 -0.925511,0.01164 h -0.430742 z m -0.01164,-2.159528 h 2.409824 v 1.536699 h -1.798636 v 0.896408 h -0.599546 v -1.362074 h 1.798637 v -0.576262 h -1.810279 z m 5.413374,0.122238 h 2.322511 v 0.49477 H 83.01807 Z m 0.739246,1.216553 h 0.599545 v 1.327149 h -0.599545 z m 1.33879,-1.216553 h 0.599546 v 0.308504 q 0,0.267758 -0.01746,0.663574 -0.01164,0.389996 -0.110595,0.90805 l -0.599546,-0.06985 q 0.09895,-0.506412 0.110596,-0.867304 0.01746,-0.366712 0.01746,-0.63447 z m 1.234016,-0.401638 h 0.611188 v 3.998911 h -0.611188 z m 0.355071,1.688041 h 0.960437 v 0.500592 h -0.960437 z m -3.189815,3.032653 h 3.620556 v 0.49477 h -3.620556 z m 0,-1.082675 h 0.611187 v 1.234016 h -0.611187 z m -0.733424,-0.42492 -0.06403,-0.494771 q 0.471487,0 1.030286,-0.0058 0.564621,-0.01164 1.152525,-0.04657 0.587904,-0.04075 1.12342,-0.116417 l 0.04075,0.442383 q -0.552979,0.09313 -1.135062,0.145521 -0.582083,0.04657 -1.135062,0.05821 -0.547158,0.01164 -1.012824,0.01746 z"
           id="text9-3"
           aria-label="난강 전람관" />
      </g>
    </g>
  </g>
</svg>
