<?xml version="1.0" encoding="UTF-8" standalone="no"?>
<!-- Created with Inkscape (http://www.inkscape.org/) -->

<svg
   width="500"
   height="250"
   viewBox="0 0 132.29166 66.145833"
   version="1.1"
   id="svg1"
   inkscape:version="1.3.2 (091e20e, 2023-11-25, custom)"
   sodipodi:docname="bl01.svg"
   xmlns:inkscape="http://www.inkscape.org/namespaces/inkscape"
   xmlns:sodipodi="http://sodipodi.sourceforge.net/DTD/sodipodi-0.dtd"
   xmlns="http://www.w3.org/2000/svg"
   xmlns:svg="http://www.w3.org/2000/svg">
  <sodipodi:namedview
     id="namedview1"
     pagecolor="#9e652e"
     bordercolor="#ffffff"
     borderopacity="1"
     inkscape:showpageshadow="0"
     inkscape:pageopacity="0"
     inkscape:pagecheckerboard="false"
     inkscape:deskcolor="#d1d1d1"
     inkscape:document-units="mm"
     inkscape:zoom="2.0208096"
     inkscape:cx="212.29115"
     inkscape:cy="106.88785"
     inkscape:window-width="1920"
     inkscape:window-height="1009"
     inkscape:window-x="1912"
     inkscape:window-y="-8"
     inkscape:window-maximized="1"
     inkscape:current-layer="layer1" />
  <defs
     id="defs1">
    <rect
       x="560.66638"
       y="34.144731"
       width="279.32397"
       height="128.59143"
       id="rect6" />
    <rect
       x="157.85752"
       y="62.351248"
       width="329.07603"
       height="135.09437"
       id="rect4" />
    <rect
       x="157.85751"
       y="62.35125"
       width="329.07602"
       height="135.09438"
       id="rect4-5" />
  </defs>
  <g
     inkscape:label="Layer 1"
     inkscape:groupmode="layer"
     id="layer1">
    <rect
       style="fill:#ebf5ff;fill-opacity:1;stroke:none;stroke-width:0.953294;stroke-dasharray:none"
       id="rect5"
       width="132.29167"
       height="66.145836"
       x="-2.5431316e-06"
       y="-1.2715658e-06"
       ry="0" />
    <g
       id="g1"
       transform="translate(23.862138)">
      <path
         id="rect1"
         style="fill-opacity:0;stroke:#000000;stroke-width:0.942789"
         d="m 15.913089,14.352791 h 12.425164 c 3.927062,0 7.088559,3.161497 7.088559,7.088559 v 23.263136 c 0,3.927062 -3.161497,7.088559 -7.088559,7.088559 H 15.913089 c -3.927061,0 -7.0885584,-3.161497 -7.0885584,-7.088559 V 21.44135 c 0,-3.927062 3.1614974,-7.088559 7.0885584,-7.088559 z" />
      <path
         style="font-size:12.56px;line-height:1.25;font-family:'AR UDJingXiHeiE1G30 EB';-inkscape-font-specification:'AR UDJingXiHeiE1G30 EB';stroke-width:0.261667"
         d="m 18.527196,30.522264 h -4.7728 v -9.08088 h 4.37088 q 1.29368,0 2.04728,0.628 0.7536,0.628 0.7536,1.67048 0,0.67824 -0.30144,1.1932 -0.28888,0.5024 -0.8792,0.82896 0.76616,0.30144 1.15552,0.82896 0.40192,0.52752 0.40192,1.256 0,1.20576 -0.79128,1.9468 -0.79128,0.72848 -1.98448,0.72848 z m 0.74104,-6.58144 q 0,-0.61544 -0.35168,-0.92944 -0.35168,-0.32656 -1.01736,-0.32656 h -2.54968 v 2.56224 h 2.6376 q 0.5652,0 0.91688,-0.32656 0.36424,-0.33912 0.36424,-0.97968 z m 0.3768,3.8936 q 0,-0.65312 -0.40192,-0.99224 -0.38936,-0.35168 -1.02992,-0.35168 h -2.86368 v 2.78832 h 2.83856 q 0.66568,0 1.05504,-0.36424 0.40192,-0.36424 0.40192,-1.08016 z m 9.633528,2.68784 h -6.38048 v -9.08088 h 1.59512 v 7.83744 h 4.78536 z"
         id="text2"
         aria-label="BL" />
      <path
         style="font-size:14.3917px;line-height:1.25;font-family:'AR UDJingXiHeiE1G30 EB';-inkscape-font-specification:'AR UDJingXiHeiE1G30 EB';stroke-width:0.261667"
         d="m 21.492413,39.692779 q 0,2.720031 -0.877894,4.015284 -0.877893,1.295253 -2.720031,1.295253 -1.784571,0 -2.705639,-1.295253 -0.921069,-1.295253 -0.921069,-4.015284 0,-2.907123 0.877893,-4.173593 0.877894,-1.280861 2.748815,-1.280861 1.827746,0 2.70564,1.280861 0.892285,1.26647 0.892285,4.173593 z m -3.597925,3.885759 q 0.921069,0 1.35282,-0.906677 0.431751,-0.921069 0.431751,-2.979082 0,-2.216322 -0.417359,-3.122999 -0.402968,-0.906677 -1.367212,-0.906677 -0.964244,0 -1.381603,0.921069 -0.417359,0.906677 -0.417359,3.108607 0,2.043622 0.431751,2.96469 0.431751,0.921069 1.367211,0.921069 z m 7.886641,-6.994366 -1.683828,1.568695 -0.834719,-1.280861 2.705639,-2.460981 h 1.568696 v 10.405199 h -1.755788 z"
         id="text3"
         aria-label="01" />
      <path
         style="font-weight:500;font-size:72px;line-height:1.25;font-family:'Noto Sans TC';-inkscape-font-specification:'Noto Sans TC Medium';white-space:pre"
         d="m 160.37742,79.065406 h 25.992 v 6.408 h -25.992 z m 10.872,3.6 h 6.696 v 48.600004 q 0,2.808 -0.72,4.32 -0.648,1.584 -2.448,2.448 -1.728,0.792 -4.608,1.008 -2.88,0.216 -7.056,0.216 -0.216,-1.368 -0.792,-3.312 -0.576,-1.872 -1.296,-3.312 2.88,0.072 5.328,0.072 2.52,0 3.384,0 0.864,-0.072 1.152,-0.36 0.36,-0.36 0.36,-1.152 z m 16.2,-4.896 h 39.6 v 5.832 h -39.6 z m 8.712,27.792004 v 5.976 h 21.816 v -5.976 z m 0,10.8 v 6.048 h 21.816 v -6.048 z m 0,-21.528004 v 5.904004 h 21.816 v -5.904004 z m -6.336,-5.112 h 34.848 v 37.800004 h -34.848 z m 13.464,-8.928 7.92,1.008 q -1.08,3.168 -2.232,6.408 -1.152,3.168 -2.16,5.472 l -6.048,-1.152 q 0.72,-2.592 1.44,-5.832 0.792,-3.312 1.08,-5.904 z m -5.616,47.304004 5.688,3.816 q -2.304,1.8 -5.4,3.6 -3.096,1.8 -6.48,3.24 -3.384,1.512 -6.552,2.592 -0.72,-1.008 -1.944,-2.376 -1.224,-1.368 -2.304,-2.376 3.096,-1.008 6.336,-2.376 3.24,-1.44 6.048,-3.024 2.808,-1.656 4.608,-3.096 z m 11.304,3.96 5.112,-3.672 q 2.376,1.224 5.04,2.88 2.736,1.584 5.256,3.24 2.52,1.656 4.176,3.024 l -5.472,4.032 q -1.44,-1.368 -3.888,-3.024 -2.376,-1.656 -5.04,-3.384 -2.664,-1.728 -5.184,-3.096 z m 46.152,-47.376004 h 44.28 v 6.264 h -44.28 z m 3.168,12.384 h 34.2 v 5.832004 h -27.72 v 38.52 h -6.48 z m 31.896,0 h 6.552 v 37.080004 q 0,2.376 -0.504,3.816 -0.504,1.44 -2.016,2.232 -1.44,0.792 -3.672,1.008 -2.16,0.216 -5.328,0.144 -0.144,-1.296 -0.72,-3.168 -0.504,-1.8 -1.224,-3.096 2.016,0.072 3.672,0.072 1.656,0 2.16,0 1.08,0 1.08,-1.152 z m -16.344,-22.392 h 6.624 v 66.456004 h -6.624 z m -11.664,34.272004 h 30.6 v 5.544 h -30.6 z m 0,11.808 h 30.6 v 5.76 h -30.6 z m 21.24,-42.696004 3.96,-3.744 q 1.584,0.936 3.384,2.16 1.872,1.224 3.6,2.448 1.728,1.152 2.808,2.088 l -4.104,4.176 q -1.08,-0.936 -2.736,-2.16 -1.656,-1.296 -3.528,-2.592 -1.8,-1.296 -3.384,-2.376 z m -50.04,14.04 h 21.456 v 6.408 h -21.456 z m 7.92,-16.56 h 6.408 v 47.088004 h -6.408 z m -9.36,47.736004 q 2.952,-1.152 6.768,-2.664 3.816,-1.584 8.136,-3.456 4.32,-1.872 8.568,-3.744 l 1.512,6.264 q -5.76,2.736 -11.808,5.544 -6.048,2.736 -10.872,4.968 z"
         id="text4"
         transform="matrix(0.26166763,0,0,0.26166763,-2.1314997,-4.0633201)"
         aria-label="頂埔" />
      <path
         style="font-size:7.32669px;line-height:1.25;font-family:'AR UDJingXiHeiE1G30 EB';-inkscape-font-specification:'AR UDJingXiHeiE1G30 EB';stroke-width:0.261667"
         d="m 44.905189,38.175543 q 0,1.318805 -0.622769,2.01484 -0.615442,0.696036 -1.721772,0.696036 h -2.1687 v -5.297197 h 2.1687 q 1.10633,0 1.721772,0.652075 0.622769,0.652076 0.622769,1.934246 z m -0.967123,0 q 0,-0.959796 -0.395641,-1.406724 -0.388315,-0.454255 -1.135637,-0.454255 h -1.084351 v 3.846512 h 1.091677 q 0.718016,0 1.120984,-0.476234 0.402968,-0.476235 0.402968,-1.509299 z m 2.916016,-2.586321 v 5.297197 h -0.930489 v -5.297197 z m 2.146715,1.472664 v 3.824533 h -0.930489 v -5.297197 h 0.959796 l 2.600975,3.912452 v -3.912452 h 0.93049 v 5.297197 h -1.01841 z m 8.667469,3.179784 q -0.271087,0.380988 -0.681382,0.564155 -0.402968,0.175841 -0.923163,0.175841 -1.142963,0 -1.817019,-0.718016 -0.674055,-0.725342 -0.674055,-2.022166 0,-1.304151 0.710689,-2.022167 0.710689,-0.718016 1.919592,-0.718016 0.97445,0 1.582566,0.446929 0.615441,0.439601 0.739995,1.26019 H 57.595 q -0.07327,-0.432274 -0.432275,-0.703362 -0.351681,-0.278414 -0.959797,-0.278414 -0.813262,0 -1.23821,0.527521 -0.424948,0.520195 -0.424948,1.487319 0,1.033063 0.446928,1.523951 0.446928,0.483562 1.21623,0.483562 0.674056,0 1.069697,-0.395642 0.395641,-0.395641 0.395641,-0.908509 v -0.109901 h -1.501971 v -0.725342 h 2.395828 v 2.776816 h -0.893857 z m 2.923346,-1.458011 v 2.10276 h -0.93049 v -5.297197 h 2.491075 q 0.776629,0 1.216231,0.424948 0.439601,0.424948 0.439601,1.12831 0,0.791283 -0.454255,1.216231 -0.446928,0.424948 -1.208904,0.424948 z m 2.271274,-1.626526 q 0,-0.410294 -0.234454,-0.622768 -0.234454,-0.219801 -0.688709,-0.219801 h -1.348111 v 1.743752 h 1.348111 q 0.454255,0 0.688709,-0.2198 0.234454,-0.227128 0.234454,-0.681383 z m 6.278973,1.875633 q 0,0.923163 -0.578809,1.436031 -0.578808,0.512869 -1.648505,0.512869 -1.08435,0 -1.670486,-0.505542 -0.578808,-0.505542 -0.578808,-1.436031 v -3.450871 h 0.93049 v 3.406911 q 0,0.600788 0.329701,0.930489 0.329701,0.329701 0.989103,0.329701 0.622768,0 0.95247,-0.315047 0.337027,-0.322375 0.337027,-0.959797 v -3.392257 h 0.937817 z"
         id="text5"
         aria-label="DINGPU" />
      <path
         d="m 39.910781,43.856978 h 2.644935 v 0.652076 h -2.644935 z m 1.10633,0.366335 h 0.681382 v 4.945516 q 0,0.285741 -0.07327,0.439601 -0.06594,0.161187 -0.249107,0.249108 -0.175841,0.08059 -0.468909,0.102573 -0.293067,0.02198 -0.718015,0.02198 -0.02198,-0.139207 -0.08059,-0.337027 -0.05861,-0.190494 -0.13188,-0.337028 0.293067,0.0073 0.542175,0.0073 0.256434,0 0.344354,0 0.08792,-0.0073 0.117227,-0.03663 0.03663,-0.03663 0.03663,-0.117227 z m 1.648505,-0.498215 h 4.02968 v 0.593462 h -4.02968 z m 0.88653,2.828102 v 0.608116 h 2.219987 V 46.5532 Z m 0,1.099004 v 0.615442 h 2.219987 v -0.615442 z m 0,-2.190681 v 0.600789 h 2.219987 v -0.600789 z m -0.644749,-0.520195 h 3.546118 v 3.846513 h -3.546118 z m 1.370091,-0.908509 0.805936,0.102574 q -0.1099,0.322374 -0.227127,0.652075 -0.117228,0.322374 -0.219801,0.556828 l -0.615442,-0.117227 q 0.07327,-0.263761 0.146534,-0.593462 0.08059,-0.337027 0.1099,-0.600788 z m -0.571482,4.813635 0.578809,0.388315 q -0.234454,0.183167 -0.549502,0.366334 -0.315048,0.183168 -0.659402,0.329701 -0.344355,0.153861 -0.666729,0.263761 -0.07327,-0.102573 -0.197821,-0.24178 -0.124553,-0.139208 -0.234454,-0.241781 0.315048,-0.102574 0.644749,-0.241781 0.329701,-0.146534 0.615442,-0.307721 0.285741,-0.168514 0.468908,-0.315048 z m 1.150291,0.402968 0.520195,-0.373661 q 0.24178,0.124554 0.512868,0.293068 0.278414,0.161187 0.534848,0.329701 0.256434,0.168514 0.424948,0.307721 l -0.556828,0.410294 Q 46.145794,50.077338 45.896687,49.908824 45.654906,49.740311 45.383818,49.56447 45.112731,49.388629 44.856297,49.249422 Z m 4.696408,-4.820962 h 4.505914 v 0.637422 h -4.505914 z m 0.322374,1.260191 h 3.480178 v 0.593462 h -2.820776 v 3.919779 h -0.659402 z m 3.245724,0 h 0.666729 v 3.773245 q 0,0.241781 -0.05129,0.388315 -0.05129,0.146534 -0.205147,0.227127 -0.146534,0.08059 -0.373662,0.102574 -0.2198,0.02198 -0.542175,0.01465 -0.01465,-0.13188 -0.07327,-0.322374 -0.05129,-0.183167 -0.124554,-0.315048 0.205147,0.0073 0.373661,0.0073 0.168514,0 0.219801,0 0.1099,0 0.1099,-0.117227 z M 51.457644,43.41005 H 52.1317 v 6.762535 h -0.674056 z m -1.186923,3.487505 h 3.113843 v 0.564155 h -3.113843 z m 0,1.201577 h 3.113843 v 0.586135 h -3.113843 z m 2.161373,-4.344727 0.402968,-0.380988 q 0.161187,0.09525 0.344355,0.2198 0.190494,0.124554 0.366334,0.249108 0.175841,0.117227 0.285741,0.212474 l -0.417621,0.424948 q -0.109901,-0.09525 -0.278415,-0.219801 -0.168513,-0.13188 -0.359007,-0.263761 -0.183168,-0.13188 -0.344355,-0.24178 z m -5.09205,1.428704 h 2.183354 v 0.652076 H 47.340044 Z M 48.14598,43.49797 h 0.652076 v 4.791656 H 48.14598 Z m -0.952469,4.857596 q 0.300394,-0.117227 0.688709,-0.271087 0.388314,-0.161188 0.827916,-0.351682 0.439601,-0.190494 0.871876,-0.380987 l 0.15386,0.637422 q -0.586135,0.278414 -1.201577,0.564155 -0.615442,0.278414 -1.10633,0.505541 z"
         id="text5-9"
         style="font-weight:500;font-size:7.32669px;line-height:1.25;font-family:'Noto Sans JP';-inkscape-font-specification:'Noto Sans JP Medium';stroke-width:0.261667"
         aria-label="頂埔" />
      <path
         style="font-weight:500;font-size:7.32669px;line-height:1.25;font-family:'Noto Sans KR';-inkscape-font-specification:'Noto Sans KR Medium';stroke-width:0.261667"
         d="m 65.87377,43.584846 h 0.769303 v 4.066313 H 65.87377 Z m -4.352054,2.908696 h 0.564155 q 0.725343,0 1.267518,-0.01465 0.549502,-0.01465 1.003756,-0.06594 0.454255,-0.05129 0.915837,-0.146534 l 0.08059,0.622769 q -0.468908,0.09525 -0.937816,0.146533 -0.468908,0.04396 -1.033063,0.06594 -0.556829,0.01465 -1.296825,0.01465 h -0.564155 z m 0,-2.388501 h 3.157804 v 0.615442 h -2.395828 v 2.117414 h -0.761976 z m 2.87939,3.582752 q 0.703362,0 1.208903,0.15386 0.505542,0.153861 0.783956,0.446928 0.278414,0.285741 0.278414,0.696036 0,0.410295 -0.278414,0.703362 -0.278414,0.293068 -0.783956,0.439602 -0.505541,0.15386 -1.208903,0.15386 -0.696036,0 -1.208904,-0.15386 -0.505542,-0.146534 -0.783956,-0.439602 -0.271088,-0.293067 -0.271088,-0.703362 0,-0.410295 0.271088,-0.696036 0.278414,-0.293067 0.783956,-0.446928 0.512868,-0.15386 1.208904,-0.15386 z m 0,0.600788 q -0.468909,0 -0.805936,0.08059 -0.337028,0.08059 -0.512869,0.234454 -0.17584,0.153861 -0.17584,0.380988 0,0.227127 0.17584,0.388315 0.175841,0.15386 0.512869,0.234454 0.337027,0.08059 0.805936,0.08059 0.483561,0 0.813262,-0.08059 0.337028,-0.08059 0.512868,-0.234454 0.175841,-0.161188 0.175841,-0.388315 0,-0.227127 -0.175841,-0.380988 -0.17584,-0.15386 -0.512868,-0.234454 -0.329701,-0.08059 -0.813262,-0.08059 z m 4.022353,-4.35938 h 4.945516 v 0.615442 h -4.945516 z m 0.03663,2.300581 h 4.872249 v 0.615442 h -4.872249 z m 0.901183,-1.809693 h 0.769302 v 2.139394 h -0.769302 z m 2.30058,0 h 0.769303 v 2.139394 h -0.769303 z m -3.802552,3.09919 h 6.0665 v 0.630095 h -6.0665 z m 2.644935,0.278414 h 0.769303 v 2.483748 h -0.769303 z"
         id="text5-9-8"
         aria-label="딩푸" />
    </g>
    <text
       xml:space="preserve"
       transform="matrix(0.31615295,0,0,0.31615295,-10.474341,-6.4462013)"
       id="text6"
       style="font-size:55px;line-height:1.25;font-family:'Microsoft JhengHei';-inkscape-font-specification:'Microsoft JhengHei';white-space:pre;shape-inside:url(#rect6);display:inline" />
  </g>
</svg>
