<?xml version="1.0" encoding="UTF-8" standalone="no"?>
<!-- Created with Inkscape (http://www.inkscape.org/) -->

<svg
   width="500"
   height="250"
   viewBox="0 0 132.29166 66.145833"
   version="1.1"
   id="svg1"
   inkscape:version="1.3.2 (091e20e, 2023-11-25, custom)"
   sodipodi:docname="bl02.svg"
   xmlns:inkscape="http://www.inkscape.org/namespaces/inkscape"
   xmlns:sodipodi="http://sodipodi.sourceforge.net/DTD/sodipodi-0.dtd"
   xmlns="http://www.w3.org/2000/svg"
   xmlns:svg="http://www.w3.org/2000/svg">
  <sodipodi:namedview
     id="namedview1"
     pagecolor="#9e652e"
     bordercolor="#ffffff"
     borderopacity="1"
     inkscape:showpageshadow="0"
     inkscape:pageopacity="0"
     inkscape:pagecheckerboard="false"
     inkscape:deskcolor="#d1d1d1"
     inkscape:document-units="mm"
     inkscape:zoom="2.0208096"
     inkscape:cx="212.29115"
     inkscape:cy="106.88785"
     inkscape:window-width="1920"
     inkscape:window-height="1009"
     inkscape:window-x="1912"
     inkscape:window-y="-8"
     inkscape:window-maximized="1"
     inkscape:current-layer="g1" />
  <defs
     id="defs1">
    <rect
       x="560.66638"
       y="34.144731"
       width="279.32397"
       height="128.59143"
       id="rect6" />
    <rect
       x="157.85752"
       y="62.351248"
       width="329.07603"
       height="135.09437"
       id="rect4" />
    <rect
       x="157.85751"
       y="62.35125"
       width="329.07602"
       height="135.09438"
       id="rect4-5" />
  </defs>
  <g
     inkscape:label="Layer 1"
     inkscape:groupmode="layer"
     id="layer1">
    <rect
       style="fill:#005fb9;fill-opacity:1;stroke:none;stroke-width:0.953294;stroke-dasharray:none"
       id="rect5"
       width="132.29167"
       height="66.145836"
       x="-2.5431316e-06"
       y="-1.2715658e-06"
       ry="0" />
    <g
       id="g1"
       transform="translate(23.862138)">
      <g
         id="g2"
         transform="translate(-2.6621824)">
        <path
           id="rect1"
           style="fill-opacity:0;stroke:#ffffff;stroke-width:0.942789"
           d="m 15.913089,14.352791 h 12.425164 c 3.927062,0 7.088559,3.161497 7.088559,7.088559 v 23.263136 c 0,3.927062 -3.161497,7.088559 -7.088559,7.088559 H 15.913089 c -3.927061,0 -7.0885584,-3.161497 -7.0885584,-7.088559 V 21.44135 c 0,-3.927062 3.1614974,-7.088559 7.0885584,-7.088559 z" />
        <path
           style="font-size:12.56px;line-height:1.25;font-family:'AR UDJingXiHeiE1G30 EB';-inkscape-font-specification:'AR UDJingXiHeiE1G30 EB';fill:#ffffff;stroke-width:0.261667"
           d="m 18.527196,30.522264 h -4.7728 v -9.08088 h 4.37088 q 1.29368,0 2.04728,0.628 0.7536,0.628 0.7536,1.67048 0,0.67824 -0.30144,1.1932 -0.28888,0.5024 -0.8792,0.82896 0.76616,0.30144 1.15552,0.82896 0.40192,0.52752 0.40192,1.256 0,1.20576 -0.79128,1.9468 -0.79128,0.72848 -1.98448,0.72848 z m 0.74104,-6.58144 q 0,-0.61544 -0.35168,-0.92944 -0.35168,-0.32656 -1.01736,-0.32656 h -2.54968 v 2.56224 h 2.6376 q 0.5652,0 0.91688,-0.32656 0.36424,-0.33912 0.36424,-0.97968 z m 0.3768,3.8936 q 0,-0.65312 -0.40192,-0.99224 -0.38936,-0.35168 -1.02992,-0.35168 h -2.86368 v 2.78832 h 2.83856 q 0.66568,0 1.05504,-0.36424 0.40192,-0.36424 0.40192,-1.08016 z m 9.633528,2.68784 h -6.38048 v -9.08088 h 1.59512 v 7.83744 h 4.78536 z"
           id="text2"
           aria-label="BL" />
        <path
           style="font-size:14.3917px;line-height:1.25;font-family:'AR UDJingXiHeiE1G30 EB';-inkscape-font-specification:'AR UDJingXiHeiE1G30 EB';fill:#ffffff;stroke-width:0.261667"
           d="m 21.492413,39.692779 q 0,2.720031 -0.877894,4.015284 -0.877893,1.295253 -2.720031,1.295253 -1.784571,0 -2.705639,-1.295253 -0.921069,-1.295253 -0.921069,-4.015284 0,-2.907123 0.877893,-4.173593 0.877894,-1.280861 2.748815,-1.280861 1.827746,0 2.70564,1.280861 0.892285,1.26647 0.892285,4.173593 z m -3.597925,3.885759 q 0.921069,0 1.35282,-0.906677 0.431751,-0.921069 0.431751,-2.979082 0,-2.216322 -0.417359,-3.122999 -0.402968,-0.906677 -1.367212,-0.906677 -0.964244,0 -1.381603,0.921069 -0.417359,0.906677 -0.417359,3.108607 0,2.043622 0.431751,2.96469 0.431751,0.921069 1.367211,0.921069 z m 5.094652,-5.871813 q 0,-1.611871 0.978635,-2.53294 0.978636,-0.93546 2.561723,-0.93546 1.626262,0 2.532939,0.820327 0.921069,0.805935 0.921069,2.245105 0,1.021811 -0.662018,2.058013 -0.647627,1.021811 -2.043622,2.259497 l -1.957271,1.770179 h 4.634127 v 1.424778 H 22.945965 V 43.50658 l 2.907123,-2.61929 q 1.280861,-1.165727 1.784571,-1.986054 0.518101,-0.834719 0.518101,-1.597479 0,-0.719585 -0.417359,-1.165728 -0.41736,-0.446142 -1.208903,-0.446142 -0.791544,0 -1.280861,0.546884 -0.489318,0.546885 -0.489318,1.467954 z"
           id="text3"
           aria-label="02" />
        <path
           style="font-weight:500;font-size:72px;line-height:1.25;font-family:'Noto Sans TC';-inkscape-font-specification:'Noto Sans TC Medium';white-space:pre;fill:#ffffff"
           d="m 161.74542,103.54541 h 19.872 v 6.408 h -19.872 z m 9.576,-14.112004 h 23.184 v 6.48 h -23.184 z m 25.776,3.168 q 2.304,8.928004 6.408,16.488004 4.104,7.56 10.152,13.248 6.048,5.616 14.04,8.712 -0.72,0.648 -1.656,1.728 -0.936,1.008 -1.728,2.16 -0.792,1.152 -1.368,2.088 -8.352,-3.744 -14.472,-9.936 -6.12,-6.264 -10.296,-14.616 -4.176,-8.424 -6.84,-18.576004 z m 21.888,2.16 6.264,4.608 q -3.096,2.736004 -6.552,5.688004 -3.456,2.88 -6.912,5.544 -3.384,2.664 -6.48,4.68 l -4.752,-3.888 q 2.952,-2.088 6.336,-4.896 3.384,-2.88 6.552,-5.904 3.24,-3.096004 5.544,-5.832004 z m -28.512,-5.328 h 7.344 v 43.776004 q 0,2.88 -0.792,4.464 -0.792,1.656 -2.736,2.52 -2.016,0.864 -5.112,1.008 -3.096,0.216 -7.704,0.216 -0.216,-1.512 -0.936,-3.528 -0.648,-1.944 -1.44,-3.312 2.088,0.072 4.032,0.144 2.016,0 3.528,0 1.512,0 2.16,0 1.008,-0.072 1.296,-0.36 0.36,-0.36 0.36,-1.296 z m -12.96,-9.072 3.384,-5.544 q 3.24,0.792 6.912,1.8 3.672,1.008 7.344,2.304 3.744,1.224 6.912,2.52 3.24,1.224 5.544,2.448 l -3.6,6.408 q -2.232,-1.224 -5.328,-2.592 -3.096,-1.368 -6.768,-2.736 -3.6,-1.368 -7.344,-2.52 -3.672,-1.224 -7.056,-2.088 z m 1.584,23.184004 h 1.368 l 1.224,-0.288 4.536,1.944 q -1.8,7.416 -4.968,13.536 -3.096,6.12 -7.128,10.728 -4.032,4.608 -8.568,7.56 -0.576,-0.72 -1.584,-1.656 -0.936,-1.008 -2.016,-1.944 -1.008,-1.008 -1.872,-1.512 4.392,-2.664 8.136,-6.624 3.816,-4.032 6.624,-9.216 2.808,-5.184 4.248,-11.232 z m 56.088,-22.464004 h 61.272 v 12.888 h -6.48 v -7.272 h -48.6 v 7.272 h -6.192 z m 4.464,42.048004 h 52.704 v 5.112 h -52.704 z m 22.896,1.872 h 6.768 v 9.792 q 0,2.52 -0.72,3.816 -0.72,1.368 -2.736,2.088 -2.016,0.648 -5.112,0.72 -3.096,0.144 -7.56,0.144 -0.216,-1.368 -0.864,-3.024 -0.576,-1.584 -1.296,-2.88 2.16,0.072 4.176,0.072 2.088,0.072 3.672,0 1.584,0 2.16,0 0.936,0 1.224,-0.288 0.288,-0.216 0.288,-0.864 z m -9.504,-34.200004 h 5.976 v 5.76 q 0,1.224 0.648,1.512 0.648,0.288 2.808,0.288 0.432,0 1.8,0 1.368,0 3.024,0 1.656,0 3.096,0 1.512,0 2.16,0 1.152,0 1.656,-0.288 0.504,-0.288 0.792,-1.224 0.288,-0.936 0.36,-2.808 0.864,0.576 2.304,1.008 1.512,0.432 2.592,0.72 -0.36,4.104 -1.872,5.544004 -1.44,1.368 -5.112,1.368 -0.504,0 -1.656,0 -1.152,0 -2.664,0 -1.44,0 -2.952,0 -1.512,0 -2.664,0 -1.152,0 -1.584,0 -3.456,0 -5.4,-0.504 -1.872,-0.504 -2.592,-1.8 -0.72,-1.368004 -0.72,-3.816004 z m -5.976,-0.864 5.04,2.592 q -1.512,2.808 -3.672,6.12 -2.088,3.240004 -4.608,5.544004 l -4.824,-3.672 q 2.376,-1.944004 4.536,-4.896004 2.16,-2.952 3.528,-5.688 z m 11.52,0 3.6,-3.456 q 2.88,0.936 6.048,2.52 3.168,1.584 5.04,2.952 l -3.6,3.888 q -1.872,-1.512 -5.04,-3.168 -3.168,-1.728 -6.048,-2.736 z m 19.368,1.728 4.608,-2.808 q 1.8,1.512 3.6,3.456 1.8,1.944 3.312,3.888 1.584,1.944 2.376,3.528 l -4.896,3.096004 q -0.72,-1.584 -2.232,-3.528004 -1.44,-2.016 -3.24,-3.96 -1.728,-2.016 -3.528,-3.672 z m -43.56,23.400004 h 62.928 v 4.824 h -62.928 z m 25.2,-38.952004 7.128,-2.088 q 1.224,2.088 2.448,4.608 1.296,2.52 1.728,4.392 l -7.488,2.304 q -0.432,-1.872 -1.512,-4.464 -1.08,-2.592 -2.304,-4.752 z m -18.432,29.232004 h 49.68 v 12.6 h -6.048 v -8.352 h -9.36 v 8.352 h -4.968 v -8.352 h -9.36 v 8.352 h -4.896 v -8.352 h -9.216 v 8.352 h -5.832 z"
           id="text4"
           transform="matrix(0.26166763,0,0,0.26166763,-2.1314997,-4.0633201)"
           aria-label="永寧" />
        <path
           style="font-size:7.32669px;line-height:1.25;font-family:'AR UDJingXiHeiE1G30 EB';-inkscape-font-specification:'AR UDJingXiHeiE1G30 EB';fill:#ffffff;stroke-width:0.261667"
           d="m 42.355501,37.933763 1.509298,-2.344541 h 1.04039 l -2.088107,3.113843 v 2.183354 h -0.930489 v -2.183354 l -2.124741,-3.113843 h 1.062371 z m 8.235203,0.329701 q 0,1.274844 -0.710689,2.000186 -0.703362,0.718016 -1.926919,0.718016 -1.245538,0 -1.9489,-0.725343 -0.703362,-0.725342 -0.703362,-1.992859 0,-1.289498 0.710689,-2.022167 0.710689,-0.739996 1.941573,-0.739996 1.245537,0 1.941573,0.732669 0.696035,0.732669 0.696035,2.029494 z m -2.637608,1.992859 q 0.798609,0 1.230884,-0.527521 0.439601,-0.527522 0.439601,-1.465338 0,-0.93049 -0.439601,-1.479992 -0.439602,-0.556828 -1.230884,-0.556828 -0.805936,0 -1.252864,0.564155 -0.439602,0.556828 -0.439602,1.472665 0,0.937816 0.446928,1.465338 0.446928,0.527521 1.245538,0.527521 z m 4.579182,-3.194437 v 3.824533 h -0.930489 v -5.297197 h 0.959796 l 2.600975,3.912452 v -3.912452 h 0.93049 v 5.297197 h -1.01841 z m 8.66747,3.179784 q -0.271087,0.380988 -0.681382,0.564155 -0.402968,0.175841 -0.923163,0.175841 -1.142964,0 -1.817019,-0.718016 -0.674056,-0.725342 -0.674056,-2.022166 0,-1.304151 0.710689,-2.022167 0.710689,-0.718016 1.919593,-0.718016 0.97445,0 1.582565,0.446929 0.615442,0.439601 0.739996,1.26019 h -0.93049 q -0.07327,-0.432274 -0.432274,-0.703362 -0.351682,-0.278414 -0.959797,-0.278414 -0.813262,0 -1.23821,0.527521 -0.424949,0.520195 -0.424949,1.487319 0,1.033063 0.446929,1.523951 0.446928,0.483562 1.21623,0.483562 0.674056,0 1.069697,-0.395642 0.395641,-0.395641 0.395641,-0.908509 v -0.109901 h -1.501971 v -0.725342 h 2.395827 v 2.776816 h -0.893856 z m 2.923345,-3.179784 v 3.824533 h -0.93049 V 35.589222 H 64.1524 l 2.600975,3.912452 v -3.912452 h 0.930489 v 5.297197 h -1.01841 z m 5.707487,-1.472664 v 5.297197 h -0.93049 v -5.297197 z m 2.146715,1.472664 v 3.824533 h -0.93049 v -5.297197 h 0.959797 l 2.600975,3.912452 v -3.912452 h 0.93049 v 5.297197 h -1.01841 z m 8.667468,3.179784 q -0.271087,0.380988 -0.681382,0.564155 -0.402968,0.175841 -0.923163,0.175841 -1.142964,0 -1.817019,-0.718016 -0.674056,-0.725342 -0.674056,-2.022166 0,-1.304151 0.710689,-2.022167 0.710689,-0.718016 1.919593,-0.718016 0.97445,0 1.582565,0.446929 0.615442,0.439601 0.739996,1.26019 h -0.93049 q -0.07327,-0.432274 -0.432274,-0.703362 -0.351682,-0.278414 -0.959797,-0.278414 -0.813262,0 -1.238211,0.527521 -0.424948,0.520195 -0.424948,1.487319 0,1.033063 0.446929,1.523951 0.446928,0.483562 1.21623,0.483562 0.674056,0 1.069697,-0.395642 0.395641,-0.395641 0.395641,-0.908509 v -0.109901 h -1.501971 v -0.725342 h 2.395827 v 2.776816 h -0.893856 z"
           id="text5"
           aria-label="YONGNING" />
        <path
           d="m 40.049988,46.348053 h 2.022166 v 0.652075 h -2.022166 z m 0.97445,-1.436031 h 2.359194 v 0.659402 h -2.359194 z m 2.622955,0.322374 q 0.234454,0.90851 0.652075,1.677812 0.417621,0.769303 1.033063,1.348111 0.615442,0.571482 1.428705,0.88653 -0.07327,0.06594 -0.168514,0.17584 -0.09525,0.102574 -0.17584,0.219801 -0.08059,0.117227 -0.139208,0.212474 -0.849896,-0.380988 -1.472664,-1.011083 -0.622769,-0.637422 -1.047717,-1.487318 -0.424948,-0.857223 -0.696036,-1.890287 z m 2.227313,0.219801 0.637422,0.468908 q -0.315047,0.278414 -0.666728,0.578808 -0.351681,0.293068 -0.703363,0.564156 -0.344354,0.271087 -0.659402,0.476234 l -0.483561,-0.395641 q 0.300394,-0.212474 0.644748,-0.498215 0.344355,-0.293067 0.666729,-0.600788 0.329701,-0.315048 0.564155,-0.593462 z m -2.901369,-0.542175 h 0.747323 v 4.454627 q 0,0.293068 -0.08059,0.454255 -0.08059,0.168514 -0.278414,0.256434 -0.205148,0.08792 -0.520195,0.102574 -0.315048,0.02198 -0.783956,0.02198 -0.02198,-0.153861 -0.09525,-0.359008 -0.06594,-0.19782 -0.146534,-0.337028 0.212474,0.0073 0.410295,0.01465 0.205147,0 0.359008,0 0.15386,0 0.2198,0 0.102574,-0.0073 0.131881,-0.03663 0.03663,-0.03663 0.03663,-0.13188 z m -1.318804,-0.923163 0.344354,-0.564155 q 0.329701,0.08059 0.703363,0.183167 0.373661,0.102573 0.747322,0.234454 0.380988,0.124554 0.703362,0.256434 0.329701,0.124554 0.564155,0.249108 l -0.366334,0.652075 Q 44.123627,44.875388 43.80858,44.736181 43.493532,44.596974 43.119871,44.457767 42.753536,44.31856 42.372549,44.201333 41.998887,44.076779 41.654533,43.988859 Z m 0.161187,2.359194 h 0.139207 l 0.124554,-0.02931 0.461581,0.197821 q -0.183167,0.754649 -0.505541,1.377418 -0.315048,0.622768 -0.725343,1.091676 -0.410294,0.468909 -0.871876,0.769303 -0.05861,-0.07327 -0.161187,-0.168514 -0.09525,-0.102574 -0.205147,-0.197821 -0.102574,-0.102573 -0.190494,-0.15386 0.446928,-0.271088 0.827916,-0.674056 0.388314,-0.410294 0.674055,-0.937816 0.285741,-0.527522 0.432275,-1.142964 z m 8.484307,-2.938003 h 0.696036 v 0.923163 h -0.696036 z m -2.776815,0.534849 h 6.235013 v 1.30415 h -0.659402 v -0.739995 h -4.945516 v 0.739995 h -0.630095 z m 4.132253,2.857409 v 0.564155 h 0.90851 v -0.564155 z m -1.479991,0 v 0.564155 h 0.893856 v -0.564155 z m -1.443358,0 v 0.564155 h 0.871876 v -0.564155 z m -0.593462,-0.432275 h 5.048089 v 1.428705 h -5.048089 z m -0.732669,1.765732 h 6.506101 v 0.586136 h -6.506101 z m 2.901369,0.337028 h 0.696036 v 1.04039 q 0,0.256434 -0.08059,0.388315 -0.07327,0.139207 -0.278414,0.212474 -0.205148,0.06594 -0.520195,0.07327 -0.315048,0.01465 -0.769303,0.01465 -0.02198,-0.139207 -0.08792,-0.307721 -0.05861,-0.161187 -0.13188,-0.293068 0.2198,0.0073 0.424948,0.0073 0.212474,0.0073 0.373661,0 0.161187,0 0.219801,0 0.09525,0 0.124553,-0.02198 0.02931,-0.02931 0.02931,-0.09525 z m -0.967123,-3.582751 h 0.608115 v 0.542175 q 0,0.117227 0.06594,0.146533 0.06594,0.02931 0.285741,0.02931 0.05129,0 0.183168,0 0.139207,0 0.307721,0 0.168513,0 0.315047,0 0.146534,0 0.212474,0 0.109901,0 0.168514,-0.02198 0.05861,-0.02931 0.08059,-0.1099 0.02198,-0.08059 0.03663,-0.249108 0.08792,0.05861 0.241781,0.109901 0.161187,0.05129 0.285741,0.08059 -0.05129,0.410295 -0.212474,0.556829 -0.153861,0.139207 -0.527522,0.139207 -0.05129,0 -0.168514,0 -0.117227,0 -0.263761,0 -0.146533,0 -0.300394,0 -0.146534,0 -0.263761,0 -0.117227,0 -0.161187,0 -0.359008,0 -0.556828,-0.05861 -0.190494,-0.05861 -0.263761,-0.205147 -0.07327,-0.15386 -0.07327,-0.410295 z m -0.644749,0 0.512868,0.234454 q -0.183167,0.337027 -0.483561,0.659402 -0.293068,0.315047 -0.739996,0.520195 l -0.439601,-0.410295 q 0.402968,-0.161187 0.696035,-0.432275 0.293068,-0.278414 0.454255,-0.571481 z m 1.150291,-0.131881 0.366334,-0.351681 q 0.293068,0.09525 0.615442,0.256434 0.322374,0.153861 0.512868,0.300394 l -0.366334,0.388315 q -0.190494,-0.146534 -0.512868,-0.315048 -0.322375,-0.17584 -0.615442,-0.278414 z m 2.154046,0.417622 0.424948,-0.351682 q 0.241781,0.139207 0.498215,0.329701 0.256435,0.183168 0.476235,0.373662 0.227128,0.183167 0.366335,0.351681 l -0.454255,0.388314 q -0.13188,-0.168514 -0.351681,-0.359007 -0.212474,-0.197821 -0.461582,-0.388315 -0.249107,-0.197821 -0.498215,-0.344354 z"
           id="text5-9"
           style="font-weight:500;font-size:7.32669px;line-height:1.25;font-family:'Noto Sans JP';-inkscape-font-specification:'Noto Sans JP Medium';fill:#ffffff;stroke-width:0.261667"
           aria-label="永寧" />
        <path
           style="font-weight:500;font-size:7.32669px;line-height:1.25;font-family:'Noto Sans KR';-inkscape-font-specification:'Noto Sans KR Medium';fill:#ffffff;stroke-width:0.261667"
           d="m 62.569433,46.999084 h 0.761976 v 1.326131 h -0.761976 z m 2.410481,0 h 0.769303 v 1.326131 h -0.769303 z m -3.853839,-0.337028 h 6.051846 v 0.615442 h -6.051846 z m 3.01127,1.216231 q 1.08435,0 1.692465,0.315048 0.615442,0.30772 0.615442,0.886529 0,0.578809 -0.615442,0.88653 -0.608115,0.315047 -1.692465,0.315047 -1.077024,0 -1.692466,-0.315047 -0.608115,-0.307721 -0.608115,-0.88653 0,-0.578809 0.608115,-0.886529 0.615442,-0.315048 1.692466,-0.315048 z m 0,0.586135 q -0.483562,0 -0.827916,0.07327 -0.344355,0.06594 -0.527522,0.205147 -0.175841,0.131881 -0.175841,0.337028 0,0.205147 0.175841,0.344354 0.183167,0.131881 0.527522,0.205148 0.344354,0.06594 0.827916,0.06594 0.498215,0 0.835242,-0.06594 0.344355,-0.07327 0.520195,-0.205148 0.175841,-0.139207 0.175841,-0.344354 0,-0.205147 -0.175841,-0.337028 -0.17584,-0.139207 -0.520195,-0.205147 -0.337027,-0.07327 -0.835242,-0.07327 z m 0.01465,-4.755022 q 0.732669,0 1.267517,0.153861 0.534849,0.15386 0.82059,0.439601 0.293067,0.278414 0.293067,0.681382 0,0.395641 -0.293067,0.681382 -0.285741,0.278415 -0.82059,0.432275 -0.534848,0.146534 -1.267517,0.146534 -0.732669,0 -1.274844,-0.146534 -0.534848,-0.15386 -0.827916,-0.432275 -0.285741,-0.285741 -0.285741,-0.681382 0,-0.402968 0.285741,-0.681382 0.293068,-0.285741 0.827916,-0.439601 0.542175,-0.153861 1.274844,-0.153861 z m 0,0.593462 q -0.498215,0 -0.857223,0.08059 -0.359008,0.08059 -0.549501,0.234454 -0.190494,0.146533 -0.190494,0.366334 0,0.212474 0.190494,0.366335 0.190493,0.146534 0.549501,0.227127 0.359008,0.08059 0.857223,0.08059 0.498215,0 0.849896,-0.08059 0.359008,-0.08059 0.549502,-0.227127 0.190494,-0.153861 0.190494,-0.366335 0,-0.219801 -0.190494,-0.366334 -0.190494,-0.153861 -0.549502,-0.234454 -0.351681,-0.08059 -0.849896,-0.08059 z m 8.455001,-0.718016 h 0.761976 v 3.949086 h -0.761976 z m -4.3374,0.439602 h 0.761975 v 2.762162 h -0.761975 z m 0,2.388501 h 0.556828 q 0.556829,0 1.077024,-0.02198 0.520195,-0.02931 1.033063,-0.09525 0.512868,-0.06594 1.04039,-0.175841 l 0.09525,0.630096 q -0.549502,0.117227 -1.077024,0.183167 -0.527521,0.05861 -1.06237,0.08792 -0.534848,0.02931 -1.10633,0.02931 h -0.556828 z m 2.864736,1.19425 q 0.696035,0 1.201577,0.161187 0.512868,0.153861 0.783956,0.454255 0.278414,0.300395 0.278414,0.718016 0,0.417621 -0.278414,0.718016 -0.271088,0.300394 -0.783956,0.454254 -0.505542,0.161188 -1.201577,0.161188 -0.696036,0 -1.208904,-0.161188 -0.505542,-0.15386 -0.783956,-0.454254 -0.271088,-0.300395 -0.271088,-0.718016 0,-0.417621 0.271088,-0.718016 0.278414,-0.300394 0.783956,-0.454255 0.512868,-0.161187 1.208904,-0.161187 z m 0,0.615442 q -0.476235,0 -0.813263,0.08792 -0.329701,0.08059 -0.512868,0.24178 -0.175841,0.153861 -0.175841,0.388315 0,0.234454 0.175841,0.395641 0.183167,0.161187 0.512868,0.249108 0.337028,0.08059 0.813263,0.08059 0.468908,0 0.805936,-0.08059 0.337027,-0.08792 0.512868,-0.249108 0.183167,-0.161187 0.183167,-0.395641 0,-0.234454 -0.183167,-0.388315 -0.175841,-0.161187 -0.512868,-0.24178 -0.337028,-0.08792 -0.805936,-0.08792 z"
           id="text5-9-8"
           aria-label="융닝" />
      </g>
    </g>
    <text
       xml:space="preserve"
       transform="matrix(0.31615295,0,0,0.31615295,-10.474341,-6.4462013)"
       id="text6"
       style="font-size:55px;line-height:1.25;font-family:'Microsoft JhengHei';-inkscape-font-specification:'Microsoft JhengHei';white-space:pre;shape-inside:url(#rect6);display:inline" />
  </g>
</svg>
