<?xml version="1.0" encoding="UTF-8" standalone="no"?>
<!-- Created with Inkscape (http://www.inkscape.org/) -->

<svg
   width="500"
   height="250"
   viewBox="0 0 132.29166 66.145833"
   version="1.1"
   id="svg1"
   inkscape:version="1.3.2 (091e20e, 2023-11-25, custom)"
   sodipodi:docname="bl03.svg"
   xmlns:inkscape="http://www.inkscape.org/namespaces/inkscape"
   xmlns:sodipodi="http://sodipodi.sourceforge.net/DTD/sodipodi-0.dtd"
   xmlns="http://www.w3.org/2000/svg"
   xmlns:svg="http://www.w3.org/2000/svg">
  <sodipodi:namedview
     id="namedview1"
     pagecolor="#9e652e"
     bordercolor="#ffffff"
     borderopacity="1"
     inkscape:showpageshadow="0"
     inkscape:pageopacity="0"
     inkscape:pagecheckerboard="false"
     inkscape:deskcolor="#d1d1d1"
     inkscape:document-units="mm"
     inkscape:zoom="2.0208096"
     inkscape:cx="212.29115"
     inkscape:cy="106.88785"
     inkscape:window-width="1920"
     inkscape:window-height="1009"
     inkscape:window-x="1912"
     inkscape:window-y="-8"
     inkscape:window-maximized="1"
     inkscape:current-layer="g1" />
  <defs
     id="defs1">
    <rect
       x="560.66638"
       y="34.144731"
       width="279.32397"
       height="128.59143"
       id="rect6" />
    <rect
       x="157.85752"
       y="62.351248"
       width="329.07603"
       height="135.09437"
       id="rect4" />
    <rect
       x="157.85751"
       y="62.35125"
       width="329.07602"
       height="135.09438"
       id="rect4-5" />
  </defs>
  <g
     inkscape:label="Layer 1"
     inkscape:groupmode="layer"
     id="layer1">
    <rect
       style="fill:#005fb9;fill-opacity:1;stroke:none;stroke-width:0.953294;stroke-dasharray:none"
       id="rect5"
       width="132.29167"
       height="66.145836"
       x="-2.5431316e-06"
       y="-1.2715658e-06"
       ry="0" />
    <g
       id="g1"
       transform="translate(23.862138)">
      <g
         id="g2"
         transform="translate(-0.40923364)">
        <path
           id="rect1"
           style="fill-opacity:0;stroke:#ffffff;stroke-width:0.942789"
           d="m 15.913089,14.352791 h 12.425164 c 3.927062,0 7.088559,3.161497 7.088559,7.088559 v 23.263136 c 0,3.927062 -3.161497,7.088559 -7.088559,7.088559 H 15.913089 c -3.927061,0 -7.0885584,-3.161497 -7.0885584,-7.088559 V 21.44135 c 0,-3.927062 3.1614974,-7.088559 7.0885584,-7.088559 z" />
        <path
           style="font-size:12.56px;line-height:1.25;font-family:'AR UDJingXiHeiE1G30 EB';-inkscape-font-specification:'AR UDJingXiHeiE1G30 EB';fill:#ffffff;stroke-width:0.261667"
           d="m 18.527196,30.522264 h -4.7728 v -9.08088 h 4.37088 q 1.29368,0 2.04728,0.628 0.7536,0.628 0.7536,1.67048 0,0.67824 -0.30144,1.1932 -0.28888,0.5024 -0.8792,0.82896 0.76616,0.30144 1.15552,0.82896 0.40192,0.52752 0.40192,1.256 0,1.20576 -0.79128,1.9468 -0.79128,0.72848 -1.98448,0.72848 z m 0.74104,-6.58144 q 0,-0.61544 -0.35168,-0.92944 -0.35168,-0.32656 -1.01736,-0.32656 h -2.54968 v 2.56224 h 2.6376 q 0.5652,0 0.91688,-0.32656 0.36424,-0.33912 0.36424,-0.97968 z m 0.3768,3.8936 q 0,-0.65312 -0.40192,-0.99224 -0.38936,-0.35168 -1.02992,-0.35168 h -2.86368 v 2.78832 h 2.83856 q 0.66568,0 1.05504,-0.36424 0.40192,-0.36424 0.40192,-1.08016 z m 9.633528,2.68784 h -6.38048 v -9.08088 h 1.59512 v 7.83744 h 4.78536 z"
           id="text2"
           aria-label="BL" />
        <path
           style="font-size:14.3917px;line-height:1.25;font-family:'AR UDJingXiHeiE1G30 EB';-inkscape-font-specification:'AR UDJingXiHeiE1G30 EB';fill:#ffffff;stroke-width:0.261667"
           d="m 21.492413,39.692779 q 0,2.720031 -0.877894,4.015284 -0.877893,1.295253 -2.720031,1.295253 -1.784571,0 -2.705639,-1.295253 -0.921069,-1.295253 -0.921069,-4.015284 0,-2.907123 0.877893,-4.173593 0.877894,-1.280861 2.748815,-1.280861 1.827746,0 2.70564,1.280861 0.892285,1.26647 0.892285,4.173593 z m -3.597925,3.885759 q 0.921069,0 1.35282,-0.906677 0.431751,-0.921069 0.431751,-2.979082 0,-2.216322 -0.417359,-3.122999 -0.402968,-0.906677 -1.367212,-0.906677 -0.964244,0 -1.381603,0.921069 -0.417359,0.906677 -0.417359,3.108607 0,2.043622 0.431751,2.96469 0.431751,0.921069 1.367211,0.921069 z m 8.491093,-7.915435 q -0.791544,0 -1.237686,0.474926 -0.446143,0.474926 -0.446143,1.237687 h -1.770179 q 0,-1.410387 0.921069,-2.273889 0.93546,-0.863502 2.532939,-0.863502 1.482345,0 2.403414,0.733977 0.921068,0.733976 0.921068,2.101188 0,0.748368 -0.316617,1.324036 -0.316617,0.575668 -0.949852,0.877894 0.805935,0.273442 1.237686,0.921069 0.446143,0.647626 0.446143,1.539912 0,1.539911 -0.978636,2.403413 -0.978635,0.863502 -2.720031,0.863502 -1.770179,0 -2.734423,-0.84911 -0.964244,-0.84911 -0.964244,-2.317064 h 1.784571 q 0,0.777152 0.518101,1.26647 0.532493,0.474926 1.410387,0.474926 0.863502,0 1.352819,-0.474926 0.50371,-0.474926 0.50371,-1.35282 0,-0.733976 -0.460535,-1.194511 -0.460534,-0.474926 -1.324036,-0.474926 H 25.86748 v -1.424778 h 0.647626 q 0.575668,0 0.964244,-0.41736 0.402968,-0.417359 0.402968,-1.122552 0,-0.647627 -0.388576,-1.050594 -0.388576,-0.402968 -1.108161,-0.402968 z"
           id="text3"
           aria-label="03" />
        <path
           style="font-weight:500;font-size:72px;line-height:1.25;font-family:'Noto Sans TC';-inkscape-font-specification:'Noto Sans TC Medium';white-space:pre;fill:#ffffff"
           d="m 166.06542,97.497406 h 55.656 v 6.696004 h -55.656 z m -4.68,34.200004 h 65.088 v 6.624 h -65.088 z m 28.728,-56.880004 h 7.272 v 61.272004 h -7.272 z m 43.344,17.28 h 19.728 v 6.264 h -19.728 z m 6.984,-16.56 h 6.336 v 48.312004 h -6.336 z m -7.992,49.896004 q 3.888,-1.224 9.432,-3.24 5.544,-2.016 11.304,-4.032 l 1.224,6.048 q -5.112,2.16 -10.296,4.248 -5.184,2.016 -9.504,3.744 z m 25.992,-40.176004 h 40.248 v 6.192 h -40.248 z m 1.08,15.120004 h 12.672 v 5.616 h -12.672 z m -3.744,-15.120004 h 6.264 v 23.112004 q 0,3.888 -0.36,8.352 -0.288,4.392 -1.224,8.928 -0.936,4.464 -2.808,8.64 -1.8,4.104 -4.68,7.416 -0.504,-0.648 -1.44,-1.512 -0.864,-0.792 -1.872,-1.584 -1.008,-0.72 -1.728,-1.08 3.6,-4.104 5.256,-9.072 1.656,-5.04 2.088,-10.224 0.504,-5.256 0.504,-9.864 z m 13.968,15.120004 h 5.688 q 0,0 0,0.936 0,0.864 -0.072,1.512 -0.072,8.136 -0.288,13.176 -0.144,5.04 -0.504,7.704 -0.36,2.592 -1.08,3.528 -0.792,1.08 -1.656,1.584 -0.864,0.432 -2.16,0.648 -1.08,0.144 -2.808,0.216 -1.728,0 -3.6,-0.072 -0.072,-1.368 -0.504,-2.952 -0.36,-1.656 -1.008,-2.736 1.656,0.144 2.952,0.216 1.368,0 2.016,0 1.224,0 1.8,-0.792 0.36,-0.576 0.576,-2.736 0.288,-2.232 0.432,-6.84 0.144,-4.608 0.216,-12.384 z m 7.704,-25.776004 h 6.48 q -0.144,7.92 0.072,15.48 0.288,7.488 0.864,14.184004 0.576,6.624 1.368,12.168 0.864,5.472 1.872,9.504 1.08,4.032 2.304,6.264 1.296,2.16 2.592,2.16 1.008,0 1.512,-2.736 0.504,-2.736 0.648,-8.712 0.936,1.08 2.304,2.088 1.44,1.008 2.592,1.512 -0.36,5.472 -1.296,8.568 -0.864,3.096 -2.448,4.32 -1.584,1.296 -4.104,1.296 -2.88,0 -5.112,-2.52 -2.232,-2.52 -3.888,-7.056 -1.584,-4.608 -2.664,-10.8 -1.08,-6.192 -1.8,-13.608 -0.648,-7.416004 -0.936,-15.552004 -0.288,-8.136 -0.36,-16.56 z m 7.272,3.024 4.68,-2.88 q 2.16,1.8 4.464,4.176 2.304,2.304 3.456,4.104 l -4.968,3.168 q -1.008,-1.872 -3.24,-4.248 -2.232,-2.448 -4.392,-4.32 z m 6.984,21.528 6.192,1.080004 q -3.456,13.968 -9.864,24.336 -6.336,10.296 -15.984,16.848 -0.504,-0.648 -1.368,-1.512 -0.864,-0.864 -1.8,-1.8 -0.864,-0.864 -1.656,-1.368 9.576,-5.688 15.552,-15.264 5.976,-9.648 8.928,-22.320004 z"
           id="text4"
           transform="matrix(0.26166763,0,0,0.26166763,-2.1314997,-4.0633201)"
           aria-label="土城" />
        <path
           style="font-size:7.32669px;line-height:1.25;font-family:'AR UDJingXiHeiE1G30 EB';-inkscape-font-specification:'AR UDJingXiHeiE1G30 EB';fill:#ffffff;stroke-width:0.261667"
           d="m 41.520258,36.314564 h -1.648505 v -0.725342 h 4.220173 v 0.725342 h -1.641178 v 4.571855 h -0.93049 z m 7.715003,2.718202 q 0,0.923163 -0.578808,1.436031 -0.578809,0.512869 -1.648505,0.512869 -1.08435,0 -1.670486,-0.505542 -0.578808,-0.505542 -0.578808,-1.436031 v -3.450871 h 0.930489 v 3.406911 q 0,0.600788 0.329701,0.930489 0.329702,0.329701 0.989104,0.329701 0.622768,0 0.952469,-0.315047 0.337028,-0.322375 0.337028,-0.959797 v -3.392257 h 0.937816 z m 4.945518,0.0073 h 0.930489 q -0.03663,0.871876 -0.608115,1.406724 -0.571482,0.534849 -1.655832,0.534849 -1.282171,0 -1.963553,-0.725343 -0.674055,-0.725342 -0.674055,-2.014839 0,-1.274845 0.674055,-2.007514 0.681382,-0.732669 1.9489,-0.732669 1.01841,0 1.582565,0.468909 0.564155,0.461581 0.644748,1.201577 h -0.930489 q -0.05861,-0.424948 -0.388315,-0.681382 -0.329701,-0.263761 -0.930489,-0.263761 -0.739996,0 -1.186924,0.498215 -0.446928,0.498215 -0.446928,1.516625 0,1.033063 0.446928,1.523951 0.454255,0.490888 1.201577,0.490888 0.637422,0 0.981776,-0.329701 0.344355,-0.337027 0.373662,-0.886529 z m 2.769484,-0.505542 v 2.351868 h -0.930489 v -5.297197 h 0.930489 v 2.219987 h 2.542362 v -2.219987 h 0.930489 v 5.297197 h -0.930489 v -2.351868 z m 8.608862,2.351868 h -3.919779 v -5.297197 h 3.897799 v 0.725342 h -2.967309 v 1.494645 h 2.769489 v 0.725342 h -2.769489 v 1.626525 h 2.989289 z m 1.912271,-3.824533 v 3.824533 h -0.93049 v -5.297197 h 0.959796 l 2.600975,3.912452 v -3.912452 h 0.93049 v 5.297197 h -1.01841 z m 8.66747,3.179784 q -0.271088,0.380988 -0.681383,0.564155 -0.402968,0.175841 -0.923163,0.175841 -1.142963,0 -1.817019,-0.718016 -0.674055,-0.725342 -0.674055,-2.022166 0,-1.304151 0.710689,-2.022167 0.710689,-0.718016 1.919593,-0.718016 0.974449,0 1.582565,0.446929 0.615442,0.439601 0.739995,1.26019 h -0.930489 q -0.07327,-0.432274 -0.432275,-0.703362 -0.351681,-0.278414 -0.959796,-0.278414 -0.813263,0 -1.238211,0.527521 -0.424948,0.520195 -0.424948,1.487319 0,1.033063 0.446928,1.523951 0.446928,0.483562 1.216231,0.483562 0.674055,0 1.069696,-0.395642 0.395642,-0.395641 0.395642,-0.908509 v -0.109901 h -1.501972 v -0.725342 h 2.395828 v 2.776816 h -0.893856 z"
           id="text5"
           aria-label="TUCHENG" />
        <path
           d="m 40.489589,45.732611 h 5.663532 v 0.681382 h -5.663532 z m -0.476235,3.480178 h 6.623328 v 0.674055 h -6.623328 z m 2.92335,-5.788085 h 0.739995 v 6.235013 h -0.739995 z m 4.410667,1.758405 h 2.007513 v 0.637422 H 47.347371 Z M 48.05806,43.49797 h 0.644749 v 4.91621 H 48.05806 Z m -0.813262,5.077397 q 0.395641,-0.124554 0.959796,-0.329701 0.564155,-0.205148 1.15029,-0.410295 l 0.124554,0.615442 q -0.520195,0.219801 -1.047717,0.432275 -0.527521,0.205147 -0.967123,0.380988 z m 2.644935,-4.088293 h 4.095619 v 0.630095 h -4.095619 z m 0.1099,1.538605 h 1.289497 v 0.571481 h -1.289497 z m -0.380988,-1.538605 h 0.637422 v 2.351867 q 0,0.395641 -0.03663,0.849896 -0.02931,0.446928 -0.124554,0.90851 -0.09525,0.454255 -0.285741,0.879203 -0.183167,0.417621 -0.476235,0.754649 -0.05129,-0.06594 -0.146534,-0.153861 -0.08792,-0.08059 -0.190494,-0.161187 -0.102573,-0.07327 -0.17584,-0.1099 0.366334,-0.417622 0.534848,-0.923163 0.168514,-0.512869 0.212474,-1.04039 0.05129,-0.534849 0.05129,-1.003757 z m 1.421378,1.538605 h 0.578809 q 0,0 0,0.09525 0,0.08792 -0.0073,0.15386 -0.0073,0.827916 -0.02931,1.340784 -0.01465,0.512869 -0.05129,0.783956 -0.03663,0.263761 -0.1099,0.359008 -0.08059,0.1099 -0.168514,0.161187 -0.08792,0.04396 -0.219801,0.06594 -0.1099,0.01465 -0.285741,0.02198 -0.17584,0 -0.366334,-0.0073 -0.0073,-0.139207 -0.05129,-0.300395 -0.03663,-0.168513 -0.102574,-0.278414 0.168514,0.01465 0.300395,0.02198 0.139207,0 0.205147,0 0.124554,0 0.183167,-0.08059 0.03663,-0.05861 0.05861,-0.278414 0.02931,-0.227128 0.04396,-0.696036 0.01465,-0.468908 0.02198,-1.260191 z m 0.783956,-2.622956 h 0.659402 q -0.01465,0.805936 0.0073,1.575239 0.02931,0.761976 0.08792,1.443358 0.05861,0.674055 0.139207,1.23821 0.08792,0.556829 0.190494,0.967124 0.1099,0.410294 0.234454,0.637422 0.131881,0.2198 0.263761,0.2198 0.102574,0 0.15386,-0.278414 0.05129,-0.278414 0.06594,-0.886529 0.09525,0.1099 0.234454,0.212474 0.146534,0.102573 0.263761,0.15386 -0.03663,0.556829 -0.131881,0.871876 -0.08792,0.315048 -0.249107,0.439602 -0.161187,0.13188 -0.417622,0.13188 -0.293067,0 -0.520195,-0.256434 -0.227127,-0.256434 -0.395641,-0.718016 -0.161187,-0.468908 -0.271087,-1.099003 -0.109901,-0.630096 -0.183168,-1.384745 -0.06594,-0.754649 -0.09525,-1.582565 -0.02931,-0.827916 -0.03663,-1.685139 z m 0.739996,0.307721 0.476234,-0.293067 q 0.219801,0.183167 0.454255,0.424948 0.234454,0.234454 0.351681,0.417621 l -0.505541,0.322375 Q 53.23803,44.391827 53.010903,44.150046 52.783775,43.900938 52.563975,43.710444 Z m 0.710689,2.190681 0.630095,0.1099 q -0.351681,1.421378 -1.003757,2.476421 -0.644748,1.047717 -1.626525,1.714446 -0.05129,-0.06594 -0.139207,-0.153861 -0.08792,-0.08792 -0.183167,-0.183167 -0.08792,-0.08792 -0.168514,-0.139207 0.97445,-0.578808 1.582565,-1.553258 0.608115,-0.981777 0.90851,-2.271274 z"
           id="text5-9"
           style="font-weight:500;font-size:7.32669px;line-height:1.25;font-family:'Noto Sans JP';-inkscape-font-specification:'Noto Sans JP Medium';fill:#ffffff;stroke-width:0.261667"
           aria-label="土城" />
        <path
           style="font-weight:500;font-size:7.32669px;line-height:1.25;font-family:'Noto Sans KR';-inkscape-font-specification:'Noto Sans KR Medium';fill:#ffffff;stroke-width:0.261667"
           d="m 61.118748,47.607199 h 6.0665 v 0.630096 h -6.0665 z m 2.644935,0.197821 h 0.761976 v 2.483748 h -0.761976 z m -1.860979,-1.406725 h 4.623142 v 0.615442 h -4.623142 z m 0,-2.520381 h 4.557201 v 0.608115 H 62.66468 v 2.066127 h -0.761976 z m 0.542175,1.252864 h 3.861166 v 0.593462 h -3.861166 z m 7.01897,-0.380988 h 0.622769 v 0.263761 q 0,0.578808 -0.219801,1.091677 -0.219801,0.505541 -0.637422,0.886529 -0.410295,0.373662 -1.011083,0.564155 l -0.366335,-0.593461 q 0.520195,-0.161188 0.879203,-0.454255 0.359008,-0.300395 0.542175,-0.688709 0.190494,-0.395641 0.190494,-0.805936 z m 0.139207,0 h 0.622769 v 0.263761 q 0,0.285741 0.1099,0.564155 0.109901,0.271088 0.315048,0.505542 0.212474,0.234454 0.512868,0.417621 0.300395,0.183167 0.688709,0.293068 l -0.351681,0.593462 q -0.593462,-0.168514 -1.025737,-0.520195 -0.424948,-0.351682 -0.652075,-0.827916 -0.219801,-0.476235 -0.219801,-1.025737 z m -1.553258,-0.402968 h 3.582752 v 0.608115 h -3.582752 z m 1.414051,-0.783956 h 0.761976 v 1.011084 h -0.761976 z m 1.978207,1.875633 h 1.399397 v 0.630095 h -1.399397 z m 1.201577,-1.846326 h 0.769302 v 4.044333 h -0.769302 z m -1.458012,4.190867 q 1.047717,0 1.648506,0.329701 0.608115,0.329701 0.608115,0.915836 0,0.593462 -0.608115,0.915836 -0.600789,0.329702 -1.648506,0.329702 -1.055043,0 -1.663158,-0.329702 -0.600789,-0.322374 -0.600789,-0.915836 0,-0.586135 0.600789,-0.915836 0.608115,-0.329701 1.663158,-0.329701 z m 0,0.593462 q -0.476234,0 -0.813262,0.08059 -0.337028,0.07327 -0.512869,0.219801 -0.168513,0.139207 -0.168513,0.351681 0,0.212474 0.168513,0.359008 0.175841,0.146534 0.512869,0.219801 0.337028,0.07327 0.813262,0.07327 0.476235,0 0.805936,-0.07327 0.337028,-0.07327 0.512869,-0.219801 0.17584,-0.146534 0.17584,-0.359008 0,-0.212474 -0.17584,-0.351681 -0.175841,-0.146534 -0.512869,-0.219801 -0.329701,-0.08059 -0.805936,-0.08059 z"
           id="text5-9-8"
           aria-label="투청" />
      </g>
    </g>
    <text
       xml:space="preserve"
       transform="matrix(0.31615295,0,0,0.31615295,-10.474341,-6.4462013)"
       id="text6"
       style="font-size:55px;line-height:1.25;font-family:'Microsoft JhengHei';-inkscape-font-specification:'Microsoft JhengHei';white-space:pre;shape-inside:url(#rect6);display:inline" />
  </g>
</svg>
