<?xml version="1.0" encoding="UTF-8" standalone="no"?>
<!-- Created with Inkscape (http://www.inkscape.org/) -->

<svg
   width="500"
   height="250"
   viewBox="0 0 132.29166 66.145833"
   version="1.1"
   id="svg1"
   inkscape:version="1.1 (c68e22c387, 2021-05-23)"
   sodipodi:docname="bl04.svg"
   xmlns:inkscape="http://www.inkscape.org/namespaces/inkscape"
   xmlns:sodipodi="http://sodipodi.sourceforge.net/DTD/sodipodi-0.dtd"
   xmlns="http://www.w3.org/2000/svg"
   xmlns:svg="http://www.w3.org/2000/svg">
  <sodipodi:namedview
     id="namedview1"
     pagecolor="#9e652e"
     bordercolor="#ffffff"
     borderopacity="1"
     inkscape:showpageshadow="0"
     inkscape:pageopacity="0"
     inkscape:pagecheckerboard="false"
     inkscape:deskcolor="#d1d1d1"
     inkscape:document-units="mm"
     inkscape:zoom="2.0208096"
     inkscape:cx="252.3741"
     inkscape:cy="33.155029"
     inkscape:window-width="1920"
     inkscape:window-height="1094"
     inkscape:window-x="-11"
     inkscape:window-y="-11"
     inkscape:window-maximized="1"
     inkscape:current-layer="layer1"
     inkscape:pageshadow="0"
     showgrid="false" />
  <defs
     id="defs1">
    <rect
       x="560.66638"
       y="34.144731"
       width="279.32397"
       height="128.59143"
       id="rect6" />
    <rect
       x="157.85752"
       y="62.351248"
       width="329.07603"
       height="135.09437"
       id="rect4" />
    <rect
       x="157.85751"
       y="62.35125"
       width="329.07602"
       height="135.09438"
       id="rect4-5" />
  </defs>
  <g
     inkscape:label="Layer 1"
     inkscape:groupmode="layer"
     id="layer1">
    <rect
       style="fill:#005fb9;fill-opacity:1;stroke:none;stroke-width:0.953294;stroke-dasharray:none"
       id="rect5"
       width="132.29167"
       height="66.145836"
       x="-2.5431316e-06"
       y="-1.2715658e-06"
       ry="0" />
    <g
       id="g17004"
       transform="matrix(0.972711,0,0,0.972711,-27.658856,0.90252696)">
      <g
         id="g2"
         transform="translate(21.581136)">
        <path
           id="rect1"
           style="fill-opacity:0;stroke:#ffffff;stroke-width:0.942789"
           d="m 15.913089,14.352791 h 12.425164 c 3.927062,0 7.088559,3.161497 7.088559,7.088559 v 23.263136 c 0,3.927062 -3.161497,7.088559 -7.088559,7.088559 H 15.913089 c -3.927061,0 -7.0885584,-3.161497 -7.0885584,-7.088559 V 21.44135 c 0,-3.927062 3.1614974,-7.088559 7.0885584,-7.088559 z" />
        <path
           style="font-size:12.56px;line-height:1.25;font-family:'AR UDJingXiHeiE1G30 EB';-inkscape-font-specification:'AR UDJingXiHeiE1G30 EB';fill:#ffffff;stroke-width:0.261667"
           d="m 18.527196,30.522264 h -4.7728 v -9.08088 h 4.37088 q 1.29368,0 2.04728,0.628 0.7536,0.628 0.7536,1.67048 0,0.67824 -0.30144,1.1932 -0.28888,0.5024 -0.8792,0.82896 0.76616,0.30144 1.15552,0.82896 0.40192,0.52752 0.40192,1.256 0,1.20576 -0.79128,1.9468 -0.79128,0.72848 -1.98448,0.72848 z m 0.74104,-6.58144 q 0,-0.61544 -0.35168,-0.92944 -0.35168,-0.32656 -1.01736,-0.32656 h -2.54968 v 2.56224 h 2.6376 q 0.5652,0 0.91688,-0.32656 0.36424,-0.33912 0.36424,-0.97968 z m 0.3768,3.8936 q 0,-0.65312 -0.40192,-0.99224 -0.38936,-0.35168 -1.02992,-0.35168 h -2.86368 v 2.78832 h 2.83856 q 0.66568,0 1.05504,-0.36424 0.40192,-0.36424 0.40192,-1.08016 z m 9.633528,2.68784 h -6.38048 v -9.08088 h 1.59512 v 7.83744 h 4.78536 z"
           id="text2"
           aria-label="BL" />
        <path
           style="font-size:14.3917px;line-height:1.25;font-family:'AR UDJingXiHeiE1G30 EB';-inkscape-font-specification:'AR UDJingXiHeiE1G30 EB';fill:#ffffff;stroke-width:0.261667"
           d="m 21.492413,39.692779 q 0,2.720031 -0.877894,4.015284 -0.877893,1.295253 -2.720031,1.295253 -1.784571,0 -2.705639,-1.295253 -0.921069,-1.295253 -0.921069,-4.015284 0,-2.907123 0.877893,-4.173593 0.877894,-1.280861 2.748815,-1.280861 1.827746,0 2.70564,1.280861 0.892285,1.26647 0.892285,4.173593 z m -3.597925,3.885759 q 0.921069,0 1.35282,-0.906677 0.431751,-0.921069 0.431751,-2.979082 0,-2.216322 -0.417359,-3.122999 -0.402968,-0.906677 -1.367212,-0.906677 -0.964244,0 -1.381603,0.921069 -0.417359,0.906677 -0.417359,3.108607 0,2.043622 0.431751,2.96469 0.431751,0.921069 1.367211,0.921069 z m 9.239461,-1.007419 H 22.629347 V 41.30465 l 4.418252,-6.893625 h 1.856529 v 6.720924 h 1.367212 v 1.43917 h -1.367212 v 2.245105 h -1.770179 z m -2.676856,-1.43917 h 2.676856 v -4.23116 z"
           id="text3"
           aria-label="04" />
        <path
           style="font-weight:500;font-size:72px;line-height:1.25;font-family:'Noto Sans TC';-inkscape-font-specification:'Noto Sans TC Medium';white-space:pre;fill:#ffffff"
           d="m 187.52142,94.545406 h 6.408 q -0.504,4.464 -1.08,9.432004 -0.576,4.896 -1.296,9.792 -0.648,4.896 -1.296,9.288 -0.576,4.392 -1.152,7.776 h -6.624 q 0.72,-3.528 1.44,-7.992 0.72,-4.464 1.368,-9.36 0.648,-4.896 1.224,-9.72 0.648,-4.896004 1.008,-9.216004 z m 10.728,7.704004 3.6,-2.376004 q 2.088,1.584004 4.248,3.744004 2.232,2.088 3.384,3.672 l -3.816,2.664 q -1.08,-1.656 -3.24,-3.816 -2.088,-2.232 -4.176,-3.888 z m -1.872,15.048 3.744,-2.376 q 2.232,1.656 4.608,3.96 2.448,2.304 3.816,4.104 l -4.032,2.736 q -1.224,-1.8 -3.6,-4.176 -2.304,-2.376 -4.536,-4.248 z m -7.92,-34.848004 h 37.224 v 6.12 h -37.224 z m 1.872,12.096 h 27.936 v 5.904004 h -27.936 z m -11.88,14.616004 h 49.104 v 6.192 h -49.104 z m 7.416,15.768 h 39.744 v 5.904 h -39.744 z m 3.456,-50.328004 6.552,1.656 q -1.44,4.536 -3.528,8.928 -2.016,4.392 -4.32,8.28 -2.304,3.888 -4.752,6.840004 -0.648,-0.576004 -1.728,-1.296004 -1.08,-0.72 -2.232,-1.368 -1.08,-0.72 -1.872,-1.152 2.52,-2.664 4.752,-6.192 2.232,-3.528 4.032,-7.56 1.8,-4.032 3.096,-8.136 z m 27,19.944 h 6.336 q 0,0 0,0.576 0,0.576 0,1.296 0,0.72 -0.072,1.152 -0.432,10.368004 -0.864,17.568004 -0.432,7.2 -1.008,11.808 -0.576,4.536 -1.296,7.128 -0.648,2.592 -1.584,3.744 -1.152,1.512 -2.448,2.088 -1.296,0.648 -2.952,0.864 -1.584,0.144 -4.032,0.144 -2.448,0 -5.04,-0.144 -0.072,-1.296 -0.576,-2.952 -0.432,-1.584 -1.224,-2.736 2.592,0.216 4.752,0.288 2.232,0 3.24,0 0.936,0 1.512,-0.216 0.648,-0.216 1.152,-0.864 0.72,-0.792 1.296,-3.168 0.648,-2.448 1.152,-6.912 0.504,-4.464 0.864,-11.448 0.432,-6.984 0.792,-16.848004 z m -51.696,-14.256 3.816,-4.608 q 2.16,0.936 4.536,2.232 2.376,1.296 4.536,2.664 2.16,1.296 3.6,2.448 l -4.032,5.184 q -1.296,-1.152 -3.456,-2.592 -2.088,-1.44 -4.536,-2.808 -2.376,-1.44 -4.464,-2.52 z m -3.96,20.808004 3.744,-4.680004 q 2.088,0.936 4.32,2.232 2.304,1.224 4.32,2.520004 2.016,1.296 3.312,2.448 l -3.96,5.184 q -1.224,-1.152 -3.24,-2.52 -1.944,-1.44 -4.248,-2.808 -2.232,-1.368 -4.248,-2.376 z m 2.088,35.496 q 1.44,-2.808 3.168,-6.696 1.728,-3.888 3.528,-8.208 1.8,-4.32 3.24,-8.496 l 5.256,3.744 q -1.296,3.816 -2.88,7.92 -1.584,4.104 -3.24,8.064 -1.584,3.96 -3.168,7.344 z m 99.432,-61.200004 h 7.2 v 56.880004 h -7.2 z m 25.488,14.328 h 7.056 v 51.552004 h -7.056 z m -50.472,0.216 h 6.984 v 39.168004 h 46.944 v 6.912 h -53.928 z"
           id="text4"
           transform="matrix(0.26166763,0,0,0.26166763,-2.1314997,-4.0633201)"
           aria-label="海山" />
        <path
           style="font-size:7.32669px;line-height:1.25;font-family:'AR UDJingXiHeiE1G30 EB';-inkscape-font-specification:'AR UDJingXiHeiE1G30 EB';fill:#ffffff;stroke-width:0.261667"
           d="m 41.322437,38.534551 v 2.351868 h -0.930489 v -5.297197 h 0.930489 v 2.219987 h 2.542362 v -2.219987 h 0.93049 v 5.297197 h -0.93049 v -2.351868 z m 7.509859,0.212474 -0.835242,-2.263947 -0.849897,2.263947 z m -1.956226,0.725343 -0.527522,1.414051 h -0.945143 l 2.132067,-5.297197 h 0.95247 l 2.117413,5.297197 h -0.967123 l -0.534848,-1.414051 z m 5.267884,-3.883146 v 5.297197 h -0.93049 v -5.297197 z m 2.974631,2.901369 q -0.967123,-0.175841 -1.436032,-0.542175 -0.468908,-0.366335 -0.468908,-1.025737 0,-0.615442 0.498215,-1.01841 0.505542,-0.402968 1.553258,-0.402968 0.959797,0 1.487319,0.410295 0.527521,0.410295 0.578808,1.186924 h -0.93049 q -0.0073,-0.373661 -0.293067,-0.622769 -0.285741,-0.249107 -0.871876,-0.249107 -0.549502,0 -0.813263,0.183167 -0.263761,0.183167 -0.256434,0.512868 0,0.359008 0.351681,0.534849 0.359008,0.17584 1.164944,0.337027 1.011083,0.205148 1.436031,0.556829 0.432275,0.351681 0.432275,1.055043 0,0.674056 -0.571482,1.128311 -0.571482,0.446928 -1.626525,0.446928 -1.077024,0 -1.677812,-0.454255 -0.600789,-0.454255 -0.600789,-1.311478 h 0.93049 q 0,0.476235 0.359008,0.761976 0.359007,0.278414 0.996429,0.278414 0.586136,0 0.915837,-0.227127 0.329701,-0.227127 0.329701,-0.593462 0,-0.424948 -0.329701,-0.608115 -0.329701,-0.183167 -1.157617,-0.337028 z m 4.234826,0.04396 v 2.351868 h -0.93049 v -5.297197 h 0.93049 v 2.219987 h 2.542361 v -2.219987 h 0.93049 v 5.297197 h -0.93049 v -2.351868 z m 7.50986,0.212474 -0.835243,-2.263947 -0.849896,2.263947 z m -1.956227,0.725343 -0.527521,1.414051 H 63.43438 l 2.132066,-5.297197 h 0.95247 l 2.117414,5.297197 h -0.967123 l -0.534849,-1.414051 z m 5.267883,-2.410482 v 3.824533 h -0.93049 v -5.297197 h 0.959797 l 2.600975,3.912452 v -3.912452 h 0.930489 v 5.297197 h -1.01841 z"
           id="text5"
           aria-label="HAISHAN" />
        <path
           d="m 42.76819,44.289253 h 3.883146 v 0.622769 H 42.76819 Z m 0.190494,1.201577 h 2.842756 v 0.600789 h -2.842756 z m -1.201577,1.487318 h 5.033436 v 0.630096 h -5.033436 z m 0.835242,1.597219 h 4.13958 v 0.600788 h -4.13958 z m 0.271088,-5.172644 0.681382,0.146534 q -0.212474,0.725343 -0.556828,1.384745 -0.344355,0.652075 -0.73267,1.099003 -0.06594,-0.05861 -0.17584,-0.13188 -0.102574,-0.08059 -0.219801,-0.153861 -0.1099,-0.07327 -0.19782,-0.117227 0.395641,-0.395641 0.703362,-0.989103 0.315048,-0.593462 0.498215,-1.238211 z M 42.68027,45.49083 h 0.637422 q -0.05129,0.490888 -0.117227,1.033064 -0.06594,0.542175 -0.139208,1.091676 -0.07327,0.542175 -0.15386,1.033064 -0.07327,0.490888 -0.139207,0.864549 l -0.659402,-0.05129 q 0.08059,-0.380988 0.161187,-0.864549 0.08059,-0.490888 0.15386,-1.025737 0.07327,-0.542175 0.139207,-1.069697 0.06594,-0.534848 0.117228,-1.011083 z m 1.428704,0.234454 h 0.600789 q -0.02931,0.380988 -0.06594,0.813263 -0.03663,0.424948 -0.08059,0.849896 -0.04396,0.424948 -0.08792,0.813263 -0.04396,0.380987 -0.08792,0.674055 H 43.7866 q 0.04396,-0.307721 0.08792,-0.688709 0.05129,-0.388314 0.09525,-0.813262 0.04396,-0.432275 0.08059,-0.849896 0.03663,-0.424949 0.05861,-0.79861 z m 1.494645,-0.234454 h 0.644749 q 0,0 0,0.06594 0,0.05861 0,0.131881 0,0.06594 -0.0073,0.1099 -0.03663,1.055044 -0.08792,1.787713 -0.04396,0.725342 -0.102574,1.19425 -0.05129,0.468908 -0.124554,0.732669 -0.06594,0.263761 -0.161187,0.380988 -0.1099,0.146534 -0.241781,0.205147 -0.13188,0.06594 -0.300394,0.08059 -0.161187,0.02198 -0.410295,0.02198 -0.249107,0 -0.520195,-0.01465 -0.0073,-0.131881 -0.05861,-0.293068 -0.04396,-0.161187 -0.117227,-0.278414 0.263761,0.01465 0.483561,0.02198 0.219801,0.0073 0.329701,0.0073 0.09525,0 0.153861,-0.02198 0.06594,-0.02198 0.117227,-0.08792 0.07327,-0.08792 0.13188,-0.329701 0.05861,-0.241781 0.102574,-0.696035 0.05129,-0.461582 0.08792,-1.164944 0.04396,-0.710689 0.08059,-1.714446 z m -5.348484,-1.516625 0.395641,-0.498215 q 0.212474,0.09525 0.446928,0.227128 0.241781,0.13188 0.446929,0.271087 0.205147,0.131881 0.337027,0.263761 l -0.417621,0.556829 Q 41.339485,44.662914 41.134338,44.51638 40.936517,44.369847 40.702063,44.223313 40.474936,44.076779 40.255135,43.974205 Z m -0.344354,1.963553 0.388314,-0.512868 q 0.212474,0.08792 0.446928,0.212474 0.241781,0.117227 0.446928,0.256434 0.212474,0.131881 0.344355,0.249108 l -0.410295,0.556828 Q 41.002457,46.57518 40.79731,46.435973 40.59949,46.296766 40.365035,46.164886 40.130581,46.033005 39.910781,45.937758 Z m 0.15386,3.802553 q 0.168514,-0.293068 0.359008,-0.681383 0.197821,-0.395641 0.395641,-0.835242 0.197821,-0.439602 0.359008,-0.86455 l 0.556828,0.388315 q -0.146533,0.388314 -0.329701,0.805936 -0.17584,0.417621 -0.359007,0.820589 -0.175841,0.402968 -0.359008,0.754649 z m 10.184099,-6.15442 h 0.73267 v 5.692838 h -0.73267 z m -2.535034,1.589892 h 0.703362 v 4.945515 h -0.703362 z m 5.172643,-0.01465 h 0.718016 v 4.938189 h -0.718016 z m -4.828289,3.699979 h 5.143337 v 0.710689 H 48.05806 Z"
           id="text5-9"
           style="font-weight:500;font-size:7.32669px;line-height:1.25;font-family:'Noto Sans JP';-inkscape-font-specification:'Noto Sans JP Medium';fill:#ffffff;stroke-width:0.261667"
           aria-label="海山" />
        <path
           style="font-weight:500;font-size:7.32669px;line-height:1.25;font-family:'Noto Sans KR';-inkscape-font-specification:'Noto Sans KR Medium';fill:#ffffff;stroke-width:0.261667"
           d="m 65.551396,43.592173 h 0.769302 v 6.696595 h -0.769302 z m 0.593462,2.688895 h 1.208904 v 0.637422 h -1.208904 z m -5.055416,-1.655832 h 3.927105 v 0.615442 h -3.927105 z m 1.992859,1.091677 q 0.476235,0 0.849896,0.205148 0.373662,0.19782 0.586136,0.549501 0.2198,0.351681 0.2198,0.805936 0,0.461582 -0.2198,0.813263 -0.212474,0.351681 -0.586136,0.556828 -0.373661,0.197821 -0.857222,0.197821 -0.476235,0 -0.849896,-0.197821 -0.373662,-0.205147 -0.593462,-0.556828 -0.212474,-0.351681 -0.212474,-0.813263 0,-0.454255 0.212474,-0.805936 0.2198,-0.351681 0.593462,-0.549501 0.373661,-0.205148 0.857222,-0.205148 z m -0.0073,0.630096 q -0.263761,0 -0.476235,0.117227 -0.212474,0.117227 -0.337028,0.329701 -0.117227,0.205147 -0.117227,0.483561 0,0.285741 0.117227,0.498215 0.124554,0.205147 0.337028,0.322375 0.212474,0.117227 0.476235,0.117227 0.271087,0 0.476234,-0.117227 0.212474,-0.117228 0.329702,-0.322375 0.124553,-0.212474 0.124553,-0.498215 0,-0.278414 -0.124553,-0.483561 -0.117228,-0.212474 -0.329702,-0.329701 -0.205147,-0.117227 -0.476234,-0.117227 z M 62.68666,43.680093 h 0.769302 v 1.201578 H 62.68666 Z m 9.920339,-0.09525 h 0.769303 v 6.711249 h -0.769303 z m -2.791469,0.490889 q 0.498215,0 0.88653,0.293067 0.395641,0.293068 0.615442,0.82059 0.219801,0.527521 0.219801,1.245537 0,0.725342 -0.219801,1.260191 -0.219801,0.527521 -0.615442,0.820589 -0.388315,0.285741 -0.88653,0.285741 -0.498215,0 -0.893856,-0.285741 -0.388314,-0.293068 -0.615442,-0.820589 -0.219801,-0.534849 -0.219801,-1.260191 0,-0.718016 0.219801,-1.245537 0.227128,-0.527522 0.615442,-0.82059 0.395641,-0.293067 0.893856,-0.293067 z m 0,0.696035 q -0.293067,0 -0.520195,0.197821 -0.2198,0.19782 -0.344354,0.571482 -0.124554,0.373661 -0.124554,0.893856 0,0.527522 0.124554,0.901183 0.124554,0.373661 0.344354,0.578808 0.227128,0.197821 0.520195,0.197821 0.293068,0 0.512869,-0.197821 0.2198,-0.205147 0.344354,-0.578808 0.124554,-0.373661 0.124554,-0.901183 0,-0.520195 -0.124554,-0.893856 Q 70.548199,45.167411 70.328399,44.969591 70.108598,44.77177 69.81553,44.77177 Z m 6.374222,-0.776629 h 0.630095 v 0.776629 q 0,0.659402 -0.219801,1.230884 -0.212474,0.564155 -0.630095,0.981777 -0.417621,0.417621 -1.011083,0.637422 l -0.417622,-0.600789 q 0.542175,-0.183167 0.90851,-0.520195 0.366334,-0.344354 0.549502,-0.791282 0.190494,-0.446929 0.190494,-0.937817 z m 0.146533,0 h 0.622769 v 0.798609 q 0,0.329701 0.102574,0.644749 0.1099,0.315048 0.307721,0.593462 0.205147,0.278414 0.498215,0.490888 0.300394,0.212474 0.688709,0.344355 l -0.388315,0.608115 q -0.586135,-0.212474 -0.99643,-0.608115 -0.410295,-0.395642 -0.622769,-0.93049 -0.212474,-0.542175 -0.212474,-1.142964 z m 2.732856,-0.410295 h 0.761976 v 4.923536 h -0.761976 z m 0.534848,2.007513 h 1.172271 v 0.637423 h -1.172271 z m -3.993046,3.934433 h 4.491261 v 0.622769 h -4.491261 z m 0,-1.487318 h 0.769303 v 1.809692 h -0.769303 z"
           id="text5-9-8"
           aria-label="하이산" />
      </g>
      <path
         id="rect2"
         style="fill:#ffffff;stroke-width:0.806943"
         d="m 101.28801,14.769095 h 1.11809 v 17.849898 h -1.11809 z" />
      <g
         aria-label="新北高工"
         id="text1737"
         style="font-size:10.5833px;line-height:1.25;stroke-width:0.264583">
        <path
           d="m 111.91252,17.711551 h 3.8629 v 0.93133 h -3.8629 z m -5.71499,-2.455326 h 4.70957 v 0.825498 h -4.70957 z m -0.11641,4.20157 h 4.84715 v 0.857247 h -4.84715 z m -0.0529,-1.809744 h 5.04823 v 0.836081 h -5.04823 z m 7.68348,0.465665 h 0.97366 v 5.831398 h -0.97366 z m -6.88973,-1.809744 0.81491,-0.190499 q 0.13759,0.306915 0.24342,0.677331 0.11641,0.370415 0.15875,0.634998 l -0.84667,0.232832 q -0.0317,-0.275166 -0.13758,-0.656164 -0.0952,-0.380999 -0.23283,-0.698498 z m 2.63524,-0.211666 0.92075,0.190499 q -0.16934,0.444499 -0.34925,0.899581 -0.17992,0.455082 -0.33867,0.772581 l -0.81491,-0.179916 q 0.10583,-0.232833 0.21166,-0.529165 0.10584,-0.296333 0.20109,-0.603248 0.10583,-0.306916 0.16933,-0.550332 z m 5.34457,-1.767411 0.78316,0.740831 q -0.51858,0.201083 -1.16416,0.370415 -0.635,0.15875 -1.30175,0.285749 -0.65616,0.127 -1.29116,0.22225 -0.0318,-0.15875 -0.127,-0.380999 -0.0847,-0.222249 -0.17992,-0.370416 0.60325,-0.105833 1.2065,-0.243415 0.60325,-0.137583 1.143,-0.296333 0.55033,-0.169333 0.93133,-0.328082 z m -7.0379,0.02117 0.99483,-0.253999 q 0.17992,0.328083 0.34925,0.730248 0.17992,0.391582 0.26458,0.677331 l -1.03716,0.296333 q -0.0741,-0.296333 -0.24342,-0.698498 -0.15875,-0.412749 -0.32808,-0.751415 z m 3.75707,0.846664 h 0.94192 v 3.714739 q 0,0.582081 -0.0423,1.248829 -0.0317,0.666748 -0.14816,1.344079 -0.11642,0.677331 -0.32808,1.312329 -0.21167,0.634998 -0.5715,1.142997 -0.0741,-0.09525 -0.22225,-0.211666 -0.13759,-0.116417 -0.29633,-0.22225 -0.14817,-0.105833 -0.254,-0.158749 0.42333,-0.624415 0.62441,-1.396996 0.20108,-0.772581 0.24342,-1.566328 0.0529,-0.793748 0.0529,-1.492245 z m -2.03199,5.852565 0.66675,-0.359832 q 0.26458,0.380999 0.508,0.836081 0.24341,0.444498 0.37041,0.772581 l -0.68791,0.412748 q -0.127,-0.328082 -0.381,-0.804331 -0.24342,-0.476248 -0.47625,-0.857247 z m -2.53999,-0.264582 0.78316,0.222249 q -0.1905,0.571498 -0.49741,1.164163 -0.29634,0.582081 -0.59267,0.99483 -0.11641,-0.105833 -0.32808,-0.243416 -0.20108,-0.148166 -0.34925,-0.222249 0.29633,-0.380999 0.55033,-0.888997 0.26458,-0.518582 0.43392,-1.02658 z m 1.19591,-2.677575 h 0.97366 v 5.841981 h -0.97366 z"
           style="font-weight:500;font-family:'Noto Sans TC';-inkscape-font-specification:'Noto Sans TC Medium';fill:#ffffff"
           id="path16842" />
        <path
           d="m 116.81256,16.78022 h 3.12208 v 1.005414 h -3.12208 z m 5.23874,-2.412992 h 1.04774 v 7.630559 q 0,0.412749 0.0741,0.529165 0.0847,0.116416 0.35983,0.116416 0.0741,0 0.22225,0 0.15875,0 0.33866,0 0.17992,0 0.33867,0 0.15875,0 0.23283,0 0.22225,0 0.32808,-0.201082 0.11642,-0.211666 0.15875,-0.751415 0.0529,-0.550331 0.0847,-1.534578 0.127,0.09525 0.29633,0.201083 0.16933,0.09525 0.34925,0.169332 0.17992,0.07408 0.3175,0.105833 -0.0529,1.100664 -0.17992,1.756828 -0.127,0.645581 -0.42333,0.931331 -0.28575,0.296332 -0.83608,0.296332 -0.0847,0 -0.27516,0 -0.1905,0 -0.41275,0 -0.22225,0 -0.41275,0 -0.17992,0 -0.26458,0 -0.508,0 -0.80434,-0.148166 -0.29633,-0.137583 -0.42333,-0.497415 -0.11641,-0.359832 -0.11641,-0.984247 z m -2.65641,-0.01058 h 1.03716 v 7.863391 h -1.03716 z m -2.93158,8.508973 q 0.5715,-0.1905 1.34408,-0.465665 0.77258,-0.275166 1.62983,-0.592665 0.86783,-0.317499 1.7145,-0.634998 l 0.16933,0.888997 q -0.75142,0.328082 -1.53458,0.656164 -0.78316,0.317499 -1.51341,0.613832 -0.73025,0.296332 -1.35466,0.539748 z m 6.13832,-6.095981 h 3.38665 v 1.005414 h -3.38665 z"
           style="font-weight:500;font-family:'Noto Sans TC';-inkscape-font-specification:'Noto Sans TC Medium';fill:#ffffff"
           id="path16844" />
        <path
           d="m 127.35351,15.224475 h 9.33447 v 0.857248 h -9.33447 z m 2.51882,2.074327 v 0.793748 h 4.38149 v -0.793748 z m -0.99483,-0.698498 h 6.42407 v 2.190743 h -6.42407 z m -1.17474,2.709325 h 8.38197 v 0.825497 h -7.40831 v 3.862905 h -0.97366 z m 7.68347,0 h 1.00542 v 3.704155 q 0,0.349249 -0.0952,0.518582 -0.0952,0.169332 -0.35983,0.264582 -0.24342,0.08467 -0.62442,0.105833 -0.37041,0.02117 -0.91016,0.01058 -0.0318,-0.169332 -0.127,-0.380998 -0.0952,-0.201083 -0.17992,-0.359833 0.22225,0.01058 0.45508,0.01058 0.23284,0.01058 0.40217,0 0.17991,0 0.24341,0 0.1905,0 0.1905,-0.169333 z m -4.08515,-4.952984 1.00541,-0.232833 q 0.14817,0.328082 0.29634,0.740831 0.14816,0.402166 0.22225,0.666748 l -1.05833,0.296332 q -0.0635,-0.285749 -0.20109,-0.698497 -0.13758,-0.412749 -0.26458,-0.772581 z m -1.06891,6.307646 h 4.02165 v 2.254243 h -4.02165 v -0.709081 h 3.13265 v -0.836081 h -3.13265 z m -0.53975,0 h 0.94191 v 2.751658 h -0.94191 z"
           style="font-weight:500;font-family:'Noto Sans TC';-inkscape-font-specification:'Noto Sans TC Medium';fill:#ffffff"
           id="path16846" />
        <path
           d="m 138.41304,15.330308 h 8.45605 v 1.037164 h -8.45605 z m -0.56092,6.889728 h 9.57789 v 1.005414 h -9.57789 z m 4.18041,-6.339396 h 1.12183 v 6.741562 h -1.12183 z"
           style="font-weight:500;font-family:'Noto Sans TC';-inkscape-font-specification:'Noto Sans TC Medium';fill:#ffffff"
           id="path16848" />
      </g>
      <g
         aria-label="NEW TAIPEI I. V. HIGH SCHOOL"
         id="text4497"
         style="font-size:3.66525px;line-height:1.25;stroke-width:0.0916314">
        <path
           d="m 106.39836,25.871027 v 1.91326 h -0.46548 v -2.649976 h 0.48015 l 1.30116,1.957244 v -1.957244 h 0.46549 v 2.649976 h -0.50947 z"
           style="font-family:'AR UDJingXiHeiE1G30 EB';-inkscape-font-specification:'AR UDJingXiHeiE1G30 EB';fill:#ffffff"
           id="path16851" />
        <path
           d="m 110.74901,27.784287 h -1.9609 v -2.649976 h 1.94991 v 0.36286 h -1.48443 v 0.747711 h 1.38547 v 0.36286 h -1.38547 v 0.813685 h 1.49542 z"
           style="font-family:'AR UDJingXiHeiE1G30 EB';-inkscape-font-specification:'AR UDJingXiHeiE1G30 EB';fill:#ffffff"
           id="path16853" />
        <path
           d="m 112.65127,25.750073 -0.53512,2.034214 H 111.636 l -0.68174,-2.649976 h 0.49481 l 0.4435,2.008557 0.5168,-2.008557 h 0.49114 l 0.50947,2.008557 0.46915,-2.008557 h 0.48015 l -0.70006,2.649976 h -0.48015 z"
           style="font-family:'AR UDJingXiHeiE1G30 EB';-inkscape-font-specification:'AR UDJingXiHeiE1G30 EB';fill:#ffffff"
           id="path16855" />
        <path
           d="m 116.2029,25.497171 h -0.82468 v -0.36286 h 2.11118 v 0.36286 h -0.82102 v 2.287116 h -0.46548 z"
           style="font-family:'AR UDJingXiHeiE1G30 EB';-inkscape-font-specification:'AR UDJingXiHeiE1G30 EB';fill:#ffffff"
           id="path16857" />
        <path
           d="m 119.25238,26.714034 -0.41783,-1.132562 -0.42517,1.132562 z m -0.97862,0.36286 -0.2639,0.707393 h -0.47281 l 1.06659,-2.649976 h 0.47648 l 1.05925,2.649976 h -0.48381 L 119.388,27.076894 Z"
           style="font-family:'AR UDJingXiHeiE1G30 EB';-inkscape-font-specification:'AR UDJingXiHeiE1G30 EB';fill:#ffffff"
           id="path16859" />
        <path
           d="m 120.90907,25.134311 v 2.649976 h -0.46548 v -2.649976 z"
           style="font-family:'AR UDJingXiHeiE1G30 EB';-inkscape-font-specification:'AR UDJingXiHeiE1G30 EB';fill:#ffffff"
           id="path16861" />
        <path
           d="m 121.98299,26.73236 v 1.051927 h -0.46549 v -2.649976 h 1.24619 q 0.38851,0 0.60843,0.212585 0.21991,0.212584 0.21991,0.564448 0,0.395847 -0.22724,0.608432 -0.22358,0.212584 -0.60477,0.212584 z m 1.13623,-0.813685 q 0,-0.205254 -0.11729,-0.311546 -0.11729,-0.109958 -0.34453,-0.109958 h -0.67441 v 0.87233 h 0.67441 q 0.22724,0 0.34453,-0.109958 0.11729,-0.113623 0.11729,-0.340868 z"
           style="font-family:'AR UDJingXiHeiE1G30 EB';-inkscape-font-specification:'AR UDJingXiHeiE1G30 EB';fill:#ffffff"
           id="path16863" />
        <path
           d="m 126.0001,27.784287 h -1.96091 v -2.649976 h 1.94992 v 0.36286 h -1.48443 v 0.747711 h 1.38546 v 0.36286 h -1.38546 v 0.813685 h 1.49542 z"
           style="font-family:'AR UDJingXiHeiE1G30 EB';-inkscape-font-specification:'AR UDJingXiHeiE1G30 EB';fill:#ffffff"
           id="path16865" />
        <path
           d="m 126.95673,25.134311 v 2.649976 h -0.46549 v -2.649976 z"
           style="font-family:'AR UDJingXiHeiE1G30 EB';-inkscape-font-specification:'AR UDJingXiHeiE1G30 EB';fill:#ffffff"
           id="path16867" />
        <path
           d="m 128.99094,25.134311 v 2.649976 h -0.46549 v -2.649976 z"
           style="font-family:'AR UDJingXiHeiE1G30 EB';-inkscape-font-specification:'AR UDJingXiHeiE1G30 EB';fill:#ffffff"
           id="path16869" />
        <path
           d="m 130.14182,27.245495 v 0.538792 h -0.55345 v -0.538792 z"
           style="font-family:'AR UDJingXiHeiE1G30 EB';-inkscape-font-specification:'AR UDJingXiHeiE1G30 EB';fill:#ffffff"
           id="path16871" />
        <path
           d="m 133.81439,25.134311 -0.94197,2.649976 h -0.53879 l -0.93464,-2.649976 h 0.49848 l 0.70739,2.180824 0.71839,-2.180824 z"
           style="font-family:'AR UDJingXiHeiE1G30 EB';-inkscape-font-specification:'AR UDJingXiHeiE1G30 EB';fill:#ffffff"
           id="path16873" />
        <path
           d="m 134.66106,27.245495 v 0.538792 h -0.55345 v -0.538792 z"
           style="font-family:'AR UDJingXiHeiE1G30 EB';-inkscape-font-specification:'AR UDJingXiHeiE1G30 EB';fill:#ffffff"
           id="path16875" />
        <path
           d="m 136.68793,26.607742 v 1.176545 h -0.46548 v -2.649976 h 0.46548 v 1.110571 h 1.27185 v -1.110571 h 0.46548 v 2.649976 h -0.46548 v -1.176545 z"
           style="font-family:'AR UDJingXiHeiE1G30 EB';-inkscape-font-specification:'AR UDJingXiHeiE1G30 EB';fill:#ffffff"
           id="path16877" />
        <path
           d="m 139.49918,25.134311 v 2.649976 h -0.46549 v -2.649976 z"
           style="font-family:'AR UDJingXiHeiE1G30 EB';-inkscape-font-specification:'AR UDJingXiHeiE1G30 EB';fill:#ffffff"
           id="path16879" />
        <path
           d="m 142.05385,27.461745 q -0.13561,0.190593 -0.34086,0.282224 -0.20159,0.08797 -0.46183,0.08797 -0.57177,0 -0.90898,-0.359194 -0.3372,-0.36286 -0.3372,-1.011609 0,-0.652415 0.35553,-1.011609 0.35553,-0.359195 0.96029,-0.359195 0.48748,0 0.7917,0.223581 0.30788,0.219915 0.37019,0.630423 h -0.46549 q -0.0367,-0.21625 -0.21625,-0.351864 -0.17593,-0.13928 -0.48015,-0.13928 -0.40684,0 -0.61942,0.263898 -0.21259,0.260233 -0.21259,0.744046 0,0.5168 0.22358,0.762372 0.22358,0.241906 0.60843,0.241906 0.33721,0 0.53513,-0.197923 0.19792,-0.197924 0.19792,-0.454491 v -0.05498 h -0.75137 v -0.36286 h 1.19853 v 1.38913 h -0.44716 z"
           style="font-family:'AR UDJingXiHeiE1G30 EB';-inkscape-font-specification:'AR UDJingXiHeiE1G30 EB';fill:#ffffff"
           id="path16881" />
        <path
           d="m 143.51628,26.607742 v 1.176545 h -0.46548 v -2.649976 h 0.46548 v 1.110571 h 1.27185 v -1.110571 h 0.46548 v 2.649976 h -0.46548 v -1.176545 z"
           style="font-family:'AR UDJingXiHeiE1G30 EB';-inkscape-font-specification:'AR UDJingXiHeiE1G30 EB';fill:#ffffff"
           id="path16883" />
        <path
           d="m 147.70199,26.58575 q -0.48381,-0.08797 -0.71839,-0.271228 -0.23457,-0.183263 -0.23457,-0.513135 0,-0.307881 0.24923,-0.50947 0.25291,-0.201589 0.77704,-0.201589 0.48014,0 0.74404,0.205254 0.2639,0.205254 0.28956,0.593771 h -0.46549 q -0.004,-0.186928 -0.14661,-0.311546 -0.14294,-0.124619 -0.43616,-0.124619 -0.2749,0 -0.40685,0.09163 -0.13195,0.09163 -0.12828,0.256568 0,0.179597 0.17593,0.267563 0.1796,0.08797 0.58278,0.168602 0.5058,0.102627 0.71839,0.278559 0.21624,0.175932 0.21624,0.527796 0,0.337203 -0.28588,0.564448 -0.28589,0.22358 -0.81369,0.22358 -0.53879,0 -0.83934,-0.227245 -0.30055,-0.227246 -0.30055,-0.65608 h 0.46548 q 0,0.238241 0.1796,0.381186 0.1796,0.13928 0.49848,0.13928 0.29322,0 0.45815,-0.113623 0.16494,-0.113623 0.16494,-0.296885 0,-0.212585 -0.16494,-0.304216 -0.16493,-0.09163 -0.57911,-0.168602 z"
           style="font-family:'AR UDJingXiHeiE1G30 EB';-inkscape-font-specification:'AR UDJingXiHeiE1G30 EB';fill:#ffffff"
           id="path16885" />
        <path
           d="m 151.23896,26.860644 h 0.46549 q -0.0183,0.436165 -0.30422,0.703728 -0.28589,0.267563 -0.82835,0.267563 -0.64142,0 -0.98228,-0.362859 -0.33721,-0.36286 -0.33721,-1.007944 0,-0.637754 0.33721,-1.004279 0.34086,-0.366525 0.97495,-0.366525 0.50947,0 0.7917,0.234576 0.28222,0.230911 0.32254,0.601101 h -0.46549 q -0.0293,-0.212584 -0.19426,-0.340868 -0.16493,-0.131949 -0.46548,-0.131949 -0.37019,0 -0.59377,0.249237 -0.22358,0.249237 -0.22358,0.758707 0,0.5168 0.22358,0.762372 0.22724,0.245572 0.6011,0.245572 0.31887,0 0.49114,-0.164937 0.17227,-0.168601 0.18693,-0.443495 z"
           style="font-family:'AR UDJingXiHeiE1G30 EB';-inkscape-font-specification:'AR UDJingXiHeiE1G30 EB';fill:#ffffff"
           id="path16887" />
        <path
           d="m 152.62442,26.607742 v 1.176545 h -0.46549 v -2.649976 h 0.46549 v 1.110571 h 1.27184 v -1.110571 h 0.46549 v 2.649976 h -0.46549 v -1.176545 z"
           style="font-family:'AR UDJingXiHeiE1G30 EB';-inkscape-font-specification:'AR UDJingXiHeiE1G30 EB';fill:#ffffff"
           id="path16889" />
        <path
           d="m 157.51752,26.472128 q 0,0.637753 -0.35553,1.000613 -0.35186,0.359194 -0.96396,0.359194 -0.62309,0 -0.97495,-0.362859 -0.35187,-0.36286 -0.35187,-0.996948 0,-0.645084 0.35553,-1.011609 0.35553,-0.370191 0.97129,-0.370191 0.6231,0 0.97129,0.366525 0.3482,0.366525 0.3482,1.015275 z m -1.31949,0.996948 q 0.39952,0 0.61576,-0.263898 0.21992,-0.263898 0.21992,-0.73305 0,-0.465487 -0.21992,-0.740381 -0.21991,-0.278559 -0.61576,-0.278559 -0.40317,0 -0.62675,0.282224 -0.21992,0.278559 -0.21992,0.736716 0,0.469152 0.22358,0.73305 0.22358,0.263898 0.62309,0.263898 z"
           style="font-family:'AR UDJingXiHeiE1G30 EB';-inkscape-font-specification:'AR UDJingXiHeiE1G30 EB';fill:#ffffff"
           id="path16891" />
        <path
           d="m 160.57067,26.472128 q 0,0.637753 -0.35553,1.000613 -0.35186,0.359194 -0.96396,0.359194 -0.62309,0 -0.97496,-0.362859 -0.35186,-0.36286 -0.35186,-0.996948 0,-0.645084 0.35553,-1.011609 0.35553,-0.370191 0.97129,-0.370191 0.62309,0 0.97129,0.366525 0.3482,0.366525 0.3482,1.015275 z m -1.31949,0.996948 q 0.39951,0 0.61576,-0.263898 0.21992,-0.263898 0.21992,-0.73305 0,-0.465487 -0.21992,-0.740381 -0.21991,-0.278559 -0.61576,-0.278559 -0.40318,0 -0.62676,0.282224 -0.21991,0.278559 -0.21991,0.736716 0,0.469152 0.22358,0.73305 0.22358,0.263898 0.62309,0.263898 z"
           style="font-family:'AR UDJingXiHeiE1G30 EB';-inkscape-font-specification:'AR UDJingXiHeiE1G30 EB';fill:#ffffff"
           id="path16893" />
        <path
           d="m 162.93841,27.784287 h -1.86194 v -2.649976 h 0.46548 v 2.287116 h 1.39646 z"
           style="font-family:'AR UDJingXiHeiE1G30 EB';-inkscape-font-specification:'AR UDJingXiHeiE1G30 EB';fill:#ffffff"
           id="path16895" />
      </g>
      <text
         xml:space="preserve"
         transform="matrix(0.31615295,0,0,0.31615295,-10.474341,-6.4462013)"
         id="text6"
         style="font-size:55px;line-height:1.25;font-family:'Microsoft JhengHei';-inkscape-font-specification:'Microsoft JhengHei';white-space:pre;shape-inside:url(#rect6);display:inline" />
      <g
         aria-label="新北工業高校"
         id="text11011"
         style="font-size:3.3534px;line-height:1.25;stroke-width:0.0838352">
        <path
           d="m 107.66669,30.630396 h 1.25082 v 0.295099 h -1.25082 z m -1.78736,-0.777989 h 1.49226 v 0.261565 h -1.49226 z m -0.0369,1.3313 h 1.53586 v 0.271625 h -1.53586 z m -0.0101,-0.573432 h 1.5761 v 0.264919 h -1.5761 z m 2.42115,0.14755 h 0.30852 v 1.847723 h -0.30852 z m -1.78065,-1.227345 h 0.30851 v 0.446003 h -0.30851 z m 0,1.314533 h 0.30851 v 1.773949 h -0.30851 z m 1.04626,-1.066381 0.37893,0.110662 q -0.007,0.04024 -0.0771,0.05365 v 1.012726 q 0,0.191144 -0.0201,0.409115 -0.0168,0.214618 -0.0704,0.442649 -0.0537,0.224678 -0.16096,0.439295 -0.10395,0.211265 -0.27498,0.388995 -0.0201,-0.03689 -0.0604,-0.08048 -0.0402,-0.04359 -0.0872,-0.08384 -0.0436,-0.03689 -0.0805,-0.05365 0.15426,-0.15761 0.2448,-0.338694 0.0905,-0.181083 0.13413,-0.37558 0.047,-0.194498 0.0604,-0.382288 0.0134,-0.191144 0.0134,-0.368874 z m 1.10997,-0.231385 0.25486,0.231385 q -0.16096,0.07377 -0.36552,0.137489 -0.2012,0.06036 -0.41247,0.110663 -0.21126,0.04695 -0.40911,0.08384 -0.0101,-0.0503 -0.0402,-0.120723 -0.0302,-0.07378 -0.0604,-0.120722 0.18779,-0.04024 0.37893,-0.09054 0.1945,-0.05365 0.36552,-0.110662 0.17103,-0.06036 0.28839,-0.120723 z m -1.87119,1.951679 q 0.0369,0.02347 0.11066,0.08384 0.0771,0.05701 0.16096,0.124076 0.0872,0.06707 0.15761,0.127429 0.0738,0.05701 0.10396,0.08384 l -0.18444,0.231385 q -0.0402,-0.04695 -0.10731,-0.117369 -0.0671,-0.07042 -0.14755,-0.144196 -0.0771,-0.07713 -0.1509,-0.140843 -0.0704,-0.06707 -0.11737,-0.107309 z m -0.69416,-1.327946 0.24816,-0.05701 q 0.0503,0.103955 0.0872,0.228031 0.0369,0.124076 0.0469,0.211264 l -0.26156,0.07377 q -0.007,-0.09389 -0.0402,-0.221324 -0.0335,-0.127429 -0.0805,-0.234738 z m 0.85177,-0.06371 0.28168,0.06036 q -0.0469,0.120723 -0.0939,0.241445 -0.0469,0.117369 -0.0872,0.204558 l -0.25486,-0.05701 q 0.0268,-0.06371 0.0537,-0.140843 0.0302,-0.08048 0.057,-0.160963 0.0268,-0.08048 0.0436,-0.14755 z m -0.4393,1.227345 0.22468,0.08383 q -0.0805,0.184437 -0.2012,0.368874 -0.12073,0.184437 -0.25822,0.342046 -0.13749,0.15761 -0.27162,0.264919 -0.0335,-0.05365 -0.0973,-0.120722 -0.0604,-0.06707 -0.11066,-0.107309 0.13413,-0.08719 0.26827,-0.221325 0.13749,-0.134136 0.2515,-0.291745 0.11737,-0.160964 0.1945,-0.318573 z"
           style="font-weight:500;font-family:'Noto Sans JP';-inkscape-font-specification:'Noto Sans JP Medium';fill:#ffffff"
           id="path16898" />
        <path
           d="m 109.24278,30.335296 h 0.98925 v 0.318573 h -0.98925 z m 1.65993,-0.764575 h 0.33199 v 2.458042 q 0,0.134136 0.0268,0.174377 0.0302,0.03689 0.13078,0.03689 0.0235,0 0.0805,0 0.0604,0 0.13078,0 0.0704,0 0.13079,0 0.0604,0 0.0872,0 0.0738,0 0.11066,-0.05701 0.0369,-0.06036 0.0537,-0.211264 0.0168,-0.150903 0.0268,-0.422529 0.0402,0.03018 0.0939,0.06036 0.0537,0.03018 0.11067,0.05366 0.057,0.02012 0.1006,0.03018 -0.0168,0.311867 -0.0604,0.50301 -0.0402,0.187791 -0.13414,0.271626 -0.0939,0.08384 -0.27162,0.08384 -0.0268,0 -0.0973,0 -0.0704,0 -0.15426,0 -0.0838,0 -0.15426,0 -0.0671,0 -0.0939,0 -0.17438,0 -0.27163,-0.04695 -0.0972,-0.04695 -0.13749,-0.164316 -0.0402,-0.114016 -0.0402,-0.318573 z m -0.82829,-0.0034 h 0.32864 v 3.024767 h -0.32864 z m 1.92821,0.509717 0.23138,0.281685 q -0.16096,0.120723 -0.3521,0.238092 -0.19115,0.117369 -0.39235,0.231384 -0.19785,0.114016 -0.389,0.214618 -0.0168,-0.05366 -0.057,-0.127429 -0.0369,-0.07377 -0.0704,-0.120723 0.18443,-0.100602 0.37222,-0.221324 0.18779,-0.124076 0.35882,-0.251505 0.17102,-0.130783 0.29845,-0.244798 z m -2.87051,1.800775 q 0.13749,-0.04359 0.31522,-0.107308 0.17773,-0.06371 0.37558,-0.13749 0.2012,-0.07377 0.40241,-0.150903 l 0.0604,0.288393 q -0.25821,0.114015 -0.52649,0.228031 -0.26491,0.110662 -0.48289,0.201204 z"
           style="font-weight:500;font-family:'Noto Sans JP';-inkscape-font-specification:'Noto Sans JP Medium';fill:#ffffff"
           id="path16900" />
        <path
           d="m 112.73366,29.875881 h 2.67937 v 0.328633 h -2.67937 z m -0.17773,2.183063 h 3.03483 v 0.318573 h -3.03483 z m 1.3246,-2.008687 h 0.35546 v 2.136116 h -0.35546 z"
           style="font-weight:500;font-family:'Noto Sans JP';-inkscape-font-specification:'Noto Sans JP Medium';fill:#ffffff"
           id="path16902" />
        <path
           d="m 115.94621,31.572701 h 2.96106 v 0.264919 h -2.96106 z m 0.0134,-1.485556 h 2.93758 v 0.264918 h -2.93758 z m 0.13413,0.583491 h 2.67937 v 0.254859 h -2.67937 z m 0.16767,0.459416 h 2.35074 v 0.234738 h -2.35074 z m 0.99932,-0.33534 h 0.31186 v 1.827603 h -0.31186 z m -0.30181,-1.287705 h 0.29845 v 0.704214 h -0.29845 z m 0.63044,0 h 0.30181 v 0.687447 h -0.30181 z m -0.40911,2.176356 0.25485,0.117369 q -0.15761,0.171024 -0.38228,0.321927 -0.22468,0.150903 -0.48289,0.264918 -0.25822,0.117369 -0.50972,0.187791 -0.0235,-0.04359 -0.0604,-0.0939 -0.0335,-0.04695 -0.0738,-0.09389 -0.0369,-0.04695 -0.0738,-0.08048 0.2515,-0.05365 0.50301,-0.14755 0.2515,-0.09389 0.46948,-0.214618 0.21797,-0.124075 0.35546,-0.261565 z m 0.47282,-0.0067 q 0.10731,0.103956 0.25486,0.201204 0.15091,0.09725 0.32864,0.181084 0.17773,0.08048 0.36887,0.140843 0.1945,0.06036 0.38899,0.09725 -0.0335,0.03353 -0.0771,0.08384 -0.0402,0.0503 -0.0771,0.103956 -0.0335,0.05365 -0.057,0.09725 -0.19785,-0.05365 -0.39235,-0.134136 -0.19449,-0.07713 -0.37558,-0.181083 -0.17773,-0.103956 -0.33534,-0.224678 -0.15425,-0.124076 -0.27162,-0.264919 z m 0.71093,-2.132762 0.32863,0.08383 q -0.0771,0.134136 -0.16096,0.268272 -0.0805,0.134136 -0.14755,0.231385 l -0.25822,-0.08048 q 0.0436,-0.07042 0.0872,-0.15761 0.0436,-0.09054 0.0838,-0.181083 0.0402,-0.09054 0.0671,-0.164317 z m -0.44601,0.710921 0.33199,0.08048 q -0.0637,0.117369 -0.12743,0.228032 -0.0637,0.107308 -0.12072,0.184437 l -0.26492,-0.07713 q 0.0469,-0.09054 0.0973,-0.20791 0.0536,-0.117369 0.0838,-0.207911 z m -1.70352,-0.627086 0.27162,-0.09389 q 0.0838,0.110662 0.16096,0.248151 0.0771,0.13749 0.11402,0.241445 l -0.28839,0.103956 q -0.0302,-0.100602 -0.10396,-0.241445 -0.0738,-0.140843 -0.15425,-0.258212 z m 0.43258,0.737748 0.30516,-0.05365 q 0.0537,0.07713 0.10061,0.174376 0.0469,0.09725 0.0671,0.16767 l -0.31857,0.06036 q -0.0168,-0.07042 -0.0604,-0.16767 -0.0436,-0.100602 -0.0939,-0.181084 z"
           style="font-weight:500;font-family:'Noto Sans JP';-inkscape-font-specification:'Noto Sans JP Medium';fill:#ffffff"
           id="path16904" />
        <path
           d="m 119.30967,29.812166 h 2.92752 v 0.271625 h -2.92752 z m 1.28435,-0.305159 h 0.32528 v 0.439295 h -0.32528 z m -1.14016,1.633105 h 2.47481 v 0.268272 h -2.16629 v 1.217285 h -0.30852 z m 2.35074,0 h 0.31522 v 1.126743 q 0,0.120722 -0.0302,0.191144 -0.0302,0.07042 -0.11737,0.107308 -0.0872,0.03689 -0.22468,0.0436 -0.13749,0.01006 -0.33534,0.01006 -0.0101,-0.06707 -0.0402,-0.154257 -0.0302,-0.08384 -0.0604,-0.144196 0.14419,0.0034 0.26156,0.0034 0.12073,0 0.16097,-0.0034 0.0402,0 0.0537,-0.01341 0.0168,-0.01341 0.0168,-0.0436 z m -1.67,0.456063 h 0.27498 v 0.892004 h -0.27498 z m 0.1442,0 h 1.1368 v 0.731041 h -1.1368 v -0.221324 h 0.85512 v -0.288393 h -0.85512 z m -0.11066,-1.130096 v 0.271625 h 1.20052 v -0.271625 z m -0.30516,-0.217971 h 1.82425 v 0.714274 h -1.82425 z"
           style="font-weight:500;font-family:'Noto Sans JP';-inkscape-font-specification:'Noto Sans JP Medium';fill:#ffffff"
           id="path16906" />
        <path
           d="m 123.79986,29.99325 h 1.85108 v 0.291745 h -1.85108 z m 0.76123,-0.48289 h 0.31186 v 0.617026 h -0.31186 z m -0.34205,0.845057 0.28839,0.117369 q -0.10731,0.211264 -0.26156,0.415821 -0.15091,0.201204 -0.31858,0.345401 -0.0369,-0.04359 -0.10395,-0.100602 -0.0637,-0.06036 -0.11402,-0.09725 0.15426,-0.127429 0.29175,-0.31522 0.13749,-0.18779 0.21797,-0.365519 z m 0.69751,0.127429 0.24815,-0.137489 q 0.10395,0.107308 0.21126,0.234738 0.10731,0.124075 0.1945,0.248151 0.0905,0.124076 0.14084,0.228031 l -0.26827,0.154257 q -0.0469,-0.103956 -0.13078,-0.228031 -0.0838,-0.12743 -0.18779,-0.258212 -0.10396,-0.130783 -0.20791,-0.241445 z m -0.52649,0.49295 q 0.11402,0.311866 0.30181,0.583491 0.19114,0.268272 0.44935,0.47283 0.25822,0.204557 0.57679,0.318573 -0.0369,0.03018 -0.0805,0.08048 -0.0402,0.0503 -0.0805,0.103956 -0.0369,0.05365 -0.0637,0.09725 -0.32863,-0.140842 -0.59355,-0.372227 -0.26157,-0.231385 -0.45942,-0.536544 -0.19449,-0.308513 -0.32528,-0.67068 z m 0.5902,-0.02012 0.32193,0.06372 q -0.11402,0.362167 -0.30852,0.674033 -0.19449,0.311867 -0.48288,0.549958 -0.2884,0.238091 -0.69081,0.388994 -0.0168,-0.03689 -0.0469,-0.08384 -0.0268,-0.04359 -0.0604,-0.09054 -0.0302,-0.0436 -0.057,-0.07713 0.36887,-0.130782 0.63379,-0.342046 0.26827,-0.214618 0.4393,-0.489597 0.17102,-0.278332 0.2515,-0.593552 z m -2.36415,-0.737748 h 1.15022 v 0.2951 h -1.15022 z m 0.46277,-0.707567 h 0.2951 v 3.108602 h -0.2951 z m -0.007,0.902065 0.19114,0.06371 q -0.0402,0.201204 -0.1006,0.419175 -0.057,0.214618 -0.13078,0.422529 -0.0738,0.204557 -0.15761,0.385641 -0.0838,0.17773 -0.17773,0.305159 -0.0235,-0.06371 -0.0704,-0.144196 -0.0436,-0.08383 -0.0838,-0.140843 0.0872,-0.110662 0.16432,-0.261565 0.0805,-0.154257 0.1509,-0.331987 0.0704,-0.17773 0.12407,-0.358814 0.057,-0.184437 0.0906,-0.358813 z m 0.28839,0.298452 q 0.0302,0.03689 0.0905,0.124076 0.0637,0.08719 0.13749,0.194497 0.0738,0.103956 0.13414,0.194497 0.0604,0.08719 0.0838,0.12743 l -0.17773,0.238091 q -0.0302,-0.07042 -0.0838,-0.171023 -0.0537,-0.100602 -0.11737,-0.211265 -0.0604,-0.110662 -0.11737,-0.204557 -0.057,-0.09725 -0.0939,-0.154256 z"
           style="font-weight:500;font-family:'Noto Sans JP';-inkscape-font-specification:'Noto Sans JP Medium';fill:#ffffff"
           id="path16908" />
      </g>
      <g
         aria-label="신베이공업고등학교"
         id="text11011-0"
         style="font-size:3.3534px;line-height:1.25;stroke-width:0.0838352">
        <path
           d="m 130.84253,29.68016 h 0.35211 v 2.240071 h -0.35211 z m -1.64652,2.716254 h 2.08582 v 0.285039 h -2.08582 z m 0,-0.684094 h 0.34876 v 0.824936 h -0.34876 z m 0.23474,-1.86449 h 0.29175 v 0.305159 q 0,0.301806 -0.1006,0.570078 -0.10061,0.264919 -0.29175,0.466123 -0.19114,0.201204 -0.46612,0.305159 l -0.18109,-0.278332 q 0.24145,-0.09054 0.40912,-0.254859 0.16767,-0.16767 0.2515,-0.37558 0.0872,-0.211265 0.0872,-0.432589 z m 0.0704,0 h 0.28504 v 0.305159 q 0,0.164317 0.0469,0.318573 0.0503,0.150903 0.1442,0.285039 0.0973,0.134136 0.23473,0.238091 0.13749,0.103956 0.31522,0.164317 l -0.18108,0.281686 q -0.26827,-0.100602 -0.45942,-0.288393 -0.19114,-0.191144 -0.28839,-0.446002 -0.0973,-0.258212 -0.0973,-0.553311 z"
           style="font-weight:500;font-family:'Noto Sans KR';-inkscape-font-specification:'Noto Sans KR Medium';fill:#ffffff"
           id="path16911" />
        <path
           d="m 131.85525,29.971905 h 0.33199 v 0.724335 h 0.53319 v -0.724335 h 0.32528 v 2.022101 h -1.19046 z m 0.33199,1.00602 v 0.731042 h 0.53319 v -0.731042 z m 1.84772,-1.301119 h 0.33534 v 3.065008 h -0.33534 z m -1.04626,1.146863 h 0.55331 v 0.285039 h -0.55331 z m 0.43259,-1.086502 h 0.32864 v 2.860451 h -0.32864 z"
           style="font-weight:500;font-family:'Noto Sans KR';-inkscape-font-specification:'Noto Sans KR Medium';fill:#ffffff"
           id="path16913" />
        <path
           d="m 137.00942,29.676806 h 0.35211 v 3.071715 h -0.35211 z m -1.27764,0.224678 q 0.22803,0 0.40576,0.134136 0.18108,0.134136 0.28169,0.375581 0.1006,0.241445 0.1006,0.570078 0,0.331986 -0.1006,0.576785 -0.10061,0.241444 -0.28169,0.37558 -0.17773,0.130783 -0.40576,0.130783 -0.22803,0 -0.40912,-0.130783 -0.17773,-0.134136 -0.28168,-0.37558 -0.1006,-0.244799 -0.1006,-0.576785 0,-0.328633 0.1006,-0.570078 0.10395,-0.241445 0.28168,-0.375581 0.18109,-0.134136 0.40912,-0.134136 z m 0,0.318573 q -0.13414,0 -0.23809,0.09054 -0.1006,0.09054 -0.15761,0.261565 -0.057,0.171023 -0.057,0.409115 0,0.241445 0.057,0.412468 0.057,0.171023 0.15761,0.264919 0.10395,0.09054 0.23809,0.09054 0.13413,0 0.23474,-0.09054 0.1006,-0.0939 0.15761,-0.264919 0.057,-0.171023 0.057,-0.412468 0,-0.238092 -0.057,-0.409115 -0.057,-0.171023 -0.15761,-0.261565 -0.10061,-0.09054 -0.23474,-0.09054 z"
           style="font-weight:500;font-family:'Noto Sans KR';-inkscape-font-specification:'Noto Sans KR Medium';fill:#ffffff"
           id="path16915" />
        <path
           d="m 139.29644,31.601658 q 0.32863,0 0.57007,0.07042 0.24145,0.06707 0.37223,0.194497 0.13414,0.12743 0.13414,0.30516 0,0.17773 -0.13414,0.305159 -0.13078,0.127429 -0.37223,0.194497 -0.24144,0.06707 -0.57007,0.06707 -0.32864,0 -0.57008,-0.06707 -0.24145,-0.06707 -0.37558,-0.194497 -0.13078,-0.127429 -0.13078,-0.305159 0,-0.17773 0.13078,-0.30516 0.13413,-0.127429 0.37558,-0.194497 0.24144,-0.07042 0.57008,-0.07042 z m 0,0.268272 q -0.22468,0 -0.389,0.03353 -0.16096,0.03353 -0.24815,0.103955 -0.0872,0.06707 -0.0872,0.164317 0,0.09389 0.0872,0.160963 0.0872,0.06707 0.24815,0.103955 0.16432,0.03689 0.389,0.03689 0.22803,0 0.38899,-0.03689 0.16096,-0.03689 0.24815,-0.103955 0.0905,-0.06707 0.0905,-0.160963 0,-0.09725 -0.0905,-0.164317 -0.0872,-0.07042 -0.24815,-0.103955 -0.16096,-0.03353 -0.38899,-0.03353 z m -1.04962,-2.045574 h 1.95839 v 0.281685 h -1.95839 z m -0.31857,1.254171 h 2.7632 v 0.281686 h -2.7632 z m 1.0865,-0.563371 h 0.34875 v 0.6405 h -0.34875 z m 0.9859,-0.6908 h 0.34875 v 0.258212 q 0,0.184437 -0.0101,0.382287 -0.0101,0.194497 -0.0738,0.432589 l -0.3454,-0.03689 q 0.0604,-0.238091 0.0704,-0.419175 0.0101,-0.181083 0.0101,-0.358813 z"
           style="font-weight:500;font-family:'Noto Sans KR';-inkscape-font-specification:'Noto Sans KR Medium';fill:#ffffff"
           id="path16917" />
        <path
           d="m 142.55258,30.384374 h 0.79811 v 0.288392 h -0.79811 z m -0.70421,-0.570078 q 0.23138,0 0.41247,0.09054 0.18108,0.09054 0.28168,0.254859 0.10396,0.160963 0.10396,0.372227 0,0.211264 -0.10396,0.375581 -0.1006,0.160963 -0.28168,0.254858 -0.18109,0.09054 -0.41247,0.09054 -0.22803,0 -0.40912,-0.09054 -0.18108,-0.0939 -0.28504,-0.254858 -0.1006,-0.164317 -0.1006,-0.375581 0,-0.211264 0.1006,-0.372227 0.10396,-0.164317 0.28504,-0.254859 0.18109,-0.09054 0.40912,-0.09054 z m 0.003,0.291745 q -0.13413,0 -0.24144,0.05365 -0.10396,0.0503 -0.16432,0.147549 -0.057,0.09725 -0.057,0.224678 0,0.127429 0.057,0.224678 0.0604,0.09725 0.16432,0.150903 0.10395,0.0503 0.23809,0.0503 0.13413,0 0.23809,-0.0503 0.10395,-0.05365 0.16432,-0.150903 0.0604,-0.09725 0.0604,-0.224678 0,-0.127429 -0.0604,-0.224678 -0.0604,-0.09725 -0.16432,-0.147549 -0.1006,-0.05365 -0.23474,-0.05365 z m 1.34471,-0.425881 h 0.35211 v 1.643166 h -0.35211 z m -1.63981,1.790715 h 0.34876 v 0.342047 h 1.29441 v -0.342047 h 0.34875 v 1.234051 h -1.99192 z m 0.34876,0.613672 v 0.338694 h 1.29441 v -0.338694 z"
           style="font-weight:500;font-family:'Noto Sans KR';-inkscape-font-specification:'Noto Sans KR Medium';fill:#ffffff"
           id="path16919" />
        <path
           d="m 144.38353,29.965199 h 1.95839 v 0.285039 h -1.95839 z m -0.28839,2.089168 h 2.76991 v 0.288392 h -2.76991 z m 1.03285,-1.076442 h 0.3521 v 1.217285 h -0.3521 z m 1.0865,-1.012726 h 0.34875 v 0.298452 q 0,0.191144 -0.003,0.402408 -0.003,0.211264 -0.0268,0.466123 -0.0235,0.254858 -0.0838,0.573431 l -0.35211,-0.04024 q 0.0872,-0.449355 0.1006,-0.788049 0.0168,-0.338693 0.0168,-0.613672 z"
           style="font-weight:500;font-family:'Noto Sans KR';-inkscape-font-specification:'Noto Sans KR Medium';fill:#ffffff"
           id="path16921" />
        <path
           d="m 147.18361,31.112061 h 2.76991 v 0.288393 h -2.76991 z m 0.34205,-0.536544 h 2.10594 v 0.281686 h -2.10594 z m 0,-0.791402 h 2.08917 v 0.285039 h -1.74042 v 0.640499 h -0.34875 z m 1.03285,1.841017 q 0.4963,0 0.77463,0.147549 0.28169,0.144196 0.28169,0.412468 0,0.264919 -0.28169,0.409115 -0.27833,0.144196 -0.77463,0.144196 -0.4896,0 -0.77128,-0.144196 -0.28169,-0.144196 -0.28169,-0.409115 0,-0.268272 0.28169,-0.412468 0.28168,-0.147549 0.77128,-0.147549 z m 0,0.271625 q -0.22133,0 -0.37894,0.03353 -0.15761,0.03353 -0.24144,0.09725 -0.0805,0.06036 -0.0805,0.157609 0,0.0939 0.0805,0.15761 0.0838,0.06372 0.24144,0.09725 0.15761,0.03018 0.37894,0.03018 0.22803,0 0.38229,-0.03018 0.15761,-0.03353 0.23809,-0.09725 0.0805,-0.06371 0.0805,-0.15761 0,-0.09725 -0.0805,-0.157609 -0.0805,-0.06372 -0.23809,-0.09725 -0.15426,-0.03353 -0.38229,-0.03353 z"
           style="font-weight:500;font-family:'Noto Sans KR';-inkscape-font-specification:'Noto Sans KR Medium';fill:#ffffff"
           id="path16923" />
        <path
           d="m 150.26874,29.978612 h 1.80748 v 0.278332 h -1.80748 z m 0.90542,0.409115 q 0.21797,0 0.38564,0.07042 0.16767,0.07042 0.26156,0.197851 0.0939,0.124076 0.0939,0.291746 0,0.16767 -0.0939,0.295099 -0.0939,0.124076 -0.26156,0.194497 -0.16767,0.06707 -0.38564,0.06707 -0.22133,0 -0.389,-0.06707 -0.16767,-0.07042 -0.26156,-0.194497 -0.0939,-0.127429 -0.0939,-0.295099 0,-0.16767 0.0939,-0.291746 0.0939,-0.127429 0.26156,-0.197851 0.16767,-0.07042 0.389,-0.07042 z m 0,0.271625 q -0.18444,0 -0.29846,0.07713 -0.11066,0.07377 -0.11066,0.211264 0,0.134136 0.11066,0.211264 0.11402,0.07713 0.29846,0.07713 0.18108,0 0.29174,-0.07713 0.11066,-0.07713 0.11066,-0.211264 0,-0.13749 -0.11066,-0.211264 -0.11066,-0.07713 -0.29174,-0.07713 z m 1.13344,-0.979192 h 0.34876 v 1.918144 h -0.34876 z m 0.25486,0.818229 h 0.52649 v 0.291746 h -0.52649 z m -1.91814,1.247465 h 2.01204 v 0.999313 H 152.3076 V 32.02754 h -1.66328 z m 0.35211,-2.082461 h 0.3521 v 0.472829 h -0.3521 z"
           style="font-weight:500;font-family:'Noto Sans KR';-inkscape-font-specification:'Noto Sans KR Medium';fill:#ffffff"
           id="path16925" />
        <path
           d="m 153.62884,29.965199 h 1.95838 v 0.285039 h -1.95838 z m -0.27833,2.089168 h 2.7699 v 0.288392 h -2.7699 z m 0.63714,-0.992607 h 0.3454 v 1.089855 h -0.3454 z m 1.49226,-1.096561 h 0.34876 v 0.318573 q 0,0.191143 -0.003,0.399054 -0.003,0.207911 -0.0268,0.449356 -0.0201,0.241445 -0.0738,0.539897 l -0.34875,-0.03689 q 0.0771,-0.422529 0.0905,-0.744455 0.0134,-0.32528 0.0134,-0.606965 z m -0.73439,1.096561 h 0.3454 v 1.089855 h -0.3454 z"
           style="font-weight:500;font-family:'Noto Sans KR';-inkscape-font-specification:'Noto Sans KR Medium';fill:#ffffff"
           id="path16927" />
      </g>
    </g>
  </g>
</svg>
