<?xml version="1.0" encoding="UTF-8" standalone="no"?>
<!-- Created with Inkscape (http://www.inkscape.org/) -->

<svg
   width="500"
   height="250"
   viewBox="0 0 132.29166 66.145833"
   version="1.1"
   id="svg1"
   inkscape:version="1.3.2 (091e20e, 2023-11-25, custom)"
   sodipodi:docname="bl04.svg"
   xmlns:inkscape="http://www.inkscape.org/namespaces/inkscape"
   xmlns:sodipodi="http://sodipodi.sourceforge.net/DTD/sodipodi-0.dtd"
   xmlns="http://www.w3.org/2000/svg"
   xmlns:svg="http://www.w3.org/2000/svg">
  <sodipodi:namedview
     id="namedview1"
     pagecolor="#9e652e"
     bordercolor="#ffffff"
     borderopacity="1"
     inkscape:showpageshadow="0"
     inkscape:pageopacity="0"
     inkscape:pagecheckerboard="false"
     inkscape:deskcolor="#d1d1d1"
     inkscape:document-units="mm"
     inkscape:zoom="2.0208096"
     inkscape:cx="212.29115"
     inkscape:cy="106.88785"
     inkscape:window-width="1920"
     inkscape:window-height="1009"
     inkscape:window-x="1912"
     inkscape:window-y="-8"
     inkscape:window-maximized="1"
     inkscape:current-layer="g1" />
  <defs
     id="defs1">
    <rect
       x="560.66638"
       y="34.144731"
       width="279.32397"
       height="128.59143"
       id="rect6" />
    <rect
       x="157.85752"
       y="62.351248"
       width="329.07603"
       height="135.09437"
       id="rect4" />
    <rect
       x="157.85751"
       y="62.35125"
       width="329.07602"
       height="135.09438"
       id="rect4-5" />
  </defs>
  <g
     inkscape:label="Layer 1"
     inkscape:groupmode="layer"
     id="layer1">
    <rect
       style="fill:#005fb9;fill-opacity:1;stroke:none;stroke-width:0.953294;stroke-dasharray:none"
       id="rect5"
       width="132.29167"
       height="66.145836"
       x="-2.5431316e-06"
       y="-1.2715658e-06"
       ry="0" />
    <g
       id="g1"
       transform="translate(23.862138)">
      <g
         id="g2"
         transform="translate(-2.2810025)">
        <path
           id="rect1"
           style="fill-opacity:0;stroke:#ffffff;stroke-width:0.942789"
           d="m 15.913089,14.352791 h 12.425164 c 3.927062,0 7.088559,3.161497 7.088559,7.088559 v 23.263136 c 0,3.927062 -3.161497,7.088559 -7.088559,7.088559 H 15.913089 c -3.927061,0 -7.0885584,-3.161497 -7.0885584,-7.088559 V 21.44135 c 0,-3.927062 3.1614974,-7.088559 7.0885584,-7.088559 z" />
        <path
           style="font-size:12.56px;line-height:1.25;font-family:'AR UDJingXiHeiE1G30 EB';-inkscape-font-specification:'AR UDJingXiHeiE1G30 EB';fill:#ffffff;stroke-width:0.261667"
           d="m 18.527196,30.522264 h -4.7728 v -9.08088 h 4.37088 q 1.29368,0 2.04728,0.628 0.7536,0.628 0.7536,1.67048 0,0.67824 -0.30144,1.1932 -0.28888,0.5024 -0.8792,0.82896 0.76616,0.30144 1.15552,0.82896 0.40192,0.52752 0.40192,1.256 0,1.20576 -0.79128,1.9468 -0.79128,0.72848 -1.98448,0.72848 z m 0.74104,-6.58144 q 0,-0.61544 -0.35168,-0.92944 -0.35168,-0.32656 -1.01736,-0.32656 h -2.54968 v 2.56224 h 2.6376 q 0.5652,0 0.91688,-0.32656 0.36424,-0.33912 0.36424,-0.97968 z m 0.3768,3.8936 q 0,-0.65312 -0.40192,-0.99224 -0.38936,-0.35168 -1.02992,-0.35168 h -2.86368 v 2.78832 h 2.83856 q 0.66568,0 1.05504,-0.36424 0.40192,-0.36424 0.40192,-1.08016 z m 9.633528,2.68784 h -6.38048 v -9.08088 h 1.59512 v 7.83744 h 4.78536 z"
           id="text2"
           aria-label="BL" />
        <path
           style="font-size:14.3917px;line-height:1.25;font-family:'AR UDJingXiHeiE1G30 EB';-inkscape-font-specification:'AR UDJingXiHeiE1G30 EB';fill:#ffffff;stroke-width:0.261667"
           d="m 21.492413,39.692779 q 0,2.720031 -0.877894,4.015284 -0.877893,1.295253 -2.720031,1.295253 -1.784571,0 -2.705639,-1.295253 -0.921069,-1.295253 -0.921069,-4.015284 0,-2.907123 0.877893,-4.173593 0.877894,-1.280861 2.748815,-1.280861 1.827746,0 2.70564,1.280861 0.892285,1.26647 0.892285,4.173593 z m -3.597925,3.885759 q 0.921069,0 1.35282,-0.906677 0.431751,-0.921069 0.431751,-2.979082 0,-2.216322 -0.417359,-3.122999 -0.402968,-0.906677 -1.367212,-0.906677 -0.964244,0 -1.381603,0.921069 -0.417359,0.906677 -0.417359,3.108607 0,2.043622 0.431751,2.96469 0.431751,0.921069 1.367211,0.921069 z m 9.239461,-1.007419 H 22.629347 V 41.30465 l 4.418252,-6.893625 h 1.856529 v 6.720924 h 1.367212 v 1.43917 h -1.367212 v 2.245105 h -1.770179 z m -2.676856,-1.43917 h 2.676856 v -4.23116 z"
           id="text3"
           aria-label="04" />
        <path
           style="font-weight:500;font-size:72px;line-height:1.25;font-family:'Noto Sans TC';-inkscape-font-specification:'Noto Sans TC Medium';white-space:pre;fill:#ffffff"
           d="m 187.52142,94.545406 h 6.408 q -0.504,4.464 -1.08,9.432004 -0.576,4.896 -1.296,9.792 -0.648,4.896 -1.296,9.288 -0.576,4.392 -1.152,7.776 h -6.624 q 0.72,-3.528 1.44,-7.992 0.72,-4.464 1.368,-9.36 0.648,-4.896 1.224,-9.72 0.648,-4.896004 1.008,-9.216004 z m 10.728,7.704004 3.6,-2.376004 q 2.088,1.584004 4.248,3.744004 2.232,2.088 3.384,3.672 l -3.816,2.664 q -1.08,-1.656 -3.24,-3.816 -2.088,-2.232 -4.176,-3.888 z m -1.872,15.048 3.744,-2.376 q 2.232,1.656 4.608,3.96 2.448,2.304 3.816,4.104 l -4.032,2.736 q -1.224,-1.8 -3.6,-4.176 -2.304,-2.376 -4.536,-4.248 z m -7.92,-34.848004 h 37.224 v 6.12 h -37.224 z m 1.872,12.096 h 27.936 v 5.904004 h -27.936 z m -11.88,14.616004 h 49.104 v 6.192 h -49.104 z m 7.416,15.768 h 39.744 v 5.904 h -39.744 z m 3.456,-50.328004 6.552,1.656 q -1.44,4.536 -3.528,8.928 -2.016,4.392 -4.32,8.28 -2.304,3.888 -4.752,6.840004 -0.648,-0.576004 -1.728,-1.296004 -1.08,-0.72 -2.232,-1.368 -1.08,-0.72 -1.872,-1.152 2.52,-2.664 4.752,-6.192 2.232,-3.528 4.032,-7.56 1.8,-4.032 3.096,-8.136 z m 27,19.944 h 6.336 q 0,0 0,0.576 0,0.576 0,1.296 0,0.72 -0.072,1.152 -0.432,10.368004 -0.864,17.568004 -0.432,7.2 -1.008,11.808 -0.576,4.536 -1.296,7.128 -0.648,2.592 -1.584,3.744 -1.152,1.512 -2.448,2.088 -1.296,0.648 -2.952,0.864 -1.584,0.144 -4.032,0.144 -2.448,0 -5.04,-0.144 -0.072,-1.296 -0.576,-2.952 -0.432,-1.584 -1.224,-2.736 2.592,0.216 4.752,0.288 2.232,0 3.24,0 0.936,0 1.512,-0.216 0.648,-0.216 1.152,-0.864 0.72,-0.792 1.296,-3.168 0.648,-2.448 1.152,-6.912 0.504,-4.464 0.864,-11.448 0.432,-6.984 0.792,-16.848004 z m -51.696,-14.256 3.816,-4.608 q 2.16,0.936 4.536,2.232 2.376,1.296 4.536,2.664 2.16,1.296 3.6,2.448 l -4.032,5.184 q -1.296,-1.152 -3.456,-2.592 -2.088,-1.44 -4.536,-2.808 -2.376,-1.44 -4.464,-2.52 z m -3.96,20.808004 3.744,-4.680004 q 2.088,0.936 4.32,2.232 2.304,1.224 4.32,2.520004 2.016,1.296 3.312,2.448 l -3.96,5.184 q -1.224,-1.152 -3.24,-2.52 -1.944,-1.44 -4.248,-2.808 -2.232,-1.368 -4.248,-2.376 z m 2.088,35.496 q 1.44,-2.808 3.168,-6.696 1.728,-3.888 3.528,-8.208 1.8,-4.32 3.24,-8.496 l 5.256,3.744 q -1.296,3.816 -2.88,7.92 -1.584,4.104 -3.24,8.064 -1.584,3.96 -3.168,7.344 z m 99.432,-61.200004 h 7.2 v 56.880004 h -7.2 z m 25.488,14.328 h 7.056 v 51.552004 h -7.056 z m -50.472,0.216 h 6.984 v 39.168004 h 46.944 v 6.912 h -53.928 z"
           id="text4"
           transform="matrix(0.26166763,0,0,0.26166763,-2.1314997,-4.0633201)"
           aria-label="海山" />
        <path
           style="font-size:7.32669px;line-height:1.25;font-family:'AR UDJingXiHeiE1G30 EB';-inkscape-font-specification:'AR UDJingXiHeiE1G30 EB';fill:#ffffff;stroke-width:0.261667"
           d="m 41.322437,38.534551 v 2.351868 h -0.930489 v -5.297197 h 0.930489 v 2.219987 h 2.542362 v -2.219987 h 0.93049 v 5.297197 h -0.93049 v -2.351868 z m 7.509859,0.212474 -0.835242,-2.263947 -0.849897,2.263947 z m -1.956226,0.725343 -0.527522,1.414051 h -0.945143 l 2.132067,-5.297197 h 0.95247 l 2.117413,5.297197 h -0.967123 l -0.534848,-1.414051 z m 5.267884,-3.883146 v 5.297197 h -0.93049 v -5.297197 z m 2.974631,2.901369 q -0.967123,-0.175841 -1.436032,-0.542175 -0.468908,-0.366335 -0.468908,-1.025737 0,-0.615442 0.498215,-1.01841 0.505542,-0.402968 1.553258,-0.402968 0.959797,0 1.487319,0.410295 0.527521,0.410295 0.578808,1.186924 h -0.93049 q -0.0073,-0.373661 -0.293067,-0.622769 -0.285741,-0.249107 -0.871876,-0.249107 -0.549502,0 -0.813263,0.183167 -0.263761,0.183167 -0.256434,0.512868 0,0.359008 0.351681,0.534849 0.359008,0.17584 1.164944,0.337027 1.011083,0.205148 1.436031,0.556829 0.432275,0.351681 0.432275,1.055043 0,0.674056 -0.571482,1.128311 -0.571482,0.446928 -1.626525,0.446928 -1.077024,0 -1.677812,-0.454255 -0.600789,-0.454255 -0.600789,-1.311478 h 0.93049 q 0,0.476235 0.359008,0.761976 0.359007,0.278414 0.996429,0.278414 0.586136,0 0.915837,-0.227127 0.329701,-0.227127 0.329701,-0.593462 0,-0.424948 -0.329701,-0.608115 -0.329701,-0.183167 -1.157617,-0.337028 z m 4.234826,0.04396 v 2.351868 h -0.93049 v -5.297197 h 0.93049 v 2.219987 h 2.542361 v -2.219987 h 0.93049 v 5.297197 h -0.93049 v -2.351868 z m 7.50986,0.212474 -0.835243,-2.263947 -0.849896,2.263947 z m -1.956227,0.725343 -0.527521,1.414051 H 63.43438 l 2.132066,-5.297197 h 0.95247 l 2.117414,5.297197 h -0.967123 l -0.534849,-1.414051 z m 5.267883,-2.410482 v 3.824533 h -0.93049 v -5.297197 h 0.959797 l 2.600975,3.912452 v -3.912452 h 0.930489 v 5.297197 h -1.01841 z"
           id="text5"
           aria-label="HAISHAN" />
        <path
           d="m 42.76819,44.289253 h 3.883146 v 0.622769 H 42.76819 Z m 0.190494,1.201577 h 2.842756 v 0.600789 h -2.842756 z m -1.201577,1.487318 h 5.033436 v 0.630096 h -5.033436 z m 0.835242,1.597219 h 4.13958 v 0.600788 h -4.13958 z m 0.271088,-5.172644 0.681382,0.146534 q -0.212474,0.725343 -0.556828,1.384745 -0.344355,0.652075 -0.73267,1.099003 -0.06594,-0.05861 -0.17584,-0.13188 -0.102574,-0.08059 -0.219801,-0.153861 -0.1099,-0.07327 -0.19782,-0.117227 0.395641,-0.395641 0.703362,-0.989103 0.315048,-0.593462 0.498215,-1.238211 z M 42.68027,45.49083 h 0.637422 q -0.05129,0.490888 -0.117227,1.033064 -0.06594,0.542175 -0.139208,1.091676 -0.07327,0.542175 -0.15386,1.033064 -0.07327,0.490888 -0.139207,0.864549 l -0.659402,-0.05129 q 0.08059,-0.380988 0.161187,-0.864549 0.08059,-0.490888 0.15386,-1.025737 0.07327,-0.542175 0.139207,-1.069697 0.06594,-0.534848 0.117228,-1.011083 z m 1.428704,0.234454 h 0.600789 q -0.02931,0.380988 -0.06594,0.813263 -0.03663,0.424948 -0.08059,0.849896 -0.04396,0.424948 -0.08792,0.813263 -0.04396,0.380987 -0.08792,0.674055 H 43.7866 q 0.04396,-0.307721 0.08792,-0.688709 0.05129,-0.388314 0.09525,-0.813262 0.04396,-0.432275 0.08059,-0.849896 0.03663,-0.424949 0.05861,-0.79861 z m 1.494645,-0.234454 h 0.644749 q 0,0 0,0.06594 0,0.05861 0,0.131881 0,0.06594 -0.0073,0.1099 -0.03663,1.055044 -0.08792,1.787713 -0.04396,0.725342 -0.102574,1.19425 -0.05129,0.468908 -0.124554,0.732669 -0.06594,0.263761 -0.161187,0.380988 -0.1099,0.146534 -0.241781,0.205147 -0.13188,0.06594 -0.300394,0.08059 -0.161187,0.02198 -0.410295,0.02198 -0.249107,0 -0.520195,-0.01465 -0.0073,-0.131881 -0.05861,-0.293068 -0.04396,-0.161187 -0.117227,-0.278414 0.263761,0.01465 0.483561,0.02198 0.219801,0.0073 0.329701,0.0073 0.09525,0 0.153861,-0.02198 0.06594,-0.02198 0.117227,-0.08792 0.07327,-0.08792 0.13188,-0.329701 0.05861,-0.241781 0.102574,-0.696035 0.05129,-0.461582 0.08792,-1.164944 0.04396,-0.710689 0.08059,-1.714446 z m -5.348484,-1.516625 0.395641,-0.498215 q 0.212474,0.09525 0.446928,0.227128 0.241781,0.13188 0.446929,0.271087 0.205147,0.131881 0.337027,0.263761 l -0.417621,0.556829 Q 41.339485,44.662914 41.134338,44.51638 40.936517,44.369847 40.702063,44.223313 40.474936,44.076779 40.255135,43.974205 Z m -0.344354,1.963553 0.388314,-0.512868 q 0.212474,0.08792 0.446928,0.212474 0.241781,0.117227 0.446928,0.256434 0.212474,0.131881 0.344355,0.249108 l -0.410295,0.556828 Q 41.002457,46.57518 40.79731,46.435973 40.59949,46.296766 40.365035,46.164886 40.130581,46.033005 39.910781,45.937758 Z m 0.15386,3.802553 q 0.168514,-0.293068 0.359008,-0.681383 0.197821,-0.395641 0.395641,-0.835242 0.197821,-0.439602 0.359008,-0.86455 l 0.556828,0.388315 q -0.146533,0.388314 -0.329701,0.805936 -0.17584,0.417621 -0.359007,0.820589 -0.175841,0.402968 -0.359008,0.754649 z m 10.184099,-6.15442 h 0.73267 v 5.692838 h -0.73267 z m -2.535034,1.589892 h 0.703362 v 4.945515 h -0.703362 z m 5.172643,-0.01465 h 0.718016 v 4.938189 h -0.718016 z m -4.828289,3.699979 h 5.143337 v 0.710689 H 48.05806 Z"
           id="text5-9"
           style="font-weight:500;font-size:7.32669px;line-height:1.25;font-family:'Noto Sans JP';-inkscape-font-specification:'Noto Sans JP Medium';fill:#ffffff;stroke-width:0.261667"
           aria-label="海山" />
        <path
           style="font-weight:500;font-size:7.32669px;line-height:1.25;font-family:'Noto Sans KR';-inkscape-font-specification:'Noto Sans KR Medium';fill:#ffffff;stroke-width:0.261667"
           d="m 65.551396,43.592173 h 0.769302 v 6.696595 h -0.769302 z m 0.593462,2.688895 h 1.208904 v 0.637422 h -1.208904 z m -5.055416,-1.655832 h 3.927105 v 0.615442 h -3.927105 z m 1.992859,1.091677 q 0.476235,0 0.849896,0.205148 0.373662,0.19782 0.586136,0.549501 0.2198,0.351681 0.2198,0.805936 0,0.461582 -0.2198,0.813263 -0.212474,0.351681 -0.586136,0.556828 -0.373661,0.197821 -0.857222,0.197821 -0.476235,0 -0.849896,-0.197821 -0.373662,-0.205147 -0.593462,-0.556828 -0.212474,-0.351681 -0.212474,-0.813263 0,-0.454255 0.212474,-0.805936 0.2198,-0.351681 0.593462,-0.549501 0.373661,-0.205148 0.857222,-0.205148 z m -0.0073,0.630096 q -0.263761,0 -0.476235,0.117227 -0.212474,0.117227 -0.337028,0.329701 -0.117227,0.205147 -0.117227,0.483561 0,0.285741 0.117227,0.498215 0.124554,0.205147 0.337028,0.322375 0.212474,0.117227 0.476235,0.117227 0.271087,0 0.476234,-0.117227 0.212474,-0.117228 0.329702,-0.322375 0.124553,-0.212474 0.124553,-0.498215 0,-0.278414 -0.124553,-0.483561 -0.117228,-0.212474 -0.329702,-0.329701 -0.205147,-0.117227 -0.476234,-0.117227 z M 62.68666,43.680093 h 0.769302 v 1.201578 H 62.68666 Z m 9.920339,-0.09525 h 0.769303 v 6.711249 h -0.769303 z m -2.791469,0.490889 q 0.498215,0 0.88653,0.293067 0.395641,0.293068 0.615442,0.82059 0.219801,0.527521 0.219801,1.245537 0,0.725342 -0.219801,1.260191 -0.219801,0.527521 -0.615442,0.820589 -0.388315,0.285741 -0.88653,0.285741 -0.498215,0 -0.893856,-0.285741 -0.388314,-0.293068 -0.615442,-0.820589 -0.219801,-0.534849 -0.219801,-1.260191 0,-0.718016 0.219801,-1.245537 0.227128,-0.527522 0.615442,-0.82059 0.395641,-0.293067 0.893856,-0.293067 z m 0,0.696035 q -0.293067,0 -0.520195,0.197821 -0.2198,0.19782 -0.344354,0.571482 -0.124554,0.373661 -0.124554,0.893856 0,0.527522 0.124554,0.901183 0.124554,0.373661 0.344354,0.578808 0.227128,0.197821 0.520195,0.197821 0.293068,0 0.512869,-0.197821 0.2198,-0.205147 0.344354,-0.578808 0.124554,-0.373661 0.124554,-0.901183 0,-0.520195 -0.124554,-0.893856 Q 70.548199,45.167411 70.328399,44.969591 70.108598,44.77177 69.81553,44.77177 Z m 6.374222,-0.776629 h 0.630095 v 0.776629 q 0,0.659402 -0.219801,1.230884 -0.212474,0.564155 -0.630095,0.981777 -0.417621,0.417621 -1.011083,0.637422 l -0.417622,-0.600789 q 0.542175,-0.183167 0.90851,-0.520195 0.366334,-0.344354 0.549502,-0.791282 0.190494,-0.446929 0.190494,-0.937817 z m 0.146533,0 h 0.622769 v 0.798609 q 0,0.329701 0.102574,0.644749 0.1099,0.315048 0.307721,0.593462 0.205147,0.278414 0.498215,0.490888 0.300394,0.212474 0.688709,0.344355 l -0.388315,0.608115 q -0.586135,-0.212474 -0.99643,-0.608115 -0.410295,-0.395642 -0.622769,-0.93049 -0.212474,-0.542175 -0.212474,-1.142964 z m 2.732856,-0.410295 h 0.761976 v 4.923536 h -0.761976 z m 0.534848,2.007513 h 1.172271 v 0.637423 h -1.172271 z m -3.993046,3.934433 h 4.491261 v 0.622769 h -4.491261 z m 0,-1.487318 h 0.769303 v 1.809692 h -0.769303 z"
           id="text5-9-8"
           aria-label="하이산" />
      </g>
    </g>
    <text
       xml:space="preserve"
       transform="matrix(0.31615295,0,0,0.31615295,-10.474341,-6.4462013)"
       id="text6"
       style="font-size:55px;line-height:1.25;font-family:'Microsoft JhengHei';-inkscape-font-specification:'Microsoft JhengHei';white-space:pre;shape-inside:url(#rect6);display:inline" />
  </g>
</svg>
