<?xml version="1.0" encoding="UTF-8" standalone="no"?>
<!-- Created with Inkscape (http://www.inkscape.org/) -->

<svg
   width="500"
   height="250"
   viewBox="0 0 132.29166 66.145833"
   version="1.1"
   id="svg1"
   inkscape:version="1.3.2 (091e20e, 2023-11-25, custom)"
   sodipodi:docname="bl05.svg"
   xmlns:inkscape="http://www.inkscape.org/namespaces/inkscape"
   xmlns:sodipodi="http://sodipodi.sourceforge.net/DTD/sodipodi-0.dtd"
   xmlns="http://www.w3.org/2000/svg"
   xmlns:svg="http://www.w3.org/2000/svg">
  <sodipodi:namedview
     id="namedview1"
     pagecolor="#9e652e"
     bordercolor="#ffffff"
     borderopacity="1"
     inkscape:showpageshadow="0"
     inkscape:pageopacity="0"
     inkscape:pagecheckerboard="false"
     inkscape:deskcolor="#d1d1d1"
     inkscape:document-units="mm"
     inkscape:zoom="2.0208096"
     inkscape:cx="240.00282"
     inkscape:cy="106.88785"
     inkscape:window-width="1920"
     inkscape:window-height="1009"
     inkscape:window-x="1912"
     inkscape:window-y="-8"
     inkscape:window-maximized="1"
     inkscape:current-layer="g1" />
  <defs
     id="defs1">
    <rect
       x="560.66638"
       y="34.144731"
       width="279.32397"
       height="128.59143"
       id="rect6" />
    <rect
       x="157.85752"
       y="62.351248"
       width="329.07603"
       height="135.09437"
       id="rect4" />
    <rect
       x="157.85751"
       y="62.35125"
       width="329.07602"
       height="135.09438"
       id="rect4-5" />
  </defs>
  <g
     inkscape:label="Layer 1"
     inkscape:groupmode="layer"
     id="layer1">
    <rect
       style="fill:#005fb9;fill-opacity:1;stroke:none;stroke-width:0.953294;stroke-dasharray:none"
       id="rect5"
       width="132.29167"
       height="66.145836"
       x="-2.5431316e-06"
       y="-1.2715658e-06"
       ry="0" />
    <g
       id="g1"
       transform="translate(23.862138)">
      <g
         id="g2"
         transform="translate(-27.950257)">
        <path
           id="rect1"
           style="fill-opacity:0;stroke:#ffffff;stroke-width:0.942789"
           d="m 15.913089,14.352791 h 12.425164 c 3.927062,0 7.088559,3.161497 7.088559,7.088559 v 23.263136 c 0,3.927062 -3.161497,7.088559 -7.088559,7.088559 H 15.913089 c -3.927061,0 -7.0885584,-3.161497 -7.0885584,-7.088559 V 21.44135 c 0,-3.927062 3.1614974,-7.088559 7.0885584,-7.088559 z" />
        <path
           style="font-size:12.56px;line-height:1.25;font-family:'AR UDJingXiHeiE1G30 EB';-inkscape-font-specification:'AR UDJingXiHeiE1G30 EB';fill:#ffffff;stroke-width:0.261667"
           d="m 18.527196,30.522264 h -4.7728 v -9.08088 h 4.37088 q 1.29368,0 2.04728,0.628 0.7536,0.628 0.7536,1.67048 0,0.67824 -0.30144,1.1932 -0.28888,0.5024 -0.8792,0.82896 0.76616,0.30144 1.15552,0.82896 0.40192,0.52752 0.40192,1.256 0,1.20576 -0.79128,1.9468 -0.79128,0.72848 -1.98448,0.72848 z m 0.74104,-6.58144 q 0,-0.61544 -0.35168,-0.92944 -0.35168,-0.32656 -1.01736,-0.32656 h -2.54968 v 2.56224 h 2.6376 q 0.5652,0 0.91688,-0.32656 0.36424,-0.33912 0.36424,-0.97968 z m 0.3768,3.8936 q 0,-0.65312 -0.40192,-0.99224 -0.38936,-0.35168 -1.02992,-0.35168 h -2.86368 v 2.78832 h 2.83856 q 0.66568,0 1.05504,-0.36424 0.40192,-0.36424 0.40192,-1.08016 z m 9.633528,2.68784 h -6.38048 v -9.08088 h 1.59512 v 7.83744 h 4.78536 z"
           id="text2"
           aria-label="BL" />
        <path
           style="font-size:14.3917px;line-height:1.25;font-family:'AR UDJingXiHeiE1G30 EB';-inkscape-font-specification:'AR UDJingXiHeiE1G30 EB';fill:#ffffff;stroke-width:0.261667"
           d="m 21.492413,39.692779 q 0,2.720031 -0.877894,4.015284 -0.877893,1.295253 -2.720031,1.295253 -1.784571,0 -2.705639,-1.295253 -0.921069,-1.295253 -0.921069,-4.015284 0,-2.907123 0.877893,-4.173593 0.877894,-1.280861 2.748815,-1.280861 1.827746,0 2.70564,1.280861 0.892285,1.26647 0.892285,4.173593 z m -3.597925,3.885759 q 0.921069,0 1.35282,-0.906677 0.431751,-0.921069 0.431751,-2.979082 0,-2.216322 -0.417359,-3.122999 -0.402968,-0.906677 -1.367212,-0.906677 -0.964244,0 -1.381603,0.921069 -0.417359,0.906677 -0.417359,3.108607 0,2.043622 0.431751,2.96469 0.431751,0.921069 1.367211,0.921069 z m 8.534268,-4.40386 q -0.618843,0 -1.064986,0.230267 -0.446143,0.215876 -0.76276,0.662018 l -1.61187,-0.1727 0.777151,-5.483238 h 5.814247 v 1.424779 h -4.346293 l -0.402968,2.720031 q 0.359793,-0.402968 0.863502,-0.604452 0.518101,-0.215875 1.208903,-0.215875 1.482345,0 2.345847,0.964244 0.863502,0.964244 0.863502,2.633681 0,1.741396 -0.964244,2.70564 -0.964244,0.964243 -2.705639,0.964243 -1.712613,0 -2.676857,-0.84911 -0.964243,-0.84911 -0.993027,-2.28828 h 1.770179 q -0.01439,0.67641 0.460535,1.194511 0.474926,0.518101 1.395994,0.518101 0.877894,0 1.381604,-0.575668 0.518101,-0.59006 0.518101,-1.69822 0,-1.036203 -0.532493,-1.583087 -0.532493,-0.546885 -1.338428,-0.546885 z"
           id="text3"
           aria-label="05" />
        <path
           style="font-weight:500;font-size:72px;line-height:1.25;font-family:'Noto Sans TC';-inkscape-font-specification:'Noto Sans TC Medium';white-space:pre;fill:#ffffff"
           d="m 162.96942,78.921406 h 61.992 v 6.192 h -61.992 z m -1.584,53.280004 h 65.016 v 6.192 h -65.016 z m 9,-17.64 h 18.504 v 21.312 h -6.48 v -15.408 h -12.024 z m -4.032,-19.224004 h 22.536 v 5.904004 h -15.84 v 19.224 h -6.696 z m 22.536,-13.536 v 16.2 h -6.552 v -16.2 z m 9.36,0.144 h 6.624 v 16.272 h -6.624 z m 0,13.392 h 23.04 v 25.056004 h -6.912 v -19.224 h -16.128 z m 0,19.224004 h 19.728 v 5.832 h -13.104 v 15.552 h -6.624 z m 36.072,-33.408004 h 63.432 v 6.336 h -63.432 z m 27.792,-6.48 h 7.128 v 66.816004 h -7.128 z m -1.872,41.184004 5.76,2.448 q -2.52,3.528 -5.832,6.84 -3.312,3.24 -7.128,6.12 -3.816,2.88 -7.848,5.184 -4.032,2.376 -8.064,4.032 -0.504,-0.864 -1.368,-1.944 -0.792,-1.008 -1.728,-2.088 -0.864,-1.008 -1.584,-1.656 3.888,-1.368 7.848,-3.384 4.032,-2.016 7.776,-4.536 3.744,-2.52 6.84,-5.328 3.096,-2.808 5.328,-5.688 z m 11.016,0.216 q 2.304,2.88 5.472,5.616 3.24,2.736 6.984,5.256 3.744,2.52 7.776,4.536 4.032,1.944 8.064,3.24 -0.792,0.72 -1.728,1.728 -0.936,1.08 -1.8,2.16 -0.792,1.08 -1.368,2.016 -3.96,-1.656 -8.064,-4.032 -4.032,-2.304 -7.92,-5.184 -3.816,-2.952 -7.128,-6.192 -3.24,-3.312 -5.832,-6.696 z m -24.048,-7.416 v 5.832 h 37.8 v -5.832 z m 0,-10.728004 v 5.760004 h 37.8 v -5.760004 z m -6.696,-5.184 h 51.408 v 27.000004 h -51.408 z m 75.528,42.336004 h 43.56 v 3.816 h -43.56 z m 7.56,-5.976 h 29.448 v 3.6 h -29.448 z m -19.08,-19.728 h 66.528 v 4.536 h -66.528 z m 15.12,-28.512004 4.032,0.936 q -0.864,2.304 -2.376,4.608 -1.512,2.232 -3.168,3.888 -0.576,-0.504 -1.728,-1.152 -1.08,-0.648 -1.8,-1.008 3.384,-3.096 5.04,-7.272 z m 21.096,9.216 h 20.592 v 4.176 h -20.592 z m -21.528,-6.12 h 16.992 v 3.456 h -16.992 z m -4.032,6.696 h 22.32 v 3.6 h -22.32 z m 31.032,-14.184 h 12.888 v 4.752 h -12.888 z m 14.256,13.608 h 1.08 l 1.008,-0.144 3.312,1.368 q -2.088,4.896 -5.832,8.496 -3.672,3.528004 -8.424,5.832004 -4.752,2.304 -10.08,3.6 -0.432,-0.936 -1.296,-2.16 -0.792,-1.296 -1.512,-2.016 4.752,-1.008 9.072,-2.88 4.392,-1.872 7.704,-4.752004 3.312,-2.88 4.968,-6.552 z m -16.704,-13.608 h 5.256 v 3.816 q 0,2.016 -0.648,4.032 -0.648,1.944 -2.376,3.744 -1.728,1.728 -5.04,3.168 -0.36,-0.648 -1.08,-1.44 -0.648,-0.792 -1.368,-1.584 -0.72,-0.792 -1.224,-1.08 2.808,-1.08 4.176,-2.16 1.368,-1.152 1.8,-2.304 0.504,-1.224 0.504,-2.52 z m -19.512,9 h 4.464 v 5.184 q 0,1.944 -0.792,4.248 -0.72,2.232 -2.952,4.392 -2.16,2.088004 -6.624,3.744004 -0.504,-0.792 -1.368,-1.656 -0.792,-0.936 -1.512,-1.584004 3.96,-1.152 5.76,-2.736 1.872,-1.584 2.448,-3.312 0.576,-1.728 0.576,-3.168 z m 5.832,26.424004 h 5.256 v 6.912 q 0,1.728 -0.648,3.24 -0.648,1.44 -2.304,2.736 -1.584,1.224 -4.392,2.232 -2.808,0.936 -7.128,1.584 -0.432,-0.864 -1.296,-2.016 -0.864,-1.224 -1.584,-1.944 3.744,-0.36 6.12,-0.936 2.376,-0.576 3.672,-1.296 1.368,-0.792 1.8,-1.656 0.504,-0.936 0.504,-1.944 z m 11.592,0.072 h 5.328 v 10.08 q 0,1.08 0.432,1.368 0.432,0.288 1.944,0.288 0.36,0 1.296,0 1.008,0 2.16,0 1.224,0 2.232,0 1.08,0 1.512,0 0.864,0 1.224,-0.072 0.36,-0.072 0.504,-0.36 0.864,0.432 2.088,0.792 1.224,0.288 2.16,0.432 -0.216,1.44 -1.44,2.016 -1.224,0.576 -3.744,0.576 -0.432,0 -1.656,0 -1.224,0 -2.736,0 -1.44,0 -2.664,0 -1.224,0 -1.656,0 -2.736,0 -4.32,-0.36 -1.512,-0.432 -2.088,-1.512 -0.576,-1.152 -0.576,-3.24 z m -17.28,-16.200004 2.592,-2.592 q 2.592,1.368 5.4,3.24 2.808,1.8 4.392,3.312 l -2.808,2.952004 q -1.512,-1.512 -4.32,-3.456004 -2.736,-1.944 -5.256,-3.456 z m 16.416,2.52 2.376,-3.456 q 2.952,1.152 6.264,2.52 3.312,1.296 6.624,2.736004 3.312,1.368 6.192,2.736 2.952,1.296 5.04,2.448 l -2.52,3.96 q -2.016,-1.152 -4.896,-2.52 -2.88,-1.368 -6.192,-2.88 -3.24,-1.512 -6.624,-2.88 -3.312,-1.440004 -6.264,-2.664004 z m 15.696,-21.816 h 5.4 v 6.12 q 0,1.008 0.144,1.44 0.144,0.36 0.792,0.36 0.432,0 1.44,0 1.008,0 1.44,0 0.72,0 1.656,-0.072 0.936,-0.072 1.512,-0.216 0.144,0.936 0.216,2.232 0.072,1.296 0.216,2.232 -0.576,0.216 -1.512,0.288 -0.936,0.072 -1.872,0.072 -0.432,0 -1.224,0 -0.72,0 -1.44,0 -0.72,0 -1.224,0 -2.304,0 -3.528,-0.648 -1.152,-0.648 -1.584,-2.088 -0.432,-1.44 -0.432,-3.672 z m -44.712,40.248004 h 52.272 v 24.696 h -6.408 v -20.88 h -39.672 v 20.88 h -6.192 z m -5.616,-39.960004 h 32.328 v 4.176 h -32.328 z m 2.376,2.592 h 5.256 v 20.304 q 0,1.872004 0.648,2.664004 0.648,0.72 2.52,0.72 0.648,0 2.088,0 1.512,0 3.312,0 1.8,0 3.6,0 1.872,0 3.24,0 1.44,0 2.16,0 1.512,0 3.6,-0.072 2.16,-0.144 3.24,-0.36 0.144,1.08 0.288,2.232 0.144,1.152 0.288,2.016 -1.008,0.288 -2.952,0.36 -1.944,0.072 -4.032,0.072 -0.72,0 -2.304,0 -1.584,0 -3.6,0 -1.944,0 -3.888,0 -1.944,0 -3.384,0 -1.44,0 -2.016,0 -3.096,0 -4.896,-0.72 -1.8,-0.792 -2.52,-2.52 -0.648,-1.8 -0.648,-4.608004 z m 98.784,17.064 h 29.376 v 5.976004 h -29.376 z m -5.472,12.888004 h 41.04 v 6.12 h -41.04 z m -0.288,-25.920004 h 40.896 v 13.392 h -6.552 v -7.488 h -28.008 v 7.488 h -6.336 z m 9.936,28.872004 h 6.552 q -0.288,5.4 -1.224,9.936 -0.864,4.536 -2.808,8.208 -1.944,3.6 -5.472,6.336 -3.528,2.808 -9.072,4.752 -0.504,-1.296 -1.656,-2.952 -1.152,-1.584 -2.232,-2.52 4.968,-1.512 7.992,-3.744 3.024,-2.232 4.608,-5.112 1.656,-2.952 2.304,-6.624 0.72,-3.744 1.008,-8.28 z m 12.744,-0.144 h 6.408 v 20.448 q 0,1.44 0.288,1.8 0.288,0.36 1.296,0.36 0.288,0 1.08,0 0.864,0 1.728,0 0.864,0 1.224,0 0.648,0 1.008,-0.576 0.36,-0.648 0.504,-2.52 0.216,-1.944 0.288,-5.76 0.72,0.504 1.728,1.008 1.008,0.504 2.088,0.936 1.08,0.36 1.944,0.576 -0.288,4.752 -1.008,7.416 -0.72,2.664 -2.16,3.672 -1.368,1.08 -3.672,1.08 -0.432,0 -1.296,0 -0.792,0 -1.728,0 -0.864,0 -1.656,0 -0.792,0 -1.152,0 -2.808,0 -4.32,-0.72 -1.512,-0.72 -2.088,-2.52 -0.504,-1.728 -0.504,-4.752 z m -8.424,-36.216004 6.336,-1.872 q 1.368,2.16 2.592,4.824 1.296,2.592 1.944,4.536 l -6.696,2.232 q -0.504,-1.944 -1.728,-4.68 -1.152,-2.808 -2.448,-5.04 z m -36.648,1.656 h 16.704 v 6.12 h -10.656 v 57.672004 h -6.048 z m 15.12,0 h 1.08 l 1.008,-0.216 4.464,2.52 q -1.512,4.464 -3.312,9.504 -1.728,5.04 -3.456,9.288 3.672,4.464004 4.752,8.352004 1.152,3.816 1.152,7.128 0,3.168 -0.72,5.472 -0.648,2.232 -2.304,3.456 -0.792,0.576 -1.8,0.936 -0.936,0.288 -2.088,0.504 -1.008,0.072 -2.304,0.144 -1.224,0 -2.448,-0.072 -0.072,-1.152 -0.504,-2.88 -0.36,-1.728 -1.08,-3.024 1.08,0.072 2.016,0.144 0.936,0 1.728,-0.072 1.296,-0.072 2.088,-0.576 0.792,-0.576 1.08,-1.8 0.288,-1.296 0.288,-2.952 0,-2.808 -1.152,-6.336 -1.152,-3.6 -4.68,-7.704004 0.936,-2.376 1.8,-5.112 0.864,-2.736 1.656,-5.472 0.864,-2.736 1.512,-5.184 0.72,-2.448 1.224,-4.176 z"
           id="text4"
           transform="matrix(0.26166763,0,0,0.26166763,-2.1314997,-4.0633201)"
           aria-label="亞東醫院" />
        <path
           style="font-size:7.32669px;line-height:1.25;font-family:'AR UDJingXiHeiE1G30 EB';-inkscape-font-specification:'AR UDJingXiHeiE1G30 EB';fill:#ffffff;stroke-width:0.261667"
           d="m 41.322437,38.534551 v 2.351868 h -0.930489 v -5.297197 h 3.714632 v 0.725342 h -2.784143 v 1.494645 h 2.447115 v 0.725342 z m 6.381554,0.212474 -0.835242,-2.263947 -0.849897,2.263947 z m -1.956226,0.725343 -0.527522,1.414051 H 44.2751 l 2.132067,-5.297197 h 0.95247 l 2.117413,5.297197 h -0.967123 l -0.534848,-1.414051 z m 7.656384,-2.366521 q 0,-0.388315 -0.205147,-0.586136 -0.205148,-0.205147 -0.593462,-0.205147 h -1.589892 v 1.648505 h 1.538605 q 0.380988,0 0.615442,-0.227127 0.234454,-0.227127 0.234454,-0.630095 z m -2.388501,1.575238 v 2.205334 h -0.93049 v -5.297197 h 2.696222 q 0.725343,0 1.150291,0.388314 0.432275,0.380988 0.432275,1.08435 0,0.461582 -0.219801,0.791283 -0.212474,0.329701 -0.534849,0.468908 0.410295,0.234454 0.630096,0.813263 0.2198,0.578808 0.278414,1.751079 h -0.967123 q -0.04396,-1.230884 -0.271088,-1.714446 -0.2198,-0.490888 -0.710689,-0.490888 z m 10.264694,2.205334 h -3.91978 v -5.297197 h 3.8978 v 0.725342 h -2.96731 v 1.494645 h 2.769489 v 0.725342 h -2.769489 v 1.626525 h 2.98929 z m 3.802556,-2.139394 -0.835243,-2.263947 -0.849896,2.263947 z m -1.956226,0.725343 -0.527522,1.414051 h -0.945143 l 2.132067,-5.297197 h 0.95247 l 2.117413,5.297197 h -0.967123 l -0.534848,-1.414051 z m 6.0958,-0.981777 q -0.967123,-0.175841 -1.436031,-0.542175 -0.468908,-0.366335 -0.468908,-1.025737 0,-0.615442 0.498215,-1.01841 0.505541,-0.402968 1.553258,-0.402968 0.959796,0 1.487318,0.410295 0.527522,0.410295 0.578809,1.186924 h -0.93049 q -0.0073,-0.373661 -0.293068,-0.622769 -0.28574,-0.249107 -0.871876,-0.249107 -0.549501,0 -0.813262,0.183167 -0.263761,0.183167 -0.256434,0.512868 0,0.359008 0.351681,0.534849 0.359007,0.17584 1.164943,0.337027 1.011084,0.205148 1.436032,0.556829 0.432274,0.351681 0.432274,1.055043 0,0.674056 -0.571481,1.128311 -0.571482,0.446928 -1.626526,0.446928 -1.077023,0 -1.677812,-0.454255 -0.600788,-0.454255 -0.600788,-1.311478 h 0.930489 q 0,0.476235 0.359008,0.761976 0.359008,0.278414 0.99643,0.278414 0.586135,0 0.915836,-0.227127 0.329701,-0.227127 0.329701,-0.593462 0,-0.424948 -0.329701,-0.608115 -0.329701,-0.183167 -1.157617,-0.337028 z m 4.432647,-2.176027 h -1.648505 v -0.725342 h 4.220173 v 0.725342 h -1.641178 v 4.571855 h -0.93049 z m 7.194808,4.571855 h -3.919779 v -5.297197 h 3.897799 v 0.725342 h -2.967309 v 1.494645 h 2.769489 v 0.725342 h -2.769489 v 1.626525 h 2.989289 z m 4.300774,-3.780572 q 0,-0.388315 -0.205148,-0.586136 -0.205147,-0.205147 -0.593462,-0.205147 H 82.7622 v 1.648505 h 1.538605 q 0.380987,0 0.615442,-0.227127 0.234454,-0.227127 0.234454,-0.630095 z M 82.7622,38.681085 v 2.205334 h -0.93049 v -5.297197 h 2.696222 q 0.725342,0 1.15029,0.388314 0.432275,0.380988 0.432275,1.08435 0,0.461582 -0.219801,0.791283 -0.212474,0.329701 -0.534848,0.468908 0.410295,0.234454 0.630095,0.813263 0.219801,0.578808 0.278415,1.751079 h -0.967124 q -0.04396,-1.230884 -0.271087,-1.714446 -0.219801,-0.490888 -0.710689,-0.490888 z m 5.355815,-1.619199 v 3.824533 h -0.930489 v -5.297197 h 0.959796 l 2.600975,3.912452 v -3.912452 h 0.93049 v 5.297197 h -1.01841 z m 7.627076,1.472665 v 2.351868 h -0.93049 v -5.297197 h 0.93049 v 2.219987 h 2.542361 v -2.219987 h 0.93049 v 5.297197 h -0.93049 v -2.351868 z m 9.781129,-0.271087 q 0,1.274844 -0.71069,2.000186 -0.70336,0.718016 -1.92692,0.718016 -1.24553,0 -1.9489,-0.725343 -0.70336,-0.725342 -0.70336,-1.992859 0,-1.289498 0.71069,-2.022167 0.71069,-0.739996 1.94157,-0.739996 1.24554,0 1.94158,0.732669 0.69603,0.732669 0.69603,2.029494 z m -2.63761,1.992859 q 0.79861,0 1.23089,-0.527521 0.4396,-0.527522 0.4396,-1.465338 0,-0.93049 -0.4396,-1.479992 -0.4396,-0.556828 -1.23089,-0.556828 -0.80593,0 -1.25286,0.564155 -0.4396,0.556828 -0.4396,1.472665 0,0.937816 0.44693,1.465338 0.44692,0.527521 1.24553,0.527521 z m 5.4071,-1.765732 q -0.96712,-0.175841 -1.43603,-0.542175 -0.46891,-0.366335 -0.46891,-1.025737 0,-0.615442 0.49821,-1.01841 0.50555,-0.402968 1.55326,-0.402968 0.9598,0 1.48732,0.410295 0.52752,0.410295 0.57881,1.186924 h -0.93049 q -0.007,-0.373661 -0.29307,-0.622769 -0.28574,-0.249107 -0.87187,-0.249107 -0.54951,0 -0.81327,0.183167 -0.26376,0.183167 -0.25643,0.512868 0,0.359008 0.35168,0.534849 0.35901,0.17584 1.16494,0.337027 1.01109,0.205148 1.43604,0.556829 0.43227,0.351681 0.43227,1.055043 0,0.674056 -0.57148,1.128311 -0.57148,0.446928 -1.62653,0.446928 -1.07702,0 -1.67781,-0.454255 -0.60079,-0.454255 -0.60079,-1.311478 h 0.93049 q 0,0.476235 0.35901,0.761976 0.35901,0.278414 0.99643,0.278414 0.58613,0 0.91584,-0.227127 0.3297,-0.227127 0.3297,-0.593462 0,-0.424948 -0.3297,-0.608115 -0.32971,-0.183167 -1.15762,-0.337028 z m 4.23483,0.293068 v 2.10276 h -0.93049 v -5.297197 h 2.49107 q 0.77663,0 1.21623,0.424948 0.4396,0.424948 0.4396,1.12831 0,0.791283 -0.45425,1.216231 -0.44693,0.424948 -1.2089,0.424948 z m 2.27127,-1.626526 q 0,-0.410294 -0.23445,-0.622768 -0.23446,-0.219801 -0.68871,-0.219801 h -1.34811 v 1.743752 h 1.34811 q 0.45425,0 0.68871,-0.2198 0.23445,-0.227128 0.23445,-0.681383 z m 2.76949,-1.567911 v 5.297197 h -0.93049 v -5.297197 z m 2.34453,0.725342 h -1.6485 v -0.725342 h 4.22017 v 0.725342 h -1.64118 v 4.571855 h -0.93049 z m 6.09581,2.432461 -0.83524,-2.263947 -0.8499,2.263947 z m -1.95622,0.725343 -0.52752,1.414051 h -0.94515 l 2.13207,-5.297197 h 0.95247 l 2.11741,5.297197 h -0.96712 l -0.53485,-1.414051 z m 8.05935,1.414051 h -3.72196 v -5.297197 h 0.93049 v 4.571854 h 2.79147 z"
           id="text5"
           aria-label="FAR EASTERN HOSPITAL" />
        <path
           d="m 40.181868,43.834998 h 6.2863 v 0.644749 h -6.2863 z m 0.696036,3.648692 h 4.842942 v 0.622769 h -4.842942 z m -0.901183,1.809692 h 6.689268 v 0.637422 h -6.689268 z m 2.117413,-5.20195 h 0.674056 v 5.648879 h -0.674056 z m 1.655832,0 h 0.674056 v 5.648879 h -0.674056 z m -3.25305,1.311478 h 5.604918 v 2.923349 h -0.696036 v -2.307907 h -4.24948 v 2.315234 h -0.659402 z m 6.938375,-1.333458 h 6.454815 v 0.644749 h -6.454815 z m 2.828103,-0.659402 h 0.725342 v 6.799169 h -0.725342 z m -0.190494,4.190867 0.586135,0.249107 q -0.256434,0.359008 -0.593462,0.696036 -0.337028,0.329701 -0.725342,0.622769 -0.388315,0.293067 -0.798609,0.527521 -0.410295,0.241781 -0.82059,0.410295 -0.05129,-0.08792 -0.139207,-0.197821 -0.08059,-0.102573 -0.17584,-0.212474 -0.08792,-0.102573 -0.161187,-0.168514 0.395641,-0.139207 0.798609,-0.344354 0.410294,-0.205147 0.791282,-0.461581 0.380988,-0.256435 0.696036,-0.542176 0.315048,-0.28574 0.542175,-0.578808 z m 1.120984,0.02198 q 0.234454,0.293068 0.556828,0.571482 0.329701,0.278414 0.710689,0.534848 0.380988,0.256434 0.791282,0.461582 0.410295,0.19782 0.82059,0.329701 -0.08059,0.07327 -0.175841,0.17584 -0.09525,0.109901 -0.183167,0.219801 -0.08059,0.1099 -0.139207,0.205147 Q 53.17209,49.952785 52.754469,49.711004 52.344174,49.47655 51.948533,49.183482 51.560218,48.883088 51.22319,48.553387 50.893489,48.216359 50.629728,47.872005 Z m -2.447115,-0.754649 v 0.593462 h 3.846512 v -0.593462 z m 0,-1.091677 v 0.586135 h 3.846512 v -0.586135 z m -0.681382,-0.527522 h 5.231257 v 2.747509 h -5.231257 z m 8.616187,0.190494 h 4.615815 v 0.586136 h -4.615815 z m 1.985534,2.483748 0.417621,-0.344354 q 0.219801,0.183167 0.461581,0.410295 0.249108,0.227127 0.468909,0.446928 0.2198,0.212474 0.359007,0.380988 l -0.439601,0.388314 q -0.13188,-0.168514 -0.344355,-0.395641 -0.212474,-0.227128 -0.461581,-0.461582 -0.241781,-0.234454 -0.461581,-0.424948 z m -1.787713,-1.23821 h 3.802552 v 0.593462 h -3.179783 v 2.938002 h -0.622769 z m 3.538791,0 h 0.666729 v 2.813449 q 0,0.234454 -0.06594,0.373661 -0.05861,0.146534 -0.234454,0.227127 -0.161187,0.07327 -0.424948,0.08792 -0.256434,0.02198 -0.630095,0.01465 -0.01465,-0.124554 -0.08792,-0.300394 -0.06594,-0.175841 -0.139207,-0.300395 0.263761,0.0073 0.490888,0.0073 0.227128,0.0073 0.293068,0 0.08059,-0.0073 0.102574,-0.02931 0.02931,-0.02931 0.02931,-0.09525 z m -1.802365,-1.047717 h 0.608115 v 1.238211 q 0,0.293067 -0.05129,0.615442 -0.05129,0.315047 -0.19782,0.630095 -0.146534,0.315048 -0.417622,0.600789 -0.271087,0.28574 -0.710689,0.512868 -0.05861,-0.09525 -0.183167,-0.227128 -0.117227,-0.139207 -0.212474,-0.2198 0.388315,-0.183167 0.622769,-0.417622 0.24178,-0.234454 0.351681,-0.490888 0.117227,-0.263761 0.15386,-0.520195 0.03663,-0.256434 0.03663,-0.483561 z m -2.520382,-1.414051 h 5.260564 v 0.622768 h -5.260564 z m -0.373661,0 h 0.659402 v 2.19068 q 0,0.432275 -0.04396,0.937817 -0.03663,0.498214 -0.161187,1.011083 -0.124554,0.512868 -0.359008,0.989103 -0.227127,0.468908 -0.608115,0.842569 -0.05129,-0.06594 -0.146534,-0.161187 -0.08792,-0.08792 -0.190494,-0.17584 -0.09525,-0.08059 -0.161187,-0.124554 0.344354,-0.351681 0.542175,-0.761976 0.205147,-0.417621 0.300394,-0.857223 0.102574,-0.439601 0.131881,-0.879203 0.03663,-0.439601 0.03663,-0.827916 z m 2.241967,-0.813263 h 0.732669 v 1.230884 h -0.732669 z m -3.370277,1.655832 0.505541,-0.249107 q 0.190494,0.315047 0.351682,0.696035 0.161187,0.380988 0.2198,0.652076 l -0.542175,0.293067 q -0.03663,-0.190494 -0.117227,-0.424948 -0.08059,-0.241781 -0.190494,-0.490888 -0.1099,-0.256434 -0.227127,-0.476235 z m -0.09525,2.600975 q 0.263761,-0.117227 0.615442,-0.293067 0.359008,-0.175841 0.739995,-0.373662 l 0.168514,0.549502 q -0.322374,0.190494 -0.659402,0.388315 -0.329701,0.19782 -0.644748,0.366334 z M 66.089044,43.43203 H 66.7631 v 1.120984 h -0.674056 z m -1.707119,0.805936 h 4.220174 v 1.384745 h -0.637422 v -0.791283 h -2.959983 v 0.791283 h -0.622769 z m 0.564156,1.318804 h 3.077209 v 0.600789 h -3.077209 z m -0.468909,1.304151 h 4.124927 v 0.622769 h -4.124927 z m 0.915837,0.285741 h 0.659402 q -0.02931,0.586135 -0.109901,1.069697 -0.08059,0.476235 -0.271087,0.857223 -0.183167,0.380988 -0.534849,0.659402 -0.344354,0.285741 -0.901182,0.476235 -0.02931,-0.08059 -0.09525,-0.183168 -0.06594,-0.102573 -0.139207,-0.19782 -0.07327,-0.09525 -0.146534,-0.153861 0.498215,-0.161187 0.791282,-0.388314 0.293068,-0.227128 0.446928,-0.534849 0.161188,-0.307721 0.219801,-0.710689 0.05861,-0.402968 0.08059,-0.893856 z m 1.355437,-0.06594 h 0.652076 v 2.205334 q 0,0.146534 0.02198,0.183167 0.02931,0.03663 0.124554,0.03663 0.02931,0 0.1099,0 0.08059,0 0.161187,0 0.08792,0 0.117227,0 0.07327,0 0.109901,-0.05861 0.03663,-0.05861 0.05129,-0.249108 0.01465,-0.19782 0.02198,-0.586135 0.06594,0.05861 0.168514,0.109901 0.102574,0.05129 0.212474,0.09525 0.117227,0.03663 0.205148,0.05861 -0.02931,0.490888 -0.102574,0.761976 -0.07327,0.278414 -0.212474,0.380988 -0.139207,0.1099 -0.380988,0.1099 -0.04396,0 -0.124554,0 -0.07327,0 -0.161187,0 -0.08792,0 -0.168514,0 -0.07327,0 -0.117227,0 -0.278414,0 -0.432275,-0.08059 -0.146533,-0.07327 -0.205147,-0.256434 -0.05129,-0.183167 -0.05129,-0.505541 z m -4.549874,-3.355624 h 1.721772 v 0.622769 h -1.113657 v 5.868678 h -0.608115 z m 1.516625,0 h 0.1099 l 0.102574,-0.02931 0.454254,0.263761 q -0.102573,0.307721 -0.2198,0.659402 -0.117227,0.344354 -0.241781,0.681382 -0.117227,0.337028 -0.234454,0.630096 0.373661,0.439601 0.490888,0.820589 0.117227,0.380988 0.117227,0.718016 0,0.315047 -0.07327,0.542175 -0.06594,0.227127 -0.234454,0.344354 -0.08059,0.05861 -0.183167,0.09525 -0.09525,0.02931 -0.212474,0.05129 -0.212474,0.02198 -0.483562,0.0073 -0.0073,-0.124554 -0.05129,-0.293068 -0.03663,-0.175841 -0.1099,-0.300394 0.1099,0.0073 0.205147,0.0073 0.09525,0 0.175841,0 0.139207,-0.0073 0.219801,-0.06594 0.07327,-0.05861 0.102573,-0.183167 0.02931,-0.124554 0.02931,-0.285741 0,-0.278414 -0.117227,-0.630095 -0.117227,-0.351682 -0.476235,-0.754649 0.09525,-0.249108 0.183167,-0.534849 0.08792,-0.285741 0.168514,-0.571482 0.08792,-0.293067 0.153861,-0.542175 0.07327,-0.256434 0.124554,-0.432275 z"
           id="text5-9"
           style="font-weight:500;font-size:7.32669px;line-height:1.25;font-family:'Noto Sans JP';-inkscape-font-specification:'Noto Sans JP Medium';fill:#ffffff;stroke-width:0.261667"
           aria-label="亜東病院" />
        <path
           style="font-weight:500;font-size:7.32669px;line-height:1.25;font-family:'Noto Sans KR';-inkscape-font-specification:'Noto Sans KR Medium';fill:#ffffff;stroke-width:0.261667"
           d="m 77.730468,44.075735 q 0.498215,0 0.879203,0.293067 0.388315,0.293068 0.608115,0.82059 0.227128,0.527521 0.227128,1.252864 0,0.718015 -0.227128,1.252864 -0.2198,0.527521 -0.608115,0.820589 -0.380988,0.285741 -0.879203,0.285741 -0.505541,0 -0.893856,-0.285741 -0.380988,-0.293068 -0.608115,-0.820589 -0.219801,-0.534849 -0.219801,-1.252864 0,-0.725343 0.219801,-1.252864 0.227127,-0.527522 0.608115,-0.82059 0.388315,-0.293067 0.893856,-0.293067 z m 0,0.696035 q -0.293067,0 -0.520195,0.197821 -0.2198,0.19782 -0.344354,0.571482 -0.117227,0.373661 -0.117227,0.893856 0,0.527522 0.117227,0.901183 0.124554,0.373661 0.344354,0.578808 0.227128,0.197821 0.520195,0.197821 0.285741,0 0.505542,-0.197821 0.227127,-0.205147 0.344354,-0.578808 0.124554,-0.373661 0.124554,-0.901183 0,-0.520195 -0.124554,-0.893856 Q 78.463137,45.167411 78.23601,44.969591 78.016209,44.77177 77.730468,44.77177 Z m 3.194437,0.446928 h 1.208904 v 0.637422 h -1.208904 z m 0,1.978207 h 1.208904 V 47.827 H 80.924905 Z M 80.36075,43.592173 h 0.769303 v 6.696595 H 80.36075 Z m 2.329888,3.084537 h 6.051846 v 0.615442 h -6.051846 z m 2.637609,0.278414 h 0.761976 v 1.238211 h -0.761976 z m 0.366334,0.893856 q 1.08435,0 1.692466,0.315048 0.615442,0.315047 0.615442,0.901183 0,0.578808 -0.615442,0.893856 -0.608116,0.322374 -1.692466,0.322374 -1.069696,0 -1.685138,-0.322374 -0.615442,-0.315048 -0.615442,-0.893856 0,-0.586136 0.615442,-0.901183 0.615442,-0.315048 1.685138,-0.315048 z m 0,0.586135 q -0.483561,0 -0.827916,0.07327 -0.344354,0.07327 -0.527521,0.212474 -0.175841,0.131881 -0.175841,0.344355 0,0.205147 0.175841,0.344354 0.183167,0.139207 0.527521,0.212474 0.344355,0.06594 0.827916,0.06594 0.498215,0 0.835243,-0.06594 0.344354,-0.07327 0.520195,-0.212474 0.175841,-0.139207 0.175841,-0.344354 0,-0.212474 -0.175841,-0.344355 -0.175841,-0.139207 -0.520195,-0.212474 -0.337028,-0.07327 -0.835243,-0.07327 z m -2.25662,-2.916022 h 4.601161 v 0.615442 h -4.601161 z m 0,-1.633852 h 4.564528 v 0.608115 h -3.802552 v 1.421378 h -0.761976 z m 11.224495,0.739995 h 1.773059 v 0.622769 h -1.773059 z m 0,1.377418 h 1.773059 v 0.615442 h -1.773059 z m -2.879389,-2.007513 h 0.761976 v 0.989103 h 1.567911 v -0.989103 h 0.754649 v 3.179784 h -3.084536 z m 0.761976,1.589892 v 0.981776 h 1.567911 v -0.981776 z m 3.707305,-1.99286 h 0.769302 v 4.022353 h -0.769302 z m -1.458012,4.154233 q 0.703363,0 1.201578,0.153861 0.505541,0.146534 0.776629,0.432275 0.278414,0.278414 0.278414,0.681382 0,0.600788 -0.608115,0.930489 -0.600789,0.329702 -1.648506,0.329702 -1.047716,0 -1.655832,-0.329702 -0.608115,-0.329701 -0.608115,-0.930489 0,-0.402968 0.271088,-0.681382 0.278414,-0.285741 0.783956,-0.432275 0.512868,-0.153861 1.208903,-0.153861 z m 0,0.593462 q -0.476234,0 -0.813262,0.08059 -0.329701,0.07327 -0.505542,0.219801 -0.17584,0.146533 -0.17584,0.373661 0,0.212474 0.17584,0.366334 0.175841,0.153861 0.505542,0.234454 0.337028,0.07327 0.813262,0.07327 0.476235,0 0.805936,-0.07327 0.329701,-0.08059 0.505542,-0.234454 0.183167,-0.15386 0.183167,-0.366334 0,-0.227128 -0.183167,-0.373661 -0.175841,-0.146534 -0.505542,-0.219801 -0.329701,-0.08059 -0.805936,-0.08059 z m 5.253234,-1.348111 h 0.76198 v 1.472665 h -0.76198 z m 2.94533,-3.399584 h 0.76931 v 5.077396 h -0.76931 z m -3.912449,5.934619 h 4.842939 v 0.622769 h -4.842939 z m 0,-1.348111 h 0.769302 v 1.516625 h -0.769302 z m -0.798609,-0.93049 -0.09525,-0.622768 q 0.615442,-0.0073 1.340784,-0.01465 0.725341,-0.01465 1.479991,-0.05129 0.76198,-0.04396 1.46534,-0.131881 l 0.0586,0.549502 q -0.71801,0.117227 -1.47266,0.175841 -0.74733,0.05861 -1.458014,0.07327 -0.710689,0.01465 -1.318804,0.02198 z m 3.399588,0.263761 h 1.50197 v 0.542175 h -1.50197 z m -1.33346,-3.670671 q 0.49821,0 0.86455,0.146533 0.37366,0.146534 0.57881,0.417622 0.21247,0.263761 0.21247,0.615442 0,0.351681 -0.21247,0.622768 -0.20515,0.271088 -0.57881,0.417622 -0.36634,0.139207 -0.86455,0.139207 -0.483563,0 -0.864551,-0.139207 -0.373661,-0.146534 -0.586135,-0.417622 -0.205148,-0.271087 -0.205148,-0.622768 0,-0.351681 0.205148,-0.615442 0.212474,-0.271088 0.586135,-0.417622 0.380988,-0.146533 0.864551,-0.146533 z m 0,0.564155 q -0.410296,0 -0.674057,0.168514 -0.256434,0.161187 -0.256434,0.446928 0,0.285741 0.256434,0.454254 0.263761,0.161188 0.674057,0.161188 0.41029,0 0.66673,-0.161188 0.25643,-0.168513 0.25643,-0.454254 0,-0.190494 -0.11723,-0.322375 -0.11722,-0.139207 -0.32237,-0.212474 -0.20515,-0.08059 -0.48356,-0.08059 z"
           id="text5-9-8"
           aria-label="야둥 병원" />
      </g>
    </g>
    <text
       xml:space="preserve"
       transform="matrix(0.31615295,0,0,0.31615295,-10.474341,-6.4462013)"
       id="text6"
       style="font-size:55px;line-height:1.25;font-family:'Microsoft JhengHei';-inkscape-font-specification:'Microsoft JhengHei';white-space:pre;shape-inside:url(#rect6);display:inline" />
  </g>
</svg>
