<?xml version="1.0" encoding="UTF-8" standalone="no"?>
<!-- Created with Inkscape (http://www.inkscape.org/) -->

<svg
   width="500"
   height="250"
   viewBox="0 0 132.29166 66.145833"
   version="1.1"
   id="svg1"
   inkscape:version="1.3.2 (091e20e, 2023-11-25, custom)"
   sodipodi:docname="bl06.svg"
   xmlns:inkscape="http://www.inkscape.org/namespaces/inkscape"
   xmlns:sodipodi="http://sodipodi.sourceforge.net/DTD/sodipodi-0.dtd"
   xmlns="http://www.w3.org/2000/svg"
   xmlns:svg="http://www.w3.org/2000/svg">
  <sodipodi:namedview
     id="namedview1"
     pagecolor="#9e652e"
     bordercolor="#ffffff"
     borderopacity="1"
     inkscape:showpageshadow="0"
     inkscape:pageopacity="0"
     inkscape:pagecheckerboard="false"
     inkscape:deskcolor="#d1d1d1"
     inkscape:document-units="mm"
     inkscape:zoom="2.0208096"
     inkscape:cx="300.37466"
     inkscape:cy="106.88785"
     inkscape:window-width="1920"
     inkscape:window-height="1009"
     inkscape:window-x="1912"
     inkscape:window-y="-8"
     inkscape:window-maximized="1"
     inkscape:current-layer="g1" />
  <defs
     id="defs1">
    <rect
       x="560.66638"
       y="34.144731"
       width="279.32397"
       height="128.59143"
       id="rect6" />
    <rect
       x="157.85752"
       y="62.351248"
       width="329.07603"
       height="135.09437"
       id="rect4" />
    <rect
       x="157.85751"
       y="62.35125"
       width="329.07602"
       height="135.09438"
       id="rect4-5" />
    <rect
       x="157.85751"
       y="62.35125"
       width="329.07602"
       height="135.09438"
       id="rect4-5-1" />
  </defs>
  <g
     inkscape:label="Layer 1"
     inkscape:groupmode="layer"
     id="layer1">
    <rect
       style="fill:#005fb9;fill-opacity:1;stroke:none;stroke-width:0.953294;stroke-dasharray:none"
       id="rect5"
       width="132.29167"
       height="66.145836"
       x="-2.5431316e-06"
       y="-1.2715658e-06"
       ry="0" />
    <g
       id="g1"
       transform="translate(23.862138)">
      <g
         id="g2"
         transform="matrix(0.90448849,0,0,0.90448849,-27.735064,3.1588443)">
        <path
           id="rect1"
           style="fill-opacity:0;stroke:#ffffff;stroke-width:0.942789"
           d="m 15.913089,14.352791 h 12.425164 c 3.927062,0 7.088559,3.161497 7.088559,7.088559 v 23.263136 c 0,3.927062 -3.161497,7.088559 -7.088559,7.088559 H 15.913089 c -3.927061,0 -7.0885584,-3.161497 -7.0885584,-7.088559 V 21.44135 c 0,-3.927062 3.1614974,-7.088559 7.0885584,-7.088559 z" />
        <path
           style="font-size:12.56px;line-height:1.25;font-family:'AR UDJingXiHeiE1G30 EB';-inkscape-font-specification:'AR UDJingXiHeiE1G30 EB';fill:#ffffff;stroke-width:0.261667"
           d="m 18.527196,30.522264 h -4.7728 v -9.08088 h 4.37088 q 1.29368,0 2.04728,0.628 0.7536,0.628 0.7536,1.67048 0,0.67824 -0.30144,1.1932 -0.28888,0.5024 -0.8792,0.82896 0.76616,0.30144 1.15552,0.82896 0.40192,0.52752 0.40192,1.256 0,1.20576 -0.79128,1.9468 -0.79128,0.72848 -1.98448,0.72848 z m 0.74104,-6.58144 q 0,-0.61544 -0.35168,-0.92944 -0.35168,-0.32656 -1.01736,-0.32656 h -2.54968 v 2.56224 h 2.6376 q 0.5652,0 0.91688,-0.32656 0.36424,-0.33912 0.36424,-0.97968 z m 0.3768,3.8936 q 0,-0.65312 -0.40192,-0.99224 -0.38936,-0.35168 -1.02992,-0.35168 h -2.86368 v 2.78832 h 2.83856 q 0.66568,0 1.05504,-0.36424 0.40192,-0.36424 0.40192,-1.08016 z m 9.633528,2.68784 h -6.38048 v -9.08088 h 1.59512 v 7.83744 h 4.78536 z"
           id="text2"
           aria-label="BL" />
        <path
           style="font-size:14.3917px;line-height:1.25;font-family:'AR UDJingXiHeiE1G30 EB';-inkscape-font-specification:'AR UDJingXiHeiE1G30 EB';fill:#ffffff;stroke-width:0.261667"
           d="m 21.492413,39.692779 q 0,2.720031 -0.877894,4.015284 -0.877893,1.295253 -2.720031,1.295253 -1.784571,0 -2.705639,-1.295253 -0.921069,-1.295253 -0.921069,-4.015284 0,-2.907123 0.877893,-4.173593 0.877894,-1.280861 2.748815,-1.280861 1.827746,0 2.70564,1.280861 0.892285,1.26647 0.892285,4.173593 z m -3.597925,3.885759 q 0.921069,0 1.35282,-0.906677 0.431751,-0.921069 0.431751,-2.979082 0,-2.216322 -0.417359,-3.122999 -0.402968,-0.906677 -1.367212,-0.906677 -0.964244,0 -1.381603,0.921069 -0.417359,0.906677 -0.417359,3.108607 0,2.043622 0.431751,2.96469 0.431751,0.921069 1.367211,0.921069 z m 8.706968,1.424778 q -0.820327,0 -1.496736,-0.230267 -0.662019,-0.230267 -1.136945,-0.733976 -0.575668,-0.59006 -0.863502,-1.597479 -0.287834,-1.021811 -0.287834,-2.532939 0,-2.691248 0.978636,-4.173593 0.993027,-1.496737 2.835165,-1.496737 1.496736,0 2.317063,0.805935 0.834719,0.805935 0.921069,1.986055 h -1.755787 q -0.02878,-0.489318 -0.402968,-0.921069 -0.359792,-0.446143 -1.064986,-0.446143 -0.93546,0 -1.482345,1.021811 -0.532493,1.021811 -0.546884,2.532939 0.431751,-0.59006 1.050594,-0.892285 0.618843,-0.302226 1.395995,-0.302226 1.43917,0 2.259497,0.949852 0.820326,0.935461 0.820326,2.432197 0,1.727004 -0.978635,2.662465 -0.978636,0.93546 -2.561723,0.93546 z M 28.32846,41.47735 q 0,-0.892285 -0.489318,-1.453562 -0.474926,-0.575668 -1.252077,-0.575668 -0.849111,0 -1.35282,0.546885 -0.489318,0.532493 -0.518101,1.43917 0,1.007419 0.489317,1.583087 0.50371,0.561276 1.367212,0.561276 0.834718,0 1.295253,-0.546884 0.460534,-0.546885 0.460534,-1.554304 z"
           id="text3"
           aria-label="06" />
        <path
           style="font-weight:500;font-size:72px;line-height:1.25;font-family:'Noto Sans TC';-inkscape-font-specification:'Noto Sans TC Medium';white-space:pre;fill:#ffffff"
           d="m 191.76942,100.80941 h 34.848 v 6.264 h -34.848 z m 1.944,12.816 5.472,-2.304 q 1.512,2.16 2.952,4.68 1.512,2.52 2.808,4.896 1.368,2.304 2.088,4.176 l -5.76,2.736 q -0.72,-1.872 -2.016,-4.32 -1.224,-2.52 -2.736,-5.112 -1.44,-2.592 -2.808,-4.752 z m 18.504,-23.184004 h 6.84 v 43.056004 q 0,2.88 -0.72,4.392 -0.72,1.584 -2.592,2.376 -1.872,0.792 -4.824,1.008 -2.88,0.216 -7.128,0.216 -0.216,-1.44 -0.864,-3.384 -0.648,-1.944 -1.296,-3.384 2.952,0.144 5.544,0.216 2.664,0 3.528,0 0.864,-0.072 1.152,-0.36 0.36,-0.36 0.36,-1.152 z m -25.776,-0.864 6.624,1.872 q -1.728,4.824 -4.248,9.792004 -2.448,4.896 -5.544,9.36 -3.096,4.392 -6.768,7.776 -0.288,-0.864 -0.792,-2.016 -0.504,-1.224 -1.08,-2.376 -0.576,-1.224 -1.08,-1.944 2.952,-2.808 5.472,-6.552 2.52,-3.816 4.392,-7.992004 1.872,-4.176 3.024,-7.92 z m -17.136,-7.488 h 57.24 v 6.336 h -57.24 z m -3.528,0 h 6.84 v 24.480004 q 0,3.888 -0.216,8.568 -0.216,4.608 -0.936,9.432 -0.648,4.824 -1.944,9.288 -1.224,4.464 -3.384,8.064 -0.576,-0.648 -1.728,-1.44 -1.08,-0.792 -2.232,-1.512 -1.152,-0.648 -1.944,-1.008 1.944,-3.24 3.024,-7.2 1.08,-4.032 1.656,-8.208 0.576,-4.176 0.72,-8.28 0.144,-4.104 0.144,-7.704 z m 15.624,23.040004 5.904,-5.904004 0.504,0.144 v 42.048004 h -6.408 z m 9.648,-29.448004 6.84,-1.8 q 1.296,2.304 2.52,5.112 1.296,2.736 1.944,4.752 l -7.056,2.232 q -0.648,-2.088 -1.872,-4.968 -1.152,-2.952 -2.376,-5.328 z m 45.504,11.664 h 58.608 v 34.920004 h -7.056 V 94.041406 h -44.784 v 28.584004 h -6.768 z m 3.528,24.264004 h 52.056 v 6.696 h -52.056 z m 22.032,-36.936004 h 7.128 v 66.744004 h -7.128 z"
           id="text4"
           transform="matrix(0.26166763,0,0,0.26166763,-2.1314997,-4.0633201)"
           aria-label="府中" />
        <path
           style="font-size:7.32669px;line-height:1.25;font-family:'AR UDJingXiHeiE1G30 EB';-inkscape-font-specification:'AR UDJingXiHeiE1G30 EB';fill:#ffffff;stroke-width:0.261667"
           d="m 41.322437,38.534551 v 2.351868 h -0.930489 v -5.297197 h 3.714632 v 0.725342 h -2.784143 v 1.494645 h 2.447115 v 0.725342 z m 8.000753,0.498215 q 0,0.923163 -0.578809,1.436031 -0.578808,0.512869 -1.648505,0.512869 -1.08435,0 -1.670485,-0.505542 -0.578809,-0.505542 -0.578809,-1.436031 v -3.450871 h 0.93049 v 3.406911 q 0,0.600788 0.329701,0.930489 0.329701,0.329701 0.989103,0.329701 0.622769,0 0.95247,-0.315047 0.337027,-0.322375 0.337027,-0.959797 v -3.392257 h 0.937817 z m 1.062371,-3.443544 h 4.146906 v 0.666729 l -3.194437,3.905125 h 3.267704 v 0.725343 H 50.14378 V 40.21969 l 3.194437,-3.905126 h -2.952656 z m 6.007887,2.945329 v 2.351868 h -0.93049 v -5.297197 h 0.93049 v 2.219987 h 2.542362 v -2.219987 h 0.930489 v 5.297197 H 58.93581 v -2.351868 z m 9.781132,-0.271087 q 0,1.274844 -0.710689,2.000186 -0.703362,0.718016 -1.92692,0.718016 -1.245537,0 -1.948899,-0.725343 -0.703363,-0.725342 -0.703363,-1.992859 0,-1.289498 0.710689,-2.022167 0.710689,-0.739996 1.941573,-0.739996 1.245538,0 1.941573,0.732669 0.696036,0.732669 0.696036,2.029494 z m -2.637609,1.992859 q 0.79861,0 1.230884,-0.527521 0.439602,-0.527522 0.439602,-1.465338 0,-0.93049 -0.439602,-1.479992 -0.439601,-0.556828 -1.230884,-0.556828 -0.805936,0 -1.252864,0.564155 -0.439601,0.556828 -0.439601,1.472665 0,0.937816 0.446928,1.465338 0.446928,0.527521 1.245537,0.527521 z m 4.579183,-3.194437 v 3.824533 h -0.93049 v -5.297197 h 0.959797 l 2.600975,3.912452 v -3.912452 h 0.930489 v 5.297197 h -1.01841 z m 8.667472,3.179784 q -0.271088,0.380988 -0.681382,0.564155 -0.402968,0.175841 -0.923163,0.175841 -1.142964,0 -1.81702,-0.718016 -0.674055,-0.725342 -0.674055,-2.022166 0,-1.304151 0.710689,-2.022167 0.710689,-0.718016 1.919593,-0.718016 0.97445,0 1.582565,0.446929 0.615442,0.439601 0.739996,1.26019 h -0.93049 q -0.07327,-0.432274 -0.432275,-0.703362 -0.351681,-0.278414 -0.959796,-0.278414 -0.813263,0 -1.238211,0.527521 -0.424948,0.520195 -0.424948,1.487319 0,1.033063 0.446928,1.523951 0.446928,0.483562 1.216231,0.483562 0.674055,0 1.069697,-0.395642 0.395641,-0.395641 0.395641,-0.908509 v -0.109901 h -1.501972 v -0.725342 h 2.395828 v 2.776816 h -0.893856 z"
           id="text5"
           aria-label="FUZHONG" />
        <path
           d="m 43.127198,46.025679 h 3.546118 v 0.637422 h -3.546118 z m 0.117227,1.296824 0.556828,-0.227128 q 0.161187,0.212474 0.322374,0.468909 0.161188,0.249107 0.285741,0.498214 0.124554,0.241781 0.197821,0.439602 l -0.586135,0.271087 Q 43.955114,48.56804 43.83056,48.318933 43.706006,48.069825 43.552146,47.806064 43.398285,47.542303 43.244425,47.322503 Z m 1.941573,-2.300581 h 0.681382 v 4.403341 q 0,0.285741 -0.07327,0.439601 -0.07327,0.161187 -0.271088,0.241781 -0.190494,0.08059 -0.505541,0.102574 -0.307721,0.02198 -0.761976,0.02198 -0.01465,-0.139207 -0.08059,-0.337028 -0.06594,-0.190494 -0.139207,-0.329701 0.329701,0.0073 0.608115,0.01465 0.285741,0 0.380988,-0.0073 0.08792,0 0.124554,-0.03663 0.03663,-0.03663 0.03663,-0.117227 z m -2.666916,-0.08059 0.681383,0.190494 q -0.197821,0.468909 -0.476235,0.95247 -0.278415,0.476235 -0.622769,0.901183 -0.344354,0.424948 -0.739996,0.747322 -0.05129,-0.07327 -0.13188,-0.168513 -0.07327,-0.09525 -0.153861,-0.183168 -0.08059,-0.09525 -0.15386,-0.15386 0.359008,-0.285741 0.666729,-0.666729 0.307721,-0.388315 0.549501,-0.805936 0.241781,-0.417621 0.380988,-0.813263 z M 43.178484,43.41005 H 43.8965 v 1.201577 h -0.718016 z m -2.359194,0.791283 h 5.824719 v 0.644748 H 40.81929 Z m -0.359008,0 h 0.674056 v 2.022166 q 0,0.432275 -0.02931,0.95247 -0.02198,0.512868 -0.09525,1.06237 -0.07327,0.542175 -0.219801,1.055043 -0.139207,0.512869 -0.366334,0.945143 -0.06594,-0.06594 -0.175841,-0.139207 -0.102573,-0.07327 -0.2198,-0.146533 -0.109901,-0.06594 -0.190494,-0.102574 0.212474,-0.395641 0.337027,-0.857223 0.124554,-0.468908 0.183168,-0.95247 0.06594,-0.490888 0.08059,-0.952469 0.02198,-0.468909 0.02198,-0.871876 z m 1.523952,2.25662 0.608115,-0.608115 0.04396,0.02198 v 4.330074 h -0.652075 z m 5.678185,-1.758405 h 5.963926 v 3.553444 H 52.908329 V 45.38093 h -4.557201 v 2.908696 h -0.688709 z m 0.359008,2.469094 h 5.297197 v 0.681382 h -5.297197 z m 2.241967,-3.758592 h 0.725342 v 6.791842 h -0.725342 z"
           id="text5-9"
           style="font-weight:500;font-size:7.32669px;line-height:1.25;font-family:'Noto Sans JP';-inkscape-font-specification:'Noto Sans JP Medium';fill:#ffffff;stroke-width:0.261667"
           aria-label="府中" />
        <path
           style="font-weight:500;font-size:7.32669px;line-height:1.25;font-family:'Noto Sans KR';-inkscape-font-specification:'Noto Sans KR Medium';fill:#ffffff;stroke-width:0.261667"
           d="m 62.741238,43.929201 h 4.945516 v 0.615442 h -4.945516 z m 0.03663,2.300581 h 4.872249 v 0.615442 h -4.872249 z m 0.901183,-1.809693 h 0.769303 v 2.139394 h -0.769303 z m 2.300581,0 h 0.769302 v 2.139394 h -0.769302 z m -3.802552,3.09919 h 6.066499 v 0.630095 h -6.066499 z m 2.644935,0.278414 h 0.769302 v 2.483748 h -0.769302 z m 6.740556,-0.857223 h 0.769302 v 1.179598 h -0.769302 z m -2.637609,-0.256434 h 6.051846 v 0.615442 h -6.051846 z m 3.01127,1.208904 q 1.08435,0 1.692465,0.315048 0.615442,0.307721 0.615442,0.879203 0,0.571482 -0.615442,0.879203 -0.608115,0.307721 -1.692465,0.307721 -1.077024,0 -1.692466,-0.307721 -0.608115,-0.307721 -0.608115,-0.879203 0,-0.571482 0.608115,-0.879203 0.615442,-0.315048 1.692466,-0.315048 z m 0,0.593462 q -0.483562,0 -0.827916,0.07327 -0.344355,0.06594 -0.527522,0.197821 -0.17584,0.13188 -0.17584,0.329701 0,0.19782 0.17584,0.337027 0.183167,0.131881 0.527522,0.197821 0.344354,0.06594 0.827916,0.06594 0.498215,0 0.835242,-0.06594 0.344355,-0.06594 0.520195,-0.197821 0.175841,-0.139207 0.175841,-0.337027 0,-0.197821 -0.175841,-0.329701 -0.17584,-0.131881 -0.520195,-0.197821 -0.337027,-0.07327 -0.835242,-0.07327 z M 71.43802,44.178308 h 0.681382 v 0.183168 q 0,0.315047 -0.124554,0.593461 -0.124553,0.271088 -0.359008,0.505542 -0.234454,0.227127 -0.556828,0.410295 -0.322374,0.183167 -0.725342,0.300394 -0.395642,0.117227 -0.857223,0.168514 l -0.271088,-0.600789 q 0.395642,-0.03663 0.732669,-0.124553 0.344355,-0.09525 0.615442,-0.227128 0.271088,-0.13188 0.461582,-0.293067 0.190494,-0.168514 0.293067,-0.351682 0.109901,-0.190494 0.109901,-0.380987 z m 0.344354,0 h 0.681382 v 0.183168 q 0,0.19782 0.102574,0.388314 0.102574,0.183167 0.293068,0.344355 0.190494,0.161187 0.461581,0.293067 0.278414,0.131881 0.615442,0.227128 0.344355,0.08792 0.739996,0.124553 l -0.271088,0.600789 Q 73.943748,46.288395 73.54078,46.171168 73.145139,46.053941 72.815438,45.8781 72.493063,45.694933 72.258609,45.467806 72.031482,45.233352 71.906928,44.954937 71.782374,44.669197 71.782374,44.361476 Z m -2.307907,-0.293067 h 4.952842 v 0.608115 h -4.952842 z"
           id="text5-9-8"
           aria-label="푸중" />
        <path
           style="font-weight:500;font-size:72px;line-height:1.25;font-family:'Noto Sans TC';-inkscape-font-specification:'Noto Sans TC Medium';white-space:pre;fill:#f9f9f9"
           d="m 193.20942,89.865406 h 32.616 v 6.48 h -32.616 z m 12.528,-15.264 h 6.768 v 66.816004 h -6.768 z m -0.288,18.288 5.112,1.728 q -1.368,5.112 -3.312,10.296004 -1.944,5.184 -4.392,10.08 -2.448,4.824 -5.256,9 -2.736,4.104 -5.688,7.128 -0.648,-1.512 -1.872,-3.24 -1.152,-1.728 -2.088,-2.952 2.808,-2.736 5.472,-6.336 2.664,-3.672 4.968,-7.92 2.304,-4.248 4.104,-8.784 1.872,-4.536004 2.952,-9.000004 z m 7.632,0 q 1.512,5.904 3.816,11.808004 2.376,5.904 5.184,11.016 2.88,5.112 5.976,8.496 -1.224,0.936 -2.736,2.448 -1.512,1.512 -2.448,2.88 -2.952,-4.032 -5.76,-9.792 -2.736,-5.76 -4.968,-12.384 -2.232,-6.624 -3.744,-13.176004 z m -51.552,-3.024 h 28.944 v 6.48 h -28.944 z m 12.312,-15.264 h 6.696 v 66.816004 h -6.696 z m -0.432,19.368 4.536,1.656 q -1.08,4.392004 -2.664,9.072004 -1.512,4.68 -3.456,9.144 -1.872,4.464 -4.104,8.28 -2.16,3.816 -4.464,6.48 -0.576,-1.44 -1.656,-3.312 -1.08,-1.872 -1.944,-3.168 2.16,-2.448 4.248,-5.688 2.088,-3.24 3.888,-6.984 1.872,-3.816 3.312,-7.776 1.44,-3.960004 2.304,-7.704004 z m 6.984,3.672 q 0.72,0.576 1.872,1.944 1.224,1.296004 2.664,2.880004 1.44,1.584 2.808,3.24 1.44,1.656 2.592,3.024 1.152,1.296 1.656,1.872 l -4.392,5.904 q -0.864,-1.512 -2.304,-3.6 -1.368,-2.088 -3.024,-4.32 -1.584,-2.232 -3.096,-4.248 -1.44,-2.016 -2.448,-3.24 z m 55.008,-16.848 h 61.272 v 15.552 h -6.912 v -9.36 h -47.664 v 9.36 h -6.696 z m 9.792,11.808 h 41.184 v 5.904 h -41.184 z m 12.456,10.944004 5.184,-2.88 q 4.176,3.6 6.768,7.992 2.592,4.392 3.672,9 1.152,4.608 1.008,8.784 -0.072,4.176 -1.224,7.344 -1.152,3.168 -3.096,4.68 -1.8,1.728 -3.6,2.304 -1.728,0.576 -4.392,0.648 -1.152,0 -2.736,-0.072 -1.584,0 -3.24,-0.072 -0.072,-1.368 -0.576,-3.24 -0.432,-1.8 -1.296,-3.168 1.944,0.144 3.672,0.288 1.728,0.072 2.88,0.072 1.44,0 2.448,-0.288 1.008,-0.288 1.872,-1.296 1.152,-1.008 1.872,-3.384 0.72,-2.448 0.648,-5.688 0,-3.24 -1.008,-6.912 -0.936,-3.672 -3.096,-7.344 -2.088,-3.672 -5.76,-6.768 z m 7.56,-9.072004 5.688,2.376 q -3.744,3.744004 -9.072,6.912004 -5.328,3.096 -11.304,5.472 -5.904,2.376 -11.664,4.032 -0.36,-0.648 -1.008,-1.656 -0.648,-1.08 -1.368,-2.088 -0.648,-1.008 -1.224,-1.656 5.616,-1.296 11.304,-3.24 5.688,-1.944 10.584,-4.536 4.896,-2.592004 8.064,-5.616004 z m -2.448,13.680004 4.392,3.24 q -2.664,1.944 -6.12,3.96 -3.456,1.944 -7.416,3.816 -3.888,1.872 -7.848,3.456 -3.96,1.512 -7.488,2.664 -0.576,-1.152 -1.512,-2.664 -0.936,-1.584 -1.872,-2.664 3.456,-0.792 7.344,-2.088 3.888,-1.296 7.704,-2.88 3.888,-1.656 7.2,-3.384 3.312,-1.728 5.616,-3.456 z m 4.104,8.496 4.752,3.528 q -3.024,2.664 -7.056,5.328 -4.032,2.664 -8.64,5.04 -4.608,2.376 -9.432,4.392 -4.752,1.944 -9.216,3.24 -0.576,-1.224 -1.584,-2.88 -0.936,-1.656 -1.944,-2.808 4.392,-1.008 9.072,-2.664 4.68,-1.728 9.216,-3.816 4.536,-2.16 8.352,-4.536 3.888,-2.448 6.48,-4.824 z m 14.544,-4.536 q 1.512,4.608 4.104,8.712 2.664,4.032 6.264,7.2 3.6,3.096 7.992,4.824 -0.72,0.648 -1.584,1.656 -0.792,0.936 -1.584,1.944 -0.792,1.08 -1.296,1.944 -4.824,-2.232 -8.64,-5.904 -3.816,-3.672 -6.696,-8.424 -2.808,-4.824 -4.536,-10.512 z m 4.896,-11.592 5.544,4.464 q -3.096,2.52 -6.696,5.112 -3.6,2.52 -7.2,4.824 -3.6,2.304 -6.768,4.032 l -4.392,-3.888 q 3.096,-1.8 6.624,-4.248 3.6,-2.52 6.984,-5.184 3.456,-2.664 5.904,-5.112 z m -26.424,-24.408004 7.128,-2.088 q 1.152,1.944 2.304,4.392 1.224,2.376 1.656,4.104 l -7.488,2.304 q -0.432,-1.8 -1.512,-4.248 -1.008,-2.448 -2.088,-4.464 z m 79.2,19.368 h 6.768 v 35.136004 q 0,2.304 0.72,2.952 0.72,0.648 3.24,0.648 0.648,0 2.088,0 1.512,0 3.312,0 1.8,0 3.384,0 1.584,0 2.304,0 1.656,0 2.448,-0.792 0.792,-0.864 1.152,-3.24 0.36,-2.376 0.576,-6.912 1.08,0.864 2.88,1.656 1.872,0.72 3.24,1.08 -0.36,5.544 -1.296,8.784 -0.936,3.168 -2.952,4.464 -1.944,1.296 -5.472,1.296 -0.504,0 -1.8,0 -1.224,0 -2.808,0 -1.584,0 -3.24,0 -1.584,0 -2.808,0 -1.224,0 -1.728,0 -3.888,0 -6.048,-0.864 -2.16,-0.864 -3.096,-3.024 -0.864,-2.16 -0.864,-6.12 z m -16.344,-1.008 6.696,2.088 q -2.448,4.968004 -5.688,9.720004 -3.24,4.68 -6.912,8.784 -3.6,4.032 -7.272,7.128 -0.648,-0.648 -1.728,-1.512 -1.008,-0.936 -2.088,-1.8 -1.08,-0.936 -1.872,-1.44 3.744,-2.736 7.272,-6.336 3.528,-3.672 6.48,-7.92 2.952,-4.248004 5.112,-8.712004 z m 0,-19.8 h 6.768 v 19.8 h -6.768 z m 23.688,0 h 6.84 v 20.088 h -6.84 z m -29.376,34.056004 6.624,-6.696 0.072,0.072 v 39.384 h -6.696 z m -11.16,-27.216004 h 30.6 v 6.48 h -30.6 z m 33.192,0 h 30.6 v 6.408 h -30.6 z m 3.384,25.344004 h 27.072 v 6.408 h -27.072 z m 46.44,-10.584004 h 41.544 v 4.032004 h -41.544 z m 3.888,-7.704 h 34.272 v 3.96 h -34.272 z m 13.68,-3.6 h 6.192 v 13.68 h -6.192 z m -0.216,25.992004 4.68,1.728 q -2.376,2.088 -5.832,3.96 -3.456,1.8 -7.272,3.312 -3.744,1.44 -7.344,2.448 -0.288,-0.504 -0.936,-1.152 -0.576,-0.72 -1.224,-1.44 -0.648,-0.792 -1.224,-1.224 3.528,-0.864 7.128,-1.944 3.6,-1.152 6.768,-2.592 3.168,-1.44 5.256,-3.096 z m 20.232,3.6 4.248,2.664 q -2.376,1.728 -5.112,3.24 -2.736,1.512 -5.112,2.592 l -3.456,-2.376 q 1.512,-0.792 3.24,-1.872 1.8,-1.08 3.384,-2.16 1.656,-1.152 2.808,-2.088 z m -27.648,-8.568 v 4.104 h 21.816 v -4.104 z m -5.688,-3.312 h 33.552 v 10.656 h -33.552 z m -13.752,-25.056004 h 60.912 v 63.936004 h -6.696 V 83.817406 h -47.736 v 57.744004 h -6.48 z m 4.104,54.864004 h 53.712 v 6.192 h -53.712 z m 24.552,-15.624 4.176,-2.376 q 3.096,1.728 6.624,4.032 3.528,2.304 6.768,4.608 3.24,2.232 5.4,4.032 l -4.464,2.808 q -1.944,-1.8 -5.112,-4.104 -3.096,-2.376 -6.624,-4.68 -3.528,-2.376 -6.768,-4.32 z m -11.592,15.192 -0.288,-3.888 2.16,-1.8 14.112,-3.312 q -0.072,1.008 -0.072,2.232 0,1.224 0.072,2.016 -4.824,1.224 -7.848,2.088 -2.952,0.792 -4.608,1.296 -1.656,0.504 -2.376,0.864 -0.72,0.288 -1.152,0.504 z m 0,0 q -0.216,-0.864 -0.792,-2.016 -0.504,-1.224 -0.936,-1.8 0.792,-0.36 1.656,-1.152 0.936,-0.864 0.936,-2.808 v -8.136 h 5.04 v 11.88 q 0,0 -0.936,0.432 -0.864,0.36 -2.016,1.008 -1.152,0.576 -2.088,1.296 -0.864,0.648 -0.864,1.296 z"
           id="text4-0"
           transform="matrix(0.12803532,0,0,0.12803532,63.305436,6.3016433)"
           aria-label="林家花園" />
        <path
           style="font-size:3.28202px;line-height:1.25;font-family:'AR UDJingXiHeiE1G30 EB';-inkscape-font-specification:'AR UDJingXiHeiE1G30 EB';fill:#ffffff;stroke-width:0.117215"
           d="m 90.782233,24.292175 h -0.738454 v -0.32492 h 1.890443 v 0.32492 H 91.19905 v 2.04798 h -0.416817 z m 1.883879,0.994452 v 1.053528 h -0.416816 v -2.3729 h 0.416816 v 0.994452 h 1.138861 v -0.994452 h 0.416817 v 2.3729 h -0.416817 v -1.053528 z m 3.856375,1.053528 h -1.755881 v -2.3729 h 1.746035 v 0.32492 h -1.329218 v 0.669532 h 1.240603 v 0.32492 h -1.240603 v 0.728608 h 1.339064 z m 2.966945,0 h -1.667266 v -2.3729 h 0.416816 v 2.04798 h 1.25045 z m 0.761428,-2.3729 v 2.3729 h -0.416814 v -2.3729 z m 0.96163,0.659686 v 1.713214 h -0.41681 v -2.3729 h 0.42994 l 1.16512,1.752598 v -1.752598 h 0.41681 v 2.3729 h -0.4562 z m 3.41658,0.659686 v 1.053528 h -0.41682 v -2.3729 h 1.66399 v 0.32492 h -1.24717 v 0.669532 h 1.09619 v 0.32492 z m 2.85864,0.09518 -0.37415,-1.014144 -0.38071,1.014144 z m -0.8763,0.32492 -0.2363,0.63343 h -0.42338 l 0.95507,-2.3729 h 0.42666 l 0.9485,2.3729 h -0.43322 l -0.23959,-0.63343 z m 2.34665,-1.076502 v 1.709932 h -0.40369 v -2.3729 h 0.5284 l 0.68266,1.841213 0.65641,-1.841213 h 0.54153 v 2.3729 h -0.40697 v -1.72306 l -0.61702,1.72306 h -0.35118 z m 2.96694,-0.662968 v 2.3729 h -0.41682 v -2.3729 z m 2.21208,2.3729 h -1.66727 v -2.3729 h 0.41682 v 2.04798 h 1.25045 z m 1.22419,-1.322654 0.6761,-1.050246 h 0.46605 l -0.93538,1.394858 v 0.978042 h -0.41681 v -0.978042 l -0.95179,-1.394858 h 0.47589 z m 2.67157,-0.387278 v 1.709932 h -0.40369 v -2.3729 h 0.52841 l 0.68266,1.841213 0.6564,-1.841213 h 0.54153 v 2.3729 h -0.40697 v -1.72306 l -0.61702,1.72306 h -0.35117 z m 3.81371,0.751582 -0.37415,-1.014144 -0.38072,1.014144 z m -0.8763,0.32492 -0.23631,0.63343 h -0.42338 l 0.95507,-2.3729 h 0.42666 l 0.9485,2.3729 h -0.43322 l -0.23959,-0.63343 z m 2.35976,-1.079784 v 1.713214 h -0.41681 v -2.3729 h 0.42994 l 1.16512,1.752598 v -1.752598 h 0.41682 v 2.3729 h -0.45621 z m 2.92757,0.639994 q -0.43323,-0.07877 -0.64328,-0.24287 -0.21005,-0.164101 -0.21005,-0.459483 0,-0.275689 0.22318,-0.4562 0.22646,-0.180512 0.69579,-0.180512 0.42994,0 0.66625,0.183794 0.2363,0.183793 0.25928,0.531687 h -0.41682 q -0.003,-0.167383 -0.13128,-0.278972 -0.128,-0.111589 -0.39056,-0.111589 -0.24615,0 -0.36431,0.08205 -0.11815,0.08205 -0.11487,0.229741 0,0.160819 0.15754,0.239588 0.16082,0.07877 0.52184,0.150973 0.45292,0.0919 0.64328,0.249433 0.19364,0.157537 0.19364,0.472611 0,0.301946 -0.256,0.505431 -0.256,0.200203 -0.72861,0.200203 -0.48246,0 -0.75158,-0.203485 -0.26913,-0.203485 -0.26913,-0.587481 h 0.41682 q 0,0.213331 0.16082,0.34133 0.16082,0.124716 0.44635,0.124716 0.26256,0 0.41025,-0.101742 0.1477,-0.101743 0.1477,-0.265844 0,-0.190357 -0.1477,-0.272407 -0.14769,-0.08205 -0.51855,-0.150973 z m 1.897,-1.29968 v 2.3729 h -0.41681 v -2.3729 z m 2.82582,1.197937 q 0,0.571071 -0.31836,0.895991 -0.31507,0.321638 -0.86317,0.321638 -0.55794,0 -0.87302,-0.32492 -0.31507,-0.32492 -0.31507,-0.892709 0,-0.577636 0.31836,-0.905838 0.31835,-0.331484 0.86973,-0.331484 0.55794,0 0.86974,0.328202 0.31179,0.328202 0.31179,0.90912 z m -1.18153,0.892709 q 0.35774,0 0.55138,-0.236305 0.19692,-0.236305 0.19692,-0.656404 0,-0.416817 -0.19692,-0.662968 -0.19692,-0.249434 -0.55138,-0.249434 -0.36102,0 -0.56122,0.252716 -0.19693,0.249433 -0.19693,0.659686 0,0.420099 0.20021,0.656404 0.2002,0.236305 0.55794,0.236305 z m 2.05127,-1.43096 v 1.713214 h -0.41682 v -2.3729 h 0.42994 l 1.16512,1.752598 v -1.752598 h 0.41682 v 2.3729 h -0.4562 z m 4.26333,0.754864 -0.37415,-1.014144 -0.38071,1.014144 z m -0.8763,0.32492 -0.2363,0.63343 h -0.42338 l 0.95507,-2.3729 h 0.42666 l 0.9485,2.3729 h -0.43322 l -0.23959,-0.63343 z m 2.35977,-1.079784 v 1.713214 h -0.41681 v -2.3729 h 0.42994 l 1.16512,1.752598 v -1.752598 h 0.41681 v 2.3729 h -0.4562 z m 4.1616,0.498867 q 0,0.590763 -0.27897,0.902555 -0.27569,0.311792 -0.77127,0.311792 h -0.97148 v -2.3729 h 0.97148 q 0.49558,0 0.77127,0.292099 0.27897,0.2921 0.27897,0.866454 z m -0.43322,0 q 0,-0.429945 -0.17723,-0.630148 -0.17395,-0.203485 -0.50871,-0.203485 h -0.48574 v 1.72306 h 0.48902 q 0.32164,0 0.50215,-0.213331 0.18051,-0.213331 0.18051,-0.676096 z m 3.49206,0.925529 q -0.12144,0.170665 -0.30523,0.252716 -0.18051,0.07877 -0.41353,0.07877 -0.512,0 -0.81394,-0.321638 -0.30195,-0.32492 -0.30195,-0.905837 0,-0.5842 0.31836,-0.905838 0.31835,-0.321638 0.85989,-0.321638 0.4365,0 0.70891,0.200204 0.27569,0.196921 0.33149,0.564507 h -0.41682 q -0.0328,-0.193639 -0.19364,-0.315074 -0.15754,-0.124717 -0.42994,-0.124717 -0.36431,0 -0.55467,0.236306 -0.19035,0.233023 -0.19035,0.66625 0,0.462765 0.2002,0.68266 0.2002,0.216613 0.54482,0.216613 0.30194,0 0.47917,-0.177229 0.17723,-0.177229 0.17723,-0.40697 v -0.04923 h -0.67281 v -0.32492 h 1.07322 v 1.243885 h -0.40041 z m 2.15628,-0.669532 -0.37415,-1.014144 -0.38071,1.014144 z m -0.87629,0.32492 -0.23631,0.63343 h -0.42338 l 0.95507,-2.3729 h 0.42666 l 0.9485,2.3729 h -0.43322 l -0.23959,-0.63343 z m 3.4297,-1.060092 q 0,-0.173947 -0.0919,-0.262562 -0.0919,-0.0919 -0.26585,-0.0919 h -0.7122 v 0.738454 h 0.68923 q 0.17066,0 0.27569,-0.101742 0.10502,-0.101743 0.10502,-0.282254 z m -1.06994,0.705634 v 0.987888 h -0.41681 v -2.3729 h 1.20778 q 0.32492,0 0.51528,0.173947 0.19364,0.170665 0.19364,0.485739 0,0.206767 -0.0985,0.354458 -0.0952,0.147691 -0.23959,0.210049 0.18379,0.105025 0.28225,0.364304 0.0985,0.25928 0.12472,0.784403 h -0.43323 q -0.0197,-0.551379 -0.12143,-0.767993 -0.0985,-0.219895 -0.31836,-0.219895 z m 4.00407,-0.226459 q 0,0.590763 -0.27897,0.902555 -0.27569,0.311792 -0.77127,0.311792 h -0.97148 v -2.3729 h 0.97148 q 0.49558,0 0.77127,0.292099 0.27897,0.2921 0.27897,0.866454 z m -0.43322,0 q 0,-0.429945 -0.17723,-0.630148 -0.17395,-0.203485 -0.50871,-0.203485 h -0.48574 v 1.72306 h 0.48902 q 0.32164,0 0.50215,-0.213331 0.18051,-0.213331 0.18051,-0.676096 z m 2.6453,1.214347 h -1.75588 v -2.3729 h 1.74604 v 0.32492 h -1.32922 v 0.669532 h 1.2406 v 0.32492 h -1.2406 v 0.728608 h 1.33906 z m 0.85661,-1.713214 v 1.713214 h -0.41681 v -2.3729 h 0.42994 l 1.16512,1.752598 v -1.752598 h 0.41681 v 2.3729 h -0.4562 z"
           id="text5-8"
           transform="scale(0.9322005,1.0727306)"
           aria-label="THE LIN FAMILY MANSION AND GARDEN" />
        <path
           d="m 85.419783,30.216652 h 1.470107 v 0.292075 h -1.470107 z m 0.564677,-0.687997 h 0.305055 v 3.011611 H 85.98446 Z m -0.01298,0.824299 0.230415,0.07789 q -0.06166,0.230414 -0.149283,0.464074 -0.08762,0.233659 -0.197961,0.454338 -0.110339,0.217433 -0.236905,0.405658 -0.12332,0.184981 -0.256376,0.321282 -0.02921,-0.06815 -0.08438,-0.146037 -0.05192,-0.07789 -0.09411,-0.133056 0.126565,-0.12332 0.24664,-0.285584 0.120075,-0.165509 0.223924,-0.35698 0.103849,-0.19147 0.18498,-0.395922 0.08438,-0.204452 0.133056,-0.405659 z m 0.343999,0 q 0.06815,0.266112 0.171999,0.532224 0.107094,0.266112 0.23366,0.496526 0.129811,0.230415 0.269357,0.382942 -0.05517,0.04219 -0.12332,0.110339 -0.06815,0.06815 -0.110339,0.129811 -0.133056,-0.181735 -0.259622,-0.441357 -0.12332,-0.259621 -0.223923,-0.558186 -0.100604,-0.298565 -0.168754,-0.593884 z m -2.323613,-0.136302 h 1.304598 v 0.292075 h -1.304598 z m 0.554941,-0.687997 h 0.30181 v 3.011611 h -0.30181 z m -0.01947,0.872978 0.204452,0.07464 q -0.04868,0.197962 -0.120075,0.408904 -0.06815,0.210943 -0.155773,0.412149 -0.08438,0.201207 -0.18498,0.373206 -0.09736,0.172 -0.201207,0.292075 -0.02596,-0.06491 -0.07464,-0.149283 -0.04868,-0.08438 -0.08762,-0.142792 0.09736,-0.110339 0.191471,-0.256376 0.09411,-0.146037 0.175244,-0.314791 0.08438,-0.171999 0.149283,-0.350489 0.0649,-0.17849 0.103848,-0.347244 z m 0.314791,0.165509 q 0.03245,0.02596 0.08438,0.08762 0.05517,0.05842 0.120075,0.129811 0.0649,0.0714 0.126565,0.146037 0.0649,0.07464 0.11683,0.136301 0.05192,0.05842 0.07464,0.08438 l -0.197962,0.266112 q -0.03894,-0.06815 -0.103848,-0.162263 -0.06166,-0.09411 -0.136301,-0.194716 -0.0714,-0.100604 -0.139547,-0.191471 -0.06491,-0.09087 -0.110339,-0.146037 z M 88.531997,29.5319 h 0.318036 v 0.447848 h -0.318036 z m -1.19426,0.275848 h 2.729272 v 0.681507 h -0.314791 v -0.402413 h -2.112671 v 0.402413 h -0.30181 z m 0.451093,0.551696 h 1.794634 v 0.266112 H 87.78883 Z m 0.379696,0.528979 0.23366,-0.142792 q 0.220678,0.159019 0.356979,0.35698 0.139547,0.194716 0.201207,0.399168 0.06491,0.201207 0.06166,0.386187 0,0.184981 -0.05841,0.327773 -0.05517,0.142792 -0.155773,0.214188 -0.08762,0.0714 -0.171999,0.09411 -0.08113,0.02596 -0.201207,0.02596 -0.05841,0.0032 -0.12981,0 -0.0714,-0.0032 -0.149283,-0.0065 -0.0032,-0.06166 -0.02596,-0.146037 -0.01947,-0.08438 -0.06166,-0.149283 0.09087,0.0097 0.168754,0.01298 0.08113,0.0032 0.139547,0.0032 0.06491,0 0.116829,-0.0097 0.05192,-0.01298 0.09736,-0.05517 0.06166,-0.04543 0.09411,-0.149282 0.0357,-0.103849 0.02596,-0.243395 -0.0065,-0.142792 -0.0649,-0.30181 -0.05517,-0.159019 -0.171999,-0.318037 -0.11683,-0.159018 -0.305056,-0.298565 z m 0.496527,-0.464073 0.256376,0.107094 q -0.168754,0.168754 -0.408904,0.3083 -0.24015,0.139547 -0.509508,0.246641 -0.266112,0.103848 -0.525733,0.17849 -0.01623,-0.02921 -0.04543,-0.07464 -0.02921,-0.04868 -0.06166,-0.09411 -0.02921,-0.04543 -0.05517,-0.07464 0.253131,-0.05517 0.509508,-0.142791 0.256376,-0.08762 0.477054,-0.201207 0.220679,-0.11683 0.363471,-0.253131 z m -0.236905,0.629582 0.197961,0.139547 q -0.133056,0.110339 -0.327772,0.223923 -0.191471,0.11034 -0.402413,0.207698 -0.207698,0.09736 -0.389433,0.162263 -0.02596,-0.05192 -0.0714,-0.120075 -0.04543,-0.06815 -0.08762,-0.113584 0.136301,-0.0357 0.285584,-0.09087 0.152527,-0.05517 0.298565,-0.120075 0.149282,-0.06815 0.275847,-0.139546 0.129811,-0.07464 0.220679,-0.149283 z m 0.249886,0.324527 0.210942,0.159018 q -0.129811,0.123321 -0.305055,0.249886 -0.175245,0.126566 -0.379697,0.24015 -0.201207,0.113585 -0.408904,0.207697 -0.207697,0.09411 -0.399168,0.159019 -0.02921,-0.05517 -0.07464,-0.129811 -0.04543,-0.07464 -0.09087,-0.12332 0.194716,-0.05192 0.399168,-0.133057 0.207698,-0.08113 0.402414,-0.181735 0.194716,-0.103848 0.360225,-0.217433 0.168754,-0.116829 0.285584,-0.230414 z m 0.379696,-0.908676 q 0.08762,0.35049 0.236905,0.662036 0.152528,0.3083 0.373206,0.54196 0.223924,0.233659 0.525734,0.360225 -0.0357,0.02921 -0.07789,0.07789 -0.03894,0.04543 -0.07789,0.09736 -0.0357,0.04868 -0.05841,0.09087 -0.314791,-0.155773 -0.545205,-0.415395 -0.227169,-0.262867 -0.382942,-0.606865 -0.152528,-0.347244 -0.249886,-0.756148 z m 0.746412,0.227169 0.24015,0.204452 q -0.110339,0.08762 -0.24015,0.17849 -0.12981,0.08762 -0.259621,0.168754 -0.129811,0.07789 -0.24015,0.136302 l -0.194716,-0.184981 q 0.107093,-0.06166 0.233659,-0.146037 0.129811,-0.08762 0.249886,-0.181735 0.12332,-0.09411 0.210942,-0.175245 z m 1.453881,-0.272602 0.30181,0.09411 q -0.110339,0.223923 -0.259621,0.438111 -0.149283,0.214188 -0.318037,0.399168 -0.168754,0.184981 -0.337508,0.324527 -0.02921,-0.02921 -0.07464,-0.0714 -0.04543,-0.04219 -0.09411,-0.08113 -0.04868,-0.03894 -0.08762,-0.06491 0.175245,-0.120075 0.334263,-0.285584 0.162263,-0.165508 0.298565,-0.356979 0.139546,-0.194717 0.236904,-0.395923 z m 0.710714,0.04219 h 0.305056 v 1.580447 q 0,0.103848 0.03245,0.133056 0.03245,0.02921 0.152527,0.02921 0.02596,0 0.09411,0 0.0714,0 0.155773,0 0.08438,0 0.155773,0 0.07464,0 0.110339,0 0.0714,0 0.107094,-0.0357 0.03894,-0.03894 0.05517,-0.146037 0.01623,-0.107094 0.02596,-0.311546 0.0357,0.02596 0.08438,0.05193 0.04868,0.02596 0.100603,0.04543 0.05517,0.01623 0.09411,0.02596 -0.01623,0.253132 -0.06166,0.399169 -0.04219,0.142792 -0.133056,0.201206 -0.08762,0.05842 -0.249886,0.05842 -0.02596,0 -0.08438,0 -0.05517,0 -0.129811,0 -0.07464,0 -0.149282,0 -0.0714,0 -0.129811,0 -0.05841,0 -0.07789,0 -0.17849,0 -0.279094,-0.04219 -0.09736,-0.03894 -0.139546,-0.136302 -0.03894,-0.09736 -0.03894,-0.275848 z m 1.113128,0.253131 0.23366,0.236905 q -0.155773,0.09736 -0.347244,0.194716 -0.188226,0.09411 -0.389433,0.181735 -0.197961,0.08762 -0.389432,0.165509 -0.01623,-0.04868 -0.04868,-0.11683 -0.02921,-0.06815 -0.06166,-0.113584 0.181735,-0.07464 0.366715,-0.165509 0.184981,-0.09411 0.350489,-0.191471 0.168754,-0.09736 0.285584,-0.191471 z m -2.576744,-0.902185 h 2.868818 v 0.29532 H 90.505121 Z M 91.258023,29.5319 h 0.305056 v 0.908676 h -0.305056 z m 1.067694,0 h 0.305056 v 0.921657 h -0.305056 z m -1.32407,1.535013 0.298565,-0.30181 0.0032,0.0032 v 1.775163 h -0.30181 z m 3.23878,-0.561432 h 1.87252 v 0.181736 h -1.87252 z m 0.175244,-0.347243 h 1.544749 v 0.178489 h -1.544749 z m 0.616602,-0.162264 h 0.279093 v 0.616601 h -0.279093 z m -0.03894,1.38573 h 0.272603 v 0.671771 h -0.272603 z m 0.298565,-0.05841 q 0.08762,0.113584 0.230414,0.217433 0.142792,0.100603 0.314792,0.181735 0.171999,0.07789 0.347243,0.120075 -0.03894,0.0357 -0.08762,0.09736 -0.04543,0.05842 -0.0714,0.100603 -0.181735,-0.05842 -0.360225,-0.155773 -0.175244,-0.09736 -0.324527,-0.220678 -0.149282,-0.126566 -0.249886,-0.266112 z m -0.126565,-0.11034 0.236904,0.08438 q -0.12332,0.142792 -0.298564,0.269358 -0.175245,0.12332 -0.369961,0.223923 -0.194716,0.100604 -0.386187,0.175245 -0.01947,-0.02921 -0.05192,-0.0649 -0.02921,-0.03894 -0.06166,-0.07464 -0.03245,-0.03894 -0.05841,-0.06166 0.188226,-0.05842 0.376452,-0.139546 0.188225,-0.08438 0.347244,-0.188226 0.162263,-0.103849 0.266112,-0.223924 z m 0.749657,0.08113 0.188226,0.11683 q -0.103849,0.08762 -0.230414,0.168754 -0.123321,0.07789 -0.230415,0.133056 L 95.48661,31.605628 q 0.06815,-0.04219 0.146038,-0.09736 0.08113,-0.05517 0.155772,-0.110339 0.07464,-0.05842 0.126566,-0.103849 z m -1.226712,-0.311546 v 0.220679 h 0.983317 v -0.220679 z m -0.256376,-0.165509 h 1.512295 v 0.554942 h -1.512295 z m -0.619847,-1.15207 h 2.745498 v 2.881799 h -0.30181 V 29.94405 h -2.151614 v 2.602706 h -0.292074 z m 0.18498,2.472895 h 2.420972 v 0.279094 h -2.420972 z"
           id="text5-9-1"
           style="font-weight:500;font-size:3.24527px;line-height:1.25;font-family:'Noto Sans JP';-inkscape-font-specification:'Noto Sans JP Medium';fill:#f9f9f9;stroke-width:0.115903"
           aria-label="林家花園" />
        <path
           style="font-weight:500;font-size:3.24527px;line-height:1.25;font-family:'Noto Sans kr';-inkscape-font-specification:'Noto Sans kr Medium';fill:#f9f9f9;stroke-width:0.115903"
           d="m 101.52978,29.656158 h 0.34076 v 1.687541 h -0.34076 z m -1.59667,1.833578 h 1.93743 v 1.093656 h -1.93743 z m 1.60641,0.272603 h -1.27539 v 0.551696 h 1.27539 z m -1.2689,-1.960143 q 0.22717,0 0.40566,0.09087 0.17849,0.08762 0.27909,0.246641 0.10385,0.155773 0.10385,0.36347 0,0.207697 -0.10385,0.366715 -0.1006,0.155773 -0.27909,0.246641 -0.17849,0.08762 -0.40566,0.08762 -0.22717,0 -0.405661,-0.08762 -0.17849,-0.09087 -0.282339,-0.246641 -0.100603,-0.159018 -0.100603,-0.366715 0,-0.207697 0.100603,-0.36347 0.103849,-0.159019 0.282339,-0.246641 0.178491,-0.09087 0.405661,-0.09087 z m 0,0.282338 q -0.12981,0 -0.23366,0.05192 -0.10385,0.05193 -0.162265,0.146037 -0.05841,0.09411 -0.05841,0.220679 0,0.126565 0.05841,0.220678 0.05841,0.09411 0.162265,0.146037 0.10385,0.05193 0.23366,0.05193 0.13305,0 0.23366,-0.05193 0.10385,-0.05192 0.16226,-0.146037 0.0617,-0.09411 0.0617,-0.220678 0,-0.126566 -0.0617,-0.220679 -0.0584,-0.09411 -0.16226,-0.146037 -0.10061,-0.05192 -0.23366,-0.05192 z m 4.09877,-0.431621 h 0.34076 v 2.966177 h -0.34076 z m 0.25313,1.171543 h 0.53547 v 0.282338 h -0.53547 z m -1.01901,-0.856752 h 0.33102 q 0,0.431621 -0.13306,0.824299 -0.12981,0.389432 -0.42513,0.717205 -0.29207,0.327772 -0.77886,0.571167 l -0.18823,-0.259622 q 0.40241,-0.207697 0.66528,-0.473809 0.26611,-0.266112 0.39592,-0.59713 0.13306,-0.331017 0.13306,-0.72694 z m -1.04498,0 h 1.22022 v 0.275848 h -1.22022 z m 3.5698,1.450636 h 0.34075 v 0.4803 h -0.34075 z m 1.24618,-1.762182 h 0.34076 v 2.966177 h -0.34076 z m 0.22717,1.233203 h 0.53547 v 0.282338 h -0.53547 z m -2.19055,1.197505 -0.0454,-0.279094 q 0.26287,0 0.57441,-0.0032 0.31155,-0.0032 0.63932,-0.02272 0.32778,-0.01947 0.62959,-0.06166 l 0.026,0.246641 q -0.31479,0.05841 -0.63932,0.08438 -0.32453,0.02596 -0.62634,0.03245 -0.30181,0.0032 -0.55818,0.0032 z m 0.006,-2.086709 h 1.75893 v 0.269357 h -1.75893 z m 0.88271,0.415395 q 0.2077,0 0.36672,0.07139 0.16226,0.06815 0.25313,0.191471 0.0909,0.123321 0.0909,0.292075 0,0.165508 -0.0909,0.292074 -0.0909,0.12332 -0.25313,0.191471 -0.15902,0.06815 -0.36672,0.06815 -0.21094,0 -0.37321,-0.06815 -0.15901,-0.06815 -0.24988,-0.191471 -0.0876,-0.126566 -0.0876,-0.292074 0,-0.168754 0.0876,-0.292075 0.0909,-0.12332 0.24988,-0.191471 0.16227,-0.07139 0.37321,-0.07139 z m 0,0.259621 q -0.17524,0 -0.28234,0.08113 -0.10709,0.07789 -0.10709,0.214188 0,0.136301 0.10709,0.214188 0.1071,0.07789 0.28234,0.07789 0.17524,0 0.28234,-0.07789 0.10709,-0.07789 0.10709,-0.214188 0,-0.136302 -0.10709,-0.214188 -0.1071,-0.08113 -0.28234,-0.08113 z m -0.172,-1.012524 h 0.34075 v 0.528979 h -0.34075 z m 3.06678,1.499315 h 0.33751 v 0.652299 h -0.33751 z m 1.3046,-1.505806 h 0.34075 v 2.248972 h -0.34075 z m -1.73298,2.628669 h 2.14513 v 0.275848 h -2.14513 z m 0,-0.59713 h 0.34076 v 0.671771 h -0.34076 z M 108.413,31.275548 108.37081,30.9997 q 0.2726,-0.0032 0.59389,-0.0065 0.32128,-0.0065 0.65554,-0.02272 0.33751,-0.01947 0.64905,-0.05842 l 0.026,0.243395 q -0.31804,0.05192 -0.6523,0.07789 -0.33102,0.02596 -0.64581,0.03245 -0.31479,0.0065 -0.58415,0.0097 z m 1.50581,0.11683 h 0.66528 v 0.24015 h -0.66528 z m -0.59064,-1.62588 q 0.22067,0 0.38294,0.06491 0.16551,0.0649 0.25637,0.18498 0.0941,0.11683 0.0941,0.272603 0,0.155773 -0.0941,0.275848 -0.0909,0.120075 -0.25637,0.18498 -0.16227,0.06166 -0.38294,0.06166 -0.21419,0 -0.38295,-0.06166 -0.1655,-0.0649 -0.25962,-0.18498 -0.0909,-0.120075 -0.0909,-0.275848 0,-0.155773 0.0909,-0.272603 0.0941,-0.120075 0.25962,-0.18498 0.16876,-0.06491 0.38295,-0.06491 z m 0,0.249885 q -0.18174,0 -0.29857,0.07464 -0.11358,0.0714 -0.11358,0.197961 0,0.126566 0.11358,0.201207 0.11683,0.0714 0.29857,0.0714 0.18173,0 0.29532,-0.0714 0.11358,-0.07464 0.11358,-0.201207 0,-0.08438 -0.0519,-0.142792 -0.0519,-0.06166 -0.1428,-0.09411 -0.0909,-0.0357 -0.21418,-0.0357 z"
           id="text5-9-1-0"
           aria-label="임가화원" />
        <path
           id="rect2"
           style="fill:#ffffff;stroke-width:0.757875"
           d="m 79.530052,15.788728 h 1.0501 v 16.764515 h -1.0501 z" />
      </g>
    </g>
    <text
       xml:space="preserve"
       transform="matrix(0.31615295,0,0,0.31615295,-10.474341,-6.4462013)"
       id="text6"
       style="font-size:55px;line-height:1.25;font-family:'Microsoft JhengHei';-inkscape-font-specification:'Microsoft JhengHei';white-space:pre;shape-inside:url(#rect6);display:inline" />
  </g>
</svg>
