<?xml version="1.0" encoding="UTF-8" standalone="no"?>
<!-- Created with Inkscape (http://www.inkscape.org/) -->

<svg
   width="500"
   height="250"
   viewBox="0 0 132.29166 66.145833"
   version="1.1"
   id="svg1"
   inkscape:version="1.3.2 (091e20e, 2023-11-25, custom)"
   sodipodi:docname="bl07.svg"
   xmlns:inkscape="http://www.inkscape.org/namespaces/inkscape"
   xmlns:sodipodi="http://sodipodi.sourceforge.net/DTD/sodipodi-0.dtd"
   xmlns="http://www.w3.org/2000/svg"
   xmlns:svg="http://www.w3.org/2000/svg">
  <sodipodi:namedview
     id="namedview1"
     pagecolor="#9e652e"
     bordercolor="#ffffff"
     borderopacity="1"
     inkscape:showpageshadow="0"
     inkscape:pageopacity="0"
     inkscape:pagecheckerboard="false"
     inkscape:deskcolor="#d1d1d1"
     inkscape:document-units="mm"
     inkscape:zoom="2.0208096"
     inkscape:cx="300.37466"
     inkscape:cy="106.88785"
     inkscape:window-width="1920"
     inkscape:window-height="1009"
     inkscape:window-x="1912"
     inkscape:window-y="-8"
     inkscape:window-maximized="1"
     inkscape:current-layer="g1" />
  <defs
     id="defs1">
    <rect
       x="560.66638"
       y="34.144731"
       width="279.32397"
       height="128.59143"
       id="rect6" />
    <rect
       x="157.85752"
       y="62.351248"
       width="329.07603"
       height="135.09437"
       id="rect4" />
    <rect
       x="157.85751"
       y="62.35125"
       width="329.07602"
       height="135.09438"
       id="rect4-5" />
    <rect
       x="157.85751"
       y="62.35125"
       width="329.07602"
       height="135.09438"
       id="rect4-5-1" />
  </defs>
  <g
     inkscape:label="Layer 1"
     inkscape:groupmode="layer"
     id="layer1">
    <rect
       style="fill:#005fb9;fill-opacity:1;stroke:none;stroke-width:0.953294;stroke-dasharray:none"
       id="rect5"
       width="132.29167"
       height="66.145836"
       x="-2.5431316e-06"
       y="-1.2715658e-06"
       ry="0" />
    <g
       id="g1"
       transform="translate(23.862138)">
      <g
         id="g2"
         transform="matrix(1.1262533,0,0,1.1262533,27.636283,-4.1755661)">
        <path
           id="rect1"
           style="fill-opacity:0;stroke:#ffffff;stroke-width:0.852742"
           d="m -13.341858,16.140778 h 11.2384172 c 3.5519819,0 6.4115196,2.859537 6.4115196,6.411519 v 21.041242 c 0,3.551982 -2.8595377,6.411519 -6.4115196,6.411519 H -13.341858 c -3.551982,0 -6.41152,-2.859537 -6.41152,-6.411519 V 22.552297 c 0,-3.551982 2.859538,-6.411519 6.41152,-6.411519 z" />
        <path
           style="font-size:11.3604px;line-height:1.25;font-family:'AR UDJingXiHeiE1G30 EB';-inkscape-font-specification:'AR UDJingXiHeiE1G30 EB';fill:#ffffff;stroke-width:0.236675"
           d="m -10.977417,30.76588 h -4.316952 v -8.213569 h 3.95342 q 1.170121,0 1.8517449,0.56802 0.681624,0.56802 0.681624,1.510933 0,0.613462 -0.2726496,1.079238 -0.2612892,0.454416 -0.795228,0.749787 0.6929844,0.272649 1.0451568,0.749786 0.3635328,0.477137 0.3635328,1.13604 0,1.090599 -0.7157052,1.760862 -0.7157052,0.658903 -1.7949437,0.658903 z m 0.670264,-5.952849 q 0,-0.55666 -0.318091,-0.84067 -0.318091,-0.29537 -0.920193,-0.29537 h -2.306161 v 2.317521 h 2.385684 q 0.511218,0 0.829309,-0.29537 0.329452,-0.306731 0.329452,-0.886111 z m 0.3408121,3.521724 q 0,-0.590741 -0.3635331,-0.897472 -0.352172,-0.318091 -0.931553,-0.318091 h -2.590171 v 2.522009 h 2.567451 q 0.602101,0 0.954273,-0.329452 0.3635331,-0.329451 0.3635331,-0.976994 z m 8.7134347,2.431125 h -5.7710833 v -8.213569 h 1.4427708 v 7.08889 h 4.3283125 z"
           id="text2"
           aria-label="BL" />
        <path
           style="font-size:13.0171px;line-height:1.25;font-family:'AR UDJingXiHeiE1G30 EB';-inkscape-font-specification:'AR UDJingXiHeiE1G30 EB';fill:#ffffff;stroke-width:0.236675"
           d="m -8.2954382,39.060514 q 0,2.460232 -0.7940431,3.631771 -0.7940431,1.171539 -2.4602317,1.171539 -1.614121,0 -2.447215,-1.171539 -0.833095,-1.171539 -0.833095,-3.631771 0,-2.629454 0.794044,-3.774959 0.794043,-1.158522 2.486266,-1.158522 1.6531715,0 2.4472146,1.158522 0.8070602,1.145505 0.8070602,3.774959 z m -3.2542748,3.514617 q 0.833094,0 1.223607,-0.820077 0.3905132,-0.833095 0.3905132,-2.69454 0,-2.004634 -0.3774962,-2.824711 -0.364479,-0.820077 -1.236624,-0.820077 -0.872146,0 -1.249642,0.833094 -0.377496,0.820078 -0.377496,2.811694 0,1.848428 0.390513,2.681523 0.390513,0.833094 1.236625,0.833094 z m 5.9357886,1.119471 3.3193606,-8.122671 H -6.993737 v -1.288693 h 6.37837914 v 1.080419 l -3.31936054,8.330945 z"
           id="text3"
           aria-label="07" />
        <path
           style="font-weight:500;font-size:72px;line-height:1.25;font-family:'Noto Sans TC';-inkscape-font-specification:'Noto Sans TC Medium';white-space:pre;fill:#ffffff"
           d="m 193.78542,78.993406 h 32.328 v 6.336 h -32.328 z m 0.072,18.432 h 26.352 v 6.264004 h -26.352 z m -3.528,-18.432 h 6.624 v 20.376 q 0,4.608004 -0.36,10.080004 -0.36,5.472 -1.44,11.16 -1.008,5.688 -3.024,11.088 -2.016,5.328 -5.328,9.648 -0.576,-0.576 -1.584,-1.368 -1.008,-0.792 -2.088,-1.584 -1.008,-0.72 -1.8,-1.08 3.096,-4.104 4.896,-8.928 1.8,-4.824 2.664,-9.864 0.936,-5.112 1.152,-10.008 0.288,-4.896 0.288,-9.216004 z m 11.448,22.824004 q 2.016,7.776 5.544,14.544 3.6,6.768 8.712,11.808 5.184,5.04 12.024,7.848 -0.792,0.648 -1.656,1.656 -0.864,1.008 -1.656,2.088 -0.72,1.08 -1.296,1.944 -7.056,-3.384 -12.384,-9 -5.328,-5.688 -9,-13.176 -3.672,-7.488 -6.048,-16.416 z m 17.136,-4.392004 h 1.152 l 1.224,-0.216 4.176,1.368 q -1.872,10.944004 -5.904,19.296004 -4.032,8.352 -9.792,14.184 -5.76,5.832 -12.816,9.432 -0.432,-0.792 -1.152,-1.8 -0.648,-1.008 -1.44,-2.016 -0.792,-0.936 -1.512,-1.584 6.336,-2.808 11.592,-8.064 5.328,-5.328 9.072,-12.744 3.816,-7.488 5.4,-16.560004 z m -57.528,-7.56 h 25.488 v 6.336 h -25.488 z m 10.224,-15.192 h 6.48 v 66.744004 h -6.48 z m -0.216,19.368 4.104,1.44 q -0.864,4.32 -2.16,9.000004 -1.296,4.608 -2.952,9.072 -1.656,4.464 -3.528,8.28 -1.872,3.816 -3.888,6.624 -0.504,-1.44 -1.584,-3.24 -1.008,-1.8 -1.8,-3.024 1.872,-2.376 3.6,-5.616 1.8,-3.312 3.384,-7.128 1.584,-3.816 2.808,-7.704 1.224,-3.960004 2.016,-7.704004 z m 6.336,7.056004 q 0.72,0.72 2.088,2.52 1.44,1.8 3.096,3.96 1.656,2.088 2.952,3.96 1.368,1.8 1.944,2.592 l -4.032,5.256 q -0.648,-1.44 -1.872,-3.528 -1.224,-2.16 -2.592,-4.392 -1.368,-2.232 -2.664,-4.176 -1.224,-1.944 -2.088,-3.168 z m 79.2,-14.544004 h 41.472 v 5.328 h -41.472 z m 14.472,13.464004 v 5.256 h 11.88 v -5.256 z m -5.688,-4.248004 h 23.544 v 13.680004 h -23.544 z m -7.992,16.632004 h 36.216 v 5.256 h -30.024 v 23.904 h -6.192 z m 33.336,0 h 6.336 v 22.464 q 0,2.232 -0.576,3.528 -0.504,1.296 -2.16,2.088 -1.584,0.648 -3.96,0.792 -2.304,0.144 -5.616,0.144 -0.216,-1.224 -0.864,-2.88 -0.576,-1.584 -1.224,-2.736 2.376,0.072 4.248,0.072 1.944,0 2.592,0 0.72,-0.072 0.936,-0.288 0.288,-0.216 0.288,-0.792 z m -0.576,-37.008004 3.96,4.464 q -3.456,0.792 -7.704,1.368 -4.176,0.576 -8.856,1.008 -4.608,0.36 -9.288,0.576 -4.608,0.216 -8.928,0.288 -0.144,-1.008 -0.576,-2.304 -0.432,-1.368 -0.864,-2.304 4.176,-0.144 8.64,-0.36 4.536,-0.288 8.856,-0.648 4.392,-0.36 8.208,-0.864 3.816,-0.504 6.552,-1.224 z m -5.328,13.032 q 1.512,2.664 3.888,5.328 2.448,2.592 5.328,4.752 2.88,2.088004 5.904,3.384004 -1.008,0.792 -2.304,2.304 -1.224,1.44 -1.872,2.592 -3.168,-1.656 -6.12,-4.248 -2.952,-2.664004 -5.472,-5.904004 -2.52,-3.24 -4.248,-6.48 z m -13.464,-7.2 6.192,0.792 q -1.296,4.68 -3.744,9.216 -2.448,4.464 -6.264,8.424 -3.816,3.960004 -9.288,7.200004 -0.36,-0.792 -1.152,-1.656 -0.72,-0.864 -1.512,-1.584 -0.792,-0.792 -1.44,-1.224 5.04,-2.736004 8.496,-6.192004 3.456,-3.456 5.544,-7.272 2.16,-3.888 3.168,-7.704 z m -0.432,39.816004 h 15.408 v 13.68 h -15.408 v -4.104 h 10.368 v -5.4 h -10.368 z m -2.952,0 h 4.968 v 16.704 h -4.968 z m -34.92,-31.032004 h 22.752 v 6.336 h -22.752 z m 9.072,-15.336 h 6.192 v 66.744004 h -6.192 z m -0.144,19.368 3.96,1.368 q -0.792,4.248 -1.944,8.856004 -1.08,4.608 -2.592,9.072 -1.44,4.464 -3.168,8.352 -1.728,3.816 -3.6,6.552 -0.504,-1.368 -1.512,-3.096 -0.936,-1.728 -1.728,-2.952 1.728,-2.376 3.312,-5.688 1.656,-3.312 3.024,-7.056 1.44,-3.816 2.52,-7.776 1.08,-3.960004 1.728,-7.632004 z m 5.904,6.408004 q 0.576,0.72 1.8,2.592 1.224,1.8 2.592,3.96 1.44,2.16 2.592,4.032 1.224,1.8 1.656,2.592 l -3.456,4.896 q -0.576,-1.44 -1.656,-3.528 -1.008,-2.16 -2.232,-4.464 -1.224,-2.304 -2.304,-4.248 -1.08,-2.016 -1.728,-3.096 z"
           id="text4"
           transform="matrix(0.23667536,0,0,0.23667536,-29.662981,-0.51638196)"
           aria-label="板橋" />
        <path
           style="font-size:6.62691px;line-height:1.25;font-family:'AR UDJingXiHeiE1G30 EB';-inkscape-font-specification:'AR UDJingXiHeiE1G30 EB';fill:#ffffff;stroke-width:0.236675"
           d="M 11.317214,40.14014 H 8.7989883 v -4.791256 h 2.3061647 q 0.682572,0 1.080186,0.331345 0.397615,0.331346 0.397615,0.881379 0,0.357853 -0.159046,0.629557 -0.152419,0.265076 -0.463884,0.437376 0.404242,0.159046 0.609676,0.437376 0.212061,0.27833 0.212061,0.662691 0,0.636183 -0.417495,1.027171 -0.417495,0.384361 -1.047052,0.384361 z m 0.390988,-3.472501 q 0,-0.324719 -0.185554,-0.490392 -0.185553,-0.172299 -0.536779,-0.172299 H 9.6406059 v 1.351889 h 1.3916511 q 0.298211,0 0.483765,-0.172299 0.19218,-0.178927 0.19218,-0.516899 z m 0.198807,2.054342 q 0,-0.344599 -0.212061,-0.523526 -0.205434,-0.185553 -0.543407,-0.185553 H 9.6406059 v 1.471174 h 1.4976821 q 0.351226,0 0.55666,-0.192181 0.212061,-0.19218 0.212061,-0.569914 z m 4.267734,-0.516899 -0.755467,-2.047715 -0.768722,2.047715 z m -1.769385,0.656064 -0.477137,1.278994 h -0.854872 l 1.928431,-4.791256 h 0.861499 l 1.915177,4.791256 h -0.874752 l -0.483765,-1.278994 z m 4.764743,-2.180253 v 3.459247 h -0.841617 v -4.791256 h 0.868125 l 2.352553,3.53877 v -3.53877 h 0.841618 v 4.791256 h -0.921141 z m 8.257126,2.922467 0.589795,0.490391 -0.424123,0.497019 -0.722333,-0.609676 q -0.245196,0.119284 -0.543407,0.178926 -0.291584,0.06627 -0.616302,0.06627 -1.126575,0 -1.762758,-0.656065 -0.636184,-0.656064 -0.636184,-1.802519 0,-1.166336 0.642811,-1.829027 0.64281,-0.669318 1.756131,-0.669318 1.126574,0 1.756131,0.662691 0.629556,0.662691 0.629556,1.835654 0,0.589795 -0.172299,1.053679 -0.1723,0.463883 -0.497018,0.781975 z m -1.71637,-3.677935 q -0.72896,0 -1.133202,0.510272 -0.397614,0.503645 -0.397614,1.332009 0,0.848244 0.404241,1.325382 0.404242,0.477137 1.126575,0.477137 0.159046,0 0.298211,-0.02651 0.145792,-0.02651 0.271703,-0.07952 l -0.510272,-0.430749 0.45063,-0.483765 0.603049,0.510272 q 0.19218,-0.218688 0.291584,-0.543406 0.10603,-0.331346 0.10603,-0.748841 0,-0.841618 -0.397614,-1.338636 -0.397615,-0.503645 -1.113321,-0.503645 z m 4.141819,-0.576541 v 4.791256 h -0.841617 v -4.791256 z m 3.651424,2.856198 -0.755468,-2.047715 -0.768721,2.047715 z m -1.769385,0.656064 -0.477137,1.278994 h -0.854872 l 1.928431,-4.791256 h 0.861498 l 1.915177,4.791256 H 34.23306 l -0.483764,-1.278994 z m 8.528826,-1.09344 q 0,1.153082 -0.64281,1.809146 -0.636183,0.649438 -1.742877,0.649438 -1.126575,0 -1.762758,-0.656065 -0.636184,-0.656064 -0.636184,-1.802519 0,-1.166336 0.642811,-1.829027 0.64281,-0.669318 1.756131,-0.669318 1.126574,0 1.756131,0.662691 0.629556,0.662691 0.629556,1.835654 z m -2.385687,1.802519 q 0.722333,0 1.113321,-0.477137 0.397614,-0.477138 0.397614,-1.325382 0,-0.841618 -0.397614,-1.338636 -0.397615,-0.503645 -1.113321,-0.503645 -0.72896,0 -1.133202,0.510272 -0.397615,0.503645 -0.397615,1.332009 0,0.848244 0.404242,1.325382 0.404242,0.477137 1.126575,0.477137 z"
           id="text5"
           aria-label="BANQIAO" />
        <path
           d="m 11.438664,42.820349 h 2.975483 v 0.583168 h -2.975483 z m 0.0066,1.696489 h 2.425449 v 0.576541 h -2.425449 z m -0.324719,-1.696489 h 0.609676 v 1.875415 q 0,0.424122 -0.03313,0.927768 -0.03313,0.503645 -0.132539,1.027171 -0.09278,0.523526 -0.27833,1.020544 -0.185553,0.490391 -0.490391,0.888006 -0.05302,-0.05301 -0.145792,-0.125911 -0.09278,-0.0729 -0.192181,-0.145792 -0.09278,-0.06627 -0.165672,-0.0994 0.284957,-0.377734 0.45063,-0.821737 0.165672,-0.444003 0.245195,-0.907887 0.08615,-0.47051 0.106031,-0.92114 0.02651,-0.45063 0.02651,-0.848245 z m 1.053679,2.10073 q 0.185554,0.715706 0.510272,1.338636 0.331346,0.62293 0.801856,1.086813 0.477138,0.463884 1.106694,0.722334 -0.0729,0.05964 -0.152419,0.152418 -0.07952,0.09278 -0.152418,0.192181 -0.06627,0.0994 -0.119285,0.178926 -0.649437,-0.311464 -1.139828,-0.828363 -0.490392,-0.523526 -0.828364,-1.212725 -0.337973,-0.689199 -0.556661,-1.510935 z m 1.577205,-0.404241 h 0.10603 l 0.112658,-0.01988 0.384361,0.125911 q -0.1723,1.007291 -0.543407,1.776012 -0.371107,0.768722 -0.90126,1.305501 -0.530153,0.53678 -1.17959,0.868126 -0.03976,-0.0729 -0.10603,-0.165673 -0.05964,-0.09278 -0.132539,-0.185554 -0.0729,-0.08615 -0.139165,-0.145792 0.583168,-0.258449 1.066933,-0.742213 0.490391,-0.490392 0.834991,-1.172964 0.351226,-0.689198 0.497018,-1.524189 z M 8.4565545,43.821012 H 10.802481 V 44.40418 H 8.4565545 Z M 9.3975758,42.422734 H 9.9939977 V 48.56588 H 9.3975758 Z m -0.019881,1.782639 0.3777338,0.132538 Q 9.675906,44.735526 9.5566216,45.166275 9.4373372,45.590397 9.2849183,46.001266 9.1324994,46.412134 8.9601997,46.76336 8.7879,47.114586 8.6023466,47.373036 8.5559582,47.240498 8.4565545,47.074825 8.3637778,46.909152 8.2908818,46.796495 8.4631814,46.577807 8.6222273,46.279596 8.7879,45.974758 8.9336921,45.623532 q 0.145792,-0.351227 0.2584495,-0.70908 0.1126574,-0.36448 0.1855535,-0.709079 z m 0.5831681,0.649437 q 0.066269,0.06627 0.1921808,0.231942 0.132538,0.165673 0.284957,0.36448 0.152419,0.19218 0.271703,0.36448 0.125911,0.165673 0.178927,0.238569 l -0.371107,0.483764 q -0.05964,-0.132538 -0.1723,-0.324718 Q 10.232566,46.014519 10.106655,45.809085 9.9807439,45.603651 9.8614595,45.424724 9.748802,45.245798 9.6692791,45.13314 Z m 7.2896008,-1.338636 h 3.817101 v 0.490392 h -3.817101 z m 1.332009,1.239232 v 0.483765 h 1.093441 v -0.483765 z m -0.523526,-0.390987 h 2.167 v 1.259113 h -2.167 z m -0.735587,1.530816 h 3.333336 v 0.483764 h -2.763421 v 2.200135 H 17.32336 Z m 3.06826,0 h 0.583168 v 2.067596 q 0,0.205434 -0.05301,0.324719 -0.04639,0.119284 -0.198808,0.19218 -0.145792,0.05964 -0.36448,0.0729 -0.212061,0.01325 -0.516899,0.01325 -0.01988,-0.112658 -0.07952,-0.265077 -0.05302,-0.145792 -0.112657,-0.251822 0.218688,0.0066 0.390988,0.0066 0.178926,0 0.238568,0 0.06627,-0.0066 0.08615,-0.02651 0.02651,-0.01988 0.02651,-0.0729 z m -0.05301,-3.406232 0.36448,0.410869 q -0.318092,0.0729 -0.70908,0.125911 -0.384361,0.05302 -0.81511,0.09278 -0.424122,0.03313 -0.854871,0.05301 -0.424122,0.01988 -0.821737,0.02651 -0.01325,-0.09278 -0.05301,-0.212062 -0.03976,-0.125911 -0.07952,-0.212061 0.384361,-0.01325 0.795229,-0.03313 0.417495,-0.02651 0.81511,-0.05964 0.404241,-0.03314 0.755468,-0.07952 0.351226,-0.04639 0.603049,-0.112658 z m -0.490392,1.199471 q 0.139165,0.245196 0.357853,0.490391 0.225315,0.238569 0.490392,0.437376 0.265076,0.192181 0.543406,0.311465 -0.09278,0.0729 -0.212061,0.212061 -0.112657,0.132538 -0.172299,0.238569 -0.291585,-0.152419 -0.563288,-0.390988 -0.271703,-0.245195 -0.503645,-0.543406 -0.231942,-0.298211 -0.390988,-0.596422 z m -1.239232,-0.662691 0.569914,0.0729 q -0.119284,0.430749 -0.344599,0.848244 -0.225315,0.410869 -0.576541,0.775349 -0.351227,0.36448 -0.854872,0.662691 -0.03313,-0.0729 -0.10603,-0.152419 -0.06627,-0.07952 -0.139165,-0.145792 -0.0729,-0.0729 -0.132539,-0.112658 0.463884,-0.251822 0.781976,-0.569914 0.318092,-0.318092 0.510272,-0.669318 0.198807,-0.357853 0.291584,-0.709079 z m -0.03976,3.664681 h 1.418158 v 1.259113 H 18.56922 v -0.377734 h 0.954275 V 47.074825 H 18.56922 Z m -0.271704,0 h 0.457257 v 1.537443 h -0.457257 z m -3.214051,-2.856198 h 2.094103 v 0.583168 h -2.094103 z m 0.83499,-1.411532 h 0.569915 v 6.143146 h -0.569915 z m -0.01325,1.782639 0.36448,0.125911 q -0.0729,0.390988 -0.178927,0.81511 -0.0994,0.424122 -0.238569,0.834991 -0.132538,0.410868 -0.291584,0.768721 -0.159046,0.351227 -0.331345,0.603049 -0.04639,-0.125911 -0.139165,-0.284957 -0.08615,-0.159046 -0.159046,-0.271703 0.159046,-0.218688 0.304838,-0.523526 0.152419,-0.304838 0.27833,-0.649437 0.132538,-0.351227 0.231942,-0.715707 0.0994,-0.36448 0.159046,-0.702452 z m 0.543406,0.589795 q 0.05302,0.06627 0.165673,0.238569 0.112657,0.165672 0.238569,0.36448 0.132538,0.198807 0.238569,0.371107 0.112657,0.165672 0.152418,0.238568 l -0.318091,0.45063 q -0.05301,-0.132538 -0.152419,-0.324718 -0.09278,-0.198808 -0.205434,-0.410869 -0.112658,-0.212061 -0.212061,-0.390987 -0.0994,-0.185554 -0.159046,-0.284958 z"
           id="text5-9"
           style="font-weight:500;font-size:6.62691px;line-height:1.25;font-family:'Noto Sans JP';-inkscape-font-specification:'Noto Sans JP Medium';fill:#ffffff;stroke-width:0.236675"
           aria-label="板橋" />
        <path
           style="font-weight:500;font-size:6.62691px;line-height:1.25;font-family:'Noto Sans KR';-inkscape-font-specification:'Noto Sans KR Medium';fill:#ffffff;stroke-width:0.236675"
           d="m 32.545807,42.587459 h 0.689199 v 4.453284 h -0.689199 z m 0.483765,1.776012 h 1.060305 v 0.576541 h -1.060305 z m -3.62492,3.591785 h 4.082177 v 0.563288 h -4.082177 z m 0,-1.351889 h 0.695825 v 1.477801 H 29.404652 Z M 28.72208,43.018208 h 0.689199 v 0.947648 h 1.477801 v -0.947648 h 0.689198 v 3.035125 H 28.72208 Z m 0.689199,1.484428 v 0.994037 h 1.477801 v -0.994037 z m 6.600403,-0.417495 h 0.550033 v 0.424122 q 0,0.477137 -0.112657,0.934394 -0.112658,0.457257 -0.331346,0.861499 -0.218688,0.397614 -0.523525,0.702452 -0.298211,0.304838 -0.689199,0.490391 L 34.527254,46.96122 q 0.344599,-0.165673 0.62293,-0.424123 0.27833,-0.265076 0.47051,-0.596421 0.192181,-0.331346 0.291584,-0.695826 0.0994,-0.36448 0.0994,-0.735587 z m 0.145792,0 h 0.543407 v 0.424122 q 0,0.344599 0.09278,0.695826 0.0994,0.344599 0.27833,0.662691 0.185554,0.311464 0.45063,0.569914 0.265077,0.251822 0.609676,0.417495 l -0.384361,0.530153 q -0.371107,-0.178927 -0.669318,-0.477138 -0.291584,-0.304837 -0.497018,-0.682571 -0.205434,-0.384361 -0.318092,-0.821737 -0.10603,-0.437376 -0.10603,-0.894633 z m -1.451293,-0.477138 h 3.273693 v 0.550034 h -3.273693 z m 1.305501,-0.90126 h 0.689199 v 1.199471 h -0.689199 z m 2.591122,-0.119284 h 0.695825 v 6.056996 h -0.695825 z m 0.543406,2.425449 h 1.093441 v 0.576541 H 39.14621 Z m 3.943012,0.98741 h 0.695826 v 1.451293 h -0.695826 z m 0.351227,-3.055006 q 0.64281,0 1.139828,0.198807 0.503645,0.198808 0.795229,0.563288 0.291585,0.36448 0.291585,0.854871 0,0.497019 -0.291585,0.861499 -0.291584,0.36448 -0.795229,0.569914 -0.497018,0.198807 -1.139828,0.198807 -0.642811,0 -1.146456,-0.198807 -0.503645,-0.205434 -0.795229,-0.569914 -0.291584,-0.36448 -0.291584,-0.861499 0,-0.490391 0.291584,-0.854871 0.291584,-0.36448 0.795229,-0.563288 0.503645,-0.198807 1.146456,-0.198807 z m 0,0.550034 q -0.457257,0 -0.808483,0.132538 -0.3446,0.125911 -0.543407,0.36448 -0.198807,0.238569 -0.198807,0.569914 0,0.331346 0.198807,0.576541 0.198807,0.238569 0.543407,0.371107 0.351226,0.125912 0.808483,0.125912 0.45063,0 0.801856,-0.125912 0.351226,-0.132538 0.550033,-0.371107 0.198808,-0.245195 0.198808,-0.576541 0,-0.331345 -0.198808,-0.569914 -0.198807,-0.238569 -0.550033,-0.36448 -0.351226,-0.132538 -0.801856,-0.132538 z M 40.703535,47.3257 h 5.487081 v 0.569914 h -5.487081 z"
           id="text5-9-8"
           aria-label="반차오" />
      </g>
    </g>
    <text
       xml:space="preserve"
       transform="matrix(0.31615295,0,0,0.31615295,-10.474341,-6.4462013)"
       id="text6"
       style="font-size:55px;line-height:1.25;font-family:'Microsoft JhengHei';-inkscape-font-specification:'Microsoft JhengHei';white-space:pre;shape-inside:url(#rect6);display:inline" />
  </g>
</svg>
