<?xml version="1.0" encoding="UTF-8" standalone="no"?>
<!-- Created with Inkscape (http://www.inkscape.org/) -->

<svg
   width="500"
   height="250"
   viewBox="0 0 132.29166 66.145833"
   version="1.1"
   id="svg1"
   inkscape:version="1.3.2 (091e20e, 2023-11-25, custom)"
   sodipodi:docname="bl08.svg"
   xmlns:inkscape="http://www.inkscape.org/namespaces/inkscape"
   xmlns:sodipodi="http://sodipodi.sourceforge.net/DTD/sodipodi-0.dtd"
   xmlns="http://www.w3.org/2000/svg"
   xmlns:svg="http://www.w3.org/2000/svg">
  <sodipodi:namedview
     id="namedview1"
     pagecolor="#9e652e"
     bordercolor="#ffffff"
     borderopacity="1"
     inkscape:showpageshadow="0"
     inkscape:pageopacity="0"
     inkscape:pagecheckerboard="false"
     inkscape:deskcolor="#d1d1d1"
     inkscape:document-units="mm"
     inkscape:zoom="2.0208096"
     inkscape:cx="300.37466"
     inkscape:cy="106.88785"
     inkscape:window-width="1920"
     inkscape:window-height="1009"
     inkscape:window-x="1912"
     inkscape:window-y="-8"
     inkscape:window-maximized="1"
     inkscape:current-layer="g1" />
  <defs
     id="defs1">
    <rect
       x="560.66638"
       y="34.144731"
       width="279.32397"
       height="128.59143"
       id="rect6" />
    <rect
       x="157.85752"
       y="62.351248"
       width="329.07603"
       height="135.09437"
       id="rect4" />
    <rect
       x="157.85751"
       y="62.35125"
       width="329.07602"
       height="135.09438"
       id="rect4-5" />
    <rect
       x="157.85751"
       y="62.35125"
       width="329.07602"
       height="135.09438"
       id="rect4-5-1" />
  </defs>
  <g
     inkscape:label="Layer 1"
     inkscape:groupmode="layer"
     id="layer1">
    <rect
       style="fill:#005fb9;fill-opacity:1;stroke:none;stroke-width:0.953294;stroke-dasharray:none"
       id="rect5"
       width="132.29167"
       height="66.145836"
       x="-2.5431316e-06"
       y="-1.2715658e-06"
       ry="0" />
    <g
       id="g1"
       transform="translate(23.862138)">
      <g
         id="g2"
         transform="matrix(1.1262533,0,0,1.1262533,30.446715,-4.175565)">
        <path
           id="rect1"
           style="fill-opacity:0;stroke:#ffffff;stroke-width:0.852742"
           d="m -13.341858,16.140778 h 11.2384172 c 3.5519819,0 6.4115196,2.859537 6.4115196,6.411519 v 21.041242 c 0,3.551982 -2.8595377,6.411519 -6.4115196,6.411519 H -13.341858 c -3.551982,0 -6.41152,-2.859537 -6.41152,-6.411519 V 22.552297 c 0,-3.551982 2.859538,-6.411519 6.41152,-6.411519 z" />
        <path
           style="font-size:11.3604px;line-height:1.25;font-family:'AR UDJingXiHeiE1G30 EB';-inkscape-font-specification:'AR UDJingXiHeiE1G30 EB';fill:#ffffff;stroke-width:0.236675"
           d="m -10.977417,30.76588 h -4.316952 v -8.213569 h 3.95342 q 1.170121,0 1.8517449,0.56802 0.681624,0.56802 0.681624,1.510933 0,0.613462 -0.2726496,1.079238 -0.2612892,0.454416 -0.795228,0.749787 0.6929844,0.272649 1.0451568,0.749786 0.3635328,0.477137 0.3635328,1.13604 0,1.090599 -0.7157052,1.760862 -0.7157052,0.658903 -1.7949437,0.658903 z m 0.670264,-5.952849 q 0,-0.55666 -0.318091,-0.84067 -0.318091,-0.29537 -0.920193,-0.29537 h -2.306161 v 2.317521 h 2.385684 q 0.511218,0 0.829309,-0.29537 0.329452,-0.306731 0.329452,-0.886111 z m 0.3408121,3.521724 q 0,-0.590741 -0.3635331,-0.897472 -0.352172,-0.318091 -0.931553,-0.318091 h -2.590171 v 2.522009 h 2.567451 q 0.602101,0 0.954273,-0.329452 0.3635331,-0.329451 0.3635331,-0.976994 z m 8.7134347,2.431125 h -5.7710833 v -8.213569 h 1.4427708 v 7.08889 h 4.3283125 z"
           id="text2"
           aria-label="BL" />
        <path
           style="font-size:13.0171px;line-height:1.25;font-family:'AR UDJingXiHeiE1G30 EB';-inkscape-font-specification:'AR UDJingXiHeiE1G30 EB';fill:#ffffff;stroke-width:0.236675"
           d="m -8.2954382,39.060514 q 0,2.460232 -0.7940431,3.631771 -0.7940431,1.171539 -2.4602317,1.171539 -1.614121,0 -2.447215,-1.171539 -0.833095,-1.171539 -0.833095,-3.631771 0,-2.629454 0.794044,-3.774959 0.794043,-1.158522 2.486266,-1.158522 1.6531715,0 2.4472146,1.158522 0.8070602,1.145505 0.8070602,3.774959 z m -3.2542748,3.514617 q 0.833094,0 1.223607,-0.820077 0.3905132,-0.833095 0.3905132,-2.69454 0,-2.004634 -0.3774962,-2.824711 -0.364479,-0.820077 -1.236624,-0.820077 -0.872146,0 -1.249642,0.833094 -0.377496,0.820078 -0.377496,2.811694 0,1.848428 0.390513,2.681523 0.390513,0.833094 1.236625,0.833094 z m 9.5415254,-3.879096 q 0.7940431,0.325428 1.19757324,0.937231 0.40353011,0.598787 0.40353011,1.379813 0,1.314727 -0.91119705,2.082736 -0.8981799,0.768009 -2.4862661,0.768009 -1.6401547,0 -2.5253175,-0.768009 -0.8851628,-0.768009 -0.8851628,-2.069719 0,-0.754992 0.390513,-1.353778 0.390513,-0.611804 1.1455048,-0.963266 -0.6118037,-0.286376 -0.911197,-0.794043 -0.2993933,-0.520684 -0.3124104,-1.171539 0,-1.145505 0.8070602,-1.874462 0.8200773,-0.741975 2.2910097,-0.741975 1.431881,0 2.2259241,0.728957 0.79404314,0.728958 0.79404314,1.88748 0,0.624821 -0.31241044,1.145505 -0.2993933,0.507667 -0.911197,0.80706 z m -1.8093769,-0.598787 q 0.6248208,0 1.0023167,-0.364478 0.3774959,-0.377496 0.3774959,-0.976283 0,-0.624821 -0.3774959,-0.976282 -0.3644788,-0.364479 -0.9892996,-0.364479 -0.6508551,0 -1.0543852,0.364479 -0.390513,0.364478 -0.390513,0.976282 0,0.58577 0.390513,0.963266 0.390513,0.377495 1.0413681,0.377495 z m 1.7703256,2.915831 q 0,-0.741975 -0.520684,-1.158522 -0.5076669,-0.416547 -1.2496416,-0.416547 -0.7549919,0 -1.2496417,0.455598 -0.4816327,0.442582 -0.4946498,1.132488 0,0.728958 0.4816327,1.132488 0.4816327,0.40353 1.2756759,0.416547 0.781026,0 1.2626587,-0.40353 0.4946498,-0.416547 0.4946498,-1.158522 z"
           id="text3"
           aria-label="08" />
        <path
           style="font-weight:500;font-size:72px;line-height:1.25;font-family:'Noto Sans TC';-inkscape-font-specification:'Noto Sans TC Medium';white-space:pre;fill:#ffffff"
           d="m 200.91342,98.721406 h 26.28 v 6.336004 h -26.28 z m -38.88,-16.704 h 32.04 v 5.616 h -32.04 z m -0.792,28.584004 h 32.976 v 5.832 h -32.976 z m -0.36,-12.312004 h 34.344 v 5.688004 h -34.344 z m 52.272,3.168004 h 6.624 v 39.672 h -6.624 z m -46.872,-12.312004 5.544,-1.296 q 0.936,2.088 1.656,4.608 0.792,2.52 1.08,4.32 l -5.76,1.584 q -0.216,-1.872 -0.936,-4.464 -0.648,-2.592 -1.584,-4.752 z m 17.928,-1.44 6.264,1.296 q -1.152,3.024 -2.376,6.12 -1.224,3.096 -2.304,5.256004 l -5.544,-1.224004 q 0.72,-1.584 1.44,-3.6 0.72,-2.016 1.368,-4.104 0.72,-2.088 1.152,-3.744 z m 36.36,-12.024 5.328,5.04 q -3.528,1.368 -7.92,2.52 -4.32,1.08 -8.856,1.944 -4.464,0.864 -8.784,1.512 -0.216,-1.08 -0.864,-2.592 -0.576,-1.512 -1.224,-2.52 4.104,-0.72 8.208,-1.656 4.104,-0.936 7.776,-2.016 3.744,-1.152 6.336,-2.232 z m -47.88,0.144 6.768,-1.728 q 1.224,2.232 2.376,4.968 1.224,2.664 1.8,4.608 l -7.056,2.016 q -0.504,-2.016 -1.656,-4.752 -1.08,-2.808 -2.232,-5.112 z m 25.56,5.76 h 6.408 v 25.272004 q 0,3.96 -0.288,8.496 -0.216,4.536 -1.008,9.144 -0.792,4.608 -2.232,8.928 -1.44,4.32 -3.888,7.776 -0.504,-0.648 -1.512,-1.44 -0.936,-0.792 -2.016,-1.512 -1.008,-0.72 -1.728,-1.08 2.88,-4.248 4.248,-9.504 1.368,-5.256 1.656,-10.656 0.36,-5.4 0.36,-10.152 z m -13.824,39.816004 4.536,-2.448 q 1.8,2.592 3.456,5.688 1.656,3.024 2.52,5.256 l -4.68,2.808 q -0.864,-2.232 -2.592,-5.472 -1.656,-3.24 -3.24,-5.832 z m -17.28,-1.8 5.328,1.512 q -1.296,3.888 -3.384,7.92 -2.016,3.96 -4.032,6.768 -0.792,-0.72 -2.232,-1.656 -1.368,-1.008 -2.376,-1.512 2.016,-2.592 3.744,-6.048 1.8,-3.528 2.952,-6.984 z m 8.136,-18.216 h 6.624 v 39.744 h -6.624 z m 79.848,-16.704004 h 44.28 v 6.264 h -44.28 z m 3.168,12.384 h 34.2 v 5.832004 h -27.72 v 38.52 h -6.48 z m 31.896,0 h 6.552 v 37.080004 q 0,2.376 -0.504,3.816 -0.504,1.44 -2.016,2.232 -1.44,0.792 -3.672,1.008 -2.16,0.216 -5.328,0.144 -0.144,-1.296 -0.72,-3.168 -0.504,-1.8 -1.224,-3.096 2.016,0.072 3.672,0.072 1.656,0 2.16,0 1.08,0 1.08,-1.152 z m -16.344,-22.392 h 6.624 v 66.456004 h -6.624 z m -11.664,34.272004 h 30.6 v 5.544 h -30.6 z m 0,11.808 h 30.6 v 5.76 h -30.6 z m 21.24,-42.696004 3.96,-3.744 q 1.584,0.936 3.384,2.16 1.872,1.224 3.6,2.448 1.728,1.152 2.808,2.088 l -4.104,4.176 q -1.08,-0.936 -2.736,-2.16 -1.656,-1.296 -3.528,-2.592 -1.8,-1.296 -3.384,-2.376 z m -50.04,14.04 h 21.456 v 6.408 h -21.456 z m 7.92,-16.56 h 6.408 v 47.088004 h -6.408 z m -9.36,47.736004 q 2.952,-1.152 6.768,-2.664 3.816,-1.584 8.136,-3.456 4.32,-1.872 8.568,-3.744 l 1.512,6.264 q -5.76,2.736 -11.808,5.544 -6.048,2.736 -10.872,4.968 z"
           id="text4"
           transform="matrix(0.23667536,0,0,0.23667536,-29.662981,-0.51638196)"
           aria-label="新埔" />
        <path
           style="font-size:6.62691px;line-height:1.25;font-family:'AR UDJingXiHeiE1G30 EB';-inkscape-font-specification:'AR UDJingXiHeiE1G30 EB';fill:#ffffff;stroke-width:0.236675"
           d="m 11.622052,35.348884 h 0.974156 l -1.650101,2.312791 1.742878,2.478465 H 11.708202 L 10.455716,38.291232 9.2032298,40.14014 H 8.2489548 L 9.9785783,37.655048 8.3218508,35.348884 h 0.9874096 l 1.1530826,1.722996 z m 2.458584,0 v 4.791256 h -0.841617 v -4.791256 z m 1.94168,1.332009 v 3.459247 h -0.841617 v -4.791256 h 0.868125 l 2.352553,3.53877 v -3.53877 h 0.841618 v 4.791256 h -0.921141 z m 5.162359,1.557324 v 1.901923 h -0.841617 v -4.791256 h 2.253149 q 0.702453,0 1.100067,0.38436 0.397615,0.384361 0.397615,1.020545 0,0.715706 -0.410869,1.100067 -0.404241,0.384361 -1.09344,0.384361 z m 2.054342,-1.471175 q 0,-0.371107 -0.212061,-0.563287 -0.212061,-0.198807 -0.622929,-0.198807 h -1.219352 v 1.577204 h 1.219352 q 0.410868,0 0.622929,-0.198807 0.212061,-0.205434 0.212061,-0.616303 z m 5.679261,1.696489 q 0,0.834991 -0.523526,1.298875 -0.523526,0.463884 -1.491055,0.463884 -0.980782,0 -1.510935,-0.457257 -0.523526,-0.457257 -0.523526,-1.298875 v -3.121274 h 0.841617 v 3.081513 q 0,0.543407 0.298211,0.841618 0.298211,0.29821 0.894633,0.29821 0.563288,0 0.861499,-0.284957 0.304838,-0.291584 0.304838,-0.868125 v -3.068259 h 0.848244 z"
           id="text5"
           aria-label="XINPU" />
        <path
           d="m 12.04834,44.636122 h 2.471837 V 45.21929 H 12.04834 Z M 8.5161967,43.098679 h 2.9489753 v 0.516899 H 8.5161967 Z m -0.072896,2.630883 h 3.0351253 v 0.53678 H 8.4433007 Z M 8.42342,44.596361 h 3.114648 v 0.523525 H 8.42342 Z m 4.784629,0.291584 h 0.609676 v 3.651427 h -0.609676 z m -3.5188892,-2.42545 h 0.6096762 v 0.88138 H 9.6891598 Z m 0,2.597749 H 10.298836 V 48.56588 H 9.6891598 Z m 2.0675962,-2.107357 0.748841,0.218688 q -0.01325,0.07952 -0.152419,0.10603 v 2.001327 q 0,0.377734 -0.03976,0.808483 -0.03313,0.424123 -0.139165,0.874753 -0.10603,0.444003 -0.318092,0.868125 -0.205434,0.417495 -0.543406,0.768721 -0.03976,-0.0729 -0.119285,-0.159045 -0.07952,-0.08615 -0.172299,-0.165673 -0.08615,-0.0729 -0.159046,-0.106031 0.304838,-0.311465 0.483764,-0.669318 0.178927,-0.357853 0.265077,-0.742214 0.09278,-0.38436 0.119284,-0.755467 0.02651,-0.377734 0.02651,-0.728961 z m 2.193507,-0.457257 0.503645,0.457257 q -0.318091,0.145792 -0.722333,0.271703 -0.397615,0.119285 -0.81511,0.218688 -0.417495,0.09278 -0.808483,0.165673 -0.01988,-0.0994 -0.07952,-0.238569 -0.05964,-0.145792 -0.119284,-0.238569 0.371107,-0.07952 0.748841,-0.178926 0.38436,-0.106031 0.722333,-0.218688 0.337972,-0.119285 0.569914,-0.238569 z m -3.697816,3.856862 q 0.0729,0.04639 0.218688,0.165673 0.152419,0.112657 0.318092,0.245195 0.1723,0.132538 0.311465,0.251823 0.145792,0.112657 0.205434,0.165673 l -0.36448,0.457256 q -0.07952,-0.09278 -0.212061,-0.231941 -0.132538,-0.139166 -0.291584,-0.284958 -0.152419,-0.152419 -0.298211,-0.27833 -0.139165,-0.132538 -0.2319421,-0.212061 z M 8.8806768,43.728235 9.3710681,43.615578 q 0.099404,0.205434 0.1722997,0.45063 0.072896,0.245195 0.092777,0.417495 l -0.516899,0.145792 Q 9.1059917,44.443942 9.0397226,44.192119 8.9734535,43.940296 8.8806768,43.728235 Z m 1.6832352,-0.125911 0.55666,0.119284 q -0.09278,0.238569 -0.185553,0.477138 -0.09278,0.231942 -0.1723,0.404241 L 10.259074,44.49033 q 0.05302,-0.125911 0.106031,-0.27833 0.05964,-0.159046 0.112657,-0.318092 0.05302,-0.159046 0.08615,-0.291584 z M 9.6957867,46.027773 10.13979,46.193446 Q 9.9807439,46.557926 9.7421751,46.922406 9.5036064,47.286886 9.231903,47.598351 8.9601997,47.909816 8.6951233,48.121877 8.6288542,48.015846 8.5029429,47.883308 8.3836585,47.75077 8.2842549,47.671247 8.5493313,47.498947 8.8144077,47.233871 9.086111,46.968794 9.311426,46.65733 9.5433678,46.339238 9.6957867,46.027773 Z m 7.3890053,-2.683898 h 4.075549 v 0.576541 h -4.075549 z m 0.291584,1.139828 h 3.147782 v 0.53678 h -2.55136 v 3.545397 h -0.596422 z m 2.935721,0 h 0.603049 v 3.412859 q 0,0.218688 -0.04639,0.351226 -0.04639,0.132538 -0.185553,0.205434 -0.132538,0.0729 -0.337973,0.09278 -0.198807,0.01988 -0.490391,0.01325 -0.01325,-0.119284 -0.06627,-0.291584 -0.04639,-0.165673 -0.112657,-0.284957 0.185553,0.0066 0.337972,0.0066 0.152419,0 0.198807,0 0.0994,0 0.0994,-0.106031 z m -1.504309,-2.060969 h 0.609676 v 6.116638 h -0.609676 z m -1.073559,3.154409 h 2.816437 v 0.510272 h -2.816437 z m 0,1.086814 h 2.816437 v 0.530152 h -2.816437 z m 1.954938,-3.929758 0.36448,-0.3446 q 0.145792,0.08615 0.311465,0.198808 0.1723,0.112657 0.331346,0.225315 0.159046,0.10603 0.258449,0.19218 l -0.377734,0.384361 q -0.0994,-0.08615 -0.251822,-0.198807 -0.152419,-0.119285 -0.324719,-0.238569 -0.165673,-0.119285 -0.311465,-0.218688 z m -4.605702,1.292247 h 1.974819 v 0.589795 h -1.974819 z m 0.72896,-1.524189 h 0.589795 v 4.333999 h -0.589795 z m -0.861498,4.393641 q 0.271703,-0.10603 0.622929,-0.245195 0.351226,-0.145792 0.748841,-0.318092 0.397615,-0.1723 0.788602,-0.344599 l 0.139165,0.576541 q -0.530152,0.251823 -1.086813,0.510272 -0.55666,0.251823 -1.000663,0.457257 z"
           id="text5-9"
           style="font-weight:500;font-size:6.62691px;line-height:1.25;font-family:'Noto Sans JP';-inkscape-font-specification:'Noto Sans JP Medium';fill:#ffffff;stroke-width:0.236675"
           aria-label="新埔" />
        <path
           style="font-weight:500;font-size:6.62691px;line-height:1.25;font-family:'Noto Sans KR';-inkscape-font-specification:'Noto Sans KR Medium';fill:#ffffff;stroke-width:0.236675"
           d="m 32.804257,42.587459 h 0.695825 v 4.426776 h -0.695825 z m -3.253813,5.367797 h 4.121938 v 0.563288 h -4.121938 z m 0,-1.351889 h 0.689199 v 1.63022 h -0.689199 z m 0.463884,-3.684562 h 0.576541 v 0.603048 q 0,0.596422 -0.198808,1.126575 -0.198807,0.523526 -0.576541,0.921141 -0.377734,0.397614 -0.92114,0.603048 l -0.357853,-0.550033 q 0.477137,-0.178927 0.808483,-0.503645 0.331345,-0.331346 0.497018,-0.742214 0.1723,-0.417496 0.1723,-0.854872 z m 0.139165,0 h 0.563287 v 0.603048 q 0,0.324719 0.09278,0.629557 0.0994,0.298211 0.284957,0.563287 0.19218,0.265077 0.463884,0.470511 0.271703,0.205434 0.622929,0.324718 l -0.357853,0.556661 q -0.530153,-0.198807 -0.907887,-0.569914 -0.377733,-0.377734 -0.569914,-0.881379 -0.19218,-0.510273 -0.19218,-1.093441 z m 4.956929,-0.02651 h 4.473164 v 0.55666 h -4.473164 z m 0.03314,2.08085 h 4.406895 v 0.55666 h -4.406895 z m 0.81511,-1.636847 h 0.695825 v 1.935058 h -0.695825 z m 2.080849,0 h 0.695826 v 1.935058 h -0.695826 z m -3.439366,2.803183 h 5.487082 v 0.569914 H 34.60015 Z m 2.392315,0.251822 h 0.695825 v 2.246523 h -0.695825 z"
           id="text5-9-8"
           aria-label="신푸" />
      </g>
    </g>
    <text
       xml:space="preserve"
       transform="matrix(0.31615295,0,0,0.31615295,-10.474341,-6.4462013)"
       id="text6"
       style="font-size:55px;line-height:1.25;font-family:'Microsoft JhengHei';-inkscape-font-specification:'Microsoft JhengHei';white-space:pre;shape-inside:url(#rect6);display:inline" />
  </g>
</svg>
