<?xml version="1.0" encoding="UTF-8" standalone="no"?>
<!-- Created with Inkscape (http://www.inkscape.org/) -->

<svg
   width="500"
   height="250"
   viewBox="0 0 132.29166 66.145833"
   version="1.1"
   id="svg1"
   inkscape:version="1.1 (c68e22c387, 2021-05-23)"
   sodipodi:docname="bl08.svg"
   xmlns:inkscape="http://www.inkscape.org/namespaces/inkscape"
   xmlns:sodipodi="http://sodipodi.sourceforge.net/DTD/sodipodi-0.dtd"
   xmlns="http://www.w3.org/2000/svg"
   xmlns:svg="http://www.w3.org/2000/svg">
  <sodipodi:namedview
     id="namedview1"
     pagecolor="#9e652e"
     bordercolor="#ffffff"
     borderopacity="1"
     inkscape:showpageshadow="0"
     inkscape:pageopacity="0"
     inkscape:pagecheckerboard="false"
     inkscape:deskcolor="#d1d1d1"
     inkscape:document-units="mm"
     inkscape:zoom="1.0104048"
     inkscape:cx="347.88037"
     inkscape:cy="233.0749"
     inkscape:window-width="1920"
     inkscape:window-height="1009"
     inkscape:window-x="-8"
     inkscape:window-y="-8"
     inkscape:window-maximized="1"
     inkscape:current-layer="layer1"
     inkscape:pageshadow="0"
     showgrid="false" />
  <defs
     id="defs1">
    <rect
       x="413.69558"
       y="144.99139"
       width="144.00169"
       height="51.464522"
       id="rect30577" />
    <rect
       x="420.59497"
       y="153.61164"
       width="167.50581"
       height="49.883239"
       id="rect3835" />
    <rect
       x="560.66638"
       y="34.144731"
       width="279.32397"
       height="128.59143"
       id="rect6" />
    <rect
       x="157.85752"
       y="62.351248"
       width="329.07603"
       height="135.09437"
       id="rect4" />
    <rect
       x="157.85751"
       y="62.35125"
       width="329.07602"
       height="135.09438"
       id="rect4-5" />
    <rect
       x="157.85751"
       y="62.35125"
       width="329.07602"
       height="135.09438"
       id="rect4-5-1" />
  </defs>
  <g
     inkscape:label="Layer 1"
     inkscape:groupmode="layer"
     id="layer1">
    <rect
       style="fill:#005fb9;fill-opacity:1;stroke:none;stroke-width:0.953294;stroke-dasharray:none"
       id="rect5"
       width="132.29167"
       height="66.145836"
       x="-2.5431316e-06"
       y="-1.2715658e-06"
       ry="0" />
    <text
       xml:space="preserve"
       transform="matrix(0.31615295,0,0,0.31615295,-10.474341,-6.4462013)"
       id="text6"
       style="font-size:55px;line-height:1.25;font-family:'Microsoft JhengHei';-inkscape-font-specification:'Microsoft JhengHei';white-space:pre;shape-inside:url(#rect6);display:inline" />
    <text
       xml:space="preserve"
       transform="scale(0.26458333)"
       id="text30575"
       style="fill:black;fill-opacity:1;line-height:1.25;stroke:none;font-family:sans-serif;font-style:normal;font-weight:normal;font-size:40px;white-space:pre;shape-inside:url(#rect30577)" />
    <g
       id="g56252"
       transform="matrix(0.83926896,0,0,0.83926896,-24.273922,5.3158447)">
      <path
         id="rect2"
         style="fill:#ffffff;stroke-width:0.806724"
         d="m 104.23971,15.324581 h 1.11779 v 17.845053 h -1.11779 z" />
      <path
         id="rect1"
         style="fill-opacity:0;stroke:#ffffff;stroke-width:0.960404"
         d="m 39.282541,14.003039 h 12.657305 c 4.000431,0 7.220995,3.220563 7.220995,7.220995 v 23.697768 c 0,4.000432 -3.220564,7.220995 -7.220995,7.220995 H 39.282541 c -4.000431,0 -7.220995,-3.220563 -7.220995,-7.220995 V 21.224034 c 0,-4.000432 3.220564,-7.220995 7.220995,-7.220995 z" />
      <path
         style="font-size:11.3604px;line-height:1.25;font-family:'AR UDJingXiHeiE1G30 EB';-inkscape-font-specification:'AR UDJingXiHeiE1G30 EB';fill:#ffffff;stroke-width:0.266556"
         d="M 41.945501,30.474609 H 37.083519 V 21.22405 h 4.452553 q 1.317852,0 2.085534,0.639734 0.767681,0.639734 0.767681,1.701693 0,0.690914 -0.307073,1.215496 -0.294277,0.511787 -0.895628,0.84445 0.780476,0.307072 1.177111,0.844449 0.40943,0.537377 0.40943,1.279469 0,1.22829 -0.806065,1.983176 -0.806065,0.742092 -2.021561,0.742092 z m 0.754887,-6.704416 q 0,-0.62694 -0.358251,-0.946807 -0.358251,-0.332662 -1.036371,-0.332662 h -2.597321 v 2.610116 h 2.686885 q 0.57576,0 0.934012,-0.332662 0.371046,-0.345456 0.371046,-0.997985 z m 0.383841,3.966353 q 0,-0.665324 -0.409431,-1.01078 -0.396635,-0.358252 -1.049164,-0.358252 h -2.917189 v 2.840421 h 2.8916 q 0.678118,0 1.074753,-0.371046 0.409431,-0.371045 0.409431,-1.100343 z m 9.813534,2.738063 H 46.398062 V 21.22405 h 1.624925 v 7.983885 h 4.874776 z"
         id="text2"
         aria-label="BL" />
      <path
         style="font-size:13.0171px;line-height:1.25;font-family:'AR UDJingXiHeiE1G30 EB';-inkscape-font-specification:'AR UDJingXiHeiE1G30 EB';fill:#ffffff;stroke-width:0.266556"
         d="m 44.966088,39.816468 q 0,2.770844 -0.894293,4.090294 -0.894294,1.31945 -2.770844,1.31945 -1.817909,0 -2.756184,-1.31945 -0.938276,-1.31945 -0.938276,-4.090294 0,-2.961431 0.894294,-4.25156 0.894294,-1.304789 2.800166,-1.304789 1.861889,0 2.756183,1.304789 0.908954,1.290129 0.908954,4.25156 z m -3.665137,3.958349 q 0.938274,0 1.378091,-0.923615 0.439817,-0.938276 0.439817,-3.034734 0,-2.257726 -0.425157,-3.18134 -0.410495,-0.923615 -1.392751,-0.923615 -0.982258,0 -1.407414,0.938275 -0.425156,0.923616 -0.425156,3.16668 0,2.081798 0.439817,3.020074 0.439816,0.938275 1.392753,0.938275 z m 10.746174,-4.368845 q 0.894294,0.366514 1.348771,1.05556 0.454477,0.674385 0.454477,1.554019 0,1.480715 -1.026239,2.345688 -1.011578,0.864973 -2.800165,0.864973 -1.84723,0 -2.844147,-0.864973 -0.996918,-0.864973 -0.996918,-2.331028 0,-0.850312 0.439817,-1.524697 0.439816,-0.689046 1.290128,-1.084881 -0.689046,-0.322532 -1.026238,-0.894294 -0.337193,-0.586422 -0.351854,-1.31945 0,-1.290128 0.908955,-2.111119 0.923614,-0.835651 2.580257,-0.835651 1.612661,0 2.506954,0.82099 0.894294,0.820991 0.894294,2.12578 0,0.703707 -0.351853,1.290129 -0.337193,0.571762 -1.026239,0.908954 z m -2.037817,-0.674386 q 0.703707,0 1.128863,-0.410494 0.425156,-0.425156 0.425156,-1.099542 0,-0.703707 -0.425156,-1.099541 -0.410496,-0.410496 -1.114202,-0.410496 -0.733028,0 -1.187505,0.410496 -0.439816,0.410495 -0.439816,1.099541 0,0.659725 0.439816,1.084881 0.439817,0.425155 1.172844,0.425155 z m 1.993835,3.283965 q 0,-0.835652 -0.586422,-1.30479 -0.571761,-0.469137 -1.407413,-0.469137 -0.850312,0 -1.407413,0.513119 -0.54244,0.498459 -0.557101,1.275468 0,0.820991 0.542441,1.275468 0.54244,0.454477 1.436734,0.469138 0.879633,0 1.422073,-0.454477 0.557101,-0.469138 0.557101,-1.304789 z"
         id="text3"
         aria-label="08" />
      <path
         style="font-weight:500;font-size:72px;line-height:1.25;font-family:'Noto Sans TC';-inkscape-font-specification:'Noto Sans TC Medium';white-space:pre;fill:#ffffff;stroke-width:0.266556"
         d="m 74.455583,21.557682 h 7.005102 v 1.688902 H 74.455583 Z M 64.09187,17.105123 h 8.540467 v 1.496981 H 64.09187 Z m -0.211113,7.61925 h 8.789964 v 1.554557 h -8.789964 z m -0.09596,-3.281844 h 9.154613 v 1.516174 h -9.154613 z m 13.933436,0.844452 h 1.76567 v 10.574826 h -1.76567 z M 65.224201,19.005137 66.70199,18.65968 q 0.249497,0.55657 0.441418,1.228292 0.211112,0.671722 0.28788,1.151524 l -1.535364,0.422225 q -0.05758,-0.498993 -0.249497,-1.189907 -0.172729,-0.690915 -0.422226,-1.266677 z m 4.778824,-0.383841 1.669709,0.345457 q -0.307073,0.806067 -0.633338,1.631326 -0.326265,0.825258 -0.614146,1.401021 l -1.477789,-0.326266 q 0.191921,-0.422225 0.383842,-0.959603 0.19192,-0.537378 0.364649,-1.093948 0.19192,-0.556569 0.307073,-0.997987 z m 9.691991,-3.205074 1.420212,1.343444 q -0.940411,0.364649 -2.111126,0.671722 -1.151524,0.287881 -2.360624,0.518186 -1.189908,0.230305 -2.341432,0.403033 -0.05758,-0.287881 -0.230304,-0.690914 -0.153537,-0.403033 -0.326265,-0.671722 1.093947,-0.191921 2.187895,-0.441417 1.093947,-0.249497 2.072742,-0.537378 0.997988,-0.307073 1.688902,-0.594954 z m -12.762721,0.03838 1.804054,-0.460609 q 0.326265,0.594954 0.633338,1.324252 0.326265,0.710106 0.479801,1.228292 l -1.880822,0.537378 q -0.134344,-0.537378 -0.441417,-1.266677 -0.287881,-0.74849 -0.594954,-1.362636 z m 6.813182,1.535365 h 1.708093 v 6.736415 q 0,1.055563 -0.07677,2.264663 -0.05758,1.2091 -0.268689,2.437392 -0.211113,1.228292 -0.594954,2.379815 -0.383841,1.151524 -1.036371,2.072743 -0.134345,-0.172729 -0.403033,-0.383841 -0.249497,-0.211113 -0.537378,-0.403033 -0.268689,-0.191921 -0.46061,-0.287881 0.767683,-1.132332 1.132332,-2.533353 0.364649,-1.40102 0.441417,-2.840425 0.09596,-1.439404 0.09596,-2.70608 z m -3.684876,10.613211 1.2091,-0.65253 q 0.479801,0.690914 0.921219,1.516173 0.441417,0.806066 0.671722,1.40102 l -1.247484,0.748491 q -0.230305,-0.594954 -0.690914,-1.458597 -0.441418,-0.863643 -0.863643,-1.554557 z m -4.606095,-0.479801 1.420213,0.403033 q -0.345457,1.036371 -0.902027,2.111127 -0.537378,1.055563 -1.074756,1.804053 -0.211112,-0.19192 -0.594954,-0.441417 -0.364649,-0.268689 -0.633338,-0.403033 0.537378,-0.690914 0.997988,-1.612133 0.479801,-0.940411 0.786874,-1.86163 z m 2.168703,-4.855592 h 1.76567 v 10.594018 h -1.76567 z M 88.907205,17.81523 h 11.803115 v 1.669709 H 88.907205 Z m 0.844451,3.301034 h 9.116229 v 1.554558 h -7.388943 v 10.267753 h -1.727286 z m 8.502083,0 h 1.746481 v 9.883913 q 0,0.633338 -0.134348,1.017179 -0.134344,0.383841 -0.537377,0.594954 -0.383842,0.211113 -0.978795,0.268689 -0.575762,0.05758 -1.420213,0.03838 -0.03838,-0.345457 -0.191921,-0.844451 -0.134344,-0.479801 -0.326265,-0.825258 0.537378,0.01919 0.978795,0.01919 0.441418,0 0.575762,0 0.287881,0 0.287881,-0.307073 z m -4.356598,-5.968731 h 1.76567 v 17.714274 h -1.76567 z m -3.109114,9.135422 h 8.156626 v 1.477789 h -8.156626 z m 0,3.147499 h 8.156626 v 1.535364 h -8.156626 z m 5.661658,-11.380894 1.055564,-0.997987 q 0.422225,0.249497 0.902027,0.575762 0.498993,0.326265 0.959603,0.65253 0.460609,0.307073 0.748491,0.55657 l -1.093948,1.113139 Q 98.733541,17.700077 98.292123,17.373812 97.850706,17.028355 97.351712,16.682898 96.871911,16.337441 96.449685,16.04956 Z m -13.338482,3.742452 h 5.719234 v 1.708093 h -5.719234 z m 2.111126,-4.414174 h 1.708094 v 12.551609 h -1.708094 z m -2.494968,12.724338 q 0.786875,-0.307073 1.804054,-0.710107 1.01718,-0.422225 2.168703,-0.921219 1.151524,-0.498993 2.283856,-0.997987 l 0.403033,1.66971 q -1.535365,0.729298 -3.147498,1.477788 -1.612133,0.729299 -2.898002,1.324253 z"
         id="text4"
         aria-label="新埔" />
      <path
         style="font-size:6.62691px;line-height:1.25;font-family:'AR UDJingXiHeiE1G30 EB';-inkscape-font-specification:'AR UDJingXiHeiE1G30 EB';fill:#ffffff;stroke-width:0.266556"
         d="m 67.398227,35.636232 h 1.097147 l -1.858432,2.604789 1.962922,2.791379 h -1.10461 L 66.084638,38.950061 64.674021,41.0324 h -1.074755 l 1.947994,-2.798843 -1.865895,-2.597325 h 1.112073 l 1.298663,1.94053 z m 2.768989,0 V 41.0324 h -0.947874 v -5.396168 z m 2.186823,1.50018 V 41.0324 h -0.947874 v -5.396168 h 0.977729 l 2.649571,3.985552 V 35.636232 H 75.98134 V 41.0324 h -1.037438 z m 5.814124,1.753941 V 41.0324 h -0.947874 v -5.396168 h 2.537617 q 0.79114,0 1.238954,0.432887 0.447815,0.432888 0.447815,1.149392 0,0.806066 -0.462743,1.238954 -0.455277,0.432888 -1.23149,0.432888 z m 2.31371,-1.656916 q 0,-0.41796 -0.238835,-0.634403 -0.238834,-0.223907 -0.701576,-0.223907 h -1.373299 v 1.776331 h 1.373299 q 0.462742,0 0.701576,-0.223907 0.238835,-0.231371 0.238835,-0.694114 z m 6.396286,1.910677 q 0,0.940411 -0.589623,1.462862 -0.589623,0.522451 -1.679305,0.522451 -1.104609,0 -1.701696,-0.514987 -0.589623,-0.514988 -0.589623,-1.462863 v -3.515345 h 0.947874 v 3.470564 q 0,0.612014 0.335861,0.947875 0.335861,0.33586 1.007584,0.33586 0.634404,0 0.970266,-0.320933 0.343324,-0.328398 0.343324,-0.977729 v -3.455637 h 0.955338 z"
         id="text5"
         aria-label="XINPU" />
      <path
         d="m 67.878336,46.096015 h 2.783914 v 0.656795 h -2.783914 z m -3.978088,-1.731551 h 3.321293 v 0.58216 h -3.321293 z m -0.0821,2.963041 h 3.41832 v 0.60455 h -3.41832 z m -0.02239,-1.276271 h 3.507882 v 0.589622 h -3.507882 z m 5.388704,0.328397 h 0.686649 v 4.112432 H 69.184462 Z M 65.221301,43.64796 h 0.68665 v 0.992657 h -0.68665 z m 0,2.925724 h 0.68665 v 3.948234 h -0.68665 z m 2.328637,-2.373418 0.843385,0.246298 q -0.01492,0.08956 -0.171663,0.119416 v 2.254002 q 0,0.425424 -0.04478,0.910556 -0.03731,0.47767 -0.156735,0.985194 -0.119417,0.50006 -0.358253,0.977728 -0.23137,0.470205 -0.612012,0.865775 -0.04478,-0.0821 -0.134345,-0.179125 -0.08956,-0.09703 -0.194053,-0.18659 -0.09703,-0.0821 -0.179126,-0.119418 0.343325,-0.350788 0.544841,-0.753821 0.201517,-0.403033 0.298544,-0.835921 0.104494,-0.432887 0.134344,-0.850847 0.02986,-0.425425 0.02986,-0.820995 z m 2.470445,-0.514987 0.567232,0.514987 q -0.358251,0.164198 -0.81353,0.306006 -0.447816,0.134345 -0.918021,0.246298 -0.470205,0.104494 -0.910556,0.18659 -0.02239,-0.11195 -0.08956,-0.268689 -0.06717,-0.164199 -0.134344,-0.268689 0.417961,-0.08956 0.843385,-0.201516 0.432886,-0.119418 0.81353,-0.246298 0.380642,-0.134345 0.641867,-0.268689 z m -4.164678,4.343803 q 0.0821,0.05225 0.246298,0.18659 0.171663,0.12688 0.358253,0.276152 0.194053,0.149271 0.350788,0.283616 0.164199,0.12688 0.231371,0.18659 l -0.410497,0.514986 q -0.08956,-0.104494 -0.238834,-0.261224 -0.149272,-0.156737 -0.328398,-0.320935 -0.171662,-0.171663 -0.335861,-0.31347 -0.156735,-0.149272 -0.261226,-0.238835 z m -1.54496,-2.955578 0.552304,-0.12688 q 0.111954,0.23137 0.194053,0.507523 0.0821,0.276152 0.104491,0.470205 l -0.582159,0.164199 q -0.01493,-0.20898 -0.08956,-0.492596 -0.07464,-0.283617 -0.179125,-0.522451 z m 1.895749,-0.141808 0.62694,0.134344 q -0.104494,0.268689 -0.20898,0.537379 -0.104494,0.261225 -0.194053,0.455277 l -0.567232,-0.12688 q 0.05971,-0.141808 0.119418,-0.31347 0.06717,-0.179126 0.12688,-0.358252 0.05971,-0.179126 0.09703,-0.328398 z m -0.977729,2.73167 0.50006,0.18659 q -0.179126,0.410497 -0.447815,0.820994 -0.268689,0.410496 -0.574696,0.761285 -0.306007,0.350788 -0.60455,0.589623 -0.07464,-0.119418 -0.216443,-0.268689 -0.134345,-0.149272 -0.246299,-0.238835 0.298544,-0.194053 0.597087,-0.492596 0.306006,-0.298544 0.559768,-0.649331 0.261225,-0.358252 0.432888,-0.709041 z m 8.321891,-3.022749 h 4.590101 v 0.649331 h -4.590101 z m 0.328398,1.283735 h 3.5452 v 0.604551 h -2.873478 v 3.993015 h -0.671722 z m 3.306365,0 h 0.679186 v 3.843744 q 0,0.246298 -0.05225,0.395569 -0.05225,0.149272 -0.208979,0.231371 -0.149272,0.0821 -0.380644,0.104494 -0.223907,0.02239 -0.552304,0.01492 -0.01492,-0.134344 -0.07464,-0.328398 -0.05225,-0.186589 -0.12688,-0.320933 0.208979,0.0074 0.380642,0.0074 0.171662,0 0.223907,0 0.11195,0 0.11195,-0.119418 z m -1.694233,-2.321173 h 0.68665 v 6.888884 h -0.68665 z m -1.209099,3.552664 h 3.172021 v 0.574695 h -3.172021 z m 0,1.224028 h 3.172021 v 0.597085 h -3.172021 z m 2.201755,-4.425903 0.410497,-0.388107 q 0.164199,0.09703 0.350789,0.223908 0.194053,0.12688 0.373179,0.253762 0.179126,0.119416 0.291079,0.216443 l -0.425424,0.432888 q -0.11195,-0.09703 -0.283615,-0.223907 -0.171663,-0.134345 -0.365716,-0.268689 -0.18659,-0.134345 -0.350789,-0.246298 z m -5.187187,1.455397 h 2.224147 v 0.664259 h -2.224147 z m 0.820994,-1.716623 h 0.664258 v 4.881181 h -0.664258 z m -0.970265,4.948353 q 0.306006,-0.119417 0.701576,-0.276152 0.395569,-0.164199 0.843384,-0.358252 0.447816,-0.194053 0.888166,-0.388106 l 0.156735,0.649331 q -0.597085,0.283617 -1.224027,0.574696 -0.62694,0.283616 -1.127,0.514987 z"
         id="text5-9"
         style="font-weight:500;font-size:6.62691px;line-height:1.25;font-family:'Noto Sans JP';-inkscape-font-specification:'Noto Sans JP Medium';fill:#ffffff;stroke-width:0.266556"
         aria-label="新埔" />
      <path
         style="font-weight:500;font-size:6.62691px;line-height:1.25;font-family:'Noto Sans KR';-inkscape-font-specification:'Noto Sans KR Medium';fill:#ffffff;stroke-width:0.266556"
         d="m 91.254756,43.788701 h 0.783675 v 4.985671 H 91.254756 Z M 87.590138,49.8342 h 4.642346 v 0.634405 h -4.642346 z m 0,-1.522569 h 0.776213 v 1.836041 h -0.776213 z m 0.522451,-4.14975 h 0.649331 v 0.679185 q 0,0.671722 -0.223908,1.268808 -0.223907,0.589623 -0.649331,1.037438 -0.425424,0.447815 -1.037437,0.679185 l -0.403033,-0.619476 q 0.537377,-0.201517 0.910556,-0.567232 0.373179,-0.37318 0.559769,-0.835921 0.194053,-0.470206 0.194053,-0.962802 z m 0.156735,0 h 0.634404 v 0.679185 q 0,0.365715 0.104494,0.70904 0.111949,0.335861 0.320933,0.634404 0.216444,0.298544 0.522451,0.529915 0.306007,0.23137 0.701576,0.365714 l -0.403033,0.626942 Q 89.553062,47.483174 89.127638,47.065213 88.702215,46.639789 88.485771,46.072557 88.269327,45.49786 88.269327,44.841066 Z m 5.582758,-0.02986 h 5.037915 v 0.62694 h -5.037915 z m 0.03732,2.343564 h 4.96328 v 0.62694 h -4.96328 z m 0.91802,-1.843504 h 0.783675 v 2.179365 h -0.783675 z m 2.343563,0 h 0.783676 v 2.179365 h -0.783676 z m -3.873597,3.157094 h 6.179844 v 0.641867 h -6.17985 z m 2.694352,0.283615 h 0.783676 v 2.530154 H 95.97174 Z"
         id="text5-9-8"
         aria-label="신푸" />
      <g
         aria-label="致理科大"
         transform="matrix(0.24338153,0,0,0.24338153,6.353102,-23.641138)"
         id="text3833"
         style="font-size:40px;line-height:1.25;white-space:pre;shape-inside:url(#rect3835)">
        <path
           d="m 422.3957,162.45133 h 18.08 v 3.44 h -18.08 z m 0.68,18.6 h 16.64 v 3.4 h -16.64 z m 6.56,-4.2 h 3.8 v 15.12 h -3.8 z m -7.72,14.44 q 2.32,-0.32 5.32,-0.72 3.04,-0.44 6.44,-0.96 3.4,-0.56 6.72,-1.08 l 0.2,3.6 q -3.2,0.56 -6.44,1.12 -3.24,0.52 -6.24,1 -2.96,0.48 -5.44,0.92 z m 10.92,-22.64 2.84,-1.32 q 0.84,1.2 1.72,2.64 0.92,1.4 1.68,2.76 0.76,1.36 1.2,2.4 l -3.04,1.56 q -0.4,-1.04 -1.16,-2.44 -0.72,-1.4 -1.6,-2.88 -0.84,-1.48 -1.64,-2.72 z m 12.4,-1.2 h 10.16 v 3.48 h -10.16 z m 0.64,-7.2 3.52,0.56 q -0.68,4.28 -1.72,8.44 -1,4.12 -2.4,7.76 -1.4,3.64 -3.28,6.44 -0.16,-0.48 -0.56,-1.12 -0.36,-0.68 -0.8,-1.36 -0.4,-0.72 -0.76,-1.12 1.56,-2.36 2.68,-5.48 1.16,-3.16 1.96,-6.76 0.84,-3.6 1.36,-7.36 z m -3.08,6.96 q 1.24,5.96 3.36,11.28 2.16,5.28 5.36,9.36 3.24,4.08 7.64,6.4 -0.4,0.32 -0.92,0.84 -0.48,0.52 -0.96,1.08 -0.44,0.56 -0.72,1.04 -4.56,-2.68 -7.8,-7.08 -3.2,-4.4 -5.36,-10.08 -2.12,-5.68 -3.48,-12.28 z m -19.2,9.32 q -0.08,-0.36 -0.32,-0.96 -0.2,-0.64 -0.44,-1.32 -0.24,-0.68 -0.44,-1.12 0.48,-0.16 0.92,-0.6 0.48,-0.48 0.96,-1.16 0.36,-0.48 1.04,-1.64 0.72,-1.2 1.52,-2.84 0.8,-1.64 1.36,-3.32 l 3.84,1.08 q -0.84,1.84 -1.88,3.68 -1.04,1.8 -2.16,3.44 -1.08,1.6 -2.12,2.84 v 0.04 q 0,0 -0.36,0.2 -0.32,0.2 -0.8,0.48 -0.44,0.28 -0.8,0.64 -0.32,0.32 -0.32,0.56 z m 0,0 -0.04,-2.76 1.84,-1.16 11.8,-0.84 q 0.08,0.72 0.24,1.64 0.2,0.88 0.36,1.48 -4.32,0.4 -6.96,0.68 -2.64,0.24 -4.08,0.4 -1.44,0.12 -2.12,0.28 -0.64,0.12 -1.04,0.28 z m 30.84,-9.08 h 0.68 l 0.64,-0.16 2.4,0.76 q -1,7.56 -3.4,13.28 -2.36,5.68 -5.92,9.68 -3.52,4 -8.12,6.36 -0.24,-0.52 -0.68,-1.16 -0.44,-0.64 -0.92,-1.28 -0.48,-0.6 -0.92,-1 4.24,-1.88 7.56,-5.48 3.36,-3.6 5.6,-8.72 2.24,-5.12 3.08,-11.56 z"
           style="font-weight:500;font-family:'Noto Sans TC';-inkscape-font-specification:'Noto Sans TC Medium';fill:#ffffff"
           id="path51415" />
        <path
           d="m 480.27563,172.45133 v 4.4 h 13.68 v -4.4 z m 0,-7.4 v 4.36 h 13.68 v -4.36 z m -3.44,-3.24 h 20.72 v 18.28 h -20.72 z m -0.36,22.4 h 21.6 v 3.44 h -21.6 z m -2.96,8.24 h 25.88 v 3.44 h -25.88 z m -11.28,-29.88 h 12.84 v 3.52 h -12.84 z m 0.4,11.56 h 11.84 v 3.48 h -11.84 z m -0.84,15.24 q 1.68,-0.44 3.8,-1.08 2.12,-0.64 4.48,-1.4 2.36,-0.76 4.72,-1.52 l 0.64,3.6 q -3.28,1.12 -6.64,2.24 -3.36,1.12 -6.08,2.04 z m 5.2,-25.4 h 3.6 v 24.68 l -3.6,0.64 z m 18.56,-0.68 h 3.24 v 15.24 h 0.28 v 15.48 h -3.84 v -15.48 h 0.32 z"
           style="font-weight:500;font-family:'Noto Sans TC';-inkscape-font-specification:'Noto Sans TC Medium';fill:#ffffff"
           id="path51417" />
        <path
           d="m 508.59555,163.53133 h 3.68 v 33.6 h -3.68 z m -6.44,7.76 h 15.76 v 3.56 h -15.76 z m 6.64,1.4 2.28,1 q -0.6,2.12 -1.44,4.44 -0.84,2.28 -1.84,4.52 -0.96,2.24 -2.08,4.2 -1.12,1.96 -2.28,3.36 -0.28,-0.8 -0.84,-1.8 -0.56,-1.04 -1,-1.72 1.08,-1.2 2.12,-2.84 1.04,-1.68 2,-3.56 1,-1.92 1.76,-3.88 0.8,-1.96 1.32,-3.72 z m 6.52,-12.2 2.2,3.08 q -1.92,0.72 -4.32,1.36 -2.36,0.6 -4.88,1.04 -2.48,0.4 -4.8,0.72 -0.08,-0.6 -0.4,-1.44 -0.32,-0.88 -0.64,-1.48 2.28,-0.36 4.64,-0.84 2.36,-0.52 4.48,-1.12 2.16,-0.64 3.72,-1.32 z m -3.16,14.76 q 0.36,0.36 1.16,1.28 0.8,0.92 1.68,2 0.92,1.04 1.64,2 0.76,0.92 1.08,1.32 l -2.28,2.96 q -0.36,-0.76 -1,-1.84 -0.64,-1.12 -1.4,-2.32 -0.76,-1.2 -1.44,-2.24 -0.68,-1.04 -1.16,-1.64 z m 18.52,-15.24 h 3.72 v 37.12 h -3.72 z m -13.32,25.96 21.44,-3.56 0.56,3.52 -21.4,3.64 z m 2.96,-21.16 2.44,-2.16 q 1.16,0.76 2.4,1.76 1.24,1 2.32,2 1.08,1 1.72,1.88 l -2.64,2.4 q -0.6,-0.84 -1.64,-1.88 -1,-1.08 -2.24,-2.12 -1.2,-1.04 -2.36,-1.88 z m -1.52,10.48 2.4,-2.2 q 1.24,0.8 2.56,1.84 1.36,1 2.52,2.04 1.16,1 1.84,1.88 l -2.56,2.48 q -0.64,-0.92 -1.8,-2 -1.12,-1.08 -2.44,-2.12 -1.28,-1.08 -2.52,-1.92 z"
           style="font-weight:500;font-family:'Noto Sans TC';-inkscape-font-specification:'Noto Sans TC Medium';fill:#ffffff"
           id="path51419" />
        <path
           d="m 542.99547,171.21133 h 35.36 v 3.92 h -35.36 z m 19.92,1.56 q 1.28,4.72 3.44,8.8 2.2,4.08 5.36,7.16 3.2,3.04 7.4,4.8 -0.48,0.4 -1.04,1.04 -0.52,0.64 -1,1.28 -0.48,0.68 -0.8,1.2 -4.44,-2.08 -7.76,-5.48 -3.28,-3.44 -5.56,-7.96 -2.28,-4.52 -3.84,-9.92 z m -4.4,-12.72 h 4.12 q 0,2.84 -0.16,6.12 -0.12,3.24 -0.6,6.68 -0.48,3.44 -1.56,6.88 -1.08,3.44 -3,6.64 -1.92,3.2 -4.92,5.96 -3,2.72 -7.32,4.76 -0.48,-0.76 -1.28,-1.68 -0.8,-0.88 -1.6,-1.48 4.16,-1.88 7,-4.36 2.88,-2.52 4.64,-5.44 1.8,-2.96 2.76,-6.12 0.96,-3.16 1.36,-6.32 0.4,-3.16 0.48,-6.12 0.08,-2.96 0.08,-5.52 z"
           style="font-weight:500;font-family:'Noto Sans TC';-inkscape-font-specification:'Noto Sans TC Medium';fill:#ffffff"
           id="path51421" />
      </g>
      <g
         aria-label="CHIHLEE UNIVERSITY OF TECHNOLOGY"
         id="text24259"
         style="font-size:3.68803px;line-height:1.25;stroke-width:0.092201">
        <path
           d="m 111.16348,27.645225 h 0.46838 q -0.0184,0.438876 -0.30611,0.708102 -0.28767,0.269226 -0.83349,0.269226 -0.64541,0 -0.9884,-0.365115 -0.3393,-0.365115 -0.3393,-1.014208 0,-0.641717 0.3393,-1.01052 0.34299,-0.368803 0.98102,-0.368803 0.51264,0 0.79661,0.236033 0.28398,0.232346 0.32455,0.604837 h -0.46838 q -0.0295,-0.213905 -0.19546,-0.342986 -0.16597,-0.132769 -0.46838,-0.132769 -0.3725,0 -0.59747,0.250786 -0.22497,0.250786 -0.22497,0.763422 0,0.520012 0.22497,0.76711 0.22866,0.247098 0.60484,0.247098 0.32086,0 0.4942,-0.165961 0.17334,-0.16965 0.18809,-0.446252 z"
           style="font-family:'AR UDJingXiHeiE1G30 EB';-inkscape-font-specification:'AR UDJingXiHeiE1G30 EB';fill:#ffffff"
           id="path51424" />
        <path
           d="m 112.55755,27.390751 v 1.183858 h -0.46838 v -2.666446 h 0.46838 v 1.117473 h 1.27975 v -1.117473 h 0.46838 v 2.666446 h -0.46838 v -1.183858 z"
           style="font-family:'AR UDJingXiHeiE1G30 EB';-inkscape-font-specification:'AR UDJingXiHeiE1G30 EB';fill:#ffffff"
           id="path51426" />
        <path
           d="m 115.38626,25.908163 v 2.666446 h -0.46838 v -2.666446 z"
           style="font-family:'AR UDJingXiHeiE1G30 EB';-inkscape-font-specification:'AR UDJingXiHeiE1G30 EB';fill:#ffffff"
           id="path51428" />
        <path
           d="m 116.46685,27.390751 v 1.183858 h -0.46838 v -2.666446 h 0.46838 v 1.117473 h 1.27975 v -1.117473 h 0.46838 v 2.666446 h -0.46838 v -1.183858 z"
           style="font-family:'AR UDJingXiHeiE1G30 EB';-inkscape-font-specification:'AR UDJingXiHeiE1G30 EB';fill:#ffffff"
           id="path51430" />
        <path
           d="m 120.70071,28.574609 h -1.87352 v -2.666446 h 0.46838 v 2.301331 h 1.40514 z"
           style="font-family:'AR UDJingXiHeiE1G30 EB';-inkscape-font-specification:'AR UDJingXiHeiE1G30 EB';fill:#ffffff"
           id="path51432" />
        <path
           d="m 123.06104,28.574609 h -1.9731 v -2.666446 h 1.96204 v 0.365115 h -1.49366 v 0.752358 h 1.39408 v 0.365115 h -1.39408 v 0.818743 h 1.50472 z"
           style="font-family:'AR UDJingXiHeiE1G30 EB';-inkscape-font-specification:'AR UDJingXiHeiE1G30 EB';fill:#ffffff"
           id="path51434" />
        <path
           d="m 125.52833,28.574609 h -1.9731 v -2.666446 h 1.96203 v 0.365115 h -1.49365 v 0.752358 h 1.39408 v 0.365115 h -1.39408 v 0.818743 h 1.50472 z"
           style="font-family:'AR UDJingXiHeiE1G30 EB';-inkscape-font-specification:'AR UDJingXiHeiE1G30 EB';fill:#ffffff"
           id="path51436" />
        <path
           d="m 129.22373,27.641537 q 0,0.464692 -0.29136,0.722854 -0.29135,0.258162 -0.8298,0.258162 -0.54583,0 -0.84087,-0.254474 -0.29136,-0.254474 -0.29136,-0.722854 v -1.737062 h 0.46838 v 1.714934 q 0,0.302418 0.16596,0.46838 0.16596,0.165961 0.49789,0.165961 0.31348,0 0.47944,-0.158585 0.16965,-0.162274 0.16965,-0.483132 v -1.707558 h 0.47207 z"
           style="font-family:'AR UDJingXiHeiE1G30 EB';-inkscape-font-specification:'AR UDJingXiHeiE1G30 EB';fill:#ffffff"
           id="path51438" />
        <path
           d="m 130.28587,26.649457 v 1.925152 h -0.46838 v -2.666446 h 0.48314 l 1.30925,1.969408 v -1.969408 h 0.46838 v 2.666446 h -0.51264 z"
           style="font-family:'AR UDJingXiHeiE1G30 EB';-inkscape-font-specification:'AR UDJingXiHeiE1G30 EB';fill:#ffffff"
           id="path51440" />
        <path
           d="m 133.15885,25.908163 v 2.666446 h -0.46838 v -2.666446 z"
           style="font-family:'AR UDJingXiHeiE1G30 EB';-inkscape-font-specification:'AR UDJingXiHeiE1G30 EB';fill:#ffffff"
           id="path51442" />
        <path
           d="m 135.89536,25.908163 -0.94782,2.666446 h -0.54214 l -0.94045,-2.666446 h 0.50157 l 0.71179,2.194378 0.72285,-2.194378 z"
           style="font-family:'AR UDJingXiHeiE1G30 EB';-inkscape-font-specification:'AR UDJingXiHeiE1G30 EB';fill:#ffffff"
           id="path51444" />
        <path
           d="m 138.17456,28.574609 h -1.9731 v -2.666446 h 1.96203 v 0.365115 h -1.49365 v 0.752358 h 1.39408 v 0.365115 h -1.39408 v 0.818743 h 1.50472 z"
           style="font-family:'AR UDJingXiHeiE1G30 EB';-inkscape-font-specification:'AR UDJingXiHeiE1G30 EB';fill:#ffffff"
           id="path51446" />
        <path
           d="m 140.33943,26.671585 q 0,-0.195465 -0.10327,-0.295042 -0.10326,-0.103265 -0.29873,-0.103265 h -0.8003 v 0.829807 h 0.77448 q 0.19178,0 0.3098,-0.114329 0.11802,-0.114329 0.11802,-0.317171 z m -1.2023,0.792927 v 1.110097 h -0.46838 v -2.666446 h 1.35719 q 0.36512,0 0.57902,0.195466 0.2176,0.191777 0.2176,0.545828 0,0.232346 -0.11064,0.398307 -0.10696,0.165962 -0.26923,0.236034 0.20653,0.118017 0.31717,0.409371 0.11064,0.291355 0.14015,0.88144 h -0.48682 q -0.0221,-0.619589 -0.13646,-0.862999 -0.11064,-0.247098 -0.35774,-0.247098 z"
           style="font-family:'AR UDJingXiHeiE1G30 EB';-inkscape-font-specification:'AR UDJingXiHeiE1G30 EB';fill:#ffffff"
           id="path51448" />
        <path
           d="m 142.24982,27.368623 q -0.48682,-0.08851 -0.72285,-0.272914 -0.23603,-0.184402 -0.23603,-0.516325 0,-0.309794 0.25078,-0.512636 0.25448,-0.202841 0.78186,-0.202841 0.48314,0 0.74867,0.206529 0.26554,0.20653 0.29136,0.597461 h -0.46838 q -0.004,-0.188089 -0.14752,-0.313482 -0.14384,-0.125393 -0.43888,-0.125393 -0.2766,0 -0.40937,0.0922 -0.13277,0.0922 -0.12908,0.258162 0,0.180714 0.17703,0.269227 0.18071,0.08851 0.58639,0.169649 0.50895,0.103265 0.72286,0.28029 0.21759,0.177026 0.21759,0.531077 0,0.339298 -0.28767,0.567956 -0.28766,0.22497 -0.81874,0.22497 -0.54214,0 -0.84456,-0.228658 -0.30242,-0.228658 -0.30242,-0.660157 h 0.46838 q 0,0.239722 0.18072,0.383555 0.18071,0.140145 0.50157,0.140145 0.29504,0 0.461,-0.114329 0.16596,-0.114329 0.16596,-0.29873 0,-0.213906 -0.16596,-0.306107 -0.16596,-0.0922 -0.58271,-0.169649 z"
           style="font-family:'AR UDJingXiHeiE1G30 EB';-inkscape-font-specification:'AR UDJingXiHeiE1G30 EB';fill:#ffffff"
           id="path51450" />
        <path
           d="m 144.3815,25.908163 v 2.666446 h -0.46838 v -2.666446 z"
           style="font-family:'AR UDJingXiHeiE1G30 EB';-inkscape-font-specification:'AR UDJingXiHeiE1G30 EB';fill:#ffffff"
           id="path51452" />
        <path
           d="m 145.56167,26.273278 h -0.82981 v -0.365115 h 2.12431 v 0.365115 h -0.82612 v 2.301331 h -0.46838 z"
           style="font-family:'AR UDJingXiHeiE1G30 EB';-inkscape-font-specification:'AR UDJingXiHeiE1G30 EB';fill:#ffffff"
           id="path51454" />
        <path
           d="m 148.19861,27.088333 0.75974,-1.18017 h 0.5237 l -1.05109,1.567413 v 1.099033 h -0.46838 v -1.099033 l -1.06953,-1.567413 h 0.53476 z"
           style="font-family:'AR UDJingXiHeiE1G30 EB';-inkscape-font-specification:'AR UDJingXiHeiE1G30 EB';fill:#ffffff"
           id="path51456" />
        <path
           d="m 153.31021,27.254294 q 0,0.641717 -0.35774,1.006832 -0.35405,0.361427 -0.96995,0.361427 -0.62696,0 -0.98101,-0.365115 -0.35405,-0.365115 -0.35405,-1.003144 0,-0.649093 0.35773,-1.017896 0.35774,-0.372491 0.97733,-0.372491 0.62697,0 0.97733,0.368803 0.35036,0.368803 0.35036,1.021584 z m -1.32769,1.003144 q 0.402,0 0.61959,-0.265538 0.22128,-0.265538 0.22128,-0.737606 0,-0.46838 -0.22128,-0.744982 -0.22128,-0.28029 -0.61959,-0.28029 -0.40568,0 -0.63065,0.283978 -0.22128,0.28029 -0.22128,0.741294 0,0.472068 0.22497,0.737606 0.22497,0.265538 0.62696,0.265538 z"
           style="font-family:'AR UDJingXiHeiE1G30 EB';-inkscape-font-specification:'AR UDJingXiHeiE1G30 EB';fill:#ffffff"
           id="path51458" />
        <path
           d="m 154.28754,27.390751 v 1.183858 h -0.46838 v -2.666446 h 1.86983 v 0.365115 h -1.40145 v 0.752358 h 1.2318 v 0.365115 z"
           style="font-family:'AR UDJingXiHeiE1G30 EB';-inkscape-font-specification:'AR UDJingXiHeiE1G30 EB';fill:#ffffff"
           id="path51460" />
        <path
           d="m 157.61413,26.273278 h -0.82981 v -0.365115 h 2.12431 v 0.365115 h -0.82612 v 2.301331 h -0.46838 z"
           style="font-family:'AR UDJingXiHeiE1G30 EB';-inkscape-font-specification:'AR UDJingXiHeiE1G30 EB';fill:#ffffff"
           id="path51462" />
        <path
           d="m 161.23578,28.574609 h -1.9731 v -2.666446 h 1.96203 v 0.365115 h -1.49365 v 0.752358 h 1.39408 v 0.365115 h -1.39408 v 0.818743 h 1.50472 z"
           style="font-family:'AR UDJingXiHeiE1G30 EB';-inkscape-font-specification:'AR UDJingXiHeiE1G30 EB';fill:#ffffff"
           id="path51464" />
        <path
           d="m 163.62561,27.645225 h 0.46838 q -0.0184,0.438876 -0.3061,0.708102 -0.28767,0.269226 -0.8335,0.269226 -0.6454,0 -0.98839,-0.365115 -0.3393,-0.365115 -0.3393,-1.014208 0,-0.641717 0.3393,-1.01052 0.34299,-0.368803 0.98102,-0.368803 0.51263,0 0.79661,0.236033 0.28398,0.232346 0.32455,0.604837 h -0.46838 q -0.0295,-0.213905 -0.19547,-0.342986 -0.16596,-0.132769 -0.46838,-0.132769 -0.37249,0 -0.59746,0.250786 -0.22497,0.250786 -0.22497,0.763422 0,0.520012 0.22497,0.76711 0.22866,0.247098 0.60484,0.247098 0.32086,0 0.49419,-0.165961 0.17334,-0.16965 0.18809,-0.446252 z"
           style="font-family:'AR UDJingXiHeiE1G30 EB';-inkscape-font-specification:'AR UDJingXiHeiE1G30 EB';fill:#ffffff"
           id="path51466" />
        <path
           d="m 165.01969,27.390751 v 1.183858 h -0.46838 v -2.666446 h 0.46838 v 1.117473 h 1.27974 v -1.117473 h 0.46838 v 2.666446 h -0.46838 v -1.183858 z"
           style="font-family:'AR UDJingXiHeiE1G30 EB';-inkscape-font-specification:'AR UDJingXiHeiE1G30 EB';fill:#ffffff"
           id="path51468" />
        <path
           d="m 167.8484,26.649457 v 1.925152 h -0.46838 v -2.666446 h 0.48313 l 1.30925,1.969408 v -1.969408 h 0.46838 v 2.666446 h -0.51263 z"
           style="font-family:'AR UDJingXiHeiE1G30 EB';-inkscape-font-specification:'AR UDJingXiHeiE1G30 EB';fill:#ffffff"
           id="path51470" />
        <path
           d="m 172.81618,27.254294 q 0,0.641717 -0.35774,1.006832 -0.35405,0.361427 -0.96996,0.361427 -0.62696,0 -0.98101,-0.365115 -0.35405,-0.365115 -0.35405,-1.003144 0,-0.649093 0.35774,-1.017896 0.35774,-0.372491 0.97732,-0.372491 0.62697,0 0.97733,0.368803 0.35037,0.368803 0.35037,1.021584 z m -1.3277,1.003144 q 0.402,0 0.61959,-0.265538 0.22129,-0.265538 0.22129,-0.737606 0,-0.46838 -0.22129,-0.744982 -0.22128,-0.28029 -0.61959,-0.28029 -0.40568,0 -0.63065,0.283978 -0.22128,0.28029 -0.22128,0.741294 0,0.472068 0.22497,0.737606 0.22497,0.265538 0.62696,0.265538 z"
           style="font-family:'AR UDJingXiHeiE1G30 EB';-inkscape-font-specification:'AR UDJingXiHeiE1G30 EB';fill:#ffffff"
           id="path51472" />
        <path
           d="m 175.19864,28.574609 h -1.87352 v -2.666446 h 0.46838 v 2.301331 h 1.40514 z"
           style="font-family:'AR UDJingXiHeiE1G30 EB';-inkscape-font-specification:'AR UDJingXiHeiE1G30 EB';fill:#ffffff"
           id="path51474" />
        <path
           d="m 178.14906,27.254294 q 0,0.641717 -0.35774,1.006832 -0.35405,0.361427 -0.96995,0.361427 -0.62697,0 -0.98102,-0.365115 -0.35405,-0.365115 -0.35405,-1.003144 0,-0.649093 0.35774,-1.017896 0.35774,-0.372491 0.97733,-0.372491 0.62696,0 0.97732,0.368803 0.35037,0.368803 0.35037,1.021584 z m -1.32769,1.003144 q 0.40199,0 0.61959,-0.265538 0.22128,-0.265538 0.22128,-0.737606 0,-0.46838 -0.22128,-0.744982 -0.22129,-0.28029 -0.61959,-0.28029 -0.40569,0 -0.63066,0.283978 -0.22128,0.28029 -0.22128,0.741294 0,0.472068 0.22497,0.737606 0.22497,0.265538 0.62697,0.265538 z"
           style="font-family:'AR UDJingXiHeiE1G30 EB';-inkscape-font-specification:'AR UDJingXiHeiE1G30 EB';fill:#ffffff"
           id="path51476" />
        <path
           d="m 180.61634,28.250062 q -0.13646,0.191778 -0.34299,0.283978 -0.20284,0.08851 -0.46469,0.08851 -0.57533,0 -0.91463,-0.361427 -0.3393,-0.365115 -0.3393,-1.017896 0,-0.65647 0.35774,-1.017896 0.35774,-0.361427 0.96626,-0.361427 0.49051,0 0.79662,0.224969 0.30979,0.221282 0.37249,0.634342 h -0.46838 q -0.0369,-0.217594 -0.21759,-0.354051 -0.17703,-0.140145 -0.48314,-0.140145 -0.40937,0 -0.62327,0.265538 -0.21391,0.26185 -0.21391,0.74867 0,0.520012 0.22497,0.76711 0.22497,0.24341 0.61221,0.24341 0.3393,0 0.53846,-0.199154 0.19915,-0.199153 0.19915,-0.457315 v -0.05532 h -0.75605 v -0.365115 h 1.20599 v 1.397764 h -0.44994 z"
           style="font-family:'AR UDJingXiHeiE1G30 EB';-inkscape-font-specification:'AR UDJingXiHeiE1G30 EB';fill:#ffffff"
           id="path51478" />
        <path
           d="m 182.60788,27.088333 0.75973,-1.18017 h 0.5237 l -1.05109,1.567413 v 1.099033 h -0.46838 v -1.099033 l -1.06953,-1.567413 h 0.53477 z"
           style="font-family:'AR UDJingXiHeiE1G30 EB';-inkscape-font-specification:'AR UDJingXiHeiE1G30 EB';fill:#ffffff"
           id="path51480" />
      </g>
      <g
         aria-label="致理科技大学"
         id="text36699"
         style="font-size:3.46168px;line-height:1.25;stroke-width:0.0865422">
        <path
           d="m 109.13179,30.258074 h 1.56468 v 0.297704 h -1.56468 z m 0.0761,1.620066 h 1.42275 v 0.297704 h -1.42275 z m 0.54003,-0.373862 h 0.31155 v 1.308515 h -0.31155 z m -0.64734,1.249667 q 0.20424,-0.02769 0.46733,-0.06577 0.26655,-0.03808 0.56079,-0.08308 0.29771,-0.045 0.59195,-0.09 l 0.0139,0.308089 q -0.2804,0.04846 -0.56426,0.09693 -0.28386,0.045 -0.54348,0.08654 -0.25963,0.045 -0.47771,0.08308 z m -0.003,-1.568141 q 0.25616,-0.01385 0.61618,-0.03808 0.36001,-0.02423 0.73388,-0.05193 l 0.003,0.276935 q -0.35309,0.03462 -0.70272,0.06231 -0.34617,0.02769 -0.61618,0.05193 z m 0.50541,-0.751185 0.33578,0.07962 q -0.0589,0.141929 -0.12462,0.297704 -0.0658,0.152314 -0.13155,0.294243 -0.0658,0.141929 -0.12808,0.245779 l -0.25962,-0.07269 q 0.0554,-0.114235 0.11423,-0.263088 0.0588,-0.148852 0.10731,-0.301166 0.0519,-0.152314 0.0866,-0.280396 z m 0.46732,0.387708 0.25617,-0.12462 q 0.0796,0.107312 0.15577,0.228471 0.0796,0.121159 0.14539,0.238856 0.0658,0.117697 0.10039,0.207701 l -0.27347,0.14539 q -0.0312,-0.09347 -0.0935,-0.214624 -0.0623,-0.121159 -0.13846,-0.245779 -0.0762,-0.128083 -0.15232,-0.235395 z m 0.91735,-0.131543 h 1.31197 v 0.304627 h -1.31197 z m 0.0727,-0.643873 0.33579,0.05539 q -0.0589,0.32886 -0.15232,0.636949 -0.09,0.30809 -0.21116,0.571177 -0.12116,0.263088 -0.27001,0.460404 -0.0277,-0.02769 -0.0796,-0.06923 -0.0485,-0.04154 -0.10385,-0.08308 -0.0554,-0.04154 -0.0935,-0.06577 0.14539,-0.176546 0.25617,-0.41194 0.11077,-0.238856 0.19039,-0.519252 0.0796,-0.280396 0.12808,-0.574639 z m 0.71311,0.82388 0.33232,0.03462 q -0.09,0.59887 -0.26309,1.05235 -0.17308,0.450019 -0.47079,0.775417 -0.29424,0.321936 -0.75118,0.540022 -0.0173,-0.04154 -0.0519,-0.09693 -0.0312,-0.05539 -0.0692,-0.110774 -0.0381,-0.05539 -0.0658,-0.09 0.42232,-0.183469 0.69233,-0.467326 0.27002,-0.28732 0.42233,-0.692336 0.15231,-0.408479 0.22501,-0.945039 z m -0.63349,0.07616 q 0.0796,0.467327 0.23193,0.868882 0.15232,0.401554 0.39117,0.702721 0.24232,0.297704 0.59541,0.463865 -0.0381,0.03115 -0.0831,0.07962 -0.045,0.05193 -0.0831,0.103851 -0.0381,0.05539 -0.0623,0.100388 -0.37386,-0.197315 -0.62656,-0.526175 -0.24924,-0.332321 -0.40848,-0.771955 -0.15578,-0.443095 -0.2527,-0.96927 z"
           style="font-weight:500;font-family:'Noto Sans JP';-inkscape-font-specification:'Noto Sans JP Medium';fill:#ffffff"
           id="path51483" />
        <path
           d="m 114.15122,31.123494 v 0.380784 h 1.18389 v -0.380784 z m 0,-0.640411 v 0.377323 h 1.18389 v -0.377323 z m -0.29771,-0.280396 h 1.79315 v 1.581987 h -1.79315 z m -0.0311,1.93854 h 1.8693 v 0.297705 h -1.8693 z m -0.25617,0.713107 h 2.23971 v 0.297704 h -2.23971 z M 112.59,30.268459 h 1.1112 v 0.304627 H 112.59 Z m 0.0346,1.000425 h 1.02465 v 0.301166 h -1.02465 z m -0.0727,1.3189 q 0.14539,-0.03808 0.32886,-0.09347 0.18347,-0.05539 0.38771,-0.121159 0.20424,-0.06577 0.40848,-0.131544 l 0.0554,0.311551 q -0.28385,0.09693 -0.57464,0.193854 -0.29078,0.09693 -0.52617,0.176546 z m 0.45002,-2.198167 h 0.31155 v 2.135857 l -0.31155,0.05539 z m 1.60622,-0.05885 h 0.28039 v 1.3189 h 0.0242 v 1.33967 h -0.33233 v -1.33967 h 0.0277 z"
           style="font-weight:500;font-family:'Noto Sans JP';-inkscape-font-specification:'Noto Sans JP Medium';fill:#ffffff"
           id="path51485" />
        <path
           d="m 116.60208,30.351539 h 0.31847 v 2.907811 h -0.31847 z m -0.55733,0.671566 h 1.3639 v 0.308089 h -1.3639 z m 0.57464,0.121159 0.19731,0.08654 q -0.0519,0.183469 -0.12462,0.384246 -0.0727,0.197316 -0.15923,0.39117 -0.0831,0.193854 -0.18001,0.363476 -0.0969,0.169623 -0.19732,0.290781 -0.0242,-0.06923 -0.0727,-0.155775 -0.0485,-0.09 -0.0865,-0.148852 0.0935,-0.103851 0.18346,-0.24578 0.09,-0.14539 0.17309,-0.308089 0.0865,-0.166161 0.15231,-0.335783 0.0692,-0.169622 0.11424,-0.321936 z m 0.56425,-1.055813 0.19039,0.26655 q -0.16616,0.06231 -0.37386,0.117697 -0.20424,0.05192 -0.42232,0.09 -0.21463,0.03462 -0.4154,0.06231 -0.007,-0.05193 -0.0346,-0.124621 -0.0277,-0.07616 -0.0554,-0.128082 0.19732,-0.03116 0.40156,-0.0727 0.20424,-0.045 0.38771,-0.09693 0.18693,-0.05539 0.32193,-0.114236 z m -0.27347,1.27736 q 0.0312,0.03115 0.10039,0.110774 0.0692,0.07962 0.14539,0.173084 0.0796,0.09 0.14193,0.173084 0.0658,0.07962 0.0935,0.114235 l -0.19731,0.256165 q -0.0312,-0.06577 -0.0866,-0.159238 -0.0554,-0.09693 -0.12115,-0.200777 -0.0658,-0.10385 -0.12462,-0.193854 -0.0589,-0.09 -0.10039,-0.141929 z m 1.60276,-1.3189 h 0.32193 v 3.212439 h -0.32193 z m -1.15274,2.24663 1.85546,-0.308089 0.0485,0.304628 -1.852,0.315013 z m 0.25616,-1.831228 0.21116,-0.186931 q 0.10039,0.06577 0.2077,0.152314 0.10732,0.08654 0.20078,0.173084 0.0935,0.08654 0.14885,0.162699 l -0.22847,0.207701 q -0.0519,-0.0727 -0.14193,-0.162699 -0.0865,-0.09347 -0.19385,-0.183469 -0.10385,-0.09 -0.20424,-0.162699 z m -0.13154,0.90696 0.2077,-0.190393 q 0.10731,0.06923 0.22155,0.159238 0.11769,0.08654 0.21808,0.176545 0.10039,0.08654 0.15924,0.162699 l -0.22155,0.214624 q -0.0554,-0.07962 -0.15577,-0.173083 -0.0969,-0.09347 -0.21117,-0.18347 -0.11077,-0.09347 -0.21808,-0.16616 z"
           style="font-weight:500;font-family:'Noto Sans JP';-inkscape-font-specification:'Noto Sans JP Medium';fill:#ffffff"
           id="path51487" />
        <path
           d="m 120.69032,30.573086 h 1.92123 v 0.304628 h -1.92123 z m 0.0658,0.778878 h 1.50929 v 0.297705 h -1.50929 z m 0.72003,-1.301591 h 0.3254 v 1.46429 h -0.3254 z m -0.33232,1.530062 q 0.19385,0.515791 0.59541,0.88619 0.40501,0.366938 1.00042,0.519252 -0.0346,0.03115 -0.0762,0.07962 -0.0415,0.05192 -0.0761,0.10385 -0.0346,0.05539 -0.0589,0.09693 -0.6231,-0.183469 -1.03504,-0.591947 -0.41194,-0.408478 -0.64388,-1.007349 z m 1.09043,-0.228471 h 0.0588 l 0.0589,-0.01385 0.21116,0.09 q -0.11077,0.377324 -0.2977,0.675028 -0.18347,0.294243 -0.43271,0.519252 -0.24578,0.225009 -0.54348,0.380785 -0.29425,0.159237 -0.62311,0.256164 -0.0138,-0.045 -0.045,-0.100389 -0.0277,-0.05192 -0.0623,-0.107312 -0.0346,-0.05539 -0.0658,-0.08654 0.30117,-0.07616 0.5781,-0.211162 0.2804,-0.138467 0.50887,-0.332321 0.23193,-0.197316 0.39809,-0.450019 0.16962,-0.256164 0.25617,-0.567715 z m -2.74858,0.498482 q 0.14539,-0.03462 0.33232,-0.07962 0.1904,-0.04846 0.3981,-0.103851 0.21116,-0.05885 0.4154,-0.110773 l 0.0415,0.297704 q -0.28386,0.08308 -0.57464,0.166161 -0.28732,0.07962 -0.52618,0.14539 z m 0.0415,-1.118122 h 1.11466 v 0.304628 h -1.11466 z m 0.42925,-0.681951 h 0.32194 v 2.835116 q 0,0.128082 -0.0312,0.197315 -0.0311,0.06923 -0.10731,0.107312 -0.0762,0.03808 -0.19732,0.04846 -0.12116,0.01385 -0.30116,0.01038 -0.0104,-0.06231 -0.0381,-0.148852 -0.0277,-0.08308 -0.0589,-0.148852 0.11424,0.0035 0.21116,0.0035 0.10039,0 0.13501,-0.0035 0.0658,0 0.0658,-0.06577 z"
           style="font-weight:500;font-family:'Noto Sans JP';-inkscape-font-specification:'Noto Sans JP Medium';fill:#ffffff"
           id="path51489" />
        <path
           d="m 123.04079,31.016181 h 3.06013 v 0.339245 h -3.06013 z m 1.72392,0.135006 q 0.11077,0.408478 0.2977,0.76157 0.19039,0.353091 0.46387,0.61964 0.27693,0.263088 0.64041,0.415402 -0.0415,0.03462 -0.09,0.09 -0.045,0.05539 -0.0865,0.110773 -0.0415,0.05885 -0.0692,0.103851 -0.38425,-0.180008 -0.67157,-0.47425 -0.28386,-0.297705 -0.48117,-0.688875 -0.19732,-0.39117 -0.33232,-0.858496 z m -0.38079,-1.100814 h 0.35656 q 0,0.245779 -0.0139,0.529637 -0.0104,0.280396 -0.0519,0.5781 -0.0415,0.297705 -0.135,0.595409 -0.0935,0.297705 -0.25963,0.574639 -0.16616,0.276935 -0.42578,0.51579 -0.25963,0.235395 -0.63349,0.41194 -0.0415,-0.06577 -0.11078,-0.14539 -0.0692,-0.07616 -0.13846,-0.128082 0.36001,-0.162699 0.60579,-0.377323 0.24924,-0.218086 0.40156,-0.470789 0.15577,-0.256164 0.23885,-0.529637 0.0831,-0.273473 0.1177,-0.546945 0.0346,-0.273473 0.0415,-0.529637 0.007,-0.256165 0.007,-0.477712 z"
           style="font-weight:500;font-family:'Noto Sans JP';-inkscape-font-specification:'Noto Sans JP Medium';fill:#ffffff"
           id="path51491" />
        <path
           d="m 127.09095,31.223882 h 1.66507 v 0.28732 h -1.66507 z m -0.59541,0.785802 h 3.07743 v 0.301166 h -3.07743 z m 1.3639,-0.242318 h 0.33579 v 1.128508 q 0,0.135005 -0.0415,0.2077 -0.0381,0.0727 -0.14886,0.110774 -0.10731,0.03462 -0.26655,0.04154 -0.15923,0.01038 -0.39117,0.01038 -0.0138,-0.06923 -0.0554,-0.162699 -0.0381,-0.09 -0.0796,-0.155775 0.12116,0.0035 0.23539,0.0069 0.1177,0.0035 0.20424,0.0035 0.0865,-0.0035 0.12116,-0.0035 0.0519,-0.0035 0.0692,-0.01731 0.0173,-0.01385 0.0173,-0.05192 z m 0.79273,-0.543484 h 0.0796 l 0.0727,-0.01731 0.2077,0.159237 q -0.11769,0.124621 -0.27001,0.245779 -0.15231,0.121159 -0.32193,0.22501 -0.16617,0.10385 -0.33233,0.183469 -0.0311,-0.045 -0.0865,-0.100389 -0.0519,-0.05885 -0.0935,-0.09346 0.14193,-0.06577 0.28385,-0.159238 0.14539,-0.09346 0.26655,-0.190392 0.12116,-0.100389 0.19386,-0.190392 z m -2.10124,-0.609255 h 2.97012 v 0.806571 h -0.32194 v -0.51579 h -2.33663 v 0.51579 h -0.31155 z m 2.44048,-0.543484 0.34963,0.110774 q -0.11423,0.16616 -0.24232,0.328859 -0.12808,0.162699 -0.23539,0.276935 l -0.26309,-0.103851 q 0.0692,-0.08308 0.14193,-0.190392 0.0727,-0.107312 0.13847,-0.218086 0.0692,-0.110774 0.11077,-0.204239 z m -2.20509,0.141929 0.27694,-0.124621 q 0.0969,0.103851 0.19039,0.235394 0.0935,0.131544 0.135,0.231933 l -0.29078,0.141929 q -0.0415,-0.100389 -0.13154,-0.235394 -0.09,-0.135006 -0.18001,-0.249241 z m 0.88273,-0.0727 0.28732,-0.107312 q 0.0831,0.117697 0.1627,0.26655 0.0831,0.14539 0.11423,0.252702 l -0.30462,0.121159 q -0.0277,-0.110774 -0.10385,-0.259626 -0.0727,-0.152314 -0.15578,-0.273473 z"
           style="font-weight:500;font-family:'Noto Sans JP';-inkscape-font-specification:'Noto Sans JP Medium';fill:#ffffff"
           id="path51493" />
      </g>
      <g
         aria-label="합리적인과학기술대학"
         id="text42415"
         style="font-size:3.46168px;line-height:1.25;stroke-width:0.0833527">
        <path
           d="m 134.83086,30.204608 h 0.36002 v 1.841614 h -0.36002 z m 0.21116,0.785802 h 0.59541 v 0.301166 h -0.59541 z m -1.8693,1.190818 h 0.36001 v 0.290781 h 1.30159 v -0.290781 h 0.35656 v 1.145816 h -2.01816 z m 0.36001,0.567715 v 0.290781 h 1.30159 v -0.290781 z m -0.80657,-2.243168 h 1.86585 v 0.290781 h -1.86585 z m 0.93465,0.408478 q 0.22847,0 0.3981,0.06923 0.17308,0.06577 0.27001,0.193855 0.0969,0.12462 0.0969,0.290781 0,0.169622 -0.0969,0.297704 -0.0969,0.124621 -0.27001,0.193854 -0.16963,0.06923 -0.3981,0.06923 -0.22847,0 -0.40155,-0.06923 -0.17309,-0.06923 -0.27001,-0.193854 -0.0969,-0.128082 -0.0969,-0.297704 0,-0.166161 0.0969,-0.290781 0.0969,-0.128083 0.27001,-0.193855 0.17308,-0.06923 0.40155,-0.06923 z m 0,0.266549 q -0.19039,0 -0.30809,0.07962 -0.11423,0.07616 -0.11423,0.211162 0,0.135006 0.11423,0.211163 0.1177,0.07616 0.30809,0.07616 0.18693,0 0.30117,-0.07616 0.11424,-0.07616 0.11424,-0.211163 0,-0.135005 -0.11424,-0.211162 -0.11424,-0.07962 -0.30117,-0.07962 z m -0.18347,-1.003887 h 0.36348 v 0.488097 h -0.36348 z"
           style="font-weight:500;font-family:'Noto Sans KR';-inkscape-font-specification:'Noto Sans KR Medium';fill:#ffffff"
           id="path51496" />
        <path
           d="m 138.15407,30.201147 h 0.36347 v 3.170899 h -0.36347 z m -2.07009,2.118548 h 0.27001 q 0.27348,0 0.52272,-0.0069 0.2527,-0.01038 0.50194,-0.03462 0.24924,-0.02423 0.51579,-0.06577 l 0.0346,0.294243 q -0.40848,0.06923 -0.78234,0.09347 -0.37386,0.02077 -0.79273,0.02077 h -0.27001 z m -0.007,-1.83469 h 1.47814 v 1.170047 h -1.10428 v 0.778878 h -0.36694 v -1.066197 h 1.10082 v -0.588486 h -1.10774 z"
           style="font-weight:500;font-family:'Noto Sans KR';-inkscape-font-specification:'Noto Sans KR Medium';fill:#ffffff"
           id="path51498" />
        <path
           d="m 139.86413,30.523083 h 0.29771 v 0.231933 q 0,0.290781 -0.10732,0.550407 -0.10385,0.259626 -0.30116,0.45348 -0.19732,0.193854 -0.47771,0.294243 l -0.18693,-0.28732 q 0.18693,-0.06577 0.32885,-0.169622 0.1454,-0.103851 0.24578,-0.238856 0.10039,-0.138467 0.14886,-0.290781 0.0519,-0.155776 0.0519,-0.311551 z m 0.0727,0 h 0.29424 v 0.228471 q 0,0.197316 0.0865,0.384246 0.0865,0.186931 0.2527,0.335783 0.16616,0.145391 0.40502,0.228471 l -0.18001,0.283858 q -0.27347,-0.09346 -0.46732,-0.280396 -0.1904,-0.186931 -0.29078,-0.43271 -0.10039,-0.245779 -0.10039,-0.519252 z m 0.86196,0.47425 h 0.65425 v 0.297705 h -0.65425 z m -1.60276,-0.595409 h 1.69276 v 0.290781 h -1.69276 z m 0.38771,1.848537 h 2.12893 v 1.118123 h -0.36348 v -0.827342 h -1.76545 z m 1.76545,-2.045853 h 0.36348 v 1.886616 h -0.36348 z"
           style="font-weight:500;font-family:'Noto Sans KR';-inkscape-font-specification:'Noto Sans KR Medium';fill:#ffffff"
           id="path51500" />
        <path
           d="m 144.52008,30.204608 h 0.36348 v 2.295094 h -0.36348 z m -1.69968,2.803961 h 2.15316 v 0.294243 h -2.15316 z m 0,-0.740799 h 0.36001 v 0.855035 h -0.36001 z m 0.35655,-1.851999 q 0.23886,0 0.42925,0.100389 0.19039,0.100388 0.30117,0.280396 0.11077,0.176545 0.11077,0.408478 0,0.228471 -0.11077,0.408478 -0.11078,0.180008 -0.30117,0.280396 -0.19039,0.100389 -0.42925,0.100389 -0.23885,0 -0.42925,-0.100389 -0.19039,-0.100388 -0.30116,-0.280396 -0.11078,-0.180007 -0.11078,-0.408478 0,-0.231933 0.11078,-0.408478 0.11077,-0.180008 0.30116,-0.280396 0.1904,-0.100389 0.42925,-0.100389 z m 0,0.315013 q -0.13846,0 -0.24924,0.05885 -0.11077,0.05885 -0.17308,0.166161 -0.0623,0.10385 -0.0623,0.249241 0,0.145391 0.0623,0.252703 0.0623,0.10385 0.17308,0.162699 0.11078,0.05885 0.24924,0.05885 0.13847,0 0.24924,-0.05885 0.11078,-0.05885 0.17309,-0.162699 0.0658,-0.107312 0.0658,-0.252703 0,-0.145391 -0.0658,-0.249241 -0.0623,-0.107312 -0.17309,-0.166161 -0.11077,-0.05885 -0.24924,-0.05885 z"
           style="font-weight:500;font-family:'Noto Sans KR';-inkscape-font-specification:'Noto Sans KR Medium';fill:#ffffff"
           id="path51502" />
        <path
           d="m 145.60012,30.533468 h 1.39852 v 0.294243 h -1.39852 z m 0.45348,0.90696 h 0.35656 v 1.073121 h -0.35656 z m 0.79965,-0.90696 h 0.35655 v 0.211163 q 0,0.2077 -0.0104,0.512328 -0.0104,0.304628 -0.0796,0.723491 l -0.35655,-0.03116 q 0.0658,-0.405016 0.0762,-0.699259 0.0138,-0.297705 0.0138,-0.505405 z m 0.69926,-0.332321 h 0.36001 v 3.163975 h -0.36001 z m 0.25616,1.301591 h 0.57464 v 0.301167 h -0.57464 z m -2.34009,1.197742 -0.0381,-0.301166 q 0.28386,0 0.61618,-0.0035 0.33232,-0.0069 0.67503,-0.02423 0.3427,-0.02077 0.65772,-0.05885 l 0.0208,0.266549 q -0.3254,0.05192 -0.66811,0.07962 -0.33924,0.02423 -0.66118,0.03115 -0.32194,0.0069 -0.60233,0.01038 z"
           style="font-weight:500;font-family:'Noto Sans KR';-inkscape-font-specification:'Noto Sans KR Medium';fill:#ffffff"
           id="path51504" />
        <path
           d="m 148.64986,30.512698 h 1.86584 v 0.287319 h -1.86584 z m 0.93465,0.422325 q 0.22501,0 0.39809,0.07269 0.17309,0.07269 0.27001,0.204239 0.0969,0.128082 0.0969,0.301166 0,0.173084 -0.0969,0.304628 -0.0969,0.128082 -0.27001,0.200778 -0.17308,0.06923 -0.39809,0.06923 -0.22847,0 -0.40156,-0.06923 -0.17308,-0.0727 -0.27001,-0.200778 -0.0969,-0.131544 -0.0969,-0.304628 0,-0.173084 0.0969,-0.301166 0.0969,-0.131544 0.27001,-0.204239 0.17309,-0.07269 0.40156,-0.07269 z m 0,0.280396 q -0.19039,0 -0.30809,0.07962 -0.11424,0.07616 -0.11424,0.218085 0,0.138468 0.11424,0.218086 0.1177,0.07962 0.30809,0.07962 0.18693,0 0.30117,-0.07962 0.11423,-0.07962 0.11423,-0.218086 0,-0.141928 -0.11423,-0.218085 -0.11424,-0.07962 -0.30117,-0.07962 z m 1.17005,-1.010811 h 0.36001 v 1.980081 h -0.36001 z m 0.26308,0.84465 h 0.54349 v 0.301167 h -0.54349 z m -1.98008,1.287745 h 2.07701 v 1.031581 h -0.36001 v -0.7408 h -1.717 z m 0.36348,-2.149703 h 0.36348 v 0.488097 h -0.36348 z"
           style="font-weight:500;font-family:'Noto Sans KR';-inkscape-font-specification:'Noto Sans KR Medium';fill:#ffffff"
           id="path51506" />
        <path
           d="m 154.08123,30.201147 h 0.36347 v 3.163975 h -0.36347 z m -0.9312,0.335783 h 0.36002 q 0,0.353091 -0.0762,0.675027 -0.0762,0.321937 -0.24924,0.612718 -0.16962,0.287319 -0.45002,0.533098 -0.27693,0.24578 -0.68541,0.443095 l -0.19385,-0.287319 q 0.4604,-0.221548 0.74426,-0.505405 0.28385,-0.283858 0.4154,-0.633488 0.135,-0.353091 0.135,-0.775416 z m -1.13889,0 h 1.30159 v 0.290781 h -1.30159 z"
           style="font-weight:500;font-family:'Noto Sans KR';-inkscape-font-specification:'Noto Sans KR Medium';fill:#ffffff"
           id="path51508" />
        <path
           d="m 156.25862,30.218455 h 0.30809 v 0.09 q 0,0.162699 -0.0623,0.304628 -0.0623,0.138467 -0.18001,0.256164 -0.11424,0.117697 -0.27347,0.207701 -0.15924,0.09 -0.3531,0.152314 -0.19385,0.05885 -0.41194,0.08308 l -0.12115,-0.273473 q 0.19039,-0.02077 0.35655,-0.06577 0.16616,-0.04846 0.30116,-0.117697 0.13847,-0.06923 0.2354,-0.155775 0.0969,-0.08654 0.14885,-0.183469 0.0519,-0.100389 0.0519,-0.207701 z m 0.0658,0 h 0.30463 v 0.09 q 0,0.107312 0.0519,0.207701 0.0519,0.09693 0.14885,0.183469 0.10039,0.08654 0.2354,0.155775 0.135,0.06923 0.30116,0.117697 0.16963,0.045 0.36002,0.06577 l -0.12462,0.273473 q -0.21809,-0.02423 -0.41194,-0.08308 -0.19039,-0.06231 -0.35309,-0.152314 -0.15924,-0.09 -0.27348,-0.207701 -0.11423,-0.117697 -0.17654,-0.256164 -0.0623,-0.141929 -0.0623,-0.304628 z m -0.0623,1.488523 h 0.36001 v 0.463865 h -0.36001 z m -1.24621,-0.221548 h 2.85935 v 0.290781 h -2.85935 z m 0.33579,0.553869 h 2.16355 v 0.765031 h -1.80008 v 0.332321 h -0.35655 v -0.588485 h 1.80007 v -0.235394 h -1.80699 z m 0.007,1.021195 h 2.24663 v 0.276935 h -2.24663 z"
           style="font-weight:500;font-family:'Noto Sans KR';-inkscape-font-specification:'Noto Sans KR Medium';fill:#ffffff"
           id="path51510" />
        <path
           d="m 160.55109,30.201147 h 0.34617 v 3.163975 h -0.34617 z m -0.48463,1.246205 h 0.57464 v 0.297704 h -0.57464 z m -0.22847,-1.180433 h 0.33924 v 2.942428 h -0.33924 z m -1.53353,2.049314 h 0.21116 q 0.21809,0 0.40156,-0.0069 0.18347,-0.0069 0.35655,-0.02423 0.17655,-0.02077 0.36002,-0.05539 l 0.0346,0.297705 q -0.19039,0.03808 -0.3704,0.05885 -0.18,0.01731 -0.3704,0.02423 -0.18693,0.0069 -0.41194,0.0069 h -0.21116 z m 0,-1.737763 h 1.17005 v 0.294243 h -0.8135 V 32.4547 h -0.35655 z"
           style="font-weight:500;font-family:'Noto Sans KR';-inkscape-font-specification:'Noto Sans KR Medium';fill:#ffffff"
           id="path51512" />
        <path
           d="m 161.38881,30.512698 h 1.86585 v 0.287319 h -1.86585 z m 0.93465,0.422325 q 0.22501,0 0.3981,0.07269 0.17308,0.07269 0.27001,0.204239 0.0969,0.128082 0.0969,0.301166 0,0.173084 -0.0969,0.304628 -0.0969,0.128082 -0.27001,0.200778 -0.17309,0.06923 -0.3981,0.06923 -0.22847,0 -0.40155,-0.06923 -0.17308,-0.0727 -0.27001,-0.200778 -0.0969,-0.131544 -0.0969,-0.304628 0,-0.173084 0.0969,-0.301166 0.0969,-0.131544 0.27001,-0.204239 0.17308,-0.07269 0.40155,-0.07269 z m 0,0.280396 q -0.19039,0 -0.30808,0.07962 -0.11424,0.07616 -0.11424,0.218085 0,0.138468 0.11424,0.218086 0.11769,0.07962 0.30808,0.07962 0.18694,0 0.30117,-0.07962 0.11424,-0.07962 0.11424,-0.218086 0,-0.141928 -0.11424,-0.218085 -0.11423,-0.07962 -0.30117,-0.07962 z m 1.17005,-1.010811 h 0.36002 v 1.980081 h -0.36002 z m 0.26309,0.84465 h 0.54348 v 0.301167 h -0.54348 z m -1.98008,1.287745 h 2.07701 v 1.031581 h -0.36002 v -0.7408 h -1.71699 z M 162.14,30.1873 h 0.36347 v 0.488097 H 162.14 Z"
           style="font-weight:500;font-family:'Noto Sans KR';-inkscape-font-specification:'Noto Sans KR Medium';fill:#ffffff"
           id="path51514" />
      </g>
    </g>
  </g>
</svg>
