<?xml version="1.0" encoding="UTF-8" standalone="no"?>
<!-- Created with Inkscape (http://www.inkscape.org/) -->

<svg
   width="500"
   height="250"
   viewBox="0 0 132.29166 66.145833"
   version="1.1"
   id="svg1"
   inkscape:version="1.3.2 (091e20e, 2023-11-25, custom)"
   sodipodi:docname="bl09.svg"
   xmlns:inkscape="http://www.inkscape.org/namespaces/inkscape"
   xmlns:sodipodi="http://sodipodi.sourceforge.net/DTD/sodipodi-0.dtd"
   xmlns="http://www.w3.org/2000/svg"
   xmlns:svg="http://www.w3.org/2000/svg">
  <sodipodi:namedview
     id="namedview1"
     pagecolor="#9e652e"
     bordercolor="#ffffff"
     borderopacity="1"
     inkscape:showpageshadow="0"
     inkscape:pageopacity="0"
     inkscape:pagecheckerboard="false"
     inkscape:deskcolor="#d1d1d1"
     inkscape:document-units="mm"
     inkscape:zoom="2.0208096"
     inkscape:cx="300.37466"
     inkscape:cy="106.88785"
     inkscape:window-width="1920"
     inkscape:window-height="1009"
     inkscape:window-x="1912"
     inkscape:window-y="-8"
     inkscape:window-maximized="1"
     inkscape:current-layer="g1" />
  <defs
     id="defs1">
    <rect
       x="560.66638"
       y="34.144731"
       width="279.32397"
       height="128.59143"
       id="rect6" />
    <rect
       x="157.85752"
       y="62.351248"
       width="329.07603"
       height="135.09437"
       id="rect4" />
    <rect
       x="157.85751"
       y="62.35125"
       width="329.07602"
       height="135.09438"
       id="rect4-5" />
    <rect
       x="157.85751"
       y="62.35125"
       width="329.07602"
       height="135.09438"
       id="rect4-5-1" />
  </defs>
  <g
     inkscape:label="Layer 1"
     inkscape:groupmode="layer"
     id="layer1">
    <rect
       style="fill:#005fb9;fill-opacity:1;stroke:none;stroke-width:0.953294;stroke-dasharray:none"
       id="rect5"
       width="132.29167"
       height="66.145836"
       x="-2.5431316e-06"
       y="-1.2715658e-06"
       ry="0" />
    <g
       id="g1"
       transform="translate(23.862138)">
      <g
         id="g2"
         transform="matrix(1.1262533,0,0,1.1262533,20.78248,-4.175565)">
        <path
           id="rect1"
           style="fill-opacity:0;stroke:#ffffff;stroke-width:0.852742"
           d="m -13.341858,16.140778 h 11.2384172 c 3.5519819,0 6.4115196,2.859537 6.4115196,6.411519 v 21.041242 c 0,3.551982 -2.8595377,6.411519 -6.4115196,6.411519 H -13.341858 c -3.551982,0 -6.41152,-2.859537 -6.41152,-6.411519 V 22.552297 c 0,-3.551982 2.859538,-6.411519 6.41152,-6.411519 z" />
        <path
           style="font-size:11.3604px;line-height:1.25;font-family:'AR UDJingXiHeiE1G30 EB';-inkscape-font-specification:'AR UDJingXiHeiE1G30 EB';fill:#ffffff;stroke-width:0.236675"
           d="m -10.977417,30.76588 h -4.316952 v -8.213569 h 3.95342 q 1.170121,0 1.8517449,0.56802 0.681624,0.56802 0.681624,1.510933 0,0.613462 -0.2726496,1.079238 -0.2612892,0.454416 -0.795228,0.749787 0.6929844,0.272649 1.0451568,0.749786 0.3635328,0.477137 0.3635328,1.13604 0,1.090599 -0.7157052,1.760862 -0.7157052,0.658903 -1.7949437,0.658903 z m 0.670264,-5.952849 q 0,-0.55666 -0.318091,-0.84067 -0.318091,-0.29537 -0.920193,-0.29537 h -2.306161 v 2.317521 h 2.385684 q 0.511218,0 0.829309,-0.29537 0.329452,-0.306731 0.329452,-0.886111 z m 0.3408121,3.521724 q 0,-0.590741 -0.3635331,-0.897472 -0.352172,-0.318091 -0.931553,-0.318091 h -2.590171 v 2.522009 h 2.567451 q 0.602101,0 0.954273,-0.329452 0.3635331,-0.329451 0.3635331,-0.976994 z m 8.7134347,2.431125 h -5.7710833 v -8.213569 h 1.4427708 v 7.08889 h 4.3283125 z"
           id="text2"
           aria-label="BL" />
        <path
           style="font-size:13.0171px;line-height:1.25;font-family:'AR UDJingXiHeiE1G30 EB';-inkscape-font-specification:'AR UDJingXiHeiE1G30 EB';fill:#ffffff;stroke-width:0.236675"
           d="m -8.2954382,39.060514 q 0,2.460232 -0.7940431,3.631771 -0.7940431,1.171539 -2.4602317,1.171539 -1.614121,0 -2.447215,-1.171539 -0.833095,-1.171539 -0.833095,-3.631771 0,-2.629454 0.794044,-3.774959 0.794043,-1.158522 2.486266,-1.158522 1.6531715,0 2.4472146,1.158522 0.8070602,1.145505 0.8070602,3.774959 z m -3.2542748,3.514617 q 0.833094,0 1.223607,-0.820077 0.3905132,-0.833095 0.3905132,-2.69454 0,-2.004634 -0.3774962,-2.824711 -0.364479,-0.820077 -1.236624,-0.820077 -0.872146,0 -1.249642,0.833094 -0.377496,0.820078 -0.377496,2.811694 0,1.848428 0.390513,2.681523 0.390513,0.833094 1.236625,0.833094 z m 7.6410288,-7.159405 q -0.7029235,0 -1.1324878,0.49465 -0.4165472,0.481632 -0.4165472,1.379812 0,0.859129 0.390513,1.353779 0.4035301,0.494649 1.1715391,0.507667 0.7289576,0 1.1324877,-0.468616 0.4165472,-0.481633 0.4165472,-1.379813 0,-0.937231 -0.4035301,-1.405846 -0.4035301,-0.481633 -1.1585219,-0.481633 z m 0.026034,7.159405 q 0.911197,0 1.3537784,-0.754992 0.4425814,-0.754992 0.4425814,-2.447215 -0.3254275,0.520684 -0.8851628,0.794043 -0.5467182,0.27336 -1.2236075,0.27336 -1.3277442,0 -2.1217873,-0.859129 -0.7940431,-0.872146 -0.7940431,-2.238941 0,-1.405847 0.8591286,-2.304027 0.8721457,-0.911197 2.330061,-0.911197 1.7312743,0 2.5643687,1.132488 0.83309444,1.132487 0.83309444,3.358411 0,2.733592 -0.82007734,3.99625 -0.8200773,1.249642 -2.5513516,1.249642 -1.5099837,0 -2.2649755,-0.741975 -0.7549918,-0.754992 -0.7680089,-1.79636 h 1.6011033 q 0.013017,0.546719 0.3774959,0.89818 0.3644788,0.351462 1.0674023,0.351462 z"
           id="text3"
           aria-label="09" />
        <path
           style="font-weight:500;font-size:72px;line-height:1.25;font-family:'Noto Sans TC';-inkscape-font-specification:'Noto Sans TC Medium';white-space:pre;fill:#ffffff"
           d="m 164.69742,80.433406 3.96,-4.752 q 2.088,1.08 4.536,2.52 2.52,1.44 4.824,2.88 2.304,1.44 3.744,2.52 l -4.176,5.4 q -1.368,-1.224 -3.6,-2.736 -2.232,-1.512 -4.68,-3.024 -2.448,-1.584 -4.608,-2.808 z m -4.032,19.872004 3.744,-5.040004 q 2.088,0.936 4.608,2.232 2.52,1.296 4.896,2.592004 2.376,1.296 3.888,2.376 l -3.816,5.688 q -1.44,-1.152 -3.744,-2.52 -2.304,-1.368 -4.824,-2.808 -2.52,-1.44 -4.752,-2.52 z m 2.448,35.712 q 1.944,-2.736 4.32,-6.552 2.376,-3.816 4.824,-8.064 2.448,-4.32 4.536,-8.424 l 4.968,4.536 q -1.872,3.744 -4.104,7.848 -2.16,4.032 -4.392,7.92 -2.232,3.888 -4.464,7.344 z m 21.384,-54.936004 h 39.024 v 6.84 h -39.024 z m -3.6,49.032004 h 46.368 v 6.84 h -46.368 z m 18.864,-46.728004 h 7.416 v 50.688004 h -7.416 z m 33.552,22.968004 h 65.304 v 6.84 h -65.304 z m 7.2,-27.144004 h 46.296 v 6.696 h -46.296 z m 44.208,0 h 1.8 l 1.512,-0.36 5.184,3.96 q -3.384,3.312 -7.848,6.696 -4.392,3.384 -9.144,6.408 -4.68,2.952 -9.144,5.112004 -0.504,-0.792 -1.296,-1.656004 -0.792,-0.936 -1.656,-1.8 -0.792,-0.936 -1.512,-1.512 4.104,-1.872 8.352,-4.536 4.248,-2.664 7.92,-5.472 3.672,-2.88 5.832,-5.256 z m -22.104,16.848 h 7.128 v 36.936004 q 0,3.168 -0.864,4.752 -0.864,1.656 -3.24,2.448 -2.232,0.792 -5.904,1.008 -3.6,0.288 -8.712,0.216 -0.216,-1.008 -0.72,-2.232 -0.504,-1.224 -1.08,-2.52 -0.504,-1.296 -1.152,-2.232 2.808,0.072 5.328,0.144 2.592,0.072 4.464,0.072 1.944,-0.072 2.736,-0.072 1.224,-0.072 1.584,-0.432 0.432,-0.36 0.432,-1.296 z m 71.64,26.496004 h 6.912 v 18.864 h -6.912 z m -28.944,3.384 h 65.088 v 5.544 h -65.088 z m 18.36,-16.632 5.832,1.224 q -2.232,4.824 -6.336,8.568 -4.104,3.672 -8.784,6.12 -0.432,-0.576 -1.296,-1.224 -0.864,-0.72 -1.8,-1.44 -0.864,-0.72 -1.512,-1.08 4.608,-2.016 8.352,-5.112 3.744,-3.096 5.544,-7.056 z m 25.2,0.216 5.904,1.08 q -1.656,4.536 -5.04,7.992 -3.384,3.384 -7.344,5.616 -0.504,-0.504 -1.368,-1.152 -0.864,-0.72 -1.728,-1.368 -0.864,-0.72 -1.584,-1.152 3.96,-1.8 6.912,-4.608 2.952,-2.808 4.248,-6.408 z m -26.424,7.416 3.96,-3.456 q 1.656,0.864 3.456,1.944 1.8,1.08 3.384,2.16 1.656,1.008 2.664,1.944 l -4.104,3.816 q -1.512,-1.44 -4.248,-3.24 -2.664,-1.8 -5.112,-3.168 z m 24.264,-0.144 3.744,-3.672 q 2.16,1.008 4.608,2.376 2.52,1.296 4.752,2.592 2.304,1.296 3.816,2.448 l -3.96,4.104 q -1.368,-1.224 -3.6,-2.592 -2.232,-1.368 -4.68,-2.736 -2.448,-1.44 -4.68,-2.52 z m -38.304,-12.312 h 59.184 v 5.4 h -59.184 z m 2.088,-18.792004 2.304,-3.672 q 1.944,0.576 4.248,1.296 2.304,0.72 4.464,1.44 2.16,0.72 3.528,1.368 l -2.16,4.104 q -1.44,-0.648 -3.528,-1.44 -2.088,-0.864 -4.464,-1.656 -2.304,-0.864 -4.392,-1.44 z m -2.52,9.72 q 3.528,-1.152 8.424,-2.88 4.896,-1.8 10.008,-3.672 l 1.008,4.392 q -4.464,1.872 -9,3.744 -4.536,1.8 -8.352,3.384004 z m 24.696,5.184004 6.552,-1.224004 q 0.936,1.512004 1.872,3.384004 1.008,1.8 1.584,3.024 l -6.84,1.584 q -0.432,-1.368 -1.368,-3.24 -0.864,-1.944 -1.8,-3.528 z m -3.024,-23.688004 h 6.264 v 18.792 q 0,2.088 -0.576,3.24 -0.576,1.080004 -2.088,1.656004 -1.44,0.576 -3.816,0.72 -2.376,0.072 -5.688,0.072 -0.144,-1.152 -0.648,-2.376004 -0.504,-1.296 -1.08,-2.376 2.088,0.072 3.96,0.144 1.944,0 2.52,0 0.648,-0.072 0.864,-0.288 0.288,-0.288 0.288,-0.792 z m -21.096,0 h 22.896 v 5.328 h -22.896 z m 32.616,8.784 2.232,-3.672 q 1.944,0.576 4.248,1.296 2.304,0.72 4.464,1.44 2.16,0.72 3.6,1.368 l -2.232,4.104 q -1.368,-0.648 -3.528,-1.44 -2.088,-0.864 -4.464,-1.656 -2.304,-0.864 -4.32,-1.44 z m -2.52,9.72 q 3.528,-1.152 8.496,-2.952 4.968,-1.8 10.224,-3.744 l 1.008,4.392 q -4.608,1.944 -9.216,3.816 -4.536,1.872 -8.424,3.456004 z m 21.384,-18.432 h 6.264 v 19.152 q 0,2.088 -0.576,3.24 -0.504,1.080004 -2.016,1.656004 -1.512,0.576 -3.888,0.72 -2.304,0.072 -5.616,0.072 -0.216,-1.152 -0.72,-2.448004 -0.504,-1.296 -1.008,-2.304 2.088,0.072 3.96,0.072 1.944,0 2.52,0 0.648,-0.072 0.864,-0.288 0.216,-0.216 0.216,-0.72 z m -21.096,0 h 22.896 v 5.256 h -22.896 z"
           id="text4"
           transform="matrix(0.23667536,0,0,0.23667536,-29.662981,-0.51638196)"
           aria-label="江子翠" />
        <path
           style="font-size:6.62691px;line-height:1.25;font-family:'AR UDJingXiHeiE1G30 EB';-inkscape-font-specification:'AR UDJingXiHeiE1G30 EB';fill:#ffffff;stroke-width:0.236675"
           d="m 9.3821564,38.914161 q 0,0.304838 0.152419,0.477138 0.1524189,0.1723 0.4903916,0.1723 0.331345,0.0066 0.503645,-0.178927 0.1723,-0.19218 0.1723,-0.543407 v -3.492381 h 0.83499 v 3.565277 q 0,0.603049 -0.397614,0.960902 -0.390988,0.351227 -1.119948,0.351227 -0.7090796,0 -1.0934404,-0.3446 -0.3843608,-0.351226 -0.3843608,-0.894633 v -0.424122 h 0.8416176 z m 4.0622916,-3.565277 v 4.791256 h -0.841617 v -4.791256 z m 3.651423,2.856198 -0.755468,-2.047715 -0.768721,2.047715 z m -1.769385,0.656064 -0.477137,1.278994 h -0.854872 l 1.928431,-4.791256 h 0.861498 l 1.915178,4.791256 h -0.874753 l -0.483764,-1.278994 z m 4.764742,-2.180253 v 3.459247 h -0.841617 v -4.791256 h 0.868125 l 2.352553,3.53877 v -3.53877 h 0.841618 v 4.791256 h -0.921141 z m 7.83963,2.876079 q -0.245195,0.344599 -0.616302,0.510272 -0.36448,0.159046 -0.834991,0.159046 -1.033798,0 -1.643474,-0.649438 -0.609675,-0.656064 -0.609675,-1.829027 0,-1.17959 0.64281,-1.829027 0.64281,-0.649437 1.73625,-0.649437 0.88138,0 1.431413,0.404241 0.556661,0.397615 0.669318,1.139829 h -0.841618 q -0.06627,-0.390988 -0.390987,-0.636184 -0.318092,-0.251822 -0.868126,-0.251822 -0.735587,0 -1.119947,0.477137 -0.384361,0.470511 -0.384361,1.345263 0,0.934395 0.404241,1.378397 0.404242,0.437377 1.100067,0.437377 0.609676,0 0.967529,-0.357854 0.357853,-0.357853 0.357853,-0.821736 v -0.0994 h -1.358516 v -0.656064 h 2.167 v 2.511599 h -0.808484 z m 1.696487,-4.208088 h 3.750831 v 0.603048 l -2.889333,3.532144 h 2.955602 v 0.656064 h -4.035788 v -0.603049 l 2.889333,-3.532143 h -2.670645 z m 5.434066,0 v 4.791256 h -0.841618 v -4.791256 z m 4.506295,3.121274 h 0.841618 q -0.03314,0.788603 -0.550034,1.272367 -0.516899,0.483765 -1.497682,0.483765 -1.159709,0 -1.776012,-0.656065 -0.609675,-0.656064 -0.609675,-1.8224 0,-1.153082 0.609675,-1.815773 0.616303,-0.662691 1.762759,-0.662691 0.92114,0 1.431412,0.424122 0.510272,0.417495 0.583168,1.086813 h -0.841617 q -0.05302,-0.384361 -0.351227,-0.616302 -0.298211,-0.238569 -0.841617,-0.238569 -0.669318,0 -1.07356,0.45063 -0.404241,0.45063 -0.404241,1.37177 0,0.934395 0.404241,1.378397 0.410869,0.444003 1.086814,0.444003 0.576541,0 0.888006,-0.29821 0.311464,-0.304838 0.337972,-0.801857 z m 5.679258,-0.0066 q 0,0.834991 -0.523526,1.298875 -0.523526,0.463884 -1.491055,0.463884 -0.980783,0 -1.510935,-0.457257 -0.523526,-0.457257 -0.523526,-1.298875 v -3.121274 h 0.841617 v 3.081513 q 0,0.543407 0.298211,0.841618 0.298211,0.29821 0.894633,0.29821 0.563287,0 0.861498,-0.284957 0.304838,-0.291584 0.304838,-0.868125 v -3.068259 h 0.848245 z m 1.90855,-3.114647 v 4.791256 h -0.841618 v -4.791256 z"
           id="text5"
           aria-label="JIANGZICUI" />
        <path
           d="m 8.7613924,42.952887 0.3644801,-0.437376 q 0.1921804,0.0994 0.4174953,0.231942 0.2319419,0.132538 0.444003,0.265076 0.2120612,0.132538 0.3445992,0.231942 L 9.9476093,43.741489 Q 9.821698,43.628832 9.6162638,43.489667 9.4108296,43.350501 9.1855147,43.211336 8.9601997,43.065544 8.7613924,42.952887 Z m -0.371107,1.829027 0.3445994,-0.463884 q 0.1921804,0.08615 0.4241222,0.205435 0.2319419,0.119284 0.4506299,0.238568 0.2186881,0.119285 0.3578532,0.218688 L 9.6162638,45.504247 Q 9.4837256,45.398217 9.2716645,45.272305 9.0596034,45.146394 8.8276615,45.013856 8.5957197,44.881318 8.3902854,44.781914 Z m 0.225315,3.286948 Q 8.794527,47.817039 9.013215,47.465813 9.231903,47.114586 9.457218,46.723599 9.6825329,46.325984 9.8747133,45.94825 l 0.4572567,0.417496 q -0.1723,0.344599 -0.3777338,0.722333 -0.1988073,0.371107 -0.4042415,0.72896 -0.2054342,0.357853 -0.4108684,0.675945 z m 1.9681926,-5.056333 h 3.591785 v 0.629557 h -3.591785 z m -0.331346,4.512926 h 4.26773 v 0.629556 h -4.26773 z m 1.736251,-4.300865 h 0.682571 v 4.665345 h -0.682571 z m 3.061632,2.133865 h 6.056996 v 0.629557 H 15.05033 Z m 2.70378,-1.066932 h 0.656064 v 3.518889 q 0,0.284957 -0.08615,0.437376 -0.07952,0.152419 -0.291584,0.225315 -0.205434,0.07952 -0.543407,0.0994 -0.331345,0.01988 -0.801856,0.01988 -0.01988,-0.0994 -0.06627,-0.218688 -0.04639,-0.112657 -0.0994,-0.231941 -0.04639,-0.112658 -0.0994,-0.198808 0.251822,0.0066 0.483764,0.01325 0.238569,0 0.410868,0 0.178927,0 0.251823,0 0.112658,-0.0066 0.145792,-0.03313 0.03976,-0.03314 0.03976,-0.125912 z M 15.739529,42.86011 h 4.254476 v 0.616303 h -4.254476 z m 4.049042,0 h 0.165673 l 0.139165,-0.03976 0.477137,0.36448 q -0.304837,0.304838 -0.702452,0.622929 -0.390988,0.311465 -0.81511,0.596422 -0.417495,0.27833 -0.808483,0.490392 -0.04639,-0.0729 -0.119284,-0.152419 -0.0729,-0.08615 -0.152419,-0.165673 -0.07952,-0.07952 -0.139166,-0.132538 0.357854,-0.178927 0.735588,-0.43075 0.377733,-0.251822 0.702452,-0.516899 0.324719,-0.271703 0.516899,-0.497018 z m 4.572568,3.969519 h 0.636183 v 1.742878 h -0.636183 z m -2.624256,0.291584 h 5.931084 v 0.510272 h -5.931084 z m 2.624256,-2.37906 h 0.636183 v 0.656064 h -0.636183 z m -0.967529,0.881379 0.543407,0.112657 q -0.198808,0.45063 -0.583168,0.795229 -0.377734,0.337973 -0.808483,0.563288 -0.03976,-0.05302 -0.119285,-0.119285 -0.07952,-0.06627 -0.165672,-0.132538 -0.08615,-0.06627 -0.152419,-0.10603 0.430749,-0.178927 0.775348,-0.463884 0.344599,-0.284957 0.510272,-0.649437 z m 2.25315,-0.0066 0.550033,0.0994 q -0.152419,0.417496 -0.47051,0.728961 -0.311465,0.311464 -0.682572,0.510272 -0.04639,-0.04639 -0.125912,-0.112658 -0.07952,-0.0729 -0.165672,-0.132538 -0.08615,-0.06627 -0.152419,-0.106031 0.36448,-0.159045 0.64281,-0.404241 0.27833,-0.251823 0.404242,-0.583168 z m -2.365807,0.695825 0.36448,-0.318091 q 0.212061,0.10603 0.457257,0.251822 0.245195,0.145792 0.397614,0.265077 l -0.384361,0.351226 q -0.139165,-0.119285 -0.38436,-0.271703 -0.238569,-0.159046 -0.45063,-0.278331 z m 2.147119,0.05964 0.424122,-0.318092 q 0.212061,0.09278 0.457257,0.218688 0.245195,0.119284 0.47051,0.245196 0.225315,0.119284 0.377734,0.225314 l -0.45063,0.357854 Q 26.5679,46.995302 26.349212,46.869391 26.137151,46.736853 25.891955,46.610941 25.64676,46.478403 25.428072,46.372373 Z m -3.333336,-1.172964 h 5.228632 v 0.497019 h -5.228632 z m -0.0729,-2.451956 h 2.213388 v 0.490391 H 22.02184 Z m 1.895296,0 h 0.569914 v 1.656727 q 0,0.192181 -0.05301,0.298211 -0.04639,0.0994 -0.185553,0.159046 -0.132539,0.05301 -0.3446,0.06627 -0.205434,0.0066 -0.490391,0.0066 -0.01988,-0.106031 -0.07952,-0.231942 -0.05964,-0.125911 -0.106031,-0.212061 0.192181,0.0066 0.357854,0.0066 0.172299,0 0.231941,-0.0066 0.05964,0 0.07952,-0.01988 0.01988,-0.01988 0.01988,-0.0729 z m -1.696489,0.74884 0.324719,-0.304837 q 0.19218,0.0994 0.404241,0.245195 0.218688,0.145792 0.331346,0.271704 l -0.331346,0.337972 Q 22.83695,43.927043 22.624889,43.774624 22.412827,43.615578 22.220647,43.496293 Z m -0.318092,0.894633 q 0.318092,-0.07952 0.762095,-0.198807 0.444003,-0.125911 0.907887,-0.258449 l 0.06627,0.410868 q -0.384361,0.139165 -0.775349,0.271703 -0.38436,0.125912 -0.715706,0.231942 z m 2.89596,-1.643473 h 2.279657 v 0.490391 h -2.279657 z m 1.935058,0 h 0.583168 v 1.669981 q 0,0.19218 -0.05302,0.291584 -0.04639,0.0994 -0.178927,0.159046 -0.132538,0.05302 -0.337972,0.06627 -0.198808,0.01325 -0.477138,0.01325 -0.02651,-0.106031 -0.08615,-0.225315 -0.05301,-0.125911 -0.10603,-0.218688 0.19218,0.0066 0.344599,0.0066 0.159046,0 0.212061,0 0.05964,-0.0066 0.07952,-0.02651 0.01988,-0.01988 0.01988,-0.06627 z m -1.729624,0.74884 0.311465,-0.311464 q 0.205434,0.10603 0.424122,0.251822 0.225315,0.145792 0.351227,0.265077 l -0.324719,0.351226 q -0.125911,-0.125911 -0.344599,-0.27833 -0.218688,-0.159046 -0.417496,-0.278331 z m -0.265076,0.90126 q 0.324719,-0.07952 0.768722,-0.212061 0.444002,-0.132538 0.907886,-0.27833 l 0.0729,0.410868 q -0.384361,0.139165 -0.781975,0.284957 -0.390988,0.139166 -0.722333,0.251823 z"
           id="text5-9"
           style="font-weight:500;font-size:6.62691px;line-height:1.25;font-family:'Noto Sans JP';-inkscape-font-specification:'Noto Sans JP Medium';fill:#ffffff;stroke-width:0.236675"
           aria-label="江子翠" />
        <path
           style="font-weight:500;font-size:6.62691px;line-height:1.25;font-family:'Noto Sans KR';-inkscape-font-specification:'Noto Sans KR Medium';fill:#ffffff;stroke-width:0.236675"
           d="m 36.51267,43.243523 h 0.569915 v 0.444003 q 0,0.563287 -0.198808,1.060306 -0.198807,0.497018 -0.576541,0.868125 -0.377734,0.36448 -0.92114,0.55666 l -0.351227,-0.550033 q 0.477138,-0.165673 0.808483,-0.463884 0.331346,-0.298211 0.497019,-0.675945 0.172299,-0.38436 0.172299,-0.795229 z m 0.139165,0 h 0.563288 v 0.444003 q 0,0.371107 0.165673,0.715706 0.165672,0.3446 0.483764,0.616303 0.318092,0.265076 0.775348,0.410868 l -0.331345,0.543407 q -0.53678,-0.1723 -0.907887,-0.510272 -0.36448,-0.337972 -0.55666,-0.795229 -0.192181,-0.463884 -0.192181,-0.980783 z M 35.22705,43.011581 h 3.253813 v 0.563288 H 35.22705 Z m 3.896623,-0.424122 h 0.689199 v 3.618293 h -0.689199 z m 0.503645,1.471174 h 1.040425 v 0.569914 h -1.040425 z m -1.762758,2.286284 q 0.62293,0 1.073559,0.139165 0.45063,0.132538 0.695826,0.390988 0.245196,0.251822 0.245196,0.609676 0,0.36448 -0.245196,0.616302 -0.245196,0.25845 -0.695826,0.390988 -0.450629,0.139165 -1.073559,0.139165 -0.62293,0 -1.080186,-0.139165 -0.45063,-0.132538 -0.695826,-0.390988 -0.238569,-0.251822 -0.238569,-0.616302 0,-0.357854 0.238569,-0.609676 0.245196,-0.25845 0.695826,-0.390988 0.457256,-0.139165 1.080186,-0.139165 z m 0,0.550034 q -0.417495,0 -0.715706,0.06627 -0.298211,0.06627 -0.457257,0.198807 -0.159046,0.132538 -0.159046,0.324719 0,0.198807 0.159046,0.337972 0.159046,0.132538 0.457257,0.205434 0.298211,0.06627 0.715706,0.06627 0.424122,0 0.715706,-0.06627 0.298211,-0.0729 0.457257,-0.205434 0.159046,-0.139165 0.159046,-0.337972 0,-0.192181 -0.159046,-0.324719 -0.159046,-0.132538 -0.457257,-0.198807 -0.291584,-0.06627 -0.715706,-0.06627 z m 4.506299,-3.426113 h 0.530153 v 0.523526 q 0,0.457257 -0.145792,0.907887 -0.145792,0.444003 -0.45063,0.801856 -0.304838,0.357853 -0.762094,0.55666 l -0.3446,-0.516899 q 0.390988,-0.172299 0.649438,-0.457257 0.265076,-0.284957 0.390987,-0.622929 0.132538,-0.344599 0.132538,-0.669318 z m 0.178927,0 h 0.510272 v 0.523526 q 0,0.238569 0.06627,0.497018 0.0729,0.251823 0.212061,0.503645 0.139165,0.245196 0.351227,0.457257 0.212061,0.205434 0.503645,0.3446 l -0.278331,0.523525 q -0.357853,-0.152418 -0.616302,-0.410868 -0.25845,-0.258449 -0.424122,-0.576541 -0.165673,-0.324719 -0.245196,-0.669318 -0.07952,-0.344599 -0.07952,-0.669318 z m 2.220015,0 H 45.2867 v 0.523526 q 0,0.45063 -0.145792,0.907887 -0.139165,0.457256 -0.444003,0.841617 -0.298211,0.377734 -0.781976,0.576541 l -0.27833,-0.523525 q 0.390988,-0.185554 0.642811,-0.483765 0.251822,-0.298211 0.371107,-0.64281 0.119284,-0.351226 0.119284,-0.675945 z m 0.165673,0 h 0.536779 v 0.523526 q 0,0.337972 0.125912,0.689199 0.125911,0.344599 0.390987,0.636183 0.265077,0.284957 0.656064,0.45063 l -0.351226,0.523526 q -0.457257,-0.205434 -0.762094,-0.563288 -0.298211,-0.357853 -0.45063,-0.808483 -0.145792,-0.457256 -0.145792,-0.927767 z m -3.53877,-0.377734 h 2.392314 v 0.563288 h -2.392314 z m 2.650764,0 h 2.392314 v 0.563288 h -2.392314 z m -2.862826,4.201461 h 5.480455 v 0.569915 h -5.480455 z m 8.482446,-0.848244 h 0.689199 v 2.206761 H 49.667088 Z M 47.2814,46.23226 h 5.473828 v 0.569914 H 47.2814 Z m 2.385688,-2.584495 h 0.609676 v 0.145792 q 0,0.311464 -0.119285,0.589795 -0.112657,0.27833 -0.331345,0.523526 -0.212061,0.238568 -0.516899,0.430749 -0.304838,0.185553 -0.675945,0.318091 -0.371107,0.125912 -0.795229,0.178927 l -0.245196,-0.550034 q 0.36448,-0.04639 0.682572,-0.145792 0.318092,-0.0994 0.569914,-0.245195 0.25845,-0.152419 0.437376,-0.324719 0.185554,-0.178926 0.284957,-0.371107 0.0994,-0.198807 0.0994,-0.404241 z m 0.08615,0 h 0.609676 v 0.145792 q 0,0.198807 0.0994,0.397614 0.0994,0.192181 0.27833,0.371107 0.185554,0.178927 0.437377,0.324719 0.258449,0.145792 0.569914,0.251822 0.318092,0.0994 0.682572,0.145792 l -0.245196,0.550034 Q 51.761192,45.78163 51.390085,45.655718 51.018978,45.52318 50.71414,45.331 50.415929,45.138819 50.197241,44.900251 49.98518,44.655055 49.865895,44.376725 49.753238,44.098395 49.753238,43.793557 Z m -1.954939,-0.3446 h 4.44003 v 0.556661 h -4.44003 z m 1.868789,-0.709079 h 0.689199 v 0.90126 h -0.689199 z m 7.998681,-0.01325 h 0.695826 v 6.07025 h -0.695826 z m -2.524853,0.444003 q 0.45063,0 0.801857,0.265076 0.357853,0.265077 0.55666,0.742214 0.198807,0.477138 0.198807,1.126575 0,0.656064 -0.198807,1.139829 -0.198807,0.477137 -0.55666,0.742214 -0.351227,0.258449 -0.801857,0.258449 -0.45063,0 -0.808483,-0.258449 -0.351226,-0.265077 -0.55666,-0.742214 -0.198807,-0.483765 -0.198807,-1.139829 0,-0.649437 0.198807,-1.126575 0.205434,-0.477137 0.55666,-0.742214 0.357853,-0.265076 0.808483,-0.265076 z m 0,0.629557 q -0.265076,0 -0.47051,0.178926 -0.198808,0.178927 -0.311465,0.516899 -0.112658,0.337973 -0.112658,0.808483 0,0.477138 0.112658,0.81511 0.112657,0.337973 0.311465,0.523526 0.205434,0.178927 0.47051,0.178927 0.265077,0 0.463884,-0.178927 0.198807,-0.185553 0.311465,-0.523526 0.112657,-0.337972 0.112657,-0.81511 0,-0.47051 -0.112657,-0.808483 -0.112658,-0.337972 -0.311465,-0.516899 -0.198807,-0.178926 -0.463884,-0.178926 z"
           id="text5-9-8"
           aria-label="장쯔추이" />
      </g>
    </g>
    <text
       xml:space="preserve"
       transform="matrix(0.31615295,0,0,0.31615295,-10.474341,-6.4462013)"
       id="text6"
       style="font-size:55px;line-height:1.25;font-family:'Microsoft JhengHei';-inkscape-font-specification:'Microsoft JhengHei';white-space:pre;shape-inside:url(#rect6);display:inline" />
  </g>
</svg>
