<?xml version="1.0" encoding="UTF-8" standalone="no"?>
<!-- Created with Inkscape (http://www.inkscape.org/) -->

<svg
   width="500"
   height="250"
   viewBox="0 0 132.29166 66.145833"
   version="1.1"
   id="svg1"
   inkscape:version="1.3.2 (091e20e, 2023-11-25, custom)"
   sodipodi:docname="bl10_2.svg"
   xmlns:inkscape="http://www.inkscape.org/namespaces/inkscape"
   xmlns:sodipodi="http://sodipodi.sourceforge.net/DTD/sodipodi-0.dtd"
   xmlns="http://www.w3.org/2000/svg"
   xmlns:svg="http://www.w3.org/2000/svg">
  <sodipodi:namedview
     id="namedview1"
     pagecolor="#9e652e"
     bordercolor="#ffffff"
     borderopacity="1"
     inkscape:showpageshadow="0"
     inkscape:pageopacity="0"
     inkscape:pagecheckerboard="false"
     inkscape:deskcolor="#d1d1d1"
     inkscape:document-units="mm"
     inkscape:zoom="2.0208096"
     inkscape:cx="275.6321"
     inkscape:cy="106.88785"
     inkscape:window-width="1920"
     inkscape:window-height="1009"
     inkscape:window-x="1912"
     inkscape:window-y="-8"
     inkscape:window-maximized="1"
     inkscape:current-layer="layer1" />
  <defs
     id="defs1">
    <rect
       x="560.66638"
       y="34.144731"
       width="279.32397"
       height="128.59143"
       id="rect6" />
    <rect
       x="157.85752"
       y="62.351248"
       width="329.07603"
       height="135.09437"
       id="rect4" />
    <rect
       x="157.85751"
       y="62.35125"
       width="329.07602"
       height="135.09438"
       id="rect4-5" />
  </defs>
  <g
     inkscape:label="Layer 1"
     inkscape:groupmode="layer"
     id="layer1">
    <rect
       style="fill:#005fb9;fill-opacity:1;stroke:none;stroke-width:0.953294;stroke-dasharray:none"
       id="rect5"
       width="132.29167"
       height="66.145836"
       x="-2.5431316e-06"
       y="-1.2715658e-06"
       ry="0" />
    <text
       xml:space="preserve"
       transform="matrix(0.31615295,0,0,0.31615295,-10.474341,-6.4462013)"
       id="text6"
       style="font-size:55px;line-height:1.25;font-family:'Microsoft JhengHei';-inkscape-font-specification:'Microsoft JhengHei';white-space:pre;shape-inside:url(#rect6);display:inline" />
    <g
       id="g1"
       transform="matrix(0.84308823,0,0,0.84308823,-2.7860591,5.1895287)">
      <path
         id="rect1"
         style="fill-opacity:0;stroke:#f9f9f9;stroke-width:0.942789"
         d="m 15.913089,14.352791 h 12.425164 c 3.927062,0 7.088559,3.161497 7.088559,7.088559 v 23.263136 c 0,3.927062 -3.161497,7.088559 -7.088559,7.088559 H 15.913089 c -3.927061,0 -7.0885584,-3.161497 -7.0885584,-7.088559 V 21.44135 c 0,-3.927062 3.1614974,-7.088559 7.0885584,-7.088559 z" />
      <path
         style="font-size:12.56px;line-height:1.25;font-family:'AR UDJingXiHeiE1G30 EB';-inkscape-font-specification:'AR UDJingXiHeiE1G30 EB';fill:#f9f9f9;stroke-width:0.261667"
         d="m 18.527196,30.522264 h -4.7728 v -9.08088 h 4.37088 q 1.29368,0 2.04728,0.628 0.7536,0.628 0.7536,1.67048 0,0.67824 -0.30144,1.1932 -0.28888,0.5024 -0.8792,0.82896 0.76616,0.30144 1.15552,0.82896 0.40192,0.52752 0.40192,1.256 0,1.20576 -0.79128,1.9468 -0.79128,0.72848 -1.98448,0.72848 z m 0.74104,-6.58144 q 0,-0.61544 -0.35168,-0.92944 -0.35168,-0.32656 -1.01736,-0.32656 h -2.54968 v 2.56224 h 2.6376 q 0.5652,0 0.91688,-0.32656 0.36424,-0.33912 0.36424,-0.97968 z m 0.3768,3.8936 q 0,-0.65312 -0.40192,-0.99224 -0.38936,-0.35168 -1.02992,-0.35168 h -2.86368 v 2.78832 h 2.83856 q 0.66568,0 1.05504,-0.36424 0.40192,-0.36424 0.40192,-1.08016 z m 9.633528,2.68784 h -6.38048 v -9.08088 h 1.59512 v 7.83744 h 4.78536 z"
         id="text2"
         aria-label="BL" />
      <path
         style="font-size:14.3917px;line-height:1.25;font-family:'AR UDJingXiHeiE1G30 EB';-inkscape-font-specification:'AR UDJingXiHeiE1G30 EB';fill:#f9f9f9;stroke-width:0.261667"
         d="m 17.218078,36.584172 -1.683829,1.568695 -0.834718,-1.280861 2.705639,-2.460981 h 1.568696 v 10.405199 h -1.755788 z m 12.837386,3.108607 q 0,2.720031 -0.877893,4.015284 -0.877894,1.295253 -2.720032,1.295253 -1.78457,0 -2.705639,-1.295253 -0.921069,-1.295253 -0.921069,-4.015284 0,-2.907123 0.877894,-4.173593 0.877893,-1.280861 2.748814,-1.280861 1.827746,0 2.70564,1.280861 0.892285,1.26647 0.892285,4.173593 z m -3.597925,3.885759 q 0.921069,0 1.35282,-0.906677 0.431751,-0.921069 0.431751,-2.979082 0,-2.216322 -0.417359,-3.122999 -0.402968,-0.906677 -1.367212,-0.906677 -0.964244,0 -1.381603,0.921069 -0.417359,0.906677 -0.417359,3.108607 0,2.043622 0.431751,2.96469 0.431751,0.921069 1.367211,0.921069 z"
         id="text3"
         aria-label="10" />
      <path
         style="font-weight:500;font-size:72px;line-height:1.25;font-family:'Noto Sans TC';-inkscape-font-specification:'Noto Sans TC Medium';white-space:pre;fill:#f9f9f9"
         d="m 161.81742,80.577406 h 31.032 v 5.688 h -31.032 z m -1.152,14.544 h 33.336 v 5.760004 h -33.336 z m 5.544,-7.272 5.472,-1.296 q 0.792,1.944 1.512,4.392 0.792,2.376 1.08,4.032 l -5.616,1.512 q -0.288,-1.728 -1.008,-4.176 -0.648,-2.448 -1.44,-4.464 z m 16.704,-1.296 6.12,1.44 q -1.152,2.592 -2.304,5.112 -1.152,2.52 -2.088,4.464 l -5.184,-1.368 q 0.648,-1.368 1.296,-3.024 0.648,-1.728 1.224,-3.456 0.648,-1.728 0.936,-3.168 z m 1.368,17.928004 h 6.696 v 29.592 q 0,2.304 -0.576,3.672 -0.504,1.368 -2.088,2.16 -1.512,0.792 -3.816,0.936 -2.232,0.144 -5.256,0.144 -0.288,-1.368 -0.936,-3.096 -0.648,-1.728 -1.296,-2.952 2.088,0.072 3.816,0.144 1.728,0 2.376,-0.072 0.576,0 0.792,-0.216 0.288,-0.216 0.288,-0.792 z m 15.624,-24.480004 h 26.424 v 5.544 h -26.424 z m 0,30.168004 h 23.616 v 4.176 h -23.616 z m 0.36,7.992 h 22.824 v 4.176 h -22.824 z m -0.648,8.064 h 24.192 v 4.176 h -24.192 z m -2.304,-51.552004 h 6.624 v 19.296 h -6.624 z m 0,15.912 h 26.208 v 15.840004 h -26.208 v -5.184 h 19.584 v -5.400004 h -19.584 z m 0,13.392004 h 6.624 v 28.512 q 0,1.872 0.648,2.448 0.648,0.504 3.096,0.504 0.576,0 2.016,0 1.512,0 3.312,0 1.8,0 3.384,0 1.584,0 2.232,0 1.296,0 1.872,-0.432 0.648,-0.432 0.936,-1.656 0.36,-1.296 0.432,-3.672 1.08,0.792 2.808,1.44 1.728,0.648 3.096,0.936 -0.36,3.456 -1.224,5.4 -0.864,1.944 -2.592,2.736 -1.728,0.864 -4.752,0.864 -0.504,0 -1.8,0 -1.224,0 -2.808,0 -1.512,0 -3.168,0 -1.584,0 -2.808,0 -1.224,0 -1.728,0 -3.744,0 -5.832,-0.72 -2.088,-0.72 -2.952,-2.592 -0.792,-1.8 -0.792,-5.256 z m -24.264,-28.224004 6.12,-1.512 q 0.864,1.872 1.656,4.104 0.792,2.232 1.152,3.816 l -6.48,1.8 q -0.216,-1.728 -0.936,-4.032 -0.72,-2.304 -1.512,-4.176 z m -5.472,28.728004 h 18.504 v 5.112 h -18.504 z m -3.024,0 h 5.76 v 14.4 q 0,3.456 -0.36,7.632 -0.288,4.104 -1.224,8.136 -0.936,3.96 -2.88,7.2 -0.432,-0.576 -1.368,-1.224 -0.936,-0.648 -1.872,-1.296 -0.936,-0.576 -1.656,-0.936 1.656,-2.88 2.376,-6.264 0.792,-3.456 1.008,-6.912 0.216,-3.456 0.216,-6.48 z m 5.328,22.248 q 3.168,-1.008 7.344,-2.52 4.176,-1.584 8.568,-3.24 l 0.936,3.96 q -3.888,1.944 -7.704,3.816 -3.744,1.8 -7.056,3.456 z m 0.864,-11.016 2.736,-3.312 q 1.656,0.648 3.6,1.44 2.016,0.72 3.816,1.512 1.8,0.792 3.024,1.44 l -2.736,3.672 q -1.152,-0.648 -2.952,-1.44 -1.8,-0.864 -3.744,-1.728 -1.944,-0.864 -3.744,-1.584 z m 91.44,-40.320004 h 7.2 v 56.880004 h -7.2 z m 25.488,14.328 h 7.056 v 51.552004 h -7.056 z m -50.472,0.216 h 6.984 v 39.168004 h 46.944 v 6.912 h -53.928 z m 73.656,7.272 h 53.568 v 6.552004 h -53.568 z m -3.96,15.192004 h 62.208 v 6.48 h -62.208 z m -1.584,-29.592004 h 65.232 v 6.48 h -65.232 z m 28.656,-8.28 h 7.128 v 25.056 h -7.128 z m 13.032,31.464004 h 7.056 v 27.288 q 0,2.88 -0.792,4.392 -0.792,1.584 -2.952,2.376 -2.088,0.792 -5.4,0.936 -3.312,0.144 -8.064,0.144 -0.216,-1.512 -0.936,-3.456 -0.72,-1.872 -1.44,-3.312 2.304,0.072 4.536,0.144 2.232,0 3.888,0 1.656,0 2.376,0 1.008,-0.072 1.368,-0.288 0.36,-0.288 0.36,-1.08 z m -31.32,16.776 5.544,-3.24 q 1.8,1.872 3.816,4.104 2.016,2.232 3.888,4.392 1.872,2.088 3.096,3.672 l -5.976,3.672 q -1.08,-1.656 -2.88,-3.816 -1.728,-2.16 -3.744,-4.464 -1.944,-2.376 -3.744,-4.32 z"
         id="text4"
         transform="matrix(0.26166763,0,0,0.26166763,-2.1314997,-4.0633201)"
         aria-label="龍山寺" />
      <path
         style="font-weight:500;font-size:72px;line-height:1.25;font-family:'Noto Sans TC';-inkscape-font-specification:'Noto Sans TC Medium';white-space:pre;fill:#f9f9f9"
         d="m 189.96942,77.265406 h 27 v 5.472 h -27 z m -3.024,15.408 h 39.096 v 5.544 h -39.096 z m -2.304,41.184004 h 42.84 v 5.76 h -42.84 z m 18.864,-45.864004 h 5.832 v 19.008004 q 0,2.304 -0.576,3.528 -0.576,1.152 -2.232,1.872 -1.656,0.648 -3.96,0.864 -2.232,0.144 -5.688,0.144 -0.288,-1.296 -1.08,-2.808 -0.72,-1.584 -1.368,-2.664 2.592,0.072 4.824,0.144 2.232,0 2.952,-0.072 0.792,-0.072 1.008,-0.288 0.288,-0.216 0.288,-0.864 z m 12.168,-10.728 h 1.512 l 1.296,-0.288 3.816,3.24 q -2.16,2.088 -4.824,4.176 -2.664,2.088 -5.472,3.888 -2.808,1.8 -5.472,3.24 -0.504,-0.792 -1.44,-1.8 -0.936,-1.08 -1.584,-1.728 2.16,-1.224 4.464,-2.808 2.304,-1.656 4.32,-3.384 2.088,-1.8 3.384,-3.312 z m -27.432,38.448004 h 35.28 v 20.736 h -5.616 v -15.192 h -5.04 v 15.192 h -4.68 v -15.192 h -4.968 v 15.192 h -4.752 v -15.192 h -4.824 v 15.192 h -5.4 z m -21.744,-32.184004 h 13.536 v 5.4 h -13.536 z m 12.24,0 h 5.112 v 50.616004 q 0,2.304 -0.504,3.672 -0.504,1.368 -1.8,2.088 -1.296,0.72 -3.384,0.864 -2.016,0.216 -5.04,0.216 -0.144,-1.224 -0.648,-2.88 -0.504,-1.656 -1.08,-2.808 2.088,0.072 3.816,0.144 1.8,0 2.376,-0.072 1.152,0 1.152,-1.296 z m -14.256,0 h 5.112 v 26.928004 q 0,3.672 -0.216,7.848 -0.144,4.104 -0.72,8.352 -0.504,4.176 -1.512,8.064 -1.008,3.888 -2.664,6.984 -0.432,-0.504 -1.296,-1.08 -0.864,-0.504 -1.8,-1.08 -0.864,-0.504 -1.512,-0.792 2.16,-3.96 3.096,-8.784 1.008,-4.896 1.224,-10.008 0.288,-5.112 0.288,-9.576 z m 6.12,9.864 3.456,-1.44 q 1.008,2.16 1.944,4.824 1.008,2.664 1.368,4.536004 l -3.744,1.728 q -0.36,-2.016 -1.224,-4.752004 -0.792,-2.736 -1.8,-4.896 z m 1.368,-19.08 6.192,1.296 q -1.08,3.024 -2.088,6.048 -1.008,2.952 -1.944,5.04 l -4.608,-1.296 q 0.72,-2.376 1.368,-5.472 0.72,-3.168 1.08,-5.616 z m -1.224,41.760004 3.384,-1.512 q 1.08,2.232 2.016,4.896 1.008,2.664 1.368,4.536 l -3.528,1.728 q -0.432,-1.944 -1.368,-4.68 -0.864,-2.736 -1.872,-4.968 z m -10.728,-8.64 q 5.04,-0.504 12.024,-1.368 6.984,-0.936 14.256,-2.016 l 0.432,5.256 q -6.84,1.008 -13.68,2.016 -6.768,1.008 -12.24,1.8 z m 106.632,-11.016004 h 27.936 v 5.976004 h -27.936 z m 0,16.272004 h 27.792 v 5.976 h -27.792 z m -2.088,-32.688004 h 32.76 v 42.912004 h -6.336 V 86.049406 h -20.376 v 37.512004 h -6.048 z m 13.104,2.736 h 6.192 v 58.968004 h -6.192 z m -37.728,0.72 h 16.056 v 5.4 h -16.056 z m 13.968,0 h 5.904 v 50.544004 q 0,2.16 -0.576,3.528 -0.504,1.368 -1.872,2.088 -1.44,0.792 -3.6,0.936 -2.088,0.216 -5.328,0.216 -0.144,-1.224 -0.72,-2.952 -0.504,-1.656 -1.152,-2.808 2.088,0.072 3.816,0.072 1.728,0 2.376,0 0.648,-0.072 0.864,-0.288 0.288,-0.216 0.288,-0.864 z m -16.848,0 h 5.904 v 26.928004 q 0,3.672 -0.216,7.848 -0.216,4.176 -0.864,8.424 -0.576,4.248 -1.728,8.208 -1.152,3.888 -3.096,7.056 -0.504,-0.576 -1.512,-1.224 -0.936,-0.648 -1.944,-1.296 -1.008,-0.576 -1.728,-0.864 2.376,-3.888 3.456,-8.712 1.152,-4.896 1.44,-9.936 0.288,-5.04 0.288,-9.504 z m 7.056,9.576 4.032,-1.584 q 1.152,2.376 2.304,5.184 1.224,2.808 1.8,4.752004 l -4.176,1.872 q -0.504,-2.088 -1.656,-4.968004 -1.152,-2.88 -2.304,-5.256 z m 1.728,-18.576 6.624,1.224 q -1.008,2.88 -2.088,5.832 -1.008,2.88 -1.872,4.968 l -5.112,-1.224 q 0.72,-2.304 1.368,-5.328 0.72,-3.096 1.08,-5.472 z m -1.872,40.752004 3.888,-1.656 q 1.368,2.52 2.808,5.544 1.512,3.024 2.232,5.184 l -4.176,1.872 q -0.648,-2.232 -2.088,-5.328 -1.368,-3.096 -2.664,-5.616 z m -11.952,-7.776 q 3.888,-0.432 8.856,-1.008 4.968,-0.648 10.584,-1.368 5.616,-0.792 11.232,-1.512 l 0.432,5.4 q -8.064,1.224 -16.056,2.376 -7.992,1.152 -14.184,2.088 z m 77.832,-9.864004 h 53.424 v 5.544004 h -46.872 v 38.232 h -6.552 z m 49.968,0 h 6.336 v 37.080004 q 0,2.376 -0.72,3.6 -0.72,1.296 -2.448,1.944 -1.8,0.648 -4.752,0.792 -2.88,0.144 -7.416,0.144 -0.144,-1.224 -0.72,-2.664 -0.576,-1.44 -1.224,-2.52 2.088,0.072 3.96,0.072 1.944,0.072 3.384,0 1.44,0 2.016,0 0.864,0 1.224,-0.36 0.36,-0.288 0.36,-1.08 z m -32.112,17.856004 h 23.616 v 16.992 h -23.616 v -4.824 h 18 v -7.272 h -18 z m -3.6,0 h 5.76 v 20.16 h -5.76 z m -18.072,-33.408004 h 63.792 v 5.832 h -63.792 z m 15.264,7.488 5.832,-1.944 q 1.152,1.872 2.376,4.176 1.296,2.304 2.016,3.816 l -6.12,2.376 q -0.648,-1.656 -1.872,-4.032 -1.152,-2.448 -2.232,-4.392 z m 27,-1.512 6.912,1.44 q -1.728,2.88 -3.6,5.832 -1.872,2.952 -3.384,4.968004 l -5.328,-1.512004 q 1.008,-1.512 2.016,-3.384 1.008,-1.872 1.872,-3.816 0.936,-1.944 1.512,-3.528 z m -15.048,-12.168 6.408,-1.584 q 0.936,2.16 1.872,4.752 0.936,2.592 1.44,4.464 l -6.696,1.872 q -0.432,-1.872 -1.368,-4.536 -0.864,-2.736 -1.656,-4.968 z m -5.184,24.624004 h 5.976 q -0.288,4.392 -1.656,7.488 -1.296,3.096 -4.392,5.112 -3.024,2.016 -8.568,3.24 -0.36,-1.008 -1.368,-2.376 -0.936,-1.44 -1.8,-2.232 4.68,-0.864 7.128,-2.232 2.448,-1.368 3.456,-3.528 1.008,-2.232 1.224,-5.472 z m 12.528,0.144 h 6.12 v 5.976 q 0,1.152 0.216,1.656 0.216,0.504 1.152,0.504 0.36,0 1.008,0 0.72,0 1.512,0 0.864,0 1.584,0 0.72,0 1.08,0 0.792,0 2.088,-0.072 1.296,-0.144 2.016,-0.288 0.072,1.152 0.144,2.376 0.072,1.152 0.288,2.304 -0.72,0.216 -1.944,0.36 -1.224,0.072 -2.448,0.072 -0.504,0 -1.44,0 -0.936,0 -2.016,0 -1.08,0 -2.016,0 -0.864,0 -1.296,0 -2.52,0 -3.816,-0.792 -1.296,-0.792 -1.8,-2.304 -0.432,-1.584 -0.432,-3.888 z m 59.544,10.08 h 16.344 v 4.032 h -16.344 z m -2.52,0 h 5.472 v 13.464 q 0,1.44 0.72,1.872 0.72,0.36 3.168,0.36 0.576,0 2.16,0 1.584,0 3.456,0 1.944,0 3.6,0 1.656,0 2.448,0 1.224,0 1.872,-0.36 0.648,-0.36 0.936,-1.512 0.288,-1.224 0.432,-3.528 0.864,0.576 2.16,1.08 1.368,0.432 2.448,0.72 -0.216,3.168 -1.008,4.896 -0.72,1.728 -2.232,2.376 -1.44,0.648 -4.032,0.648 -0.432,0 -1.728,0 -1.296,0 -3.024,0 -1.656,0 -3.312,0 -1.656,0 -2.952,0 -1.224,0 -1.656,0 -3.456,0 -5.4,-0.504 -1.944,-0.504 -2.736,-1.944 -0.792,-1.44 -0.792,-4.032 z m 17.064,0 h 4.752 q 0,0 0,0.648 0,0.576 -0.072,1.08 -0.144,3.96 -0.504,5.976 -0.288,2.016 -1.008,2.88 -1.152,1.224 -3.456,1.368 -0.792,0 -2.448,0 -1.584,0 -3.24,-0.072 -0.072,-0.864 -0.36,-1.944 -0.288,-1.08 -0.792,-1.8 1.656,0.144 2.952,0.216 1.296,0 1.8,0 1.08,0 1.512,-0.504 0.36,-0.432 0.504,-2.016 0.216,-1.584 0.36,-5.256 z m 5.904,-24.840004 5.256,1.368 q -1.224,2.448 -2.52,4.752 -1.296,2.304 -2.448,4.104 l -4.248,-1.296 q 1.008,-1.872 2.16,-4.392 1.152,-2.592 1.8,-4.536 z m -27,1.728 4.248,-1.656 q 1.224,1.368 2.304,3.168 1.08,1.728 1.44,3.096 l -4.464,1.8 q -0.288,-1.44 -1.368,-3.24 -1.008,-1.8 -2.16,-3.168 z m -14.112,-10.224 h 60.984 v 64.080004 h -6.624 V 83.241406 h -48.024 v 58.176004 h -6.336 z m 4.032,55.728004 h 53.712 v 5.688 h -53.712 z m 4.968,-31.104 h 42.912 v 4.392 h -42.912 z m 2.952,-8.064004 h 37.584 v 4.176 h -37.584 z m 16.056,-9.288 5.616,0.648 q -2.448,12.168 -8.136,20.232004 -5.616,8.064 -14.976,12.96 -0.288,-0.576 -0.936,-1.44 -0.648,-0.864 -1.368,-1.728 -0.72,-0.864 -1.296,-1.368 8.784,-4.032 13.968,-11.304 5.184,-7.272004 7.128,-18.000004 z m 5.904,21.240004 3.6,-2.808 q 2.592,1.584 5.328,3.672 2.736,2.088 5.112,4.176 2.448,2.016 3.96,3.672 l -3.888,3.312 q -1.44,-1.728 -3.816,-3.816 -2.304,-2.16 -5.04,-4.32 -2.736,-2.16 -5.256,-3.888 z"
         id="text4-0"
         transform="matrix(0.12803532,0,0,0.12803532,81.647584,6.6152838)"
         aria-label="艋舺商圈" />
      <path
         style="font-size:7.32669px;line-height:1.25;font-family:'AR UDJingXiHeiE1G30 EB';-inkscape-font-specification:'AR UDJingXiHeiE1G30 EB';fill:#f9f9f9;stroke-width:0.261667"
         d="m 44.113906,40.886419 h -3.721958 v -5.297197 h 0.930489 v 4.571854 h 2.791469 z m 5.861359,-2.622955 q 0,1.274844 -0.710689,2.000186 -0.703362,0.718016 -1.926919,0.718016 -1.245538,0 -1.9489,-0.725343 -0.703362,-0.725342 -0.703362,-1.992859 0,-1.289498 0.710689,-2.022167 0.710689,-0.739996 1.941573,-0.739996 1.245537,0 1.941573,0.732669 0.696035,0.732669 0.696035,2.029494 z m -2.637608,1.992859 q 0.798609,0 1.230884,-0.527521 0.439601,-0.527522 0.439601,-1.465338 0,-0.93049 -0.439601,-1.479992 -0.439602,-0.556828 -1.230884,-0.556828 -0.805936,0 -1.252864,0.564155 -0.439602,0.556828 -0.439602,1.472665 0,0.937816 0.446928,1.465338 0.446929,0.527521 1.245538,0.527521 z m 4.579183,-3.194437 v 3.824533 h -0.93049 v -5.297197 h 0.959797 l 2.600975,3.912452 v -3.912452 h 0.930489 v 5.297197 h -1.01841 z m 8.667468,3.179784 q -0.271088,0.380988 -0.681382,0.564155 -0.402968,0.175841 -0.923163,0.175841 -1.142964,0 -1.817019,-0.718016 -0.674056,-0.725342 -0.674056,-2.022166 0,-1.304151 0.710689,-2.022167 0.710689,-0.718016 1.919593,-0.718016 0.97445,0 1.582565,0.446929 0.615442,0.439601 0.739996,1.26019 h -0.93049 q -0.07327,-0.432274 -0.432275,-0.703362 -0.351681,-0.278414 -0.959796,-0.278414 -0.813263,0 -1.238211,0.527521 -0.424948,0.520195 -0.424948,1.487319 0,1.033063 0.446928,1.523951 0.446928,0.483562 1.216231,0.483562 0.674055,0 1.069697,-0.395642 0.395641,-0.395641 0.395641,-0.908509 v -0.109901 h -1.501972 v -0.725342 h 2.395828 v 2.776816 h -0.893856 z m 3.751262,-1.751079 q -0.967123,-0.175841 -1.436031,-0.542175 -0.468908,-0.366335 -0.468908,-1.025737 0,-0.615442 0.498215,-1.01841 0.505541,-0.402968 1.553258,-0.402968 0.959797,0 1.487318,0.410295 0.527522,0.410295 0.578809,1.186924 h -0.93049 q -0.0073,-0.373661 -0.293067,-0.622769 -0.285741,-0.249107 -0.871877,-0.249107 -0.549501,0 -0.813262,0.183167 -0.263761,0.183167 -0.256434,0.512868 0,0.359008 0.351681,0.534849 0.359008,0.17584 1.164944,0.337027 1.011083,0.205148 1.436031,0.556829 0.432275,0.351681 0.432275,1.055043 0,0.674056 -0.571482,1.128311 -0.571482,0.446928 -1.626526,0.446928 -1.077023,0 -1.677812,-0.454255 -0.600788,-0.454255 -0.600788,-1.311478 h 0.930489 q 0,0.476235 0.359008,0.761976 0.359008,0.278414 0.99643,0.278414 0.586135,0 0.915836,-0.227127 0.329701,-0.227127 0.329701,-0.593462 0,-0.424948 -0.329701,-0.608115 -0.329701,-0.183167 -1.157617,-0.337028 z m 4.234827,0.04396 v 2.351868 h -0.93049 v -5.297197 h 0.93049 v 2.219987 h 2.542361 v -2.219987 h 0.93049 v 5.297197 h -0.93049 v -2.351868 z m 7.509857,0.212474 -0.835242,-2.263947 -0.849896,2.263947 z m -1.956226,0.725343 -0.527522,1.414051 h -0.945143 l 2.132067,-5.297197 h 0.95247 l 2.117413,5.297197 H 76.88619 l -0.534848,-1.414051 z m 5.267887,-2.410482 v 3.824533 h -0.93049 v -5.297197 h 0.959796 l 2.600975,3.912452 v -3.912452 h 0.93049 v 5.297197 h -1.01841 z m 7.824892,-0.747322 h -1.648506 v -0.725342 h 4.220174 v 0.725342 h -1.641179 v 4.571855 h -0.930489 z m 7.194808,4.571855 h -3.919779 v -5.297197 h 3.897799 v 0.725342 h -2.96731 v 1.494645 h 2.769489 v 0.725342 h -2.769489 v 1.626525 h 2.98929 z m 1.882965,-3.817206 v 3.817206 h -0.901183 v -5.297197 h 1.179598 l 1.523951,4.110273 1.465338,-4.110273 h 1.208906 v 5.297197 h -0.908512 v -3.846513 l -1.377417,3.846513 h -0.783956 z m 6.62332,1.714446 v 2.10276 h -0.93049 v -5.297197 h 2.49108 q 0.77663,0 1.21623,0.424948 0.4396,0.424948 0.4396,1.12831 0,0.791283 -0.45425,1.216231 -0.44693,0.424948 -1.20891,0.424948 z m 2.27128,-1.626526 q 0,-0.410294 -0.23446,-0.622768 -0.23445,-0.219801 -0.6887,-0.219801 h -1.34812 v 1.743752 h 1.34812 q 0.45425,0 0.6887,-0.2198 0.23446,-0.227128 0.23446,-0.681383 z m 5.56096,3.729286 h -3.72196 v -5.297197 h 0.93049 v 4.571854 h 2.79147 z m 4.68908,0 h -3.91978 v -5.297197 h 3.8978 v 0.725342 h -2.96731 v 1.494645 h 2.76949 v 0.725342 h -2.76949 v 1.626525 h 2.98929 z"
         id="text5"
         aria-label="LONGSHAN TEMPLE" />
      <path
         style="font-size:3.52072px;line-height:1.25;font-family:'AR UDJingXiHeiE1G30 EB';-inkscape-font-specification:'AR UDJingXiHeiE1G30 EB';fill:#ffffff;stroke-width:0.12574"
         d="m 103.86884,28.569535 h -1.33787 v -2.545481 h 1.22521 q 0.36263,0 0.57387,0.176036 0.21125,0.176036 0.21125,0.468256 0,0.190119 -0.0845,0.334468 -0.081,0.140829 -0.24645,0.232368 0.21476,0.0845 0.32391,0.232367 0.11266,0.14787 0.11266,0.352072 0,0.337989 -0.22181,0.545712 -0.2218,0.204202 -0.55627,0.204202 z m 0.20772,-1.844858 q 0,-0.172515 -0.0986,-0.260533 -0.0986,-0.09154 -0.28518,-0.09154 h -0.7147 v 0.718227 h 0.73935 q 0.15843,0 0.25701,-0.09154 0.1021,-0.09506 0.1021,-0.274616 z m 0.10562,1.091423 q 0,-0.183077 -0.11266,-0.278136 -0.10914,-0.09858 -0.2887,-0.09858 h -0.80272 v 0.7816 h 0.79568 q 0.1866,0 0.29574,-0.102101 0.11266,-0.1021 0.11266,-0.302782 z m 2.26735,-0.274616 -0.40136,-1.087902 -0.40841,1.087902 z m -0.94003,0.348552 -0.25349,0.679499 h -0.45418 l 1.02453,-2.545481 h 0.4577 l 1.01748,2.545481 h -0.46473 l -0.25701,-0.679499 z m 2.53139,-1.158317 v 1.837816 h -0.44713 v -2.545481 h 0.46122 l 1.24985,1.880064 v -1.880064 h 0.44713 v 2.545481 h -0.48938 z m 4.16501,1.527992 q -0.13026,0.183078 -0.32742,0.271096 -0.19364,0.0845 -0.44362,0.0845 -0.54923,0 -0.87313,-0.345031 -0.32391,-0.348551 -0.32391,-0.971718 0,-0.626689 0.34151,-0.971719 0.34151,-0.345031 0.92243,-0.345031 0.46825,0 0.76047,0.214764 0.29574,0.211243 0.3556,0.605564 h -0.44714 q -0.0352,-0.207722 -0.20772,-0.337989 -0.16899,-0.133787 -0.46121,-0.133787 -0.3908,0 -0.595,0.253491 -0.20421,0.249972 -0.20421,0.714707 0,0.496421 0.21477,0.732309 0.21476,0.232368 0.58444,0.232368 0.3239,0 0.51402,-0.190119 0.19012,-0.190119 0.19012,-0.436569 v -0.05281 h -0.72175 v -0.348551 h 1.15128 v 1.334353 h -0.42953 z m 1.40477,-0.566836 v 0.87666 h -0.44713 v -2.545481 h 0.44713 v 1.151275 l 1.11607,-1.151275 h 0.54571 l -1.02805,1.031571 1.06677,1.51391 h -0.54219 l -0.82384,-1.22169 z m 3.35172,-0.151391 -0.40136,-1.087902 -0.4084,1.087902 z m -0.94003,0.348552 -0.25349,0.679499 h -0.45417 l 1.02453,-2.545481 h 0.45769 l 1.01749,2.545481 h -0.46474 l -0.25701,-0.679499 z m 4.81634,-0.207723 h 0.44713 q -0.0176,0.418966 -0.29222,0.675978 -0.27461,0.257013 -0.79568,0.257013 -0.61613,0 -0.94355,-0.348551 -0.32391,-0.348552 -0.32391,-0.968198 0,-0.612606 0.32391,-0.964678 0.32742,-0.352072 0.93651,-0.352072 0.48938,0 0.76047,0.225326 0.2711,0.221806 0.30983,0.577399 h -0.44714 q -0.0282,-0.204202 -0.18659,-0.327427 -0.15844,-0.126746 -0.44714,-0.126746 -0.35559,0 -0.57035,0.239409 -0.21477,0.239409 -0.21477,0.728789 0,0.496421 0.21477,0.732309 0.21828,0.235889 0.5774,0.235889 0.3063,0 0.47177,-0.158433 0.16548,-0.161953 0.17956,-0.426007 z m 3.3306,-0.373196 q 0,0.612605 -0.34151,0.961156 -0.33799,0.345031 -0.92595,0.345031 -0.59852,0 -0.93651,-0.348551 -0.33799,-0.348552 -0.33799,-0.957636 0,-0.619647 0.34151,-0.971719 0.34151,-0.355593 0.93299,-0.355593 0.59852,0 0.93299,0.352072 0.33447,0.352072 0.33447,0.97524 z m -1.26746,0.957636 q 0.38376,0 0.59148,-0.253492 0.21124,-0.253492 0.21124,-0.704144 0,-0.447132 -0.21124,-0.711186 -0.21124,-0.267574 -0.59148,-0.267574 -0.38728,0 -0.60204,0.271095 -0.21125,0.267575 -0.21125,0.707665 0,0.450652 0.21477,0.704144 0.21476,0.253492 0.59852,0.253492 z m 2.18637,-1.531514 v 1.834296 h -0.43305 v -2.545481 h 0.56684 l 0.73231,1.975124 0.70414,-1.975124 h 0.58092 v 2.545481 h -0.43657 v -1.848378 l -0.6619,1.848378 h -0.37671 z m 3.16864,0 v 1.834296 h -0.43304 v -2.545481 h 0.56683 l 0.73231,1.975124 0.70415,-1.975124 h 0.58091 v 2.545481 h -0.43657 v -1.848378 l -0.66189,1.848378 h -0.37672 z m 4.61919,1.834296 h -1.88359 v -2.545481 h 1.87302 v 0.348551 h -1.42589 v 0.718227 h 1.33083 v 0.348551 h -1.33083 v 0.7816 h 1.43646 z m 2.06666,-1.816692 q 0,-0.186598 -0.0986,-0.281658 -0.0986,-0.09858 -0.28518,-0.09858 h -0.76399 v 0.792162 h 0.73935 q 0.18308,0 0.29574,-0.109142 0.11266,-0.109142 0.11266,-0.302782 z m -1.14775,0.756955 v 1.059737 h -0.44713 v -2.545481 h 1.29562 q 0.34855,0 0.55275,0.186598 0.20773,0.183078 0.20773,0.521067 0,0.221805 -0.10563,0.380237 -0.1021,0.158433 -0.25701,0.225327 0.19716,0.112663 0.30278,0.390799 0.10563,0.278137 0.13379,0.841453 h -0.46473 q -0.0211,-0.591481 -0.13027,-0.823849 -0.10562,-0.235888 -0.34151,-0.235888 z m 3.93617,0.172515 h 0.44713 q -0.0176,0.418966 -0.29222,0.675978 -0.27462,0.257013 -0.79569,0.257013 -0.61612,0 -0.94355,-0.348551 -0.3239,-0.348552 -0.3239,-0.968198 0,-0.612606 0.3239,-0.964678 0.32743,-0.352072 0.93651,-0.352072 0.48938,0 0.76048,0.225326 0.27109,0.221806 0.30982,0.577399 h -0.44713 q -0.0282,-0.204202 -0.1866,-0.327427 -0.15843,-0.126746 -0.44713,-0.126746 -0.35559,0 -0.57036,0.239409 -0.21476,0.239409 -0.21476,0.728789 0,0.496421 0.21476,0.732309 0.21829,0.235889 0.5774,0.235889 0.30631,0 0.47178,-0.158433 0.16547,-0.161953 0.17956,-0.426007 z m 1.33082,-1.658259 v 2.545481 h -0.44713 v -2.545481 z m 1.93992,1.51743 -0.40136,-1.087902 -0.4084,1.087902 z m -0.94003,0.348552 -0.25349,0.679499 h -0.45418 l 1.02453,-2.545481 h 0.4577 l 1.01749,2.545481 h -0.46474 l -0.25701,-0.679499 z m 3.87279,0.679499 h -1.78853 v -2.545481 h 0.44713 v 2.196929 h 1.3414 z m 1.23577,-2.545481 h 1.99273 v 0.320386 l -1.53504,1.876543 h 1.57024 v 0.348552 h -2.14411 v -0.320386 l 1.53503,-1.876544 h -1.41885 z m 4.88676,1.285063 q 0,0.612605 -0.34151,0.961156 -0.33799,0.345031 -0.92595,0.345031 -0.59852,0 -0.93651,-0.348551 -0.33799,-0.348552 -0.33799,-0.957636 0,-0.619647 0.34151,-0.971719 0.34151,-0.355593 0.93299,-0.355593 0.59852,0 0.93299,0.352072 0.33447,0.352072 0.33447,0.97524 z m -1.26746,0.957636 q 0.38376,0 0.59148,-0.253492 0.21124,-0.253492 0.21124,-0.704144 0,-0.447132 -0.21124,-0.711186 -0.21124,-0.267574 -0.59148,-0.267574 -0.38728,0 -0.60204,0.271095 -0.21125,0.267575 -0.21125,0.707665 0,0.450652 0.21477,0.704144 0.21476,0.253492 0.59852,0.253492 z m 2.20045,-1.535034 v 1.837816 h -0.44713 v -2.545481 h 0.46121 l 1.24986,1.880064 v -1.880064 h 0.44713 v 2.545481 h -0.48938 z m 4.17909,1.837816 h -1.88358 v -2.545481 h 1.87302 v 0.348551 h -1.42589 v 0.718227 h 1.33083 v 0.348551 h -1.33083 v 0.7816 h 1.43645 z"
         id="text5-8"
         aria-label="BANGKA COMMERCIAL ZONE" />
      <path
         d="m 41.295525,43.41005 h 0.674056 v 0.923163 h -0.674056 z m -1.238211,0.600789 h 3.157804 v 0.578808 h -3.157804 z m -0.117227,1.494645 h 3.392258 v 0.593461 h -3.392258 z m 0.637422,1.941572 h 2.110087 v 0.461582 h -2.110087 z m 0,0.90851 h 2.110087 v 0.461582 h -2.110087 z m -0.09525,-3.677998 0.549502,-0.124554 q 0.09525,0.205147 0.168514,0.454255 0.07327,0.249107 0.1099,0.424948 L 40.73137,45.57875 q -0.02198,-0.17584 -0.09525,-0.432274 -0.06594,-0.256434 -0.153861,-0.468908 z m 1.751079,-0.146534 0.622769,0.146534 q -0.102574,0.249107 -0.205147,0.483561 -0.09525,0.227128 -0.168514,0.410295 l -0.527522,-0.139207 q 0.07327,-0.190494 0.153861,-0.446928 0.08792,-0.256435 0.124553,-0.454255 z m -1.912266,1.970879 h 2.395828 v 0.505542 h -1.751079 v 3.18711 h -0.644749 z m 2.022167,0 h 0.681382 v 2.996617 q 0,0.234454 -0.05861,0.373661 -0.05129,0.139207 -0.212474,0.219801 -0.161187,0.08059 -0.388314,0.09525 -0.227128,0.01465 -0.534849,0.01465 -0.02931,-0.139207 -0.09525,-0.315048 -0.06594,-0.17584 -0.13188,-0.300394 0.212474,0.0073 0.388315,0.0073 0.17584,0.0073 0.24178,0 0.05861,0 0.08059,-0.02198 0.02931,-0.02198 0.02931,-0.08792 z m 1.589892,-2.549688 h 2.688895 v 0.564155 h -2.688895 z m 0,3.069883 h 2.403154 v 0.424948 h -2.403154 z m 0.03663,0.813263 h 2.322561 v 0.424948 h -2.322561 z m -0.06594,0.820589 h 2.461768 v 0.424948 h -2.461768 z m -0.234454,-5.24591 h 0.674055 v 1.963553 h -0.674055 z m 0,1.619199 h 2.666915 v 1.611872 h -2.666915 v -0.527522 h 1.992859 v -0.549502 h -1.992859 z m 0,1.362764 h 0.674055 v 2.901369 q 0,0.190494 0.06594,0.249108 0.06594,0.05129 0.315048,0.05129 0.05861,0 0.205147,0 0.153861,0 0.337028,0 0.183167,0 0.344355,0 0.161187,0 0.227127,0 0.124554,0 0.190494,-0.04396 0.06594,-0.04396 0.09525,-0.168514 0.03663,-0.131881 0.04396,-0.373662 0.1099,0.08059 0.285741,0.146534 0.175841,0.06594 0.315048,0.09525 -0.03663,0.351681 -0.124554,0.549502 -0.08792,0.197821 -0.263761,0.278414 -0.17584,0.08792 -0.483561,0.08792 -0.05129,0 -0.183168,0 -0.124553,0 -0.285741,0 -0.15386,0 -0.322374,0 -0.161187,0 -0.285741,0 -0.124554,0 -0.175841,0 -0.380987,0 -0.593461,-0.07327 -0.212474,-0.07327 -0.300395,-0.263761 -0.08059,-0.183167 -0.08059,-0.534849 z m 6.579367,-2.806122 h 0.73267 v 5.692838 h -0.73267 z m -2.535034,1.589892 h 0.703362 v 4.945515 h -0.703362 z m 5.172643,-0.01465 h 0.718016 v 4.938189 h -0.718016 z m -4.828289,3.699979 h 5.143337 v 0.710689 H 48.05806 Z m 7.23877,-4.615815 h 5.451058 v 0.659402 H 55.29683 Z m -0.476235,2.996616 h 6.330261 v 0.659402 h -6.330261 z m -0.168514,-1.494645 h 6.637982 v 0.659402 h -6.637982 z m 2.92335,-2.351867 h 0.725342 v 2.549688 h -0.725342 z m 1.326131,2.967309 h 0.718015 v 3.03325 q 0,0.293068 -0.08059,0.454255 -0.08059,0.161187 -0.300395,0.241781 -0.212474,0.08059 -0.549501,0.09525 -0.337028,0.02198 -0.82059,0.02198 -0.01465,-0.153861 -0.08792,-0.351681 -0.07327,-0.197821 -0.146534,-0.337028 0.234454,0.0073 0.454255,0.0073 0.227127,0 0.395641,0 0.168514,0 0.234454,0 0.109901,-0.0073 0.146534,-0.03663 0.03663,-0.02931 0.03663,-0.1099 z m -3.187111,1.941573 0.600789,-0.373661 q 0.205147,0.183167 0.424948,0.402968 0.219801,0.212474 0.395641,0.432275 0.183168,0.2198 0.285741,0.410294 l -0.644749,0.410295 q -0.08792,-0.190494 -0.26376,-0.410295 -0.175841,-0.227127 -0.380988,-0.454254 -0.205148,-0.234455 -0.417622,-0.417622 z"
         id="text5-9"
         style="font-weight:500;font-size:7.32669px;line-height:1.25;font-family:'Noto Sans JP';-inkscape-font-specification:'Noto Sans JP Medium';fill:#f9f9f9;stroke-width:0.261667"
         aria-label="龍山寺" />
      <path
         d="m 103.7165,29.978597 h 1.16505 v 0.243395 h -1.16505 z m -0.22393,0.684752 h 1.79788 v 0.249886 h -1.79788 z m -0.003,1.849804 h 1.81086 v 0.262867 h -1.81086 z m 0.7886,-2.083463 h 0.28234 v 0.817808 q 0,0.100603 -0.0292,0.155773 -0.026,0.05517 -0.10385,0.08762 -0.0779,0.02921 -0.18498,0.0357 -0.10709,0.0065 -0.26936,0.0065 -0.013,-0.05517 -0.0487,-0.126565 -0.0324,-0.0714 -0.0649,-0.120075 0.0779,0 0.15253,0.0032 0.0746,0 0.12981,0 0.0552,0 0.0746,0 0.0617,-0.0032 0.0617,-0.04868 z m 0.49003,-0.451093 h 0.0746 l 0.0617,-0.01623 0.17849,0.129811 q -0.11359,0.146037 -0.27585,0.288829 -0.16227,0.142791 -0.33751,0.24015 -0.026,-0.0357 -0.0714,-0.08113 -0.0422,-0.04868 -0.0746,-0.07464 0.12981,-0.08438 0.25313,-0.207698 0.12657,-0.12332 0.19147,-0.227169 z m -1.1261,1.668069 h 1.50256 v 0.983317 H 104.914 v -0.733431 h -0.21743 v 0.733431 h -0.2077 v -0.733431 h -0.2077 v 0.733431 h -0.20769 v -0.733431 h -0.21095 v 0.733431 h -0.22067 z m -0.7951,-0.0714 h 0.16876 v 0.759393 h -0.16876 z m -0.23041,-1.291617 h 0.67177 v 0.236904 h -0.67177 z m 0.54845,0 h 0.23691 v 2.28467 q 0,0.09411 -0.0227,0.149282 -0.0195,0.05842 -0.0779,0.09087 -0.0584,0.02921 -0.15253,0.0357 -0.0909,0.0097 -0.22716,0.0097 -0.006,-0.04868 -0.0292,-0.120075 -0.0227,-0.06815 -0.0487,-0.120075 0.0941,0.0032 0.16875,0.0032 0.0746,0 0.10385,0 0.0487,0 0.0487,-0.05192 z m -0.688,0 h 0.23042 v 1.168297 q 0,0.162263 -0.01,0.350489 -0.006,0.18498 -0.0324,0.376451 -0.026,0.188226 -0.0746,0.36347 -0.0487,0.175245 -0.13306,0.318037 -0.0227,-0.01947 -0.0617,-0.04543 -0.0357,-0.02596 -0.0746,-0.04868 -0.0389,-0.02272 -0.0681,-0.03245 0.10385,-0.181735 0.14928,-0.402413 0.0487,-0.223924 0.0617,-0.451093 0.013,-0.230414 0.013,-0.428375 z m -0.21418,1.02226 q 0.1655,-0.0097 0.3732,-0.02596 0.2077,-0.01623 0.44136,-0.03245 0.2369,-0.01947 0.47381,-0.03894 l 0.003,0.236905 q -0.3375,0.02921 -0.67177,0.05842 -0.33102,0.02596 -0.58739,0.04868 z m 0.50301,-0.606866 0.17849,-0.06166 q 0.0487,0.103849 0.0844,0.227169 0.0389,0.120075 0.0519,0.210942 l -0.19147,0.06815 q -0.006,-0.09411 -0.0422,-0.217433 -0.0357,-0.12332 -0.0811,-0.227169 z m 0.0844,-0.856751 0.30181,0.04219 q -0.0454,0.136302 -0.0974,0.272603 -0.0487,0.136301 -0.0909,0.233659 l -0.21418,-0.04868 q 0.0292,-0.107094 0.0584,-0.249885 0.0292,-0.142792 0.0422,-0.249886 z m 3.31342,1.729729 h 0.18823 v 0.762638 h -0.18823 z m -0.28234,-1.281882 h 0.72045 v 0.243395 h -0.72045 z m 0.6523,0 h 0.25313 v 2.274934 q 0,0.09736 -0.0227,0.152528 -0.0227,0.05842 -0.0844,0.09411 -0.0617,0.02921 -0.15902,0.0357 -0.0941,0.0097 -0.2369,0.0097 -0.007,-0.05192 -0.0325,-0.123321 -0.0227,-0.0714 -0.0487,-0.120075 0.0974,0.0032 0.17525,0.0032 0.0779,0 0.10385,-0.0032 0.0519,0 0.0519,-0.05192 z m -0.77237,0 h 0.24339 v 1.184524 q 0,0.159018 -0.01,0.343998 -0.01,0.184981 -0.0389,0.369961 -0.026,0.18498 -0.0811,0.35698 -0.0552,0.171999 -0.14279,0.3083 -0.0195,-0.01947 -0.0584,-0.04868 -0.0389,-0.02596 -0.0811,-0.05192 -0.0389,-0.02272 -0.0714,-0.0357 0.11034,-0.175245 0.15901,-0.389432 0.0519,-0.214188 0.0649,-0.434867 0.0162,-0.223923 0.0162,-0.418639 z m -0.24664,1.019015 q 0.17524,-0.01298 0.39916,-0.02921 0.22717,-0.01623 0.4803,-0.0357 0.25638,-0.01947 0.51276,-0.03894 l 0.003,0.24015 q -0.24339,0.02272 -0.49003,0.04543 -0.2434,0.01947 -0.46732,0.0357 -0.22393,0.01623 -0.40242,0.0357 z m 0.55494,-0.600375 0.18822,-0.07464 q 0.0681,0.09736 0.11683,0.217433 0.0519,0.116829 0.0714,0.207697 l -0.20445,0.08762 q -0.0162,-0.09411 -0.0649,-0.214187 -0.0454,-0.123321 -0.10709,-0.223924 z m 0.0779,-0.866487 0.32778,0.05842 q -0.0487,0.136301 -0.10061,0.272602 -0.0487,0.136302 -0.0909,0.230415 l -0.25314,-0.05517 q 0.0325,-0.107094 0.0649,-0.249886 0.0357,-0.146037 0.0519,-0.256376 z m 0.92491,0.950864 h 1.25916 v 0.266112 h -1.25916 z m 0,0.713959 h 1.25267 v 0.269358 h -1.25267 z m -0.11359,-1.421428 h 1.48958 v 1.840068 h -0.27909 v -1.567465 h -0.94113 v 1.596673 h -0.26936 z m 0.59064,0.12332 h 0.27909 v 2.657876 h -0.27909 z m 1.32083,-0.08438 h 2.82987 v 0.282339 h -2.82987 z m 1.24293,-0.279093 h 0.31479 v 0.444602 h -0.31479 z m -1.11637,0.863242 h 2.46965 v 0.269357 h -2.17757 v 1.875766 h -0.29208 z m 2.31063,0 h 0.29532 v 1.794634 q 0,0.120075 -0.0325,0.191471 -0.0324,0.07464 -0.11683,0.110339 -0.0876,0.0357 -0.22717,0.04543 -0.1363,0.0097 -0.33426,0.0097 -0.006,-0.04219 -0.0227,-0.09736 -0.0162,-0.05192 -0.0357,-0.107094 -0.0195,-0.05517 -0.0422,-0.09411 0.14603,0.0065 0.2726,0.0065 0.12656,0 0.16875,0 0.0422,-0.0032 0.0584,-0.01623 0.0162,-0.01623 0.0162,-0.04868 z m -1.49282,0.217433 h 0.27585 q -0.0162,0.204452 -0.0746,0.350489 -0.0584,0.146037 -0.19797,0.243395 -0.1363,0.09736 -0.38943,0.155773 -0.0195,-0.04868 -0.0617,-0.113584 -0.0422,-0.06491 -0.0844,-0.103849 0.21095,-0.03894 0.32129,-0.103848 0.11358,-0.06815 0.15577,-0.172 0.0454,-0.103848 0.0552,-0.256376 z m 0.60362,0 h 0.26611 v 0.324527 q 0,0.04543 0.013,0.05842 0.0162,0.01298 0.0714,0.01298 0.01,0 0.0422,0 0.0324,0 0.0682,0 0.0389,0 0.0714,0 0.0357,0 0.0519,0 0.0292,0 0.0454,-0.01298 0.0162,-0.01298 0.026,-0.05517 0.01,-0.04219 0.013,-0.129811 0.0389,0.02596 0.1071,0.05193 0.0682,0.02596 0.12007,0.0357 -0.0162,0.201206 -0.0779,0.269357 -0.0617,0.06815 -0.20121,0.06815 -0.0162,0 -0.0617,0 -0.0422,0 -0.0909,0 -0.0487,0 -0.0909,0 -0.0422,0 -0.0617,0 -0.12657,0 -0.19472,-0.02596 -0.0681,-0.02596 -0.0941,-0.09087 -0.0227,-0.0649 -0.0227,-0.17849 z m -0.74966,0.772374 h 0.2726 v 1.009279 h -0.2726 z m 0.16551,0 h 1.09041 v 0.821054 h -1.09041 v -0.23366 h 0.81132 V 31.93225 h -0.81132 z m -0.35698,-1.298108 0.30181,-0.05192 q 0.0487,0.08113 0.0974,0.188226 0.0487,0.103848 0.0682,0.181735 l -0.31479,0.06815 q -0.0162,-0.07789 -0.0617,-0.18498 -0.0422,-0.110339 -0.0909,-0.201207 z m 1.28837,-0.06166 0.33751,0.05842 q -0.0552,0.110339 -0.11034,0.210943 -0.0552,0.100603 -0.10385,0.171999 l -0.30505,-0.05517 q 0.0487,-0.08113 0.0974,-0.191471 0.0519,-0.110339 0.0844,-0.194716 z m 1.82385,0.759393 h 1.87252 v 0.191471 h -1.87252 z m 0.32452,-0.389432 h 1.22347 v 0.181735 h -1.22347 z m 0.17525,0.759393 h 0.73667 v 0.175245 h -0.73667 z m 0.72369,-0.675016 q 0.0584,0.17849 0.15902,0.340753 0.1006,0.162264 0.2369,0.285584 0.13955,0.12332 0.30506,0.191471 -0.0389,0.0357 -0.0844,0.09411 -0.0454,0.05517 -0.0746,0.100603 -0.17524,-0.08762 -0.32128,-0.230414 -0.14279,-0.146037 -0.24989,-0.334263 -0.10384,-0.188225 -0.17199,-0.402413 z m -0.45758,-0.447847 0.24015,0.02921 q -0.0941,0.528979 -0.31804,0.892449 -0.22068,0.360225 -0.60037,0.584149 -0.013,-0.02596 -0.0422,-0.06166 -0.026,-0.0357 -0.0584,-0.0714 -0.0292,-0.0357 -0.0519,-0.05842 0.35373,-0.188226 0.55494,-0.515998 0.20121,-0.327772 0.27585,-0.798336 z m -0.41864,0.01623 0.21419,0.05842 q -0.0681,0.142792 -0.17525,0.282338 -0.10709,0.139547 -0.21743,0.236905 -0.026,-0.02921 -0.0844,-0.06815 -0.0552,-0.04219 -0.0974,-0.0649 0.11034,-0.08762 0.20446,-0.204452 0.0973,-0.11683 0.15577,-0.24015 z m 0.0389,1.106637 h 0.24664 v 0.580903 q 0,0.06491 0.0325,0.08113 0.0324,0.01623 0.14603,0.01623 0.026,0 0.0941,0 0.0714,0 0.15577,0 0.0876,0 0.16226,0 0.0746,0 0.11034,0 0.0552,0 0.0844,-0.01623 0.0292,-0.01623 0.0422,-0.06815 0.013,-0.05517 0.0195,-0.155772 0.0389,0.02272 0.0974,0.04543 0.0617,0.02272 0.11034,0.03245 -0.01,0.142792 -0.0454,0.220678 -0.0325,0.07789 -0.1006,0.107094 -0.0649,0.02921 -0.18174,0.02921 -0.0195,0 -0.0779,0 -0.0584,0 -0.1363,0 -0.0747,0 -0.14929,0 -0.0746,0 -0.13305,0 -0.0552,0 -0.0746,0 -0.15578,0 -0.2434,-0.02272 -0.0876,-0.02272 -0.12332,-0.08438 -0.0357,-0.06491 -0.0357,-0.181735 z m 0.8957,-0.999543 0.18173,-0.103849 q 0.0779,0.06815 0.15902,0.152528 0.0811,0.08113 0.14928,0.165509 0.0714,0.08113 0.11034,0.149282 l -0.19147,0.120075 q -0.0389,-0.06815 -0.10709,-0.152528 -0.0649,-0.08762 -0.14604,-0.171999 -0.0779,-0.08762 -0.15577,-0.159018 z m -0.12657,0.999543 h 0.21419 q 0,0 0,0.02921 0,0.02596 -0.003,0.04868 -0.006,0.165508 -0.0227,0.253131 -0.013,0.08762 -0.0454,0.126565 -0.026,0.02921 -0.0649,0.04219 -0.0357,0.01298 -0.0876,0.01947 -0.0389,0 -0.11034,0 -0.0714,0 -0.14604,-0.0032 -0.003,-0.03894 -0.0195,-0.08762 -0.013,-0.04868 -0.0325,-0.08113 0.0714,0.0032 0.12982,0.0065 0.0584,0.0032 0.0811,0.0032 0.0487,0 0.0682,-0.02272 0.0162,-0.01623 0.0227,-0.08438 0.01,-0.06815 0.0162,-0.223924 z m -1.59018,-1.489579 h 2.7455 v 2.8818 h -0.30181 V 30.25769 h -2.15162 v 2.602707 h -0.29207 z m 0.18498,2.472896 h 2.42097 v 0.279093 h -2.42097 z"
         id="text5-9-1"
         style="font-weight:500;font-size:3.24527px;line-height:1.25;font-family:'Noto Sans JP';-inkscape-font-specification:'Noto Sans JP Medium';fill:#f9f9f9;stroke-width:0.115903"
         aria-label="艋舺商圈" />
      <path
         style="font-weight:500;font-size:3.24527px;line-height:1.25;font-family:'Noto Sans kr';-inkscape-font-specification:'Noto Sans kr Medium';fill:#f9f9f9;stroke-width:0.115903"
         d="m 119.88487,29.969803 h 0.34075 v 1.745955 h -0.34075 z m -0.69774,0.723695 h 0.77562 v 0.275848 h -0.77562 z m -1.28837,-0.506262 h 1.37275 v 1.333806 h -1.37275 z m 1.04173,0.272603 h -0.70747 v 0.791845 h 0.70747 z m 0.29857,1.337051 q 0.46407,0 0.73018,0.152527 0.26936,0.149283 0.26936,0.415395 0,0.269357 -0.26936,0.41864 -0.26611,0.149282 -0.73018,0.149282 -0.46408,0 -0.73343,-0.149282 -0.26936,-0.149283 -0.26936,-0.41864 0,-0.266112 0.26936,-0.415395 0.26935,-0.152527 0.73343,-0.152527 z m 0,0.266112 q -0.21095,0 -0.36023,0.0357 -0.14604,0.03245 -0.22392,0.100603 -0.0779,0.06815 -0.0779,0.168754 0,0.09411 0.0779,0.162264 0.0779,0.06815 0.22392,0.103848 0.14928,0.0357 0.36023,0.0357 0.21094,0 0.35698,-0.0357 0.14603,-0.0357 0.22392,-0.103848 0.0811,-0.06815 0.0811,-0.162264 0,-0.100603 -0.0811,-0.168754 -0.0779,-0.06815 -0.22392,-0.100603 -0.14604,-0.0357 -0.35698,-0.0357 z m 2.26844,-1.651842 h 0.2726 v 0.415394 q 0,0.246641 -0.0584,0.483545 -0.0584,0.23366 -0.172,0.441357 -0.11034,0.207697 -0.26611,0.366716 -0.15578,0.159018 -0.344,0.253131 l -0.19796,-0.269358 q 0.172,-0.08113 0.31154,-0.217433 0.14279,-0.136301 0.2434,-0.308301 0.1006,-0.175244 0.15577,-0.366715 0.0552,-0.191471 0.0552,-0.382942 z m 0.0714,0 h 0.2726 v 0.415394 q 0,0.18498 0.0552,0.366716 0.0552,0.181735 0.15577,0.343998 0.10061,0.162264 0.24015,0.288829 0.13955,0.126566 0.31479,0.201207 l -0.18822,0.269357 q -0.19472,-0.08762 -0.35049,-0.236904 -0.15577,-0.149283 -0.26936,-0.343999 -0.11034,-0.197961 -0.172,-0.421885 -0.0584,-0.227169 -0.0584,-0.467319 z m -0.73019,-0.149283 h 1.66158 v 0.282339 h -1.66158 z m 2.00558,-0.292074 h 0.34075 v 2.966177 h -0.34075 z m 1.6778,0.214188 q 0.22068,0 0.38944,0.12981 0.17199,0.129811 0.26935,0.363471 0.10061,0.233659 0.10061,0.554941 0,0.318036 -0.10061,0.554941 -0.0974,0.233659 -0.26935,0.36347 -0.16876,0.126566 -0.38944,0.126566 -0.22392,0 -0.39592,-0.126566 -0.16875,-0.129811 -0.26936,-0.36347 -0.0974,-0.236905 -0.0974,-0.554941 0,-0.321282 0.0974,-0.554941 0.10061,-0.23366 0.26936,-0.363471 0.172,-0.12981 0.39592,-0.12981 z m 0,0.3083 q -0.12981,0 -0.23041,0.08762 -0.0974,0.08762 -0.15253,0.253131 -0.0519,0.165508 -0.0519,0.395923 0,0.233659 0.0519,0.399168 0.0552,0.165509 0.15253,0.256376 0.1006,0.08762 0.23041,0.08762 0.12657,0 0.22393,-0.08762 0.1006,-0.09087 0.15252,-0.256376 0.0552,-0.165509 0.0552,-0.399168 0,-0.230415 -0.0552,-0.395923 -0.0519,-0.165509 -0.15252,-0.253131 -0.0974,-0.08762 -0.22393,-0.08762 z m 1.16505,-0.522488 h 0.34076 v 2.966177 h -0.34076 z m 0.26612,1.155316 h 0.53547 v 0.282338 h -0.53547 z m 2.35931,-0.999543 h 0.28234 v 0.285584 q 0,0.288829 -0.0974,0.54196 -0.0941,0.249885 -0.27909,0.438111 -0.18174,0.188226 -0.44136,0.282339 l -0.18173,-0.269358 q 0.23365,-0.08113 0.39267,-0.233659 0.16227,-0.152528 0.2434,-0.347244 0.0811,-0.197962 0.0811,-0.412149 z m 0.0681,0 h 0.27585 v 0.314791 q 0,0.142792 0.0454,0.279093 0.0454,0.133056 0.13306,0.253131 0.0909,0.11683 0.22068,0.207697 0.12981,0.09087 0.29532,0.146038 l -0.17849,0.266112 q -0.24989,-0.09087 -0.42838,-0.262867 -0.17524,-0.171999 -0.26936,-0.399168 -0.0941,-0.230414 -0.0941,-0.490036 z m 1.22022,-0.155773 h 0.33751 v 1.778408 h -0.33751 z m 0.24664,0.730186 h 0.50951 v 0.282338 h -0.50951 z m -0.86324,1.122863 q 0.3083,0 0.52573,0.0649 0.22068,0.06491 0.34076,0.191471 0.12007,0.123321 0.12007,0.298565 0,0.171999 -0.12007,0.29532 -0.12008,0.126565 -0.34076,0.191471 -0.21743,0.0649 -0.52573,0.0649 -0.30505,0 -0.52898,-0.0649 -0.22068,-0.06491 -0.34075,-0.191471 -0.11683,-0.123321 -0.11683,-0.29532 0,-0.175244 0.11683,-0.298565 0.12007,-0.126565 0.34075,-0.191471 0.22393,-0.0649 0.52898,-0.0649 z m 0,0.266112 q -0.20445,0 -0.35049,0.03245 -0.14604,0.03245 -0.22392,0.09736 -0.0779,0.0649 -0.0779,0.159018 0,0.09087 0.0779,0.155773 0.0779,0.06491 0.22392,0.100603 0.14604,0.03245 0.35049,0.03245 0.2077,0 0.35049,-0.03245 0.14604,-0.0357 0.22392,-0.100603 0.0779,-0.06491 0.0779,-0.155773 0,-0.09411 -0.0779,-0.159018 -0.0779,-0.06491 -0.22392,-0.09736 -0.14279,-0.03245 -0.35049,-0.03245 z m 3.21606,-1.405202 h 0.61661 v 0.279093 h -0.61661 z m 0.52574,-0.713959 h 0.34075 v 1.723238 h -0.34075 z m -1.60641,1.859539 h 1.94716 v 1.067694 h -1.94716 z m 1.61614,0.266113 h -1.28188 v 0.532224 h 1.28188 z m -1.40195,-1.849804 h 0.27909 v 0.217433 q 0,0.272603 -0.1006,0.519243 -0.0974,0.243395 -0.28234,0.42513 -0.18498,0.181736 -0.44785,0.275848 l -0.17524,-0.269357 q 0.17524,-0.06166 0.3083,-0.159018 0.1363,-0.09736 0.23041,-0.223924 0.0941,-0.129811 0.13955,-0.272603 0.0487,-0.146037 0.0487,-0.295319 z m 0.0682,0 h 0.27585 v 0.217433 q 0,0.181735 0.0811,0.35698 0.0811,0.175244 0.2369,0.314791 0.15578,0.139546 0.3797,0.217433 l -0.16876,0.266112 q -0.25637,-0.08762 -0.43811,-0.262867 -0.17849,-0.175245 -0.2726,-0.405659 -0.0941,-0.233659 -0.0941,-0.48679 z m -0.69449,-0.103849 h 1.58694 v 0.272603 h -1.58694 z m 4.84519,-0.175244 h 0.34075 v 2.966176 h -0.34075 z m 0.25313,1.171542 h 0.53547 v 0.282338 h -0.53547 z m -1.01902,-0.856751 h 0.33102 q 0,0.431621 -0.13305,0.824298 -0.12982,0.389433 -0.42513,0.717205 -0.29208,0.327772 -0.77887,0.571167 l -0.18823,-0.259621 q 0.40242,-0.207697 0.66529,-0.47381 0.26611,-0.266112 0.39592,-0.597129 0.13305,-0.331018 0.13305,-0.726941 z m -1.04497,0 h 1.22022 v 0.275848 h -1.22022 z"
         id="text5-9-1-0"
         aria-label="멍지아 상점가" />
      <path
         style="font-weight:500;font-size:7.32669px;line-height:1.25;font-family:'Noto Sans KR';-inkscape-font-specification:'Noto Sans KR Medium';fill:#f9f9f9;stroke-width:0.261667"
         d="m 70.499614,45.841467 h 0.761976 v 1.252864 h -0.761976 z m 2.410481,0 h 0.761976 v 1.252864 h -0.761976 z m -3.846512,0.99643 h 6.051846 v 0.608115 h -6.051846 z m 3.011269,1.047717 q 1.08435,0 1.692466,0.307721 0.615442,0.30772 0.615442,0.886529 0,0.571482 -0.615442,0.88653 -0.608116,0.315047 -1.692466,0.315047 -1.077023,0 -1.692465,-0.315047 -0.608115,-0.315048 -0.608115,-0.88653 0,-0.578809 0.608115,-0.886529 0.615442,-0.307721 1.692465,-0.307721 z m 0,0.578808 q -0.483561,0 -0.827916,0.07327 -0.344354,0.06594 -0.527521,0.205147 -0.175841,0.131881 -0.175841,0.337028 0,0.205147 0.175841,0.344354 0.183167,0.131881 0.527521,0.205148 0.344355,0.06594 0.827916,0.06594 0.498215,0 0.835243,-0.06594 0.344354,-0.07327 0.520195,-0.205148 0.175841,-0.139207 0.175841,-0.344354 0,-0.205147 -0.175841,-0.337028 -0.175841,-0.139207 -0.520195,-0.205147 -0.337028,-0.07327 -0.835243,-0.07327 z m 0.01465,-4.762349 q 0.732669,0 1.267517,0.153861 0.534848,0.146534 0.820589,0.432275 0.293068,0.278414 0.293068,0.674055 0,0.395641 -0.293068,0.681382 -0.285741,0.278415 -0.820589,0.432275 -0.534848,0.146534 -1.267517,0.146534 -0.732669,0 -1.274844,-0.146534 -0.534849,-0.15386 -0.827916,-0.432275 -0.285741,-0.285741 -0.285741,-0.681382 0,-0.395641 0.285741,-0.674055 0.293067,-0.285741 0.827916,-0.432275 0.542175,-0.153861 1.274844,-0.153861 z m 0,0.586136 q -0.498215,0 -0.857223,0.08059 -0.359008,0.08059 -0.549502,0.227128 -0.190494,0.146533 -0.190494,0.366334 0,0.212474 0.190494,0.366335 0.190494,0.146533 0.549502,0.227127 0.359008,0.08059 0.857223,0.08059 0.498215,0 0.849896,-0.08059 0.359008,-0.08059 0.549501,-0.227127 0.190494,-0.153861 0.190494,-0.366335 0,-0.219801 -0.190494,-0.366334 -0.190493,-0.146534 -0.549501,-0.227128 -0.351681,-0.08059 -0.849896,-0.08059 z m 5.297197,-0.293068 h 0.630096 v 0.776629 q 0,0.659402 -0.219801,1.230884 -0.212474,0.564155 -0.630095,0.981777 -0.417622,0.417621 -1.011083,0.637422 l -0.417622,-0.600789 q 0.542175,-0.183167 0.90851,-0.520195 0.366334,-0.344354 0.549502,-0.791282 0.190493,-0.446929 0.190493,-0.937817 z m 0.146534,0 h 0.622769 v 0.798609 q 0,0.329701 0.102574,0.644749 0.1099,0.315048 0.307721,0.593462 0.205147,0.278414 0.498215,0.490888 0.300394,0.212474 0.688708,0.344355 l -0.388314,0.608115 q -0.586135,-0.212474 -0.99643,-0.608115 -0.410295,-0.395642 -0.622769,-0.93049 -0.212474,-0.542175 -0.212474,-1.142964 z m 2.732856,-0.410295 h 0.761975 v 4.923536 h -0.761975 z m 0.534848,2.007513 h 1.172271 v 0.637423 h -1.172271 z m -3.993046,3.934433 h 4.491261 v 0.622769 h -4.491261 z m 0,-1.487318 h 0.769302 v 1.809692 h -0.769302 z m 7.319364,-3.897799 h 0.622769 v 1.099003 q 0,0.578809 -0.131881,1.142964 -0.124553,0.556828 -0.366334,1.04039 -0.234454,0.483562 -0.578809,0.864549 -0.344354,0.373662 -0.776629,0.593462 l -0.461581,-0.622768 q 0.388314,-0.190494 0.703362,-0.505542 0.315048,-0.322374 0.534848,-0.725342 0.219801,-0.410295 0.337028,-0.86455 0.117227,-0.461581 0.117227,-0.923163 z m 0.139207,0 h 0.622769 v 1.099003 q 0,0.446928 0.1099,0.88653 0.109901,0.432275 0.322375,0.827916 0.2198,0.388314 0.520195,0.696035 0.300394,0.307721 0.674055,0.490889 L 86.046852,48.75749 Q 85.629231,48.537689 85.29953,48.178681 84.977155,47.812347 84.742701,47.343438 84.515574,46.87453 84.39102,46.339682 84.266466,45.804834 84.266466,45.240678 Z m 2.696222,-0.549502 h 0.769303 v 6.696595 h -0.769303 z m 0.600789,2.644935 h 1.208904 v 0.644749 h -1.208904 z"
         id="text5-9-8"
         aria-label="용산사" />
      <path
         id="rect2"
         style="fill:#ffffff;stroke-width:0.757875"
         d="m 97.8722,16.102369 h 1.0501 v 16.764515 h -1.0501 z" />
    </g>
  </g>
</svg>
