<?xml version="1.0" encoding="UTF-8" standalone="no"?>
<!-- Created with Inkscape (http://www.inkscape.org/) -->

<svg
   width="500"
   height="250"
   viewBox="0 0 132.29166 66.145833"
   version="1.1"
   id="svg1"
   inkscape:version="1.3.2 (091e20e, 2023-11-25, custom)"
   sodipodi:docname="bl12.svg"
   xmlns:inkscape="http://www.inkscape.org/namespaces/inkscape"
   xmlns:sodipodi="http://sodipodi.sourceforge.net/DTD/sodipodi-0.dtd"
   xmlns="http://www.w3.org/2000/svg"
   xmlns:svg="http://www.w3.org/2000/svg">
  <sodipodi:namedview
     id="namedview1"
     pagecolor="#9e652e"
     bordercolor="#ffffff"
     borderopacity="1"
     inkscape:showpageshadow="0"
     inkscape:pageopacity="0"
     inkscape:pagecheckerboard="false"
     inkscape:deskcolor="#d1d1d1"
     inkscape:document-units="mm"
     inkscape:zoom="2.0208096"
     inkscape:cx="225.15728"
     inkscape:cy="106.88785"
     inkscape:window-width="1920"
     inkscape:window-height="1009"
     inkscape:window-x="1912"
     inkscape:window-y="-8"
     inkscape:window-maximized="1"
     inkscape:current-layer="layer1" />
  <defs
     id="defs1">
    <rect
       x="560.66638"
       y="34.144731"
       width="279.32397"
       height="128.59143"
       id="rect6" />
    <rect
       x="157.85752"
       y="62.351248"
       width="329.07603"
       height="135.09437"
       id="rect4" />
    <rect
       x="157.85751"
       y="62.35125"
       width="329.07602"
       height="135.09438"
       id="rect4-5" />
  </defs>
  <g
     inkscape:label="Layer 1"
     inkscape:groupmode="layer"
     id="layer1">
    <path
       id="rect5"
       style="fill:#005fb9;stroke-width:0.953294"
       d="M -2.5431316e-6,-1.2715658e-6 H 132.29167 V 66.145835 H -2.5431316e-6 Z" />
    <path
       style="font-weight:500;font-size:72px;line-height:1.25;font-family:'Noto Sans TC';-inkscape-font-specification:'Noto Sans TC Medium';white-space:pre;fill:#f9f9f9;stroke-width:0.261668"
       d="m 45.483682,30.228068 h 10.512759 v 1.714447 H 45.483682 Z m -0.885483,-5.388259 h 12.396766 v 8.082389 h -1.902847 v -6.367943 h -8.666432 v 6.386783 h -1.827487 z m 7.931669,-6.480985 1.394165,-0.923164 q 0.885484,0.791283 1.865167,1.789807 0.979684,0.979683 1.808647,1.959367 0.847803,0.979685 1.337645,1.770968 l -1.526046,1.111564 q -0.452161,-0.810123 -1.262284,-1.808647 -0.810123,-0.998525 -1.770967,-2.015888 -0.942003,-1.017364 -1.846327,-1.884007 z m -8.760632,5.049139 q -0.03768,-0.1884 -0.150721,-0.508682 -0.0942,-0.320281 -0.20724,-0.659402 -0.113041,-0.339122 -0.226081,-0.565203 0.357961,-0.07536 0.715922,-0.357961 0.357962,-0.301442 0.828964,-0.753603 0.26376,-0.226081 0.753602,-0.753603 0.489842,-0.527522 1.092724,-1.243445 0.602883,-0.715922 1.224605,-1.563725 0.621722,-0.847803 1.149244,-1.695607 l 1.789807,0.772443 q -0.866644,1.224605 -1.865167,2.392689 -0.979684,1.149244 -1.997048,2.166608 -0.998523,1.017364 -1.997047,1.827488 v 0.05652 q 0,0 -0.169561,0.0942 -0.16956,0.07536 -0.395641,0.226081 -0.226081,0.131881 -0.395641,0.282601 -0.150721,0.150721 -0.150721,0.282601 z m 0,0 -0.01884,-1.394166 1.262285,-0.659402 11.831563,-0.471002 q 0.01884,0.357961 0.07536,0.828963 0.05652,0.471003 0.113041,0.753604 -2.78833,0.15072 -4.804218,0.263761 -2.015887,0.0942 -3.410052,0.16956 -1.375325,0.07536 -2.279649,0.150721 -0.885483,0.05652 -1.431845,0.11304 -0.527522,0.03768 -0.828963,0.0942 -0.282601,0.05652 -0.508682,0.150721 z M 61.365861,20.11095 h 5.55782 v 1.789807 h -5.55782 z m 9.325834,-4.295536 h 1.865167 v 13.583691 q 0,0.734763 0.13188,0.942004 0.150721,0.207241 0.640563,0.207241 0.13188,0 0.395641,0 0.282601,0 0.602882,0 0.320282,0 0.602883,0 0.282601,0 0.414481,0 0.395642,0 0.584042,-0.357962 0.207241,-0.376801 0.282601,-1.337645 0.0942,-0.979683 0.150721,-2.73181 0.226081,0.169561 0.527522,0.357962 0.301441,0.16956 0.621722,0.301441 0.320281,0.13188 0.565202,0.1884 -0.0942,1.959368 -0.320281,3.127452 -0.226081,1.149244 -0.753603,1.657926 -0.508682,0.527522 -1.488365,0.527522 -0.150721,0 -0.489842,0 -0.339121,0 -0.734763,0 -0.395641,0 -0.734762,0 -0.320282,0 -0.471002,0 -0.904323,0 -1.431845,-0.263761 -0.527522,-0.244921 -0.753603,-0.885483 -0.207241,-0.640563 -0.207241,-1.752127 z m -4.728857,-0.01884 h 1.846326 v 13.998173 h -1.846326 z m -5.2187,15.147417 q 1.017364,-0.339121 2.392689,-0.828963 1.375325,-0.489842 2.901371,-1.055044 1.544886,-0.565202 3.052091,-1.130404 l 0.301441,1.582566 q -1.337645,0.584042 -2.73181,1.168084 -1.394165,0.565202 -2.69413,1.092724 -1.299964,0.527522 -2.411529,0.960844 z M 71.671379,20.09211 h 6.028822 v 1.789807 h -6.028822 z m 8.835992,-2.976731 H 96.42723 v 1.620246 H 80.507371 Z m -0.527522,11.567804 h 17.069103 v 1.639086 H 79.979849 Z m 7.517188,-13.20689 h 1.846327 v 17.521266 h -1.846327 z m -3.862214,8.854834 v 1.601406 h 9.627275 v -1.601406 z m 0,-2.957892 v 1.582567 h 9.627275 v -1.582567 z m -1.714447,-1.450686 h 13.131529 v 7.460669 H 81.920376 Z m 16.993743,-0.998523 h 7.422991 v 1.639086 h -7.422991 z m -0.188401,10.475079 q 0.923164,-0.1884 2.110092,-0.452161 1.20576,-0.263761 2.54341,-0.565202 1.33764,-0.320282 2.65645,-0.621723 l 0.1884,1.657926 q -1.86517,0.452162 -3.74918,0.923164 -1.86516,0.452162 -3.35353,0.810123 z m 0.885484,-7.799789 1.394168,-0.263761 q 0.22608,1.055045 0.39564,2.223129 0.1884,1.168084 0.32028,2.298488 0.13188,1.111564 0.1884,2.015888 l -1.46953,0.282601 q -0.0377,-0.904324 -0.16956,-2.034728 -0.11304,-1.130404 -0.282597,-2.298488 -0.169561,-1.186925 -0.376801,-2.223129 z m 4.295538,-0.452162 1.65792,0.282601 q -0.15072,0.942005 -0.33912,1.959368 -0.1884,0.998524 -0.39564,2.015888 -0.1884,0.998523 -0.39564,1.902847 -0.20724,0.904323 -0.41448,1.620246 l -1.29997,-0.301441 q 0.16956,-0.715923 0.33912,-1.639087 0.1884,-0.942003 0.33913,-1.959367 0.16956,-1.036204 0.2826,-2.015887 0.13188,-0.998525 0.22608,-1.865168 z m -2.82601,-5.124499 1.52604,-0.452162 q 0.39564,0.640563 0.75361,1.413006 0.3768,0.772442 0.54636,1.356485 l -1.62025,0.546362 q -0.15072,-0.584043 -0.50868,-1.394166 -0.33912,-0.810122 -0.69708,-1.469525 z m 9.53307,3.165132 h 5.44478 v 1.695606 h -5.44478 z m -3.20281,11.191002 h 6.97083 v 1.676766 h -6.97083 z m 2.20429,-14.921336 h 1.82749 v 9.702637 h -1.82749 z m -2.99557,8.967874 h 8.70411 v 8.440351 h -1.82749 v -6.782425 h -5.14334 v 6.857785 h -1.73328 z"
       id="text4"
       aria-label="台北車站" />
    <path
       style="font-size:7.32669px;line-height:1.25;font-family:'AR UDJingXiHeiE1G30 EB';-inkscape-font-specification:'AR UDJingXiHeiE1G30 EB';fill:#f9f9f9;stroke-width:0.261667"
       d="m 43.722128,36.314564 h -1.648505 v -0.725342 h 4.220173 v 0.725342 h -1.641178 v 4.571855 h -0.93049 z m 6.095805,2.432461 -0.835243,-2.263947 -0.849896,2.263947 z m -1.956226,0.725343 -0.527522,1.414051 h -0.945143 l 2.132067,-5.297197 h 0.95247 l 2.117413,5.297197 H 50.623869 L 50.08902,39.472368 Z m 5.267883,-3.883146 v 5.297197 h -0.930489 v -5.297197 z m 2.146715,3.194437 v 2.10276 h -0.930489 v -5.297197 h 2.491074 q 0.77663,0 1.216231,0.424948 0.439601,0.424948 0.439601,1.12831 0,0.791283 -0.454254,1.216231 -0.446928,0.424948 -1.208904,0.424948 z m 2.271274,-1.626526 q 0,-0.410294 -0.234454,-0.622768 -0.234454,-0.219801 -0.688709,-0.219801 h -1.348111 v 1.743752 h 1.348111 q 0.454255,0 0.688709,-0.2198 0.234454,-0.227128 0.234454,-0.681383 z m 5.758777,3.729286 h -3.919779 v -5.297197 h 3.897799 v 0.725342 h -2.96731 v 1.494645 h 2.769489 v 0.725342 h -2.769489 v 1.626525 h 2.98929 z m 1.91227,-5.297197 v 5.297197 h -0.930489 v -5.297197 z m 4.036995,1.479991 v 3.817206 h -0.901183 v -5.297197 h 1.179597 l 1.523952,4.110273 1.465338,-4.110273 h 1.208904 v 5.297197 h -0.90851 v -3.846513 l -1.377418,3.846513 h -0.783956 z m 8.51361,1.677812 -0.835243,-2.263947 -0.849896,2.263947 z m -1.956227,0.725343 -0.527521,1.414051 H 74.34034 l 2.132067,-5.297197 h 0.952469 l 2.117414,5.297197 h -0.967123 l -0.534849,-1.414051 z m 5.267887,-3.883146 v 5.297197 h -0.93049 v -5.297197 z m 2.146713,1.472664 v 3.824533 h -0.93049 v -5.297197 h 0.959797 l 2.600975,3.912452 v -3.912452 h 0.93049 v 5.297197 h -1.01841 z m 8.454991,1.428705 q -0.967123,-0.175841 -1.436031,-0.542175 -0.468908,-0.366335 -0.468908,-1.025737 0,-0.615442 0.498215,-1.01841 0.505541,-0.402968 1.553258,-0.402968 0.959797,0 1.487318,0.410295 0.527522,0.410295 0.578809,1.186924 h -0.93049 q -0.0073,-0.373661 -0.293067,-0.622769 -0.285741,-0.249107 -0.871877,-0.249107 -0.549501,0 -0.813262,0.183167 -0.263761,0.183167 -0.256434,0.512868 0,0.359008 0.351681,0.534849 0.359008,0.17584 1.164943,0.337027 1.011084,0.205148 1.436032,0.556829 0.432274,0.351681 0.432274,1.055043 0,0.674056 -0.571481,1.128311 -0.571482,0.446928 -1.626526,0.446928 -1.077023,0 -1.677812,-0.454255 -0.600788,-0.454255 -0.600788,-1.311478 h 0.930489 q 0,0.476235 0.359008,0.761976 0.359008,0.278414 0.99643,0.278414 0.586135,0 0.915836,-0.227127 0.329701,-0.227127 0.329701,-0.593462 0,-0.424948 -0.329701,-0.608115 -0.329701,-0.183167 -1.157617,-0.337028 z m 4.432645,-2.176027 h -1.648505 v -0.725342 h 4.220174 v 0.725342 H 97.04573 v 4.571855 h -0.93049 z m 6.09581,2.432461 -0.83525,-2.263947 -0.84989,2.263947 z m -1.95623,0.725343 -0.527523,1.414051 h -0.945143 l 2.132066,-5.297197 h 0.95247 l 2.11741,5.297197 h -0.96712 l -0.53485,-1.414051 z m 5.4657,-3.157804 h -1.6485 v -0.725342 h 4.22017 v 0.725342 h -1.64118 v 4.571855 h -0.93049 z m 4.20552,-0.725342 v 5.297197 h -0.93049 v -5.297197 z m 6.30827,2.674242 q 0,1.274844 -0.71068,2.000186 -0.70337,0.718016 -1.92692,0.718016 -1.24554,0 -1.9489,-0.725343 -0.70337,-0.725342 -0.70337,-1.992859 0,-1.289498 0.71069,-2.022167 0.71069,-0.739996 1.94158,-0.739996 1.24553,0 1.94157,0.732669 0.69603,0.732669 0.69603,2.029494 z m -2.6376,1.992859 q 0.7986,0 1.23088,-0.527521 0.4396,-0.527522 0.4396,-1.465338 0,-0.93049 -0.4396,-1.479992 -0.4396,-0.556828 -1.23088,-0.556828 -0.80594,0 -1.25287,0.564155 -0.4396,0.556828 -0.4396,1.472665 0,0.937816 0.44693,1.465338 0.44693,0.527521 1.24554,0.527521 z m 4.57918,-3.194437 v 3.824533 h -0.93049 v -5.297197 h 0.9598 l 2.60097,3.912452 v -3.912452 h 0.93049 v 5.297197 h -1.01841 z"
       id="text5"
       aria-label="TAIPEI MAIN STATION" />
    <path
       d="m 43.453435,49.227442 h 4.080966 v 0.666729 h -4.080966 z m -0.315048,-2.198007 h 4.769676 v 3.16513 H 47.168067 V 47.688837 H 43.84175 v 2.520382 h -0.703363 z m 1.450685,-3.663345 0.783956,0.263761 q -0.227128,0.439601 -0.505542,0.901183 -0.271087,0.461581 -0.542175,0.879203 -0.271087,0.417621 -0.520195,0.739995 l -0.615442,-0.256434 q 0.241781,-0.329701 0.498215,-0.761976 0.263761,-0.439601 0.498215,-0.901183 0.241781,-0.461581 0.402968,-0.864549 z m 1.765732,1.238211 0.542175,-0.402968 q 0.373662,0.300394 0.754649,0.666729 0.388315,0.359007 0.718016,0.725342 0.329701,0.366334 0.520195,0.681382 l -0.600789,0.461582 q -0.17584,-0.307721 -0.490888,-0.681383 -0.315047,-0.380988 -0.696035,-0.754649 -0.373662,-0.380988 -0.747323,-0.696035 z m -4.051659,0.974449 q 0.542175,-0.01465 1.21623,-0.03663 0.674056,-0.02198 1.428705,-0.05129 0.761976,-0.02931 1.545931,-0.05861 0.791283,-0.03663 1.560585,-0.07327 l -0.02931,0.666729 q -0.769303,0.04396 -1.553259,0.08059 -0.776629,0.03663 -1.523951,0.07327 -0.739996,0.02931 -1.406725,0.05861 -0.659402,0.02198 -1.186924,0.04396 z m 7.32669,-0.366334 h 2.161373 v 0.696036 h -2.161373 z m 3.626711,-1.670485 h 0.725343 v 5.370464 q 0,0.293067 0.05861,0.380987 0.06594,0.08059 0.285741,0.08059 0.05129,0 0.175841,0 0.13188,0 0.285741,0 0.15386,0 0.285741,0 0.13188,0 0.190494,0 0.161187,0 0.24178,-0.124554 0.08059,-0.13188 0.117227,-0.461581 0.03663,-0.329701 0.05861,-0.923163 0.08792,0.06594 0.205147,0.13188 0.117227,0.06594 0.241781,0.117227 0.124554,0.04396 0.219801,0.06594 -0.03663,0.681383 -0.131881,1.099004 -0.08792,0.410295 -0.293067,0.593462 -0.205148,0.183167 -0.593462,0.183167 -0.05861,0 -0.212474,0 -0.153861,0 -0.337028,0 -0.183167,0 -0.337028,0 -0.146534,0 -0.205147,0 -0.380988,0 -0.593462,-0.102573 -0.212474,-0.102574 -0.300394,-0.359008 -0.08792,-0.249108 -0.08792,-0.696036 z m -1.809692,-0.0073 h 0.718016 v 6.608674 h -0.718016 z m 4.212847,1.113657 0.505541,0.615442 q -0.351681,0.263761 -0.769302,0.520195 -0.417621,0.256434 -0.857223,0.505541 -0.432275,0.249108 -0.849896,0.468909 -0.03663,-0.117227 -0.124554,-0.278415 -0.08059,-0.161187 -0.15386,-0.26376 0.402968,-0.219801 0.813263,-0.483562 0.410294,-0.271088 0.783955,-0.549502 0.373662,-0.285741 0.652076,-0.534848 z m -6.271647,3.934432 q 0.300394,-0.09525 0.688709,-0.234454 0.388314,-0.139207 0.820589,-0.300394 0.439602,-0.161187 0.879203,-0.329701 l 0.13188,0.630095 q -0.564155,0.249108 -1.15029,0.498215 -0.578808,0.241781 -1.055043,0.439602 z m 11.026669,-4.894229 h 0.644748 v 2.806123 q 0,0.432274 -0.02931,0.930489 -0.02931,0.490889 -0.109901,0.99643 -0.08059,0.498215 -0.24178,0.967123 -0.161188,0.461582 -0.424948,0.835243 -0.05129,-0.05129 -0.161188,-0.124554 -0.102573,-0.06594 -0.212474,-0.13188 -0.102573,-0.05861 -0.183167,-0.09525 0.329701,-0.468908 0.476235,-1.055043 0.15386,-0.586136 0.197821,-1.186924 0.04396,-0.608116 0.04396,-1.135637 z m 1.729099,2.791469 q 0.102573,0.710689 0.285741,1.333458 0.190493,0.615442 0.490888,1.091677 0.300394,0.476235 0.732669,0.769302 -0.07327,0.05861 -0.161187,0.153861 -0.08792,0.102573 -0.168514,0.205147 -0.07327,0.102574 -0.124554,0.197821 -0.490888,-0.351681 -0.813263,-0.893856 -0.322374,-0.542176 -0.520195,-1.238211 -0.19782,-0.703362 -0.322374,-1.523952 z M 60.75175,43.688464 h 2.578995 v 3.12117 H 60.75175 v -0.630095 h 1.941573 V 44.333213 H 60.75175 Z m -3.304337,1.128311 h 2.285928 v 0.534848 h -2.285928 z m 0,1.099003 h 2.285928 v 0.534849 h -2.285928 z m -0.337028,1.113657 h 2.505729 v 0.549502 h -2.505729 z m 1.194251,-3.01127 h 0.571482 v 3.311664 h -0.571482 z m 0.344354,3.905126 0.293068,-0.1099 q 0.13188,0.219801 0.241781,0.483562 0.117227,0.26376 0.168514,0.454254 l -0.322375,0.124554 q -0.03663,-0.190494 -0.146534,-0.461581 -0.1099,-0.271088 -0.234454,-0.490889 z m -0.512868,0.109901 0.315048,-0.05861 q 0.102573,0.278414 0.183167,0.608115 0.08059,0.329702 0.102574,0.571482 l -0.344355,0.07327 q -0.01465,-0.241781 -0.08792,-0.571482 -0.07327,-0.337027 -0.168514,-0.622768 z m -0.534848,0.06594 0.329701,-0.03663 q 0.05861,0.322375 0.08059,0.696036 0.02931,0.373661 0.02198,0.652075 l -0.344354,0.05129 q 0.01465,-0.278414 -0.01465,-0.652075 -0.02198,-0.380988 -0.07327,-0.710689 z m -0.534849,-0.153861 0.402968,0.07327 q -0.01465,0.337028 -0.05861,0.681382 -0.03663,0.337028 -0.124554,0.630096 -0.08059,0.285741 -0.227127,0.498215 L 56.68544,49.623086 q 0.197821,-0.293067 0.278415,-0.739995 0.08059,-0.454255 0.102573,-0.937817 z m 0.04396,-4.24948 h 2.762163 v 0.571482 h -2.168701 v 3.018596 h -0.593462 z m 2.263948,3.333644 h 0.586135 q 0,0 -0.0073,0.09525 0,0.09525 -0.0073,0.161187 -0.03663,0.893856 -0.08792,1.450685 -0.04396,0.549502 -0.1099,0.835243 -0.05861,0.285741 -0.153861,0.402968 -0.08792,0.1099 -0.190494,0.15386 -0.09525,0.05129 -0.227127,0.06594 -0.1099,0.01465 -0.293068,0.01465 -0.17584,0 -0.380987,-0.0073 -0.0073,-0.124554 -0.04396,-0.285741 -0.03663,-0.15386 -0.102573,-0.263761 0.17584,0.01465 0.315047,0.01465 0.146534,0.0073 0.219801,0.0073 0.06594,0 0.109901,-0.01465 0.05129,-0.01465 0.09525,-0.06594 0.05861,-0.08059 0.109901,-0.329701 0.05129,-0.256435 0.08792,-0.769303 0.04396,-0.512868 0.08059,-1.362764 z"
       id="text5-9"
       style="font-weight:500;font-size:7.32669px;line-height:1.25;font-family:'Noto Sans JP';-inkscape-font-specification:'Noto Sans JP Medium';fill:#f9f9f9;stroke-width:0.261667"
       aria-label="台北駅" />
    <path
       style="font-weight:500;font-size:7.32669px;line-height:1.25;font-family:'Noto Sans KR';-inkscape-font-specification:'Noto Sans KR Medium';fill:#f9f9f9;stroke-width:0.261667"
       d="m 70.485532,48.090761 h 0.534849 q 0.593462,0 1.099003,-0.01465 0.505542,-0.01465 0.97445,-0.05129 0.476235,-0.04396 0.97445,-0.124554 l 0.07327,0.615442 q -0.505542,0.08059 -0.99643,0.13188 -0.483562,0.04396 -1.003757,0.05861 -0.512868,0.0073 -1.120983,0.0073 h -0.534849 z m 0,-3.919779 h 3.128497 v 0.630095 h -2.366521 v 3.502158 h -0.761976 z m 0.578809,1.875632 h 2.425134 v 0.608116 h -2.425134 z m 3.560771,-2.454441 h 0.769303 v 6.696595 h -0.769303 z m 0.600789,2.622955 h 1.208904 v 0.637422 h -1.208904 z m 6.462142,-2.630282 h 0.769302 v 6.711249 h -0.769302 z m -2.791469,0.490889 q 0.498215,0 0.886529,0.293067 0.395641,0.293068 0.615442,0.82059 0.219801,0.527521 0.219801,1.245537 0,0.725342 -0.219801,1.260191 -0.219801,0.527521 -0.615442,0.820589 -0.388314,0.285741 -0.886529,0.285741 -0.498215,0 -0.893857,-0.285741 -0.388314,-0.293068 -0.615442,-0.820589 -0.2198,-0.534849 -0.2198,-1.260191 0,-0.718016 0.2198,-1.245537 0.227128,-0.527522 0.615442,-0.82059 0.395642,-0.293067 0.893857,-0.293067 z m 0,0.696035 q -0.293068,0 -0.520195,0.197821 -0.219801,0.19782 -0.344355,0.571482 -0.124554,0.373661 -0.124554,0.893856 0,0.527522 0.124554,0.901183 0.124554,0.373661 0.344355,0.578808 0.227127,0.197821 0.520195,0.197821 0.293067,0 0.512868,-0.197821 0.219801,-0.205147 0.344354,-0.578808 0.124554,-0.373661 0.124554,-0.901183 0,-0.520195 -0.124554,-0.893856 -0.124553,-0.373662 -0.344354,-0.571482 -0.219801,-0.197821 -0.512868,-0.197821 z m 5.011457,-0.542175 h 0.725342 v 1.582565 h 1.164944 v -1.582565 h 0.710689 v 4.417994 h -2.600975 z m 0.725342,2.198007 v 1.597219 h 1.164944 v -1.597219 z m 4.037006,-2.842756 h 0.732669 v 6.696595 h -0.732669 z m -2.285927,2.505728 h 1.208904 v 0.622769 h -1.208904 z m 0.945143,-2.373847 h 0.718015 v 6.249667 h -0.718015 z m 7.83956,-0.131881 h 0.769303 v 6.711249 h -0.769303 z m -2.791469,0.490889 q 0.498215,0 0.88653,0.293067 0.395641,0.293068 0.615442,0.82059 0.2198,0.527521 0.2198,1.245537 0,0.725342 -0.2198,1.260191 -0.219801,0.527521 -0.615442,0.820589 -0.388315,0.285741 -0.88653,0.285741 -0.498215,0 -0.893856,-0.285741 -0.388315,-0.293068 -0.615442,-0.820589 -0.219801,-0.534849 -0.219801,-1.260191 0,-0.718016 0.219801,-1.245537 0.227127,-0.527522 0.615442,-0.82059 0.395641,-0.293067 0.893856,-0.293067 z m 0,0.696035 q -0.293068,0 -0.520195,0.197821 -0.219801,0.19782 -0.344354,0.571482 -0.124554,0.373661 -0.124554,0.893856 0,0.527522 0.124554,0.901183 0.124553,0.373661 0.344354,0.578808 0.227127,0.197821 0.520195,0.197821 0.293068,0 0.512868,-0.197821 0.219801,-0.205147 0.344355,-0.578808 0.124554,-0.373661 0.124554,-0.901183 0,-0.520195 -0.124554,-0.893856 -0.124554,-0.373662 -0.344355,-0.571482 -0.2198,-0.197821 -0.512868,-0.197821 z m 9.854404,-0.234454 h 2.01484 v 0.615442 h -2.01484 z m 0,1.479992 h 2.01484 v 0.622768 h -2.01484 z m -1.97088,1.868306 h 4.50592 v 2.403154 h -0.76931 v -1.795039 h -3.73661 z m 3.73661,-4.293441 h 0.76931 v 3.949086 h -0.76931 z m -2.938,0.359008 q 0.49089,0 0.88653,0.212474 0.39564,0.205147 0.62277,0.578808 0.22713,0.366335 0.22713,0.84257 0,0.476235 -0.22713,0.849896 -0.22713,0.366334 -0.62277,0.578808 -0.39564,0.205148 -0.88653,0.205148 -0.49822,0 -0.89386,-0.205148 -0.395638,-0.212474 -0.622765,-0.578808 -0.227127,-0.373661 -0.227127,-0.849896 0,-0.476235 0.227127,-0.84257 0.227127,-0.373661 0.622765,-0.578808 0.39564,-0.212474 0.89386,-0.212474 z m -0.007,0.652075 q -0.28574,0 -0.51287,0.124554 -0.22713,0.124554 -0.36633,0.344354 -0.13188,0.219801 -0.13188,0.512869 0,0.293067 0.13188,0.512868 0.1392,0.219801 0.36633,0.344355 0.22713,0.117227 0.5202,0.117227 0.28574,0 0.51286,-0.117227 0.22713,-0.124554 0.35901,-0.344355 0.13188,-0.219801 0.13188,-0.512868 0,-0.293068 -0.13188,-0.512869 -0.13188,-0.2198 -0.35901,-0.344354 -0.22712,-0.124554 -0.52019,-0.124554 z"
       id="text5-9-8"
       aria-label="타이베이 역" />
    <text
       xml:space="preserve"
       transform="matrix(0.31615295,0,0,0.31615295,-10.474341,-6.4462013)"
       id="text6"
       style="font-size:55px;line-height:1.25;font-family:'Microsoft JhengHei';-inkscape-font-specification:'Microsoft JhengHei';white-space:pre;shape-inside:url(#rect6);display:inline" />
    <g
       id="g1"
       transform="translate(-12.908417,25.849322)">
      <path
         id="rect1-0"
         style="fill-opacity:0;stroke:#ffffff;stroke-width:0.960404"
         d="m 31.450584,-11.846285 h 12.657305 c 4.000431,0 7.220995,3.2205639 7.220995,7.2209951 V 19.072479 c 0,4.000431 -3.220564,7.220995 -7.220995,7.220995 H 31.450584 c -4.000431,0 -7.220995,-3.220564 -7.220995,-7.220995 V -4.6252899 c 0,-4.0004312 3.220564,-7.2209951 7.220995,-7.2209951 z" />
      <path
         style="font-size:12.7947px;line-height:1.25;font-family:'AR UDJingXiHeiE1G30 EB';-inkscape-font-specification:'AR UDJingXiHeiE1G30 EB';fill:#ffffff;stroke-width:0.266556"
         d="m 34.11355,4.625284 h -4.861986 v -9.2505679 h 4.452555 q 1.317854,0 2.085536,0.639735 0.767682,0.639735 0.767682,1.7016951 0,0.6909138 -0.307072,1.2154964 -0.294278,0.51178802 -0.895629,0.84445022 0.780476,0.30707279 1.177112,0.84445017 0.40943,0.53737741 0.40943,1.27947001 0,1.2282911 -0.806066,1.9831784 Q 35.329046,4.625284 34.11355,4.625284 Z m 0.754887,-6.7044226 q 0,-0.6269403 -0.358252,-0.9468078 -0.358251,-0.3326622 -1.03637,-0.3326622 h -2.597324 v 2.61011873 h 2.686887 q 0.575761,0 0.934013,-0.33266223 0.371046,-0.3454569 0.371046,-0.9979865 z m 0.383841,3.9663569 q 0,-0.6653244 -0.40943,-1.01078131 Q 34.446212,0.5181854 33.793682,0.5181854 h -2.917191 v 2.8404233 h 2.891602 q 0.678119,0 1.074755,-0.3710463 0.40943,-0.3710463 0.40943,-1.1003441 z m 9.813543,2.7380657 h -6.499708 v -9.2505679 h 1.624927 v 7.9838926 h 4.874781 z"
         id="text2-7"
         aria-label="BL" />
      <path
         style="font-size:14.6606px;line-height:1.25;font-family:'AR UDJingXiHeiE1G30 EB';-inkscape-font-specification:'AR UDJingXiHeiE1G30 EB';fill:#ffffff;stroke-width:0.266556"
         d="m 32.77996,10.800437 -1.71529,1.598005 -0.850315,-1.304793 2.756192,-2.506963 h 1.598006 V 19.1863 H 32.77996 Z m 5.87889,1.143526 q 0,-1.641987 0.99692,-2.5802652 0.996921,-0.952939 2.609587,-0.952939 1.656648,0 2.580266,0.8356542 0.938278,0.820994 0.938278,2.287054 0,1.040902 -0.674387,2.096465 -0.659727,1.040903 -2.081806,2.301714 L 41.033867,17.7349 h 4.720713 v 1.4514 h -7.139712 v -1.334115 l 2.961441,-2.668229 q 1.304793,-1.187509 1.817914,-2.023163 0.527782,-0.850315 0.527782,-1.627326 0,-0.73303 -0.425157,-1.187509 -0.425158,-0.4544787 -1.231491,-0.4544787 -0.806333,0 -1.304793,0.5571027 -0.498461,0.557103 -0.498461,1.495381 z"
         id="text3-6"
         aria-label="12" />
    </g>
  </g>
</svg>
