<?xml version="1.0" encoding="UTF-8" standalone="no"?>
<!-- Created with Inkscape (http://www.inkscape.org/) -->

<svg
   width="500"
   height="250"
   viewBox="0 0 132.29166 66.145833"
   version="1.1"
   id="svg1"
   inkscape:version="1.3.2 (091e20e, 2023-11-25, custom)"
   sodipodi:docname="bl13.svg"
   xmlns:inkscape="http://www.inkscape.org/namespaces/inkscape"
   xmlns:sodipodi="http://sodipodi.sourceforge.net/DTD/sodipodi-0.dtd"
   xmlns="http://www.w3.org/2000/svg"
   xmlns:svg="http://www.w3.org/2000/svg">
  <sodipodi:namedview
     id="namedview1"
     pagecolor="#9e652e"
     bordercolor="#ffffff"
     borderopacity="1"
     inkscape:showpageshadow="0"
     inkscape:pageopacity="0"
     inkscape:pagecheckerboard="false"
     inkscape:deskcolor="#d1d1d1"
     inkscape:document-units="mm"
     inkscape:zoom="2.0208096"
     inkscape:cx="245.94103"
     inkscape:cy="106.88785"
     inkscape:window-width="1920"
     inkscape:window-height="1009"
     inkscape:window-x="1912"
     inkscape:window-y="-8"
     inkscape:window-maximized="1"
     inkscape:current-layer="layer1" />
  <defs
     id="defs1">
    <rect
       x="560.66638"
       y="34.144731"
       width="279.32397"
       height="128.59143"
       id="rect6" />
    <rect
       x="157.85752"
       y="62.351248"
       width="329.07603"
       height="135.09437"
       id="rect4" />
    <rect
       x="157.85751"
       y="62.35125"
       width="329.07602"
       height="135.09438"
       id="rect4-5" />
    <rect
       x="157.85751"
       y="62.35125"
       width="329.07602"
       height="135.09438"
       id="rect4-5-1" />
    <rect
       x="157.85751"
       y="62.35125"
       width="329.07602"
       height="135.09438"
       id="rect4-5-7" />
  </defs>
  <g
     inkscape:label="Layer 1"
     inkscape:groupmode="layer"
     id="layer1">
    <rect
       style="fill:#005fb9;fill-opacity:1;stroke:none;stroke-width:0.953294;stroke-dasharray:none"
       id="rect5"
       width="132.29167"
       height="66.145836"
       x="-2.5431316e-06"
       y="-1.2715658e-06"
       ry="0" />
    <g
       id="g2"
       transform="translate(-12.712204)">
      <g
         id="g1"
         transform="translate(23.862138)">
        <path
           id="rect1"
           style="fill-opacity:0;stroke:#ffffff;stroke-width:0.960404"
           d="M 5.7561679,14.003039 H 18.413473 c 4.000431,0 7.220995,3.220564 7.220995,7.220995 v 23.697769 c 0,4.000432 -3.220564,7.220995 -7.220995,7.220995 H 5.7561679 c -4.0004312,0 -7.220995,-3.220563 -7.220995,-7.220995 V 21.224034 c 0,-4.000431 3.2205638,-7.220995 7.220995,-7.220995 z" />
        <path
           style="font-size:12.7947px;line-height:1.25;font-family:'AR UDJingXiHeiE1G30 EB';-inkscape-font-specification:'AR UDJingXiHeiE1G30 EB';fill:#ffffff;stroke-width:0.266556"
           d="M 8.4191337,30.474609 H 3.5571478 v -9.250568 h 4.4525555 q 1.3178541,0 2.0855357,0.639735 0.767682,0.639735 0.767682,1.701695 0,0.690914 -0.307072,1.215497 -0.294279,0.511788 -0.8956294,0.84445 0.7804764,0.307073 1.1771124,0.84445 0.40943,0.537378 0.40943,1.27947 0,1.228291 -0.806066,1.983179 -0.8060658,0.742092 -2.0215623,0.742092 z M 9.174021,23.770187 q 0,-0.626941 -0.3582516,-0.946808 -0.3582516,-0.332662 -1.0363707,-0.332662 h -2.597324 v 2.610118 h 2.6868869 q 0.5757615,0 0.9340131,-0.332662 0.3710463,-0.345457 0.3710463,-0.997986 z m 0.383841,3.966356 q 0,-0.665324 -0.4094304,-1.010781 Q 8.7517959,26.367511 8.0992662,26.367511 H 5.1820747 v 2.840423 h 2.8916021 q 0.6781191,0 1.0747548,-0.371046 0.4094304,-0.371047 0.4094304,-1.100345 z m 9.813543,2.738066 h -6.499708 v -9.250568 h 1.624927 v 7.983893 h 4.874781 z"
           id="text2"
           aria-label="BL" />
        <path
           style="font-size:14.6606px;line-height:1.25;font-family:'AR UDJingXiHeiE1G30 EB';-inkscape-font-specification:'AR UDJingXiHeiE1G30 EB';fill:#ffffff;stroke-width:0.266556"
           d="M 7.0855434,36.649762 5.3702532,38.247767 4.5199384,36.942974 7.2761312,34.436011 H 8.8741366 V 45.035625 H 7.0855434 Z m 9.3387916,-0.938279 q -0.806333,0 -1.260812,0.4838 -0.454478,0.4838 -0.454478,1.260812 h -1.803254 q 0,-1.436739 0.938278,-2.316375 0.952939,-0.879636 2.580266,-0.879636 1.510042,0 2.44832,0.747691 0.938278,0.74769 0.938278,2.140447 0,0.762351 -0.322533,1.348775 -0.322533,0.586424 -0.967599,0.894297 0.820993,0.278551 1.260811,0.938278 0.454479,0.659727 0.454479,1.568684 0,1.568685 -0.996921,2.448321 -0.996921,0.879636 -2.770853,0.879636 -1.803254,0 -2.785514,-0.864976 -0.98226,-0.864975 -0.98226,-2.360356 h 1.817914 q 0,0.791672 0.527782,1.290132 0.542442,0.4838 1.436738,0.4838 0.879636,0 1.378097,-0.4838 0.513121,-0.483799 0.513121,-1.378096 0,-0.747691 -0.46914,-1.21683 -0.469139,-0.4838 -1.348775,-0.4838 h -0.659727 v -1.451399 h 0.659727 q 0.586424,0 0.98226,-0.425157 0.410497,-0.425158 0.410497,-1.143527 0,-0.659727 -0.395836,-1.070224 -0.395836,-0.410497 -1.128866,-0.410497 z"
           id="text3"
           aria-label="13" />
        <path
           style="font-weight:500;font-size:72px;line-height:1.25;font-family:'Noto Sans TC';-inkscape-font-specification:'Noto Sans TC Medium';white-space:pre;fill:#ffffff"
           d="m 174.41742,133.78541 h 38.952 v 5.4 h -38.952 z m -3.096,-12.24 h 45.504 v 19.728 h -7.056 v -14.4 h -31.752 v 14.616 h -6.696 z m -5.688,-39.096004 h 56.592 v 5.112 h -56.592 z m -1.944,18.000004 h 60.696 v 5.184 h -60.696 z m 6.48,-8.928004 h 47.448 v 4.896 h -47.448 z m -8.784,21.096004 h 65.088 v 5.328 h -65.088 z m 28.8,-27.792004 h 6.984 v 18.792004 h -6.984 z m -14.976,-8.496 6.12,-1.944 q 1.296,1.44 2.448,3.312 1.224,1.8 1.8,3.24 l -6.408,2.304 q -0.504,-1.44 -1.656,-3.384 -1.08,-1.944 -2.304,-3.528 z m -3.24,30.528004 6.192,-1.44 q 1.224,1.368 2.232,3.168 1.08,1.728 1.584,3.168 l -6.552,1.8 q -0.36,-1.44 -1.368,-3.312 -1.008,-1.872 -2.088,-3.384 z m 33.696,-32.328004 7.128,1.296 q -1.44,2.592 -2.952,4.968 -1.44,2.304 -2.736,4.032 l -6.048,-1.368 q 1.224,-1.872 2.52,-4.392 1.296,-2.592 2.088,-4.536 z m 3.456,30.888004 6.912,1.296 q -1.152,2.376 -2.376,4.536 -1.152,2.088 -2.232,3.744 l -6.264,-1.152 q 1.008,-1.8 2.16,-4.176 1.152,-2.376 1.8,-4.248 z m 24.408,16.56 h 64.44 v 5.328 h -64.44 z m 18.72,-40.968004 h 45.288 v 4.752 h -45.288 z m 23.832,37.656004 h 6.624 v 15.768 q 0,2.448 -0.648,3.816 -0.648,1.368 -2.592,2.088 -1.872,0.648 -4.824,0.792 -2.88,0.144 -7.128,0.144 -0.216,-1.368 -0.864,-3.024 -0.648,-1.584 -1.368,-2.88 2.088,0.072 3.96,0.072 1.944,0.072 3.384,0 1.44,0 2.016,0 0.864,0 1.152,-0.216 0.288,-0.288 0.288,-0.936 z m -29.448,11.664 4.68,-3.744 q 2.592,1.8 5.4,4.248 2.88,2.448 4.392,4.464 l -4.968,4.176 q -0.936,-1.368 -2.52,-3.024 -1.512,-1.584 -3.384,-3.168 -1.872,-1.656 -3.6,-2.952 z m 14.04,-54.504004 5.472,-1.512 q 1.152,1.512 2.232,3.384 1.152,1.872 1.584,3.312 l -5.76,1.728 q -0.36,-1.44 -1.368,-3.384 -1.008,-1.944 -2.16,-3.528 z m 2.16,22.248 v 2.880004 h 23.184 v -2.880004 z m 0,6.048004 v 2.952 h 23.184 v -2.952 z m 0,-12.024004 v 2.736 h 23.184 v -2.736 z m -5.76,-3.312 h 34.92 v 21.600004 h -34.92 z m 14.544,-5.976 6.768,0.504 q -0.864,2.016 -1.8,3.888 -0.864,1.8 -1.656,3.168 l -5.4,-0.792 q 0.576,-1.584 1.152,-3.456 0.648,-1.944 0.936,-3.312 z m 11.592,-8.208 6.408,1.152 q -1.296,2.088 -2.664,4.032 -1.296,1.872 -2.304,3.24 l -5.472,-1.152 q 1.08,-1.584 2.16,-3.672 1.152,-2.088 1.872,-3.6 z m -44.712,1.584 5.616,-1.368 q 1.224,1.656 2.448,3.672 1.224,2.016 1.944,3.456 l -5.904,1.656 q -0.576,-1.584 -1.8,-3.672 -1.152,-2.088 -2.304,-3.744 z m -3.6,8.136 h 14.544 v 5.4 h -14.544 z m 14.112,20.448004 q 1.8,3.672 4.752,5.4 2.952,1.728 7.416,2.232 4.464,0.504 10.656,0.504 4.176,0 9.072,-0.072 4.968,-0.144 9.864,-0.36 4.968,-0.216 9,-0.576 -0.72,0.936 -1.296,2.736 -0.504,1.8 -0.72,3.096 -3.672,0.144 -8.064,0.288 -4.32,0.144 -8.928,0.216 -4.608,0.072 -8.928,0.072 -7.488,0 -12.6,-0.792 -5.112,-0.792 -8.424,-3.312 -3.312,-2.52 -5.472,-7.56 z m -0.864,-8.568004 h 2.16 l 1.008,-0.216 2.376,1.728 q -2.232,7.704004 -6.696,13.320004 -4.464,5.544 -9.864,8.64 -0.288,-0.648 -0.936,-1.584 -0.576,-0.936 -1.296,-1.8 -0.648,-0.864 -1.224,-1.368 4.896,-2.52 8.784,-7.128 3.96,-4.68 5.688,-10.656004 z m -11.664,6.408004 v -5.040004 l 2.808,-1.368 h 10.656 l -0.072,5.400004 h -9.144 q -1.296,0 -2.592,0.288 -1.224,0.288 -1.656,0.72 z m 0,0 q -0.144,-0.72 -0.576,-1.728 -0.432,-1.008004 -0.864,-2.016004 -0.36,-1.008 -0.72,-1.584 0.72,-0.144 1.584,-0.576 0.864,-0.432 1.872,-1.296 0.72,-0.576 2.016,-1.944 1.296,-1.368 2.808,-2.952 1.584,-1.656 2.88,-3.168 1.368,-1.584 2.16,-2.592 v -0.288 l 1.872,-0.648 3.816,2.016 q -1.44,1.8 -3.672,4.248 -2.232,2.376 -4.608,4.824 -2.304,2.376 -4.248,4.104 0,0 -0.648,0.36 -0.648,0.288 -1.512,0.864004 -0.864,0.576 -1.512,1.224 -0.648,0.576 -0.648,1.152 z m 74.376,-5.400004 h 53.568 v 6.552004 h -53.568 z m -3.96,15.192004 h 62.208 v 6.48 h -62.208 z m -1.584,-29.592004 h 65.232 v 6.48 h -65.232 z m 28.656,-8.28 h 7.128 v 25.056 h -7.128 z m 13.032,31.464004 h 7.056 v 27.288 q 0,2.88 -0.792,4.392 -0.792,1.584 -2.952,2.376 -2.088,0.792 -5.4,0.936 -3.312,0.144 -8.064,0.144 -0.216,-1.512 -0.936,-3.456 -0.72,-1.872 -1.44,-3.312 2.304,0.072 4.536,0.144 2.232,0 3.888,0 1.656,0 2.376,0 1.008,-0.072 1.368,-0.288 0.36,-0.288 0.36,-1.08 z m -31.32,16.776 5.544,-3.24 q 1.8,1.872 3.816,4.104 2.016,2.232 3.888,4.392 1.872,2.088 3.096,3.672 l -5.976,3.672 q -1.08,-1.656 -2.88,-3.816 -1.728,-2.16 -3.744,-4.464 -1.944,-2.376 -3.744,-4.32 z"
           id="text4"
           transform="matrix(0.26655641,0,0,0.26655641,-12.62555,-4.7571419)"
           aria-label="善導寺" />
        <path
           style="font-size:7.46358px;line-height:1.25;font-family:'AR UDJingXiHeiE1G30 EB';-inkscape-font-specification:'AR UDJingXiHeiE1G30 EB';fill:#ffffff;stroke-width:0.266556"
           d="m 32.48363,38.591809 q -0.985193,-0.179126 -1.462862,-0.552305 -0.477669,-0.373179 -0.477669,-1.044901 0,-0.626941 0.507523,-1.037437 0.514987,-0.410497 1.582279,-0.410497 0.977729,0 1.515107,0.41796 0.537378,0.417961 0.589623,1.2091 h -0.947875 q -0.0075,-0.380643 -0.298543,-0.634404 -0.29108,-0.253762 -0.888166,-0.253762 -0.559769,0 -0.828458,0.18659 -0.268688,0.186589 -0.261225,0.52245 0,0.365716 0.358252,0.544842 0.365715,0.179125 1.186709,0.343324 1.029974,0.20898 1.462862,0.567232 0.440351,0.358252 0.440351,1.074756 0,0.686649 -0.582159,1.149391 -0.582159,0.455279 -1.656915,0.455279 -1.097146,0 -1.70916,-0.462742 -0.612013,-0.462742 -0.612013,-1.335981 h 0.947874 q 0,0.485132 0.365716,0.776212 0.365715,0.283616 1.015047,0.283616 0.597086,0 0.932947,-0.231371 0.335861,-0.231371 0.335861,-0.60455 0,-0.432888 -0.335861,-0.619477 -0.335861,-0.18659 -1.179245,-0.343325 z m 4.313949,0.04478 V 41.0324 h -0.947875 v -5.396168 h 0.947875 v 2.261464 h 2.589862 v -2.261464 h 0.947875 V 41.0324 h -0.947875 v -2.395809 z m 7.65017,0.216444 -0.850848,-2.306247 -0.865775,2.306247 z m -1.992775,0.738894 -0.537378,1.440471 h -0.962802 l 2.171902,-5.396168 h 0.970265 l 2.156975,5.396168 h -0.985193 l -0.544841,-1.440471 z m 5.366307,-2.455518 V 41.0324 h -0.947875 v -5.396168 h 0.977729 l 2.649571,3.985551 v -3.985551 h 0.947875 V 41.0324 h -1.037438 z m 9.463816,1.134464 q 0,1.343445 -0.634405,2.052485 -0.62694,0.70904 -1.753941,0.70904 h -2.20922 v -5.396168 h 2.20922 q 1.127001,0 1.753941,0.664258 0.634405,0.664259 0.634405,1.970385 z m -0.985193,0 q 0,-0.977729 -0.403033,-1.433007 -0.39557,-0.462742 -1.156855,-0.462742 h -1.10461 v 3.91838 h 1.112073 q 0.731431,0 1.141928,-0.485133 0.410497,-0.485133 0.410497,-1.537498 z m 4.896102,0.58216 -0.850848,-2.306247 -0.865775,2.306247 z M 59.20323,39.591929 58.665852,41.0324 h -0.962801 l 2.171901,-5.396168 h 0.970266 L 63.002193,41.0324 H 62.017 l -0.544841,-1.440471 z m 9.605619,-1.231491 q 0,1.298663 -0.723967,2.037558 -0.716504,0.731431 -1.962922,0.731431 -1.268808,0 -1.985312,-0.738895 -0.716504,-0.738894 -0.716504,-2.030094 0,-1.31359 0.723968,-2.059948 0.723967,-0.753821 1.977848,-0.753821 1.268809,0 1.977849,0.746358 0.70904,0.746358 0.70904,2.067411 z m -2.686889,2.030094 q 0.813531,0 1.253882,-0.537378 0.447815,-0.537377 0.447815,-1.492716 0,-0.947874 -0.447815,-1.507643 -0.447815,-0.567232 -1.253882,-0.567232 -0.820993,0 -1.276272,0.574696 -0.447815,0.567232 -0.447815,1.500179 0,0.955339 0.455279,1.492716 0.455278,0.537378 1.268808,0.537378 z m 6.821707,-4.015406 h -1.679305 v -0.738894 h 4.299022 v 0.738894 H 73.891542 V 41.0324 h -0.947875 z m 7.329235,4.657274 h -3.993015 v -5.396168 h 3.970625 v 0.738894 h -3.02275 v 1.52257 h 2.821233 v 0.738895 h -2.821233 v 1.656915 h 3.04514 z m 1.918147,-3.888525 V 41.0324 h -0.918021 v -5.396168 h 1.201637 l 1.552424,4.187068 1.492716,-4.187068 h 1.231491 V 41.0324 h -0.925484 v -3.91838 l -1.403153,3.91838 h -0.798603 z m 6.747074,1.746478 V 41.0324 h -0.947874 v -5.396168 h 2.537617 q 0.791139,0 1.238954,0.432887 0.447815,0.432888 0.447815,1.149392 0,0.806066 -0.462742,1.238954 -0.455278,0.432888 -1.231491,0.432888 z m 2.31371,-1.656915 q 0,-0.417961 -0.238834,-0.634405 -0.238835,-0.223907 -0.701577,-0.223907 h -1.373299 v 1.776332 h 1.373299 q 0.462742,0 0.701577,-0.223907 0.238834,-0.231371 0.238834,-0.694113 z M 96.916688,41.0324 H 93.12519 v -5.396168 h 0.947874 v 4.657274 h 2.843624 z m 4.776692,0 h -3.993014 v -5.396168 h 3.970624 v 0.738894 h -3.022749 v 1.52257 h 2.821229 v 0.738895 h -2.821229 v 1.656915 h 3.045139 z"
           id="text5"
           aria-label="SHANDAO TEMPLE" />
        <path
           d="m 31.65761,49.730777 h 4.037797 v 0.559768 H 31.65761 Z m -0.320934,-1.268809 h 4.716983 v 2.045021 h -0.731431 v -1.492716 h -3.291439 v 1.515107 h -0.694113 z m -0.589623,-4.052724 h 5.866374 v 0.529914 h -5.866374 z m -0.201516,1.865895 h 6.291798 v 0.537378 h -6.291798 z m 0.671722,-0.925484 h 4.918499 v 0.507524 h -4.918499 z m -0.910557,2.186829 h 6.747076 v 0.552305 h -6.747076 z m 2.985432,-2.880942 h 0.723967 v 3.112313 h -0.723967 z m -1.552425,-0.880702 0.634405,-0.171663 q 0.149271,0.171663 0.276152,0.39557 0.126881,0.216444 0.18659,0.380643 l -0.671722,0.216444 Q 32.120352,44.424171 31.993471,44.1928 31.874054,43.961429 31.739709,43.77484 Z m -0.335861,3.12724 0.641868,-0.149272 q 0.134345,0.156735 0.246298,0.358252 0.119418,0.201517 0.164199,0.350788 l -0.671722,0.18659 q -0.04478,-0.156735 -0.156735,-0.365716 -0.10449,-0.20898 -0.223908,-0.380642 z m 3.492956,-3.31383 0.731431,0.134345 q -0.134345,0.238834 -0.276153,0.455278 -0.134344,0.20898 -0.246298,0.373179 L 34.47138,44.409244 q 0.111953,-0.179126 0.231371,-0.410497 0.119417,-0.231371 0.194053,-0.410497 z m 0.358252,3.164558 0.716503,0.134345 q -0.12688,0.20898 -0.246298,0.395569 -0.111953,0.18659 -0.216444,0.320934 l -0.649331,-0.119417 q 0.09703,-0.156735 0.20898,-0.358252 0.119417,-0.20898 0.18659,-0.373179 z m 2.485372,1.746478 h 6.799321 v 0.544841 h -6.799321 z m 1.895749,-4.246777 h 4.881182 v 0.492596 h -4.881182 z m 2.597326,3.776572 h 0.679186 v 1.791259 q 0,0.253761 -0.06717,0.395569 -0.06717,0.149272 -0.268689,0.216444 -0.194053,0.06717 -0.492596,0.0821 -0.298544,0.01493 -0.746359,0.01493 -0.02239,-0.134345 -0.08956,-0.306007 -0.06717,-0.171662 -0.134345,-0.298543 0.20898,0.0075 0.410497,0.0075 0.201517,0.0075 0.343325,0 0.149271,0 0.20898,0 0.08956,-0.0075 0.119417,-0.02985 0.03732,-0.02985 0.03732,-0.09703 z m -3.216803,1.343444 0.477669,-0.403033 q 0.18659,0.119417 0.39557,0.268688 0.20898,0.149272 0.388106,0.298544 0.18659,0.149271 0.298543,0.283616 l -0.514987,0.440351 Q 39.957111,50.126347 39.777985,49.962148 39.606323,49.805413 39.404806,49.648677 39.20329,49.491942 39.0167,49.372525 Z m -1.044901,-5.269288 0.462742,-0.380642 q 0.194053,0.126881 0.388106,0.291079 0.201517,0.156736 0.373179,0.328398 0.179126,0.164199 0.276152,0.306007 l -0.492596,0.432887 q -0.09703,-0.149271 -0.261225,-0.320934 -0.164199,-0.171662 -0.365716,-0.343324 -0.194053,-0.171663 -0.380642,-0.313471 z m 2.560008,-0.380642 0.574696,-0.126881 q 0.12688,0.156735 0.246298,0.365715 0.119417,0.201517 0.171662,0.365716 l -0.612014,0.141808 q -0.04478,-0.156735 -0.156735,-0.365716 -0.10449,-0.20898 -0.223907,-0.380642 z m 0.350788,2.298782 v 0.283616 h 2.336101 v -0.283616 z m 0,0.619478 v 0.298543 h 2.336101 v -0.298543 z m 0,-1.231491 v 0.276152 h 2.336101 V 45.409364 Z M 40.2258,45.058576 h 3.672081 v 2.224146 H 40.2258 Z m -0.880702,0.447814 v 1.671842 H 38.70323 V 46.058695 H 37.770282 V 45.50639 Z m 2.343564,-1.059828 0.701576,0.05224 q -0.0821,0.20898 -0.156735,0.403033 -0.06717,0.18659 -0.126881,0.328398 l -0.559768,-0.0821 q 0.04478,-0.164199 0.0821,-0.358252 0.04478,-0.201517 0.05971,-0.343325 z m 1.335981,-0.858312 0.671722,0.126881 q -0.134345,0.20898 -0.276153,0.39557 -0.134344,0.179126 -0.246298,0.320934 l -0.559768,-0.126881 q 0.10449,-0.156735 0.223907,-0.358252 0.119417,-0.20898 0.18659,-0.358252 z m -3.679545,3.351148 q 0.20898,0.320934 0.582159,0.470205 0.373179,0.149272 0.865775,0.164199 0.268689,0.0075 0.641868,0.01493 0.373179,0 0.798603,0 0.425424,-0.0075 0.858312,-0.01493 0.440351,-0.0075 0.835921,-0.02239 0.39557,-0.01493 0.694113,-0.02985 -0.05224,0.09703 -0.111954,0.261225 -0.05224,0.164199 -0.07464,0.29108 -0.343324,0.01493 -0.828457,0.02239 -0.477669,0.0075 -1.00012,0.01493 -0.52245,0 -1.00012,0 -0.470205,-0.0075 -0.806066,-0.01493 -0.574696,-0.02239 -0.992656,-0.171663 -0.410497,-0.156735 -0.694113,-0.507523 -0.268689,0.186589 -0.552305,0.373179 -0.283616,0.179126 -0.589623,0.373179 l -0.253762,-0.574696 q 0.261225,-0.126881 0.567232,-0.298543 0.306007,-0.171662 0.589623,-0.350788 z m 6.530632,-2.485372 h 5.552904 v 0.671722 H 45.87573 Z m -0.485132,3.052604 h 6.448533 v 0.671722 h -6.448533 z m -0.171663,-1.52257 h 6.762004 v 0.671722 h -6.762004 z m 2.977969,-2.39581 h 0.738894 v 2.597326 h -0.738894 z m 1.350908,3.02275 h 0.73143 v 3.089922 q 0,0.298544 -0.0821,0.462742 -0.0821,0.164199 -0.306007,0.246299 -0.216443,0.0821 -0.559768,0.09703 -0.343325,0.02239 -0.835921,0.02239 -0.01493,-0.156735 -0.08956,-0.358252 -0.07464,-0.201517 -0.149272,-0.343325 0.238835,0.0075 0.462742,0.0075 0.231371,0 0.403034,0 0.171662,0 0.238834,0 0.111954,-0.0075 0.149272,-0.03732 0.03732,-0.02985 0.03732,-0.111954 z m -3.246658,1.977849 0.612014,-0.380643 q 0.20898,0.18659 0.432888,0.410497 0.223907,0.216444 0.403033,0.440352 0.186589,0.223907 0.291079,0.41796 l -0.656795,0.417961 q -0.08956,-0.194054 -0.268688,-0.417961 -0.179126,-0.231371 -0.388107,-0.462742 -0.20898,-0.238834 -0.425424,-0.425424 z"
           id="text5-9"
           style="font-weight:500;font-size:7.46358px;line-height:1.25;font-family:'Noto Sans JP';-inkscape-font-specification:'Noto Sans JP Medium';fill:#ffffff;stroke-width:0.266556"
           aria-label="善導寺" />
        <path
           style="font-weight:500;font-size:7.46358px;line-height:1.25;font-family:'Noto Sans KR';-inkscape-font-specification:'Noto Sans KR Medium';fill:#ffffff;stroke-width:0.266556"
           d="m 61.912459,44.199198 h 0.641868 v 0.79114 q 0,0.671722 -0.223908,1.253881 -0.216444,0.574696 -0.641868,1.00012 -0.425424,0.425424 -1.029974,0.649331 l -0.425424,-0.612013 q 0.552305,-0.18659 0.925484,-0.529914 0.373179,-0.350789 0.559769,-0.806067 0.194053,-0.455279 0.194053,-0.955338 z m 0.149271,0 h 0.634405 v 0.81353 q 0,0.335861 0.10449,0.656795 0.111953,0.320934 0.31347,0.60455 0.20898,0.283616 0.507524,0.50006 0.306006,0.216444 0.701576,0.350789 l -0.39557,0.619477 Q 63.330539,47.527955 62.912578,47.124922 62.494618,46.721888 62.278174,46.177047 62.06173,45.624742 62.06173,45.012728 Z m 2.783916,-0.41796 h 0.776212 v 5.015525 h -0.776212 z m 0.544841,2.045021 h 1.194173 v 0.649331 h -1.194173 z m -4.067651,4.007942 h 4.575175 v 0.634404 h -4.575175 z m 0,-1.515107 h 0.783676 v 1.843505 h -0.783676 z m 10.344522,-4.537856 h 0.783676 v 6.836639 h -0.783676 z m 0.612014,2.619716 h 1.231491 v 0.649332 h -1.231491 z m -4.8364,1.888286 h 0.552305 q 0.612014,0 1.127001,-0.01493 0.514987,-0.02239 1.000119,-0.06717 0.485133,-0.05224 0.985193,-0.141808 l 0.0821,0.649331 q -0.514987,0.09703 -1.015047,0.149272 -0.492596,0.04478 -1.029974,0.06717 -0.529914,0.01493 -1.149391,0.01493 h -0.552305 z m 0,-3.858671 h 3.172022 v 0.634404 h -2.39581 v 3.530274 h -0.776212 z m 9.277231,3.201876 h 0.783676 v 1.634524 h -0.783676 z m 0.395569,-3.44071 q 0.723968,0 1.283736,0.223907 0.567232,0.223907 0.89563,0.634404 0.328397,0.410497 0.328397,0.962802 0,0.559769 -0.328397,0.970265 -0.328398,0.410497 -0.89563,0.641868 -0.559768,0.223908 -1.283736,0.223908 -0.723967,0 -1.291199,-0.223908 -0.567232,-0.231371 -0.89563,-0.641868 -0.328397,-0.410496 -0.328397,-0.970265 0,-0.552305 0.328397,-0.962802 0.328398,-0.410497 0.89563,-0.634404 0.567232,-0.223907 1.291199,-0.223907 z m 0,0.619477 q -0.514987,0 -0.910556,0.149271 -0.388107,0.141808 -0.612014,0.410497 -0.223907,0.268689 -0.223907,0.641868 0,0.373179 0.223907,0.649332 0.223907,0.268688 0.612014,0.41796 0.395569,0.141808 0.910556,0.141808 0.507524,0 0.903094,-0.141808 0.395569,-0.149272 0.619477,-0.41796 0.223907,-0.276153 0.223907,-0.649332 0,-0.373179 -0.223907,-0.641868 -0.223908,-0.268689 -0.619477,-0.410497 -0.39557,-0.149271 -0.903094,-0.149271 z m -3.082458,4.313949 h 6.179844 v 0.641868 h -6.179844 z m 8.478628,-4.776691 h 0.634405 v 1.119537 q 0,0.589623 -0.134345,1.164318 -0.126881,0.567232 -0.373179,1.059829 -0.238834,0.492596 -0.589623,0.880702 -0.350788,0.380643 -0.791139,0.60455 l -0.470206,-0.634404 q 0.39557,-0.194053 0.716504,-0.514987 0.320934,-0.328398 0.544841,-0.738895 0.223908,-0.41796 0.343325,-0.880702 0.119417,-0.470206 0.119417,-0.940411 z m 0.141808,0 h 0.634405 v 1.119537 q 0,0.455278 0.111953,0.903093 0.111954,0.440351 0.328398,0.843384 0.223907,0.39557 0.529914,0.709041 0.306007,0.31347 0.686649,0.500059 L 84.4674,49.050525 Q 84.041976,48.826618 83.706115,48.460902 83.377718,48.087723 83.138883,47.610054 82.907512,47.132385 82.780631,46.587544 82.65375,46.042702 82.65375,45.468007 Z m 2.746598,-0.559769 h 0.783676 v 6.821712 h -0.783676 z m 0.612013,2.694353 h 1.231491 v 0.656795 h -1.231491 z"
           id="text5-9-8"
           aria-label="산다오사" />
        <path
           style="font-weight:500;font-size:72px;line-height:1.25;font-family:'Noto Sans TC';-inkscape-font-specification:'Noto Sans TC Medium';white-space:pre;fill:#f9f9f9"
           d="m 163.18542,103.68941 h 23.904 v 5.832 h -23.904 z m -1.8,12.024 h 65.16 v 5.904 h -65.16 z m 1.8,-23.616004 h 61.416 v 5.688 h -61.416 z m 2.016,34.560004 h 56.952 v 5.616 h -56.952 z m 25.056,-32.328004 h 6.696 v 47.232004 h -6.696 z m -17.28,5.112 h 6.336 v 14.688004 h -6.336 z m 35.496,0 h 6.336 v 14.688004 h -6.336 z m -30.6,-24.768 h 6.624 v 15.624 h -6.624 z m 24.912,0 h 6.624 v 15.624 h -6.624 z m -40.896,4.68 h 30.6 v 6.048 h -30.6 z m 33.192,0 h 30.6 v 6.048 h -30.6 z m 5.256,24.048004 h 23.904 v 5.832 h -23.904 z m 61.848,-28.008004 h 7.2 v 56.880004 h -7.2 z m 25.488,14.328 h 7.056 v 51.552004 h -7.056 z m -50.472,0.216 h 6.984 v 39.168004 h 46.944 v 6.912 h -53.928 z"
           id="text4-0"
           transform="matrix(0.12803532,0,0,0.12803532,73.361836,6.1353266)"
           aria-label="華山" />
        <path
           style="font-size:3.52072px;line-height:1.25;font-family:'AR UDJingXiHeiE1G30 EB';-inkscape-font-specification:'AR UDJingXiHeiE1G30 EB';fill:#ffffff;stroke-width:0.12574"
           d="m 94.692347,26.959426 v 1.130151 h -0.447132 v -2.545481 h 0.447132 v 1.066779 h 1.221689 v -1.066779 h 0.447132 v 2.545481 h -0.447132 v -1.130151 z m 4.386817,0.239409 q 0,0.443611 -0.278137,0.690061 -0.278136,0.24645 -0.792162,0.24645 -0.521066,0 -0.802724,-0.242929 -0.278137,-0.24293 -0.278137,-0.690061 v -1.65826 h 0.447132 v 1.637135 q 0,0.288699 0.158432,0.447132 0.158433,0.158432 0.475297,0.158432 0.299262,0 0.457694,-0.151391 0.161953,-0.154912 0.161953,-0.461214 v -1.630094 h 0.450652 z m 1.922316,-0.137308 -0.40136,-1.087903 -0.40841,1.087903 z m -0.94003,0.348551 -0.253496,0.679499 h -0.454173 l 1.024529,-2.545481 h 0.45769 l 1.01749,2.545481 h -0.46473 l -0.25702,-0.679499 z m 2.92923,-0.471776 q -0.46473,-0.0845 -0.69006,-0.260534 -0.22533,-0.176036 -0.22533,-0.492901 0,-0.29574 0.23941,-0.48938 0.24293,-0.193639 0.7464,-0.193639 0.46121,0 0.7147,0.19716 0.25349,0.19716 0.27814,0.570357 h -0.44713 q -0.004,-0.179557 -0.14083,-0.299261 -0.13731,-0.119705 -0.41897,-0.119705 -0.26405,0 -0.3908,0.08802 -0.12674,0.08802 -0.12322,0.24645 0,0.172516 0.16899,0.257013 0.17252,0.0845 0.5598,0.161953 0.48586,0.09858 0.69006,0.267575 0.20772,0.168994 0.20772,0.506984 0,0.323906 -0.27462,0.54219 -0.27461,0.214764 -0.7816,0.214764 -0.51754,0 -0.80624,-0.218284 -0.2887,-0.218285 -0.2887,-0.630209 h 0.44713 q 0,0.228847 0.17252,0.366155 0.17251,0.133787 0.47882,0.133787 0.28165,0 0.44009,-0.109142 0.15843,-0.109143 0.15843,-0.285179 0,-0.204201 -0.15843,-0.292219 -0.15844,-0.08802 -0.55628,-0.161953 z m 2.03498,0.02112 v 1.130151 h -0.44713 v -2.545481 h 0.44713 v 1.066779 h 1.22169 v -1.066779 h 0.44713 v 2.545481 h -0.44713 v -1.130151 z m 3.60874,0.102101 -0.40137,-1.087903 -0.4084,1.087903 z m -0.94004,0.348551 -0.25349,0.679499 h -0.45417 l 1.02453,-2.545481 h 0.45769 l 1.01749,2.545481 h -0.46473 l -0.25702,-0.679499 z m 2.5314,-1.158317 v 1.837816 h -0.44713 v -2.545481 h 0.46121 l 1.24986,1.880065 v -1.880065 h 0.44713 v 2.545481 h -0.48938 z"
           id="text5-8"
           aria-label="HUASHAN" />
        <path
           d="m 94.041762,30.670182 h 2.930479 v 0.262867 h -2.930479 z m 0.04219,1.031996 h 2.855837 v 0.266112 h -2.855837 z m 0.194716,-1.551239 h 2.476141 v 0.256376 h -2.476141 z m -0.04219,1.051467 h 2.567009 v 0.256377 h -2.567009 z m 1.106637,-0.950864 h 0.30181 v 2.128897 h -0.30181 z m -0.717204,0.02596 h 0.285583 v 1.051468 h -0.285583 z m 1.473352,0 h 0.285584 v 1.051468 h -0.285584 z m -1.314334,-0.911921 h 0.298565 v 0.704224 h -0.298565 z m 1.122863,0 h 0.298565 v 0.704224 h -0.298565 z m -1.833577,0.210943 h 2.868818 v 0.272603 h -2.868818 z m 4.501189,-0.133056 h 0.324527 v 2.521575 h -0.324527 z m -1.122863,0.704224 h 0.311546 v 2.190557 h -0.311546 z m 2.29116,-0.0065 h 0.318039 v 2.187312 h -0.318039 z m -2.138632,1.638861 h 2.278179 v 0.314792 h -2.278179 z"
           id="text5-9-1"
           style="font-weight:500;font-size:3.24527px;line-height:1.25;font-family:'Noto Sans JP';-inkscape-font-specification:'Noto Sans JP Medium';fill:#f9f9f9;stroke-width:0.115903"
           aria-label="華山" />
        <path
           style="font-weight:500;font-size:3.24527px;line-height:1.25;font-family:'Noto Sans kr';-inkscape-font-specification:'Noto Sans kr Medium';fill:#f9f9f9;stroke-width:0.115903"
           d="m 105.45093,31.252027 h 0.34075 v 0.4803 h -0.34075 z m 1.24618,-1.762182 h 0.34075 v 2.966177 h -0.34075 z m 0.22717,1.233203 h 0.53547 v 0.282338 h -0.53547 z m -2.19056,1.197504 -0.0454,-0.279093 q 0.26286,0 0.57441,-0.0032 0.31155,-0.0032 0.63932,-0.02272 0.32777,-0.01947 0.62958,-0.06166 l 0.026,0.24664 q -0.31479,0.05842 -0.63932,0.08438 -0.32452,0.02596 -0.62633,0.03245 -0.30181,0.0032 -0.55819,0.0032 z m 0.006,-2.086708 h 1.75894 v 0.269357 h -1.75894 z m 0.88271,0.415394 q 0.2077,0 0.36672,0.0714 0.16226,0.06815 0.25313,0.191471 0.0909,0.123321 0.0909,0.292075 0,0.165508 -0.0909,0.292074 -0.0909,0.12332 -0.25313,0.191471 -0.15902,0.06815 -0.36672,0.06815 -0.21094,0 -0.3732,-0.06815 -0.15902,-0.06815 -0.24989,-0.191471 -0.0876,-0.126566 -0.0876,-0.292074 0,-0.168754 0.0876,-0.292075 0.0909,-0.12332 0.24989,-0.191471 0.16226,-0.0714 0.3732,-0.0714 z m 0,0.259622 q -0.17524,0 -0.28233,0.08113 -0.1071,0.07789 -0.1071,0.214188 0,0.136301 0.1071,0.214187 0.10709,0.07789 0.28233,0.07789 0.17525,0 0.28234,-0.07789 0.1071,-0.07789 0.1071,-0.214187 0,-0.136302 -0.1071,-0.214188 -0.10709,-0.08113 -0.28234,-0.08113 z m -0.17199,-1.012524 h 0.34075 v 0.528979 h -0.34075 z m 2.95644,0.171999 h 0.27909 v 0.343999 q 0,0.292074 -0.0974,0.545205 -0.0941,0.249886 -0.27909,0.434866 -0.18498,0.184981 -0.44785,0.282339 l -0.18498,-0.266112 q 0.24015,-0.08113 0.40241,-0.230415 0.16227,-0.152527 0.2434,-0.350489 0.0844,-0.197961 0.0844,-0.415394 z m 0.0649,0 h 0.27585 v 0.353734 q 0,0.146038 0.0454,0.285584 0.0487,0.139547 0.1363,0.262867 0.0909,0.12332 0.22068,0.217433 0.13306,0.09411 0.30506,0.152528 l -0.172,0.269357 q -0.25962,-0.09411 -0.44136,-0.269357 -0.18173,-0.175245 -0.27585,-0.412149 -0.0941,-0.24015 -0.0941,-0.506263 z m 1.21049,-0.181735 h 0.33751 v 2.180821 h -0.33751 z m 0.2369,0.889204 h 0.51925 v 0.282338 h -0.51925 z m -1.76867,1.74271 h 1.98935 v 0.275848 h -1.98935 z m 0,-0.65879 h 0.34075 v 0.801582 h -0.34075 z"
           id="text5-9-1-0"
           aria-label="화산" />
        <path
           id="rect2"
           style="fill:#ffffff;stroke-width:0.757875"
           d="m 89.586441,15.622412 h 1.0501 v 16.764515 h -1.0501 z" />
      </g>
      <text
         xml:space="preserve"
         transform="matrix(0.31615295,0,0,0.31615295,-10.474341,-6.4462013)"
         id="text6"
         style="font-size:55px;line-height:1.25;font-family:'Microsoft JhengHei';-inkscape-font-specification:'Microsoft JhengHei';white-space:pre;shape-inside:url(#rect6);display:inline" />
    </g>
  </g>
</svg>
