<?xml version="1.0" encoding="UTF-8" standalone="no"?>
<!-- Created with Inkscape (http://www.inkscape.org/) -->

<svg
   width="500"
   height="250"
   viewBox="0 0 132.29166 66.145833"
   version="1.1"
   id="svg1"
   inkscape:version="1.3.2 (091e20e, 2023-11-25, custom)"
   sodipodi:docname="bl14_2.svg"
   xmlns:inkscape="http://www.inkscape.org/namespaces/inkscape"
   xmlns:sodipodi="http://sodipodi.sourceforge.net/DTD/sodipodi-0.dtd"
   xmlns="http://www.w3.org/2000/svg"
   xmlns:svg="http://www.w3.org/2000/svg">
  <sodipodi:namedview
     id="namedview1"
     pagecolor="#9e652e"
     bordercolor="#ffffff"
     borderopacity="1"
     inkscape:showpageshadow="0"
     inkscape:pageopacity="0"
     inkscape:pagecheckerboard="false"
     inkscape:deskcolor="#d1d1d1"
     inkscape:document-units="mm"
     inkscape:zoom="4.0416192"
     inkscape:cx="465.65495"
     inkscape:cy="142.02229"
     inkscape:window-width="1920"
     inkscape:window-height="1009"
     inkscape:window-x="1912"
     inkscape:window-y="-8"
     inkscape:window-maximized="1"
     inkscape:current-layer="layer1" />
  <defs
     id="defs1">
    <rect
       x="560.66638"
       y="34.144731"
       width="279.32397"
       height="128.59143"
       id="rect6" />
    <rect
       x="157.85752"
       y="62.351248"
       width="329.07603"
       height="135.09437"
       id="rect4" />
    <rect
       x="157.85751"
       y="62.35125"
       width="329.07602"
       height="135.09438"
       id="rect4-5" />
  </defs>
  <g
     inkscape:label="Layer 1"
     inkscape:groupmode="layer"
     id="layer1">
    <rect
       style="fill:#005fb9;fill-opacity:1;stroke:none;stroke-width:0.953294;stroke-dasharray:none"
       id="rect5"
       width="132.29167"
       height="66.145836"
       x="-2.5431316e-06"
       y="-1.2715658e-06"
       ry="0" />
    <text
       xml:space="preserve"
       transform="matrix(0.31615295,0,0,0.31615295,-10.474341,-6.4462013)"
       id="text6"
       style="font-size:55px;line-height:1.25;font-family:'Microsoft JhengHei';-inkscape-font-specification:'Microsoft JhengHei';white-space:pre;shape-inside:url(#rect6);display:inline" />
    <g
       id="g1"
       transform="matrix(0.75599004,0,0,0.75599004,-0.80245096,8.0701216)">
      <path
         id="rect1"
         style="fill-opacity:0;stroke:#f9f9f9;stroke-width:0.794854"
         d="m 10.630079,17.290197 h 10.475509 c 3.31086,0 5.976281,2.665421 5.976281,5.976281 v 19.612876 c 0,3.31086 -2.665421,5.976281 -5.976281,5.976281 H 10.630079 c -3.3108594,0 -5.9762804,-2.665421 -5.9762804,-5.976281 V 23.266478 c 0,-3.31086 2.665421,-5.976281 5.9762804,-5.976281 z" />
      <path
         style="font-size:10.5892px;line-height:1.25;font-family:'AR UDJingXiHeiE1G30 EB';-inkscape-font-specification:'AR UDJingXiHeiE1G30 EB';fill:#f9f9f9;stroke-width:0.220608"
         d="M 12.834007,30.922491 H 8.8101113 V 23.2665 h 3.6850417 q 1.090687,0 1.726039,0.52946 0.635352,0.52946 0.635352,1.408363 0,0.571817 -0.25414,1.005974 -0.243552,0.423568 -0.741244,0.698888 0.645941,0.25414 0.974206,0.698887 0.338854,0.444746 0.338854,1.05892 0,1.016563 -0.667119,1.641326 -0.66712,0.614173 -1.673094,0.614173 z m 0.624763,-5.54874 q 0,-0.518871 -0.296498,-0.783601 -0.296497,-0.275319 -0.857725,-0.275319 H 10.15494 v 2.160196 h 2.223732 q 0.476514,0 0.773011,-0.275319 0.307087,-0.285908 0.307087,-0.825957 z m 0.317676,3.282652 q 0,-0.550639 -0.338854,-0.836547 -0.328266,-0.296498 -0.868315,-0.296498 H 10.15494 v 2.350803 h 2.393159 q 0.561227,0 0.889493,-0.307087 0.338854,-0.307087 0.338854,-0.910671 z m 8.121923,2.266088 H 16.519056 V 23.2665 h 1.344828 v 6.607661 h 4.034485 z"
         id="text2"
         aria-label="BL" />
      <path
         style="font-size:12.1335px;line-height:1.25;font-family:'AR UDJingXiHeiE1G30 EB';-inkscape-font-specification:'AR UDJingXiHeiE1G30 EB';fill:#f9f9f9;stroke-width:0.220608"
         d="m 11.730307,36.033199 -1.41962,1.322552 -0.7037428,-1.079882 2.2810978,-2.074828 h 1.322552 v 8.77252 h -1.480287 z m 8.359973,5.047536 h -3.797786 v -1.067748 l 3.724985,-5.811946 h 1.565222 v 5.666344 h 1.152682 v 1.21335 h -1.152682 v 1.892826 H 20.09028 Z m -2.256831,-1.21335 h 2.256831 v -3.567249 z"
         id="text3"
         aria-label="14" />
      <path
         style="font-weight:500;font-size:72px;line-height:1.25;font-family:'Noto Sans TC';-inkscape-font-specification:'Noto Sans TC Medium';white-space:pre;fill:#f9f9f9"
         d="m 178.23342,116.00141 h 7.056 v 14.904 q 0,1.584 0.792,2.088 0.864,0.504 3.816,0.504 0.648,0 2.304,0 1.728,0 3.744,0 2.016,0 3.744,0 1.8,0 2.664,0 1.728,0 2.592,-0.648 0.864,-0.648 1.224,-2.592 0.36,-1.944 0.504,-5.904 0.792,0.576 1.944,1.152 1.152,0.504 2.376,0.936 1.224,0.36 2.16,0.648 -0.432,5.112 -1.44,7.92 -1.008,2.736 -3.096,3.816 -2.088,1.08 -5.688,1.08 -0.576,0 -2.016,0 -1.368,0 -3.168,0 -1.728,0 -3.528,0 -1.728,0 -3.168,0 -1.368,0 -1.872,0 -4.32,0 -6.696,-0.792 -2.376,-0.792 -3.312,-2.736 -0.936,-1.944 -0.936,-5.4 z m 9.432,0 5.256,-3.744 q 1.872,1.44 3.96,3.24 2.088,1.8 3.96,3.6 1.872,1.728 3.024,3.168 l -5.472,4.176 q -1.08,-1.44 -2.952,-3.24 -1.8,-1.872 -3.816,-3.744 -2.016,-1.944 -3.96,-3.456 z m 22.464,2.376 5.904,-2.88 q 1.872,2.448 3.96,5.472 2.16,3.024 3.96,5.904 1.872,2.88 3.024,5.112 l -6.264,3.456 q -1.008,-2.232 -2.808,-5.184 -1.8,-2.952 -3.888,-6.048 -2.016,-3.168 -3.888,-5.832 z m -41.76,-2.448 6.048,2.448 q -0.936,2.808 -2.16,6.12 -1.224,3.24 -2.592,6.408 -1.296,3.168 -2.808,5.616 l -6.408,-2.88 q 1.584,-2.376 3.096,-5.4 1.512,-3.024 2.736,-6.192 1.296,-3.24 2.088,-6.12 z m 22.032,-41.256004 h 6.84 v 38.808004 h -6.84 z m -16.704,14.472 v 11.736004 h 40.536 V 89.145406 Z m -6.552,-6.12 h 53.928 v 23.904004 h -53.928 z m 66.24,11.592 h 65.016 v 5.976004 h -65.016 z m 6.12,25.416004 h 57.888 v 5.904 h -57.888 z m 13.68,-13.896 h 30.6 v 5.472 h -30.6 z m -13.536,-23.976004 h 40.32 v 5.904 h -40.32 z m 18.288,-7.488 h 6.696 v 23.04 h -6.696 z m 30.6,2.664 5.688,3.24 q -7.2,8.712 -16.56,16.128 -9.36,7.344004 -19.944,13.176004 -10.584,5.832 -21.528,10.08 -0.432,-0.792 -1.224,-1.8 -0.792,-1.08 -1.656,-2.088 -0.792,-1.08 -1.44,-1.656 11.088,-3.816 21.6,-9.288 10.512,-5.544004 19.512,-12.600004 9,-7.056 15.552,-15.192 z m -23.616,39.456004 h 6.696 v 17.568 q 0,2.52 -0.72,3.888 -0.72,1.44 -2.808,2.16 -2.016,0.72 -5.112,0.864 -3.096,0.144 -7.488,0.144 -0.288,-1.368 -1.08,-3.096 -0.72,-1.728 -1.44,-3.024 2.232,0.072 4.32,0.144 2.16,0 3.744,0 1.656,-0.072 2.304,-0.072 0.936,0 1.224,-0.216 0.36,-0.288 0.36,-1.008 z m 16.92,-10.656 h 1.728 l 1.512,-0.288 4.176,3.744 q -2.88,2.016 -6.408,4.104 -3.456,2.016 -7.2,3.816 -3.672,1.728 -7.344,3.096 -0.576,-0.864 -1.656,-2.016 -1.008,-1.152 -1.728,-1.8 3.096,-1.08 6.336,-2.664 3.24,-1.656 6.048,-3.384 2.808,-1.8 4.536,-3.312 z m 63.072,-7.416004 h 26.28 v 6.336004 h -26.28 z m -38.88,-16.704 h 32.04 v 5.616 h -32.04 z m -0.792,28.584004 h 32.976 v 5.832 h -32.976 z m -0.36,-12.312004 h 34.344 v 5.688004 h -34.344 z m 52.272,3.168004 h 6.624 v 39.672 h -6.624 z m -46.872,-12.312004 5.544,-1.296 q 0.936,2.088 1.656,4.608 0.792,2.52 1.08,4.32 l -5.76,1.584 q -0.216,-1.872 -0.936,-4.464 -0.648,-2.592 -1.584,-4.752 z m 17.928,-1.44 6.264,1.296 q -1.152,3.024 -2.376,6.12 -1.224,3.096 -2.304,5.256004 l -5.544,-1.224004 q 0.72,-1.584 1.44,-3.6 0.72,-2.016 1.368,-4.104 0.72,-2.088 1.152,-3.744 z m 36.36,-12.024 5.328,5.04 q -3.528,1.368 -7.92,2.52 -4.32,1.08 -8.856,1.944 -4.464,0.864 -8.784,1.512 -0.216,-1.08 -0.864,-2.592 -0.576,-1.512 -1.224,-2.52 4.104,-0.72 8.208,-1.656 4.104,-0.936 7.776,-2.016 3.744,-1.152 6.336,-2.232 z m -47.88,0.144 6.768,-1.728 q 1.224,2.232 2.376,4.968 1.224,2.664 1.8,4.608 l -7.056,2.016 q -0.504,-2.016 -1.656,-4.752 -1.08,-2.808 -2.232,-5.112 z m 25.56,5.76 h 6.408 v 25.272004 q 0,3.96 -0.288,8.496 -0.216,4.536 -1.008,9.144 -0.792,4.608 -2.232,8.928 -1.44,4.32 -3.888,7.776 -0.504,-0.648 -1.512,-1.44 -0.936,-0.792 -2.016,-1.512 -1.008,-0.72 -1.728,-1.08 2.88,-4.248 4.248,-9.504 1.368,-5.256 1.656,-10.656 0.36,-5.4 0.36,-10.152 z m -13.824,39.816004 4.536,-2.448 q 1.8,2.592 3.456,5.688 1.656,3.024 2.52,5.256 l -4.68,2.808 q -0.864,-2.232 -2.592,-5.472 -1.656,-3.24 -3.24,-5.832 z m -17.28,-1.8 5.328,1.512 q -1.296,3.888 -3.384,7.92 -2.016,3.96 -4.032,6.768 -0.792,-0.72 -2.232,-1.656 -1.368,-1.008 -2.376,-1.512 2.016,-2.592 3.744,-6.048 1.8,-3.528 2.952,-6.984 z m 8.136,-18.216 h 6.624 v 39.744 h -6.624 z m 69.552,-13.104004 h 49.968 v 6.624 h -49.968 z m -3.096,21.096004 h 50.4 v 6.552 h -50.4 z m -8.064,23.256 h 64.656 v 6.624 h -64.656 z m 28.8,-57.960004 h 7.056 v 61.272004 h -7.056 z m -16.416,1.008 7.056,1.584 q -1.584,5.544 -3.816,10.944 -2.16,5.328 -4.752,9.936 -2.592,4.536004 -5.4,7.992004 -0.72,-0.576 -1.872,-1.296 -1.08,-0.792 -2.232,-1.512 -1.152,-0.792 -2.088,-1.224 2.952,-3.168004 5.4,-7.344004 2.448,-4.248 4.392,-9.144 2.016,-4.896 3.312,-9.936 z"
         id="text4"
         transform="matrix(0.2206089,0,0,0.2206089,-4.5831014,1.7637913)"
         aria-label="忠孝新生" />
      <path
         style="font-weight:500;font-size:72px;line-height:1.25;font-family:'Noto Sans TC';-inkscape-font-specification:'Noto Sans TC Medium';white-space:pre;fill:#f9f9f9"
         d="m 162.17742,78.633406 h 63.576 v 4.464 h -63.576 z m 0.144,56.520004 h 63.216 v 4.752 h -63.216 z m 5.328,-48.960004 h 52.488 v 4.248 h -52.488 z m 2.88,27.360004 h 46.224 v 3.888 h -46.224 z m -1.152,14.184 h 49.68 v 4.248 h -49.68 z m -6.12,-21.312 h 61.272 v 10.512 h -6.408 v -6.048 h -48.744 v 6.048 h -6.12 z m 26.928,-31.824004 h 6.912 v 14.184 h -6.912 z m 0,48.312004 h 6.912 v 14.688 h -6.912 z m -13.176,-26.208004 v 3.384004 h 33.768 v -3.384004 z m -6.336,-3.672 h 46.8 v 10.728004 h -46.8 z m 30.456,24.840004 4.032,-3.024 q 2.448,1.224 5.04,2.808 2.592,1.584 4.968,3.24 2.376,1.656 3.888,3.024 l -4.032,3.384 q -1.512,-1.44 -3.888,-3.168 -2.304,-1.728 -4.968,-3.384 -2.592,-1.656 -5.04,-2.88 z m -27.792,7.992 q -0.216,-0.792 -0.648,-2.232 -0.432,-1.44 -0.864,-2.376 1.728,-0.144 3.888,-0.936 0.792,-0.288 2.52,-1.08 1.728,-0.792 3.816,-1.944 2.16,-1.152 4.032,-2.52 l 4.824,1.728 q -3.528,2.376 -7.2,4.176 -3.6,1.728 -6.984,2.664 v 0.072 q 0,0 -0.864,0.432 -0.864,0.36 -1.728,0.936 -0.792,0.504 -0.792,1.08 z m 0,0 v -3.24 l 3.024,-1.584 35.28,-0.504 q 0.144,0.864 0.36,1.944 0.288,1.08 0.504,1.872 -10.152,0.216 -16.92,0.36 -6.768,0.144 -10.944,0.288 -4.104,0.144 -6.408,0.288 -2.232,0.072 -3.312,0.216 -1.008,0.144 -1.584,0.36 z m 60.912,-33.480004 h 21.24 v 6.84 h -21.24 z m 35.64,-16.416 h 7.128 v 51.912004 q 0,2.808 0.504,3.6 0.576,0.792 2.448,0.792 0.504,0 1.512,0 1.08,0 2.304,0 1.224,0 2.304,0 1.08,0 1.584,0 1.512,0 2.232,-1.368 0.792,-1.44 1.08,-5.112 0.36,-3.744 0.576,-10.44 0.864,0.648 2.016,1.368 1.152,0.648 2.376,1.152 1.224,0.504 2.16,0.72 -0.36,7.488 -1.224,11.952 -0.864,4.392 -2.88,6.336 -1.944,2.016 -5.688,2.016 -0.576,0 -1.872,0 -1.296,0 -2.808,0 -1.512,0 -2.808,0 -1.224,0 -1.8,0 -3.456,0 -5.472,-1.008 -2.016,-0.936 -2.88,-3.384 -0.792,-2.448 -0.792,-6.696 z m -18.072,-0.072 h 7.056 v 53.496004 h -7.056 z m -19.944,57.888004 q 3.888,-1.296 9.144,-3.168 5.256,-1.872 11.088,-4.032 5.904,-2.16 11.664,-4.32 l 1.152,6.048 q -5.112,2.232 -10.44,4.464 -5.328,2.16 -10.296,4.176 -4.968,2.016 -9.216,3.672 z m 41.76,-41.472004 h 23.04 v 6.84 h -23.04 z m 42.624,-11.376 h 6.624 v 60.480004 h -6.624 z m -11.592,13.968 h 28.368 v 6.408004 h -28.368 z m 11.952,2.52 4.104,1.8 q -1.08,3.816004 -2.592,7.992004 -1.512,4.104 -3.312,8.136 -1.728,4.032 -3.744,7.56 -2.016,3.528 -4.104,6.048 -0.504,-1.44 -1.512,-3.24 -1.008,-1.872 -1.8,-3.096 1.944,-2.16 3.816,-5.112 1.872,-3.024 3.6,-6.408 1.8,-3.456 3.168,-6.984 1.44,-3.528 2.376,-6.696004 z m 11.736,-21.96 3.96,5.544 q -3.456,1.296 -7.776,2.448 -4.248,1.08 -8.784,1.872 -4.464,0.72 -8.64,1.296 -0.144,-1.08 -0.72,-2.592 -0.576,-1.584 -1.152,-2.664 4.104,-0.648 8.352,-1.512 4.248,-0.936 8.064,-2.016 3.888,-1.152 6.696,-2.376 z m -5.688,26.568004 q 0.648,0.648 2.088,2.304 1.44,1.656 3.024,3.6 1.656,1.872 2.952,3.6 1.368,1.656 1.944,2.376 l -4.104,5.328 q -0.648,-1.368 -1.8,-3.312 -1.152,-2.016 -2.52,-4.176 -1.368,-2.16 -2.592,-4.032 -1.224,-1.872 -2.088,-2.952 z m 33.336,-27.432004 h 6.696 v 66.816004 h -6.696 z m -23.976,46.728004 38.592,-6.408 1.008,6.336 -38.52,6.552 z m 5.328,-38.088004 4.392,-3.888 q 2.088,1.368 4.32,3.168 2.232,1.8 4.176,3.6 1.944,1.8 3.096,3.384 l -4.752,4.32 q -1.08,-1.512 -2.952,-3.384 -1.8,-1.944 -4.032,-3.816 -2.16,-1.872 -4.248,-3.384 z m -2.736,18.864004 4.32,-3.960004 q 2.232,1.44 4.608,3.312004 2.448,1.8 4.536,3.672 2.088,1.8 3.312,3.384 l -4.608,4.464 q -1.152,-1.656 -3.24,-3.6 -2.016,-1.944 -4.392,-3.816 -2.304,-1.944 -4.536,-3.456 z m 43.56,-7.344004 h 63.648 v 7.056004 h -63.648 z m 35.856,2.808 q 2.304,8.496004 6.192,15.840004 3.96,7.344 9.648,12.888 5.76,5.472 13.32,8.64 -0.864,0.72 -1.872,1.872 -0.936,1.152 -1.8,2.304 -0.864,1.224 -1.44,2.16 -7.992,-3.744 -13.968,-9.864 -5.904,-6.192 -10.008,-14.328 -4.104,-8.136 -6.912,-17.856004 z m -7.92,-22.896 h 7.416 q 0,5.112 -0.288,11.016 -0.216,5.832 -1.08,12.024 -0.864,6.192004 -2.808,12.384004 -1.944,6.192 -5.4,11.952 -3.456,5.76 -8.856,10.728 -5.4,4.896 -13.176,8.568 -0.864,-1.368 -2.304,-3.024 -1.44,-1.584 -2.88,-2.664 7.488,-3.384 12.6,-7.848 5.184,-4.536 8.352,-9.792 3.24,-5.328 4.968,-11.016 1.728,-5.688 2.448,-11.376004 0.72,-5.688 0.864,-11.016 0.144,-5.328 0.144,-9.936 z"
         id="text4-0"
         transform="matrix(0.10794507,0,0,0.10794507,82.454235,10.766797)"
         aria-label="臺北科大" />
      <path
         style="font-size:6.17705px;line-height:1.25;font-family:'AR UDJingXiHeiE1G30 EB';-inkscape-font-specification:'AR UDJingXiHeiE1G30 EB';fill:#f9f9f9;stroke-width:0.220608"
         d="m 31.169085,35.194381 h 3.49621 v 0.562111 l -2.693194,3.292368 h 2.754965 v 0.611528 h -3.761824 v -0.562112 l 2.693194,-3.292367 h -2.489351 z m 5.065181,2.483174 v 1.982833 h -0.784485 v -4.466007 h 0.784485 v 1.871646 h 2.143437 v -1.871646 h 0.784485 v 4.466007 h -0.784485 v -1.982833 z m 8.246364,-0.228551 q 0,1.074807 -0.599174,1.686335 -0.592997,0.605351 -1.624564,0.605351 -1.050099,0 -1.643096,-0.611528 -0.592996,-0.611528 -0.592996,-1.680158 0,-1.087161 0.599173,-1.704866 0.599174,-0.623882 1.636919,-0.623882 1.050098,0 1.636918,0.617705 0.58682,0.617705 0.58682,1.711043 z m -2.223738,1.680158 q 0.673298,0 1.037744,-0.444748 0.370623,-0.444748 0.370623,-1.23541 0,-0.784485 -0.370623,-1.247764 -0.370623,-0.469456 -1.037744,-0.469456 -0.679476,0 -1.056276,0.475633 -0.370623,0.469456 -0.370623,1.241587 0,0.790662 0.3768,1.23541 0.3768,0.444748 1.050099,0.444748 z m 3.860656,-2.693194 v 3.22442 h -0.784485 v -4.466007 h 0.809194 l 2.192852,3.298544 v -3.298544 h 0.784486 v 4.466007 h -0.85861 z m 7.307447,2.680839 q -0.228551,0.321207 -0.574466,0.475633 -0.339738,0.14825 -0.778308,0.14825 -0.96362,0 -1.531909,-0.605351 -0.568288,-0.611528 -0.568288,-1.704866 0,-1.099515 0.599174,-1.704866 0.599174,-0.605351 1.618387,-0.605351 0.821547,0 1.334243,0.3768 0.518872,0.370623 0.623882,1.062453 h -0.784486 q -0.06177,-0.364446 -0.364446,-0.592997 -0.296498,-0.234728 -0.809193,-0.234728 -0.685653,0 -1.043922,0.444748 -0.358269,0.43857 -0.358269,1.253941 0,0.870964 0.3768,1.284826 0.376801,0.407686 1.025391,0.407686 0.568288,0 0.901849,-0.333561 0.333561,-0.333561 0.333561,-0.765954 v -0.09266 H 52.1587 v -0.611528 h 2.019895 v 2.341102 h -0.7536 z m 4.311578,-3.922426 H 58.6446 l -1.538086,2.15579 1.624564,2.310217 h -0.914203 l -1.167462,-1.723397 -1.167463,1.723397 h -0.889495 l 1.61221,-2.316394 -1.544263,-2.149613 h 0.920381 l 1.074807,1.606033 z m 2.291687,0 v 4.466007 h -0.784486 v -4.466007 z m 3.40355,2.662308 -0.704183,-1.908708 -0.716538,1.908708 z m -1.649272,0.611528 -0.444748,1.192171 h -0.796839 l 1.797521,-4.466007 h 0.803017 l 1.785167,4.466007 h -0.81537 l -0.450925,-1.192171 z m 7.949858,-1.019213 q 0,1.074807 -0.599174,1.686335 -0.592997,0.605351 -1.624564,0.605351 -1.050099,0 -1.643095,-0.611528 -0.592997,-0.611528 -0.592997,-1.680158 0,-1.087161 0.599174,-1.704866 0.599174,-0.623882 1.636918,-0.623882 1.050098,0 1.636918,0.617705 0.58682,0.617705 0.58682,1.711043 z m -2.223738,1.680158 q 0.673298,0 1.037744,-0.444748 0.370623,-0.444748 0.370623,-1.23541 0,-0.784485 -0.370623,-1.247764 -0.370623,-0.469456 -1.037744,-0.469456 -0.679476,0 -1.056276,0.475633 -0.370623,0.469456 -0.370623,1.241587 0,0.790662 0.3768,1.23541 0.3768,0.444748 1.050099,0.444748 z m 7.325974,-3.934781 h 0.908026 l -1.538085,2.15579 1.624564,2.310217 h -0.914203 l -1.167463,-1.723397 -1.167462,1.723397 h -0.889495 l 1.61221,-2.316394 -1.544263,-2.149613 h 0.920381 l 1.074806,1.606033 z m 2.291688,0 v 4.466007 h -0.784485 v -4.466007 z m 1.809872,1.241587 v 3.22442 H 78.151707 V 35.194381 H 78.9609 l 2.192853,3.298544 v -3.298544 h 0.784485 v 4.466007 h -0.85861 z m 5.509923,1.204525 q -0.815371,-0.14825 -1.210702,-0.457102 -0.395331,-0.308853 -0.395331,-0.864787 0,-0.518872 0.420039,-0.85861 0.426217,-0.339738 1.309535,-0.339738 0.809193,0 1.253941,0.345915 0.444748,0.345915 0.487987,1.000682 h -0.784485 q -0.0062,-0.31503 -0.247082,-0.525049 -0.240905,-0.21002 -0.735069,-0.21002 -0.463279,0 -0.685653,0.154426 -0.222374,0.154427 -0.216197,0.432394 0,0.302675 0.296499,0.450924 0.302675,0.14825 0.982151,0.284145 0.852433,0.172957 1.210702,0.469456 0.364446,0.296498 0.364446,0.889495 0,0.568288 -0.48181,0.951265 -0.48181,0.376801 -1.371305,0.376801 -0.908027,0 -1.414545,-0.382978 -0.506518,-0.382977 -0.506518,-1.105692 h 0.784485 q 0,0.401509 0.302676,0.642414 0.302675,0.234728 0.840079,0.234728 0.494164,0 0.772131,-0.191489 0.277967,-0.191489 0.277967,-0.500341 0,-0.358269 -0.277967,-0.512695 -0.277967,-0.154426 -0.975974,-0.284144 z m 3.570334,0.03706 v 1.982833 h -0.784485 v -4.466007 h 0.784485 v 1.871646 h 2.143437 v -1.871646 h 0.784485 v 4.466007 h -0.784485 v -1.982833 z m 7.258037,1.982833 h -3.304721 v -4.466007 h 3.28619 v 0.611528 H 92.75425 v 1.260118 h 2.334925 v 0.611528 H 92.75425 v 1.371305 h 2.520236 z m 1.612214,-3.22442 v 3.22442 h -0.784485 v -4.466007 h 0.809193 l 2.192853,3.298544 v -3.298544 h 0.784485 v 4.466007 h -0.85861 z m 7.30745,2.680839 q -0.22855,0.321207 -0.57447,0.475633 -0.33973,0.14825 -0.77831,0.14825 -0.96362,0 -1.5319,-0.605351 -0.56829,-0.611528 -0.56829,-1.704866 0,-1.099515 0.59917,-1.704866 0.59918,-0.605351 1.61839,-0.605351 0.82155,0 1.33424,0.3768 0.51887,0.370623 0.62388,1.062453 h -0.78448 q -0.0618,-0.364446 -0.36445,-0.592997 -0.2965,-0.234728 -0.80919,-0.234728 -0.68565,0 -1.04392,0.444748 -0.35827,0.43857 -0.35827,1.253941 0,0.870964 0.3768,1.284826 0.3768,0.407686 1.02539,0.407686 0.56829,0 0.90185,-0.333561 0.33356,-0.333561 0.33356,-0.765954 v -0.09266 h -1.2663 v -0.611528 h 2.0199 v 2.341102 h -0.7536 z"
         id="text5"
         aria-label="ZHONGXIAO XINSHENG" />
      <path
         style="font-size:2.96828px;line-height:1.25;font-family:'AR UDJingXiHeiE1G30 EB';-inkscape-font-specification:'AR UDJingXiHeiE1G30 EB';fill:#ffffff;stroke-width:0.10601"
         d="m 100.43775,27.726724 v 1.549442 h -0.37698 V 27.1301 h 0.38885 l 1.05374,1.585062 V 27.1301 h 0.37697 v 2.146066 h -0.41259 z m 3.0781,0.682705 -0.33838,-0.917199 -0.34432,0.917199 z m -0.79253,0.293859 -0.21372,0.572878 h -0.3829 l 0.86377,-2.146066 h 0.38587 l 0.85783,2.146066 h -0.39181 l -0.21668,-0.572878 z m 2.21433,-1.279328 h -0.66786 V 27.1301 h 1.70973 v 0.29386 h -0.66489 v 1.852206 h -0.37698 z m 1.7038,-0.29386 v 2.146066 h -0.37698 V 27.1301 Z m 2.55568,1.083422 q 0,0.516481 -0.28792,0.810341 -0.28495,0.290891 -0.78066,0.290891 -0.5046,0 -0.78956,-0.29386 -0.28495,-0.293859 -0.28495,-0.807372 0,-0.522417 0.28792,-0.819245 0.28792,-0.299796 0.78659,-0.299796 0.50461,0 0.7866,0.296828 0.28198,0.296828 0.28198,0.822213 z m -1.06858,0.807372 q 0.32355,0 0.49867,-0.213716 0.1781,-0.213716 0.1781,-0.593656 0,-0.376971 -0.1781,-0.599592 -0.17809,-0.22559 -0.49867,-0.22559 -0.32651,0 -0.50757,0.228558 -0.1781,0.225589 -0.1781,0.596624 0,0.37994 0.18107,0.593656 0.18106,0.213716 0.5046,0.213716 z m 1.85518,-1.29417 v 1.549442 h -0.37697 V 27.1301 h 0.38884 l 1.05374,1.585062 V 27.1301 h 0.37697 v 2.146066 h -0.41259 z m 3.0781,0.682705 -0.33838,-0.917199 -0.34432,0.917199 z m -0.79253,0.293859 -0.21371,0.572878 h -0.38291 l 0.86377,-2.146066 h 0.38587 l 0.85784,2.146066 h -0.39182 l -0.21668,-0.572878 z m 3.26511,0.572878 h -1.50789 V 27.1301 h 0.37697 v 1.852207 h 1.13092 z m 1.54647,-1.852206 h -0.66786 V 27.1301 h 1.70973 v 0.29386 h -0.6649 v 1.852206 h -0.37697 z m 2.46961,0.985469 -0.33838,-0.917199 -0.34432,0.917199 z m -0.79253,0.293859 -0.21372,0.572878 h -0.38291 L 119.0251,27.1301 h 0.38588 l 0.85783,2.146066 H 119.877 l -0.21668,-0.572878 z m 2.13419,-1.573188 v 2.146066 h -0.37697 V 27.1301 Z m 0.8697,1.29417 v 0.851896 h -0.37697 V 27.1301 h 1.00922 q 0.31464,0 0.49273,0.17216 0.1781,0.17216 0.1781,0.457115 0,0.320575 -0.18403,0.492735 -0.18107,0.17216 -0.48977,0.17216 z m 0.92017,-0.658958 q 0,-0.166224 -0.095,-0.252304 -0.095,-0.08905 -0.27902,-0.08905 h -0.54617 v 0.70645 h 0.54617 q 0.18403,0 0.27902,-0.08905 0.095,-0.09202 0.095,-0.27605 z m 2.33307,1.510854 h -1.58803 V 27.1301 h 1.57912 v 0.29386 h -1.20215 v 0.605529 h 1.12201 v 0.29386 h -1.12201 v 0.658958 h 1.21106 z m 0.77472,-2.146066 v 2.146066 h -0.37697 V 27.1301 Z m 3.0692,1.395092 q 0,0.374003 -0.2345,0.581783 -0.23449,0.207779 -0.66786,0.207779 -0.43931,0 -0.67677,-0.204811 -0.23449,-0.204812 -0.23449,-0.581783 V 27.1301 h 0.37697 v 1.38025 q 0,0.243399 0.13357,0.376972 0.13357,0.133572 0.40072,0.133572 0.2523,0 0.38588,-0.127636 0.13654,-0.130604 0.13654,-0.388844 V 27.1301 h 0.37994 z m 0.85486,-0.798468 v 1.549442 H 129.3369 V 27.1301 h 0.38885 l 1.05374,1.585062 V 27.1301 h 0.37697 v 2.146066 h -0.41259 z m 2.31229,-0.596624 v 2.146066 h -0.37697 V 27.1301 Z m 2.20246,0 -0.76285,2.146066 h -0.43633 L 132.27253,27.1301 h 0.40368 l 0.57288,1.766127 0.58178,-1.766127 z m 1.8344,2.146066 h -1.58803 V 27.1301 h 1.57912 v 0.29386 h -1.20215 v 0.605529 h 1.12201 v 0.29386 h -1.12201 v 0.658958 h 1.21106 z m 1.74238,-1.531632 q 0,-0.157319 -0.0831,-0.237462 -0.0831,-0.08311 -0.24043,-0.08311 h -0.64412 v 0.667863 h 0.62334 q 0.15435,0 0.24934,-0.09202 0.095,-0.09202 0.095,-0.255272 z m -0.96766,0.63818 v 0.893452 h -0.37697 V 27.1301 h 1.09233 q 0.29386,0 0.46602,0.157319 0.17513,0.15435 0.17513,0.439305 0,0.187002 -0.0891,0.320575 -0.0861,0.133572 -0.21668,0.189969 0.16622,0.09499 0.25527,0.32948 0.0891,0.234494 0.11279,0.709418 h -0.39181 q -0.0178,-0.498671 -0.10983,-0.694577 -0.0891,-0.198875 -0.28792,-0.198875 z m 2.50523,-0.07718 q -0.39181,-0.07124 -0.58178,-0.219653 -0.18997,-0.148414 -0.18997,-0.415559 0,-0.249336 0.20184,-0.412591 0.20482,-0.163255 0.62928,-0.163255 0.38884,0 0.60256,0.166223 0.21372,0.166224 0.2345,0.480862 h -0.37698 q -0.003,-0.151383 -0.11873,-0.252304 -0.11576,-0.100922 -0.35322,-0.100922 -0.22262,0 -0.32948,0.07421 -0.10686,0.07421 -0.10389,0.20778 0,0.145446 0.14248,0.216684 0.14544,0.07124 0.47195,0.136541 0.40962,0.08311 0.58179,0.22559 0.17512,0.142477 0.17512,0.427432 0,0.273082 -0.23152,0.457115 -0.23153,0.181065 -0.65896,0.181065 -0.43634,0 -0.67974,-0.184033 -0.2434,-0.184034 -0.2434,-0.531322 h 0.37698 q 0,0.192938 0.14544,0.308701 0.14545,0.112794 0.40369,0.112794 0.23746,0 0.37103,-0.09202 0.13358,-0.09202 0.13358,-0.240431 0,-0.17216 -0.13358,-0.246367 -0.13357,-0.07421 -0.46899,-0.136541 z m 1.71567,-1.175439 v 2.146066 h -0.37697 V 27.1301 Z m 0.94985,0.29386 h -0.66787 V 27.1301 h 1.70973 v 0.29386 h -0.66489 v 1.852206 h -0.37697 z m 2.12232,0.65599 0.61146,-0.94985 h 0.4215 l -0.84596,1.261519 v 0.884547 h -0.37697 V 28.391619 L 143.08003,27.1301 h 0.43041 z m 4.11403,0.133572 q 0,0.516481 -0.28792,0.810341 -0.28496,0.290891 -0.78066,0.290891 -0.50461,0 -0.78956,-0.29386 -0.28496,-0.293859 -0.28496,-0.807372 0,-0.522417 0.28793,-0.819245 0.28792,-0.299796 0.78659,-0.299796 0.50461,0 0.7866,0.296828 0.28198,0.296828 0.28198,0.822213 z m -1.06858,0.807372 q 0.32354,0 0.49867,-0.213716 0.1781,-0.213716 0.1781,-0.593656 0,-0.376971 -0.1781,-0.599592 -0.17809,-0.22559 -0.49867,-0.22559 -0.32651,0 -0.50757,0.228558 -0.1781,0.225589 -0.1781,0.596624 0,0.37994 0.18106,0.593656 0.18107,0.213716 0.50461,0.213716 z m 1.85518,-0.697545 v 0.952817 h -0.37697 V 27.1301 h 1.50492 v 0.29386 h -1.12795 v 0.605529 h 0.9914 v 0.29386 z m 2.67739,-0.899389 h -0.66787 V 27.1301 h 1.70973 v 0.29386 h -0.66489 v 1.852206 h -0.37697 z m 2.91485,1.852206 h -1.58803 V 27.1301 h 1.57912 v 0.29386 h -1.20215 v 0.605529 h 1.12201 v 0.29386 h -1.12201 v 0.658958 h 1.21106 z m 1.92345,-0.748006 h 0.37697 q -0.0148,0.353225 -0.24637,0.56991 -0.23153,0.216684 -0.67083,0.216684 -0.51945,0 -0.7955,-0.29386 -0.27308,-0.293859 -0.27308,-0.816277 0,-0.51648 0.27308,-0.813308 0.27605,-0.296828 0.78956,-0.296828 0.41259,0 0.64115,0.18997 0.22856,0.187001 0.26121,0.486797 h -0.37697 q -0.0238,-0.17216 -0.15732,-0.27605 -0.13357,-0.106858 -0.37697,-0.106858 -0.2998,0 -0.48086,0.201843 -0.18107,0.201843 -0.18107,0.614434 0,0.418528 0.18107,0.617403 0.18403,0.198874 0.48679,0.198874 0.25824,0 0.39775,-0.133572 0.13951,-0.136541 0.15139,-0.359162 z m 1.122,-0.204811 v 0.952817 h -0.37697 V 27.1301 h 0.37697 v 0.899389 h 1.02999 V 27.1301 h 0.37698 v 2.146066 h -0.37698 v -0.952817 z m 2.27667,-0.596625 v 1.549442 h -0.37697 V 27.1301 h 0.38885 l 1.05374,1.585062 V 27.1301 h 0.37697 v 2.146066 h -0.41259 z m 3.99828,0.486798 q 0,0.516481 -0.28793,0.810341 -0.28495,0.290891 -0.78065,0.290891 -0.50461,0 -0.78957,-0.29386 -0.28495,-0.293859 -0.28495,-0.807372 0,-0.522417 0.28792,-0.819245 0.28792,-0.299796 0.7866,-0.299796 0.5046,0 0.78659,0.296828 0.28199,0.296828 0.28199,0.822213 z m -1.06858,0.807372 q 0.32354,0 0.49867,-0.213716 0.17809,-0.213716 0.17809,-0.593656 0,-0.376971 -0.17809,-0.599592 -0.1781,-0.22559 -0.49867,-0.22559 -0.32652,0 -0.50758,0.228558 -0.1781,0.225589 -0.1781,0.596624 0,0.37994 0.18107,0.593656 0.18106,0.213716 0.50461,0.213716 z m 2.98608,0.255272 H 164.3537 V 27.1301 h 0.37697 v 1.852207 h 1.13091 z m 2.37463,-1.062644 q 0,0.516481 -0.28792,0.810341 -0.28496,0.290891 -0.78066,0.290891 -0.50461,0 -0.78956,-0.29386 -0.28496,-0.293859 -0.28496,-0.807372 0,-0.522417 0.28792,-0.819245 0.28793,-0.299796 0.7866,-0.299796 0.50461,0 0.78659,0.296828 0.28199,0.296828 0.28199,0.822213 z m -1.06858,0.807372 q 0.32354,0 0.49867,-0.213716 0.1781,-0.213716 0.1781,-0.593656 0,-0.376971 -0.1781,-0.599592 -0.1781,-0.22559 -0.49867,-0.22559 -0.32651,0 -0.50758,0.228558 -0.17809,0.225589 -0.17809,0.596624 0,0.37994 0.18106,0.593656 0.18107,0.213716 0.50461,0.213716 z m 3.05436,-0.0059 q -0.10982,0.15435 -0.27605,0.228557 -0.16325,0.07124 -0.374,0.07124 -0.46305,0 -0.73614,-0.290891 -0.27308,-0.29386 -0.27308,-0.819246 0,-0.528353 0.28793,-0.819245 0.28792,-0.290891 0.77769,-0.290891 0.39478,0 0.64114,0.181065 0.24934,0.178097 0.2998,0.510544 h -0.37697 q -0.0297,-0.175129 -0.17513,-0.284955 -0.14248,-0.112795 -0.38884,-0.112795 -0.32948,0 -0.50164,0.213717 -0.17216,0.210747 -0.17216,0.60256 0,0.418528 0.18106,0.617403 0.18107,0.195906 0.49274,0.195906 0.27308,0 0.43336,-0.160287 0.16029,-0.160287 0.16029,-0.368067 v -0.04452 h -0.6085 v -0.29386 h 0.97063 v 1.124978 h -0.36213 z m 1.60287,-0.935008 0.61147,-0.94985 h 0.42149 l -0.84595,1.261519 v 0.884547 h -0.37698 v -0.884547 l -0.8608,-1.261519 h 0.4304 z"
         id="text5-8"
         aria-label="NATIONAL TAIPEI UNIVERSITY OF TECHNOLOGY" />
      <path
         d="m 32.492991,45.494257 h 0.574466 v 1.216879 q 0,0.135895 0.06177,0.172957 0.06795,0.03706 0.302676,0.03706 0.04942,0 0.179134,0 0.135895,0 0.296499,0 0.160603,0 0.296498,0 0.142072,0 0.216197,0 0.135895,0 0.197666,-0.04942 0.06795,-0.04942 0.09883,-0.203842 0.03089,-0.154427 0.04324,-0.469456 0.06177,0.04942 0.154426,0.09266 0.09266,0.04324 0.191488,0.07412 0.09883,0.03089 0.172958,0.05559 -0.03088,0.407685 -0.117364,0.630059 -0.0803,0.222373 -0.240905,0.308852 -0.160603,0.08648 -0.450925,0.08648 -0.04942,0 -0.160603,0 -0.10501,0 -0.247082,0 -0.142072,0 -0.290321,0 -0.142072,0 -0.253259,0 -0.10501,0 -0.14825,0 -0.345914,0 -0.54358,-0.06795 -0.191489,-0.06177 -0.265613,-0.228551 -0.06795,-0.160603 -0.06795,-0.43857 z m 0.42004,-0.240905 0.407685,-0.333561 q 0.21002,0.117364 0.426216,0.271791 0.222374,0.148249 0.407686,0.308852 0.185311,0.154426 0.290321,0.302675 l -0.43857,0.370623 q -0.10501,-0.148249 -0.284145,-0.315029 -0.172957,-0.16678 -0.389154,-0.321207 -0.21002,-0.160603 -0.420039,-0.284144 z m 2.09402,0.438571 0.494164,-0.247082 q 0.234728,0.216196 0.457101,0.481809 0.222374,0.259437 0.395332,0.531227 0.179134,0.265613 0.27179,0.494164 l -0.543581,0.27179 q -0.0803,-0.222374 -0.247082,-0.487987 -0.160603,-0.27179 -0.3768,-0.54358 -0.216196,-0.271791 -0.450924,-0.500341 z m -3.347961,-0.172958 0.525049,0.160603 q -0.111187,0.450925 -0.302676,0.877142 -0.185311,0.420039 -0.537403,0.698006 L 30.856073,46.93351 q 0.321207,-0.240905 0.518872,-0.617705 0.197666,-0.382977 0.284145,-0.79684 z m -0.228551,-3.0144 h 4.601902 v 2.304039 h -0.58682 V 43.035791 H 31.99265 v 1.82223 h -0.562111 z m 0.345914,1.562793 h 3.934781 v 0.52505 h -3.934781 z m 1.636919,-2.279331 h 0.58682 v 3.378846 h -0.58682 z m 3.712407,1.711043 h 5.577876 v 0.512695 h -5.577876 z m 0.574466,2.180498 h 4.966348 v 0.506519 h -4.966348 z m 0.716537,-1.19217 h 3.032932 v 0.469456 h -3.032932 z m -0.7536,-2.056958 h 3.557981 v 0.506518 h -3.557981 z m 1.599856,-0.642413 h 0.580643 v 1.976656 h -0.580643 z m 2.594361,0.228551 0.487987,0.277967 q -0.617705,0.747423 -1.420721,1.383659 -0.803017,0.630059 -1.711043,1.1304 -0.908027,0.500341 -1.846938,0.864787 -0.03706,-0.06795 -0.10501,-0.154426 -0.06795,-0.09266 -0.142072,-0.179134 -0.06795,-0.09266 -0.123541,-0.142072 0.951266,-0.327384 1.853115,-0.79684 0.901849,-0.475633 1.67398,-1.080984 0.772132,-0.605351 1.334243,-1.303357 z m -2.013718,3.32943 h 0.580643 v 1.562793 q 0,0.222374 -0.06795,0.339738 -0.06177,0.123541 -0.234728,0.191489 -0.179134,0.05559 -0.444747,0.06795 -0.259437,0.01853 -0.642414,0.01853 -0.02471,-0.123541 -0.09266,-0.27179 -0.06177,-0.148249 -0.123541,-0.259436 0.191488,0.0062 0.370623,0.0062 0.185311,0.0062 0.321206,0 0.142072,0 0.197666,0 0.0803,0 0.10501,-0.01853 0.03088,-0.02471 0.03088,-0.08648 z m 1.439253,-0.85861 h 0.148249 l 0.123541,-0.02471 0.364446,0.315029 q -0.234728,0.179135 -0.518872,0.364446 -0.277968,0.179135 -0.574466,0.339738 -0.296499,0.160603 -0.592997,0.284144 -0.05559,-0.07412 -0.142072,-0.16678 -0.08648,-0.09883 -0.148249,-0.154426 0.240905,-0.09883 0.500341,-0.247082 0.259436,-0.14825 0.475633,-0.302676 0.222373,-0.160603 0.364446,-0.296498 z m 5.367856,-0.636236 h 2.30404 v 0.54358 h -2.30404 z m -3.292368,-1.433076 h 2.748788 v 0.48181 h -2.748788 z m -0.06795,2.452289 h 2.829089 v 0.500341 h -2.829089 z m -0.01853,-1.056276 h 2.903213 v 0.487987 h -2.903213 z m 4.45983,0.271791 h 0.568289 v 3.403554 H 47.731774 Z M 44.45176,41.825089 h 0.568289 v 0.821548 H 44.45176 Z m 0,2.421404 h 0.568289 v 3.267659 H 44.45176 Z m 1.92724,-1.964302 0.698007,0.203843 q -0.01235,0.07412 -0.142073,0.09883 v 1.86547 q 0,0.352091 -0.03706,0.7536 -0.03088,0.395331 -0.129718,0.81537 -0.09883,0.413863 -0.296498,0.809194 -0.191489,0.389154 -0.506518,0.716538 -0.03706,-0.06795 -0.111187,-0.14825 -0.07413,-0.0803 -0.160604,-0.154426 -0.0803,-0.06795 -0.148249,-0.09883 0.284144,-0.290321 0.450925,-0.623882 0.16678,-0.33356 0.247082,-0.691829 0.08648,-0.358269 0.111187,-0.704184 0.02471,-0.352092 0.02471,-0.679476 z m 2.044604,-0.426217 0.469455,0.426217 q -0.296498,0.135895 -0.673298,0.253259 -0.370623,0.111187 -0.759777,0.203843 -0.389154,0.08648 -0.7536,0.154426 -0.01853,-0.09266 -0.07413,-0.222374 -0.05559,-0.135895 -0.111187,-0.222374 0.345915,-0.07412 0.698007,-0.16678 0.358269,-0.09883 0.673298,-0.203843 0.31503,-0.111187 0.531227,-0.222374 z m -3.446794,3.595044 q 0.06795,0.04324 0.203842,0.154426 0.142072,0.10501 0.296499,0.228551 0.160603,0.123541 0.290321,0.234728 0.135895,0.105009 0.191489,0.154426 l -0.339738,0.426216 q -0.07412,-0.08648 -0.197666,-0.216196 -0.123541,-0.129718 -0.27179,-0.265614 -0.142072,-0.142072 -0.277967,-0.259436 -0.129718,-0.123541 -0.216197,-0.197665 z m -1.27865,-2.446112 0.457102,-0.10501 q 0.09266,0.191488 0.160603,0.420039 0.06795,0.228551 0.08648,0.389155 l -0.48181,0.135895 q -0.01235,-0.172958 -0.07413,-0.407686 -0.06177,-0.234728 -0.148249,-0.432393 z m 1.568971,-0.117364 0.518872,0.111187 q -0.08648,0.222374 -0.172957,0.444747 -0.08648,0.216197 -0.160604,0.3768 l -0.469455,-0.105009 q 0.04942,-0.117364 0.09883,-0.259437 0.05559,-0.148249 0.10501,-0.296498 0.04942,-0.148249 0.0803,-0.27179 z m -0.809194,2.2608 0.413863,0.154426 q -0.148249,0.339738 -0.370623,0.679476 -0.222374,0.339738 -0.475633,0.630059 -0.253259,0.290321 -0.500341,0.487987 -0.06177,-0.09883 -0.179135,-0.222374 -0.111187,-0.123541 -0.203842,-0.197665 0.247082,-0.160604 0.494164,-0.407686 0.253259,-0.247082 0.463278,-0.537403 0.216197,-0.296498 0.358269,-0.58682 z m 6.004094,-2.192853 h 4.286872 v 0.568289 h -4.286872 z m -0.265614,1.809876 h 4.323935 v 0.562112 h -4.323935 z m -0.691829,1.995187 h 5.546991 v 0.568289 h -5.546991 z m 2.47082,-4.972525 h 0.605351 v 5.25667 h -0.605351 z m -1.408368,0.08648 0.605351,0.135895 q -0.135895,0.475633 -0.327383,0.938911 -0.185312,0.457102 -0.407686,0.852433 -0.222373,0.389154 -0.463278,0.685653 -0.06177,-0.04942 -0.160604,-0.111187 -0.09266,-0.06795 -0.191488,-0.129718 -0.09883,-0.06795 -0.179135,-0.10501 0.253259,-0.27179 0.463279,-0.630059 0.21002,-0.364446 0.3768,-0.784485 0.172958,-0.42004 0.284144,-0.852433 z"
         id="text5-9"
         style="font-weight:500;font-size:6.17705px;line-height:1.25;font-family:'Noto Sans JP';-inkscape-font-specification:'Noto Sans JP Medium';fill:#f9f9f9;stroke-width:0.220608"
         aria-label="忠孝新生" />
      <path
         d="m 100.35165,32.524376 h 1.52398 v 0.248981 h -1.52398 z M 100.234,31.703561 h 1.78117 v 1.181974 h -0.27635 v -0.935729 h -1.24216 v 0.941201 H 100.234 Z m 0.54173,-1.368025 0.29276,0.0985 q -0.0848,0.164163 -0.18879,0.336534 -0.10123,0.172371 -0.20246,0.328326 -0.10124,0.155955 -0.19426,0.276341 l -0.22983,-0.09576 q 0.0903,-0.123122 0.18605,-0.284549 0.0985,-0.164163 0.18605,-0.336534 0.0903,-0.172371 0.15048,-0.322854 z m 0.65939,0.462393 0.20247,-0.150483 q 0.13954,0.112178 0.28181,0.24898 0.14501,0.134067 0.26814,0.270869 0.12312,0.136803 0.19426,0.254453 l -0.22436,0.172371 q -0.0657,-0.114914 -0.18332,-0.254453 -0.11765,-0.142274 -0.25992,-0.281813 -0.13954,-0.142274 -0.27908,-0.259924 z m -1.513033,0.363894 q 0.202463,-0.0055 0.454183,-0.01368 0.25172,-0.0082 0.53353,-0.01915 0.28455,-0.01094 0.57731,-0.02189 0.29549,-0.01368 0.58278,-0.02736 l -0.0109,0.24898 q -0.28728,0.01642 -0.58004,0.0301 -0.29002,0.01368 -0.5691,0.02736 -0.27634,0.01095 -0.52532,0.02189 -0.24625,0.0082 -0.443241,0.01642 z m 2.736053,-0.136802 h 0.80713 v 0.259924 h -0.80713 z m 1.35434,-0.62382 h 0.27087 v 2.005525 q 0,0.109442 0.0219,0.142275 0.0246,0.0301 0.1067,0.0301 0.0192,0 0.0657,0 0.0493,0 0.10671,0 0.0574,0 0.1067,0 0.0493,0 0.0711,0 0.0602,0 0.0903,-0.04651 0.0301,-0.04925 0.0438,-0.172371 0.0137,-0.123122 0.0219,-0.344742 0.0328,0.02462 0.0766,0.04925 0.0438,0.02462 0.0903,0.04378 0.0465,0.01642 0.0821,0.02462 -0.0137,0.254453 -0.0492,0.410407 -0.0328,0.153219 -0.10945,0.22162 -0.0766,0.0684 -0.22162,0.0684 -0.0219,0 -0.0793,0 -0.0575,0 -0.12586,0 -0.0684,0 -0.12586,0 -0.0547,0 -0.0766,0 -0.14227,0 -0.22162,-0.03831 -0.0793,-0.03831 -0.11218,-0.134066 -0.0328,-0.09303 -0.0328,-0.259925 z m -0.6758,-0.0027 h 0.26813 v 2.467917 h -0.26813 z m 1.57323,0.41588 0.18878,0.229828 q -0.13133,0.0985 -0.28728,0.19426 -0.15596,0.09576 -0.32012,0.188787 -0.16143,0.09303 -0.31738,0.175107 -0.0137,-0.04378 -0.0465,-0.10397 -0.0301,-0.06019 -0.0575,-0.0985 0.15048,-0.08208 0.3037,-0.18058 0.15322,-0.101234 0.29276,-0.205203 0.13954,-0.106706 0.24351,-0.199732 z m -2.34206,1.469259 q 0.11218,-0.03557 0.25719,-0.08755 0.14501,-0.05199 0.30643,-0.112178 0.16417,-0.06019 0.32833,-0.123122 l 0.0493,0.2353 q -0.21068,0.09303 -0.42956,0.186052 -0.21615,0.09029 -0.39399,0.164162 z m 3.20665,-1.693615 h 0.25171 v 2.298282 h -0.25171 z m -0.44051,0.530794 h 1.07801 v 0.243508 h -1.07801 z m 0.45419,0.09576 0.15595,0.0684 q -0.041,0.145011 -0.0985,0.303702 -0.0575,0.155955 -0.12586,0.309174 -0.0657,0.153218 -0.14228,0.287285 -0.0766,0.134066 -0.15595,0.229828 -0.0192,-0.05472 -0.0575,-0.123122 -0.0383,-0.07114 -0.0684,-0.11765 0.0739,-0.08208 0.14501,-0.19426 0.0711,-0.114914 0.1368,-0.243508 0.0684,-0.131331 0.12039,-0.265397 0.0547,-0.134067 0.0903,-0.254453 z m 0.44597,-0.834495 0.15049,0.210676 q -0.13133,0.04925 -0.2955,0.09303 -0.16142,0.04104 -0.33379,0.07114 -0.16964,0.02736 -0.32833,0.04925 -0.005,-0.04104 -0.0274,-0.0985 -0.0219,-0.06019 -0.0438,-0.101234 0.15596,-0.02462 0.31738,-0.05746 0.16143,-0.03557 0.30644,-0.07661 0.14775,-0.04378 0.25445,-0.09029 z m -0.21614,1.009602 q 0.0246,0.02463 0.0793,0.08755 0.0547,0.06293 0.11492,0.136803 0.0629,0.07114 0.11217,0.136802 0.052,0.06293 0.0739,0.09029 l -0.15596,0.202467 q -0.0246,-0.05198 -0.0684,-0.125858 -0.0438,-0.07661 -0.0958,-0.158691 -0.052,-0.08208 -0.0985,-0.153219 -0.0465,-0.07114 -0.0793,-0.112178 z m 1.26679,-1.042435 h 0.25445 v 2.539055 h -0.25445 z m -0.91111,1.775697 1.46653,-0.243509 0.0383,0.240773 -1.46379,0.24898 z m 0.20247,-1.447371 0.1669,-0.147746 q 0.0793,0.05198 0.16416,0.120386 0.0848,0.0684 0.15869,0.136802 0.0739,0.0684 0.11765,0.128595 l -0.18058,0.164163 q -0.041,-0.05746 -0.11217,-0.128595 -0.0684,-0.07387 -0.15322,-0.14501 -0.0821,-0.07114 -0.16143,-0.128595 z m -0.10397,0.716845 0.16416,-0.150482 q 0.0848,0.05472 0.17511,0.125858 0.093,0.0684 0.17237,0.139539 0.0794,0.0684 0.12586,0.128594 l -0.17511,0.169635 q -0.0438,-0.06293 -0.12312,-0.136802 -0.0766,-0.07387 -0.1669,-0.145011 -0.0875,-0.07387 -0.17237,-0.131331 z m 2.53358,-0.629291 h 1.51851 v 0.240772 h -1.51851 z m 0.052,0.615611 h 1.19292 v 0.235301 h -1.19292 z m 0.5691,-1.028755 h 0.25718 v 1.15735 h -0.25718 z m -0.26266,1.209335 q 0.15321,0.407671 0.4706,0.700428 0.32011,0.290022 0.79071,0.410408 -0.0274,0.02462 -0.0602,0.06293 -0.0328,0.04104 -0.0602,0.08208 -0.0274,0.04378 -0.0465,0.07661 -0.49249,-0.145011 -0.81808,-0.467865 -0.32559,-0.322854 -0.50891,-0.79619 z m 0.86185,-0.18058 h 0.0465 l 0.0465,-0.01094 0.1669,0.07114 q -0.0876,0.29823 -0.2353,0.53353 -0.14502,0.232564 -0.34201,0.410408 -0.19426,0.177843 -0.42956,0.300965 -0.23256,0.125858 -0.49249,0.202468 -0.0109,-0.03557 -0.0356,-0.07935 -0.0219,-0.04104 -0.0493,-0.08482 -0.0274,-0.04378 -0.052,-0.0684 0.23803,-0.06019 0.45692,-0.166899 0.22162,-0.109442 0.4022,-0.26266 0.18331,-0.155955 0.31464,-0.355687 0.13407,-0.202468 0.20247,-0.448712 z m -2.17242,0.393991 q 0.11491,-0.02736 0.26266,-0.06293 0.15048,-0.0383 0.31464,-0.08208 0.1669,-0.04651 0.32833,-0.08755 l 0.0328,0.2353 q -0.22435,0.06567 -0.45418,0.131331 -0.22709,0.06293 -0.41588,0.114914 z m 0.0328,-0.883744 h 0.88101 v 0.240773 h -0.88101 z m 0.33927,-0.539002 h 0.25445 v 2.240825 q 0,0.101234 -0.0246,0.155955 -0.0246,0.05472 -0.0848,0.08482 -0.0602,0.0301 -0.15595,0.0383 -0.0958,0.01094 -0.23804,0.0082 -0.008,-0.04925 -0.0301,-0.117651 -0.0219,-0.06566 -0.0465,-0.11765 0.0903,0.0027 0.1669,0.0027 0.0793,0 0.10671,-0.0027 0.052,0 0.052,-0.05199 z m 2.43782,0.763358 h 2.41867 v 0.268133 h -2.41867 z m 1.36255,0.106706 q 0.0876,0.322854 0.2353,0.601931 0.15049,0.279077 0.36663,0.489753 0.21889,0.20794 0.50617,0.328326 -0.0328,0.02736 -0.0711,0.07114 -0.0356,0.04378 -0.0684,0.08755 -0.0328,0.04651 -0.0547,0.08208 -0.3037,-0.142275 -0.53079,-0.374839 -0.22436,-0.2353 -0.38031,-0.544474 -0.15596,-0.309174 -0.26266,-0.678541 z m -0.30096,-0.870064 h 0.28181 q 0,0.19426 -0.0109,0.418616 -0.008,0.22162 -0.041,0.45692 -0.0328,0.235301 -0.10671,0.470601 -0.0739,0.2353 -0.2052,0.454184 -0.13133,0.218884 -0.33654,0.407672 -0.2052,0.186051 -0.50069,0.32559 -0.0328,-0.05198 -0.0876,-0.114914 -0.0547,-0.06019 -0.10944,-0.101234 0.28455,-0.128595 0.47881,-0.29823 0.19699,-0.172371 0.31738,-0.372102 0.12312,-0.202468 0.18879,-0.418616 0.0657,-0.216148 0.093,-0.432296 0.0274,-0.216148 0.0328,-0.418616 0.005,-0.202467 0.005,-0.377575 z m 2.13959,0.927521 h 1.31604 v 0.227093 h -1.31604 z m -0.4706,0.621084 h 2.43235 v 0.238036 h -2.43235 z m 1.078,-0.191524 h 0.2654 v 0.891952 q 0,0.106706 -0.0328,0.164163 -0.0301,0.05746 -0.11765,0.08755 -0.0848,0.02736 -0.21068,0.03283 -0.12586,0.0082 -0.30917,0.0082 -0.011,-0.05472 -0.0438,-0.128595 -0.0301,-0.07114 -0.0629,-0.123122 0.0958,0.0027 0.18605,0.0055 0.093,0.0027 0.16143,0.0027 0.0684,-0.0027 0.0958,-0.0027 0.041,-0.0027 0.0547,-0.01368 0.0137,-0.01094 0.0137,-0.04104 z m 0.62656,-0.42956 h 0.0629 l 0.0575,-0.01368 0.16417,0.125858 q -0.093,0.0985 -0.21342,0.19426 -0.12038,0.09576 -0.25445,0.177843 -0.13133,0.08208 -0.26266,0.145011 -0.0246,-0.03557 -0.0684,-0.07935 -0.041,-0.04651 -0.0739,-0.07387 0.11217,-0.05198 0.22435,-0.125858 0.11492,-0.07387 0.21068,-0.150483 0.0958,-0.07935 0.15322,-0.150483 z m -1.66079,-0.481544 h 2.34754 v 0.637499 h -0.25446 v -0.407671 h -1.84683 v 0.407671 h -0.24625 z m 1.92892,-0.42956 0.27634,0.08755 q -0.0903,0.131331 -0.19152,0.259925 -0.10124,0.128594 -0.18605,0.218884 l -0.20794,-0.08208 q 0.0547,-0.06567 0.11217,-0.150483 0.0575,-0.08482 0.10945,-0.172371 0.0547,-0.08755 0.0876,-0.161427 z m -1.74286,0.112178 0.21888,-0.0985 q 0.0766,0.08208 0.15048,0.186051 0.0739,0.10397 0.10671,0.183316 l -0.22983,0.112178 q -0.0328,-0.07935 -0.10397,-0.186052 -0.0711,-0.106706 -0.14227,-0.196995 z m 0.69769,-0.05746 0.22709,-0.08482 q 0.0657,0.09303 0.1286,0.210676 0.0657,0.114914 0.0903,0.199732 l -0.24078,0.09576 q -0.0219,-0.08755 -0.0821,-0.205203 -0.0575,-0.120386 -0.12312,-0.216148 z"
         id="text5-9-1"
         style="font-weight:500;font-size:2.73605px;line-height:1.25;font-family:'Noto Sans JP';-inkscape-font-specification:'Noto Sans JP Medium';fill:#f9f9f9;stroke-width:0.0977165"
         aria-label="台北科技大学" />
      <path
         style="font-weight:500;font-size:2.73605px;line-height:1.25;font-family:'Noto Sans kr';-inkscape-font-specification:'Noto Sans kr Medium';fill:#f9f9f9;stroke-width:0.0977165"
         d="m 119.36167,32.136651 h 0.19973 q 0.22162,0 0.41041,-0.0055 0.18879,-0.0055 0.3639,-0.01915 0.17784,-0.01642 0.36389,-0.04651 l 0.0274,0.229828 q -0.18879,0.0301 -0.3721,0.04925 -0.18058,0.01642 -0.37484,0.02189 -0.19152,0.0027 -0.41862,0.0027 h -0.19973 z m 0,-1.463787 h 1.1683 v 0.2353 h -0.88375 v 1.307832 h -0.28455 z m 0.21615,0.700429 h 0.90563 v 0.227092 h -0.90563 z m 1.32972,-0.916577 h 0.28729 v 2.50075 h -0.28729 z m 0.22436,0.979506 h 0.45144 v 0.238036 h -0.45144 z m 2.41319,-0.982242 h 0.28729 v 2.506222 h -0.28729 z m -1.04243,0.183315 q 0.18605,0 0.33106,0.109442 0.14775,0.109442 0.22983,0.306438 0.0821,0.196995 0.0821,0.465128 0,0.270869 -0.0821,0.470601 -0.0821,0.196995 -0.22983,0.306437 -0.14501,0.106706 -0.33106,0.106706 -0.18605,0 -0.3338,-0.106706 -0.14501,-0.109442 -0.22983,-0.306437 -0.0821,-0.199732 -0.0821,-0.470601 0,-0.268133 0.0821,-0.465128 0.0848,-0.196996 0.22983,-0.306438 0.14775,-0.109442 0.3338,-0.109442 z m 0,0.259925 q -0.10944,0 -0.19426,0.07387 -0.0821,0.07387 -0.1286,0.213412 -0.0465,0.139539 -0.0465,0.333798 0,0.196996 0.0465,0.336534 0.0465,0.139539 0.1286,0.216148 0.0848,0.07387 0.19426,0.07387 0.10944,0 0.19152,-0.07387 0.0821,-0.07661 0.1286,-0.216148 0.0465,-0.139538 0.0465,-0.336534 0,-0.194259 -0.0465,-0.333798 -0.0465,-0.139538 -0.1286,-0.213412 -0.0821,-0.07387 -0.19152,-0.07387 z m 1.87146,-0.202468 h 0.27086 v 0.590987 h 0.43504 v -0.590987 h 0.26539 v 1.649838 h -0.97129 z m 0.27086,0.820815 v 0.596459 h 0.43504 v -0.596459 z m 1.50757,-1.061587 h 0.2736 v 2.500749 h -0.2736 z m -0.85365,0.935729 h 0.45145 v 0.232564 h -0.45145 z m 0.35295,-0.88648 h 0.26813 v 2.33385 h -0.26813 z m 2.92757,-0.04925 h 0.28729 v 2.506222 h -0.28729 z m -1.04243,0.183315 q 0.18605,0 0.33106,0.109442 0.14775,0.109442 0.22983,0.306438 0.0821,0.196995 0.0821,0.465128 0,0.270869 -0.0821,0.470601 -0.0821,0.196995 -0.22983,0.306437 -0.14501,0.106706 -0.33106,0.106706 -0.18605,0 -0.3338,-0.106706 -0.14501,-0.109442 -0.22983,-0.306437 -0.0821,-0.199732 -0.0821,-0.470601 0,-0.268133 0.0821,-0.465128 0.0848,-0.196996 0.22983,-0.306438 0.14775,-0.109442 0.3338,-0.109442 z m 0,0.259925 q -0.10944,0 -0.19426,0.07387 -0.0821,0.07387 -0.12859,0.213412 -0.0465,0.139539 -0.0465,0.333798 0,0.196996 0.0465,0.336534 0.0465,0.139539 0.12859,0.216148 0.0848,0.07387 0.19426,0.07387 0.10944,0 0.19152,-0.07387 0.0821,-0.07661 0.1286,-0.216148 0.0465,-0.139538 0.0465,-0.336534 0,-0.194259 -0.0465,-0.333798 -0.0465,-0.139538 -0.1286,-0.213412 -0.0821,-0.07387 -0.19152,-0.07387 z m 1.89882,-0.180579 h 1.10536 v 0.232564 h -1.10536 z m 0.35842,0.716845 h 0.28181 v 0.848175 h -0.28181 z m 0.63203,-0.716845 h 0.28181 v 0.166899 q 0,0.164163 -0.008,0.404935 -0.008,0.240772 -0.0629,0.571835 l -0.28181,-0.02462 q 0.052,-0.320118 0.0602,-0.552682 0.011,-0.2353 0.011,-0.399463 z m 0.55268,-0.262661 h 0.28455 v 2.500749 h -0.28455 z m 0.20247,1.028755 h 0.45418 v 0.238036 h -0.45418 z m -1.84957,0.946673 -0.0301,-0.238036 q 0.22436,0 0.48702,-0.0027 0.26266,-0.0055 0.53353,-0.01915 0.27087,-0.01642 0.51985,-0.04651 l 0.0164,0.210676 q -0.25718,0.04104 -0.52805,0.06293 -0.26814,0.01915 -0.52259,0.02463 -0.25445,0.0055 -0.47607,0.0082 z m 2.51443,-1.729184 h 1.47473 v 0.227093 h -1.47473 z m 0.73873,0.333798 q 0.17785,0 0.31465,0.05746 0.1368,0.05746 0.21341,0.161427 0.0766,0.101234 0.0766,0.238037 0,0.136802 -0.0766,0.240772 -0.0766,0.101234 -0.21341,0.158691 -0.1368,0.05472 -0.31465,0.05472 -0.18058,0 -0.31738,-0.05472 -0.1368,-0.05746 -0.21341,-0.158691 -0.0766,-0.10397 -0.0766,-0.240772 0,-0.136803 0.0766,-0.238037 0.0766,-0.103969 0.21341,-0.161427 0.1368,-0.05746 0.31738,-0.05746 z m 0,0.22162 q -0.15048,0 -0.24351,0.06293 -0.0903,0.06019 -0.0903,0.172371 0,0.109442 0.0903,0.172371 0.093,0.06293 0.24351,0.06293 0.14775,0 0.23804,-0.06293 0.0903,-0.06293 0.0903,-0.172371 0,-0.112178 -0.0903,-0.172371 -0.0903,-0.06293 -0.23804,-0.06293 z m 0.92479,-0.798926 h 0.28455 v 1.56502 h -0.28455 z m 0.20794,0.667596 h 0.42956 v 0.238036 h -0.42956 z m -1.56502,1.017811 h 1.64163 v 0.815343 h -0.28455 v -0.585515 h -1.35708 z m 0.28728,-1.699087 h 0.28729 v 0.385783 h -0.28729 z m 3.69914,0.01094 h 0.28729 v 2.500749 h -0.28729 z m -0.736,0.265397 h 0.28455 q 0,0.279077 -0.0602,0.533529 -0.0602,0.254453 -0.197,0.484281 -0.13406,0.227092 -0.35568,0.421352 -0.21889,0.194259 -0.54174,0.350214 l -0.15322,-0.227092 q 0.3639,-0.175107 0.58825,-0.399463 0.22436,-0.224356 0.32833,-0.500697 0.1067,-0.279077 0.1067,-0.612875 z m -0.90016,0 h 1.02876 v 0.229828 h -1.02876 z m 3.35714,-0.251717 h 0.24351 v 0.07114 q 0,0.128595 -0.0493,0.240773 -0.0493,0.109442 -0.14228,0.202468 -0.0903,0.09303 -0.21615,0.164162 -0.12585,0.07114 -0.27907,0.120387 -0.15322,0.04651 -0.32559,0.06566 l -0.0958,-0.216148 q 0.15049,-0.01642 0.28182,-0.05198 0.13133,-0.03831 0.23803,-0.09303 0.10945,-0.05472 0.18606,-0.123122 0.0766,-0.0684 0.11765,-0.145011 0.041,-0.07935 0.041,-0.164163 z m 0.052,0 h 0.24077 v 0.07114 q 0,0.08482 0.041,0.164163 0.041,0.07661 0.11765,0.145011 0.0793,0.0684 0.18606,0.123122 0.1067,0.05472 0.23803,0.09303 0.13407,0.03557 0.28455,0.05198 l -0.0985,0.216148 q -0.17237,-0.01915 -0.32559,-0.06566 -0.15048,-0.04925 -0.27907,-0.120387 -0.12586,-0.07114 -0.21615,-0.164162 -0.0903,-0.09303 -0.13954,-0.202468 -0.0493,-0.112178 -0.0493,-0.240773 z m -0.0493,1.176502 h 0.28455 v 0.36663 h -0.28455 z m -0.98498,-0.175108 h 2.25998 v 0.229829 h -2.25998 z m 0.2654,0.437768 h 1.71003 v 0.604667 h -1.42274 v 0.262661 h -0.28182 v -0.465128 h 1.42275 V 32.12297 h -1.42822 z m 0.005,0.807135 h 1.7757 v 0.218884 h -1.7757 z m 4.10408,-2.259977 h 0.2736 v 2.500749 h -0.2736 z m -0.38305,0.984978 h 0.45419 v 0.2353 h -0.45419 z m -0.18058,-0.932993 h 0.26814 v 2.325642 h -0.26814 z m -1.21207,1.619741 h 0.1669 q 0.17237,0 0.31738,-0.0055 0.14501,-0.0055 0.28182,-0.01915 0.13953,-0.01642 0.28455,-0.04378 l 0.0274,0.2353 q -0.15049,0.0301 -0.29276,0.04651 -0.14228,0.01368 -0.29276,0.01915 -0.14775,0.0055 -0.32559,0.0055 h -0.1669 z m 0,-1.373497 h 0.92479 v 0.232565 h -0.64297 v 1.250374 h -0.28182 z m 2.43782,-0.05199 h 1.47473 v 0.227093 h -1.47473 z m 0.73874,0.333798 q 0.17784,0 0.31464,0.05746 0.1368,0.05746 0.21341,0.161427 0.0766,0.101234 0.0766,0.238037 0,0.136802 -0.0766,0.240772 -0.0766,0.101234 -0.21341,0.158691 -0.1368,0.05472 -0.31464,0.05472 -0.18058,0 -0.31739,-0.05472 -0.1368,-0.05746 -0.21341,-0.158691 -0.0766,-0.10397 -0.0766,-0.240772 0,-0.136803 0.0766,-0.238037 0.0766,-0.103969 0.21341,-0.161427 0.13681,-0.05746 0.31739,-0.05746 z m 0,0.22162 q -0.15049,0 -0.24351,0.06293 -0.0903,0.06019 -0.0903,0.172371 0,0.109442 0.0903,0.172371 0.093,0.06293 0.24351,0.06293 0.14774,0 0.23803,-0.06293 0.0903,-0.06293 0.0903,-0.172371 0,-0.112178 -0.0903,-0.172371 -0.0903,-0.06293 -0.23803,-0.06293 z m 0.92478,-0.798926 h 0.28455 v 1.56502 h -0.28455 z m 0.20794,0.667596 h 0.42956 v 0.238036 h -0.42956 z m -1.56502,1.017811 h 1.64163 v 0.815343 h -0.28455 v -0.585515 h -1.35708 z m 0.28729,-1.699087 h 0.28728 v 0.385783 h -0.28728 z m 2.1478,0.246244 h 1.59785 v 0.232564 h -1.59785 z m -0.2271,1.704559 h 2.25998 v 0.235301 h -2.25998 z m 0.51985,-0.809871 h 0.28182 v 0.889217 h -0.28182 z m 1.21754,-0.894688 h 0.28455 v 0.259925 q 0,0.155955 -0.003,0.32559 -0.003,0.169635 -0.0219,0.366631 -0.0164,0.196995 -0.0602,0.440504 l -0.28455,-0.0301 q 0.0629,-0.344742 0.0739,-0.607403 0.0109,-0.265397 0.0109,-0.495225 z m -0.59919,0.894688 h 0.28181 v 0.889217 h -0.28181 z"
         id="text5-9-1-0"
         aria-label="타이베이과학기술대학교" />
      <path
         style="font-weight:500;font-size:6.17705px;line-height:1.25;font-family:'Noto Sans KR';-inkscape-font-specification:'Noto Sans KR Medium';fill:#f9f9f9;stroke-width:0.220608"
         d="m 62.95606,44.764486 h 0.64859 v 0.994506 H 62.95606 Z M 60.732322,44.54829 h 5.102243 v 0.518872 h -5.102243 z m 2.538767,1.019213 q 0.914204,0 1.426899,0.265613 0.518872,0.259436 0.518872,0.741246 0,0.48181 -0.518872,0.741246 -0.512695,0.259436 -1.426899,0.259436 -0.908026,0 -1.426898,-0.259436 -0.512695,-0.259436 -0.512695,-0.741246 0,-0.48181 0.512695,-0.741246 0.518872,-0.265613 1.426898,-0.265613 z m 0,0.500341 q -0.407685,0 -0.698006,0.06177 -0.290322,0.05559 -0.444748,0.16678 -0.148249,0.111187 -0.148249,0.277967 0,0.166781 0.148249,0.284144 0.154426,0.111187 0.444748,0.166781 0.290321,0.05559 0.698006,0.05559 0.42004,0 0.704184,-0.05559 0.290321,-0.05559 0.438571,-0.166781 0.148249,-0.117363 0.148249,-0.284144 0,-0.16678 -0.148249,-0.277967 -0.14825,-0.111187 -0.438571,-0.16678 -0.284144,-0.06177 -0.704184,-0.06177 z M 62.85105,42.435739 h 0.574465 v 0.154426 q 0,0.265613 -0.105009,0.500341 -0.10501,0.228551 -0.302676,0.426216 -0.197665,0.191489 -0.469456,0.345915 -0.27179,0.154426 -0.611528,0.253259 -0.33356,0.09883 -0.722714,0.142072 L 60.985581,43.75145 q 0.33356,-0.03088 0.617705,-0.10501 0.290321,-0.0803 0.518872,-0.191488 0.228551,-0.111187 0.389154,-0.247082 0.160603,-0.142072 0.247082,-0.296499 0.09266,-0.160603 0.09266,-0.321206 z m 0.290321,0 h 0.574466 v 0.154426 q 0,0.16678 0.08648,0.327383 0.08648,0.154427 0.247082,0.290322 0.160603,0.135895 0.389154,0.247082 0.234728,0.111187 0.518872,0.191488 0.290321,0.07413 0.623882,0.10501 l -0.228551,0.506518 q -0.389154,-0.04324 -0.728892,-0.142072 -0.33356,-0.09883 -0.611528,-0.247082 -0.27179,-0.154426 -0.469456,-0.345915 -0.191488,-0.197665 -0.296498,-0.432393 -0.10501,-0.240905 -0.10501,-0.500341 z M 61.1956,42.188657 h 4.175686 v 0.512695 H 61.1956 Z m 9.420002,1.124223 h 1.019214 v 0.537403 h -1.019214 z m 0,1.661626 h 1.019214 V 45.51191 H 70.615602 Z M 67.749451,42.404853 H 68.2745 v 0.926558 q 0,0.487987 -0.10501,0.96362 -0.105009,0.469455 -0.308852,0.883318 -0.197666,0.407685 -0.48181,0.728892 -0.284144,0.321206 -0.642413,0.512695 l -0.42004,-0.518872 q 0.327384,-0.160604 0.592997,-0.432394 0.265613,-0.277967 0.450925,-0.623882 0.191488,-0.352092 0.290321,-0.735069 0.09883,-0.389154 0.09883,-0.778308 z m 0.117364,0 h 0.525049 v 0.926558 q 0,0.382977 0.09266,0.759777 0.09266,0.370623 0.27179,0.698007 0.185312,0.327383 0.438571,0.586819 0.253259,0.253259 0.568288,0.401509 l -0.389154,0.518872 q -0.358269,-0.179135 -0.636236,-0.48181 -0.277967,-0.308853 -0.475633,-0.698007 -0.191488,-0.389154 -0.296498,-0.846256 -0.09883,-0.457101 -0.09883,-0.938911 z m 2.273154,-0.463278 h 0.648591 v 5.645823 h -0.648591 z m 4.181864,3.18118 h 0.64859 v 1.352774 h -0.64859 z m 0.327384,-2.84762 q 0.599173,0 1.062452,0.185312 0.469456,0.185311 0.741246,0.525049 0.27179,0.339738 0.27179,0.79684 0,0.463278 -0.27179,0.803016 -0.27179,0.339738 -0.741246,0.531226 -0.463279,0.185312 -1.062452,0.185312 -0.599174,0 -1.06863,-0.185312 -0.469456,-0.191488 -0.741246,-0.531226 -0.27179,-0.339738 -0.27179,-0.803016 0,-0.457102 0.27179,-0.79684 0.27179,-0.339738 0.741246,-0.525049 0.469456,-0.185312 1.06863,-0.185312 z m 0,0.512695 q -0.426217,0 -0.753601,0.123541 -0.321206,0.117364 -0.506518,0.339738 -0.185311,0.222374 -0.185311,0.531227 0,0.308852 0.185311,0.537403 0.185312,0.222374 0.506518,0.345915 0.327384,0.117364 0.753601,0.117364 0.420039,0 0.747423,-0.117364 0.327383,-0.123541 0.512695,-0.345915 0.185311,-0.228551 0.185311,-0.537403 0,-0.308853 -0.185311,-0.531227 Q 75.724023,43.028735 75.39664,42.911371 75.069256,42.78783 74.649217,42.78783 Z m -2.551122,3.570335 h 5.114597 v 0.531227 h -5.114597 z m 11.415193,-4.41659 h 0.648591 v 4.126269 h -0.648591 z m -3.032931,5.00341 h 3.842125 v 0.525049 h -3.842125 z m 0,-1.260118 h 0.642413 v 1.519554 h -0.642413 z m 0.432393,-3.43444 h 0.537404 v 0.562112 q 0,0.555934 -0.185312,1.050098 -0.185311,0.487987 -0.537403,0.85861 -0.352092,0.370623 -0.85861,0.562112 l -0.333561,-0.512695 q 0.444748,-0.166781 0.7536,-0.469456 0.308853,-0.308853 0.463279,-0.69183 0.160603,-0.389154 0.160603,-0.796839 z m 0.129718,0 h 0.52505 v 0.562112 q 0,0.302675 0.08648,0.586819 0.09266,0.277968 0.265613,0.52505 0.179135,0.247082 0.432394,0.43857 0.253259,0.191489 0.580643,0.302676 l -0.333561,0.518872 Q 82.104921,44.999214 81.752829,44.6533 81.400737,44.301208 81.221603,43.831752 81.042468,43.356119 81.042468,42.812539 Z m 5.522283,-0.0062 h 0.537404 v 0.549757 q 0,0.555935 -0.185312,1.037745 -0.185311,0.475633 -0.54358,0.833902 -0.352092,0.352092 -0.864787,0.54358 l -0.339738,-0.525049 q 0.457102,-0.154426 0.765954,-0.438571 0.308853,-0.290321 0.469456,-0.667121 0.160603,-0.3768 0.160603,-0.784486 z m 0.129718,0 h 0.52505 v 0.518872 q 0,0.389154 0.148249,0.741246 0.154426,0.352092 0.450924,0.617705 0.296499,0.265613 0.722715,0.407686 l -0.339738,0.506518 Q 87.71986,44.863319 87.380122,44.529759 87.040384,44.196198 86.867427,43.745273 86.694469,43.294349 86.694469,42.763122 Z m 2.526414,-0.302675 h 0.64859 v 3.323253 h -0.64859 z m -1.229233,3.477679 q 0.883318,0 1.389836,0.284144 0.512695,0.284144 0.512695,0.79684 0,0.512695 -0.512695,0.790662 -0.506518,0.284144 -1.389836,0.284144 -0.883318,0 -1.396014,-0.284144 -0.512695,-0.277967 -0.512695,-0.790662 0,-0.512696 0.512695,-0.79684 0.512696,-0.284144 1.396014,-0.284144 z m 0,0.506518 q -0.401508,0 -0.685653,0.06795 -0.277967,0.06177 -0.426216,0.191489 -0.148249,0.129718 -0.148249,0.31503 0,0.179134 0.148249,0.308852 0.148249,0.129718 0.426216,0.197666 0.284145,0.06795 0.685653,0.06795 0.401508,0 0.679475,-0.06795 0.277968,-0.06795 0.426217,-0.197666 0.154426,-0.129718 0.154426,-0.308852 0,-0.185312 -0.154426,-0.31503 -0.148249,-0.129718 -0.426217,-0.191489 -0.277967,-0.06795 -0.679475,-0.06795 z m 0.09266,-2.866151 h 1.253941 v 0.531226 h -1.253941 z"
         id="text5-9-8"
         aria-label="중샤오 신성" />
      <path
         id="rect2"
         style="fill:#ffffff;stroke-width:0.638956"
         d="m 96.133026,18.765247 h 0.885327 v 14.133965 h -0.885327 z" />
    </g>
  </g>
</svg>
