<?xml version="1.0" encoding="UTF-8" standalone="no"?>
<!-- Created with Inkscape (http://www.inkscape.org/) -->

<svg
   width="500"
   height="250"
   viewBox="0 0 132.29166 66.145833"
   version="1.1"
   id="svg1"
   inkscape:version="1.4.2 (f4327f4, 2025-05-13)"
   sodipodi:docname="bl14.svg"
   xmlns:inkscape="http://www.inkscape.org/namespaces/inkscape"
   xmlns:sodipodi="http://sodipodi.sourceforge.net/DTD/sodipodi-0.dtd"
   xmlns="http://www.w3.org/2000/svg"
   xmlns:svg="http://www.w3.org/2000/svg">
  <sodipodi:namedview
     id="namedview1"
     pagecolor="#9e652e"
     bordercolor="#ffffff"
     borderopacity="1"
     inkscape:showpageshadow="0"
     inkscape:pageopacity="0"
     inkscape:pagecheckerboard="false"
     inkscape:deskcolor="#d1d1d1"
     inkscape:document-units="mm"
     inkscape:zoom="1.4289282"
     inkscape:cx="247.38822"
     inkscape:cy="22.044495"
     inkscape:window-width="1920"
     inkscape:window-height="1094"
     inkscape:window-x="-11"
     inkscape:window-y="-11"
     inkscape:window-maximized="1"
     inkscape:current-layer="layer1" />
  <defs
     id="defs1">
    <rect
       x="560.66638"
       y="34.144731"
       width="279.32397"
       height="128.59143"
       id="rect6" />
    <rect
       x="157.85752"
       y="62.351248"
       width="329.07603"
       height="135.09437"
       id="rect4" />
    <rect
       x="157.85751"
       y="62.35125"
       width="329.07602"
       height="135.09438"
       id="rect4-5" />
  </defs>
  <g
     inkscape:label="Layer 1"
     inkscape:groupmode="layer"
     id="layer1">
    <rect
       style="fill:#005fb9;fill-opacity:1;stroke:none;stroke-width:0.953294;stroke-dasharray:none"
       id="rect5"
       width="132.29167"
       height="66.145836"
       x="-2.5431316e-06"
       y="-1.2715658e-06"
       ry="0" />
    <text
       xml:space="preserve"
       transform="matrix(0.31615295,0,0,0.31615295,-10.474341,-6.4462013)"
       id="text6"
       style="font-size:55px;line-height:1.25;font-family:'Microsoft JhengHei';-inkscape-font-specification:'Microsoft JhengHei';white-space:pre;shape-inside:url(#rect6);display:inline" />
    <g
       id="g1">
      <path
         id="rect1"
         style="fill-opacity:0;stroke:#f9f9f9;stroke-width:0.600902"
         d="m 7.2337829,21.141338 h 7.9193801 c 2.502978,0 4.518009,2.015032 4.518009,4.518009 v 14.827139 c 0,2.502977 -2.015031,4.518009 -4.518009,4.518009 H 7.2337829 c -2.5029767,0 -4.5180085,-2.015032 -4.5180085,-4.518009 V 25.659347 c 0,-2.502977 2.0150318,-4.518009 4.5180085,-4.518009 z" />
      <path
         style="font-size:10.5892px;line-height:1.25;font-family:'AR UDJingXiHeiE1G30 EB';-inkscape-font-specification:'AR UDJingXiHeiE1G30 EB';fill:#f9f9f9;stroke-width:0.166777"
         d="M 8.8999305,31.447217 H 5.8579054 v -5.787853 h 2.7858549 q 0.8245485,0 1.3048682,0.400266 0.4803195,0.400267 0.4803195,1.064709 0,0.432288 -0.192127,0.760506 -0.184123,0.320213 -0.5603731,0.528352 0.4883251,0.192128 0.7364901,0.528352 0.25617,0.336224 0.25617,0.800533 0,0.768512 -0.504335,1.240826 -0.5043362,0.464309 -1.2648425,0.464309 z m 0.4723146,-4.194792 q 0,-0.392262 -0.2241495,-0.592395 Q 8.9239468,26.451892 8.499664,26.451892 H 6.8745825 v 1.633086 h 1.6811193 q 0.3602398,0 0.5843886,-0.208138 0.2321547,-0.216144 0.2321547,-0.624415 z m 0.2401599,2.481652 q 0,-0.416278 -0.2561702,-0.632421 -0.2481659,-0.22415 -0.6564375,-0.22415 H 6.8745825 v 1.777184 h 1.8092044 q 0.424282,0 0.6724479,-0.232155 Q 9.612405,30.19038 9.612405,29.734077 Z m 6.140093,1.71314 h -4.066707 v -5.787853 h 1.016676 v 4.995326 h 3.050031 z"
         id="text2"
         aria-label="BL" />
      <path
         style="font-size:12.1335px;line-height:1.25;font-family:'AR UDJingXiHeiE1G30 EB';-inkscape-font-specification:'AR UDJingXiHeiE1G30 EB';fill:#f9f9f9;stroke-width:0.166777"
         d="m 8.0655443,35.310861 -1.0732186,0.999836 -0.5320225,-0.81638 1.7244872,-1.568549 h 0.9998361 v 6.631938 H 8.0655443 Z m 6.3200567,3.815887 h -2.871089 v -0.807207 l 2.816052,-4.393773 h 1.183292 v 4.2837 h 0.871416 v 0.91728 h -0.871416 v 1.430958 h -1.128255 z m -1.706142,-0.91728 h 1.706142 v -2.696805 z"
         id="text3"
         aria-label="14" />
      <path
         style="font-weight:500;font-size:72px;line-height:1.25;font-family:'Noto Sans TC';-inkscape-font-specification:'Noto Sans TC Medium';white-space:pre;fill:#f9f9f9;stroke-width:0.166778"
         d="m 25.458206,28.750029 h 1.176787 v 2.485661 q 0,0.264176 0.132088,0.348233 0.144097,0.08406 0.636426,0.08406 0.108072,0 0.384256,0 0.288193,0 0.624418,0 0.336224,0 0.624417,0 0.300201,0 0.444297,0 0.288193,0 0.432289,-0.108073 0.144096,-0.108072 0.204136,-0.432288 0.06004,-0.324217 0.08406,-0.984659 0.132088,0.09606 0.324216,0.192129 0.192129,0.08406 0.396265,0.156104 0.204136,0.06004 0.360241,0.108072 -0.07205,0.85257 -0.240161,1.320883 -0.168112,0.456305 -0.516345,0.636426 -0.348233,0.18012 -0.948634,0.18012 -0.09606,0 -0.336225,0 -0.228152,0 -0.528353,0 -0.288192,0 -0.588393,0 -0.288192,0 -0.528353,0 -0.228152,0 -0.312209,0 -0.720481,0 -1.116746,-0.132088 -0.396265,-0.132089 -0.552369,-0.456305 -0.156105,-0.324217 -0.156105,-0.900602 z m 1.573052,0 0.876586,-0.624418 q 0.312208,0.240161 0.660441,0.540361 0.348233,0.300201 0.660441,0.600402 0.312209,0.288192 0.504338,0.528353 l -0.91261,0.696465 q -0.180121,-0.24016 -0.492329,-0.540361 -0.300201,-0.312209 -0.636426,-0.624417 -0.336225,-0.324217 -0.660441,-0.576385 z m 3.746504,0.396264 0.984658,-0.480321 q 0.312208,0.408273 0.660441,0.91261 0.360241,0.504337 0.660442,0.984658 0.312208,0.480321 0.504337,0.85257 l -1.044699,0.576385 q -0.168112,-0.372248 -0.468313,-0.864577 -0.3002,-0.492329 -0.648433,-1.008675 -0.336225,-0.528353 -0.648433,-0.97265 z m -6.964655,-0.408272 1.008674,0.408272 q -0.156104,0.468313 -0.360241,1.020683 -0.204136,0.540361 -0.432289,1.068714 -0.216144,0.528353 -0.468313,0.936626 l -1.068714,-0.480321 q 0.264177,-0.396265 0.516345,-0.900602 0.252169,-0.504337 0.456305,-1.03269 0.216145,-0.540361 0.348233,-1.020682 z m 3.674456,-6.8806 h 1.140762 v 6.472327 h -1.140762 z m -2.785862,2.413613 v 1.957309 h 6.760518 v -1.957309 z m -1.09273,-1.020682 h 8.994011 v 3.986665 h -8.994011 z m 11.047383,1.933292 h 10.843247 v 0.996667 H 34.656354 Z m 1.020682,4.238834 h 9.654452 v 0.984658 h -9.654452 z m 2.281525,-2.317549 h 5.103411 v 0.91261 h -5.103411 z m -2.257509,-3.998673 h 6.724494 v 0.984658 h -6.724494 z m 3.050039,-1.248835 h 1.116746 v 3.842568 h -1.116746 z m 5.10341,0.444297 0.948634,0.540361 q -1.200802,1.452971 -2.761845,2.689798 -1.561044,1.224819 -3.326224,2.197469 -1.765179,0.97265 -3.590399,1.681124 -0.07205,-0.132088 -0.204137,-0.300201 -0.132088,-0.18012 -0.276184,-0.348232 -0.132088,-0.180121 -0.240161,-0.276185 1.849236,-0.636425 3.602408,-1.549035 1.753172,-0.924619 3.254175,-2.101405 1.501003,-1.176787 2.593733,-2.533694 z m -3.938632,6.580399 h 1.116746 v 2.929958 q 0,0.420281 -0.12008,0.648433 -0.12008,0.240161 -0.468313,0.360241 -0.336225,0.12008 -0.85257,0.144096 -0.516345,0.02402 -1.248834,0.02402 -0.04803,-0.228152 -0.180121,-0.516345 -0.12008,-0.288192 -0.24016,-0.504337 0.372249,0.01201 0.720481,0.02402 0.360241,0 0.624418,0 0.276184,-0.01201 0.384256,-0.01201 0.156105,0 0.204137,-0.03602 0.06004,-0.04803 0.06004,-0.168112 z m 2.821886,-1.777188 h 0.288193 l 0.252168,-0.04803 0.696466,0.624417 q -0.480321,0.336225 -1.068715,0.684458 -0.576385,0.336224 -1.200802,0.636425 -0.612409,0.288193 -1.224819,0.516345 -0.09606,-0.144096 -0.276184,-0.336225 -0.168113,-0.192128 -0.288193,-0.3002 0.516345,-0.180121 1.056706,-0.444297 0.540361,-0.276185 1.008674,-0.564377 0.468313,-0.300201 0.756506,-0.552369 z m 10.51903,-1.236827 h 4.382929 v 1.056707 H 53.256785 Z M 46.772452,23.08224 h 5.343571 v 0.936626 h -5.343571 z m -0.132089,4.767187 h 5.499676 v 0.97265 h -5.499676 z m -0.06004,-2.053373 h 5.727828 v 0.948634 h -5.727828 z m 8.717827,0.528353 h 1.104738 v 6.616422 H 55.29815 Z m -7.817225,-2.053373 0.924618,-0.216144 q 0.156104,0.348233 0.276185,0.768514 0.132088,0.42028 0.18012,0.720481 l -0.960642,0.264177 q -0.03602,-0.312209 -0.156104,-0.744498 -0.108073,-0.432289 -0.264177,-0.79253 z m 2.989998,-0.24016 1.044699,0.216144 q -0.192129,0.504337 -0.396265,1.020683 -0.204137,0.516345 -0.384257,0.876586 L 49.810482,25.94015 q 0.12008,-0.264177 0.24016,-0.600401 0.120081,-0.336225 0.228153,-0.684458 0.12008,-0.348233 0.192128,-0.624417 z m 6.064053,-2.00534 0.888594,0.840561 q -0.588393,0.228153 -1.320883,0.420281 -0.720481,0.180121 -1.476987,0.324217 -0.744497,0.144096 -1.464979,0.252169 -0.03602,-0.180121 -0.144096,-0.432289 -0.09606,-0.252169 -0.204137,-0.420281 0.684458,-0.120081 1.368915,-0.276185 0.684458,-0.156104 1.296867,-0.336225 0.624417,-0.192128 1.056706,-0.372248 z m -7.985337,0.02402 1.128755,-0.288193 q 0.204136,0.372249 0.396264,0.828554 0.204137,0.444297 0.300201,0.768513 l -1.176786,0.336225 q -0.08406,-0.336225 -0.276185,-0.792529 -0.18012,-0.468313 -0.372249,-0.85257 z m 4.262849,0.960642 h 1.068715 v 4.214817 q 0,0.660442 -0.04803,1.416947 -0.03602,0.756506 -0.168112,1.52502 -0.132088,0.768513 -0.372249,1.488995 -0.24016,0.720481 -0.648433,1.296866 -0.08406,-0.108072 -0.252169,-0.24016 -0.156104,-0.132088 -0.336224,-0.252169 -0.168113,-0.12008 -0.288193,-0.18012 0.480321,-0.708474 0.708474,-1.585059 0.228152,-0.876586 0.276184,-1.777188 0.06004,-0.900602 0.06004,-1.693132 z m -2.305541,6.640438 0.756506,-0.408272 q 0.300201,0.432288 0.576385,0.948634 0.276185,0.504337 0.420281,0.876585 l -0.780522,0.468313 q -0.144096,-0.372248 -0.432288,-0.91261 -0.276185,-0.540361 -0.540362,-0.97265 z m -2.881926,-0.3002 0.888594,0.252168 q -0.216144,0.648434 -0.564377,1.320883 -0.336225,0.660442 -0.672449,1.128755 -0.132089,-0.120081 -0.372249,-0.276185 -0.228153,-0.168112 -0.396265,-0.252169 0.336225,-0.432289 0.624417,-1.008674 0.300201,-0.588393 0.492329,-1.164778 z m 1.356907,-3.038031 h 1.104739 v 6.62843 h -1.104739 z m 11.599753,-2.185461 h 8.333569 v 1.104738 h -8.333569 z m -0.516345,3.518352 h 8.405617 v 1.092731 h -8.405617 z m -1.344899,3.878592 h 10.783207 v 1.104739 H 58.720437 Z m 4.80321,-9.666461 h 1.176786 v 10.218831 h -1.176786 z m -2.73783,0.168113 1.176787,0.264176 q -0.264177,0.924618 -0.636426,1.82522 -0.360241,0.888594 -0.792529,1.657108 -0.432289,0.756506 -0.900602,1.332891 -0.120081,-0.09606 -0.312209,-0.216144 -0.18012,-0.132089 -0.372249,-0.252169 -0.192128,-0.132088 -0.348233,-0.204136 0.49233,-0.528354 0.900602,-1.22482 0.408273,-0.708473 0.73249,-1.525019 0.336225,-0.816546 0.552369,-1.657107 z"
         id="text4"
         aria-label="忠孝新生" />
      <path
         style="font-size:6.17705px;line-height:1.25;font-family:'AR UDJingXiHeiE1G30 EB';-inkscape-font-specification:'AR UDJingXiHeiE1G30 EB';fill:#f9f9f9;stroke-width:0.166777"
         d="m 22.761067,34.676723 h 2.6431 v 0.42495 l -2.036028,2.488998 h 2.082726 v 0.462309 h -2.843901 v -0.424951 l 2.036027,-2.488997 h -1.881924 z m 3.829226,1.877255 V 38.05298 H 25.99723 v -3.376257 h 0.593063 v 1.414946 h 1.620417 v -1.414946 h 0.593063 V 38.05298 H 28.21071 v -1.499002 z m 6.234169,-0.172782 q 0,0.812543 -0.452969,1.274852 -0.4483,0.457639 -1.228154,0.457639 -0.793865,0 -1.242165,-0.462309 -0.448299,-0.462309 -0.448299,-1.270182 0,-0.821883 0.452969,-1.288862 0.45297,-0.471649 1.237495,-0.471649 0.793863,0 1.237493,0.466979 0.44363,0.466979 0.44363,1.293532 z m -1.681123,1.270182 q 0.509006,0 0.784524,-0.336225 0.280187,-0.336225 0.280187,-0.933957 0,-0.593063 -0.280187,-0.943298 -0.280188,-0.354904 -0.784524,-0.354904 -0.513678,0 -0.798535,0.359574 -0.280187,0.354904 -0.280187,0.938628 0,0.597732 0.284857,0.933957 0.284857,0.336225 0.793865,0.336225 z m 2.918617,-2.036027 v 2.437629 h -0.593063 v -3.376257 h 0.611743 l 1.657774,2.493667 v -2.493667 h 0.593064 v 3.376257 h -0.649101 z m 5.524357,2.026687 q -0.172782,0.242829 -0.43429,0.359574 -0.256839,0.112075 -0.588394,0.112075 -0.728487,0 -1.158107,-0.457639 -0.429621,-0.462309 -0.429621,-1.288862 0,-0.831222 0.45297,-1.288861 0.45297,-0.45764 1.223484,-0.45764 0.621082,0 1.008675,0.284857 0.392262,0.280188 0.471648,0.803204 h -0.593063 q -0.0467,-0.275517 -0.275518,-0.4483 -0.224149,-0.177452 -0.611742,-0.177452 -0.518346,0 -0.789194,0.336225 -0.270848,0.331555 -0.270848,0.947967 0,0.65844 0.284857,0.971316 0.284858,0.308207 0.775185,0.308207 0.429621,0 0.681789,-0.252169 0.252169,-0.252169 0.252169,-0.579054 v -0.07005 h -0.957306 v -0.462309 h 1.52702 v 1.76985 h -0.569714 z m 3.25951,-2.965315 h 0.68646 l -1.162778,1.629756 1.228154,1.746501 h -0.691128 l -0.88259,-1.302871 -0.88259,1.302871 h -0.67245 l 1.218815,-1.751171 -1.167447,-1.625086 h 0.695798 l 0.812544,1.214145 z m 1.732493,0 v 3.376257 h -0.593064 v -3.376257 z m 2.57305,2.012678 -0.532356,-1.442964 -0.541695,1.442964 z m -1.246834,0.46231 -0.336225,0.901269 h -0.602402 l 1.358908,-3.376257 h 0.607073 l 1.349568,3.376257 h -0.616411 l -0.340895,-0.901269 z m 6.010014,-0.770515 q 0,0.812543 -0.45297,1.274852 -0.4483,0.457639 -1.228154,0.457639 -0.793864,0 -1.242163,-0.462309 -0.4483,-0.462309 -0.4483,-1.270182 0,-0.821883 0.452969,-1.288862 0.45297,-0.471649 1.237494,-0.471649 0.793864,0 1.237494,0.466979 0.44363,0.466979 0.44363,1.293532 z m -1.681124,1.270182 q 0.509007,0 0.784524,-0.336225 0.280188,-0.336225 0.280188,-0.933957 0,-0.593063 -0.280188,-0.943298 -0.280187,-0.354904 -0.784524,-0.354904 -0.513677,0 -0.798534,0.359574 -0.280187,0.354904 -0.280187,0.938628 0,0.597732 0.284857,0.933957 0.284857,0.336225 0.793864,0.336225 z m 5.538363,-2.974655 h 0.686459 l -1.162777,1.629756 1.228154,1.746501 h -0.691128 l -0.88259,-1.302871 -0.88259,1.302871 h -0.672449 l 1.218814,-1.751171 -1.167447,-1.625086 h 0.695799 l 0.812542,1.214145 z m 1.732494,0 v 3.376257 h -0.593063 v -3.376257 z m 1.368245,0.938628 v 2.437629 h -0.593063 v -3.376257 h 0.611742 l 1.657775,2.493667 v -2.493667 h 0.593063 V 38.05298 H 60.49294 Z m 4.165447,0.910608 q -0.616412,-0.112075 -0.915279,-0.345564 -0.298866,-0.23349 -0.298866,-0.653771 0,-0.392262 0.317545,-0.6491 0.322216,-0.256839 0.989996,-0.256839 0.611742,0 0.947967,0.261509 0.336225,0.261508 0.368913,0.756505 h -0.593063 q -0.0047,-0.238159 -0.186791,-0.396932 -0.182122,-0.158773 -0.555705,-0.158773 -0.350235,0 -0.518347,0.116745 -0.168113,0.116745 -0.163443,0.326885 0,0.22882 0.22415,0.340895 0.22882,0.112075 0.742497,0.21481 0.644431,0.130754 0.915278,0.354904 0.275518,0.22415 0.275518,0.67245 0,0.42962 -0.364244,0.719147 -0.364243,0.284857 -1.036693,0.284857 -0.686459,0 -1.069382,-0.289527 Q 61.7351,37.534633 61.7351,36.988268 h 0.593063 q 0,0.303537 0.22882,0.485658 0.228819,0.177452 0.635091,0.177452 0.373583,0 0.583724,-0.144763 0.21014,-0.144764 0.21014,-0.378253 0,-0.270848 -0.21014,-0.387593 -0.210141,-0.116744 -0.737827,-0.21481 z m 2.699137,0.02802 v 1.499002 h -0.593063 v -3.376256 h 0.593063 v 1.414945 h 1.620417 v -1.414945 h 0.593063 v 3.376256 h -0.593063 v -1.499002 z m 5.487004,1.499002 h -2.498337 v -3.376256 h 2.484327 v 0.462309 h -1.891264 v 0.952636 h 1.76518 v 0.462309 h -1.76518 v 1.036693 h 1.905274 z m 1.218817,-2.437629 v 2.437629 h -0.593063 v -3.376256 h 0.611742 l 1.657775,2.493666 v -2.493666 h 0.593063 v 3.376256 h -0.6491 z m 5.52436,2.026688 q -0.172782,0.242829 -0.434294,0.359573 -0.256832,0.112076 -0.588395,0.112076 -0.728487,0 -1.158101,-0.457639 -0.429621,-0.462309 -0.429621,-1.288862 0,-0.831223 0.452966,-1.288862 0.452974,-0.457639 1.223487,-0.457639 0.621084,0 1.008672,0.284857 0.392261,0.280187 0.471647,0.803204 h -0.593059 q -0.04672,-0.275518 -0.27552,-0.4483 -0.224151,-0.177452 -0.61174,-0.177452 -0.518345,0 -0.789193,0.336225 -0.270849,0.331555 -0.270849,0.947967 0,0.65844 0.284857,0.971316 0.284857,0.308206 0.775185,0.308206 0.429622,0 0.68179,-0.252169 0.252168,-0.252169 0.252168,-0.579053 v -0.07005 h -0.957311 v -0.462309 h 1.527025 v 1.769849 h -0.569714 z"
         id="text5"
         aria-label="ZHONGXIAO XINSHENG" />
      <path
         style="font-size:2.96828px;line-height:1.25;font-family:'AR UDJingXiHeiE1G30 EB';-inkscape-font-specification:'AR UDJingXiHeiE1G30 EB';fill:#ffffff;stroke-width:0.0801425"
         d="m 75.127488,29.031249 v 1.171363 h -0.284993 v -1.622405 h 0.293966 l 0.796617,1.198291 v -1.198291 h 0.284986 v 1.622405 H 75.90615 Z m 2.327013,0.516118 -0.255812,-0.693393 -0.260303,0.693393 z m -0.599145,0.222154 -0.16157,0.433091 h -0.289469 l 0.653002,-1.622405 h 0.291713 l 0.648511,1.622405 h -0.296204 l -0.163808,-0.433091 z m 1.674011,-0.967159 h -0.504895 v -0.222155 h 1.292539 v 0.222155 H 78.81436 v 1.40025 h -0.284993 z m 1.288056,-0.222155 v 1.622405 H 79.53243 v -1.622405 z m 1.932069,0.819056 q 0,0.390455 -0.217665,0.61261 -0.215419,0.219911 -0.590171,0.219911 -0.381473,0 -0.5969,-0.222156 -0.215419,-0.222154 -0.215419,-0.610365 0,-0.394942 0.217665,-0.619341 0.217664,-0.226643 0.594654,-0.226643 0.38148,0 0.594662,0.224399 0.213174,0.224399 0.213174,0.621585 z m -0.807836,0.610365 q 0.2446,0 0.376989,-0.161567 0.134642,-0.161567 0.134642,-0.448798 0,-0.284986 -0.134642,-0.453285 -0.134634,-0.170544 -0.376989,-0.170544 -0.246838,0 -0.383718,0.172787 -0.134642,0.170543 -0.134642,0.451042 0,0.287231 0.136887,0.448798 0.13688,0.161567 0.381473,0.161567 z m 1.402497,-0.978379 v 1.171363 h -0.284985 v -1.622405 h 0.293959 l 0.796617,1.198291 v -1.198291 h 0.284986 v 1.622405 h -0.311914 z m 2.327013,0.516118 -0.255811,-0.693393 -0.260303,0.693393 z m -0.599144,0.222154 -0.161563,0.433091 h -0.289476 l 0.653001,-1.622405 h 0.291714 l 0.648519,1.622405 h -0.296212 l -0.163808,-0.433091 z m 2.46839,0.433091 h -1.13995 v -1.622405 h 0.284986 v 1.40025 h 0.854964 z m 1.169116,-1.40025 h -0.504895 v -0.222155 h 1.292539 v 0.222155 h -0.502658 v 1.40025 h -0.284986 z m 1.867001,0.745005 -0.255812,-0.693393 -0.260303,0.693393 z m -0.599145,0.222154 -0.16157,0.433091 h -0.289476 l 0.653001,-1.622405 h 0.291722 l 0.648511,1.622405 h -0.296205 l -0.163808,-0.433091 z m 1.613426,-1.189314 v 1.622405 h -0.284985 v -1.622405 z m 0.657485,0.97838 v 0.644025 h -0.284986 v -1.622405 h 0.762961 q 0.237864,0 0.372499,0.130151 0.134641,0.130151 0.134641,0.345575 0,0.242351 -0.139124,0.372502 -0.136888,0.130152 -0.370262,0.130152 z m 0.695639,-0.498166 q 0,-0.125664 -0.07182,-0.190739 -0.07182,-0.06732 -0.210936,-0.06732 H 91.24828 v 0.534069 h 0.412899 q 0.139125,0 0.210936,-0.06732 0.07182,-0.06957 0.07182,-0.208691 z m 1.763778,1.142191 h -1.200535 v -1.622405 h 1.193799 v 0.222155 h -0.908813 v 0.457774 h 0.848228 v 0.222155 h -0.848228 v 0.498166 h 0.915549 z m 0.585681,-1.622405 v 1.622405 h -0.284986 v -1.622405 z m 2.320284,1.054676 q 0,0.282742 -0.17728,0.439822 -0.177272,0.157079 -0.504895,0.157079 -0.332114,0 -0.511631,-0.154835 -0.177272,-0.154836 -0.177272,-0.439823 v -1.056919 h 0.284985 v 1.043455 q 0,0.184007 0.100978,0.284987 0.100977,0.100979 0.30294,0.100979 0.190736,0 0.291721,-0.09649 0.103223,-0.09873 0.103223,-0.293962 v -1.038968 h 0.287231 z m 0.646266,-0.603634 v 1.171363 h -0.284986 v -1.622405 h 0.293967 l 0.796617,1.198291 v -1.198291 h 0.284985 v 1.622405 h -0.311913 z m 1.748068,-0.451042 v 1.622405 h -0.284986 v -1.622405 z m 1.665039,0 -0.57671,1.622405 h -0.329859 l -0.572217,-1.622405 h 0.305178 l 0.433092,1.335174 0.439816,-1.335174 z m 1.38679,1.622405 h -1.20054 v -1.622405 h 1.1938 v 0.222155 h -0.90881 v 0.457774 h 0.84823 v 0.222155 h -0.84823 v 0.498166 h 0.91555 z m 1.31722,-1.157899 q 0,-0.118932 -0.0628,-0.179519 -0.0628,-0.06283 -0.18177,-0.06283 h -0.48694 v 0.504898 h 0.47123 q 0.11669,0 0.1885,-0.06957 0.0718,-0.06957 0.0718,-0.192983 z m -0.73154,0.482458 v 0.675441 h -0.28499 v -1.622405 h 0.82579 q 0.22216,0 0.35231,0.118932 0.1324,0.116687 0.1324,0.33211 0,0.141371 -0.0674,0.242351 -0.0651,0.100979 -0.16381,0.143615 0.12566,0.07181 0.19298,0.249084 0.0674,0.177275 0.0853,0.536313 h -0.29621 q -0.0134,-0.376991 -0.083,-0.525094 -0.0674,-0.150347 -0.21766,-0.150347 z m 1.89393,-0.05835 q -0.29621,-0.05386 -0.43982,-0.166055 -0.14362,-0.1122 -0.14362,-0.314159 0,-0.188495 0.15259,-0.311914 0.15484,-0.123419 0.47573,-0.123419 0.29396,0 0.45553,0.125663 0.16157,0.125663 0.17728,0.363526 h -0.28499 q -0.002,-0.114444 -0.0898,-0.190739 -0.0875,-0.0763 -0.26703,-0.0763 -0.1683,0 -0.24909,0.0561 -0.0808,0.0561 -0.0785,0.15708 0,0.109955 0.10772,0.163811 0.10995,0.05386 0.35679,0.103223 0.30966,0.06283 0.43982,0.170544 0.13239,0.107711 0.13239,0.323134 0,0.206448 -0.17502,0.345575 -0.17504,0.136883 -0.49817,0.136883 -0.32987,0 -0.51388,-0.139127 -0.18401,-0.139128 -0.18401,-0.401674 h 0.285 q 0,0.145859 0.10995,0.233375 0.10996,0.08527 0.30518,0.08527 0.17952,0 0.2805,-0.06957 0.10098,-0.06957 0.10098,-0.181764 0,-0.130151 -0.10098,-0.186251 -0.10098,-0.0561 -0.35455,-0.103223 z m 1.29703,-0.88862 v 1.622405 h -0.28499 v -1.622401 z m 0.71807,0.222155 h -0.5049 v -0.222151 h 1.29254 v 0.222155 h -0.50265 v 1.40025 h -0.28499 z m 1.60446,0.495922 0.46225,-0.718077 h 0.31865 l -0.63953,0.953696 v 0.668709 h -0.28499 v -0.668705 l -0.65076,-0.953696 h 0.32538 z m 3.11016,0.100979 q 0,0.390455 -0.21766,0.61261 -0.21543,0.219911 -0.59017,0.219911 -0.38148,0 -0.5969,-0.222155 -0.21543,-0.222155 -0.21543,-0.610366 0,-0.394942 0.21767,-0.619341 0.21767,-0.226642 0.59466,-0.226642 0.38148,0 0.59466,0.224399 0.21317,0.224399 0.21317,0.621584 z m -0.80783,0.610366 q 0.24459,0 0.37699,-0.161568 0.13464,-0.161567 0.13464,-0.448798 0,-0.284986 -0.13464,-0.453285 -0.13464,-0.170544 -0.37699,-0.170544 -0.24684,0 -0.38372,0.172788 -0.13464,0.170543 -0.13464,0.451041 0,0.287231 0.13688,0.448798 0.13688,0.161568 0.38148,0.161568 z m 1.40249,-0.527337 v 0.72032 h -0.28498 v -1.622401 h 1.1377 v 0.222155 h -0.85272 v 0.457774 h 0.74949 v 0.222155 z m 2.02408,-0.67993 h -0.5049 v -0.222151 h 1.29254 v 0.222155 h -0.50265 v 1.40025 h -0.28499 z m 2.2036,1.40025 h -1.20053 v -1.622401 h 1.1938 v 0.222155 h -0.90882 v 0.457774 h 0.84823 v 0.222155 h -0.84823 v 0.498166 h 0.91555 z m 1.45411,-0.565485 h 0.28499 q -0.0112,0.267034 -0.18626,0.430846 -0.17503,0.163811 -0.50714,0.163811 -0.3927,0 -0.60139,-0.222155 -0.20644,-0.222155 -0.20644,-0.617098 0,-0.390453 0.20644,-0.614852 0.20869,-0.224399 0.5969,-0.224399 0.31191,0 0.4847,0.143615 0.17279,0.141371 0.19748,0.368014 h -0.28499 q -0.018,-0.130152 -0.11893,-0.208691 -0.10098,-0.08078 -0.28499,-0.08078 -0.22664,0 -0.36352,0.152591 -0.13689,0.152592 -0.13689,0.464506 0,0.316403 0.13689,0.466751 0.13912,0.150347 0.36801,0.150347 0.19522,0 0.30069,-0.100979 0.10547,-0.103224 0.11445,-0.271523 z m 0.84822,-0.154835 v 0.72032 h -0.28498 v -1.622401 h 0.28498 v 0.679929 h 0.77866 v -0.679929 h 0.285 v 1.622405 h -0.285 v -0.720321 z m 1.72114,-0.451043 v 1.171363 H 119.83 v -1.622401 h 0.29396 l 0.79662,1.198291 v -1.198291 h 0.28498 v 1.622405 h -0.31191 z m 3.02266,0.368014 q 0,0.390455 -0.21767,0.61261 -0.21542,0.219911 -0.59017,0.219911 -0.38148,0 -0.5969,-0.222155 -0.21542,-0.222155 -0.21542,-0.610366 0,-0.394942 0.21766,-0.619341 0.21767,-0.226642 0.59466,-0.226642 0.38148,0 0.59466,0.224399 0.21318,0.224399 0.21318,0.621584 z m -0.80784,0.610366 q 0.2446,0 0.37699,-0.161568 0.13464,-0.161567 0.13464,-0.448798 0,-0.284986 -0.13464,-0.453285 -0.13464,-0.170544 -0.37699,-0.170544 -0.24684,0 -0.38372,0.172788 -0.13464,0.170543 -0.13464,0.451041 0,0.287231 0.13688,0.448798 0.13688,0.161568 0.38148,0.161568 z m 2.25745,0.192983 h -1.13994 v -1.622401 h 0.28498 v 1.40025 h 0.85496 z m 1.7952,-0.803349 q 0,0.390455 -0.21767,0.61261 -0.21542,0.219911 -0.59017,0.219911 -0.38148,0 -0.5969,-0.222155 -0.21542,-0.222155 -0.21542,-0.610366 0,-0.394942 0.21766,-0.619341 0.21767,-0.226642 0.59466,-0.226642 0.38148,0 0.59466,0.224399 0.21318,0.224399 0.21318,0.621584 z m -0.80784,0.610366 q 0.2446,0 0.37699,-0.161568 0.13464,-0.161567 0.13464,-0.448798 0,-0.284986 -0.13464,-0.453285 -0.13464,-0.170544 -0.37699,-0.170544 -0.24684,0 -0.38372,0.172788 -0.13464,0.170543 -0.13464,0.451041 0,0.287231 0.13688,0.448798 0.13689,0.161568 0.38148,0.161568 z m 2.30907,-0.0045 q -0.083,0.116687 -0.20869,0.172787 -0.12342,0.05386 -0.28274,0.05386 -0.35006,0 -0.55652,-0.219911 -0.20644,-0.222155 -0.20644,-0.619342 0,-0.399429 0.21767,-0.619341 0.21766,-0.21991 0.58792,-0.21991 0.29845,0 0.4847,0.136883 0.1885,0.134639 0.22665,0.385966 h -0.28499 q -0.0224,-0.132396 -0.1324,-0.215423 -0.10771,-0.08527 -0.29396,-0.08527 -0.24908,0 -0.37923,0.161568 -0.13015,0.159323 -0.13015,0.455529 0,0.316403 0.13688,0.466751 0.13689,0.148103 0.3725,0.148103 0.20645,0 0.32762,-0.121176 0.12118,-0.121175 0.12118,-0.278255 v -0.03366 h -0.46002 v -0.222155 h 0.73378 v 0.850472 h -0.27376 z m 1.21175,-0.706856 0.46227,-0.718078 h 0.31864 l -0.63953,0.953696 v 0.668709 h -0.28499 v -0.668709 l -0.65076,-0.953696 h 0.32538 z"
         id="text5-8"
         aria-label="NATIONAL TAIPEI UNIVERSITY OF TECHNOLOGY" />
      <path
         d="m 23.761927,42.463327 h 0.43429 v 0.919948 q 0,0.102735 0.0467,0.130754 0.05137,0.02802 0.22882,0.02802 0.03736,0 0.135423,0 0.102736,0 0.224151,0 0.121414,0 0.224149,0 0.107405,0 0.163443,0 0.102735,0 0.149433,-0.03736 0.05137,-0.03736 0.07471,-0.154103 0.02335,-0.116745 0.03269,-0.354904 0.0467,0.03736 0.116744,0.07005 0.07005,0.03269 0.144763,0.05603 0.07471,0.02335 0.130755,0.04203 -0.02334,0.308206 -0.08873,0.476318 -0.06071,0.168112 -0.182122,0.233489 -0.121414,0.06538 -0.340895,0.06538 -0.03736,0 -0.121414,0 -0.07939,0 -0.186791,0 -0.107405,0 -0.21948,0 -0.107405,0 -0.191462,0 -0.07939,0 -0.112075,0 -0.261508,0 -0.410941,-0.05137 -0.144764,-0.0467 -0.200801,-0.172783 -0.05137,-0.121414 -0.05137,-0.331554 z m 0.317546,-0.182122 0.308205,-0.252169 q 0.158773,0.08873 0.322216,0.205471 0.168112,0.112075 0.308206,0.23349 0.140093,0.116744 0.21948,0.228819 l -0.331555,0.280187 q -0.07939,-0.112075 -0.21481,-0.238159 -0.130754,-0.126084 -0.294197,-0.242829 -0.158773,-0.121414 -0.317545,-0.21481 z m 1.583058,0.331555 0.373583,-0.186791 q 0.177452,0.163442 0.345564,0.364243 0.168112,0.196131 0.298867,0.401602 0.135423,0.200801 0.20547,0.373583 l -0.410941,0.20547 q -0.06071,-0.168112 -0.186792,-0.368913 -0.121414,-0.20547 -0.284857,-0.410941 -0.163442,-0.205471 -0.340894,-0.378253 z m -2.531025,-0.130754 0.396932,0.121414 q -0.08406,0.340895 -0.22882,0.663111 -0.140094,0.317545 -0.406272,0.527685 l -0.368913,-0.242828 q 0.242829,-0.182122 0.392262,-0.466979 0.149433,-0.289527 0.214811,-0.602403 z m -0.172783,-2.278857 h 3.478993 v 1.741831 h -0.443631 v -1.340229 h -2.610411 v 1.377588 h -0.424951 z m 0.261508,1.181456 h 2.974655 v 0.396933 h -2.974655 z m 1.237494,-1.723151 h 0.443631 v 2.554374 h -0.443631 z m 2.806543,1.293531 h 4.216819 v 0.387593 h -4.216819 z m 0.434291,1.648435 h 3.754509 v 0.382923 h -3.754509 z m 0.541695,-0.901269 h 2.292866 v 0.354904 H 28.240254 Z M 27.67054,40.147112 h 2.689798 v 0.382922 H 27.67054 Z m 1.209475,-0.485658 h 0.43896 v 1.494332 h -0.43896 z m 1.961311,0.172782 0.368913,0.21014 q -0.466979,0.565045 -1.074051,1.046033 -0.607073,0.476318 -1.293531,0.854571 -0.68646,0.378253 -1.396267,0.65377 -0.02802,-0.05137 -0.07939,-0.116744 -0.05137,-0.07005 -0.107405,-0.135424 -0.05137,-0.07005 -0.0934,-0.107405 0.719147,-0.247499 1.400936,-0.602403 0.681789,-0.359574 1.265512,-0.817213 0.583724,-0.457639 1.008675,-0.985325 z m -1.522351,2.517016 h 0.43896 v 1.181456 q 0,0.168112 -0.05137,0.256838 -0.0467,0.0934 -0.177452,0.144764 -0.135424,0.04203 -0.336224,0.05137 -0.196132,0.01401 -0.485659,0.01401 -0.01868,-0.0934 -0.07005,-0.20547 -0.0467,-0.112075 -0.0934,-0.196131 0.144763,0.0047 0.280187,0.0047 0.140094,0.0047 0.242829,0 0.107405,0 0.149433,0 0.06071,0 0.07939,-0.01401 0.02334,-0.01868 0.02334,-0.06538 z m 1.088061,-0.649101 h 0.112075 l 0.0934,-0.01868 0.275518,0.238159 q -0.177452,0.135424 -0.392262,0.275517 -0.210141,0.135424 -0.434291,0.256839 -0.22415,0.121414 -0.448299,0.21481 -0.04203,-0.05603 -0.107405,-0.126084 -0.06538,-0.07472 -0.112075,-0.116745 0.182122,-0.07471 0.378253,-0.186791 0.196131,-0.112076 0.359573,-0.22882 0.168112,-0.121415 0.275518,-0.22415 z m 4.058046,-0.480988 h 1.741831 v 0.410941 h -1.741831 z m -2.488998,-1.083391 h 2.078057 v 0.364244 h -2.078057 z m -0.05137,1.853906 h 2.138763 v 0.378253 h -2.138763 z m -0.01401,-0.798534 h 2.1948 v 0.368913 h -2.1948 z m 3.371587,0.205471 h 0.429621 v 2.573053 h -0.429619 z m -2.479656,-1.709143 h 0.429621 v 0.621082 h -0.429621 z m 0,1.830558 h 0.429621 v 2.470317 h -0.429621 z m 1.456974,-1.484993 0.527686,0.154103 q -0.0093,0.05603 -0.107405,0.07471 v 1.410276 q 0,0.266178 -0.02802,0.569714 -0.02334,0.298867 -0.09807,0.616412 -0.07471,0.312876 -0.224149,0.611743 -0.144764,0.294196 -0.382923,0.541695 -0.02802,-0.05137 -0.08406,-0.112075 -0.05604,-0.06071 -0.121415,-0.116745 -0.06071,-0.05137 -0.112075,-0.07471 0.21481,-0.21948 0.340895,-0.471649 0.126084,-0.252168 0.186791,-0.523016 0.06538,-0.270847 0.08406,-0.532356 0.01868,-0.266178 0.01868,-0.513677 z m 1.5457,-0.322216 0.354904,0.322216 q -0.22415,0.102735 -0.509007,0.191461 -0.280187,0.08406 -0.574384,0.154103 -0.294196,0.06538 -0.569714,0.116745 -0.01401,-0.07005 -0.05604,-0.168113 -0.04203,-0.102735 -0.08406,-0.168112 0.261509,-0.05603 0.527687,-0.126084 0.270847,-0.07472 0.509006,-0.154103 0.23816,-0.08406 0.401603,-0.168113 z m -2.605742,2.717818 q 0.05137,0.03269 0.154103,0.116744 0.107405,0.07939 0.22415,0.172782 0.121415,0.0934 0.21948,0.177452 0.102735,0.07939 0.144764,0.116745 l -0.256839,0.322215 q -0.05603,-0.06538 -0.149433,-0.163442 -0.0934,-0.09807 -0.205471,-0.200802 -0.107405,-0.107405 -0.21014,-0.196131 -0.09807,-0.0934 -0.163443,-0.149432 z m -0.966646,-1.849237 0.345564,-0.07939 q 0.07005,0.144763 0.121415,0.317545 0.05137,0.172782 0.06538,0.294197 l -0.364244,0.102736 q -0.0093,-0.130755 -0.05604,-0.308207 -0.0467,-0.177452 -0.112075,-0.326885 z m 1.186126,-0.08873 0.392262,0.08406 q -0.06538,0.168113 -0.130753,0.336225 -0.06538,0.163443 -0.121416,0.284857 l -0.354903,-0.07939 q 0.03736,-0.08873 0.07471,-0.196132 0.04203,-0.112075 0.07939,-0.224149 0.03736,-0.112075 0.06071,-0.205471 z m -0.611742,1.709142 0.312876,0.116745 q -0.112075,0.256839 -0.280187,0.513677 -0.168113,0.256839 -0.359574,0.476318 -0.191461,0.21948 -0.378253,0.368914 -0.0467,-0.07472 -0.135424,-0.168113 -0.08406,-0.0934 -0.154103,-0.149433 0.186792,-0.121415 0.373583,-0.308206 0.191462,-0.186792 0.350234,-0.406271 0.163443,-0.22415 0.270848,-0.443631 z m 4.539035,-1.657775 h 3.240832 V 40.97366 H 37.34634 Z m -0.200802,1.368249 h 3.268852 v 0.424951 h -3.26885 z m -0.523015,1.508341 h 4.193469 v 0.429621 h -4.193469 z m 1.867915,-3.759179 h 0.457639 v 3.97399 H 38.49044 Z m -1.064712,0.06538 0.457639,0.102735 q -0.102735,0.359574 -0.247498,0.709807 -0.140094,0.345565 -0.308207,0.644431 -0.168112,0.294197 -0.350233,0.518347 -0.0467,-0.03736 -0.121415,-0.08406 -0.07005,-0.05137 -0.144763,-0.09807 -0.07471,-0.05137 -0.135425,-0.07939 0.191462,-0.205471 0.350235,-0.476318 0.158773,-0.275518 0.284857,-0.593063 0.130754,-0.317546 0.21481,-0.644431 z"
         id="text5-9"
         style="font-weight:500;font-size:6.17705px;line-height:1.25;font-family:'Noto Sans JP';-inkscape-font-specification:'Noto Sans JP Medium';fill:#f9f9f9;stroke-width:0.166777"
         aria-label="忠孝新生" />
      <path
         d="m 75.062397,32.658226 h 1.152114 v 0.188227 h -1.152114 z m -0.08894,-0.620528 h 1.346546 v 0.893561 h -0.208917 v -0.707402 h -0.939061 v 0.711538 h -0.198568 z m 0.409542,-1.034213 0.221324,0.07447 q -0.06411,0.124105 -0.142724,0.254416 -0.07653,0.130311 -0.153057,0.248211 -0.07654,0.117901 -0.146859,0.208911 l -0.173749,-0.07239 q 0.06827,-0.09308 0.140652,-0.215117 0.07446,-0.124105 0.140652,-0.254416 0.06827,-0.130311 0.113761,-0.244074 z m 0.498492,0.349564 0.153066,-0.113763 q 0.105491,0.0848 0.213045,0.188226 0.109626,0.101353 0.202711,0.204774 0.09308,0.103422 0.146859,0.192364 l -0.169614,0.130311 q -0.04967,-0.08687 -0.138588,-0.192364 -0.08894,-0.107558 -0.196497,-0.213048 -0.105491,-0.107558 -0.210982,-0.1965 z m -1.143837,0.2751 q 0.15306,-0.0042 0.343357,-0.01034 0.190298,-0.0062 0.403344,-0.01448 0.215117,-0.0083 0.43644,-0.01655 0.223388,-0.01034 0.440576,-0.02068 l -0.0082,0.188226 q -0.217181,0.01241 -0.438504,0.02276 -0.219253,0.01034 -0.430234,0.02068 -0.208911,0.0083 -0.397137,0.01655 -0.186163,0.0062 -0.335086,0.01241 z m 2.068428,-0.103421 h 0.610183 v 0.1965 H 76.80608 Z m 1.023868,-0.471601 h 0.204775 v 1.516157 q 0,0.08274 0.01656,0.107558 0.0186,0.02275 0.08066,0.02275 0.01451,0 0.04967,0 0.03727,0 0.08067,0 0.04339,0 0.08066,0 0.03727,0 0.05375,0 0.04551,0 0.06826,-0.03516 0.02276,-0.03723 0.03311,-0.13031 0.01036,-0.09308 0.01656,-0.260622 0.0248,0.01861 0.05791,0.03723 0.03311,0.01861 0.06827,0.0331 0.03515,0.01241 0.06207,0.01861 -0.01036,0.192364 -0.0372,0.310264 -0.0248,0.115832 -0.08274,0.167542 -0.05791,0.05171 -0.167543,0.05171 -0.01656,0 -0.05995,0 -0.04347,0 -0.09515,0 -0.05171,0 -0.09515,0 -0.04135,0 -0.05791,0 -0.107555,0 -0.167543,-0.02896 -0.05995,-0.02896 -0.08481,-0.101352 -0.0248,-0.07033 -0.0248,-0.196501 z m -0.510898,-0.002 h 0.202703 v 1.86572 H 77.31905 Z m 1.189346,0.314401 0.142716,0.173747 q -0.09928,0.07447 -0.217181,0.146859 -0.117904,0.07239 -0.242007,0.142721 -0.12204,0.07033 -0.239937,0.132379 -0.01036,-0.0331 -0.03515,-0.0786 -0.02275,-0.0455 -0.04347,-0.07447 0.113762,-0.06205 0.229595,-0.136517 0.115832,-0.07653 0.221323,-0.155131 0.105491,-0.08067 0.184091,-0.150996 z m -1.770574,1.110745 q 0.08481,-0.02689 0.194433,-0.06619 0.109626,-0.0393 0.231658,-0.0848 0.124111,-0.0455 0.248214,-0.09308 l 0.03727,0.177884 q -0.159272,0.07033 -0.324743,0.140653 -0.163408,0.06826 -0.297853,0.124105 z m 2.424196,-1.280356 h 0.19029 v 1.737478 h -0.19029 z m -0.333022,0.401275 h 0.814965 v 0.184089 h -0.814965 z m 0.343363,0.07239 0.117897,0.05171 q -0.031,0.109627 -0.07447,0.229596 -0.04347,0.1179 -0.09515,0.233732 -0.04967,0.115832 -0.107562,0.217185 -0.05791,0.101352 -0.117897,0.173748 -0.01452,-0.04137 -0.04347,-0.09308 -0.02895,-0.05378 -0.05171,-0.08894 0.05587,-0.06205 0.109626,-0.146858 0.05375,-0.08687 0.10342,-0.18409 0.05171,-0.09929 0.09101,-0.200637 0.04135,-0.101354 0.06827,-0.192364 z m 0.337149,-0.63087 0.113769,0.159269 q -0.09928,0.03723 -0.223395,0.07033 -0.122032,0.03103 -0.252342,0.05378 -0.128246,0.02068 -0.248214,0.03723 -0.0038,-0.03103 -0.02071,-0.07447 -0.01656,-0.0455 -0.03311,-0.07653 0.117904,-0.01861 0.239936,-0.04344 0.122039,-0.02689 0.231665,-0.05792 0.111698,-0.0331 0.192362,-0.06826 z m -0.163399,0.76325 q 0.0186,0.01862 0.05995,0.06619 0.04135,0.04757 0.08688,0.103422 0.04755,0.05378 0.0848,0.103421 0.03931,0.04758 0.05587,0.06826 l -0.117911,0.15302 q -0.0186,-0.0393 -0.05171,-0.09515 -0.03311,-0.05792 -0.07242,-0.119969 -0.03931,-0.06205 -0.07447,-0.115832 -0.03515,-0.05378 -0.05995,-0.0848 z m 0.95768,-0.788071 h 0.192362 v 1.9195 h -0.192362 z m -0.68879,1.342409 1.108682,-0.18409 0.02895,0.182022 -1.106611,0.188226 z m 0.153066,-1.094198 0.126174,-0.111694 q 0.05995,0.0393 0.124104,0.09101 0.06411,0.05171 0.119968,0.103421 0.05587,0.05171 0.08894,0.09722 l -0.136517,0.124105 q -0.031,-0.04344 -0.0848,-0.09722 -0.05171,-0.05585 -0.115833,-0.109626 -0.06207,-0.05378 -0.122039,-0.09722 z m -0.0786,0.541928 0.124104,-0.113763 q 0.06411,0.04137 0.132381,0.09515 0.07031,0.05171 0.13031,0.105491 0.06003,0.05171 0.09515,0.09721 l -0.132382,0.128243 q -0.03311,-0.04758 -0.09308,-0.103421 -0.05791,-0.05584 -0.126175,-0.109627 -0.06615,-0.05584 -0.13031,-0.09928 z m 1.915361,-0.475738 h 1.147979 v 0.182021 h -1.147979 z m 0.03931,0.465396 h 0.901836 v 0.177885 h -0.901836 z m 0.430234,-0.777729 h 0.194425 v 0.874946 h -0.194425 z m -0.198568,0.914246 q 0.115825,0.308195 0.355768,0.529516 0.242,0.219254 0.597769,0.310265 -0.02071,0.01861 -0.04551,0.04757 -0.0248,0.03103 -0.04551,0.06205 -0.02071,0.0331 -0.03515,0.05792 -0.372318,-0.109627 -0.618461,-0.353701 -0.246143,-0.244075 -0.384731,-0.601912 z m 0.65155,-0.136517 h 0.03515 l 0.03515,-0.0083 0.126174,0.05378 q -0.06622,0.225459 -0.177884,0.403343 -0.109634,0.175816 -0.258556,0.310264 -0.146859,0.134448 -0.324743,0.227527 -0.175813,0.09515 -0.372318,0.153064 -0.0082,-0.02689 -0.02691,-0.05999 -0.01656,-0.03103 -0.03727,-0.06412 -0.02071,-0.0331 -0.03931,-0.05171 0.179948,-0.0455 0.345427,-0.126174 0.167543,-0.08274 0.304059,-0.198568 0.138581,-0.117901 0.237865,-0.268896 0.101356,-0.153064 0.153065,-0.339222 z m -1.642328,0.297853 q 0.08687,-0.02068 0.198568,-0.04757 0.113761,-0.02895 0.237865,-0.06205 0.126174,-0.03516 0.248214,-0.06619 l 0.0248,0.177885 q -0.169606,0.04965 -0.343355,0.09929 -0.171678,0.04757 -0.314401,0.08687 z m 0.0248,-0.668101 h 0.666035 v 0.182022 h -0.666035 z m 0.256485,-0.407481 h 0.192362 v 1.694042 q 0,0.07653 -0.0186,0.1179 -0.0186,0.04137 -0.06411,0.06412 -0.04551,0.02276 -0.117896,0.02895 -0.07242,0.0083 -0.179956,0.0062 -0.006,-0.03723 -0.02276,-0.08894 -0.01656,-0.04964 -0.03515,-0.08894 0.06827,0.002 0.126175,0.002 0.05995,0 0.08067,-0.002 0.03931,0 0.03931,-0.0393 z m 1.842968,0.577092 h 1.82849 v 0.202705 h -1.82849 z m 1.030074,0.08067 q 0.06622,0.244075 0.177884,0.455054 0.113769,0.210979 0.277169,0.370248 0.165478,0.157201 0.382659,0.248212 -0.0248,0.02068 -0.05375,0.05378 -0.02691,0.0331 -0.05171,0.06619 -0.0248,0.03516 -0.04135,0.06205 -0.229594,-0.107558 -0.401272,-0.283374 -0.169614,-0.177885 -0.28751,-0.411617 -0.117905,-0.233733 -0.198569,-0.51297 z m -0.227523,-0.65776 h 0.213046 q 0,0.146859 -0.0082,0.31647 -0.006,0.167543 -0.031,0.345427 -0.0248,0.177885 -0.08067,0.35577 -0.05587,0.177884 -0.155129,0.343358 -0.09928,0.165474 -0.254421,0.308196 -0.155129,0.140653 -0.378517,0.246143 -0.0248,-0.0393 -0.06622,-0.08687 -0.04135,-0.0455 -0.08274,-0.07653 0.215117,-0.09722 0.361976,-0.225459 0.148922,-0.13031 0.239936,-0.281305 0.09308,-0.153064 0.142723,-0.31647 0.04967,-0.163405 0.07031,-0.326811 0.02071,-0.163406 0.0248,-0.31647 0.0038,-0.153063 0.0038,-0.285443 z m 1.617509,0.701197 h 0.994913 v 0.17168 h -0.994913 z m -0.355769,0.469533 h 1.838832 v 0.179953 H 85.07357 Z m 0.814957,-0.14479 h 0.20064 v 0.674307 q 0,0.08067 -0.0248,0.124106 -0.02275,0.04344 -0.08894,0.06619 -0.06411,0.02068 -0.159272,0.02482 -0.09515,0.0062 -0.233729,0.0062 -0.0083,-0.04137 -0.03311,-0.09722 -0.02275,-0.05378 -0.04755,-0.09308 0.07242,0.002 0.140652,0.0042 0.07031,0.002 0.122039,0.002 0.05171,-0.002 0.07242,-0.002 0.031,-0.002 0.04135,-0.01034 0.01036,-0.0083 0.01036,-0.03103 z M 86.3622,31.717158 h 0.04755 l 0.04347,-0.01034 0.124111,0.09515 q -0.07031,0.07447 -0.161343,0.146858 -0.09101,0.07239 -0.192362,0.134448 -0.09928,0.06205 -0.198568,0.109627 -0.0186,-0.02689 -0.05171,-0.05999 -0.031,-0.03516 -0.05587,-0.05584 0.0848,-0.0393 0.169607,-0.09515 0.08688,-0.05585 0.159272,-0.113763 0.07242,-0.05999 0.115833,-0.113764 z m -1.255541,-0.364042 h 1.774717 v 0.481943 h -0.192369 v -0.308196 h -1.396185 v 0.308196 h -0.186163 z m 1.458245,-0.324743 0.20891,0.06619 q -0.06827,0.09929 -0.144787,0.196501 -0.07654,0.09722 -0.140652,0.165474 l -0.157201,-0.06205 q 0.04135,-0.04965 0.0848,-0.113764 0.04347,-0.06412 0.08274,-0.130311 0.04135,-0.06619 0.06623,-0.122037 z m -1.317585,0.0848 0.165471,-0.07447 q 0.05791,0.06205 0.113761,0.140653 0.05587,0.0786 0.08067,0.138585 l -0.173749,0.08481 q -0.0248,-0.05999 -0.0786,-0.140653 -0.05375,-0.08067 -0.107555,-0.148927 z m 0.527447,-0.04344 0.171677,-0.06412 q 0.04967,0.07033 0.09722,0.159269 0.04967,0.08687 0.06827,0.150995 l -0.182028,0.07239 q -0.01656,-0.06619 -0.06207,-0.155132 -0.04347,-0.09101 -0.09308,-0.163405 z"
         id="text5-9-1"
         style="font-weight:500;font-size:2.73605px;line-height:1.25;font-family:'Noto Sans JP';-inkscape-font-specification:'Noto Sans JP Medium';fill:#f9f9f9;stroke-width:0.0738727"
         aria-label="台北科技大学" />
      <path
         style="font-weight:500;font-size:2.73605px;line-height:1.25;font-family:'Noto Sans kr';-inkscape-font-specification:'Noto Sans kr Medium';fill:#f9f9f9;stroke-width:0.0738727"
         d="m 89.433783,32.36511 h 0.150994 q 0.167542,0 0.310265,-0.0042 0.142724,-0.0042 0.275105,-0.01448 0.134446,-0.01241 0.275097,-0.03516 l 0.02071,0.173748 q -0.142724,0.02275 -0.281304,0.03723 -0.136517,0.01241 -0.283376,0.01655 -0.144787,0.002 -0.316472,0.002 h -0.150994 z m 0,-1.106609 h 0.883223 v 0.177885 H 89.6489 v 0.988708 h -0.215117 z m 0.163407,0.529518 h 0.684647 v 0.171679 H 89.59719 Z m 1.005255,-0.692923 h 0.217188 v 1.890542 h -0.217188 z m 0.169614,0.740496 h 0.341284 v 0.179953 h -0.341284 z m 1.824348,-0.742565 h 0.217188 v 1.894679 h -0.217188 z m -0.788067,0.138584 q 0.140652,0 0.250278,0.08274 0.111697,0.08274 0.173749,0.231664 0.06207,0.148926 0.06207,0.351632 0,0.204774 -0.06207,0.355769 -0.06207,0.148927 -0.173749,0.231664 -0.109626,0.08067 -0.250278,0.08067 -0.140652,0 -0.25235,-0.08067 -0.109626,-0.08274 -0.173749,-0.231664 -0.06207,-0.150995 -0.06207,-0.355769 0,-0.202706 0.06207,-0.351632 0.06411,-0.148927 0.173749,-0.231664 0.111698,-0.08274 0.25235,-0.08274 z m 0,0.196501 q -0.08274,0 -0.146859,0.05585 -0.06207,0.05585 -0.09722,0.161338 -0.03515,0.10549 -0.03515,0.252347 0,0.148927 0.03515,0.254417 0.03515,0.10549 0.09722,0.163406 0.06411,0.05584 0.146859,0.05584 0.08273,0 0.144787,-0.05584 0.06207,-0.05792 0.09722,-0.163406 0.03515,-0.10549 0.03515,-0.254417 0,-0.146857 -0.03515,-0.252347 -0.03515,-0.10549 -0.09722,-0.161338 -0.06207,-0.05585 -0.144787,-0.05585 z m 1.414805,-0.153064 h 0.204767 v 0.446781 h 0.328886 v -0.446781 h 0.200633 v 1.247261 h -0.734286 z m 0.204767,0.620528 v 0.450917 h 0.328886 v -0.450917 z m 1.139708,-0.802549 h 0.206839 v 1.890541 H 94.56762 Z m -0.645351,0.707402 h 0.341292 v 0.175816 h -0.341292 z m 0.266827,-0.67017 H 94.3918 v 1.764367 h -0.202704 z m 2.213214,-0.03723 h 0.217188 v 1.894679 H 96.40231 Z m -0.788067,0.138585 q 0.140652,0 0.250278,0.08274 0.111698,0.08274 0.173749,0.231664 0.06207,0.148926 0.06207,0.351632 0,0.204774 -0.06207,0.35577 -0.06207,0.148926 -0.173749,0.231663 -0.109626,0.08067 -0.250278,0.08067 -0.140652,0 -0.252349,-0.08067 -0.109626,-0.08274 -0.173749,-0.231663 -0.06207,-0.150996 -0.06207,-0.35577 0,-0.202706 0.06207,-0.351632 0.06411,-0.148927 0.173749,-0.231664 0.111697,-0.08274 0.252349,-0.08274 z m 0,0.1965 q -0.08273,0 -0.146858,0.05584 -0.06207,0.05585 -0.09721,0.161338 -0.03515,0.10549 -0.03515,0.252348 0,0.148927 0.03515,0.254416 0.03515,0.10549 0.09721,0.163406 0.06411,0.05584 0.146858,0.05584 0.08274,0 0.144787,-0.05584 0.06207,-0.05792 0.09722,-0.163406 0.03515,-0.105489 0.03515,-0.254416 0,-0.146858 -0.03515,-0.252348 -0.03515,-0.10549 -0.09722,-0.161338 -0.06207,-0.05584 -0.144787,-0.05584 z m 1.435489,-0.136515 h 0.835641 v 0.175816 h -0.835641 z m 0.270962,0.541927 h 0.213046 v 0.641212 h -0.213046 z m 0.477809,-0.541927 h 0.213045 v 0.126173 q 0,0.124106 -0.006,0.306127 -0.006,0.182022 -0.04755,0.432302 l -0.213045,-0.01861 q 0.03931,-0.242006 0.04551,-0.417822 0.0083,-0.177884 0.0083,-0.30199 z m 0.41782,-0.19857 h 0.215117 v 1.890542 h -0.215117 z m 0.153065,0.777729 h 0.343356 v 0.179953 h -0.343356 z m -1.398256,0.715675 -0.02276,-0.179953 q 0.169614,0 0.368182,-0.002 0.198568,-0.0042 0.403343,-0.01448 0.204775,-0.01241 0.393002,-0.03516 l 0.0124,0.159269 q -0.194426,0.03103 -0.399201,0.04757 -0.202711,0.01448 -0.395072,0.01862 -0.192362,0.0042 -0.359905,0.0062 z m 1.900884,-1.307246 h 1.114881 v 0.17168 h -1.114881 z m 0.558472,0.252348 q 0.134453,0 0.237873,0.04344 0.103419,0.04344 0.161336,0.122037 0.05791,0.07653 0.05791,0.179953 0,0.103421 -0.05791,0.182022 -0.05791,0.07653 -0.161336,0.119968 -0.10342,0.04137 -0.237873,0.04137 -0.136516,0 -0.239936,-0.04137 -0.103419,-0.04344 -0.161335,-0.119968 -0.05791,-0.0786 -0.05791,-0.182022 0,-0.103421 0.05791,-0.179953 0.05791,-0.0786 0.161335,-0.122037 0.10342,-0.04344 0.239936,-0.04344 z m 0,0.167543 q -0.113761,0 -0.184091,0.04757 -0.06827,0.0455 -0.06827,0.130311 0,0.08274 0.06827,0.130311 0.07031,0.04757 0.184091,0.04757 0.111698,0 0.179956,-0.04757 0.06827,-0.04758 0.06827,-0.130311 0,-0.0848 -0.06827,-0.130311 -0.06827,-0.04757 -0.179956,-0.04757 z m 0.699132,-0.60398 h 0.21512 v 1.183139 h -0.21512 z m 0.1572,0.504696 h 0.32474 v 0.179953 h -0.32474 z m -1.183138,0.769455 h 1.241058 v 0.616391 h -0.21512 v -0.442644 h -1.025938 z m 0.21718,-1.284493 h 0.217189 v 0.291648 h -0.217189 z m 2.796518,0.0083 h 0.21718 v 1.890542 h -0.21718 z m -0.55641,0.200638 h 0.21511 q 0,0.210979 -0.0455,0.403342 -0.0455,0.192364 -0.14893,0.366112 -0.10134,0.171679 -0.26889,0.318538 -0.16548,0.146858 -0.40955,0.264758 l -0.11583,-0.171679 q 0.2751,-0.132379 0.44471,-0.30199 0.16961,-0.169611 0.24822,-0.378522 0.0807,-0.210979 0.0807,-0.463327 z m -0.68052,0 h 0.77774 v 0.173748 h -0.77774 z m 2.53797,-0.190296 h 0.18409 v 0.05378 q 0,0.09722 -0.0373,0.182022 -0.0373,0.08274 -0.10756,0.153064 -0.0683,0.07033 -0.16341,0.124105 -0.0951,0.05378 -0.21097,0.09101 -0.11584,0.03516 -0.24615,0.04964 l -0.0724,-0.163406 q 0.11377,-0.01241 0.21305,-0.0393 0.0993,-0.02896 0.17995,-0.07033 0.0827,-0.04137 0.14066,-0.09308 0.0579,-0.05171 0.0889,-0.109627 0.031,-0.05999 0.031,-0.124106 z m 0.0393,0 h 0.18202 v 0.05378 q 0,0.06412 0.031,0.124106 0.031,0.05792 0.0889,0.109627 0.06,0.05171 0.14066,0.09308 0.0807,0.04137 0.17995,0.07033 0.10135,0.02689 0.21511,0.0393 l -0.0745,0.163406 q -0.13031,-0.01448 -0.24614,-0.04964 -0.11377,-0.03723 -0.21098,-0.09101 -0.0952,-0.05378 -0.16341,-0.124105 -0.0683,-0.07033 -0.10549,-0.153064 -0.0373,-0.0848 -0.0373,-0.182022 z m -0.0373,0.889424 h 0.21512 v 0.277169 h -0.21512 z m -0.74463,-0.13238 h 1.70852 v 0.173749 h -1.70852 z m 0.20063,0.330948 h 1.29277 v 0.457123 h -1.07558 v 0.198569 h -0.21305 V 32.49545 h 1.07559 V 32.3548 h -1.07973 z m 0.004,0.610186 h 1.34242 v 0.165475 h -1.34242 z m 3.10265,-1.70852 h 0.20684 v 1.890542 h -0.20684 z m -0.28958,0.744634 h 0.34336 v 0.177884 h -0.34336 z m -0.13652,-0.705333 h 0.20271 v 1.758162 h -0.20271 z m -0.91631,1.224508 h 0.12617 q 0.13031,0 0.23994,-0.0042 0.10962,-0.0042 0.21305,-0.01448 0.10548,-0.01241 0.21512,-0.0331 l 0.0207,0.177885 q -0.11377,0.02275 -0.22132,0.03516 -0.10756,0.01034 -0.22133,0.01448 -0.11169,0.0042 -0.24614,0.0042 h -0.12617 z m 0,-1.03835 h 0.69913 v 0.175816 h -0.48608 v 0.945271 h -0.21305 z m 1.84296,-0.0393 h 1.11489 v 0.17168 h -1.11489 z m 0.55848,0.252348 q 0.13445,0 0.23787,0.04344 0.10342,0.04344 0.16134,0.122037 0.0579,0.07653 0.0579,0.179954 0,0.103421 -0.0579,0.182021 -0.0579,0.07653 -0.16134,0.119969 -0.10342,0.04137 -0.23787,0.04137 -0.13651,0 -0.23994,-0.04137 -0.10342,-0.04344 -0.16133,-0.119969 -0.0579,-0.0786 -0.0579,-0.182021 0,-0.103422 0.0579,-0.179954 0.0579,-0.0786 0.16133,-0.122037 0.10343,-0.04344 0.23994,-0.04344 z m 0,0.167542 q -0.11376,0 -0.18409,0.04757 -0.0683,0.0455 -0.0683,0.13031 0,0.08274 0.0683,0.130311 0.0703,0.04758 0.18409,0.04758 0.11169,0 0.17995,-0.04758 0.0683,-0.04757 0.0683,-0.130311 0,-0.0848 -0.0683,-0.13031 -0.0683,-0.04757 -0.17995,-0.04757 z m 0.69913,-0.60398 h 0.21512 v 1.18314 h -0.21512 z m 0.1572,0.504696 h 0.32474 v 0.179953 h -0.32474 z m -1.18314,0.769455 h 1.24106 v 0.616391 h -0.21512 v -0.442643 h -1.02594 z m 0.21719,-1.284493 h 0.21718 v 0.291648 h -0.21718 z m 1.62371,0.186158 h 1.20796 v 0.175816 h -1.20796 z m -0.17168,1.28863 h 1.70852 v 0.177885 h -1.70852 z m 0.393,-0.612255 h 0.21305 v 0.672239 h -0.21305 z m 0.92045,-0.676375 h 0.21512 v 0.196501 q 0,0.1179 -0.002,0.246143 -0.002,0.128242 -0.0166,0.277169 -0.0124,0.148926 -0.0455,0.333017 l -0.21512,-0.02276 q 0.0476,-0.260621 0.0559,-0.45919 0.008,-0.200638 0.008,-0.374386 z m -0.45298,0.676375 h 0.21304 v 0.672239 h -0.21304 z"
         id="text5-9-1-0"
         aria-label="타이베이과학기술대학교" />
      <path
         style="font-weight:500;font-size:6.17705px;line-height:1.25;font-family:'Noto Sans KR';-inkscape-font-specification:'Noto Sans KR Medium';fill:#f9f9f9;stroke-width:0.166777"
         d="m 46.791703,41.911627 h 0.490328 v 0.751837 H 46.791703 Z M 45.11058,41.748185 h 3.857244 v 0.392262 H 45.11058 Z m 1.919282,0.770515 q 0.691129,0 1.078722,0.200801 0.392262,0.196131 0.392262,0.560374 0,0.364244 -0.392262,0.560375 -0.387593,0.196131 -1.078722,0.196131 -0.686458,0 -1.078721,-0.196131 -0.387592,-0.196131 -0.387592,-0.560375 0,-0.364243 0.387592,-0.560374 0.392263,-0.200801 1.078721,-0.200801 z m 0,0.378253 q -0.308206,0 -0.527685,0.0467 -0.219481,0.04203 -0.336225,0.126084 -0.112075,0.08406 -0.112075,0.210141 0,0.126084 0.112075,0.21481 0.116744,0.08406 0.336225,0.126084 0.219479,0.04203 0.527685,0.04203 0.317546,0 0.532356,-0.04203 0.21948,-0.04203 0.331556,-0.126084 0.112074,-0.08873 0.112074,-0.21481 0,-0.126084 -0.112074,-0.210141 -0.112076,-0.08406 -0.331556,-0.126084 -0.21481,-0.0467 -0.532356,-0.0467 z m -0.317545,-2.745835 h 0.43429 v 0.116744 q 0,0.200801 -0.07939,0.378253 -0.07939,0.172782 -0.22882,0.322215 -0.149433,0.144764 -0.354904,0.261508 -0.205471,0.116745 -0.462309,0.191462 -0.252168,0.07471 -0.546365,0.107405 l -0.172782,-0.382923 q 0.252168,-0.02334 0.466979,-0.07939 0.219479,-0.06071 0.392262,-0.144763 0.172782,-0.08406 0.294196,-0.186792 0.121415,-0.107405 0.186792,-0.22415 0.07005,-0.121415 0.07005,-0.242829 z m 0.21948,0 h 0.43429 v 0.116744 q 0,0.126084 0.06538,0.247498 0.06538,0.116746 0.186792,0.219481 0.121414,0.102735 0.294196,0.186792 0.177452,0.08406 0.392262,0.144763 0.21948,0.05604 0.471649,0.07939 l -0.172782,0.382923 q -0.294197,-0.03269 -0.551035,-0.107405 -0.252168,-0.07472 -0.46231,-0.186792 -0.20547,-0.116744 -0.354904,-0.261508 -0.144763,-0.149433 -0.224149,-0.326885 -0.07939,-0.182122 -0.07939,-0.378253 z m -1.470984,-0.186792 h 3.156777 v 0.387592 h -3.156777 z m 7.121428,0.849901 h 0.770515 v 0.406272 h -0.770515 z m 0,1.256173 h 0.770515 v 0.406272 h -0.770515 z m -2.166782,-1.942632 h 0.396932 v 0.700469 q 0,0.368913 -0.07939,0.728487 -0.07939,0.354903 -0.23349,0.667779 -0.149433,0.308206 -0.364243,0.551036 -0.21481,0.242828 -0.485658,0.387592 l -0.317546,-0.392262 q 0.247499,-0.121415 0.4483,-0.326886 0.200801,-0.21014 0.340895,-0.471648 0.144763,-0.266178 0.219479,-0.555705 0.07472,-0.294197 0.07472,-0.588393 z m 0.08873,0 h 0.396932 v 0.700469 q 0,0.289527 0.07005,0.574384 0.07005,0.280187 0.205471,0.527686 0.140094,0.247498 0.331555,0.443629 0.191461,0.191462 0.42962,0.303537 l -0.294197,0.392262 q -0.270847,-0.135424 -0.480988,-0.364243 -0.21014,-0.23349 -0.359573,-0.527687 -0.144763,-0.294196 -0.22415,-0.639761 -0.07471,-0.345564 -0.07471,-0.709807 z m 1.718482,-0.350233 h 0.490328 v 4.268186 h -0.490328 z m 3.161448,2.40494 h 0.490327 v 1.022684 h -0.490327 z m 0.247499,-2.152772 q 0.452968,0 0.803203,0.140094 0.354904,0.140093 0.560374,0.396931 0.205471,0.256839 0.205471,0.602404 0,0.350233 -0.205471,0.607072 -0.20547,0.256838 -0.560374,0.401601 -0.350235,0.140094 -0.803203,0.140094 -0.45297,0 -0.807874,-0.140094 -0.354904,-0.144763 -0.560375,-0.401601 -0.20547,-0.256839 -0.20547,-0.607072 0,-0.345565 0.20547,-0.602404 0.205471,-0.256838 0.560375,-0.396931 0.354904,-0.140094 0.807874,-0.140094 z m 0,0.387592 q -0.322216,0 -0.569715,0.0934 -0.242829,0.08873 -0.382923,0.256838 -0.140093,0.168113 -0.140093,0.401603 0,0.233489 0.140093,0.406271 0.140094,0.168112 0.382923,0.261508 0.247499,0.08873 0.569715,0.08873 0.317545,0 0.565044,-0.08873 0.247498,-0.0934 0.387592,-0.261508 0.140094,-0.172782 0.140094,-0.406271 0,-0.23349 -0.140094,-0.401603 -0.140094,-0.168112 -0.387592,-0.256838 -0.247499,-0.0934 -0.565044,-0.0934 z m -1.928623,2.699138 h 3.866584 v 0.401602 h -3.866584 z m 8.629772,-3.338898 h 0.490328 v 3.119418 h -0.490328 z m -2.292866,3.782528 h 2.904609 v 0.396932 h -2.904609 z m 0,-0.952637 h 0.485658 v 1.148768 h -0.485658 z m 0.326885,-2.596402 h 0.406272 v 0.424951 q 0,0.42028 -0.140094,0.793863 -0.140093,0.368914 -0.406271,0.649101 -0.266178,0.280187 -0.649101,0.424951 l -0.252169,-0.387592 q 0.336226,-0.126085 0.569715,-0.354904 0.233489,-0.23349 0.350234,-0.523017 0.121414,-0.294197 0.121414,-0.602402 z m 0.09807,0 h 0.396932 v 0.424951 q 0,0.228819 0.06538,0.443629 0.07005,0.210141 0.200801,0.396933 0.135424,0.186791 0.326886,0.331554 0.191461,0.144764 0.43896,0.22882 l -0.252169,0.392262 Q 61.268052,42.089079 61.001874,41.827572 60.735695,41.561394 60.600272,41.20649 60.464848,40.846916 60.464848,40.435975 Z m 4.174791,-0.0047 h 0.406272 v 0.415611 q 0,0.420282 -0.140094,0.784525 -0.140094,0.359574 -0.410941,0.630422 -0.266178,0.266178 -0.653771,0.410941 l -0.256838,-0.396932 q 0.345564,-0.116745 0.579053,-0.331555 0.23349,-0.21948 0.354904,-0.504337 0.121415,-0.284857 0.121415,-0.593064 z m 0.09806,0 h 0.396933 v 0.392263 q 0,0.294196 0.112074,0.560374 0.116745,0.266178 0.340895,0.466979 0.22415,0.200801 0.546365,0.308206 l -0.256839,0.382923 Q 65.51289,41.986344 65.256051,41.734176 64.999212,41.482007 64.868459,41.141112 64.737704,40.800218 64.737704,40.398616 Z m 1.909944,-0.228819 h 0.490328 v 2.512346 h -0.490328 z m -0.929288,2.629091 q 0.66778,0 1.050702,0.21481 0.387593,0.21481 0.387593,0.602403 0,0.387592 -0.387593,0.597733 -0.382922,0.21481 -1.050702,0.21481 -0.66778,0 -1.055373,-0.21481 -0.387592,-0.210141 -0.387592,-0.597733 0,-0.387593 0.387592,-0.602403 0.387593,-0.21481 1.055373,-0.21481 z m 0,0.382922 q -0.303536,0 -0.518347,0.05137 -0.21014,0.0467 -0.322215,0.144764 -0.112075,0.09806 -0.112075,0.238159 0,0.135424 0.112075,0.233489 0.112075,0.09807 0.322215,0.149434 0.214811,0.05137 0.518347,0.05137 0.303536,0 0.513676,-0.05137 0.210141,-0.05137 0.322216,-0.149434 0.116745,-0.09806 0.116745,-0.233489 0,-0.140094 -0.116745,-0.238159 -0.112075,-0.09807 -0.322216,-0.144764 -0.21014,-0.05137 -0.513676,-0.05137 z m 0.07005,-2.166781 h 0.947967 v 0.401613 h -0.94797 z"
         id="text5-9-8"
         aria-label="중샤오 신성" />
      <path
         id="rect2"
         style="fill:#ffffff;stroke-width:0.483044"
         d="m 71.873159,22.256461 h 0.669299 v 10.685137 h -0.669299 z" />
      <path
         style="font-weight:500;font-size:5.92781px;line-height:1;font-family:'Noto Sans TC';-inkscape-font-specification:'Noto Sans TC Medium';fill:#ffffff;stroke-width:0.148196"
         d="m 75.321628,26.715966 h 3.307718 v 0.539431 h -3.307718 z m -0.278607,-1.695354 h 3.900499 v 2.543031 h -0.598709 v -2.0036 h -2.726792 v 2.009528 h -0.574998 z m 2.495608,-2.039167 0.438658,-0.290462 q 0.278607,0.248968 0.586853,0.563142 0.308246,0.308246 0.56907,0.616492 0.266752,0.308246 0.420875,0.557214 l -0.480153,0.349741 q -0.142267,-0.254896 -0.397163,-0.56907 -0.254896,-0.314174 -0.557214,-0.634275 -0.296391,-0.320102 -0.580926,-0.592782 z m -2.756432,1.588654 q -0.01185,-0.05928 -0.04742,-0.160051 -0.02964,-0.100773 -0.06521,-0.207474 -0.03557,-0.1067 -0.07113,-0.177834 0.112629,-0.02371 0.225257,-0.112628 0.112628,-0.09484 0.260824,-0.237113 0.08299,-0.07113 0.237112,-0.237112 0.154123,-0.165979 0.343813,-0.391236 0.18969,-0.225256 0.385308,-0.492008 0.195618,-0.266751 0.361596,-0.533503 l 0.563142,0.24304 q -0.272679,0.385308 -0.586853,0.752832 -0.308246,0.361597 -0.628348,0.681699 -0.314174,0.320101 -0.628348,0.574997 v 0.01778 q 0,0 -0.05335,0.02964 -0.05335,0.02371 -0.124484,0.07113 -0.07113,0.04149 -0.124484,0.08892 -0.04742,0.04742 -0.04742,0.08892 z m 0,0 -0.0059,-0.438658 0.397163,-0.207474 3.722665,-0.148195 q 0.0059,0.112628 0.02371,0.260824 0.01778,0.148195 0.03557,0.237112 -0.877316,0.04742 -1.511592,0.08299 -0.634275,0.02964 -1.072933,0.05335 -0.432731,0.02371 -0.717265,0.04742 -0.278608,0.01778 -0.450514,0.03557 -0.165979,0.01186 -0.260824,0.02964 -0.08892,0.01778 -0.160051,0.04742 z m 5.536575,-1.037367 h 1.748704 v 0.563142 h -1.748704 z m 2.934266,-1.351541 h 0.586853 v 4.273951 q 0,0.231185 0.0415,0.296391 0.04742,0.06521 0.201546,0.06521 0.04149,0 0.124484,0 0.08892,0 0.18969,0 0.100772,0 0.189689,0 0.08892,0 0.130412,0 0.124484,0 0.183762,-0.112629 0.06521,-0.118556 0.08892,-0.420874 0.02964,-0.308246 0.04742,-0.859533 0.07113,0.05335 0.165979,0.112629 0.09485,0.05335 0.195617,0.09484 0.100773,0.04149 0.177835,0.05928 -0.02964,0.616492 -0.100773,0.984016 -0.07113,0.361597 -0.237112,0.521648 -0.160051,0.165978 -0.468297,0.165978 -0.04742,0 -0.154123,0 -0.106701,0 -0.231185,0 -0.124484,0 -0.231185,0 -0.100772,0 -0.148195,0 -0.284535,0 -0.450513,-0.08299 -0.165979,-0.07706 -0.237113,-0.278607 -0.06521,-0.201546 -0.06521,-0.551287 z m -1.48788,-0.0059 h 0.580925 v 4.404363 h -0.580925 z m -1.642004,4.76596 q 0.320102,-0.106701 0.752832,-0.260824 0.43273,-0.154123 0.912883,-0.331957 0.486081,-0.177835 0.960305,-0.355669 l 0.09485,0.497936 q -0.420874,0.183762 -0.859532,0.367524 -0.438658,0.177835 -0.847677,0.343813 -0.409019,0.165979 -0.75876,0.302319 z m 3.43813,-3.414419 h 1.8969 v 0.563142 h -1.8969 z m 3.509264,-0.936594 h 0.545358 v 4.979361 h -0.545358 z m -0.954377,1.149995 h 2.335557 v 0.527575 h -2.335557 z m 0.984016,0.207474 0.337885,0.148195 q -0.08892,0.314174 -0.213401,0.657987 -0.124484,0.337885 -0.272679,0.669842 -0.142268,0.331958 -0.308246,0.62242 -0.165979,0.290463 -0.337886,0.497936 -0.04149,-0.118556 -0.124484,-0.266751 -0.08299,-0.154123 -0.148195,-0.254896 0.160051,-0.177834 0.314174,-0.420874 0.154123,-0.248968 0.296391,-0.527576 0.148195,-0.284534 0.260823,-0.574997 0.118556,-0.290463 0.195618,-0.551286 z m 0.966233,-1.807983 0.32603,0.456442 q -0.284535,0.1067 -0.640204,0.201545 -0.349741,0.08892 -0.723193,0.154123 -0.367524,0.05928 -0.711337,0.106701 -0.01186,-0.08892 -0.05928,-0.213401 -0.04742,-0.130412 -0.09484,-0.219329 0.337885,-0.05335 0.687626,-0.124484 0.349741,-0.07706 0.663915,-0.165979 0.320101,-0.09484 0.551286,-0.195618 z m -0.468297,2.187362 q 0.05335,0.05335 0.171907,0.18969 0.118556,0.13634 0.248968,0.296391 0.136339,0.154123 0.24304,0.29639 0.112628,0.13634 0.160051,0.195618 l -0.337885,0.438658 q -0.05335,-0.112628 -0.148196,-0.272679 -0.09485,-0.165979 -0.207473,-0.343813 -0.112629,-0.177835 -0.213401,-0.331958 -0.100773,-0.154123 -0.171907,-0.24304 z m 2.744576,-2.258495 h 0.551287 v 5.501008 h -0.551287 z m -1.973961,3.847149 3.177307,-0.527576 0.08299,0.521648 -3.171378,0.53943 z m 0.438658,-3.135812 0.361597,-0.320102 q 0.171906,0.112629 0.355668,0.260824 0.183762,0.148195 0.343813,0.29639 0.160051,0.148196 0.254896,0.278607 l -0.391235,0.355669 Q 89.643218,23.526804 89.489095,23.372681 89.340899,23.21263 89.157137,23.058507 88.979303,22.904384 88.807396,22.7799 Z m -0.225256,1.553086 0.355668,-0.326029 q 0.183762,0.118556 0.37938,0.272679 0.201546,0.148195 0.373452,0.302318 0.171907,0.148195 0.272679,0.278607 l -0.37938,0.367525 q -0.09484,-0.13634 -0.266751,-0.296391 -0.165979,-0.160051 -0.361596,-0.314174 -0.18969,-0.160051 -0.373452,-0.284535 z m 3.586324,-0.604636 h 5.240184 v 0.580925 h -5.240184 z m 2.95205,0.231184 q 0.18969,0.699482 0.509791,1.304118 0.32603,0.604637 0.794327,1.061078 0.474225,0.450514 1.096645,0.711338 -0.07113,0.05928 -0.154123,0.154123 -0.07706,0.09485 -0.148195,0.18969 -0.07113,0.100772 -0.118557,0.177834 -0.657987,-0.308246 -1.149995,-0.81211 -0.48608,-0.509792 -0.823965,-1.179634 -0.337886,-0.669843 -0.56907,-1.470097 z m -0.652059,-1.885043 h 0.610564 q 0,0.420874 -0.02371,0.906954 -0.01778,0.480153 -0.08892,0.989945 -0.07113,0.509791 -0.231185,1.019583 -0.160051,0.509792 -0.444586,0.984017 -0.284535,0.474224 -0.72912,0.883243 -0.444586,0.403091 -1.08479,0.70541 -0.07113,-0.112629 -0.18969,-0.248968 -0.118556,-0.130412 -0.237112,-0.219329 0.616492,-0.278607 1.037367,-0.646132 0.426802,-0.373452 0.687626,-0.806182 0.266751,-0.438658 0.409019,-0.906955 0.142267,-0.468297 0.201545,-0.936594 0.05928,-0.468297 0.07113,-0.906955 0.01186,-0.438658 0.01186,-0.818037 z"
         id="text1"
         aria-label="台北科大" />
    </g>
  </g>
</svg>
