<?xml version="1.0" encoding="UTF-8" standalone="no"?>
<!-- Created with Inkscape (http://www.inkscape.org/) -->

<svg
   width="500"
   height="250"
   viewBox="0 0 132.29166 66.145833"
   version="1.1"
   id="svg1"
   inkscape:version="1.3.2 (091e20e, 2023-11-25, custom)"
   sodipodi:docname="bl15.svg"
   xmlns:inkscape="http://www.inkscape.org/namespaces/inkscape"
   xmlns:sodipodi="http://sodipodi.sourceforge.net/DTD/sodipodi-0.dtd"
   xmlns="http://www.w3.org/2000/svg"
   xmlns:svg="http://www.w3.org/2000/svg">
  <sodipodi:namedview
     id="namedview1"
     pagecolor="#9e652e"
     bordercolor="#ffffff"
     borderopacity="1"
     inkscape:showpageshadow="0"
     inkscape:pageopacity="0"
     inkscape:pagecheckerboard="false"
     inkscape:deskcolor="#d1d1d1"
     inkscape:document-units="mm"
     inkscape:zoom="2.0208096"
     inkscape:cx="273.65269"
     inkscape:cy="99.959935"
     inkscape:window-width="1920"
     inkscape:window-height="1009"
     inkscape:window-x="1912"
     inkscape:window-y="-8"
     inkscape:window-maximized="1"
     inkscape:current-layer="layer1" />
  <defs
     id="defs1">
    <rect
       x="157.85752"
       y="62.351248"
       width="329.07603"
       height="135.09437"
       id="rect4" />
  </defs>
  <g
     inkscape:label="Layer 1"
     inkscape:groupmode="layer"
     id="layer1">
    <path
       id="rect5"
       style="fill:#005fb9;stroke-width:0.953294"
       d="M -2.5431316e-6,-1.2715658e-6 H 132.29167 V 66.145835 H -2.5431316e-6 Z" />
    <g
       id="g2"
       transform="matrix(1.2140731,0,0,1.2140731,-12.720308,-13.263249)">
      <path
         style="font-weight:bold;font-size:5.82083px;line-height:1.25;font-family:'Optima Bold';-inkscape-font-specification:'Optima Bold,  Bold';fill:#f9f9f9;stroke-width:0.236439"
         d="m 38.608242,40.781641 h 2.788092 v 0.12484 q -0.275688,0.379722 -0.556578,0.759443 -0.28089,0.379722 -0.561779,0.769846 -0.28089,0.390125 -0.577386,0.811459 -0.291292,0.416134 -0.598191,0.863476 0.260083,0 0.514965,-0.0052 0.254882,-0.0052 0.504562,-0.0104 0.291292,-0.0104 0.546174,-0.03642 0.254881,-0.026 0.478553,-0.07282 l 0.208066,-0.0052 q -0.0052,0.03642 -0.0156,0.06242 -0.0052,0.026 -0.0104,0.05202 -0.0052,0.0208 -0.0052,0.04682 0,0.0208 0,0.04162 v 0.026 l 0.0052,0.026 q 0,0.0104 0,0.0208 0,0.0052 0,0.0104 0,0.0104 0,0.0156 0.0052,0.0052 0.0052,0.0156 0.0052,0.0156 0.0104,0.03121 0.0052,0.0104 0.0104,0.0156 h -0.208066 -2.949342 v -0.16125 l 2.247118,-3.152208 q -0.234075,0.0104 -0.457747,0.0156 -0.21847,0.0052 -0.431738,0.0156 -0.130042,0.0052 -0.254882,0.0156 -0.119638,0.0052 -0.239276,0.0104 -0.119638,0.0104 -0.234075,0.0156 -0.109234,0.0052 -0.21847,0.0156 l -0.208066,-0.0052 q 0.0052,-0.0104 0.0052,-0.026 0.0052,-0.0156 0.0104,-0.03121 0.0052,-0.0156 0.0052,-0.0312 0.0052,-0.0156 0.0104,-0.03122 v -0.0208 -0.0208 q 0,-0.0156 -0.0052,-0.03122 0,-0.0208 -0.0052,-0.04162 -0.0052,-0.0208 -0.0104,-0.04162 0,-0.02601 -0.0104,-0.04682 v -0.0104 h 0.208066 z M 41.9269,44.34478 v -3.646365 h 0.208067 q 0.0156,0.0104 0.03641,0.0208 0.0208,0.0052 0.04162,0.0104 0.0052,0 0.0104,0.0052 0.0104,0 0.0156,0 0.0052,0 0.0104,0 0.0104,0 0.0156,0 0,0 0,0 0.0052,0 0.0104,0 0.0052,0 0.0052,0 0.0052,0 0.0052,0 0.026,-0.0052 0.04682,-0.0104 0.026,-0.0104 0.04162,-0.0156 l 0.208066,-0.0052 v 1.513683 q 0.07282,0.0208 0.18726,0.03122 0.114437,0.0104 0.270487,0.0208 0.140445,0.0052 0.286091,0.0104 0.150849,0.0052 0.301697,0.0052 0.135243,0 0.260083,0 0.130041,-0.0052 0.254881,-0.0104 0.150848,-0.0104 0.265285,-0.0208 0.114437,-0.0104 0.182058,-0.026 v -1.529315 h 0.208067 q 0.0052,0.0104 0.0104,0.0156 0.0052,0 0.0104,0 0,0.0052 0.0052,0.0052 0.0052,0 0.0104,0 0.0104,0.0052 0.0208,0.0052 0.0104,0 0.0208,0 0.0052,0 0.0104,0.0052 0.0052,0 0.0104,0 0.0052,0.0052 0.0104,0.0052 0.0052,0 0.0104,0 0.0052,0 0.0052,0 0.0052,0 0.0104,0 0.02601,-0.0052 0.05202,-0.0104 0.03121,-0.0104 0.05202,-0.0156 l 0.208066,-0.0052 v 3.641164 h -0.208066 q -0.0208,0 -0.04682,0 -0.0208,-0.0052 -0.04682,-0.0104 0,0 -0.0052,0 0,0 0,0 0,0 -0.0052,0 0,0 0,0 0,0 -0.0052,0 0,0 -0.0052,0 -0.03121,0.0052 -0.06242,0.0104 -0.03121,0 -0.06242,0 h -0.208067 v -1.799776 q -0.03642,0 -0.08842,0 -0.04682,-0.0052 -0.104032,-0.0104 -0.05722,0 -0.12484,0 -0.06242,-0.0052 -0.135244,-0.0104 -0.114436,-0.0104 -0.239276,-0.0104 -0.12484,-0.0052 -0.260083,-0.0052 -0.02601,0 -0.05202,0 -0.026,0 -0.04682,0 -0.026,0.0052 -0.05202,0.0052 -0.0208,0 -0.04682,0 -0.03121,0 -0.06242,0 -0.03121,0 -0.06242,0 -0.03642,0.0052 -0.06762,0.0052 -0.03121,0 -0.06242,0 -0.03641,0 -0.07802,0.0052 -0.03642,0 -0.07282,0 -0.04162,0.0052 -0.07802,0.0104 -0.03642,0 -0.07802,0 -0.07802,0.0052 -0.150848,0.0104 -0.07282,0 -0.145646,0.0104 v 1.789371 h -0.208067 q -0.03121,0 -0.05722,0 -0.0208,-0.0052 -0.04682,-0.0104 -0.03121,0.0052 -0.06242,0.0104 -0.03122,0 -0.07282,0 H 41.9269 v 0 z m 4.057296,-1.799775 q 0,-0.0208 0,-0.04162 0,-0.026 0,-0.04682 0,-0.026 0,-0.05202 0.0052,-0.026 0.0104,-0.05202 0.03121,-0.3121 0.171656,-0.598192 0.140444,-0.291293 0.390124,-0.556578 0.244478,-0.265285 0.603393,-0.395326 0.358914,-0.135243 0.832266,-0.135243 l 0.208066,-0.0052 q 0.478553,0.0208 0.816661,0.130042 0.34331,0.109234 0.551377,0.322502 0.208066,0.208067 0.338108,0.43694 0.135243,0.228873 0.192462,0.478553 0.0104,0.03121 0.0156,0.06242 0.0052,0.03121 0.0104,0.05722 0.0052,0.03121 0.0104,0.06242 0.0052,0.03121 0.0104,0.06242 0.0104,0.06242 0.0104,0.12484 0.0052,0.05722 0.0104,0.114436 v 0.0104 0.0156 0.0208 0.0156 q 0,0.43694 -0.150848,0.78025 -0.145647,0.338108 -0.447343,0.582587 -0.301697,0.24968 -0.645007,0.369318 -0.338108,0.119638 -0.717829,0.119638 h -0.208066 q -0.0104,0 -0.0208,0 -0.0104,0 -0.0208,0 -0.0104,0 -0.026,0 -0.0104,0 -0.0208,0 -0.06762,0 -0.135243,-0.0052 -0.06242,0 -0.130042,-0.0104 -0.06762,-0.0052 -0.135243,-0.0208 -0.06762,-0.0156 -0.135243,-0.03121 -0.260083,-0.05722 -0.49936,-0.197664 -0.239277,-0.140444 -0.457747,-0.353712 -0.218469,-0.213269 -0.327704,-0.525369 -0.104033,-0.3173 -0.104033,-0.728232 v -0.0104 z m 0.743838,0.0052 q 0,0.40573 0.09883,0.71783 0.104034,0.306898 0.3121,0.525367 0.18726,0.197663 0.421335,0.306898 0.239276,0.109235 0.525368,0.12484 0.265284,-0.0156 0.483754,-0.12484 0.223672,-0.109235 0.400529,-0.306898 0.197662,-0.218469 0.3121,-0.530569 0.114436,-0.3121 0.145646,-0.707427 0,-0.0104 0,-0.0208 0,-0.0156 0,-0.0208 0,-0.0104 0,-0.0208 0,-0.0104 0,-0.0208 0,-0.338108 -0.104034,-0.6242 -0.09883,-0.286092 -0.301696,-0.514965 -0.192462,-0.208066 -0.43694,-0.322502 -0.239276,-0.114438 -0.530569,-0.130042 -0.254882,0.0156 -0.457746,0.109234 -0.202866,0.08843 -0.34331,0.254882 -0.15605,0.18726 -0.265285,0.390125 -0.104034,0.202864 -0.166453,0.421334 -0.0156,0.06762 -0.03121,0.130042 -0.0156,0.06242 -0.02601,0.12484 -0.0104,0.06242 -0.0208,0.12484 -0.0052,0.06242 -0.0156,0.119638 z m 4.093708,1.794573 v -3.604752 h 0.208067 0.24968 l 2.288727,2.517605 v -2.517605 h 0.208072 q 0.01037,0.0156 0.026,0.0208 0.01564,0.0052 0.03119,0.0104 0.02082,-0.0052 0.03637,-0.0104 0.01564,-0.0052 0.02601,-0.0104 l 0.208064,-0.0052 v 3.599551 h -0.208064 -0.202872 l -2.335542,-2.59563 v 2.59563 h -0.208067 q -0.0052,0 -0.0104,0 -0.0052,0 -0.0104,0 -0.0104,0 -0.0156,0 -0.0052,-0.0052 -0.0104,-0.0052 -0.0104,0 -0.0208,0 -0.0052,0 -0.0156,0.0052 -0.0104,0 -0.0208,0 -0.0052,0 -0.0156,0 h -0.208066 v 0 z m 4.062495,-1.763363 q 0.02082,-0.410931 0.119639,-0.717829 0.104036,-0.306899 0.286095,-0.504562 0.182059,-0.197663 0.379721,-0.332907 0.202863,-0.135243 0.421337,-0.208066 0.114429,-0.04162 0.223666,-0.06762 0.114439,-0.026 0.223676,-0.04162 0.109237,-0.0156 0.208064,-0.026 0.104036,-0.0104 0.187259,-0.0156 l 0.208064,-0.0052 q 0.166456,0.0052 0.332913,0.026 0.171648,0.0156 0.343305,0.05202 0.166457,0.03642 0.332913,0.104034 0.171648,0.06242 0.343305,0.150848 l -0.166456,0.442142 h -0.208064 q -0.026,-0.0104 -0.05719,-0.03122 -0.03119,-0.026 -0.06247,-0.05722 -0.03119,-0.0312 -0.06765,-0.06242 -0.03119,-0.03121 -0.07283,-0.06242 -0.07283,-0.05722 -0.166456,-0.109235 -0.09363,-0.05202 -0.202863,-0.09883 -0.08847,-0.04162 -0.202863,-0.06242 -0.109237,-0.026 -0.239278,-0.03121 -0.026,0 -0.05719,0.0052 -0.026,0 -0.05719,0.0052 -0.05201,0.0052 -0.109237,0.0156 -0.05201,0.0104 -0.109228,0.026 -0.192461,0.05202 -0.37452,0.166453 -0.176858,0.109235 -0.343314,0.28089 -0.161247,0.171654 -0.254881,0.421334 -0.09363,0.24968 -0.119639,0.587788 v 0.0156 0.0208 0.0208 0.0208 q -0.0054,0.384923 0.09884,0.697023 0.104027,0.3121 0.3121,0.551376 0.197662,0.223671 0.447342,0.343309 0.254881,0.114438 0.566981,0.130042 0.104036,-0.0052 0.197661,-0.0156 0.09884,-0.0156 0.192461,-0.03642 0.119639,-0.026 0.202863,-0.06242 0.08847,-0.04162 0.150854,-0.08843 v -1.362836 h 0.208063 q 0.01037,0.0104 0.02082,0.0156 0.01046,0 0.026,0.0052 0.01037,0.0052 0.02082,0.0104 0.01037,0 0.02082,0 0.0054,0 0.0054,0 0.0054,0 0.01037,0 0.0054,0.0052 0.0054,0.0052 0.0054,0 0.01037,0 0,0 0,0 0,0 0.0054,0 0,0 0,0 0,0 0,0 0.02601,-0.0052 0.05719,-0.0104 0.03119,-0.0104 0.06247,-0.0156 l 0.208064,-0.0052 v 1.513685 l -0.01564,0.0156 -0.01564,0.0052 q -0.026,0.0156 -0.06246,0.026 -0.03119,0.0104 -0.06765,0.0208 -0.03637,0.0156 -0.07801,0.026 -0.04164,0.0104 -0.08847,0.0208 -0.09362,0.0208 -0.18726,0.03641 -0.09363,0.0156 -0.197662,0.026 -0.09363,0.0156 -0.182059,0.02601 -0.0832,0.0156 -0.171657,0.0208 -0.0832,0.0104 -0.156045,0.0156 -0.07283,0.0052 -0.130041,0.0052 h -0.208073 q -0.01037,0 -0.026,0 -0.01037,0 -0.02082,0 -0.01037,0 -0.02601,0 -0.01037,0 -0.02082,0 -0.442141,0 -0.790656,-0.119638 -0.348507,-0.119638 -0.608589,-0.37452 -0.254881,-0.24968 -0.38493,-0.582586 -0.130041,-0.338109 -0.130041,-0.759443 v -0.0104 z m 5.37332,-0.03642 -1.107957,-1.763363 h 0.208072 q 0.03119,0.0156 0.06238,0.026 0.03637,0.0052 0.07283,0.0104 0.0054,0 0.01037,0 0.0054,0 0.01037,0 0.0054,0 0.01037,0.0052 0.0054,0 0.01037,0 0.0054,0 0.01046,0 0.0054,0 0.01564,-0.0052 0.0054,0 0.01037,0 0.0054,0 0.01037,0 0.04164,-0.0052 0.07283,-0.0104 0.03646,-0.0104 0.06765,-0.0156 l 0.208072,-0.0052 0.717826,1.180777 0.75424,-1.185979 h 0.208073 q 0.02082,0.0104 0.03637,0.0208 0.01564,0.0052 0.03119,0.0104 0.02601,-0.0052 0.04683,-0.0104 0.026,-0.0052 0.04683,-0.0104 l 0.208063,-0.0052 -1.107948,1.591708 1.232788,1.966228 H 61.89591 q -0.03637,0 -0.07801,0 -0.03646,-0.0052 -0.07801,-0.0104 -0.0054,0 -0.01046,0 -0.0054,0 -0.01037,-0.0052 -0.01037,0 -0.01564,0 -0.0054,0 -0.01037,0 -0.0054,0 -0.01037,0 -0.0054,0 -0.01037,0 -0.01046,0.0052 -0.01564,0.0052 -0.0054,0 -0.01037,0 -0.03637,0.0052 -0.07801,0.0104 -0.03646,0 -0.07801,0 h -0.208073 l -0.801049,-1.414851 -0.795857,1.414851 h -0.208064 -0.026 l -0.02082,-0.0104 q -0.0054,0.0052 -0.01037,0.0052 -0.0054,0 -0.01564,-0.0052 -0.0054,0 -0.01037,0 -0.0054,0 -0.01564,0 0,0 0,0 0,0 0,0 -0.0054,0 -0.0054,0 0,0 0,0 -0.03119,0.0052 -0.06765,0.0104 -0.03119,0 -0.07283,0 h -0.208072 l 1.232797,-1.799775 v 0 z m 2.704863,-1.804977 q 0.026,0.0156 0.04683,0.02601 0.026,0.0052 0.05719,0.0104 0.0054,0 0.0054,0 0.0054,0 0.01046,0 0.0054,0 0.0054,0 0.0054,0 0.01037,0 0.03119,-0.0052 0.05719,-0.0104 0.03119,-0.0104 0.05201,-0.0156 l 0.208064,-0.0052 v 3.59955 H 63.20727 q -0.02082,0 -0.05201,0 -0.026,-0.0052 -0.05201,-0.0104 -0.0054,0 -0.01037,0 0,0 -0.0054,0 -0.0054,0 -0.01046,0 -0.0054,0 -0.01037,0 -0.03119,0.0052 -0.05719,0.0104 -0.02082,0 -0.04683,0 h -0.208073 v -3.604752 h 0.208073 v 0 z m 0.988309,3.604753 1.638532,-3.646366 h 0.208064 0.119639 l 1.602107,3.646366 h -0.208064 q -0.01564,0 -0.03646,0 -0.01564,0 -0.03637,0 -0.02082,0 -0.04164,0 -0.01564,0 -0.04164,0 -0.01045,0 -0.026,0 -0.01037,0 -0.02082,-0.0052 -0.01037,0 -0.026,0 -0.01037,0 -0.02082,0 -0.01037,0.0052 -0.026,0.0052 -0.01046,0 -0.02082,0 -0.01037,0 -0.02082,0 -0.01037,0 -0.01564,0 -0.01037,0 -0.02082,0 -0.0054,0 -0.01564,0 h -0.208064 l -0.572182,-1.435659 h -1.06114 l -0.530574,1.435659 h -0.208064 q -0.01037,0 -0.026,0 -0.01046,0 -0.02082,0 l -0.02601,-0.0052 q -0.0054,0.0052 -0.01564,0.0052 -0.01037,0 -0.01564,0 -0.01037,0 -0.02082,0 -0.0054,0 -0.01564,0 h -0.208072 q -0.01564,0 -0.03119,0 -0.01564,0 -0.03119,0 v 0 z m 1.274414,-1.680138 h 0.853067 l -0.426529,-1.019525 z m 2.574814,-0.119638 q 0,-0.0208 0,-0.04162 0,-0.026 0,-0.04682 0,-0.026 0,-0.05202 0.0054,-0.026 0.01045,-0.05202 0.03119,-0.3121 0.171648,-0.598191 0.140452,-0.291293 0.390132,-0.556579 0.24447,-0.265284 0.603387,-0.395326 0.358917,-0.135243 0.832264,-0.135243 l 0.208072,-0.0052 q 0.478548,0.0208 0.816661,0.130042 0.343306,0.109235 0.551378,0.322503 0.208064,0.208066 0.338105,0.43694 0.135242,0.228873 0.192461,0.478553 0.01037,0.03121 0.01564,0.06242 0.0054,0.03121 0.01046,0.05722 0.0054,0.03121 0.01037,0.06242 0.0054,0.03121 0.01037,0.06242 0.01037,0.06242 0.01037,0.12484 0.0054,0.05722 0.01037,0.114436 v 0.0104 0.0156 0.0208 0.0156 q 0,0.43694 -0.150844,0.78025 -0.145653,0.338108 -0.447342,0.582586 -0.301698,0.24968 -0.645013,0.369318 -0.338104,0.119639 -0.717825,0.119639 H 69.81299 q -0.01037,0 -0.02082,0 -0.01037,0 -0.02082,0 -0.01037,0 -0.02601,0 -0.01037,0 -0.02082,0 -0.06765,0 -0.135242,-0.0052 -0.06247,0 -0.130041,-0.0104 -0.06765,-0.0052 -0.135242,-0.0208 -0.06765,-0.0156 -0.135242,-0.03121 -0.26009,-0.05722 -0.499359,-0.197664 -0.239279,-0.140445 -0.457753,-0.353713 -0.218466,-0.213268 -0.327703,-0.525368 -0.104036,-0.317301 -0.104036,-0.728233 v -0.0104 z m 0.743839,0.0052 q 0,0.40573 0.09883,0.71783 0.104036,0.306898 0.3121,0.525367 0.18726,0.197664 0.421337,0.306899 0.239269,0.109235 0.525365,0.12484 0.265282,-0.0156 0.483757,-0.12484 0.223666,-0.109235 0.400524,-0.306899 0.197662,-0.218469 0.3121,-0.530569 0.114438,-0.3121 0.145644,-0.707426 0,-0.0104 0,-0.0208 0,-0.0156 0,-0.0208 0,-0.0104 0,-0.0208 0,-0.0104 0,-0.0208 0,-0.338108 -0.104027,-0.6242 -0.09884,-0.286091 -0.301698,-0.514964 -0.192461,-0.208066 -0.43694,-0.322503 -0.239279,-0.114437 -0.530575,-0.130042 -0.254881,0.0156 -0.457743,0.109235 -0.202863,0.08843 -0.343306,0.254882 -0.156054,0.18726 -0.265292,0.390124 -0.104027,0.202865 -0.166447,0.421335 -0.01564,0.06762 -0.03119,0.130042 -0.01564,0.06242 -0.026,0.12484 -0.01037,0.06242 -0.02082,0.12484 -0.0054,0.06242 -0.01564,0.119638 z m 5.909095,-1.768565 h 1.841386 q -0.0054,0.0208 -0.01037,0.03641 0,0.0104 -0.0054,0.0208 -0.0054,0.0104 -0.0054,0.0208 0,0.0104 0,0.0208 -0.0054,0.0156 -0.01037,0.026 0,0.0104 0,0.0208 0,0.0104 0,0.026 0,0.0104 0,0.0208 0,0.0208 0,0.04682 0,0.0208 0.0054,0.04682 0.0054,0.0208 0.01037,0.04682 0.01037,0.0208 0.01564,0.04682 l -0.208063,-0.0052 q -0.02082,0.0052 -0.04164,0.0052 -0.01564,-0.0052 -0.03119,-0.0104 -0.01564,0 -0.03119,-0.0052 -0.01564,-0.0052 -0.03119,-0.0104 -0.07801,-0.0104 -0.156054,-0.0208 -0.07801,-0.0104 -0.150845,-0.0208 -0.07801,-0.0052 -0.156054,-0.0156 -0.07801,-0.0104 -0.156046,-0.0156 -0.104036,-0.0104 -0.213273,-0.0156 -0.109228,-0.0052 -0.218466,-0.0052 v 1.253601 h 0.572182 l 0.530566,-0.04162 h 0.208072 q -0.0054,0.02601 -0.01037,0.04682 -0.0054,0.0156 -0.01045,0.03121 0,0.0052 -0.0054,0.0156 0,0.0052 0,0.0104 -0.0054,0.0104 -0.0054,0.0156 0,0.0052 0,0.0156 v 0.0104 0.0208 q 0,0.02601 0,0.04682 0,0.0156 0.0054,0.03642 0,0.0104 0,0.0208 0.0054,0.0104 0.01046,0.0208 0.0054,0.0156 0.0054,0.026 0.0054,0.0104 0.01037,0.0208 l -0.208072,-0.0052 -0.530566,-0.04162 h -0.572182 v 1.799776 h -0.208063 q -0.02082,0 -0.04683,0 -0.02082,-0.0052 -0.04683,-0.0104 0,0 -0.0054,0 0,0 0,0 0,0 -0.0054,0 0,0 0,0 0,0 -0.0054,0 0,0 -0.0054,0 -0.03119,0.0052 -0.06246,0.0104 -0.03119,0 -0.06246,0 H 74.24383 v -3.563139 h 0.208073 v 0 z m 2.62164,2.169093 v -2.210707 h 0.208064 q 0.03646,0.0156 0.06765,0.02601 0.03646,0.0052 0.06765,0.0104 0.01564,0 0.03119,0 0.01564,0 0.03119,-0.0052 0.02082,-0.0052 0.04164,-0.0104 0.02082,-0.0052 0.04164,-0.0104 l 0.208063,-0.0052 v 2.127481 q 0,0.364116 0.07283,0.618997 0.07801,0.24968 0.234077,0.400528 0.140443,0.135244 0.317301,0.213268 0.176858,0.07282 0.384922,0.08322 0.260082,-0.0104 0.447342,-0.09363 0.192461,-0.08322 0.306903,-0.228874 0.12484,-0.166452 0.192461,-0.400528 0.07283,-0.239276 0.08847,-0.546174 v -2.179497 h 0.208063 q 0.01037,0.0104 0.01564,0.0156 0.0054,0 0.01564,0.0052 0.0054,0.0052 0.01046,0.0104 0.01037,0 0.01564,0 0.01037,0 0.01564,0 0.01037,-0.0052 0.01564,-0.0104 0.01037,-0.0052 0.01564,-0.0052 0.01037,-0.0052 0.01564,-0.0052 l 0.208064,-0.0052 v 2.085867 q 0,0.364117 -0.08838,0.65541 -0.0832,0.286091 -0.254881,0.504561 -0.171657,0.223672 -0.462953,0.332906 -0.291292,0.104034 -0.707429,0.104034 h -0.208063 q -0.01046,0 -0.026,0 -0.01037,0 -0.02082,0 -0.01037,0 -0.02601,0 -0.01037,0 -0.02082,0 -0.431739,0 -0.723026,-0.109235 -0.291296,-0.109235 -0.442141,-0.332907 -0.145652,-0.228872 -0.223675,-0.483754 -0.07283,-0.254882 -0.07283,-0.540973 v -0.0104 z M 82.2814,42.544963 81.173442,40.7816 h 0.208064 q 0.03119,0.0156 0.06247,0.02601 0.03646,0.0052 0.07283,0.0104 0.0054,0 0.01037,0 0.0054,0 0.01037,0 0.0054,0 0.01037,0.0052 0.0054,0 0.01037,0 0.0054,0 0.01037,0 0.0054,0 0.01564,-0.0052 0.0054,0 0.01037,0 0.0054,0 0.01037,0 0.04164,-0.0052 0.07283,-0.0104 0.03646,-0.0104 0.06765,-0.0156 l 0.208073,-0.0052 0.717825,1.180777 0.754241,-1.185979 h 0.208064 q 0.02082,0.0104 0.03646,0.0208 0.01564,0.0052 0.03119,0.0104 0.026,-0.0052 0.04683,-0.0104 0.026,-0.0052 0.04683,-0.0104 l 0.208064,-0.0052 -1.107949,1.591709 1.232789,1.966228 h -0.208064 q -0.03646,0 -0.07801,0 -0.03646,-0.0052 -0.07801,-0.0104 -0.0054,0 -0.01037,0 -0.0054,0 -0.01037,-0.0052 -0.01037,0 -0.01564,0 -0.0054,0 -0.01037,0 -0.0054,0 -0.01046,0 -0.0054,0 -0.01037,0 -0.01037,0.0052 -0.01564,0.0052 -0.0054,0 -0.01037,0 -0.03646,0.0052 -0.07801,0.0104 -0.03646,0 -0.07801,0 h -0.208064 l -0.801058,-1.414852 -0.795848,1.414852 h -0.208073 -0.02601 l -0.02082,-0.0104 q -0.0054,0.0052 -0.01046,0.0052 -0.0054,0 -0.01564,-0.0052 -0.0054,0 -0.01037,0 -0.0054,0 -0.01564,0 0,0 0,0 0,0 0,0 -0.0054,0 -0.0054,0 0,0 0,0 -0.03119,0.0052 -0.06765,0.0104 -0.03119,0 -0.07283,0 h -0.208064 l 1.232797,-1.799776 v 0 z m 2.704863,-1.804977 q 0.02601,0.0156 0.04683,0.02601 0.026,0.0052 0.05719,0.0104 0.0054,0 0.0054,0 0.0054,0 0.01046,0 0.0054,0 0.0054,0 0.0054,0 0.01037,0 0.03119,-0.0052 0.05719,-0.0104 0.03119,-0.0104 0.05201,-0.0156 l 0.208064,-0.0052 v 3.599551 h -0.208064 q -0.02082,0 -0.05201,0 -0.026,-0.0052 -0.05201,-0.0104 -0.0054,0 -0.01037,0 0,0 -0.0054,0 -0.0054,0 -0.01046,0 -0.0054,0 -0.01037,0 -0.03119,0.0052 -0.05719,0.0104 -0.02082,0 -0.04683,0 H 84.7784 v -3.604753 h 0.208073 v 0 z m 1.43566,3.604753 v -3.604753 h 0.208064 0.24968 l 2.288731,2.517606 v -2.517606 h 0.208073 q 0.01037,0.0156 0.026,0.0208 0.01564,0.0052 0.03119,0.0104 0.02082,-0.0052 0.03637,-0.0104 0.01564,-0.0052 0.026,-0.0104 l 0.208064,-0.0052 v 3.599551 H 89.496031 89.29316 l -2.335549,-2.59563 v 2.59563 h -0.208064 q -0.0054,0 -0.01037,0 -0.0054,0 -0.01045,0 -0.01037,0 -0.01564,0 -0.0054,-0.0052 -0.01037,-0.0052 -0.01037,0 -0.02082,0 -0.0054,0 -0.01564,0.0052 -0.01037,0 -0.02082,0 -0.0054,0 -0.01564,0 h -0.208064 v 0 z m 4.062496,-1.763364 q 0.02082,-0.410931 0.119639,-0.717829 0.104036,-0.306898 0.286095,-0.504562 0.182059,-0.197662 0.379721,-0.332906 0.202863,-0.135243 0.421329,-0.208066 0.114438,-0.04162 0.223675,-0.06762 0.114438,-0.02601 0.223675,-0.04162 0.109229,-0.0156 0.208064,-0.026 0.104036,-0.0104 0.18726,-0.0156 l 0.208064,-0.0052 q 0.166456,0.0052 0.332903,0.02601 0.171657,0.0156 0.343315,0.05202 0.166456,0.03641 0.332903,0.104034 0.171658,0.06242 0.343315,0.150848 l -0.166457,0.442141 h -0.208063 q -0.026,-0.0104 -0.05719,-0.03121 -0.03119,-0.02601 -0.06247,-0.05722 -0.03119,-0.03121 -0.06765,-0.06242 -0.03119,-0.03122 -0.07283,-0.06242 -0.07283,-0.05722 -0.166456,-0.109236 -0.09363,-0.05202 -0.202863,-0.09883 -0.08847,-0.04162 -0.202862,-0.06242 -0.109238,-0.026 -0.239279,-0.03121 -0.026,0 -0.05719,0.0052 -0.026,0 -0.05719,0.0052 -0.05201,0.0052 -0.109237,0.0156 -0.05201,0.0104 -0.109238,0.02601 -0.19246,0.05202 -0.37452,0.166452 -0.176849,0.109236 -0.343305,0.28089 -0.161255,0.171655 -0.254881,0.421335 -0.09363,0.24968 -0.119639,0.587788 v 0.0156 0.0208 0.0208 0.0208 q -0.0054,0.384923 0.09884,0.697023 0.104028,0.312099 0.3121,0.551376 0.197662,0.223671 0.447342,0.343309 0.254881,0.114437 0.566981,0.130042 0.104027,-0.0052 0.197662,-0.0156 0.09883,-0.0156 0.192461,-0.03641 0.119639,-0.02601 0.202863,-0.06242 0.08847,-0.04162 0.150853,-0.08843 v -1.362836 h 0.208064 q 0.01037,0.0104 0.02082,0.0156 0.01037,0 0.026,0.0052 0.01037,0.0052 0.02082,0.0104 0.01037,0 0.02082,0 0.0054,0 0.0054,0 0.0054,0 0.01037,0 0.0054,0.0052 0.0054,0.0052 0.0054,0 0.01037,0 0,0 0,0 0,0 0.0054,0 0,0 0,0 0,0 0,0 0.026,-0.0052 0.05719,-0.0104 0.03119,-0.0104 0.06246,-0.0156 l 0.208064,-0.0052 v 1.513684 l -0.01564,0.0156 -0.01564,0.0052 q -0.026,0.0156 -0.06246,0.026 -0.03119,0.0104 -0.06765,0.0208 -0.03646,0.0156 -0.07801,0.02601 -0.04164,0.0104 -0.08847,0.0208 -0.09363,0.0208 -0.18726,0.03641 -0.09364,0.0156 -0.197662,0.026 -0.09363,0.0156 -0.182059,0.026 -0.0832,0.0156 -0.171657,0.0208 -0.0832,0.0104 -0.156046,0.0156 -0.07283,0.0052 -0.130041,0.0052 h -0.208073 q -0.01037,0 -0.026,0 -0.01037,0 -0.02082,0 -0.01037,0 -0.026,0 -0.01037,0 -0.02082,0 -0.442141,0 -0.790656,-0.119638 -0.348506,-0.119639 -0.608597,-0.37452 -0.254881,-0.24968 -0.384922,-0.582587 -0.130041,-0.338108 -0.130041,-0.759442 v -0.0104 z"
         id="text8"
         aria-label="ZHONGXIAO FUXING" />
      <g
         id="g1"
         transform="matrix(0.89362912,0,0,0.89362912,-33.753112,15.453984)">
        <path
           style="font-weight:500;font-size:5.82083px;line-height:1.25;font-family:'Noto Sans JP';-inkscape-font-specification:'Noto Sans JP Medium';fill:#ffffff;stroke-width:0.264583"
           d="m 85.055171,38.306997 h 0.541337 v 1.146704 q 0,0.128058 0.05821,0.162983 0.06403,0.03493 0.28522,0.03493 0.04657,0 0.168804,0 0.128059,0 0.2794,0 0.151342,0 0.2794,0 0.133879,0 0.203729,0 0.128058,0 0.186267,-0.04657 0.06403,-0.04657 0.09313,-0.192087 0.0291,-0.145521 0.04075,-0.442383 0.05821,0.04657 0.14552,0.08731 0.08731,0.04075 0.180446,0.06985 0.09313,0.0291 0.162983,0.05239 -0.0291,0.384174 -0.110595,0.593724 -0.07567,0.20955 -0.227013,0.291042 -0.151341,0.08149 -0.42492,0.08149 -0.04657,0 -0.151342,0 -0.09895,0 -0.232833,0 -0.133879,0 -0.273579,0 -0.133879,0 -0.238654,0 -0.09895,0 -0.1397,0 -0.325966,0 -0.512233,-0.06403 -0.180446,-0.05821 -0.250296,-0.21537 -0.06403,-0.151342 -0.06403,-0.413279 z m 0.395817,-0.227012 0.384174,-0.314325 q 0.197909,0.110596 0.401638,0.256117 0.20955,0.139699 0.384174,0.291041 0.174625,0.145521 0.273579,0.285221 l -0.413279,0.349249 q -0.09895,-0.139699 -0.267758,-0.296862 -0.162983,-0.157162 -0.366712,-0.302683 -0.197908,-0.151342 -0.395816,-0.267758 z m 1.973261,0.413279 0.465666,-0.232833 q 0.221192,0.203729 0.430742,0.454024 0.20955,0.244475 0.372533,0.500592 0.168804,0.250295 0.256116,0.465666 l -0.512233,0.256117 q -0.07567,-0.20955 -0.232833,-0.459846 -0.151341,-0.256117 -0.35507,-0.512233 -0.20373,-0.256117 -0.424921,-0.471487 z m -3.15489,-0.162984 0.494771,0.151342 q -0.104775,0.424921 -0.285221,0.826558 -0.174625,0.395816 -0.506412,0.657754 l -0.459846,-0.302683 q 0.302683,-0.227013 0.48895,-0.582083 0.186267,-0.360892 0.267758,-0.750888 z m -0.215371,-2.840564 h 4.336519 v 2.171169 h -0.552979 v -1.670578 h -3.253844 v 1.717145 h -0.529696 z m 0.325967,1.472669 h 3.707869 v 0.494771 h -3.707869 z m 1.54252,-2.147886 h 0.552979 v 3.183994 h -0.552979 z m 3.498319,1.61237 h 5.256209 v 0.483129 h -5.256209 z m 0.541337,2.054753 h 4.679947 v 0.477308 h -4.679947 z m 0.675216,-1.12342 h 2.858027 v 0.442383 h -2.858027 z m -0.710141,-1.938336 h 3.352798 v 0.477308 h -3.352798 z m 1.507595,-0.605367 h 0.547158 v 1.862666 h -0.547158 z m 2.444748,0.215371 0.459846,0.261937 q -0.582083,0.704321 -1.338791,1.303866 -0.756708,0.593725 -1.61237,1.065212 -0.855662,0.471487 -1.740428,0.814916 -0.03493,-0.06403 -0.09895,-0.145521 -0.06403,-0.08731 -0.133879,-0.168804 -0.06403,-0.08731 -0.116417,-0.133879 0.896408,-0.308504 1.746249,-0.750887 0.849841,-0.448204 1.577445,-1.018645 0.727604,-0.570441 1.257299,-1.228195 z m -1.89759,3.137427 h 0.547158 v 1.47267 q 0,0.20955 -0.06403,0.320146 -0.05821,0.116416 -0.221192,0.180446 -0.168804,0.05239 -0.4191,0.06403 -0.244475,0.01746 -0.605366,0.01746 -0.02328,-0.116416 -0.08731,-0.256116 -0.05821,-0.1397 -0.116417,-0.244475 0.180446,0.0058 0.34925,0.0058 0.174625,0.0058 0.302683,0 0.133879,0 0.186266,0 0.07567,0 0.09896,-0.01746 0.0291,-0.02328 0.0291,-0.08149 z m 1.356253,-0.809095 h 0.1397 l 0.116417,-0.02328 0.343429,0.296862 q -0.221192,0.168804 -0.48895,0.343429 -0.261938,0.168804 -0.541337,0.320146 -0.2794,0.151341 -0.5588,0.267758 -0.05239,-0.06985 -0.133879,-0.157163 -0.08149,-0.09313 -0.1397,-0.14552 0.227012,-0.09313 0.471487,-0.232834 0.244475,-0.1397 0.448204,-0.28522 0.20955,-0.151342 0.343429,-0.2794 z m 4.324877,-2.549524 0.541337,0.128059 q -0.180446,0.49477 -0.454025,0.960437 -0.267758,0.459845 -0.570441,0.77417 -0.04657,-0.04657 -0.133879,-0.104775 -0.08731,-0.06403 -0.180446,-0.122237 -0.08731,-0.05821 -0.151342,-0.09313 0.302684,-0.279399 0.552979,-0.692678 0.250296,-0.413279 0.395817,-0.849842 z m 0.02328,0.570442 h 2.799821 v 0.454024 h -3.038475 z m 0.256117,1.82774 v 0.337608 h 1.676399 V 37.20686 Z m 0,-0.669395 v 0.325966 h 1.676399 v -0.325966 z m -0.494771,-0.366712 h 2.683405 v 1.734607 h -2.683405 z m 0.663575,1.583265 0.477308,0.1397 q -0.244475,0.436562 -0.634471,0.809096 -0.389995,0.372533 -0.791633,0.611187 -0.04075,-0.04657 -0.110595,-0.110596 -0.06985,-0.06403 -0.145521,-0.128058 -0.06985,-0.06403 -0.128058,-0.104775 0.401637,-0.20955 0.762528,-0.523875 0.360892,-0.320146 0.570442,-0.692679 z m -0.09313,0.750887 q 0.221192,0.331788 0.605367,0.587904 0.389995,0.256117 0.902228,0.424921 0.512235,0.162983 1.111775,0.232833 -0.0815,0.08149 -0.17462,0.215371 -0.0931,0.1397 -0.14552,0.244475 -0.628652,-0.09313 -1.152526,-0.302684 -0.518054,-0.209549 -0.919691,-0.523874 -0.395817,-0.320146 -0.663575,-0.739246 z m 0.01164,-0.244474 h 1.740428 v 0.378353 H 97.68055 Z m 1.600728,0 h 0.104775 l 0.09313,-0.02328 0.331787,0.162983 q -0.203728,0.413279 -0.529695,0.721783 -0.325966,0.302684 -0.745066,0.523875 -0.4191,0.215371 -0.902229,0.355071 -0.477308,0.1397 -0.989541,0.221191 -0.0291,-0.09895 -0.104775,-0.232833 -0.06985,-0.133879 -0.133879,-0.221192 0.471487,-0.05239 0.91387,-0.162983 0.448204,-0.116416 0.832379,-0.291041 0.384175,-0.174625 0.675216,-0.4191 0.291042,-0.244475 0.454025,-0.564621 z m -3.183994,-2.229378 0.48895,0.180445 q -0.197908,0.34925 -0.454025,0.6985 -0.256116,0.343429 -0.547158,0.651933 -0.28522,0.302683 -0.570441,0.541337 -0.02328,-0.06403 -0.08149,-0.157162 -0.05239,-0.09313 -0.110596,-0.192088 -0.05821,-0.09895 -0.104774,-0.151341 0.256116,-0.197908 0.512233,-0.448204 0.256116,-0.250296 0.477308,-0.535516 0.227012,-0.291042 0.389995,-0.587904 z m -0.122237,-1.216554 0.48895,0.192088 q -0.174625,0.250295 -0.407459,0.506412 -0.232833,0.256116 -0.483128,0.48895 -0.250296,0.232833 -0.500592,0.413278 -0.03492,-0.05821 -0.08731,-0.128058 -0.05239,-0.07567 -0.110596,-0.151341 -0.05239,-0.07567 -0.09895,-0.122238 0.221191,-0.157162 0.448204,-0.35507 0.227012,-0.203729 0.42492,-0.424921 0.197909,-0.221192 0.325967,-0.4191 z m -0.389996,2.374899 0.459846,-0.459846 0.05821,0.02328 v 3.480856 h -0.518054 z m 5.099049,1.175807 h 5.31442 v 0.512234 h -5.31442 z m 2.18281,-2.508777 h 0.94298 v 0.360891 h -0.94298 z m 1.63565,-0.756708 h 0.9197 v 0.454025 h -0.9197 z m 0.0291,1.094316 h 0.84402 v 0.448204 h -0.84402 z m 0,1.071033 h 0.82656 v 0.448204 h -0.82656 z M 101.662,36.194036 h 0.8382 v 0.448204 h -0.8382 z m 0.0175,1.071033 h 0.82074 v 0.448204 h -0.82074 z m 0.98372,-2.17117 h 2.0664 v 3.480856 H 104.3163 V 35.51882 h -1.2573 v 3.055935 h -0.39582 z m 0.84402,1.792816 v 0.663574 h 0.34925 v -0.663574 z m -0.25029,-0.337608 h 0.85566 v 1.33297 h -0.85566 z m -1.81028,-1.431925 0.60536,0.116417 q -0.0175,0.06403 -0.12805,0.08149 l 0.0931,3.271306 h -0.47149 z m 4.03383,-0.01746 h 0.48313 q -0.006,0.430741 -0.0175,0.91387 -0.006,0.483129 -0.0233,0.966258 -0.0175,0.483129 -0.0408,0.91387 -0.0175,0.430742 -0.0407,0.756708 h -0.47731 q 0.0291,-0.331787 0.0466,-0.768349 0.0233,-0.436563 0.0407,-0.919692 0.0175,-0.483128 0.0233,-0.960436 0.006,-0.477309 0.006,-0.902229 z m -3.03847,-0.261937 0.37253,0.413278 q -0.25029,0.128059 -0.52969,0.244475 -0.2794,0.116417 -0.52388,0.197909 -0.0175,-0.07567 -0.064,-0.186267 -0.0466,-0.116417 -0.0931,-0.197908 0.22119,-0.09895 0.45403,-0.227013 0.23283,-0.133879 0.38417,-0.244474 z m 1.71132,4.435472 0.40164,-0.366712 q 0.32015,0.14552 0.65193,0.314324 0.33179,0.162984 0.62283,0.325967 0.29687,0.162983 0.50642,0.296862 l -0.52388,0.378354 q -0.19209,-0.133879 -0.46567,-0.302683 -0.26775,-0.162983 -0.57626,-0.331787 -0.3085,-0.168804 -0.61701,-0.314325 z m -1.46102,-0.366712 0.50641,0.343429 q -0.22701,0.174625 -0.52388,0.35507 -0.29104,0.180446 -0.60536,0.337608 -0.30851,0.162984 -0.57626,0.2794 -0.0815,-0.08731 -0.20955,-0.203729 -0.12224,-0.110596 -0.2212,-0.186266 0.2794,-0.116417 0.58791,-0.267759 0.3085,-0.157162 0.58208,-0.331787 0.2794,-0.174625 0.45985,-0.325966 z"
           id="text9"
           aria-label="忠孝復興" />
        <path
           style="font-weight:500;font-size:5.82083px;line-height:1.25;font-family:'Noto Sans KR';-inkscape-font-specification:'Noto Sans KR Medium';fill:#ffffff;stroke-width:0.264583"
           d="m 114.69468,37.521187 h 0.61118 v 0.937154 h -0.61118 z m -2.0955,-0.203729 h 4.808 v 0.48895 h -4.808 z m 2.39236,0.960437 q 0.86148,0 1.34461,0.250296 0.48895,0.244474 0.48895,0.698499 0,0.454025 -0.48895,0.6985 -0.48313,0.244475 -1.34461,0.244475 -0.85566,0 -1.34461,-0.244475 -0.48313,-0.244475 -0.48313,-0.6985 0,-0.454025 0.48313,-0.698499 0.48895,-0.250296 1.34461,-0.250296 z m 0,0.471487 q -0.38417,0 -0.65775,0.05821 -0.27358,0.05239 -0.4191,0.157163 -0.1397,0.104775 -0.1397,0.261937 0,0.157163 0.1397,0.267758 0.14552,0.104775 0.4191,0.157163 0.27358,0.05239 0.65775,0.05239 0.39582,0 0.66357,-0.05239 0.27358,-0.05239 0.41328,-0.157163 0.1397,-0.110595 0.1397,-0.267758 0,-0.157162 -0.1397,-0.261937 -0.1397,-0.104775 -0.41328,-0.157163 -0.26775,-0.05821 -0.66357,-0.05821 z m -0.39582,-3.422648 h 0.54134 v 0.145521 q 0,0.250296 -0.099,0.471487 -0.099,0.215371 -0.28522,0.401637 -0.18627,0.180446 -0.44239,0.325967 -0.25611,0.145521 -0.57626,0.238654 -0.31432,0.09313 -0.68104,0.133879 l -0.21537,-0.477308 q 0.31433,-0.0291 0.58209,-0.09895 0.27358,-0.07567 0.48895,-0.180446 0.21537,-0.104775 0.36671,-0.232833 0.15134,-0.133879 0.23283,-0.2794 0.0873,-0.151342 0.0873,-0.302683 z m 0.27358,0 h 0.54134 v 0.145521 q 0,0.157162 0.0815,0.308504 0.0815,0.145521 0.23283,0.273579 0.15135,0.128058 0.36672,0.232833 0.22119,0.104775 0.48895,0.180446 0.27358,0.06985 0.5879,0.09895 l -0.21537,0.477308 q -0.36671,-0.04075 -0.68686,-0.133879 -0.31432,-0.09313 -0.57626,-0.232833 -0.25612,-0.145521 -0.44238,-0.325967 -0.18045,-0.186266 -0.2794,-0.407458 -0.099,-0.227012 -0.099,-0.471487 z m -1.83356,-0.232833 h 3.93488 v 0.483129 h -3.93488 z m 8.87677,1.059391 h 0.96043 v 0.506412 h -0.96043 z m 0,1.565803 h 0.96043 v 0.506412 h -0.96043 z m -2.70087,-2.421465 h 0.49477 v 0.873124 q 0,0.459846 -0.099,0.90805 -0.099,0.442383 -0.29104,0.832379 -0.18627,0.384174 -0.45403,0.686857 -0.26776,0.302684 -0.60536,0.483129 l -0.39582,-0.488949 q 0.3085,-0.151342 0.5588,-0.407458 0.2503,-0.261938 0.42492,-0.587904 0.18045,-0.331788 0.27358,-0.692679 0.0931,-0.366712 0.0931,-0.733425 z m 0.1106,0 h 0.49477 v 0.873124 q 0,0.360892 0.0873,0.715963 0.0873,0.349249 0.25612,0.657753 0.17462,0.308504 0.41328,0.552979 0.23865,0.238654 0.53551,0.378354 l -0.36671,0.48895 q -0.33761,-0.168804 -0.59954,-0.454025 -0.26194,-0.291041 -0.44821,-0.657754 -0.18044,-0.366712 -0.2794,-0.797453 -0.0931,-0.430742 -0.0931,-0.884767 z m 2.14206,-0.436562 h 0.61119 v 5.320238 h -0.61119 z m 3.94071,2.997727 h 0.61118 v 1.274762 h -0.61118 z m 0.3085,-2.683402 q 0.56462,0 1.00118,0.174624 0.44239,0.174625 0.6985,0.494771 0.25612,0.320146 0.25612,0.750887 0,0.436562 -0.25612,0.756708 -0.25611,0.320146 -0.6985,0.500591 -0.43656,0.174625 -1.00118,0.174625 -0.56462,0 -1.007,-0.174625 -0.44239,-0.180445 -0.6985,-0.500591 -0.25612,-0.320146 -0.25612,-0.756708 0,-0.430741 0.25612,-0.750887 0.25611,-0.320146 0.6985,-0.494771 0.44238,-0.174624 1.007,-0.174624 z m 0,0.483128 q -0.40164,0 -0.71014,0.116417 -0.30268,0.110596 -0.47731,0.320146 -0.17462,0.20955 -0.17462,0.500591 0,0.291042 0.17462,0.506412 0.17463,0.20955 0.47731,0.325967 0.3085,0.110595 0.71014,0.110595 0.39582,0 0.70432,-0.110595 0.3085,-0.116417 0.48313,-0.325967 0.17462,-0.21537 0.17462,-0.506412 0,-0.291041 -0.17462,-0.500591 -0.17463,-0.20955 -0.48313,-0.320146 -0.3085,-0.116417 -0.70432,-0.116417 z m -2.404,3.36444 h 4.81964 v 0.500591 h -4.81964 z m 7.42738,-3.894135 h 3.92906 v 0.48895 h -3.92906 z m 0.0291,1.82774 h 3.87086 v 0.48895 h -3.87086 z m 0.71597,-1.437745 h 0.61118 v 1.699683 h -0.61118 z m 1.82774,0 h 0.61118 v 1.699683 h -0.61118 z m -3.02101,2.462212 h 4.81964 v 0.500591 h -4.81964 z m 2.10132,0.221191 h 0.61118 v 1.973261 h -0.61118 z m 7.03156,-3.341156 h 0.61119 v 3.16071 h -0.61119 z m -1.15835,3.265485 q 0.5588,0 0.96044,0.122238 0.40164,0.122237 0.62283,0.349249 0.22119,0.227013 0.22119,0.547159 0,0.320145 -0.22119,0.552978 -0.22119,0.227013 -0.62283,0.343429 -0.40164,0.122238 -0.96044,0.122238 -0.55297,0 -0.96043,-0.122238 -0.40164,-0.116416 -0.62283,-0.343429 -0.21537,-0.232833 -0.21537,-0.552978 0,-0.320146 0.21537,-0.547159 0.22119,-0.227012 0.62283,-0.349249 0.40746,-0.122238 0.96043,-0.122238 z m 0,0.477308 q -0.37253,0 -0.64029,0.06403 -0.26775,0.06403 -0.41328,0.186267 -0.1397,0.116417 -0.1397,0.291042 0,0.174624 0.1397,0.296862 0.14553,0.116416 0.41328,0.180446 0.26776,0.05821 0.64029,0.05821 0.38418,0 0.64612,-0.05821 0.26776,-0.06403 0.40746,-0.180446 0.1397,-0.122238 0.1397,-0.296862 0,-0.174625 -0.1397,-0.291042 -0.1397,-0.122237 -0.40746,-0.186267 -0.26194,-0.06403 -0.64612,-0.06403 z m -1.29222,-3.50996 h 0.50641 v 0.512233 q 0,0.512233 -0.18044,0.966258 -0.17463,0.448204 -0.51224,0.785812 -0.33178,0.337608 -0.81491,0.506412 l -0.30269,-0.483129 q 0.31433,-0.110596 0.55298,-0.296862 0.24448,-0.186267 0.41328,-0.4191 0.16881,-0.238654 0.2503,-0.506412 0.0873,-0.273579 0.0873,-0.552979 z m 0.12224,0 h 0.49477 v 0.512233 q 0,0.267758 0.0873,0.523875 0.0873,0.250295 0.2503,0.471487 0.1688,0.215371 0.40745,0.384175 0.24448,0.162983 0.54716,0.261937 l -0.29686,0.477308 q -0.35507,-0.116417 -0.63447,-0.320146 -0.27358,-0.20955 -0.46567,-0.488949 -0.19208,-0.2794 -0.29104,-0.611187 -0.099,-0.331788 -0.099,-0.6985 z"
           id="text9-3"
           aria-label="중샤오 푸싱" />
      </g>
      <path
         style="font-weight:600;font-size:14.5521px;line-height:0.45;font-family:'Noto Serif TC';-inkscape-font-specification:'Noto Serif TC Semi-Bold';letter-spacing:1.32292px;fill:#ffffff;stroke-width:0.264583"
         d="m 37.418438,33.625932 c -0.01455,1.10596 -0.713053,2.095502 -1.353345,2.444753 -0.378355,0.218281 -0.611189,0.582084 -0.451116,0.960438 0.20373,0.436563 0.800366,0.465668 1.236929,0.145521 0.698501,-0.451115 1.353345,-1.688043 0.800365,-3.550712 z m 3.972723,-5.980913 v 2.63393 h -2.968628 v -2.63393 z m 4.394734,0 v 2.63393 h -3.012284 v -2.63393 z m -4.394734,3.055941 v 2.124606 h 0.232834 c 0.523875,0 1.149616,-0.320146 1.149616,-0.480219 V 30.70096 h 3.012284 v 0.916782 h 0.232834 c 0.451115,0 1.135064,-0.261938 1.149616,-0.34925 v -3.39064 c 0.305594,-0.05821 0.509324,-0.189177 0.611188,-0.305594 l -1.45521,-1.091407 -0.683949,0.742157 h -2.866763 v -1.65894 c 0.392906,-0.04366 0.509323,-0.203729 0.538427,-0.407458 l -1.920877,-0.174626 v 2.241024 H 38.53895 L 37.069187,26.61182 v 5.224204 h 0.189178 c 0.55298,0 1.164168,-0.291042 1.164168,-0.422011 V 30.70096 Z m 0.04366,2.299232 c 0.62574,0.640292 1.309689,1.688043 1.397001,2.590273 1.222377,0.960439 2.328336,-1.688043 -1.266033,-2.692138 z m 4.234661,1.775356 h -0.174626 c -0.247385,0.844022 -0.451115,1.484314 -0.611188,1.746252 -0.08731,0.160073 -0.145521,0.189177 -0.392906,0.218281 -0.247386,0.01455 -0.887679,0.01455 -1.644388,0.01455 h -1.906325 c -0.640292,0 -0.713053,-0.05821 -0.713053,-0.291043 v -2.881315 c 0.291042,-0.04366 0.422011,-0.174626 0.451115,-0.363803 L 38.844544,33.0584 v 3.696234 c 0,0.989542 0.34925,1.222376 1.877221,1.222376 h 2.008189 c 2.91042,0 3.550713,-0.203729 3.550713,-0.82947 0,-0.247385 -0.116417,-0.422011 -0.567532,-0.55298 z m -0.01455,-1.149616 c 0.800365,0.82947 1.586179,2.139159 1.702595,3.274223 1.38245,1.120511 2.575722,-1.949982 -1.557074,-3.376088 z m 12.004161,-4.08914 v -2.051846 h 2.939524 c -0.698501,0.683948 -1.498866,1.382449 -2.371992,2.051846 z m 4.671224,4.729432 h -3.405191 v -0.814917 c 0.305594,-0.04366 0.465667,-0.145521 0.494771,-0.349251 0.931334,-0.305594 2.00819,-0.756709 2.63393,-1.149616 0.320146,-0.01455 0.48022,-0.04366 0.611188,-0.160073 l -1.295136,-1.236928 -0.771262,0.742157 h -3.25967 c 0.771261,-0.422011 1.498866,-0.873126 2.168263,-1.338793 h 4.743984 c 0.20373,0 0.349251,-0.07276 0.392907,-0.232834 -0.567532,-0.523875 -1.498866,-1.251481 -1.498866,-1.251481 l -0.82947,1.062304 h -2.197367 c 1.251481,-0.916783 2.342888,-1.862669 3.18691,-2.779451 0.334698,0.145521 0.494771,0.101864 0.62574,-0.02911 l -1.55708,-1.222371 c -0.378354,0.494771 -0.814917,1.004095 -1.309689,1.513418 -0.538427,-0.465667 -1.193272,-0.97499 -1.193272,-0.97499 l -0.814917,1.018647 h -1.397002 v -1.542523 c 0.320146,-0.05821 0.436563,-0.189177 0.465667,-0.378354 l -1.862669,-0.174626 v 2.095503 h -3.841754 l 0.116417,0.422011 h 3.725337 v 2.051846 h -5.049578 l 0.116416,0.422011 h 6.330164 c -0.62574,0.465667 -1.280585,0.916782 -1.979086,1.338793 h -1.760804 l 0.130969,0.422011 h 0.945887 c -1.266033,0.742157 -2.604826,1.411554 -3.972724,1.964533 l 0.101865,0.218282 c 1.935429,-0.55298 3.768994,-1.309689 5.442485,-2.182815 h 3.812651 c -0.436563,0.436563 -1.062304,0.945886 -1.557075,1.309689 l -1.280585,-0.116417 v 1.353345 H 51.8528 l 0.116417,0.422011 h 5.573454 v 2.022742 c 0,0.189178 -0.05821,0.261938 -0.305594,0.261938 -0.305594,0 -1.949981,-0.116417 -1.949981,-0.116417 v 0.218282 c 0.727605,0.101864 1.091407,0.261938 1.324241,0.465667 0.232833,0.218281 0.305594,0.523876 0.363802,0.931334 1.717148,-0.145521 1.949982,-0.6985 1.949982,-1.702595 v -2.080951 h 5.311516 c 0.20373,0 0.349251,-0.07276 0.392907,-0.232833 -0.55298,-0.509324 -1.484314,-1.236929 -1.484314,-1.236929 z m 7.842261,-9.255135 c -0.596636,1.149616 -1.906325,2.881315 -3.128702,4.001827 l 0.130969,0.160073 c 1.629835,-0.785813 3.201462,-2.037294 4.147349,-3.012284 0.34925,0.07276 0.480219,0 0.567532,-0.145521 z m 7.421571,8.774916 c -0.436563,0.800366 -1.033199,1.498866 -1.775356,2.110055 -0.814918,-0.334699 -1.571627,-0.75671 -2.21192,-1.266033 0.27649,-0.261938 0.523876,-0.55298 0.75671,-0.844022 z m 0.538428,-5.165996 v 1.193273 h -4.176453 v -1.193273 z m -4.176453,2.866764 v -1.25148 h 4.176453 v 1.25148 z m 4.525703,1.149616 -0.82947,0.727605 h -2.968628 c 0.203729,-0.261938 0.363802,-0.523875 0.509323,-0.771261 0.363803,0.0291 0.48022,-0.0291 0.538428,-0.189177 l -1.775356,-0.436563 v -0.05821 h 4.176453 v 0.494772 h 0.218281 c 0.422011,0 1.062303,-0.291042 1.076856,-0.392907 V 28.83829 c 0.261937,-0.05821 0.480219,-0.189177 0.567531,-0.291042 l -1.367897,-1.047751 -0.640292,0.698501 h -3.94362 L 73.403144,27.93606 c 0.174625,-0.291042 0.34925,-0.582084 0.523876,-0.887678 h 6.242851 c 0.203729,0 0.334698,-0.07276 0.378354,-0.232834 -0.55298,-0.523876 -1.498866,-1.266033 -1.498866,-1.266033 l -0.814918,1.076856 h -4.103692 c 0.145521,-0.27649 0.27649,-0.567532 0.392907,-0.844022 0.320146,0.01455 0.480219,-0.116417 0.538428,-0.291042 L 73.17031,24.923775 c -0.261937,1.38245 -0.727605,2.794003 -1.25148,3.914515 l -1.62984,-0.858573 c -0.611189,1.484314 -1.949982,3.710786 -3.317879,5.165996 l 0.145521,0.160073 c 0.698501,-0.436563 1.353345,-0.945887 1.964533,-1.498867 v 6.723071 h 0.247386 c 0.567532,0 1.091408,-0.363803 1.10596,-0.494772 v -6.912247 c 0.261937,-0.05821 0.392906,-0.145521 0.436563,-0.261938 l -0.611189,-0.232834 c 0.48022,-0.538427 0.916783,-1.062303 1.251481,-1.52797 0.116417,0.01455 0.203729,0.0291 0.27649,0.01455 -0.130969,0.261938 -0.261938,0.509323 -0.392907,0.742157 l 0.20373,0.116417 c 0.378354,-0.305594 0.742157,-0.654845 1.076855,-1.062303 v 3.638025 h 0.189177 c 0.378355,0 0.75671,-0.145521 0.945887,-0.27649 -0.218282,0.582084 -0.494772,1.193272 -0.844022,1.775356 -0.363802,-0.363803 -0.669397,-0.771261 -0.916782,-1.207824 l -0.20373,0.145521 c 0.232834,0.552979 0.523876,1.062303 0.844022,1.513418 -0.422011,0.62574 -0.90223,1.222376 -1.382449,1.658939 l 0.160073,0.145521 c 0.582084,-0.320146 1.149616,-0.742157 1.673491,-1.207824 0.48022,0.582084 1.062304,1.076855 1.702596,1.513418 -1.149616,0.713053 -2.517513,1.280585 -4.074588,1.673492 l 0.08731,0.218282 c 1.862668,-0.27649 3.448847,-0.742158 4.773088,-1.411554 1.135064,0.62574 2.430201,1.076855 3.856307,1.397001 0.145521,-0.669396 0.538428,-1.105959 1.120512,-1.222376 l 0.01455,-0.174625 c -1.280585,-0.160073 -2.532066,-0.407459 -3.681682,-0.771262 0.887679,-0.640292 1.644388,-1.426105 2.197368,-2.313783 0.34925,-0.01455 0.509323,-0.07276 0.611188,-0.189178 z m 4.495279,5.835392 c 2.037294,-0.436563 4.060036,-1.338793 5.238756,-2.197367 0.422011,0.05821 0.683948,-0.01455 0.785813,-0.160073 l -1.877221,-1.004095 c -0.800365,1.047751 -2.561169,2.415649 -4.220109,3.172358 z m 8.134624,-2.808555 c 1.80446,0.756709 2.968628,1.746252 3.565264,2.532065 1.280585,1.207825 3.681682,-1.760804 -3.477952,-2.735794 z m -1.804461,-3.594369 v -2.386544 h 0.683949 v 2.386544 z M 89.9039,29.260302 h -0.538427 l -0.814918,-0.378355 v 4.511151 h 0.116417 c 0.320146,0 0.640292,-0.174625 0.640292,-0.247385 v -0.669397 h 0.683949 v 0.654845 h 0.116417 c 0.261938,0 0.654844,-0.189178 0.654844,-0.291042 v -3.143254 c 0.174625,-0.0291 0.320146,-0.116417 0.378355,-0.174625 l -0.82947,-0.654845 z m -1.513418,-1.164168 h 2.517513 c 0.20373,0 0.334699,-0.07276 0.363803,-0.218282 -0.363803,-0.378354 -0.960439,-0.887678 -0.960439,-0.887678 l -0.538428,0.698501 h -1.498866 z m -2.954076,3.914515 h 1.193272 c 0.160073,0 0.27649,-0.04366 0.334698,-0.160073 v 2.590274 h -1.469762 z m 1.52797,-3.11415 c -0.305594,-0.378354 -0.858574,-0.931334 -0.858574,-0.931334 l -0.494771,0.785813 h -0.247386 l -0.04366,-2.182815 h 0.0291 c 0.145521,-0.0291 0.261938,-0.05821 0.334698,-0.116416 0.451115,-0.145521 0.873126,-0.305595 1.135064,-0.422011 0.05821,0.0291 0.101865,0.04366 0.145521,0.04366 z m -1.586179,0.27649 h 1.251481 c 0.174625,0 0.27649,-0.04366 0.334698,-0.160073 v 2.735795 C 86.64423,31.355804 86.105802,30.788272 86.105802,30.788272 l -0.494771,0.800366 h -0.189177 z m 5.922705,-2.837659 v 8.10552 h -3.274223 v -8.10552 z m 1.527971,0.04366 h 1.120511 l -0.04366,2.371992 h -1.222376 l 0.130968,0.422011 h 1.091408 l -0.05821,2.415649 h -1.222377 l 0.130969,0.422011 h 1.091408 l -0.05821,2.430201 H 92.37775 v -8.003656 c 0.174626,-0.04366 0.320147,-0.116416 0.407459,-0.189177 z m 2.168262,8.061864 h -0.01455 l 0.174626,-7.887239 c 0.291042,-0.04366 0.42201,-0.101864 0.538427,-0.218281 l -1.295137,-1.076856 -0.582084,0.698501 h -1.120511 l 0.05821,0.189177 -1.018647,-0.800365 -0.55298,0.567532 H 88.1431 l -1.17872,-0.494772 v 0.320147 l -0.844022,-0.800366 c -0.189177,0.261938 -0.582084,0.742157 -0.97499,1.164168 l -1.047752,-0.363802 0.189178,8.702156 h -1.45521 l 0.116416,0.42201 h 13.417037 c 0.189177,0 0.334698,-0.07276 0.363802,-0.232833 -0.392906,-0.465667 -1.105959,-1.120512 -1.105959,-1.120512 z"
         id="text1"
         aria-label="忠孝復興" />
    </g>
    <g
       id="g9"
       transform="matrix(0.9520073,0,0,0.9520073,8.6556114,-1.5264868)">
      <path
         id="rect6"
         style="fill:none;stroke:#ffffff;stroke-width:0.575409"
         d="m 9.3009131,19.849001 h 5.7010479 c 1.810115,0 3.267355,1.45724 3.267355,3.267355 v 9.524719 c 0,1.810115 -1.45724,3.267355 -3.267355,3.267355 H 9.3009131 c -1.8101145,0 -3.2673547,-1.45724 -3.2673547,-3.267355 v -9.524719 c 0,-1.810115 1.4572402,-3.267355 3.2673547,-3.267355 z" />
      <path
         style="font-weight:bold;font-size:5.82083px;line-height:1.25;font-family:'Optima Bold';-inkscape-font-specification:'Optima Bold,  Bold';fill:#f9f9f9;stroke-width:0.264583"
         d="m 8.6851327,26.948961 v -3.987268 h 0.2328332 1.3795371 q 0.01164,0.01164 0.02328,0.01164 0.01746,0 0.0291,0 0.01164,0 0.02328,0 0.01746,0 0.02911,0 0.186266,0.0058 0.35507,0.05239 0.168804,0.04075 0.325967,0.122237 0.157162,0.07567 0.232833,0.232834 0.08149,0.151341 0.08149,0.384174 v 0.01746 0.01746 0.02328 0.01746 q 0,0.174625 -0.06403,0.331787 -0.06403,0.151342 -0.186266,0.291042 -0.122238,0.1397 -0.2794,0.227012 -0.157162,0.08149 -0.343429,0.116417 0.203729,0.03493 0.384175,0.09895 0.180445,0.06403 0.325966,0.157162 0.151342,0.09313 0.221192,0.273579 0.07567,0.174625 0.07567,0.430742 0,0.308504 -0.104775,0.535516 -0.09895,0.221192 -0.302684,0.355071 -0.197908,0.1397 -0.42492,0.21537 -0.221192,0.06985 -0.465667,0.07567 H 10.00064 q -0.00582,0 -0.017462,0 -0.00582,0 -0.011642,0 -0.011642,0 -0.017462,0 -0.00582,0 -0.017463,0 -0.017463,0 -0.034925,0 -0.011642,0 -0.023283,0 H 8.6851327 v 0 z m 0.7392454,-0.227012 h 0.3201457 q 0.203729,0.01164 0.3608912,-0.03492 0.162983,-0.05239 0.291042,-0.151342 0.122237,-0.09895 0.203729,-0.203729 0.08149,-0.110595 0.122237,-0.232833 0,-0.01164 0,-0.02328 0.0058,-0.01164 0.01164,-0.0291 0,-0.01164 0,-0.02328 0.0058,-0.01164 0.0058,-0.02328 0.0058,-0.02328 0.0058,-0.04657 0.0058,-0.02328 0.0058,-0.04657 0,-0.291042 -0.09313,-0.483129 -0.08731,-0.197908 -0.273579,-0.291042 -0.157162,-0.08149 -0.3958164,-0.128058 -0.238654,-0.04657 -0.5646205,-0.05239 v 1.769532 z m 0,-2.019828 h 0.1338791 q 0.2561165,0.01164 0.4540248,-0.03493 0.197908,-0.05239 0.337608,-0.151342 0.133879,-0.09895 0.20955,-0.244474 0.08149,-0.145521 0.09895,-0.337609 v -0.02328 l 0.0058,-0.01746 v -0.01164 -0.01746 q 0,-0.162983 -0.06985,-0.291041 -0.06985,-0.128058 -0.20955,-0.20955 -0.1397,-0.08149 -0.302683,-0.122237 -0.1571625,-0.04075 -0.3376082,-0.04075 l -0.3201457,-0.01164 v 1.513416 z m 3.0268279,2.24684 v -4.033835 h 0.232833 q 0.02328,0.01746 0.05239,0.0291 0.0291,0.0058 0.06403,0.01164 0,0 0,0 0.0058,0 0.01164,0 0.0058,0 0.0058,0 0.0058,0 0.0058,0 0.0058,0 0.0058,0 0.0058,0 0.01164,0 0,0 0,0 0.0058,0 0.01164,0 0.0291,-0.0058 0.05239,-0.01164 0.02911,-0.01164 0.04657,-0.01746 l 0.232833,-0.0058 v 3.707869 q 0.04075,0.01164 0.08731,0.01746 0.04657,0.0058 0.09895,0.0058 0.04657,0.0058 0.09313,0.0058 0.04657,0 0.09895,0 0.0291,0 0.05239,0 0.02328,0 0.04657,-0.0058 0.02328,0 0.04657,0 0.0291,0 0.05239,0 0.116417,-0.0058 0.227013,-0.01164 0.110596,-0.0058 0.221191,-0.01164 0.104775,-0.01164 0.192088,-0.01746 0.08731,-0.01164 0.157162,-0.01746 l 0.232833,-0.0058 q -0.0058,0.02328 -0.01164,0.04075 -0.0058,0.01746 -0.0058,0.03493 -0.0058,0.01746 -0.0058,0.03492 0,0.01746 0,0.0291 0,0.01746 0,0.03493 0,0.01746 0,0.0291 0,0.01746 0,0.03492 0.0058,0.01164 0.01164,0.02328 0,0.0058 0,0.01746 0,0.0058 0.0058,0.01746 0,0.0058 0,0.01746 0,0.0058 0,0.01164 l 0.0058,0.03493 h -0.232833 -2.10714 v 0 z"
         id="text6"
         aria-label="BL" />
      <path
         style="font-weight:bold;font-size:5.82083px;line-height:1.25;font-family:'Optima Bold';-inkscape-font-specification:'Optima Bold,  Bold';fill:#f9f9f9;stroke-width:0.264583"
         d="m 9.3516163,29.278575 q 0.1688041,-0.07567 0.3317873,-0.151341 0.1688041,-0.07567 0.3317874,-0.151342 0.162983,-0.06985 0.291041,-0.1397 0.133879,-0.06985 0.238654,-0.1397 l 0.232834,-0.0058 0.1397,0.04075 v 3.987269 h -0.232834 q -0.03492,-0.0058 -0.06403,-0.01746 -0.0291,-0.0058 -0.05821,-0.01164 -0.03492,0.0058 -0.06985,0.01164 -0.03493,0.01164 -0.08149,0.01746 H 10.178174 V 29.278575 L 9.7707161,29.511409 H 9.5378829 q -0.00582,0 -0.017462,-0.0058 -0.00582,-0.01164 -0.017463,-0.0291 -0.00582,-0.01164 -0.011642,-0.01746 -0.00582,-0.01164 -0.00582,-0.01746 -0.00582,-0.01164 -0.011642,-0.01746 -0.00582,-0.01164 -0.011642,-0.01746 -0.00582,-0.01164 -0.011642,-0.01746 -0.00582,-0.0058 -0.011642,-0.01746 -0.011642,-0.0058 -0.017462,-0.01164 -0.00582,-0.01164 -0.011642,-0.01746 -0.011642,-0.01746 -0.029104,-0.0291 -0.011642,-0.01746 -0.029104,-0.02328 v -0.01164 z m 3.5390697,2.846386 q 0.06403,0.104775 0.145521,0.186267 0.08731,0.07567 0.197908,0.128058 0.08149,0.04075 0.162983,0.06403 0.08731,0.02328 0.168804,0.03493 0.13388,-0.01746 0.261938,-0.07567 0.133879,-0.05821 0.244475,-0.151341 0.1397,-0.116417 0.20955,-0.302683 0.06985,-0.192088 0.06985,-0.454025 v -0.02328 -0.01746 -0.01164 -0.01746 q -0.01164,-0.244475 -0.08149,-0.4191 -0.06403,-0.174625 -0.180446,-0.2794 -0.09313,-0.08149 -0.192087,-0.128058 -0.09895,-0.04657 -0.215371,-0.06403 -0.05821,0.0058 -0.116417,0.01746 -0.05821,0.01164 -0.116416,0.03493 -0.06403,0.02328 -0.128058,0.05239 -0.05821,0.02328 -0.110596,0.05821 l -0.232833,-0.0058 -0.09313,-0.05239 v -1.920874 h 0.232834 1.926694 q 0,0.01746 0,0.0291 0,0.01164 0,0.01746 -0.0058,0.01164 -0.0058,0.02328 0,0.0058 0,0.01746 0,0.0058 0,0.01746 0,0.01164 0,0.01746 -0.0058,0.01164 -0.0058,0.02328 0,0.0058 0,0.01746 -0.0058,0.02328 -0.01164,0.04657 0,0.01746 0,0.03493 0,0.02328 0,0.04657 0,0.01746 0,0.04075 0,0.01164 0,0.02328 0,0.01164 0,0.02328 l 0.0058,0.03492 q 0,0.01746 0,0.0291 0,0.01164 0.0058,0.02328 0,0.01164 0,0.02328 0.0058,0.01164 0.01164,0.02328 l -0.232833,-0.0058 q -0.06985,-0.01164 -0.151342,-0.02328 -0.08149,-0.01746 -0.168804,-0.0291 -0.08731,-0.01164 -0.192087,-0.01746 -0.104775,-0.01164 -0.221192,-0.01164 l -0.686857,-0.01164 v 1.146703 q 0,0.0058 0,0.0058 0.0058,0 0.01164,-0.0058 0.0058,0 0.0058,0 0.0058,0 0.0058,0 0.07567,-0.01746 0.151341,-0.02328 0.08149,-0.01164 0.168805,-0.01164 l 0.232833,-0.0058 q 0.01164,0.0058 0.02328,0.0058 0.01746,0 0.03492,0 0.01164,0.0058 0.02328,0.0058 0.01746,0 0.03493,0 0.0291,0.0058 0.05821,0.01164 0.0291,0 0.05821,0 0.174625,0.0291 0.337608,0.110596 0.162983,0.07567 0.308504,0.203729 0.151342,0.128058 0.232833,0.331787 0.08149,0.203729 0.104775,0.477308 v 0.0058 0.01164 0.01164 0.01164 q 0,0.2794 -0.116416,0.506412 -0.110596,0.227012 -0.331788,0.407458 -0.221191,0.180446 -0.488949,0.267758 -0.267759,0.08731 -0.576263,0.08731 h -0.232833 q -0.04075,0 -0.08731,0 -0.04075,0 -0.08149,-0.0058 -0.04657,0 -0.08731,-0.0058 -0.04075,-0.0058 -0.08731,-0.01164 -0.04075,-0.0058 -0.08731,-0.01746 -0.04075,-0.01164 -0.08149,-0.02328 -0.04657,-0.01164 -0.08731,-0.01746 -0.04075,-0.01164 -0.08731,-0.0291 -0.0291,-0.01164 -0.05821,-0.01746 -0.0291,-0.01164 -0.05821,-0.02328 -0.0291,-0.01164 -0.05821,-0.02328 -0.0291,-0.01746 -0.05821,-0.03493 l 0.09313,-0.4191 h 0.232834 0.04657 v 0 z"
         id="text6-8"
         aria-label="15" />
    </g>
  </g>
</svg>
