<?xml version="1.0" encoding="UTF-8" standalone="no"?>
<!-- Created with Inkscape (http://www.inkscape.org/) -->

<svg
   width="500"
   height="250"
   viewBox="0 0 132.29166 66.145833"
   version="1.1"
   id="svg1"
   inkscape:version="1.3.2 (091e20e, 2023-11-25, custom)"
   sodipodi:docname="bl15_2.svg"
   xmlns:inkscape="http://www.inkscape.org/namespaces/inkscape"
   xmlns:sodipodi="http://sodipodi.sourceforge.net/DTD/sodipodi-0.dtd"
   xmlns="http://www.w3.org/2000/svg"
   xmlns:svg="http://www.w3.org/2000/svg">
  <sodipodi:namedview
     id="namedview1"
     pagecolor="#9e652e"
     bordercolor="#ffffff"
     borderopacity="1"
     inkscape:showpageshadow="0"
     inkscape:pageopacity="0"
     inkscape:pagecheckerboard="false"
     inkscape:deskcolor="#d1d1d1"
     inkscape:document-units="mm"
     inkscape:zoom="2.0208096"
     inkscape:cx="320.16871"
     inkscape:cy="67.299759"
     inkscape:window-width="1920"
     inkscape:window-height="1009"
     inkscape:window-x="1912"
     inkscape:window-y="-8"
     inkscape:window-maximized="1"
     inkscape:current-layer="layer1" />
  <defs
     id="defs1">
    <rect
       x="560.66638"
       y="34.144731"
       width="279.32397"
       height="128.59143"
       id="rect6" />
    <rect
       x="157.85752"
       y="62.351248"
       width="329.07603"
       height="135.09437"
       id="rect4" />
    <rect
       x="157.85751"
       y="62.35125"
       width="329.07602"
       height="135.09438"
       id="rect4-5" />
  </defs>
  <g
     inkscape:label="Layer 1"
     inkscape:groupmode="layer"
     id="layer1">
    <rect
       style="fill:#005fb9;fill-opacity:1;stroke:none;stroke-width:0.953294;stroke-dasharray:none"
       id="rect5"
       width="132.29167"
       height="66.145836"
       x="-2.5431316e-06"
       y="-1.2715658e-06"
       ry="0" />
    <g
       id="g4"
       transform="translate(-4.3520962)">
      <g
         id="g1"
         transform="translate(3.667187)">
        <path
           id="rect1"
           style="fill-opacity:0;stroke:#f9f9f9;stroke-width:0.942789"
           d="M 20.265186,14.352791 H 32.69035 c 3.927062,0 7.088559,3.161497 7.088559,7.088559 v 23.263136 c 0,3.927062 -3.161497,7.088559 -7.088559,7.088559 H 20.265186 c -3.927062,0 -7.088559,-3.161497 -7.088559,-7.088559 V 21.44135 c 0,-3.927062 3.161497,-7.088559 7.088559,-7.088559 z" />
        <path
           style="font-size:12.56px;line-height:1.25;font-family:'AR UDJingXiHeiE1G30 EB';-inkscape-font-specification:'AR UDJingXiHeiE1G30 EB';fill:#f9f9f9;stroke-width:0.261667"
           d="m 22.879293,30.522264 h -4.7728 v -9.08088 h 4.37088 q 1.29368,0 2.04728,0.628 0.7536,0.628 0.7536,1.67048 0,0.67824 -0.30144,1.1932 -0.28888,0.5024 -0.8792,0.82896 0.76616,0.30144 1.15552,0.82896 0.40192,0.52752 0.40192,1.256 0,1.20576 -0.79128,1.9468 -0.79128,0.72848 -1.98448,0.72848 z m 0.74104,-6.58144 q 0,-0.61544 -0.35168,-0.92944 -0.35168,-0.32656 -1.01736,-0.32656 h -2.54968 v 2.56224 h 2.6376 q 0.5652,0 0.91688,-0.32656 0.36424,-0.33912 0.36424,-0.97968 z m 0.3768,3.8936 q 0,-0.65312 -0.40192,-0.99224 -0.38936,-0.35168 -1.02992,-0.35168 h -2.86368 v 2.78832 h 2.83856 q 0.66568,0 1.05504,-0.36424 0.40192,-0.36424 0.40192,-1.08016 z m 9.633528,2.68784 h -6.38048 v -9.08088 h 1.59512 v 7.83744 h 4.78536 z"
           id="text2"
           aria-label="BL" />
        <path
           style="font-size:14.3917px;line-height:1.25;font-family:'AR UDJingXiHeiE1G30 EB';-inkscape-font-specification:'AR UDJingXiHeiE1G30 EB';fill:#f9f9f9;stroke-width:0.261667"
           d="m 21.570176,36.584172 -1.683829,1.568695 -0.834719,-1.280861 2.70564,-2.460981 h 1.568695 v 10.405199 h -1.755787 z m 9.210677,2.590506 q -0.618843,0 -1.064985,0.230267 -0.446143,0.215876 -0.76276,0.662018 l -1.611871,-0.1727 0.777152,-5.483238 h 5.814247 v 1.424779 h -4.346294 l -0.402967,2.720031 q 0.359792,-0.402968 0.863502,-0.604452 0.518101,-0.215875 1.208902,-0.215875 1.482346,0 2.345848,0.964244 0.863502,0.964244 0.863502,2.633681 0,1.741396 -0.964244,2.70564 -0.964244,0.964243 -2.70564,0.964243 -1.712612,0 -2.676856,-0.84911 -0.964244,-0.84911 -0.993027,-2.28828 h 1.770179 q -0.01439,0.67641 0.460534,1.194511 0.474926,0.518101 1.395995,0.518101 0.877894,0 1.381603,-0.575668 0.518101,-0.59006 0.518101,-1.69822 0,-1.036203 -0.532493,-1.583087 -0.532492,-0.546885 -1.338428,-0.546885 z"
           id="text3"
           aria-label="15" />
        <path
           style="font-weight:500;font-size:72px;line-height:1.25;font-family:'Noto Sans TC';-inkscape-font-specification:'Noto Sans TC Medium';white-space:pre;fill:#f9f9f9"
           d="m 178.23342,116.00141 h 7.056 v 14.904 q 0,1.584 0.792,2.088 0.864,0.504 3.816,0.504 0.648,0 2.304,0 1.728,0 3.744,0 2.016,0 3.744,0 1.8,0 2.664,0 1.728,0 2.592,-0.648 0.864,-0.648 1.224,-2.592 0.36,-1.944 0.504,-5.904 0.792,0.576 1.944,1.152 1.152,0.504 2.376,0.936 1.224,0.36 2.16,0.648 -0.432,5.112 -1.44,7.92 -1.008,2.736 -3.096,3.816 -2.088,1.08 -5.688,1.08 -0.576,0 -2.016,0 -1.368,0 -3.168,0 -1.728,0 -3.528,0 -1.728,0 -3.168,0 -1.368,0 -1.872,0 -4.32,0 -6.696,-0.792 -2.376,-0.792 -3.312,-2.736 -0.936,-1.944 -0.936,-5.4 z m 9.432,0 5.256,-3.744 q 1.872,1.44 3.96,3.24 2.088,1.8 3.96,3.6 1.872,1.728 3.024,3.168 l -5.472,4.176 q -1.08,-1.44 -2.952,-3.24 -1.8,-1.872 -3.816,-3.744 -2.016,-1.944 -3.96,-3.456 z m 22.464,2.376 5.904,-2.88 q 1.872,2.448 3.96,5.472 2.16,3.024 3.96,5.904 1.872,2.88 3.024,5.112 l -6.264,3.456 q -1.008,-2.232 -2.808,-5.184 -1.8,-2.952 -3.888,-6.048 -2.016,-3.168 -3.888,-5.832 z m -41.76,-2.448 6.048,2.448 q -0.936,2.808 -2.16,6.12 -1.224,3.24 -2.592,6.408 -1.296,3.168 -2.808,5.616 l -6.408,-2.88 q 1.584,-2.376 3.096,-5.4 1.512,-3.024 2.736,-6.192 1.296,-3.24 2.088,-6.12 z m 22.032,-41.256004 h 6.84 v 38.808004 h -6.84 z m -16.704,14.472 v 11.736004 h 40.536 V 89.145406 Z m -6.552,-6.12 h 53.928 v 23.904004 h -53.928 z m 66.24,11.592 h 65.016 v 5.976004 h -65.016 z m 6.12,25.416004 h 57.888 v 5.904 h -57.888 z m 13.68,-13.896 h 30.6 v 5.472 h -30.6 z m -13.536,-23.976004 h 40.32 v 5.904 h -40.32 z m 18.288,-7.488 h 6.696 v 23.04 h -6.696 z m 30.6,2.664 5.688,3.24 q -7.2,8.712 -16.56,16.128 -9.36,7.344004 -19.944,13.176004 -10.584,5.832 -21.528,10.08 -0.432,-0.792 -1.224,-1.8 -0.792,-1.08 -1.656,-2.088 -0.792,-1.08 -1.44,-1.656 11.088,-3.816 21.6,-9.288 10.512,-5.544004 19.512,-12.600004 9,-7.056 15.552,-15.192 z m -23.616,39.456004 h 6.696 v 17.568 q 0,2.52 -0.72,3.888 -0.72,1.44 -2.808,2.16 -2.016,0.72 -5.112,0.864 -3.096,0.144 -7.488,0.144 -0.288,-1.368 -1.08,-3.096 -0.72,-1.728 -1.44,-3.024 2.232,0.072 4.32,0.144 2.16,0 3.744,0 1.656,-0.072 2.304,-0.072 0.936,0 1.224,-0.216 0.36,-0.288 0.36,-1.008 z m 16.92,-10.656 h 1.728 l 1.512,-0.288 4.176,3.744 q -2.88,2.016 -6.408,4.104 -3.456,2.016 -7.2,3.816 -3.672,1.728 -7.344,3.096 -0.576,-0.864 -1.656,-2.016 -1.008,-1.152 -1.728,-1.8 3.096,-1.08 6.336,-2.664 3.24,-1.656 6.048,-3.384 2.808,-1.8 4.536,-3.312 z m 57.312,-2.016 v 4.104 h 20.376 v -4.104 z m 0,-8.352004 v 3.96 h 20.376 v -3.96 z m -6.12,-4.752 h 32.832 v 21.888004 h -32.832 z m 3.528,-16.344 6.264,1.584 q -2.088,5.904 -5.544,11.376 -3.384,5.4 -7.128,9 -0.576,-0.504 -1.584,-1.296 -1.008,-0.792 -2.016,-1.512 -1.008,-0.72 -1.8,-1.152 3.816,-3.24 6.912,-7.992 3.096,-4.752 4.896,-10.008 z m 0.936,6.912 h 32.616 v 5.472 h -35.352 z m 3.744,29.376004 5.976,1.728 q -3.168,5.472 -8.136,10.08 -4.968,4.536 -10.224,7.56 -0.432,-0.648 -1.296,-1.44 -0.864,-0.792 -1.8,-1.584 -0.864,-0.864 -1.512,-1.368 5.184,-2.52 9.72,-6.408 4.608,-3.96 7.272,-8.568 z m -2.088,5.76 h 22.824 v 5.04 h -27.432 z m 20.592,0 h 1.296 l 1.152,-0.288 4.248,2.232 q -2.592,5.112 -6.768,8.928 -4.176,3.816 -9.432,6.624 -5.256,2.736 -11.304,4.536 -5.976,1.872 -12.24,2.952 -0.288,-0.792 -0.864,-1.872 -0.504,-1.008 -1.152,-2.088 -0.576,-1.08 -1.152,-1.728 5.832,-0.792 11.448,-2.232 5.616,-1.512 10.44,-3.744 4.896,-2.304 8.568,-5.328 3.672,-3.096 5.76,-7.056 z m -27.792,-2.088 q 3.6,5.4 9.504,9.576 5.904,4.104 13.536,6.912 7.704,2.808 16.488,4.104 -0.648,0.72 -1.44,1.8 -0.792,1.08 -1.512,2.16 -0.72,1.152 -1.152,2.016 -8.928,-1.728 -16.632,-5.04 -7.632,-3.312 -13.752,-8.208 -6.048,-4.968 -10.08,-11.448 z m -11.592,-23.976004 6.048,2.376 q -2.376,4.392 -5.616,8.784004 -3.24,4.392 -6.768,8.28 -3.456,3.816 -6.984,6.768 -0.288,-0.792 -0.936,-2.088 -0.576,-1.296 -1.296,-2.592 -0.72,-1.368 -1.296,-2.232 3.096,-2.304 6.192,-5.4 3.168,-3.168 5.904,-6.696004 2.736,-3.6 4.752,-7.2 z m -1.44,-15.84 6.552,2.52 q -2.088,3.24 -4.968,6.552 -2.88,3.24 -6.048,6.192 -3.168,2.88 -6.336,5.112 -0.36,-0.792 -1.008,-1.872 -0.576,-1.08 -1.296,-2.088 -0.72,-1.08 -1.224,-1.728 2.664,-1.872 5.4,-4.32 2.808,-2.448 5.184,-5.184 2.376,-2.736 3.744,-5.184 z m -5.112,30.024004 6.624,-6.624004 0.288,0.144 v 43.128004 h -6.912 z m 63.288,13.32 h 65.448 v 6.336 h -65.448 z m 26.712,-30.312004 h 11.664 v 4.464 h -11.664 z m 20.808,-10.08 h 11.304 v 5.616 h -11.304 z m 0.288,13.968 h 10.368 v 5.544 h -10.368 z m -0.504,13.248004 h 10.296 v 5.544 h -10.296 z m -39.744,-13.392004 h 10.368 v 5.472 h -10.368 z m 0.216,13.248004 h 10.44 v 5.472 h -10.44 z m 12.168,-26.640004 h 25.56 v 43.056004 h -5.112 V 83.457406 h -15.48 v 37.800004 h -4.968 z m 10.584,22.536004 v 8.208 h 4.392 v -8.208 z m -3.096,-4.176004 h 10.656 v 16.488004 h -10.656 z m 27.792,-18.792 h 6.048 q -0.072,5.328 -0.216,11.376 -0.144,6.048 -0.36,12.096004 -0.216,5.976 -0.504,11.376 -0.216,5.4 -0.504,9.504 h -5.832 q 0.288,-4.176 0.576,-9.648 0.288,-5.472 0.432,-11.448 0.216,-6.048004 0.288,-12.024004 0.144,-5.976 0.072,-11.232 z m -38.592,-2.448 3.096,5.832 q -3.24,1.08 -6.912,2.088 -3.672,1.008 -6.768,1.656 -0.144,-1.08 -0.648,-2.448 -0.504,-1.44 -0.936,-2.592 3.024,-0.936 6.336,-2.16 3.384,-1.224 5.832,-2.376 z m -12.168,4.536 5.832,1.728 1.152,38.232004 h -5.904 z m 34.704,49.392004 3.744,-4.752 q 3.816,1.8 7.704,3.816 3.888,1.944 7.344,3.888 3.456,1.944 5.904,3.6 l -4.464,5.184 q -2.304,-1.656 -5.688,-3.744 -3.312,-2.016 -7.056,-4.104 -3.744,-2.088 -7.488,-3.888 z m -18.648,-4.176 5.616,4.248 q -3.024,2.232 -6.84,4.464 -3.744,2.16 -7.632,4.104 -3.888,2.016 -7.488,3.528 -0.648,-1.08 -1.8,-2.592 -1.152,-1.512 -2.088,-2.592 3.456,-1.296 7.2,-3.168 3.816,-1.944 7.272,-4.032 3.528,-2.088 5.76,-3.96 z"
           id="text4"
           transform="matrix(0.26166763,0,0,0.26166763,2.2205965,-4.0633201)"
           aria-label="忠孝復興" />
        <path
           style="font-size:7.32669px;line-height:1.25;font-family:'AR UDJingXiHeiE1G30 EB';-inkscape-font-specification:'AR UDJingXiHeiE1G30 EB';fill:#f9f9f9;stroke-width:0.261667"
           d="m 44.626817,35.589222 h 4.146907 v 0.666729 l -3.194437,3.905125 h 3.267704 v 0.725343 H 44.385037 V 40.21969 l 3.194437,-3.905126 h -2.952657 z m 6.007887,2.945329 v 2.351868 h -0.93049 v -5.297197 h 0.93049 v 2.219987 h 2.542361 v -2.219987 h 0.93049 v 5.297197 h -0.93049 v -2.351868 z m 9.781133,-0.271087 q 0,1.274844 -0.710689,2.000186 -0.703363,0.718016 -1.92692,0.718016 -1.245537,0 -1.9489,-0.725343 -0.703362,-0.725342 -0.703362,-1.992859 0,-1.289498 0.710689,-2.022167 0.710689,-0.739996 1.941573,-0.739996 1.245537,0 1.941573,0.732669 0.696036,0.732669 0.696036,2.029494 z m -2.637609,1.992859 q 0.798609,0 1.230884,-0.527521 0.439601,-0.527522 0.439601,-1.465338 0,-0.93049 -0.439601,-1.479992 -0.439601,-0.556828 -1.230884,-0.556828 -0.805936,0 -1.252864,0.564155 -0.439601,0.556828 -0.439601,1.472665 0,0.937816 0.446928,1.465338 0.446928,0.527521 1.245537,0.527521 z m 4.579183,-3.194437 v 3.824533 h -0.93049 v -5.297197 h 0.959796 l 2.600975,3.912452 v -3.912452 h 0.93049 v 5.297197 h -1.01841 z m 8.66747,3.179784 q -0.271088,0.380988 -0.681383,0.564155 -0.402968,0.175841 -0.923163,0.175841 -1.142963,0 -1.817019,-0.718016 -0.674055,-0.725342 -0.674055,-2.022166 0,-1.304151 0.710689,-2.022167 0.710689,-0.718016 1.919593,-0.718016 0.974449,0 1.582565,0.446929 0.615442,0.439601 0.739995,1.26019 h -0.930489 q -0.07327,-0.432274 -0.432275,-0.703362 -0.351681,-0.278414 -0.959796,-0.278414 -0.813263,0 -1.238211,0.527521 -0.424948,0.520195 -0.424948,1.487319 0,1.033063 0.446928,1.523951 0.446928,0.483562 1.216231,0.483562 0.674055,0 1.069696,-0.395642 0.395642,-0.395641 0.395642,-0.908509 v -0.109901 h -1.501972 v -0.725342 h 2.395828 v 2.776816 h -0.893856 z m 5.114025,-4.652448 h 1.077023 l -1.824346,2.557015 1.92692,2.740182 h -1.08435 l -1.384745,-2.044147 -1.384744,2.044147 H 72.40962 l 1.912266,-2.747509 -1.831672,-2.549688 h 1.091677 l 1.274844,1.904939 z m 2.718203,0 v 5.297197 H 77.92662 v -5.297197 z m 4.037,3.157803 -0.835243,-2.263947 -0.849896,2.263947 z m -1.956227,0.725343 -0.527521,1.414051 h -0.945143 l 2.132066,-5.297197 h 0.95247 l 2.117414,5.297197 h -0.967123 l -0.534849,-1.414051 z m 9.429447,-1.208904 q 0,1.274844 -0.710689,2.000186 -0.703362,0.718016 -1.92692,0.718016 -1.245537,0 -1.948899,-0.725343 -0.703363,-0.725342 -0.703363,-1.992859 0,-1.289498 0.710689,-2.022167 0.710689,-0.739996 1.941573,-0.739996 1.245538,0 1.941573,0.732669 0.696036,0.732669 0.696036,2.029494 z m -2.637609,1.992859 q 0.79861,0 1.230884,-0.527521 0.439602,-0.527522 0.439602,-1.465338 0,-0.93049 -0.439602,-1.479992 -0.439601,-0.556828 -1.230884,-0.556828 -0.805936,0 -1.252864,0.564155 -0.439601,0.556828 -0.439601,1.472665 0,0.937816 0.446928,1.465338 0.446928,0.527521 1.245537,0.527521 z m 6.498769,-1.721772 v 2.351868 h -0.93049 v -5.297197 h 3.714632 v 0.725342 h -2.784142 v 1.494645 h 2.447115 v 0.725342 z m 8.000751,0.498215 q 0,0.923163 -0.57881,1.436031 -0.57881,0.512869 -1.64851,0.512869 -1.084346,0 -1.670481,-0.505542 -0.578809,-0.505542 -0.578809,-1.436031 v -3.450871 h 0.93049 v 3.406911 q 0,0.600788 0.329701,0.930489 0.329701,0.329701 0.989099,0.329701 0.62277,0 0.95247,-0.315047 0.33703,-0.322375 0.33703,-0.959797 v -3.392257 h 0.93782 z m 4.30077,-3.443544 h 1.07702 l -1.82434,2.557015 1.92692,2.740182 h -1.08435 l -1.38475,-2.044147 -1.38474,2.044147 h -1.05505 l 1.91227,-2.747509 -1.83167,-2.549688 h 1.09167 l 1.27485,1.904939 z m 2.7182,0 v 5.297197 h -0.93049 v -5.297197 z m 2.14671,1.472664 v 3.824533 h -0.93049 v -5.297197 h 0.9598 l 2.60098,3.912452 v -3.912452 h 0.93049 v 5.297197 h -1.01841 z m 8.66748,3.179784 q -0.27109,0.380988 -0.68139,0.564155 -0.40296,0.175841 -0.92316,0.175841 -1.14296,0 -1.81702,-0.718016 -0.67405,-0.725342 -0.67405,-2.022166 0,-1.304151 0.71069,-2.022167 0.71068,-0.718016 1.91959,-0.718016 0.97445,0 1.58256,0.446929 0.61545,0.439601 0.74,1.26019 h -0.93049 q -0.0733,-0.432274 -0.43228,-0.703362 -0.35168,-0.278414 -0.95979,-0.278414 -0.81326,0 -1.23821,0.527521 -0.42495,0.520195 -0.42495,1.487319 0,1.033063 0.44693,1.523951 0.44693,0.483562 1.21623,0.483562 0.67405,0 1.06969,-0.395642 0.39565,-0.395641 0.39565,-0.908509 v -0.109901 h -1.50198 v -0.725342 h 2.39583 v 2.776816 h -0.89385 z"
           id="text5"
           aria-label="ZHONGXIAO FUXING" />
        <path
           d="m 46.197123,47.806064 h 0.681383 v 1.443358 q 0,0.161187 0.07327,0.205148 0.08059,0.04396 0.359008,0.04396 0.05861,0 0.212474,0 0.161188,0 0.351681,0 0.190494,0 0.351682,0 0.168513,0 0.256434,0 0.161187,0 0.234454,-0.05861 0.08059,-0.05861 0.117227,-0.241781 0.03663,-0.183167 0.05129,-0.556828 0.07327,0.05861 0.183167,0.1099 0.1099,0.05129 0.227127,0.08792 0.117227,0.03663 0.205148,0.06594 -0.03663,0.483561 -0.139207,0.747322 -0.09525,0.263761 -0.285741,0.366335 -0.190494,0.102573 -0.534849,0.102573 -0.05861,0 -0.190494,0 -0.124553,0 -0.293067,0 -0.168514,0 -0.344355,0 -0.168514,0 -0.300394,0 -0.124554,0 -0.175841,0 -0.410294,0 -0.644748,-0.08059 -0.227128,-0.07327 -0.315048,-0.271088 -0.08059,-0.190494 -0.08059,-0.520195 z m 0.498215,-0.285741 0.483562,-0.395641 q 0.249107,0.139207 0.505542,0.322374 0.26376,0.175841 0.483561,0.366335 0.219801,0.183167 0.344354,0.359008 L 47.992162,48.612 q -0.124553,-0.17584 -0.337027,-0.373661 -0.205148,-0.197821 -0.461582,-0.380988 -0.249107,-0.190494 -0.498215,-0.337028 z m 2.483748,0.520195 0.586136,-0.293067 q 0.278414,0.256434 0.542175,0.571482 0.26376,0.307721 0.468908,0.630095 0.212474,0.315048 0.322374,0.586135 l -0.644749,0.322375 q -0.09525,-0.263761 -0.293067,-0.578809 -0.190494,-0.322374 -0.446928,-0.644749 -0.256434,-0.322374 -0.534849,-0.593462 z m -3.971066,-0.205147 0.622769,0.190494 q -0.131881,0.534848 -0.359008,1.04039 -0.219801,0.498215 -0.637422,0.827916 L 44.25555,49.513183 q 0.380988,-0.285741 0.615442,-0.732669 0.234455,-0.454255 0.337028,-0.945143 z m -0.271087,-3.575425 h 5.458384 v 2.732856 h -0.696036 v -2.10276 h -4.09562 v 2.161373 h -0.666728 z m 0.410294,1.853653 h 4.667102 v 0.622769 H 45.347227 Z M 47.2888,43.41005 h 0.696036 v 4.0077 H 47.2888 Z m 4.403341,2.029493 h 6.616001 v 0.608116 h -6.616001 z m 0.681382,2.586322 h 5.890659 v 0.600789 h -5.890659 z m 0.849896,-1.414051 h 3.597405 v 0.556828 h -3.597405 z m -0.893856,-2.439788 h 4.220174 v 0.600789 h -4.220174 z m 1.897613,-0.761976 h 0.688709 v 2.344541 h -0.688709 z m 3.07721,0.271088 0.578808,0.329701 q -0.732669,0.886529 -1.685138,1.641178 -0.95247,0.747323 -2.029494,1.340785 -1.077023,0.593462 -2.19068,1.025736 -0.04396,-0.08059 -0.124554,-0.183167 -0.08059,-0.1099 -0.168514,-0.212474 -0.08059,-0.1099 -0.146533,-0.168514 1.12831,-0.388314 2.198007,-0.945143 1.069696,-0.564155 1.985533,-1.282171 0.915836,-0.718015 1.582565,-1.545931 z m -2.388501,3.949086 h 0.688709 v 1.853652 q 0,0.263761 -0.08059,0.402968 -0.07327,0.146534 -0.278414,0.227128 -0.212474,0.06594 -0.527522,0.08059 -0.307721,0.02198 -0.761976,0.02198 -0.02931,-0.146533 -0.1099,-0.322374 -0.07327,-0.175841 -0.146534,-0.307721 0.227128,0.0073 0.439602,0.0073 0.2198,0.0073 0.380987,0 0.168514,0 0.234455,0 0.09525,0 0.124553,-0.02198 0.03663,-0.02931 0.03663,-0.102574 z m 1.707119,-1.01841 h 0.17584 l 0.146534,-0.02931 0.432275,0.373661 q -0.278415,0.212474 -0.615442,0.432275 -0.329701,0.212474 -0.681383,0.402968 -0.351681,0.190494 -0.703362,0.337028 -0.06594,-0.08792 -0.168514,-0.197821 -0.102573,-0.117227 -0.17584,-0.183167 0.285741,-0.117227 0.593462,-0.293068 0.307721,-0.17584 0.564155,-0.359008 0.263761,-0.190494 0.432275,-0.351681 z m 5.44373,-3.209091 0.681383,0.161188 q -0.227128,0.622768 -0.571482,1.208904 -0.337028,0.578808 -0.718016,0.974449 -0.05861,-0.05861 -0.168514,-0.13188 -0.1099,-0.08059 -0.227127,-0.153861 -0.109901,-0.07327 -0.190494,-0.117227 0.380988,-0.351681 0.696035,-0.871876 0.315048,-0.520195 0.498215,-1.069697 z m 0.02931,0.718016 h 3.524138 v 0.571482 h -3.824532 z m 0.322374,2.300581 v 0.424948 h 2.110087 V 46.42132 Z m 0,-0.84257 v 0.410295 h 2.110087 V 45.57875 Z m -0.622768,-0.461581 h 3.377604 v 2.183354 h -3.377604 z m 0.835243,1.99286 0.600788,0.17584 q -0.307721,0.549502 -0.798609,1.01841 -0.490888,0.468908 -0.99643,0.769303 -0.05129,-0.05861 -0.139207,-0.139207 -0.08792,-0.08059 -0.183167,-0.161188 -0.08792,-0.08059 -0.161188,-0.13188 0.505542,-0.263761 0.959797,-0.659402 0.454255,-0.402968 0.718016,-0.871876 z m -0.117228,0.945143 q 0.278415,0.417621 0.761976,0.739995 0.490888,0.322375 1.135637,0.534849 0.644749,0.205147 1.399398,0.293067 -0.102574,0.102574 -0.219801,0.271088 -0.117227,0.175841 -0.183167,0.307721 -0.791282,-0.117227 -1.450685,-0.380988 -0.652075,-0.263761 -1.157617,-0.659402 -0.498215,-0.402968 -0.835242,-0.93049 z m 0.01465,-0.307721 h 2.19068 v 0.476235 h -2.630282 z m 2.01484,0 h 0.13188 l 0.117227,-0.02931 0.417621,0.205147 q -0.256434,0.520195 -0.666728,0.90851 -0.410295,0.380988 -0.937817,0.659402 -0.527521,0.271088 -1.135637,0.446928 -0.600788,0.175841 -1.245537,0.278414 -0.03663,-0.124553 -0.13188,-0.293067 -0.08792,-0.168514 -0.168514,-0.278414 0.593462,-0.06594 1.15029,-0.205148 0.564155,-0.146534 1.047717,-0.366334 0.483561,-0.219801 0.849896,-0.527522 0.366334,-0.307721 0.571482,-0.710689 z m -4.0077,-2.806123 0.615442,0.227128 q -0.249107,0.439601 -0.571482,0.879203 -0.322374,0.432274 -0.688709,0.820589 -0.359007,0.380988 -0.718015,0.681382 -0.02931,-0.08059 -0.102574,-0.19782 -0.06594,-0.117228 -0.139207,-0.241781 -0.07327,-0.124554 -0.13188,-0.190494 0.322374,-0.249108 0.644748,-0.564155 0.322375,-0.315048 0.600789,-0.674056 0.285741,-0.366334 0.490888,-0.739996 z m -0.15386,-1.531278 0.615442,0.241781 q -0.219801,0.315048 -0.512869,0.637422 -0.293067,0.322374 -0.608115,0.615442 -0.315048,0.293068 -0.630095,0.520195 -0.04396,-0.07327 -0.109901,-0.161187 -0.06594,-0.09525 -0.139207,-0.190494 -0.06594,-0.09525 -0.124554,-0.153861 0.278415,-0.19782 0.564156,-0.446928 0.28574,-0.256434 0.534848,-0.534848 0.249107,-0.278414 0.410295,-0.527522 z m -0.490889,2.98929 0.578809,-0.578809 0.07327,0.02931 v 4.381361 h -0.652076 z m 6.418181,1.479991 h 6.689268 v 0.644749 h -6.689268 z m 2.747508,-3.157803 h 1.186924 v 0.454255 h -1.186924 z m 2.0588,-0.95247 h 1.157617 v 0.571482 h -1.157617 z m 0.03663,1.377418 h 1.06237 v 0.564155 h -1.06237 z m 0,1.348111 h 1.04039 v 0.564155 h -1.04039 z m -4.05166,-1.348111 h 1.055043 v 0.564155 H 67.10017 Z m 0.02198,1.348111 h 1.033063 v 0.564155 H 67.12215 Z m 1.238211,-2.732856 h 2.600975 v 4.381361 H 70.441141 V 44.29658 h -1.582565 v 3.846512 h -0.498215 z m 1.06237,2.256621 v 0.835243 h 0.439601 v -0.835243 z m -0.315048,-0.424948 h 1.077024 v 1.677812 h -1.077024 z m -2.2786,-1.802366 0.761975,0.146534 q -0.02198,0.08059 -0.161187,0.102574 l 0.117227,4.117599 h -0.593462 z m 5.077396,-0.02198 h 0.608115 q -0.0073,0.542175 -0.02198,1.15029 -0.0073,0.608116 -0.02931,1.216231 -0.02198,0.608115 -0.05129,1.15029 -0.02198,0.542175 -0.05129,0.95247 h -0.600789 q 0.03663,-0.417621 0.05861,-0.967123 0.02931,-0.549502 0.05129,-1.157617 0.02198,-0.608115 0.02931,-1.208904 0.0073,-0.600789 0.0073,-1.135637 z m -3.824532,-0.329701 0.468908,0.520195 q -0.315048,0.161187 -0.666729,0.307721 -0.351681,0.146534 -0.659402,0.249107 -0.02198,-0.09525 -0.08059,-0.234454 -0.05861,-0.146533 -0.117227,-0.249107 0.278414,-0.124554 0.571482,-0.285741 0.293068,-0.168514 0.483562,-0.307721 z m 2.154046,5.582938 0.505542,-0.461582 q 0.402968,0.183168 0.820589,0.395642 0.417622,0.205147 0.783956,0.410294 0.373661,0.205148 0.637422,0.373662 L 72.3241,50.216545 q -0.241781,-0.168514 -0.586135,-0.380988 -0.337028,-0.205147 -0.725342,-0.417621 -0.388315,-0.212474 -0.77663,-0.395641 z m -1.838999,-0.461582 0.637422,0.432275 q -0.285741,0.219801 -0.659402,0.446928 -0.366334,0.227128 -0.761976,0.424948 -0.388314,0.205148 -0.725342,0.351681 -0.102574,-0.1099 -0.263761,-0.256434 -0.15386,-0.139207 -0.278414,-0.234454 0.351681,-0.146534 0.739996,-0.337028 0.388314,-0.19782 0.732669,-0.417621 0.351681,-0.219801 0.578808,-0.410295 z"
           id="text5-9"
           style="font-weight:500;font-size:7.32669px;line-height:1.25;font-family:'Noto Sans JP';-inkscape-font-specification:'Noto Sans JP Medium';fill:#f9f9f9;stroke-width:0.261667"
           aria-label="忠孝復興" />
        <path
           style="font-weight:500;font-size:7.32669px;line-height:1.25;font-family:'Noto Sans KR';-inkscape-font-specification:'Noto Sans KR Medium';fill:#f9f9f9;stroke-width:0.261667"
           d="m 83.461628,46.94047 h 0.769303 v 1.179598 H 83.461628 Z M 80.82402,46.684036 h 6.051846 v 0.615442 H 80.82402 Z m 3.011269,1.208904 q 1.08435,0 1.692466,0.315048 0.615442,0.307721 0.615442,0.879203 0,0.571482 -0.615442,0.879203 -0.608116,0.307721 -1.692466,0.307721 -1.077023,0 -1.692465,-0.307721 -0.608115,-0.307721 -0.608115,-0.879203 0,-0.571482 0.608115,-0.879203 0.615442,-0.315048 1.692465,-0.315048 z m 0,0.593462 q -0.483561,0 -0.827916,0.07327 -0.344354,0.06594 -0.527521,0.197821 -0.175841,0.13188 -0.175841,0.329701 0,0.19782 0.175841,0.337027 0.183167,0.131881 0.527521,0.197821 0.344355,0.06594 0.827916,0.06594 0.498215,0 0.835243,-0.06594 0.344354,-0.06594 0.520195,-0.197821 0.175841,-0.139207 0.175841,-0.337027 0,-0.197821 -0.175841,-0.329701 -0.175841,-0.131881 -0.520195,-0.197821 -0.337028,-0.07327 -0.835243,-0.07327 z m -0.498215,-4.308094 h 0.681383 v 0.183168 q 0,0.315047 -0.124554,0.593461 -0.124554,0.271088 -0.359008,0.505542 -0.234454,0.227127 -0.556828,0.410295 -0.322375,0.183167 -0.725343,0.300394 -0.395641,0.117227 -0.857223,0.168514 l -0.271087,-0.600789 q 0.395641,-0.03663 0.732669,-0.124553 0.344354,-0.09525 0.615442,-0.227128 0.271087,-0.13188 0.461581,-0.293067 0.190494,-0.168514 0.293068,-0.351682 0.1099,-0.190494 0.1099,-0.380987 z m 0.344355,0 h 0.681382 v 0.183168 q 0,0.19782 0.102574,0.388314 0.102573,0.183167 0.293067,0.344355 0.190494,0.161187 0.461582,0.293067 0.278414,0.131881 0.615442,0.227128 0.344354,0.08792 0.739995,0.124553 l -0.271087,0.600789 q -0.461582,-0.05129 -0.86455,-0.168514 -0.395641,-0.117227 -0.725342,-0.293068 -0.322374,-0.183167 -0.556828,-0.410294 -0.227128,-0.234454 -0.351681,-0.512869 -0.124554,-0.28574 -0.124554,-0.593461 z m -2.307908,-0.293067 h 4.952843 v 0.608115 h -4.952843 z m 11.173204,1.333457 h 1.208904 v 0.637422 h -1.208904 z m 0,1.97088 h 1.208904 V 47.827 H 92.546725 Z M 89.14714,44.141675 h 0.622769 v 1.099003 q 0,0.578809 -0.124554,1.142964 -0.124553,0.556828 -0.366334,1.047717 -0.234454,0.483561 -0.571482,0.864549 -0.337028,0.380988 -0.761976,0.608115 l -0.498215,-0.615442 q 0.388315,-0.190493 0.703363,-0.512868 0.315047,-0.329701 0.534848,-0.739996 0.227127,-0.417621 0.344354,-0.871876 0.117227,-0.461581 0.117227,-0.923163 z m 0.139208,0 h 0.622768 v 1.099003 q 0,0.454255 0.109901,0.901183 0.1099,0.439602 0.322374,0.827916 0.219801,0.388315 0.520195,0.696036 0.300394,0.300394 0.674055,0.476235 L 91.07406,48.75749 Q 90.649112,48.545016 90.319411,48.186008 89.98971,47.819673 89.755256,47.358092 89.528128,46.89651 89.403575,46.354335 89.286348,45.81216 89.286348,45.240678 Z m 2.696222,-0.549502 h 0.769302 v 6.696595 H 91.98257 Z m 4.96017,3.773246 h 0.769302 v 1.604545 H 96.94274 Z m 0.388314,-3.377605 q 0.710689,0 1.260191,0.219801 0.556828,0.219801 0.879203,0.622769 0.322374,0.402968 0.322374,0.945143 0,0.549502 -0.322374,0.952469 -0.322375,0.402968 -0.879203,0.630096 -0.549502,0.219801 -1.260191,0.219801 -0.710689,0 -1.267517,-0.219801 -0.556829,-0.227128 -0.879203,-0.630096 -0.322374,-0.402967 -0.322374,-0.952469 0,-0.542175 0.322374,-0.945143 0.322374,-0.402968 0.879203,-0.622769 0.556828,-0.219801 1.267517,-0.219801 z m 0,0.608116 q -0.505541,0 -0.893856,0.146533 -0.380988,0.139208 -0.600789,0.402968 -0.2198,0.263761 -0.2198,0.630096 0,0.366334 0.2198,0.637422 0.219801,0.263761 0.600789,0.410294 0.388315,0.139208 0.893856,0.139208 0.498215,0 0.88653,-0.139208 0.388314,-0.146533 0.608115,-0.410294 0.219801,-0.271088 0.219801,-0.637422 0,-0.366335 -0.219801,-0.630096 -0.219801,-0.26376 -0.608115,-0.402968 -0.388315,-0.146533 -0.88653,-0.146533 z m -3.025923,4.234827 h 6.066499 v 0.630095 h -6.066499 z m 9.348859,-4.901556 h 4.94552 v 0.615442 h -4.94552 z m 0.0366,2.300581 h 4.87225 v 0.615442 h -4.87225 z m 0.90118,-1.809693 h 0.7693 v 2.139394 h -0.7693 z m 2.30058,0 h 0.7693 v 2.139394 h -0.7693 z m -3.80255,3.09919 h 6.0665 v 0.630095 h -6.0665 z m 2.64493,0.278414 h 0.76931 v 2.483748 h -0.76931 z m 8.85065,-4.20552 h 0.7693 v 3.978393 h -0.7693 z m -1.45801,4.110273 q 0.70336,0 1.2089,0.153861 0.50554,0.15386 0.78396,0.439601 0.27841,0.285741 0.27841,0.688709 0,0.402968 -0.27841,0.696036 -0.27842,0.285741 -0.78396,0.432274 -0.50554,0.153861 -1.2089,0.153861 -0.69604,0 -1.20891,-0.153861 -0.50554,-0.146533 -0.78395,-0.432274 -0.27109,-0.293068 -0.27109,-0.696036 0,-0.402968 0.27109,-0.688709 0.27841,-0.285741 0.78395,-0.439601 0.51287,-0.153861 1.20891,-0.153861 z m 0,0.600789 q -0.46891,0 -0.80594,0.08059 -0.33703,0.08059 -0.5202,0.234455 -0.17584,0.146533 -0.17584,0.366334 0,0.219801 0.17584,0.373661 0.18317,0.146534 0.5202,0.227128 0.33703,0.07327 0.80594,0.07327 0.48356,0 0.81326,-0.07327 0.33703,-0.08059 0.51287,-0.227128 0.17584,-0.15386 0.17584,-0.373661 0,-0.219801 -0.17584,-0.366334 -0.17584,-0.153861 -0.51287,-0.234455 -0.3297,-0.08059 -0.81326,-0.08059 z m -1.62653,-4.417994 h 0.63742 v 0.644748 q 0,0.644749 -0.22712,1.216231 -0.21981,0.564155 -0.64475,0.989103 -0.41762,0.424948 -1.02574,0.637422 L 109.8597,46.76463 q 0.39564,-0.139207 0.69604,-0.373661 0.30772,-0.234454 0.52019,-0.527522 0.21248,-0.300394 0.31505,-0.637422 0.1099,-0.344354 0.1099,-0.696036 z m 0.15386,0 h 0.62277 v 0.644748 q 0,0.337028 0.1099,0.659403 0.1099,0.315047 0.31505,0.593461 0.21247,0.271088 0.51287,0.483562 0.30772,0.205147 0.68871,0.329701 l -0.37367,0.600789 q -0.44692,-0.146534 -0.79861,-0.402968 -0.34435,-0.263761 -0.58613,-0.615442 -0.24178,-0.351681 -0.36634,-0.769303 -0.12455,-0.417621 -0.12455,-0.879203 z"
           id="text5-9-8"
           aria-label="중샤오 푸싱" />
      </g>
      <text
         xml:space="preserve"
         transform="matrix(0.31615295,0,0,0.31615295,-6.1222449,-6.4462013)"
         id="text6"
         style="font-size:55px;line-height:1.25;font-family:'Microsoft JhengHei';-inkscape-font-specification:'Microsoft JhengHei';white-space:pre;shape-inside:url(#rect6);display:inline" />
    </g>
  </g>
</svg>
