<?xml version="1.0" encoding="UTF-8" standalone="no"?>
<!-- Created with Inkscape (http://www.inkscape.org/) -->

<svg
   width="500"
   height="250"
   viewBox="0 0 132.29166 66.145833"
   version="1.1"
   id="svg1"
   inkscape:version="1.3.2 (091e20e, 2023-11-25, custom)"
   sodipodi:docname="bl16.svg"
   xmlns:inkscape="http://www.inkscape.org/namespaces/inkscape"
   xmlns:sodipodi="http://sodipodi.sourceforge.net/DTD/sodipodi-0.dtd"
   xmlns="http://www.w3.org/2000/svg"
   xmlns:svg="http://www.w3.org/2000/svg">
  <sodipodi:namedview
     id="namedview1"
     pagecolor="#9e652e"
     bordercolor="#ffffff"
     borderopacity="1"
     inkscape:showpageshadow="0"
     inkscape:pageopacity="0"
     inkscape:pagecheckerboard="false"
     inkscape:deskcolor="#d1d1d1"
     inkscape:document-units="mm"
     inkscape:zoom="2.0208096"
     inkscape:cx="245.94103"
     inkscape:cy="106.88785"
     inkscape:window-width="1920"
     inkscape:window-height="1009"
     inkscape:window-x="1912"
     inkscape:window-y="-8"
     inkscape:window-maximized="1"
     inkscape:current-layer="layer1" />
  <defs
     id="defs1">
    <rect
       x="560.66638"
       y="34.144731"
       width="279.32397"
       height="128.59143"
       id="rect6" />
    <rect
       x="157.85752"
       y="62.351248"
       width="329.07603"
       height="135.09437"
       id="rect4" />
    <rect
       x="157.85751"
       y="62.35125"
       width="329.07602"
       height="135.09438"
       id="rect4-5" />
    <rect
       x="157.85751"
       y="62.35125"
       width="329.07602"
       height="135.09438"
       id="rect4-5-1" />
    <rect
       x="157.85751"
       y="62.35125"
       width="329.07602"
       height="135.09438"
       id="rect4-5-7" />
  </defs>
  <g
     inkscape:label="Layer 1"
     inkscape:groupmode="layer"
     id="layer1">
    <rect
       style="fill:#005fb9;fill-opacity:1;stroke:none;stroke-width:0.953294;stroke-dasharray:none"
       id="rect5"
       width="132.29167"
       height="66.145836"
       x="-2.5431316e-06"
       y="-1.2715658e-06"
       ry="0" />
    <g
       id="g2"
       transform="translate(-0.7595773)">
      <path
         id="rect1"
         style="fill-opacity:0;stroke:#ffffff;stroke-width:0.960404"
         d="m 16.906102,14.003039 h 12.657305 c 4.000431,0 7.220995,3.220564 7.220995,7.220995 v 23.697769 c 0,4.000432 -3.220564,7.220995 -7.220995,7.220995 H 16.906102 c -4.000431,0 -7.2209948,-3.220563 -7.2209948,-7.220995 V 21.224034 c 0,-4.000431 3.2205638,-7.220995 7.2209948,-7.220995 z" />
      <path
         style="font-size:12.7947px;line-height:1.25;font-family:'AR UDJingXiHeiE1G30 EB';-inkscape-font-specification:'AR UDJingXiHeiE1G30 EB';fill:#ffffff;stroke-width:0.266556"
         d="m 19.569068,30.474609 h -4.861986 v -9.250568 h 4.452555 q 1.317854,0 2.085536,0.639735 0.767682,0.639735 0.767682,1.701695 0,0.690914 -0.307073,1.215497 -0.294278,0.511788 -0.895629,0.84445 0.780477,0.307073 1.177113,0.84445 0.40943,0.537378 0.40943,1.27947 0,1.228291 -0.806066,1.983179 -0.806066,0.742092 -2.021562,0.742092 z m 0.754887,-6.704422 q 0,-0.626941 -0.358252,-0.946808 -0.358251,-0.332662 -1.03637,-0.332662 h -2.597324 v 2.610118 h 2.686886 q 0.575762,0 0.934014,-0.332662 0.371046,-0.345457 0.371046,-0.997986 z m 0.383841,3.966356 q 0,-0.665324 -0.409431,-1.010781 Q 19.90173,26.367511 19.2492,26.367511 h -2.917191 v 2.840423 h 2.891602 q 0.678119,0 1.074754,-0.371046 0.409431,-0.371047 0.409431,-1.100345 z m 9.813543,2.738066 h -6.499708 v -9.250568 h 1.624927 v 7.983893 h 4.874781 z"
         id="text2"
         aria-label="BL" />
      <path
         style="font-size:14.6606px;line-height:1.25;font-family:'AR UDJingXiHeiE1G30 EB';-inkscape-font-specification:'AR UDJingXiHeiE1G30 EB';fill:#ffffff;stroke-width:0.266556"
         d="m 18.235477,36.649762 -1.71529,1.598005 -0.850314,-1.304793 2.756192,-2.506963 h 1.598006 v 10.599614 h -1.788594 z m 9.558701,8.576451 q -0.835654,0 -1.524702,-0.23457 -0.674388,-0.23457 -1.158188,-0.747691 -0.586424,-0.601084 -0.879636,-1.627326 -0.293212,-1.040903 -0.293212,-2.580266 0,-2.741532 0.996921,-4.251574 1.011581,-1.524702 2.888138,-1.524702 1.524703,0 2.360357,0.820994 0.850314,0.820993 0.938278,2.023162 h -1.788593 q -0.02932,-0.49846 -0.410497,-0.938278 -0.366515,-0.454479 -1.084884,-0.454479 -0.952939,0 -1.510042,1.040903 -0.542442,1.040902 -0.557103,2.580265 0.439818,-0.601084 1.070224,-0.908957 0.630406,-0.307872 1.422078,-0.307872 1.46606,0 2.301714,0.967599 0.835654,0.952939 0.835654,2.477642 0,1.759272 -0.99692,2.712211 -0.996921,0.952939 -2.609587,0.952939 z m 1.759272,-3.591847 q 0,-0.908958 -0.49846,-1.480721 -0.4838,-0.586424 -1.275473,-0.586424 -0.864975,0 -1.378096,0.557103 -0.49846,0.542442 -0.527782,1.46606 0,1.026242 0.498461,1.612666 0.513121,0.571763 1.392757,0.571763 0.850315,0 1.319454,-0.557103 0.469139,-0.557102 0.469139,-1.583344 z"
         id="text3"
         aria-label="16" />
      <path
         style="font-weight:500;font-size:72px;line-height:1.25;font-family:'Noto Sans TC';-inkscape-font-specification:'Noto Sans TC Medium';white-space:pre;fill:#ffffff"
         d="m 178.23342,116.00141 h 7.056 v 14.904 q 0,1.584 0.792,2.088 0.864,0.504 3.816,0.504 0.648,0 2.304,0 1.728,0 3.744,0 2.016,0 3.744,0 1.8,0 2.664,0 1.728,0 2.592,-0.648 0.864,-0.648 1.224,-2.592 0.36,-1.944 0.504,-5.904 0.792,0.576 1.944,1.152 1.152,0.504 2.376,0.936 1.224,0.36 2.16,0.648 -0.432,5.112 -1.44,7.92 -1.008,2.736 -3.096,3.816 -2.088,1.08 -5.688,1.08 -0.576,0 -2.016,0 -1.368,0 -3.168,0 -1.728,0 -3.528,0 -1.728,0 -3.168,0 -1.368,0 -1.872,0 -4.32,0 -6.696,-0.792 -2.376,-0.792 -3.312,-2.736 -0.936,-1.944 -0.936,-5.4 z m 9.432,0 5.256,-3.744 q 1.872,1.44 3.96,3.24 2.088,1.8 3.96,3.6 1.872,1.728 3.024,3.168 l -5.472,4.176 q -1.08,-1.44 -2.952,-3.24 -1.8,-1.872 -3.816,-3.744 -2.016,-1.944 -3.96,-3.456 z m 22.464,2.376 5.904,-2.88 q 1.872,2.448 3.96,5.472 2.16,3.024 3.96,5.904 1.872,2.88 3.024,5.112 l -6.264,3.456 q -1.008,-2.232 -2.808,-5.184 -1.8,-2.952 -3.888,-6.048 -2.016,-3.168 -3.888,-5.832 z m -41.76,-2.448 6.048,2.448 q -0.936,2.808 -2.16,6.12 -1.224,3.24 -2.592,6.408 -1.296,3.168 -2.808,5.616 l -6.408,-2.88 q 1.584,-2.376 3.096,-5.4 1.512,-3.024 2.736,-6.192 1.296,-3.24 2.088,-6.12 z m 22.032,-41.256004 h 6.84 v 38.808004 h -6.84 z m -16.704,14.472 v 11.736004 h 40.536 V 89.145406 Z m -6.552,-6.12 h 53.928 v 23.904004 h -53.928 z m 66.24,11.592 h 65.016 v 5.976004 h -65.016 z m 6.12,25.416004 h 57.888 v 5.904 h -57.888 z m 13.68,-13.896 h 30.6 v 5.472 h -30.6 z m -13.536,-23.976004 h 40.32 v 5.904 h -40.32 z m 18.288,-7.488 h 6.696 v 23.04 h -6.696 z m 30.6,2.664 5.688,3.24 q -7.2,8.712 -16.56,16.128 -9.36,7.344004 -19.944,13.176004 -10.584,5.832 -21.528,10.08 -0.432,-0.792 -1.224,-1.8 -0.792,-1.08 -1.656,-2.088 -0.792,-1.08 -1.44,-1.656 11.088,-3.816 21.6,-9.288 10.512,-5.544004 19.512,-12.600004 9,-7.056 15.552,-15.192 z m -23.616,39.456004 h 6.696 v 17.568 q 0,2.52 -0.72,3.888 -0.72,1.44 -2.808,2.16 -2.016,0.72 -5.112,0.864 -3.096,0.144 -7.488,0.144 -0.288,-1.368 -1.08,-3.096 -0.72,-1.728 -1.44,-3.024 2.232,0.072 4.32,0.144 2.16,0 3.744,0 1.656,-0.072 2.304,-0.072 0.936,0 1.224,-0.216 0.36,-0.288 0.36,-1.008 z m 16.92,-10.656 h 1.728 l 1.512,-0.288 4.176,3.744 q -2.88,2.016 -6.408,4.104 -3.456,2.016 -7.2,3.816 -3.672,1.728 -7.344,3.096 -0.576,-0.864 -1.656,-2.016 -1.008,-1.152 -1.728,-1.8 3.096,-1.08 6.336,-2.664 3.24,-1.656 6.048,-3.384 2.808,-1.8 4.536,-3.312 z m 64.8,-16.632004 h 23.976 v 6.192 h -23.976 z m 1.224,-14.76 6.552,1.224 q -1.368,6.696 -3.384,13.176 -2.016,6.408 -4.608,12.024004 -2.592,5.616 -5.832,9.864 -0.432,-0.72 -1.224,-1.8 -0.792,-1.08 -1.656,-2.16 -0.864,-1.152 -1.584,-1.728 4.248,-5.544004 7.2,-13.608004 2.952,-8.136 4.536,-16.992 z m 11.88,17.352 6.552,0.576 q -1.512,12.096004 -4.608,21.384004 -3.096,9.288 -8.424,16.128 -5.256,6.768 -13.536,11.52 -0.432,-0.648 -1.224,-1.656 -0.72,-1.008 -1.584,-2.016 -0.864,-0.936 -1.584,-1.584 7.92,-4.032 12.816,-10.224 4.968,-6.192 7.704,-14.688 2.736,-8.496 3.888,-19.440004 z m -11.232,1.44 q 1.44,9.648004 4.32,18.000004 2.88,8.28 7.56,14.472 4.68,6.192 11.736,9.576 -0.72,0.576 -1.656,1.584 -0.864,1.008 -1.656,2.088 -0.72,1.08 -1.224,2.016 -7.416,-4.032 -12.24,-10.872 -4.752,-6.84 -7.704,-15.984 -2.88,-9.144 -4.536,-20.088004 z m -42.48,-10.728 h 34.848 v 5.832 h -34.848 z m 1.944,26.784004 h 25.776 v 5.112 h -25.776 z m -3.528,14.904 q 4.464,-0.432 10.296,-1.008 5.832,-0.648 12.384,-1.368 6.552,-0.72 13.032,-1.44 l 0.072,5.4 q -6.192,0.72 -12.528,1.512 -6.264,0.792 -12.024,1.512 -5.76,0.648 -10.44,1.224 z m 11.016,-28.080004 v 5.112004 h 15.192 v -5.112004 z m -5.688,-4.68 h 26.856 v 14.472004 h -26.856 z m 8.352,-16.128 6.048,-1.368 q 1.296,2.664 2.448,5.76 1.224,3.096 1.728,5.256 l -6.408,1.728 q -0.432,-2.16 -1.584,-5.4 -1.08,-3.24 -2.232,-5.976 z m 2.664,42.984004 h 6.264 v 15.912 q 0,2.304 -0.648,3.6 -0.576,1.296 -2.304,2.016 -1.728,0.648 -4.32,0.72 -2.52,0.144 -6.192,0.144 -0.216,-1.224 -0.792,-2.808 -0.576,-1.584 -1.296,-2.808 2.736,0.072 4.968,0.072 2.304,0.072 3.024,0 0.792,0 1.008,-0.216 0.288,-0.288 0.288,-0.792 z m 11.664,-9 h 1.368 l 1.224,-0.288 3.744,2.952 q -2.952,2.808 -6.912,5.544 -3.96,2.664 -7.776,4.464 -0.576,-0.864 -1.584,-1.944 -1.008,-1.152 -1.728,-1.728 2.16,-1.008 4.392,-2.304 2.232,-1.368 4.176,-2.808 1.944,-1.512 3.096,-2.736 z m 76.032,-33.696004 h 6.552 v 52.488004 q 0,2.016 0.288,3.096 0.36,1.008 1.296,1.44 0.936,0.36 2.736,0.36 0.648,0 2.232,0 1.656,0 3.6,0 1.944,0 3.6,0 1.728,0 2.52,0 2.016,0 3.024,-1.296 1.008,-1.296 1.44,-4.608 0.432,-3.312 0.72,-9.36 1.224,0.864 2.952,1.728 1.8,0.864 3.168,1.152 -0.432,6.84 -1.44,10.944 -0.936,4.032 -3.096,5.76 -2.16,1.8 -6.336,1.8 -0.504,0 -1.872,0 -1.296,0 -3.024,0 -1.656,0 -3.312,0 -1.656,0 -3.024,0 -1.296,0 -1.728,0 -4.032,0 -6.264,-1.008 -2.232,-0.936 -3.168,-3.384 -0.864,-2.448 -0.864,-6.768 z m -13.176,-0.936 6.336,2.088 q -2.664,6.12 -6.192,12.168 -3.528,5.976 -7.632,11.304004 -4.104,5.256 -8.424,9.288 -0.288,-0.792 -1.008,-2.088 -0.648,-1.368 -1.368,-2.664 -0.72,-1.368 -1.368,-2.16 3.888,-3.384004 7.488,-7.848004 3.672,-4.464 6.768,-9.576 3.168,-5.184 5.4,-10.512 z m -7.344,18.432 6.48,-6.408 v 0.072 54.432004 h -6.48 z m 24.408,1.656 h 28.224 v 6.552004 h -28.224 z"
         id="text4"
         transform="matrix(0.26655641,0,0,0.26655641,-1.475616,-4.7571419)"
         aria-label="忠孝敦化" />
      <path
         style="font-size:7.46358px;line-height:1.25;font-family:'AR UDJingXiHeiE1G30 EB';-inkscape-font-specification:'AR UDJingXiHeiE1G30 EB';fill:#ffffff;stroke-width:0.266556"
         d="m 41.722888,35.636232 h 4.224386 v 0.679185 l -3.254121,3.978089 H 46.02191 V 41.0324 h -4.54532 v -0.679186 l 3.254121,-3.978088 h -3.007823 z m 6.120136,3.000359 V 41.0324 h -0.947875 v -5.396168 h 0.947875 v 2.261464 h 2.589862 v -2.261464 h 0.947875 V 41.0324 h -0.947875 v -2.395809 z m 9.963881,-0.276153 q 0,1.298663 -0.723968,2.037558 -0.716503,0.731431 -1.962921,0.731431 -1.268809,0 -1.985312,-0.738895 -0.716504,-0.738894 -0.716504,-2.030094 0,-1.31359 0.723967,-2.059948 0.723967,-0.753821 1.977849,-0.753821 1.268808,0 1.977849,0.746358 0.70904,0.746358 0.70904,2.067411 z m -2.686889,2.030094 q 0.81353,0 1.253881,-0.537378 0.447815,-0.537377 0.447815,-1.492716 0,-0.947874 -0.447815,-1.507643 -0.447814,-0.567232 -1.253881,-0.567232 -0.820994,0 -1.276272,0.574696 -0.447815,0.567232 -0.447815,1.500179 0,0.955339 0.455278,1.492716 0.455279,0.537378 1.268809,0.537378 z m 4.664739,-3.254121 V 41.0324 h -0.947874 v -5.396168 h 0.977729 l 2.649571,3.985551 v -3.985551 h 0.947874 V 41.0324 h -1.037437 z m 8.82941,3.239194 q -0.276153,0.388106 -0.694113,0.574696 -0.410497,0.179126 -0.940411,0.179126 -1.164319,0 -1.850968,-0.731431 -0.68665,-0.738895 -0.68665,-2.059948 0,-1.328518 0.723968,-2.059949 0.723967,-0.73143 1.955458,-0.73143 0.992656,0 1.612133,0.455278 0.626941,0.447815 0.753822,1.283736 h -0.947875 q -0.07464,-0.440351 -0.440351,-0.716504 -0.358252,-0.283616 -0.977729,-0.283616 -0.828458,0 -1.261345,0.537378 -0.432888,0.529914 -0.432888,1.515107 0,1.052364 0.455278,1.552424 0.455279,0.492597 1.238955,0.492597 0.686649,0 1.089682,-0.403034 0.403034,-0.403033 0.403034,-0.925484 v -0.111953 h -1.530034 v -0.738895 h 2.440591 V 41.0324 h -0.910557 z m 5.209576,-4.739373 h 1.097146 l -1.858432,2.604789 1.962922,2.791379 h -1.10461 L 72.510151,38.950061 71.099534,41.0324 h -1.074756 l 1.947995,-2.798843 -1.865895,-2.597325 h 1.112073 l 1.298663,1.94053 z m 2.76899,0 V 41.0324 h -0.947875 v -5.396168 z m 4.112425,3.216803 -0.850848,-2.306247 -0.865776,2.306247 z M 78.71238,39.591929 78.175002,41.0324 H 77.2122 l 2.171902,-5.396168 h 0.970265 l 2.156975,5.396168 h -0.985193 l -0.544841,-1.440471 z m 9.605623,-1.231491 q 0,1.298663 -0.723968,2.037558 -0.716503,0.731431 -1.962921,0.731431 -1.268809,0 -1.985313,-0.738895 -0.716503,-0.738894 -0.716503,-2.030094 0,-1.31359 0.723967,-2.059948 0.723967,-0.753821 1.977849,-0.753821 1.268808,0 1.977849,0.746358 0.70904,0.746358 0.70904,2.067411 z m -2.686889,2.030094 q 0.81353,0 1.253881,-0.537378 0.447815,-0.537377 0.447815,-1.492716 0,-0.947874 -0.447815,-1.507643 -0.447815,-0.567232 -1.253881,-0.567232 -0.820994,0 -1.276272,0.574696 -0.447815,0.567232 -0.447815,1.500179 0,0.955339 0.455278,1.492716 0.455279,0.537378 1.268809,0.537378 z m 10.269881,-2.119657 q 0,1.343445 -0.634404,2.052485 -0.626941,0.70904 -1.753942,0.70904 h -2.20922 v -5.396168 h 2.20922 q 1.127001,0 1.753942,0.664258 0.634404,0.664259 0.634404,1.970385 z m -0.985193,0 q 0,-0.977729 -0.403033,-1.433007 -0.39557,-0.462742 -1.156855,-0.462742 h -1.10461 v 3.91838 h 1.112074 q 0.73143,0 1.141927,-0.485133 0.410497,-0.485133 0.410497,-1.537498 z m 6.545548,0.873239 q 0,0.940411 -0.58962,1.462862 -0.58962,0.522451 -1.679305,0.522451 -1.10461,0 -1.701696,-0.514987 -0.589623,-0.514988 -0.589623,-1.462862 v -3.515346 h 0.947875 v 3.470564 q 0,0.612014 0.335861,0.947875 0.335861,0.335861 1.007583,0.335861 0.634405,0 0.970265,-0.320934 0.34333,-0.328397 0.34333,-0.977729 v -3.455637 h 0.95533 z m 2.14952,-2.007703 V 41.0324 h -0.94788 v -5.396168 h 0.97773 l 2.64957,3.985551 v -3.985551 h 0.94788 V 41.0324 h -1.03744 z m 5.81412,1.50018 V 41.0324 h -0.94787 v -5.396168 h 0.94787 v 2.261464 h 2.58986 v -2.261464 h 0.94788 V 41.0324 h -0.94788 v -2.395809 z m 9.29963,0.507523 q 0,0.940411 -0.58963,1.462862 -0.58962,0.522451 -1.6793,0.522451 -1.10461,0 -1.7017,-0.514987 -0.58962,-0.514988 -0.58962,-1.462862 v -3.515346 h 0.94787 v 3.470564 q 0,0.612014 0.33587,0.947875 0.33586,0.335861 1.00758,0.335861 0.6344,0 0.97026,-0.320934 0.34333,-0.328397 0.34333,-0.977729 v -3.455637 h 0.95534 z m 4.07511,-0.291079 -0.85085,-2.306247 -0.86577,2.306247 z m -1.99278,0.738894 -0.53737,1.440471 h -0.96281 l 2.17191,-5.396168 h 0.97026 l 2.15698,5.396168 h -0.9852 l -0.54484,-1.440471 z"
         id="text5"
         aria-label="ZHONGXIAO DUNHUA" />
      <path
         d="m 43.32253,48.081326 h 0.694113 v 1.470325 q 0,0.164199 0.07464,0.20898 0.0821,0.04478 0.365715,0.04478 0.05971,0 0.216444,0 0.164199,0 0.358252,0 0.194053,0 0.358252,0 0.171662,0 0.261225,0 0.164199,0 0.238835,-0.05971 0.0821,-0.05971 0.119417,-0.246298 0.03732,-0.18659 0.05224,-0.567232 0.07464,0.05971 0.186589,0.111953 0.111954,0.05224 0.231371,0.08956 0.119418,0.03732 0.208981,0.06717 -0.03732,0.492596 -0.141808,0.761285 -0.09703,0.268689 -0.29108,0.373179 -0.194053,0.10449 -0.544841,0.10449 -0.05971,0 -0.194053,0 -0.126881,0 -0.298544,0 -0.171662,0 -0.350788,0 -0.171662,0 -0.306007,0 -0.126881,0 -0.179126,0 -0.41796,0 -0.656795,-0.0821 -0.231371,-0.07464 -0.320934,-0.276153 -0.0821,-0.194053 -0.0821,-0.529914 z m 0.507523,-0.29108 0.492597,-0.403033 q 0.253761,0.141808 0.514987,0.328397 0.268689,0.179126 0.492596,0.373179 0.223907,0.18659 0.350788,0.365716 l -0.529914,0.447814 q -0.126881,-0.179126 -0.343325,-0.380642 -0.20898,-0.201517 -0.470205,-0.388106 -0.253762,-0.194053 -0.507524,-0.343325 z m 2.530154,0.529914 0.597086,-0.298543 q 0.283617,0.261225 0.552305,0.582159 0.268689,0.313471 0.47767,0.641868 0.216443,0.320934 0.328397,0.597086 l -0.656795,0.328398 q -0.09703,-0.268689 -0.298543,-0.589623 -0.194053,-0.328397 -0.455279,-0.656795 -0.261225,-0.328397 -0.544841,-0.60455 z m -4.04526,-0.20898 0.634404,0.194053 q -0.134344,0.544841 -0.365715,1.059828 -0.223908,0.507524 -0.649332,0.843385 L 41.344681,49.82034 q 0.388106,-0.29108 0.626941,-0.746358 0.238835,-0.462742 0.343325,-0.962802 z m -0.276153,-3.642227 h 5.560367 v 2.783915 h -0.70904 V 45.110821 H 42.71798 v 2.201756 h -0.679186 z m 0.417961,1.888286 h 4.7543 v 0.634404 h -4.7543 z m 1.977848,-2.754062 h 0.709041 v 4.082579 h -0.709041 z m 4.485612,2.067412 h 6.739613 v 0.619477 h -6.739613 z m 0.694113,2.634644 h 6.000718 v 0.612014 h -6.000718 z m 0.865775,-1.440471 h 3.664618 v 0.567232 H 50.480103 Z M 49.569547,44.37939 h 4.299022 v 0.612013 h -4.299022 z m 1.933067,-0.776213 h 0.701576 v 2.388346 h -0.701576 z m 3.134703,0.276153 0.589623,0.335861 q -0.746358,0.903093 -1.716623,1.671842 -0.970266,0.761285 -2.067412,1.365835 -1.097146,0.60455 -2.23161,1.044901 -0.04478,-0.0821 -0.126881,-0.186589 -0.0821,-0.111954 -0.171663,-0.216444 -0.0821,-0.111954 -0.149271,-0.171662 1.149391,-0.39557 2.239074,-0.962802 1.089683,-0.574696 2.02263,-1.306127 0.932948,-0.73143 1.612133,-1.574815 z M 52.20419,47.9022 h 0.701577 v 1.888285 q 0,0.268689 -0.0821,0.410497 -0.07464,0.149272 -0.283616,0.231371 -0.216443,0.06717 -0.537377,0.0821 -0.313471,0.02239 -0.776213,0.02239 -0.02985,-0.149271 -0.111953,-0.328397 -0.07464,-0.179126 -0.149272,-0.31347 0.231371,0.0075 0.447815,0.0075 0.223907,0.0075 0.388106,0 0.171662,0 0.238835,0 0.09703,0 0.12688,-0.02239 0.03732,-0.02985 0.03732,-0.10449 z m 1.739014,-1.037438 h 0.179126 l 0.149272,-0.02985 0.440351,0.380642 q -0.283616,0.216444 -0.62694,0.440351 -0.335862,0.216444 -0.694113,0.410497 -0.358252,0.194053 -0.716504,0.343325 -0.06717,-0.08956 -0.171662,-0.201517 -0.104491,-0.119417 -0.179126,-0.186589 0.291079,-0.119417 0.60455,-0.298543 0.31347,-0.179126 0.574695,-0.365716 0.268689,-0.194053 0.440351,-0.358252 z m 2.4182,-2.537617 h 3.507883 v 0.60455 h -3.507883 z m 1.39569,-0.723968 h 0.686649 v 1.015047 h -0.686649 z m -0.388106,2.164439 v 0.574695 h 1.365835 v -0.574695 z m -0.656795,-0.50006 h 2.709279 v 1.567352 h -2.709279 z m -0.432888,3.366074 q 0.447815,-0.02985 1.029974,-0.07463 0.589623,-0.05225 1.246418,-0.10449 0.664259,-0.05224 1.328517,-0.104491 l -0.0075,0.567233 q -0.634405,0.05224 -1.276273,0.119417 -0.641867,0.05971 -1.224027,0.111954 -0.582159,0.04478 -1.052364,0.08956 z m 0.261225,-1.470325 h 2.470445 V 47.71561 H 56.54053 Z m 1.216564,0.962802 h 0.686649 v 1.739014 q 0,0.238835 -0.05971,0.365716 -0.05971,0.134344 -0.231371,0.201516 -0.171663,0.06717 -0.425424,0.0821 -0.253762,0.01493 -0.619478,0.01493 -0.02239,-0.134345 -0.0821,-0.298543 -0.05224,-0.164199 -0.119417,-0.29108 0.231371,0.0075 0.440351,0.0075 0.216444,0.0075 0.283616,0.0075 0.126881,-0.0075 0.126881,-0.111954 z m 1.10461,-0.962802 h 0.156735 l 0.141808,-0.02985 0.403033,0.328397 q -0.283616,0.306007 -0.656795,0.619478 -0.365715,0.306006 -0.723967,0.514987 -0.05971,-0.08956 -0.164199,-0.194053 -0.10449,-0.111954 -0.171662,-0.171663 0.186589,-0.119417 0.373179,-0.283616 0.194053,-0.164199 0.365715,-0.335861 0.171663,-0.179126 0.276153,-0.328398 z m 1.641987,-3.567591 0.738895,0.119417 q -0.126881,0.694113 -0.320934,1.350908 -0.18659,0.649332 -0.447815,1.216564 -0.253762,0.559768 -0.589623,0.985192 -0.04478,-0.06717 -0.141808,-0.179126 -0.09703,-0.111953 -0.201516,-0.216443 -0.09703,-0.104491 -0.179126,-0.171663 0.298543,-0.365715 0.514987,-0.858311 0.223907,-0.50006 0.373179,-1.067292 0.156735,-0.574696 0.253761,-1.179246 z m 1.582279,1.567352 0.731431,0.0821 q -0.194053,1.335981 -0.582159,2.351028 -0.388106,1.015047 -1.037438,1.746478 -0.649331,0.723967 -1.641987,1.216563 -0.04478,-0.0821 -0.134345,-0.201516 -0.08956,-0.111954 -0.186589,-0.223908 -0.09703,-0.10449 -0.171663,-0.179126 0.955339,-0.410497 1.559889,-1.067292 0.612013,-0.656795 0.955338,-1.582279 0.350788,-0.925484 0.507523,-2.142047 z m -1.440471,-0.18659 h 2.537618 v 0.641868 h -2.858552 z m 0.05971,0.283616 q 0.08956,0.634405 0.261225,1.31359 0.179126,0.671723 0.470206,1.31359 0.298543,0.634405 0.746358,1.164319 0.455278,0.522451 1.097146,0.858312 -0.07464,0.06717 -0.171662,0.179126 -0.08956,0.119417 -0.179126,0.238834 -0.0821,0.126881 -0.141808,0.223908 -0.656795,-0.403034 -1.119537,-0.977729 -0.455278,-0.574696 -0.753822,-1.246418 -0.298543,-0.671723 -0.477669,-1.373299 -0.179126,-0.701577 -0.283616,-1.343444 z m 6.38136,-1.470325 h 0.70904 v 5.470804 q 0,0.216444 0.02985,0.328398 0.03732,0.10449 0.134344,0.141808 0.10449,0.03732 0.298543,0.03732 0.07464,0 0.246298,0 0.179126,0 0.388107,0 0.216443,0 0.403033,0 0.186589,0 0.268689,0 0.194053,0 0.291079,-0.111954 0.09703,-0.111954 0.141808,-0.403033 0.04478,-0.29108 0.07464,-0.828458 0.134345,0.09703 0.320934,0.18659 0.194053,0.0821 0.343325,0.119417 -0.05224,0.626941 -0.156735,1.00012 -0.09703,0.373179 -0.328398,0.537378 -0.223907,0.164198 -0.634404,0.164198 -0.05971,0 -0.20898,0 -0.141808,0 -0.328398,0 -0.179126,0 -0.365715,0 -0.18659,0 -0.328398,0 -0.141808,0 -0.194053,0 -0.425424,0 -0.671722,-0.10449 -0.238835,-0.10449 -0.335861,-0.365715 -0.09703,-0.253762 -0.09703,-0.716504 z m 2.798843,1.238954 0.514987,0.612014 q -0.39557,0.306007 -0.873239,0.60455 -0.477669,0.291079 -0.985193,0.567232 -0.50006,0.268689 -0.992656,0.514987 -0.03732,-0.126881 -0.126881,-0.283616 -0.08956,-0.164199 -0.164199,-0.276153 0.470206,-0.238834 0.947875,-0.529914 0.485133,-0.298543 0.918021,-0.60455 0.440351,-0.31347 0.761285,-0.60455 z m -4.164678,-1.321053 0.694113,0.231371 q -0.276153,0.656795 -0.664259,1.298663 -0.380642,0.641867 -0.828457,1.201636 -0.440351,0.559768 -0.903093,0.985193 -0.03732,-0.08956 -0.111954,-0.223908 -0.07464,-0.141808 -0.156735,-0.276152 -0.0821,-0.141808 -0.149272,-0.231371 0.417961,-0.350789 0.81353,-0.820994 0.39557,-0.477669 0.731431,-1.029974 0.335861,-0.552305 0.574696,-1.134464 z m -0.828457,2.02263 0.701576,-0.701577 0.0075,0.01493 v 5.470805 h -0.70904 z"
         id="text5-9"
         style="font-weight:500;font-size:7.46358px;line-height:1.25;font-family:'Noto Sans JP';-inkscape-font-specification:'Noto Sans JP Medium';fill:#ffffff;stroke-width:0.266556"
         aria-label="忠孝敦化" />
      <path
         style="font-weight:500;font-size:7.46358px;line-height:1.25;font-family:'Noto Sans KR';-inkscape-font-specification:'Noto Sans KR Medium';fill:#ffffff;stroke-width:0.266556"
         d="m 81.01632,47.199557 h 0.783676 v 1.201637 H 81.01632 Z m -2.686888,-0.261225 h 6.164917 v 0.626941 h -6.164917 z m 3.067531,1.231491 q 1.10461,0 1.724087,0.320934 0.626941,0.31347 0.626941,0.895629 0,0.58216 -0.626941,0.89563 -0.619477,0.31347 -1.724087,0.31347 -1.097146,0 -1.724087,-0.31347 -0.619477,-0.31347 -0.619477,-0.89563 0,-0.582159 0.619477,-0.895629 0.626941,-0.320934 1.724087,-0.320934 z m 0,0.60455 q -0.492596,0 -0.843385,0.07464 -0.350788,0.06717 -0.537377,0.201516 -0.179126,0.134345 -0.179126,0.335861 0,0.201517 0.179126,0.343325 0.186589,0.134344 0.537377,0.201517 0.350789,0.06717 0.843385,0.06717 0.507523,0 0.850848,-0.06717 0.350788,-0.06717 0.529914,-0.201517 0.179126,-0.141808 0.179126,-0.343325 0,-0.201516 -0.179126,-0.335861 -0.179126,-0.134344 -0.529914,-0.201516 -0.343325,-0.07464 -0.850848,-0.07464 z M 80.88944,44.385788 h 0.694112 v 0.186589 q 0,0.320934 -0.12688,0.60455 -0.126881,0.276153 -0.365716,0.514987 -0.238834,0.231371 -0.567232,0.417961 -0.328397,0.186589 -0.738894,0.306006 -0.403034,0.119418 -0.873239,0.171663 L 78.635438,45.97553 q 0.403034,-0.03732 0.746358,-0.126881 0.350789,-0.09703 0.626941,-0.231371 0.276153,-0.134344 0.470206,-0.298543 0.194053,-0.171662 0.298543,-0.358252 0.111954,-0.194053 0.111954,-0.388106 z m 0.350788,0 h 0.694113 v 0.186589 q 0,0.201517 0.10449,0.39557 0.10449,0.186589 0.298543,0.350788 0.194053,0.164199 0.470206,0.298543 0.283616,0.134345 0.62694,0.231371 0.350789,0.08956 0.753822,0.126881 l -0.276153,0.612014 q -0.470205,-0.05224 -0.880702,-0.171663 -0.403033,-0.119417 -0.738894,-0.298543 -0.328398,-0.186589 -0.567232,-0.41796 -0.231371,-0.238835 -0.358252,-0.522451 -0.126881,-0.29108 -0.126881,-0.60455 z M 78.8892,44.087244 h 5.04538 v 0.619478 H 78.8892 Z m 11.38196,1.358372 h 1.231491 v 0.649331 H 90.27116 Z m 0,2.007703 h 1.231491 v 0.649332 H 90.27116 Z M 86.808059,44.34847 h 0.634404 v 1.119537 q 0,0.589623 -0.126881,1.164318 -0.12688,0.567232 -0.373179,1.067292 -0.238834,0.492596 -0.582159,0.880703 -0.343324,0.388106 -0.776212,0.619477 l -0.507524,-0.626941 q 0.39557,-0.194053 0.716504,-0.522451 0.320934,-0.335861 0.544841,-0.753821 0.231371,-0.425424 0.350789,-0.888166 0.119417,-0.470206 0.119417,-0.940411 z m 0.141808,0 h 0.634404 v 1.119537 q 0,0.462742 0.111954,0.91802 0.111954,0.447815 0.328398,0.843385 0.223907,0.395569 0.529914,0.70904 0.306007,0.306007 0.686649,0.485132 l -0.470205,0.626941 q -0.432888,-0.216444 -0.768749,-0.582159 -0.335861,-0.373179 -0.574696,-0.843385 -0.231371,-0.470205 -0.358252,-1.02251 -0.119417,-0.552305 -0.119417,-1.134464 z m 2.746598,-0.559769 h 0.783675 v 6.821712 h -0.783675 z m 5.052844,3.843744 h 0.783676 v 1.634524 h -0.783676 z m 0.39557,-3.44071 q 0.723967,0 1.283735,0.223907 0.567232,0.223907 0.89563,0.634404 0.328397,0.410497 0.328397,0.962802 0,0.559769 -0.328397,0.970265 -0.328398,0.410497 -0.89563,0.641868 -0.559768,0.223908 -1.283735,0.223908 -0.723968,0 -1.2912,-0.223908 -0.567232,-0.231371 -0.895629,-0.641868 -0.328398,-0.410496 -0.328398,-0.970265 0,-0.552305 0.328398,-0.962802 0.328397,-0.410497 0.895629,-0.634404 0.567232,-0.223907 1.2912,-0.223907 z m 0,0.619477 q -0.514988,0 -0.910557,0.149271 -0.388106,0.141808 -0.612014,0.410497 -0.223907,0.268689 -0.223907,0.641868 0,0.373179 0.223907,0.649332 0.223908,0.268688 0.612014,0.41796 0.395569,0.141808 0.910557,0.141808 0.507523,0 0.903093,-0.141808 0.395569,-0.149272 0.619477,-0.41796 0.223907,-0.276153 0.223907,-0.649332 0,-0.373179 -0.223907,-0.641868 -0.223908,-0.268689 -0.619477,-0.410497 -0.39557,-0.149271 -0.903093,-0.149271 z m -3.082459,4.313949 h 6.179844 v 0.641868 H 92.06242 Z m 9.72505,-3.164558 h 4.70952 v 0.626941 h -4.70952 z m 0,-1.850968 h 4.64981 v 0.626941 h -3.8736 v 1.500179 h -0.77621 z m -0.76129,3.104849 h 6.16492 v 0.634405 h -6.16492 z m 2.76899,0.365716 h 0.79114 v 1.515107 h -0.79114 z m -2.01516,2.254001 h 4.76176 v 0.634404 h -4.76176 z m 0,-1.31359 h 0.77621 v 1.70916 h -0.77621 z m 7.78451,-0.679186 h 0.78368 v 1.10461 h -0.78368 z m 2.86602,-4.052724 h 0.78367 v 6.821712 h -0.78367 z m 0.52245,2.836161 h 1.23149 v 0.649331 h -1.23149 z m -5.03792,2.754061 -0.10449,-0.641868 q 0.60455,0 1.32105,-0.0075 0.71651,-0.0075 1.47033,-0.05224 0.75382,-0.04478 1.44793,-0.141808 l 0.0597,0.567232 q -0.72397,0.134345 -1.47032,0.194053 -0.74636,0.05971 -1.44047,0.07464 -0.69412,0.0075 -1.28374,0.0075 z m 0.0149,-4.799082 h 4.04526 v 0.619477 H 107.93 Z m 2.03009,0.955338 q 0.47767,0 0.84339,0.164199 0.37317,0.156735 0.58215,0.440351 0.20899,0.283616 0.20899,0.671722 0,0.380643 -0.20899,0.671722 -0.20898,0.283616 -0.58215,0.440352 -0.36572,0.156735 -0.84339,0.156735 -0.48513,0 -0.85831,-0.156735 -0.36572,-0.156736 -0.5747,-0.440352 -0.20151,-0.291079 -0.20151,-0.671722 0,-0.388106 0.20151,-0.671722 0.20898,-0.283616 0.5747,-0.440351 0.37318,-0.164199 0.85831,-0.164199 z m 0,0.597086 q -0.40303,0 -0.64933,0.18659 -0.2463,0.179126 -0.2463,0.492596 0,0.313471 0.2463,0.492596 0.2463,0.179126 0.64933,0.179126 0.40303,0 0.64933,-0.179126 0.2463,-0.179125 0.2463,-0.492596 0,-0.31347 -0.2463,-0.492596 -0.2463,-0.18659 -0.64933,-0.18659 z m -0.39557,-2.328637 h 0.78368 v 1.216564 h -0.78368 z"
         id="text5-9-8"
         aria-label="중샤오 둔화" />
    </g>
    <text
       xml:space="preserve"
       transform="matrix(0.31615295,0,0,0.31615295,-23.186545,-6.4462013)"
       id="text6"
       style="font-size:55px;line-height:1.25;font-family:'Microsoft JhengHei';-inkscape-font-specification:'Microsoft JhengHei';white-space:pre;shape-inside:url(#rect6);display:inline" />
  </g>
</svg>
