<?xml version="1.0" encoding="UTF-8" standalone="no"?>
<!-- Created with Inkscape (http://www.inkscape.org/) -->

<svg
   width="500"
   height="250"
   viewBox="0 0 132.29166 66.145833"
   version="1.1"
   id="svg1"
   inkscape:version="1.3.2 (091e20e, 2023-11-25, custom)"
   sodipodi:docname="bl17.svg"
   xmlns:inkscape="http://www.inkscape.org/namespaces/inkscape"
   xmlns:sodipodi="http://sodipodi.sourceforge.net/DTD/sodipodi-0.dtd"
   xmlns="http://www.w3.org/2000/svg"
   xmlns:svg="http://www.w3.org/2000/svg">
  <sodipodi:namedview
     id="namedview1"
     pagecolor="#9e652e"
     bordercolor="#ffffff"
     borderopacity="1"
     inkscape:showpageshadow="0"
     inkscape:pageopacity="0"
     inkscape:pagecheckerboard="false"
     inkscape:deskcolor="#d1d1d1"
     inkscape:document-units="mm"
     inkscape:zoom="2.0208096"
     inkscape:cx="260.29172"
     inkscape:cy="106.88785"
     inkscape:window-width="1920"
     inkscape:window-height="1009"
     inkscape:window-x="1912"
     inkscape:window-y="-8"
     inkscape:window-maximized="1"
     inkscape:current-layer="layer1" />
  <defs
     id="defs1">
    <rect
       x="560.66638"
       y="34.144731"
       width="279.32397"
       height="128.59143"
       id="rect6" />
    <rect
       x="157.85752"
       y="62.351248"
       width="375.73891"
       height="119.77096"
       id="rect4" />
    <rect
       x="157.85751"
       y="62.35125"
       width="329.07602"
       height="135.09438"
       id="rect4-5" />
    <rect
       x="157.85751"
       y="62.35125"
       width="329.07602"
       height="135.09438"
       id="rect4-5-1" />
    <rect
       x="157.85751"
       y="62.35125"
       width="329.07602"
       height="135.09438"
       id="rect4-5-7" />
  </defs>
  <g
     inkscape:label="Layer 1"
     inkscape:groupmode="layer"
     id="layer1">
    <rect
       style="fill:#005fb9;fill-opacity:1;stroke:none;stroke-width:0.953294;stroke-dasharray:none"
       id="rect5"
       width="132.29167"
       height="66.145836"
       x="-2.5431316e-06"
       y="-1.2715658e-06"
       ry="0" />
    <g
       id="g3"
       transform="matrix(0.84008786,0,0,0.84008786,-4.2292363,5.2887589)">
      <g
         id="g2"
         transform="translate(-0.7595773)">
        <path
           id="rect1"
           style="fill-opacity:0;stroke:#ffffff;stroke-width:0.960404"
           d="m 16.906102,14.003039 h 12.657305 c 4.000431,0 7.220995,3.220564 7.220995,7.220995 v 23.697769 c 0,4.000432 -3.220564,7.220995 -7.220995,7.220995 H 16.906102 c -4.000431,0 -7.2209948,-3.220563 -7.2209948,-7.220995 V 21.224034 c 0,-4.000431 3.2205638,-7.220995 7.2209948,-7.220995 z" />
        <path
           style="font-size:12.7947px;line-height:1.25;font-family:'AR UDJingXiHeiE1G30 EB';-inkscape-font-specification:'AR UDJingXiHeiE1G30 EB';fill:#ffffff;stroke-width:0.266556"
           d="m 19.569068,30.474609 h -4.861986 v -9.250568 h 4.452555 q 1.317854,0 2.085536,0.639735 0.767682,0.639735 0.767682,1.701695 0,0.690914 -0.307073,1.215497 -0.294278,0.511788 -0.895629,0.84445 0.780477,0.307073 1.177113,0.84445 0.40943,0.537378 0.40943,1.27947 0,1.228291 -0.806066,1.983179 -0.806066,0.742092 -2.021562,0.742092 z m 0.754887,-6.704422 q 0,-0.626941 -0.358252,-0.946808 -0.358251,-0.332662 -1.03637,-0.332662 h -2.597324 v 2.610118 h 2.686886 q 0.575762,0 0.934014,-0.332662 0.371046,-0.345457 0.371046,-0.997986 z m 0.383841,3.966356 q 0,-0.665324 -0.409431,-1.010781 Q 19.90173,26.367511 19.2492,26.367511 h -2.917191 v 2.840423 h 2.891602 q 0.678119,0 1.074754,-0.371046 0.409431,-0.371047 0.409431,-1.100345 z m 9.813543,2.738066 h -6.499708 v -9.250568 h 1.624927 v 7.983893 h 4.874781 z"
           id="text2"
           aria-label="BL" />
        <path
           style="font-size:14.6606px;line-height:1.25;font-family:'AR UDJingXiHeiE1G30 EB';-inkscape-font-specification:'AR UDJingXiHeiE1G30 EB';fill:#ffffff;stroke-width:0.266556"
           d="m 18.235477,36.649762 -1.71529,1.598005 -0.850314,-1.304793 2.756192,-2.506963 h 1.598006 v 10.599614 h -1.788594 z m 7.374272,8.385863 3.738453,-9.148214 h -5.292477 v -1.4514 h 7.183694 v 1.21683 l -3.738453,9.382784 z"
           id="text3"
           aria-label="17" />
        <path
           style="font-weight:500;font-size:72px;line-height:1.25;font-family:'Noto Sans TC';-inkscape-font-specification:'Noto Sans TC Medium';white-space:pre;fill:#ffffff"
           d="m 173.26542,92.529406 h 41.256 v 4.968 h -41.256 z m 29.52,-4.968 3.096,-3.168 q 1.944,0.936 4.104,2.304 2.16,1.296 3.312,2.448 l -3.24,3.456 q -1.152,-1.224 -3.24,-2.664 -2.088,-1.44 -4.032,-2.376 z m 4.032,12.672004 5.328,1.08 q -2.664,9.936 -7.92,17.352 -5.184,7.344 -12.456,12.096 -0.36,-0.576 -1.08,-1.368 -0.72,-0.792 -1.44,-1.584 -0.72,-0.792 -1.368,-1.224 7.128,-4.104 11.88,-10.8 4.752,-6.696 7.056,-15.552 z m -34.344,20.88 q 4.104,-0.576 9.648,-1.368 5.616,-0.864 11.52,-1.872 l 0.144,4.68 q -5.4,0.936 -10.8,1.944 -5.328,0.936 -9.72,1.728 z m 7.632,-15.84 v 6.192 h 6.696 v -6.192 z m -4.608,-3.816 h 16.128 v 13.824 h -16.128 z m 18.216,-15.912004 h 5.688 q 0.288,7.2 0.936,13.968 0.72,6.696004 1.872,12.096004 1.224,5.328 2.88,8.64 1.728,3.312 3.96,3.744 0.72,0.216 1.152,-1.8 0.504,-2.016 0.792,-5.4 0.576,0.576 1.368,1.224 0.792,0.648 1.584,1.152 0.864,0.504 1.44,0.864 -0.792,6.192 -3.024,8.496 -2.16,2.232 -5.328,0.936 -3.6,-0.936 -5.976,-4.824 -2.376,-3.96 -3.816,-10.008 -1.44,-6.048 -2.304,-13.536 -0.792,-7.488004 -1.224,-15.552004 z m -30.312,-7.632 h 60.912 v 63.792004 h -6.768 V 84.033406 h -47.664 v 57.672004 h -6.48 z m 4.104,54.432004 h 53.712 v 6.192 h -53.712 z m 110.088,-37.728004 7.344,2.016 q -4.176,12.024004 -10.944,20.808004 -6.696,8.712 -16.056,14.688 -9.36,5.904 -21.528,9.648 -0.432,-0.936 -1.224,-2.16 -0.792,-1.224 -1.656,-2.52 -0.864,-1.224 -1.584,-2.016 11.808,-3.096 20.736,-8.352 8.928,-5.256 15.12,-13.176 6.264,-7.992 9.792,-18.936004 z m -23.04,0.72 q 3.528,9.864004 9.576,17.784004 6.12,7.848 15.048,13.248 8.928,5.4 20.664,7.992 -0.864,0.792 -1.8,2.016 -0.936,1.296 -1.8,2.52 -0.792,1.296 -1.368,2.376 -12.24,-3.168 -21.312,-9.144 -9.072,-6.048 -15.408,-14.76 -6.264,-8.784 -10.44,-20.088004 z m -1.8,-20.16 6.984,2.664 q -2.592,4.392 -6.048,8.784 -3.384,4.392 -7.128,8.28 -3.672,3.888 -7.2,6.840004 -0.576,-0.72 -1.512,-1.800004 -0.936,-1.152 -1.944,-2.232 -1.008,-1.152 -1.8,-1.872 3.384,-2.52 6.84,-5.832 3.528,-3.312 6.552,-7.128 3.024,-3.816 5.256,-7.704 z m 19.152,3.528 5.904,-3.744 q 3.6,3.24 7.488,7.2 3.888,3.888 7.2,7.776 3.384,3.816 5.4,6.984 l -6.408,4.392004 q -1.872,-3.096004 -5.112,-7.056004 -3.24,-3.96 -7.056,-8.064 -3.816,-4.104 -7.416,-7.488 z m 63.576,-0.36 h 31.536 v 33.552004 h -6.912 V 85.329406 h -24.624 z m 4.968,23.112004 h 22.968 v 6.696 h -22.968 z m -3.456,0 h 7.128 v 29.088 q 0,2.16 0.72,2.808 0.792,0.648 3.528,0.648 0.504,0 1.656,0 1.224,0 2.664,0 1.512,0 3.096,0 1.584,0 2.808,0 1.296,0 1.944,0 1.728,0 2.52,-0.792 0.864,-0.864 1.224,-3.312 0.36,-2.448 0.576,-7.128 0.792,0.576 1.944,1.152 1.152,0.576 2.304,1.08 1.224,0.432 2.232,0.648 -0.36,5.688 -1.368,8.928 -1.008,3.168 -3.096,4.464 -2.088,1.296 -5.832,1.296 -0.576,0 -1.944,0 -1.296,0 -3.096,0 -1.728,0 -3.528,0 -1.728,0 -3.096,0 -1.296,0 -1.8,0 -4.032,0 -6.336,-0.864 -2.304,-0.792 -3.312,-2.952 -0.936,-2.088 -0.936,-5.976 z m -13.392,2.016 5.112,-1.872 q 1.152,2.304 2.232,4.968 1.08,2.664 1.944,5.184 0.864,2.448 1.296,4.32 l -5.472,2.304 q -0.432,-1.872 -1.224,-4.464 -0.792,-2.592 -1.8,-5.328 -1.008,-2.736 -2.088,-5.112 z m -7.128,18.72 5.544,-1.296 q 0.72,3.888 1.296,8.424 0.576,4.464 0.792,7.776 l -5.832,1.368 q 0,-2.232 -0.288,-5.04 -0.288,-2.808 -0.72,-5.688 -0.36,-2.952 -0.792,-5.544 z m -8.352,-0.648 5.832,0.936 q -0.576,4.752 -1.656,9.576 -1.008,4.752 -2.232,8.064 -0.648,-0.36 -1.656,-0.72 -1.008,-0.36 -2.088,-0.72 -1.08,-0.36 -1.8,-0.576 1.368,-3.24 2.232,-7.704 0.864,-4.464 1.368,-8.856 z m -1.368,-19.224 q -0.144,-0.648 -0.576,-1.728 -0.36,-1.152004 -0.792,-2.304004 -0.36,-1.224 -0.72,-2.016 1.008,-0.216 2.016,-1.224 1.008,-1.08 2.16,-2.736 0.576,-0.792 1.728,-2.592 1.152,-1.8 2.592,-4.32 1.44,-2.52 2.808,-5.328 1.44,-2.88 2.592,-5.832 l 6.192,2.592 q -2.88,5.976 -6.624,11.88 -3.672,5.832 -7.416,10.152 v 0.144 q 0,0 -0.576,0.36 -0.576,0.36 -1.44,0.864004 -0.792,0.504 -1.368,1.08 -0.576,0.504 -0.576,1.008 z m 0,0 -0.216,-4.968004 3.024,-1.944 13.032,-1.008 q -0.288,1.296 -0.504,2.952 -0.144,1.584 -0.144,2.592 -4.392,0.432004 -7.2,0.792004 -2.736,0.36 -4.32,0.648 -1.584,0.216 -2.448,0.504 -0.792,0.216 -1.224,0.432 z m 0.504,16.488 q -0.144,-0.648 -0.576,-1.8 -0.36,-1.224 -0.792,-2.448 -0.432,-1.224 -0.864,-2.088 1.368,-0.216 2.664,-1.512 1.368,-1.296 3.168,-3.24 0.936,-0.936 2.736,-3.168 1.8,-2.304 3.96,-5.400004 2.232,-3.168 4.464,-6.768 2.304,-3.672 4.104,-7.344 l 5.832,3.6 q -2.808,4.896 -6.264,9.72 -3.384,4.752004 -7.056,9.072004 -3.6,4.32 -7.272,7.848 v 0.216 q 0,0 -0.648,0.36 -0.576,0.288 -1.44,0.792 -0.792,0.504 -1.44,1.08 -0.576,0.576 -0.576,1.08 z m 0,0 -0.36,-5.184 3.096,-2.088 19.512,-2.664 q -0.144,1.296 -0.288,2.952 -0.072,1.656 0,2.664 -6.624,1.08 -10.728,1.8 -4.032,0.648 -6.264,1.08 -2.232,0.432 -3.312,0.792 -1.08,0.288 -1.656,0.648 z m 17.64,1.872 5.184,-1.728 q 1.224,3.312 2.448,7.2 1.296,3.888 1.872,6.696 l -5.4,1.944 q -0.576,-2.88 -1.8,-6.84 -1.152,-3.96 -2.304,-7.272 z m 61.344,-19.8 h 40.392 v 5.832 h -40.392 z m 38.448,0 h 1.44 l 1.008,-0.216 4.536,2.736 q -1.44,2.664 -3.528,5.616 -2.016,2.88 -4.32,5.544 -2.304,2.664 -4.392,4.752 -1.008,-0.792 -2.52,-1.728 -1.512,-0.936 -2.664,-1.584 2.016,-1.872 4.032,-4.32 2.016,-2.448 3.672,-4.968 1.728,-2.592 2.736,-4.608 z m -13.104,-24.696004 q 2.592,2.664 6.264,5.256 3.672,2.592 7.92,4.896 4.32,2.304 8.784,4.176 4.536,1.872 8.784,3.168 -0.72,0.648 -1.656,1.728 -0.864,1.008 -1.656,2.088 -0.792,1.08 -1.368,2.016 -4.176,-1.512 -8.712,-3.672 -4.464,-2.232 -8.856,-4.896 -4.32,-2.736 -8.208,-5.688 -3.816,-2.952 -6.84,-6.12 z m -3.816,-2.664 6.192,2.376 q -5.184,8.28 -13.968,14.184 -8.712,5.904 -19.728,9.576 -0.432,-0.72 -1.152,-1.8 -0.72,-1.08 -1.584,-2.016 -0.792,-1.008 -1.44,-1.656 6.984,-2.16 13.176,-5.184 6.192,-3.024 10.944,-6.912 4.752,-3.96 7.56,-8.568 z m -14.688,44.712004 h 6.912 v 13.248 q 0,1.728 0.936,2.16 0.936,0.432 4.32,0.432 0.576,0 1.944,0 1.44,0 3.24,0 1.8,0 3.6,0 1.872,0 3.384,0 1.512,0 2.304,0 1.872,0 2.808,-0.576 0.936,-0.576 1.296,-2.376 0.432,-1.8 0.648,-5.4 0.72,0.504 1.8,1.008 1.152,0.504 2.304,0.936 1.224,0.36 2.088,0.576 -0.36,4.824 -1.44,7.416 -1.008,2.664 -3.096,3.672 -2.088,1.008 -5.904,1.008 -0.576,0 -2.16,0 -1.584,0 -3.6,0 -2.016,0 -4.104,0 -2.016,0 -3.6,0 -1.512,0 -2.016,0 -4.608,0 -7.128,-0.792 -2.52,-0.792 -3.528,-2.664 -1.008,-1.872 -1.008,-5.256 z m 8.064,-3.168 5.544,-2.952 q 1.872,2.088 4.032,4.608 2.16,2.52 4.104,4.896 2.016,2.376 3.168,4.248 l -5.904,3.384 q -1.152,-1.8 -3.024,-4.248 -1.872,-2.52 -3.96,-5.112 -2.016,-2.592 -3.96,-4.824 z m 25.632,2.664 6.264,-2.088 q 1.584,3.096 3.312,6.696 1.8,3.6 3.456,6.984 1.656,3.384 2.664,5.904 l -6.768,2.52 q -0.864,-2.52 -2.448,-5.976 -1.512,-3.456 -3.24,-7.128 -1.728,-3.744 -3.24,-6.912 z m -42.552,0.144 5.976,2.304 q -0.792,2.808 -1.944,6.192 -1.08,3.312 -2.304,6.624 -1.152,3.24 -2.448,5.832 l -6.336,-2.88 q 1.44,-2.448 2.736,-5.544 1.368,-3.168 2.448,-6.408 1.08,-3.24 1.872,-6.12 z m 11.736,-27.072004 h 27.072 v 5.616 h -27.072 z m 88.776,41.904004 h 22.32 v 5.832 h -22.32 z m -3.888,-38.664004 h 5.976 v 47.304004 h -5.976 z m 3.816,0 h 23.544 v 18.936004 h -23.544 v -5.544 h 17.712 v -7.848004 h -17.712 z m -8.064,-11.16 h 37.584 v 12.384 h -5.832 v -6.84 h -26.136 v 6.84 h -5.616 z m 7.56,35.352004 h 27.216 v 22.896 h -5.976 v -17.208 h -21.24 z m 6.048,-41.688004 5.976,-2.448 q 1.08,1.8 2.16,3.96 1.152,2.16 1.728,3.744 l -6.048,2.952 q -0.576,-1.656 -1.728,-3.96 -1.08,-2.376 -2.088,-4.248 z m -34.056,29.880004 h 14.832 v 4.824 h -14.832 z m 0.648,-9.936004 h 17.136 v 25.056004 h -17.28 v -5.04 h 11.232 v -14.976 h -11.088 z m 4.968,-14.76 2.88,-4.68 q 1.944,1.08 4.176,2.376 2.304,1.224 4.392,2.448 2.16,1.224 3.528,2.16 l -2.952,5.256 q -1.296,-1.008 -3.384,-2.304 -2.088,-1.368 -4.392,-2.736 -2.304,-1.368 -4.248,-2.52 z m 0.864,-7.776 5.4,1.944 q -1.944,3.6 -4.752,7.128 -2.736,3.528 -5.976,6.552 -3.24,3.024 -6.624,5.256 -0.144,-0.648 -0.648,-1.8 -0.504,-1.152 -1.08,-2.304 -0.576,-1.224 -1.08,-1.944 4.248,-2.592 8.28,-6.48 4.032,-3.96 6.48,-8.352 z m 1.872,50.616004 4.68,-2.016 q 1.296,2.304 2.664,4.968 1.44,2.592 2.664,5.112 1.224,2.448 1.944,4.248 l -4.968,2.448 q -0.72,-1.872 -1.872,-4.392 -1.152,-2.592 -2.52,-5.328 -1.368,-2.736 -2.592,-5.04 z m -12.456,16.848 q -0.144,-0.864 -0.504,-1.944 -0.36,-1.008 -0.864,-2.088 -0.432,-1.008 -0.936,-1.728 0.936,-0.36 1.8,-1.296 0.936,-0.936 0.936,-2.88 V 96.489406 h 5.904 v 40.176004 q 0,0 -0.936,0.432 -0.936,0.504 -2.232,1.224 -1.296,0.72 -2.232,1.512 -0.936,0.792 -0.936,1.584 z m 0,0 -0.648,-5.256 2.448,-2.232 16.632,-5.976 q 0.072,1.152 0.36,2.664 0.36,1.44 0.576,2.376 -5.832,2.304 -9.432,3.744 -3.6,1.512 -5.616,2.376 -1.944,0.864 -2.88,1.368 -0.936,0.504 -1.44,0.936 z m 6.048,-53.208004 h 12.456 v 4.68 h -12.456 z"
           id="text4"
           transform="matrix(0.26655641,0,0,0.26655641,-1.475616,-4.7571419)"
           aria-label="國父紀念館" />
        <path
           style="font-size:7.46358px;line-height:1.25;font-family:'AR UDJingXiHeiE1G30 EB';-inkscape-font-specification:'AR UDJingXiHeiE1G30 EB';fill:#ffffff;stroke-width:0.266556"
           d="m 43.633564,38.591809 q -0.985192,-0.179126 -1.462861,-0.552305 -0.47767,-0.373179 -0.47767,-1.044901 0,-0.626941 0.507524,-1.037437 0.514987,-0.410497 1.582279,-0.410497 0.977729,0 1.515107,0.41796 0.537377,0.417961 0.589622,1.2091 h -0.947874 q -0.0075,-0.380643 -0.298543,-0.634404 -0.29108,-0.253762 -0.888166,-0.253762 -0.559769,0 -0.828458,0.18659 -0.268689,0.186589 -0.261225,0.52245 0,0.365716 0.358252,0.544842 0.365715,0.179125 1.186709,0.343324 1.029974,0.20898 1.462862,0.567232 0.440351,0.358252 0.440351,1.074756 0,0.686649 -0.582159,1.149391 -0.58216,0.455279 -1.656915,0.455279 -1.097146,0 -1.70916,-0.462742 -0.612014,-0.462742 -0.612014,-1.335981 H 42.4991 q 0,0.485132 0.365716,0.776212 0.365715,0.283616 1.015046,0.283616 0.597087,0 0.932948,-0.231371 0.335861,-0.231371 0.335861,-0.60455 0,-0.432888 -0.335861,-0.619477 -0.335861,-0.18659 -1.179246,-0.343325 z m 7.889004,0.552305 q 0,0.940411 -0.589622,1.462862 -0.589623,0.522451 -1.679306,0.522451 -1.10461,0 -1.701696,-0.514987 -0.589623,-0.514988 -0.589623,-1.462862 v -3.515346 h 0.947875 v 3.470564 q 0,0.612014 0.335861,0.947875 0.335861,0.335861 1.007583,0.335861 0.634404,0 0.970266,-0.320934 0.343324,-0.328397 0.343324,-0.977729 v -3.455637 h 0.955338 z m 2.149513,-2.007703 V 41.0324 h -0.947875 v -5.396168 h 0.977729 l 2.649571,3.985551 V 35.636232 H 57.29938 V 41.0324 h -1.037437 z m 8.821941,0.888166 1.537498,-2.388345 h 1.059828 l -2.12712,3.172021 V 41.0324 h -0.947875 v -2.224147 l -2.164438,-3.172021 h 1.082219 z m 6.075357,0.828458 -0.850848,-2.306247 -0.865775,2.306247 z m -1.992776,0.738894 -0.537378,1.440471 h -0.962801 l 2.171901,-5.396168 h 0.970266 l 2.156975,5.396168 h -0.985193 l -0.544841,-1.440471 z m 5.567824,-3.216803 h -1.679305 v -0.738894 h 4.299022 v 0.738894 H 73.092302 V 41.0324 h -0.947875 z m 5.381239,2.112193 v 0.746358 h -2.380882 v -0.746358 z m 2.694358,0.10449 q -0.985192,-0.179126 -1.462861,-0.552305 -0.477669,-0.373179 -0.477669,-1.044901 0,-0.626941 0.507523,-1.037437 0.514987,-0.410497 1.582279,-0.410497 0.977729,0 1.515107,0.41796 0.537378,0.417961 0.589623,1.2091 h -0.947875 q -0.0075,-0.380643 -0.298543,-0.634404 -0.29108,-0.253762 -0.888166,-0.253762 -0.559769,0 -0.828458,0.18659 -0.268689,0.186589 -0.261225,0.52245 0,0.365716 0.358252,0.544842 0.365715,0.179125 1.186709,0.343324 1.029974,0.20898 1.462862,0.567232 0.440351,0.358252 0.440351,1.074756 0,0.686649 -0.582159,1.149391 -0.582159,0.455279 -1.656915,0.455279 -1.097146,0 -1.70916,-0.462742 -0.612013,-0.462742 -0.612013,-1.335981 h 0.947874 q 0,0.485132 0.365716,0.776212 0.365715,0.283616 1.015047,0.283616 0.597086,0 0.932947,-0.231371 0.335861,-0.231371 0.335861,-0.60455 0,-0.432888 -0.335861,-0.619477 -0.335861,-0.18659 -1.179246,-0.343325 z m 7.35909,2.440591 h -3.993015 v -5.396168 h 3.970624 v 0.738894 h -3.02275 v 1.52257 h 2.821234 v 0.738895 h -2.821234 v 1.656915 h 3.045141 z m 1.947997,-3.895989 V 41.0324 h -0.947875 v -5.396168 h 0.977729 l 2.649571,3.985551 v -3.985551 h 0.947875 V 41.0324 h -1.037438 z m 7.739722,0.0075 V 41.0324 h -0.91802 v -5.396168 h 1.201636 l 1.552425,4.187068 1.492716,-4.187068 h 1.23149 V 41.0324 h -0.92548 v -3.91838 l -1.403156,3.91838 h -0.798603 z m 9.792217,3.888525 h -3.99302 v -5.396168 h 3.97063 v 0.738894 h -3.02275 v 1.52257 h 2.82123 v 0.738895 h -2.82123 v 1.656915 h 3.04514 z m 1.91814,-3.888525 V 41.0324 h -0.91802 v -5.396168 h 1.20164 l 1.55242,4.187068 1.49272,-4.187068 h 1.23149 V 41.0324 h -0.92549 v -3.91838 l -1.40315,3.91838 h -0.7986 z m 10.98639,1.216563 q 0,1.298663 -0.72396,2.037558 -0.71651,0.731431 -1.96293,0.731431 -1.2688,0 -1.98531,-0.738895 -0.7165,-0.738894 -0.7165,-2.030094 0,-1.31359 0.72397,-2.059948 0.72396,-0.753821 1.97784,-0.753821 1.26881,0 1.97785,0.746358 0.70904,0.746358 0.70904,2.067411 z m -2.68689,2.030094 q 0.81353,0 1.25389,-0.537378 0.44781,-0.537377 0.44781,-1.492716 0,-0.947874 -0.44781,-1.507643 -0.44782,-0.567232 -1.25389,-0.567232 -0.82099,0 -1.27627,0.574696 -0.44781,0.567232 -0.44781,1.500179 0,0.955339 0.45528,1.492716 0.45527,0.537378 1.2688,0.537378 z m 7.09787,-3.209339 q 0,-0.39557 -0.20898,-0.597087 -0.20898,-0.20898 -0.60455,-0.20898 h -1.6196 v 1.679306 h 1.56735 q 0.38811,0 0.62695,-0.231371 0.23883,-0.231371 0.23883,-0.641868 z m -2.43313,1.604669 V 41.0324 h -0.94787 v -5.396168 h 2.7466 q 0.73889,0 1.17178,0.395569 0.44035,0.388106 0.44035,1.10461 0,0.470206 -0.22391,0.806067 -0.21644,0.335861 -0.54484,0.477669 0.41796,0.238835 0.64187,0.828457 0.22391,0.589623 0.28361,1.783796 h -0.98519 q -0.0448,-1.253881 -0.27615,-1.746478 -0.22391,-0.50006 -0.72397,-0.50006 z m 5.45588,-3.14963 V 41.0324 h -0.94787 v -5.396168 z m 4.11243,3.216803 -0.85084,-2.306247 -0.86578,2.306247 z m -1.99277,0.738894 -0.53738,1.440471 h -0.9628 l 2.1719,-5.396168 h 0.97027 l 2.15697,5.396168 h -0.98519 l -0.54484,-1.440471 z m 8.20993,1.440471 h -3.7915 v -5.396168 h 0.94787 v 4.657274 h 2.84363 z m 3.68701,-2.395809 V 41.0324 h -0.94788 v -5.396168 h 0.94788 v 2.261464 h 2.58986 v -2.261464 h 0.94787 V 41.0324 h -0.94787 v -2.395809 z m 7.65016,0.216444 -0.85085,-2.306247 -0.86577,2.306247 z m -1.99277,0.738894 -0.53738,1.440471 h -0.9628 l 2.1719,-5.396168 h 0.97026 l 2.15698,5.396168 h -0.98519 l -0.54484,-1.440471 z m 8.20993,1.440471 h -3.79149 v -5.396168 h 0.94787 v 4.657274 h 2.84362 z m 4.57518,0 h -3.79149 v -5.396168 h 0.94787 v 4.657274 h 2.84362 z"
           id="text5"
           aria-label="SUN YAT-SEN MEMORIAL HALL" />
        <path
           d="m 42.919497,45.103357 h 3.769108 v 0.626941 h -3.769108 z m 0.201516,1.530034 h 3.395929 v 0.60455 h -3.395929 z m -0.298543,1.70916 h 4.007943 V 48.92471 H 42.82247 Z m 1.627061,-3.037677 h 0.664258 v 3.351147 h -0.664258 z m 1.029974,2.23161 0.447814,-0.246298 q 0.194054,0.171662 0.39557,0.39557 0.201517,0.216444 0.306007,0.388106 l -0.477669,0.276152 q -0.10449,-0.171662 -0.298543,-0.403033 -0.194053,-0.231371 -0.373179,-0.410497 z m -3.776572,-3.612373 h 6.232089 v 6.605269 h -0.746358 v -5.955937 h -4.769227 v 5.955937 h -0.716504 z m 0.388106,5.575295 h 5.44095 v 0.656795 h -5.44095 z m 11.352106,-3.73179 0.783676,0.216444 q -0.432888,1.216563 -1.127001,2.104729 -0.686649,0.880703 -1.634524,1.485253 -0.947875,0.597086 -2.164438,0.970265 -0.05224,-0.0821 -0.149272,-0.20898 -0.08956,-0.126881 -0.194053,-0.253762 -0.09703,-0.126881 -0.179126,-0.201517 1.201636,-0.320934 2.112193,-0.850848 0.918021,-0.537378 1.552425,-1.343444 0.634404,-0.806067 1.00012,-1.91814 z m -2.298783,0.05971 q 0.358252,1.015047 0.985193,1.821114 0.634404,0.798603 1.544961,1.358372 0.910556,0.552304 2.112193,0.820993 -0.0821,0.0821 -0.18659,0.208981 -0.09703,0.12688 -0.186589,0.261225 -0.0821,0.134344 -0.141808,0.238834 -1.246418,-0.320934 -2.179366,-0.932947 -0.925484,-0.619477 -1.574815,-1.515107 -0.649332,-0.903093 -1.074756,-2.052484 z m -0.320934,-2.104729 0.768749,0.276152 q -0.276153,0.462742 -0.634405,0.918021 -0.358251,0.447814 -0.753821,0.835921 -0.39557,0.388106 -0.776212,0.686649 -0.06717,-0.0821 -0.179126,-0.18659 -0.111954,-0.111953 -0.231371,-0.216443 -0.119418,-0.104491 -0.216444,-0.171663 0.388106,-0.253761 0.761285,-0.597086 0.380643,-0.343325 0.701576,-0.738895 0.328398,-0.395569 0.559769,-0.806066 z m 2.179365,0.388106 0.612014,-0.417961 q 0.373179,0.313471 0.776212,0.694113 0.410497,0.380643 0.768749,0.761286 0.365715,0.380642 0.582159,0.686649 l -0.664258,0.492596 q -0.201517,-0.306007 -0.544842,-0.694113 -0.343324,-0.395569 -0.746358,-0.791139 -0.403033,-0.403034 -0.783676,-0.731431 z m 6.567951,-0.09703 h 3.261584 v 3.395929 h -0.70904 v -2.73167 h -2.552544 z m 0.529914,2.306247 h 2.343564 v 0.656795 h -2.343564 z m -0.335861,0 h 0.701577 v 3.14963 q 0,0.231371 0.0821,0.298544 0.0821,0.06717 0.373179,0.06717 0.06717,0 0.231371,0 0.171662,0 0.380642,0 0.208981,0 0.388107,0 0.179126,0 0.268689,0 0.179125,0 0.268688,-0.0821 0.08956,-0.08956 0.126881,-0.343325 0.03732,-0.253762 0.05971,-0.746358 0.0821,0.05971 0.194053,0.119417 0.119417,0.05224 0.246298,0.09703 0.126881,0.04478 0.216444,0.07464 -0.04478,0.597087 -0.149272,0.932948 -0.09703,0.335861 -0.31347,0.470206 -0.216444,0.141808 -0.60455,0.141808 -0.05971,0 -0.201517,0 -0.141808,0 -0.320934,0 -0.179126,0 -0.358251,0 -0.179126,0 -0.320934,0 -0.134345,0 -0.18659,0 -0.410497,0 -0.649331,-0.08956 -0.231371,-0.08956 -0.335861,-0.313471 -0.09703,-0.216444 -0.09703,-0.619477 z m -2.149511,0.873239 h 0.671722 v 3.33622 h -0.671722 z m -0.07464,-3.589983 0.649332,0.276153 q -0.171663,0.276152 -0.365716,0.582159 -0.186589,0.298543 -0.373179,0.574696 -0.186589,0.276152 -0.358252,0.485133 l -0.492596,-0.238835 q 0.164199,-0.223907 0.335861,-0.514987 0.179126,-0.298543 0.335861,-0.60455 0.164199,-0.306007 0.268689,-0.559769 z m 0.970266,0.850849 0.60455,0.298543 q -0.29108,0.41796 -0.649332,0.888166 -0.358252,0.462742 -0.723967,0.895629 -0.358252,0.425425 -0.679186,0.746358 L 56.62263,47.028961 q 0.238834,-0.253762 0.492596,-0.567232 0.261225,-0.320934 0.514987,-0.671723 0.253762,-0.350788 0.477669,-0.686649 0.231371,-0.343325 0.403034,-0.649331 z m -2.246538,0.880702 0.335861,-0.477669 q 0.20898,0.156735 0.425424,0.350788 0.223907,0.18659 0.410497,0.380643 0.186589,0.194053 0.29108,0.350788 l -0.358252,0.552305 q -0.10449,-0.171662 -0.283616,-0.373179 -0.179126,-0.201517 -0.39557,-0.403033 -0.216444,-0.208981 -0.425424,-0.380643 z m 2.030094,0.865775 0.529914,-0.238834 q 0.171662,0.246298 0.343325,0.529914 0.179125,0.283616 0.320934,0.559769 0.141808,0.276152 0.216443,0.485132 L 59.130393,47.8201 q -0.06717,-0.216444 -0.201517,-0.492596 -0.134344,-0.283616 -0.298543,-0.574696 -0.164199,-0.298543 -0.335861,-0.552305 z m -2.052485,0.694113 q 0.552305,-0.02239 1.31359,-0.05971 0.761285,-0.03732 1.552425,-0.07464 l -0.0075,0.589623 q -0.746358,0.05225 -1.485252,0.09703 -0.738895,0.03732 -1.306127,0.06717 z m 2.231611,1.18671 0.559768,-0.201517 q 0.126881,0.223907 0.238835,0.485133 0.119417,0.253761 0.216444,0.507523 0.09703,0.246298 0.149271,0.440351 l -0.597086,0.231371 q -0.04478,-0.194053 -0.134345,-0.447815 -0.08956,-0.253761 -0.201516,-0.52245 -0.111954,-0.268689 -0.231371,-0.492596 z m -1.783796,-0.156736 0.634404,0.119418 q -0.0821,0.529914 -0.231371,1.052364 -0.149271,0.522451 -0.343324,0.873239 -0.05971,-0.03732 -0.171663,-0.08956 -0.10449,-0.05971 -0.216444,-0.111953 -0.111953,-0.05224 -0.186589,-0.0821 0.201517,-0.328397 0.320934,-0.798603 0.126881,-0.477669 0.194053,-0.962802 z m 9.023467,0.29108 h 0.701577 v 1.335981 q 0,0.156735 0.06717,0.201517 0.07464,0.03732 0.320934,0.03732 0.05971,0 0.201517,0 0.141808,0 0.31347,0 0.179126,0 0.328398,0 0.156735,0 0.231371,0 0.149271,0 0.223907,-0.05224 0.07464,-0.05971 0.09703,-0.238834 0.02985,-0.18659 0.04478,-0.567232 0.07464,0.05971 0.18659,0.111953 0.111953,0.05224 0.231371,0.08956 0.12688,0.03732 0.216443,0.06717 -0.03732,0.485132 -0.134344,0.753821 -0.09703,0.268689 -0.283616,0.365716 -0.18659,0.10449 -0.522451,0.10449 -0.05224,0 -0.171662,0 -0.119417,0 -0.276153,0 -0.156735,0 -0.31347,0 -0.156735,0 -0.276152,0 -0.119418,0 -0.171663,0 -0.403033,0 -0.62694,-0.0821 -0.216444,-0.07464 -0.306007,-0.268689 -0.0821,-0.186589 -0.0821,-0.514987 z m 0.388107,-0.410497 0.440351,-0.462742 q 0.268689,0.119417 0.544841,0.283616 0.283616,0.164199 0.529914,0.343325 0.246298,0.179126 0.39557,0.350788 l -0.477669,0.50006 Q 67.392575,48.648558 67.15374,48.461968 66.922369,48.275379 66.646217,48.103716 66.370064,47.932054 66.101376,47.805173 Z m 2.560008,0.612014 0.589622,-0.343325 q 0.276153,0.253762 0.552305,0.559768 0.276153,0.298544 0.50006,0.60455 0.223908,0.306007 0.343325,0.574696 l -0.634404,0.388106 Q 69.900338,49.939757 69.683894,49.63375 69.474914,49.32028 69.206225,48.999346 68.945,48.678412 68.661384,48.417187 Z m -3.910916,-0.261226 0.634404,0.208981 q -0.0821,0.350788 -0.223908,0.70904 -0.134344,0.350788 -0.343324,0.656795 -0.201517,0.306007 -0.492597,0.537378 l -0.582159,-0.403034 q 0.261226,-0.194053 0.455279,-0.470205 0.201516,-0.276153 0.335861,-0.589623 0.141808,-0.320934 0.216444,-0.649332 z m 0.01493,-1.94053 h 4.187068 v 0.60455 h -4.187068 z m 1.082219,-1.015047 h 2.686889 v 0.559768 h -2.686889 z m 1.321054,-0.970266 q -0.313471,0.358252 -0.798604,0.731431 -0.477669,0.365715 -1.059828,0.694113 -0.582159,0.320934 -1.179246,0.559769 -0.04478,-0.08956 -0.111953,-0.201517 -0.06717,-0.111954 -0.141808,-0.216444 -0.07464,-0.111954 -0.149272,-0.186589 0.619477,-0.223908 1.201636,-0.544842 0.589623,-0.320934 1.067292,-0.701576 0.47767,-0.380643 0.776213,-0.753822 h 0.723967 q 0.410497,0.432888 0.932948,0.81353 0.52245,0.373179 1.104609,0.656795 0.58216,0.276153 1.156855,0.455279 -0.119417,0.126881 -0.238834,0.31347 -0.119418,0.179126 -0.201517,0.328398 -0.403033,-0.156736 -0.835921,-0.365716 -0.432888,-0.216444 -0.850848,-0.470205 -0.410497,-0.261226 -0.776212,-0.544842 -0.358252,-0.283616 -0.619477,-0.567232 z m 1.582279,1.985313 h 0.149271 l 0.111954,-0.02986 0.470205,0.283616 q -0.134344,0.29108 -0.335861,0.612014 -0.201516,0.320934 -0.425424,0.626941 -0.216444,0.298543 -0.41796,0.529914 -0.10449,-0.0821 -0.261226,-0.179126 -0.156735,-0.09703 -0.283616,-0.156735 0.194053,-0.216444 0.380643,-0.492597 0.194053,-0.276152 0.358252,-0.559768 0.164199,-0.283616 0.253762,-0.50006 z m 6.33658,3.343683 h 2.530154 v 0.60455 h -2.530154 z m -0.29108,-3.933306 h 0.649332 v 4.903572 h -0.649332 z m 0.29108,0 h 2.492836 v 1.933067 h -2.492836 v -0.574696 h 1.843504 V 46.19304 h -1.843504 z m -0.731431,-1.224027 h 3.709399 v 1.321053 H 77.4087 V 44.98394 h -2.4182 v 0.738894 h -0.634404 z m 1.470325,-0.806067 h 0.68665 v 1.112073 h -0.68665 z m -0.738894,4.522929 h 2.806306 v 2.365955 h -0.656795 v -1.783795 h -2.149511 z m -2.410736,-3.186948 h 0.582159 v 0.932947 h -0.582159 z m -0.985193,0.671722 h 0.626941 v 4.157214 H 71.691598 Z M 72.094631,46.611 H 73.7814 v 0.470206 h -1.686769 z m -0.888166,3.000359 q 0.320934,-0.06717 0.723968,-0.156735 0.410497,-0.09703 0.873238,-0.201516 0.462742,-0.111954 0.918021,-0.223908 l 0.06717,0.567232 q -0.612014,0.179126 -1.246418,0.350789 -0.626941,0.171662 -1.134464,0.31347 z m 1.753942,-1.074755 0.559768,-0.246298 q 0.194053,0.268689 0.373179,0.574695 0.179126,0.306007 0.320934,0.60455 0.149272,0.298544 0.216444,0.537378 l -0.60455,0.276153 q -0.05971,-0.238835 -0.194053,-0.537378 -0.134345,-0.306007 -0.31347,-0.619477 -0.171663,-0.320934 -0.358252,-0.589623 z m -0.918021,-2.933187 h 2.030094 v 2.500299 h -2.030094 v -0.514987 h 1.410617 v -1.470325 h -1.410617 z m 0.447815,-2.00024 h 0.380643 v 0.141809 h 0.20898 v 0.186589 q -0.156735,0.29108 -0.380643,0.634404 -0.216443,0.343325 -0.514987,0.694113 -0.291079,0.350789 -0.686649,0.679186 -0.04478,-0.07464 -0.126881,-0.164199 -0.07464,-0.08956 -0.164199,-0.164198 -0.0821,-0.0821 -0.149271,-0.126881 0.350788,-0.276153 0.62694,-0.597087 0.276153,-0.320934 0.47767,-0.649331 0.20898,-0.335861 0.328397,-0.634405 z m 0.171662,0 h 0.492597 q 0.223907,0.18659 0.455278,0.417961 0.238835,0.223907 0.440351,0.455278 0.208981,0.223908 0.328398,0.417961 l -0.455279,0.514987 Q 73.811255,45.222774 73.624665,44.98394 73.445539,44.737642 73.221632,44.498807 72.997725,44.252509 72.788744,44.08831 h -0.126881 z"
           id="text5-9"
           style="font-weight:500;font-size:7.46358px;line-height:1.25;font-family:'Noto Sans JP';-inkscape-font-specification:'Noto Sans JP Medium';fill:#ffffff;stroke-width:0.266556"
           aria-label="国父紀念館" />
        <path
           style="font-weight:500;font-size:7.46358px;line-height:1.25;font-family:'Noto Sans KR';-inkscape-font-specification:'Noto Sans KR Medium';fill:#ffffff;stroke-width:0.266556"
           d="m 87.572319,44.094708 h 4.35873 v 0.626941 h -4.35873 z m -0.776213,2.395809 h 6.179845 v 0.634405 h -6.179845 z m 2.694353,0.440351 h 0.776212 v 1.530034 h -0.776212 z m 1.947994,-2.83616 h 0.768749 v 0.514987 q 0,0.432888 -0.02985,0.962802 -0.02239,0.529914 -0.18659,1.216563 l -0.768749,-0.07464 q 0.164199,-0.679186 0.18659,-1.179246 0.02985,-0.50006 0.02985,-0.925484 z m -4.007942,4.149751 h 4.806545 v 2.365954 H 91.45338 v -1.739014 h -4.022869 z m 6.23209,-0.470206 h 6.179844 v 0.626941 h -6.179844 z m 2.679425,0.306007 h 0.776212 v 2.530153 h -0.776212 z m -1.940531,-4.02287 h 0.783676 v 0.858312 h 3.119776 V 44.05739 h 0.768749 v 2.977969 h -4.672201 z m 0.783676,1.477789 v 0.873239 h 3.119776 v -0.873239 z m 12.285059,-1.753941 h 0.78368 v 6.821712 h -0.78368 z m -2.0077,0.723967 h 0.77621 q 0,0.761285 -0.1642,1.455398 -0.1642,0.694113 -0.53738,1.321054 -0.36571,0.619477 -0.97026,1.149391 -0.59709,0.529914 -1.47779,0.955338 l -0.41796,-0.619477 q 0.99265,-0.477669 1.60467,-1.089683 0.61201,-0.612013 0.89563,-1.365835 0.29108,-0.761285 0.29108,-1.671842 z m -2.45552,0 h 2.8063 v 0.626941 h -2.8063 z m 6.88142,-0.403033 h 0.77621 v 2.955577 h -0.77621 z m 0,2.806306 h 0.51499 q 0.52991,0 0.99265,-0.01493 0.47021,-0.02239 0.91056,-0.06717 0.44781,-0.04478 0.91802,-0.134344 l 0.0896,0.626941 q -0.47767,0.09703 -0.94041,0.149271 -0.46274,0.04478 -0.94787,0.06717 -0.47767,0.01493 -1.02251,0.01493 h -0.51499 z m 4.46322,-3.12724 h 0.78368 v 4.007942 h -0.78368 z m -1.7838,0.694113 h 1.98532 v 0.60455 h -1.98532 z m 0,1.201636 h 1.98532 v 0.60455 h -1.98532 z m -1.87335,2.403273 h 4.44083 v 2.44059 h -4.44083 z m 3.67208,0.619477 h -2.90334 v 1.201636 h 2.90334 z m 2.32117,-4.403512 h 2.97797 v 0.634404 h -2.97797 z m 0.94788,1.559888 h 0.76875 v 1.701696 h -0.76875 z m 1.71662,-1.559888 h 0.76875 v 0.395569 q 0,0.343325 -0.0224,0.850849 -0.0149,0.500059 -0.14181,1.164318 l -0.76875,-0.08956 q 0.12688,-0.649331 0.14181,-1.112073 0.0224,-0.470206 0.0224,-0.813531 z m 1.58228,-0.514987 h 0.78367 v 5.127479 h -0.78367 z m 0.45528,2.164438 h 1.23149 v 0.641868 h -1.23149 z m -4.09004,3.888525 h 4.64234 v 0.634404 h -4.64234 z m 0,-1.388226 h 0.78367 v 1.582279 h -0.78367 z m -0.94042,-0.544841 -0.0821,-0.634404 q 0.60455,0 1.32106,-0.0075 0.72397,-0.01493 1.47779,-0.05971 0.75382,-0.05224 1.44047,-0.149271 l 0.0522,0.567232 q -0.70904,0.119417 -1.45539,0.186589 -0.74636,0.05971 -1.4554,0.07464 -0.70158,0.01493 -1.29867,0.02239 z"
           id="text5-9-8"
           aria-label="국부 기념관" />
      </g>
      <text
         xml:space="preserve"
         transform="matrix(0.31615295,0,0,0.31615295,-23.186545,-6.4462013)"
         id="text6"
         style="font-size:55px;line-height:1.25;font-family:'Microsoft JhengHei';-inkscape-font-specification:'Microsoft JhengHei';white-space:pre;shape-inside:url(#rect6);display:inline" />
    </g>
  </g>
</svg>
