<?xml version="1.0" encoding="UTF-8" standalone="no"?>
<!-- Created with Inkscape (http://www.inkscape.org/) -->

<svg
   width="500"
   height="250"
   viewBox="0 0 132.29166 66.145833"
   version="1.1"
   id="svg1"
   inkscape:version="1.3.2 (091e20e, 2023-11-25, custom)"
   sodipodi:docname="bl18_2.svg"
   xmlns:inkscape="http://www.inkscape.org/namespaces/inkscape"
   xmlns:sodipodi="http://sodipodi.sourceforge.net/DTD/sodipodi-0.dtd"
   xmlns="http://www.w3.org/2000/svg"
   xmlns:svg="http://www.w3.org/2000/svg">
  <sodipodi:namedview
     id="namedview1"
     pagecolor="#9e652e"
     bordercolor="#ffffff"
     borderopacity="1"
     inkscape:showpageshadow="0"
     inkscape:pageopacity="0"
     inkscape:pagecheckerboard="false"
     inkscape:deskcolor="#d1d1d1"
     inkscape:document-units="mm"
     inkscape:zoom="2.0208096"
     inkscape:cx="305.81802"
     inkscape:cy="106.88785"
     inkscape:window-width="1920"
     inkscape:window-height="1009"
     inkscape:window-x="1912"
     inkscape:window-y="-8"
     inkscape:window-maximized="1"
     inkscape:current-layer="layer1" />
  <defs
     id="defs1">
    <rect
       x="560.66638"
       y="34.144731"
       width="279.32397"
       height="128.59143"
       id="rect6" />
    <rect
       x="157.85752"
       y="62.351248"
       width="329.07603"
       height="135.09437"
       id="rect4" />
    <rect
       x="157.85751"
       y="62.35125"
       width="329.07602"
       height="135.09438"
       id="rect4-5" />
  </defs>
  <g
     inkscape:label="Layer 1"
     inkscape:groupmode="layer"
     id="layer1">
    <rect
       style="fill:#005fb9;fill-opacity:1;stroke:none;stroke-width:0.953294;stroke-dasharray:none"
       id="rect5"
       width="132.29167"
       height="66.145836"
       x="-2.5431316e-06"
       y="-1.2715658e-06"
       ry="0" />
    <g
       id="g1"
       transform="translate(-0.10663352)">
      <path
         id="rect1"
         style="fill-opacity:0;stroke:#f9f9f9;stroke-width:0.942789"
         d="m 15.913089,14.352791 h 12.425164 c 3.927062,0 7.088559,3.161497 7.088559,7.088559 v 23.263136 c 0,3.927062 -3.161497,7.088559 -7.088559,7.088559 H 15.913089 c -3.927061,0 -7.0885584,-3.161497 -7.0885584,-7.088559 V 21.44135 c 0,-3.927062 3.1614974,-7.088559 7.0885584,-7.088559 z" />
      <path
         style="font-size:12.56px;line-height:1.25;font-family:'AR UDJingXiHeiE1G30 EB';-inkscape-font-specification:'AR UDJingXiHeiE1G30 EB';fill:#f9f9f9;stroke-width:0.261667"
         d="m 18.527196,30.522264 h -4.7728 v -9.08088 h 4.37088 q 1.29368,0 2.04728,0.628 0.7536,0.628 0.7536,1.67048 0,0.67824 -0.30144,1.1932 -0.28888,0.5024 -0.8792,0.82896 0.76616,0.30144 1.15552,0.82896 0.40192,0.52752 0.40192,1.256 0,1.20576 -0.79128,1.9468 -0.79128,0.72848 -1.98448,0.72848 z m 0.74104,-6.58144 q 0,-0.61544 -0.35168,-0.92944 -0.35168,-0.32656 -1.01736,-0.32656 h -2.54968 v 2.56224 h 2.6376 q 0.5652,0 0.91688,-0.32656 0.36424,-0.33912 0.36424,-0.97968 z m 0.3768,3.8936 q 0,-0.65312 -0.40192,-0.99224 -0.38936,-0.35168 -1.02992,-0.35168 h -2.86368 v 2.78832 h 2.83856 q 0.66568,0 1.05504,-0.36424 0.40192,-0.36424 0.40192,-1.08016 z m 9.633528,2.68784 h -6.38048 v -9.08088 h 1.59512 v 7.83744 h 4.78536 z"
         id="text2"
         aria-label="BL" />
      <path
         style="font-size:14.3917px;line-height:1.25;font-family:'AR UDJingXiHeiE1G30 EB';-inkscape-font-specification:'AR UDJingXiHeiE1G30 EB';fill:#f9f9f9;stroke-width:0.261667"
         d="m 17.218078,36.584172 -1.683829,1.568695 -0.834718,-1.280861 2.705639,-2.460981 h 1.568696 v 10.405199 h -1.755788 z m 11.225516,2.70564 q 0.877894,0.359792 1.324036,1.036202 0.446143,0.662018 0.446143,1.52552 0,1.453562 -1.007419,2.302672 -0.993027,0.84911 -2.748815,0.84911 -1.813354,0 -2.791989,-0.84911 -0.978636,-0.84911 -0.978636,-2.28828 0,-0.834719 0.431751,-1.496737 0.431751,-0.67641 1.26647,-1.064986 -0.67641,-0.316617 -1.007419,-0.877893 -0.33101,-0.575668 -0.345401,-1.295253 0,-1.26647 0.892285,-2.072405 0.906677,-0.820327 2.532939,-0.820327 1.583087,0 2.460981,0.805935 0.877894,0.805935 0.877894,2.086797 0,0.690801 -0.345401,1.266469 -0.331009,0.561276 -1.007419,0.892286 z m -2.000446,-0.662019 q 0.690801,0 1.10816,-0.402967 0.41736,-0.41736 0.41736,-1.079378 0,-0.690801 -0.41736,-1.079377 -0.402967,-0.402968 -1.093769,-0.402968 -0.719585,0 -1.165727,0.402968 -0.431751,0.402967 -0.431751,1.079377 0,0.647627 0.431751,1.064986 0.431751,0.417359 1.151336,0.417359 z m 1.957271,3.223741 q 0,-0.820327 -0.575668,-1.280861 -0.561277,-0.460535 -1.381603,-0.460535 -0.834719,0 -1.381604,0.50371 -0.532492,0.489318 -0.546884,1.252078 0,0.805935 0.532493,1.252078 0.532493,0.446142 1.410386,0.460534 0.863502,0 1.395995,-0.446143 0.546885,-0.460534 0.546885,-1.280861 z"
         id="text3"
         aria-label="18" />
      <path
         style="font-weight:500;font-size:72px;line-height:1.25;font-family:'Noto Sans TC';-inkscape-font-specification:'Noto Sans TC Medium';white-space:pre;fill:#f9f9f9"
         d="m 190.04142,89.289406 h 7.128 v 51.984004 h -7.128 z m -28.8,-4.392 h 65.376 v 6.624 h -65.376 z m 6.624,15.696004 h 47.376 v 6.624 h -40.536 v 26.28 h -6.84 z m 45.648,0 h 7.056 v 24.984 q 0,2.664 -0.72,4.248 -0.648,1.584 -2.664,2.376 -2.088,0.792 -5.184,1.008 -3.096,0.144 -7.632,0.144 -0.144,-1.512 -0.864,-3.384 -0.72,-1.944 -1.44,-3.312 2.16,0.072 4.176,0.144 2.088,0.072 3.6,0.072 1.512,-0.072 2.088,-0.072 0.936,-0.072 1.224,-0.36 0.36,-0.288 0.36,-0.936 z m -26.496,-24.552004 6.696,-2.016 q 1.512,2.52 3.168,5.616 1.656,3.024 2.448,5.256 l -7.128,2.376 q -0.432,-1.512 -1.296,-3.384 -0.864,-1.944 -1.872,-4.032 -1.008,-2.088 -2.016,-3.816 z m 46.296,3.312 h 33.12 v 6.552 h -33.12 z m 17.928,21.024004 h 12.744 v 6.408 h -12.744 z m -3.024,-17.496004 h 6.624 v 45.360004 h -6.624 z m -12.312,12.96 h 6.192 v 34.200004 h -6.192 z m -4.032,32.328004 q 4.248,-0.72 9.864,-1.872 5.688,-1.152 12.024,-2.52 6.336,-1.368 12.528,-2.736 l 0.648,6.264 q -5.976,1.368 -12.024,2.808 -6.048,1.368 -11.664,2.664 -5.616,1.296 -10.152,2.304 z m 39.6,-40.176004 h 27.792 v 6.264 h -27.792 z m 2.16,-13.392 6.768,1.152 q -1.296,6.768 -3.24,13.248 -1.944,6.408 -4.464,11.880004 -2.52,5.472 -5.688,9.576 -0.504,-0.648 -1.512,-1.512 -0.936,-0.864 -2.016,-1.728 -1.008,-0.864 -1.8,-1.368 3.024,-3.672 5.256,-8.568004 2.304,-4.968 3.96,-10.728 1.728,-5.832 2.736,-11.952 z m 14.328,16.992 6.84,0.648 q -1.728,12.312004 -5.112,21.744004 -3.312,9.36 -9.144,16.2 -5.76,6.768 -14.832,11.52 -0.288,-0.864 -1.008,-2.016 -0.648,-1.08 -1.44,-2.232 -0.792,-1.08 -1.44,-1.8 8.352,-3.888 13.608,-9.936 5.328,-6.12 8.28,-14.544 2.952,-8.496 4.248,-19.584004 z m -13.392,1.728 q 1.728,9.648004 4.824,18.072004 3.168,8.352 8.208,14.616 5.04,6.264 12.312,9.648 -0.72,0.648 -1.656,1.656 -0.936,1.08 -1.728,2.16 -0.792,1.08 -1.296,2.016 -7.704,-4.104 -12.96,-10.944 -5.184,-6.912 -8.496,-16.056 -3.24,-9.144 -5.184,-20.160004 z m 61.2,7.488004 h 34.848 v 6.264 h -34.848 z m 1.944,12.816 5.472,-2.304 q 1.512,2.16 2.952,4.68 1.512,2.52 2.808,4.896 1.368,2.304 2.088,4.176 l -5.76,2.736 q -0.72,-1.872 -2.016,-4.32 -1.224,-2.52 -2.736,-5.112 -1.44,-2.592 -2.808,-4.752 z m 18.504,-23.184004 h 6.84 v 43.056004 q 0,2.88 -0.72,4.392 -0.72,1.584 -2.592,2.376 -1.872,0.792 -4.824,1.008 -2.88,0.216 -7.128,0.216 -0.216,-1.44 -0.864,-3.384 -0.648,-1.944 -1.296,-3.384 2.952,0.144 5.544,0.216 2.664,0 3.528,0 0.864,-0.072 1.152,-0.36 0.36,-0.36 0.36,-1.152 z m -25.776,-0.864 6.624,1.872 q -1.728,4.824 -4.248,9.792004 -2.448,4.896 -5.544,9.36 -3.096,4.392 -6.768,7.776 -0.288,-0.864 -0.792,-2.016 -0.504,-1.224 -1.08,-2.376 -0.576,-1.224 -1.08,-1.944 2.952,-2.808 5.472,-6.552 2.52,-3.816 4.392,-7.992004 1.872,-4.176 3.024,-7.92 z m -17.136,-7.488 h 57.24 v 6.336 h -57.24 z m -3.528,0 h 6.84 v 24.480004 q 0,3.888 -0.216,8.568 -0.216,4.608 -0.936,9.432 -0.648,4.824 -1.944,9.288 -1.224,4.464 -3.384,8.064 -0.576,-0.648 -1.728,-1.44 -1.08,-0.792 -2.232,-1.512 -1.152,-0.648 -1.944,-1.008 1.944,-3.24 3.024,-7.2 1.08,-4.032 1.656,-8.208 0.576,-4.176 0.72,-8.28 0.144,-4.104 0.144,-7.704 z m 15.624,23.040004 5.904,-5.904004 0.504,0.144 v 42.048004 h -6.408 z m 9.648,-29.448004 6.84,-1.8 q 1.296,2.304 2.52,5.112 1.296,2.736 1.944,4.752 l -7.056,2.232 q -0.648,-2.088 -1.872,-4.968 -1.152,-2.952 -2.376,-5.328 z"
         id="text4"
         transform="matrix(0.26166763,0,0,0.26166763,-2.1314997,-4.0633201)"
         aria-label="市政府" />
      <path
         style="font-size:7.32669px;line-height:1.25;font-family:'AR UDJingXiHeiE1G30 EB';-inkscape-font-specification:'AR UDJingXiHeiE1G30 EB';fill:#f9f9f9;stroke-width:0.261667"
         d="m 41.520258,36.314564 h -1.648505 v -0.725342 h 4.220173 v 0.725342 h -1.641178 v 4.571855 h -0.93049 z m 6.095805,2.432461 -0.835243,-2.263947 -0.849896,2.263947 z m -1.956226,0.725343 -0.527522,1.414051 h -0.945143 l 2.132067,-5.297197 h 0.95247 l 2.117413,5.297197 H 48.421999 L 47.88715,39.472368 Z m 5.267883,-3.883146 v 5.297197 h -0.930489 v -5.297197 z m 2.146715,3.194437 v 2.10276 h -0.930489 v -5.297197 h 2.491074 q 0.77663,0 1.216231,0.424948 0.439601,0.424948 0.439601,1.12831 0,0.791283 -0.454254,1.216231 -0.446928,0.424948 -1.208904,0.424948 z m 2.271274,-1.626526 q 0,-0.410294 -0.234454,-0.622768 -0.234454,-0.219801 -0.688709,-0.219801 h -1.348111 v 1.743752 h 1.348111 q 0.454255,0 0.688709,-0.2198 0.234454,-0.227128 0.234454,-0.681383 z m 5.758777,3.729286 h -3.919779 v -5.297197 h 3.897799 v 0.725342 h -2.96731 v 1.494645 h 2.769489 v 0.725342 h -2.769489 v 1.626525 h 2.98929 z m 1.91227,-5.297197 v 5.297197 h -0.930489 v -5.297197 z m 6.901731,3.450871 h 0.930489 q -0.03663,0.871876 -0.608115,1.406724 -0.571482,0.534849 -1.655832,0.534849 -1.282171,0 -1.963553,-0.725343 -0.674055,-0.725342 -0.674055,-2.014839 0,-1.274845 0.674055,-2.007514 0.681382,-0.732669 1.9489,-0.732669 1.01841,0 1.582565,0.468909 0.564155,0.461581 0.644749,1.201577 H 69.8672 q -0.05861,-0.424948 -0.388315,-0.681382 -0.329701,-0.263761 -0.930489,-0.263761 -0.739996,0 -1.186924,0.498215 -0.446928,0.498215 -0.446928,1.516625 0,1.033063 0.446928,1.523951 0.454255,0.490888 1.201577,0.490888 0.637422,0 0.981777,-0.329701 0.344354,-0.337027 0.373661,-0.886529 z m 2.769484,-3.450871 v 5.297197 h -0.930489 v -5.297197 z m 2.344536,0.725342 h -1.648505 v -0.725342 h 4.220173 v 0.725342 h -1.641178 v 4.571855 h -0.93049 z m 5.238582,1.619199 1.509298,-2.344541 h 1.04039 l -2.088106,3.113843 v 2.183354 h -0.93049 v -2.183354 l -2.12474,-3.113843 h 1.06237 z m 5.993232,0.600788 v 2.351868 h -0.93049 v -5.297197 h 0.93049 v 2.219987 h 2.542361 v -2.219987 h 0.93049 v 5.297197 h -0.93049 v -2.351868 z m 7.509857,0.212474 -0.835242,-2.263947 -0.849896,2.263947 z m -1.956226,0.725343 -0.527522,1.414051 h -0.945143 l 2.132067,-5.297197 h 0.95247 l 2.117413,5.297197 h -0.967123 l -0.534848,-1.414051 z m 8.059352,1.414051 h -3.721959 v -5.297197 h 0.93049 v 4.571854 h 2.791469 z m 4.491266,0 h -3.72196 v -5.297197 h 0.93049 v 4.571854 h 2.79147 z"
         id="text5"
         aria-label="TAIPEI CITY HALL" />
      <path
         d="m 41.251565,49.227442 h 4.080966 v 0.666729 h -4.080966 z m -0.315048,-2.198007 h 4.769676 v 3.16513 H 44.966197 V 47.688837 H 41.63988 v 2.520382 h -0.703363 z m 1.450685,-3.663345 0.783956,0.263761 q -0.227128,0.439601 -0.505542,0.901183 -0.271087,0.461581 -0.542175,0.879203 -0.271087,0.417621 -0.520195,0.739995 l -0.615442,-0.256434 q 0.241781,-0.329701 0.498215,-0.761976 0.263761,-0.439601 0.498215,-0.901183 0.241781,-0.461581 0.402968,-0.864549 z m 1.765732,1.238211 0.542175,-0.402968 q 0.373662,0.300394 0.754649,0.666729 0.388315,0.359007 0.718016,0.725342 0.329701,0.366334 0.520195,0.681382 l -0.600789,0.461582 q -0.17584,-0.307721 -0.490888,-0.681383 -0.315047,-0.380988 -0.696035,-0.754649 -0.373662,-0.380988 -0.747323,-0.696035 z m -4.051659,0.974449 q 0.542175,-0.01465 1.21623,-0.03663 0.674056,-0.02198 1.428705,-0.05129 0.761976,-0.02931 1.545931,-0.05861 0.791283,-0.03663 1.560585,-0.07327 l -0.02931,0.666729 q -0.769303,0.04396 -1.553259,0.08059 -0.776629,0.03663 -1.523951,0.07327 -0.739996,0.02931 -1.406725,0.05861 -0.659402,0.02198 -1.186924,0.04396 z m 7.32669,-0.366334 h 2.161373 v 0.696036 h -2.161373 z m 3.626711,-1.670485 h 0.725343 v 5.370464 q 0,0.293067 0.05861,0.380987 0.06594,0.08059 0.285741,0.08059 0.05129,0 0.175841,0 0.13188,0 0.285741,0 0.15386,0 0.285741,0 0.13188,0 0.190494,0 0.161187,0 0.24178,-0.124554 0.08059,-0.13188 0.117227,-0.461581 0.03663,-0.329701 0.05861,-0.923163 0.08792,0.06594 0.205147,0.13188 0.117227,0.06594 0.241781,0.117227 0.124554,0.04396 0.219801,0.06594 -0.03663,0.681383 -0.131881,1.099004 -0.08792,0.410295 -0.293067,0.593462 -0.205148,0.183167 -0.593462,0.183167 -0.05861,0 -0.212474,0 -0.153861,0 -0.337028,0 -0.183167,0 -0.337028,0 -0.146534,0 -0.205147,0 -0.380988,0 -0.593462,-0.102573 -0.212474,-0.102574 -0.300394,-0.359008 -0.08792,-0.249108 -0.08792,-0.696036 z m -1.809692,-0.0073 H 49.963 v 6.608674 h -0.718016 z m 4.212847,1.113657 0.505541,0.615442 q -0.351681,0.263761 -0.769302,0.520195 -0.417621,0.256434 -0.857223,0.505541 -0.432275,0.249108 -0.849896,0.468909 -0.03663,-0.117227 -0.124554,-0.278415 -0.08059,-0.161187 -0.15386,-0.26376 0.402968,-0.219801 0.813263,-0.483562 0.410294,-0.271088 0.783955,-0.549502 0.373662,-0.285741 0.652076,-0.534848 z m -6.271647,3.934432 q 0.300394,-0.09525 0.688709,-0.234454 0.388314,-0.139207 0.820589,-0.300394 0.439602,-0.161187 0.879203,-0.329701 l 0.13188,0.630095 q -0.564155,0.249108 -1.15029,0.498215 -0.578808,0.241781 -1.055043,0.439602 z m 10.396573,-5.209276 h 0.739996 v 1.428704 h -0.739996 z m 0.0073,1.641178 H 58.3081 v 5.209277 H 57.590084 Z M 54.652081,44.3845 h 6.652635 v 0.674055 h -6.652635 z m 0.732669,1.575238 h 4.813636 v 0.674056 h -4.1176 v 2.681568 H 55.38475 Z m 4.549875,0 h 0.718016 V 48.5021 q 0,0.271087 -0.07327,0.432275 -0.06594,0.161187 -0.271088,0.249107 -0.212474,0.07327 -0.527522,0.09525 -0.315047,0.02198 -0.776629,0.02198 -0.01465,-0.161187 -0.08792,-0.351681 -0.07327,-0.190494 -0.146534,-0.337028 0.219801,0.0073 0.424948,0.01465 0.212474,0.0073 0.366335,0.0073 0.15386,-0.0073 0.212474,-0.0073 0.09525,0 0.124553,-0.02931 0.03663,-0.02931 0.03663,-0.102574 z m 2.051473,-2.073453 h 3.370277 v 0.666729 h -3.370277 z m 1.824346,2.139394 h 1.296824 v 0.652075 h -1.296824 z m -0.307721,-1.780386 h 0.674055 v 4.615815 h -0.674055 z m -1.252864,1.318804 h 0.630095 v 3.480178 h -0.630095 z m -0.410295,3.289684 q 0.432275,-0.07327 1.003756,-0.190494 0.578809,-0.117227 1.223558,-0.256434 0.644748,-0.139207 1.274844,-0.278414 l 0.06594,0.637422 q -0.608115,0.139207 -1.223557,0.285741 -0.615442,0.139207 -1.186924,0.271087 -0.571482,0.131881 -1.033063,0.234454 z m 4.02968,-4.088293 h 2.828102 v 0.637422 h -2.828102 z m 0.2198,-1.362765 0.688709,0.117228 q -0.13188,0.688708 -0.329701,1.348111 -0.197821,0.652075 -0.454255,1.208903 -0.256434,0.556829 -0.578808,0.97445 -0.05129,-0.06594 -0.153861,-0.15386 -0.09525,-0.08792 -0.205147,-0.175841 -0.102574,-0.08792 -0.183167,-0.139207 0.307721,-0.373661 0.534848,-0.871876 0.234454,-0.505542 0.402968,-1.091677 0.175841,-0.593462 0.278414,-1.216231 z m 1.458012,1.729099 0.696035,0.06594 q -0.17584,1.252864 -0.520195,2.21266 -0.337028,0.95247 -0.93049,1.648505 -0.586135,0.688709 -1.509298,1.172271 -0.02931,-0.08792 -0.102573,-0.205148 -0.06594,-0.1099 -0.146534,-0.227127 -0.08059,-0.1099 -0.146534,-0.183167 0.849896,-0.395641 1.384744,-1.011083 0.542176,-0.622769 0.84257,-1.479992 0.300394,-0.864549 0.432275,-1.99286 z m -1.362765,0.175841 q 0.175841,0.981776 0.490888,1.838999 0.322375,0.849896 0.835243,1.487318 0.512868,0.637422 1.252864,0.981777 -0.07327,0.06594 -0.168514,0.168514 -0.09525,0.1099 -0.17584,0.2198 -0.08059,0.109901 -0.131881,0.205148 Q 67.503095,49.791597 66.968247,49.095562 66.440725,48.3922 66.103698,47.46171 65.773997,46.53122 65.576176,45.410237 Z m 6.249667,0.718016 h 3.546118 v 0.637422 h -3.546118 z m 0.117227,1.296824 0.556829,-0.227128 q 0.161187,0.212474 0.322374,0.468909 0.161187,0.249107 0.285741,0.498214 0.124554,0.241781 0.197821,0.439602 l -0.586135,0.271087 q -0.06594,-0.205147 -0.190494,-0.454254 -0.124554,-0.249108 -0.278415,-0.512869 -0.15386,-0.263761 -0.307721,-0.483561 z m 1.941573,-2.300581 h 0.681383 v 4.403341 q 0,0.285741 -0.07327,0.439601 -0.07327,0.161187 -0.271088,0.241781 -0.190494,0.08059 -0.505542,0.102574 -0.307721,0.02198 -0.761975,0.02198 -0.01465,-0.139207 -0.08059,-0.337028 -0.06594,-0.190494 -0.139207,-0.329701 0.329701,0.0073 0.608115,0.01465 0.285741,0 0.380988,-0.0073 0.08792,0 0.124554,-0.03663 0.03663,-0.03663 0.03663,-0.117227 z m -2.666915,-0.08059 0.681382,0.190494 q -0.19782,0.468909 -0.476235,0.95247 -0.278414,0.476235 -0.622768,0.901183 -0.344355,0.424948 -0.739996,0.747322 -0.05129,-0.07327 -0.13188,-0.168513 -0.07327,-0.09525 -0.153861,-0.183168 -0.08059,-0.09525 -0.15386,-0.15386 0.359007,-0.285741 0.666728,-0.666729 0.307721,-0.388315 0.549502,-0.805936 0.241781,-0.417621 0.380988,-0.813263 z m 0.659402,-1.531278 h 0.718016 v 1.201577 h -0.718016 z m -2.359194,0.791283 h 5.824719 v 0.644748 h -5.824719 z m -0.359008,0 h 0.674056 v 2.022166 q 0,0.432275 -0.02931,0.95247 -0.02198,0.512868 -0.09525,1.06237 -0.07327,0.542175 -0.219801,1.055043 -0.139207,0.512869 -0.366334,0.945143 -0.06594,-0.06594 -0.175841,-0.139207 -0.102574,-0.07327 -0.219801,-0.146533 -0.1099,-0.06594 -0.190493,-0.102574 0.212474,-0.395641 0.337027,-0.857223 0.124554,-0.468908 0.183168,-0.95247 0.06594,-0.490888 0.08059,-0.952469 0.02198,-0.468909 0.02198,-0.871876 z m 1.523952,2.25662 0.608115,-0.608115 0.04396,0.02198 v 4.330074 h -0.652075 z"
         id="text5-9"
         style="font-weight:500;font-size:7.32669px;line-height:1.25;font-family:'Noto Sans JP';-inkscape-font-specification:'Noto Sans JP Medium';fill:#f9f9f9;stroke-width:0.261667"
         aria-label="台北市政府" />
      <path
         style="font-weight:500;font-size:7.32669px;line-height:1.25;font-family:'Noto Sans KR';-inkscape-font-specification:'Noto Sans KR Medium';fill:#f9f9f9;stroke-width:0.261667"
         d="m 83.100343,48.090761 h 0.534849 q 0.593462,0 1.099003,-0.01465 0.505542,-0.01465 0.97445,-0.05129 0.476235,-0.04396 0.97445,-0.124554 l 0.07327,0.615442 q -0.505542,0.08059 -0.99643,0.13188 -0.483562,0.04396 -1.003757,0.05861 -0.512868,0.0073 -1.120983,0.0073 h -0.534849 z m 0,-3.919779 h 3.128497 v 0.630095 h -2.366521 v 3.502158 h -0.761976 z m 0.578809,1.875632 h 2.425134 v 0.608116 h -2.425134 z m 3.560771,-2.454441 h 0.769303 v 6.696595 h -0.769303 z m 0.600789,2.622955 h 1.208904 v 0.637422 h -1.208904 z m 6.462141,-2.630282 h 0.769303 v 6.711249 h -0.769303 z m -2.791468,0.490889 q 0.498214,0 0.886529,0.293067 0.395641,0.293068 0.615442,0.82059 0.219801,0.527521 0.219801,1.245537 0,0.725342 -0.219801,1.260191 -0.219801,0.527521 -0.615442,0.820589 -0.388315,0.285741 -0.886529,0.285741 -0.498215,0 -0.893857,-0.285741 -0.388314,-0.293068 -0.615442,-0.820589 -0.2198,-0.534849 -0.2198,-1.260191 0,-0.718016 0.2198,-1.245537 0.227128,-0.527522 0.615442,-0.82059 0.395642,-0.293067 0.893857,-0.293067 z m 0,0.696035 q -0.293068,0 -0.520195,0.197821 -0.219801,0.19782 -0.344355,0.571482 -0.124554,0.373661 -0.124554,0.893856 0,0.527522 0.124554,0.901183 0.124554,0.373661 0.344355,0.578808 0.227127,0.197821 0.520195,0.197821 0.293067,0 0.512868,-0.197821 0.219801,-0.205147 0.344354,-0.578808 0.124554,-0.373661 0.124554,-0.901183 0,-0.520195 -0.124554,-0.893856 -0.124553,-0.373662 -0.344354,-0.571482 -0.219801,-0.197821 -0.512868,-0.197821 z m 5.011456,-0.542175 h 0.725343 v 1.582565 h 1.164943 v -1.582565 h 0.710689 v 4.417994 h -2.600975 z m 0.725343,2.198007 v 1.597219 h 1.164943 v -1.597219 z m 4.037006,-2.842756 h 0.73267 v 6.696595 h -0.73267 z m -2.285927,2.505728 h 1.208907 v 0.622769 h -1.208907 z m 0.945143,-2.373847 h 0.718014 v 6.249667 h -0.718014 z m 7.839564,-0.131881 h 0.7693 v 6.711249 h -0.7693 z m -2.79147,0.490889 q 0.49821,0 0.88653,0.293067 0.39564,0.293068 0.61544,0.82059 0.2198,0.527521 0.2198,1.245537 0,0.725342 -0.2198,1.260191 -0.2198,0.527521 -0.61544,0.820589 -0.38832,0.285741 -0.88653,0.285741 -0.49822,0 -0.89386,-0.285741 -0.38831,-0.293068 -0.61544,-0.820589 -0.2198,-0.534849 -0.2198,-1.260191 0,-0.718016 0.2198,-1.245537 0.22713,-0.527522 0.61544,-0.82059 0.39564,-0.293067 0.89386,-0.293067 z m 0,0.696035 q -0.29307,0 -0.5202,0.197821 -0.2198,0.19782 -0.34435,0.571482 -0.12456,0.373661 -0.12456,0.893856 0,0.527522 0.12456,0.901183 0.12455,0.373661 0.34435,0.578808 0.22713,0.197821 0.5202,0.197821 0.29306,0 0.51287,-0.197821 0.2198,-0.205147 0.34435,-0.578808 0.12455,-0.373661 0.12455,-0.901183 0,-0.520195 -0.12455,-0.893856 -0.12455,-0.373662 -0.34435,-0.571482 -0.21981,-0.197821 -0.51287,-0.197821 z m 8.55025,-0.630095 h 0.6301 v 1.099003 q 0,0.608116 -0.13188,1.172271 -0.13189,0.564155 -0.38832,1.055043 -0.24911,0.490888 -0.60811,0.86455 -0.35169,0.373661 -0.80594,0.593462 l -0.46158,-0.630096 q 0.40297,-0.183167 0.72534,-0.498215 0.3297,-0.322374 0.55683,-0.732669 0.23445,-0.410294 0.35901,-0.879203 0.12455,-0.468908 0.12455,-0.945143 z m 0.13921,0 h 0.63009 v 1.099003 q 0,0.461582 0.11723,0.90851 0.12455,0.446928 0.35168,0.842569 0.22713,0.395642 0.5495,0.696036 0.32238,0.300394 0.71069,0.483561 l -0.44693,0.615442 q -0.44692,-0.212474 -0.79861,-0.571481 -0.35168,-0.359008 -0.60078,-0.827916 -0.24911,-0.468909 -0.38099,-1.01841 -0.13188,-0.549502 -0.13188,-1.128311 z m 2.89404,-0.556829 h 0.7693 v 6.711249 h -0.7693 z m 3.5974,1.164944 h 0.62277 v 0.263761 q 0,0.578808 -0.2198,1.091677 -0.2198,0.505541 -0.63742,0.886529 -0.41029,0.373662 -1.01108,0.564155 l -0.36634,-0.593461 q 0.5202,-0.161188 0.87921,-0.454255 0.359,-0.300395 0.54217,-0.688709 0.19049,-0.395641 0.19049,-0.805936 z m 0.13921,0 h 0.62277 v 0.263761 q 0,0.285741 0.1099,0.564155 0.1099,0.271088 0.31505,0.505542 0.21247,0.234454 0.51287,0.417621 0.30039,0.183167 0.68871,0.293068 l -0.35169,0.593462 q -0.59346,-0.168514 -1.02573,-0.520195 -0.42495,-0.351682 -0.65208,-0.827916 -0.2198,-0.476235 -0.2198,-1.025737 z m -1.55326,-0.402968 h 3.58276 v 0.608115 h -3.58276 z m 1.41405,-0.783956 h 0.76198 v 1.011084 h -0.76198 z m 1.97821,1.875633 h 1.3994 v 0.630095 h -1.3994 z m 1.20158,-1.846326 h 0.7693 v 4.044333 h -0.7693 z m -1.45801,4.190867 q 1.04771,0 1.6485,0.329701 0.60812,0.329701 0.60812,0.915836 0,0.593462 -0.60812,0.915836 -0.60079,0.329702 -1.6485,0.329702 -1.05505,0 -1.66316,-0.329702 -0.60079,-0.322374 -0.60079,-0.915836 0,-0.586135 0.60079,-0.915836 0.60811,-0.329701 1.66316,-0.329701 z m 0,0.593462 q -0.47624,0 -0.81327,0.08059 -0.33702,0.07327 -0.51286,0.219801 -0.16852,0.139207 -0.16852,0.351681 0,0.212474 0.16852,0.359008 0.17584,0.146534 0.51286,0.219801 0.33703,0.07327 0.81327,0.07327 0.47623,0 0.80593,-0.07327 0.33703,-0.07327 0.51287,-0.219801 0.17584,-0.146534 0.17584,-0.359008 0,-0.212474 -0.17584,-0.351681 -0.17584,-0.146534 -0.51287,-0.219801 -0.3297,-0.08059 -0.80593,-0.08059 z"
         id="text5-9-8"
         aria-label="타이베이 시청" />
    </g>
    <text
       xml:space="preserve"
       transform="matrix(0.31615295,0,0,0.31615295,-10.474341,-6.4462013)"
       id="text6"
       style="font-size:55px;line-height:1.25;font-family:'Microsoft JhengHei';-inkscape-font-specification:'Microsoft JhengHei';white-space:pre;shape-inside:url(#rect6);display:inline" />
  </g>
</svg>
