<?xml version="1.0" encoding="UTF-8" standalone="no"?>
<!-- Created with Inkscape (http://www.inkscape.org/) -->

<svg
   width="500"
   height="250"
   viewBox="0 0 132.29166 66.145833"
   version="1.1"
   id="svg1"
   inkscape:version="1.3.2 (091e20e, 2023-11-25, custom)"
   sodipodi:docname="bl18.svg"
   xmlns:inkscape="http://www.inkscape.org/namespaces/inkscape"
   xmlns:sodipodi="http://sodipodi.sourceforge.net/DTD/sodipodi-0.dtd"
   xmlns="http://www.w3.org/2000/svg"
   xmlns:svg="http://www.w3.org/2000/svg">
  <sodipodi:namedview
     id="namedview1"
     pagecolor="#9e652e"
     bordercolor="#ffffff"
     borderopacity="1"
     inkscape:showpageshadow="0"
     inkscape:pageopacity="0"
     inkscape:pagecheckerboard="false"
     inkscape:deskcolor="#d1d1d1"
     inkscape:document-units="mm"
     inkscape:zoom="2.0208096"
     inkscape:cx="293.44675"
     inkscape:cy="177.65157"
     inkscape:window-width="1920"
     inkscape:window-height="1009"
     inkscape:window-x="1912"
     inkscape:window-y="-8"
     inkscape:window-maximized="1"
     inkscape:current-layer="layer1" />
  <defs
     id="defs1">
    <rect
       x="157.85752"
       y="62.351248"
       width="329.07603"
       height="135.09437"
       id="rect4" />
  </defs>
  <g
     inkscape:label="Layer 1"
     inkscape:groupmode="layer"
     id="layer1">
    <path
       id="rect5"
       style="fill:#005fb9;stroke-width:0.953294"
       d="M -2.5431316e-6,-1.2715658e-6 H 132.29167 V 66.145835 H -2.5431316e-6 Z" />
    <g
       id="g12"
       transform="matrix(1.1897988,0,0,1.1897988,-12.120449,-6.6847336)">
      <g
         id="g9"
         transform="matrix(0.78414328,0,0,0.78414328,24.862268,6.7401171)">
        <path
           id="rect6"
           style="fill:none;stroke:#ffffff;stroke-width:0.575409"
           d="m 9.3009131,19.849001 h 5.7010479 c 1.810115,0 3.267355,1.45724 3.267355,3.267355 v 9.524719 c 0,1.810115 -1.45724,3.267355 -3.267355,3.267355 H 9.3009131 c -1.8101145,0 -3.2673547,-1.45724 -3.2673547,-3.267355 v -9.524719 c 0,-1.810115 1.4572402,-3.267355 3.2673547,-3.267355 z" />
        <path
           style="font-weight:bold;font-size:5.82083px;line-height:1.25;font-family:'Optima Bold';-inkscape-font-specification:'Optima Bold,  Bold';fill:#f9f9f9;stroke-width:0.264583"
           d="m 8.6851327,26.948961 v -3.987268 h 0.2328332 1.3795371 q 0.01164,0.01164 0.02328,0.01164 0.01746,0 0.0291,0 0.01164,0 0.02328,0 0.01746,0 0.02911,0 0.186266,0.0058 0.35507,0.05239 0.168804,0.04075 0.325967,0.122237 0.157162,0.07567 0.232833,0.232834 0.08149,0.151341 0.08149,0.384174 v 0.01746 0.01746 0.02328 0.01746 q 0,0.174625 -0.06403,0.331787 -0.06403,0.151342 -0.186266,0.291042 -0.122238,0.1397 -0.2794,0.227012 -0.157162,0.08149 -0.343429,0.116417 0.203729,0.03493 0.384175,0.09895 0.180445,0.06403 0.325966,0.157162 0.151342,0.09313 0.221192,0.273579 0.07567,0.174625 0.07567,0.430742 0,0.308504 -0.104775,0.535516 -0.09895,0.221192 -0.302684,0.355071 -0.197908,0.1397 -0.42492,0.21537 -0.221192,0.06985 -0.465667,0.07567 H 10.00064 q -0.00582,0 -0.017462,0 -0.00582,0 -0.011642,0 -0.011642,0 -0.017462,0 -0.00582,0 -0.017463,0 -0.017463,0 -0.034925,0 -0.011642,0 -0.023283,0 H 8.6851327 v 0 z m 0.7392454,-0.227012 h 0.3201457 q 0.203729,0.01164 0.3608912,-0.03492 0.162983,-0.05239 0.291042,-0.151342 0.122237,-0.09895 0.203729,-0.203729 0.08149,-0.110595 0.122237,-0.232833 0,-0.01164 0,-0.02328 0.0058,-0.01164 0.01164,-0.0291 0,-0.01164 0,-0.02328 0.0058,-0.01164 0.0058,-0.02328 0.0058,-0.02328 0.0058,-0.04657 0.0058,-0.02328 0.0058,-0.04657 0,-0.291042 -0.09313,-0.483129 -0.08731,-0.197908 -0.273579,-0.291042 -0.157162,-0.08149 -0.3958164,-0.128058 -0.238654,-0.04657 -0.5646205,-0.05239 v 1.769532 z m 0,-2.019828 h 0.1338791 q 0.2561165,0.01164 0.4540248,-0.03493 0.197908,-0.05239 0.337608,-0.151342 0.133879,-0.09895 0.20955,-0.244474 0.08149,-0.145521 0.09895,-0.337609 v -0.02328 l 0.0058,-0.01746 v -0.01164 -0.01746 q 0,-0.162983 -0.06985,-0.291041 -0.06985,-0.128058 -0.20955,-0.20955 -0.1397,-0.08149 -0.302683,-0.122237 -0.1571625,-0.04075 -0.3376082,-0.04075 l -0.3201457,-0.01164 v 1.513416 z m 3.0268279,2.24684 v -4.033835 h 0.232833 q 0.02328,0.01746 0.05239,0.0291 0.0291,0.0058 0.06403,0.01164 0,0 0,0 0.0058,0 0.01164,0 0.0058,0 0.0058,0 0.0058,0 0.0058,0 0.0058,0 0.0058,0 0.0058,0 0.01164,0 0,0 0,0 0.0058,0 0.01164,0 0.0291,-0.0058 0.05239,-0.01164 0.02911,-0.01164 0.04657,-0.01746 l 0.232833,-0.0058 v 3.707869 q 0.04075,0.01164 0.08731,0.01746 0.04657,0.0058 0.09895,0.0058 0.04657,0.0058 0.09313,0.0058 0.04657,0 0.09895,0 0.0291,0 0.05239,0 0.02328,0 0.04657,-0.0058 0.02328,0 0.04657,0 0.0291,0 0.05239,0 0.116417,-0.0058 0.227013,-0.01164 0.110596,-0.0058 0.221191,-0.01164 0.104775,-0.01164 0.192088,-0.01746 0.08731,-0.01164 0.157162,-0.01746 l 0.232833,-0.0058 q -0.0058,0.02328 -0.01164,0.04075 -0.0058,0.01746 -0.0058,0.03493 -0.0058,0.01746 -0.0058,0.03492 0,0.01746 0,0.0291 0,0.01746 0,0.03493 0,0.01746 0,0.0291 0,0.01746 0,0.03492 0.0058,0.01164 0.01164,0.02328 0,0.0058 0,0.01746 0,0.0058 0.0058,0.01746 0,0.0058 0,0.01746 0,0.0058 0,0.01164 l 0.0058,0.03493 h -0.232833 -2.10714 v 0 z"
           id="text6"
           aria-label="BL" />
        <path
           style="font-weight:bold;font-size:5.82083px;line-height:1.25;font-family:'Optima Bold';-inkscape-font-specification:'Optima Bold,  Bold';fill:#f9f9f9;stroke-width:0.264583"
           d="m 9.3516163,29.278575 q 0.1688041,-0.07567 0.3317873,-0.151341 0.1688041,-0.07567 0.3317874,-0.151342 0.162983,-0.06985 0.291041,-0.1397 0.133879,-0.06985 0.238654,-0.1397 l 0.232834,-0.0058 0.1397,0.04075 v 3.987269 h -0.232834 q -0.03492,-0.0058 -0.06403,-0.01746 -0.0291,-0.0058 -0.05821,-0.01164 -0.03492,0.0058 -0.06985,0.01164 -0.03493,0.01164 -0.08149,0.01746 H 10.178174 V 29.278575 L 9.7707161,29.511409 H 9.5378829 q -0.00582,0 -0.017462,-0.0058 -0.00582,-0.01164 -0.017463,-0.0291 -0.00582,-0.01164 -0.011642,-0.01746 -0.00582,-0.01164 -0.00582,-0.01746 -0.00582,-0.01164 -0.011642,-0.01746 -0.00582,-0.01164 -0.011642,-0.01746 -0.00582,-0.01164 -0.011642,-0.01746 -0.00582,-0.0058 -0.011642,-0.01746 -0.011642,-0.0058 -0.017462,-0.01164 -0.00582,-0.01164 -0.011642,-0.01746 -0.011642,-0.01746 -0.029104,-0.0291 -0.011642,-0.01746 -0.029104,-0.02328 v -0.01164 z m 4.0396617,1.19327 q -0.157163,-0.02328 -0.2794,-0.09313 -0.116417,-0.07567 -0.203729,-0.192087 -0.08731,-0.116417 -0.128059,-0.244475 -0.04074,-0.133879 -0.04074,-0.273579 v -0.0291 -0.02328 q 0.01164,-0.162983 0.08149,-0.308504 0.06985,-0.151341 0.20955,-0.291041 0.1397,-0.133879 0.355071,-0.203729 0.21537,-0.06985 0.506412,-0.06985 l 0.232833,-0.0058 q 0.2794,0.0058 0.483129,0.07567 0.20955,0.06985 0.34925,0.20955 0.133879,0.1397 0.203729,0.291041 0.06985,0.145521 0.07567,0.314325 v 0.0058 0.0058 q 0,0.145521 -0.04657,0.273579 -0.04657,0.128058 -0.133879,0.250295 -0.08731,0.122238 -0.221192,0.20373 -0.128058,0.07567 -0.296862,0.116416 0.227012,0.02328 0.395816,0.110596 0.174625,0.08149 0.285221,0.232833 0.110596,0.145521 0.162983,0.314325 0.05821,0.162983 0.06403,0.343429 0,0.01746 0,0.03492 0,0.01164 0,0.02328 0,0.0058 0,0.01164 0,0.0058 0,0.01164 -0.0058,0.01164 -0.0058,0.01746 0,0.0058 0,0.01164 -0.01746,0.21537 -0.110596,0.407458 -0.08731,0.192087 -0.256117,0.366712 -0.162983,0.174625 -0.395816,0.261937 -0.232833,0.08149 -0.535516,0.08731 h -0.232834 -0.03492 -0.02328 q -0.355071,-0.0058 -0.611187,-0.09313 -0.250296,-0.08731 -0.407458,-0.256117 -0.157163,-0.168804 -0.238654,-0.355071 -0.07567,-0.186266 -0.07567,-0.389995 v -0.01746 -0.01164 q 0,-0.180446 0.05821,-0.355071 0.06403,-0.180446 0.180446,-0.343429 0.116417,-0.168804 0.273579,-0.267758 0.162983,-0.104775 0.360892,-0.145521 v -0.01164 z m -0.08731,1.100137 q 0.01746,0.232833 0.06985,0.407458 0.05821,0.168804 0.151342,0.285221 0.08149,0.09895 0.197908,0.157162 0.116416,0.05821 0.273579,0.07567 0.128058,-0.01164 0.221191,-0.06403 0.09896,-0.05821 0.168804,-0.151341 0.08149,-0.110596 0.13388,-0.232834 0.05821,-0.122237 0.08149,-0.250295 0,-0.01746 0,-0.03493 0.0058,-0.01746 0.01164,-0.03493 0,-0.01164 0,-0.0291 0.0058,-0.01746 0.0058,-0.03492 0,-0.01746 0,-0.02911 0,-0.01746 0.0058,-0.03493 0,-0.01164 0,-0.0291 0,-0.01746 0,-0.03492 0,-0.01164 0,-0.02328 0,-0.01164 0,-0.02328 -0.0058,-0.01164 -0.0058,-0.02328 0,-0.01164 0,-0.02328 0,-0.01164 0,-0.02328 0,-0.01164 0,-0.02328 -0.0058,-0.01164 -0.0058,-0.02328 0,-0.01164 0,-0.02328 -0.01746,-0.133879 -0.06403,-0.261938 -0.04657,-0.128058 -0.128059,-0.238654 -0.06985,-0.09895 -0.186266,-0.151341 -0.110596,-0.05239 -0.261937,-0.06985 -0.122238,0.01164 -0.221192,0.06403 -0.09313,0.04657 -0.168804,0.128058 -0.08731,0.09313 -0.145521,0.203729 -0.05821,0.104775 -0.08731,0.221192 -0.01164,0.04075 -0.02328,0.08731 -0.0058,0.04075 -0.01164,0.08731 -0.0058,0.04075 -0.01164,0.08149 0,0.04075 0,0.07567 z m 0.180446,-1.880128 q 0,0.162983 0.04075,0.291042 0.04074,0.122237 0.122237,0.221191 0.06985,0.08149 0.162983,0.128059 0.09313,0.04657 0.20955,0.05821 0.09895,-0.01746 0.180446,-0.06985 0.08149,-0.05239 0.1397,-0.1397 0.06985,-0.104775 0.104775,-0.227012 0.04075,-0.122238 0.04075,-0.250296 0,-0.133879 -0.04075,-0.261937 -0.03493,-0.128059 -0.116417,-0.238654 -0.06403,-0.09313 -0.157162,-0.145521 -0.08731,-0.05821 -0.203729,-0.07567 -0.110596,0.01746 -0.197909,0.07567 -0.08149,0.05239 -0.139699,0.145521 -0.07567,0.110595 -0.110596,0.238654 -0.03492,0.122237 -0.03492,0.256116 z"
           id="text6-8"
           aria-label="18" />
      </g>
      <path
         style="font-weight:600;font-size:14.0515px;line-height:1.25;font-family:'Noto Serif TC';-inkscape-font-specification:'Noto Serif TC Semi-Bold';letter-spacing:1.50552px;fill:#ffffff;stroke-width:0.25092"
         d="m 48.215128,22.215666 c 0.519905,0.477751 1.12412,1.292738 1.306789,2.023416 1.391099,0.857142 2.444961,-1.826695 -1.194377,-2.121776 z m 5.676806,2.262292 H 43.283051 l 0.126463,0.407493 h 5.676807 v 1.896953 H 46.514896 L 45.081643,26.17819 v 7.081956 h 0.210773 c 0.548008,0 1.12412,-0.295082 1.12412,-0.435597 v -5.634651 h 2.669785 v 8.009355 h 0.252927 c 0.702575,0 1.138171,-0.28103 1.138171,-0.393442 v -7.615913 h 2.669785 v 4.398119 c 0,0.18267 -0.07026,0.266979 -0.309133,0.266979 -0.323184,0 -1.573768,-0.08431 -1.573768,-0.08431 v 0.210772 c 0.632318,0.08431 0.941451,0.252927 1.138172,0.449648 0.168618,0.196721 0.238875,0.505854 0.28103,0.913348 1.601871,-0.140515 1.812643,-0.688524 1.812643,-1.615923 v -4.299759 c 0.28103,-0.05621 0.491803,-0.182669 0.590163,-0.28103 l -1.447304,-1.096017 -0.632318,0.730678 h -2.52927 v -1.896953 h 5.480085 c 0.210773,0 0.351288,-0.07026 0.393442,-0.224824 -0.604214,-0.533957 -1.573768,-1.278686 -1.573768,-1.278686 z m 15.261938,1.292738 c -0.168618,1.714283 -0.548008,3.259948 -1.236532,4.636995 -0.674472,-1.081965 -1.152223,-2.332549 -1.475407,-3.709596 0.168618,-0.295081 0.337236,-0.604214 0.491802,-0.927399 z m 2.473064,0 c 0.196721,0 0.337236,-0.07026 0.379391,-0.224824 -0.533957,-0.505854 -1.419202,-1.194378 -1.419202,-1.194378 l -0.772832,1.011708 h -2.697888 c 0.323184,-0.744729 0.604214,-1.545665 0.829038,-2.402806 0.323185,-0.01405 0.477751,-0.154567 0.533957,-0.323185 l -1.981261,-0.463699 c -0.224824,1.826695 -0.702575,3.639338 -1.292738,5.142849 -0.449648,-0.435596 -0.969554,-0.885244 -0.969554,-0.885244 l -0.716626,0.997656 h -0.449648 v -3.456669 h 2.332549 c 0.196721,0 0.337236,-0.07026 0.37939,-0.224824 -0.519905,-0.491803 -1.391098,-1.152223 -1.391098,-1.152223 L 63.60353,23.56461 h -4.67915 l 0.112412,0.407494 h 2.754094 v 8.220128 l -1.12412,0.266978 v -5.99999 c 0.28103,-0.04215 0.379391,-0.154567 0.407494,-0.309133 L 59.514543,25.99552 v 6.730669 c -0.351287,0.07026 -0.646369,0.126463 -0.871193,0.168618 l 0.758781,1.559716 c 0.140515,-0.04215 0.266979,-0.182669 0.323185,-0.365339 2.8103,-1.110068 4.763458,-2.023416 6.126454,-2.697888 l -0.05621,-0.196721 c -0.927399,0.238876 -1.854798,0.477751 -2.725991,0.688524 v -4.046832 h 1.911004 c -0.154567,0.337236 -0.309133,0.646369 -0.4637,0.94145 l 0.196721,0.112412 c 0.548009,-0.505854 1.039811,-1.110068 1.489459,-1.798592 0.252927,1.545665 0.632318,2.950815 1.208429,4.201399 -0.983605,1.489459 -2.402806,2.754094 -4.468377,3.737699 l 0.112412,0.182669 c 2.163931,-0.702575 3.737699,-1.68618 4.875871,-2.90866 0.702575,1.152223 1.629974,2.135828 2.880557,2.894609 0.168618,-0.604215 0.56206,-0.955502 1.208429,-1.067914 l 0.04216,-0.140515 c -1.433253,-0.618266 -2.543322,-1.489459 -3.428566,-2.543322 1.138171,-1.573768 1.714283,-3.484772 2.009364,-5.676806 z m 5.369683,-1.067914 h 10.103029 c 0.196721,0 0.337236,-0.07026 0.37939,-0.224824 -0.548008,-0.505854 -1.433253,-1.208429 -1.433253,-1.208429 L 85.24485,24.30934 h -3.288051 c 0.800935,-0.252927 0.871193,-1.911004 -1.911005,-2.220137 l -0.112412,0.09836 c 0.491803,0.491803 1.067914,1.292738 1.264635,1.981262 0.09836,0.07026 0.210773,0.112412 0.309133,0.140515 h -4.299759 l -1.545665,-0.604215 v 4.131142 c 0,2.459012 -0.09836,5.1569 -1.348944,7.278677 l 0.168618,0.140515 c 2.360652,-2.065571 2.515219,-5.100695 2.515219,-7.433244 z m 2.177982,0.126463 c -0.337236,1.517563 -1.166274,3.793906 -2.206085,5.297416 l 0.154566,0.154567 c 0.407494,-0.351288 0.800936,-0.758781 1.152223,-1.180326 v 6.084299 h 0.238876 c 0.463699,0 0.997656,-0.252927 1.025759,-0.351287 v -6.604205 c 0.252927,-0.0281 0.379391,-0.126464 0.435597,-0.252927 l -0.702575,-0.266979 c 0.463699,-0.702575 0.829038,-1.391098 1.110068,-1.995313 0.337236,0.01405 0.4637,-0.07026 0.519906,-0.224824 z m 1.615923,3.962524 c 0.463699,0.730678 0.983605,1.826695 1.039811,2.740042 1.138172,1.067914 2.444961,-1.362995 -0.885245,-2.824351 z m 4.763459,-1.166275 h -0.196721 v -2.107725 c 0.337236,-0.05621 0.477751,-0.18267 0.505854,-0.379391 l -1.798592,-0.182669 v 2.669785 h -3.723648 l 0.112412,0.407494 h 3.611236 v 5.395776 c 0,0.196721 -0.07026,0.28103 -0.323185,0.28103 -0.309133,0 -1.854798,-0.112412 -1.854798,-0.112412 v 0.196721 c 0.688524,0.09836 1.039811,0.252927 1.278687,0.463699 0.210772,0.224824 0.295081,0.533957 0.337236,0.955502 1.658077,-0.154566 1.854798,-0.730678 1.854798,-1.68618 v -5.494136 h 1.700231 c 0.196721,0 0.337236,-0.07026 0.379391,-0.224824 -0.435597,-0.491803 -1.208429,-1.208429 -1.208429,-1.208429 z"
         id="text7"
         aria-label="市政府" />
      <path
         style="font-weight:bold;font-size:5.52023px;line-height:1.25;font-family:'Optima Bold';-inkscape-font-specification:'Optima Bold,  Bold';fill:#f9f9f9;stroke-width:0.25092"
         d="m 43.791658,41.107563 v -3.549508 q -0.0055,0.0055 -0.01104,0.0055 -0.0055,0 -0.01104,0 -0.0055,0.0055 -0.01104,0.0055 -0.0055,0 -0.01104,0 -0.0828,0.0055 -0.171127,0.01656 -0.0828,0.0055 -0.171127,0.01656 -0.03312,0.0055 -0.06624,0.01104 -0.0276,0 -0.0552,0.0055 -0.0276,0.0055 -0.06072,0.01104 -0.0276,0 -0.0552,0 -0.0552,0.0055 -0.110404,0.01656 -0.04968,0.0055 -0.09936,0.01656 -0.04968,0.0055 -0.08832,0.01104 -0.03864,0.0055 -0.07176,0.01104 l -0.220809,-0.0055 q 0.0055,-0.0055 0.0055,-0.01656 0.0055,-0.01656 0.01104,-0.0276 0,-0.01104 0,-0.02208 0.0055,-0.01104 0.01104,-0.0276 0,-0.01104 0,-0.02208 0,-0.01104 0,-0.02208 0,-0.0055 0,-0.01104 0,-0.0055 0.0055,-0.01656 0,-0.0055 0,-0.01104 0,-0.0055 0,-0.01104 0,-0.0276 -0.0055,-0.04968 0,-0.0276 -0.0055,-0.04968 -0.0055,-0.0276 -0.01104,-0.04968 0,-0.0276 -0.01104,-0.04968 l 2.909161,-0.01104 h 0.220809 q -0.0055,0.02208 -0.01104,0.03864 0,0.01104 -0.0055,0.02208 -0.0055,0.01104 -0.0055,0.02208 0,0.01104 0,0.02208 -0.0055,0.01656 -0.01104,0.0276 0,0.01104 0,0.02208 0,0.01104 0,0.0276 0,0.01104 0,0.02208 0,0.02208 0,0.04968 0,0.02208 0.0055,0.04968 0.0055,0.02208 0.01104,0.04968 0.01104,0.02208 0.01656,0.04968 l -0.220809,-0.0055 q -0.193208,-0.0276 -0.375376,-0.04968 -0.182167,-0.0276 -0.347774,-0.04416 -0.07728,-0.01104 -0.143526,-0.01104 -0.06624,-0.0055 -0.126966,-0.01104 v 3.543988 h -0.220809 q -0.01104,0 -0.0276,0 -0.01104,0 -0.02208,-0.0055 -0.01656,0 -0.03312,0 -0.01104,-0.0055 -0.02208,-0.0055 0,0 -0.0055,0 0,0 0,0 0,0 -0.0055,0 0,0 0,0 0,0 -0.0055,0 0,0 -0.0055,0 -0.03312,0.0055 -0.06624,0.01104 -0.03312,0 -0.06624,0 h -0.220809 v 0 z m 2.048011,0 1.738872,-3.869681 h 0.220809 0.126965 l 1.700231,3.869681 h -0.220809 q -0.01656,0 -0.03864,0 -0.01656,0 -0.03864,0 -0.02208,0 -0.04416,0 -0.01656,0 -0.04416,0 -0.01104,0 -0.0276,0 -0.01104,0 -0.02208,-0.0055 -0.01104,0 -0.0276,0 -0.01104,0 -0.02208,0 -0.01104,0.0055 -0.0276,0.0055 -0.01104,0 -0.02208,0 -0.01104,0 -0.02208,0 -0.01104,0 -0.01656,0 -0.01104,0 -0.02208,0 -0.0055,0 -0.01656,0 H 48.792992 L 48.185766,39.58398 h -1.126127 l -0.563063,1.523583 h -0.220809 q -0.01104,0 -0.0276,0 -0.01104,0 -0.02208,0 l -0.0276,-0.0055 q -0.0055,0.0055 -0.01656,0.0055 -0.01104,0 -0.01656,0 -0.01104,0 -0.02208,0 -0.0055,0 -0.01656,0 h -0.22081 q -0.01656,0 -0.03312,0 -0.01656,0 -0.03312,0 v 0 z m 1.352456,-1.783034 h 0.905318 l -0.452659,-1.081965 -0.452659,1.081965 z m 3.256934,-2.042485 q 0.0276,0.01656 0.04968,0.0276 0.0276,0.0055 0.06072,0.01104 0.0055,0 0.0055,0 0.0055,0 0.01104,0 0.0055,0 0.0055,0 0.0055,0 0.01104,0 0.03312,-0.0055 0.06072,-0.01104 0.03312,-0.01104 0.0552,-0.01656 l 0.22081,-0.0055 v 3.819999 h -0.22081 q -0.02208,0 -0.0552,0 -0.0276,-0.0055 -0.0552,-0.01104 -0.0055,0 -0.01104,0 0,0 -0.0055,0 -0.0055,0 -0.01104,0 -0.0055,0 -0.01104,0 -0.03312,0.0055 -0.06072,0.01104 -0.02208,0 -0.04968,0 h -0.22081 v -3.825519 h 0.22081 v 0 z m 1.617427,0 h 1.391098 q 0.276011,0.01104 0.48026,0.07176 0.209768,0.0552 0.342254,0.165607 0.132485,0.110404 0.198728,0.276011 0.06624,0.160087 0.06624,0.369856 v 0.01656 l 0.0055,0.02208 v 0.02208 0.02208 q 0,0.253931 -0.0828,0.436098 -0.0828,0.182168 -0.242891,0.309133 -0.160086,0.121445 -0.336734,0.204249 -0.176647,0.0828 -0.369855,0.126965 -0.07176,0.01656 -0.143526,0.0276 -0.06624,0.0055 -0.132485,0.01656 -0.06624,0.0055 -0.132486,0.01104 -0.06072,0 -0.121445,0 l -0.220809,-0.0055 q -0.04968,0.0055 -0.09384,0.0055 -0.04416,0 -0.08832,-0.0055 v 1.733352 h -0.220809 q -0.03312,0 -0.06624,0 -0.0276,-0.0055 -0.0552,-0.01104 0,0 -0.0055,0 0,0 0,0 0,0 -0.0055,0 0,0 0,0 -0.0055,0 -0.01104,0 0,0 -0.0055,0 -0.03312,0.0055 -0.07176,0.01104 -0.03312,0 -0.07728,0 h -0.22081 v -3.825519 h 0.22081 v 0 z m 0.518901,1.827196 H 52.889 q 0.198728,0.01104 0.353295,-0.04968 0.154566,-0.06624 0.264971,-0.187688 0.110404,-0.126965 0.171127,-0.264971 0.06624,-0.138006 0.0828,-0.292572 0,-0.0055 0,-0.01104 0,-0.0055 0.0055,-0.01104 0,-0.0055 0,-0.01104 0,-0.0055 0,-0.01104 0,-0.01104 0,-0.02208 0,-0.01104 0,-0.02208 0,-0.143526 -0.04416,-0.264971 -0.04416,-0.126965 -0.132486,-0.23737 -0.08832,-0.110404 -0.220809,-0.165607 -0.132486,-0.0552 -0.309133,-0.0552 l 0.220809,-0.0055 h -0.02208 -0.01656 l -0.02208,0.0055 h -0.22081 -0.02208 l -0.391937,-0.0055 v 1.611907 z m 2.655236,1.998323 v -3.781357 h 0.220809 1.998323 q -0.0055,0.0276 -0.01104,0.04968 -0.0055,0.01656 -0.01104,0.03312 0,0.0055 -0.0055,0.01656 0,0.0055 0,0.01104 -0.0055,0.01104 -0.0055,0.01656 0,0.0055 0,0.01656 v 0.01104 0.02208 q 0,0.0276 0,0.04968 0,0.01656 0.0055,0.03864 0,0.01104 0,0.02208 0.0055,0.01104 0.01104,0.02208 0.0055,0.01656 0.0055,0.0276 0.0055,0.01104 0.01104,0.02208 l -0.220809,-0.0055 q -0.0828,-0.01104 -0.165607,-0.02208 -0.0828,-0.01104 -0.176647,-0.01656 -0.08832,-0.0055 -0.182168,-0.0055 -0.08832,-0.0055 -0.182168,-0.0055 0,0 0,0 0,0 0,0 -0.0055,0 -0.0055,0 0,0 0,0 -0.02208,0.0055 -0.04416,0.0055 -0.01656,0 -0.03864,0 -0.02208,0 -0.04416,0 -0.02208,0 -0.03864,0 -0.02208,0 -0.04968,0 -0.02208,0 -0.04968,0 -0.02208,0.0055 -0.04968,0.0055 -0.02208,0 -0.04416,0 -0.04968,0 -0.09936,0 -0.04416,0 -0.08832,0 v 1.335895 h 0.607226 l 0.518901,-0.04416 h 0.220809 q -0.0055,0.0276 -0.01656,0.04968 -0.0055,0.01656 -0.01104,0.03312 -0.0055,0.02208 -0.0055,0.04416 0,0.01656 0,0.03864 0,0.01104 0,0.02208 0,0.01104 0,0.02208 0,0.01656 0,0.0276 0.0055,0.01104 0.0055,0.02208 0.0055,0.02208 0.01104,0.04968 0.01104,0.02208 0.01656,0.04968 l -0.220809,-0.0055 -0.651387,-0.04968 h -0.47474 v 1.567745 q 0.03864,0.01104 0.0828,0.01656 0.04416,0.0055 0.09384,0.0055 0.04416,0.0055 0.08832,0.0055 0.04416,0 0.09384,0 0.0276,0 0.04968,0 0.02208,0 0.04416,-0.0055 0.02208,0 0.04416,0 0.0276,0 0.04968,0 0.110405,-0.0055 0.215289,-0.01104 0.104884,-0.0055 0.209769,-0.01104 0.09936,-0.01104 0.182167,-0.01656 0.0828,-0.01104 0.149047,-0.01656 l 0.220809,-0.0055 q -0.0055,0.0276 -0.01656,0.0552 -0.0055,0.02208 -0.01104,0.04968 -0.0055,0.02208 -0.0055,0.04416 0,0.02208 0,0.04416 0,0.02208 0,0.04416 0,0.02208 0.0055,0.04416 0.0055,0.02208 0.01104,0.03864 0.01104,0.01656 0.01656,0.02208 h -0.220809 -2.042485 v 0 z m 3.262459,-3.825519 q 0.0276,0.01656 0.04968,0.0276 0.0276,0.0055 0.06072,0.01104 0.0055,0 0.0055,0 0.0055,0 0.01104,0 0.0055,0 0.0055,0 0.0055,0 0.01104,0 0.03312,-0.0055 0.06072,-0.01104 0.03312,-0.01104 0.0552,-0.01656 l 0.220809,-0.0055 v 3.819999 h -0.220809 q -0.02208,0 -0.0552,0 -0.0276,-0.0055 -0.0552,-0.01104 -0.0055,0 -0.01104,0 0,0 -0.0055,0 -0.0055,0 -0.01104,0 -0.0055,0 -0.01104,0 -0.03312,0.0055 -0.06072,0.01104 -0.02208,0 -0.04968,0 h -0.220809 v -3.825519 h 0.220809 v 0 z m 2.964364,1.954161 q 0,-0.386416 0.138006,-0.72315 0.138006,-0.342254 0.408497,-0.634826 0.276011,-0.292573 0.651387,-0.436099 0.375376,-0.149046 0.844595,-0.149046 l 0.220809,-0.0055 q 0.0276,0.0055 0.0552,0.0055 0.0276,0 0.0552,0 0.0276,0.0055 0.0552,0.0055 0.0276,0 0.0552,0 0.06072,0.0055 0.115924,0.01104 0.06072,0 0.121445,0.0055 0.115925,0.0055 0.22633,0.0276 0.115925,0.01656 0.226329,0.04416 0.110405,0.0276 0.209769,0.07176 0.09936,0.03864 0.187688,0.09384 l -0.132486,0.425058 h -0.220809 -0.04416 q -0.09936,-0.08832 -0.204248,-0.160087 -0.104885,-0.07728 -0.215289,-0.132485 -0.110405,-0.0552 -0.22633,-0.08832 -0.110404,-0.03864 -0.220809,-0.06072 -0.03312,-0.0055 -0.06624,-0.0055 -0.03312,-0.0055 -0.06072,-0.01104 -0.0055,0 -0.01104,0 0,0 0,0 -0.0055,0 -0.01104,0 0,0 -0.0055,0 -0.253931,0.02208 -0.48578,0.132485 -0.22633,0.110405 -0.425058,0.303613 -0.220809,0.220809 -0.336734,0.524422 -0.115925,0.303612 -0.115925,0.695549 v 0.03312 0.03312 q 0.01104,0.47474 0.126965,0.811474 0.121445,0.336734 0.353295,0.529942 0.215289,0.182168 0.447139,0.281532 0.231849,0.09384 0.48578,0.110405 0.143526,-0.01104 0.281532,-0.03864 0.138005,-0.03312 0.276011,-0.08832 0.143526,-0.0552 0.270491,-0.126965 0.126966,-0.07728 0.23185,-0.165607 l 0.220809,-0.0055 -0.04416,0.342254 q -0.03864,0.0276 -0.07728,0.04968 -0.03864,0.02208 -0.07176,0.04416 -0.03864,0.02208 -0.07728,0.03864 -0.03864,0.01656 -0.07728,0.03312 -0.06072,0.02208 -0.121445,0.03864 -0.0552,0.01656 -0.110405,0.03864 -0.02208,0.0055 -0.04416,0.01104 -0.01656,0.0055 -0.03312,0.01104 -0.0828,0.01656 -0.160087,0.03312 -0.07728,0.01656 -0.154566,0.0276 -0.07728,0.01104 -0.154567,0.01656 -0.07176,0.0055 -0.149046,0.0055 h -0.220809 q -0.402977,0 -0.750751,-0.126966 -0.347775,-0.126965 -0.645867,-0.397456 -0.298093,-0.270492 -0.447139,-0.634827 -0.143526,-0.369855 -0.143526,-0.833554 v -0.01104 z m 4.438261,-1.954161 q 0.0276,0.01656 0.04968,0.0276 0.0276,0.0055 0.06072,0.01104 0.0055,0 0.0055,0 0.0055,0 0.01104,0 0.0055,0 0.0055,0 0.0055,0 0.01104,0 0.03312,-0.0055 0.06072,-0.01104 0.03312,-0.01104 0.0552,-0.01656 l 0.220809,-0.0055 v 3.819999 h -0.220809 q -0.02208,0 -0.0552,0 -0.0276,-0.0055 -0.0552,-0.01104 -0.0055,0 -0.01104,0 0,0 -0.0055,0 -0.0055,0 -0.01104,0 -0.0055,0 -0.01104,0 -0.03312,0.0055 -0.06072,0.01104 -0.02208,0 -0.04968,0 h -0.220809 v -3.825519 h 0.220809 v 0 z m 2.307456,3.825519 v -3.549508 q -0.0055,0.0055 -0.01104,0.0055 -0.0055,0 -0.01104,0 -0.0055,0.0055 -0.01104,0.0055 -0.0055,0 -0.01104,0 -0.0828,0.0055 -0.171127,0.01656 -0.0828,0.0055 -0.171127,0.01656 -0.03312,0.0055 -0.06624,0.01104 -0.0276,0 -0.0552,0.0055 -0.0276,0.0055 -0.06072,0.01104 -0.0276,0 -0.0552,0 -0.0552,0.0055 -0.110404,0.01656 -0.04968,0.0055 -0.09936,0.01656 -0.04968,0.0055 -0.08832,0.01104 -0.03864,0.0055 -0.07176,0.01104 l -0.220809,-0.0055 q 0.0055,-0.0055 0.0055,-0.01656 0.0055,-0.01656 0.01104,-0.0276 0,-0.01104 0,-0.02208 0.0055,-0.01104 0.01104,-0.0276 0,-0.01104 0,-0.02208 0,-0.01104 0,-0.02208 0,-0.0055 0,-0.01104 0,-0.0055 0.0055,-0.01656 0,-0.0055 0,-0.01104 0,-0.0055 0,-0.01104 0,-0.0276 -0.0055,-0.04968 0,-0.0276 -0.0055,-0.04968 -0.0055,-0.0276 -0.01104,-0.04968 0,-0.0276 -0.01104,-0.04968 l 2.909161,-0.01104 h 0.220809 q -0.0055,0.02208 -0.01104,0.03864 0,0.01104 -0.0055,0.02208 -0.0055,0.01104 -0.0055,0.02208 0,0.01104 0,0.02208 -0.0055,0.01656 -0.01104,0.0276 0,0.01104 0,0.02208 0,0.01104 0,0.0276 0,0.01104 0,0.02208 0,0.02208 0,0.04968 0,0.02208 0.0055,0.04968 0.0055,0.02208 0.01104,0.04968 0.01104,0.02208 0.01656,0.04968 l -0.220809,-0.0055 q -0.193208,-0.0276 -0.375376,-0.04968 -0.182167,-0.0276 -0.347774,-0.04416 -0.07728,-0.01104 -0.143526,-0.01104 -0.06624,-0.0055 -0.126966,-0.01104 v 3.543988 h -0.220809 q -0.01104,0 -0.0276,0 -0.01104,0 -0.02208,-0.0055 -0.01656,0 -0.03312,0 -0.01104,-0.0055 -0.02208,-0.0055 0,0 -0.0055,0 0,0 0,0 0,0 -0.0055,0 0,0 0,0 0,0 -0.0055,0 0,0 -0.0055,0 -0.03312,0.0055 -0.06624,0.01104 -0.03312,0 -0.06624,0 h -0.220809 v 0 z m 3.439109,-1.606387 -1.346936,-2.17497 h 0.220809 q 0.04416,0.01656 0.08832,0.0276 0.04968,0.0055 0.08832,0.01104 0.01104,0 0.01656,0 0.01104,0 0.01656,0 0,0 0,0 0.0055,0 0.0055,0 0,0 0,0 0.0055,0 0.0055,0 0.0276,0 0.04968,0 0.0276,0 0.04968,-0.0055 0.0276,-0.0055 0.0552,-0.01104 0.0276,-0.0055 0.0552,-0.01104 l 0.220809,-0.0055 0.932919,1.622947 0.888757,-1.628467 h 0.220809 q 0.0276,0.01656 0.0552,0.0276 0.03312,0.0055 0.06072,0.01104 0.0055,0 0.01104,0 0.01104,0 0.01656,0 0.0055,0 0.01104,0 0.01104,-0.0055 0.01656,-0.0055 0.02208,-0.0055 0.04416,-0.01104 0.02208,-0.0055 0.04416,-0.01104 l 0.220809,-0.0055 q -0.03312,0.04968 -0.06624,0.09384 -0.0276,0.04416 -0.0552,0.08832 -0.03312,0.04416 -0.06624,0.08832 -0.0276,0.04416 -0.0552,0.08832 -0.03312,0.04416 -0.06624,0.09384 -0.0276,0.04416 -0.0552,0.08832 -0.03312,0.04416 -0.06624,0.09384 -0.0276,0.04416 -0.0552,0.08832 -0.121445,0.182168 -0.231849,0.358815 -0.110405,0.176647 -0.22081,0.353295 -0.104884,0.176647 -0.198728,0.342254 -0.09384,0.165607 -0.171127,0.314653 v 1.68367 h -0.220809 q -0.03312,0 -0.06624,0 -0.0276,-0.0055 -0.0552,-0.01104 0,0 -0.0055,0 0,0 0,0 0,0 -0.0055,0 0,0 0,0 -0.0055,0 -0.01104,0 0,0 -0.0055,0 -0.03312,0.0055 -0.07176,0.01104 -0.03312,0 -0.07728,0 h -0.220809 v -1.606387 0 z m 4.355459,1.606387 v -3.869681 h 0.220809 q 0.01656,0.01104 0.03864,0.02208 0.02208,0.0055 0.04416,0.01104 0.0055,0 0.01104,0.0055 0.01104,0 0.01656,0 0.0055,0 0.01104,0 0.01104,0 0.01656,0 0,0 0,0 0.0055,0 0.01104,0 0.0055,0 0.0055,0 0.0055,0 0.0055,0 0.0276,-0.0055 0.04968,-0.01104 0.0276,-0.01104 0.04416,-0.01656 l 0.220809,-0.0055 v 1.606387 q 0.07728,0.02208 0.198729,0.03312 0.121445,0.01104 0.287052,0.02208 0.149046,0.0055 0.303612,0.01104 0.160087,0.0055 0.320174,0.0055 0.143526,0 0.276011,0 0.138006,-0.0055 0.270491,-0.01104 0.160087,-0.01104 0.281532,-0.02208 0.121445,-0.01104 0.193208,-0.0276 v -1.622947 h 0.220809 q 0.0055,0.01104 0.01104,0.01656 0.0055,0 0.01104,0 0,0.0055 0.0055,0.0055 0.0055,0 0.01104,0 0.01104,0.0055 0.02208,0.0055 0.01104,0 0.02208,0 0.0055,0 0.01104,0.0055 0.0055,0 0.01104,0 0.0055,0.0055 0.01104,0.0055 0.0055,0 0.01104,0 0.0055,0 0.0055,0 0.0055,0 0.01104,0 0.0276,-0.0055 0.0552,-0.01104 0.03312,-0.01104 0.0552,-0.01656 l 0.220809,-0.0055 v 3.864161 h -0.220809 q -0.02208,0 -0.04968,0 -0.02208,-0.0055 -0.04968,-0.01104 0,0 -0.0055,0 0,0 0,0 0,0 -0.0055,0 0,0 0,0 0,0 -0.0055,0 0,0 -0.0055,0 -0.03312,0.0055 -0.06624,0.01104 -0.03312,0 -0.06624,0 h -0.220809 v -1.909999 q -0.03864,0 -0.09384,0 -0.04968,-0.0055 -0.110404,-0.01104 -0.06072,0 -0.132486,0 -0.06624,-0.0055 -0.143526,-0.01104 -0.121445,-0.01104 -0.25393,-0.01104 -0.132486,-0.0055 -0.276012,-0.0055 -0.0276,0 -0.0552,0 -0.0276,0 -0.04968,0 -0.0276,0.0055 -0.0552,0.0055 -0.02208,0 -0.04968,0 -0.03312,0 -0.06624,0 -0.03312,0 -0.06624,0 -0.03864,0.0055 -0.07176,0.0055 -0.03312,0 -0.06624,0 -0.03864,0 -0.0828,0.0055 -0.03864,0 -0.07728,0 -0.04416,0.0055 -0.0828,0.01104 -0.03864,0 -0.0828,0 -0.0828,0.0055 -0.160087,0.01104 -0.07728,0 -0.154567,0.01104 v 1.898959 H 76.48247 q -0.03312,0 -0.06072,0 -0.02208,-0.0055 -0.04968,-0.01104 -0.03312,0.0055 -0.06624,0.01104 -0.03312,0 -0.07728,0 h -0.220809 v 0 z m 4.134648,0 1.738872,-3.869681 h 0.220809 0.126966 l 1.700231,3.869681 h -0.22081 q -0.01656,0 -0.03864,0 -0.01656,0 -0.03864,0 -0.02208,0 -0.04416,0 -0.01656,0 -0.04416,0 -0.01104,0 -0.0276,0 -0.01104,0 -0.02208,-0.0055 -0.01104,0 -0.0276,0 -0.01104,0 -0.02208,0 -0.01104,0.0055 -0.0276,0.0055 -0.01104,0 -0.02208,0 -0.01104,0 -0.02208,0 -0.01104,0 -0.01656,0 -0.01104,0 -0.02208,0 -0.0055,0 -0.01656,0 H 83.095702 L 82.488477,39.58398 H 81.36235 l -0.563064,1.523583 h -0.220809 q -0.01104,0 -0.0276,0 -0.01104,0 -0.02208,0 l -0.0276,-0.0055 q -0.0055,0.0055 -0.01656,0.0055 -0.01104,0 -0.01656,0 -0.01104,0 -0.02208,0 -0.0055,0 -0.01656,0 h -0.220809 q -0.01656,0 -0.03312,0 -0.01656,0 -0.03312,0 v 0 z m 1.352456,-1.783034 h 0.905318 l -0.452659,-1.081965 -0.452659,1.081965 z m 2.997483,1.783034 v -3.825519 h 0.220809 q 0.02208,0.01656 0.04968,0.0276 0.0276,0.0055 0.06072,0.01104 0,0 0,0 0.0055,0 0.01104,0 0.0055,0 0.0055,0 0.0055,0 0.0055,0 0.0055,0 0.0055,0 0.0055,0 0.01104,0 0,0 0,0 0.0055,0 0.01104,0 0.0276,-0.0055 0.04968,-0.01104 0.0276,-0.01104 0.04416,-0.01656 l 0.220809,-0.0055 v 3.516386 q 0.03864,0.01104 0.0828,0.01656 0.04416,0.0055 0.09384,0.0055 0.04416,0.0055 0.08832,0.0055 0.04416,0 0.09384,0 0.0276,0 0.04968,0 0.02208,0 0.04416,-0.0055 0.02208,0 0.04416,0 0.0276,0 0.04968,0 0.110405,-0.0055 0.215289,-0.01104 0.104884,-0.0055 0.209769,-0.01104 0.09936,-0.01104 0.182167,-0.01656 0.0828,-0.01104 0.149046,-0.01656 l 0.22081,-0.0055 q -0.0055,0.02208 -0.01104,0.03864 -0.0055,0.01656 -0.0055,0.03312 -0.0055,0.01656 -0.0055,0.03312 0,0.01656 0,0.0276 0,0.01656 0,0.03312 0,0.01656 0,0.0276 0,0.01656 0,0.03312 0.0055,0.01104 0.01104,0.02208 0,0.0055 0,0.01656 0,0.0055 0.0055,0.01656 0,0.0055 0,0.01656 0,0.0055 0,0.01104 l 0.0055,0.03312 h -0.22081 -1.998323 v 0 z m 3.00301,0 v -3.825519 h 0.220809 q 0.02208,0.01656 0.04968,0.0276 0.0276,0.0055 0.06072,0.01104 0,0 0,0 0.0055,0 0.01104,0 0.0055,0 0.0055,0 0.0055,0 0.0055,0 0.0055,0 0.0055,0 0.0055,0 0.01104,0 0,0 0,0 0.0055,0 0.01104,0 0.0276,-0.0055 0.04968,-0.01104 0.0276,-0.01104 0.04416,-0.01656 l 0.220809,-0.0055 v 3.516386 q 0.03864,0.01104 0.0828,0.01656 0.04416,0.0055 0.09384,0.0055 0.04416,0.0055 0.08832,0.0055 0.04416,0 0.09384,0 0.0276,0 0.04968,0 0.02208,0 0.04416,-0.0055 0.02208,0 0.04416,0 0.0276,0 0.04968,0 0.110404,-0.0055 0.215289,-0.01104 0.104884,-0.0055 0.209768,-0.01104 0.09937,-0.01104 0.182168,-0.01656 0.0828,-0.01104 0.149046,-0.01656 l 0.220809,-0.0055 q -0.0055,0.02208 -0.01104,0.03864 -0.0055,0.01656 -0.0055,0.03312 -0.0055,0.01656 -0.0055,0.03312 0,0.01656 0,0.0276 0,0.01656 0,0.03312 0,0.01656 0,0.0276 0,0.01656 0,0.03312 0.0055,0.01104 0.01104,0.02208 0,0.0055 0,0.01656 0,0.0055 0.0055,0.01656 0,0.0055 0,0.01656 0,0.0055 0,0.01104 l 0.0055,0.03312 h -0.220809 -1.998323 v 0 z"
         id="text8"
         aria-label="TAIPEI CITY HALL" />
      <g
         id="g8"
         transform="matrix(0.94835864,0,0,0.94835864,-30.380622,9.8603639)">
        <path
           style="font-weight:500;font-size:5.82083px;line-height:1.25;font-family:'Noto Sans JP';-inkscape-font-specification:'Noto Sans JP Medium';fill:#ffffff;stroke-width:0.264583"
           d="m 68.737576,39.794103 h 3.242203 v 0.529695 h -3.242203 z m -0.250295,-1.746249 h 3.78936 v 2.514598 H 71.688737 V 38.571728 H 69.04608 v 2.002366 h -0.558799 z m 1.152524,-2.910415 0.622829,0.20955 q -0.180446,0.349249 -0.401637,0.715962 -0.215371,0.366712 -0.430742,0.698499 -0.21537,0.331787 -0.413279,0.587904 l -0.488949,-0.203729 q 0.192087,-0.261937 0.395816,-0.605366 0.20955,-0.34925 0.395816,-0.715962 0.192088,-0.366713 0.320146,-0.686858 z m 1.40282,0.98372 0.430742,-0.320146 q 0.296862,0.238654 0.599545,0.529696 0.308504,0.28522 0.570441,0.576262 0.261938,0.291041 0.413279,0.541337 L 72.579324,37.81502 Q 72.439624,37.570546 72.189329,37.273683 71.939033,36.971 71.63635,36.674138 71.339487,36.371455 71.042625,36.121159 Z m -3.218919,0.77417 q 0.430742,-0.01164 0.966258,-0.0291 0.535516,-0.01746 1.135062,-0.04075 0.605366,-0.02328 1.228195,-0.04657 0.628649,-0.0291 1.239837,-0.05821 l -0.02328,0.529696 q -0.611187,0.03493 -1.234016,0.06403 -0.617008,0.0291 -1.210732,0.05821 -0.587904,0.02328 -1.1176,0.04657 -0.523874,0.01746 -0.942974,0.03493 z m 5.82083,-0.291041 h 1.717145 v 0.552979 h -1.717145 z m 2.881311,-1.327149 h 0.576262 v 4.266668 q 0,0.232833 0.04657,0.302683 0.05239,0.06403 0.227012,0.06403 0.04075,0 0.1397,0 0.104775,0 0.227012,0 0.122238,0 0.227013,0 0.104775,0 0.151341,0 0.128058,0 0.192088,-0.09895 0.06403,-0.104775 0.09313,-0.366712 0.0291,-0.261938 0.04657,-0.733425 0.06985,0.05239 0.162983,0.104775 0.09313,0.05239 0.192087,0.09313 0.09895,0.03492 0.174625,0.05239 -0.0291,0.541337 -0.104775,0.873124 -0.06985,0.325967 -0.232833,0.471488 -0.162983,0.14552 -0.471487,0.14552 -0.04657,0 -0.168804,0 -0.122238,0 -0.267759,0 -0.14552,0 -0.267758,0 -0.116416,0 -0.162983,0 -0.302683,0 -0.471487,-0.08149 -0.168804,-0.08149 -0.238654,-0.285221 -0.06985,-0.197908 -0.06985,-0.552979 z m -1.437745,-0.0058 h 0.570441 v 5.250388 h -0.570441 z m 3.346977,0.884766 0.401637,0.48895 q -0.2794,0.209549 -0.611187,0.413279 -0.331787,0.203729 -0.681037,0.401637 -0.343429,0.197908 -0.675216,0.372533 -0.0291,-0.09313 -0.09895,-0.221192 -0.06403,-0.128058 -0.122238,-0.20955 0.320146,-0.174624 0.646112,-0.384174 0.325967,-0.215371 0.622829,-0.436563 0.296862,-0.227012 0.518054,-0.42492 z m -4.98263,3.125786 q 0.238654,-0.07567 0.547158,-0.186267 0.308504,-0.110596 0.651933,-0.238654 0.349249,-0.128058 0.698499,-0.261937 l 0.104775,0.500591 q -0.448204,0.197908 -0.91387,0.395816 -0.459846,0.192088 -0.8382,0.34925 z m 8.259757,-4.138611 h 0.587904 v 1.135062 h -0.587904 z m 0.0058,1.303866 h 0.570441 v 4.13861 h -0.570441 z m -2.334153,-0.500591 h 5.285314 v 0.535516 h -5.285314 z m 0.582083,1.251478 h 3.824286 v 0.535517 h -3.271307 v 2.130424 h -0.552979 z m 3.614736,0 h 0.570441 v 2.019828 q 0,0.215371 -0.05821,0.343429 -0.05239,0.128059 -0.215371,0.197909 -0.168804,0.05821 -0.4191,0.07567 -0.250295,0.01746 -0.617008,0.01746 -0.01164,-0.128058 -0.06985,-0.2794 -0.05821,-0.151342 -0.116416,-0.267758 0.174625,0.0058 0.337608,0.01164 0.168804,0.0058 0.291041,0.0058 0.122238,-0.0058 0.168804,-0.0058 0.07567,0 0.09895,-0.02328 0.02911,-0.02328 0.02911,-0.08149 z m 1.629832,-1.647294 h 2.677582 v 0.529695 h -2.677582 z m 1.449387,1.699682 h 1.030287 v 0.518054 h -1.030287 z m -0.244475,-1.414462 h 0.535517 v 3.667123 h -0.535517 z m -0.995362,1.04775 h 0.500592 v 2.764894 h -0.500592 z m -0.325966,2.613552 q 0.343429,-0.05821 0.797454,-0.151341 0.459845,-0.09313 0.972078,-0.203729 0.512233,-0.110596 1.012825,-0.221192 l 0.05239,0.506412 q -0.483129,0.110596 -0.972079,0.227013 -0.488949,0.110595 -0.942974,0.21537 -0.454025,0.104775 -0.820737,0.186267 z m 3.201456,-3.248023 h 2.246841 v 0.506412 h -2.246841 z m 0.174625,-1.082674 0.547158,0.09313 q -0.104775,0.547158 -0.261937,1.071033 -0.157163,0.518054 -0.360892,0.960437 -0.203729,0.442383 -0.459845,0.77417 -0.04075,-0.05239 -0.122238,-0.122237 -0.07567,-0.06985 -0.162983,-0.1397 -0.08149,-0.06985 -0.145521,-0.110596 0.244475,-0.296862 0.424921,-0.692679 0.186267,-0.401637 0.320146,-0.867303 0.1397,-0.471488 0.221191,-0.966258 z m 1.158345,1.373716 0.552979,0.05239 q -0.1397,0.995362 -0.413279,1.757891 -0.267758,0.756708 -0.739245,1.309686 -0.465667,0.547158 -1.199091,0.931333 -0.02328,-0.06985 -0.08149,-0.162983 -0.05239,-0.08731 -0.116416,-0.180446 -0.06403,-0.08731 -0.116417,-0.14552 0.675216,-0.314325 1.100137,-0.803275 0.430741,-0.494771 0.669395,-1.175808 0.238654,-0.686858 0.343429,-1.583265 z m -1.082674,0.1397 q 0.1397,0.779991 0.389996,1.461028 0.256116,0.675216 0.663574,1.181628 0.407458,0.506413 0.995362,0.779992 -0.05821,0.05239 -0.133879,0.133879 -0.07567,0.08731 -0.1397,0.174625 -0.06403,0.08731 -0.104775,0.162983 -0.622829,-0.331788 -1.047749,-0.884766 -0.4191,-0.5588 -0.686858,-1.298045 -0.261937,-0.739246 -0.4191,-1.629833 z m 4.965167,0.570441 h 2.817282 v 0.506412 h -2.817282 z m 0.09313,1.030287 0.442383,-0.180446 q 0.128058,0.168804 0.256116,0.372533 0.128059,0.197908 0.227013,0.395817 0.09895,0.192087 0.157162,0.349249 l -0.465666,0.215371 q -0.05239,-0.162983 -0.151342,-0.360891 -0.09895,-0.197909 -0.221191,-0.407458 -0.122238,-0.20955 -0.244475,-0.384175 z m 1.54252,-1.827741 h 0.541337 v 3.498319 q 0,0.227012 -0.05821,0.34925 -0.05821,0.128058 -0.21537,0.192087 -0.151342,0.06403 -0.401638,0.08149 -0.244474,0.01746 -0.605366,0.01746 -0.01164,-0.110596 -0.06403,-0.267758 -0.05239,-0.151342 -0.110596,-0.261937 0.261938,0.0058 0.483129,0.01164 0.227013,0 0.302683,-0.0058 0.06985,0 0.09895,-0.02911 0.02911,-0.0291 0.02911,-0.09313 z m -2.118782,-0.06403 0.541337,0.151342 q -0.157163,0.372533 -0.378354,0.756708 -0.221192,0.378353 -0.494771,0.715962 -0.273579,0.337608 -0.587904,0.593724 -0.04075,-0.05821 -0.104775,-0.133879 -0.05821,-0.07567 -0.122237,-0.145521 -0.06403,-0.07567 -0.122237,-0.122237 0.28522,-0.227012 0.529695,-0.529696 0.244475,-0.308504 0.436562,-0.640291 0.192088,-0.331787 0.302684,-0.646112 z m 0.523874,-1.216553 h 0.570442 v 0.954616 h -0.570442 z m -1.874307,0.628649 h 4.62756 v 0.512233 h -4.62756 z m -0.285221,0 h 0.535517 v 1.606549 q 0,0.343429 -0.02328,0.756708 -0.01746,0.407458 -0.07567,0.844021 -0.05821,0.430741 -0.174625,0.838199 -0.110596,0.407458 -0.291042,0.750887 -0.05239,-0.05239 -0.1397,-0.110596 -0.08149,-0.05821 -0.174625,-0.116416 -0.08731,-0.05239 -0.151341,-0.08149 0.168804,-0.314325 0.267758,-0.681037 0.09895,-0.372533 0.145521,-0.756708 0.05239,-0.389995 0.06403,-0.756708 0.01746,-0.372533 0.01746,-0.692679 z m 1.210733,1.792816 0.483129,-0.483129 0.03493,0.01746 v 3.440111 h -0.518054 z"
           id="text9"
           aria-label="台北市政府" />
        <path
           style="font-weight:500;font-size:5.82083px;line-height:1.25;font-family:'Noto Sans KR';-inkscape-font-specification:'Noto Sans KR Medium';fill:#ffffff;stroke-width:0.264583"
           d="m 103.12748,38.827845 h 0.42492 q 0.47148,0 0.87312,-0.01164 0.40164,-0.01164 0.77417,-0.04075 0.37836,-0.03493 0.77417,-0.09895 l 0.0582,0.488949 q -0.40164,0.06403 -0.79163,0.104775 -0.38418,0.03492 -0.79746,0.04657 -0.40745,0.0058 -0.89058,0.0058 h -0.42492 z m 0,-3.114144 h 2.48549 v 0.500592 h -1.88013 v 2.782356 h -0.60536 z m 0.45984,1.490133 h 1.9267 v 0.483129 h -1.9267 z m 2.82893,-1.949978 h 0.61118 v 5.320238 h -0.61118 z m 0.4773,2.083857 h 0.96044 v 0.506412 h -0.96044 z m 5.13398,-2.089678 h 0.61118 v 5.33188 h -0.61118 z m -2.21774,0.389995 q 0.39582,0 0.70432,0.232834 0.31433,0.232833 0.48895,0.651933 0.17462,0.419099 0.17462,0.989541 0,0.576262 -0.17462,1.001182 -0.17462,0.4191 -0.48895,0.651933 -0.3085,0.227013 -0.70432,0.227013 -0.39582,0 -0.71014,-0.227013 -0.30851,-0.232833 -0.48895,-0.651933 -0.17463,-0.42492 -0.17463,-1.001182 0,-0.570442 0.17463,-0.989541 0.18044,-0.4191 0.48895,-0.651933 0.31432,-0.232834 0.71014,-0.232834 z m 0,0.552979 q -0.23283,0 -0.41328,0.157163 -0.17462,0.157162 -0.27358,0.454024 -0.099,0.296863 -0.099,0.710142 0,0.419099 0.099,0.715962 0.099,0.296862 0.27358,0.459845 0.18045,0.157163 0.41328,0.157163 0.23283,0 0.40746,-0.157163 0.17462,-0.162983 0.27358,-0.459845 0.099,-0.296863 0.099,-0.715962 0,-0.413279 -0.099,-0.710142 -0.099,-0.296862 -0.27358,-0.454024 -0.17463,-0.157163 -0.40746,-0.157163 z m 3.98145,-0.430741 h 0.57626 v 1.257299 h 0.92551 v -1.257299 h 0.56462 v 3.50996 h -2.06639 z m 0.57626,1.746249 v 1.268941 h 0.92551 v -1.268941 z m 3.20728,-2.258482 h 0.58208 v 5.320238 h -0.58208 z m -1.8161,1.990724 h 0.96044 v 0.49477 h -0.96044 z m 0.75089,-1.885949 h 0.57044 v 4.965168 h -0.57044 z m 6.22828,-0.104775 h 0.61119 v 5.33188 h -0.61119 z m -2.21773,0.389995 q 0.39581,0 0.70432,0.232834 0.31432,0.232833 0.48895,0.651933 0.17462,0.419099 0.17462,0.989541 0,0.576262 -0.17462,1.001182 -0.17463,0.4191 -0.48895,0.651933 -0.30851,0.227013 -0.70432,0.227013 -0.39582,0 -0.71014,-0.227013 -0.30851,-0.232833 -0.48895,-0.651933 -0.17463,-0.42492 -0.17463,-1.001182 0,-0.570442 0.17463,-0.989541 0.18044,-0.4191 0.48895,-0.651933 0.31432,-0.232834 0.71014,-0.232834 z m 0,0.552979 q -0.23283,0 -0.41328,0.157163 -0.17463,0.157162 -0.27358,0.454024 -0.099,0.296863 -0.099,0.710142 0,0.419099 0.099,0.715962 0.099,0.296862 0.27358,0.459845 0.18045,0.157163 0.41328,0.157163 0.23283,0 0.40746,-0.157163 0.17462,-0.162983 0.27358,-0.459845 0.099,-0.296863 0.099,-0.715962 0,-0.413279 -0.099,-0.710142 -0.099,-0.296862 -0.27358,-0.454024 -0.17463,-0.157163 -0.40746,-0.157163 z m 6.79291,-0.500591 h 0.50059 v 0.873124 q 0,0.483129 -0.10477,0.931333 -0.10478,0.448204 -0.30851,0.8382 -0.1979,0.389995 -0.48312,0.686858 -0.2794,0.296862 -0.6403,0.471487 l -0.36671,-0.500592 q 0.32015,-0.14552 0.57626,-0.395816 0.26194,-0.256117 0.44239,-0.582083 0.18626,-0.325966 0.28522,-0.6985 0.099,-0.372533 0.099,-0.750887 z m 0.1106,0 h 0.50059 v 0.873124 q 0,0.366713 0.0931,0.721783 0.099,0.355071 0.2794,0.669396 0.18045,0.314325 0.43656,0.552979 0.25612,0.238654 0.56462,0.384174 l -0.35507,0.48895 q -0.35507,-0.168804 -0.63447,-0.454025 -0.2794,-0.28522 -0.4773,-0.657753 -0.19791,-0.372534 -0.30269,-0.809096 -0.10477,-0.436562 -0.10477,-0.896408 z m 2.29923,-0.442383 h 0.61118 v 5.33188 h -0.61118 z m 2.85802,0.925512 h 0.49477 v 0.20955 q 0,0.459845 -0.17462,0.867303 -0.17463,0.401638 -0.50641,0.704321 -0.32597,0.296862 -0.80328,0.448204 l -0.29104,-0.471488 q 0.41328,-0.128058 0.6985,-0.360891 0.28522,-0.238654 0.43074,-0.547158 0.15134,-0.314325 0.15134,-0.640291 z m 0.1106,0 h 0.49477 v 0.20955 q 0,0.227012 0.0873,0.448204 0.0873,0.21537 0.2503,0.401637 0.1688,0.186266 0.40746,0.331787 0.23865,0.145521 0.54715,0.232833 l -0.2794,0.471488 q -0.47148,-0.13388 -0.81491,-0.413279 -0.33761,-0.2794 -0.51806,-0.657754 -0.17462,-0.378354 -0.17462,-0.814916 z m -1.23402,-0.320146 h 2.84639 v 0.483129 h -2.84639 z m 1.12342,-0.622829 h 0.60537 v 0.803275 h -0.60537 z m 1.57163,1.490133 h 1.11178 v 0.500591 h -1.11178 z m 0.95461,-1.466849 h 0.61119 v 3.213098 h -0.61119 z m -1.15834,3.329514 q 0.83238,0 1.30968,0.261938 0.48313,0.261937 0.48313,0.727603 0,0.471488 -0.48313,0.727604 -0.4773,0.261937 -1.30968,0.261937 -0.8382,0 -1.32133,-0.261937 -0.47731,-0.256116 -0.47731,-0.727604 0,-0.465666 0.47731,-0.727603 0.48313,-0.261938 1.32133,-0.261938 z m 0,0.471488 q -0.37836,0 -0.64611,0.06403 -0.26776,0.05821 -0.40746,0.174625 -0.13388,0.110595 -0.13388,0.279399 0,0.168804 0.13388,0.285221 0.1397,0.116417 0.40746,0.174625 0.26775,0.05821 0.64611,0.05821 0.37835,0 0.64029,-0.05821 0.26776,-0.05821 0.40746,-0.174625 0.1397,-0.116417 0.1397,-0.285221 0,-0.168804 -0.1397,-0.279399 -0.1397,-0.116417 -0.40746,-0.174625 -0.26194,-0.06403 -0.64029,-0.06403 z"
           id="text9-3"
           aria-label="타이베이 시청" />
      </g>
    </g>
  </g>
</svg>
