<?xml version="1.0" encoding="UTF-8" standalone="no"?>
<!-- Created with Inkscape (http://www.inkscape.org/) -->

<svg
   width="500"
   height="250"
   viewBox="0 0 132.29166 66.145833"
   version="1.1"
   id="svg1"
   inkscape:version="1.3.2 (091e20e, 2023-11-25, custom)"
   sodipodi:docname="bl19.svg"
   xmlns:inkscape="http://www.inkscape.org/namespaces/inkscape"
   xmlns:sodipodi="http://sodipodi.sourceforge.net/DTD/sodipodi-0.dtd"
   xmlns="http://www.w3.org/2000/svg"
   xmlns:svg="http://www.w3.org/2000/svg">
  <sodipodi:namedview
     id="namedview1"
     pagecolor="#9e652e"
     bordercolor="#ffffff"
     borderopacity="1"
     inkscape:showpageshadow="0"
     inkscape:pageopacity="0"
     inkscape:pagecheckerboard="false"
     inkscape:deskcolor="#d1d1d1"
     inkscape:document-units="mm"
     inkscape:zoom="2.0208096"
     inkscape:cx="260.29172"
     inkscape:cy="106.88785"
     inkscape:window-width="1920"
     inkscape:window-height="1009"
     inkscape:window-x="1912"
     inkscape:window-y="-8"
     inkscape:window-maximized="1"
     inkscape:current-layer="layer1" />
  <defs
     id="defs1">
    <rect
       x="560.66638"
       y="34.144731"
       width="279.32397"
       height="128.59143"
       id="rect6" />
    <rect
       x="157.85752"
       y="62.351248"
       width="375.73891"
       height="119.77096"
       id="rect4" />
    <rect
       x="157.85751"
       y="62.35125"
       width="329.07602"
       height="135.09438"
       id="rect4-5" />
    <rect
       x="157.85751"
       y="62.35125"
       width="329.07602"
       height="135.09438"
       id="rect4-5-1" />
    <rect
       x="157.85751"
       y="62.35125"
       width="329.07602"
       height="135.09438"
       id="rect4-5-7" />
  </defs>
  <g
     inkscape:label="Layer 1"
     inkscape:groupmode="layer"
     id="layer1">
    <rect
       style="fill:#005fb9;fill-opacity:1;stroke:none;stroke-width:0.953294;stroke-dasharray:none"
       id="rect5"
       width="132.29167"
       height="66.145836"
       x="-2.5431316e-06"
       y="-1.2715658e-06"
       ry="0" />
    <g
       id="g3"
       transform="matrix(0.98519374,0,0,0.98519374,19.601017,0.48968401)">
      <g
         id="g2"
         transform="translate(-0.7595773)">
        <path
           id="rect1"
           style="fill-opacity:0;stroke:#ffffff;stroke-width:0.960404"
           d="m 16.906102,14.003039 h 12.657305 c 4.000431,0 7.220995,3.220564 7.220995,7.220995 v 23.697769 c 0,4.000432 -3.220564,7.220995 -7.220995,7.220995 H 16.906102 c -4.000431,0 -7.2209948,-3.220563 -7.2209948,-7.220995 V 21.224034 c 0,-4.000431 3.2205638,-7.220995 7.2209948,-7.220995 z" />
        <path
           style="font-size:12.7947px;line-height:1.25;font-family:'AR UDJingXiHeiE1G30 EB';-inkscape-font-specification:'AR UDJingXiHeiE1G30 EB';fill:#ffffff;stroke-width:0.266556"
           d="m 19.569068,30.474609 h -4.861986 v -9.250568 h 4.452555 q 1.317854,0 2.085536,0.639735 0.767682,0.639735 0.767682,1.701695 0,0.690914 -0.307073,1.215497 -0.294278,0.511788 -0.895629,0.84445 0.780477,0.307073 1.177113,0.84445 0.40943,0.537378 0.40943,1.27947 0,1.228291 -0.806066,1.983179 -0.806066,0.742092 -2.021562,0.742092 z m 0.754887,-6.704422 q 0,-0.626941 -0.358252,-0.946808 -0.358251,-0.332662 -1.03637,-0.332662 h -2.597324 v 2.610118 h 2.686886 q 0.575762,0 0.934014,-0.332662 0.371046,-0.345457 0.371046,-0.997986 z m 0.383841,3.966356 q 0,-0.665324 -0.409431,-1.010781 Q 19.90173,26.367511 19.2492,26.367511 h -2.917191 v 2.840423 h 2.891602 q 0.678119,0 1.074754,-0.371046 0.409431,-0.371047 0.409431,-1.100345 z m 9.813543,2.738066 h -6.499708 v -9.250568 h 1.624927 v 7.983893 h 4.874781 z"
           id="text2"
           aria-label="BL" />
        <path
           style="font-size:14.6606px;line-height:1.25;font-family:'AR UDJingXiHeiE1G30 EB';-inkscape-font-specification:'AR UDJingXiHeiE1G30 EB';fill:#ffffff;stroke-width:0.266556"
           d="m 18.235477,36.649762 -1.71529,1.598005 -0.850314,-1.304793 2.756192,-2.506963 h 1.598006 v 10.599614 h -1.788594 z m 9.29481,-0.938279 q -0.791672,0 -1.275472,0.557103 -0.469139,0.542442 -0.469139,1.554024 0,0.967599 0.439818,1.524702 0.454478,0.557103 1.319454,0.571763 0.820993,0 1.275472,-0.527781 0.469139,-0.542442 0.469139,-1.554024 0,-1.055563 -0.454478,-1.583344 -0.454479,-0.542443 -1.304794,-0.542443 z m 0.02932,8.06333 q 1.026242,0 1.524703,-0.850315 0.49846,-0.850314 0.49846,-2.756192 -0.366515,0.586424 -0.996921,0.894296 -0.615745,0.307873 -1.378096,0.307873 -1.495381,0 -2.389678,-0.9676 -0.894296,-0.98226 -0.894296,-2.521623 0,-1.583345 0.967599,-2.594926 0.98226,-1.026242 2.624248,-1.026242 1.949859,0 2.888138,1.275472 0.938278,1.275472 0.938278,3.782435 0,3.078726 -0.923618,4.500804 -0.923617,1.407418 -2.873477,1.407418 -1.70063,0 -2.550945,-0.835655 -0.850314,-0.850314 -0.864975,-2.023162 h 1.803254 q 0.01466,0.615745 0.425157,1.011581 0.410497,0.395836 1.202169,0.395836 z"
           id="text3"
           aria-label="19" />
        <path
           style="font-weight:500;font-size:72px;line-height:1.25;font-family:'Noto Sans TC';-inkscape-font-specification:'Noto Sans TC Medium';white-space:pre;fill:#ffffff"
           d="m 161.74542,103.54541 h 19.872 v 6.408 h -19.872 z m 9.576,-14.112004 h 23.184 v 6.48 h -23.184 z m 25.776,3.168 q 2.304,8.928004 6.408,16.488004 4.104,7.56 10.152,13.248 6.048,5.616 14.04,8.712 -0.72,0.648 -1.656,1.728 -0.936,1.008 -1.728,2.16 -0.792,1.152 -1.368,2.088 -8.352,-3.744 -14.472,-9.936 -6.12,-6.264 -10.296,-14.616 -4.176,-8.424 -6.84,-18.576004 z m 21.888,2.16 6.264,4.608 q -3.096,2.736004 -6.552,5.688004 -3.456,2.88 -6.912,5.544 -3.384,2.664 -6.48,4.68 l -4.752,-3.888 q 2.952,-2.088 6.336,-4.896 3.384,-2.88 6.552,-5.904 3.24,-3.096004 5.544,-5.832004 z m -28.512,-5.328 h 7.344 v 43.776004 q 0,2.88 -0.792,4.464 -0.792,1.656 -2.736,2.52 -2.016,0.864 -5.112,1.008 -3.096,0.216 -7.704,0.216 -0.216,-1.512 -0.936,-3.528 -0.648,-1.944 -1.44,-3.312 2.088,0.072 4.032,0.144 2.016,0 3.528,0 1.512,0 2.16,0 1.008,-0.072 1.296,-0.36 0.36,-0.36 0.36,-1.296 z m -12.96,-9.072 3.384,-5.544 q 3.24,0.792 6.912,1.8 3.672,1.008 7.344,2.304 3.744,1.224 6.912,2.52 3.24,1.224 5.544,2.448 l -3.6,6.408 q -2.232,-1.224 -5.328,-2.592 -3.096,-1.368 -6.768,-2.736 -3.6,-1.368 -7.344,-2.52 -3.672,-1.224 -7.056,-2.088 z m 1.584,23.184004 h 1.368 l 1.224,-0.288 4.536,1.944 q -1.8,7.416 -4.968,13.536 -3.096,6.12 -7.128,10.728 -4.032,4.608 -8.568,7.56 -0.576,-0.72 -1.584,-1.656 -0.936,-1.008 -2.016,-1.944 -1.008,-1.008 -1.872,-1.512 4.392,-2.664 8.136,-6.624 3.816,-4.032 6.624,-9.216 2.808,-5.184 4.248,-11.232 z m 54.36,-3.24 h 64.872 v 5.904 h -64.872 z m 17.712,21.6 h 29.52 v 5.184 h -29.52 z m 0,10.872 h 29.52 v 5.688 h -29.52 z m -11.376,-42.624004 h 52.344 v 5.544 h -52.344 z m -2.52,-10.08 h 57.024 v 5.76 h -57.024 z m 9.216,30.888004 h 38.952 v 30.168 h -7.416 v -24.624 h -24.48 v 24.912 h -7.056 z m 14.904,-36.288004 7.2,0.648 q -0.864,7.056 -3.096,14.112 -2.16,6.984 -5.976,13.464004 -3.744,6.48 -9.36,12.024 -5.616,5.544 -13.392,9.72 -0.36,-0.936 -1.224,-1.944 -0.792,-1.08 -1.728,-2.016 -0.864,-1.008 -1.728,-1.584 7.416,-3.672 12.672,-8.64 5.328,-5.04 8.784,-10.944004 3.456,-5.904 5.328,-12.24 1.872,-6.336 2.52,-12.6 z m 18,27.360004 q 2.088,3.456 5.256,6.696 3.168,3.168 7.056,5.76 3.96,2.592 8.064,4.176 -0.72,0.648 -1.656,1.656 -0.936,1.008 -1.728,2.088 -0.792,1.008 -1.296,1.944 -4.248,-2.016 -8.28,-5.112 -4.032,-3.096 -7.416,-6.984 -3.384,-3.96 -5.76,-8.136 z"
           id="text4"
           transform="matrix(0.26655641,0,0,0.26655641,-1.475616,-4.7571419)"
           aria-label="永春" />
        <path
           style="font-size:7.46358px;line-height:1.25;font-family:'AR UDJingXiHeiE1G30 EB';-inkscape-font-specification:'AR UDJingXiHeiE1G30 EB';fill:#ffffff;stroke-width:0.266556"
           d="m 43.842545,38.024577 1.537497,-2.388345 h 1.059828 l -2.12712,3.172021 V 41.0324 h -0.947875 v -2.224147 l -2.164438,-3.172021 h 1.082219 z m 8.389067,0.335861 q 0,1.298663 -0.723967,2.037558 -0.716504,0.731431 -1.962922,0.731431 -1.268808,0 -1.985312,-0.738895 -0.716504,-0.738894 -0.716504,-2.030094 0,-1.31359 0.723968,-2.059948 0.723967,-0.753821 1.977848,-0.753821 1.268809,0 1.977849,0.746358 0.70904,0.746358 0.70904,2.067411 z m -2.686889,2.030094 q 0.813531,0 1.253882,-0.537378 0.447815,-0.537377 0.447815,-1.492716 0,-0.947874 -0.447815,-1.507643 -0.447815,-0.567232 -1.253882,-0.567232 -0.820994,0 -1.276272,0.574696 -0.447815,0.567232 -0.447815,1.500179 0,0.955339 0.455279,1.492716 0.455278,0.537378 1.268808,0.537378 z m 4.66474,-3.254121 V 41.0324 h -0.947875 v -5.396168 h 0.977729 l 2.649571,3.985551 v -3.985551 h 0.947875 V 41.0324 h -1.037438 z m 8.829409,3.239194 q -0.276152,0.388106 -0.694113,0.574696 -0.410497,0.179126 -0.940411,0.179126 -1.164318,0 -1.850968,-0.731431 -0.686649,-0.738895 -0.686649,-2.059948 0,-1.328518 0.723967,-2.059949 0.723967,-0.73143 1.955458,-0.73143 0.992656,0 1.612133,0.455278 0.626941,0.447815 0.753822,1.283736 h -0.947875 q -0.07464,-0.440351 -0.440351,-0.716504 -0.358252,-0.283616 -0.977729,-0.283616 -0.828457,0 -1.261345,0.537378 -0.432888,0.529914 -0.432888,1.515107 0,1.052364 0.455279,1.552424 0.455278,0.492597 1.238954,0.492597 0.68665,0 1.089683,-0.403034 0.403033,-0.403033 0.403033,-0.925484 v -0.111953 h -1.530034 v -0.738895 h 2.440591 V 41.0324 h -0.910557 z m 5.866371,-1.224027 h 0.947875 q -0.03732,0.888166 -0.619477,1.433007 -0.58216,0.544842 -1.686769,0.544842 -1.306127,0 -2.00024,-0.738895 -0.686649,-0.738894 -0.686649,-2.052484 0,-1.298663 0.686649,-2.045021 0.694113,-0.746358 1.985312,-0.746358 1.037438,0 1.612134,0.477669 0.574695,0.470205 0.656795,1.224027 h -0.947875 q -0.05971,-0.432888 -0.39557,-0.694113 -0.335861,-0.268689 -0.947874,-0.268689 -0.753822,0 -1.2091,0.507523 -0.455279,0.507524 -0.455279,1.544962 0,1.052364 0.455279,1.552424 0.462742,0.50006 1.224027,0.50006 0.649331,0 1.00012,-0.335861 0.350788,-0.343325 0.380642,-0.903093 z m 2.821229,-0.514987 V 41.0324 h -0.947874 v -5.396168 h 0.947874 v 2.261464 h 2.589863 v -2.261464 h 0.947874 V 41.0324 h -0.947874 v -2.395809 z m 9.299621,0.507523 q 0,0.940411 -0.589623,1.462862 -0.589623,0.522451 -1.679306,0.522451 -1.104609,0 -1.701696,-0.514987 -0.589623,-0.514988 -0.589623,-1.462862 v -3.515346 h 0.947875 v 3.470564 q 0,0.612014 0.335861,0.947875 0.335861,0.335861 1.007583,0.335861 0.634405,0 0.970266,-0.320934 0.343325,-0.328397 0.343325,-0.977729 v -3.455637 h 0.955338 z m 2.149512,-2.007703 V 41.0324 h -0.947874 v -5.396168 h 0.977729 l 2.649571,3.985551 v -3.985551 h 0.947874 V 41.0324 h -1.037437 z"
           id="text5"
           aria-label="YONGCHUN" />
        <path
           d="m 41.493953,46.596073 h 2.059948 v 0.664259 h -2.059948 z m 0.992656,-1.462862 h 2.403273 v 0.671723 h -2.403273 z m 2.671962,0.328398 q 0.238834,0.925484 0.664258,1.70916 0.425424,0.783676 1.052365,1.373299 0.626941,0.582159 1.455398,0.903093 -0.07464,0.06717 -0.171662,0.179126 -0.09703,0.10449 -0.179126,0.223907 -0.0821,0.119417 -0.141808,0.216444 -0.865775,-0.388106 -1.50018,-1.029974 -0.634404,-0.649332 -1.067292,-1.515107 -0.432887,-0.873239 -0.70904,-1.925604 z m 2.268928,0.223907 0.649331,0.477669 q -0.320933,0.283617 -0.679185,0.589623 -0.358252,0.298544 -0.716504,0.574696 -0.350788,0.276152 -0.671722,0.485133 l -0.492596,-0.403034 q 0.306006,-0.216443 0.656795,-0.507523 0.350788,-0.298543 0.679185,-0.612014 0.335861,-0.320934 0.574696,-0.60455 z m -2.955578,-0.552305 h 0.761285 v 4.537857 q 0,0.298543 -0.0821,0.462742 -0.0821,0.171662 -0.283616,0.261225 -0.20898,0.08956 -0.529914,0.104491 -0.320934,0.02239 -0.798603,0.02239 -0.02239,-0.156735 -0.09703,-0.365715 -0.06717,-0.201517 -0.149271,-0.343325 0.216443,0.0075 0.41796,0.01493 0.20898,0 0.365716,0 0.156735,0 0.223907,0 0.10449,-0.0075 0.134344,-0.03732 0.03732,-0.03732 0.03732,-0.134344 z M 43.128477,44.1928 43.479265,43.618105 q 0.335861,0.0821 0.716504,0.186589 0.380642,0.10449 0.761285,0.238835 0.388106,0.126881 0.716504,0.261225 0.335861,0.126881 0.574695,0.253762 l -0.373179,0.664258 Q 45.643703,45.095894 45.322769,44.954085 45.001835,44.812277 44.621193,44.670469 44.248014,44.528661 43.859908,44.409244 43.479265,44.282363 43.128477,44.1928 Z m 0.164199,2.403273 h 0.141808 l 0.126881,-0.02985 0.470205,0.201516 q -0.186589,0.768749 -0.514987,1.403154 -0.320934,0.634404 -0.738894,1.112073 -0.417961,0.477669 -0.888166,0.783676 -0.05971,-0.07464 -0.164199,-0.171662 -0.09703,-0.104491 -0.20898,-0.201517 -0.104491,-0.10449 -0.194054,-0.156735 0.455279,-0.276153 0.843385,-0.68665 0.39557,-0.41796 0.686649,-0.955338 0.29108,-0.537378 0.440352,-1.164318 z m 5.635003,-0.298543 h 6.724685 v 0.582159 h -6.724685 z m 1.83604,2.254001 h 3.060068 v 0.514987 h -3.060068 z m 0,1.171782 h 3.060068 v 0.559769 H 50.763719 Z M 49.57701,45.237702 h 5.426023 v 0.567232 H 49.57701 Z m -0.246298,-1.052365 h 5.911155 v 0.567232 h -5.911155 z m 3.881062,1.23149 q 0.231371,0.612014 0.612013,1.156855 0.388106,0.537378 0.89563,0.955339 0.514987,0.410497 1.127,0.656795 -0.07464,0.06717 -0.171662,0.171662 -0.08956,0.10449 -0.171662,0.216444 -0.0821,0.10449 -0.134345,0.194053 -0.641868,-0.29108 -1.171782,-0.753822 -0.529914,-0.470205 -0.940411,-1.082219 -0.403033,-0.612013 -0.671722,-1.321053 z m -2.866015,1.962922 h 3.918379 v 3.119777 h -0.723967 v -2.560008 h -2.500299 v 2.589862 h -0.694113 z m 1.425544,-3.776572 0.716503,0.05225 q -0.06717,0.753821 -0.283616,1.507643 -0.20898,0.753821 -0.597086,1.447934 -0.388106,0.694113 -0.977729,1.283736 -0.589623,0.582159 -1.410617,1.015047 -0.04478,-0.09703 -0.126881,-0.201517 -0.07463,-0.10449 -0.164198,-0.201516 -0.08956,-0.10449 -0.171663,-0.156736 0.783676,-0.388106 1.335981,-0.91802 0.559769,-0.537378 0.910557,-1.164318 0.350788,-0.626941 0.537378,-1.306127 0.186589,-0.679186 0.231371,-1.358372 z"
           id="text5-9"
           style="font-weight:500;font-size:7.46358px;line-height:1.25;font-family:'Noto Sans JP';-inkscape-font-specification:'Noto Sans JP Medium';fill:#ffffff;stroke-width:0.266556"
           aria-label="永春" />
        <path
           style="font-weight:500;font-size:7.46358px;line-height:1.25;font-family:'Noto Sans KR';-inkscape-font-specification:'Noto Sans KR Medium';fill:#ffffff;stroke-width:0.266556"
           d="m 64.960211,47.259266 h 0.776212 v 1.350908 h -0.776212 z m 2.455518,0 h 0.783675 v 1.350908 h -0.783675 z m -3.925844,-0.343325 h 6.164918 v 0.626941 h -6.164918 z m 3.067532,1.238955 q 1.10461,0 1.724087,0.320934 0.626941,0.31347 0.626941,0.903093 0,0.589623 -0.626941,0.903093 -0.619477,0.320934 -1.724087,0.320934 -1.097146,0 -1.724087,-0.320934 -0.619477,-0.31347 -0.619477,-0.903093 0,-0.589623 0.619477,-0.903093 0.626941,-0.320934 1.724087,-0.320934 z m 0,0.597086 q -0.492596,0 -0.843385,0.07464 -0.350788,0.06717 -0.537378,0.20898 -0.179125,0.134344 -0.179125,0.343325 0,0.20898 0.179125,0.350788 0.18659,0.134344 0.537378,0.20898 0.350789,0.06717 0.843385,0.06717 0.507523,0 0.850848,-0.06717 0.350788,-0.07464 0.529914,-0.20898 0.179126,-0.141808 0.179126,-0.350788 0,-0.208981 -0.179126,-0.343325 -0.179126,-0.141808 -0.529914,-0.20898 -0.343325,-0.07464 -0.850848,-0.07464 z m 0.01493,-4.843864 q 0.746358,0 1.291199,0.156736 0.544842,0.156735 0.835921,0.447814 0.298543,0.283617 0.298543,0.694113 0,0.403034 -0.298543,0.694113 -0.291079,0.283616 -0.835921,0.440352 -0.544841,0.149271 -1.291199,0.149271 -0.746358,0 -1.298663,-0.149271 -0.544841,-0.156736 -0.843385,-0.440352 -0.291079,-0.291079 -0.291079,-0.694113 0,-0.410496 0.291079,-0.694113 0.298544,-0.291079 0.843385,-0.447814 0.552305,-0.156736 1.298663,-0.156736 z m 0,0.60455 q -0.507523,0 -0.873239,0.0821 -0.365715,0.0821 -0.559768,0.238834 -0.194054,0.149272 -0.194054,0.373179 0,0.216444 0.194054,0.373179 0.194053,0.149272 0.559768,0.231371 0.365716,0.0821 0.873239,0.0821 0.507523,0 0.865775,-0.0821 0.365716,-0.0821 0.559769,-0.231371 0.194053,-0.156735 0.194053,-0.373179 0,-0.223907 -0.194053,-0.373179 -0.194053,-0.156735 -0.559769,-0.238834 -0.358252,-0.0821 -0.865775,-0.0821 z m 6.470924,-0.723967 h 0.776213 v 0.977729 h -0.776213 z m -0.03732,1.067292 h 0.68665 v 0.119417 q 0,0.425424 -0.201517,0.776213 -0.201516,0.343324 -0.567232,0.60455 -0.365715,0.253761 -0.873239,0.425424 -0.507523,0.164199 -1.127,0.223907 l -0.246299,-0.60455 q 0.544842,-0.04478 0.977729,-0.171662 0.432888,-0.126881 0.731431,-0.31347 0.298544,-0.194054 0.455279,-0.432888 0.164198,-0.238835 0.164198,-0.507524 z m 0.171663,0 h 0.686649 v 0.119417 q 0,0.268689 0.156735,0.507524 0.164199,0.238834 0.462742,0.432888 0.298544,0.186589 0.731431,0.31347 0.432888,0.126881 0.977729,0.171662 l -0.253762,0.60455 Q 75.327124,46.945796 74.8196,46.781597 74.312077,46.609934 73.946362,46.356173 73.580646,46.094947 73.379129,45.751623 73.177613,45.400834 73.177613,44.97541 Z m -2.20922,-0.373179 h 4.94089 v 0.612014 h -4.94089 z m -0.619477,2.866015 h 6.179844 v 0.626941 h -6.179844 z m 2.761525,0.343325 h 0.783676 v 1.515106 h -0.783676 z m -2.007703,2.142047 h 4.739373 v 0.634404 h -4.739373 z m 0,-1.253881 h 0.783675 v 1.515106 h -0.783675 z"
           id="text5-9-8"
           aria-label="융춘" />
      </g>
      <text
         xml:space="preserve"
         transform="matrix(0.31615295,0,0,0.31615295,-23.186545,-6.4462013)"
         id="text6"
         style="font-size:55px;line-height:1.25;font-family:'Microsoft JhengHei';-inkscape-font-specification:'Microsoft JhengHei';white-space:pre;shape-inside:url(#rect6);display:inline" />
    </g>
  </g>
</svg>
