<?xml version="1.0" encoding="UTF-8" standalone="no"?>
<!-- Created with Inkscape (http://www.inkscape.org/) -->

<svg
   width="500"
   height="250"
   viewBox="0 0 132.29166 66.145833"
   version="1.1"
   id="svg1"
   inkscape:version="1.3.2 (091e20e, 2023-11-25, custom)"
   sodipodi:docname="bl20.svg"
   xmlns:inkscape="http://www.inkscape.org/namespaces/inkscape"
   xmlns:sodipodi="http://sodipodi.sourceforge.net/DTD/sodipodi-0.dtd"
   xmlns="http://www.w3.org/2000/svg"
   xmlns:svg="http://www.w3.org/2000/svg">
  <sodipodi:namedview
     id="namedview1"
     pagecolor="#9e652e"
     bordercolor="#ffffff"
     borderopacity="1"
     inkscape:showpageshadow="0"
     inkscape:pageopacity="0"
     inkscape:pagecheckerboard="false"
     inkscape:deskcolor="#d1d1d1"
     inkscape:document-units="mm"
     inkscape:zoom="2.0208096"
     inkscape:cx="256.33291"
     inkscape:cy="106.88785"
     inkscape:window-width="1920"
     inkscape:window-height="1009"
     inkscape:window-x="1912"
     inkscape:window-y="-8"
     inkscape:window-maximized="1"
     inkscape:current-layer="layer1" />
  <defs
     id="defs1">
    <rect
       x="560.66638"
       y="34.144731"
       width="279.32397"
       height="128.59143"
       id="rect6" />
    <rect
       x="157.85752"
       y="62.351248"
       width="375.73891"
       height="119.77096"
       id="rect4" />
    <rect
       x="157.85751"
       y="62.35125"
       width="329.07602"
       height="135.09438"
       id="rect4-5" />
    <rect
       x="157.85751"
       y="62.35125"
       width="329.07602"
       height="135.09438"
       id="rect4-5-1" />
    <rect
       x="157.85751"
       y="62.35125"
       width="329.07602"
       height="135.09438"
       id="rect4-5-7" />
    <rect
       x="157.85751"
       y="62.35125"
       width="403.72608"
       height="88.907969"
       id="rect4-5-2" />
  </defs>
  <g
     inkscape:label="Layer 1"
     inkscape:groupmode="layer"
     id="layer1">
    <rect
       style="fill:#005fb9;fill-opacity:1;stroke:none;stroke-width:0.953294;stroke-dasharray:none"
       id="rect5"
       width="132.29167"
       height="66.145836"
       x="-2.5431316e-06"
       y="-1.2715658e-06"
       ry="0" />
    <g
       id="g4"
       transform="matrix(0.83005559,0,0,0.83005559,0.51700632,5.6205573)">
      <g
         id="g3"
         transform="matrix(0.98519374,0,0,0.98519374,-4.7406565,0.48968401)">
        <g
           id="g2"
           transform="translate(-0.7595773)">
          <path
             id="rect1"
             style="fill-opacity:0;stroke:#ffffff;stroke-width:0.960404"
             d="m 16.906102,14.003039 h 12.657305 c 4.000431,0 7.220995,3.220564 7.220995,7.220995 v 23.697769 c 0,4.000432 -3.220564,7.220995 -7.220995,7.220995 H 16.906102 c -4.000431,0 -7.2209948,-3.220563 -7.2209948,-7.220995 V 21.224034 c 0,-4.000431 3.2205638,-7.220995 7.2209948,-7.220995 z" />
          <path
             style="font-size:12.7947px;line-height:1.25;font-family:'AR UDJingXiHeiE1G30 EB';-inkscape-font-specification:'AR UDJingXiHeiE1G30 EB';fill:#ffffff;stroke-width:0.266556"
             d="m 19.569068,30.474609 h -4.861986 v -9.250568 h 4.452555 q 1.317854,0 2.085536,0.639735 0.767682,0.639735 0.767682,1.701695 0,0.690914 -0.307073,1.215497 -0.294278,0.511788 -0.895629,0.84445 0.780477,0.307073 1.177113,0.84445 0.40943,0.537378 0.40943,1.27947 0,1.228291 -0.806066,1.983179 -0.806066,0.742092 -2.021562,0.742092 z m 0.754887,-6.704422 q 0,-0.626941 -0.358252,-0.946808 -0.358251,-0.332662 -1.03637,-0.332662 h -2.597324 v 2.610118 h 2.686886 q 0.575762,0 0.934014,-0.332662 0.371046,-0.345457 0.371046,-0.997986 z m 0.383841,3.966356 q 0,-0.665324 -0.409431,-1.010781 Q 19.90173,26.367511 19.2492,26.367511 h -2.917191 v 2.840423 h 2.891602 q 0.678119,0 1.074754,-0.371046 0.409431,-0.371047 0.409431,-1.100345 z m 9.813543,2.738066 h -6.499708 v -9.250568 h 1.624927 v 7.983893 h 4.874781 z"
             id="text2"
             aria-label="BL" />
          <path
             style="font-size:14.6606px;line-height:1.25;font-family:'AR UDJingXiHeiE1G30 EB';-inkscape-font-specification:'AR UDJingXiHeiE1G30 EB';fill:#ffffff;stroke-width:0.266556"
             d="m 15.391321,37.793288 q 0,-1.641987 0.996921,-2.580265 0.996921,-0.952939 2.609587,-0.952939 1.656647,0 2.580265,0.835654 0.938279,0.820994 0.938279,2.287054 0,1.040902 -0.674388,2.096465 -0.659727,1.040903 -2.081805,2.301715 l -1.993842,1.803253 h 4.720713 v 1.4514 H 15.347339 V 43.70151 l 2.961441,-2.668229 q 1.304794,-1.187509 1.817915,-2.023163 0.527781,-0.850315 0.527781,-1.627326 0,-0.73303 -0.425157,-1.187509 -0.425157,-0.454478 -1.23149,-0.454478 -0.806333,0 -1.304794,0.557102 -0.49846,0.557103 -0.49846,1.495381 z m 15.921401,2.023163 q 0,2.770854 -0.894297,4.090308 -0.894296,1.319454 -2.770853,1.319454 -1.817914,0 -2.756193,-1.319454 -0.938278,-1.319454 -0.938278,-4.090308 0,-2.961441 0.894296,-4.251574 0.894297,-1.304793 2.800175,-1.304793 1.861896,0 2.756193,1.304793 0.908957,1.290133 0.908957,4.251574 z m -3.66515,3.958362 q 0.938278,0 1.378096,-0.923618 0.439818,-0.938278 0.439818,-3.034744 0,-2.257732 -0.425157,-3.18135 -0.410497,-0.923618 -1.392757,-0.923618 -0.98226,0 -1.407418,0.938279 -0.425157,0.923617 -0.425157,3.166689 0,2.081805 0.439818,3.020084 0.439818,0.938278 1.392757,0.938278 z"
             id="text3"
             aria-label="20" />
          <path
             style="font-weight:500;font-size:72px;line-height:1.25;font-family:'Noto Sans TC';-inkscape-font-specification:'Noto Sans TC Medium';white-space:pre;fill:#ffffff"
             d="m 197.16942,103.83341 6.12,1.728 q -3.24,6.912 -8.352,13.032 -5.112,6.048 -10.728,10.08 -0.432,-0.72 -1.296,-1.656 -0.864,-0.936 -1.728,-1.872 -0.864,-0.936 -1.512,-1.512 5.4,-3.456 10.008,-8.64 4.68,-5.184 7.488,-11.16 z m 13.032,-8.568004 5.256,-2.664 q 2.016,2.376 4.176,5.256 2.232,2.808004 4.176,5.544004 1.944,2.736 3.096,4.824 l -5.544,3.24 q -1.08,-2.16 -2.952,-4.968 -1.872,-2.808 -4.032,-5.76 -2.16,-2.952004 -4.176,-5.472004 z m -22.896,16.272004 q 3.384,6.264 9,11.16 5.688,4.896 13.248,8.208 7.632,3.24 16.704,4.824 -0.648,0.72 -1.44,1.8 -0.792,1.08 -1.512,2.16 -0.72,1.08 -1.152,1.944 -9.288,-1.944 -16.992,-5.76 -7.704,-3.816 -13.608,-9.432 -5.832,-5.688 -9.792,-13.032 z m 9,0.288 h 20.376 v 5.544 h -25.272 z m 18.144,0 h 1.296 l 1.152,-0.288 4.248,2.088 q -2.52,5.976 -6.624,10.656 -4.032,4.608 -9.288,8.064 -5.256,3.384 -11.304,5.688 -6.048,2.304 -12.528,3.744 -0.288,-0.864 -0.864,-1.944 -0.576,-1.08 -1.224,-2.16 -0.576,-1.008 -1.224,-1.728 5.976,-1.08 11.664,-3.024 5.688,-1.944 10.512,-4.824 4.824,-2.88 8.496,-6.696 3.672,-3.816 5.688,-8.568 z m -38.16,-22.104004 6.048,2.16 q -2.232,4.32 -5.256,8.640004 -3.024,4.32 -6.408,8.136 -3.312,3.744 -6.768,6.696 -0.288,-0.792 -0.936,-1.944 -0.648,-1.152 -1.44,-2.376 -0.792,-1.224 -1.368,-1.872 4.536,-3.6 8.856,-8.784 4.392,-5.184004 7.272,-10.656004 z m -1.512,-15.048 6.048,2.304 q -2.016,3.096 -4.752,6.336 -2.664,3.168 -5.688,6.048 -2.952,2.808 -5.904,5.112 -0.36,-0.72 -1.08,-1.584 -0.648,-0.936 -1.368,-1.872 -0.648,-0.936 -1.224,-1.512 2.592,-1.944 5.256,-4.464 2.664,-2.52 4.896,-5.184 2.304,-2.736 3.816,-5.184 z m -4.968,29.376004 5.688,-5.760004 0.792,0.36 v 43.056004 h -6.48 z m 14.616,-8.784004 q -0.144,-0.792 -0.576,-1.944 -0.36,-1.152 -0.792,-2.376 -0.432,-1.296 -0.792,-2.16 1.08,-0.216 2.232,-0.864 1.152,-0.72 2.52,-1.656 1.008,-0.648 3.096,-2.304 2.088,-1.728 4.608,-4.032 2.52,-2.304 4.608,-4.824 l 6.696,3.024 q -4.032,3.96 -8.64,7.632 -4.608,3.672 -9.072,6.192 v 0.144 q 0,0 -0.576,0.36 -0.576,0.288 -1.368,0.792 -0.792,0.432 -1.368,1.008 -0.576,0.504 -0.576,1.008 z m 0,0 -0.072,-4.464 3.312,-1.8 18.936,-0.432 q -0.72,1.08 -1.512,2.664 -0.72,1.512 -1.152,2.52 -5.832,0.216 -9.432,0.432 -3.6,0.144 -5.616,0.36 -2.016,0.144 -2.952,0.36 -0.936,0.144 -1.512,0.36 z m -1.584,13.320004 q -0.144,-0.648 -0.504,-1.8 -0.36,-1.152 -0.72,-2.376 -0.36,-1.224 -0.792,-2.088 1.656,-0.288 3.528,-1.152 1.944,-0.864 4.536,-2.376004 1.44,-0.72 4.176,-2.376 2.736,-1.728 6.264,-4.104 3.528,-2.376 7.2,-5.184 3.672,-2.88 6.84,-5.832 l 6.264,3.456 q -7.776,6.552 -16.272,11.808 -8.424,5.256004 -16.56,9.000004 v 0.216 q 0,0 -0.576,0.288 -0.576,0.216 -1.44,0.72 -0.792,0.432 -1.368,0.936 -0.576,0.432 -0.576,0.864 z m 0,0 -0.144,-4.608 3.672,-2.016 32.904,-1.728 q 0.072,1.152 0.288,2.736 0.288,1.512 0.504,2.448 -9.36,0.576 -15.696,1.008 -6.336,0.432 -10.296,0.72 -3.96,0.288 -6.192,0.504 -2.16,0.216 -3.312,0.432 -1.08,0.216 -1.728,0.504 z m 79.344,-33.192004 h 7.2 v 56.880004 h -7.2 z m 25.488,14.328 h 7.056 v 51.552004 h -7.056 z m -50.472,0.216 h 6.984 v 39.168004 h 46.944 v 6.912 h -53.928 z m 68.112,2.16 h 21.672 v 6.408 h -21.672 z m 8.136,-16.488 h 6.408 v 47.376004 h -6.408 z m -9.504,47.664004 q 2.88,-1.008 6.624,-2.448 3.816,-1.512 7.992,-3.168 4.176,-1.728 8.352,-3.528 l 1.584,6.264 q -5.688,2.52 -11.448,5.04 -5.76,2.52 -10.584,4.536 z m 48.888,-12.312 h 6.552 v 30.528 h -6.552 z m -25.992,10.944 h 44.424 v 5.976 h -44.424 z m 19.224,-47.304004 7.488,1.296 q -1.296,2.808 -2.664,5.472 -1.368,2.664 -2.52,4.536 l -5.688,-1.368 q 1.008,-2.088 1.944,-4.896 1.008,-2.808 1.44,-5.04 z m -9.36,23.616 v 6.048004 h 25.056 v -6.048004 z m 0,-11.016 v 5.976 h 25.056 v -5.976 z m -6.12,-5.472 h 37.584 v 28.008004 h -37.584 z m 15.336,3.816 h 6.12 v 13.032 q 0,3.024004 -0.648,6.264004 -0.648,3.168 -2.376,6.336 -1.728,3.096 -5.04,5.904 -3.24,2.808 -8.496,5.04 -0.576,-1.008 -1.8,-2.376 -1.152,-1.368 -2.088,-2.16 4.896,-1.728 7.776,-4.032 2.88,-2.304 4.248,-4.896 1.44,-2.592 1.872,-5.184 0.432,-2.592 0.432,-4.968004 z"
             id="text4"
             transform="matrix(0.26655641,0,0,0.26655641,-1.475616,-4.7571419)"
             aria-label="後山埤" />
          <path
             style="font-size:7.46358px;line-height:1.25;font-family:'AR UDJingXiHeiE1G30 EB';-inkscape-font-specification:'AR UDJingXiHeiE1G30 EB';fill:#ffffff;stroke-width:0.266556"
             d="M 42.79018,38.636591 V 41.0324 h -0.947875 v -5.396168 h 0.947875 v 2.261464 h 2.589862 v -2.261464 h 0.947875 V 41.0324 h -0.947875 v -2.395809 z m 9.963881,-0.276153 q 0,1.298663 -0.723968,2.037558 -0.716503,0.731431 -1.962921,0.731431 -1.268809,0 -1.985312,-0.738895 -0.716504,-0.738894 -0.716504,-2.030094 0,-1.31359 0.723967,-2.059948 0.723967,-0.753821 1.977849,-0.753821 1.268808,0 1.977849,0.746358 0.70904,0.746358 0.70904,2.067411 z m -2.686889,2.030094 q 0.81353,0 1.253881,-0.537378 0.447815,-0.537377 0.447815,-1.492716 0,-0.947874 -0.447815,-1.507643 -0.447815,-0.567232 -1.253881,-0.567232 -0.820994,0 -1.276272,0.574696 -0.447815,0.567232 -0.447815,1.500179 0,0.955339 0.455278,1.492716 0.455279,0.537378 1.268809,0.537378 z m 8.239793,-1.246418 q 0,0.940411 -0.589623,1.462862 -0.589623,0.522451 -1.679305,0.522451 -1.10461,0 -1.701697,-0.514987 -0.589622,-0.514988 -0.589622,-1.462862 v -3.515346 h 0.947874 v 3.470564 q 0,0.612014 0.335861,0.947875 0.335862,0.335861 1.007584,0.335861 0.634404,0 0.970265,-0.320934 0.343325,-0.328397 0.343325,-0.977729 v -3.455637 h 0.955338 z m 2.992897,-0.552305 q -0.985192,-0.179126 -1.462861,-0.552305 -0.47767,-0.373179 -0.47767,-1.044901 0,-0.626941 0.507524,-1.037437 0.514987,-0.410497 1.582279,-0.410497 0.977729,0 1.515107,0.41796 0.537377,0.417961 0.589622,1.2091 h -0.947874 q -0.0075,-0.380643 -0.298543,-0.634404 -0.29108,-0.253762 -0.888167,-0.253762 -0.559768,0 -0.828457,0.18659 -0.268689,0.186589 -0.261225,0.52245 0,0.365716 0.358252,0.544842 0.365715,0.179125 1.186709,0.343324 1.029974,0.20898 1.462862,0.567232 0.440351,0.358252 0.440351,1.074756 0,0.686649 -0.582159,1.149391 -0.58216,0.455279 -1.656915,0.455279 -1.097147,0 -1.70916,-0.462742 -0.612014,-0.462742 -0.612014,-1.335981 h 0.947875 q 0,0.485132 0.365715,0.776212 0.365716,0.283616 1.015047,0.283616 0.597087,0 0.932948,-0.231371 0.335861,-0.231371 0.335861,-0.60455 0,-0.432888 -0.335861,-0.619477 -0.335861,-0.18659 -1.179246,-0.343325 z m 4.313949,0.04478 V 41.0324 h -0.947875 v -5.396168 h 0.947875 v 2.261464 h 2.589862 v -2.261464 h 0.947875 V 41.0324 h -0.947875 v -2.395809 z m 7.650171,0.216444 -0.850848,-2.306247 -0.865775,2.306247 z m -1.992776,0.738894 -0.537378,1.440471 h -0.962801 l 2.171901,-5.396168 h 0.970266 l 2.156975,5.396168 h -0.985193 l -0.544841,-1.440471 z m 5.36631,-2.455518 V 41.0324 h -0.947875 v -5.396168 h 0.977729 l 2.649571,3.985551 v -3.985551 h 0.947874 V 41.0324 h -1.037437 z m 5.814125,1.753942 V 41.0324 h -0.947875 v -5.396168 h 2.537617 q 0.79114,0 1.238954,0.432887 0.447815,0.432888 0.447815,1.149392 0,0.806066 -0.462742,1.238954 -0.455278,0.432888 -1.23149,0.432888 z m 2.313709,-1.656915 q 0,-0.417961 -0.238834,-0.634405 -0.238835,-0.223907 -0.701577,-0.223907 h -1.373298 v 1.776332 h 1.373298 q 0.462742,0 0.701577,-0.223907 0.238834,-0.231371 0.238834,-0.694113 z m 2.821232,-1.597206 V 41.0324 h -0.947875 v -5.396168 z"
             id="text5"
             aria-label="HOUSHANPI" />
          <path
             d="m 45.233206,46.670709 0.641868,0.194053 q -0.246298,0.440351 -0.597086,0.843385 -0.343325,0.395569 -0.738894,0.73143 -0.39557,0.335862 -0.806067,0.589623 -0.04478,-0.07464 -0.134345,-0.171662 -0.0821,-0.09703 -0.171662,-0.194053 -0.08956,-0.10449 -0.164199,-0.164199 0.597087,-0.31347 1.127001,-0.791139 0.537378,-0.47767 0.843384,-1.037438 z m 0.06717,-3.082459 0.619477,0.320934 q -0.283616,0.343325 -0.612014,0.694113 -0.320934,0.350788 -0.597086,0.60455 L 44.21816,44.924231 q 0.186589,-0.179126 0.380642,-0.410497 0.201517,-0.231371 0.388106,-0.470205 0.18659,-0.246298 0.313471,-0.455279 z m 1.425543,0.567232 0.634405,0.343325 q -0.388106,0.410497 -0.843385,0.850848 -0.455278,0.432888 -0.91802,0.835921 -0.462742,0.403034 -0.880703,0.70904 l -0.470205,-0.31347 q 0.306007,-0.231371 0.641868,-0.529914 0.335861,-0.298543 0.671722,-0.619477 0.335861,-0.328398 0.634404,-0.656795 0.298544,-0.328398 0.529914,-0.619478 z m -3.164557,0.723968 0.425424,-0.455279 q 0.283616,0.179126 0.589622,0.403034 0.306007,0.216443 0.567233,0.440351 0.268688,0.223907 0.432887,0.410497 L 45.121253,46.19304 Q 44.971981,45.998987 44.710756,45.767616 44.449531,45.528781 44.150987,45.29741 43.852444,45.066039 43.561365,44.87945 Z m 3.074995,0.858311 0.544841,-0.298543 q 0.238834,0.246298 0.470205,0.537378 0.231371,0.29108 0.425424,0.574696 0.201517,0.283616 0.306007,0.52245 l -0.589623,0.335861 q -0.09703,-0.223907 -0.283616,-0.514987 -0.186589,-0.298543 -0.41796,-0.597086 -0.223907,-0.306007 -0.455278,-0.559769 z m -3.283976,0.649332 q 0.544842,-0.0075 1.253882,-0.01493 0.70904,-0.0075 1.515107,-0.02239 0.806066,-0.02239 1.604669,-0.04478 l -0.02985,0.574696 q -0.768749,0.02985 -1.544961,0.05971 -0.768749,0.02239 -1.477789,0.04478 -0.701577,0.02239 -1.261345,0.03732 z m 1.50018,1.470325 q 0.31347,0.522451 0.835921,0.947875 0.52245,0.41796 1.2091,0.70904 0.694113,0.283616 1.492716,0.425424 -0.07464,0.07464 -0.156735,0.179126 -0.0821,0.111954 -0.156736,0.223907 -0.06717,0.111954 -0.119417,0.201517 -0.820994,-0.179126 -1.52257,-0.522451 -0.701577,-0.343324 -1.246418,-0.835921 -0.544841,-0.500059 -0.910557,-1.141927 z m 0.171662,-0.373179 h 2.134584 v 0.537378 h -2.604789 z m 1.910677,0 h 0.126881 l 0.119417,-0.02985 0.447815,0.20898 q -0.253762,0.612014 -0.671723,1.089683 -0.410496,0.470205 -0.947874,0.820994 -0.529914,0.350788 -1.149392,0.589622 -0.612013,0.246299 -1.261345,0.39557 -0.05224,-0.134344 -0.156735,-0.31347 -0.09703,-0.179126 -0.186589,-0.29108 0.60455,-0.111954 1.171782,-0.31347 0.567232,-0.201517 1.059828,-0.50006 0.50006,-0.298543 0.865775,-0.686649 0.373179,-0.388107 0.58216,-0.873239 z m -3.933307,-2.321173 0.626941,0.231371 q -0.253762,0.447815 -0.58216,0.895629 -0.328397,0.440352 -0.701576,0.835921 -0.365715,0.388106 -0.731431,0.694113 -0.02985,-0.0821 -0.10449,-0.201516 -0.06717,-0.119418 -0.141808,-0.246299 -0.07464,-0.12688 -0.134344,-0.194053 0.328397,-0.253761 0.656795,-0.574695 0.328397,-0.320934 0.612013,-0.68665 0.29108,-0.373179 0.50006,-0.753821 z m -0.156735,-1.559889 0.626941,0.246299 q -0.223908,0.320934 -0.522451,0.649331 -0.298543,0.328398 -0.619477,0.626941 -0.320934,0.298543 -0.641868,0.529914 -0.04478,-0.07464 -0.111954,-0.164199 -0.06717,-0.09703 -0.141808,-0.194053 -0.06717,-0.09703 -0.126881,-0.156735 0.283616,-0.201517 0.574696,-0.455278 0.29108,-0.261226 0.544841,-0.544842 0.253762,-0.283616 0.417961,-0.537378 z m -0.50006,3.045141 0.589623,-0.589623 0.07464,0.02985 v 4.463221 h -0.664259 z m 9.538455,-2.866015 h 0.746358 v 5.799202 H 51.883256 Z M 49.300858,45.4019 h 0.716503 v 5.037917 h -0.716503 z m 5.269287,-0.01493 h 0.731431 v 5.030453 h -0.731431 z m -4.918499,3.769108 h 5.239433 v 0.723967 h -5.239433 z m 6.724686,-3.746717 h 2.246537 v 0.664259 h -2.246537 z m 0.843384,-1.70916 h 0.664259 v 4.911036 h -0.664259 z m -0.985192,4.94089 q 0.298543,-0.10449 0.686649,-0.253762 0.39557,-0.156735 0.828457,-0.328397 0.432888,-0.179126 0.865776,-0.365716 l 0.164198,0.649332 q -0.589622,0.261225 -1.186709,0.52245 -0.597086,0.261226 -1.097146,0.470206 z m 5.06777,-1.276272 h 0.679186 v 3.164558 h -0.679186 z m -2.694352,1.134464 h 4.605029 v 0.619477 h -4.605029 z m 1.992776,-4.903572 0.776212,0.134344 q -0.134344,0.29108 -0.276152,0.567232 -0.141808,0.276153 -0.261225,0.470206 L 60.24993,44.625688 q 0.10449,-0.216444 0.201516,-0.507523 0.10449,-0.29108 0.149272,-0.522451 z m -0.970265,2.448054 v 0.626941 h 2.597325 v -0.626941 z m 0,-1.141928 v 0.619478 h 2.597325 V 44.90184 Z m -0.634405,-0.567232 h 3.895989 v 2.903333 h -3.895989 z m 1.589743,0.39557 h 0.634404 v 1.350908 q 0,0.31347 -0.06717,0.649332 -0.06717,0.328397 -0.246298,0.656795 -0.179126,0.320934 -0.522451,0.612013 -0.335861,0.29108 -0.880702,0.522451 -0.05971,-0.10449 -0.18659,-0.246298 -0.119417,-0.141808 -0.216444,-0.223908 0.507524,-0.179126 0.806067,-0.41796 0.298543,-0.238835 0.440351,-0.507524 0.149272,-0.268689 0.194053,-0.537377 0.04478,-0.268689 0.04478,-0.514987 z"
             id="text5-9"
             style="font-weight:500;font-size:7.46358px;line-height:1.25;font-family:'Noto Sans JP';-inkscape-font-specification:'Noto Sans JP Medium';fill:#ffffff;stroke-width:0.266556"
             aria-label="後山埤" />
          <path
             style="font-weight:500;font-size:7.46358px;line-height:1.25;font-family:'Noto Sans KR';-inkscape-font-specification:'Noto Sans KR Medium';fill:#ffffff;stroke-width:0.266556"
             d="m 71.546648,44.841066 h 4.000479 v 0.634404 h -4.000479 z m 2.007703,1.112073 q 0.462742,0 0.828458,0.208981 0.365715,0.201516 0.574695,0.559768 0.20898,0.358252 0.20898,0.828458 0,0.462742 -0.216443,0.820993 -0.208981,0.358252 -0.574696,0.567232 -0.358252,0.201517 -0.820994,0.201517 -0.462742,0 -0.828457,-0.201517 -0.365716,-0.20898 -0.58216,-0.567232 -0.20898,-0.358251 -0.20898,-0.820993 0,-0.470206 0.20898,-0.828458 0.216444,-0.358252 0.58216,-0.559768 0.365715,-0.208981 0.828457,-0.208981 z m 0,0.656795 q -0.253762,0 -0.455278,0.119418 -0.201517,0.111953 -0.320934,0.328397 -0.119418,0.208981 -0.119418,0.492597 0,0.276152 0.119418,0.492596 0.119417,0.20898 0.320934,0.328397 0.201516,0.111954 0.455278,0.111954 0.253762,0 0.455278,-0.111954 0.201517,-0.119417 0.313471,-0.328397 0.119417,-0.216444 0.119417,-0.492596 0,-0.283616 -0.119417,-0.492597 -0.111954,-0.216444 -0.313471,-0.328397 -0.201516,-0.119418 -0.455278,-0.119418 z m -0.39557,-2.73167 h 0.783676 v 1.276272 h -0.783676 z m 3.269048,-0.08956 h 0.783676 v 6.821712 h -0.783676 z m -1.015046,2.776452 h 1.619596 v 0.641868 h -1.619596 z m 3.000359,1.082219 h 6.179845 v 0.641868 h -6.179845 z m 2.679425,0.410497 h 0.776213 v 2.552544 h -0.776213 z m 0.39557,-4.015406 q 0.716504,0 1.261345,0.186589 0.544842,0.18659 0.850848,0.522451 0.306007,0.335861 0.306007,0.798603 0,0.462742 -0.306007,0.806067 -0.306006,0.335861 -0.850848,0.52245 -0.544841,0.18659 -1.261345,0.18659 -0.716503,0 -1.268808,-0.18659 -0.544842,-0.186589 -0.850849,-0.52245 -0.306006,-0.343325 -0.306006,-0.806067 0,-0.462742 0.306006,-0.798603 0.306007,-0.335861 0.850849,-0.522451 0.552305,-0.186589 1.268808,-0.186589 z m -0.0075,0.619477 q -0.485133,0 -0.850848,0.111954 -0.358252,0.10449 -0.559769,0.306007 -0.201517,0.194053 -0.201517,0.470205 0,0.276153 0.201517,0.477669 0.201517,0.201517 0.559769,0.306007 0.365715,0.10449 0.850848,0.10449 0.492596,0 0.850848,-0.10449 0.365715,-0.10449 0.567232,-0.306007 0.201517,-0.201516 0.201517,-0.477669 0,-0.276152 -0.201517,-0.470205 Q 82.697237,44.878384 82.331522,44.773894 81.97327,44.66194 81.480674,44.66194 Z m 5.411096,-0.462742 h 0.641868 v 0.79114 q 0,0.671722 -0.223908,1.253881 -0.216444,0.574696 -0.641868,1.00012 -0.425424,0.425424 -1.029974,0.649331 l -0.425424,-0.612013 q 0.552305,-0.18659 0.925484,-0.529914 0.373179,-0.350789 0.559769,-0.806067 0.194053,-0.455279 0.194053,-0.955338 z m 0.149271,0 h 0.634405 v 0.81353 q 0,0.335861 0.10449,0.656795 0.111953,0.320934 0.31347,0.60455 0.20898,0.283616 0.507524,0.50006 0.306006,0.216444 0.701576,0.350789 l -0.39557,0.619477 q -0.597086,-0.216444 -1.015047,-0.619477 -0.41796,-0.403034 -0.634404,-0.947875 -0.216444,-0.552305 -0.216444,-1.164319 z m 2.783916,-0.41796 h 0.776212 v 5.015525 h -0.776212 z m 0.544841,2.045021 h 1.194173 v 0.649331 h -1.194173 z m -4.067651,4.007942 h 4.575175 v 0.634404 h -4.575175 z m 0,-1.515107 h 0.783676 v 1.843505 h -0.783676 z m 10.695312,-4.530393 h 0.783676 v 6.821712 h -0.783676 z m -4.687129,0.68665 h 3.851208 v 0.62694 H 92.31033 Z m -0.09703,4.500538 -0.0821,-0.649331 q 0.626941,0 1.358372,-0.0075 0.738894,-0.01493 1.50018,-0.05224 0.768748,-0.04478 1.477788,-0.126881 l 0.05224,0.567232 q -0.723967,0.119418 -1.485252,0.179126 -0.761285,0.05225 -1.477789,0.06717 -0.716504,0.01493 -1.343444,0.02239 z M 92.99698,44.95302 h 0.753821 v 3.5452 H 92.99698 Z m 1.724087,0 h 0.753821 v 3.5452 h -0.753821 z"
             id="text5-9-8"
             aria-label="허우산피" />
        </g>
        <text
           xml:space="preserve"
           transform="matrix(0.31615295,0,0,0.31615295,-23.186545,-6.4462013)"
           id="text6"
           style="font-size:55px;line-height:1.25;font-family:'Microsoft JhengHei';-inkscape-font-specification:'Microsoft JhengHei';white-space:pre;shape-inside:url(#rect6);display:inline" />
      </g>
      <path
         style="font-weight:500;font-size:72px;line-height:1.25;font-family:'Noto Sans TC';-inkscape-font-specification:'Noto Sans TC Medium';white-space:pre;fill:#f9f9f9"
         d="m 166.20942,81.513406 h 55.008 v 6.696 h -55.008 z m -4.392,49.536004 h 64.296 v 6.768 h -64.296 z m 25.056,-47.160004 h 7.56 q -0.864,6.264 -1.944,13.248 -1.08,6.984004 -2.232,13.896004 -1.152,6.912 -2.304,13.104 -1.152,6.192 -2.16,11.016 l -7.56,-0.072 q 1.152,-4.896 2.304,-11.16 1.224,-6.336 2.376,-13.248 1.224,-6.912 2.232,-13.824004 1.008,-6.912 1.728,-12.96 z m -16.704,18.504004 h 39.312 v 6.696 h -39.312 z m 36.792,0 h 0.72 l 1.224,-0.288 5.4,0.432 q -0.216,3.672 -0.576,7.848 -0.288,4.104 -0.72,8.496 -0.432,4.392 -0.936,8.712 -0.432,4.32 -0.864,8.136 l -7.128,-0.504 q 0.432,-3.888 0.864,-8.28 0.504,-4.392 0.864,-8.784 0.432,-4.464 0.72,-8.28 0.288,-3.888 0.432,-6.624 z m 36.648,-0.864 h 40.176 v 6.624 h -40.176 z m 37.944,0 h 7.128 q 0,0 -0.072,0.648 0,0.576 0,1.296 0,0.72 -0.072,1.152 -0.36,8.28 -0.792,14.184 -0.36,5.904 -0.864,9.792 -0.432,3.888 -1.152,6.192 -0.648,2.232 -1.584,3.24 -1.224,1.584 -2.664,2.16 -1.368,0.648 -3.384,0.792 -1.8,0.216 -4.896,0.216 -3.024,0 -6.336,-0.144 -0.072,-1.584 -0.72,-3.528 -0.576,-1.872 -1.512,-3.384 3.312,0.288 6.12,0.432 2.88,0.072 4.176,0.072 1.08,0 1.728,-0.216 0.72,-0.216 1.296,-0.792 0.936,-0.936 1.584,-4.176 0.648,-3.312 1.08,-9.792 0.504,-6.48 0.936,-16.848 z m -23.832,1.944 h 7.416 q -0.576,5.976 -1.8,11.664 -1.224,5.616 -3.888,10.656 -2.664,5.04 -7.488,9.144 -4.752,4.104 -12.528,6.984 -0.432,-0.936 -1.152,-2.088 -0.72,-1.152 -1.584,-2.232 -0.864,-1.08 -1.728,-1.8 7.2,-2.376 11.448,-5.832 4.32,-3.456 6.552,-7.704 2.304,-4.32 3.24,-9.072 1.008,-4.752 1.512,-9.72 z m -7.488,-26.424004 7.128,1.728 q -2.016,6.192 -5.112,11.808 -3.024,5.544 -6.768,10.224004 -3.672,4.608 -7.848,7.992 -0.576,-0.72 -1.656,-1.656 -1.08,-0.936 -2.232,-1.872 -1.08,-1.008 -1.872,-1.512 6.336,-4.464004 11.016,-11.376004 4.752,-6.984 7.344,-15.336 z m 11.952,-1.224 h 16.056 v 6.408 h -16.056 z m 9.576,0 h 7.632 q 1.728,5.472 4.752,10.584 3.024,5.112 7.056,9.288 4.104,4.104 8.928,6.696004 -0.72,0.72 -1.656,1.872 -0.936,1.08 -1.8,2.232 -0.864,1.152 -1.44,2.16 -5.04,-3.24 -9.288,-7.848 -4.176,-4.608004 -7.416,-10.080004 -3.168,-5.544 -5.184,-11.232 h -1.584 z m 55.368,8.856 h 44.28 v 6.264 h -44.28 z m 3.168,12.384 h 34.2 v 5.832004 h -27.72 v 38.52 h -6.48 z m 31.896,0 h 6.552 v 37.080004 q 0,2.376 -0.504,3.816 -0.504,1.44 -2.016,2.232 -1.44,0.792 -3.672,1.008 -2.16,0.216 -5.328,0.144 -0.144,-1.296 -0.72,-3.168 -0.504,-1.8 -1.224,-3.096 2.016,0.072 3.672,0.072 1.656,0 2.16,0 1.08,0 1.08,-1.152 z m -16.344,-22.392 h 6.624 v 66.456004 h -6.624 z m -11.664,34.272004 h 30.6 v 5.544 h -30.6 z m 0,11.808 h 30.6 v 5.76 h -30.6 z m 21.24,-42.696004 3.96,-3.744 q 1.584,0.936 3.384,2.16 1.872,1.224 3.6,2.448 1.728,1.152 2.808,2.088 l -4.104,4.176 q -1.08,-0.936 -2.736,-2.16 -1.656,-1.296 -3.528,-2.592 -1.8,-1.296 -3.384,-2.376 z m -50.04,14.04 h 21.456 v 6.408 h -21.456 z m 7.92,-16.56 h 6.408 v 47.088004 h -6.408 z m -9.36,47.736004 q 2.952,-1.152 6.768,-2.664 3.816,-1.584 8.136,-3.456 4.32,-1.872 8.568,-3.744 l 1.512,6.264 q -5.76,2.736 -11.808,5.544 -6.048,2.736 -10.872,4.968 z m 77.904,-25.704004 h 53.424 v 5.544004 h -46.872 v 38.232 h -6.552 z m 49.968,0 h 6.336 v 37.080004 q 0,2.376 -0.72,3.6 -0.72,1.296 -2.448,1.944 -1.8,0.648 -4.752,0.792 -2.88,0.144 -7.416,0.144 -0.144,-1.224 -0.72,-2.664 -0.576,-1.44 -1.224,-2.52 2.088,0.072 3.96,0.072 1.944,0.072 3.384,0 1.44,0 2.016,0 0.864,0 1.224,-0.36 0.36,-0.288 0.36,-1.08 z m -32.112,17.856004 h 23.616 v 16.992 h -23.616 v -4.824 h 18 v -7.272 h -18 z m -3.6,0 h 5.76 v 20.16 h -5.76 z m -18.072,-33.408004 h 63.792 v 5.832 h -63.792 z m 15.264,7.488 5.832,-1.944 q 1.152,1.872 2.376,4.176 1.296,2.304 2.016,3.816 l -6.12,2.376 q -0.648,-1.656 -1.872,-4.032 -1.152,-2.448 -2.232,-4.392 z m 27,-1.512 6.912,1.44 q -1.728,2.88 -3.6,5.832 -1.872,2.952 -3.384,4.968004 l -5.328,-1.512004 q 1.008,-1.512 2.016,-3.384 1.008,-1.872 1.872,-3.816 0.936,-1.944 1.512,-3.528 z m -15.048,-12.168 6.408,-1.584 q 0.936,2.16 1.872,4.752 0.936,2.592 1.44,4.464 l -6.696,1.872 q -0.432,-1.872 -1.368,-4.536 -0.864,-2.736 -1.656,-4.968 z m -5.184,24.624004 h 5.976 q -0.288,4.392 -1.656,7.488 -1.296,3.096 -4.392,5.112 -3.024,2.016 -8.568,3.24 -0.36,-1.008 -1.368,-2.376 -0.936,-1.44 -1.8,-2.232 4.68,-0.864 7.128,-2.232 2.448,-1.368 3.456,-3.528 1.008,-2.232 1.224,-5.472 z m 12.528,0.144 h 6.12 v 5.976 q 0,1.152 0.216,1.656 0.216,0.504 1.152,0.504 0.36,0 1.008,0 0.72,0 1.512,0 0.864,0 1.584,0 0.72,0 1.08,0 0.792,0 2.088,-0.072 1.296,-0.144 2.016,-0.288 0.072,1.152 0.144,2.376 0.072,1.152 0.288,2.304 -0.72,0.216 -1.944,0.36 -1.224,0.072 -2.448,0.072 -0.504,0 -1.44,0 -0.936,0 -2.016,0 -1.08,0 -2.016,0 -0.864,0 -1.296,0 -2.52,0 -3.816,-0.792 -1.296,-0.792 -1.8,-2.304 -0.432,-1.584 -0.432,-3.888 z m 59.544,10.08 h 16.344 v 4.032 h -16.344 z m -2.52,0 h 5.472 v 13.464 q 0,1.44 0.72,1.872 0.72,0.36 3.168,0.36 0.576,0 2.16,0 1.584,0 3.456,0 1.944,0 3.6,0 1.656,0 2.448,0 1.224,0 1.872,-0.36 0.648,-0.36 0.936,-1.512 0.288,-1.224 0.432,-3.528 0.864,0.576 2.16,1.08 1.368,0.432 2.448,0.72 -0.216,3.168 -1.008,4.896 -0.72,1.728 -2.232,2.376 -1.44,0.648 -4.032,0.648 -0.432,0 -1.728,0 -1.296,0 -3.024,0 -1.656,0 -3.312,0 -1.656,0 -2.952,0 -1.224,0 -1.656,0 -3.456,0 -5.4,-0.504 -1.944,-0.504 -2.736,-1.944 -0.792,-1.44 -0.792,-4.032 z m 17.064,0 h 4.752 q 0,0 0,0.648 0,0.576 -0.072,1.08 -0.144,3.96 -0.504,5.976 -0.288,2.016 -1.008,2.88 -1.152,1.224 -3.456,1.368 -0.792,0 -2.448,0 -1.584,0 -3.24,-0.072 -0.072,-0.864 -0.36,-1.944 -0.288,-1.08 -0.792,-1.8 1.656,0.144 2.952,0.216 1.296,0 1.8,0 1.08,0 1.512,-0.504 0.36,-0.432 0.504,-2.016 0.216,-1.584 0.36,-5.256 z m 5.904,-24.840004 5.256,1.368 q -1.224,2.448 -2.52,4.752 -1.296,2.304 -2.448,4.104 l -4.248,-1.296 q 1.008,-1.872 2.16,-4.392 1.152,-2.592 1.8,-4.536 z m -27,1.728 4.248,-1.656 q 1.224,1.368 2.304,3.168 1.08,1.728 1.44,3.096 l -4.464,1.8 q -0.288,-1.44 -1.368,-3.24 -1.008,-1.8 -2.16,-3.168 z m -14.112,-10.224 h 60.984 v 64.080004 h -6.624 V 83.241406 h -48.024 v 58.176004 h -6.336 z m 4.032,55.728004 h 53.712 v 5.688 h -53.712 z m 4.968,-31.104 h 42.912 v 4.392 h -42.912 z m 2.952,-8.064004 h 37.584 v 4.176 h -37.584 z m 16.056,-9.288 5.616,0.648 q -2.448,12.168 -8.136,20.232004 -5.616,8.064 -14.976,12.96 -0.288,-0.576 -0.936,-1.44 -0.648,-0.864 -1.368,-1.728 -0.72,-0.864 -1.296,-1.368 8.784,-4.032 13.968,-11.304 5.184,-7.272004 7.128,-18.000004 z m 5.904,21.240004 3.6,-2.808 q 2.592,1.584 5.328,3.672 2.736,2.088 5.112,4.176 2.448,2.016 3.96,3.672 l -3.888,3.312 q -1.44,-1.728 -3.816,-3.816 -2.304,-2.16 -5.04,-4.32 -2.736,-2.16 -5.256,-3.888 z"
         id="text4-0"
         transform="matrix(0.12803532,0,0,0.12803532,78.223861,6.3452233)"
         aria-label="五分埔商圈" />
      <path
         style="font-size:3.52072px;line-height:1.25;font-family:'AR UDJingXiHeiE1G30 EB';-inkscape-font-specification:'AR UDJingXiHeiE1G30 EB';fill:#ffffff;stroke-width:0.12574"
         d="m 100.46272,26.345475 -0.514023,1.954 h -0.461214 l -0.654854,-2.545481 h 0.475297 l 0.426007,1.929355 0.496417,-1.929355 h 0.47178 l 0.48938,1.929355 0.45065,-1.929355 h 0.46122 l -0.67246,2.545481 h -0.46121 z m 4.08052,1.063258 q 0,0.443611 -0.27814,0.690061 -0.27814,0.24645 -0.79216,0.24645 -0.52107,0 -0.80273,-0.242929 -0.27813,-0.24293 -0.27813,-0.690061 v -1.65826 h 0.44713 v 1.637135 q 0,0.288699 0.15843,0.447132 0.15843,0.158432 0.4753,0.158432 0.29926,0 0.45769,-0.151391 0.16195,-0.154912 0.16195,-0.461214 v -1.630094 h 0.45066 z m 1.01396,-0.239409 v 1.130151 h -0.44713 v -2.545481 h 1.78501 v 0.348552 h -1.33788 v 0.718227 h 1.17592 v 0.348551 z m 3.59466,1.130151 h -1.88358 v -2.545481 h 1.87302 v 0.348552 h -1.42589 v 0.718227 h 1.33083 v 0.348551 h -1.33083 v 0.7816 h 1.43645 z m 0.91891,-1.837816 v 1.837816 h -0.44713 v -2.545481 h 0.46121 l 1.24986,1.880065 v -1.880065 h 0.44713 v 2.545481 h -0.48938 z m 2.74264,0.827369 v 1.010447 h -0.44713 v -2.545481 h 1.19704 q 0.3732,0 0.58444,0.204202 0.21125,0.204202 0.21125,0.542191 0,0.380238 -0.21829,0.58444 -0.21476,0.204201 -0.58092,0.204201 z m 1.09142,-0.7816 q 0,-0.19716 -0.11266,-0.299261 -0.11266,-0.105621 -0.33095,-0.105621 h -0.64781 v 0.837931 h 0.64781 q 0.21829,0 0.33095,-0.105622 0.11266,-0.109142 0.11266,-0.327427 z m 3.01726,0.901305 q 0,0.443611 -0.27814,0.690061 -0.27813,0.24645 -0.79216,0.24645 -0.52107,0 -0.80272,-0.242929 -0.27814,-0.24293 -0.27814,-0.690061 v -1.65826 h 0.44713 v 1.637135 q 0,0.288699 0.15843,0.447132 0.15844,0.158432 0.4753,0.158432 0.29926,0 0.45769,-0.151391 0.16196,-0.154912 0.16196,-0.461214 v -1.630094 h 0.45065 z m 3.29891,0.0035 h 0.44713 q -0.0176,0.418965 -0.29222,0.675978 -0.27461,0.257012 -0.79568,0.257012 -0.61612,0 -0.94355,-0.348551 -0.32391,-0.348551 -0.32391,-0.968198 0,-0.612605 0.32391,-0.964677 0.32743,-0.352072 0.93651,-0.352072 0.48938,0 0.76048,0.225326 0.27109,0.221805 0.30982,0.577398 h -0.44713 q -0.0282,-0.204202 -0.1866,-0.327427 -0.15843,-0.126746 -0.44713,-0.126746 -0.35559,0 -0.57036,0.239409 -0.21476,0.239409 -0.21476,0.728789 0,0.496422 0.21476,0.73231 0.21829,0.235888 0.5774,0.235888 0.3063,0 0.47178,-0.158432 0.16547,-0.161953 0.17955,-0.426007 z m 3.3306,-0.373197 q 0,0.612605 -0.34151,0.961157 -0.33799,0.34503 -0.92595,0.34503 -0.59852,0 -0.93651,-0.348551 -0.33799,-0.348551 -0.33799,-0.957636 0,-0.619647 0.34151,-0.971719 0.34151,-0.355592 0.93299,-0.355592 0.59852,0 0.93299,0.352072 0.33447,0.352072 0.33447,0.975239 z m -1.26746,0.957636 q 0.38376,0 0.59148,-0.253492 0.21125,-0.253492 0.21125,-0.704144 0,-0.447131 -0.21125,-0.711185 -0.21124,-0.267575 -0.59148,-0.267575 -0.38728,0 -0.60204,0.271095 -0.21124,0.267575 -0.21124,0.707665 0,0.450652 0.21476,0.704144 0.21476,0.253492 0.59852,0.253492 z m 2.18637,-1.531513 v 1.834295 h -0.43305 v -2.545481 h 0.56684 l 0.73231,1.975124 0.70414,-1.975124 h 0.58092 v 2.545481 h -0.43657 v -1.848378 l -0.6619,1.848378 h -0.37671 z m 3.16865,0 v 1.834295 h -0.43305 v -2.545481 h 0.56683 l 0.73231,1.975124 0.70415,-1.975124 h 0.58092 v 2.545481 h -0.43657 v -1.848378 l -0.6619,1.848378 h -0.37671 z m 4.61918,1.834295 h -1.88359 v -2.545481 h 1.87303 v 0.348552 h -1.42589 v 0.718227 h 1.33083 v 0.348551 h -1.33083 v 0.7816 h 1.43645 z m 2.06666,-1.816692 q 0,-0.186598 -0.0986,-0.281657 -0.0986,-0.09858 -0.28518,-0.09858 h -0.76399 v 0.792162 h 0.73935 q 0.18308,0 0.29574,-0.109143 0.11266,-0.109142 0.11266,-0.302782 z m -1.14775,0.756955 v 1.059737 h -0.44713 v -2.545481 h 1.29562 q 0.34855,0 0.55275,0.186599 0.20773,0.183077 0.20773,0.521066 0,0.221805 -0.10562,0.380238 -0.10211,0.158432 -0.25702,0.225326 0.19716,0.112663 0.30278,0.3908 0.10563,0.278137 0.13379,0.841452 h -0.46473 q -0.0211,-0.591481 -0.13027,-0.823849 -0.10562,-0.235888 -0.34151,-0.235888 z m 3.93617,0.172516 h 0.44713 q -0.0176,0.418965 -0.29222,0.675978 -0.27462,0.257012 -0.79568,0.257012 -0.61613,0 -0.94356,-0.348551 -0.3239,-0.348551 -0.3239,-0.968198 0,-0.612605 0.3239,-0.964677 0.32743,-0.352072 0.93651,-0.352072 0.48938,0 0.76048,0.225326 0.2711,0.221805 0.30982,0.577398 h -0.44713 q -0.0282,-0.204202 -0.1866,-0.327427 -0.15843,-0.126746 -0.44713,-0.126746 -0.35559,0 -0.57035,0.239409 -0.21477,0.239409 -0.21477,0.728789 0,0.496422 0.21477,0.73231 0.21828,0.235888 0.57739,0.235888 0.30631,0 0.47178,-0.158432 0.16547,-0.161953 0.17956,-0.426007 z m 1.33083,-1.65826 v 2.545481 h -0.44714 v -2.545481 z m 1.93991,1.517431 -0.40136,-1.087903 -0.4084,1.087903 z m -0.94003,0.348551 -0.25349,0.679499 h -0.45417 l 1.02452,-2.545481 h 0.4577 l 1.01749,2.545481 h -0.46474 l -0.25701,-0.679499 z m 3.87279,0.679499 h -1.78853 v -2.545481 h 0.44713 v 2.19693 h 1.3414 z m 1.23577,-2.545481 h 1.99273 v 0.320386 l -1.53504,1.876544 h 1.57025 v 0.348551 h -2.14412 v -0.320386 l 1.53503,-1.876543 h -1.41885 z m 4.88676,1.285063 q 0,0.612605 -0.34151,0.961157 -0.33799,0.34503 -0.92595,0.34503 -0.59852,0 -0.93651,-0.348551 -0.33799,-0.348551 -0.33799,-0.957636 0,-0.619647 0.34151,-0.971719 0.34151,-0.355592 0.93299,-0.355592 0.59852,0 0.93299,0.352072 0.33447,0.352072 0.33447,0.975239 z m -1.26746,0.957636 q 0.38376,0 0.59148,-0.253492 0.21124,-0.253492 0.21124,-0.704144 0,-0.447131 -0.21124,-0.711185 -0.21124,-0.267575 -0.59148,-0.267575 -0.38728,0 -0.60204,0.271095 -0.21125,0.267575 -0.21125,0.707665 0,0.450652 0.21477,0.704144 0.21476,0.253492 0.59852,0.253492 z m 2.20045,-1.535034 v 1.837816 h -0.44713 v -2.545481 h 0.46122 l 1.24985,1.880065 v -1.880065 h 0.44713 v 2.545481 h -0.48938 z m 4.17909,1.837816 h -1.88358 v -2.545481 h 1.87302 v 0.348552 h -1.42589 v 0.718227 h 1.33083 v 0.348551 h -1.33083 v 0.7816 h 1.43645 z"
         id="text5-8"
         aria-label="WUFENPU COMMERCIAL ZONE" />
      <path
         d="m 99.121225,29.883784 h 2.479385 v 0.30181 h -2.479385 z m -0.197961,2.232746 h 2.898026 v 0.305055 h -2.898026 z m 1.129356,-2.125652 h 0.344 q -0.0487,0.282338 -0.1071,0.59713 -0.0584,0.314791 -0.12007,0.629582 -0.0617,0.311546 -0.12332,0.593884 -0.05842,0.279094 -0.110342,0.493281 h -0.347244 q 0.05841,-0.220678 0.12332,-0.503016 0.06491,-0.285584 0.126566,-0.59713 0.06166,-0.314791 0.11683,-0.626337 0.05517,-0.311546 0.09736,-0.587394 z m -0.81132,0.84377 h 2.05426 v 1.421428 h -0.31804 V 31.136458 H 99.2413 Z m 3.36859,-0.04868 h 1.81086 v 0.298565 h -1.81086 z m 1.71026,0 h 0.32128 q 0,0 -0.003,0.02921 0,0.02596 0,0.05841 0,0.03245 -0.003,0.05192 -0.0162,0.373206 -0.0357,0.639318 -0.0162,0.266112 -0.0389,0.441357 -0.0195,0.175244 -0.0519,0.279093 -0.0292,0.100603 -0.0714,0.146037 -0.0552,0.0714 -0.12008,0.09736 -0.0617,0.02921 -0.15253,0.0357 -0.0811,0.0097 -0.22067,0.0097 -0.1363,0 -0.28559,-0.0065 -0.003,-0.0714 -0.0324,-0.159018 -0.026,-0.08438 -0.0682,-0.152528 0.14928,0.01298 0.27585,0.01947 0.12981,0.0032 0.18822,0.0032 0.0487,0 0.0779,-0.0097 0.0324,-0.0097 0.0584,-0.0357 0.0422,-0.04219 0.0714,-0.188226 0.0292,-0.149283 0.0487,-0.441357 0.0227,-0.292074 0.0422,-0.759393 z m -1.30136,-1.155316 0.32778,0.09411 q -0.12008,0.279093 -0.28234,0.535469 -0.16227,0.253131 -0.35374,0.467319 -0.19147,0.214188 -0.39916,0.369961 -0.026,-0.03245 -0.0746,-0.07789 -0.0487,-0.04868 -0.1006,-0.09411 -0.0519,-0.04543 -0.0876,-0.0714 0.20445,-0.136302 0.38619,-0.327773 0.18498,-0.19147 0.33426,-0.418639 0.15253,-0.230415 0.24988,-0.477055 z m 1.17804,-0.0065 q 0.0779,0.159019 0.18822,0.324527 0.11359,0.165509 0.2434,0.324527 0.13305,0.155773 0.2726,0.292075 0.13955,0.133056 0.2726,0.230414 -0.0389,0.03245 -0.0909,0.08113 -0.0487,0.04868 -0.0941,0.100603 -0.0454,0.04868 -0.0746,0.09087 -0.13305,-0.11683 -0.27585,-0.266113 -0.13954,-0.152527 -0.27584,-0.327772 -0.13306,-0.175244 -0.25313,-0.360225 -0.11683,-0.188225 -0.21095,-0.369961 z m -0.95087,1.249429 h 0.33427 q -0.026,0.269358 -0.0811,0.525734 -0.0552,0.253131 -0.17524,0.4803 -0.12008,0.227169 -0.33751,0.412149 -0.21419,0.184981 -0.56468,0.314792 -0.0195,-0.04219 -0.0519,-0.09411 -0.0324,-0.05193 -0.0714,-0.100604 -0.0389,-0.04868 -0.0779,-0.08113 0.32453,-0.107094 0.516,-0.262867 0.19471,-0.155773 0.29532,-0.347244 0.10384,-0.194716 0.14603,-0.408904 0.0454,-0.214188 0.0682,-0.438112 z m 3.12844,-0.847015 h 1.99584 v 0.282338 h -1.99584 z m 0.1428,0.558186 h 1.5415 v 0.262867 h -1.24943 v 1.73622 h -0.29207 z m 1.43765,0 h 0.29532 v 1.671314 q 0,0.107094 -0.0227,0.172 -0.0227,0.06491 -0.0909,0.100603 -0.0649,0.0357 -0.16551,0.04543 -0.0974,0.0097 -0.24015,0.0065 -0.006,-0.05841 -0.0325,-0.142791 -0.0227,-0.08113 -0.0552,-0.139547 0.0909,0.0032 0.16551,0.0032 0.0746,0 0.0974,0 0.0487,0 0.0487,-0.05192 z m -0.73668,-1.009279 h 0.29857 v 2.995385 h -0.29857 z m -0.52573,1.544749 h 1.37924 v 0.249886 h -1.37924 z m 0,0.532224 h 1.37924 v 0.259622 h -1.37924 z m 0.95735,-1.924445 0.17849,-0.168754 q 0.0714,0.04219 0.15253,0.09736 0.0844,0.05517 0.16227,0.110339 0.0779,0.05193 0.12656,0.09411 l -0.18498,0.188226 q -0.0487,-0.04219 -0.12332,-0.09736 -0.0746,-0.05842 -0.15902,-0.11683 -0.0811,-0.05842 -0.15253,-0.107094 z m -2.25546,0.632828 h 0.96709 v 0.288829 h -0.96709 z m 0.35698,-0.746412 h 0.28883 v 2.122406 h -0.28883 z m -0.42188,2.151614 q 0.13305,-0.05193 0.30505,-0.120075 0.172,-0.0714 0.36672,-0.155773 0.19471,-0.08438 0.38618,-0.168754 l 0.0682,0.282338 q -0.25963,0.12332 -0.53223,0.249886 -0.2726,0.12332 -0.49003,0.223924 z m 3.3621,-1.911464 h 2.82987 v 0.282338 h -2.82987 z m 1.24294,-0.279094 h 0.31479 v 0.444602 h -0.31479 z m -1.11638,0.863242 h 2.46965 v 0.269358 h -2.17757 v 1.875766 h -0.29208 z m 2.31063,0 h 0.29532 v 1.794635 q 0,0.120075 -0.0325,0.19147 -0.0324,0.07464 -0.11683,0.11034 -0.0876,0.0357 -0.22717,0.04543 -0.1363,0.0097 -0.33426,0.0097 -0.006,-0.04219 -0.0227,-0.09736 -0.0162,-0.05192 -0.0357,-0.107094 -0.0195,-0.05517 -0.0422,-0.09411 0.14603,0.0065 0.2726,0.0065 0.12656,0 0.16875,0 0.0422,-0.0032 0.0584,-0.01623 0.0162,-0.01623 0.0162,-0.04868 z m -1.49282,0.217433 h 0.27585 q -0.0162,0.204452 -0.0746,0.350489 -0.0584,0.146038 -0.19796,0.243396 -0.13631,0.09736 -0.38944,0.155773 -0.0195,-0.04868 -0.0617,-0.113585 -0.0422,-0.0649 -0.0844,-0.103848 0.21094,-0.03894 0.32128,-0.103849 0.11358,-0.06815 0.15577,-0.171999 0.0454,-0.103849 0.0552,-0.256377 z m 0.60362,0 h 0.26611 v 0.324527 q 0,0.04543 0.013,0.05842 0.0162,0.01298 0.0714,0.01298 0.01,0 0.0422,0 0.0324,0 0.0682,0 0.0389,0 0.0714,0 0.0357,0 0.0519,0 0.0292,0 0.0454,-0.01298 0.0162,-0.01298 0.026,-0.05517 0.01,-0.04219 0.013,-0.129811 0.0389,0.02596 0.10709,0.05192 0.0682,0.02596 0.12008,0.0357 -0.0162,0.201207 -0.0779,0.269357 -0.0617,0.06815 -0.20121,0.06815 -0.0162,0 -0.0617,0 -0.0422,0 -0.0909,0 -0.0487,0 -0.0909,0 -0.0422,0 -0.0617,0 -0.12657,0 -0.19472,-0.02596 -0.0682,-0.02596 -0.0941,-0.09087 -0.0227,-0.0649 -0.0227,-0.178489 z m -0.74966,0.772375 h 0.27261 v 1.009279 h -0.27261 z m 0.16551,0 h 1.09041 v 0.821053 h -1.09041 v -0.23366 h 0.81132 v -0.353734 h -0.81132 z m -0.35698,-1.298108 0.30181,-0.05193 q 0.0487,0.08113 0.0974,0.188226 0.0487,0.103849 0.0682,0.181735 l -0.31479,0.06815 q -0.0162,-0.07789 -0.0617,-0.184981 -0.0422,-0.110339 -0.0909,-0.201206 z m 1.28837,-0.06166 0.33751,0.05842 q -0.0552,0.110339 -0.11034,0.210943 -0.0552,0.100603 -0.10385,0.171999 l -0.30505,-0.05517 q 0.0487,-0.08113 0.0974,-0.191471 0.0519,-0.11034 0.0844,-0.194717 z m 1.82385,0.759394 h 1.87252 v 0.191471 h -1.87252 z m 0.32452,-0.389433 h 1.22347 v 0.181735 h -1.22347 z m 0.17525,0.759393 h 0.73667 v 0.175245 h -0.73667 z m 0.72369,-0.675016 q 0.0584,0.17849 0.15902,0.340754 0.1006,0.162263 0.23691,0.285583 0.13954,0.123321 0.30505,0.191471 -0.0389,0.0357 -0.0844,0.09411 -0.0454,0.05517 -0.0746,0.100603 -0.17524,-0.08762 -0.32128,-0.230414 -0.14279,-0.146037 -0.24988,-0.334263 -0.10385,-0.188225 -0.172,-0.402413 z m -0.45758,-0.447847 0.24015,0.02921 q -0.0941,0.528979 -0.31804,0.89245 -0.22068,0.360225 -0.60037,0.584148 -0.013,-0.02596 -0.0422,-0.06166 -0.026,-0.0357 -0.0584,-0.0714 -0.0292,-0.0357 -0.0519,-0.05842 0.35373,-0.188225 0.55494,-0.515998 0.20121,-0.327772 0.27585,-0.798336 z m -0.41864,0.01623 0.21419,0.05841 q -0.0682,0.142792 -0.17525,0.282339 -0.10709,0.139546 -0.21743,0.236904 -0.026,-0.02921 -0.0844,-0.06815 -0.0552,-0.04219 -0.0974,-0.06491 0.11034,-0.08762 0.20446,-0.204452 0.0974,-0.116829 0.15577,-0.24015 z m 0.0389,1.106637 h 0.24664 v 0.580904 q 0,0.0649 0.0325,0.08113 0.0324,0.01623 0.14603,0.01623 0.026,0 0.0941,0 0.0714,0 0.15577,0 0.0876,0 0.16226,0 0.0746,0 0.11034,0 0.0552,0 0.0844,-0.01623 0.0292,-0.01623 0.0422,-0.06815 0.013,-0.05517 0.0195,-0.155773 0.0389,0.02272 0.0974,0.04543 0.0617,0.02272 0.11034,0.03245 -0.01,0.142792 -0.0454,0.220679 -0.0325,0.07789 -0.1006,0.107094 -0.0649,0.02921 -0.18174,0.02921 -0.0195,0 -0.0779,0 -0.0584,0 -0.1363,0 -0.0747,0 -0.14929,0 -0.0746,0 -0.13305,0 -0.0552,0 -0.0746,0 -0.15578,0 -0.2434,-0.02272 -0.0876,-0.02272 -0.12332,-0.08438 -0.0357,-0.0649 -0.0357,-0.181735 z m 0.8957,-0.999543 0.18173,-0.103848 q 0.0779,0.06815 0.15902,0.152527 0.0811,0.08113 0.14928,0.165509 0.0714,0.08113 0.11034,0.149282 l -0.19147,0.120075 q -0.0389,-0.06815 -0.10709,-0.152527 -0.0649,-0.08762 -0.14604,-0.172 -0.0779,-0.08762 -0.15577,-0.159018 z m -0.12657,0.999543 h 0.21419 q 0,0 0,0.02921 0,0.02596 -0.003,0.04868 -0.006,0.165509 -0.0227,0.253131 -0.013,0.08762 -0.0454,0.126565 -0.026,0.02921 -0.0649,0.04219 -0.0357,0.01298 -0.0876,0.01947 -0.0389,0 -0.11034,0 -0.0714,0 -0.14604,-0.0032 -0.003,-0.03894 -0.0195,-0.08762 -0.013,-0.04868 -0.0324,-0.08113 0.0714,0.0032 0.12981,0.0065 0.0584,0.0032 0.0811,0.0032 0.0487,0 0.0681,-0.02272 0.0162,-0.01623 0.0227,-0.08438 0.01,-0.06815 0.0162,-0.223923 z m -1.59018,-1.489579 h 2.7455 v 2.8818 h -0.30181 v -2.602706 h -2.15162 v 2.602706 h -0.29207 z m 0.18498,2.472896 h 2.42097 v 0.279093 h -2.42097 z"
         id="text5-9-1"
         style="font-weight:500;font-size:3.24527px;line-height:1.25;font-family:'Noto Sans JP';-inkscape-font-specification:'Noto Sans JP Medium';fill:#f9f9f9;stroke-width:0.115903"
         aria-label="五分埔商圈" />
      <path
         style="font-weight:500;font-size:3.24527px;line-height:1.25;font-family:'Noto Sans kr';-inkscape-font-specification:'Noto Sans kr Medium';fill:#f9f9f9;stroke-width:0.115903"
         d="m 119.63695,31.37755 h 2.68709 v 0.279093 h -2.68709 z m 1.16506,0.17849 h 0.3375 v 1.109882 h -0.3375 z m 0.17199,-1.745956 q 0.31155,0 0.54846,0.08113 0.2369,0.08113 0.36996,0.227169 0.13305,0.146037 0.13305,0.347244 0,0.201207 -0.13305,0.350489 -0.13306,0.146037 -0.36996,0.227169 -0.23691,0.08113 -0.54846,0.08113 -0.31154,0 -0.55169,-0.08113 -0.23691,-0.08113 -0.36996,-0.227169 -0.13306,-0.149282 -0.13306,-0.350489 0,-0.201207 0.13306,-0.347244 0.13305,-0.146037 0.36996,-0.227169 0.24015,-0.08113 0.55169,-0.08113 z m -0.003,0.269358 q -0.21094,0 -0.36996,0.04868 -0.15577,0.04543 -0.2434,0.133056 -0.0876,0.08438 -0.0876,0.204452 0,0.120075 0.0876,0.207697 0.0876,0.08762 0.2434,0.133056 0.15902,0.04543 0.36996,0.04543 0.21419,0 0.36996,-0.04543 0.15902,-0.04543 0.24664,-0.133056 0.0876,-0.08762 0.0876,-0.207697 0,-0.120075 -0.0876,-0.204452 -0.0876,-0.08762 -0.24664,-0.133056 -0.15577,-0.04868 -0.36996,-0.04868 z m 3.76776,-0.379697 h 0.34075 v 2.177576 h -0.34075 z m -0.4803,0.824299 h 0.67501 v 0.272602 h -0.67501 z m -1.55449,-0.577658 h 1.57071 v 0.275848 h -1.57071 z m -0.0422,1.492824 -0.0357,-0.279093 q 0.25313,0 0.55169,-0.0032 0.30181,-0.0065 0.6166,-0.02272 0.3148,-0.01623 0.59713,-0.05192 l 0.0227,0.249886 q -0.29207,0.04868 -0.60037,0.0714 -0.3083,0.02272 -0.60687,0.02921 -0.29532,0.0065 -0.5452,0.0065 z m 0.3083,-1.265655 h 0.33101 v 1.038486 h -0.33101 z m 0.70746,0 h 0.33102 v 1.038486 h -0.33102 z m -0.52248,2.154859 h 1.99908 v 0.275848 h -1.99908 z m 0,-0.636073 h 0.34075 v 0.817808 h -0.34075 z m 2.70006,-1.843313 h 2.19056 v 0.272602 h -2.19056 z m 0.0162,1.019014 h 2.1581 v 0.272603 h -2.1581 z m 0.39917,-0.801581 h 0.34075 v 0.947618 h -0.34075 z m 1.01901,0 h 0.34075 v 0.947618 h -0.34075 z m -1.68429,1.372749 h 2.68708 v 0.279093 h -2.68708 z m 1.17154,0.12332 h 0.34075 v 1.100147 h -0.34075 z m 3.41402,-1.707012 h 0.28234 v 0.285584 q 0,0.288829 -0.0974,0.54196 -0.0941,0.249886 -0.27909,0.438111 -0.18173,0.188226 -0.44136,0.282339 l -0.18173,-0.269358 q 0.23366,-0.08113 0.39268,-0.233659 0.16226,-0.152528 0.24339,-0.347244 0.0811,-0.197961 0.0811,-0.412149 z m 0.0682,0 h 0.27585 v 0.314791 q 0,0.142792 0.0454,0.279093 0.0454,0.133057 0.13305,0.253132 0.0909,0.116829 0.22068,0.207697 0.12981,0.09087 0.29532,0.146037 l -0.17849,0.266112 q -0.24989,-0.09087 -0.42838,-0.262867 -0.17524,-0.171999 -0.26935,-0.399168 -0.0941,-0.230414 -0.0941,-0.490036 z m 1.22023,-0.155773 h 0.3375 v 1.778408 h -0.3375 z m 0.24664,0.730186 h 0.5095 v 0.282338 h -0.5095 z m -0.86325,1.122863 q 0.30831,0 0.52574,0.06491 0.22068,0.0649 0.34075,0.191471 0.12008,0.12332 0.12008,0.298564 0,0.172 -0.12008,0.29532 -0.12007,0.126566 -0.34075,0.191471 -0.21743,0.0649 -0.52574,0.0649 -0.30505,0 -0.52897,-0.0649 -0.22068,-0.06491 -0.34076,-0.191471 -0.11683,-0.12332 -0.11683,-0.29532 0,-0.175244 0.11683,-0.298564 0.12008,-0.126566 0.34076,-0.191471 0.22392,-0.06491 0.52897,-0.06491 z m 0,0.266112 q -0.20445,0 -0.35048,0.03245 -0.14604,0.03245 -0.22393,0.09736 -0.0779,0.06491 -0.0779,0.159018 0,0.09087 0.0779,0.155773 0.0779,0.06491 0.22393,0.100604 0.14603,0.03245 0.35048,0.03245 0.2077,0 0.35049,-0.03245 0.14604,-0.0357 0.22393,-0.100604 0.0779,-0.06491 0.0779,-0.155773 0,-0.09411 -0.0779,-0.159018 -0.0779,-0.0649 -0.22393,-0.09736 -0.14279,-0.03245 -0.35049,-0.03245 z m 3.21607,-1.405201 h 0.6166 v 0.279093 h -0.6166 z m 0.52573,-0.71396 h 0.34076 v 1.723238 h -0.34076 z m -1.60641,1.85954 h 1.94717 v 1.067694 h -1.94717 z m 1.61615,0.266112 H 133.332 v 0.532224 h 1.28188 z m -1.40196,-1.849804 h 0.27909 v 0.217433 q 0,0.272603 -0.1006,0.519243 -0.0974,0.243396 -0.28234,0.425131 -0.18498,0.181735 -0.44784,0.275848 l -0.17525,-0.269358 q 0.17525,-0.06166 0.3083,-0.159018 0.1363,-0.09736 0.23042,-0.223924 0.0941,-0.12981 0.13954,-0.272602 0.0487,-0.146037 0.0487,-0.29532 z m 0.0682,0 h 0.27585 v 0.217433 q 0,0.181735 0.0811,0.35698 0.0811,0.175244 0.23691,0.314791 0.15577,0.139547 0.37969,0.217433 l -0.16875,0.266112 q -0.25638,-0.08762 -0.43811,-0.262867 -0.17849,-0.175244 -0.27261,-0.405658 -0.0941,-0.23366 -0.0941,-0.486791 z m -0.69449,-0.103849 h 1.58694 v 0.272603 h -1.58694 z m 4.84519,-0.175244 h 0.34076 v 2.966177 h -0.34076 z m 0.25313,1.171542 h 0.53547 v 0.282339 h -0.53547 z m -1.01901,-0.856751 h 0.33102 q 0,0.431621 -0.13306,0.824299 -0.12981,0.389432 -0.42513,0.717204 -0.29208,0.327773 -0.77887,0.571168 l -0.18822,-0.259622 q 0.40241,-0.207697 0.66528,-0.473809 0.26611,-0.266112 0.39592,-0.59713 0.13306,-0.331017 0.13306,-0.72694 z m -1.04498,0 h 1.22022 v 0.275848 h -1.22022 z"
         id="text5-9-1-0"
         aria-label="우펀푸 상점가" />
      <path
         id="rect2"
         style="fill:#ffffff;stroke-width:0.757875"
         d="m 94.448471,15.832309 h 1.0501 v 16.764515 h -1.0501 z" />
    </g>
  </g>
</svg>
