<?xml version="1.0" encoding="UTF-8" standalone="no"?>
<!-- Created with Inkscape (http://www.inkscape.org/) -->

<svg
   width="500"
   height="250"
   viewBox="0 0 132.29166 66.145833"
   version="1.1"
   id="svg1"
   inkscape:version="1.3.2 (091e20e, 2023-11-25, custom)"
   sodipodi:docname="bl21.svg"
   xmlns:inkscape="http://www.inkscape.org/namespaces/inkscape"
   xmlns:sodipodi="http://sodipodi.sourceforge.net/DTD/sodipodi-0.dtd"
   xmlns="http://www.w3.org/2000/svg"
   xmlns:svg="http://www.w3.org/2000/svg">
  <sodipodi:namedview
     id="namedview1"
     pagecolor="#9e652e"
     bordercolor="#ffffff"
     borderopacity="1"
     inkscape:showpageshadow="0"
     inkscape:pageopacity="0"
     inkscape:pagecheckerboard="false"
     inkscape:deskcolor="#d1d1d1"
     inkscape:document-units="mm"
     inkscape:zoom="2.0208096"
     inkscape:cx="256.33291"
     inkscape:cy="106.88785"
     inkscape:window-width="1920"
     inkscape:window-height="1009"
     inkscape:window-x="1912"
     inkscape:window-y="-8"
     inkscape:window-maximized="1"
     inkscape:current-layer="layer1" />
  <defs
     id="defs1">
    <rect
       x="560.66638"
       y="34.144731"
       width="279.32397"
       height="128.59143"
       id="rect6" />
    <rect
       x="157.85752"
       y="62.351248"
       width="375.73891"
       height="119.77096"
       id="rect4" />
    <rect
       x="157.85751"
       y="62.35125"
       width="329.07602"
       height="135.09438"
       id="rect4-5" />
    <rect
       x="157.85751"
       y="62.35125"
       width="329.07602"
       height="135.09438"
       id="rect4-5-1" />
    <rect
       x="157.85751"
       y="62.35125"
       width="329.07602"
       height="135.09438"
       id="rect4-5-7" />
    <rect
       x="157.85751"
       y="62.35125"
       width="403.72608"
       height="88.907969"
       id="rect4-5-2" />
  </defs>
  <g
     inkscape:label="Layer 1"
     inkscape:groupmode="layer"
     id="layer1">
    <rect
       style="fill:#005fb9;fill-opacity:1;stroke:none;stroke-width:0.953294;stroke-dasharray:none"
       id="rect5"
       width="132.29167"
       height="66.145836"
       x="-2.5431316e-06"
       y="-1.2715658e-06"
       ry="0" />
    <g
       id="g3"
       transform="matrix(0.96510236,0,0,0.96510236,23.953695,1.1541647)">
      <g
         id="g2"
         transform="translate(-0.7595773)">
        <path
           id="rect1"
           style="fill-opacity:0;stroke:#ffffff;stroke-width:0.960404"
           d="m 16.906102,14.003039 h 12.657305 c 4.000431,0 7.220995,3.220564 7.220995,7.220995 v 23.697769 c 0,4.000432 -3.220564,7.220995 -7.220995,7.220995 H 16.906102 c -4.000431,0 -7.2209948,-3.220563 -7.2209948,-7.220995 V 21.224034 c 0,-4.000431 3.2205638,-7.220995 7.2209948,-7.220995 z" />
        <path
           style="font-size:12.7947px;line-height:1.25;font-family:'AR UDJingXiHeiE1G30 EB';-inkscape-font-specification:'AR UDJingXiHeiE1G30 EB';fill:#ffffff;stroke-width:0.266556"
           d="m 19.569068,30.474609 h -4.861986 v -9.250568 h 4.452555 q 1.317854,0 2.085536,0.639735 0.767682,0.639735 0.767682,1.701695 0,0.690914 -0.307073,1.215497 -0.294278,0.511788 -0.895629,0.84445 0.780477,0.307073 1.177113,0.84445 0.40943,0.537378 0.40943,1.27947 0,1.228291 -0.806066,1.983179 -0.806066,0.742092 -2.021562,0.742092 z m 0.754887,-6.704422 q 0,-0.626941 -0.358252,-0.946808 -0.358251,-0.332662 -1.03637,-0.332662 h -2.597324 v 2.610118 h 2.686886 q 0.575762,0 0.934014,-0.332662 0.371046,-0.345457 0.371046,-0.997986 z m 0.383841,3.966356 q 0,-0.665324 -0.409431,-1.010781 Q 19.90173,26.367511 19.2492,26.367511 h -2.917191 v 2.840423 h 2.891602 q 0.678119,0 1.074754,-0.371046 0.409431,-0.371047 0.409431,-1.100345 z m 9.813543,2.738066 h -6.499708 v -9.250568 h 1.624927 v 7.983893 h 4.874781 z"
           id="text2"
           aria-label="BL" />
        <path
           style="font-size:14.6606px;line-height:1.25;font-family:'AR UDJingXiHeiE1G30 EB';-inkscape-font-specification:'AR UDJingXiHeiE1G30 EB';fill:#ffffff;stroke-width:0.266556"
           d="m 15.391321,37.793288 q 0,-1.641987 0.996921,-2.580265 0.996921,-0.952939 2.609587,-0.952939 1.656647,0 2.580265,0.835654 0.938279,0.820994 0.938279,2.287054 0,1.040902 -0.674388,2.096465 -0.659727,1.040903 -2.081805,2.301715 l -1.993842,1.803253 h 4.720713 v 1.4514 H 15.347339 V 43.70151 l 2.961441,-2.668229 q 1.304794,-1.187509 1.817915,-2.023163 0.527781,-0.850315 0.527781,-1.627326 0,-0.73303 -0.425157,-1.187509 -0.425157,-0.454478 -1.23149,-0.454478 -0.806333,0 -1.304794,0.557102 -0.49846,0.557103 -0.49846,1.495381 z m 11.567203,-1.143526 -1.71529,1.598005 -0.850315,-1.304793 2.756193,-2.506963 h 1.598005 v 10.599614 h -1.788593 z"
           id="text3"
           aria-label="21" />
        <path
           style="font-weight:500;font-size:72px;line-height:1.25;font-family:'Noto Sans TC';-inkscape-font-specification:'Noto Sans TC Medium';white-space:pre;fill:#ffffff"
           d="m 174.70542,93.249406 v 5.616 h 38.016 v -5.616 z m 0,-10.728 v 5.544 h 38.016 v -5.544 z m -6.912,-5.472 h 52.128 v 27.360004 h -52.128 z m 4.464,36.936004 h 20.448 v 6.12 h -20.448 z m 24.048,-7.2 h 6.912 v 23.976 q 0,1.872 0.648,2.376 0.72,0.504 3.096,0.504 0.576,0 1.944,0 1.368,0 3.024,0 1.728,0 3.168,0 1.512,0 2.16,0 1.44,0 2.16,-0.648 0.72,-0.648 1.008,-2.52 0.36,-1.872 0.504,-5.616 1.152,0.792 2.952,1.512 1.8,0.72 3.168,1.008 -0.36,4.824 -1.296,7.488 -0.936,2.664 -2.808,3.672 -1.8,1.08 -5.112,1.08 -0.432,0 -1.656,0 -1.224,0 -2.736,0 -1.512,0 -3.024,0 -1.512,0 -2.664,0 -1.152,0 -1.656,0 -3.888,0 -6.048,-0.792 -2.088,-0.792 -2.952,-2.736 -0.792,-1.872 -0.792,-5.256 z m -28.656,33.912 -0.288,-5.472 3.312,-2.16 22.392,-3.24 q 0.072,1.368 0.216,3.096 0.216,1.728 0.504,2.808 -7.992,1.296 -12.888,2.088 -4.824,0.792 -7.488,1.296 -2.592,0.504 -3.816,0.864 -1.224,0.36 -1.944,0.72 z m 0,0 q -0.216,-0.864 -0.72,-2.016 -0.504,-1.152 -1.08,-2.232 -0.576,-1.08 -1.152,-1.8 1.152,-0.504 2.448,-1.728 1.368,-1.224 1.368,-3.456 v -22.752 h 7.056 v 27.792 q 0,0 -0.864,0.432 -0.792,0.36 -1.944,1.008 -1.152,0.72 -2.304,1.512 -1.152,0.864 -2.016,1.656 -0.792,0.864 -0.792,1.584 z m 32.904,-26.64 h 22.896 v 6.192 h -22.896 z m 55.44,-9 h 43.344 v 5.472 h -43.344 z m 7.776,9.792 h 28.8 v 5.472 h -28.8 z m 2.448,-7.632 5.688,1.368 q -2.448,6.12 -6.552,11.232 -4.032,5.112 -8.856,8.496 -0.36,-0.576 -1.152,-1.368 -0.792,-0.792 -1.656,-1.584 -0.792,-0.792 -1.44,-1.296 4.608,-2.88 8.28,-7.2 3.744,-4.392 5.688,-9.648 z m 5.4,9.792 5.328,1.584 q -2.952,6.624 -7.92,12.24 -4.896,5.544 -10.368,9.216 -0.36,-0.648 -1.08,-1.512 -0.648,-0.792 -1.44,-1.656 -0.72,-0.792 -1.296,-1.224 5.256,-3.168 9.72,-7.992 4.536,-4.896 7.056,-10.656 z m 10.584,0.144 5.472,1.296 q -2.232,6.984 -6.12,12.96 -3.816,5.904 -8.496,9.864 -0.36,-0.504 -1.152,-1.224 -0.792,-0.72 -1.656,-1.44 -0.864,-0.72 -1.512,-1.152 4.608,-3.528 8.064,-8.784 3.528,-5.328 5.4,-11.52 z m 8.64,-2.304 h 6.264 q 0,0 -0.072,1.008 0,0.936 -0.072,1.512 -0.36,7.128 -0.864,11.592 -0.504,4.464 -1.152,6.84 -0.648,2.376 -1.512,3.384 -0.936,1.08 -1.944,1.512 -0.936,0.432 -2.232,0.648 -1.08,0.144 -2.88,0.144 -1.8,0.072 -3.816,-0.072 -0.072,-1.296 -0.504,-2.952 -0.432,-1.584 -1.08,-2.736 1.728,0.144 3.096,0.216 1.368,0.072 2.088,0.072 0.72,0 1.152,-0.144 0.432,-0.144 0.792,-0.576 0.648,-0.648 1.08,-2.736 0.504,-2.088 0.936,-6.12 0.432,-4.032 0.72,-10.584 z m -22.608,-23.184004 v 4.752 h 19.08 v -4.752 z m 0,-9.288 v 4.68 h 19.08 v -4.68 z m -6.192,-4.896 h 31.752 v 23.904004 h -31.752 z m -26.64,0.288 h 16.92 v 6.12 h -10.944 v 57.672004 h -5.976 z m 14.904,0 h 1.08 l 1.008,-0.288 4.464,2.592 q -1.008,3.024 -2.16,6.48 -1.152,3.384 -2.376,6.696 -1.152,3.312 -2.304,6.192 3.672,4.320004 4.824,8.064004 1.152,3.744 1.152,7.056 0,3.096 -0.72,5.328 -0.648,2.232 -2.304,3.384 -0.792,0.576 -1.8,0.936 -0.936,0.288 -2.088,0.504 -2.088,0.216 -4.752,0.072 -0.072,-1.224 -0.504,-2.88 -0.36,-1.728 -1.08,-2.952 1.08,0.072 2.016,0.072 0.936,0 1.728,0 1.368,-0.072 2.16,-0.648 0.72,-0.576 1.008,-1.8 0.288,-1.224 0.288,-2.808 0,-2.736 -1.152,-6.192 -1.152,-3.456 -4.68,-7.416 0.936,-2.448004 1.8,-5.256004 0.864,-2.808 1.656,-5.616 0.864,-2.88 1.512,-5.328 0.72,-2.52 1.224,-4.248 z"
           id="text4"
           transform="matrix(0.26655641,0,0,0.26655641,-1.475616,-4.7571419)"
           aria-label="昆陽" />
        <path
           style="font-size:7.46358px;line-height:1.25;font-family:'AR UDJingXiHeiE1G30 EB';-inkscape-font-specification:'AR UDJingXiHeiE1G30 EB';fill:#ffffff;stroke-width:0.266556"
           d="M 42.79018,39.173969 V 41.0324 h -0.947875 v -5.396168 h 0.947875 v 2.44059 l 2.365955,-2.44059 h 1.156855 l -2.179366,2.186829 2.261465,3.209339 H 45.245698 L 43.49922,38.442538 Z m 8.754781,-0.02985 q 0,0.940411 -0.589623,1.462862 -0.589622,0.522451 -1.679305,0.522451 -1.10461,0 -1.701696,-0.514987 -0.589623,-0.514988 -0.589623,-1.462862 v -3.515346 h 0.947874 v 3.470564 q 0,0.612014 0.335862,0.947875 0.335861,0.335861 1.007583,0.335861 0.634404,0 0.970265,-0.320934 0.343325,-0.328397 0.343325,-0.977729 v -3.455637 h 0.955338 z m 2.149513,-2.007703 V 41.0324 h -0.947875 v -5.396168 h 0.977729 l 2.649571,3.985551 v -3.985551 h 0.947875 V 41.0324 h -1.037438 z m 6.866489,0.888166 1.537497,-2.388345 h 1.059829 l -2.127121,3.172021 V 41.0324 h -0.947874 v -2.224147 l -2.164439,-3.172021 h 1.082219 z m 6.075356,0.828458 -0.850848,-2.306247 -0.865775,2.306247 z m -1.992775,0.738894 -0.537378,1.440471 h -0.962802 l 2.171902,-5.396168 h 0.970265 l 2.156975,5.396168 h -0.985193 l -0.544841,-1.440471 z m 5.366309,-2.455518 V 41.0324 h -0.947875 v -5.396168 h 0.977729 l 2.649571,3.985551 v -3.985551 h 0.947875 V 41.0324 h -1.037438 z m 8.829411,3.239194 q -0.276152,0.388106 -0.694113,0.574696 -0.410497,0.179126 -0.940411,0.179126 -1.164318,0 -1.850968,-0.731431 -0.686649,-0.738895 -0.686649,-2.059948 0,-1.328518 0.723967,-2.059949 0.723968,-0.73143 1.955458,-0.73143 0.992656,0 1.612134,0.455278 0.62694,0.447815 0.753821,1.283736 h -0.947874 q -0.07464,-0.440351 -0.440352,-0.716504 -0.358252,-0.283616 -0.977729,-0.283616 -0.828457,0 -1.261345,0.537378 -0.432887,0.529914 -0.432887,1.515107 0,1.052364 0.455278,1.552424 0.455278,0.492597 1.238954,0.492597 0.68665,0 1.089683,-0.403034 0.403033,-0.403033 0.403033,-0.925484 V 38.942598 H 77.30923 v -0.738895 h 2.440591 V 41.0324 h -0.910557 z"
           id="text5"
           aria-label="KUNYANG" />
        <path
           d="m 42.837397,45.528781 v 0.582159 h 3.940771 v -0.582159 z m 0,-1.112073 v 0.574695 h 3.940771 v -0.574695 z m -0.716503,-0.567232 h 5.403632 v 2.83616 h -5.403632 z m 0.0821,3.060067 h 0.716504 v 2.985433 h -0.716504 z m 0.380643,0.768749 h 2.119656 v 0.634405 h -2.119656 z m 2.485372,-0.768749 h 0.716503 v 2.545081 q 0,0.194053 0.06717,0.253762 0.07463,0.05224 0.328397,0.05224 0.05971,0 0.201517,0 0.149271,0 0.320934,0 0.179126,0 0.328397,0 0.156735,0 0.238835,0 0.141808,0 0.216444,-0.06717 0.0821,-0.06717 0.111953,-0.261225 0.02985,-0.194054 0.04478,-0.58216 0.0821,0.05224 0.194053,0.111954 0.111954,0.05225 0.231371,0.09703 0.126881,0.03732 0.231371,0.06717 -0.04478,0.50006 -0.141808,0.783676 -0.09703,0.283616 -0.298543,0.395569 -0.194053,0.111954 -0.537378,0.111954 -0.04478,0 -0.171662,0 -0.126881,0 -0.29108,0 -0.156735,0 -0.31347,0 -0.149272,0 -0.276153,0 -0.119417,0 -0.171662,0 -0.403034,0 -0.626941,-0.08956 -0.223907,-0.0821 -0.31347,-0.291079 -0.08956,-0.208981 -0.08956,-0.574696 z m -3.612373,2.798843 q 0.432888,-0.04478 0.977729,-0.10449 0.552305,-0.05971 1.164318,-0.134345 0.612014,-0.07464 1.224028,-0.156735 l 0.01493,0.671722 q -0.58216,0.0821 -1.179246,0.156736 -0.589623,0.07464 -1.134464,0.141808 -0.544841,0.07464 -0.985193,0.134344 z m 6.023109,-2.500299 0.567232,0.507523 q -0.328397,0.201517 -0.738894,0.388106 -0.403034,0.179126 -0.835921,0.335861 -0.425424,0.149272 -0.828458,0.268689 -0.02985,-0.111953 -0.10449,-0.261225 -0.06717,-0.156735 -0.134344,-0.261225 0.380642,-0.134345 0.761285,-0.29108 0.388106,-0.164199 0.731431,-0.335861 0.343325,-0.179126 0.582159,-0.350788 z m 3.784035,-0.455279 h 4.493075 v 0.567232 h -4.493075 z m 0.806067,1.015047 h 2.985432 v 0.567232 h -2.985432 z m 0.253762,-0.791139 0.589622,0.141808 q -0.253761,0.634404 -0.679185,1.164318 -0.417961,0.529914 -0.918021,0.880703 -0.03732,-0.05971 -0.119417,-0.141808 -0.0821,-0.0821 -0.171662,-0.164199 -0.0821,-0.0821 -0.149272,-0.134345 0.477669,-0.298543 0.858312,-0.746358 0.388106,-0.455278 0.589623,-1.000119 z m 0.559768,1.015047 0.552305,0.164198 q -0.306007,0.68665 -0.820994,1.268809 -0.507523,0.574696 -1.074755,0.955338 -0.03732,-0.06717 -0.111954,-0.156735 -0.06717,-0.0821 -0.149272,-0.171662 -0.07464,-0.0821 -0.134344,-0.126881 0.544841,-0.328398 1.007583,-0.828458 0.470206,-0.507523 0.731431,-1.104609 z m 1.097146,0.01493 0.567232,0.134344 q -0.231371,0.723967 -0.634404,1.343445 -0.39557,0.612013 -0.880702,1.02251 -0.03732,-0.05224 -0.119418,-0.126881 -0.0821,-0.07464 -0.171662,-0.149271 -0.08956,-0.07464 -0.156735,-0.119418 0.477669,-0.365715 0.835921,-0.910556 0.365715,-0.552305 0.559768,-1.194173 z m 0.89563,-0.238835 h 0.649331 q 0,0 -0.0075,0.10449 0,0.09703 -0.0075,0.156736 -0.03732,0.738894 -0.08956,1.201636 -0.05225,0.462742 -0.119417,0.70904 -0.06717,0.246298 -0.156735,0.350788 -0.09703,0.111954 -0.201517,0.156735 -0.09703,0.04478 -0.231371,0.06717 -0.111953,0.01493 -0.298543,0.01493 -0.186589,0.0075 -0.39557,-0.0075 -0.0075,-0.134344 -0.05224,-0.306007 -0.04478,-0.164198 -0.111953,-0.283616 0.179125,0.01493 0.320933,0.02239 0.141808,0.0075 0.216444,0.0075 0.07464,0 0.119418,-0.01493 0.04478,-0.01493 0.0821,-0.05971 0.06717,-0.06717 0.111954,-0.283616 0.05224,-0.216444 0.09703,-0.634404 0.04478,-0.417961 0.07464,-1.097147 z m -2.343564,-2.403273 v 0.492597 h 1.977849 v -0.492597 z m 0,-0.962801 v 0.485132 h 1.977849 V 44.401781 Z M 51.89072,43.894257 h 3.291439 v 2.477909 H 51.89072 Z m -2.761525,0.02985 h 1.753942 v 0.634405 h -1.134465 v 5.978327 h -0.619477 z m 1.544961,0 h 0.111954 l 0.10449,-0.02985 0.462742,0.268689 q -0.10449,0.31347 -0.223907,0.671722 -0.119418,0.350788 -0.246298,0.694113 -0.119418,0.343325 -0.238835,0.641868 0.380643,0.447815 0.50006,0.835921 0.119417,0.388106 0.119417,0.731431 0,0.320934 -0.07464,0.552305 -0.06717,0.231371 -0.238834,0.350788 -0.0821,0.05971 -0.18659,0.09703 -0.09703,0.02985 -0.216443,0.05224 -0.216444,0.02239 -0.492597,0.0075 -0.0075,-0.126881 -0.05224,-0.298543 -0.03732,-0.179126 -0.111954,-0.306007 0.111954,0.0075 0.208981,0.0075 0.09703,0 0.179126,0 0.141808,-0.0075 0.223907,-0.06717 0.07464,-0.05971 0.10449,-0.18659 0.02985,-0.126881 0.02985,-0.29108 0,-0.283616 -0.119417,-0.641867 -0.119417,-0.358252 -0.485133,-0.768749 0.09703,-0.253762 0.18659,-0.544841 0.08956,-0.29108 0.171662,-0.58216 0.08956,-0.298543 0.156736,-0.552305 0.07464,-0.261225 0.12688,-0.440351 z"
           id="text5-9"
           style="font-weight:500;font-size:7.46358px;line-height:1.25;font-family:'Noto Sans JP';-inkscape-font-specification:'Noto Sans JP Medium';fill:#ffffff;stroke-width:0.266556"
           aria-label="昆陽" />
        <path
           style="font-weight:500;font-size:7.46358px;line-height:1.25;font-family:'Noto Sans KR';-inkscape-font-specification:'Noto Sans KR Medium';fill:#ffffff;stroke-width:0.266556"
           d="m 65.204902,44.087244 h 4.358731 v 0.634405 H 65.204902 Z M 64.42869,46.97565 h 6.172381 v 0.626941 H 64.42869 Z m 4.642347,-2.888406 h 0.768749 v 0.58216 q 0,0.492596 -0.02985,1.074755 -0.02239,0.582159 -0.186589,1.358372 l -0.768749,-0.0821 q 0.164199,-0.753821 0.18659,-1.31359 0.02985,-0.567232 0.02985,-1.037437 z m 0.231371,1.321054 v 0.567232 l -4.179605,0.18659 -0.10449,-0.641868 z M 67.16036,47.26673 h 0.783676 v 1.724087 H 67.16036 Z m -1.977848,2.567471 h 4.776691 v 0.634404 h -4.776691 z m 0,-1.492716 h 0.776212 v 1.664378 h -0.776212 z m 11.202834,-3.619836 h 1.171782 v 0.641868 h -1.171782 z m 0,1.462861 h 1.171782 v 0.649332 h -1.171782 z m -3.194412,-2.007703 q 0.52245,0 0.932947,0.208981 0.410497,0.20898 0.641868,0.574695 0.238834,0.365716 0.238834,0.843385 0,0.477669 -0.238834,0.843384 -0.231371,0.365716 -0.641868,0.574696 -0.410497,0.20898 -0.932947,0.20898 -0.514988,0 -0.925484,-0.20898 -0.410497,-0.20898 -0.649332,-0.574696 -0.231371,-0.365715 -0.231371,-0.843384 0,-0.477669 0.231371,-0.843385 0.238835,-0.365715 0.649332,-0.574695 0.410496,-0.208981 0.925484,-0.208981 z m 0,0.656795 q -0.298544,0 -0.537378,0.119418 -0.231371,0.119417 -0.373179,0.343324 -0.134345,0.216444 -0.134345,0.507524 0,0.298543 0.134345,0.514987 0.141808,0.216444 0.373179,0.335861 0.238834,0.119417 0.537378,0.119417 0.306006,0 0.544841,-0.119417 0.238834,-0.119417 0.373179,-0.335861 0.134344,-0.216444 0.134344,-0.514987 0,-0.29108 -0.134344,-0.507524 -0.134345,-0.223907 -0.373179,-0.343324 -0.238835,-0.119418 -0.544841,-0.119418 z m 2.64957,-1.044901 h 0.776213 v 4.007943 h -0.776213 z m -1.41808,4.194532 q 0.701577,0 1.2091,0.156735 0.507524,0.156736 0.783676,0.447815 0.276153,0.29108 0.276153,0.701577 0,0.410497 -0.276153,0.701576 -0.276152,0.29108 -0.783676,0.447815 -0.507523,0.156735 -1.2091,0.156735 -0.701576,0 -1.2091,-0.156735 -0.507523,-0.156735 -0.783676,-0.447815 -0.276152,-0.291079 -0.276152,-0.701576 0,-0.410497 0.276152,-0.701577 0.276153,-0.291079 0.783676,-0.447815 0.507524,-0.156735 1.2091,-0.156735 z m 0,0.619477 q -0.470205,0 -0.806066,0.0821 -0.335862,0.07464 -0.514987,0.231371 -0.179126,0.149271 -0.179126,0.373179 0,0.223907 0.179126,0.380642 0.179125,0.156736 0.514987,0.238835 0.335861,0.07464 0.806066,0.07464 0.477669,0 0.806067,-0.07464 0.335861,-0.0821 0.514987,-0.238835 0.179126,-0.156735 0.179126,-0.380642 0,-0.223908 -0.179126,-0.373179 -0.179126,-0.156735 -0.514987,-0.231371 -0.328398,-0.0821 -0.806067,-0.0821 z"
           id="text5-9-8"
           aria-label="쿤양" />
      </g>
      <text
         xml:space="preserve"
         transform="matrix(0.31615295,0,0,0.31615295,-23.186545,-6.4462013)"
         id="text6"
         style="font-size:55px;line-height:1.25;font-family:'Microsoft JhengHei';-inkscape-font-specification:'Microsoft JhengHei';white-space:pre;shape-inside:url(#rect6);display:inline" />
    </g>
  </g>
</svg>
