<?xml version="1.0" encoding="UTF-8" standalone="no"?>
<!-- Created with Inkscape (http://www.inkscape.org/) -->

<svg
   width="500"
   height="250"
   viewBox="0 0 132.29166 66.145833"
   version="1.1"
   id="svg1"
   inkscape:version="1.3.2 (091e20e, 2023-11-25, custom)"
   sodipodi:docname="bl22.svg"
   xmlns:inkscape="http://www.inkscape.org/namespaces/inkscape"
   xmlns:sodipodi="http://sodipodi.sourceforge.net/DTD/sodipodi-0.dtd"
   xmlns="http://www.w3.org/2000/svg"
   xmlns:svg="http://www.w3.org/2000/svg">
  <sodipodi:namedview
     id="namedview1"
     pagecolor="#9e652e"
     bordercolor="#ffffff"
     borderopacity="1"
     inkscape:showpageshadow="0"
     inkscape:pageopacity="0"
     inkscape:pagecheckerboard="false"
     inkscape:deskcolor="#d1d1d1"
     inkscape:document-units="mm"
     inkscape:zoom="2.0208096"
     inkscape:cx="256.33291"
     inkscape:cy="106.88785"
     inkscape:window-width="1920"
     inkscape:window-height="1009"
     inkscape:window-x="1912"
     inkscape:window-y="-8"
     inkscape:window-maximized="1"
     inkscape:current-layer="layer1" />
  <defs
     id="defs1">
    <rect
       x="560.66638"
       y="34.144731"
       width="279.32397"
       height="128.59143"
       id="rect6" />
    <rect
       x="157.85752"
       y="62.351248"
       width="375.73891"
       height="119.77096"
       id="rect4" />
    <rect
       x="157.85751"
       y="62.35125"
       width="329.07602"
       height="135.09438"
       id="rect4-5" />
    <rect
       x="157.85751"
       y="62.35125"
       width="329.07602"
       height="135.09438"
       id="rect4-5-1" />
    <rect
       x="157.85751"
       y="62.35125"
       width="329.07602"
       height="135.09438"
       id="rect4-5-7" />
    <rect
       x="157.85751"
       y="62.35125"
       width="403.72608"
       height="88.907969"
       id="rect4-5-2" />
  </defs>
  <g
     inkscape:label="Layer 1"
     inkscape:groupmode="layer"
     id="layer1">
    <rect
       style="fill:#005fb9;fill-opacity:1;stroke:none;stroke-width:0.953294;stroke-dasharray:none"
       id="rect5"
       width="132.29167"
       height="66.145836"
       x="-2.5431316e-06"
       y="-1.2715658e-06"
       ry="0" />
    <g
       id="g3"
       transform="matrix(0.96510236,0,0,0.96510236,23.471098,1.1541646)">
      <g
         id="g2"
         transform="translate(-0.7595773)">
        <path
           id="rect1"
           style="fill-opacity:0;stroke:#ffffff;stroke-width:0.960404"
           d="m 16.906102,14.003039 h 12.657305 c 4.000431,0 7.220995,3.220564 7.220995,7.220995 v 23.697769 c 0,4.000432 -3.220564,7.220995 -7.220995,7.220995 H 16.906102 c -4.000431,0 -7.2209948,-3.220563 -7.2209948,-7.220995 V 21.224034 c 0,-4.000431 3.2205638,-7.220995 7.2209948,-7.220995 z" />
        <path
           style="font-size:12.7947px;line-height:1.25;font-family:'AR UDJingXiHeiE1G30 EB';-inkscape-font-specification:'AR UDJingXiHeiE1G30 EB';fill:#ffffff;stroke-width:0.266556"
           d="m 19.569068,30.474609 h -4.861986 v -9.250568 h 4.452555 q 1.317854,0 2.085536,0.639735 0.767682,0.639735 0.767682,1.701695 0,0.690914 -0.307073,1.215497 -0.294278,0.511788 -0.895629,0.84445 0.780477,0.307073 1.177113,0.84445 0.40943,0.537378 0.40943,1.27947 0,1.228291 -0.806066,1.983179 -0.806066,0.742092 -2.021562,0.742092 z m 0.754887,-6.704422 q 0,-0.626941 -0.358252,-0.946808 -0.358251,-0.332662 -1.03637,-0.332662 h -2.597324 v 2.610118 h 2.686886 q 0.575762,0 0.934014,-0.332662 0.371046,-0.345457 0.371046,-0.997986 z m 0.383841,3.966356 q 0,-0.665324 -0.409431,-1.010781 Q 19.90173,26.367511 19.2492,26.367511 h -2.917191 v 2.840423 h 2.891602 q 0.678119,0 1.074754,-0.371046 0.409431,-0.371047 0.409431,-1.100345 z m 9.813543,2.738066 h -6.499708 v -9.250568 h 1.624927 v 7.983893 h 4.874781 z"
           id="text2"
           aria-label="BL" />
        <path
           style="font-size:14.6606px;line-height:1.25;font-family:'AR UDJingXiHeiE1G30 EB';-inkscape-font-specification:'AR UDJingXiHeiE1G30 EB';fill:#ffffff;stroke-width:0.266556"
           d="m 15.391321,37.793288 q 0,-1.641987 0.996921,-2.580265 0.996921,-0.952939 2.609587,-0.952939 1.656647,0 2.580265,0.835654 0.938279,0.820994 0.938279,2.287054 0,1.040902 -0.674388,2.096465 -0.659727,1.040903 -2.081805,2.301715 l -1.993842,1.803253 h 4.720713 v 1.4514 H 15.347339 V 43.70151 l 2.961441,-2.668229 q 1.304794,-1.187509 1.817915,-2.023163 0.527781,-0.850315 0.527781,-1.627326 0,-0.73303 -0.425157,-1.187509 -0.425157,-0.454478 -1.23149,-0.454478 -0.806333,0 -1.304794,0.557102 -0.49846,0.557103 -0.49846,1.495381 z m 8.723046,0 q 0,-1.641987 0.996921,-2.580265 0.996921,-0.952939 2.609587,-0.952939 1.656648,0 2.580265,0.835654 0.938279,0.820994 0.938279,2.287054 0,1.040902 -0.674388,2.096465 -0.659727,1.040903 -2.081805,2.301715 l -1.993841,1.803253 h 4.720713 v 1.4514 H 24.070386 V 43.70151 l 2.961441,-2.668229 q 1.304793,-1.187509 1.817914,-2.023163 0.527782,-0.850315 0.527782,-1.627326 0,-0.73303 -0.425158,-1.187509 -0.425157,-0.454478 -1.23149,-0.454478 -0.806333,0 -1.304793,0.557102 -0.498461,0.557103 -0.498461,1.495381 z"
           id="text3"
           aria-label="22" />
        <path
           style="font-weight:500;font-size:72px;line-height:1.25;font-family:'Noto Sans TC';-inkscape-font-specification:'Noto Sans TC Medium';white-space:pre;fill:#ffffff"
           d="m 162.03342,81.297406 h 63.648 v 6.408 h -63.648 z m 15.264,29.808004 h 33.264 v 5.4 h -33.264 z m -1.512,11.592 h 36.216 v 5.616 h -36.216 z m 14.616,-8.928 h 6.48 v 26.064 h -6.48 z m -24.984,-19.440004 h 52.128 v 6.336004 h -45.288 v 40.68 h -6.84 z m 50.04,0 h 6.912 v 39.744004 q 0,2.736 -0.72,4.176 -0.72,1.44 -2.736,2.16 -1.944,0.72 -5.112,0.864 -3.096,0.144 -7.488,0.144 -0.216,-1.296 -0.936,-3.024 -0.648,-1.656 -1.368,-2.88 2.088,0.072 4.032,0.072 2.016,0.072 3.6,0 1.584,0 2.16,0 1.008,0 1.296,-0.288 0.36,-0.36 0.36,-1.224 z m -34.848,8.496004 5.4,-1.656 q 1.368,1.872 2.592,4.176 1.224,2.304 1.8,4.032 l -5.76,2.016 q -0.432,-1.8 -1.656,-4.176 -1.152,-2.448 -2.376,-4.392 z m 21.24,-1.656 5.76,1.728 q -1.368,2.664 -2.88,5.328 -1.512,2.664 -2.88,4.536 l -4.896,-1.512 q 0.864,-1.368 1.728,-3.168 0.936,-1.8 1.728,-3.6 0.864,-1.8 1.44,-3.312 z m -11.664,-26.280004 h 7.488 v 23.832 h -7.488 z m 70.2,33.912004 h 6.264 v 23.112 q 0,1.944 0.864,2.52 0.936,0.504 4.176,0.504 0.576,0 1.944,0 1.368,0 3.168,0 1.8,0 3.528,0 1.8,0 3.312,0 1.512,0 2.232,0 1.8,0 2.664,-0.504 0.864,-0.576 1.224,-2.232 0.432,-1.728 0.576,-5.04 1.152,0.792 2.808,1.44 1.728,0.648 3.096,1.008 -0.432,4.392 -1.44,6.84 -0.936,2.52 -2.952,3.456 -1.944,1.008 -5.472,1.008 -0.576,0 -2.16,0 -1.512,0 -3.528,0 -1.944,0 -3.96,0 -1.944,0 -3.456,0 -1.512,0 -2.088,0 -4.176,0 -6.552,-0.792 -2.376,-0.72 -3.312,-2.664 -0.936,-1.944 -0.936,-5.472 z m -24.552,-28.656004 3.816,-5.04 q 2.16,0.864 4.536,2.16 2.376,1.296 4.464,2.664 2.088,1.296 3.456,2.592 l -4.032,5.544 q -1.224,-1.224 -3.312,-2.664 -2.016,-1.44 -4.392,-2.808 -2.376,-1.44 -4.536,-2.448 z m -3.744,19.44 3.744,-5.112 q 2.232,0.792 4.608,2.016 2.376,1.152 4.464,2.448 2.088,1.296004 3.456,2.448004 l -3.96,5.688 q -1.224,-1.224 -3.312,-2.592 -2.088,-1.368 -4.464,-2.664 -2.304,-1.296 -4.536,-2.232004 z m 1.872,36.936004 q 1.728,-2.808 3.744,-6.624 2.016,-3.816 4.104,-8.136 2.088,-4.32 3.888,-8.424 l 5.328,4.104 q -1.584,3.816 -3.456,7.848 -1.8,4.032 -3.744,7.992 -1.872,3.888 -3.744,7.344 z m 29.376,-27.72 h 24.12 v 16.776 h -24.12 v -5.256 h 18 v -6.264 h -18 z m -11.016,-25.992004 h 45.144 v 6.12 h -45.144 z m -2.88,13.176 h 50.112 v 6.192004 h -50.112 z m 12.24,-21.24 h 6.624 v 25.488004 h -6.624 z m 18.936,0 h 6.696 v 25.632004 h -6.696 z m -18,25.128 5.832,2.016004 q -1.728,3.96 -4.248,7.776 -2.448,3.816 -5.4,7.056 -2.952,3.24 -6.048,5.4 -0.504,-0.792 -1.368,-1.728 -0.792,-0.936 -1.728,-1.872 -0.864,-0.936 -1.584,-1.512 2.88,-1.8 5.616,-4.536 2.808,-2.736 5.112,-5.976 2.304,-3.24 3.816,-6.624004 z m 23.76,-0.216 q 1.368,3.240004 3.6,6.408004 2.304,3.096 5.04,5.688 2.808,2.592 5.76,4.176 -0.792,0.648 -1.728,1.584 -0.936,0.936 -1.728,1.944 -0.792,1.008 -1.368,1.872 -3.096,-2.088 -6.048,-5.184 -2.88,-3.168 -5.256,-6.912 -2.376,-3.744 -4.032,-7.632 z"
           id="text4"
           transform="matrix(0.26655641,0,0,0.26655641,-1.475616,-4.7571419)"
           aria-label="南港" />
        <path
           style="font-size:7.46358px;line-height:1.25;font-family:'AR UDJingXiHeiE1G30 EB';-inkscape-font-specification:'AR UDJingXiHeiE1G30 EB';fill:#ffffff;stroke-width:0.266556"
           d="M 42.79018,37.136411 V 41.0324 h -0.947875 v -5.396168 h 0.977729 l 2.649571,3.985551 V 35.636232 H 46.41748 V 41.0324 h -1.037438 z m 7.739728,1.716624 -0.850849,-2.306247 -0.865775,2.306247 z m -1.992776,0.738894 -0.537378,1.440471 h -0.962802 l 2.171902,-5.396168 h 0.970265 L 52.336094,41.0324 H 51.350901 L 50.80606,39.591929 Z m 5.366307,-2.455518 V 41.0324 h -0.947875 v -5.396168 h 0.977729 l 2.649571,3.985551 v -3.985551 h 0.947875 V 41.0324 h -1.037438 z m 8.829411,3.239194 q -0.276153,0.388106 -0.694113,0.574696 -0.410497,0.179126 -0.940412,0.179126 -1.164318,0 -1.850967,-0.731431 -0.68665,-0.738895 -0.68665,-2.059948 0,-1.328518 0.723968,-2.059949 0.723967,-0.73143 1.955458,-0.73143 0.992656,0 1.612133,0.455278 0.626941,0.447815 0.753821,1.283736 h -0.947874 q -0.07464,-0.440351 -0.440351,-0.716504 -0.358252,-0.283616 -0.977729,-0.283616 -0.828458,0 -1.261346,0.537378 -0.432887,0.529914 -0.432887,1.515107 0,1.052364 0.455278,1.552424 0.455279,0.492597 1.238955,0.492597 0.686649,0 1.089682,-0.403034 0.403034,-0.403033 0.403034,-0.925484 v -0.111953 h -1.530034 v -0.738895 h 2.44059 V 41.0324 H 62.73285 Z m 4.903569,-1.52257 -0.850848,-2.306247 -0.865776,2.306247 z m -1.992776,0.738894 -0.537378,1.440471 h -0.962802 l 2.171902,-5.396168 H 67.28563 L 69.442605,41.0324 H 68.457412 L 67.912571,39.591929 Z M 71.00995,37.136411 V 41.0324 h -0.947875 v -5.396168 h 0.977729 l 2.649571,3.985551 V 35.636232 H 74.63725 V 41.0324 h -1.037438 z m 8.82941,3.239194 q -0.276153,0.388106 -0.694113,0.574696 -0.410497,0.179126 -0.940411,0.179126 -1.164319,0 -1.850968,-0.731431 -0.68665,-0.738895 -0.68665,-2.059948 0,-1.328518 0.723968,-2.059949 0.723967,-0.73143 1.955458,-0.73143 0.992656,0 1.612133,0.455278 0.626941,0.447815 0.753822,1.283736 h -0.947875 q -0.07464,-0.440351 -0.440351,-0.716504 -0.358252,-0.283616 -0.977729,-0.283616 -0.828458,0 -1.261345,0.537378 -0.432888,0.529914 -0.432888,1.515107 0,1.052364 0.455278,1.552424 0.455279,0.492597 1.238955,0.492597 0.686649,0 1.089682,-0.403034 0.403034,-0.403033 0.403034,-0.925484 v -0.111953 h -1.530034 v -0.738895 h 2.44059 V 41.0324 H 79.83936 Z"
           id="text5"
           aria-label="NANGANG" />
        <path
           d="m 41.523807,44.289827 h 6.597805 v 0.664258 h -6.597805 z m 1.582279,3.089922 h 3.448174 v 0.559769 h -3.448174 z m -0.156735,1.201636 h 3.754181 v 0.58216 h -3.754181 z m 1.515107,-0.925484 h 0.671722 v 2.701817 h -0.671722 z m -2.589863,-2.015166 h 5.403632 v 0.656795 h -4.694591 v 4.216923 h -0.709041 z m 5.187189,0 h 0.716503 v 4.119896 q 0,0.283616 -0.07464,0.432888 -0.07464,0.149271 -0.283616,0.223907 -0.201516,0.07464 -0.529914,0.08956 -0.320934,0.01493 -0.776212,0.01493 -0.02239,-0.134344 -0.09703,-0.31347 -0.06717,-0.171662 -0.141808,-0.298543 0.216444,0.0075 0.417961,0.0075 0.20898,0.0075 0.373179,0 0.164199,0 0.223907,0 0.10449,0 0.134345,-0.02985 0.03732,-0.03732 0.03732,-0.126881 z m -3.612373,0.880702 0.559768,-0.171662 q 0.141808,0.194053 0.268689,0.432888 0.126881,0.238834 0.18659,0.41796 l -0.597087,0.20898 q -0.04478,-0.186589 -0.171662,-0.432887 -0.119417,-0.253762 -0.246298,-0.455279 z m 2.201756,-0.171662 0.597086,0.179126 q -0.141808,0.276152 -0.298543,0.552305 -0.156735,0.276152 -0.298543,0.470205 l -0.507523,-0.156735 q 0.08956,-0.141808 0.179125,-0.328397 0.09703,-0.18659 0.179126,-0.373179 0.08956,-0.18659 0.149272,-0.343325 z m -1.2091,-2.724207 h 0.776212 v 2.470445 h -0.776212 z m 6.44107,0.783676 h 4.679664 v 0.641868 h -4.679664 z m -0.298544,1.373299 h 5.194652 v 0.641868 h -5.194652 z m 1.268809,-2.171902 h 0.686649 v 2.642107 h -0.686649 z m 1.962922,0 h 0.694113 v 2.657035 h -0.694113 z m -1.865895,2.574935 0.60455,0.20898 q -0.179126,0.410497 -0.440352,0.806067 -0.253761,0.39557 -0.559768,0.731431 -0.306007,0.335861 -0.626941,0.559768 -0.05224,-0.0821 -0.141808,-0.179125 -0.0821,-0.104491 -0.179126,-0.194054 -0.08956,-0.09703 -0.164199,-0.156735 0.298544,-0.186589 0.58216,-0.470205 0.291079,-0.283616 0.529914,-0.619477 0.238834,-0.343325 0.39557,-0.68665 z m 2.462981,-0.02239 q 0.141808,0.328398 0.373179,0.656796 0.238835,0.328397 0.522451,0.597086 0.291079,0.261225 0.597086,0.432888 -0.0821,0.06717 -0.179126,0.164198 -0.09703,0.08956 -0.179126,0.201517 -0.0821,0.10449 -0.141808,0.194053 -0.320934,-0.216444 -0.626941,-0.537378 -0.298543,-0.328397 -0.544841,-0.716503 -0.246298,-0.388107 -0.41796,-0.79114 z m -2.507763,2.179366 h 1.895749 v -0.68665 h -1.798722 v -0.559768 h 2.448054 v 1.81365 h -2.545081 z m -0.298543,0 h 0.664259 v 1.298663 q 0,0.156735 0.09703,0.20898 0.09703,0.04478 0.447815,0.04478 0.05971,0 0.201517,0 0.141808,0 0.328397,0 0.18659,0 0.373179,0 0.18659,0 0.343325,0 0.156735,0 0.238834,0 0.18659,0 0.276153,-0.05225 0.09703,-0.05971 0.134344,-0.231371 0.04478,-0.179125 0.06717,-0.529914 0.111954,0.0821 0.29108,0.149272 0.18659,0.06717 0.320934,0.09703 -0.03732,0.47767 -0.141808,0.731431 -0.10449,0.261226 -0.31347,0.358252 -0.208981,0.09703 -0.589623,0.09703 -0.05224,0 -0.216444,0 -0.164199,0 -0.373179,0 -0.201517,0 -0.410497,0 -0.20898,0 -0.373179,0 -0.156735,0 -0.20898,0 -0.447815,0 -0.701577,-0.07464 -0.253761,-0.07464 -0.358252,-0.261225 -0.09703,-0.18659 -0.09703,-0.529915 z m -2.433127,-4.172141 0.39557,-0.522451 q 0.223907,0.08956 0.470205,0.223907 0.246298,0.134345 0.462742,0.276153 0.216444,0.134344 0.358252,0.268689 l -0.417961,0.574695 Q 50.315905,44.864523 50.099461,44.715251 49.89048,44.565979 49.644182,44.424171 49.397884,44.2749 49.173977,44.17041 Z m -0.388106,2.015166 0.388106,-0.529914 q 0.231371,0.0821 0.477669,0.20898 0.246298,0.119418 0.462742,0.253762 0.216444,0.134344 0.358252,0.253762 l -0.410497,0.589623 Q 49.935262,46.834908 49.718818,46.6931 49.502374,46.551292 49.256076,46.416947 49.017242,46.282603 48.785871,46.185576 Z m 0.194053,3.828817 q 0.179126,-0.29108 0.388106,-0.68665 0.20898,-0.395569 0.425424,-0.843384 0.216444,-0.447815 0.403033,-0.873239 l 0.552305,0.425424 q -0.164199,0.39557 -0.358252,0.81353 -0.186589,0.417961 -0.388106,0.828458 -0.194053,0.403033 -0.388106,0.761285 z"
           id="text5-9"
           style="font-weight:500;font-size:7.46358px;line-height:1.25;font-family:'Noto Sans JP';-inkscape-font-specification:'Noto Sans JP Medium';fill:#ffffff;stroke-width:0.266556"
           aria-label="南港" />
        <path
           style="font-weight:500;font-size:7.46358px;line-height:1.25;font-family:'Noto Sans KR';-inkscape-font-specification:'Noto Sans KR Medium';fill:#ffffff;stroke-width:0.266556"
           d="m 64.734697,44.258907 h 0.776212 v 2.866015 h -0.776212 z m 0,2.619716 h 0.552305 q 0.716503,0 1.477789,-0.05971 0.768748,-0.05971 1.597206,-0.223908 l 0.08956,0.634405 q -0.843385,0.171662 -1.634524,0.238834 -0.783676,0.05971 -1.530034,0.05971 h -0.552305 z m 4.239313,-3.089922 h 0.776213 V 48.7072 H 68.97401 Z m 0.544842,1.970385 h 1.194172 v 0.664259 H 69.518852 Z M 65.4512,49.834201 h 4.530394 v 0.634404 H 65.4512 Z m 0,-1.597206 h 0.783676 v 1.925604 H 65.4512 Z m 10.389304,-4.455757 h 0.776213 v 4.022869 h -0.776213 z m 0.567233,1.686769 h 1.171782 v 0.649331 h -1.171782 z m -2.485373,-1.2091 h 0.843385 q 0,0.895629 -0.380643,1.612133 -0.380642,0.70904 -1.089682,1.224027 -0.701577,0.507524 -1.701697,0.79114 l -0.320934,-0.626941 q 0.850849,-0.238835 1.440471,-0.626941 0.589623,-0.39557 0.89563,-0.903093 0.31347,-0.507523 0.31347,-1.097146 z m -2.3361,0 h 2.798842 v 0.634404 h -2.798842 z m 2.866015,3.634763 q 0.679185,0 1.179245,0.164199 0.507524,0.164199 0.783676,0.470206 0.283616,0.298543 0.283616,0.716503 0,0.417961 -0.283616,0.723968 -0.276152,0.298543 -0.783676,0.462742 -0.50006,0.171662 -1.179245,0.171662 -0.679186,0 -1.194173,-0.171662 -0.507524,-0.164199 -0.783676,-0.462742 -0.276153,-0.306007 -0.276153,-0.723968 0,-0.41796 0.276153,-0.716503 0.276152,-0.306007 0.783676,-0.470206 0.514987,-0.164199 1.194173,-0.164199 z m 0,0.612014 q -0.455279,0 -0.79114,0.08956 -0.328397,0.0821 -0.514987,0.253762 -0.179126,0.164198 -0.179126,0.395569 0,0.231371 0.179126,0.403034 0.18659,0.164198 0.514987,0.253761 0.335861,0.0821 0.79114,0.0821 0.455278,0 0.783675,-0.0821 0.335862,-0.08956 0.514987,-0.253761 0.179126,-0.171663 0.179126,-0.403034 0,-0.231371 -0.179126,-0.395569 -0.179125,-0.171663 -0.514987,-0.253762 -0.328397,-0.08956 -0.783675,-0.08956 z"
           id="text5-9-8"
           aria-label="난강" />
      </g>
      <text
         xml:space="preserve"
         transform="matrix(0.31615295,0,0,0.31615295,-23.186545,-6.4462013)"
         id="text6"
         style="font-size:55px;line-height:1.25;font-family:'Microsoft JhengHei';-inkscape-font-specification:'Microsoft JhengHei';white-space:pre;shape-inside:url(#rect6);display:inline" />
    </g>
  </g>
</svg>
