<?xml version="1.0" encoding="UTF-8" standalone="no"?>
<!-- Created with Inkscape (http://www.inkscape.org/) -->

<svg
   width="500"
   height="250"
   viewBox="0 0 132.29166 66.145833"
   version="1.1"
   id="svg1"
   inkscape:version="1.1 (c68e22c387, 2021-05-23)"
   sodipodi:docname="bl23.svg"
   xmlns:inkscape="http://www.inkscape.org/namespaces/inkscape"
   xmlns:sodipodi="http://sodipodi.sourceforge.net/DTD/sodipodi-0.dtd"
   xmlns="http://www.w3.org/2000/svg"
   xmlns:svg="http://www.w3.org/2000/svg">
  <sodipodi:namedview
     id="namedview1"
     pagecolor="#9e652e"
     bordercolor="#ffffff"
     borderopacity="1"
     inkscape:showpageshadow="0"
     inkscape:pageopacity="0"
     inkscape:pagecheckerboard="false"
     inkscape:deskcolor="#d1d1d1"
     inkscape:document-units="mm"
     inkscape:zoom="1.4289282"
     inkscape:cx="252.63691"
     inkscape:cy="109.87256"
     inkscape:window-width="1920"
     inkscape:window-height="1094"
     inkscape:window-x="-11"
     inkscape:window-y="-11"
     inkscape:window-maximized="1"
     inkscape:current-layer="g2"
     inkscape:pageshadow="0"
     showgrid="false" />
  <defs
     id="defs1">
    <rect
       x="560.66638"
       y="34.144731"
       width="279.32397"
       height="128.59143"
       id="rect6" />
    <rect
       x="157.85752"
       y="62.351248"
       width="364.10159"
       height="132.09497"
       id="rect4" />
    <rect
       x="157.85751"
       y="62.35125"
       width="329.07602"
       height="135.09438"
       id="rect4-5" />
  </defs>
  <g
     inkscape:label="Layer 1"
     inkscape:groupmode="layer"
     id="layer1">
    <rect
       style="fill:#ebf5ff;fill-opacity:1;stroke:none;stroke-width:0.953294;stroke-dasharray:none"
       id="rect5"
       width="132.29167"
       height="66.145836"
       x="-2.5431316e-06"
       y="-1.2715658e-06"
       ry="0" />
    <g
       id="g4"
       transform="matrix(0.73099958,0,0,0.73099958,-9.5294063,8.8966279)">
      <g
         id="g1"
         transform="translate(3.667187)">
        <g
           id="g2">
          <g
             id="g843"
             transform="matrix(1.0688042,0,0,1.0688042,-0.28837888,-2.2755544)">
            <path
               id="rect1"
               style="fill:none;fill-opacity:0;stroke:#000000;stroke-width:0.942789"
               d="M 20.265186,14.352791 H 32.69035 c 3.927062,0 7.088559,3.161497 7.088559,7.088559 v 23.263136 c 0,3.927062 -3.161497,7.088559 -7.088559,7.088559 H 20.265186 c -3.927062,0 -7.088559,-3.161497 -7.088559,-7.088559 V 21.44135 c 0,-3.927062 3.161497,-7.088559 7.088559,-7.088559 z" />
            <path
               style="font-size:12.56px;line-height:1.25;font-family:'AR UDJingXiHeiE1G30 EB';-inkscape-font-specification:'AR UDJingXiHeiE1G30 EB';stroke-width:0.261667"
               d="m 22.879293,30.522264 h -4.7728 v -9.08088 h 4.37088 q 1.29368,0 2.04728,0.628 0.7536,0.628 0.7536,1.67048 0,0.67824 -0.30144,1.1932 -0.28888,0.5024 -0.8792,0.82896 0.76616,0.30144 1.15552,0.82896 0.40192,0.52752 0.40192,1.256 0,1.20576 -0.79128,1.9468 -0.79128,0.72848 -1.98448,0.72848 z m 0.74104,-6.58144 q 0,-0.61544 -0.35168,-0.92944 -0.35168,-0.32656 -1.01736,-0.32656 h -2.54968 v 2.56224 h 2.6376 q 0.5652,0 0.91688,-0.32656 0.36424,-0.33912 0.36424,-0.97968 z m 0.3768,3.8936 q 0,-0.65312 -0.40192,-0.99224 -0.38936,-0.35168 -1.02992,-0.35168 h -2.86368 v 2.78832 h 2.83856 q 0.66568,0 1.05504,-0.36424 0.40192,-0.36424 0.40192,-1.08016 z m 9.633528,2.68784 h -6.38048 v -9.08088 h 1.59512 v 7.83744 h 4.78536 z"
               id="text2"
               aria-label="BL" />
            <path
               style="font-size:14.3917px;line-height:1.25;font-family:'AR UDJingXiHeiE1G30 EB';-inkscape-font-specification:'AR UDJingXiHeiE1G30 EB';stroke-width:0.261667"
               d="m 18.778186,37.706725 q 0,-1.611871 0.978636,-2.53294 0.978635,-0.93546 2.561722,-0.93546 1.626262,0 2.532939,0.820327 0.921069,0.805935 0.921069,2.245105 0,1.021811 -0.662018,2.058013 -0.647627,1.021811 -2.043622,2.259497 l -1.957271,1.770179 h 4.634128 v 1.424778 H 18.735011 V 43.50658 l 2.907123,-2.61929 q 1.280861,-1.165727 1.784571,-1.986054 0.518101,-0.834719 0.518101,-1.597479 0,-0.719585 -0.417359,-1.165728 -0.417359,-0.446142 -1.208903,-0.446142 -0.791543,0 -1.280861,0.546884 -0.489318,0.546885 -0.489318,1.467954 z m 11.959492,-2.043622 q -0.791543,0 -1.237686,0.474926 -0.446143,0.474926 -0.446143,1.237687 H 27.28367 q 0,-1.410387 0.921069,-2.273889 0.935461,-0.863502 2.532939,-0.863502 1.482345,0 2.403414,0.733977 0.921069,0.733976 0.921069,2.101188 0,0.748368 -0.316617,1.324036 -0.316618,0.575668 -0.949853,0.877894 0.805936,0.273442 1.237687,0.921069 0.446142,0.647626 0.446142,1.539912 0,1.539911 -0.978635,2.403413 -0.978636,0.863502 -2.720032,0.863502 -1.770179,0 -2.734423,-0.84911 -0.964243,-0.84911 -0.964243,-2.317064 h 1.78457 q 0,0.777152 0.518102,1.26647 0.532492,0.474926 1.410386,0.474926 0.863502,0 1.35282,-0.474926 0.503709,-0.474926 0.503709,-1.35282 0,-0.733976 -0.460534,-1.194511 -0.460534,-0.474926 -1.324036,-0.474926 h -0.647627 v -1.424778 h 0.647627 q 0.575668,0 0.964243,-0.41736 0.402968,-0.417359 0.402968,-1.122552 0,-0.647627 -0.388576,-1.050594 -0.388576,-0.402968 -1.108161,-0.402968 z"
               id="text3"
               aria-label="23" />
            <path
               style="font-weight:500;font-size:72px;line-height:1.25;font-family:'Noto Sans TC';-inkscape-font-specification:'Noto Sans TC Medium';white-space:pre"
               d="m 162.03342,81.297406 h 63.648 v 6.408 h -63.648 z m 15.264,29.808004 h 33.264 v 5.4 h -33.264 z m -1.512,11.592 h 36.216 v 5.616 h -36.216 z m 14.616,-8.928 h 6.48 v 26.064 h -6.48 z m -24.984,-19.440004 h 52.128 v 6.336004 h -45.288 v 40.68 h -6.84 z m 50.04,0 h 6.912 v 39.744004 q 0,2.736 -0.72,4.176 -0.72,1.44 -2.736,2.16 -1.944,0.72 -5.112,0.864 -3.096,0.144 -7.488,0.144 -0.216,-1.296 -0.936,-3.024 -0.648,-1.656 -1.368,-2.88 2.088,0.072 4.032,0.072 2.016,0.072 3.6,0 1.584,0 2.16,0 1.008,0 1.296,-0.288 0.36,-0.36 0.36,-1.224 z m -34.848,8.496004 5.4,-1.656 q 1.368,1.872 2.592,4.176 1.224,2.304 1.8,4.032 l -5.76,2.016 q -0.432,-1.8 -1.656,-4.176 -1.152,-2.448 -2.376,-4.392 z m 21.24,-1.656 5.76,1.728 q -1.368,2.664 -2.88,5.328 -1.512,2.664 -2.88,4.536 l -4.896,-1.512 q 0.864,-1.368 1.728,-3.168 0.936,-1.8 1.728,-3.6 0.864,-1.8 1.44,-3.312 z m -11.664,-26.280004 h 7.488 v 23.832 h -7.488 z m 70.2,33.912004 h 6.264 v 23.112 q 0,1.944 0.864,2.52 0.936,0.504 4.176,0.504 0.576,0 1.944,0 1.368,0 3.168,0 1.8,0 3.528,0 1.8,0 3.312,0 1.512,0 2.232,0 1.8,0 2.664,-0.504 0.864,-0.576 1.224,-2.232 0.432,-1.728 0.576,-5.04 1.152,0.792 2.808,1.44 1.728,0.648 3.096,1.008 -0.432,4.392 -1.44,6.84 -0.936,2.52 -2.952,3.456 -1.944,1.008 -5.472,1.008 -0.576,0 -2.16,0 -1.512,0 -3.528,0 -1.944,0 -3.96,0 -1.944,0 -3.456,0 -1.512,0 -2.088,0 -4.176,0 -6.552,-0.792 -2.376,-0.72 -3.312,-2.664 -0.936,-1.944 -0.936,-5.472 z m -24.552,-28.656004 3.816,-5.04 q 2.16,0.864 4.536,2.16 2.376,1.296 4.464,2.664 2.088,1.296 3.456,2.592 l -4.032,5.544 q -1.224,-1.224 -3.312,-2.664 -2.016,-1.44 -4.392,-2.808 -2.376,-1.44 -4.536,-2.448 z m -3.744,19.44 3.744,-5.112 q 2.232,0.792 4.608,2.016 2.376,1.152 4.464,2.448 2.088,1.296004 3.456,2.448004 l -3.96,5.688 q -1.224,-1.224 -3.312,-2.592 -2.088,-1.368 -4.464,-2.664 -2.304,-1.296 -4.536,-2.232004 z m 1.872,36.936004 q 1.728,-2.808 3.744,-6.624 2.016,-3.816 4.104,-8.136 2.088,-4.32 3.888,-8.424 l 5.328,4.104 q -1.584,3.816 -3.456,7.848 -1.8,4.032 -3.744,7.992 -1.872,3.888 -3.744,7.344 z m 29.376,-27.72 h 24.12 v 16.776 h -24.12 v -5.256 h 18 v -6.264 h -18 z m -11.016,-25.992004 h 45.144 v 6.12 h -45.144 z m -2.88,13.176 h 50.112 v 6.192004 h -50.112 z m 12.24,-21.24 h 6.624 v 25.488004 h -6.624 z m 18.936,0 h 6.696 v 25.632004 h -6.696 z m -18,25.128 5.832,2.016004 q -1.728,3.96 -4.248,7.776 -2.448,3.816 -5.4,7.056 -2.952,3.24 -6.048,5.4 -0.504,-0.792 -1.368,-1.728 -0.792,-0.936 -1.728,-1.872 -0.864,-0.936 -1.584,-1.512 2.88,-1.8 5.616,-4.536 2.808,-2.736 5.112,-5.976 2.304,-3.24 3.816,-6.624004 z m 23.76,-0.216 q 1.368,3.240004 3.6,6.408004 2.304,3.096 5.04,5.688 2.808,2.592 5.76,4.176 -0.792,0.648 -1.728,1.584 -0.936,0.936 -1.728,1.944 -0.792,1.008 -1.368,1.872 -3.096,-2.088 -6.048,-5.184 -2.88,-3.168 -5.256,-6.912 -2.376,-3.744 -4.032,-7.632 z m 34.128,2.520004 h 46.944 v 5.76 h -46.944 z m -1.8,12.168 h 51.768 v 5.832 h -51.768 z m 11.88,-18.432004 h 6.264 v 21.456004 h -6.264 z m 19.08,0 h 6.408 v 21.312004 h -6.408 z m -38.016,-17.928 h 6.84 v 21.24 q 0,4.608004 -0.288,10.152004 -0.288,5.472 -1.152,11.232 -0.864,5.76 -2.592,11.16 -1.728,5.4 -4.608,9.864 -0.648,-0.576 -1.8,-1.296 -1.08,-0.648 -2.232,-1.296 -1.152,-0.576 -2.016,-0.936 2.736,-4.176 4.248,-9.144 1.584,-4.968 2.304,-10.152 0.792,-5.256 1.008,-10.224 0.288,-5.04 0.288,-9.360004 z m 4.104,0 h 50.616 v 17.856 h -50.616 v -5.832 h 43.776 v -6.192 h -43.776 z m 29.88,38.592004 q 3.024,7.488 9.504,12.456 6.552,4.896 16.2,6.84 -1.08,1.008 -2.232,2.664 -1.152,1.656 -1.872,2.952 -10.224,-2.52 -16.992,-8.496 -6.696,-5.976 -10.224,-15.12 z m 16.488,3.384 5.112,3.6 q -2.952,2.16 -6.48,4.248 -3.528,2.016 -6.408,3.456 l -4.392,-3.312 q 1.944,-1.008 4.176,-2.376 2.232,-1.368 4.32,-2.808 2.088,-1.512 3.672,-2.808 z m -37.368,21.744 -0.216,-5.112 2.664,-2.16 19.008,-3.96 q -0.216,1.296 -0.36,2.952 -0.144,1.656 -0.072,2.664 -6.408,1.512 -10.368,2.448 -3.888,1.008 -6.048,1.512 -2.088,0.576 -3.096,0.936 -0.936,0.36 -1.512,0.72 z m 0,0 q -0.144,-0.792 -0.648,-1.872 -0.432,-1.008 -0.936,-2.088 -0.504,-1.008 -1.008,-1.584 1.08,-0.648 2.304,-2.088 1.296,-1.512 1.296,-4.032 v -13.032 l 6.336,0.216 v 17.496 q 0,0 -0.72,0.504 -0.72,0.432 -1.872,1.224 -1.08,0.792 -2.16,1.728 -1.08,0.936 -1.872,1.872 -0.72,0.936 -0.72,1.656 z m 69.12,-25.704 v 2.952 h 31.68 v -2.952 z m 0,6.624 v 3.024 h 31.68 v -3.024 z m 0,-13.176 v 2.952 h 31.68 v -2.952 z m -6.408,-3.744 h 44.784 v 23.688 h -44.784 z m 26.136,21.456 h 6.624 v 6.336 q 0,1.224 0.648,1.584 0.72,0.288 3.096,0.288 0.504,0 1.872,0 1.44,0 3.096,0 1.656,0 3.096,0 1.44,0 2.16,0 1.296,0 1.944,-0.36 0.648,-0.432 0.936,-1.728 0.288,-1.296 0.36,-3.96 1.008,0.648 2.664,1.224 1.728,0.576 3.024,0.792 -0.36,3.744 -1.224,5.76 -0.792,2.016 -2.448,2.736 -1.656,0.792 -4.536,0.792 -0.504,0 -1.728,0 -1.152,0 -2.664,0 -1.512,0 -3.024,0 -1.44,0 -2.664,0 -1.152,0 -1.584,0 -3.816,0 -5.976,-0.648 -2.088,-0.576 -2.88,-2.088 -0.792,-1.512 -0.792,-4.32 z m -15.624,0.36 h 6.696 q -0.72,3.168 -2.304,5.544 -1.512,2.304 -4.392,3.96 -2.808,1.656 -7.344,2.736 -4.536,1.08 -11.232,1.728 -0.288,-1.152 -1.224,-2.736 -0.936,-1.584 -1.728,-2.52 5.904,-0.36 9.792,-1.008 3.888,-0.648 6.264,-1.656 2.448,-1.008 3.672,-2.448 1.224,-1.512 1.8,-3.6 z m 18.792,-41.976004 h 21.816 v 4.032 h -21.816 z m -0.36,-6.912 h 25.704 v 4.464 h -25.704 z m -24.12,0.072 h 5.4 v 6.768 h -5.4 z m 0,14.472 h 5.4 v 6.912004 h -5.4 z m -8.784,-9 h 23.76 v 11.16 h -23.76 v -3.744 h 18 v -3.528 h -18 z m 48.672,11.304 v 4.464 h 3.888 v -4.464 z m -7.488,0 v 4.464 h 3.888 v -4.464 z m -7.344,0 v 4.464 h 3.744 v -4.464 z m -4.68,-3.456 h 28.296 v 11.376004 h -28.296 z m 3.6,-17.28 5.976,0.936 q -1.512,3.96 -3.888,7.776 -2.376,3.744 -6.192,6.912 -0.792,-0.936 -2.16,-2.088 -1.296,-1.224 -2.376,-1.728 3.384,-2.592 5.472,-5.76 2.088,-3.168 3.168,-6.048 z m -7.2,2.232 v 4.104 h -23.256 v 17.928 h 23.832 v 4.032004 h -29.736 V 76.977406 Z m 75.672,55.728004 h 22.32 v 5.832 h -22.32 z m -3.888,-38.664004 h 5.976 v 47.304004 h -5.976 z m 3.816,0 h 23.544 v 18.936004 h -23.544 v -5.544 h 17.712 v -7.848004 h -17.712 z m -8.064,-11.16 h 37.584 v 12.384 h -5.832 v -6.84 h -26.136 v 6.84 h -5.616 z m 7.56,35.352004 h 27.216 v 22.896 h -5.976 v -17.208 h -21.24 z m 6.048,-41.688004 5.976,-2.448 q 1.08,1.8 2.16,3.96 1.152,2.16 1.728,3.744 l -6.048,2.952 q -0.576,-1.656 -1.728,-3.96 -1.08,-2.376 -2.088,-4.248 z m -34.056,29.880004 h 14.832 v 4.824 h -14.832 z m 0.648,-9.936004 h 17.136 v 25.056004 h -17.28 v -5.04 h 11.232 v -14.976 h -11.088 z m 4.968,-14.76 2.88,-4.68 q 1.944,1.08 4.176,2.376 2.304,1.224 4.392,2.448 2.16,1.224 3.528,2.16 l -2.952,5.256 q -1.296,-1.008 -3.384,-2.304 -2.088,-1.368 -4.392,-2.736 -2.304,-1.368 -4.248,-2.52 z m 0.864,-7.776 5.4,1.944 q -1.944,3.6 -4.752,7.128 -2.736,3.528 -5.976,6.552 -3.24,3.024 -6.624,5.256 -0.144,-0.648 -0.648,-1.8 -0.504,-1.152 -1.08,-2.304 -0.576,-1.224 -1.08,-1.944 4.248,-2.592 8.28,-6.48 4.032,-3.96 6.48,-8.352 z m 1.872,50.616004 4.68,-2.016 q 1.296,2.304 2.664,4.968 1.44,2.592 2.664,5.112 1.224,2.448 1.944,4.248 l -4.968,2.448 q -0.72,-1.872 -1.872,-4.392 -1.152,-2.592 -2.52,-5.328 -1.368,-2.736 -2.592,-5.04 z m -12.456,16.848 q -0.144,-0.864 -0.504,-1.944 -0.36,-1.008 -0.864,-2.088 -0.432,-1.008 -0.936,-1.728 0.936,-0.36 1.8,-1.296 0.936,-0.936 0.936,-2.88 V 96.489406 h 5.904 v 40.176004 q 0,0 -0.936,0.432 -0.936,0.504 -2.232,1.224 -1.296,0.72 -2.232,1.512 -0.936,0.792 -0.936,1.584 z m 0,0 -0.648,-5.256 2.448,-2.232 16.632,-5.976 q 0.072,1.152 0.36,2.664 0.36,1.44 0.576,2.376 -5.832,2.304 -9.432,3.744 -3.6,1.512 -5.616,2.376 -1.944,0.864 -2.88,1.368 -0.936,0.504 -1.44,0.936 z m 6.048,-53.208004 h 12.456 v 4.68 h -12.456 z"
               id="text4"
               transform="matrix(0.26166763,0,0,0.26166763,2.2205965,-4.0633201)"
               aria-label="南港展覽館" />
            <path
               style="font-size:7.32669px;line-height:1.25;font-family:'AR UDJingXiHeiE1G30 EB';-inkscape-font-specification:'AR UDJingXiHeiE1G30 EB';stroke-width:0.250126"
               d="m 45.730151,36.314564 h -1.506302 v -0.725342 h 3.856131 v 0.725342 h -1.499607 v 4.571855 h -0.850222 z m 5.569965,2.432461 -0.763193,-2.263947 -0.776582,2.263947 z m -1.787478,0.725343 -0.482016,1.414051 h -0.863613 l 1.948149,-5.297197 h 0.870308 l 1.93476,5.297197 h -0.883697 l -0.488711,-1.414051 z m 4.813463,-3.883146 v 5.297197 h -0.850224 v -5.297197 z m 1.961533,3.194437 v 2.10276 h -0.850223 v -5.297197 h 2.276188 q 0.709635,0 1.111316,0.424948 0.40168,0.424948 0.40168,1.12831 0,0.791283 -0.41507,1.216231 -0.408375,0.424948 -1.104621,0.424948 z m 2.075348,-1.626526 q 0,-0.410294 -0.214229,-0.622768 -0.214229,-0.219801 -0.629299,-0.219801 h -1.23182 v 1.743752 h 1.23182 q 0.41507,0 0.629299,-0.2198 0.214229,-0.227128 0.214229,-0.681383 z m 5.26201,3.729286 h -3.581649 v -5.297197 h 3.561565 v 0.725342 h -2.711342 v 1.494645 h 2.530586 v 0.725342 h -2.530586 v 1.626525 h 2.731426 z m 1.747313,-5.297197 v 5.297197 h -0.850224 v -5.297197 z m 3.715531,1.472664 v 3.824533 h -0.850222 v -5.297197 h 0.877001 l 2.376608,3.912452 v -3.912452 h 0.850224 v 5.297197 h -0.930559 z m 6.94237,1.685139 -0.763192,-2.263947 -0.776582,2.263947 z m -1.787477,0.725343 -0.482017,1.414051 H 72.8971 l 1.948149,-5.297197 h 0.870308 l 1.934759,5.297197 H 76.76662 l -0.488711,-1.414051 z m 4.813463,-2.410482 v 3.824533 h -0.850223 v -5.297197 h 0.877001 l 2.376609,3.912452 v -3.912452 h 0.850223 v 5.297197 h -0.930559 z m 7.91979,3.179784 q -0.247703,0.380988 -0.622605,0.564155 -0.368206,0.175841 -0.843528,0.175841 -1.044369,0 -1.660279,-0.718016 -0.615909,-0.725342 -0.615909,-2.022166 0,-1.304151 0.649383,-2.022167 0.649383,-0.718016 1.754004,-0.718016 0.890391,0 1.446049,0.446929 0.562352,0.439601 0.676161,1.26019 h -0.850223 q -0.06695,-0.432274 -0.394985,-0.703362 -0.321344,-0.278414 -0.877002,-0.278414 -0.743109,0 -1.1314,0.527521 -0.388291,0.520195 -0.388291,1.487319 0,1.033063 0.408375,1.523951 0.408375,0.483562 1.111316,0.483562 0.615909,0 0.977421,-0.395642 0.361513,-0.395641 0.361513,-0.908509 v -0.109901 h -1.372408 v -0.725342 h 2.189158 v 2.776816 h -0.81675 z m 4.398394,-1.494645 -0.763192,-2.263947 -0.776582,2.263947 z m -1.787477,0.725343 -0.482016,1.414051 H 88.24127 l 1.948149,-5.297197 h 0.870308 l 1.934759,5.297197 H 92.11079 l -0.488711,-1.414051 z m 4.813466,-2.410482 v 3.824533 h -0.850224 v -5.297197 h 0.877002 l 2.376611,3.912452 v -3.912452 h 0.850224 v 5.297197 h -0.930559 z m 7.919785,3.179784 q -0.24769,0.380988 -0.6226,0.564155 -0.36821,0.175841 -0.84353,0.175841 -1.044371,0 -1.660276,-0.718016 -0.615914,-0.725342 -0.615914,-2.022166 0,-1.304151 0.649384,-2.022167 0.649384,-0.718016 1.754006,-0.718016 0.89039,0 1.44605,0.446929 0.56235,0.439601 0.67616,1.26019 h -0.85022 q -0.067,-0.432274 -0.39499,-0.703362 -0.32134,-0.278414 -0.877,-0.278414 -0.74311,0 -1.131403,0.527521 -0.388284,0.520195 -0.388284,1.487319 0,1.033063 0.408368,1.523951 0.408379,0.483562 1.111319,0.483562 0.61591,0 0.97742,-0.395642 0.36151,-0.395641 0.36151,-0.908509 v -0.109901 h -1.3724 v -0.725342 h 2.18915 v 2.776816 h -0.81675 z m 7.1566,0.644749 h -3.58165 v -5.297197 h 3.56157 v 0.725342 h -2.71134 v 1.494645 h 2.53058 v 0.725342 h -2.53058 v 1.626525 h 2.73142 z m 3.74902,-5.297197 h 0.98412 l -1.66698,2.557015 1.7607,2.740182 h -0.99081 l -1.26529,-2.044147 -1.2653,2.044147 h -0.96403 l 1.74731,-2.747509 -1.67367,-2.549688 h 0.99751 l 1.16487,1.904939 z m 2.48372,2.945329 v 2.351868 h -0.85022 v -5.297197 h 0.85022 v 2.219987 h 2.32305 v -2.219987 h 0.85023 v 5.297197 h -0.85023 v -2.351868 z m 5.13481,-2.945329 v 5.297197 h -0.85022 v -5.297197 z m 3.65529,5.297197 h -2.54397 v -5.297197 h 2.32974 q 0.68955,0 1.09124,0.366334 0.40168,0.366335 0.40168,0.97445 0,0.395641 -0.16068,0.696036 -0.15398,0.293067 -0.46862,0.483561 0.40837,0.175841 0.6159,0.483562 0.21424,0.307721 0.21424,0.732669 0,0.703362 -0.42177,1.135637 -0.42177,0.424948 -1.05776,0.424948 z m 0.39498,-3.839186 q 0,-0.359008 -0.18744,-0.542175 -0.18745,-0.190494 -0.54228,-0.190494 h -1.35901 v 1.494645 h 1.40588 q 0.30126,0 0.48871,-0.190494 0.19414,-0.197821 0.19414,-0.571482 z m 0.20084,2.271274 q 0,-0.380988 -0.21422,-0.578808 -0.20754,-0.205148 -0.54897,-0.205148 h -1.52638 v 1.626525 h 1.513 q 0.35481,0 0.56235,-0.212474 0.21422,-0.212474 0.21422,-0.630095 z m 2.58415,-3.729285 v 5.297197 h -0.85022 v -5.297197 z m 2.1423,0.725342 h -1.50631 v -0.725342 h 3.85614 v 0.725342 h -1.49961 v 4.571855 h -0.85022 z m 3.84273,-0.725342 v 5.297197 h -0.85023 v -5.297197 z m 5.76411,2.674242 q 0,1.274844 -0.64938,2.000186 -0.64269,0.718016 -1.7607,0.718016 -1.1381,0 -1.78079,-0.725343 -0.64268,-0.725342 -0.64268,-1.992859 0,-1.289498 0.64938,-2.022167 0.64939,-0.739996 1.77409,-0.739996 1.13809,0 1.77408,0.732669 0.636,0.732669 0.636,2.029494 z m -2.41008,1.992859 q 0.72972,0 1.1247,-0.527521 0.40168,-0.527522 0.40168,-1.465338 0,-0.93049 -0.40168,-1.479992 -0.40168,-0.556828 -1.1247,-0.556828 -0.73642,0 -1.14479,0.564155 -0.40169,0.556828 -0.40169,1.472665 0,0.937816 0.40838,1.465338 0.40838,0.527521 1.1381,0.527521 z m 4.18417,-3.194437 v 3.824533 h -0.85023 v -5.297197 h 0.87701 l 2.3766,3.912452 v -3.912452 h 0.85022 v 5.297197 h -0.93056 z m 9.55998,1.978207 h 0.85023 q -0.0334,0.871876 -0.55567,1.406724 -0.52218,0.534849 -1.51299,0.534849 -1.17157,0 -1.79417,-0.725343 -0.61591,-0.725342 -0.61591,-2.014839 0,-1.274845 0.61591,-2.007514 0.6226,-0.732669 1.78078,-0.732669 0.93055,0 1.44605,0.468909 0.51549,0.461581 0.58913,1.201577 h -0.85022 q -0.0536,-0.424948 -0.35483,-0.681382 -0.30126,-0.263761 -0.85022,-0.263761 -0.67616,0 -1.08453,0.498215 -0.40838,0.498215 -0.40838,1.516625 0,1.033063 0.40838,1.523951 0.41507,0.490888 1.09793,0.490888 0.58243,0 0.89708,-0.329701 0.31465,-0.337027 0.34143,-0.886529 z m 5.26201,1.846326 h -3.58165 v -5.297197 h 3.56156 v 0.725342 h -2.71134 v 1.494645 h 2.53059 v 0.725342 h -2.53059 v 1.626525 h 2.73143 z m 1.74731,-3.824533 v 3.824533 h -0.85023 v -5.297197 h 0.87701 l 2.37661,3.912452 v -3.912452 h 0.85023 v 5.297197 h -0.93056 z m 5.3959,-0.747322 h -1.5063 v -0.725342 h 3.85613 v 0.725342 h -1.49961 v 4.571855 h -0.85022 z m 6.57417,4.571855 h -3.58165 v -5.297197 h 3.56156 v 0.725342 h -2.71134 v 1.494645 h 2.53059 v 0.725342 h -2.53059 v 1.626525 h 2.73143 z m 3.92978,-3.780572 q 0,-0.388315 -0.18745,-0.586136 -0.18746,-0.205147 -0.54227,-0.205147 h -1.45275 v 1.648505 h 1.40589 q 0.34812,0 0.56235,-0.227127 0.21423,-0.227127 0.21423,-0.630095 z m -2.18247,1.575238 v 2.205334 h -0.85022 v -5.297197 h 2.46364 q 0.66277,0 1.05107,0.388314 0.39498,0.380988 0.39498,1.08435 0,0.461582 -0.20084,0.791283 -0.19414,0.329701 -0.48871,0.468908 0.3749,0.234454 0.57574,0.813263 0.20084,0.578808 0.2544,1.751079 h -0.8837 q -0.0402,-1.230884 -0.2477,-1.714446 -0.20084,-0.490888 -0.64939,-0.490888 z"
               id="text5"
               aria-label="TAIPEI NANGANG EXHIBITION CENTER" />
            <path
               d="m 44.431391,44.084106 h 6.476794 v 0.652075 h -6.476794 z m 1.553258,3.033249 h 3.384931 v 0.549502 h -3.384931 z m -0.15386,1.179598 h 3.685325 v 0.571481 h -3.685325 z m 1.487318,-0.90851 h 0.659402 v 2.652262 h -0.659402 z m -2.542362,-1.978206 h 5.304524 v 0.644748 h -4.608488 v 4.13958 h -0.696036 z m 5.09205,0 h 0.703362 v 4.044333 q 0,0.278414 -0.07327,0.424948 -0.07327,0.146533 -0.278415,0.2198 -0.19782,0.07327 -0.520195,0.08792 -0.315047,0.01465 -0.761975,0.01465 -0.02198,-0.13188 -0.09525,-0.307721 -0.06594,-0.168514 -0.139208,-0.293068 0.212474,0.0073 0.410295,0.0073 0.205147,0.0073 0.366335,0 0.161187,0 0.2198,0 0.102574,0 0.131881,-0.02931 0.03663,-0.03663 0.03663,-0.124553 z m -3.546118,0.864549 0.549502,-0.168514 q 0.139207,0.190494 0.263761,0.424948 0.124553,0.234454 0.183167,0.410295 l -0.586135,0.205147 q -0.04396,-0.183167 -0.168514,-0.424948 -0.117227,-0.249107 -0.241781,-0.446928 z m 2.161374,-0.168514 0.586135,0.175841 q -0.139207,0.271087 -0.293068,0.542175 -0.15386,0.271087 -0.293067,0.461581 l -0.498215,-0.15386 q 0.08792,-0.139207 0.17584,-0.322375 0.09525,-0.183167 0.175841,-0.366334 0.08792,-0.183167 0.146534,-0.337028 z M 47.296127,43.43203 h 0.761976 v 2.425135 h -0.761976 z m 6.322934,0.769303 h 4.593834 v 0.630095 h -4.593834 z m -0.293068,1.348111 h 5.099376 v 0.630095 h -5.099376 z m 1.245537,-2.132067 h 0.674056 v 2.593648 H 54.57153 Z m 1.92692,0 h 0.681382 v 2.608302 H 56.49845 Z m -1.831673,2.527708 0.593462,0.205147 q -0.17584,0.402968 -0.432275,0.791283 -0.249107,0.388314 -0.549501,0.718015 -0.300395,0.329702 -0.615442,0.549502 -0.05129,-0.08059 -0.139207,-0.17584 -0.08059,-0.102574 -0.175841,-0.190494 -0.08792,-0.09525 -0.161187,-0.153861 0.293067,-0.183167 0.571482,-0.461581 0.285741,-0.278414 0.520195,-0.608116 0.234454,-0.337027 0.388314,-0.674055 z m 2.417808,-0.02198 q 0.139207,0.322374 0.366335,0.644749 0.234454,0.322374 0.512868,0.586135 0.285741,0.256434 0.586135,0.424948 -0.08059,0.06594 -0.175841,0.161187 -0.09525,0.08792 -0.17584,0.197821 -0.08059,0.102573 -0.139207,0.190494 -0.315048,-0.212474 -0.615442,-0.527522 -0.293068,-0.322374 -0.534849,-0.703362 -0.24178,-0.380988 -0.410294,-0.776629 z m -2.461768,2.139393 h 1.860979 v -0.674055 h -1.765732 v -0.549502 h 2.403154 v 1.780386 h -2.498401 z m -0.293067,0 h 0.652075 v 1.274845 q 0,0.15386 0.09525,0.205147 0.09525,0.04396 0.439601,0.04396 0.05861,0 0.197821,0 0.139207,0 0.322374,0 0.183168,0 0.366335,0 0.183167,0 0.337028,0 0.15386,0 0.234454,0 0.183167,0 0.271087,-0.05129 0.09525,-0.05861 0.131881,-0.227127 0.04396,-0.175841 0.06594,-0.520195 0.1099,0.08059 0.285741,0.146534 0.183167,0.06594 0.315047,0.09525 -0.03663,0.468908 -0.139207,0.718015 -0.102573,0.256434 -0.307721,0.351681 -0.205147,0.09525 -0.578808,0.09525 -0.05129,0 -0.212474,0 -0.161187,0 -0.366335,0 -0.19782,0 -0.402968,0 -0.205147,0 -0.366334,0 -0.153861,0 -0.205148,0 -0.439601,0 -0.688708,-0.07327 -0.249108,-0.07327 -0.351682,-0.256434 -0.09525,-0.183167 -0.09525,-0.520195 z m -2.388501,-4.095619 0.388314,-0.512869 q 0.219801,0.08792 0.461582,0.219801 0.24178,0.13188 0.454254,0.271088 0.212474,0.13188 0.351681,0.26376 l -0.410294,0.564156 Q 53.062232,44.648261 52.849758,44.501727 52.644611,44.355193 52.40283,44.215986 52.161049,44.069452 51.941249,43.966879 Z m -0.380988,1.978206 0.380988,-0.520195 q 0.227127,0.08059 0.468908,0.205147 0.24178,0.117227 0.454254,0.249108 0.212474,0.13188 0.351682,0.249107 l -0.402968,0.578809 Q 52.688571,46.582507 52.476097,46.4433 52.263623,46.304093 52.021842,46.172212 51.787388,46.040332 51.560261,45.945085 Z m 0.190494,3.758592 q 0.17584,-0.285741 0.380987,-0.674055 0.205148,-0.388315 0.417622,-0.827916 0.212474,-0.439602 0.395641,-0.857223 l 0.542175,0.417621 q -0.161187,0.388315 -0.351681,0.798609 -0.183167,0.410295 -0.380988,0.813263 -0.190494,0.395641 -0.380988,0.747322 z m 8.806681,-3.480178 h 4.777002 v 0.586135 h -4.777002 z m -0.219801,1.223557 h 5.311851 v 0.593462 h -5.311851 z m 1.245538,-1.897612 h 0.637422 v 2.19068 h -0.637422 z m -0.388315,2.110086 h 0.644749 v 1.92692 h -0.644749 z m 2.329888,-2.110086 h 0.652075 v 2.176027 h -0.652075 z m -3.868493,-1.802366 h 0.696036 v 2.161374 q 0,0.468908 -0.02931,1.033063 -0.02931,0.556828 -0.117227,1.142964 -0.08792,0.586135 -0.263761,1.135637 -0.17584,0.549501 -0.468908,1.003756 -0.06594,-0.05861 -0.183167,-0.13188 -0.109901,-0.06594 -0.227128,-0.131881 -0.117227,-0.05861 -0.205147,-0.09525 0.278414,-0.424948 0.432275,-0.930489 0.161187,-0.505542 0.234454,-1.033064 0.08059,-0.534848 0.102574,-1.04039 0.02931,-0.512868 0.02931,-0.952469 z m 0.417622,0 h 5.15799 v 1.882959 h -5.15799 v -0.593462 h 4.461954 V 44.34054 h -4.461954 z m 0.322374,5.729472 q 0.359008,-0.04396 0.827916,-0.109901 0.468908,-0.06594 0.989103,-0.146533 0.527522,-0.08059 1.055044,-0.161188 l 0.02931,0.600789 q -0.732669,0.124554 -1.479991,0.241781 -0.747323,0.117227 -1.318804,0.212474 z m 2.718202,-1.787713 q 0.307721,0.761976 0.967123,1.267518 0.666729,0.498215 1.641179,0.696035 -0.109901,0.102574 -0.227128,0.271088 -0.117227,0.168514 -0.183167,0.300394 -1.04039,-0.263761 -1.729099,-0.864549 -0.688709,-0.608116 -1.047716,-1.538605 z m 1.677812,0.329701 0.520195,0.366335 q -0.300394,0.219801 -0.659402,0.432275 -0.359008,0.205147 -0.652075,0.351681 l -0.446929,-0.337028 q 0.197821,-0.102574 0.424949,-0.241781 0.227127,-0.139207 0.439601,-0.285741 0.212474,-0.15386 0.373661,-0.285741 z m 3.23107,-0.476235 v 0.315048 h 3.223744 v -0.315048 z m 0,0.688709 v 0.315048 h 3.223744 v -0.315048 z m 0,-1.362764 v 0.307721 h 3.223744 v -0.307721 z m -0.659402,-0.388315 h 4.571855 v 2.454442 h -4.571855 z m 2.674242,2.249294 h 0.681382 v 0.666729 q 0,0.124554 0.06594,0.161187 0.06594,0.02931 0.307721,0.02931 0.05129,0 0.190494,0 0.139207,0 0.300394,0 0.161188,0 0.307721,0 0.146534,0 0.219801,0 0.131881,0 0.197821,-0.04396 0.06594,-0.04396 0.09525,-0.183167 0.02931,-0.139207 0.04396,-0.417622 0.09525,0.06594 0.271087,0.131881 0.175841,0.05861 0.307721,0.08792 -0.02931,0.388315 -0.117227,0.600789 -0.08792,0.212474 -0.26376,0.293067 -0.168514,0.08059 -0.468909,0.08059 -0.04396,0 -0.168514,0 -0.117227,0 -0.271087,0 -0.146534,0 -0.293068,0 -0.146533,0 -0.263761,0 -0.117227,0 -0.168513,0 -0.388315,0 -0.600789,-0.06594 -0.212474,-0.06594 -0.293068,-0.227128 -0.08059,-0.15386 -0.08059,-0.439601 z m -1.597219,0.03663 h 0.681383 q -0.07327,0.322374 -0.234455,0.564155 -0.15386,0.241781 -0.446928,0.417621 -0.285741,0.175841 -0.739995,0.285741 -0.454255,0.117227 -1.128311,0.190494 -0.02931,-0.117227 -0.124553,-0.278414 -0.09525,-0.161187 -0.175841,-0.256434 0.586135,-0.03663 0.97445,-0.109901 0.395641,-0.07327 0.637422,-0.183167 0.241781,-0.1099 0.366334,-0.263761 0.131881,-0.15386 0.190494,-0.366334 z m 1.90494,-3.289684 h 2.439788 v 0.542175 h -2.439788 z m 0.07327,-1.340784 h 2.557015 v 0.549501 h -2.557015 z m 0.04396,-0.73267 0.630095,0.139208 q -0.168514,0.556828 -0.432275,1.08435 -0.26376,0.520195 -0.571481,0.879203 -0.05129,-0.05129 -0.153861,-0.117227 -0.09525,-0.07327 -0.19782,-0.139208 -0.102574,-0.06594 -0.183168,-0.102573 0.300395,-0.322375 0.534849,-0.783956 0.24178,-0.468908 0.373661,-0.959797 z m -2.549688,0.461582 h 0.564155 v 0.688709 h -0.564155 z m 0,1.377418 h 0.564155 v 0.703362 h -0.564155 z m -0.937817,-0.86455 h 2.520382 v 1.113657 h -2.520382 v -0.395641 h 1.912266 v -0.322374 h -1.912266 z m 2.659589,-0.710689 v 0.402968 h -2.381174 v 1.765733 h 2.483748 v 0.410294 H 66.631265 V 43.66648 Z m 7.744312,5.590265 h 2.483748 v 0.593462 H 77.37952 Z m -0.285741,-3.861166 h 0.637422 v 4.813636 h -0.637422 z m 0.285741,0 h 2.447114 v 1.897613 H 77.37952 v -0.564155 h 1.809692 V 45.952408 H 77.37952 Z m -0.718016,-1.201577 h 3.641365 V 45.49083 H 79.658118 V 44.765488 H 77.28427 v 0.725342 h -0.622769 z m 1.443358,-0.791283 h 0.674056 V 44.4944 h -0.674056 z m -0.725342,4.439975 h 2.754835 v 2.322561 H 79.489604 V 48.41418 h -2.110087 z m -2.366521,-3.128497 h 0.571482 v 0.915836 h -0.571482 z m -0.967123,0.659402 h 0.615442 v 4.080967 h -0.615442 z m 0.395641,0.989103 h 1.655832 v 0.461582 h -1.655832 z m -0.871876,2.94533 q 0.315048,-0.06594 0.710689,-0.153861 0.402968,-0.09525 0.857223,-0.19782 0.454254,-0.109901 0.901183,-0.219801 l 0.06594,0.556828 q -0.600789,0.175841 -1.223557,0.344355 -0.615442,0.168514 -1.113657,0.307721 z m 1.721772,-1.055044 0.549502,-0.24178 q 0.190494,0.26376 0.366334,0.564155 0.175841,0.300394 0.315048,0.593462 0.146534,0.293067 0.212474,0.527521 l -0.593462,0.271088 Q 76.082699,49.73298 75.950815,49.439912 75.818935,49.139518 75.643094,48.831797 75.47458,48.516749 75.291413,48.252988 Z M 74.39023,45.373599 h 1.99286 v 2.454441 h -1.99286 v -0.505541 h 1.384745 V 45.879141 H 74.39023 Z m 0.439602,-1.963553 h 0.373661 v 0.139207 h 0.205147 v 0.183168 q -0.15386,0.28574 -0.373661,0.622768 -0.212474,0.337028 -0.505542,0.681382 -0.285741,0.344355 -0.674055,0.666729 -0.04396,-0.07327 -0.124554,-0.161187 -0.07327,-0.08792 -0.161187,-0.161187 -0.08059,-0.08059 -0.146534,-0.124554 0.344355,-0.271087 0.615442,-0.586135 0.271088,-0.315048 0.468908,-0.637422 0.205148,-0.329701 0.322375,-0.622769 z m 0.168514,0 h 0.483561 q 0.219801,0.183167 0.446928,0.410295 0.234454,0.219801 0.432275,0.446928 0.205147,0.219801 0.322374,0.410295 l -0.446928,0.505541 q -0.1099,-0.183167 -0.293067,-0.417621 -0.175841,-0.241781 -0.395642,-0.476235 -0.2198,-0.241781 -0.424948,-0.402968 h -0.124553 z"
               id="text5-9"
               style="font-weight:500;font-size:7.32669px;line-height:1.25;font-family:'Noto Sans JP';-inkscape-font-specification:'Noto Sans JP Medium';stroke-width:0.261667"
               aria-label="南港展覧館" />
            <path
               style="font-weight:500;font-size:7.32669px;line-height:1.25;font-family:'Noto Sans KR';-inkscape-font-specification:'Noto Sans KR Medium';stroke-width:0.261667"
               d="m 88.003587,44.053755 h 0.761976 v 2.813449 h -0.761976 z m 0,2.571668 h 0.542175 q 0.703363,0 1.450685,-0.05861 0.754649,-0.05861 1.567912,-0.2198 l 0.08792,0.622768 q -0.827916,0.168514 -1.604545,0.234454 -0.769303,0.05861 -1.501972,0.05861 h -0.542175 z m 4.16156,-3.03325 h 0.761976 v 4.828289 h -0.761976 z m 0.534849,1.934246 h 1.17227 v 0.652076 h -1.17227 z m -3.993047,4.000373 h 4.447301 v 0.622769 h -4.447301 z m 0,-1.567912 h 0.769303 v 1.890286 h -0.769303 z m 10.198754,-4.374034 h 0.761976 v 3.949086 h -0.761976 z m 0.556828,1.655832 h 1.150289 V 45.8781 h -1.150289 z m -2.439787,-1.186923 h 0.827916 q 0,0.879202 -0.373662,1.582565 -0.373661,0.696035 -1.069696,1.201577 -0.688709,0.498215 -1.670486,0.776629 l -0.315047,-0.615442 q 0.835242,-0.234454 1.414051,-0.615442 0.578808,-0.388315 0.879203,-0.886529 0.307721,-0.498215 0.307721,-1.077024 z m -2.293254,0 h 2.747508 v 0.622768 H 94.72949 Z m 2.813449,3.568098 q 0.666728,0 1.157617,0.161187 0.498215,0.161187 0.769302,0.461581 0.278414,0.293068 0.278414,0.703363 0,0.410294 -0.278414,0.710689 -0.271087,0.293067 -0.769302,0.454254 -0.490889,0.168514 -1.157617,0.168514 -0.666729,0 -1.172271,-0.168514 -0.498215,-0.161187 -0.769302,-0.454254 -0.271088,-0.300395 -0.271088,-0.710689 0,-0.410295 0.271088,-0.703363 0.271087,-0.300394 0.769302,-0.461581 0.505542,-0.161187 1.172271,-0.161187 z m 0,0.600788 q -0.446928,0 -0.77663,0.08792 -0.322374,0.08059 -0.505541,0.249107 -0.175841,0.161187 -0.175841,0.388315 0,0.227127 0.175841,0.395641 0.183167,0.161187 0.505541,0.249107 0.329702,0.08059 0.77663,0.08059 0.446928,0 0.769302,-0.08059 0.329701,-0.08792 0.505542,-0.249107 0.17584,-0.168514 0.17584,-0.395641 0,-0.227128 -0.17584,-0.388315 -0.175841,-0.168514 -0.505542,-0.249107 -0.322374,-0.08792 -0.769302,-0.08792 z m 9.260941,-2.835429 h 1.62653 v 0.622769 h -1.62653 z m 1.2089,-1.795039 h 0.76931 v 4.894229 h -0.76931 z m -3.56809,5.934619 h 4.51324 v 0.622769 h -4.51324 z m 0,-1.465338 h 0.7693 v 1.809693 h -0.7693 z m 0.42494,-3.619385 h 0.6301 v 0.490888 q 0,0.615442 -0.22713,1.172271 -0.2198,0.549502 -0.63742,0.959796 -0.41762,0.410295 -1.01108,0.622769 l -0.39564,-0.608115 q 0.39564,-0.139208 0.69603,-0.359008 0.30772,-0.219801 0.5202,-0.505542 0.21247,-0.285741 0.31504,-0.615442 0.1099,-0.329701 0.1099,-0.666729 z m 0.15387,0 h 0.62276 v 0.483562 q 0,0.417621 0.18317,0.813262 0.18317,0.395642 0.53485,0.710689 0.35168,0.315048 0.85722,0.490888 l -0.38099,0.600789 q -0.5788,-0.205147 -0.9891,-0.593462 -0.40297,-0.395641 -0.61544,-0.915836 -0.21247,-0.527522 -0.21247,-1.10633 z m -1.56792,-0.344354 h 3.58276 v 0.615442 h -3.58276 z m 10.98271,-0.505542 h 0.76198 v 3.98572 h -0.76198 z m 0.54218,1.648505 h 1.17227 V 45.8781 h -1.17227 z m -4.05899,2.644936 h 4.27879 v 2.315234 h -4.27879 z m 3.53147,0.608115 h -2.77682 v 1.099003 h 2.77682 z m -4.20552,-1.838999 h 0.54217 q 0.6301,0 1.14296,-0.01465 0.51287,-0.02198 0.98178,-0.06594 0.46891,-0.04396 0.9598,-0.13188 l 0.0733,0.622768 q -0.50554,0.08792 -0.9891,0.139207 -0.47623,0.04396 -1.00376,0.05861 -0.52019,0.01465 -1.16494,0.01465 h -0.54217 z m -0.0147,-2.718202 h 3.03325 v 1.934246 h -2.26394 v 1.12831 h -0.75465 v -1.714445 h 2.26394 v -0.725343 h -2.2786 z m 6.81383,0.15386 h 2.92335 v 0.622769 h -2.92335 z m 0.93049,1.531278 h 0.75465 v 1.670486 h -0.75465 z m 1.68513,-1.531278 h 0.75465 v 0.388315 q 0,0.337027 -0.022,0.835242 -0.0147,0.490889 -0.1392,1.142964 l -0.75465,-0.08792 q 0.12455,-0.637422 0.1392,-1.091677 0.022,-0.461582 0.022,-0.798609 z m 1.55326,-0.505542 h 0.76931 v 5.033437 h -0.76931 z m 0.44693,2.124741 h 1.20891 v 0.630095 h -1.20891 z m -4.01503,3.817205 h 4.55721 v 0.622769 h -4.55721 z m 0,-1.362764 h 0.76931 v 1.553258 h -0.76931 z m -0.92316,-0.534849 -0.0806,-0.622768 q 0.59346,0 1.29682,-0.0073 0.71069,-0.01465 1.45069,-0.05861 0.73999,-0.05129 1.41405,-0.146533 l 0.0513,0.556828 q -0.69604,0.117227 -1.42871,0.183167 -0.73267,0.05861 -1.4287,0.07327 -0.68871,0.01465 -1.27485,0.02198 z"
               id="text5-9-8"
               aria-label="난강 전람관" />
          </g>
        </g>
      </g>
      <text
         xml:space="preserve"
         transform="matrix(0.31615295,0,0,0.31615295,-6.1222449,-6.4462013)"
         id="text6"
         style="font-size:55px;line-height:1.25;font-family:'Microsoft JhengHei';-inkscape-font-specification:'Microsoft JhengHei';white-space:pre;shape-inside:url(#rect6);display:inline" />
    </g>
  </g>
</svg>
