<?xml version="1.0" encoding="UTF-8" standalone="no"?>
<!-- Created with Inkscape (http://www.inkscape.org/) -->

<svg
   width="500"
   height="250"
   viewBox="0 0 132.29166 66.145833"
   version="1.1"
   id="svg1"
   inkscape:version="1.3.2 (091e20e, 2023-11-25, custom)"
   sodipodi:docname="g1.svg"
   xmlns:inkscape="http://www.inkscape.org/namespaces/inkscape"
   xmlns:sodipodi="http://sodipodi.sourceforge.net/DTD/sodipodi-0.dtd"
   xmlns="http://www.w3.org/2000/svg"
   xmlns:svg="http://www.w3.org/2000/svg">
  <sodipodi:namedview
     id="namedview1"
     pagecolor="#9e652e"
     bordercolor="#ffffff"
     borderopacity="1"
     inkscape:showpageshadow="0"
     inkscape:pageopacity="0"
     inkscape:pagecheckerboard="false"
     inkscape:deskcolor="#d1d1d1"
     inkscape:document-units="mm"
     inkscape:zoom="2.0208096"
     inkscape:cx="305.81802"
     inkscape:cy="106.88785"
     inkscape:window-width="1920"
     inkscape:window-height="1009"
     inkscape:window-x="1912"
     inkscape:window-y="-8"
     inkscape:window-maximized="1"
     inkscape:current-layer="layer1" />
  <defs
     id="defs1">
    <rect
       x="560.66638"
       y="34.144731"
       width="279.32397"
       height="128.59143"
       id="rect6" />
    <rect
       x="157.85752"
       y="62.351248"
       width="329.07603"
       height="135.09437"
       id="rect4" />
    <rect
       x="157.85751"
       y="62.35125"
       width="329.07602"
       height="135.09438"
       id="rect4-5" />
  </defs>
  <g
     inkscape:label="Layer 1"
     inkscape:groupmode="layer"
     id="layer1">
    <path
       id="rect5"
       style="fill:#007846;stroke-width:0.953294"
       d="M -2.5431316e-6,-1.2715658e-6 H 132.29167 V 66.145835 H -2.5431316e-6 Z" />
    <g
       id="g4"
       transform="translate(6.4032343)">
      <g
         id="g7"
         transform="matrix(1.1949088,0,0,1.1949088,-10.727502,-6.4462012)">
        <g
           id="g5"
           transform="matrix(0.82766152,0,0,0.82766152,17.509474,5.6997351)">
          <path
             id="rect1"
             style="fill-opacity:0;stroke:#f9f9f9;stroke-width:0.953294"
             d="m 10.182676,14.144197 h 12.563615 c 3.97082,0 7.167545,3.196725 7.167545,7.167545 v 23.522352 c 0,3.970819 -3.196725,7.167544 -7.167545,7.167544 H 10.182676 c -3.97082,0 -7.167545,-3.196725 -7.167545,-7.167544 V 21.311742 c 0,-3.97082 3.196725,-7.167545 7.167545,-7.167545 z" />
          <path
             style="font-size:14.644px;line-height:1.25;font-family:'AR UDJingXiHeiE1G30 EB';-inkscape-font-specification:'AR UDJingXiHeiE1G30 EB';fill:#f9f9f9;stroke-width:0.305084"
             d="m 19.448889,29.371901 q -0.541828,0.761488 -1.361892,1.127588 -0.80542,0.351456 -1.845144,0.351456 -2.284464,0 -3.631712,-1.435112 -1.347248,-1.449756 -1.347248,-4.041744 0,-2.606632 1.420468,-4.041744 1.420468,-1.435112 3.836728,-1.435112 1.947652,0 3.163104,0.893284 1.230096,0.87864 1.479044,2.518768 h -1.859788 q -0.14644,-0.863996 -0.863996,-1.405824 -0.702912,-0.556472 -1.918364,-0.556472 -1.625484,0 -2.474836,1.054368 -0.849352,1.039724 -0.849352,2.972732 0,2.064804 0.893284,3.045952 0.893284,0.966504 2.430904,0.966504 1.347248,0 2.138024,-0.790776 0.790776,-0.790776 0.790776,-1.815856 v -0.21966 h -3.00202 v -1.449756 h 4.788588 v 5.550076 h -1.786568 z"
             id="text2"
             aria-label="G" />
          <path
             style="font-size:14.5521px;line-height:1.25;font-family:'AR UDJingXiHeiE1G30 EB';-inkscape-font-specification:'AR UDJingXiHeiE1G30 EB';fill:#f9f9f9;stroke-width:0.264583"
             d="m 15.82419,39.766528 q 0,2.750347 -0.887678,4.060036 -0.887678,1.309689 -2.750347,1.309689 -1.80446,0 -2.7357946,-1.309689 -0.9313344,-1.309689 -0.9313344,-4.060036 0,-2.939524 0.8876781,-4.220109 0.8876779,-1.295137 2.7794509,-1.295137 1.848117,0 2.735795,1.295137 0.90223,1.280585 0.90223,4.220109 z m -3.638025,3.929067 q 0.931335,0 1.367898,-0.916782 0.436563,-0.931334 0.436563,-3.012285 0,-2.241023 -0.422011,-3.157806 -0.407459,-0.916782 -1.38245,-0.916782 -0.97499,0 -1.397001,0.931335 -0.422011,0.916782 -0.422011,3.143253 0,2.066398 0.436563,2.997733 0.436563,0.931334 1.382449,0.931334 z m 7.974541,-7.07232 -1.702596,1.586178 -0.844022,-1.295136 2.735795,-2.48841 h 1.586179 v 10.521169 h -1.775356 z"
             id="text3"
             aria-label="01" />
          <path
             style="font-weight:500;font-size:72px;line-height:1.25;font-family:'Noto Sans TC';-inkscape-font-specification:'Noto Sans TC Medium';white-space:pre;fill:#f9f9f9"
             d="m 200.91342,98.721406 h 26.28 v 6.336004 h -26.28 z m -38.88,-16.704 h 32.04 v 5.616 h -32.04 z m -0.792,28.584004 h 32.976 v 5.832 h -32.976 z m -0.36,-12.312004 h 34.344 v 5.688004 h -34.344 z m 52.272,3.168004 h 6.624 v 39.672 h -6.624 z m -46.872,-12.312004 5.544,-1.296 q 0.936,2.088 1.656,4.608 0.792,2.52 1.08,4.32 l -5.76,1.584 q -0.216,-1.872 -0.936,-4.464 -0.648,-2.592 -1.584,-4.752 z m 17.928,-1.44 6.264,1.296 q -1.152,3.024 -2.376,6.12 -1.224,3.096 -2.304,5.256004 l -5.544,-1.224004 q 0.72,-1.584 1.44,-3.6 0.72,-2.016 1.368,-4.104 0.72,-2.088 1.152,-3.744 z m 36.36,-12.024 5.328,5.04 q -3.528,1.368 -7.92,2.52 -4.32,1.08 -8.856,1.944 -4.464,0.864 -8.784,1.512 -0.216,-1.08 -0.864,-2.592 -0.576,-1.512 -1.224,-2.52 4.104,-0.72 8.208,-1.656 4.104,-0.936 7.776,-2.016 3.744,-1.152 6.336,-2.232 z m -47.88,0.144 6.768,-1.728 q 1.224,2.232 2.376,4.968 1.224,2.664 1.8,4.608 l -7.056,2.016 q -0.504,-2.016 -1.656,-4.752 -1.08,-2.808 -2.232,-5.112 z m 25.56,5.76 h 6.408 v 25.272004 q 0,3.96 -0.288,8.496 -0.216,4.536 -1.008,9.144 -0.792,4.608 -2.232,8.928 -1.44,4.32 -3.888,7.776 -0.504,-0.648 -1.512,-1.44 -0.936,-0.792 -2.016,-1.512 -1.008,-0.72 -1.728,-1.08 2.88,-4.248 4.248,-9.504 1.368,-5.256 1.656,-10.656 0.36,-5.4 0.36,-10.152 z m -13.824,39.816004 4.536,-2.448 q 1.8,2.592 3.456,5.688 1.656,3.024 2.52,5.256 l -4.68,2.808 q -0.864,-2.232 -2.592,-5.472 -1.656,-3.24 -3.24,-5.832 z m -17.28,-1.8 5.328,1.512 q -1.296,3.888 -3.384,7.92 -2.016,3.96 -4.032,6.768 -0.792,-0.72 -2.232,-1.656 -1.368,-1.008 -2.376,-1.512 2.016,-2.592 3.744,-6.048 1.8,-3.528 2.952,-6.984 z m 8.136,-18.216 h 6.624 v 39.744 h -6.624 z m 94.32,-1.656004 h 26.568 v 6.192004 h -26.568 z m -15.12,31.968004 h 34.92 v 6.048 h -34.92 z m 11.808,-39.744004 h 7.056 v 26.496004 h -7.056 z m -15.408,22.320004 h 41.904 v 26.208 h -6.984 v -19.872 h -28.296 v 20.016 h -6.624 z m -9.288,-31.176004 h 56.664 v 6.48 h -56.664 z m -3.096,0 h 6.984 v 18.648004 q 0,4.32 -0.288,9.504 -0.288,5.112 -1.08,10.512 -0.792,5.4 -2.376,10.512 -1.512,5.112 -3.96,9.216 -0.648,-0.576 -1.8,-1.368 -1.08,-0.792 -2.232,-1.512 -1.152,-0.72 -2.016,-1.008 2.304,-3.888 3.672,-8.496 1.368,-4.608 2.016,-9.36 0.648,-4.824 0.864,-9.432 0.216,-4.68 0.216,-8.568 z m 24.48,-6.84 6.768,-1.512 q 1.584,2.304 2.88,5.112 1.296,2.808 1.8,4.968 l -7.2,1.728 q -0.36,-2.16 -1.584,-5.04 -1.224,-2.952 -2.664,-5.256 z"
             id="text4"
             transform="matrix(0.26458333,0,0,0.26458333,-8.0629803,-4.4771203)"
             aria-label="新店" />
          <path
             style="font-weight:500;font-size:72px;line-height:1.25;font-family:'Noto Sans TC';-inkscape-font-specification:'Noto Sans TC Medium';white-space:pre;fill:#f9f9f9"
             d="m 162.96942,78.201406 h 27.72 v 5.256 h -27.72 z m -1.224,32.688004 h 64.296 v 5.4 h -64.296 z m 2.016,-21.600004 h 25.56 v 5.256 h -25.56 z m 14.976,44.568004 h 36.36 v 5.256 h -36.36 z m -17.064,-31.68 q 3.744,-0.288 8.568,-0.648 4.824,-0.36 10.224,-0.792 5.472,-0.504 10.944,-0.936004 v 5.256004 q -7.92,0.792 -15.696,1.512 -7.704,0.648 -13.608,1.224 z m 11.952,-21.960004 h 6.48 v 22.608004 l -6.48,0.792 z m 32.4,-5.544 7.416,0.792 q -0.936,2.232 -1.872,4.32 -0.936,2.088 -1.728,3.672 l -5.904,-0.936 q 0.576,-1.872 1.152,-4.032 0.648,-2.16 0.936,-3.816 z m -5.688,21.024 v 5.976004 h 16.416 v -5.976004 z m 0,-10.872 v 5.904 h 16.416 v -5.904 z m -6.192,-5.256 h 29.16 v 27.360004 h -29.16 z m -12.312,32.256004 6.192,2.088 q -2.664,4.608 -6.552,8.64 -3.888,4.032 -8.424,7.272 -4.464,3.24 -9.144,5.688 -0.36,-0.72 -1.152,-1.728 -0.72,-1.08 -1.584,-2.088 -0.792,-1.08 -1.512,-1.656 4.536,-1.944 8.784,-4.68 4.248,-2.808 7.704,-6.192 3.528,-3.384 5.688,-7.344 z m -7.56,9.936 h 45.432 v 19.44 h -7.2 v -14.184 h -31.32 v 14.544 h -6.912 z m 75.888,6.12 h 48.528 v 5.112 h -48.528 z m 1.296,-50.112004 h 47.016 v 5.112 h -47.016 z m 19.656,44.208004 h 6.696 v 19.512 h -6.696 z m -5.4,-41.328004 h 5.616 v 18.72 h -5.616 z m 11.88,0 h 5.688 v 18.72 h -5.688 z m -15.768,35.928004 v 3.6 h 26.136 v -3.6 z m 0,-7.56 v 3.456 h 26.136 v -3.456 z m -6.12,-4.248 h 38.664 v 19.656 h -38.664 z m 3.888,-13.608004 v 6.12 h 30.312 v -6.12 z m -6.048,-4.536 h 42.768 v 15.192004 h -42.768 z m -17.64,-5.976 3.96,-4.824 q 1.872,0.864 4.032,2.16 2.232,1.296 4.248,2.592 2.088,1.224 3.456,2.232 l -4.176,5.4 q -1.224,-1.08 -3.24,-2.448 -1.944,-1.368 -4.104,-2.664 -2.16,-1.368 -4.176,-2.448 z m -3.6,19.512004 3.816,-4.968004 q 2.016,1.008 4.392,2.304 2.376,1.224 4.536,2.592004 2.232,1.296 3.672,2.376 l -3.888,5.544 q -1.296,-1.152 -3.528,-2.52 -2.16,-1.44 -4.536,-2.808 -2.304,-1.44 -4.464,-2.52 z m 2.088,35.496 q 1.584,-2.736 3.528,-6.48 2.016,-3.816 4.032,-7.992 2.088,-4.248 3.744,-8.352 l 5.4,4.32 q -1.584,3.744 -3.384,7.776 -1.728,3.96 -3.6,7.848 -1.872,3.816 -3.672,7.272 z"
             id="text4-0"
             transform="matrix(0.12946199,0,0,0.12946199,58.992542,6.3204728)"
             aria-label="碧潭" />
          <path
             style="font-size:7.40833px;line-height:1.25;font-family:'AR UDJingXiHeiE1G30 EB';-inkscape-font-specification:'AR UDJingXiHeiE1G30 EB';fill:#f9f9f9;stroke-width:0.264583"
             d="m 38.090245,35.617261 h 1.089024 l -1.844674,2.585507 1.948391,2.770716 h -1.096433 l -1.400175,-2.066924 -1.400174,2.066924 h -1.066799 l 1.933574,-2.778124 -1.852083,-2.578099 h 1.103841 l 1.28905,1.926166 z m 2.74849,0 v 5.356223 h -0.940857 v -5.356223 z m 2.170636,1.489075 v 3.867148 h -0.940858 v -5.356223 h 0.970491 l 2.629957,3.956048 v -3.956048 h 0.940858 v 5.356223 h -1.029758 z m 9.393756,1.126066 q 0,1.333499 -0.629708,2.037291 -0.622299,0.703791 -1.740957,0.703791 h -2.192866 v -5.356223 h 2.192866 q 1.118658,0 1.740957,0.659342 0.629708,0.659341 0.629708,1.955799 z m -0.977899,0 q 0,-0.970491 -0.40005,-1.4224 -0.392641,-0.459316 -1.148291,-0.459316 h -1.096433 v 3.889373 h 1.103841 q 0.726017,0 1.133475,-0.481541 0.407458,-0.481542 0.407458,-1.526116 z m 2.948509,-2.615141 v 5.356223 h -0.940858 v -5.356223 z m 4.081984,3.192991 -0.84455,-2.289174 -0.859366,2.289174 z m -1.978024,0.733424 -0.5334,1.429808 h -0.955674 l 2.155824,-5.356223 h 0.963083 l 2.141007,5.356223 h -0.9779 l -0.540808,-1.429808 z m 5.326584,-2.43734 v 3.867148 h -0.940858 v -5.356223 h 0.970491 l 2.629957,3.956048 v -3.956048 h 0.940858 v 5.356223 h -1.029758 z"
             id="text5"
             aria-label="XINDIAN" />
          <path
             style="font-size:3.55995px;line-height:1.25;font-family:'AR UDJingXiHeiE1G30 EB';-inkscape-font-specification:'AR UDJingXiHeiE1G30 EB';fill:#ffffff;stroke-width:0.127141"
             d="m 81.461405,28.519355 h -1.352781 v -2.573844 h 1.238863 q 0.366675,0 0.580272,0.177998 0.213597,0.177997 0.213597,0.473473 0,0.192237 -0.08544,0.338195 -0.08188,0.142398 -0.249196,0.234957 0.217157,0.08544 0.327515,0.234957 0.113918,0.149517 0.113918,0.355995 0,0.341755 -0.224276,0.551792 -0.224277,0.206477 -0.562473,0.206477 z m 0.210037,-1.865414 q 0,-0.174437 -0.09968,-0.263436 -0.09968,-0.09256 -0.288356,-0.09256 h -0.72267 v 0.72623 h 0.74759 q 0.160197,0 0.259876,-0.09256 0.103238,-0.09612 0.103238,-0.277676 z m 0.106799,1.103585 q 0,-0.185118 -0.113918,-0.281236 -0.110359,-0.09968 -0.291916,-0.09968 h -0.811669 v 0.790309 h 0.804549 q 0.188677,0 0.299036,-0.103239 0.113918,-0.103238 0.113918,-0.306155 z m 1.374143,-1.812015 v 2.573844 H 82.70027 v -2.573844 z m 1.139182,0.352435 h -0.800989 v -0.352435 h 2.050531 v 0.352435 h -0.797429 v 2.221409 h -0.452113 z m 2.961877,1.181904 -0.405834,-1.100025 -0.412954,1.100025 z m -0.950506,0.352435 -0.256317,0.68707 h -0.459233 l 1.035945,-2.573844 h 0.462794 l 1.028825,2.573844 h -0.469913 l -0.259877,-0.68707 z m 2.559601,-1.171224 v 1.858294 h -0.452114 v -2.573844 h 0.466354 l 1.263782,1.901013 v -1.901013 h 0.452114 v 2.573844 H 90.09784 Z"
             id="text5-8"
             aria-label="BITAN" />
          <path
             d="m 38.5668,45.999618 h 2.763307 v 0.651933 H 38.5668 Z m -3.94864,-1.718732 h 3.296707 v 0.577849 H 34.61816 Z m -0.08149,2.941107 h 3.393015 v 0.600074 h -3.393015 z m -0.02222,-1.266825 h 3.481915 v 0.585258 h -3.481915 z m 5.348814,0.325967 h 0.681567 v 4.081989 H 39.863257 Z M 35.929434,43.569686 H 36.611 v 0.985308 h -0.681566 z m 0,2.904065 H 36.611 v 3.919007 h -0.681566 z m 2.311399,-2.355849 0.837141,0.244475 q -0.01482,0.0889 -0.170391,0.118533 v 2.237316 q 0,0.422275 -0.04445,0.903816 -0.03704,0.474133 -0.155575,0.9779 -0.118533,0.496358 -0.3556,0.970491 -0.229658,0.466725 -0.607483,0.859366 -0.04445,-0.08149 -0.13335,-0.1778 -0.0889,-0.09631 -0.192617,-0.185208 -0.09631,-0.08149 -0.177799,-0.118533 0.340783,-0.348192 0.540808,-0.748241 0.200025,-0.40005 0.296333,-0.829733 0.103716,-0.429683 0.13335,-0.84455 0.02963,-0.422275 0.02963,-0.814916 z m 2.452157,-0.511174 0.563033,0.511174 q -0.355599,0.162984 -0.807508,0.303742 -0.444499,0.13335 -0.911224,0.244475 -0.466725,0.103716 -0.903816,0.185208 -0.02222,-0.111125 -0.0889,-0.2667 -0.06668,-0.162983 -0.13335,-0.2667 0.414866,-0.0889 0.837141,-0.200025 0.429683,-0.118533 0.807508,-0.244475 0.377825,-0.13335 0.637116,-0.266699 z m -4.133848,4.311648 q 0.08149,0.05186 0.244475,0.185208 0.170392,0.125941 0.3556,0.274108 0.192616,0.148167 0.348191,0.281517 0.162984,0.125941 0.229659,0.185208 l -0.407459,0.511175 q -0.0889,-0.103717 -0.237066,-0.259292 -0.148167,-0.155575 -0.325967,-0.318558 -0.170391,-0.170392 -0.333374,-0.31115 -0.155575,-0.148167 -0.259292,-0.237067 z m -1.533524,-2.933699 0.548216,-0.125942 q 0.111125,0.229658 0.192617,0.503767 0.08149,0.274108 0.103716,0.466724 l -0.577849,0.162984 q -0.01482,-0.207433 -0.0889,-0.48895 -0.07408,-0.281517 -0.1778,-0.518583 z m 1.881716,-0.140758 0.622299,0.13335 q -0.103716,0.266699 -0.207433,0.533399 -0.103716,0.259292 -0.192616,0.451908 L 36.56655,45.836635 q 0.05927,-0.140758 0.118534,-0.31115 0.06667,-0.1778 0.125941,-0.3556 0.05927,-0.1778 0.09631,-0.325966 z m -0.970492,2.711448 0.496359,0.185209 q -0.1778,0.407458 -0.4445,0.814916 -0.2667,0.407458 -0.570442,0.75565 -0.303741,0.348191 -0.600074,0.585258 -0.07408,-0.118534 -0.214842,-0.2667 -0.13335,-0.148167 -0.244475,-0.237067 0.296333,-0.192616 0.592667,-0.48895 0.303741,-0.296333 0.555624,-0.644524 0.259292,-0.3556 0.429683,-0.703792 z m 9.838263,-1.503891 h 2.800348 v 0.6223 h -2.800348 z m -1.674283,3.452282 h 3.630082 v 0.6223 h -3.630082 z m 1.340908,-4.252381 h 0.711199 v 2.726265 H 45.44173 Z m -1.711324,2.378074 h 4.378323 v 2.763307 H 47.390121 V 48.25175 H 44.41938 v 2.155824 h -0.688974 z m 1.429807,-4.104215 h 0.726017 v 1.303866 h -0.726017 z m -2.355849,0.918633 h 5.874806 v 0.666749 h -5.874806 z m -0.348191,0 h 0.703791 v 1.896532 q 0,0.437092 -0.02963,0.963083 -0.02963,0.525992 -0.111125,1.074208 -0.07408,0.548216 -0.229658,1.074208 -0.148167,0.518583 -0.392642,0.948266 -0.05927,-0.05927 -0.170391,-0.140758 -0.111125,-0.08149 -0.229659,-0.155575 -0.118533,-0.06668 -0.200025,-0.103717 0.229659,-0.40005 0.363009,-0.866774 0.13335,-0.466725 0.192616,-0.955675 0.06668,-0.496358 0.08149,-0.963083 0.02222,-0.474133 0.02222,-0.874183 z"
             id="text5-9"
             style="font-weight:500;font-size:7.40833px;line-height:1.25;font-family:'Noto Sans JP';-inkscape-font-specification:'Noto Sans JP Medium';fill:#f9f9f9;stroke-width:0.264583"
             aria-label="新店" />
          <path
             d="m 79.9751,29.970369 h 1.263351 v 0.239544 H 79.9751 Z m -0.05578,1.489769 h 2.930317 v 0.246107 h -2.930317 z m 0.09188,-0.984429 h 1.164908 v 0.239544 h -1.164908 z m 0.682538,2.031205 h 1.657122 v 0.239544 h -1.657122 z m -0.777699,-1.443829 q 0.170634,-0.01313 0.39049,-0.02953 0.219856,-0.01641 0.465963,-0.0361 0.249389,-0.02297 0.498777,-0.04266 v 0.239544 q -0.360957,0.0361 -0.715352,0.06891 -0.351113,0.02953 -0.62019,0.05578 z m 0.544717,-1.000836 h 0.295329 v 1.030369 l -0.295329,0.03609 z m 1.476644,-0.252671 0.337987,0.0361 q -0.04266,0.101725 -0.08532,0.196886 -0.04266,0.09516 -0.07876,0.167353 l -0.269077,-0.04266 q 0.02625,-0.08532 0.0525,-0.18376 0.02953,-0.09844 0.04266,-0.173916 z m -0.259233,0.958178 v 0.272359 h 0.748166 v -0.272359 z m 0,-0.495496 v 0.269077 h 0.748166 V 30.27226 Z M 81.39596,30.032716 h 1.328979 v 1.246943 H 81.39596 Z m -0.561125,1.47008 0.282203,0.09516 q -0.121413,0.210011 -0.29861,0.393771 -0.177197,0.18376 -0.383927,0.331425 -0.203449,0.147664 -0.416742,0.259233 -0.01641,-0.03281 -0.0525,-0.07875 -0.03281,-0.04922 -0.07219,-0.09516 -0.0361,-0.04922 -0.06891,-0.07547 0.20673,-0.0886 0.400334,-0.213293 0.193604,-0.127976 0.351113,-0.282203 0.16079,-0.154227 0.259233,-0.334706 z m -0.34455,0.452838 h 2.070582 v 0.885986 h -0.328143 v -0.646442 h -1.427422 v 0.662849 h -0.315017 z m 3.458627,0.278921 h 2.211684 v 0.232982 h -2.211684 z m 0.05907,-2.283875 h 2.142774 v 0.232981 h -2.142774 z m 0.89583,2.014798 h 0.305173 v 0.889267 h -0.305173 z m -0.246107,-1.883541 h 0.255952 v 0.853172 h -0.255952 z m 0.541436,0 h 0.259233 v 0.853172 h -0.259233 z m -0.718633,1.637434 v 0.164071 h 1.191159 v -0.164071 z m 0,-0.34455 v 0.157508 h 1.191159 v -0.157508 z m -0.278922,-0.193605 h 1.762128 v 0.895831 h -1.762128 z m 0.177197,-0.62019 v 0.278921 h 1.381482 v -0.278921 z m -0.27564,-0.20673 h 1.94917 v 0.692382 h -1.94917 z m -0.80395,-0.272359 0.180479,-0.219856 q 0.08532,0.03938 0.18376,0.09844 0.101724,0.05907 0.193604,0.118132 0.09516,0.05578 0.157509,0.101724 l -0.190323,0.246107 q -0.05579,-0.04922 -0.147665,-0.111568 -0.0886,-0.06235 -0.187041,-0.121413 -0.09844,-0.06235 -0.190323,-0.111569 z m -0.164072,0.889268 0.173916,-0.226419 q 0.09188,0.04594 0.200167,0.105006 0.108288,0.05578 0.206731,0.118131 0.101724,0.05907 0.167353,0.108287 l -0.177198,0.252671 q -0.05907,-0.0525 -0.16079,-0.114851 -0.09844,-0.06563 -0.20673,-0.127975 -0.105006,-0.06563 -0.203449,-0.11485 z m 0.09516,1.617745 q 0.07219,-0.124695 0.16079,-0.295329 0.09188,-0.173916 0.18376,-0.364239 0.09516,-0.193604 0.170634,-0.380646 l 0.246108,0.196886 q -0.07219,0.170635 -0.154228,0.354395 -0.07875,0.180478 -0.164071,0.357675 -0.08532,0.173916 -0.167353,0.331425 z"
             id="text5-9-1"
             style="font-weight:500;font-size:3.28143px;line-height:1.25;font-family:'Noto Sans JP';-inkscape-font-specification:'Noto Sans JP Medium';fill:#f9f9f9;stroke-width:0.117194"
             aria-label="碧潭" />
          <path
             style="font-weight:500;font-size:3.28143px;line-height:1.25;font-family:'Noto Sans kr';-inkscape-font-specification:'Noto Sans kr Medium';fill:#f9f9f9;stroke-width:0.117194"
             d="m 92.288885,29.931944 h 0.344551 v 3.00579 h -0.344551 z m -1.962295,0.246108 h 0.341269 v 0.764573 h 0.75801 v -0.764573 h 0.341269 v 2.047612 H 90.32659 Z m 0.341269,1.03365 v 0.73504 h 0.75801 v -0.73504 z m 2.641551,0.236263 h 0.236263 q 0.301892,0 0.525029,-0.0033 0.226419,-0.0066 0.416742,-0.02297 0.190323,-0.01969 0.387209,-0.05579 l 0.03938,0.269078 q -0.203449,0.03938 -0.400335,0.05906 -0.196886,0.01641 -0.429867,0.02297 -0.232982,0.0066 -0.538155,0.0066 H 93.30941 Z m 0,-1.279758 h 1.384764 v 0.27564 h -1.043495 v 1.099279 H 93.30941 Z m 0.232982,0.633316 h 1.095998 v 0.269078 h -1.095998 z m 1.640715,-0.869579 h 0.341269 v 2.22481 h -0.341269 z m 0.239544,0.912238 h 0.525029 v 0.285484 h -0.525029 z m -1.794942,1.749002 h 2.021361 v 0.278922 h -2.021361 z m 0,-0.639879 h 0.34455 v 0.803951 h -0.34455 z"
             id="text5-9-1-0"
             aria-label="비탄" />
          <path
             style="font-weight:500;font-size:7.40833px;line-height:1.25;font-family:'Noto Sans KR';-inkscape-font-specification:'Noto Sans KR Medium';fill:#f9f9f9;stroke-width:0.264583"
             d="m 60.700059,43.709385 h 0.777874 v 4.948765 h -0.777874 z m -3.63749,6.000747 h 4.607981 v 0.629709 h -4.607981 z m 0,-1.511299 h 0.770466 v 1.822449 h -0.770466 z m 0.518583,-4.119031 h 0.644524 v 0.674158 q 0,0.666749 -0.222249,1.259416 -0.22225,0.585258 -0.644525,1.029758 -0.422275,0.444499 -1.029758,0.674158 L 55.929094,47.1024 q 0.5334,-0.200025 0.903816,-0.563033 0.370417,-0.370416 0.555625,-0.829733 0.192617,-0.466724 0.192617,-0.955674 z m 0.155575,0 h 0.629708 v 0.674158 q 0,0.363008 0.103716,0.703791 0.111125,0.333375 0.318559,0.629708 0.214841,0.296333 0.518583,0.525992 0.303741,0.229658 0.696383,0.363008 l -0.40005,0.622299 Q 59.010959,47.376509 58.588685,46.961642 58.16641,46.539367 57.951568,45.976334 57.736727,45.405893 57.736727,44.75396 Z m 5.28214,3.14854 h 0.414866 q 0.414867,0 0.770466,-0.0074 0.3556,-0.01482 0.703792,-0.05186 0.3556,-0.03704 0.733424,-0.111125 l 0.06668,0.614892 q -0.392641,0.07408 -0.755649,0.118533 -0.3556,0.03704 -0.726017,0.05186 -0.363008,0.0074 -0.792691,0.0074 h -0.414866 z m 0,-2.978149 h 2.34844 v 0.614892 H 63.781925 V 47.458 h -0.763058 z m 4.719106,-0.540808 h 0.740833 v 5.01544 h -0.740833 z m -2.392891,1.348316 h 1.629833 v 0.614892 h -1.629833 z m 1.059391,-1.214966 h 0.733425 v 4.719106 h -0.733425 z m -1.059391,2.459566 h 1.637241 v 0.614891 h -1.637241 z m -1.340907,3.400423 h 4.667247 v 0.637117 h -4.667247 z m 0,-1.377949 h 0.777874 v 1.852082 h -0.777874 z"
             id="text5-9-8"
             aria-label="신뎬" />
          <text
             xml:space="preserve"
             transform="matrix(0.31967577,0,0,0.31967577,-16.498784,-6.8865533)"
             id="text6"
             style="font-size:55px;line-height:1.25;font-family:'Microsoft JhengHei';-inkscape-font-specification:'Microsoft JhengHei';white-space:pre;shape-inside:url(#rect6);display:inline" />
        </g>
        <path
           id="rect2"
           style="fill:#ffffff;stroke-width:0.634253"
           d="m 79.913445,18.870537 h 0.878811 v 14.029954 h -0.878811 z" />
      </g>
    </g>
  </g>
</svg>
