<?xml version="1.0" encoding="UTF-8" standalone="no"?>
<!-- Created with Inkscape (http://www.inkscape.org/) -->

<svg
   width="500"
   height="250"
   viewBox="0 0 132.29166 66.145833"
   version="1.1"
   id="svg1"
   inkscape:version="1.3.2 (091e20e, 2023-11-25, custom)"
   sodipodi:docname="g02.svg"
   xmlns:inkscape="http://www.inkscape.org/namespaces/inkscape"
   xmlns:sodipodi="http://sodipodi.sourceforge.net/DTD/sodipodi-0.dtd"
   xmlns="http://www.w3.org/2000/svg"
   xmlns:svg="http://www.w3.org/2000/svg">
  <sodipodi:namedview
     id="namedview1"
     pagecolor="#9e652e"
     bordercolor="#ffffff"
     borderopacity="1"
     inkscape:showpageshadow="0"
     inkscape:pageopacity="0"
     inkscape:pagecheckerboard="false"
     inkscape:deskcolor="#d1d1d1"
     inkscape:document-units="mm"
     inkscape:zoom="2.0208096"
     inkscape:cx="305.81802"
     inkscape:cy="106.88785"
     inkscape:window-width="1920"
     inkscape:window-height="1009"
     inkscape:window-x="1912"
     inkscape:window-y="-8"
     inkscape:window-maximized="1"
     inkscape:current-layer="layer1" />
  <defs
     id="defs1">
    <rect
       x="560.66638"
       y="34.144731"
       width="279.32397"
       height="128.59143"
       id="rect6" />
    <rect
       x="157.85752"
       y="62.351248"
       width="381.61437"
       height="132.30098"
       id="rect4" />
    <rect
       x="157.85751"
       y="62.35125"
       width="329.07602"
       height="135.09438"
       id="rect4-5" />
  </defs>
  <g
     inkscape:label="Layer 1"
     inkscape:groupmode="layer"
     id="layer1">
    <rect
       style="fill:#007846;fill-opacity:1;stroke:none;stroke-width:0.953294;stroke-dasharray:none"
       id="rect5"
       width="132.29167"
       height="66.145836"
       x="-2.5431316e-06"
       y="-1.2715658e-06"
       ry="0" />
    <g
       id="g1"
       transform="matrix(0.93177749,0,0,0.93177749,-11.591475,2.2563174)">
      <path
         id="rect1"
         style="fill-opacity:0;stroke:#f9f9f9;stroke-width:0.942789"
         d="m 26.668419,14.352791 h 12.425165 c 3.927061,0 7.088558,3.161497 7.088558,7.088559 v 23.263136 c 0,3.927062 -3.161497,7.088559 -7.088558,7.088559 H 26.668419 c -3.927061,0 -7.088558,-3.161497 -7.088558,-7.088559 V 21.44135 c 0,-3.927062 3.161497,-7.088559 7.088558,-7.088559 z" />
      <path
         style="font-size:14.4826px;line-height:1.25;font-family:'AR UDJingXiHeiE1G30 EB';-inkscape-font-specification:'AR UDJingXiHeiE1G30 EB';fill:#f9f9f9;stroke-width:0.301722"
         d="m 35.832506,29.412688 q -0.535856,0.753095 -1.346882,1.11516 -0.796543,0.347582 -1.824808,0.347582 -2.259285,0 -3.591684,-1.419294 -1.3324,-1.433778 -1.3324,-3.997198 0,-2.577903 1.404813,-3.997198 1.404812,-1.419295 3.794441,-1.419295 1.926186,0 3.128241,0.883439 1.216539,0.868956 1.462743,2.491007 h -1.83929 q -0.144826,-0.854473 -0.854474,-1.390329 -0.695164,-0.550339 -1.89722,-0.550339 -1.607569,0 -2.44756,1.042747 -0.83999,1.028265 -0.83999,2.939968 0,2.042047 0.883438,3.012381 0.883439,0.955851 2.404112,0.955851 1.332399,0 2.114459,-0.78206 0.782061,-0.78206 0.782061,-1.795842 v -0.217239 h -2.968933 v -1.433778 h 4.73581 v 5.488906 h -1.766877 z"
         id="text2"
         aria-label="G" />
      <path
         style="font-size:14.3917px;line-height:1.25;font-family:'AR UDJingXiHeiE1G30 EB';-inkscape-font-specification:'AR UDJingXiHeiE1G30 EB';fill:#f9f9f9;stroke-width:0.261667"
         d="m 32.247745,39.692779 q 0,2.720031 -0.877894,4.015284 -0.877893,1.295253 -2.720031,1.295253 -1.784571,0 -2.70564,-1.295253 -0.921068,-1.295253 -0.921068,-4.015284 0,-2.907123 0.877893,-4.173593 0.877894,-1.280861 2.748815,-1.280861 1.827746,0 2.70564,1.280861 0.892285,1.26647 0.892285,4.173593 z m -3.597925,3.885759 q 0.921069,0 1.35282,-0.906677 0.431751,-0.921069 0.431751,-2.979082 0,-2.216322 -0.417359,-3.122999 -0.402968,-0.906677 -1.367212,-0.906677 -0.964244,0 -1.381603,0.921069 -0.417359,0.906677 -0.417359,3.108607 0,2.043622 0.431751,2.96469 0.431751,0.921069 1.367211,0.921069 z m 5.094652,-5.871813 q 0,-1.611871 0.978635,-2.53294 0.978636,-0.93546 2.561723,-0.93546 1.626262,0 2.532939,0.820327 0.921069,0.805935 0.921069,2.245105 0,1.021811 -0.662018,2.058013 -0.647627,1.021811 -2.043622,2.259497 l -1.957271,1.770179 h 4.634127 v 1.424778 H 33.701297 V 43.50658 l 2.907123,-2.61929 q 1.280861,-1.165727 1.784571,-1.986054 0.518101,-0.834719 0.518101,-1.597479 0,-0.719585 -0.417359,-1.165728 -0.41736,-0.446142 -1.208903,-0.446142 -0.791544,0 -1.280861,0.546884 -0.489318,0.546885 -0.489318,1.467954 z"
         id="text3"
         aria-label="02" />
      <path
         style="font-weight:500;font-size:72px;line-height:1.25;font-family:'Noto Sans TC';-inkscape-font-specification:'Noto Sans TC Medium';white-space:pre;fill:#f9f9f9"
         d="m 200.91342,98.721406 h 26.28 v 6.336004 h -26.28 z m -38.88,-16.704 h 32.04 v 5.616 h -32.04 z m -0.792,28.584004 h 32.976 v 5.832 h -32.976 z m -0.36,-12.312004 h 34.344 v 5.688004 h -34.344 z m 52.272,3.168004 h 6.624 v 39.672 h -6.624 z m -46.872,-12.312004 5.544,-1.296 q 0.936,2.088 1.656,4.608 0.792,2.52 1.08,4.32 l -5.76,1.584 q -0.216,-1.872 -0.936,-4.464 -0.648,-2.592 -1.584,-4.752 z m 17.928,-1.44 6.264,1.296 q -1.152,3.024 -2.376,6.12 -1.224,3.096 -2.304,5.256004 l -5.544,-1.224004 q 0.72,-1.584 1.44,-3.6 0.72,-2.016 1.368,-4.104 0.72,-2.088 1.152,-3.744 z m 36.36,-12.024 5.328,5.04 q -3.528,1.368 -7.92,2.52 -4.32,1.08 -8.856,1.944 -4.464,0.864 -8.784,1.512 -0.216,-1.08 -0.864,-2.592 -0.576,-1.512 -1.224,-2.52 4.104,-0.72 8.208,-1.656 4.104,-0.936 7.776,-2.016 3.744,-1.152 6.336,-2.232 z m -47.88,0.144 6.768,-1.728 q 1.224,2.232 2.376,4.968 1.224,2.664 1.8,4.608 l -7.056,2.016 q -0.504,-2.016 -1.656,-4.752 -1.08,-2.808 -2.232,-5.112 z m 25.56,5.76 h 6.408 v 25.272004 q 0,3.96 -0.288,8.496 -0.216,4.536 -1.008,9.144 -0.792,4.608 -2.232,8.928 -1.44,4.32 -3.888,7.776 -0.504,-0.648 -1.512,-1.44 -0.936,-0.792 -2.016,-1.512 -1.008,-0.72 -1.728,-1.08 2.88,-4.248 4.248,-9.504 1.368,-5.256 1.656,-10.656 0.36,-5.4 0.36,-10.152 z m -13.824,39.816004 4.536,-2.448 q 1.8,2.592 3.456,5.688 1.656,3.024 2.52,5.256 l -4.68,2.808 q -0.864,-2.232 -2.592,-5.472 -1.656,-3.24 -3.24,-5.832 z m -17.28,-1.8 5.328,1.512 q -1.296,3.888 -3.384,7.92 -2.016,3.96 -4.032,6.768 -0.792,-0.72 -2.232,-1.656 -1.368,-1.008 -2.376,-1.512 2.016,-2.592 3.744,-6.048 1.8,-3.528 2.952,-6.984 z m 8.136,-18.216 h 6.624 v 39.744 h -6.624 z m 94.32,-1.656004 h 26.568 v 6.192004 h -26.568 z m -15.12,31.968004 h 34.92 v 6.048 h -34.92 z m 11.808,-39.744004 h 7.056 v 26.496004 h -7.056 z m -15.408,22.320004 h 41.904 v 26.208 h -6.984 v -19.872 h -28.296 v 20.016 h -6.624 z m -9.288,-31.176004 h 56.664 v 6.48 h -56.664 z m -3.096,0 h 6.984 v 18.648004 q 0,4.32 -0.288,9.504 -0.288,5.112 -1.08,10.512 -0.792,5.4 -2.376,10.512 -1.512,5.112 -3.96,9.216 -0.648,-0.576 -1.8,-1.368 -1.08,-0.792 -2.232,-1.512 -1.152,-0.72 -2.016,-1.008 2.304,-3.888 3.672,-8.496 1.368,-4.608 2.016,-9.36 0.648,-4.824 0.864,-9.432 0.216,-4.68 0.216,-8.568 z m 24.48,-6.84 6.768,-1.512 q 1.584,2.304 2.88,5.112 1.296,2.808 1.8,4.968 l -7.2,1.728 q -0.36,-2.16 -1.584,-5.04 -1.224,-2.952 -2.664,-5.256 z m 71.28,16.2 v 7.272 h 14.472 v -7.272 z m -6.336,-4.68 h 27.576 v 16.560004 h -27.576 z m -2.016,25.488004 v 9.432 h 7.776 v -9.432 z m -5.688,-4.752 h 19.368 v 18.936 h -19.368 z m 29.232,4.752 v 9.432 h 8.28 v -9.432 z m -5.688,-4.752 h 19.944 v 18.936 h -19.944 z m -37.728,-30.888004 h 61.056 v 6.048 h -61.056 z m 2.88,0.288 h 6.696 v 45.504004 q 0,3.168 0.936,5.112 0.936,1.872 3.168,2.736 2.232,0.864 6.048,0.864 1.152,0 3.528,0 2.376,0 5.4,0 3.096,0 6.408,0 3.384,0 6.552,0 3.168,0 5.616,0 2.52,0 3.816,0 2.088,0 4.464,-0.072 2.376,-0.144 4.536,-0.288 2.232,-0.216 3.6,-0.432 0.144,0.792 0.288,2.088 0.144,1.224 0.36,2.376 0.216,1.152 0.36,1.944 -1.152,0.288 -3.312,0.432 -2.16,0.216 -4.968,0.216 -2.736,0.072 -5.544,0.072 -1.296,0 -3.816,0 -2.52,0 -5.76,0 -3.168,0 -6.552,0 -3.312,0 -6.336,0 -3.024,0 -5.184,0 -2.088,0 -2.808,0 -5.904,0 -9.792,-1.44 -3.888,-1.368 -5.832,-4.752 -1.872,-3.456 -1.872,-9.288 z m 108.36,37.944004 6.552,-2.952 q 2.952,3.888 6.048,8.352 3.096,4.464 5.76,8.712 2.664,4.248 4.392,7.56 l -6.912,3.744 q -1.656,-3.384 -4.32,-7.776 -2.592,-4.464 -5.688,-9.072 -3.024,-4.608 -5.832,-8.568 z m -21.312,-39.312004 7.56,2.376 q -2.592,5.976 -6.12,11.736 -3.456,5.76 -7.416,10.800004 -3.888,4.968 -7.92,8.712 -0.576,-0.792 -1.728,-1.872 -1.08,-1.08 -2.232,-2.088 -1.152,-1.08 -2.088,-1.728 3.96,-3.312 7.704,-7.776004 3.744,-4.464 6.84,-9.648 3.168,-5.184 5.4,-10.512 z m -10.656,61.848004 q -0.288,-0.792 -0.792,-2.16 -0.432,-1.296 -0.936,-2.736 -0.504,-1.44 -1.08,-2.448 1.656,-0.432 3.24,-1.944 1.584,-1.584 3.744,-4.104 1.152,-1.224 3.24,-3.96 2.16,-2.808 4.752,-6.696 2.592,-3.888 5.256,-8.352 2.664,-4.464 4.824,-9.000004 l 7.848,3.312004 q -3.528,6.264 -7.632,12.456 -4.104,6.12 -8.496,11.664 -4.32,5.472 -8.64,9.864 v 0.216 q 0,0 -0.864,0.432 -0.792,0.36 -1.872,0.936 -1.008,0.576 -1.8,1.224 -0.792,0.72 -0.792,1.296 z m 0,0 -0.216,-5.76 4.752,-2.664 41.976,-2.52 q 0.216,1.584 0.648,3.456 0.504,1.872 0.864,3.024 -10.08,0.72 -17.352,1.296 -7.272,0.504 -12.312,0.864 -4.968,0.432 -8.208,0.72 -3.24,0.288 -5.184,0.504 -1.944,0.288 -3.096,0.504 -1.08,0.216 -1.872,0.576 z m 31.968,-61.992004 h 8.064 q 1.656,5.472 4.464,10.656 2.808,5.112 6.48,9.36 3.672,4.248004 7.992,6.984004 -0.792,0.72 -1.8,1.944 -1.008,1.152 -1.944,2.448 -0.864,1.224 -1.512,2.304 -4.464,-3.456 -8.352,-8.208 -3.888,-4.824004 -6.912,-10.368004 -2.952,-5.544 -4.824,-11.232 h -1.656 z m -9.792,0 h 15.48 v 7.056 h -15.48 z m 79.632,22.536 h 28.08 v 6.552004 h -28.08 z m 13.68,4.608004 h 6.768 v 37.656 h -6.768 z m -48.24,-22.032004 h 6.696 v 25.632004 q 0,3.888 -0.216,8.496 -0.216,4.536 -0.864,9.216 -0.576,4.68 -1.872,9.072 -1.224,4.32 -3.24,7.848 -0.504,-0.72 -1.584,-1.584 -1.008,-0.792 -2.088,-1.584 -1.08,-0.792 -1.872,-1.152 2.376,-4.32 3.384,-9.576 1.08,-5.256 1.368,-10.656 0.288,-5.4 0.288,-10.08 z m 56.952,-5.976 4.536,5.832 q -3.744,1.44 -8.496,2.592 -4.752,1.152 -9.72,2.016 -4.968,0.792 -9.576,1.44 -0.144,-1.224 -0.792,-2.88 -0.576,-1.728 -1.224,-2.88 4.464,-0.72 9.144,-1.584 4.68,-0.936 8.856,-2.088 4.248,-1.152 7.272,-2.448 z m -53.208,17.208 h 22.032 v 22.608004 h -22.032 v -6.12 h 15.408 V 98.865406 h -15.408 z m 20.88,-16.632 4.32,5.76 q -3.672,1.368 -8.28,2.376 -4.608,1.008 -9.504,1.728 -4.824,0.648 -9.288,1.152 -0.144,-1.224 -0.72,-2.808 -0.576,-1.656 -1.152,-2.808 4.32,-0.576 8.856,-1.368 4.536,-0.792 8.64,-1.8 4.176,-1.08 7.128,-2.232 z m 7.056,5.544 h 6.984 v 23.400004 q 0,4.176 -0.432,9.072 -0.432,4.896 -1.656,9.864 -1.152,4.968 -3.528,9.576 -2.304,4.536 -6.048,8.136 -0.504,-0.648 -1.512,-1.584 -1.008,-0.864 -2.088,-1.728 -1.008,-0.864 -1.728,-1.296 3.456,-3.384 5.472,-7.344 2.016,-3.96 2.952,-8.208 1.008,-4.32 1.296,-8.496 0.288,-4.248 0.288,-8.064 z"
         id="text4"
         transform="matrix(0.26166763,0,0,0.26166763,8.6238305,-4.0633201)"
         aria-label="新店區公所" />
      <path
         style="font-size:7.32669px;line-height:1.25;font-family:'AR UDJingXiHeiE1G30 EB';-inkscape-font-specification:'AR UDJingXiHeiE1G30 EB';fill:#f9f9f9;stroke-width:0.261667"
         d="m 54.268447,35.589222 h 1.077023 l -1.824345,2.557015 1.926919,2.740182 h -1.08435 l -1.384744,-2.044147 -1.384745,2.044147 h -1.055043 l 1.912266,-2.747509 -1.831673,-2.549688 h 1.091677 l 1.274844,1.904939 z m 2.718203,0 v 5.297197 h -0.93049 v -5.297197 z m 2.146715,1.472664 v 3.824533 h -0.93049 v -5.297197 h 0.959797 l 2.600975,3.912452 v -3.912452 h 0.930489 v 5.297197 h -1.01841 z m 9.290238,1.113657 q 0,1.318805 -0.622769,2.01484 -0.615442,0.696036 -1.721772,0.696036 h -2.168701 v -5.297197 h 2.168701 q 1.10633,0 1.721772,0.652075 0.622769,0.652076 0.622769,1.934246 z m -0.967124,0 q 0,-0.959796 -0.395641,-1.406724 -0.388314,-0.454255 -1.135637,-0.454255 h -1.08435 v 3.846512 h 1.091677 q 0.718016,0 1.120983,-0.476234 0.402968,-0.476235 0.402968,-1.509299 z m 2.916017,-2.586321 v 5.297197 h -0.93049 v -5.297197 z m 4.037001,3.157803 -0.835243,-2.263947 -0.849896,2.263947 z m -1.956226,0.725343 -0.527522,1.414051 h -0.945143 l 2.132067,-5.297197 h 0.95247 l 2.117413,5.297197 h -0.967123 l -0.534848,-1.414051 z m 5.267882,-2.410482 v 3.824533 h -0.930489 v -5.297197 h 0.959796 l 2.600975,3.912452 v -3.912452 h 0.93049 v 5.297197 h -1.01841 z m 11.209827,1.113657 q 0,1.318805 -0.622769,2.01484 -0.615441,0.696036 -1.721772,0.696036 h -2.1687 v -5.297197 h 2.1687 q 1.106331,0 1.721772,0.652075 0.622769,0.652076 0.622769,1.934246 z m -0.967123,0 q 0,-0.959796 -0.395641,-1.406724 -0.388315,-0.454255 -1.135637,-0.454255 h -1.08435 v 3.846512 h 1.091676 q 0.718016,0 1.120984,-0.476234 0.402968,-0.476235 0.402968,-1.509299 z m 2.916015,-2.586321 v 5.297197 h -0.93049 v -5.297197 z m 2.974633,2.901369 q -0.967123,-0.175841 -1.436032,-0.542175 -0.468908,-0.366335 -0.468908,-1.025737 0,-0.615442 0.498215,-1.01841 0.505542,-0.402968 1.553258,-0.402968 0.959797,0 1.487319,0.410295 0.527521,0.410295 0.578808,1.186924 h -0.93049 q -0.0073,-0.373661 -0.293067,-0.622769 -0.285741,-0.249107 -0.871876,-0.249107 -0.549502,0 -0.813263,0.183167 -0.263761,0.183167 -0.256434,0.512868 0,0.359008 0.351681,0.534849 0.359008,0.17584 1.164944,0.337027 1.011083,0.205148 1.436031,0.556829 0.432275,0.351681 0.432275,1.055043 0,0.674056 -0.571482,1.128311 -0.571482,0.446928 -1.626525,0.446928 -1.077024,0 -1.677812,-0.454255 -0.600789,-0.454255 -0.600789,-1.311478 h 0.93049 q 0,0.476235 0.359008,0.761976 0.359007,0.278414 0.996429,0.278414 0.586136,0 0.915837,-0.227127 0.329701,-0.227127 0.329701,-0.593462 0,-0.424948 -0.329701,-0.608115 -0.329701,-0.183167 -1.157617,-0.337028 z m 4.432645,-2.176027 h -1.648506 v -0.725342 h 4.220176 v 0.725342 h -1.641181 v 4.571855 H 98.28715 Z m 6.59402,0.791283 q 0,-0.388315 -0.20515,-0.586136 -0.20515,-0.205147 -0.59346,-0.205147 h -1.58989 v 1.648505 h 1.5386 q 0.38099,0 0.61545,-0.227127 0.23445,-0.227127 0.23445,-0.630095 z m -2.3885,1.575238 v 2.205334 h -0.93049 v -5.297197 h 2.69622 q 0.72534,0 1.15029,0.388314 0.43228,0.380988 0.43228,1.08435 0,0.461582 -0.2198,0.791283 -0.21248,0.329701 -0.53485,0.468908 0.41029,0.234454 0.63009,0.813263 0.2198,0.578808 0.27842,1.751079 h -0.96713 q -0.044,-1.230884 -0.27108,-1.714446 -0.21981,-0.490888 -0.71069,-0.490888 z m 5.35582,-3.091863 v 5.297197 H 106.918 v -5.297197 z m 4.98214,3.450871 h 0.93049 q -0.0366,0.871876 -0.60812,1.406724 -0.57148,0.534849 -1.65583,0.534849 -1.28217,0 -1.96355,-0.725343 -0.67406,-0.725342 -0.67406,-2.014839 0,-1.274845 0.67406,-2.007514 0.68138,-0.732669 1.9489,-0.732669 1.01841,0 1.58256,0.468909 0.56416,0.461581 0.64475,1.201577 h -0.93049 q -0.0586,-0.424948 -0.38831,-0.681382 -0.3297,-0.263761 -0.93049,-0.263761 -0.74,0 -1.18692,0.498215 -0.44693,0.498215 -0.44693,1.516625 0,1.033063 0.44693,1.523951 0.45425,0.490888 1.20157,0.490888 0.63742,0 0.98178,-0.329701 0.34435,-0.337027 0.37366,-0.886529 z m 2.96731,-2.725529 h -1.64851 v -0.725342 h 4.22018 v 0.725342 h -1.64118 v 4.571855 h -0.93049 z m 10.28666,1.9489 q 0,1.274844 -0.71069,2.000186 -0.70336,0.718016 -1.92692,0.718016 -1.24553,0 -1.9489,-0.725343 -0.70336,-0.725342 -0.70336,-1.992859 0,-1.289498 0.71069,-2.022167 0.71069,-0.739996 1.94157,-0.739996 1.24554,0 1.94158,0.732669 0.69603,0.732669 0.69603,2.029494 z m -2.63761,1.992859 q 0.79861,0 1.23089,-0.527521 0.4396,-0.527522 0.4396,-1.465338 0,-0.93049 -0.4396,-1.479992 -0.4396,-0.556828 -1.23089,-0.556828 -0.80593,0 -1.25286,0.564155 -0.4396,0.556828 -0.4396,1.472665 0,0.937816 0.44693,1.465338 0.44692,0.527521 1.24553,0.527521 z m 4.57919,-1.721772 v 2.351868 h -0.93049 v -5.297197 h 3.71463 v 0.725342 h -2.78414 v 1.494645 h 2.44711 v 0.725342 z m 4.49126,0 v 2.351868 h -0.93049 v -5.297197 h 3.71463 v 0.725342 h -2.78414 v 1.494645 h 2.44712 v 0.725342 z m 4.49127,-2.945329 v 5.297197 h -0.93049 v -5.297197 z m 4.98215,3.450871 h 0.93048 q -0.0366,0.871876 -0.60811,1.406724 -0.57148,0.534849 -1.65583,0.534849 -1.28217,0 -1.96356,-0.725343 -0.67405,-0.725342 -0.67405,-2.014839 0,-1.274845 0.67405,-2.007514 0.68139,-0.732669 1.9489,-0.732669 1.01841,0 1.58257,0.468909 0.56415,0.461581 0.64475,1.201577 h -0.93049 q -0.0586,-0.424948 -0.38832,-0.681382 -0.3297,-0.263761 -0.93049,-0.263761 -0.73999,0 -1.18692,0.498215 -0.44693,0.498215 -0.44693,1.516625 0,1.033063 0.44693,1.523951 0.45426,0.490888 1.20158,0.490888 0.63742,0 0.98177,-0.329701 0.34436,-0.337027 0.37367,-0.886529 z m 5.75877,1.846326 h -3.91978 v -5.297197 h 3.8978 v 0.725342 h -2.96731 v 1.494645 h 2.76949 v 0.725342 h -2.76949 v 1.626525 h 2.98929 z"
         id="text5"
         aria-label="XINDIAN DISTRICT OFFICE" />
      <path
         d="m 54.739753,45.857165 h 2.732856 v 0.644748 h -2.732856 z m -3.905126,-1.699792 h 3.260378 v 0.571481 h -3.260378 z m -0.08059,2.908696 h 3.355624 v 0.593461 h -3.355624 z m -0.02198,-1.252864 h 3.443544 v 0.578808 h -3.443544 z m 5.28987,0.322374 h 0.674056 v 4.037006 H 56.021924 Z M 52.131452,43.45401 h 0.674055 v 0.97445 h -0.674055 z m 0,2.872063 h 0.674055 v 3.875819 h -0.674055 z m 2.285927,-2.329888 0.827916,0.241781 q -0.01465,0.08792 -0.168514,0.117227 v 2.212661 q 0,0.417621 -0.04396,0.893856 -0.03663,0.468908 -0.153861,0.967123 -0.117227,0.490888 -0.351681,0.959796 -0.227127,0.461582 -0.600788,0.849896 -0.04396,-0.08059 -0.131881,-0.17584 -0.08792,-0.09525 -0.190494,-0.183167 -0.09525,-0.08059 -0.17584,-0.117227 0.337028,-0.344355 0.534848,-0.739996 0.197821,-0.395641 0.293068,-0.820589 0.102573,-0.424948 0.13188,-0.835243 0.02931,-0.417621 0.02931,-0.805936 z m 2.425134,-0.505541 0.556829,0.505541 q -0.351681,0.161188 -0.798609,0.300395 -0.439602,0.13188 -0.901183,0.24178 -0.461582,0.102574 -0.893856,0.183168 -0.02198,-0.109901 -0.08792,-0.263761 -0.06594,-0.161187 -0.13188,-0.263761 0.410294,-0.08792 0.827916,-0.197821 0.424948,-0.117227 0.798609,-0.24178 0.373661,-0.131881 0.630095,-0.263761 z m -4.088293,4.264133 q 0.08059,0.05129 0.241781,0.183168 0.168514,0.124553 0.351681,0.271087 0.190494,0.146534 0.344355,0.278414 0.161187,0.124554 0.227127,0.183168 l -0.402968,0.505541 q -0.08792,-0.102573 -0.234454,-0.256434 -0.146534,-0.15386 -0.322374,-0.315047 -0.168514,-0.168514 -0.329701,-0.307721 -0.153861,-0.146534 -0.256435,-0.234455 z m -1.516625,-2.901369 0.542175,-0.124554 q 0.109901,0.227128 0.190494,0.498215 0.08059,0.271088 0.102574,0.461582 l -0.571482,0.161187 q -0.01465,-0.205147 -0.08792,-0.483562 -0.07327,-0.278414 -0.175841,-0.512868 z m 1.86098,-0.139207 0.615442,0.13188 q -0.102574,0.263761 -0.205148,0.527522 -0.102573,0.256434 -0.190494,0.446928 l -0.556828,-0.124553 q 0.05861,-0.139208 0.117227,-0.307721 0.06594,-0.175841 0.124554,-0.351682 0.05861,-0.17584 0.09525,-0.322374 z m -0.959797,2.681569 0.490889,0.183167 q -0.175841,0.402968 -0.439602,0.805936 -0.263761,0.402968 -0.564155,0.747322 -0.300394,0.344355 -0.593462,0.578809 -0.07327,-0.117227 -0.212474,-0.263761 -0.13188,-0.146534 -0.241781,-0.234454 0.293068,-0.190494 0.586136,-0.483562 0.300394,-0.293067 0.549501,-0.637422 0.256434,-0.351681 0.424948,-0.696035 z m 9.729845,-1.487318 h 2.769489 v 0.615442 h -2.769489 z m -1.655832,3.414237 h 3.590078 v 0.615442 h -3.590078 z m 1.326131,-4.20552 h 0.703362 v 2.696222 h -0.703362 z m -1.692466,2.351868 h 4.330074 v 2.732855 h -0.710689 v -2.117413 h -2.938002 v 2.132066 h -0.681383 z m 1.414052,-4.058987 h 0.718015 v 1.289498 h -0.718015 z m -2.329888,0.90851 h 5.810065 v 0.659402 H 58.93062 Z m -0.344354,0 h 0.696035 v 1.875632 q 0,0.432275 -0.02931,0.95247 -0.02931,0.520195 -0.1099,1.06237 -0.07327,0.542175 -0.227127,1.06237 -0.146534,0.512869 -0.388315,0.937817 -0.05861,-0.05861 -0.168514,-0.139207 -0.1099,-0.08059 -0.227127,-0.153861 -0.117227,-0.06594 -0.197821,-0.102574 0.227128,-0.395641 0.359008,-0.857222 0.13188,-0.461582 0.190494,-0.945143 0.06594,-0.490889 0.08059,-0.95247 0.02198,-0.468908 0.02198,-0.86455 z m 11.583497,0.366334 0.681382,0.227128 q -0.424948,0.827916 -0.989103,1.567911 -0.556829,0.739996 -1.208904,1.355438 -0.644749,0.615442 -1.340784,1.077024 -0.05861,-0.06594 -0.161187,-0.168514 -0.09525,-0.109901 -0.197821,-0.212474 -0.102574,-0.102574 -0.183167,-0.161188 0.696035,-0.410294 1.326131,-0.981776 0.637422,-0.571482 1.164943,-1.260191 0.534849,-0.688709 0.90851,-1.443358 z m -3.113843,0.945143 0.483561,-0.439601 q 0.490888,0.307721 1.011083,0.674055 0.527522,0.366335 1.01841,0.761976 0.498215,0.395641 0.915837,0.783956 0.417621,0.388315 0.696035,0.732669 l -0.556828,0.520195 q -0.256434,-0.337028 -0.659402,-0.732669 -0.395642,-0.395641 -0.88653,-0.798609 -0.483562,-0.410295 -1.003757,-0.791283 -0.520195,-0.388314 -1.018409,-0.710689 z m -1.348111,-1.795039 h 6.183726 v 0.666729 h -5.495018 v 5.714818 h -0.688708 z m 0.432274,5.326504 h 5.927293 v 0.666729 h -5.927293 z m 9.869051,-5.480364 h 1.985534 v 0.608115 h -1.985534 z m -0.879202,2.923349 h 3.34097 v 0.630095 h -3.34097 z m 2.447114,-2.923349 h 0.696036 v 1.677812 q 0,0.205147 0.03663,0.234454 0.02198,0.01465 0.05129,0.02931 0.02931,0.0073 0.07327,0.0073 0.03663,0 0.09525,0 0.06594,0 0.117227,0 0.03663,0 0.08059,-0.0073 0.04396,-0.0073 0.06594,-0.01465 0.02198,-0.01465 0.04396,-0.05129 0.02931,-0.04396 0.03663,-0.117227 0.01465,-0.07327 0.02198,-0.227127 0.0073,-0.161187 0.01465,-0.373661 0.08792,0.08059 0.241781,0.161187 0.15386,0.07327 0.278414,0.117227 -0.0073,0.212474 -0.02931,0.432275 -0.02198,0.2198 -0.05861,0.315047 -0.08059,0.197821 -0.256435,0.278415 -0.07327,0.03663 -0.190494,0.05861 -0.117227,0.01465 -0.212474,0.01465 -0.05861,0 -0.146533,0 -0.08059,0 -0.161188,0 -0.07327,0 -0.124553,0 -0.131881,0 -0.271088,-0.03663 -0.13188,-0.03663 -0.219801,-0.117227 -0.102573,-0.08059 -0.146533,-0.219801 -0.03663,-0.146533 -0.03663,-0.483561 z m 0.659402,2.923349 h 0.131881 l 0.13188,-0.02198 0.468908,0.205147 q -0.24178,0.710689 -0.630095,1.267518 -0.388315,0.549502 -0.901183,0.97445 -0.505542,0.417621 -1.099003,0.710689 -0.593462,0.300394 -1.238211,0.490888 -0.06594,-0.131881 -0.175841,-0.307721 -0.1099,-0.175841 -0.212474,-0.285741 0.593462,-0.146534 1.142964,-0.402968 0.549502,-0.256434 1.01841,-0.622769 0.468908,-0.366334 0.820589,-0.842569 0.351681,-0.476235 0.542175,-1.047717 z m -2.073453,0.600789 q 0.402968,0.923163 1.267517,1.545931 0.86455,0.622769 2.110087,0.857223 -0.07327,0.07327 -0.161187,0.183167 -0.08792,0.117227 -0.161187,0.227128 -0.07327,0.1099 -0.124554,0.205147 -1.304151,-0.293068 -2.183354,-1.011083 -0.879202,-0.718016 -1.370091,-1.824346 z M 75.68676,43.681138 h 0.674056 v 0.820589 q 0,0.329701 -0.07327,0.696036 -0.07327,0.359007 -0.271088,0.703362 -0.190494,0.337028 -0.571482,0.608115 -0.05129,-0.05861 -0.161187,-0.139207 -0.102574,-0.08059 -0.212474,-0.15386 -0.1099,-0.07327 -0.190494,-0.109901 0.359008,-0.234454 0.527522,-0.505541 0.17584,-0.278415 0.227127,-0.564156 0.05129,-0.293067 0.05129,-0.542175 z m -1.230884,1.223557 0.622769,0.249107 q -0.271088,0.446929 -0.630096,0.893857 -0.351681,0.446928 -0.747322,0.835242 -0.388315,0.388315 -0.776629,0.688709 -0.03663,-0.07327 -0.1099,-0.19782 -0.06594,-0.124554 -0.139208,-0.249108 -0.07327,-0.13188 -0.139207,-0.205147 0.359008,-0.241781 0.710689,-0.564155 0.351681,-0.329701 0.666729,-0.696036 0.315048,-0.373661 0.542175,-0.754649 z m -0.234454,-1.487318 0.659402,0.263761 q -0.234454,0.329701 -0.549502,0.666729 -0.307721,0.337027 -0.659402,0.637422 -0.344354,0.300394 -0.688709,0.527521 -0.03663,-0.08059 -0.102573,-0.190494 -0.06594,-0.1099 -0.131881,-0.212474 -0.06594,-0.1099 -0.124553,-0.183167 0.300394,-0.183167 0.600788,-0.439601 0.307721,-0.256435 0.564155,-0.534849 0.263761,-0.278414 0.432275,-0.534848 z m -0.520195,3.062556 0.644749,-0.644748 0.02931,0.01465 v 4.359381 h -0.674056 z m 6.440161,-2.681568 h 3.201764 v 0.630095 h -3.201764 z m 3.751266,2.10276 h 2.923349 v 0.666729 h -2.923349 z m 1.487318,0.446928 h 0.688709 v 3.868492 h -0.688709 z m -1.751079,-2.241967 0.842569,0.205147 q -0.0073,0.08792 -0.168514,0.117227 v 1.670485 q 0,0.446929 -0.04396,0.97445 -0.04396,0.527522 -0.17584,1.08435 -0.131881,0.549502 -0.388315,1.077024 -0.256434,0.520195 -0.681382,0.959796 -0.04396,-0.07327 -0.139207,-0.168514 -0.08792,-0.09525 -0.190494,-0.17584 -0.102574,-0.08059 -0.183168,-0.124554 0.388315,-0.395641 0.608116,-0.857223 0.227127,-0.461581 0.337028,-0.937816 0.1099,-0.483562 0.146533,-0.95247 0.03663,-0.468908 0.03663,-0.886529 z m -3.231071,0.99643 h 0.659403 v 1.934246 q 0,0.351681 -0.02931,0.769302 -0.02198,0.417622 -0.09525,0.849896 -0.06594,0.432275 -0.197821,0.835243 -0.124554,0.402968 -0.344354,0.732669 -0.05129,-0.06594 -0.153861,-0.146534 -0.102573,-0.08059 -0.212474,-0.161187 -0.102573,-0.07327 -0.17584,-0.117227 0.249107,-0.395641 0.366334,-0.879203 0.117227,-0.483561 0.146534,-0.97445 0.03663,-0.490888 0.03663,-0.915836 z m 5.700165,-1.611872 0.608116,0.520195 q -0.366335,0.183167 -0.827916,0.344354 -0.454255,0.161187 -0.937817,0.293068 -0.483561,0.13188 -0.937816,0.234454 -0.02931,-0.117227 -0.102574,-0.278414 -0.06594,-0.168514 -0.139207,-0.278415 0.424948,-0.102573 0.857223,-0.234454 0.439601,-0.139207 0.820589,-0.293067 0.388315,-0.153861 0.659402,-0.307721 z m -5.319177,1.611872 h 2.388501 v 2.373847 H 80.77881 v -0.622768 h 1.721772 V 45.725284 H 80.77881 Z"
         id="text5-9"
         style="font-weight:500;font-size:7.32669px;line-height:1.25;font-family:'Noto Sans JP';-inkscape-font-specification:'Noto Sans JP Medium';fill:#f9f9f9;stroke-width:0.261667"
         aria-label="新店区役所" />
      <path
         style="font-weight:500;font-size:7.32669px;line-height:1.25;font-family:'Noto Sans KR';-inkscape-font-specification:'Noto Sans KR Medium';fill:#f9f9f9;stroke-width:0.261667"
         d="m 99.912459,43.592173 h 0.769301 v 4.894229 h -0.769301 z m -3.597405,5.934619 h 4.557206 v 0.622769 h -4.557206 z m 0,-1.494645 h 0.761976 v 1.802366 h -0.761976 z m 0.512868,-4.073639 h 0.637422 v 0.666728 q 0,0.659403 -0.2198,1.245538 -0.219801,0.578808 -0.637422,1.01841 -0.417622,0.439601 -1.01841,0.666728 L 95.19407,46.947797 q 0.527522,-0.19782 0.893857,-0.556828 0.366334,-0.366335 0.549501,-0.82059 0.190494,-0.461581 0.190494,-0.945143 z m 0.153861,0 h 0.622768 v 0.666728 q 0,0.359008 0.102574,0.696036 0.109901,0.329701 0.315048,0.622769 0.212474,0.293067 0.512868,0.520195 0.300394,0.227127 0.688709,0.359007 l -0.395641,0.615442 q -0.586135,-0.2198 -1.003757,-0.630095 -0.417621,-0.417621 -0.630095,-0.97445 -0.212474,-0.564155 -0.212474,-1.208904 z m 5.223927,3.113843 h 0.4103 q 0.41029,0 0.76197,-0.0073 0.35169,-0.01465 0.69604,-0.05129 0.35168,-0.03663 0.72534,-0.1099 l 0.0659,0.608115 q -0.38831,0.07327 -0.74732,0.117227 -0.35168,0.03663 -0.71802,0.05129 -0.359,0.0073 -0.78395,0.0073 h -0.4103 z m 0,-2.94533 h 2.32256 v 0.608116 h -1.56791 v 2.564341 h -0.75465 z m 4.66711,-0.534848 h 0.73266 v 4.960169 h -0.73266 z m -2.36653,1.333458 h 1.61188 v 0.608115 h -1.61188 z m 1.04772,-1.201578 h 0.72534 v 4.667102 h -0.72534 z m -1.04772,2.432462 h 1.6192 v 0.608115 h -1.6192 z m -1.32613,3.36295 h 4.61582 v 0.630096 h -4.61582 z m 0,-1.362764 h 0.76931 v 1.831673 h -0.76931 z m 8.24986,-4.154233 h 4.18354 v 0.615442 h -4.18354 z m -0.73267,2.864736 h 6.05185 v 0.622768 h -6.05185 z m 2.61563,0.432274 h 0.77663 v 2.98929 h -0.77663 z m 1.92692,-3.29701 h 0.75465 v 0.586135 q 0,0.351681 -0.0147,0.747322 -0.007,0.395642 -0.0659,0.871876 -0.0513,0.468909 -0.17584,1.04039 l -0.76198,-0.09525 q 0.19782,-0.82059 0.22713,-1.436032 0.0366,-0.615442 0.0366,-1.12831 z m 3.79523,0.747322 h 0.62277 v 0.263761 q 0,0.578808 -0.2198,1.091677 -0.2198,0.505541 -0.63743,0.886529 -0.41029,0.373662 -1.01108,0.564155 l -0.36633,-0.593461 q 0.52019,-0.161188 0.8792,-0.454255 0.35901,-0.300395 0.54217,-0.688709 0.1905,-0.395641 0.1905,-0.805936 z m 0.1392,0 h 0.62277 v 0.263761 q 0,0.285741 0.1099,0.564155 0.1099,0.271088 0.31505,0.505542 0.21248,0.234454 0.51287,0.417621 0.30039,0.183167 0.68871,0.293068 l -0.35168,0.593462 q -0.59346,-0.168514 -1.02574,-0.520195 -0.42495,-0.351682 -0.65207,-0.827916 -0.21981,-0.476235 -0.21981,-1.025737 z m -1.55325,-0.402968 h 3.58275 v 0.608115 h -3.58275 z m 1.41405,-0.783956 h 0.76197 v 1.011084 h -0.76197 z m 1.9782,1.875633 h 1.3994 v 0.630095 h -1.3994 z m 1.20158,-1.846326 h 0.7693 v 4.044333 h -0.7693 z m -1.45801,4.190867 q 1.04772,0 1.64851,0.329701 0.60811,0.329701 0.60811,0.915836 0,0.593462 -0.60811,0.915836 -0.60079,0.329702 -1.64851,0.329702 -1.05504,0 -1.66316,-0.329702 -0.60079,-0.322374 -0.60079,-0.915836 0,-0.586135 0.60079,-0.915836 0.60812,-0.329701 1.66316,-0.329701 z m 0,0.593462 q -0.47623,0 -0.81326,0.08059 -0.33703,0.07327 -0.51287,0.219801 -0.16851,0.139207 -0.16851,0.351681 0,0.212474 0.16851,0.359008 0.17584,0.146534 0.51287,0.219801 0.33703,0.07327 0.81326,0.07327 0.47623,0 0.80594,-0.07327 0.33702,-0.07327 0.51286,-0.219801 0.17584,-0.146534 0.17584,-0.359008 0,-0.212474 -0.17584,-0.351681 -0.17584,-0.146534 -0.51286,-0.219801 -0.32971,-0.08059 -0.80594,-0.08059 z"
         id="text5-9-8"
         aria-label="신뎬 구청" />
    </g>
    <text
       xml:space="preserve"
       transform="matrix(0.31615295,0,0,0.31615295,0.2809891,-6.4462013)"
       id="text6"
       style="font-size:55px;line-height:1.25;font-family:'Microsoft JhengHei';-inkscape-font-specification:'Microsoft JhengHei';white-space:pre;shape-inside:url(#rect6);display:inline" />
  </g>
</svg>
