<?xml version="1.0" encoding="UTF-8" standalone="no"?>
<!-- Created with Inkscape (http://www.inkscape.org/) -->

<svg
   width="500"
   height="250"
   viewBox="0 0 132.29166 66.145833"
   version="1.1"
   id="svg1"
   inkscape:version="1.3.2 (091e20e, 2023-11-25, custom)"
   sodipodi:docname="g03 t.svg"
   xmlns:inkscape="http://www.inkscape.org/namespaces/inkscape"
   xmlns:sodipodi="http://sodipodi.sourceforge.net/DTD/sodipodi-0.dtd"
   xmlns="http://www.w3.org/2000/svg"
   xmlns:svg="http://www.w3.org/2000/svg">
  <sodipodi:namedview
     id="namedview1"
     pagecolor="#9e652e"
     bordercolor="#ffffff"
     borderopacity="1"
     inkscape:showpageshadow="0"
     inkscape:pageopacity="0"
     inkscape:pagecheckerboard="false"
     inkscape:deskcolor="#d1d1d1"
     inkscape:document-units="mm"
     inkscape:zoom="2.0208096"
     inkscape:cx="305.81802"
     inkscape:cy="106.88785"
     inkscape:window-width="1920"
     inkscape:window-height="1009"
     inkscape:window-x="1912"
     inkscape:window-y="-8"
     inkscape:window-maximized="1"
     inkscape:current-layer="layer1" />
  <defs
     id="defs1">
    <rect
       x="560.66638"
       y="34.144731"
       width="279.32397"
       height="128.59143"
       id="rect6" />
    <rect
       x="157.85752"
       y="62.351248"
       width="381.61437"
       height="132.30098"
       id="rect4" />
    <rect
       x="157.85751"
       y="62.35125"
       width="329.07602"
       height="135.09438"
       id="rect4-5" />
  </defs>
  <g
     inkscape:label="Layer 1"
     inkscape:groupmode="layer"
     id="layer1">
    <path
       id="rect5"
       style="fill:#007846;stroke-width:0.953294"
       d="M -2.5431316e-6,-1.2715658e-6 H 132.29167 V 66.145835 H -2.5431316e-6 Z" />
    <g
       id="g1"
       transform="matrix(0.93177749,0,0,0.93177749,16.672599,-5.1520174)">
      <path
         id="rect1"
         style="fill-opacity:0;stroke:#f9f9f9;stroke-width:0.942789"
         d="m 26.668419,14.352791 h 12.425165 c 3.927061,0 7.088558,3.161497 7.088558,7.088559 v 23.263136 c 0,3.927062 -3.161497,7.088559 -7.088558,7.088559 H 26.668419 c -3.927061,0 -7.088558,-3.161497 -7.088558,-7.088559 V 21.44135 c 0,-3.927062 3.161497,-7.088559 7.088558,-7.088559 z" />
      <path
         style="font-size:14.4826px;line-height:1.25;font-family:'AR UDJingXiHeiE1G30 EB';-inkscape-font-specification:'AR UDJingXiHeiE1G30 EB';fill:#f9f9f9;stroke-width:0.301722"
         d="m 35.832506,29.412688 q -0.535856,0.753095 -1.346882,1.11516 -0.796543,0.347582 -1.824808,0.347582 -2.259285,0 -3.591684,-1.419294 -1.3324,-1.433778 -1.3324,-3.997198 0,-2.577903 1.404813,-3.997198 1.404812,-1.419295 3.794441,-1.419295 1.926186,0 3.128241,0.883439 1.216539,0.868956 1.462743,2.491007 h -1.83929 q -0.144826,-0.854473 -0.854474,-1.390329 -0.695164,-0.550339 -1.89722,-0.550339 -1.607569,0 -2.44756,1.042747 -0.83999,1.028265 -0.83999,2.939968 0,2.042047 0.883438,3.012381 0.883439,0.955851 2.404112,0.955851 1.332399,0 2.114459,-0.78206 0.782061,-0.78206 0.782061,-1.795842 v -0.217239 h -2.968933 v -1.433778 h 4.73581 v 5.488906 h -1.766877 z"
         id="text2"
         aria-label="G" />
      <path
         style="font-size:14.3917px;line-height:1.25;font-family:'AR UDJingXiHeiE1G30 EB';-inkscape-font-specification:'AR UDJingXiHeiE1G30 EB';fill:#f9f9f9;stroke-width:0.261667"
         d="m 32.247745,39.692779 q 0,2.720031 -0.877894,4.015284 -0.877893,1.295253 -2.720031,1.295253 -1.784571,0 -2.70564,-1.295253 -0.921068,-1.295253 -0.921068,-4.015284 0,-2.907123 0.877893,-4.173593 0.877894,-1.280861 2.748815,-1.280861 1.827746,0 2.70564,1.280861 0.892285,1.26647 0.892285,4.173593 z m -3.597925,3.885759 q 0.921069,0 1.35282,-0.906677 0.431751,-0.921069 0.431751,-2.979082 0,-2.216322 -0.417359,-3.122999 -0.402968,-0.906677 -1.367212,-0.906677 -0.964244,0 -1.381603,0.921069 -0.417359,0.906677 -0.417359,3.108607 0,2.043622 0.431751,2.96469 0.431751,0.921069 1.367211,0.921069 z m 8.491093,-7.915435 q -0.791544,0 -1.237686,0.474926 -0.446143,0.474926 -0.446143,1.237687 h -1.770179 q 0,-1.410387 0.921069,-2.273889 0.93546,-0.863502 2.532939,-0.863502 1.482345,0 2.403414,0.733977 0.921068,0.733976 0.921068,2.101188 0,0.748368 -0.316617,1.324036 -0.316617,0.575668 -0.949852,0.877894 0.805935,0.273442 1.237686,0.921069 0.446143,0.647626 0.446143,1.539912 0,1.539911 -0.978636,2.403413 -0.978635,0.863502 -2.720031,0.863502 -1.770179,0 -2.734423,-0.84911 -0.964244,-0.84911 -0.964244,-2.317064 h 1.784571 q 0,0.777152 0.518101,1.26647 0.532493,0.474926 1.410387,0.474926 0.863502,0 1.352819,-0.474926 0.50371,-0.474926 0.50371,-1.35282 0,-0.733976 -0.460535,-1.194511 -0.460534,-0.474926 -1.324036,-0.474926 h -0.647626 v -1.424778 h 0.647626 q 0.575668,0 0.964244,-0.41736 0.402968,-0.417359 0.402968,-1.122552 0,-0.647627 -0.388576,-1.050594 -0.388576,-0.402968 -1.108161,-0.402968 z"
         id="text3"
         aria-label="03" />
      <path
         style="font-weight:500;font-size:72px;line-height:1.25;font-family:'Noto Sans TC';-inkscape-font-specification:'Noto Sans TC Medium';white-space:pre;fill:#f9f9f9"
         d="m 161.16942,102.82541 63.144,-9.936004 1.152,6.984 -63.216,9.792004 z m 20.304,-26.568004 h 7.272 v 48.456004 q 0,3.6 1.152,5.112 1.152,1.512 4.248,1.512 0.864,0 2.52,0 1.728,0 3.816,0 2.088,0 4.176,0 2.088,0 3.744,0 1.728,0 2.664,0 2.016,0 4.32,-0.144 2.376,-0.216 3.744,-0.504 0.072,0.864 0.216,2.16 0.144,1.224 0.288,2.376 0.216,1.152 0.36,1.944 -1.224,0.36 -3.744,0.504 -2.52,0.144 -5.256,0.144 -0.864,0 -2.664,0 -1.728,0 -3.816,0 -2.088,0 -4.176,0 -2.088,0 -3.672,0 -1.584,0 -2.232,0 -4.752,0 -7.632,-1.368 -2.808,-1.296 -4.104,-4.248 -1.224,-2.952 -1.224,-7.92 z m 83.232,1.584 h 32.256 v 5.472 h -32.256 z m -0.432,10.152 h 29.952 v 4.896 h -29.952 z m -7.632,19.584004 h 41.688 v 5.904 h -41.688 z m 5.328,-29.736004 h 6.624 v 33.624004 h -6.624 z m 30.024,37.008004 5.112,4.248 q -2.952,2.304 -6.12,4.536 -3.168,2.16 -5.76,3.672 l -3.744,-3.456 q 1.656,-1.08 3.6,-2.664 2.016,-1.584 3.816,-3.24 1.872,-1.656 3.096,-3.096 z m -15.12,-3.744 q 2.16,5.112 5.616,9.792 3.528,4.608 7.92,8.352 4.464,3.672 9.432,5.832 -0.72,0.576 -1.656,1.512 -0.864,1.008 -1.656,2.016 -0.792,1.08 -1.296,1.944 -5.112,-2.664 -9.648,-6.912 -4.464,-4.248 -8.064,-9.576 -3.6,-5.4 -6.048,-11.304 z m -12.168,-13.464004 h 29.52 v 4.968004 h -29.52 z m -3.888,43.992004 -0.576,-5.472 2.52,-2.232 14.76,-4.536 q 0,1.224 0.144,2.88 0.144,1.656 0.288,2.664 -5.04,1.8 -8.208,2.88 -3.168,1.152 -4.968,1.8 -1.728,0.72 -2.592,1.152 -0.864,0.504 -1.368,0.864 z m -11.88,-31.608 h 6.336 q 0,0 -0.072,0.504 0,0.504 0,1.152 0,0.648 -0.072,1.08 -0.36,8.352 -0.864,13.68 -0.504,5.328 -1.152,8.208 -0.648,2.808 -1.728,3.96 -1.008,1.296 -2.16,1.8 -1.152,0.504 -2.88,0.72 -1.368,0.144 -3.744,0.144 -2.376,0.072 -5.04,-0.072 -0.072,-1.584 -0.648,-3.456 -0.504,-1.872 -1.44,-3.24 2.592,0.216 4.752,0.288 2.232,0.072 3.312,0.072 0.864,0 1.44,-0.144 0.576,-0.144 1.08,-0.648 0.72,-0.72 1.224,-3.168 0.504,-2.448 0.864,-7.272 0.432,-4.824 0.792,-12.6 z m -13.464,-16.272004 h 6.048 q 0,3.672 -0.144,7.776004 -0.072,4.032 -0.216,7.848 -0.144,3.816 -0.36,6.624 h -6.12 q 0.288,-2.952 0.432,-6.768 0.216,-3.816 0.288,-7.848 0.144,-4.104004 0.072,-7.632004 z m 2.016,16.272004 h 12.672 v 5.976 h -13.392 z m -0.576,-16.272004 h 11.88 v -9.72 h -14.616 v -6.048 h 20.808 v 21.888 h -18.072 z m 23.904,47.880004 q -0.216,-0.72 -0.72,-1.8 -0.504,-1.08 -1.08,-2.16 -0.576,-1.008 -1.152,-1.584 0.936,-0.576 1.8,-1.728 0.864,-1.152 0.864,-3.312 v -19.728 h 6.408 v 24.552 q 0,0 -0.648,0.36 -0.648,0.432 -1.584,1.008 -0.864,0.648 -1.8,1.368 -0.864,0.792 -1.512,1.584 -0.576,0.792 -0.576,1.44 z"
         id="text4"
         transform="matrix(0.26166763,0,0,0.26166763,8.6238305,-4.0633201)"
         aria-label="七張" />
      <path
         style="font-size:7.32669px;line-height:1.25;font-family:'AR UDJingXiHeiE1G30 EB';-inkscape-font-specification:'AR UDJingXiHeiE1G30 EB';fill:#f9f9f9;stroke-width:0.261667"
         d="m 55.499331,40.292957 0.652075,0.542175 -0.468908,0.549502 -0.798609,-0.674056 q -0.271088,0.131881 -0.600789,0.197821 -0.322374,0.07327 -0.681382,0.07327 -1.245537,0 -1.948899,-0.725343 -0.703363,-0.725342 -0.703363,-1.992859 0,-1.289498 0.710689,-2.022167 0.710689,-0.739996 1.941573,-0.739996 1.245538,0 1.941573,0.732669 0.696036,0.732669 0.696036,2.029494 0,0.652075 -0.190494,1.164943 -0.190494,0.512869 -0.549502,0.86455 z m -1.897613,-4.066313 q -0.805936,0 -1.252864,0.564155 -0.439601,0.556828 -0.439601,1.472665 0,0.937816 0.446928,1.465338 0.446928,0.527521 1.245537,0.527521 0.175841,0 0.329701,-0.02931 0.161187,-0.02931 0.300395,-0.08792 l -0.564156,-0.476235 0.498215,-0.534848 0.666729,0.564155 q 0.212474,-0.241781 0.322375,-0.600788 0.117227,-0.366335 0.117227,-0.827916 0,-0.93049 -0.439602,-1.479992 -0.439601,-0.556828 -1.230884,-0.556828 z m 4.579183,-0.637422 v 5.297197 h -0.93049 v -5.297197 z m 1.098998,0 h 4.146907 v 0.666729 l -3.194437,3.905125 h 3.267704 v 0.725343 H 59.038118 V 40.21969 l 3.194437,-3.905126 h -2.952656 z m 6.007887,2.945329 v 2.351868 h -0.93049 v -5.297197 h 0.93049 v 2.219987 h 2.542361 v -2.219987 h 0.93049 v 5.297197 h -0.93049 v -2.351868 z m 7.509858,0.212474 -0.835242,-2.263947 -0.849896,2.263947 z m -1.956226,0.725343 -0.527522,1.414051 h -0.945143 l 2.132067,-5.297197 h 0.95247 l 2.117413,5.297197 H 73.60358 l -0.534848,-1.414051 z m 5.267883,-2.410482 v 3.824533 h -0.93049 v -5.297197 h 0.959797 l 2.600975,3.912452 v -3.912452 h 0.930489 v 5.297197 h -1.01841 z m 8.66747,3.179784 q -0.271088,0.380988 -0.681382,0.564155 -0.402968,0.175841 -0.923163,0.175841 -1.142964,0 -1.81702,-0.718016 -0.674055,-0.725342 -0.674055,-2.022166 0,-1.304151 0.710689,-2.022167 0.710689,-0.718016 1.919593,-0.718016 0.97445,0 1.582565,0.446929 0.615442,0.439601 0.739996,1.26019 h -0.93049 q -0.07327,-0.432274 -0.432275,-0.703362 -0.351681,-0.278414 -0.959796,-0.278414 -0.813263,0 -1.238211,0.527521 -0.424948,0.520195 -0.424948,1.487319 0,1.033063 0.446928,1.523951 0.446928,0.483562 1.216231,0.483562 0.674055,0 1.069696,-0.395642 0.395642,-0.395641 0.395642,-0.908509 v -0.109901 h -1.501972 v -0.725342 h 2.395828 v 2.776816 h -0.893856 z"
         id="text5"
         aria-label="QIZHANG" />
      <path
         d="m 50.746707,46.274786 6.586695,-1.033063 0.1099,0.710689 -6.586694,1.01841 z m 2.095434,-2.725529 h 0.754649 v 5.15799 q 0,0.234454 0.03663,0.359008 0.04396,0.117227 0.168514,0.161187 0.13188,0.04396 0.388315,0.04396 0.07327,0 0.24178,0 0.168514,0 0.380988,0 0.212474,0 0.424948,0 0.219801,0 0.395642,0 0.17584,0 0.256434,0 0.249107,0 0.373661,-0.1099 0.124554,-0.117227 0.17584,-0.424948 0.05861,-0.307721 0.09525,-0.893856 0.09525,0.07327 0.219801,0.139207 0.131881,0.06594 0.263761,0.117227 0.13188,0.05129 0.227127,0.08059 -0.05129,0.659403 -0.17584,1.055044 -0.117227,0.388314 -0.380988,0.556828 -0.263761,0.175841 -0.761976,0.175841 -0.06594,0 -0.249107,0 -0.175841,0 -0.410295,0 -0.234454,0 -0.468908,0 -0.234454,0 -0.410295,0 -0.17584,0 -0.241781,0 -0.505541,0 -0.791282,-0.1099 -0.278414,-0.109901 -0.395641,-0.380988 -0.117227,-0.278415 -0.117227,-0.77663 z m 8.638167,1.216231 h 2.696222 v 0.505541 h -2.696222 z m 0,1.011083 h 2.696222 v 0.498215 h -2.696222 z m -0.879203,1.01841 h 4.205521 v 0.608115 h -4.205521 z m 0.571482,-3.12117 h 3.289684 v 0.593462 h -2.630282 v 2.850082 h -0.659402 z m -0.593462,5.773432 q 0.476235,-0.05861 1.135637,-0.153861 0.666729,-0.09525 1.348111,-0.205147 l 0.02931,0.608115 q -0.630095,0.109901 -1.260191,0.212474 -0.622768,0.109901 -1.135637,0.197821 z m 2.329888,-2.344541 q 0.146534,0.586135 0.410295,1.08435 0.271087,0.498215 0.666728,0.86455 0.402968,0.366334 0.93049,0.564155 -0.08059,0.06594 -0.168514,0.17584 -0.08792,0.109901 -0.168514,0.219801 -0.07327,0.117227 -0.124553,0.212474 -0.564156,-0.263761 -0.97445,-0.696036 Q 63.0702,49.088235 62.791786,48.5021 62.513372,47.915965 62.337531,47.212602 Z m 1.304151,0.424948 0.571482,0.322374 q -0.307721,0.263761 -0.652076,0.512869 -0.344354,0.249107 -0.630095,0.424948 l -0.424948,-0.271088 q 0.183167,-0.13188 0.388314,-0.300394 0.212474,-0.175841 0.410295,-0.351681 0.197821,-0.183167 0.337028,-0.337028 z m -3.025923,-0.542175 h 0.666729 v 2.527708 l -0.666729,0.117227 z m -2.791469,-0.0073 h 1.831672 v 0.622769 h -1.831672 z m 1.516625,0 h 0.696035 q 0,0 -0.0073,0.05129 0,0.05129 -0.0073,0.117227 0,0.06594 -0.0073,0.117227 -0.05129,0.871876 -0.117227,1.421378 -0.05861,0.542175 -0.139207,0.842569 -0.08059,0.293068 -0.190494,0.417622 -0.1099,0.124554 -0.234454,0.17584 -0.117227,0.05861 -0.285741,0.07327 -0.139207,0.01465 -0.380988,0.01465 -0.234454,0.0073 -0.505542,-0.0073 -0.0073,-0.146534 -0.05861,-0.329701 -0.05129,-0.183167 -0.124554,-0.315048 0.241781,0.02198 0.446928,0.02931 0.205148,0 0.300395,0 0.09525,0 0.15386,-0.01465 0.05861,-0.01465 0.102574,-0.06594 0.08059,-0.08792 0.139207,-0.344354 0.06594,-0.256434 0.124554,-0.754649 0.05861,-0.505542 0.09525,-1.318804 z M 58.373792,45.46155 h 0.637422 q -0.04396,0.395642 -0.102574,0.835243 -0.05129,0.439602 -0.1099,0.857223 -0.05129,0.410295 -0.102574,0.718016 l -0.644749,-0.07327 q 0.05861,-0.300395 0.117227,-0.703363 0.06594,-0.402968 0.117227,-0.827916 0.05861,-0.432274 0.08792,-0.805936 z m 0.07327,0 h 1.399397 v -1.04039 h -1.685138 v -0.637422 h 2.32256 v 2.315234 h -2.036819 z"
         id="text5-9"
         style="font-weight:500;font-size:7.32669px;line-height:1.25;font-family:'Noto Sans JP';-inkscape-font-specification:'Noto Sans JP Medium';fill:#f9f9f9;stroke-width:0.261667"
         aria-label="七張" />
      <path
         style="font-weight:500;font-size:7.32669px;line-height:1.25;font-family:'Noto Sans KR';-inkscape-font-specification:'Noto Sans KR Medium';fill:#f9f9f9;stroke-width:0.261667"
         d="m 77.196089,43.584846 h 0.769303 v 6.696595 h -0.769303 z m -2.981963,1.663159 h 0.608116 v 0.468908 q 0,0.534849 -0.131881,1.047717 -0.124554,0.505542 -0.373661,0.945143 -0.249107,0.439601 -0.593462,0.776629 -0.344354,0.337028 -0.776629,0.534849 l -0.417621,-0.593462 q 0.395641,-0.183168 0.703362,-0.468909 0.307721,-0.28574 0.527522,-0.644748 0.2198,-0.366335 0.337027,-0.769303 0.117227,-0.410294 0.117227,-0.827916 z m 0.153861,0 h 0.608115 v 0.468908 q 0,0.395641 0.117227,0.783956 0.117227,0.388315 0.337028,0.739996 0.227127,0.344354 0.542175,0.622768 0.315048,0.278415 0.703362,0.446929 l -0.417621,0.593461 q -0.424948,-0.190493 -0.776629,-0.512868 -0.351681,-0.329701 -0.600789,-0.747322 -0.249107,-0.424948 -0.380988,-0.915837 -0.13188,-0.490888 -0.13188,-1.011083 z m -1.633852,-0.527522 h 3.699978 v 0.608116 h -3.699978 z m 1.472665,-0.99643 h 0.769302 v 1.326131 H 74.2068 Z m 6.557388,0.593462 h 0.630096 v 0.490889 q 0,0.622768 -0.219801,1.17227 -0.219801,0.549502 -0.637422,0.959796 -0.417622,0.402968 -1.01841,0.615442 l -0.388315,-0.608115 q 0.527522,-0.183167 0.893856,-0.512868 0.366335,-0.329701 0.549502,-0.747323 0.190494,-0.424948 0.190494,-0.879202 z m 0.153861,0 h 0.622768 v 0.490889 q 0,0.410294 0.183168,0.791282 0.183167,0.380988 0.534848,0.681382 0.351681,0.293068 0.857223,0.454255 l -0.366335,0.600789 q -0.593462,-0.190494 -1.003756,-0.564155 -0.402968,-0.373662 -0.615442,-0.879203 -0.212474,-0.512869 -0.212474,-1.08435 z M 79.34281,44.061081 h 3.597405 V 44.68385 H 79.34281 Z m 4.308094,-0.468908 h 0.761976 v 4.000373 h -0.761976 z m 0.556829,1.626525 h 1.15029 v 0.630096 h -1.15029 z m -1.9489,2.527708 q 0.688709,0 1.186924,0.153861 0.498215,0.146534 0.769302,0.432275 0.271088,0.278414 0.271088,0.674055 0,0.402968 -0.271088,0.681382 -0.271087,0.285741 -0.769302,0.432275 -0.498215,0.153861 -1.186924,0.153861 -0.688709,0 -1.194251,-0.153861 -0.498214,-0.146534 -0.769302,-0.432275 -0.263761,-0.278414 -0.263761,-0.681382 0,-0.395641 0.263761,-0.674055 0.271088,-0.285741 0.769302,-0.432275 0.505542,-0.153861 1.194251,-0.153861 z m 0,0.608116 q -0.461582,0 -0.791283,0.07327 -0.329701,0.07327 -0.505541,0.2198 -0.175841,0.146534 -0.175841,0.359008 0,0.219801 0.175841,0.373661 0.17584,0.146534 0.505541,0.227128 0.329701,0.07327 0.791283,0.07327 0.468908,0 0.791283,-0.07327 0.329701,-0.08059 0.505541,-0.227128 0.175841,-0.15386 0.175841,-0.373661 0,-0.212474 -0.175841,-0.359008 -0.17584,-0.146534 -0.505541,-0.2198 -0.322375,-0.07327 -0.791283,-0.07327 z"
         id="text5-9-8"
         aria-label="치장" />
    </g>
    <path
       id="rect2"
       style="fill:#cfdb00;stroke-width:1.78801"
       d="M -1.0172526e-5,48.866089 H 132.29168 V 66.145834 H -1.0172526e-5 Z" />
    <g
       id="g7"
       transform="matrix(0.89537642,0,0,0.89537642,-38.20432,8.906426)"
       style="fill:#000000">
      <path
         style="font-weight:bold;font-size:10.5273px;line-height:1.25;font-family:'Noto Sans TC';-inkscape-font-specification:'Noto Sans TC Bold';stroke-width:0.191405"
         d="m 51.444205,49.514725 h 1.379077 v 8.158658 q 0,0.589528 -0.147382,0.884293 -0.147383,0.294764 -0.505311,0.452674 -0.368455,0.147382 -0.926402,0.189491 -0.54742,0.05264 -1.315913,0.04211 -0.03158,-0.178964 -0.1158,-0.421092 -0.08422,-0.2316 -0.189491,-0.473728 -0.09475,-0.242128 -0.200019,-0.410565 0.347401,0.01053 0.694802,0.02105 0.347401,0.01053 0.62111,0.01053 0.27371,-0.01053 0.38951,-0.01053 0.168437,0 0.242128,-0.06316 0.07369,-0.06316 0.07369,-0.221073 z m 2.526552,2.76868 1.242222,-0.463201 q 0.431619,0.747438 0.831657,1.600149 0.410564,0.842184 0.715856,1.663314 0.315819,0.810602 0.452674,1.473822 l -1.389604,0.547419 q -0.105273,-0.642165 -0.38951,-1.463294 -0.27371,-0.831657 -0.66322,-1.705423 -0.378983,-0.884293 -0.800075,-1.652786 z m -5.284704,-0.347401 1.431713,0.242128 q -0.178964,0.77902 -0.43162,1.663313 -0.252655,0.873766 -0.600056,1.673841 -0.336873,0.789548 -0.77902,1.379076 -0.157909,-0.1158 -0.38951,-0.242127 -0.221073,-0.126328 -0.452674,-0.231601 -0.221073,-0.1158 -0.400037,-0.189491 0.431619,-0.536893 0.747438,-1.273804 0.326346,-0.747438 0.54742,-1.536986 0.221073,-0.800074 0.326346,-1.484349 z m 9.379824,-2.137042 h 4.084592 v 0.947457 H 58.065877 Z M 57.89744,54.64152 h 9.442988 v 0.989566 H 57.89744 Z m 0.284237,-3.200299 h 3.779301 v 0.93693 h -3.779301 z m 2.305479,6.547981 h 5.126795 v 0.947457 h -5.126795 z m -2.631825,-4.716231 q 0.568474,-0.03158 1.284331,-0.07369 0.726383,-0.04211 1.526458,-0.08422 0.800075,-0.05264 1.60015,-0.105273 l -0.01053,0.957984 q -1.147475,0.08422 -2.294951,0.168437 -1.147476,0.07369 -2.021241,0.136855 z m 1.673841,-3.105553 h 1.189585 v 3.284517 l -1.189585,0.147383 z m 4.768867,-0.800075 1.389603,0.1158 q -0.147382,0.368456 -0.294764,0.694802 -0.147382,0.326346 -0.27371,0.568474 l -1.094839,-0.168436 q 0.08422,-0.284238 0.157909,-0.610584 0.08422,-0.326346 0.115801,-0.600056 z m -0.526365,3.15819 v 0.673747 h 2.052823 v -0.673747 z m 0,-1.547513 v 0.66322 h 2.052823 v -0.66322 z m -1.158003,-0.947457 h 4.410938 v 4.116174 h -4.410938 z m -1.800169,4.800449 1.136949,0.378982 q -0.410565,0.673748 -0.989566,1.263276 -0.579002,0.589529 -1.252749,1.063258 -0.673747,0.473728 -1.368549,0.810602 -0.07369,-0.126328 -0.210546,-0.315819 -0.136855,-0.200019 -0.284237,-0.38951 -0.147382,-0.189492 -0.27371,-0.305292 0.652693,-0.263182 1.273803,-0.642165 0.621111,-0.378983 1.126421,-0.852712 0.515838,-0.473728 0.842184,-1.01062 z m -1.16853,1.452767 h 6.874327 v 2.926589 h -1.358022 v -1.979132 h -4.21092 v 2.031769 h -1.305385 z m 11.243156,0.926402 h 7.13751 v 0.926403 h -7.13751 z m 0.210546,-7.369109 h 6.853273 v 0.926402 h -6.853273 z m 2.737098,6.579562 h 1.231694 v 2.831844 h -1.231694 z m -0.736911,-6.032143 h 1.031676 v 2.694989 h -1.031676 z m 1.684368,0 h 1.031676 v 2.694989 h -1.031676 z m -1.979132,5.295232 v 0.400037 h 3.442427 v -0.400037 z m 0,-1.084312 v 0.378983 h 3.442427 v -0.378983 z m -1.136948,-0.747438 h 5.758433 v 2.968698 h -5.758433 z m 0.800074,-1.863332 v 0.736911 h 4.053011 V 51.988641 Z M 71.35133,51.188566 h 6.347961 v 2.33706 H 71.35133 Z m -2.621298,-0.747438 0.715856,-0.905348 q 0.27371,0.136855 0.589529,0.315819 0.326346,0.178964 0.621111,0.368455 0.305291,0.178964 0.50531,0.326347 l -0.757965,1.000093 q -0.178965,-0.157909 -0.473729,-0.357928 -0.284237,-0.200019 -0.600056,-0.38951 -0.315819,-0.200019 -0.600056,-0.357928 z m -0.54742,2.852898 0.705329,-0.926402 q 0.294765,0.147382 0.652693,0.3474 0.357928,0.189492 0.694802,0.389511 0.347401,0.200018 0.557947,0.357928 l -0.715857,1.031675 q -0.189491,-0.178964 -0.526365,-0.38951 -0.326346,-0.210546 -0.684274,-0.431619 -0.357928,-0.221074 -0.684275,-0.378983 z m 0.305292,4.958358 q 0.242128,-0.400037 0.526365,-0.93693 0.284237,-0.547419 0.579001,-1.158003 0.294765,-0.610583 0.54742,-1.210639 l 0.989566,0.800075 q -0.221073,0.547419 -0.473728,1.115894 -0.252655,0.568474 -0.515838,1.126421 -0.252655,0.557947 -0.515838,1.063257 z M 81.678611,54.25201 q 0.831656,1.579095 2.589716,2.49497 1.758059,0.915875 4.347774,1.189585 -0.136855,0.147382 -0.294764,0.368456 -0.147382,0.221073 -0.284237,0.452674 -0.136855,0.242127 -0.221073,0.421092 Q 85.994804,58.926131 84.6052,58.357657 83.226124,57.79971 82.204976,56.883835 81.194355,55.96796 80.478499,54.673102 Z m -2.021242,-1.010621 h 6.747999 v 1.231694 h -6.747999 z m -0.515838,-2.484442 h 9.032424 v 1.252748 h -9.032424 z m 3.842465,-1.389604 h 1.315912 v 4.431993 h -1.315912 z m 3.126608,3.874046 h 0.263182 l 0.221074,-0.05264 0.89482,0.515838 q -0.494783,1.28433 -1.305385,2.231787 -0.810602,0.947457 -1.873859,1.610677 -1.063258,0.652693 -2.326534,1.063257 -1.263276,0.421092 -2.652879,0.652693 -0.05264,-0.178964 -0.178964,-0.410565 -0.115801,-0.2316 -0.252655,-0.452674 -0.136855,-0.221073 -0.252656,-0.357928 1.358022,-0.178964 2.547607,-0.50531 1.200112,-0.336874 2.168624,-0.873766 0.968511,-0.536892 1.663313,-1.32644 0.705329,-0.789547 1.084312,-1.873859 z m 9.379824,-3.884573 1.44224,0.263182 q -0.210546,0.421092 -0.431619,0.82113 -0.221073,0.38951 -0.410565,0.66322 l -1.063257,-0.27371 q 0.136855,-0.315819 0.263182,-0.726384 0.126328,-0.410565 0.200019,-0.747438 z m -0.66322,3.495063 v 0.54742 h 2.673934 v -0.54742 z m 0,-1.421185 v 0.536892 h 2.673934 v -0.536892 z m -1.16853,-0.947457 h 5.074159 v 3.863519 h -5.074159 z m 2.010714,3.4319 h 1.200112 v 4.095119 q 0,0.421092 -0.09475,0.66322 -0.09475,0.252655 -0.368456,0.410565 -0.263182,0.136855 -0.642165,0.168437 -0.368456,0.03158 -0.873766,0.03158 -0.03158,-0.252656 -0.126328,-0.589529 -0.09475,-0.326347 -0.210546,-0.568474 0.284238,0.01053 0.557947,0.02105 0.284237,0 0.38951,-0.01053 0.09475,0 0.126328,-0.03158 0.04211,-0.03158 0.04211,-0.1158 z m -2.379169,1.084311 h 1.473821 v 1.021149 h -1.473821 z m 1.189584,0 h 0.200019 l 0.200019,-0.04211 0.736911,0.252655 q -0.168437,0.82113 -0.484256,1.505404 -0.305292,0.673748 -0.747438,1.189585 -0.43162,0.505311 -0.989566,0.852712 -0.115801,-0.200019 -0.326347,-0.463202 -0.200018,-0.263182 -0.378983,-0.421092 0.442147,-0.242128 0.800075,-0.66322 0.368456,-0.421092 0.621111,-0.936929 0.252655,-0.526365 0.368455,-1.105367 z m 3.652973,-0.494783 0.93693,0.789548 q -0.442146,0.357928 -0.884293,0.715856 -0.442147,0.357928 -0.810602,0.600056 L 96.69054,55.978487 q 0.231601,-0.189491 0.494783,-0.442146 0.27371,-0.252655 0.526365,-0.526365 0.252656,-0.284237 0.421092,-0.505311 z m -1.315912,0 q 0.200019,0.705329 0.536892,1.358022 0.347401,0.652693 0.810602,1.16853 0.473729,0.515838 1.05273,0.831657 -0.136855,0.1158 -0.294764,0.294764 -0.15791,0.168437 -0.294764,0.357929 -0.136855,0.189491 -0.231601,0.357928 Q 97.78538,58.452403 97.311651,57.820765 96.84845,57.1786 96.511576,56.389052 96.18523,55.588977 95.953629,54.704684 Z m -5.10574,-0.800074 0.905347,-0.252656 q 0.126328,0.357929 0.242128,0.768493 0.115801,0.400038 0.200019,0.77902 0.09475,0.378983 0.126328,0.66322 l -0.979039,0.305292 q -0.03158,-0.294764 -0.105273,-0.684274 -0.07369,-0.389511 -0.178964,-0.800075 -0.105273,-0.421092 -0.210546,-0.77902 z m -0.915876,2.768679 0.884294,-0.157909 q 0.09475,0.526365 0.157909,1.147476 0.06316,0.62111 0.07369,1.084312 l -0.936929,0.178964 q 0,-0.463202 -0.05264,-1.09484 -0.05264,-0.631638 -0.126328,-1.158003 z m -1.126421,-0.147382 0.957985,0.147382 q -0.05264,0.736911 -0.178964,1.463295 -0.115801,0.726384 -0.284238,1.221167 -0.105273,-0.05264 -0.284237,-0.1158 -0.168436,-0.06316 -0.347401,-0.126328 -0.178964,-0.05264 -0.305291,-0.08422 0.189491,-0.484256 0.284237,-1.158003 0.105273,-0.684275 0.157909,-1.347495 z m -0.105273,-2.76868 q -0.03158,-0.1158 -0.105273,-0.315819 -0.06316,-0.200018 -0.136855,-0.421092 -0.07369,-0.221073 -0.147382,-0.368455 0.15791,-0.03158 0.294765,-0.168437 0.136855,-0.147382 0.294764,-0.38951 0.105273,-0.147382 0.315819,-0.54742 0.210546,-0.400037 0.452674,-0.926402 0.242128,-0.536892 0.400037,-1.084312 l 1.147476,0.473729 q -0.231601,0.547419 -0.536892,1.115893 -0.294765,0.568475 -0.631638,1.084312 -0.326347,0.515838 -0.652693,0.926403 v 0.03158 q 0,0 -0.105273,0.06316 -0.09475,0.06316 -0.242128,0.15791 -0.136855,0.08422 -0.242128,0.189491 -0.105273,0.09475 -0.105273,0.178964 z m 0,0 -0.03158,-0.873765 0.515838,-0.336874 1.821223,-0.126328 q -0.04211,0.231601 -0.08422,0.515838 -0.03158,0.284237 -0.04211,0.484256 -0.610583,0.05264 -1.000093,0.105273 -0.38951,0.04211 -0.621111,0.08422 -0.221073,0.03158 -0.357928,0.07369 -0.126328,0.03158 -0.200019,0.07369 z m 0.08422,2.442334 q -0.03158,-0.126328 -0.105273,-0.326346 -0.06316,-0.210546 -0.147382,-0.43162 -0.08422,-0.2316 -0.15791,-0.38951 0.210546,-0.05264 0.400037,-0.221073 0.189492,-0.178964 0.452674,-0.473729 0.126328,-0.147382 0.368456,-0.473728 0.252655,-0.336874 0.557947,-0.789547 0.305291,-0.463202 0.610583,-0.989567 0.315819,-0.526365 0.54742,-1.073784 l 1.073784,0.673747 q -0.378982,0.694802 -0.852711,1.389604 -0.473728,0.694801 -0.989566,1.336967 -0.515838,0.631638 -1.042203,1.147475 v 0.03158 q 0,0 -0.105273,0.06316 -0.105273,0.05264 -0.252655,0.147382 -0.147382,0.08422 -0.252655,0.189492 -0.105273,0.105273 -0.105273,0.189491 z m 0,0 -0.05264,-0.905348 0.515838,-0.336873 2.516025,-0.305292 q -0.03158,0.2316 -0.05264,0.526365 -0.02105,0.284237 -0.01053,0.473728 -0.852711,0.115801 -1.389604,0.200019 -0.526365,0.08422 -0.831656,0.147382 -0.294765,0.05264 -0.452674,0.105273 -0.147383,0.04211 -0.242128,0.09475 z m 2.200205,0.263182 0.831657,-0.263182 q 0.126328,0.347401 0.242128,0.757966 0.126328,0.400037 0.189491,0.694801 l -0.863238,0.305292 q -0.05264,-0.305292 -0.168437,-0.726384 -0.105273,-0.421092 -0.231601,-0.768493 z"
         id="text7"
         aria-label="小碧潭支線" />
      <path
         d="m 107.06243,53.442957 h -1.37945 l -1.14687,1.836591 -1.13884,-1.836591 h -1.45965 l 1.86065,2.726817 -2.01303,2.983459 h 1.42757 l 1.26716,-1.980953 1.25113,1.980953 h 1.49975 l -2.00501,-2.983459 z m 1.73233,0 h -1.13885 v 0.962406 h 1.13885 z m 0,1.57193 h -1.13885 v 4.138346 h 1.13885 z m 4.74786,4.138346 c -0.0962,-0.224562 -0.14436,-0.593484 -0.14436,-1.122807 v -1.788472 c 0,-0.898245 -0.6015,-1.347368 -1.80451,-1.347368 -1.21905,0 -1.85263,0.465163 -1.91679,1.395489 h 1.06667 c 0.0321,-0.232582 0.11228,-0.392983 0.2406,-0.489223 0.1203,-0.09624 0.31278,-0.144361 0.57744,-0.144361 0.49724,0 0.74587,0.184461 0.74587,0.553383 0,0.160401 -0.0722,0.272682 -0.20853,0.328822 -0.13634,0.06416 -0.401,0.120301 -0.802,0.168421 -0.18446,0.02406 -0.32882,0.04812 -0.43308,0.06416 -0.0962,0.01604 -0.23258,0.04812 -0.40101,0.0802 -0.1604,0.0401 -0.28872,0.08822 -0.38496,0.144361 -0.0962,0.06416 -0.19248,0.136341 -0.29674,0.224562 -0.10426,0.09624 -0.17644,0.208521 -0.22456,0.336842 -0.0481,0.13634 -0.0722,0.288721 -0.0722,0.465163 0,0.392982 0.13634,0.697744 0.39298,0.922305 0.26466,0.224562 0.62557,0.328822 1.08271,0.328822 0.54536,0 0.99448,-0.168421 1.33935,-0.521303 0.016,0.160401 0.0481,0.296742 0.0802,0.401003 z M 112.2915,57.1402 v 0.465163 c 0,0.288722 -0.0882,0.521303 -0.27269,0.681704 -0.18446,0.160401 -0.43308,0.240602 -0.73784,0.240602 -0.19248,0 -0.34486,-0.04812 -0.45714,-0.144361 -0.11228,-0.09624 -0.16842,-0.232582 -0.16842,-0.401003 0,-0.176441 0.0642,-0.320802 0.17644,-0.417042 0.10426,-0.0802 0.3208,-0.152381 0.65764,-0.200502 0.401,-0.06416 0.67369,-0.14436 0.80201,-0.224561 z m 4.0421,-2.245614 c -0.64963,0 -1.17093,0.200501 -1.56391,0.601504 -0.40101,0.401002 -0.59349,0.930326 -0.59349,1.58797 0,0.665664 0.19248,1.194987 0.58547,1.59599 0.38496,0.401002 0.90626,0.601503 1.55589,0.601503 0.6416,0 1.1629,-0.200501 1.54787,-0.601503 0.38496,-0.401003 0.58546,-0.930326 0.58546,-1.59599 0,-0.657644 -0.2005,-1.186968 -0.58546,-1.58797 -0.38497,-0.401003 -0.89825,-0.601504 -1.53183,-0.601504 z m -0.0321,0.866165 c 0.31278,0 0.5614,0.120301 0.73784,0.352883 0.17644,0.232581 0.27268,0.553383 0.27268,0.962406 0,0.425062 -0.0882,0.753884 -0.26466,0.994486 -0.17644,0.240601 -0.41704,0.360902 -0.72982,0.360902 -0.32081,0 -0.56141,-0.120301 -0.73785,-0.352882 -0.17644,-0.240602 -0.26466,-0.569424 -0.26466,-0.986466 0,-0.417043 0.0882,-0.737845 0.26466,-0.970426 0.17644,-0.240602 0.41704,-0.360903 0.72181,-0.360903 z m 4.01804,-2.317794 h -1.13083 v 5.710276 h 1.08271 l -0.008,-0.521304 c 0.28872,0.425063 0.72181,0.633584 1.29925,0.633584 0.54536,0 0.98647,-0.200501 1.32331,-0.609524 0.33684,-0.409022 0.51328,-0.946365 0.51328,-1.61203 0,-0.609523 -0.1604,-1.122807 -0.47318,-1.523809 -0.3208,-0.401003 -0.75389,-0.601504 -1.29925,-0.601504 -0.55338,0 -0.98647,0.200501 -1.30727,0.601504 z m 0.95439,2.349875 c 0.28872,0 0.52932,0.1203 0.70576,0.344862 0.17644,0.232581 0.27268,0.537343 0.27268,0.914285 0,0.401003 -0.0962,0.713785 -0.27268,0.946366 -0.17644,0.240602 -0.41704,0.352883 -0.70576,0.352883 -0.31278,0 -0.55339,-0.112281 -0.72983,-0.344863 -0.17644,-0.224561 -0.26466,-0.545363 -0.26466,-0.946365 0,-0.384963 0.0882,-0.697745 0.26466,-0.922306 0.17644,-0.224562 0.42507,-0.344862 0.72983,-0.344862 z m 3.99398,-2.349875 h -1.13884 v 0.962406 h 1.13884 z m 0,1.57193 h -1.13884 v 4.138346 h 1.13884 z m 3.17594,0 h -0.84211 v -1.251128 h -1.13082 v 1.251128 h -0.68973 v 0.769925 h 0.68973 v 2.149373 c 0,0.497243 0.0882,0.834085 0.26466,1.010526 0.17644,0.176441 0.5213,0.256642 1.01854,0.256642 0.17645,0 0.40903,-0.008 0.68973,-0.03208 v -0.866166 c -0.0962,0.01604 -0.20852,0.01604 -0.34486,0.01604 -0.12832,0 -0.22457,-0.008 -0.28873,-0.02406 -0.0642,-0.01604 -0.11228,-0.05614 -0.14436,-0.11228 -0.0321,-0.06416 -0.0561,-0.120301 -0.0561,-0.176442 -0.008,-0.05614 -0.008,-0.14436 -0.008,-0.264661 v -1.948872 h 0.84211 z m 4.39498,4.138346 c -0.0962,-0.224562 -0.14436,-0.593484 -0.14436,-1.122807 v -1.788472 c 0,-0.898245 -0.6015,-1.347368 -1.80451,-1.347368 -1.21905,0 -1.85263,0.465163 -1.91679,1.395489 h 1.06666 c 0.0321,-0.232582 0.11228,-0.392983 0.24061,-0.489223 0.1203,-0.09624 0.31278,-0.144361 0.57744,-0.144361 0.49724,0 0.74586,0.184461 0.74586,0.553383 0,0.160401 -0.0722,0.272682 -0.20852,0.328822 -0.13634,0.06416 -0.401,0.120301 -0.802,0.168421 -0.18446,0.02406 -0.32882,0.04812 -0.43309,0.06416 -0.0962,0.01604 -0.23258,0.04812 -0.401,0.0802 -0.1604,0.0401 -0.28872,0.08822 -0.38496,0.144361 -0.0962,0.06416 -0.19248,0.136341 -0.29674,0.224562 -0.10426,0.09624 -0.17644,0.208521 -0.22456,0.336842 -0.0481,0.13634 -0.0722,0.288721 -0.0722,0.465163 0,0.392982 0.13634,0.697744 0.39298,0.922305 0.26466,0.224562 0.62556,0.328822 1.08271,0.328822 0.54536,0 0.99448,-0.168421 1.33934,-0.521303 0.016,0.160401 0.0481,0.296742 0.0802,0.401003 z M 131.58772,57.1402 v 0.465163 c 0,0.288722 -0.0882,0.521303 -0.27268,0.681704 -0.18446,0.160401 -0.43308,0.240602 -0.73784,0.240602 -0.19248,0 -0.34486,-0.04812 -0.45715,-0.144361 -0.11228,-0.09624 -0.16842,-0.232582 -0.16842,-0.401003 0,-0.176441 0.0642,-0.320802 0.17644,-0.417042 0.10427,-0.0802 0.32081,-0.152381 0.65765,-0.200502 0.401,-0.06416 0.67368,-0.14436 0.802,-0.224561 z m 5.90276,2.013033 v -2.766918 c 0,-0.473183 -0.12832,-0.842105 -0.38497,-1.098747 -0.25664,-0.256641 -0.60952,-0.384962 -1.05062,-0.384962 -0.57745,0 -1.03459,0.232581 -1.37143,0.689724 v -0.577443 h -1.08271 v 4.138346 h 1.13083 v -2.221554 c 0,-0.721805 0.29674,-1.090727 0.89824,-1.090727 0.27269,0 0.46517,0.0802 0.56141,0.232581 0.0962,0.152381 0.14436,0.376943 0.14436,0.665665 v 2.414035 z m 3.2,-5.710276 v 5.710276 h 2.85514 c 0.5614,0 1.01854,-0.144361 1.38746,-0.441103 0.36091,-0.296742 0.54537,-0.713785 0.54537,-1.259148 0,-0.729825 -0.35288,-1.194987 -1.04261,-1.395489 0.2406,-0.10426 0.42506,-0.256641 0.56943,-0.465163 0.13634,-0.208521 0.20852,-0.441102 0.20852,-0.713784 0,-0.481203 -0.17644,-0.834085 -0.51329,-1.074687 -0.33684,-0.240601 -0.77794,-0.360902 -1.30726,-0.360902 z m 1.21905,0.970426 h 1.13884 c 0.28872,0 0.51329,0.04812 0.68973,0.144361 0.16842,0.09624 0.25664,0.272682 0.25664,0.537343 0,0.441103 -0.3208,0.665664 -0.94637,0.665664 h -1.13884 z m 0,2.197494 h 1.19498 c 0.34487,0 0.61755,0.04812 0.81805,0.152381 0.2005,0.10426 0.30476,0.312782 0.30476,0.625564 0,0.304761 -0.0962,0.505263 -0.28872,0.617543 -0.19248,0.104261 -0.44912,0.160401 -0.77795,0.160401 h -1.25914 z m 7.0015,-1.668171 c -0.11228,-0.01604 -0.2005,-0.02406 -0.24862,-0.02406 -0.62556,0 -1.06667,0.288722 -1.33935,0.858146 v -0.761905 h -1.0827 v 4.138346 h 1.13884 v -1.892732 c 0,-0.401003 0.0882,-0.713785 0.26466,-0.954386 0.17645,-0.240602 0.44913,-0.360902 0.82607,-0.360902 0.12832,0 0.2807,0.01604 0.4411,0.04812 z m 4.28271,4.210527 c -0.0962,-0.224562 -0.14436,-0.593484 -0.14436,-1.122807 v -1.788472 c 0,-0.898245 -0.6015,-1.347368 -1.80451,-1.347368 -1.21905,0 -1.85263,0.465163 -1.91679,1.395489 h 1.06666 c 0.0321,-0.232582 0.11228,-0.392983 0.2406,-0.489223 0.12031,-0.09624 0.31279,-0.144361 0.57745,-0.144361 0.49724,0 0.74586,0.184461 0.74586,0.553383 0,0.160401 -0.0722,0.272682 -0.20852,0.328822 -0.13634,0.06416 -0.401,0.120301 -0.802,0.168421 -0.18446,0.02406 -0.32883,0.04812 -0.43309,0.06416 -0.0962,0.01604 -0.23258,0.04812 -0.401,0.0802 -0.1604,0.0401 -0.28872,0.08822 -0.38496,0.144361 -0.0962,0.06416 -0.19248,0.136341 -0.29674,0.224562 -0.10426,0.09624 -0.17644,0.208521 -0.22456,0.336842 -0.0481,0.13634 -0.0722,0.288721 -0.0722,0.465163 0,0.392982 0.13634,0.697744 0.39298,0.922305 0.26466,0.224562 0.62556,0.328822 1.0827,0.328822 0.54537,0 0.99449,-0.168421 1.33935,-0.521303 0.016,0.160401 0.0481,0.296742 0.0802,0.401003 z M 151.94261,57.1402 v 0.465163 c 0,0.288722 -0.0882,0.521303 -0.27268,0.681704 -0.18446,0.160401 -0.43308,0.240602 -0.73784,0.240602 -0.19248,0 -0.34487,-0.04812 -0.45715,-0.144361 -0.11228,-0.09624 -0.16842,-0.232582 -0.16842,-0.401003 0,-0.176441 0.0642,-0.320802 0.17644,-0.417042 0.10426,-0.0802 0.32081,-0.152381 0.65765,-0.200502 0.401,-0.06416 0.67368,-0.14436 0.802,-0.224561 z m 5.90275,2.013033 v -2.766918 c 0,-0.473183 -0.12832,-0.842105 -0.38496,-1.098747 -0.25664,-0.256641 -0.60953,-0.384962 -1.05063,-0.384962 -0.57744,0 -1.03458,0.232581 -1.37143,0.689724 v -0.577443 h -1.0827 v 4.138346 h 1.13082 v -2.221554 c 0,-0.721805 0.29675,-1.090727 0.89825,-1.090727 0.27268,0 0.46516,0.0802 0.5614,0.232581 0.0962,0.152381 0.14436,0.376943 0.14436,0.665665 v 2.414035 z m 4.80402,-1.59599 h -1.09875 c -0.0962,0.561403 -0.38496,0.834085 -0.88221,0.834085 -0.30476,0 -0.54536,-0.112281 -0.71378,-0.336842 -0.16842,-0.224562 -0.24862,-0.545364 -0.24862,-0.954386 0,-0.425063 0.0802,-0.753885 0.25664,-0.994486 0.17644,-0.240602 0.41704,-0.360903 0.72982,-0.360903 0.45715,0 0.72983,0.240602 0.81805,0.713785 h 1.11478 c -0.0481,-0.481203 -0.24862,-0.858146 -0.59348,-1.138847 -0.35288,-0.280702 -0.802,-0.425063 -1.34737,-0.425063 -0.6416,0 -1.1629,0.208521 -1.54787,0.609524 -0.38496,0.409022 -0.57744,0.946366 -0.57744,1.61203 0,0.649624 0.19248,1.170927 0.57744,1.56391 0.38497,0.384962 0.89023,0.585463 1.53183,0.585463 0.54537,0 0.99449,-0.152381 1.34737,-0.449123 0.35288,-0.304761 0.5614,-0.721804 0.63359,-1.259147 z m 1.78846,-4.114286 h -1.12281 v 5.710276 h 1.12281 v -2.109274 c 0,-0.360902 0.0561,-0.649624 0.18446,-0.866165 0.12832,-0.224561 0.36091,-0.328822 0.70577,-0.328822 0.2807,0 0.47318,0.07218 0.57744,0.224561 0.0962,0.144361 0.15238,0.360903 0.15238,0.649624 v 2.438096 h 1.13885 v -2.710777 c 0,-1.026567 -0.48922,-1.53183 -1.45163,-1.53183 -0.54536,0 -0.98647,0.216541 -1.30727,0.657644 z m 10.01705,4.635589 h -2.79098 v -4.635589 h -1.25113 v 5.710276 h 4.04211 z m 1.76441,-4.635589 h -1.13885 v 0.962406 h 1.13885 z m 0,1.57193 h -1.13885 v 4.138346 h 1.13885 z m 4.79598,4.138346 v -2.766918 c 0,-0.473183 -0.12832,-0.842105 -0.38496,-1.098747 -0.25664,-0.256641 -0.60952,-0.384962 -1.05063,-0.384962 -0.57744,0 -1.03458,0.232581 -1.37142,0.689724 v -0.577443 h -1.08271 v 4.138346 h 1.13083 v -2.221554 c 0,-0.721805 0.29674,-1.090727 0.89824,-1.090727 0.27268,0 0.46516,0.0802 0.5614,0.232581 0.0962,0.152381 0.14437,0.376943 0.14437,0.665665 v 2.414035 z m 4.74788,-1.283208 h -1.09073 c -0.1604,0.401002 -0.4411,0.601503 -0.8421,0.601503 -0.30476,0 -0.54537,-0.08822 -0.71379,-0.280701 -0.16842,-0.184462 -0.25664,-0.457143 -0.25664,-0.818046 h 2.96742 v -0.11228 c 0,-0.721805 -0.18446,-1.299248 -0.55338,-1.724311 -0.36892,-0.425063 -0.86617,-0.641604 -1.49173,-0.641604 -0.60953,0 -1.10677,0.208521 -1.49173,0.625564 -0.39298,0.417043 -0.58546,0.946366 -0.58546,1.58797 0,0.657644 0.19248,1.178947 0.57744,1.57193 0.38496,0.401002 0.89824,0.593483 1.53183,0.593483 0.4812,0 0.89022,-0.1203 1.23509,-0.368922 0.34486,-0.240601 0.58546,-0.585464 0.71378,-1.034586 z m -1.09875,-1.219048 h -1.81253 c 0.0321,-0.288722 0.13634,-0.513283 0.29674,-0.681704 0.16843,-0.160401 0.37695,-0.248622 0.62557,-0.248622 0.27268,0 0.4812,0.08822 0.62556,0.264662 0.15238,0.176441 0.2406,0.392982 0.26466,0.665664 z"
         id="text7-1"
         style="font-weight:bold;font-size:8.02005px;line-height:1.25;font-family:'Helvetica Neue';-inkscape-font-specification:'Helvetica Neue Bold';stroke-width:0.191405"
         aria-label="Xiaobitan Branch Line" />
    </g>
    <text
       xml:space="preserve"
       transform="matrix(0.31615295,0,0,0.31615295,0.2809891,-6.4462013)"
       id="text6"
       style="font-size:55px;line-height:1.25;font-family:'Microsoft JhengHei';-inkscape-font-specification:'Microsoft JhengHei';white-space:pre;shape-inside:url(#rect6);display:inline" />
  </g>
</svg>
