<?xml version="1.0" encoding="UTF-8" standalone="no"?>
<!-- Created with Inkscape (http://www.inkscape.org/) -->

<svg
   width="500"
   height="250"
   viewBox="0 0 132.29166 66.145833"
   version="1.1"
   id="svg1"
   inkscape:version="1.3.2 (091e20e, 2023-11-25, custom)"
   sodipodi:docname="g03.svg"
   xmlns:inkscape="http://www.inkscape.org/namespaces/inkscape"
   xmlns:sodipodi="http://sodipodi.sourceforge.net/DTD/sodipodi-0.dtd"
   xmlns="http://www.w3.org/2000/svg"
   xmlns:svg="http://www.w3.org/2000/svg">
  <sodipodi:namedview
     id="namedview1"
     pagecolor="#9e652e"
     bordercolor="#ffffff"
     borderopacity="1"
     inkscape:showpageshadow="0"
     inkscape:pageopacity="0"
     inkscape:pagecheckerboard="false"
     inkscape:deskcolor="#d1d1d1"
     inkscape:document-units="mm"
     inkscape:zoom="2.0208096"
     inkscape:cx="305.81802"
     inkscape:cy="106.88785"
     inkscape:window-width="1920"
     inkscape:window-height="1009"
     inkscape:window-x="1912"
     inkscape:window-y="-8"
     inkscape:window-maximized="1"
     inkscape:current-layer="layer1" />
  <defs
     id="defs1">
    <rect
       x="560.66638"
       y="34.144731"
       width="279.32397"
       height="128.59143"
       id="rect6" />
    <rect
       x="157.85752"
       y="62.351248"
       width="381.61437"
       height="132.30098"
       id="rect4" />
    <rect
       x="157.85751"
       y="62.35125"
       width="329.07602"
       height="135.09438"
       id="rect4-5" />
  </defs>
  <g
     inkscape:label="Layer 1"
     inkscape:groupmode="layer"
     id="layer1">
    <rect
       style="fill:#007846;fill-opacity:1;stroke:none;stroke-width:0.953294;stroke-dasharray:none"
       id="rect5"
       width="132.29167"
       height="66.145836"
       x="-2.5431316e-06"
       y="-1.2715658e-06"
       ry="0" />
    <g
       id="g1"
       transform="matrix(0.93177749,0,0,0.93177749,16.672599,2.2563162)">
      <path
         id="rect1"
         style="fill-opacity:0;stroke:#f9f9f9;stroke-width:0.942789"
         d="m 26.668419,14.352791 h 12.425165 c 3.927061,0 7.088558,3.161497 7.088558,7.088559 v 23.263136 c 0,3.927062 -3.161497,7.088559 -7.088558,7.088559 H 26.668419 c -3.927061,0 -7.088558,-3.161497 -7.088558,-7.088559 V 21.44135 c 0,-3.927062 3.161497,-7.088559 7.088558,-7.088559 z" />
      <path
         style="font-size:14.4826px;line-height:1.25;font-family:'AR UDJingXiHeiE1G30 EB';-inkscape-font-specification:'AR UDJingXiHeiE1G30 EB';fill:#f9f9f9;stroke-width:0.301722"
         d="m 35.832506,29.412688 q -0.535856,0.753095 -1.346882,1.11516 -0.796543,0.347582 -1.824808,0.347582 -2.259285,0 -3.591684,-1.419294 -1.3324,-1.433778 -1.3324,-3.997198 0,-2.577903 1.404813,-3.997198 1.404812,-1.419295 3.794441,-1.419295 1.926186,0 3.128241,0.883439 1.216539,0.868956 1.462743,2.491007 h -1.83929 q -0.144826,-0.854473 -0.854474,-1.390329 -0.695164,-0.550339 -1.89722,-0.550339 -1.607569,0 -2.44756,1.042747 -0.83999,1.028265 -0.83999,2.939968 0,2.042047 0.883438,3.012381 0.883439,0.955851 2.404112,0.955851 1.332399,0 2.114459,-0.78206 0.782061,-0.78206 0.782061,-1.795842 v -0.217239 h -2.968933 v -1.433778 h 4.73581 v 5.488906 h -1.766877 z"
         id="text2"
         aria-label="G" />
      <path
         style="font-size:14.3917px;line-height:1.25;font-family:'AR UDJingXiHeiE1G30 EB';-inkscape-font-specification:'AR UDJingXiHeiE1G30 EB';fill:#f9f9f9;stroke-width:0.261667"
         d="m 32.247745,39.692779 q 0,2.720031 -0.877894,4.015284 -0.877893,1.295253 -2.720031,1.295253 -1.784571,0 -2.70564,-1.295253 -0.921068,-1.295253 -0.921068,-4.015284 0,-2.907123 0.877893,-4.173593 0.877894,-1.280861 2.748815,-1.280861 1.827746,0 2.70564,1.280861 0.892285,1.26647 0.892285,4.173593 z m -3.597925,3.885759 q 0.921069,0 1.35282,-0.906677 0.431751,-0.921069 0.431751,-2.979082 0,-2.216322 -0.417359,-3.122999 -0.402968,-0.906677 -1.367212,-0.906677 -0.964244,0 -1.381603,0.921069 -0.417359,0.906677 -0.417359,3.108607 0,2.043622 0.431751,2.96469 0.431751,0.921069 1.367211,0.921069 z m 8.491093,-7.915435 q -0.791544,0 -1.237686,0.474926 -0.446143,0.474926 -0.446143,1.237687 h -1.770179 q 0,-1.410387 0.921069,-2.273889 0.93546,-0.863502 2.532939,-0.863502 1.482345,0 2.403414,0.733977 0.921068,0.733976 0.921068,2.101188 0,0.748368 -0.316617,1.324036 -0.316617,0.575668 -0.949852,0.877894 0.805935,0.273442 1.237686,0.921069 0.446143,0.647626 0.446143,1.539912 0,1.539911 -0.978636,2.403413 -0.978635,0.863502 -2.720031,0.863502 -1.770179,0 -2.734423,-0.84911 -0.964244,-0.84911 -0.964244,-2.317064 h 1.784571 q 0,0.777152 0.518101,1.26647 0.532493,0.474926 1.410387,0.474926 0.863502,0 1.352819,-0.474926 0.50371,-0.474926 0.50371,-1.35282 0,-0.733976 -0.460535,-1.194511 -0.460534,-0.474926 -1.324036,-0.474926 h -0.647626 v -1.424778 h 0.647626 q 0.575668,0 0.964244,-0.41736 0.402968,-0.417359 0.402968,-1.122552 0,-0.647627 -0.388576,-1.050594 -0.388576,-0.402968 -1.108161,-0.402968 z"
         id="text3"
         aria-label="03" />
      <path
         style="font-weight:500;font-size:72px;line-height:1.25;font-family:'Noto Sans TC';-inkscape-font-specification:'Noto Sans TC Medium';white-space:pre;fill:#f9f9f9"
         d="m 161.16942,102.82541 63.144,-9.936004 1.152,6.984 -63.216,9.792004 z m 20.304,-26.568004 h 7.272 v 48.456004 q 0,3.6 1.152,5.112 1.152,1.512 4.248,1.512 0.864,0 2.52,0 1.728,0 3.816,0 2.088,0 4.176,0 2.088,0 3.744,0 1.728,0 2.664,0 2.016,0 4.32,-0.144 2.376,-0.216 3.744,-0.504 0.072,0.864 0.216,2.16 0.144,1.224 0.288,2.376 0.216,1.152 0.36,1.944 -1.224,0.36 -3.744,0.504 -2.52,0.144 -5.256,0.144 -0.864,0 -2.664,0 -1.728,0 -3.816,0 -2.088,0 -4.176,0 -2.088,0 -3.672,0 -1.584,0 -2.232,0 -4.752,0 -7.632,-1.368 -2.808,-1.296 -4.104,-4.248 -1.224,-2.952 -1.224,-7.92 z m 83.232,1.584 h 32.256 v 5.472 h -32.256 z m -0.432,10.152 h 29.952 v 4.896 h -29.952 z m -7.632,19.584004 h 41.688 v 5.904 h -41.688 z m 5.328,-29.736004 h 6.624 v 33.624004 h -6.624 z m 30.024,37.008004 5.112,4.248 q -2.952,2.304 -6.12,4.536 -3.168,2.16 -5.76,3.672 l -3.744,-3.456 q 1.656,-1.08 3.6,-2.664 2.016,-1.584 3.816,-3.24 1.872,-1.656 3.096,-3.096 z m -15.12,-3.744 q 2.16,5.112 5.616,9.792 3.528,4.608 7.92,8.352 4.464,3.672 9.432,5.832 -0.72,0.576 -1.656,1.512 -0.864,1.008 -1.656,2.016 -0.792,1.08 -1.296,1.944 -5.112,-2.664 -9.648,-6.912 -4.464,-4.248 -8.064,-9.576 -3.6,-5.4 -6.048,-11.304 z m -12.168,-13.464004 h 29.52 v 4.968004 h -29.52 z m -3.888,43.992004 -0.576,-5.472 2.52,-2.232 14.76,-4.536 q 0,1.224 0.144,2.88 0.144,1.656 0.288,2.664 -5.04,1.8 -8.208,2.88 -3.168,1.152 -4.968,1.8 -1.728,0.72 -2.592,1.152 -0.864,0.504 -1.368,0.864 z m -11.88,-31.608 h 6.336 q 0,0 -0.072,0.504 0,0.504 0,1.152 0,0.648 -0.072,1.08 -0.36,8.352 -0.864,13.68 -0.504,5.328 -1.152,8.208 -0.648,2.808 -1.728,3.96 -1.008,1.296 -2.16,1.8 -1.152,0.504 -2.88,0.72 -1.368,0.144 -3.744,0.144 -2.376,0.072 -5.04,-0.072 -0.072,-1.584 -0.648,-3.456 -0.504,-1.872 -1.44,-3.24 2.592,0.216 4.752,0.288 2.232,0.072 3.312,0.072 0.864,0 1.44,-0.144 0.576,-0.144 1.08,-0.648 0.72,-0.72 1.224,-3.168 0.504,-2.448 0.864,-7.272 0.432,-4.824 0.792,-12.6 z m -13.464,-16.272004 h 6.048 q 0,3.672 -0.144,7.776004 -0.072,4.032 -0.216,7.848 -0.144,3.816 -0.36,6.624 h -6.12 q 0.288,-2.952 0.432,-6.768 0.216,-3.816 0.288,-7.848 0.144,-4.104004 0.072,-7.632004 z m 2.016,16.272004 h 12.672 v 5.976 h -13.392 z m -0.576,-16.272004 h 11.88 v -9.72 h -14.616 v -6.048 h 20.808 v 21.888 h -18.072 z m 23.904,47.880004 q -0.216,-0.72 -0.72,-1.8 -0.504,-1.08 -1.08,-2.16 -0.576,-1.008 -1.152,-1.584 0.936,-0.576 1.8,-1.728 0.864,-1.152 0.864,-3.312 v -19.728 h 6.408 v 24.552 q 0,0 -0.648,0.36 -0.648,0.432 -1.584,1.008 -0.864,0.648 -1.8,1.368 -0.864,0.792 -1.512,1.584 -0.576,0.792 -0.576,1.44 z"
         id="text4"
         transform="matrix(0.26166763,0,0,0.26166763,8.6238305,-4.0633201)"
         aria-label="七張" />
      <path
         style="font-size:7.32669px;line-height:1.25;font-family:'AR UDJingXiHeiE1G30 EB';-inkscape-font-specification:'AR UDJingXiHeiE1G30 EB';fill:#f9f9f9;stroke-width:0.261667"
         d="m 55.499331,40.292957 0.652075,0.542175 -0.468908,0.549502 -0.798609,-0.674056 q -0.271088,0.131881 -0.600789,0.197821 -0.322374,0.07327 -0.681382,0.07327 -1.245537,0 -1.948899,-0.725343 -0.703363,-0.725342 -0.703363,-1.992859 0,-1.289498 0.710689,-2.022167 0.710689,-0.739996 1.941573,-0.739996 1.245538,0 1.941573,0.732669 0.696036,0.732669 0.696036,2.029494 0,0.652075 -0.190494,1.164943 -0.190494,0.512869 -0.549502,0.86455 z m -1.897613,-4.066313 q -0.805936,0 -1.252864,0.564155 -0.439601,0.556828 -0.439601,1.472665 0,0.937816 0.446928,1.465338 0.446928,0.527521 1.245537,0.527521 0.175841,0 0.329701,-0.02931 0.161187,-0.02931 0.300395,-0.08792 l -0.564156,-0.476235 0.498215,-0.534848 0.666729,0.564155 q 0.212474,-0.241781 0.322375,-0.600788 0.117227,-0.366335 0.117227,-0.827916 0,-0.93049 -0.439602,-1.479992 -0.439601,-0.556828 -1.230884,-0.556828 z m 4.579183,-0.637422 v 5.297197 h -0.93049 v -5.297197 z m 1.098998,0 h 4.146907 v 0.666729 l -3.194437,3.905125 h 3.267704 v 0.725343 H 59.038118 V 40.21969 l 3.194437,-3.905126 h -2.952656 z m 6.007887,2.945329 v 2.351868 h -0.93049 v -5.297197 h 0.93049 v 2.219987 h 2.542361 v -2.219987 h 0.93049 v 5.297197 h -0.93049 v -2.351868 z m 7.509858,0.212474 -0.835242,-2.263947 -0.849896,2.263947 z m -1.956226,0.725343 -0.527522,1.414051 h -0.945143 l 2.132067,-5.297197 h 0.95247 l 2.117413,5.297197 H 73.60358 l -0.534848,-1.414051 z m 5.267883,-2.410482 v 3.824533 h -0.93049 v -5.297197 h 0.959797 l 2.600975,3.912452 v -3.912452 h 0.930489 v 5.297197 h -1.01841 z m 8.66747,3.179784 q -0.271088,0.380988 -0.681382,0.564155 -0.402968,0.175841 -0.923163,0.175841 -1.142964,0 -1.81702,-0.718016 -0.674055,-0.725342 -0.674055,-2.022166 0,-1.304151 0.710689,-2.022167 0.710689,-0.718016 1.919593,-0.718016 0.97445,0 1.582565,0.446929 0.615442,0.439601 0.739996,1.26019 h -0.93049 q -0.07327,-0.432274 -0.432275,-0.703362 -0.351681,-0.278414 -0.959796,-0.278414 -0.813263,0 -1.238211,0.527521 -0.424948,0.520195 -0.424948,1.487319 0,1.033063 0.446928,1.523951 0.446928,0.483562 1.216231,0.483562 0.674055,0 1.069696,-0.395642 0.395642,-0.395641 0.395642,-0.908509 v -0.109901 h -1.501972 v -0.725342 h 2.395828 v 2.776816 h -0.893856 z"
         id="text5"
         aria-label="QIZHANG" />
      <path
         d="m 50.746707,46.274786 6.586695,-1.033063 0.1099,0.710689 -6.586694,1.01841 z m 2.095434,-2.725529 h 0.754649 v 5.15799 q 0,0.234454 0.03663,0.359008 0.04396,0.117227 0.168514,0.161187 0.13188,0.04396 0.388315,0.04396 0.07327,0 0.24178,0 0.168514,0 0.380988,0 0.212474,0 0.424948,0 0.219801,0 0.395642,0 0.17584,0 0.256434,0 0.249107,0 0.373661,-0.1099 0.124554,-0.117227 0.17584,-0.424948 0.05861,-0.307721 0.09525,-0.893856 0.09525,0.07327 0.219801,0.139207 0.131881,0.06594 0.263761,0.117227 0.13188,0.05129 0.227127,0.08059 -0.05129,0.659403 -0.17584,1.055044 -0.117227,0.388314 -0.380988,0.556828 -0.263761,0.175841 -0.761976,0.175841 -0.06594,0 -0.249107,0 -0.175841,0 -0.410295,0 -0.234454,0 -0.468908,0 -0.234454,0 -0.410295,0 -0.17584,0 -0.241781,0 -0.505541,0 -0.791282,-0.1099 -0.278414,-0.109901 -0.395641,-0.380988 -0.117227,-0.278415 -0.117227,-0.77663 z m 8.638167,1.216231 h 2.696222 v 0.505541 h -2.696222 z m 0,1.011083 h 2.696222 v 0.498215 h -2.696222 z m -0.879203,1.01841 h 4.205521 v 0.608115 h -4.205521 z m 0.571482,-3.12117 h 3.289684 v 0.593462 h -2.630282 v 2.850082 h -0.659402 z m -0.593462,5.773432 q 0.476235,-0.05861 1.135637,-0.153861 0.666729,-0.09525 1.348111,-0.205147 l 0.02931,0.608115 q -0.630095,0.109901 -1.260191,0.212474 -0.622768,0.109901 -1.135637,0.197821 z m 2.329888,-2.344541 q 0.146534,0.586135 0.410295,1.08435 0.271087,0.498215 0.666728,0.86455 0.402968,0.366334 0.93049,0.564155 -0.08059,0.06594 -0.168514,0.17584 -0.08792,0.109901 -0.168514,0.219801 -0.07327,0.117227 -0.124553,0.212474 -0.564156,-0.263761 -0.97445,-0.696036 Q 63.0702,49.088235 62.791786,48.5021 62.513372,47.915965 62.337531,47.212602 Z m 1.304151,0.424948 0.571482,0.322374 q -0.307721,0.263761 -0.652076,0.512869 -0.344354,0.249107 -0.630095,0.424948 l -0.424948,-0.271088 q 0.183167,-0.13188 0.388314,-0.300394 0.212474,-0.175841 0.410295,-0.351681 0.197821,-0.183167 0.337028,-0.337028 z m -3.025923,-0.542175 h 0.666729 v 2.527708 l -0.666729,0.117227 z m -2.791469,-0.0073 h 1.831672 v 0.622769 h -1.831672 z m 1.516625,0 h 0.696035 q 0,0 -0.0073,0.05129 0,0.05129 -0.0073,0.117227 0,0.06594 -0.0073,0.117227 -0.05129,0.871876 -0.117227,1.421378 -0.05861,0.542175 -0.139207,0.842569 -0.08059,0.293068 -0.190494,0.417622 -0.1099,0.124554 -0.234454,0.17584 -0.117227,0.05861 -0.285741,0.07327 -0.139207,0.01465 -0.380988,0.01465 -0.234454,0.0073 -0.505542,-0.0073 -0.0073,-0.146534 -0.05861,-0.329701 -0.05129,-0.183167 -0.124554,-0.315048 0.241781,0.02198 0.446928,0.02931 0.205148,0 0.300395,0 0.09525,0 0.15386,-0.01465 0.05861,-0.01465 0.102574,-0.06594 0.08059,-0.08792 0.139207,-0.344354 0.06594,-0.256434 0.124554,-0.754649 0.05861,-0.505542 0.09525,-1.318804 z m -1.538605,-1.516625 h 0.637422 q -0.04396,0.395642 -0.102574,0.835243 -0.05129,0.439602 -0.1099,0.857223 -0.05129,0.410295 -0.102574,0.718016 l -0.644749,-0.07327 q 0.05861,-0.300395 0.117227,-0.703363 0.06594,-0.402968 0.117227,-0.827916 0.05861,-0.432274 0.08792,-0.805936 z m 0.07327,0 h 1.399397 v -1.04039 h -1.685138 v -0.637422 h 2.32256 v 2.315234 h -2.036819 z"
         id="text5-9"
         style="font-weight:500;font-size:7.32669px;line-height:1.25;font-family:'Noto Sans JP';-inkscape-font-specification:'Noto Sans JP Medium';fill:#f9f9f9;stroke-width:0.261667"
         aria-label="七張" />
      <path
         style="font-weight:500;font-size:7.32669px;line-height:1.25;font-family:'Noto Sans KR';-inkscape-font-specification:'Noto Sans KR Medium';fill:#f9f9f9;stroke-width:0.261667"
         d="m 77.196089,43.584846 h 0.769303 v 6.696595 h -0.769303 z m -2.981963,1.663159 h 0.608116 v 0.468908 q 0,0.534849 -0.131881,1.047717 -0.124554,0.505542 -0.373661,0.945143 -0.249107,0.439601 -0.593462,0.776629 -0.344354,0.337028 -0.776629,0.534849 l -0.417621,-0.593462 q 0.395641,-0.183168 0.703362,-0.468909 0.307721,-0.28574 0.527522,-0.644748 0.2198,-0.366335 0.337027,-0.769303 0.117227,-0.410294 0.117227,-0.827916 z m 0.153861,0 h 0.608115 v 0.468908 q 0,0.395641 0.117227,0.783956 0.117227,0.388315 0.337028,0.739996 0.227127,0.344354 0.542175,0.622768 0.315048,0.278415 0.703362,0.446929 l -0.417621,0.593461 q -0.424948,-0.190493 -0.776629,-0.512868 -0.351681,-0.329701 -0.600789,-0.747322 -0.249107,-0.424948 -0.380988,-0.915837 -0.13188,-0.490888 -0.13188,-1.011083 z m -1.633852,-0.527522 h 3.699978 v 0.608116 h -3.699978 z m 1.472665,-0.99643 h 0.769302 v 1.326131 H 74.2068 Z m 6.557388,0.593462 h 0.630096 v 0.490889 q 0,0.622768 -0.219801,1.17227 -0.219801,0.549502 -0.637422,0.959796 -0.417622,0.402968 -1.01841,0.615442 l -0.388315,-0.608115 q 0.527522,-0.183167 0.893856,-0.512868 0.366335,-0.329701 0.549502,-0.747323 0.190494,-0.424948 0.190494,-0.879202 z m 0.153861,0 h 0.622768 v 0.490889 q 0,0.410294 0.183168,0.791282 0.183167,0.380988 0.534848,0.681382 0.351681,0.293068 0.857223,0.454255 l -0.366335,0.600789 q -0.593462,-0.190494 -1.003756,-0.564155 -0.402968,-0.373662 -0.615442,-0.879203 -0.212474,-0.512869 -0.212474,-1.08435 z M 79.34281,44.061081 h 3.597405 V 44.68385 H 79.34281 Z m 4.308094,-0.468908 h 0.761976 v 4.000373 h -0.761976 z m 0.556829,1.626525 h 1.15029 v 0.630096 h -1.15029 z m -1.9489,2.527708 q 0.688709,0 1.186924,0.153861 0.498215,0.146534 0.769302,0.432275 0.271088,0.278414 0.271088,0.674055 0,0.402968 -0.271088,0.681382 -0.271087,0.285741 -0.769302,0.432275 -0.498215,0.153861 -1.186924,0.153861 -0.688709,0 -1.194251,-0.153861 -0.498214,-0.146534 -0.769302,-0.432275 -0.263761,-0.278414 -0.263761,-0.681382 0,-0.395641 0.263761,-0.674055 0.271088,-0.285741 0.769302,-0.432275 0.505542,-0.153861 1.194251,-0.153861 z m 0,0.608116 q -0.461582,0 -0.791283,0.07327 -0.329701,0.07327 -0.505541,0.2198 -0.175841,0.146534 -0.175841,0.359008 0,0.219801 0.175841,0.373661 0.17584,0.146534 0.505541,0.227128 0.329701,0.07327 0.791283,0.07327 0.468908,0 0.791283,-0.07327 0.329701,-0.08059 0.505541,-0.227128 0.175841,-0.15386 0.175841,-0.373661 0,-0.212474 -0.175841,-0.359008 -0.17584,-0.146534 -0.505541,-0.2198 -0.322375,-0.07327 -0.791283,-0.07327 z"
         id="text5-9-8"
         aria-label="치장" />
    </g>
    <text
       xml:space="preserve"
       transform="matrix(0.31615295,0,0,0.31615295,0.2809891,-6.4462013)"
       id="text6"
       style="font-size:55px;line-height:1.25;font-family:'Microsoft JhengHei';-inkscape-font-specification:'Microsoft JhengHei';white-space:pre;shape-inside:url(#rect6);display:inline" />
  </g>
</svg>
