<?xml version="1.0" encoding="UTF-8" standalone="no"?>
<!-- Created with Inkscape (http://www.inkscape.org/) -->

<svg
   width="500"
   height="250"
   viewBox="0 0 132.29166 66.145833"
   version="1.1"
   id="svg1"
   inkscape:version="1.3.2 (091e20e, 2023-11-25, custom)"
   sodipodi:docname="g03a.svg"
   xmlns:inkscape="http://www.inkscape.org/namespaces/inkscape"
   xmlns:sodipodi="http://sodipodi.sourceforge.net/DTD/sodipodi-0.dtd"
   xmlns="http://www.w3.org/2000/svg"
   xmlns:svg="http://www.w3.org/2000/svg">
  <sodipodi:namedview
     id="namedview1"
     pagecolor="#9e652e"
     bordercolor="#ffffff"
     borderopacity="1"
     inkscape:showpageshadow="0"
     inkscape:pageopacity="0"
     inkscape:pagecheckerboard="false"
     inkscape:deskcolor="#d1d1d1"
     inkscape:document-units="mm"
     inkscape:zoom="2.0208096"
     inkscape:cx="305.81802"
     inkscape:cy="106.88785"
     inkscape:window-width="1920"
     inkscape:window-height="1009"
     inkscape:window-x="1912"
     inkscape:window-y="-8"
     inkscape:window-maximized="1"
     inkscape:current-layer="layer1" />
  <defs
     id="defs1">
    <rect
       x="560.66638"
       y="34.144731"
       width="279.32397"
       height="128.59143"
       id="rect6" />
    <rect
       x="157.85752"
       y="62.351248"
       width="381.61437"
       height="132.30098"
       id="rect4" />
    <rect
       x="157.85751"
       y="62.35125"
       width="329.07602"
       height="135.09438"
       id="rect4-5" />
    <rect
       x="157.85751"
       y="62.35125"
       width="329.07602"
       height="135.09438"
       id="rect4-5-8" />
  </defs>
  <g
     inkscape:label="Layer 1"
     inkscape:groupmode="layer"
     id="layer1">
    <path
       id="rect5"
       style="fill:#007846;stroke-width:0.953294"
       d="M -2.5431316e-6,-1.2715658e-6 H 132.29167 V 66.145835 H -2.5431316e-6 Z" />
    <g
       id="g6"
       transform="matrix(0.86820833,0,0,0.86820833,-0.44445276,4.9271048)">
      <g
         id="g1"
         transform="matrix(0.93177749,0,0,0.93177749,-13.833945,1.6016693)">
        <path
           id="rect1"
           style="fill-opacity:0;stroke:#f9f9f9;stroke-width:0.942789"
           d="m 26.668419,14.352791 h 12.425165 c 3.927061,0 7.088558,3.161497 7.088558,7.088559 v 23.263136 c 0,3.927062 -3.161497,7.088559 -7.088558,7.088559 H 26.668419 c -3.927061,0 -7.088558,-3.161497 -7.088558,-7.088559 V 21.44135 c 0,-3.927062 3.161497,-7.088559 7.088558,-7.088559 z" />
        <path
           style="font-size:14.4826px;line-height:1.25;font-family:'AR UDJingXiHeiE1G30 EB';-inkscape-font-specification:'AR UDJingXiHeiE1G30 EB';fill:#f9f9f9;stroke-width:0.301722"
           d="m 35.832506,29.412688 q -0.535856,0.753095 -1.346882,1.11516 -0.796543,0.347582 -1.824808,0.347582 -2.259285,0 -3.591684,-1.419294 -1.3324,-1.433778 -1.3324,-3.997198 0,-2.577903 1.404813,-3.997198 1.404812,-1.419295 3.794441,-1.419295 1.926186,0 3.128241,0.883439 1.216539,0.868956 1.462743,2.491007 h -1.83929 q -0.144826,-0.854473 -0.854474,-1.390329 -0.695164,-0.550339 -1.89722,-0.550339 -1.607569,0 -2.44756,1.042747 -0.83999,1.028265 -0.83999,2.939968 0,2.042047 0.883438,3.012381 0.883439,0.955851 2.404112,0.955851 1.332399,0 2.114459,-0.78206 0.782061,-0.78206 0.782061,-1.795842 v -0.217239 h -2.968933 v -1.433778 h 4.73581 v 5.488906 h -1.766877 z"
           id="text2"
           aria-label="G" />
        <g
           id="text3"
           style="font-size:14.3917px;line-height:1.25;font-family:'Microsoft JhengHei';-inkscape-font-specification:'Microsoft JhengHei';fill:#f9f9f9;stroke-width:0.261667"
           aria-label="03A">
          <path
             style="font-family:'AR UDJingXiHeiE1G30 EB';-inkscape-font-specification:'AR UDJingXiHeiE1G30 EB'"
             d="m 28.840278,39.692779 q 0,2.720031 -0.877894,4.015284 -0.877893,1.295253 -2.720031,1.295253 -1.784571,0 -2.705639,-1.295253 -0.921069,-1.295253 -0.921069,-4.015284 0,-2.907123 0.877894,-4.173593 0.877893,-1.280861 2.748814,-1.280861 1.827746,0 2.70564,1.280861 0.892285,1.26647 0.892285,4.173593 z m -3.597925,3.885759 q 0.921069,0 1.35282,-0.906677 0.431751,-0.921069 0.431751,-2.979082 0,-2.216322 -0.417359,-3.122999 -0.402968,-0.906677 -1.367212,-0.906677 -0.964244,0 -1.381603,0.921069 -0.417359,0.906677 -0.417359,3.108607 0,2.043622 0.431751,2.96469 0.431751,0.921069 1.367211,0.921069 z m 8.491093,-7.915435 q -0.791544,0 -1.237686,0.474926 -0.446143,0.474926 -0.446143,1.237687 h -1.770179 q 0,-1.410387 0.921069,-2.273889 0.93546,-0.863502 2.532939,-0.863502 1.482345,0 2.403414,0.733977 0.921069,0.733976 0.921069,2.101188 0,0.748368 -0.316618,1.324036 -0.316617,0.575668 -0.949852,0.877894 0.805935,0.273442 1.237686,0.921069 0.446143,0.647626 0.446143,1.539912 0,1.539911 -0.978636,2.403413 -0.978635,0.863502 -2.720031,0.863502 -1.770179,0 -2.734423,-0.84911 -0.964244,-0.84911 -0.964244,-2.317064 h 1.784571 q 0,0.777152 0.518101,1.26647 0.532493,0.474926 1.410387,0.474926 0.863502,0 1.352819,-0.474926 0.50371,-0.474926 0.50371,-1.35282 0,-0.733976 -0.460534,-1.194511 -0.460535,-0.474926 -1.324037,-0.474926 h -0.647626 v -1.424778 h 0.647626 q 0.575668,0 0.964244,-0.41736 0.402968,-0.417359 0.402968,-1.122552 0,-0.647627 -0.388576,-1.050594 -0.388576,-0.402968 -1.108161,-0.402968 z"
             id="path6" />
          <path
             style="font-size:10.2224px;font-family:'AR UDJingXiHeiE1G30 EB';-inkscape-font-specification:'AR UDJingXiHeiE1G30 EB'"
             d="m 42.863812,41.835453 -1.165353,-3.158722 -1.185799,3.158722 z m -2.729381,1.012017 -0.736012,1.972924 h -1.31869 l 2.974718,-7.390795 h 1.328912 l 2.954274,7.390795 H 43.988276 L 43.242041,42.84747 Z"
             id="path7" />
        </g>
        <path
           style="font-weight:500;font-size:72px;line-height:1.25;font-family:'Noto Sans TC';-inkscape-font-specification:'Noto Sans TC Medium';white-space:pre;fill:#f9f9f9"
           d="m 190.40142,75.681406 h 7.416 v 56.880004 q 0,3.456 -0.936,5.112 -0.864,1.656 -3.096,2.52 -2.16,0.792 -5.76,1.008 -3.6,0.288 -8.712,0.288 -0.216,-1.008 -0.72,-2.304 -0.432,-1.224 -1.008,-2.52 -0.504,-1.296 -1.08,-2.304 2.592,0.144 4.968,0.216 2.448,0 4.248,0 1.872,-0.072 2.664,-0.072 1.08,-0.072 1.512,-0.432 0.504,-0.432 0.504,-1.512 z m 17.352,18.576 6.624,-2.448 q 3.096,5.04 5.904,10.872004 2.88,5.76 5.04,11.304 2.232,5.544 3.096,9.936 l -7.416,2.952 q -0.792,-4.32 -2.808,-9.936 -1.944,-5.616 -4.68,-11.52 -2.736,-5.976004 -5.76,-11.160004 z m -36.216,-1.872 7.704,1.296 q -1.152,5.328 -2.952,11.232004 -1.8,5.904 -4.248,11.304 -2.448,5.328 -5.616,9.36 -0.792,-0.576 -2.016,-1.224 -1.152,-0.72 -2.376,-1.296 -1.224,-0.648 -2.16,-1.08 3.096,-3.744 5.4,-8.784 2.304,-5.112 3.888,-10.584 1.584,-5.472004 2.376,-10.224004 z m 63.432,-14.184 h 27.72 v 5.256 h -27.72 z m -1.224,32.688004 h 64.296 v 5.4 h -64.296 z m 2.016,-21.600004 h 25.56 v 5.256 h -25.56 z m 14.976,44.568004 h 36.36 v 5.256 h -36.36 z m -17.064,-31.68 q 3.744,-0.288 8.568,-0.648 4.824,-0.36 10.224,-0.792 5.472,-0.504 10.944,-0.936004 v 5.256004 q -7.92,0.792 -15.696,1.512 -7.704,0.648 -13.608,1.224 z m 11.952,-21.960004 h 6.48 v 22.608004 l -6.48,0.792 z m 32.4,-5.544 7.416,0.792 q -0.936,2.232 -1.872,4.32 -0.936,2.088 -1.728,3.672 l -5.904,-0.936 q 0.576,-1.872 1.152,-4.032 0.648,-2.16 0.936,-3.816 z m -5.688,21.024 v 5.976004 h 16.416 v -5.976004 z m 0,-10.872 v 5.904 h 16.416 v -5.904 z m -6.192,-5.256 h 29.16 v 27.360004 h -29.16 z m -12.312,32.256004 6.192,2.088 q -2.664,4.608 -6.552,8.64 -3.888,4.032 -8.424,7.272 -4.464,3.24 -9.144,5.688 -0.36,-0.72 -1.152,-1.728 -0.72,-1.08 -1.584,-2.088 -0.792,-1.08 -1.512,-1.656 4.536,-1.944 8.784,-4.68 4.248,-2.808 7.704,-6.192 3.528,-3.384 5.688,-7.344 z m -7.56,9.936 h 45.432 v 19.44 h -7.2 v -14.184 h -31.32 v 14.544 h -6.912 z m 75.888,6.12 h 48.528 v 5.112 h -48.528 z m 1.296,-50.112004 h 47.016 v 5.112 h -47.016 z m 19.656,44.208004 h 6.696 v 19.512 h -6.696 z m -5.4,-41.328004 h 5.616 v 18.72 h -5.616 z m 11.88,0 h 5.688 v 18.72 h -5.688 z m -15.768,35.928004 v 3.6 h 26.136 v -3.6 z m 0,-7.56 v 3.456 h 26.136 v -3.456 z m -6.12,-4.248 h 38.664 v 19.656 h -38.664 z m 3.888,-13.608004 v 6.12 h 30.312 v -6.12 z m -6.048,-4.536 h 42.768 v 15.192004 h -42.768 z m -17.64,-5.976 3.96,-4.824 q 1.872,0.864 4.032,2.16 2.232,1.296 4.248,2.592 2.088,1.224 3.456,2.232 l -4.176,5.4 q -1.224,-1.08 -3.24,-2.448 -1.944,-1.368 -4.104,-2.664 -2.16,-1.368 -4.176,-2.448 z m -3.6,19.512004 3.816,-4.968004 q 2.016,1.008 4.392,2.304 2.376,1.224 4.536,2.592004 2.232,1.296 3.672,2.376 l -3.888,5.544 q -1.296,-1.152 -3.528,-2.52 -2.16,-1.44 -4.536,-2.808 -2.304,-1.44 -4.464,-2.52 z m 2.088,35.496 q 1.584,-2.736 3.528,-6.48 2.016,-3.816 4.032,-7.992 2.088,-4.248 3.744,-8.352 l 5.4,4.32 q -1.584,3.744 -3.384,7.776 -1.728,3.96 -3.6,7.848 -1.872,3.816 -3.672,7.272 z"
           id="text4"
           transform="matrix(0.26166763,0,0,0.26166763,8.6238305,-4.0633201)"
           aria-label="小碧潭" />
        <path
           style="font-size:7.32669px;line-height:1.25;font-family:'AR UDJingXiHeiE1G30 EB';-inkscape-font-specification:'AR UDJingXiHeiE1G30 EB';fill:#f9f9f9;stroke-width:0.261667"
           d="m 54.268447,35.589222 h 1.077023 l -1.824345,2.557015 1.926919,2.740182 h -1.08435 l -1.384744,-2.044147 -1.384745,2.044147 h -1.055043 l 1.912266,-2.747509 -1.831673,-2.549688 h 1.091677 l 1.274844,1.904939 z m 2.718203,0 v 5.297197 h -0.93049 v -5.297197 z m 4.037001,3.157803 -0.835243,-2.263947 -0.849896,2.263947 z m -1.956226,0.725343 -0.527522,1.414051 H 57.59476 l 2.132067,-5.297197 h 0.95247 l 2.117413,5.297197 h -0.967123 l -0.534849,-1.414051 z m 9.429443,-1.208904 q 0,1.274844 -0.710689,2.000186 -0.703362,0.718016 -1.926919,0.718016 -1.245537,0 -1.9489,-0.725343 -0.703362,-0.725342 -0.703362,-1.992859 0,-1.289498 0.710689,-2.022167 0.710689,-0.739996 1.941573,-0.739996 1.245537,0 1.941573,0.732669 0.696035,0.732669 0.696035,2.029494 z m -2.637608,1.992859 q 0.798609,0 1.230884,-0.527521 0.439601,-0.527522 0.439601,-1.465338 0,-0.93049 -0.439601,-1.479992 -0.439602,-0.556828 -1.230884,-0.556828 -0.805936,0 -1.252864,0.564155 -0.439602,0.556828 -0.439602,1.472665 0,0.937816 0.446929,1.465338 0.446928,0.527521 1.245537,0.527521 z m 6.432835,0.630096 h -2.784142 v -5.297197 h 2.549688 q 0.754649,0 1.19425,0.366334 0.439602,0.366335 0.439602,0.97445 0,0.395641 -0.175841,0.696036 -0.168514,0.293067 -0.512868,0.483561 0.446928,0.175841 0.674056,0.483562 0.234454,0.307721 0.234454,0.732669 0,0.703362 -0.461582,1.135637 -0.461581,0.424948 -1.157617,0.424948 z m 0.432275,-3.839186 q 0,-0.359008 -0.205148,-0.542175 -0.205147,-0.190494 -0.593461,-0.190494 h -1.487319 v 1.494645 h 1.538605 q 0.329701,0 0.534849,-0.190494 0.212474,-0.197821 0.212474,-0.571482 z m 0.2198,2.271274 q 0,-0.380988 -0.234454,-0.578808 -0.227127,-0.205148 -0.600788,-0.205148 h -1.670486 v 1.626525 h 1.655832 q 0.388315,0 0.615442,-0.212474 0.234454,-0.212474 0.234454,-0.630095 z m 2.828108,-3.729285 v 5.297197 h -0.93049 v -5.297197 z m 2.344534,0.725342 h -1.648505 v -0.725342 h 4.220173 v 0.725342 h -1.641178 v 4.571855 h -0.93049 z m 6.095805,2.432461 -0.835243,-2.263947 -0.849896,2.263947 z m -1.956227,0.725343 -0.527521,1.414051 h -0.945143 l 2.132067,-5.297197 h 0.952469 l 2.117414,5.297197 h -0.967123 l -0.534849,-1.414051 z m 5.267887,-2.410482 v 3.824533 h -0.93049 v -5.297197 h 0.959797 l 2.600975,3.912452 v -3.912452 h 0.930489 v 5.297197 h -1.01841 z"
           id="text5"
           aria-label="XIAOBITAN" />
        <path
           d="m 53.721343,43.512624 h 0.754649 v 5.788085 q 0,0.351681 -0.09525,0.520195 -0.08792,0.168514 -0.315047,0.256434 -0.219801,0.08059 -0.586135,0.102574 -0.366335,0.02931 -0.88653,0.02931 -0.02198,-0.102574 -0.07327,-0.234454 -0.04396,-0.124554 -0.102573,-0.256435 -0.05129,-0.13188 -0.109901,-0.234454 0.263761,0.01465 0.505542,0.02198 0.249107,0 0.432275,0 0.190493,-0.0073 0.271087,-0.0073 0.1099,-0.0073 0.153861,-0.04396 0.05129,-0.04396 0.05129,-0.153861 z m 1.765733,1.890286 0.674055,-0.249108 q 0.315048,0.512869 0.600789,1.106331 0.293067,0.586135 0.512868,1.15029 0.227128,0.564155 0.315048,1.011083 l -0.754649,0.300395 q -0.08059,-0.439602 -0.285741,-1.011084 -0.197821,-0.571482 -0.476235,-1.17227 -0.278414,-0.608115 -0.586135,-1.135637 z m -3.685325,-0.190494 0.783955,0.13188 q -0.117227,0.542175 -0.300394,1.142964 -0.183167,0.600789 -0.432275,1.15029 -0.249107,0.542175 -0.571481,0.95247 -0.08059,-0.05861 -0.205148,-0.124554 -0.117227,-0.07327 -0.241781,-0.13188 -0.124553,-0.06594 -0.2198,-0.1099 0.315047,-0.380988 0.549502,-0.893857 0.234454,-0.520195 0.395641,-1.077023 0.161187,-0.556828 0.241781,-1.04039 z m 6.454814,-1.443358 h 2.820775 v 0.534848 h -2.820775 z m -0.124554,3.326317 h 6.542734 v 0.549502 h -6.542734 z m 0.205147,-2.198007 h 2.600975 v 0.534849 h -2.600975 z m 1.523952,4.535222 h 3.699978 v 0.534848 H 59.86111 Z m -1.736426,-3.223744 q 0.380988,-0.02931 0.871876,-0.06594 0.490889,-0.03663 1.04039,-0.08059 0.556829,-0.05129 1.113657,-0.09525 v 0.534848 q -0.805936,0.08059 -1.597218,0.153861 -0.783956,0.06594 -1.384745,0.124554 z m 1.216231,-2.234641 h 0.659402 v 2.300581 l -0.659402,0.08059 z m 3.29701,-0.564155 0.754649,0.08059 q -0.09525,0.227127 -0.190494,0.439601 -0.09525,0.212474 -0.17584,0.373661 l -0.600789,-0.09525 q 0.05861,-0.190494 0.117227,-0.410294 0.06594,-0.219801 0.09525,-0.388315 z m -0.578808,2.139394 v 0.608115 h 1.670485 v -0.608115 z m 0,-1.106331 v 0.600789 h 1.670485 v -0.600789 z m -0.630096,-0.534848 h 2.96731 v 2.784142 h -2.96731 z m -1.252864,3.282357 0.630096,0.212474 q -0.271088,0.468909 -0.666729,0.879203 -0.395641,0.410295 -0.857223,0.739996 -0.454255,0.329701 -0.930489,0.578808 -0.03663,-0.07327 -0.117227,-0.17584 -0.07327,-0.109901 -0.161188,-0.212474 -0.08059,-0.109901 -0.15386,-0.168514 0.461581,-0.197821 0.893856,-0.476235 0.432275,-0.285741 0.783956,-0.630095 0.359008,-0.344355 0.578808,-0.747323 z m -0.769302,1.011084 h 4.623141 v 1.978206 h -0.732669 v -1.443358 h -3.18711 v 1.479991 h -0.703362 z m 7.722331,0.622768 h 4.93819 v 0.520195 h -4.93819 z m 0.131881,-5.099376 h 4.784329 v 0.520195 h -4.784329 z m 2.000186,4.498588 h 0.681382 v 1.985533 h -0.681382 z m -0.549501,-4.205521 h 0.571481 v 1.90494 h -0.571481 z m 1.208903,0 h 0.578809 v 1.90494 h -0.578809 z m -1.604545,3.656019 v 0.366334 h 2.659589 v -0.366334 z m 0,-0.769303 v 0.351682 h 2.659589 v -0.351682 z m -0.622768,-0.432274 h 3.934432 v 2.000186 h -3.934432 z m 0.395641,-1.384745 v 0.622769 h 3.084536 v -0.622769 z m -0.615442,-0.461581 h 4.352054 v 1.545931 h -4.352054 z m -1.795039,-0.608116 0.402968,-0.490888 q 0.190494,0.08792 0.410294,0.219801 0.227128,0.13188 0.432275,0.263761 0.212474,0.124554 0.351681,0.227127 l -0.424948,0.549502 q -0.124554,-0.1099 -0.329701,-0.249108 -0.19782,-0.139207 -0.417621,-0.271087 -0.219801,-0.139207 -0.424948,-0.249108 z m -0.366335,1.985534 0.388315,-0.505542 q 0.205147,0.102574 0.446928,0.234454 0.241781,0.124554 0.461581,0.263761 0.227128,0.13188 0.373662,0.241781 l -0.395642,0.564155 q -0.13188,-0.117227 -0.359007,-0.256434 -0.219801,-0.146534 -0.461582,-0.285741 -0.234454,-0.146534 -0.454255,-0.256434 z m 0.212474,3.612058 q 0.161187,-0.278414 0.359008,-0.659402 0.205147,-0.388315 0.410295,-0.813263 0.212474,-0.432275 0.380988,-0.849896 l 0.549501,0.439601 q -0.161187,0.380988 -0.344354,0.791283 -0.175841,0.402968 -0.366335,0.798609 -0.190493,0.388315 -0.373661,0.739996 z"
           id="text5-9"
           style="font-weight:500;font-size:7.32669px;line-height:1.25;font-family:'Noto Sans JP';-inkscape-font-specification:'Noto Sans JP Medium';fill:#f9f9f9;stroke-width:0.261667"
           aria-label="小碧潭" />
        <path
           style="font-weight:500;font-size:7.32669px;line-height:1.25;font-family:'Noto Sans KR';-inkscape-font-specification:'Noto Sans KR Medium';fill:#f9f9f9;stroke-width:0.261667"
           d="m 84.245454,45.218698 h 1.208904 v 0.637422 h -1.208904 z m 0,1.97088 h 1.208904 V 47.827 H 84.245454 Z M 80.84587,44.141675 h 0.622769 v 1.099003 q 0,0.578809 -0.124554,1.142964 -0.124554,0.556828 -0.366335,1.047717 -0.234454,0.483561 -0.571481,0.864549 -0.337028,0.380988 -0.761976,0.608115 l -0.498215,-0.615442 q 0.388314,-0.190493 0.703362,-0.512868 0.315048,-0.329701 0.534849,-0.739996 0.227127,-0.417621 0.344354,-0.871876 0.117227,-0.461581 0.117227,-0.923163 z m 0.139207,0 h 0.622769 v 1.099003 q 0,0.454255 0.1099,0.901183 0.1099,0.439602 0.322374,0.827916 0.219801,0.388315 0.520195,0.696036 0.300395,0.300394 0.674056,0.476235 L 82.77279,48.75749 Q 82.347841,48.545016 82.01814,48.186008 81.688439,47.819673 81.453985,47.358092 81.226858,46.89651 81.102304,46.354335 80.985077,45.81216 80.985077,45.240678 Z m 2.696222,-0.549502 h 0.769303 v 6.696595 h -0.769303 z m 4.96017,3.773246 h 0.769303 v 1.604545 h -0.769303 z m 0.388315,-3.377605 q 0.710689,0 1.26019,0.219801 0.556829,0.219801 0.879203,0.622769 0.322375,0.402968 0.322375,0.945143 0,0.549502 -0.322375,0.952469 -0.322374,0.402968 -0.879203,0.630096 -0.549501,0.219801 -1.26019,0.219801 -0.710689,0 -1.267518,-0.219801 -0.556828,-0.227128 -0.879203,-0.630096 -0.322374,-0.402967 -0.322374,-0.952469 0,-0.542175 0.322374,-0.945143 0.322375,-0.402968 0.879203,-0.622769 0.556829,-0.219801 1.267518,-0.219801 z m 0,0.608116 q -0.505542,0 -0.893856,0.146533 -0.380988,0.139208 -0.600789,0.402968 -0.219801,0.263761 -0.219801,0.630096 0,0.366334 0.219801,0.637422 0.219801,0.263761 0.600789,0.410294 0.388314,0.139208 0.893856,0.139208 0.498215,0 0.886529,-0.139208 0.388315,-0.146533 0.608116,-0.410294 0.2198,-0.271088 0.2198,-0.637422 0,-0.366335 -0.2198,-0.630096 -0.219801,-0.26376 -0.608116,-0.402968 -0.388314,-0.146533 -0.886529,-0.146533 z m -3.025923,4.234827 h 6.066499 v 0.630095 h -6.066499 z m 11.480924,-5.245911 h 0.769302 v 6.711249 h -0.769302 z m -4.381361,0.549502 H 93.8654 v 1.707119 h 1.692465 v -1.707119 h 0.761976 v 4.571855 h -3.216417 z m 0.761976,2.307908 v 1.641178 h 1.692465 v -1.641178 z m 5.897987,0.527521 h 0.527523 q 0.67405,0 1.17227,-0.0073 0.50554,-0.01465 0.93049,-0.05129 0.42495,-0.04396 0.86455,-0.124554 l 0.0879,0.600789 q -0.45426,0.08792 -0.89386,0.13188 -0.4396,0.03663 -0.95979,0.05129 -0.5202,0.01465 -1.20158,0.01465 h -0.527523 z m 0,-2.857409 h 3.091863 v 0.615442 h -2.32989 v 2.454441 h -0.761973 z m 0.520193,1.414051 h 2.44712 v 0.600789 h -2.44712 z m 3.66335,-1.941573 h 0.76197 v 4.967496 h -0.76197 z m 0.53485,2.03682 h 1.17227 v 0.637422 h -1.17227 z m -4.0077,3.905126 h 4.51324 v 0.622769 h -4.51324 z m 0,-1.428704 h 0.7693 v 1.795039 h -0.7693 z"
           id="text5-9-8"
           aria-label="샤오비탄" />
      </g>
      <path
         style="font-weight:500;font-size:72px;line-height:1.25;font-family:'Noto Sans TC';-inkscape-font-specification:'Noto Sans TC Medium';white-space:pre;fill:#f9f9f9"
         d="m 200.91342,98.721406 h 26.28 v 6.336004 h -26.28 z m -38.88,-16.704 h 32.04 v 5.616 h -32.04 z m -0.792,28.584004 h 32.976 v 5.832 h -32.976 z m -0.36,-12.312004 h 34.344 v 5.688004 h -34.344 z m 52.272,3.168004 h 6.624 v 39.672 h -6.624 z m -46.872,-12.312004 5.544,-1.296 q 0.936,2.088 1.656,4.608 0.792,2.52 1.08,4.32 l -5.76,1.584 q -0.216,-1.872 -0.936,-4.464 -0.648,-2.592 -1.584,-4.752 z m 17.928,-1.44 6.264,1.296 q -1.152,3.024 -2.376,6.12 -1.224,3.096 -2.304,5.256004 l -5.544,-1.224004 q 0.72,-1.584 1.44,-3.6 0.72,-2.016 1.368,-4.104 0.72,-2.088 1.152,-3.744 z m 36.36,-12.024 5.328,5.04 q -3.528,1.368 -7.92,2.52 -4.32,1.08 -8.856,1.944 -4.464,0.864 -8.784,1.512 -0.216,-1.08 -0.864,-2.592 -0.576,-1.512 -1.224,-2.52 4.104,-0.72 8.208,-1.656 4.104,-0.936 7.776,-2.016 3.744,-1.152 6.336,-2.232 z m -47.88,0.144 6.768,-1.728 q 1.224,2.232 2.376,4.968 1.224,2.664 1.8,4.608 l -7.056,2.016 q -0.504,-2.016 -1.656,-4.752 -1.08,-2.808 -2.232,-5.112 z m 25.56,5.76 h 6.408 v 25.272004 q 0,3.96 -0.288,8.496 -0.216,4.536 -1.008,9.144 -0.792,4.608 -2.232,8.928 -1.44,4.32 -3.888,7.776 -0.504,-0.648 -1.512,-1.44 -0.936,-0.792 -2.016,-1.512 -1.008,-0.72 -1.728,-1.08 2.88,-4.248 4.248,-9.504 1.368,-5.256 1.656,-10.656 0.36,-5.4 0.36,-10.152 z m -13.824,39.816004 4.536,-2.448 q 1.8,2.592 3.456,5.688 1.656,3.024 2.52,5.256 l -4.68,2.808 q -0.864,-2.232 -2.592,-5.472 -1.656,-3.24 -3.24,-5.832 z m -17.28,-1.8 5.328,1.512 q -1.296,3.888 -3.384,7.92 -2.016,3.96 -4.032,6.768 -0.792,-0.72 -2.232,-1.656 -1.368,-1.008 -2.376,-1.512 2.016,-2.592 3.744,-6.048 1.8,-3.528 2.952,-6.984 z m 8.136,-18.216 h 6.624 v 39.744 h -6.624 z m 94.32,-1.656004 h 26.568 v 6.192004 h -26.568 z m -15.12,31.968004 h 34.92 v 6.048 h -34.92 z m 11.808,-39.744004 h 7.056 v 26.496004 h -7.056 z m -15.408,22.320004 h 41.904 v 26.208 h -6.984 v -19.872 h -28.296 v 20.016 h -6.624 z m -9.288,-31.176004 h 56.664 v 6.48 h -56.664 z m -3.096,0 h 6.984 v 18.648004 q 0,4.32 -0.288,9.504 -0.288,5.112 -1.08,10.512 -0.792,5.4 -2.376,10.512 -1.512,5.112 -3.96,9.216 -0.648,-0.576 -1.8,-1.368 -1.08,-0.792 -2.232,-1.512 -1.152,-0.72 -2.016,-1.008 2.304,-3.888 3.672,-8.496 1.368,-4.608 2.016,-9.36 0.648,-4.824 0.864,-9.432 0.216,-4.68 0.216,-8.568 z m 24.48,-6.84 6.768,-1.512 q 1.584,2.304 2.88,5.112 1.296,2.808 1.8,4.968 l -7.2,1.728 q -0.36,-2.16 -1.584,-5.04 -1.224,-2.952 -2.664,-5.256 z m 42.984,5.544 h 63.504 v 5.832 h -63.504 z m 17.136,14.112 v 5.400004 h 29.808 v -5.400004 z m -6.768,-4.752 h 43.704 v 14.904004 h -43.704 z m -7.992,18.432004 h 57.024 v 5.616 h -50.4 v 26.28 h -6.624 z m 52.272,0 h 6.84 v 25.2 q 0,2.376 -0.648,3.528 -0.648,1.152 -2.448,1.8 -1.656,0.576 -4.248,0.72 -2.52,0.144 -6.192,0.072 -0.216,-1.152 -0.864,-2.592 -0.648,-1.368 -1.224,-2.448 1.512,0.072 3.096,0.072 1.584,0.072 2.736,0 1.224,0 1.656,0 1.296,0 1.296,-1.152 z m -27.792,-33.696004 6.84,-1.584 q 1.008,2.232 2.016,5.04 1.008,2.736 1.512,4.536 l -7.2,2.016 q -0.432,-1.944 -1.368,-4.752 -0.936,-2.808 -1.8,-5.256 z m -7.272,42.912004 h 27.36 v 15.336 h -27.36 v -4.824 h 21.312 v -5.688 h -21.312 z m -3.672,0 h 6.408 v 18.72 h -6.408 z m 58.68,-31.464004 h 58.608 v 34.920004 h -7.056 V 94.041406 h -44.784 v 28.584004 h -6.768 z m 3.528,24.264004 h 52.056 v 6.696 h -52.056 z m 22.032,-36.936004 h 7.128 v 66.744004 h -7.128 z"
         id="text4-0"
         transform="matrix(0.12803532,0,0,0.12803532,71.901425,6.3069723)"
         aria-label="新店高中" />
      <path
         style="font-size:3.52072px;line-height:1.25;font-family:'AR UDJingXiHeiE1G30 EB';-inkscape-font-specification:'AR UDJingXiHeiE1G30 EB';fill:#ffffff;stroke-width:0.12574"
         d="m 94.284638,25.715743 h 0.517546 l -0.876659,1.228731 0.925949,1.316749 h -0.521066 l -0.665416,-0.982281 -0.665416,0.982281 h -0.506984 l 0.918908,-1.32027 -0.88018,-1.22521 h 0.524587 l 0.612605,0.915387 z m 1.306188,0 v 2.54548 h -0.447132 v -2.54548 z m 1.031568,0.707664 v 1.837816 h -0.447131 v -2.54548 h 0.461214 l 1.249855,1.880064 v -1.880064 h 0.447132 v 2.54548 h -0.48938 z m 4.464266,0.53515 q 0,0.633729 -0.29926,0.968198 -0.29574,0.334468 -0.827366,0.334468 h -1.042133 v -2.54548 h 1.042133 q 0.531626,0 0.827366,0.313344 0.29926,0.313344 0.29926,0.92947 z m -0.46473,0 q 0,-0.461215 -0.19012,-0.675979 -0.1866,-0.218284 -0.545711,-0.218284 h -0.521066 v 1.848378 h 0.524587 q 0.34503,0 0.53867,-0.228847 0.19364,-0.228847 0.19364,-0.725268 z m 1.40124,-1.242814 v 2.54548 h -0.44713 v -2.54548 z m 1.93992,1.51743 -0.40136,-1.087903 -0.40841,1.087903 z m -0.94003,0.348551 -0.2535,0.679499 h -0.45417 l 1.02453,-2.54548 h 0.45769 l 1.01749,2.54548 h -0.46473 l -0.25702,-0.679499 z m 2.53139,-1.158317 v 1.837816 h -0.44713 v -2.54548 h 0.46121 l 1.24986,1.880064 v -1.880064 h 0.44713 v 2.54548 h -0.48938 z m 4.06291,0.686541 q -0.46474,-0.0845 -0.69007,-0.260534 -0.22532,-0.176036 -0.22532,-0.4929 0,-0.295741 0.23941,-0.489381 0.24293,-0.193639 0.74639,-0.193639 0.46121,0 0.71471,0.19716 0.25349,0.197161 0.27813,0.570357 h -0.44713 q -0.004,-0.179557 -0.14083,-0.299261 -0.13731,-0.119705 -0.41896,-0.119705 -0.26406,0 -0.3908,0.08802 -0.12675,0.08802 -0.12323,0.246451 0,0.172515 0.169,0.257012 0.17251,0.0845 0.55979,0.161953 0.48586,0.09858 0.69006,0.267575 0.20772,0.168995 0.20772,0.506984 0,0.323906 -0.27461,0.542191 -0.27462,0.214763 -0.7816,0.214763 -0.51755,0 -0.80625,-0.218284 -0.2887,-0.218285 -0.2887,-0.630209 h 0.44714 q 0,0.228847 0.17251,0.366155 0.17252,0.133787 0.47882,0.133787 0.28166,0 0.44009,-0.109142 0.15843,-0.109142 0.15843,-0.285178 0,-0.204202 -0.15843,-0.29222 -0.15843,-0.08802 -0.55627,-0.161953 z m 3.47143,1.151275 h -1.88359 v -2.54548 h 1.87302 v 0.348551 h -1.42589 v 0.718227 h 1.33083 v 0.348551 h -1.33083 v 0.7816 h 1.43646 z m 0.91891,-1.837816 v 1.837816 h -0.44714 v -2.54548 h 0.46122 l 1.24985,1.880064 v -1.880064 h 0.44714 v 2.54548 h -0.48938 z m 2.74263,-0.707664 v 2.54548 h -0.44713 v -2.54548 z m 3.03134,1.285062 q 0,0.612606 -0.34151,0.961157 -0.33799,0.34503 -0.92595,0.34503 -0.59852,0 -0.93651,-0.348551 -0.33799,-0.348551 -0.33799,-0.957636 0,-0.619646 0.34151,-0.971718 0.34151,-0.355593 0.93299,-0.355593 0.59852,0 0.93299,0.352072 0.33447,0.352072 0.33447,0.975239 z m -1.26746,0.957636 q 0.38376,0 0.59148,-0.253492 0.21125,-0.253492 0.21125,-0.704144 0,-0.447131 -0.21125,-0.711185 -0.21124,-0.267575 -0.59148,-0.267575 -0.38728,0 -0.60204,0.271096 -0.21124,0.267574 -0.21124,0.707664 0,0.450652 0.21476,0.704144 0.21476,0.253492 0.59852,0.253492 z m 3.34821,-1.513909 q 0,-0.186599 -0.0986,-0.281658 -0.0986,-0.09858 -0.28518,-0.09858 h -0.764 v 0.792162 h 0.73935 q 0.18308,0 0.29574,-0.109143 0.11267,-0.109142 0.11267,-0.302781 z m -1.14776,0.756954 v 1.059737 h -0.44713 v -2.54548 h 1.29563 q 0.34855,0 0.55275,0.186598 0.20772,0.183077 0.20772,0.521066 0,0.221806 -0.10562,0.380238 -0.1021,0.158432 -0.25701,0.225326 0.19716,0.112663 0.30278,0.3908 0.10562,0.278137 0.13379,0.841452 h -0.46474 q -0.0211,-0.591481 -0.13027,-0.823848 -0.10562,-0.235889 -0.3415,-0.235889 z m 3.49608,-0.07041 v 1.130151 h -0.44713 v -2.54548 h 0.44713 v 1.066778 h 1.22169 v -1.066778 h 0.44713 v 2.54548 h -0.44713 v -1.130151 z m 2.70039,-1.415329 v 2.54548 H 126.464 v -2.54548 z m 2.45394,2.235657 q -0.13027,0.183077 -0.32743,0.271095 -0.19364,0.0845 -0.44361,0.0845 -0.54923,0 -0.87314,-0.34503 -0.3239,-0.348551 -0.3239,-0.971719 0,-0.626688 0.34151,-0.971719 0.34151,-0.34503 0.92242,-0.34503 0.46826,0 0.76048,0.214764 0.29574,0.211243 0.35559,0.605564 h -0.44713 q -0.0352,-0.207723 -0.20772,-0.337989 -0.169,-0.133788 -0.46122,-0.133788 -0.3908,0 -0.595,0.253492 -0.2042,0.249971 -0.2042,0.714706 0,0.496422 0.21476,0.73231 0.21477,0.232367 0.58444,0.232367 0.32391,0 0.51403,-0.190118 0.19012,-0.190119 0.19012,-0.43657 v -0.05281 h -0.72175 V 26.92687 h 1.15128 v 1.334353 h -0.42953 z m 1.40476,-0.820328 v 1.130151 h -0.44713 v -2.54548 h 0.44713 v 1.066778 h 1.22169 v -1.066778 h 0.44714 v 2.54548 h -0.44714 v -1.130151 z m 4.02066,-0.02112 q -0.46473,-0.0845 -0.69006,-0.260534 -0.22532,-0.176036 -0.22532,-0.4929 0,-0.295741 0.23941,-0.489381 0.24293,-0.193639 0.74639,-0.193639 0.46121,0 0.7147,0.19716 0.2535,0.197161 0.27814,0.570357 h -0.44713 q -0.004,-0.179557 -0.14083,-0.299261 -0.13731,-0.119705 -0.41896,-0.119705 -0.26406,0 -0.3908,0.08802 -0.12675,0.08802 -0.12323,0.246451 0,0.172515 0.16899,0.257012 0.17252,0.0845 0.5598,0.161953 0.48586,0.09858 0.69006,0.267575 0.20772,0.168995 0.20772,0.506984 0,0.323906 -0.27461,0.542191 -0.27462,0.214763 -0.7816,0.214763 -0.51755,0 -0.80625,-0.218284 -0.2887,-0.218285 -0.2887,-0.630209 h 0.44713 q 0,0.228847 0.17252,0.366155 0.17251,0.133787 0.47882,0.133787 0.28166,0 0.44009,-0.109142 0.15843,-0.109142 0.15843,-0.285178 0,-0.204202 -0.15843,-0.29222 -0.15843,-0.08802 -0.55628,-0.161953 z m 3.3975,0.264054 h 0.44713 q -0.0176,0.418965 -0.29222,0.675978 -0.27461,0.257012 -0.79568,0.257012 -0.61613,0 -0.94355,-0.348551 -0.32391,-0.348551 -0.32391,-0.968198 0,-0.612605 0.32391,-0.964677 0.32742,-0.352072 0.93651,-0.352072 0.48938,0 0.76047,0.225326 0.2711,0.221805 0.30983,0.577398 h -0.44713 q -0.0282,-0.204202 -0.1866,-0.327427 -0.15844,-0.126746 -0.44713,-0.126746 -0.3556,0 -0.57036,0.239409 -0.21476,0.239409 -0.21476,0.728789 0,0.496422 0.21476,0.73231 0.21828,0.235888 0.5774,0.235888 0.3063,0 0.47177,-0.158432 0.16548,-0.161953 0.17956,-0.426007 z m 1.33083,-0.24293 v 1.130151 h -0.44713 v -2.54548 h 0.44713 v 1.066778 h 1.22169 v -1.066778 h 0.44713 v 2.54548 h -0.44713 v -1.130151 z m 4.70016,-0.130267 q 0,0.612606 -0.34151,0.961157 -0.33799,0.34503 -0.92595,0.34503 -0.59852,0 -0.93651,-0.348551 -0.33799,-0.348551 -0.33799,-0.957636 0,-0.619646 0.34151,-0.971718 0.34151,-0.355593 0.93299,-0.355593 0.59853,0 0.93299,0.352072 0.33447,0.352072 0.33447,0.975239 z m -1.26746,0.957636 q 0.38376,0 0.59148,-0.253492 0.21125,-0.253492 0.21125,-0.704144 0,-0.447131 -0.21125,-0.711185 -0.21124,-0.267575 -0.59148,-0.267575 -0.38728,0 -0.60204,0.271096 -0.21124,0.267574 -0.21124,0.707664 0,0.450652 0.21476,0.704144 0.21476,0.253492 0.59852,0.253492 z m 4.20022,-0.957636 q 0,0.612606 -0.34151,0.961157 -0.33799,0.34503 -0.92595,0.34503 -0.59852,0 -0.93651,-0.348551 -0.33799,-0.348551 -0.33799,-0.957636 0,-0.619646 0.34151,-0.971718 0.34151,-0.355593 0.93299,-0.355593 0.59852,0 0.93299,0.352072 0.33447,0.352072 0.33447,0.975239 z m -1.26746,0.957636 q 0.38376,0 0.59148,-0.253492 0.21125,-0.253492 0.21125,-0.704144 0,-0.447131 -0.21125,-0.711185 -0.21124,-0.267575 -0.59148,-0.267575 -0.38728,0 -0.60204,0.271096 -0.21124,0.267574 -0.21124,0.707664 0,0.450652 0.21476,0.704144 0.21476,0.253492 0.59852,0.253492 z m 3.54185,0.302782 h -1.78853 v -2.54548 h 0.44713 v 2.196929 h 1.3414 z"
         id="text5-8"
         aria-label="XINDIAN SENIOR HIGH SCHOOL&#10;" />
      <path
         d="m 94.340295,30.621146 h 1.210486 v 0.285584 h -1.210486 z m -1.729729,-0.752903 h 1.444145 v 0.253131 h -1.444145 z m -0.0357,1.288373 h 1.486334 v 0.262866 h -1.486334 z m -0.0097,-0.554942 h 1.525277 v 0.256377 h -1.525277 z m 2.343085,0.142792 h 0.298565 v 1.788144 h -0.298565 z m -1.723238,-1.187769 h 0.298565 v 0.431621 h -0.298565 z m 0,1.272146 h 0.298565 v 1.716748 h -0.298565 z m 1.012524,-1.031996 0.366716,0.107094 q -0.0065,0.03894 -0.07464,0.05193 v 0.980071 q 0,0.184981 -0.01947,0.395923 -0.01623,0.207697 -0.06815,0.428376 -0.05192,0.217433 -0.155773,0.42513 -0.100603,0.204452 -0.266112,0.376451 -0.01947,-0.0357 -0.05841,-0.07789 -0.03894,-0.04219 -0.08438,-0.08113 -0.04219,-0.0357 -0.07789,-0.05192 0.149282,-0.152528 0.236904,-0.327772 0.08762,-0.175245 0.129811,-0.363471 0.04543,-0.188225 0.05841,-0.36996 0.01298,-0.184981 0.01298,-0.35698 z m 1.074184,-0.223923 0.246641,0.223923 q -0.155773,0.0714 -0.353734,0.133056 -0.194717,0.05842 -0.399169,0.107094 -0.204452,0.04543 -0.395923,0.08113 -0.0097,-0.04868 -0.03894,-0.11683 -0.02921,-0.0714 -0.05841,-0.116829 0.181735,-0.03894 0.366716,-0.08762 0.188225,-0.05192 0.353734,-0.107094 0.165509,-0.05841 0.279093,-0.116829 z m -1.81086,1.888747 q 0.0357,0.02272 0.107094,0.08113 0.07464,0.05517 0.155773,0.120075 0.08438,0.0649 0.152527,0.12332 0.0714,0.05517 0.100604,0.08113 l -0.17849,0.223923 q -0.03894,-0.04543 -0.103849,-0.113584 -0.0649,-0.06815 -0.142792,-0.139547 -0.07464,-0.07464 -0.146037,-0.136301 -0.06815,-0.06491 -0.113584,-0.103849 z m -0.671771,-1.285127 0.24015,-0.05517 q 0.04868,0.100604 0.08438,0.220679 0.0357,0.120075 0.04543,0.204452 l -0.253131,0.0714 q -0.0065,-0.09087 -0.03894,-0.214188 -0.03245,-0.12332 -0.07789,-0.227169 z m 0.824298,-0.06166 0.272603,0.05842 q -0.04543,0.116829 -0.09087,0.233659 -0.04543,0.113585 -0.08438,0.197962 l -0.246641,-0.05517 q 0.02596,-0.06166 0.05192,-0.136301 0.02921,-0.07789 0.05517,-0.155773 0.02596,-0.07789 0.04219,-0.142792 z m -0.42513,1.187769 0.217433,0.08113 q -0.07789,0.17849 -0.194716,0.35698 -0.11683,0.17849 -0.249886,0.331018 -0.133056,0.152527 -0.262867,0.256376 -0.03245,-0.05192 -0.09411,-0.11683 -0.05842,-0.06491 -0.107094,-0.103848 0.12981,-0.08438 0.259621,-0.214188 0.133056,-0.129811 0.243395,-0.282339 0.113585,-0.155773 0.188226,-0.3083 z m 4.309719,-0.65879 h 1.226712 v 0.272603 h -1.226712 z m -0.733431,1.512296 h 1.590182 v 0.272602 h -1.590182 z m 0.587394,-1.862785 h 0.311545 v 1.194259 h -0.311545 z m -0.749658,1.041731 h 1.917955 v 1.210486 h -0.314791 v -0.937883 h -1.301354 v 0.944374 h -0.30181 z m 0.626337,-1.797879 h 0.318037 v 0.571167 h -0.318037 z m -1.031996,0.402413 h 2.5735 v 0.292075 h -2.5735 z m -0.152527,0 h 0.3083 v 0.830789 q 0,0.191471 -0.01298,0.421885 -0.01298,0.230415 -0.04868,0.470565 -0.03245,0.24015 -0.100603,0.470564 -0.06491,0.227169 -0.171999,0.415394 -0.02596,-0.02596 -0.07464,-0.06166 -0.04868,-0.0357 -0.100603,-0.06815 -0.05192,-0.02921 -0.08762,-0.04543 0.100603,-0.175245 0.159018,-0.379697 0.05842,-0.204452 0.08438,-0.41864 0.02921,-0.217433 0.0357,-0.421885 0.0097,-0.207697 0.0097,-0.382942 z m 3.07327,-0.110339 h 2.833118 v 0.262867 h -2.833118 z m 1.242938,-0.295319 h 0.31479 v 0.42513 h -0.31479 z m -1.103391,1.580446 h 2.395011 v 0.259622 h -2.096446 v 1.178033 h -0.298565 z m 2.274931,0 h 0.30506 v 1.090411 q 0,0.116829 -0.0292,0.18498 -0.0292,0.06815 -0.11358,0.103849 -0.0844,0.0357 -0.21744,0.04219 -0.13305,0.0097 -0.32452,0.0097 -0.01,-0.06491 -0.0389,-0.149282 -0.0292,-0.08113 -0.0584,-0.139547 0.13955,0.0032 0.25313,0.0032 0.11683,0 0.15577,-0.0032 0.0389,0 0.0519,-0.01298 0.0162,-0.01298 0.0162,-0.04219 z m -1.616141,0.441357 h 0.266111 v 0.863242 h -0.266111 z m 0.139551,0 h 1.10014 v 0.707469 h -1.10014 v -0.214188 h 0.82754 v -0.279093 h -0.82754 z m -0.107098,-1.093656 v 0.262867 h 1.161808 v -0.262867 z m -0.29532,-0.210943 h 1.765428 v 0.691243 h -1.765428 z m 3.809948,-0.24664 h 1.79139 v 0.282338 h -1.79139 z m 0.73668,-0.467319 h 0.30181 v 0.597129 h -0.30181 z m -0.33102,0.817808 0.27909,0.113584 q -0.10385,0.204452 -0.25313,0.402414 -0.14604,0.194716 -0.3083,0.334263 -0.0357,-0.04219 -0.1006,-0.09736 -0.0617,-0.05841 -0.11034,-0.09411 0.14928,-0.123321 0.28234,-0.305056 0.13305,-0.181735 0.21094,-0.353734 z m 0.67501,0.12332 0.24015,-0.133056 q 0.10061,0.103849 0.20446,0.227169 0.10384,0.120075 0.18822,0.24015 0.0876,0.120075 0.1363,0.220678 l -0.25962,0.149283 q -0.0454,-0.100604 -0.12656,-0.220679 -0.0811,-0.12332 -0.18174,-0.249885 -0.1006,-0.126566 -0.20121,-0.23366 z m -0.5095,0.477055 q 0.11034,0.30181 0.29207,0.564677 0.18498,0.259621 0.43487,0.457583 0.24988,0.197961 0.55818,0.3083 -0.0357,0.02921 -0.0779,0.07789 -0.0389,0.04868 -0.0779,0.100603 -0.0357,0.05193 -0.0617,0.09411 -0.31804,-0.136301 -0.57441,-0.360225 -0.25313,-0.223923 -0.4446,-0.519243 -0.18823,-0.298565 -0.3148,-0.649054 z m 0.57116,-0.01947 0.31155,0.06166 q -0.11034,0.350489 -0.29856,0.6523 -0.18823,0.30181 -0.46732,0.532224 -0.2791,0.230414 -0.66853,0.376451 -0.0162,-0.0357 -0.0454,-0.08113 -0.026,-0.04219 -0.0584,-0.08762 -0.0292,-0.04219 -0.0552,-0.07464 0.35698,-0.126566 0.61336,-0.331018 0.25962,-0.207697 0.42513,-0.473809 0.16551,-0.269357 0.24339,-0.574413 z m -2.28791,-0.713959 h 1.11313 v 0.285584 h -1.11313 z m 0.44785,-0.684752 h 0.28558 v 3.008365 h -0.28558 z m -0.006,0.872977 0.18498,0.06166 q -0.0389,0.194716 -0.0974,0.405658 -0.0552,0.207698 -0.12657,0.408904 -0.0714,0.197962 -0.15253,0.373206 -0.0811,0.172 -0.17199,0.29532 -0.0227,-0.06166 -0.0682,-0.139547 -0.0422,-0.08113 -0.0811,-0.136301 0.0844,-0.107094 0.15902,-0.253131 0.0779,-0.149282 0.14604,-0.321282 0.0681,-0.171999 0.12007,-0.347244 0.0552,-0.17849 0.0876,-0.347244 z m 0.27909,0.288829 q 0.0292,0.0357 0.0876,0.120075 0.0617,0.08438 0.13306,0.188226 0.0714,0.100603 0.12981,0.188226 0.0584,0.08438 0.0811,0.12332 l -0.172,0.230414 q -0.0292,-0.06815 -0.0811,-0.165509 -0.0519,-0.09736 -0.11359,-0.204452 -0.0584,-0.107094 -0.11358,-0.197961 -0.0552,-0.09411 -0.0909,-0.149282 z"
         id="text5-9-1"
         style="font-weight:500;font-size:3.24527px;line-height:1.25;font-family:'Noto Sans JP';-inkscape-font-specification:'Noto Sans JP Medium';fill:#f9f9f9;stroke-width:0.115903"
         aria-label="新店高校 " />
      <path
         style="font-weight:500;font-size:3.24527px;line-height:1.25;font-family:'Noto Sans kr';-inkscape-font-specification:'Noto Sans kr Medium';fill:#f9f9f9;stroke-width:0.115903"
         d="m 110.65495,29.661491 h 0.34075 v 2.167841 h -0.34075 z m -1.59343,2.628669 h 2.01856 v 0.275848 h -2.01856 z m 0,-0.662035 h 0.33751 v 0.798336 h -0.33751 z m 0.22717,-1.80437 h 0.28234 v 0.295319 q 0,0.292075 -0.0974,0.551696 -0.0974,0.256377 -0.28234,0.451093 -0.18498,0.194716 -0.45109,0.295319 L 108.565,31.147825 q 0.23366,-0.08762 0.39592,-0.246641 0.16226,-0.162263 0.24339,-0.36347 0.0844,-0.204452 0.0844,-0.41864 z m 0.0682,0 h 0.27585 v 0.295319 q 0,0.159019 0.0454,0.308301 0.0487,0.146037 0.13955,0.275848 0.0941,0.129811 0.22717,0.230414 0.13306,0.100604 0.30505,0.159018 l -0.17524,0.272603 q -0.25962,-0.09736 -0.4446,-0.279093 -0.18498,-0.184981 -0.27909,-0.431621 -0.0941,-0.249886 -0.0941,-0.53547 z m 2.31388,1.37924 h 0.18174 q 0.18173,0 0.3375,-0.0032 0.15578,-0.0065 0.3083,-0.02272 0.15578,-0.01623 0.32129,-0.04868 l 0.0292,0.269358 q -0.172,0.03245 -0.33101,0.05192 -0.15578,0.01623 -0.31804,0.02272 -0.15902,0.0032 -0.34724,0.0032 h -0.18174 z m 0,-1.304599 h 1.02875 v 0.269357 h -0.69449 v 1.135845 h -0.33426 z m 2.06724,-0.236905 h 0.32452 v 2.197048 h -0.32452 z m -1.04823,0.590639 h 0.71396 v 0.269358 h -0.71396 z m 0.46408,-0.532224 h 0.32128 v 2.067237 h -0.32128 z m -0.46408,1.07743 h 0.71721 v 0.269357 h -0.71721 z m -0.58739,1.489579 h 2.04452 v 0.279093 h -2.04452 z m 0,-0.60362 h 0.34075 v 0.811317 h -0.34075 z m 2.70007,-1.745956 h 1.89523 v 0.275848 h -1.89523 z m -0.2791,2.021803 h 2.6806 v 0.279094 h -2.6806 z m 0.99955,-1.041731 h 0.34075 v 1.178033 h -0.34075 z m 1.05146,-0.980072 h 0.33751 v 0.288829 q 0,0.184981 -0.003,0.389433 -0.003,0.204452 -0.026,0.451092 -0.0227,0.246641 -0.0811,0.554941 l -0.34075,-0.03894 q 0.0844,-0.434866 0.0974,-0.762638 0.0162,-0.327773 0.0162,-0.593885 z m 0.93789,1.109883 h 2.68059 v 0.279093 h -2.68059 z m 0.33101,-0.519244 h 2.03803 v 0.272603 h -2.03803 z m 0,-0.765883 h 2.02181 v 0.275848 h -1.6843 v 0.619846 h -0.33751 z m 0.99955,1.781653 q 0.4803,0 0.74965,0.142792 0.27261,0.139546 0.27261,0.399168 0,0.256376 -0.27261,0.395923 -0.26935,0.139547 -0.74965,0.139547 -0.47381,0 -0.74642,-0.139547 -0.2726,-0.139547 -0.2726,-0.395923 0,-0.259622 0.2726,-0.399168 0.27261,-0.142792 0.74642,-0.142792 z m 0,0.262867 q -0.21419,0 -0.36672,0.03245 -0.15253,0.03245 -0.23366,0.09411 -0.0779,0.05842 -0.0779,0.152528 0,0.09087 0.0779,0.152528 0.0811,0.06166 0.23366,0.09411 0.15253,0.02921 0.36672,0.02921 0.22068,0 0.36996,-0.02921 0.15253,-0.03245 0.23041,-0.09411 0.0779,-0.06166 0.0779,-0.152528 0,-0.09411 -0.0779,-0.152528 -0.0779,-0.06166 -0.23041,-0.09411 -0.14928,-0.03245 -0.36996,-0.03245 z m 1.65509,-1.856295 h 1.7492 v 0.269358 h -1.7492 z m 0.87622,0.395923 q 0.21094,0 0.3732,0.06815 0.16227,0.06815 0.25314,0.191471 0.0909,0.120075 0.0909,0.282338 0,0.162264 -0.0909,0.285584 -0.0909,0.120075 -0.25314,0.188226 -0.16226,0.0649 -0.3732,0.0649 -0.21419,0 -0.37645,-0.0649 -0.16227,-0.06815 -0.25313,-0.188226 -0.0909,-0.12332 -0.0909,-0.285584 0,-0.162263 0.0909,-0.282338 0.0909,-0.12332 0.25313,-0.191471 0.16226,-0.06815 0.37645,-0.06815 z m 0,0.262867 q -0.17849,0 -0.28883,0.07464 -0.10709,0.0714 -0.10709,0.204452 0,0.129811 0.10709,0.204452 0.11034,0.07464 0.28883,0.07464 0.17524,0 0.28234,-0.07464 0.10709,-0.07464 0.10709,-0.204452 0,-0.133056 -0.10709,-0.204452 -0.1071,-0.07464 -0.28234,-0.07464 z m 1.0969,-0.947619 h 0.33751 v 1.856295 h -0.33751 z m 0.24664,0.791846 h 0.50951 v 0.282339 h -0.50951 z m -1.85629,1.207241 h 1.94716 v 0.96709 h -0.33751 V 31.93318 h -1.60965 z m 0.34075,-2.015313 h 0.34075 v 0.457583 h -0.34075 z m 2.54754,0.292074 h 1.89523 v 0.275848 h -1.89523 z m -0.26936,2.021803 h 2.68059 v 0.279094 h -2.68059 z m 0.6166,-0.960599 h 0.33426 v 1.054712 h -0.33426 z m 1.44415,-1.061204 h 0.3375 v 0.308301 q 0,0.18498 -0.003,0.386187 -0.003,0.201207 -0.026,0.434866 -0.0195,0.23366 -0.0714,0.522489 l -0.33751,-0.0357 q 0.0746,-0.408904 0.0876,-0.72045 0.013,-0.314791 0.013,-0.587394 z m -0.71072,1.061204 h 0.33426 v 1.054712 h -0.33426 z"
         id="text5-9-1-0"
         aria-label="신뎬고등학교" />
      <path
         id="rect2"
         style="fill:#ffffff;stroke-width:0.757875"
         d="m 88.126038,15.794056 h 1.050099 v 16.764515 h -1.050099 z" />
    </g>
    <text
       xml:space="preserve"
       transform="matrix(0.31615295,0,0,0.31615295,0.2809891,-6.4462013)"
       id="text6"
       style="font-size:55px;line-height:1.25;font-family:'Microsoft JhengHei';-inkscape-font-specification:'Microsoft JhengHei';white-space:pre;shape-inside:url(#rect6);display:inline" />
  </g>
</svg>
