<?xml version="1.0" encoding="UTF-8" standalone="no"?>
<!-- Created with Inkscape (http://www.inkscape.org/) -->

<svg
   width="500"
   height="250"
   viewBox="0 0 132.29166 66.145833"
   version="1.1"
   id="svg1"
   inkscape:version="1.1 (c68e22c387, 2021-05-23)"
   sodipodi:docname="g03a.svg"
   xmlns:inkscape="http://www.inkscape.org/namespaces/inkscape"
   xmlns:sodipodi="http://sodipodi.sourceforge.net/DTD/sodipodi-0.dtd"
   xmlns="http://www.w3.org/2000/svg"
   xmlns:svg="http://www.w3.org/2000/svg">
  <sodipodi:namedview
     id="namedview1"
     pagecolor="#9e652e"
     bordercolor="#ffffff"
     borderopacity="1"
     inkscape:showpageshadow="0"
     inkscape:pageopacity="0"
     inkscape:pagecheckerboard="false"
     inkscape:deskcolor="#d1d1d1"
     inkscape:document-units="mm"
     inkscape:zoom="2.8578563"
     inkscape:cx="117.92055"
     inkscape:cy="115.82108"
     inkscape:window-width="1920"
     inkscape:window-height="1094"
     inkscape:window-x="-11"
     inkscape:window-y="-11"
     inkscape:window-maximized="1"
     inkscape:current-layer="g4897"
     inkscape:pageshadow="0"
     showgrid="false" />
  <defs
     id="defs1">
    <rect
       x="58.435408"
       y="200.49993"
       width="135.06627"
       height="54.236456"
       id="rect1881" />
    <rect
       x="560.66638"
       y="34.144731"
       width="279.32397"
       height="128.59143"
       id="rect6" />
    <rect
       x="157.85752"
       y="62.351248"
       width="381.61437"
       height="132.30098"
       id="rect4" />
    <rect
       x="157.85751"
       y="62.35125"
       width="329.07602"
       height="135.09438"
       id="rect4-5" />
    <rect
       x="157.85751"
       y="62.35125"
       width="329.07602"
       height="135.09438"
       id="rect4-5-8" />
  </defs>
  <g
     inkscape:label="Layer 1"
     inkscape:groupmode="layer"
     id="layer1">
    <path
       id="rect5"
       style="fill:#007846;stroke-width:0.953294"
       d="M -2.5431316e-6,-1.2715658e-6 H 132.29167 V 66.145835 H -2.5431316e-6 Z" />
    <g
       id="g4897">
      <path
         id="rect1"
         style="fill-opacity:0;stroke:#f9f9f9;stroke-width:0.762695"
         d="M 9.1189381,17.928765 H 19.170611 c 3.176901,0 5.73448,2.557578 5.73448,5.734481 v 18.819341 c 0,3.176903 -2.557579,5.734482 -5.73448,5.734482 H 9.1189381 c -3.176902,0 -5.7344803,-2.557579 -5.7344803,-5.734482 V 23.663246 c 0,-3.176903 2.5575783,-5.734481 5.7344803,-5.734481 z" />
      <path
         style="font-size:14.4826px;line-height:1.25;font-family:'AR UDJingXiHeiE1G30 EB';-inkscape-font-specification:'AR UDJingXiHeiE1G30 EB';fill:#f9f9f9;stroke-width:0.244086"
         d="m 16.532473,30.111875 q -0.433495,0.609236 -1.089596,0.902139 -0.644385,0.281186 -1.476228,0.281186 -1.827709,0 -2.905589,-1.148177 -1.0778813,-1.159893 -1.0778813,-3.233641 0,-2.085464 1.1364613,-3.233641 1.136461,-1.148177 3.069615,-1.148177 1.558241,0 2.530675,0.714682 0.984152,0.702965 1.183326,2.015167 h -1.487943 q -0.117161,-0.691249 -0.69125,-1.124744 -0.562372,-0.445212 -1.534808,-0.445212 -1.300486,0 -1.980019,0.843559 -0.679533,0.831842 -0.679533,2.378366 0,1.651969 0.714681,2.436947 0.714682,0.773262 1.944871,0.773262 1.077881,0 1.710549,-0.632669 0.632669,-0.632669 0.632669,-1.452795 v -0.175741 h -2.401798 v -1.159894 h 3.831161 v 4.440399 h -1.429363 z"
         id="text2"
         aria-label="G" />
      <path
         style="font-weight:500;font-size:72px;line-height:1.25;font-family:'Noto Sans TC';-inkscape-font-specification:'Noto Sans TC Medium';white-space:pre;fill:#f9f9f9;stroke-width:0.211683"
         d="m 34.826042,19.051029 h 1.569842 v 12.040535 q 0,0.731577 -0.198135,1.082124 -0.182894,0.350547 -0.655371,0.533441 -0.457236,0.167653 -1.219295,0.213377 -0.762059,0.06096 -1.844183,0.06096 -0.04572,-0.213377 -0.152412,-0.487718 -0.09145,-0.2591 -0.213376,-0.533442 -0.106688,-0.274341 -0.228618,-0.487718 0.548683,0.03048 1.051642,0.04572 0.5182,0 0.899229,0 0.396271,-0.01524 0.563924,-0.01524 0.228618,-0.01524 0.320065,-0.09145 0.106688,-0.09145 0.106688,-0.320065 z m 3.673125,3.932225 1.402189,-0.5182 q 0.655371,1.066883 1.249777,2.301419 0.609647,1.219295 1.066883,2.392866 0.472476,1.173571 0.655371,2.103283 l -1.569842,0.624888 q -0.167653,-0.91447 -0.594406,-2.103283 -0.411512,-1.188812 -0.990677,-2.438589 -0.579165,-1.265019 -1.219295,-2.362384 z m -7.666314,-0.396271 1.630806,0.274341 q -0.243859,1.127848 -0.624888,2.377626 -0.38103,1.249777 -0.89923,2.392865 -0.5182,1.127848 -1.188812,1.981354 -0.167653,-0.121929 -0.426754,-0.2591 -0.243858,-0.152412 -0.502959,-0.274341 -0.2591,-0.137171 -0.457235,-0.228618 0.655371,-0.792541 1.143089,-1.859424 0.487717,-1.082124 0.823023,-2.240454 0.335307,-1.158331 0.50296,-2.164249 z M 44.260334,19.58447 h 5.867856 v 1.112607 h -5.867856 z m -0.2591,6.919498 H 57.61161 v 1.143089 H 44.001234 Z m 0.426753,-4.572356 h 5.41062 v 1.112607 h -5.41062 z m 3.170166,9.434293 h 7.696797 v 1.112606 h -7.696797 z m -3.61216,-6.70612 q 0.792541,-0.06096 1.813701,-0.137171 1.021159,-0.07621 2.164248,-0.167653 1.158329,-0.106688 2.316659,-0.198136 v 1.112607 q -1.67653,0.167653 -3.322577,0.320065 -1.630807,0.137171 -2.880584,0.2591 z m 2.530036,-4.648562 h 1.371707 v 4.785733 l -1.371707,0.167653 z m 6.858532,-1.173571 1.569842,0.167653 q -0.198135,0.472477 -0.396271,0.914471 -0.198135,0.441995 -0.365788,0.777301 l -1.249777,-0.198136 q 0.12193,-0.396271 0.243859,-0.853506 0.137171,-0.457235 0.198135,-0.807783 z m -1.204053,4.450426 v 1.265019 h 3.47499 v -1.265019 z m 0,-2.301419 v 1.249777 h 3.47499 v -1.249777 z m -1.310742,-1.112606 h 6.172679 v 5.79165 h -6.172679 z m -2.606242,6.82805 1.310742,0.441995 q -0.563924,0.975435 -1.386948,1.828942 -0.823024,0.853506 -1.783218,1.539359 -0.944953,0.685853 -1.93563,1.204053 -0.07621,-0.152411 -0.243859,-0.365788 -0.152412,-0.228618 -0.335306,-0.441994 -0.167653,-0.228618 -0.320065,-0.350548 0.960194,-0.411511 1.859424,-0.990676 0.89923,-0.594406 1.630807,-1.310742 0.746818,-0.716336 1.204053,-1.554601 z M 46.6532,28.805387 h 9.617186 v 4.115119 h -1.524118 v -3.002513 h -6.629915 v 3.078719 H 46.6532 Z m 16.064206,1.2955 h 10.272557 v 1.082124 H 62.717406 Z m 0.274342,-10.607864 h 9.952492 v 1.082124 h -9.952492 z m 4.160842,9.358087 h 1.41743 v 4.130361 h -1.41743 z m -1.143088,-8.74844 h 1.188812 v 3.962708 h -1.188812 z m 2.514795,0 h 1.204053 v 3.962708 h -1.204053 z m -3.337819,7.605351 v 0.762059 h 5.532549 v -0.762059 z m 0,-1.600324 v 0.731577 h 5.532549 v -0.731577 z m -1.295501,-0.89923 h 8.184515 v 4.160843 h -8.184515 z m 0.823024,-2.880584 v 1.295501 h 6.416538 v -1.295501 z m -1.280259,-0.960194 h 9.053262 v 3.21589 h -9.053262 z m -3.73409,-1.265019 0.838265,-1.021159 q 0.396271,0.182894 0.853506,0.457236 0.472477,0.274341 0.89923,0.548682 0.441994,0.2591 0.731577,0.472477 l -0.883989,1.143089 q -0.2591,-0.228618 -0.685853,-0.518201 -0.411512,-0.289582 -0.868747,-0.563923 -0.457236,-0.289583 -0.883989,-0.518201 z m -0.762059,4.130362 0.807783,-1.051643 q 0.426753,0.213377 0.929712,0.487718 0.502959,0.2591 0.960194,0.548684 0.472477,0.274341 0.777301,0.502959 l -0.823024,1.173571 Q 61.315217,25.650462 60.842741,25.360879 60.385505,25.056056 59.882546,24.766473 59.394828,24.46165 58.937593,24.233032 Z m 0.441994,7.513903 q 0.335306,-0.579165 0.746818,-1.371707 0.426753,-0.807782 0.853506,-1.691771 0.441995,-0.89923 0.792542,-1.767977 l 1.143089,0.914471 q -0.335306,0.792541 -0.716336,1.646048 -0.365788,0.838265 -0.762059,1.661288 -0.396271,0.807783 -0.7773,1.53936 z"
         id="text4"
         aria-label="小碧潭" />
      <path
         style="font-size:7.32669px;line-height:1.25;font-family:'AR UDJingXiHeiE1G30 EB';-inkscape-font-specification:'AR UDJingXiHeiE1G30 EB';fill:#f9f9f9;stroke-width:0.211683"
         d="m 31.446725,35.108549 h 0.871287 l -1.475853,2.068566 1.558833,2.216744 h -0.877214 l -1.120226,-1.653668 -1.120227,1.653668 H 28.42982 l 1.546979,-2.222671 -1.481781,-2.062639 h 0.883141 l 1.03132,1.541052 z m 2.198964,0 v 4.28531 h -0.752745 v -4.28531 z m 3.265841,2.55459 -0.675692,-1.831481 -0.687547,1.831481 z m -1.582542,0.586785 -0.426753,1.143935 h -0.764599 l 1.724793,-4.28531 h 0.770526 l 1.712939,4.28531 h -0.78238 l -0.432681,-1.143935 z m 7.628202,-0.977975 q 0,1.031319 -0.574931,1.618104 -0.569003,0.580859 -1.558833,0.580859 -1.007611,0 -1.576615,-0.586786 -0.569004,-0.586785 -0.569004,-1.612177 0,-1.043174 0.574931,-1.635887 0.574931,-0.598639 1.570688,-0.598639 1.007611,0 1.570688,0.592712 0.563076,0.592712 0.563076,1.641814 z m -2.133764,1.612177 q 0.646057,0 0.995757,-0.426752 0.355627,-0.426753 0.355627,-1.185425 0,-0.752745 -0.355627,-1.19728 -0.355628,-0.450461 -0.995757,-0.450461 -0.651983,0 -1.013538,0.456389 -0.355628,0.450461 -0.355628,1.191352 0,0.758672 0.361555,1.185425 0.361555,0.426752 1.007611,0.426752 z m 5.204016,0.509733 h -2.252307 v -4.28531 h 2.062639 q 0.610493,0 0.966121,0.296356 0.355627,0.296356 0.355627,0.788307 0,0.320065 -0.142251,0.563077 -0.136324,0.237085 -0.414898,0.39119 0.361554,0.142251 0.545296,0.39119 0.189667,0.24894 0.189667,0.592713 0,0.569003 -0.373409,0.918704 -0.373408,0.343773 -0.936485,0.343773 z m 0.3497,-3.105813 q 0,-0.290429 -0.16596,-0.438607 -0.165959,-0.154105 -0.480096,-0.154105 h -1.203207 v 1.209133 h 1.244696 q 0.266721,0 0.432681,-0.154105 0.171886,-0.160033 0.171886,-0.462316 z m 0.177813,1.837408 q 0,-0.30821 -0.189668,-0.468242 -0.18374,-0.16596 -0.486023,-0.16596 h -1.351385 v 1.315821 h 1.33953 q 0.314138,0 0.497878,-0.171886 0.189668,-0.171887 0.189668,-0.509733 z m 2.287875,-3.016905 v 4.28531 h -0.752745 v -4.28531 z m 1.896674,0.586785 h -1.333603 v -0.586785 h 3.414023 v 0.586785 h -1.327675 v 3.698525 h -0.752745 z m 4.931366,1.967805 -0.675693,-1.831481 -0.687546,1.831481 z m -1.582543,0.586785 -0.426752,1.143935 h -0.764599 l 1.724793,-4.28531 h 0.770525 l 1.712939,4.28531 h -0.78238 l -0.43268,-1.143935 z M 58.349926,36.2999 v 3.093959 h -0.752745 v -4.28531 h 0.776454 l 2.104129,3.165083 v -3.165083 h 0.752744 v 4.28531 h -0.82387 z"
         id="text5"
         aria-label="XIAOBITAN" />
      <path
         d="m 31.004131,41.518399 h 0.610493 v 4.682427 q 0,0.284502 -0.07705,0.420826 -0.07113,0.136324 -0.254865,0.207449 -0.177814,0.0652 -0.47417,0.08298 -0.296357,0.02371 -0.717182,0.02371 -0.01778,-0.08298 -0.05927,-0.189668 -0.03556,-0.100761 -0.08298,-0.20745 -0.04149,-0.106688 -0.08891,-0.189668 0.213377,0.01185 0.408972,0.01778 0.201522,0 0.349701,0 0.154104,-0.0059 0.219303,-0.0059 0.08891,-0.0059 0.12447,-0.03556 0.04149,-0.03556 0.04149,-0.12447 z m 1.428437,1.529197 0.545295,-0.201522 q 0.254867,0.414899 0.486025,0.894996 0.237084,0.47417 0.414898,0.930558 0.183741,0.456389 0.254867,0.817943 l -0.610494,0.243013 q -0.0652,-0.355628 -0.231158,-0.817944 -0.160033,-0.462316 -0.385263,-0.948339 -0.225231,-0.491951 -0.47417,-0.918705 z m -2.981343,-0.154105 0.634202,0.106688 q -0.09483,0.438607 -0.243012,0.924632 -0.148178,0.486024 -0.349701,0.930558 -0.201522,0.438607 -0.462315,0.770526 -0.06519,-0.04741 -0.16596,-0.100761 -0.09483,-0.05927 -0.195595,-0.106688 -0.10076,-0.05334 -0.177813,-0.08891 0.254866,-0.30821 0.444534,-0.723109 0.189668,-0.420826 0.320065,-0.871287 0.130396,-0.450461 0.195595,-0.841652 z m 5.221796,-1.167643 h 2.281942 v 0.432679 h -2.281942 z m -0.100761,2.690914 h 5.292921 v 0.444534 H 34.57226 Z m 0.165959,-1.778137 h 2.104129 v 0.43268 h -2.104129 z m 1.232842,3.66889 h 2.993197 v 0.432679 H 35.971061 Z M 34.566332,43.69958 q 0.308211,-0.02371 0.705328,-0.05334 0.397118,-0.02963 0.841651,-0.0652 0.450462,-0.04149 0.900923,-0.07706 v 0.432679 q -0.651983,0.0652 -1.292112,0.12447 -0.634203,0.05334 -1.120227,0.100762 z m 0.983903,-1.807773 h 0.533441 v 1.861117 l -0.533441,0.0652 z m 2.667205,-0.456388 0.610494,0.06519 q -0.07706,0.183741 -0.154105,0.355627 -0.07705,0.171887 -0.142251,0.302283 l -0.486024,-0.07706 q 0.04741,-0.154105 0.09483,-0.331918 0.05334,-0.177814 0.07706,-0.314138 z m -0.468242,1.73072 v 0.491951 h 1.351384 v -0.491951 z m 0,-0.894996 v 0.486024 h 1.351384 v -0.486024 z m -0.509733,-0.43268 h 2.400485 v 2.252307 h -2.400485 z m -1.013538,2.655351 0.509733,0.171887 q -0.219304,0.379336 -0.539368,0.711255 -0.320065,0.331919 -0.693474,0.59864 -0.367482,0.26672 -0.752744,0.468242 -0.02963,-0.05927 -0.09483,-0.142251 -0.05927,-0.08891 -0.130398,-0.171886 -0.0652,-0.08891 -0.124469,-0.136324 0.373409,-0.160033 0.723109,-0.385263 0.349701,-0.231158 0.634202,-0.509733 0.29043,-0.278575 0.468243,-0.604567 z m -0.622348,0.817944 h 3.740015 v 1.600323 h -0.592713 v -1.167643 h -2.578298 v 1.197278 h -0.569004 z m 6.247188,0.503805 h 3.994882 v 0.420826 h -3.994882 z m 0.106689,-4.125278 h 3.870412 v 0.420826 h -3.870412 z m 1.618104,3.639254 h 0.551223 V 46.93579 H 43.57556 Z M 43.131027,41.92737 h 0.462315 v 1.541052 h -0.462315 z m 0.977974,0 h 0.468243 v 1.541052 h -0.468243 z m -1.29804,2.957635 v 0.296356 h 2.151547 v -0.296356 z m 0,-0.622349 v 0.284503 h 2.151547 v -0.284503 z m -0.503805,-0.349699 h 3.182865 v 1.618104 h -3.182865 z m 0.320065,-1.120227 v 0.503806 h 2.495318 V 42.79273 Z m -0.497879,-0.373409 h 3.520712 v 1.250623 h -3.520712 z m -1.452145,-0.491951 0.325992,-0.397118 q 0.154105,0.07113 0.331918,0.177814 0.183742,0.106688 0.349701,0.213377 0.171887,0.100761 0.284502,0.183741 l -0.343773,0.444534 Q 41.524775,42.460811 41.358816,42.348195 41.198784,42.23558 41.02097,42.128892 40.843156,42.016277 40.677197,41.92737 Z m -0.296356,1.606251 0.314138,-0.408972 q 0.165959,0.08298 0.361554,0.189668 0.195595,0.100761 0.373408,0.213377 0.183742,0.106687 0.302284,0.195595 l -0.320065,0.456388 q -0.106688,-0.09483 -0.290428,-0.207449 -0.177814,-0.118543 -0.37341,-0.231158 -0.189667,-0.118543 -0.367481,-0.207449 z m 0.171886,2.922072 q 0.130397,-0.225231 0.290429,-0.533441 0.16596,-0.314138 0.33192,-0.657911 0.171886,-0.349701 0.30821,-0.687547 l 0.444534,0.355627 q -0.130397,0.308211 -0.278575,0.64013 -0.142251,0.325992 -0.296356,0.646056 -0.154105,0.314138 -0.302283,0.59864 z"
         id="text5-9"
         style="font-weight:500;font-size:7.32669px;line-height:1.25;font-family:'Noto Sans JP';-inkscape-font-specification:'Noto Sans JP Medium';fill:#f9f9f9;stroke-width:0.211683"
         aria-label="小碧潭" />
      <path
         style="font-weight:500;font-size:7.32669px;line-height:1.25;font-family:'Noto Sans KR';-inkscape-font-specification:'Noto Sans KR Medium';fill:#f9f9f9;stroke-width:0.211683"
         d="m 55.697434,42.898573 h 0.977975 v 0.51566 h -0.977975 z m 0,1.594397 h 0.977975 v 0.515659 h -0.977975 z m -2.750185,-2.465684 h 0.503806 v 0.889068 q 0,0.468244 -0.100762,0.924632 -0.100761,0.450461 -0.296356,0.847579 -0.189668,0.39119 -0.462315,0.6994 -0.272648,0.308211 -0.616421,0.491951 l -0.403045,-0.497878 q 0.314137,-0.154105 0.569004,-0.414899 0.254866,-0.26672 0.43268,-0.598639 0.183741,-0.337846 0.278575,-0.705328 0.09483,-0.373408 0.09483,-0.746818 z m 0.112615,0 h 0.503806 v 0.889068 q 0,0.367482 0.08891,0.729037 0.08891,0.355628 0.260794,0.669765 0.177813,0.314138 0.420825,0.563077 0.243013,0.243012 0.545296,0.385263 l -0.373408,0.497878 q -0.343774,-0.171886 -0.610495,-0.462315 -0.26672,-0.296357 -0.456388,-0.669765 -0.183741,-0.37341 -0.284502,-0.812017 -0.09483,-0.438607 -0.09483,-0.900923 z m 2.181182,-0.444534 h 0.622348 v 5.417391 h -0.622348 z m 4.012663,3.052469 h 0.622348 v 1.29804 h -0.622348 z m 0.314138,-2.732405 q 0.574931,0 1.019464,0.177814 0.450462,0.177814 0.711255,0.503806 0.260794,0.325992 0.260794,0.764599 0,0.444534 -0.260794,0.770525 -0.260793,0.325992 -0.711255,0.509734 -0.444533,0.177814 -1.019464,0.177814 -0.574931,0 -1.025393,-0.177814 -0.450461,-0.183742 -0.711255,-0.509734 -0.260793,-0.325991 -0.260793,-0.770525 0,-0.438607 0.260793,-0.764599 0.260794,-0.325992 0.711255,-0.503806 0.450462,-0.177814 1.025393,-0.177814 z m 0,0.491952 q -0.408972,0 -0.723109,0.118542 -0.308211,0.112616 -0.486025,0.325992 -0.177814,0.213376 -0.177814,0.509733 0,0.296356 0.177814,0.51566 0.177814,0.213376 0.486025,0.331918 0.314137,0.112616 0.723109,0.112616 0.403044,0 0.717181,-0.112616 0.314138,-0.118542 0.491952,-0.331918 0.177813,-0.219304 0.177813,-0.51566 0,-0.296357 -0.177813,-0.509733 -0.177814,-0.213376 -0.491952,-0.325992 -0.314137,-0.118542 -0.717181,-0.118542 z m -2.447902,3.425878 h 4.907658 v 0.509732 h -4.907658 z m 9.287803,-4.243822 h 0.622348 v 5.429246 h -0.622348 z m -3.54442,0.444535 h 0.616421 v 1.38102 h 1.369165 v -1.38102 h 0.616421 v 3.698525 h -2.602007 z m 0.616421,1.867044 v 1.327676 h 1.369165 v -1.327676 z m 4.771336,0.426753 h 0.426753 q 0.545291,0 0.94834,-0.0059 0.40897,-0.01185 0.752745,-0.04149 0.343775,-0.03556 0.699401,-0.100762 l 0.07111,0.486025 q -0.367486,0.07112 -0.723112,0.106688 -0.355626,0.02963 -0.776448,0.04149 -0.42083,0.01185 -0.972051,0.01185 h -0.426754 z m 0,-2.311578 h 2.501246 v 0.497878 h -1.884828 v 1.985586 h -0.616418 z m 0.420824,1.143934 h 1.979663 v 0.486025 h -1.979663 z m 2.963566,-1.570688 h 0.616416 v 4.01859 h -0.616416 z m 0.432681,1.647741 h 0.948339 v 0.51566 h -0.948339 z m -3.242137,3.159157 h 3.651107 v 0.503806 h -3.651107 z m 0,-1.155789 h 0.622346 v 1.452146 h -0.622346 z"
         id="text5-9-8"
         aria-label="샤오비탄" />
      <path
         style="font-weight:500;font-size:72px;line-height:1.25;font-family:'Noto Sans TC';-inkscape-font-specification:'Noto Sans TC Medium';white-space:pre;fill:#f9f9f9;stroke-width:0.111161"
         d="m 84.314766,21.376874 h 2.92132 v 0.704318 h -2.92132 z m -4.321953,-1.856839 h 3.561609 v 0.624282 h -3.561609 z m -0.08804,3.177436 h 3.665656 v 0.648293 h -3.665656 z m -0.04002,-1.368619 h 3.817724 v 0.632286 h -3.817724 z m 5.810625,0.35216 h 0.736332 v 4.409992 h -0.736332 z m -5.210354,-1.368619 0.616278,-0.144065 q 0.104047,0.232105 0.184083,0.512231 0.08804,0.280127 0.120055,0.480217 l -0.64029,0.17608 q -0.02401,-0.208094 -0.104047,-0.496224 -0.07203,-0.288131 -0.176079,-0.528239 z m 1.9929,-0.160072 0.696315,0.144065 q -0.128058,0.336152 -0.26412,0.680307 -0.136061,0.344155 -0.256115,0.584264 l -0.616279,-0.136062 q 0.08004,-0.176079 0.160073,-0.40018 0.08004,-0.224102 0.152068,-0.456206 0.08004,-0.232105 0.128058,-0.416188 z m 4.041826,-1.336604 0.592268,0.560253 q -0.392178,0.152069 -0.880398,0.280126 -0.480217,0.120055 -0.984445,0.216098 -0.496224,0.09604 -0.976441,0.168076 -0.02401,-0.120054 -0.09604,-0.28813 -0.06403,-0.168076 -0.136062,-0.280127 0.456206,-0.08004 0.912412,-0.184083 0.456206,-0.104047 0.864391,-0.224101 0.416188,-0.128058 0.704318,-0.248112 z m -5.322404,0.01601 0.752339,-0.192087 q 0.136062,0.248112 0.26412,0.55225 0.136061,0.296133 0.20009,0.512231 l -0.784354,0.224101 q -0.05603,-0.224101 -0.184083,-0.528238 -0.120055,-0.312141 -0.248112,-0.568257 z m 2.841283,0.640289 h 0.712322 v 2.80927 q 0,0.440199 -0.03201,0.944426 -0.02401,0.504228 -0.112051,1.01646 -0.08804,0.512231 -0.248112,0.992448 -0.160072,0.480217 -0.432195,0.864391 -0.05603,-0.07203 -0.168076,-0.160073 -0.104047,-0.08804 -0.224102,-0.168076 -0.11205,-0.08004 -0.192086,-0.120054 0.320144,-0.472213 0.472213,-1.056477 0.152069,-0.584264 0.184083,-1.184535 0.04002,-0.600272 0.04002,-1.12851 z m -1.536694,4.426 0.504228,-0.272123 q 0.20009,0.28813 0.384173,0.632286 0.184083,0.336152 0.280127,0.584264 l -0.520235,0.312141 q -0.09604,-0.248112 -0.28813,-0.608275 -0.184083,-0.360163 -0.360163,-0.648293 z m -1.920868,-0.20009 0.592268,0.168076 q -0.144065,0.432195 -0.37617,0.880397 -0.224101,0.440199 -0.448203,0.75234 -0.08804,-0.08004 -0.248112,-0.184083 -0.152068,-0.11205 -0.264119,-0.168076 0.224101,-0.28813 0.416188,-0.672303 0.20009,-0.392178 0.328148,-0.776351 z m 0.904409,-2.024915 h 0.736332 v 4.417996 h -0.736332 z m 10.484736,-0.184084 h 2.953335 v 0.688312 h -2.953335 z m -1.680759,3.553606 h 3.881754 v 0.672304 h -3.881754 z m 1.312593,-4.417996 H 92.3664 v 2.945331 h -0.784354 z m -1.712774,2.481121 h 4.658105 v 2.913316 h -0.776351 v -2.208998 h -3.145421 v 2.225006 h -0.736333 z m -1.032466,-3.465566 h 6.298845 v 0.720326 h -6.298845 z m -0.344156,0 h 0.776351 v 2.072937 q 0,0.480217 -0.03201,1.056477 -0.03202,0.568257 -0.120055,1.168528 -0.08804,0.600271 -0.264119,1.168528 -0.168076,0.568257 -0.440199,1.024463 -0.07203,-0.06403 -0.20009,-0.152069 -0.120054,-0.08804 -0.248112,-0.168076 -0.128058,-0.08004 -0.224101,-0.11205 0.256115,-0.432196 0.408184,-0.944427 0.152069,-0.512231 0.224101,-1.04047 0.07203,-0.536242 0.09604,-1.048474 0.02401,-0.520235 0.02401,-0.95243 z m 2.72123,-0.760343 0.75234,-0.168076 q 0.176079,0.256115 0.320144,0.568256 0.144065,0.312141 0.200091,0.55225 l -0.800362,0.192087 q -0.04002,-0.240109 -0.176079,-0.560253 -0.136062,-0.328149 -0.296134,-0.584264 z m 4.778158,0.616278 h 7.059192 v 0.648293 h -7.059192 z m 1.904861,1.568709 v 0.600271 h 3.313501 v -0.600271 z m -0.75234,-0.528239 h 4.858201 v 1.656749 h -4.858201 z m -0.888401,2.048926 h 6.338862 v 0.624282 h -5.60253 v 2.92132 h -0.736332 z m 5.810632,0 h 0.76034 v 2.801266 q 0,0.264119 -0.072,0.392177 -0.072,0.128058 -0.27213,0.20009 -0.18408,0.06403 -0.47221,0.08004 -0.28013,0.01601 -0.68831,0.008 -0.024,-0.128058 -0.096,-0.28813 -0.072,-0.152069 -0.13607,-0.272123 0.16808,0.008 0.34416,0.008 0.17608,0.008 0.30414,0 0.13606,0 0.18408,0 0.14407,0 0.14407,-0.128058 z m -3.089403,-3.745692 0.760344,-0.17608 q 0.11205,0.248112 0.224101,0.560253 0.112058,0.304138 0.168078,0.504228 l -0.800364,0.224101 q -0.04802,-0.216097 -0.152069,-0.528238 -0.104047,-0.312141 -0.20009,-0.584264 z m -0.808365,4.770155 h 3.041378 v 1.70477 h -3.041378 v -0.536242 h 2.369078 v -0.632286 h -2.369078 z m -0.408185,0 h 0.712322 v 2.08094 H 97.76084 Z m 6.522953,-3.49758 h 6.51494 v 3.881754 h -0.78435 v -3.137418 h -4.97825 v 3.177436 h -0.75234 z m 0.39217,2.697218 h 5.78662 v 0.744337 h -5.78662 z m 2.44911,-4.105855 h 0.79236 v 7.419352 h -0.79236 z"
         id="text4-0"
         aria-label="新店高中" />
      <path
         style="font-size:3.52072px;line-height:1.25;font-family:'AR UDJingXiHeiE1G30 EB';-inkscape-font-specification:'AR UDJingXiHeiE1G30 EB';fill:#ffffff;stroke-width:0.109169"
         d="m 81.414255,27.253727 h 0.449338 l -0.761123,1.066795 0.803917,1.143212 h -0.452394 l -0.577719,-0.852825 -0.57772,0.852825 h -0.440168 l 0.797804,-1.146269 -0.76418,-1.063738 h 0.455451 l 0.531869,0.794747 z m 1.134044,0 v 2.210007 h -0.388204 v -2.210007 z m 0.895616,0.6144 v 1.595607 h -0.388203 v -2.210007 h 0.40043 l 1.085134,1.632287 v -1.632287 h 0.388204 v 2.210007 h -0.424884 z m 3.875913,0.464622 q 0,0.550208 -0.259821,0.840597 -0.256763,0.290388 -0.718326,0.290388 h -0.904788 v -2.210007 h 0.904788 q 0.461563,0 0.718326,0.272048 0.259821,0.272048 0.259821,0.806974 z m -0.403483,0 q 0,-0.400431 -0.165064,-0.586891 -0.162007,-0.189516 -0.473791,-0.189516 h -0.452393 v 1.604777 h 0.45545 q 0.299558,0 0.467678,-0.198687 0.16812,-0.198687 0.16812,-0.629683 z m 1.216568,-1.079022 v 2.210007 h -0.388202 v -2.210007 z m 1.684255,1.317445 -0.348464,-0.944526 -0.354585,0.944526 z m -0.816142,0.302615 -0.220091,0.589947 h -0.394314 l 0.889506,-2.210007 h 0.39737 l 0.883393,2.210007 h -0.403482 l -0.223147,-0.589947 z m 2.197774,-1.00566 v 1.595607 h -0.388202 v -2.210007 h 0.400426 l 1.085139,1.632287 v -1.632287 h 0.388202 v 2.210007 h -0.424884 z m 3.527452,0.59606 q -0.403491,-0.07336 -0.599124,-0.226197 -0.195625,-0.152836 -0.195625,-0.42794 0,-0.256765 0.207858,-0.424885 0.210914,-0.168119 0.648022,-0.168119 0.400426,0 0.620517,0.171176 0.220082,0.171177 0.241475,0.495189 h -0.388202 q -0.0035,-0.155893 -0.12227,-0.259821 -0.119214,-0.103929 -0.363745,-0.103929 -0.229259,0 -0.339295,0.07642 -0.110046,0.07642 -0.10699,0.213971 0,0.149779 0.146728,0.22314 0.149774,0.07336 0.486014,0.140608 0.421828,0.08559 0.599116,0.232311 0.180344,0.146723 0.180344,0.440168 0,0.281218 -0.238419,0.470735 -0.238427,0.186459 -0.678591,0.186459 -0.449342,0 -0.699993,-0.189516 Q 93.87342,29.12444 93.87342,28.766804 h 0.388211 q 0,0.198687 0.149774,0.317899 0.149784,0.116155 0.415716,0.116155 0.244539,0 0.38209,-0.09476 0.13755,-0.09476 0.13755,-0.247594 0,-0.17729 -0.13755,-0.253708 -0.137551,-0.07642 -0.482959,-0.140609 z m 3.013925,0.999547 H 96.104828 V 27.253727 H 97.731 v 0.302615 h -1.23797 v 0.623571 h 1.155438 v 0.302615 H 96.49303 v 0.678591 h 1.247147 z m 0.797805,-1.595607 v 1.595607 h -0.388211 v -2.210007 h 0.400435 l 1.085131,1.632287 v -1.632287 h 0.388213 v 2.210007 h -0.424887 z m 2.381178,-0.6144 v 2.210007 h -0.38821 v -2.210007 z m 2.63183,1.115702 q 0,0.531869 -0.2965,0.834484 -0.29345,0.299558 -0.80392,0.299558 -0.51964,0 -0.81308,-0.302615 -0.29345,-0.302615 -0.29345,-0.831427 0,-0.537982 0.2965,-0.843654 0.2965,-0.308729 0.81003,-0.308729 0.51964,0 0.81003,0.305672 0.29039,0.305672 0.29039,0.846711 z m -1.10042,0.831427 q 0.33319,0 0.51353,-0.220084 0.18341,-0.220084 0.18341,-0.611343 0,-0.388203 -0.18341,-0.617457 -0.1834,-0.232311 -0.51353,-0.232311 -0.33624,0 -0.52269,0.235368 -0.1834,0.23231 -0.1834,0.6144 0,0.391259 0.18645,0.611343 0.18646,0.220084 0.51964,0.220084 z m 2.90695,-1.314388 q 0,-0.162007 -0.0856,-0.244538 -0.0856,-0.08559 -0.2476,-0.08559 H 104.361 v 0.687762 h 0.64191 q 0.15895,0 0.25677,-0.09476 0.0978,-0.09476 0.0978,-0.262877 z m -0.9965,0.657194 v 0.920072 h -0.3882 v -2.210007 h 1.12488 q 0.30261,0 0.4799,0.162006 0.18034,0.158949 0.18034,0.452394 0,0.192574 -0.0917,0.330126 -0.0886,0.137552 -0.22314,0.19563 0.17118,0.09782 0.26288,0.339295 0.0917,0.241481 0.11616,0.730556 h -0.40349 q -0.0183,-0.513529 -0.11311,-0.715272 -0.0917,-0.2048 -0.29649,-0.2048 z m 3.03533,-0.06113 v 0.981206 h -0.38821 v -2.210006 h 0.38821 v 0.926185 h 1.06068 v -0.926185 h 0.3882 v 2.210006 h -0.3882 v -0.981206 z m 2.3445,-1.2288 v 2.210006 h -0.3882 v -2.210006 z m 2.13053,1.941016 q -0.1131,0.158949 -0.28428,0.235367 -0.16812,0.07336 -0.38514,0.07336 -0.47685,0 -0.75807,-0.299558 -0.28121,-0.302615 -0.28121,-0.843654 0,-0.544096 0.2965,-0.843655 0.2965,-0.299558 0.80085,-0.299558 0.40655,0 0.66025,0.18646 0.25677,0.183403 0.30873,0.525756 h -0.3882 q -0.0306,-0.180347 -0.18035,-0.293445 -0.14672,-0.116156 -0.40043,-0.116156 -0.3393,0 -0.51658,0.220084 -0.17729,0.217027 -0.17729,0.620514 0,0.430997 0.18645,0.635797 0.18647,0.201743 0.50742,0.201743 0.28122,0 0.44628,-0.165062 0.16507,-0.165063 0.16507,-0.379033 v -0.04585 h -0.62663 v -0.302621 h 0.99955 v 1.158496 h -0.37292 z m 1.21962,-0.712216 v 0.981206 h -0.3882 v -2.210006 h 0.3882 v 0.926185 h 1.06068 v -0.926185 h 0.38822 v 2.210006 h -0.38822 v -0.981206 z m 3.49077,-0.01834 q -0.40348,-0.07336 -0.59911,-0.226197 -0.19563,-0.152836 -0.19563,-0.42794 0,-0.256765 0.20786,-0.424885 0.21091,-0.168119 0.64802,-0.168119 0.40043,0 0.62051,0.171176 0.22009,0.171177 0.24148,0.495189 h -0.3882 q -0.003,-0.155893 -0.12227,-0.259821 -0.11921,-0.103929 -0.36374,-0.103929 -0.22926,0 -0.3393,0.07642 -0.11004,0.07642 -0.10699,0.21397 0,0.149779 0.14672,0.22314 0.14979,0.07336 0.48602,0.140609 0.42183,0.08559 0.59912,0.232311 0.18034,0.146723 0.18034,0.440168 0,0.281218 -0.23841,0.470735 -0.23843,0.186459 -0.6786,0.186459 -0.44934,0 -0.69999,-0.189516 -0.25065,-0.189517 -0.25065,-0.547153 h 0.3882 q 0,0.198687 0.14979,0.317899 0.14977,0.116155 0.41571,0.116155 0.24454,0 0.38209,-0.09476 0.13755,-0.09476 0.13755,-0.247594 0,-0.17729 -0.13755,-0.253708 -0.13755,-0.07642 -0.48297,-0.140609 z m 2.94974,0.229254 h 0.3882 q -0.0153,0.363749 -0.2537,0.58689 -0.23842,0.22314 -0.69082,0.22314 -0.53493,0 -0.8192,-0.302615 -0.28122,-0.302615 -0.28122,-0.840597 0,-0.531869 0.28122,-0.837541 0.28427,-0.305672 0.81309,-0.305672 0.42488,0 0.66024,0.19563 0.23537,0.192573 0.269,0.501302 h -0.3882 q -0.0245,-0.17729 -0.16201,-0.284275 -0.13756,-0.110042 -0.3882,-0.110042 -0.30874,0 -0.49519,0.207857 -0.18646,0.207857 -0.18646,0.632741 0,0.430997 0.18646,0.635797 0.18951,0.2048 0.5013,0.2048 0.26593,0 0.4096,-0.137552 0.14367,-0.140609 0.15589,-0.369863 z m 1.15544,-0.210914 v 0.981207 h -0.3882 v -2.210007 h 0.3882 v 0.926186 h 1.06068 v -0.926186 h 0.3882 v 2.210007 h -0.3882 v -0.981207 z m 4.08072,-0.113098 q 0,0.531869 -0.2965,0.834484 -0.29345,0.299558 -0.80392,0.299558 -0.51964,0 -0.81309,-0.302615 -0.29344,-0.302615 -0.29344,-0.831427 0,-0.537982 0.2965,-0.843654 0.2965,-0.308729 0.81003,-0.308729 0.51965,0 0.81003,0.305672 0.29039,0.305672 0.29039,0.846711 z m -1.10042,0.831427 q 0.33318,0 0.51353,-0.220084 0.1834,-0.220084 0.1834,-0.611343 0,-0.388203 -0.1834,-0.617457 -0.1834,-0.232311 -0.51353,-0.232311 -0.33624,0 -0.5227,0.235368 -0.1834,0.23231 -0.1834,0.6144 0,0.391259 0.18646,0.611343 0.18645,0.220084 0.51964,0.220084 z m 3.64666,-0.831427 q 0,0.531869 -0.2965,0.834484 -0.29344,0.299558 -0.80392,0.299558 -0.51964,0 -0.81308,-0.302615 -0.29345,-0.302615 -0.29345,-0.831427 0,-0.537982 0.2965,-0.843654 0.29651,-0.308729 0.81003,-0.308729 0.51964,0 0.81003,0.305672 0.29039,0.305672 0.29039,0.846711 z m -1.10042,0.831427 q 0.33319,0 0.51353,-0.220084 0.18341,-0.220084 0.18341,-0.611343 0,-0.388203 -0.18341,-0.617457 -0.1834,-0.232311 -0.51353,-0.232311 -0.33624,0 -0.52269,0.235368 -0.1834,0.23231 -0.1834,0.6144 0,0.391259 0.18645,0.611343 0.18646,0.220084 0.51964,0.220084 z m 3.07507,0.262878 h -1.55282 v -2.210007 h 0.3882 v 1.907392 h 1.16462 z"
         id="text5-8"
         aria-label="XINDIAN SENIOR HIGH SCHOOL
" />
      <path
         d="m 81.462577,31.512639 h 1.050954 v 0.247946 h -1.050954 z m -1.501765,-0.653677 h 1.253819 v 0.219771 h -1.253819 z m -0.031,1.118576 h 1.290448 v 0.228223 h -1.290448 z m -0.0084,-0.481805 h 1.324259 v 0.222589 h -1.324259 z m 2.034286,0.123973 h 0.259217 v 1.552482 h -0.259217 z m -1.496129,-1.031231 h 0.259216 v 0.374737 h -0.259216 z m 0,1.104488 h 0.259216 v 1.490495 h -0.259216 z m 0.879082,-0.895987 0.318385,0.09298 q -0.0056,0.03381 -0.0648,0.04509 v 0.850905 q 0,0.160602 -0.0169,0.343744 -0.01409,0.180324 -0.05917,0.37192 -0.04508,0.188777 -0.135243,0.369101 -0.08734,0.177507 -0.231041,0.326838 -0.0169,-0.03099 -0.05071,-0.06762 -0.03381,-0.03663 -0.07326,-0.07044 -0.03663,-0.03099 -0.06762,-0.04508 0.129608,-0.132426 0.205682,-0.284574 0.07607,-0.15215 0.112703,-0.315569 0.03944,-0.163418 0.05071,-0.321202 0.01127,-0.160602 0.01127,-0.309933 z m 0.932615,-0.194412 0.214136,0.194412 q -0.135244,0.06199 -0.307115,0.11552 -0.169055,0.05072 -0.346562,0.09298 -0.177507,0.03944 -0.343744,0.07044 -0.0084,-0.04227 -0.03381,-0.101433 -0.02536,-0.06199 -0.05071,-0.101432 0.157784,-0.03381 0.318386,-0.07607 0.163419,-0.04508 0.307115,-0.09298 0.143696,-0.05071 0.242311,-0.101432 z m -1.572204,1.639826 q 0.031,0.01973 0.09298,0.07044 0.0648,0.0479 0.135244,0.10425 0.07326,0.05635 0.132425,0.107068 0.06199,0.0479 0.08735,0.07044 L 80.992095,32.789 q -0.03381,-0.03944 -0.09016,-0.09862 -0.05635,-0.05917 -0.123973,-0.121156 -0.0648,-0.0648 -0.126791,-0.118338 -0.05917,-0.05635 -0.09861,-0.09016 z m -0.583237,-1.115758 0.2085,-0.0479 q 0.04227,0.08734 0.07326,0.191595 0.03099,0.10425 0.03944,0.177507 l -0.21977,0.06199 q -0.0056,-0.07889 -0.03381,-0.18596 -0.02817,-0.107067 -0.06762,-0.19723 z m 0.715663,-0.05353 0.236676,0.05072 q -0.03944,0.101432 -0.07889,0.202864 -0.03944,0.09862 -0.07326,0.171873 l -0.214136,-0.0479 q 0.02254,-0.05353 0.04508,-0.118338 0.02536,-0.06762 0.0479,-0.135244 0.02254,-0.06762 0.03663,-0.123973 z m -0.369102,1.031231 0.188777,0.07044 q -0.06762,0.154966 -0.169054,0.309933 -0.101433,0.154966 -0.216953,0.287392 -0.11552,0.132425 -0.228223,0.222588 -0.02817,-0.04508 -0.08171,-0.101433 -0.05072,-0.05636 -0.09298,-0.09016 0.112702,-0.07326 0.225405,-0.18596 0.11552,-0.112703 0.211317,-0.245129 0.09862,-0.135244 0.16342,-0.267669 z m 3.741734,-0.571967 h 1.065042 v 0.236676 H 84.20412 Z m -0.636771,1.312988 h 1.380609 v 0.236675 h -1.380609 z m 0.50998,-1.617286 h 0.270486 v 1.036866 h -0.270486 z m -0.650859,0.90444 h 1.665185 v 1.050954 H 84.818334 V 32.36918 h -1.129847 v 0.819914 h -0.262034 z m 0.543791,-1.560934 h 0.276123 v 0.495892 h -0.276123 z m -0.895987,0.349379 h 2.234334 v 0.253582 h -2.234334 z m -0.132426,0 H 83.2095 v 0.721298 q 0,0.166236 -0.01127,0.366284 -0.01127,0.200048 -0.04227,0.408548 -0.02817,0.2085 -0.08734,0.408548 -0.05636,0.19723 -0.149331,0.360648 -0.02254,-0.02254 -0.0648,-0.05353 -0.04226,-0.03099 -0.08734,-0.05917 -0.04508,-0.02536 -0.07607,-0.03944 0.08735,-0.15215 0.138061,-0.329657 0.05072,-0.177507 0.07326,-0.363466 0.02536,-0.188777 0.031,-0.366284 0.0084,-0.180325 0.0084,-0.332474 z m 2.668239,-0.0958 h 2.459733 v 0.228223 h -2.45975 z m 1.079126,-0.256399 h 0.273303 v 0.369102 h -0.273303 z m -0.95797,1.372157 h 2.079365 v 0.225405 H 85.99046 v 1.022779 h -0.259217 z m 1.97511,0 h 0.264856 v 0.946703 q 0,0.101432 -0.02535,0.160602 -0.02535,0.05917 -0.09861,0.09016 -0.07328,0.031 -0.188783,0.03663 -0.115515,0.0084 -0.281751,0.0084 -0.0087,-0.05635 -0.03377,-0.129607 -0.02535,-0.07044 -0.0507,-0.121156 0.121159,0.0028 0.21977,0.0028 0.101433,0 0.135241,-0.0028 0.03377,0 0.04506,-0.01127 0.01407,-0.01127 0.01407,-0.03663 z M 86.30321,32.3241 h 0.231036 v 0.749474 H 86.30321 Z m 0.121156,0 h 0.95515 v 0.614231 h -0.95515 v -0.18596 h 0.718477 V 32.51006 h -0.718477 z m -0.09298,-0.949521 v 0.228223 h 1.008688 V 31.374578 Z M 86.07497,31.191436 h 1.532755 v 0.600143 H 86.07497 Z m 3.307825,-0.214135 h 1.555299 v 0.245128 h -1.555299 z m 0.639591,-0.405731 h 0.262034 v 0.518433 h -0.262034 z m -0.287394,0.710028 0.242308,0.09862 q -0.09016,0.177507 -0.219769,0.349379 -0.126793,0.169054 -0.267669,0.29021 -0.031,-0.03663 -0.08734,-0.08453 -0.05357,-0.05071 -0.0958,-0.08171 0.129606,-0.107068 0.24513,-0.264852 0.115515,-0.157784 0.18314,-0.307115 z m 0.586049,0.107068 0.208501,-0.115521 q 0.08735,0.09016 0.177513,0.19723 0.09016,0.10425 0.163415,0.208501 0.07605,0.10425 0.118336,0.191594 l -0.225404,0.129609 q -0.03942,-0.08734 -0.10988,-0.191596 -0.07041,-0.107067 -0.157788,-0.216952 -0.08734,-0.109885 -0.174693,-0.202865 z m -0.442352,0.414183 q 0.0958,0.262034 0.253578,0.490257 0.160601,0.225405 0.377558,0.397277 0.216947,0.171872 0.484616,0.267669 -0.03099,0.02536 -0.06763,0.06762 -0.03377,0.04226 -0.06763,0.08734 -0.03099,0.04509 -0.05357,0.08171 -0.276125,-0.118337 -0.498708,-0.31275 -0.219769,-0.194412 -0.386005,-0.450811 -0.163423,-0.259217 -0.273312,-0.563514 z m 0.495886,-0.0169 0.27049,0.05353 q -0.0958,0.304298 -0.259212,0.566333 -0.163423,0.262034 -0.405731,0.462081 -0.242317,0.200047 -0.580423,0.326838 -0.01407,-0.03099 -0.03942,-0.07044 -0.02257,-0.03663 -0.0507,-0.07607 -0.02535,-0.03663 -0.04793,-0.0648 0.309933,-0.109886 0.532524,-0.287393 0.225404,-0.180324 0.369101,-0.411365 0.143697,-0.233858 0.211313,-0.49871 z M 88.388193,31.16608 h 0.966428 v 0.247946 h -0.966428 z m 0.388827,-0.594508 h 0.247943 V 33.18346 H 88.77702 Z m -0.0052,0.757926 0.160602,0.05353 q -0.03377,0.169054 -0.08456,0.352195 -0.04792,0.180326 -0.109889,0.355014 -0.06199,0.171873 -0.132428,0.324021 -0.07041,0.149332 -0.149323,0.256399 -0.01971,-0.05353 -0.05921,-0.121156 -0.03664,-0.07044 -0.07041,-0.118337 0.07328,-0.09298 0.138062,-0.219771 0.06763,-0.129608 0.126793,-0.27894 0.05912,-0.14933 0.104246,-0.30148 0.04793,-0.154966 0.07606,-0.30148 z m 0.242309,0.250764 q 0.02535,0.03099 0.07606,0.10425 0.05357,0.07326 0.115524,0.163419 0.06199,0.08735 0.112702,0.16342 0.0507,0.07326 0.07041,0.107067 l -0.149331,0.200048 q -0.02535,-0.05917 -0.07041,-0.143697 -0.04506,-0.08453 -0.09862,-0.177507 -0.0507,-0.09298 -0.09861,-0.171871 -0.04792,-0.08171 -0.07892,-0.129608 z"
         id="text5-9-1"
         style="font-weight:500;font-size:3.24527px;line-height:1.25;font-family:'Noto Sans JP';-inkscape-font-specification:'Noto Sans JP Medium';fill:#f9f9f9;stroke-width:0.100628"
         aria-label="新店高校 " />
      <path
         style="font-weight:500;font-size:3.24527px;line-height:1.25;font-family:'Noto Sans kr';-inkscape-font-specification:'Noto Sans kr Medium';fill:#f9f9f9;stroke-width:0.100628"
         d="m 95.627097,30.679458 h 0.295842 v 1.882138 h -0.295842 z m -1.38343,2.282233 h 1.752531 v 0.239493 h -1.752531 z m 0,-0.574785 h 0.293029 v 0.693122 h -0.293029 z m 0.197231,-1.566569 h 0.24513 v 0.256399 q 0,0.253582 -0.08456,0.478987 -0.08456,0.222588 -0.24513,0.391643 -0.160601,0.169054 -0.39164,0.256398 l -0.15211,-0.233858 q 0.202865,-0.07607 0.343741,-0.214136 0.140875,-0.140878 0.211313,-0.315568 0.07328,-0.177506 0.07328,-0.363466 z m 0.05921,0 h 0.239495 v 0.256399 q 0,0.138061 0.03942,0.267669 0.04228,0.126791 0.121158,0.239494 0.0817,0.112703 0.197231,0.200047 0.115524,0.08734 0.264847,0.138061 l -0.152145,0.236676 q -0.225404,-0.08453 -0.386005,-0.242311 -0.160601,-0.160602 -0.242308,-0.374737 -0.0817,-0.216953 -0.0817,-0.464899 z m 2.00893,1.197468 h 0.157788 q 0.15778,0 0.29302,-0.0028 0.13525,-0.0056 0.267669,-0.01973 0.13525,-0.01409 0.278947,-0.04226 l 0.02535,0.233858 q -0.149331,0.02817 -0.287385,0.04508 -0.13525,0.01409 -0.276125,0.01973 -0.138063,0.0028 -0.301477,0.0028 H 96.50904 Z m 0,-1.132664 h 0.893169 v 0.233858 h -0.602962 v 0.98615 H 96.50904 Z m 1.794795,-0.205683 h 0.281751 v 1.907496 h -0.281751 z m -0.910082,0.512798 h 0.619866 v 0.233859 h -0.619866 z m 0.402918,-0.462081 h 0.278938 v 1.794792 h -0.278938 z m -0.402918,0.935433 h 0.622688 v 0.233858 h -0.622688 z m -0.509977,1.293265 h 1.775069 v 0.242311 h -1.775069 z m 0,-0.524068 h 0.295842 v 0.704393 h -0.295842 z m 2.344223,-1.515853 h 1.645453 v 0.239493 h -1.645453 z m -0.242317,1.755346 h 2.32732 v 0.242312 h -2.327318 z m 0.86782,-0.904439 h 0.29584 v 1.022778 H 99.8535 Z m 0.91289,-0.850907 h 0.29303 v 0.250764 q 0,0.160602 -0.003,0.338109 -0.003,0.177507 -0.0226,0.391641 -0.0197,0.214136 -0.0704,0.481805 l -0.29585,-0.03381 q 0.0733,-0.377554 0.0846,-0.662129 0.0141,-0.284575 0.0141,-0.515616 z m 0.81428,0.96361 h 2.32731 v 0.24231 h -2.32731 z m 0.28739,-0.450812 h 1.76943 v 0.236676 h -1.76943 z m 0,-0.664946 h 1.75535 v 0.239493 h -1.46233 v 0.538156 h -0.29302 z m 0.86781,1.546846 q 0.417,0 0.65086,0.123973 0.23668,0.121155 0.23668,0.346561 0,0.222588 -0.23668,0.343743 -0.23386,0.121156 -0.65086,0.121156 -0.41136,0 -0.64804,-0.121156 -0.23668,-0.121155 -0.23668,-0.343743 0,-0.225406 0.23668,-0.346561 0.23668,-0.123973 0.64804,-0.123973 z m 0,0.228223 q -0.18596,0 -0.31839,0.02817 -0.13242,0.02817 -0.20286,0.08171 -0.0676,0.05072 -0.0676,0.132426 0,0.07889 0.0676,0.132426 0.0704,0.05353 0.20286,0.08171 0.13243,0.02536 0.31839,0.02536 0.1916,0 0.32121,-0.02536 0.13242,-0.02817 0.20004,-0.08171 0.0676,-0.05353 0.0676,-0.132426 0,-0.08171 -0.0676,-0.132426 -0.0676,-0.05353 -0.20004,-0.08171 -0.12961,-0.02817 -0.32121,-0.02817 z m 1.43697,-1.611651 h 1.51867 v 0.233859 h -1.51867 z m 0.76074,0.343744 q 0.18314,0 0.32401,0.05917 0.14089,0.05917 0.21978,0.166237 0.0789,0.10425 0.0789,0.245128 0,0.140879 -0.0789,0.247946 -0.0789,0.104251 -0.21978,0.16342 -0.14087,0.05635 -0.32401,0.05635 -0.18596,0 -0.32684,-0.05635 -0.14088,-0.05917 -0.21977,-0.16342 -0.0789,-0.107067 -0.0789,-0.247946 0,-0.140878 0.0789,-0.245128 0.0789,-0.107068 0.21977,-0.166237 0.14088,-0.05917 0.32684,-0.05917 z m 0,0.228223 q -0.15497,0 -0.25077,0.0648 -0.093,0.06199 -0.093,0.177507 0,0.112703 0.093,0.177507 0.0958,0.0648 0.25077,0.0648 0.15214,0 0.24513,-0.0648 0.093,-0.0648 0.093,-0.177507 0,-0.11552 -0.093,-0.177507 -0.093,-0.0648 -0.24513,-0.0648 z m 0.95234,-0.822731 h 0.29302 v 1.611651 h -0.29302 z m 0.21413,0.687488 h 0.44236 v 0.245129 h -0.44236 z m -1.61165,1.048136 h 1.69054 v 0.839636 h -0.29302 v -0.60296 h -1.39752 z m 0.29585,-1.749711 h 0.29584 v 0.397277 h -0.29584 z m 2.21179,0.253581 h 1.64546 v 0.239493 h -1.64546 z m -0.23386,1.755346 h 2.32731 v 0.242312 h -2.32731 z m 0.53534,-0.834 h 0.29021 v 0.91571 h -0.29021 z m 1.25382,-0.921346 h 0.29302 v 0.267669 q 0,0.160602 -0.003,0.335291 -0.003,0.17469 -0.0226,0.377554 -0.0169,0.202866 -0.062,0.45363 l -0.29303,-0.03099 q 0.0648,-0.355014 0.0761,-0.625501 0.0113,-0.273304 0.0113,-0.50998 z m -0.61705,0.921346 h 0.29021 v 0.91571 h -0.29021 z"
         id="text5-9-1-0"
         aria-label="신뎬고등학교" />
      <path
         id="rect2"
         style="fill:#ffffff;stroke-width:0.657993"
         d="m 76.067308,18.639636 h 0.911704 v 14.555091 h -0.911704 z" />
      <text
         xml:space="preserve"
         transform="matrix(0.31615295,0,0,0.31615295,0.2809891,-6.4462013)"
         id="text6"
         style="font-size:55px;line-height:1.25;font-family:'Microsoft JhengHei';-inkscape-font-specification:'Microsoft JhengHei';white-space:pre;shape-inside:url(#rect6);display:inline" />
      <g
         aria-label="03A"
         transform="matrix(0.30183932,0,0,0.30183932,-12.781982,-29.6306)"
         id="text1879"
         style="font-size:40px;line-height:1.25;white-space:pre;shape-inside:url(#rect1881)">
        <path
           d="m 76.275547,226.5 q 0,7.4 -1.92,11.08 -1.92,3.64 -6.28,3.64 -4.32,0 -6.32,-3.64 -1.96,-3.68 -1.96,-11.08 0,-7.88 1.96,-11.52 2,-3.68 6.32,-3.68 4.36,0 6.28,3.68 1.92,3.64 1.92,11.52 z m -4.32,0 q 0,-6.64 -0.88,-9.08 -0.88,-2.48 -3,-2.48 -2.12,0 -3.04,2.48 -0.92,2.48 -0.92,9.08 0,6.12 0.88,8.6 0.92,2.48 3.08,2.48 2.16,0 3,-2.48 0.88,-2.52 0.88,-8.6 z"
           style="font-family:'AR UDJingXiHeiE1C80B5HK EB';-inkscape-font-specification:'AR UDJingXiHeiE1C80B5HK EB';fill:#ffffff"
           id="path4998" />
        <path
           d="m 79.115518,219.62 q 0,-3.8 2.08,-6.04 2.08,-2.28 5.76,-2.28 3.52,0 5.6,2.08 2.08,2.08 2.08,5.64 0,2.2 -1.08,3.96 -0.92,1.52 -2.68,2.36 2.08,0.64 3.28,2.36 1.36,1.96 1.36,4.56 0,4.36 -2.32,6.68 -2.28,2.28 -6.2,2.28 -4.04,0 -6.16,-2.32 -2.12,-2.32 -2.12,-6.2 h 4.24 q 0,2.16 1.04,3.52 1.08,1.32 3,1.32 2.04,0 3.08,-1.32 1.08,-1.36 1.08,-3.92 0,-2.2 -1.08,-3.56 -1.04,-1.36 -3.04,-1.36 h -1.36 v -3.68 h 1.4 q 1.36,0 2.28,-1.2 0.92,-1.24 0.92,-3.32 0,-1.92 -0.84,-3.08 -0.84,-1.16 -2.48,-1.16 -1.72,0 -2.68,1.28 -0.92,1.24 -0.92,3.4 z"
           style="font-family:'AR UDJingXiHeiE1C80B5HK EB';-inkscape-font-specification:'AR UDJingXiHeiE1C80B5HK EB';fill:#ffffff"
           id="path5000" />
        <path
           d="m 105.67549,211.78 h 4.64 l 9.12,28.92 h -4.44 l -2.4,-7.8 h -9.28 l -2.36,7.8 h -4.32 z m -1.32,17.48 h 7.2 l -3.6,-12.56 z"
           style="font-family:'AR UDJingXiHeiE1C80B5HK EB';-inkscape-font-specification:'AR UDJingXiHeiE1C80B5HK EB';fill:#ffffff"
           id="path5002" />
      </g>
    </g>
  </g>
</svg>
