<?xml version="1.0" encoding="UTF-8" standalone="no"?>
<!-- Created with Inkscape (http://www.inkscape.org/) -->

<svg
   width="500"
   height="250"
   viewBox="0 0 132.29166 66.145833"
   version="1.1"
   id="svg1"
   inkscape:version="1.3.2 (091e20e, 2023-11-25, custom)"
   sodipodi:docname="g034.svg"
   xmlns:inkscape="http://www.inkscape.org/namespaces/inkscape"
   xmlns:sodipodi="http://sodipodi.sourceforge.net/DTD/sodipodi-0.dtd"
   xmlns="http://www.w3.org/2000/svg"
   xmlns:svg="http://www.w3.org/2000/svg">
  <sodipodi:namedview
     id="namedview1"
     pagecolor="#9e652e"
     bordercolor="#ffffff"
     borderopacity="1"
     inkscape:showpageshadow="0"
     inkscape:pageopacity="0"
     inkscape:pagecheckerboard="false"
     inkscape:deskcolor="#d1d1d1"
     inkscape:document-units="mm"
     inkscape:zoom="2.0208096"
     inkscape:cx="302.84892"
     inkscape:cy="106.88785"
     inkscape:window-width="1920"
     inkscape:window-height="1009"
     inkscape:window-x="1912"
     inkscape:window-y="-8"
     inkscape:window-maximized="1"
     inkscape:current-layer="layer1" />
  <defs
     id="defs1">
    <rect
       x="560.66638"
       y="34.144731"
       width="279.32397"
       height="128.59143"
       id="rect6" />
    <rect
       x="157.85752"
       y="62.351248"
       width="381.61437"
       height="132.30098"
       id="rect4" />
    <rect
       x="157.85751"
       y="62.35125"
       width="329.07602"
       height="135.09438"
       id="rect4-5" />
    <rect
       x="157.85751"
       y="62.35125"
       width="329.07602"
       height="135.09438"
       id="rect4-5-8" />
  </defs>
  <g
     inkscape:label="Layer 1"
     inkscape:groupmode="layer"
     id="layer1">
    <rect
       style="fill:#007846;fill-opacity:1;stroke:none;stroke-width:0.953294;stroke-dasharray:none"
       id="rect5"
       width="132.29167"
       height="66.145836"
       x="-2.5431316e-06"
       y="-1.2715658e-06"
       ry="0" />
    <g
       id="g7"
       transform="translate(21.702836,0.6546469)">
      <g
         id="g1"
         transform="matrix(0.93177749,0,0,0.93177749,-13.833945,1.6016693)">
        <path
           id="rect1"
           style="fill-opacity:0;stroke:#f9f9f9;stroke-width:0.942789"
           d="m 26.668419,14.352791 h 12.425165 c 3.927061,0 7.088558,3.161497 7.088558,7.088559 v 23.263136 c 0,3.927062 -3.161497,7.088559 -7.088558,7.088559 H 26.668419 c -3.927061,0 -7.088558,-3.161497 -7.088558,-7.088559 V 21.44135 c 0,-3.927062 3.161497,-7.088559 7.088558,-7.088559 z" />
        <path
           style="font-size:14.4826px;line-height:1.25;font-family:'AR UDJingXiHeiE1G30 EB';-inkscape-font-specification:'AR UDJingXiHeiE1G30 EB';fill:#f9f9f9;stroke-width:0.301722"
           d="m 35.832506,29.412688 q -0.535856,0.753095 -1.346882,1.11516 -0.796543,0.347582 -1.824808,0.347582 -2.259285,0 -3.591684,-1.419294 -1.3324,-1.433778 -1.3324,-3.997198 0,-2.577903 1.404813,-3.997198 1.404812,-1.419295 3.794441,-1.419295 1.926186,0 3.128241,0.883439 1.216539,0.868956 1.462743,2.491007 h -1.83929 q -0.144826,-0.854473 -0.854474,-1.390329 -0.695164,-0.550339 -1.89722,-0.550339 -1.607569,0 -2.44756,1.042747 -0.83999,1.028265 -0.83999,2.939968 0,2.042047 0.883438,3.012381 0.883439,0.955851 2.404112,0.955851 1.332399,0 2.114459,-0.78206 0.782061,-0.78206 0.782061,-1.795842 v -0.217239 h -2.968933 v -1.433778 h 4.73581 v 5.488906 h -1.766877 z"
           id="text2"
           aria-label="G" />
        <path
           style="font-size:14.3917px;line-height:1.25;font-family:'AR UDJingXiHeiE1G30 EB';-inkscape-font-specification:'AR UDJingXiHeiE1G30 EB';fill:#f9f9f9;stroke-width:0.261667"
           d="m 32.103855,40.114326 q 0,2.720031 -0.877894,4.015284 -0.877894,1.295253 -2.720031,1.295253 -1.784571,0 -2.70564,-1.295253 -0.921069,-1.295253 -0.921069,-4.015284 0,-2.907123 0.877894,-4.173593 0.877894,-1.280861 2.748815,-1.280861 1.827746,0 2.705639,1.280861 0.892286,1.26647 0.892286,4.173593 z m -3.597925,3.885759 q 0.921068,0 1.352819,-0.906677 0.431751,-0.921069 0.431751,-2.979082 0,-2.216322 -0.417359,-3.122999 -0.402967,-0.906677 -1.367211,-0.906677 -0.964244,0 -1.381604,0.921069 -0.417359,0.906677 -0.417359,3.108607 0,2.043621 0.431751,2.96469 0.431751,0.921069 1.367212,0.921069 z m 9.239461,-1.007419 h -4.504602 v -1.26647 l 4.418252,-6.893624 h 1.856529 v 6.720924 h 1.367211 v 1.43917 H 39.51557 v 2.245105 h -1.770179 z m -2.676856,-1.43917 h 2.676856 v -4.23116 z"
           id="text3"
           aria-label="04" />
        <path
           style="font-weight:500;font-size:72px;line-height:1.25;font-family:'Noto Sans TC';-inkscape-font-specification:'Noto Sans TC Medium';white-space:pre;fill:#f9f9f9"
           d="m 162.17742,94.761406 h 63.648 v 7.056004 h -63.648 z m 35.856,2.808 q 2.304,8.496004 6.192,15.840004 3.96,7.344 9.648,12.888 5.76,5.472 13.32,8.64 -0.864,0.72 -1.872,1.872 -0.936,1.152 -1.8,2.304 -0.864,1.224 -1.44,2.16 -7.992,-3.744 -13.968,-9.864 -5.904,-6.192 -10.008,-14.328 -4.104,-8.136 -6.912,-17.856004 z m -7.92,-22.896 h 7.416 q 0,5.112 -0.288,11.016 -0.216,5.832 -1.08,12.024 -0.864,6.192004 -2.808,12.384004 -1.944,6.192 -5.4,11.952 -3.456,5.76 -8.856,10.728 -5.4,4.896 -13.176,8.568 -0.864,-1.368 -2.304,-3.024 -1.44,-1.584 -2.88,-2.664 7.488,-3.384 12.6,-7.848 5.184,-4.536 8.352,-9.792 3.24,-5.328 4.968,-11.016 1.728,-5.688 2.448,-11.376004 0.72,-5.688 0.864,-11.016 0.144,-5.328 0.144,-9.936 z m 64.224,35.496004 h 44.928 v 6.48 h -44.928 z m 2.016,-31.968004 h 41.04 v 6.48 h -41.04 z m 16.992,1.512 h 6.84 v 61.704004 h -6.84 z m 15.984,8.064 6.408,1.44 q -0.864,3.024 -1.872,6.264 -0.936,3.24 -1.944,6.264004 -1.008,2.952 -1.944,5.184 l -5.184,-1.368 q 0.864,-2.376 1.728,-5.472 0.864,-3.168004 1.584,-6.408004 0.792,-3.24 1.224,-5.904 z m -30.816,1.872 5.472,-1.368 q 1.008,2.736 1.8,5.832 0.864,3.096 1.44,6.120004 0.648,2.952 0.864,5.328 l -5.76,1.512 q -0.216,-2.376 -0.792,-5.4 -0.504,-3.024004 -1.296,-6.120004 -0.792,-3.168 -1.728,-5.904 z m -25.2,2.088 h 20.376 v 6.408 h -20.376 z m 7.488,-16.2 h 6.264 v 47.232004 h -6.264 z m -8.784,48.384004 q 2.808,-0.792 6.408,-2.016 3.6,-1.224 7.632,-2.664 4.104,-1.44 8.136,-2.88 l 1.08,6.12 q -5.328,2.232 -10.8,4.464 -5.472,2.16 -10.008,3.96 z m 105.192,-34.056004 h 32.616 v 6.48 h -32.616 z m 12.528,-15.264 h 6.768 v 66.816004 h -6.768 z m -0.288,18.288 5.112,1.728 q -1.368,5.112 -3.312,10.296004 -1.944,5.184 -4.392,10.08 -2.448,4.824 -5.256,9 -2.736,4.104 -5.688,7.128 -0.648,-1.512 -1.872,-3.24 -1.152,-1.728 -2.088,-2.952 2.808,-2.736 5.472,-6.336 2.664,-3.672 4.968,-7.92 2.304,-4.248 4.104,-8.784 1.872,-4.536004 2.952,-9.000004 z m 7.632,0 q 1.512,5.904 3.816,11.808004 2.376,5.904 5.184,11.016 2.88,5.112 5.976,8.496 -1.224,0.936 -2.736,2.448 -1.512,1.512 -2.448,2.88 -2.952,-4.032 -5.76,-9.792 -2.736,-5.76 -4.968,-12.384 -2.232,-6.624 -3.744,-13.176004 z m -51.552,-3.024 h 28.944 v 6.48 h -28.944 z m 12.312,-15.264 h 6.696 v 66.816004 h -6.696 z m -0.432,19.368 4.536,1.656 q -1.08,4.392004 -2.664,9.072004 -1.512,4.68 -3.456,9.144 -1.872,4.464 -4.104,8.28 -2.16,3.816 -4.464,6.48 -0.576,-1.44 -1.656,-3.312 -1.08,-1.872 -1.944,-3.168 2.16,-2.448 4.248,-5.688 2.088,-3.24 3.888,-6.984 1.872,-3.816 3.312,-7.776 1.44,-3.960004 2.304,-7.704004 z m 6.984,3.672 q 0.72,0.576 1.872,1.944 1.224,1.296004 2.664,2.880004 1.44,1.584 2.808,3.24 1.44,1.656 2.592,3.024 1.152,1.296 1.656,1.872 l -4.392,5.904 q -0.864,-1.512 -2.304,-3.6 -1.368,-2.088 -3.024,-4.32 -1.584,-2.232 -3.096,-4.248 -1.44,-2.016 -2.448,-3.24 z"
           id="text4"
           transform="matrix(0.26166763,0,0,0.26166763,8.6238305,-4.0633201)"
           aria-label="大坪林" />
        <path
           style="font-size:7.32669px;line-height:1.25;font-family:'AR UDJingXiHeiE1G30 EB';-inkscape-font-specification:'AR UDJingXiHeiE1G30 EB';fill:#f9f9f9;stroke-width:0.261667"
           d="m 55.660518,38.175543 q 0,1.318805 -0.622769,2.01484 -0.615442,0.696036 -1.721772,0.696036 h -2.1687 v -5.297197 h 2.1687 q 1.10633,0 1.721772,0.652075 0.622769,0.652076 0.622769,1.934246 z m -0.967123,0 q 0,-0.959796 -0.395641,-1.406724 -0.388315,-0.454255 -1.135637,-0.454255 h -1.08435 v 3.846512 h 1.091676 q 0.718016,0 1.120984,-0.476234 0.402968,-0.476235 0.402968,-1.509299 z m 4.806303,0.571482 -0.835243,-2.263947 -0.849896,2.263947 z m -1.956227,0.725343 -0.527521,1.414051 h -0.945143 l 2.132066,-5.297197 h 0.95247 l 2.117414,5.297197 h -0.967124 l -0.534848,-1.414051 z m 5.267884,-0.688709 v 2.10276 h -0.93049 v -5.297197 h 2.491075 q 0.776629,0 1.21623,0.424948 0.439602,0.424948 0.439602,1.12831 0,0.791283 -0.454255,1.216231 -0.446928,0.424948 -1.208904,0.424948 z m 2.271274,-1.626526 q 0,-0.410294 -0.234454,-0.622768 -0.234454,-0.219801 -0.688709,-0.219801 h -1.348111 v 1.743752 h 1.348111 q 0.454255,0 0.688709,-0.2198 0.234454,-0.227128 0.234454,-0.681383 z m 2.769487,-1.567911 v 5.297197 h -0.93049 v -5.297197 z m 2.146715,1.472664 v 3.824533 h -0.93049 v -5.297197 h 0.959797 l 2.600975,3.912452 v -3.912452 h 0.930489 v 5.297197 h -1.01841 z m 8.66747,3.179784 q -0.271088,0.380988 -0.681382,0.564155 -0.402968,0.175841 -0.923163,0.175841 -1.142964,0 -1.817019,-0.718016 -0.674056,-0.725342 -0.674056,-2.022166 0,-1.304151 0.710689,-2.022167 0.710689,-0.718016 1.919593,-0.718016 0.97445,0 1.582565,0.446929 0.615442,0.439601 0.739996,1.26019 h -0.93049 q -0.07327,-0.432274 -0.432275,-0.703362 -0.351681,-0.278414 -0.959796,-0.278414 -0.813263,0 -1.238211,0.527521 -0.424948,0.520195 -0.424948,1.487319 0,1.033063 0.446928,1.523951 0.446928,0.483562 1.216231,0.483562 0.674055,0 1.069697,-0.395642 0.395641,-0.395641 0.395641,-0.908509 v -0.109901 h -1.501972 v -0.725342 h 2.395828 v 2.776816 h -0.893856 z m 5.714814,0.644749 h -3.721959 v -5.297197 h 0.93049 v 4.571854 h 2.791469 z m 1.699799,-5.297197 v 5.297197 h -0.93049 v -5.297197 z m 2.146713,1.472664 v 3.824533 h -0.93049 v -5.297197 h 0.959797 l 2.600975,3.912452 v -3.912452 h 0.930489 v 5.297197 h -1.018409 z"
           id="text5"
           aria-label="DAPINGLIN" />
        <path
           d="m 50.849281,45.454197 h 6.476794 v 0.718015 h -6.476794 z m 3.648692,0.285741 q 0.234454,0.864549 0.630095,1.611872 0.402968,0.747322 0.981776,1.311477 0.586136,0.556829 1.355438,0.879203 -0.08792,0.07327 -0.190494,0.190494 -0.09525,0.117227 -0.183167,0.234454 -0.08792,0.124554 -0.146534,0.219801 -0.813263,-0.380988 -1.421378,-1.003757 -0.600788,-0.630095 -1.01841,-1.458011 -0.417621,-0.827916 -0.703362,-1.817019 z M 53.692037,43.41005 h 0.754649 q 0,0.520195 -0.02931,1.120984 -0.02198,0.593462 -0.1099,1.223557 -0.08792,0.630095 -0.285741,1.260191 -0.197821,0.630095 -0.549502,1.21623 -0.351681,0.586136 -0.901183,1.091677 -0.549502,0.498215 -1.340784,0.871876 -0.08792,-0.139207 -0.234454,-0.307721 -0.146534,-0.161187 -0.293068,-0.271087 0.761976,-0.344355 1.282171,-0.798609 0.527521,-0.461582 0.849896,-0.99643 0.329701,-0.542175 0.505541,-1.120984 0.175841,-0.578808 0.249108,-1.157617 0.07327,-0.578809 0.08792,-1.120984 0.01465,-0.542175 0.01465,-1.011083 z m 6.535407,3.612058 h 4.571855 v 0.659403 h -4.571855 z m 0.205148,-3.25305 h 4.176213 v 0.659402 h -4.176213 z m 1.729098,0.15386 h 0.696036 v 6.278974 H 62.16169 Z m 1.626526,0.82059 0.652075,0.146534 q -0.08792,0.307721 -0.190494,0.637422 -0.09525,0.329701 -0.19782,0.637422 -0.102574,0.300394 -0.197821,0.527521 L 63.326634,46.5532 q 0.08792,-0.241781 0.175841,-0.556828 0.08792,-0.322375 0.161187,-0.652076 0.08059,-0.329701 0.124554,-0.600788 z m -3.135824,0.190494 0.556829,-0.139207 q 0.102573,0.278414 0.183167,0.593462 0.08792,0.315047 0.146534,0.622768 0.06594,0.300394 0.08792,0.542175 l -0.586135,0.153861 q -0.02198,-0.241781 -0.08059,-0.549502 -0.05129,-0.307721 -0.13188,-0.622769 -0.08059,-0.322374 -0.175841,-0.600788 z m -2.564341,0.212474 h 2.073453 v 0.652075 h -2.073453 z m 0.761976,-1.648506 h 0.637422 v 4.806309 h -0.637422 z m -0.893857,4.923536 q 0.285741,-0.08059 0.652076,-0.205147 0.366334,-0.124554 0.776629,-0.271088 0.417621,-0.146533 0.827916,-0.293067 l 0.1099,0.622768 q -0.542175,0.227128 -1.099003,0.454255 -0.556829,0.219801 -1.01841,0.402968 z m 10.704295,-3.465524 h 3.31899 v 0.659402 h -3.31899 z m 1.274844,-1.553259 h 0.688709 v 6.799169 h -0.688709 z m -0.02931,1.86098 0.520195,0.17584 q -0.139207,0.520195 -0.337028,1.047717 -0.19782,0.527522 -0.446928,1.025737 -0.249107,0.490888 -0.534848,0.915836 -0.278414,0.417621 -0.578809,0.725342 -0.06594,-0.15386 -0.190494,-0.329701 -0.117227,-0.17584 -0.212474,-0.300394 0.285741,-0.278414 0.556829,-0.644749 0.271087,-0.373661 0.505541,-0.805936 0.234454,-0.432274 0.417622,-0.893856 0.190494,-0.461581 0.300394,-0.915836 z m 0.776629,0 q 0.153861,0.600788 0.388315,1.201577 0.241781,0.600789 0.527521,1.120984 0.293068,0.520195 0.608116,0.864549 -0.124554,0.09525 -0.278414,0.249107 -0.153861,0.153861 -0.249108,0.293068 -0.300394,-0.410295 -0.586135,-0.99643 -0.278414,-0.586135 -0.505542,-1.26019 -0.227127,-0.674056 -0.380988,-1.340785 z m -5.24591,-0.307721 h 2.945329 v 0.659402 h -2.945329 z m 1.252864,-1.553259 h 0.681382 v 6.799169 h -0.681382 z m -0.04396,1.97088 0.461581,0.168514 q -0.1099,0.446928 -0.271087,0.923163 -0.153861,0.476235 -0.351681,0.93049 -0.190494,0.454254 -0.417622,0.842569 -0.2198,0.388315 -0.454254,0.659402 -0.05861,-0.146534 -0.168514,-0.337028 -0.109901,-0.190494 -0.197821,-0.322374 0.219801,-0.249107 0.432275,-0.578809 0.212474,-0.329701 0.395641,-0.710688 0.190494,-0.388315 0.337028,-0.791283 0.146534,-0.402968 0.234454,-0.783956 z m 0.710689,0.373661 q 0.07327,0.05861 0.190494,0.197821 0.124554,0.13188 0.271087,0.293068 0.146534,0.161187 0.285741,0.329701 0.146534,0.168514 0.263761,0.307721 0.117227,0.13188 0.168514,0.190494 l -0.446928,0.600788 q -0.08792,-0.15386 -0.234454,-0.366334 -0.139207,-0.212474 -0.307721,-0.439602 -0.161187,-0.227127 -0.315048,-0.432274 -0.146534,-0.205148 -0.249107,-0.329702 z"
           id="text5-9"
           style="font-weight:500;font-size:7.32669px;line-height:1.25;font-family:'Noto Sans JP';-inkscape-font-specification:'Noto Sans JP Medium';fill:#f9f9f9;stroke-width:0.261667"
           aria-label="大坪林" />
        <path
           style="font-weight:500;font-size:7.32669px;line-height:1.25;font-family:'Noto Sans KR';-inkscape-font-specification:'Noto Sans KR Medium';fill:#f9f9f9;stroke-width:0.261667"
           d="m 83.681299,43.584846 h 0.769303 v 6.711249 h -0.769303 z m 0.600789,2.571669 h 1.208904 v 0.637422 h -1.208904 z m -4.747696,1.853652 h 0.542176 q 0.600788,0 1.10633,-0.01465 0.505541,-0.02198 0.981776,-0.06594 0.476235,-0.05129 0.967123,-0.139207 l 0.08059,0.637422 q -0.505542,0.09525 -0.99643,0.146533 -0.483561,0.04396 -1.011083,0.06594 -0.520195,0.01465 -1.12831,0.01465 h -0.542176 z m 0,-3.787899 h 3.113844 v 0.622769 h -2.351868 v 3.465525 h -0.761976 z m 6.762536,-0.08792 h 3.597405 v 0.615442 h -3.597405 z m -0.09525,3.14315 -0.08059,-0.630095 q 0.571482,0 1.26019,-0.01465 0.688709,-0.01465 1.414052,-0.05129 0.732669,-0.04396 1.392071,-0.131881 l 0.05129,0.564155 q -0.674056,0.117227 -1.399398,0.175841 -0.718016,0.05129 -1.399398,0.07327 -0.674056,0.01465 -1.238211,0.01465 z m 0.696036,-2.681568 h 0.739996 v 2.34454 h -0.739996 z m 1.655832,0 h 0.739996 v 2.34454 h -0.739996 z m 2.198007,-1.003757 h 0.769302 v 4.07364 h -0.769302 z m -1.450685,4.212847 q 1.055044,0 1.655832,0.322374 0.608116,0.322375 0.608116,0.90851 0,0.586135 -0.608116,0.908509 -0.600788,0.329702 -1.655832,0.329702 -1.055043,0 -1.663158,-0.329702 -0.600789,-0.322374 -0.600789,-0.908509 0,-0.586135 0.600789,-0.90851 0.608115,-0.322374 1.663158,-0.322374 z m 0,0.586135 q -0.476235,0 -0.820589,0.07327 -0.337028,0.07327 -0.512868,0.219801 -0.175841,0.139207 -0.175841,0.351681 0,0.212474 0.175841,0.359008 0.17584,0.146534 0.512868,0.2198 0.344354,0.07327 0.820589,0.07327 0.476235,0 0.813263,-0.07327 0.337028,-0.07327 0.512868,-0.2198 0.175841,-0.146534 0.175841,-0.359008 0,-0.212474 -0.175841,-0.351681 -0.17584,-0.146534 -0.512868,-0.219801 -0.337028,-0.07327 -0.813263,-0.07327 z m 8.191241,-4.798982 h 0.769302 v 4.930863 h -0.769302 z m -3.648692,5.934619 h 4.593835 v 0.622769 H 93.84342 Z m 0,-1.399398 h 0.769302 v 1.721772 H 93.84342 Z m -0.754649,-1.12831 h 0.556828 q 0.666729,0 1.194251,-0.01465 0.534848,-0.02198 1.003756,-0.06594 0.476235,-0.05129 0.967123,-0.139207 l 0.08059,0.622769 q -0.505542,0.08792 -0.99643,0.139207 -0.483561,0.04396 -1.025736,0.06594 -0.542175,0.01465 -1.223558,0.01465 h -0.556828 z m -0.01465,-2.952656 h 3.062557 v 2.03682 H 93.84342 v 1.099003 h -0.754649 v -1.685138 h 2.293254 v -0.827916 h -2.307908 z"
           id="text5-9-8"
           aria-label="다핑린" />
      </g>
    </g>
    <text
       xml:space="preserve"
       transform="matrix(0.31615295,0,0,0.31615295,0.2809891,-6.4462013)"
       id="text6"
       style="font-size:55px;line-height:1.25;font-family:'Microsoft JhengHei';-inkscape-font-specification:'Microsoft JhengHei';white-space:pre;shape-inside:url(#rect6);display:inline" />
  </g>
</svg>
