<?xml version="1.0" encoding="UTF-8" standalone="no"?>
<!-- Created with Inkscape (http://www.inkscape.org/) -->

<svg
   width="500"
   height="250"
   viewBox="0 0 132.29166 66.145833"
   version="1.1"
   id="svg1"
   inkscape:version="1.3.2 (091e20e, 2023-11-25, custom)"
   sodipodi:docname="g05.svg"
   xmlns:inkscape="http://www.inkscape.org/namespaces/inkscape"
   xmlns:sodipodi="http://sodipodi.sourceforge.net/DTD/sodipodi-0.dtd"
   xmlns="http://www.w3.org/2000/svg"
   xmlns:svg="http://www.w3.org/2000/svg">
  <sodipodi:namedview
     id="namedview1"
     pagecolor="#9e652e"
     bordercolor="#ffffff"
     borderopacity="1"
     inkscape:showpageshadow="0"
     inkscape:pageopacity="0"
     inkscape:pagecheckerboard="false"
     inkscape:deskcolor="#d1d1d1"
     inkscape:document-units="mm"
     inkscape:zoom="2.0208096"
     inkscape:cx="302.84892"
     inkscape:cy="106.88785"
     inkscape:window-width="1920"
     inkscape:window-height="1009"
     inkscape:window-x="1912"
     inkscape:window-y="-8"
     inkscape:window-maximized="1"
     inkscape:current-layer="layer1" />
  <defs
     id="defs1">
    <rect
       x="560.66638"
       y="34.144731"
       width="279.32397"
       height="128.59143"
       id="rect6" />
    <rect
       x="157.85752"
       y="62.351248"
       width="381.61437"
       height="132.30098"
       id="rect4" />
    <rect
       x="157.85751"
       y="62.35125"
       width="329.07602"
       height="135.09438"
       id="rect4-5" />
    <rect
       x="157.85751"
       y="62.35125"
       width="329.07602"
       height="135.09438"
       id="rect4-5-8" />
  </defs>
  <g
     inkscape:label="Layer 1"
     inkscape:groupmode="layer"
     id="layer1">
    <rect
       style="fill:#007846;fill-opacity:1;stroke:none;stroke-width:0.953294;stroke-dasharray:none"
       id="rect5"
       width="132.29167"
       height="66.145836"
       x="-2.5431316e-06"
       y="-1.2715658e-06"
       ry="0" />
    <g
       id="g8"
       transform="matrix(1.0971342,0,0,1.0971342,1.0070084,-3.2125111)">
      <g
         id="g7"
         transform="translate(21.702836,0.6546469)">
        <g
           id="g1"
           transform="matrix(0.93177749,0,0,0.93177749,-13.833945,1.6016693)">
          <path
             id="rect1"
             style="fill-opacity:0;stroke:#f9f9f9;stroke-width:0.942789"
             d="m 26.668419,14.352791 h 12.425165 c 3.927061,0 7.088558,3.161497 7.088558,7.088559 v 23.263136 c 0,3.927062 -3.161497,7.088559 -7.088558,7.088559 H 26.668419 c -3.927061,0 -7.088558,-3.161497 -7.088558,-7.088559 V 21.44135 c 0,-3.927062 3.161497,-7.088559 7.088558,-7.088559 z" />
          <path
             style="font-size:14.4826px;line-height:1.25;font-family:'AR UDJingXiHeiE1G30 EB';-inkscape-font-specification:'AR UDJingXiHeiE1G30 EB';fill:#f9f9f9;stroke-width:0.301722"
             d="m 35.832506,29.412688 q -0.535856,0.753095 -1.346882,1.11516 -0.796543,0.347582 -1.824808,0.347582 -2.259285,0 -3.591684,-1.419294 -1.3324,-1.433778 -1.3324,-3.997198 0,-2.577903 1.404813,-3.997198 1.404812,-1.419295 3.794441,-1.419295 1.926186,0 3.128241,0.883439 1.216539,0.868956 1.462743,2.491007 h -1.83929 q -0.144826,-0.854473 -0.854474,-1.390329 -0.695164,-0.550339 -1.89722,-0.550339 -1.607569,0 -2.44756,1.042747 -0.83999,1.028265 -0.83999,2.939968 0,2.042047 0.883438,3.012381 0.883439,0.955851 2.404112,0.955851 1.332399,0 2.114459,-0.78206 0.782061,-0.78206 0.782061,-1.795842 v -0.217239 h -2.968933 v -1.433778 h 4.73581 v 5.488906 h -1.766877 z"
             id="text2"
             aria-label="G" />
          <path
             style="font-size:14.3917px;line-height:1.25;font-family:'AR UDJingXiHeiE1G30 EB';-inkscape-font-specification:'AR UDJingXiHeiE1G30 EB';fill:#f9f9f9;stroke-width:0.261667"
             d="m 32.103855,40.114326 q 0,2.720031 -0.877894,4.015284 -0.877894,1.295253 -2.720031,1.295253 -1.784571,0 -2.70564,-1.295253 -0.921069,-1.295253 -0.921069,-4.015284 0,-2.907123 0.877894,-4.173593 0.877894,-1.280861 2.748815,-1.280861 1.827746,0 2.705639,1.280861 0.892286,1.26647 0.892286,4.173593 z m -3.597925,3.885759 q 0.921068,0 1.352819,-0.906677 0.431751,-0.921069 0.431751,-2.979082 0,-2.216322 -0.417359,-3.122999 -0.402967,-0.906677 -1.367211,-0.906677 -0.964244,0 -1.381604,0.921069 -0.417359,0.906677 -0.417359,3.108607 0,2.043621 0.431751,2.96469 0.431751,0.921069 1.367212,0.921069 z m 8.534268,-4.40386 q -0.618844,0 -1.064986,0.230267 -0.446143,0.215876 -0.76276,0.662018 l -1.611871,-0.1727 0.777152,-5.483238 h 5.814247 v 1.424779 h -4.346294 l -0.402967,2.720031 q 0.359792,-0.402968 0.863502,-0.604452 0.518101,-0.215875 1.208903,-0.215875 1.482345,0 2.345847,0.964244 0.863502,0.964244 0.863502,2.633681 0,1.741396 -0.964244,2.705639 -0.964244,0.964244 -2.70564,0.964244 -1.712612,0 -2.676856,-0.84911 -0.964244,-0.84911 -0.993027,-2.28828 h 1.770179 q -0.01439,0.67641 0.460534,1.194511 0.474926,0.518101 1.395995,0.518101 0.877894,0 1.381603,-0.575668 0.518101,-0.59006 0.518101,-1.698221 0,-1.036202 -0.532492,-1.583086 -0.532493,-0.546885 -1.338428,-0.546885 z"
             id="text3"
             aria-label="05" />
          <path
             style="font-weight:500;font-size:72px;line-height:1.25;font-family:'Noto Sans TC';-inkscape-font-specification:'Noto Sans TC Medium';white-space:pre;fill:#f9f9f9"
             d="m 176.21742,89.577406 v 3.888 h 34.848 v -3.888 z m 0,-8.064 v 3.816 h 34.848 v -3.816 z m -6.552,-4.464 h 48.24 v 20.88 h -48.24 z m -7.848,24.768004 h 63.72 v 5.472 h -63.72 z m 16.056,13.608 v 5.616 h 31.968 v -5.616 z m -6.48,-4.824 h 45.288 v 15.264 h -45.288 z m 19.08,12.6 h 6.84 v 12.168 q 0,2.304 -0.648,3.456 -0.648,1.224 -2.52,1.8 -1.8,0.576 -4.536,0.648 -2.664,0.144 -6.48,0.144 -0.216,-1.224 -0.792,-2.736 -0.576,-1.44 -1.152,-2.592 1.656,0.072 3.312,0.072 1.728,0.072 2.952,0.072 1.296,0 1.8,0 0.72,-0.072 0.936,-0.36 0.288,-0.216 0.288,-0.792 z m 11.664,8.064 4.392,-3.816 q 3.168,1.08 6.696,2.592 3.6,1.512 6.912,3.168 3.312,1.584 5.472,3.024 l -4.68,4.32 q -2.016,-1.368 -5.184,-3.096 -3.168,-1.656 -6.768,-3.312 -3.6,-1.656 -6.84,-2.88 z m -24.048,-4.032 6.264,2.448 q -2.448,2.088 -5.688,4.104 -3.168,1.944 -6.552,3.672 -3.384,1.728 -6.552,2.952 -0.504,-0.648 -1.44,-1.584 -0.936,-0.936 -1.872,-1.872 -0.936,-0.864 -1.656,-1.368 3.168,-1.008 6.408,-2.304 3.24,-1.296 6.12,-2.88 2.952,-1.584 4.968,-3.168 z m 10.512,-28.080004 5.976,-1.944 q 1.152,1.368 2.232,3.168004 1.152,1.8 1.584,3.24 l -6.264,2.232 q -0.432,-1.368 -1.44,-3.312 -0.936,-1.944 -2.088,-3.384004 z m 47.52,-14.976 h 59.328 v 6.048 h -59.328 z m 4.104,11.016 h 51.696 v 5.760004 h -51.696 z m -4.896,21.672004 h 61.632 v 5.832 h -61.632 z m -1.656,-10.8 h 64.872 v 5.976 h -64.872 z m 28.512,-18.216004 h 7.056 v 22.824004 h -7.056 z m -16.344,-11.16 6.048,-2.376 q 1.8,1.944 3.456,4.464 1.656,2.448 2.448,4.392 l -6.336,2.808 q -0.72,-2.016 -2.304,-4.608 -1.584,-2.592 -3.312,-4.68 z m 32.976,-2.376 7.272,1.944 q -1.8,2.952 -3.888,5.832 -2.016,2.808 -3.672,4.752 l -5.976,-1.872 q 1.08,-1.44 2.232,-3.312 1.152,-1.944 2.232,-3.816 1.08,-1.944 1.8,-3.528 z m -17.28,36.216004 h 7.2 q -0.504,4.968 -1.584,9.216 -1.008,4.176 -3.168,7.632 -2.088,3.384 -5.688,6.048 -3.528,2.664 -9,4.608 -5.472,2.016 -13.392,3.312 -0.288,-0.936 -0.864,-2.088 -0.576,-1.08 -1.296,-2.232 -0.648,-1.08 -1.296,-1.8 7.272,-1.008 12.24,-2.52 4.968,-1.584 8.136,-3.672 3.168,-2.16 4.896,-4.896 1.728,-2.736 2.52,-6.12 0.864,-3.384 1.296,-7.488 z m 4.608,17.208 3.024,-5.04 q 3.6,1.224 7.632,2.88 4.104,1.656 8.136,3.456 4.104,1.728 7.632,3.528 3.528,1.728 5.976,3.24 l -3.168,5.904 q -2.376,-1.584 -5.904,-3.384 -3.456,-1.8 -7.488,-3.672 -3.96,-1.944 -8.064,-3.672 -4.104,-1.8 -7.776,-3.24 z"
             id="text4"
             transform="matrix(0.26166763,0,0,0.26166763,8.6238305,-4.0633201)"
             aria-label="景美" />
          <path
             style="font-size:7.32669px;line-height:1.25;font-family:'AR UDJingXiHeiE1G30 EB';-inkscape-font-specification:'AR UDJingXiHeiE1G30 EB';fill:#f9f9f9;stroke-width:0.261667"
             d="m 51.792026,39.530981 q 0,0.337028 0.168514,0.527522 0.168513,0.190494 0.542175,0.190494 0.366334,0.0073 0.556828,-0.197821 0.190494,-0.212474 0.190494,-0.600789 V 35.589222 H 54.1732 v 3.941759 q 0,0.666729 -0.439601,1.06237 -0.432275,0.388315 -1.238211,0.388315 -0.783956,0 -1.208904,-0.380988 -0.424948,-0.388315 -0.424948,-0.989103 v -0.468909 h 0.93049 z m 4.491256,-3.941759 v 5.297197 h -0.930489 v -5.297197 z m 2.146716,1.472664 v 3.824533 h -0.93049 v -5.297197 h 0.959796 l 2.600975,3.912452 v -3.912452 h 0.93049 v 5.297197 h -1.01841 z m 8.667469,3.179784 q -0.271088,0.380988 -0.681383,0.564155 -0.402968,0.175841 -0.923163,0.175841 -1.142963,0 -1.817019,-0.718016 -0.674055,-0.725342 -0.674055,-2.022166 0,-1.304151 0.710689,-2.022167 0.710689,-0.718016 1.919593,-0.718016 0.974449,0 1.582565,0.446929 0.615442,0.439601 0.739995,1.26019 H 67.0242 q -0.07327,-0.432274 -0.432275,-0.703362 -0.351681,-0.278414 -0.959796,-0.278414 -0.813263,0 -1.238211,0.527521 -0.424948,0.520195 -0.424948,1.487319 0,1.033063 0.446928,1.523951 0.446928,0.483562 1.216231,0.483562 0.674055,0 1.069696,-0.395642 0.395642,-0.395641 0.395642,-0.908509 v -0.109901 h -1.501972 v -0.725342 h 2.395828 v 2.776816 h -0.893856 z m 2.894039,-3.172457 v 3.817206 h -0.901182 v -5.297197 h 1.179597 l 1.523951,4.110273 1.465338,-4.110273 h 1.208904 v 5.297197 h -0.908509 v -3.846513 l -1.377418,3.846513 h -0.783956 z m 9.612614,3.817206 h -3.919779 v -5.297197 h 3.897799 v 0.725342 h -2.96731 v 1.494645 h 2.769489 v 0.725342 H 76.61483 v 1.626525 h 2.98929 z m 1.912272,-5.297197 v 5.297197 h -0.93049 v -5.297197 z"
             id="text5"
             aria-label="JINGMEI" />
          <path
             d="m 52.314619,44.926675 v 0.395641 h 3.487504 v -0.395641 z m 0,-0.820589 V 44.4944 h 3.487504 V 44.106086 Z M 51.64789,43.651831 h 4.842942 v 2.12474 H 51.64789 Z m -0.835243,2.513055 h 6.484121 v 0.549501 h -6.484121 z m 1.670486,1.362764 v 0.622769 h 3.179783 V 47.52765 Z m -0.659402,-0.490888 h 4.535221 v 1.604545 h -4.535221 z m 1.882959,-1.355438 h 0.710689 v 0.791283 H 53.70669 Z m 0.02198,2.666915 h 0.696036 v 1.238211 q 0,0.234454 -0.06594,0.351681 -0.06594,0.124554 -0.256434,0.183167 -0.183167,0.05861 -0.461581,0.06594 -0.271088,0.01465 -0.659402,0.01465 -0.02198,-0.124554 -0.08059,-0.278414 -0.05861,-0.146534 -0.117227,-0.263761 0.168514,0.0073 0.337028,0.0073 0.17584,0.0073 0.300394,0.0073 0.131881,0 0.183167,0 0.07327,-0.0073 0.09525,-0.03663 0.02931,-0.02198 0.02931,-0.08059 z m 1.216231,0.769303 0.454254,-0.380988 q 0.315048,0.117227 0.674056,0.278414 0.359008,0.161187 0.688709,0.329701 0.329701,0.168514 0.549502,0.322375 l -0.490889,0.417621 q -0.19782,-0.146534 -0.520195,-0.322374 -0.315047,-0.175841 -0.674055,-0.344355 -0.359008,-0.17584 -0.681382,-0.300394 z m -2.476422,-0.373661 0.637422,0.249107 q -0.249107,0.212474 -0.578808,0.417621 -0.322374,0.205148 -0.666729,0.380988 -0.344354,0.183168 -0.666729,0.307721 -0.05129,-0.06594 -0.146534,-0.161187 -0.09525,-0.08792 -0.190493,-0.183167 -0.09525,-0.09525 -0.168514,-0.146534 0.322374,-0.102574 0.652075,-0.241781 0.329701,-0.139207 0.622769,-0.300394 0.300394,-0.161187 0.505541,-0.322374 z m 5.971253,-4.366708 h 5.927292 v 0.615442 h -5.927292 z m 0.351681,1.120984 h 5.260564 v 0.586135 h -5.260564 z m -0.652075,1.099003 h 6.513427 v 0.622769 h -6.513427 z m -0.05129,1.201578 h 6.645308 v 0.615442 h -6.645308 z m 2.938003,-3.047904 h 0.718015 v 2.322561 h -0.718015 z m -1.677813,-1.10633 0.615442,-0.249107 q 0.183168,0.19782 0.351682,0.446928 0.168513,0.241781 0.249107,0.439601 l -0.652075,0.285741 q -0.06594,-0.19782 -0.227128,-0.461581 -0.15386,-0.263761 -0.337028,-0.461582 z m 3.370278,-0.256434 0.732669,0.205147 Q 63.282674,43.849652 63.099507,44.084106 62.91634,44.31856 62.762479,44.4944 L 62.13971,44.29658 q 0.102574,-0.124554 0.205148,-0.278415 0.1099,-0.161187 0.212474,-0.322374 0.102573,-0.168514 0.161187,-0.307721 z m -1.751079,3.721959 h 0.732669 q -0.05129,0.505541 -0.168514,0.930489 -0.1099,0.417622 -0.329701,0.761976 -0.212474,0.344355 -0.578808,0.615442 -0.359008,0.263761 -0.923163,0.461582 -0.564156,0.19782 -1.370091,0.329701 -0.02198,-0.09525 -0.08059,-0.212474 -0.05861,-0.109901 -0.13188,-0.227128 -0.07327,-0.1099 -0.139208,-0.183167 0.747323,-0.102574 1.252864,-0.256434 0.512869,-0.153861 0.835243,-0.366335 0.322374,-0.212474 0.498215,-0.483561 0.183167,-0.278414 0.271088,-0.615442 0.08792,-0.344355 0.13188,-0.754649 z m 0.915836,0.871876 q 0.307721,0.739996 1.04039,1.120983 0.739996,0.380988 1.941573,0.476235 -0.07327,0.07327 -0.161187,0.190494 -0.08059,0.117227 -0.153861,0.234454 -0.06594,0.117227 -0.1099,0.219801 -0.849896,-0.1099 -1.472665,-0.366334 -0.622768,-0.249108 -1.047716,-0.681383 -0.417622,-0.432274 -0.681382,-1.077023 z"
             id="text5-9"
             style="font-weight:500;font-size:7.32669px;line-height:1.25;font-family:'Noto Sans JP';-inkscape-font-specification:'Noto Sans JP Medium';fill:#f9f9f9;stroke-width:0.261667"
             aria-label="景美" />
          <path
             style="font-weight:500;font-size:7.32669px;line-height:1.25;font-family:'Noto Sans KR';-inkscape-font-specification:'Noto Sans KR Medium';fill:#f9f9f9;stroke-width:0.261667"
             d="m 77.196089,43.592173 h 0.769303 v 4.0077 h -0.769303 z m -1.472664,4.154233 q 0.703362,0 1.208903,0.153861 0.505542,0.146534 0.783956,0.439601 0.278415,0.285741 0.278415,0.681383 0,0.410294 -0.278415,0.696035 -0.278414,0.285741 -0.783956,0.432275 -0.505541,0.15386 -1.208903,0.15386 -0.696036,0 -1.208904,-0.15386 -0.505542,-0.146534 -0.783956,-0.432275 -0.271088,-0.285741 -0.271088,-0.696035 0,-0.395642 0.271088,-0.681383 0.278414,-0.293067 0.783956,-0.439601 0.512868,-0.153861 1.208904,-0.153861 z m 0,0.600789 q -0.468909,0 -0.805936,0.08059 -0.337028,0.07327 -0.512869,0.227127 -0.17584,0.15386 -0.17584,0.366335 0,0.2198 0.17584,0.373661 0.175841,0.15386 0.512869,0.234454 0.337027,0.08059 0.805936,0.08059 0.483561,0 0.813262,-0.08059 0.337028,-0.08059 0.512868,-0.234454 0.175841,-0.153861 0.175841,-0.373661 0,-0.212475 -0.175841,-0.366335 -0.17584,-0.153861 -0.512868,-0.227127 -0.329701,-0.08059 -0.813262,-0.08059 z m -1.560585,-4.07364 h 0.630095 v 0.483562 q 0,0.622768 -0.227128,1.17227 -0.2198,0.549502 -0.637422,0.959797 -0.417621,0.402968 -1.018409,0.615442 l -0.395642,-0.600789 q 0.534849,-0.183167 0.893856,-0.512868 0.366335,-0.337028 0.556829,-0.754649 0.197821,-0.424948 0.197821,-0.879203 z m 0.15386,0 h 0.630095 v 0.483562 q 0,0.315047 0.102574,0.615442 0.1099,0.300394 0.322374,0.564155 0.212474,0.263761 0.512869,0.468908 0.307721,0.205147 0.696035,0.322374 l -0.388314,0.608116 Q 75.606197,47.138291 75.181249,46.757303 74.763628,46.376315 74.536501,45.863447 74.3167,45.343252 74.3167,44.757117 Z m -1.604545,-0.19782 h 3.656018 v 0.615442 h -3.656018 z m 6.696595,0.249107 h 2.586322 v 4.220174 H 79.40875 Z m 1.875633,0.600789 h -1.157617 v 3.018596 h 1.157617 z m 2.886716,-1.340785 h 0.732669 v 6.696595 h -0.732669 z m -2.557015,2.483748 h 1.523952 v 0.630096 h -1.523952 z m 1.216231,-2.351867 h 0.718015 v 6.249667 h -0.718015 z m 7.839559,-0.131881 h 0.769303 v 6.711249 h -0.769303 z m -2.791469,0.490889 q 0.498215,0 0.88653,0.293067 0.395641,0.293068 0.615442,0.82059 0.2198,0.527521 0.2198,1.245537 0,0.725342 -0.2198,1.260191 -0.219801,0.527521 -0.615442,0.820589 -0.388315,0.285741 -0.88653,0.285741 -0.498215,0 -0.893856,-0.285741 -0.388315,-0.293068 -0.615442,-0.820589 -0.219801,-0.534849 -0.219801,-1.260191 0,-0.718016 0.219801,-1.245537 0.227127,-0.527522 0.615442,-0.82059 0.395641,-0.293067 0.893856,-0.293067 z m 0,0.696035 q -0.293067,0 -0.520195,0.197821 -0.219801,0.19782 -0.344354,0.571482 -0.124554,0.373661 -0.124554,0.893856 0,0.527522 0.124554,0.901183 0.124553,0.373661 0.344354,0.578808 0.227128,0.197821 0.520195,0.197821 0.293068,0 0.512868,-0.197821 0.219801,-0.205147 0.344355,-0.578808 0.124554,-0.373661 0.124554,-0.901183 0,-0.520195 -0.124554,-0.893856 -0.124554,-0.373662 -0.344355,-0.571482 -0.2198,-0.197821 -0.512868,-0.197821 z"
             id="text5-9-8"
             aria-label="징메이" />
        </g>
      </g>
    </g>
    <text
       xml:space="preserve"
       transform="matrix(0.31615295,0,0,0.31615295,0.2809891,-6.4462013)"
       id="text6"
       style="font-size:55px;line-height:1.25;font-family:'Microsoft JhengHei';-inkscape-font-specification:'Microsoft JhengHei';white-space:pre;shape-inside:url(#rect6);display:inline" />
  </g>
</svg>
