<?xml version="1.0" encoding="UTF-8" standalone="no"?>
<!-- Created with Inkscape (http://www.inkscape.org/) -->

<svg
   width="500"
   height="250"
   viewBox="0 0 132.29166 66.145833"
   version="1.1"
   id="svg1"
   inkscape:version="1.3.2 (091e20e, 2023-11-25, custom)"
   sodipodi:docname="g06.svg"
   xmlns:inkscape="http://www.inkscape.org/namespaces/inkscape"
   xmlns:sodipodi="http://sodipodi.sourceforge.net/DTD/sodipodi-0.dtd"
   xmlns="http://www.w3.org/2000/svg"
   xmlns:svg="http://www.w3.org/2000/svg">
  <sodipodi:namedview
     id="namedview1"
     pagecolor="#9e652e"
     bordercolor="#ffffff"
     borderopacity="1"
     inkscape:showpageshadow="0"
     inkscape:pageopacity="0"
     inkscape:pagecheckerboard="false"
     inkscape:deskcolor="#d1d1d1"
     inkscape:document-units="mm"
     inkscape:zoom="2.0208096"
     inkscape:cx="302.84892"
     inkscape:cy="106.88785"
     inkscape:window-width="1920"
     inkscape:window-height="1009"
     inkscape:window-x="1912"
     inkscape:window-y="-8"
     inkscape:window-maximized="1"
     inkscape:current-layer="layer1" />
  <defs
     id="defs1">
    <rect
       x="560.66638"
       y="34.144731"
       width="279.32397"
       height="128.59143"
       id="rect6" />
    <rect
       x="157.85752"
       y="62.351248"
       width="381.61437"
       height="132.30098"
       id="rect4" />
    <rect
       x="157.85751"
       y="62.35125"
       width="329.07602"
       height="135.09438"
       id="rect4-5" />
    <rect
       x="157.85751"
       y="62.35125"
       width="329.07602"
       height="135.09438"
       id="rect4-5-8" />
  </defs>
  <g
     inkscape:label="Layer 1"
     inkscape:groupmode="layer"
     id="layer1">
    <rect
       style="fill:#007846;fill-opacity:1;stroke:none;stroke-width:0.953294;stroke-dasharray:none"
       id="rect5"
       width="132.29167"
       height="66.145836"
       x="-2.5431316e-06"
       y="-1.2715658e-06"
       ry="0" />
    <g
       id="g8"
       transform="matrix(1.0971342,0,0,1.0971342,1.7347826,-3.2125113)">
      <g
         id="g7"
         transform="translate(21.702836,0.6546469)">
        <g
           id="g1"
           transform="matrix(0.93177749,0,0,0.93177749,-13.833945,1.6016693)">
          <path
             id="rect1"
             style="fill-opacity:0;stroke:#f9f9f9;stroke-width:0.942789"
             d="m 26.668419,14.352791 h 12.425165 c 3.927061,0 7.088558,3.161497 7.088558,7.088559 v 23.263136 c 0,3.927062 -3.161497,7.088559 -7.088558,7.088559 H 26.668419 c -3.927061,0 -7.088558,-3.161497 -7.088558,-7.088559 V 21.44135 c 0,-3.927062 3.161497,-7.088559 7.088558,-7.088559 z" />
          <path
             style="font-size:14.4826px;line-height:1.25;font-family:'AR UDJingXiHeiE1G30 EB';-inkscape-font-specification:'AR UDJingXiHeiE1G30 EB';fill:#f9f9f9;stroke-width:0.301722"
             d="m 35.832506,29.412688 q -0.535856,0.753095 -1.346882,1.11516 -0.796543,0.347582 -1.824808,0.347582 -2.259285,0 -3.591684,-1.419294 -1.3324,-1.433778 -1.3324,-3.997198 0,-2.577903 1.404813,-3.997198 1.404812,-1.419295 3.794441,-1.419295 1.926186,0 3.128241,0.883439 1.216539,0.868956 1.462743,2.491007 h -1.83929 q -0.144826,-0.854473 -0.854474,-1.390329 -0.695164,-0.550339 -1.89722,-0.550339 -1.607569,0 -2.44756,1.042747 -0.83999,1.028265 -0.83999,2.939968 0,2.042047 0.883438,3.012381 0.883439,0.955851 2.404112,0.955851 1.332399,0 2.114459,-0.78206 0.782061,-0.78206 0.782061,-1.795842 v -0.217239 h -2.968933 v -1.433778 h 4.73581 v 5.488906 h -1.766877 z"
             id="text2"
             aria-label="G" />
          <path
             style="font-size:14.3917px;line-height:1.25;font-family:'AR UDJingXiHeiE1G30 EB';-inkscape-font-specification:'AR UDJingXiHeiE1G30 EB';fill:#f9f9f9;stroke-width:0.261667"
             d="m 32.103855,40.114326 q 0,2.720031 -0.877894,4.015284 -0.877894,1.295253 -2.720031,1.295253 -1.784571,0 -2.70564,-1.295253 -0.921069,-1.295253 -0.921069,-4.015284 0,-2.907123 0.877894,-4.173593 0.877894,-1.280861 2.748815,-1.280861 1.827746,0 2.705639,1.280861 0.892286,1.26647 0.892286,4.173593 z m -3.597925,3.885759 q 0.921068,0 1.352819,-0.906677 0.431751,-0.921069 0.431751,-2.979082 0,-2.216322 -0.417359,-3.122999 -0.402967,-0.906677 -1.367211,-0.906677 -0.964244,0 -1.381604,0.921069 -0.417359,0.906677 -0.417359,3.108607 0,2.043621 0.431751,2.96469 0.431751,0.921069 1.367212,0.921069 z m 8.706968,1.424778 q -0.820327,0 -1.496737,-0.230267 -0.662018,-0.230267 -1.136944,-0.733977 -0.575668,-0.590059 -0.863502,-1.597478 -0.287834,-1.021811 -0.287834,-2.532939 0,-2.691248 0.978635,-4.173593 0.993028,-1.496737 2.835165,-1.496737 1.496737,0 2.317064,0.805935 0.834719,0.805935 0.921069,1.986055 h -1.755788 q -0.02878,-0.489318 -0.402967,-0.921069 -0.359793,-0.446143 -1.064986,-0.446143 -0.93546,0 -1.482345,1.021811 -0.532493,1.021811 -0.546885,2.532939 0.431751,-0.59006 1.050594,-0.892285 0.618844,-0.302226 1.395995,-0.302226 1.43917,0 2.259497,0.949852 0.820327,0.935461 0.820327,2.432197 0,1.727004 -0.978636,2.662465 -0.978635,0.93546 -2.561722,0.93546 z m 1.727004,-3.525966 q 0,-0.892286 -0.489318,-1.453562 -0.474926,-0.575668 -1.252078,-0.575668 -0.84911,0 -1.35282,0.546885 -0.489317,0.532493 -0.518101,1.43917 0,1.007419 0.489318,1.583087 0.50371,0.561276 1.367212,0.561276 0.834718,0 1.295252,-0.546885 0.460535,-0.546884 0.460535,-1.554303 z"
             id="text3"
             aria-label="06" />
          <path
             style="font-weight:500;font-size:72px;line-height:1.25;font-family:'Noto Sans TC';-inkscape-font-specification:'Noto Sans TC Medium';white-space:pre;fill:#f9f9f9"
             d="m 190.47342,91.809406 h 6.48 v 38.520004 h -6.48 z m -13.896,10.944004 v 4.392 h 34.56 v -4.392 z m 0,-8.784004 v 4.392 h 34.56 v -4.392 z m -6.552,-4.608 h 47.952 v 22.464004 h -47.952 z m 46.296,26.208004 h 6.624 v 19.44 q 0,2.232 -0.504,3.456 -0.432,1.296 -2.016,2.016 -1.512,0.72 -3.816,0.864 -2.232,0.144 -5.472,0.144 -0.216,-1.296 -0.792,-2.88 -0.504,-1.512 -1.08,-2.664 2.088,0.072 3.744,0.072 1.656,0 2.232,-0.072 0.648,0 0.864,-0.216 0.216,-0.144 0.216,-0.792 z m -40.536,13.032 q 4.104,-0.144 9.36,-0.36 5.328,-0.216 11.232,-0.504 5.976,-0.288 12.024,-0.576 l -0.072,5.4 q -5.76,0.36 -11.592,0.72 -5.76,0.288 -11.016,0.576 -5.184,0.288 -9.432,0.576 z m 25.992,-5.328 5.112,-1.44 q 1.44,2.016 2.736,4.392 1.368,2.304 2.376,4.608 1.008,2.304 1.44,4.176 l -5.4,1.584 q -0.36,-1.8 -1.368,-4.104 -0.936,-2.376 -2.232,-4.752 -1.224,-2.448 -2.664,-4.464 z m -24.192,-48.600004 h 6.696 v 13.68 h -6.696 z m 25.416,0 h 6.696 v 13.68 h -6.696 z m -41.112,4.032 h 30.6 v 5.76 h -30.6 z m 33.192,0 h 30.6 v 5.76 h -30.6 z m -32.472,36.864004 h 56.736 v 5.616 h -56.736 z m 2.808,-2.376 h 6.552 v 28.224 h -6.552 z m 86.04,-35.424004 1.008,-0.288 4.392,2.664 q -0.936,3.024 -2.16,6.48 -1.152,3.456 -2.376,6.84 -1.152,3.312 -2.304,6.264 3.672,4.392004 4.824,8.208004 1.152,3.816 1.152,7.128 0,3.096 -0.72,5.4 -0.72,2.232 -2.304,3.384 -0.792,0.576 -1.8,0.936 -1.008,0.288 -2.088,0.504 -1.08,0.072 -2.304,0.144 -1.224,0 -2.52,-0.072 -0.072,-1.224 -0.504,-2.952 -0.36,-1.728 -1.08,-2.952 1.08,0.072 2.016,0.144 0.936,0 1.728,-0.072 1.296,0 2.16,-0.576 0.792,-0.576 1.08,-1.8 0.288,-1.296 0.288,-2.88 0,-2.808 -1.152,-6.264 -1.152,-3.528 -4.68,-7.56 0.864,-2.448004 1.728,-5.256004 0.936,-2.88 1.728,-5.76 0.864,-2.88 1.512,-5.4 0.72,-2.52 1.224,-4.32 v -1.944 z m 0.864,0 v 6.12 h -10.944 v 57.672004 h -5.976 V 77.769406 Z m 28.512,32.760004 v 26.568 h -6.408 v -26.568 z m -11.88,0.504 q -1.512,4.104 -3.816,8.136 -2.232,3.96 -4.608,6.696 -0.576,-0.504 -1.512,-1.008 -0.864,-0.576 -1.8,-1.08 -0.936,-0.576 -1.728,-0.864 2.592,-2.52 4.608,-5.976 2.016,-3.528 3.168,-7.2 z m 8.856,-35.352004 q -2.88,5.256 -7.344,10.296 -4.392,5.04 -10.8,9.144 -0.504,-0.72 -1.296,-1.512 -0.72,-0.864 -1.584,-1.656 -0.792,-0.792 -1.512,-1.224 5.976,-3.384 9.936,-7.776 4.032,-4.392 6.048,-8.496 z m -8.352,8.28 q 2.808,4.248 7.416,7.632 4.68,3.384 10.728,5.688 6.048,2.304 12.96,3.456004 -0.936,0.936 -2.088,2.52 -1.08,1.584 -1.728,2.88 -7.128,-1.44 -13.32,-4.248 -6.192,-2.808004 -11.088,-6.840004 -4.896,-4.032 -8.136,-9.144 z m 20.232,-3.528 1.008,-0.288 4.104,2.304 q -2.52,4.824 -6.552,8.784 -3.96,3.96 -8.856,6.984 -4.824,3.024004 -10.296,5.256004 -5.4,2.16 -10.944,3.6 -0.504,-1.152 -1.512,-2.736 -0.936,-1.656 -1.8,-2.592 5.112,-1.08 10.224,-2.952004 5.112,-1.872 9.648,-4.464 4.608,-2.664 8.136,-5.832 3.6,-3.24 5.616,-7.056 v -1.008 z m 4.68,44.064004 v 4.968 h -32.616 v -4.968 z m 4.536,9.864 v 5.472 h -43.272 v -5.472 z m -8.28,-30.168 v 4.896 h -25.416 v -4.896 z m 4.896,10.944 v 5.04 h -32.616 v -5.04 z m -5.04,-34.704004 v 5.04 h -21.384 v -5.04 z"
             id="text4"
             transform="matrix(0.26166763,0,0,0.26166763,8.6238305,-4.0633201)"
             aria-label="萬隆" />
          <path
             style="font-size:7.32669px;line-height:1.25;font-family:'AR UDJingXiHeiE1G30 EB';-inkscape-font-specification:'AR UDJingXiHeiE1G30 EB';fill:#f9f9f9;stroke-width:0.261667"
             d="m 53.968053,36.820106 -1.069697,4.066313 H 51.93856 l -1.362765,-5.297197 h 0.989103 l 0.88653,4.015026 1.033063,-4.015026 h 0.981777 l 1.01841,4.015026 0.937816,-4.015026 h 0.959796 l -1.399398,5.297197 h -0.959796 z m 6.872433,1.926919 -0.835243,-2.263947 -0.849896,2.263947 z m -1.956226,0.725343 -0.527522,1.414051 h -0.945143 l 2.132067,-5.297197 h 0.952469 l 2.117414,5.297197 h -0.967123 l -0.534849,-1.414051 z m 5.267884,-2.410482 v 3.824533 h -0.93049 v -5.297197 h 0.959796 l 2.600975,3.912452 v -3.912452 h 0.93049 v 5.297197 h -1.01841 z m 8.498956,3.824533 h -3.721959 v -5.297197 h 0.93049 v 4.571854 H 72.6511 Z m 5.861357,-2.622955 q 0,1.274844 -0.710689,2.000186 -0.703362,0.718016 -1.926919,0.718016 -1.245538,0 -1.9489,-0.725343 -0.703362,-0.725342 -0.703362,-1.992859 0,-1.289498 0.710689,-2.022167 0.710689,-0.739996 1.941573,-0.739996 1.245537,0 1.941573,0.732669 0.696035,0.732669 0.696035,2.029494 z m -2.637608,1.992859 q 0.798609,0 1.230884,-0.527521 0.439601,-0.527522 0.439601,-1.465338 0,-0.93049 -0.439601,-1.479992 -0.439602,-0.556828 -1.230884,-0.556828 -0.805936,0 -1.252864,0.564155 -0.439602,0.556828 -0.439602,1.472665 0,0.937816 0.446928,1.465338 0.446928,0.527521 1.245538,0.527521 z m 4.579182,-3.194437 v 3.824533 h -0.930489 v -5.297197 h 0.959796 l 2.600975,3.912452 v -3.912452 h 0.93049 v 5.297197 h -1.01841 z m 8.66747,3.179784 q -0.271087,0.380988 -0.681382,0.564155 -0.402968,0.175841 -0.923163,0.175841 -1.142964,0 -1.817019,-0.718016 -0.674056,-0.725342 -0.674056,-2.022166 0,-1.304151 0.710689,-2.022167 0.710689,-0.718016 1.919593,-0.718016 0.97445,0 1.582565,0.446929 0.615442,0.439601 0.739996,1.26019 h -0.93049 q -0.07327,-0.432274 -0.432274,-0.703362 -0.351682,-0.278414 -0.959797,-0.278414 -0.813263,0 -1.238211,0.527521 -0.424948,0.520195 -0.424948,1.487319 0,1.033063 0.446929,1.523951 0.446928,0.483562 1.21623,0.483562 0.674056,0 1.069697,-0.395642 0.395641,-0.395641 0.395641,-0.908509 V 38.834945 H 87.61953 v -0.725342 h 2.395827 v 2.776816 h -0.893856 z"
             id="text5"
             aria-label="WANLONG" />
          <path
             d="m 50.856608,43.937572 h 6.44016 v 0.681382 h -6.44016 z m 2.315234,2.044146 h 3.011269 v 0.674056 h -3.011269 z m 2.769489,0 h 0.718015 q 0,0 0,0.06594 0,0.05861 -0.0073,0.139207 0,0.07327 -0.0073,0.117227 -0.03663,0.879203 -0.08792,1.494645 -0.05129,0.615442 -0.117227,1.025736 -0.05861,0.410295 -0.139207,0.652076 -0.08059,0.24178 -0.183167,0.359007 -0.146534,0.161188 -0.315048,0.219801 -0.161187,0.06594 -0.388314,0.08792 -0.205148,0.02198 -0.564155,0.01465 -0.351681,-0.0073 -0.725343,-0.02198 -0.0073,-0.153861 -0.07327,-0.351681 -0.06594,-0.190494 -0.168513,-0.329701 0.395641,0.02931 0.747322,0.03663 0.351681,0.0073 0.505542,0.0073 0.13188,0.0073 0.205147,-0.0073 0.08059,-0.02198 0.146534,-0.08059 0.117227,-0.1099 0.19782,-0.468908 0.08059,-0.366334 0.139207,-1.055043 0.06594,-0.696036 0.117228,-1.780386 z m -3.216417,-1.479991 h 0.725342 q -0.02198,0.622769 -0.06594,1.274844 -0.04396,0.644749 -0.175841,1.282171 -0.124554,0.630095 -0.373661,1.21623 -0.241781,0.578809 -0.659402,1.077024 -0.417622,0.490888 -1.06237,0.864549 -0.08059,-0.139207 -0.227128,-0.300394 -0.139207,-0.15386 -0.278414,-0.256434 0.608115,-0.322374 0.99643,-0.769303 0.388314,-0.446928 0.608115,-0.974449 0.219801,-0.527522 0.322375,-1.099004 0.1099,-0.578808 0.139207,-1.164944 0.03663,-0.586135 0.05129,-1.15029 z m 8.923908,-0.520195 h 2.095434 v 0.542175 h -2.095434 z m -0.446928,3.297011 h 3.23107 v 0.542175 h -3.23107 z m -0.835243,2.23464 h 4.396015 v 0.564155 H 60.366651 Z M 61.026054,48.3922 h 3.282357 v 0.534848 h -3.282357 z m 2.578994,-4.410668 h 0.124554 l 0.117227,-0.02198 0.417622,0.190494 q -0.227128,0.571482 -0.600789,1.033063 -0.366335,0.454255 -0.842569,0.805936 -0.468909,0.344355 -1.01841,0.593462 -0.542175,0.241781 -1.120984,0.395641 -0.05129,-0.124553 -0.15386,-0.285741 -0.09525,-0.168513 -0.183168,-0.26376 0.534849,-0.124554 1.033064,-0.329702 0.505541,-0.212474 0.937816,-0.505541 0.439601,-0.300394 0.769302,-0.674056 0.337028,-0.380988 0.520195,-0.835242 z m -1.824345,0.395641 q 0.271087,0.476235 0.732669,0.871876 0.461581,0.388315 1.055043,0.666729 0.600789,0.271088 1.296824,0.410295 -0.1099,0.102574 -0.227127,0.271087 -0.117227,0.161188 -0.190494,0.285741 -0.710689,-0.17584 -1.326131,-0.498215 -0.608115,-0.329701 -1.091677,-0.783955 -0.476235,-0.461582 -0.798609,-1.033064 z m 0.09525,-0.967123 0.659402,0.109901 q -0.271088,0.564155 -0.703363,1.12831 -0.432274,0.556828 -1.069696,1.01841 -0.04396,-0.07327 -0.124554,-0.161187 -0.07327,-0.08792 -0.161187,-0.161188 -0.08792,-0.08059 -0.161187,-0.124553 0.388314,-0.256435 0.688708,-0.564155 0.300395,-0.307721 0.520195,-0.630096 0.219801,-0.322374 0.351682,-0.615442 z m -0.659403,3.245724 0.586136,0.139207 q -0.146534,0.483562 -0.402968,0.937816 -0.249108,0.446928 -0.534849,0.754649 -0.05861,-0.05861 -0.146533,-0.124553 -0.08792,-0.06594 -0.183168,-0.131881 -0.08792,-0.06594 -0.161187,-0.102573 0.278414,-0.278415 0.498215,-0.666729 0.219801,-0.388315 0.344354,-0.805936 z m 1.084351,-0.01465 H 62.9603 v 3.16513 h -0.659402 z m -4.000373,-2.916023 h 1.721772 v 0.622769 H 58.90864 v 5.868678 h -0.608115 z m 1.516625,0 h 0.1099 l 0.102574,-0.02931 0.454254,0.263761 q -0.102573,0.307721 -0.2198,0.659402 -0.117227,0.344354 -0.241781,0.681382 -0.117227,0.337028 -0.234454,0.630096 0.373661,0.439601 0.490888,0.820589 0.117227,0.380988 0.117227,0.718016 0,0.315047 -0.07327,0.542175 -0.06594,0.227127 -0.234454,0.344354 -0.08059,0.05861 -0.183167,0.09525 -0.09525,0.02931 -0.212474,0.05129 -0.212474,0.02198 -0.483562,0.0073 -0.0073,-0.124554 -0.05129,-0.293068 -0.03663,-0.175841 -0.109901,-0.300394 0.109901,0.0073 0.205147,0.0073 0.09525,0 0.175841,0 0.139207,-0.0073 0.219801,-0.06594 0.07327,-0.05861 0.102573,-0.183167 0.02931,-0.124554 0.02931,-0.285741 0,-0.278414 -0.117227,-0.630095 -0.117227,-0.351682 -0.476235,-0.754649 0.09525,-0.249108 0.183168,-0.534849 0.08792,-0.285741 0.168513,-0.571482 0.08792,-0.293067 0.153861,-0.542175 0.07327,-0.256434 0.124554,-0.432275 z"
             id="text5-9"
             style="font-weight:500;font-size:7.32669px;line-height:1.25;font-family:'Noto Sans JP';-inkscape-font-specification:'Noto Sans JP Medium';fill:#f9f9f9;stroke-width:0.261667"
             aria-label="万隆" />
          <path
             style="font-weight:500;font-size:7.32669px;line-height:1.25;font-family:'Noto Sans KR';-inkscape-font-specification:'Noto Sans KR Medium';fill:#f9f9f9;stroke-width:0.261667"
             d="m 74.089573,46.339682 h 0.761975 v 1.011083 h -0.761975 z m 0.366334,-2.461768 q 0.483562,0 0.857223,0.168514 0.380988,0.168514 0.593462,0.476235 0.212474,0.300394 0.212474,0.696035 0,0.395642 -0.212474,0.703363 -0.212474,0.300394 -0.593462,0.468908 -0.373661,0.168514 -0.857223,0.168514 -0.483561,0 -0.857223,-0.168514 -0.373661,-0.168514 -0.586135,-0.468908 -0.212474,-0.307721 -0.212474,-0.703363 0,-0.395641 0.212474,-0.696035 0.212474,-0.307721 0.586135,-0.476235 0.373662,-0.168514 0.857223,-0.168514 z m 0,0.586135 q -0.271087,0 -0.490888,0.09525 -0.212474,0.08792 -0.329701,0.263761 -0.117227,0.168514 -0.117227,0.395641 0,0.227128 0.117227,0.402968 0.117227,0.168514 0.329701,0.263761 0.219801,0.08792 0.490888,0.08792 0.278414,0 0.490888,-0.08792 0.212474,-0.09525 0.329701,-0.263761 0.124554,-0.17584 0.124554,-0.402968 0,-0.227127 -0.124554,-0.395641 -0.117227,-0.175841 -0.329701,-0.263761 -0.212474,-0.09525 -0.490888,-0.09525 z m 2.469095,-0.871876 h 0.761976 v 5.11403 h -0.761976 z m 0.468908,2.19068 h 1.21623 v 0.637422 h -1.21623 z m -4.037006,3.743939 h 4.564528 v 0.622769 h -4.564528 z m 0,-1.252864 h 0.769302 v 1.523952 h -0.769302 z m -0.835243,-0.505542 -0.08792,-0.615441 q 0.571481,0 1.267517,-0.01465 0.703362,-0.01465 1.428705,-0.05861 0.732669,-0.04396 1.399397,-0.139208 l 0.05861,0.556829 q -0.688709,0.124554 -1.414051,0.183167 -0.725343,0.05861 -1.406725,0.07327 -0.674055,0.01465 -1.245537,0.01465 z m 6.667289,-0.754649 h 6.066499 v 0.608116 H 79.18895 Z m 2.644935,0.219801 h 0.769302 v 1.216231 h -0.769302 z m -1.890286,-3.465524 h 4.549874 v 1.677812 h -3.780572 v 0.835242 h -0.754649 v -1.384744 h 3.773246 v -0.534848 h -3.787899 z m 0.01465,2.227313 h 4.667102 v 0.593462 h -4.667102 z m 2.241967,2.117414 q 1.113657,0 1.721773,0.278414 0.608115,0.278414 0.608115,0.813263 0,0.520195 -0.608115,0.798609 -0.608116,0.278414 -1.721773,0.278414 -1.10633,0 -1.714445,-0.278414 -0.608115,-0.278414 -0.608115,-0.805936 0,-0.527522 0.608115,-0.805936 0.608115,-0.278414 1.714445,-0.278414 z m 0.0073,0.571482 q -0.769302,0 -1.164944,0.13188 -0.388314,0.124554 -0.388314,0.380988 0,0.168514 0.17584,0.285741 0.175841,0.117227 0.520195,0.175841 0.351682,0.05129 0.857223,0.05129 0.505542,0 0.849896,-0.05129 0.344355,-0.05861 0.520195,-0.175841 0.183167,-0.117227 0.183167,-0.285741 0,-0.256434 -0.395641,-0.380988 -0.395641,-0.13188 -1.157617,-0.13188 z"
             id="text5-9-8"
             aria-label="완룽" />
        </g>
      </g>
    </g>
    <text
       xml:space="preserve"
       transform="matrix(0.31615295,0,0,0.31615295,0.2809891,-6.4462013)"
       id="text6"
       style="font-size:55px;line-height:1.25;font-family:'Microsoft JhengHei';-inkscape-font-specification:'Microsoft JhengHei';white-space:pre;shape-inside:url(#rect6);display:inline" />
  </g>
</svg>
