<?xml version="1.0" encoding="UTF-8" standalone="no"?>
<!-- Created with Inkscape (http://www.inkscape.org/) -->

<svg
   width="500"
   height="250"
   viewBox="0 0 132.29166 66.145833"
   version="1.1"
   id="svg1"
   inkscape:version="1.3.2 (091e20e, 2023-11-25, custom)"
   sodipodi:docname="g067.svg"
   xmlns:inkscape="http://www.inkscape.org/namespaces/inkscape"
   xmlns:sodipodi="http://sodipodi.sourceforge.net/DTD/sodipodi-0.dtd"
   xmlns="http://www.w3.org/2000/svg"
   xmlns:svg="http://www.w3.org/2000/svg">
  <sodipodi:namedview
     id="namedview1"
     pagecolor="#9e652e"
     bordercolor="#ffffff"
     borderopacity="1"
     inkscape:showpageshadow="0"
     inkscape:pageopacity="0"
     inkscape:pagecheckerboard="false"
     inkscape:deskcolor="#d1d1d1"
     inkscape:document-units="mm"
     inkscape:zoom="2.0208096"
     inkscape:cx="302.84892"
     inkscape:cy="106.88785"
     inkscape:window-width="1920"
     inkscape:window-height="1009"
     inkscape:window-x="1912"
     inkscape:window-y="-8"
     inkscape:window-maximized="1"
     inkscape:current-layer="layer1" />
  <defs
     id="defs1">
    <rect
       x="560.66638"
       y="34.144731"
       width="279.32397"
       height="128.59143"
       id="rect6" />
    <rect
       x="157.85752"
       y="62.351248"
       width="381.61437"
       height="132.30098"
       id="rect4" />
    <rect
       x="157.85751"
       y="62.35125"
       width="329.07602"
       height="135.09438"
       id="rect4-5" />
    <rect
       x="157.85751"
       y="62.35125"
       width="329.07602"
       height="135.09438"
       id="rect4-5-8" />
    <rect
       x="157.85751"
       y="62.35125"
       width="329.07602"
       height="135.09438"
       id="rect4-5-1" />
  </defs>
  <g
     inkscape:label="Layer 1"
     inkscape:groupmode="layer"
     id="layer1">
    <rect
       style="fill:#007846;fill-opacity:1;stroke:none;stroke-width:0.953294;stroke-dasharray:none"
       id="rect5"
       width="132.29167"
       height="66.145836"
       x="-2.5431316e-06"
       y="-1.2715658e-06"
       ry="0" />
    <text
       xml:space="preserve"
       transform="matrix(0.31615295,0,0,0.31615295,0.2809891,-6.4462013)"
       id="text6"
       style="font-size:55px;line-height:1.25;font-family:'Microsoft JhengHei';-inkscape-font-specification:'Microsoft JhengHei';white-space:pre;shape-inside:url(#rect6);display:inline" />
    <g
       id="g9"
       transform="matrix(0.94914033,0,0,0.94914033,-25.763963,1.6820777)">
      <g
         id="g8"
         transform="matrix(1.0971342,0,0,1.0971342,1.7347826,-3.2125113)">
        <g
           id="g7"
           transform="translate(21.702836,0.6546469)">
          <g
             id="g1"
             transform="matrix(0.93177749,0,0,0.93177749,-13.833945,1.6016693)">
            <path
               id="rect1"
               style="fill-opacity:0;stroke:#f9f9f9;stroke-width:0.942789"
               d="m 26.668419,14.352791 h 12.425165 c 3.927061,0 7.088558,3.161497 7.088558,7.088559 v 23.263136 c 0,3.927062 -3.161497,7.088559 -7.088558,7.088559 H 26.668419 c -3.927061,0 -7.088558,-3.161497 -7.088558,-7.088559 V 21.44135 c 0,-3.927062 3.161497,-7.088559 7.088558,-7.088559 z" />
            <path
               style="font-size:14.4826px;line-height:1.25;font-family:'AR UDJingXiHeiE1G30 EB';-inkscape-font-specification:'AR UDJingXiHeiE1G30 EB';fill:#f9f9f9;stroke-width:0.301722"
               d="m 35.832506,29.412688 q -0.535856,0.753095 -1.346882,1.11516 -0.796543,0.347582 -1.824808,0.347582 -2.259285,0 -3.591684,-1.419294 -1.3324,-1.433778 -1.3324,-3.997198 0,-2.577903 1.404813,-3.997198 1.404812,-1.419295 3.794441,-1.419295 1.926186,0 3.128241,0.883439 1.216539,0.868956 1.462743,2.491007 h -1.83929 q -0.144826,-0.854473 -0.854474,-1.390329 -0.695164,-0.550339 -1.89722,-0.550339 -1.607569,0 -2.44756,1.042747 -0.83999,1.028265 -0.83999,2.939968 0,2.042047 0.883438,3.012381 0.883439,0.955851 2.404112,0.955851 1.332399,0 2.114459,-0.78206 0.782061,-0.78206 0.782061,-1.795842 v -0.217239 h -2.968933 v -1.433778 h 4.73581 v 5.488906 h -1.766877 z"
               id="text2"
               aria-label="G" />
            <path
               style="font-size:14.3917px;line-height:1.25;font-family:'AR UDJingXiHeiE1G30 EB';-inkscape-font-specification:'AR UDJingXiHeiE1G30 EB';fill:#f9f9f9;stroke-width:0.261667"
               d="m 32.103855,40.114326 q 0,2.720031 -0.877894,4.015284 -0.877894,1.295253 -2.720031,1.295253 -1.784571,0 -2.70564,-1.295253 -0.921069,-1.295253 -0.921069,-4.015284 0,-2.907123 0.877894,-4.173593 0.877894,-1.280861 2.748815,-1.280861 1.827746,0 2.705639,1.280861 0.892286,1.26647 0.892286,4.173593 z m -3.597925,3.885759 q 0.921068,0 1.352819,-0.906677 0.431751,-0.921069 0.431751,-2.979082 0,-2.216322 -0.417359,-3.122999 -0.402967,-0.906677 -1.367211,-0.906677 -0.964244,0 -1.381604,0.921069 -0.417359,0.906677 -0.417359,3.108607 0,2.043621 0.431751,2.96469 0.431751,0.921069 1.367212,0.921069 z m 6.562605,1.237686 3.669883,-8.98042 h -5.195404 v -1.424779 h 7.051933 v 1.194511 l -3.669883,9.210688 z"
               id="text3"
               aria-label="07" />
            <path
               style="font-weight:500;font-size:72px;line-height:1.25;font-family:'Noto Sans TC';-inkscape-font-specification:'Noto Sans TC Medium';white-space:pre;fill:#f9f9f9"
               d="m 201.27342,115.85741 6.552,-2.952 q 2.952,3.888 6.048,8.352 3.096,4.464 5.76,8.712 2.664,4.248 4.392,7.56 l -6.912,3.744 q -1.656,-3.384 -4.32,-7.776 -2.592,-4.464 -5.688,-9.072 -3.024,-4.608 -5.832,-8.568 z m -21.312,-39.312004 7.56,2.376 q -2.592,5.976 -6.12,11.736 -3.456,5.76 -7.416,10.800004 -3.888,4.968 -7.92,8.712 -0.576,-0.792 -1.728,-1.872 -1.08,-1.08 -2.232,-2.088 -1.152,-1.08 -2.088,-1.728 3.96,-3.312 7.704,-7.776004 3.744,-4.464 6.84,-9.648 3.168,-5.184 5.4,-10.512 z m -10.656,61.848004 q -0.288,-0.792 -0.792,-2.16 -0.432,-1.296 -0.936,-2.736 -0.504,-1.44 -1.08,-2.448 1.656,-0.432 3.24,-1.944 1.584,-1.584 3.744,-4.104 1.152,-1.224 3.24,-3.96 2.16,-2.808 4.752,-6.696 2.592,-3.888 5.256,-8.352 2.664,-4.464 4.824,-9.000004 l 7.848,3.312004 q -3.528,6.264 -7.632,12.456 -4.104,6.12 -8.496,11.664 -4.32,5.472 -8.64,9.864 v 0.216 q 0,0 -0.864,0.432 -0.792,0.36 -1.872,0.936 -1.008,0.576 -1.8,1.224 -0.792,0.72 -0.792,1.296 z m 0,0 -0.216,-5.76 4.752,-2.664 41.976,-2.52 q 0.216,1.584 0.648,3.456 0.504,1.872 0.864,3.024 -10.08,0.72 -17.352,1.296 -7.272,0.504 -12.312,0.864 -4.968,0.432 -8.208,0.72 -3.24,0.288 -5.184,0.504 -1.944,0.288 -3.096,0.504 -1.08,0.216 -1.872,0.576 z m 31.968,-61.992004 h 8.064 q 1.656,5.472 4.464,10.656 2.808,5.112 6.48,9.36 3.672,4.248004 7.992,6.984004 -0.792,0.72 -1.8,1.944 -1.008,1.152 -1.944,2.448 -0.864,1.224 -1.512,2.304 -4.464,-3.456 -8.352,-8.208 -3.888,-4.824004 -6.912,-10.368004 -2.952,-5.544 -4.824,-11.232 h -1.656 z m -9.792,0 h 15.48 v 7.056 h -15.48 z m 77.256,56.304004 h 22.32 v 5.832 h -22.32 z m -3.888,-38.664004 h 5.976 v 47.304004 h -5.976 z m 3.816,0 h 23.544 v 18.936004 h -23.544 v -5.544 h 17.712 v -7.848004 h -17.712 z m -8.064,-11.16 h 37.584 v 12.384 h -5.832 v -6.84 h -26.136 v 6.84 h -5.616 z m 7.56,35.352004 h 27.216 v 22.896 h -5.976 v -17.208 h -21.24 z m 6.048,-41.688004 5.976,-2.448 q 1.08,1.8 2.16,3.96 1.152,2.16 1.728,3.744 l -6.048,2.952 q -0.576,-1.656 -1.728,-3.96 -1.08,-2.376 -2.088,-4.248 z m -34.056,29.880004 h 14.832 v 4.824 h -14.832 z m 0.648,-9.936004 h 17.136 v 25.056004 h -17.28 v -5.04 h 11.232 v -14.976 h -11.088 z m 4.968,-14.76 2.88,-4.68 q 1.944,1.08 4.176,2.376 2.304,1.224 4.392,2.448 2.16,1.224 3.528,2.16 l -2.952,5.256 q -1.296,-1.008 -3.384,-2.304 -2.088,-1.368 -4.392,-2.736 -2.304,-1.368 -4.248,-2.52 z m 0.864,-7.776 5.4,1.944 q -1.944,3.6 -4.752,7.128 -2.736,3.528 -5.976,6.552 -3.24,3.024 -6.624,5.256 -0.144,-0.648 -0.648,-1.8 -0.504,-1.152 -1.08,-2.304 -0.576,-1.224 -1.08,-1.944 4.248,-2.592 8.28,-6.48 4.032,-3.96 6.48,-8.352 z m 1.872,50.616004 4.68,-2.016 q 1.296,2.304 2.664,4.968 1.44,2.592 2.664,5.112 1.224,2.448 1.944,4.248 l -4.968,2.448 q -0.72,-1.872 -1.872,-4.392 -1.152,-2.592 -2.52,-5.328 -1.368,-2.736 -2.592,-5.04 z m -12.456,16.848 q -0.144,-0.864 -0.504,-1.944 -0.36,-1.008 -0.864,-2.088 -0.432,-1.008 -0.936,-1.728 0.936,-0.36 1.8,-1.296 0.936,-0.936 0.936,-2.88 V 96.489406 h 5.904 v 40.176004 q 0,0 -0.936,0.432 -0.936,0.504 -2.232,1.224 -1.296,0.72 -2.232,1.512 -0.936,0.792 -0.936,1.584 z m 0,0 -0.648,-5.256 2.448,-2.232 16.632,-5.976 q 0.072,1.152 0.36,2.664 0.36,1.44 0.576,2.376 -5.832,2.304 -9.432,3.744 -3.6,1.512 -5.616,2.376 -1.944,0.864 -2.88,1.368 -0.936,0.504 -1.44,0.936 z m 6.048,-53.208004 h 12.456 v 4.68 h -12.456 z"
               id="text4"
               transform="matrix(0.26166763,0,0,0.26166763,8.6238305,-4.0633201)"
               aria-label="公館" />
            <path
               style="font-size:7.32669px;line-height:1.25;font-family:'AR UDJingXiHeiE1G30 EB';-inkscape-font-specification:'AR UDJingXiHeiE1G30 EB';fill:#f9f9f9;stroke-width:0.261667"
               d="m 55.037749,40.24167 q -0.271087,0.380988 -0.681382,0.564155 -0.402968,0.175841 -0.923163,0.175841 -1.142963,0 -1.817019,-0.718016 -0.674055,-0.725342 -0.674055,-2.022166 0,-1.304151 0.710689,-2.022167 0.710689,-0.718016 1.919592,-0.718016 0.97445,0 1.582566,0.446929 0.615441,0.439601 0.739995,1.26019 h -0.930489 q -0.07327,-0.432274 -0.432275,-0.703362 -0.351681,-0.278414 -0.959797,-0.278414 -0.813262,0 -1.23821,0.527521 -0.424948,0.520195 -0.424948,1.487319 0,1.033063 0.446928,1.523951 0.446928,0.483562 1.21623,0.483562 0.674056,0 1.069697,-0.395642 0.395641,-0.395641 0.395641,-0.908509 v -0.109901 h -1.501971 v -0.725342 h 2.395828 v 2.776816 h -0.893857 z m 7.084906,-1.978206 q 0,1.274844 -0.710689,2.000186 -0.703362,0.718016 -1.926919,0.718016 -1.245538,0 -1.9489,-0.725343 -0.703362,-0.725342 -0.703362,-1.992859 0,-1.289498 0.710689,-2.022167 0.710689,-0.739996 1.941573,-0.739996 1.245537,0 1.941573,0.732669 0.696035,0.732669 0.696035,2.029494 z m -2.637608,1.992859 q 0.798609,0 1.230884,-0.527521 0.439601,-0.527522 0.439601,-1.465338 0,-0.93049 -0.439601,-1.479992 -0.439602,-0.556828 -1.230884,-0.556828 -0.805936,0 -1.252864,0.564155 -0.439602,0.556828 -0.439602,1.472665 0,0.937816 0.446928,1.465338 0.446928,0.527521 1.245538,0.527521 z m 4.579182,-3.194437 v 3.824533 H 63.13374 v -5.297197 h 0.959796 l 2.600975,3.912452 v -3.912452 h 0.93049 v 5.297197 h -1.01841 z m 8.667469,3.179784 q -0.271087,0.380988 -0.681382,0.564155 -0.402968,0.175841 -0.923163,0.175841 -1.142964,0 -1.817019,-0.718016 -0.674056,-0.725342 -0.674056,-2.022166 0,-1.304151 0.710689,-2.022167 0.710689,-0.718016 1.919593,-0.718016 0.97445,0 1.582565,0.446929 0.615442,0.439601 0.739996,1.26019 h -0.93049 q -0.07327,-0.432274 -0.432274,-0.703362 -0.351682,-0.278414 -0.959797,-0.278414 -0.813262,0 -1.23821,0.527521 -0.424949,0.520195 -0.424949,1.487319 0,1.033063 0.446929,1.523951 0.446928,0.483562 1.21623,0.483562 0.674056,0 1.069697,-0.395642 0.395641,-0.395641 0.395641,-0.908509 v -0.109901 h -1.501971 v -0.725342 h 2.395827 v 2.776816 h -0.893856 z m 5.88333,0 q -0.271088,0.380988 -0.681383,0.564155 -0.402968,0.175841 -0.923163,0.175841 -1.142963,0 -1.817019,-0.718016 -0.674055,-0.725342 -0.674055,-2.022166 0,-1.304151 0.710689,-2.022167 0.710689,-0.718016 1.919593,-0.718016 0.974449,0 1.582565,0.446929 0.615442,0.439601 0.739995,1.26019 h -0.930489 q -0.07327,-0.432274 -0.432275,-0.703362 -0.351681,-0.278414 -0.959796,-0.278414 -0.813263,0 -1.238211,0.527521 -0.424948,0.520195 -0.424948,1.487319 0,1.033063 0.446928,1.523951 0.446928,0.483562 1.216231,0.483562 0.674055,0 1.069696,-0.395642 0.395642,-0.395641 0.395642,-0.908509 v -0.109901 h -1.501972 v -0.725342 h 2.395828 v 2.776816 h -0.893856 z m 6.432829,-1.208904 q 0,0.923163 -0.578809,1.436031 -0.578808,0.512869 -1.648505,0.512869 -1.08435,0 -1.670485,-0.505542 -0.578809,-0.505542 -0.578809,-1.436031 v -3.450871 h 0.93049 v 3.406911 q 0,0.600788 0.329701,0.930489 0.329701,0.329701 0.989103,0.329701 0.622769,0 0.95247,-0.315047 0.337028,-0.322375 0.337028,-0.959797 v -3.392257 h 0.937816 z m 4.000373,-0.285741 -0.835243,-2.263947 -0.849896,2.263947 z m -1.956226,0.725343 -0.527522,1.414051 h -0.945143 l 2.132067,-5.297197 h 0.95247 l 2.117413,5.297197 h -0.967123 l -0.534848,-1.414051 z m 5.267886,-2.410482 v 3.824533 h -0.930489 v -5.297197 h 0.959796 l 2.600975,3.912452 v -3.912452 h 0.93049 v 5.297197 h -1.01841 z"
               id="text5"
               aria-label="GONGGUAN" />
            <path
               d="m 53.413622,46.069639 0.82059,0.205147 q -0.168514,0.424948 -0.373662,0.871876 -0.205147,0.446928 -0.424948,0.893856 -0.212474,0.439602 -0.432274,0.84257 -0.219801,0.395641 -0.417622,0.725342 l -0.644748,-0.205147 q 0.19782,-0.337028 0.402968,-0.747323 0.212474,-0.417621 0.410294,-0.864549 0.197821,-0.446928 0.366335,-0.88653 0.17584,-0.439601 0.293067,-0.835242 z m -2.351867,3.12117 q 0.512868,-0.02198 1.15029,-0.04396 0.637422,-0.02198 1.348111,-0.05129 0.718016,-0.03663 1.465338,-0.07327 0.747323,-0.03663 1.479992,-0.06594 l -0.02198,0.666728 q -0.945143,0.05861 -1.912267,0.109901 -0.967123,0.05861 -1.846325,0.102573 -0.879203,0.05129 -1.567912,0.08792 z m 3.765919,-1.509298 0.666728,-0.307721 q 0.329701,0.388314 0.659403,0.842569 0.337027,0.446928 0.622768,0.879203 0.285741,0.424948 0.468908,0.769302 l -0.710689,0.380988 Q 56.366279,49.901498 56.087864,49.45457 55.80945,49.007641 55.479749,48.54606 55.150048,48.077152 54.827674,47.681511 Z m -2.168701,-4.080967 0.783956,0.219801 q -0.241781,0.586135 -0.571482,1.142963 -0.322374,0.556829 -0.696035,1.040391 -0.366335,0.476234 -0.754649,0.827915 -0.06594,-0.07327 -0.190494,-0.168513 -0.124554,-0.09525 -0.256434,-0.190494 -0.124554,-0.09525 -0.219801,-0.146534 0.395641,-0.322374 0.747322,-0.754649 0.359008,-0.432275 0.659402,-0.937817 0.300395,-0.505541 0.498215,-1.033063 z m 2.769489,0.0073 q 0.168514,0.344354 0.410295,0.710689 0.241781,0.359008 0.512868,0.718015 0.278414,0.351682 0.556829,0.659403 0.285741,0.307721 0.534848,0.542175 -0.08792,0.06594 -0.205147,0.17584 -0.109901,0.102574 -0.212474,0.219801 -0.09525,0.1099 -0.168514,0.205147 -0.256434,-0.271087 -0.542175,-0.622768 -0.278415,-0.351682 -0.564155,-0.739996 -0.285741,-0.395641 -0.549502,-0.798609 -0.256434,-0.402968 -0.468908,-0.791283 z m 6.374221,5.648878 h 2.483748 v 0.593462 h -2.483748 z m -0.285741,-3.861166 h 0.637422 v 4.813636 h -0.637422 z m 0.285741,0 h 2.447114 v 1.897613 h -2.447114 v -0.564155 h 1.809692 v -0.776629 h -1.809692 z m -0.718016,-1.201577 h 3.641365 v 1.296824 h -0.644749 v -0.725342 h -2.373847 v 0.725342 h -0.622769 z m 1.443358,-0.791283 H 63.20208 V 44.4944 h -0.674055 z m -0.725342,4.439975 h 2.754835 v 2.322561 H 63.912769 V 48.41418 h -2.110086 z m -2.366521,-3.128497 h 0.571482 v 0.915836 h -0.571482 z m -0.967123,0.659402 h 0.615442 v 4.080967 h -0.615442 z m 0.395641,0.989103 h 1.655832 v 0.461582 H 58.86468 Z m -0.871876,2.94533 q 0.315047,-0.06594 0.710689,-0.153861 0.402968,-0.09525 0.857222,-0.19782 0.454255,-0.109901 0.901183,-0.219801 l 0.06594,0.556828 q -0.600789,0.175841 -1.223558,0.344355 -0.615442,0.168514 -1.113657,0.307721 z m 1.721772,-1.055044 0.549502,-0.24178 q 0.190494,0.26376 0.366334,0.564155 0.175841,0.300394 0.315048,0.593462 0.146534,0.293067 0.212474,0.527521 l -0.593462,0.271088 q -0.05861,-0.234454 -0.190494,-0.527522 -0.13188,-0.300394 -0.307721,-0.608115 -0.168514,-0.315048 -0.351681,-0.578809 z m -0.901183,-2.879389 h 1.99286 v 2.454441 h -1.99286 v -0.505541 h 1.384745 v -1.443358 h -1.384745 z m 0.439601,-1.963553 h 0.373662 v 0.139207 h 0.205147 v 0.183168 q -0.15386,0.28574 -0.373661,0.622768 -0.212474,0.337028 -0.505542,0.681382 -0.285741,0.344355 -0.674055,0.666729 -0.04396,-0.07327 -0.124554,-0.161187 -0.07327,-0.08792 -0.161187,-0.161187 -0.08059,-0.08059 -0.146534,-0.124554 0.344354,-0.271087 0.615442,-0.586135 0.271087,-0.315048 0.468908,-0.637422 0.205147,-0.329701 0.322374,-0.622769 z m 0.168514,0 h 0.483562 q 0.219801,0.183167 0.446928,0.410295 0.234454,0.219801 0.432275,0.446928 0.205147,0.219801 0.322374,0.410295 l -0.446928,0.505541 q -0.1099,-0.183167 -0.293068,-0.417621 -0.17584,-0.241781 -0.395641,-0.476235 -0.219801,-0.241781 -0.424948,-0.402968 h -0.124554 z"
               id="text5-9"
               style="font-weight:500;font-size:7.32669px;line-height:1.25;font-family:'Noto Sans JP';-inkscape-font-specification:'Noto Sans JP Medium';fill:#f9f9f9;stroke-width:0.261667"
               aria-label="公館" />
            <path
               style="font-weight:500;font-size:7.32669px;line-height:1.25;font-family:'Noto Sans KR';-inkscape-font-specification:'Noto Sans KR Medium';fill:#f9f9f9;stroke-width:0.261667"
               d="m 73.21037,43.855934 h 4.278787 v 0.615442 H 73.21037 Z m -0.761976,2.359194 h 6.0665 v 0.615442 h -6.0665 z m 2.637608,0.424948 h 0.769303 v 1.370091 h -0.769303 z m 1.919593,-2.784142 h 0.754649 v 0.505542 q 0,0.417621 -0.02931,0.937816 -0.02198,0.520195 -0.183168,1.186924 l -0.754649,-0.08059 q 0.161187,-0.659402 0.183168,-1.142964 0.02931,-0.490888 0.02931,-0.901182 z m -1.538605,3.897799 q 1.091677,0 1.714446,0.337028 0.622769,0.329701 0.622769,0.93049 0,0.600788 -0.622769,0.930489 -0.622769,0.329701 -1.714446,0.329701 -1.08435,0 -1.707118,-0.329701 -0.622769,-0.329701 -0.622769,-0.930489 0,-0.600789 0.622769,-0.93049 0.622768,-0.337028 1.707118,-0.337028 z m 0,0.615442 q -0.490888,0 -0.842569,0.08059 -0.351681,0.07327 -0.534848,0.2198 -0.183168,0.139207 -0.183168,0.351682 0,0.212474 0.183168,0.359007 0.183167,0.139207 0.534848,0.212474 0.351681,0.07327 0.842569,0.07327 0.498215,0 0.849896,-0.07327 0.351682,-0.07327 0.534849,-0.212474 0.183167,-0.146533 0.183167,-0.359007 0,-0.212475 -0.183167,-0.351682 -0.183167,-0.146533 -0.534849,-0.2198 -0.351681,-0.08059 -0.849896,-0.08059 z m 4.051661,-4.278787 H 82.442 v 0.622769 h -2.923349 z m 0.930489,1.531278 h 0.75465 v 1.670486 h -0.75465 z m 1.685139,-1.531278 h 0.754649 v 0.388315 q 0,0.337027 -0.02198,0.835242 -0.01465,0.490889 -0.139207,1.142964 l -0.754649,-0.08792 q 0.124554,-0.637422 0.139207,-1.091677 0.02198,-0.461582 0.02198,-0.798609 z m 1.553259,-0.505542 h 0.769302 v 5.033437 h -0.769302 z m 0.446928,2.124741 h 1.208904 v 0.630095 h -1.208904 z m -4.015027,3.817205 h 4.557202 v 0.622769 h -4.557202 z m 0,-1.362764 h 0.769303 v 1.553258 h -0.769303 z m -0.923163,-0.534849 -0.08059,-0.622768 q 0.593462,0 1.296824,-0.0073 0.710689,-0.01465 1.450685,-0.05861 0.739995,-0.05129 1.414051,-0.146533 l 0.05129,0.556828 q -0.696036,0.117227 -1.428705,0.183167 -0.732669,0.05861 -1.428704,0.07327 -0.688709,0.01465 -1.274845,0.02198 z"
               id="text5-9-8"
               aria-label="궁관" />
          </g>
        </g>
      </g>
      <path
         style="font-weight:500;font-size:72px;line-height:1.25;font-family:'Noto Sans TC';-inkscape-font-specification:'Noto Sans TC Medium';white-space:pre;fill:#f9f9f9"
         d="m 173.55342,131.04941 h 40.176 v 6.552 h -40.176 z m -3.384,-20.592 h 47.376 v 30.888 h -7.272 v -24.336 h -33.12 v 24.408 h -6.984 z m 30.312,-24.768004 5.328,-3.528 q 3.384,3.024 7.128,6.84 3.744,3.744 6.912,7.488 3.24,3.744004 5.112,6.768004 l -5.832,4.248 q -1.728,-3.096 -4.824,-6.912 -3.096,-3.816004 -6.768,-7.704004 -3.6,-3.888 -7.056,-7.2 z m -33.48,19.296004 q -0.144,-0.72 -0.576,-1.944 -0.36,-1.224 -0.792,-2.52 -0.432,-1.296004 -0.864,-2.160004 1.368,-0.288 2.736,-1.368 1.368,-1.152 3.168,-2.88 1.008,-0.864 2.88,-2.88 1.872,-2.016 4.176,-4.752 2.304,-2.736 4.68,-5.976 2.376,-3.24 4.392,-6.48 l 6.84,2.952 q -3.312,4.68 -7.128,9.144 -3.744,4.392 -7.632,8.28 -3.816,3.888 -7.632,6.984004 v 0.216 q 0,0 -0.648,0.36 -0.648,0.288 -1.512,0.864 -0.864,0.504 -1.512,1.08 -0.576,0.576 -0.576,1.08 z m 0,0 -0.072,-5.328004 4.824,-2.52 45.216,-1.8 q 0.072,1.368 0.288,3.168 0.216,1.800004 0.432,2.880004 -10.656,0.576 -18.36,1.008 -7.704,0.36 -13.032,0.648 -5.256,0.288 -8.712,0.576 -3.384,0.216 -5.472,0.432 -2.016,0.144 -3.168,0.36 -1.08,0.216 -1.944,0.576 z m 98.856,-17.064004 h 13.536 v 3.456 h -13.536 z m 0,5.472 h 13.536 v 3.384 h -13.536 z m -10.512,33.120004 h 36.504 v 4.392 h -36.504 z m 8.424,-44.640004 h 17.28 v 3.816 h -17.28 z m 6.192,20.592004 v 4.104 h 5.112 v -4.104 z m -4.248,-3.312004 h 13.752 v 10.728004 h -13.752 z m -9.144,20.232004 h 29.88 v -3.096 h -34.344 v -4.104 h 40.68 v 11.304 h -36.216 z m -2.016,0 h 6.336 q -0.72,3.024 -1.584,6.12 -0.792,3.024 -1.512,5.4 h -6.408 q 0.864,-2.448 1.656,-5.544 0.864,-3.168 1.512,-5.976 z m 35.136,7.128 h 6.408 q 0,0 -0.072,1.008 -0.072,0.936 -0.288,1.584 -1.008,4.464 -2.088,6.984 -1.08,2.592 -2.52,3.744 -1.224,0.864 -2.664,1.152 -1.368,0.36 -3.312,0.432 -1.656,0.072 -4.752,0 -3.024,0 -6.48,-0.144 -0.072,-1.152 -0.576,-2.592 -0.504,-1.44 -1.224,-2.592 3.384,0.36 6.552,0.432 3.168,0.072 4.464,0.072 1.152,0 1.872,-0.072 0.72,-0.072 1.224,-0.432 1.008,-0.792 1.8,-2.808 0.864,-2.088 1.656,-6.048 z m -56.088,-46.440004 3.96,-4.464 q 1.8,0.936 3.744,2.304 2.016,1.296 3.744,2.664 1.728,1.296 2.808,2.52 l -4.104,5.04 q -1.008,-1.224 -2.736,-2.664 -1.656,-1.44 -3.6,-2.808 -1.944,-1.44 -3.816,-2.592 z m -1.512,19.224 3.744,-4.68 q 1.872,0.864 3.888,2.16 2.088,1.224 3.816,2.52 1.8,1.224004 2.952,2.376004 l -3.96,5.184 q -1.08,-1.152 -2.88,-2.52 -1.728,-1.368 -3.744,-2.664 -2.016,-1.368 -3.816,-2.376004 z m 1.44,37.872004 q 1.368,-2.88 2.88,-6.696 1.584,-3.816 3.168,-8.064 1.656,-4.248 3.024,-8.352 l 5.4,3.456 q -1.152,3.816 -2.592,7.848 -1.44,4.032 -2.88,7.92 -1.44,3.888 -2.88,7.344 z m 24.912,-45.792004 3.024,-1.08 q 1.08,1.728 2.016,3.816 1.008,2.088 1.368,3.528 l -3.168,1.368 q -0.36,-1.512 -1.296,-3.672 -0.864,-2.16 -1.944,-3.96 z m 0.576,9.432004 2.952,-1.080004 q 0.864,1.800004 1.512,3.960004 0.72,2.16 0.936,3.672 l -3.168,1.368 q -0.144,-1.584 -0.864,-3.816 -0.648,-2.232 -1.368,-4.104 z m -10.296,0.216 3.528,0.936 q -0.432,2.592 -1.224,5.256 -0.792,2.664 -1.8,4.608 -0.576,-0.504 -1.512,-1.152 -0.936,-0.648 -1.656,-1.008 1.08,-1.872 1.656,-4.104 0.576,-2.232 1.008,-4.536 z m -0.432,-11.808004 q -0.144,-0.504 -0.576,-1.44 -0.432,-1.008 -0.792,-1.656 0.648,-0.144 1.152,-0.576 0.504,-0.504 1.08,-1.296 0.36,-0.504 1.224,-1.872 0.864,-1.44 1.728,-3.312 0.936,-1.944 1.44,-3.888 l 4.032,1.44 q -1.224,2.952 -3.096,5.832 -1.8,2.88 -3.744,4.968 v 0.072 q 0,0 -0.648,0.288 -0.576,0.288 -1.224,0.72 -0.576,0.36 -0.576,0.72 z m 0,0 -0.072,-3.096 2.448,-1.152 8.136,-0.432 q -0.216,0.792 -0.36,1.8 -0.144,1.008 -0.144,1.656 -3.6,0.216 -5.616,0.432 -2.016,0.216 -2.952,0.432 -0.936,0.144 -1.44,0.36 z m 0.216,9.72 q -0.144,-0.432 -0.576,-1.44 -0.432,-1.008 -0.864,-1.656 0.936,-0.144 1.728,-0.792 0.792,-0.648 1.728,-1.728 0.72,-0.648 2.16,-2.52 1.512,-1.872 3.168,-4.392 1.728,-2.52 3.024,-5.112 l 3.744,1.728 q -2.304,3.816 -5.256,7.56 -2.952,3.744 -6.048,6.48 v 0.144 q 0,0 -0.72,0.288 -0.72,0.288 -1.44,0.72 -0.648,0.36 -0.648,0.72 z m 0,0 -0.288,-3.096 2.304,-1.224 11.088,-1.296 q 0.072,0.72 0.288,1.728 0.288,0.936 0.504,1.512 -5.4,0.72 -8.208,1.224 -2.808,0.432 -3.96,0.72 -1.152,0.216 -1.728,0.432 z m 4.968,2.880004 3.24,-0.792 q 0.648,2.016 1.08,4.392 0.504,2.304 0.576,3.96 l -3.384,1.08 q -0.072,-1.728 -0.504,-4.104 -0.36,-2.448 -1.008,-4.536 z m 14.976,-25.488004 4.608,-1.008 q 0.792,1.296 1.584,2.952 0.864,1.584 1.296,2.736 l -4.752,1.296 q -0.36,-1.296 -1.152,-2.952 -0.792,-1.656 -1.584,-3.024 z m 23.832,14.976 2.952,-1.08 q 1.152,1.8 2.16,4.032 1.08,2.16 1.44,3.6 l -3.096,1.368 q -0.432,-1.584 -1.44,-3.816 -1.008,-2.232 -2.016,-4.104 z m 0.504,9.432004 2.952,-1.152004 q 1.008,2.160004 1.8,4.680004 0.864,2.52 1.152,4.32 l -3.168,1.44 q -0.216,-1.872 -1.008,-4.464 -0.792,-2.664 -1.728,-4.824 z m -10.296,0.072 3.6,0.864 q -0.432,2.592 -1.224,5.256 -0.792,2.664 -1.8,4.608 -0.576,-0.504 -1.512,-1.152 -0.936,-0.648 -1.584,-1.08 1.008,-1.8 1.584,-4.032 0.576,-2.232 0.936,-4.464 z m -0.288,-11.664004 q -0.216,-0.504 -0.648,-1.512 -0.432,-1.008 -0.792,-1.584 0.648,-0.144 1.152,-0.576 0.504,-0.504 1.008,-1.296 0.432,-0.504 1.224,-1.944 0.864,-1.44 1.8,-3.312 0.936,-1.872 1.512,-3.816 l 3.96,1.44 q -1.224,2.88 -3.096,5.76 -1.8,2.88 -3.744,5.04 v 0.072 q 0,0 -0.576,0.288 -0.576,0.288 -1.224,0.72 -0.576,0.36 -0.576,0.72 z m 0,0 -0.144,-3.024 2.448,-1.224 8.136,-0.432 q -0.216,0.792 -0.36,1.8 -0.144,0.936 -0.144,1.656 -3.672,0.216 -5.688,0.432 -2.016,0.216 -2.952,0.432 -0.864,0.144 -1.296,0.36 z m 0.144,9.72 q -0.144,-0.504 -0.576,-1.512 -0.432,-1.008 -0.864,-1.584 0.936,-0.144 1.728,-0.792 0.792,-0.648 1.728,-1.728 0.72,-0.72 2.16,-2.52 1.512,-1.872 3.168,-4.392 1.728,-2.52 2.952,-5.112 l 3.816,1.728 q -2.304,3.816 -5.256,7.56 -2.952,3.672 -6.12,6.48 v 0.144 q 0,0 -0.648,0.288 -0.648,0.288 -1.368,0.72 -0.72,0.36 -0.72,0.72 z m 0,0 -0.216,-3.168 2.232,-1.224 11.16,-1.224 q 0.072,0.72 0.288,1.728 0.288,0.936 0.432,1.512 -5.4,0.72 -8.208,1.152 -2.736,0.432 -3.96,0.72 -1.152,0.288 -1.728,0.504 z m 4.824,2.880004 3.24,-0.792 q 0.72,2.232 1.224,4.824 0.504,2.52 0.504,4.248 l -3.384,1.152 q 0,-1.8 -0.432,-4.464 -0.432,-2.664 -1.152,-4.968 z m 19.008,-6.984004 h 63.648 v 7.056004 h -63.648 z m 35.856,2.808 q 2.304,8.496004 6.192,15.840004 3.96,7.344 9.648,12.888 5.76,5.472 13.32,8.64 -0.864,0.72 -1.872,1.872 -0.936,1.152 -1.8,2.304 -0.864,1.224 -1.44,2.16 -7.992,-3.744 -13.968,-9.864 -5.904,-6.192 -10.008,-14.328 -4.104,-8.136 -6.912,-17.856004 z m -7.92,-22.896 h 7.416 q 0,5.112 -0.288,11.016 -0.216,5.832 -1.08,12.024 -0.864,6.192004 -2.808,12.384004 -1.944,6.192 -5.4,11.952 -3.456,5.76 -8.856,10.728 -5.4,4.896 -13.176,8.568 -0.864,-1.368 -2.304,-3.024 -1.44,-1.584 -2.88,-2.664 7.488,-3.384 12.6,-7.848 5.184,-4.536 8.352,-9.792 3.24,-5.328 4.968,-11.016 1.728,-5.688 2.448,-11.376004 0.72,-5.688 0.864,-11.016 0.144,-5.328 0.144,-9.936 z m 43.344,47.520004 h 64.8 v 5.544 h -64.8 z m 13.68,-12.528 h 32.976 v 4.968 h -32.976 z m 16.128,9.864 h 6.696 v 15.192 q 0,2.448 -0.72,3.744 -0.648,1.296 -2.592,2.016 -1.944,0.648 -4.896,0.72 -2.88,0.144 -7.128,0.144 -0.216,-1.296 -0.864,-2.88 -0.648,-1.584 -1.368,-2.88 2.088,0.072 3.96,0.072 1.944,0.072 3.384,0.072 1.512,0 2.016,0 0.864,0 1.152,-0.288 0.36,-0.216 0.36,-0.936 z m 15.12,-9.864 h 1.656 l 1.44,-0.36 3.888,3.528 q -2.592,1.944 -5.76,3.816 -3.168,1.872 -6.552,3.528 -3.312,1.656 -6.624,2.952 -0.576,-0.864 -1.584,-1.872 -0.936,-1.08 -1.584,-1.728 2.736,-1.008 5.616,-2.52 2.88,-1.512 5.4,-3.096 2.52,-1.656 4.104,-3.024 z m -43.488,-9.144 h 62.208 v 13.896 h -6.768 v -8.856 h -48.96 v 8.856 h -6.48 z m 51.768,-23.328004 h 6.48 q -0.216,4.248 -0.504,9 -0.288,4.752 -0.648,9.216 -0.36,4.464 -0.72,7.704004 h -6.552 q 0.432,-3.384004 0.792,-7.848004 0.432,-4.464 0.72,-9.216 0.288,-4.752 0.432,-8.856 z m -10.944,0 h 13.608 v 4.464 h -13.608 z m -22.32,-2.016 2.88,4.032 q -3.24,1.296 -7.416,2.16 -4.104,0.864 -7.344,1.368 l -2.376,-3.816 q 2.088,-0.432 4.68,-1.008 2.664,-0.648 5.184,-1.368 2.52,-0.792 4.392,-1.368 z m -10.872,9.792 h 13.32 v 4.464 h -13.32 z m 0.288,7.776 h 13.248 v 4.392 h -13.248 z m 33.336,-7.776 h 12.6 v 4.464 h -12.6 z m -0.36,7.776 h 12.456 v 4.392 h -12.456 z m -6.768,-17.496 4.536,1.296 q -2.376,3.312 -6.12,6.264 -3.744,2.952 -7.344,4.896 -0.576,-0.648 -1.728,-1.584 -1.152,-1.008 -2.016,-1.584 3.744,-1.728 7.128,-4.104 3.456,-2.448 5.544,-5.184 z m -11.232,3.528 3.24,-2.808 q 2.304,1.008 4.752,2.448 2.52,1.368 4.752,2.88 2.232,1.44 3.672,2.664 l -3.384,3.168 q -1.368,-1.296 -3.528,-2.808 -2.16,-1.512 -4.68,-2.952 -2.448,-1.512 -4.824,-2.592 z m 11.376,8.568 4.536,1.44 q -2.592,3.528 -6.48,6.696 -3.888,3.096 -7.848,5.184004 -0.504,-0.720004 -1.656,-1.800004 -1.152,-1.08 -1.872,-1.728 3.816,-1.728 7.416,-4.248 3.672,-2.592 5.904,-5.544 z m -11.664,3.6 3.24,-2.808 q 2.448,1.152 5.04,2.664 2.592,1.512 4.896,3.096 2.376,1.584 3.888,3.024 l -3.528,3.168004 q -1.368,-1.440004 -3.672,-3.024004 -2.232,-1.656 -4.824,-3.24 -2.592,-1.656 -5.04,-2.88 z m -18.36,-12.024 6.48,1.656 1.368,22.320004 h -6.408 z"
         id="text4-0"
         transform="matrix(0.12803532,0,0,0.12803532,86.650967,6.0454827)"
         aria-label="台灣大學" />
      <path
         style="font-size:3.52072px;line-height:1.25;font-family:'AR UDJingXiHeiE1G30 EB';-inkscape-font-specification:'AR UDJingXiHeiE1G30 EB';fill:#ffffff;stroke-width:0.12574"
         d="m 107.98148,26.161919 v 1.837816 h -0.44713 v -2.54548 h 0.46121 l 1.24986,1.880064 v -1.880064 h 0.44713 v 2.54548 h -0.48938 z m 3.65098,0.809766 -0.40136,-1.087903 -0.4084,1.087903 z m -0.94003,0.348551 -0.25349,0.679499 h -0.45417 l 1.02452,-2.54548 h 0.4577 l 1.01749,2.54548 h -0.46474 l -0.25701,-0.679499 z m 2.62645,-1.51743 h -0.79216 v -0.348551 h 2.02794 v 0.348551 h -0.78864 v 2.196929 h -0.44714 z m 2.0209,-0.348551 v 2.54548 h -0.44714 v -2.54548 z m 3.03133,1.285062 q 0,0.612606 -0.34151,0.961157 -0.33799,0.34503 -0.92595,0.34503 -0.59852,0 -0.93651,-0.348551 -0.33799,-0.348551 -0.33799,-0.957636 0,-0.619646 0.34151,-0.971718 0.34151,-0.355593 0.93299,-0.355593 0.59853,0 0.933,0.352072 0.33446,0.352072 0.33446,0.975239 z m -1.26746,0.957636 q 0.38376,0 0.59149,-0.253492 0.21124,-0.253491 0.21124,-0.704144 0,-0.447131 -0.21124,-0.711185 -0.21125,-0.267575 -0.59149,-0.267575 -0.38727,0 -0.60204,0.271096 -0.21124,0.267574 -0.21124,0.707664 0,0.450653 0.21476,0.704144 0.21477,0.253492 0.59852,0.253492 z m 2.20045,-1.535034 v 1.837816 h -0.44713 v -2.54548 h 0.46122 l 1.24985,1.880064 v -1.880064 h 0.44713 v 2.54548 h -0.48938 z m 3.65099,0.809766 -0.40136,-1.087903 -0.40841,1.087903 z m -0.94003,0.348551 -0.25349,0.679499 h -0.45418 l 1.02453,-2.54548 h 0.4577 l 1.01748,2.54548 h -0.46473 l -0.25701,-0.679499 z m 3.87279,0.679499 h -1.78853 v -2.54548 h 0.44713 v 2.196929 h 1.3414 z m 1.83429,-2.196929 h -0.79216 v -0.348551 h 2.02793 v 0.348551 h -0.78864 v 2.196929 h -0.44713 z m 2.92924,1.168879 -0.40136,-1.087903 -0.40841,1.087903 z m -0.94003,0.348551 -0.25349,0.679499 h -0.45418 l 1.02453,-2.54548 h 0.4577 l 1.01748,2.54548 h -0.46473 l -0.25701,-0.679499 z m 2.53139,-1.865981 v 2.54548 h -0.44713 v -2.54548 z m 1.93991,0.591481 -0.51402,1.953999 h -0.46121 l -0.65486,-2.54548 h 0.4753 l 0.42601,1.929354 0.49642,-1.929354 h 0.47177 l 0.48938,1.929354 0.45066,-1.929354 h 0.46121 l -0.67246,2.54548 h -0.46121 z m 3.30244,0.925949 -0.40136,-1.087903 -0.40841,1.087903 z m -0.94003,0.348551 -0.25349,0.679499 h -0.45418 l 1.02453,-2.54548 h 0.4577 l 1.01748,2.54548 h -0.46473 l -0.25701,-0.679499 z m 2.53139,-1.158317 v 1.837816 h -0.44713 v -2.54548 h 0.46122 l 1.24985,1.880064 v -1.880064 h 0.44713 v 2.54548 h -0.48938 z m 5.35149,0.947074 q 0,0.443611 -0.27813,0.690061 -0.27814,0.24645 -0.79217,0.24645 -0.52106,0 -0.80272,-0.242929 -0.27814,-0.24293 -0.27814,-0.690061 v -1.658259 h 0.44713 v 1.637134 q 0,0.288699 0.15844,0.447132 0.15843,0.158432 0.47529,0.158432 0.29927,0 0.4577,-0.151391 0.16195,-0.154911 0.16195,-0.461214 v -1.630093 h 0.45065 z m 1.01397,-0.947074 v 1.837816 h -0.44713 v -2.54548 h 0.46121 l 1.24986,1.880064 v -1.880064 h 0.44713 v 2.54548 h -0.48938 z m 2.74264,-0.707664 v 2.54548 h -0.44713 v -2.54548 z m 2.61237,0 -0.90483,2.54548 h -0.51754 l -0.89779,-2.54548 h 0.47882 l 0.6795,2.094828 0.69006,-2.094828 z m 2.17581,2.54548 h -1.88359 v -2.54548 h 1.87302 v 0.348551 h -1.42589 v 0.718227 h 1.33083 v 0.348551 h -1.33083 v 0.7816 h 1.43646 z m 2.06666,-1.816691 q 0,-0.186599 -0.0986,-0.281658 -0.0986,-0.09858 -0.28518,-0.09858 h -0.76399 v 0.792162 h 0.73935 q 0.18308,0 0.29574,-0.109142 0.11266,-0.109143 0.11266,-0.302782 z m -1.14775,0.756954 v 1.059737 h -0.44713 v -2.54548 h 1.29562 q 0.34855,0 0.55275,0.186598 0.20773,0.183077 0.20773,0.521066 0,0.221806 -0.10562,0.380238 -0.10211,0.158432 -0.25702,0.225326 0.19716,0.112663 0.30278,0.3908 0.10563,0.278137 0.13379,0.841452 h -0.46473 q -0.0211,-0.591481 -0.13027,-0.823848 -0.10562,-0.235889 -0.34151,-0.235889 z m 2.97149,-0.09154 q -0.46474,-0.0845 -0.69007,-0.260534 -0.22532,-0.176036 -0.22532,-0.4929 0,-0.295741 0.23941,-0.48938 0.24293,-0.19364 0.74639,-0.19364 0.46121,0 0.71471,0.19716 0.25349,0.197161 0.27813,0.570357 h -0.44713 q -0.004,-0.179557 -0.14083,-0.299261 -0.13731,-0.119705 -0.41896,-0.119705 -0.26406,0 -0.3908,0.08802 -0.12675,0.08802 -0.12323,0.246451 0,0.172515 0.169,0.257012 0.17251,0.0845 0.55979,0.161953 0.48586,0.09858 0.69006,0.267575 0.20772,0.168995 0.20772,0.506984 0,0.323906 -0.27461,0.542191 -0.27462,0.214763 -0.7816,0.214763 -0.51755,0 -0.80625,-0.218284 -0.2887,-0.218285 -0.2887,-0.630209 h 0.44714 q 0,0.228847 0.17251,0.366155 0.17252,0.133787 0.47882,0.133787 0.28166,0 0.44009,-0.109142 0.15843,-0.109142 0.15843,-0.285178 0,-0.204202 -0.15843,-0.29222 -0.15843,-0.08802 -0.55627,-0.161953 z m 2.03497,-1.394205 v 2.54548 h -0.44713 v -2.54548 z m 1.12663,0.348551 h -0.79216 v -0.348551 h 2.02793 v 0.348551 h -0.78864 v 2.196929 h -0.44713 z m 2.51731,0.778079 0.72527,-1.12663 h 0.49994 l -1.0034,1.496306 v 1.049174 h -0.44713 v -1.049174 l -1.02101,-1.496306 h 0.5105 z"
         id="text5-8"
         aria-label="NATIONAL TAIWAN UNIVERSITY" />
      <path
         d="m 107.87935,31.85248 h 1.80762 v 0.29532 h -1.80762 z m -0.13955,-0.973581 h 2.11268 v 1.401957 h -0.32778 v -1.109882 h -1.47335 v 1.116372 h -0.31155 z m 0.64257,-1.622635 0.34724,0.11683 q -0.1006,0.194716 -0.22392,0.399168 -0.12008,0.204452 -0.24015,0.389433 -0.12008,0.18498 -0.23042,0.327772 l -0.2726,-0.113585 q 0.1071,-0.146037 0.22068,-0.337508 0.11683,-0.194716 0.22068,-0.399168 0.10709,-0.204452 0.17849,-0.382942 z m 0.78211,0.548451 0.24015,-0.17849 q 0.16551,0.133056 0.33426,0.29532 0.172,0.159018 0.31804,0.321281 0.14603,0.162264 0.23041,0.30181 l -0.26611,0.204452 q -0.0779,-0.136301 -0.21743,-0.30181 -0.13955,-0.168754 -0.3083,-0.334262 -0.16551,-0.168754 -0.33102,-0.308301 z m -1.79464,0.431621 q 0.24015,-0.0065 0.53872,-0.01623 0.29856,-0.0097 0.63283,-0.02272 0.3375,-0.01298 0.68475,-0.02596 0.35049,-0.01623 0.69124,-0.03245 l -0.013,0.295319 q -0.34075,0.01947 -0.688,0.0357 -0.344,0.01623 -0.67501,0.03245 -0.32778,0.01298 -0.6231,0.02596 -0.29207,0.0097 -0.52573,0.01947 z m 5.21191,-0.486791 h 0.2726 v 0.610111 q 0,0.08762 -0.0195,0.139547 -0.0162,0.04868 -0.0779,0.07789 -0.0617,0.02596 -0.14603,0.03245 -0.0844,0.0032 -0.20446,0.0032 -0.01,-0.05192 -0.0357,-0.113584 -0.0227,-0.06166 -0.0487,-0.113585 0.0779,0.0032 0.1363,0.0032 0.0617,0 0.0844,0 0.0389,0 0.0389,-0.0357 z m 0.35049,0.256377 0.22068,-0.120075 q 0.0811,0.0714 0.15901,0.155773 0.0779,0.08438 0.1428,0.171999 0.0682,0.08438 0.10384,0.155773 l -0.24015,0.136301 q -0.0324,-0.0714 -0.0941,-0.159018 -0.0617,-0.08762 -0.13955,-0.175245 -0.0746,-0.09087 -0.15252,-0.165508 z m -1.25917,1.486333 h 1.53501 v 0.24015 h -1.53501 z m 0.0746,-0.412149 h 1.25917 v -0.197961 h -1.51554 V 30.65173 h 1.80437 v 0.662035 h -1.548 z m -0.0973,0 h 0.30181 q -0.0292,0.126566 -0.0682,0.266112 -0.0357,0.139547 -0.0746,0.269358 -0.0357,0.12981 -0.0682,0.233659 l -0.29207,-0.04219 q 0.0519,-0.149283 0.10709,-0.347244 0.0552,-0.201207 0.0941,-0.379697 z m 1.47659,0.412149 h 0.3083 q 0,0 -0.006,0.04543 -0.006,0.04543 -0.0162,0.07789 -0.0487,0.259621 -0.10385,0.395923 -0.0519,0.136301 -0.12008,0.194716 -0.0487,0.03894 -0.10385,0.05517 -0.0552,0.01947 -0.12981,0.02272 -0.0617,0.0032 -0.17524,0.0032 -0.11034,0 -0.24015,-0.0065 -0.003,-0.05841 -0.026,-0.129811 -0.0195,-0.0714 -0.0519,-0.126565 0.11683,0.0097 0.22393,0.01298 0.10709,0.0065 0.14928,0.0065 0.0454,0 0.0714,-0.0065 0.026,-0.0032 0.0487,-0.01947 0.0454,-0.03894 0.0876,-0.152528 0.0454,-0.116829 0.0811,-0.340753 z m -1.68105,-1.934181 h 2.07698 v 0.249886 h -2.07698 z m 0.85351,-0.285583 h 0.3083 v 0.42513 h -0.3083 z m -0.62634,0.606865 0.25638,0.06815 q -0.0714,0.152527 -0.18823,0.298565 -0.11683,0.146037 -0.24015,0.24664 -0.0227,-0.02272 -0.0617,-0.05192 -0.0389,-0.03245 -0.0811,-0.06166 -0.0389,-0.02921 -0.0681,-0.04868 0.12008,-0.08438 0.22068,-0.201207 0.1006,-0.120075 0.16226,-0.249886 z m -0.98007,-0.35698 0.172,-0.227168 q 0.0974,0.03894 0.20445,0.09736 0.1071,0.05841 0.20121,0.120075 0.0974,0.05841 0.15577,0.116829 l -0.18173,0.249886 q -0.0552,-0.05517 -0.14929,-0.120075 -0.0909,-0.06491 -0.19796,-0.126565 -0.10385,-0.06491 -0.20445,-0.11034 z m -0.16875,0.876223 0.172,-0.230414 q 0.0973,0.0357 0.20445,0.09087 0.10709,0.05192 0.2012,0.110339 0.0974,0.05842 0.15578,0.110339 l -0.17525,0.256376 q -0.0584,-0.05517 -0.15252,-0.116829 -0.0941,-0.06166 -0.20121,-0.120075 -0.10385,-0.05842 -0.20445,-0.100604 z m 0.0876,1.664824 q 0.0746,-0.126566 0.16551,-0.298565 0.0909,-0.171999 0.18498,-0.366715 0.0941,-0.194717 0.17524,-0.379697 l 0.24015,0.18498 q -0.0714,0.172 -0.15577,0.353735 -0.0811,0.181735 -0.16875,0.360225 -0.0844,0.175244 -0.16876,0.331017 z m 1.45713,-2.336595 h 0.2726 v 0.256377 q 0,0.100603 -0.0292,0.227169 -0.0292,0.126565 -0.11683,0.253131 -0.0844,0.12332 -0.25638,0.214188 -0.0227,-0.02272 -0.0617,-0.05193 -0.0389,-0.02921 -0.0779,-0.05842 -0.0389,-0.02921 -0.0746,-0.04543 0.15252,-0.07789 0.22392,-0.175245 0.0746,-0.09736 0.0974,-0.194716 0.0227,-0.100604 0.0227,-0.17849 z m 1.78814,0.454338 h 2.86882 v 0.318037 h -2.86882 z m 1.61614,0.126566 q 0.10385,0.382942 0.2791,0.713959 0.17849,0.331018 0.43486,0.580904 0.25962,0.24664 0.60038,0.389432 -0.0389,0.03245 -0.0844,0.08438 -0.0422,0.05192 -0.0811,0.103849 -0.0389,0.05517 -0.0649,0.09736 -0.36022,-0.168754 -0.62958,-0.444602 -0.26611,-0.279094 -0.45109,-0.645809 -0.18498,-0.366716 -0.31155,-0.804827 z m -0.35698,-1.031996 h 0.33427 q 0,0.230414 -0.013,0.496526 -0.01,0.262867 -0.0487,0.54196 -0.0389,0.279094 -0.12657,0.558187 -0.0876,0.279093 -0.24339,0.538715 -0.15578,0.259621 -0.39917,0.483545 -0.2434,0.220678 -0.59389,0.386187 -0.0389,-0.06166 -0.10385,-0.136301 -0.0649,-0.0714 -0.12981,-0.120075 0.33751,-0.152528 0.56793,-0.353735 0.23366,-0.204452 0.37645,-0.441357 0.14603,-0.24015 0.22392,-0.496526 0.0779,-0.256376 0.11034,-0.512753 0.0324,-0.256376 0.0389,-0.496526 0.006,-0.24015 0.006,-0.447847 z m 2.53781,1.100146 h 1.56097 v 0.269358 h -1.56097 z m -0.55819,0.736677 h 2.88504 v 0.282338 h -2.88504 z m 1.27863,-0.227169 h 0.3148 v 1.057958 q 0,0.126565 -0.0389,0.194716 -0.0357,0.06815 -0.13954,0.103849 -0.10061,0.03245 -0.24989,0.03894 -0.14928,0.0097 -0.36672,0.0097 -0.013,-0.06491 -0.0519,-0.152528 -0.0357,-0.08438 -0.0746,-0.146037 0.11358,0.0032 0.22068,0.0065 0.11034,0.0032 0.19147,0.0032 0.0811,-0.0032 0.11358,-0.0032 0.0487,-0.0032 0.0649,-0.01623 0.0162,-0.01298 0.0162,-0.04868 z m 0.74317,-0.509508 h 0.0746 l 0.0682,-0.01623 0.19472,0.149283 q -0.11034,0.116829 -0.25313,0.230414 -0.14279,0.113584 -0.30181,0.210942 -0.15577,0.09736 -0.31155,0.172 -0.0292,-0.04219 -0.0811,-0.09411 -0.0487,-0.05517 -0.0876,-0.08762 0.13305,-0.06166 0.26611,-0.149282 0.1363,-0.08762 0.24989,-0.17849 0.11358,-0.09411 0.18173,-0.17849 z m -1.96988,-0.571167 h 2.78444 v 0.756148 h -0.30181 v -0.483545 h -2.19055 v 0.483545 h -0.29208 z m 2.28792,-0.509507 0.32777,0.103848 q -0.10709,0.155773 -0.22717,0.308301 -0.12007,0.152528 -0.22068,0.259621 l -0.24664,-0.09736 q 0.0649,-0.07789 0.13306,-0.17849 0.0682,-0.100603 0.12981,-0.204452 0.0649,-0.103848 0.10385,-0.19147 z m -2.06724,0.133056 0.25962,-0.11683 q 0.0909,0.09736 0.17849,0.220678 0.0876,0.123321 0.12657,0.217433 l -0.2726,0.133056 q -0.0389,-0.09411 -0.12332,-0.220678 -0.0844,-0.126565 -0.16876,-0.233659 z m 0.82755,-0.06815 0.26935,-0.100603 q 0.0779,0.110339 0.15253,0.249885 0.0779,0.136302 0.10709,0.236905 l -0.28558,0.113585 q -0.026,-0.103849 -0.0974,-0.243396 -0.0682,-0.142792 -0.14603,-0.256376 z"
         id="text5-9-1"
         style="font-weight:500;font-size:3.24527px;line-height:1.25;font-family:'Noto Sans JP';-inkscape-font-specification:'Noto Sans JP Medium';fill:#f9f9f9;stroke-width:0.115903"
         aria-label="台湾大学" />
      <path
         style="font-weight:500;font-size:3.24527px;line-height:1.25;font-family:'Noto Sans kr';-inkscape-font-specification:'Noto Sans kr Medium';fill:#f9f9f9;stroke-width:0.115903"
         d="m 123.95403,31.392597 h 0.2369 q 0.26287,0 0.48679,-0.0065 0.22393,-0.0065 0.43163,-0.02272 0.21094,-0.01947 0.43162,-0.05517 l 0.0324,0.272603 q -0.22392,0.0357 -0.44136,0.05842 -0.21419,0.01947 -0.4446,0.02596 -0.22717,0.0032 -0.49653,0.0032 h -0.2369 z m 0,-1.736219 h 1.38573 v 0.279093 h -1.04822 v 1.551239 h -0.33751 z m 0.25638,0.830789 h 1.07418 v 0.269357 h -1.07418 z m 1.5772,-1.087166 h 0.34075 v 2.966177 h -0.34075 z m 0.26611,1.161807 h 0.53547 v 0.282339 h -0.53547 z m 2.86233,-1.165052 h 0.34075 v 2.972668 h -0.34075 z m -1.23645,0.217433 q 0.22068,0 0.39268,0.129811 0.17524,0.129811 0.2726,0.36347 0.0974,0.23366 0.0974,0.551696 0,0.321282 -0.0974,0.558187 -0.0974,0.233659 -0.2726,0.36347 -0.172,0.126565 -0.39268,0.126565 -0.22068,0 -0.39592,-0.126565 -0.172,-0.129811 -0.27261,-0.36347 -0.0974,-0.236905 -0.0974,-0.558187 0,-0.318036 0.0974,-0.551696 0.10061,-0.233659 0.27261,-0.36347 0.17524,-0.129811 0.39592,-0.129811 z m 0,0.308301 q -0.12981,0 -0.23041,0.08762 -0.0974,0.08762 -0.15253,0.253131 -0.0552,0.165509 -0.0552,0.395923 0,0.23366 0.0552,0.399168 0.0552,0.165509 0.15253,0.256377 0.1006,0.08762 0.23041,0.08762 0.12981,0 0.22717,-0.08762 0.0974,-0.09087 0.15253,-0.256377 0.0552,-0.165508 0.0552,-0.399168 0,-0.230414 -0.0552,-0.395923 -0.0552,-0.165508 -0.15253,-0.253131 -0.0974,-0.08762 -0.22717,-0.08762 z m 2.84935,0.694488 h 0.33751 v 0.447847 h -0.33751 z m 0.16226,-1.090411 q 0.21419,0 0.3797,0.07464 0.16875,0.07464 0.26286,0.210943 0.0941,0.133056 0.0941,0.3083 0,0.175245 -0.0941,0.311546 -0.0941,0.133056 -0.26286,0.207698 -0.16551,0.07464 -0.3797,0.07464 -0.21419,0 -0.3797,-0.07464 -0.1655,-0.07464 -0.25962,-0.207698 -0.0941,-0.136301 -0.0941,-0.311546 0,-0.175244 0.0941,-0.3083 0.0941,-0.136302 0.25962,-0.210943 0.16551,-0.07464 0.3797,-0.07464 z m 0,0.259622 q -0.12007,0 -0.21743,0.04219 -0.0941,0.03894 -0.14604,0.11683 -0.0519,0.07464 -0.0519,0.175244 0,0.100604 0.0519,0.17849 0.0519,0.07464 0.14604,0.11683 0.0974,0.03894 0.21743,0.03894 0.12332,0 0.21743,-0.03894 0.0941,-0.04219 0.14604,-0.11683 0.0552,-0.07789 0.0552,-0.17849 0,-0.100603 -0.0552,-0.175244 -0.0519,-0.07789 -0.14604,-0.11683 -0.0941,-0.04219 -0.21743,-0.04219 z m 1.09366,-0.386188 h 0.3375 V 31.6652 h -0.3375 z m 0.20769,0.970336 h 0.53872 v 0.282339 h -0.53872 z m -1.78814,1.658333 h 2.0218 v 0.275848 h -2.0218 z m 0,-0.554941 h 0.34075 v 0.675016 h -0.34075 z m -0.36996,-0.223924 -0.0389,-0.272602 q 0.25313,0 0.56143,-0.0065 0.31154,-0.0065 0.63283,-0.02596 0.32452,-0.01947 0.61984,-0.06166 l 0.026,0.24664 q -0.30505,0.05517 -0.62633,0.08113 -0.32128,0.02596 -0.62309,0.03245 -0.29857,0.0065 -0.5517,0.0065 z m 5.15673,-1.853049 h 0.32453 v 2.966177 h -0.32453 z m -0.45433,1.168297 h 0.53871 v 0.279094 h -0.53871 z m -0.21419,-1.106637 h 0.31803 v 2.75848 h -0.31803 z m -1.43766,1.9212 h 0.19796 q 0.20446,0 0.37646,-0.0065 0.172,-0.0065 0.33426,-0.02272 0.16551,-0.01947 0.33751,-0.05193 l 0.0324,0.279094 q -0.17849,0.0357 -0.34724,0.05517 -0.16876,0.01623 -0.34725,0.02272 -0.17524,0.0065 -0.38619,0.0065 h -0.19796 z m 0,-1.629125 h 1.0969 v 0.275848 h -0.76263 v 1.483088 h -0.33427 z m 2.89154,-0.06166 h 1.7492 v 0.269358 h -1.7492 z m 0.87622,0.395923 q 0.21094,0 0.37321,0.06815 0.16226,0.06815 0.25313,0.191471 0.0909,0.120075 0.0909,0.282339 0,0.162263 -0.0909,0.285583 -0.0909,0.120075 -0.25313,0.188226 -0.16227,0.0649 -0.37321,0.0649 -0.21419,0 -0.37645,-0.0649 -0.16226,-0.06815 -0.25313,-0.188226 -0.0909,-0.12332 -0.0909,-0.285583 0,-0.162264 0.0909,-0.282339 0.0909,-0.12332 0.25313,-0.191471 0.16226,-0.06815 0.37645,-0.06815 z m 0,0.262867 q -0.17849,0 -0.28883,0.07464 -0.10709,0.07139 -0.10709,0.204452 0,0.12981 0.10709,0.204452 0.11034,0.07464 0.28883,0.07464 0.17525,0 0.28234,-0.07464 0.10709,-0.07464 0.10709,-0.204452 0,-0.133057 -0.10709,-0.204452 -0.10709,-0.07464 -0.28234,-0.07464 z m 1.0969,-0.947619 h 0.33751 v 1.856295 h -0.33751 z m 0.24664,0.791846 h 0.50951 v 0.282339 h -0.50951 z m -1.85629,1.207241 h 1.94716 v 0.96709 h -0.33751 V 31.67169 h -1.60965 z m 0.34075,-2.015313 h 0.34076 v 0.457583 h -0.34076 z m 2.54754,0.292074 h 1.89524 v 0.275848 h -1.89524 z m -0.26936,2.021804 h 2.6806 v 0.279093 h -2.6806 z m 0.6166,-0.9606 h 0.33427 v 1.054712 h -0.33427 z m 1.44415,-1.061204 h 0.33751 v 0.308301 q 0,0.18498 -0.003,0.386187 -0.003,0.201207 -0.026,0.434866 -0.0195,0.23366 -0.0714,0.522489 l -0.3375,-0.0357 q 0.0746,-0.408904 0.0876,-0.72045 0.013,-0.314791 0.013,-0.587394 z m -0.71071,1.061204 h 0.33426 v 1.054712 h -0.33426 z"
         id="text5-9-1-0"
         aria-label="타이완대학교" />
      <path
         id="rect2"
         style="fill:#ffffff;stroke-width:0.757875"
         d="m 102.87557,15.532568 h 1.0501 v 16.764515 h -1.0501 z" />
    </g>
  </g>
</svg>
