<?xml version="1.0" encoding="UTF-8" standalone="no"?>
<!-- Created with Inkscape (http://www.inkscape.org/) -->

<svg
   width="500"
   height="250"
   viewBox="0 0 132.29166 66.145833"
   version="1.1"
   id="svg1"
   inkscape:version="1.3.2 (091e20e, 2023-11-25, custom)"
   sodipodi:docname="g10.svg"
   xmlns:inkscape="http://www.inkscape.org/namespaces/inkscape"
   xmlns:sodipodi="http://sodipodi.sourceforge.net/DTD/sodipodi-0.dtd"
   xmlns="http://www.w3.org/2000/svg"
   xmlns:svg="http://www.w3.org/2000/svg">
  <sodipodi:namedview
     id="namedview1"
     pagecolor="#9e652e"
     bordercolor="#ffffff"
     borderopacity="1"
     inkscape:showpageshadow="0"
     inkscape:pageopacity="0"
     inkscape:pagecheckerboard="false"
     inkscape:deskcolor="#d1d1d1"
     inkscape:document-units="mm"
     inkscape:zoom="1.4289282"
     inkscape:cx="153.26172"
     inkscape:cy="42.689339"
     inkscape:window-width="1920"
     inkscape:window-height="1009"
     inkscape:window-x="1912"
     inkscape:window-y="-8"
     inkscape:window-maximized="1"
     inkscape:current-layer="layer1" />
  <defs
     id="defs1">
    <rect
       x="157.85752"
       y="62.351248"
       width="329.07603"
       height="135.09437"
       id="rect4" />
    <rect
       x="157.85751"
       y="62.35125"
       width="385.11694"
       height="104.59384"
       id="rect4-7" />
    <rect
       x="157.85751"
       y="62.35125"
       width="329.07602"
       height="135.09438"
       id="rect4-5" />
    <rect
       x="560.66638"
       y="34.14473"
       width="279.32397"
       height="128.59143"
       id="rect6" />
  </defs>
  <g
     inkscape:label="Layer 1"
     inkscape:groupmode="layer"
     id="layer1">
    <path
       id="rect5"
       style="fill:#007846;stroke-width:0.953294"
       d="M -2.5431316e-6,-1.2715658e-6 H 132.29167 V 66.145835 H -2.5431316e-6 Z" />
    <path
       d="m 129.24313,47.520759 0.10781,0.19765 c 0.0857,0.204562 0.13407,0.428474 0.13407,0.664825 0,0.442295 -0.16863,0.84589 -0.44367,1.149967 l -0.11888,0.111956 0.12026,0.04146 c 0.0733,0.0387 0.13684,0.08708 0.18659,0.145128 0.19904,0.230823 0.41051,0.590187 0.19074,1.148585 -0.47408,0.09813 -0.79889,-0.04976 -1.09192,-0.403595 -0.0373,-0.04423 -0.0678,-0.08846 -0.0926,-0.129924 l -0.0235,-0.04837 -0.0843,0.118868 c -0.31376,0.380097 -0.78922,0.621977 -1.31997,0.621977 -0.35385,0 -0.6828,-0.107809 -0.95509,-0.291639 l -0.15342,-0.127159 0.094,-0.0042 c 0.86247,-0.08708 1.53559,-0.815481 1.53559,-1.701453 0,-0.117485 -0.0124,-0.232205 -0.0345,-0.344161 l -0.076,-0.243262 0.13822,0.04284 c 0.11057,0.02212 0.22668,0.03455 0.34416,0.03455 0.59019,0 1.11126,-0.298549 1.41811,-0.753284 z m -126.2126089,0 0.124948,0.230823 c 0.307257,0.454734 0.827645,0.753283 1.417832,0.753283 0.118038,0 0.233172,-0.01244 0.344575,-0.03455 l 0.137803,-0.04284 -0.07547,0.243262 c -0.0228,0.111956 -0.03484,0.226676 -0.03484,0.344161 0,0.885972 0.672842,1.614377 1.534902,1.701454 l 0.09509,0.0041 -0.153282,0.127159 c -0.272979,0.183829 -0.601936,0.291638 -0.956049,0.291638 -0.53103,0 -1.005668,-0.24188 -1.319284,-0.621976 l -0.08472,-0.118868 -0.0235,0.04837 c -0.02516,0.04146 -0.0557,0.08569 -0.09233,0.129924 -0.293021,0.353836 -0.617831,0.501729 -1.092054,0.403594 -0.219214,-0.558397 -0.008,-0.917763 0.190601,-1.148585 0.04962,-0.05805 0.113199,-0.106427 0.186593,-0.145128 l 0.119696,-0.04146 -0.117623,-0.111956 c -0.276019,-0.304077 -0.444091,-0.707671 -0.444091,-1.149967 0,-0.236351 0.04782,-0.460263 0.134346,-0.664824 z m 3.785492,0 c 0.317624,0 0.612717,0.09675 0.8575,0.262613 l 0.01589,0.01244 0.08625,0.02626 c 0.247962,0.105046 0.421977,0.351072 0.421977,0.637181 0,0.38148 -0.30933,0.691086 -0.69081,0.691086 -0.381479,0 -0.690809,-0.309606 -0.690809,-0.691086 0,-0.09537 0.01935,-0.186593 0.05432,-0.269523 l 0.04064,-0.07463 h -0.003 c -0.383552,0.06911 -0.687631,0.366276 -0.765447,0.747754 l -0.01948,0.192122 0.01948,0.192122 c 0.06662,0.324811 0.299655,0.590188 0.606359,0.703526 l 0.06344,0.01659 v -0.02074 h 3.6258519 v -0.0097 H 124.80221 v 0.0097 h 0.6593 v 0.02074 l 0.0636,-0.01659 c 0.30684,-0.113338 0.54043,-0.378715 0.60677,-0.703526 l 0.0193,-0.192122 -0.0193,-0.192122 c -0.0774,-0.381478 -0.38148,-0.678645 -0.76572,-0.747754 h -0.003 l 0.0401,0.07463 c 0.036,0.08293 0.0553,0.174154 0.0553,0.269523 0,0.38148 -0.30961,0.691086 -0.69109,0.691086 -0.38148,0 -0.69108,-0.309606 -0.69108,-0.691086 0,-0.286109 0.17414,-0.532135 0.42156,-0.637181 l 0.0871,-0.02626 0.0152,-0.01244 c 0.24464,-0.165862 0.54043,-0.262613 0.85833,-0.262613 0.84589,0 1.53283,0.686939 1.53283,1.534211 0,0.740844 -0.52523,1.358674 -1.22461,1.502421 l -0.30546,0.03041 h -0.003 -3.95577 v -0.0097 H 10.771651 v 0.0097 h -3.9556379 -0.0038 l -0.305322,-0.03041 c -0.698826,-0.143747 -1.224466,-0.761577 -1.224466,-1.502421 0,-0.847272 0.686524,-1.534211 1.533519,-1.534211 z M 124.7248,45.547018 c 0.36214,0.0056 0.70769,0.110573 0.89428,0.328956 0.25017,0.291638 0.51554,0.742226 0.24049,1.44437 -0.59709,0.123013 -1.00484,-0.0622 -1.37387,-0.507257 -0.36767,-0.446442 -0.24465,-0.790603 -0.1244,-1.239809 0.11887,-0.01934 0.24188,-0.02903 0.3635,-0.02626 z m -117.1754059,0 c 0.12094,-0.0028 0.243953,0.0069 0.363787,0.02626 0.119282,0.449206 0.243539,0.793367 -0.124948,1.239808 -0.368487,0.44506 -0.776919,0.63027 -1.373188,0.507257 -0.275605,-0.702143 -0.01009,-1.152731 0.239669,-1.44437 0.187284,-0.218383 0.531859,-0.323429 0.89468,-0.328957 z M 125.47257,18.815813 c 0.12853,-0.0069 0.26537,0.0042 0.41465,0.03593 0.27505,0.702142 0.01,1.152731 -0.23912,1.444369 -0.18798,0.218383 -0.53213,0.323428 -0.89564,0.328957 -0.12026,0.0027 -0.24327,-0.0069 -0.36352,-0.02626 -0.11886,-0.449206 -0.24326,-0.793367 0.12578,-1.239808 0.27643,-0.334485 0.57498,-0.522461 0.95785,-0.543193 z M 6.8187771,18.789551 c 0.383692,0.02211 0.682517,0.208708 0.958951,0.543194 0.368488,0.446442 0.244231,0.790602 0.124949,1.239808 -0.119834,0.01935 -0.242848,0.02903 -0.363788,0.02626 -0.36282,-0.0056 -0.707395,-0.110575 -0.894679,-0.328957 -0.249759,-0.291639 -0.515274,-0.742227 -0.23967,-1.44437 0.148999,-0.03041 0.286386,-0.04284 0.414237,-0.03593 z M 127.71307,17.909108 c 0.74084,0 1.35868,0.525225 1.50242,1.224604 l 0.0152,0.154804 h 0.0152 v 0.15342 3.668284 h -0.0345 v 19.951652 h 0.007 v 3.666903 0.154803 h -0.0152 l -0.0166,0.154803 c -0.14237,0.699379 -0.7602,1.224605 -1.50243,1.224605 -0.84589,0 -1.53283,-0.68694 -1.53283,-1.534211 0,-0.211473 0.0428,-0.41327 0.12025,-0.595717 l 0.0484,-0.09122 0.0374,-0.118867 c 0.0525,-0.123013 0.13959,-0.229441 0.25017,-0.304078 l 0.0691,-0.03732 0.0954,-0.07879 v 0.0387 l 0.0829,-0.02626 c 0.0443,-0.0083 0.0912,-0.01383 0.1396,-0.01383 0.38148,0 0.6897,0.309606 0.6897,0.691086 0,0.38148 -0.30822,0.691086 -0.6897,0.691086 -0.0484,0 -0.0954,-0.0056 -0.1396,-0.0152 l -0.0607,-0.01797 0.036,0.132689 c 0.11195,0.306843 0.37733,0.54043 0.70353,0.606774 l 0.19212,0.01935 0.19212,-0.01935 c 0.3801,-0.07879 0.67864,-0.382862 0.74638,-0.765723 l 0.008,-0.08984 v -3.672431 h 0.0387 V 23.110217 h -0.01 v -3.67243 l -0.008,-0.08984 c -0.0691,-0.384245 -0.36627,-0.688322 -0.74638,-0.765724 l -0.19212,-0.01935 -0.19211,0.01935 c -0.3262,0.06634 -0.59158,0.299932 -0.70353,0.606774 l -0.036,0.132688 0.0594,-0.01935 c 0.0456,-0.0083 0.0926,-0.01382 0.13961,-0.01382 0.38148,0 0.69109,0.309606 0.69109,0.691085 0,0.38148 -0.30961,0.691086 -0.69109,0.691086 -0.047,0 -0.094,-0.0056 -0.13961,-0.01383 l -0.0815,-0.02626 v 0.0387 l -0.0968,-0.08017 -0.0678,-0.03732 c -0.11057,-0.07325 -0.19765,-0.179682 -0.25017,-0.302695 l -0.0374,-0.120249 -0.0484,-0.08984 c -0.0788,-0.182447 -0.12162,-0.384244 -0.12162,-0.597099 0,-0.845889 0.68693,-1.532828 1.53421,-1.532828 z M 4.5789681,17.882847 c 0.846857,0 1.53352,0.686939 1.53352,1.534211 0,0.211472 -0.04298,0.413269 -0.120526,0.597098 l -0.0488,0.08984 -0.03704,0.118867 c -0.05239,0.124395 -0.140015,0.22944 -0.250174,0.304077 l -0.06869,0.03732 -0.09578,0.07879 v -0.0387 l -0.08252,0.02626 c -0.04506,0.0097 -0.09164,0.01383 -0.139323,0.01383 -0.381479,0 -0.69067,-0.309607 -0.69067,-0.691086 0,-0.381479 0.309191,-0.689703 0.69067,-0.689703 0.04768,0 0.09427,0.0042 0.139323,0.01383 l 0.06068,0.01797 -0.03594,-0.132688 c -0.112376,-0.30685 -0.377752,-0.539055 -0.703669,-0.606782 l -0.192122,-0.01934 -0.19226,0.01934 c -0.380236,0.07879 -0.678094,0.382862 -0.746511,0.765724 l -0.008,0.09122 v 3.67243 h -0.02668 v 19.97653 h 0.03718 v 3.672432 l 0.008,0.08984 c 0.06842,0.382862 0.366276,0.686939 0.746511,0.765723 l 0.19226,0.01935 0.192121,-0.01935 c 0.325917,-0.06634 0.591295,-0.299931 0.703664,-0.606772 l 0.03593,-0.13269 -0.06068,0.01797 c -0.04506,0.0097 -0.09164,0.0152 -0.139324,0.0152 -0.381479,0 -0.69067,-0.309607 -0.69067,-0.691086 0,-0.38148 0.309191,-0.691086 0.69067,-0.691086 0.04768,0 0.09427,0.0056 0.139324,0.01383 l 0.08252,0.02626 v -0.0387 l 0.09578,0.07879 0.06869,0.03732 c 0.110159,0.07464 0.197789,0.181065 0.250174,0.304078 l 0.03704,0.118867 0.0488,0.09122 c 0.07754,0.182447 0.120526,0.384244 0.120526,0.595716 0,0.847272 -0.686663,1.534212 -1.53352,1.534212 -0.741121,0 -1.359505,-0.525226 -1.50242,-1.224605 l -0.01574,-0.154811 h -0.01548 V 46.728782 43.06188 h 0.0083 V 23.085342 h -0.0188 v -3.668284 -0.153422 h 0.01548 l 0.01576,-0.156185 c 0.142917,-0.697997 0.761301,-1.224604 1.502421,-1.224604 z m 2.222809,-2.324814 h 0.0038 3.9556379 v 0.01383 H 123.96876 v 0.01244 h 1.51763 0.004 l 0.30546,0.03041 c 0.69799,0.143746 1.2246,0.761578 1.2246,1.502421 0,0.847271 -0.68694,1.534211 -1.53421,1.534211 -0.31791,0 -0.61231,-0.09675 -0.85695,-0.262613 l -0.0166,-0.01244 -0.0857,-0.02764 c -0.24879,-0.103663 -0.42294,-0.34969 -0.42294,-0.6358 0,-0.381478 0.3096,-0.691085 0.69108,-0.691085 0.38148,0 0.69109,0.309607 0.69109,0.691085 0,0.09537 -0.0193,0.186594 -0.0539,0.268142 l -0.0415,0.07602 h 0.004 c 0.38287,-0.06911 0.68695,-0.367658 0.76435,-0.747755 l 0.0193,-0.192122 -0.0193,-0.192122 c -0.0663,-0.326193 -0.29855,-0.591569 -0.60539,-0.703526 l -0.0636,-0.01658 v 0.02073 h -3.95991 v -0.01244 H 9.6045451 v -0.01383 h -2.802768 v -0.02074 l -0.06345,0.01659 c -0.306704,0.113338 -0.539739,0.378716 -0.60636,0.704908 l -0.01948,0.192121 0.01948,0.192122 c 0.07781,0.380098 0.381895,0.677265 0.765448,0.746373 h 0.003 l -0.04064,-0.07463 c -0.03496,-0.08293 -0.05432,-0.174154 -0.05432,-0.269523 0,-0.381481 0.309329,-0.691087 0.690809,-0.691087 0.38148,0 0.690809,0.309606 0.690809,0.691087 0,0.286109 -0.174015,0.532135 -0.421976,0.637181 l -0.08625,0.02626 -0.01589,0.01383 c -0.244783,0.164479 -0.539877,0.261231 -0.8575,0.261231 -0.846995,0 -1.533519,-0.686939 -1.533519,-1.532829 0,-0.742226 0.52564,-1.360057 1.224466,-1.502421 z M 126.83677,15.032808 c 0.53075,0 1.00484,0.24188 1.31859,0.621977 l 0.0843,0.118867 0.0236,-0.04838 c 0.0262,-0.04146 0.0567,-0.08569 0.0926,-0.129923 0.29302,-0.353837 0.61783,-0.501729 1.09192,-0.403595 0.21977,0.558398 0.008,0.917762 -0.18935,1.148586 -0.0497,0.05805 -0.11334,0.106426 -0.1866,0.143745 l -0.12025,0.04284 0.11748,0.111956 c 0.27644,0.304077 0.44368,0.707672 0.44368,1.149967 0,0.236351 -0.047,0.460263 -0.13407,0.664824 l -0.10642,0.19765 -0.12578,-0.230822 c -0.30684,-0.454734 -0.82654,-0.753284 -1.41673,-0.753284 -0.11887,0 -0.23359,0.01106 -0.34554,0.03456 l -0.13684,0.04284 0.0746,-0.243262 c 0.0235,-0.111956 0.0345,-0.226676 0.0345,-0.344161 0,-0.885972 -0.67174,-1.614377 -1.53421,-1.701453 l -0.0954,-0.0042 0.15342,-0.12716 c 0.27228,-0.183829 0.60124,-0.291638 0.95647,-0.291638 z M 5.4556791,15.006547 c 0.353975,0 0.682932,0.10781 0.955911,0.291638 l 0.153282,0.127159 -0.09509,0.0042 c -0.862061,0.08846 -1.534901,0.815483 -1.534901,1.701455 0,0.117484 0.01203,0.233586 0.03483,0.34416 l 0.07547,0.243262 -0.137803,-0.04284 c -0.111404,-0.02211 -0.226539,-0.03455 -0.344576,-0.03455 -0.590188,0 -1.110575,0.298549 -1.417832,0.753284 l -0.124948,0.230823 -0.106842,-0.196268 c -0.08652,-0.204561 -0.134347,-0.429856 -0.134347,-0.666207 0,-0.442296 0.16821,-0.84589 0.444091,-1.149967 l 0.117623,-0.111956 -0.119695,-0.04147 c -0.07339,-0.0387 -0.136974,-0.08708 -0.186594,-0.145127 -0.198618,-0.230824 -0.409813,-0.588806 -0.19074,-1.148586 0.474362,-0.09813 0.799172,0.04976 1.092193,0.404977 0.03662,0.04423 0.06718,0.08708 0.09233,0.128542 l 0.0235,0.04838 0.08473,-0.118867 c 0.313616,-0.380098 0.788254,-0.621978 1.319423,-0.621978 z"
       fill="#ffffff"
       fill-rule="evenodd"
       id="path177"
       style="stroke-width:0.138217" />
    <text
       xml:space="preserve"
       transform="matrix(0.21185273,0,0,0.21185273,39.523226,22.110924)"
       id="text6"
       style="font-size:55px;line-height:1.25;font-family:'Microsoft JhengHei';-inkscape-font-specification:'Microsoft JhengHei';white-space:pre;shape-inside:url(#rect6);display:inline" />
    <g
       id="g2"
       transform="matrix(0.67009569,0,0,0.67009569,2.5566857,10.910898)">
      <path
         id="rect1"
         style="fill-opacity:0;stroke:#f9f9f9;stroke-width:0.942789"
         d="M 20.265186,14.352791 H 32.69035 c 3.927062,0 7.088559,3.161497 7.088559,7.088559 v 23.263136 c 0,3.927062 -3.161497,7.088559 -7.088559,7.088559 H 20.265186 c -3.927062,0 -7.088559,-3.161497 -7.088559,-7.088559 V 21.44135 c 0,-3.927062 3.161497,-7.088559 7.088559,-7.088559 z" />
      <path
         style="font-size:14.371px;line-height:1.25;font-family:'AR UDJingXiHeiE1G30 EB';-inkscape-font-specification:'AR UDJingXiHeiE1G30 EB';fill:#f9f9f9;stroke-width:0.299395"
         d="m 29.761555,29.912261 q -0.531727,0.747292 -1.336503,1.106567 -0.790405,0.344904 -1.810746,0.344904 -2.241876,0 -3.564008,-1.408358 -1.322132,-1.422729 -1.322132,-3.966396 0,-2.558038 1.393987,-3.966396 1.393987,-1.408358 3.765202,-1.408358 1.911343,0 3.104136,0.876631 1.207165,0.86226 1.451472,2.471812 h -1.825118 q -0.14371,-0.847889 -0.847889,-1.379616 -0.689808,-0.546098 -1.882601,-0.546098 -1.595181,0 -2.428699,1.034712 -0.833518,1.020341 -0.833518,2.917313 0,2.026311 0.876631,2.989168 0.876631,0.948486 2.385586,0.948486 1.322132,0 2.098166,-0.776034 0.776034,-0.776034 0.776034,-1.782004 V 27.153029 H 26.8155 V 25.7303 h 4.699318 v 5.446609 h -1.753263 z"
         id="text2"
         aria-label="G" />
      <path
         style="font-size:14.3917px;line-height:1.25;font-family:'AR UDJingXiHeiE1G30 EB';-inkscape-font-specification:'AR UDJingXiHeiE1G30 EB';fill:#f9f9f9;stroke-width:0.261667"
         d="m 21.041009,36.584172 -1.683829,1.568695 -0.834719,-1.280861 2.70564,-2.460981 h 1.568695 v 10.405199 h -1.755787 z m 12.837386,3.108607 q 0,2.720031 -0.877894,4.015284 -0.877894,1.295253 -2.720031,1.295253 -1.784571,0 -2.70564,-1.295253 -0.921069,-1.295253 -0.921069,-4.015284 0,-2.907123 0.877894,-4.173593 0.877894,-1.280861 2.748815,-1.280861 1.827745,0 2.705639,1.280861 0.892286,1.26647 0.892286,4.173593 z m -3.597925,3.885759 q 0.921068,0 1.352819,-0.906677 0.431751,-0.921069 0.431751,-2.979082 0,-2.216322 -0.417359,-3.122999 -0.402967,-0.906677 -1.367211,-0.906677 -0.964244,0 -1.381604,0.921069 -0.417359,0.906677 -0.417359,3.108607 0,2.043622 0.431751,2.96469 0.431751,0.921069 1.367212,0.921069 z"
         id="text3"
         aria-label="10" />
      <path
         style="font-weight:500;font-size:72px;line-height:1.25;font-family:'Noto Sans TC';-inkscape-font-specification:'Noto Sans TC Medium';white-space:pre;fill:#f9f9f9"
         d="m 164.55342,87.345406 h 58.608 v 34.920004 h -7.056 V 94.041406 h -44.784 v 28.584004 h -6.768 z m 3.528,24.264004 h 52.056 v 6.696 h -52.056 z m 22.032,-36.936004 h 7.128 v 66.744004 h -7.128 z m 45.864,4.968 h 60.336 v 6.696 h -60.336 z m 31.608,24.480004 h 25.488 v 6.624 h -25.488 z m -34.272,27.72 h 65.232 v 6.696 h -65.232 z m 30.96,-49.608004 h 7.2 v 52.848004 h -7.2 z m -21.528,16.416 h 7.056 v 36.720004 h -7.056 z m 92.736,-20.304 h 31.536 v 33.552004 h -6.912 V 85.329406 h -24.624 z m 4.968,23.112004 h 22.968 v 6.696 h -22.968 z m -3.456,0 h 7.128 v 29.088 q 0,2.16 0.72,2.808 0.792,0.648 3.528,0.648 0.504,0 1.656,0 1.224,0 2.664,0 1.512,0 3.096,0 1.584,0 2.808,0 1.296,0 1.944,0 1.728,0 2.52,-0.792 0.864,-0.864 1.224,-3.312 0.36,-2.448 0.576,-7.128 0.792,0.576 1.944,1.152 1.152,0.576 2.304,1.08 1.224,0.432 2.232,0.648 -0.36,5.688 -1.368,8.928 -1.008,3.168 -3.096,4.464 -2.088,1.296 -5.832,1.296 -0.576,0 -1.944,0 -1.296,0 -3.096,0 -1.728,0 -3.528,0 -1.728,0 -3.096,0 -1.296,0 -1.8,0 -4.032,0 -6.336,-0.864 -2.304,-0.792 -3.312,-2.952 -0.936,-2.088 -0.936,-5.976 z m -13.392,2.016 5.112,-1.872 q 1.152,2.304 2.232,4.968 1.08,2.664 1.944,5.184 0.864,2.448 1.296,4.32 l -5.472,2.304 q -0.432,-1.872 -1.224,-4.464 -0.792,-2.592 -1.8,-5.328 -1.008,-2.736 -2.088,-5.112 z m -7.128,18.72 5.544,-1.296 q 0.72,3.888 1.296,8.424 0.576,4.464 0.792,7.776 l -5.832,1.368 q 0,-2.232 -0.288,-5.04 -0.288,-2.808 -0.72,-5.688 -0.36,-2.952 -0.792,-5.544 z m -8.352,-0.648 5.832,0.936 q -0.576,4.752 -1.656,9.576 -1.008,4.752 -2.232,8.064 -0.648,-0.36 -1.656,-0.72 -1.008,-0.36 -2.088,-0.72 -1.08,-0.36 -1.8,-0.576 1.368,-3.24 2.232,-7.704 0.864,-4.464 1.368,-8.856 z m -1.368,-19.224 q -0.144,-0.648 -0.576,-1.728 -0.36,-1.152004 -0.792,-2.304004 -0.36,-1.224 -0.72,-2.016 1.008,-0.216 2.016,-1.224 1.008,-1.08 2.16,-2.736 0.576,-0.792 1.728,-2.592 1.152,-1.8 2.592,-4.32 1.44,-2.52 2.808,-5.328 1.44,-2.88 2.592,-5.832 l 6.192,2.592 q -2.88,5.976 -6.624,11.88 -3.672,5.832 -7.416,10.152 v 0.144 q 0,0 -0.576,0.36 -0.576,0.36 -1.44,0.864004 -0.792,0.504 -1.368,1.08 -0.576,0.504 -0.576,1.008 z m 0,0 -0.216,-4.968004 3.024,-1.944 13.032,-1.008 q -0.288,1.296 -0.504,2.952 -0.144,1.584 -0.144,2.592 -4.392,0.432004 -7.2,0.792004 -2.736,0.36 -4.32,0.648 -1.584,0.216 -2.448,0.504 -0.792,0.216 -1.224,0.432 z m 0.504,16.488 q -0.144,-0.648 -0.576,-1.8 -0.36,-1.224 -0.792,-2.448 -0.432,-1.224 -0.864,-2.088 1.368,-0.216 2.664,-1.512 1.368,-1.296 3.168,-3.24 0.936,-0.936 2.736,-3.168 1.8,-2.304 3.96,-5.400004 2.232,-3.168 4.464,-6.768 2.304,-3.672 4.104,-7.344 l 5.832,3.6 q -2.808,4.896 -6.264,9.72 -3.384,4.752004 -7.056,9.072004 -3.6,4.32 -7.272,7.848 v 0.216 q 0,0 -0.648,0.36 -0.576,0.288 -1.44,0.792 -0.792,0.504 -1.44,1.08 -0.576,0.576 -0.576,1.08 z m 0,0 -0.36,-5.184 3.096,-2.088 19.512,-2.664 q -0.144,1.296 -0.288,2.952 -0.072,1.656 0,2.664 -6.624,1.08 -10.728,1.8 -4.032,0.648 -6.264,1.08 -2.232,0.432 -3.312,0.792 -1.08,0.288 -1.656,0.648 z m 17.64,1.872 5.184,-1.728 q 1.224,3.312 2.448,7.2 1.296,3.888 1.872,6.696 l -5.4,1.944 q -0.576,-2.88 -1.8,-6.84 -1.152,-3.96 -2.304,-7.272 z m 61.344,-19.8 h 40.392 v 5.832 h -40.392 z m 38.448,0 h 1.44 l 1.008,-0.216 4.536,2.736 q -1.44,2.664 -3.528,5.616 -2.016,2.88 -4.32,5.544 -2.304,2.664 -4.392,4.752 -1.008,-0.792 -2.52,-1.728 -1.512,-0.936 -2.664,-1.584 2.016,-1.872 4.032,-4.32 2.016,-2.448 3.672,-4.968 1.728,-2.592 2.736,-4.608 z m -13.104,-24.696004 q 2.592,2.664 6.264,5.256 3.672,2.592 7.92,4.896 4.32,2.304 8.784,4.176 4.536,1.872 8.784,3.168 -0.72,0.648 -1.656,1.728 -0.864,1.008 -1.656,2.088 -0.792,1.08 -1.368,2.016 -4.176,-1.512 -8.712,-3.672 -4.464,-2.232 -8.856,-4.896 -4.32,-2.736 -8.208,-5.688 -3.816,-2.952 -6.84,-6.12 z m -3.816,-2.664 6.192,2.376 q -5.184,8.28 -13.968,14.184 -8.712,5.904 -19.728,9.576 -0.432,-0.72 -1.152,-1.8 -0.72,-1.08 -1.584,-2.016 -0.792,-1.008 -1.44,-1.656 6.984,-2.16 13.176,-5.184 6.192,-3.024 10.944,-6.912 4.752,-3.96 7.56,-8.568 z m -14.688,44.712004 h 6.912 v 13.248 q 0,1.728 0.936,2.16 0.936,0.432 4.32,0.432 0.576,0 1.944,0 1.44,0 3.24,0 1.8,0 3.6,0 1.872,0 3.384,0 1.512,0 2.304,0 1.872,0 2.808,-0.576 0.936,-0.576 1.296,-2.376 0.432,-1.8 0.648,-5.4 0.72,0.504 1.8,1.008 1.152,0.504 2.304,0.936 1.224,0.36 2.088,0.576 -0.36,4.824 -1.44,7.416 -1.008,2.664 -3.096,3.672 -2.088,1.008 -5.904,1.008 -0.576,0 -2.16,0 -1.584,0 -3.6,0 -2.016,0 -4.104,0 -2.016,0 -3.6,0 -1.512,0 -2.016,0 -4.608,0 -7.128,-0.792 -2.52,-0.792 -3.528,-2.664 -1.008,-1.872 -1.008,-5.256 z m 8.064,-3.168 5.544,-2.952 q 1.872,2.088 4.032,4.608 2.16,2.52 4.104,4.896 2.016,2.376 3.168,4.248 l -5.904,3.384 q -1.152,-1.8 -3.024,-4.248 -1.872,-2.52 -3.96,-5.112 -2.016,-2.592 -3.96,-4.824 z m 25.632,2.664 6.264,-2.088 q 1.584,3.096 3.312,6.696 1.8,3.6 3.456,6.984 1.656,3.384 2.664,5.904 l -6.768,2.52 q -0.864,-2.52 -2.448,-5.976 -1.512,-3.456 -3.24,-7.128 -1.728,-3.744 -3.24,-6.912 z m -42.552,0.144 5.976,2.304 q -0.792,2.808 -1.944,6.192 -1.08,3.312 -2.304,6.624 -1.152,3.24 -2.448,5.832 l -6.336,-2.88 q 1.44,-2.448 2.736,-5.544 1.368,-3.168 2.448,-6.408 1.08,-3.24 1.872,-6.12 z m 11.736,-27.072004 h 27.072 v 5.616 h -27.072 z m 54.36,42.768004 h 63.288 v 5.976 h -63.288 z m 6.408,-13.248 h 51.336 v 5.976 h -51.336 z m 21.528,-7.128 h 6.912 v 23.76 h -6.912 z m 0,-38.592004 h 6.912 v 13.464 h -6.912 z m -27.648,11.232 h 62.784 v 16.416004 h -6.552 V 91.809406 h -49.968 v 10.440004 h -6.264 z m 17.64,16.200004 v 6.912 h 27.144 v -6.912 z m -6.408,-5.328004 h 40.248 v 17.568004 h -40.248 z m -4.752,-19.008 5.976,-2.376 q 1.872,2.16 3.672,4.752 1.8,2.592 2.664,4.536 l -6.336,2.88 q -0.792,-2.016 -2.52,-4.752 -1.728,-2.808 -3.456,-5.04 z m 43.272,-2.664 7.128,2.304 q -1.872,2.592 -3.888,5.112 -2.016,2.448 -3.744,4.176 l -5.688,-1.944 q 1.08,-1.368 2.232,-3.024 1.152,-1.728 2.16,-3.456 1.08,-1.728 1.8,-3.168 z"
         id="text4"
         transform="matrix(0.26166763,0,0,0.26166763,2.2205965,-4.0633201)"
         aria-label="中正紀念堂" />
      <path
         style="font-weight:500;font-size:72px;line-height:1.25;font-family:'Noto Sans TC';-inkscape-font-specification:'Noto Sans TC Medium';white-space:pre;fill:#ffffff"
         d="m 162.03342,81.297406 h 63.648 v 6.408 h -63.648 z m 15.264,29.808004 h 33.264 v 5.4 h -33.264 z m -1.512,11.592 h 36.216 v 5.616 h -36.216 z m 14.616,-8.928 h 6.48 v 26.064 h -6.48 z m -24.984,-19.440004 h 52.128 v 6.336004 h -45.288 v 40.68 h -6.84 z m 50.04,0 h 6.912 v 39.744004 q 0,2.736 -0.72,4.176 -0.72,1.44 -2.736,2.16 -1.944,0.72 -5.112,0.864 -3.096,0.144 -7.488,0.144 -0.216,-1.296 -0.936,-3.024 -0.648,-1.656 -1.368,-2.88 2.088,0.072 4.032,0.072 2.016,0.072 3.6,0 1.584,0 2.16,0 1.008,0 1.296,-0.288 0.36,-0.36 0.36,-1.224 z m -34.848,8.496004 5.4,-1.656 q 1.368,1.872 2.592,4.176 1.224,2.304 1.8,4.032 l -5.76,2.016 q -0.432,-1.8 -1.656,-4.176 -1.152,-2.448 -2.376,-4.392 z m 21.24,-1.656 5.76,1.728 q -1.368,2.664 -2.88,5.328 -1.512,2.664 -2.88,4.536 l -4.896,-1.512 q 0.864,-1.368 1.728,-3.168 0.936,-1.8 1.728,-3.6 0.864,-1.8 1.44,-3.312 z m -11.664,-26.280004 h 7.488 v 23.832 h -7.488 z m 49.176,13.752 h 19.152 v 4.968 h -19.152 z m 33.192,0 h 19.44 v 4.968 h -19.44 z m 16.632,-10.8 h 6.84 v 54.936004 q 0,3.168 -0.792,4.824 -0.792,1.728 -2.88,2.592 -2.088,0.864 -5.544,1.008 -3.456,0.216 -8.496,0.216 -0.144,-0.936 -0.576,-2.232 -0.36,-1.224 -0.864,-2.592 -0.504,-1.296 -1.008,-2.16 2.376,0.072 4.68,0.144 2.376,0 4.176,0 1.8,0 2.52,0 1.08,-0.072 1.512,-0.432 0.432,-0.432 0.432,-1.44 z m -49.248,0 h 22.752 v 27.072004 h -22.752 v -5.544004 h 16.344 v -15.912 h -16.344 z m 52.848,0 v 5.616 h -17.64 v 15.984 h 17.64 v 5.616004 h -24.12 V 77.841406 Z m -56.664,0 h 6.696 v 63.648004 h -6.696 z"
         id="text4-0"
         transform="matrix(0.12803532,0,0,0.12803532,124.09984,6.6152838)"
         aria-label="南門" />
      <path
         style="font-size:7.32669px;line-height:1.25;font-family:'AR UDJingXiHeiE1G30 EB';-inkscape-font-specification:'AR UDJingXiHeiE1G30 EB';fill:#f9f9f9;stroke-width:0.261667"
         d="m 48.509963,39.040093 h 0.93049 q -0.03663,0.871876 -0.608115,1.406724 -0.571482,0.534849 -1.655832,0.534849 -1.282171,0 -1.963553,-0.725343 -0.674056,-0.725342 -0.674056,-2.014839 0,-1.274845 0.674056,-2.007514 0.681382,-0.732669 1.948899,-0.732669 1.01841,0 1.582565,0.468909 0.564155,0.461581 0.644749,1.201577 h -0.93049 q -0.05861,-0.424948 -0.388314,-0.681382 -0.329701,-0.263761 -0.93049,-0.263761 -0.739996,0 -1.186924,0.498215 -0.446928,0.498215 -0.446928,1.516625 0,1.033063 0.446928,1.523951 0.454255,0.490888 1.201577,0.490888 0.637423,0 0.981777,-0.329701 0.344354,-0.337027 0.373661,-0.886529 z m 2.769485,-0.505542 v 2.351868 h -0.93049 v -5.297197 h 0.93049 v 2.219987 h 2.542361 v -2.219987 h 0.93049 v 5.297197 h -0.93049 v -2.351868 z m 5.619572,-2.945329 v 5.297197 h -0.930489 v -5.297197 z m 4.037002,3.157803 -0.835243,-2.263947 -0.849896,2.263947 z m -1.956227,0.725343 -0.527521,1.414051 h -0.945143 l 2.132066,-5.297197 h 0.95247 l 2.117414,5.297197 h -0.967123 l -0.534849,-1.414051 z m 5.267884,-2.410482 v 3.824533 h -0.93049 v -5.297197 h 0.959797 l 2.600975,3.912452 v -3.912452 h 0.930489 v 5.297197 h -1.01841 z m 8.66747,3.179784 q -0.271088,0.380988 -0.681382,0.564155 -0.402968,0.175841 -0.923163,0.175841 -1.142964,0 -1.817019,-0.718016 -0.674056,-0.725342 -0.674056,-2.022166 0,-1.304151 0.710689,-2.022167 0.710689,-0.718016 1.919593,-0.718016 0.97445,0 1.582565,0.446929 0.615442,0.439601 0.739996,1.26019 h -0.93049 q -0.07327,-0.432274 -0.432275,-0.703362 -0.351681,-0.278414 -0.959796,-0.278414 -0.813263,0 -1.238211,0.527521 -0.424948,0.520195 -0.424948,1.487319 0,1.033063 0.446928,1.523951 0.446928,0.483562 1.216231,0.483562 0.674055,0 1.069697,-0.395642 0.395641,-0.395641 0.395641,-0.908509 v -0.109901 h -1.501972 v -0.725342 h 2.395828 v 2.776816 h -0.893856 z m 4.842931,-1.179597 v 1.824346 h -0.93049 v -5.297197 h 0.93049 v 2.395827 l 2.322561,-2.395827 h 1.135637 l -2.139394,2.14672 2.219987,3.150477 h -1.12831 l -1.714446,-2.542362 z m 6.97501,-0.315048 -0.835242,-2.263947 -0.849897,2.263947 z m -1.956226,0.725343 -0.527522,1.414051 h -0.945143 l 2.132067,-5.297197 h 0.95247 l 2.117413,5.297197 h -0.967123 l -0.534848,-1.414051 z m 5.267886,-3.883146 v 5.297197 h -0.930489 v -5.297197 z m 3.223737,2.798795 v 0.732669 h -2.337214 v -0.732669 z m 2.644939,0.102574 q -0.967123,-0.175841 -1.436031,-0.542175 -0.468908,-0.366335 -0.468908,-1.025737 0,-0.615442 0.498215,-1.01841 0.505542,-0.402968 1.553258,-0.402968 0.959797,0 1.487318,0.410295 0.527522,0.410295 0.578809,1.186924 h -0.93049 q -0.0073,-0.373661 -0.293067,-0.622769 -0.285741,-0.249107 -0.871877,-0.249107 -0.549501,0 -0.813262,0.183167 -0.263761,0.183167 -0.256434,0.512868 0,0.359008 0.351681,0.534849 0.359008,0.17584 1.164944,0.337027 1.011083,0.205148 1.436031,0.556829 0.432275,0.351681 0.432275,1.055043 0,0.674056 -0.571482,1.128311 -0.571482,0.446928 -1.626525,0.446928 -1.077024,0 -1.677813,-0.454255 -0.600788,-0.454255 -0.600788,-1.311478 h 0.93049 q 0,0.476235 0.359007,0.761976 0.359008,0.278414 0.99643,0.278414 0.586135,0 0.915837,-0.227127 0.329701,-0.227127 0.329701,-0.593462 0,-0.424948 -0.329701,-0.608115 -0.329702,-0.183167 -1.157618,-0.337028 z m 4.234825,0.04396 v 2.351868 h -0.93049 v -5.297197 h 0.93049 v 2.219987 h 2.542359 v -2.219987 h 0.93049 v 5.297197 h -0.93049 v -2.351868 z m 8.608869,2.351868 h -3.91978 v -5.297197 h 3.8978 v 0.725342 h -2.96731 v 1.494645 h 2.76949 v 0.725342 h -2.76949 v 1.626525 h 2.98929 z m 1.91226,-1.824346 v 1.824346 h -0.93049 v -5.297197 h 0.93049 v 2.395827 l 2.32257,-2.395827 h 1.13563 l -2.13939,2.14672 2.21999,3.150477 h -1.12831 l -1.71445,-2.542362 z m 6.97501,-1.99286 v 3.817206 h -0.90118 v -5.297197 h 1.17959 l 1.52395,4.110273 1.46534,-4.110273 h 1.20891 v 5.297197 h -0.90851 v -3.846513 l -1.37742,3.846513 h -0.78396 z m 9.61261,3.817206 h -3.91978 v -5.297197 h 3.8978 v 0.725342 h -2.96731 v 1.494645 h 2.76949 v 0.725342 h -2.76949 v 1.626525 h 2.98929 z m 1.88297,-3.817206 v 3.817206 h -0.90118 v -5.297197 h 1.17959 l 1.52396,4.110273 1.46533,-4.110273 h 1.20891 v 5.297197 h -0.90851 v -3.846513 l -1.37742,3.846513 h -0.78395 z m 10.78488,1.194251 q 0,1.274844 -0.71068,2.000186 -0.70337,0.718016 -1.92692,0.718016 -1.24554,0 -1.9489,-0.725343 -0.70337,-0.725342 -0.70337,-1.992859 0,-1.289498 0.71069,-2.022167 0.71069,-0.739996 1.94158,-0.739996 1.24553,0 1.94157,0.732669 0.69603,0.732669 0.69603,2.029494 z m -2.6376,1.992859 q 0.79861,0 1.23088,-0.527521 0.4396,-0.527522 0.4396,-1.465338 0,-0.93049 -0.4396,-1.479992 -0.4396,-0.556828 -1.23088,-0.556828 -0.80594,0 -1.25287,0.564155 -0.4396,0.556828 -0.4396,1.472665 0,0.937816 0.44693,1.465338 0.44693,0.527521 1.24554,0.527521 z m 6.96768,-3.150476 q 0,-0.388315 -0.20515,-0.586136 -0.20515,-0.205147 -0.59346,-0.205147 h -1.58989 v 1.648505 h 1.5386 q 0.38099,0 0.61545,-0.227127 0.23445,-0.227127 0.23445,-0.630095 z m -2.3885,1.575238 v 2.205334 h -0.93049 v -5.297197 h 2.69622 q 0.72534,0 1.15029,0.388314 0.43228,0.380988 0.43228,1.08435 0,0.461582 -0.2198,0.791283 -0.21248,0.329701 -0.53485,0.468908 0.41029,0.234454 0.63009,0.813263 0.2198,0.578808 0.27842,1.751079 h -0.96713 q -0.044,-1.230884 -0.27108,-1.714446 -0.2198,-0.490888 -0.71069,-0.490888 z m 5.35582,-3.091863 v 5.297197 h -0.93049 v -5.297197 z m 4.037,3.157803 -0.83525,-2.263947 -0.84989,2.263947 z m -1.95623,0.725343 -0.52752,1.414051 h -0.94514 l 2.13206,-5.297197 h 0.95247 l 2.11742,5.297197 h -0.96713 l -0.53484,-1.414051 z m 8.05935,1.414051 h -3.72196 v -5.297197 h 0.93049 v 4.571854 h 2.79147 z m 3.61938,-2.351868 v 2.351868 h -0.93049 v -5.297197 h 0.93049 v 2.219987 h 2.54237 v -2.219987 h 0.93049 v 5.297197 h -0.93049 v -2.351868 z m 7.50987,0.212474 -0.83525,-2.263947 -0.84989,2.263947 z m -1.95623,0.725343 -0.52752,1.414051 h -0.94514 l 2.13206,-5.297197 h 0.95247 l 2.11742,5.297197 h -0.96713 l -0.53485,-1.414051 z m 8.05935,1.414051 h -3.72196 v -5.297197 h 0.93049 v 4.571854 h 2.79147 z m 4.49127,0 h -3.72196 v -5.297197 h 0.93049 v 4.571854 h 2.79147 z"
         id="text5"
         aria-label="CHIANG KAI-SHEK MEMORIAL HALL" />
      <path
         style="font-size:3.52072px;line-height:1.25;font-family:'AR UDJingXiHeiE1G30 EB';-inkscape-font-specification:'AR UDJingXiHeiE1G30 EB';fill:#ffffff;stroke-width:0.12574"
         d="m 145.42993,26.731719 v 1.837816 h -0.44713 v -2.545481 h 0.46122 l 1.24985,1.880064 v -1.880064 h 0.44713 v 2.545481 h -0.48938 z m 3.65099,0.809765 -0.40136,-1.087902 -0.40841,1.087902 z m -0.94003,0.348552 -0.2535,0.679499 h -0.45417 l 1.02453,-2.545481 h 0.45769 l 1.01749,2.545481 h -0.46473 l -0.25702,-0.679499 z m 2.53139,-1.158317 v 1.837816 h -0.44713 v -2.545481 h 0.46121 l 1.24986,1.880064 v -1.880064 h 0.44713 v 2.545481 h -0.48938 z m 2.72856,0.0035 v 1.834296 h -0.43305 v -2.545481 h 0.56683 l 0.73231,1.975124 0.70415,-1.975124 h 0.58092 v 2.545481 h -0.43657 v -1.848378 l -0.6619,1.848378 h -0.37672 z m 4.61918,1.834296 h -1.88359 v -2.545481 h 1.87303 v 0.348551 h -1.4259 v 0.718227 h 1.33084 v 0.348551 h -1.33084 v 0.7816 h 1.43646 z m 0.91891,-1.837816 v 1.837816 h -0.44713 v -2.545481 h 0.46121 l 1.24986,1.880064 V 26.024054 H 160.65 v 2.545481 h -0.48938 z"
         id="text5-8"
         aria-label="NANMEN" />
      <path
         d="m 44.687825,44.699548 h 5.963926 v 3.553444 H 49.933735 V 45.38093 h -4.557201 v 2.908696 h -0.688709 z m 0.359008,2.469094 h 5.297197 v 0.681382 H 45.046833 Z M 47.2888,43.41005 h 0.725343 v 6.791842 H 47.2888 Z m 4.667102,0.505542 h 6.139766 v 0.681382 h -6.139766 z m 3.216417,2.491074 h 2.593648 v 0.674056 h -2.593648 z m -3.487505,2.820776 h 6.637982 v 0.681382 h -6.637982 z m 3.150477,-5.048089 h 0.732669 v 5.37779 h -0.732669 z m -2.19068,1.670485 h 0.718015 v 3.736612 h -0.718015 z m 9.502717,-2.03682 h 3.201764 v 3.333644 h -0.696036 v -2.681568 h -2.505728 z m 0.520195,2.263947 h 2.300581 v 0.644749 h -2.300581 z m -0.329701,0 h 0.688709 v 3.091864 q 0,0.227127 0.08059,0.293067 0.08059,0.06594 0.366335,0.06594 0.06594,0 0.227127,0 0.168514,0 0.373661,0 0.205148,0 0.380988,0 0.175841,0 0.263761,0 0.175841,0 0.263761,-0.08059 0.08792,-0.08792 0.124554,-0.337028 0.03663,-0.249107 0.05861,-0.732669 0.08059,0.05861 0.190494,0.117227 0.117227,0.05129 0.241781,0.09525 0.124554,0.04396 0.212474,0.07327 -0.04396,0.586135 -0.146534,0.915836 -0.09525,0.329701 -0.307721,0.461582 -0.212474,0.139207 -0.593462,0.139207 -0.05861,0 -0.19782,0 -0.139207,0 -0.315048,0 -0.175841,0 -0.351681,0 -0.175841,0 -0.315048,0 -0.13188,0 -0.183167,0 -0.402968,0 -0.637422,-0.08792 -0.227127,-0.08792 -0.329701,-0.307721 -0.09525,-0.212474 -0.09525,-0.608116 z m -2.110087,0.857223 h 0.659402 v 3.275031 h -0.659402 z m -0.07327,-3.524138 0.637422,0.271088 q -0.168514,0.271087 -0.359008,0.571482 -0.183167,0.293067 -0.366334,0.564155 -0.183167,0.271087 -0.351681,0.476235 l -0.483562,-0.234455 q 0.161187,-0.2198 0.329701,-0.505541 0.175841,-0.293068 0.329701,-0.593462 0.161188,-0.300394 0.263761,-0.549502 z m 0.95247,0.835243 0.593462,0.293067 q -0.285741,0.410295 -0.637422,0.871877 -0.351681,0.454254 -0.710689,0.879202 -0.351681,0.417622 -0.666729,0.732669 l -0.432275,-0.249107 q 0.234454,-0.249107 0.483562,-0.556828 0.256434,-0.315048 0.505542,-0.659403 0.249107,-0.344354 0.468908,-0.674055 0.227127,-0.337028 0.395641,-0.637422 z m -2.205334,0.864549 0.329701,-0.468908 q 0.205148,0.153861 0.417622,0.344355 0.2198,0.183167 0.402968,0.373661 0.183167,0.190494 0.28574,0.344354 l -0.351681,0.542175 Q 59.883381,46.076965 59.70754,45.879145 59.5317,45.681324 59.319226,45.483504 59.106752,45.278356 58.901604,45.109842 Z m 1.99286,0.849896 0.520195,-0.234454 q 0.168514,0.241781 0.337028,0.520195 0.17584,0.278415 0.315047,0.549502 0.139207,0.271088 0.212474,0.476235 l -0.564155,0.278414 q -0.06594,-0.212474 -0.19782,-0.483561 -0.131881,-0.278415 -0.293068,-0.564156 -0.161187,-0.293067 -0.329701,-0.542175 z m -2.01484,0.681383 q 0.542175,-0.02198 1.289498,-0.05861 0.747322,-0.03663 1.523951,-0.07327 l -0.0073,0.578809 q -0.732669,0.05129 -1.458011,0.09525 -0.725342,0.03663 -1.282171,0.06594 z m 2.19068,1.164943 0.549502,-0.19782 q 0.124554,0.2198 0.234454,0.476235 0.117227,0.249107 0.212474,0.498214 0.09525,0.241781 0.146534,0.432275 l -0.586135,0.227128 q -0.04396,-0.190494 -0.13188,-0.439602 -0.08792,-0.249107 -0.197821,-0.512868 -0.1099,-0.263761 -0.227128,-0.483562 z m -1.751078,-0.15386 0.622768,0.117227 q -0.08059,0.520195 -0.227127,1.033063 -0.146534,0.512868 -0.337028,0.857223 -0.05861,-0.03663 -0.168514,-0.08792 -0.102573,-0.05861 -0.212474,-0.109901 -0.1099,-0.05129 -0.183167,-0.08059 0.197821,-0.322375 0.315048,-0.783956 0.124553,-0.468908 0.190494,-0.945143 z m 8.857968,0.285741 h 0.688708 v 1.311477 q 0,0.153861 0.06594,0.197821 0.07327,0.03663 0.315047,0.03663 0.05861,0 0.197821,0 0.139207,0 0.307721,0 0.17584,0 0.322374,0 0.153861,0 0.227128,0 0.146533,0 0.2198,-0.05129 0.07327,-0.05861 0.09525,-0.234455 0.02931,-0.183167 0.04396,-0.556828 0.07327,0.05861 0.183168,0.1099 0.1099,0.05129 0.227127,0.08792 0.124554,0.03663 0.212474,0.06594 -0.03663,0.476235 -0.13188,0.739996 -0.09525,0.26376 -0.278415,0.359007 -0.183167,0.102574 -0.512868,0.102574 -0.05129,0 -0.168514,0 -0.117227,0 -0.271087,0 -0.153861,0 -0.307721,0 -0.153861,0 -0.271088,0 -0.117227,0 -0.168514,0 -0.395641,0 -0.615442,-0.08059 -0.212474,-0.07327 -0.300394,-0.26376 -0.08059,-0.183168 -0.08059,-0.505542 z m 0.380987,-0.402968 0.432275,-0.454255 q 0.263761,0.117227 0.534849,0.278414 0.278414,0.161187 0.520195,0.337028 0.24178,0.175841 0.388314,0.344354 l -0.468908,0.490889 Q 69.825699,48.362893 69.591245,48.179725 69.364117,47.996558 69.09303,47.828044 68.821942,47.65953 68.558181,47.534977 Z m 2.513055,0.600788 0.578809,-0.337027 q 0.271087,0.249107 0.542175,0.549501 0.271087,0.293068 0.490888,0.593462 0.219801,0.300395 0.337028,0.564155 l -0.622769,0.380988 Q 72.287467,49.63041 72.074993,49.330016 71.869845,49.022295 71.606085,48.707247 71.34965,48.3922 71.071236,48.135765 Z m -3.839186,-0.256434 0.622769,0.205148 q -0.08059,0.344354 -0.219801,0.696035 -0.13188,0.344355 -0.337027,0.644749 -0.197821,0.300394 -0.483562,0.527522 l -0.571482,-0.395642 q 0.256434,-0.190494 0.446928,-0.461581 0.197821,-0.271088 0.329701,-0.578809 0.139208,-0.315047 0.212474,-0.637422 z m 0.01465,-1.904939 h 4.110273 v 0.593462 h -4.110273 z m 1.06237,-0.99643 h 2.637608 v 0.549502 h -2.637608 z m 1.296824,-0.95247 q -0.307721,0.351681 -0.783956,0.718016 -0.468908,0.359008 -1.04039,0.681382 -0.571482,0.315048 -1.157617,0.549502 -0.04396,-0.08792 -0.1099,-0.197821 -0.06594,-0.1099 -0.139207,-0.212474 -0.07327,-0.1099 -0.146534,-0.183167 0.608115,-0.219801 1.179597,-0.534849 0.578809,-0.315047 1.047717,-0.688708 0.468908,-0.373662 0.761976,-0.739996 h 0.710688 q 0.402968,0.424948 0.915837,0.798609 0.512868,0.366335 1.08435,0.644749 0.571482,0.271087 1.135637,0.446928 -0.117227,0.124554 -0.234454,0.307721 -0.117227,0.17584 -0.197821,0.322374 -0.395641,-0.15386 -0.820589,-0.359008 -0.424948,-0.212474 -0.835243,-0.461581 -0.402968,-0.256434 -0.761976,-0.534848 -0.351681,-0.278415 -0.608115,-0.556829 z m 1.553258,1.9489 h 0.146534 l 0.109901,-0.02931 0.461581,0.278414 q -0.13188,0.285741 -0.329701,0.600789 -0.197821,0.315047 -0.417621,0.615442 -0.212474,0.293067 -0.410295,0.520195 -0.102574,-0.08059 -0.256434,-0.175841 -0.153861,-0.09525 -0.278414,-0.15386 0.190494,-0.212474 0.373661,-0.483562 0.190494,-0.271087 0.351681,-0.549502 0.161187,-0.278414 0.249107,-0.490888 z m 2.608303,3.428891 h 6.44016 v 0.608115 h -6.44016 z m 0.652075,-1.348111 h 5.22393 v 0.608115 h -5.22393 z m 2.19068,-0.725343 h 0.703363 v 2.417808 h -0.703363 z m 0,-3.927106 h 0.703363 v 1.370092 h -0.703363 z m -2.813449,1.142964 h 6.388874 v 1.670486 H 79.51891 v -1.062371 h -5.084723 v 1.062371 h -0.637422 z m 1.795039,1.648505 v 0.703363 h 2.762163 v -0.703363 z m -0.652075,-0.542175 h 4.09562 v 1.787713 h -4.09562 z m -0.483562,-1.934246 0.608116,-0.241781 q 0.190494,0.219801 0.373661,0.483562 0.183167,0.263761 0.271088,0.461581 l -0.644749,0.293068 q -0.08059,-0.205147 -0.256434,-0.483562 -0.175841,-0.28574 -0.351682,-0.512868 z m 4.403341,-0.271087 0.725343,0.234454 q -0.190494,0.263761 -0.395642,0.520195 -0.205147,0.249107 -0.380988,0.424948 L 78.229413,44.42846 q 0.1099,-0.139207 0.227127,-0.307721 0.117227,-0.17584 0.219801,-0.351681 0.1099,-0.175841 0.183167,-0.322374 z"
         id="text5-9"
         style="font-weight:500;font-size:7.32669px;line-height:1.25;font-family:'Noto Sans JP';-inkscape-font-specification:'Noto Sans JP Medium';fill:#f9f9f9;stroke-width:0.261667"
         aria-label="中正紀念堂" />
      <path
         d="m 144.80854,30.144106 h 2.86882 v 0.288829 h -2.86882 z m 0.688,1.343542 h 1.49931 v 0.243395 h -1.49931 z m -0.0682,0.522488 h 1.63237 v 0.253131 h -1.63237 z m 0.65879,-0.402413 h 0.29207 v 1.174787 h -0.29207 z M 144.96107,30.7315 h 2.34957 v 0.285584 h -2.04127 v 1.833577 h -0.3083 z m 2.25546,0 h 0.31155 v 1.791389 q 0,0.12332 -0.0325,0.188225 -0.0325,0.06491 -0.12332,0.09736 -0.0876,0.03245 -0.23041,0.03894 -0.13955,0.0065 -0.33751,0.0065 -0.01,-0.05841 -0.0422,-0.136301 -0.0292,-0.07464 -0.0617,-0.129811 0.0941,0.0032 0.18174,0.0032 0.0909,0.0032 0.16226,0 0.0714,0 0.0974,0 0.0454,0 0.0584,-0.01298 0.0162,-0.01623 0.0162,-0.05517 z m -1.57071,0.382942 0.2434,-0.07464 q 0.0617,0.08438 0.11683,0.188226 0.0552,0.103849 0.0811,0.181735 l -0.25962,0.09087 q -0.0195,-0.08113 -0.0746,-0.188226 -0.0519,-0.110339 -0.10709,-0.197961 z m 0.95736,-0.07464 0.25962,0.07789 q -0.0617,0.120075 -0.12981,0.24015 -0.0682,0.120075 -0.12981,0.204452 l -0.22068,-0.06815 q 0.0389,-0.06166 0.0779,-0.142792 0.0422,-0.08113 0.0779,-0.162263 0.0389,-0.08113 0.0649,-0.149283 z m -0.52574,-1.184523 h 0.33751 v 1.074184 h -0.33751 z m 2.21652,0.619846 h 0.86324 v 0.223924 h -0.86324 z m 1.49607,0 h 0.87622 v 0.223924 h -0.87622 z m 0.74966,-0.48679 h 0.3083 v 2.476141 q 0,0.142792 -0.0357,0.217433 -0.0357,0.07789 -0.12981,0.11683 -0.0941,0.03894 -0.24989,0.04543 -0.15577,0.0097 -0.38294,0.0097 -0.006,-0.04219 -0.026,-0.100603 -0.0162,-0.05517 -0.0389,-0.11683 -0.0227,-0.05842 -0.0454,-0.09736 0.1071,0.0032 0.21095,0.0065 0.10709,0 0.18822,0 0.0811,0 0.11359,0 0.0487,-0.0032 0.0682,-0.01947 0.0195,-0.01947 0.0195,-0.0649 z m -2.21977,0 h 1.02551 v 1.220221 h -1.02551 v -0.249885 h 0.73668 v -0.717205 h -0.73668 z m 2.38203,0 v 0.253131 h -0.79509 v 0.72045 h 0.79509 v 0.253131 h -1.08716 v -1.226712 z m -2.55403,0 h 0.30181 v 2.868819 h -0.30181 z"
         id="text5-9-1"
         style="font-weight:500;font-size:3.24527px;line-height:1.25;font-family:'Noto Sans JP';-inkscape-font-specification:'Noto Sans JP Medium';fill:#f9f9f9;stroke-width:0.115903"
         aria-label="南門" />
      <path
         style="font-weight:500;font-size:3.24527px;line-height:1.25;font-family:'Noto Sans kr';-inkscape-font-specification:'Noto Sans kr Medium';fill:#f9f9f9;stroke-width:0.115903"
         d="m 155.59122,30.174255 h 0.33751 v 1.246183 h -0.33751 z m 0,1.13909 h 0.24015 q 0.31155,0 0.64257,-0.02596 0.33426,-0.02596 0.69448,-0.09736 l 0.0389,0.275848 q -0.36672,0.07464 -0.71072,0.103849 -0.34075,0.02596 -0.66528,0.02596 h -0.24015 z m 1.84332,-1.343542 h 0.3375 v 2.138633 h -0.3375 z m 0.2369,0.856751 h 0.51924 v 0.288829 h -0.51924 z m -1.76867,1.771917 h 1.96988 v 0.275848 h -1.96988 z m 0,-0.694487 h 0.34075 v 0.837279 h -0.34075 z m 2.67086,-1.687541 h 1.37274 v 1.405202 h -1.37274 z m 1.04173,0.269358 h -0.70747 v 0.863242 h 0.70747 z m 0.94437,-0.515998 h 0.34075 v 2.16135 h -0.34075 z m -0.70747,0.804827 h 0.79834 v 0.272602 h -0.79834 z m -0.87298,1.823841 h 1.99909 v 0.275848 h -1.99909 z m 0,-0.668525 h 0.34076 v 0.801582 h -0.34076 z"
         id="text5-9-1-0"
         aria-label="난먼" />
      <path
         style="font-weight:500;font-size:7.32669px;line-height:1.25;font-family:'Noto Sans KR';-inkscape-font-specification:'Noto Sans KR Medium';fill:#f9f9f9;stroke-width:0.261667"
         d="m 92.457523,46.94047 h 0.769303 v 1.179598 h -0.769303 z m -2.637608,-0.256434 h 6.051846 v 0.615442 h -6.051846 z m 3.01127,1.208904 q 1.08435,0 1.692465,0.315048 0.615442,0.307721 0.615442,0.879203 0,0.571482 -0.615442,0.879203 -0.608115,0.307721 -1.692465,0.307721 -1.077024,0 -1.692466,-0.307721 -0.608115,-0.307721 -0.608115,-0.879203 0,-0.571482 0.608115,-0.879203 0.615442,-0.315048 1.692466,-0.315048 z m 0,0.593462 q -0.483562,0 -0.827916,0.07327 -0.344355,0.06594 -0.527522,0.197821 -0.175841,0.13188 -0.175841,0.329701 0,0.19782 0.175841,0.337027 0.183167,0.131881 0.527522,0.197821 0.344354,0.06594 0.827916,0.06594 0.498215,0 0.835242,-0.06594 0.344355,-0.06594 0.520195,-0.197821 0.175841,-0.139207 0.175841,-0.337027 0,-0.197821 -0.175841,-0.329701 -0.17584,-0.131881 -0.520195,-0.197821 -0.337027,-0.07327 -0.835242,-0.07327 z M 92.33297,44.178308 h 0.681382 v 0.183168 q 0,0.315047 -0.124554,0.593461 -0.124554,0.271088 -0.359008,0.505542 -0.234454,0.227127 -0.556828,0.410295 -0.322374,0.183167 -0.725342,0.300394 -0.395642,0.117227 -0.857223,0.168514 l -0.271088,-0.600789 q 0.395642,-0.03663 0.732669,-0.124553 0.344355,-0.09525 0.615442,-0.227128 0.271088,-0.13188 0.461582,-0.293067 0.190494,-0.168514 0.293067,-0.351682 0.109901,-0.190494 0.109901,-0.380987 z m 0.344354,0 h 0.681382 v 0.183168 q 0,0.19782 0.102574,0.388314 0.102574,0.183167 0.293068,0.344355 0.190494,0.161187 0.461581,0.293067 0.278414,0.131881 0.615442,0.227128 0.344355,0.08792 0.739996,0.124553 l -0.271088,0.600789 Q 94.838698,46.288395 94.43573,46.171168 94.040089,46.053941 93.710388,45.8781 93.388013,45.694933 93.153559,45.467806 92.926432,45.233352 92.801878,44.954937 92.677324,44.669197 92.677324,44.361476 Z m -2.307907,-0.293067 h 4.952842 v 0.608115 h -4.952842 z m 9.788463,1.384744 h 1.40672 v 0.630095 h -1.40672 z m 1.17959,-1.677812 h 0.76931 v 3.98572 h -0.76931 z m -1.458009,4.16156 q 0.703359,0 1.201579,0.153861 0.50554,0.146533 0.77663,0.432274 0.27841,0.278415 0.27841,0.681383 0,0.600788 -0.60811,0.930489 -0.60079,0.329701 -1.648509,0.329701 -1.047716,0 -1.655832,-0.329701 -0.608115,-0.329701 -0.608115,-0.930489 0,-0.402968 0.271088,-0.681383 0.278414,-0.285741 0.783956,-0.432274 0.512868,-0.153861 1.208903,-0.153861 z m 0,0.586135 q -0.476234,0 -0.813262,0.08059 -0.329701,0.08059 -0.505542,0.227127 -0.17584,0.146534 -0.17584,0.373662 0,0.212474 0.17584,0.366334 0.175841,0.153861 0.505542,0.234454 0.337028,0.07327 0.813262,0.07327 0.476239,0 0.805939,-0.07327 0.3297,-0.08059 0.50554,-0.234454 0.18317,-0.15386 0.18317,-0.366334 0,-0.227128 -0.18317,-0.373662 -0.17584,-0.146534 -0.50554,-0.227127 -0.3297,-0.08059 -0.805939,-0.08059 z m -1.685138,-4.073639 h 0.630095 v 0.483561 q 0,0.630095 -0.227127,1.186924 -0.219801,0.549502 -0.637422,0.97445 -0.417622,0.417621 -1.011084,0.630095 l -0.388314,-0.608115 q 0.388314,-0.139207 0.688709,-0.366335 0.307721,-0.227127 0.520195,-0.520195 0.212474,-0.293067 0.315047,-0.622768 0.109901,-0.329701 0.109901,-0.674056 z m 0.15386,0 h 0.622769 v 0.483561 q 0,0.410295 0.183167,0.805936 0.183167,0.395641 0.534848,0.710689 0.351683,0.307721 0.857223,0.490888 l -0.38099,0.600789 Q 99.586394,47.152945 99.176099,46.76463 98.773131,46.368989 98.560657,45.848794 98.348183,45.321272 98.348183,44.74979 Z m -1.567912,-0.227128 h 3.582749 v 0.622769 h -3.582749 z m 13.334579,-0.454255 h 0.76931 v 6.696595 h -0.76931 z m -1.97088,0.710689 h 0.76198 q 0,0.747323 -0.16119,1.428705 -0.16118,0.681382 -0.52752,1.296824 -0.35901,0.608115 -0.95247,1.12831 -0.58613,0.520195 -1.45068,0.937817 l -0.4103,-0.608116 q 0.97445,-0.468908 1.57524,-1.069696 0.60079,-0.600789 0.8792,-1.340785 0.28574,-0.747322 0.28574,-1.641178 z m -2.41048,0 h 2.75484 v 0.615442 h -2.75484 z m 6.75521,-0.395641 h 0.76198 v 2.901369 h -0.76198 z m 0,2.754836 h 0.50554 q 0.5202,0 0.97445,-0.01465 0.46158,-0.02198 0.89386,-0.06594 0.4396,-0.04396 0.90118,-0.13188 l 0.0879,0.615442 q -0.46891,0.09525 -0.92316,0.146533 -0.45425,0.04396 -0.93049,0.06594 -0.46891,0.01465 -1.00376,0.01465 h -0.50554 z m 4.38136,-3.069884 h 0.76931 v 3.934433 h -0.76931 z m -1.75108,0.681383 h 1.9489 v 0.593461 h -1.9489 z m 0,1.179597 h 1.9489 v 0.593462 h -1.9489 z m -1.839,2.359194 h 4.35939 v 2.395828 h -4.35939 z m 3.60474,0.608115 h -2.85009 v 1.179597 h 2.85009 z m 6.41085,-4.828289 h 0.77663 v 3.934433 h -0.77663 z m 0.55683,1.670486 h 1.15029 v 0.637422 h -1.15029 z m -1.9489,2.388501 q 0.68871,0 1.18692,0.161187 0.49822,0.161187 0.76931,0.454255 0.27108,0.293067 0.27108,0.703362 0,0.410295 -0.27108,0.710689 -0.27109,0.293068 -0.76931,0.446928 -0.49821,0.161187 -1.18692,0.161187 -0.68138,0 -1.18692,-0.161187 -0.49822,-0.15386 -0.76931,-0.446928 -0.27108,-0.300394 -0.27108,-0.710689 0,-0.410295 0.27108,-0.703362 0.27109,-0.293068 0.76931,-0.454255 0.50554,-0.161187 1.18692,-0.161187 z m 0,0.622768 q -0.46158,0 -0.79128,0.08059 -0.3297,0.08059 -0.50554,0.234454 -0.17584,0.153861 -0.17584,0.380988 0,0.227127 0.17584,0.388315 0.17584,0.15386 0.50554,0.234454 0.3297,0.08059 0.79128,0.08059 0.46158,0 0.79128,-0.08059 0.33703,-0.08059 0.50554,-0.234454 0.17585,-0.161188 0.17585,-0.388315 0,-0.227127 -0.17585,-0.380988 -0.16851,-0.15386 -0.50554,-0.234454 -0.3297,-0.08059 -0.79128,-0.08059 z m -2.80612,-1.817019 h 0.54217 q 0.71802,0 1.23089,-0.01465 0.52019,-0.02198 0.94514,-0.06594 0.43228,-0.05129 0.85722,-0.139207 l 0.0806,0.615442 q -0.43228,0.08792 -0.87188,0.139207 -0.4396,0.05129 -0.97445,0.06594 -0.53485,0.01465 -1.26752,0.01465 h -0.54217 z m 0,-2.381174 h 2.97463 v 0.622769 h -2.21266 v 2.1687 h -0.76197 z"
         id="text5-9-8"
         aria-label="중정 기념당" />
      <path
         id="rect2"
         style="fill:#ffffff;stroke-width:0.757875"
         d="m 140.32413,16.102369 h 1.0501 v 16.764515 h -1.0501 z" />
    </g>
  </g>
</svg>
