<?xml version="1.0" encoding="UTF-8" standalone="no"?>
<!-- Created with Inkscape (http://www.inkscape.org/) -->

<svg
   width="500"
   height="250"
   viewBox="0 0 132.29166 66.145833"
   version="1.1"
   id="svg1"
   inkscape:version="1.3.2 (091e20e, 2023-11-25, custom)"
   sodipodi:docname="g11.svg"
   xmlns:inkscape="http://www.inkscape.org/namespaces/inkscape"
   xmlns:sodipodi="http://sodipodi.sourceforge.net/DTD/sodipodi-0.dtd"
   xmlns="http://www.w3.org/2000/svg"
   xmlns:svg="http://www.w3.org/2000/svg">
  <sodipodi:namedview
     id="namedview1"
     pagecolor="#9e652e"
     bordercolor="#ffffff"
     borderopacity="1"
     inkscape:showpageshadow="0"
     inkscape:pageopacity="0"
     inkscape:pagecheckerboard="false"
     inkscape:deskcolor="#d1d1d1"
     inkscape:document-units="mm"
     inkscape:zoom="2.0208096"
     inkscape:cx="206.35294"
     inkscape:cy="106.88785"
     inkscape:window-width="1920"
     inkscape:window-height="1009"
     inkscape:window-x="1912"
     inkscape:window-y="-8"
     inkscape:window-maximized="1"
     inkscape:current-layer="layer1" />
  <defs
     id="defs1">
    <rect
       x="560.66638"
       y="34.144731"
       width="279.32397"
       height="128.59143"
       id="rect6" />
    <rect
       x="157.85752"
       y="62.351248"
       width="381.61437"
       height="132.30098"
       id="rect4" />
    <rect
       x="157.85751"
       y="62.35125"
       width="329.07602"
       height="135.09438"
       id="rect4-5" />
    <rect
       x="157.85751"
       y="62.35125"
       width="329.07602"
       height="135.09438"
       id="rect4-5-8" />
    <rect
       x="157.85751"
       y="62.35125"
       width="329.07602"
       height="135.09438"
       id="rect4-5-1" />
  </defs>
  <g
     inkscape:label="Layer 1"
     inkscape:groupmode="layer"
     id="layer1">
    <rect
       style="fill:#007846;fill-opacity:1;stroke:none;stroke-width:0.953294;stroke-dasharray:none"
       id="rect5"
       width="132.29167"
       height="66.145836"
       x="-2.5431316e-06"
       y="-1.2715658e-06"
       ry="0" />
    <g
       id="g8"
       transform="matrix(0.92873373,0,0,0.92873373,3.5542482,2.3569834)">
      <g
         id="g7"
         transform="translate(21.702836,0.6546469)">
        <g
           id="g1"
           transform="matrix(0.93177749,0,0,0.93177749,-13.833945,1.6016693)">
          <path
             id="rect1"
             style="fill-opacity:0;stroke:#f9f9f9;stroke-width:0.942789"
             d="m 26.668419,14.352791 h 12.425165 c 3.927061,0 7.088558,3.161497 7.088558,7.088559 v 23.263136 c 0,3.927062 -3.161497,7.088559 -7.088558,7.088559 H 26.668419 c -3.927061,0 -7.088558,-3.161497 -7.088558,-7.088559 V 21.44135 c 0,-3.927062 3.161497,-7.088559 7.088558,-7.088559 z" />
          <path
             style="font-size:14.4826px;line-height:1.25;font-family:'AR UDJingXiHeiE1G30 EB';-inkscape-font-specification:'AR UDJingXiHeiE1G30 EB';fill:#f9f9f9;stroke-width:0.301722"
             d="m 35.832506,29.412688 q -0.535856,0.753095 -1.346882,1.11516 -0.796543,0.347582 -1.824808,0.347582 -2.259285,0 -3.591684,-1.419294 -1.3324,-1.433778 -1.3324,-3.997198 0,-2.577903 1.404813,-3.997198 1.404812,-1.419295 3.794441,-1.419295 1.926186,0 3.128241,0.883439 1.216539,0.868956 1.462743,2.491007 h -1.83929 q -0.144826,-0.854473 -0.854474,-1.390329 -0.695164,-0.550339 -1.89722,-0.550339 -1.607569,0 -2.44756,1.042747 -0.83999,1.028265 -0.83999,2.939968 0,2.042047 0.883438,3.012381 0.883439,0.955851 2.404112,0.955851 1.332399,0 2.114459,-0.78206 0.782061,-0.78206 0.782061,-1.795842 v -0.217239 h -2.968933 v -1.433778 h 4.73581 v 5.488906 h -1.766877 z"
             id="text2"
             aria-label="G" />
          <path
             style="font-size:14.3917px;line-height:1.25;font-family:'AR UDJingXiHeiE1G30 EB';-inkscape-font-specification:'AR UDJingXiHeiE1G30 EB';fill:#f9f9f9;stroke-width:0.261667"
             d="m 27.82952,37.005719 -1.683829,1.568695 -0.834719,-1.280861 2.70564,-2.460981 h 1.568695 V 45.237771 H 27.82952 Z m 8.563051,0 -1.683829,1.568695 -0.834718,-1.280861 2.705639,-2.460981 h 1.568695 v 10.405199 h -1.755787 z"
             id="text3"
             aria-label="11" />
          <path
             style="font-weight:500;font-size:72px;line-height:1.25;font-family:'Noto Sans TC';-inkscape-font-specification:'Noto Sans TC Medium';white-space:pre;fill:#f9f9f9"
             d="m 190.40142,75.681406 h 7.416 v 56.880004 q 0,3.456 -0.936,5.112 -0.864,1.656 -3.096,2.52 -2.16,0.792 -5.76,1.008 -3.6,0.288 -8.712,0.288 -0.216,-1.008 -0.72,-2.304 -0.432,-1.224 -1.008,-2.52 -0.504,-1.296 -1.08,-2.304 2.592,0.144 4.968,0.216 2.448,0 4.248,0 1.872,-0.072 2.664,-0.072 1.08,-0.072 1.512,-0.432 0.504,-0.432 0.504,-1.512 z m 17.352,18.576 6.624,-2.448 q 3.096,5.04 5.904,10.872004 2.88,5.76 5.04,11.304 2.232,5.544 3.096,9.936 l -7.416,2.952 q -0.792,-4.32 -2.808,-9.936 -1.944,-5.616 -4.68,-11.52 -2.736,-5.976004 -5.76,-11.160004 z m -36.216,-1.872 7.704,1.296 q -1.152,5.328 -2.952,11.232004 -1.8,5.904 -4.248,11.304 -2.448,5.328 -5.616,9.36 -0.792,-0.576 -2.016,-1.224 -1.152,-0.72 -2.376,-1.296 -1.224,-0.648 -2.16,-1.08 3.096,-3.744 5.4,-8.784 2.304,-5.112 3.888,-10.584 1.584,-5.472004 2.376,-10.224004 z m 62.496,-11.088 h 63.648 v 6.408 h -63.648 z m 15.264,29.808004 h 33.264 v 5.4 h -33.264 z m -1.512,11.592 h 36.216 v 5.616 h -36.216 z m 14.616,-8.928 h 6.48 v 26.064 h -6.48 z m -24.984,-19.440004 h 52.128 v 6.336004 h -45.288 v 40.68 h -6.84 z m 50.04,0 h 6.912 v 39.744004 q 0,2.736 -0.72,4.176 -0.72,1.44 -2.736,2.16 -1.944,0.72 -5.112,0.864 -3.096,0.144 -7.488,0.144 -0.216,-1.296 -0.936,-3.024 -0.648,-1.656 -1.368,-2.88 2.088,0.072 4.032,0.072 2.016,0.072 3.6,0 1.584,0 2.16,0 1.008,0 1.296,-0.288 0.36,-0.36 0.36,-1.224 z m -34.848,8.496004 5.4,-1.656 q 1.368,1.872 2.592,4.176 1.224,2.304 1.8,4.032 l -5.76,2.016 q -0.432,-1.8 -1.656,-4.176 -1.152,-2.448 -2.376,-4.392 z m 21.24,-1.656 5.76,1.728 q -1.368,2.664 -2.88,5.328 -1.512,2.664 -2.88,4.536 l -4.896,-1.512 q 0.864,-1.368 1.728,-3.168 0.936,-1.8 1.728,-3.6 0.864,-1.8 1.44,-3.312 z m -11.664,-26.280004 h 7.488 v 23.832 h -7.488 z m 49.176,13.752 h 19.152 v 4.968 h -19.152 z m 33.192,0 h 19.44 v 4.968 h -19.44 z m 16.632,-10.8 h 6.84 v 54.936004 q 0,3.168 -0.792,4.824 -0.792,1.728 -2.88,2.592 -2.088,0.864 -5.544,1.008 -3.456,0.216 -8.496,0.216 -0.144,-0.936 -0.576,-2.232 -0.36,-1.224 -0.864,-2.592 -0.504,-1.296 -1.008,-2.16 2.376,0.072 4.68,0.144 2.376,0 4.176,0 1.8,0 2.52,0 1.08,-0.072 1.512,-0.432 0.432,-0.432 0.432,-1.44 z m -49.248,0 h 22.752 v 27.072004 h -22.752 v -5.544004 h 16.344 v -15.912 h -16.344 z m 52.848,0 v 5.616 h -17.64 v 15.984 h 17.64 v 5.616004 h -24.12 V 77.841406 Z m -56.664,0 h 6.696 v 63.648004 h -6.696 z"
             id="text4"
             transform="matrix(0.26166763,0,0,0.26166763,8.6238305,-4.0633201)"
             aria-label="小南門" />
          <path
             style="font-size:7.32669px;line-height:1.25;font-family:'AR UDJingXiHeiE1G30 EB';-inkscape-font-specification:'AR UDJingXiHeiE1G30 EB';fill:#f9f9f9;stroke-width:0.261667"
             d="m 54.268447,35.589222 h 1.077023 l -1.824345,2.557015 1.926919,2.740182 h -1.08435 l -1.384744,-2.044147 -1.384745,2.044147 h -1.055043 l 1.912266,-2.747509 -1.831673,-2.549688 h 1.091677 l 1.274844,1.904939 z m 2.718203,0 v 5.297197 h -0.93049 v -5.297197 z m 4.037001,3.157803 -0.835243,-2.263947 -0.849896,2.263947 z m -1.956226,0.725343 -0.527522,1.414051 H 57.59476 l 2.132067,-5.297197 h 0.95247 l 2.117413,5.297197 h -0.967123 l -0.534849,-1.414051 z m 9.429443,-1.208904 q 0,1.274844 -0.710689,2.000186 -0.703362,0.718016 -1.926919,0.718016 -1.245537,0 -1.9489,-0.725343 -0.703362,-0.725342 -0.703362,-1.992859 0,-1.289498 0.710689,-2.022167 0.710689,-0.739996 1.941573,-0.739996 1.245537,0 1.941573,0.732669 0.696035,0.732669 0.696035,2.029494 z m -2.637608,1.992859 q 0.798609,0 1.230884,-0.527521 0.439601,-0.527522 0.439601,-1.465338 0,-0.93049 -0.439601,-1.479992 -0.439602,-0.556828 -1.230884,-0.556828 -0.805936,0 -1.252864,0.564155 -0.439602,0.556828 -0.439602,1.472665 0,0.937816 0.446929,1.465338 0.446928,0.527521 1.245537,0.527521 z m 4.579182,-3.194437 v 3.824533 h -0.930489 v -5.297197 h 0.959796 l 2.600975,3.912452 v -3.912452 h 0.93049 v 5.297197 h -1.01841 z m 7.597774,1.685139 -0.835243,-2.263947 -0.849896,2.263947 z m -1.956227,0.725343 -0.527521,1.414051 h -0.945143 l 2.132066,-5.297197 h 0.95247 l 2.117414,5.297197 h -0.967123 l -0.534849,-1.414051 z m 5.267883,-2.410482 v 3.824533 h -0.93049 v -5.297197 h 0.959797 l 2.600975,3.912452 v -3.912452 h 0.930489 v 5.297197 h -1.01841 z m 5.67818,0.0073 v 3.817206 h -0.901183 v -5.297197 h 1.179598 l 1.523951,4.110273 1.465338,-4.110273 h 1.208904 v 5.297197 h -0.90851 v -3.846513 l -1.377417,3.846513 h -0.783956 z m 9.612614,3.817206 h -3.91978 v -5.297197 h 3.8978 v 0.725342 h -2.96731 v 1.494645 h 2.769489 v 0.725342 h -2.769489 v 1.626525 h 2.98929 z m 1.912272,-3.824533 v 3.824533 h -0.93049 v -5.297197 h 0.959797 l 2.600975,3.912452 v -3.912452 h 0.93049 v 5.297197 h -1.01841 z"
             id="text5"
             aria-label="XIAONANMEN" />
          <path
             d="m 53.721343,43.512624 h 0.754649 v 5.788085 q 0,0.351681 -0.09525,0.520195 -0.08792,0.168514 -0.315047,0.256434 -0.219801,0.08059 -0.586135,0.102574 -0.366335,0.02931 -0.88653,0.02931 -0.02198,-0.102574 -0.07327,-0.234454 -0.04396,-0.124554 -0.102573,-0.256435 -0.05129,-0.13188 -0.109901,-0.234454 0.263761,0.01465 0.505542,0.02198 0.249107,0 0.432275,0 0.190493,-0.0073 0.271087,-0.0073 0.1099,-0.0073 0.153861,-0.04396 0.05129,-0.04396 0.05129,-0.153861 z m 1.765733,1.890286 0.674055,-0.249108 q 0.315048,0.512869 0.600789,1.106331 0.293067,0.586135 0.512868,1.15029 0.227128,0.564155 0.315048,1.011083 l -0.754649,0.300395 q -0.08059,-0.439602 -0.285741,-1.011084 -0.197821,-0.571482 -0.476235,-1.17227 -0.278414,-0.608115 -0.586135,-1.135637 z m -3.685325,-0.190494 0.783955,0.13188 q -0.117227,0.542175 -0.300394,1.142964 -0.183167,0.600789 -0.432275,1.15029 -0.249107,0.542175 -0.571481,0.95247 -0.08059,-0.05861 -0.205148,-0.124554 -0.117227,-0.07327 -0.241781,-0.13188 -0.124553,-0.06594 -0.2198,-0.1099 0.315047,-0.380988 0.549502,-0.893857 0.234454,-0.520195 0.395641,-1.077023 0.161187,-0.556828 0.241781,-1.04039 z m 6.359567,-1.12831 h 6.476794 v 0.652075 h -6.476794 z m 1.553258,3.033249 h 3.384931 v 0.549502 h -3.384931 z m -0.153861,1.179598 h 3.685326 v 0.571481 h -3.685326 z m 1.487319,-0.90851 h 0.659402 v 2.652262 h -0.659402 z m -2.542362,-1.978206 h 5.304524 v 0.644748 h -4.608488 v 4.13958 h -0.696036 z m 5.09205,0 h 0.703362 v 4.044333 q 0,0.278414 -0.07327,0.424948 -0.07327,0.146533 -0.278414,0.2198 -0.197821,0.07327 -0.520195,0.08792 -0.315048,0.01465 -0.761976,0.01465 -0.02198,-0.13188 -0.09525,-0.307721 -0.06594,-0.168514 -0.139207,-0.293068 0.212474,0.0073 0.410295,0.0073 0.205147,0.0073 0.366334,0 0.161187,0 0.219801,0 0.102574,0 0.13188,-0.02931 0.03663,-0.03663 0.03663,-0.124553 z m -3.546118,0.864549 0.549501,-0.168514 q 0.139208,0.190494 0.263761,0.424948 0.124554,0.234454 0.183168,0.410295 l -0.586136,0.205147 q -0.04396,-0.183167 -0.168514,-0.424948 -0.117227,-0.249107 -0.24178,-0.446928 z m 2.161373,-0.168514 0.586136,0.175841 q -0.139208,0.271087 -0.293068,0.542175 -0.153861,0.271087 -0.293068,0.461581 l -0.498215,-0.15386 q 0.08792,-0.139207 0.175841,-0.322375 0.09525,-0.183167 0.175841,-0.366334 0.08792,-0.183167 0.146533,-0.337028 z M 61.026054,43.43203 h 0.761975 v 2.425135 h -0.761975 z m 5.004129,1.399398 h 1.9489 v 0.505542 h -1.9489 z m 3.377604,0 h 1.978206 v 0.505542 h -1.978206 z m 1.692466,-1.099003 h 0.696035 v 5.590264 q 0,0.322375 -0.08059,0.490888 -0.08059,0.175841 -0.293068,0.263761 -0.212474,0.08792 -0.564155,0.102574 -0.351681,0.02198 -0.86455,0.02198 -0.01465,-0.09525 -0.05861,-0.227127 -0.03663,-0.124554 -0.08792,-0.263761 -0.05129,-0.131881 -0.102574,-0.219801 0.241781,0.0073 0.476235,0.01465 0.24178,0 0.424948,0 0.183167,0 0.256434,0 0.1099,-0.0073 0.15386,-0.04396 0.04396,-0.04396 0.04396,-0.146534 z m -5.011457,0 h 2.315235 v 2.754835 h -2.315235 v -0.564155 h 1.663159 v -1.619199 h -1.663159 z m 5.377791,0 v 0.571481 h -1.795039 v 1.626526 h 1.795039 v 0.571481 h -2.454441 v -2.769488 z m -5.766105,0 h 0.681382 v 6.476794 h -0.681382 z"
             id="text5-9"
             style="font-weight:500;font-size:7.32669px;line-height:1.25;font-family:'Noto Sans JP';-inkscape-font-specification:'Noto Sans JP Medium';fill:#f9f9f9;stroke-width:0.261667"
             aria-label="小南門" />
          <path
             style="font-weight:500;font-size:7.32669px;line-height:1.25;font-family:'Noto Sans KR';-inkscape-font-specification:'Noto Sans KR Medium';fill:#f9f9f9;stroke-width:0.261667"
             d="m 87.697824,45.218698 h 1.208904 v 0.637422 h -1.208904 z m 0,1.97088 h 1.208904 V 47.827 H 87.697824 Z M 84.29824,44.141675 h 0.622768 v 1.099003 q 0,0.578809 -0.124553,1.142964 -0.124554,0.556828 -0.366335,1.047717 -0.234454,0.483561 -0.571482,0.864549 -0.337027,0.380988 -0.761976,0.608115 l -0.498214,-0.615442 q 0.388314,-0.190493 0.703362,-0.512868 0.315047,-0.329701 0.534848,-0.739996 0.227128,-0.417621 0.344355,-0.871876 0.117227,-0.461581 0.117227,-0.923163 z m 0.139207,0 h 0.622768 v 1.099003 q 0,0.454255 0.109901,0.901183 0.1099,0.439602 0.322374,0.827916 0.219801,0.388315 0.520195,0.696036 0.300394,0.300394 0.674056,0.476235 L 86.225159,48.75749 Q 85.800211,48.545016 85.47051,48.186008 85.140809,47.819673 84.906355,47.358092 84.679228,46.89651 84.554674,46.354335 84.437447,45.81216 84.437447,45.240678 Z m 2.696222,-0.549502 h 0.769302 v 6.696595 h -0.769302 z m 4.96017,3.773246 h 0.769302 v 1.604545 h -0.769302 z m 0.388314,-3.377605 q 0.710689,0 1.260191,0.219801 0.556829,0.219801 0.879203,0.622769 0.322374,0.402968 0.322374,0.945143 0,0.549502 -0.322374,0.952469 -0.322374,0.402968 -0.879203,0.630096 -0.549502,0.219801 -1.260191,0.219801 -0.710689,0 -1.267517,-0.219801 -0.556828,-0.227128 -0.879203,-0.630096 -0.322374,-0.402967 -0.322374,-0.952469 0,-0.542175 0.322374,-0.945143 0.322375,-0.402968 0.879203,-0.622769 0.556828,-0.219801 1.267517,-0.219801 z m 0,0.608116 q -0.505541,0 -0.893856,0.146533 -0.380988,0.139208 -0.600788,0.402968 -0.219801,0.263761 -0.219801,0.630096 0,0.366334 0.219801,0.637422 0.2198,0.263761 0.600788,0.410294 0.388315,0.139208 0.893856,0.139208 0.498215,0 0.88653,-0.139208 0.388315,-0.146533 0.608115,-0.410294 0.219801,-0.271088 0.219801,-0.637422 0,-0.366335 -0.219801,-0.630096 -0.2198,-0.26376 -0.608115,-0.402968 -0.388315,-0.146533 -0.88653,-0.146533 z m -3.025923,4.234827 h 6.0665 v 0.630095 h -6.0665 z m 7.04095,-4.777002 h 0.761976 v 2.813449 H 96.49718 Z m 0,2.571668 h 0.542175 q 0.703363,0 1.450685,-0.05861 0.754649,-0.05861 1.56791,-0.2198 l 0.0879,0.622768 q -0.827914,0.168514 -1.604543,0.234454 -0.769302,0.05861 -1.501972,0.05861 H 96.49718 Z m 4.16156,-3.03325 h 0.76198 v 4.828289 h -0.76198 z m 0.53485,1.934246 h 1.17227 v 0.652076 h -1.17227 z m -3.993047,4.000373 h 4.447297 v 0.622769 h -4.447297 z m 0,-1.567912 h 0.769302 v 1.890286 h -0.769302 z m 6.029867,-3.809878 h 3.09919 v 3.172456 h -3.09919 z m 2.35187,0.608115 h -1.59722 v 1.948899 h 1.59722 z m 2.13206,-1.164944 h 0.76931 v 4.879576 h -0.76931 z m -1.59721,1.817019 h 1.80236 v 0.615442 h -1.80236 z m -1.97088,4.1176 h 4.51324 v 0.622769 h -4.51324 z m 0,-1.509298 h 0.7693 v 1.809692 h -0.7693 z"
             id="text5-9-8"
             aria-label="샤오난먼" />
        </g>
      </g>
    </g>
    <text
       xml:space="preserve"
       transform="matrix(0.31615295,0,0,0.31615295,0.2809891,-6.4462013)"
       id="text6"
       style="font-size:55px;line-height:1.25;font-family:'Microsoft JhengHei';-inkscape-font-specification:'Microsoft JhengHei';white-space:pre;shape-inside:url(#rect6);display:inline" />
  </g>
</svg>
