<?xml version="1.0" encoding="UTF-8" standalone="no"?>
<!-- Created with Inkscape (http://www.inkscape.org/) -->

<svg
   width="500"
   height="250"
   viewBox="0 0 132.29166 66.145833"
   version="1.1"
   id="svg1"
   inkscape:version="1.3.2 (091e20e, 2023-11-25, custom)"
   sodipodi:docname="g12.svg"
   xmlns:inkscape="http://www.inkscape.org/namespaces/inkscape"
   xmlns:sodipodi="http://sodipodi.sourceforge.net/DTD/sodipodi-0.dtd"
   xmlns="http://www.w3.org/2000/svg"
   xmlns:svg="http://www.w3.org/2000/svg">
  <sodipodi:namedview
     id="namedview1"
     pagecolor="#9e652e"
     bordercolor="#ffffff"
     borderopacity="1"
     inkscape:showpageshadow="0"
     inkscape:pageopacity="0"
     inkscape:pagecheckerboard="false"
     inkscape:deskcolor="#d1d1d1"
     inkscape:document-units="mm"
     inkscape:zoom="2.0208096"
     inkscape:cx="176.66187"
     inkscape:cy="144.49654"
     inkscape:window-width="1920"
     inkscape:window-height="1009"
     inkscape:window-x="1912"
     inkscape:window-y="-8"
     inkscape:window-maximized="1"
     inkscape:current-layer="layer1" />
  <defs
     id="defs1">
    <rect
       x="157.85752"
       y="62.351248"
       width="329.07603"
       height="135.09437"
       id="rect4" />
  </defs>
  <g
     inkscape:label="Layer 1"
     inkscape:groupmode="layer"
     id="layer1">
    <path
       id="rect5"
       style="fill:#007846;stroke-width:0.953294"
       d="M -2.5431316e-6,-1.2715658e-6 H 132.29167 V 66.145835 H -2.5431316e-6 Z" />
    <g
       id="g4"
       transform="translate(24.876581,-3.2905301)">
      <path
         id="rect6"
         style="fill:#007846;stroke:#ffffff;stroke-width:0.575409"
         d="m 9.3009131,19.849001 h 5.7010479 c 1.810115,0 3.267355,1.45724 3.267355,3.267355 v 9.524719 c 0,1.810115 -1.45724,3.267355 -3.267355,3.267355 H 9.3009131 c -1.8101145,0 -3.2673547,-1.45724 -3.2673547,-3.267355 v -9.524719 c 0,-1.810115 1.4572402,-3.267355 3.2673547,-3.267355 z" />
      <path
         style="font-weight:bold;font-size:5.82083px;line-height:1.25;font-family:'Optima Bold';-inkscape-font-specification:'Optima Bold,  Bold';fill:#f9f9f9;stroke-width:0.264583"
         d="m 10.045619,24.9757 q 0.02328,-0.459846 0.133879,-0.803275 0.116417,-0.343429 0.320146,-0.56462 0.203729,-0.221192 0.42492,-0.372533 0.227013,-0.151342 0.471488,-0.232833 0.128058,-0.04657 0.250295,-0.07567 0.128059,-0.0291 0.250296,-0.04657 0.122237,-0.01746 0.232833,-0.0291 0.116417,-0.01164 0.20955,-0.01746 l 0.232833,-0.0058 q 0.186267,0.0058 0.372533,0.0291 0.192088,0.01746 0.384175,0.05821 0.186267,0.04075 0.372533,0.116417 0.192088,0.06985 0.384175,0.168804 l -0.186267,0.49477 h -0.232833 q -0.0291,-0.01164 -0.06403,-0.03493 -0.03492,-0.0291 -0.06985,-0.06403 -0.03493,-0.03493 -0.07567,-0.06985 -0.03493,-0.03492 -0.08149,-0.06985 -0.08149,-0.06403 -0.186267,-0.122237 -0.104775,-0.05821 -0.227012,-0.110596 -0.09895,-0.04657 -0.227013,-0.06985 -0.122237,-0.0291 -0.267758,-0.03493 -0.0291,0 -0.06403,0.0058 -0.0291,0 -0.06403,0.0058 -0.05821,0.0058 -0.122237,0.01746 -0.05821,0.01164 -0.122238,0.02911 -0.215371,0.05821 -0.4191,0.186266 -0.197908,0.122237 -0.384174,0.314325 -0.180446,0.192087 -0.285221,0.471487 -0.104775,0.2794 -0.133879,0.657754 v 0.01746 0.02328 0.02328 0.02328 q -0.0058,0.430742 0.110596,0.779992 0.116416,0.349249 0.349249,0.617007 0.221192,0.250296 0.500592,0.384175 0.28522,0.128059 0.63447,0.145521 0.116417,-0.0058 0.221192,-0.01746 0.110596,-0.01746 0.215371,-0.04075 0.133879,-0.0291 0.227012,-0.06985 0.09895,-0.04657 0.168804,-0.09895 v -1.525058 h 0.232833 q 0.01164,0.01164 0.02328,0.01746 0.01164,0 0.0291,0.0058 0.01164,0.0058 0.02328,0.01164 0.01164,0 0.02328,0 0.0058,0 0.0058,0 0.0058,0 0.01164,0 0.0058,0.0058 0.0058,0.0058 0.0058,0 0.01164,0 0,0 0,0 0,0 0.0058,0 0,0 0,0 0,0 0,0 0.0291,-0.0058 0.06403,-0.01164 0.03492,-0.01164 0.06985,-0.01746 l 0.232833,-0.0058 v 1.693862 l -0.01746,0.01746 -0.01746,0.0058 q -0.0291,0.01746 -0.06985,0.0291 -0.03492,0.01164 -0.07567,0.02328 -0.04075,0.01746 -0.08731,0.0291 -0.04657,0.01164 -0.09895,0.02328 -0.104775,0.02328 -0.20955,0.04075 -0.104775,0.01746 -0.221191,0.0291 -0.104775,0.01746 -0.203729,0.0291 -0.09313,0.01746 -0.192088,0.02328 -0.09313,0.01164 -0.174625,0.01746 -0.08149,0.0058 -0.14552,0.0058 h -0.232834 q -0.01164,0 -0.0291,0 -0.01164,0 -0.02328,0 -0.01164,0 -0.0291,0 -0.01164,0 -0.02328,0 -0.49477,0 -0.884766,-0.13388 -0.389995,-0.133879 -0.681037,-0.419099 -0.28522,-0.2794 -0.430741,-0.651933 -0.145521,-0.378354 -0.145521,-0.849841 V 24.9757 Z"
         id="text6"
         aria-label="G" />
      <path
         style="font-weight:bold;font-size:5.82083px;line-height:1.25;font-family:'Optima Bold';-inkscape-font-specification:'Optima Bold,  Bold';fill:#f9f9f9;stroke-width:0.264583"
         d="m 9.3516163,29.278575 q 0.1688041,-0.07567 0.3317873,-0.151341 0.1688041,-0.07567 0.3317874,-0.151342 0.162983,-0.06985 0.291041,-0.1397 0.133879,-0.06985 0.238654,-0.1397 l 0.232834,-0.0058 0.1397,0.04075 v 3.987269 h -0.232834 q -0.03492,-0.0058 -0.06403,-0.01746 -0.0291,-0.0058 -0.05821,-0.01164 -0.03492,0.0058 -0.06985,0.01164 -0.03493,0.01164 -0.08149,0.01746 H 10.178174 V 29.278575 L 9.7707161,29.511409 H 9.5378829 q -0.00582,0 -0.017462,-0.0058 -0.00582,-0.01164 -0.017463,-0.0291 -0.00582,-0.01164 -0.011642,-0.01746 -0.00582,-0.01164 -0.00582,-0.01746 -0.00582,-0.01164 -0.011642,-0.01746 -0.00582,-0.01164 -0.011642,-0.01746 -0.00582,-0.01164 -0.011642,-0.01746 -0.00582,-0.0058 -0.011642,-0.01746 -0.011642,-0.0058 -0.017462,-0.01164 -0.00582,-0.01164 -0.011642,-0.01746 -0.011642,-0.01746 -0.029104,-0.0291 -0.011642,-0.01746 -0.029104,-0.02328 v -0.01164 z m 3.3993697,0.04657 q 0.09895,-0.162983 0.20955,-0.2794 0.116417,-0.116416 0.244475,-0.174625 0.128058,-0.06403 0.273579,-0.09313 0.151342,-0.03493 0.325966,-0.03493 l 0.232834,-0.0058 q 0.01164,0.0058 0.01746,0.0058 0.0058,0 0.01746,0 0.0058,0.0058 0.01164,0.0058 0.01164,0 0.01746,0 0.01746,0 0.03492,0 0.01746,0 0.03493,0 0.186266,0.01746 0.360891,0.09313 0.174625,0.06985 0.331788,0.203729 0.157162,0.128058 0.238654,0.331787 0.08149,0.197909 0.08149,0.465667 0,0.122237 -0.02328,0.250296 -0.02328,0.128058 -0.06985,0.261937 -0.04657,0.133879 -0.1397,0.273579 -0.09313,0.133879 -0.227012,0.267758 l -1.32715,1.356253 1.594908,-0.04075 h 0.232833 q -0.0058,0.03493 -0.01164,0.06403 -0.0058,0.02328 -0.01164,0.05239 -0.0058,0.02328 -0.0058,0.05239 0,0.02328 0,0.05239 0,0.0291 0,0.06403 0,0.0291 0.0058,0.05821 0,0.0291 0.0058,0.06403 0.01164,0.0291 0.01746,0.05239 h -0.232833 -2.52042 v -0.09313 q 0.04657,-0.03493 0.09313,-0.07567 0.04657,-0.04657 0.09313,-0.08731 0.04657,-0.04657 0.09313,-0.09313 0.05239,-0.04657 0.09895,-0.09895 0.01746,-0.01746 0.03492,-0.03493 0.01746,-0.01746 0.04075,-0.03492 0.01746,-0.01746 0.03492,-0.03493 0.01746,-0.02328 0.03493,-0.04075 0.01746,-0.01746 0.03492,-0.03492 0.01746,-0.01746 0.04075,-0.04075 0.01746,-0.01746 0.03492,-0.03493 0.01746,-0.02328 0.03492,-0.04075 0.180446,-0.186267 0.337608,-0.360892 0.162983,-0.180445 0.308504,-0.349249 0.145521,-0.168804 0.238654,-0.291042 0.09895,-0.128058 0.145521,-0.215371 0.04075,-0.06403 0.07567,-0.139699 0.03492,-0.07567 0.05821,-0.151342 0.0291,-0.08149 0.04657,-0.162983 0.01746,-0.08149 0.03493,-0.168804 0,-0.0291 0,-0.05821 0.0058,-0.03492 0.01164,-0.06403 0,-0.01746 0,-0.0291 0,-0.01746 0.0058,-0.03493 0,-0.01164 0,-0.0291 0,-0.01746 0,-0.03492 0,-0.162983 -0.04075,-0.302683 -0.04075,-0.145521 -0.122237,-0.267758 -0.06985,-0.104775 -0.174625,-0.168804 -0.104775,-0.06403 -0.256117,-0.07567 -0.07567,0.0058 -0.14552,0.04075 -0.06985,0.0291 -0.13388,0.07567 -0.07567,0.05821 -0.133879,0.128059 -0.05239,0.06985 -0.08731,0.14552 -0.0058,0.02328 -0.01746,0.04657 -0.0058,0.01746 -0.01746,0.03493 -0.0058,0.02328 -0.01164,0.04075 -0.0058,0.01746 -0.0058,0.03493 l -0.09313,0.0291 h -0.232833 l -0.180446,-0.273579 v 0 z"
         id="text6-8"
         aria-label="12" />
    </g>
    <g
       id="g3"
       transform="matrix(1.185323,0,0,1.185323,-12.258346,-14.587021)">
      <path
         style="font-weight:bold;font-size:14.8167px;line-height:1.25;font-family:'Noto Serif TC';-inkscape-font-specification:'Noto Serif TC Bold';letter-spacing:1.5875px;fill:#ffffff;stroke-width:0.264583"
         d="m 58.536403,30.509612 h -1.466854 v -2.607739 h 1.466854 z m 3.526374,0.429685 v 3.09669 c -0.103717,0.02963 -0.207434,0.04445 -0.281517,0.04445 -0.0889,0.01482 -0.251884,0.02963 -0.340784,0.02963 h -0.488951 -0.503768 c -0.251884,0 -0.296334,-0.05927 -0.296334,-0.281517 v -2.889256 z m -8.445519,7.126832 v -7.126832 h 1.807638 c -0.01482,1.940987 -0.222251,3.941242 -1.792821,5.496995 l 0.118534,0.148167 c 2.933706,-1.422403 3.289307,-3.689358 3.31894,-5.645162 h 1.466854 v 3.348574 c 0,1.022352 0.192617,1.377953 1.363136,1.377953 h 0.844552 c 0.563035,0 0.992719,-0.02963 1.318686,-0.103717 v 2.504022 z m 8.326986,-10.59394 H 50.876169 l 0.13335,0.429684 h 4.415377 v 2.607739 H 53.780242 L 51.913338,29.798411 V 39.8145 h 0.31115 c 0.859369,0 1.39277,-0.340784 1.39277,-0.444501 v -0.874185 h 8.445519 v 1.259419 h 0.296334 c 0.903819,0 1.466854,-0.370417 1.466854,-0.459318 v -8.208451 c 0.3556,-0.05927 0.518584,-0.177801 0.622301,-0.311151 l -1.600204,-1.25942 -0.859368,0.992719 h -1.837271 v -2.474389 -0.13335 h 4.296843 c 0.22225,0 0.385234,-0.07408 0.429684,-0.237067 -0.711201,-0.607485 -1.911354,-1.48167 -1.911354,-1.48167 z m 7.82533,4.133859 v -1.778004 h 2.103971 v 1.778004 z m 2.103971,-3.896792 v 1.703921 h -2.103971 v -1.703921 z m -0.148167,-0.429684 h -1.896537 l -1.763188,-0.770469 v 13.498014 h 0.296334 c 0.770469,0 1.407587,-0.429684 1.407587,-0.651935 v -7.334266 h 2.103971 v 0.859368 h 0.266701 c 0.518584,0 1.30387,-0.31115 1.333503,-0.414867 v -4.53391 c 0.266701,-0.04445 0.459318,-0.162984 0.533401,-0.281518 L 72.466213,26.47947 Z m 4.711711,4.326476 v -1.778004 h 2.178055 v 1.778004 z m 2.178055,-3.896792 v 1.703921 h -2.178055 v -1.703921 z m 0.651935,-1.363136 -0.800102,0.933452 h -1.970621 l -1.689104,-0.681568 v 6.23783 h 0.237067 c 0.696385,0 1.39277,-0.370417 1.39277,-0.518584 v -0.296334 h 2.178055 v 5.689613 c 0,0.237067 -0.0889,0.3556 -0.385234,0.3556 -0.414868,0 -2.518839,-0.13335 -2.518839,-0.13335 v 0.207434 c 0.933452,0.148167 1.348319,0.355601 1.689103,0.622301 0.296334,0.251884 0.414868,0.666752 0.474135,1.229786 2.192871,-0.207433 2.489205,-0.889002 2.489205,-2.074338 v -9.927189 c 0.296334,-0.05927 0.503768,-0.192617 0.592668,-0.31115 z"
         id="text7"
         aria-label="西門" />
      <path
         style="font-weight:bold;font-size:5.82083px;line-height:1.25;font-family:'Optima Bold';-inkscape-font-specification:'Optima Bold,  Bold';fill:#f9f9f9;stroke-width:0.264583"
         d="m 58.39249,44.693043 -1.239836,-1.973261 h 0.232833 q 0.03493,0.01746 0.06985,0.0291 0.04075,0.0058 0.08149,0.01164 0.0058,0 0.01164,0 0.0058,0 0.01164,0 0.0058,0 0.01164,0.0058 0.0058,0 0.01164,0 0.0058,0 0.01164,0 0.0058,0 0.01746,-0.0058 0.0058,0 0.01164,0 0.0058,0 0.01164,0 0.04657,-0.0058 0.08149,-0.01164 0.04075,-0.01164 0.07567,-0.01746 l 0.232833,-0.0058 0.803275,1.321328 0.84402,-1.327149 h 0.232833 q 0.02328,0.01164 0.04075,0.02328 0.01746,0.0058 0.03493,0.01164 0.0291,-0.0058 0.05239,-0.01164 0.0291,-0.0058 0.05239,-0.01164 l 0.232833,-0.0058 -1.239837,1.781174 1.379537,2.200273 h -0.232833 q -0.04075,0 -0.08731,0 -0.04075,-0.0058 -0.08731,-0.01164 -0.0058,0 -0.01164,0 -0.0058,0 -0.01164,-0.0058 -0.01164,0 -0.01746,0 -0.0058,0 -0.01164,0 -0.0058,0 -0.01164,0 -0.0058,0 -0.01164,0 -0.01164,0.0058 -0.01746,0.0058 -0.0058,0 -0.01164,0 -0.04075,0.0058 -0.08731,0.01164 -0.04075,0 -0.08731,0 h -0.232833 l -0.896408,-1.583265 -0.890587,1.583265 h -0.232833 -0.0291 l -0.02328,-0.01164 q -0.0058,0.0058 -0.01164,0.0058 -0.0058,0 -0.01746,-0.0058 -0.0058,0 -0.01164,0 -0.0058,0 -0.01746,0 0,0 0,0 0,0 0,0 -0.0058,0 -0.0058,0 0,0 0,0 -0.03493,0.0058 -0.07567,0.01164 -0.03492,0 -0.08149,0 h -0.232833 l 1.379536,-2.014007 v 0 z m 3.026828,-2.019828 q 0.0291,0.01746 0.05239,0.0291 0.02911,0.0058 0.06403,0.01164 0.0058,0 0.0058,0 0.0058,0 0.01164,0 0.0058,0 0.0058,0 0.0058,0 0.01164,0 0.03493,-0.0058 0.06403,-0.01164 0.03493,-0.01164 0.05821,-0.01746 l 0.232833,-0.0058 v 4.028014 h -0.232833 q -0.02328,0 -0.05821,0 -0.0291,-0.0058 -0.05821,-0.01164 -0.0058,0 -0.01164,0 0,0 -0.0058,0 -0.0058,0 -0.01164,0 -0.0058,0 -0.01164,0 -0.03493,0.0058 -0.06403,0.01164 -0.02328,0 -0.05239,0 h -0.232833 v -4.033835 h 0.232833 v 0 z m 1.286404,4.033835 0.552978,-4.033835 h 0.232834 0.180445 l 1.490133,2.852207 1.530878,-2.852207 h 0.232833 0.186267 l 0.459845,4.033835 h -0.232833 q -0.03493,0 -0.06985,0 -0.03493,-0.0058 -0.06403,-0.01164 -0.01164,0 -0.0291,0 -0.01164,0 -0.02328,-0.0058 0,0 -0.0058,0.0058 0,0 -0.0058,0 -0.0058,0 -0.01164,0 0,0 0,0 -0.03493,0.0058 -0.07567,0.01164 -0.03492,0 -0.08149,0 h -0.232833 l -0.238654,-2.642656 -1.315508,2.549523 h -0.232833 -0.09313 l -1.268941,-2.497136 -0.238654,2.590269 h -0.232833 q -0.01746,0 -0.04075,0 -0.01746,-0.0058 -0.04075,-0.01164 0,0 0,0 0,0 0,0 -0.0058,0 -0.01164,0 0,0 -0.0058,0 -0.0058,0.0058 -0.01164,0.0058 0,0 0,0 -0.01746,0.0058 -0.03493,0.0058 -0.01746,0 -0.03493,0 h -0.232833 v 0 z m 5.692772,0 v -3.987268 h 0.232834 2.10714 q -0.0058,0.0291 -0.01164,0.05239 -0.0058,0.01746 -0.01164,0.03493 0,0.0058 -0.0058,0.01746 0,0.0058 0,0.01164 -0.0058,0.01164 -0.0058,0.01746 0,0.0058 0,0.01746 v 0.01164 0.02328 q 0,0.02911 0,0.05239 0,0.01746 0.0058,0.04075 0,0.01164 0,0.02328 0.0058,0.01164 0.01164,0.02328 0.0058,0.01746 0.0058,0.0291 0.0058,0.01164 0.01164,0.02328 l -0.232833,-0.0058 q -0.08731,-0.01164 -0.174625,-0.02328 -0.08731,-0.01164 -0.186267,-0.01746 -0.09313,-0.0058 -0.192087,-0.0058 -0.09313,-0.0058 -0.192087,-0.0058 0,0 0,0 0,0 0,0 -0.0058,0 -0.0058,0 0,0 0,0 -0.02328,0.0058 -0.04657,0.0058 -0.01746,0 -0.04075,0 -0.02328,0 -0.04657,0 -0.02328,0 -0.04075,0 -0.02328,0 -0.05239,0 -0.02328,0 -0.05239,0 -0.02328,0.0058 -0.05239,0.0058 -0.02328,0 -0.04657,0 -0.05239,0 -0.104775,0 -0.04657,0 -0.09313,0 v 1.408641 h 0.640291 l 0.547158,-0.04657 h 0.232833 q -0.0058,0.02911 -0.01746,0.05239 -0.0058,0.01746 -0.01164,0.03493 -0.0058,0.02328 -0.0058,0.04657 0,0.01746 0,0.04075 0,0.01164 0,0.02328 0,0.01164 0,0.02328 0,0.01746 0,0.0291 0.0058,0.01164 0.0058,0.02328 0.0058,0.02328 0.01164,0.05239 0.01164,0.02328 0.01746,0.05239 l -0.232833,-0.0058 -0.686858,-0.05239 h -0.500591 v 1.653116 q 0.04074,0.01164 0.08731,0.01746 0.04657,0.0058 0.09895,0.0058 0.04657,0.0058 0.09313,0.0058 0.04657,0 0.09895,0 0.0291,0 0.05239,0 0.02328,0 0.04657,-0.0058 0.02328,0 0.04657,0 0.0291,0 0.05239,0 0.116416,-0.0058 0.227012,-0.01164 0.110596,-0.0058 0.221192,-0.01164 0.104775,-0.01164 0.192087,-0.01746 0.08731,-0.01164 0.157162,-0.01746 l 0.232834,-0.0058 q -0.0058,0.0291 -0.01746,0.05821 -0.0058,0.02328 -0.01164,0.05239 -0.0058,0.02328 -0.0058,0.04657 0,0.02328 0,0.04657 0,0.02328 0,0.04657 0,0.02328 0.0058,0.04657 0.0058,0.02328 0.01164,0.04075 0.01164,0.01746 0.01746,0.02328 h -0.232834 -2.153707 v 0 z m 3.207282,0 v -4.033835 h 0.232833 0.2794 l 2.561165,2.817282 v -2.817282 h 0.232833 q 0.01164,0.01746 0.0291,0.02328 0.01746,0.0058 0.03492,0.01164 0.02328,-0.0058 0.04075,-0.01164 0.01746,-0.0058 0.0291,-0.01164 l 0.232833,-0.0058 v 4.028014 h -0.232833 -0.227012 l -2.613553,-2.904594 v 2.904594 h -0.232833 q -0.0058,0 -0.01164,0 -0.0058,0 -0.01164,0 -0.01164,0 -0.01746,0 -0.0058,-0.0058 -0.01164,-0.0058 -0.01164,0 -0.02328,0 -0.0058,0 -0.01746,0.0058 -0.01164,0 -0.02328,0 -0.0058,0 -0.01746,0 h -0.232833 v 0 z"
         id="text8"
         aria-label="XIMEN" />
      <g
         id="g2"
         transform="translate(-15.036996,13.758336)">
        <path
           style="font-weight:500;font-size:5.82083px;line-height:1.25;font-family:'Noto Sans JP';-inkscape-font-specification:'Noto Sans JP Medium';fill:#ffffff;stroke-width:0.264583"
           d="m 68.388327,39.695148 h 4.045476 v 0.506413 h -4.045476 z m -0.355071,-2.887131 h 4.714872 v 3.731152 h -0.552979 v -3.22474 h -3.626377 v 3.236381 h -0.535516 z m 2.654298,0.221191 h 0.529696 v 1.152525 q 0,0.09895 0.02328,0.128058 0.0291,0.02328 0.128059,0.02328 0.0291,0 0.104775,0 0.08149,0 0.168804,0 0.08731,0 0.116416,0 0.06403,0 0.09313,-0.02328 0.02911,-0.0291 0.04075,-0.110596 0.01746,-0.08149 0.02328,-0.250296 0.05239,0.04075 0.133879,0.08149 0.08149,0.03493 0.168804,0.06403 0.08731,0.0291 0.162983,0.05239 -0.0291,0.261937 -0.09313,0.413279 -0.06403,0.14552 -0.174625,0.203729 -0.110596,0.05821 -0.285221,0.05821 -0.04075,0 -0.116416,0 -0.07567,0 -0.162984,0 -0.08149,0 -0.157162,0 -0.06985,0 -0.104775,0 -0.244475,0 -0.372533,-0.05821 -0.128058,-0.05821 -0.180446,-0.197909 -0.04657,-0.139699 -0.04657,-0.384174 z m -2.898773,-1.507595 h 5.168897 v 0.535517 h -5.168897 z m 1.618191,0.389996 h 0.541337 v 1.187449 h -0.541337 z m 1.286403,0 h 0.552979 v 1.187449 h -0.552979 z m -1.257299,1.018645 h 0.512233 v 0.570442 q 0,0.279399 -0.08149,0.582083 -0.07567,0.296862 -0.296862,0.576262 -0.215371,0.273579 -0.63447,0.488949 -0.03493,-0.05239 -0.110596,-0.122237 -0.06985,-0.06985 -0.145521,-0.133879 -0.07567,-0.06985 -0.133879,-0.104775 0.384175,-0.186267 0.570441,-0.401637 0.192088,-0.221192 0.256117,-0.448204 0.06403,-0.232833 0.06403,-0.448204 z m 4.621739,-0.628649 h 1.548341 v 0.401637 h -1.548341 z m 2.683403,0 h 1.571624 v 0.401637 h -1.571624 z m 1.344611,-0.873125 h 0.552979 v 4.441293 q 0,0.256117 -0.06403,0.389996 -0.06403,0.1397 -0.232833,0.20955 -0.168804,0.06985 -0.448204,0.08149 -0.2794,0.01746 -0.686858,0.01746 -0.01164,-0.07567 -0.04657,-0.180446 -0.0291,-0.09895 -0.06985,-0.20955 -0.04075,-0.104775 -0.08149,-0.174625 0.192087,0.0058 0.378354,0.01164 0.192087,0 0.337608,0 0.145521,0 0.203729,0 0.08731,-0.0058 0.122237,-0.03492 0.03493,-0.03493 0.03493,-0.116416 z m -3.981447,0 h 1.839382 v 2.188632 h -1.839382 v -0.448204 h 1.321328 v -1.286403 h -1.321328 z m 4.272489,0 v 0.454025 h -1.426104 v 1.292224 h 1.426104 v 0.454025 H 76.426893 V 35.42848 Z m -4.580993,0 h 0.541337 v 5.145614 h -0.541337 z"
           id="text9"
           aria-label="西門" />
        <path
           style="font-weight:500;font-size:5.82083px;line-height:1.25;font-family:'Noto Sans KR';-inkscape-font-specification:'Noto Sans KR Medium';fill:#ffffff;stroke-width:0.264583"
           d="m 86.194881,35.690418 h 0.500591 v 0.873124 q 0,0.483129 -0.104775,0.931333 -0.104775,0.448204 -0.308504,0.8382 -0.197908,0.389995 -0.483128,0.686858 -0.2794,0.296862 -0.640292,0.471487 l -0.366712,-0.500592 q 0.320146,-0.14552 0.576262,-0.395816 0.261937,-0.256117 0.442383,-0.582083 0.186267,-0.325966 0.285221,-0.6985 0.09895,-0.372533 0.09895,-0.750887 z m 0.110596,0 h 0.500591 v 0.873124 q 0,0.366713 0.09313,0.721783 0.09895,0.355071 0.2794,0.669396 0.180446,0.314325 0.436562,0.552979 0.256117,0.238654 0.564621,0.384174 l -0.355071,0.48895 q -0.35507,-0.168804 -0.63447,-0.454025 -0.2794,-0.28522 -0.477308,-0.657753 -0.197908,-0.372534 -0.302683,-0.809096 -0.104775,-0.436562 -0.104775,-0.896408 z m 2.299228,-0.442383 h 0.611187 v 5.33188 h -0.611187 z m 1.82192,0.448204 h 2.462211 v 2.520419 h -2.462211 z m 1.868486,0.483129 H 91.02617 v 1.54834 h 1.268941 z m 1.693862,-0.925512 h 0.611187 v 3.876672 h -0.611187 z m -1.268941,1.443565 h 1.431924 v 0.48895 h -1.431924 z m -1.565803,3.271307 h 3.585631 v 0.49477 h -3.585631 z m 0,-1.199091 h 0.611187 v 1.437745 h -0.611187 z"
           id="text9-3"
           aria-label="시먼" />
      </g>
    </g>
  </g>
</svg>
