<?xml version="1.0" encoding="UTF-8" standalone="no"?>
<!-- Created with Inkscape (http://www.inkscape.org/) -->

<svg
   width="500"
   height="250"
   viewBox="0 0 132.29166 66.145833"
   version="1.1"
   id="svg1"
   inkscape:version="1.3.2 (091e20e, 2023-11-25, custom)"
   sodipodi:docname="g12_2.svg"
   xmlns:inkscape="http://www.inkscape.org/namespaces/inkscape"
   xmlns:sodipodi="http://sodipodi.sourceforge.net/DTD/sodipodi-0.dtd"
   xmlns="http://www.w3.org/2000/svg"
   xmlns:svg="http://www.w3.org/2000/svg">
  <sodipodi:namedview
     id="namedview1"
     pagecolor="#9e652e"
     bordercolor="#ffffff"
     borderopacity="1"
     inkscape:showpageshadow="0"
     inkscape:pageopacity="0"
     inkscape:pagecheckerboard="false"
     inkscape:deskcolor="#d1d1d1"
     inkscape:document-units="mm"
     inkscape:zoom="2.0208096"
     inkscape:cx="305.81802"
     inkscape:cy="106.88785"
     inkscape:window-width="1920"
     inkscape:window-height="1009"
     inkscape:window-x="1912"
     inkscape:window-y="-8"
     inkscape:window-maximized="1"
     inkscape:current-layer="layer1" />
  <defs
     id="defs1">
    <rect
       x="560.66638"
       y="34.144731"
       width="279.32397"
       height="128.59143"
       id="rect6" />
    <rect
       x="157.85752"
       y="62.351248"
       width="329.07603"
       height="135.09437"
       id="rect4" />
    <rect
       x="157.85751"
       y="62.35125"
       width="329.07602"
       height="135.09438"
       id="rect4-5" />
  </defs>
  <g
     inkscape:label="Layer 1"
     inkscape:groupmode="layer"
     id="layer1">
    <rect
       style="fill:#007846;fill-opacity:1;stroke:none;stroke-width:0.953294;stroke-dasharray:none"
       id="rect5"
       width="132.29167"
       height="66.145836"
       x="-2.5431316e-06"
       y="-1.2715658e-06"
       ry="0" />
    <text
       xml:space="preserve"
       transform="matrix(0.31615295,0,0,0.31615295,-10.474341,-6.4462013)"
       id="text6"
       style="font-size:55px;line-height:1.25;font-family:'Microsoft JhengHei';-inkscape-font-specification:'Microsoft JhengHei';white-space:pre;shape-inside:url(#rect6);display:inline" />
    <g
       id="g5"
       transform="translate(24.30488)">
      <path
         id="rect1"
         style="fill-opacity:0;stroke:#f9f9f9;stroke-width:0.942789"
         d="m 15.913089,14.352791 h 12.425164 c 3.927062,0 7.088559,3.161497 7.088559,7.088559 v 23.263136 c 0,3.927062 -3.161497,7.088559 -7.088559,7.088559 H 15.913089 c -3.927061,0 -7.0885584,-3.161497 -7.0885584,-7.088559 V 21.44135 c 0,-3.927062 3.1614974,-7.088559 7.0885584,-7.088559 z" />
      <path
         style="font-size:14.3709px;line-height:1.25;font-family:'AR UDJingXiHeiE1G30 EB';-inkscape-font-specification:'AR UDJingXiHeiE1G30 EB';fill:#f9f9f9;stroke-width:0.299395"
         d="m 25.600045,29.912272 q -0.531724,0.747287 -1.336494,1.106559 -0.7904,0.344902 -1.810734,0.344902 -2.24186,0 -3.563983,-1.408348 -1.322123,-1.422719 -1.322123,-3.966369 0,-2.55802 1.393978,-3.966368 1.393977,-1.408348 3.765176,-1.408348 1.911329,0 3.104114,0.876625 1.207156,0.862254 1.451461,2.471794 h -1.825104 q -0.143709,-0.847883 -0.847884,-1.379606 -0.689803,-0.546094 -1.882587,-0.546094 -1.59517,0 -2.428683,1.034705 -0.833512,1.020334 -0.833512,2.917292 0,2.026297 0.876625,2.989148 0.876625,0.948479 2.38557,0.948479 1.322122,0 2.098151,-0.776029 0.776029,-0.776028 0.776029,-1.781991 V 27.153059 H 22.65401 V 25.73034 h 4.699284 v 5.446571 h -1.753249 z"
         id="text2"
         aria-label="G" />
      <path
         style="font-size:14.3917px;line-height:1.25;font-family:'AR UDJingXiHeiE1G30 EB';-inkscape-font-specification:'AR UDJingXiHeiE1G30 EB';fill:#f9f9f9;stroke-width:0.261667"
         d="m 17.218078,36.584172 -1.683829,1.568695 -0.834718,-1.280861 2.705639,-2.460981 h 1.568696 v 10.405199 h -1.755788 z m 5.771062,1.122553 q 0,-1.611871 0.978635,-2.53294 0.978636,-0.93546 2.561723,-0.93546 1.626262,0 2.532939,0.820327 0.921069,0.805935 0.921069,2.245105 0,1.021811 -0.662018,2.058013 -0.647627,1.021811 -2.043622,2.259497 l -1.957271,1.770179 h 4.634127 v 1.424778 H 22.945965 V 43.50658 l 2.907123,-2.61929 q 1.280861,-1.165727 1.784571,-1.986054 0.518101,-0.834719 0.518101,-1.597479 0,-0.719585 -0.417359,-1.165728 -0.41736,-0.446142 -1.208903,-0.446142 -0.791544,0 -1.280861,0.546884 -0.489318,0.546885 -0.489318,1.467954 z"
         id="text3"
         aria-label="12" />
      <path
         style="font-weight:500;font-size:72px;line-height:1.25;font-family:'Noto Sans TC';-inkscape-font-specification:'Noto Sans TC Medium';white-space:pre;fill:#f9f9f9"
         d="m 169.44942,130.61741 h 49.392 v 6.264 h -49.392 z m -3.888,-35.712004 h 57.24 v 46.152004 h -6.84 v -39.888 h -43.776 v 40.032 h -6.624 z m -3.744,-15.912 h 63.936 v 6.624 h -63.936 z m 21.024,4.104 h 6.12 v 15.84 q 0,4.104004 -1.008,8.424004 -0.936,4.248 -3.96,8.136 -2.952,3.816 -8.712,6.624 -0.36,-0.72 -1.152,-1.656 -0.72,-0.936 -1.584,-1.8 -0.792,-0.936 -1.44,-1.44 5.256,-2.376 7.776,-5.4 2.52,-3.096 3.24,-6.408 0.72,-3.312 0.72,-6.624004 z m 15.336,-0.072 h 6.48 v 27.864004 q 0,1.656 0.432,2.088 0.432,0.36 2.16,0.36 0.36,0 1.296,0 1.008,0 2.232,0 1.224,0 2.232,0 1.08,0 1.584,0 0.936,0 1.296,-0.072 0.36,-0.144 0.504,-0.36 1.008,0.72 2.664,1.44 1.656,0.648 3.168,0.936 -0.648,2.52 -2.304,3.528 -1.584,0.936 -4.68,0.936 -0.504,0 -1.8,0 -1.296,0 -2.736,0 -1.44,0 -2.664,0 -1.224,0 -1.728,0 -3.312,0 -5.112,-0.792 -1.728,-0.792 -2.376,-2.664 -0.648,-1.944 -0.648,-5.328 z m 41.184,5.616 h 19.152 v 4.968 h -19.152 z m 33.192,0 h 19.44 v 4.968 h -19.44 z m 16.632,-10.8 h 6.84 v 54.936004 q 0,3.168 -0.792,4.824 -0.792,1.728 -2.88,2.592 -2.088,0.864 -5.544,1.008 -3.456,0.216 -8.496,0.216 -0.144,-0.936 -0.576,-2.232 -0.36,-1.224 -0.864,-2.592 -0.504,-1.296 -1.008,-2.16 2.376,0.072 4.68,0.144 2.376,0 4.176,0 1.8,0 2.52,0 1.08,-0.072 1.512,-0.432 0.432,-0.432 0.432,-1.44 z m -49.248,0 h 22.752 v 27.072004 h -22.752 v -5.544004 h 16.344 v -15.912 h -16.344 z m 52.848,0 v 5.616 h -17.64 v 15.984 h 17.64 v 5.616004 h -24.12 V 77.841406 Z m -56.664,0 h 6.696 v 63.648004 h -6.696 z"
         id="text4"
         transform="matrix(0.26166763,0,0,0.26166763,-2.1314997,-4.0633201)"
         aria-label="西門" />
      <path
         style="font-size:7.32669px;line-height:1.25;font-family:'AR UDJingXiHeiE1G30 EB';-inkscape-font-specification:'AR UDJingXiHeiE1G30 EB';fill:#f9f9f9;stroke-width:0.261667"
         d="m 43.513118,35.589222 h 1.077023 l -1.824346,2.557015 1.92692,2.740182 h -1.08435 l -1.384745,-2.044147 -1.384744,2.044147 h -1.055043 l 1.912266,-2.747509 -1.831673,-2.549688 h 1.091677 l 1.274844,1.904939 z m 2.718203,0 v 5.297197 h -0.93049 v -5.297197 z m 2.117408,1.479991 v 3.817206 h -0.901183 v -5.297197 h 1.179597 l 1.523952,4.110273 1.465338,-4.110273 h 1.208904 v 5.297197 h -0.90851 v -3.846513 l -1.377418,3.846513 h -0.783955 z m 9.612614,3.817206 h -3.919779 v -5.297197 h 3.897799 v 0.725342 h -2.967309 v 1.494645 h 2.769489 v 0.725342 h -2.769489 v 1.626525 h 2.989289 z m 1.912271,-3.824533 v 3.824533 h -0.93049 v -5.297197 h 0.959796 l 2.600975,3.912452 v -3.912452 h 0.93049 v 5.297197 h -1.01841 z"
         id="text5"
         aria-label="XIMEN" />
      <path
         d="m 40.811964,49.102888 h 5.092049 v 0.637423 H 40.811964 Z M 40.365035,45.46885 h 5.934619 v 4.696409 h -0.696035 v -4.058987 h -4.564528 v 4.07364 h -0.674056 z m 3.340971,0.278414 h 0.666729 v 1.450685 q 0,0.124554 0.02931,0.161187 0.03663,0.02931 0.161187,0.02931 0.03663,0 0.13188,0 0.102574,0 0.212474,0 0.109901,0 0.146534,0 0.08059,0 0.117227,-0.02931 0.03663,-0.03663 0.05129,-0.139207 0.02198,-0.102574 0.02931,-0.315048 0.06594,0.05129 0.168514,0.102574 0.102573,0.04396 0.212474,0.08059 0.1099,0.03663 0.205147,0.06594 -0.03663,0.329701 -0.117227,0.520195 -0.08059,0.183167 -0.219801,0.256434 -0.139207,0.07327 -0.359008,0.07327 -0.05129,0 -0.146533,0 -0.09525,0 -0.205148,0 -0.102573,0 -0.19782,0 -0.08792,0 -0.131881,0 -0.307721,0 -0.468908,-0.07327 -0.161187,-0.07327 -0.227127,-0.249107 -0.05861,-0.175841 -0.05861,-0.483562 z m -3.648692,-1.897612 h 6.506101 v 0.674055 h -6.506101 z m 2.03682,0.490888 h 0.681382 v 1.494645 h -0.681382 z m 1.619199,0 h 0.696035 v 1.494645 h -0.696035 z m -1.582565,1.282171 h 0.644748 v 0.718015 q 0,0.351681 -0.102573,0.732669 -0.09525,0.373661 -0.373661,0.725343 -0.271088,0.344354 -0.79861,0.615442 -0.04396,-0.06594 -0.139207,-0.153861 -0.08792,-0.08792 -0.183167,-0.168514 -0.09525,-0.08792 -0.168514,-0.13188 0.483562,-0.234454 0.718016,-0.505542 0.241781,-0.278414 0.322374,-0.564155 0.08059,-0.293068 0.08059,-0.564155 z m 5.817392,-0.791283 h 1.948899 V 45.33697 H 47.94816 Z m 3.377604,0 h 1.978206 v 0.505542 h -1.978206 z m 1.692465,-1.099003 h 0.696036 v 5.590264 q 0,0.322375 -0.08059,0.490888 -0.08059,0.175841 -0.293067,0.263761 -0.212474,0.08792 -0.564155,0.102574 -0.351682,0.02198 -0.86455,0.02198 -0.01465,-0.09525 -0.05861,-0.227127 -0.03663,-0.124554 -0.08792,-0.263761 -0.05129,-0.131881 -0.102573,-0.219801 0.24178,0.0073 0.476235,0.01465 0.24178,0 0.424948,0 0.183167,0 0.256434,0 0.1099,-0.0073 0.15386,-0.04396 0.04396,-0.04396 0.04396,-0.146534 z m -5.011456,0 h 2.315234 v 2.754835 h -2.315234 v -0.564155 h 1.663159 v -1.619199 h -1.663159 z m 5.377791,0 v 0.571481 h -1.795039 v 1.626526 h 1.795039 v 0.571481 h -2.454441 v -2.769488 z m -5.766105,0 h 0.681382 v 6.476794 h -0.681382 z"
         id="text5-9"
         style="font-weight:500;font-size:7.32669px;line-height:1.25;font-family:'Noto Sans JP';-inkscape-font-specification:'Noto Sans JP Medium';fill:#f9f9f9;stroke-width:0.261667"
         aria-label="西門" />
      <path
         style="font-weight:500;font-size:7.32669px;line-height:1.25;font-family:'Noto Sans KR';-inkscape-font-specification:'Noto Sans KR Medium';fill:#f9f9f9;stroke-width:0.261667"
         d="m 64.420695,44.141675 h 0.630096 v 1.099003 q 0,0.608116 -0.131881,1.172271 -0.13188,0.564155 -0.388314,1.055043 -0.249108,0.490888 -0.608116,0.86455 -0.351681,0.373661 -0.805936,0.593462 l -0.461581,-0.630096 q 0.402968,-0.183167 0.725342,-0.498215 0.329701,-0.322374 0.556829,-0.732669 0.234454,-0.410294 0.359008,-0.879203 0.124553,-0.468908 0.124553,-0.945143 z m 0.139207,0 h 0.630096 v 1.099003 q 0,0.461582 0.117227,0.90851 0.124554,0.446928 0.351681,0.842569 0.227127,0.395642 0.549502,0.696036 0.322374,0.300394 0.710689,0.483561 l -0.446928,0.615442 q -0.446929,-0.212474 -0.79861,-0.571481 -0.351681,-0.359008 -0.600788,-0.827916 -0.249108,-0.468909 -0.380988,-1.01841 -0.131881,-0.549502 -0.131881,-1.128311 z m 2.894043,-0.556829 h 0.769303 v 6.711249 h -0.769303 z m 2.293255,0.564156 h 3.09919 v 3.172456 H 69.7472 Z m 2.351867,0.608115 h -1.597218 v 1.948899 h 1.597218 z m 2.132067,-1.164944 h 0.769303 v 4.879576 h -0.769303 z m -1.597218,1.817019 h 1.802366 v 0.615442 h -1.802366 z m -1.97088,4.1176 h 4.513241 v 0.622769 h -4.513241 z m 0,-1.509298 h 0.769303 v 1.809692 h -0.769303 z"
         id="text5-9-8"
         aria-label="시먼" />
    </g>
  </g>
</svg>
