<?xml version="1.0" encoding="UTF-8" standalone="no"?>
<!-- Created with Inkscape (http://www.inkscape.org/) -->

<svg
   width="500"
   height="250"
   viewBox="0 0 132.29166 66.145833"
   version="1.1"
   id="svg1"
   inkscape:version="1.3.2 (091e20e, 2023-11-25, custom)"
   sodipodi:docname="g13.svg"
   xmlns:inkscape="http://www.inkscape.org/namespaces/inkscape"
   xmlns:sodipodi="http://sodipodi.sourceforge.net/DTD/sodipodi-0.dtd"
   xmlns="http://www.w3.org/2000/svg"
   xmlns:svg="http://www.w3.org/2000/svg">
  <sodipodi:namedview
     id="namedview1"
     pagecolor="#9e652e"
     bordercolor="#ffffff"
     borderopacity="1"
     inkscape:showpageshadow="0"
     inkscape:pageopacity="0"
     inkscape:pagecheckerboard="false"
     inkscape:deskcolor="#d1d1d1"
     inkscape:document-units="mm"
     inkscape:zoom="2.0208096"
     inkscape:cx="206.35294"
     inkscape:cy="106.88785"
     inkscape:window-width="1920"
     inkscape:window-height="1009"
     inkscape:window-x="1912"
     inkscape:window-y="-8"
     inkscape:window-maximized="1"
     inkscape:current-layer="layer1" />
  <defs
     id="defs1">
    <rect
       x="560.66638"
       y="34.144731"
       width="279.32397"
       height="128.59143"
       id="rect6" />
    <rect
       x="157.85752"
       y="62.351248"
       width="381.61437"
       height="132.30098"
       id="rect4" />
    <rect
       x="157.85751"
       y="62.35125"
       width="329.07602"
       height="135.09438"
       id="rect4-5" />
    <rect
       x="157.85751"
       y="62.35125"
       width="329.07602"
       height="135.09438"
       id="rect4-5-8" />
    <rect
       x="157.85751"
       y="62.35125"
       width="329.07602"
       height="135.09438"
       id="rect4-5-1" />
    <rect
       x="157.85751"
       y="62.35125"
       width="329.07602"
       height="135.09438"
       id="rect4-5-4" />
  </defs>
  <g
     inkscape:label="Layer 1"
     inkscape:groupmode="layer"
     id="layer1">
    <rect
       style="fill:#f4eed3;fill-opacity:1;stroke:none;stroke-width:0.953294;stroke-dasharray:none"
       id="rect5"
       width="132.29167"
       height="66.145836"
       x="-2.5431316e-06"
       y="-1.2715658e-06"
       ry="0" />
    <g
       id="g11"
       transform="translate(-0.64274236,-1.774381)">
      <g
         id="g10"
         transform="matrix(1.1068401,0,0,1.1068401,-8.6613765,-1.759132)">
        <path
           id="rect1"
           style="fill-opacity:0;stroke:#000000;stroke-width:0.815864"
           d="m 23.886312,16.87302 h 10.752404 c 3.398374,0 6.134248,2.735875 6.134248,6.134249 v 20.131294 c 0,3.398374 -2.735874,6.134249 -6.134248,6.134249 H 23.886312 c -3.398373,0 -6.134248,-2.735875 -6.134248,-6.134249 V 23.007269 c 0,-3.398374 2.735875,-6.134249 6.134248,-6.134249 z" />
        <path
           style="font-size:12.5329px;line-height:1.25;font-family:'AR UDJingXiHeiE1G30 EB';-inkscape-font-specification:'AR UDJingXiHeiE1G30 EB';stroke-width:0.261102"
           d="m 31.816695,29.905448 q -0.463717,0.651711 -1.16556,0.965033 -0.689309,0.30079 -1.579145,0.30079 -1.955133,0 -3.108159,-1.228224 -1.153027,-1.240758 -1.153027,-3.459081 0,-2.230856 1.215691,-3.45908 1.215691,-1.228224 3.28362,-1.228224 1.666876,0 2.707106,0.764507 1.052764,0.751974 1.265823,2.155658 h -1.591678 q -0.125329,-0.739441 -0.739441,-1.203158 -0.601579,-0.47625 -1.64181,-0.47625 -1.391152,0 -2.11806,0.902369 -0.726908,0.889835 -0.726908,2.544178 0,1.767139 0.764506,2.606843 0.764507,0.827172 2.080462,0.827172 1.153027,0 1.829803,-0.676777 0.676777,-0.676776 0.676777,-1.554079 V 27.499131 H 29.24745 v -1.240757 h 4.098259 v 4.749969 h -1.529014 z"
           id="text2"
           aria-label="G" />
        <path
           style="font-size:12.4542px;line-height:1.25;font-family:'AR UDJingXiHeiE1G30 EB';-inkscape-font-specification:'AR UDJingXiHeiE1G30 EB';stroke-width:0.22644"
           d="m 24.891099,36.47625 -1.457141,1.357508 -0.722344,-1.108424 2.34139,-2.129668 h 1.357507 v 9.004387 h -1.519412 z m 7.933316,-0.797068 q -0.684981,0 -1.071061,0.410988 -0.38608,0.410989 -0.38608,1.071061 h -1.531866 q 0,-1.220511 0.797068,-1.967763 0.809523,-0.747252 2.191939,-0.747252 1.282783,0 2.079852,0.635164 0.797069,0.635164 0.797069,1.818313 0,0.647619 -0.273993,1.145787 -0.273992,0.498168 -0.821977,0.759706 0.697435,0.23663 1.071061,0.797069 0.38608,0.560439 0.38608,1.332599 0,1.332599 -0.846885,2.079851 -0.846886,0.747252 -2.353844,0.747252 -1.531867,0 -2.366298,-0.734798 -0.834431,-0.734797 -0.834431,-2.005126 h 1.54432 q 0,0.672527 0.448352,1.09597 0.460805,0.410988 1.220511,0.410988 0.747252,0 1.170695,-0.410988 0.435897,-0.410989 0.435897,-1.170695 0,-0.635164 -0.398534,-1.033698 -0.398535,-0.410989 -1.145787,-0.410989 h -0.560439 v -1.232966 h 0.560439 q 0.498168,0 0.834432,-0.361172 0.348717,-0.361171 0.348717,-0.971427 0,-0.560439 -0.336263,-0.909157 -0.336264,-0.348717 -0.958974,-0.348717 z"
           id="text3"
           aria-label="13" />
        <path
           style="font-weight:500;font-size:72px;line-height:1.25;font-family:'Noto Sans TC';-inkscape-font-specification:'Noto Sans TC Medium';white-space:pre"
           d="m 162.24942,92.385406 h 21.24 v 6.84 h -21.24 z m 35.64,-16.416 h 7.128 v 51.912004 q 0,2.808 0.504,3.6 0.576,0.792 2.448,0.792 0.504,0 1.512,0 1.08,0 2.304,0 1.224,0 2.304,0 1.08,0 1.584,0 1.512,0 2.232,-1.368 0.792,-1.44 1.08,-5.112 0.36,-3.744 0.576,-10.44 0.864,0.648 2.016,1.368 1.152,0.648 2.376,1.152 1.224,0.504 2.16,0.72 -0.36,7.488 -1.224,11.952 -0.864,4.392 -2.88,6.336 -1.944,2.016 -5.688,2.016 -0.576,0 -1.872,0 -1.296,0 -2.808,0 -1.512,0 -2.808,0 -1.224,0 -1.8,0 -3.456,0 -5.472,-1.008 -2.016,-0.936 -2.88,-3.384 -0.792,-2.448 -0.792,-6.696 z m -18.072,-0.072 h 7.056 v 53.496004 h -7.056 z m -19.944,57.888004 q 3.888,-1.296 9.144,-3.168 5.256,-1.872 11.088,-4.032 5.904,-2.16 11.664,-4.32 l 1.152,6.048 q -5.112,2.232 -10.44,4.464 -5.328,2.16 -10.296,4.176 -4.968,2.016 -9.216,3.672 z m 41.76,-41.472004 h 23.04 v 6.84 h -23.04 z m 37.728,-3.672 h 19.152 v 4.968 h -19.152 z m 33.192,0 h 19.44 v 4.968 h -19.44 z m 16.632,-10.8 h 6.84 v 54.936004 q 0,3.168 -0.792,4.824 -0.792,1.728 -2.88,2.592 -2.088,0.864 -5.544,1.008 -3.456,0.216 -8.496,0.216 -0.144,-0.936 -0.576,-2.232 -0.36,-1.224 -0.864,-2.592 -0.504,-1.296 -1.008,-2.16 2.376,0.072 4.68,0.144 2.376,0 4.176,0 1.8,0 2.52,0 1.08,-0.072 1.512,-0.432 0.432,-0.432 0.432,-1.44 z m -49.248,0 h 22.752 v 27.072004 h -22.752 v -5.544004 h 16.344 v -15.912 h -16.344 z m 52.848,0 v 5.616 h -17.64 v 15.984 h 17.64 v 5.616004 h -24.12 V 77.841406 Z m -56.664,0 h 6.696 v 63.648004 h -6.696 z"
           id="text4"
           transform="matrix(0.22644015,0,0,0.22644015,8.2710132,0.93621216)"
           aria-label="北門" />
        <path
           style="font-size:6.34032px;line-height:1.25;font-family:'AR UDJingXiHeiE1G30 EB';-inkscape-font-specification:'AR UDJingXiHeiE1G30 EB';stroke-width:0.22644"
           d="m 47.478979,39.834511 h -2.409321 v -4.584052 h 2.206431 q 0.653053,0 1.033472,0.317016 0.38042,0.317016 0.38042,0.843263 0,0.342377 -0.152168,0.60233 -0.145827,0.253613 -0.443822,0.418461 0.386759,0.152168 0.583309,0.418461 0.20289,0.266294 0.20289,0.634032 0,0.608671 -0.39944,0.98275 -0.39944,0.367739 -1.001771,0.367739 z m 0.374079,-3.322328 q 0,-0.310676 -0.177529,-0.469184 Q 47.498,35.878151 47.161963,35.878151 h -1.287085 v 1.293425 h 1.331468 q 0.285314,0 0.462843,-0.164848 0.183869,-0.171189 0.183869,-0.494545 z m 0.19021,1.965499 q 0,-0.329697 -0.20289,-0.500885 -0.19655,-0.177529 -0.519907,-0.177529 h -1.445593 v 1.407551 h 1.432913 q 0.336037,0 0.532587,-0.183869 0.20289,-0.18387 0.20289,-0.545268 z m 5.034218,1.356829 h -3.392071 v -4.584052 h 3.37305 v 0.627692 h -2.56783 v 1.293425 h 2.396641 v 0.627692 h -2.396641 v 1.407551 h 2.586851 z m 1.654828,-4.584052 v 4.584052 h -0.805221 v -4.584052 z m 1.832347,1.280745 v 3.303307 h -0.779859 v -4.584052 h 1.020792 l 1.318786,3.55692 1.268064,-3.55692 h 1.046153 v 4.584052 h -0.7862 v -3.328669 l -1.19198,3.328669 h -0.678414 z m 8.318499,3.303307 h -3.392072 v -4.584052 h 3.373051 v 0.627692 h -2.56783 v 1.293425 h 2.396641 v 0.627692 h -2.396641 v 1.407551 h 2.586851 z m 1.654827,-3.309648 v 3.309648 h -0.80522 v -4.584052 h 0.830582 l 2.250813,3.385731 v -3.385731 h 0.805221 v 4.584052 h -0.881305 z"
           id="text5"
           aria-label="BEIMEN" />
        <path
           d="m 44.818122,43.578114 h 1.870394 v 0.60233 h -1.870394 z m 3.138458,-1.445593 h 0.627692 v 4.647454 q 0,0.253613 0.05072,0.329697 0.05706,0.06974 0.247273,0.06974 0.04438,0 0.152168,0 0.114125,0 0.247272,0 0.133147,0 0.247273,0 0.114125,0 0.164848,0 0.139487,0 0.20923,-0.107785 0.06974,-0.114126 0.101446,-0.39944 0.0317,-0.285315 0.05072,-0.79888 0.07608,0.05706 0.177529,0.114125 0.101445,0.05706 0.209231,0.101445 0.107785,0.03804 0.190209,0.05706 -0.0317,0.58965 -0.114126,0.951048 -0.07608,0.355058 -0.253612,0.513566 -0.177529,0.158508 -0.513566,0.158508 -0.05072,0 -0.18387,0 -0.133146,0 -0.291654,0 -0.158508,0 -0.291655,0 -0.126806,0 -0.177529,0 -0.329697,0 -0.513566,-0.08876 -0.183869,-0.08877 -0.259953,-0.310676 -0.07608,-0.215571 -0.07608,-0.60233 z m -1.566059,-0.0063 h 0.621351 v 5.718969 h -0.621351 z m 3.645684,0.963729 0.437482,0.532587 q -0.304335,0.228251 -0.665733,0.450163 -0.361399,0.221911 -0.741818,0.437482 -0.374079,0.215571 -0.735477,0.40578 -0.0317,-0.101445 -0.107785,-0.240932 -0.06974,-0.139487 -0.133147,-0.228251 0.348717,-0.19021 0.703775,-0.418462 0.355058,-0.234591 0.678415,-0.475524 0.323356,-0.247272 0.564288,-0.462843 z m -5.427314,3.404752 q 0.259953,-0.08242 0.59599,-0.20289 0.336037,-0.120466 0.710116,-0.259953 0.380419,-0.139487 0.760838,-0.285315 l 0.114126,0.545268 q -0.488204,0.215571 -0.99543,0.431141 -0.500885,0.209231 -0.913006,0.38042 z m 6.999714,-3.246244 h 1.686525 v 0.437482 h -1.686525 z m 2.922887,0 h 1.711887 v 0.437482 h -1.711887 z m 1.464614,-0.951048 h 0.60233 v 4.837664 q 0,0.278974 -0.06974,0.424802 -0.06974,0.152167 -0.253613,0.228251 -0.183869,0.07608 -0.488205,0.08877 -0.304335,0.01902 -0.748157,0.01902 -0.01268,-0.08243 -0.05072,-0.19655 -0.0317,-0.107786 -0.07608,-0.228252 -0.04438,-0.114126 -0.08876,-0.190209 0.20923,0.0063 0.412121,0.01268 0.20923,0 0.367738,0 0.158508,0 0.221911,0 0.09511,-0.0063 0.133147,-0.03804 0.03804,-0.03804 0.03804,-0.126806 z m -4.336779,0 h 2.003541 v 2.38396 h -2.003541 v -0.488204 h 1.439253 v -1.401211 h -1.439253 z m 4.653795,0 v 0.494545 h -1.553378 v 1.407551 h 1.553378 v 0.494545 h -2.124007 v -2.396641 z m -4.989832,0 h 0.58965 v 5.604843 h -0.58965 z"
           id="text5-9"
           style="font-weight:500;font-size:6.34032px;line-height:1.25;font-family:'Noto Sans JP';-inkscape-font-specification:'Noto Sans JP Medium';stroke-width:0.22644"
           aria-label="北門" />
        <path
           style="font-weight:500;font-size:6.34032px;line-height:1.25;font-family:'Noto Sans KR';-inkscape-font-specification:'Noto Sans KR Medium';stroke-width:0.22644"
           d="m 64.640808,42.727607 h 0.627691 v 1.369509 h 1.008111 v -1.369509 h 0.615011 v 3.823213 h -2.250813 z m 0.627691,1.902096 v 1.38219 h 1.008111 v -1.38219 z m 3.493517,-2.460044 h 0.634032 v 5.795052 h -0.634032 z m -1.97818,2.168389 h 1.046153 v 0.538928 h -1.046153 z m 0.817901,-2.054263 h 0.621351 v 5.408293 h -0.621351 z m 6.784143,-0.114126 h 0.665734 v 5.807733 H 74.38588 Z m -2.415662,0.424801 q 0.431142,0 0.767179,0.253613 0.342377,0.253613 0.532587,0.710116 0.190209,0.456503 0.190209,1.077854 0,0.627692 -0.190209,1.090535 -0.19021,0.456503 -0.532587,0.710116 -0.336037,0.247273 -0.767179,0.247273 -0.431142,0 -0.773519,-0.247273 -0.336037,-0.253613 -0.532587,-0.710116 -0.190209,-0.462843 -0.190209,-1.090535 0,-0.621351 0.190209,-1.077854 0.19655,-0.456503 0.532587,-0.710116 0.342377,-0.253613 0.773519,-0.253613 z m 0,0.602331 q -0.253613,0 -0.450163,0.171188 -0.190209,0.171189 -0.297995,0.494545 -0.107785,0.323357 -0.107785,0.773519 0,0.456503 0.107785,0.77986 0.107786,0.323356 0.297995,0.500885 0.19655,0.171189 0.450163,0.171189 0.253613,0 0.443823,-0.171189 0.190209,-0.177529 0.297995,-0.500885 0.107785,-0.323357 0.107785,-0.77986 0,-0.450162 -0.107785,-0.773519 -0.107786,-0.323356 -0.297995,-0.494545 -0.19021,-0.171188 -0.443823,-0.171188 z m 4.400183,-0.538928 h 2.681955 v 2.745359 h -2.681955 z m 2.035243,0.526247 h -1.38219 v 1.686525 h 1.38219 z m 1.845033,-1.008111 h 0.665733 v 4.222653 h -0.665733 z m -1.38219,1.5724 h 1.559719 v 0.532586 h -1.559719 z m -1.705546,3.563259 h 3.905637 v 0.538928 h -3.905637 z m 0,-1.306106 h 0.665733 v 1.56606 h -0.665733 z"
           id="text5-9-8"
           aria-label="베이먼" />
      </g>
      <path
         style="font-weight:500;font-size:72px;line-height:1.25;font-family:'Noto Sans TC';-inkscape-font-specification:'Noto Sans TC Medium';white-space:pre"
         d="m 162.17742,94.761406 h 63.648 v 7.056004 h -63.648 z m 35.856,2.808 q 2.304,8.496004 6.192,15.840004 3.96,7.344 9.648,12.888 5.76,5.472 13.32,8.64 -0.864,0.72 -1.872,1.872 -0.936,1.152 -1.8,2.304 -0.864,1.224 -1.44,2.16 -7.992,-3.744 -13.968,-9.864 -5.904,-6.192 -10.008,-14.328 -4.104,-8.136 -6.912,-17.856004 z m -7.92,-22.896 h 7.416 q 0,5.112 -0.288,11.016 -0.216,5.832 -1.08,12.024 -0.864,6.192004 -2.808,12.384004 -1.944,6.192 -5.4,11.952 -3.456,5.76 -8.856,10.728 -5.4,4.896 -13.176,8.568 -0.864,-1.368 -2.304,-3.024 -1.44,-1.584 -2.88,-2.664 7.488,-3.384 12.6,-7.848 5.184,-4.536 8.352,-9.792 3.24,-5.328 4.968,-11.016 1.728,-5.688 2.448,-11.376004 0.72,-5.688 0.864,-11.016 0.144,-5.328 0.144,-9.936 z m 52.92,6.048 h 6.408 v 60.840004 h -6.408 z m -9.432,14.472 h 24.696 v 6.336004 h -24.696 z m 9.72,2.52 4.248,1.656 q -0.936,3.888004 -2.232,8.064004 -1.296,4.104 -2.952,8.208 -1.584,4.104 -3.384,7.704 -1.728,3.528 -3.6,6.192 -0.504,-1.512 -1.584,-3.456 -1.008,-1.944 -1.8,-3.24 2.304,-2.952 4.464,-7.2 2.16,-4.32 3.96,-9.072 1.872,-4.752 2.88,-8.856004 z m 10.296,-22.608 4.104,5.544 q -3.096,1.296 -6.912,2.376 -3.816,1.008 -7.776,1.8 -3.888,0.72 -7.632,1.296 -0.144,-1.08 -0.792,-2.592 -0.576,-1.512 -1.08,-2.664 3.528,-0.648 7.2,-1.512 3.744,-0.936 7.056,-2.016 3.384,-1.08 5.832,-2.232 z m -4.752,27.504004 q 0.648,0.504 1.728,1.8 1.152,1.296 2.448,2.88 1.368,1.512 2.448,2.88 1.152,1.296 1.584,1.872 l -3.816,5.472 q -0.504,-1.152 -1.44,-2.808 -0.936,-1.728 -2.016,-3.528 -1.08,-1.872 -2.088,-3.456 -0.936,-1.584 -1.656,-2.52 z m 13.536,15.192 h 13.824 v 5.904 h -13.824 z m 0.144,14.832 h 31.68 v 6.048 h -31.68 z m 16.704,-14.76 h 13.752 v 5.904 h -13.752 z m 13.896,-42.408004 4.176,5.256 q -3.816,1.08 -8.496,1.944 -4.608,0.864 -9.648,1.512 -5.04,0.648 -10.152,1.152 -5.112,0.432 -9.864,0.648 -0.144,-1.08 -0.648,-2.592 -0.432,-1.584 -1.008,-2.664 4.68,-0.36 9.576,-0.864 4.968,-0.504 9.72,-1.152 4.824,-0.648 9,-1.44 4.176,-0.864 7.344,-1.8 z m -20.808,12.456 5.472,-1.368 q 1.296,2.664 2.448,5.904 1.152,3.24 1.584,5.472 l -5.76,1.656 q -0.432,-2.232 -1.512,-5.544 -1.08,-3.312 -2.232,-6.12 z m -13.824,2.304 5.4,-1.872 q 1.44,2.592 2.88,5.688 1.512,3.024 2.232,5.112 l -5.688,2.160004 q -0.648,-2.160004 -2.016,-5.328004 -1.368,-3.168 -2.808,-5.76 z m 32.904,-5.4 6.336,2.592 q -1.728,3.744 -3.6,7.776 -1.8,3.96 -3.528,6.840004 l -5.328,-2.376004 q 1.08,-1.944 2.232,-4.536 1.152,-2.592 2.16,-5.256 1.08,-2.736 1.728,-5.04 z m -20.016,15.192004 4.968,4.608 q -3.384,1.872 -7.416,3.672 -3.96,1.728 -7.704,2.952 -0.216,-1.008 -0.864,-2.304 -0.576,-1.296 -1.08,-2.232 3.24,-1.44 6.552,-3.24 3.384,-1.8 5.544,-3.456 z m -12.096,6.696 h 6.552 v 34.704 h -6.552 z m 19.512,-2.808 h 17.64 v 37.08 h -6.408 v -31.032 h -11.232 z m 26.568,-11.880004 h 22.104 v 6.336 h -22.104 z m 8.28,-16.488 h 6.552 v 47.376004 h -6.552 z m -9.72,47.664004 q 3.024,-1.008 6.984,-2.376 3.96,-1.368 8.352,-2.952 4.464,-1.584 8.856,-3.168 l 1.296,6.264 q -5.976,2.448 -12.168,4.824 -6.12,2.304 -11.088,4.176 z m 41.76,-14.256 h 6.768 v 29.016 h -6.768 z m -18.792,24.84 h 44.352 v 6.048 h -44.352 z m 3.816,-14.256 h 37.872 v 5.976 h -37.872 z m 7.56,-35.712004 v 11.88 h 22.104 v -11.88 z m -6.336,-6.12 h 35.064 v 24.120004 h -35.064 z m 30.888,25.776004 5.328,4.896 q -4.896,1.512 -11.088,2.592 -6.12,1.08 -12.744,1.728 -6.624,0.648 -12.816,0.936 -0.144,-1.152 -0.72,-2.736 -0.576,-1.584 -1.08,-2.664 4.464,-0.288 9.072,-0.72 4.68,-0.432 9.072,-1.008 4.464,-0.648 8.28,-1.368 3.888,-0.72 6.696,-1.656 z m 15.192,-22.176004 h 63.648 v 6.408 h -63.648 z m 15.264,29.808004 h 33.264 v 5.4 h -33.264 z m -1.512,11.592 h 36.216 v 5.616 h -36.216 z m 14.616,-8.928 h 6.48 v 26.064 h -6.48 z m -24.984,-19.440004 h 52.128 v 6.336004 h -45.288 v 40.68 h -6.84 z m 50.04,0 h 6.912 v 39.744004 q 0,2.736 -0.72,4.176 -0.72,1.44 -2.736,2.16 -1.944,0.72 -5.112,0.864 -3.096,0.144 -7.488,0.144 -0.216,-1.296 -0.936,-3.024 -0.648,-1.656 -1.368,-2.88 2.088,0.072 4.032,0.072 2.016,0.072 3.6,0 1.584,0 2.16,0 1.008,0 1.296,-0.288 0.36,-0.36 0.36,-1.224 z m -34.848,8.496004 5.4,-1.656 q 1.368,1.872 2.592,4.176 1.224,2.304 1.8,4.032 l -5.76,2.016 q -0.432,-1.8 -1.656,-4.176 -1.152,-2.448 -2.376,-4.392 z m 21.24,-1.656 5.76,1.728 q -1.368,2.664 -2.88,5.328 -1.512,2.664 -2.88,4.536 l -4.896,-1.512 q 0.864,-1.368 1.728,-3.168 0.936,-1.8 1.728,-3.6 0.864,-1.8 1.44,-3.312 z m -11.664,-26.280004 h 7.488 v 23.832 h -7.488 z"
         id="text4-0"
         transform="matrix(0.12803532,0,0,0.12803532,62.370324,8.6146232)"
         aria-label="大稻埕南" />
      <path
         style="font-size:3.52072px;line-height:1.25;font-family:'AR UDJingXiHeiE1G30 EB';-inkscape-font-specification:'AR UDJingXiHeiE1G30 EB';stroke-width:0.12574"
         d="m 85.42247,29.266208 q 0,0.63373 -0.299261,0.968198 -0.295741,0.334469 -0.827369,0.334469 h -1.042133 v -2.545481 h 1.042133 q 0.531628,0 0.827369,0.313344 0.299261,0.313344 0.299261,0.92947 z m -0.464735,0 q 0,-0.461214 -0.190119,-0.675978 -0.186598,-0.218285 -0.545711,-0.218285 h -0.521067 v 1.848378 h 0.524587 q 0.345031,0 0.53867,-0.228846 0.19364,-0.228847 0.19364,-0.725269 z m 2.309589,0.274616 -0.401362,-1.087902 -0.408403,1.087902 z m -0.940032,0.348552 -0.253492,0.679499 h -0.454173 l 1.02453,-2.545481 h 0.457694 l 1.017488,2.545481 h -0.464735 l -0.257013,-0.679499 z m 4.253026,-0.623168 q 0,0.63373 -0.299261,0.968198 -0.29574,0.334469 -0.827369,0.334469 h -1.042133 v -2.545481 h 1.042133 q 0.531629,0 0.827369,0.313344 0.299261,0.313344 0.299261,0.92947 z m -0.464735,0 q 0,-0.461214 -0.190118,-0.675978 -0.186599,-0.218285 -0.545712,-0.218285 h -0.521067 v 1.848378 h 0.524588 q 0.34503,0 0.53867,-0.228846 0.193639,-0.228847 0.193639,-0.725269 z m 2.30959,0.274616 -0.401362,-1.087902 -0.408403,1.087902 z m -0.940032,0.348552 -0.253492,0.679499 h -0.454173 l 1.02453,-2.545481 h 0.457693 l 1.017489,2.545481 H 92.812452 L 92.55544,29.889376 Z m 4.531163,-0.580919 q 0,0.612605 -0.34151,0.961156 -0.337989,0.345031 -0.92595,0.345031 -0.598522,0 -0.936511,-0.348551 -0.337989,-0.348552 -0.337989,-0.957636 0,-0.619647 0.34151,-0.971719 0.34151,-0.355593 0.93299,-0.355593 0.598523,0 0.932991,0.352072 0.334469,0.352072 0.334469,0.97524 z m -1.26746,0.957636 q 0.383759,0 0.591481,-0.253492 0.211244,-0.253492 0.211244,-0.704144 0,-0.447132 -0.211244,-0.711186 -0.211243,-0.267574 -0.591481,-0.267574 -0.387279,0 -0.602043,0.271095 -0.211243,0.267575 -0.211243,0.707665 0,0.450652 0.214764,0.704144 0.214764,0.253492 0.598522,0.253492 z m 3.562971,-0.58444 h 0.447131 q -0.0176,0.418966 -0.29222,0.675978 -0.274616,0.257013 -0.795682,0.257013 -0.616126,0 -0.943553,-0.348551 -0.323907,-0.348552 -0.323907,-0.968198 0,-0.612606 0.323907,-0.964678 0.327427,-0.352072 0.936511,-0.352072 0.48938,0 0.760476,0.225326 0.271095,0.221806 0.309823,0.577399 H 98.28717 q -0.02817,-0.204202 -0.186599,-0.327427 -0.158432,-0.126746 -0.447131,-0.126746 -0.355593,0 -0.570357,0.239409 -0.214764,0.239409 -0.214764,0.728789 0,0.496421 0.214764,0.732309 0.218285,0.235889 0.577398,0.235889 0.306303,0 0.471777,-0.158433 0.165474,-0.161953 0.179557,-0.426007 z m 1.33083,-0.24293 v 1.130152 h -0.447132 v -2.545481 h 0.447132 v 1.066778 h 1.221685 v -1.066778 h 0.44714 v 2.545481 h -0.44714 v -1.130152 z m 4.136845,1.130152 h -1.88358 v -2.545481 h 1.87302 v 0.348551 h -1.42589 v 0.718227 h 1.33083 v 0.348551 h -1.33083 v 0.7816 h 1.43645 z m 0.91891,-1.837816 v 1.837816 h -0.44713 v -2.545481 h 0.46121 l 1.24986,1.880065 v -1.880065 h 0.44713 v 2.545481 h -0.48938 z m 4.16501,1.527992 q -0.13027,0.183078 -0.32743,0.271096 -0.19364,0.0845 -0.44361,0.0845 -0.54923,0 -0.87314,-0.345031 -0.3239,-0.348551 -0.3239,-0.971718 0,-0.626688 0.34151,-0.971719 0.34151,-0.345031 0.92243,-0.345031 0.46825,0 0.76047,0.214764 0.29574,0.211244 0.3556,0.605564 h -0.44714 q -0.0352,-0.207722 -0.20772,-0.337989 -0.16899,-0.133787 -0.46121,-0.133787 -0.3908,0 -0.595,0.253492 -0.20421,0.249971 -0.20421,0.714706 0,0.496421 0.21477,0.732309 0.21476,0.232368 0.58444,0.232368 0.3239,0 0.51402,-0.190119 0.19012,-0.190119 0.19012,-0.436569 v -0.05281 h -0.72175 v -0.348551 h 1.15128 v 1.334353 h -0.42953 z m 2.72503,-0.841452 q -0.46473,-0.0845 -0.69006,-0.260533 -0.22532,-0.176036 -0.22532,-0.492901 0,-0.29574 0.2394,-0.48938 0.24293,-0.19364 0.7464,-0.19364 0.46121,0 0.7147,0.197161 0.2535,0.19716 0.27814,0.570356 h -0.44713 q -0.004,-0.179556 -0.14083,-0.299261 -0.13731,-0.119704 -0.41897,-0.119704 -0.26405,0 -0.3908,0.08802 -0.12674,0.08802 -0.12322,0.24645 0,0.172515 0.16899,0.257013 0.17252,0.0845 0.5598,0.161953 0.48586,0.09858 0.69006,0.267574 0.20772,0.168995 0.20772,0.506984 0,0.323906 -0.27461,0.542191 -0.27462,0.214764 -0.7816,0.214764 -0.51755,0 -0.80625,-0.218285 -0.2887,-0.218284 -0.2887,-0.630209 h 0.44713 q 0,0.228847 0.17252,0.366155 0.17251,0.133788 0.47882,0.133788 0.28165,0 0.44009,-0.109143 0.15843,-0.109142 0.15843,-0.285178 0,-0.204202 -0.15843,-0.29222 -0.15844,-0.08802 -0.55628,-0.161953 z m 4.03475,-0.109142 q 0,0.612605 -0.34151,0.961156 -0.33799,0.345031 -0.92595,0.345031 -0.59852,0 -0.93651,-0.348551 -0.33799,-0.348552 -0.33799,-0.957636 0,-0.619647 0.34151,-0.971719 0.34151,-0.355593 0.93299,-0.355593 0.59852,0 0.93299,0.352072 0.33447,0.352072 0.33447,0.97524 z m -1.26746,0.957636 q 0.38376,0 0.59148,-0.253492 0.21124,-0.253492 0.21124,-0.704144 0,-0.447132 -0.21124,-0.711186 -0.21124,-0.267574 -0.59148,-0.267574 -0.38728,0 -0.60204,0.271095 -0.21125,0.267575 -0.21125,0.707665 0,0.450652 0.21477,0.704144 0.21476,0.253492 0.59852,0.253492 z m 3.88688,-0.587961 q 0,0.443611 -0.27814,0.690062 -0.27814,0.24645 -0.79216,0.24645 -0.52107,0 -0.80273,-0.24293 -0.27813,-0.242929 -0.27813,-0.690061 v -1.658259 h 0.44713 v 1.637135 q 0,0.288699 0.15843,0.447131 0.15843,0.158433 0.4753,0.158433 0.29926,0 0.45769,-0.151391 0.16195,-0.154912 0.16195,-0.461215 v -1.630093 h 0.45066 z m 1.10902,-1.306187 h -0.79216 v -0.348551 h 2.02793 v 0.348551 h -0.78864 v 2.19693 h -0.44713 z m 2.0209,1.066778 v 1.130152 h -0.44714 v -2.545481 h 0.44714 v 1.066778 h 1.22169 v -1.066778 h 0.44713 v 2.545481 h -0.44713 v -1.130152 z"
         id="text5-8"
         aria-label="DADAOCHENG SOUTH&#10;" />
      <path
         d="m 83.085952,32.750311 h 2.868818 v 0.318037 h -2.868818 z m 1.616144,0.126566 q 0.103849,0.382942 0.279093,0.713959 0.17849,0.331018 0.434866,0.580904 0.259622,0.24664 0.600375,0.389432 -0.03894,0.03245 -0.08438,0.08438 -0.04219,0.05192 -0.08113,0.103849 -0.03894,0.05517 -0.06491,0.09736 -0.360225,-0.168754 -0.629582,-0.444602 -0.266112,-0.279093 -0.451093,-0.645809 -0.18498,-0.366715 -0.311546,-0.804827 z m -0.35698,-1.031996 h 0.334263 q 0,0.230414 -0.01298,0.496526 -0.0097,0.262867 -0.04868,0.541961 -0.03894,0.279093 -0.126566,0.558186 -0.08762,0.279093 -0.243395,0.538715 -0.155773,0.259621 -0.399168,0.483545 -0.243395,0.220678 -0.593884,0.386187 -0.03894,-0.06166 -0.103849,-0.136301 -0.0649,-0.0714 -0.129811,-0.120075 0.337508,-0.152528 0.567922,-0.353735 0.23366,-0.204452 0.376452,-0.441356 0.146037,-0.24015 0.223923,-0.496527 0.07789,-0.256376 0.11034,-0.512752 0.03245,-0.256377 0.03894,-0.496527 0.0065,-0.24015 0.0065,-0.447847 z m 3.125195,1.304599 h 0.285584 v 1.703766 h -0.285584 z m 0.6523,0.66528 h 0.872977 v 0.256376 h -0.872977 z m 0.01298,0.619847 h 0.869732 v 0.266112 h -0.869732 z m 0.756148,-2.567009 0.223923,0.223924 q -0.223923,0.0714 -0.503017,0.126565 -0.279093,0.05192 -0.577658,0.09087 -0.295319,0.03894 -0.577658,0.06166 -0.0065,-0.04868 -0.03245,-0.11683 -0.02596,-0.0714 -0.04868,-0.120075 0.201206,-0.01947 0.412149,-0.04543 0.214188,-0.02921 0.415394,-0.06166 0.204452,-0.03245 0.379697,-0.07464 0.175245,-0.04219 0.308301,-0.08438 z m -1.453881,0.649054 0.243395,-0.07789 q 0.08113,0.12332 0.142792,0.275847 0.06491,0.152528 0.09087,0.266113 l -0.262867,0.09087 q -0.01947,-0.11683 -0.08113,-0.269357 -0.06166,-0.155773 -0.133056,-0.285584 z m 0.590639,-0.09411 0.256376,-0.0714 q 0.06491,0.133056 0.113585,0.292075 0.04868,0.155772 0.0649,0.272602 l -0.269357,0.07789 q -0.01298,-0.11683 -0.06166,-0.275848 -0.04543,-0.162264 -0.103848,-0.29532 z m 0.885958,-0.133056 0.301811,0.08762 q -0.05841,0.142792 -0.126566,0.29532 -0.06491,0.149282 -0.133056,0.288829 -0.06815,0.136301 -0.133056,0.24015 l -0.253131,-0.08438 q 0.05841,-0.110339 0.12332,-0.253131 0.06491,-0.146037 0.12332,-0.29532 0.05841,-0.152527 0.09736,-0.279093 z m -0.931392,0.915166 h 1.181278 v 1.642107 h -0.288829 v -1.37924 h -0.616601 v 1.395466 h -0.275848 z m -1.26241,-1.067694 h 0.292074 v 2.722782 h -0.292074 z m -0.451093,0.642564 h 1.109883 v 0.279093 h -1.109883 z m 0.447848,0.113584 0.18498,0.0714 q -0.04219,0.168754 -0.100603,0.35698 -0.05517,0.18498 -0.126566,0.369961 -0.06815,0.181735 -0.146037,0.343998 -0.07464,0.159019 -0.159018,0.275848 -0.01947,-0.06491 -0.06491,-0.146037 -0.04543,-0.08113 -0.08113,-0.139546 0.100603,-0.133057 0.194716,-0.324527 0.09736,-0.194717 0.175244,-0.408904 0.08113,-0.214188 0.123321,-0.399169 z m 0.464073,-0.983316 0.223924,0.217433 q -0.146037,0.05841 -0.331018,0.110339 -0.181735,0.04868 -0.373206,0.08762 -0.188225,0.0357 -0.366715,0.06166 -0.0097,-0.04543 -0.03894,-0.110339 -0.02596,-0.06815 -0.04868,-0.113584 0.168754,-0.02921 0.340753,-0.06815 0.175244,-0.03894 0.327772,-0.08438 0.155773,-0.04868 0.266112,-0.100603 z m -0.17849,1.272145 q 0.02921,0.02272 0.08762,0.08113 0.05841,0.05841 0.126565,0.129811 0.06815,0.06815 0.123321,0.129811 0.05841,0.05841 0.08113,0.08762 l -0.175244,0.233659 q -0.02596,-0.05192 -0.07789,-0.12332 -0.04868,-0.07464 -0.107094,-0.155773 -0.05517,-0.08113 -0.107094,-0.152527 -0.05192,-0.0714 -0.08762,-0.113585 z m 2.537802,-0.554941 h 0.996298 v 0.285584 H 89.540794 Z M 89.914,31.883824 h 0.295319 v 2.135388 H 89.914 Z m -0.438112,2.148369 q 0.136302,-0.04543 0.314791,-0.107094 0.17849,-0.06166 0.376452,-0.133056 0.201206,-0.0714 0.399168,-0.142792 l 0.05841,0.282339 q -0.269358,0.110339 -0.548451,0.217433 -0.275848,0.103848 -0.499771,0.188225 z M 91.358145,33.38963 H 91.6632 v 1.307843 h -0.305055 z m -0.847016,1.119618 h 1.999087 v 0.272602 h -1.999087 z m 0.172,-0.642564 h 1.707012 v 0.269358 h -1.707012 z m 0.340753,-1.609654 v 0.53547 h 0.996298 v -0.53547 z m -0.285584,-0.275848 h 1.580447 v 1.087166 h -1.580447 z m 1.392221,1.161807 0.24015,0.220678 q -0.220678,0.06815 -0.499772,0.11683 -0.275847,0.04868 -0.574412,0.07789 -0.298565,0.02921 -0.577658,0.04219 -0.0065,-0.05192 -0.03245,-0.12332 -0.02596,-0.0714 -0.04868,-0.120075 0.201207,-0.01298 0.408904,-0.03245 0.210942,-0.01947 0.408904,-0.04543 0.201207,-0.02921 0.373206,-0.06166 0.175245,-0.03245 0.30181,-0.07464 z m 0.684752,-0.999543 h 2.868819 v 0.288829 h -2.868819 z m 0.687998,1.343542 h 1.499314 v 0.243395 h -1.499314 z m -0.06815,0.522488 h 1.632371 v 0.253131 h -1.632371 z m 0.65879,-0.402413 h 0.292074 V 34.78185 H 94.093908 Z M 92.967799,32.73084 h 2.349575 v 0.285584 H 93.2761 v 1.833577 h -0.308301 z m 2.255463,0 h 0.311546 v 1.791389 q 0,0.12332 -0.03245,0.188226 -0.03245,0.0649 -0.12332,0.09736 -0.08762,0.03245 -0.230415,0.03894 -0.139546,0.0065 -0.337508,0.0065 -0.0097,-0.05841 -0.04219,-0.136301 -0.02921,-0.07464 -0.06166,-0.129811 0.09411,0.0032 0.181735,0.0032 0.09087,0.0032 0.162263,0 0.0714,0 0.09736,0 0.04543,0 0.05842,-0.01298 0.01623,-0.01623 0.01623,-0.05517 z m -1.570711,0.382942 0.243395,-0.07464 q 0.06166,0.08438 0.11683,0.188226 0.05517,0.103849 0.08113,0.181735 l -0.259622,0.09087 q -0.01947,-0.08113 -0.07464,-0.188226 -0.05192,-0.110339 -0.107094,-0.197961 z m 0.957355,-0.07464 0.259621,0.07789 q -0.06166,0.120075 -0.129811,0.24015 -0.06815,0.120075 -0.12981,0.204452 l -0.220679,-0.06815 q 0.03894,-0.06166 0.07789,-0.142792 0.04219,-0.08113 0.07789,-0.162263 0.03894,-0.08113 0.06491,-0.149283 z m -0.525734,-1.184523 h 0.337508 v 1.074184 h -0.337508 z m 2.810403,0.376451 h 1.100147 v 0.259622 h -1.100147 z m 1.236448,-0.204452 h 0.821054 v 0.275848 h -0.821054 z m -0.02596,0.872978 h 0.892449 v 0.275848 h -0.892449 z m -1.275391,-0.02596 h 1.220222 v 0.269357 H 96.82967 Z m 0.467319,-1.028751 h 0.288829 v 1.184524 h -0.288829 z m -0.447847,1.729729 h 1.178033 v 0.262867 h -1.178033 z m 0.444602,-0.369961 h 0.288829 v 1.178033 l -0.288829,0.04868 z m -0.53547,1.142335 q 0.171999,-0.01623 0.389433,-0.03894 0.220678,-0.02272 0.464073,-0.04868 0.243395,-0.02596 0.486791,-0.05517 l 0.0065,0.266113 q -0.350489,0.04543 -0.697733,0.08762 -0.347244,0.04219 -0.616601,0.0714 z m 1.661578,-1.333806 h 0.30181 v 1.489579 q 0,0.120075 -0.02921,0.188226 -0.02596,0.0714 -0.107094,0.110339 -0.07464,0.0357 -0.197961,0.04543 -0.120075,0.0097 -0.292075,0.0097 -0.0097,-0.06491 -0.0357,-0.155773 -0.02272,-0.08762 -0.05517,-0.152528 0.12332,0.0032 0.220678,0.0065 0.09736,0 0.136302,-0.0032 0.03245,0 0.04543,-0.0097 0.01298,-0.01298 0.01298,-0.04543 z m -1.891992,-1.168297 0.279093,0.100603 q -0.08438,0.136302 -0.194716,0.279094 -0.110339,0.139546 -0.236905,0.266112 -0.12332,0.126565 -0.249886,0.223923 -0.01623,-0.03245 -0.04868,-0.07464 -0.02921,-0.04219 -0.06166,-0.08438 -0.02921,-0.04219 -0.05517,-0.0714 0.110339,-0.08113 0.217433,-0.188225 0.110339,-0.107094 0.201207,-0.223924 0.09087,-0.120075 0.149282,-0.227169 z m -0.188226,1.337051 0.243396,-0.243395 0.03894,0.01298 v 1.908219 h -0.282339 z m 0.272603,-0.668525 0.275848,0.09087 q -0.09411,0.204452 -0.223924,0.408904 -0.129811,0.201207 -0.275848,0.379697 -0.146037,0.175244 -0.298565,0.308301 -0.01298,-0.03245 -0.04543,-0.08438 -0.02921,-0.05192 -0.06491,-0.103849 -0.03245,-0.05517 -0.06166,-0.08762 0.204452,-0.165509 0.389433,-0.408904 0.188225,-0.243396 0.305055,-0.503017 z"
         id="text5-9-1"
         style="font-weight:500;font-size:3.24527px;line-height:1.25;font-family:'Noto Sans JP';-inkscape-font-specification:'Noto Sans JP Medium';stroke-width:0.115903"
         aria-label="大稲埕南街" />
      <path
         style="font-weight:500;font-size:3.24527px;line-height:1.25;font-family:'Noto Sans kr';-inkscape-font-specification:'Noto Sans kr Medium';stroke-width:0.115903"
         d="m 105.21115,31.965898 h 0.34076 v 2.972667 h -0.34076 z m 0.26612,1.139089 h 0.53546 v 0.282339 h -0.53546 z m -2.10294,0.821054 h 0.24015 q 0.26611,0 0.49004,-0.0065 0.22392,-0.0097 0.43486,-0.02921 0.21094,-0.02272 0.42838,-0.06166 l 0.0357,0.282338 q -0.22393,0.04219 -0.44136,0.0649 -0.21419,0.01947 -0.44785,0.02921 -0.23041,0.0065 -0.49977,0.0065 h -0.24015 z m 0,-1.677805 h 1.37924 v 0.275848 h -1.04173 v 1.535013 h -0.33751 z m 4.82247,-0.282338 h 0.34076 v 2.972667 h -0.34076 z m 0.26611,1.139089 h 0.53547 v 0.282339 h -0.53547 z m -2.10293,0.821054 h 0.24015 q 0.26611,0 0.49003,-0.0065 0.22393,-0.0097 0.43487,-0.02921 0.21094,-0.02272 0.42838,-0.06166 l 0.0357,0.282338 q -0.22392,0.04219 -0.44135,0.0649 -0.21419,0.01947 -0.44785,0.02921 -0.23041,0.0065 -0.49977,0.0065 h -0.24015 z m 0,-1.677805 h 1.37924 v 0.275848 h -1.04173 v 1.535013 h -0.33751 z m 4.03387,1.392221 h 0.34075 v 0.710714 h -0.34075 z m 0.172,-1.49607 q 0.31479,0 0.55819,0.09736 0.24664,0.09736 0.38943,0.275847 0.14279,0.17849 0.14279,0.41864 0,0.243396 -0.14279,0.421885 -0.14279,0.17849 -0.38943,0.279094 -0.2434,0.09736 -0.55819,0.09736 -0.31479,0 -0.56143,-0.09736 -0.24664,-0.100604 -0.38944,-0.279094 -0.14279,-0.178489 -0.14279,-0.421885 0,-0.24015 0.14279,-0.41864 0.1428,-0.178489 0.38944,-0.275847 0.24664,-0.09736 0.56143,-0.09736 z m 0,0.269358 q -0.22392,0 -0.39592,0.06491 -0.16876,0.06166 -0.26612,0.17849 -0.0973,0.11683 -0.0973,0.279093 0,0.162264 0.0973,0.282339 0.0974,0.11683 0.26612,0.181735 0.172,0.06166 0.39592,0.06166 0.22068,0 0.39268,-0.06166 0.172,-0.0649 0.26935,-0.181735 0.0974,-0.120075 0.0974,-0.282339 0,-0.162263 -0.0974,-0.279093 -0.0974,-0.11683 -0.26935,-0.17849 -0.172,-0.06491 -0.39268,-0.06491 z m -1.3403,1.875766 h 2.68709 v 0.279093 h -2.68709 z m 3.69312,-1.807616 h 0.27585 v 0.11683 q 0,0.256377 -0.0974,0.483545 -0.0974,0.223924 -0.28234,0.392678 -0.18173,0.165509 -0.44785,0.249886 l -0.16226,-0.262867 q 0.23041,-0.0714 0.38943,-0.201207 0.15902,-0.133056 0.24015,-0.305055 0.0844,-0.175245 0.0844,-0.35698 z m 0.0617,0 h 0.27585 v 0.11683 q 0,0.126566 0.0487,0.249886 0.0487,0.120075 0.13954,0.223924 0.0941,0.103848 0.22717,0.18498 0.13306,0.08113 0.30506,0.129811 l -0.15578,0.262867 q -0.26286,-0.07464 -0.45433,-0.230414 -0.18823,-0.155773 -0.28883,-0.366716 -0.0974,-0.210943 -0.0974,-0.454338 z m -0.688,-0.178489 h 1.58694 v 0.269357 h -1.58694 z m 0.62634,-0.347244 h 0.33751 v 0.447847 h -0.33751 z m 0.87622,0.830789 h 0.61985 v 0.279093 h -0.61985 z m 0.53223,-0.817808 h 0.34075 v 1.791389 h -0.34075 z m -0.64581,1.856294 q 0.46407,0 0.73018,0.146037 0.26936,0.146038 0.26936,0.405659 0,0.262867 -0.26936,0.405659 -0.26611,0.146037 -0.73018,0.146037 -0.46732,0 -0.73668,-0.146037 -0.26611,-0.142792 -0.26611,-0.405659 0,-0.259621 0.26611,-0.405659 0.26936,-0.146037 0.73668,-0.146037 z m 0,0.262867 q -0.21094,0 -0.36023,0.0357 -0.14928,0.03245 -0.22717,0.09736 -0.0746,0.06166 -0.0746,0.155773 0,0.09411 0.0746,0.159018 0.0779,0.06491 0.22717,0.09736 0.14929,0.03245 0.36023,0.03245 0.21094,0 0.35698,-0.03245 0.14928,-0.03245 0.22717,-0.09736 0.0779,-0.0649 0.0779,-0.159018 0,-0.09411 -0.0779,-0.155773 -0.0779,-0.0649 -0.22717,-0.09736 -0.14604,-0.0357 -0.35698,-0.0357 z m 1.6486,-1.914709 h 0.3375 v 1.246184 h -0.3375 z m 0,1.13909 h 0.24015 q 0.31154,0 0.64256,-0.02596 0.33426,-0.02596 0.69449,-0.09736 l 0.0389,0.275848 q -0.36672,0.07464 -0.71071,0.103849 -0.34076,0.02596 -0.66528,0.02596 h -0.24015 z m 1.84331,-1.343542 h 0.33751 v 2.138633 h -0.33751 z m 0.2369,0.856751 h 0.51925 v 0.288829 h -0.51925 z m -1.76867,1.771918 h 1.96988 v 0.275848 h -1.96988 z m 0,-0.694488 h 0.34076 v 0.837279 h -0.34076 z"
         id="text5-9-1-0"
         aria-label="다다오청난" />
      <path
         id="rect2"
         style="stroke-width:0.757875"
         d="m 78.594933,18.101709 h 1.050099 v 16.764515 h -1.050099 z" />
    </g>
    <text
       xml:space="preserve"
       transform="matrix(0.31615295,0,0,0.31615295,0.2809891,-6.4462013)"
       id="text6"
       style="font-size:55px;line-height:1.25;font-family:'Microsoft JhengHei';-inkscape-font-specification:'Microsoft JhengHei';white-space:pre;shape-inside:url(#rect6);display:inline" />
  </g>
</svg>
