<?xml version="1.0" encoding="UTF-8" standalone="no"?>
<!-- Created with Inkscape (http://www.inkscape.org/) -->

<svg
   width="500"
   height="250"
   viewBox="0 0 132.29166 66.145833"
   version="1.1"
   id="svg1"
   inkscape:version="1.3.2 (091e20e, 2023-11-25, custom)"
   sodipodi:docname="g14.svg"
   xmlns:inkscape="http://www.inkscape.org/namespaces/inkscape"
   xmlns:sodipodi="http://sodipodi.sourceforge.net/DTD/sodipodi-0.dtd"
   xmlns="http://www.w3.org/2000/svg"
   xmlns:svg="http://www.w3.org/2000/svg">
  <sodipodi:namedview
     id="namedview1"
     pagecolor="#9e652e"
     bordercolor="#ffffff"
     borderopacity="1"
     inkscape:showpageshadow="0"
     inkscape:pageopacity="0"
     inkscape:pagecheckerboard="false"
     inkscape:deskcolor="#d1d1d1"
     inkscape:document-units="mm"
     inkscape:zoom="2.0208096"
     inkscape:cx="288.49823"
     inkscape:cy="82.145295"
     inkscape:window-width="1920"
     inkscape:window-height="1009"
     inkscape:window-x="1912"
     inkscape:window-y="-8"
     inkscape:window-maximized="1"
     inkscape:current-layer="layer1" />
  <defs
     id="defs1">
    <rect
       x="560.66638"
       y="34.144731"
       width="279.32397"
       height="128.59143"
       id="rect6" />
    <rect
       x="157.85752"
       y="62.351248"
       width="329.07603"
       height="135.09437"
       id="rect4" />
    <rect
       x="157.85751"
       y="62.35125"
       width="329.07602"
       height="135.09438"
       id="rect4-5" />
  </defs>
  <g
     inkscape:label="Layer 1"
     inkscape:groupmode="layer"
     id="layer1">
    <rect
       style="fill:#f4eed7;fill-opacity:1;stroke:none;stroke-width:0.953294;stroke-dasharray:none"
       id="rect5"
       width="132.29167"
       height="66.145836"
       x="-2.5431316e-06"
       y="-1.2715658e-06"
       ry="0" />
    <g
       id="g1"
       transform="translate(-6.3757744)">
      <path
         id="rect1"
         style="fill:none;fill-opacity:0;stroke:#000000;stroke-width:0.942789"
         d="m 39.737549,14.352791 h 12.425165 c 3.927061,0 7.088558,3.161497 7.088558,7.088559 v 23.263136 c 0,3.927062 -3.161497,7.088559 -7.088558,7.088559 H 39.737549 c -3.927061,0 -7.088558,-3.161497 -7.088558,-7.088559 V 21.44135 c 0,-3.927062 3.161497,-7.088559 7.088558,-7.088559 z" />
      <path
         style="font-size:14.0262px;line-height:1.25;font-family:'AR UDJingXiHeiE1G30 EB';-inkscape-font-specification:'AR UDJingXiHeiE1G30 EB';stroke-width:0.292211"
         d="m 48.713348,29.817207 q -0.518969,0.729362 -1.304437,1.080017 -0.771441,0.336629 -1.767301,0.336629 -2.188087,0 -3.478497,-1.374568 -1.290411,-1.388594 -1.290411,-3.871231 0,-2.496664 1.360542,-3.871231 1.360541,-1.374568 3.674864,-1.374568 1.865485,0 3.029659,0.855598 1.178201,0.841572 1.416647,2.412507 h -1.781328 q -0.140262,-0.827546 -0.827546,-1.346516 -0.673257,-0.532995 -1.837432,-0.532995 -1.556908,0 -2.370428,1.009886 -0.813519,0.99586 -0.813519,2.847319 0,1.977694 0.855598,2.91745 0.855598,0.925729 2.328349,0.925729 1.29041,0 2.047825,-0.757415 0.757415,-0.757415 0.757415,-1.739249 v -0.210393 h -2.875371 v -1.388594 h 4.586568 v 5.31593 h -1.711197 z"
         id="text2"
         aria-label="G" />
      <path
         style="font-size:14.3917px;line-height:1.25;font-family:'AR UDJingXiHeiE1G30 EB';-inkscape-font-specification:'AR UDJingXiHeiE1G30 EB';stroke-width:0.261667"
         d="m 41.042538,36.584172 -1.683829,1.568695 -0.834718,-1.280861 2.705639,-2.460981 h 1.568696 v 10.405199 h -1.755788 z m 9.915871,5.986947 H 46.453807 V 41.30465 l 4.418252,-6.893625 h 1.856529 v 6.720924 H 54.0958 v 1.43917 h -1.367212 v 2.245105 h -1.770179 z m -2.676856,-1.43917 h 2.676856 v -4.23116 z"
         id="text3"
         aria-label="14" />
      <path
         style="font-weight:500;font-size:72px;line-height:1.25;font-family:'Noto Sans TC';-inkscape-font-specification:'Noto Sans TC Medium';white-space:pre"
         d="m 164.55342,87.345406 h 58.608 v 34.920004 h -7.056 V 94.041406 h -44.784 v 28.584004 h -6.768 z m 3.528,24.264004 h 52.056 v 6.696 h -52.056 z m 22.032,-36.936004 h 7.128 v 66.744004 h -7.128 z m 72.072,0.72 h 7.2 v 56.880004 h -7.2 z m 25.488,14.328 h 7.056 v 51.552004 h -7.056 z m -50.472,0.216 h 6.984 v 39.168004 h 46.944 v 6.912 h -53.928 z"
         id="text4"
         transform="matrix(0.26166763,0,0,0.26166763,21.692958,-4.0633201)"
         aria-label="中山" />
      <path
         style="font-size:7.32669px;line-height:1.25;font-family:'AR UDJingXiHeiE1G30 EB';-inkscape-font-specification:'AR UDJingXiHeiE1G30 EB';stroke-width:0.261667"
         d="m 64.09918,35.589222 h 4.146907 v 0.666729 l -3.194437,3.905125 h 3.267703 v 0.725343 H 63.857399 V 40.21969 l 3.194437,-3.905126 H 64.09918 Z m 6.007886,2.945329 v 2.351868 h -0.930489 v -5.297197 h 0.930489 v 2.219987 h 2.542362 v -2.219987 h 0.93049 v 5.297197 h -0.93049 v -2.351868 z m 9.781133,-0.271087 q 0,1.274844 -0.710689,2.000186 -0.703362,0.718016 -1.926919,0.718016 -1.245538,0 -1.9489,-0.725343 -0.703362,-0.725342 -0.703362,-1.992859 0,-1.289498 0.710689,-2.022167 0.710689,-0.739996 1.941573,-0.739996 1.245537,0 1.941572,0.732669 0.696036,0.732669 0.696036,2.029494 z m -2.637608,1.992859 q 0.798609,0 1.230884,-0.527521 0.439601,-0.527522 0.439601,-1.465338 0,-0.93049 -0.439601,-1.479992 -0.439602,-0.556828 -1.230884,-0.556828 -0.805936,0 -1.252864,0.564155 -0.439602,0.556828 -0.439602,1.472665 0,0.937816 0.446928,1.465338 0.446928,0.527521 1.245538,0.527521 z m 4.579182,-3.194437 v 3.824533 h -0.93049 v -5.297197 h 0.959797 l 2.600975,3.912452 v -3.912452 h 0.93049 v 5.297197 h -1.01841 z m 8.66747,3.179784 q -0.271087,0.380988 -0.681382,0.564155 -0.402968,0.175841 -0.923163,0.175841 -1.142964,0 -1.817019,-0.718016 -0.674056,-0.725342 -0.674056,-2.022166 0,-1.304151 0.710689,-2.022167 0.710689,-0.718016 1.919593,-0.718016 0.97445,0 1.582565,0.446929 0.615442,0.439601 0.739996,1.26019 h -0.93049 q -0.07327,-0.432274 -0.432275,-0.703362 -0.351681,-0.278414 -0.959796,-0.278414 -0.813263,0 -1.238211,0.527521 -0.424948,0.520195 -0.424948,1.487319 0,1.033063 0.446928,1.523951 0.446929,0.483562 1.216231,0.483562 0.674056,0 1.069697,-0.395642 0.395641,-0.395641 0.395641,-0.908509 v -0.109901 h -1.501971 v -0.725342 h 2.395827 v 2.776816 h -0.893856 z m 3.751261,-1.751079 q -0.967123,-0.175841 -1.436032,-0.542175 -0.468908,-0.366335 -0.468908,-1.025737 0,-0.615442 0.498215,-1.01841 0.505542,-0.402968 1.553259,-0.402968 0.959796,0 1.487318,0.410295 0.527521,0.410295 0.578808,1.186924 h -0.930489 q -0.0073,-0.373661 -0.293068,-0.622769 -0.285741,-0.249107 -0.871876,-0.249107 -0.549502,0 -0.813263,0.183167 -0.263761,0.183167 -0.256434,0.512868 0,0.359008 0.351681,0.534849 0.359008,0.17584 1.164944,0.337027 1.011083,0.205148 1.436031,0.556829 0.432275,0.351681 0.432275,1.055043 0,0.674056 -0.571482,1.128311 -0.571482,0.446928 -1.626525,0.446928 -1.077024,0 -1.677812,-0.454255 -0.600789,-0.454255 -0.600789,-1.311478 h 0.93049 q 0,0.476235 0.359008,0.761976 0.359007,0.278414 0.99643,0.278414 0.586135,0 0.915836,-0.227127 0.329701,-0.227127 0.329701,-0.593462 0,-0.424948 -0.329701,-0.608115 -0.329701,-0.183167 -1.157617,-0.337028 z m 4.234826,0.04396 v 2.351868 h -0.93049 v -5.297197 h 0.93049 v 2.219987 h 2.54236 v -2.219987 h 0.93049 v 5.297197 h -0.93049 v -2.351868 z m 7.50986,0.212474 -0.83524,-2.263947 -0.8499,2.263947 z m -1.95622,0.725343 -0.52753,1.414051 h -0.94514 l 2.13207,-5.297197 h 0.95247 l 2.11741,5.297197 h -0.96712 l -0.53485,-1.414051 z m 5.26788,-2.410482 v 3.824533 h -0.93049 v -5.297197 h 0.95979 l 2.60098,3.912452 v -3.912452 h 0.93049 v 5.297197 h -1.01841 z"
         id="text5"
         aria-label="ZHONGSHAN" />
      <path
         d="m 64.160188,44.699548 h 5.963926 v 3.553444 H 69.406098 V 45.38093 h -4.557201 v 2.908696 h -0.688709 z m 0.359008,2.469094 h 5.297197 v 0.681382 h -5.297197 z m 2.241967,-3.758592 h 0.725342 v 6.791842 h -0.725342 z m 7.312037,0.175841 h 0.732669 v 5.692838 H 74.0732 Z m -2.535035,1.589892 h 0.703362 v 4.945515 h -0.703362 z m 5.172643,-0.01465 h 0.718016 v 4.938189 h -0.718016 z m -4.828289,3.699979 h 5.143337 v 0.710689 h -5.143337 z"
         id="text5-9"
         style="font-weight:500;font-size:7.32669px;line-height:1.25;font-family:'Noto Sans JP';-inkscape-font-specification:'Noto Sans JP Medium';stroke-width:0.261667"
         aria-label="中山" />
      <path
         style="font-weight:500;font-size:7.32669px;line-height:1.25;font-family:'Noto Sans KR';-inkscape-font-specification:'Noto Sans KR Medium';stroke-width:0.261667"
         d="m 87.588146,46.94047 h 0.769303 v 1.179598 h -0.769303 z m -2.637608,-0.256434 h 6.051846 v 0.615442 h -6.051846 z m 3.01127,1.208904 q 1.08435,0 1.692465,0.315048 0.615442,0.307721 0.615442,0.879203 0,0.571482 -0.615442,0.879203 -0.608115,0.307721 -1.692465,0.307721 -1.077024,0 -1.692466,-0.307721 -0.608115,-0.307721 -0.608115,-0.879203 0,-0.571482 0.608115,-0.879203 0.615442,-0.315048 1.692466,-0.315048 z m 0,0.593462 q -0.483562,0 -0.827916,0.07327 -0.344355,0.06594 -0.527522,0.197821 -0.175841,0.13188 -0.175841,0.329701 0,0.19782 0.175841,0.337027 0.183167,0.131881 0.527522,0.197821 0.344354,0.06594 0.827916,0.06594 0.498214,0 0.835242,-0.06594 0.344355,-0.06594 0.520195,-0.197821 0.175841,-0.139207 0.175841,-0.337027 0,-0.197821 -0.175841,-0.329701 -0.17584,-0.131881 -0.520195,-0.197821 -0.337028,-0.07327 -0.835242,-0.07327 z m -0.498215,-4.308094 h 0.681382 v 0.183168 q 0,0.315047 -0.124554,0.593461 -0.124554,0.271088 -0.359008,0.505542 -0.234454,0.227127 -0.556828,0.410295 -0.322375,0.183167 -0.725343,0.300394 -0.395641,0.117227 -0.857222,0.168514 l -0.271088,-0.600789 q 0.395641,-0.03663 0.732669,-0.124553 0.344355,-0.09525 0.615442,-0.227128 0.271088,-0.13188 0.461582,-0.293067 0.190494,-0.168514 0.293067,-0.351682 0.109901,-0.190494 0.109901,-0.380987 z m 0.344354,0 h 0.681382 v 0.183168 q 0,0.19782 0.102574,0.388314 0.102574,0.183167 0.293068,0.344355 0.190493,0.161187 0.461581,0.293067 0.278414,0.131881 0.615442,0.227128 0.344354,0.08792 0.739996,0.124553 l -0.271088,0.600789 Q 89.969321,46.288395 89.566353,46.171168 89.170711,46.053941 88.84101,45.8781 88.518636,45.694933 88.284182,45.467806 88.057055,45.233352 87.932501,44.954937 87.807947,44.669197 87.807947,44.361476 Z M 85.50004,43.885241 h 4.952842 v 0.608115 H 85.50004 Z m 7.773619,0.1099 h 0.630095 v 0.776629 q 0,0.659402 -0.219801,1.230884 -0.212474,0.564155 -0.630095,0.981777 -0.417621,0.417621 -1.011083,0.637422 l -0.417622,-0.600789 q 0.542176,-0.183167 0.90851,-0.520195 0.366335,-0.344354 0.549502,-0.791282 0.190494,-0.446929 0.190494,-0.937817 z m 0.146534,0 h 0.622768 v 0.798609 q 0,0.329701 0.102574,0.644749 0.1099,0.315048 0.307721,0.593462 0.205147,0.278414 0.498215,0.490888 0.300394,0.212474 0.688709,0.344355 l -0.388315,0.608115 q -0.586135,-0.212474 -0.99643,-0.608115 -0.410294,-0.395642 -0.622768,-0.93049 -0.212474,-0.542175 -0.212474,-1.142964 z m 2.732855,-0.410295 h 0.761976 v 4.923536 h -0.761976 z m 0.534848,2.007513 h 1.172271 v 0.637423 h -1.172271 z m -3.993046,3.934433 h 4.491261 v 0.622769 H 92.69485 Z m 0,-1.487318 h 0.769303 v 1.809692 H 92.69485 Z"
         id="text5-9-8"
         aria-label="중산" />
    </g>
    <text
       xml:space="preserve"
       transform="matrix(0.31615295,0,0,0.31615295,-10.474341,-6.4462013)"
       id="text6"
       style="font-size:55px;line-height:1.25;font-family:'Microsoft JhengHei';-inkscape-font-specification:'Microsoft JhengHei';white-space:pre;shape-inside:url(#rect6);display:inline" />
  </g>
</svg>
