<?xml version="1.0" encoding="UTF-8" standalone="no"?>
<!-- Created with Inkscape (http://www.inkscape.org/) -->

<svg
   width="500"
   height="250"
   viewBox="0 0 132.29166 66.145833"
   version="1.1"
   id="svg1"
   inkscape:version="1.3.2 (091e20e, 2023-11-25, custom)"
   sodipodi:docname="g14.svg"
   xmlns:inkscape="http://www.inkscape.org/namespaces/inkscape"
   xmlns:sodipodi="http://sodipodi.sourceforge.net/DTD/sodipodi-0.dtd"
   xmlns="http://www.w3.org/2000/svg"
   xmlns:svg="http://www.w3.org/2000/svg">
  <sodipodi:namedview
     id="namedview1"
     pagecolor="#9e652e"
     bordercolor="#ffffff"
     borderopacity="1"
     inkscape:showpageshadow="0"
     inkscape:pageopacity="0"
     inkscape:pagecheckerboard="false"
     inkscape:deskcolor="#d1d1d1"
     inkscape:document-units="mm"
     inkscape:zoom="2.0208096"
     inkscape:cx="176.66187"
     inkscape:cy="144.49654"
     inkscape:window-width="1920"
     inkscape:window-height="1009"
     inkscape:window-x="1912"
     inkscape:window-y="-8"
     inkscape:window-maximized="1"
     inkscape:current-layer="layer1" />
  <defs
     id="defs1">
    <rect
       x="157.85752"
       y="62.351248"
       width="329.07603"
       height="135.09437"
       id="rect4" />
  </defs>
  <g
     inkscape:label="Layer 1"
     inkscape:groupmode="layer"
     id="layer1">
    <path
       id="rect5"
       style="fill:#f4eed7;stroke-width:0.953294"
       d="M -2.5431316e-6,-1.2715658e-6 H 132.29167 V 66.145835 H -2.5431316e-6 Z" />
    <g
       id="g5"
       transform="translate(0,10.054167)">
      <path
         id="rect6"
         style="fill:#f4eed7;stroke:#000000;stroke-width:0.575409"
         d="m 34.177494,16.558472 h 5.701048 c 1.810115,0 3.267355,1.45724 3.267355,3.267354 v 9.52472 c 0,1.810115 -1.45724,3.267355 -3.267355,3.267355 h -5.701048 c -1.810115,0 -3.267355,-1.45724 -3.267355,-3.267355 v -9.52472 c 0,-1.810114 1.45724,-3.267354 3.267355,-3.267354 z" />
      <path
         style="font-weight:bold;font-size:5.82083px;line-height:1.25;font-family:'Optima Bold';-inkscape-font-specification:'Optima Bold,  Bold';stroke-width:0.264583"
         d="m 34.9222,21.685171 q 0.02328,-0.459846 0.133879,-0.803275 0.116417,-0.343429 0.320146,-0.56462 0.203729,-0.221192 0.424921,-0.372533 0.227012,-0.151342 0.471487,-0.232834 0.128058,-0.04657 0.250295,-0.07567 0.128059,-0.02911 0.250296,-0.04657 0.122238,-0.01746 0.232833,-0.0291 0.116417,-0.01164 0.20955,-0.01746 l 0.232833,-0.0058 q 0.186267,0.0058 0.372534,0.02911 0.192087,0.01746 0.384174,0.05821 0.186267,0.04075 0.372533,0.116417 0.192088,0.06985 0.384175,0.168804 l -0.186266,0.49477 h -0.232834 q -0.0291,-0.01164 -0.06403,-0.03493 -0.03493,-0.0291 -0.06985,-0.06403 -0.03492,-0.03493 -0.07567,-0.06985 -0.03493,-0.03492 -0.08149,-0.06985 -0.08149,-0.06403 -0.186267,-0.122237 -0.104775,-0.05821 -0.227012,-0.110596 -0.09895,-0.04657 -0.227012,-0.06985 -0.122238,-0.0291 -0.267759,-0.03493 -0.0291,0 -0.06403,0.0058 -0.0291,0 -0.06403,0.0058 -0.05821,0.0058 -0.122237,0.01746 -0.05821,0.01164 -0.122238,0.0291 -0.21537,0.05821 -0.419099,0.186267 -0.197909,0.122237 -0.384175,0.314325 -0.180446,0.192087 -0.285221,0.471487 -0.104775,0.2794 -0.133879,0.657754 v 0.01746 0.02328 0.02328 0.02328 q -0.0058,0.430741 0.110596,0.779991 0.116416,0.34925 0.34925,0.617008 0.221191,0.250296 0.500591,0.384175 0.285221,0.128058 0.63447,0.145521 0.116417,-0.0058 0.221192,-0.01746 0.110596,-0.01746 0.215371,-0.04075 0.133879,-0.0291 0.227012,-0.06985 0.09895,-0.04657 0.168804,-0.09895 v -1.525057 h 0.232833 q 0.01164,0.01164 0.02328,0.01746 0.01164,0 0.0291,0.0058 0.01164,0.0058 0.02328,0.01164 0.01164,0 0.02328,0 0.0058,0 0.0058,0 0.0058,0 0.01164,0 0.0058,0.0058 0.0058,0.0058 0.0058,0 0.01164,0 0,0 0,0 0,0 0.0058,0 0,0 0,0 0,0 0,0 0.0291,-0.0058 0.06403,-0.01164 0.03493,-0.01164 0.06985,-0.01746 l 0.232834,-0.0058 v 1.693861 l -0.01746,0.01746 -0.01746,0.0058 q -0.0291,0.01746 -0.06985,0.0291 -0.03493,0.01164 -0.07567,0.02328 -0.04075,0.01746 -0.08731,0.0291 -0.04657,0.01164 -0.09895,0.02328 -0.104775,0.02328 -0.20955,0.04074 -0.104775,0.01746 -0.221191,0.0291 -0.104775,0.01746 -0.203729,0.02911 -0.09313,0.01746 -0.192088,0.02328 -0.09313,0.01164 -0.174624,0.01746 -0.08149,0.0058 -0.145521,0.0058 h -0.232833 q -0.01164,0 -0.02911,0 -0.01164,0 -0.02328,0 -0.01164,0 -0.0291,0 -0.01164,0 -0.02328,0 -0.494771,0 -0.884767,-0.133879 -0.389995,-0.133879 -0.681037,-0.4191 -0.28522,-0.279399 -0.430741,-0.651932 Q 34.9222,22.1683 34.9222,21.696812 v -0.01164 z"
         id="text6"
         aria-label="G" />
      <path
         style="font-weight:bold;font-size:5.82083px;line-height:1.25;font-family:'Optima Bold';-inkscape-font-specification:'Optima Bold,  Bold';stroke-width:0.264583"
         d="m 34.228197,25.988046 q 0.168804,-0.07567 0.331787,-0.151342 0.168804,-0.07567 0.331787,-0.151341 0.162983,-0.06985 0.291042,-0.1397 0.133879,-0.06985 0.238654,-0.1397 l 0.232833,-0.0058 0.1397,0.04075 v 3.987269 h -0.232833 q -0.03492,-0.0058 -0.06403,-0.01746 -0.0291,-0.0058 -0.05821,-0.01164 -0.03493,0.0058 -0.06985,0.01164 -0.03493,0.01164 -0.08149,0.01746 h -0.232834 v -3.440111 l -0.407458,0.232833 h -0.232833 q -0.0058,0 -0.01746,-0.0058 -0.0058,-0.01164 -0.01746,-0.0291 -0.0058,-0.01164 -0.01164,-0.01746 -0.0058,-0.01164 -0.0058,-0.01746 -0.0058,-0.01164 -0.01164,-0.01746 -0.0058,-0.01164 -0.01164,-0.01746 -0.0058,-0.01164 -0.01164,-0.01746 -0.0058,-0.0058 -0.01164,-0.01746 -0.01164,-0.0058 -0.01746,-0.01164 -0.0058,-0.01164 -0.01164,-0.01746 -0.01164,-0.01746 -0.0291,-0.0291 -0.01164,-0.01746 -0.0291,-0.02328 v -0.01164 z m 2.986091,2.293407 v -0.1397 l 1.880128,-2.654298 h 0.232833 0.407458 v 2.409823 l 0.320146,-0.0291 h 0.232833 q -0.0058,0.03493 -0.01746,0.06403 -0.0058,0.0291 -0.01164,0.05821 -0.0058,0.02328 -0.0058,0.05821 0,0.0291 0,0.05821 0,0.0291 0,0.06403 0,0.0291 0.0058,0.05821 0.0058,0.0291 0.01164,0.05821 0.01164,0.02328 0.01746,0.05239 l -0.232833,-0.0058 -0.320146,-0.02911 v 1.076854 h -0.232833 q -0.05239,0 -0.104775,0 -0.05239,0 -0.110596,0 -0.05821,0 -0.133879,0 -0.06985,0 -0.151342,0 v -1.100137 h -1.786994 v 0 z m 1.786994,-0.366712 v -1.54252 l -1.05357,1.54252 h 1.05357 v 0 z"
         id="text6-8"
         aria-label="14" />
    </g>
    <g
       id="g4"
       transform="translate(0,9.44477)">
      <path
         style="font-weight:bold;font-size:17.5626px;line-height:1.25;font-family:'Noto Serif TC';-inkscape-font-specification:'Noto Serif TC Bold';letter-spacing:1.8817px;stroke-width:0.313616"
         d="m 57.354525,25.42292 v -4.689214 h 3.951585 v 4.689214 z m -6.111784,0 v -4.689214 h 3.91646 v 4.689214 z m 10.888811,-6.287411 -0.983505,1.088881 h -3.793522 v -3.073455 c 0.474191,-0.07025 0.614691,-0.263439 0.649817,-0.509315 l -2.845141,-0.263439 v 3.846209 h -3.758397 l -2.335825,-0.913255 v 8.359797 h 0.316126 c 0.895693,0 1.861636,-0.491753 1.861636,-0.702504 v -1.036193 h 3.91646 v 6.902101 h 0.403939 c 0.843005,0 1.791385,-0.526878 1.791385,-0.755191 v -6.14691 h 3.951585 v 1.475258 h 0.368815 c 0.720066,0 1.808948,-0.386377 1.82651,-0.526878 V 21.10252 c 0.368815,-0.07025 0.597129,-0.245876 0.720067,-0.386377 z m 18.513482,1.299632 V 30.656574 H 76.746137 V 17.449499 c 0.474191,-0.07025 0.614691,-0.245876 0.649817,-0.491752 l -2.845142,-0.281002 v 13.979829 h -3.811084 v -9.448678 c 0.439065,-0.07025 0.597129,-0.228314 0.649817,-0.491753 l -2.827579,-0.281002 v 9.975557 c -0.245876,0.158063 -0.509315,0.386377 -0.667379,0.579565 l 2.265576,1.124007 0.684941,-0.948381 h 9.79993 v 1.68601 h 0.386378 c 0.843004,0 1.791385,-0.456628 1.791385,-0.649816 v -11.01175 c 0.47419,-0.07025 0.614691,-0.245876 0.649816,-0.491753 z"
         id="text7"
         aria-label="中山" />
      <path
         style="font-weight:bold;font-size:6.89956px;line-height:1.25;font-family:'Optima Bold';-inkscape-font-specification:'Optima Bold,  Bold';stroke-width:0.313616"
         d="m 43.332445,36.049722 h 3.698164 v 0.16559 q -0.365677,0.503668 -0.738253,1.007335 -0.372576,0.503668 -0.745152,1.021135 -0.372577,0.517467 -0.765852,1.076332 -0.386375,0.551965 -0.793449,1.145327 0.344978,0 0.683057,-0.0069 0.338078,-0.0069 0.669257,-0.0138 0.386375,-0.0138 0.724454,-0.0483 0.338078,-0.0345 0.634759,-0.09659 l 0.275983,-0.0069 q -0.0069,0.0483 -0.0207,0.08279 -0.0069,0.0345 -0.0138,0.069 -0.0069,0.0276 -0.0069,0.0621 0,0.0276 0,0.0552 v 0.0345 l 0.0069,0.0345 q 0,0.0138 0,0.0276 0,0.0069 0,0.0138 0,0.0138 0,0.0207 0.0069,0.0069 0.0069,0.0207 0.0069,0.0207 0.0138,0.0414 0.0069,0.0138 0.0138,0.0207 H 46.69943 42.78738 v -0.213886 l 2.98061,-4.181134 q -0.310481,0.0138 -0.607162,0.0207 -0.289781,0.0069 -0.572663,0.0207 -0.172489,0.0069 -0.338079,0.0207 -0.15869,0.0069 -0.317379,0.0138 -0.15869,0.0138 -0.310481,0.0207 -0.14489,0.0069 -0.289781,0.0207 l -0.275983,-0.0069 q 0.0069,-0.0138 0.0069,-0.0345 0.0069,-0.0207 0.0138,-0.0414 0.0069,-0.0207 0.0069,-0.0414 0.0069,-0.0207 0.0138,-0.0414 v -0.0276 -0.0276 q 0,-0.0207 -0.0069,-0.0414 0,-0.0276 -0.0069,-0.0552 -0.0069,-0.0276 -0.0138,-0.0552 0,-0.0345 -0.0138,-0.0621 v -0.0138 h 0.275983 z m 4.401915,4.726199 v -4.836592 h 0.275982 q 0.0207,0.0138 0.0483,0.0276 0.0276,0.0069 0.0552,0.0138 0.0069,0 0.0138,0.0069 0.0138,0 0.0207,0 0.0069,0 0.0138,0 0.0138,0 0.0207,0 0,0 0,0 0.0069,0 0.0138,0 0.0069,0 0.0069,0 0.0069,0 0.0069,0 0.0345,-0.0069 0.0621,-0.0138 0.0345,-0.0138 0.0552,-0.0207 l 0.275982,-0.0069 v 2.007772 q 0.09659,0.0276 0.248384,0.0414 0.151791,0.0138 0.358777,0.0276 0.186289,0.0069 0.379476,0.0138 0.200087,0.0069 0.400175,0.0069 0.179388,0 0.344978,0 0.172489,-0.0069 0.338078,-0.0138 0.200087,-0.0138 0.351878,-0.0276 0.15179,-0.0138 0.241484,-0.0345 v -2.028471 h 0.275983 q 0.0069,0.0138 0.0138,0.0207 0.0069,0 0.0138,0 0,0.0069 0.0069,0.0069 0.0069,0 0.0138,0 0.0138,0.0069 0.0276,0.0069 0.0138,0 0.0276,0 0.0069,0 0.0138,0.0069 0.0069,0 0.0138,0 0.0069,0.0069 0.0138,0.0069 0.0069,0 0.0138,0 0.0069,0 0.0069,0 0.0069,0 0.0138,0 0.0345,-0.0069 0.069,-0.0138 0.0414,-0.0138 0.069,-0.0207 l 0.275983,-0.0069 v 4.829692 h -0.275983 q -0.0276,0 -0.0621,0 -0.0276,-0.0069 -0.0621,-0.0138 0,0 -0.0069,0 0,0 0,0 0,0 -0.0069,0 0,0 0,0 0,0 -0.0069,0 0,0 -0.0069,0 -0.0414,0.0069 -0.08279,0.0138 -0.0414,0 -0.08279,0 h -0.275983 v -2.387248 q -0.0483,0 -0.117292,0 -0.0621,-0.0069 -0.137991,-0.0138 -0.0759,0 -0.16559,0 -0.08279,-0.0069 -0.179388,-0.0138 -0.151791,-0.0138 -0.31738,-0.0138 -0.16559,-0.0069 -0.344978,-0.0069 -0.0345,0 -0.069,0 -0.0345,0 -0.0621,0 -0.0345,0.0069 -0.069,0.0069 -0.0276,0 -0.0621,0 -0.0414,0 -0.08279,0 -0.0414,0 -0.08279,0 -0.0483,0.0069 -0.08969,0.0069 -0.0414,0 -0.0828,0 -0.0483,0 -0.103493,0.0069 -0.0483,0 -0.09659,0 -0.0552,0.0069 -0.103494,0.0138 -0.0483,0 -0.103493,0 -0.103493,0.0069 -0.200087,0.0138 -0.09659,0 -0.193188,0.0138 v 2.373449 h -0.275982 q -0.0414,0 -0.0759,0 -0.0276,-0.0069 -0.0621,-0.0138 -0.0414,0.0069 -0.0828,0.0138 -0.0414,0 -0.09659,0 H 47.73436 v 0 z m 5.381654,-2.387248 q 0,-0.0276 0,-0.0552 0,-0.0345 0,-0.0621 0,-0.0345 0,-0.069 0.0069,-0.0345 0.0138,-0.069 0.0414,-0.413973 0.227686,-0.793449 0.186288,-0.386375 0.517467,-0.738253 0.324279,-0.351877 0.800349,-0.524366 0.476069,-0.179389 1.103929,-0.179389 l 0.275983,-0.0069 q 0.634759,0.0276 1.083231,0.172489 0.455371,0.144891 0.731353,0.427773 0.275983,0.275983 0.448472,0.579563 0.179388,0.303581 0.255283,0.63476 0.0138,0.0414 0.0207,0.08279 0.0069,0.0414 0.0138,0.0759 0.0069,0.0414 0.0138,0.08279 0.0069,0.0414 0.0138,0.08279 0.0138,0.08279 0.0138,0.165589 0.0069,0.0759 0.0138,0.151791 v 0.0138 0.0207 0.0276 0.0207 q 0,0.579564 -0.200088,1.034934 -0.193187,0.448472 -0.593362,0.772751 -0.400174,0.331179 -0.855545,0.489869 -0.448472,0.15869 -0.95214,0.15869 h -0.275982 q -0.0138,0 -0.0276,0 -0.0138,0 -0.0276,0 -0.0138,0 -0.0345,0 -0.0138,0 -0.0276,0 -0.08969,0 -0.179388,-0.0069 -0.08279,0 -0.172489,-0.0138 -0.08969,-0.0069 -0.179389,-0.0276 -0.08969,-0.0207 -0.179388,-0.0414 -0.344978,-0.0759 -0.662358,-0.262184 -0.31738,-0.186288 -0.607161,-0.46917 -0.289782,-0.282882 -0.434673,-0.696855 -0.137991,-0.420874 -0.137991,-0.965939 v -0.0138 z m 0.986637,0.0069 q 0,0.538165 0.131092,0.952139 0.137991,0.407074 0.413974,0.696856 0.248384,0.262183 0.558864,0.407074 0.31738,0.14489 0.696856,0.165589 0.351877,-0.0207 0.641659,-0.165589 0.296681,-0.144891 0.531266,-0.407074 0.262183,-0.289782 0.413973,-0.703756 0.151791,-0.413973 0.193188,-0.93834 0,-0.0138 0,-0.0276 0,-0.0207 0,-0.0276 0,-0.0138 0,-0.0276 0,-0.0138 0,-0.0276 0,-0.448471 -0.137991,-0.827947 -0.131092,-0.379476 -0.400175,-0.683056 -0.255283,-0.275983 -0.579563,-0.427773 -0.317379,-0.15179 -0.703755,-0.172489 -0.338078,0.0207 -0.607161,0.144891 -0.269083,0.117292 -0.455371,0.338078 -0.206987,0.248384 -0.351878,0.517467 -0.137991,0.269083 -0.220786,0.558864 -0.0207,0.08969 -0.0414,0.172489 -0.0207,0.0828 -0.0345,0.16559 -0.0138,0.0828 -0.0276,0.165589 -0.0069,0.08279 -0.0207,0.15869 z m 5.429954,2.380348 v -4.781395 h 0.275983 0.331178 l 3.035807,3.339387 v -3.339387 h 0.275982 q 0.0138,0.0207 0.0345,0.0276 0.0207,0.0069 0.0414,0.0138 0.0276,-0.0069 0.0483,-0.0138 0.0207,-0.0069 0.0345,-0.0138 l 0.275983,-0.0069 v 4.774496 H 63.610245 63.341162 L 60.24326,37.33304 v 3.442881 h -0.275983 q -0.0069,0 -0.0138,0 -0.0069,0 -0.0138,0 -0.0138,0 -0.0207,0 -0.0069,-0.0069 -0.0138,-0.0069 -0.0138,0 -0.0276,0 -0.0069,0 -0.0207,0.0069 -0.0138,0 -0.0276,0 -0.0069,0 -0.0207,0 h -0.275983 v 0 z m 5.388554,-2.338951 q 0.0276,-0.545065 0.15869,-0.952139 0.137991,-0.407074 0.379476,-0.669258 0.241484,-0.262183 0.503668,-0.441571 0.269082,-0.179389 0.558864,-0.275983 0.15179,-0.0552 0.296681,-0.08969 0.15179,-0.0345 0.296681,-0.0552 0.144891,-0.0207 0.275982,-0.0345 0.137992,-0.0138 0.248385,-0.0207 l 0.275982,-0.0069 q 0.220786,0.0069 0.441572,0.0345 0.227685,0.0207 0.455371,0.069 0.220786,0.0483 0.441572,0.137991 0.227685,0.08279 0.455371,0.200087 l -0.220786,0.586463 h -0.275983 q -0.0345,-0.0138 -0.07589,-0.0414 -0.0414,-0.0345 -0.0828,-0.07589 -0.0414,-0.0414 -0.08969,-0.08279 -0.0414,-0.0414 -0.09659,-0.0828 -0.09659,-0.07589 -0.220786,-0.144891 -0.124192,-0.069 -0.269082,-0.131092 -0.117293,-0.0552 -0.269083,-0.08279 -0.144891,-0.0345 -0.31738,-0.0414 -0.0345,0 -0.0759,0.0069 -0.0345,0 -0.0759,0.0069 -0.069,0.0069 -0.144891,0.0207 -0.069,0.0138 -0.144891,0.0345 -0.255284,0.069 -0.496768,0.220786 -0.234585,0.144891 -0.455371,0.372576 -0.213887,0.227686 -0.338079,0.558865 -0.124192,0.331178 -0.158689,0.77965 v 0.0207 0.0276 0.0276 0.0276 q -0.0069,0.510568 0.131091,0.924541 0.137991,0.413974 0.413974,0.731354 0.262183,0.296681 0.593362,0.455371 0.338078,0.15179 0.752052,0.172489 0.137991,-0.0069 0.262183,-0.0207 0.131092,-0.0207 0.255284,-0.0483 0.15869,-0.0345 0.269083,-0.08279 0.117292,-0.0552 0.200087,-0.117292 v -1.807685 h 0.275982 q 0.0138,0.0138 0.0276,0.0207 0.0138,0 0.0345,0.0069 0.0138,0.0069 0.0276,0.0138 0.0138,0 0.0276,0 0.0069,0 0.0069,0 0.0069,0 0.0138,0 0.0069,0.0069 0.0069,0.0069 0.0069,0 0.0138,0 0,0 0,0 0,0 0.0069,0 0,0 0,0 0,0 0,0 0.0345,-0.0069 0.0759,-0.0138 0.0414,-0.0138 0.0828,-0.0207 l 0.275982,-0.0069 v 2.007772 l -0.0207,0.0207 -0.0207,0.0069 q -0.0345,0.0207 -0.0828,0.0345 -0.0414,0.0138 -0.08969,0.0276 -0.0483,0.0207 -0.103494,0.0345 -0.0552,0.0138 -0.117292,0.0276 -0.124192,0.0276 -0.248384,0.0483 -0.124192,0.0207 -0.262184,0.0345 -0.124192,0.0207 -0.241484,0.0345 -0.110393,0.0207 -0.227686,0.0276 -0.110393,0.0138 -0.206986,0.0207 -0.09659,0.0069 -0.172489,0.0069 h -0.275983 q -0.0138,0 -0.0345,0 -0.0138,0 -0.0276,0 -0.0138,0 -0.0345,0 -0.0138,0 -0.0276,0 -0.586463,0 -1.048733,-0.15869 -0.462271,-0.15869 -0.807249,-0.496768 -0.338078,-0.331179 -0.510567,-0.772751 -0.172489,-0.448471 -0.172489,-1.007336 v -0.0138 z m 5.657639,-1.352314 q 0.0414,-0.296681 0.165589,-0.510567 0.124192,-0.220786 0.31738,-0.358777 0.200087,-0.137991 0.407074,-0.213887 0.206987,-0.08279 0.434672,-0.103493 0.0207,0 0.0414,0 0.0207,0 0.0414,0 0.0138,0 0.0207,0 0.0138,0 0.0276,-0.0069 0.0069,0 0.0207,0 0.0138,0 0.0207,0 l 0.275982,-0.0069 q 0.172489,0.0069 0.331179,0.0345 0.15869,0.0276 0.310481,0.08279 0.14489,0.0483 0.248384,0.124192 0.103493,0.069 0.165589,0.151791 -0.0414,0.0414 -0.069,0.08969 -0.0276,0.0414 -0.0483,0.09659 -0.0207,0.0552 -0.0414,0.131092 -0.0207,0.069 -0.0414,0.15179 l -0.0069,0.0276 -0.0069,0.0414 h -0.275983 l -0.110393,-0.0069 q -0.0069,-0.0138 -0.0207,-0.0345 -0.0069,-0.0276 -0.0207,-0.0552 -0.0138,-0.0345 -0.0345,-0.0621 -0.0138,-0.0345 -0.0345,-0.0621 -0.0483,-0.069 -0.124192,-0.131092 -0.069,-0.0621 -0.165589,-0.117293 -0.069,-0.0414 -0.144891,-0.069 -0.07589,-0.0276 -0.165589,-0.0345 -0.117293,0.0138 -0.227686,0.07589 -0.103493,0.0621 -0.200087,0.15869 -0.124192,0.124192 -0.186288,0.269083 -0.0552,0.144891 -0.0552,0.30358 0,0.0138 0,0.0345 0,0.0138 0,0.0276 0,0.0069 0,0.0138 0,0.0069 0.0069,0.0138 0,0.0069 0,0.0138 0,0.0069 0,0.0138 0.0138,0.08969 0.0552,0.186288 0.0483,0.08969 0.117293,0.186288 0.0759,0.08969 0.179389,0.172489 0.110393,0.0759 0.262183,0.144891 l 0.765851,0.31048 q 0.206987,0.09659 0.358777,0.220786 0.15179,0.124192 0.241485,0.275983 0.09659,0.15179 0.137991,0.317379 0.0483,0.15869 0.0483,0.32428 0,0.0207 0,0.0414 0,0.0138 0,0.0276 0,0.0069 0,0.0138 0,0.0069 0,0.0138 -0.0069,0.0138 -0.0069,0.0207 0,0.0069 0,0.0138 -0.0276,0.275983 -0.15869,0.524367 -0.124192,0.248384 -0.351877,0.476069 -0.227686,0.227686 -0.510568,0.338079 -0.275982,0.110393 -0.62096,0.110393 h -0.275982 -0.0345 -0.0276 q -0.0138,0 -0.0276,0 -0.0138,0 -0.0276,0 -0.0138,-0.0069 -0.0276,-0.0069 -0.0138,0 -0.0276,0 -0.0138,0 -0.0276,0 -0.0138,0 -0.0276,-0.0069 -0.0207,0 -0.0345,-0.0069 -0.0138,0 -0.0276,0 -0.131092,-0.0207 -0.262183,-0.0621 -0.124192,-0.0345 -0.248384,-0.0828 -0.124192,-0.0552 -0.220786,-0.110393 -0.08969,-0.0621 -0.16559,-0.124192 l -0.0138,-0.0138 -0.0069,-0.0138 q 0.0276,-0.0621 0.0483,-0.124192 0.0207,-0.0621 0.0276,-0.110393 0.0069,-0.0276 0.0069,-0.0483 0.0069,-0.0276 0.0069,-0.0552 0.0069,-0.0207 0.0069,-0.0414 0.0069,-0.0276 0.0069,-0.0552 0,-0.0138 0,-0.0207 0,-0.0138 0.0069,-0.0276 0,-0.0138 0,-0.0276 0,-0.0138 0,-0.0276 0,-0.0276 0,-0.0552 0,-0.0276 0,-0.0552 l 0.110393,-0.0138 h 0.275982 q 0.179388,0.275983 0.331179,0.434673 0.15869,0.15869 0.289781,0.200087 0.09659,0.0276 0.179389,0.0483 0.08279,0.0207 0.15179,0.0345 0.179389,-0.0207 0.31048,-0.08969 0.137992,-0.069 0.234585,-0.186288 0.117293,-0.144891 0.172489,-0.30358 0.0621,-0.15869 0.069,-0.331179 0,-0.137992 -0.0414,-0.262184 -0.0345,-0.131091 -0.110393,-0.255283 -0.069,-0.124192 -0.186288,-0.213887 -0.110393,-0.08969 -0.262184,-0.14489 l -0.710654,-0.338079 q -0.303581,-0.131092 -0.48297,-0.282882 -0.172489,-0.15179 -0.227685,-0.31738 -0.0483,-0.165589 -0.0759,-0.338078 -0.0276,-0.172489 -0.0276,-0.351878 v -0.0138 z m 3.918954,3.691265 v -4.836592 h 0.275982 q 0.0207,0.0138 0.0483,0.0276 0.0276,0.0069 0.0552,0.0138 0.0069,0 0.0138,0.0069 0.0138,0 0.0207,0 0.0069,0 0.0138,0 0.0138,0 0.0207,0 0,0 0,0 0.0069,0 0.0138,0 0.0069,0 0.0069,0 0.0069,0 0.0069,0 0.0345,-0.0069 0.0621,-0.0138 0.0345,-0.0138 0.0552,-0.0207 l 0.275982,-0.0069 v 2.007772 q 0.09659,0.0276 0.248384,0.0414 0.151791,0.0138 0.358777,0.0276 0.186289,0.0069 0.379476,0.0138 0.200087,0.0069 0.400175,0.0069 0.179388,0 0.344978,0 0.172489,-0.0069 0.338078,-0.0138 0.200087,-0.0138 0.351878,-0.0276 0.15179,-0.0138 0.241484,-0.0345 v -2.028471 h 0.275983 q 0.0069,0.0138 0.0138,0.0207 0.0069,0 0.0138,0 0,0.0069 0.0069,0.0069 0.0069,0 0.0138,0 0.0138,0.0069 0.0276,0.0069 0.0138,0 0.0276,0 0.0069,0 0.0138,0.0069 0.0069,0 0.0138,0 0.0069,0.0069 0.0138,0.0069 0.0069,0 0.0138,0 0.0069,0 0.0069,0 0.0069,0 0.0138,0 0.0345,-0.0069 0.069,-0.0138 0.0414,-0.0138 0.069,-0.0207 l 0.275983,-0.0069 v 4.829692 h -0.275983 q -0.0276,0 -0.0621,0 -0.0276,-0.0069 -0.0621,-0.0138 0,0 -0.0069,0 0,0 0,0 0,0 -0.0069,0 0,0 0,0 0,0 -0.0069,0 0,0 -0.0069,0 -0.0414,0.0069 -0.08279,0.0138 -0.0414,0 -0.08279,0 h -0.275983 v -2.387248 q -0.0483,0 -0.117292,0 -0.0621,-0.0069 -0.137991,-0.0138 -0.0759,0 -0.16559,0 -0.0828,-0.0069 -0.179388,-0.0138 -0.151791,-0.0138 -0.31738,-0.0138 -0.16559,-0.0069 -0.344978,-0.0069 -0.0345,0 -0.069,0 -0.0345,0 -0.0621,0 -0.0345,0.0069 -0.069,0.0069 -0.0276,0 -0.0621,0 -0.0414,0 -0.08279,0 -0.0414,0 -0.0828,0 -0.0483,0.0069 -0.08969,0.0069 -0.0414,0 -0.0828,0 -0.0483,0 -0.103493,0.0069 -0.0483,0 -0.09659,0 -0.0552,0.0069 -0.103494,0.0138 -0.0483,0 -0.103493,0 -0.103493,0.0069 -0.200087,0.0138 -0.09659,0 -0.193188,0.0138 v 2.373449 h -0.275982 q -0.0414,0 -0.0759,0 -0.0276,-0.0069 -0.0621,-0.0138 -0.0414,0.0069 -0.0828,0.0138 -0.0414,0 -0.09659,0 h -0.275982 v 0 z m 5.167766,0 2.173361,-4.836592 h 0.275982 0.15869 l 2.125065,4.836592 h -0.275983 q -0.0207,0 -0.0483,0 -0.0207,0 -0.0483,0 -0.0276,0 -0.0552,0 -0.0207,0 -0.0552,0 -0.0138,0 -0.0345,0 -0.0138,0 -0.0276,-0.0069 -0.0138,0 -0.0345,0 -0.0138,0 -0.0276,0 -0.0138,0.0069 -0.0345,0.0069 -0.0138,0 -0.0276,0 -0.0138,0 -0.0276,0 -0.0138,0 -0.0207,0 -0.0138,0 -0.0276,0 -0.0069,0 -0.0207,0 H 83.356782 L 82.597831,38.871642 H 81.19032 l -0.703755,1.904279 h -0.275982 q -0.0138,0 -0.0345,0 -0.0138,0 -0.0276,0 l -0.0345,-0.0069 q -0.0069,0.0069 -0.0207,0.0069 -0.0138,0 -0.0207,0 -0.0138,0 -0.0276,0 -0.0069,0 -0.0207,0 h -0.275983 q -0.0207,0 -0.0414,0 -0.0207,0 -0.0414,0 v 0 z m 1.690392,-2.228558 h 1.131528 l -0.565764,-1.352314 -0.565764,1.352314 z m 3.794758,2.228558 v -4.781395 h 0.275983 0.331178 l 3.035807,3.339387 v -3.339387 h 0.275982 q 0.0138,0.0207 0.0345,0.0276 0.0207,0.0069 0.0414,0.0138 0.0276,-0.0069 0.0483,-0.0138 0.0207,-0.0069 0.0345,-0.0138 l 0.275983,-0.0069 v 4.774496 H 89.228308 88.959225 L 85.861323,37.33304 v 3.442881 H 85.58534 q -0.0069,0 -0.0138,0 -0.0069,0 -0.0138,0 -0.0138,0 -0.0207,0 -0.0069,-0.0069 -0.0138,-0.0069 -0.0138,0 -0.0276,0 -0.0069,0 -0.0207,0.0069 -0.0138,0 -0.0276,0 -0.0069,0 -0.0207,0 h -0.275983 v 0 z"
         id="text8"
         aria-label="ZHONGSHAN" />
      <g
         id="g2"
         transform="matrix(1.185323,0,0,1.185323,-30.082043,-35.320632)"
         style="fill:#000000">
        <path
           style="font-weight:500;font-size:5.82083px;line-height:1.25;font-family:'Noto Sans JP';-inkscape-font-specification:'Noto Sans JP Medium';stroke-width:0.264583"
           d="m 68.009973,36.19683 h 4.738155 v 2.823102 h -0.570441 v -2.281765 h -3.620556 v 2.310869 h -0.547158 z m 0.28522,1.961619 h 4.20846 v 0.541338 h -4.20846 z m 1.781174,-2.986085 h 0.576262 v 5.395909 h -0.576262 z m 5.809189,0.1397 h 0.582083 v 4.522784 h -0.582083 z m -2.014008,1.26312 h 0.5588 v 3.92906 h -0.5588 z m 4.109506,-0.01164 h 0.570442 v 3.923239 h -0.570442 z m -3.835927,2.939519 h 4.086223 v 0.564621 h -4.086223 z"
           id="text9"
           aria-label="中山" />
        <path
           style="font-weight:500;font-size:5.82083px;line-height:1.25;font-family:'Noto Sans KR';-inkscape-font-specification:'Noto Sans KR Medium';stroke-width:0.264583"
           d="m 86.934126,37.913975 h 0.611188 v 0.937154 h -0.611188 z m -2.095498,-0.203729 h 4.808005 v 0.48895 h -4.808005 z m 2.392361,0.960437 q 0.861483,0 1.344611,0.250295 0.48895,0.244475 0.48895,0.6985 0,0.454025 -0.48895,0.6985 -0.483128,0.244474 -1.344611,0.244474 -0.855662,0 -1.344612,-0.244474 -0.483129,-0.244475 -0.483129,-0.6985 0,-0.454025 0.483129,-0.6985 0.48895,-0.250295 1.344612,-0.250295 z m 0,0.471487 q -0.384175,0 -0.657754,0.05821 -0.273579,0.05239 -0.4191,0.157163 -0.1397,0.104775 -0.1397,0.261937 0,0.157162 0.1397,0.267758 0.145521,0.104775 0.4191,0.157163 0.273579,0.05239 0.657754,0.05239 0.395816,0 0.663574,-0.05239 0.273579,-0.05239 0.413279,-0.157163 0.1397,-0.110596 0.1397,-0.267758 0,-0.157162 -0.1397,-0.261937 -0.1397,-0.104775 -0.413279,-0.157163 -0.267758,-0.05821 -0.663574,-0.05821 z m -0.395817,-3.422648 h 0.541337 v 0.145521 q 0,0.250295 -0.09895,0.471487 -0.09895,0.215371 -0.28522,0.401637 -0.186267,0.180446 -0.442383,0.325967 -0.256117,0.14552 -0.576263,0.238654 -0.314324,0.09313 -0.681037,0.133879 l -0.21537,-0.477308 q 0.314324,-0.0291 0.582083,-0.09895 0.273579,-0.07567 0.488949,-0.180446 0.215371,-0.104775 0.366713,-0.232833 0.151341,-0.133879 0.232833,-0.2794 0.08731,-0.151342 0.08731,-0.302683 z m 0.273579,0 h 0.541337 v 0.145521 q 0,0.157162 0.08149,0.308504 0.08149,0.145521 0.232833,0.273579 0.151342,0.128058 0.366713,0.232833 0.221191,0.104775 0.488949,0.180446 0.273579,0.06985 0.587904,0.09895 l -0.215371,0.477308 q -0.366712,-0.04075 -0.686858,-0.133879 -0.314324,-0.09313 -0.576262,-0.232833 -0.256116,-0.145521 -0.442383,-0.325967 -0.180446,-0.186266 -0.2794,-0.407458 -0.09895,-0.227012 -0.09895,-0.471487 z M 85.27519,35.486689 h 3.934881 v 0.483129 H 85.27519 Z m 6.175901,0.08731 h 0.500591 v 0.617008 q 0,0.523875 -0.174625,0.9779 -0.168804,0.448204 -0.500591,0.779991 -0.331787,0.331787 -0.803274,0.506412 l -0.331788,-0.477308 q 0.430742,-0.145521 0.721783,-0.413279 0.291042,-0.273579 0.436562,-0.62865 0.151342,-0.35507 0.151342,-0.745066 z m 0.116417,0 h 0.49477 v 0.634471 q 0,0.261937 0.08149,0.512233 0.08731,0.250295 0.244475,0.471487 0.162983,0.221192 0.395816,0.389996 0.238654,0.168804 0.547158,0.273579 l -0.308504,0.483128 q -0.465666,-0.168804 -0.791633,-0.483128 -0.325966,-0.314325 -0.49477,-0.739246 -0.168804,-0.430741 -0.168804,-0.908049 z m 2.171169,-0.325966 h 0.605366 v 3.911597 h -0.605366 z m 0.424921,1.594907 h 0.931332 v 0.506412 h -0.931332 z m -3.172353,3.125786 h 3.568169 v 0.49477 h -3.568169 z m 0,-1.181629 h 0.611187 v 1.437745 h -0.611187 z"
           id="text9-3"
           aria-label="중산" />
      </g>
    </g>
  </g>
</svg>
