<?xml version="1.0" encoding="UTF-8" standalone="no"?>
<!-- Created with Inkscape (http://www.inkscape.org/) -->

<svg
   width="500"
   height="250"
   viewBox="0 0 132.29166 66.145833"
   version="1.1"
   id="svg1"
   inkscape:version="1.3.2 (091e20e, 2023-11-25, custom)"
   sodipodi:docname="g15.svg"
   xmlns:inkscape="http://www.inkscape.org/namespaces/inkscape"
   xmlns:sodipodi="http://sodipodi.sourceforge.net/DTD/sodipodi-0.dtd"
   xmlns="http://www.w3.org/2000/svg"
   xmlns:svg="http://www.w3.org/2000/svg">
  <sodipodi:namedview
     id="namedview1"
     pagecolor="#9e652e"
     bordercolor="#ffffff"
     borderopacity="1"
     inkscape:showpageshadow="0"
     inkscape:pageopacity="0"
     inkscape:pagecheckerboard="false"
     inkscape:deskcolor="#d1d1d1"
     inkscape:document-units="mm"
     inkscape:zoom="2.0208096"
     inkscape:cx="376.58174"
     inkscape:cy="106.88785"
     inkscape:window-width="1920"
     inkscape:window-height="1009"
     inkscape:window-x="1912"
     inkscape:window-y="-8"
     inkscape:window-maximized="1"
     inkscape:current-layer="layer1" />
  <defs
     id="defs1">
    <rect
       x="560.66638"
       y="34.144731"
       width="279.32397"
       height="128.59143"
       id="rect6" />
    <rect
       x="157.85752"
       y="62.351248"
       width="329.07603"
       height="135.09437"
       id="rect4" />
    <rect
       x="157.85751"
       y="62.35125"
       width="329.07602"
       height="135.09438"
       id="rect4-5" />
  </defs>
  <g
     inkscape:label="Layer 1"
     inkscape:groupmode="layer"
     id="layer1">
    <path
       id="rect5"
       style="fill:#f4eed7;stroke-width:0.953294"
       d="M -2.5431316e-6,-1.2715658e-6 H 132.29167 V 66.145835 H -2.5431316e-6 Z" />
    <text
       xml:space="preserve"
       transform="matrix(0.31615295,0,0,0.31615295,-10.474341,-6.4462013)"
       id="text6"
       style="font-size:55px;line-height:1.25;font-family:'Microsoft JhengHei';-inkscape-font-specification:'Microsoft JhengHei';white-space:pre;shape-inside:url(#rect6);display:inline" />
    <g
       id="g5">
      <path
         style="font-weight:500;font-size:72px;line-height:1.25;font-family:'Noto Sans TC';-inkscape-font-specification:'Noto Sans TC Medium';white-space:pre;fill:#000000;stroke-width:0.261668"
         d="m 41.154656,19.338507 h 6.594024 v 1.676766 h -6.594024 z m 2.67529,-3.862214 h 1.620246 v 17.464745 h -1.620246 z m -0.03768,5.011459 1.017363,0.395641 q -0.22608,1.168084 -0.546362,2.39269 -0.320281,1.224604 -0.734762,2.411529 -0.395642,1.168084 -0.866643,2.185448 -0.452162,0.998523 -0.960844,1.714446 -0.07536,-0.244921 -0.226081,-0.565202 -0.15072,-0.320281 -0.339121,-0.640562 -0.169561,-0.320282 -0.320281,-0.546362 0.471001,-0.602883 0.923163,-1.450686 0.452162,-0.866643 0.847803,-1.865167 0.395642,-0.998523 0.697083,-2.015887 0.320281,-1.036205 0.508682,-2.015888 z m 1.563725,1.205764 q 0.169561,0.207241 0.508682,0.697084 0.357962,0.471001 0.734763,1.055043 0.395641,0.565203 0.734763,1.055044 0.339121,0.471002 0.471001,0.697083 l -1.073883,1.243444 Q 46.580596,26.064413 46.297995,25.499211 46.015394,24.934009 45.676273,24.331127 45.355991,23.728244 45.03571,23.200723 44.734269,22.673201 44.545868,22.352919 Z m 3.033252,10.51276 q -0.03768,-0.169561 -0.150721,-0.489842 -0.0942,-0.301441 -0.207241,-0.621722 -0.11304,-0.339122 -0.226081,-0.565202 0.320282,-0.0942 0.602883,-0.508682 0.282601,-0.414482 0.621722,-1.092724 0.188401,-0.339122 0.508682,-1.073884 0.339121,-0.734763 0.715922,-1.752127 0.395642,-1.017364 0.791283,-2.166608 0.395642,-1.149244 0.678243,-2.317329 l 1.808647,0.471001 q -0.508682,1.657928 -1.149245,3.297014 -0.640562,1.639086 -1.337645,3.127451 -0.678242,1.469526 -1.394165,2.69413 v 0.01884 q 0,0 -0.1884,0.113041 -0.188401,0.0942 -0.452162,0.24492 -0.244921,0.169561 -0.433322,0.339122 -0.1884,0.16956 -0.1884,0.282601 z m 0,0 -0.05652,-1.413005 0.942004,-0.621723 7.291107,-0.847803 q 0.01884,0.357961 0.0942,0.810123 0.0942,0.452162 0.169561,0.734763 -2.091248,0.263761 -3.504253,0.471002 -1.413005,0.1884 -2.317329,0.301441 -0.885483,0.13188 -1.394165,0.22608 -0.508682,0.113041 -0.791283,0.188401 -0.263761,0.07536 -0.433321,0.150721 z m 5.689701,-5.538981 1.526045,-0.621722 q 0.471002,0.923163 0.960844,2.015887 0.508682,1.073884 0.942003,2.072408 0.452162,0.998524 0.715923,1.733286 l -1.639086,0.772443 Q 56.339752,31.867154 55.90643,30.849791 55.491949,29.813587 55.002107,28.720863 54.531105,27.609299 54.078944,26.667295 Z m -3.937575,-10.5316 1.676766,0.320282 q -0.263761,1.563725 -0.697082,3.070931 -0.414482,1.507206 -0.960844,2.826011 -0.546362,1.299965 -1.262285,2.298489 -0.0942,-0.169561 -0.320281,-0.433322 -0.20724,-0.263761 -0.452161,-0.527522 -0.244921,-0.282601 -0.433322,-0.433321 0.621722,-0.847803 1.092724,-1.978209 0.471002,-1.149244 0.791283,-2.449209 0.339121,-1.318804 0.565202,-2.69413 z m 3.391213,-0.15072 h 1.846326 q 0.263761,1.375325 0.678243,2.75065 0.433321,1.375325 0.998524,2.543409 0.565202,1.149246 1.205764,1.940529 -0.188401,0.15072 -0.452162,0.395641 -0.244921,0.244921 -0.489841,0.527522 -0.226081,0.263761 -0.376802,0.471002 -0.697082,-0.942004 -1.281125,-2.204288 -0.584042,-1.281126 -1.036203,-2.694131 -0.433322,-1.431846 -0.715923,-2.844851 h -0.376801 z m -1.168085,0 h 2.67529 v 1.526046 h -2.67529 z m 8.572232,0.998524 1.036204,-1.243445 q 0.546362,0.282601 1.186924,0.659402 0.659402,0.376802 1.262285,0.753603 0.602882,0.376802 0.979683,0.659403 l -1.092724,1.413005 Q 63.95114,18.905186 63.367098,18.509544 62.783056,18.113903 62.142493,17.718261 61.501931,17.30378 60.936729,16.983499 Z m -1.055044,5.19986 0.979684,-1.318806 q 0.546362,0.244921 1.205764,0.584042 0.659402,0.339121 1.281125,0.678244 0.621722,0.339121 1.017363,0.621722 l -0.998523,1.488365 Q 62.990296,23.935485 62.387414,23.577524 61.784532,23.219563 61.12513,22.842761 60.465727,22.46596 59.881685,22.183359 Z m 0.640562,9.344674 q 0.508682,-0.715922 1.130404,-1.714446 0.621723,-0.998524 1.262285,-2.110088 0.640562,-1.130404 1.186924,-2.204288 l 1.299965,1.186924 q -0.489842,0.979684 -1.073884,2.053568 -0.565202,1.055044 -1.149244,2.072408 -0.584042,1.017363 -1.168084,1.921687 z m 5.595501,-14.374974 h 10.211317 v 1.789807 H 66.117748 Z m -0.942004,12.830089 h 12.133005 v 1.789806 H 65.175744 Z m 4.936099,-12.227207 h 1.940527 v 13.26341 h -1.940527 z m 8.967873,-0.546362 h 16.654621 v 1.676767 H 79.079716 Z m 3.994094,7.79979 h 8.704112 v 1.413005 H 83.07381 Z m -0.395641,3.033251 h 9.476555 v 1.469526 h -9.476555 z m 3.824534,-2.336168 h 1.695606 v 6.820105 h -1.695606 z m -6.537504,-5.08682 h 13.64021 v 1.657927 H 81.755005 v 10.644639 h -1.789806 z m 13.093848,0 h 1.808647 v 10.399719 q 0,0.715923 -0.188401,1.092724 -0.188401,0.376802 -0.715923,0.565202 -0.508681,0.188401 -1.337645,0.226081 -0.810123,0.03768 -1.959367,0.03768 -0.05652,-0.339121 -0.244921,-0.791282 -0.16956,-0.433322 -0.357961,-0.753603 0.546362,0.01884 1.055044,0.01884 0.527522,0.01884 0.942003,0 0.414482,0 0.565202,0 0.263761,0 0.339122,-0.07536 0.0942,-0.0942 0.0942,-0.320282 z m -9.118593,2.223129 1.413005,-0.433321 q 0.357961,0.489841 0.678242,1.092724 0.320281,0.602882 0.471002,1.055044 l -1.507206,0.527521 q -0.11304,-0.471001 -0.433321,-1.092724 -0.301441,-0.640562 -0.621722,-1.149244 z m 5.55782,-0.433321 1.507206,0.452161 q -0.357962,0.697083 -0.753603,1.394165 -0.395642,0.697083 -0.753603,1.186925 l -1.281125,-0.395642 q 0.226081,-0.357961 0.452162,-0.828963 0.244921,-0.471001 0.452162,-0.942003 0.22608,-0.471002 0.376801,-0.866643 z m -3.052091,-6.876627 h 1.959367 v 6.236063 h -1.959367 z m 11.530122,2.185448 h 16.541585 v 1.752127 H 97.976305 Z m 4.012935,4.578138 v 2.59993 h 8.55339 v -2.59993 z m -1.77097,-1.544887 h 12.20837 v 5.689702 h -12.20837 z m 9.36352,7.64907 1.45068,-0.904324 q 0.58405,0.602883 1.24345,1.318805 0.6594,0.715923 1.24344,1.413005 0.60288,0.678243 0.96085,1.224605 l -1.56373,1.055044 q -0.32028,-0.546362 -0.88548,-1.262285 -0.56521,-0.715922 -1.20577,-1.469525 -0.64056,-0.753603 -1.24344,-1.375325 z m -4.20134,-2.468049 h 1.88401 v 5.086818 q 0,0.734763 -0.20724,1.130405 -0.1884,0.395641 -0.73476,0.584042 -0.54637,0.1884 -1.39417,0.22608 -0.8478,0.05652 -2.05357,0.03768 -0.0565,-0.376802 -0.22608,-0.866644 -0.16956,-0.471001 -0.35796,-0.847803 0.58404,0.01884 1.13041,0.03768 0.54636,0 0.96084,0 0.41448,0 0.58404,0 0.24492,-0.01884 0.32028,-0.07536 0.0942,-0.07536 0.0942,-0.263761 z m -4.33321,1.601406 1.73328,0.621722 q -0.73476,1.130404 -1.77096,2.298488 -1.017367,1.149244 -1.997051,1.997048 -0.244921,-0.263761 -0.640562,-0.602883 -0.376802,-0.320281 -0.659403,-0.527522 0.621722,-0.489841 1.243445,-1.130404 0.621722,-0.659402 1.168081,-1.356485 0.56521,-0.697082 0.92317,-1.299964 z m 3.50425,-11.662004 1.73329,-0.565203 q 0.39564,0.621723 0.81012,1.375326 0.43332,0.734762 0.6594,1.262284 l -1.84633,0.659403 q -0.1884,-0.546362 -0.58404,-1.318805 -0.39564,-0.772443 -0.77244,-1.413005 z"
         id="text4"
         aria-label="松江南京" />
      <path
         style="font-size:7.32669px;line-height:1.25;font-family:'AR UDJingXiHeiE1G30 EB';-inkscape-font-specification:'AR UDJingXiHeiE1G30 EB';fill:#000000;stroke-width:0.261667"
         d="M 43.282529,38.490591 Q 42.315406,38.31475 41.846498,37.948416 41.37759,37.582081 41.37759,36.922679 q 0,-0.615442 0.498215,-1.01841 0.505542,-0.402968 1.553258,-0.402968 0.959797,0 1.487318,0.410295 0.527522,0.410295 0.578809,1.186924 H 44.5647 q -0.0073,-0.373661 -0.293067,-0.622769 -0.285741,-0.249107 -0.871876,-0.249107 -0.549502,0 -0.813263,0.183167 -0.263761,0.183167 -0.256434,0.512868 0,0.359008 0.351681,0.534849 0.359008,0.17584 1.164944,0.337027 1.011083,0.205148 1.436031,0.556829 0.432275,0.351681 0.432275,1.055043 0,0.674056 -0.571482,1.128311 -0.571482,0.446928 -1.626525,0.446928 -1.077024,0 -1.677812,-0.454255 -0.600789,-0.454255 -0.600789,-1.311478 h 0.93049 q 0,0.476235 0.359007,0.761976 0.359008,0.278414 0.99643,0.278414 0.586135,0 0.915837,-0.227127 0.329701,-0.227127 0.329701,-0.593462 0,-0.424948 -0.329701,-0.608115 -0.329702,-0.183167 -1.157618,-0.337028 z m 8.396387,-0.227127 q 0,1.274844 -0.710689,2.000186 -0.703362,0.718016 -1.926919,0.718016 -1.245538,0 -1.9489,-0.725343 -0.703362,-0.725342 -0.703362,-1.992859 0,-1.289498 0.710689,-2.022167 0.710689,-0.739996 1.941573,-0.739996 1.245537,0 1.941573,0.732669 0.696035,0.732669 0.696035,2.029494 z m -2.637608,1.992859 q 0.798609,0 1.230884,-0.527521 0.439601,-0.527522 0.439601,-1.465338 0,-0.93049 -0.439601,-1.479992 -0.439602,-0.556828 -1.230884,-0.556828 -0.805936,0 -1.252864,0.564155 -0.439602,0.556828 -0.439602,1.472665 0,0.937816 0.446928,1.465338 0.446929,0.527521 1.245538,0.527521 z m 4.579182,-3.194437 v 3.824533 H 52.69 v -5.297197 h 0.959797 l 2.600975,3.912452 v -3.912452 h 0.930489 v 5.297197 h -1.01841 z m 8.66747,3.179784 q -0.271088,0.380988 -0.681382,0.564155 -0.402968,0.175841 -0.923163,0.175841 -1.142964,0 -1.817019,-0.718016 -0.674056,-0.725342 -0.674056,-2.022166 0,-1.304151 0.710689,-2.022167 0.710689,-0.718016 1.919593,-0.718016 0.97445,0 1.582565,0.446929 0.615442,0.439601 0.739996,1.26019 h -0.93049 q -0.07327,-0.432274 -0.432275,-0.703362 -0.351681,-0.278414 -0.959796,-0.278414 -0.813263,0 -1.238211,0.527521 -0.424948,0.520195 -0.424948,1.487319 0,1.033063 0.446928,1.523951 0.446928,0.483562 1.216231,0.483562 0.674055,0 1.069697,-0.395642 0.395641,-0.395641 0.395641,-0.908509 v -0.109901 h -1.501972 v -0.725342 h 2.395828 v 2.776816 H 62.28796 Z m 2.637604,-0.710689 q 0,0.337028 0.168513,0.527522 0.168514,0.190494 0.542176,0.190494 0.366334,0.0073 0.556828,-0.197821 0.190494,-0.212474 0.190494,-0.600789 v -3.861165 h 0.923163 v 3.941759 q 0,0.666729 -0.439602,1.06237 -0.432274,0.388315 -1.23821,0.388315 -0.783956,0 -1.208904,-0.380988 -0.424948,-0.388315 -0.424948,-0.989103 v -0.468909 h 0.93049 z m 4.491257,-3.941759 v 5.297197 h -0.930489 v -5.297197 z m 4.037002,3.157803 -0.835243,-2.263947 -0.849896,2.263947 z m -1.956227,0.725343 -0.527521,1.414051 h -0.945143 l 2.132066,-5.297197 h 0.95247 l 2.117414,5.297197 H 74.259758 L 73.72491,39.472368 Z m 5.267885,-2.410482 v 3.824533 h -0.93049 v -5.297197 h 0.959797 l 2.600975,3.912452 v -3.912452 h 0.930489 v 5.297197 h -1.01841 z m 8.667468,3.179784 q -0.271088,0.380988 -0.681382,0.564155 -0.402968,0.175841 -0.923163,0.175841 -1.142964,0 -1.817019,-0.718016 -0.674056,-0.725342 -0.674056,-2.022166 0,-1.304151 0.710689,-2.022167 0.710689,-0.718016 1.919593,-0.718016 0.97445,0 1.582565,0.446929 0.615442,0.439601 0.739996,1.26019 h -0.93049 q -0.07327,-0.432274 -0.432275,-0.703362 -0.351681,-0.278414 -0.959796,-0.278414 -0.813263,0 -1.238211,0.527521 -0.424948,0.520195 -0.424948,1.487319 0,1.033063 0.446928,1.523951 0.446928,0.483562 1.216231,0.483562 0.674055,0 1.069697,-0.395642 0.395641,-0.395641 0.395641,-0.908509 v -0.109901 h -1.501972 v -0.725342 h 2.395828 v 2.776816 h -0.893856 z m 4.842931,-3.179784 v 3.824533 h -0.93049 v -5.297197 h 0.959796 l 2.600975,3.912452 v -3.912452 h 0.93049 v 5.297197 h -1.01841 z m 7.597775,1.685139 -0.835243,-2.263947 -0.849896,2.263947 z m -1.956227,0.725343 -0.527521,1.414051 h -0.945143 l 2.132067,-5.297197 H 97.5293 l 2.117414,5.297197 h -0.967123 l -0.534849,-1.414051 z m 5.267892,-2.410482 v 3.824533 h -0.9305 v -5.297197 h 0.9598 l 2.60098,3.912452 v -3.912452 h 0.93049 v 5.297197 h -1.01841 z m 5.42174,2.469095 q 0,0.337028 0.16852,0.527522 0.16851,0.190494 0.54217,0.190494 0.36634,0.0073 0.55683,-0.197821 0.19049,-0.212474 0.19049,-0.600789 v -3.861165 h 0.92317 v 3.941759 q 0,0.666729 -0.4396,1.06237 -0.43228,0.388315 -1.23821,0.388315 -0.78396,0 -1.20891,-0.380988 -0.42495,-0.388315 -0.42495,-0.989103 v -0.468909 h 0.93049 z m 4.49126,-3.941759 v 5.297197 h -0.93049 v -5.297197 z m 2.14671,1.472664 v 3.824533 h -0.93049 v -5.297197 h 0.9598 l 2.60097,3.912452 v -3.912452 h 0.93049 v 5.297197 h -1.01841 z m 8.66747,3.179784 q -0.27109,0.380988 -0.68138,0.564155 -0.40297,0.175841 -0.92316,0.175841 -1.14297,0 -1.81702,-0.718016 -0.67406,-0.725342 -0.67406,-2.022166 0,-1.304151 0.71069,-2.022167 0.71069,-0.718016 1.91959,-0.718016 0.97445,0 1.58257,0.446929 0.61544,0.439601 0.74,1.26019 h -0.93049 q -0.0733,-0.432274 -0.43228,-0.703362 -0.35168,-0.278414 -0.9598,-0.278414 -0.81326,0 -1.23821,0.527521 -0.42494,0.520195 -0.42494,1.487319 0,1.033063 0.44692,1.523951 0.44693,0.483562 1.21623,0.483562 0.67406,0 1.0697,-0.395642 0.39564,-0.395641 0.39564,-0.908509 v -0.109901 h -1.50197 v -0.725342 h 2.39583 v 2.776816 h -0.89386 z"
         id="text5"
         aria-label="SONGJIANG NANJING" />
      <path
         d="m 45.255803,46.252806 0.791283,0.190494 q -0.124554,0.388314 -0.278414,0.813263 -0.146534,0.417621 -0.307721,0.835242 -0.153861,0.417622 -0.315048,0.798609 -0.15386,0.373662 -0.300394,0.674056 l -0.593462,-0.190494 q 0.13188,-0.307721 0.278414,-0.696036 0.146534,-0.395641 0.278414,-0.813262 0.139207,-0.424948 0.249108,-0.835243 0.1099,-0.410295 0.19782,-0.776629 z m -1.685138,2.981963 q 0.461581,-0.02198 1.069697,-0.05129 0.615441,-0.02931 1.30415,-0.07327 0.696036,-0.04396 1.384745,-0.08059 l -0.0073,0.637422 q -0.644749,0.05129 -1.304151,0.102573 -0.652075,0.05129 -1.252864,0.09525 -0.593462,0.04396 -1.077023,0.07327 z m 2.578995,-1.355438 0.593462,-0.285741 q 0.234454,0.359008 0.468908,0.776629 0.234454,0.410295 0.424948,0.813263 0.19782,0.395641 0.300394,0.703362 l -0.652075,0.337028 Q 47.197376,49.916151 47.014209,49.513183 46.831042,49.102888 46.603914,48.67794 46.376787,48.252992 46.14966,47.879331 Z m -1.443358,-4.31542 0.718015,0.146533 q -0.13188,0.586136 -0.329701,1.150291 -0.19782,0.556828 -0.439601,1.04039 -0.241781,0.483561 -0.520195,0.857223 -0.05861,-0.06594 -0.168514,-0.153861 -0.1099,-0.08792 -0.227127,-0.168514 -0.109901,-0.08792 -0.197821,-0.139207 0.271088,-0.322374 0.490888,-0.754649 0.227128,-0.439601 0.395641,-0.945143 0.175841,-0.505542 0.278415,-1.033063 z m 2.029493,-0.02198 q 0.13188,0.468908 0.322374,0.959796 0.197821,0.483562 0.424948,0.915836 0.234454,0.424948 0.461582,0.732669 -0.08792,0.05861 -0.197821,0.161187 -0.102574,0.09525 -0.205147,0.205148 -0.09525,0.102573 -0.168514,0.19782 -0.241781,-0.359007 -0.476235,-0.849896 -0.234454,-0.490888 -0.439601,-1.04039 -0.197821,-0.556828 -0.344355,-1.08435 z m -5.590265,1.414051 h 2.593649 v 0.644749 H 41.14553 Z m 1.04039,-1.545932 h 0.659402 v 6.791842 H 42.18592 Z m -0.02198,1.97088 0.417622,0.146534 q -0.08792,0.439601 -0.219801,0.915836 -0.131881,0.468908 -0.300394,0.923163 -0.168514,0.454255 -0.359008,0.842569 -0.190494,0.388315 -0.395642,0.674056 -0.05129,-0.146534 -0.161187,-0.329701 -0.102573,-0.183168 -0.183167,-0.307721 0.190494,-0.241781 0.366335,-0.571482 0.183167,-0.337028 0.344354,-0.725342 0.161187,-0.388315 0.285741,-0.783956 0.124554,-0.402968 0.205147,-0.783956 z m 0.644749,0.718015 q 0.07327,0.07327 0.212474,0.256435 0.146534,0.183167 0.315048,0.402968 0.168514,0.212474 0.300394,0.402968 0.139207,0.183167 0.197821,0.26376 l -0.410295,0.534849 q -0.06594,-0.146534 -0.190494,-0.359008 -0.124554,-0.219801 -0.263761,-0.446928 -0.139207,-0.227128 -0.271087,-0.424948 -0.124554,-0.197821 -0.212474,-0.322375 z m 6.000559,-2.10276 0.402968,-0.483561 q 0.212474,0.1099 0.461582,0.256434 0.256434,0.146534 0.490888,0.293068 0.234454,0.146533 0.380988,0.256434 l -0.424948,0.549502 q -0.139207,-0.124554 -0.366335,-0.278415 -0.227127,-0.15386 -0.476235,-0.307721 -0.249107,-0.161187 -0.468908,-0.285741 z m -0.410294,2.022167 0.380987,-0.512868 q 0.212474,0.09525 0.468909,0.227127 0.256434,0.13188 0.498215,0.263761 0.24178,0.13188 0.395641,0.241781 l -0.388315,0.578808 Q 49.607857,46.699734 49.373403,46.560527 49.138949,46.42132 48.882515,46.274786 48.626081,46.128252 48.398954,46.018352 Z m 0.249107,3.634038 q 0.197821,-0.278414 0.439601,-0.666729 0.241781,-0.388314 0.490889,-0.820589 0.249107,-0.439601 0.461581,-0.857223 l 0.505542,0.461582 q -0.190494,0.380988 -0.417622,0.798609 -0.2198,0.410295 -0.446928,0.805936 -0.227127,0.395641 -0.454254,0.747322 z m 2.176027,-5.590264 h 3.971066 v 0.696035 h -3.971066 z m -0.366334,4.989476 h 4.718388 v 0.696035 h -4.718388 z m 1.919592,-4.755022 h 0.754649 v 5.15799 h -0.754649 z m 3.487505,-0.212474 h 6.476794 v 0.652075 h -6.476794 z m 1.553258,3.033249 h 3.384931 v 0.549502 h -3.384931 z m -0.15386,1.179598 h 3.685325 v 0.571481 h -3.685325 z m 1.487318,-0.90851 h 0.659402 v 2.652262 h -0.659402 z m -2.542362,-1.978206 h 5.304524 v 0.644748 h -4.608488 v 4.13958 h -0.696036 z m 5.09205,0 h 0.703362 v 4.044333 q 0,0.278414 -0.07327,0.424948 -0.07327,0.146533 -0.278414,0.2198 -0.19782,0.07327 -0.520195,0.08792 -0.315048,0.01465 -0.761976,0.01465 -0.02198,-0.13188 -0.09525,-0.307721 -0.06594,-0.168514 -0.139207,-0.293068 0.212474,0.0073 0.410295,0.0073 0.205147,0.0073 0.366334,0 0.161188,0 0.219801,0 0.102574,0 0.131881,-0.02931 0.03663,-0.03663 0.03663,-0.124553 z m -3.546118,0.864549 0.549502,-0.168514 q 0.139207,0.190494 0.263761,0.424948 0.124553,0.234454 0.183167,0.410295 l -0.586135,0.205147 q -0.04396,-0.183167 -0.168514,-0.424948 -0.117227,-0.249107 -0.241781,-0.446928 z m 2.161374,-0.168514 0.586135,0.175841 q -0.139207,0.271087 -0.293068,0.542175 -0.15386,0.271087 -0.293067,0.461581 l -0.498215,-0.15386 q 0.08792,-0.139207 0.17584,-0.322375 0.09525,-0.183167 0.175841,-0.366334 0.08792,-0.183167 0.146534,-0.337028 z M 58.729587,43.43203 h 0.761976 v 2.425135 h -0.761976 z m 4.483934,0.761976 h 6.432834 v 0.666729 h -6.432834 z m 2.828102,-0.791283 h 0.739996 v 1.128311 h -0.739996 z m -1.267517,2.659589 v 1.047717 h 3.326317 v -1.047717 z m -0.688709,-0.600789 h 4.747695 v 2.256621 h -4.747695 z m 3.656018,2.92335 0.630096,-0.307721 q 0.24178,0.241781 0.498215,0.527522 0.26376,0.278414 0.498214,0.556828 0.234455,0.271088 0.380988,0.490888 l -0.681382,0.351681 q -0.124554,-0.2198 -0.351681,-0.498215 -0.219801,-0.28574 -0.476235,-0.578808 -0.256434,-0.300394 -0.498215,-0.542175 z M 66.056276,47.46171 h 0.725343 v 1.985533 q 0,0.278414 -0.07327,0.432275 -0.07327,0.15386 -0.293068,0.227127 -0.212474,0.07327 -0.542175,0.08792 -0.322374,0.01465 -0.791282,0.01465 -0.02198,-0.146534 -0.08792,-0.329701 -0.06594,-0.183168 -0.139207,-0.329701 0.227128,0.0073 0.439602,0.01465 0.212474,0 0.373661,0 0.161187,-0.0073 0.219801,-0.0073 0.102573,0 0.13188,-0.02198 0.03663,-0.02931 0.03663,-0.102573 z m -1.707118,0.615442 0.703362,0.227127 q -0.175841,0.285741 -0.417621,0.593462 -0.234455,0.300394 -0.498215,0.571482 -0.263761,0.263761 -0.527522,0.476235 -0.1099,-0.102574 -0.278414,-0.219801 -0.161187,-0.117227 -0.285741,-0.190494 0.263761,-0.183167 0.512868,-0.424948 0.249108,-0.249107 0.454255,-0.520195 0.205147,-0.271087 0.337028,-0.512868 z"
         id="text5-9"
         style="font-weight:500;font-size:7.32669px;line-height:1.25;font-family:'Noto Sans JP';-inkscape-font-specification:'Noto Sans JP Medium';fill:#000000;stroke-width:0.261667"
         aria-label="松江南京" />
      <path
         style="font-weight:500;font-size:7.32669px;line-height:1.25;font-family:'Noto Sans KR';-inkscape-font-specification:'Noto Sans KR Medium';fill:#000000;stroke-width:0.261667"
         d="m 79.183373,45.944041 h 0.761976 v 1.230884 h -0.761976 z m -0.01465,-2.241968 h 0.666729 v 0.256435 q 0,0.359007 -0.131881,0.688708 -0.13188,0.322375 -0.373661,0.600789 -0.241781,0.271088 -0.571482,0.483562 -0.329701,0.212474 -0.732669,0.366334 -0.402968,0.146534 -0.857223,0.219801 l -0.29307,-0.608115 q 0.402968,-0.05129 0.754649,-0.168514 0.351681,-0.117227 0.630095,-0.285741 0.285741,-0.168514 0.490888,-0.373661 0.205148,-0.205148 0.307721,-0.439602 0.109901,-0.241781 0.109901,-0.483561 z m 0.124554,0 h 0.659399 v 0.256435 q 0,0.249107 0.1099,0.483561 0.1099,0.234454 0.307721,0.446928 0.205147,0.205148 0.490888,0.373661 0.285741,0.168514 0.630096,0.285741 0.351681,0.109901 0.754649,0.161188 l -0.285741,0.608115 q -0.454255,-0.07327 -0.857223,-0.219801 -0.402968,-0.15386 -0.739996,-0.366334 -0.329701,-0.212474 -0.571482,-0.483562 -0.234454,-0.271087 -0.366334,-0.593462 -0.13188,-0.329701 -0.13188,-0.696035 z m -2.747509,3.150477 h 6.051846 v 0.615442 h -6.051846 z m 3.011269,1.077024 q 1.084351,0 1.692466,0.307721 0.615442,0.307721 0.615442,0.871876 0,0.564155 -0.615442,0.864549 -0.608115,0.300395 -1.692466,0.300395 -1.077023,0 -1.692465,-0.300395 -0.608115,-0.300394 -0.608115,-0.864549 0,-0.564155 0.608115,-0.871876 0.615442,-0.307721 1.692465,-0.307721 z m 0,0.586135 q -0.739995,0 -1.135637,0.15386 -0.395641,0.146534 -0.395641,0.439602 0,0.293067 0.395641,0.439601 0.395642,0.146534 1.135637,0.146534 0.739996,0 1.135637,-0.146534 0.395642,-0.146534 0.395642,-0.439601 0,-0.293068 -0.395642,-0.439602 -0.395641,-0.15386 -1.135637,-0.15386 z m 5.304525,-4.198194 h 0.630095 v 0.490889 q 0,0.622768 -0.2198,1.17227 -0.219801,0.549502 -0.637423,0.959796 -0.417621,0.402968 -1.018409,0.615442 L 83.22771,46.947797 q 0.527522,-0.183167 0.893856,-0.512868 0.366335,-0.329701 0.549502,-0.747323 0.190494,-0.424948 0.190494,-0.879202 z m 0.15386,0 h 0.622769 v 0.490889 q 0,0.410294 0.183167,0.791282 0.183168,0.380988 0.534849,0.681382 0.351681,0.293068 0.857222,0.454255 l -0.366334,0.600789 q -0.593462,-0.190494 -1.003757,-0.564155 -0.402968,-0.373662 -0.615442,-0.879203 -0.212474,-0.512869 -0.212474,-1.08435 z m -1.575238,-0.256434 h 3.597405 v 0.622769 h -3.597405 z m 4.308094,-0.468908 h 0.761976 v 4.000373 h -0.761976 z m 0.556828,1.626525 h 1.150291 v 0.630096 h -1.150291 z m -1.948899,2.527708 q 0.688709,0 1.186923,0.153861 0.498215,0.146534 0.769303,0.432275 0.271087,0.278414 0.271087,0.674055 0,0.402968 -0.271087,0.681382 -0.271088,0.285741 -0.769303,0.432275 -0.498214,0.153861 -1.186923,0.153861 -0.688709,0 -1.194251,-0.153861 -0.498215,-0.146534 -0.769302,-0.432275 -0.263761,-0.278414 -0.263761,-0.681382 0,-0.395641 0.263761,-0.674055 0.271087,-0.285741 0.769302,-0.432275 0.505542,-0.153861 1.194251,-0.153861 z m 0,0.608116 q -0.461582,0 -0.791283,0.07327 -0.329701,0.07327 -0.505541,0.2198 -0.175841,0.146534 -0.175841,0.359008 0,0.219801 0.175841,0.373661 0.17584,0.146534 0.505541,0.227128 0.329701,0.07327 0.791283,0.07327 0.468908,0 0.791282,-0.07327 0.329701,-0.08059 0.505542,-0.227128 0.17584,-0.15386 0.17584,-0.373661 0,-0.212474 -0.17584,-0.359008 -0.175841,-0.146534 -0.505542,-0.2198 -0.322374,-0.07327 -0.791282,-0.07327 z m 6.022545,-4.300767 h 0.761976 v 2.813449 h -0.761976 z m 0,2.571668 h 0.542175 q 0.703362,0 1.450685,-0.05861 0.754649,-0.05861 1.567911,-0.2198 l 0.08792,0.622768 q -0.827916,0.168514 -1.604546,0.234454 -0.769302,0.05861 -1.501971,0.05861 h -0.542175 z m 4.16156,-3.03325 h 0.761976 v 4.828289 h -0.761976 z m 0.534848,1.934246 h 1.172271 v 0.652076 H 97.07516 Z m -3.993046,4.000373 h 4.447301 v 0.622769 h -4.447301 z m 0,-1.567912 h 0.769303 v 1.890286 h -0.769303 z m 10.484496,-4.366707 h 0.7693 v 4.0077 h -0.7693 z m -1.47267,4.154233 q 0.70337,0 1.20891,0.153861 0.50554,0.146534 0.78395,0.439601 0.27842,0.285741 0.27842,0.681383 0,0.410294 -0.27842,0.696035 -0.27841,0.285741 -0.78395,0.432275 -0.50554,0.15386 -1.20891,0.15386 -0.69603,0 -1.2089,-0.15386 -0.50554,-0.146534 -0.78396,-0.432275 -0.271083,-0.285741 -0.271083,-0.696035 0,-0.395642 0.271083,-0.681383 0.27842,-0.293067 0.78396,-0.439601 0.51287,-0.153861 1.2089,-0.153861 z m 0,0.600789 q -0.4689,0 -0.80593,0.08059 -0.33703,0.07327 -0.51287,0.227127 -0.17584,0.15386 -0.17584,0.366335 0,0.2198 0.17584,0.373661 0.17584,0.15386 0.51287,0.234454 0.33703,0.08059 0.80593,0.08059 0.48357,0 0.81327,-0.08059 0.33703,-0.08059 0.51287,-0.234454 0.17584,-0.153861 0.17584,-0.373661 0,-0.212475 -0.17584,-0.366335 -0.17584,-0.153861 -0.51287,-0.227127 -0.3297,-0.08059 -0.81327,-0.08059 z m -1.56058,-4.07364 h 0.6301 v 0.483562 q 0,0.622768 -0.22713,1.17227 -0.2198,0.549502 -0.63743,0.959797 -0.417617,0.402968 -1.018405,0.615442 l -0.395641,-0.600789 q 0.534848,-0.183167 0.893856,-0.512868 0.36633,-0.337028 0.55683,-0.754649 0.19782,-0.424948 0.19782,-0.879203 z m 0.15386,0 h 0.6301 v 0.483562 q 0,0.315047 0.10257,0.615442 0.1099,0.300394 0.32237,0.564155 0.21248,0.263761 0.51287,0.468908 0.30772,0.205147 0.69604,0.322374 l -0.38832,0.608116 q -0.58613,-0.197821 -1.01108,-0.578809 -0.41762,-0.380988 -0.64475,-0.893856 -0.2198,-0.520195 -0.2198,-1.10633 z m -1.604546,-0.19782 h 3.656016 v 0.615442 h -3.656016 z"
         id="text5-9-8"
         aria-label="송장 난징" />
      <g
         id="g4"
         transform="translate(0,4.0371715)">
        <g
           id="g2"
           transform="translate(49.855196,-11.500147)"
           style="fill:#000000">
          <g
             id="g3"
             transform="translate(-48.723021,7.4629742)">
            <path
               id="rect1-6"
               style="fill:none;fill-opacity:0;stroke:#000000;stroke-width:0.942789"
               d="m 15.91309,14.352791 h 12.425164 c 3.927062,0 7.088559,3.161497 7.088559,7.088559 v 23.263136 c 0,3.927062 -3.161497,7.088559 -7.088559,7.088559 H 15.91309 c -3.927061,0 -7.0885584,-3.161497 -7.0885584,-7.088559 V 21.44135 c 0,-3.927062 3.1614974,-7.088559 7.0885584,-7.088559 z" />
            <path
               style="font-size:12.8597px;line-height:1.25;font-family:'AR UDJingXiHeiE1G30 EB';-inkscape-font-specification:'AR UDJingXiHeiE1G30 EB';stroke-width:0.26791"
               d="m 24.659051,29.498786 q -0.475809,0.668704 -1.195952,0.990197 -0.707284,0.308633 -1.620322,0.308633 -2.006114,0 -3.189206,-1.260251 -1.183092,-1.27311 -1.183092,-3.549277 0,-2.289027 1.24739,-3.549278 1.247391,-1.26025 3.369242,-1.26025 1.71034,0 2.777695,0.784441 1.080215,0.771582 1.29883,2.211869 h -1.633182 q -0.128597,-0.758722 -0.758722,-1.234531 -0.617266,-0.488669 -1.684621,-0.488669 -1.427427,0 -2.173289,0.925898 -0.745863,0.913039 -0.745863,2.61052 0,1.813217 0.784442,2.674817 0.784441,0.84874 2.13471,0.84874 1.183092,0 1.877516,-0.694423 0.694424,-0.694424 0.694424,-1.594603 v -0.192896 h -2.636239 v -1.27311 h 4.205122 v 4.873826 h -1.568883 z"
               id="text2-4"
               aria-label="G" />
            <path
               style="font-size:14.3917px;line-height:1.25;font-family:'AR UDJingXiHeiE1G30 EB';-inkscape-font-specification:'AR UDJingXiHeiE1G30 EB';stroke-width:0.261667"
               d="m 17.21808,36.584172 -1.683829,1.568695 -0.834718,-1.280861 2.705639,-2.460981 h 1.568695 V 44.816224 H 17.21808 Z m 9.210678,2.590506 q -0.618843,0 -1.064986,0.230267 -0.446143,0.215876 -0.76276,0.662018 l -1.61187,-0.1727 0.777151,-5.483238 h 5.814247 v 1.424779 h -4.346293 l -0.402968,2.720031 q 0.359793,-0.402968 0.863502,-0.604452 0.518101,-0.215875 1.208903,-0.215875 1.482345,0 2.345847,0.964244 0.863502,0.964244 0.863502,2.633681 0,1.741396 -0.964244,2.70564 -0.964244,0.964243 -2.70564,0.964243 -1.712612,0 -2.676856,-0.84911 -0.964244,-0.84911 -0.993027,-2.28828 h 1.770179 q -0.01439,0.67641 0.460535,1.194511 0.474926,0.518101 1.395994,0.518101 0.877894,0 1.381604,-0.575668 0.518101,-0.59006 0.518101,-1.69822 0,-1.036203 -0.532493,-1.583087 -0.532493,-0.546885 -1.338428,-0.546885 z"
               id="text3-0"
               aria-label="15" />
          </g>
        </g>
      </g>
    </g>
  </g>
</svg>
