<?xml version="1.0" encoding="UTF-8" standalone="no"?>
<!-- Created with Inkscape (http://www.inkscape.org/) -->

<svg
   width="500"
   height="250"
   viewBox="0 0 132.29166 66.145833"
   version="1.1"
   id="svg1"
   inkscape:version="1.3.2 (091e20e, 2023-11-25, custom)"
   sodipodi:docname="g15.svg"
   xmlns:inkscape="http://www.inkscape.org/namespaces/inkscape"
   xmlns:sodipodi="http://sodipodi.sourceforge.net/DTD/sodipodi-0.dtd"
   xmlns="http://www.w3.org/2000/svg"
   xmlns:svg="http://www.w3.org/2000/svg">
  <sodipodi:namedview
     id="namedview1"
     pagecolor="#9e652e"
     bordercolor="#ffffff"
     borderopacity="1"
     inkscape:showpageshadow="0"
     inkscape:pageopacity="0"
     inkscape:pagecheckerboard="false"
     inkscape:deskcolor="#d1d1d1"
     inkscape:document-units="mm"
     inkscape:zoom="2.0208096"
     inkscape:cx="176.66187"
     inkscape:cy="144.49654"
     inkscape:window-width="1920"
     inkscape:window-height="1009"
     inkscape:window-x="1912"
     inkscape:window-y="-8"
     inkscape:window-maximized="1"
     inkscape:current-layer="layer1" />
  <defs
     id="defs1">
    <rect
       x="157.85752"
       y="62.351248"
       width="329.07603"
       height="135.09437"
       id="rect4" />
  </defs>
  <g
     inkscape:label="Layer 1"
     inkscape:groupmode="layer"
     id="layer1">
    <path
       id="rect5"
       style="fill:#f4eed7;stroke-width:0.953294"
       d="M -2.5431316e-6,-1.2715658e-6 H 132.29167 V 66.145835 H -2.5431316e-6 Z" />
    <g
       id="g5"
       transform="translate(-19.050006,10.054167)">
      <path
         id="rect6"
         style="fill:#f4eed7;stroke:#000000;stroke-width:0.575409"
         d="m 34.177494,16.558472 h 5.701048 c 1.810115,0 3.267355,1.45724 3.267355,3.267354 v 9.52472 c 0,1.810115 -1.45724,3.267355 -3.267355,3.267355 h -5.701048 c -1.810115,0 -3.267355,-1.45724 -3.267355,-3.267355 v -9.52472 c 0,-1.810114 1.45724,-3.267354 3.267355,-3.267354 z" />
      <path
         style="font-weight:bold;font-size:5.82083px;line-height:1.25;font-family:'Optima Bold';-inkscape-font-specification:'Optima Bold,  Bold';stroke-width:0.264583"
         d="m 34.9222,21.685171 q 0.02328,-0.459846 0.133879,-0.803275 0.116417,-0.343429 0.320146,-0.56462 0.203729,-0.221192 0.424921,-0.372533 0.227012,-0.151342 0.471487,-0.232834 0.128058,-0.04657 0.250295,-0.07567 0.128059,-0.02911 0.250296,-0.04657 0.122238,-0.01746 0.232833,-0.0291 0.116417,-0.01164 0.20955,-0.01746 l 0.232833,-0.0058 q 0.186267,0.0058 0.372534,0.02911 0.192087,0.01746 0.384174,0.05821 0.186267,0.04075 0.372533,0.116417 0.192088,0.06985 0.384175,0.168804 l -0.186266,0.49477 h -0.232834 q -0.0291,-0.01164 -0.06403,-0.03493 -0.03493,-0.0291 -0.06985,-0.06403 -0.03492,-0.03493 -0.07567,-0.06985 -0.03493,-0.03492 -0.08149,-0.06985 -0.08149,-0.06403 -0.186267,-0.122237 -0.104775,-0.05821 -0.227012,-0.110596 -0.09895,-0.04657 -0.227012,-0.06985 -0.122238,-0.0291 -0.267759,-0.03493 -0.0291,0 -0.06403,0.0058 -0.0291,0 -0.06403,0.0058 -0.05821,0.0058 -0.122237,0.01746 -0.05821,0.01164 -0.122238,0.0291 -0.21537,0.05821 -0.419099,0.186267 -0.197909,0.122237 -0.384175,0.314325 -0.180446,0.192087 -0.285221,0.471487 -0.104775,0.2794 -0.133879,0.657754 v 0.01746 0.02328 0.02328 0.02328 q -0.0058,0.430741 0.110596,0.779991 0.116416,0.34925 0.34925,0.617008 0.221191,0.250296 0.500591,0.384175 0.285221,0.128058 0.63447,0.145521 0.116417,-0.0058 0.221192,-0.01746 0.110596,-0.01746 0.215371,-0.04075 0.133879,-0.0291 0.227012,-0.06985 0.09895,-0.04657 0.168804,-0.09895 v -1.525057 h 0.232833 q 0.01164,0.01164 0.02328,0.01746 0.01164,0 0.0291,0.0058 0.01164,0.0058 0.02328,0.01164 0.01164,0 0.02328,0 0.0058,0 0.0058,0 0.0058,0 0.01164,0 0.0058,0.0058 0.0058,0.0058 0.0058,0 0.01164,0 0,0 0,0 0,0 0.0058,0 0,0 0,0 0,0 0,0 0.0291,-0.0058 0.06403,-0.01164 0.03493,-0.01164 0.06985,-0.01746 l 0.232834,-0.0058 v 1.693861 l -0.01746,0.01746 -0.01746,0.0058 q -0.0291,0.01746 -0.06985,0.0291 -0.03493,0.01164 -0.07567,0.02328 -0.04075,0.01746 -0.08731,0.0291 -0.04657,0.01164 -0.09895,0.02328 -0.104775,0.02328 -0.20955,0.04074 -0.104775,0.01746 -0.221191,0.0291 -0.104775,0.01746 -0.203729,0.02911 -0.09313,0.01746 -0.192088,0.02328 -0.09313,0.01164 -0.174624,0.01746 -0.08149,0.0058 -0.145521,0.0058 h -0.232833 q -0.01164,0 -0.02911,0 -0.01164,0 -0.02328,0 -0.01164,0 -0.0291,0 -0.01164,0 -0.02328,0 -0.494771,0 -0.884767,-0.133879 -0.389995,-0.133879 -0.681037,-0.4191 -0.28522,-0.279399 -0.430741,-0.651932 Q 34.9222,22.1683 34.9222,21.696812 v -0.01164 z"
         id="text6"
         aria-label="G" />
      <path
         style="font-weight:bold;font-size:5.82083px;line-height:1.25;font-family:'Optima Bold';-inkscape-font-specification:'Optima Bold,  Bold';stroke-width:0.264583"
         d="m 34.228197,25.988046 q 0.168804,-0.07567 0.331787,-0.151342 0.168804,-0.07567 0.331787,-0.151341 0.162983,-0.06985 0.291042,-0.1397 0.133879,-0.06985 0.238654,-0.1397 l 0.232833,-0.0058 0.1397,0.04075 v 3.987269 h -0.232833 q -0.03492,-0.0058 -0.06403,-0.01746 -0.0291,-0.0058 -0.05821,-0.01164 -0.03493,0.0058 -0.06985,0.01164 -0.03493,0.01164 -0.08149,0.01746 h -0.232834 v -3.440111 l -0.407458,0.232833 h -0.232833 q -0.0058,0 -0.01746,-0.0058 -0.0058,-0.01164 -0.01746,-0.0291 -0.0058,-0.01164 -0.01164,-0.01746 -0.0058,-0.01164 -0.0058,-0.01746 -0.0058,-0.01164 -0.01164,-0.01746 -0.0058,-0.01164 -0.01164,-0.01746 -0.0058,-0.01164 -0.01164,-0.01746 -0.0058,-0.0058 -0.01164,-0.01746 -0.01164,-0.0058 -0.01746,-0.01164 -0.0058,-0.01164 -0.01164,-0.01746 -0.01164,-0.01746 -0.0291,-0.0291 -0.01164,-0.01746 -0.0291,-0.02328 v -0.01164 z m 3.539069,2.846386 q 0.06403,0.104775 0.145521,0.186266 0.08731,0.07567 0.197908,0.128059 0.08149,0.04075 0.162984,0.06403 0.08731,0.02328 0.168804,0.03492 0.133879,-0.01746 0.261937,-0.07567 0.133879,-0.05821 0.244475,-0.151342 0.1397,-0.116416 0.20955,-0.302683 0.06985,-0.192087 0.06985,-0.454024 v -0.02328 -0.01746 -0.01164 -0.01746 q -0.01164,-0.244475 -0.08149,-0.4191 -0.06403,-0.174625 -0.180446,-0.2794 -0.09313,-0.08149 -0.192087,-0.128058 -0.09895,-0.04657 -0.215371,-0.06403 -0.05821,0.0058 -0.116416,0.01746 -0.05821,0.01164 -0.116417,0.03493 -0.06403,0.02328 -0.128058,0.05239 -0.05821,0.02328 -0.110596,0.05821 l -0.232833,-0.0058 -0.09313,-0.05239 v -1.920874 h 0.232833 1.926694 q 0,0.01746 0,0.0291 0,0.01164 0,0.01746 -0.0058,0.01164 -0.0058,0.02328 0,0.0058 0,0.01746 0,0.0058 0,0.01746 0,0.01164 0,0.01746 -0.0058,0.01164 -0.0058,0.02328 0,0.0058 0,0.01746 -0.0058,0.02328 -0.01164,0.04657 0,0.01746 0,0.03492 0,0.02328 0,0.04657 0,0.01746 0,0.04075 0,0.01164 0,0.02328 0,0.01164 0,0.02328 l 0.0058,0.03493 q 0,0.01746 0,0.0291 0,0.01164 0.0058,0.02328 0,0.01164 0,0.02328 0.0058,0.01164 0.01164,0.02328 l -0.232833,-0.0058 q -0.06985,-0.01164 -0.151341,-0.02328 -0.08149,-0.01746 -0.168804,-0.0291 -0.08731,-0.01164 -0.192088,-0.01746 -0.104775,-0.01164 -0.221191,-0.01164 l -0.686858,-0.01164 v 1.146703 q 0,0.0058 0,0.0058 0.0058,0 0.01164,-0.0058 0.0058,0 0.0058,0 0.0058,0 0.0058,0 0.07567,-0.01746 0.151342,-0.02328 0.08149,-0.01164 0.168804,-0.01164 l 0.232833,-0.0058 q 0.01164,0.0058 0.02328,0.0058 0.01746,0 0.03492,0 0.01164,0.0058 0.02328,0.0058 0.01746,0 0.03493,0 0.0291,0.0058 0.05821,0.01164 0.0291,0 0.05821,0 0.174625,0.0291 0.337608,0.110595 0.162984,0.07567 0.308504,0.203729 0.151342,0.128059 0.232833,0.331788 0.08149,0.203729 0.104775,0.477308 v 0.0058 0.01164 0.01164 0.01164 q 0,0.279399 -0.116416,0.506412 -0.110596,0.227012 -0.331788,0.407458 -0.221191,0.180446 -0.488949,0.267758 -0.267758,0.08731 -0.576262,0.08731 h -0.232834 q -0.04075,0 -0.08731,0 -0.04075,0 -0.08149,-0.0058 -0.04657,0 -0.08731,-0.0058 -0.04075,-0.0058 -0.08731,-0.01164 -0.04075,-0.0058 -0.08731,-0.01746 -0.04075,-0.01164 -0.08149,-0.02328 -0.04657,-0.01164 -0.08731,-0.01746 -0.04075,-0.01164 -0.08731,-0.0291 -0.02911,-0.01164 -0.05821,-0.01746 -0.0291,-0.01164 -0.05821,-0.02328 -0.0291,-0.01164 -0.05821,-0.02328 -0.02911,-0.01746 -0.05821,-0.03493 l 0.09313,-0.4191 h 0.232833 0.04657 v 0 z"
         id="text6-8"
         aria-label="15" />
    </g>
    <g
       id="g4"
       transform="translate(0,9.44477)">
      <path
         style="font-weight:bold;font-size:17.5626px;line-height:1.25;font-family:'Noto Serif TC';-inkscape-font-specification:'Noto Serif TC Bold';letter-spacing:1.8817px;stroke-width:0.313616"
         d="m 36.996947,17.99394 c -0.245876,2.300701 -0.87813,4.636526 -1.650884,6.322536 -0.368815,-0.456628 -0.965943,-0.913255 -1.826511,-1.299633 v -1.808947 h 2.283138 c 0.245877,0 0.421503,-0.08781 0.456628,-0.281002 -0.544441,-0.632253 -1.545509,-1.598196 -1.545509,-1.598196 l -0.860567,1.369882 h -0.33369 v -3.530082 c 0.456628,-0.07025 0.579566,-0.245877 0.614691,-0.509315 l -2.634389,-0.263439 v 4.302836 h -2.581702 l 0.1405,0.509316 h 2.23045 c -0.456627,2.651952 -1.299632,5.461968 -2.581702,7.481667 l 0.210752,0.193189 c 1.001068,-0.930818 1.879198,-1.967012 2.581702,-3.143706 v 7.09529 h 0.403939 c 0.755192,0 1.615759,-0.421502 1.615759,-0.597128 v -8.693487 c 0.421503,0.825443 0.790317,1.844073 0.843005,2.739766 0.930818,0.87813 1.967011,-0.210751 1.246945,-1.545509 1.492821,-1.35232 2.63439,-3.249081 3.407144,-5.655157 0.386377,-0.01756 0.597128,-0.140501 0.667379,-0.368814 z m 3.635458,8.833987 c 0.47419,0.860568 0.965943,1.896761 1.35232,2.96808 -2.089949,0.175626 -4.021835,0.316126 -5.321467,0.386377 1.457695,-1.563071 3.055892,-3.934022 3.916459,-5.690282 0.351252,0.01756 0.544441,-0.122938 0.632254,-0.298564 l -2.70464,-1.159132 c -0.368815,2.019699 -1.703572,5.67272 -2.669515,6.954789 -0.158064,0.140501 -0.614691,0.281002 -0.614691,0.281002 l 0.772754,2.318263 c 0.193189,-0.07025 0.386377,-0.193189 0.544441,-0.421502 2.265575,-0.649817 4.197461,-1.28207 5.637594,-1.773823 0.193188,0.597128 0.316127,1.194257 0.386377,1.75626 1.914323,1.721135 3.617896,-2.441201 -1.721135,-5.409281 z m 0.47419,-10.555122 -0.614691,1.001068 H 39.31521 l 0.158064,0.491753 h 1.42257 c 0.316127,3.091018 1.106444,5.567344 2.792453,7.253354 0.228314,-0.755192 0.843005,-1.492821 1.61576,-1.773823 l 0.03513,-0.193188 c -2.002137,-1.053756 -3.424707,-2.985642 -4.004273,-5.180967 0.684942,-0.05269 1.246945,-0.193189 1.475258,-0.439065 z m 8.502801,0.509316 c 0.649816,0.684941 1.440133,1.75626 1.721134,2.739765 1.949449,1.194257 3.407145,-2.476326 -1.580633,-2.862703 z m -1.475259,3.898897 c 0.684942,0.614691 1.457696,1.650884 1.721135,2.564139 1.861636,1.088881 3.213956,-2.476326 -1.580634,-2.669515 z m 5.988847,-1.264507 c -3.635458,6.972351 -3.635458,6.972351 -4.074523,7.657293 -0.193189,0.351252 -0.281002,0.351252 -0.544441,0.351252 h -0.843005 v 0.333689 c 0.386378,0.03512 0.702504,0.122938 0.948381,0.281002 0.421502,0.281001 0.509315,1.89676 0.193188,3.758396 0.140501,0.667379 0.526878,0.930818 0.948381,0.930818 0.87813,0 1.492821,-0.597129 1.527946,-1.492821 0.03513,-1.545509 -0.684942,-2.1602 -0.702504,-3.091018 -0.01756,-0.456627 0.122938,-1.088881 0.316127,-1.686009 0.263439,-0.930818 1.686009,-4.847278 2.493889,-6.954789 z m 7.63973,11.591315 H 59.70789 V 18.87207 h 4.3204 c 0.263439,0 0.456627,-0.08781 0.509315,-0.281002 -0.772754,-0.720066 -2.054824,-1.773822 -2.054824,-1.773822 l -1.141569,1.563071 h -7.832919 l 0.140501,0.491753 h 3.916459 v 12.135756 h -4.847277 l 0.140501,0.491753 H 64.57273 c 0.245877,0 0.456628,-0.08781 0.509316,-0.281002 -0.80788,-0.737629 -2.142637,-1.82651 -2.142637,-1.82651 z m 18.16223,-2.423639 c 0.245877,0 0.421503,-0.08781 0.474191,-0.281001 C 79.731756,27.72362 78.660437,26.91574 78.660437,26.91574 l -0.94838,1.176695 h -0.80788 V 25.96736 h 2.897829 c 0.245877,0 0.421503,-0.08781 0.456628,-0.281002 -0.614691,-0.54444 -1.563072,-1.246944 -1.563072,-1.246944 l -0.860567,1.018631 h -1.001068 c 0.720066,-0.667379 1.457696,-1.475259 1.949448,-2.054824 0.368815,0.01756 0.579566,-0.122939 0.649817,-0.33369 l -2.318264,-0.667379 c -0.175626,0.895693 -0.491752,2.142638 -0.790316,3.055893 h -4.179899 l 0.140501,0.509315 h 2.616827 v 2.125075 h -3.143705 l 0.140501,0.491752 h 3.003204 v 3.705709 h 0.351252 c 1.036193,0 1.633322,-0.33369 1.650884,-0.421503 v -3.284206 z m -7.235791,-5.971283 c 0.439065,0.614691 0.843005,1.563071 0.860568,2.423638 1.510383,1.299633 3.319331,-1.633321 -0.667379,-2.529014 z m 7.938295,-3.705709 H 76.99199 V 17.04556 c 0.47419,-0.07025 0.614691,-0.245877 0.649816,-0.491753 l -2.739765,-0.228314 v 2.581702 h -7.060165 l 0.158063,0.491753 h 6.902102 v 2.318263 h -3.372019 l -2.248013,-0.913255 v 12.047943 h 0.33369 c 0.87813,0 1.773822,-0.491753 1.773822,-0.720067 v -9.922868 h 9.343303 v 8.096358 c 0,0.228314 -0.07025,0.368815 -0.368815,0.368815 -0.47419,0 -2.3007,-0.140501 -2.3007,-0.140501 v 0.245876 c 0.913255,0.140501 1.299632,0.386377 1.598196,0.684942 0.281002,0.316126 0.386378,0.772754 0.439065,1.42257 2.406076,-0.228314 2.757328,-1.018631 2.757328,-2.370951 v -7.955857 c 0.351252,-0.07025 0.597129,-0.228314 0.702504,-0.368815 L 81.523141,20.62833 80.557198,21.717211 H 76.99199 v -2.318263 h 6.585975 c 0.263439,0 0.456628,-0.08781 0.509315,-0.281002 -0.860567,-0.720066 -2.23045,-1.75626 -2.23045,-1.75626 z m 10.46981,8.078796 c -0.737629,1.492821 -2.370951,3.617895 -4.039398,4.93509 l 0.158064,0.175626 c 2.265575,-0.790317 4.373087,-2.23045 5.637594,-3.51252 0.40394,0.07025 0.562003,-0.03513 0.649816,-0.193188 z m 1.246944,-1.650884 v -3.319332 h 6.111785 v 3.319332 z m 6.111785,0.509315 v 0.895692 h 0.386377 c 0.720067,0 1.773826,-0.439065 1.791386,-0.562003 v -3.811084 c 0.36881,-0.07025 0.61469,-0.228314 0.72007,-0.368814 l -2.072391,-1.563072 -1.001068,1.071319 h -5.81322 l -2.283138,-0.87813 v 6.269848 h 0.298564 c 0.895693,0 1.861635,-0.47419 1.861635,-0.667379 v -0.386377 h 2.019699 v 4.4609 c 0,0.210751 -0.08781,0.316127 -0.386377,0.316127 -0.386377,0 -2.248013,-0.122938 -2.248013,-0.122938 v 0.228313 c 0.948381,0.140501 1.352321,0.386378 1.61576,0.684942 0.245876,0.298564 0.333689,0.772754 0.386377,1.42257 2.441201,-0.175626 2.792453,-1.088881 2.792453,-2.458764 v -4.53115 z m -0.843005,1.668447 c 1.194257,1.071318 2.704638,2.739765 3.354458,4.162336 2.19532,1.176694 3.33689,-3.091018 -3.196394,-4.285274 z m 2.564138,-8.465173 h -3.775957 c 1.053756,-0.649816 0.807879,-2.932954 -3.178831,-2.792453 l -0.122938,0.105375 c 0.772755,0.614691 1.650885,1.668447 1.949449,2.651953 l 0.07025,0.03512 h -7.832919 l 0.140501,0.509315 h 15.648275 c 0.26344,0 0.45663,-0.08781 0.50932,-0.281001 -0.80788,-0.720067 -2.19533,-1.773823 -2.19533,-1.773823 z"
         id="text7"
         aria-label="松江南京" />
      <path
         style="font-weight:bold;font-size:6.89956px;line-height:1.25;font-family:'Optima Bold';-inkscape-font-specification:'Optima Bold,  Bold';stroke-width:0.313616"
         d="m 28.767472,37.084656 q 0.0414,-0.296681 0.16559,-0.510567 0.124192,-0.220786 0.31738,-0.358777 0.200087,-0.137991 0.407074,-0.213887 0.206987,-0.08279 0.434672,-0.103493 0.0207,0 0.0414,0 0.0207,0 0.0414,0 0.0138,0 0.0207,0 0.0138,0 0.0276,-0.0069 0.0069,0 0.0207,0 0.0138,0 0.0207,0 l 0.275982,-0.0069 q 0.172489,0.0069 0.331179,0.0345 0.15869,0.0276 0.31048,0.08279 0.144891,0.0483 0.248385,0.124192 0.103493,0.069 0.165589,0.151791 -0.0414,0.0414 -0.069,0.08969 -0.0276,0.0414 -0.0483,0.09659 -0.0207,0.0552 -0.0414,0.131092 -0.0207,0.069 -0.0414,0.15179 l -0.0069,0.0276 -0.0069,0.0414 h -0.275983 l -0.110393,-0.0069 q -0.0069,-0.0138 -0.0207,-0.0345 -0.0069,-0.0276 -0.0207,-0.0552 -0.0138,-0.0345 -0.0345,-0.0621 -0.0138,-0.0345 -0.0345,-0.0621 -0.0483,-0.069 -0.124192,-0.131092 -0.06899,-0.0621 -0.165589,-0.117293 -0.069,-0.0414 -0.144891,-0.069 -0.07589,-0.0276 -0.165589,-0.0345 -0.117293,0.0138 -0.227686,0.07589 -0.103493,0.0621 -0.200087,0.15869 -0.124192,0.124192 -0.186288,0.269083 -0.0552,0.144891 -0.0552,0.30358 0,0.0138 0,0.0345 0,0.0138 0,0.0276 0,0.0069 0,0.0138 0,0.0069 0.0069,0.0138 0,0.0069 0,0.0138 0,0.0069 0,0.0138 0.0138,0.08969 0.0552,0.186288 0.0483,0.08969 0.117293,0.186288 0.07589,0.08969 0.179388,0.172489 0.110393,0.0759 0.262184,0.144891 l 0.765851,0.31048 q 0.206987,0.09659 0.358777,0.220786 0.15179,0.124192 0.241485,0.275983 0.09659,0.15179 0.137991,0.317379 0.0483,0.15869 0.0483,0.32428 0,0.0207 0,0.0414 0,0.0138 0,0.0276 0,0.0069 0,0.0138 0,0.0069 0,0.0138 -0.0069,0.0138 -0.0069,0.0207 0,0.0069 0,0.0138 -0.0276,0.275983 -0.15869,0.524367 -0.124192,0.248384 -0.351877,0.476069 -0.227686,0.227686 -0.510568,0.338079 -0.275982,0.110393 -0.62096,0.110393 h -0.275982 -0.0345 -0.0276 q -0.0138,0 -0.0276,0 -0.0138,0 -0.0276,0 -0.0138,-0.0069 -0.0276,-0.0069 -0.0138,0 -0.0276,0 -0.0138,0 -0.0276,0 -0.0138,0 -0.0276,-0.0069 -0.0207,0 -0.0345,-0.0069 -0.0138,0 -0.0276,0 -0.131092,-0.0207 -0.262183,-0.0621 -0.124192,-0.0345 -0.248384,-0.0828 -0.124193,-0.0552 -0.220786,-0.110393 -0.0897,-0.0621 -0.16559,-0.124192 l -0.0138,-0.0138 -0.0069,-0.0138 q 0.0276,-0.0621 0.0483,-0.124192 0.0207,-0.0621 0.0276,-0.110393 0.0069,-0.0276 0.0069,-0.0483 0.0069,-0.0276 0.0069,-0.0552 0.0069,-0.0207 0.0069,-0.0414 0.0069,-0.0276 0.0069,-0.0552 0,-0.0138 0,-0.0207 0,-0.0138 0.0069,-0.0276 0,-0.0138 0,-0.0276 0,-0.0138 0,-0.0276 0,-0.0276 0,-0.0552 0,-0.0276 0,-0.0552 l 0.110393,-0.0138 h 0.275983 q 0.179388,0.275983 0.331179,0.434673 0.15869,0.15869 0.289781,0.200087 0.09659,0.0276 0.179389,0.0483 0.0828,0.0207 0.15179,0.0345 0.179389,-0.0207 0.31048,-0.08969 0.137992,-0.069 0.234585,-0.186288 0.117293,-0.144891 0.172489,-0.30358 0.0621,-0.15869 0.069,-0.331179 0,-0.137992 -0.0414,-0.262184 -0.0345,-0.131091 -0.110393,-0.255283 -0.069,-0.124192 -0.186288,-0.213887 -0.110393,-0.08969 -0.262184,-0.14489 l -0.710654,-0.338079 q -0.303581,-0.131092 -0.48297,-0.282882 -0.172489,-0.15179 -0.227685,-0.31738 -0.0483,-0.165589 -0.07589,-0.338078 -0.0276,-0.172489 -0.0276,-0.351878 v -0.0138 z m 3.642973,1.304017 q 0,-0.0276 0,-0.0552 0,-0.0345 0,-0.0621 0,-0.0345 0,-0.069 0.0069,-0.0345 0.0138,-0.069 0.0414,-0.413973 0.227685,-0.793449 0.186288,-0.386375 0.517467,-0.738253 0.324279,-0.351877 0.800349,-0.524366 0.47607,-0.179389 1.10393,-0.179389 l 0.275982,-0.0069 q 0.63476,0.0276 1.083231,0.172489 0.455371,0.144891 0.731353,0.427773 0.275983,0.275983 0.448472,0.579563 0.179388,0.303581 0.255283,0.63476 0.0138,0.0414 0.0207,0.08279 0.0069,0.0414 0.0138,0.0759 0.0069,0.0414 0.0138,0.08279 0.0069,0.0414 0.0138,0.08279 0.0138,0.08279 0.0138,0.165589 0.0069,0.0759 0.0138,0.151791 v 0.0138 0.0207 0.0276 0.0207 q 0,0.579564 -0.200087,1.034934 -0.193188,0.448472 -0.593363,0.772751 -0.400174,0.331179 -0.855545,0.489869 -0.448471,0.15869 -0.952139,0.15869 h -0.275983 q -0.0138,0 -0.0276,0 -0.0138,0 -0.0276,0 -0.0138,0 -0.0345,0 -0.0138,0 -0.0276,0 -0.08969,0 -0.179389,-0.0069 -0.08279,0 -0.172489,-0.0138 -0.08969,-0.0069 -0.179388,-0.0276 -0.08969,-0.0207 -0.179389,-0.0414 -0.344978,-0.0759 -0.662358,-0.262184 -0.317379,-0.186288 -0.607161,-0.46917 -0.289781,-0.282882 -0.434672,-0.696855 -0.137991,-0.420874 -0.137991,-0.965939 v -0.0138 z m 0.986637,0.0069 q 0,0.538165 0.131091,0.952139 0.137991,0.407074 0.413974,0.696856 0.248384,0.262183 0.558864,0.407074 0.31738,0.14489 0.696856,0.165589 0.351877,-0.0207 0.641659,-0.165589 0.296681,-0.144891 0.531266,-0.407074 0.262183,-0.289782 0.413974,-0.703756 0.15179,-0.413973 0.193187,-0.93834 0,-0.0138 0,-0.0276 0,-0.0207 0,-0.0276 0,-0.0138 0,-0.0276 0,-0.0138 0,-0.0276 0,-0.448471 -0.137991,-0.827947 -0.131092,-0.379476 -0.400174,-0.683056 -0.255284,-0.275983 -0.579563,-0.427773 -0.31738,-0.15179 -0.703756,-0.172489 -0.338078,0.0207 -0.607161,0.144891 -0.269083,0.117292 -0.455371,0.338078 -0.206987,0.248384 -0.351877,0.517467 -0.137992,0.269083 -0.220786,0.558864 -0.0207,0.08969 -0.0414,0.172489 -0.0207,0.0828 -0.0345,0.16559 -0.0138,0.0828 -0.0276,0.165589 -0.0069,0.08279 -0.0207,0.15869 z m 5.429953,2.380348 v -4.781395 h 0.275982 0.331179 l 3.035807,3.339387 v -3.339387 h 0.275982 q 0.0138,0.0207 0.0345,0.0276 0.0207,0.0069 0.0414,0.0138 0.0276,-0.0069 0.0483,-0.0138 0.0207,-0.0069 0.0345,-0.0138 l 0.275982,-0.0069 v 4.774496 H 42.904675 42.635592 L 39.53769,37.33304 v 3.442881 h -0.275983 q -0.0069,0 -0.0138,0 -0.0069,0 -0.0138,0 -0.0138,0 -0.0207,0 -0.0069,-0.0069 -0.0138,-0.0069 -0.0138,0 -0.0276,0 -0.0069,0 -0.0207,0.0069 -0.0138,0 -0.0276,0 -0.0069,0 -0.0207,0 h -0.275982 v 0 z M 44.21559,38.43697 q 0.0276,-0.545065 0.15869,-0.952139 0.137991,-0.407074 0.379475,-0.669258 0.241485,-0.262183 0.503668,-0.441571 0.269083,-0.179389 0.558865,-0.275983 0.15179,-0.0552 0.296681,-0.08969 0.15179,-0.0345 0.296681,-0.0552 0.144891,-0.0207 0.275982,-0.0345 0.137991,-0.0138 0.248384,-0.0207 l 0.275983,-0.0069 q 0.220786,0.0069 0.441572,0.0345 0.227685,0.0207 0.455371,0.069 0.220785,0.0483 0.441571,0.137991 0.227686,0.08279 0.455371,0.200087 l -0.220786,0.586463 h -0.275982 q -0.0345,-0.0138 -0.0759,-0.0414 -0.0414,-0.0345 -0.08279,-0.07589 -0.0414,-0.0414 -0.08969,-0.08279 -0.0414,-0.0414 -0.09659,-0.0828 -0.09659,-0.07589 -0.220786,-0.144891 -0.124192,-0.069 -0.269083,-0.131092 -0.117292,-0.0552 -0.269083,-0.08279 -0.14489,-0.0345 -0.317379,-0.0414 -0.0345,0 -0.0759,0.0069 -0.0345,0 -0.0759,0.0069 -0.069,0.0069 -0.14489,0.0207 -0.069,0.0138 -0.144891,0.0345 -0.255284,0.069 -0.496768,0.220786 -0.234586,0.144891 -0.455371,0.372576 -0.213887,0.227686 -0.338079,0.558865 -0.124192,0.331178 -0.15869,0.77965 v 0.0207 0.0276 0.0276 0.0276 q -0.0069,0.510568 0.131092,0.924541 0.137991,0.413974 0.413973,0.731354 0.262184,0.296681 0.593363,0.455371 0.338078,0.15179 0.752052,0.172489 0.137991,-0.0069 0.262183,-0.0207 0.131092,-0.0207 0.255284,-0.0483 0.15869,-0.0345 0.269083,-0.08279 0.117292,-0.0552 0.200087,-0.117292 v -1.807685 h 0.275982 q 0.0138,0.0138 0.0276,0.0207 0.0138,0 0.0345,0.0069 0.0138,0.0069 0.0276,0.0138 0.0138,0 0.0276,0 0.0069,0 0.0069,0 0.0069,0 0.0138,0 0.0069,0.0069 0.0069,0.0069 0.0069,0 0.0138,0 0,0 0,0 0,0 0.0069,0 0,0 0,0 0,0 0,0 0.0345,-0.0069 0.0759,-0.0138 0.0414,-0.0138 0.08279,-0.0207 l 0.275983,-0.0069 v 2.007772 l -0.0207,0.0207 -0.0207,0.0069 q -0.0345,0.0207 -0.08279,0.0345 -0.0414,0.0138 -0.08969,0.0276 -0.0483,0.0207 -0.103494,0.0345 -0.0552,0.0138 -0.117292,0.0276 -0.124192,0.0276 -0.248385,0.0483 -0.124192,0.0207 -0.262183,0.0345 -0.124192,0.0207 -0.241484,0.0345 -0.110393,0.0207 -0.227686,0.0276 -0.110393,0.0138 -0.206987,0.0207 -0.09659,0.0069 -0.172489,0.0069 H 46.87882 q -0.0138,0 -0.0345,0 -0.0138,0 -0.0276,0 -0.0138,0 -0.0345,0 -0.0138,0 -0.0276,0 -0.586463,0 -1.048733,-0.15869 -0.462271,-0.15869 -0.807249,-0.496768 -0.338078,-0.331179 -0.510567,-0.772751 -0.172489,-0.448471 -0.172489,-1.007336 v -0.0138 z m 6.313096,-2.442444 q 0.0345,0.0207 0.0621,0.0345 0.0345,0.0069 0.0759,0.0138 0.0069,0 0.0069,0 0.0069,0 0.0138,0 0.0069,0 0.0069,0 0.0069,0 0.0138,0 0.0414,-0.0069 0.07589,-0.0138 0.0414,-0.0138 0.069,-0.0207 l 0.275982,-0.0069 v 4.450217 q 0,0.262183 -0.09659,0.476069 -0.09659,0.213887 -0.296681,0.400175 -0.193187,0.186288 -0.427772,0.275982 -0.227686,0.09659 -0.496769,0.103493 h -0.275982 -0.0276 -0.0138 l -0.0207,-0.0069 h -0.0276 l -0.0069,-0.220786 q 0.282882,-0.0207 0.455371,-0.131092 0.172489,-0.110393 0.234585,-0.31048 0.0621,-0.193188 0.08969,-0.427773 0.0345,-0.241484 0.0345,-0.524366 v -4.091439 h 0.275983 v 0 z m 2.069866,0 q 0.0345,0.0207 0.0621,0.0345 0.0345,0.0069 0.07589,0.0138 0.0069,0 0.0069,0 0.0069,0 0.0138,0 0.0069,0 0.0069,0 0.0069,0 0.0138,0 0.0414,-0.0069 0.0759,-0.0138 0.0414,-0.0138 0.069,-0.0207 l 0.275982,-0.0069 v 4.774496 h -0.275982 q -0.0276,0 -0.069,0 -0.0345,-0.0069 -0.069,-0.0138 -0.0069,0 -0.0138,0 0,0 -0.0069,0 -0.0069,0 -0.0138,0 -0.0069,0 -0.0138,0 -0.0414,0.0069 -0.07589,0.0138 -0.0276,0 -0.0621,0 H 52.32257 v -4.781395 h 0.275982 v 0 z m 1.310917,4.781395 2.173362,-4.836592 h 0.275982 0.15869 l 2.125064,4.836592 h -0.275982 q -0.0207,0 -0.0483,0 -0.0207,0 -0.0483,0 -0.0276,0 -0.0552,0 -0.0207,0 -0.0552,0 -0.0138,0 -0.0345,0 -0.0138,0 -0.0276,-0.0069 -0.0138,0 -0.0345,0 -0.0138,0 -0.0276,0 -0.0138,0.0069 -0.0345,0.0069 -0.0138,0 -0.0276,0 -0.0138,0 -0.0276,0 -0.0138,0 -0.0207,0 -0.0138,0 -0.0276,0 -0.0069,0 -0.0207,0 h -0.275982 l -0.758952,-1.904279 h -1.40751 l -0.703755,1.904279 h -0.275982 q -0.0138,0 -0.0345,0 -0.0138,0 -0.0276,0 l -0.0345,-0.0069 q -0.0069,0.0069 -0.0207,0.0069 -0.0138,0 -0.0207,0 -0.0138,0 -0.0276,0 -0.0069,0 -0.0207,0 h -0.275982 q -0.0207,0 -0.0414,0 -0.0207,0 -0.0414,0 v 0 z m 1.690393,-2.228558 h 1.131527 l -0.565764,-1.352314 -0.565763,1.352314 z m 3.794756,2.228558 v -4.781395 h 0.275982 0.331179 l 3.035807,3.339387 v -3.339387 h 0.275982 q 0.0138,0.0207 0.0345,0.0276 0.0207,0.0069 0.0414,0.0138 0.0276,-0.0069 0.0483,-0.0138 0.0207,-0.0069 0.0345,-0.0138 l 0.275982,-0.0069 v 4.774496 H 63.472258 63.203175 L 60.105273,37.33304 v 3.442881 H 59.82929 q -0.0069,0 -0.0138,0 -0.0069,0 -0.0138,0 -0.0138,0 -0.0207,0 -0.0069,-0.0069 -0.0138,-0.0069 -0.0138,0 -0.0276,0 -0.0069,0 -0.0207,0.0069 -0.0138,0 -0.0276,0 -0.0069,0 -0.0207,0 h -0.275982 v 0 z M 64.78317,38.43697 q 0.0276,-0.545065 0.15869,-0.952139 0.137991,-0.407074 0.379476,-0.669258 0.241484,-0.262183 0.503668,-0.441571 0.269082,-0.179389 0.558864,-0.275983 0.15179,-0.0552 0.296681,-0.08969 0.15179,-0.0345 0.296681,-0.0552 0.144891,-0.0207 0.275982,-0.0345 0.137992,-0.0138 0.248385,-0.0207 l 0.275982,-0.0069 q 0.220786,0.0069 0.441572,0.0345 0.227685,0.0207 0.455371,0.069 0.220786,0.0483 0.441572,0.137991 0.227685,0.08279 0.455371,0.200087 l -0.220786,0.586463 h -0.275983 q -0.0345,-0.0138 -0.0759,-0.0414 -0.0414,-0.0345 -0.0828,-0.07589 -0.0414,-0.0414 -0.08969,-0.08279 -0.0414,-0.0414 -0.09659,-0.0828 -0.09659,-0.07589 -0.220786,-0.144891 -0.124192,-0.069 -0.269083,-0.131092 -0.117292,-0.0552 -0.269082,-0.08279 -0.144891,-0.0345 -0.31738,-0.0414 -0.0345,0 -0.07589,0.0069 -0.0345,0 -0.0759,0.0069 -0.069,0.0069 -0.144891,0.0207 -0.069,0.0138 -0.144891,0.0345 -0.255284,0.069 -0.496768,0.220786 -0.234585,0.144891 -0.455371,0.372576 -0.213887,0.227686 -0.338079,0.558865 -0.124192,0.331178 -0.15869,0.77965 v 0.0207 0.0276 0.0276 0.0276 q -0.0069,0.510568 0.131092,0.924541 0.137991,0.413974 0.413974,0.731354 0.262183,0.296681 0.593362,0.455371 0.338078,0.15179 0.752052,0.172489 0.137991,-0.0069 0.262183,-0.0207 0.131092,-0.0207 0.255284,-0.0483 0.15869,-0.0345 0.269083,-0.08279 0.117292,-0.0552 0.200087,-0.117292 v -1.807685 h 0.275982 q 0.0138,0.0138 0.0276,0.0207 0.0138,0 0.0345,0.0069 0.0138,0.0069 0.0276,0.0138 0.0138,0 0.0276,0 0.0069,0 0.0069,0 0.0069,0 0.0138,0 0.0069,0.0069 0.0069,0.0069 0.0069,0 0.0138,0 0,0 0,0 0,0 0.0069,0 0,0 0,0 0,0 0,0 0.0345,-0.0069 0.07589,-0.0138 0.0414,-0.0138 0.0828,-0.0207 l 0.275982,-0.0069 v 2.007772 l -0.0207,0.0207 -0.0207,0.0069 q -0.0345,0.0207 -0.08279,0.0345 -0.0414,0.0138 -0.08969,0.0276 -0.0483,0.0207 -0.103494,0.0345 -0.0552,0.0138 -0.117292,0.0276 -0.124192,0.0276 -0.248384,0.0483 -0.124192,0.0207 -0.262184,0.0345 -0.124192,0.0207 -0.241484,0.0345 -0.110393,0.0207 -0.227686,0.0276 -0.110393,0.0138 -0.206986,0.0207 -0.09659,0.0069 -0.172489,0.0069 H 67.4464 q -0.0138,0 -0.0345,0 -0.0138,0 -0.0276,0 -0.0138,0 -0.0345,0 -0.0138,0 -0.0276,0 -0.586463,0 -1.048733,-0.15869 -0.462271,-0.15869 -0.807249,-0.496768 -0.338078,-0.331179 -0.510567,-0.772751 -0.172489,-0.448471 -0.172489,-1.007336 v -0.0138 z m 8.106981,2.338951 v -4.781395 h 0.275982 0.331179 l 3.035807,3.339387 v -3.339387 h 0.275982 q 0.0138,0.0207 0.0345,0.0276 0.0207,0.0069 0.0414,0.0138 0.0276,-0.0069 0.0483,-0.0138 0.0207,-0.0069 0.0345,-0.0138 l 0.275982,-0.0069 v 4.774496 H 76.967791 76.698708 L 73.600806,37.33304 v 3.442881 h -0.275983 q -0.0069,0 -0.0138,0 -0.0069,0 -0.0138,0 -0.0138,0 -0.0207,0 -0.0069,-0.0069 -0.0138,-0.0069 -0.0138,0 -0.0276,0 -0.0069,0 -0.0207,0.0069 -0.0138,0 -0.0276,0 -0.0069,0 -0.0207,0 h -0.275982 v 0 z m 5.064276,0 2.173362,-4.836592 h 0.275982 0.15869 l 2.125065,4.836592 h -0.275983 q -0.0207,0 -0.0483,0 -0.0207,0 -0.0483,0 -0.0276,0 -0.0552,0 -0.0207,0 -0.0552,0 -0.0138,0 -0.0345,0 -0.0138,0 -0.0276,-0.0069 -0.0138,0 -0.0345,0 -0.0138,0 -0.0276,0 -0.0138,0.0069 -0.0345,0.0069 -0.0138,0 -0.0276,0 -0.0138,0 -0.0276,0 -0.0138,0 -0.0207,0 -0.0138,0 -0.0276,0 -0.0069,0 -0.0207,0 H 81.645692 L 80.88674,38.871642 h -1.40751 l -0.703755,1.904279 h -0.275982 q -0.0138,0 -0.0345,0 -0.0138,0 -0.0276,0 l -0.0345,-0.0069 q -0.0069,0.0069 -0.0207,0.0069 -0.0138,0 -0.0207,0 -0.0138,0 -0.0276,0 -0.0069,0 -0.0207,0 h -0.275983 q -0.0207,0 -0.0414,0 -0.0207,0 -0.0414,0 v 0 z m 1.690393,-2.228558 h 1.131527 l -0.565763,-1.352314 -0.565764,1.352314 z m 3.794754,2.228558 v -4.781395 h 0.275983 0.331179 l 3.035806,3.339387 v -3.339387 h 0.275982 q 0.0138,0.0207 0.0345,0.0276 0.0207,0.0069 0.0414,0.0138 0.0276,-0.0069 0.0483,-0.0138 0.0207,-0.0069 0.0345,-0.0138 l 0.275983,-0.0069 v 4.774496 H 87.517214 87.248131 L 84.150229,37.33304 v 3.442881 h -0.275982 q -0.0069,0 -0.0138,0 -0.0069,0 -0.0138,0 -0.0138,0 -0.0207,0 -0.0069,-0.0069 -0.0138,-0.0069 -0.0138,0 -0.0276,0 -0.0069,0 -0.0207,0.0069 -0.0138,0 -0.0276,0 -0.0069,0 -0.0207,0 h -0.275983 v 0 z m 6.044014,-4.781395 q 0.0345,0.0207 0.0621,0.0345 0.0345,0.0069 0.0759,0.0138 0.0069,0 0.0069,0 0.0069,0 0.0138,0 0.0069,0 0.0069,0 0.0069,0 0.0138,0 0.0414,-0.0069 0.0759,-0.0138 0.0414,-0.0138 0.069,-0.0207 l 0.275983,-0.0069 v 4.450217 q 0,0.262183 -0.09659,0.476069 -0.09659,0.213887 -0.296681,0.400175 -0.193188,0.186288 -0.427773,0.275982 -0.227685,0.09659 -0.496768,0.103493 h -0.275982 -0.0276 -0.0138 l -0.0207,-0.0069 h -0.0276 l -0.0069,-0.220786 q 0.282882,-0.0207 0.455371,-0.131092 0.172489,-0.110393 0.234585,-0.31048 0.0621,-0.193188 0.08969,-0.427773 0.0345,-0.241484 0.0345,-0.524366 v -4.091439 h 0.275982 v 0 z m 2.069867,0 q 0.0345,0.0207 0.0621,0.0345 0.0345,0.0069 0.0759,0.0138 0.0069,0 0.0069,0 0.0069,0 0.0138,0 0.0069,0 0.0069,0 0.0069,0 0.0138,0 0.0414,-0.0069 0.0759,-0.0138 0.0414,-0.0138 0.069,-0.0207 l 0.275983,-0.0069 v 4.774496 h -0.275983 q -0.0276,0 -0.069,0 -0.0345,-0.0069 -0.069,-0.0138 -0.0069,0 -0.0138,0 0,0 -0.0069,0 -0.0069,0 -0.0138,0 -0.0069,0 -0.0138,0 -0.0414,0.0069 -0.0759,0.0138 -0.0276,0 -0.0621,0 h -0.275982 v -4.781395 h 0.275982 v 0 z m 1.904281,4.781395 v -4.781395 h 0.275982 0.331179 l 3.035807,3.339387 v -3.339387 h 0.275982 q 0.0138,0.0207 0.0345,0.0276 0.0207,0.0069 0.0414,0.0138 0.0276,-0.0069 0.0483,-0.0138 0.0207,-0.0069 0.0345,-0.0138 l 0.275982,-0.0069 v 4.774496 H 97.535376 97.266293 L 94.168391,37.33304 v 3.442881 h -0.275983 q -0.0069,0 -0.0138,0 -0.0069,0 -0.0138,0 -0.0138,0 -0.0207,0 -0.0069,-0.0069 -0.0138,-0.0069 -0.0138,0 -0.0276,0 -0.0069,0 -0.0207,0.0069 -0.0138,0 -0.0276,0 -0.0069,0 -0.0207,0 h -0.275982 v 0 z m 5.388556,-2.338951 q 0.0276,-0.545065 0.15869,-0.952139 0.137991,-0.407074 0.379475,-0.669258 0.241485,-0.262183 0.503668,-0.441571 0.269085,-0.179389 0.558865,-0.275983 0.15179,-0.0552 0.29668,-0.08969 0.15179,-0.0345 0.29668,-0.0552 0.14489,-0.0207 0.27598,-0.0345 0.138,-0.0138 0.24839,-0.0207 l 0.27598,-0.0069 q 0.22079,0.0069 0.44157,0.0345 0.22769,0.0207 0.45537,0.069 0.22079,0.0483 0.44158,0.137991 0.22768,0.08279 0.45537,0.200087 l -0.22079,0.586463 h -0.27598 q -0.0345,-0.0138 -0.0759,-0.0414 -0.0414,-0.0345 -0.0828,-0.07589 -0.0414,-0.0414 -0.0897,-0.08279 -0.0414,-0.0414 -0.0966,-0.0828 -0.0966,-0.07589 -0.22079,-0.144891 -0.12419,-0.069 -0.26908,-0.131092 -0.11729,-0.0552 -0.26908,-0.08279 -0.14489,-0.0345 -0.31738,-0.0414 -0.0345,0 -0.0759,0.0069 -0.0345,0 -0.0759,0.0069 -0.069,0.0069 -0.14489,0.0207 -0.069,0.0138 -0.14489,0.0345 -0.25529,0.069 -0.49677,0.220786 -0.23459,0.144891 -0.45537,0.372576 -0.21389,0.227686 -0.338081,0.558865 -0.124192,0.331178 -0.15869,0.77965 v 0.0207 0.0276 0.0276 0.0276 q -0.0069,0.510568 0.131092,0.924541 0.137989,0.413974 0.413969,0.731354 0.26219,0.296681 0.59337,0.455371 0.33808,0.15179 0.75205,0.172489 0.13799,-0.0069 0.26218,-0.0207 0.13109,-0.0207 0.25529,-0.0483 0.15869,-0.0345 0.26908,-0.08279 0.11729,-0.0552 0.20009,-0.117292 v -1.807685 h 0.27598 q 0.0138,0.0138 0.0276,0.0207 0.0138,0 0.0345,0.0069 0.0138,0.0069 0.0276,0.0138 0.0138,0 0.0276,0 0.007,0 0.007,0 0.007,0 0.0138,0 0.007,0.0069 0.007,0.0069 0.007,0 0.0138,0 0,0 0,0 0,0 0.007,0 0,0 0,0 0,0 0,0 0.0345,-0.0069 0.0759,-0.0138 0.0414,-0.0138 0.0828,-0.0207 l 0.27598,-0.0069 v 2.007772 l -0.0207,0.0207 -0.0207,0.0069 q -0.0345,0.0207 -0.0828,0.0345 -0.0414,0.0138 -0.0897,0.0276 -0.0483,0.0207 -0.10349,0.0345 -0.0552,0.0138 -0.11729,0.0276 -0.12419,0.0276 -0.24839,0.0483 -0.12419,0.0207 -0.26218,0.0345 -0.12419,0.0207 -0.24148,0.0345 -0.1104,0.0207 -0.22769,0.0276 -0.11039,0.0138 -0.20699,0.0207 -0.0966,0.0069 -0.17249,0.0069 h -0.27598 q -0.0138,0 -0.0345,0 -0.0138,0 -0.0276,0 -0.0138,0 -0.0345,0 -0.0138,0 -0.0276,0 -0.58646,0 -1.04873,-0.15869 -0.462274,-0.15869 -0.807252,-0.496768 -0.338078,-0.331179 -0.510567,-0.772751 -0.172489,-0.448471 -0.172489,-1.007336 v -0.0138 z"
         id="text8"
         aria-label="SONGJIANG NANJING" />
      <g
         id="g2"
         transform="matrix(1.185323,0,0,1.185323,-44.446212,-35.320632)"
         style="fill:#000000">
        <path
           style="font-weight:500;font-size:5.82083px;line-height:1.25;font-family:'Noto Sans JP';-inkscape-font-specification:'Noto Sans JP Medium';stroke-width:0.264583"
           d="m 71.019342,37.430846 0.628649,0.151341 q -0.09895,0.308504 -0.221191,0.646112 -0.116417,0.331788 -0.244475,0.663575 -0.122237,0.331787 -0.250296,0.63447 -0.122237,0.296863 -0.238654,0.535517 l -0.471487,-0.151342 q 0.104775,-0.244475 0.221192,-0.552979 0.116416,-0.314325 0.221191,-0.646112 0.110596,-0.337608 0.197908,-0.663574 0.08731,-0.325967 0.157163,-0.617008 z m -1.338791,2.369077 q 0.366712,-0.01746 0.849841,-0.04075 0.48895,-0.02328 1.036108,-0.05821 0.552979,-0.03493 1.100137,-0.06403 l -0.0058,0.506412 q -0.512233,0.04075 -1.036108,0.08149 -0.518054,0.04075 -0.995362,0.07567 -0.471487,0.03493 -0.855662,0.05821 z m 2.048932,-1.076853 0.471487,-0.227013 q 0.186267,0.285221 0.372533,0.617008 0.186267,0.325967 0.337608,0.646113 0.157163,0.314324 0.238655,0.558799 l -0.518054,0.267758 q -0.06985,-0.244474 -0.215371,-0.56462 -0.145521,-0.325967 -0.325967,-0.663575 -0.180445,-0.337608 -0.360891,-0.63447 z m -1.146703,-3.428469 0.570441,0.116417 q -0.104775,0.465666 -0.261937,0.91387 -0.157163,0.442383 -0.34925,0.826558 -0.192088,0.384175 -0.413279,0.681037 -0.04657,-0.05239 -0.133879,-0.122238 -0.08731,-0.06985 -0.180446,-0.133879 -0.08731,-0.06985 -0.157162,-0.110595 0.21537,-0.256117 0.389995,-0.599546 0.180446,-0.34925 0.314325,-0.750887 0.1397,-0.401637 0.221192,-0.820737 z m 1.612369,-0.01746 q 0.104775,0.372533 0.256117,0.762528 0.157162,0.384175 0.337608,0.727604 0.186267,0.337608 0.366712,0.582083 -0.06985,0.04657 -0.157162,0.128058 -0.08149,0.07567 -0.162983,0.162983 -0.07567,0.08149 -0.133879,0.157163 -0.192088,-0.285221 -0.378354,-0.675216 -0.186267,-0.389996 -0.34925,-0.826558 -0.157163,-0.442383 -0.273579,-0.861483 z m -4.441293,1.12342 h 2.060574 v 0.512233 h -2.060574 z m 0.826558,-1.228195 h 0.523875 v 5.395909 h -0.523875 z m -0.01746,1.565803 0.331787,0.116416 q -0.06985,0.34925 -0.174625,0.727604 -0.104775,0.372533 -0.238654,0.733425 -0.133879,0.360891 -0.285221,0.669395 -0.151341,0.308504 -0.314325,0.535517 -0.04075,-0.116417 -0.128058,-0.261938 -0.08149,-0.145521 -0.145521,-0.244475 0.151342,-0.192087 0.291042,-0.454024 0.145521,-0.267759 0.273579,-0.576263 0.128058,-0.308504 0.227012,-0.622828 0.09895,-0.320146 0.162984,-0.622829 z m 0.512233,0.570441 q 0.05821,0.05821 0.168804,0.203729 0.116416,0.145521 0.250295,0.320146 0.133879,0.168804 0.238654,0.320146 0.110596,0.14552 0.157163,0.209549 l -0.325967,0.424921 q -0.05239,-0.116417 -0.151341,-0.285221 -0.09895,-0.174625 -0.20955,-0.35507 -0.110596,-0.180446 -0.215371,-0.337608 -0.09895,-0.157163 -0.168804,-0.256117 z m 4.767259,-1.670578 0.320146,-0.384175 q 0.168804,0.08731 0.366712,0.203729 0.203729,0.116417 0.389996,0.232833 0.186266,0.116417 0.302683,0.20373 l -0.337608,0.436562 Q 74.773777,36.231755 74.593331,36.109517 74.412886,35.98728 74.214977,35.865042 74.017069,35.736984 73.842444,35.63803 Z m -0.325966,1.606549 0.302683,-0.407458 q 0.168804,0.07567 0.372533,0.180446 0.203729,0.104775 0.395816,0.20955 0.192088,0.104775 0.314325,0.192087 l -0.308504,0.459846 q -0.116416,-0.09313 -0.302683,-0.20373 -0.186266,-0.110595 -0.389995,-0.227012 -0.203729,-0.116416 -0.384175,-0.203729 z m 0.197908,2.887132 q 0.157162,-0.221192 0.34925,-0.529696 0.192087,-0.308504 0.389995,-0.651933 0.197909,-0.34925 0.366713,-0.681037 l 0.401637,0.366712 q -0.151342,0.302684 -0.331787,0.634471 -0.174625,0.325966 -0.355071,0.640291 -0.180446,0.314325 -0.360891,0.593725 z m 1.728786,-4.441294 h 3.15489 v 0.552979 h -3.15489 z m -0.291041,3.963986 h 3.748614 v 0.552978 h -3.748614 z m 1.525057,-3.777719 h 0.599546 v 4.097864 h -0.599546 z m 2.770715,-0.168804 h 5.145614 v 0.518054 h -5.145614 z m 1.234016,2.409824 h 2.689224 v 0.436562 h -2.689224 z m -0.122237,0.937153 h 2.927877 v 0.454025 h -2.927877 z m 1.181628,-0.721783 h 0.523875 v 2.107141 H 81.74131 Z M 79.721482,36.76145 h 4.214281 v 0.512233 h -3.661302 v 3.288769 h -0.552979 z m 4.045477,0 h 0.5588 v 3.213098 q 0,0.221192 -0.05821,0.337608 -0.05821,0.116417 -0.221192,0.174625 -0.157162,0.05821 -0.413279,0.06985 -0.250296,0.01164 -0.605366,0.01164 -0.01746,-0.104775 -0.07567,-0.244475 -0.05239,-0.133879 -0.110596,-0.232833 0.168804,0.0058 0.325967,0.0058 0.162983,0.0058 0.291041,0 0.128058,0 0.174625,0 0.08149,0 0.104775,-0.02328 0.0291,-0.0291 0.0291,-0.09895 z m -2.817281,0.686858 0.436562,-0.133879 q 0.110596,0.151342 0.20955,0.337608 0.09895,0.186267 0.14552,0.325967 l -0.465666,0.162983 q -0.03493,-0.145521 -0.133879,-0.337608 -0.09313,-0.197908 -0.192087,-0.355071 z m 1.717144,-0.133879 0.465667,0.1397 q -0.110596,0.215371 -0.232833,0.430741 -0.122238,0.215371 -0.232834,0.366713 l -0.395816,-0.122238 q 0.06985,-0.110596 0.1397,-0.256116 0.07567,-0.145521 0.1397,-0.291042 0.06985,-0.145521 0.116416,-0.267758 z m -0.942974,-2.124603 h 0.605366 v 1.926695 h -0.605366 z m 3.562348,0.605366 h 5.110689 v 0.529696 h -5.110689 z m 2.246841,-0.628649 h 0.587903 v 0.896408 h -0.587903 z m -1.007004,2.112961 v 0.832379 h 2.642657 v -0.832379 z m -0.547158,-0.477308 h 3.771898 v 1.792816 h -3.771898 z m 2.904594,2.322511 0.500591,-0.244475 q 0.192088,0.192088 0.395817,0.4191 0.20955,0.221192 0.395816,0.442383 0.186267,0.215371 0.302684,0.389996 l -0.541338,0.2794 q -0.09895,-0.174625 -0.2794,-0.395817 -0.174624,-0.227012 -0.378353,-0.459845 -0.203729,-0.238654 -0.395817,-0.430742 z m -1.338791,-0.733424 h 0.576262 v 1.577444 q 0,0.221192 -0.05821,0.343429 -0.05821,0.122238 -0.232833,0.180446 -0.168804,0.05821 -0.430741,0.06985 -0.256117,0.01164 -0.62865,0.01164 -0.01746,-0.116417 -0.06985,-0.261938 -0.05239,-0.14552 -0.110596,-0.261937 0.180446,0.0058 0.34925,0.01164 0.168804,0 0.296862,0 0.128059,-0.0058 0.174625,-0.0058 0.08149,0 0.104775,-0.01746 0.0291,-0.02328 0.0291,-0.08149 z m -1.356253,0.488949 0.5588,0.180446 q -0.1397,0.227012 -0.331788,0.471487 -0.186266,0.238654 -0.395816,0.454025 -0.20955,0.20955 -0.4191,0.378354 -0.08731,-0.08149 -0.221191,-0.174625 -0.128059,-0.09313 -0.227013,-0.151342 0.20955,-0.14552 0.407458,-0.337608 0.197908,-0.197908 0.360892,-0.413279 0.162983,-0.21537 0.267758,-0.407458 z"
           id="text9"
           aria-label="松江南京" />
        <path
           style="font-weight:500;font-size:5.82083px;line-height:1.25;font-family:'Noto Sans KR';-inkscape-font-specification:'Noto Sans KR Medium';stroke-width:0.264583"
           d="m 98.987845,37.122342 h 0.605366 v 0.977899 h -0.605366 z m -0.01164,-1.781174 h 0.529696 v 0.203729 q 0,0.285221 -0.104775,0.547158 -0.104775,0.256117 -0.296862,0.477308 -0.192088,0.215371 -0.454025,0.384175 -0.261938,0.168804 -0.582083,0.291041 -0.320146,0.116417 -0.681037,0.174625 l -0.232833,-0.483129 q 0.320145,-0.04075 0.599545,-0.133879 0.2794,-0.09313 0.500591,-0.227012 0.227013,-0.133879 0.389996,-0.296862 0.162983,-0.162984 0.244475,-0.34925 0.08731,-0.192087 0.08731,-0.384175 z m 0.09895,0 h 0.523875 v 0.203729 q 0,0.197908 0.08731,0.384175 0.08731,0.186266 0.244474,0.355071 0.162981,0.162983 0.389991,0.296862 0.22702,0.133879 0.5006,0.227012 0.2794,0.08731 0.59954,0.128058 l -0.22701,0.483129 q -0.36089,-0.05821 -0.68104,-0.174625 -0.32014,-0.122237 -0.587901,-0.291041 -0.261938,-0.168804 -0.454025,-0.384175 -0.186267,-0.215371 -0.291042,-0.471487 -0.104775,-0.261937 -0.104775,-0.552979 z m -2.182811,2.502957 h 4.808004 v 0.48895 h -4.808004 z m 2.392361,0.855662 q 0.861483,0 1.344613,0.244475 0.48895,0.244475 0.48895,0.692679 0,0.448203 -0.48895,0.686857 -0.48313,0.238654 -1.344613,0.238654 -0.855662,0 -1.344611,-0.238654 -0.483129,-0.238654 -0.483129,-0.686857 0,-0.448204 0.483129,-0.692679 0.488949,-0.244475 1.344611,-0.244475 z m 0,0.465666 q -0.587904,0 -0.902228,0.122238 -0.314325,0.116416 -0.314325,0.34925 0,0.232833 0.314325,0.349249 0.314324,0.116417 0.902228,0.116417 0.587904,0 0.902233,-0.116417 0.31432,-0.116416 0.31432,-0.349249 0,-0.232834 -0.31432,-0.34925 -0.314329,-0.122238 -0.902233,-0.122238 z m 4.214283,-3.335335 h 0.50059 v 0.389995 q 0,0.494771 -0.17462,0.931333 -0.17463,0.436562 -0.50642,0.762529 -0.33178,0.320146 -0.80909,0.48895 l -0.30851,-0.483129 q 0.4191,-0.145521 0.71014,-0.407458 0.29105,-0.261938 0.43657,-0.593725 0.15134,-0.337608 0.15134,-0.6985 z m 0.12224,0 h 0.49477 v 0.389995 q 0,0.325967 0.14552,0.62865 0.14552,0.302683 0.42492,0.541337 0.2794,0.232833 0.68104,0.360892 l -0.29105,0.477308 q -0.47148,-0.151342 -0.79745,-0.448204 -0.32015,-0.296863 -0.48895,-0.6985 -0.1688,-0.407458 -0.1688,-0.861483 z m -1.25148,-0.203729 h 2.85803 v 0.49477 h -2.85803 z m 3.42265,-0.372533 h 0.60536 v 3.178173 h -0.60536 z m 0.44238,1.292224 h 0.91387 v 0.500591 h -0.91387 z m -1.54834,2.008186 q 0.54716,0 0.94297,0.122238 0.39582,0.116416 0.61119,0.343429 0.21537,0.221191 0.21537,0.535516 0,0.320146 -0.21537,0.541337 -0.21537,0.227012 -0.61119,0.343429 -0.39581,0.122237 -0.94297,0.122237 -0.54716,0 -0.9488,-0.122237 -0.39581,-0.116417 -0.61118,-0.343429 -0.20955,-0.221191 -0.20955,-0.541337 0,-0.314325 0.20955,-0.535516 0.21537,-0.227013 0.61118,-0.343429 0.40164,-0.122238 0.9488,-0.122238 z m 0,0.483129 q -0.36671,0 -0.62865,0.05821 -0.26194,0.05821 -0.40164,0.174625 -0.1397,0.116417 -0.1397,0.285221 0,0.174625 0.1397,0.296862 0.1397,0.116417 0.40164,0.180446 0.26194,0.05821 0.62865,0.05821 0.37253,0 0.62865,-0.05821 0.26193,-0.06403 0.40163,-0.180446 0.1397,-0.122237 0.1397,-0.296862 0,-0.168804 -0.1397,-0.285221 -0.1397,-0.116416 -0.40163,-0.174625 -0.25612,-0.05821 -0.62865,-0.05821 z m 4.78472,-3.416827 h 0.60537 v 2.235199 h -0.60537 z m 0,2.043111 h 0.43075 q 0.5588,0 1.15252,-0.04657 0.59955,-0.04657 1.24566,-0.174625 l 0.0699,0.49477 q -0.65776,0.133879 -1.27476,0.186267 -0.61119,0.04657 -1.19327,0.04657 h -0.43075 z m 3.30624,-2.409823 h 0.60536 v 3.835927 h -0.60536 z m 0.42492,1.536699 h 0.93133 v 0.518054 h -0.93133 z m -3.17236,3.178173 h 3.53325 v 0.49477 h -3.53325 z m 0,-1.245658 h 0.61119 v 1.501774 h -0.61119 z m 8.32961,-3.469214 h 0.61119 v 3.183994 h -0.61119 z m -1.16999,3.30041 q 0.5588,0 0.96044,0.122238 0.40164,0.116416 0.62283,0.349249 0.22119,0.227013 0.22119,0.541338 0,0.325966 -0.22119,0.552978 -0.22119,0.227013 -0.62283,0.343429 -0.40164,0.122238 -0.96044,0.122238 -0.55297,0 -0.96043,-0.122238 -0.40164,-0.116416 -0.62283,-0.343429 -0.21537,-0.227012 -0.21537,-0.552978 0,-0.314325 0.21537,-0.541338 0.22119,-0.232833 0.62283,-0.349249 0.40746,-0.122238 0.96043,-0.122238 z m 0,0.477308 q -0.37253,0 -0.64029,0.06403 -0.26775,0.05821 -0.40745,0.180446 -0.1397,0.122238 -0.1397,0.291042 0,0.174624 0.1397,0.296862 0.1397,0.122237 0.40745,0.186266 0.26776,0.06403 0.64029,0.06403 0.38418,0 0.64612,-0.06403 0.26776,-0.06403 0.40746,-0.186266 0.1397,-0.122238 0.1397,-0.296862 0,-0.168804 -0.1397,-0.291042 -0.1397,-0.122237 -0.40746,-0.180446 -0.26194,-0.06403 -0.64612,-0.06403 z m -1.23983,-3.236381 h 0.50059 v 0.384175 q 0,0.49477 -0.18045,0.931332 -0.17462,0.436563 -0.50641,0.762529 -0.33179,0.320146 -0.80909,0.48895 l -0.31433,-0.477308 q 0.42492,-0.145521 0.71014,-0.407458 0.29104,-0.267759 0.44239,-0.599546 0.15716,-0.337608 0.15716,-0.698499 z m 0.12224,0 h 0.50059 v 0.384175 q 0,0.250295 0.0815,0.488949 0.0873,0.238654 0.25612,0.448204 0.1688,0.20955 0.40745,0.372533 0.24448,0.162984 0.55298,0.256117 l -0.3085,0.483129 q -0.46567,-0.157163 -0.80328,-0.459846 -0.33178,-0.302683 -0.51223,-0.710141 -0.17462,-0.413279 -0.17462,-0.878945 z m -1.27477,-0.157163 h 2.9046 v 0.48895 h -2.9046 z"
           id="text9-3"
           aria-label="송장 난징" />
      </g>
    </g>
  </g>
</svg>
