<?xml version="1.0" encoding="UTF-8" standalone="no"?>
<!-- Created with Inkscape (http://www.inkscape.org/) -->

<svg
   width="500"
   height="250"
   viewBox="0 0 132.29166 66.145833"
   version="1.1"
   id="svg1"
   inkscape:version="1.3.2 (091e20e, 2023-11-25, custom)"
   sodipodi:docname="g16.svg"
   xmlns:inkscape="http://www.inkscape.org/namespaces/inkscape"
   xmlns:sodipodi="http://sodipodi.sourceforge.net/DTD/sodipodi-0.dtd"
   xmlns="http://www.w3.org/2000/svg"
   xmlns:svg="http://www.w3.org/2000/svg">
  <sodipodi:namedview
     id="namedview1"
     pagecolor="#9e652e"
     bordercolor="#ffffff"
     borderopacity="1"
     inkscape:showpageshadow="0"
     inkscape:pageopacity="0"
     inkscape:pagecheckerboard="false"
     inkscape:deskcolor="#d1d1d1"
     inkscape:document-units="mm"
     inkscape:zoom="2.0208096"
     inkscape:cx="288.49823"
     inkscape:cy="82.145295"
     inkscape:window-width="1920"
     inkscape:window-height="1009"
     inkscape:window-x="1912"
     inkscape:window-y="-8"
     inkscape:window-maximized="1"
     inkscape:current-layer="layer1" />
  <defs
     id="defs1">
    <rect
       x="560.66638"
       y="34.144731"
       width="279.32397"
       height="128.59143"
       id="rect6" />
    <rect
       x="157.85752"
       y="62.351248"
       width="329.07603"
       height="135.09437"
       id="rect4" />
    <rect
       x="157.85751"
       y="62.35125"
       width="329.07602"
       height="135.09438"
       id="rect4-5" />
  </defs>
  <g
     inkscape:label="Layer 1"
     inkscape:groupmode="layer"
     id="layer1">
    <rect
       style="fill:#f4eed7;fill-opacity:1;stroke:none;stroke-width:0.953294;stroke-dasharray:none"
       id="rect5"
       width="132.29167"
       height="66.145836"
       x="-2.5431316e-06"
       y="-1.2715658e-06"
       ry="0" />
    <g
       id="g1"
       transform="translate(-18.68935)">
      <path
         id="rect1"
         style="fill:none;fill-opacity:0;stroke:#000000;stroke-width:0.942789"
         d="m 39.737549,14.352791 h 12.425165 c 3.927061,0 7.088558,3.161497 7.088558,7.088559 v 23.263136 c 0,3.927062 -3.161497,7.088559 -7.088558,7.088559 H 39.737549 c -3.927061,0 -7.088558,-3.161497 -7.088558,-7.088559 V 21.44135 c 0,-3.927062 3.161497,-7.088559 7.088558,-7.088559 z" />
      <path
         style="font-size:14.0262px;line-height:1.25;font-family:'AR UDJingXiHeiE1G30 EB';-inkscape-font-specification:'AR UDJingXiHeiE1G30 EB';stroke-width:0.292211"
         d="m 48.713348,29.817207 q -0.518969,0.729362 -1.304437,1.080017 -0.771441,0.336629 -1.767301,0.336629 -2.188087,0 -3.478497,-1.374568 -1.290411,-1.388594 -1.290411,-3.871231 0,-2.496664 1.360542,-3.871231 1.360541,-1.374568 3.674864,-1.374568 1.865485,0 3.029659,0.855598 1.178201,0.841572 1.416647,2.412507 h -1.781328 q -0.140262,-0.827546 -0.827546,-1.346516 -0.673257,-0.532995 -1.837432,-0.532995 -1.556908,0 -2.370428,1.009886 -0.813519,0.99586 -0.813519,2.847319 0,1.977694 0.855598,2.91745 0.855598,0.925729 2.328349,0.925729 1.29041,0 2.047825,-0.757415 0.757415,-0.757415 0.757415,-1.739249 v -0.210393 h -2.875371 v -1.388594 h 4.586568 v 5.31593 h -1.711197 z"
         id="text2"
         aria-label="G" />
      <path
         style="font-size:14.3917px;line-height:1.25;font-family:'AR UDJingXiHeiE1G30 EB';-inkscape-font-specification:'AR UDJingXiHeiE1G30 EB';stroke-width:0.261667"
         d="m 41.042538,36.584172 -1.683829,1.568695 -0.834718,-1.280861 2.705639,-2.460981 h 1.568696 v 10.405199 h -1.755788 z m 9.383378,8.419144 q -0.820327,0 -1.496736,-0.230267 -0.662019,-0.230267 -1.136945,-0.733976 -0.575668,-0.59006 -0.863502,-1.597479 -0.287834,-1.021811 -0.287834,-2.532939 0,-2.691248 0.978636,-4.173593 0.993027,-1.496737 2.835165,-1.496737 1.496736,0 2.317063,0.805935 0.834719,0.805935 0.921069,1.986055 h -1.755787 q -0.02878,-0.489318 -0.402968,-0.921069 -0.359792,-0.446143 -1.064986,-0.446143 -0.93546,0 -1.482345,1.021811 -0.532493,1.021811 -0.546884,2.532939 0.431751,-0.59006 1.050594,-0.892285 0.618843,-0.302226 1.395995,-0.302226 1.43917,0 2.259497,0.949852 0.820326,0.935461 0.820326,2.432197 0,1.727004 -0.978635,2.662465 -0.978636,0.93546 -2.561723,0.93546 z M 52.15292,41.47735 q 0,-0.892285 -0.489318,-1.453562 -0.474926,-0.575668 -1.252077,-0.575668 -0.849111,0 -1.35282,0.546885 -0.489318,0.532493 -0.518101,1.43917 0,1.007419 0.489317,1.583087 0.50371,0.561276 1.367212,0.561276 0.834719,0 1.295253,-0.546884 0.460534,-0.546885 0.460534,-1.554304 z"
         id="text3"
         aria-label="16" />
      <path
         style="font-weight:500;font-size:72px;line-height:1.25;font-family:'Noto Sans TC';-inkscape-font-specification:'Noto Sans TC Medium';white-space:pre"
         d="m 162.03342,81.297406 h 63.648 v 6.408 h -63.648 z m 15.264,29.808004 h 33.264 v 5.4 h -33.264 z m -1.512,11.592 h 36.216 v 5.616 h -36.216 z m 14.616,-8.928 h 6.48 v 26.064 h -6.48 z m -24.984,-19.440004 h 52.128 v 6.336004 h -45.288 v 40.68 h -6.84 z m 50.04,0 h 6.912 v 39.744004 q 0,2.736 -0.72,4.176 -0.72,1.44 -2.736,2.16 -1.944,0.72 -5.112,0.864 -3.096,0.144 -7.488,0.144 -0.216,-1.296 -0.936,-3.024 -0.648,-1.656 -1.368,-2.88 2.088,0.072 4.032,0.072 2.016,0.072 3.6,0 1.584,0 2.16,0 1.008,0 1.296,-0.288 0.36,-0.36 0.36,-1.224 z m -34.848,8.496004 5.4,-1.656 q 1.368,1.872 2.592,4.176 1.224,2.304 1.8,4.032 l -5.76,2.016 q -0.432,-1.8 -1.656,-4.176 -1.152,-2.448 -2.376,-4.392 z m 21.24,-1.656 5.76,1.728 q -1.368,2.664 -2.88,5.328 -1.512,2.664 -2.88,4.536 l -4.896,-1.512 q 0.864,-1.368 1.728,-3.168 0.936,-1.8 1.728,-3.6 0.864,-1.8 1.44,-3.312 z m -11.664,-26.280004 h 7.488 v 23.832 h -7.488 z m 44.064,8.352 h 63.216 v 6.696 h -63.216 z m 15.336,17.496004 v 9.936 h 32.688 v -9.936 z m -6.768,-5.904004 h 46.656 v 21.744004 h -46.656 z m 35.784,29.232004 5.544,-3.456 q 2.232,2.304 4.752,5.04 2.52,2.736 4.752,5.4 2.304,2.592 3.672,4.68 l -5.976,4.032 q -1.224,-2.088 -3.384,-4.824 -2.16,-2.736 -4.608,-5.616 -2.448,-2.88 -4.752,-5.256 z m -16.056,-9.432 h 7.2 v 19.44 q 0,2.808 -0.792,4.32 -0.72,1.512 -2.808,2.232 -2.088,0.72 -5.328,0.864 -3.24,0.216 -7.848,0.144 -0.216,-1.44 -0.864,-3.312 -0.648,-1.8 -1.368,-3.24 2.232,0.072 4.32,0.144 2.088,0 3.672,0 1.584,0 2.232,0 0.936,-0.072 1.224,-0.288 0.36,-0.288 0.36,-1.008 z m -16.56,6.12 6.624,2.376 q -2.808,4.32 -6.768,8.784 -3.888,4.392 -7.632,7.632 -0.936,-1.008 -2.448,-2.304 -1.44,-1.224 -2.52,-2.016 2.376,-1.872 4.752,-4.32 2.376,-2.52 4.464,-5.184 2.16,-2.664 3.528,-4.968 z m 13.392,-44.568004 6.624,-2.16 q 1.512,2.376 3.096,5.256 1.656,2.808 2.52,4.824 l -7.056,2.52 q -0.72,-2.088 -2.232,-5.04 -1.512,-2.952 -2.952,-5.4 z m 79.776,27.936004 v 4.104 h 20.376 v -4.104 z m 0,-8.352004 v 3.96 h 20.376 v -3.96 z m -6.12,-4.752 h 32.832 v 21.888004 h -32.832 z m 3.528,-16.344 6.264,1.584 q -2.088,5.904 -5.544,11.376 -3.384,5.4 -7.128,9 -0.576,-0.504 -1.584,-1.296 -1.008,-0.792 -2.016,-1.512 -1.008,-0.72 -1.8,-1.152 3.816,-3.24 6.912,-7.992 3.096,-4.752 4.896,-10.008 z m 0.936,6.912 h 32.616 v 5.472 h -35.352 z m 3.744,29.376004 5.976,1.728 q -3.168,5.472 -8.136,10.08 -4.968,4.536 -10.224,7.56 -0.432,-0.648 -1.296,-1.44 -0.864,-0.792 -1.8,-1.584 -0.864,-0.864 -1.512,-1.368 5.184,-2.52 9.72,-6.408 4.608,-3.96 7.272,-8.568 z m -2.088,5.76 h 22.824 v 5.04 h -27.432 z m 20.592,0 h 1.296 l 1.152,-0.288 4.248,2.232 q -2.592,5.112 -6.768,8.928 -4.176,3.816 -9.432,6.624 -5.256,2.736 -11.304,4.536 -5.976,1.872 -12.24,2.952 -0.288,-0.792 -0.864,-1.872 -0.504,-1.008 -1.152,-2.088 -0.576,-1.08 -1.152,-1.728 5.832,-0.792 11.448,-2.232 5.616,-1.512 10.44,-3.744 4.896,-2.304 8.568,-5.328 3.672,-3.096 5.76,-7.056 z m -27.792,-2.088 q 3.6,5.4 9.504,9.576 5.904,4.104 13.536,6.912 7.704,2.808 16.488,4.104 -0.648,0.72 -1.44,1.8 -0.792,1.08 -1.512,2.16 -0.72,1.152 -1.152,2.016 -8.928,-1.728 -16.632,-5.04 -7.632,-3.312 -13.752,-8.208 -6.048,-4.968 -10.08,-11.448 z m -11.592,-23.976004 6.048,2.376 q -2.376,4.392 -5.616,8.784004 -3.24,4.392 -6.768,8.28 -3.456,3.816 -6.984,6.768 -0.288,-0.792 -0.936,-2.088 -0.576,-1.296 -1.296,-2.592 -0.72,-1.368 -1.296,-2.232 3.096,-2.304 6.192,-5.4 3.168,-3.168 5.904,-6.696004 2.736,-3.6 4.752,-7.2 z m -1.44,-15.84 6.552,2.52 q -2.088,3.24 -4.968,6.552 -2.88,3.24 -6.048,6.192 -3.168,2.88 -6.336,5.112 -0.36,-0.792 -1.008,-1.872 -0.576,-1.08 -1.296,-2.088 -0.72,-1.08 -1.224,-1.728 2.664,-1.872 5.4,-4.32 2.808,-2.448 5.184,-5.184 2.376,-2.736 3.744,-5.184 z m -5.112,30.024004 6.624,-6.624004 0.288,0.144 v 43.128004 h -6.912 z m 63.288,13.32 h 65.448 v 6.336 h -65.448 z m 26.712,-30.312004 h 11.664 v 4.464 h -11.664 z m 20.808,-10.08 h 11.304 v 5.616 h -11.304 z m 0.288,13.968 h 10.368 v 5.544 h -10.368 z m -0.504,13.248004 h 10.296 v 5.544 h -10.296 z m -39.744,-13.392004 h 10.368 v 5.472 h -10.368 z m 0.216,13.248004 h 10.44 v 5.472 h -10.44 z m 12.168,-26.640004 h 25.56 v 43.056004 h -5.112 V 83.457406 h -15.48 v 37.800004 h -4.968 z m 10.584,22.536004 v 8.208 h 4.392 v -8.208 z m -3.096,-4.176004 h 10.656 v 16.488004 h -10.656 z m 27.792,-18.792 h 6.048 q -0.072,5.328 -0.216,11.376 -0.144,6.048 -0.36,12.096004 -0.216,5.976 -0.504,11.376 -0.216,5.4 -0.504,9.504 h -5.832 q 0.288,-4.176 0.576,-9.648 0.288,-5.472 0.432,-11.448 0.216,-6.048004 0.288,-12.024004 0.144,-5.976 0.072,-11.232 z m -38.592,-2.448 3.096,5.832 q -3.24,1.08 -6.912,2.088 -3.672,1.008 -6.768,1.656 -0.144,-1.08 -0.648,-2.448 -0.504,-1.44 -0.936,-2.592 3.024,-0.936 6.336,-2.16 3.384,-1.224 5.832,-2.376 z m -12.168,4.536 5.832,1.728 1.152,38.232004 h -5.904 z m 34.704,49.392004 3.744,-4.752 q 3.816,1.8 7.704,3.816 3.888,1.944 7.344,3.888 3.456,1.944 5.904,3.6 l -4.464,5.184 q -2.304,-1.656 -5.688,-3.744 -3.312,-2.016 -7.056,-4.104 -3.744,-2.088 -7.488,-3.888 z m -18.648,-4.176 5.616,4.248 q -3.024,2.232 -6.84,4.464 -3.744,2.16 -7.632,4.104 -3.888,2.016 -7.488,3.528 -0.648,-1.08 -1.8,-2.592 -1.152,-1.512 -2.088,-2.592 3.456,-1.296 7.2,-3.168 3.816,-1.944 7.272,-4.032 3.528,-2.088 5.76,-3.96 z"
         id="text4"
         transform="matrix(0.26166763,0,0,0.26166763,21.692958,-4.0633201)"
         aria-label="南京復興" />
      <path
         style="font-size:7.32669px;line-height:1.25;font-family:'AR UDJingXiHeiE1G30 EB';-inkscape-font-specification:'AR UDJingXiHeiE1G30 EB';stroke-width:0.261667"
         d="m 65.146897,37.061886 v 3.824533 h -0.93049 v -5.297197 h 0.959796 l 2.600975,3.912452 v -3.912452 h 0.93049 v 5.297197 h -1.01841 z m 7.597772,1.685139 -0.835242,-2.263947 -0.849896,2.263947 z m -1.956226,0.725343 -0.527522,1.414051 h -0.945143 l 2.132067,-5.297197 h 0.95247 l 2.117413,5.297197 h -0.967123 l -0.534848,-1.414051 z m 5.267883,-2.410482 v 3.824533 h -0.93049 v -5.297197 h 0.959797 l 2.600975,3.912452 v -3.912452 h 0.93049 v 5.297197 h -1.01841 z m 5.421746,2.469095 q 0,0.337028 0.168514,0.527522 0.168514,0.190494 0.542175,0.190494 0.366335,0.0073 0.556829,-0.197821 0.190494,-0.212474 0.190494,-0.600789 v -3.861165 h 0.923163 v 3.941759 q 0,0.666729 -0.439602,1.06237 -0.432275,0.388315 -1.23821,0.388315 -0.783956,0 -1.208904,-0.380988 -0.424948,-0.388315 -0.424948,-0.989103 v -0.468909 h 0.930489 z m 4.491258,-3.941759 v 5.297197 h -0.93049 v -5.297197 z m 2.146713,1.472664 v 3.824533 h -0.930489 v -5.297197 h 0.959796 l 2.600975,3.912452 v -3.912452 h 0.93049 v 5.297197 h -1.01841 z m 8.66747,3.179784 q -0.271087,0.380988 -0.681382,0.564155 -0.402968,0.175841 -0.923163,0.175841 -1.142964,0 -1.817019,-0.718016 -0.674056,-0.725342 -0.674056,-2.022166 0,-1.304151 0.710689,-2.022167 0.710689,-0.718016 1.919593,-0.718016 0.97445,0 1.582565,0.446929 0.615442,0.439601 0.739996,1.26019 h -0.93049 q -0.07327,-0.432274 -0.432274,-0.703362 -0.351682,-0.278414 -0.959797,-0.278414 -0.813262,0 -1.23821,0.527521 -0.424948,0.520195 -0.424948,1.487319 0,1.033063 0.446928,1.523951 0.446928,0.483562 1.21623,0.483562 0.674056,0 1.069697,-0.395642 0.395641,-0.395641 0.395641,-0.908509 v -0.109901 h -1.501971 v -0.725342 h 2.395827 v 2.776816 h -0.893856 z m 4.842937,-1.707119 v 2.351868 h -0.93049 v -5.297197 h 3.71463 v 0.725342 h -2.78414 v 1.494645 h 2.44711 v 0.725342 z m 8.00075,0.498215 q 0,0.923163 -0.57881,1.436031 -0.57881,0.512869 -1.64851,0.512869 -1.08435,0 -1.67048,-0.505542 -0.57881,-0.505542 -0.57881,-1.436031 v -3.450871 h 0.93049 v 3.406911 q 0,0.600788 0.3297,0.930489 0.3297,0.329701 0.9891,0.329701 0.62277,0 0.95247,-0.315047 0.33703,-0.322375 0.33703,-0.959797 v -3.392257 h 0.93782 z m 4.30077,-3.443544 h 1.07702 l -1.82435,2.557015 1.92692,2.740182 h -1.08435 l -1.38474,-2.044147 -1.38475,2.044147 h -1.05504 l 1.91227,-2.747509 -1.83168,-2.549688 h 1.09168 l 1.27485,1.904939 z m 2.7182,0 v 5.297197 h -0.93049 v -5.297197 z m 2.14672,1.472664 v 3.824533 h -0.93049 v -5.297197 h 0.95979 l 2.60098,3.912452 v -3.912452 h 0.93049 v 5.297197 h -1.01841 z m 8.66746,3.179784 q -0.27108,0.380988 -0.68138,0.564155 -0.40297,0.175841 -0.92316,0.175841 -1.14297,0 -1.81702,-0.718016 -0.67406,-0.725342 -0.67406,-2.022166 0,-1.304151 0.71069,-2.022167 0.71069,-0.718016 1.9196,-0.718016 0.97444,0 1.58256,0.446929 0.61544,0.439601 0.74,1.26019 h -0.93049 q -0.0733,-0.432274 -0.43228,-0.703362 -0.35168,-0.278414 -0.95979,-0.278414 -0.81327,0 -1.23822,0.527521 -0.42494,0.520195 -0.42494,1.487319 0,1.033063 0.44692,1.523951 0.44693,0.483562 1.21624,0.483562 0.67405,0 1.06969,-0.395642 0.39564,-0.395641 0.39564,-0.908509 v -0.109901 h -1.50197 v -0.725342 h 2.39583 v 2.776816 h -0.89386 z"
         id="text5"
         aria-label="NANJING FUXING" />
      <path
         d="m 63.903754,44.084106 h 6.476794 v 0.652075 h -6.476794 z m 1.553258,3.033249 h 3.384931 v 0.549502 h -3.384931 z m -0.153861,1.179598 h 3.685326 v 0.571481 h -3.685326 z m 1.487319,-0.90851 h 0.659402 v 2.652262 H 66.79047 Z m -2.542362,-1.978206 h 5.304524 v 0.644748 h -4.608488 v 4.13958 h -0.696036 z m 5.09205,0 h 0.703362 v 4.044333 q 0,0.278414 -0.07327,0.424948 -0.07327,0.146533 -0.278414,0.2198 -0.197821,0.07327 -0.520195,0.08792 -0.315048,0.01465 -0.761976,0.01465 -0.02198,-0.13188 -0.09525,-0.307721 -0.06594,-0.168514 -0.139207,-0.293068 0.212474,0.0073 0.410295,0.0073 0.205147,0.0073 0.366334,0 0.161187,0 0.219801,0 0.102573,0 0.13188,-0.02931 0.03663,-0.03663 0.03663,-0.124553 z m -3.546118,0.864549 0.549501,-0.168514 q 0.139208,0.190494 0.263761,0.424948 0.124554,0.234454 0.183168,0.410295 l -0.586136,0.205147 q -0.04396,-0.183167 -0.168514,-0.424948 -0.117227,-0.249107 -0.24178,-0.446928 z m 2.161373,-0.168514 0.586135,0.175841 q -0.139207,0.271087 -0.293067,0.542175 -0.153861,0.271087 -0.293068,0.461581 l -0.498215,-0.15386 q 0.08792,-0.139207 0.175841,-0.322375 0.09525,-0.183167 0.17584,-0.366334 0.08792,-0.183167 0.146534,-0.337028 z M 66.768489,43.43203 h 0.761976 v 2.425135 h -0.761976 z m 4.483935,0.761976 h 6.432834 v 0.666729 h -6.432834 z m 2.828102,-0.791283 h 0.739996 v 1.128311 h -0.739996 z m -1.267517,2.659589 v 1.047717 h 3.326317 V 46.062312 Z M 72.1243,45.461523 h 4.747695 v 2.256621 H 72.1243 Z m 3.656018,2.92335 0.630096,-0.307721 q 0.241781,0.241781 0.498215,0.527522 0.263761,0.278414 0.498215,0.556828 0.234454,0.271088 0.380987,0.490888 l -0.681382,0.351681 q -0.124553,-0.2198 -0.351681,-0.498215 -0.219801,-0.28574 -0.476235,-0.578808 -0.256434,-0.300394 -0.498215,-0.542175 z M 74.09518,47.46171 h 0.725342 v 1.985533 q 0,0.278414 -0.07327,0.432275 -0.07327,0.15386 -0.293068,0.227127 -0.212474,0.07327 -0.542175,0.08792 -0.322374,0.01465 -0.791282,0.01465 -0.02198,-0.146534 -0.08792,-0.329701 -0.06594,-0.183168 -0.139208,-0.329701 0.227128,0.0073 0.439602,0.01465 0.212474,0 0.373661,0 0.161187,-0.0073 0.219801,-0.0073 0.102573,0 0.13188,-0.02198 0.03663,-0.02931 0.03663,-0.102573 z m -1.707119,0.615442 0.703362,0.227127 q -0.17584,0.285741 -0.417621,0.593462 -0.234454,0.300394 -0.498215,0.571482 -0.263761,0.263761 -0.527522,0.476235 -0.1099,-0.102574 -0.278414,-0.219801 -0.161187,-0.117227 -0.285741,-0.190494 0.263761,-0.183167 0.512868,-0.424948 0.249108,-0.249107 0.454255,-0.520195 0.205147,-0.271087 0.337028,-0.512868 z m 9.151036,-4.674429 0.681382,0.161188 q -0.227127,0.622768 -0.571482,1.208904 -0.337028,0.578808 -0.718015,0.974449 -0.05861,-0.05861 -0.168514,-0.13188 -0.109901,-0.08059 -0.227128,-0.153861 -0.1099,-0.07327 -0.190494,-0.117227 0.380988,-0.351681 0.696036,-0.871876 0.315048,-0.520195 0.498215,-1.069697 z m 0.02931,0.718016 h 3.524138 v 0.571482 h -3.824533 z m 0.322374,2.300581 v 0.424948 h 2.110087 V 46.42132 Z m 0,-0.84257 v 0.410295 h 2.110087 V 45.57875 Z m -0.622769,-0.461581 h 3.377605 v 2.183354 h -3.377605 z m 0.835243,1.99286 0.600789,0.17584 q -0.307721,0.549502 -0.79861,1.01841 -0.490888,0.468908 -0.996429,0.769303 -0.05129,-0.05861 -0.139208,-0.139207 -0.08792,-0.08059 -0.183167,-0.161188 -0.08792,-0.08059 -0.161187,-0.13188 0.505542,-0.263761 0.959796,-0.659402 0.454255,-0.402968 0.718016,-0.871876 z m -0.117227,0.945143 q 0.278414,0.417621 0.761976,0.739995 0.490888,0.322375 1.135637,0.534849 0.644748,0.205147 1.399398,0.293067 -0.102574,0.102574 -0.219801,0.271088 -0.117227,0.175841 -0.183167,0.307721 -0.791283,-0.117227 -1.450685,-0.380988 -0.652075,-0.263761 -1.157617,-0.659402 -0.498215,-0.402968 -0.835243,-0.93049 z m 0.01465,-0.307721 h 2.190681 v 0.476235 h -2.630282 z m 2.01484,0 h 0.131881 l 0.117227,-0.02931 0.417621,0.205147 q -0.256434,0.520195 -0.666729,0.90851 -0.410294,0.380988 -0.937816,0.659402 -0.527522,0.271088 -1.135637,0.446928 -0.600789,0.175841 -1.245537,0.278414 -0.03663,-0.124553 -0.131881,-0.293067 -0.08792,-0.168514 -0.168514,-0.278414 0.593462,-0.06594 1.150291,-0.205148 0.564155,-0.146534 1.047716,-0.366334 0.483562,-0.219801 0.849896,-0.527522 0.366335,-0.307721 0.571482,-0.710689 z m -4.007699,-2.806123 0.615442,0.227128 q -0.249108,0.439601 -0.571482,0.879203 -0.322375,0.432274 -0.688709,0.820589 -0.359008,0.380988 -0.718016,0.681382 -0.02931,-0.08059 -0.102573,-0.19782 -0.06594,-0.117228 -0.139208,-0.241781 -0.07327,-0.124554 -0.13188,-0.190494 0.322374,-0.249108 0.644749,-0.564155 0.322374,-0.315048 0.600788,-0.674056 0.285741,-0.366334 0.490889,-0.739996 z M 79.853958,43.41005 80.4694,43.651831 q -0.219801,0.315048 -0.512868,0.637422 -0.293068,0.322374 -0.608115,0.615442 -0.315048,0.293068 -0.630096,0.520195 -0.04396,-0.07327 -0.1099,-0.161187 -0.06594,-0.09525 -0.139207,-0.190494 -0.06594,-0.09525 -0.124554,-0.153861 0.278414,-0.19782 0.564155,-0.446928 0.285741,-0.256434 0.534848,-0.534848 0.249108,-0.278414 0.410295,-0.527522 z m -0.490888,2.98929 0.578808,-0.578809 0.07327,0.02931 v 4.381361 H 79.36307 Z m 6.41818,1.479991 h 6.689268 V 48.52408 H 85.78125 Z m 2.747509,-3.157803 h 1.186924 v 0.454255 h -1.186924 z m 2.0588,-0.95247 h 1.157617 v 0.571482 h -1.157617 z m 0.03663,1.377418 h 1.06237 v 0.564155 h -1.06237 z m 0,1.348111 h 1.04039 v 0.564155 h -1.04039 z m -4.051659,-1.348111 h 1.055043 v 0.564155 h -1.055043 z m 0.02198,1.348111 h 1.033063 v 0.564155 h -1.033063 z m 1.23821,-2.732856 h 2.600975 v 4.381361 H 89.913503 V 44.29658 h -1.582565 v 3.846512 h -0.498215 z m 1.06237,2.256621 v 0.835243 h 0.439602 v -0.835243 z m -0.315047,-0.424948 h 1.077023 v 1.677812 h -1.077023 z m -2.278601,-1.802366 0.761976,0.146534 q -0.02198,0.08059 -0.161187,0.102574 l 0.117227,4.117599 h -0.593462 z m 5.077396,-0.02198 h 0.608116 q -0.0073,0.542175 -0.02198,1.15029 -0.0073,0.608116 -0.02931,1.216231 -0.02198,0.608115 -0.05129,1.15029 -0.02198,0.542175 -0.05129,0.95247 h -0.600788 q 0.03663,-0.417621 0.05861,-0.967123 0.02931,-0.549502 0.05129,-1.157617 0.02198,-0.608115 0.02931,-1.208904 0.0073,-0.600789 0.0073,-1.135637 z m -3.824532,-0.329701 0.468908,0.520195 q -0.315047,0.161187 -0.666729,0.307721 -0.351681,0.146534 -0.659402,0.249107 -0.02198,-0.09525 -0.08059,-0.234454 -0.05861,-0.146533 -0.117227,-0.249107 0.278414,-0.124554 0.571481,-0.285741 0.293068,-0.168514 0.483562,-0.307721 z m 2.154047,5.582938 0.505542,-0.461582 q 0.402968,0.183168 0.820589,0.395642 0.417621,0.205147 0.783956,0.410294 0.373661,0.205148 0.637422,0.373662 l -0.659402,0.476234 Q 91.554682,50.048031 91.210327,49.835557 90.8733,49.63041 90.484985,49.417936 90.096671,49.205462 89.708356,49.022295 Z m -1.838999,-0.461582 0.637422,0.432275 q -0.285741,0.219801 -0.659402,0.446928 -0.366335,0.227128 -0.761976,0.424948 -0.388315,0.205148 -0.725342,0.351681 -0.102574,-0.1099 -0.263761,-0.256434 -0.153861,-0.139207 -0.278415,-0.234454 0.351682,-0.146534 0.739996,-0.337028 0.388315,-0.19782 0.732669,-0.417621 0.351681,-0.219801 0.578809,-0.410295 z"
         id="text5-9"
         style="font-weight:500;font-size:7.32669px;line-height:1.25;font-family:'Noto Sans JP';-inkscape-font-specification:'Noto Sans JP Medium';stroke-width:0.261667"
         aria-label="南京復興" />
      <path
         style="font-weight:500;font-size:7.32669px;line-height:1.25;font-family:'Noto Sans KR';-inkscape-font-specification:'Noto Sans KR Medium';stroke-width:0.261667"
         d="m 100.06761,44.053755 h 0.76198 v 2.813449 h -0.76198 z m 0,2.571668 h 0.54218 q 0.70336,0 1.45068,-0.05861 0.75465,-0.05861 1.56791,-0.2198 l 0.0879,0.622768 q -0.82791,0.168514 -1.60454,0.234454 -0.7693,0.05861 -1.50197,0.05861 h -0.54218 z m 4.16156,-3.03325 h 0.76198 v 4.828289 h -0.76198 z m 0.53485,1.934246 h 1.17227 v 0.652076 h -1.17227 z m -3.99304,4.000373 h 4.4473 v 0.622769 h -4.4473 z m 0,-1.567912 h 0.7693 v 1.890286 h -0.7693 z m 10.48449,-4.366707 h 0.7693 v 4.0077 h -0.7693 z m -1.47266,4.154233 q 0.70336,0 1.2089,0.153861 0.50554,0.146534 0.78395,0.439601 0.27842,0.285741 0.27842,0.681383 0,0.410294 -0.27842,0.696035 -0.27841,0.285741 -0.78395,0.432275 -0.50554,0.15386 -1.2089,0.15386 -0.69604,0 -1.20891,-0.15386 -0.50554,-0.146534 -0.78395,-0.432275 -0.27109,-0.285741 -0.27109,-0.696035 0,-0.395642 0.27109,-0.681383 0.27841,-0.293067 0.78395,-0.439601 0.51287,-0.153861 1.20891,-0.153861 z m 0,0.600789 q -0.46891,0 -0.80594,0.08059 -0.33703,0.07327 -0.51287,0.227127 -0.17584,0.15386 -0.17584,0.366335 0,0.2198 0.17584,0.373661 0.17584,0.15386 0.51287,0.234454 0.33703,0.08059 0.80594,0.08059 0.48356,0 0.81326,-0.08059 0.33703,-0.08059 0.51287,-0.234454 0.17584,-0.153861 0.17584,-0.373661 0,-0.212475 -0.17584,-0.366335 -0.17584,-0.153861 -0.51287,-0.227127 -0.3297,-0.08059 -0.81326,-0.08059 z m -1.56059,-4.07364 h 0.6301 v 0.483562 q 0,0.622768 -0.22713,1.17227 -0.2198,0.549502 -0.63742,0.959797 -0.41763,0.402968 -1.01841,0.615442 l -0.39565,-0.600789 q 0.53485,-0.183167 0.89386,-0.512868 0.36634,-0.337028 0.55683,-0.754649 0.19782,-0.424948 0.19782,-0.879203 z m 0.15386,0 h 0.6301 v 0.483562 q 0,0.315047 0.10257,0.615442 0.1099,0.300394 0.32237,0.564155 0.21248,0.263761 0.51287,0.468908 0.30772,0.205147 0.69604,0.322374 l -0.38832,0.608116 q -0.58613,-0.197821 -1.01108,-0.578809 -0.41762,-0.380988 -0.64475,-0.893856 -0.2198,-0.520195 -0.2198,-1.10633 z m -1.60454,-0.19782 h 3.65601 v 0.615442 h -3.65601 z m 9.0851,-0.146534 h 4.94551 v 0.615442 h -4.94551 z m 0.0366,2.300581 h 4.87225 v 0.615442 h -4.87225 z m 0.90118,-1.809693 h 0.76931 v 2.139394 h -0.76931 z m 2.30058,0 h 0.76931 v 2.139394 h -0.76931 z m -3.80255,3.09919 h 6.0665 v 0.630095 h -6.0665 z m 2.64494,0.278414 h 0.7693 v 2.483748 h -0.7693 z m 8.85064,-4.20552 h 0.7693 v 3.978393 h -0.7693 z m -1.45801,4.110273 q 0.70336,0 1.2089,0.153861 0.50554,0.15386 0.78396,0.439601 0.27841,0.285741 0.27841,0.688709 0,0.402968 -0.27841,0.696036 -0.27842,0.285741 -0.78396,0.432274 -0.50554,0.153861 -1.2089,0.153861 -0.69604,0 -1.20891,-0.153861 -0.50554,-0.146533 -0.78395,-0.432274 -0.27109,-0.293068 -0.27109,-0.696036 0,-0.402968 0.27109,-0.688709 0.27841,-0.285741 0.78395,-0.439601 0.51287,-0.153861 1.20891,-0.153861 z m 0,0.600789 q -0.46891,0 -0.80594,0.08059 -0.33703,0.08059 -0.52019,0.234455 -0.17584,0.146533 -0.17584,0.366334 0,0.219801 0.17584,0.373661 0.18316,0.146534 0.52019,0.227128 0.33703,0.07327 0.80594,0.07327 0.48356,0 0.81326,-0.07327 0.33703,-0.08059 0.51287,-0.227128 0.17584,-0.15386 0.17584,-0.373661 0,-0.219801 -0.17584,-0.366334 -0.17584,-0.153861 -0.51287,-0.234455 -0.3297,-0.08059 -0.81326,-0.08059 z m -1.62653,-4.417994 h 0.63743 v 0.644748 q 0,0.644749 -0.22713,1.216231 -0.2198,0.564155 -0.64475,0.989103 -0.41762,0.424948 -1.02574,0.637422 l -0.38099,-0.608115 q 0.39565,-0.139207 0.69604,-0.373661 0.30772,-0.234454 0.5202,-0.527522 0.21247,-0.300394 0.31504,-0.637422 0.1099,-0.344354 0.1099,-0.696036 z m 0.15386,0 h 0.62277 v 0.644748 q 0,0.337028 0.1099,0.659403 0.1099,0.315047 0.31505,0.593461 0.21247,0.271088 0.51287,0.483562 0.30772,0.205147 0.68871,0.329701 l -0.37366,0.600789 q -0.44693,-0.146534 -0.79861,-0.402968 -0.34436,-0.263761 -0.58614,-0.615442 -0.24178,-0.351681 -0.36633,-0.769303 -0.12456,-0.417621 -0.12456,-0.879203 z"
         id="text5-9-8"
         aria-label="난징 푸싱" />
    </g>
    <text
       xml:space="preserve"
       transform="matrix(0.31615295,0,0,0.31615295,-10.474341,-6.4462013)"
       id="text6"
       style="font-size:55px;line-height:1.25;font-family:'Microsoft JhengHei';-inkscape-font-specification:'Microsoft JhengHei';white-space:pre;shape-inside:url(#rect6);display:inline" />
  </g>
</svg>
