<?xml version="1.0" encoding="UTF-8" standalone="no"?>
<!-- Created with Inkscape (http://www.inkscape.org/) -->

<svg
   width="500"
   height="250"
   viewBox="0 0 132.29166 66.145833"
   version="1.1"
   id="svg1"
   inkscape:version="1.3.2 (091e20e, 2023-11-25, custom)"
   sodipodi:docname="g16.svg"
   xmlns:inkscape="http://www.inkscape.org/namespaces/inkscape"
   xmlns:sodipodi="http://sodipodi.sourceforge.net/DTD/sodipodi-0.dtd"
   xmlns="http://www.w3.org/2000/svg"
   xmlns:svg="http://www.w3.org/2000/svg">
  <sodipodi:namedview
     id="namedview1"
     pagecolor="#9e652e"
     bordercolor="#ffffff"
     borderopacity="1"
     inkscape:showpageshadow="0"
     inkscape:pageopacity="0"
     inkscape:pagecheckerboard="false"
     inkscape:deskcolor="#d1d1d1"
     inkscape:document-units="mm"
     inkscape:zoom="2.0208096"
     inkscape:cx="187.54859"
     inkscape:cy="144.49654"
     inkscape:window-width="1920"
     inkscape:window-height="1009"
     inkscape:window-x="1912"
     inkscape:window-y="-8"
     inkscape:window-maximized="1"
     inkscape:current-layer="layer1" />
  <defs
     id="defs1">
    <rect
       x="157.85752"
       y="62.351248"
       width="329.07603"
       height="135.09437"
       id="rect4" />
  </defs>
  <g
     inkscape:label="Layer 1"
     inkscape:groupmode="layer"
     id="layer1">
    <path
       id="rect5"
       style="fill:#f4eed7;stroke-width:0.953294"
       d="M -2.5431316e-6,-1.2715658e-6 H 132.29167 V 66.145835 H -2.5431316e-6 Z" />
    <g
       id="g5"
       transform="translate(-19.050006,10.054167)">
      <path
         id="rect6"
         style="fill:#f4eed7;stroke:#000000;stroke-width:0.575409"
         d="m 34.177494,16.558472 h 5.701048 c 1.810115,0 3.267355,1.45724 3.267355,3.267354 v 9.52472 c 0,1.810115 -1.45724,3.267355 -3.267355,3.267355 h -5.701048 c -1.810115,0 -3.267355,-1.45724 -3.267355,-3.267355 v -9.52472 c 0,-1.810114 1.45724,-3.267354 3.267355,-3.267354 z" />
      <path
         style="font-weight:bold;font-size:5.82083px;line-height:1.25;font-family:'Optima Bold';-inkscape-font-specification:'Optima Bold,  Bold';stroke-width:0.264583"
         d="m 34.9222,21.685171 q 0.02328,-0.459846 0.133879,-0.803275 0.116417,-0.343429 0.320146,-0.56462 0.203729,-0.221192 0.424921,-0.372533 0.227012,-0.151342 0.471487,-0.232834 0.128058,-0.04657 0.250295,-0.07567 0.128059,-0.02911 0.250296,-0.04657 0.122238,-0.01746 0.232833,-0.0291 0.116417,-0.01164 0.20955,-0.01746 l 0.232833,-0.0058 q 0.186267,0.0058 0.372534,0.02911 0.192087,0.01746 0.384174,0.05821 0.186267,0.04075 0.372533,0.116417 0.192088,0.06985 0.384175,0.168804 l -0.186266,0.49477 h -0.232834 q -0.0291,-0.01164 -0.06403,-0.03493 -0.03493,-0.0291 -0.06985,-0.06403 -0.03492,-0.03493 -0.07567,-0.06985 -0.03493,-0.03492 -0.08149,-0.06985 -0.08149,-0.06403 -0.186267,-0.122237 -0.104775,-0.05821 -0.227012,-0.110596 -0.09895,-0.04657 -0.227012,-0.06985 -0.122238,-0.0291 -0.267759,-0.03493 -0.0291,0 -0.06403,0.0058 -0.0291,0 -0.06403,0.0058 -0.05821,0.0058 -0.122237,0.01746 -0.05821,0.01164 -0.122238,0.0291 -0.21537,0.05821 -0.419099,0.186267 -0.197909,0.122237 -0.384175,0.314325 -0.180446,0.192087 -0.285221,0.471487 -0.104775,0.2794 -0.133879,0.657754 v 0.01746 0.02328 0.02328 0.02328 q -0.0058,0.430741 0.110596,0.779991 0.116416,0.34925 0.34925,0.617008 0.221191,0.250296 0.500591,0.384175 0.285221,0.128058 0.63447,0.145521 0.116417,-0.0058 0.221192,-0.01746 0.110596,-0.01746 0.215371,-0.04075 0.133879,-0.0291 0.227012,-0.06985 0.09895,-0.04657 0.168804,-0.09895 v -1.525057 h 0.232833 q 0.01164,0.01164 0.02328,0.01746 0.01164,0 0.0291,0.0058 0.01164,0.0058 0.02328,0.01164 0.01164,0 0.02328,0 0.0058,0 0.0058,0 0.0058,0 0.01164,0 0.0058,0.0058 0.0058,0.0058 0.0058,0 0.01164,0 0,0 0,0 0,0 0.0058,0 0,0 0,0 0,0 0,0 0.0291,-0.0058 0.06403,-0.01164 0.03493,-0.01164 0.06985,-0.01746 l 0.232834,-0.0058 v 1.693861 l -0.01746,0.01746 -0.01746,0.0058 q -0.0291,0.01746 -0.06985,0.0291 -0.03493,0.01164 -0.07567,0.02328 -0.04075,0.01746 -0.08731,0.0291 -0.04657,0.01164 -0.09895,0.02328 -0.104775,0.02328 -0.20955,0.04074 -0.104775,0.01746 -0.221191,0.0291 -0.104775,0.01746 -0.203729,0.02911 -0.09313,0.01746 -0.192088,0.02328 -0.09313,0.01164 -0.174624,0.01746 -0.08149,0.0058 -0.145521,0.0058 h -0.232833 q -0.01164,0 -0.02911,0 -0.01164,0 -0.02328,0 -0.01164,0 -0.0291,0 -0.01164,0 -0.02328,0 -0.494771,0 -0.884767,-0.133879 -0.389995,-0.133879 -0.681037,-0.4191 -0.28522,-0.279399 -0.430741,-0.651932 Q 34.9222,22.1683 34.9222,21.696812 v -0.01164 z"
         id="text6"
         aria-label="G" />
      <path
         style="font-weight:bold;font-size:5.82083px;line-height:1.25;font-family:'Optima Bold';-inkscape-font-specification:'Optima Bold,  Bold';stroke-width:0.264583"
         d="m 34.228197,25.988046 q 0.168804,-0.07567 0.331787,-0.151342 0.168804,-0.07567 0.331787,-0.151341 0.162983,-0.06985 0.291042,-0.1397 0.133879,-0.06985 0.238654,-0.1397 l 0.232833,-0.0058 0.1397,0.04075 v 3.987269 h -0.232833 q -0.03492,-0.0058 -0.06403,-0.01746 -0.0291,-0.0058 -0.05821,-0.01164 -0.03493,0.0058 -0.06985,0.01164 -0.03493,0.01164 -0.08149,0.01746 h -0.232834 v -3.440111 l -0.407458,0.232833 h -0.232833 q -0.0058,0 -0.01746,-0.0058 -0.0058,-0.01164 -0.01746,-0.0291 -0.0058,-0.01164 -0.01164,-0.01746 -0.0058,-0.01164 -0.0058,-0.01746 -0.0058,-0.01164 -0.01164,-0.01746 -0.0058,-0.01164 -0.01164,-0.01746 -0.0058,-0.01164 -0.01164,-0.01746 -0.0058,-0.0058 -0.01164,-0.01746 -0.01164,-0.0058 -0.01746,-0.01164 -0.0058,-0.01164 -0.01164,-0.01746 -0.01164,-0.01746 -0.0291,-0.0291 -0.01164,-0.01746 -0.0291,-0.02328 v -0.01164 z m 3.213103,1.746249 q 0.01164,-0.587904 0.145521,-1.018645 0.1397,-0.436562 0.401637,-0.704321 0.256116,-0.273579 0.547158,-0.407458 0.296862,-0.133879 0.62865,-0.133879 l 0.232833,-0.0058 q 0.01746,0.0058 0.03493,0.0058 0.02328,0 0.04657,0 0.01164,0 0.02328,0 0.01164,0 0.02328,0 0.0058,0.0058 0.01746,0.0058 0.01164,0 0.02328,0 0.01746,0.0058 0.03493,0.01164 0.02328,0 0.04657,0 0.02328,0 0.04075,0.0058 0.02328,0 0.04657,0.0058 l 0.04657,0.215371 H 39.54844 q -0.04075,0 -0.08149,-0.0058 -0.03493,-0.0058 -0.06985,-0.01164 -0.0058,0 -0.01746,0 -0.0058,0 -0.01746,-0.0058 -0.221192,0.02328 -0.407458,0.151341 -0.180446,0.122238 -0.325967,0.343429 -0.145521,0.215371 -0.232833,0.477308 -0.08731,0.261938 -0.116417,0.582083 0.01164,-0.0058 0.02328,-0.01164 0.01746,-0.01164 0.0291,-0.01746 0.0058,-0.0058 0.01164,-0.0058 0.0058,-0.0058 0.01164,-0.01164 0.01746,-0.01164 0.03493,-0.02328 0.02328,-0.01164 0.04657,-0.02328 0.08731,-0.04657 0.215371,-0.06985 0.133879,-0.0291 0.302683,-0.0291 l 0.232833,-0.0058 q 0.227012,0.0058 0.42492,0.07567 0.20373,0.06985 0.378354,0.20955 0.168804,0.1397 0.256117,0.343429 0.08731,0.203729 0.08731,0.477308 v 0.01746 0.02328 0.02328 0.02328 q -0.01746,0.238654 -0.104775,0.442383 -0.08149,0.203729 -0.232833,0.389996 -0.151341,0.180446 -0.389995,0.267758 -0.232834,0.08731 -0.547158,0.08731 h -0.232834 q -0.01164,0 -0.02328,0 -0.01164,0 -0.02328,0 -0.01164,0 -0.0291,0 -0.01164,0 -0.02328,0 -0.267758,0 -0.49477,-0.09313 -0.227013,-0.09313 -0.413279,-0.28522 -0.192087,-0.192088 -0.285221,-0.483129 -0.09313,-0.296863 -0.09313,-0.692679 v -0.03493 -0.03493 -0.0291 -0.03493 -0.0058 z m 0.785812,0.459846 q 0,0.02328 0,0.04657 0,0.01746 0,0.03493 0,0.01746 0,0.04075 0.0058,0.01746 0.0058,0.03493 0.0058,0.04075 0.01164,0.08149 0.01164,0.03493 0.01746,0.06985 0.0291,0.139699 0.08731,0.273579 0.06403,0.128058 0.157163,0.244474 0.07567,0.09313 0.168804,0.151342 0.09895,0.05821 0.20955,0.07567 0.128058,-0.01746 0.227012,-0.07567 0.09895,-0.06403 0.174625,-0.157162 0.08149,-0.110596 0.1397,-0.232834 0.05821,-0.122237 0.08731,-0.250295 0.0058,-0.02328 0.0058,-0.04075 0.0058,-0.02328 0.0058,-0.04657 0.0058,-0.01746 0.0058,-0.03493 0.0058,-0.02328 0.0058,-0.04657 0.0058,-0.04657 0.0058,-0.08149 0.0058,-0.04075 0.0058,-0.08149 0,-0.203729 -0.05821,-0.366712 -0.05821,-0.168804 -0.174625,-0.296862 -0.08731,-0.09895 -0.186266,-0.157163 -0.09895,-0.05821 -0.203729,-0.08149 0,0 0,0 0,0 0,0 -0.128059,0.02328 -0.244475,0.09313 -0.110596,0.06985 -0.215371,0.186267 -0.104775,0.110595 -0.168804,0.267758 -0.05821,0.157162 -0.06985,0.35507 z"
         id="text6-8"
         aria-label="16" />
    </g>
    <g
       id="g4"
       transform="translate(0,9.44477)">
      <path
         style="font-weight:bold;font-size:17.5626px;line-height:1.25;font-family:'Noto Serif TC';-inkscape-font-specification:'Noto Serif TC Bold';letter-spacing:1.8817px;stroke-width:0.313616"
         d="m 41.036345,28.584187 c 0.245876,0 0.421502,-0.08781 0.47419,-0.281001 C 40.843156,27.72362 39.771838,26.91574 39.771838,26.91574 l -0.948381,1.176695 H 38.015578 V 25.96736 h 2.897829 c 0.245876,0 0.421502,-0.08781 0.456627,-0.281002 -0.614691,-0.54444 -1.563071,-1.246944 -1.563071,-1.246944 l -0.860567,1.018631 h -1.001069 c 0.720067,-0.667379 1.457696,-1.475259 1.949449,-2.054824 0.368815,0.01756 0.579566,-0.122939 0.649816,-0.33369 l -2.318263,-0.667379 c -0.175626,0.895693 -0.491753,2.142638 -0.790317,3.055893 h -4.179898 l 0.1405,0.509315 h 2.616828 v 2.125075 h -3.143706 l 0.140501,0.491752 h 3.003205 v 3.705709 h 0.351252 c 1.036193,0 1.633321,-0.33369 1.650884,-0.421503 v -3.284206 z m -7.235791,-5.971283 c 0.439065,0.614691 0.843005,1.563071 0.860567,2.423638 1.510384,1.299633 3.319332,-1.633321 -0.667378,-2.529014 z m 7.938295,-3.705709 H 38.103391 V 17.04556 c 0.47419,-0.07025 0.614691,-0.245877 0.649816,-0.491753 l -2.739765,-0.228314 v 2.581702 h -7.060165 l 0.158063,0.491753 h 6.902102 v 2.318263 H 32.641423 L 30.39341,20.803956 v 12.047943 h 0.333689 c 0.87813,0 1.773823,-0.491753 1.773823,-0.720067 v -9.922868 h 9.343303 v 8.096358 c 0,0.228314 -0.07025,0.368815 -0.368815,0.368815 -0.47419,0 -2.300701,-0.140501 -2.300701,-0.140501 v 0.245876 c 0.913256,0.140501 1.299633,0.386377 1.598197,0.684942 0.281002,0.316126 0.386377,0.772754 0.439065,1.42257 2.406076,-0.228314 2.757328,-1.018631 2.757328,-2.370951 v -7.955857 c 0.351252,-0.07025 0.597128,-0.228314 0.702504,-0.368815 l -2.037262,-1.563071 -0.965942,1.088881 h -3.565208 v -2.318263 h 6.585975 c 0.263439,0 0.456627,-0.08781 0.509315,-0.281002 -0.860567,-0.720066 -2.23045,-1.75626 -2.23045,-1.75626 z m 10.469811,8.078796 c -0.737629,1.492821 -2.37095,3.617895 -4.039397,4.93509 l 0.158063,0.175626 c 2.265575,-0.790317 4.373087,-2.23045 5.637594,-3.51252 0.40394,0.07025 0.562004,-0.03513 0.649817,-0.193188 z m 1.246945,-1.650884 v -3.319332 h 6.111784 v 3.319332 z m 6.111784,0.509315 v 0.895692 h 0.386378 c 0.720066,0 1.773822,-0.439065 1.791385,-0.562003 v -3.811084 c 0.368814,-0.07025 0.614691,-0.228314 0.720066,-0.368814 l -2.072386,-1.563072 -1.001069,1.071319 h -5.81322 l -2.283138,-0.87813 v 6.269848 h 0.298564 c 0.895693,0 1.861636,-0.47419 1.861636,-0.667379 v -0.386377 h 2.019699 v 4.4609 c 0,0.210751 -0.08781,0.316127 -0.386377,0.316127 -0.386377,0 -2.248013,-0.122938 -2.248013,-0.122938 v 0.228313 c 0.94838,0.140501 1.35232,0.386378 1.615759,0.684942 0.245877,0.298564 0.33369,0.772754 0.386377,1.42257 2.441202,-0.175626 2.792454,-1.088881 2.792454,-2.458764 v -4.53115 z m -0.843004,1.668447 c 1.194256,1.071318 2.70464,2.739765 3.354456,4.162336 2.195325,1.176694 3.336894,-3.091018 -3.196393,-4.285274 z m 2.564139,-8.465173 h -3.775959 c 1.053756,-0.649816 0.80788,-2.932954 -3.17883,-2.792453 l -0.122938,0.105375 c 0.772754,0.614691 1.650884,1.668447 1.949448,2.651953 l 0.07025,0.03512 h -7.83292 l 0.140501,0.509315 h 15.648276 c 0.263439,0 0.456628,-0.08781 0.509315,-0.281001 -0.807879,-0.720067 -2.195324,-1.773823 -2.195324,-1.773823 z m 10.11856,-2.651952 c -0.702504,1.405007 -2.248013,3.565207 -3.705709,4.952652 l 0.140501,0.175626 c 2.054824,-0.895692 4.039398,-2.318263 5.286342,-3.477394 0.40394,0.07025 0.562004,-0.03512 0.667379,-0.210751 z m 8.886675,10.660497 c -0.456628,0.895693 -1.088881,1.68601 -1.861636,2.406076 -0.930817,-0.368814 -1.791385,-0.825442 -2.546576,-1.369882 0.333689,-0.33369 0.667378,-0.684942 0.965942,-1.036194 z m 0.632253,-6.252285 v 1.440133 h -4.496025 v -1.440133 z m -4.496025,3.442269 v -1.492821 h 4.496025 v 1.492821 z m 5.058029,1.28207 -1.159132,1.018631 h -3.073455 c 0.228314,-0.298564 0.439065,-0.614691 0.632254,-0.895693 0.456627,0.01756 0.597128,-0.05269 0.667379,-0.245876 l -2.125075,-0.491753 v -0.01756 -0.158064 h 4.496025 v 0.544441 h 0.316127 c 0.649816,0 1.580634,-0.40394 1.598197,-0.526878 V 21.10252 c 0.333689,-0.07025 0.597128,-0.228314 0.702504,-0.351252 l -1.896761,-1.440133 -0.895692,0.983506 h -4.215024 l -0.80788,-0.316127 c 0.210751,-0.351252 0.421503,-0.702504 0.614691,-1.071319 h 7.393854 c 0.228314,0 0.421503,-0.08781 0.474191,-0.281001 C 83.455027,17.92369 82.19052,16.922621 82.19052,16.922621 l -1.106444,1.475259 h -4.478463 c 0.140501,-0.298564 0.281002,-0.614691 0.421502,-0.948381 0.386378,0 0.614691,-0.1405 0.684942,-0.368814 l -2.722203,-0.737629 c -0.263439,1.686009 -0.737629,3.442269 -1.317195,4.86484 l -2.1602,-1.194257 c -0.720066,1.808948 -2.3007,4.548713 -3.934022,6.340098 l 0.175626,0.175626 c 0.825442,-0.47419 1.633322,-1.036193 2.370951,-1.650884 v 8.008545 h 0.368815 c 0.860567,0 1.633321,-0.509315 1.633321,-0.702504 v -8.271984 c 0.33369,-0.05269 0.491753,-0.175626 0.544441,-0.316127 l -0.825442,-0.298564 c 0.579565,-0.579566 1.071318,-1.159132 1.475258,-1.68601 0.07025,0 0.122938,0.01756 0.193189,0.01756 -0.140501,0.333689 -0.281002,0.632254 -0.421503,0.913255 l 0.228314,0.140501 c 0.40394,-0.333689 0.825442,-0.720067 1.211819,-1.159132 v 3.969148 h 0.263439 c 0.351252,0 0.702504,-0.08781 1.001069,-0.193189 -0.228314,0.649816 -0.544441,1.334758 -0.895693,1.984574 C 74.462976,26.84549 74.076599,26.3713 73.778035,25.826859 l -0.228314,0.158064 c 0.281001,0.702504 0.614691,1.334757 1.001068,1.914323 -0.47419,0.790317 -1.018631,1.510384 -1.545509,2.037261 l 0.158064,0.158064 c 0.684941,-0.351252 1.369882,-0.825442 2.019699,-1.35232 0.562003,0.667379 1.194256,1.246944 1.914323,1.75626 -1.35232,0.895692 -2.968079,1.615759 -4.79459,2.107512 l 0.105376,0.263439 c 2.23045,-0.298565 4.179898,-0.860568 5.81322,-1.668447 1.28207,0.720066 2.774891,1.246944 4.408213,1.633321 0.228313,-0.965943 0.790317,-1.615759 1.633321,-1.82651 l 0.01756,-0.193189 c -1.422571,-0.158063 -2.827579,-0.403939 -4.162336,-0.790317 0.983505,-0.737629 1.791385,-1.615759 2.423639,-2.634389 0.421502,-0.01756 0.614691,-0.08781 0.737629,-0.245877 z m 5.67522,7.288479 c 2.564139,-0.526878 5.093153,-1.545509 6.568412,-2.599265 0.579566,0.07025 0.895692,-0.03513 1.018631,-0.245876 l -2.669516,-1.422571 c -0.94838,1.317195 -3.003204,3.055892 -5.00534,4.074523 z m 9.835055,-3.565208 c 2.142637,0.94838 3.442269,2.212888 4.109649,3.161268 1.75626,1.721135 5.35659,-2.406076 -4.021836,-3.372019 z m -1.317195,-7.112853 v 2.897829 h -0.667378 v -2.897829 z m -0.667378,3.407145 h 0.667378 v 0.790317 h 0.158064 c 0.333689,0 0.860567,-0.245877 0.860567,-0.368815 v -3.793521 c 0.210751,-0.03513 0.386377,-0.140501 0.456628,-0.228314 l -1.071319,-0.825442 -0.526878,0.509315 h -0.47419 l -1.053756,-0.47419 v 5.497093 h 0.140501 c 0.421502,0 0.843005,-0.228313 0.843005,-0.316126 z m -4.601401,-0.597129 h 1.369882 c 0.08781,0 0.158064,-0.01756 0.210751,-0.03513 v 3.003205 h -1.510383 z m 1.580633,-7.077727 v 3.143705 C 91.624136,20.55808 91.097258,20.013639 91.097258,20.013639 L 90.50013,21.03227 h -0.175626 l -0.05269,-2.669515 c 0.649816,-0.158064 1.282069,-0.368815 1.650884,-0.526878 z m -1.650884,3.65302 h 1.405008 c 0.08781,0 0.175626,-0.01756 0.245876,-0.05269 v 2.915391 c -0.386377,-0.456627 -0.878129,-0.983505 -0.878129,-0.983505 l -0.614691,1.071318 h -0.08781 z m 6.884539,-3.442269 v 1.791385 c -0.47419,-0.47419 -1.159132,-1.036193 -1.159132,-1.036193 l -0.684941,0.895692 h -1.650884 l 0.140501,0.509316 h 2.985641 c 0.158064,0 0.281002,-0.03512 0.368815,-0.122938 v 7.797794 h -3.723271 v -9.835056 z m 1.984574,0.03513 h 1.159131 l -0.0527,2.915392 h -1.282067 l 0.158063,0.491752 h 1.106444 l -0.0703,2.950517 h -1.264508 l 0.158064,0.47419 h 1.106444 l -0.0703,2.96808 h -1.405009 v -9.676993 c 0.175626,-0.05269 0.33369,-0.122938 0.439065,-0.193188 z m 2.722201,9.624305 0.19319,-9.360866 c 0.36881,-0.05269 0.52688,-0.122938 0.66738,-0.263439 l -1.79139,-1.492821 -0.79031,0.983506 h -1.159135 l 0.05269,0.193188 -1.28207,-1.001068 -0.755191,0.772755 H 93.591147 L 91.99295,16.922621 v 0.439065 l -1.124006,-1.071318 c -0.193188,0.316127 -0.597128,0.930818 -0.983505,1.457696 l -1.352321,-0.421503 0.228314,10.590248 h -1.721134 l 0.158063,0.491752 h 16.350779 c 0.24588,0 0.40394,-0.08781 0.45663,-0.281001 -0.49175,-0.579566 -1.40501,-1.440133 -1.40501,-1.440133 z"
         id="text7"
         aria-label="南京復興" />
      <path
         style="font-weight:bold;font-size:6.89956px;line-height:1.25;font-family:'Optima Bold';-inkscape-font-specification:'Optima Bold,  Bold';stroke-width:0.313616"
         d="m 35.974063,40.775921 v -4.781395 h 0.275982 0.331179 l 3.035807,3.339387 v -3.339387 h 0.275982 q 0.0138,0.0207 0.0345,0.0276 0.0207,0.0069 0.0414,0.0138 0.0276,-0.0069 0.0483,-0.0138 0.0207,-0.0069 0.0345,-0.0138 l 0.275982,-0.0069 v 4.774496 H 40.051703 39.78262 L 36.684718,37.33304 v 3.442881 h -0.275983 q -0.0069,0 -0.0138,0 -0.0069,0 -0.0138,0 -0.0138,0 -0.0207,0 -0.0069,-0.0069 -0.0138,-0.0069 -0.0138,0 -0.0276,0 -0.0069,0 -0.0207,0.0069 -0.0138,0 -0.0276,0 -0.0069,0 -0.0207,0 h -0.275982 v 0 z m 5.064275,0 2.173361,-4.836592 h 0.275983 0.15869 l 2.125064,4.836592 h -0.275982 q -0.0207,0 -0.0483,0 -0.0207,0 -0.0483,0 -0.0276,0 -0.0552,0 -0.0207,0 -0.0552,0 -0.0138,0 -0.0345,0 -0.0138,0 -0.0276,-0.0069 -0.0138,0 -0.0345,0 -0.0138,0 -0.0276,0 -0.0138,0.0069 -0.0345,0.0069 -0.0138,0 -0.0276,0 -0.0138,0 -0.0276,0 -0.0138,0 -0.0207,0 -0.0138,0 -0.0276,0 -0.0069,0 -0.0207,0 h -0.275983 l -0.758951,-1.904279 h -1.40751 l -0.703755,1.904279 h -0.275983 q -0.0138,0 -0.0345,0 -0.0138,0 -0.0276,0 l -0.0345,-0.0069 q -0.0069,0.0069 -0.0207,0.0069 -0.0138,0 -0.0207,0 -0.0138,0 -0.0276,0 -0.0069,0 -0.0207,0 h -0.275982 q -0.0207,0 -0.0414,0 -0.0207,0 -0.0414,0 v 0 z m 1.690392,-2.228558 h 1.131528 l -0.565764,-1.352314 -0.565764,1.352314 z m 3.794756,2.228558 v -4.781395 h 0.275983 0.331178 l 3.035807,3.339387 v -3.339387 h 0.275982 q 0.0138,0.0207 0.0345,0.0276 0.0207,0.0069 0.0414,0.0138 0.0276,-0.0069 0.0483,-0.0138 0.0207,-0.0069 0.0345,-0.0138 l 0.275983,-0.0069 v 4.774496 H 50.601126 50.332043 L 47.234141,37.33304 v 3.442881 h -0.275983 q -0.0069,0 -0.0138,0 -0.0069,0 -0.0138,0 -0.0138,0 -0.0207,0 -0.0069,-0.0069 -0.0138,-0.0069 -0.0138,0 -0.0276,0 -0.0069,0 -0.0207,0.0069 -0.0138,0 -0.0276,0 -0.0069,0 -0.0207,0 h -0.275983 v 0 z m 6.044012,-4.781395 q 0.0345,0.0207 0.0621,0.0345 0.0345,0.0069 0.0759,0.0138 0.0069,0 0.0069,0 0.0069,0 0.0138,0 0.0069,0 0.0069,0 0.0069,0 0.0138,0 0.0414,-0.0069 0.07589,-0.0138 0.0414,-0.0138 0.069,-0.0207 l 0.275983,-0.0069 v 4.450217 q 0,0.262183 -0.09659,0.476069 -0.09659,0.213887 -0.296681,0.400175 -0.193188,0.186288 -0.427773,0.275982 -0.227685,0.09659 -0.496768,0.103493 h -0.275982 -0.0276 -0.0138 l -0.0207,-0.0069 h -0.0276 l -0.0069,-0.220786 q 0.282882,-0.0207 0.455371,-0.131092 0.172489,-0.110393 0.234585,-0.31048 0.0621,-0.193188 0.08969,-0.427773 0.0345,-0.241484 0.0345,-0.524366 v -4.091439 h 0.275982 v 0 z m 2.069869,0 q 0.0345,0.0207 0.0621,0.0345 0.0345,0.0069 0.07589,0.0138 0.0069,0 0.0069,0 0.0069,0 0.0138,0 0.0069,0 0.0069,0 0.0069,0 0.0138,0 0.0414,-0.0069 0.0759,-0.0138 0.0414,-0.0138 0.069,-0.0207 l 0.275983,-0.0069 v 4.774496 h -0.275983 q -0.0276,0 -0.069,0 -0.0345,-0.0069 -0.069,-0.0138 -0.0069,0 -0.0138,0 0,0 -0.0069,0 -0.0069,0 -0.0138,0 -0.0069,0 -0.0138,0 -0.0414,0.0069 -0.07589,0.0138 -0.0276,0 -0.0621,0 h -0.275983 v -4.781395 h 0.275983 v 0 z m 1.904277,4.781395 v -4.781395 h 0.275983 0.331178 l 3.035807,3.339387 v -3.339387 h 0.275982 q 0.0138,0.0207 0.0345,0.0276 0.0207,0.0069 0.0414,0.0138 0.0276,-0.0069 0.0483,-0.0138 0.0207,-0.0069 0.0345,-0.0138 l 0.275982,-0.0069 v 4.774496 H 60.619284 60.350201 L 57.252299,37.33304 v 3.442881 h -0.275983 q -0.0069,0 -0.0138,0 -0.0069,0 -0.0138,0 -0.0138,0 -0.0207,0 -0.0069,-0.0069 -0.0138,-0.0069 -0.0138,0 -0.0276,0 -0.0069,0 -0.0207,0.0069 -0.0138,0 -0.0276,0 -0.0069,0 -0.0207,0 h -0.275983 v 0 z M 61.9302,38.43697 q 0.0276,-0.545065 0.15869,-0.952139 0.137991,-0.407074 0.379476,-0.669258 0.241484,-0.262183 0.503667,-0.441571 0.269083,-0.179389 0.558865,-0.275983 0.15179,-0.0552 0.296681,-0.08969 0.15179,-0.0345 0.296681,-0.0552 0.144891,-0.0207 0.275982,-0.0345 0.137991,-0.0138 0.248384,-0.0207 l 0.275983,-0.0069 q 0.220786,0.0069 0.441572,0.0345 0.227685,0.0207 0.455371,0.069 0.220786,0.0483 0.441571,0.137991 0.227686,0.08279 0.455371,0.200087 l -0.220785,0.586463 h -0.275983 q -0.0345,-0.0138 -0.0759,-0.0414 -0.0414,-0.0345 -0.0828,-0.07589 -0.0414,-0.0414 -0.08969,-0.08279 -0.0414,-0.0414 -0.09659,-0.0828 -0.09659,-0.07589 -0.220786,-0.144891 -0.124192,-0.069 -0.269083,-0.131092 -0.117292,-0.0552 -0.269082,-0.08279 -0.144891,-0.0345 -0.31738,-0.0414 -0.0345,0 -0.0759,0.0069 -0.0345,0 -0.0759,0.0069 -0.06899,0.0069 -0.14489,0.0207 -0.069,0.0138 -0.144891,0.0345 -0.255284,0.069 -0.496768,0.220786 -0.234585,0.144891 -0.455371,0.372576 -0.213887,0.227686 -0.338079,0.558865 -0.124192,0.331178 -0.15869,0.77965 v 0.0207 0.0276 0.0276 0.0276 q -0.0069,0.510568 0.131092,0.924541 0.137991,0.413974 0.413974,0.731354 0.262183,0.296681 0.593362,0.455371 0.338078,0.15179 0.752052,0.172489 0.137991,-0.0069 0.262183,-0.0207 0.131092,-0.0207 0.255284,-0.0483 0.15869,-0.0345 0.269083,-0.08279 0.117292,-0.0552 0.200087,-0.117292 v -1.807685 h 0.275982 q 0.0138,0.0138 0.0276,0.0207 0.0138,0 0.0345,0.0069 0.0138,0.0069 0.0276,0.0138 0.0138,0 0.0276,0 0.0069,0 0.0069,0 0.0069,0 0.0138,0 0.0069,0.0069 0.0069,0.0069 0.0069,0 0.0138,0 0,0 0,0 0,0 0.0069,0 0,0 0,0 0,0 0,0 0.0345,-0.0069 0.07589,-0.0138 0.0414,-0.0138 0.0828,-0.0207 l 0.275982,-0.0069 v 2.007772 l -0.0207,0.0207 -0.0207,0.0069 q -0.0345,0.0207 -0.08279,0.0345 -0.0414,0.0138 -0.08969,0.0276 -0.0483,0.0207 -0.103494,0.0345 -0.0552,0.0138 -0.117292,0.0276 -0.124192,0.0276 -0.248384,0.0483 -0.124193,0.0207 -0.262184,0.0345 -0.124192,0.0207 -0.241484,0.0345 -0.110393,0.0207 -0.227686,0.0276 -0.110393,0.0138 -0.206987,0.0207 -0.09659,0.0069 -0.172489,0.0069 H 64.59343 q -0.0138,0 -0.0345,0 -0.0138,0 -0.0276,0 -0.0138,0 -0.0345,0 -0.0138,0 -0.0276,0 -0.586463,0 -1.048733,-0.15869 -0.462271,-0.15869 -0.807249,-0.496768 Q 62.275178,39.899677 62.102689,39.458105 61.9302,39.009634 61.9302,38.450769 v -0.0138 z m 8.334666,-2.387248 h 2.442445 q -0.0069,0.0276 -0.0138,0.0483 0,0.0138 -0.0069,0.0276 -0.0069,0.0138 -0.0069,0.0276 0,0.0138 0,0.0276 -0.0069,0.0207 -0.0138,0.0345 0,0.0138 0,0.0276 0,0.0138 0,0.0345 0,0.0138 0,0.0276 0,0.0276 0,0.0621 0,0.0276 0.0069,0.0621 0.0069,0.0276 0.0138,0.0621 0.0138,0.0276 0.0207,0.0621 l -0.275983,-0.0069 q -0.0276,0.0069 -0.0552,0.0069 -0.0207,-0.0069 -0.0414,-0.0138 -0.0207,0 -0.0414,-0.0069 -0.0207,-0.0069 -0.0414,-0.0138 -0.103494,-0.0138 -0.206987,-0.0276 -0.103494,-0.0138 -0.200087,-0.0276 -0.103494,-0.0069 -0.206987,-0.0207 -0.103494,-0.0138 -0.206987,-0.0207 -0.137991,-0.0138 -0.282882,-0.0207 -0.144891,-0.0069 -0.289781,-0.0069 v 1.662794 h 0.758951 l 0.703755,-0.0552 h 0.275983 q -0.0069,0.0345 -0.0138,0.0621 -0.0069,0.0207 -0.0138,0.0414 0,0.0069 -0.0069,0.0207 0,0.0069 0,0.0138 -0.0069,0.0138 -0.0069,0.0207 0,0.0069 0,0.0207 v 0.0138 0.0276 q 0,0.0345 0,0.0621 0,0.0207 0.0069,0.0483 0,0.0138 0,0.0276 0.0069,0.0138 0.0138,0.0276 0.0069,0.0207 0.0069,0.0345 0.0069,0.0138 0.0138,0.0276 l -0.275983,-0.0069 -0.703755,-0.0552 h -0.758951 v 2.387248 h -0.275983 q -0.0276,0 -0.0621,0 -0.0276,-0.0069 -0.0621,-0.0138 0,0 -0.0069,0 0,0 0,0 0,0 -0.0069,0 0,0 0,0 0,0 -0.0069,0 0,0 -0.0069,0 -0.0414,0.0069 -0.0828,0.0138 -0.0414,0 -0.0828,0 h -0.275982 v -4.726199 h 0.275982 v 0 z m 3.477383,2.877117 v -2.932313 h 0.275982 q 0.0483,0.0207 0.08969,0.0345 0.0483,0.0069 0.0897,0.0138 0.0207,0 0.0414,0 0.0207,0 0.0414,-0.0069 0.0276,-0.0069 0.0552,-0.0138 0.0276,-0.0069 0.0552,-0.0138 l 0.275983,-0.0069 v 2.82192 q 0,0.48297 0.09659,0.821048 0.103494,0.331179 0.310481,0.531266 0.186288,0.179389 0.420873,0.282882 0.234585,0.09659 0.510567,0.110393 0.344978,-0.0138 0.593362,-0.124192 0.255284,-0.110393 0.407074,-0.303581 0.16559,-0.220786 0.255284,-0.531266 0.09659,-0.31738 0.117293,-0.724454 v -2.890915 h 0.275982 q 0.0138,0.0138 0.0207,0.0207 0.0069,0 0.0207,0.0069 0.0069,0.0069 0.0138,0.0138 0.0138,0 0.0207,0 0.0138,0 0.0207,0 0.0138,-0.0069 0.0207,-0.0138 0.0138,-0.0069 0.0207,-0.0069 0.0138,-0.0069 0.0207,-0.0069 l 0.275982,-0.0069 v 2.766724 q 0,0.482969 -0.117292,0.869344 -0.110393,0.379476 -0.338079,0.669258 -0.227685,0.296681 -0.61406,0.441572 -0.386376,0.137991 -0.938341,0.137991 h -0.275982 q -0.0138,0 -0.0345,0 -0.0138,0 -0.0276,0 -0.0138,0 -0.0345,0 -0.0138,0 -0.0276,0 -0.572664,0 -0.959039,-0.144891 -0.386375,-0.144891 -0.586463,-0.441572 -0.193187,-0.30358 -0.296681,-0.641659 -0.09659,-0.338078 -0.09659,-0.717554 v -0.0138 z m 6.906455,-0.538166 -1.469607,-2.338951 h 0.275983 q 0.0414,0.0207 0.08279,0.0345 0.0483,0.0069 0.09659,0.0138 0.0069,0 0.0138,0 0.0069,0 0.0138,0 0.0069,0 0.0138,0.0069 0.0069,0 0.0138,0 0.0069,0 0.0138,0 0.0069,0 0.0207,-0.0069 0.0069,0 0.0138,0 0.0069,0 0.0138,0 0.0552,-0.0069 0.09659,-0.0138 0.0483,-0.0138 0.08969,-0.0207 l 0.275982,-0.0069 0.95214,1.5662 1.000436,-1.5731 h 0.275982 q 0.0276,0.0138 0.0483,0.0276 0.0207,0.0069 0.0414,0.0138 0.0345,-0.0069 0.0621,-0.0138 0.0345,-0.0069 0.0621,-0.0138 l 0.275982,-0.0069 -1.469606,2.111265 1.635195,2.608034 h -0.275982 q -0.0483,0 -0.103493,0 -0.0483,-0.0069 -0.103494,-0.0138 -0.0069,0 -0.0138,0 -0.0069,0 -0.0138,-0.0069 -0.0138,0 -0.0207,0 -0.0069,0 -0.0138,0 -0.0069,0 -0.0138,0 -0.0069,0 -0.0138,0 -0.0138,0.0069 -0.0207,0.0069 -0.0069,0 -0.0138,0 -0.0483,0.0069 -0.103493,0.0138 -0.0483,0 -0.103494,0 h -0.275982 l -1.062532,-1.87668 -1.055633,1.87668 h -0.275982 -0.0345 l -0.0276,-0.0138 q -0.0069,0.0069 -0.0138,0.0069 -0.0069,0 -0.0207,-0.0069 -0.0069,0 -0.0138,0 -0.0069,0 -0.0207,0 0,0 0,0 0,0 0,0 -0.0069,0 -0.0069,0 0,0 0,0 -0.0414,0.0069 -0.08969,0.0138 -0.0414,0 -0.09659,0 h -0.275982 l 1.635196,-2.387248 v 0 z m 3.587769,-2.394147 q 0.0345,0.0207 0.0621,0.0345 0.0345,0.0069 0.0759,0.0138 0.0069,0 0.0069,0 0.0069,0 0.0138,0 0.0069,0 0.0069,0 0.0069,0 0.0138,0 0.0414,-0.0069 0.07589,-0.0138 0.0414,-0.0138 0.069,-0.0207 l 0.275982,-0.0069 v 4.774496 h -0.275982 q -0.0276,0 -0.069,0 -0.0345,-0.0069 -0.069,-0.0138 -0.0069,0 -0.0138,0 0,0 -0.0069,0 -0.0069,0 -0.0138,0 -0.0069,0 -0.0138,0 -0.0414,0.0069 -0.0759,0.0138 -0.0276,0 -0.0621,0 H 83.96049 v -4.781395 h 0.275983 v 0 z m 1.904277,4.781395 v -4.781395 h 0.275982 0.331179 l 3.035807,3.339387 V 35.994526 H 90.0597 q 0.0138,0.0207 0.0345,0.0276 0.0207,0.0069 0.0414,0.0138 0.0276,-0.0069 0.0483,-0.0138 0.0207,-0.0069 0.0345,-0.0138 l 0.275982,-0.0069 v 4.774496 H 90.21839 89.949307 L 86.851405,37.33304 v 3.442881 h -0.275983 q -0.0069,0 -0.0138,0 -0.0069,0 -0.0138,0 -0.0138,0 -0.0207,0 -0.0069,-0.0069 -0.0138,-0.0069 -0.0138,0 -0.0276,0 -0.0069,0 -0.0207,0.0069 -0.0138,0 -0.0276,0 -0.0069,0 -0.0207,0 H 86.14075 v 0 z m 5.388556,-2.338951 q 0.0276,-0.545065 0.15869,-0.952139 0.137991,-0.407074 0.379475,-0.669258 0.241485,-0.262183 0.503668,-0.441571 0.269083,-0.179389 0.558865,-0.275983 0.15179,-0.0552 0.296681,-0.08969 0.15179,-0.0345 0.296681,-0.0552 0.14489,-0.0207 0.275982,-0.0345 0.137991,-0.0138 0.248384,-0.0207 l 0.275983,-0.0069 q 0.220786,0.0069 0.441572,0.0345 0.227685,0.0207 0.45537,0.069 0.220786,0.0483 0.441572,0.137991 0.227686,0.08279 0.455371,0.200087 l -0.220786,0.586463 h -0.275982 q -0.0345,-0.0138 -0.0759,-0.0414 -0.0414,-0.0345 -0.08279,-0.07589 -0.0414,-0.0414 -0.08969,-0.08279 -0.0414,-0.0414 -0.09659,-0.0828 -0.09659,-0.07589 -0.220786,-0.144891 -0.124192,-0.069 -0.269083,-0.131092 -0.117292,-0.0552 -0.269083,-0.08279 -0.14489,-0.0345 -0.317379,-0.0414 -0.0345,0 -0.0759,0.0069 -0.0345,0 -0.0759,0.0069 -0.069,0.0069 -0.14489,0.0207 -0.069,0.0138 -0.144891,0.0345 -0.255284,0.069 -0.496769,0.220786 -0.234585,0.144891 -0.455371,0.372576 -0.213886,0.227686 -0.338078,0.558865 -0.124192,0.331178 -0.15869,0.77965 v 0.0207 0.0276 0.0276 0.0276 q -0.0069,0.510568 0.131092,0.924541 0.137991,0.413974 0.413973,0.731354 0.262184,0.296681 0.593363,0.455371 0.338078,0.15179 0.752052,0.172489 0.137991,-0.0069 0.262183,-0.0207 0.131092,-0.0207 0.255284,-0.0483 0.158689,-0.0345 0.269082,-0.08279 0.117293,-0.0552 0.200088,-0.117292 v -1.807685 h 0.275982 q 0.0138,0.0138 0.0276,0.0207 0.0138,0 0.0345,0.0069 0.0138,0.0069 0.0276,0.0138 0.0138,0 0.0276,0 0.0069,0 0.0069,0 0.0069,0 0.0138,0 0.0069,0.0069 0.0069,0.0069 0.0069,0 0.0138,0 0,0 0,0 0,0 0.0069,0 0,0 0,0 0,0 0,0 0.0345,-0.0069 0.0759,-0.0138 0.0414,-0.0138 0.08279,-0.0207 l 0.275983,-0.0069 v 2.007772 l -0.0207,0.0207 -0.0207,0.0069 q -0.0345,0.0207 -0.08279,0.0345 -0.0414,0.0138 -0.08969,0.0276 -0.0483,0.0207 -0.103493,0.0345 -0.0552,0.0138 -0.117292,0.0276 -0.124193,0.0276 -0.248385,0.0483 -0.124192,0.0207 -0.262183,0.0345 -0.124192,0.0207 -0.241485,0.0345 -0.110392,0.0207 -0.227685,0.0276 -0.110393,0.0138 -0.206987,0.0207 -0.09659,0.0069 -0.172489,0.0069 h -0.275982 q -0.0138,0 -0.0345,0 -0.0138,0 -0.0276,0 -0.0138,0 -0.0345,0 -0.0138,0 -0.0276,0 -0.586463,0 -1.048733,-0.15869 -0.462271,-0.15869 -0.807249,-0.496768 -0.338078,-0.331179 -0.510567,-0.772751 -0.172489,-0.448471 -0.172489,-1.007336 v -0.0138 z"
         id="text8"
         aria-label="NANJING FUXING" />
      <g
         id="g2"
         transform="matrix(1.185323,0,0,1.185323,-44.446212,-35.320632)"
         style="fill:#000000">
        <path
           style="font-weight:500;font-size:5.82083px;line-height:1.25;font-family:'Noto Sans JP';-inkscape-font-specification:'Noto Sans JP Medium';stroke-width:0.264583"
           d="m 67.806244,35.70788 h 5.145613 v 0.518054 h -5.145613 z m 1.234016,2.409824 h 2.689223 v 0.436562 H 69.04026 Z m -0.122238,0.937153 H 71.8459 v 0.454025 h -2.927878 z m 1.181629,-0.721783 h 0.523874 v 2.107141 H 70.099651 Z M 68.079823,36.76145 h 4.214281 v 0.512233 h -3.661302 v 3.288769 h -0.552979 z m 4.045476,0 h 0.5588 v 3.213098 q 0,0.221192 -0.05821,0.337608 -0.05821,0.116417 -0.221192,0.174625 -0.157162,0.05821 -0.413279,0.06985 -0.250295,0.01164 -0.605366,0.01164 -0.01746,-0.104775 -0.07567,-0.244475 -0.05239,-0.133879 -0.110595,-0.232833 0.168804,0.0058 0.325966,0.0058 0.162983,0.0058 0.291041,0 0.128059,0 0.174625,0 0.08149,0 0.104775,-0.02328 0.0291,-0.0291 0.0291,-0.09895 z m -2.817281,0.686858 0.436562,-0.133879 q 0.110596,0.151342 0.20955,0.337608 0.09895,0.186267 0.145521,0.325967 l -0.465667,0.162983 q -0.03493,-0.145521 -0.133879,-0.337608 -0.09313,-0.197908 -0.192087,-0.355071 z m 1.717145,-0.133879 0.465666,0.1397 q -0.110596,0.215371 -0.232833,0.430741 -0.122238,0.215371 -0.232833,0.366713 l -0.395817,-0.122238 q 0.06985,-0.110596 0.1397,-0.256116 0.07567,-0.145521 0.1397,-0.291042 0.06985,-0.145521 0.116417,-0.267758 z m -0.942975,-2.124603 h 0.605366 v 1.926695 h -0.605366 z m 3.562348,0.605366 h 5.110689 v 0.529696 h -5.110689 z m 2.24684,-0.628649 h 0.587904 v 0.896408 h -0.587904 z m -1.007003,2.112961 v 0.832379 h 2.642657 v -0.832379 z m -0.547158,-0.477308 h 3.771898 v 1.792816 h -3.771898 z m 2.904594,2.322511 0.500591,-0.244475 q 0.192088,0.192088 0.395817,0.4191 0.20955,0.221192 0.395816,0.442383 0.186267,0.215371 0.302683,0.389996 l -0.541337,0.2794 q -0.09895,-0.174625 -0.2794,-0.395817 -0.174625,-0.227012 -0.378354,-0.459845 -0.203729,-0.238654 -0.395816,-0.430742 z m -1.338791,-0.733424 h 0.576262 v 1.577444 q 0,0.221192 -0.05821,0.343429 -0.05821,0.122238 -0.232833,0.180446 -0.168804,0.05821 -0.430742,0.06985 -0.256116,0.01164 -0.628649,0.01164 -0.01746,-0.116417 -0.06985,-0.261938 -0.05239,-0.14552 -0.110596,-0.261937 0.180446,0.0058 0.34925,0.01164 0.168804,0 0.296862,0 0.128058,-0.0058 0.174625,-0.0058 0.08149,0 0.104775,-0.01746 0.0291,-0.02328 0.0291,-0.08149 z m -1.356253,0.488949 0.558799,0.180446 q -0.1397,0.227012 -0.331787,0.471487 -0.186267,0.238654 -0.395816,0.454025 -0.20955,0.20955 -0.4191,0.378354 -0.08731,-0.08149 -0.221192,-0.174625 -0.128058,-0.09313 -0.227012,-0.151342 0.20955,-0.14552 0.407458,-0.337608 0.197908,-0.197908 0.360892,-0.413279 0.162983,-0.21537 0.267758,-0.407458 z m 7.270216,-3.713689 0.541337,0.128058 q -0.180445,0.494771 -0.454024,0.960437 -0.267759,0.459846 -0.570442,0.77417 -0.04657,-0.04657 -0.133879,-0.104775 -0.08731,-0.06403 -0.180446,-0.122237 -0.08731,-0.05821 -0.151341,-0.09313 0.302683,-0.2794 0.552979,-0.692679 0.250295,-0.413279 0.395816,-0.849841 z m 0.02328,0.570441 h 2.799819 v 0.454025 H 81.60161 Z m 0.256116,1.827741 v 0.337608 h 1.676399 v -0.337608 z m 0,-0.669396 v 0.325967 H 83.77278 V 36.895329 Z M 81.60161,36.528617 h 2.683403 v 1.734607 H 81.60161 Z m 0.663575,1.583266 0.477308,0.1397 q -0.244475,0.436562 -0.63447,0.809095 -0.389996,0.372533 -0.791633,0.611187 -0.04075,-0.04657 -0.110596,-0.110596 -0.06985,-0.06403 -0.145521,-0.128058 -0.06985,-0.06403 -0.128058,-0.104775 0.401637,-0.20955 0.762529,-0.523875 0.360891,-0.320145 0.570441,-0.692678 z m -0.09313,0.750887 q 0.221191,0.331787 0.605366,0.587904 0.389996,0.256116 0.902229,0.42492 0.512233,0.162983 1.111778,0.232833 -0.08149,0.08149 -0.174625,0.215371 -0.09313,0.1397 -0.14552,0.244475 Q 83.84263,40.47514 83.318755,40.26559 82.800701,40.05604 82.399064,39.741715 82.003248,39.421569 81.73549,39.00247 Z m 0.01164,-0.244475 h 1.740429 v 0.378354 h -2.089678 z m 1.600729,0 h 0.104775 l 0.09313,-0.02328 0.331787,0.162983 q -0.203729,0.413279 -0.529695,0.721783 -0.325967,0.302683 -0.745067,0.523874 -0.419099,0.215371 -0.902228,0.355071 -0.477308,0.1397 -0.989541,0.221192 -0.0291,-0.09895 -0.104775,-0.232834 -0.06985,-0.133879 -0.133879,-0.221191 0.471487,-0.05239 0.91387,-0.162983 0.448204,-0.116417 0.832379,-0.291042 0.384174,-0.174625 0.675216,-0.4191 0.291041,-0.244474 0.454025,-0.56462 z m -3.183994,-2.229378 0.488949,0.180446 q -0.197908,0.34925 -0.454024,0.698499 -0.256117,0.343429 -0.547158,0.651933 -0.285221,0.302683 -0.570442,0.541338 -0.02328,-0.06403 -0.08149,-0.157163 -0.05239,-0.09313 -0.110596,-0.192087 -0.05821,-0.09895 -0.104775,-0.151342 0.256117,-0.197908 0.512233,-0.448204 0.256117,-0.250295 0.477308,-0.535516 0.227013,-0.291042 0.389996,-0.587904 z m -0.122238,-1.216553 0.48895,0.192087 q -0.174625,0.250296 -0.407458,0.506412 -0.232833,0.256117 -0.483129,0.48895 -0.250296,0.232833 -0.500591,0.413279 -0.03493,-0.05821 -0.08731,-0.128058 -0.05239,-0.07567 -0.110596,-0.151342 -0.05239,-0.07567 -0.09895,-0.122237 0.221192,-0.157163 0.448204,-0.355071 0.227013,-0.203729 0.424921,-0.424921 0.197908,-0.221191 0.325966,-0.419099 z m -0.389995,2.374898 0.459845,-0.459845 0.05821,0.02328 v 3.480856 h -0.518054 z m 5.099047,1.175808 h 5.314418 v 0.512233 h -5.314418 z m 2.182811,-2.508778 h 0.942975 v 0.360892 h -0.942975 z m 1.635654,-0.756708 h 0.919691 v 0.454025 h -0.919691 z m 0.0291,1.094316 h 0.84402 v 0.448204 h -0.84402 z m 0,1.071033 h 0.826558 v 0.448204 H 89.034811 Z M 85.815892,36.5519 h 0.838199 v 0.448204 h -0.838199 z m 0.01746,1.071033 h 0.820737 v 0.448204 h -0.820737 z m 0.983721,-2.17117 h 2.066394 V 38.93262 H 88.47019 v -3.055936 h -1.257299 v 3.055936 h -0.395816 z m 0.84402,1.792816 v 0.663575 h 0.34925 v -0.663575 z m -0.250296,-0.337608 h 0.855662 v 1.33297 h -0.855662 z m -1.810278,-1.431924 0.605366,0.116416 q -0.01746,0.06403 -0.128058,0.08149 l 0.09313,3.271306 h -0.471487 z m 4.033835,-0.01746 h 0.483129 q -0.0058,0.430742 -0.01746,0.913871 -0.0058,0.483128 -0.02328,0.966257 -0.01746,0.483129 -0.04075,0.913871 -0.01746,0.430741 -0.04075,0.756708 H 89.51794 q 0.0291,-0.331788 0.04657,-0.76835 0.02328,-0.436562 0.04075,-0.919691 0.01746,-0.483129 0.02328,-0.960437 0.0058,-0.477308 0.0058,-0.902229 z m -3.038473,-0.261937 0.372533,0.413279 q -0.250296,0.128058 -0.529695,0.244475 -0.2794,0.116416 -0.523875,0.197908 -0.01746,-0.07567 -0.06403,-0.186267 -0.04657,-0.116416 -0.09313,-0.197908 0.221192,-0.09895 0.454025,-0.227012 0.232833,-0.133879 0.384175,-0.244475 z m 1.711324,4.435472 0.401637,-0.366712 q 0.320146,0.145521 0.651933,0.314325 0.331787,0.162983 0.622829,0.325966 0.296862,0.162984 0.506412,0.296863 l -0.523875,0.378354 q -0.192087,-0.13388 -0.465666,-0.302684 -0.267758,-0.162983 -0.576262,-0.331787 -0.308504,-0.168804 -0.617008,-0.314325 z m -1.461028,-0.366712 0.506412,0.343429 q -0.227012,0.174625 -0.523875,0.355071 -0.291041,0.180445 -0.605366,0.337608 -0.308504,0.162983 -0.576262,0.2794 -0.08149,-0.08731 -0.20955,-0.203729 -0.122238,-0.110596 -0.221192,-0.186267 0.2794,-0.116417 0.587904,-0.267758 0.308504,-0.157163 0.582083,-0.331787 0.2794,-0.174625 0.459846,-0.325967 z"
           id="text9"
           aria-label="南京復興" />
        <path
           style="font-weight:500;font-size:5.82083px;line-height:1.25;font-family:'Noto Sans KR';-inkscape-font-specification:'Noto Sans KR Medium';stroke-width:0.264583"
           d="m 97.131,35.620568 h 0.605367 v 2.235199 H 97.131 Z m 0,2.043111 h 0.430742 q 0.558799,0 1.152524,-0.04657 0.599545,-0.04657 1.245658,-0.174625 l 0.06985,0.49477 q -0.65775,0.133879 -1.274758,0.186267 -0.611187,0.04657 -1.19327,0.04657 H 97.131 Z m 3.30623,-2.409823 h 0.60537 v 3.835927 h -0.60537 z m 0.42492,1.536699 h 0.93133 v 0.518054 h -0.93133 z m -3.17235,3.178173 h 3.53324 v 0.49477 H 97.6898 Z m 0,-1.245658 h 0.611187 v 1.501774 H 97.6898 Z m 8.32961,-3.469214 h 0.61119 v 3.183994 h -0.61119 z m -1.16999,3.30041 q 0.5588,0 0.96044,0.122238 0.40164,0.116416 0.62283,0.349249 0.22119,0.227013 0.22119,0.541338 0,0.325966 -0.22119,0.552978 -0.22119,0.227013 -0.62283,0.343429 -0.40164,0.122238 -0.96044,0.122238 -0.55298,0 -0.96044,-0.122238 -0.40163,-0.116416 -0.62282,-0.343429 -0.21538,-0.227012 -0.21538,-0.552978 0,-0.314325 0.21538,-0.541338 0.22119,-0.232833 0.62282,-0.349249 0.40746,-0.122238 0.96044,-0.122238 z m 0,0.477308 q -0.37253,0 -0.64029,0.06403 -0.26776,0.05821 -0.40746,0.180446 -0.1397,0.122238 -0.1397,0.291042 0,0.174624 0.1397,0.296862 0.1397,0.122237 0.40746,0.186266 0.26776,0.06403 0.64029,0.06403 0.38418,0 0.64611,-0.06403 0.26776,-0.06403 0.40746,-0.186266 0.1397,-0.122238 0.1397,-0.296862 0,-0.168804 -0.1397,-0.291042 -0.1397,-0.122237 -0.40746,-0.180446 -0.26193,-0.06403 -0.64611,-0.06403 z m -1.23984,-3.236381 h 0.5006 v 0.384175 q 0,0.49477 -0.18045,0.931332 -0.17462,0.436563 -0.50641,0.762529 -0.33179,0.320146 -0.8091,0.48895 l -0.31432,-0.477308 q 0.42492,-0.145521 0.71014,-0.407458 0.29104,-0.267759 0.44238,-0.599546 0.15716,-0.337608 0.15716,-0.698499 z m 0.12224,0 h 0.50059 v 0.384175 q 0,0.250295 0.0815,0.488949 0.0873,0.238654 0.25612,0.448204 0.16881,0.20955 0.40746,0.372533 0.24447,0.162984 0.55298,0.256117 l -0.30851,0.483129 q -0.46566,-0.157163 -0.80327,-0.459846 -0.33179,-0.302683 -0.51223,-0.710141 -0.17463,-0.413279 -0.17463,-0.878945 z m -1.27476,-0.157163 h 2.90459 v 0.48895 h -2.90459 z m 7.21783,-0.116416 h 3.92906 v 0.48895 h -3.92906 z m 0.0291,1.82774 h 3.87085 v 0.48895 H 109.704 Z m 0.71596,-1.437745 h 0.61119 v 1.699683 h -0.61119 z m 1.82774,0 h 0.61119 v 1.699683 h -0.61119 z m -3.02101,2.462211 h 4.81965 v 0.500592 h -4.81965 z m 2.10132,0.221192 h 0.61119 v 1.973261 h -0.61119 z m 7.03156,-3.341156 h 0.61119 v 3.16071 h -0.61119 z m -1.15834,3.265485 q 0.5588,0 0.96043,0.122238 0.40164,0.122237 0.62283,0.349249 0.22119,0.227013 0.22119,0.547158 0,0.320146 -0.22119,0.552979 -0.22119,0.227013 -0.62283,0.343429 -0.40163,0.122238 -0.96043,0.122238 -0.55298,0 -0.96044,-0.122238 -0.40164,-0.116416 -0.62283,-0.343429 -0.21537,-0.232833 -0.21537,-0.552979 0,-0.320145 0.21537,-0.547158 0.22119,-0.227012 0.62283,-0.349249 0.40746,-0.122238 0.96044,-0.122238 z m 0,0.477308 q -0.37254,0 -0.64029,0.06403 -0.26776,0.06403 -0.41328,0.186267 -0.1397,0.116417 -0.1397,0.291041 0,0.174625 0.1397,0.296863 0.14552,0.116416 0.41328,0.180445 0.26775,0.05821 0.64029,0.05821 0.38417,0 0.64611,-0.05821 0.26776,-0.06403 0.40746,-0.180445 0.1397,-0.122238 0.1397,-0.296863 0,-0.174624 -0.1397,-0.291041 -0.1397,-0.122237 -0.40746,-0.186267 -0.26194,-0.06403 -0.64611,-0.06403 z m -1.29223,-3.50996 h 0.50641 v 0.512233 q 0,0.512233 -0.18044,0.966258 -0.17463,0.448204 -0.51223,0.785812 -0.33179,0.337608 -0.81492,0.506412 l -0.30268,-0.483129 q 0.31432,-0.110596 0.55298,-0.296862 0.24447,-0.186267 0.41327,-0.4191 0.16881,-0.238654 0.2503,-0.506412 0.0873,-0.273579 0.0873,-0.552979 z m 0.12224,0 h 0.49477 v 0.512233 q 0,0.267758 0.0873,0.523875 0.0873,0.250295 0.2503,0.471487 0.1688,0.21537 0.40746,0.384175 0.24447,0.162983 0.54715,0.261937 l -0.29686,0.477308 q -0.35507,-0.116417 -0.63447,-0.320146 -0.27358,-0.20955 -0.46566,-0.488949 -0.19209,-0.2794 -0.29105,-0.611188 -0.099,-0.331787 -0.099,-0.698499 z"
           id="text9-3"
           aria-label="난징 푸싱" />
      </g>
    </g>
  </g>
</svg>
