<?xml version="1.0" encoding="UTF-8" standalone="no"?>
<!-- Created with Inkscape (http://www.inkscape.org/) -->

<svg
   width="500"
   height="250"
   viewBox="0 0 132.29166 66.145833"
   version="1.1"
   id="svg1"
   inkscape:version="1.3.2 (091e20e, 2023-11-25, custom)"
   sodipodi:docname="g17.svg"
   xmlns:inkscape="http://www.inkscape.org/namespaces/inkscape"
   xmlns:sodipodi="http://sodipodi.sourceforge.net/DTD/sodipodi-0.dtd"
   xmlns="http://www.w3.org/2000/svg"
   xmlns:svg="http://www.w3.org/2000/svg">
  <sodipodi:namedview
     id="namedview1"
     pagecolor="#9e652e"
     bordercolor="#ffffff"
     borderopacity="1"
     inkscape:showpageshadow="0"
     inkscape:pageopacity="0"
     inkscape:pagecheckerboard="false"
     inkscape:deskcolor="#d1d1d1"
     inkscape:document-units="mm"
     inkscape:zoom="2.0208096"
     inkscape:cx="238.02341"
     inkscape:cy="106.88785"
     inkscape:window-width="1920"
     inkscape:window-height="1009"
     inkscape:window-x="1912"
     inkscape:window-y="-8"
     inkscape:window-maximized="1"
     inkscape:current-layer="layer1" />
  <defs
     id="defs1">
    <rect
       x="560.66638"
       y="34.144731"
       width="279.32397"
       height="128.59143"
       id="rect6" />
    <rect
       x="157.85752"
       y="62.351248"
       width="381.61437"
       height="132.30098"
       id="rect4" />
    <rect
       x="157.85751"
       y="62.35125"
       width="329.07602"
       height="135.09438"
       id="rect4-5" />
    <rect
       x="157.85751"
       y="62.35125"
       width="329.07602"
       height="135.09438"
       id="rect4-5-8" />
    <rect
       x="157.85751"
       y="62.35125"
       width="329.07602"
       height="135.09438"
       id="rect4-5-1" />
    <rect
       x="157.85751"
       y="62.35125"
       width="329.07602"
       height="135.09438"
       id="rect4-5-4" />
  </defs>
  <g
     inkscape:label="Layer 1"
     inkscape:groupmode="layer"
     id="layer1">
    <rect
       style="fill:#f4eed3;fill-opacity:1;stroke:none;stroke-width:0.953294;stroke-dasharray:none"
       id="rect5"
       width="132.29167"
       height="66.145836"
       x="-2.5431316e-06"
       y="-1.2715658e-06"
       ry="0" />
    <g
       id="g10"
       transform="matrix(1.1068401,0,0,1.1068401,-15.934668,-3.533513)">
      <path
         id="rect1"
         style="fill-opacity:0;stroke:#000000;stroke-width:0.815864"
         d="m 23.886312,16.87302 h 10.752404 c 3.398374,0 6.134248,2.735875 6.134248,6.134249 v 20.131294 c 0,3.398374 -2.735874,6.134249 -6.134248,6.134249 H 23.886312 c -3.398373,0 -6.134248,-2.735875 -6.134248,-6.134249 V 23.007269 c 0,-3.398374 2.735875,-6.134249 6.134248,-6.134249 z" />
      <path
         style="font-size:12.5329px;line-height:1.25;font-family:'AR UDJingXiHeiE1G30 EB';-inkscape-font-specification:'AR UDJingXiHeiE1G30 EB';stroke-width:0.261102"
         d="m 31.816695,29.905448 q -0.463717,0.651711 -1.16556,0.965033 -0.689309,0.30079 -1.579145,0.30079 -1.955133,0 -3.108159,-1.228224 -1.153027,-1.240758 -1.153027,-3.459081 0,-2.230856 1.215691,-3.45908 1.215691,-1.228224 3.28362,-1.228224 1.666876,0 2.707106,0.764507 1.052764,0.751974 1.265823,2.155658 h -1.591678 q -0.125329,-0.739441 -0.739441,-1.203158 -0.601579,-0.47625 -1.64181,-0.47625 -1.391152,0 -2.11806,0.902369 -0.726908,0.889835 -0.726908,2.544178 0,1.767139 0.764506,2.606843 0.764507,0.827172 2.080462,0.827172 1.153027,0 1.829803,-0.676777 0.676777,-0.676776 0.676777,-1.554079 V 27.499131 H 29.24745 v -1.240757 h 4.098259 v 4.749969 h -1.529014 z"
         id="text2"
         aria-label="G" />
      <path
         style="font-size:12.4542px;line-height:1.25;font-family:'AR UDJingXiHeiE1G30 EB';-inkscape-font-specification:'AR UDJingXiHeiE1G30 EB';stroke-width:0.22644"
         d="m 24.891099,36.47625 -1.457141,1.357508 -0.722344,-1.108424 2.34139,-2.129668 h 1.357507 v 9.004387 h -1.519412 z m 6.264454,7.123803 3.175821,-7.771421 h -4.495966 v -1.232966 h 6.102557 v 1.033699 l -3.175821,7.970688 z"
         id="text3"
         aria-label="17" />
      <path
         style="font-weight:500;font-size:72px;line-height:1.25;font-family:'Noto Sans TC';-inkscape-font-specification:'Noto Sans TC Medium';white-space:pre"
         d="m 173.55342,131.04941 h 40.176 v 6.552 h -40.176 z m -3.384,-20.592 h 47.376 v 30.888 h -7.272 v -24.336 h -33.12 v 24.408 h -6.984 z m 30.312,-24.768004 5.328,-3.528 q 3.384,3.024 7.128,6.84 3.744,3.744 6.912,7.488 3.24,3.744004 5.112,6.768004 l -5.832,4.248 q -1.728,-3.096 -4.824,-6.912 -3.096,-3.816004 -6.768,-7.704004 -3.6,-3.888 -7.056,-7.2 z m -33.48,19.296004 q -0.144,-0.72 -0.576,-1.944 -0.36,-1.224 -0.792,-2.52 -0.432,-1.296004 -0.864,-2.160004 1.368,-0.288 2.736,-1.368 1.368,-1.152 3.168,-2.88 1.008,-0.864 2.88,-2.88 1.872,-2.016 4.176,-4.752 2.304,-2.736 4.68,-5.976 2.376,-3.24 4.392,-6.48 l 6.84,2.952 q -3.312,4.68 -7.128,9.144 -3.744,4.392 -7.632,8.28 -3.816,3.888 -7.632,6.984004 v 0.216 q 0,0 -0.648,0.36 -0.648,0.288 -1.512,0.864 -0.864,0.504 -1.512,1.08 -0.576,0.576 -0.576,1.08 z m 0,0 -0.072,-5.328004 4.824,-2.52 45.216,-1.8 q 0.072,1.368 0.288,3.168 0.216,1.800004 0.432,2.880004 -10.656,0.576 -18.36,1.008 -7.704,0.36 -13.032,0.648 -5.256,0.288 -8.712,0.576 -3.384,0.216 -5.472,0.432 -2.016,0.144 -3.168,0.36 -1.08,0.216 -1.944,0.576 z m 67.248,-12.600004 h 21.24 v 6.84 h -21.24 z m 35.64,-16.416 h 7.128 v 51.912004 q 0,2.808 0.504,3.6 0.576,0.792 2.448,0.792 0.504,0 1.512,0 1.08,0 2.304,0 1.224,0 2.304,0 1.08,0 1.584,0 1.512,0 2.232,-1.368 0.792,-1.44 1.08,-5.112 0.36,-3.744 0.576,-10.44 0.864,0.648 2.016,1.368 1.152,0.648 2.376,1.152 1.224,0.504 2.16,0.72 -0.36,7.488 -1.224,11.952 -0.864,4.392 -2.88,6.336 -1.944,2.016 -5.688,2.016 -0.576,0 -1.872,0 -1.296,0 -2.808,0 -1.512,0 -2.808,0 -1.224,0 -1.8,0 -3.456,0 -5.472,-1.008 -2.016,-0.936 -2.88,-3.384 -0.792,-2.448 -0.792,-6.696 z m -18.072,-0.072 h 7.056 v 53.496004 h -7.056 z m -19.944,57.888004 q 3.888,-1.296 9.144,-3.168 5.256,-1.872 11.088,-4.032 5.904,-2.16 11.664,-4.32 l 1.152,6.048 q -5.112,2.232 -10.44,4.464 -5.328,2.16 -10.296,4.176 -4.968,2.016 -9.216,3.672 z m 41.76,-41.472004 h 23.04 v 6.84 h -23.04 z m 60.768,-16.632 h 7.416 v 56.880004 q 0,3.456 -0.936,5.112 -0.864,1.656 -3.096,2.52 -2.16,0.792 -5.76,1.008 -3.6,0.288 -8.712,0.288 -0.216,-1.008 -0.72,-2.304 -0.432,-1.224 -1.008,-2.52 -0.504,-1.296 -1.08,-2.304 2.592,0.144 4.968,0.216 2.448,0 4.248,0 1.872,-0.072 2.664,-0.072 1.08,-0.072 1.512,-0.432 0.504,-0.432 0.504,-1.512 z m 17.352,18.576 6.624,-2.448 q 3.096,5.04 5.904,10.872004 2.88,5.76 5.04,11.304 2.232,5.544 3.096,9.936 l -7.416,2.952 q -0.792,-4.32 -2.808,-9.936 -1.944,-5.616 -4.68,-11.52 -2.736,-5.976004 -5.76,-11.160004 z m -36.216,-1.872 7.704,1.296 q -1.152,5.328 -2.952,11.232004 -1.8,5.904 -4.248,11.304 -2.448,5.328 -5.616,9.36 -0.792,-0.576 -2.016,-1.224 -1.152,-0.72 -2.376,-1.296 -1.224,-0.648 -2.16,-1.08 3.096,-3.744 5.4,-8.784 2.304,-5.112 3.888,-10.584 1.584,-5.472004 2.376,-10.224004 z m 63.504,-13.752 h 59.904 v 6.552 h -59.904 z m -0.576,52.272004 h 62.856 v 6.624 h -62.856 z m 11.304,-36.792004 h 43.2 v 26.136004 h -43.2 v -6.624 h 36.216 v -12.888 h -36.216 z m -4.032,-12.816 h 7.056 v 54.000004 h -7.056 z m 92.664,-0.576 h 6.768 v 20.088004 h -6.768 z m -25.2,-2.952 h 54.288 v 5.616 h -54.288 z m 52.56,0 h 1.152 l 1.08,-0.288 5.04,1.368 q -1.296,3.24 -2.88,6.696 -1.584,3.456 -3.096,5.832 l -5.904,-1.584 q 1.224,-2.16 2.52,-5.256 1.296,-3.096 2.088,-5.832 z m -23.616,10.44 h 19.728 v 4.824 h -19.728 z m -15.552,1.512 q 2.16,3.744 5.616,5.616 3.456,1.8 8.352,2.376 4.896,0.576 11.16,0.576 1.008,0 3.312,0 2.304,0 5.184,0 2.88,0 5.832,0 3.024,-0.072 5.472,-0.072 2.448,-0.072 3.816,-0.072 -0.432,0.648 -0.936,1.8 -0.504,1.080004 -0.864,2.232004 -0.288,1.08 -0.504,2.016 h -4.752 -16.632 q -7.632,0 -13.248,-0.864 -5.616,-0.936 -9.648,-3.744004 -3.96,-2.808 -6.624,-8.28 z m -3.672,25.344004 v 6.048 h 37.584 v -6.048 z m -6.48,-5.112 h 50.904 v 16.272 h -50.904 z m 22.104,-4.32 h 6.768 v 30.384 h -6.768 z m -28.152,27.504 q 4.896,-0.072 11.232,-0.144 6.336,-0.072 13.68,-0.216 7.344,-0.144 15.192,-0.288 7.848,-0.216 15.624,-0.36 l -0.288,5.184 q -9.792,0.432 -19.872,0.864 -10.008,0.432 -19.08,0.792 -9,0.36 -16.056,0.576 z m 43.128,-4.32 4.32,-3.744 q 2.952,1.944 6.192,4.32 3.24,2.376 6.12,4.68 2.952,2.304 4.968,3.96 l -4.464,4.32 q -1.944,-1.8 -4.896,-4.248 -2.952,-2.376 -6.192,-4.824 -3.168,-2.448 -6.048,-4.464 z m -30.312,-43.920004 6.336,1.584 q -2.592,7.56 -7.344,13.680004 -4.68,6.12 -11.016,9.936 -0.216,-0.792 -0.792,-2.016 -0.576,-1.224 -1.224,-2.448 -0.648,-1.296 -1.152,-2.088 5.184,-2.88 9.216,-7.632004 4.032,-4.824 5.976,-11.016 z"
         id="text4"
         transform="matrix(0.22644015,0,0,0.22644015,8.2710132,0.93621216)"
         aria-label="台北小巨蛋" />
      <path
         style="font-size:6.34032px;line-height:1.25;font-family:'AR UDJingXiHeiE1G30 EB';-inkscape-font-specification:'AR UDJingXiHeiE1G30 EB';stroke-width:0.22644"
         d="m 46.046067,35.878151 h -1.426572 v -0.627692 h 3.652024 v 0.627692 h -1.420231 v 3.95636 h -0.805221 z m 5.275145,2.104986 -0.722796,-1.959159 -0.735477,1.959159 z m -1.692865,0.627692 -0.456503,1.223682 h -0.817901 l 1.845033,-4.584052 h 0.824241 l 1.832353,4.584052 h -0.836922 l -0.462844,-1.223682 z m 4.558684,-3.36037 v 4.584052 h -0.80522 v -4.584052 z m 1.857709,2.76438 v 1.819672 h -0.80522 v -4.584052 h 2.155708 q 0.672074,0 1.052494,0.367739 0.380419,0.367738 0.380419,0.976409 0,0.684755 -0.3931,1.052493 -0.38676,0.367739 -1.046153,0.367739 z m 1.9655,-1.407551 q 0,-0.355058 -0.202891,-0.538928 -0.20289,-0.190209 -0.59599,-0.190209 H 56.04474 v 1.508996 h 1.166619 q 0.3931,0 0.59599,-0.19021 0.202891,-0.19655 0.202891,-0.589649 z m 4.983489,3.227223 h -3.392072 v -4.584052 h 3.373051 v 0.627692 h -2.56783 v 1.293425 h 2.396641 v 0.627692 h -2.396641 v 1.407551 h 2.586851 z m 1.654827,-4.584052 v 4.584052 h -0.80522 v -4.584052 z m 5.15467,2.732678 -0.722796,-1.959159 -0.735477,1.959159 z m -1.692865,0.627692 -0.456503,1.223682 h -0.817901 l 1.845033,-4.584052 h 0.824241 l 1.832353,4.584052 h -0.836922 l -0.462844,-1.223682 z m 6.625628,-2.047924 q 0,-0.336037 -0.177529,-0.507225 -0.177529,-0.177529 -0.513565,-0.177529 h -1.37585 v 1.426572 h 1.331467 q 0.329697,0 0.532587,-0.19655 0.20289,-0.19655 0.20289,-0.545268 z m -2.066944,1.363169 v 1.908437 h -0.805221 v -4.584052 h 2.333238 q 0.627692,0 0.99543,0.336037 0.374079,0.329697 0.374079,0.938367 0,0.399441 -0.190209,0.684755 -0.18387,0.285314 -0.462844,0.40578 0.355058,0.202891 0.545268,0.703776 0.190209,0.500885 0.240932,1.515337 h -0.836922 q -0.03804,-1.065174 -0.234592,-1.483635 -0.19021,-0.424802 -0.615011,-0.424802 z m 7.221632,1.908437 h -3.392072 v -4.584052 h 3.373051 v 0.627692 h -2.56783 v 1.293425 h 2.396641 v 0.627692 h -2.396641 v 1.407551 h 2.586851 z m 1.654825,-3.309648 v 3.309648 h -0.80522 v -4.584052 h 0.830582 l 2.250813,3.385731 v -3.385731 h 0.805221 v 4.584052 h -0.881305 z m 6.574909,1.458274 -0.722797,-1.959159 -0.735477,1.959159 z m -1.692866,0.627692 -0.456503,1.223682 h -0.817901 l 1.845033,-4.584052 h 0.824242 l 1.832352,4.584052 h -0.836922 l -0.462843,-1.223682 z"
         id="text5"
         aria-label="TAIPEI ARENA" />
      <path
         d="m 45.813552,47.052609 h 3.531558 v 0.576969 h -3.531558 z m -0.272634,-1.902096 h 4.127549 v 2.739018 h -0.640373 v -2.168389 h -2.878505 v 2.18107 h -0.608671 z m 1.255384,-3.17016 0.678414,0.228252 q -0.19655,0.380419 -0.437482,0.779859 -0.234592,0.39944 -0.469184,0.760838 -0.234592,0.361399 -0.450163,0.640373 L 45.5853,44.167763 q 0.209231,-0.285314 0.431142,-0.659393 0.228252,-0.380419 0.431142,-0.779859 0.209231,-0.39944 0.348718,-0.748158 z m 1.528017,1.071514 0.469183,-0.348718 q 0.323357,0.259954 0.653053,0.57697 0.336037,0.310675 0.621352,0.627691 0.285314,0.317016 0.450162,0.58965 l -0.519906,0.39944 q -0.152167,-0.266293 -0.424801,-0.58965 -0.272634,-0.329696 -0.602331,-0.653052 -0.323356,-0.329697 -0.646712,-0.602331 z m -3.506197,0.843263 q 0.469183,-0.01268 1.052493,-0.0317 0.583309,-0.01902 1.236362,-0.04438 0.659394,-0.02536 1.337808,-0.05072 0.684754,-0.0317 1.350488,-0.0634 l -0.02536,0.576969 q -0.665734,0.03804 -1.344148,0.06974 -0.672074,0.0317 -1.318787,0.0634 -0.640372,0.02536 -1.217341,0.05072 -0.570629,0.01902 -1.027132,0.03804 z m 6.34032,-0.317016 h 1.870394 v 0.60233 H 51.158442 Z M 54.2969,42.132521 h 0.627692 v 4.647454 q 0,0.253613 0.05072,0.329697 0.05706,0.06974 0.247273,0.06974 0.04438,0 0.152168,0 0.114125,0 0.247272,0 0.133147,0 0.247273,0 0.114125,0 0.164848,0 0.139487,0 0.209231,-0.107785 0.06974,-0.114126 0.101445,-0.39944 0.0317,-0.285315 0.05072,-0.79888 0.07608,0.05706 0.177529,0.114125 0.101445,0.05706 0.209231,0.101445 0.107785,0.03804 0.190209,0.05706 -0.0317,0.58965 -0.114125,0.951048 -0.07608,0.355058 -0.253613,0.513566 -0.177529,0.158508 -0.513566,0.158508 -0.05072,0 -0.183869,0 -0.133147,0 -0.291655,0 -0.158508,0 -0.291655,0 -0.126806,0 -0.177529,0 -0.329697,0 -0.513566,-0.08876 -0.183869,-0.08877 -0.259953,-0.310676 -0.07608,-0.215571 -0.07608,-0.60233 z m -1.566059,-0.0063 h 0.621352 v 5.718969 h -0.621352 z m 3.645684,0.963729 0.437482,0.532587 q -0.304335,0.228251 -0.665733,0.450163 -0.361399,0.221911 -0.741818,0.437482 -0.374079,0.215571 -0.735477,0.40578 -0.0317,-0.101445 -0.107785,-0.240932 -0.06974,-0.139487 -0.133147,-0.228251 0.348718,-0.19021 0.703775,-0.418462 0.355058,-0.234591 0.678415,-0.475524 0.323356,-0.247272 0.564288,-0.462843 z m -5.427314,3.404752 q 0.259953,-0.08242 0.59599,-0.20289 0.336037,-0.120466 0.710116,-0.259953 0.380419,-0.139487 0.760839,-0.285315 l 0.114125,0.545268 q -0.488204,0.215571 -0.99543,0.431141 -0.500885,0.209231 -0.913006,0.38042 z m 12.135373,-3.411092 q -0.04438,0.05072 -0.107786,0.133146 -0.05706,0.07608 -0.101445,0.133147 -0.133146,0.234592 -0.374079,0.551608 -0.234591,0.317016 -0.538927,0.640372 -0.297995,0.317016 -0.640372,0.557948 l -0.526247,-0.424801 q 0.209231,-0.120466 0.405781,-0.285314 0.20289,-0.171189 0.374079,-0.355058 0.177529,-0.18387 0.310675,-0.355058 0.133147,-0.177529 0.202891,-0.317016 -0.08877,0 -0.304336,0 -0.20923,0 -0.507225,0 -0.291655,0 -0.627692,0 -0.329697,0 -0.659393,0 -0.329697,0 -0.615011,0 -0.285315,0 -0.488205,0 -0.20289,0 -0.272634,0 -0.190209,0 -0.367738,0.01268 -0.177529,0.0063 -0.38042,0.02536 v -0.703776 q 0.177529,0.01902 0.367739,0.03804 0.19021,0.01902 0.380419,0.01902 0.06974,0 0.278974,0 0.209231,0 0.500886,0 0.297995,0 0.640372,0 0.342377,0 0.684755,0 0.342377,0 0.640372,0 0.297995,0 0.507225,0 0.209231,0 0.291655,0 0.06974,0 0.171189,0 0.107785,-0.0063 0.20289,-0.01902 0.101445,-0.01268 0.152168,-0.02536 z m -2.561489,0.843262 q 0,0.494545 -0.02536,0.938368 -0.02536,0.443822 -0.120466,0.843262 -0.08876,0.3931 -0.278974,0.741818 -0.190209,0.342377 -0.513566,0.646712 -0.323356,0.304336 -0.824241,0.557948 l -0.58331,-0.475524 q 0.139487,-0.04438 0.297995,-0.120466 0.164849,-0.08242 0.310676,-0.190209 0.342377,-0.221911 0.551608,-0.481865 0.20923,-0.259953 0.310675,-0.557948 0.107786,-0.304335 0.145828,-0.653053 0.04438,-0.348717 0.04438,-0.741817 0,-0.126807 -0.0063,-0.247273 -0.0063,-0.120466 -0.0317,-0.259953 z m 7.925399,-1.413891 q -0.0063,0.120466 -0.01902,0.266293 -0.0063,0.145828 -0.0063,0.317016 0,0.145828 0,0.361399 0,0.20923 0,0.424801 0,0.209231 0,0.342377 0,0.538928 -0.04438,0.932027 -0.03804,0.3931 -0.126807,0.678415 -0.08876,0.278974 -0.221911,0.500885 -0.126806,0.215571 -0.304335,0.412121 -0.20289,0.240932 -0.469184,0.424801 -0.266293,0.177529 -0.538927,0.297995 -0.272634,0.120466 -0.507226,0.20289 l -0.526246,-0.551607 q 0.450162,-0.114126 0.836922,-0.310676 0.3931,-0.19655 0.684755,-0.513566 0.164848,-0.19655 0.266293,-0.3931 0.107785,-0.19655 0.158508,-0.437482 0.05706,-0.240932 0.07608,-0.551608 0.02536,-0.310675 0.02536,-0.729137 0,-0.139487 0,-0.348717 0,-0.209231 0,-0.412121 0,-0.20289 0,-0.329697 0,-0.171188 -0.01268,-0.317016 -0.01268,-0.145827 -0.02536,-0.266293 z m -2.941908,0.05072 q -0.0063,0.0951 -0.01902,0.215571 -0.0063,0.120466 -0.0063,0.253613 0,0.05706 0,0.215571 0,0.152168 0,0.367739 0,0.21557 0,0.450162 0,0.234592 0,0.456503 0,0.221912 0,0.3931 0,0.164849 0,0.240932 0,0.120466 0.0063,0.272634 0.01268,0.145828 0.01902,0.240932 h -0.729137 q 0.0063,-0.07608 0.01268,-0.221911 0.01268,-0.152168 0.01268,-0.291655 0,-0.07608 0,-0.247272 0,-0.171189 0,-0.38676 0,-0.221911 0,-0.456503 0,-0.240932 0,-0.450162 0,-0.215571 0,-0.367739 0,-0.158508 0,-0.215571 0,-0.08876 -0.0063,-0.228251 -0.0063,-0.145828 -0.01902,-0.240933 z m 4.901068,1.97818 q 0.107785,0.0063 0.259953,0.01902 0.158508,0.0063 0.336037,0.01268 0.183869,0.0063 0.348717,0.0063 0.126807,0 0.348718,0 0.221911,0 0.500885,0 0.285315,0 0.59599,0 0.310676,0 0.615011,0 0.310676,0 0.58331,0 0.272634,0 0.481864,0 0.209231,0 0.323356,0 0.228252,0 0.412121,-0.01268 0.18387,-0.01902 0.297995,-0.02536 v 0.7862 q -0.107785,-0.0063 -0.304335,-0.01902 -0.19655,-0.01268 -0.405781,-0.01268 -0.107785,0 -0.323356,0 -0.20923,0 -0.481864,0 -0.272634,0 -0.58331,0 -0.304335,0 -0.615011,0 -0.310675,0 -0.59599,0 -0.278974,0 -0.500885,0 -0.221911,0 -0.348718,0 -0.259953,0 -0.519906,0.01268 -0.259953,0.0063 -0.424801,0.01902 z m 8.724281,-1.445593 q 0,-0.152167 -0.01902,-0.355058 -0.01268,-0.20923 -0.05072,-0.329696 h 0.79888 q -0.01902,0.120466 -0.0317,0.329696 -0.01268,0.209231 -0.01268,0.355058 0,0.18387 0,0.412121 0,0.221911 0,0.456503 0,0.228252 0,0.431142 0,0.519906 -0.08876,0.98275 -0.08876,0.462843 -0.297995,0.874964 -0.202891,0.40578 -0.545268,0.754498 -0.342377,0.348717 -0.849603,0.653053 l -0.621351,-0.462844 q 0.469184,-0.221911 0.79888,-0.507225 0.329697,-0.291655 0.532587,-0.640372 0.20289,-0.355058 0.291655,-0.767179 0.09511,-0.418461 0.09511,-0.887645 0,-0.19655 0,-0.431142 0,-0.234592 0,-0.462843 0,-0.234592 0,-0.405781 z m -2.409322,0.741818 q 0.120466,0.01902 0.291655,0.0317 0.171188,0.0063 0.348717,0.0063 0.06974,0 0.304336,0 0.234591,0 0.576969,0 0.342377,0 0.735477,0 0.3931,0 0.7862,0 0.393099,0 0.729136,0 0.342378,0 0.57697,0 0.240932,0 0.317016,0 0.183869,0 0.355057,-0.0063 0.171189,-0.01268 0.253613,-0.02536 v 0.684755 q -0.08242,-0.01268 -0.266293,-0.01268 -0.183869,-0.0063 -0.348718,-0.0063 -0.07608,0 -0.310675,0 -0.234592,0 -0.57697,0 -0.336037,0 -0.729136,0 -0.3931,0 -0.7862,0 -0.3931,0 -0.729137,0 -0.336037,0 -0.570629,0 -0.234592,0 -0.304335,0 -0.19021,0 -0.361398,0.0063 -0.171189,0.0063 -0.291655,0.01902 z"
         id="text5-9"
         style="font-weight:500;font-size:6.34032px;line-height:1.25;font-family:'Noto Sans JP';-inkscape-font-specification:'Noto Sans JP Medium';stroke-width:0.22644"
         aria-label="台北アリーナ" />
      <path
         style="font-weight:500;font-size:6.34032px;line-height:1.25;font-family:'Noto Sans KR';-inkscape-font-specification:'Noto Sans KR Medium';stroke-width:0.22644"
         d="m 89.074037,46.068956 h 0.462844 q 0.513566,0 0.951048,-0.01268 0.437482,-0.01268 0.843262,-0.04438 0.412121,-0.03804 0.843263,-0.107786 l 0.0634,0.532587 q -0.437482,0.06974 -0.862283,0.114126 -0.418462,0.03804 -0.868624,0.05072 -0.443823,0.0063 -0.970069,0.0063 h -0.462844 z m 0,-3.392072 h 2.707317 v 0.545268 h -2.047923 v 3.030673 h -0.659394 z m 0.500886,1.623122 h 2.098646 v 0.526247 h -2.098646 z m 3.081395,-2.124007 h 0.665734 v 5.795053 h -0.665734 z m 0.519907,2.269835 h 1.046152 v 0.551608 h -1.046152 z m 5.592162,-2.276175 h 0.665734 v 5.807733 h -0.665734 z m -2.415662,0.424801 q 0.431142,0 0.767179,0.253613 0.342377,0.253613 0.532587,0.710116 0.19021,0.456503 0.19021,1.077854 0,0.627692 -0.19021,1.090535 -0.19021,0.456503 -0.532587,0.710116 -0.336037,0.247273 -0.767179,0.247273 -0.431141,0 -0.773519,-0.247273 -0.336037,-0.253613 -0.532586,-0.710116 -0.19021,-0.462843 -0.19021,-1.090535 0,-0.621351 0.19021,-1.077854 0.196549,-0.456503 0.532586,-0.710116 0.342378,-0.253613 0.773519,-0.253613 z m 0,0.602331 q -0.253612,0 -0.450162,0.171188 -0.19021,0.171189 -0.297995,0.494545 -0.107786,0.323357 -0.107786,0.773519 0,0.456503 0.107786,0.77986 0.107785,0.323356 0.297995,0.500885 0.19655,0.171189 0.450162,0.171189 0.253613,0 0.443823,-0.171189 0.190209,-0.177529 0.297995,-0.500885 0.107785,-0.323357 0.107785,-0.77986 0,-0.450162 -0.107785,-0.773519 -0.107786,-0.323356 -0.297995,-0.494545 -0.19021,-0.171188 -0.443823,-0.171188 z m 4.336775,-0.469184 h 0.6277 v 1.369509 h 1.00811 v -1.369509 h 0.61501 v 3.823213 h -2.25082 z m 0.6277,1.902096 v 1.38219 h 1.00811 v -1.38219 z m 3.49351,-2.460044 h 0.63404 v 5.795052 h -0.63404 z m -1.97818,2.168389 h 1.04616 v 0.538928 h -1.04616 z m 0.8179,-2.054263 h 0.62136 v 5.408293 h -0.62136 z m 6.78415,-0.114126 h 0.66573 v 5.807733 h -0.66573 z m -2.41566,0.424801 q 0.43114,0 0.76717,0.253613 0.34238,0.253613 0.53259,0.710116 0.19021,0.456503 0.19021,1.077854 0,0.627692 -0.19021,1.090535 -0.19021,0.456503 -0.53259,0.710116 -0.33603,0.247273 -0.76717,0.247273 -0.43115,0 -0.77352,-0.247273 -0.33604,-0.253613 -0.53259,-0.710116 -0.19021,-0.462843 -0.19021,-1.090535 0,-0.621351 0.19021,-1.077854 0.19655,-0.456503 0.53259,-0.710116 0.34237,-0.253613 0.77352,-0.253613 z m 0,0.602331 q -0.25362,0 -0.45017,0.171188 -0.19021,0.171189 -0.29799,0.494545 -0.10779,0.323357 -0.10779,0.773519 0,0.456503 0.10779,0.77986 0.10778,0.323356 0.29799,0.500885 0.19655,0.171189 0.45017,0.171189 0.25361,0 0.44382,-0.171189 0.19021,-0.177529 0.29799,-0.500885 0.10779,-0.323357 0.10779,-0.77986 0,-0.450162 -0.10779,-0.773519 -0.10778,-0.323356 -0.29799,-0.494545 -0.19021,-0.171188 -0.44382,-0.171188 z m 7.4689,-0.602331 q 0.43114,0 0.76084,0.253613 0.33603,0.253613 0.52624,0.710116 0.19655,0.456503 0.19655,1.084195 0,0.621351 -0.19655,1.084194 -0.19021,0.456503 -0.52624,0.710116 -0.3297,0.247273 -0.76084,0.247273 -0.43749,0 -0.77352,-0.247273 -0.3297,-0.253613 -0.52625,-0.710116 -0.19021,-0.462843 -0.19021,-1.084194 0,-0.627692 0.19021,-1.084195 0.19655,-0.456503 0.52625,-0.710116 0.33603,-0.253613 0.77352,-0.253613 z m 0,0.602331 q -0.25362,0 -0.45017,0.171188 -0.19021,0.171189 -0.29799,0.494545 -0.10145,0.323357 -0.10145,0.773519 0,0.456503 0.10145,0.77986 0.10778,0.323356 0.29799,0.500885 0.19655,0.171189 0.45017,0.171189 0.24727,0 0.43748,-0.171189 0.19655,-0.177529 0.29799,-0.500885 0.10779,-0.323357 0.10779,-0.77986 0,-0.450162 -0.10779,-0.773519 -0.10144,-0.323356 -0.29799,-0.494545 -0.19021,-0.171188 -0.43748,-0.171188 z m 2.27617,-1.020792 h 0.66574 v 5.795053 h -0.66574 z m 0.51991,2.257154 h 1.04615 v 0.551608 h -1.04615 z m 1.6675,1.597761 h 0.3931 q 0.52625,0 1.02714,-0.02536 0.50722,-0.0317 1.07785,-0.133146 l 0.0507,0.538927 q -0.58331,0.107785 -1.09687,0.139487 -0.51357,0.02536 -1.05884,0.02536 h -0.3931 z m -0.0127,-3.246244 h 2.06061 v 2.098646 h -1.40755 v 1.363169 h -0.64038 v -1.889416 h 1.40755 v -1.039812 h -1.42023 z m 4.14023,-0.615011 h 0.63403 v 5.795052 h -0.63403 z m -1.82601,2.035243 h 0.91935 v 0.545267 h -0.91935 z m 0.65305,-1.908437 h 0.62135 v 5.376592 h -0.62135 z m 7.01874,2.130348 h 1.04615 v 0.551608 h -1.04615 z m -0.49455,-2.257154 h 0.66574 v 5.795052 h -0.66574 z m -3.62032,0.564288 h 0.66573 v 3.594962 h -0.66573 z m 0,3.233564 h 0.48186 q 0.6277,0 1.29343,-0.05072 0.67207,-0.05706 1.38219,-0.20289 l 0.0697,0.551608 q -0.72913,0.145827 -1.41389,0.20289 -0.68475,0.05072 -1.33147,0.05072 h -0.48186 z"
         id="text5-9-8"
         aria-label="타이베이 아레나" />
    </g>
    <text
       xml:space="preserve"
       transform="matrix(0.31615295,0,0,0.31615295,0.2809891,-6.4462013)"
       id="text6"
       style="font-size:55px;line-height:1.25;font-family:'Microsoft JhengHei';-inkscape-font-specification:'Microsoft JhengHei';white-space:pre;shape-inside:url(#rect6);display:inline" />
  </g>
</svg>
