<?xml version="1.0" encoding="UTF-8" standalone="no"?>
<!-- Created with Inkscape (http://www.inkscape.org/) -->

<svg
   width="500"
   height="250"
   viewBox="0 0 132.29166 66.145833"
   version="1.1"
   id="svg1"
   inkscape:version="1.3.2 (091e20e, 2023-11-25, custom)"
   sodipodi:docname="g18.svg"
   xmlns:inkscape="http://www.inkscape.org/namespaces/inkscape"
   xmlns:sodipodi="http://sodipodi.sourceforge.net/DTD/sodipodi-0.dtd"
   xmlns="http://www.w3.org/2000/svg"
   xmlns:svg="http://www.w3.org/2000/svg">
  <sodipodi:namedview
     id="namedview1"
     pagecolor="#9e652e"
     bordercolor="#ffffff"
     borderopacity="1"
     inkscape:showpageshadow="0"
     inkscape:pageopacity="0"
     inkscape:pagecheckerboard="false"
     inkscape:deskcolor="#d1d1d1"
     inkscape:document-units="mm"
     inkscape:zoom="2.0208096"
     inkscape:cx="271.67329"
     inkscape:cy="106.88785"
     inkscape:window-width="1920"
     inkscape:window-height="1009"
     inkscape:window-x="1912"
     inkscape:window-y="-8"
     inkscape:window-maximized="1"
     inkscape:current-layer="layer1" />
  <defs
     id="defs1">
    <rect
       x="560.66638"
       y="34.144731"
       width="279.32397"
       height="128.59143"
       id="rect6" />
    <rect
       x="157.85752"
       y="62.351248"
       width="381.61437"
       height="132.30098"
       id="rect4" />
    <rect
       x="157.85751"
       y="62.35125"
       width="329.07602"
       height="135.09438"
       id="rect4-5" />
    <rect
       x="157.85751"
       y="62.35125"
       width="329.07602"
       height="135.09438"
       id="rect4-5-8" />
    <rect
       x="157.85751"
       y="62.35125"
       width="329.07602"
       height="135.09438"
       id="rect4-5-1" />
    <rect
       x="157.85751"
       y="62.35125"
       width="329.07602"
       height="135.09438"
       id="rect4-5-4" />
  </defs>
  <g
     inkscape:label="Layer 1"
     inkscape:groupmode="layer"
     id="layer1">
    <rect
       style="fill:#f4eed3;fill-opacity:1;stroke:none;stroke-width:0.953294;stroke-dasharray:none"
       id="rect5"
       width="132.29167"
       height="66.145836"
       x="-2.5431316e-06"
       y="-1.2715658e-06"
       ry="0" />
    <g
       id="g10"
       transform="matrix(1.1068401,0,0,1.1068401,-3.244738,-3.533513)">
      <path
         id="rect1"
         style="fill-opacity:0;stroke:#000000;stroke-width:0.815864"
         d="m 23.886312,16.87302 h 10.752404 c 3.398374,0 6.134248,2.735875 6.134248,6.134249 v 20.131294 c 0,3.398374 -2.735874,6.134249 -6.134248,6.134249 H 23.886312 c -3.398373,0 -6.134248,-2.735875 -6.134248,-6.134249 V 23.007269 c 0,-3.398374 2.735875,-6.134249 6.134248,-6.134249 z" />
      <path
         style="font-size:12.5329px;line-height:1.25;font-family:'AR UDJingXiHeiE1G30 EB';-inkscape-font-specification:'AR UDJingXiHeiE1G30 EB';stroke-width:0.261102"
         d="m 31.816695,29.905448 q -0.463717,0.651711 -1.16556,0.965033 -0.689309,0.30079 -1.579145,0.30079 -1.955133,0 -3.108159,-1.228224 -1.153027,-1.240758 -1.153027,-3.459081 0,-2.230856 1.215691,-3.45908 1.215691,-1.228224 3.28362,-1.228224 1.666876,0 2.707106,0.764507 1.052764,0.751974 1.265823,2.155658 h -1.591678 q -0.125329,-0.739441 -0.739441,-1.203158 -0.601579,-0.47625 -1.64181,-0.47625 -1.391152,0 -2.11806,0.902369 -0.726908,0.889835 -0.726908,2.544178 0,1.767139 0.764506,2.606843 0.764507,0.827172 2.080462,0.827172 1.153027,0 1.829803,-0.676777 0.676777,-0.676776 0.676777,-1.554079 V 27.499131 H 29.24745 v -1.240757 h 4.098259 v 4.749969 h -1.529014 z"
         id="text2"
         aria-label="G" />
      <path
         style="font-size:12.4542px;line-height:1.25;font-family:'AR UDJingXiHeiE1G30 EB';-inkscape-font-specification:'AR UDJingXiHeiE1G30 EB';stroke-width:0.22644"
         d="m 24.891099,36.47625 -1.457141,1.357508 -0.722344,-1.108424 2.34139,-2.129668 h 1.357507 v 9.004387 h -1.519412 z m 9.714267,2.34139 q 0.759706,0.311355 1.145786,0.896702 0.386081,0.572894 0.386081,1.320146 0,1.257874 -0.871794,1.992671 -0.85934,0.734798 -2.378753,0.734798 -1.569229,0 -2.416114,-0.734798 -0.846886,-0.734797 -0.846886,-1.980217 0,-0.722344 0.373626,-1.295237 0.373626,-0.585347 1.09597,-0.921611 -0.585348,-0.273992 -0.871794,-0.759706 -0.286447,-0.498168 -0.298901,-1.120878 0,-1.09597 0.77216,-1.793405 0.784615,-0.709889 2.191939,-0.709889 1.369962,0 2.129669,0.697435 0.759706,0.697435 0.759706,1.805859 0,0.597802 -0.298901,1.09597 -0.286447,0.485713 -0.871794,0.77216 z m -1.731134,-0.572893 q 0.597802,0 0.958974,-0.348718 0.361171,-0.361172 0.361171,-0.934065 0,-0.597801 -0.361171,-0.934065 -0.348718,-0.348717 -0.94652,-0.348717 -0.62271,0 -1.00879,0.348717 -0.373626,0.348718 -0.373626,0.934065 0,0.560439 0.373626,0.921611 0.373626,0.361172 0.996336,0.361172 z m 1.693771,2.789741 q 0,-0.70989 -0.498168,-1.108424 -0.485713,-0.398535 -1.195603,-0.398535 -0.722343,0 -1.195603,0.435897 -0.460805,0.423443 -0.47326,1.083516 0,0.697435 0.460806,1.083515 0.460805,0.38608 1.220511,0.398534 0.747252,0 1.208058,-0.38608 0.473259,-0.398534 0.473259,-1.108423 z"
         id="text3"
         aria-label="18" />
      <path
         style="font-weight:500;font-size:72px;line-height:1.25;font-family:'Noto Sans TC';-inkscape-font-specification:'Noto Sans TC Medium';white-space:pre"
         d="m 162.03342,81.297406 h 63.648 v 6.408 h -63.648 z m 15.264,29.808004 h 33.264 v 5.4 h -33.264 z m -1.512,11.592 h 36.216 v 5.616 h -36.216 z m 14.616,-8.928 h 6.48 v 26.064 h -6.48 z m -24.984,-19.440004 h 52.128 v 6.336004 h -45.288 v 40.68 h -6.84 z m 50.04,0 h 6.912 v 39.744004 q 0,2.736 -0.72,4.176 -0.72,1.44 -2.736,2.16 -1.944,0.72 -5.112,0.864 -3.096,0.144 -7.488,0.144 -0.216,-1.296 -0.936,-3.024 -0.648,-1.656 -1.368,-2.88 2.088,0.072 4.032,0.072 2.016,0.072 3.6,0 1.584,0 2.16,0 1.008,0 1.296,-0.288 0.36,-0.36 0.36,-1.224 z m -34.848,8.496004 5.4,-1.656 q 1.368,1.872 2.592,4.176 1.224,2.304 1.8,4.032 l -5.76,2.016 q -0.432,-1.8 -1.656,-4.176 -1.152,-2.448 -2.376,-4.392 z m 21.24,-1.656 5.76,1.728 q -1.368,2.664 -2.88,5.328 -1.512,2.664 -2.88,4.536 l -4.896,-1.512 q 0.864,-1.368 1.728,-3.168 0.936,-1.8 1.728,-3.6 0.864,-1.8 1.44,-3.312 z m -11.664,-26.280004 h 7.488 v 23.832 h -7.488 z m 44.064,8.352 h 63.216 v 6.696 h -63.216 z m 15.336,17.496004 v 9.936 h 32.688 v -9.936 z m -6.768,-5.904004 h 46.656 v 21.744004 h -46.656 z m 35.784,29.232004 5.544,-3.456 q 2.232,2.304 4.752,5.04 2.52,2.736 4.752,5.4 2.304,2.592 3.672,4.68 l -5.976,4.032 q -1.224,-2.088 -3.384,-4.824 -2.16,-2.736 -4.608,-5.616 -2.448,-2.88 -4.752,-5.256 z m -16.056,-9.432 h 7.2 v 19.44 q 0,2.808 -0.792,4.32 -0.72,1.512 -2.808,2.232 -2.088,0.72 -5.328,0.864 -3.24,0.216 -7.848,0.144 -0.216,-1.44 -0.864,-3.312 -0.648,-1.8 -1.368,-3.24 2.232,0.072 4.32,0.144 2.088,0 3.672,0 1.584,0 2.232,0 0.936,-0.072 1.224,-0.288 0.36,-0.288 0.36,-1.008 z m -16.56,6.12 6.624,2.376 q -2.808,4.32 -6.768,8.784 -3.888,4.392 -7.632,7.632 -0.936,-1.008 -2.448,-2.304 -1.44,-1.224 -2.52,-2.016 2.376,-1.872 4.752,-4.32 2.376,-2.52 4.464,-5.184 2.16,-2.664 3.528,-4.968 z m 13.392,-44.568004 6.624,-2.16 q 1.512,2.376 3.096,5.256 1.656,2.808 2.52,4.824 l -7.056,2.52 q -0.72,-2.088 -2.232,-5.04 -1.512,-2.952 -2.952,-5.4 z m 51.192,5.4 h 54.648 v 6.984 h -54.648 z m 4.824,23.400004 h 44.136 v 6.912 h -44.136 z m -8.928,24.768 h 62.64 v 6.912 h -62.64 z m 100.224,-30.528004 h 6.984 q 0.36,7.056004 2.016,13.392004 1.728,6.264 4.248,11.088 2.592,4.824 5.544,7.56 3.024,2.664 5.976,2.664 1.584,0 2.232,-2.448 0.648,-2.448 0.936,-7.992 1.152,1.008 2.88,1.944 1.728,0.864 3.096,1.296 -0.504,5.616 -1.656,8.64 -1.08,3.024 -3.024,4.176 -1.872,1.152 -4.752,1.152 -4.896,0 -9.144,-3.312 -4.248,-3.312 -7.56,-9.072 -3.24,-5.76 -5.256,-13.248 -2.016,-7.488 -2.52,-15.840004 z m -21.024,10.800004 h 53.496 v 6.336 h -53.496 z m 0,-31.824004 h 48.24 v 22.032004 h -48.24 v -6.336004 h 41.328 v -9.36 h -41.328 z m -3.96,63.648004 -0.504,-5.904 3.312,-2.448 23.472,-6.048 q 0,0.936 0.072,2.16 0.144,1.152 0.288,2.304 0.216,1.152 0.36,1.944 -6.552,1.8 -11.016,3.024 -4.464,1.296 -7.344,2.088 -2.88,0.792 -4.608,1.296 -1.656,0.504 -2.52,0.864 -0.864,0.36 -1.512,0.72 z m 0,0 q -0.288,-0.864 -0.864,-2.088 -0.504,-1.152 -1.152,-2.232 -0.576,-1.08 -1.152,-1.728 1.152,-0.648 2.304,-2.016 1.152,-1.44 1.152,-3.744 V 78.201406 h 7.056 v 57.096004 q 0,0 -0.72,0.432 -0.72,0.432 -1.8,1.08 -1.08,0.72 -2.232,1.584 -1.152,0.864 -1.872,1.728 -0.72,0.936 -0.72,1.728 z"
         id="text4"
         transform="matrix(0.22644015,0,0,0.22644015,8.2710132,0.93621216)"
         aria-label="南京三民" />
      <path
         style="font-size:6.34032px;line-height:1.25;font-family:'AR UDJingXiHeiE1G30 EB';-inkscape-font-specification:'AR UDJingXiHeiE1G30 EB';stroke-width:0.22644"
         d="m 45.874878,36.524863 v 3.309648 h -0.80522 v -4.584052 h 0.830582 l 2.250813,3.385731 v -3.385731 h 0.805221 v 4.584052 H 48.07497 Z m 6.574908,1.458274 -0.722796,-1.959159 -0.735478,1.959159 z m -1.692865,0.627692 -0.456503,1.223682 h -0.817902 l 1.845033,-4.584052 h 0.824242 l 1.832353,4.584052 h -0.836923 l -0.462843,-1.223682 z m 4.558684,-2.085966 v 3.309648 h -0.805221 v -4.584052 h 0.830582 L 57.59178,38.63619 V 35.250459 H 58.397 v 4.584052 h -0.881304 z m 4.691832,2.136688 q 0,0.291655 0.145828,0.456503 0.145827,0.164849 0.469183,0.164849 0.317016,0.0063 0.481865,-0.171189 0.164848,-0.183869 0.164848,-0.519906 v -3.341349 h 0.79888 v 3.411092 q 0,0.576969 -0.380419,0.919347 -0.374079,0.336037 -1.071514,0.336037 -0.678414,0 -1.046153,-0.329697 -0.367738,-0.336037 -0.367738,-0.855943 v -0.405781 h 0.80522 z m 3.886612,-3.411092 v 4.584052 h -0.80522 v -4.584052 z m 1.85771,1.274404 v 3.309648 h -0.805221 v -4.584052 h 0.830582 l 2.250814,3.385731 v -3.385731 h 0.805221 v 4.584052 H 67.95185 Z m 7.500594,2.751699 q -0.234592,0.329697 -0.58965,0.488205 -0.348718,0.152168 -0.798881,0.152168 -0.98909,0 -1.572399,-0.621352 -0.583309,-0.627691 -0.583309,-1.749928 0,-1.128577 0.615011,-1.749928 0.615011,-0.621352 1.661164,-0.621352 0.843262,0 1.369509,0.38676 0.532587,0.380419 0.640372,1.090535 h -0.805221 q -0.0634,-0.374079 -0.374079,-0.608671 -0.304335,-0.240932 -0.830581,-0.240932 -0.703776,0 -1.071515,0.456503 -0.367738,0.450163 -0.367738,1.287085 0,0.893985 0.386759,1.318787 0.38676,0.418461 1.052494,0.418461 0.583309,0 0.925686,-0.342378 0.342378,-0.342377 0.342378,-0.786199 v -0.0951 h -1.299766 v -0.627692 h 2.073285 v 2.402982 h -0.773519 z m 4.907398,-1.515336 q -0.836922,-0.152168 -1.242702,-0.469184 -0.405781,-0.317016 -0.405781,-0.887645 0,-0.532587 0.431142,-0.881304 0.437482,-0.348718 1.344148,-0.348718 0.830582,0 1.287085,0.355058 0.456503,0.355058 0.500885,1.027132 h -0.805221 q -0.0063,-0.323356 -0.253613,-0.538927 -0.247272,-0.215571 -0.754498,-0.215571 -0.475524,0 -0.703775,0.158508 -0.228252,0.158508 -0.221911,0.443822 0,0.310676 0.304335,0.462844 0.310676,0.152167 1.008111,0.291654 0.874964,0.177529 1.242703,0.481865 0.374079,0.304335 0.374079,0.913006 0,0.583309 -0.494545,0.976409 -0.494545,0.38676 -1.407552,0.38676 -0.932027,0 -1.451933,-0.3931 -0.519906,-0.3931 -0.519906,-1.134917 h 0.805221 q 0,0.41212 0.310675,0.659393 0.310676,0.240932 0.862284,0.240932 0.507225,0 0.79254,-0.19655 0.285314,-0.19655 0.285314,-0.513566 0,-0.367738 -0.285314,-0.526246 -0.285315,-0.158508 -1.001771,-0.291655 z m 5.300507,0.221911 -0.722796,-1.959159 -0.735477,1.959159 z m -1.692865,0.627692 -0.456503,1.223682 h -0.817901 l 1.845033,-4.584052 h 0.824241 l 1.832353,4.584052 H 84.157694 L 83.69485,38.610829 Z m 4.558684,-2.085966 v 3.309648 h -0.805221 v -4.584052 h 0.830582 l 2.250814,3.385731 v -3.385731 h 0.805221 v 4.584052 h -0.881305 z m 4.913745,0.0063 v 3.303307 h -0.77986 v -4.584052 h 1.020792 l 1.318787,3.55692 1.268064,-3.55692 h 1.046152 v 4.584052 h -0.786199 v -3.328669 l -1.191981,3.328669 h -0.678414 z m 5.731648,-1.280745 v 4.584052 h -0.80522 v -4.584052 z m 1.857708,1.274404 v 3.309648 h -0.80522 v -4.584052 h 0.830582 l 2.25081,3.385731 v -3.385731 h 0.80522 v 4.584052 h -0.8813 z"
         id="text5"
         aria-label="NANJING SANMIN" />
      <path
         d="m 44.799101,42.601704 h 5.604843 v 0.564289 h -5.604843 z m 1.344148,2.624893 h 2.929227 v 0.475524 h -2.929227 z m -0.133147,1.020791 h 3.189181 v 0.494545 h -3.189181 z m 1.287085,-0.786199 h 0.570629 v 2.295196 h -0.570629 z m -2.200091,-1.711887 h 4.590392 v 0.557948 h -3.988062 v 3.582281 h -0.60233 z m 4.406522,0 h 0.608671 v 3.499857 q 0,0.240932 -0.0634,0.367739 -0.0634,0.126806 -0.240932,0.190209 -0.171189,0.0634 -0.450163,0.07608 -0.272634,0.01268 -0.659393,0.01268 -0.01902,-0.114126 -0.08243,-0.266294 -0.05706,-0.145827 -0.120466,-0.253613 0.18387,0.0063 0.355058,0.0063 0.177529,0.0063 0.317016,0 0.139487,0 0.19021,0 0.08876,0 0.114126,-0.02536 0.0317,-0.0317 0.0317,-0.107785 z m -3.068715,0.748158 0.475524,-0.145827 q 0.120466,0.164848 0.228252,0.367738 0.107785,0.202891 0.158508,0.355058 l -0.507226,0.177529 Q 46.751919,45.09345 46.644134,44.88422 46.542689,44.668649 46.434903,44.49746 Z m 1.870395,-0.145827 0.507225,0.152167 q -0.120466,0.234592 -0.253612,0.469184 -0.133147,0.234592 -0.253613,0.39944 l -0.431142,-0.133146 q 0.07608,-0.120467 0.152168,-0.278975 0.08242,-0.158508 0.152167,-0.317016 0.07608,-0.158508 0.126807,-0.291654 z m -1.027132,-2.314217 h 0.659393 v 2.098646 h -0.659393 z m 3.880276,0.659393 h 5.566801 v 0.576969 h -5.566801 z m 2.447363,-0.684754 h 0.640373 v 0.976409 h -0.640373 z m -1.096875,2.301536 v 0.906666 h 2.878505 v -0.906666 z m -0.59599,-0.519906 h 4.108527 v 1.952818 H 51.91294 Z m 3.16382,2.529787 0.545267,-0.266293 q 0.209231,0.20923 0.431142,0.456503 0.228251,0.240932 0.431142,0.481864 0.20289,0.234592 0.329696,0.424802 l -0.589649,0.304335 Q 56.116572,47.534473 55.920022,47.293541 55.729813,47.046269 55.507901,46.792656 55.28599,46.532703 55.07676,46.323472 Z m -1.458274,-0.79888 h 0.627692 v 1.718227 q 0,0.240932 -0.0634,0.374079 -0.0634,0.133146 -0.253612,0.196549 -0.18387,0.0634 -0.469184,0.07608 -0.278974,0.01268 -0.684755,0.01268 -0.01902,-0.126806 -0.07608,-0.285314 -0.05706,-0.158508 -0.120467,-0.285315 0.19655,0.0063 0.38042,0.01268 0.183869,0 0.323356,0 0.139487,-0.0063 0.19021,-0.0063 0.08876,0 0.114125,-0.01902 0.0317,-0.02536 0.0317,-0.08877 z m -1.477295,0.532587 0.608671,0.19655 q -0.152168,0.247272 -0.361398,0.513566 -0.20289,0.259953 -0.431142,0.494545 -0.228251,0.228251 -0.456503,0.41212 -0.0951,-0.08876 -0.240932,-0.190209 -0.139487,-0.101445 -0.247273,-0.164848 0.228252,-0.158508 0.443823,-0.367739 0.215571,-0.215571 0.3931,-0.450163 0.177529,-0.234592 0.291654,-0.443822 z m 5.73799,-3.430113 h 4.812303 v 0.615011 h -4.812303 z m 0.424802,2.060604 h 3.886616 v 0.60867 h -3.886616 z m -0.7862,2.18107 h 5.516078 v 0.608671 h -5.516078 z m 9.079338,-2.675615 h 0.621351 q 0.0317,0.634032 0.177529,1.19832 0.152168,0.564289 0.374079,1.001771 0.228252,0.431142 0.488205,0.678414 0.266293,0.240932 0.526246,0.234592 0.133147,0 0.19021,-0.215571 0.0634,-0.215571 0.08876,-0.716456 0.101445,0.0951 0.247273,0.177529 0.152167,0.07608 0.278974,0.114126 -0.04438,0.494545 -0.145827,0.760838 -0.101446,0.272634 -0.266294,0.374079 -0.164848,0.101445 -0.424801,0.101445 -0.431142,0 -0.805221,-0.297995 -0.374079,-0.291655 -0.665734,-0.805221 -0.285314,-0.519906 -0.462843,-1.18564 -0.177529,-0.672074 -0.221911,-1.420231 z m -1.851374,0.887645 h 4.704518 v 0.557948 h -4.704518 z m -0.976409,2.104986 q 0.38676,-0.04438 0.906666,-0.107786 0.519906,-0.0634 1.090535,-0.139487 0.576969,-0.07608 1.147598,-0.152167 l 0.01902,0.589649 q -0.532587,0.07608 -1.077855,0.152168 -0.545267,0.08242 -1.046152,0.152168 -0.500886,0.06974 -0.913007,0.126806 z m 0.665734,-4.856685 h 0.615011 v 5.059575 h -0.615011 z m 0.304335,0 h 4.248014 v 1.98452 h -4.248014 v -0.557948 h 3.639344 v -0.868624 h -3.639344 z"
         id="text5-9"
         style="font-weight:500;font-size:6.34032px;line-height:1.25;font-family:'Noto Sans JP';-inkscape-font-specification:'Noto Sans JP Medium';stroke-width:0.22644"
         aria-label="南京三民" />
      <path
         style="font-weight:500;font-size:6.34032px;line-height:1.25;font-family:'Noto Sans KR';-inkscape-font-specification:'Noto Sans KR Medium';stroke-width:0.22644"
         d="m 78.097026,42.575439 h 0.659393 v 2.434683 h -0.659393 z m 0,2.225453 h 0.469183 q 0.608671,0 1.255384,-0.05072 0.653053,-0.05072 1.356828,-0.19021 l 0.07608,0.538928 q -0.716456,0.145827 -1.38853,0.20289 -0.665734,0.05072 -1.299766,0.05072 h -0.469183 z m 3.601301,-2.624893 h 0.659394 v 4.178271 h -0.659394 z m 0.462844,1.673845 h 1.014451 v 0.564288 h -1.014451 z m -3.455475,3.461814 h 3.848575 v 0.538928 h -3.848575 z m 0,-1.356828 h 0.665734 v 1.635803 h -0.665734 z m 9.072999,-3.778831 h 0.665734 v 3.468155 h -0.665734 z m -1.274404,3.594962 q 0.60867,0 1.046152,0.133146 0.437483,0.126807 0.678415,0.38042 0.240932,0.247272 0.240932,0.589649 0,0.355058 -0.240932,0.602331 -0.240932,0.247272 -0.678415,0.374079 -0.437482,0.133146 -1.046152,0.133146 -0.602331,0 -1.046153,-0.133146 -0.437482,-0.126807 -0.678414,-0.374079 -0.234592,-0.247273 -0.234592,-0.602331 0,-0.342377 0.234592,-0.589649 0.240932,-0.253613 0.678414,-0.38042 0.443822,-0.133146 1.046153,-0.133146 z m 0,0.519906 q -0.405781,0 -0.697436,0.06974 -0.291654,0.0634 -0.443822,0.19655 -0.152168,0.133147 -0.152168,0.317016 0,0.19021 0.152168,0.323357 0.152168,0.133146 0.443822,0.20289 0.291655,0.06974 0.697436,0.06974 0.418461,0 0.703775,-0.06974 0.291655,-0.06974 0.443823,-0.20289 0.152167,-0.133147 0.152167,-0.323357 0,-0.183869 -0.152167,-0.317016 -0.152168,-0.133146 -0.443823,-0.19655 -0.285314,-0.06974 -0.703775,-0.06974 z m -1.350489,-3.525218 h 0.545268 v 0.418461 q 0,0.538927 -0.19655,1.014451 -0.19021,0.475524 -0.551608,0.830582 -0.361398,0.348718 -0.881304,0.532587 L 83.72723,45.041824 q 0.462844,-0.158508 0.77352,-0.443823 0.317016,-0.291654 0.481864,-0.653053 0.171188,-0.367738 0.171188,-0.760838 z m 0.133147,0 h 0.545268 v 0.418461 q 0,0.272634 0.08876,0.532587 0.09511,0.259953 0.278974,0.488205 0.18387,0.228251 0.443823,0.40578 0.266293,0.177529 0.60233,0.278974 l -0.336037,0.526247 q -0.507225,-0.171189 -0.874964,-0.500886 -0.361398,-0.329696 -0.557948,-0.773519 -0.19021,-0.450162 -0.19021,-0.957388 z m -1.38853,-0.171189 h 3.16382 v 0.532587 h -3.16382 z m 11.38088,-0.418461 h 0.665734 v 4.235334 h -0.665734 z m 0.329697,1.705546 h 1.00177 v 0.551608 h -1.00177 z m -3.499857,3.430113 h 4.051464 v 0.538928 h -4.051464 z m 0,-1.312446 h 0.665734 v 1.413892 h -0.665734 z m -0.03804,-3.417432 h 0.481864 v 0.640372 q 0,0.317016 -0.05072,0.653053 -0.05072,0.336037 -0.164849,0.653053 -0.107785,0.310676 -0.297995,0.576969 -0.190209,0.259953 -0.475524,0.431142 l -0.361398,-0.469184 q 0.247273,-0.158508 0.412121,-0.374079 0.171189,-0.215571 0.272634,-0.462843 0.101445,-0.253613 0.139487,-0.513566 0.04438,-0.259953 0.04438,-0.494545 z m 0.158508,0 h 0.469184 v 0.640372 q 0,0.221911 0.0317,0.481864 0.0317,0.259953 0.114126,0.519907 0.08876,0.253612 0.240932,0.481864 0.158508,0.228251 0.405781,0.39944 l -0.323357,0.494545 q -0.285314,-0.19021 -0.475524,-0.469184 -0.183869,-0.278974 -0.285314,-0.60867 -0.09511,-0.329697 -0.139487,-0.665734 -0.03804,-0.336037 -0.03804,-0.634032 z m 1.407551,0 h 0.475524 v 0.640372 q 0,0.304335 -0.04438,0.646713 -0.03804,0.342377 -0.139487,0.672074 -0.0951,0.323356 -0.278974,0.60233 -0.18387,0.272634 -0.481865,0.456503 l -0.317016,-0.494545 q 0.247273,-0.171189 0.399441,-0.3931 0.158508,-0.228251 0.240932,-0.481864 0.08242,-0.259953 0.114125,-0.513566 0.0317,-0.259953 0.0317,-0.494545 z m 0.152168,0 h 0.475524 v 0.640372 q 0,0.342377 0.07608,0.691095 0.08242,0.348717 0.272633,0.653053 0.19655,0.297995 0.526247,0.500885 l -0.367739,0.469184 q -0.374079,-0.228252 -0.59599,-0.59599 -0.215571,-0.374079 -0.304335,-0.817902 -0.08242,-0.450162 -0.08242,-0.900325 z m 3.620324,0.06974 h 2.745362 v 2.751699 h -2.745362 z m 2.098646,0.532587 H 98.05636 v 1.686525 h 1.451934 z m 1.711886,-1.008111 h 0.66573 v 4.146569 h -0.66573 z m -3.113097,5.091277 h 3.943677 v 0.538927 h -3.943677 z m 0,-1.331467 h 0.659393 v 1.566059 h -0.659393 z"
         id="text5-9-8"
         aria-label="난징 싼민" />
    </g>
    <text
       xml:space="preserve"
       transform="matrix(0.31615295,0,0,0.31615295,0.2809891,-6.4462013)"
       id="text6"
       style="font-size:55px;line-height:1.25;font-family:'Microsoft JhengHei';-inkscape-font-specification:'Microsoft JhengHei';white-space:pre;shape-inside:url(#rect6);display:inline" />
    <text
       xml:space="preserve"
       style="font-size:14.5521px;line-height:0.45;font-family:DFPYuanLight-B5;-inkscape-font-specification:DFPYuanLight-B5;stroke-width:0.264583"
       x="100.03004"
       y="43.141556"
       id="text11"><tspan
         sodipodi:role="line"
         id="tspan11"
         style="stroke-width:0.264583"></tspan></text>
  </g>
</svg>
