<?xml version="1.0" encoding="UTF-8" standalone="no"?>
<!-- Created with Inkscape (http://www.inkscape.org/) -->

<svg
   width="500"
   height="250"
   viewBox="0 0 132.29166 66.145833"
   version="1.1"
   id="svg1"
   inkscape:version="1.3.2 (091e20e, 2023-11-25, custom)"
   sodipodi:docname="g19.svg"
   xmlns:inkscape="http://www.inkscape.org/namespaces/inkscape"
   xmlns:sodipodi="http://sodipodi.sourceforge.net/DTD/sodipodi-0.dtd"
   xmlns="http://www.w3.org/2000/svg"
   xmlns:svg="http://www.w3.org/2000/svg">
  <sodipodi:namedview
     id="namedview1"
     pagecolor="#9e652e"
     bordercolor="#ffffff"
     borderopacity="1"
     inkscape:showpageshadow="0"
     inkscape:pageopacity="0"
     inkscape:pagecheckerboard="false"
     inkscape:deskcolor="#d1d1d1"
     inkscape:document-units="mm"
     inkscape:zoom="2.0208096"
     inkscape:cx="271.67329"
     inkscape:cy="106.88785"
     inkscape:window-width="1920"
     inkscape:window-height="1009"
     inkscape:window-x="1912"
     inkscape:window-y="-8"
     inkscape:window-maximized="1"
     inkscape:current-layer="layer1" />
  <defs
     id="defs1">
    <rect
       x="560.66638"
       y="34.144731"
       width="279.32397"
       height="128.59143"
       id="rect6" />
    <rect
       x="157.85752"
       y="62.351248"
       width="381.61437"
       height="132.30098"
       id="rect4" />
    <rect
       x="157.85751"
       y="62.35125"
       width="329.07602"
       height="135.09438"
       id="rect4-5" />
    <rect
       x="157.85751"
       y="62.35125"
       width="329.07602"
       height="135.09438"
       id="rect4-5-8" />
    <rect
       x="157.85751"
       y="62.35125"
       width="329.07602"
       height="135.09438"
       id="rect4-5-1" />
    <rect
       x="157.85751"
       y="62.35125"
       width="329.07602"
       height="135.09438"
       id="rect4-5-4" />
  </defs>
  <g
     inkscape:label="Layer 1"
     inkscape:groupmode="layer"
     id="layer1">
    <rect
       style="fill:#f4eed3;fill-opacity:1;stroke:none;stroke-width:0.953294;stroke-dasharray:none"
       id="rect5"
       width="132.29167"
       height="66.145836"
       x="-2.5431316e-06"
       y="-1.2715658e-06"
       ry="0" />
    <g
       id="g10"
       transform="matrix(1.1068401,0,0,1.1068401,10.948138,-3.533513)">
      <path
         id="rect1"
         style="fill-opacity:0;stroke:#000000;stroke-width:0.815864"
         d="m 23.886312,16.87302 h 10.752404 c 3.398374,0 6.134248,2.735875 6.134248,6.134249 v 20.131294 c 0,3.398374 -2.735874,6.134249 -6.134248,6.134249 H 23.886312 c -3.398373,0 -6.134248,-2.735875 -6.134248,-6.134249 V 23.007269 c 0,-3.398374 2.735875,-6.134249 6.134248,-6.134249 z" />
      <path
         style="font-size:12.5329px;line-height:1.25;font-family:'AR UDJingXiHeiE1G30 EB';-inkscape-font-specification:'AR UDJingXiHeiE1G30 EB';stroke-width:0.261102"
         d="m 31.816695,29.905448 q -0.463717,0.651711 -1.16556,0.965033 -0.689309,0.30079 -1.579145,0.30079 -1.955133,0 -3.108159,-1.228224 -1.153027,-1.240758 -1.153027,-3.459081 0,-2.230856 1.215691,-3.45908 1.215691,-1.228224 3.28362,-1.228224 1.666876,0 2.707106,0.764507 1.052764,0.751974 1.265823,2.155658 h -1.591678 q -0.125329,-0.739441 -0.739441,-1.203158 -0.601579,-0.47625 -1.64181,-0.47625 -1.391152,0 -2.11806,0.902369 -0.726908,0.889835 -0.726908,2.544178 0,1.767139 0.764506,2.606843 0.764507,0.827172 2.080462,0.827172 1.153027,0 1.829803,-0.676777 0.676777,-0.676776 0.676777,-1.554079 V 27.499131 H 29.24745 v -1.240757 h 4.098259 v 4.749969 h -1.529014 z"
         id="text2"
         aria-label="G" />
      <path
         style="font-size:12.4542px;line-height:1.25;font-family:'AR UDJingXiHeiE1G30 EB';-inkscape-font-specification:'AR UDJingXiHeiE1G30 EB';stroke-width:0.22644"
         d="m 24.891099,36.47625 -1.457141,1.357508 -0.722344,-1.108424 2.34139,-2.129668 h 1.357507 v 9.004387 h -1.519412 z m 7.895954,-0.797068 q -0.672527,0 -1.083516,0.473259 -0.398534,0.460806 -0.398534,1.320145 0,0.821978 0.373626,1.295237 0.38608,0.47326 1.120878,0.485714 0.697435,0 1.083515,-0.448351 0.398535,-0.460806 0.398535,-1.320145 0,-0.896703 -0.38608,-1.345054 -0.386081,-0.460805 -1.108424,-0.460805 z m 0.02491,6.849809 q 0.871794,0 1.295237,-0.722343 0.423443,-0.722344 0.423443,-2.34139 -0.311355,0.498168 -0.846886,0.759707 -0.523076,0.261538 -1.170695,0.261538 -1.270328,0 -2.030034,-0.821977 -0.759706,-0.834432 -0.759706,-2.142123 0,-1.345053 0.821977,-2.204393 0.834431,-0.871794 2.229302,-0.871794 1.656408,0 2.453477,1.083515 0.797069,1.083516 0.797069,3.213184 0,2.615382 -0.784615,3.823439 -0.784614,1.195603 -2.441023,1.195603 -1.444687,0 -2.167031,-0.709889 -0.722343,-0.722344 -0.734797,-1.71868 h 1.531866 q 0.01245,0.523077 0.361172,0.85934 0.348717,0.336263 1.021244,0.336263 z"
         id="text3"
         aria-label="19" />
      <path
         style="font-weight:500;font-size:72px;line-height:1.25;font-family:'Noto Sans TC';-inkscape-font-specification:'Noto Sans TC Medium';white-space:pre"
         d="m 161.09742,89.433406 h 25.2 v 6.408 h -25.2 z m 10.224,-14.76 h 6.192 v 66.744004 h -6.192 z m -0.144,19.152 3.888,1.512 q -0.864,4.464 -2.088,9.144004 -1.224,4.68 -2.808,9.216 -1.512,4.464 -3.312,8.352 -1.728,3.816 -3.672,6.552 -0.288,-0.936 -0.864,-2.16 -0.576,-1.224 -1.296,-2.448 -0.648,-1.224 -1.224,-2.088 1.8,-2.304 3.528,-5.544 1.728,-3.312 3.24,-7.128 1.512,-3.816 2.664,-7.704 1.224,-3.960004 1.944,-7.704004 z m 5.976,4.608 q 0.648,0.792 1.944,2.664004 1.368,1.8 2.808,4.032 1.512,2.16 2.808,4.032 1.296,1.8 1.8,2.664 l -4.104,4.752 q -0.576,-1.44 -1.656,-3.6 -1.08,-2.16 -2.376,-4.464 -1.224,-2.304 -2.448,-4.32 -1.152,-2.016 -1.872,-3.24 z m 11.592,40.176004 q -0.144,-0.648 -0.576,-1.872 -0.36,-1.152 -0.792,-2.376 -0.432,-1.296 -0.864,-2.16 1.224,-0.36 2.304,-1.944 1.08,-1.584 2.376,-4.176 0.72,-1.296 1.944,-4.104 1.296,-2.808 2.736,-6.696 1.512,-3.888 3.024,-8.28 1.512,-4.392 2.592,-8.856004 l 6.912,1.8 q -1.944,6.336004 -4.392,12.600004 -2.448,6.264 -5.112,11.952 -2.592,5.616 -5.328,10.296 v 0.072 q 0,0 -0.72,0.432 -0.72,0.36 -1.728,0.936 -0.936,0.648 -1.656,1.296 -0.72,0.648 -0.72,1.08 z m 0,0 -0.216,-5.4 3.6,-2.376 27.864,-3.24 q 0.072,1.368 0.36,3.096 0.36,1.728 0.648,2.808 -7.992,1.008 -13.392,1.8 -5.4,0.72 -8.856,1.152 -3.384,0.504 -5.328,0.864 -1.944,0.432 -3.024,0.72 -1.008,0.288 -1.656,0.576 z m 21.744,-21.168 5.832,-2.376 q 1.8,3.528 3.672,7.704 1.944,4.104 3.6,7.92 1.728,3.816 2.736,6.624 l -6.264,2.952 q -0.936,-2.952 -2.592,-6.84 -1.584,-3.96 -3.456,-8.136 -1.8,-4.248 -3.528,-7.848 z m -15.048,-40.248004 6.408,1.224 q -1.008,5.976 -2.664,11.736 -1.584,5.76 -3.672,10.800004 -2.088,4.968 -4.824,8.784 -0.36,-0.648 -1.224,-1.656 -0.792,-1.008 -1.728,-2.016 -0.936,-1.08 -1.656,-1.656 2.376,-3.24 4.176,-7.560004 1.8,-4.392 3.024,-9.36 1.296,-5.04 2.16,-10.296 z m 12.96,-0.576 h 7.056 q 1.008,5.256 2.592,10.512 1.656,5.256 3.816,9.72 2.16,4.392004 4.608,7.416004 -0.72,0.576 -1.728,1.512 -0.936,0.936 -1.872,2.016 -0.864,1.008 -1.44,1.8 -2.664,-3.6 -4.896,-8.424 -2.232,-4.896004 -3.96,-10.296004 -1.656,-5.472 -2.736,-10.872 h -1.44 z m -4.464,0 h 10.224 v 5.832 h -10.224 z m 58.248,-1.224 h 7.2 v 56.880004 h -7.2 z m 25.488,14.328 h 7.056 v 51.552004 h -7.056 z m -50.472,0.216 h 6.984 v 39.168004 h 46.944 v 6.912 h -53.928 z"
         id="text4"
         transform="matrix(0.22644015,0,0,0.22644015,8.2710132,0.93621216)"
         aria-label="松山" />
      <path
         style="font-size:6.34032px;line-height:1.25;font-family:'AR UDJingXiHeiE1G30 EB';-inkscape-font-specification:'AR UDJingXiHeiE1G30 EB';stroke-width:0.22644"
         d="m 46.591335,37.761226 q -0.836923,-0.152168 -1.242703,-0.469184 -0.405781,-0.317016 -0.405781,-0.887645 0,-0.532587 0.431142,-0.881304 0.437482,-0.348718 1.344148,-0.348718 0.830582,0 1.287085,0.355058 0.456503,0.355058 0.500885,1.027132 h -0.80522 q -0.0063,-0.323356 -0.253613,-0.538927 -0.247273,-0.215571 -0.754498,-0.215571 -0.475524,0 -0.703776,0.158508 -0.228251,0.158508 -0.221911,0.443822 0,0.310676 0.304335,0.462844 0.310676,0.152167 1.008111,0.291654 0.874964,0.177529 1.242703,0.481865 0.374079,0.304335 0.374079,0.913006 0,0.583309 -0.494545,0.976409 -0.494545,0.38676 -1.407551,0.38676 -0.932027,0 -1.451933,-0.3931 -0.519907,-0.3931 -0.519907,-1.134917 h 0.805221 q 0,0.41212 0.310676,0.659393 0.310675,0.240932 0.862283,0.240932 0.507226,0 0.79254,-0.19655 0.285315,-0.19655 0.285315,-0.513566 0,-0.367738 -0.285315,-0.526246 -0.285314,-0.158508 -1.00177,-0.291655 z m 7.266007,-0.19655 q 0,1.103216 -0.615012,1.730907 -0.60867,0.621352 -1.667504,0.621352 -1.077854,0 -1.686525,-0.627692 -0.608671,-0.627692 -0.608671,-1.724567 0,-1.115896 0.615011,-1.749928 0.615011,-0.640373 1.680185,-0.640373 1.077855,0 1.680185,0.634032 0.602331,0.634032 0.602331,1.756269 z m -2.282516,1.724567 q 0.691095,0 1.065174,-0.456503 0.380419,-0.456503 0.380419,-1.268064 0,-0.805221 -0.380419,-1.280745 -0.380419,-0.481864 -1.065174,-0.481864 -0.697435,0 -1.084194,0.488205 -0.38042,0.481864 -0.38042,1.274404 0,0.811561 0.38676,1.268064 0.386759,0.456503 1.077854,0.456503 z m 3.962702,-2.76438 v 3.309648 h -0.805221 v -4.584052 h 0.830582 l 2.250814,3.385731 v -3.385731 h 0.80522 v 4.584052 h -0.881304 z m 7.500594,2.751699 q -0.234592,0.329697 -0.58965,0.488205 -0.348717,0.152168 -0.79888,0.152168 -0.98909,0 -1.5724,-0.621352 -0.583309,-0.627691 -0.583309,-1.749928 0,-1.128577 0.615011,-1.749928 0.615011,-0.621352 1.661164,-0.621352 0.843263,0 1.369509,0.38676 0.532587,0.380419 0.640372,1.090535 h -0.80522 q -0.0634,-0.374079 -0.374079,-0.608671 -0.304335,-0.240932 -0.830582,-0.240932 -0.703776,0 -1.071514,0.456503 -0.367739,0.450163 -0.367739,1.287085 0,0.893985 0.38676,1.318787 0.386759,0.418461 1.052493,0.418461 0.583309,0 0.925687,-0.342378 0.342377,-0.342377 0.342377,-0.786199 v -0.0951 h -1.299766 v -0.627692 h 2.073285 v 2.402982 h -0.773519 z m 3.24624,-1.515336 q -0.836922,-0.152168 -1.242703,-0.469184 -0.40578,-0.317016 -0.40578,-0.887645 0,-0.532587 0.431142,-0.881304 0.437482,-0.348718 1.344148,-0.348718 0.830581,0 1.287085,0.355058 0.456503,0.355058 0.500885,1.027132 h -0.805221 q -0.0063,-0.323356 -0.253613,-0.538927 -0.247272,-0.215571 -0.754498,-0.215571 -0.475524,0 -0.703775,0.158508 -0.228252,0.158508 -0.221911,0.443822 0,0.310676 0.304335,0.462844 0.310676,0.152167 1.008111,0.291654 0.874964,0.177529 1.242703,0.481865 0.374078,0.304335 0.374078,0.913006 0,0.583309 -0.494545,0.976409 -0.494545,0.38676 -1.407551,0.38676 -0.932027,0 -1.451933,-0.3931 -0.519906,-0.3931 -0.519906,-1.134917 h 0.80522 q 0,0.41212 0.310676,0.659393 0.310676,0.240932 0.862284,0.240932 0.507225,0 0.79254,-0.19655 0.285314,-0.19655 0.285314,-0.513566 0,-0.367738 -0.285314,-0.526246 -0.285315,-0.158508 -1.001771,-0.291655 z m 3.664705,0.03804 v 2.035243 h -0.805221 v -4.584052 h 0.805221 v 1.921117 h 2.200091 v -1.921117 h 0.80522 v 4.584052 h -0.80522 v -2.035243 z m 6.49883,0.183869 -0.722797,-1.959159 -0.735477,1.959159 z m -1.692866,0.627692 -0.456503,1.223682 h -0.817901 l 1.845033,-4.584052 h 0.824242 l 1.832352,4.584052 h -0.836922 l -0.462843,-1.223682 z m 4.558683,-2.085966 v 3.309648 h -0.805221 v -4.584052 h 0.830582 l 2.250814,3.385731 v -3.385731 h 0.80522 v 4.584052 h -0.881304 z"
         id="text5"
         aria-label="SONGSHAN" />
      <path
         d="m 48.298957,44.478439 0.684755,0.164848 q -0.107785,0.336037 -0.240932,0.703776 -0.126807,0.361398 -0.266294,0.722796 -0.133146,0.361399 -0.272633,0.691095 -0.133147,0.323357 -0.259954,0.58331 l -0.513565,-0.164849 q 0.114125,-0.266293 0.240932,-0.60233 0.126806,-0.342377 0.240932,-0.703775 0.120466,-0.367739 0.215571,-0.722797 0.0951,-0.355058 0.171188,-0.672074 z m -1.458273,2.58051 q 0.39944,-0.01902 0.925687,-0.04438 0.532586,-0.02536 1.128577,-0.0634 0.60233,-0.03804 1.19832,-0.06974 l -0.0063,0.551608 q -0.557948,0.04438 -1.128577,0.08877 -0.564289,0.04438 -1.084195,0.08242 -0.513566,0.03804 -0.932027,0.0634 z m 2.231792,-1.172959 0.513566,-0.247272 q 0.202891,0.310675 0.405781,0.672074 0.20289,0.355058 0.367738,0.703775 0.171189,0.342377 0.259954,0.608671 l -0.564289,0.291655 q -0.07608,-0.266294 -0.234592,-0.615011 -0.158508,-0.355058 -0.355058,-0.722797 -0.19655,-0.367738 -0.3931,-0.691095 z m -1.249043,-3.734448 0.621352,0.126806 q -0.114126,0.507226 -0.285315,0.99543 -0.171188,0.481865 -0.380419,0.900326 -0.20923,0.418461 -0.450163,0.741817 -0.05072,-0.05706 -0.145827,-0.133147 -0.09511,-0.07608 -0.19655,-0.145827 -0.0951,-0.07608 -0.171188,-0.120466 0.234591,-0.278974 0.424801,-0.653053 0.19655,-0.380419 0.342377,-0.817901 0.152168,-0.437482 0.240932,-0.893985 z m 1.756269,-0.01902 q 0.114126,0.40578 0.278974,0.830582 0.171189,0.418461 0.367739,0.79254 0.20289,0.367738 0.39944,0.634032 -0.07608,0.05072 -0.171189,0.139487 -0.08876,0.08242 -0.177529,0.177529 -0.08242,0.08876 -0.145827,0.171188 -0.209231,-0.310675 -0.412121,-0.735477 -0.20289,-0.424801 -0.380419,-0.900325 -0.171189,-0.481865 -0.297995,-0.938368 z m -4.837664,1.223681 h 2.244473 v 0.557949 h -2.244473 z m 0.900325,-1.337807 h 0.570629 v 5.877477 h -0.570629 z m -0.01902,1.705546 0.361399,0.126806 q -0.07608,0.38042 -0.19021,0.79254 -0.114126,0.405781 -0.259953,0.798881 -0.145828,0.3931 -0.310676,0.729137 -0.164848,0.336037 -0.342377,0.583309 -0.04438,-0.126806 -0.139487,-0.285314 -0.08877,-0.158508 -0.158508,-0.266294 0.164848,-0.20923 0.317016,-0.494545 0.158508,-0.291655 0.297995,-0.627691 0.139487,-0.336037 0.247272,-0.678415 0.107786,-0.348717 0.177529,-0.678414 z m 0.557949,0.621351 q 0.0634,0.0634 0.183869,0.221912 0.126806,0.158508 0.272634,0.348717 0.145827,0.183869 0.259953,0.348718 0.120466,0.158508 0.171188,0.228251 l -0.355058,0.462844 q -0.05706,-0.126807 -0.164848,-0.310676 -0.107785,-0.19021 -0.228251,-0.38676 -0.120467,-0.196549 -0.234592,-0.367738 -0.107786,-0.171189 -0.18387,-0.278974 z m 7.418174,-2.174729 h 0.634032 v 4.926428 h -0.634032 z m -2.193751,1.375849 h 0.608671 v 4.279716 h -0.608671 z m 4.476266,-0.01268 h 0.621352 v 4.273376 H 55.88198 Z m -4.178271,3.201862 h 4.450905 v 0.615011 h -4.450905 z"
         id="text5-9"
         style="font-weight:500;font-size:6.34032px;line-height:1.25;font-family:'Noto Sans JP';-inkscape-font-specification:'Noto Sans JP Medium';stroke-width:0.22644"
         aria-label="松山" />
      <path
         style="font-weight:500;font-size:6.34032px;line-height:1.25;font-family:'Noto Sans KR';-inkscape-font-specification:'Noto Sans KR Medium';stroke-width:0.22644"
         d="m 66.733113,44.211242 h 0.659393 v 1.065174 h -0.659393 z m -0.01268,-1.940138 h 0.576969 v 0.221911 q 0,0.310676 -0.114126,0.59599 -0.114126,0.278974 -0.323356,0.519906 -0.209231,0.234592 -0.494545,0.418462 -0.285315,0.183869 -0.634032,0.317016 -0.348718,0.126806 -0.741818,0.190209 l -0.253613,-0.526246 q 0.348718,-0.04438 0.653053,-0.145828 0.304336,-0.101445 0.545268,-0.247272 0.247272,-0.145828 0.424801,-0.323357 0.177529,-0.177528 0.266294,-0.380419 0.09511,-0.20923 0.09511,-0.418461 z m 0.107785,0 h 0.570629 v 0.221911 q 0,0.215571 0.0951,0.418461 0.0951,0.202891 0.266293,0.38676 0.177529,0.177529 0.424801,0.323356 0.247273,0.145827 0.545268,0.247273 0.304335,0.0951 0.653053,0.139487 l -0.247273,0.526246 q -0.393099,-0.0634 -0.741817,-0.190209 -0.348718,-0.133147 -0.640372,-0.317016 -0.285315,-0.18387 -0.494545,-0.418462 -0.202891,-0.234591 -0.317016,-0.513565 -0.114126,-0.285315 -0.114126,-0.602331 z m -2.37762,2.726338 h 5.237104 v 0.532586 h -5.237104 z m 2.605871,0.932027 q 0.938368,0 1.464614,0.266293 0.532587,0.266294 0.532587,0.754498 0,0.488205 -0.532587,0.748158 -0.526246,0.259953 -1.464614,0.259953 -0.932027,0 -1.464613,-0.259953 -0.526247,-0.259953 -0.526247,-0.748158 0,-0.488204 0.526247,-0.754498 0.532586,-0.266293 1.464613,-0.266293 z m 0,0.507225 q -0.640372,0 -0.982749,0.133147 -0.342377,0.126806 -0.342377,0.380419 0,0.253613 0.342377,0.380419 0.342377,0.126807 0.982749,0.126807 0.640373,0 0.98275,-0.126807 0.342377,-0.126806 0.342377,-0.380419 0,-0.253613 -0.342377,-0.380419 -0.342377,-0.133147 -0.98275,-0.133147 z m 4.596733,-3.911977 h 0.545268 v 0.672074 q 0,0.570628 -0.19021,1.065173 -0.183869,0.488205 -0.545267,0.849603 -0.361399,0.361399 -0.874965,0.551608 L 70.22663,45.143269 q 0.469184,-0.158508 0.7862,-0.450163 0.317016,-0.297995 0.475524,-0.684754 0.164848,-0.38676 0.164848,-0.811561 z m 0.126807,0 h 0.538927 v 0.691095 q 0,0.285314 0.08876,0.557948 0.0951,0.272634 0.266294,0.513566 0.177529,0.240932 0.431141,0.424801 0.259954,0.183869 0.595991,0.297995 l -0.336037,0.526247 q -0.507226,-0.183869 -0.862284,-0.526247 -0.355058,-0.342377 -0.538927,-0.80522 -0.183869,-0.469184 -0.183869,-0.98909 z m 2.364939,-0.355058 h 0.659393 v 4.260695 h -0.659393 z m 0.462843,1.737248 h 1.014452 v 0.551607 h -1.014452 z m -3.455474,3.404751 h 3.886616 v 0.538928 h -3.886616 z m 0,-1.287085 h 0.665733 v 1.56606 h -0.665733 z"
         id="text5-9-8"
         aria-label="송산" />
    </g>
    <text
       xml:space="preserve"
       transform="matrix(0.31615295,0,0,0.31615295,0.2809891,-6.4462013)"
       id="text6"
       style="font-size:55px;line-height:1.25;font-family:'Microsoft JhengHei';-inkscape-font-specification:'Microsoft JhengHei';white-space:pre;shape-inside:url(#rect6);display:inline" />
    <text
       xml:space="preserve"
       style="font-size:14.5521px;line-height:0.45;font-family:DFPYuanLight-B5;-inkscape-font-specification:DFPYuanLight-B5;stroke-width:0.264583"
       x="100.03004"
       y="43.141556"
       id="text11"><tspan
         sodipodi:role="line"
         id="tspan11"
         style="stroke-width:0.264583"></tspan></text>
  </g>
</svg>
