<?xml version="1.0"?>
<svg xmlns="http://www.w3.org/2000/svg" viewBox="0 0 24 24" enable-background="new 0 0 24 24" fill="white">
    <path d="M 10 2 C 9.4777778 2 8.9395305 2.1854695 8.5625 2.5625 C 8.1854695 2.9395305 8 3.4777778 8 4 L 8 6 L 10 6 L 10 4 L 20 4 L 20 20 L 10 20 L 10 12 L 8 12 L 8 20 C 8 20.522222 8.1854695 21.060469 8.5625 21.4375 C 8.9395305 21.814531 9.4777778 22 10 22 L 20 22 C 20.522222 22 21.060469 21.814531 21.4375 21.4375 C 21.814531 21.060469 22 20.522222 22 20 L 22 4 C 22 3.4777778 21.814531 2.9395305 21.4375 2.5625 C 21.060469 2.1854695 20.522222 2 20 2 L 10 2 z M 6 8 C 4.3545455 8 3 9.3545455 3 11 L 3 15 L 1 15 L 4 18 L 7 15 L 5 15 L 5 11 C 5 10.445455 5.4454545 10 6 10 L 12 10 L 12 8 L 6 8 z"/>
</svg>
