<?xml version="1.0" encoding="UTF-8" standalone="no"?>
<!-- Created with Inkscape (http://www.inkscape.org/) -->

<svg
   width="1.212cm"
   height="1.212cm"
   viewBox="0 0 12.12 12.120001"
   version="1.1"
   id="svg5"
   inkscape:version="1.1 (c68e22c387, 2021-05-23)"
   sodipodi:docname="M06-購物中心.svg"
   xmlns:inkscape="http://www.inkscape.org/namespaces/inkscape"
   xmlns:sodipodi="http://sodipodi.sourceforge.net/DTD/sodipodi-0.dtd"
   xmlns="http://www.w3.org/2000/svg"
   xmlns:svg="http://www.w3.org/2000/svg">
  <sodipodi:namedview
     id="namedview7"
     pagecolor="#505050"
     bordercolor="#ffffff"
     borderopacity="1"
     inkscape:pageshadow="0"
     inkscape:pageopacity="0"
     inkscape:pagecheckerboard="1"
     inkscape:document-units="mm"
     showgrid="false"
     units="cm"
     width="1.2cm"
     inkscape:zoom="8"
     inkscape:cx="3.125"
     inkscape:cy="15.5"
     inkscape:window-width="1920"
     inkscape:window-height="1009"
     inkscape:window-x="-8"
     inkscape:window-y="-8"
     inkscape:window-maximized="1"
     inkscape:current-layer="layer1" />
  <defs
     id="defs2">
    <clipPath
       id="clip_1791">
      <path
         transform="matrix(1,0,0,-1,0,595.276)"
         d="M 0,-0.001 H 841.89 V 595.275 H 0 Z"
         id="path17" />
    </clipPath>
    <clipPath
       id="clip_1807">
      <path
         transform="matrix(1,0,0,-1,0,595.276)"
         d="M 0,-0.001 H 841.89 V 595.275 H 0 Z"
         id="path65" />
    </clipPath>
    <clipPath
       id="clip_1791-1">
      <path
         transform="matrix(1,0,0,-1,0,595.276)"
         d="M 0,-0.001 H 841.89 V 595.275 H 0 Z"
         id="path17-1" />
    </clipPath>
    <clipPath
       id="clip_1815">
      <path
         transform="matrix(1,0,0,-1,0,595.276)"
         d="M 0,-0.001 H 841.89 V 595.275 H 0 Z"
         id="path89" />
    </clipPath>
    <clipPath
       id="clip_1809">
      <path
         transform="matrix(1,0,0,-1,0,595.276)"
         d="M 0,-0.001 H 841.89 V 595.275 H 0 Z"
         id="path71" />
    </clipPath>
    <clipPath
       id="clip_1793">
      <path
         transform="matrix(1,0,0,-1,0,595.276)"
         d="M 0,-0.001 H 841.89 V 595.275 H 0 Z"
         id="path23" />
    </clipPath>
    <clipPath
       id="clip_1799">
      <path
         transform="matrix(1,0,0,-1,0,595.276)"
         d="M 0,-0.001 H 841.89 V 595.275 H 0 Z"
         id="path41" />
    </clipPath>
    <clipPath
       id="clip_1817">
      <path
         transform="matrix(1,0,0,-1,0,595.276)"
         d="M 0,-0.001 H 841.89 V 595.275 H 0 Z"
         id="path95" />
    </clipPath>
    <clipPath
       id="clip_1803">
      <path
         transform="matrix(1,0,0,-1,0,595.276)"
         d="M 0,-0.001 H 841.89 V 595.275 H 0 Z"
         id="path53" />
    </clipPath>
    <clipPath
       id="clip_1813">
      <path
         transform="matrix(1,0,0,-1,0,595.276)"
         d="M 0,-0.001 H 841.89 V 595.275 H 0 Z"
         id="path83" />
    </clipPath>
    <clipPath
       id="clip_1805">
      <path
         transform="matrix(1,0,0,-1,0,595.276)"
         d="M 0,-0.001 H 841.89 V 595.275 H 0 Z"
         id="path59" />
    </clipPath>
    <clipPath
       id="clip_1795">
      <path
         transform="matrix(1,0,0,-1,0,595.276)"
         d="M 0,-0.001 H 841.89 V 595.275 H 0 Z"
         id="path29" />
    </clipPath>
    <clipPath
       id="clip_1801">
      <path
         transform="matrix(1,0,0,-1,0,595.276)"
         d="M 0,-0.001 H 841.89 V 595.275 H 0 Z"
         id="path47" />
    </clipPath>
    <clipPath
       id="clip_1819">
      <path
         transform="matrix(1,0,0,-1,0,595.276)"
         d="M 0,-0.001 H 841.89 V 595.275 H 0 Z"
         id="path101" />
    </clipPath>
    <clipPath
       id="clip_1827">
      <path
         transform="matrix(1,0,0,-1,0,595.276)"
         d="M 0,-0.001 H 841.89 V 595.275 H 0 Z"
         id="path125" />
    </clipPath>
    <clipPath
       id="clip_1821">
      <path
         transform="matrix(1,0,0,-1,0,595.276)"
         d="M 0,-0.001 H 841.89 V 595.275 H 0 Z"
         id="path107" />
    </clipPath>
    <clipPath
       id="clip_1811">
      <path
         transform="matrix(1,0,0,-1,0,595.276)"
         d="M 0,-0.001 H 841.89 V 595.275 H 0 Z"
         id="path77" />
    </clipPath>
    <clipPath
       id="clip_1829">
      <path
         transform="matrix(1,0,0,-1,0,595.276)"
         d="M 0,-0.001 H 841.89 V 595.275 H 0 Z"
         id="path131" />
    </clipPath>
    <clipPath
       id="clip_1825">
      <path
         transform="matrix(1,0,0,-1,0,595.276)"
         d="M 0,-0.001 H 841.89 V 595.275 H 0 Z"
         id="path119" />
    </clipPath>
    <clipPath
       id="clip_2156">
      <path
         transform="matrix(1,0,0,-1,0,595.276)"
         d="M 0,-0.001 H 841.89 V 595.275 H 0 Z"
         id="path397" />
    </clipPath>
    <clipPath
       id="clip_2087">
      <path
         transform="matrix(1,0,0,-1,0,595.276)"
         d="M 0,-0.001 H 841.89 V 595.275 H 0 Z"
         id="path70" />
    </clipPath>
    <clipPath
       id="clip_2160">
      <path
         transform="matrix(1,0,0,-1,0,595.276)"
         d="M 0,-0.001 H 841.89 V 595.275 H 0 Z"
         id="path415" />
    </clipPath>
    <clipPath
       id="clip_2125">
      <path
         transform="matrix(1,0,0,-1,0,595.276)"
         d="M 0,-0.001 H 841.89 V 595.275 H 0 Z"
         id="path252" />
    </clipPath>
    <clipPath
       id="clip_2129">
      <path
         transform="matrix(1,0,0,-1,0,595.276)"
         d="M 0,-0.001 H 841.89 V 595.275 H 0 Z"
         id="path271" />
    </clipPath>
    <clipPath
       id="clip_2131">
      <path
         transform="matrix(1,0,0,-1,0,595.276)"
         d="M 0,-0.001 H 841.89 V 595.275 H 0 Z"
         id="path278" />
    </clipPath>
    <clipPath
       id="clip_2127">
      <path
         transform="matrix(1,0,0,-1,0,595.276)"
         d="M 0,-0.001 H 841.89 V 595.275 H 0 Z"
         id="path264" />
    </clipPath>
    <clipPath
       id="clip_2135">
      <path
         transform="matrix(1,0,0,-1,0,595.276)"
         d="M 0,-0.001 H 841.89 V 595.275 H 0 Z"
         id="path294" />
    </clipPath>
    <clipPath
       id="clip_2133">
      <path
         transform="matrix(1,0,0,-1,0,595.276)"
         d="M 0,-0.001 H 841.89 V 595.275 H 0 Z"
         id="path286" />
    </clipPath>
    <clipPath
       id="clip_2137">
      <path
         transform="matrix(1,0,0,-1,0,595.276)"
         d="M 0,-0.001 H 841.89 V 595.275 H 0 Z"
         id="path303" />
    </clipPath>
    <clipPath
       id="clip_2146">
      <path
         transform="matrix(1,0,0,-1,0,595.276)"
         d="M 0,-0.001 H 841.89 V 595.275 H 0 Z"
         id="path345" />
    </clipPath>
    <clipPath
       id="clip_2141">
      <path
         transform="matrix(1,0,0,-1,0,595.276)"
         d="M 0,-0.001 H 841.89 V 595.275 H 0 Z"
         id="path322" />
    </clipPath>
    <clipPath
       id="clip_2143">
      <path
         transform="matrix(1,0,0,-1,0,595.276)"
         d="M 0,-0.001 H 841.89 V 595.275 H 0 Z"
         id="path330" />
    </clipPath>
    <clipPath
       id="clip_2123">
      <path
         transform="matrix(1,0,0,-1,0,595.276)"
         d="M 0,-0.001 H 841.89 V 595.275 H 0 Z"
         id="path241" />
    </clipPath>
    <clipPath
       id="clip_2254">
      <path
         transform="matrix(1,0,0,-1,0,595.276)"
         d="M 0,-0.001 H 841.89 V 595.275 H 0 Z"
         id="path159" />
    </clipPath>
    <clipPath
       id="clip_2252">
      <path
         transform="matrix(1,0,0,-1,0,595.276)"
         d="M 0,-0.001 H 841.89 V 595.275 H 0 Z"
         id="path151" />
    </clipPath>
    <clipPath
       id="clip_2230">
      <path
         transform="matrix(1,0,0,-1,0,595.276)"
         d="M 0,-0.001 H 841.89 V 595.275 H 0 Z"
         id="path52" />
    </clipPath>
    <clipPath
       id="clip_2226">
      <path
         transform="matrix(1,0,0,-1,0,595.276)"
         d="M 0,-0.001 H 841.89 V 595.275 H 0 Z"
         id="path34" />
    </clipPath>
    <clipPath
       id="clip_2274">
      <path
         transform="matrix(1,0,0,-1,0,595.276)"
         d="M 0,-0.001 H 841.89 V 595.275 H 0 Z"
         id="path247" />
    </clipPath>
  </defs>
  <g
     inkscape:label="Layer 1"
     inkscape:groupmode="layer"
     id="layer1">
    <g
       clip-path="url(#clip_2274)"
       id="g1087"
       transform="matrix(0.35277777,0,0,0.35277777,-166.44523,-34.041644)">
      <path
         transform="translate(499.19126,130.677)"
         d="m 0,0 h -20.409 c -3.758,0 -6.804,-3.046 -6.804,-6.803 v -20.41 c 0,-3.757 3.046,-6.803 6.804,-6.803 H 0 c 3.757,0 6.803,3.046 6.803,6.803 v 20.41 C 6.803,-3.046 3.757,0 0,0"
         fill="#ffffff"
         id="path1073" />
      <path
         transform="translate(499.19126,130.677)"
         stroke-width="0.33"
         stroke-linecap="butt"
         stroke-miterlimit="10"
         stroke-linejoin="miter"
         fill="none"
         stroke="#000000"
         d="m 0,0 h -20.409 c -3.758,0 -6.804,-3.046 -6.804,-6.803 v -20.41 c 0,-3.757 3.046,-6.803 6.804,-6.803 H 0 c 3.757,0 6.803,3.046 6.803,6.803 v 20.41 C 6.803,-3.046 3.757,0 0,0 Z"
         id="path1075" />
      <path
         transform="translate(498.44297,111.74097)"
         d="m 0,0 h -18.913 v 12.127 h 7.19 V 7.43 c 0,-1.355 1.098,-2.453 2.452,-2.453 1.354,0 2.452,1.098 2.452,2.453 v 4.697 H 0 Z"
         id="path1077" />
      <path
         transform="translate(495.59645,109.50488)"
         d="m 0,0 h -13.22 c 0,0 -4.027,3.157 -5.586,0.595 0,1.856 1.504,3.36 3.36,3.36 H 2.226 c 1.855,0 3.36,-1.504 3.36,-3.36 C 4.026,3.157 0,0 0,0"
         id="path1079" />
      <path
         transform="translate(493.59806,104.35108)"
         d="m 0,0 h -9.282 c 0,0 -3.582,3.252 -5.188,0.613 0,1.911 1.549,3.461 3.461,3.461 H 1.727 c 1.911,0 3.461,-1.55 3.461,-3.461 C 3.582,3.252 0,0 0,0"
         id="path1081" />
      <path
         transform="translate(488.73088,104.35108)"
         d="m 0,0 c -2.32,0 -4.333,0.254 -5.355,-0.881 0,0 0.116,4.53 5.355,0.881"
         id="path1083" />
      <path
         transform="translate(489.18305,104.35108)"
         d="M 0,0 C 2.32,0 4.333,0.254 5.355,-0.881 5.355,-0.881 5.239,3.649 0,0"
         id="path1085" />
    </g>
  </g>
</svg>
