<?xml version="1.0" encoding="UTF-8" standalone="no"?>
<!-- Created with Inkscape (http://www.inkscape.org/) -->

<svg
   width="1.212cm"
   height="1.212cm"
   viewBox="0 0 12.12 12.120001"
   version="1.1"
   id="svg5"
   inkscape:version="1.1 (c68e22c387, 2021-05-23)"
   sodipodi:docname="M15-室內避難場所.svg"
   xmlns:inkscape="http://www.inkscape.org/namespaces/inkscape"
   xmlns:sodipodi="http://sodipodi.sourceforge.net/DTD/sodipodi-0.dtd"
   xmlns="http://www.w3.org/2000/svg"
   xmlns:svg="http://www.w3.org/2000/svg">
  <sodipodi:namedview
     id="namedview7"
     pagecolor="#505050"
     bordercolor="#ffffff"
     borderopacity="1"
     inkscape:pageshadow="0"
     inkscape:pageopacity="0"
     inkscape:pagecheckerboard="1"
     inkscape:document-units="mm"
     showgrid="false"
     units="cm"
     width="1.2cm"
     inkscape:zoom="4"
     inkscape:cx="8.75"
     inkscape:cy="62.25"
     inkscape:window-width="1920"
     inkscape:window-height="1009"
     inkscape:window-x="-8"
     inkscape:window-y="-8"
     inkscape:window-maximized="1"
     inkscape:current-layer="layer1" />
  <defs
     id="defs2">
    <clipPath
       id="clip_1791">
      <path
         transform="matrix(1,0,0,-1,0,595.276)"
         d="M 0,-0.001 H 841.89 V 595.275 H 0 Z"
         id="path17" />
    </clipPath>
    <clipPath
       id="clip_1807">
      <path
         transform="matrix(1,0,0,-1,0,595.276)"
         d="M 0,-0.001 H 841.89 V 595.275 H 0 Z"
         id="path65" />
    </clipPath>
    <clipPath
       id="clip_1791-1">
      <path
         transform="matrix(1,0,0,-1,0,595.276)"
         d="M 0,-0.001 H 841.89 V 595.275 H 0 Z"
         id="path17-1" />
    </clipPath>
    <clipPath
       id="clip_1815">
      <path
         transform="matrix(1,0,0,-1,0,595.276)"
         d="M 0,-0.001 H 841.89 V 595.275 H 0 Z"
         id="path89" />
    </clipPath>
    <clipPath
       id="clip_1809">
      <path
         transform="matrix(1,0,0,-1,0,595.276)"
         d="M 0,-0.001 H 841.89 V 595.275 H 0 Z"
         id="path71" />
    </clipPath>
    <clipPath
       id="clip_1793">
      <path
         transform="matrix(1,0,0,-1,0,595.276)"
         d="M 0,-0.001 H 841.89 V 595.275 H 0 Z"
         id="path23" />
    </clipPath>
    <clipPath
       id="clip_1799">
      <path
         transform="matrix(1,0,0,-1,0,595.276)"
         d="M 0,-0.001 H 841.89 V 595.275 H 0 Z"
         id="path41" />
    </clipPath>
    <clipPath
       id="clip_1817">
      <path
         transform="matrix(1,0,0,-1,0,595.276)"
         d="M 0,-0.001 H 841.89 V 595.275 H 0 Z"
         id="path95" />
    </clipPath>
    <clipPath
       id="clip_1803">
      <path
         transform="matrix(1,0,0,-1,0,595.276)"
         d="M 0,-0.001 H 841.89 V 595.275 H 0 Z"
         id="path53" />
    </clipPath>
    <clipPath
       id="clip_1813">
      <path
         transform="matrix(1,0,0,-1,0,595.276)"
         d="M 0,-0.001 H 841.89 V 595.275 H 0 Z"
         id="path83" />
    </clipPath>
    <clipPath
       id="clip_1805">
      <path
         transform="matrix(1,0,0,-1,0,595.276)"
         d="M 0,-0.001 H 841.89 V 595.275 H 0 Z"
         id="path59" />
    </clipPath>
    <clipPath
       id="clip_1795">
      <path
         transform="matrix(1,0,0,-1,0,595.276)"
         d="M 0,-0.001 H 841.89 V 595.275 H 0 Z"
         id="path29" />
    </clipPath>
    <clipPath
       id="clip_1801">
      <path
         transform="matrix(1,0,0,-1,0,595.276)"
         d="M 0,-0.001 H 841.89 V 595.275 H 0 Z"
         id="path47" />
    </clipPath>
    <clipPath
       id="clip_1819">
      <path
         transform="matrix(1,0,0,-1,0,595.276)"
         d="M 0,-0.001 H 841.89 V 595.275 H 0 Z"
         id="path101" />
    </clipPath>
    <clipPath
       id="clip_1827">
      <path
         transform="matrix(1,0,0,-1,0,595.276)"
         d="M 0,-0.001 H 841.89 V 595.275 H 0 Z"
         id="path125" />
    </clipPath>
    <clipPath
       id="clip_1821">
      <path
         transform="matrix(1,0,0,-1,0,595.276)"
         d="M 0,-0.001 H 841.89 V 595.275 H 0 Z"
         id="path107" />
    </clipPath>
    <clipPath
       id="clip_1811">
      <path
         transform="matrix(1,0,0,-1,0,595.276)"
         d="M 0,-0.001 H 841.89 V 595.275 H 0 Z"
         id="path77" />
    </clipPath>
    <clipPath
       id="clip_1829">
      <path
         transform="matrix(1,0,0,-1,0,595.276)"
         d="M 0,-0.001 H 841.89 V 595.275 H 0 Z"
         id="path131" />
    </clipPath>
    <clipPath
       id="clip_1825">
      <path
         transform="matrix(1,0,0,-1,0,595.276)"
         d="M 0,-0.001 H 841.89 V 595.275 H 0 Z"
         id="path119" />
    </clipPath>
    <clipPath
       id="clip_2156">
      <path
         transform="matrix(1,0,0,-1,0,595.276)"
         d="M 0,-0.001 H 841.89 V 595.275 H 0 Z"
         id="path397" />
    </clipPath>
    <clipPath
       id="clip_2087">
      <path
         transform="matrix(1,0,0,-1,0,595.276)"
         d="M 0,-0.001 H 841.89 V 595.275 H 0 Z"
         id="path70" />
    </clipPath>
    <clipPath
       id="clip_2160">
      <path
         transform="matrix(1,0,0,-1,0,595.276)"
         d="M 0,-0.001 H 841.89 V 595.275 H 0 Z"
         id="path415" />
    </clipPath>
    <clipPath
       id="clip_2125">
      <path
         transform="matrix(1,0,0,-1,0,595.276)"
         d="M 0,-0.001 H 841.89 V 595.275 H 0 Z"
         id="path252" />
    </clipPath>
    <clipPath
       id="clip_2129">
      <path
         transform="matrix(1,0,0,-1,0,595.276)"
         d="M 0,-0.001 H 841.89 V 595.275 H 0 Z"
         id="path271" />
    </clipPath>
    <clipPath
       id="clip_2131">
      <path
         transform="matrix(1,0,0,-1,0,595.276)"
         d="M 0,-0.001 H 841.89 V 595.275 H 0 Z"
         id="path278" />
    </clipPath>
    <clipPath
       id="clip_2127">
      <path
         transform="matrix(1,0,0,-1,0,595.276)"
         d="M 0,-0.001 H 841.89 V 595.275 H 0 Z"
         id="path264" />
    </clipPath>
    <clipPath
       id="clip_2135">
      <path
         transform="matrix(1,0,0,-1,0,595.276)"
         d="M 0,-0.001 H 841.89 V 595.275 H 0 Z"
         id="path294" />
    </clipPath>
    <clipPath
       id="clip_2133">
      <path
         transform="matrix(1,0,0,-1,0,595.276)"
         d="M 0,-0.001 H 841.89 V 595.275 H 0 Z"
         id="path286" />
    </clipPath>
    <clipPath
       id="clip_2137">
      <path
         transform="matrix(1,0,0,-1,0,595.276)"
         d="M 0,-0.001 H 841.89 V 595.275 H 0 Z"
         id="path303" />
    </clipPath>
    <clipPath
       id="clip_2146">
      <path
         transform="matrix(1,0,0,-1,0,595.276)"
         d="M 0,-0.001 H 841.89 V 595.275 H 0 Z"
         id="path345" />
    </clipPath>
    <clipPath
       id="clip_2141">
      <path
         transform="matrix(1,0,0,-1,0,595.276)"
         d="M 0,-0.001 H 841.89 V 595.275 H 0 Z"
         id="path322" />
    </clipPath>
    <clipPath
       id="clip_2143">
      <path
         transform="matrix(1,0,0,-1,0,595.276)"
         d="M 0,-0.001 H 841.89 V 595.275 H 0 Z"
         id="path330" />
    </clipPath>
    <clipPath
       id="clip_2123">
      <path
         transform="matrix(1,0,0,-1,0,595.276)"
         d="M 0,-0.001 H 841.89 V 595.275 H 0 Z"
         id="path241" />
    </clipPath>
    <clipPath
       id="clip_2254">
      <path
         transform="matrix(1,0,0,-1,0,595.276)"
         d="M 0,-0.001 H 841.89 V 595.275 H 0 Z"
         id="path159" />
    </clipPath>
    <clipPath
       id="clip_2252">
      <path
         transform="matrix(1,0,0,-1,0,595.276)"
         d="M 0,-0.001 H 841.89 V 595.275 H 0 Z"
         id="path151" />
    </clipPath>
    <clipPath
       id="clip_2230">
      <path
         transform="matrix(1,0,0,-1,0,595.276)"
         d="M 0,-0.001 H 841.89 V 595.275 H 0 Z"
         id="path52" />
    </clipPath>
    <clipPath
       id="clip_2226">
      <path
         transform="matrix(1,0,0,-1,0,595.276)"
         d="M 0,-0.001 H 841.89 V 595.275 H 0 Z"
         id="path34" />
    </clipPath>
    <clipPath
       id="clip_2274">
      <path
         transform="matrix(1,0,0,-1,0,595.276)"
         d="M 0,-0.001 H 841.89 V 595.275 H 0 Z"
         id="path247" />
    </clipPath>
    <clipPath
       id="clip_2234">
      <path
         transform="matrix(1,0,0,-1,0,595.276)"
         d="M 0,-0.001 H 841.89 V 595.275 H 0 Z"
         id="path69" />
    </clipPath>
    <clipPath
       id="clip_2228">
      <path
         transform="matrix(1,0,0,-1,0,595.276)"
         d="M 0,-0.001 H 841.89 V 595.275 H 0 Z"
         id="path43" />
    </clipPath>
    <clipPath
       id="clip_2286">
      <path
         transform="matrix(1,0,0,-1,0,595.276)"
         d="M 0,-0.001 H 841.89 V 595.275 H 0 Z"
         id="path295" />
    </clipPath>
    <clipPath
       id="clip_2287">
      <path
         transform="matrix(1,0,0,-1,0,595.276)"
         d="m 693.669,498.614 c -3.759,0 -6.803,-3.046 -6.803,-6.803 v -20.41 c 0,-3.756 3.044,-6.802 6.803,-6.802 h 20.409 c 3.758,0 6.803,3.046 6.803,6.802 v 20.41 c 0,3.757 -3.045,6.803 -6.803,6.803 z"
         id="path298" />
    </clipPath>
    <clipPath
       id="clip_2288">
      <path
         transform="matrix(1,0,0,-1,0,595.276)"
         d="M 0,-0.001 H 841.89 V 595.275 H 0 Z"
         id="path301" />
    </clipPath>
    <clipPath
       id="clip_2222">
      <path
         transform="matrix(1,0,0,-1,0,595.276)"
         d="M 0,-0.001 H 841.89 V 595.275 H 0 Z"
         id="path20" />
    </clipPath>
    <clipPath
       id="clip_2266">
      <path
         transform="matrix(1,0,0,-1,0,595.276)"
         d="M 0,-0.001 H 841.89 V 595.275 H 0 Z"
         id="path209" />
    </clipPath>
    <clipPath
       id="clip_2268">
      <path
         transform="matrix(1,0,0,-1,0,595.276)"
         d="M 0,-0.001 H 841.89 V 595.275 H 0 Z"
         id="path220" />
    </clipPath>
    <clipPath
       id="clip_2270">
      <path
         transform="matrix(1,0,0,-1,0,595.276)"
         d="M 0,-0.001 H 841.89 V 595.275 H 0 Z"
         id="path232" />
    </clipPath>
    <clipPath
       id="clip_2262">
      <path
         transform="matrix(1,0,0,-1,0,595.276)"
         d="M 0,-0.001 H 841.89 V 595.275 H 0 Z"
         id="path195" />
    </clipPath>
  </defs>
  <g
     inkscape:label="Layer 1"
     inkscape:groupmode="layer"
     id="layer1">
    <g
       clip-path="url(#clip_2262)"
       id="g909"
       transform="matrix(0.35277777,0,0,0.35277777,-141.20332,-60.322282)">
      <path
         transform="translate(427.47438,205.0083)"
         d="m 0,0 h -20.409 c -3.758,0 -6.804,-3.046 -6.804,-6.803 v -20.41 c 0,-3.757 3.046,-6.803 6.804,-6.803 H 0 c 3.757,0 6.803,3.046 6.803,6.803 v 20.41 C 6.803,-3.046 3.757,0 0,0"
         fill="#00943c"
         id="path901" />
      <path
         transform="translate(429.59309,185.30225)"
         d="M 0,0 -12.323,-9.205 -24.647,0 h 2.876 v 14.601 h 3.92 V -1.622 h 11.055 v 16.223 h 3.92 V 0 Z"
         fill="#ffffff"
         id="path903" />
      <path
         transform="translate(416.62968,187.52906)"
         d="m 0,0 c 0,0.685 0.555,1.241 1.241,1.241 0.685,0 1.24,-0.556 1.24,-1.241 0,-0.685 -0.555,-1.24 -1.24,-1.24 C 0.555,-1.24 0,-0.685 0,0"
         fill="#ffffff"
         id="path905" />
      <path
         transform="translate(419.75199,191.271)"
         d="M 0,0 C 0.694,-0.029 1.443,-0.054 1.791,-0.054 2.14,-0.056 2.472,0.107 2.461,0.557 2.451,1.007 2.094,1.107 1.763,1.125 L 1.535,1.138 c 0,0 -1.145,0.066 -1.66,0.088 C -0.639,1.248 -0.741,1.05 -0.947,0.8 -1.153,0.551 -1.763,-0.338 -1.763,-0.338 L -2.746,1.895 0.183,8.09 h -0.815 c -0.771,0 -0.837,-0.181 -1.057,-0.548 -0.22,-0.367 -2.49,-5.03 -2.49,-5.03 0,0 -0.124,1.843 -0.183,2.621 C -4.421,5.912 -4.906,5.89 -5.39,5.89 h -4.238 c 0,0 0.14,-0.301 0.404,-0.801 0.265,-0.499 0.691,-0.521 1.102,-0.521 h 2.321 c 0,0 0.088,-1.271 0.168,-2.181 0.081,-0.911 0.177,-1.117 0.361,-1.521 0.183,-0.403 0.924,-2.034 0.924,-2.034 h -1.387 c 0,0 -0.764,1.308 -0.933,1.594 -0.169,0.286 -0.419,0.558 -0.808,0.367 -0.389,-0.191 -0.374,-0.558 -0.213,-0.867 0.162,-0.308 0.529,-0.962 0.874,-1.564 0.345,-0.602 0.58,-0.697 1.153,-0.72 0.573,-0.021 1.916,-0.044 2.85,-0.044 0.932,0 1.255,0.258 1.564,0.654 C -0.94,-1.351 0,0 0,0"
         fill="#ffffff"
         id="path907" />
    </g>
  </g>
</svg>
