<?xml version="1.0" encoding="UTF-8" standalone="no"?>
<!-- Created with Inkscape (http://www.inkscape.org/) -->

<svg
   width="1.212cm"
   height="1.212cm"
   viewBox="0 0 12.12 12.120001"
   version="1.1"
   id="svg5"
   inkscape:version="1.1 (c68e22c387, 2021-05-23)"
   sodipodi:docname="M14-室外避難場所.svg"
   xmlns:inkscape="http://www.inkscape.org/namespaces/inkscape"
   xmlns:sodipodi="http://sodipodi.sourceforge.net/DTD/sodipodi-0.dtd"
   xmlns="http://www.w3.org/2000/svg"
   xmlns:svg="http://www.w3.org/2000/svg">
  <sodipodi:namedview
     id="namedview7"
     pagecolor="#505050"
     bordercolor="#ffffff"
     borderopacity="1"
     inkscape:pageshadow="0"
     inkscape:pageopacity="0"
     inkscape:pagecheckerboard="1"
     inkscape:document-units="mm"
     showgrid="false"
     units="cm"
     width="1.2cm"
     inkscape:zoom="4"
     inkscape:cx="8.75"
     inkscape:cy="62.25"
     inkscape:window-width="1920"
     inkscape:window-height="1009"
     inkscape:window-x="-8"
     inkscape:window-y="-8"
     inkscape:window-maximized="1"
     inkscape:current-layer="layer1" />
  <defs
     id="defs2">
    <clipPath
       id="clip_1791">
      <path
         transform="matrix(1,0,0,-1,0,595.276)"
         d="M 0,-0.001 H 841.89 V 595.275 H 0 Z"
         id="path17" />
    </clipPath>
    <clipPath
       id="clip_1807">
      <path
         transform="matrix(1,0,0,-1,0,595.276)"
         d="M 0,-0.001 H 841.89 V 595.275 H 0 Z"
         id="path65" />
    </clipPath>
    <clipPath
       id="clip_1791-1">
      <path
         transform="matrix(1,0,0,-1,0,595.276)"
         d="M 0,-0.001 H 841.89 V 595.275 H 0 Z"
         id="path17-1" />
    </clipPath>
    <clipPath
       id="clip_1815">
      <path
         transform="matrix(1,0,0,-1,0,595.276)"
         d="M 0,-0.001 H 841.89 V 595.275 H 0 Z"
         id="path89" />
    </clipPath>
    <clipPath
       id="clip_1809">
      <path
         transform="matrix(1,0,0,-1,0,595.276)"
         d="M 0,-0.001 H 841.89 V 595.275 H 0 Z"
         id="path71" />
    </clipPath>
    <clipPath
       id="clip_1793">
      <path
         transform="matrix(1,0,0,-1,0,595.276)"
         d="M 0,-0.001 H 841.89 V 595.275 H 0 Z"
         id="path23" />
    </clipPath>
    <clipPath
       id="clip_1799">
      <path
         transform="matrix(1,0,0,-1,0,595.276)"
         d="M 0,-0.001 H 841.89 V 595.275 H 0 Z"
         id="path41" />
    </clipPath>
    <clipPath
       id="clip_1817">
      <path
         transform="matrix(1,0,0,-1,0,595.276)"
         d="M 0,-0.001 H 841.89 V 595.275 H 0 Z"
         id="path95" />
    </clipPath>
    <clipPath
       id="clip_1803">
      <path
         transform="matrix(1,0,0,-1,0,595.276)"
         d="M 0,-0.001 H 841.89 V 595.275 H 0 Z"
         id="path53" />
    </clipPath>
    <clipPath
       id="clip_1813">
      <path
         transform="matrix(1,0,0,-1,0,595.276)"
         d="M 0,-0.001 H 841.89 V 595.275 H 0 Z"
         id="path83" />
    </clipPath>
    <clipPath
       id="clip_1805">
      <path
         transform="matrix(1,0,0,-1,0,595.276)"
         d="M 0,-0.001 H 841.89 V 595.275 H 0 Z"
         id="path59" />
    </clipPath>
    <clipPath
       id="clip_1795">
      <path
         transform="matrix(1,0,0,-1,0,595.276)"
         d="M 0,-0.001 H 841.89 V 595.275 H 0 Z"
         id="path29" />
    </clipPath>
    <clipPath
       id="clip_1801">
      <path
         transform="matrix(1,0,0,-1,0,595.276)"
         d="M 0,-0.001 H 841.89 V 595.275 H 0 Z"
         id="path47" />
    </clipPath>
    <clipPath
       id="clip_1819">
      <path
         transform="matrix(1,0,0,-1,0,595.276)"
         d="M 0,-0.001 H 841.89 V 595.275 H 0 Z"
         id="path101" />
    </clipPath>
    <clipPath
       id="clip_1827">
      <path
         transform="matrix(1,0,0,-1,0,595.276)"
         d="M 0,-0.001 H 841.89 V 595.275 H 0 Z"
         id="path125" />
    </clipPath>
    <clipPath
       id="clip_1821">
      <path
         transform="matrix(1,0,0,-1,0,595.276)"
         d="M 0,-0.001 H 841.89 V 595.275 H 0 Z"
         id="path107" />
    </clipPath>
    <clipPath
       id="clip_1811">
      <path
         transform="matrix(1,0,0,-1,0,595.276)"
         d="M 0,-0.001 H 841.89 V 595.275 H 0 Z"
         id="path77" />
    </clipPath>
    <clipPath
       id="clip_1829">
      <path
         transform="matrix(1,0,0,-1,0,595.276)"
         d="M 0,-0.001 H 841.89 V 595.275 H 0 Z"
         id="path131" />
    </clipPath>
    <clipPath
       id="clip_1825">
      <path
         transform="matrix(1,0,0,-1,0,595.276)"
         d="M 0,-0.001 H 841.89 V 595.275 H 0 Z"
         id="path119" />
    </clipPath>
    <clipPath
       id="clip_2156">
      <path
         transform="matrix(1,0,0,-1,0,595.276)"
         d="M 0,-0.001 H 841.89 V 595.275 H 0 Z"
         id="path397" />
    </clipPath>
    <clipPath
       id="clip_2087">
      <path
         transform="matrix(1,0,0,-1,0,595.276)"
         d="M 0,-0.001 H 841.89 V 595.275 H 0 Z"
         id="path70" />
    </clipPath>
    <clipPath
       id="clip_2160">
      <path
         transform="matrix(1,0,0,-1,0,595.276)"
         d="M 0,-0.001 H 841.89 V 595.275 H 0 Z"
         id="path415" />
    </clipPath>
    <clipPath
       id="clip_2125">
      <path
         transform="matrix(1,0,0,-1,0,595.276)"
         d="M 0,-0.001 H 841.89 V 595.275 H 0 Z"
         id="path252" />
    </clipPath>
    <clipPath
       id="clip_2129">
      <path
         transform="matrix(1,0,0,-1,0,595.276)"
         d="M 0,-0.001 H 841.89 V 595.275 H 0 Z"
         id="path271" />
    </clipPath>
    <clipPath
       id="clip_2131">
      <path
         transform="matrix(1,0,0,-1,0,595.276)"
         d="M 0,-0.001 H 841.89 V 595.275 H 0 Z"
         id="path278" />
    </clipPath>
    <clipPath
       id="clip_2127">
      <path
         transform="matrix(1,0,0,-1,0,595.276)"
         d="M 0,-0.001 H 841.89 V 595.275 H 0 Z"
         id="path264" />
    </clipPath>
    <clipPath
       id="clip_2135">
      <path
         transform="matrix(1,0,0,-1,0,595.276)"
         d="M 0,-0.001 H 841.89 V 595.275 H 0 Z"
         id="path294" />
    </clipPath>
    <clipPath
       id="clip_2133">
      <path
         transform="matrix(1,0,0,-1,0,595.276)"
         d="M 0,-0.001 H 841.89 V 595.275 H 0 Z"
         id="path286" />
    </clipPath>
    <clipPath
       id="clip_2137">
      <path
         transform="matrix(1,0,0,-1,0,595.276)"
         d="M 0,-0.001 H 841.89 V 595.275 H 0 Z"
         id="path303" />
    </clipPath>
    <clipPath
       id="clip_2146">
      <path
         transform="matrix(1,0,0,-1,0,595.276)"
         d="M 0,-0.001 H 841.89 V 595.275 H 0 Z"
         id="path345" />
    </clipPath>
    <clipPath
       id="clip_2141">
      <path
         transform="matrix(1,0,0,-1,0,595.276)"
         d="M 0,-0.001 H 841.89 V 595.275 H 0 Z"
         id="path322" />
    </clipPath>
    <clipPath
       id="clip_2143">
      <path
         transform="matrix(1,0,0,-1,0,595.276)"
         d="M 0,-0.001 H 841.89 V 595.275 H 0 Z"
         id="path330" />
    </clipPath>
    <clipPath
       id="clip_2123">
      <path
         transform="matrix(1,0,0,-1,0,595.276)"
         d="M 0,-0.001 H 841.89 V 595.275 H 0 Z"
         id="path241" />
    </clipPath>
    <clipPath
       id="clip_2254">
      <path
         transform="matrix(1,0,0,-1,0,595.276)"
         d="M 0,-0.001 H 841.89 V 595.275 H 0 Z"
         id="path159" />
    </clipPath>
    <clipPath
       id="clip_2252">
      <path
         transform="matrix(1,0,0,-1,0,595.276)"
         d="M 0,-0.001 H 841.89 V 595.275 H 0 Z"
         id="path151" />
    </clipPath>
    <clipPath
       id="clip_2230">
      <path
         transform="matrix(1,0,0,-1,0,595.276)"
         d="M 0,-0.001 H 841.89 V 595.275 H 0 Z"
         id="path52" />
    </clipPath>
    <clipPath
       id="clip_2226">
      <path
         transform="matrix(1,0,0,-1,0,595.276)"
         d="M 0,-0.001 H 841.89 V 595.275 H 0 Z"
         id="path34" />
    </clipPath>
    <clipPath
       id="clip_2274">
      <path
         transform="matrix(1,0,0,-1,0,595.276)"
         d="M 0,-0.001 H 841.89 V 595.275 H 0 Z"
         id="path247" />
    </clipPath>
    <clipPath
       id="clip_2234">
      <path
         transform="matrix(1,0,0,-1,0,595.276)"
         d="M 0,-0.001 H 841.89 V 595.275 H 0 Z"
         id="path69" />
    </clipPath>
    <clipPath
       id="clip_2228">
      <path
         transform="matrix(1,0,0,-1,0,595.276)"
         d="M 0,-0.001 H 841.89 V 595.275 H 0 Z"
         id="path43" />
    </clipPath>
    <clipPath
       id="clip_2286">
      <path
         transform="matrix(1,0,0,-1,0,595.276)"
         d="M 0,-0.001 H 841.89 V 595.275 H 0 Z"
         id="path295" />
    </clipPath>
    <clipPath
       id="clip_2287">
      <path
         transform="matrix(1,0,0,-1,0,595.276)"
         d="m 693.669,498.614 c -3.759,0 -6.803,-3.046 -6.803,-6.803 v -20.41 c 0,-3.756 3.044,-6.802 6.803,-6.802 h 20.409 c 3.758,0 6.803,3.046 6.803,6.802 v 20.41 c 0,3.757 -3.045,6.803 -6.803,6.803 z"
         id="path298" />
    </clipPath>
    <clipPath
       id="clip_2288">
      <path
         transform="matrix(1,0,0,-1,0,595.276)"
         d="M 0,-0.001 H 841.89 V 595.275 H 0 Z"
         id="path301" />
    </clipPath>
    <clipPath
       id="clip_2222">
      <path
         transform="matrix(1,0,0,-1,0,595.276)"
         d="M 0,-0.001 H 841.89 V 595.275 H 0 Z"
         id="path20" />
    </clipPath>
    <clipPath
       id="clip_2266">
      <path
         transform="matrix(1,0,0,-1,0,595.276)"
         d="M 0,-0.001 H 841.89 V 595.275 H 0 Z"
         id="path209" />
    </clipPath>
    <clipPath
       id="clip_2268">
      <path
         transform="matrix(1,0,0,-1,0,595.276)"
         d="M 0,-0.001 H 841.89 V 595.275 H 0 Z"
         id="path220" />
    </clipPath>
    <clipPath
       id="clip_2270">
      <path
         transform="matrix(1,0,0,-1,0,595.276)"
         d="M 0,-0.001 H 841.89 V 595.275 H 0 Z"
         id="path232" />
    </clipPath>
  </defs>
  <g
     inkscape:label="Layer 1"
     inkscape:groupmode="layer"
     id="layer1">
    <path
       d="M 9.6001418,12.000089 H 2.4002998 C 1.0745608,12.000089 0,10.925528 0,9.600142 V 2.399947 C 0,1.074561 1.0745608,0 2.4002998,0 h 7.199842 c 1.3253862,0 2.3999472,1.074561 2.3999472,2.399947 v 7.200195 c 0,1.325386 -1.074561,2.399947 -2.3999472,2.399947"
       fill="#00943c"
       id="path853"
       style="stroke-width:0.352778" />
    <path
       d="m 4.7829958,6.98851 c 0.249767,0.507295 0.483306,0.976489 0.533048,1.059392 l 0.01658,0.02787 c 0.124531,0.20955 0.2286,0.33267 0.657578,0.33267 h 0.669219 L 5.8924828,6.786369 c 0.341841,-0.03704 0.656519,-0.0508 0.900288,-0.0508 1.104195,0 3.6533672,0.278694 3.6533672,1.731786 0,1.452739 -2.5491722,1.731433 -3.6533672,1.731433 -1.104194,0 -3.653013,-0.278694 -3.653013,-1.731433 0,-0.797631 0.767644,-1.24072 1.643238,-1.478845"
       fill="#ffffff"
       id="path855"
       style="stroke-width:0.352778" />
    <path
       d="m 4.7514578,2.409462 c 0,0.336197 0.272345,0.608894 0.608895,0.608894 0.336197,0 0.608894,-0.272697 0.608894,-0.608894 0,-0.336197 -0.272697,-0.608895 -0.608894,-0.608895 -0.33655,0 -0.608895,0.272698 -0.608895,0.608895"
       fill="#ffffff"
       id="path857"
       style="stroke-width:0.352778" />
    <path
       d="m 6.2838858,4.246041 c 0.34043,-0.01446 0.708378,-0.02646 0.879122,-0.02681 0.171097,-3.52e-4 0.333728,0.07938 0.328789,0.300214 -0.0053,0.220839 -0.180269,0.269875 -0.3429,0.278695 l -0.111831,0.0067 c 0,0 -0.561975,0.03245 -0.814563,0.04304 C 5.9706188,4.85882 5.9201718,4.76145 5.8192778,4.638683 5.7180298,4.516269 5.4188748,4.080236 5.4188748,4.080236 l -0.482953,1.095728 1.437922,3.040591 h -0.40005 c -0.37853,0 -0.410633,-0.08855 -0.518936,-0.268816 -0.10795,-0.18027 -1.221669,-2.469092 -1.221669,-2.469092 0,0 -0.06138,0.904875 -0.09031,1.286933 -0.02893,0.381706 -0.2667,0.371123 -0.504473,0.371123 h -2.079625 c 0,0 0.06844,-0.147814 0.197909,-0.392995 0.130175,-0.24518 0.339019,-0.255764 0.540808,-0.255764 h 1.13912 c 0,0 0.04339,-0.623711 0.0829,-1.070327 0.03951,-0.44697 0.08643,-0.548217 0.176742,-0.746478 0.08996,-0.198261 0.453672,-0.998361 0.453672,-0.998361 h -0.680861 c 0,0 -0.375003,0.641702 -0.457905,0.782461 -0.0829,0.140405 -0.205317,0.273755 -0.396523,0.179916 -0.191205,-0.09349 -0.183797,-0.273755 -0.104422,-0.42545 0.07938,-0.150988 0.259292,-0.472016 0.428978,-0.767644 0.169333,-0.295275 0.284692,-0.342194 0.565855,-0.353131 0.281164,-0.01058 0.940506,-0.02152 1.398764,-0.02152 0.4572,0 0.616303,0.126294 0.767292,0.320675 0.151342,0.194733 0.612775,0.857956 0.612775,0.857956"
       fill="#ffffff"
       id="path859"
       style="stroke-width:0.352778" />
  </g>
</svg>
