<?xml version="1.0" encoding="UTF-8" standalone="no"?>
<!-- Created with Inkscape (http://www.inkscape.org/) -->

<svg
   width="500"
   height="250"
   viewBox="0 0 132.29166 66.145833"
   version="1.1"
   id="svg1"
   inkscape:version="1.4.2 (f4327f4, 2025-05-13)"
   sodipodi:docname="r01_old_path.svg"
   xmlns:inkscape="http://www.inkscape.org/namespaces/inkscape"
   xmlns:sodipodi="http://sodipodi.sourceforge.net/DTD/sodipodi-0.dtd"
   xmlns="http://www.w3.org/2000/svg"
   xmlns:svg="http://www.w3.org/2000/svg">
  <sodipodi:namedview
     id="namedview1"
     pagecolor="#9e652e"
     bordercolor="#ffffff"
     borderopacity="1"
     inkscape:showpageshadow="0"
     inkscape:pageopacity="0"
     inkscape:pagecheckerboard="false"
     inkscape:deskcolor="#d1d1d1"
     inkscape:document-units="mm"
     inkscape:zoom="1.4289282"
     inkscape:cx="204.69888"
     inkscape:cy="227.79312"
     inkscape:window-width="1920"
     inkscape:window-height="1094"
     inkscape:window-x="-11"
     inkscape:window-y="-11"
     inkscape:window-maximized="1"
     inkscape:current-layer="g8" />
  <defs
     id="defs1">
    <rect
       x="560.66638"
       y="34.144731"
       width="279.32397"
       height="128.59143"
       id="rect6" />
    <rect
       x="157.85752"
       y="62.351248"
       width="329.07603"
       height="135.09437"
       id="rect4" />
    <rect
       x="157.85751"
       y="62.35125"
       width="329.07602"
       height="135.09438"
       id="rect4-5" />
  </defs>
  <g
     inkscape:label="Layer 1"
     inkscape:groupmode="layer"
     id="layer1">
    <rect
       style="fill:#f4eed7;fill-opacity:1;stroke:none;stroke-width:0.953294;stroke-dasharray:none"
       id="rect5"
       width="132.29167"
       height="66.145836"
       x="-2.5431316e-06"
       y="-1.2715658e-06"
       ry="0" />
    <text
       xml:space="preserve"
       transform="matrix(0.31615295,0,0,0.31615295,-10.474341,-6.4462013)"
       id="text6"
       style="font-size:55px;line-height:1.25;font-family:'Microsoft JhengHei';-inkscape-font-specification:'Microsoft JhengHei';white-space:pre;shape-inside:url(#rect6);display:inline" />
    <g
       id="g8"
       transform="translate(0,3.1375496)">
      <g
         id="g9"
         transform="matrix(1.0268275,0,0,1.0268275,-1.5985165,-0.803092)">
        <g
           id="g7"
           transform="translate(-11.112501)">
          <path
             id="rect1"
             style="fill:#000000;fill-opacity:0;stroke:#000000;stroke-width:0.340746"
             d="m 18.214222,18.634838 h 4.490738 c 1.419331,0 2.561968,1.142637 2.561968,2.561967 v 8.407829 c 0,1.419331 -1.142637,2.561968 -2.561968,2.561968 h -4.490738 c -1.41933,0 -2.561967,-1.142637 -2.561967,-2.561968 v -8.407829 c 0,-1.41933 1.142637,-2.561967 2.561967,-2.561967 z" />
          <path
             style="font-weight:bold;font-size:5.59011px;line-height:1;font-family:'Optima Bold';-inkscape-font-specification:'Optima Bold,  Bold';stroke-width:0.139752"
             d="m 17.797055,28.174377 q 0,-0.0056 0,-0.01118 0,-0.01118 0,-0.02795 0,-0.01118 0,-0.02795 0.0056,-0.01677 0.01118,-0.03354 0,-0.07267 0.0056,-0.162113 0.01118,-0.09503 0.01677,-0.206834 0.01118,-0.111803 0.02795,-0.229195 0.02236,-0.122982 0.0559,-0.245965 0.05031,-0.195654 0.145343,-0.368947 0.09503,-0.178883 0.234785,-0.335406 0.134162,-0.162114 0.352177,-0.240375 0.218014,-0.07826 0.51429,-0.07826 l 0.223604,-0.0056 q 0.273915,0.0056 0.475159,0.08944 0.201244,0.07826 0.335407,0.240375 0.134163,0.162113 0.223604,0.340996 0.09503,0.173294 0.145343,0.368948 0.03913,0.145342 0.06149,0.285095 0.02236,0.139753 0.02795,0.268325 0.0056,0.134163 0.0056,0.234785 0.0056,0.09503 0.0056,0.156523 0,0.06708 -0.01118,0.162113 -0.0056,0.08944 -0.01677,0.206834 -0.01118,0.117393 -0.03913,0.240375 -0.02236,0.122983 -0.06149,0.251555 -0.0559,0.184474 -0.156523,0.357767 -0.09503,0.167703 -0.229195,0.318636 -0.134163,0.156523 -0.335407,0.229195 -0.195653,0.07267 -0.458389,0.07267 h -0.223604 -0.01677 -0.01118 -0.01677 -0.01118 q -0.335407,0 -0.575781,-0.122982 -0.234785,-0.122983 -0.380128,-0.380128 -0.139753,-0.251555 -0.223604,-0.53106 -0.07826,-0.285096 -0.09503,-0.592552 0,-0.01118 0,-0.02236 0,-0.01677 0,-0.03354 -0.0056,-0.01118 -0.0056,-0.02236 0,-0.01677 0,-0.02795 0,-0.01118 0,-0.02236 0,-0.01677 0,-0.03354 0,-0.01118 0,-0.02236 0,-0.01677 0,-0.02795 v -0.01118 z m 0.709944,0.09503 q 0,0.07267 0,0.145343 0.0056,0.07267 0.01118,0.150933 0,0.03913 0.0056,0.08385 0.0056,0.03913 0.01118,0.07826 0.0056,0.04472 0.01118,0.08385 0.01118,0.03913 0.01677,0.08385 0.03354,0.173293 0.09503,0.335407 0.06149,0.156523 0.150933,0.301866 0.07826,0.122982 0.178883,0.190063 0.106212,0.06708 0.245965,0.08944 0.173293,-0.02236 0.290686,-0.106212 0.122982,-0.08944 0.195654,-0.240375 0.08385,-0.178883 0.134162,-0.368947 0.0559,-0.195654 0.07826,-0.402488 0.0056,-0.03913 0.0056,-0.07826 0.0056,-0.03913 0.0056,-0.07826 0.0056,-0.03354 0.0056,-0.07267 0,-0.03913 0,-0.07826 0,-0.03913 0,-0.07267 0,-0.03913 0.0056,-0.07826 0,-0.03354 0,-0.06708 0,-0.03913 0,-0.07267 0,-0.363357 -0.0559,-0.665223 -0.05031,-0.301866 -0.150933,-0.53665 -0.08944,-0.206834 -0.212424,-0.318637 -0.117392,-0.117392 -0.268325,-0.145342 -0.245965,0.03354 -0.402488,0.184473 -0.156523,0.145343 -0.218014,0.408078 -0.07267,0.279506 -0.106213,0.592552 -0.03354,0.313046 -0.03354,0.659633 z m 2.990714,-1.548461 q 0.162113,-0.07267 0.318636,-0.145343 0.162113,-0.07267 0.318636,-0.145342 0.156523,-0.06708 0.279506,-0.134163 0.128572,-0.06708 0.229194,-0.134163 l 0.223605,-0.0056 0.134162,0.03913 v 3.829225 h -0.223604 q -0.03354,-0.0056 -0.06149,-0.01677 -0.02795,-0.0056 -0.0559,-0.01118 -0.03354,0.0056 -0.06708,0.01118 -0.03354,0.01118 -0.07826,0.01677 h -0.223605 v -3.303755 l -0.391307,0.223605 h -0.223605 q -0.0056,0 -0.01677,-0.0056 -0.0056,-0.01118 -0.01677,-0.02795 -0.0056,-0.01118 -0.01118,-0.01677 -0.0056,-0.01118 -0.0056,-0.01677 -0.0056,-0.01118 -0.01118,-0.01677 -0.0056,-0.01118 -0.01118,-0.01677 -0.0056,-0.01118 -0.01118,-0.01677 -0.0056,-0.0056 -0.01118,-0.01677 -0.01118,-0.0056 -0.01677,-0.01118 -0.0056,-0.01118 -0.01118,-0.01677 -0.01118,-0.01677 -0.02795,-0.02795 -0.01118,-0.01677 -0.02795,-0.02236 v -0.01118 z"
             id="text1"
             aria-label="01" />
          <path
             d="m 18.897306,24.567913 v -3.873946 h 0.223605 1.363987 q 0.279505,0.01118 0.486339,0.07826 0.212424,0.06708 0.346587,0.195654 0.134163,0.134163 0.201244,0.301866 0.06708,0.162113 0.06708,0.357767 0,0.190064 -0.0559,0.346587 -0.05031,0.150933 -0.162113,0.262735 -0.106212,0.111802 -0.229195,0.195654 -0.117392,0.08385 -0.245964,0.134163 -0.06149,0.02236 -0.122983,0.04472 -0.0559,0.02236 -0.117392,0.03354 -0.0559,0.01677 -0.111802,0.02795 -0.0559,0.0056 -0.100622,0.01118 l 1.498149,1.883867 h -0.223604 q -0.02236,0 -0.04472,0 -0.01677,0 -0.03913,-0.0056 -0.02236,0 -0.04472,0 -0.01677,-0.0056 -0.03354,-0.01118 -0.01677,0 -0.03354,0 -0.01118,0 -0.02236,0 -0.0056,0 -0.01118,0 -0.0056,0 -0.01677,0 -0.0056,0.0056 -0.01118,0.0056 -0.0056,0 -0.01677,0 -0.03913,0.0056 -0.08385,0.01118 -0.03913,0 -0.08385,0 h -0.223604 l -1.403118,-1.794425 v 1.794425 h -0.223604 q -0.01677,0 -0.03354,0 -0.01677,0 -0.03354,-0.0056 -0.0056,0 -0.01677,0 -0.0056,0 -0.01118,-0.0056 -0.01118,0 -0.01677,0 -0.0056,-0.0056 -0.01677,-0.0056 -0.0056,0 -0.01118,0 -0.0056,0 -0.0056,0 -0.0056,0.0056 -0.01118,0.0056 -0.0056,0 -0.01118,0 -0.03354,0.0056 -0.06708,0.01118 -0.03354,0 -0.06708,0 h -0.223605 v 0 z m 0.749075,-2.068341 q 0.01118,0.01118 0.02795,0.01677 0.01677,0 0.03354,0 0.212425,-0.0056 0.380128,-0.03913 0.167703,-0.03354 0.279505,-0.100622 0.128573,-0.07267 0.212424,-0.150933 0.08944,-0.08385 0.139753,-0.173293 0.03913,-0.06149 0.06149,-0.122983 0.02795,-0.06708 0.03354,-0.122982 0.01118,-0.06149 0.01118,-0.106212 0.0056,-0.04472 0.0056,-0.07267 0,-0.02795 -0.0056,-0.06149 -0.0056,-0.03354 -0.01677,-0.07826 -0.0056,-0.04472 -0.02795,-0.08944 -0.02236,-0.04472 -0.05031,-0.09503 -0.03913,-0.07267 -0.111802,-0.139753 -0.07267,-0.06708 -0.167703,-0.122982 -0.09503,-0.06149 -0.229195,-0.08944 -0.134162,-0.02795 -0.313046,-0.02795 l -0.262735,-0.01118 v 1.587591 0 z"
             id="text1-6"
             style="font-weight:bold;font-size:5.59011px;line-height:1;font-family:'Optima Bold';-inkscape-font-specification:'Optima Bold,  Bold';stroke-width:0.139752"
             aria-label="R" />
        </g>
        <path
           style="font-weight:bold;font-size:15.7365px;line-height:1;font-family:'Noto Serif TC';-inkscape-font-specification:'Noto Serif TC Bold';letter-spacing:2.64583px;stroke-width:0.393413"
           d="m 29.561098,20.33529 q -0.01574,0.141629 -0.125892,0.236048 -0.09442,0.09442 -0.346203,0.125892 v 2.974198 q 0,0.03147 -0.204575,0.110156 -0.188838,0.06295 -0.487831,0.125892 -0.298994,0.04721 -0.597987,0.04721 h -0.346203 v -3.823969 z m -4.359011,0 q -0.01574,0.141629 -0.110155,0.236048 -0.09442,0.09442 -0.346203,0.125892 v 3.037144 q 0,0.04721 -0.204575,0.110156 -0.204574,0.06295 -0.503568,0.125892 -0.298993,0.04721 -0.597987,0.04721 h -0.330466 v -3.871179 z m 3.005672,2.612259 v 0.456359 h -4.595058 v -0.456359 z m -1.180238,2.83257 v 3.603659 H 25.28077 v -3.603659 z m 3.761024,-2.596522 q 0,0 0.283257,0.220311 0.283257,0.220311 0.660933,0.535041 0.377676,0.298993 0.676669,0.58225 -0.04721,0.251784 -0.409149,0.251784 H 20.764394 l -0.125892,-0.440622 h 9.253062 z M 30.458078,20.33529 q 0,0 0.251784,0.220311 0.267521,0.204575 0.62946,0.519305 0.36194,0.298993 0.660933,0.566514 -0.06295,0.251784 -0.424885,0.251784 H 21.157807 l -0.125892,-0.440622 h 8.576392 z m -1.699542,5.271728 0.786825,-0.834035 1.636596,1.227447 q -0.06295,0.07868 -0.188838,0.157365 -0.125892,0.06295 -0.298993,0.09442 v 3.430557 q 0,0.06295 -0.267521,0.173102 -0.251784,0.09442 -0.597987,0.188838 -0.330466,0.07868 -0.62946,0.07868 h -0.298993 v -4.516375 z m -5.255991,4.296064 q 0,0.06295 -0.236047,0.204575 -0.220311,0.125892 -0.550778,0.236047 -0.330466,0.09442 -0.692406,0.09442 H 21.77153 v -4.831105 -0.723879 0 l 1.841171,0.723879 h 6.121498 v 0.440622 h -6.231654 z m 2.627996,1.30613 q -0.125892,0.110155 -0.36194,0.125892 -0.236047,0.03147 -0.58225,-0.06295 -0.67667,0.26752 -1.589387,0.519304 -0.912717,0.251784 -1.951326,0.424886 -1.022872,0.188838 -2.045745,0.283257 l -0.06295,-0.204575 q 0.881244,-0.298993 1.762488,-0.739615 0.896981,-0.440622 1.668069,-0.912717 0.771089,-0.487832 1.243184,-0.912717 z m 0.393412,-1.085819 q 1.841171,0.04721 2.989935,0.236048 1.164501,0.188838 1.762488,0.456358 0.597987,0.251784 0.755352,0.535041 0.173102,0.283257 0.03147,0.519305 -0.141628,0.251784 -0.487831,0.393412 -0.330467,0.141629 -0.739616,0.125892 -0.409149,-0.01574 -0.755352,-0.26752 -0.519304,-0.377676 -1.463494,-0.896981 -0.94419,-0.503568 -2.155901,-0.89698 z m 3.052881,-1.007136 v 0.456359 h -7.19158 v -0.456359 z m 0.06295,-1.793961 v 0.456359 h -7.23879 v -0.456359 z m -5.523511,-9.693684 q 0.991399,-0.07868 1.57365,0.09442 0.58225,0.173102 0.818298,0.472095 0.236047,0.298994 0.204574,0.613724 -0.03147,0.31473 -0.26752,0.550777 -0.220311,0.236048 -0.597987,0.298994 -0.36194,0.06295 -0.786825,-0.188838 -0.09442,-0.487832 -0.424886,-0.959927 -0.31473,-0.487831 -0.645196,-0.786825 z m -5.366147,1.683806 v -0.582251 l 2.077218,0.739616 h -0.283257 v 4.296064 q 0,1.022873 -0.07868,2.171637 -0.06295,1.133028 -0.330467,2.281793 -0.26752,1.148764 -0.849771,2.234583 -0.58225,1.070082 -1.620859,1.951326 l -0.173102,-0.125892 q 0.613724,-1.243184 0.865508,-2.675205 0.26752,-1.432022 0.330466,-2.926989 0.06295,-1.494968 0.06295,-2.895516 v -4.311801 z m 12.00695,-1.117292 q 0,0 0.173101,0.141629 0.173102,0.141628 0.440622,0.377676 0.283257,0.220311 0.566514,0.472095 0.298994,0.251784 0.535041,0.487831 -0.06295,0.251784 -0.440622,0.251784 H 19.851677 v -0.456358 h 9.961205 z m 11.253695,9.725157 q -0.01574,0.141629 -0.141628,0.251784 -0.110156,0.110156 -0.346203,0.141629 v 1.872643 q 0,0.141629 0.09442,0.204575 0.110155,0.04721 0.550777,0.04721 h 1.93559 q 0.503568,0 0.928453,0 0.440622,0 0.62946,-0.01574 0.204575,-0.01574 0.283257,-0.06295 0.09442,-0.04721 0.188838,-0.157365 0.157365,-0.188838 0.330467,-0.597987 0.188838,-0.424886 0.424885,-1.054346 h 0.157365 l 0.04721,1.699542 q 0.424885,0.141629 0.550777,0.298994 0.141629,0.157365 0.141629,0.393412 0,0.298994 -0.173102,0.487832 -0.157365,0.188838 -0.597987,0.298993 -0.424885,0.110156 -1.180237,0.141629 -0.755352,0.04721 -1.919853,0.04721 h -2.045745 q -0.896981,0 -1.384812,-0.125892 Q 40.012232,31.66557 39.83913,31.35084 39.666029,31.03611 39.666029,30.45386 v -2.722415 z m 7.710885,-4.862578 q -0.06295,0.125892 -0.31473,0.173101 -0.236047,0.04721 -0.597987,-0.141628 l 0.487832,-0.04721 q -0.377676,0.377676 -0.975663,0.818298 -0.597987,0.440622 -1.30613,0.896981 -0.708142,0.440622 -1.463494,0.849771 -0.739616,0.409149 -1.432022,0.692406 l -0.01574,-0.173102 h 0.692406 q -0.06295,0.67667 -0.298994,1.038609 -0.236047,0.346203 -0.503568,0.424886 l -0.566514,-1.683806 q 0,0 0.173102,-0.04721 0.188838,-0.04721 0.31473,-0.110156 0.535041,-0.26752 1.117291,-0.739615 0.582251,-0.472095 1.133028,-1.038609 0.566514,-0.566514 1.007136,-1.117292 0.456359,-0.566514 0.708143,-0.975663 z m -1.825434,-1.605123 q -0.06295,0.141628 -0.283257,0.220311 -0.204574,0.07868 -0.613723,-0.06295 l 0.519304,-0.07868 q -0.409149,0.330467 -1.022872,0.692406 -0.613724,0.36194 -1.30613,0.692406 -0.676669,0.31473 -1.290393,0.503568 v -0.157365 h 0.692406 q -0.04721,0.613724 -0.236047,0.94419 -0.188838,0.31473 -0.424886,0.424886 l -0.660933,-1.589387 q 0,0 0.141629,-0.03147 0.141628,-0.03147 0.251784,-0.07868 0.409149,-0.204575 0.849771,-0.645197 0.440622,-0.440622 0.802561,-0.912717 0.36194,-0.487831 0.535041,-0.802561 z m -4.138699,4.547848 q 0.472095,0 1.306129,0 0.834035,-0.01574 1.88838,-0.03147 1.054346,-0.03147 2.155901,-0.07868 l 0.01574,0.236047 q -0.771088,0.220311 -2.108691,0.566514 -1.321866,0.346203 -2.864043,0.692406 z m -0.220311,-2.78536 q 0.409149,0.01574 1.101555,0.03147 0.692406,0 1.542177,0 0.849771,-0.01574 1.731015,-0.03147 v 0.236047 q -0.377676,0.09442 -0.9914,0.267521 -0.597987,0.157365 -1.353339,0.346203 -0.755352,0.188838 -1.557913,0.361939 z m 4.296064,1.416285 q 0.912717,0.298993 1.416285,0.692406 0.519305,0.393412 0.708143,0.802561 0.188838,0.409149 0.141628,0.771089 -0.04721,0.346203 -0.283257,0.566514 -0.236047,0.204574 -0.550777,0.204574 -0.31473,-0.01574 -0.645197,-0.298993 0,-0.456359 -0.141628,-0.928454 -0.125892,-0.487831 -0.346203,-0.928453 -0.204575,-0.440622 -0.456359,-0.786825 z m -4.484902,-1.62086 q -0.07868,0.125892 -0.330467,0.173102 -0.236047,0.04721 -0.597987,-0.141629 l 0.503568,-0.04721 q -0.409149,0.377676 -1.022872,0.834034 -0.613724,0.456359 -1.369076,0.928454 -0.739615,0.472095 -1.52644,0.89698 -0.771089,0.409149 -1.479231,0.708143 l -0.01574,-0.173102 h 0.67667 q -0.07868,0.67667 -0.298994,1.038609 -0.220311,0.346203 -0.503568,0.440622 l -0.566514,-1.699542 q 0,0 0.188838,-0.04721 0.188838,-0.04721 0.31473,-0.09442 0.550778,-0.283257 1.164501,-0.771089 0.613724,-0.503568 1.195974,-1.085818 0.597987,-0.582251 1.070082,-1.148765 0.472095,-0.566514 0.739616,-1.007136 z m -1.841171,-1.557913 q -0.06295,0.157365 -0.283257,0.236047 -0.220311,0.06295 -0.613723,-0.07868 l 0.519304,-0.06295 q -0.424885,0.31473 -1.070082,0.676669 -0.645196,0.346203 -1.353339,0.660933 -0.708142,0.31473 -1.337602,0.519305 V 23.21507 h 0.676669 q -0.04721,0.62946 -0.236047,0.959926 -0.188838,0.31473 -0.409149,0.424886 l -0.67667,-1.589387 q 0,0 0.141629,-0.03147 0.141628,-0.04721 0.251784,-0.07868 0.440622,-0.204575 0.89698,-0.62946 0.472095,-0.440622 0.865508,-0.912717 0.393412,-0.472095 0.58225,-0.786825 z m -4.327537,4.579321 q 0.456358,0.01574 1.274656,0.01574 0.818298,-0.01574 1.856907,-0.03147 1.038609,-0.03147 2.124428,-0.07868 l 0.01574,0.236048 q -0.519304,0.141628 -1.274656,0.346203 -0.755352,0.204574 -1.683806,0.456358 -0.912717,0.236048 -1.919853,0.456359 z m -0.204575,-2.895516 q 0.393413,0.01574 1.054346,0.01574 0.660933,0 1.479231,0 0.818298,-0.01574 1.668069,-0.01574 v 0.236048 q -0.535041,0.173101 -1.557914,0.440622 -1.007136,0.26752 -2.1559,0.535041 z m 12.00695,-4.028544 q 0,0 0.173101,0.125892 0.188838,0.125892 0.456359,0.346203 0.283257,0.220311 0.58225,0.456359 0.298994,0.236047 0.550777,0.456358 -0.06295,0.251784 -0.440621,0.251784 H 36.141053 L 35.999424,20.288081 H 48.02211 Z M 47.70738,18.195126 q -0.03147,0.141629 -0.188838,0.236048 -0.141628,0.09442 -0.409149,0.09442 -0.298993,0.283257 -0.755352,0.645196 -0.440622,0.346203 -0.928453,0.692406 -0.487832,0.346203 -0.94419,0.613724 h -0.204575 q 0.220311,-0.597987 0.440622,-1.400549 0.220311,-0.802561 0.330467,-1.432021 z m -6.483438,6.499175 q 0.834035,0.31473 1.274657,0.708142 0.440622,0.377676 0.58225,0.771089 0.157365,0.377676 0.06295,0.708142 -0.09442,0.31473 -0.330466,0.487832 -0.236048,0.173101 -0.550778,0.157365 -0.298993,-0.01574 -0.597987,-0.330467 0.04721,-0.409149 -0.03147,-0.849771 -0.06295,-0.440622 -0.220311,-0.849771 -0.157365,-0.409149 -0.346203,-0.723879 z m -1.52644,-7.002743 q 1.085818,0.09442 1.715278,0.393413 0.62946,0.283257 0.881244,0.660933 0.251784,0.377676 0.204575,0.755352 -0.04721,0.361939 -0.298994,0.613723 -0.251784,0.236048 -0.645196,0.267521 -0.377676,0.01574 -0.802562,-0.283257 -0.06295,-0.409149 -0.236047,-0.834035 -0.173102,-0.424885 -0.424886,-0.802561 -0.236047,-0.393413 -0.503568,-0.67667 z M 38.58021,28.156331 q 0.31473,0.912717 0.236048,1.620859 -0.07868,0.708143 -0.377676,1.180238 -0.283257,0.472095 -0.692406,0.676669 -0.377676,0.188838 -0.818298,0.09442 -0.424886,-0.07868 -0.566514,-0.472095 -0.110156,-0.393412 0.09442,-0.676669 0.204574,-0.298994 0.535041,-0.456359 0.330466,-0.141628 0.62946,-0.424885 0.31473,-0.298994 0.519304,-0.692406 0.204575,-0.393413 0.220311,-0.849771 z m 8.85965,-0.157365 q 1.133028,0.283257 1.793961,0.708142 0.660933,0.409149 0.94419,0.881244 0.283257,0.472095 0.26752,0.896981 -0.01574,0.409149 -0.251784,0.676669 -0.220311,0.283257 -0.58225,0.298994 -0.36194,0.03147 -0.771089,-0.283257 -0.04721,-0.535041 -0.283257,-1.101555 -0.220311,-0.566514 -0.550777,-1.070082 -0.330467,-0.519305 -0.708143,-0.896981 z m -4.469166,-0.503568 q 0.912717,0.220311 1.400548,0.566514 0.503568,0.346203 0.67667,0.723879 0.188838,0.361939 0.110155,0.676669 -0.07868,0.298994 -0.31473,0.487832 -0.236047,0.188838 -0.566514,0.173101 -0.31473,-0.01574 -0.645196,-0.31473 0.01574,-0.393412 -0.110156,-0.786825 -0.110155,-0.409149 -0.298993,-0.786825 -0.188838,-0.377676 -0.409149,-0.645196 z m 11.206486,6.389019 4.72095,-15.295878 h 0.94419 l -4.689477,15.295878 z m 19.043255,-9.992678 q 0.472095,0.755352 1.290393,1.274657 0.834034,0.519304 1.809697,0.818298 0.9914,0.298993 1.904116,0.440622 l -0.01574,0.220311 q -0.550777,0.298993 -0.89698,0.692406 -0.330467,0.393412 -0.409149,0.89698 -1.290393,-0.58225 -2.313266,-1.668069 -1.007136,-1.085818 -1.620859,-2.486367 z m -1.085819,1.085819 q -0.01574,0.125892 -0.125892,0.236047 -0.110155,0.110156 -0.393412,0.141629 V 31.9803 q 0,0.07868 -0.236048,0.204575 -0.236047,0.125892 -0.597987,0.220311 -0.361939,0.09442 -0.739615,0.09442 h -0.346203 v -7.742358 z m 0.818298,0.708142 q 0,0 0.251784,0.220311 0.267521,0.204575 0.62946,0.519305 0.36194,0.298993 0.62946,0.58225 -0.04721,0.251784 -0.409149,0.251784 H 67.161882 L 67.03599,26.802992 h 5.067153 z m -0.959926,-7.459101 q -0.09442,0.377676 -0.62946,0.36194 -0.36194,1.494967 -0.959927,2.926989 -0.597987,1.432021 -1.542177,2.738151 -0.928453,1.290393 -2.313265,2.376211 -1.369076,1.070082 -3.273192,1.856907 l -0.125892,-0.157365 q 1.52644,-1.022872 2.612259,-2.297529 1.085818,-1.274656 1.809697,-2.675205 0.723879,-1.400548 1.148765,-2.848306 0.424885,-1.463495 0.62946,-2.83257 z m 3.934125,0.298994 q 0,0 0.173101,0.141628 0.173102,0.125892 0.440622,0.330467 0.283257,0.204574 0.597987,0.456358 0.31473,0.236048 0.566514,0.456359 -0.06295,0.251784 -0.440622,0.251784 H 64.140474 L 64.014582,19.70583 H 74.95145 Z m 0.283257,4.028544 q 0,0 0.188838,0.141628 0.188838,0.125892 0.472095,0.36194 0.298993,0.220311 0.613723,0.472095 0.330467,0.251784 0.597987,0.487831 -0.06295,0.251784 -0.440622,0.251784 H 63.558224 l -0.141629,-0.456358 h 11.770902 z m -1.589387,5.145835 q 0,0 0.188838,0.141629 0.188838,0.141628 0.472095,0.361939 0.298994,0.220311 0.613724,0.487832 0.31473,0.26752 0.566514,0.487831 -0.06295,0.251784 -0.440622,0.251784 H 65.210556 l -0.125892,-0.440622 h 8.529183 z m 0.503568,-7.144371 q 0,0 0.283257,0.220311 0.283257,0.204575 0.67667,0.519305 0.409149,0.31473 0.723879,0.58225 -0.06295,0.251784 -0.440622,0.251784 H 64.83288 l -0.125892,-0.440622 h 9.504846 z m 14.715724,-1.070082 q -0.03147,1.557914 -0.09442,2.958462 -0.04721,1.384812 -0.267521,2.612259 -0.204574,1.227447 -0.692406,2.313266 -0.487831,1.070082 -1.369075,1.998535 -0.865508,0.928454 -2.25032,1.699542 -1.384812,0.786825 -3.399084,1.416285 l -0.125892,-0.236047 q 1.904117,-0.928454 3.084354,-1.967063 1.180238,-1.054345 1.809698,-2.234583 0.62946,-1.180237 0.881244,-2.502103 0.251784,-1.337603 0.283257,-2.848307 0.03147,-1.510704 0.03147,-3.210246 z M 89.6357,24.127787 q 0.188838,0.94419 0.660933,1.856907 0.472095,0.912717 1.290393,1.762488 0.818298,0.849771 2.030009,1.57365 1.227447,0.708142 2.926989,1.243183 l -0.01574,0.188838 q -0.692406,0.141629 -1.101555,0.535041 -0.409149,0.393413 -0.535041,1.180238 -1.479231,-0.723879 -2.47063,-1.715279 -0.975663,-0.991399 -1.605123,-2.108691 -0.613724,-1.117291 -0.94419,-2.266056 -0.330467,-1.148764 -0.472095,-2.187373 z m 3.808233,-6.058553 q 0,0 0.188838,0.157365 0.204575,0.157365 0.503568,0.393413 0.31473,0.236047 0.660933,0.503568 0.346203,0.26752 0.613724,0.503568 -0.06295,0.251784 -0.456359,0.251784 H 83.120789 L 82.994897,19.43831 h 9.363218 z m 0.94419,4.547849 q 0,0 0.188838,0.157365 0.204575,0.157365 0.519305,0.409149 0.31473,0.236047 0.660933,0.519304 0.346203,0.267521 0.62946,0.503568 -0.06295,0.251784 -0.456359,0.251784 H 82.208072 l -0.141628,-0.440622 h 11.220124 z m 14.306577,2.218846 q -0.23605,0.330467 -0.53504,0.755352 -0.29899,0.424886 -0.62946,0.818298 -0.33047,0.393413 -0.61372,0.708143 h -0.69241 q 0.0472,-0.330467 0.0944,-0.755352 0.0472,-0.424886 0.0787,-0.834035 0.0315,-0.409149 0.0315,-0.692406 z m 1.74675,2.030009 0.92846,-1.022873 1.93559,1.463495 q -0.0944,0.110155 -0.28326,0.220311 -0.18884,0.110155 -0.4721,0.157365 v 4.185909 q 0,0.06295 -0.26752,0.173101 -0.26752,0.125892 -0.64519,0.220311 -0.36194,0.110156 -0.67667,0.110156 h -0.33047 v -5.507775 z m -0.84977,-5.271728 0.83404,-0.928453 1.77822,1.337602 q -0.063,0.09442 -0.23605,0.188838 -0.15736,0.09442 -0.40915,0.157365 v 2.848307 q 0,0.04721 -0.25178,0.173101 -0.25178,0.110156 -0.59799,0.204575 -0.3462,0.09442 -0.64519,0.09442 h -0.31473 V 21.59421 Z m -5.20878,10.260198 q 0,0.07868 -0.26752,0.220311 -0.25178,0.157365 -0.66093,0.267521 -0.39342,0.125892 -0.80256,0.125892 h -0.299 v -5.602194 -0.834035 0 l 2.1559,0.834035 h 7.36468 v 0.440622 h -7.49057 z m 0.89698,-6.577857 q 0,0.07868 -0.23605,0.220311 -0.22031,0.125892 -0.58225,0.236048 -0.3462,0.09442 -0.72388,0.09442 h -0.25178 v -4.233119 -0.739615 0 l 1.88838,0.739615 h 5.24025 v 0.440622 h -5.33467 z m 6.42049,5.381883 v 0.456359 h -8.46623 v -0.456359 z m -1.02287,-6.121498 v 0.456358 h -6.49917 v -0.456358 z m -4.64227,-6.892587 q 1.10156,0.04721 1.68381,0.31473 0.59799,0.251784 0.80256,0.62946 0.22031,0.361939 0.12589,0.708142 -0.0944,0.346203 -0.39341,0.582251 -0.29899,0.220311 -0.72388,0.220311 -0.42489,0 -0.84977,-0.36194 0.0472,-0.550777 -0.1731,-1.101555 -0.22031,-0.566514 -0.58225,-0.89698 z m 6.1215,2.20311 0.95993,-0.959927 1.6838,1.589387 q -0.15736,0.157365 -0.59798,0.204574 -0.40915,0.440622 -1.03861,0.975663 -0.61373,0.519305 -1.14877,0.881244 l -0.14163,-0.110155 q 0.0944,-0.36194 0.18884,-0.834035 0.0944,-0.472095 0.15737,-0.928453 0.0787,-0.472095 0.11015,-0.818298 z m -9.56779,-0.881244 q 0.31473,0.912717 0.28326,1.636596 -0.0315,0.708142 -0.28326,1.195974 -0.25178,0.487831 -0.62946,0.723879 -0.25178,0.173101 -0.56651,0.188838 -0.31473,0.01574 -0.58225,-0.125892 -0.25179,-0.157365 -0.36194,-0.456359 -0.14163,-0.409149 0.0472,-0.739615 0.20457,-0.330467 0.58225,-0.519305 0.29899,-0.157365 0.58225,-0.440622 0.29899,-0.283257 0.48783,-0.660933 0.20457,-0.393412 0.22031,-0.802561 z m 10.59066,0.89698 v 0.440622 h -10.81097 v -0.440622 z"
           id="text3"
           aria-label="廣慈/奉天宮" />
        <path
           d="m 17.611359,39.487372 q 0.0257,-0.507575 0.147775,-0.88665 0.1285,-0.379075 0.353375,-0.623225 0.224875,-0.24415 0.469025,-0.4112 0.250575,-0.16705 0.520425,-0.257 0.14135,-0.0514 0.276275,-0.08353 0.14135,-0.03213 0.276275,-0.0514 0.134925,-0.01928 0.257,-0.03213 0.1285,-0.01285 0.2313,-0.01928 l 0.257,-0.0064 q 0.2056,0.0064 0.4112,0.03213 0.212025,0.01928 0.42405,0.06425 0.2056,0.04498 0.4112,0.1285 0.212025,0.0771 0.42405,0.186325 l -0.2056,0.546125 h -0.257 q -0.03213,-0.01285 -0.07068,-0.03855 -0.03855,-0.03213 -0.0771,-0.07068 -0.03855,-0.03855 -0.08353,-0.0771 -0.03855,-0.03855 -0.08995,-0.0771 -0.08995,-0.07068 -0.2056,-0.134925 -0.11565,-0.06425 -0.250575,-0.122075 -0.109225,-0.0514 -0.250575,-0.0771 -0.134925,-0.03212 -0.29555,-0.03855 -0.03213,0 -0.07067,0.0064 -0.03213,0 -0.07068,0.0064 -0.06425,0.0064 -0.134925,0.01928 -0.06425,0.01285 -0.134925,0.03213 -0.237725,0.06425 -0.4626,0.2056 -0.21845,0.134925 -0.42405,0.34695 -0.199175,0.212025 -0.314825,0.520425 -0.11565,0.3084 -0.147775,0.726025 v 0.01928 0.0257 0.0257 0.0257 q -0.0064,0.47545 0.122075,0.86095 0.1285,0.3855 0.3855,0.68105 0.24415,0.276275 0.55255,0.42405 0.314825,0.14135 0.700325,0.160625 0.1285,-0.0064 0.24415,-0.01928 0.122075,-0.01928 0.237725,-0.04497 0.147775,-0.03213 0.250575,-0.0771 0.109225,-0.0514 0.186325,-0.109225 v -1.68335 h 0.257 q 0.01285,0.01285 0.0257,0.01928 0.01285,0 0.03213,0.0064 0.01285,0.0064 0.0257,0.01285 0.01285,0 0.0257,0 0.0064,0 0.0064,0 0.0064,0 0.01285,0 0.0064,0.0064 0.0064,0.0064 0.0064,0 0.01285,0 0,0 0,0 0,0 0.0064,0 0,0 0,0 0,0 0,0 0.03213,-0.0064 0.07068,-0.01285 0.03855,-0.01285 0.0771,-0.01928 l 0.257,-0.0064 v 1.869675 l -0.01928,0.01928 -0.01928,0.0064 q -0.03213,0.01928 -0.0771,0.03213 -0.03855,0.01285 -0.08352,0.0257 -0.04498,0.01928 -0.09638,0.03213 -0.0514,0.01285 -0.109225,0.0257 -0.11565,0.0257 -0.2313,0.04498 -0.11565,0.01928 -0.24415,0.03213 -0.11565,0.01928 -0.224875,0.03213 -0.1028,0.01928 -0.212025,0.0257 -0.1028,0.01285 -0.19275,0.01928 -0.08995,0.0064 -0.160625,0.0064 h -0.257 q -0.01285,0 -0.03212,0 -0.01285,0 -0.0257,0 -0.01285,0 -0.03213,0 -0.01285,0 -0.0257,0 -0.546125,0 -0.9766,-0.147775 -0.430475,-0.147775 -0.751725,-0.4626 -0.314825,-0.3084 -0.47545,-0.7196 -0.160625,-0.417625 -0.160625,-0.93805 v -0.01285 z m 5.474099,0.456175 v -2.730625 h 0.257 q 0.04498,0.01928 0.08352,0.03213 0.04498,0.0064 0.08353,0.01285 0.01928,0 0.03855,0 0.01928,0 0.03855,-0.0064 0.0257,-0.0064 0.0514,-0.01285 0.0257,-0.0064 0.0514,-0.01285 l 0.257,-0.0064 v 2.627825 q 0,0.44975 0.08995,0.764575 0.09638,0.3084 0.289125,0.494725 0.173475,0.16705 0.391925,0.263425 0.21845,0.08995 0.47545,0.1028 0.32125,-0.01285 0.55255,-0.11565 0.237725,-0.1028 0.379075,-0.2827 0.1542,-0.2056 0.237725,-0.494725 0.08995,-0.29555 0.109225,-0.674625 v -2.692075 h 0.257 q 0.01285,0.01285 0.01928,0.01928 0.0064,0 0.01928,0.0064 0.0064,0.0064 0.01285,0.01285 0.01285,0 0.01928,0 0.01285,0 0.01928,0 0.01285,-0.0064 0.01928,-0.01285 0.01285,-0.0064 0.01928,-0.0064 0.01285,-0.0064 0.01927,-0.0064 l 0.257,-0.0064 v 2.576425 q 0,0.44975 -0.109225,0.80955 -0.1028,0.353375 -0.314825,0.623225 -0.212025,0.276275 -0.571825,0.4112 -0.3598,0.1285 -0.8738,0.1285 h -0.257 q -0.01285,0 -0.03213,0 -0.01285,0 -0.0257,0 -0.01285,0 -0.03213,0 -0.01285,0 -0.0257,0 -0.533275,0 -0.893075,-0.134925 -0.3598,-0.134925 -0.546125,-0.4112 -0.1799,-0.2827 -0.276275,-0.597525 -0.08995,-0.314825 -0.08995,-0.6682 v -0.01285 z m 4.760923,1.7219 2.023875,-4.503925 h 0.257 0.147775 l 1.9789,4.503925 h -0.257 q -0.01928,0 -0.04498,0 -0.01928,0 -0.04498,0 -0.0257,0 -0.0514,0 -0.01928,0 -0.0514,0 -0.01285,0 -0.03213,0 -0.01285,0 -0.0257,-0.0064 -0.01285,0 -0.03212,0 -0.01285,0 -0.0257,0 -0.01285,0.0064 -0.03213,0.0064 -0.01285,0 -0.0257,0 -0.01285,0 -0.0257,0 -0.01285,0 -0.01928,0 -0.01285,0 -0.0257,0 -0.0064,0 -0.01928,0 h -0.257 l -0.70675,-1.7733 h -1.3107 l -0.65535,1.7733 h -0.257 q -0.01285,0 -0.03213,0 -0.01285,0 -0.0257,0 l -0.03213,-0.0064 q -0.0064,0.0064 -0.01927,0.0064 -0.01285,0 -0.01928,0 -0.01285,0 -0.0257,0 -0.0064,0 -0.01928,0 h -0.257 q -0.01928,0 -0.03855,0 -0.01928,0 -0.03855,0 v 0 z m 1.574125,-2.075275 h 1.0537 l -0.52685,-1.2593 -0.52685,1.2593 z m 3.533748,2.075275 v -4.452525 h 0.257 0.3084 l 2.827,3.1097 v -3.1097 h 0.257 q 0.01285,0.01928 0.03213,0.0257 0.01928,0.0064 0.03855,0.01285 0.0257,-0.0064 0.04498,-0.01285 0.01928,-0.0064 0.03213,-0.01285 l 0.257,-0.0064 v 4.4461 h -0.257 -0.250575 l -2.884825,-3.206075 v 3.206075 h -0.257 q -0.0064,0 -0.01285,0 -0.0064,0 -0.01285,0 -0.01285,0 -0.01928,0 -0.0064,-0.0064 -0.01285,-0.0064 -0.01285,0 -0.0257,0 -0.0064,0 -0.01928,0.0064 -0.01285,0 -0.0257,0 -0.0064,0 -0.01928,0 h -0.257 v 0 z m 5.017922,-2.178075 q 0.0257,-0.507575 0.147775,-0.88665 0.1285,-0.379075 0.353375,-0.623225 0.224875,-0.24415 0.469025,-0.4112 0.250575,-0.16705 0.520425,-0.257 0.14135,-0.0514 0.276275,-0.08353 0.14135,-0.03213 0.276275,-0.0514 0.134925,-0.01928 0.257,-0.03213 0.1285,-0.01285 0.2313,-0.01928 l 0.257,-0.0064 q 0.2056,0.0064 0.4112,0.03213 0.212025,0.01928 0.42405,0.06425 0.2056,0.04498 0.4112,0.1285 0.212025,0.0771 0.42405,0.186325 l -0.2056,0.546125 h -0.257 q -0.03213,-0.01285 -0.07067,-0.03855 -0.03855,-0.03213 -0.0771,-0.07068 -0.03855,-0.03855 -0.08353,-0.0771 -0.03855,-0.03855 -0.08995,-0.0771 -0.08995,-0.07068 -0.2056,-0.134925 -0.11565,-0.06425 -0.250575,-0.122075 -0.109225,-0.0514 -0.250575,-0.0771 -0.134925,-0.03212 -0.29555,-0.03855 -0.03213,0 -0.07068,0.0064 -0.03213,0 -0.07068,0.0064 -0.06425,0.0064 -0.134925,0.01928 -0.06425,0.01285 -0.134925,0.03213 -0.237725,0.06425 -0.4626,0.2056 -0.21845,0.134925 -0.42405,0.34695 -0.199175,0.212025 -0.314825,0.520425 -0.11565,0.3084 -0.147775,0.726025 v 0.01928 0.0257 0.0257 0.0257 q -0.0064,0.47545 0.122075,0.86095 0.1285,0.3855 0.3855,0.68105 0.24415,0.276275 0.55255,0.42405 0.314825,0.14135 0.700325,0.160625 0.1285,-0.0064 0.24415,-0.01928 0.122075,-0.01928 0.237725,-0.04497 0.147775,-0.03213 0.250575,-0.0771 0.109225,-0.0514 0.186325,-0.109225 v -1.68335 h 0.257 q 0.01285,0.01285 0.0257,0.01928 0.01285,0 0.03213,0.0064 0.01285,0.0064 0.0257,0.01285 0.01285,0 0.0257,0 0.0064,0 0.0064,0 0.0064,0 0.01285,0 0.0064,0.0064 0.0064,0.0064 0.0064,0 0.01285,0 0,0 0,0 0,0 0.0064,0 0,0 0,0 0,0 0,0 0.03213,-0.0064 0.07068,-0.01285 0.03855,-0.01285 0.0771,-0.01928 l 0.257,-0.0064 v 1.869675 l -0.01928,0.01928 -0.01928,0.0064 q -0.03213,0.01928 -0.0771,0.03213 -0.03855,0.01285 -0.08353,0.0257 -0.04498,0.01928 -0.09638,0.03213 -0.0514,0.01285 -0.109225,0.0257 -0.11565,0.0257 -0.2313,0.04498 -0.11565,0.01928 -0.24415,0.03213 -0.11565,0.01928 -0.224875,0.03213 -0.1028,0.01928 -0.212025,0.0257 -0.1028,0.01285 -0.19275,0.01928 -0.08995,0.0064 -0.160625,0.0064 h -0.257 q -0.01285,0 -0.03213,0 -0.01285,0 -0.0257,0 -0.01285,0 -0.03213,0 -0.01285,0 -0.0257,0 -0.546125,0 -0.9766,-0.147775 -0.430475,-0.147775 -0.751725,-0.4626 -0.314825,-0.3084 -0.47545,-0.7196 -0.160625,-0.417625 -0.160625,-0.93805 v -0.01285 z m 5.165699,0 q 0,-0.44975 0.160626,-0.841675 0.160625,-0.39835 0.47545,-0.738875 0.32125,-0.340525 0.75815,-0.507575 0.4369,-0.173475 0.983025,-0.173475 l 0.257,-0.0064 q 0.03213,0.0064 0.06425,0.0064 0.03213,0 0.06425,0 0.03213,0.0064 0.06425,0.0064 0.03213,0 0.06425,0 0.07068,0.0064 0.134925,0.01285 0.07068,0 0.14135,0.0064 0.134925,0.0064 0.263425,0.03213 0.134925,0.01928 0.263425,0.0514 0.1285,0.03213 0.24415,0.08353 0.11565,0.04497 0.21845,0.109225 l -0.1542,0.494725 h -0.257 -0.0514 q -0.11565,-0.1028 -0.237725,-0.186325 -0.122075,-0.08995 -0.250575,-0.1542 -0.1285,-0.06425 -0.263425,-0.1028 -0.1285,-0.04498 -0.257,-0.07068 -0.03855,-0.0064 -0.0771,-0.0064 -0.03855,-0.0064 -0.07068,-0.01285 -0.0064,0 -0.01285,0 0,0 0,0 -0.0064,0 -0.01285,0 0,0 -0.0064,0 -0.29555,0.0257 -0.5654,0.1542 -0.263425,0.1285 -0.494725,0.353375 -0.257,0.257 -0.391925,0.610375 -0.134925,0.353375 -0.134925,0.80955 v 0.03855 0.03855 q 0.01285,0.55255 0.147775,0.944475 0.14135,0.391925 0.4112,0.6168 0.250575,0.212025 0.520425,0.327675 0.26985,0.109225 0.5654,0.1285 0.16705,-0.01285 0.327675,-0.04498 0.160625,-0.03855 0.32125,-0.1028 0.16705,-0.06425 0.314825,-0.147775 0.147775,-0.08995 0.26985,-0.19275 l 0.257,-0.0064 -0.0514,0.39835 q -0.04498,0.03213 -0.08995,0.05782 -0.04497,0.0257 -0.08352,0.0514 -0.04498,0.0257 -0.08995,0.04498 -0.04498,0.01928 -0.08995,0.03855 -0.07068,0.0257 -0.14135,0.04498 -0.06425,0.01928 -0.1285,0.04498 -0.0257,0.0064 -0.0514,0.01285 -0.01928,0.0064 -0.03855,0.01285 -0.09638,0.01928 -0.186325,0.03855 -0.08995,0.01928 -0.1799,0.03213 -0.08995,0.01285 -0.1799,0.01928 -0.08353,0.0064 -0.173475,0.0064 h -0.257 q -0.469025,0 -0.8738,-0.147775 -0.404775,-0.147775 -0.751725,-0.4626 -0.34695,-0.314825 -0.520425,-0.738875 -0.167051,-0.430475 -0.167051,-0.970175 v -0.01285 z m 5.165698,-2.27445 q 0.03213,0.01928 0.05783,0.03213 0.03213,0.0064 0.07068,0.01285 0.0064,0 0.0064,0 0.0064,0 0.01285,0 0.0064,0 0.0064,0 0.0064,0 0.01285,0 0.03855,-0.0064 0.07067,-0.01285 0.03855,-0.01285 0.06425,-0.01928 l 0.257,-0.0064 v 4.4461 h -0.257 q -0.0257,0 -0.06425,0 -0.03213,-0.0064 -0.06425,-0.01285 -0.0064,0 -0.01285,0 0,0 -0.0064,0 -0.0064,0 -0.01285,0 -0.0064,0 -0.01285,0 -0.03855,0.0064 -0.07068,0.01285 -0.0257,0 -0.05783,0 h -0.257 v -4.452525 h 0.257 v 0 z m 2.949075,5.107875 1.818275,-5.51265 h 0.257 q 0.01285,0.01928 0.03213,0.0257 0.01928,0.0064 0.03855,0.01285 0.0257,-0.0064 0.04498,-0.01285 0.01928,-0.0064 0.03213,-0.01285 l 0.257,-0.0064 -1.818275,5.506225 h -0.257 q -0.0064,0 -0.01285,0 -0.0064,0 -0.01285,0 -0.01285,-0.0064 -0.01928,-0.0064 -0.0064,0 -0.01285,0 -0.0064,0 -0.01285,0 -0.0064,0 -0.01285,0 -0.0064,-0.0064 -0.01285,-0.0064 -0.0064,0 -0.01285,0 -0.0064,0 -0.01285,0 0,0 0,0.0064 -0.0064,0 -0.01285,0 0,0.0064 -0.0064,0.0064 h -0.257 -0.0064 z m 5.127151,-5.056475 h 2.27445 q -0.0064,0.0257 -0.01285,0.04498 0,0.01285 -0.0064,0.0257 -0.0064,0.01285 -0.0064,0.0257 0,0.01285 0,0.0257 -0.0064,0.01928 -0.01285,0.03213 0,0.01285 0,0.0257 0,0.01285 0,0.03212 0,0.01285 0,0.0257 0,0.0257 0,0.05783 0,0.0257 0.0064,0.05783 0.0064,0.0257 0.01285,0.05783 0.01285,0.0257 0.01928,0.05783 l -0.257,-0.0064 q -0.0257,0.0064 -0.0514,0.0064 -0.01928,-0.0064 -0.03855,-0.01285 -0.01928,0 -0.03855,-0.0064 -0.01928,-0.0064 -0.03855,-0.01285 -0.09638,-0.01285 -0.19275,-0.0257 -0.09638,-0.01285 -0.186325,-0.0257 -0.09638,-0.0064 -0.19275,-0.01928 -0.09638,-0.01285 -0.19275,-0.01928 -0.1285,-0.01285 -0.263425,-0.01928 -0.134925,-0.0064 -0.26985,-0.0064 v 1.548425 h 0.70675 l 0.65535,-0.0514 h 0.257 q -0.0064,0.03213 -0.01285,0.05783 -0.0064,0.01928 -0.01285,0.03855 0,0.0064 -0.0064,0.01928 0,0.0064 0,0.01285 -0.0064,0.01285 -0.0064,0.01928 0,0.0064 0,0.01928 v 0.01285 0.0257 q 0,0.03213 0,0.05783 0,0.01928 0.0064,0.04498 0,0.01285 0,0.0257 0.0064,0.01285 0.01285,0.0257 0.0064,0.01928 0.0064,0.03213 0.0064,0.01285 0.01285,0.0257 l -0.257,-0.0064 -0.65535,-0.0514 h -0.70675 v 2.22305 h -0.257 q -0.0257,0 -0.05782,0 -0.0257,-0.0064 -0.05783,-0.01285 0,0 -0.0064,0 0,0 0,0 0,0 -0.0064,0 0,0 0,0 0,0 -0.0064,0 0,0 -0.0064,0 -0.03855,0.0064 -0.0771,0.01285 -0.03855,0 -0.0771,0 h -0.257 v -4.401125 h 0.257 v 0 z m 3.238205,4.401125 v -4.401125 h 0.257 2.32585 q -0.0064,0.03213 -0.01285,0.05783 -0.0064,0.01928 -0.01285,0.03855 0,0.0064 -0.0064,0.01928 0,0.0064 0,0.01285 -0.0064,0.01285 -0.0064,0.01928 0,0.0064 0,0.01928 v 0.01285 0.0257 q 0,0.03213 0,0.05783 0,0.01928 0.0064,0.04498 0,0.01285 0,0.0257 0.0064,0.01285 0.01285,0.0257 0.0064,0.01928 0.0064,0.03213 0.0064,0.01285 0.01285,0.0257 l -0.257,-0.0064 q -0.09638,-0.01285 -0.19275,-0.0257 -0.09637,-0.01285 -0.2056,-0.01928 -0.1028,-0.0064 -0.212025,-0.0064 -0.1028,-0.0064 -0.212025,-0.0064 0,0 0,0 0,0 0,0 -0.0064,0 -0.0064,0 0,0 0,0 -0.0257,0.0064 -0.0514,0.0064 -0.01928,0 -0.04498,0 -0.0257,0 -0.0514,0 -0.0257,0 -0.04497,0 -0.0257,0 -0.05783,0 -0.0257,0 -0.05783,0 -0.0257,0.0064 -0.05783,0.0064 -0.0257,0 -0.0514,0 -0.05783,0 -0.11565,0 -0.0514,0 -0.1028,0 v 1.55485 h 0.70675 l 0.60395,-0.0514 h 0.257 q -0.0064,0.03213 -0.01927,0.05783 -0.0064,0.01928 -0.01285,0.03855 -0.0064,0.0257 -0.0064,0.0514 0,0.01928 0,0.04498 0,0.01285 0,0.0257 0,0.01285 0,0.0257 0,0.01928 0,0.03213 0.0064,0.01285 0.0064,0.0257 0.0064,0.0257 0.01285,0.05783 0.01285,0.0257 0.01927,0.05783 l -0.257,-0.0064 -0.75815,-0.05783 h -0.55255 v 1.8247 q 0.04498,0.01285 0.09638,0.01928 0.0514,0.0064 0.109225,0.0064 0.0514,0.0064 0.1028,0.0064 0.0514,0 0.109225,0 0.03213,0 0.05782,0 0.0257,0 0.0514,-0.0064 0.0257,0 0.0514,0 0.03213,0 0.05783,0 0.1285,-0.0064 0.250575,-0.01285 0.122075,-0.0064 0.24415,-0.01285 0.11565,-0.01285 0.212025,-0.01928 0.09638,-0.01285 0.173475,-0.01928 l 0.257,-0.0064 q -0.0064,0.03213 -0.01928,0.06425 -0.0064,0.0257 -0.01285,0.05783 -0.0064,0.0257 -0.0064,0.0514 0,0.0257 0,0.0514 0,0.0257 0,0.0514 0,0.0257 0.0064,0.0514 0.0064,0.0257 0.01285,0.04498 0.01285,0.01928 0.01928,0.0257 h -0.257 -2.37725 v 0 z m 3.540176,0 v -4.452525 h 0.257 0.3084 l 2.827,3.1097 v -3.1097 h 0.257 q 0.01285,0.01928 0.03212,0.0257 0.01928,0.0064 0.03855,0.01285 0.0257,-0.0064 0.04498,-0.01285 0.01927,-0.0064 0.03212,-0.01285 l 0.257,-0.0064 v 4.4461 h -0.257 -0.250575 l -2.884825,-3.206075 v 3.206075 h -0.257 q -0.0064,0 -0.01285,0 -0.0064,0 -0.01285,0 -0.01285,0 -0.01928,0 -0.0064,-0.0064 -0.01285,-0.0064 -0.01285,0 -0.0257,0 -0.0064,0 -0.01928,0.0064 -0.01285,0 -0.0257,0 -0.0064,0 -0.01928,0 h -0.257 v 0 z m 5.017926,-2.178075 q 0.0257,-0.507575 0.147775,-0.88665 0.1285,-0.379075 0.353375,-0.623225 0.224875,-0.24415 0.469025,-0.4112 0.250575,-0.16705 0.520425,-0.257 0.14135,-0.0514 0.276275,-0.08353 0.14135,-0.03213 0.276275,-0.0514 0.134925,-0.01928 0.257,-0.03213 0.1285,-0.01285 0.2313,-0.01928 l 0.257,-0.0064 q 0.2056,0.0064 0.4112,0.03213 0.212025,0.01928 0.42405,0.06425 0.2056,0.04498 0.4112,0.1285 0.212025,0.0771 0.42405,0.186325 l -0.2056,0.546125 h -0.257 q -0.03212,-0.01285 -0.07067,-0.03855 -0.03855,-0.03213 -0.0771,-0.07068 -0.03855,-0.03855 -0.08352,-0.0771 -0.03855,-0.03855 -0.08995,-0.0771 -0.08995,-0.07068 -0.2056,-0.134925 -0.11565,-0.06425 -0.250575,-0.122075 -0.109225,-0.0514 -0.250575,-0.0771 -0.134925,-0.03212 -0.29555,-0.03855 -0.03212,0 -0.07067,0.0064 -0.03213,0 -0.07068,0.0064 -0.06425,0.0064 -0.134925,0.01928 -0.06425,0.01285 -0.134925,0.03213 -0.237725,0.06425 -0.4626,0.2056 -0.21845,0.134925 -0.42405,0.34695 -0.199175,0.212025 -0.314825,0.520425 -0.11565,0.3084 -0.147775,0.726025 v 0.01928 0.0257 0.0257 0.0257 q -0.0064,0.47545 0.122075,0.86095 0.1285,0.3855 0.3855,0.68105 0.24415,0.276275 0.55255,0.42405 0.314825,0.14135 0.700325,0.160625 0.1285,-0.0064 0.24415,-0.01928 0.122075,-0.01928 0.237725,-0.04497 0.147775,-0.03213 0.250575,-0.0771 0.109225,-0.0514 0.186325,-0.109225 v -1.68335 h 0.257 q 0.01285,0.01285 0.0257,0.01928 0.01285,0 0.03212,0.0064 0.01285,0.0064 0.0257,0.01285 0.01285,0 0.0257,0 0.0064,0 0.0064,0 0.0064,0 0.01285,0 0.0064,0.0064 0.0064,0.0064 0.0064,0 0.01285,0 0,0 0,0 0,0 0.0064,0 0,0 0,0 0,0 0,0 0.03212,-0.0064 0.07067,-0.01285 0.03855,-0.01285 0.0771,-0.01928 l 0.257,-0.0064 v 1.869675 l -0.01928,0.01928 -0.01927,0.0064 q -0.03213,0.01928 -0.0771,0.03213 -0.03855,0.01285 -0.08353,0.0257 -0.04497,0.01928 -0.09637,0.03213 -0.0514,0.01285 -0.109225,0.0257 -0.11565,0.0257 -0.2313,0.04498 -0.11565,0.01928 -0.24415,0.03213 -0.11565,0.01928 -0.224875,0.03213 -0.1028,0.01928 -0.212025,0.0257 -0.1028,0.01285 -0.19275,0.01928 -0.08995,0.0064 -0.160625,0.0064 h -0.257 q -0.01285,0 -0.03212,0 -0.01285,0 -0.0257,0 -0.01285,0 -0.03213,0 -0.01285,0 -0.0257,0 -0.546125,0 -0.9766,-0.147775 -0.430475,-0.147775 -0.751725,-0.4626 -0.314825,-0.3084 -0.47545,-0.7196 -0.160625,-0.417625 -0.160625,-0.93805 v -0.01285 z m 6.431423,2.178075 v -4.131275 q -0.0064,0.0064 -0.01285,0.0064 -0.0064,0 -0.01285,0 -0.0064,0.0064 -0.01285,0.0064 -0.0064,0 -0.01285,0 -0.09637,0.0064 -0.199175,0.01928 -0.09637,0.0064 -0.199175,0.01928 -0.03855,0.0064 -0.0771,0.01285 -0.03213,0 -0.06425,0.0064 -0.03213,0.0064 -0.07068,0.01285 -0.03212,0 -0.06425,0 -0.06425,0.0064 -0.1285,0.01928 -0.05783,0.0064 -0.11565,0.01928 -0.05783,0.0064 -0.102801,0.01285 -0.04498,0.0064 -0.08353,0.01285 l -0.257,-0.0064 q 0.0064,-0.0064 0.0064,-0.01928 0.0064,-0.01928 0.01285,-0.03213 0,-0.01285 0,-0.0257 0.0064,-0.01285 0.01285,-0.03213 0,-0.01285 0,-0.0257 0,-0.01285 0,-0.0257 0,-0.0064 0,-0.01285 0,-0.0064 0.0064,-0.01928 0,-0.0064 0,-0.01285 0,-0.0064 0,-0.01285 0,-0.03212 -0.0064,-0.05782 0,-0.03213 -0.0064,-0.05783 -0.0064,-0.03213 -0.01285,-0.05783 0,-0.03213 -0.01285,-0.05783 l 3.385976,-0.01285 h 0.257 q -0.0064,0.0257 -0.01285,0.04498 0,0.01285 -0.0064,0.0257 -0.0064,0.01285 -0.0064,0.0257 0,0.01285 0,0.0257 -0.0064,0.01928 -0.01285,0.03213 0,0.01285 0,0.0257 0,0.01285 0,0.03213 0,0.01285 0,0.0257 0,0.0257 0,0.05783 0,0.0257 0.0064,0.05783 0.0064,0.0257 0.01285,0.05783 0.01285,0.0257 0.01927,0.05783 l -0.257,-0.0064 q -0.224875,-0.03213 -0.4369,-0.05783 -0.212025,-0.03213 -0.404775,-0.0514 -0.08995,-0.01285 -0.16705,-0.01285 -0.0771,-0.0064 -0.147775,-0.01285 v 4.12485 h -0.257 q -0.01285,0 -0.03213,0 -0.01285,0 -0.0257,-0.0064 -0.01927,0 -0.03855,0 -0.01285,-0.0064 -0.0257,-0.0064 0,0 -0.0064,0 0,0 0,0 0,0 -0.0064,0 0,0 0,0 0,0 -0.0064,0 0,0 -0.0064,0 -0.03855,0.0064 -0.0771,0.01285 -0.03855,0 -0.0771,0 h -0.257 v 0 z m 3.193229,-4.452525 q 0.03212,0.01928 0.05782,0.03213 0.03213,0.0064 0.07068,0.01285 0.0064,0 0.0064,0 0.0064,0 0.01285,0 0.0064,0 0.0064,0 0.0064,0 0.01285,0 0.03855,-0.0064 0.07067,-0.01285 0.03855,-0.01285 0.06425,-0.01928 l 0.257,-0.0064 v 4.4461 h -0.257 q -0.0257,0 -0.06425,0 -0.03212,-0.0064 -0.06425,-0.01285 -0.0064,0 -0.01285,0 0,0 -0.0064,0 -0.0064,0 -0.01285,0 -0.0064,0 -0.01285,0 -0.03855,0.0064 -0.07068,0.01285 -0.0257,0 -0.05782,0 h -0.257 v -4.452525 h 0.257 v 0 z m 1.22075,4.452525 2.023875,-4.503925 h 0.257 0.147775 l 1.9789,4.503925 h -0.257 q -0.01928,0 -0.04498,0 -0.01927,0 -0.04497,0 -0.0257,0 -0.0514,0 -0.01928,0 -0.0514,0 -0.01285,0 -0.03213,0 -0.01285,0 -0.0257,-0.0064 -0.01285,0 -0.03212,0 -0.01285,0 -0.0257,0 -0.01285,0.0064 -0.03213,0.0064 -0.01285,0 -0.0257,0 -0.01285,0 -0.0257,0 -0.01285,0 -0.01928,0 -0.01285,0 -0.0257,0 -0.0064,0 -0.01927,0 h -0.257 l -0.70675,-1.7733 h -1.3107 l -0.65535,1.7733 h -0.257 q -0.01285,0 -0.03212,0 -0.01285,0 -0.0257,0 l -0.03213,-0.0064 q -0.0064,0.0064 -0.01927,0.0064 -0.01285,0 -0.01928,0 -0.01285,0 -0.0257,0 -0.0064,0 -0.01927,0 h -0.257 q -0.01927,0 -0.03855,0 -0.01927,0 -0.03855,0 v 0 z m 1.574125,-2.075275 h 1.0537 l -0.52685,-1.2593 -0.52685,1.2593 z m 3.53375,2.075275 v -4.452525 h 0.257 0.3084 l 2.827,3.1097 v -3.1097 h 0.257 q 0.01285,0.01928 0.03212,0.0257 0.01928,0.0064 0.03855,0.01285 0.0257,-0.0064 0.04498,-0.01285 0.01927,-0.0064 0.03212,-0.01285 l 0.257,-0.0064 v 4.4461 h -0.257 -0.250575 l -2.884825,-3.206075 v 3.206075 h -0.257 q -0.0064,0 -0.01285,0 -0.0064,0 -0.01285,0 -0.01285,0 -0.01928,0 -0.0064,-0.0064 -0.01285,-0.0064 -0.01285,0 -0.0257,0 -0.0064,0 -0.01927,0.0064 -0.01285,0 -0.0257,0 -0.0064,0 -0.01928,0 h -0.257 v 0 z m 8.211147,0 v -4.131275 q -0.0064,0.0064 -0.01285,0.0064 -0.0064,0 -0.01285,0 -0.0064,0.0064 -0.01285,0.0064 -0.0064,0 -0.01285,0 -0.09637,0.0064 -0.199175,0.01928 -0.09638,0.0064 -0.199175,0.01928 -0.03855,0.0064 -0.0771,0.01285 -0.03213,0 -0.06425,0.0064 -0.03213,0.0064 -0.07068,0.01285 -0.03212,0 -0.06425,0 -0.06425,0.0064 -0.1285,0.01928 -0.05783,0.0064 -0.11565,0.01928 -0.05783,0.0064 -0.1028,0.01285 -0.04498,0.0064 -0.08352,0.01285 l -0.257,-0.0064 q 0.0064,-0.0064 0.0064,-0.01928 0.0064,-0.01928 0.01285,-0.03213 0,-0.01285 0,-0.0257 0.0064,-0.01285 0.01285,-0.03213 0,-0.01285 0,-0.0257 0,-0.01285 0,-0.0257 0,-0.0064 0,-0.01285 0,-0.0064 0.0064,-0.01928 0,-0.0064 0,-0.01285 0,-0.0064 0,-0.01285 0,-0.03212 -0.0064,-0.05782 0,-0.03213 -0.0064,-0.05783 -0.0064,-0.03213 -0.01285,-0.05783 0,-0.03213 -0.01285,-0.05783 l 3.385975,-0.01285 h 0.257 q -0.0064,0.0257 -0.01285,0.04498 0,0.01285 -0.0064,0.0257 -0.0064,0.01285 -0.0064,0.0257 0,0.01285 0,0.0257 -0.0064,0.01928 -0.01285,0.03213 0,0.01285 0,0.0257 0,0.01285 0,0.03213 0,0.01285 0,0.0257 0,0.0257 0,0.05783 0,0.0257 0.0064,0.05783 0.0064,0.0257 0.01285,0.05783 0.01285,0.0257 0.01927,0.05783 l -0.257,-0.0064 q -0.224875,-0.03213 -0.4369,-0.05783 -0.212025,-0.03213 -0.404775,-0.0514 -0.08995,-0.01285 -0.16705,-0.01285 -0.0771,-0.0064 -0.147775,-0.01285 v 4.12485 h -0.257 q -0.01285,0 -0.03213,0 -0.01285,0 -0.0257,-0.0064 -0.01927,0 -0.03855,0 -0.01285,-0.0064 -0.0257,-0.0064 0,0 -0.0064,0 0,0 0,0 0,0 -0.0064,0 0,0 0,0 0,0 -0.0064,0 0,0 -0.0064,0 -0.03855,0.0064 -0.0771,0.01285 -0.03855,0 -0.0771,0 h -0.257 v 0 z m 2.891255,0 v -4.401125 h 0.257 2.32585 q -0.0064,0.03213 -0.01285,0.05783 -0.0064,0.01928 -0.01285,0.03855 0,0.0064 -0.0064,0.01928 0,0.0064 0,0.01285 -0.0064,0.01285 -0.0064,0.01928 0,0.0064 0,0.01928 v 0.01285 0.0257 q 0,0.03213 0,0.05783 0,0.01928 0.0064,0.04498 0,0.01285 0,0.0257 0.0064,0.01285 0.01285,0.0257 0.0064,0.01928 0.0064,0.03213 0.0064,0.01285 0.01285,0.0257 l -0.257,-0.0064 q -0.09638,-0.01285 -0.19275,-0.0257 -0.09637,-0.01285 -0.2056,-0.01928 -0.1028,-0.0064 -0.212025,-0.0064 -0.1028,-0.0064 -0.212025,-0.0064 0,0 0,0 0,0 0,0 -0.0064,0 -0.0064,0 0,0 0,0 -0.0257,0.0064 -0.0514,0.0064 -0.01927,0 -0.04497,0 -0.0257,0 -0.0514,0 -0.0257,0 -0.04497,0 -0.0257,0 -0.05783,0 -0.0257,0 -0.05782,0 -0.0257,0.0064 -0.05783,0.0064 -0.0257,0 -0.0514,0 -0.05782,0 -0.11565,0 -0.0514,0 -0.1028,0 v 1.55485 h 0.70675 l 0.60395,-0.0514 h 0.257 q -0.0064,0.03213 -0.01928,0.05783 -0.0064,0.01928 -0.01285,0.03855 -0.0064,0.0257 -0.0064,0.0514 0,0.01928 0,0.04498 0,0.01285 0,0.0257 0,0.01285 0,0.0257 0,0.01928 0,0.03213 0.0064,0.01285 0.0064,0.0257 0.0064,0.0257 0.01285,0.05783 0.01285,0.0257 0.01928,0.05783 l -0.257,-0.0064 -0.75815,-0.05783 h -0.55255 v 1.8247 q 0.04497,0.01285 0.09637,0.01928 0.0514,0.0064 0.109225,0.0064 0.0514,0.0064 0.1028,0.0064 0.0514,0 0.109225,0 0.03212,0 0.05782,0 0.0257,0 0.0514,-0.0064 0.0257,0 0.0514,0 0.03212,0 0.05782,0 0.1285,-0.0064 0.250575,-0.01285 0.122075,-0.0064 0.24415,-0.01285 0.11565,-0.01285 0.212025,-0.01928 0.09638,-0.01285 0.173475,-0.01928 l 0.257,-0.0064 q -0.0064,0.03213 -0.01927,0.06425 -0.0064,0.0257 -0.01285,0.05783 -0.0064,0.0257 -0.0064,0.0514 0,0.0257 0,0.0514 0,0.0257 0,0.0514 0,0.0257 0.0064,0.0514 0.0064,0.0257 0.01285,0.04498 0.01285,0.01928 0.01927,0.0257 h -0.257 -2.37725 v 0 z m 3.186808,0 0.610375,-4.452525 h 0.257 0.199175 l 1.644797,3.14825 1.68978,-3.14825 h 0.257 0.2056 l 0.50757,4.452525 h -0.257 q -0.0386,0 -0.0771,0 -0.0385,-0.0064 -0.0707,-0.01285 -0.0129,0 -0.0321,0 -0.0129,0 -0.0257,-0.0064 0,0 -0.006,0.0064 0,0 -0.006,0 -0.006,0 -0.0129,0 0,0 0,0 -0.0386,0.0064 -0.0835,0.01285 -0.0386,0 -0.09,0 h -0.257 l -0.26343,-2.91695 -1.45205,2.81415 h -0.257 -0.1028 l -1.400647,-2.756325 -0.263425,2.859125 h -0.257 q -0.01928,0 -0.04498,0 -0.01927,-0.0064 -0.04497,-0.01285 0,0 0,0 0,0 0,0 -0.0064,0 -0.01285,0 0,0 -0.0064,0 -0.0064,0.0064 -0.01285,0.0064 0,0 0,0 -0.01927,0.0064 -0.03855,0.0064 -0.01928,0 -0.03855,0 h -0.257 v 0 z m 6.437847,-4.452525 h 1.6191 q 0.32125,0.01285 0.55898,0.08353 0.24415,0.06425 0.39835,0.19275 0.1542,0.1285 0.2313,0.32125 0.0771,0.186325 0.0771,0.430475 v 0.01928 l 0.006,0.0257 v 0.0257 0.0257 q 0,0.29555 -0.0964,0.507575 -0.0964,0.212025 -0.2827,0.3598 -0.18633,0.14135 -0.39193,0.237725 -0.2056,0.09638 -0.43047,0.147775 -0.0835,0.01928 -0.16705,0.03213 -0.0771,0.0064 -0.1542,0.01927 -0.0771,0.0064 -0.1542,0.01285 -0.0707,0 -0.14135,0 l -0.257,-0.0064 q -0.0578,0.0064 -0.10923,0.0064 -0.0514,0 -0.1028,-0.0064 v 2.01745 h -0.257 q -0.0386,0 -0.0771,0 -0.0321,-0.0064 -0.0643,-0.01285 0,0 -0.006,0 0,0 0,0 0,0 -0.006,0 0,0 0,0 -0.006,0 -0.0129,0 0,0 -0.006,0 -0.0386,0.0064 -0.0835,0.01285 -0.0386,0 -0.0899,0 h -0.257 v -4.452525 h 0.257 v 0 z m 0.60395,2.126675 h 0.35338 q 0.2313,0.01285 0.4112,-0.05783 0.1799,-0.0771 0.3084,-0.21845 0.1285,-0.147775 0.19917,-0.3084 0.0771,-0.160625 0.0964,-0.340525 0,-0.0064 0,-0.01285 0,-0.0064 0.006,-0.01285 0,-0.0064 0,-0.01285 0,-0.0064 0,-0.01285 0,-0.01285 0,-0.0257 0,-0.01285 0,-0.0257 0,-0.16705 -0.0514,-0.3084 -0.0514,-0.147775 -0.1542,-0.276275 -0.1028,-0.1285 -0.257,-0.19275 -0.1542,-0.06425 -0.3598,-0.06425 l 0.257,-0.0064 h -0.0257 -0.0193 l -0.0257,0.0064 h -0.257 -0.0257 l -0.45618,-0.0064 v 1.8761 z m 3.09043,2.32585 v -4.452525 h 0.257 q 0.0257,0.01928 0.0578,0.03213 0.0321,0.0064 0.0707,0.01285 0,0 0,0 0.006,0 0.0129,0 0.006,0 0.006,0 0.006,0 0.006,0 0.006,0 0.006,0 0.006,0 0.0129,0 0,0 0,0 0.006,0 0.0129,0 0.0321,-0.0064 0.0578,-0.01285 0.0321,-0.01285 0.0514,-0.01928 l 0.257,-0.0064 v 4.092725 q 0.045,0.01285 0.0964,0.01928 0.0514,0.0064 0.10922,0.0064 0.0514,0.0064 0.1028,0.0064 0.0514,0 0.10923,0 0.0321,0 0.0578,0 0.0257,0 0.0514,-0.0064 0.0257,0 0.0514,0 0.0321,0 0.0578,0 0.1285,-0.0064 0.25057,-0.01285 0.12208,-0.0064 0.24415,-0.01285 0.11565,-0.01285 0.21203,-0.01928 0.0964,-0.01285 0.17347,-0.01928 l 0.257,-0.0064 q -0.006,0.0257 -0.0129,0.04498 -0.006,0.01928 -0.006,0.03855 -0.006,0.01928 -0.006,0.03855 0,0.01928 0,0.03213 0,0.01928 0,0.03855 0,0.01927 0,0.03212 0,0.01928 0,0.03855 0.006,0.01285 0.0129,0.0257 0,0.0064 0,0.01928 0,0.0064 0.006,0.01928 0,0.0064 0,0.01928 0,0.0064 0,0.01285 l 0.006,0.03855 h -0.257 -2.32585 v 0 z m 3.4952,0 v -4.401125 h 0.257 2.32585 q -0.006,0.03213 -0.0129,0.05783 -0.006,0.01928 -0.0129,0.03855 0,0.0064 -0.006,0.01928 0,0.0064 0,0.01285 -0.006,0.01285 -0.006,0.01928 0,0.0064 0,0.01928 v 0.01285 0.0257 q 0,0.03213 0,0.05783 0,0.01928 0.006,0.04498 0,0.01285 0,0.0257 0.006,0.01285 0.0129,0.0257 0.006,0.01928 0.006,0.03213 0.006,0.01285 0.0129,0.0257 l -0.257,-0.0064 q -0.0964,-0.01285 -0.19275,-0.0257 -0.0964,-0.01285 -0.2056,-0.01928 -0.1028,-0.0064 -0.21202,-0.0064 -0.1028,-0.0064 -0.21203,-0.0064 0,0 0,0 0,0 0,0 -0.006,0 -0.006,0 0,0 0,0 -0.0257,0.0064 -0.0514,0.0064 -0.0193,0 -0.045,0 -0.0257,0 -0.0514,0 -0.0257,0 -0.045,0 -0.0257,0 -0.0578,0 -0.0257,0 -0.0578,0 -0.0257,0.0064 -0.0578,0.0064 -0.0257,0 -0.0514,0 -0.0578,0 -0.11565,0 -0.0514,0 -0.1028,0 v 1.55485 h 0.70675 l 0.60395,-0.0514 h 0.257 q -0.006,0.03213 -0.0193,0.05783 -0.006,0.01928 -0.0129,0.03855 -0.006,0.0257 -0.006,0.0514 0,0.01928 0,0.04498 0,0.01285 0,0.0257 0,0.01285 0,0.0257 0,0.01928 0,0.03213 0.006,0.01285 0.006,0.0257 0.006,0.0257 0.0129,0.05783 0.0129,0.0257 0.0193,0.05783 l -0.257,-0.0064 -0.75815,-0.05783 h -0.55255 v 1.8247 q 0.045,0.01285 0.0964,0.01928 0.0514,0.0064 0.10922,0.0064 0.0514,0.0064 0.1028,0.0064 0.0514,0 0.10923,0 0.0321,0 0.0578,0 0.0257,0 0.0514,-0.0064 0.0257,0 0.0514,0 0.0321,0 0.0578,0 0.1285,-0.0064 0.25057,-0.01285 0.12208,-0.0064 0.24415,-0.01285 0.11565,-0.01285 0.21203,-0.01928 0.0964,-0.01285 0.17347,-0.01928 l 0.257,-0.0064 q -0.006,0.03213 -0.0193,0.06425 -0.006,0.0257 -0.0129,0.05783 -0.006,0.0257 -0.006,0.0514 0,0.0257 0,0.0514 0,0.0257 0,0.0514 0,0.0257 0.006,0.0514 0.006,0.0257 0.0129,0.04498 0.0129,0.01928 0.0193,0.0257 h -0.257 -2.37725 v 0 z"
           id="text7"
           style="font-weight:bold;font-size:6.425px;line-height:1;font-family:'Optima Bold';-inkscape-font-specification:'Optima Bold,  Bold';stroke-width:0.160626"
           aria-label="GUANGCI / FENGTIAN TEMPLE" />
      </g>
    </g>
  </g>
</svg>
