<?xml version="1.0" encoding="UTF-8" standalone="no"?>
<!-- Created with Inkscape (http://www.inkscape.org/) -->

<svg
   width="500"
   height="250"
   viewBox="0 0 132.29166 66.145833"
   version="1.1"
   id="svg1"
   inkscape:version="1.3.2 (091e20e, 2023-11-25, custom)"
   sodipodi:docname="r02.svg"
   xmlns:inkscape="http://www.inkscape.org/namespaces/inkscape"
   xmlns:sodipodi="http://sodipodi.sourceforge.net/DTD/sodipodi-0.dtd"
   xmlns="http://www.w3.org/2000/svg"
   xmlns:svg="http://www.w3.org/2000/svg">
  <sodipodi:namedview
     id="namedview1"
     pagecolor="#9e652e"
     bordercolor="#ffffff"
     borderopacity="1"
     inkscape:showpageshadow="0"
     inkscape:pageopacity="0"
     inkscape:pagecheckerboard="false"
     inkscape:deskcolor="#d1d1d1"
     inkscape:document-units="mm"
     inkscape:zoom="2.0208096"
     inkscape:cx="225.15728"
     inkscape:cy="106.88785"
     inkscape:window-width="1920"
     inkscape:window-height="1009"
     inkscape:window-x="1912"
     inkscape:window-y="-8"
     inkscape:window-maximized="1"
     inkscape:current-layer="g1" />
  <defs
     id="defs1">
    <rect
       x="560.66638"
       y="34.144731"
       width="279.32397"
       height="128.59143"
       id="rect6" />
    <rect
       x="157.85752"
       y="62.351248"
       width="329.07603"
       height="135.09437"
       id="rect4" />
    <rect
       x="157.85751"
       y="62.35125"
       width="329.07602"
       height="135.09438"
       id="rect4-5" />
  </defs>
  <g
     inkscape:label="Layer 1"
     inkscape:groupmode="layer"
     id="layer1">
    <rect
       style="fill:#f4eed7;fill-opacity:1;stroke:none;stroke-width:0.953294;stroke-dasharray:none"
       id="rect5"
       width="132.29167"
       height="66.145836"
       x="-2.5431316e-06"
       y="-1.2715658e-06"
       ry="0" />
    <g
       id="g1"
       transform="translate(23.824458)"
       style="fill:#000000">
      <g
         id="g2"
         transform="translate(-4.1631059)">
        <path
           id="rect1"
           style="fill-opacity:0;stroke:#000000;stroke-width:0.942789"
           d="m 15.91309,14.352791 h 12.425164 c 3.927062,0 7.088559,3.161497 7.088559,7.088559 v 23.263136 c 0,3.927062 -3.161497,7.088559 -7.088559,7.088559 H 15.91309 c -3.927061,0 -7.0885584,-3.161497 -7.0885584,-7.088559 V 21.44135 c 0,-3.927062 3.1614974,-7.088559 7.0885584,-7.088559 z" />
        <path
           style="font-size:14.2913px;line-height:1.25;font-family:'AR UDJingXiHeiE1G30 EB';-inkscape-font-specification:'AR UDJingXiHeiE1G30 EB';stroke-width:0.297736"
           d="m 24.276514,23.642888 q 0,-0.757439 -0.400157,-1.143304 -0.400156,-0.400156 -1.157595,-0.400156 H 19.61755 v 3.215542 h 3.001173 q 0.743147,0 1.200469,-0.44303 0.457322,-0.44303 0.457322,-1.229052 z m -4.658964,3.07263 v 4.301681 h -1.814995 v -10.33261 h 5.259198 q 1.414839,0 2.243734,0.757439 0.843187,0.743148 0.843187,2.115113 0,0.900351 -0.428739,1.54346 -0.414448,0.643108 -1.043265,0.914643 0.800313,0.457322 1.229052,1.586334 0.428739,1.129013 0.543069,3.415621 H 24.56234 q -0.08575,-2.400938 -0.528779,-3.344164 -0.428739,-0.957517 -1.386256,-0.957517 z"
           id="text2"
           aria-label="R" />
        <path
           style="font-size:14.3917px;line-height:1.25;font-family:'AR UDJingXiHeiE1G30 EB';-inkscape-font-specification:'AR UDJingXiHeiE1G30 EB';stroke-width:0.261667"
           d="m 21.492415,39.692779 q 0,2.720031 -0.877894,4.015284 -0.877893,1.295253 -2.720031,1.295253 -1.784571,0 -2.70564,-1.295253 -0.921068,-1.295253 -0.921068,-4.015284 0,-2.907123 0.877893,-4.173593 0.877894,-1.280861 2.748815,-1.280861 1.827746,0 2.70564,1.280861 0.892285,1.26647 0.892285,4.173593 z m -3.597925,3.885759 q 0.921069,0 1.35282,-0.906677 0.431751,-0.921069 0.431751,-2.979082 0,-2.216322 -0.41736,-3.122999 -0.402967,-0.906677 -1.367211,-0.906677 -0.964244,0 -1.381603,0.921069 -0.41736,0.906677 -0.41736,3.108607 0,2.043622 0.431751,2.96469 0.431751,0.921069 1.367212,0.921069 z m 5.094652,-5.871813 q 0,-1.611871 0.978635,-2.53294 0.978636,-0.93546 2.561723,-0.93546 1.626262,0 2.532939,0.820327 0.921069,0.805935 0.921069,2.245105 0,1.021811 -0.662019,2.058013 -0.647626,1.021811 -2.043621,2.259497 l -1.957271,1.770179 h 4.634127 v 1.424778 H 22.945966 V 43.50658 l 2.907124,-2.61929 q 1.280861,-1.165727 1.784571,-1.986054 0.518101,-0.834719 0.518101,-1.597479 0,-0.719585 -0.41736,-1.165728 -0.417359,-0.446142 -1.208902,-0.446142 -0.791544,0 -1.280862,0.546884 -0.489317,0.546885 -0.489317,1.467954 z"
           id="text3"
           aria-label="02" />
        <path
           style="font-weight:500;font-size:72px;line-height:1.25;font-family:'Noto Sans TC';-inkscape-font-specification:'Noto Sans TC Medium';white-space:pre"
           d="m 182.91342,108.72941 4.536,-3.456 q 5.76,3.24 9.504,7.128 3.744,3.816 5.544,7.848 1.872,4.032 2.016,7.704 0.216,3.672 -1.08,6.624 -1.296,2.952 -3.816,4.464 -1.944,1.368 -3.816,1.8 -1.8,0.432 -4.32,0.504 -1.296,0 -2.952,-0.072 -1.584,-0.072 -3.312,-0.144 -0.072,-1.368 -0.576,-3.096 -0.432,-1.728 -1.296,-3.096 2.016,0.216 3.816,0.288 1.872,0.072 3.168,0.072 1.44,0 2.664,-0.216 1.296,-0.216 2.304,-1.008 2.016,-1.224 2.52,-3.96 0.576,-2.808 -0.72,-6.48 -1.224,-3.672 -4.68,-7.56 -3.456,-3.888 -9.504,-7.344 z m 8.568,2.736 4.68,2.448 q -2.664,2.016 -6.192,3.96 -3.528,1.872 -7.488,3.528 -3.96,1.656 -8.064,3.024 -4.032,1.296 -7.704,2.16 -0.648,-1.08 -1.728,-2.448 -1.08,-1.44 -2.088,-2.376 3.744,-0.72 7.776,-1.728 4.032,-1.08 7.92,-2.448 3.888,-1.368 7.2,-2.88 3.312,-1.584 5.688,-3.24 z m 3.888,6.984 4.824,2.664 q -3.024,2.664 -7.128,5.184 -4.104,2.52 -8.784,4.68 -4.608,2.16 -9.36,3.96 -4.752,1.728 -9.216,2.88 -0.648,-1.152 -1.8,-2.664 -1.08,-1.512 -2.088,-2.448 4.392,-0.936 9.144,-2.376 4.752,-1.512 9.288,-3.384 4.608,-1.944 8.496,-4.104 3.888,-2.16 6.624,-4.392 z m -14.904,-39.096004 h 21.168 v 5.184 h -21.168 z m -4.824,15.12 v 6.768004 h 36.936 v -6.768004 z m -6.408,-5.04 h 50.112 v 16.848004 h -50.112 z m 12.384,-15.048 7.128,1.44 q -4.032,5.688 -9.648,11.16 -5.616,5.472 -13.32,10.08 -0.432,-0.864 -1.296,-1.728 -0.792,-0.936 -1.656,-1.728 -0.864,-0.864 -1.584,-1.368 4.752,-2.52 8.64,-5.544 3.888,-3.096 6.84,-6.264 3.024,-3.168 4.896,-6.048 z m 17.424,4.968 h 1.512 l 1.08,-0.288 4.608,3.024 q -1.224,2.016 -2.88,4.248 -1.584,2.232 -3.384,4.248 -1.8,1.944 -3.456,3.456 -0.936,-0.72 -2.376,-1.656 -1.44,-0.936 -2.592,-1.512 1.44,-1.368 2.88,-3.168 1.512,-1.872 2.736,-3.744 1.224,-1.944 1.872,-3.384 z m -8.568,12.384 h 6.12 v 11.448004 h -6.12 z m -0.144,11.376004 4.32,2.448 q -2.52,1.728 -5.76,3.312 -3.24,1.584 -6.912,3.096 -3.672,1.44 -7.344,2.664 -3.672,1.152 -6.84,1.872 -0.72,-0.936 -1.728,-2.304 -1.008,-1.44 -1.944,-2.304 4.392,-0.792 9.36,-2.16 4.968,-1.368 9.432,-3.096 4.464,-1.728 7.416,-3.528 z m 25.056,3.888 5.472,4.176 q -3.096,1.728 -6.696,3.384 -3.528,1.656 -7.128,3.096 -3.528,1.44 -6.552,2.52 l -4.32,-3.816 q 3.024,-1.08 6.552,-2.664 3.528,-1.656 6.84,-3.384 3.384,-1.8 5.832,-3.312 z m -5.832,6.048 q 1.224,3.456 3.6,7.2 2.376,3.744 5.832,7.056 3.456,3.24 8.064,5.184 -0.72,0.648 -1.584,1.656 -0.864,1.008 -1.656,2.088 -0.792,1.152 -1.296,2.088 -4.68,-2.376 -8.28,-6.192 -3.6,-3.888 -6.048,-8.208 -2.448,-4.32 -3.888,-8.064 z m 52.632,-37.656004 h 7.2 v 56.880004 h -7.2 z m 25.488,14.328 h 7.056 v 51.552004 h -7.056 z m -50.472,0.216 h 6.984 v 39.168004 h 46.944 v 6.912 h -53.928 z"
           id="text4"
           transform="matrix(0.26166763,0,0,0.26166763,-2.1314997,-4.0633201)"
           aria-label="象山" />
        <path
           style="font-size:7.32669px;line-height:1.25;font-family:'AR UDJingXiHeiE1G30 EB';-inkscape-font-specification:'AR UDJingXiHeiE1G30 EB';stroke-width:0.261667"
           d="m 43.513118,35.589222 h 1.077023 l -1.824346,2.557015 1.92692,2.740182 h -1.08435 l -1.384745,-2.044147 -1.384744,2.044147 h -1.055043 l 1.912266,-2.747509 -1.831673,-2.549688 h 1.091677 l 1.274844,1.904939 z m 2.718203,0 v 5.297197 h -0.93049 v -5.297197 z m 4.037001,3.157803 -0.835243,-2.263947 -0.849896,2.263947 z m -1.956226,0.725343 -0.527522,1.414051 h -0.945143 l 2.132067,-5.297197 h 0.952469 l 2.117414,5.297197 h -0.967123 l -0.534849,-1.414051 z m 5.267883,-2.410482 v 3.824533 h -0.93049 v -5.297197 h 0.959797 l 2.600975,3.912452 v -3.912452 h 0.93049 v 5.297197 h -1.01841 z m 8.66747,3.179784 q -0.271087,0.380988 -0.681382,0.564155 -0.402968,0.175841 -0.923163,0.175841 -1.142964,0 -1.817019,-0.718016 -0.674056,-0.725342 -0.674056,-2.022166 0,-1.304151 0.710689,-2.022167 0.710689,-0.718016 1.919593,-0.718016 0.97445,0 1.582565,0.446929 0.615442,0.439601 0.739996,1.26019 h -0.93049 q -0.07327,-0.432274 -0.432275,-0.703362 -0.351681,-0.278414 -0.959796,-0.278414 -0.813263,0 -1.238211,0.527521 -0.424948,0.520195 -0.424948,1.487319 0,1.033063 0.446928,1.523951 0.446929,0.483562 1.216231,0.483562 0.674056,0 1.069697,-0.395642 0.395641,-0.395641 0.395641,-0.908509 v -0.109901 h -1.501971 v -0.725342 h 2.395827 v 2.776816 H 62.247449 Z M 65.99871,38.490591 Q 65.031587,38.31475 64.562678,37.948416 64.09377,37.582081 64.09377,36.922679 q 0,-0.615442 0.498215,-1.01841 0.505542,-0.402968 1.553259,-0.402968 0.959796,0 1.487318,0.410295 0.527521,0.410295 0.578808,1.186924 h -0.930489 q -0.0073,-0.373661 -0.293068,-0.622769 -0.285741,-0.249107 -0.871876,-0.249107 -0.549502,0 -0.813263,0.183167 -0.263761,0.183167 -0.256434,0.512868 0,0.359008 0.351681,0.534849 0.359008,0.17584 1.164944,0.337027 1.011083,0.205148 1.436031,0.556829 0.432275,0.351681 0.432275,1.055043 0,0.674056 -0.571482,1.128311 -0.571482,0.446928 -1.626525,0.446928 -1.077024,0 -1.677812,-0.454255 -0.600789,-0.454255 -0.600789,-1.311478 h 0.93049 q 0,0.476235 0.359008,0.761976 0.359007,0.278414 0.99643,0.278414 0.586135,0 0.915836,-0.227127 0.329701,-0.227127 0.329701,-0.593462 0,-0.424948 -0.329701,-0.608115 -0.329701,-0.183167 -1.157617,-0.337028 z m 4.234826,0.04396 v 2.351868 h -0.93049 v -5.297197 h 0.93049 v 2.219987 h 2.542361 v -2.219987 h 0.93049 v 5.297197 h -0.93049 v -2.351868 z m 7.509858,0.212474 -0.835243,-2.263947 -0.849896,2.263947 z m -1.956227,0.725343 -0.527521,1.414051 h -0.945143 l 2.132067,-5.297197 h 0.952469 l 2.117414,5.297197 H 78.54933 l -0.534849,-1.414051 z m 5.267887,-2.410482 v 3.824533 h -0.93049 v -5.297197 h 0.959797 l 2.600975,3.912452 v -3.912452 h 0.930489 v 5.297197 h -1.01841 z"
           id="text5"
           aria-label="XIANGSHAN" />
        <path
           d="m 41.991561,47.190622 0.461581,-0.351681 q 0.542175,0.300394 0.893856,0.666729 0.351681,0.359008 0.520195,0.739996 0.175841,0.380988 0.190494,0.725342 0.02198,0.344354 -0.102573,0.622769 -0.117227,0.271087 -0.351682,0.424948 -0.190493,0.124553 -0.366334,0.168514 -0.175841,0.04396 -0.417621,0.05129 -0.124554,0 -0.285741,-0.0073 -0.153861,0 -0.315048,-0.0073 -0.0073,-0.139207 -0.05861,-0.315048 -0.04396,-0.17584 -0.131881,-0.307721 0.190494,0.01465 0.366335,0.02198 0.183167,0.0073 0.307721,0.0073 0.13188,0 0.249107,-0.02198 0.117227,-0.02198 0.219801,-0.09525 0.168514,-0.117227 0.212474,-0.366334 0.05129,-0.256435 -0.07327,-0.593462 -0.117227,-0.337028 -0.439602,-0.688709 -0.315047,-0.359008 -0.879202,-0.674056 z m 0.783955,0.161188 0.468909,0.24178 q -0.322375,0.271088 -0.791283,0.512869 -0.461581,0.24178 -0.967123,0.439601 -0.505542,0.190494 -0.97445,0.307721 -0.06594,-0.1099 -0.17584,-0.249107 -0.109901,-0.146534 -0.197821,-0.234455 0.454255,-0.08792 0.95247,-0.24178 0.505541,-0.161188 0.945143,-0.359008 0.446928,-0.197821 0.739995,-0.417621 z m 0.483562,0.666728 0.490888,0.271088 q -0.300394,0.278414 -0.696035,0.542175 -0.395642,0.256434 -0.849896,0.490888 -0.446928,0.227128 -0.90851,0.410295 -0.461581,0.183167 -0.886529,0.307721 -0.06594,-0.117227 -0.183168,-0.271088 -0.117227,-0.146534 -0.2198,-0.241781 0.432274,-0.102573 0.893856,-0.256434 0.461581,-0.161187 0.901183,-0.359007 0.439601,-0.205148 0.813262,-0.424949 0.373662,-0.227127 0.644749,-0.468908 z m -1.348111,-4.132253 h 2.161374 v 0.527522 h -2.161374 z m 1.304151,2.359194 0.527522,0.249108 q -0.410295,0.300394 -0.967124,0.549502 -0.549501,0.249107 -1.157617,0.446928 -0.600788,0.19782 -1.157617,0.337027 -0.02931,-0.06594 -0.09525,-0.15386 -0.06594,-0.09525 -0.139207,-0.190494 -0.06594,-0.09525 -0.117227,-0.153861 0.556829,-0.102573 1.135637,-0.26376 0.586135,-0.161188 1.099004,-0.366335 0.520195,-0.212474 0.871876,-0.454255 z m 0.783956,0.117227 q 0.212474,0.718016 0.571482,1.326131 0.366334,0.608116 0.901182,1.047717 0.534849,0.439601 1.230884,0.674055 -0.06594,0.06594 -0.15386,0.168514 -0.08792,0.102574 -0.168514,0.212474 -0.07327,0.109901 -0.124554,0.197821 -0.732669,-0.293068 -1.289497,-0.791283 -0.549502,-0.498215 -0.93049,-1.179597 -0.373661,-0.688709 -0.615442,-1.523951 z m 1.941573,0.344355 0.564155,0.410294 q -0.278414,0.190494 -0.600789,0.388315 -0.322374,0.190494 -0.644749,0.366335 -0.315047,0.168513 -0.593461,0.300394 l -0.439602,-0.366335 q 0.271088,-0.13188 0.586135,-0.315047 0.315048,-0.190494 0.615442,-0.395642 0.300395,-0.212474 0.512869,-0.388314 z m -4.476608,-1.296824 v 0.725342 h 3.765919 v -0.725342 z m -0.652075,-0.512869 h 5.106703 v 1.751079 h -5.106703 z m 1.21623,-1.516625 0.718016,0.146534 q -0.395642,0.578809 -0.959797,1.135637 -0.564155,0.556829 -1.326131,1.01841 -0.05129,-0.08059 -0.13188,-0.17584 -0.08059,-0.09525 -0.168514,-0.175841 -0.08792,-0.08059 -0.168514,-0.13188 0.476235,-0.256435 0.86455,-0.564156 0.388314,-0.315047 0.681382,-0.637422 0.300394,-0.322374 0.490888,-0.615442 z m 0.93049,1.780386 h 0.681382 V 46.4433 h -0.681382 z m 0.842569,-1.274844 h 0.153861 l 0.1099,-0.02931 0.468908,0.307721 q -0.124554,0.205148 -0.293067,0.432275 -0.168514,0.227127 -0.351682,0.432275 -0.17584,0.19782 -0.344354,0.351681 -0.09525,-0.07327 -0.249108,-0.168514 -0.146533,-0.09525 -0.256434,-0.153861 0.146534,-0.139207 0.293068,-0.322374 0.15386,-0.190494 0.271087,-0.380988 0.124554,-0.19782 0.197821,-0.344354 z m 6.447487,-0.300394 h 0.73267 v 5.692838 h -0.73267 z m -2.535034,1.589892 h 0.703362 v 4.945515 h -0.703362 z m 5.172643,-0.01465 h 0.718016 v 4.938189 h -0.718016 z m -4.828289,3.699979 h 5.143337 v 0.710689 H 48.05806 Z"
           id="text5-9"
           style="font-weight:500;font-size:7.32669px;line-height:1.25;font-family:'Noto Sans JP';-inkscape-font-specification:'Noto Sans JP Medium';stroke-width:0.261667"
           aria-label="象山" />
        <path
           style="font-weight:500;font-size:7.32669px;line-height:1.25;font-family:'Noto Sans KR';-inkscape-font-specification:'Noto Sans KR Medium';stroke-width:0.261667"
           d="m 66.115555,44.544643 h 1.15029 v 0.637422 h -1.15029 z m 0,1.428704 h 1.15029 v 0.630096 h -1.15029 z m -3.436218,-2.029493 h 0.637422 v 0.644749 q 0,0.652075 -0.219801,1.223557 -0.212474,0.564155 -0.630095,0.989103 -0.410295,0.424948 -0.99643,0.637422 L 61.060139,46.83057 q 0.527521,-0.183167 0.886529,-0.527522 0.366335,-0.344354 0.549502,-0.783955 0.183167,-0.446929 0.183167,-0.93049 z m 0.153861,0 h 0.622768 v 0.710689 q 0,0.322375 0.102574,0.630096 0.102574,0.300394 0.300394,0.571481 0.205148,0.263761 0.498215,0.468909 0.293068,0.205147 0.666729,0.329701 l -0.402968,0.600788 q -0.564155,-0.205147 -0.967123,-0.593462 -0.395641,-0.388314 -0.608115,-0.901183 -0.212474,-0.520195 -0.212474,-1.10633 z m 2.754835,-0.351681 h 0.761976 v 4.015026 h -0.761976 z m -1.392071,4.18354 q 0.696036,0 1.186924,0.146534 0.498215,0.146534 0.769302,0.432275 0.271088,0.278414 0.271088,0.674055 0,0.388315 -0.271088,0.666729 -0.271087,0.285741 -0.769302,0.432275 -0.490888,0.146534 -1.186924,0.146534 -0.688709,0 -1.194251,-0.146534 -0.498214,-0.146534 -0.769302,-0.432275 -0.263761,-0.278414 -0.263761,-0.666729 0,-0.395641 0.263761,-0.674055 0.271088,-0.285741 0.769302,-0.432275 0.505542,-0.146534 1.194251,-0.146534 z m 0,0.600789 q -0.461581,0 -0.791283,0.07327 -0.329701,0.07327 -0.505541,0.2198 -0.175841,0.146534 -0.175841,0.359008 0,0.205148 0.175841,0.351681 0.17584,0.146534 0.505541,0.227128 0.329702,0.07327 0.791283,0.07327 0.468908,0 0.791283,-0.07327 0.329701,-0.08059 0.505541,-0.227128 0.175841,-0.146533 0.175841,-0.351681 0,-0.212474 -0.175841,-0.359008 -0.17584,-0.146533 -0.505541,-0.2198 -0.322375,-0.07327 -0.791283,-0.07327 z M 69.4492,43.995141 h 0.630095 v 0.776629 q 0,0.659402 -0.219801,1.230884 -0.212474,0.564155 -0.630095,0.981777 -0.417621,0.417621 -1.011083,0.637422 l -0.417622,-0.600789 q 0.542175,-0.183167 0.90851,-0.520195 0.366334,-0.344354 0.549502,-0.791282 Q 69.4492,45.262658 69.4492,44.77177 Z m 0.146533,0 h 0.622769 v 0.798609 q 0,0.329701 0.102574,0.644749 0.1099,0.315048 0.307721,0.593462 0.205147,0.278414 0.498215,0.490888 0.300394,0.212474 0.688709,0.344355 l -0.388315,0.608115 q -0.586135,-0.212474 -0.99643,-0.608115 -0.410295,-0.395642 -0.622769,-0.93049 -0.212474,-0.542175 -0.212474,-1.142964 z m 2.732856,-0.410295 h 0.761976 v 4.923536 h -0.761976 z m 0.534848,2.007513 h 1.172271 v 0.637423 h -1.172271 z m -3.993046,3.934433 h 4.491261 v 0.622769 h -4.491261 z m 0,-1.487318 h 0.769303 v 1.809692 h -0.769303 z"
           id="text5-9-8"
           aria-label="샹산" />
      </g>
    </g>
    <text
       xml:space="preserve"
       transform="matrix(0.31615295,0,0,0.31615295,-10.474341,-6.4462013)"
       id="text6"
       style="font-size:55px;line-height:1.25;font-family:'Microsoft JhengHei';-inkscape-font-specification:'Microsoft JhengHei';white-space:pre;shape-inside:url(#rect6);display:inline" />
  </g>
</svg>
