<?xml version="1.0" encoding="UTF-8" standalone="no"?>
<!-- Created with Inkscape (http://www.inkscape.org/) -->

<svg
   width="500"
   height="250"
   viewBox="0 0 132.29166 66.145833"
   version="1.1"
   id="svg1"
   inkscape:version="1.3.2 (091e20e, 2023-11-25, custom)"
   sodipodi:docname="r03.svg"
   xmlns:inkscape="http://www.inkscape.org/namespaces/inkscape"
   xmlns:sodipodi="http://sodipodi.sourceforge.net/DTD/sodipodi-0.dtd"
   xmlns="http://www.w3.org/2000/svg"
   xmlns:svg="http://www.w3.org/2000/svg">
  <sodipodi:namedview
     id="namedview1"
     pagecolor="#9e652e"
     bordercolor="#ffffff"
     borderopacity="1"
     inkscape:showpageshadow="0"
     inkscape:pageopacity="0"
     inkscape:pagecheckerboard="false"
     inkscape:deskcolor="#d1d1d1"
     inkscape:document-units="mm"
     inkscape:zoom="2.0208096"
     inkscape:cx="305.81802"
     inkscape:cy="52.454224"
     inkscape:window-width="1920"
     inkscape:window-height="1009"
     inkscape:window-x="1912"
     inkscape:window-y="-8"
     inkscape:window-maximized="1"
     inkscape:current-layer="layer1" />
  <defs
     id="defs1">
    <rect
       x="560.66638"
       y="34.144731"
       width="279.32397"
       height="128.59143"
       id="rect6" />
    <rect
       x="157.85752"
       y="62.351248"
       width="541.85369"
       height="99.322566"
       id="rect4" />
    <rect
       x="157.85751"
       y="62.35125"
       width="329.07602"
       height="135.09438"
       id="rect4-5" />
  </defs>
  <g
     inkscape:label="Layer 1"
     inkscape:groupmode="layer"
     id="layer1">
    <path
       id="rect5"
       style="fill:#f4eed7;stroke-width:0.953294"
       d="M -2.5431316e-6,-1.2715658e-6 H 132.29167 V 66.145835 H -2.5431316e-6 Z" />
    <g
       id="g1"
       transform="matrix(0.58063906,0,0,0.58063906,0.96369296,13.869489)"
       style="fill:#000000">
      <g
         id="g2"
         transform="translate(-4.1631059)">
        <path
           id="rect1"
           style="fill-opacity:0;stroke:#000000;stroke-width:0.942789"
           d="m 15.91309,14.352791 h 12.425164 c 3.927062,0 7.088559,3.161497 7.088559,7.088559 v 23.263136 c 0,3.927062 -3.161497,7.088559 -7.088559,7.088559 H 15.91309 c -3.927061,0 -7.0885584,-3.161497 -7.0885584,-7.088559 V 21.44135 c 0,-3.927062 3.1614974,-7.088559 7.0885584,-7.088559 z" />
        <path
           style="font-size:14.2913px;line-height:1.25;font-family:'AR UDJingXiHeiE1G30 EB';-inkscape-font-specification:'AR UDJingXiHeiE1G30 EB';stroke-width:0.297736"
           d="m 24.276514,23.642888 q 0,-0.757439 -0.400157,-1.143304 -0.400156,-0.400156 -1.157595,-0.400156 H 19.61755 v 3.215542 h 3.001173 q 0.743147,0 1.200469,-0.44303 0.457322,-0.44303 0.457322,-1.229052 z m -4.658964,3.07263 v 4.301681 h -1.814995 v -10.33261 h 5.259198 q 1.414839,0 2.243734,0.757439 0.843187,0.743148 0.843187,2.115113 0,0.900351 -0.428739,1.54346 -0.414448,0.643108 -1.043265,0.914643 0.800313,0.457322 1.229052,1.586334 0.428739,1.129013 0.543069,3.415621 H 24.56234 q -0.08575,-2.400938 -0.528779,-3.344164 -0.428739,-0.957517 -1.386256,-0.957517 z"
           id="text2"
           aria-label="R" />
        <path
           style="font-size:14.3917px;line-height:1.25;font-family:'AR UDJingXiHeiE1G30 EB';-inkscape-font-specification:'AR UDJingXiHeiE1G30 EB';stroke-width:0.261667"
           d="m 21.492415,39.692779 q 0,2.720031 -0.877894,4.015284 -0.877893,1.295253 -2.720031,1.295253 -1.784571,0 -2.70564,-1.295253 -0.921068,-1.295253 -0.921068,-4.015284 0,-2.907123 0.877893,-4.173593 0.877894,-1.280861 2.748815,-1.280861 1.827746,0 2.70564,1.280861 0.892285,1.26647 0.892285,4.173593 z m -3.597925,3.885759 q 0.921069,0 1.35282,-0.906677 0.431751,-0.921069 0.431751,-2.979082 0,-2.216322 -0.41736,-3.122999 -0.402967,-0.906677 -1.367211,-0.906677 -0.964244,0 -1.381603,0.921069 -0.41736,0.906677 -0.41736,3.108607 0,2.043622 0.431751,2.96469 0.431751,0.921069 1.367212,0.921069 z m 8.491093,-7.915435 q -0.791544,0 -1.237686,0.474926 -0.446143,0.474926 -0.446143,1.237687 h -1.770179 q 0,-1.410387 0.921069,-2.273889 0.93546,-0.863502 2.532939,-0.863502 1.482345,0 2.403414,0.733977 0.921068,0.733976 0.921068,2.101188 0,0.748368 -0.316617,1.324036 -0.316617,0.575668 -0.949852,0.877894 0.805935,0.273442 1.237686,0.921069 0.446143,0.647626 0.446143,1.539912 0,1.539911 -0.978636,2.403413 -0.978636,0.863502 -2.720031,0.863502 -1.770179,0 -2.734423,-0.84911 -0.964244,-0.84911 -0.964244,-2.317064 h 1.784571 q 0,0.777152 0.518101,1.26647 0.532493,0.474926 1.410386,0.474926 0.863502,0 1.35282,-0.474926 0.50371,-0.474926 0.50371,-1.35282 0,-0.733976 -0.460535,-1.194511 -0.460534,-0.474926 -1.324036,-0.474926 h -0.647626 v -1.424778 h 0.647626 q 0.575668,0 0.964244,-0.41736 0.402967,-0.417359 0.402967,-1.122552 0,-0.647627 -0.388575,-1.050594 -0.388576,-0.402968 -1.108161,-0.402968 z"
           id="text3"
           aria-label="03" />
        <g
           id="text4"
           style="font-size:72px;line-height:1.25;font-family:'Microsoft JhengHei';-inkscape-font-specification:'Microsoft JhengHei';white-space:pre"
           transform="matrix(0.26166763,0,0,0.26166763,-2.1314997,-4.0633201)"
           aria-label="台北101 / 世貿">
          <path
             style="font-weight:500;font-family:'Noto Sans TC';-inkscape-font-specification:'Noto Sans TC Medium'"
             d="m 173.55342,131.04941 h 40.176 v 6.552 h -40.176 z m -3.384,-20.592 h 47.376 v 30.888 h -7.272 v -24.336 h -33.12 v 24.408 h -6.984 z m 30.312,-24.768004 5.328,-3.528 q 3.384,3.024 7.128,6.84 3.744,3.744 6.912,7.488 3.24,3.744004 5.112,6.768004 l -5.832,4.248 q -1.728,-3.096 -4.824,-6.912 -3.096,-3.816004 -6.768,-7.704004 -3.6,-3.888 -7.056,-7.2 z m -33.48,19.296004 q -0.144,-0.72 -0.576,-1.944 -0.36,-1.224 -0.792,-2.52 -0.432,-1.296004 -0.864,-2.160004 1.368,-0.288 2.736,-1.368 1.368,-1.152 3.168,-2.88 1.008,-0.864 2.88,-2.88 1.872,-2.016 4.176,-4.752 2.304,-2.736 4.68,-5.976 2.376,-3.24 4.392,-6.48 l 6.84,2.952 q -3.312,4.68 -7.128,9.144 -3.744,4.392 -7.632,8.28 -3.816,3.888 -7.632,6.984004 v 0.216 q 0,0 -0.648,0.36 -0.648,0.288 -1.512,0.864 -0.864,0.504 -1.512,1.08 -0.576,0.576 -0.576,1.08 z m 0,0 -0.072,-5.328004 4.824,-2.52 45.216,-1.8 q 0.072,1.368 0.288,3.168 0.216,1.800004 0.432,2.880004 -10.656,0.576 -18.36,1.008 -7.704,0.36 -13.032,0.648 -5.256,0.288 -8.712,0.576 -3.384,0.216 -5.472,0.432 -2.016,0.144 -3.168,0.36 -1.08,0.216 -1.944,0.576 z m 67.248,-12.600004 h 21.24 v 6.84 h -21.24 z m 35.64,-16.416 h 7.128 v 51.912004 q 0,2.808 0.504,3.6 0.576,0.792 2.448,0.792 0.504,0 1.512,0 1.08,0 2.304,0 1.224,0 2.304,0 1.08,0 1.584,0 1.512,0 2.232,-1.368 0.792,-1.44 1.08,-5.112 0.36,-3.744 0.576,-10.44 0.864,0.648 2.016,1.368 1.152,0.648 2.376,1.152 1.224,0.504 2.16,0.72 -0.36,7.488 -1.224,11.952 -0.864,4.392 -2.88,6.336 -1.944,2.016 -5.688,2.016 -0.576,0 -1.872,0 -1.296,0 -2.808,0 -1.512,0 -2.808,0 -1.224,0 -1.8,0 -3.456,0 -5.472,-1.008 -2.016,-0.936 -2.88,-3.384 -0.792,-2.448 -0.792,-6.696 z m -18.072,-0.072 h 7.056 v 53.496004 h -7.056 z m -19.944,57.888004 q 3.888,-1.296 9.144,-3.168 5.256,-1.872 11.088,-4.032 5.904,-2.16 11.664,-4.32 l 1.152,6.048 q -5.112,2.232 -10.44,4.464 -5.328,2.16 -10.296,4.176 -4.968,2.016 -9.216,3.672 z m 41.76,-41.472004 h 23.04 v 6.84 h -23.04 z"
             id="path8" />
          <path
             style="font-family:'AR UDJingXiHeiE1G30 EB';-inkscape-font-specification:'AR UDJingXiHeiE1G30 EB'"
             d="m 319.92942,94.185406 -8.424,7.848004 -4.176,-6.408004 13.536,-12.312 h 7.848 v 52.056004 h -8.784 z m 64.22395,15.552004 q 0,13.608 -4.392,20.088 -4.392,6.48 -13.608,6.48 -8.928,0 -13.536,-6.48 -4.608,-6.48 -4.608,-20.088 0,-14.544004 4.392,-20.880004 4.392,-6.408 13.752,-6.408 9.144,0 13.536,6.408 4.464,6.336 4.464,20.880004 z m -18,19.44 q 4.608,0 6.768,-4.536 2.16,-4.608 2.16,-14.904 0,-11.088004 -2.088,-15.624004 -2.016,-4.536 -6.84,-4.536 -4.824,0 -6.912,4.608 -2.088,4.536 -2.088,15.552004 0,10.224 2.16,14.832 2.16,4.608 6.84,4.608 z m 39.45595,-34.992004 -8.424,7.848004 -4.176,-6.408004 13.536,-12.312 h 7.848 v 52.056004 h -8.784 z m 73.58389,-10.872 -21.096,52.056004 h -8.352 l 21.096,-52.056004 z"
             id="path9" />
          <path
             style="font-weight:500;font-family:'Noto Sans TC';-inkscape-font-specification:'Noto Sans TC Medium'"
             d="m 502.01716,92.385406 h 65.16 v 6.624 h -65.16 z m 10.152,-15.696 h 7.128 v 53.856004 h 45.936 v 6.624 h -53.064 z m 18.792,-1.584 h 6.768 v 39.888004 h 12.096 V 75.825406 h 7.056 v 45.432004 h -25.92 z m 69.696,-0.216 3.024,5.04 q -3.096,0.864 -6.984,1.584 -3.816,0.72 -7.776,1.152 -3.96,0.432 -7.632,0.72 -0.144,-1.008 -0.576,-2.376 -0.432,-1.368 -0.936,-2.448 3.6,-0.36 7.416,-0.936 3.816,-0.576 7.344,-1.224 3.528,-0.72 6.12,-1.512 z m -8.208,11.016 5.256,-1.872 q 1.584,1.872 3.168,4.104 1.584,2.232 2.88,4.392 1.368,2.16 2.016,3.888 l -5.544,2.088 q -0.648,-1.656 -1.872,-3.888 -1.224,-2.232 -2.736,-4.464 -1.512,-2.304 -3.168,-4.248 z m 13.824,-8.064 h 25.992 v 5.328 h -25.992 z m 23.976,0 h 6.408 q 0,0 0,0.936 0,0.864 -0.144,1.512 -0.36,5.112 -0.792,8.496 -0.432,3.384 -1.008,5.256 -0.504,1.872 -1.296,2.808 -0.936,0.936 -2.016,1.368 -1.008,0.432 -2.376,0.576 -1.152,0.144 -3.24,0.144 -2.088,0 -4.392,-0.144 -0.072,-1.224 -0.576,-2.808 -0.432,-1.656 -1.08,-2.808 2.016,0.216 3.744,0.288 1.728,0 2.448,0 1.512,0 2.16,-0.648 0.504,-0.504 0.864,-2.016 0.36,-1.512 0.648,-4.464 0.36,-2.952 0.648,-7.704 z m -14.184,1.656 h 5.976 q -0.504,5.184 -1.944,9.216 -1.368,4.032 -4.536,7.056 -3.168,2.952 -8.928,4.896004 -0.36,-0.792004 -0.936,-1.728004 -0.576,-0.936 -1.296,-1.8 -0.72,-0.936 -1.368,-1.44 5.04,-1.512 7.632,-3.744 2.664,-2.304 3.816,-5.4 1.152,-3.096 1.584,-7.056 z m -26.28,33.840004 v 3.96 h 34.128 v -3.96 z m 0,8.136 v 4.104 h 34.128 v -4.104 z m 0,-16.2 v 3.96 h 34.128 v -3.96 z m -6.552,-4.32 h 47.52 v 28.872 h -47.52 z m 30.24,33.048 4.176,-3.744 q 3.816,1.008 7.632,2.304 3.816,1.296 7.2,2.592 3.456,1.296 5.976,2.304 l -5.544,3.96 q -2.232,-1.08 -5.4,-2.376 -3.096,-1.224 -6.696,-2.592 -3.6,-1.296 -7.344,-2.448 z m -18.144,-3.456 6.12,2.808 q -2.952,1.584 -6.84,3.168 -3.816,1.584 -7.92,2.88 -4.032,1.296 -7.704,2.232 -0.504,-0.72 -1.44,-1.656 -0.864,-0.936 -1.8,-1.872 -0.936,-0.864 -1.656,-1.44 3.744,-0.72 7.704,-1.656 3.96,-0.936 7.488,-2.016 3.528,-1.152 6.048,-2.448 z m -15.552,-29.592 q -0.216,-0.72 -0.72,-1.656004 -0.432,-0.936 -1.008,-1.8 -0.576,-0.936 -1.08,-1.512 0.936,-0.504 1.872,-1.656 0.936,-1.152 0.936,-3.456 v -12.312 h 6.552 v 16.632 q 0,0 -0.648,0.432 -0.648,0.36 -1.656,1.008 -0.936,0.576 -1.944,1.368 -1.008,0.792 -1.656,1.584 -0.648,0.720004 -0.648,1.368004 z m 0,0 -0.504,-5.112004 2.736,-2.088 17.136,-4.248 q 0.072,1.224 0.216,2.808 0.144,1.512 0.288,2.448 -5.976,1.656 -9.648,2.736 -3.672,1.008 -5.688,1.656 -2.016,0.648 -3.024,1.080004 -0.936,0.36 -1.512,0.72 z"
             id="path10" />
        </g>
        <path
           style="font-size:7.32669px;line-height:1.25;font-family:'AR UDJingXiHeiE1G30 EB';-inkscape-font-specification:'AR UDJingXiHeiE1G30 EB';stroke-width:0.261667"
           d="m 41.520258,36.314564 h -1.648505 v -0.725342 h 4.220173 v 0.725342 h -1.641178 v 4.571855 h -0.93049 z m 6.095805,2.432461 -0.835243,-2.263947 -0.849896,2.263947 z m -1.956226,0.725343 -0.527522,1.414051 h -0.945143 l 2.132067,-5.297197 h 0.95247 l 2.117413,5.297197 H 48.421999 L 47.88715,39.472368 Z m 5.267883,-3.883146 v 5.297197 h -0.930489 v -5.297197 z m 2.146715,3.194437 v 2.10276 h -0.930489 v -5.297197 h 2.491074 q 0.77663,0 1.216231,0.424948 0.439601,0.424948 0.439601,1.12831 0,0.791283 -0.454254,1.216231 -0.446928,0.424948 -1.208904,0.424948 z m 2.271274,-1.626526 q 0,-0.410294 -0.234454,-0.622768 -0.234454,-0.219801 -0.688709,-0.219801 h -1.348111 v 1.743752 h 1.348111 q 0.454255,0 0.688709,-0.2198 0.234454,-0.227128 0.234454,-0.681383 z m 5.758777,3.729286 h -3.919779 v -5.297197 h 3.897799 v 0.725342 h -2.96731 v 1.494645 h 2.769489 v 0.725342 h -2.769489 v 1.626525 h 2.98929 z m 1.91227,-5.297197 v 5.297197 h -0.930489 v -5.297197 z m 4.366696,1.10633 -0.857223,0.798609 -0.424948,-0.652075 1.377418,-1.252864 h 0.798609 v 5.297197 h -0.893856 z m 6.535402,1.582565 q 0,1.384744 -0.446928,2.044147 -0.446928,0.659402 -1.384745,0.659402 -0.908509,0 -1.377417,-0.659402 -0.468909,-0.659403 -0.468909,-2.044147 0,-1.479991 0.446929,-2.12474 0.446928,-0.652076 1.399397,-0.652076 0.93049,0 1.377418,0.652076 0.454255,0.644749 0.454255,2.12474 z m -1.831673,1.978206 q 0.468909,0 0.688709,-0.461581 0.219801,-0.468908 0.219801,-1.516625 0,-1.12831 -0.212474,-1.589892 -0.205147,-0.461581 -0.696036,-0.461581 -0.490888,0 -0.703362,0.468908 -0.212474,0.461581 -0.212474,1.582565 0,1.04039 0.219801,1.509298 0.2198,0.468908 0.696035,0.468908 z m 4.015021,-3.560771 -0.857223,0.798609 -0.424948,-0.652075 1.377418,-1.252864 h 0.798609 v 5.297197 h -0.893856 z m 5.568279,-1.10633 -2.14672,5.297197 h -0.849897 l 2.146721,-5.297197 z m 3.480181,1.230884 -1.069697,4.066313 h -0.959796 l -1.362764,-5.297197 h 0.989103 l 0.886529,4.015026 1.033064,-4.015026 h 0.981776 l 1.01841,4.015026 0.937816,-4.015026 H 88.5649 l -1.399398,5.297197 h -0.959796 z m 9.143707,1.443358 q 0,1.274844 -0.710689,2.000186 -0.703362,0.718016 -1.92692,0.718016 -1.245537,0 -1.948899,-0.725343 -0.703362,-0.725342 -0.703362,-1.992859 0,-1.289498 0.710689,-2.022167 0.710688,-0.739996 1.941572,-0.739996 1.245538,0 1.941573,0.732669 0.696036,0.732669 0.696036,2.029494 z m -2.637609,1.992859 q 0.79861,0 1.230884,-0.527521 0.439602,-0.527522 0.439602,-1.465338 0,-0.93049 -0.439602,-1.479992 -0.439601,-0.556828 -1.230884,-0.556828 -0.805935,0 -1.252864,0.564155 -0.439601,0.556828 -0.439601,1.472665 0,0.937816 0.446928,1.465338 0.446928,0.527521 1.245537,0.527521 z m 6.967684,-3.150476 q 0,-0.388315 -0.205147,-0.586136 -0.205148,-0.205147 -0.593462,-0.205147 h -1.589892 v 1.648505 h 1.538605 q 0.380988,0 0.615442,-0.227127 0.234454,-0.227127 0.234454,-0.630095 z m -2.388501,1.575238 v 2.205334 h -0.93049 v -5.297197 h 2.696222 q 0.725343,0 1.150291,0.388314 0.432274,0.380988 0.432274,1.08435 0,0.461582 -0.2198,0.791283 -0.212474,0.329701 -0.534849,0.468908 0.410295,0.234454 0.630096,0.813263 0.2198,0.578808 0.278414,1.751079 h -0.967123 q -0.04396,-1.230884 -0.271088,-1.714446 -0.2198,-0.490888 -0.710689,-0.490888 z m 8.147287,2.205334 h -3.72196 v -5.297197 h 0.93049 v 4.571854 h 2.79147 z m 5.28255,-2.710876 q 0,1.318805 -0.62277,2.01484 -0.61544,0.696036 -1.72177,0.696036 h -2.1687 v -5.297197 h 2.1687 q 1.10633,0 1.72177,0.652075 0.62277,0.652076 0.62277,1.934246 z m -0.96712,0 q 0,-0.959796 -0.39565,-1.406724 -0.38831,-0.454255 -1.13563,-0.454255 h -1.08435 v 3.846512 h 1.09167 q 0.71802,0 1.12099,-0.476234 0.40297,-0.476235 0.40297,-1.509299 z m 5.03342,-1.860979 h -1.6485 v -0.725342 h 4.22017 v 0.725342 h -1.64118 v 4.571855 h -0.93049 z m 6.59402,0.791283 q 0,-0.388315 -0.20514,-0.586136 -0.20515,-0.205147 -0.59347,-0.205147 h -1.58989 v 1.648505 h 1.53861 q 0.38099,0 0.61544,-0.227127 0.23445,-0.227127 0.23445,-0.630095 z m -2.3885,1.575238 v 2.205334 h -0.93049 v -5.297197 h 2.69623 q 0.72534,0 1.15029,0.388314 0.43227,0.380988 0.43227,1.08435 0,0.461582 -0.2198,0.791283 -0.21247,0.329701 -0.53485,0.468908 0.4103,0.234454 0.6301,0.813263 0.2198,0.578808 0.27841,1.751079 h -0.96712 q -0.044,-1.230884 -0.27109,-1.714446 -0.2198,-0.490888 -0.71069,-0.490888 z m 7.2461,0.06594 -0.83524,-2.263947 -0.8499,2.263947 z m -1.95622,0.725343 -0.52753,1.414051 h -0.94514 l 2.13207,-5.297197 h 0.95247 l 2.11741,5.297197 h -0.96712 l -0.53485,-1.414051 z m 8.85063,-1.296825 q 0,1.318805 -0.62277,2.01484 -0.61544,0.696036 -1.72177,0.696036 h -2.1687 v -5.297197 h 2.1687 q 1.10633,0 1.72177,0.652075 0.62277,0.652076 0.62277,1.934246 z m -0.96712,0 q 0,-0.959796 -0.39565,-1.406724 -0.38831,-0.454255 -1.13563,-0.454255 h -1.08435 v 3.846512 h 1.09167 q 0.71802,0 1.12099,-0.476234 0.40297,-0.476235 0.40297,-1.509299 z m 5.9053,2.710876 h -3.91978 v -5.297197 h 3.8978 v 0.725342 H 134.027 v 1.494645 h 2.76949 v 0.725342 H 134.027 v 1.626525 h 2.98929 z m 6.66729,-1.846326 h 0.93049 q -0.0366,0.871876 -0.60812,1.406724 -0.57148,0.534849 -1.65583,0.534849 -1.28217,0 -1.96355,-0.725343 -0.67406,-0.725342 -0.67406,-2.014839 0,-1.274845 0.67406,-2.007514 0.68138,-0.732669 1.9489,-0.732669 1.01841,0 1.58256,0.468909 0.56416,0.461581 0.64475,1.201577 h -0.93049 q -0.0586,-0.424948 -0.38831,-0.681382 -0.3297,-0.263761 -0.93049,-0.263761 -0.74,0 -1.18693,0.498215 -0.44693,0.498215 -0.44693,1.516625 0,1.033063 0.44693,1.523951 0.45426,0.490888 1.20158,0.490888 0.63742,0 0.98178,-0.329701 0.34435,-0.337027 0.37366,-0.886529 z m 5.75878,1.846326 h -3.91978 v -5.297197 h 3.8978 v 0.725342 h -2.96731 v 1.494645 h 2.76949 v 0.725342 h -2.76949 v 1.626525 h 2.98929 z m 1.91227,-3.824533 v 3.824533 h -0.93049 v -5.297197 h 0.95979 l 2.60098,3.912452 v -3.912452 h 0.93049 v 5.297197 h -1.01841 z m 5.90531,-0.747322 h -1.64851 v -0.725342 h 4.22017 v 0.725342 h -1.64117 v 4.571855 h -0.93049 z m 7.1948,4.571855 h -3.91978 v -5.297197 h 3.8978 v 0.725342 h -2.96731 v 1.494645 h 2.76949 v 0.725342 h -2.76949 v 1.626525 h 2.98929 z m 4.30077,-3.780572 q 0,-0.388315 -0.20515,-0.586136 -0.20515,-0.205147 -0.59346,-0.205147 h -1.58989 v 1.648505 h 1.5386 q 0.38099,0 0.61545,-0.227127 0.23445,-0.227127 0.23445,-0.630095 z m -2.3885,1.575238 v 2.205334 h -0.93049 v -5.297197 h 2.69622 q 0.72534,0 1.15029,0.388314 0.43228,0.380988 0.43228,1.08435 0,0.461582 -0.2198,0.791283 -0.21248,0.329701 -0.53485,0.468908 0.41029,0.234454 0.63009,0.813263 0.2198,0.578808 0.27842,1.751079 h -0.96713 q -0.044,-1.230884 -0.27108,-1.714446 -0.21981,-0.490888 -0.71069,-0.490888 z"
           id="text5"
           aria-label="TAIPEI 101/WORLD TRADE CENTER" />
        <g
           id="text5-9"
           style="font-weight:500;font-size:7.32669px;line-height:1.25;font-family:'Noto Sans JP';-inkscape-font-specification:'Noto Sans JP Medium';stroke-width:0.261667"
           aria-label="台北101 / 世界貿易センター">
          <path
             d="m 41.251565,49.227442 h 4.080966 v 0.666729 h -4.080966 z m -0.315048,-2.198007 h 4.769676 v 3.16513 H 44.966197 V 47.688837 H 41.63988 v 2.520382 h -0.703363 z m 1.450685,-3.663345 0.783956,0.263761 q -0.227128,0.439601 -0.505542,0.901183 -0.271087,0.461581 -0.542175,0.879203 -0.271087,0.417621 -0.520195,0.739995 l -0.615442,-0.256434 q 0.241781,-0.329701 0.498215,-0.761976 0.263761,-0.439601 0.498215,-0.901183 0.241781,-0.461581 0.402968,-0.864549 z m 1.765732,1.238211 0.542175,-0.402968 q 0.373662,0.300394 0.754649,0.666729 0.388315,0.359007 0.718016,0.725342 0.329701,0.366334 0.520195,0.681382 l -0.600789,0.461582 q -0.17584,-0.307721 -0.490888,-0.681383 -0.315047,-0.380988 -0.696035,-0.754649 -0.373662,-0.380988 -0.747323,-0.696035 z m -4.051659,0.974449 q 0.542175,-0.01465 1.21623,-0.03663 0.674056,-0.02198 1.428705,-0.05129 0.761976,-0.02931 1.545931,-0.05861 0.791283,-0.03663 1.560585,-0.07327 l -0.02931,0.666729 q -0.769303,0.04396 -1.553259,0.08059 -0.776629,0.03663 -1.523951,0.07327 -0.739996,0.02931 -1.406725,0.05861 -0.659402,0.02198 -1.186924,0.04396 z m 7.32669,-0.366334 h 2.161373 v 0.696036 h -2.161373 z m 3.626711,-1.670485 h 0.725343 v 5.370464 q 0,0.293067 0.05861,0.380987 0.06594,0.08059 0.285741,0.08059 0.05129,0 0.175841,0 0.13188,0 0.285741,0 0.15386,0 0.285741,0 0.13188,0 0.190494,0 0.161187,0 0.24178,-0.124554 0.08059,-0.13188 0.117227,-0.461581 0.03663,-0.329701 0.05861,-0.923163 0.08792,0.06594 0.205147,0.13188 0.117227,0.06594 0.241781,0.117227 0.124554,0.04396 0.219801,0.06594 -0.03663,0.681383 -0.131881,1.099004 -0.08792,0.410295 -0.293067,0.593462 -0.205148,0.183167 -0.593462,0.183167 -0.05861,0 -0.212474,0 -0.153861,0 -0.337028,0 -0.183167,0 -0.337028,0 -0.146534,0 -0.205147,0 -0.380988,0 -0.593462,-0.102573 -0.212474,-0.102574 -0.300394,-0.359008 -0.08792,-0.249108 -0.08792,-0.696036 z m -1.809692,-0.0073 H 49.963 v 6.608674 h -0.718016 z m 4.212847,1.113657 0.505541,0.615442 q -0.351681,0.263761 -0.769302,0.520195 -0.417621,0.256434 -0.857223,0.505541 -0.432275,0.249108 -0.849896,0.468909 -0.03663,-0.117227 -0.124554,-0.278415 -0.08059,-0.161187 -0.15386,-0.26376 0.402968,-0.219801 0.813263,-0.483562 0.410294,-0.271088 0.783955,-0.549502 0.373662,-0.285741 0.652076,-0.534848 z m -6.271647,3.934432 q 0.300394,-0.09525 0.688709,-0.234454 0.388314,-0.139207 0.820589,-0.300394 0.439602,-0.161187 0.879203,-0.329701 l 0.13188,0.630095 q -0.564155,0.249108 -1.15029,0.498215 -0.578808,0.241781 -1.055043,0.439602 z"
             id="path11" />
          <path
             style="font-weight:normal;font-family:'AR UDJingXiHeiE1G30 EB';-inkscape-font-specification:'AR UDJingXiHeiE1G30 EB'"
             d="m 56.146726,45.395583 -0.857223,0.798609 -0.424948,-0.652075 1.377418,-1.252864 h 0.798609 v 5.297197 h -0.893856 z m 6.535403,1.582565 q 0,1.384745 -0.446928,2.044147 -0.446928,0.659402 -1.384745,0.659402 -0.908509,0 -1.377417,-0.659402 -0.468908,-0.659402 -0.468908,-2.044147 0,-1.479991 0.446928,-2.12474 0.446928,-0.652075 1.399397,-0.652075 0.93049,0 1.377418,0.652075 0.454255,0.644749 0.454255,2.12474 z m -1.831673,1.978207 q 0.468909,0 0.688709,-0.461582 0.219801,-0.468908 0.219801,-1.516625 0,-1.12831 -0.212474,-1.589891 -0.205147,-0.461582 -0.696036,-0.461582 -0.490888,0 -0.703362,0.468908 -0.212474,0.461582 -0.212474,1.582565 0,1.04039 0.219801,1.509298 0.219801,0.468909 0.696035,0.468909 z m 4.015021,-3.560772 -0.857223,0.798609 -0.424948,-0.652075 1.377418,-1.252864 h 0.798609 v 5.297197 h -0.893856 z m 7.487865,-1.10633 -2.14672,5.297197 h -0.849896 l 2.14672,-5.297197 z"
             id="path12" />
          <path
             d="m 74.639266,45.212416 h 6.718575 v 0.674055 h -6.718575 z m 1.436032,3.817206 h 5.033436 v 0.674055 h -5.033436 z m 1.860979,-1.773059 h 1.904939 v 0.644748 H 77.936277 Z M 75.71629,43.615198 h 0.710689 v 6.594021 H 75.71629 Z m 1.919593,-0.153861 h 0.696035 v 4.777002 h -0.696035 z m 1.904939,0.07327 h 0.696036 v 4.674428 h -0.696036 z m 3.912453,1.890286 v 0.681382 h 3.721959 V 45.42489 Z m 0,-1.201577 v 0.666729 h 3.721959 v -0.666729 z m -0.688709,-0.571482 h 5.128683 v 3.025923 h -5.128683 z m 3.443545,2.644935 q 0.256434,0.344355 0.644748,0.644749 0.395642,0.300394 0.879203,0.527522 0.490889,0.227127 1.003757,0.351681 -0.07327,0.07327 -0.168514,0.183167 -0.08792,0.102574 -0.168514,0.212474 -0.07327,0.1099 -0.13188,0.197821 -0.527522,-0.168514 -1.025737,-0.446929 -0.498215,-0.28574 -0.915836,-0.652075 -0.410295,-0.366334 -0.703362,-0.798609 z m -1.765733,0 0.608116,0.241781 q -0.293068,0.417621 -0.718016,0.783956 -0.424948,0.366334 -0.923163,0.652075 -0.490888,0.285741 -1.003756,0.468908 -0.05129,-0.08792 -0.131881,-0.190494 -0.08059,-0.1099 -0.168514,-0.212474 -0.08792,-0.102573 -0.161187,-0.168513 0.490888,-0.139208 0.967123,-0.380988 0.483562,-0.241781 0.879203,-0.542175 0.402968,-0.307721 0.652075,-0.652076 z m -0.564155,1.318804 h 0.710689 v 0.468909 q 0,0.26376 -0.05861,0.556828 -0.05861,0.293068 -0.227128,0.586135 -0.161187,0.285741 -0.483561,0.549502 -0.322375,0.271087 -0.871876,0.476235 -0.03663,-0.08792 -0.124554,-0.190494 -0.08792,-0.102574 -0.183167,-0.205147 -0.08792,-0.09525 -0.161188,-0.161188 0.468909,-0.168514 0.747323,-0.366334 0.285741,-0.205147 0.424948,-0.417621 0.139207,-0.219801 0.183167,-0.439602 0.04396,-0.219801 0.04396,-0.410295 z m 1.077024,-3.670671 h 0.703362 v 2.454441 h -0.703362 z m 1.208904,3.677998 h 0.718015 v 2.564342 h -0.718015 z m 5.758779,-4.190867 0.461581,0.446928 q -0.300394,0.109901 -0.674055,0.205148 -0.366335,0.08792 -0.747323,0.161187 -0.380988,0.06594 -0.739996,0.117227 -0.02198,-0.09525 -0.07327,-0.234454 -0.05129,-0.139207 -0.109901,-0.234454 0.337028,-0.05129 0.681382,-0.124554 0.351681,-0.07327 0.666729,-0.161187 0.315048,-0.08792 0.534849,-0.175841 z m -2.051474,0.285741 0.82059,0.234454 q -0.02198,0.07327 -0.161188,0.09525 l 0.07327,1.494645 h -0.644748 z m -0.512868,1.626525 q 0.512868,-0.08059 1.216231,-0.212474 0.703362,-0.13188 1.428704,-0.271087 l 0.04396,0.549502 q -0.688709,0.139207 -1.370091,0.278414 -0.681382,0.139207 -1.223557,0.249107 z m 1.795039,-0.864549 0.527522,-0.190494 q 0.17584,0.183167 0.344354,0.410295 0.175841,0.2198 0.322375,0.439601 0.146533,0.219801 0.227127,0.402968 l -0.556828,0.212474 Q 91.94491,45.57875 91.805703,45.35895 91.666495,45.131822 91.497982,44.904695 91.329468,44.677568 91.153627,44.479747 Z m 1.458011,-0.747322 h 2.644936 V 44.2746 h -2.644936 z m 2.439788,0 h 0.652076 q 0,0 0,0.09525 0,0.08792 -0.01465,0.15386 -0.02931,0.498215 -0.07327,0.827916 -0.04396,0.322374 -0.102573,0.512868 -0.05129,0.190494 -0.131881,0.278415 -0.08792,0.09525 -0.19782,0.139207 -0.102574,0.04396 -0.241781,0.05861 -0.124554,0.01465 -0.337028,0.02198 -0.212474,0 -0.446928,-0.01465 -0.0073,-0.139207 -0.05129,-0.300394 -0.04396,-0.161188 -0.117227,-0.278415 0.212474,0.02198 0.380988,0.02931 0.175841,0 0.249108,0 0.08059,0 0.124553,-0.0073 0.05129,-0.01465 0.08792,-0.05861 0.08059,-0.07327 0.13188,-0.380988 0.05129,-0.307721 0.08792,-0.99643 z m -1.443358,0.168513 h 0.608116 q -0.05129,0.512869 -0.197821,0.90851 -0.146534,0.395641 -0.468908,0.688709 -0.322375,0.285741 -0.901183,0.476235 -0.02931,-0.08059 -0.09525,-0.168514 -0.05861,-0.09525 -0.131881,-0.183167 -0.06594,-0.09525 -0.13188,-0.153861 0.498215,-0.146534 0.769303,-0.359008 0.271087,-0.2198 0.388314,-0.520195 0.117227,-0.300394 0.161187,-0.688709 z m -2.666915,3.406911 v 0.417622 h 3.472851 v -0.417622 z m 0,0.835243 v 0.424948 h 3.472851 v -0.424948 z m 0,-1.670485 v 0.410294 h 3.472851 v -0.410294 z m -0.666729,-0.439602 h 4.835616 v 2.974636 h -4.835616 z m 2.894043,3.355624 0.571482,-0.344354 q 0.395641,0.13188 0.805936,0.285741 0.410294,0.146534 0.776629,0.293067 0.366334,0.146534 0.630095,0.278415 l -0.791282,0.329701 Q 94.941526,50.106645 94.619152,49.960111 94.304104,49.820904 93.930443,49.667044 93.556781,49.52051 93.168467,49.388629 Z m -1.685139,-0.366334 0.637422,0.293067 q -0.300394,0.175841 -0.688709,0.351682 -0.388314,0.17584 -0.805936,0.315047 -0.410294,0.146534 -0.783955,0.256434 -0.05129,-0.07327 -0.146534,-0.17584 -0.08792,-0.09525 -0.190494,-0.190494 -0.09525,-0.09525 -0.175841,-0.153861 0.380988,-0.07327 0.776629,-0.17584 0.402968,-0.1099 0.761976,-0.241781 0.359008,-0.13188 0.615442,-0.278414 z m 6.828476,-3.582752 v 0.615442 h 3.384926 v -0.615442 z m 0,-1.135637 v 0.600789 h 3.384926 v -0.600789 z m -0.681382,-0.564155 h 4.776998 v 2.879389 h -4.776998 z m 0.432274,3.428891 h 4.344724 v 0.608116 h -4.344724 z m 4.176214,0 h 0.70336 q 0,0 -0.007,0.05129 0,0.05129 -0.007,0.124554 0,0.06594 -0.007,0.1099 -0.0733,0.813263 -0.15386,1.326131 -0.0806,0.512868 -0.17584,0.791283 -0.0879,0.278414 -0.20515,0.402968 -0.1099,0.124553 -0.24178,0.168513 -0.13188,0.05129 -0.30039,0.06594 -0.14654,0.01465 -0.39564,0.01465 -0.24178,0 -0.5202,-0.01465 -0.007,-0.131881 -0.0586,-0.300395 -0.044,-0.168513 -0.12455,-0.293067 0.25643,0.02198 0.47623,0.02931 0.2198,0.0073 0.31505,0.0073 0.0952,0 0.15386,-0.02198 0.0586,-0.01465 0.1099,-0.06594 0.0879,-0.08792 0.16119,-0.337028 0.0806,-0.249107 0.14653,-0.725342 0.0733,-0.476235 0.13188,-1.230884 z m -3.670672,-0.849896 0.666729,0.212474 q -0.263761,0.439602 -0.622769,0.849896 -0.351681,0.402968 -0.747322,0.739996 -0.395641,0.337028 -0.798609,0.593462 -0.05129,-0.06594 -0.153861,-0.161187 -0.09525,-0.09525 -0.197821,-0.183168 -0.09525,-0.09525 -0.183167,-0.146533 0.608115,-0.329701 1.150291,-0.827916 0.549501,-0.505542 0.886529,-1.077024 z m 0.761976,1.047717 0.659402,0.205147 q -0.271088,0.512869 -0.644749,0.97445 -0.373661,0.454255 -0.805936,0.842569 -0.424948,0.380988 -0.871876,0.666729 -0.05129,-0.06594 -0.15386,-0.161187 -0.09525,-0.09525 -0.197821,-0.190494 -0.09525,-0.08792 -0.175841,-0.146534 0.681383,-0.366334 1.260191,-0.937816 0.586135,-0.578809 0.93049,-1.252864 z m 1.509296,0.04396 0.6594,0.161187 q -0.28574,0.827916 -0.76197,1.523952 -0.46891,0.696035 -1.025738,1.157617 -0.05129,-0.05861 -0.153861,-0.139207 -0.102573,-0.08059 -0.212474,-0.161187 -0.102573,-0.08059 -0.17584,-0.124554 0.556828,-0.410295 0.989103,-1.04039 0.43227,-0.637422 0.68138,-1.377418 z m 4.95284,1.223557 q 0,-0.15386 0,-0.454255 0,-0.30772 0,-0.681382 0,-0.380988 0,-0.791282 0,-0.417622 0,-0.813263 0,-0.402968 0,-0.732669 0,-0.329701 0,-0.534848 0,-0.117227 -0.007,-0.249108 0,-0.13188 -0.0147,-0.263761 -0.007,-0.13188 -0.0293,-0.234454 h 0.87188 q -0.0293,0.161188 -0.044,0.366335 -0.0147,0.205147 -0.0147,0.380988 0,0.205147 0,0.512868 0,0.300394 0,0.666729 0,0.366334 0,0.747322 0,0.380988 0,0.739996 0,0.359008 0,0.659402 0,0.293068 0,0.483562 0,0.24178 0.0733,0.388314 0.0733,0.139207 0.29307,0.197821 0.2198,0.05861 0.63742,0.05861 0.4103,0 0.79861,-0.02198 0.38832,-0.02931 0.76198,-0.08059 0.37366,-0.05129 0.73999,-0.124554 l -0.0293,0.791283 q -0.31505,0.04396 -0.68138,0.08059 -0.36634,0.03663 -0.77663,0.05129 -0.40297,0.02198 -0.82792,0.02198 -0.56415,0 -0.90851,-0.07327 -0.34435,-0.07327 -0.52752,-0.212474 -0.18317,-0.146534 -0.24911,-0.366334 -0.0659,-0.219801 -0.0659,-0.512869 z m 4.41067,-3.245723 q -0.0366,0.06594 -0.10257,0.161187 -0.0586,0.09525 -0.10258,0.17584 -0.12455,0.227128 -0.30039,0.512869 -0.16852,0.278414 -0.36634,0.571481 -0.19782,0.293068 -0.41762,0.564156 -0.21247,0.271087 -0.42495,0.483561 l -0.63742,-0.373661 q 0.26376,-0.241781 0.50554,-0.542175 0.24911,-0.300394 0.4396,-0.593462 0.19782,-0.293068 0.3004,-0.498215 -0.0659,0.01465 -0.32238,0.06594 -0.2491,0.05129 -0.63009,0.131881 -0.38099,0.07327 -0.83524,0.168514 -0.45426,0.08792 -0.92317,0.183167 -0.46891,0.09525 -0.90118,0.183167 -0.43227,0.08059 -0.77663,0.153861 -0.34435,0.07327 -0.53485,0.117227 l -0.1392,-0.769303 q 0.20514,-0.02198 0.5495,-0.07327 0.35168,-0.05861 0.78395,-0.139207 0.4396,-0.08059 0.91584,-0.168514 0.47623,-0.09525 0.93782,-0.183167 0.46158,-0.09525 0.86455,-0.175841 0.41029,-0.08059 0.70336,-0.139207 0.29307,-0.06594 0.41762,-0.09525 0.13921,-0.02931 0.24911,-0.06594 0.11722,-0.03663 0.19782,-0.08792 z m 2.46177,-1.252864 q 0.19782,0.13188 0.45425,0.329701 0.25644,0.190494 0.5202,0.410294 0.27108,0.219801 0.51287,0.424948 0.24178,0.205148 0.38831,0.366335 l -0.57881,0.593462 q -0.13921,-0.146534 -0.36633,-0.351681 -0.22713,-0.212474 -0.49089,-0.432275 -0.25644,-0.227128 -0.51287,-0.424948 -0.25643,-0.205148 -0.46158,-0.344355 z m -0.75465,4.901555 q 0.61544,-0.09525 1.13564,-0.249107 0.52019,-0.161187 0.95246,-0.359008 0.43961,-0.205147 0.79129,-0.417621 0.58613,-0.359008 1.07702,-0.827916 0.49822,-0.468909 0.87188,-0.967123 0.37366,-0.498215 0.59346,-0.967124 l 0.44693,0.79861 q -0.26376,0.476235 -0.65208,0.952469 -0.38099,0.476235 -0.86455,0.915837 -0.48356,0.432274 -1.05504,0.783955 -0.36634,0.227128 -0.80594,0.439602 -0.43227,0.212474 -0.93781,0.380988 -0.49822,0.168514 -1.06237,0.271087 z m 9.45876,-2.835429 q 0.34435,0.205147 0.73999,0.461582 0.39564,0.249107 0.79128,0.527521 0.39565,0.271088 0.74733,0.527522 0.359,0.256434 0.61544,0.476235 l -0.54218,0.644749 q -0.2491,-0.227128 -0.60079,-0.505542 -0.34435,-0.278414 -0.74732,-0.571482 -0.39564,-0.293067 -0.79128,-0.556828 -0.38832,-0.271088 -0.71802,-0.483562 z m 3.39225,-1.296824 q -0.0513,0.08792 -0.1099,0.219801 -0.0513,0.124553 -0.0879,0.234454 -0.1099,0.351681 -0.30039,0.776629 -0.18317,0.424948 -0.44693,0.864549 -0.25643,0.432275 -0.57881,0.835243 -0.50554,0.622769 -1.24554,1.194251 -0.73266,0.564155 -1.77305,0.959796 l -0.66673,-0.586135 q 0.71801,-0.219801 1.27484,-0.534849 0.56416,-0.315047 0.99643,-0.681382 0.43228,-0.373661 0.75465,-0.754649 0.27109,-0.322374 0.49821,-0.703362 0.23446,-0.380988 0.40297,-0.761976 0.17584,-0.380988 0.24911,-0.688709 h -2.61563 l 0.27842,-0.659402 h 2.22731 q 0.15386,0 0.30039,-0.02198 0.14654,-0.02198 0.24911,-0.05861 z m -2.44711,-1.08435 q -0.1099,0.161187 -0.2198,0.351681 -0.10258,0.190494 -0.16119,0.300394 -0.23445,0.410295 -0.60079,0.901183 -0.35901,0.490888 -0.82791,0.967123 -0.46891,0.468908 -1.02574,0.857223 l -0.62277,-0.483562 q 0.63742,-0.395641 1.09168,-0.849896 0.46158,-0.454254 0.7693,-0.886529 0.30772,-0.432275 0.48356,-0.761976 0.0659,-0.1099 0.14654,-0.300394 0.0879,-0.197821 0.13188,-0.359008 z m 4.0077,2.505728 q 0.12455,0.0073 0.30039,0.02198 0.18317,0.0073 0.38832,0.01465 0.21247,0.0073 0.40297,0.0073 0.14653,0 0.40296,0 0.25644,0 0.57881,0 0.3297,0 0.68871,0 0.35901,0 0.71069,0 0.35901,0 0.67406,0 0.31504,0 0.55682,0 0.24178,0 0.37366,0 0.26377,0 0.47624,-0.01465 0.21247,-0.02198 0.34435,-0.02931 v 0.908509 q -0.12455,-0.0073 -0.35168,-0.02198 -0.22712,-0.01465 -0.46891,-0.01465 -0.12455,0 -0.37366,0 -0.24178,0 -0.55682,0 -0.31505,0 -0.67406,0 -0.35168,0 -0.71069,0 -0.35901,0 -0.68871,0 -0.32237,0 -0.57881,0 -0.25643,0 -0.40296,0 -0.3004,0 -0.60079,0.01465 -0.3004,0.0073 -0.49089,0.02198 z"
             id="path13" />
        </g>
        <g
           id="text5-9-8"
           style="font-weight:500;font-size:7.32669px;line-height:1.25;font-family:'Noto Sans JP';-inkscape-font-specification:'Noto Sans JP Medium';stroke-width:0.261667"
           aria-label="타이베이101/세계무역센터">
          <path
             style="font-family:'Noto Sans KR';-inkscape-font-specification:'Noto Sans KR Medium'"
             d="m 142.36683,48.090761 h 0.53485 q 0.59346,0 1.099,-0.01465 0.50554,-0.01465 0.97445,-0.05129 0.47624,-0.04396 0.97445,-0.124554 l 0.0733,0.615442 q -0.50554,0.08059 -0.99643,0.13188 -0.48356,0.04396 -1.00376,0.05861 -0.51287,0.0073 -1.12098,0.0073 h -0.53485 z m 0,-3.919779 h 3.1285 v 0.630095 h -2.36652 v 3.502158 h -0.76198 z m 0.57881,1.875632 h 2.42513 v 0.608116 h -2.42513 z m 3.56077,-2.454441 h 0.7693 v 6.696595 h -0.7693 z m 0.60079,2.622955 h 1.2089 v 0.637422 h -1.2089 z m 6.46214,-2.630282 h 0.7693 v 6.711249 h -0.7693 z m -2.79147,0.490889 q 0.49822,0 0.88653,0.293067 0.39564,0.293068 0.61544,0.82059 0.2198,0.527521 0.2198,1.245537 0,0.725342 -0.2198,1.260191 -0.2198,0.527521 -0.61544,0.820589 -0.38831,0.285741 -0.88653,0.285741 -0.49821,0 -0.89385,-0.285741 -0.38832,-0.293068 -0.61545,-0.820589 -0.2198,-0.534849 -0.2198,-1.260191 0,-0.718016 0.2198,-1.245537 0.22713,-0.527522 0.61545,-0.82059 0.39564,-0.293067 0.89385,-0.293067 z m 0,0.696035 q -0.29307,0 -0.52019,0.197821 -0.2198,0.19782 -0.34436,0.571482 -0.12455,0.373661 -0.12455,0.893856 0,0.527522 0.12455,0.901183 0.12456,0.373661 0.34436,0.578808 0.22712,0.197821 0.52019,0.197821 0.29307,0 0.51287,-0.197821 0.2198,-0.205147 0.34435,-0.578808 0.12456,-0.373661 0.12456,-0.901183 0,-0.520195 -0.12456,-0.893856 -0.12455,-0.373662 -0.34435,-0.571482 -0.2198,-0.197821 -0.51287,-0.197821 z m 5.01146,-0.542175 h 0.72534 v 1.582565 h 1.16494 v -1.582565 h 0.71069 v 4.417994 h -2.60097 z m 0.72534,2.198007 v 1.597219 h 1.16494 v -1.597219 z m 4.03701,-2.842756 h 0.73267 v 6.696595 h -0.73267 z m -2.28593,2.505728 h 1.2089 v 0.622769 h -1.2089 z m 0.94514,-2.373847 h 0.71802 v 6.249667 h -0.71802 z m 7.83956,-0.131881 h 0.76931 v 6.711249 h -0.76931 z m -2.79147,0.490889 q 0.49822,0 0.88653,0.293067 0.39564,0.293068 0.61545,0.82059 0.2198,0.527521 0.2198,1.245537 0,0.725342 -0.2198,1.260191 -0.21981,0.527521 -0.61545,0.820589 -0.38831,0.285741 -0.88653,0.285741 -0.49821,0 -0.89385,-0.285741 -0.38832,-0.293068 -0.61544,-0.820589 -0.2198,-0.534849 -0.2198,-1.260191 0,-0.718016 0.2198,-1.245537 0.22712,-0.527522 0.61544,-0.82059 0.39564,-0.293067 0.89385,-0.293067 z m 0,0.696035 q -0.29306,0 -0.52019,0.197821 -0.2198,0.19782 -0.34436,0.571482 -0.12455,0.373661 -0.12455,0.893856 0,0.527522 0.12455,0.901183 0.12456,0.373661 0.34436,0.578808 0.22713,0.197821 0.52019,0.197821 0.29307,0 0.51287,-0.197821 0.2198,-0.205147 0.34436,-0.578808 0.12455,-0.373661 0.12455,-0.901183 0,-0.520195 -0.12455,-0.893856 -0.12456,-0.373662 -0.34436,-0.571482 -0.2198,-0.197821 -0.51287,-0.197821 z"
             id="path14" />
          <path
             style="font-weight:normal;font-family:'AR UDJingXiHeiE1G30 EB';-inkscape-font-specification:'AR UDJingXiHeiE1G30 EB'"
             d="m 170.55261,45.482459 -0.85722,0.798609 -0.42495,-0.652075 1.37742,-1.252864 h 0.79861 v 5.297197 h -0.89386 z m 6.5354,1.582565 q 0,1.384745 -0.44693,2.044147 -0.44692,0.659402 -1.38474,0.659402 -0.90851,0 -1.37742,-0.659402 -0.46891,-0.659402 -0.46891,-2.044147 0,-1.479991 0.44693,-2.12474 0.44693,-0.652075 1.3994,-0.652075 0.93049,0 1.37742,0.652075 0.45425,0.644749 0.45425,2.12474 z m -1.83167,1.978207 q 0.46891,0 0.68871,-0.461582 0.2198,-0.468908 0.2198,-1.516625 0,-1.12831 -0.21247,-1.589892 -0.20515,-0.461581 -0.69604,-0.461581 -0.49089,0 -0.70336,0.468908 -0.21248,0.461582 -0.21248,1.582565 0,1.04039 0.2198,1.509298 0.21981,0.468909 0.69604,0.468909 z m 4.01502,-3.560772 -0.85722,0.798609 -0.42495,-0.652075 1.37742,-1.252864 h 0.79861 v 5.297197 h -0.89386 z m 5.56828,-1.10633 -2.14672,5.297197 h -0.8499 l 2.14672,-5.297197 z"
             id="path15" />
          <path
             style="font-family:'Noto Sans KR';-inkscape-font-specification:'Noto Sans KR Medium'"
             d="m 187.86557,45.922061 h 1.2089 v 0.630095 h -1.2089 z m -1.32613,-1.721773 h 0.59346 v 1.208904 q 0,0.542175 -0.10258,1.069697 -0.0952,0.520195 -0.28574,0.981776 -0.19049,0.461582 -0.47623,0.835243 -0.28574,0.366335 -0.66673,0.593462 l -0.47624,-0.578808 q 0.35901,-0.212474 0.62277,-0.527522 0.26376,-0.315048 0.4396,-0.703362 0.18317,-0.388315 0.26377,-0.813263 0.0879,-0.432275 0.0879,-0.857223 z m 0.15386,0 h 0.58613 v 1.172271 q 0,0.402968 0.0733,0.813262 0.0806,0.402968 0.24178,0.769303 0.16119,0.366334 0.40297,0.674055 0.24178,0.307721 0.57881,0.520195 l -0.42495,0.593462 q -0.38099,-0.227127 -0.6594,-0.586135 -0.27109,-0.366334 -0.44693,-0.813263 -0.17584,-0.454254 -0.26376,-0.952469 -0.0879,-0.505542 -0.0879,-1.01841 z m 3.51681,-0.615442 h 0.73267 v 6.696595 h -0.73267 z m -1.36277,0.131881 h 0.71802 v 6.249667 h -0.71802 z m 5.71482,1.692465 h 1.42138 v 0.615442 h -1.42138 z m -0.0513,1.670486 h 1.45802 v 0.622768 h -1.45802 z m 2.44712,-3.494832 h 0.73267 v 6.696595 h -0.73267 z m -1.36277,0.161188 h 0.72535 v 6.213033 h -0.72535 z m -1.49464,0.659402 h 0.73267 q 0,0.915836 -0.23446,1.729099 -0.23445,0.805935 -0.78395,1.494644 -0.54218,0.688709 -1.45069,1.238211 l -0.4396,-0.549502 q 0.76931,-0.461581 1.24554,-1.033063 0.48356,-0.571482 0.70336,-1.252864 0.22713,-0.681382 0.22713,-1.472665 z m -1.84633,0 h 2.11742 v 0.622768 h -2.11742 z m 6.45482,3.003943 h 6.0665 v 0.622768 h -6.0665 z m 2.63028,0.388314 h 0.76198 v 2.483748 h -0.76198 z m -1.89761,-3.853839 h 4.57186 v 2.644935 h -4.57186 z m 3.82453,0.608115 h -3.06255 v 1.428705 h 3.06255 z m 5.19463,-0.01465 h 2.01484 v 0.615442 h -2.01484 z m 0,1.479992 h 2.01484 v 0.622768 h -2.01484 z m -1.97088,1.868306 h 4.50591 v 2.403154 h -0.7693 v -1.795039 h -3.73661 z m 3.73661,-4.293441 h 0.7693 v 3.949086 h -0.7693 z m -2.938,0.359008 q 0.49088,0 0.88652,0.212474 0.39565,0.205147 0.62277,0.578808 0.22713,0.366335 0.22713,0.84257 0,0.476235 -0.22713,0.849896 -0.22712,0.366334 -0.62277,0.578808 -0.39564,0.205148 -0.88652,0.205148 -0.49822,0 -0.89386,-0.205148 -0.39564,-0.212474 -0.62277,-0.578808 -0.22713,-0.373661 -0.22713,-0.849896 0,-0.476235 0.22713,-0.84257 0.22713,-0.373661 0.62277,-0.578808 0.39564,-0.212474 0.89386,-0.212474 z m -0.007,0.652075 q -0.28574,0 -0.51287,0.124554 -0.22713,0.124554 -0.36633,0.344354 -0.13188,0.219801 -0.13188,0.512869 0,0.293067 0.13188,0.512868 0.1392,0.219801 0.36633,0.344355 0.22713,0.117227 0.5202,0.117227 0.28574,0 0.51286,-0.117227 0.22713,-0.124554 0.35901,-0.344355 0.13188,-0.219801 0.13188,-0.512868 0,-0.293068 -0.13188,-0.512869 -0.13188,-0.2198 -0.35901,-0.344354 -0.22712,-0.124554 -0.52019,-0.124554 z m 7.59778,0.600789 h 1.17227 v 0.630095 h -1.17227 z m 2.24929,-1.611872 h 0.73267 v 5.011456 h -0.73267 z m -1.3188,0.117227 h 0.71802 v 4.703735 h -0.71802 z m -2.38117,5.817392 h 4.61581 v 0.622769 h -4.61581 z m 0,-1.523951 h 0.7693 v 1.897612 h -0.7693 z m 0.0586,-3.949086 h 0.60079 v 0.923163 q 0,0.556828 -0.16852,1.091676 -0.16118,0.527522 -0.49821,0.959797 -0.33703,0.424948 -0.84257,0.666729 l -0.42495,-0.593462 q 0.44693,-0.219801 0.74,-0.564155 0.30039,-0.344355 0.44693,-0.747323 0.14653,-0.410295 0.14653,-0.813262 z m 0.14653,0 h 0.59346 v 0.923163 q 0,0.395641 0.13189,0.769302 0.1392,0.373661 0.41762,0.688709 0.27841,0.307721 0.68871,0.505541 l -0.41763,0.578809 q -0.48356,-0.219801 -0.79861,-0.608115 -0.31504,-0.395642 -0.4689,-0.893856 -0.14654,-0.505542 -0.14654,-1.04039 z m 10.08885,-0.468909 h 0.76931 v 6.711249 h -0.76931 z m -1.28217,2.447115 h 1.38475 v 0.630095 h -1.38475 z m -3.20176,2.073453 h 0.5202 q 0.60078,0 1.08435,-0.01465 0.49088,-0.01465 0.93781,-0.05129 0.44693,-0.04396 0.91584,-0.124554 l 0.0733,0.615442 q -0.48357,0.08059 -0.94515,0.124554 -0.45425,0.04396 -0.95979,0.05861 -0.49822,0.01465 -1.10633,0.01465 h -0.5202 z m 0,-3.934432 h 3.09186 v 0.630095 h -2.32988 v 3.502158 h -0.76198 z m 0.57148,1.875632 h 2.25662 v 0.608116 h -2.25662 z"
             id="path16" />
        </g>
      </g>
    </g>
    <text
       xml:space="preserve"
       transform="matrix(0.31615295,0,0,0.31615295,-10.474341,-6.4462013)"
       id="text6"
       style="font-size:55px;line-height:1.25;font-family:'Microsoft JhengHei';-inkscape-font-specification:'Microsoft JhengHei';white-space:pre;shape-inside:url(#rect6);display:inline" />
  </g>
</svg>
