<?xml version="1.0" encoding="UTF-8" standalone="no"?>
<!-- Created with Inkscape (http://www.inkscape.org/) -->

<svg
   width="500"
   height="250"
   viewBox="0 0 132.29166 66.145833"
   version="1.1"
   id="svg1"
   inkscape:version="1.3.2 (091e20e, 2023-11-25, custom)"
   sodipodi:docname="r04.svg"
   xmlns:inkscape="http://www.inkscape.org/namespaces/inkscape"
   xmlns:sodipodi="http://sodipodi.sourceforge.net/DTD/sodipodi-0.dtd"
   xmlns="http://www.w3.org/2000/svg"
   xmlns:svg="http://www.w3.org/2000/svg">
  <sodipodi:namedview
     id="namedview1"
     pagecolor="#9e652e"
     bordercolor="#ffffff"
     borderopacity="1"
     inkscape:showpageshadow="0"
     inkscape:pageopacity="0"
     inkscape:pagecheckerboard="false"
     inkscape:deskcolor="#d1d1d1"
     inkscape:document-units="mm"
     inkscape:zoom="1.4289282"
     inkscape:cx="146.9633"
     inkscape:cy="102.87431"
     inkscape:window-width="1920"
     inkscape:window-height="1009"
     inkscape:window-x="1912"
     inkscape:window-y="-8"
     inkscape:window-maximized="1"
     inkscape:current-layer="layer1" />
  <defs
     id="defs1">
    <rect
       x="560.66638"
       y="34.144731"
       width="279.32397"
       height="128.59143"
       id="rect6" />
    <rect
       x="157.85752"
       y="62.351248"
       width="541.85369"
       height="99.322566"
       id="rect4" />
    <rect
       x="157.85751"
       y="62.35125"
       width="329.07602"
       height="135.09438"
       id="rect4-5" />
  </defs>
  <g
     inkscape:label="Layer 1"
     inkscape:groupmode="layer"
     id="layer1">
    <path
       id="rect5"
       style="fill:#f4eed7;stroke-width:0.953294"
       d="M -2.5431316e-6,-1.2715658e-6 H 132.29167 V 66.145835 H -2.5431316e-6 Z" />
    <g
       id="g1"
       transform="translate(9.7126962)"
       style="fill:#000000">
      <g
         id="g2"
         transform="translate(-4.1631059)">
        <path
           id="rect1"
           style="fill-opacity:0;stroke:#000000;stroke-width:0.942789"
           d="m 15.91309,14.352791 h 12.425164 c 3.927062,0 7.088559,3.161497 7.088559,7.088559 v 23.263136 c 0,3.927062 -3.161497,7.088559 -7.088559,7.088559 H 15.91309 c -3.927061,0 -7.0885584,-3.161497 -7.0885584,-7.088559 V 21.44135 c 0,-3.927062 3.1614974,-7.088559 7.0885584,-7.088559 z" />
        <path
           style="font-size:14.2913px;line-height:1.25;font-family:'AR UDJingXiHeiE1G30 EB';-inkscape-font-specification:'AR UDJingXiHeiE1G30 EB';stroke-width:0.297736"
           d="m 24.276514,23.642888 q 0,-0.757439 -0.400157,-1.143304 -0.400156,-0.400156 -1.157595,-0.400156 H 19.61755 v 3.215542 h 3.001173 q 0.743147,0 1.200469,-0.44303 0.457322,-0.44303 0.457322,-1.229052 z m -4.658964,3.07263 v 4.301681 h -1.814995 v -10.33261 h 5.259198 q 1.414839,0 2.243734,0.757439 0.843187,0.743148 0.843187,2.115113 0,0.900351 -0.428739,1.54346 -0.414448,0.643108 -1.043265,0.914643 0.800313,0.457322 1.229052,1.586334 0.428739,1.129013 0.543069,3.415621 H 24.56234 q -0.08575,-2.400938 -0.528779,-3.344164 -0.428739,-0.957517 -1.386256,-0.957517 z"
           id="text2"
           aria-label="R" />
        <path
           style="font-size:14.3917px;line-height:1.25;font-family:'AR UDJingXiHeiE1G30 EB';-inkscape-font-specification:'AR UDJingXiHeiE1G30 EB';stroke-width:0.261667"
           d="m 21.492415,39.692779 q 0,2.720031 -0.877894,4.015284 -0.877893,1.295253 -2.720031,1.295253 -1.784571,0 -2.70564,-1.295253 -0.921068,-1.295253 -0.921068,-4.015284 0,-2.907123 0.877893,-4.173593 0.877894,-1.280861 2.748815,-1.280861 1.827746,0 2.70564,1.280861 0.892285,1.26647 0.892285,4.173593 z m -3.597925,3.885759 q 0.921069,0 1.35282,-0.906677 0.431751,-0.921069 0.431751,-2.979082 0,-2.216322 -0.41736,-3.122999 -0.402967,-0.906677 -1.367211,-0.906677 -0.964244,0 -1.381603,0.921069 -0.41736,0.906677 -0.41736,3.108607 0,2.043622 0.431751,2.96469 0.431751,0.921069 1.367212,0.921069 z m 9.239461,-1.007419 H 22.629349 V 41.30465 l 4.418252,-6.893625 h 1.856529 v 6.720924 h 1.367212 v 1.43917 H 28.90413 v 2.245105 h -1.770179 z m -2.676856,-1.43917 h 2.676856 v -4.23116 z"
           id="text3"
           aria-label="04" />
        <path
           style="font-weight:500;font-size:72px;line-height:1.25;font-family:'Noto Sans TC';-inkscape-font-specification:'Noto Sans TC Medium';white-space:pre"
           d="m 185.43342,96.849406 h 35.568 v 5.472004 h -35.568 z m 0,10.296004 h 35.568 v 5.472 h -35.568 z m 3.096,26.208 h 29.304 v 5.544 h -29.304 z m -8.28,-47.088004 h 46.224 v 5.616 h -46.224 z m 4.176,31.536004 h 37.368 v 23.4 h -6.048 v -17.856 h -25.488 v 18.072 h -5.832 z m 12.312,-40.968004 5.832,-2.232 q 1.512,2.16 3.024,4.824 1.512,2.664 2.232,4.608 l -5.976,2.664 q -0.72,-2.016 -2.232,-4.752 -1.44,-2.808 -2.88,-5.112 z m -21.096,-1.872 6.048,1.8 q -2.088,6.048 -4.968,12.024 -2.88,5.976 -6.264,11.304004 -3.312,5.328 -6.912,9.432 -0.36,-0.792 -1.008,-2.016 -0.576,-1.296 -1.296,-2.52 -0.72,-1.296 -1.368,-2.016 3.168,-3.456004 6.12,-7.920004 2.952,-4.536 5.4,-9.648 2.52,-5.184 4.248,-10.44 z m -5.976,19.296 6.192,-6.264 0.072,0.072 v 53.640004 h -6.264 z m 67.248,-12.384 h 58.032 v 5.184 h -58.032 z m 3.888,8.856 h 50.256 v 4.896 h -50.256 z m -7.056,8.64 h 64.296 v 5.328004 h -64.296 z m -0.072,16.416004 h 64.656 v 5.184 h -64.656 z m 28.584,-31.104004 h 6.984 v 17.352004 h -6.984 z m 15.48,-10.152 7.416,1.584 q -1.44,2.16 -2.88,4.176 -1.44,2.016 -2.592,3.384 l -5.832,-1.584 q 1.008,-1.656 2.088,-3.816 1.152,-2.16 1.8,-3.744 z m -44.352,51.624004 q 4.248,-0.216 9.648,-0.504 5.472,-0.36 11.664,-0.792 6.192,-0.432 12.384,-0.864 l -0.072,4.752 q -5.904,0.504 -11.88,1.008 -5.904,0.504 -11.376,0.936 -5.4,0.432 -9.792,0.792 z m 15.12,-18 h 6.624 v 27 q 0,2.52 -0.72,3.672 -0.648,1.224 -2.448,1.8 -1.8,0.648 -4.536,0.72 -2.736,0.144 -6.84,0.144 -0.216,-1.152 -0.864,-2.664 -0.576,-1.512 -1.152,-2.592 1.8,0.072 3.528,0.072 1.8,0.072 3.168,0 1.368,0 1.872,0 0.792,0 1.08,-0.288 0.288,-0.288 0.288,-1.008 z m 13.536,-3.168 4.032,4.104 q -3.96,0.936 -9.072,1.656 -5.112,0.648 -10.512,1.152 -5.328,0.432 -10.296,0.648 -0.144,-0.864 -0.648,-2.088 -0.432,-1.296 -0.864,-2.16 4.824,-0.288 9.936,-0.72 5.112,-0.504 9.648,-1.152 4.608,-0.648 7.776,-1.44 z m 6.12,0.72 h 6.48 q 0.288,6.336 1.8,11.736 1.512,5.4 3.816,9.432 2.304,3.96 5.184,6.192 2.88,2.232 6.048,2.16 1.44,0 1.944,-1.296 0.576,-1.368 0.864,-4.896 1.008,0.864 2.448,1.584 1.44,0.72 2.664,1.08 -0.504,3.96 -1.512,6.048 -0.936,2.088 -2.592,2.88 -1.584,0.792 -4.104,0.864 -4.824,0 -8.856,-2.736 -3.96,-2.664 -7.056,-7.488 -3.024,-4.896 -4.896,-11.376 -1.8,-6.552 -2.232,-14.184 z m 19.152,15.552 5.832,2.016 q -3.312,4.32 -8.208,7.776 -4.896,3.456 -10.656,5.976 -5.688,2.52 -11.592,4.32 -0.216,-0.648 -0.864,-1.728 -0.648,-1.008 -1.368,-2.016 -0.648,-1.008 -1.224,-1.656 5.616,-1.296 10.944,-3.384 5.4,-2.088 9.864,-4.896 4.464,-2.88 7.272,-6.408 z m -8.424,-12.168 3.744,-3.96 q 2.088,0.72 4.32,1.8 2.232,1.08 4.248,2.304 2.088,1.152 3.384,2.232 l -3.96,4.392 q -1.224,-1.08 -3.24,-2.304 -1.944,-1.224 -4.176,-2.376 -2.232,-1.224 -4.32,-2.088 z m -31.464,-32.400004 5.976,-2.016 q 1.512,1.584 2.808,3.6 1.368,1.944 2.016,3.528 l -6.336,2.376 q -0.504,-1.512 -1.8,-3.672 -1.224,-2.16 -2.664,-3.816 z m 60.624,6.048 h 59.688 v 15.264 h -7.2 v -8.928 h -45.576 v 8.928 h -6.912 z m 41.904,13.968 8.28,0.576 q -1.728,10.944004 -5.184,18.648004 -3.456,7.704 -9.072,12.816 -5.616,5.04 -13.752,8.064 -8.136,3.096 -19.152,4.824 -0.36,-0.864 -1.152,-2.16 -0.72,-1.296 -1.584,-2.52 -0.864,-1.224 -1.584,-2.088 10.728,-1.224 18.432,-3.744 7.704,-2.52 12.816,-6.84 5.112,-4.392 7.992,-11.088 2.88,-6.768 3.96,-16.488004 z m -43.488,6.840004 h 63 v 6.48 h -63 z m 24.912,-27.648004 7.488,-1.8 q 1.296,2.376 2.664,5.256 1.368,2.808 2.088,4.752 l -7.848,2.088 q -0.648,-1.944 -1.944,-4.896 -1.224,-2.952 -2.448,-5.4 z m -16.272,43.848004 4.464,-5.04 q 6.12,1.8 12.888,4.248 6.84,2.448 13.536,5.256 6.768,2.808 12.672,5.76 5.904,2.88 10.152,5.544 l -5.112,5.976 q -3.96,-2.664 -9.648,-5.616 -5.616,-2.952 -12.312,-5.904 -6.624,-3.024 -13.536,-5.616 -6.84,-2.664 -13.104,-4.608 z m 0,0 q 1.944,-2.664 4.104,-6.048 2.232,-3.456 4.248,-7.2 2.088,-3.816 3.888,-7.632004 1.8,-3.816 3.096,-7.344 l 7.848,1.44 q -1.368,3.6 -3.168,7.344004 -1.8,3.744 -3.816,7.416 -2.016,3.6 -3.96,6.84 -1.944,3.24 -3.672,5.76 z m 99,6.048 h 21.96 v 6.48 h -21.96 z m -2.52,-44.424004 h 27.792 v 56.304004 h -6.984 V 87.921406 h -14.112 v 50.256004 h -6.696 z m -20.736,-0.216 h 6.84 v 60.264004 h -6.84 z m -13.608,14.832 h 32.112 v 6.336004 h -32.112 z m 13.248,2.376 4.608,1.584 q -1.152,4.320004 -2.88,8.856004 -1.728,4.464 -3.816,8.784 -2.088,4.248 -4.464,7.992 -2.304,3.672 -4.752,6.336 -0.504,-1.512 -1.584,-3.312 -1.08,-1.8 -2.016,-3.024 2.304,-2.376 4.464,-5.544 2.232,-3.168 4.248,-6.768 2.016,-3.672 3.6,-7.488 1.584,-3.816 2.592,-7.416004 z m 14.256,-23.04 4.464,5.328 q -3.96,1.44 -9,2.664 -4.968,1.152 -10.296,2.016 -5.328,0.864 -10.224,1.44 -0.216,-1.152 -0.792,-2.664 -0.576,-1.584 -1.152,-2.664 4.752,-0.648 9.72,-1.584 5.04,-0.936 9.504,-2.088 4.536,-1.224 7.776,-2.448 z m -7.632,28.008004 q 0.72,0.648 1.944,2.088 1.296,1.368 2.808,3.096 1.512,1.728 3.024,3.528 1.584,1.728 2.736,3.168 1.152,1.368 1.728,2.016 l -4.032,5.688 q -0.936,-1.584 -2.448,-3.816 -1.512,-2.232 -3.24,-4.608 -1.656,-2.376 -3.24,-4.464 -1.584,-2.088 -2.592,-3.384 z"
           id="text4"
           transform="matrix(0.26166763,0,0,0.26166763,-2.1314997,-4.0633201)"
           aria-label="信義安和" />
        <path
           style="font-size:7.32669px;line-height:1.25;font-family:'AR UDJingXiHeiE1G30 EB';-inkscape-font-specification:'AR UDJingXiHeiE1G30 EB';stroke-width:0.261667"
           d="m 43.513118,35.589222 h 1.077023 l -1.824346,2.557015 1.92692,2.740182 h -1.08435 l -1.384745,-2.044147 -1.384744,2.044147 h -1.055043 l 1.912266,-2.747509 -1.831673,-2.549688 h 1.091677 l 1.274844,1.904939 z m 2.718203,0 v 5.297197 h -0.93049 v -5.297197 z m 2.146715,1.472664 v 3.824533 h -0.93049 v -5.297197 h 0.959797 l 2.600975,3.912452 v -3.912452 h 0.930489 v 5.297197 h -1.01841 z m 6.740549,0.871877 1.509298,-2.344541 h 1.04039 l -2.088106,3.113843 v 2.183354 h -0.93049 v -2.183354 l -2.12474,-3.113843 h 1.06237 z m 4.073644,-2.344541 v 5.297197 h -0.93049 v -5.297197 z m 5.956587,3.157803 -0.835243,-2.263947 -0.849896,2.263947 z m -1.956226,0.725343 -0.527522,1.414051 h -0.945143 l 2.132067,-5.297197 h 0.952469 l 2.117414,5.297197 h -0.967123 l -0.534849,-1.414051 z m 5.267884,-2.410482 v 3.824533 h -0.930489 v -5.297197 h 0.959796 l 2.600975,3.912452 v -3.912452 h 0.93049 v 5.297197 h -1.01841 z m 5.707487,1.472665 v 2.351868 h -0.930489 v -5.297197 h 0.930489 v 2.219987 h 2.542362 v -2.219987 h 0.930489 v 5.297197 h -0.930489 v -2.351868 z m 8.608862,2.351868 h -3.91978 v -5.297197 h 3.8978 v 0.725342 h -2.96731 v 1.494645 h 2.769489 v 0.725342 h -2.769489 v 1.626525 h 2.98929 z"
           id="text5"
           aria-label="XINYI ANHE" />
        <path
           d="m 42.68027,43.732425 h 3.38493 v 0.549501 h -3.38493 z m -0.102574,2.066126 h 3.619385 v 0.556829 h -3.619385 z m 0,1.033063 h 3.597405 v 0.549502 h -3.597405 z m 0.271087,2.498402 h 3.069884 v 0.556828 h -3.069884 z m -0.864549,-4.571855 h 4.747695 v 0.571482 h -4.747695 z m 0.505542,3.09919 h 3.787898 v 2.329888 h -0.696035 v -1.780386 h -2.432461 v 1.802366 h -0.659402 z m -0.879203,-4.432647 0.644748,0.212474 q -0.249107,0.615442 -0.586135,1.230884 -0.329701,0.608115 -0.718015,1.15029 -0.388315,0.534848 -0.805936,0.945143 -0.02931,-0.08792 -0.09525,-0.219801 -0.06594,-0.13188 -0.139207,-0.263761 -0.07327,-0.13188 -0.139207,-0.2198 0.366334,-0.344355 0.703362,-0.791283 0.344354,-0.454255 0.637422,-0.97445 0.293067,-0.527521 0.498215,-1.069696 z m -0.739996,1.948899 0.659402,-0.652075 0.0073,0.0073 v 5.458385 h -0.666729 z m 6.828475,-1.230884 h 5.905313 v 0.527522 h -5.905313 z m 0.395642,0.901183 h 5.114029 v 0.498215 h -5.114029 z m -0.718016,0.879203 h 6.542734 v 0.542175 h -6.542734 z m -0.0073,1.670485 h 6.579368 v 0.527522 h -6.579368 z m 2.908696,-3.16513 h 0.710689 v 1.765732 h -0.710689 z m 1.575239,-1.033063 0.754649,0.161187 q -0.146534,0.219801 -0.293068,0.424948 -0.146534,0.205147 -0.263761,0.344354 l -0.593462,-0.161187 q 0.102574,-0.168514 0.212474,-0.388314 0.117227,-0.219801 0.183168,-0.380988 z m -4.513242,5.253237 q 0.432275,-0.02198 0.981777,-0.05129 0.556828,-0.03663 1.186924,-0.08059 0.630095,-0.04396 1.26019,-0.08792 l -0.0073,0.483562 q -0.600789,0.05129 -1.208904,0.102573 -0.600789,0.05129 -1.157617,0.09525 -0.549502,0.04396 -0.99643,0.08059 z m 1.538605,-1.831673 h 0.674056 v 2.747509 q 0,0.256434 -0.07327,0.373661 -0.06594,0.124554 -0.249107,0.183167 -0.183168,0.06594 -0.461582,0.07327 -0.278414,0.01465 -0.696035,0.01465 -0.02198,-0.117227 -0.08792,-0.271088 -0.05861,-0.15386 -0.117227,-0.263761 0.183167,0.0073 0.359008,0.0073 0.183167,0.0073 0.322374,0 0.139207,0 0.190494,0 0.08059,0 0.109901,-0.02931 0.02931,-0.02931 0.02931,-0.102573 z m 1.377418,-0.322374 0.410295,0.417621 q -0.402968,0.09525 -0.923163,0.168514 -0.520195,0.06594 -1.069697,0.117227 -0.542175,0.04396 -1.047717,0.06594 -0.01465,-0.08792 -0.06594,-0.212474 -0.04396,-0.13188 -0.08792,-0.219801 0.490888,-0.02931 1.011083,-0.07327 0.520195,-0.05129 0.981777,-0.117227 0.468908,-0.06594 0.791282,-0.146534 z m 0.622769,0.07327 h 0.659402 q 0.02931,0.644748 0.183167,1.19425 0.153861,0.549502 0.388315,0.959797 0.234454,0.402968 0.527521,0.630095 0.293068,0.227127 0.615442,0.219801 0.146534,0 0.197821,-0.131881 0.05861,-0.139207 0.08792,-0.498215 0.102574,0.08792 0.249108,0.161187 0.146534,0.07327 0.271087,0.109901 -0.05129,0.402968 -0.15386,0.615442 -0.09525,0.212474 -0.263761,0.293067 -0.161187,0.08059 -0.417621,0.08792 -0.490889,0 -0.901183,-0.278415 -0.402968,-0.271087 -0.718016,-0.761975 -0.307721,-0.498215 -0.498215,-1.157617 -0.183167,-0.666729 -0.227127,-1.443358 z m 1.948899,1.582565 0.593462,0.205147 q -0.337027,0.439601 -0.835242,0.791283 -0.498215,0.351681 -1.08435,0.608115 -0.578809,0.256434 -1.179598,0.439601 -0.02198,-0.06594 -0.08792,-0.17584 -0.06594,-0.102574 -0.139207,-0.205148 -0.06594,-0.102573 -0.124554,-0.168513 0.571482,-0.131881 1.113657,-0.344355 0.549502,-0.212474 1.003757,-0.498215 0.454255,-0.293067 0.739995,-0.652075 z m -0.857222,-1.238211 0.380988,-0.402968 q 0.212474,0.07327 0.439601,0.183167 0.227127,0.109901 0.432275,0.234454 0.212474,0.117228 0.344354,0.227128 l -0.402968,0.446928 q -0.124554,-0.1099 -0.329701,-0.234454 -0.197821,-0.124554 -0.424948,-0.241781 -0.227127,-0.124554 -0.439601,-0.212474 z m -3.201764,-3.29701 0.608115,-0.205148 q 0.153861,0.161187 0.285741,0.366335 0.139207,0.19782 0.205148,0.359008 l -0.644749,0.24178 q -0.05129,-0.15386 -0.183167,-0.373661 -0.124554,-0.219801 -0.271088,-0.388314 z m 8.814008,-0.212475 h 0.739996 v 1.252865 h -0.739996 z m -2.681568,0.725343 h 6.1764 v 1.648505 H 60.34492 v -0.99643 h -4.740369 v 0.99643 h -0.703362 z m 2.403154,0.908509 0.725342,0.153861 q -0.205147,0.439601 -0.439601,0.908509 -0.234454,0.468909 -0.483561,0.945144 -0.241781,0.476234 -0.476235,0.901182 -0.234454,0.424948 -0.424948,0.761976 l -0.725343,-0.190494 q 0.205148,-0.337028 0.439602,-0.761976 0.24178,-0.424948 0.483561,-0.893856 0.249108,-0.476235 0.483562,-0.945143 0.234454,-0.468908 0.417621,-0.879203 z m 1.90494,1.589892 0.769302,0.109901 q -0.227127,0.849896 -0.637422,1.450684 -0.410295,0.593462 -0.99643,0.99643 -0.578808,0.395641 -1.348111,0.637422 -0.769302,0.249108 -1.714445,0.395641 -0.02931,-0.08792 -0.102574,-0.205147 -0.07327,-0.1099 -0.153861,-0.227127 -0.07327,-0.117227 -0.146533,-0.197821 1.230884,-0.139207 2.117413,-0.454255 0.88653,-0.322374 1.436031,-0.923163 0.556829,-0.600788 0.77663,-1.582565 z m -4.491261,-0.446928 h 6.520754 v 0.659402 h -6.520754 z m 1.23821,2.12474 0.490888,-0.490888 q 0.556829,0.15386 1.172271,0.373661 0.622768,0.212474 1.230884,0.461582 0.608115,0.24178 1.142963,0.498215 0.534849,0.256434 0.915837,0.498215 l -0.534849,0.564155 Q 60.015219,49.974765 59.50235,49.711004 58.989482,49.447243 58.381367,49.190809 57.780578,48.927048 57.150483,48.69992 56.527714,48.472793 55.956232,48.304279 Z M 65.730036,48.612 h 2.234641 v 0.659402 h -2.234641 z m -0.256434,-4.520568 h 2.828103 v 5.729472 h -0.710689 v -5.062743 h -1.436032 v 5.11403 h -0.681382 z m -2.110087,-0.02198 h 0.696036 v 6.13244 h -0.696036 z m -1.384744,1.509298 h 3.267704 v 0.644749 h -3.267704 z m 1.348111,0.241781 0.468908,0.161187 q -0.117227,0.439602 -0.293067,0.901183 -0.175841,0.454255 -0.388315,0.893857 -0.212474,0.432274 -0.454255,0.813262 -0.234454,0.373661 -0.483561,0.644749 -0.05129,-0.153861 -0.161188,-0.337028 -0.1099,-0.183167 -0.205147,-0.307721 0.234454,-0.241781 0.454255,-0.564155 0.227127,-0.322374 0.432275,-0.688709 0.205147,-0.373661 0.366334,-0.761976 0.161187,-0.388314 0.263761,-0.754649 z m 1.450685,-2.344541 0.454254,0.542175 q -0.402967,0.146534 -0.915836,0.271088 -0.505541,0.117227 -1.047717,0.205147 -0.542175,0.08792 -1.04039,0.146534 -0.02198,-0.117227 -0.08059,-0.271087 -0.05861,-0.161188 -0.117227,-0.271088 0.483561,-0.06594 0.989103,-0.161187 0.512868,-0.09525 0.967123,-0.212474 0.461582,-0.124554 0.791283,-0.249108 z m -0.776629,2.850083 q 0.07327,0.06594 0.19782,0.212474 0.131881,0.139207 0.285741,0.315048 0.153861,0.17584 0.307721,0.359007 0.161187,0.175841 0.278414,0.322375 0.117227,0.139207 0.175841,0.205147 L 64.83618,48.318933 Q 64.740933,48.157745 64.587073,47.930618 64.433212,47.703491 64.257372,47.46171 64.088858,47.219929 63.927671,47.007455 63.766483,46.794981 63.66391,46.663101 Z"
           id="text5-9"
           style="font-weight:500;font-size:7.32669px;line-height:1.25;font-family:'Noto Sans JP';-inkscape-font-specification:'Noto Sans JP Medium';stroke-width:0.261667"
           aria-label="信義安和" />
        <path
           style="font-weight:500;font-size:7.32669px;line-height:1.25;font-family:'Noto Sans KR';-inkscape-font-specification:'Noto Sans KR Medium';stroke-width:0.261667"
           d="m 82.277937,43.592173 h 0.769303 v 4.894229 h -0.769303 z m -3.597404,5.934619 h 4.557201 v 0.622769 h -4.557201 z m 0,-1.494645 h 0.761975 v 1.802366 h -0.761975 z m 0.512868,-4.073639 h 0.637422 v 0.666728 q 0,0.659403 -0.219801,1.245538 -0.219801,0.578808 -0.637422,1.01841 -0.417621,0.439601 -1.01841,0.666728 l -0.395641,-0.608115 q 0.527522,-0.19782 0.893856,-0.556828 0.366335,-0.366335 0.549502,-0.82059 0.190494,-0.461581 0.190494,-0.945143 z m 0.15386,0 h 0.622769 v 0.666728 q 0,0.359008 0.102574,0.696036 0.1099,0.329701 0.315047,0.622769 0.212474,0.293067 0.512869,0.520195 0.300394,0.227127 0.688709,0.359007 l -0.395642,0.615442 q -0.586135,-0.2198 -1.003756,-0.630095 -0.417622,-0.417621 -0.630096,-0.97445 -0.212474,-0.564155 -0.212474,-1.208904 z m 9.663905,-0.373662 h 0.769303 v 6.711249 h -0.769303 z m -2.791468,0.490889 q 0.498214,0 0.886529,0.293067 0.395641,0.293068 0.615442,0.82059 0.219801,0.527521 0.219801,1.245537 0,0.725342 -0.219801,1.260191 -0.219801,0.527521 -0.615442,0.820589 -0.388315,0.285741 -0.886529,0.285741 -0.498215,0 -0.893857,-0.285741 -0.388314,-0.293068 -0.615442,-0.820589 -0.2198,-0.534849 -0.2198,-1.260191 0,-0.718016 0.2198,-1.245537 0.227128,-0.527522 0.615442,-0.82059 0.395642,-0.293067 0.893857,-0.293067 z m 0,0.696035 q -0.293068,0 -0.520195,0.197821 -0.219801,0.19782 -0.344355,0.571482 -0.124554,0.373661 -0.124554,0.893856 0,0.527522 0.124554,0.901183 0.124554,0.373661 0.344355,0.578808 0.227127,0.197821 0.520195,0.197821 0.293067,0 0.512868,-0.197821 0.219801,-0.205147 0.344354,-0.578808 0.124554,-0.373661 0.124554,-0.901183 0,-0.520195 -0.124554,-0.893856 -0.124553,-0.373662 -0.344354,-0.571482 -0.219801,-0.197821 -0.512868,-0.197821 z m 11.305088,-1.186924 h 0.761976 v 4.908883 h -0.761976 z m 0.534849,1.985533 h 1.17227 v 0.637422 h -1.17227 z m -4.0077,3.956413 h 4.513241 v 0.622769 h -4.513241 z m 0,-1.538605 h 0.769303 v 1.809693 h -0.769303 z m 0.871876,-3.949086 q 0.505542,0 0.90851,0.219801 0.402968,0.212474 0.637422,0.593462 0.234454,0.373661 0.234454,0.864549 0,0.483562 -0.234454,0.86455 -0.234454,0.373661 -0.637422,0.593462 -0.402968,0.212474 -0.90851,0.212474 -0.498215,0 -0.901183,-0.212474 -0.402967,-0.219801 -0.637422,-0.593462 -0.234454,-0.380988 -0.234454,-0.86455 0,-0.490888 0.234454,-0.864549 0.234455,-0.380988 0.637422,-0.593462 0.402968,-0.219801 0.901183,-0.219801 z m 0,0.666729 q -0.285741,0 -0.520195,0.124554 -0.234454,0.124553 -0.373661,0.351681 -0.13188,0.227127 -0.13188,0.534848 0,0.300395 0.13188,0.527522 0.139207,0.219801 0.373661,0.344354 0.234454,0.124554 0.520195,0.124554 0.293068,0 0.527522,-0.124554 0.241781,-0.124553 0.373661,-0.344354 0.131881,-0.227127 0.131881,-0.527522 0,-0.307721 -0.131881,-0.534848 -0.13188,-0.227128 -0.373661,-0.351681 -0.234454,-0.124554 -0.527522,-0.124554 z m 4.879577,-0.08059 h 3.927102 v 0.622769 h -3.927102 z m 1.970882,1.091677 q 0.45425,0 0.81326,0.205148 0.35901,0.19782 0.56416,0.549501 0.20514,0.351681 0.20514,0.813263 0,0.454255 -0.21247,0.805936 -0.20515,0.351681 -0.56416,0.556828 -0.35168,0.197821 -0.80593,0.197821 -0.45426,0 -0.81327,-0.197821 -0.359,-0.205147 -0.57148,-0.556828 -0.20514,-0.351681 -0.20514,-0.805936 0,-0.461582 0.20514,-0.813263 0.21248,-0.351681 0.57148,-0.549501 0.35901,-0.205148 0.81327,-0.205148 z m 0,0.644749 q -0.24911,0 -0.44693,0.117227 -0.19782,0.1099 -0.31505,0.322374 -0.11723,0.205148 -0.11723,0.483562 0,0.271087 0.11723,0.483561 0.11723,0.205148 0.31505,0.322375 0.19782,0.1099 0.44693,0.1099 0.2491,0 0.44693,-0.1099 0.19782,-0.117227 0.30772,-0.322375 0.11722,-0.212474 0.11722,-0.483561 0,-0.278414 -0.11722,-0.483562 -0.1099,-0.212474 -0.30772,-0.322374 -0.19783,-0.117227 -0.44693,-0.117227 z m -0.38832,-2.681569 h 0.76931 v 1.252864 h -0.76931 z m 3.20909,-0.08792 h 0.76931 v 6.696595 h -0.76931 z m -0.99643,2.725529 h 1.5899 v 0.630095 h -1.5899 z"
           id="text5-9-8"
           aria-label="신이 안허" />
      </g>
    </g>
    <text
       xml:space="preserve"
       transform="matrix(0.31615295,0,0,0.31615295,-10.474341,-6.4462013)"
       id="text6"
       style="font-size:55px;line-height:1.25;font-family:'Microsoft JhengHei';-inkscape-font-specification:'Microsoft JhengHei';white-space:pre;shape-inside:url(#rect6);display:inline" />
  </g>
</svg>
