<?xml version="1.0" encoding="UTF-8" standalone="no"?>
<!-- Created with Inkscape (http://www.inkscape.org/) -->

<svg
   width="500"
   height="250"
   viewBox="0 0 132.29166 66.145833"
   version="1.1"
   id="svg1"
   inkscape:version="1.3.2 (091e20e, 2023-11-25, custom)"
   sodipodi:docname="r05 t.svg"
   xml:space="preserve"
   xmlns:inkscape="http://www.inkscape.org/namespaces/inkscape"
   xmlns:sodipodi="http://sodipodi.sourceforge.net/DTD/sodipodi-0.dtd"
   xmlns="http://www.w3.org/2000/svg"
   xmlns:svg="http://www.w3.org/2000/svg"><sodipodi:namedview
     id="namedview1"
     pagecolor="#9e652e"
     bordercolor="#ffffff"
     borderopacity="1"
     inkscape:showpageshadow="0"
     inkscape:pageopacity="0"
     inkscape:pagecheckerboard="false"
     inkscape:deskcolor="#d1d1d1"
     inkscape:document-units="mm"
     inkscape:zoom="2.0208096"
     inkscape:cx="231.0955"
     inkscape:cy="132.62011"
     inkscape:window-width="1920"
     inkscape:window-height="1009"
     inkscape:window-x="1912"
     inkscape:window-y="-8"
     inkscape:window-maximized="1"
     inkscape:current-layer="layer1" /><defs
     id="defs1"><rect
       x="560.66638"
       y="34.144731"
       width="279.32397"
       height="128.59143"
       id="rect6" /><rect
       x="157.85752"
       y="62.351248"
       width="541.85369"
       height="99.322566"
       id="rect4" /><rect
       x="157.85751"
       y="62.35125"
       width="329.07602"
       height="135.09438"
       id="rect4-5" /></defs><g
     inkscape:label="Layer 1"
     inkscape:groupmode="layer"
     id="layer1"><path
       id="rect5"
       style="fill:#f4eed7;stroke-width:0.953294"
       d="M -2.5431316e-6,-1.2715658e-6 H 132.29167 V 66.145835 H -2.5431316e-6 Z" /><g
       id="g1"
       transform="matrix(0.86008697,0,0,0.86008697,33.577566,-2.7810028)"
       style="fill:#000000"><g
         id="g2"
         transform="translate(-4.1631059)"><path
           id="rect1"
           style="fill-opacity:0;stroke:#000000;stroke-width:0.942789"
           d="m 15.91309,14.352791 h 12.425164 c 3.927062,0 7.088559,3.161497 7.088559,7.088559 v 23.263136 c 0,3.927062 -3.161497,7.088559 -7.088559,7.088559 H 15.91309 c -3.927061,0 -7.0885584,-3.161497 -7.0885584,-7.088559 V 21.44135 c 0,-3.927062 3.1614974,-7.088559 7.0885584,-7.088559 z" /><path
           style="font-size:14.2913px;line-height:1.25;font-family:'AR UDJingXiHeiE1G30 EB';-inkscape-font-specification:'AR UDJingXiHeiE1G30 EB';stroke-width:0.297736"
           d="m 24.276514,23.642888 q 0,-0.757439 -0.400157,-1.143304 -0.400156,-0.400156 -1.157595,-0.400156 H 19.61755 v 3.215542 h 3.001173 q 0.743147,0 1.200469,-0.44303 0.457322,-0.44303 0.457322,-1.229052 z m -4.658964,3.07263 v 4.301681 h -1.814995 v -10.33261 h 5.259198 q 1.414839,0 2.243734,0.757439 0.843187,0.743148 0.843187,2.115113 0,0.900351 -0.428739,1.54346 -0.414448,0.643108 -1.043265,0.914643 0.800313,0.457322 1.229052,1.586334 0.428739,1.129013 0.543069,3.415621 H 24.56234 q -0.08575,-2.400938 -0.528779,-3.344164 -0.428739,-0.957517 -1.386256,-0.957517 z"
           id="text2"
           aria-label="R" /><path
           style="font-size:14.3917px;line-height:1.25;font-family:'AR UDJingXiHeiE1G30 EB';-inkscape-font-specification:'AR UDJingXiHeiE1G30 EB';stroke-width:0.261667"
           d="m 21.492415,39.692779 q 0,2.720031 -0.877894,4.015284 -0.877893,1.295253 -2.720031,1.295253 -1.784571,0 -2.70564,-1.295253 -0.921068,-1.295253 -0.921068,-4.015284 0,-2.907123 0.877893,-4.173593 0.877894,-1.280861 2.748815,-1.280861 1.827746,0 2.70564,1.280861 0.892285,1.26647 0.892285,4.173593 z m -3.597925,3.885759 q 0.921069,0 1.35282,-0.906677 0.431751,-0.921069 0.431751,-2.979082 0,-2.216322 -0.41736,-3.122999 -0.402967,-0.906677 -1.367211,-0.906677 -0.964244,0 -1.381603,0.921069 -0.41736,0.906677 -0.41736,3.108607 0,2.043622 0.431751,2.96469 0.431751,0.921069 1.367212,0.921069 z m 8.534268,-4.40386 q -0.618843,0 -1.064986,0.230267 -0.446143,0.215876 -0.76276,0.662018 l -1.61187,-0.1727 0.777151,-5.483238 h 5.814247 v 1.424779 h -4.346293 l -0.402968,2.720031 q 0.359793,-0.402968 0.863502,-0.604452 0.518101,-0.215875 1.208903,-0.215875 1.482345,0 2.345847,0.964244 0.863502,0.964244 0.863502,2.633681 0,1.741396 -0.964244,2.70564 -0.964244,0.964243 -2.70564,0.964243 -1.712612,0 -2.676856,-0.84911 -0.964244,-0.84911 -0.993027,-2.28828 h 1.770179 q -0.01439,0.67641 0.460535,1.194511 0.474926,0.518101 1.395994,0.518101 0.877894,0 1.381604,-0.575668 0.518101,-0.59006 0.518101,-1.69822 0,-1.036203 -0.532493,-1.583087 -0.532493,-0.546885 -1.338428,-0.546885 z"
           id="text3"
           aria-label="05" /><path
           style="font-weight:500;font-size:72px;line-height:1.25;font-family:'Noto Sans TC';-inkscape-font-specification:'Noto Sans TC Medium';white-space:pre"
           d="m 162.17742,94.761406 h 63.648 v 7.056004 h -63.648 z m 35.856,2.808 q 2.304,8.496004 6.192,15.840004 3.96,7.344 9.648,12.888 5.76,5.472 13.32,8.64 -0.864,0.72 -1.872,1.872 -0.936,1.152 -1.8,2.304 -0.864,1.224 -1.44,2.16 -7.992,-3.744 -13.968,-9.864 -5.904,-6.192 -10.008,-14.328 -4.104,-8.136 -6.912,-17.856004 z m -7.92,-22.896 h 7.416 q 0,5.112 -0.288,11.016 -0.216,5.832 -1.08,12.024 -0.864,6.192004 -2.808,12.384004 -1.944,6.192 -5.4,11.952 -3.456,5.76 -8.856,10.728 -5.4,4.896 -13.176,8.568 -0.864,-1.368 -2.304,-3.024 -1.44,-1.584 -2.88,-2.664 7.488,-3.384 12.6,-7.848 5.184,-4.536 8.352,-9.792 3.24,-5.328 4.968,-11.016 1.728,-5.688 2.448,-11.376004 0.72,-5.688 0.864,-11.016 0.144,-5.328 0.144,-9.936 z m 45.936,8.064 h 59.688 v 15.264 h -7.2 v -8.928 h -45.576 v 8.928 h -6.912 z m 41.904,13.968 8.28,0.576 q -1.728,10.944004 -5.184,18.648004 -3.456,7.704 -9.072,12.816 -5.616,5.04 -13.752,8.064 -8.136,3.096 -19.152,4.824 -0.36,-0.864 -1.152,-2.16 -0.72,-1.296 -1.584,-2.52 -0.864,-1.224 -1.584,-2.088 10.728,-1.224 18.432,-3.744 7.704,-2.52 12.816,-6.84 5.112,-4.392 7.992,-11.088 2.88,-6.768 3.96,-16.488004 z m -43.488,6.840004 h 63 v 6.48 h -63 z m 24.912,-27.648004 7.488,-1.8 q 1.296,2.376 2.664,5.256 1.368,2.808 2.088,4.752 l -7.848,2.088 q -0.648,-1.944 -1.944,-4.896 -1.224,-2.952 -2.448,-5.4 z m -16.272,43.848004 4.464,-5.04 q 6.12,1.8 12.888,4.248 6.84,2.448 13.536,5.256 6.768,2.808 12.672,5.76 5.904,2.88 10.152,5.544 l -5.112,5.976 q -3.96,-2.664 -9.648,-5.616 -5.616,-2.952 -12.312,-5.904 -6.624,-3.024 -13.536,-5.616 -6.84,-2.664 -13.104,-4.608 z m 0,0 q 1.944,-2.664 4.104,-6.048 2.232,-3.456 4.248,-7.2 2.088,-3.816 3.888,-7.632004 1.8,-3.816 3.096,-7.344 l 7.848,1.44 q -1.368,3.6 -3.168,7.344004 -1.8,3.744 -3.816,7.416 -2.016,3.6 -3.96,6.84 -1.944,3.24 -3.672,5.76 z"
           id="text4"
           transform="matrix(0.26166763,0,0,0.26166763,-2.1314997,-4.0633201)"
           aria-label="大安" /><path
           style="font-size:7.32669px;line-height:1.25;font-family:'AR UDJingXiHeiE1G30 EB';-inkscape-font-specification:'AR UDJingXiHeiE1G30 EB';stroke-width:0.261667"
           d="m 44.905189,38.175543 q 0,1.318805 -0.622769,2.01484 -0.615442,0.696036 -1.721772,0.696036 h -2.1687 v -5.297197 h 2.1687 q 1.10633,0 1.721772,0.652075 0.622769,0.652076 0.622769,1.934246 z m -0.967123,0 q 0,-0.959796 -0.395641,-1.406724 -0.388315,-0.454255 -1.135637,-0.454255 h -1.084351 v 3.846512 h 1.091677 q 0.718016,0 1.120984,-0.476234 0.402968,-0.476235 0.402968,-1.509299 z m 4.806302,0.571482 -0.835242,-2.263947 -0.849896,2.263947 z m -1.956226,0.725343 -0.527522,1.414051 h -0.945143 l 2.132067,-5.297197 h 0.95247 l 2.117413,5.297197 h -0.967123 l -0.534848,-1.414051 z m 7.15817,-0.725343 -0.835243,-2.263947 -0.849896,2.263947 z m -1.956227,0.725343 -0.527521,1.414051 h -0.945143 l 2.132067,-5.297197 h 0.952469 l 2.117414,5.297197 h -0.967123 l -0.534849,-1.414051 z m 5.267884,-2.410482 v 3.824533 h -0.93049 v -5.297197 h 0.959797 l 2.600975,3.912452 v -3.912452 h 0.93049 v 5.297197 h -1.01841 z"
           id="text5"
           aria-label="DAAN" /><path
           d="m 40.093948,45.454197 h 6.476794 v 0.718015 h -6.476794 z m 3.648692,0.285741 q 0.234454,0.864549 0.630095,1.611872 0.402968,0.747322 0.981776,1.311477 0.586136,0.556829 1.355438,0.879203 -0.08792,0.07327 -0.190494,0.190494 -0.09525,0.117227 -0.183167,0.234454 -0.08792,0.124554 -0.146534,0.219801 -0.813262,-0.380988 -1.421378,-1.003757 -0.600788,-0.630095 -1.01841,-1.458011 -0.417621,-0.827916 -0.703362,-1.817019 z M 42.936704,43.41005 h 0.754649 q 0,0.520195 -0.02931,1.120984 -0.02198,0.593462 -0.1099,1.223557 -0.08792,0.630095 -0.285741,1.260191 -0.197821,0.630095 -0.549502,1.21623 -0.351681,0.586136 -0.901183,1.091677 -0.549502,0.498215 -1.340784,0.871876 -0.08792,-0.139207 -0.234454,-0.307721 -0.146534,-0.161187 -0.293068,-0.271087 0.761976,-0.344355 1.282171,-0.798609 0.527522,-0.461582 0.849896,-0.99643 0.329701,-0.542175 0.505542,-1.120984 0.17584,-0.578808 0.249107,-1.157617 0.07327,-0.578809 0.08792,-1.120984 0.01465,-0.542175 0.01465,-1.011083 z m 7.319363,-0.0073 h 0.739996 v 1.252865 h -0.739996 z m -2.681568,0.725343 h 6.176399 v 1.648505 h -0.732669 v -0.99643 h -4.740368 v 0.99643 h -0.703362 z m 2.403154,0.908509 0.725342,0.153861 q -0.205147,0.439601 -0.439601,0.908509 -0.234454,0.468909 -0.483562,0.945144 -0.24178,0.476234 -0.476235,0.901182 -0.234454,0.424948 -0.424948,0.761976 L 48.153307,48.51678 q 0.205147,-0.337028 0.439602,-0.761976 0.24178,-0.424948 0.483561,-0.893856 0.249108,-0.476235 0.483562,-0.945143 0.234454,-0.468908 0.417621,-0.879203 z m 1.904939,1.589892 0.769303,0.109901 q -0.227128,0.849896 -0.637422,1.450684 -0.410295,0.593462 -0.99643,0.99643 -0.578809,0.395641 -1.348111,0.637422 -0.769303,0.249108 -1.714446,0.395641 -0.02931,-0.08792 -0.102573,-0.205147 -0.07327,-0.1099 -0.153861,-0.227127 -0.07327,-0.117227 -0.146534,-0.197821 1.230884,-0.139207 2.117414,-0.454255 0.886529,-0.322374 1.436031,-0.923163 0.556829,-0.600788 0.776629,-1.582565 z m -4.491261,-0.446928 h 6.520755 v 0.659402 h -6.520755 z m 1.238211,2.12474 0.490888,-0.490888 q 0.556829,0.15386 1.172271,0.373661 0.622768,0.212474 1.230884,0.461582 0.608115,0.24178 1.142963,0.498215 0.534849,0.256434 0.915837,0.498215 l -0.534849,0.564155 Q 52.688528,49.974765 52.17566,49.711004 51.662792,49.447243 51.054676,49.190809 50.453888,48.927048 49.823792,48.69992 49.201024,48.472793 48.629542,48.304279 Z"
           id="text5-9"
           style="font-weight:500;font-size:7.32669px;line-height:1.25;font-family:'Noto Sans JP';-inkscape-font-specification:'Noto Sans JP Medium';stroke-width:0.261667"
           aria-label="大安" /><path
           style="font-weight:500;font-size:7.32669px;line-height:1.25;font-family:'Noto Sans KR';-inkscape-font-specification:'Noto Sans KR Medium';stroke-width:0.261667"
           d="m 65.116266,43.584846 h 0.769303 v 6.711249 h -0.769303 z m 0.600789,2.571669 h 1.208904 v 0.637422 h -1.208904 z m -4.747696,1.853652 h 0.542176 q 0.600788,0 1.10633,-0.01465 0.505541,-0.02198 0.981776,-0.06594 0.476235,-0.05129 0.967123,-0.139207 l 0.08059,0.637422 q -0.505542,0.09525 -0.99643,0.146533 -0.483561,0.04396 -1.011083,0.06594 -0.520195,0.01465 -1.12831,0.01465 h -0.542176 z m 0,-3.787899 h 3.113844 v 0.622769 h -2.351868 v 3.465525 h -0.761976 z m 10.931423,-0.637422 h 0.761976 v 4.908883 h -0.761976 z m 0.534848,1.985533 h 1.172271 v 0.637422 H 72.43563 Z m -4.007699,3.956413 h 4.513241 v 0.622769 h -4.513241 z m 0,-1.538605 h 0.769302 v 1.809693 h -0.769302 z m 0.871876,-3.949086 q 0.505542,0 0.90851,0.219801 0.402968,0.212474 0.637422,0.593462 0.234454,0.373661 0.234454,0.864549 0,0.483562 -0.234454,0.86455 -0.234454,0.373661 -0.637422,0.593462 -0.402968,0.212474 -0.90851,0.212474 -0.498215,0 -0.901183,-0.212474 -0.402968,-0.219801 -0.637422,-0.593462 -0.234454,-0.380988 -0.234454,-0.86455 0,-0.490888 0.234454,-0.864549 0.234454,-0.380988 0.637422,-0.593462 0.402968,-0.219801 0.901183,-0.219801 z m 0,0.666729 q -0.285741,0 -0.520195,0.124554 -0.234454,0.124553 -0.373661,0.351681 -0.131881,0.227127 -0.131881,0.534848 0,0.300395 0.131881,0.527522 0.139207,0.219801 0.373661,0.344354 0.234454,0.124554 0.520195,0.124554 0.293068,0 0.527522,-0.124554 0.24178,-0.124553 0.373661,-0.344354 0.13188,-0.227127 0.13188,-0.527522 0,-0.307721 -0.13188,-0.534848 -0.131881,-0.227128 -0.373661,-0.351681 -0.234454,-0.124554 -0.527522,-0.124554 z"
           id="text5-9-8"
           aria-label="다안" /></g></g><text
       xml:space="preserve"
       transform="matrix(0.31615295,0,0,0.31615295,-10.474341,-6.4462013)"
       id="text6"
       style="font-size:55px;line-height:1.25;font-family:'Microsoft JhengHei';-inkscape-font-specification:'Microsoft JhengHei';white-space:pre;shape-inside:url(#rect6);display:inline" /><path
       id="rect2"
       style="fill:#d0002b;stroke-width:1.78801"
       d="M -2.5431316e-6,48.866093 H 132.29168 V 66.145838 H -2.5431316e-6 Z" /><g
       id="g7"
       transform="translate(-14.538981,3.1750001)"><path
         style="font-weight:bold;font-size:10.5273px;line-height:1.25;font-family:'Noto Sans TC';-inkscape-font-specification:'Noto Sans TC Bold';fill:#ffffff;stroke-width:0.191405"
         d="m 52.739063,55.788996 0.705329,-0.789548 q 0.389511,0.136855 0.789548,0.336874 0.410565,0.200019 0.77902,0.410565 0.368456,0.210546 0.621111,0.400037 l -0.726384,0.873766 q -0.252655,-0.200019 -0.621111,-0.421092 -0.357928,-0.231601 -0.768492,-0.442147 -0.400038,-0.221073 -0.779021,-0.368455 z m -1.147475,1.884387 0.726383,-0.884294 q 0.515838,0.136855 1.063258,0.326347 0.547419,0.189491 1.073784,0.400037 0.536893,0.210546 1.010621,0.431619 0.473729,0.221074 0.842184,0.421092 l -0.736911,0.989567 Q 55.107706,59.062986 54.433959,58.747167 53.770739,58.431348 53.0233,58.157638 52.286389,57.873401 51.591588,57.673383 Z m 1.305385,-8.30604 1.221167,0.200019 q -0.38951,0.968511 -0.979039,1.915968 -0.589529,0.93693 -1.473822,1.737005 -0.09475,-0.136855 -0.252655,-0.294765 -0.147383,-0.157909 -0.315819,-0.294764 -0.15791,-0.147382 -0.294765,-0.221073 0.526365,-0.452674 0.926403,-0.968512 0.410564,-0.515838 0.694801,-1.042203 0.294765,-0.536892 0.473729,-1.031675 z m 0.189491,1.010621 h 2.621298 v 1.073784 h -3.15819 z m 2.273897,0 h 0.242128 l 0.210546,-0.05264 0.768493,0.442147 q -0.463201,1.16853 -1.231694,2.115987 -0.768493,0.947457 -1.71595,1.642259 -0.947457,0.684274 -1.968605,1.105366 -0.07369,-0.147382 -0.210546,-0.336873 -0.136855,-0.189492 -0.294765,-0.368456 -0.147382,-0.189491 -0.263182,-0.294764 0.979039,-0.357928 1.863332,-0.93693 0.89482,-0.589528 1.568568,-1.379076 0.684274,-0.789547 1.031675,-1.726477 z m -2.389697,0.821129 q 0.400037,0.757966 1.042203,1.431713 0.642165,0.673747 1.452767,1.200112 0.821129,0.515838 1.737005,0.82113 -0.136855,0.126327 -0.294765,0.305291 -0.147382,0.178964 -0.284237,0.368456 -0.136855,0.189491 -0.231601,0.357928 -0.947457,-0.38951 -1.779113,-1.000094 -0.831657,-0.62111 -1.505404,-1.410658 -0.66322,-0.800074 -1.147476,-1.71595 z m -3.421372,2.537079 0.905347,-0.252655 q 0.126328,0.357928 0.242128,0.768493 0.126328,0.410565 0.221073,0.789548 0.09475,0.378982 0.136855,0.673747 l -0.957984,0.305292 q -0.04211,-0.294765 -0.126327,-0.684275 -0.08422,-0.38951 -0.200019,-0.810602 -0.105273,-0.421092 -0.221073,-0.789548 z m -0.768493,2.737098 0.884293,-0.178964 q 0.105273,0.54742 0.178964,1.189585 0.08422,0.631638 0.105273,1.094839 l -0.926402,0.189492 q 0,-0.315819 -0.04211,-0.705329 -0.03158,-0.400038 -0.08422,-0.810602 -0.05264,-0.421092 -0.1158,-0.779021 z m -1.221167,-0.147382 0.989566,0.15791 q -0.06316,0.705329 -0.178964,1.410658 -0.1158,0.694802 -0.284237,1.179058 -0.105273,-0.06316 -0.284237,-0.136855 -0.178964,-0.06316 -0.357928,-0.115801 -0.178965,-0.05264 -0.315819,-0.08422 0.189491,-0.473729 0.284237,-1.115894 0.09475,-0.652692 0.147382,-1.294858 z m -0.105273,-2.76868 q -0.03158,-0.1158 -0.09475,-0.315819 -0.06316,-0.200018 -0.136855,-0.400037 -0.07369,-0.210546 -0.147382,-0.357928 0.168437,-0.05264 0.305292,-0.200019 0.147382,-0.147382 0.305291,-0.378983 0.105273,-0.147382 0.336874,-0.547419 0.231601,-0.410565 0.494783,-0.947457 0.263183,-0.536893 0.442147,-1.105367 l 1.126421,0.463201 q -0.252655,0.579002 -0.579002,1.158003 -0.326346,0.568475 -0.673747,1.09484 -0.336873,0.515837 -0.694802,0.926402 v 0.03158 q 0,0 -0.105273,0.06316 -0.09475,0.05264 -0.2316,0.147382 -0.136855,0.09475 -0.242128,0.189491 -0.105273,0.09475 -0.105273,0.178964 z m 0,0 -0.02105,-0.831656 0.484256,-0.326347 1.83175,-0.126327 q -0.05264,0.221073 -0.08422,0.50531 -0.03158,0.27371 -0.04211,0.452674 -0.610584,0.05264 -1.000094,0.105273 -0.38951,0.04211 -0.621111,0.07369 -0.221073,0.03158 -0.3474,0.07369 -0.126328,0.03158 -0.200019,0.07369 z m 0.08422,2.442334 q -0.03158,-0.1158 -0.105273,-0.326346 -0.06316,-0.210546 -0.147382,-0.421092 -0.07369,-0.221074 -0.147382,-0.378983 0.210546,-0.05264 0.400037,-0.221073 0.189492,-0.178965 0.43162,-0.473729 0.136854,-0.147382 0.378982,-0.473728 0.252656,-0.336874 0.557947,-0.789548 0.305292,-0.452674 0.610584,-0.979039 0.305291,-0.536892 0.547419,-1.063257 l 1.05273,0.642165 q -0.38951,0.694802 -0.863238,1.389604 -0.463202,0.694802 -0.979039,1.32644 -0.515838,0.631638 -1.031676,1.147475 v 0.04211 q 0,0 -0.1158,0.06316 -0.105273,0.05264 -0.242128,0.147382 -0.136855,0.08422 -0.242128,0.189492 -0.105273,0.09475 -0.105273,0.178964 z m 0,0 -0.06316,-0.863239 0.494784,-0.336873 2.49497,-0.326347 q -0.03158,0.221074 -0.05264,0.494784 -0.01053,0.263182 0,0.442146 -0.842184,0.136855 -1.379076,0.231601 -0.526365,0.08422 -0.82113,0.147382 -0.294764,0.06316 -0.442146,0.1158 -0.147382,0.04211 -0.231601,0.09475 z m 2.358115,0.284237 0.831657,-0.284237 q 0.178964,0.452674 0.357928,0.989566 0.189492,0.526365 0.27371,0.915875 L 50.486221,58.23133 Q 50.41253,57.841819 50.233566,57.2944 50.065129,56.74698 49.896692,56.283779 Z m 13.001216,-1.937023 h 4.305665 v 4.863612 h -1.210639 v -3.716136 h -1.958078 v 3.758246 h -1.136948 z m 1.400131,-4.958358 h 1.221166 v 5.274177 h -1.221166 z m 0.726383,2.168623 h 2.53708 v 1.168531 h -2.53708 z m -1.526458,6.137416 h 3.063444 v 1.147476 H 63.497964 Z M 58.99228,50.535873 v 2.305479 h 2.558133 v -2.305479 z m -0.93693,-0.842184 h 4.474102 v 3.989847 H 58.05535 Z m 0.915875,1.294858 0.526365,-0.147382 q 0.126327,0.357928 0.221073,0.77902 0.09475,0.421092 0.1158,0.726384 l -0.557946,0.178964 q -0.01053,-0.305292 -0.09475,-0.736911 -0.08422,-0.431619 -0.210546,-0.800075 z m 0.326346,6.147943 0.77902,-0.08422 q 0.07369,0.442147 0.105273,0.957984 0.04211,0.505311 0.03158,0.884293 l -0.810602,0.09475 q 0.02105,-0.378983 -0.01053,-0.89482 -0.03158,-0.515838 -0.09475,-0.957985 z m 1.073785,-0.02105 0.747438,-0.136855 q 0.147382,0.421092 0.27371,0.905348 0.126327,0.473728 0.168437,0.842184 l -0.789548,0.157909 q -0.02105,-0.357928 -0.136855,-0.852711 -0.1158,-0.494783 -0.263182,-0.915875 z m 1.05273,-0.02106 0.757965,-0.27371 q 0.231601,0.38951 0.442147,0.863239 0.210546,0.463201 0.294764,0.810602 l -0.800074,0.315819 q -0.07369,-0.357928 -0.27371,-0.831657 -0.189492,-0.484255 -0.421092,-0.884293 z m -3.147663,-0.27371 0.842184,0.315819 q -0.105273,0.484256 -0.263182,1.031676 -0.147383,0.547419 -0.368456,0.926402 L 57.613203,58.73664 q 0.147382,-0.242128 0.27371,-0.568474 0.136855,-0.326347 0.231601,-0.673747 0.09475,-0.357929 0.157909,-0.673748 z m 2.758153,-5.990033 0.631638,0.210546 q -0.147383,0.378983 -0.305292,0.800075 -0.147382,0.421092 -0.27371,0.705329 l -0.473728,-0.178964 q 0.08422,-0.221074 0.157909,-0.484256 0.08422,-0.27371 0.15791,-0.54742 0.07369,-0.284237 0.105273,-0.50531 z m -2.958172,3.305572 h 4.431994 v 0.957984 h -4.431994 z m 1.800169,-4.010901 h 0.757965 v 3.168717 h 0.178964 v 2.747625 h -1.115893 v -2.747625 h 0.178964 z m -2.010715,5.49525 h 4.789922 v 0.957984 h -4.789922 z m 10.5273,-4.400411 h 4.231975 v 1.158003 h -4.231975 z m -0.08422,5.842651 q 0.526365,-0.09474 1.189585,-0.2316 0.673747,-0.136855 1.421185,-0.294765 0.747439,-0.168437 1.473822,-0.326346 l 0.126328,1.16853 q -1.021148,0.242128 -2.063351,0.494783 -1.031675,0.242128 -1.873859,0.43162 z m 0.431619,-4.126701 0.979039,-0.178964 q 0.1158,0.557946 0.210546,1.179057 0.09475,0.621111 0.15791,1.221167 0.07369,0.600056 0.105273,1.084312 l -1.031676,0.210546 q -0.02105,-0.484256 -0.08422,-1.084312 -0.05264,-0.610583 -0.147382,-1.242221 -0.08422,-0.642166 -0.189492,-1.189585 z m 2.347588,-0.263183 1.16853,0.189492 q -0.08422,0.515837 -0.189491,1.063257 -0.09475,0.547419 -0.210546,1.084312 -0.1158,0.536892 -0.231601,1.021148 -0.105273,0.473728 -0.221073,0.852711 l -0.926402,-0.200019 q 0.105273,-0.400037 0.200018,-0.89482 0.09475,-0.494783 0.168437,-1.042203 0.07369,-0.547419 0.136855,-1.073784 0.07369,-0.536893 0.105273,-1.000094 z m -1.515931,-2.947644 1.094839,-0.305291 q 0.210546,0.357928 0.400037,0.789547 0.189492,0.421092 0.284238,0.726384 l -1.136949,0.378983 q -0.08422,-0.326347 -0.263182,-0.768493 -0.178964,-0.452674 -0.378983,-0.82113 z m 5.453141,1.579095 h 3.052917 v 1.21064 h -3.052917 z m -1.758059,6.274271 h 3.768773 v 1.16853 h -3.768773 z m 1.063257,-8.221821 h 1.294858 v 5.484723 h -1.294858 z m -1.631731,4.968885 h 5.021522 v 4.884667 h -1.294858 v -3.705609 h -2.49497 v 3.747719 h -1.231694 z"
         id="text7"
         aria-label="終點站" /><path
         style="font-weight:bold;font-size:8.02005px;line-height:1.25;font-family:'Helvetica Neue';-inkscape-font-specification:'Helvetica Neue Bold';fill:#ffffff;stroke-width:0.191405"
         d="m 87.058174,53.442957 h -4.691729 v 1.066667 h 1.716291 v 4.643609 h 1.259147 v -4.643609 h 1.716291 z m 3.536842,4.427068 h -1.090727 c -0.160401,0.401002 -0.441102,0.601503 -0.842105,0.601503 -0.304762,0 -0.545363,-0.08822 -0.713784,-0.280701 -0.168421,-0.184462 -0.256642,-0.457143 -0.256642,-0.818046 h 2.967419 v -0.11228 c 0,-0.721805 -0.184462,-1.299248 -0.553384,-1.724311 -0.368922,-0.425063 -0.866165,-0.641604 -1.491729,-0.641604 -0.609524,0 -1.106767,0.208521 -1.49173,0.625564 -0.392982,0.417043 -0.585463,0.946366 -0.585463,1.58797 0,0.657644 0.192481,1.178947 0.577443,1.57193 0.384963,0.401002 0.898246,0.593483 1.53183,0.593483 0.481203,0 0.890226,-0.1203 1.235088,-0.368922 0.344862,-0.240601 0.585463,-0.585464 0.713784,-1.034586 z m -1.098747,-1.219048 h -1.812531 c 0.03208,-0.288722 0.136341,-0.513283 0.296742,-0.681704 0.168421,-0.160401 0.376942,-0.248622 0.625564,-0.248622 0.272681,0 0.481203,0.08822 0.625564,0.264662 0.152381,0.176441 0.240601,0.392982 0.264661,0.665664 z m 4.499244,-1.708271 c -0.112281,-0.01604 -0.200501,-0.02406 -0.248622,-0.02406 -0.625564,0 -1.066666,0.288722 -1.339348,0.858146 v -0.761905 h -1.082707 v 4.138346 h 1.138847 v -1.892732 c 0,-0.401003 0.08822,-0.713785 0.264662,-0.954386 0.176441,-0.240602 0.449123,-0.360902 0.826065,-0.360902 0.128321,0 0.280702,0.01604 0.441103,0.04812 z m 6.809017,4.210527 v -2.782958 c 0,-0.449123 -0.12832,-0.802005 -0.36892,-1.066666 -0.2406,-0.264662 -0.593482,-0.401003 -1.042604,-0.401003 -0.577444,0 -1.026567,0.232581 -1.355389,0.681704 -0.208521,-0.449123 -0.601504,-0.681704 -1.170927,-0.681704 -0.553384,0 -0.994486,0.232581 -1.315288,0.681704 v -0.569423 h -1.082707 v 4.138346 h 1.138847 v -2.245614 c 0,-0.721805 0.272682,-1.082707 0.826065,-1.082707 0.240602,0 0.409023,0.07218 0.497243,0.216541 0.0802,0.144361 0.128321,0.336842 0.128321,0.593484 v 2.518296 h 1.138847 v -2.325815 c 0,-0.657644 0.264662,-0.994486 0.793985,-0.994486 0.264662,0 0.441103,0.0802 0.529323,0.224561 0.0802,0.144361 0.128321,0.352882 0.128321,0.625564 v 2.470176 z m 2.06116,-5.710276 h -1.13885 v 0.962406 h 1.13885 z m 0,1.57193 h -1.13885 v 4.138346 h 1.13885 z m 4.79598,4.138346 v -2.766918 c 0,-0.473183 -0.12832,-0.842105 -0.38496,-1.098747 -0.25664,-0.256641 -0.60952,-0.384962 -1.05063,-0.384962 -0.57744,0 -1.03458,0.232581 -1.37142,0.689724 v -0.577443 h -1.08271 v 4.138346 h 1.13083 v -2.221554 c 0,-0.721805 0.29674,-1.090727 0.89824,-1.090727 0.27268,0 0.46517,0.0802 0.56141,0.232581 0.0962,0.152381 0.14436,0.376943 0.14436,0.665665 v 2.414035 z m 4.70778,0 c -0.0962,-0.224562 -0.14437,-0.593484 -0.14437,-1.122807 v -1.788472 c 0,-0.898245 -0.6015,-1.347368 -1.80451,-1.347368 -1.21904,0 -1.85263,0.465163 -1.91679,1.395489 h 1.06667 c 0.0321,-0.232582 0.11228,-0.392983 0.2406,-0.489223 0.1203,-0.09624 0.31278,-0.144361 0.57744,-0.144361 0.49725,0 0.74587,0.184461 0.74587,0.553383 0,0.160401 -0.0722,0.272682 -0.20852,0.328822 -0.13634,0.06416 -0.40101,0.120301 -0.80201,0.168421 -0.18446,0.02406 -0.32882,0.04812 -0.43308,0.06416 -0.0962,0.01604 -0.23258,0.04812 -0.401,0.0802 -0.1604,0.0401 -0.28873,0.08822 -0.38497,0.144361 -0.0962,0.06416 -0.19248,0.136341 -0.29674,0.224562 -0.10426,0.09624 -0.17644,0.208521 -0.22456,0.336842 -0.0481,0.13634 -0.0722,0.288721 -0.0722,0.465163 0,0.392982 0.13634,0.697744 0.39298,0.922305 0.26466,0.224562 0.62557,0.328822 1.08271,0.328822 0.54536,0 0.99449,-0.168421 1.33935,-0.521303 0.016,0.160401 0.0481,0.296742 0.0802,0.401003 z M 111.11832,57.1402 v 0.465163 c 0,0.288722 -0.0882,0.521303 -0.27268,0.681704 -0.18447,0.160401 -0.43309,0.240602 -0.73785,0.240602 -0.19248,0 -0.34486,-0.04812 -0.45714,-0.144361 -0.11228,-0.09624 -0.16842,-0.232582 -0.16842,-0.401003 0,-0.176441 0.0642,-0.320802 0.17644,-0.417042 0.10426,-0.0802 0.3208,-0.152381 0.65764,-0.200502 0.40101,-0.06416 0.67369,-0.14436 0.80201,-0.224561 z m 3.17593,-3.697243 h -1.13884 v 5.710276 h 1.13884 z"
         id="text7-1"
         aria-label="Terminal" /></g></g></svg>
