<?xml version="1.0" encoding="UTF-8" standalone="no"?>
<!-- Created with Inkscape (http://www.inkscape.org/) -->

<svg
   width="500"
   height="250"
   viewBox="0 0 132.29166 66.145833"
   version="1.1"
   id="svg1"
   inkscape:version="1.3.2 (091e20e, 2023-11-25, custom)"
   sodipodi:docname="r05.svg"
   xmlns:inkscape="http://www.inkscape.org/namespaces/inkscape"
   xmlns:sodipodi="http://sodipodi.sourceforge.net/DTD/sodipodi-0.dtd"
   xmlns="http://www.w3.org/2000/svg"
   xmlns:svg="http://www.w3.org/2000/svg">
  <sodipodi:namedview
     id="namedview1"
     pagecolor="#9e652e"
     bordercolor="#ffffff"
     borderopacity="1"
     inkscape:showpageshadow="0"
     inkscape:pageopacity="0"
     inkscape:pagecheckerboard="false"
     inkscape:deskcolor="#d1d1d1"
     inkscape:document-units="mm"
     inkscape:zoom="2.0208096"
     inkscape:cx="275.6321"
     inkscape:cy="128.6613"
     inkscape:window-width="1920"
     inkscape:window-height="1009"
     inkscape:window-x="-8"
     inkscape:window-y="-8"
     inkscape:window-maximized="1"
     inkscape:current-layer="layer1" />
  <defs
     id="defs1">
    <rect
       x="560.66638"
       y="34.144731"
       width="279.32397"
       height="128.59143"
       id="rect6" />
    <rect
       x="157.85752"
       y="62.351248"
       width="541.85369"
       height="99.322566"
       id="rect4" />
    <rect
       x="157.85751"
       y="62.35125"
       width="329.07602"
       height="135.09438"
       id="rect4-5" />
  </defs>
  <g
     inkscape:label="Layer 1"
     inkscape:groupmode="layer"
     id="layer1">
    <rect
       style="fill:#f4eed7;fill-opacity:1;stroke:none;stroke-width:0.953294;stroke-dasharray:none"
       id="rect5"
       width="132.29167"
       height="66.145836"
       x="-2.5431316e-06"
       y="-1.2715658e-06"
       ry="0" />
    <g
       id="g1"
       transform="matrix(1.1439028,0,0,1.1439028,22.830525,-4.7592875)"
       style="fill:#000000">
      <g
         id="g2"
         transform="translate(-4.1631059)">
        <path
           id="rect1"
           style="fill-opacity:0;stroke:#000000;stroke-width:0.942789"
           d="m 15.91309,14.352791 h 12.425164 c 3.927062,0 7.088559,3.161497 7.088559,7.088559 v 23.263136 c 0,3.927062 -3.161497,7.088559 -7.088559,7.088559 H 15.91309 c -3.927061,0 -7.0885584,-3.161497 -7.0885584,-7.088559 V 21.44135 c 0,-3.927062 3.1614974,-7.088559 7.0885584,-7.088559 z" />
        <path
           style="font-size:14.2913px;line-height:1.25;font-family:'AR UDJingXiHeiE1G30 EB';-inkscape-font-specification:'AR UDJingXiHeiE1G30 EB';stroke-width:0.297736"
           d="m 24.276514,23.642888 q 0,-0.757439 -0.400157,-1.143304 -0.400156,-0.400156 -1.157595,-0.400156 H 19.61755 v 3.215542 h 3.001173 q 0.743147,0 1.200469,-0.44303 0.457322,-0.44303 0.457322,-1.229052 z m -4.658964,3.07263 v 4.301681 h -1.814995 v -10.33261 h 5.259198 q 1.414839,0 2.243734,0.757439 0.843187,0.743148 0.843187,2.115113 0,0.900351 -0.428739,1.54346 -0.414448,0.643108 -1.043265,0.914643 0.800313,0.457322 1.229052,1.586334 0.428739,1.129013 0.543069,3.415621 H 24.56234 q -0.08575,-2.400938 -0.528779,-3.344164 -0.428739,-0.957517 -1.386256,-0.957517 z"
           id="text2"
           aria-label="R" />
        <path
           style="font-size:14.3917px;line-height:1.25;font-family:'AR UDJingXiHeiE1G30 EB';-inkscape-font-specification:'AR UDJingXiHeiE1G30 EB';stroke-width:0.261667"
           d="m 21.492415,39.692779 q 0,2.720031 -0.877894,4.015284 -0.877893,1.295253 -2.720031,1.295253 -1.784571,0 -2.70564,-1.295253 -0.921068,-1.295253 -0.921068,-4.015284 0,-2.907123 0.877893,-4.173593 0.877894,-1.280861 2.748815,-1.280861 1.827746,0 2.70564,1.280861 0.892285,1.26647 0.892285,4.173593 z m -3.597925,3.885759 q 0.921069,0 1.35282,-0.906677 0.431751,-0.921069 0.431751,-2.979082 0,-2.216322 -0.41736,-3.122999 -0.402967,-0.906677 -1.367211,-0.906677 -0.964244,0 -1.381603,0.921069 -0.41736,0.906677 -0.41736,3.108607 0,2.043622 0.431751,2.96469 0.431751,0.921069 1.367212,0.921069 z m 8.534268,-4.40386 q -0.618843,0 -1.064986,0.230267 -0.446143,0.215876 -0.76276,0.662018 l -1.61187,-0.1727 0.777151,-5.483238 h 5.814247 v 1.424779 h -4.346293 l -0.402968,2.720031 q 0.359793,-0.402968 0.863502,-0.604452 0.518101,-0.215875 1.208903,-0.215875 1.482345,0 2.345847,0.964244 0.863502,0.964244 0.863502,2.633681 0,1.741396 -0.964244,2.70564 -0.964244,0.964243 -2.70564,0.964243 -1.712612,0 -2.676856,-0.84911 -0.964244,-0.84911 -0.993027,-2.28828 h 1.770179 q -0.01439,0.67641 0.460535,1.194511 0.474926,0.518101 1.395994,0.518101 0.877894,0 1.381604,-0.575668 0.518101,-0.59006 0.518101,-1.69822 0,-1.036203 -0.532493,-1.583087 -0.532493,-0.546885 -1.338428,-0.546885 z"
           id="text3"
           aria-label="05" />
        <path
           style="font-weight:500;font-size:72px;line-height:1.25;font-family:'Noto Sans TC';-inkscape-font-specification:'Noto Sans TC Medium';white-space:pre"
           d="m 162.17742,94.761406 h 63.648 v 7.056004 h -63.648 z m 35.856,2.808 q 2.304,8.496004 6.192,15.840004 3.96,7.344 9.648,12.888 5.76,5.472 13.32,8.64 -0.864,0.72 -1.872,1.872 -0.936,1.152 -1.8,2.304 -0.864,1.224 -1.44,2.16 -7.992,-3.744 -13.968,-9.864 -5.904,-6.192 -10.008,-14.328 -4.104,-8.136 -6.912,-17.856004 z m -7.92,-22.896 h 7.416 q 0,5.112 -0.288,11.016 -0.216,5.832 -1.08,12.024 -0.864,6.192004 -2.808,12.384004 -1.944,6.192 -5.4,11.952 -3.456,5.76 -8.856,10.728 -5.4,4.896 -13.176,8.568 -0.864,-1.368 -2.304,-3.024 -1.44,-1.584 -2.88,-2.664 7.488,-3.384 12.6,-7.848 5.184,-4.536 8.352,-9.792 3.24,-5.328 4.968,-11.016 1.728,-5.688 2.448,-11.376004 0.72,-5.688 0.864,-11.016 0.144,-5.328 0.144,-9.936 z m 45.936,8.064 h 59.688 v 15.264 h -7.2 v -8.928 h -45.576 v 8.928 h -6.912 z m 41.904,13.968 8.28,0.576 q -1.728,10.944004 -5.184,18.648004 -3.456,7.704 -9.072,12.816 -5.616,5.04 -13.752,8.064 -8.136,3.096 -19.152,4.824 -0.36,-0.864 -1.152,-2.16 -0.72,-1.296 -1.584,-2.52 -0.864,-1.224 -1.584,-2.088 10.728,-1.224 18.432,-3.744 7.704,-2.52 12.816,-6.84 5.112,-4.392 7.992,-11.088 2.88,-6.768 3.96,-16.488004 z m -43.488,6.840004 h 63 v 6.48 h -63 z m 24.912,-27.648004 7.488,-1.8 q 1.296,2.376 2.664,5.256 1.368,2.808 2.088,4.752 l -7.848,2.088 q -0.648,-1.944 -1.944,-4.896 -1.224,-2.952 -2.448,-5.4 z m -16.272,43.848004 4.464,-5.04 q 6.12,1.8 12.888,4.248 6.84,2.448 13.536,5.256 6.768,2.808 12.672,5.76 5.904,2.88 10.152,5.544 l -5.112,5.976 q -3.96,-2.664 -9.648,-5.616 -5.616,-2.952 -12.312,-5.904 -6.624,-3.024 -13.536,-5.616 -6.84,-2.664 -13.104,-4.608 z m 0,0 q 1.944,-2.664 4.104,-6.048 2.232,-3.456 4.248,-7.2 2.088,-3.816 3.888,-7.632004 1.8,-3.816 3.096,-7.344 l 7.848,1.44 q -1.368,3.6 -3.168,7.344004 -1.8,3.744 -3.816,7.416 -2.016,3.6 -3.96,6.84 -1.944,3.24 -3.672,5.76 z"
           id="text4"
           transform="matrix(0.26166763,0,0,0.26166763,-2.1314997,-4.0633201)"
           aria-label="大安" />
        <path
           style="font-size:7.32669px;line-height:1.25;font-family:'AR UDJingXiHeiE1G30 EB';-inkscape-font-specification:'AR UDJingXiHeiE1G30 EB';stroke-width:0.261667"
           d="m 44.905189,38.175543 q 0,1.318805 -0.622769,2.01484 -0.615442,0.696036 -1.721772,0.696036 h -2.1687 v -5.297197 h 2.1687 q 1.10633,0 1.721772,0.652075 0.622769,0.652076 0.622769,1.934246 z m -0.967123,0 q 0,-0.959796 -0.395641,-1.406724 -0.388315,-0.454255 -1.135637,-0.454255 h -1.084351 v 3.846512 h 1.091677 q 0.718016,0 1.120984,-0.476234 0.402968,-0.476235 0.402968,-1.509299 z m 4.806302,0.571482 -0.835242,-2.263947 -0.849896,2.263947 z m -1.956226,0.725343 -0.527522,1.414051 h -0.945143 l 2.132067,-5.297197 h 0.95247 l 2.117413,5.297197 h -0.967123 l -0.534848,-1.414051 z m 7.15817,-0.725343 -0.835243,-2.263947 -0.849896,2.263947 z m -1.956227,0.725343 -0.527521,1.414051 h -0.945143 l 2.132067,-5.297197 h 0.952469 l 2.117414,5.297197 h -0.967123 l -0.534849,-1.414051 z m 5.267884,-2.410482 v 3.824533 h -0.93049 v -5.297197 h 0.959797 l 2.600975,3.912452 v -3.912452 h 0.93049 v 5.297197 h -1.01841 z"
           id="text5"
           aria-label="DAAN" />
        <path
           d="m 40.093948,45.454197 h 6.476794 v 0.718015 h -6.476794 z m 3.648692,0.285741 q 0.234454,0.864549 0.630095,1.611872 0.402968,0.747322 0.981776,1.311477 0.586136,0.556829 1.355438,0.879203 -0.08792,0.07327 -0.190494,0.190494 -0.09525,0.117227 -0.183167,0.234454 -0.08792,0.124554 -0.146534,0.219801 -0.813262,-0.380988 -1.421378,-1.003757 -0.600788,-0.630095 -1.01841,-1.458011 -0.417621,-0.827916 -0.703362,-1.817019 z M 42.936704,43.41005 h 0.754649 q 0,0.520195 -0.02931,1.120984 -0.02198,0.593462 -0.1099,1.223557 -0.08792,0.630095 -0.285741,1.260191 -0.197821,0.630095 -0.549502,1.21623 -0.351681,0.586136 -0.901183,1.091677 -0.549502,0.498215 -1.340784,0.871876 -0.08792,-0.139207 -0.234454,-0.307721 -0.146534,-0.161187 -0.293068,-0.271087 0.761976,-0.344355 1.282171,-0.798609 0.527522,-0.461582 0.849896,-0.99643 0.329701,-0.542175 0.505542,-1.120984 0.17584,-0.578808 0.249107,-1.157617 0.07327,-0.578809 0.08792,-1.120984 0.01465,-0.542175 0.01465,-1.011083 z m 7.319363,-0.0073 h 0.739996 v 1.252865 h -0.739996 z m -2.681568,0.725343 h 6.176399 v 1.648505 h -0.732669 v -0.99643 h -4.740368 v 0.99643 h -0.703362 z m 2.403154,0.908509 0.725342,0.153861 q -0.205147,0.439601 -0.439601,0.908509 -0.234454,0.468909 -0.483562,0.945144 -0.24178,0.476234 -0.476235,0.901182 -0.234454,0.424948 -0.424948,0.761976 L 48.153307,48.51678 q 0.205147,-0.337028 0.439602,-0.761976 0.24178,-0.424948 0.483561,-0.893856 0.249108,-0.476235 0.483562,-0.945143 0.234454,-0.468908 0.417621,-0.879203 z m 1.904939,1.589892 0.769303,0.109901 q -0.227128,0.849896 -0.637422,1.450684 -0.410295,0.593462 -0.99643,0.99643 -0.578809,0.395641 -1.348111,0.637422 -0.769303,0.249108 -1.714446,0.395641 -0.02931,-0.08792 -0.102573,-0.205147 -0.07327,-0.1099 -0.153861,-0.227127 -0.07327,-0.117227 -0.146534,-0.197821 1.230884,-0.139207 2.117414,-0.454255 0.886529,-0.322374 1.436031,-0.923163 0.556829,-0.600788 0.776629,-1.582565 z m -4.491261,-0.446928 h 6.520755 v 0.659402 h -6.520755 z m 1.238211,2.12474 0.490888,-0.490888 q 0.556829,0.15386 1.172271,0.373661 0.622768,0.212474 1.230884,0.461582 0.608115,0.24178 1.142963,0.498215 0.534849,0.256434 0.915837,0.498215 l -0.534849,0.564155 Q 52.688528,49.974765 52.17566,49.711004 51.662792,49.447243 51.054676,49.190809 50.453888,48.927048 49.823792,48.69992 49.201024,48.472793 48.629542,48.304279 Z"
           id="text5-9"
           style="font-weight:500;font-size:7.32669px;line-height:1.25;font-family:'Noto Sans JP';-inkscape-font-specification:'Noto Sans JP Medium';stroke-width:0.261667"
           aria-label="大安" />
        <path
           style="font-weight:500;font-size:7.32669px;line-height:1.25;font-family:'Noto Sans KR';-inkscape-font-specification:'Noto Sans KR Medium';stroke-width:0.261667"
           d="m 65.116266,43.584846 h 0.769303 v 6.711249 h -0.769303 z m 0.600789,2.571669 h 1.208904 v 0.637422 h -1.208904 z m -4.747696,1.853652 h 0.542176 q 0.600788,0 1.10633,-0.01465 0.505541,-0.02198 0.981776,-0.06594 0.476235,-0.05129 0.967123,-0.139207 l 0.08059,0.637422 q -0.505542,0.09525 -0.99643,0.146533 -0.483561,0.04396 -1.011083,0.06594 -0.520195,0.01465 -1.12831,0.01465 h -0.542176 z m 0,-3.787899 h 3.113844 v 0.622769 h -2.351868 v 3.465525 h -0.761976 z m 10.931423,-0.637422 h 0.761976 v 4.908883 h -0.761976 z m 0.534848,1.985533 h 1.172271 v 0.637422 H 72.43563 Z m -4.007699,3.956413 h 4.513241 v 0.622769 h -4.513241 z m 0,-1.538605 h 0.769302 v 1.809693 h -0.769302 z m 0.871876,-3.949086 q 0.505542,0 0.90851,0.219801 0.402968,0.212474 0.637422,0.593462 0.234454,0.373661 0.234454,0.864549 0,0.483562 -0.234454,0.86455 -0.234454,0.373661 -0.637422,0.593462 -0.402968,0.212474 -0.90851,0.212474 -0.498215,0 -0.901183,-0.212474 -0.402968,-0.219801 -0.637422,-0.593462 -0.234454,-0.380988 -0.234454,-0.86455 0,-0.490888 0.234454,-0.864549 0.234454,-0.380988 0.637422,-0.593462 0.402968,-0.219801 0.901183,-0.219801 z m 0,0.666729 q -0.285741,0 -0.520195,0.124554 -0.234454,0.124553 -0.373661,0.351681 -0.131881,0.227127 -0.131881,0.534848 0,0.300395 0.131881,0.527522 0.139207,0.219801 0.373661,0.344354 0.234454,0.124554 0.520195,0.124554 0.293068,0 0.527522,-0.124554 0.24178,-0.124553 0.373661,-0.344354 0.13188,-0.227127 0.13188,-0.527522 0,-0.307721 -0.13188,-0.534848 -0.131881,-0.227128 -0.373661,-0.351681 -0.234454,-0.124554 -0.527522,-0.124554 z"
           id="text5-9-8"
           aria-label="다안" />
      </g>
    </g>
    <text
       xml:space="preserve"
       transform="matrix(0.31615295,0,0,0.31615295,-10.474341,-6.4462013)"
       id="text6"
       style="font-size:55px;line-height:1.25;font-family:'Microsoft JhengHei';-inkscape-font-specification:'Microsoft JhengHei';white-space:pre;shape-inside:url(#rect6);display:inline" />
  </g>
</svg>
