<?xml version="1.0" encoding="UTF-8" standalone="no"?>
<!-- Created with Inkscape (http://www.inkscape.org/) -->

<svg
   width="500"
   height="250"
   viewBox="0 0 132.29166 66.145833"
   version="1.1"
   id="svg1"
   inkscape:version="1.3.2 (091e20e, 2023-11-25, custom)"
   sodipodi:docname="r05.svg"
   xmlns:inkscape="http://www.inkscape.org/namespaces/inkscape"
   xmlns:sodipodi="http://sodipodi.sourceforge.net/DTD/sodipodi-0.dtd"
   xmlns="http://www.w3.org/2000/svg"
   xmlns:svg="http://www.w3.org/2000/svg">
  <sodipodi:namedview
     id="namedview1"
     pagecolor="#9e652e"
     bordercolor="#ffffff"
     borderopacity="1"
     inkscape:showpageshadow="0"
     inkscape:pageopacity="0"
     inkscape:pagecheckerboard="false"
     inkscape:deskcolor="#d1d1d1"
     inkscape:document-units="mm"
     inkscape:zoom="2.0208096"
     inkscape:cx="221.69333"
     inkscape:cy="158.35238"
     inkscape:window-width="1920"
     inkscape:window-height="1009"
     inkscape:window-x="1912"
     inkscape:window-y="-8"
     inkscape:window-maximized="1"
     inkscape:current-layer="layer1" />
  <defs
     id="defs1">
    <rect
       x="157.85752"
       y="62.351248"
       width="329.07603"
       height="135.09437"
       id="rect4" />
  </defs>
  <g
     inkscape:label="Layer 1"
     inkscape:groupmode="layer"
     id="layer1">
    <path
       id="rect5"
       style="fill:#f4eed7;stroke-width:0.953294"
       d="M -2.5431316e-6,-1.2715658e-6 H 132.29167 V 66.145835 H -2.5431316e-6 Z" />
    <g
       id="g4"
       transform="translate(24.221934,5.7423973)">
      <path
         id="rect6"
         style="fill:#f4eed7;stroke:#000000;stroke-width:0.575409"
         d="m 9.3009131,19.849001 h 5.7010479 c 1.810115,0 3.267355,1.45724 3.267355,3.267355 v 9.524719 c 0,1.810115 -1.45724,3.267355 -3.267355,3.267355 H 9.3009131 c -1.8101145,0 -3.2673547,-1.45724 -3.2673547,-3.267355 v -9.524719 c 0,-1.810115 1.4572402,-3.267355 3.2673547,-3.267355 z" />
      <path
         style="font-weight:bold;font-size:5.82083px;line-height:1.25;font-family:'Optima Bold';-inkscape-font-specification:'Optima Bold,  Bold';stroke-width:0.264583"
         d="m 10.568171,26.948961 v -4.033835 h 0.232833 1.420283 q 0.291041,0.01164 0.506412,0.08149 0.221192,0.06985 0.360892,0.203729 0.139699,0.1397 0.209549,0.314325 0.06985,0.168804 0.06985,0.372533 0,0.197908 -0.05821,0.360891 -0.05239,0.157163 -0.168804,0.273579 -0.110596,0.116417 -0.238654,0.203729 -0.122237,0.08731 -0.256117,0.1397 -0.06403,0.02328 -0.128058,0.04657 -0.05821,0.02328 -0.122237,0.03493 -0.05821,0.01746 -0.116417,0.0291 -0.05821,0.0058 -0.104775,0.01164 l 1.559983,1.961619 h -0.232834 q -0.02328,0 -0.04657,0 -0.01746,0 -0.04075,-0.0058 -0.02328,0 -0.04657,0 -0.01746,-0.0058 -0.03493,-0.01164 -0.01746,0 -0.03492,0 -0.01164,0 -0.02328,0 -0.0058,0 -0.01164,0 -0.0058,0 -0.01746,0 -0.0058,0.0058 -0.01164,0.0058 -0.0058,0 -0.01746,0 -0.04075,0.0058 -0.08731,0.01164 -0.04075,0 -0.08731,0 h -0.232833 l -1.461029,-1.868486 v 1.868486 h -0.232833 q -0.01746,0 -0.03492,0 -0.01746,0 -0.03492,-0.0058 -0.0058,0 -0.01746,0 -0.0058,0 -0.01164,-0.0058 -0.01164,0 -0.01746,0 -0.0058,-0.0058 -0.01746,-0.0058 -0.0058,0 -0.01164,0 -0.0058,0 -0.0058,0 -0.0058,0.0058 -0.01164,0.0058 -0.0058,0 -0.01164,0 -0.03492,0.0058 -0.06985,0.01164 -0.03492,0 -0.06985,0 h -0.232833 v 0 z m 0.779991,-2.153707 q 0.01164,0.01164 0.0291,0.01746 0.01746,0 0.03492,0 0.221191,-0.0058 0.395816,-0.04075 0.174625,-0.03493 0.291041,-0.104775 0.13388,-0.07567 0.221192,-0.157162 0.09313,-0.08731 0.145521,-0.180446 0.04075,-0.06403 0.06403,-0.128058 0.0291,-0.06985 0.03493,-0.128059 0.01164,-0.06403 0.01164,-0.110595 0.0058,-0.04657 0.0058,-0.07567 0,-0.0291 -0.0058,-0.06403 -0.0058,-0.03493 -0.01746,-0.08149 -0.0058,-0.04657 -0.0291,-0.09313 -0.02328,-0.04657 -0.05239,-0.09895 -0.04075,-0.07567 -0.116416,-0.145521 -0.07567,-0.06985 -0.174625,-0.128058 -0.09895,-0.06403 -0.238654,-0.09313 -0.1397,-0.0291 -0.325967,-0.0291 l -0.273579,-0.01164 v 1.653115 0 z"
         id="text6"
         aria-label="R" />
      <path
         style="font-weight:bold;font-size:5.82083px;line-height:1.25;font-family:'Optima Bold';-inkscape-font-specification:'Optima Bold,  Bold';stroke-width:0.264583"
         d="m 8.984904,30.791991 q 0,-0.0058 0,-0.01164 0,-0.01164 0,-0.0291 0,-0.01164 0,-0.0291 0.00582,-0.01746 0.011642,-0.03493 0,-0.07567 0.00582,-0.168804 0.011642,-0.09895 0.017462,-0.215371 0.011642,-0.116416 0.029104,-0.238654 0.023283,-0.128058 0.058208,-0.256116 0.052388,-0.203729 0.1513416,-0.384175 0.098954,-0.186266 0.2444749,-0.34925 0.1396999,-0.168804 0.3667123,-0.250295 0.2270128,-0.08149 0.5355168,-0.08149 l 0.232833,-0.0058 q 0.28522,0.0058 0.49477,0.09313 0.20955,0.08149 0.34925,0.250296 0.1397,0.168804 0.232833,0.355071 0.09895,0.180445 0.151342,0.384175 0.04075,0.151341 0.06403,0.296862 0.02328,0.145521 0.0291,0.2794 0.0058,0.1397 0.0058,0.244475 0.0058,0.09895 0.0058,0.162983 0,0.06985 -0.01164,0.168804 -0.0058,0.09313 -0.01746,0.215371 -0.01164,0.122237 -0.04075,0.250295 -0.02328,0.128058 -0.06403,0.261938 -0.05821,0.192087 -0.162984,0.372533 -0.09895,0.174625 -0.238654,0.331787 -0.1397,0.162983 -0.349249,0.238654 -0.203729,0.07567 -0.477308,0.07567 h -0.232834 -0.01746 -0.01164 -0.01746 -0.01164 q -0.3492497,0 -0.5995454,-0.128058 Q 9.4738537,32.462569 9.3225122,32.194811 9.1769914,31.932874 9.089679,31.641832 9.0081873,31.34497 8.9907248,31.024824 q 0,-0.01164 0,-0.02328 0,-0.01746 0,-0.03493 -0.00582,-0.01164 -0.00582,-0.02328 0,-0.01746 0,-0.0291 0,-0.01164 0,-0.02328 0,-0.01746 0,-0.03492 0,-0.01164 0,-0.02328 0,-0.01746 0,-0.0291 v -0.01164 z m 0.7392454,0.09895 q 0,0.07567 0,0.151342 0.00582,0.07567 0.011642,0.157162 0,0.04075 0.00582,0.08731 0.00582,0.04075 0.011642,0.08149 0.00582,0.04657 0.011642,0.08731 0.011642,0.04075 0.017463,0.08731 0.034925,0.180446 0.098954,0.34925 0.064029,0.162983 0.1571622,0.314325 0.08149,0.128058 0.186267,0.197908 0.110596,0.06985 0.256116,0.09313 0.180446,-0.02328 0.302683,-0.110596 0.128059,-0.09313 0.203729,-0.250295 0.08731,-0.186267 0.1397,-0.384175 0.05821,-0.203729 0.08149,-0.4191 0.0058,-0.04075 0.0058,-0.08149 0.0058,-0.04075 0.0058,-0.08149 0.0058,-0.03493 0.0058,-0.07567 0,-0.04075 0,-0.08149 0,-0.04075 0,-0.07567 0,-0.04075 0.0058,-0.08149 0,-0.03493 0,-0.06985 0,-0.04075 0,-0.07567 0,-0.378353 -0.05821,-0.692678 -0.05239,-0.314325 -0.157162,-0.5588 -0.09313,-0.215371 -0.221192,-0.331787 -0.122237,-0.122238 -0.2794,-0.151342 -0.256116,0.03492 -0.419099,0.192088 -0.1629837,0.151341 -0.2270128,0.42492 -0.075671,0.291042 -0.1105958,0.617008 -0.034925,0.325967 -0.034925,0.686858 z m 3.1665366,1.234016 q 0.06403,0.104775 0.145521,0.186267 0.08731,0.07567 0.197908,0.128058 0.08149,0.04075 0.162983,0.06403 0.08731,0.02328 0.168804,0.03493 0.13388,-0.01746 0.261938,-0.07567 0.133879,-0.05821 0.244475,-0.151341 0.1397,-0.116417 0.20955,-0.302683 0.06985,-0.192088 0.06985,-0.454025 v -0.02328 -0.01746 -0.01164 -0.01746 q -0.01164,-0.244475 -0.08149,-0.4191 -0.06403,-0.174625 -0.180446,-0.2794 -0.09313,-0.08149 -0.192087,-0.128058 -0.09895,-0.04657 -0.215371,-0.06403 -0.05821,0.0058 -0.116417,0.01746 -0.05821,0.01164 -0.116416,0.03493 -0.06403,0.02328 -0.128058,0.05239 -0.05821,0.02328 -0.110596,0.05821 l -0.232833,-0.0058 -0.09313,-0.05239 v -1.920874 h 0.232834 1.926694 q 0,0.01746 0,0.0291 0,0.01164 0,0.01746 -0.0058,0.01164 -0.0058,0.02328 0,0.0058 0,0.01746 0,0.0058 0,0.01746 0,0.01164 0,0.01746 -0.0058,0.01164 -0.0058,0.02328 0,0.0058 0,0.01746 -0.0058,0.02328 -0.01164,0.04657 0,0.01746 0,0.03493 0,0.02328 0,0.04657 0,0.01746 0,0.04075 0,0.01164 0,0.02328 0,0.01164 0,0.02328 l 0.0058,0.03492 q 0,0.01746 0,0.0291 0,0.01164 0.0058,0.02328 0,0.01164 0,0.02328 0.0058,0.01164 0.01164,0.02328 l -0.232833,-0.0058 q -0.06985,-0.01164 -0.151342,-0.02328 -0.08149,-0.01746 -0.168804,-0.0291 -0.08731,-0.01164 -0.192087,-0.01746 -0.104775,-0.01164 -0.221192,-0.01164 l -0.686857,-0.01164 v 1.146703 q 0,0.0058 0,0.0058 0.0058,0 0.01164,-0.0058 0.0058,0 0.0058,0 0.0058,0 0.0058,0 0.07567,-0.01746 0.151341,-0.02328 0.08149,-0.01164 0.168805,-0.01164 l 0.232833,-0.0058 q 0.01164,0.0058 0.02328,0.0058 0.01746,0 0.03492,0 0.01164,0.0058 0.02328,0.0058 0.01746,0 0.03493,0 0.0291,0.0058 0.05821,0.01164 0.0291,0 0.05821,0 0.174625,0.0291 0.337608,0.110596 0.162983,0.07567 0.308504,0.203729 0.151342,0.128058 0.232833,0.331787 0.08149,0.203729 0.104775,0.477308 v 0.0058 0.01164 0.01164 0.01164 q 0,0.2794 -0.116416,0.506412 -0.110596,0.227012 -0.331788,0.407458 -0.221191,0.180446 -0.488949,0.267758 -0.267759,0.08731 -0.576263,0.08731 h -0.232833 q -0.04075,0 -0.08731,0 -0.04075,0 -0.08149,-0.0058 -0.04657,0 -0.08731,-0.0058 -0.04075,-0.0058 -0.08731,-0.01164 -0.04075,-0.0058 -0.08731,-0.01746 -0.04075,-0.01164 -0.08149,-0.02328 -0.04657,-0.01164 -0.08731,-0.01746 -0.04075,-0.01164 -0.08731,-0.0291 -0.0291,-0.01164 -0.05821,-0.01746 -0.0291,-0.01164 -0.05821,-0.02328 -0.0291,-0.01164 -0.05821,-0.02328 -0.0291,-0.01746 -0.05821,-0.03493 l 0.09313,-0.4191 h 0.232834 0.04657 v 0 z"
         id="text6-8"
         aria-label="05" />
    </g>
    <g
       id="g3"
       transform="translate(0,0.54819659)">
      <path
         style="font-weight:bold;font-size:17.9751px;line-height:1.25;font-family:'Noto Serif TC';-inkscape-font-specification:'Noto Serif TC Bold';letter-spacing:3.20983px;stroke-width:0.320983"
         d="m 63.453425,30.556402 c 0.269626,0 0.467352,-0.08987 0.521278,-0.287601 -0.898755,-0.77293 -2.354738,-1.869411 -2.354738,-1.869411 l -1.330158,1.635734 H 56.24541 c 0.125825,-1.455983 0.143801,-2.983866 0.179751,-4.5477 0.431402,-0.0719 0.593178,-0.251651 0.647103,-0.521278 l -3.019816,-0.287601 c 0,1.86941 0.01797,3.66692 -0.107851,5.356579 h -6.668762 l 0.143801,0.521278 h 6.489011 c -0.395452,4.098323 -1.79751,7.657393 -6.794588,10.677209 l 0.161776,0.269627 c 6.524961,-2.570439 8.322471,-6.23736 8.861724,-10.515433 0.485328,3.59502 1.83346,7.962969 6.021659,10.515433 0.197726,-1.222307 0.844829,-1.887386 1.94131,-2.085112 l 0.03595,-0.197726 c -5.033027,-2.031186 -7.118139,-5.338604 -7.747267,-8.663998 z m 18.75829,-2.444613 c -0.10785,0.736979 -0.341527,1.671684 -0.521278,2.282837 l 0.143801,0.125826 c 0.862805,-0.485328 1.995236,-1.330157 2.64234,-1.977261 0.377477,-0.01797 0.557228,-0.0719 0.701029,-0.215701 l -1.959286,-1.851435 -1.114456,1.114456 H 77.61009 c 1.114456,-0.575203 1.222306,-2.696265 -2.588415,-2.947916 L 74.89585,24.76842 c 0.629128,0.593179 1.096481,1.617759 1.060531,2.534489 0.1438,0.125826 0.305576,0.215701 0.449377,0.287602 H 70.797527 C 70.707651,27.248984 70.581826,26.907457 70.42005,26.52998 h -0.251652 c 0.125826,0.95268 -0.467352,1.941311 -1.006605,2.318788 -0.539253,0.305577 -0.898755,0.84483 -0.665079,1.509908 0.287602,0.683054 1.222307,0.80888 1.743585,0.377477 0.557228,-0.431402 0.88078,-1.348132 0.665079,-2.624364 z m -3.810721,5.086953 c -0.323552,1.455983 -0.88078,2.768165 -1.905361,3.972497 -1.06053,-0.215701 -2.246887,-0.395452 -3.612995,-0.557228 0.593179,-1.006606 1.240282,-2.228912 1.851436,-3.415269 z m 3.325393,-0.521278 h -0.790904 c 0.0719,-0.395452 0.143801,-0.808879 0.197726,-1.222307 0.413427,0.01797 0.647104,-0.125825 0.701029,-0.413427 l -3.109692,-0.593178 c -0.03595,0.772929 -0.107851,1.509908 -0.215701,2.228912 H 75.0037 c 0.521278,-1.060531 0.988631,-2.049161 1.330158,-2.732215 0.575203,0.01797 0.736979,-0.161776 0.808879,-0.359502 l -2.929941,-0.88078 c -0.251652,0.862805 -0.88078,2.390688 -1.563834,3.972497 H 68.65849 l 0.161776,0.521278 h 3.59502 c -0.611153,1.348132 -1.258257,2.660315 -1.743585,3.505144 1.72561,0.467353 3.271468,1.006606 4.673526,1.563834 -1.491933,1.204332 -3.59502,2.210937 -6.578886,2.983867 l 0.10785,0.215701 c 3.666921,-0.503303 6.23736,-1.348133 8.052845,-2.516514 1.671684,0.772929 3.001842,1.563833 3.936547,2.282837 1.90536,1.024581 4.6196,-1.707634 -2.336763,-3.595019 1.204331,-1.258257 1.887385,-2.732216 2.300812,-4.43985 h 3.648946 c 0.251651,0 0.449377,-0.08988 0.503302,-0.287602 -0.808879,-0.701029 -2.121061,-1.671684 -2.121061,-1.671684 z"
         id="text7"
         aria-label="大安" />
      <path
         style="font-weight:bold;font-size:7.4343px;line-height:1.25;font-family:'Optima Bold';-inkscape-font-specification:'Optima Bold,  Bold';stroke-width:0.337923"
         d="m 55.778705,44.872726 h 2.401279 q 0.63935,0.01487 1.077973,0.200727 0.446058,0.178423 0.698825,0.535269 0.252766,0.356847 0.379149,0.780602 0.126383,0.41632 0.126383,0.89955 0,0.118949 -0.01487,0.245332 -0.0074,0.126383 -0.02974,0.267635 -0.0223,0.141251 -0.05947,0.282503 -0.02974,0.133817 -0.08178,0.275069 -0.111515,0.297372 -0.304807,0.579876 -0.185857,0.275069 -0.453492,0.535269 -0.267635,0.252766 -0.661653,0.394018 -0.394018,0.141252 -0.906984,0.15612 h -0.297372 -2.170816 v -5.15197 h 0.297372 v 0 z m 0.706259,0.356847 v 4.445711 q 0.08921,0.01487 0.170988,0.0223 0.08921,0.0074 0.170989,0.01487 0.0223,0 0.03717,0 0.0223,0 0.03717,0 0.0223,0.0074 0.03717,0.0074 0.0223,0 0.03717,0 0.602179,-0.01487 1.048237,-0.148686 0.446058,-0.133817 0.721127,-0.386584 0.289937,-0.267634 0.453492,-0.728561 0.170989,-0.460927 0.20816,-1.107711 0,-0.01487 0,-0.02974 0,-0.01487 0.0074,-0.02974 0,-0.01487 0,-0.02974 0,-0.01487 0,-0.02974 0,-0.02974 0,-0.05204 0,-0.02974 0,-0.05947 0,-0.505532 -0.133818,-0.854944 -0.126383,-0.349413 -0.386583,-0.550139 -0.260201,-0.200726 -0.550138,-0.327109 -0.282504,-0.126383 -0.594744,-0.170989 -0.03717,-0.0074 -0.07434,-0.0074 -0.03717,-0.0074 -0.07434,-0.0074 -0.04461,-0.0074 -0.08178,-0.0074 -0.03717,-0.0074 -0.07434,-0.0074 -0.0223,0 -0.04461,0 -0.0223,-0.0074 -0.03717,-0.0074 -0.0223,0 -0.04461,0 -0.0223,0 -0.04461,0 -0.0223,0 -0.0446,0 -0.0223,0 -0.04461,0 -0.02974,0 -0.05204,0.0074 -0.0223,0 -0.04461,0 -0.08178,0.0074 -0.15612,0.01487 -0.07434,0 -0.141252,0.0074 -0.05204,0.0074 -0.09665,0.01487 -0.04461,0 -0.08178,0 -0.03717,0.0074 -0.07434,0.01487 -0.02974,0 -0.05204,0 z m 4.453143,4.795123 2.341804,-5.211444 h 0.297372 0.170989 l 2.289765,5.211444 h -0.297372 q -0.0223,0 -0.05204,0 -0.0223,0 -0.05204,0 -0.02974,0 -0.05947,0 -0.0223,0 -0.05947,0 -0.01487,0 -0.03717,0 -0.01487,0 -0.02974,-0.0074 -0.01487,0 -0.03717,0 -0.01487,0 -0.02974,0 -0.01487,0.0074 -0.03717,0.0074 -0.01487,0 -0.02974,0 -0.01487,0 -0.02974,0 -0.01487,0 -0.0223,0 -0.01487,0 -0.02974,0 -0.0074,0 -0.0223,0 H 64.915457 L 64.097684,47.97283 h -1.516597 l -0.758298,2.051866 h -0.297372 q -0.01487,0 -0.03717,0 -0.01487,0 -0.02974,0 l -0.03717,-0.0074 q -0.0074,0.0074 -0.0223,0.0074 -0.01487,0 -0.0223,0 -0.01487,0 -0.02974,0 -0.0074,0 -0.0223,0 h -0.297372 q -0.0223,0 -0.04461,0 -0.0223,0 -0.04461,0 v 0 z m 1.821403,-2.401279 h 1.219226 l -0.609613,-1.457122 -0.609613,1.457122 z m 3.449513,2.401279 2.341804,-5.211444 h 0.297372 0.170989 l 2.289765,5.211444 h -0.297372 q -0.0223,0 -0.05204,0 -0.0223,0 -0.05204,0 -0.02974,0 -0.05947,0 -0.0223,0 -0.05947,0 -0.01487,0 -0.03717,0 -0.01487,0 -0.02974,-0.0074 -0.01487,0 -0.03717,0 -0.01487,0 -0.02974,0 -0.01487,0.0074 -0.03717,0.0074 -0.01487,0 -0.02974,0 -0.01487,0 -0.02974,0 -0.01487,0 -0.0223,0 -0.01487,0 -0.02974,0 -0.0074,0 -0.0223,0 H 70.186373 L 69.3686,47.97283 h -1.516597 l -0.758298,2.051866 h -0.297372 q -0.01487,0 -0.03717,0 -0.01487,0 -0.02974,0 l -0.03717,-0.0074 q -0.0074,0.0074 -0.0223,0.0074 -0.01487,0 -0.0223,0 -0.01487,0 -0.02974,0 -0.0074,0 -0.0223,0 h -0.297372 q -0.0223,0 -0.04461,0 -0.0223,0 -0.04461,0 v 0 z m 1.821403,-2.401279 h 1.219226 l -0.609613,-1.457122 -0.609613,1.457122 z m 4.088862,2.401279 v -5.15197 h 0.297372 0.356846 l 3.271092,3.598202 v -3.598202 h 0.297372 q 0.01487,0.0223 0.03717,0.02974 0.0223,0.0074 0.04461,0.01487 0.02974,-0.0074 0.05204,-0.01487 0.0223,-0.0074 0.03717,-0.01487 l 0.297372,-0.0074 v 5.144535 h -0.297372 -0.289938 l -3.338,-3.709715 v 3.709715 h -0.297372 q -0.0074,0 -0.01487,0 -0.0074,0 -0.01487,0 -0.01487,0 -0.0223,0 -0.0074,-0.0074 -0.01487,-0.0074 -0.01487,0 -0.02974,0 -0.0074,0 -0.0223,0.0074 -0.01487,0 -0.02974,0 -0.0074,0 -0.0223,0 h -0.297372 v 0 z"
         id="text8"
         aria-label="DAAN" />
      <g
         id="g2"
         transform="translate(-16.356527,-20.141799)">
        <g
           id="g1">
          <path
             style="font-weight:500;font-size:5.82083px;line-height:1.25;font-family:'Noto Sans JP';-inkscape-font-specification:'Noto Sans JP Medium';stroke-width:0.264583"
             d="m 67.817885,36.796375 h 5.145614 v 0.570441 h -5.145614 z m 2.898774,0.227013 q 0.186266,0.686857 0.500591,1.280582 0.320146,0.593725 0.779991,1.041929 0.465667,0.442383 1.076854,0.698499 -0.06985,0.05821 -0.151342,0.151342 -0.07567,0.09313 -0.145521,0.186266 -0.06985,0.09895 -0.116416,0.174625 -0.646112,-0.302683 -1.129241,-0.797453 -0.477308,-0.500592 -0.809096,-1.158346 -0.331787,-0.657753 -0.558799,-1.443565 z m -0.640292,-1.851024 h 0.599546 q 0,0.413279 -0.02328,0.890587 -0.01746,0.471487 -0.08731,0.972078 -0.06985,0.500592 -0.227012,1.001183 -0.157163,0.500591 -0.436563,0.966258 -0.279399,0.465666 -0.715962,0.867303 -0.436562,0.395817 -1.065211,0.692679 -0.06985,-0.110596 -0.186267,-0.244475 -0.116417,-0.128058 -0.232833,-0.21537 0.605366,-0.273579 1.018645,-0.634471 0.4191,-0.366712 0.675216,-0.791633 0.261938,-0.430741 0.401638,-0.890587 0.139699,-0.459845 0.197908,-0.919691 0.05821,-0.459845 0.06985,-0.890587 0.01164,-0.430741 0.01164,-0.803274 z m 5.815009,-0.0058 h 0.587904 v 0.995362 h -0.587904 z m -2.130423,0.576262 h 4.906959 v 1.309687 h -0.582083 v -0.791633 h -3.766077 v 0.791633 h -0.558799 z m 1.909232,0.721783 0.576262,0.122237 q -0.162983,0.34925 -0.34925,0.721783 -0.186266,0.372533 -0.384175,0.750887 -0.192087,0.378354 -0.378354,0.715962 -0.186266,0.337608 -0.337608,0.605367 l -0.576262,-0.151342 q 0.162983,-0.267758 0.34925,-0.605366 0.192087,-0.337608 0.384175,-0.710141 0.197908,-0.378354 0.384175,-0.750888 0.186266,-0.372533 0.331787,-0.698499 z m 1.513416,1.26312 0.611187,0.08731 q -0.180446,0.675217 -0.506412,1.152525 -0.325967,0.471487 -0.791633,0.791633 -0.459846,0.314324 -1.071033,0.506412 -0.611187,0.197908 -1.362074,0.314325 -0.02328,-0.06985 -0.08149,-0.162984 -0.05821,-0.08731 -0.122237,-0.180445 -0.05821,-0.09313 -0.116417,-0.157163 0.9779,-0.110596 1.68222,-0.360891 0.70432,-0.256117 1.140883,-0.733425 0.442383,-0.477308 0.617008,-1.257299 z m -3.568169,-0.355071 h 5.180538 v 0.523875 h -5.180538 z m 0.98372,1.688041 0.389996,-0.389996 q 0.442383,0.122238 0.931333,0.296863 0.49477,0.168804 0.977899,0.366712 0.483129,0.192087 0.908049,0.395816 0.424921,0.203729 0.727604,0.395817 l -0.42492,0.448204 q -0.285221,-0.186267 -0.692679,-0.395817 -0.407458,-0.20955 -0.890587,-0.413279 -0.477308,-0.209549 -0.9779,-0.389995 -0.49477,-0.180446 -0.948795,-0.314325 z"
             id="text9"
             aria-label="大安" />
        </g>
        <path
           style="font-weight:500;font-size:5.82083px;line-height:1.25;font-family:'Noto Sans KR';-inkscape-font-specification:'Noto Sans KR Medium';stroke-width:0.264583"
           d="m 90.556909,35.20729 h 0.611187 v 5.33188 h -0.611187 z m 0.477308,2.043111 h 0.960437 v 0.506413 h -0.960437 z m -3.771898,1.47267 h 0.430741 q 0.477308,0 0.878946,-0.01164 0.401637,-0.01746 0.779991,-0.05239 0.378354,-0.04075 0.768349,-0.110596 l 0.06403,0.506413 q -0.401638,0.07567 -0.791633,0.116416 -0.384175,0.03493 -0.803275,0.05239 -0.413279,0.01164 -0.896408,0.01164 h -0.430741 z m 0,-3.009369 h 2.473853 v 0.494771 h -1.868487 v 2.753252 h -0.605366 z m 8.684679,-0.506412 h 0.605366 v 3.899956 h -0.605366 z m 0.42492,1.577445 h 0.931333 v 0.506412 h -0.931333 z m -3.183994,3.143248 h 3.585632 v 0.494771 h -3.585632 z m 0,-1.222374 h 0.611187 v 1.437745 h -0.611187 z m 0.692679,-3.137428 q 0.401637,0 0.721783,0.174625 0.320146,0.168804 0.506412,0.471488 0.186267,0.296862 0.186267,0.686858 0,0.384174 -0.186267,0.686857 -0.186266,0.296863 -0.506412,0.471488 -0.320146,0.168804 -0.721783,0.168804 -0.395816,0 -0.715962,-0.168804 -0.320146,-0.174625 -0.506412,-0.471488 -0.186267,-0.302683 -0.186267,-0.686857 0,-0.389996 0.186267,-0.686858 0.186266,-0.302684 0.506412,-0.471488 0.320146,-0.174625 0.715962,-0.174625 z m 0,0.529696 q -0.227012,0 -0.413279,0.09895 -0.186266,0.09895 -0.296862,0.2794 -0.104775,0.180446 -0.104775,0.424921 0,0.238654 0.104775,0.419099 0.110596,0.174625 0.296862,0.273579 0.186267,0.09895 0.413279,0.09895 0.232833,0 0.4191,-0.09895 0.192087,-0.09895 0.296862,-0.273579 0.104775,-0.180445 0.104775,-0.419099 0,-0.244475 -0.104775,-0.424921 -0.104775,-0.180446 -0.296862,-0.2794 -0.186267,-0.09895 -0.4191,-0.09895 z"
           id="text9-3"
           aria-label="다안" />
      </g>
    </g>
  </g>
</svg>
