<?xml version="1.0" encoding="UTF-8" standalone="no"?>
<!-- Created with Inkscape (http://www.inkscape.org/) -->

<svg
   width="500"
   height="250"
   viewBox="0 0 132.29166 66.145833"
   version="1.1"
   id="svg1"
   inkscape:version="1.3.2 (091e20e, 2023-11-25, custom)"
   sodipodi:docname="r06.svg"
   xmlns:inkscape="http://www.inkscape.org/namespaces/inkscape"
   xmlns:sodipodi="http://sodipodi.sourceforge.net/DTD/sodipodi-0.dtd"
   xmlns="http://www.w3.org/2000/svg"
   xmlns:svg="http://www.w3.org/2000/svg">
  <sodipodi:namedview
     id="namedview1"
     pagecolor="#9e652e"
     bordercolor="#ffffff"
     borderopacity="1"
     inkscape:showpageshadow="0"
     inkscape:pageopacity="0"
     inkscape:pagecheckerboard="false"
     inkscape:deskcolor="#d1d1d1"
     inkscape:document-units="mm"
     inkscape:zoom="2.0208096"
     inkscape:cx="275.6321"
     inkscape:cy="128.6613"
     inkscape:window-width="1920"
     inkscape:window-height="1009"
     inkscape:window-x="1912"
     inkscape:window-y="-8"
     inkscape:window-maximized="1"
     inkscape:current-layer="layer1" />
  <defs
     id="defs1">
    <rect
       x="560.66638"
       y="34.144731"
       width="279.32397"
       height="128.59143"
       id="rect6" />
    <rect
       x="157.85752"
       y="62.351248"
       width="541.85369"
       height="99.322566"
       id="rect4" />
    <rect
       x="157.85751"
       y="62.35125"
       width="329.07602"
       height="135.09438"
       id="rect4-5" />
  </defs>
  <g
     inkscape:label="Layer 1"
     inkscape:groupmode="layer"
     id="layer1">
    <path
       id="rect5"
       style="fill:#f4eed7;stroke-width:0.953294"
       d="M -2.5431316e-6,-1.2715658e-6 H 132.29167 V 66.145835 H -2.5431316e-6 Z" />
    <g
       id="g1"
       transform="matrix(0.86008697,0,0,0.86008697,1.2990026,4.6273308)"
       style="fill:#000000">
      <g
         id="g2"
         transform="translate(-4.1631059)">
        <path
           id="rect1"
           style="fill-opacity:0;stroke:#000000;stroke-width:0.942789"
           d="m 15.91309,14.352791 h 12.425164 c 3.927062,0 7.088559,3.161497 7.088559,7.088559 v 23.263136 c 0,3.927062 -3.161497,7.088559 -7.088559,7.088559 H 15.91309 c -3.927061,0 -7.0885584,-3.161497 -7.0885584,-7.088559 V 21.44135 c 0,-3.927062 3.1614974,-7.088559 7.0885584,-7.088559 z" />
        <path
           style="font-size:14.2913px;line-height:1.25;font-family:'AR UDJingXiHeiE1G30 EB';-inkscape-font-specification:'AR UDJingXiHeiE1G30 EB';stroke-width:0.297736"
           d="m 24.276514,23.642888 q 0,-0.757439 -0.400157,-1.143304 -0.400156,-0.400156 -1.157595,-0.400156 H 19.61755 v 3.215542 h 3.001173 q 0.743147,0 1.200469,-0.44303 0.457322,-0.44303 0.457322,-1.229052 z m -4.658964,3.07263 v 4.301681 h -1.814995 v -10.33261 h 5.259198 q 1.414839,0 2.243734,0.757439 0.843187,0.743148 0.843187,2.115113 0,0.900351 -0.428739,1.54346 -0.414448,0.643108 -1.043265,0.914643 0.800313,0.457322 1.229052,1.586334 0.428739,1.129013 0.543069,3.415621 H 24.56234 q -0.08575,-2.400938 -0.528779,-3.344164 -0.428739,-0.957517 -1.386256,-0.957517 z"
           id="text2"
           aria-label="R" />
        <path
           style="font-size:14.3917px;line-height:1.25;font-family:'AR UDJingXiHeiE1G30 EB';-inkscape-font-specification:'AR UDJingXiHeiE1G30 EB';stroke-width:0.261667"
           d="m 21.492415,39.692779 q 0,2.720031 -0.877894,4.015284 -0.877893,1.295253 -2.720031,1.295253 -1.784571,0 -2.70564,-1.295253 -0.921068,-1.295253 -0.921068,-4.015284 0,-2.907123 0.877893,-4.173593 0.877894,-1.280861 2.748815,-1.280861 1.827746,0 2.70564,1.280861 0.892285,1.26647 0.892285,4.173593 z m -3.597925,3.885759 q 0.921069,0 1.35282,-0.906677 0.431751,-0.921069 0.431751,-2.979082 0,-2.216322 -0.41736,-3.122999 -0.402967,-0.906677 -1.367211,-0.906677 -0.964244,0 -1.381603,0.921069 -0.41736,0.906677 -0.41736,3.108607 0,2.043622 0.431751,2.96469 0.431751,0.921069 1.367212,0.921069 z m 8.706968,1.424778 q -0.820327,0 -1.496737,-0.230267 -0.662018,-0.230267 -1.136944,-0.733976 -0.575668,-0.59006 -0.863502,-1.597479 -0.287834,-1.021811 -0.287834,-2.532939 0,-2.691248 0.978636,-4.173593 0.993027,-1.496737 2.835165,-1.496737 1.496736,0 2.317063,0.805935 0.834719,0.805935 0.921069,1.986055 h -1.755787 q -0.02878,-0.489318 -0.402968,-0.921069 -0.359792,-0.446143 -1.064986,-0.446143 -0.93546,0 -1.482345,1.021811 -0.532493,1.021811 -0.546884,2.532939 0.431751,-0.59006 1.050594,-0.892285 0.618843,-0.302226 1.395995,-0.302226 1.43917,0 2.259496,0.949852 0.820327,0.935461 0.820327,2.432197 0,1.727004 -0.978635,2.662465 -0.978636,0.93546 -2.561723,0.93546 z m 1.727004,-3.525966 q 0,-0.892285 -0.489318,-1.453562 -0.474926,-0.575668 -1.252078,-0.575668 -0.84911,0 -1.352819,0.546885 -0.489318,0.532493 -0.518101,1.43917 0,1.007419 0.489317,1.583087 0.50371,0.561276 1.367212,0.561276 0.834718,0 1.295253,-0.546884 0.460534,-0.546885 0.460534,-1.554304 z"
           id="text3"
           aria-label="06" />
        <path
           style="font-weight:500;font-size:72px;line-height:1.25;font-family:'Noto Sans TC';-inkscape-font-specification:'Noto Sans TC Medium';white-space:pre"
           d="m 162.17742,94.761406 h 63.648 v 7.056004 h -63.648 z m 35.856,2.808 q 2.304,8.496004 6.192,15.840004 3.96,7.344 9.648,12.888 5.76,5.472 13.32,8.64 -0.864,0.72 -1.872,1.872 -0.936,1.152 -1.8,2.304 -0.864,1.224 -1.44,2.16 -7.992,-3.744 -13.968,-9.864 -5.904,-6.192 -10.008,-14.328 -4.104,-8.136 -6.912,-17.856004 z m -7.92,-22.896 h 7.416 q 0,5.112 -0.288,11.016 -0.216,5.832 -1.08,12.024 -0.864,6.192004 -2.808,12.384004 -1.944,6.192 -5.4,11.952 -3.456,5.76 -8.856,10.728 -5.4,4.896 -13.176,8.568 -0.864,-1.368 -2.304,-3.024 -1.44,-1.584 -2.88,-2.664 7.488,-3.384 12.6,-7.848 5.184,-4.536 8.352,-9.792 3.24,-5.328 4.968,-11.016 1.728,-5.688 2.448,-11.376004 0.72,-5.688 0.864,-11.016 0.144,-5.328 0.144,-9.936 z m 45.936,8.064 h 59.688 v 15.264 h -7.2 v -8.928 h -45.576 v 8.928 h -6.912 z m 41.904,13.968 8.28,0.576 q -1.728,10.944004 -5.184,18.648004 -3.456,7.704 -9.072,12.816 -5.616,5.04 -13.752,8.064 -8.136,3.096 -19.152,4.824 -0.36,-0.864 -1.152,-2.16 -0.72,-1.296 -1.584,-2.52 -0.864,-1.224 -1.584,-2.088 10.728,-1.224 18.432,-3.744 7.704,-2.52 12.816,-6.84 5.112,-4.392 7.992,-11.088 2.88,-6.768 3.96,-16.488004 z m -43.488,6.840004 h 63 v 6.48 h -63 z m 24.912,-27.648004 7.488,-1.8 q 1.296,2.376 2.664,5.256 1.368,2.808 2.088,4.752 l -7.848,2.088 q -0.648,-1.944 -1.944,-4.896 -1.224,-2.952 -2.448,-5.4 z m -16.272,43.848004 4.464,-5.04 q 6.12,1.8 12.888,4.248 6.84,2.448 13.536,5.256 6.768,2.808 12.672,5.76 5.904,2.88 10.152,5.544 l -5.112,5.976 q -3.96,-2.664 -9.648,-5.616 -5.616,-2.952 -12.312,-5.904 -6.624,-3.024 -13.536,-5.616 -6.84,-2.664 -13.104,-4.608 z m 0,0 q 1.944,-2.664 4.104,-6.048 2.232,-3.456 4.248,-7.2 2.088,-3.816 3.888,-7.632004 1.8,-3.816 3.096,-7.344 l 7.848,1.44 q -1.368,3.6 -3.168,7.344004 -1.8,3.744 -3.816,7.416 -2.016,3.6 -3.96,6.84 -1.944,3.24 -3.672,5.76 z m 64.512,-38.016004 h 60.408 v 6.048 h -60.408 z m -1.008,29.448004 h 29.088 v 5.976 h -29.088 z m 31.608,0.216 h 31.176 v 5.976 h -31.176 z m -3.888,-36.864004 h 6.768 v 32.112004 h -6.768 z m -16.056,29.304004 h 6.408 v 37.08 h -6.408 z m 31.176,0 h 6.408 v 37.728 h -6.408 z m -17.496,-20.160004 5.616,2.232 q -3.24,4.536 -7.848,8.496 -4.608,3.96 -10.08,6.984004 -5.4,3.024 -11.016,4.968 -0.432,-0.792 -1.224,-1.8 -0.72,-1.008 -1.512,-1.944 -0.792,-1.008 -1.512,-1.584 5.472,-1.584004 10.728,-4.176004 5.256,-2.592 9.648,-5.976 4.392,-3.384 7.2,-7.2 z m 17.64,31.752004 4.752,1.944 q -2.016,3.888 -5.112,7.632 -3.024,3.672 -6.552,6.768 -3.528,3.024 -7.128,5.04 -0.72,-1.08 -1.944,-2.52 -1.224,-1.44 -2.304,-2.304 3.528,-1.656 6.984,-4.248 3.528,-2.592 6.408,-5.76 2.952,-3.168 4.896,-6.552 z m 6.048,0.216 q 1.872,2.952 4.608,5.976 2.808,2.952 5.904,5.472 3.096,2.52 6.048,4.176 -1.224,0.936 -2.592,2.52 -1.368,1.512 -2.304,2.808 -2.736,-2.088 -5.76,-5.256 -2.952,-3.168 -5.616,-6.768 -2.664,-3.672 -4.464,-7.2 z m -36.648,-0.648 4.176,2.232 q -1.8,3.6 -4.464,7.344 -2.592,3.672 -5.616,6.84 -2.952,3.096 -6.12,5.04 -0.432,-1.296 -1.296,-3.096 -0.864,-1.8 -1.584,-3.024 2.88,-1.656 5.688,-4.104 2.88,-2.448 5.256,-5.4 2.376,-2.952 3.96,-5.832 z m 5.112,2.304 q 0.864,0.504 2.592,1.656 1.8,1.152 3.744,2.52 2.016,1.296 3.672,2.52 1.656,1.224 2.448,1.8 l -5.184,3.528 q -0.936,-0.864 -2.52,-2.16 -1.584,-1.368 -3.384,-2.736 -1.8,-1.44 -3.528,-2.664 -1.656,-1.296 -2.808,-2.016 z m 16.992,-32.184004 q 1.656,0.72 4.608,2.16 3.024,1.368 6.552,3.168 3.6,1.728 7.056,3.528 3.528,1.728 6.264,3.168 2.736,1.44 3.96,2.16 l -2.232,6.408004 q -1.728,-1.224 -4.536,-2.88 -2.808,-1.728 -6.12,-3.672004 -3.24,-1.944 -6.624,-3.816 -3.312,-1.944 -6.264,-3.6 -2.952,-1.656 -4.968,-2.664 z m 68.112,4.752 h 32.616 v 6.48 h -32.616 z m 12.528,-15.264 h 6.768 v 66.816004 h -6.768 z m -0.288,18.288 5.112,1.728 q -1.368,5.112 -3.312,10.296004 -1.944,5.184 -4.392,10.08 -2.448,4.824 -5.256,9 -2.736,4.104 -5.688,7.128 -0.648,-1.512 -1.872,-3.24 -1.152,-1.728 -2.088,-2.952 2.808,-2.736 5.472,-6.336 2.664,-3.672 4.968,-7.92 2.304,-4.248 4.104,-8.784 1.872,-4.536004 2.952,-9.000004 z m 7.632,0 q 1.512,5.904 3.816,11.808004 2.376,5.904 5.184,11.016 2.88,5.112 5.976,8.496 -1.224,0.936 -2.736,2.448 -1.512,1.512 -2.448,2.88 -2.952,-4.032 -5.76,-9.792 -2.736,-5.76 -4.968,-12.384 -2.232,-6.624 -3.744,-13.176004 z m -51.552,-3.024 h 28.944 v 6.48 h -28.944 z m 12.312,-15.264 h 6.696 v 66.816004 h -6.696 z m -0.432,19.368 4.536,1.656 q -1.08,4.392004 -2.664,9.072004 -1.512,4.68 -3.456,9.144 -1.872,4.464 -4.104,8.28 -2.16,3.816 -4.464,6.48 -0.576,-1.44 -1.656,-3.312 -1.08,-1.872 -1.944,-3.168 2.16,-2.448 4.248,-5.688 2.088,-3.24 3.888,-6.984 1.872,-3.816 3.312,-7.776 1.44,-3.960004 2.304,-7.704004 z m 6.984,3.672 q 0.72,0.576 1.872,1.944 1.224,1.296004 2.664,2.880004 1.44,1.584 2.808,3.24 1.44,1.656 2.592,3.024 1.152,1.296 1.656,1.872 l -4.392,5.904 q -0.864,-1.512 -2.304,-3.6 -1.368,-2.088 -3.024,-4.32 -1.584,-2.232 -3.096,-4.248 -1.44,-2.016 -2.448,-3.24 z m 92.88,18.216004 6.552,-2.952 q 2.952,3.888 6.048,8.352 3.096,4.464 5.76,8.712 2.664,4.248 4.392,7.56 l -6.912,3.744 q -1.656,-3.384 -4.32,-7.776 -2.592,-4.464 -5.688,-9.072 -3.024,-4.608 -5.832,-8.568 z m -21.312,-39.312004 7.56,2.376 q -2.592,5.976 -6.12,11.736 -3.456,5.76 -7.416,10.800004 -3.888,4.968 -7.92,8.712 -0.576,-0.792 -1.728,-1.872 -1.08,-1.08 -2.232,-2.088 -1.152,-1.08 -2.088,-1.728 3.96,-3.312 7.704,-7.776004 3.744,-4.464 6.84,-9.648 3.168,-5.184 5.4,-10.512 z m -10.656,61.848004 q -0.288,-0.792 -0.792,-2.16 -0.432,-1.296 -0.936,-2.736 -0.504,-1.44 -1.08,-2.448 1.656,-0.432 3.24,-1.944 1.584,-1.584 3.744,-4.104 1.152,-1.224 3.24,-3.96 2.16,-2.808 4.752,-6.696 2.592,-3.888 5.256,-8.352 2.664,-4.464 4.824,-9.000004 l 7.848,3.312004 q -3.528,6.264 -7.632,12.456 -4.104,6.12 -8.496,11.664 -4.32,5.472 -8.64,9.864 v 0.216 q 0,0 -0.864,0.432 -0.792,0.36 -1.872,0.936 -1.008,0.576 -1.8,1.224 -0.792,0.72 -0.792,1.296 z m 0,0 -0.216,-5.76 4.752,-2.664 41.976,-2.52 q 0.216,1.584 0.648,3.456 0.504,1.872 0.864,3.024 -10.08,0.72 -17.352,1.296 -7.272,0.504 -12.312,0.864 -4.968,0.432 -8.208,0.72 -3.24,0.288 -5.184,0.504 -1.944,0.288 -3.096,0.504 -1.08,0.216 -1.872,0.576 z m 31.968,-61.992004 h 8.064 q 1.656,5.472 4.464,10.656 2.808,5.112 6.48,9.36 3.672,4.248004 7.992,6.984004 -0.792,0.72 -1.8,1.944 -1.008,1.152 -1.944,2.448 -0.864,1.224 -1.512,2.304 -4.464,-3.456 -8.352,-8.208 -3.888,-4.824004 -6.912,-10.368004 -2.952,-5.544 -4.824,-11.232 h -1.656 z m -9.792,0 h 15.48 v 7.056 h -15.48 z m 53.424,19.872 h 41.544 v 4.032004 h -41.544 z m 3.888,-7.704 h 34.272 v 3.96 h -34.272 z m 13.68,-3.6 h 6.192 v 13.68 h -6.192 z m -0.216,25.992004 4.68,1.728 q -2.376,2.088 -5.832,3.96 -3.456,1.8 -7.272,3.312 -3.744,1.44 -7.344,2.448 -0.288,-0.504 -0.936,-1.152 -0.576,-0.72 -1.224,-1.44 -0.648,-0.792 -1.224,-1.224 3.528,-0.864 7.128,-1.944 3.6,-1.152 6.768,-2.592 3.168,-1.44 5.256,-3.096 z m 20.232,3.6 4.248,2.664 q -2.376,1.728 -5.112,3.24 -2.736,1.512 -5.112,2.592 l -3.456,-2.376 q 1.512,-0.792 3.24,-1.872 1.8,-1.08 3.384,-2.16 1.656,-1.152 2.808,-2.088 z m -27.648,-8.568 v 4.104 h 21.816 v -4.104 z m -5.688,-3.312 h 33.552 v 10.656 h -33.552 z m -13.752,-25.056004 h 60.912 v 63.936004 h -6.696 V 83.817406 h -47.736 v 57.744004 h -6.48 z m 4.104,54.864004 h 53.712 v 6.192 h -53.712 z m 24.552,-15.624 4.176,-2.376 q 3.096,1.728 6.624,4.032 3.528,2.304 6.768,4.608 3.24,2.232 5.4,4.032 l -4.464,2.808 q -1.944,-1.8 -5.112,-4.104 -3.096,-2.376 -6.624,-4.68 -3.528,-2.376 -6.768,-4.32 z m -11.592,15.192 -0.288,-3.888 2.16,-1.8 14.112,-3.312 q -0.072,1.008 -0.072,2.232 0,1.224 0.072,2.016 -4.824,1.224 -7.848,2.088 -2.952,0.792 -4.608,1.296 -1.656,0.504 -2.376,0.864 -0.72,0.288 -1.152,0.504 z m 0,0 q -0.216,-0.864 -0.792,-2.016 -0.504,-1.224 -0.936,-1.8 0.792,-0.36 1.656,-1.152 0.936,-0.864 0.936,-2.808 v -8.136 h 5.04 v 11.88 q 0,0 -0.936,0.432 -0.864,0.36 -2.016,1.008 -1.152,0.576 -2.088,1.296 -0.864,0.648 -0.864,1.296 z"
           id="text4"
           transform="matrix(0.26166763,0,0,0.26166763,-2.1314997,-4.0633201)"
           aria-label="大安森林公園" />
        <path
           style="font-size:7.32669px;line-height:1.25;font-family:'AR UDJingXiHeiE1G30 EB';-inkscape-font-specification:'AR UDJingXiHeiE1G30 EB';stroke-width:0.261667"
           d="m 44.905189,38.175543 q 0,1.318805 -0.622769,2.01484 -0.615442,0.696036 -1.721772,0.696036 h -2.1687 v -5.297197 h 2.1687 q 1.10633,0 1.721772,0.652075 0.622769,0.652076 0.622769,1.934246 z m -0.967123,0 q 0,-0.959796 -0.395641,-1.406724 -0.388315,-0.454255 -1.135637,-0.454255 h -1.084351 v 3.846512 h 1.091677 q 0.718016,0 1.120984,-0.476234 0.402968,-0.476235 0.402968,-1.509299 z m 4.806302,0.571482 -0.835242,-2.263947 -0.849896,2.263947 z m -1.956226,0.725343 -0.527522,1.414051 h -0.945143 l 2.132067,-5.297197 h 0.95247 l 2.117413,5.297197 h -0.967123 l -0.534848,-1.414051 z m 7.15817,-0.725343 -0.835243,-2.263947 -0.849896,2.263947 z m -1.956227,0.725343 -0.527521,1.414051 h -0.945143 l 2.132067,-5.297197 h 0.952469 l 2.117414,5.297197 h -0.967123 l -0.534849,-1.414051 z m 5.267884,-2.410482 v 3.824533 h -0.93049 v -5.297197 h 0.959797 l 2.600975,3.912452 v -3.912452 h 0.93049 v 5.297197 h -1.01841 z m 7.627073,1.721773 v 2.10276 h -0.930489 v -5.297197 h 2.491074 q 0.77663,0 1.216231,0.424948 0.439601,0.424948 0.439601,1.12831 0,0.791283 -0.454254,1.216231 -0.446929,0.424948 -1.208904,0.424948 z m 2.271274,-1.626526 q 0,-0.410294 -0.234454,-0.622768 -0.234454,-0.219801 -0.688709,-0.219801 h -1.348111 v 1.743752 h 1.348111 q 0.454255,0 0.688709,-0.2198 0.234454,-0.227128 0.234454,-0.681383 z m 4.659773,1.589892 -0.835243,-2.263947 -0.849896,2.263947 z m -1.956227,0.725343 -0.527521,1.414051 h -0.945144 l 2.132067,-5.297197 h 0.95247 l 2.117414,5.297197 h -0.967124 l -0.534848,-1.414051 z m 7.656386,-2.366521 q 0,-0.388315 -0.205148,-0.586136 -0.205147,-0.205147 -0.593461,-0.205147 h -1.589892 v 1.648505 h 1.538605 q 0.380988,0 0.615442,-0.227127 0.234454,-0.227127 0.234454,-0.630095 z m -2.388501,1.575238 v 2.205334 h -0.93049 v -5.297197 h 2.696222 q 0.725342,0 1.15029,0.388314 0.432275,0.380988 0.432275,1.08435 0,0.461582 -0.2198,0.791283 -0.212475,0.329701 -0.534849,0.468908 0.410295,0.234454 0.630095,0.813263 0.219801,0.578808 0.278415,1.751079 h -0.967123 q -0.04396,-1.230884 -0.271088,-1.714446 -0.219801,-0.490888 -0.710689,-0.490888 z m 5.355816,0.380988 v 1.824346 h -0.93049 v -5.297197 h 0.93049 v 2.395827 l 2.32256,-2.395827 h 1.135637 l -2.139393,2.14672 2.219987,3.150477 h -1.12831 l -1.714446,-2.542362 z"
           id="text5"
           aria-label="DAAN PARK" />
        <path
           d="m 40.093948,45.454197 h 6.476794 v 0.718015 h -6.476794 z m 3.648692,0.285741 q 0.234454,0.864549 0.630095,1.611872 0.402968,0.747322 0.981776,1.311477 0.586136,0.556829 1.355438,0.879203 -0.08792,0.07327 -0.190494,0.190494 -0.09525,0.117227 -0.183167,0.234454 -0.08792,0.124554 -0.146534,0.219801 -0.813262,-0.380988 -1.421378,-1.003757 -0.600788,-0.630095 -1.01841,-1.458011 -0.417621,-0.827916 -0.703362,-1.817019 z M 42.936704,43.41005 h 0.754649 q 0,0.520195 -0.02931,1.120984 -0.02198,0.593462 -0.1099,1.223557 -0.08792,0.630095 -0.285741,1.260191 -0.197821,0.630095 -0.549502,1.21623 -0.351681,0.586136 -0.901183,1.091677 -0.549502,0.498215 -1.340784,0.871876 -0.08792,-0.139207 -0.234454,-0.307721 -0.146534,-0.161187 -0.293068,-0.271087 0.761976,-0.344355 1.282171,-0.798609 0.527522,-0.461582 0.849896,-0.99643 0.329701,-0.542175 0.505542,-1.120984 0.17584,-0.578808 0.249107,-1.157617 0.07327,-0.578809 0.08792,-1.120984 0.01465,-0.542175 0.01465,-1.011083 z m 7.319363,-0.0073 h 0.739996 v 1.252865 h -0.739996 z m -2.681568,0.725343 h 6.176399 v 1.648505 h -0.732669 v -0.99643 h -4.740368 v 0.99643 h -0.703362 z m 2.403154,0.908509 0.725342,0.153861 q -0.205147,0.439601 -0.439601,0.908509 -0.234454,0.468909 -0.483562,0.945144 -0.24178,0.476234 -0.476235,0.901182 -0.234454,0.424948 -0.424948,0.761976 l -0.725342,-0.190494 q 0.205147,-0.337028 0.439602,-0.761976 0.24178,-0.424948 0.483561,-0.893856 0.249108,-0.476235 0.483562,-0.945143 0.234454,-0.468908 0.417621,-0.879203 z m 1.904939,1.589892 0.769303,0.109901 q -0.227128,0.849896 -0.637422,1.450684 -0.410295,0.593462 -0.99643,0.99643 -0.578809,0.395641 -1.348111,0.637422 -0.769303,0.249108 -1.714446,0.395641 -0.02931,-0.08792 -0.102573,-0.205147 -0.07327,-0.1099 -0.153861,-0.227127 -0.07327,-0.117227 -0.146534,-0.197821 1.230884,-0.139207 2.117414,-0.454255 0.886529,-0.322374 1.436031,-0.923163 0.556829,-0.600788 0.776629,-1.582565 z m -4.491261,-0.446928 h 6.520755 v 0.659402 h -6.520755 z m 1.238211,2.12474 0.490888,-0.490888 q 0.556829,0.15386 1.172271,0.373661 0.622768,0.212474 1.230884,0.461582 0.608115,0.24178 1.142963,0.498215 0.534849,0.256434 0.915837,0.498215 l -0.534849,0.564155 Q 52.688528,49.974765 52.17566,49.711004 51.662792,49.447243 51.054676,49.190809 50.453888,48.927048 49.823792,48.69992 49.201024,48.472793 48.629542,48.304279 Z m 6.432834,-4.110273 h 5.846699 v 0.615442 h -5.846699 z m -0.395641,3.062557 h 2.974636 v 0.608115 h -2.974636 z m 3.25305,0 h 3.384931 v 0.608115 h -3.384931 z m -0.329701,-3.861166 h 0.696036 v 3.260377 h -0.696036 z m -1.626525,3.018596 h 0.652075 v 3.795226 h -0.652075 z m 3.172457,0 h 0.659402 v 3.795226 h -0.659402 z m -1.765733,-2.088107 0.564156,0.219801 q -0.300395,0.454255 -0.739996,0.857223 -0.432275,0.395641 -0.95247,0.710689 -0.512868,0.307721 -1.047717,0.505541 -0.07327,-0.117227 -0.205147,-0.278414 -0.124554,-0.161187 -0.227127,-0.256434 0.512868,-0.15386 1.011083,-0.417621 0.505542,-0.271088 0.915836,-0.615442 0.417622,-0.351681 0.681382,-0.725343 z m 1.084351,0 q 0.28574,0.366335 0.725342,0.703363 0.446928,0.329701 0.97445,0.586135 0.527521,0.256434 1.069696,0.410295 -0.06594,0.06594 -0.15386,0.168513 -0.08792,0.09525 -0.161187,0.205148 -0.07327,0.1099 -0.131881,0.19782 -0.549501,-0.19782 -1.08435,-0.505541 -0.534848,-0.307721 -0.989103,-0.703362 -0.454255,-0.395642 -0.769302,-0.849897 z m 0.534848,3.069884 0.512868,0.146533 q -0.183167,0.483562 -0.446928,0.937817 -0.263761,0.454255 -0.593462,0.820589 -0.322374,0.366335 -0.696035,0.608115 -0.07327,-0.1099 -0.197821,-0.26376 -0.124554,-0.146534 -0.227127,-0.234455 0.344354,-0.19782 0.659402,-0.512868 0.322374,-0.322374 0.578808,-0.703362 0.256434,-0.388315 0.410295,-0.798609 z m 0.915836,0.06594 q 0.175841,0.359008 0.432275,0.718015 0.256434,0.359008 0.556828,0.659403 0.307721,0.300394 0.600789,0.498215 -0.1099,0.09525 -0.256434,0.256434 -0.139207,0.161187 -0.234454,0.293067 -0.293068,-0.249107 -0.578809,-0.615442 -0.285741,-0.366334 -0.534848,-0.798609 -0.249108,-0.432275 -0.417622,-0.857223 z m -4.000373,-0.02198 0.476235,0.183167 q -0.168514,0.432275 -0.410294,0.857223 -0.241781,0.424948 -0.534849,0.783956 -0.293067,0.351681 -0.637422,0.578808 -0.03663,-0.146534 -0.13188,-0.329701 -0.09525,-0.183167 -0.168514,-0.315048 0.285741,-0.183167 0.556828,-0.461581 0.271088,-0.278414 0.490889,-0.615442 0.2198,-0.337028 0.359007,-0.681382 z m 0.615442,0.512868 q 0.08059,0.04396 0.241781,0.153861 0.161187,0.102573 0.337028,0.227127 0.183167,0.124554 0.337028,0.234454 0.15386,0.102574 0.212474,0.153861 L 57.24573,49.242096 Q 57.157809,49.146849 57.018602,49.014968 56.879395,48.875761 56.710881,48.729227 56.549694,48.582693 56.395834,48.45814 56.2493,48.326259 56.154053,48.252992 Z m 8.711434,-2.996616 h 3.318991 v 0.659402 h -3.318991 z m 1.274845,-1.553259 h 0.688708 v 6.799169 h -0.688708 z m -0.02931,1.86098 0.520195,0.17584 q -0.139207,0.520195 -0.337028,1.047717 -0.197821,0.527522 -0.446928,1.025737 -0.249108,0.490888 -0.534848,0.915836 -0.278415,0.417621 -0.578809,0.725342 -0.06594,-0.15386 -0.190494,-0.329701 -0.117227,-0.17584 -0.212474,-0.300394 0.285741,-0.278414 0.556829,-0.644749 0.271087,-0.373661 0.505541,-0.805936 0.234454,-0.432274 0.417622,-0.893856 0.190493,-0.461581 0.300394,-0.915836 z m 0.776629,0 q 0.15386,0.600788 0.388315,1.201577 0.24178,0.600789 0.527521,1.120984 0.293068,0.520195 0.608116,0.864549 -0.124554,0.09525 -0.278415,0.249107 -0.15386,0.153861 -0.249107,0.293068 -0.300394,-0.410295 -0.586135,-0.99643 -0.278415,-0.586135 -0.505542,-1.26019 -0.227127,-0.674056 -0.380988,-1.340785 z m -5.24591,-0.307721 h 2.945329 v 0.659402 h -2.945329 z m 1.252864,-1.553259 h 0.681382 v 6.799169 h -0.681382 z m -0.04396,1.97088 0.461581,0.168514 q -0.1099,0.446928 -0.271087,0.923163 -0.153861,0.476235 -0.351682,0.93049 -0.190493,0.454254 -0.417621,0.842569 -0.219801,0.388315 -0.454255,0.659402 -0.05861,-0.146534 -0.168514,-0.337028 -0.1099,-0.190494 -0.19782,-0.322374 0.219801,-0.249107 0.432275,-0.578809 0.212474,-0.329701 0.395641,-0.710688 0.190494,-0.388315 0.337028,-0.791283 0.146533,-0.402968 0.234454,-0.783956 z m 0.710689,0.373661 q 0.07327,0.05861 0.190494,0.197821 0.124553,0.13188 0.271087,0.293068 0.146534,0.161187 0.285741,0.329701 0.146534,0.168514 0.263761,0.307721 0.117227,0.13188 0.168514,0.190494 l -0.446928,0.600788 q -0.08792,-0.15386 -0.234454,-0.366334 -0.139208,-0.212474 -0.307721,-0.439602 -0.161188,-0.227127 -0.315048,-0.432274 -0.146534,-0.205148 -0.249108,-0.329702 z m 8.037379,0.322375 0.82059,0.205147 q -0.168514,0.424948 -0.373662,0.871876 -0.205147,0.446928 -0.424948,0.893856 -0.212474,0.439602 -0.432274,0.84257 -0.219801,0.395641 -0.417622,0.725342 l -0.644748,-0.205147 q 0.19782,-0.337028 0.402967,-0.747323 0.212474,-0.417621 0.410295,-0.864549 0.197821,-0.446928 0.366335,-0.88653 0.17584,-0.439601 0.293067,-0.835242 z m -2.351867,3.12117 q 0.512868,-0.02198 1.15029,-0.04396 0.637422,-0.02198 1.348111,-0.05129 0.718016,-0.03663 1.465338,-0.07327 0.747322,-0.03663 1.479991,-0.06594 l -0.02198,0.666728 q -0.945143,0.05861 -1.912266,0.109901 -0.967123,0.05861 -1.846326,0.102573 -0.879202,0.05129 -1.567911,0.08792 z m 3.765918,-1.509298 0.666729,-0.307721 q 0.329701,0.388314 0.659402,0.842569 0.337028,0.446928 0.622769,0.879203 0.285741,0.424948 0.468908,0.769302 L 75.08622,50.245852 Q 74.917706,49.901498 74.639292,49.45457 74.360878,49.007641 74.031177,48.54606 73.701476,48.077152 73.379101,47.681511 Z m -2.1687,-4.080967 0.783956,0.219801 q -0.241781,0.586135 -0.571482,1.142963 -0.322374,0.556829 -0.696035,1.040391 -0.366335,0.476234 -0.754649,0.827915 -0.06594,-0.07327 -0.190494,-0.168513 -0.124554,-0.09525 -0.256435,-0.190494 -0.124553,-0.09525 -0.2198,-0.146534 0.395641,-0.322374 0.747322,-0.754649 0.359008,-0.432275 0.659402,-0.937817 0.300395,-0.505541 0.498215,-1.033063 z m 2.769489,0.0073 q 0.168514,0.344354 0.410295,0.710689 0.24178,0.359008 0.512868,0.718015 0.278414,0.351682 0.556828,0.659403 0.285741,0.307721 0.534849,0.542175 -0.08792,0.06594 -0.205147,0.17584 -0.109901,0.102574 -0.212474,0.219801 -0.09525,0.1099 -0.168514,0.205147 Q 75.15216,46.567854 74.86642,46.216173 74.588005,45.864491 74.302264,45.476177 74.016523,45.080536 73.752763,44.677568 73.496328,44.2746 73.283854,43.886285 Z m 3.839184,2.000186 h 4.227501 v 0.410295 h -4.227501 z m 0.395642,-0.783956 h 3.487504 v 0.402968 h -3.487504 z m 1.392071,-0.366334 h 0.630095 v 1.392071 h -0.630095 z m -0.08792,3.128497 h 0.615442 v 1.516624 h -0.615442 z m 0.674056,-0.131881 q 0.197821,0.256434 0.520195,0.490888 0.322374,0.227128 0.710689,0.410295 0.388314,0.175841 0.783956,0.271088 -0.08792,0.08059 -0.197821,0.2198 -0.102574,0.131881 -0.161187,0.227128 Q 81.438459,48.941701 81.035491,48.721901 80.63985,48.5021 80.302822,48.223686 79.965794,47.937945 79.738667,47.622897 Z m -0.285741,-0.249107 0.534848,0.190494 q -0.278414,0.322374 -0.674055,0.608115 -0.395641,0.278414 -0.835243,0.505542 -0.439601,0.227127 -0.871876,0.395641 -0.04396,-0.06594 -0.117227,-0.146534 -0.06594,-0.08792 -0.139207,-0.168514 -0.07327,-0.08792 -0.131881,-0.139207 0.424948,-0.13188 0.849897,-0.315048 0.424948,-0.190494 0.783955,-0.424948 0.366335,-0.234454 0.600789,-0.505541 z m 1.692465,0.183167 0.424948,0.263761 q -0.234454,0.19782 -0.520195,0.380988 -0.278414,0.17584 -0.520195,0.300394 l -0.351681,-0.241781 q 0.153861,-0.09525 0.329701,-0.2198 0.183168,-0.124554 0.351681,-0.249108 0.168514,-0.13188 0.285741,-0.234454 z m -2.769488,-0.703362 v 0.498215 h 2.219987 v -0.498215 z m -0.578809,-0.373662 h 3.414238 v 1.252865 h -3.414238 z m -1.399398,-2.600975 h 6.19838 v 6.506101 H 82.368949 V 44.34054 h -4.857596 v 5.876005 h -0.659402 z m 0.417622,5.582938 h 5.46571 v 0.630096 h -5.46571 z"
           id="text5-9"
           style="font-weight:500;font-size:7.32669px;line-height:1.25;font-family:'Noto Sans JP';-inkscape-font-specification:'Noto Sans JP Medium';stroke-width:0.261667"
           aria-label="大安森林公園" />
        <path
           style="font-weight:500;font-size:7.32669px;line-height:1.25;font-family:'Noto Sans KR';-inkscape-font-specification:'Noto Sans KR Medium';stroke-width:0.261667"
           d="m 94.648249,43.584846 h 0.769302 v 6.711249 h -0.769302 z m 0.600788,2.571669 h 1.208904 v 0.637422 h -1.208904 z m -4.747695,1.853652 h 0.542175 q 0.600789,0 1.10633,-0.01465 0.505542,-0.02198 0.981777,-0.06594 0.476235,-0.05129 0.967123,-0.139207 l 0.08059,0.637422 q -0.505541,0.09525 -0.996429,0.146533 -0.483562,0.04396 -1.011084,0.06594 -0.520195,0.01465 -1.12831,0.01465 h -0.542175 z m 0,-3.787899 h 3.113843 v 0.622769 h -2.351867 v 3.465525 h -0.761976 z m 10.931418,-0.637422 h 0.76198 v 4.908883 h -0.76198 z m 0.53485,1.985533 h 1.17227 v 0.637422 h -1.17227 z m -4.007697,3.956413 h 4.513237 v 0.622769 h -4.513237 z m 0,-1.538605 h 0.769303 v 1.809693 h -0.769303 z m 0.871876,-3.949086 q 0.505542,0 0.90851,0.219801 0.402971,0.212474 0.637421,0.593462 0.23446,0.373661 0.23446,0.864549 0,0.483562 -0.23446,0.86455 -0.23445,0.373661 -0.637421,0.593462 -0.402968,0.212474 -0.90851,0.212474 -0.498214,0 -0.901182,-0.212474 -0.402968,-0.219801 -0.637422,-0.593462 -0.234455,-0.380988 -0.234455,-0.86455 0,-0.490888 0.234455,-0.864549 0.234454,-0.380988 0.637422,-0.593462 0.402968,-0.219801 0.901182,-0.219801 z m 0,0.666729 q -0.28574,0 -0.520195,0.124554 -0.234454,0.124553 -0.373661,0.351681 -0.13188,0.227127 -0.13188,0.534848 0,0.300395 0.13188,0.527522 0.139207,0.219801 0.373661,0.344354 0.234455,0.124554 0.520195,0.124554 0.293068,0 0.527522,-0.124554 0.241781,-0.124553 0.373661,-0.344354 0.131881,-0.227127 0.131881,-0.527522 0,-0.307721 -0.131881,-0.534848 -0.13188,-0.227128 -0.373661,-0.351681 -0.234454,-0.124554 -0.527522,-0.124554 z m 8.513621,-0.776629 h 0.63009 v 0.622768 q 0,0.644749 -0.2198,1.216231 -0.21247,0.564155 -0.63009,0.989103 -0.4103,0.417622 -1.01108,0.637422 l -0.4103,-0.608115 q 0.53485,-0.190494 0.90118,-0.527522 0.36634,-0.344354 0.54951,-0.783956 0.19049,-0.446928 0.19049,-0.923163 z m 0.14653,0 h 0.62277 v 0.608115 q 0,0.329701 0.10258,0.644749 0.1099,0.315048 0.30772,0.593462 0.19782,0.271087 0.49088,0.490888 0.3004,0.212474 0.67406,0.344354 l -0.40297,0.600789 q -0.56415,-0.212474 -0.96712,-0.608115 -0.40297,-0.402968 -0.61544,-0.93049 -0.21248,-0.534848 -0.21248,-1.135637 z m 2.73286,-0.337028 h 0.76197 v 3.890473 h -0.76197 z m 0.55683,1.589892 h 1.15029 v 0.637422 h -1.15029 z m -4.06632,2.593648 h 4.27146 v 2.425135 h -4.27146 z m 3.52414,0.608115 h -2.76949 v 1.208904 h 2.76949 z m 7.01165,-4.791655 h 0.7693 v 3.963739 h -0.7693 z m -4.40335,3.069883 h 0.55683 q 0.6301,0 1.15029,-0.01465 0.52752,-0.01465 1.01109,-0.05861 0.48356,-0.04396 0.99643,-0.124553 l 0.0879,0.615442 q -0.52752,0.08059 -1.02574,0.13188 -0.49821,0.04396 -1.04039,0.05861 -0.53485,0.01465 -1.1796,0.01465 h -0.55683 z m -0.0147,-2.681568 h 3.06256 v 1.919592 h -2.29326 v 1.135637 h -0.75465 v -1.721772 h 2.29326 V 44.59593 h -2.30791 z m 0.81326,3.919779 h 4.37404 v 2.300581 h -4.37404 z m 3.62672,0.600788 h -2.87939 v 1.091677 h 2.87939 z m 7.01897,-0.710688 q 0.71802,0 1.24554,0.15386 0.52752,0.146534 0.81326,0.424948 0.29307,0.278414 0.29307,0.666729 0,0.388314 -0.29307,0.666729 -0.28574,0.278414 -0.81326,0.424948 -0.52752,0.146534 -1.24554,0.146534 -0.71802,0 -1.24554,-0.146534 -0.52752,-0.146534 -0.82059,-0.424948 -0.28574,-0.278415 -0.28574,-0.666729 0,-0.388315 0.28574,-0.666729 0.29307,-0.278414 0.82059,-0.424948 0.52752,-0.15386 1.24554,-0.15386 z m 0,0.586135 q -0.49089,0 -0.8499,0.07327 -0.35168,0.07327 -0.54217,0.227127 -0.19049,0.146534 -0.19049,0.359008 0,0.205147 0.19049,0.351681 0.19049,0.146534 0.54217,0.227127 0.35901,0.08059 0.8499,0.08059 0.49822,0 0.8499,-0.08059 0.35168,-0.08059 0.54217,-0.227127 0.19782,-0.146534 0.19782,-0.351681 0,-0.212474 -0.19782,-0.359008 -0.19049,-0.15386 -0.54217,-0.227127 -0.35168,-0.07327 -0.8499,-0.07327 z m -2.29325,-4.469281 h 4.27878 v 0.615442 h -4.27878 z m -0.69604,2.740182 h 6.03719 v 0.615442 h -6.03719 z m 2.37385,-1.230884 h 0.76197 v 1.399398 h -0.76197 z m 2.15405,-1.509298 h 0.76197 v 0.564155 q 0,0.402968 -0.022,0.835243 -0.022,0.424948 -0.16119,0.945143 l -0.75465,-0.08059 q 0.13189,-0.520195 0.15387,-0.915836 0.022,-0.395642 0.022,-0.783956 z m 4.037,3.084536 h 0.76198 v 1.472665 h -0.76198 z m 2.94533,-3.399584 h 0.76931 v 5.077396 h -0.76931 z m -3.91245,5.934619 h 4.84294 v 0.622769 h -4.84294 z m 0,-1.348111 h 0.7693 v 1.516625 h -0.7693 z m -0.79861,-0.93049 -0.0953,-0.622768 q 0.61545,-0.0073 1.34079,-0.01465 0.72534,-0.01465 1.47999,-0.05129 0.76198,-0.04396 1.46534,-0.131881 l 0.0586,0.549502 q -0.71801,0.117227 -1.47266,0.175841 -0.74733,0.05861 -1.45801,0.07327 -0.71069,0.01465 -1.31881,0.02198 z m 3.39959,0.263761 h 1.50197 v 0.542175 h -1.50197 z m -1.33346,-3.670671 q 0.49821,0 0.86455,0.146533 0.37366,0.146534 0.57881,0.417622 0.21247,0.263761 0.21247,0.615442 0,0.351681 -0.21247,0.622768 -0.20515,0.271088 -0.57881,0.417622 -0.36634,0.139207 -0.86455,0.139207 -0.48356,0 -0.86455,-0.139207 -0.37366,-0.146534 -0.58614,-0.417622 -0.20514,-0.271087 -0.20514,-0.622768 0,-0.351681 0.20514,-0.615442 0.21248,-0.271088 0.58614,-0.417622 0.38099,-0.146533 0.86455,-0.146533 z m 0,0.564155 q -0.4103,0 -0.67406,0.168514 -0.25643,0.161187 -0.25643,0.446928 0,0.285741 0.25643,0.454254 0.26376,0.161188 0.67406,0.161188 0.41029,0 0.66673,-0.161188 0.25643,-0.168513 0.25643,-0.454254 0,-0.190494 -0.11723,-0.322375 -0.11722,-0.139207 -0.32237,-0.212474 -0.20515,-0.08059 -0.48356,-0.08059 z"
           id="text5-9-8"
           aria-label="다안 삼림 공원" />
      </g>
    </g>
    <text
       xml:space="preserve"
       transform="matrix(0.31615295,0,0,0.31615295,-10.474341,-6.4462013)"
       id="text6"
       style="font-size:55px;line-height:1.25;font-family:'Microsoft JhengHei';-inkscape-font-specification:'Microsoft JhengHei';white-space:pre;shape-inside:url(#rect6);display:inline" />
  </g>
</svg>
