<?xml version="1.0" encoding="UTF-8" standalone="no"?>
<!-- Created with Inkscape (http://www.inkscape.org/) -->

<svg
   width="500"
   height="250"
   viewBox="0 0 132.29166 66.145833"
   version="1.1"
   id="svg1"
   inkscape:version="1.3.2 (091e20e, 2023-11-25, custom)"
   sodipodi:docname="r07.svg"
   xmlns:inkscape="http://www.inkscape.org/namespaces/inkscape"
   xmlns:sodipodi="http://sodipodi.sourceforge.net/DTD/sodipodi-0.dtd"
   xmlns="http://www.w3.org/2000/svg"
   xmlns:svg="http://www.w3.org/2000/svg">
  <sodipodi:namedview
     id="namedview1"
     pagecolor="#9e652e"
     bordercolor="#ffffff"
     borderopacity="1"
     inkscape:showpageshadow="0"
     inkscape:pageopacity="0"
     inkscape:pagecheckerboard="false"
     inkscape:deskcolor="#d1d1d1"
     inkscape:document-units="mm"
     inkscape:zoom="2.0208096"
     inkscape:cx="221.69333"
     inkscape:cy="158.35238"
     inkscape:window-width="1920"
     inkscape:window-height="1009"
     inkscape:window-x="1912"
     inkscape:window-y="-8"
     inkscape:window-maximized="1"
     inkscape:current-layer="layer1" />
  <defs
     id="defs1">
    <rect
       x="157.85752"
       y="62.351248"
       width="329.07603"
       height="135.09437"
       id="rect4" />
  </defs>
  <g
     inkscape:label="Layer 1"
     inkscape:groupmode="layer"
     id="layer1">
    <path
       id="rect5"
       style="fill:#f4eed7;stroke-width:0.953294"
       d="M -2.5431316e-6,-1.2715658e-6 H 132.29167 V 66.145835 H -2.5431316e-6 Z" />
    <g
       id="g4"
       transform="translate(24.221934,5.7423973)">
      <path
         id="rect6"
         style="fill:#f4eed7;stroke:#000000;stroke-width:0.575409"
         d="m 9.3009131,19.849001 h 5.7010479 c 1.810115,0 3.267355,1.45724 3.267355,3.267355 v 9.524719 c 0,1.810115 -1.45724,3.267355 -3.267355,3.267355 H 9.3009131 c -1.8101145,0 -3.2673547,-1.45724 -3.2673547,-3.267355 v -9.524719 c 0,-1.810115 1.4572402,-3.267355 3.2673547,-3.267355 z" />
      <path
         style="font-weight:bold;font-size:5.82083px;line-height:1.25;font-family:'Optima Bold';-inkscape-font-specification:'Optima Bold,  Bold';stroke-width:0.264583"
         d="m 10.568171,26.948961 v -4.033835 h 0.232833 1.420283 q 0.291041,0.01164 0.506412,0.08149 0.221192,0.06985 0.360892,0.203729 0.139699,0.1397 0.209549,0.314325 0.06985,0.168804 0.06985,0.372533 0,0.197908 -0.05821,0.360891 -0.05239,0.157163 -0.168804,0.273579 -0.110596,0.116417 -0.238654,0.203729 -0.122237,0.08731 -0.256117,0.1397 -0.06403,0.02328 -0.128058,0.04657 -0.05821,0.02328 -0.122237,0.03493 -0.05821,0.01746 -0.116417,0.0291 -0.05821,0.0058 -0.104775,0.01164 l 1.559983,1.961619 h -0.232834 q -0.02328,0 -0.04657,0 -0.01746,0 -0.04075,-0.0058 -0.02328,0 -0.04657,0 -0.01746,-0.0058 -0.03493,-0.01164 -0.01746,0 -0.03492,0 -0.01164,0 -0.02328,0 -0.0058,0 -0.01164,0 -0.0058,0 -0.01746,0 -0.0058,0.0058 -0.01164,0.0058 -0.0058,0 -0.01746,0 -0.04075,0.0058 -0.08731,0.01164 -0.04075,0 -0.08731,0 h -0.232833 l -1.461029,-1.868486 v 1.868486 h -0.232833 q -0.01746,0 -0.03492,0 -0.01746,0 -0.03492,-0.0058 -0.0058,0 -0.01746,0 -0.0058,0 -0.01164,-0.0058 -0.01164,0 -0.01746,0 -0.0058,-0.0058 -0.01746,-0.0058 -0.0058,0 -0.01164,0 -0.0058,0 -0.0058,0 -0.0058,0.0058 -0.01164,0.0058 -0.0058,0 -0.01164,0 -0.03492,0.0058 -0.06985,0.01164 -0.03492,0 -0.06985,0 h -0.232833 v 0 z m 0.779991,-2.153707 q 0.01164,0.01164 0.0291,0.01746 0.01746,0 0.03492,0 0.221191,-0.0058 0.395816,-0.04075 0.174625,-0.03493 0.291041,-0.104775 0.13388,-0.07567 0.221192,-0.157162 0.09313,-0.08731 0.145521,-0.180446 0.04075,-0.06403 0.06403,-0.128058 0.0291,-0.06985 0.03493,-0.128059 0.01164,-0.06403 0.01164,-0.110595 0.0058,-0.04657 0.0058,-0.07567 0,-0.0291 -0.0058,-0.06403 -0.0058,-0.03493 -0.01746,-0.08149 -0.0058,-0.04657 -0.0291,-0.09313 -0.02328,-0.04657 -0.05239,-0.09895 -0.04075,-0.07567 -0.116416,-0.145521 -0.07567,-0.06985 -0.174625,-0.128058 -0.09895,-0.06403 -0.238654,-0.09313 -0.1397,-0.0291 -0.325967,-0.0291 l -0.273579,-0.01164 v 1.653115 0 z"
         id="text6"
         aria-label="R" />
      <path
         style="font-weight:bold;font-size:5.82083px;line-height:1.25;font-family:'Optima Bold';-inkscape-font-specification:'Optima Bold,  Bold';stroke-width:0.264583"
         d="m 8.984904,30.791991 q 0,-0.0058 0,-0.01164 0,-0.01164 0,-0.0291 0,-0.01164 0,-0.0291 0.00582,-0.01746 0.011642,-0.03493 0,-0.07567 0.00582,-0.168804 0.011642,-0.09895 0.017462,-0.215371 0.011642,-0.116416 0.029104,-0.238654 0.023283,-0.128058 0.058208,-0.256116 0.052388,-0.203729 0.1513416,-0.384175 0.098954,-0.186266 0.2444749,-0.34925 0.1396999,-0.168804 0.3667123,-0.250295 0.2270128,-0.08149 0.5355168,-0.08149 l 0.232833,-0.0058 q 0.28522,0.0058 0.49477,0.09313 0.20955,0.08149 0.34925,0.250296 0.1397,0.168804 0.232833,0.355071 0.09895,0.180445 0.151342,0.384175 0.04075,0.151341 0.06403,0.296862 0.02328,0.145521 0.0291,0.2794 0.0058,0.1397 0.0058,0.244475 0.0058,0.09895 0.0058,0.162983 0,0.06985 -0.01164,0.168804 -0.0058,0.09313 -0.01746,0.215371 -0.01164,0.122237 -0.04075,0.250295 -0.02328,0.128058 -0.06403,0.261938 -0.05821,0.192087 -0.162984,0.372533 -0.09895,0.174625 -0.238654,0.331787 -0.1397,0.162983 -0.349249,0.238654 -0.203729,0.07567 -0.477308,0.07567 h -0.232834 -0.01746 -0.01164 -0.01746 -0.01164 q -0.3492497,0 -0.5995454,-0.128058 Q 9.4738537,32.462569 9.3225122,32.194811 9.1769914,31.932874 9.089679,31.641832 9.0081873,31.34497 8.9907248,31.024824 q 0,-0.01164 0,-0.02328 0,-0.01746 0,-0.03493 -0.00582,-0.01164 -0.00582,-0.02328 0,-0.01746 0,-0.0291 0,-0.01164 0,-0.02328 0,-0.01746 0,-0.03492 0,-0.01164 0,-0.02328 0,-0.01746 0,-0.0291 v -0.01164 z m 0.7392454,0.09895 q 0,0.07567 0,0.151342 0.00582,0.07567 0.011642,0.157162 0,0.04075 0.00582,0.08731 0.00582,0.04075 0.011642,0.08149 0.00582,0.04657 0.011642,0.08731 0.011642,0.04075 0.017463,0.08731 0.034925,0.180446 0.098954,0.34925 0.064029,0.162983 0.1571622,0.314325 0.08149,0.128058 0.186267,0.197908 0.110596,0.06985 0.256116,0.09313 0.180446,-0.02328 0.302683,-0.110596 0.128059,-0.09313 0.203729,-0.250295 0.08731,-0.186267 0.1397,-0.384175 0.05821,-0.203729 0.08149,-0.4191 0.0058,-0.04075 0.0058,-0.08149 0.0058,-0.04075 0.0058,-0.08149 0.0058,-0.03493 0.0058,-0.07567 0,-0.04075 0,-0.08149 0,-0.04075 0,-0.07567 0,-0.04075 0.0058,-0.08149 0,-0.03493 0,-0.06985 0,-0.04075 0,-0.07567 0,-0.378353 -0.05821,-0.692678 -0.05239,-0.314325 -0.157162,-0.5588 -0.09313,-0.215371 -0.221192,-0.331787 -0.122237,-0.122238 -0.2794,-0.151342 -0.256116,0.03492 -0.419099,0.192088 -0.1629837,0.151341 -0.2270128,0.42492 -0.075671,0.291042 -0.1105958,0.617008 -0.034925,0.325967 -0.034925,0.686858 z m 3.1665366,-2.112961 h 2.566986 v 0.227012 q -0.128058,0.215371 -0.261937,0.436563 -0.128058,0.21537 -0.261938,0.436562 -0.06403,0.110596 -0.133879,0.227012 -0.06403,0.110596 -0.128058,0.221192 -0.06985,0.116416 -0.1397,0.227012 -0.06403,0.110596 -0.128058,0.227012 -0.128058,0.215371 -0.256117,0.442384 -0.122237,0.221191 -0.244474,0.442383 -0.06403,0.110595 -0.128059,0.227012 -0.05821,0.110596 -0.122237,0.221191 -0.05821,0.116417 -0.122238,0.227013 -0.05821,0.110596 -0.116416,0.227012 -0.0058,0.01746 -0.01746,0.03493 -0.0058,0.01164 -0.01746,0.02328 -0.0058,0.0058 -0.01164,0.01746 0,0.0058 0,0.01164 -0.0058,0.0058 -0.01164,0.01164 0,0.0058 -0.0058,0.0058 h -0.232833 q -0.03492,0 -0.06985,0 -0.0291,0 -0.05821,0 -0.0291,0 -0.05821,0 -0.02328,0 -0.05239,0 -0.02328,0 -0.05239,0 -0.02328,0 -0.05239,0 -0.02328,0 -0.05821,0 -0.0291,0 -0.05821,0 l 2.054753,-3.428469 -1.82192,0.08149 h -0.232833 q 0.0058,-0.0058 0.0058,-0.01746 0.0058,-0.01746 0.01164,-0.03493 0,-0.01746 0,-0.03492 0.0058,-0.01746 0.01164,-0.03492 0,-0.01164 0,-0.01746 0,-0.0058 0,-0.01746 0,-0.0058 0,-0.01164 0,-0.01164 0,-0.01746 0,-0.01164 0,-0.01746 0,-0.01164 0.0058,-0.01746 0,-0.01164 0,-0.01746 0,-0.01164 0,-0.01746 0,-0.03493 -0.0058,-0.06985 0,-0.03492 -0.0058,-0.06985 -0.0058,-0.03493 -0.01164,-0.06985 0,-0.03493 -0.01164,-0.06985 v -0.01164 h 0.232833 z"
         id="text6-8"
         aria-label="07" />
    </g>
    <g
       id="g3"
       transform="translate(0,0.54819659)">
      <path
         style="font-weight:bold;font-size:17.9751px;line-height:1.25;font-family:'Noto Serif TC';-inkscape-font-specification:'Noto Serif TC Bold';letter-spacing:3.20983px;stroke-width:0.320983"
         d="m 51.823535,32.371887 h 2.588415 v 2.013212 h -2.588415 z m 2.588415,-2.534489 v 2.013211 h -2.588415 v -2.013211 z m 4.799351,0 v 2.013211 h -2.624364 v -2.013211 z m -2.624364,4.547701 v -2.013212 h 2.624364 v 2.013212 z m 2.624364,0.503302 v 0.862805 h 0.377477 c 0.754954,0 1.83346,-0.467353 1.851436,-0.629128 V 30.1969 c 0.359502,-0.0719 0.593178,-0.233676 0.701028,-0.377477 l -2.103086,-1.581809 -1.006606,1.096482 h -2.444613 v -1.707635 h 6.524961 c 0.269626,0 0.467352,-0.08987 0.521278,-0.287602 -0.862805,-0.754954 -2.264863,-1.851435 -2.264863,-1.851435 l -1.258257,1.635734 h -3.523119 v -1.725609 c 0.485327,-0.0719 0.629128,-0.251652 0.665078,-0.503303 L 54.41195,24.606644 v 2.516514 h -6.884464 l 0.143801,0.503303 h 6.740663 v 1.707635 h -2.444614 l -2.300813,-0.88078 v 7.567517 h 0.323552 c 0.88078,0 1.83346,-0.485328 1.83346,-0.683054 v -0.449378 h 1.599784 c -1.294207,2.192962 -3.577045,4.457825 -6.30926,5.895833 l 0.125826,0.233676 c 2.876016,-0.91673 5.338604,-2.246887 7.172065,-3.954522 v 4.4039 h 0.449377 c 0.826855,0 1.72561,-0.431403 1.72561,-0.629129 v -5.823932 c 1.168381,2.768165 3.109692,4.727451 5.734056,5.895833 0.251652,-1.042556 0.88078,-1.743585 1.707635,-1.941311 l 0.03595,-0.197726 c -2.624364,-0.575203 -5.554306,-1.959286 -7.15409,-3.882622 z m 12.125479,-3.59502 v -2.157012 h 2.552464 v 2.157012 z m 2.552464,-4.727451 v 2.067137 H 71.33678 V 26.56593 Z M 73.709493,26.044652 H 71.40868 l -2.139037,-0.934705 v 16.375316 h 0.359502 c 0.934706,0 1.707635,-0.521278 1.707635,-0.790905 v -8.897674 h 2.552464 v 1.042556 h 0.323552 c 0.629128,0 1.581809,-0.377477 1.617759,-0.503303 v -5.50038 c 0.323552,-0.05393 0.557228,-0.197726 0.647103,-0.341527 l -1.86941,-1.420033 z m 5.716082,5.248729 v -2.157012 h 2.642339 v 2.157012 z m 2.642339,-4.727451 v 2.067137 H 79.425575 V 26.56593 Z m 0.790905,-1.653709 -0.970656,1.132431 h -2.390688 l -2.049161,-0.826854 v 7.567517 h 0.287601 c 0.84483,0 1.68966,-0.449378 1.68966,-0.629129 v -0.359502 h 2.642339 v 6.902438 c 0,0.287602 -0.10785,0.431403 -0.467352,0.431403 -0.503303,0 -3.055767,-0.161776 -3.055767,-0.161776 V 39.2204 c 1.132431,0.179751 1.635734,0.431403 2.049161,0.754954 0.359502,0.305577 0.503303,0.80888 0.575203,1.491934 2.660315,-0.251652 3.019817,-1.078506 3.019817,-2.516514 V 26.907457 c 0.359502,-0.0719 0.611153,-0.233676 0.719004,-0.377477 z"
         id="text7"
         aria-label="東門" />
      <path
         style="font-weight:bold;font-size:7.4343px;line-height:1.25;font-family:'Optima Bold';-inkscape-font-specification:'Optima Bold,  Bold';stroke-width:0.337923"
         d="m 46.221908,44.872726 h 2.401279 q 0.63935,0.01487 1.077973,0.200727 0.446058,0.178423 0.698825,0.535269 0.252766,0.356847 0.379149,0.780602 0.126383,0.41632 0.126383,0.89955 0,0.118949 -0.01487,0.245332 -0.0074,0.126383 -0.02974,0.267635 -0.0223,0.141251 -0.05947,0.282503 -0.02974,0.133817 -0.08178,0.275069 -0.111514,0.297372 -0.304806,0.579876 -0.185857,0.275069 -0.453492,0.535269 -0.267635,0.252766 -0.661653,0.394018 -0.394018,0.141252 -0.906984,0.15612 h -0.297372 -2.170816 v -5.15197 h 0.297372 v 0 z m 0.706259,0.356847 v 4.445711 q 0.08921,0.01487 0.170988,0.0223 0.08921,0.0074 0.170989,0.01487 0.0223,0 0.03717,0 0.0223,0 0.03717,0 0.0223,0.0074 0.03717,0.0074 0.0223,0 0.03717,0 0.602179,-0.01487 1.048237,-0.148686 0.446058,-0.133817 0.721127,-0.386584 0.289937,-0.267634 0.453492,-0.728561 0.170989,-0.460927 0.20816,-1.107711 0,-0.01487 0,-0.02974 0,-0.01487 0.0074,-0.02974 0,-0.01487 0,-0.02974 0,-0.01487 0,-0.02974 0,-0.02974 0,-0.05204 0,-0.02974 0,-0.05947 0,-0.505532 -0.133818,-0.854944 -0.126383,-0.349413 -0.386583,-0.550139 -0.260201,-0.200726 -0.550139,-0.327109 -0.282503,-0.126383 -0.594743,-0.170989 -0.03717,-0.0074 -0.07434,-0.0074 -0.03717,-0.0074 -0.07434,-0.0074 -0.04461,-0.0074 -0.08178,-0.0074 -0.03717,-0.0074 -0.07434,-0.0074 -0.0223,0 -0.04461,0 -0.0223,-0.0074 -0.03717,-0.0074 -0.0223,0 -0.04461,0 -0.0223,0 -0.04461,0 -0.0223,0 -0.04461,0 -0.0223,0 -0.04461,0 -0.02974,0 -0.05204,0.0074 -0.0223,0 -0.04461,0 -0.08178,0.0074 -0.15612,0.01487 -0.07434,0 -0.141252,0.0074 -0.05204,0.0074 -0.09665,0.01487 -0.04461,0 -0.08178,0 -0.03717,0.0074 -0.07434,0.01487 -0.02974,0 -0.05204,0 z m 4.683606,2.222856 q 0,-0.02974 0,-0.05947 0,-0.03717 0,-0.06691 0,-0.03717 0,-0.07434 0.0074,-0.03717 0.01487,-0.07434 0.04461,-0.446058 0.245332,-0.854944 0.200726,-0.416321 0.557572,-0.79547 0.349412,-0.379149 0.862379,-0.565007 0.512967,-0.193292 1.189488,-0.193292 l 0.297372,-0.0074 q 0.683956,0.02974 1.167185,0.185857 0.490664,0.156121 0.788036,0.460927 0.297372,0.297372 0.483229,0.624481 0.193292,0.327109 0.275069,0.683956 0.01487,0.04461 0.0223,0.08921 0.0074,0.04461 0.01487,0.08178 0.0074,0.04461 0.01487,0.08921 0.0074,0.04461 0.01487,0.08921 0.01487,0.08921 0.01487,0.178423 0.0074,0.08178 0.01487,0.163555 v 0.01487 0.0223 0.02974 0.0223 q 0,0.624482 -0.215594,1.115145 -0.208161,0.48323 -0.63935,0.832642 -0.43119,0.356846 -0.921853,0.527835 -0.48323,0.170989 -1.025934,0.170989 h -0.297372 q -0.01487,0 -0.02974,0 -0.01487,0 -0.02974,0 -0.01487,0 -0.03717,0 -0.01487,0 -0.02974,0 -0.09665,0 -0.193292,-0.0074 -0.08921,0 -0.185857,-0.01487 -0.09665,-0.0074 -0.193292,-0.02974 -0.09665,-0.0223 -0.193292,-0.04461 -0.371715,-0.08178 -0.713692,-0.282503 -0.341978,-0.200726 -0.654219,-0.505533 -0.31224,-0.304806 -0.468361,-0.750864 -0.148686,-0.453492 -0.148686,-1.040802 v -0.01487 z m 1.063105,0.0074 q 0,0.579875 0.141252,1.025933 0.148686,0.438624 0.446058,0.750865 0.267635,0.282503 0.602178,0.438623 0.341978,0.156121 0.750864,0.178423 0.37915,-0.0223 0.69139,-0.178423 0.319675,-0.15612 0.572441,-0.438623 0.282504,-0.312241 0.446058,-0.758299 0.163555,-0.446058 0.208161,-1.011065 0,-0.01487 0,-0.02974 0,-0.0223 0,-0.02974 0,-0.01487 0,-0.02974 0,-0.01487 0,-0.02974 0,-0.483229 -0.148686,-0.892116 -0.141252,-0.408886 -0.43119,-0.735995 -0.275069,-0.297372 -0.624481,-0.460927 -0.341978,-0.163555 -0.758298,-0.185857 -0.364281,0.0223 -0.654219,0.15612 -0.289937,0.126383 -0.490664,0.364281 -0.223029,0.267634 -0.379149,0.557572 -0.148686,0.289938 -0.237897,0.602178 -0.0223,0.09665 -0.04461,0.185858 -0.0223,0.08921 -0.03717,0.178423 -0.01487,0.08921 -0.02974,0.178423 -0.0074,0.08921 -0.0223,0.170989 z m 5.850794,2.564833 v -5.15197 h 0.297372 0.356847 l 3.271092,3.598202 v -3.598202 h 0.297372 q 0.01487,0.0223 0.03717,0.02974 0.0223,0.0074 0.04461,0.01487 0.02974,-0.0074 0.05204,-0.01487 0.0223,-0.0074 0.03717,-0.01487 l 0.297372,-0.0074 v 5.144535 h -0.297372 -0.289937 l -3.338001,-3.709715 v 3.709715 h -0.297372 q -0.0074,0 -0.01487,0 -0.0074,0 -0.01487,0 -0.01487,0 -0.0223,0 -0.0074,-0.0074 -0.01487,-0.0074 -0.01487,0 -0.02974,0 -0.0074,0 -0.0223,0.0074 -0.01487,0 -0.02974,0 -0.0074,0 -0.0223,0 h -0.297372 v 0 z m 5.806186,-2.520227 q 0.02974,-0.58731 0.170989,-1.025934 0.148686,-0.438623 0.408887,-0.721127 0.2602,-0.282503 0.542704,-0.475795 0.289937,-0.193292 0.602178,-0.297372 0.163554,-0.05947 0.319675,-0.09665 0.163554,-0.03717 0.319675,-0.05947 0.15612,-0.0223 0.297372,-0.03717 0.148686,-0.01487 0.267634,-0.0223 l 0.297372,-0.0074 q 0.237898,0.0074 0.475796,0.03717 0.245331,0.0223 0.490663,0.07434 0.237898,0.05204 0.475796,0.148686 0.245331,0.08921 0.490663,0.215595 l -0.237897,0.631916 h -0.297372 q -0.03717,-0.01487 -0.08178,-0.04461 -0.04461,-0.03717 -0.08921,-0.08178 -0.04461,-0.04461 -0.09665,-0.08921 -0.04461,-0.04461 -0.10408,-0.08921 -0.10408,-0.08178 -0.237898,-0.15612 -0.133817,-0.07434 -0.289938,-0.141252 -0.126383,-0.05947 -0.289937,-0.08921 -0.156121,-0.03717 -0.341978,-0.04461 -0.03717,0 -0.08178,0.0074 -0.03717,0 -0.08178,0.0074 -0.07434,0.0074 -0.15612,0.0223 -0.07434,0.01487 -0.15612,0.03717 -0.275069,0.07434 -0.53527,0.237898 -0.252766,0.15612 -0.490664,0.401452 -0.230463,0.245332 -0.36428,0.602178 -0.133818,0.356846 -0.170989,0.840076 v 0.0223 0.02974 0.02974 0.02974 q -0.0074,0.550139 0.141252,0.996197 0.148686,0.446058 0.446058,0.788035 0.282503,0.319675 0.639349,0.490664 0.364281,0.163555 0.810339,0.185858 0.148686,-0.0074 0.282503,-0.0223 0.141252,-0.0223 0.275069,-0.05204 0.170989,-0.03717 0.289938,-0.08921 0.126383,-0.05947 0.215595,-0.126383 v -1.947787 h 0.297372 q 0.01487,0.01487 0.02974,0.0223 0.01487,0 0.03717,0.0074 0.01487,0.0074 0.02974,0.01487 0.01487,0 0.02974,0 0.0074,0 0.0074,0 0.0074,0 0.01487,0 0.0074,0.0074 0.0074,0.0074 0.0074,0 0.01487,0 0,0 0,0 0,0 0.0074,0 0,0 0,0 0,0 0,0 0.03717,-0.0074 0.08178,-0.01487 0.04461,-0.01487 0.08921,-0.0223 l 0.297372,-0.0074 v 2.163381 l -0.0223,0.0223 -0.0223,0.0074 q -0.03717,0.0223 -0.08921,0.03717 -0.04461,0.01487 -0.09665,0.02974 -0.05204,0.0223 -0.111515,0.03717 -0.05947,0.01487 -0.126383,0.02974 -0.133817,0.02974 -0.267635,0.05204 -0.133817,0.0223 -0.282503,0.03717 -0.133818,0.0223 -0.260201,0.03717 -0.118948,0.0223 -0.245332,0.02974 -0.118948,0.01487 -0.223029,0.0223 -0.10408,0.0074 -0.185857,0.0074 h -0.297372 q -0.01487,0 -0.03717,0 -0.01487,0 -0.02974,0 -0.01487,0 -0.03717,0 -0.01487,0 -0.02974,0 -0.631916,0 -1.130014,-0.170989 -0.498098,-0.170989 -0.869813,-0.535269 -0.364281,-0.356847 -0.550138,-0.832642 -0.185858,-0.483229 -0.185858,-1.085408 v -0.01487 z m 5.977176,2.520227 0.706259,-5.15197 h 0.297372 0.230463 l 1.903181,3.642807 1.955221,-3.642807 h 0.297372 0.237897 l 0.58731,5.15197 h -0.297372 q -0.04461,0 -0.08921,0 -0.04461,-0.0074 -0.08178,-0.01487 -0.01487,0 -0.03717,0 -0.01487,0 -0.02974,-0.0074 0,0 -0.0074,0.0074 0,0 -0.0074,0 -0.0074,0 -0.01487,0 0,0 0,0 -0.04461,0.0074 -0.09665,0.01487 -0.04461,0 -0.10408,0 h -0.297372 l -0.304806,-3.375172 -1.680152,3.256224 h -0.297372 -0.118949 l -1.620677,-3.189315 -0.304807,3.308263 h -0.297372 q -0.0223,0 -0.05204,0 -0.0223,-0.0074 -0.05204,-0.01487 0,0 0,0 0,0 0,0 -0.0074,0 -0.01487,0 0,0 -0.0074,0 -0.0074,0.0074 -0.01487,0.0074 0,0 0,0 -0.0223,0.0074 -0.04461,0.0074 -0.0223,0 -0.04461,0 h -0.297372 v 0 z m 7.270747,0 v -5.092495 h 0.297372 2.691216 q -0.0074,0.03717 -0.01487,0.06691 -0.0074,0.0223 -0.01487,0.0446 0,0.0074 -0.0074,0.0223 0,0.0074 0,0.01487 -0.0074,0.01487 -0.0074,0.0223 0,0.0074 0,0.0223 v 0.01487 0.02974 q 0,0.03717 0,0.06691 0,0.0223 0.0074,0.05204 0,0.01487 0,0.02974 0.0074,0.01487 0.01487,0.02974 0.0074,0.0223 0.0074,0.03717 0.0074,0.01487 0.01487,0.02974 l -0.297372,-0.0074 q -0.111514,-0.01487 -0.223029,-0.02974 -0.111514,-0.01487 -0.237897,-0.0223 -0.118949,-0.0074 -0.245332,-0.0074 -0.118949,-0.0074 -0.245332,-0.0074 0,0 0,0 0,0 0,0 -0.0074,0 -0.0074,0 0,0 0,0 -0.02974,0.0074 -0.05947,0.0074 -0.0223,0 -0.05204,0 -0.02974,0 -0.05947,0 -0.02974,0 -0.05204,0 -0.02974,0 -0.06691,0 -0.02974,0 -0.06691,0 -0.02974,0.0074 -0.06691,0.0074 -0.02974,0 -0.05947,0 -0.06691,0 -0.133817,0 -0.05947,0 -0.118949,0 v 1.799101 h 0.817773 l 0.698824,-0.05947 h 0.297372 q -0.0074,0.03717 -0.0223,0.06691 -0.0074,0.0223 -0.01487,0.04461 -0.0074,0.02974 -0.0074,0.05947 0,0.0223 0,0.05204 0,0.01487 0,0.02974 0,0.01487 0,0.02974 0,0.0223 0,0.03717 0.0074,0.01487 0.0074,0.02974 0.0074,0.02974 0.01487,0.06691 0.01487,0.02974 0.0223,0.06691 l -0.297372,-0.0074 -0.877247,-0.06691 h -0.63935 v 2.111341 q 0.05204,0.01487 0.111515,0.0223 0.05947,0.0074 0.126383,0.0074 0.05947,0.0074 0.118948,0.0074 0.05948,0 0.126384,0 0.03717,0 0.06691,0 0.02974,0 0.05948,-0.0074 0.02974,0 0.05947,0 0.03717,0 0.06691,0 0.148686,-0.0074 0.289937,-0.01487 0.141252,-0.0074 0.282504,-0.01487 0.133817,-0.01487 0.245332,-0.0223 0.111514,-0.01487 0.200726,-0.0223 l 0.297372,-0.0074 q -0.0074,0.03717 -0.0223,0.07434 -0.0074,0.02974 -0.01487,0.06691 -0.0074,0.02974 -0.0074,0.05947 0,0.02974 0,0.05947 0,0.02974 0,0.05947 0,0.02974 0.0074,0.05947 0.0074,0.02974 0.01487,0.05204 0.01487,0.0223 0.0223,0.02974 h -0.297372 -2.750691 v 0 z m 4.096304,0 v -5.15197 h 0.297372 0.356846 l 3.271092,3.598202 v -3.598202 h 0.297372 q 0.01487,0.0223 0.03717,0.02974 0.0223,0.0074 0.0446,0.01487 0.02974,-0.0074 0.05204,-0.01487 0.0223,-0.0074 0.03717,-0.01487 l 0.297372,-0.0074 v 5.144535 h -0.297372 -0.289938 l -3.338,-3.709715 v 3.709715 h -0.297372 q -0.0074,0 -0.01487,0 -0.0074,0 -0.01487,0 -0.01487,0 -0.0223,0 -0.0074,-0.0074 -0.01487,-0.0074 -0.01487,0 -0.02974,0 -0.0074,0 -0.0223,0.0074 -0.01487,0 -0.02974,0 -0.0074,0 -0.0223,0 h -0.297372 v 0 z"
         id="text8"
         aria-label="DONGMEN" />
      <g
         id="g2"
         transform="translate(-16.356527,-20.141799)">
        <g
           id="g1">
          <path
             style="font-weight:500;font-size:5.82083px;line-height:1.25;font-family:'Noto Sans JP';-inkscape-font-specification:'Noto Sans JP Medium';stroke-width:0.264583"
             d="m 67.829527,35.696238 h 5.128151 v 0.512233 h -5.128151 z m 2.24684,-0.523874 h 0.576262 v 5.40173 h -0.576262 z m -0.151341,3.329514 0.465666,0.197909 q -0.203729,0.28522 -0.471487,0.552978 -0.267758,0.261938 -0.576262,0.494771 -0.308504,0.232833 -0.634471,0.4191 -0.325966,0.192087 -0.651933,0.325966 -0.04075,-0.06985 -0.110595,-0.157162 -0.06403,-0.08149 -0.1397,-0.168804 -0.06985,-0.08149 -0.128059,-0.133879 0.314325,-0.110596 0.634471,-0.273579 0.325966,-0.162984 0.62865,-0.366713 0.302683,-0.203729 0.552978,-0.430741 0.250296,-0.227012 0.430742,-0.459846 z m 0.890587,0.01746 q 0.186266,0.232833 0.442383,0.454025 0.261937,0.221191 0.56462,0.42492 0.302683,0.203729 0.62865,0.366712 0.325966,0.157163 0.651933,0.261938 -0.06403,0.05821 -0.1397,0.1397 -0.07567,0.08731 -0.145521,0.174625 -0.06403,0.08731 -0.110596,0.162983 -0.320145,-0.133879 -0.651933,-0.325967 -0.325966,-0.186266 -0.640291,-0.419099 -0.308504,-0.238654 -0.576262,-0.500592 -0.261937,-0.267758 -0.471487,-0.541337 z m -1.944157,-0.599546 v 0.471488 h 3.055935 v -0.471488 z m 0,-0.867303 v 0.465666 h 3.055935 v -0.465666 z m -0.541338,-0.4191 h 4.156073 v 2.182811 h -4.156073 z m 5.727697,-0.331787 h 1.548341 v 0.401637 h -1.548341 z m 2.683403,0 h 1.571624 v 0.401637 h -1.571624 z m 1.344611,-0.873125 h 0.552979 v 4.441293 q 0,0.256117 -0.06403,0.389996 -0.06403,0.1397 -0.232833,0.20955 -0.168804,0.06985 -0.448204,0.08149 -0.2794,0.01746 -0.686858,0.01746 -0.01164,-0.07567 -0.04657,-0.180446 -0.0291,-0.09895 -0.06985,-0.20955 -0.04075,-0.104775 -0.08149,-0.174625 0.192087,0.0058 0.378354,0.01164 0.192087,0 0.337608,0 0.145521,0 0.203729,0 0.08731,-0.0058 0.122237,-0.03492 0.03493,-0.03493 0.03493,-0.116416 z m -3.981447,0 h 1.839382 v 2.188632 h -1.839382 v -0.448204 h 1.321328 v -1.286403 h -1.321328 z m 4.272489,0 v 0.454025 h -1.426104 v 1.292224 h 1.426104 v 0.454025 H 76.426893 V 35.42848 Z m -4.580993,0 h 0.541337 v 5.145614 h -0.541337 z"
             id="text9"
             aria-label="東門" />
        </g>
        <path
           style="font-weight:500;font-size:5.82083px;line-height:1.25;font-family:'Noto Sans KR';-inkscape-font-specification:'Noto Sans KR Medium';stroke-width:0.264583"
           d="m 87.052769,37.66368 h 4.808006 v 0.48895 h -4.808006 z m 2.095499,0.221192 h 0.605366 v 0.98372 h -0.605366 z m 0.291041,0.710141 q 0.861483,0 1.344612,0.250296 0.48895,0.250295 0.48895,0.715962 0,0.459845 -0.48895,0.710141 -0.483129,0.256117 -1.344612,0.256117 -0.849841,0 -1.338791,-0.256117 -0.488949,-0.250296 -0.488949,-0.710141 0,-0.465667 0.488949,-0.715962 0.48895,-0.250296 1.338791,-0.250296 z m 0,0.465666 q -0.384174,0 -0.657753,0.05821 -0.273579,0.05821 -0.4191,0.168804 -0.1397,0.104775 -0.1397,0.273579 0,0.162983 0.1397,0.273579 0.145521,0.110596 0.4191,0.168804 0.273579,0.05239 0.657753,0.05239 0.395817,0 0.663575,-0.05239 0.273579,-0.05821 0.413279,-0.168804 0.1397,-0.110596 0.1397,-0.273579 0,-0.168804 -0.1397,-0.273579 -0.1397,-0.110596 -0.413279,-0.168804 -0.267758,-0.05821 -0.663575,-0.05821 z m -1.792815,-2.31669 h 3.655481 v 0.48895 h -3.655481 z m 0,-1.298045 h 3.626377 v 0.483129 H 88.25186 v 1.129241 h -0.605366 z m 4.988451,0.20955 h 2.462212 v 2.520419 h -2.462212 z m 1.868487,0.483129 h -1.268941 v 1.548341 h 1.268941 z m 1.693861,-0.925512 h 0.611187 v 3.876673 h -0.611187 z m -1.268941,1.443566 h 1.431925 v 0.488949 h -1.431925 z m -1.565803,3.271306 h 3.585631 v 0.494771 h -3.585631 z m 0,-1.199091 h 0.611187 v 1.437745 h -0.611187 z"
           id="text9-3"
           aria-label="둥먼" />
      </g>
    </g>
  </g>
</svg>
