<?xml version="1.0" encoding="UTF-8" standalone="no"?>
<!-- Created with Inkscape (http://www.inkscape.org/) -->

<svg
   width="500"
   height="250"
   viewBox="0 0 132.29166 66.145833"
   version="1.1"
   id="svg1"
   inkscape:version="1.3.2 (091e20e, 2023-11-25, custom)"
   sodipodi:docname="r09.svg"
   xmlns:inkscape="http://www.inkscape.org/namespaces/inkscape"
   xmlns:sodipodi="http://sodipodi.sourceforge.net/DTD/sodipodi-0.dtd"
   xmlns="http://www.w3.org/2000/svg"
   xmlns:svg="http://www.w3.org/2000/svg">
  <sodipodi:namedview
     id="namedview1"
     pagecolor="#9e652e"
     bordercolor="#ffffff"
     borderopacity="1"
     inkscape:showpageshadow="0"
     inkscape:pageopacity="0"
     inkscape:pagecheckerboard="false"
     inkscape:deskcolor="#d1d1d1"
     inkscape:document-units="mm"
     inkscape:zoom="2.0208096"
     inkscape:cx="275.6321"
     inkscape:cy="128.6613"
     inkscape:window-width="1920"
     inkscape:window-height="1009"
     inkscape:window-x="1912"
     inkscape:window-y="-8"
     inkscape:window-maximized="1"
     inkscape:current-layer="layer1" />
  <defs
     id="defs1">
    <rect
       x="560.66638"
       y="34.144731"
       width="279.32397"
       height="128.59143"
       id="rect6" />
    <rect
       x="157.85752"
       y="62.351248"
       width="541.85369"
       height="99.322566"
       id="rect4" />
    <rect
       x="157.85751"
       y="62.35125"
       width="329.07602"
       height="135.09438"
       id="rect4-5" />
  </defs>
  <g
     inkscape:label="Layer 1"
     inkscape:groupmode="layer"
     id="layer1">
    <rect
       style="fill:#d0002b;fill-opacity:1;stroke:none;stroke-width:0.953294;stroke-dasharray:none"
       id="rect5"
       width="132.29167"
       height="66.145836"
       x="-2.5431316e-06"
       y="-1.2715658e-06"
       ry="0" />
    <g
       id="g1"
       transform="matrix(0.86008697,0,0,0.86008697,8.8833251,4.6273308)"
       style="fill:#000000">
      <g
         id="g2"
         transform="translate(-4.1631059)">
        <path
           id="rect1"
           style="fill-opacity:0;stroke:#ffffff;stroke-width:0.942789"
           d="m 15.91309,14.352791 h 12.425164 c 3.927062,0 7.088559,3.161497 7.088559,7.088559 v 23.263136 c 0,3.927062 -3.161497,7.088559 -7.088559,7.088559 H 15.91309 c -3.927061,0 -7.0885584,-3.161497 -7.0885584,-7.088559 V 21.44135 c 0,-3.927062 3.1614974,-7.088559 7.0885584,-7.088559 z" />
        <path
           style="font-size:14.2913px;line-height:1.25;font-family:'AR UDJingXiHeiE1G30 EB';-inkscape-font-specification:'AR UDJingXiHeiE1G30 EB';fill:#ffffff;stroke-width:0.297736"
           d="m 24.276514,23.642888 q 0,-0.757439 -0.400157,-1.143304 -0.400156,-0.400156 -1.157595,-0.400156 H 19.61755 v 3.215542 h 3.001173 q 0.743147,0 1.200469,-0.44303 0.457322,-0.44303 0.457322,-1.229052 z m -4.658964,3.07263 v 4.301681 h -1.814995 v -10.33261 h 5.259198 q 1.414839,0 2.243734,0.757439 0.843187,0.743148 0.843187,2.115113 0,0.900351 -0.428739,1.54346 -0.414448,0.643108 -1.043265,0.914643 0.800313,0.457322 1.229052,1.586334 0.428739,1.129013 0.543069,3.415621 H 24.56234 q -0.08575,-2.400938 -0.528779,-3.344164 -0.428739,-0.957517 -1.386256,-0.957517 z"
           id="text2"
           aria-label="R" />
        <path
           style="font-size:14.3917px;line-height:1.25;font-family:'AR UDJingXiHeiE1G30 EB';-inkscape-font-specification:'AR UDJingXiHeiE1G30 EB';fill:#ffffff;stroke-width:0.261667"
           d="m 21.492415,39.692779 q 0,2.720031 -0.877894,4.015284 -0.877893,1.295253 -2.720031,1.295253 -1.784571,0 -2.70564,-1.295253 -0.921068,-1.295253 -0.921068,-4.015284 0,-2.907123 0.877893,-4.173593 0.877894,-1.280861 2.748815,-1.280861 1.827746,0 2.70564,1.280861 0.892285,1.26647 0.892285,4.173593 z m -3.597925,3.885759 q 0.921069,0 1.35282,-0.906677 0.431751,-0.921069 0.431751,-2.979082 0,-2.216322 -0.41736,-3.122999 -0.402967,-0.906677 -1.367211,-0.906677 -0.964244,0 -1.381603,0.921069 -0.41736,0.906677 -0.41736,3.108607 0,2.043622 0.431751,2.96469 0.431751,0.921069 1.367212,0.921069 z m 8.447918,-7.915435 q -0.777152,0 -1.252078,0.546885 -0.460535,0.532493 -0.460535,1.52552 0,0.949852 0.431751,1.496737 0.446143,0.546884 1.295253,0.561276 0.805935,0 1.252078,-0.518101 0.460535,-0.532493 0.460535,-1.52552 0,-1.036203 -0.446143,-1.554304 -0.446143,-0.532493 -1.280861,-0.532493 z m 0.02878,7.915435 q 1.007419,0 1.496737,-0.834718 0.489318,-0.834719 0.489318,-2.70564 -0.359793,0.575668 -0.978636,0.877894 -0.604451,0.302225 -1.35282,0.302225 -1.467953,0 -2.345847,-0.949852 -0.877894,-0.964244 -0.877894,-2.475372 0,-1.554304 0.949853,-2.547331 0.964244,-1.007419 2.576114,-1.007419 1.914096,0 2.835165,1.252078 0.921069,1.252078 0.921069,3.713058 0,3.022257 -0.906678,4.418252 -0.906677,1.381603 -2.820773,1.381603 -1.669437,0 -2.504155,-0.820326 -0.834719,-0.834719 -0.849111,-1.986055 h 1.770179 q 0.01439,0.604451 0.41736,0.993027 0.402967,0.388576 1.180119,0.388576 z"
           id="text3"
           aria-label="09" />
        <path
           style="font-weight:500;font-size:72px;line-height:1.25;font-family:'Noto Sans TC';-inkscape-font-specification:'Noto Sans TC Medium';white-space:pre;fill:#ffffff"
           d="m 173.55342,131.04941 h 40.176 v 6.552 h -40.176 z m -3.384,-20.592 h 47.376 v 30.888 h -7.272 v -24.336 h -33.12 v 24.408 h -6.984 z m 30.312,-24.768004 5.328,-3.528 q 3.384,3.024 7.128,6.84 3.744,3.744 6.912,7.488 3.24,3.744004 5.112,6.768004 l -5.832,4.248 q -1.728,-3.096 -4.824,-6.912 -3.096,-3.816004 -6.768,-7.704004 -3.6,-3.888 -7.056,-7.2 z m -33.48,19.296004 q -0.144,-0.72 -0.576,-1.944 -0.36,-1.224 -0.792,-2.52 -0.432,-1.296004 -0.864,-2.160004 1.368,-0.288 2.736,-1.368 1.368,-1.152 3.168,-2.88 1.008,-0.864 2.88,-2.88 1.872,-2.016 4.176,-4.752 2.304,-2.736 4.68,-5.976 2.376,-3.24 4.392,-6.48 l 6.84,2.952 q -3.312,4.68 -7.128,9.144 -3.744,4.392 -7.632,8.28 -3.816,3.888 -7.632,6.984004 v 0.216 q 0,0 -0.648,0.36 -0.648,0.288 -1.512,0.864 -0.864,0.504 -1.512,1.08 -0.576,0.576 -0.576,1.08 z m 0,0 -0.072,-5.328004 4.824,-2.52 45.216,-1.8 q 0.072,1.368 0.288,3.168 0.216,1.800004 0.432,2.880004 -10.656,0.576 -18.36,1.008 -7.704,0.36 -13.032,0.648 -5.256,0.288 -8.712,0.576 -3.384,0.216 -5.472,0.432 -2.016,0.144 -3.168,0.36 -1.08,0.216 -1.944,0.576 z m 67.176,-10.224004 h 63.648 v 7.056004 h -63.648 z m 35.856,2.808 q 2.304,8.496004 6.192,15.840004 3.96,7.344 9.648,12.888 5.76,5.472 13.32,8.64 -0.864,0.72 -1.872,1.872 -0.936,1.152 -1.8,2.304 -0.864,1.224 -1.44,2.16 -7.992,-3.744 -13.968,-9.864 -5.904,-6.192 -10.008,-14.328 -4.104,-8.136 -6.912,-17.856004 z m -7.92,-22.896 h 7.416 q 0,5.112 -0.288,11.016 -0.216,5.832 -1.08,12.024 -0.864,6.192004 -2.808,12.384004 -1.944,6.192 -5.4,11.952 -3.456,5.76 -8.856,10.728 -5.4,4.896 -13.176,8.568 -0.864,-1.368 -2.304,-3.024 -1.44,-1.584 -2.88,-2.664 7.488,-3.384 12.6,-7.848 5.184,-4.536 8.352,-9.792 3.24,-5.328 4.968,-11.016 1.728,-5.688 2.448,-11.376004 0.72,-5.688 0.864,-11.016 0.144,-5.328 0.144,-9.936 z m 53.928,60.408004 h 43.56 v 3.816 h -43.56 z m 7.56,-5.976 h 29.448 v 3.6 h -29.448 z m -19.08,-19.728 h 66.528 v 4.536 h -66.528 z m 15.12,-28.512004 4.032,0.936 q -0.864,2.304 -2.376,4.608 -1.512,2.232 -3.168,3.888 -0.576,-0.504 -1.728,-1.152 -1.08,-0.648 -1.8,-1.008 3.384,-3.096 5.04,-7.272 z m 21.096,9.216 h 20.592 v 4.176 h -20.592 z m -21.528,-6.12 h 16.992 v 3.456 h -16.992 z m -4.032,6.696 h 22.32 v 3.6 h -22.32 z m 31.032,-14.184 h 12.888 v 4.752 h -12.888 z m 14.256,13.608 h 1.08 l 1.008,-0.144 3.312,1.368 q -2.088,4.896 -5.832,8.496 -3.672,3.528004 -8.424,5.832004 -4.752,2.304 -10.08,3.6 -0.432,-0.936 -1.296,-2.16 -0.792,-1.296 -1.512,-2.016 4.752,-1.008 9.072,-2.88 4.392,-1.872 7.704,-4.752004 3.312,-2.88 4.968,-6.552 z m -16.704,-13.608 h 5.256 v 3.816 q 0,2.016 -0.648,4.032 -0.648,1.944 -2.376,3.744 -1.728,1.728 -5.04,3.168 -0.36,-0.648 -1.08,-1.44 -0.648,-0.792 -1.368,-1.584 -0.72,-0.792 -1.224,-1.08 2.808,-1.08 4.176,-2.16 1.368,-1.152 1.8,-2.304 0.504,-1.224 0.504,-2.52 z m -19.512,9 h 4.464 v 5.184 q 0,1.944 -0.792,4.248 -0.72,2.232 -2.952,4.392 -2.16,2.088004 -6.624,3.744004 -0.504,-0.792 -1.368,-1.656 -0.792,-0.936 -1.512,-1.584004 3.96,-1.152 5.76,-2.736 1.872,-1.584 2.448,-3.312 0.576,-1.728 0.576,-3.168 z m 5.832,26.424004 h 5.256 v 6.912 q 0,1.728 -0.648,3.24 -0.648,1.44 -2.304,2.736 -1.584,1.224 -4.392,2.232 -2.808,0.936 -7.128,1.584 -0.432,-0.864 -1.296,-2.016 -0.864,-1.224 -1.584,-1.944 3.744,-0.36 6.12,-0.936 2.376,-0.576 3.672,-1.296 1.368,-0.792 1.8,-1.656 0.504,-0.936 0.504,-1.944 z m 11.592,0.072 h 5.328 v 10.08 q 0,1.08 0.432,1.368 0.432,0.288 1.944,0.288 0.36,0 1.296,0 1.008,0 2.16,0 1.224,0 2.232,0 1.08,0 1.512,0 0.864,0 1.224,-0.072 0.36,-0.072 0.504,-0.36 0.864,0.432 2.088,0.792 1.224,0.288 2.16,0.432 -0.216,1.44 -1.44,2.016 -1.224,0.576 -3.744,0.576 -0.432,0 -1.656,0 -1.224,0 -2.736,0 -1.44,0 -2.664,0 -1.224,0 -1.656,0 -2.736,0 -4.32,-0.36 -1.512,-0.432 -2.088,-1.512 -0.576,-1.152 -0.576,-3.24 z m -17.28,-16.200004 2.592,-2.592 q 2.592,1.368 5.4,3.24 2.808,1.8 4.392,3.312 l -2.808,2.952004 q -1.512,-1.512 -4.32,-3.456004 -2.736,-1.944 -5.256,-3.456 z m 16.416,2.52 2.376,-3.456 q 2.952,1.152 6.264,2.52 3.312,1.296 6.624,2.736004 3.312,1.368 6.192,2.736 2.952,1.296 5.04,2.448 l -2.52,3.96 q -2.016,-1.152 -4.896,-2.52 -2.88,-1.368 -6.192,-2.88 -3.24,-1.512 -6.624,-2.88 -3.312,-1.440004 -6.264,-2.664004 z m 15.696,-21.816 h 5.4 v 6.12 q 0,1.008 0.144,1.44 0.144,0.36 0.792,0.36 0.432,0 1.44,0 1.008,0 1.44,0 0.72,0 1.656,-0.072 0.936,-0.072 1.512,-0.216 0.144,0.936 0.216,2.232 0.072,1.296 0.216,2.232 -0.576,0.216 -1.512,0.288 -0.936,0.072 -1.872,0.072 -0.432,0 -1.224,0 -0.72,0 -1.44,0 -0.72,0 -1.224,0 -2.304,0 -3.528,-0.648 -1.152,-0.648 -1.584,-2.088 -0.432,-1.44 -0.432,-3.672 z m -44.712,40.248004 h 52.272 v 24.696 h -6.408 v -20.88 h -39.672 v 20.88 h -6.192 z m -5.616,-39.960004 h 32.328 v 4.176 h -32.328 z m 2.376,2.592 h 5.256 v 20.304 q 0,1.872004 0.648,2.664004 0.648,0.72 2.52,0.72 0.648,0 2.088,0 1.512,0 3.312,0 1.8,0 3.6,0 1.872,0 3.24,0 1.44,0 2.16,0 1.512,0 3.6,-0.072 2.16,-0.144 3.24,-0.36 0.144,1.08 0.288,2.232 0.144,1.152 0.288,2.016 -1.008,0.288 -2.952,0.36 -1.944,0.072 -4.032,0.072 -0.72,0 -2.304,0 -1.584,0 -3.6,0 -1.944,0 -3.888,0 -1.944,0 -3.384,0 -1.44,0 -2.016,0 -3.096,0 -4.896,-0.72 -1.8,-0.792 -2.52,-2.52 -0.648,-1.8 -0.648,-4.608004 z m 98.784,17.064 h 29.376 v 5.976004 h -29.376 z m -5.472,12.888004 h 41.04 v 6.12 h -41.04 z m -0.288,-25.920004 h 40.896 v 13.392 h -6.552 v -7.488 h -28.008 v 7.488 h -6.336 z m 9.936,28.872004 h 6.552 q -0.288,5.4 -1.224,9.936 -0.864,4.536 -2.808,8.208 -1.944,3.6 -5.472,6.336 -3.528,2.808 -9.072,4.752 -0.504,-1.296 -1.656,-2.952 -1.152,-1.584 -2.232,-2.52 4.968,-1.512 7.992,-3.744 3.024,-2.232 4.608,-5.112 1.656,-2.952 2.304,-6.624 0.72,-3.744 1.008,-8.28 z m 12.744,-0.144 h 6.408 v 20.448 q 0,1.44 0.288,1.8 0.288,0.36 1.296,0.36 0.288,0 1.08,0 0.864,0 1.728,0 0.864,0 1.224,0 0.648,0 1.008,-0.576 0.36,-0.648 0.504,-2.52 0.216,-1.944 0.288,-5.76 0.72,0.504 1.728,1.008 1.008,0.504 2.088,0.936 1.08,0.36 1.944,0.576 -0.288,4.752 -1.008,7.416 -0.72,2.664 -2.16,3.672 -1.368,1.08 -3.672,1.08 -0.432,0 -1.296,0 -0.792,0 -1.728,0 -0.864,0 -1.656,0 -0.792,0 -1.152,0 -2.808,0 -4.32,-0.72 -1.512,-0.72 -2.088,-2.52 -0.504,-1.728 -0.504,-4.752 z m -8.424,-36.216004 6.336,-1.872 q 1.368,2.16 2.592,4.824 1.296,2.592 1.944,4.536 l -6.696,2.232 q -0.504,-1.944 -1.728,-4.68 -1.152,-2.808 -2.448,-5.04 z m -36.648,1.656 h 16.704 v 6.12 h -10.656 v 57.672004 h -6.048 z m 15.12,0 h 1.08 l 1.008,-0.216 4.464,2.52 q -1.512,4.464 -3.312,9.504 -1.728,5.04 -3.456,9.288 3.672,4.464004 4.752,8.352004 1.152,3.816 1.152,7.128 0,3.168 -0.72,5.472 -0.648,2.232 -2.304,3.456 -0.792,0.576 -1.8,0.936 -0.936,0.288 -2.088,0.504 -1.008,0.072 -2.304,0.144 -1.224,0 -2.448,-0.072 -0.072,-1.152 -0.504,-2.88 -0.36,-1.728 -1.08,-3.024 1.08,0.072 2.016,0.144 0.936,0 1.728,-0.072 1.296,-0.072 2.088,-0.576 0.792,-0.576 1.08,-1.8 0.288,-1.296 0.288,-2.952 0,-2.808 -1.152,-6.336 -1.152,-3.6 -4.68,-7.704004 0.936,-2.376 1.8,-5.112 0.864,-2.736 1.656,-5.472 0.864,-2.736 1.512,-5.184 0.72,-2.448 1.224,-4.176 z"
           id="text4"
           transform="matrix(0.26166763,0,0,0.26166763,-2.1314997,-4.0633201)"
           aria-label="台大醫院" />
        <path
           style="font-size:7.32669px;line-height:1.25;font-family:'AR UDJingXiHeiE1G30 EB';-inkscape-font-specification:'AR UDJingXiHeiE1G30 EB';fill:#ffffff;stroke-width:0.261667"
           d="m 41.322437,37.061886 v 3.824533 h -0.930489 v -5.297197 h 0.959796 l 2.600975,3.912452 v -3.912452 h 0.93049 v 5.297197 h -1.01841 z m 5.905308,-0.747322 h -1.648506 v -0.725342 h 4.220174 v 0.725342 h -1.641179 v 4.571855 h -0.930489 z m 7.715004,2.718202 q 0,0.923163 -0.578809,1.436031 -0.578808,0.512869 -1.648505,0.512869 -1.08435,0 -1.670486,-0.505542 -0.578808,-0.505542 -0.578808,-1.436031 v -3.450871 h 0.93049 v 3.406911 q 0,0.600788 0.329701,0.930489 0.329701,0.329701 0.989103,0.329701 0.622768,0 0.952469,-0.315047 0.337028,-0.322375 0.337028,-0.959797 v -3.392257 h 0.937817 z m 4.029673,-0.498215 v 2.351868 h -0.93049 v -5.297197 h 0.93049 v 2.219987 h 2.542361 v -2.219987 h 0.93049 v 5.297197 h -0.93049 v -2.351868 z m 9.781133,-0.271087 q 0,1.274844 -0.710688,2.000186 -0.703363,0.718016 -1.92692,0.718016 -1.245537,0 -1.9489,-0.725343 -0.703362,-0.725342 -0.703362,-1.992859 0,-1.289498 0.710689,-2.022167 0.710689,-0.739996 1.941573,-0.739996 1.245537,0 1.941573,0.732669 0.696035,0.732669 0.696035,2.029494 z m -2.637608,1.992859 q 0.798609,0 1.230884,-0.527521 0.439601,-0.527522 0.439601,-1.465338 0,-0.93049 -0.439601,-1.479992 -0.439601,-0.556828 -1.230884,-0.556828 -0.805936,0 -1.252864,0.564155 -0.439601,0.556828 -0.439601,1.472665 0,0.937816 0.446928,1.465338 0.446928,0.527521 1.245537,0.527521 z m 5.407099,-1.765732 q -0.967124,-0.175841 -1.436032,-0.542175 -0.468908,-0.366335 -0.468908,-1.025737 0,-0.615442 0.498215,-1.01841 0.505542,-0.402968 1.553258,-0.402968 0.959797,0 1.487319,0.410295 0.527521,0.410295 0.578808,1.186924 h -0.93049 q -0.0073,-0.373661 -0.293067,-0.622769 -0.285741,-0.249107 -0.871876,-0.249107 -0.549502,0 -0.813263,0.183167 -0.263761,0.183167 -0.256434,0.512868 0,0.359008 0.351681,0.534849 0.359008,0.17584 1.164944,0.337027 1.011083,0.205148 1.436031,0.556829 0.432275,0.351681 0.432275,1.055043 0,0.674056 -0.571482,1.128311 -0.571482,0.446928 -1.626525,0.446928 -1.077024,0 -1.677812,-0.454255 -0.600789,-0.454255 -0.600789,-1.311478 h 0.93049 q 0,0.476235 0.359008,0.761976 0.359007,0.278414 0.996429,0.278414 0.586136,0 0.915837,-0.227127 0.329701,-0.227127 0.329701,-0.593462 0,-0.424948 -0.329701,-0.608115 -0.329701,-0.183167 -1.157617,-0.337028 z m 4.234828,0.293068 v 2.10276 h -0.93049 v -5.297197 h 2.491075 q 0.776629,0 1.21623,0.424948 0.439602,0.424948 0.439602,1.12831 0,0.791283 -0.454255,1.216231 -0.446928,0.424948 -1.208904,0.424948 z m 2.271274,-1.626526 q 0,-0.410294 -0.234454,-0.622768 -0.234454,-0.219801 -0.688709,-0.219801 h -1.348111 v 1.743752 h 1.348111 q 0.454255,0 0.688709,-0.2198 0.234454,-0.227128 0.234454,-0.681383 z m 2.769486,-1.567911 v 5.297197 h -0.93049 v -5.297197 z m 2.344534,0.725342 h -1.648506 v -0.725342 h 4.220174 v 0.725342 h -1.641179 v 4.571855 h -0.930489 z m 6.095804,2.432461 -0.835242,-2.263947 -0.849896,2.263947 z m -1.956226,0.725343 -0.527521,1.414051 h -0.945144 l 2.132067,-5.297197 h 0.95247 l 2.117414,5.297197 H 90.044908 L 89.51006,39.472368 Z m 8.059356,1.414051 h -3.721959 v -5.297197 h 0.93049 v 4.571854 h 2.791469 z"
           id="text5"
           aria-label="NTU HOSPITAL" />
        <path
           d="m 41.251565,49.227442 h 4.080966 v 0.666729 h -4.080966 z m -0.315048,-2.198007 h 4.769676 v 3.16513 H 44.966197 V 47.688837 H 41.63988 v 2.520382 h -0.703363 z m 1.450685,-3.663345 0.783956,0.263761 q -0.227128,0.439601 -0.505542,0.901183 -0.271087,0.461581 -0.542175,0.879203 -0.271087,0.417621 -0.520195,0.739995 l -0.615442,-0.256434 q 0.241781,-0.329701 0.498215,-0.761976 0.263761,-0.439601 0.498215,-0.901183 0.241781,-0.461581 0.402968,-0.864549 z m 1.765732,1.238211 0.542175,-0.402968 q 0.373662,0.300394 0.754649,0.666729 0.388315,0.359007 0.718016,0.725342 0.329701,0.366334 0.520195,0.681382 l -0.600789,0.461582 q -0.17584,-0.307721 -0.490888,-0.681383 -0.315047,-0.380988 -0.696035,-0.754649 -0.373662,-0.380988 -0.747323,-0.696035 z m -4.051659,0.974449 q 0.542175,-0.01465 1.21623,-0.03663 0.674056,-0.02198 1.428705,-0.05129 0.761976,-0.02931 1.545931,-0.05861 0.791283,-0.03663 1.560585,-0.07327 l -0.02931,0.666729 q -0.769303,0.04396 -1.553259,0.08059 -0.776629,0.03663 -1.523951,0.07327 -0.739996,0.02931 -1.406725,0.05861 -0.659402,0.02198 -1.186924,0.04396 z m 11.766664,-1.099003 h 0.615442 v 1.377418 q 0,0.19782 -0.04396,0.315047 -0.03663,0.109901 -0.175841,0.175841 -0.139207,0.05861 -0.329701,0.07327 -0.190494,0.0073 -0.461581,0.0073 -0.02198,-0.117228 -0.08059,-0.256435 -0.05129,-0.139207 -0.1099,-0.256434 0.17584,0.0073 0.307721,0.0073 0.139207,0 0.190494,0 0.08792,0 0.08792,-0.08059 z m 0.791283,0.578808 0.498214,-0.271087 q 0.183168,0.161187 0.359008,0.351681 0.175841,0.190494 0.322375,0.388315 0.15386,0.190494 0.234454,0.351681 l -0.542175,0.307721 q -0.07327,-0.161187 -0.212474,-0.359008 -0.139207,-0.197821 -0.315048,-0.395641 -0.168514,-0.205148 -0.344354,-0.373662 z m -2.842756,3.355625 h 3.465524 v 0.542175 h -3.465524 z m 0.168514,-0.93049 h 2.842755 v -0.446928 h -3.421564 v -0.520195 h 4.07364 v 1.494645 H 49.98498 Z m -0.219801,0 h 0.681382 q -0.06594,0.285741 -0.15386,0.600789 -0.08059,0.315047 -0.168514,0.608115 -0.08059,0.293067 -0.153861,0.527522 l -0.659402,-0.09525 q 0.117227,-0.337028 0.241781,-0.783956 0.124554,-0.454255 0.212474,-0.857223 z m 3.333644,0.93049 h 0.696036 q 0,0 -0.01465,0.102573 -0.01465,0.102574 -0.03663,0.175841 -0.109901,0.586135 -0.234454,0.893856 -0.117227,0.307721 -0.271088,0.439601 -0.1099,0.08792 -0.234454,0.124554 -0.124554,0.04396 -0.293068,0.05129 -0.139207,0.0073 -0.395641,0.0073 -0.249107,0 -0.542175,-0.01465 -0.0073,-0.13188 -0.05861,-0.293067 -0.04396,-0.161187 -0.117228,-0.285741 0.263761,0.02198 0.505542,0.02931 0.241781,0.01465 0.337028,0.01465 0.102574,0 0.161187,-0.01465 0.05861,-0.0073 0.1099,-0.04396 0.102574,-0.08792 0.197821,-0.344354 0.102574,-0.263761 0.183167,-0.769303 z m -3.795226,-4.366708 h 4.689082 v 0.564155 h -4.689082 z m 1.92692,-0.644749 h 0.696036 v 0.959797 h -0.696036 z m -1.414051,1.370092 0.578808,0.15386 q -0.161187,0.344354 -0.424948,0.674056 -0.263761,0.329701 -0.542175,0.556828 -0.05129,-0.05129 -0.139207,-0.117227 -0.08792,-0.07327 -0.183167,-0.139207 -0.08792,-0.06594 -0.153861,-0.109901 0.271088,-0.190493 0.498215,-0.454254 0.227128,-0.271088 0.366335,-0.564155 z M 47.603805,43.966879 47.99212,43.45401 q 0.219801,0.08792 0.461581,0.219801 0.241781,0.13188 0.454255,0.271088 0.219801,0.13188 0.351681,0.26376 l -0.410294,0.564156 q -0.124554,-0.124554 -0.337028,-0.271088 -0.205147,-0.146534 -0.446928,-0.285741 -0.234454,-0.146534 -0.461582,-0.249107 z m -0.380988,1.978206 0.388315,-0.520195 q 0.219801,0.08059 0.461582,0.205147 0.24178,0.117227 0.454254,0.249108 0.219801,0.13188 0.351681,0.249107 l -0.395641,0.578809 Q 48.351128,46.582507 48.138654,46.4433 47.92618,46.304093 47.684399,46.172212 47.449945,46.040332 47.222817,45.945085 Z m 0.197821,3.758592 q 0.168514,-0.285741 0.373661,-0.674055 0.205148,-0.388315 0.417622,-0.827916 0.212474,-0.439602 0.395641,-0.857223 l 0.542175,0.417621 q -0.161187,0.388315 -0.351681,0.798609 -0.183167,0.410295 -0.380988,0.813263 -0.190494,0.395641 -0.380988,0.747322 z m 3.289684,-5.275217 h 0.615442 v 0.578809 q 0,0.227127 -0.06594,0.512868 -0.06594,0.285741 -0.263761,0.571482 -0.190494,0.278414 -0.578809,0.483561 -0.05129,-0.05129 -0.139207,-0.117227 -0.08792,-0.06594 -0.17584,-0.13188 -0.08792,-0.06594 -0.168514,-0.102574 0.344354,-0.17584 0.505541,-0.395641 0.168514,-0.219801 0.219801,-0.439601 0.05129,-0.227128 0.05129,-0.402968 z m 4.037006,1.025737 h 6.476794 v 0.718015 h -6.476794 z m 3.648692,0.285741 q 0.234454,0.864549 0.630095,1.611872 0.402968,0.747322 0.981777,1.311477 0.586135,0.556829 1.355438,0.879203 -0.08792,0.07327 -0.190494,0.190494 -0.09525,0.117227 -0.183168,0.234454 -0.08792,0.124554 -0.146533,0.219801 -0.813263,-0.380988 -1.421378,-1.003757 -0.600789,-0.630095 -1.01841,-1.458011 -0.417622,-0.827916 -0.703363,-1.817019 z M 57.590084,43.41005 h 0.754649 q 0,0.520195 -0.02931,1.120984 -0.02198,0.593462 -0.1099,1.223557 -0.08792,0.630095 -0.285741,1.260191 -0.197821,0.630095 -0.549502,1.21623 -0.351681,0.586136 -0.901183,1.091677 -0.549501,0.498215 -1.340784,0.871876 -0.08792,-0.139207 -0.234454,-0.307721 -0.146534,-0.161187 -0.293068,-0.271087 0.761976,-0.344355 1.282171,-0.798609 0.527522,-0.461582 0.849896,-0.99643 0.329701,-0.542175 0.505542,-1.120984 0.175841,-0.578808 0.249107,-1.157617 0.07327,-0.578809 0.08792,-1.120984 0.01465,-0.542175 0.01465,-1.011083 z m 5.729471,2.483748 h 3.524138 v 0.608115 h -3.524138 z m -1.26019,1.663159 h 6.513427 v 0.637422 h -6.513427 z m 2.886716,-0.512868 h 0.710688 v 2.388501 q 0,0.28574 -0.08792,0.439601 -0.08059,0.15386 -0.315047,0.234454 -0.227128,0.07327 -0.564156,0.08792 -0.337027,0.02198 -0.827916,0.02198 -0.02931,-0.146533 -0.117227,-0.344354 -0.08059,-0.190494 -0.168514,-0.329701 0.256435,0.0073 0.498215,0.01465 0.249108,0.0073 0.432275,0.0073 0.183167,-0.0073 0.256434,-0.0073 0.109901,-0.0073 0.146534,-0.03663 0.03663,-0.02931 0.03663,-0.109901 z m 1.677812,-1.150291 h 0.168513 l 0.153861,-0.03663 0.439601,0.337027 q -0.249107,0.263761 -0.571481,0.520195 -0.322375,0.256435 -0.681383,0.476235 -0.351681,0.219801 -0.703362,0.388315 -0.06594,-0.09525 -0.183167,-0.212474 -0.109901,-0.124554 -0.197821,-0.197821 0.300395,-0.139207 0.600789,-0.337028 0.307721,-0.19782 0.564155,-0.402967 0.256434,-0.212474 0.410295,-0.402968 z m -4.447301,-1.289497 h 6.2863 v 1.707118 H 67.78151 v -1.091676 h -4.945516 v 1.091676 h -0.659402 z m 5.165316,-1.150291 0.739996,0.234454 q -0.241781,0.351682 -0.512868,0.696036 -0.271088,0.344354 -0.498215,0.586135 l -0.556829,-0.219801 q 0.146534,-0.17584 0.300395,-0.402967 0.15386,-0.227128 0.293067,-0.461582 0.146534,-0.234454 0.234454,-0.432275 z m -4.667101,0.300395 0.586135,-0.263761 q 0.205147,0.2198 0.402968,0.498215 0.19782,0.278414 0.285741,0.490888 l -0.615442,0.300394 q -0.08792,-0.212474 -0.278415,-0.498215 -0.190493,-0.285741 -0.380987,-0.527521 z m 1.868306,-0.153861 0.608115,-0.227127 q 0.17584,0.249107 0.344354,0.564155 0.175841,0.307721 0.241781,0.534848 l -0.644749,0.256434 q -0.05861,-0.234454 -0.2198,-0.549501 -0.153861,-0.322375 -0.329701,-0.578809 z m 6.791842,1.838999 h 4.615815 v 0.586136 h -4.615815 z m 1.985533,2.483748 0.417621,-0.344354 q 0.219801,0.183167 0.461582,0.410295 0.249107,0.227127 0.468908,0.446928 0.219801,0.212474 0.359008,0.380988 l -0.439602,0.388314 q -0.13188,-0.168514 -0.344354,-0.395641 -0.212474,-0.227128 -0.461582,-0.461582 -0.24178,-0.234454 -0.461581,-0.424948 z m -1.787712,-1.23821 h 3.802552 v 0.593462 h -3.179784 v 2.938002 h -0.622768 z m 3.538791,0 h 0.666729 v 2.813449 q 0,0.234454 -0.06594,0.373661 -0.05861,0.146534 -0.234454,0.227127 -0.161187,0.07327 -0.424948,0.08792 -0.256434,0.02198 -0.630095,0.01465 -0.01465,-0.124554 -0.08792,-0.300394 -0.06594,-0.175841 -0.139207,-0.300395 0.26376,0.0073 0.490888,0.0073 0.227127,0.0073 0.293067,0 0.08059,-0.0073 0.102574,-0.02931 0.02931,-0.02931 0.02931,-0.09525 z m -1.802366,-1.047717 h 0.608115 v 1.238211 q 0,0.293067 -0.05129,0.615442 -0.05129,0.315047 -0.197821,0.630095 -0.146534,0.315048 -0.417621,0.600789 -0.271088,0.28574 -0.710689,0.512868 -0.05861,-0.09525 -0.183168,-0.227128 -0.117227,-0.139207 -0.212474,-0.2198 0.388315,-0.183167 0.622769,-0.417622 0.241781,-0.234454 0.351681,-0.490888 0.117227,-0.263761 0.153861,-0.520195 0.03663,-0.256434 0.03663,-0.483561 z M 70.74882,44.223313 h 5.260563 v 0.622768 H 70.74882 Z m -0.373662,0 h 0.659403 v 2.19068 q 0,0.432275 -0.04396,0.937817 -0.03663,0.498214 -0.161187,1.011083 -0.124553,0.512868 -0.359008,0.989103 -0.227127,0.468908 -0.608115,0.842569 -0.05129,-0.06594 -0.146534,-0.161187 -0.08792,-0.08792 -0.190494,-0.17584 -0.09525,-0.08059 -0.161187,-0.124554 0.344355,-0.351681 0.542175,-0.761976 0.205148,-0.417621 0.300395,-0.857223 0.102573,-0.439601 0.13188,-0.879203 0.03663,-0.439601 0.03663,-0.827916 z m 2.241968,-0.813263 h 0.732669 v 1.230884 h -0.732669 z m -3.370278,1.655832 0.505542,-0.249107 q 0.190494,0.315047 0.351681,0.696035 0.161187,0.380988 0.219801,0.652076 l -0.542175,0.293067 q -0.03663,-0.190494 -0.117227,-0.424948 -0.08059,-0.241781 -0.190494,-0.490888 -0.109901,-0.256434 -0.227128,-0.476235 z m -0.09525,2.600975 q 0.263761,-0.117227 0.615442,-0.293067 0.359008,-0.175841 0.739996,-0.373662 l 0.168514,0.549502 q -0.322375,0.190494 -0.659402,0.388315 -0.329701,0.19782 -0.644749,0.366334 z M 80.742424,43.43203 h 0.674055 v 1.120984 h -0.674055 z m -1.707119,0.805936 h 4.220173 v 1.384745 h -0.637422 v -0.791283 h -2.959982 v 0.791283 h -0.622769 z m 0.564155,1.318804 h 3.07721 v 0.600789 h -3.07721 z m -0.468908,1.304151 h 4.124926 v 0.622769 h -4.124926 z m 0.915836,0.285741 h 0.659402 q -0.02931,0.586135 -0.1099,1.069697 -0.08059,0.476235 -0.271088,0.857223 -0.183167,0.380988 -0.534848,0.659402 -0.344355,0.285741 -0.901183,0.476235 -0.02931,-0.08059 -0.09525,-0.183168 -0.06594,-0.102573 -0.139207,-0.19782 -0.07327,-0.09525 -0.146534,-0.153861 0.498215,-0.161187 0.791283,-0.388314 0.293067,-0.227128 0.446928,-0.534849 0.161187,-0.307721 0.2198,-0.710689 0.05861,-0.402968 0.08059,-0.893856 z m 1.355438,-0.06594 h 0.652075 v 2.205334 q 0,0.146534 0.02198,0.183167 0.02931,0.03663 0.124554,0.03663 0.02931,0 0.1099,0 0.08059,0 0.161188,0 0.08792,0 0.117227,0 0.07327,0 0.1099,-0.05861 0.03663,-0.05861 0.05129,-0.249108 0.01465,-0.19782 0.02198,-0.586135 0.06594,0.05861 0.168514,0.109901 0.102573,0.05129 0.212474,0.09525 0.117227,0.03663 0.205147,0.05861 -0.02931,0.490888 -0.102574,0.761976 -0.07327,0.278414 -0.212474,0.380988 -0.139207,0.1099 -0.380988,0.1099 -0.04396,0 -0.124553,0 -0.07327,0 -0.161187,0 -0.08792,0 -0.168514,0 -0.07327,0 -0.117227,0 -0.278415,0 -0.432275,-0.08059 -0.146534,-0.07327 -0.205147,-0.256434 -0.05129,-0.183167 -0.05129,-0.505541 z m -4.549875,-3.355624 h 1.721772 v 0.622769 h -1.113657 v 5.868678 h -0.608115 z m 1.516625,0 h 0.1099 l 0.102574,-0.02931 0.454255,0.263761 q -0.102574,0.307721 -0.219801,0.659402 -0.117227,0.344354 -0.241781,0.681382 -0.117227,0.337028 -0.234454,0.630096 0.373661,0.439601 0.490889,0.820589 0.117227,0.380988 0.117227,0.718016 0,0.315047 -0.07327,0.542175 -0.06594,0.227127 -0.234454,0.344354 -0.08059,0.05861 -0.183168,0.09525 -0.09525,0.02931 -0.212474,0.05129 -0.212474,0.02198 -0.483561,0.0073 -0.0073,-0.124554 -0.05129,-0.293068 -0.03663,-0.175841 -0.1099,-0.300394 0.1099,0.0073 0.205147,0.0073 0.09525,0 0.17584,0 0.139208,-0.0073 0.219801,-0.06594 0.07327,-0.05861 0.102574,-0.183167 0.02931,-0.124554 0.02931,-0.285741 0,-0.278414 -0.117227,-0.630095 -0.117228,-0.351682 -0.476235,-0.754649 0.09525,-0.249108 0.183167,-0.534849 0.08792,-0.285741 0.168514,-0.571482 0.08792,-0.293067 0.15386,-0.542175 0.07327,-0.256434 0.124554,-0.432275 z"
           id="text5-9"
           style="font-weight:500;font-size:7.32669px;line-height:1.25;font-family:'Noto Sans JP';-inkscape-font-specification:'Noto Sans JP Medium';fill:#ffffff;stroke-width:0.261667"
           aria-label="台湾大学病院 " />
        <path
           style="font-weight:500;font-size:7.32669px;line-height:1.25;font-family:'Noto Sans KR';-inkscape-font-specification:'Noto Sans KR Medium';fill:#ffffff;stroke-width:0.261667"
           d="m 94.589827,43.584846 h 0.732669 v 6.696595 h -0.732669 z m -1.025736,2.637609 h 1.21623 v 0.630095 h -1.21623 z m -0.483562,-2.498402 h 0.718016 v 6.227687 h -0.718016 z m -3.245724,4.337401 h 0.446929 q 0.461581,0 0.849896,-0.01465 0.388314,-0.01465 0.754649,-0.05129 0.373661,-0.04396 0.761975,-0.117227 l 0.07327,0.630095 q -0.402968,0.08059 -0.783955,0.124554 -0.380988,0.03663 -0.783956,0.05129 -0.395642,0.01465 -0.871876,0.01465 h -0.446929 z m 0,-3.677998 h 2.476422 v 0.622768 h -1.721772 v 3.348298 h -0.75465 z m 6.75521,-0.219801 h 3.128496 v 3.16513 h -3.128496 z m 2.381174,0.615442 h -1.626525 v 1.934246 h 1.626525 z m 1.846321,-1.194251 h 0.76198 v 4.901556 h -0.76198 z m 0.53485,1.99286 h 1.17227 v 0.637422 h -1.17227 z m -4.007696,3.949086 h 4.513236 v 0.622769 h -4.513236 z m 0,-1.516625 h 0.769302 v 1.809693 h -0.769302 z m 12.777756,-4.425321 h 0.73267 v 6.696595 h -0.73267 z m -1.02574,2.637609 h 1.21623 v 0.630095 h -1.21623 z m -0.48356,-2.498402 h 0.71801 v 6.227687 h -0.71801 z m -3.24572,4.337401 h 0.44692 q 0.46158,0 0.8499,-0.01465 0.38831,-0.01465 0.75465,-0.05129 0.37366,-0.04396 0.76197,-0.117227 l 0.0733,0.630095 q -0.40297,0.08059 -0.78395,0.124554 -0.38099,0.03663 -0.78396,0.05129 -0.39564,0.01465 -0.87188,0.01465 h -0.44692 z m 0,-3.677998 h 2.47642 v 0.622768 h -1.72178 v 3.348298 h -0.75464 z m 6.52808,-0.139208 h 3.94908 v 0.608116 h -3.94908 z m 1.9782,0.893857 q 0.47624,0 0.84257,0.15386 0.36634,0.153861 0.57148,0.432275 0.20515,0.271087 0.20515,0.637422 0,0.366334 -0.20515,0.644749 -0.20514,0.271087 -0.57148,0.424948 -0.36633,0.146534 -0.84257,0.146534 -0.48356,0 -0.84989,-0.146534 -0.36634,-0.153861 -0.57148,-0.424948 -0.20515,-0.278415 -0.20515,-0.644749 0,-0.366335 0.20515,-0.637422 0.20514,-0.278414 0.57148,-0.432275 0.36633,-0.15386 0.84989,-0.15386 z m 0,0.593462 q -0.40296,0 -0.65207,0.168513 -0.24178,0.161188 -0.24178,0.461582 0,0.293068 0.24178,0.461581 0.24911,0.168514 0.65207,0.168514 0.39564,0 0.63743,-0.168514 0.24178,-0.168513 0.24178,-0.461581 0,-0.300394 -0.24178,-0.461582 -0.24179,-0.168513 -0.63743,-0.168513 z m 2.47642,-2.139394 h 0.76198 v 4.190867 h -0.76198 z m 0.55683,1.787712 h 1.15029 v 0.637423 h -1.15029 z m -4.19086,2.725529 h 4.39601 v 2.183354 h -0.76198 v -1.567912 h -3.63403 z m 0.7693,-4.549874 h 0.7693 v 1.033063 h -0.7693 z m 10.38192,1.069696 h 1.77306 v 0.622769 h -1.77306 z m 0,1.377418 h 1.77306 v 0.615442 h -1.77306 z m -2.87938,-2.007513 h 0.76197 v 0.989103 h 1.56791 v -0.989103 h 0.75465 v 3.179784 h -3.08453 z m 0.76197,1.589892 v 0.981776 h 1.56791 v -0.981776 z m 3.70731,-1.99286 h 0.7693 v 4.022353 h -0.7693 z m -1.45801,4.154233 q 0.70336,0 1.20157,0.153861 0.50554,0.146534 0.77663,0.432275 0.27842,0.278414 0.27842,0.681382 0,0.600788 -0.60812,0.930489 -0.60079,0.329702 -1.6485,0.329702 -1.04772,0 -1.65584,-0.329702 -0.60811,-0.329701 -0.60811,-0.930489 0,-0.402968 0.27109,-0.681382 0.27841,-0.285741 0.78395,-0.432275 0.51287,-0.153861 1.20891,-0.153861 z m 0,0.593462 q -0.47624,0 -0.81327,0.08059 -0.3297,0.07327 -0.50554,0.219801 -0.17584,0.146533 -0.17584,0.373661 0,0.212474 0.17584,0.366334 0.17584,0.153861 0.50554,0.234454 0.33703,0.07327 0.81327,0.07327 0.47623,0 0.80593,-0.07327 0.3297,-0.08059 0.50554,-0.234454 0.18317,-0.15386 0.18317,-0.366334 0,-0.227128 -0.18317,-0.373661 -0.17584,-0.146534 -0.50554,-0.219801 -0.3297,-0.08059 -0.80593,-0.08059 z m 5.25323,-1.348111 h 0.76198 v 1.472665 h -0.76198 z m 2.94533,-3.399584 h 0.76931 v 5.077396 h -0.76931 z m -3.91245,5.934619 h 4.84294 v 0.622769 h -4.84294 z m 0,-1.348111 h 0.7693 v 1.516625 h -0.7693 z m -0.79861,-0.93049 -0.0953,-0.622768 q 0.61545,-0.0073 1.34079,-0.01465 0.72534,-0.01465 1.47999,-0.05129 0.76198,-0.04396 1.46534,-0.131881 l 0.0586,0.549502 q -0.71801,0.117227 -1.47266,0.175841 -0.74733,0.05861 -1.45801,0.07327 -0.71069,0.01465 -1.31881,0.02198 z m 3.39959,0.263761 h 1.50197 v 0.542175 h -1.50197 z m -1.33346,-3.670671 q 0.49821,0 0.86455,0.146533 0.37366,0.146534 0.57881,0.417622 0.21247,0.263761 0.21247,0.615442 0,0.351681 -0.21247,0.622768 -0.20515,0.271088 -0.57881,0.417622 -0.36634,0.139207 -0.86455,0.139207 -0.48356,0 -0.86455,-0.139207 -0.37366,-0.146534 -0.58614,-0.417622 -0.20514,-0.271087 -0.20514,-0.622768 0,-0.351681 0.20514,-0.615442 0.21248,-0.271088 0.58614,-0.417622 0.38099,-0.146533 0.86455,-0.146533 z m 0,0.564155 q -0.4103,0 -0.67406,0.168514 -0.25643,0.161187 -0.25643,0.446928 0,0.285741 0.25643,0.454254 0.26376,0.161188 0.67406,0.161188 0.41029,0 0.66673,-0.161188 0.25643,-0.168513 0.25643,-0.454254 0,-0.190494 -0.11723,-0.322375 -0.11722,-0.139207 -0.32237,-0.212474 -0.20515,-0.08059 -0.48356,-0.08059 z"
           id="text5-9-8"
           aria-label="대만 대학 병원" />
      </g>
    </g>
    <text
       xml:space="preserve"
       transform="matrix(0.31615295,0,0,0.31615295,-10.474341,-6.4462013)"
       id="text6"
       style="font-size:55px;line-height:1.25;font-family:'Microsoft JhengHei';-inkscape-font-specification:'Microsoft JhengHei';white-space:pre;shape-inside:url(#rect6);display:inline" />
  </g>
</svg>
