<?xml version="1.0" encoding="UTF-8" standalone="no"?>
<!-- Created with Inkscape (http://www.inkscape.org/) -->

<svg
   width="500"
   height="250"
   viewBox="0 0 132.29166 66.145833"
   version="1.1"
   id="svg1"
   inkscape:version="1.3.2 (091e20e, 2023-11-25, custom)"
   sodipodi:docname="r10.svg"
   xmlns:inkscape="http://www.inkscape.org/namespaces/inkscape"
   xmlns:sodipodi="http://sodipodi.sourceforge.net/DTD/sodipodi-0.dtd"
   xmlns="http://www.w3.org/2000/svg"
   xmlns:svg="http://www.w3.org/2000/svg">
  <sodipodi:namedview
     id="namedview1"
     pagecolor="#9e652e"
     bordercolor="#ffffff"
     borderopacity="1"
     inkscape:showpageshadow="0"
     inkscape:pageopacity="0"
     inkscape:pagecheckerboard="false"
     inkscape:deskcolor="#d1d1d1"
     inkscape:document-units="mm"
     inkscape:zoom="2.0208096"
     inkscape:cx="225.15728"
     inkscape:cy="106.88785"
     inkscape:window-width="1920"
     inkscape:window-height="1009"
     inkscape:window-x="1912"
     inkscape:window-y="-8"
     inkscape:window-maximized="1"
     inkscape:current-layer="layer1" />
  <defs
     id="defs1">
    <rect
       x="560.66638"
       y="34.144731"
       width="279.32397"
       height="128.59143"
       id="rect6" />
    <rect
       x="157.85752"
       y="62.351248"
       width="329.07603"
       height="135.09437"
       id="rect4" />
    <rect
       x="157.85751"
       y="62.35125"
       width="329.07602"
       height="135.09438"
       id="rect4-5" />
  </defs>
  <g
     inkscape:label="Layer 1"
     inkscape:groupmode="layer"
     id="layer1">
    <rect
       style="fill:#d0002b;fill-opacity:1;stroke:none;stroke-width:0.953294;stroke-dasharray:none"
       id="rect5"
       width="132.29167"
       height="66.145836"
       x="-2.5431316e-06"
       y="-1.2715658e-06"
       ry="0" />
    <g
       id="g1"
       transform="translate(2.2018699)">
      <path
         id="rect1"
         style="fill-opacity:0;stroke:#f9f9f9;stroke-width:0.942789"
         d="m 15.91309,14.352791 h 12.425164 c 3.927062,0 7.088559,3.161497 7.088559,7.088559 v 23.263136 c 0,3.927062 -3.161497,7.088559 -7.088559,7.088559 H 15.91309 c -3.927061,0 -7.0885584,-3.161497 -7.0885584,-7.088559 V 21.44135 c 0,-3.927062 3.1614974,-7.088559 7.0885584,-7.088559 z" />
      <path
         style="font-size:14.2913px;line-height:1.25;font-family:'AR UDJingXiHeiE1G30 EB';-inkscape-font-specification:'AR UDJingXiHeiE1G30 EB';fill:#f9f9f9;stroke-width:0.297736"
         d="m 24.467136,23.773818 q 0,-0.757439 -0.400156,-1.143304 -0.400157,-0.400156 -1.157596,-0.400156 H 19.808172 V 25.4459 h 3.001173 q 0.743148,0 1.200469,-0.44303 0.457322,-0.44303 0.457322,-1.229052 z m -4.658964,3.07263 v 4.301681 h -1.814995 v -10.33261 h 5.259198 q 1.414839,0 2.243734,0.757439 0.843187,0.743148 0.843187,2.115112 0,0.900352 -0.428739,1.543461 -0.414448,0.643108 -1.043265,0.914643 0.800313,0.457322 1.229052,1.586334 0.428739,1.129013 0.543069,3.415621 h -1.886451 q -0.08575,-2.400938 -0.528778,-3.344164 -0.428739,-0.957517 -1.386256,-0.957517 z"
         id="text2"
         aria-label="R" />
      <path
         style="font-size:14.3917px;line-height:1.25;font-family:'AR UDJingXiHeiE1G30 EB';-inkscape-font-specification:'AR UDJingXiHeiE1G30 EB';fill:#f9f9f9;stroke-width:0.261667"
         d="m 17.21808,36.584172 -1.683829,1.568695 -0.834718,-1.280861 2.705639,-2.460981 h 1.568695 V 44.816224 H 17.21808 Z m 12.837386,3.108607 q 0,2.720031 -0.877894,4.015284 -0.877893,1.295253 -2.720031,1.295253 -1.784571,0 -2.705639,-1.295253 -0.921069,-1.295253 -0.921069,-4.015284 0,-2.907123 0.877894,-4.173593 0.877893,-1.280861 2.748814,-1.280861 1.827746,0 2.70564,1.280861 0.892285,1.26647 0.892285,4.173593 z m -3.597925,3.885759 q 0.921069,0 1.35282,-0.906677 0.431751,-0.921069 0.431751,-2.979082 0,-2.216322 -0.417359,-3.122999 -0.402968,-0.906677 -1.367212,-0.906677 -0.964244,0 -1.381603,0.921069 -0.417359,0.906677 -0.417359,3.108607 0,2.043622 0.431751,2.96469 0.431751,0.921069 1.367211,0.921069 z"
         id="text3"
         aria-label="10" />
      <path
         style="font-weight:500;font-size:72px;line-height:1.25;font-family:'Noto Sans TC';-inkscape-font-specification:'Noto Sans TC Medium';white-space:pre;fill:#f9f9f9"
         d="m 173.55342,131.04941 h 40.176 v 6.552 h -40.176 z m -3.384,-20.592 h 47.376 v 30.888 h -7.272 v -24.336 h -33.12 v 24.408 h -6.984 z m 30.312,-24.768004 5.328,-3.528 q 3.384,3.024 7.128,6.84 3.744,3.744 6.912,7.488 3.24,3.744004 5.112,6.768004 l -5.832,4.248 q -1.728,-3.096 -4.824,-6.912 -3.096,-3.816004 -6.768,-7.704004 -3.6,-3.888 -7.056,-7.2 z m -33.48,19.296004 q -0.144,-0.72 -0.576,-1.944 -0.36,-1.224 -0.792,-2.52 -0.432,-1.296004 -0.864,-2.160004 1.368,-0.288 2.736,-1.368 1.368,-1.152 3.168,-2.88 1.008,-0.864 2.88,-2.88 1.872,-2.016 4.176,-4.752 2.304,-2.736 4.68,-5.976 2.376,-3.24 4.392,-6.48 l 6.84,2.952 q -3.312,4.68 -7.128,9.144 -3.744,4.392 -7.632,8.28 -3.816,3.888 -7.632,6.984004 v 0.216 q 0,0 -0.648,0.36 -0.648,0.288 -1.512,0.864 -0.864,0.504 -1.512,1.08 -0.576,0.576 -0.576,1.08 z m 0,0 -0.072,-5.328004 4.824,-2.52 45.216,-1.8 q 0.072,1.368 0.288,3.168 0.216,1.800004 0.432,2.880004 -10.656,0.576 -18.36,1.008 -7.704,0.36 -13.032,0.648 -5.256,0.288 -8.712,0.576 -3.384,0.216 -5.472,0.432 -2.016,0.144 -3.168,0.36 -1.08,0.216 -1.944,0.576 z m 67.248,-12.600004 h 21.24 v 6.84 h -21.24 z m 35.64,-16.416 h 7.128 v 51.912004 q 0,2.808 0.504,3.6 0.576,0.792 2.448,0.792 0.504,0 1.512,0 1.08,0 2.304,0 1.224,0 2.304,0 1.08,0 1.584,0 1.512,0 2.232,-1.368 0.792,-1.44 1.08,-5.112 0.36,-3.744 0.576,-10.44 0.864,0.648 2.016,1.368 1.152,0.648 2.376,1.152 1.224,0.504 2.16,0.72 -0.36,7.488 -1.224,11.952 -0.864,4.392 -2.88,6.336 -1.944,2.016 -5.688,2.016 -0.576,0 -1.872,0 -1.296,0 -2.808,0 -1.512,0 -2.808,0 -1.224,0 -1.8,0 -3.456,0 -5.472,-1.008 -2.016,-0.936 -2.88,-3.384 -0.792,-2.448 -0.792,-6.696 z m -18.072,-0.072 h 7.056 v 53.496004 h -7.056 z m -19.944,57.888004 q 3.888,-1.296 9.144,-3.168 5.256,-1.872 11.088,-4.032 5.904,-2.16 11.664,-4.32 l 1.152,6.048 q -5.112,2.232 -10.44,4.464 -5.328,2.16 -10.296,4.176 -4.968,2.016 -9.216,3.672 z m 41.76,-41.472004 h 23.04 v 6.84 h -23.04 z m 33.768,-11.376 h 60.84 v 6.192 h -60.84 z m -2.016,44.208004 h 65.232 v 6.264 h -65.232 z m 28.728,-50.472004 h 7.056 v 66.960004 h -7.056 z m -14.76,33.840004 v 6.12 h 36.792 v -6.12 z m 0,-11.304004 v 6.048004 h 36.792 v -6.048004 z m -6.552,-5.544 h 50.184 v 28.512004 h -50.184 z m 64.944,-3.816 h 28.368 v 6.264 h -28.368 z m -0.72,40.032004 q 3.528,-0.72 8.064,-1.728 4.608,-1.008 9.72,-2.16 5.112,-1.224 10.152,-2.376 l 0.72,6.336 q -7.128,1.728 -14.328,3.528 -7.128,1.728 -12.816,3.096 z m 3.384,-29.808004 5.328,-1.008 q 0.864,4.032004 1.512,8.496004 0.72,4.464 1.224,8.784 0.504,4.248 0.72,7.704 l -5.616,1.08 q -0.144,-3.456 -0.648,-7.776 -0.432,-4.32 -1.08,-8.784 -0.648,-4.536 -1.44,-8.496004 z m 16.416,-1.728 6.336,1.08 q -0.576,3.600004 -1.296,7.488004 -0.72,3.816 -1.512,7.704 -0.72,3.816 -1.512,7.272 -0.792,3.456 -1.584,6.192 l -4.968,-1.152 q 0.648,-2.736 1.296,-6.264 0.72,-3.6 1.296,-7.488 0.648,-3.96 1.08,-7.704 0.504,-3.816004 0.864,-7.128004 z m -10.8,-19.584 5.832,-1.728 q 1.512,2.448 2.88,5.4 1.44,2.952 2.088,5.184 l -6.192,2.088 q -0.576,-2.232 -1.944,-5.328 -1.296,-3.096 -2.664,-5.616 z m 36.432,12.096 h 20.808 v 6.48 h -20.808 z m -12.24,42.768004 h 26.64 v 6.408 h -26.64 z m 8.424,-57.024004 h 6.984 v 37.080004 h -6.984 z m -11.448,34.272004 h 33.264 v 32.256 h -6.984 v -25.92 h -19.656 v 26.208 h -6.624 z"
         id="text4"
         transform="matrix(0.26166763,0,0,0.26166763,-2.1314997,-4.0633201)"
         aria-label="台北車站" />
      <path
         style="font-size:7.32669px;line-height:1.25;font-family:'AR UDJingXiHeiE1G30 EB';-inkscape-font-specification:'AR UDJingXiHeiE1G30 EB';fill:#f9f9f9;stroke-width:0.261667"
         d="m 41.520258,36.314564 h -1.648505 v -0.725342 h 4.220173 v 0.725342 h -1.641178 v 4.571855 h -0.93049 z m 6.095805,2.432461 -0.835243,-2.263947 -0.849896,2.263947 z m -1.956226,0.725343 -0.527522,1.414051 h -0.945143 l 2.132067,-5.297197 h 0.95247 l 2.117413,5.297197 H 48.421999 L 47.88715,39.472368 Z m 5.267883,-3.883146 v 5.297197 h -0.930489 v -5.297197 z m 2.146715,3.194437 v 2.10276 h -0.930489 v -5.297197 h 2.491074 q 0.77663,0 1.216231,0.424948 0.439601,0.424948 0.439601,1.12831 0,0.791283 -0.454254,1.216231 -0.446928,0.424948 -1.208904,0.424948 z m 2.271274,-1.626526 q 0,-0.410294 -0.234454,-0.622768 -0.234454,-0.219801 -0.688709,-0.219801 h -1.348111 v 1.743752 h 1.348111 q 0.454255,0 0.688709,-0.2198 0.234454,-0.227128 0.234454,-0.681383 z m 5.758777,3.729286 h -3.919779 v -5.297197 h 3.897799 v 0.725342 h -2.96731 v 1.494645 h 2.769489 v 0.725342 h -2.769489 v 1.626525 h 2.98929 z m 1.91227,-5.297197 v 5.297197 h -0.930489 v -5.297197 z m 4.036995,1.479991 v 3.817206 h -0.901183 v -5.297197 h 1.179597 l 1.523952,4.110273 1.465338,-4.110273 h 1.208904 v 5.297197 h -0.90851 v -3.846513 l -1.377418,3.846513 h -0.783956 z m 8.51361,1.677812 -0.835243,-2.263947 -0.849896,2.263947 z m -1.956227,0.725343 -0.527521,1.414051 H 72.13847 l 2.132067,-5.297197 h 0.952469 l 2.117414,5.297197 h -0.967123 l -0.534849,-1.414051 z m 5.267887,-3.883146 v 5.297197 h -0.93049 v -5.297197 z m 2.146713,1.472664 v 3.824533 h -0.93049 v -5.297197 h 0.959797 l 2.600975,3.912452 v -3.912452 h 0.93049 v 5.297197 h -1.01841 z m 8.454991,1.428705 q -0.967123,-0.175841 -1.436031,-0.542175 -0.468908,-0.366335 -0.468908,-1.025737 0,-0.615442 0.498215,-1.01841 0.505541,-0.402968 1.553258,-0.402968 0.959797,0 1.487318,0.410295 0.527522,0.410295 0.578809,1.186924 h -0.93049 q -0.0073,-0.373661 -0.293067,-0.622769 -0.285741,-0.249107 -0.871877,-0.249107 -0.549501,0 -0.813262,0.183167 -0.263761,0.183167 -0.256434,0.512868 0,0.359008 0.351681,0.534849 0.359008,0.17584 1.164943,0.337027 1.011084,0.205148 1.436032,0.556829 0.432274,0.351681 0.432274,1.055043 0,0.674056 -0.571481,1.128311 -0.571482,0.446928 -1.626526,0.446928 -1.077023,0 -1.677812,-0.454255 -0.600788,-0.454255 -0.600788,-1.311478 h 0.930489 q 0,0.476235 0.359008,0.761976 0.359008,0.278414 0.99643,0.278414 0.586135,0 0.915836,-0.227127 0.329701,-0.227127 0.329701,-0.593462 0,-0.424948 -0.329701,-0.608115 -0.329701,-0.183167 -1.157617,-0.337028 z m 4.432645,-2.176027 h -1.648505 v -0.725342 h 4.220174 v 0.725342 H 94.84386 v 4.571855 h -0.93049 z m 6.09581,2.432461 -0.835248,-2.263947 -0.849896,2.263947 z m -1.956231,0.725343 -0.527522,1.414051 h -0.945143 l 2.132067,-5.297197 h 0.95247 l 2.117409,5.297197 h -0.96712 l -0.53485,-1.414051 z m 5.465701,-3.157804 h -1.6485 v -0.725342 h 4.22017 v 0.725342 h -1.64118 v 4.571855 h -0.93049 z m 4.20552,-0.725342 v 5.297197 h -0.93049 v -5.297197 z m 6.30827,2.674242 q 0,1.274844 -0.71068,2.000186 -0.70337,0.718016 -1.92692,0.718016 -1.24554,0 -1.9489,-0.725343 -0.70337,-0.725342 -0.70337,-1.992859 0,-1.289498 0.71069,-2.022167 0.71069,-0.739996 1.94158,-0.739996 1.24553,0 1.94157,0.732669 0.69603,0.732669 0.69603,2.029494 z m -2.6376,1.992859 q 0.7986,0 1.23088,-0.527521 0.4396,-0.527522 0.4396,-1.465338 0,-0.93049 -0.4396,-1.479992 -0.4396,-0.556828 -1.23088,-0.556828 -0.80594,0 -1.25287,0.564155 -0.4396,0.556828 -0.4396,1.472665 0,0.937816 0.44693,1.465338 0.44693,0.527521 1.24554,0.527521 z m 4.57918,-3.194437 v 3.824533 h -0.93049 v -5.297197 h 0.9598 l 2.60097,3.912452 v -3.912452 h 0.93049 v 5.297197 h -1.01841 z"
         id="text5"
         aria-label="TAIPEI MAIN STATION" />
      <path
         d="m 41.251565,49.227442 h 4.080966 v 0.666729 h -4.080966 z m -0.315048,-2.198007 h 4.769676 v 3.16513 H 44.966197 V 47.688837 H 41.63988 v 2.520382 h -0.703363 z m 1.450685,-3.663345 0.783956,0.263761 q -0.227128,0.439601 -0.505542,0.901183 -0.271087,0.461581 -0.542175,0.879203 -0.271087,0.417621 -0.520195,0.739995 l -0.615442,-0.256434 q 0.241781,-0.329701 0.498215,-0.761976 0.263761,-0.439601 0.498215,-0.901183 0.241781,-0.461581 0.402968,-0.864549 z m 1.765732,1.238211 0.542175,-0.402968 q 0.373662,0.300394 0.754649,0.666729 0.388315,0.359007 0.718016,0.725342 0.329701,0.366334 0.520195,0.681382 l -0.600789,0.461582 q -0.17584,-0.307721 -0.490888,-0.681383 -0.315047,-0.380988 -0.696035,-0.754649 -0.373662,-0.380988 -0.747323,-0.696035 z m -4.051659,0.974449 q 0.542175,-0.01465 1.21623,-0.03663 0.674056,-0.02198 1.428705,-0.05129 0.761976,-0.02931 1.545931,-0.05861 0.791283,-0.03663 1.560585,-0.07327 l -0.02931,0.666729 q -0.769303,0.04396 -1.553259,0.08059 -0.776629,0.03663 -1.523951,0.07327 -0.739996,0.02931 -1.406725,0.05861 -0.659402,0.02198 -1.186924,0.04396 z m 7.32669,-0.366334 h 2.161373 v 0.696036 h -2.161373 z m 3.626711,-1.670485 h 0.725343 v 5.370464 q 0,0.293067 0.05861,0.380987 0.06594,0.08059 0.285741,0.08059 0.05129,0 0.175841,0 0.13188,0 0.285741,0 0.15386,0 0.285741,0 0.13188,0 0.190494,0 0.161187,0 0.24178,-0.124554 0.08059,-0.13188 0.117227,-0.461581 0.03663,-0.329701 0.05861,-0.923163 0.08792,0.06594 0.205147,0.13188 0.117227,0.06594 0.241781,0.117227 0.124554,0.04396 0.219801,0.06594 -0.03663,0.681383 -0.131881,1.099004 -0.08792,0.410295 -0.293067,0.593462 -0.205148,0.183167 -0.593462,0.183167 -0.05861,0 -0.212474,0 -0.153861,0 -0.337028,0 -0.183167,0 -0.337028,0 -0.146534,0 -0.205147,0 -0.380988,0 -0.593462,-0.102573 -0.212474,-0.102574 -0.300394,-0.359008 -0.08792,-0.249108 -0.08792,-0.696036 z m -1.809692,-0.0073 H 49.963 v 6.608674 h -0.718016 z m 4.212847,1.113657 0.505541,0.615442 q -0.351681,0.263761 -0.769302,0.520195 -0.417621,0.256434 -0.857223,0.505541 -0.432275,0.249108 -0.849896,0.468909 -0.03663,-0.117227 -0.124554,-0.278415 -0.08059,-0.161187 -0.15386,-0.26376 0.402968,-0.219801 0.813263,-0.483562 0.410294,-0.271088 0.783955,-0.549502 0.373662,-0.285741 0.652076,-0.534848 z m -6.271647,3.934432 q 0.300394,-0.09525 0.688709,-0.234454 0.388314,-0.139207 0.820589,-0.300394 0.439602,-0.161187 0.879203,-0.329701 l 0.13188,0.630095 q -0.564155,0.249108 -1.15029,0.498215 -0.578808,0.241781 -1.055043,0.439602 z m 11.026669,-4.894229 h 0.644748 v 2.806123 q 0,0.432274 -0.02931,0.930489 -0.02931,0.490889 -0.109901,0.99643 -0.08059,0.498215 -0.24178,0.967123 -0.161188,0.461582 -0.424948,0.835243 -0.05129,-0.05129 -0.161188,-0.124554 -0.102573,-0.06594 -0.212474,-0.13188 -0.102573,-0.05861 -0.183167,-0.09525 0.329701,-0.468908 0.476235,-1.055043 0.15386,-0.586136 0.197821,-1.186924 0.04396,-0.608116 0.04396,-1.135637 z m 1.729099,2.791469 q 0.102573,0.710689 0.285741,1.333458 0.190493,0.615442 0.490888,1.091677 0.300394,0.476235 0.732669,0.769302 -0.07327,0.05861 -0.161187,0.153861 -0.08792,0.102573 -0.168514,0.205147 -0.07327,0.102574 -0.124554,0.197821 -0.490888,-0.351681 -0.813263,-0.893856 -0.322374,-0.542176 -0.520195,-1.238211 -0.19782,-0.703362 -0.322374,-1.523952 z M 58.54988,43.688464 h 2.578995 v 3.12117 H 58.54988 v -0.630095 h 1.941573 V 44.333213 H 58.54988 Z m -3.304337,1.128311 h 2.285928 v 0.534848 h -2.285928 z m 0,1.099003 h 2.285928 v 0.534849 h -2.285928 z m -0.337028,1.113657 h 2.505729 v 0.549502 h -2.505729 z m 1.194251,-3.01127 h 0.571482 v 3.311664 h -0.571482 z m 0.344354,3.905126 0.293068,-0.1099 q 0.13188,0.219801 0.241781,0.483562 0.117227,0.26376 0.168514,0.454254 l -0.322375,0.124554 q -0.03663,-0.190494 -0.146534,-0.461581 -0.1099,-0.271088 -0.234454,-0.490889 z m -0.512868,0.109901 0.315048,-0.05861 q 0.102573,0.278414 0.183167,0.608115 0.08059,0.329702 0.102574,0.571482 l -0.344355,0.07327 q -0.01465,-0.241781 -0.08792,-0.571482 -0.07327,-0.337027 -0.168514,-0.622768 z m -0.534848,0.06594 0.329701,-0.03663 q 0.05861,0.322375 0.08059,0.696036 0.02931,0.373661 0.02198,0.652075 l -0.344354,0.05129 q 0.01465,-0.278414 -0.01465,-0.652075 -0.02198,-0.380988 -0.07327,-0.710689 z m -0.534849,-0.153861 0.402968,0.07327 q -0.01465,0.337028 -0.05861,0.681382 -0.03663,0.337028 -0.124554,0.630096 -0.08059,0.285741 -0.227127,0.498215 l -0.373662,-0.205148 q 0.197821,-0.293067 0.278415,-0.739995 0.08059,-0.454255 0.102573,-0.937817 z m 0.04396,-4.24948 h 2.762163 v 0.571482 h -2.168701 v 3.018596 h -0.593462 z m 2.263948,3.333644 h 0.586135 q 0,0 -0.0073,0.09525 0,0.09525 -0.0073,0.161187 -0.03663,0.893856 -0.08792,1.450685 -0.04396,0.549502 -0.1099,0.835243 -0.05861,0.285741 -0.153861,0.402968 -0.08792,0.1099 -0.190494,0.15386 -0.09525,0.05129 -0.227127,0.06594 -0.1099,0.01465 -0.293068,0.01465 -0.17584,0 -0.380987,-0.0073 -0.0073,-0.124554 -0.04396,-0.285741 -0.03663,-0.15386 -0.102573,-0.263761 0.17584,0.01465 0.315047,0.01465 0.146534,0.0073 0.219801,0.0073 0.06594,0 0.109901,-0.01465 0.05129,-0.01465 0.09525,-0.06594 0.05861,-0.08059 0.109901,-0.329701 0.05129,-0.256435 0.08792,-0.769303 0.04396,-0.512868 0.08059,-1.362764 z"
         id="text5-9"
         style="font-weight:500;font-size:7.32669px;line-height:1.25;font-family:'Noto Sans JP';-inkscape-font-specification:'Noto Sans JP Medium';fill:#f9f9f9;stroke-width:0.261667"
         aria-label="台北駅" />
      <path
         style="font-weight:500;font-size:7.32669px;line-height:1.25;font-family:'Noto Sans KR';-inkscape-font-specification:'Noto Sans KR Medium';fill:#f9f9f9;stroke-width:0.261667"
         d="m 68.283662,48.090761 h 0.534849 q 0.593462,0 1.099003,-0.01465 0.505542,-0.01465 0.97445,-0.05129 0.476235,-0.04396 0.97445,-0.124554 l 0.07327,0.615442 q -0.505542,0.08059 -0.99643,0.13188 -0.483562,0.04396 -1.003757,0.05861 -0.512868,0.0073 -1.120983,0.0073 h -0.534849 z m 0,-3.919779 h 3.128497 v 0.630095 h -2.366521 v 3.502158 h -0.761976 z m 0.578809,1.875632 h 2.425134 v 0.608116 h -2.425134 z m 3.560771,-2.454441 h 0.769303 v 6.696595 h -0.769303 z m 0.600789,2.622955 h 1.208904 v 0.637422 h -1.208904 z m 6.462142,-2.630282 h 0.769302 v 6.711249 h -0.769302 z m -2.791469,0.490889 q 0.498215,0 0.886529,0.293067 0.395641,0.293068 0.615442,0.82059 0.219801,0.527521 0.219801,1.245537 0,0.725342 -0.219801,1.260191 -0.219801,0.527521 -0.615442,0.820589 -0.388314,0.285741 -0.886529,0.285741 -0.498215,0 -0.893857,-0.285741 -0.388314,-0.293068 -0.615442,-0.820589 -0.2198,-0.534849 -0.2198,-1.260191 0,-0.718016 0.2198,-1.245537 0.227128,-0.527522 0.615442,-0.82059 0.395642,-0.293067 0.893857,-0.293067 z m 0,0.696035 q -0.293068,0 -0.520195,0.197821 -0.219801,0.19782 -0.344355,0.571482 -0.124554,0.373661 -0.124554,0.893856 0,0.527522 0.124554,0.901183 0.124554,0.373661 0.344355,0.578808 0.227127,0.197821 0.520195,0.197821 0.293067,0 0.512868,-0.197821 0.219801,-0.205147 0.344354,-0.578808 0.124554,-0.373661 0.124554,-0.901183 0,-0.520195 -0.124554,-0.893856 -0.124553,-0.373662 -0.344354,-0.571482 -0.219801,-0.197821 -0.512868,-0.197821 z m 5.011457,-0.542175 h 0.725342 v 1.582565 h 1.164944 v -1.582565 h 0.710689 v 4.417994 h -2.600975 z m 0.725342,2.198007 v 1.597219 h 1.164944 v -1.597219 z m 4.037006,-2.842756 h 0.732669 v 6.696595 h -0.732669 z m -2.285927,2.505728 h 1.208904 v 0.622769 h -1.208904 z m 0.945143,-2.373847 h 0.718015 v 6.249667 h -0.718015 z m 7.83956,-0.131881 h 0.769303 v 6.711249 h -0.769303 z m -2.791469,0.490889 q 0.498215,0 0.88653,0.293067 0.395641,0.293068 0.615442,0.82059 0.2198,0.527521 0.2198,1.245537 0,0.725342 -0.2198,1.260191 -0.219801,0.527521 -0.615442,0.820589 -0.388315,0.285741 -0.88653,0.285741 -0.498215,0 -0.893856,-0.285741 -0.388315,-0.293068 -0.615442,-0.820589 -0.219801,-0.534849 -0.219801,-1.260191 0,-0.718016 0.219801,-1.245537 0.227127,-0.527522 0.615442,-0.82059 0.395641,-0.293067 0.893856,-0.293067 z m 0,0.696035 q -0.293068,0 -0.520195,0.197821 -0.219801,0.19782 -0.344354,0.571482 -0.124554,0.373661 -0.124554,0.893856 0,0.527522 0.124554,0.901183 0.124553,0.373661 0.344354,0.578808 0.227127,0.197821 0.520195,0.197821 0.293068,0 0.512868,-0.197821 0.219801,-0.205147 0.344355,-0.578808 0.124554,-0.373661 0.124554,-0.901183 0,-0.520195 -0.124554,-0.893856 -0.124554,-0.373662 -0.344355,-0.571482 -0.2198,-0.197821 -0.512868,-0.197821 z m 9.854404,-0.234454 h 2.01484 v 0.615442 h -2.01484 z m 0,1.479992 h 2.01484 v 0.622768 h -2.01484 z m -1.970879,1.868306 h 4.505919 v 2.403154 h -0.76931 v -1.795039 h -3.736609 z m 3.736609,-4.293441 h 0.76931 v 3.949086 h -0.76931 z m -2.938,0.359008 q 0.490888,0 0.886529,0.212474 0.395641,0.205147 0.622771,0.578808 0.22713,0.366335 0.22713,0.84257 0,0.476235 -0.22713,0.849896 -0.22713,0.366334 -0.622771,0.578808 -0.395641,0.205148 -0.886529,0.205148 -0.498215,0 -0.893856,-0.205148 -0.395642,-0.212474 -0.622769,-0.578808 -0.227127,-0.373661 -0.227127,-0.849896 0,-0.476235 0.227127,-0.84257 0.227127,-0.373661 0.622769,-0.578808 0.395641,-0.212474 0.893856,-0.212474 z m -0.0073,0.652075 q -0.285741,0 -0.512868,0.124554 -0.227127,0.124554 -0.366335,0.344354 -0.13188,0.219801 -0.13188,0.512869 0,0.293067 0.13188,0.512868 0.139208,0.219801 0.366335,0.344355 0.227127,0.117227 0.520195,0.117227 0.285741,0 0.512868,-0.117227 0.227128,-0.124554 0.359008,-0.344355 0.13188,-0.219801 0.13188,-0.512868 0,-0.293068 -0.13188,-0.512869 -0.13188,-0.2198 -0.359008,-0.344354 -0.227127,-0.124554 -0.520195,-0.124554 z"
         id="text5-9-8"
         aria-label="타이베이 역" />
    </g>
    <text
       xml:space="preserve"
       transform="matrix(0.31615295,0,0,0.31615295,-10.474341,-6.4462013)"
       id="text6"
       style="font-size:55px;line-height:1.25;font-family:'Microsoft JhengHei';-inkscape-font-specification:'Microsoft JhengHei';white-space:pre;shape-inside:url(#rect6);display:inline" />
  </g>
</svg>
