<?xml version="1.0" encoding="UTF-8" standalone="no"?>
<!-- Created with Inkscape (http://www.inkscape.org/) -->

<svg
   width="500"
   height="250"
   viewBox="0 0 132.29166 66.145833"
   version="1.1"
   id="svg1"
   inkscape:version="1.3.2 (091e20e, 2023-11-25, custom)"
   sodipodi:docname="r10.svg"
   xmlns:inkscape="http://www.inkscape.org/namespaces/inkscape"
   xmlns:sodipodi="http://sodipodi.sourceforge.net/DTD/sodipodi-0.dtd"
   xmlns="http://www.w3.org/2000/svg"
   xmlns:svg="http://www.w3.org/2000/svg">
  <sodipodi:namedview
     id="namedview1"
     pagecolor="#9e652e"
     bordercolor="#ffffff"
     borderopacity="1"
     inkscape:showpageshadow="0"
     inkscape:pageopacity="0"
     inkscape:pagecheckerboard="false"
     inkscape:deskcolor="#d1d1d1"
     inkscape:document-units="mm"
     inkscape:zoom="2.0208096"
     inkscape:cx="176.66187"
     inkscape:cy="144.49654"
     inkscape:window-width="1920"
     inkscape:window-height="1009"
     inkscape:window-x="1912"
     inkscape:window-y="-8"
     inkscape:window-maximized="1"
     inkscape:current-layer="g3" />
  <defs
     id="defs1">
    <rect
       x="157.85752"
       y="62.351248"
       width="329.07603"
       height="135.09437"
       id="rect4" />
  </defs>
  <g
     inkscape:label="Layer 1"
     inkscape:groupmode="layer"
     id="layer1">
    <rect
       style="fill:#d0002b;fill-opacity:1;stroke:none;stroke-width:0.953294;stroke-dasharray:none"
       id="rect5"
       width="132.29167"
       height="66.145836"
       x="-2.5431316e-06"
       y="-1.2715658e-06"
       ry="0" />
    <g
       id="g3"
       transform="matrix(1.1854712,0,0,1.1854712,-11.049911,-14.663718)">
      <g
         id="g2"
         transform="matrix(0.83648094,0,0,0.83648094,16.651082,9.7306623)">
        <g
           id="g4"
           transform="translate(1.0672727)">
          <path
             id="rect6"
             style="fill:#d0002b;stroke:#ffffff;stroke-width:0.575409"
             d="m 9.3009131,19.849001 h 5.7010479 c 1.810115,0 3.267355,1.45724 3.267355,3.267355 v 9.524719 c 0,1.810115 -1.45724,3.267355 -3.267355,3.267355 H 9.3009131 c -1.8101145,0 -3.2673547,-1.45724 -3.2673547,-3.267355 v -9.524719 c 0,-1.810115 1.4572402,-3.267355 3.2673547,-3.267355 z" />
          <path
             style="font-weight:bold;font-size:5.82083px;line-height:1.25;font-family:'Optima Bold';-inkscape-font-specification:'Optima Bold,  Bold';fill:#f9f9f9;stroke-width:0.264583"
             d="m 10.761052,26.948961 v -4.033835 h 0.232833 1.420283 q 0.291041,0.01164 0.506412,0.08149 0.221191,0.06985 0.360891,0.203729 0.1397,0.1397 0.20955,0.314325 0.06985,0.168804 0.06985,0.372533 0,0.197908 -0.05821,0.360891 -0.05239,0.157163 -0.168804,0.273579 -0.110596,0.116417 -0.238654,0.203729 -0.122238,0.08731 -0.256117,0.1397 -0.06403,0.02328 -0.128058,0.04657 -0.05821,0.02328 -0.122238,0.03493 -0.05821,0.01746 -0.116416,0.0291 -0.05821,0.0058 -0.104775,0.01164 l 1.559982,1.961619 H 13.69475 q -0.02328,0 -0.04657,0 -0.01746,0 -0.04074,-0.0058 -0.02328,0 -0.04657,0 -0.01746,-0.0058 -0.03493,-0.01164 -0.01746,0 -0.03492,0 -0.01164,0 -0.02328,0 -0.0058,0 -0.01164,0 -0.0058,0 -0.01746,0 -0.0058,0.0058 -0.01164,0.0058 -0.0058,0 -0.01746,0 -0.04074,0.0058 -0.08731,0.01164 -0.04075,0 -0.08731,0 h -0.232834 l -1.461028,-1.868486 v 1.868486 H 11.30821 q -0.01746,0 -0.03493,0 -0.01746,0 -0.03492,-0.0058 -0.0058,0 -0.01746,0 -0.0058,0 -0.01164,-0.0058 -0.01164,0 -0.01746,0 -0.0058,-0.0058 -0.01746,-0.0058 -0.0058,0 -0.01164,0 -0.0058,0 -0.0058,0 -0.0058,0.0058 -0.01164,0.0058 -0.0058,0 -0.01164,0 -0.03492,0.0058 -0.06985,0.01164 -0.03492,0 -0.06985,0 h -0.232833 v 0 z m 0.779991,-2.153707 q 0.01164,0.01164 0.0291,0.01746 0.01746,0 0.03492,0 0.221192,-0.0058 0.395817,-0.04075 0.174624,-0.03493 0.291041,-0.104775 0.133879,-0.07567 0.221192,-0.157162 0.09313,-0.08731 0.14552,-0.180446 0.04075,-0.06403 0.06403,-0.128058 0.0291,-0.06985 0.03492,-0.128059 0.01164,-0.06403 0.01164,-0.110595 0.0058,-0.04657 0.0058,-0.07567 0,-0.0291 -0.0058,-0.06403 -0.0058,-0.03493 -0.01746,-0.08149 -0.0058,-0.04657 -0.0291,-0.09313 -0.02328,-0.04657 -0.05239,-0.09895 -0.04075,-0.07567 -0.116417,-0.145521 -0.07567,-0.06985 -0.174624,-0.128058 -0.09896,-0.06403 -0.238654,-0.09313 -0.1397,-0.0291 -0.325967,-0.0291 l -0.273579,-0.01164 v 1.653115 0 z"
             id="text6"
             aria-label="R" />
          <path
             style="font-weight:bold;font-size:5.82083px;line-height:1.25;font-family:'Optima Bold';-inkscape-font-specification:'Optima Bold,  Bold';fill:#f9f9f9;stroke-width:0.264583"
             d="m 9.3516163,29.278575 q 0.1688041,-0.07567 0.3317873,-0.151341 0.1688041,-0.07567 0.3317874,-0.151342 0.162983,-0.06985 0.291041,-0.1397 0.133879,-0.06985 0.238654,-0.1397 l 0.232834,-0.0058 0.1397,0.04075 v 3.987269 h -0.232834 q -0.03492,-0.0058 -0.06403,-0.01746 -0.0291,-0.0058 -0.05821,-0.01164 -0.03492,0.0058 -0.06985,0.01164 -0.03493,0.01164 -0.08149,0.01746 H 10.178174 V 29.278575 L 9.7707161,29.511409 H 9.5378829 q -0.00582,0 -0.017462,-0.0058 -0.00582,-0.01164 -0.017463,-0.0291 -0.00582,-0.01164 -0.011642,-0.01746 -0.00582,-0.01164 -0.00582,-0.01746 -0.00582,-0.01164 -0.011642,-0.01746 -0.00582,-0.01164 -0.011642,-0.01746 -0.00582,-0.01164 -0.011642,-0.01746 -0.00582,-0.0058 -0.011642,-0.01746 -0.011642,-0.0058 -0.017462,-0.01164 -0.00582,-0.01164 -0.011642,-0.01746 -0.011642,-0.01746 -0.029104,-0.0291 -0.011642,-0.01746 -0.029104,-0.02328 v -0.01164 z m 3.1199697,1.513416 q 0,-0.0058 0,-0.01164 0,-0.01164 0,-0.0291 0,-0.01164 0,-0.0291 0.0058,-0.01746 0.01164,-0.03493 0,-0.07567 0.0058,-0.168804 0.01164,-0.09895 0.01746,-0.215371 0.01164,-0.116416 0.0291,-0.238654 0.02328,-0.128058 0.05821,-0.256116 0.05239,-0.203729 0.151341,-0.384175 0.09896,-0.186266 0.244475,-0.34925 0.1397,-0.168804 0.366713,-0.250295 0.227012,-0.08149 0.535516,-0.08149 l 0.232833,-0.0058 q 0.285221,0.0058 0.494771,0.09313 0.20955,0.08149 0.349249,0.250296 0.1397,0.168804 0.232834,0.355071 0.09895,0.180445 0.151341,0.384175 0.04075,0.151341 0.06403,0.296862 0.02328,0.145521 0.0291,0.2794 0.0058,0.1397 0.0058,0.244475 0.0058,0.09895 0.0058,0.162983 0,0.06985 -0.01164,0.168804 -0.0058,0.09313 -0.01746,0.215371 -0.01164,0.122237 -0.04075,0.250295 -0.02328,0.128058 -0.06403,0.261938 -0.05821,0.192087 -0.162983,0.372533 -0.09895,0.174625 -0.238654,0.331787 -0.1397,0.162983 -0.34925,0.238654 -0.203729,0.07567 -0.477308,0.07567 h -0.232833 -0.01746 -0.01164 -0.01746 -0.01164 q -0.349249,0 -0.599545,-0.128058 -0.244475,-0.128059 -0.395816,-0.395817 -0.145521,-0.261937 -0.232834,-0.552979 -0.08149,-0.296862 -0.09895,-0.617008 0,-0.01164 0,-0.02328 0,-0.01746 0,-0.03493 -0.0058,-0.01164 -0.0058,-0.02328 0,-0.01746 0,-0.0291 0,-0.01164 0,-0.02328 0,-0.01746 0,-0.03492 0,-0.01164 0,-0.02328 0,-0.01746 0,-0.0291 v -0.01164 z m 0.739246,0.09895 q 0,0.07567 0,0.151342 0.0058,0.07567 0.01164,0.157162 0,0.04075 0.0058,0.08731 0.0058,0.04075 0.01164,0.08149 0.0058,0.04657 0.01164,0.08731 0.01164,0.04075 0.01746,0.08731 0.03492,0.180446 0.09895,0.34925 0.06403,0.162983 0.157163,0.314325 0.08149,0.128058 0.186266,0.197908 0.110596,0.06985 0.256117,0.09313 0.180445,-0.02328 0.302683,-0.110596 0.128058,-0.09313 0.203729,-0.250295 0.08731,-0.186267 0.1397,-0.384175 0.05821,-0.203729 0.08149,-0.4191 0.0058,-0.04075 0.0058,-0.08149 0.0058,-0.04075 0.0058,-0.08149 0.0058,-0.03493 0.0058,-0.07567 0,-0.04075 0,-0.08149 0,-0.04075 0,-0.07567 0,-0.04075 0.0058,-0.08149 0,-0.03493 0,-0.06985 0,-0.04075 0,-0.07567 0,-0.378353 -0.05821,-0.692678 -0.05239,-0.314325 -0.157162,-0.5588 -0.09313,-0.215371 -0.221191,-0.331787 -0.122238,-0.122238 -0.2794,-0.151342 -0.256117,0.03492 -0.4191,0.192088 -0.162983,0.151341 -0.227012,0.42492 -0.07567,0.291042 -0.110596,0.617008 -0.03492,0.325967 -0.03492,0.686858 z"
             id="text6-8"
             aria-label="10" />
        </g>
      </g>
      <path
         style="font-weight:600;font-size:14.8167px;line-height:1.25;font-family:'Noto Serif TC';-inkscape-font-specification:'Noto Serif TC Semi-Bold';letter-spacing:0px;fill:#ffffff;stroke-width:0.264583"
         d="m 40.483307,38.169846 v -3.896792 h 6.178564 v 3.896792 z m 6.01558,-4.326476 h -5.92668 l -1.555753,-0.651935 v 6.697148 h 0.22225 c 0.592668,0 1.244603,-0.325967 1.244603,-0.474134 v -0.814918 h 6.178564 v 1.170519 h 0.237067 c 0.488951,0 1.21497,-0.266701 1.229786,-0.355601 v -4.845061 c 0.340784,-0.07408 0.563035,-0.207434 0.666752,-0.340784 l -1.555754,-1.214969 z m -1.185336,-5.334012 c 0.740835,0.607485 1.585387,1.43722 2.237322,2.326222 -3.407841,0.162983 -6.682332,0.296334 -8.66777,0.325967 1.881721,-1.081619 4.015326,-2.696639 5.141395,-3.926425 0.340784,0.05927 0.533402,-0.07408 0.607485,-0.222251 l -2.000254,-0.859368 c -0.785286,1.407586 -3.022607,3.896792 -4.637628,4.830244 -0.148167,0.0889 -0.503767,0.162983 -0.503767,0.162983 l 0.563034,1.659471 c 0.133351,-0.04445 0.251884,-0.13335 0.370418,-0.281517 3.881975,-0.459318 7.126832,-0.948269 9.378971,-1.34832 0.355601,0.533401 0.651935,1.051986 0.814918,1.555753 1.600204,0.992719 2.400306,-2.548472 -3.155957,-4.356109 z m 11.838544,8.608503 v -10.01609 c 0.40005,-0.05927 0.518584,-0.207433 0.548217,-0.414867 l -1.926171,-0.192617 v 4.415376 h -3.689358 l 0.13335,0.429685 h 3.556008 v 6.01558 c -1.778004,0.31115 -3.289307,0.563034 -4.059775,0.637118 l 0.726018,1.852087 c 0.162984,-0.02963 0.311151,-0.1778 0.385234,-0.3556 2.607739,-1.007536 4.415377,-1.822455 5.674796,-2.415123 l -0.02963,-0.1778 z m 7.526883,-1.377954 h -0.148167 c -0.237067,0.933453 -0.474134,1.866905 -0.622301,2.118789 -0.0889,0.148167 -0.192617,0.1778 -0.355601,0.192617 -0.1778,0.02963 -0.577851,0.02963 -1.081619,0.02963 h -1.185336 c -0.518585,0 -0.637118,-0.13335 -0.637118,-0.488951 v -6.252647 h 3.807892 c 0.207433,0 0.340784,-0.07408 0.385234,-0.237068 -0.429684,-0.533401 -1.244603,-1.333503 -1.244603,-1.333503 l -0.681568,1.140886 h -2.266955 v -3.778258 c 0.370417,-0.05927 0.503768,-0.222251 0.533401,-0.414868 l -1.926171,-0.22225 v 11.482942 c 0,1.096436 0.400051,1.43722 1.733554,1.43722 h 1.377953 c 2.311405,0 2.933707,-0.251884 2.933707,-0.874185 0,-0.251884 -0.118534,-0.429685 -0.548218,-0.592668 z m 4.904328,-1.037169 v -1.940987 h 2.800356 v 1.940987 z m 2.800356,-4.207942 v 1.83727 h -2.800356 v -1.83727 z m 4.31166,0 v 1.83727 h -2.859623 v -1.83727 z m -2.859623,4.207942 v -1.940987 h 2.859623 v 1.940987 z m 3.600458,2.192872 h -3.600458 v -1.763187 h 2.859623 v 0.622301 h 0.237067 c 0.474134,0 1.170519,-0.296334 1.185336,-0.414867 v -4.607994 c 0.311151,-0.05927 0.518585,-0.177801 0.622301,-0.296334 l -1.48167,-1.155703 -0.711201,0.785285 h -2.711456 v -1.496486 h 5.363645 c 0.222251,0 0.370418,-0.07408 0.414868,-0.237068 -0.637118,-0.548217 -1.689104,-1.303869 -1.689104,-1.303869 l -0.903819,1.111252 h -3.18559 v -1.318686 c 0.385234,-0.05927 0.503768,-0.22225 0.533401,-0.429684 l -1.985438,-0.207434 v 1.955804 h -5.630346 l 0.103717,0.429685 h 5.526629 v 1.496486 h -2.681823 l -1.511303,-0.637118 v 6.667515 h 0.207434 c 0.577851,0 1.185336,-0.325967 1.185336,-0.459317 v -0.503768 h 2.800356 v 1.763187 h -6.074847 l 0.13335,0.429684 h 5.941497 v 2.622556 h 0.296334 c 0.533401,0 1.155703,-0.296334 1.155703,-0.444501 v -2.178055 h 5.778513 c 0.22225,0 0.385234,-0.07408 0.414867,-0.237067 -0.622301,-0.548218 -1.65947,-1.333503 -1.65947,-1.333503 z m 5.259928,-10.608757 c 0.400051,0.755652 0.874186,1.866904 0.948269,2.785539 1.229786,1.111253 2.622556,-1.422403 -0.785285,-2.859623 z m 4.622811,3.807892 c 0.207434,0 0.355601,-0.07408 0.400051,-0.237067 -0.503768,-0.533402 -1.407587,-1.318687 -1.407587,-1.318687 l -0.770468,1.126069 h -4.504277 l 0.118534,0.429685 z m -5.61553,0.800102 c 0.681569,1.540936 0.800102,3.748625 0.770469,4.933961 0.814918,1.363136 2.696639,-1.496487 -0.563035,-5.022862 z m 3.467108,-0.281518 c -0.207434,1.778004 -0.563034,4.26721 -0.903818,6.237831 -1.407587,0.325967 -2.622556,0.607485 -3.244858,0.711202 l 0.755652,1.61502 c 0.162984,-0.04445 0.296334,-0.192617 0.355601,-0.385234 2.252138,-1.007536 3.852342,-1.837271 4.948778,-2.415122 l -0.04445,-0.192618 c -0.800101,0.192618 -1.585386,0.385235 -2.326221,0.563035 0.711201,-1.792821 1.392769,-3.881975 1.79282,-5.289562 0.355601,0 0.518585,-0.13335 0.577852,-0.311151 z m 7.14165,3.081874 v 4.62281 h -3.689359 v -4.62281 z m 0.31115,-3.941242 h -1.466853 v -2.992974 c 0.385234,-0.05927 0.518584,-0.207433 0.548218,-0.414867 l -1.911354,-0.177801 v 7.0972 h -0.992719 l -1.52612,-0.607485 v 7.260183 h 0.237067 c 0.696385,0 1.111252,-0.251884 1.111252,-0.370418 v -0.800101 h 3.689359 v 1.051985 h 0.251883 c 0.681569,0 1.155703,-0.281517 1.155703,-0.370417 V 33.79892 c 0.325967,-0.05927 0.474134,-0.148167 0.577851,-0.281518 l -1.348319,-1.051985 -0.696385,0.800102 h -1.096436 v -3.081874 h 3.274491 c 0.207433,0 0.340784,-0.07408 0.370417,-0.237067 -0.503768,-0.518585 -1.407586,-1.229786 -1.407586,-1.229786 z"
         id="text7"
         aria-label="台北車站" />
      <path
         style="font-weight:bold;font-size:5.82083px;line-height:1.25;font-family:'Optima Bold';-inkscape-font-specification:'Optima Bold,  Bold';fill:#f9f9f9;stroke-width:0.264583"
         d="m 35.874597,46.70705 v -3.742793 q -0.0058,0.0058 -0.01164,0.0058 -0.0058,0 -0.01164,0 -0.0058,0.0058 -0.01164,0.0058 -0.0058,0 -0.01164,0 -0.08731,0.0058 -0.180445,0.01746 -0.08731,0.0058 -0.180446,0.01746 -0.03493,0.0058 -0.06985,0.01164 -0.0291,0 -0.05821,0.0058 -0.0291,0.0058 -0.06403,0.01164 -0.02911,0 -0.05821,0 -0.05821,0.0058 -0.116416,0.01746 -0.05239,0.0058 -0.104775,0.01746 -0.05239,0.0058 -0.09313,0.01164 -0.04075,0.0058 -0.07567,0.01164 l -0.232834,-0.0058 q 0.0058,-0.0058 0.0058,-0.01746 0.0058,-0.01746 0.01164,-0.0291 0,-0.01164 0,-0.02328 0.0058,-0.01164 0.01164,-0.0291 0,-0.01164 0,-0.02328 0,-0.01164 0,-0.02328 0,-0.0058 0,-0.01164 0,-0.0058 0.0058,-0.01746 0,-0.0058 0,-0.01164 0,-0.0058 0,-0.01164 0,-0.0291 -0.0058,-0.05239 0,-0.0291 -0.0058,-0.05239 -0.0058,-0.0291 -0.01164,-0.05239 0,-0.0291 -0.01164,-0.05239 l 3.067578,-0.01164 h 0.232833 q -0.0058,0.02328 -0.01164,0.04075 0,0.01164 -0.0058,0.02328 -0.0058,0.01164 -0.0058,0.02328 0,0.01164 0,0.02328 -0.0058,0.01746 -0.01164,0.0291 0,0.01164 0,0.02328 0,0.01164 0,0.0291 0,0.01164 0,0.02328 0,0.02328 0,0.05239 0,0.02328 0.0058,0.05239 0.0058,0.02328 0.01164,0.05239 0.01164,0.02328 0.01746,0.05239 l -0.232833,-0.0058 q -0.203729,-0.0291 -0.395817,-0.05239 -0.192087,-0.02911 -0.366712,-0.04657 -0.08149,-0.01164 -0.151341,-0.01164 -0.06985,-0.0058 -0.13388,-0.01164 v 3.736972 h -0.232833 q -0.01164,0 -0.0291,0 -0.01164,0 -0.02328,-0.0058 -0.01746,0 -0.03493,0 -0.01164,-0.0058 -0.02328,-0.0058 0,0 -0.0058,0 0,0 0,0 0,0 -0.0058,0 0,0 0,0 0,0 -0.0058,0 0,0 -0.0058,0 -0.03493,0.0058 -0.06985,0.01164 -0.03493,0 -0.06985,0 h -0.232833 v 0 z m 2.159533,0 1.833562,-4.080401 h 0.232833 0.133879 l 1.792816,4.080401 h -0.232834 q -0.01746,0 -0.04075,0 -0.01746,0 -0.04075,0 -0.02328,0 -0.04657,0 -0.01746,0 -0.04657,0 -0.01164,0 -0.0291,0 -0.01164,0 -0.02328,-0.0058 -0.01164,0 -0.0291,0 -0.01164,0 -0.02328,0 -0.01164,0.0058 -0.02911,0.0058 -0.01164,0 -0.02328,0 -0.01164,0 -0.02328,0 -0.01164,0 -0.01746,0 -0.01164,0 -0.02328,0 -0.0058,0 -0.01746,0 h -0.232833 l -0.640291,-1.606549 h -1.187449 l -0.593725,1.606549 h -0.232833 q -0.01164,0 -0.0291,0 -0.01164,0 -0.02328,0 l -0.0291,-0.0058 q -0.0058,0.0058 -0.01746,0.0058 -0.01164,0 -0.01746,0 -0.01164,0 -0.02328,0 -0.0058,0 -0.01746,0 H 38.10398 q -0.01746,0 -0.03493,0 -0.01746,0 -0.03493,0 v 0 z m 1.426104,-1.880128 h 0.954616 l -0.477308,-1.140882 -0.477308,1.140882 z m 3.434287,-2.153707 q 0.0291,0.01746 0.05239,0.0291 0.0291,0.0058 0.06403,0.01164 0.0058,0 0.0058,0 0.0058,0 0.01164,0 0.0058,0 0.0058,0 0.0058,0 0.01164,0 0.03493,-0.0058 0.06403,-0.01164 0.03493,-0.01164 0.05821,-0.01746 l 0.232833,-0.0058 V 46.70705 H 43.1681 q -0.02328,0 -0.05821,0 -0.0291,-0.0058 -0.05821,-0.01164 -0.0058,0 -0.01164,0 0,0 -0.0058,0 -0.0058,0 -0.01164,0 -0.0058,0 -0.01164,0 -0.03493,0.0058 -0.06403,0.01164 -0.02328,0 -0.05239,0 h -0.232833 v -4.033835 h 0.232833 v 0 z m 1.705504,0 h 1.466849 q 0.291041,0.01164 0.506412,0.07567 0.221192,0.05821 0.360892,0.174625 0.1397,0.116417 0.20955,0.291041 0.06985,0.168804 0.06985,0.389996 v 0.01746 l 0.0058,0.02328 v 0.02328 0.02328 q 0,0.267759 -0.08731,0.459846 -0.08731,0.192087 -0.256117,0.325966 -0.168804,0.128059 -0.35507,0.215371 -0.186267,0.08731 -0.389996,0.133879 -0.07567,0.01746 -0.151341,0.0291 -0.06985,0.0058 -0.1397,0.01746 -0.06985,0.0058 -0.1397,0.01164 -0.06403,0 -0.128059,0 l -0.232833,-0.0058 q -0.05239,0.0058 -0.09895,0.0058 -0.04657,0 -0.09313,-0.0058 v 1.82774 H 44.91435 q -0.03493,0 -0.06985,0 -0.0291,-0.0058 -0.05821,-0.01164 0,0 -0.0058,0 0,0 0,0 0,0 -0.0058,0 0,0 0,0 -0.0058,0 -0.01164,0 0,0 -0.0058,0 -0.03493,0.0058 -0.07567,0.01164 -0.03493,0 -0.08149,0 h -0.232833 v -4.033835 h 0.232833 v 0 z m 0.547158,1.926695 h 0.320146 q 0.209549,0.01164 0.372533,-0.05239 0.162983,-0.06985 0.279399,-0.197908 0.116417,-0.133879 0.180446,-0.2794 0.06985,-0.14552 0.08731,-0.308504 0,-0.0058 0,-0.01164 0,-0.0058 0.0058,-0.01164 0,-0.0058 0,-0.01164 0,-0.0058 0,-0.01164 0,-0.01164 0,-0.02328 0,-0.01164 0,-0.02328 0,-0.151341 -0.04657,-0.2794 -0.04657,-0.133879 -0.1397,-0.250295 -0.09313,-0.116417 -0.232833,-0.174625 -0.1397,-0.05821 -0.325967,-0.05821 l 0.232833,-0.0058 h -0.02328 -0.01746 l -0.02328,0.0058 h -0.232833 -0.02328 l -0.413279,-0.0058 v 1.699682 z m 2.799824,2.10714 v -3.987268 h 0.232833 2.10714 q -0.0058,0.0291 -0.01164,0.05239 -0.0058,0.01746 -0.01164,0.03493 0,0.0058 -0.0058,0.01746 0,0.0058 0,0.01164 -0.0058,0.01164 -0.0058,0.01746 0,0.0058 0,0.01746 v 0.01164 0.02328 q 0,0.02911 0,0.05239 0,0.01746 0.0058,0.04075 0,0.01164 0,0.02328 0.0058,0.01164 0.01164,0.02328 0.0058,0.01746 0.0058,0.0291 0.0058,0.01164 0.01164,0.02328 l -0.232833,-0.0058 q -0.08731,-0.01164 -0.174625,-0.02328 -0.08731,-0.01164 -0.186266,-0.01746 -0.09313,-0.0058 -0.192088,-0.0058 -0.09313,-0.0058 -0.192087,-0.0058 0,0 0,0 0,0 0,0 -0.0058,0 -0.0058,0 0,0 0,0 -0.02328,0.0058 -0.04657,0.0058 -0.01746,0 -0.04075,0 -0.02328,0 -0.04657,0 -0.02328,0 -0.04075,0 -0.02328,0 -0.05239,0 -0.02328,0 -0.05239,0 -0.02328,0.0058 -0.05239,0.0058 -0.02328,0 -0.04657,0 -0.05239,0 -0.104775,0 -0.04657,0 -0.09313,0 v 1.408641 h 0.640291 l 0.547158,-0.04657 h 0.232834 q -0.0058,0.02911 -0.01746,0.05239 -0.0058,0.01746 -0.01164,0.03493 -0.0058,0.02328 -0.0058,0.04657 0,0.01746 0,0.04075 0,0.01164 0,0.02328 0,0.01164 0,0.02328 0,0.01746 0,0.0291 0.0058,0.01164 0.0058,0.02328 0.0058,0.02328 0.01164,0.05239 0.01164,0.02328 0.01746,0.05239 l -0.232834,-0.0058 -0.686858,-0.05239 h -0.500591 v 1.653116 q 0.04075,0.01164 0.08731,0.01746 0.04657,0.0058 0.09895,0.0058 0.04657,0.0058 0.09313,0.0058 0.04657,0 0.09895,0 0.0291,0 0.05239,0 0.02328,0 0.04657,-0.0058 0.02328,0 0.04657,0 0.0291,0 0.05239,0 0.116417,-0.0058 0.227013,-0.01164 0.110595,-0.0058 0.221191,-0.01164 0.104775,-0.01164 0.192088,-0.01746 0.08731,-0.01164 0.157162,-0.01746 l 0.232833,-0.0058 q -0.0058,0.0291 -0.01746,0.05821 -0.0058,0.02328 -0.01164,0.05239 -0.0058,0.02328 -0.0058,0.04657 0,0.02328 0,0.04657 0,0.02328 0,0.04657 0,0.02328 0.0058,0.04657 0.0058,0.02328 0.01164,0.04075 0.01164,0.01746 0.01746,0.02328 h -0.232833 -2.153707 v 0 z m 3.440114,-4.033835 q 0.0291,0.01746 0.05239,0.0291 0.0291,0.0058 0.06403,0.01164 0.0058,0 0.0058,0 0.0058,0 0.01164,0 0.0058,0 0.0058,0 0.0058,0 0.01164,0 0.03493,-0.0058 0.06403,-0.01164 0.03493,-0.01164 0.05821,-0.01746 l 0.232833,-0.0058 V 46.70705 H 51.6607 q -0.02328,0 -0.05821,0 -0.0291,-0.0058 -0.05821,-0.01164 -0.0058,0 -0.01164,0 0,0 -0.0058,0 -0.0058,0 -0.01164,0 -0.0058,0 -0.01164,0 -0.03493,0.0058 -0.06403,0.01164 -0.02328,0 -0.05239,0 h -0.232833 v -4.033835 h 0.232833 v 0 z m 3.125786,4.033835 0.552979,-4.033835 h 0.232833 0.180446 l 1.490132,2.852207 1.530878,-2.852207 h 0.232833 0.186267 l 0.459846,4.033835 h -0.232834 q -0.03493,0 -0.06985,0 -0.03493,-0.0058 -0.06403,-0.01164 -0.01164,0 -0.0291,0 -0.01164,0 -0.02328,-0.0058 0,0 -0.0058,0.0058 0,0 -0.0058,0 -0.0058,0 -0.01164,0 0,0 0,0 -0.03493,0.0058 -0.07567,0.01164 -0.03493,0 -0.08149,0 h -0.232833 l -0.238654,-2.642656 -1.315508,2.549523 h -0.232833 -0.09313 l -1.268941,-2.497136 -0.238654,2.590269 h -0.232833 q -0.01746,0 -0.04075,0 -0.01746,-0.0058 -0.04075,-0.01164 0,0 0,0 0,0 0,0 -0.0058,0 -0.01164,0 0,0 -0.0058,0 -0.0058,0.0058 -0.01164,0.0058 0,0 0,0 -0.01746,0.0058 -0.03493,0.0058 -0.01746,0 -0.03493,0 h -0.232833 v 0 z m 5.232928,0 1.833561,-4.080401 h 0.232834 0.133879 l 1.792815,4.080401 h -0.232833 q -0.01746,0 -0.04075,0 -0.01746,0 -0.04075,0 -0.02328,0 -0.04657,0 -0.01746,0 -0.04657,0 -0.01164,0 -0.0291,0 -0.01164,0 -0.02328,-0.0058 -0.01164,0 -0.0291,0 -0.01164,0 -0.02328,0 -0.01164,0.0058 -0.0291,0.0058 -0.01164,0 -0.02328,0 -0.01164,0 -0.02328,0 -0.01164,0 -0.01746,0 -0.01164,0 -0.02328,0 -0.0058,0 -0.01746,0 h -0.232833 l -0.640291,-1.606549 h -1.18745 l -0.593724,1.606549 h -0.232833 q -0.01164,0 -0.02911,0 -0.01164,0 -0.02328,0 l -0.0291,-0.0058 q -0.0058,0.0058 -0.01746,0.0058 -0.01164,0 -0.01746,0 -0.01164,0 -0.02328,0 -0.0058,0 -0.01746,0 h -0.232833 q -0.01746,0 -0.03493,0 -0.01746,0 -0.03493,0 v 0 z m 1.426103,-1.880128 h 0.954616 l -0.477308,-1.140882 -0.477308,1.140882 z m 3.434288,-2.153707 q 0.0291,0.01746 0.05239,0.0291 0.02911,0.0058 0.06403,0.01164 0.0058,0 0.0058,0 0.0058,0 0.01164,0 0.0058,0 0.0058,0 0.0058,0 0.01164,0 0.03492,-0.0058 0.06403,-0.01164 0.03493,-0.01164 0.05821,-0.01746 l 0.232833,-0.0058 v 4.028014 h -0.232833 q -0.02328,0 -0.05821,0 -0.0291,-0.0058 -0.05821,-0.01164 -0.0058,0 -0.01164,0 0,0 -0.0058,0 -0.0058,0 -0.01164,0 -0.0058,0 -0.01164,0 -0.03493,0.0058 -0.06403,0.01164 -0.02328,0 -0.05239,0 h -0.232833 v -4.033835 h 0.232833 v 0 z m 1.606549,4.033835 v -4.033835 h 0.232833 0.2794 l 2.561165,2.817282 v -2.817282 h 0.232833 q 0.01164,0.01746 0.02911,0.02328 0.01746,0.0058 0.03492,0.01164 0.02328,-0.0058 0.04075,-0.01164 0.01746,-0.0058 0.0291,-0.01164 l 0.232834,-0.0058 V 46.70705 H 69.652885 69.425873 L 66.81232,43.802456 v 2.904594 h -0.232833 q -0.0058,0 -0.01164,0 -0.0058,0 -0.01164,0 -0.01164,0 -0.01746,0 -0.0058,-0.0058 -0.01164,-0.0058 -0.01164,0 -0.02328,0 -0.0058,0 -0.01746,0.0058 -0.01164,0 -0.02328,0 -0.0058,0 -0.01746,0 h -0.232833 v 0 z m 6.385447,-3.114144 q 0.03492,-0.250295 0.1397,-0.430741 0.104775,-0.186267 0.267758,-0.302683 0.168804,-0.116417 0.343429,-0.180446 0.174625,-0.06985 0.366712,-0.08731 0.01746,0 0.03493,0 0.01746,0 0.03492,0 0.01164,0 0.01746,0 0.01164,0 0.02328,-0.0058 0.0058,0 0.01746,0 0.01164,0 0.01746,0 l 0.232833,-0.0058 q 0.145521,0.0058 0.2794,0.0291 0.133879,0.02328 0.261937,0.06985 0.122238,0.04075 0.20955,0.104775 0.08731,0.05821 0.1397,0.128058 -0.03493,0.03492 -0.05821,0.07567 -0.02328,0.03492 -0.04075,0.08149 -0.01746,0.04657 -0.03493,0.110595 -0.01746,0.05821 -0.03493,0.128059 l -0.0058,0.02328 -0.0058,0.03492 h -0.232833 l -0.09313,-0.0058 q -0.0058,-0.01164 -0.01746,-0.0291 -0.0058,-0.02328 -0.01746,-0.04657 -0.01164,-0.0291 -0.0291,-0.05239 -0.01164,-0.0291 -0.0291,-0.05239 -0.04075,-0.05821 -0.104775,-0.110595 -0.05821,-0.05239 -0.1397,-0.09895 -0.05821,-0.03493 -0.122238,-0.05821 -0.06403,-0.02328 -0.1397,-0.0291 -0.09895,0.01164 -0.192087,0.06403 -0.08731,0.05239 -0.168804,0.133879 -0.104775,0.104775 -0.157162,0.227013 -0.04657,0.122237 -0.04657,0.256116 0,0.01164 0,0.0291 0,0.01164 0,0.02328 0,0.0058 0,0.01164 0,0.0058 0.0058,0.01164 0,0.0058 0,0.01164 0,0.0058 0,0.01164 0.01164,0.07567 0.04657,0.157163 0.04075,0.07567 0.09895,0.157162 0.06403,0.07567 0.151342,0.145521 0.09313,0.06403 0.221192,0.122237 l 0.646112,0.261938 q 0.174625,0.08149 0.302683,0.186266 0.128058,0.104775 0.203729,0.232833 0.08149,0.128059 0.116416,0.267759 0.04075,0.133879 0.04075,0.273579 0,0.01746 0,0.03493 0,0.01164 0,0.02328 0,0.0058 0,0.01164 0,0.0058 0,0.01164 -0.0058,0.01164 -0.0058,0.01746 0,0.0058 0,0.01164 -0.02328,0.232834 -0.133879,0.442383 -0.104775,0.20955 -0.296862,0.401638 -0.192087,0.192087 -0.430741,0.28522 -0.232834,0.09313 -0.523875,0.09313 h -0.232833 -0.0291 -0.02328 q -0.01164,0 -0.02328,0 -0.01164,0 -0.02328,0 -0.01164,-0.0058 -0.02328,-0.0058 -0.01164,0 -0.02328,0 -0.01164,0 -0.02328,0 -0.01164,0 -0.02328,-0.0058 -0.01746,0 -0.0291,-0.0058 -0.01164,0 -0.02328,0 -0.110596,-0.01746 -0.221192,-0.05239 -0.104775,-0.02911 -0.20955,-0.06985 -0.104774,-0.04657 -0.186266,-0.09313 -0.07567,-0.05239 -0.1397,-0.104775 l -0.01164,-0.01164 -0.0058,-0.01164 q 0.02328,-0.05239 0.04075,-0.104775 0.01746,-0.05239 0.02328,-0.09313 0.0058,-0.02328 0.0058,-0.04075 0.0058,-0.02328 0.0058,-0.04657 0.0058,-0.01746 0.0058,-0.03492 0.0058,-0.02328 0.0058,-0.04657 0,-0.01164 0,-0.01746 0,-0.01164 0.0058,-0.02328 0,-0.01164 0,-0.02328 0,-0.01164 0,-0.02328 0,-0.02328 0,-0.04657 0,-0.02328 0,-0.04657 l 0.09313,-0.01164 h 0.232833 q 0.151342,0.232834 0.2794,0.366713 0.133879,0.133879 0.244475,0.168804 0.08149,0.02328 0.151342,0.04075 0.06985,0.01746 0.128058,0.0291 0.151341,-0.01746 0.261937,-0.07567 0.116417,-0.05821 0.197908,-0.157162 0.09895,-0.122238 0.145521,-0.256117 0.05239,-0.133879 0.05821,-0.2794 0,-0.116416 -0.03493,-0.221191 -0.0291,-0.110596 -0.09313,-0.215371 -0.05821,-0.104775 -0.157162,-0.180446 -0.09313,-0.07567 -0.221192,-0.122237 L 73.28508,44.693043 q -0.256117,-0.110596 -0.407458,-0.238654 -0.145521,-0.128058 -0.192088,-0.267758 -0.04075,-0.1397 -0.06403,-0.285221 -0.02328,-0.14552 -0.02328,-0.296862 v -0.01164 z m 4.220108,3.114144 v -3.742793 q -0.0058,0.0058 -0.01164,0.0058 -0.0058,0 -0.01164,0 -0.0058,0.0058 -0.01164,0.0058 -0.0058,0 -0.01164,0 -0.08731,0.0058 -0.180446,0.01746 -0.08731,0.0058 -0.180446,0.01746 -0.03493,0.0058 -0.06985,0.01164 -0.0291,0 -0.05821,0.0058 -0.0291,0.0058 -0.06403,0.01164 -0.0291,0 -0.05821,0 -0.05821,0.0058 -0.116416,0.01746 -0.05239,0.0058 -0.104775,0.01746 -0.05239,0.0058 -0.09313,0.01164 -0.04075,0.0058 -0.07567,0.01164 l -0.232833,-0.0058 q 0.0058,-0.0058 0.0058,-0.01746 0.0058,-0.01746 0.01164,-0.0291 0,-0.01164 0,-0.02328 0.0058,-0.01164 0.01164,-0.0291 0,-0.01164 0,-0.02328 0,-0.01164 0,-0.02328 0,-0.0058 0,-0.01164 0,-0.0058 0.0058,-0.01746 0,-0.0058 0,-0.01164 0,-0.0058 0,-0.01164 0,-0.0291 -0.0058,-0.05239 0,-0.0291 -0.0058,-0.05239 -0.0058,-0.0291 -0.01164,-0.05239 0,-0.0291 -0.01164,-0.05239 l 3.067577,-0.01164 h 0.232833 q -0.0058,0.02328 -0.01164,0.04075 0,0.01164 -0.0058,0.02328 -0.0058,0.01164 -0.0058,0.02328 0,0.01164 0,0.02328 -0.0058,0.01746 -0.01164,0.0291 0,0.01164 0,0.02328 0,0.01164 0,0.0291 0,0.01164 0,0.02328 0,0.02328 0,0.05239 0,0.02328 0.0058,0.05239 0.0058,0.02328 0.01164,0.05239 0.01164,0.02328 0.01746,0.05239 l -0.232833,-0.0058 q -0.203729,-0.0291 -0.395816,-0.05239 -0.192088,-0.02911 -0.366713,-0.04657 -0.08149,-0.01164 -0.151341,-0.01164 -0.06985,-0.0058 -0.133879,-0.01164 v 3.736972 h -0.232834 q -0.01164,0 -0.0291,0 -0.01164,0 -0.02328,-0.0058 -0.01746,0 -0.03493,0 -0.01164,-0.0058 -0.02328,-0.0058 0,0 -0.0058,0 0,0 0,0 0,0 -0.0058,0 0,0 0,0 0,0 -0.0058,0 0,0 -0.0058,0 -0.03492,0.0058 -0.06985,0.01164 -0.03493,0 -0.06985,0 H 76.81833 v 0 z m 2.15953,0 1.833562,-4.080401 h 0.232833 0.133879 l 1.792815,4.080401 h -0.232833 q -0.01746,0 -0.04075,0 -0.01746,0 -0.04075,0 -0.02328,0 -0.04657,0 -0.01746,0 -0.04657,0 -0.01164,0 -0.0291,0 -0.01164,0 -0.02328,-0.0058 -0.01164,0 -0.0291,0 -0.01164,0 -0.02328,0 -0.01164,0.0058 -0.0291,0.0058 -0.01164,0 -0.02328,0 -0.01164,0 -0.02328,0 -0.01164,0 -0.01746,0 -0.01164,0 -0.02328,0 -0.0058,0 -0.01746,0 h -0.232833 l -0.640291,-1.606549 h -1.187449 l -0.593725,1.606549 h -0.232833 q -0.01164,0 -0.0291,0 -0.01164,0 -0.02328,0 l -0.0291,-0.0058 q -0.0058,0.0058 -0.01746,0.0058 -0.01164,0 -0.01746,0 -0.01164,0 -0.02328,0 -0.0058,0 -0.01746,0 H 79.04771 q -0.01746,0 -0.03493,0 -0.01746,0 -0.03492,0 v 0 z m 1.426103,-1.880128 h 0.954617 l -0.477309,-1.140882 -0.477308,1.140882 z m 4.028015,1.880128 v -3.742793 q -0.0058,0.0058 -0.01164,0.0058 -0.0058,0 -0.01164,0 -0.0058,0.0058 -0.01164,0.0058 -0.0058,0 -0.01164,0 -0.08731,0.0058 -0.180446,0.01746 -0.08731,0.0058 -0.180445,0.01746 -0.03493,0.0058 -0.06985,0.01164 -0.0291,0 -0.05821,0.0058 -0.0291,0.0058 -0.06403,0.01164 -0.0291,0 -0.05821,0 -0.05821,0.0058 -0.116417,0.01746 -0.05239,0.0058 -0.104775,0.01746 -0.05239,0.0058 -0.09313,0.01164 -0.04075,0.0058 -0.07567,0.01164 l -0.232833,-0.0058 q 0.0058,-0.0058 0.0058,-0.01746 0.0058,-0.01746 0.01164,-0.0291 0,-0.01164 0,-0.02328 0.0058,-0.01164 0.01164,-0.0291 0,-0.01164 0,-0.02328 0,-0.01164 0,-0.02328 0,-0.0058 0,-0.01164 0,-0.0058 0.0058,-0.01746 0,-0.0058 0,-0.01164 0,-0.0058 0,-0.01164 0,-0.0291 -0.0058,-0.05239 0,-0.0291 -0.0058,-0.05239 -0.0058,-0.0291 -0.01164,-0.05239 0,-0.0291 -0.01164,-0.05239 l 3.067577,-0.01164 h 0.232834 q -0.0058,0.02328 -0.01164,0.04075 0,0.01164 -0.0058,0.02328 -0.0058,0.01164 -0.0058,0.02328 0,0.01164 0,0.02328 -0.0058,0.01746 -0.01164,0.0291 0,0.01164 0,0.02328 0,0.01164 0,0.0291 0,0.01164 0,0.02328 0,0.02328 0,0.05239 0,0.02328 0.0058,0.05239 0.0058,0.02328 0.01164,0.05239 0.01164,0.02328 0.01746,0.05239 l -0.232834,-0.0058 q -0.203729,-0.0291 -0.395816,-0.05239 -0.192087,-0.02911 -0.366712,-0.04657 -0.08149,-0.01164 -0.151342,-0.01164 -0.06985,-0.0058 -0.133879,-0.01164 V 46.70705 H 84.93839 q -0.01164,0 -0.0291,0 -0.01164,0 -0.02328,-0.0058 -0.01746,0 -0.03493,0 -0.01164,-0.0058 -0.02328,-0.0058 0,0 -0.0058,0 0,0 0,0 0,0 -0.0058,0 0,0 0,0 0,0 -0.0058,0 0,0 -0.0058,0 -0.03493,0.0058 -0.06985,0.01164 -0.03493,0 -0.06985,0 h -0.232833 v 0 z m 2.892958,-4.033835 q 0.0291,0.01746 0.05239,0.0291 0.02911,0.0058 0.06403,0.01164 0.0058,0 0.0058,0 0.0058,0 0.01164,0 0.0058,0 0.0058,0 0.0058,0 0.01164,0 0.03493,-0.0058 0.06403,-0.01164 0.03493,-0.01164 0.05821,-0.01746 l 0.232833,-0.0058 v 4.028014 h -0.232833 q -0.02328,0 -0.05821,0 -0.0291,-0.0058 -0.05821,-0.01164 -0.0058,0 -0.01164,0 0,0 -0.0058,0 -0.0058,0 -0.01164,0 -0.0058,0 -0.01164,0 -0.03493,0.0058 -0.06403,0.01164 -0.02328,0 -0.05239,0 h -0.232833 v -4.033835 h 0.232833 v 0 z m 1.286403,2.019828 q 0,-0.02328 0,-0.04657 0,-0.0291 0,-0.05239 0,-0.0291 0,-0.05821 0.0058,-0.0291 0.01164,-0.05821 0.03493,-0.349249 0.192087,-0.669395 0.157163,-0.325966 0.436563,-0.622829 0.273579,-0.296862 0.675216,-0.442383 0.401637,-0.151341 0.931333,-0.151341 l 0.232833,-0.0058 q 0.535516,0.02328 0.91387,0.145521 0.384175,0.122237 0.617008,0.360891 0.232833,0.232833 0.378354,0.48895 0.151342,0.256116 0.215371,0.535516 0.01164,0.03492 0.01746,0.06985 0.0058,0.03493 0.01164,0.06403 0.0058,0.03492 0.01164,0.06985 0.0058,0.03493 0.01164,0.06985 0.01164,0.06985 0.01164,0.1397 0.0058,0.06403 0.01164,0.128058 v 0.01164 0.01746 0.02328 0.01746 q 0,0.48895 -0.168805,0.873125 -0.162983,0.378354 -0.500591,0.651933 -0.337608,0.279399 -0.721783,0.413279 -0.378354,0.133879 -0.803274,0.133879 H 90.864 q -0.01164,0 -0.02328,0 -0.01164,0 -0.02328,0 -0.01164,0 -0.0291,0 -0.01164,0 -0.02328,0 -0.07567,0 -0.151341,-0.0058 -0.06985,0 -0.145521,-0.01164 -0.07567,-0.0058 -0.151342,-0.02328 -0.07567,-0.01746 -0.151341,-0.03493 -0.291042,-0.06403 -0.5588,-0.221192 -0.267758,-0.157162 -0.512233,-0.395816 -0.244475,-0.238654 -0.366712,-0.587904 -0.116417,-0.355071 -0.116417,-0.814916 v -0.01164 z m 0.832379,0.0058 q 0,0.454025 0.110596,0.803275 0.116416,0.343429 0.34925,0.587903 0.209549,0.221192 0.471487,0.343429 0.267758,0.122238 0.587904,0.1397 0.296862,-0.01746 0.541337,-0.1397 0.250295,-0.122237 0.448204,-0.343429 0.221191,-0.244474 0.349249,-0.593724 0.128059,-0.34925 0.162984,-0.791633 0,-0.01164 0,-0.02328 0,-0.01746 0,-0.02328 0,-0.01164 0,-0.02328 0,-0.01164 0,-0.02328 0,-0.378354 -0.116417,-0.6985 -0.110596,-0.320146 -0.337608,-0.576262 -0.215371,-0.232833 -0.48895,-0.360892 -0.267758,-0.128058 -0.593724,-0.14552 -0.285221,0.01746 -0.512233,0.122237 -0.227013,0.09895 -0.384175,0.285221 -0.174625,0.20955 -0.296863,0.436562 -0.116416,0.227012 -0.186266,0.471487 -0.01746,0.07567 -0.03492,0.145521 -0.01746,0.06985 -0.0291,0.1397 -0.01164,0.06985 -0.02328,0.1397 -0.0058,0.06985 -0.01746,0.133879 z m 4.580991,2.008186 v -4.033835 h 0.232833 0.2794 l 2.561165,2.817282 v -2.817282 h 0.232833 q 0.01164,0.01746 0.0291,0.02328 0.01746,0.0058 0.03493,0.01164 0.02328,-0.0058 0.04075,-0.01164 0.01746,-0.0058 0.0291,-0.01164 l 0.232833,-0.0058 v 4.028014 h -0.232833 -0.227012 l -2.613553,-2.904594 v 2.904594 h -0.232833 q -0.0058,0 -0.01164,0 -0.0058,0 -0.01164,0 -0.01164,0 -0.01746,0 -0.0058,-0.0058 -0.01164,-0.0058 -0.01164,0 -0.02328,0 -0.0058,0 -0.01746,0.0058 -0.01164,0 -0.02328,0 -0.0058,0 -0.01746,0 h -0.232833 v 0 z"
         id="text8"
         aria-label="TAIPEI MAIN STATION" />
      <g
         id="g1"
         transform="translate(-10.850801,-2.6458334)">
        <path
           style="font-weight:500;font-size:5.82083px;line-height:1.25;font-family:'Noto Sans JP';-inkscape-font-specification:'Noto Sans JP Medium';fill:#ffffff;stroke-width:0.264583"
           d="m 52.764192,56.291203 h 3.242202 v 0.529696 h -3.242202 z m -0.250296,-1.746249 h 3.78936 v 2.514599 h -0.587904 v -1.990724 h -2.642656 v 2.002366 h -0.5588 z m 1.152524,-2.910415 0.622829,0.20955 q -0.180446,0.34925 -0.401637,0.715962 -0.215371,0.366713 -0.430742,0.6985 -0.21537,0.331787 -0.413279,0.587904 l -0.488949,-0.203729 q 0.192087,-0.261938 0.395816,-0.605367 0.20955,-0.349249 0.395817,-0.715962 0.192087,-0.366712 0.320145,-0.686858 z m 1.40282,0.983721 0.430742,-0.320146 q 0.296862,0.238654 0.599545,0.529696 0.308504,0.28522 0.570441,0.576262 0.261938,0.291041 0.413279,0.541337 l -0.477308,0.366712 q -0.1397,-0.244475 -0.389995,-0.541337 -0.250296,-0.302683 -0.552979,-0.599545 -0.296862,-0.302684 -0.593725,-0.552979 z m -3.218919,0.77417 q 0.430742,-0.01164 0.966258,-0.0291 0.535516,-0.01746 1.135062,-0.04075 0.605366,-0.02328 1.228195,-0.04657 0.62865,-0.02911 1.239837,-0.05821 l -0.02328,0.529696 q -0.611187,0.03493 -1.234015,0.06403 -0.617008,0.0291 -1.210733,0.05821 -0.587904,0.02328 -1.117599,0.04657 -0.523875,0.01746 -0.942975,0.03493 z m 5.82083,-0.291041 h 1.717145 v 0.552978 h -1.717145 z m 2.881311,-1.32715 h 0.576262 v 4.266669 q 0,0.232833 0.04657,0.302683 0.05239,0.06403 0.227012,0.06403 0.04075,0 0.1397,0 0.104775,0 0.227012,0 0.122238,0 0.227013,0 0.104775,0 0.151341,0 0.128059,0 0.192088,-0.09895 0.06403,-0.104775 0.09313,-0.366712 0.0291,-0.261938 0.04657,-0.733425 0.06985,0.05239 0.162983,0.104775 0.09313,0.05239 0.192087,0.09313 0.09895,0.03493 0.174625,0.05239 -0.0291,0.541337 -0.104775,0.873124 -0.06985,0.325967 -0.232833,0.471487 -0.162983,0.145521 -0.471487,0.145521 -0.04657,0 -0.168804,0 -0.122238,0 -0.267758,0 -0.145521,0 -0.267759,0 -0.116416,0 -0.162983,0 -0.302683,0 -0.471487,-0.08149 -0.168804,-0.08149 -0.238654,-0.285221 -0.06985,-0.197908 -0.06985,-0.552979 z m -1.437745,-0.0058 h 0.570441 v 5.250388 h -0.570441 z m 3.346977,0.884766 0.401637,0.488949 q -0.279399,0.20955 -0.611187,0.413279 -0.331787,0.203729 -0.681037,0.401638 -0.343429,0.197908 -0.675216,0.372533 -0.0291,-0.09313 -0.09895,-0.221192 -0.06403,-0.128058 -0.122238,-0.20955 0.320146,-0.174625 0.646113,-0.384174 0.325966,-0.215371 0.622828,-0.436563 0.296863,-0.227012 0.518054,-0.42492 z m -4.98263,3.125785 q 0.238654,-0.07567 0.547158,-0.186266 0.308504,-0.110596 0.651933,-0.238654 0.34925,-0.128058 0.698499,-0.261938 l 0.104775,0.500592 q -0.448204,0.197908 -0.91387,0.395816 -0.459846,0.192088 -0.8382,0.34925 z m 8.760349,-3.888314 h 0.512233 v 2.229378 q 0,0.343429 -0.02328,0.739245 -0.02328,0.389996 -0.08731,0.791633 -0.06403,0.395817 -0.192087,0.76835 -0.128059,0.366712 -0.337608,0.663574 -0.04075,-0.04075 -0.128059,-0.09895 -0.08149,-0.05239 -0.168804,-0.104775 -0.08149,-0.04657 -0.145521,-0.07567 0.261938,-0.372533 0.378354,-0.838199 0.122238,-0.465666 0.157163,-0.942975 0.03493,-0.483128 0.03493,-0.902228 z m 1.373716,2.217736 q 0.08149,0.564621 0.227012,1.059391 0.151342,0.48895 0.389996,0.867304 0.238654,0.378354 0.582083,0.611187 -0.05821,0.04657 -0.128059,0.122237 -0.06985,0.08149 -0.133879,0.162984 -0.05821,0.08149 -0.09895,0.157162 -0.389995,-0.2794 -0.646112,-0.710141 -0.256117,-0.430742 -0.413279,-0.98372 -0.157162,-0.5588 -0.256116,-1.210733 z m -1.105958,-2.217736 h 2.048932 v 2.479674 h -2.048932 v -0.500592 h 1.54252 v -1.466849 h -1.54252 z m -2.625194,0.896408 h 1.816099 v 0.42492 h -1.816099 z m 0,0.873124 h 1.816099 v 0.424921 h -1.816099 z m -0.267759,0.884766 h 1.990724 v 0.436563 h -1.990724 z m 0.948796,-2.392361 h 0.454024 v 2.631015 h -0.454024 z m 0.273579,3.102503 0.232833,-0.08731 q 0.104775,0.174625 0.192087,0.384175 0.09313,0.20955 0.133879,0.360891 l -0.256116,0.09895 q -0.0291,-0.151342 -0.116417,-0.366713 -0.08731,-0.21537 -0.186266,-0.389995 z m -0.407458,0.08731 0.250295,-0.04657 q 0.08149,0.221192 0.145521,0.483129 0.06403,0.261938 0.08149,0.454025 l -0.273579,0.05821 q -0.01164,-0.192087 -0.06985,-0.454024 -0.05821,-0.267759 -0.133879,-0.494771 z m -0.424921,0.05239 0.261937,-0.02911 q 0.04657,0.256117 0.06403,0.552979 0.02328,0.296863 0.01746,0.518054 l -0.273579,0.04075 q 0.01164,-0.221192 -0.01164,-0.518054 -0.01746,-0.302683 -0.05821,-0.56462 z m -0.42492,-0.122238 0.320145,0.05821 q -0.01164,0.267759 -0.04657,0.541338 -0.02911,0.267758 -0.09896,0.500591 -0.06403,0.227012 -0.180445,0.395816 L 63.27661,56.605528 q 0.157163,-0.232833 0.221192,-0.587904 0.06403,-0.360891 0.08149,-0.745066 z m 0.03492,-3.376081 h 2.194453 v 0.454025 h -1.722965 v 2.398181 h -0.471488 z m 1.798637,2.648477 h 0.465666 q 0,0 -0.0058,0.07567 0,0.07567 -0.0058,0.128058 -0.02911,0.710142 -0.06985,1.152525 -0.03493,0.436562 -0.08731,0.663574 -0.04657,0.227013 -0.122237,0.320146 -0.06985,0.08731 -0.151342,0.122237 -0.07567,0.04075 -0.180445,0.05239 -0.08731,0.01164 -0.232834,0.01164 -0.1397,0 -0.302683,-0.0058 -0.0058,-0.09895 -0.03493,-0.227013 -0.0291,-0.122237 -0.08149,-0.209549 0.139699,0.01164 0.250295,0.01164 0.116417,0.0058 0.174625,0.0058 0.05239,0 0.08731,-0.01164 0.04075,-0.01164 0.07567,-0.05239 0.04657,-0.06403 0.08731,-0.261937 0.04075,-0.20373 0.06985,-0.611188 0.03493,-0.407458 0.06403,-1.082674 z"
           id="text9"
           aria-label="台北駅" />
        <path
           style="font-weight:500;font-size:5.82083px;line-height:1.25;font-family:'Noto Sans KR';-inkscape-font-specification:'Noto Sans KR Medium';fill:#ffffff;stroke-width:0.264583"
           d="m 74.907277,55.324946 h 0.424921 q 0.471487,0 0.873124,-0.01164 0.401637,-0.01164 0.77417,-0.04075 0.378354,-0.03493 0.774171,-0.09896 l 0.05821,0.48895 q -0.401637,0.06403 -0.791633,0.104775 -0.384174,0.03493 -0.797453,0.04657 -0.407459,0.0058 -0.890587,0.0058 h -0.424921 z m 0,-3.114144 h 2.485494 v 0.500591 h -1.880128 v 2.782357 h -0.605366 z m 0.459846,1.490132 h 1.926694 v 0.483129 h -1.926694 z m 2.828923,-1.949978 h 0.611187 v 5.320239 h -0.611187 z m 0.477308,2.083858 h 0.960437 v 0.506412 h -0.960437 z m 5.133972,-2.089678 h 0.611188 v 5.33188 h -0.611188 z m -2.217736,0.389995 q 0.395817,0 0.704321,0.232833 0.314325,0.232834 0.488949,0.651933 0.174625,0.4191 0.174625,0.989541 0,0.576263 -0.174625,1.001183 -0.174624,0.4191 -0.488949,0.651933 -0.308504,0.227013 -0.704321,0.227013 -0.395816,0 -0.710141,-0.227013 -0.308504,-0.232833 -0.48895,-0.651933 -0.174625,-0.42492 -0.174625,-1.001183 0,-0.570441 0.174625,-0.989541 0.180446,-0.419099 0.48895,-0.651933 0.314325,-0.232833 0.710141,-0.232833 z m 0,0.552979 q -0.232833,0 -0.413279,0.157162 -0.174625,0.157163 -0.273579,0.454025 -0.09895,0.296863 -0.09895,0.710141 0,0.4191 0.09895,0.715963 0.09895,0.296862 0.273579,0.459845 0.180446,0.157163 0.413279,0.157163 0.232833,0 0.407458,-0.157163 0.174625,-0.162983 0.273579,-0.459845 0.09895,-0.296863 0.09895,-0.715963 0,-0.413278 -0.09895,-0.710141 -0.09895,-0.296862 -0.273579,-0.454025 Q 81.822423,52.68811 81.58959,52.68811 Z m 3.981449,-0.430741 h 0.576262 v 1.257299 h 0.925512 v -1.257299 h 0.56462 v 3.50996 h -2.066394 z m 0.576262,1.746249 v 1.268941 h 0.925512 v -1.268941 z m 3.207277,-2.258482 h 0.582083 v 5.320238 h -0.582083 z m -1.816099,1.990723 h 0.960437 v 0.494771 h -0.960437 z m 0.750887,-1.885948 h 0.570441 v 4.965167 h -0.570441 z m 6.228289,-0.104775 h 0.611187 v 5.33188 h -0.611187 z m -2.217736,0.389995 q 0.395816,0 0.70432,0.232833 0.314325,0.232834 0.48895,0.651933 0.174625,0.4191 0.174625,0.989541 0,0.576263 -0.174625,1.001183 -0.174625,0.4191 -0.48895,0.651933 -0.308504,0.227013 -0.70432,0.227013 -0.395817,0 -0.710141,-0.227013 -0.308504,-0.232833 -0.48895,-0.651933 -0.174625,-0.42492 -0.174625,-1.001183 0,-0.570441 0.174625,-0.989541 0.180446,-0.419099 0.48895,-0.651933 0.314324,-0.232833 0.710141,-0.232833 z m 0,0.552979 q -0.232833,0 -0.413279,0.157162 -0.174625,0.157163 -0.273579,0.454025 -0.09895,0.296863 -0.09895,0.710141 0,0.4191 0.09895,0.715963 0.09895,0.296862 0.273579,0.459845 0.180446,0.157163 0.413279,0.157163 0.232833,0 0.407458,-0.157163 0.174625,-0.162983 0.273579,-0.459845 0.09895,-0.296863 0.09895,-0.715963 0,-0.413278 -0.09895,-0.710141 -0.09895,-0.296862 -0.273579,-0.454025 -0.174625,-0.157162 -0.407458,-0.157162 z m 7.829021,-0.186266 h 1.60073 v 0.488949 h -1.60073 z m 0,1.175807 h 1.60073 v 0.494771 h -1.60073 z m -1.565803,1.484312 h 3.579813 v 1.909232 h -0.61119 v -1.426103 h -2.968623 z m 2.968623,-3.411007 h 0.61119 v 3.137428 h -0.61119 z m -2.334153,0.285221 q 0.389996,0 0.70432,0.168804 0.314323,0.162983 0.494773,0.459846 0.18044,0.291041 0.18044,0.669395 0,0.378354 -0.18044,0.675216 -0.18045,0.291042 -0.494773,0.459846 -0.314324,0.162983 -0.70432,0.162983 -0.395816,0 -0.710141,-0.162983 -0.314325,-0.168804 -0.494771,-0.459846 -0.180445,-0.296862 -0.180445,-0.675216 0,-0.378354 0.180445,-0.669395 0.180446,-0.296863 0.494771,-0.459846 0.314325,-0.168804 0.710141,-0.168804 z m -0.0058,0.518054 q -0.227012,0 -0.407458,0.09895 -0.180446,0.09895 -0.291041,0.273579 -0.104775,0.174625 -0.104775,0.407458 0,0.232833 0.104775,0.407458 0.110595,0.174625 0.291041,0.273579 0.180446,0.09313 0.413279,0.09313 0.227012,0 0.407458,-0.09313 0.180446,-0.09895 0.285221,-0.273579 0.104775,-0.174625 0.104775,-0.407458 0,-0.232833 -0.104775,-0.407458 -0.104775,-0.174625 -0.285221,-0.273579 -0.180446,-0.09895 -0.413279,-0.09895 z"
           id="text9-3"
           aria-label="타이베이 역" />
      </g>
    </g>
  </g>
</svg>
