<?xml version="1.0" encoding="UTF-8" standalone="no"?>
<!-- Created with Inkscape (http://www.inkscape.org/) -->

<svg
   width="500"
   height="250"
   viewBox="0 0 132.29166 66.145833"
   version="1.1"
   id="svg1"
   inkscape:version="1.3.2 (091e20e, 2023-11-25, custom)"
   sodipodi:docname="r11.svg"
   xmlns:inkscape="http://www.inkscape.org/namespaces/inkscape"
   xmlns:sodipodi="http://sodipodi.sourceforge.net/DTD/sodipodi-0.dtd"
   xmlns="http://www.w3.org/2000/svg"
   xmlns:svg="http://www.w3.org/2000/svg">
  <sodipodi:namedview
     id="namedview1"
     pagecolor="#9e652e"
     bordercolor="#ffffff"
     borderopacity="1"
     inkscape:showpageshadow="0"
     inkscape:pageopacity="0"
     inkscape:pagecheckerboard="false"
     inkscape:deskcolor="#d1d1d1"
     inkscape:document-units="mm"
     inkscape:zoom="2.0208096"
     inkscape:cx="176.66187"
     inkscape:cy="144.49654"
     inkscape:window-width="1920"
     inkscape:window-height="1009"
     inkscape:window-x="1912"
     inkscape:window-y="-8"
     inkscape:window-maximized="1"
     inkscape:current-layer="g3" />
  <defs
     id="defs1">
    <rect
       x="157.85752"
       y="62.351248"
       width="329.07603"
       height="135.09437"
       id="rect4" />
  </defs>
  <g
     inkscape:label="Layer 1"
     inkscape:groupmode="layer"
     id="layer1">
    <rect
       style="fill:#d0002b;fill-opacity:1;stroke:none;stroke-width:0.953294;stroke-dasharray:none"
       id="rect5"
       width="132.29167"
       height="66.145836"
       x="-2.5431316e-06"
       y="-1.2715658e-06"
       ry="0" />
    <g
       id="g3"
       transform="matrix(1.1854712,0,0,1.1854712,-11.049911,-14.663718)">
      <g
         id="g2"
         transform="matrix(0.83648094,0,0,0.83648094,30.488769,9.7306623)">
        <g
           id="g4"
           transform="translate(1.0672727)">
          <path
             id="rect6"
             style="fill:#d0002b;stroke:#ffffff;stroke-width:0.575409"
             d="m 9.3009131,19.849001 h 5.7010479 c 1.810115,0 3.267355,1.45724 3.267355,3.267355 v 9.524719 c 0,1.810115 -1.45724,3.267355 -3.267355,3.267355 H 9.3009131 c -1.8101145,0 -3.2673547,-1.45724 -3.2673547,-3.267355 v -9.524719 c 0,-1.810115 1.4572402,-3.267355 3.2673547,-3.267355 z" />
          <path
             style="font-weight:bold;font-size:5.82083px;line-height:1.25;font-family:'Optima Bold';-inkscape-font-specification:'Optima Bold,  Bold';fill:#f9f9f9;stroke-width:0.264583"
             d="m 10.761052,26.948961 v -4.033835 h 0.232833 1.420283 q 0.291041,0.01164 0.506412,0.08149 0.221191,0.06985 0.360891,0.203729 0.1397,0.1397 0.20955,0.314325 0.06985,0.168804 0.06985,0.372533 0,0.197908 -0.05821,0.360891 -0.05239,0.157163 -0.168804,0.273579 -0.110596,0.116417 -0.238654,0.203729 -0.122238,0.08731 -0.256117,0.1397 -0.06403,0.02328 -0.128058,0.04657 -0.05821,0.02328 -0.122238,0.03493 -0.05821,0.01746 -0.116416,0.0291 -0.05821,0.0058 -0.104775,0.01164 l 1.559982,1.961619 H 13.69475 q -0.02328,0 -0.04657,0 -0.01746,0 -0.04074,-0.0058 -0.02328,0 -0.04657,0 -0.01746,-0.0058 -0.03493,-0.01164 -0.01746,0 -0.03492,0 -0.01164,0 -0.02328,0 -0.0058,0 -0.01164,0 -0.0058,0 -0.01746,0 -0.0058,0.0058 -0.01164,0.0058 -0.0058,0 -0.01746,0 -0.04074,0.0058 -0.08731,0.01164 -0.04075,0 -0.08731,0 h -0.232834 l -1.461028,-1.868486 v 1.868486 H 11.30821 q -0.01746,0 -0.03493,0 -0.01746,0 -0.03492,-0.0058 -0.0058,0 -0.01746,0 -0.0058,0 -0.01164,-0.0058 -0.01164,0 -0.01746,0 -0.0058,-0.0058 -0.01746,-0.0058 -0.0058,0 -0.01164,0 -0.0058,0 -0.0058,0 -0.0058,0.0058 -0.01164,0.0058 -0.0058,0 -0.01164,0 -0.03492,0.0058 -0.06985,0.01164 -0.03492,0 -0.06985,0 h -0.232833 v 0 z m 0.779991,-2.153707 q 0.01164,0.01164 0.0291,0.01746 0.01746,0 0.03492,0 0.221192,-0.0058 0.395817,-0.04075 0.174624,-0.03493 0.291041,-0.104775 0.133879,-0.07567 0.221192,-0.157162 0.09313,-0.08731 0.14552,-0.180446 0.04075,-0.06403 0.06403,-0.128058 0.0291,-0.06985 0.03492,-0.128059 0.01164,-0.06403 0.01164,-0.110595 0.0058,-0.04657 0.0058,-0.07567 0,-0.0291 -0.0058,-0.06403 -0.0058,-0.03493 -0.01746,-0.08149 -0.0058,-0.04657 -0.0291,-0.09313 -0.02328,-0.04657 -0.05239,-0.09895 -0.04075,-0.07567 -0.116417,-0.145521 -0.07567,-0.06985 -0.174624,-0.128058 -0.09896,-0.06403 -0.238654,-0.09313 -0.1397,-0.0291 -0.325967,-0.0291 l -0.273579,-0.01164 v 1.653115 0 z"
             id="text6"
             aria-label="R" />
          <path
             style="font-weight:bold;font-size:5.82083px;line-height:1.25;font-family:'Optima Bold';-inkscape-font-specification:'Optima Bold,  Bold';fill:#f9f9f9;stroke-width:0.264583"
             d="m 9.3516163,29.278575 q 0.1688041,-0.07567 0.3317873,-0.151341 0.1688041,-0.07567 0.3317874,-0.151342 0.162983,-0.06985 0.291041,-0.1397 0.133879,-0.06985 0.238654,-0.1397 l 0.232834,-0.0058 0.1397,0.04075 v 3.987269 h -0.232834 q -0.03492,-0.0058 -0.06403,-0.01746 -0.0291,-0.0058 -0.05821,-0.01164 -0.03492,0.0058 -0.06985,0.01164 -0.03493,0.01164 -0.08149,0.01746 H 10.178174 V 29.278575 L 9.7707161,29.511409 H 9.5378829 q -0.00582,0 -0.017462,-0.0058 -0.00582,-0.01164 -0.017463,-0.0291 -0.00582,-0.01164 -0.011642,-0.01746 -0.00582,-0.01164 -0.00582,-0.01746 -0.00582,-0.01164 -0.011642,-0.01746 -0.00582,-0.01164 -0.011642,-0.01746 -0.00582,-0.01164 -0.011642,-0.01746 -0.00582,-0.0058 -0.011642,-0.01746 -0.011642,-0.0058 -0.017462,-0.01164 -0.00582,-0.01164 -0.011642,-0.01746 -0.011642,-0.01746 -0.029104,-0.0291 -0.011642,-0.01746 -0.029104,-0.02328 v -0.01164 z m 3.4866827,0 q 0.168804,-0.07567 0.331787,-0.151341 0.168804,-0.07567 0.331787,-0.151342 0.162984,-0.06985 0.291042,-0.1397 0.133879,-0.06985 0.238654,-0.1397 l 0.232833,-0.0058 0.1397,0.04075 v 3.987269 h -0.232833 q -0.03493,-0.0058 -0.06403,-0.01746 -0.0291,-0.0058 -0.05821,-0.01164 -0.03492,0.0058 -0.06985,0.01164 -0.03493,0.01164 -0.08149,0.01746 h -0.232833 v -3.440111 l -0.407459,0.232834 h -0.232833 q -0.0058,0 -0.01746,-0.0058 -0.0058,-0.01164 -0.01746,-0.0291 -0.0058,-0.01164 -0.01164,-0.01746 -0.0058,-0.01164 -0.0058,-0.01746 -0.0058,-0.01164 -0.01164,-0.01746 -0.0058,-0.01164 -0.01164,-0.01746 -0.0058,-0.01164 -0.01164,-0.01746 -0.0058,-0.0058 -0.01164,-0.01746 -0.01164,-0.0058 -0.01746,-0.01164 -0.0058,-0.01164 -0.01164,-0.01746 -0.01164,-0.01746 -0.0291,-0.0291 -0.01164,-0.01746 -0.0291,-0.02328 v -0.01164 z"
             id="text6-8"
             aria-label="11" />
        </g>
      </g>
      <path
         style="font-weight:600;font-size:14.8167px;line-height:1.25;font-family:'Noto Serif TC';-inkscape-font-specification:'Noto Serif TC Semi-Bold';letter-spacing:0px;fill:#ffffff;stroke-width:0.264583"
         d="m 58.206202,33.75447 v -3.941243 h 3.748626 v 3.941243 z m -5.230295,0 v -3.941243 h 3.748625 v 3.941243 z m 9.556772,-5.171029 -0.726018,0.800102 h -3.600459 v -2.578106 c 0.400051,-0.05927 0.503768,-0.22225 0.548218,-0.429684 l -2.029888,-0.207434 v 3.215224 h -3.615274 l -1.585387,-0.666751 v 6.904582 h 0.22225 c 0.592668,0 1.229786,-0.340784 1.229786,-0.474135 v -0.963085 h 3.748625 v 5.763696 h 0.281518 c 0.563034,0 1.200152,-0.370417 1.200152,-0.533401 v -5.230295 h 3.748626 v 1.229786 h 0.251883 c 0.488952,0 1.21497,-0.266701 1.229787,-0.370417 v -4.978412 c 0.31115,-0.05927 0.518584,-0.192617 0.622301,-0.31115 z m 14.149948,0.963086 v 8.534419 H 73.008086 V 27.101771 c 0.385234,-0.05927 0.503768,-0.207433 0.533401,-0.429684 L 71.511599,26.47947 v 11.601476 h -3.630091 v -7.882484 c 0.370417,-0.05927 0.518584,-0.192617 0.548217,-0.414868 l -2.015071,-0.22225 v 8.356618 C 66.20722,38.036496 65.98497,38.19948 65.85162,38.347647 l 1.61502,0.874185 0.518584,-0.711202 h 8.697403 v 1.43722 h 0.281518 c 0.548218,0 1.200152,-0.325967 1.200152,-0.459317 v -9.319705 c 0.385235,-0.05927 0.503768,-0.207434 0.548218,-0.414867 z"
         id="text7"
         aria-label="中山" />
      <path
         style="font-weight:bold;font-size:5.82083px;line-height:1.25;font-family:'Optima Bold';-inkscape-font-specification:'Optima Bold,  Bold';fill:#f9f9f9;stroke-width:0.264583"
         d="m 45.871624,42.719782 h 3.119965 v 0.1397 q -0.308504,0.42492 -0.622829,0.849841 -0.314324,0.424921 -0.628649,0.861483 -0.314325,0.436562 -0.646112,0.908049 -0.325967,0.465667 -0.669396,0.966258 0.291042,0 0.576262,-0.0058 0.285221,-0.0058 0.564621,-0.01164 0.325966,-0.01164 0.611187,-0.04075 0.285221,-0.0291 0.535516,-0.08149 l 0.232833,-0.0058 q -0.0058,0.04075 -0.01746,0.06985 -0.0058,0.0291 -0.01164,0.05821 -0.0058,0.02328 -0.0058,0.05239 0,0.02328 0,0.04657 v 0.0291 l 0.0058,0.0291 q 0,0.01164 0,0.02328 0,0.0058 0,0.01164 0,0.01164 0,0.01746 0.0058,0.0058 0.0058,0.01746 0.0058,0.01746 0.01164,0.03493 0.0058,0.01164 0.01164,0.01746 h -0.232833 -3.30041 v -0.180445 l 2.514598,-3.527423 q -0.261937,0.01164 -0.512233,0.01746 -0.244475,0.0058 -0.483129,0.01746 -0.14552,0.0058 -0.28522,0.01746 -0.133879,0.0058 -0.267758,0.01164 -0.13388,0.01164 -0.261938,0.01746 -0.122237,0.0058 -0.244475,0.01746 l -0.232833,-0.0058 q 0.0058,-0.01164 0.0058,-0.0291 0.0058,-0.01746 0.01164,-0.03493 0.0058,-0.01746 0.0058,-0.03493 0.0058,-0.01746 0.01164,-0.03493 v -0.02328 -0.02328 q 0,-0.01746 -0.0058,-0.03493 0,-0.02328 -0.0058,-0.04657 -0.0058,-0.02328 -0.01164,-0.04657 0,-0.0291 -0.01164,-0.05239 v -0.01164 h 0.232833 z m 3.713686,3.987268 v -4.080401 h 0.232833 q 0.01746,0.01164 0.04075,0.02328 0.02328,0.0058 0.04657,0.01164 0.0058,0 0.01164,0.0058 0.01164,0 0.01746,0 0.0058,0 0.01164,0 0.01164,0 0.01746,0 0,0 0,0 0.0058,0 0.01164,0 0.0058,0 0.0058,0 0.0058,0 0.0058,0 0.0291,-0.0058 0.05239,-0.01164 0.02911,-0.01164 0.04657,-0.01746 l 0.232833,-0.0058 v 1.693862 q 0.08149,0.02328 0.20955,0.03492 0.128058,0.01164 0.302683,0.02328 0.157163,0.0058 0.320146,0.01164 0.168804,0.0058 0.337608,0.0058 0.151342,0 0.291042,0 0.14552,-0.0058 0.28522,-0.01164 0.168804,-0.01164 0.296863,-0.02328 0.128058,-0.01164 0.203729,-0.0291 v -1.711324 h 0.232833 q 0.0058,0.01164 0.01164,0.01746 0.0058,0 0.01164,0 0,0.0058 0.0058,0.0058 0.0058,0 0.01164,0 0.01164,0.0058 0.02328,0.0058 0.01164,0 0.02328,0 0.0058,0 0.01164,0.0058 0.0058,0 0.01164,0 0.0058,0.0058 0.01164,0.0058 0.0058,0 0.01164,0 0.0058,0 0.0058,0 0.0058,0 0.01164,0 0.02911,-0.0058 0.05821,-0.01164 0.03493,-0.01164 0.05821,-0.01746 l 0.232833,-0.0058 v 4.074581 h -0.232833 q -0.02328,0 -0.05239,0 -0.02328,-0.0058 -0.05239,-0.01164 0,0 -0.0058,0 0,0 0,0 0,0 -0.0058,0 0,0 0,0 0,0 -0.0058,0 0,0 -0.0058,0 -0.03493,0.0058 -0.06985,0.01164 -0.03492,0 -0.06985,0 h -0.232833 v -2.014007 q -0.04075,0 -0.09895,0 -0.05239,-0.0058 -0.116417,-0.01164 -0.06403,0 -0.1397,0 -0.06985,-0.0058 -0.151342,-0.01164 -0.128058,-0.01164 -0.267758,-0.01164 -0.1397,-0.0058 -0.291041,-0.0058 -0.0291,0 -0.05821,0 -0.0291,0 -0.05239,0 -0.0291,0.0058 -0.05821,0.0058 -0.02328,0 -0.05239,0 -0.03493,0 -0.06985,0 -0.03493,0 -0.06985,0 -0.04075,0.0058 -0.07567,0.0058 -0.03493,0 -0.06985,0 -0.04075,0 -0.08731,0.0058 -0.04075,0 -0.08149,0 -0.04657,0.0058 -0.08731,0.01164 -0.04075,0 -0.08731,0 -0.08731,0.0058 -0.168804,0.01164 -0.08149,0 -0.162984,0.01164 v 2.002365 h -0.232833 q -0.03493,0 -0.06403,0 -0.02328,-0.0058 -0.05239,-0.01164 -0.03493,0.0058 -0.06985,0.01164 -0.03493,0 -0.08149,0 H 49.58531 v 0 z m 4.540246,-2.014007 q 0,-0.02328 0,-0.04657 0,-0.0291 0,-0.05239 0,-0.0291 0,-0.05821 0.0058,-0.0291 0.01164,-0.05821 0.03493,-0.349249 0.192088,-0.669395 0.157162,-0.325966 0.436562,-0.622829 0.273579,-0.296862 0.675216,-0.442383 0.401638,-0.151341 0.931333,-0.151341 l 0.232833,-0.0058 q 0.535517,0.02328 0.913871,0.145521 0.384174,0.122237 0.617008,0.360891 0.232833,0.232833 0.378353,0.48895 0.151342,0.256116 0.215371,0.535516 0.01164,0.03492 0.01746,0.06985 0.0058,0.03493 0.01164,0.06403 0.0058,0.03492 0.01164,0.06985 0.0058,0.03493 0.01164,0.06985 0.01164,0.06985 0.01164,0.1397 0.0058,0.06403 0.01164,0.128058 v 0.01164 0.01746 0.02328 0.01746 q 0,0.48895 -0.168804,0.873125 -0.162983,0.378354 -0.500591,0.651933 -0.337609,0.279399 -0.721783,0.413279 -0.378354,0.133879 -0.803275,0.133879 h -0.232833 q -0.01164,0 -0.02328,0 -0.01164,0 -0.02328,0 -0.01164,0 -0.0291,0 -0.01164,0 -0.02328,0 -0.07567,0 -0.151342,-0.0058 -0.06985,0 -0.145521,-0.01164 -0.07567,-0.0058 -0.151341,-0.02328 -0.07567,-0.01746 -0.151342,-0.03493 -0.291041,-0.06403 -0.558799,-0.221192 -0.267759,-0.157162 -0.512233,-0.395816 -0.244475,-0.238654 -0.366713,-0.587904 -0.116416,-0.355071 -0.116416,-0.814916 v -0.01164 z m 0.832378,0.0058 q 0,0.454025 0.110596,0.803275 0.116417,0.343429 0.34925,0.587903 0.20955,0.221192 0.471487,0.343429 0.267758,0.122238 0.587904,0.1397 0.296862,-0.01746 0.541337,-0.1397 0.250296,-0.122237 0.448204,-0.343429 0.221192,-0.244474 0.34925,-0.593724 0.128058,-0.34925 0.162983,-0.791633 0,-0.01164 0,-0.02328 0,-0.01746 0,-0.02328 0,-0.01164 0,-0.02328 0,-0.01164 0,-0.02328 0,-0.378354 -0.116417,-0.6985 -0.110595,-0.320146 -0.337608,-0.576262 -0.21537,-0.232833 -0.488949,-0.360892 -0.267759,-0.128058 -0.593725,-0.14552 -0.285221,0.01746 -0.512233,0.122237 -0.227012,0.09895 -0.384175,0.285221 -0.174625,0.20955 -0.296862,0.436562 -0.116417,0.227012 -0.186267,0.471487 -0.01746,0.07567 -0.03493,0.145521 -0.01746,0.06985 -0.0291,0.1397 -0.01164,0.06985 -0.02328,0.1397 -0.0058,0.06985 -0.01746,0.133879 z m 4.580993,2.008186 v -4.033835 h 0.232833 0.2794 l 2.561165,2.817282 v -2.817282 h 0.232833 q 0.01164,0.01746 0.0291,0.02328 0.01746,0.0058 0.03493,0.01164 0.02328,-0.0058 0.04075,-0.01164 0.01746,-0.0058 0.0291,-0.01164 l 0.232833,-0.0058 v 4.028014 h -0.232833 -0.227012 l -2.613553,-2.904594 v 2.904594 h -0.232833 q -0.0058,0 -0.01164,0 -0.0058,0 -0.01164,0 -0.01164,0 -0.01746,0 -0.0058,-0.0058 -0.01164,-0.0058 -0.01164,0 -0.02328,0 -0.0058,0 -0.01746,0.0058 -0.01164,0 -0.02328,0 -0.0058,0 -0.01746,0 h -0.232833 v 0 z m 4.546067,-1.973261 q 0.02328,-0.459846 0.133879,-0.803275 0.116417,-0.343428 0.320146,-0.56462 0.203729,-0.221192 0.424921,-0.372533 0.227012,-0.151342 0.471487,-0.232833 0.128058,-0.04657 0.250296,-0.07567 0.128058,-0.0291 0.250295,-0.04657 0.122238,-0.01746 0.232833,-0.0291 0.116417,-0.01164 0.20955,-0.01746 l 0.232834,-0.0058 q 0.186266,0.0058 0.372533,0.0291 0.192087,0.01746 0.384174,0.05821 0.186267,0.04075 0.372534,0.116417 0.192087,0.06985 0.384174,0.168804 l -0.186266,0.49477 h -0.232833 q -0.02911,-0.01164 -0.06403,-0.03493 -0.03493,-0.0291 -0.06985,-0.06403 -0.03493,-0.03493 -0.07567,-0.06985 -0.03493,-0.03493 -0.08149,-0.06985 -0.08149,-0.06403 -0.186267,-0.122237 -0.104774,-0.05821 -0.227012,-0.110596 -0.09895,-0.04657 -0.227012,-0.06985 -0.122238,-0.0291 -0.267758,-0.03493 -0.02911,0 -0.06403,0.0058 -0.0291,0 -0.06403,0.0058 -0.05821,0.0058 -0.122237,0.01746 -0.05821,0.01164 -0.122238,0.02911 -0.21537,0.05821 -0.419099,0.186266 -0.197909,0.122238 -0.384175,0.314325 -0.180446,0.192087 -0.285221,0.471487 -0.104775,0.2794 -0.133879,0.657754 v 0.01746 0.02328 0.02328 0.02328 q -0.0058,0.430742 0.110596,0.779992 0.116417,0.349249 0.34925,0.617008 0.221191,0.250295 0.500591,0.384174 0.285221,0.128059 0.634471,0.145521 0.116416,-0.0058 0.221191,-0.01746 0.110596,-0.01746 0.215371,-0.04075 0.133879,-0.0291 0.227012,-0.06985 0.09895,-0.04657 0.168804,-0.09895 v -1.525058 h 0.232833 q 0.01164,0.01164 0.02328,0.01746 0.01164,0 0.0291,0.0058 0.01164,0.0058 0.02328,0.01164 0.01164,0 0.02328,0 0.0058,0 0.0058,0 0.0058,0 0.01164,0 0.0058,0.0058 0.0058,0.0058 0.0058,0 0.01164,0 0,0 0,0 0,0 0.0058,0 0,0 0,0 0,0 0,0 0.02911,-0.0058 0.06403,-0.01164 0.03493,-0.01164 0.06985,-0.01746 l 0.232834,-0.0058 v 1.693862 l -0.01746,0.01746 -0.01746,0.0058 q -0.0291,0.01746 -0.06985,0.0291 -0.03493,0.01164 -0.07567,0.02328 -0.04075,0.01746 -0.08731,0.02911 -0.04657,0.01164 -0.09895,0.02328 -0.104775,0.02328 -0.20955,0.04075 -0.104774,0.01746 -0.221191,0.0291 -0.104775,0.01746 -0.203729,0.0291 -0.09313,0.01746 -0.192087,0.02328 -0.09313,0.01164 -0.174625,0.01746 -0.08149,0.0058 -0.145521,0.0058 h -0.232833 q -0.01164,0 -0.0291,0 -0.01164,0 -0.02328,0 -0.01164,0 -0.0291,0 -0.01164,0 -0.02328,0 -0.494771,0 -0.884766,-0.133879 -0.389996,-0.13388 -0.681037,-0.4191 -0.285221,-0.2794 -0.430742,-0.651933 -0.145521,-0.378354 -0.145521,-0.849841 v -0.01164 z m 4.773079,-1.140883 q 0.03493,-0.250295 0.1397,-0.430741 0.104775,-0.186267 0.267758,-0.302683 0.168804,-0.116417 0.343429,-0.180446 0.174625,-0.06985 0.366713,-0.08731 0.01746,0 0.03493,0 0.01746,0 0.03493,0 0.01164,0 0.01746,0 0.01164,0 0.02328,-0.0058 0.0058,0 0.01746,0 0.01164,0 0.01746,0 l 0.232834,-0.0058 q 0.14552,0.0058 0.279399,0.0291 0.133879,0.02328 0.261938,0.06985 0.122237,0.04075 0.20955,0.104775 0.08731,0.05821 0.1397,0.128058 -0.03493,0.03492 -0.05821,0.07567 -0.02328,0.03492 -0.04075,0.08149 -0.01746,0.04657 -0.03493,0.110595 -0.01746,0.05821 -0.03492,0.128059 l -0.0058,0.02328 -0.0058,0.03492 h -0.232833 l -0.09313,-0.0058 q -0.0058,-0.01164 -0.01746,-0.0291 -0.0058,-0.02328 -0.01746,-0.04657 -0.01164,-0.0291 -0.0291,-0.05239 -0.01164,-0.0291 -0.0291,-0.05239 -0.04075,-0.05821 -0.104775,-0.110595 -0.05821,-0.05239 -0.1397,-0.09895 -0.05821,-0.03493 -0.122237,-0.05821 -0.06403,-0.02328 -0.1397,-0.0291 -0.09895,0.01164 -0.192088,0.06403 -0.08731,0.05239 -0.168804,0.133879 -0.104775,0.104775 -0.157162,0.227013 -0.04657,0.122237 -0.04657,0.256116 0,0.01164 0,0.0291 0,0.01164 0,0.02328 0,0.0058 0,0.01164 0,0.0058 0.0058,0.01164 0,0.0058 0,0.01164 0,0.0058 0,0.01164 0.01164,0.07567 0.04657,0.157163 0.04075,0.07567 0.09895,0.157162 0.06403,0.07567 0.151341,0.145521 0.09313,0.06403 0.221192,0.122237 l 0.646112,0.261938 q 0.174625,0.08149 0.302683,0.186266 0.128059,0.104775 0.203729,0.232833 0.08149,0.128059 0.116417,0.267759 0.04075,0.133879 0.04075,0.273579 0,0.01746 0,0.03493 0,0.01164 0,0.02328 0,0.0058 0,0.01164 0,0.0058 0,0.01164 -0.0058,0.01164 -0.0058,0.01746 0,0.0058 0,0.01164 -0.02328,0.232834 -0.133879,0.442383 -0.104775,0.20955 -0.296862,0.401638 -0.192088,0.192087 -0.430742,0.28522 -0.232833,0.09313 -0.523875,0.09313 h -0.232833 -0.0291 -0.02328 q -0.01164,0 -0.02328,0 -0.01164,0 -0.02328,0 -0.01164,-0.0058 -0.02328,-0.0058 -0.01164,0 -0.02328,0 -0.01164,0 -0.02328,0 -0.01164,0 -0.02328,-0.0058 -0.01746,0 -0.0291,-0.0058 -0.01164,0 -0.02328,0 -0.110595,-0.01746 -0.221191,-0.05239 -0.104775,-0.02911 -0.20955,-0.06985 -0.104775,-0.04657 -0.186267,-0.09313 -0.07567,-0.05239 -0.1397,-0.104775 l -0.01164,-0.01164 -0.0058,-0.01164 q 0.02328,-0.05239 0.04075,-0.104775 0.01746,-0.05239 0.02328,-0.09313 0.0058,-0.02328 0.0058,-0.04075 0.0058,-0.02328 0.0058,-0.04657 0.0058,-0.01746 0.0058,-0.03492 0.0058,-0.02328 0.0058,-0.04657 0,-0.01164 0,-0.01746 0,-0.01164 0.0058,-0.02328 0,-0.01164 0,-0.02328 0,-0.01164 0,-0.02328 0,-0.02328 0,-0.04657 0,-0.02328 0,-0.04657 l 0.09313,-0.01164 h 0.232833 q 0.151341,0.232834 0.2794,0.366713 0.133879,0.133879 0.244474,0.168804 0.08149,0.02328 0.151342,0.04075 0.06985,0.01746 0.128058,0.0291 0.151342,-0.01746 0.261938,-0.07567 0.116416,-0.05821 0.197908,-0.157162 0.09895,-0.122238 0.145521,-0.256117 0.05239,-0.133879 0.05821,-0.2794 0,-0.116416 -0.03493,-0.221191 -0.0291,-0.110596 -0.09313,-0.215371 -0.05821,-0.104775 -0.157163,-0.180446 -0.09313,-0.07567 -0.221191,-0.122237 l -0.599546,-0.285221 q -0.256116,-0.110596 -0.407458,-0.238654 -0.145521,-0.128058 -0.192087,-0.267758 -0.04075,-0.1397 -0.06403,-0.285221 -0.02328,-0.14552 -0.02328,-0.296862 v -0.01164 z m 3.306235,3.114144 v -4.080401 h 0.232833 q 0.01746,0.01164 0.04075,0.02328 0.02328,0.0058 0.04657,0.01164 0.0058,0 0.01164,0.0058 0.01164,0 0.01746,0 0.0058,0 0.01164,0 0.01164,0 0.01746,0 0,0 0,0 0.0058,0 0.01164,0 0.0058,0 0.0058,0 0.0058,0 0.0058,0 0.0291,-0.0058 0.05239,-0.01164 0.0291,-0.01164 0.04657,-0.01746 l 0.232833,-0.0058 v 1.693862 q 0.08149,0.02328 0.20955,0.03492 0.128058,0.01164 0.302683,0.02328 0.157163,0.0058 0.320146,0.01164 0.168804,0.0058 0.337608,0.0058 0.151342,0 0.291041,0 0.145521,-0.0058 0.285221,-0.01164 0.168804,-0.01164 0.296862,-0.02328 0.128059,-0.01164 0.20373,-0.0291 v -1.711324 h 0.232833 q 0.0058,0.01164 0.01164,0.01746 0.0058,0 0.01164,0 0,0.0058 0.0058,0.0058 0.0058,0 0.01164,0 0.01164,0.0058 0.02328,0.0058 0.01164,0 0.02328,0 0.0058,0 0.01164,0.0058 0.0058,0 0.01164,0 0.0058,0.0058 0.01164,0.0058 0.0058,0 0.01164,0 0.0058,0 0.0058,0 0.0058,0 0.01164,0 0.0291,-0.0058 0.05821,-0.01164 0.03493,-0.01164 0.05821,-0.01746 l 0.232833,-0.0058 v 4.074581 h -0.232833 q -0.02328,0 -0.05239,0 -0.02328,-0.0058 -0.05239,-0.01164 0,0 -0.0058,0 0,0 0,0 0,0 -0.0058,0 0,0 0,0 0,0 -0.0058,0 0,0 -0.0058,0 -0.03493,0.0058 -0.06985,0.01164 -0.03493,0 -0.06985,0 h -0.232833 v -2.014007 q -0.04075,0 -0.09895,0 -0.05239,-0.0058 -0.116416,-0.01164 -0.06403,0 -0.1397,0 -0.06985,-0.0058 -0.151342,-0.01164 -0.128058,-0.01164 -0.267758,-0.01164 -0.1397,-0.0058 -0.291041,-0.0058 -0.02911,0 -0.05821,0 -0.0291,0 -0.05239,0 -0.0291,0.0058 -0.05821,0.0058 -0.02328,0 -0.05239,0 -0.03493,0 -0.06985,0 -0.03493,0 -0.06985,0 -0.04075,0.0058 -0.07567,0.0058 -0.03493,0 -0.06985,0 -0.04075,0 -0.08731,0.0058 -0.04075,0 -0.08149,0 -0.04657,0.0058 -0.08731,0.01164 -0.04075,0 -0.08731,0 -0.08731,0.0058 -0.168804,0.01164 -0.08149,0 -0.162983,0.01164 v 2.002365 h -0.232833 q -0.03493,0 -0.06403,0 -0.02328,-0.0058 -0.05239,-0.01164 -0.03493,0.0058 -0.06985,0.01164 -0.03493,0 -0.08149,0 h -0.232833 v 0 z m 4.3598,0 1.833561,-4.080401 h 0.232833 0.133879 l 1.792816,4.080401 h -0.232833 q -0.01746,0 -0.04075,0 -0.01746,0 -0.04075,0 -0.02328,0 -0.04657,0 -0.01746,0 -0.04657,0 -0.01164,0 -0.0291,0 -0.01164,0 -0.02328,-0.0058 -0.01164,0 -0.0291,0 -0.01164,0 -0.02328,0 -0.01164,0.0058 -0.0291,0.0058 -0.01164,0 -0.02328,0 -0.01164,0 -0.02328,0 -0.01164,0 -0.01746,0 -0.01164,0 -0.02328,0 -0.0058,0 -0.01746,0 H 79.638252 L 78.99796,45.100501 h -1.187449 l -0.593725,1.606549 h -0.232833 q -0.01164,0 -0.0291,0 -0.01164,0 -0.02328,0 l -0.0291,-0.0058 q -0.0058,0.0058 -0.01746,0.0058 -0.01164,0 -0.01746,0 -0.01164,0 -0.02328,0 -0.0058,0 -0.01746,0 h -0.232833 q -0.01746,0 -0.03493,0 -0.01746,0 -0.03493,0 v 0 z m 1.426103,-1.880128 h 0.954616 l -0.477308,-1.140882 -0.477308,1.140882 z m 3.201454,1.880128 v -4.033835 h 0.232834 0.279399 l 2.561166,2.817282 v -2.817282 h 0.232833 q 0.01164,0.01746 0.0291,0.02328 0.01746,0.0058 0.03492,0.01164 0.02328,-0.0058 0.04075,-0.01164 0.01746,-0.0058 0.0291,-0.01164 l 0.232833,-0.0058 v 4.028014 h -0.232833 -0.227012 l -2.613553,-2.904594 v 2.904594 h -0.232833 q -0.0058,0 -0.01164,0 -0.0058,0 -0.01164,0 -0.01164,0 -0.01746,0 -0.0058,-0.0058 -0.01164,-0.0058 -0.01164,0 -0.02328,0 -0.0058,0 -0.01746,0.0058 -0.01164,0 -0.02328,0 -0.0058,0 -0.01746,0 h -0.232834 v 0 z"
         id="text8"
         aria-label="ZHONGSHAN" />
      <g
         id="g1"
         transform="translate(-1.362615,-2.6458334)">
        <path
           style="font-weight:500;font-size:5.82083px;line-height:1.25;font-family:'Noto Sans JP';-inkscape-font-specification:'Noto Sans JP Medium';fill:#ffffff;stroke-width:0.264583"
           d="m 52.036588,52.693931 h 4.738155 v 2.823102 h -0.570441 v -2.281765 h -3.620556 v 2.310869 h -0.547158 z m 0.285221,1.961619 h 4.20846 v 0.541337 h -4.20846 z m 1.781173,-2.986086 h 0.576263 v 5.39591 h -0.576263 z m 5.809189,0.1397 h 0.582083 v 4.522785 h -0.582083 z m -2.014007,1.26312 h 0.558799 v 3.929061 h -0.558799 z m 4.109505,-0.01164 h 0.570442 v 3.923239 h -0.570442 z m -3.835926,2.939519 h 4.086222 v 0.56462 h -4.086222 z"
           id="text9"
           aria-label="中山" />
        <path
           style="font-weight:500;font-size:5.82083px;line-height:1.25;font-family:'Noto Sans KR';-inkscape-font-specification:'Noto Sans KR Medium';fill:#ffffff;stroke-width:0.264583"
           d="m 72.764227,54.411076 h 0.611188 v 0.937153 h -0.611188 z m -2.095498,-0.203729 h 4.808005 v 0.488949 h -4.808005 z m 2.392361,0.960437 q 0.861483,0 1.344611,0.250295 0.48895,0.244475 0.48895,0.6985 0,0.454025 -0.48895,0.698499 -0.483128,0.244475 -1.344611,0.244475 -0.855662,0 -1.344612,-0.244475 -0.483129,-0.244474 -0.483129,-0.698499 0,-0.454025 0.483129,-0.6985 0.48895,-0.250295 1.344612,-0.250295 z m 0,0.471487 q -0.384175,0 -0.657754,0.05821 -0.273579,0.05239 -0.4191,0.157163 -0.1397,0.104774 -0.1397,0.261937 0,0.157162 0.1397,0.267758 0.145521,0.104775 0.4191,0.157162 0.273579,0.05239 0.657754,0.05239 0.395816,0 0.663574,-0.05239 0.273579,-0.05239 0.413279,-0.157162 0.1397,-0.110596 0.1397,-0.267758 0,-0.157163 -0.1397,-0.261937 -0.1397,-0.104775 -0.413279,-0.157163 -0.267758,-0.05821 -0.663574,-0.05821 z m -0.395817,-3.422648 h 0.541337 v 0.145521 q 0,0.250295 -0.09895,0.471487 -0.09895,0.215371 -0.28522,0.401637 -0.186267,0.180446 -0.442383,0.325967 -0.256117,0.14552 -0.576263,0.238654 -0.314324,0.09313 -0.681037,0.133879 l -0.21537,-0.477308 q 0.314324,-0.02911 0.582083,-0.09895 0.273579,-0.07567 0.488949,-0.180446 0.215371,-0.104775 0.366713,-0.232833 0.151341,-0.133879 0.232833,-0.2794 0.08731,-0.151342 0.08731,-0.302683 z m 0.273579,0 h 0.541337 v 0.145521 q 0,0.157162 0.08149,0.308504 0.08149,0.14552 0.232833,0.273579 0.151342,0.128058 0.366713,0.232833 0.221191,0.104775 0.488949,0.180446 0.273579,0.06985 0.587904,0.09895 l -0.215371,0.477308 q -0.366712,-0.04075 -0.686858,-0.133879 -0.314324,-0.09313 -0.576262,-0.232834 -0.256116,-0.14552 -0.442383,-0.325966 -0.180446,-0.186267 -0.2794,-0.407458 -0.09895,-0.227013 -0.09895,-0.471487 z M 71.105291,51.98379 h 3.934881 v 0.483129 h -3.934881 z m 6.175901,0.08731 h 0.500591 v 0.617008 q 0,0.523875 -0.174625,0.9779 -0.168804,0.448203 -0.500591,0.779991 -0.331787,0.331787 -0.803274,0.506412 l -0.331788,-0.477308 q 0.430742,-0.145521 0.721783,-0.413279 0.291042,-0.273579 0.436562,-0.62865 0.151342,-0.35507 0.151342,-0.745066 z m 0.116417,0 h 0.49477 v 0.634471 q 0,0.261937 0.08149,0.512233 0.08731,0.250295 0.244475,0.471487 0.162983,0.221191 0.395816,0.389995 0.238654,0.168804 0.547158,0.273579 l -0.308504,0.483129 q -0.465666,-0.168804 -0.791633,-0.483129 -0.325966,-0.314324 -0.49477,-0.739245 -0.168804,-0.430741 -0.168804,-0.908049 z m 2.171169,-0.325966 h 0.605366 v 3.911597 h -0.605366 z m 0.424921,1.594907 h 0.931332 v 0.506412 h -0.931332 z m -3.172353,3.125786 h 3.568169 v 0.49477 h -3.568169 z m 0,-1.181629 h 0.611188 v 1.437745 h -0.611188 z"
           id="text9-3"
           aria-label="중산" />
      </g>
    </g>
  </g>
</svg>
