<?xml version="1.0" encoding="UTF-8" standalone="no"?>
<!-- Created with Inkscape (http://www.inkscape.org/) -->

<svg
   width="500"
   height="250"
   viewBox="0 0 132.29166 66.145833"
   version="1.1"
   id="svg1"
   inkscape:version="1.3.2 (091e20e, 2023-11-25, custom)"
   sodipodi:docname="r11_2.svg"
   xmlns:inkscape="http://www.inkscape.org/namespaces/inkscape"
   xmlns:sodipodi="http://sodipodi.sourceforge.net/DTD/sodipodi-0.dtd"
   xmlns="http://www.w3.org/2000/svg"
   xmlns:svg="http://www.w3.org/2000/svg">
  <sodipodi:namedview
     id="namedview1"
     pagecolor="#9e652e"
     bordercolor="#ffffff"
     borderopacity="1"
     inkscape:showpageshadow="0"
     inkscape:pageopacity="0"
     inkscape:pagecheckerboard="false"
     inkscape:deskcolor="#d1d1d1"
     inkscape:document-units="mm"
     inkscape:zoom="2.0208096"
     inkscape:cx="305.81802"
     inkscape:cy="106.88785"
     inkscape:window-width="1920"
     inkscape:window-height="1009"
     inkscape:window-x="1912"
     inkscape:window-y="-8"
     inkscape:window-maximized="1"
     inkscape:current-layer="g4" />
  <defs
     id="defs1">
    <rect
       x="560.66638"
       y="34.144731"
       width="279.32397"
       height="128.59143"
       id="rect6" />
    <rect
       x="157.85752"
       y="62.351248"
       width="329.07603"
       height="135.09437"
       id="rect4" />
    <rect
       x="157.85751"
       y="62.35125"
       width="329.07602"
       height="135.09438"
       id="rect4-5" />
  </defs>
  <g
     inkscape:label="Layer 1"
     inkscape:groupmode="layer"
     id="layer1">
    <rect
       style="fill:#d0002b;fill-opacity:1;stroke:none;stroke-width:0.953294;stroke-dasharray:none"
       id="rect5"
       width="132.29167"
       height="66.145836"
       x="-2.5431316e-06"
       y="-1.2715658e-06"
       ry="0" />
    <text
       xml:space="preserve"
       transform="matrix(0.31615295,0,0,0.31615295,-10.474341,-6.4462013)"
       id="text6"
       style="font-size:55px;line-height:1.25;font-family:'Microsoft JhengHei';-inkscape-font-specification:'Microsoft JhengHei';white-space:pre;shape-inside:url(#rect6);display:inline" />
    <g
       id="g4"
       transform="translate(0.44279302,-9.5185482)">
      <g
         id="g6"
         transform="translate(-6.5076539)">
        <g
           id="g5"
           transform="translate(23.513546,9.5185469)">
          <path
             id="rect1"
             style="fill-opacity:0;stroke:#f9f9f9;stroke-width:0.942789"
             d="m 15.913089,14.352791 h 12.425164 c 3.927062,0 7.088559,3.161497 7.088559,7.088559 v 23.263136 c 0,3.927062 -3.161497,7.088559 -7.088559,7.088559 H 15.913089 c -3.927061,0 -7.0885584,-3.161497 -7.0885584,-7.088559 V 21.44135 c 0,-3.927062 3.1614974,-7.088559 7.0885584,-7.088559 z" />
          <path
             style="font-size:14.3709px;line-height:1.25;font-family:'AR UDJingXiHeiE1G30 EB';-inkscape-font-specification:'AR UDJingXiHeiE1G30 EB';fill:#f9f9f9;stroke-width:0.299395"
             d="m 24.479114,23.761527 q 0,-0.761658 -0.402385,-1.149672 -0.402385,-0.402385 -1.164043,-0.402385 h -3.118485 v 3.233452 h 3.017889 q 0.747287,0 1.207156,-0.445498 0.459868,-0.445498 0.459868,-1.235897 z m -4.684913,3.089743 v 4.325641 h -1.825104 v -10.39016 h 5.288491 q 1.422719,0 2.256231,0.761657 0.847883,0.747287 0.847883,2.126893 0,0.905367 -0.431127,1.552058 -0.416756,0.64669 -1.049075,0.919737 0.80477,0.459869 1.235897,1.59517 0.431127,1.135301 0.546094,3.434645 H 24.766532 Q 24.680307,28.7626 24.234809,27.814121 23.803682,26.85127 22.840832,26.85127 Z"
             id="text2"
             aria-label="R" />
          <path
             style="font-size:14.3917px;line-height:1.25;font-family:'AR UDJingXiHeiE1G30 EB';-inkscape-font-specification:'AR UDJingXiHeiE1G30 EB';fill:#f9f9f9;stroke-width:0.261667"
             d="m 17.218078,36.584172 -1.683829,1.568695 -0.834718,-1.280861 2.705639,-2.460981 h 1.568696 v 10.405199 h -1.755788 z m 8.563051,0 -1.683828,1.568695 -0.834719,-1.280861 2.705639,-2.460981 h 1.568696 v 10.405199 h -1.755788 z"
             id="text3"
             aria-label="11" />
          <path
             style="font-weight:500;font-size:72px;line-height:1.25;font-family:'Noto Sans TC';-inkscape-font-specification:'Noto Sans TC Medium';white-space:pre;fill:#f9f9f9"
             d="m 164.55342,87.345406 h 58.608 v 34.920004 h -7.056 V 94.041406 h -44.784 v 28.584004 h -6.768 z m 3.528,24.264004 h 52.056 v 6.696 h -52.056 z m 22.032,-36.936004 h 7.128 v 66.744004 h -7.128 z m 72.072,0.72 h 7.2 v 56.880004 h -7.2 z m 25.488,14.328 h 7.056 v 51.552004 h -7.056 z m -50.472,0.216 h 6.984 v 39.168004 h 46.944 v 6.912 h -53.928 z"
             id="text4"
             transform="matrix(0.26166763,0,0,0.26166763,-2.1314997,-4.0633201)"
             aria-label="中山" />
          <path
             style="font-size:7.32669px;line-height:1.25;font-family:'AR UDJingXiHeiE1G30 EB';-inkscape-font-specification:'AR UDJingXiHeiE1G30 EB';fill:#f9f9f9;stroke-width:0.261667"
             d="m 40.274721,35.589222 h 4.146906 v 0.666729 l -3.194436,3.905125 h 3.267703 v 0.725343 H 40.03294 V 40.21969 l 3.194437,-3.905126 h -2.952656 z m 6.007886,2.945329 v 2.351868 h -0.930489 v -5.297197 h 0.930489 v 2.219987 h 2.542362 v -2.219987 h 0.930489 v 5.297197 h -0.930489 v -2.351868 z m 9.781133,-0.271087 q 0,1.274844 -0.710689,2.000186 -0.703362,0.718016 -1.92692,0.718016 -1.245537,0 -1.948899,-0.725343 -0.703362,-0.725342 -0.703362,-1.992859 0,-1.289498 0.710689,-2.022167 0.710689,-0.739996 1.941572,-0.739996 1.245538,0 1.941573,0.732669 0.696036,0.732669 0.696036,2.029494 z m -2.637609,1.992859 q 0.79861,0 1.230884,-0.527521 0.439602,-0.527522 0.439602,-1.465338 0,-0.93049 -0.439602,-1.479992 -0.439601,-0.556828 -1.230884,-0.556828 -0.805935,0 -1.252864,0.564155 -0.439601,0.556828 -0.439601,1.472665 0,0.937816 0.446928,1.465338 0.446928,0.527521 1.245537,0.527521 z m 4.579183,-3.194437 v 3.824533 h -0.93049 v -5.297197 h 0.959797 l 2.600975,3.912452 v -3.912452 h 0.93049 v 5.297197 h -1.01841 z m 8.66747,3.179784 q -0.271088,0.380988 -0.681382,0.564155 -0.402968,0.175841 -0.923163,0.175841 -1.142964,0 -1.817019,-0.718016 -0.674056,-0.725342 -0.674056,-2.022166 0,-1.304151 0.710689,-2.022167 0.710689,-0.718016 1.919593,-0.718016 0.97445,0 1.582565,0.446929 0.615442,0.439601 0.739996,1.26019 h -0.93049 q -0.07327,-0.432274 -0.432275,-0.703362 -0.351681,-0.278414 -0.959796,-0.278414 -0.813263,0 -1.238211,0.527521 -0.424948,0.520195 -0.424948,1.487319 0,1.033063 0.446928,1.523951 0.446929,0.483562 1.216231,0.483562 0.674055,0 1.069697,-0.395642 0.395641,-0.395641 0.395641,-0.908509 v -0.109901 h -1.501971 v -0.725342 h 2.395827 v 2.776816 h -0.893856 z m 3.751261,-1.751079 q -0.967123,-0.175841 -1.436032,-0.542175 -0.468908,-0.366335 -0.468908,-1.025737 0,-0.615442 0.498215,-1.01841 0.505542,-0.402968 1.553258,-0.402968 0.959797,0 1.487319,0.410295 0.527521,0.410295 0.578808,1.186924 h -0.93049 q -0.0073,-0.373661 -0.293067,-0.622769 -0.285741,-0.249107 -0.871876,-0.249107 -0.549502,0 -0.813263,0.183167 -0.263761,0.183167 -0.256434,0.512868 0,0.359008 0.351681,0.534849 0.359008,0.17584 1.164944,0.337027 1.011083,0.205148 1.436031,0.556829 0.432275,0.351681 0.432275,1.055043 0,0.674056 -0.571482,1.128311 -0.571482,0.446928 -1.626525,0.446928 -1.077024,0 -1.677812,-0.454255 -0.600789,-0.454255 -0.600789,-1.311478 h 0.93049 q 0,0.476235 0.359008,0.761976 0.359007,0.278414 0.996429,0.278414 0.586136,0 0.915837,-0.227127 0.329701,-0.227127 0.329701,-0.593462 0,-0.424948 -0.329701,-0.608115 -0.329701,-0.183167 -1.157617,-0.337028 z m 4.234826,0.04396 v 2.351868 h -0.93049 v -5.297197 h 0.93049 v 2.219987 h 2.542361 v -2.219987 h 0.93049 v 5.297197 h -0.93049 v -2.351868 z m 7.509861,0.212474 -0.835242,-2.263947 -0.849896,2.263947 z m -1.956226,0.725343 -0.527522,1.414051 h -0.945143 l 2.132067,-5.297197 h 0.95247 l 2.117414,5.297197 H 82.974668 L 82.43982,39.472368 Z m 5.267883,-2.410482 v 3.824533 h -0.93049 v -5.297197 h 0.959797 l 2.600975,3.912452 v -3.912452 h 0.930489 v 5.297197 h -1.01841 z"
             id="text5"
             aria-label="ZHONGSHAN" />
          <path
             d="m 40.335729,44.699548 h 5.963925 v 3.553444 H 45.581639 V 45.38093 h -4.557201 v 2.908696 h -0.688709 z m 0.359007,2.469094 h 5.297197 v 0.681382 h -5.297197 z m 2.241968,-3.758592 h 0.725342 v 6.791842 h -0.725342 z m 7.312036,0.175841 h 0.73267 v 5.692838 h -0.73267 z m -2.535034,1.589892 h 0.703362 v 4.945515 h -0.703362 z m 5.172643,-0.01465 h 0.718016 v 4.938189 h -0.718016 z m -4.828289,3.699979 h 5.143337 v 0.710689 H 48.05806 Z"
             id="text5-9"
             style="font-weight:500;font-size:7.32669px;line-height:1.25;font-family:'Noto Sans JP';-inkscape-font-specification:'Noto Sans JP Medium';fill:#f9f9f9;stroke-width:0.261667"
             aria-label="中山" />
          <path
             style="font-weight:500;font-size:7.32669px;line-height:1.25;font-family:'Noto Sans KR';-inkscape-font-specification:'Noto Sans KR Medium';fill:#f9f9f9;stroke-width:0.261667"
             d="m 63.763683,46.94047 h 0.769303 v 1.179598 h -0.769303 z m -2.637608,-0.256434 h 6.051846 v 0.615442 h -6.051846 z m 3.01127,1.208904 q 1.08435,0 1.692465,0.315048 0.615442,0.307721 0.615442,0.879203 0,0.571482 -0.615442,0.879203 -0.608115,0.307721 -1.692465,0.307721 -1.077024,0 -1.692466,-0.307721 -0.608115,-0.307721 -0.608115,-0.879203 0,-0.571482 0.608115,-0.879203 0.615442,-0.315048 1.692466,-0.315048 z m 0,0.593462 q -0.483562,0 -0.827916,0.07327 -0.344355,0.06594 -0.527522,0.197821 -0.175841,0.13188 -0.175841,0.329701 0,0.19782 0.175841,0.337027 0.183167,0.131881 0.527522,0.197821 0.344354,0.06594 0.827916,0.06594 0.498215,0 0.835242,-0.06594 0.344355,-0.06594 0.520195,-0.197821 0.175841,-0.139207 0.175841,-0.337027 0,-0.197821 -0.175841,-0.329701 -0.17584,-0.131881 -0.520195,-0.197821 -0.337027,-0.07327 -0.835242,-0.07327 z M 63.63913,44.178308 h 0.681382 v 0.183168 q 0,0.315047 -0.124554,0.593461 -0.124554,0.271088 -0.359008,0.505542 -0.234454,0.227127 -0.556828,0.410295 -0.322374,0.183167 -0.725342,0.300394 -0.395642,0.117227 -0.857223,0.168514 l -0.271088,-0.600789 q 0.395642,-0.03663 0.732669,-0.124553 0.344355,-0.09525 0.615442,-0.227128 0.271088,-0.13188 0.461582,-0.293067 0.190494,-0.168514 0.293067,-0.351682 0.109901,-0.190494 0.109901,-0.380987 z m 0.344354,0 h 0.681382 v 0.183168 q 0,0.19782 0.102574,0.388314 0.102574,0.183167 0.293068,0.344355 0.190494,0.161187 0.461581,0.293067 0.278414,0.131881 0.615442,0.227128 0.344355,0.08792 0.739996,0.124553 l -0.271088,0.600789 Q 66.144858,46.288395 65.74189,46.171168 65.346249,46.053941 65.016547,45.8781 64.694173,45.694933 64.459719,45.467806 64.232592,45.233352 64.108038,44.954937 63.983484,44.669197 63.983484,44.361476 Z m -2.307907,-0.293067 h 4.952842 v 0.608115 h -4.952842 z m 7.773619,0.1099 h 0.630095 v 0.776629 q 0,0.659402 -0.219801,1.230884 -0.212474,0.564155 -0.630095,0.981777 -0.417621,0.417621 -1.011083,0.637422 l -0.417621,-0.600789 q 0.542175,-0.183167 0.908509,-0.520195 0.366335,-0.344354 0.549502,-0.791282 0.190494,-0.446929 0.190494,-0.937817 z m 0.146534,0 h 0.622768 v 0.798609 q 0,0.329701 0.102574,0.644749 0.1099,0.315048 0.307721,0.593462 0.205147,0.278414 0.498215,0.490888 0.300394,0.212474 0.688709,0.344355 l -0.388315,0.608115 Q 70.841267,47.262845 70.430972,46.867204 70.020678,46.471562 69.808204,45.936714 69.59573,45.394539 69.59573,44.79375 Z m 2.732855,-0.410295 h 0.761976 v 4.923536 h -0.761976 z m 0.534848,2.007513 h 1.172271 v 0.637423 h -1.172271 z m -3.993046,3.934433 h 4.491261 v 0.622769 h -4.491261 z m 0,-1.487318 h 0.769303 v 1.809692 h -0.769303 z"
             id="text5-9-8"
             aria-label="중산" />
        </g>
      </g>
    </g>
  </g>
</svg>
