<?xml version="1.0" encoding="UTF-8" standalone="no"?>
<!-- Created with Inkscape (http://www.inkscape.org/) -->

<svg
   width="500"
   height="250"
   viewBox="0 0 132.29166 66.145833"
   version="1.1"
   id="svg1"
   inkscape:version="1.3.2 (091e20e, 2023-11-25, custom)"
   sodipodi:docname="r12.svg"
   xmlns:inkscape="http://www.inkscape.org/namespaces/inkscape"
   xmlns:sodipodi="http://sodipodi.sourceforge.net/DTD/sodipodi-0.dtd"
   xmlns="http://www.w3.org/2000/svg"
   xmlns:svg="http://www.w3.org/2000/svg">
  <sodipodi:namedview
     id="namedview1"
     pagecolor="#9e652e"
     bordercolor="#ffffff"
     borderopacity="1"
     inkscape:showpageshadow="0"
     inkscape:pageopacity="0"
     inkscape:pagecheckerboard="false"
     inkscape:deskcolor="#d1d1d1"
     inkscape:document-units="mm"
     inkscape:zoom="2.0208096"
     inkscape:cx="275.6321"
     inkscape:cy="128.6613"
     inkscape:window-width="1920"
     inkscape:window-height="1009"
     inkscape:window-x="1912"
     inkscape:window-y="-8"
     inkscape:window-maximized="1"
     inkscape:current-layer="g2" />
  <defs
     id="defs1">
    <rect
       x="560.66638"
       y="34.144731"
       width="279.32397"
       height="128.59143"
       id="rect6" />
    <rect
       x="157.85752"
       y="62.351248"
       width="541.85369"
       height="99.322566"
       id="rect4" />
    <rect
       x="157.85751"
       y="62.35125"
       width="329.07602"
       height="135.09438"
       id="rect4-5" />
    <rect
       x="157.85751"
       y="62.35125"
       width="470.56151"
       height="119.92888"
       id="rect4-5-3" />
  </defs>
  <g
     inkscape:label="Layer 1"
     inkscape:groupmode="layer"
     id="layer1">
    <path
       id="rect5"
       style="fill:#d0002b;stroke-width:0.953294"
       d="M -2.5431316e-6,-1.2715658e-6 H 132.29167 V 66.145835 H -2.5431316e-6 Z" />
    <g
       id="g1"
       transform="matrix(0.86008697,0,0,0.86008697,8.8833251,4.6273308)"
       style="fill:#000000">
      <g
         id="g2"
         transform="translate(-4.1631059)">
        <g
           id="g3"
           transform="matrix(1.090573,0,0,1.090573,-9.8540818,-2.9955135)">
          <path
             id="rect1"
             style="fill-opacity:0;stroke:#ffffff;stroke-width:0.942789"
             d="m 15.91309,14.352791 h 12.425164 c 3.927062,0 7.088559,3.161497 7.088559,7.088559 v 23.263136 c 0,3.927062 -3.161497,7.088559 -7.088559,7.088559 H 15.91309 c -3.927061,0 -7.0885584,-3.161497 -7.0885584,-7.088559 V 21.44135 c 0,-3.927062 3.1614974,-7.088559 7.0885584,-7.088559 z" />
          <path
             style="font-size:14.2913px;line-height:1.25;font-family:'AR UDJingXiHeiE1G30 EB';-inkscape-font-specification:'AR UDJingXiHeiE1G30 EB';fill:#ffffff;stroke-width:0.297736"
             d="m 24.276514,23.642888 q 0,-0.757439 -0.400157,-1.143304 -0.400156,-0.400156 -1.157595,-0.400156 H 19.61755 v 3.215542 h 3.001173 q 0.743147,0 1.200469,-0.44303 0.457322,-0.44303 0.457322,-1.229052 z m -4.658964,3.07263 v 4.301681 h -1.814995 v -10.33261 h 5.259198 q 1.414839,0 2.243734,0.757439 0.843187,0.743148 0.843187,2.115113 0,0.900351 -0.428739,1.54346 -0.414448,0.643108 -1.043265,0.914643 0.800313,0.457322 1.229052,1.586334 0.428739,1.129013 0.543069,3.415621 H 24.56234 q -0.08575,-2.400938 -0.528779,-3.344164 -0.428739,-0.957517 -1.386256,-0.957517 z"
             id="text2"
             aria-label="R" />
          <path
             style="font-size:14.3917px;line-height:1.25;font-family:'AR UDJingXiHeiE1G30 EB';-inkscape-font-specification:'AR UDJingXiHeiE1G30 EB';fill:#ffffff;stroke-width:0.261667"
             d="m 17.21808,36.584172 -1.683829,1.568695 -0.834718,-1.280861 2.705639,-2.460981 h 1.568695 V 44.816224 H 17.21808 Z m 5.771062,1.122553 q 0,-1.611871 0.978635,-2.53294 0.978636,-0.93546 2.561723,-0.93546 1.626262,0 2.532939,0.820327 0.921069,0.805935 0.921069,2.245105 0,1.021811 -0.662019,2.058013 -0.647626,1.021811 -2.043621,2.259497 l -1.957271,1.770179 h 4.634127 v 1.424778 H 22.945966 V 43.50658 l 2.907124,-2.61929 q 1.280861,-1.165727 1.784571,-1.986054 0.518101,-0.834719 0.518101,-1.597479 0,-0.719585 -0.41736,-1.165728 -0.417359,-0.446142 -1.208902,-0.446142 -0.791544,0 -1.280862,0.546884 -0.489317,0.546885 -0.489317,1.467954 z"
             id="text3"
             aria-label="12" />
          <path
             style="font-weight:500;font-size:72px;line-height:1.25;font-family:'Noto Sans TC';-inkscape-font-specification:'Noto Sans TC Medium';white-space:pre;fill:#ffffff"
             d="m 179.38542,84.825406 h 5.616 v 23.688004 h -5.616 z m -9.36,5.76 h 21.6 v 4.248 h -21.6 z m 0,7.776 h 21.6 v 4.248004 h -21.6 z m -3.312,7.920004 h 27.144 v 4.464 h -27.144 z m 3.888,-31.536004 5.4,1.44 q -2.088,5.832 -5.328,11.376 -3.24,5.544 -7.056,9.288 -0.36,-0.648 -1.008,-1.512 -0.648,-0.936 -1.368,-1.8 -0.648,-0.936 -1.152,-1.512 3.312,-3.168 6.048,-7.704 2.808,-4.608 4.464,-9.576 z m 39.456,9.648 h 5.616 v 24.408004 h -5.616 z m -9,6.192 h 22.392 v 4.248 h -22.392 z m 0,7.848 h 22.392 v 4.176004 h -22.392 z m -3.312,7.848004 h 28.368 v 4.464 h -28.368 z m 3.672,-31.536004 5.472,1.512 q -2.16,5.904 -5.472,11.52 -3.312,5.616 -7.056,9.504 -0.36,-0.576 -1.08,-1.44 -0.648,-0.936 -1.44,-1.8 -0.72,-0.864 -1.296,-1.44 3.456,-3.24 6.264,-7.992 2.88,-4.752 4.608,-9.864 z m -29.952,7.848 h 21.672 v 4.464 h -25.776 z m -4.752,5.544 5.832,-4.104 v 24.552004 h -5.832 z m 35.352,-5.544 h 23.04 v 4.464 h -27.144 z m -4.32,5.544 5.76,-4.392 v 24.912004 h -5.76 z m -32.616,26.280004 h 48.816 v 5.616 h -48.816 z m 46.512,0 h 1.512 l 1.224,-0.288 4.608,2.808 q -3.816,5.904 -9.72,10.224 -5.832,4.248 -13.248,7.128 -7.344,2.88 -15.552,4.608 -8.208,1.8 -16.632,2.664 -0.36,-1.368 -1.152,-3.168 -0.792,-1.8 -1.656,-3.024 7.92,-0.576 15.624,-2.016 7.704,-1.44 14.544,-3.816 6.84,-2.448 12.096,-5.904 5.328,-3.528 8.352,-8.28 z m -32.256,3.672 q 4.32,4.68 11.448,8.064 7.128,3.384 16.2,5.472 9.144,2.016 19.296,2.88 -0.792,0.792 -1.584,1.944 -0.792,1.152 -1.512,2.376 -0.72,1.224 -1.152,2.16 -7.776,-0.792 -14.904,-2.448 -7.128,-1.584 -13.392,-4.032 -6.264,-2.448 -11.448,-5.832 -5.184,-3.384 -9.072,-7.704 z m 29.304,-41.328004 5.544,-1.512 q 1.152,1.944 2.232,4.32 1.08,2.304 1.584,4.032 l -5.76,1.8 q -0.504,-1.728 -1.584,-4.104 -1.008,-2.448 -2.016,-4.536 z m -30.888,-0.288 5.544,-1.512 q 1.152,1.944 2.232,4.32 1.08,2.376 1.584,4.032 l -5.832,1.8 q -0.504,-1.728 -1.512,-4.104 -1.008,-2.448 -2.016,-4.536 z m 74.088,4.104 h 45.288 v 5.616 h -45.288 z m 0,38.520004 h 46.224 v 5.616 h -46.224 z m 18.864,-44.424004 h 6.624 v 57.744004 h -6.624 z m -9.504,30.096004 v 4.896 h 25.848 v -4.896 z m 0,-9.288004 v 4.752004 h 25.848 v -4.752004 z m -6.192,-4.896 h 38.664 v 23.976004 h -38.664 z m -19.728,-12.888 5.184,-3.024 q 2.376,2.592 4.824,5.76 2.52,3.096 3.888,5.328 l -5.328,3.6 q -0.864,-1.584 -2.304,-3.6 -1.44,-2.016 -3.096,-4.104 -1.656,-2.16 -3.168,-3.96 z m -2.304,13.68 h 15.192 v 5.544 h -15.192 z m 13.68,32.256004 q 2.088,4.752 5.76,7.056 3.672,2.304 9,3.024 5.328,0.72 12.24,0.72 3.816,0 8.496,-0.144 4.68,-0.144 9.36,-0.36 4.752,-0.216 8.64,-0.576 -0.504,0.72 -0.936,1.872 -0.432,1.08 -0.792,2.304 -0.288,1.224 -0.504,2.16 -3.528,0.216 -7.632,0.36 -4.104,0.144 -8.424,0.216 -4.248,0.072 -8.352,0.072 -6.336,0 -11.304,-0.576 -4.896,-0.504 -8.712,-2.088 -3.744,-1.512 -6.624,-4.392 -2.808,-2.952 -4.752,-7.704 z m -1.224,-14.544 h 1.944 l 1.152,-0.144 2.952,1.224 q -1.656,11.52 -5.616,19.44 -3.96,7.848 -9.648,12.024 -0.432,-0.648 -1.296,-1.584 -0.792,-0.864 -1.656,-1.728 -0.864,-0.864 -1.584,-1.296 5.328,-3.672 8.856,-10.44 3.528,-6.768 4.896,-16.344 z m -11.232,6.48 v -5.04 l 2.808,-1.44 h 11.088 l -0.072,5.4 h -9.504 q -1.296,0 -2.592,0.36 -1.296,0.288 -1.728,0.72 z m 0,-0.072 q -0.144,-0.792 -0.648,-1.872 -0.432,-1.152 -0.864,-2.232 -0.432,-1.08 -0.792,-1.728 0.864,-0.216 1.728,-0.648 0.864,-0.504 1.8,-1.512 0.864,-0.792 2.304,-2.736 1.44,-1.944 3.096,-4.392 1.728,-2.448004 3.24,-4.680004 1.512,-2.304 2.376,-3.744 v -0.216 l 1.872,-0.792 4.32,1.944 q -1.224,1.8 -2.952,4.32 -1.728,2.448 -3.6,5.112004 -1.872,2.664 -3.744,5.112 -1.8,2.376 -3.312,4.104 0,0 -0.72,0.432 -0.72,0.36 -1.728,1.008 -0.936,0.576 -1.656,1.296 -0.72,0.648 -0.72,1.224 z"
             id="text4"
             transform="matrix(0.26166763,0,0,0.26166763,-2.1314997,-4.0633201)"
             aria-label="雙連" />
          <path
             style="font-size:7.32669px;line-height:1.25;font-family:'AR UDJingXiHeiE1G30 EB';-inkscape-font-specification:'AR UDJingXiHeiE1G30 EB';fill:#ffffff;stroke-width:0.261667"
             d="m 42.150353,38.490591 q -0.967123,-0.175841 -1.436031,-0.542175 -0.468908,-0.366335 -0.468908,-1.025737 0,-0.615442 0.498215,-1.01841 0.505542,-0.402968 1.553258,-0.402968 0.959797,0 1.487318,0.410295 0.527522,0.410295 0.578809,1.186924 h -0.93049 q -0.0073,-0.373661 -0.293067,-0.622769 -0.285741,-0.249107 -0.871876,-0.249107 -0.549502,0 -0.813263,0.183167 -0.263761,0.183167 -0.256434,0.512868 0,0.359008 0.351681,0.534849 0.359008,0.17584 1.164944,0.337027 1.011083,0.205148 1.436031,0.556829 0.432275,0.351681 0.432275,1.055043 0,0.674056 -0.571482,1.128311 -0.571482,0.446928 -1.626525,0.446928 -1.077024,0 -1.677812,-0.454255 -0.600789,-0.454255 -0.600789,-1.311478 h 0.93049 q 0,0.476235 0.359007,0.761976 0.359008,0.278414 0.99643,0.278414 0.586135,0 0.915837,-0.227127 0.329701,-0.227127 0.329701,-0.593462 0,-0.424948 -0.329701,-0.608115 -0.329702,-0.183167 -1.157618,-0.337028 z m 4.234827,0.04396 v 2.351868 h -0.930489 v -5.297197 h 0.930489 v 2.219987 h 2.542362 v -2.219987 h 0.930489 v 5.297197 h -0.930489 v -2.351868 z m 9.129058,0.498215 q 0,0.923163 -0.578809,1.436031 -0.578808,0.512869 -1.648505,0.512869 -1.08435,0 -1.670485,-0.505542 -0.578809,-0.505542 -0.578809,-1.436031 v -3.450871 h 0.93049 v 3.406911 q 0,0.600788 0.329701,0.930489 0.329701,0.329701 0.989103,0.329701 0.622769,0 0.95247,-0.315047 0.337028,-0.322375 0.337028,-0.959797 v -3.392257 h 0.937816 z m 4.000373,-0.285741 -0.835243,-2.263947 -0.849896,2.263947 z m -1.956226,0.725343 -0.527522,1.414051 H 56.08572 l 2.132067,-5.297197 h 0.95247 l 2.117413,5.297197 h -0.967123 l -0.534848,-1.414051 z m 5.267884,-2.410482 v 3.824533 H 61.89578 v -5.297197 h 0.959796 l 2.600975,3.912452 v -3.912452 h 0.93049 v 5.297197 h -1.01841 z m 8.66747,3.179784 q -0.271087,0.380988 -0.681382,0.564155 -0.402968,0.175841 -0.923163,0.175841 -1.142964,0 -1.817019,-0.718016 -0.674056,-0.725342 -0.674056,-2.022166 0,-1.304151 0.710689,-2.022167 0.710689,-0.718016 1.919593,-0.718016 0.97445,0 1.582565,0.446929 0.615442,0.439601 0.739996,1.26019 h -0.93049 q -0.07327,-0.432274 -0.432274,-0.703362 -0.351681,-0.278414 -0.959797,-0.278414 -0.813262,0 -1.23821,0.527521 -0.424948,0.520195 -0.424948,1.487319 0,1.033063 0.446928,1.523951 0.446928,0.483562 1.21623,0.483562 0.674056,0 1.069697,-0.395642 0.395641,-0.395641 0.395641,-0.908509 v -0.109901 h -1.501971 v -0.725342 h 2.395828 v 2.776816 h -0.893857 z m 5.714814,0.644749 h -3.721959 v -5.297197 h 0.93049 v 4.571854 h 2.791469 z m 1.699799,-5.297197 v 5.297197 h -0.93049 v -5.297197 z m 4.036999,3.157803 -0.835242,-2.263947 -0.849896,2.263947 z m -1.956226,0.725343 -0.527522,1.414051 H 79.51646 l 2.132067,-5.297197 h 0.95247 l 2.117413,5.297197 h -0.967123 l -0.534848,-1.414051 z m 5.267887,-2.410482 v 3.824533 h -0.93049 v -5.297197 h 0.959796 l 2.600975,3.912452 v -3.912452 h 0.93049 v 5.297197 h -1.01841 z"
             id="text5"
             aria-label="SHUANGLIAN" />
          <path
             d="m 43.259078,43.966879 h 2.718202 v 0.659402 h -2.718202 z m 2.483748,0 h 0.124554 l 0.117227,-0.02931 0.454255,0.124554 q -0.175841,1.611871 -0.630096,2.806122 -0.454255,1.19425 -1.15029,2.01484 -0.696036,0.813262 -1.619199,1.311477 -0.04396,-0.08792 -0.124553,-0.205147 -0.07327,-0.1099 -0.161188,-0.219801 -0.08792,-0.102573 -0.168513,-0.168514 0.842569,-0.410294 1.494644,-1.157617 0.652076,-0.754649 1.077024,-1.838999 0.432275,-1.091677 0.586135,-2.491075 z m -1.721772,0.586135 q 0.17584,1.157617 0.498215,2.154047 0.322374,0.99643 0.857223,1.751079 0.534848,0.747322 1.333457,1.17227 -0.08059,0.06594 -0.17584,0.168514 -0.09525,0.1099 -0.183168,0.212474 -0.08059,0.1099 -0.139207,0.212474 -0.842569,-0.505542 -1.399398,-1.318804 -0.556828,-0.813263 -0.893856,-1.890286 -0.337028,-1.077024 -0.542175,-2.366521 z m -3.919779,-0.586135 h 2.454441 v 0.659402 h -2.454441 z m 2.205333,0 h 0.117227 l 0.124554,-0.02931 0.446928,0.124554 q -0.146534,1.487318 -0.498215,2.666915 -0.344354,1.17227 -0.886529,2.03682 -0.534849,0.864549 -1.245538,1.443358 -0.05129,-0.08792 -0.139207,-0.197821 -0.08792,-0.102574 -0.183167,-0.205147 -0.08792,-0.09525 -0.175841,-0.153861 0.483562,-0.351681 0.88653,-0.893856 0.402968,-0.549502 0.718016,-1.260191 0.315047,-0.718015 0.527521,-1.560585 0.212474,-0.849896 0.307721,-1.809692 z m -2.198007,1.736425 0.520195,-0.402968 q 0.344355,0.395642 0.710689,0.849896 0.366335,0.454255 0.710689,0.915837 0.344355,0.461581 0.622769,0.893856 0.285741,0.432275 0.454255,0.791282 l -0.578809,0.483562 Q 42.379875,48.875761 42.108788,48.43616 41.845027,47.996558 41.515326,47.520323 41.185625,47.044089 40.81929,46.57518 40.460282,46.106272 40.108601,45.703304 Z m 8.740742,0.578809 v 2.644935 h -0.666729 v -2.000187 h -0.88653 v -0.644748 z m 0,2.366521 q 0.234454,0.388314 0.666728,0.571482 0.439602,0.183167 1.055044,0.212474 0.315048,0.0073 0.761976,0.01465 0.454254,0 0.945143,0 0.498215,-0.0073 0.967123,-0.02198 0.468908,-0.02198 0.820589,-0.04396 -0.03663,0.07327 -0.08059,0.19782 -0.04396,0.117227 -0.08059,0.241781 -0.03663,0.131881 -0.05861,0.234454 -0.322374,0.01465 -0.754649,0.02198 -0.424948,0.01465 -0.886529,0.01465 -0.461582,0.0073 -0.893856,0 -0.424948,-0.0073 -0.747323,-0.01465 -0.696035,-0.02931 -1.186924,-0.227127 -0.483561,-0.190494 -0.820589,-0.622769 -0.234454,0.227128 -0.483561,0.454255 -0.241781,0.227127 -0.520196,0.468908 l -0.337027,-0.688709 q 0.234454,-0.168514 0.505541,-0.380988 0.271088,-0.212474 0.520195,-0.432274 z m -1.501972,-4.667102 0.527522,-0.388315 q 0.219801,0.168514 0.446928,0.380988 0.234454,0.205148 0.424948,0.417622 0.190494,0.205147 0.307721,0.388314 l -0.571482,0.432275 q -0.102574,-0.183167 -0.293067,-0.395641 -0.183168,-0.219801 -0.410295,-0.439602 -0.219801,-0.2198 -0.432275,-0.395641 z m 1.875633,0.02931 h 4.608488 v 0.571482 h -4.608488 z m -0.102574,3.853839 h 4.813636 V 48.43616 H 49.12043 Z m 2.022167,-4.454628 h 0.674055 v 5.795412 h -0.674055 z m -0.967123,3.03325 v 0.490888 h 2.630281 V 46.4433 Z m 0,-0.95247 v 0.483562 h 2.630281 V 45.49083 Z m -0.630096,-0.498215 h 3.934433 v 2.439788 h -3.934433 z"
             id="text5-9"
             style="font-weight:500;font-size:7.32669px;line-height:1.25;font-family:'Noto Sans JP';-inkscape-font-specification:'Noto Sans JP Medium';fill:#ffffff;stroke-width:0.261667"
             aria-label="双連" />
          <path
             style="font-weight:500;font-size:72px;line-height:1.25;font-family:'Noto Sans TC';-inkscape-font-specification:'Noto Sans TC Medium';white-space:pre;fill:#f9f9f9"
             d="m 173.12142,101.16941 h 45 v 5.4 h -45 z m 0,-11.376004 h 45 v 5.472 h -45 z m -3.672,22.752004 h 50.544 v 5.976 h -50.544 z m 49.176,0 h 6.912 q 0,0 -0.072,1.08 0,1.008 -0.072,1.728 -0.504,7.56 -1.08,12.384 -0.504,4.824 -1.224,7.488 -0.648,2.592 -1.728,3.744 -1.008,1.152 -2.232,1.656 -1.224,0.504 -2.808,0.72 -1.44,0.144 -3.888,0.144 -2.448,0.072 -5.112,-0.144 -0.072,-1.368 -0.576,-3.168 -0.504,-1.728 -1.296,-3.096 2.448,0.216 4.536,0.288 2.088,0.072 3.024,0.072 1.008,0 1.512,-0.144 0.504,-0.144 1.008,-0.648 0.72,-0.72 1.224,-2.952 0.576,-2.232 1.008,-6.624 0.504,-4.392 0.864,-11.52 z m -27.864,10.944 5.328,-1.224 q 1.44,3.024 2.736,6.696 1.296,3.672 1.728,6.192 l -5.688,1.512 q -0.36,-2.592 -1.512,-6.264 -1.152,-3.744 -2.592,-6.912 z m 11.592,-1.08 4.968,-1.872 q 1.8,2.304 3.456,5.112 1.728,2.736 2.448,4.752 l -5.184,2.16 q -0.792,-2.088 -2.376,-4.968 -1.584,-2.88 -3.312,-5.184 z m -23.976,1.44 5.76,-0.936 q 1.008,3.528 1.728,7.56 0.792,4.032 0.864,7.056 l -6.12,1.008 q 0,-2.016 -0.36,-4.536 -0.288,-2.52 -0.792,-5.112 -0.504,-2.664 -1.08,-5.04 z m -10.368,-2.808 5.976,1.584 q -0.648,3.456 -1.728,6.912 -1.008,3.384 -2.664,6.264 -1.584,2.952 -4.032,5.112 l -5.544,-3.456 q 3.312,-2.88 5.256,-7.272 1.944,-4.392 2.736,-9.144 z m 23.328,-39.960004 h 6.768 v 33.840004 h -6.768 z m -21.888,-3.168 h 51.192 v 5.904 h -44.496 v 31.608004 h -6.696 z m 78.552,-2.952 6.48,1.944 q -2.376,6.12 -5.544,12.168 -3.168,6.048 -6.84,11.376004 -3.672,5.328 -7.56,9.432 -0.36,-0.864 -1.008,-2.16 -0.648,-1.296 -1.44,-2.664 -0.72,-1.368 -1.296,-2.088 3.456,-3.456004 6.624,-7.920004 3.24,-4.464 5.976,-9.648 2.736,-5.184 4.608,-10.44 z m -7.2,19.08 6.408,-6.408 0.072,0.072 v 53.712004 h -6.48 z m 19.584,-10.296 h 13.824 v 5.76 h -13.824 z m 16.488,-8.784 h 6.552 v 23.256 q 0,1.584 0.432,2.016004 0.432,0.432 1.872,0.432 0.36,0 1.224,0 0.864,0 1.872,0 1.008,0 1.872,0 0.936,0 1.368,0 0.936,0 1.368,-0.504 0.504,-0.576004 0.648,-2.088004 0.216,-1.584 0.288,-4.68 1.008,0.792 2.736,1.512 1.728,0.648 3.024,0.936 -0.288,4.176004 -1.08,6.480004 -0.792,2.304 -2.304,3.24 -1.44,0.864 -3.96,0.864 -0.504,0 -1.656,0 -1.08,0 -2.448,0 -1.296,0 -2.448,0 -1.08,0 -1.512,0 -3.168,0 -4.896,-0.72 -1.656,-0.72 -2.304,-2.52 -0.648,-1.8 -0.648,-4.968004 z m -5.184,29.376004 7.416,1.512 q -1.296,2.592 -2.736,5.112 -1.368,2.52 -2.52,4.248 l -5.256,-1.512 q 0.936,-2.016 1.8,-4.68 0.864,-2.664 1.296,-4.68 z m -14.04,6.768 h 37.512 v 30.096 h -6.84 v -24.624 h -24.12 v 24.912 h -6.552 z m 3.528,11.232 h 30.96 v 5.112 h -30.96 z m 0,11.16 h 30.816 v 5.4 h -30.816 z m -5.328,-25.632 -0.432,-5.256 2.808,-2.16 15.984,-3.312004 q 0.144,1.224 0.432,2.808 0.288,1.584004 0.576,2.520004 -5.832,1.368 -9.36,2.304 -3.528,0.864 -5.544,1.44 -1.944,0.504 -2.88,0.936 -0.936,0.36 -1.584,0.72 z m 0,0 q -0.072,-0.864 -0.432,-2.016 -0.36,-1.224 -0.792,-2.376 -0.36,-1.224 -0.864,-1.944 0.936,-0.216 1.656,-0.864 0.792,-0.720004 0.792,-2.520004 v -23.04 h 6.624 v 28.512004 q 0,0 -0.72,0.288 -0.72,0.216 -1.728,0.648 -1.008,0.36 -2.088,0.936 -1.008,0.576 -1.728,1.224 -0.72,0.576 -0.72,1.152 z m 23.976,-24.120004 h 18.216 v 5.76 h -18.216 z m 55.656,-5.4 h 31.536 v 33.552004 h -6.912 V 85.329406 h -24.624 z m 4.968,23.112004 h 22.968 v 6.696 h -22.968 z m -3.456,0 h 7.128 v 29.088 q 0,2.16 0.72,2.808 0.792,0.648 3.528,0.648 0.504,0 1.656,0 1.224,0 2.664,0 1.512,0 3.096,0 1.584,0 2.808,0 1.296,0 1.944,0 1.728,0 2.52,-0.792 0.864,-0.864 1.224,-3.312 0.36,-2.448 0.576,-7.128 0.792,0.576 1.944,1.152 1.152,0.576 2.304,1.08 1.224,0.432 2.232,0.648 -0.36,5.688 -1.368,8.928 -1.008,3.168 -3.096,4.464 -2.088,1.296 -5.832,1.296 -0.576,0 -1.944,0 -1.296,0 -3.096,0 -1.728,0 -3.528,0 -1.728,0 -3.096,0 -1.296,0 -1.8,0 -4.032,0 -6.336,-0.864 -2.304,-0.792 -3.312,-2.952 -0.936,-2.088 -0.936,-5.976 z m -13.392,2.016 5.112,-1.872 q 1.152,2.304 2.232,4.968 1.08,2.664 1.944,5.184 0.864,2.448 1.296,4.32 l -5.472,2.304 q -0.432,-1.872 -1.224,-4.464 -0.792,-2.592 -1.8,-5.328 -1.008,-2.736 -2.088,-5.112 z m -7.128,18.72 5.544,-1.296 q 0.72,3.888 1.296,8.424 0.576,4.464 0.792,7.776 l -5.832,1.368 q 0,-2.232 -0.288,-5.04 -0.288,-2.808 -0.72,-5.688 -0.36,-2.952 -0.792,-5.544 z m -8.352,-0.648 5.832,0.936 q -0.576,4.752 -1.656,9.576 -1.008,4.752 -2.232,8.064 -0.648,-0.36 -1.656,-0.72 -1.008,-0.36 -2.088,-0.72 -1.08,-0.36 -1.8,-0.576 1.368,-3.24 2.232,-7.704 0.864,-4.464 1.368,-8.856 z m -1.368,-19.224 q -0.144,-0.648 -0.576,-1.728 -0.36,-1.152004 -0.792,-2.304004 -0.36,-1.224 -0.72,-2.016 1.008,-0.216 2.016,-1.224 1.008,-1.08 2.16,-2.736 0.576,-0.792 1.728,-2.592 1.152,-1.8 2.592,-4.32 1.44,-2.52 2.808,-5.328 1.44,-2.88 2.592,-5.832 l 6.192,2.592 q -2.88,5.976 -6.624,11.88 -3.672,5.832 -7.416,10.152 v 0.144 q 0,0 -0.576,0.36 -0.576,0.36 -1.44,0.864004 -0.792,0.504 -1.368,1.08 -0.576,0.504 -0.576,1.008 z m 0,0 -0.216,-4.968004 3.024,-1.944 13.032,-1.008 q -0.288,1.296 -0.504,2.952 -0.144,1.584 -0.144,2.592 -4.392,0.432004 -7.2,0.792004 -2.736,0.36 -4.32,0.648 -1.584,0.216 -2.448,0.504 -0.792,0.216 -1.224,0.432 z m 0.504,16.488 q -0.144,-0.648 -0.576,-1.8 -0.36,-1.224 -0.792,-2.448 -0.432,-1.224 -0.864,-2.088 1.368,-0.216 2.664,-1.512 1.368,-1.296 3.168,-3.24 0.936,-0.936 2.736,-3.168 1.8,-2.304 3.96,-5.400004 2.232,-3.168 4.464,-6.768 2.304,-3.672 4.104,-7.344 l 5.832,3.6 q -2.808,4.896 -6.264,9.72 -3.384,4.752004 -7.056,9.072004 -3.6,4.32 -7.272,7.848 v 0.216 q 0,0 -0.648,0.36 -0.576,0.288 -1.44,0.792 -0.792,0.504 -1.44,1.08 -0.576,0.576 -0.576,1.08 z m 0,0 -0.36,-5.184 3.096,-2.088 19.512,-2.664 q -0.144,1.296 -0.288,2.952 -0.072,1.656 0,2.664 -6.624,1.08 -10.728,1.8 -4.032,0.648 -6.264,1.08 -2.232,0.432 -3.312,0.792 -1.08,0.288 -1.656,0.648 z m 17.64,1.872 5.184,-1.728 q 1.224,3.312 2.448,7.2 1.296,3.888 1.872,6.696 l -5.4,1.944 q -0.576,-2.88 -1.8,-6.84 -1.152,-3.96 -2.304,-7.272 z m 61.344,-19.8 h 40.392 v 5.832 h -40.392 z m 38.448,0 h 1.44 l 1.008,-0.216 4.536,2.736 q -1.44,2.664 -3.528,5.616 -2.016,2.88 -4.32,5.544 -2.304,2.664 -4.392,4.752 -1.008,-0.792 -2.52,-1.728 -1.512,-0.936 -2.664,-1.584 2.016,-1.872 4.032,-4.32 2.016,-2.448 3.672,-4.968 1.728,-2.592 2.736,-4.608 z m -13.104,-24.696004 q 2.592,2.664 6.264,5.256 3.672,2.592 7.92,4.896 4.32,2.304 8.784,4.176 4.536,1.872 8.784,3.168 -0.72,0.648 -1.656,1.728 -0.864,1.008 -1.656,2.088 -0.792,1.08 -1.368,2.016 -4.176,-1.512 -8.712,-3.672 -4.464,-2.232 -8.856,-4.896 -4.32,-2.736 -8.208,-5.688 -3.816,-2.952 -6.84,-6.12 z m -3.816,-2.664 6.192,2.376 q -5.184,8.28 -13.968,14.184 -8.712,5.904 -19.728,9.576 -0.432,-0.72 -1.152,-1.8 -0.72,-1.08 -1.584,-2.016 -0.792,-1.008 -1.44,-1.656 6.984,-2.16 13.176,-5.184 6.192,-3.024 10.944,-6.912 4.752,-3.96 7.56,-8.568 z m -14.688,44.712004 h 6.912 v 13.248 q 0,1.728 0.936,2.16 0.936,0.432 4.32,0.432 0.576,0 1.944,0 1.44,0 3.24,0 1.8,0 3.6,0 1.872,0 3.384,0 1.512,0 2.304,0 1.872,0 2.808,-0.576 0.936,-0.576 1.296,-2.376 0.432,-1.8 0.648,-5.4 0.72,0.504 1.8,1.008 1.152,0.504 2.304,0.936 1.224,0.36 2.088,0.576 -0.36,4.824 -1.44,7.416 -1.008,2.664 -3.096,3.672 -2.088,1.008 -5.904,1.008 -0.576,0 -2.16,0 -1.584,0 -3.6,0 -2.016,0 -4.104,0 -2.016,0 -3.6,0 -1.512,0 -2.016,0 -4.608,0 -7.128,-0.792 -2.52,-0.792 -3.528,-2.664 -1.008,-1.872 -1.008,-5.256 z m 8.064,-3.168 5.544,-2.952 q 1.872,2.088 4.032,4.608 2.16,2.52 4.104,4.896 2.016,2.376 3.168,4.248 l -5.904,3.384 q -1.152,-1.8 -3.024,-4.248 -1.872,-2.52 -3.96,-5.112 -2.016,-2.592 -3.96,-4.824 z m 25.632,2.664 6.264,-2.088 q 1.584,3.096 3.312,6.696 1.8,3.6 3.456,6.984 1.656,3.384 2.664,5.904 l -6.768,2.52 q -0.864,-2.52 -2.448,-5.976 -1.512,-3.456 -3.24,-7.128 -1.728,-3.744 -3.24,-6.912 z m -42.552,0.144 5.976,2.304 q -0.792,2.808 -1.944,6.192 -1.08,3.312 -2.304,6.624 -1.152,3.24 -2.448,5.832 l -6.336,-2.88 q 1.44,-2.448 2.736,-5.544 1.368,-3.168 2.448,-6.408 1.08,-3.24 1.872,-6.12 z m 11.736,-27.072004 h 27.072 v 5.616 h -27.072 z m 64.08,44.280004 h 43.56 v 3.816 h -43.56 z m 7.56,-5.976 h 29.448 v 3.6 h -29.448 z m -19.08,-19.728 h 66.528 v 4.536 h -66.528 z m 15.12,-28.512004 4.032,0.936 q -0.864,2.304 -2.376,4.608 -1.512,2.232 -3.168,3.888 -0.576,-0.504 -1.728,-1.152 -1.08,-0.648 -1.8,-1.008 3.384,-3.096 5.04,-7.272 z m 21.096,9.216 h 20.592 v 4.176 h -20.592 z m -21.528,-6.12 h 16.992 v 3.456 h -16.992 z m -4.032,6.696 h 22.32 v 3.6 h -22.32 z m 31.032,-14.184 h 12.888 v 4.752 h -12.888 z m 14.256,13.608 h 1.08 l 1.008,-0.144 3.312,1.368 q -2.088,4.896 -5.832,8.496 -3.672,3.528004 -8.424,5.832004 -4.752,2.304 -10.08,3.6 -0.432,-0.936 -1.296,-2.16 -0.792,-1.296 -1.512,-2.016 4.752,-1.008 9.072,-2.88 4.392,-1.872 7.704,-4.752004 3.312,-2.88 4.968,-6.552 z m -16.704,-13.608 h 5.256 v 3.816 q 0,2.016 -0.648,4.032 -0.648,1.944 -2.376,3.744 -1.728,1.728 -5.04,3.168 -0.36,-0.648 -1.08,-1.44 -0.648,-0.792 -1.368,-1.584 -0.72,-0.792 -1.224,-1.08 2.808,-1.08 4.176,-2.16 1.368,-1.152 1.8,-2.304 0.504,-1.224 0.504,-2.52 z m -19.512,9 h 4.464 v 5.184 q 0,1.944 -0.792,4.248 -0.72,2.232 -2.952,4.392 -2.16,2.088004 -6.624,3.744004 -0.504,-0.792 -1.368,-1.656 -0.792,-0.936 -1.512,-1.584004 3.96,-1.152 5.76,-2.736 1.872,-1.584 2.448,-3.312 0.576,-1.728 0.576,-3.168 z m 5.832,26.424004 h 5.256 v 6.912 q 0,1.728 -0.648,3.24 -0.648,1.44 -2.304,2.736 -1.584,1.224 -4.392,2.232 -2.808,0.936 -7.128,1.584 -0.432,-0.864 -1.296,-2.016 -0.864,-1.224 -1.584,-1.944 3.744,-0.36 6.12,-0.936 2.376,-0.576 3.672,-1.296 1.368,-0.792 1.8,-1.656 0.504,-0.936 0.504,-1.944 z m 11.592,0.072 h 5.328 v 10.08 q 0,1.08 0.432,1.368 0.432,0.288 1.944,0.288 0.36,0 1.296,0 1.008,0 2.16,0 1.224,0 2.232,0 1.08,0 1.512,0 0.864,0 1.224,-0.072 0.36,-0.072 0.504,-0.36 0.864,0.432 2.088,0.792 1.224,0.288 2.16,0.432 -0.216,1.44 -1.44,2.016 -1.224,0.576 -3.744,0.576 -0.432,0 -1.656,0 -1.224,0 -2.736,0 -1.44,0 -2.664,0 -1.224,0 -1.656,0 -2.736,0 -4.32,-0.36 -1.512,-0.432 -2.088,-1.512 -0.576,-1.152 -0.576,-3.24 z m -17.28,-16.200004 2.592,-2.592 q 2.592,1.368 5.4,3.24 2.808,1.8 4.392,3.312 l -2.808,2.952004 q -1.512,-1.512 -4.32,-3.456004 -2.736,-1.944 -5.256,-3.456 z m 16.416,2.52 2.376,-3.456 q 2.952,1.152 6.264,2.52 3.312,1.296 6.624,2.736004 3.312,1.368 6.192,2.736 2.952,1.296 5.04,2.448 l -2.52,3.96 q -2.016,-1.152 -4.896,-2.52 -2.88,-1.368 -6.192,-2.88 -3.24,-1.512 -6.624,-2.88 -3.312,-1.440004 -6.264,-2.664004 z m 15.696,-21.816 h 5.4 v 6.12 q 0,1.008 0.144,1.44 0.144,0.36 0.792,0.36 0.432,0 1.44,0 1.008,0 1.44,0 0.72,0 1.656,-0.072 0.936,-0.072 1.512,-0.216 0.144,0.936 0.216,2.232 0.072,1.296 0.216,2.232 -0.576,0.216 -1.512,0.288 -0.936,0.072 -1.872,0.072 -0.432,0 -1.224,0 -0.72,0 -1.44,0 -0.72,0 -1.224,0 -2.304,0 -3.528,-0.648 -1.152,-0.648 -1.584,-2.088 -0.432,-1.44 -0.432,-3.672 z m -44.712,40.248004 h 52.272 v 24.696 h -6.408 v -20.88 h -39.672 v 20.88 h -6.192 z m -5.616,-39.960004 h 32.328 v 4.176 h -32.328 z m 2.376,2.592 h 5.256 v 20.304 q 0,1.872004 0.648,2.664004 0.648,0.72 2.52,0.72 0.648,0 2.088,0 1.512,0 3.312,0 1.8,0 3.6,0 1.872,0 3.24,0 1.44,0 2.16,0 1.512,0 3.6,-0.072 2.16,-0.144 3.24,-0.36 0.144,1.08 0.288,2.232 0.144,1.152 0.288,2.016 -1.008,0.288 -2.952,0.36 -1.944,0.072 -4.032,0.072 -0.72,0 -2.304,0 -1.584,0 -3.6,0 -1.944,0 -3.888,0 -1.944,0 -3.384,0 -1.44,0 -2.016,0 -3.096,0 -4.896,-0.72 -1.8,-0.792 -2.52,-2.52 -0.648,-1.8 -0.648,-4.608004 z m 98.784,17.064 h 29.376 v 5.976004 h -29.376 z m -5.472,12.888004 h 41.04 v 6.12 h -41.04 z m -0.288,-25.920004 h 40.896 v 13.392 h -6.552 v -7.488 h -28.008 v 7.488 h -6.336 z m 9.936,28.872004 h 6.552 q -0.288,5.4 -1.224,9.936 -0.864,4.536 -2.808,8.208 -1.944,3.6 -5.472,6.336 -3.528,2.808 -9.072,4.752 -0.504,-1.296 -1.656,-2.952 -1.152,-1.584 -2.232,-2.52 4.968,-1.512 7.992,-3.744 3.024,-2.232 4.608,-5.112 1.656,-2.952 2.304,-6.624 0.72,-3.744 1.008,-8.28 z m 12.744,-0.144 h 6.408 v 20.448 q 0,1.44 0.288,1.8 0.288,0.36 1.296,0.36 0.288,0 1.08,0 0.864,0 1.728,0 0.864,0 1.224,0 0.648,0 1.008,-0.576 0.36,-0.648 0.504,-2.52 0.216,-1.944 0.288,-5.76 0.72,0.504 1.728,1.008 1.008,0.504 2.088,0.936 1.08,0.36 1.944,0.576 -0.288,4.752 -1.008,7.416 -0.72,2.664 -2.16,3.672 -1.368,1.08 -3.672,1.08 -0.432,0 -1.296,0 -0.792,0 -1.728,0 -0.864,0 -1.656,0 -0.792,0 -1.152,0 -2.808,0 -4.32,-0.72 -1.512,-0.72 -2.088,-2.52 -0.504,-1.728 -0.504,-4.752 z m -8.424,-36.216004 6.336,-1.872 q 1.368,2.16 2.592,4.824 1.296,2.592 1.944,4.536 l -6.696,2.232 q -0.504,-1.944 -1.728,-4.68 -1.152,-2.808 -2.448,-5.04 z m -36.648,1.656 h 16.704 v 6.12 h -10.656 v 57.672004 h -6.048 z m 15.12,0 h 1.08 l 1.008,-0.216 4.464,2.52 q -1.512,4.464 -3.312,9.504 -1.728,5.04 -3.456,9.288 3.672,4.464004 4.752,8.352004 1.152,3.816 1.152,7.128 0,3.168 -0.72,5.472 -0.648,2.232 -2.304,3.456 -0.792,0.576 -1.8,0.936 -0.936,0.288 -2.088,0.504 -1.008,0.072 -2.304,0.144 -1.224,0 -2.448,-0.072 -0.072,-1.152 -0.504,-2.88 -0.36,-1.728 -1.08,-3.024 1.08,0.072 2.016,0.144 0.936,0 1.728,-0.072 1.296,-0.072 2.088,-0.576 0.792,-0.576 1.08,-1.8 0.288,-1.296 0.288,-2.952 0,-2.808 -1.152,-6.336 -1.152,-3.6 -4.68,-7.704004 0.936,-2.376 1.8,-5.112 0.864,-2.736 1.656,-5.472 0.864,-2.736 1.512,-5.184 0.72,-2.448 1.224,-4.176 z"
             id="text4-0"
             transform="matrix(0.12803532,0,0,0.12803532,63.149972,6.8553029)"
             aria-label="馬偕紀念醫院&#10;" />
          <path
             style="font-size:3.52072px;line-height:1.25;font-family:'AR UDJingXiHeiE1G30 EB';-inkscape-font-specification:'AR UDJingXiHeiE1G30 EB';fill:#ffffff;stroke-width:0.12574"
             d="m 84.466411,26.975258 v 1.834295 h -0.433049 v -2.54548 h 0.566836 l 0.73231,1.975124 0.704144,-1.975124 h 0.580919 v 2.54548 h -0.43657 v -1.848378 l -0.661895,1.848378 h -0.376717 z m 4.091075,0.806245 -0.401362,-1.087902 -0.408404,1.087902 z m -0.940032,0.348551 -0.253492,0.679499 h -0.454173 l 1.024529,-2.54548 h 0.457694 l 1.017488,2.54548 h -0.464735 l -0.257013,-0.679499 z m 3.893913,-0.207722 h 0.447131 q -0.0176,0.418966 -0.29222,0.675978 -0.274616,0.257013 -0.795682,0.257013 -0.616126,0 -0.943553,-0.348552 -0.323907,-0.348551 -0.323907,-0.968198 0,-0.612605 0.323907,-0.964677 0.327427,-0.352072 0.936511,-0.352072 0.48938,0 0.760476,0.225326 0.271095,0.221806 0.309823,0.577398 h -0.447131 q -0.02817,-0.204201 -0.186599,-0.327427 -0.158432,-0.126746 -0.447131,-0.126746 -0.355593,0 -0.570357,0.239409 -0.214764,0.239409 -0.214764,0.728789 0,0.496422 0.214764,0.73231 0.218285,0.235888 0.577398,0.235888 0.306303,0 0.471777,-0.158432 0.165474,-0.161953 0.179557,-0.426007 z m 1.330829,0.01056 v 0.876659 h -0.447131 v -2.54548 h 0.447131 v 1.151275 l 1.116069,-1.151275 h 0.545711 l -1.02805,1.031571 1.066778,1.513909 h -0.542191 l -0.823848,-1.221689 z m 3.351727,-0.151391 -0.401362,-1.087902 -0.408403,1.087902 z m -0.940032,0.348551 -0.253492,0.679499 h -0.454172 l 1.024529,-2.54548 h 0.457694 l 1.017488,2.54548 H 96.581203 L 96.32419,28.130054 Z m 3.027815,-0.739351 0.725269,-1.12663 h 0.499942 l -1.003405,1.496306 v 1.049174 H 98.05638 v -1.049174 l -1.021008,-1.496306 h 0.510504 z m 2.865864,-0.415445 v 1.834295 h -0.43305 v -2.54548 h 0.56684 l 0.73231,1.975124 0.70414,-1.975124 h 0.58092 v 2.54548 h -0.43657 v -1.848378 l -0.66189,1.848378 h -0.37672 z m 4.61918,1.834295 h -1.88358 v -2.54548 h 1.87302 v 0.348551 h -1.42589 v 0.718227 h 1.33083 V 27.6794 h -1.33083 v 0.7816 h 1.43645 z m 0.90483,-1.834295 v 1.834295 h -0.43305 v -2.54548 h 0.56684 l 0.73231,1.975124 0.70414,-1.975124 h 0.58092 v 2.54548 h -0.43657 v -1.848378 l -0.66189,1.848378 h -0.37672 z m 5.1825,0.573878 q 0,0.612605 -0.34151,0.961156 -0.33799,0.345031 -0.92595,0.345031 -0.59852,0 -0.93651,-0.348552 -0.33799,-0.348551 -0.33799,-0.957635 0,-0.619647 0.34151,-0.971719 0.34151,-0.355593 0.93299,-0.355593 0.59852,0 0.93299,0.352072 0.33447,0.352072 0.33447,0.97524 z m -1.26746,0.957635 q 0.38376,0 0.59148,-0.253491 0.21124,-0.253492 0.21124,-0.704144 0,-0.447132 -0.21124,-0.711186 -0.21124,-0.267575 -0.59148,-0.267575 -0.38728,0 -0.60204,0.271096 -0.21125,0.267575 -0.21125,0.707665 0,0.450652 0.21477,0.704144 0.21476,0.253491 0.59852,0.253491 z m 3.34821,-1.513909 q 0,-0.186598 -0.0986,-0.281658 -0.0986,-0.09858 -0.28518,-0.09858 h -0.764 v 0.792162 h 0.73935 q 0.18308,0 0.29574,-0.109142 0.11267,-0.109143 0.11267,-0.302782 z m -1.14776,0.756955 v 1.059736 h -0.44713 v -2.54548 h 1.29562 q 0.34856,0 0.55276,0.186598 0.20772,0.183077 0.20772,0.521067 0,0.221805 -0.10562,0.380237 -0.1021,0.158433 -0.25701,0.225326 0.19716,0.112663 0.30278,0.3908 0.10562,0.278137 0.13379,0.841452 h -0.46474 q -0.0211,-0.591481 -0.13027,-0.823848 -0.10562,-0.235888 -0.34151,-0.235888 z m 2.57365,-1.485744 v 2.54548 h -0.44713 v -2.54548 z m 1.93992,1.51743 -0.40137,-1.087902 -0.4084,1.087902 z m -0.94004,0.348551 -0.25349,0.679499 h -0.45417 l 1.02453,-2.54548 h 0.45769 l 1.01749,2.54548 h -0.46473 l -0.25702,-0.679499 z m 3.87279,0.679499 h -1.78853 v -2.54548 H 118.892 V 28.461 h 1.34139 z m 1.73924,-1.130151 v 1.130151 h -0.44713 v -2.54548 h 0.44713 v 1.066778 h 1.22169 v -1.066778 h 0.44713 v 2.54548 h -0.44713 V 27.6794 Z m 4.70016,-0.130266 q 0,0.612605 -0.34151,0.961156 -0.33799,0.345031 -0.92595,0.345031 -0.59852,0 -0.93651,-0.348552 -0.33799,-0.348551 -0.33799,-0.957635 0,-0.619647 0.34151,-0.971719 0.34151,-0.355593 0.93299,-0.355593 0.59852,0 0.93299,0.352072 0.33447,0.352072 0.33447,0.97524 z m -1.26746,0.957635 q 0.38376,0 0.59148,-0.253491 0.21125,-0.253492 0.21125,-0.704144 0,-0.447132 -0.21125,-0.711186 -0.21124,-0.267575 -0.59148,-0.267575 -0.38728,0 -0.60204,0.271096 -0.21125,0.267575 -0.21125,0.707665 0,0.450652 0.21477,0.704144 0.21476,0.253491 0.59852,0.253491 z m 2.59829,-0.848493 q -0.46473,-0.0845 -0.69006,-0.260533 -0.22533,-0.176036 -0.22533,-0.492901 0,-0.295741 0.23941,-0.48938 0.24293,-0.19364 0.7464,-0.19364 0.46121,0 0.7147,0.197161 0.25349,0.19716 0.27814,0.570356 h -0.44713 q -0.004,-0.179557 -0.14083,-0.299261 -0.13731,-0.119705 -0.41897,-0.119705 -0.26405,0 -0.3908,0.08802 -0.12674,0.08802 -0.12322,0.246451 0,0.172515 0.16899,0.257012 0.17252,0.0845 0.5598,0.161954 0.48586,0.09858 0.69006,0.267574 0.20772,0.168995 0.20772,0.506984 0,0.323906 -0.27462,0.542191 -0.27461,0.214764 -0.7816,0.214764 -0.51754,0 -0.80624,-0.218285 -0.2887,-0.218285 -0.2887,-0.630209 h 0.44713 q 0,0.228847 0.17252,0.366155 0.17251,0.133787 0.47881,0.133787 0.28166,0 0.44009,-0.109142 0.15844,-0.109142 0.15844,-0.285178 0,-0.204202 -0.15844,-0.29222 -0.15843,-0.08802 -0.55627,-0.161953 z m 2.03498,0.140829 v 1.010446 h -0.44713 v -2.54548 h 1.19704 q 0.3732,0 0.58444,0.204202 0.21125,0.204201 0.21125,0.54219 0,0.380238 -0.21829,0.58444 -0.21476,0.204202 -0.58092,0.204202 z m 1.09142,-0.7816 q 0,-0.19716 -0.11266,-0.299261 -0.11266,-0.105622 -0.33095,-0.105622 h -0.64781 v 0.837931 h 0.64781 q 0.21829,0 0.33095,-0.105621 0.11266,-0.109142 0.11266,-0.327427 z m 1.33083,-0.753434 v 2.54548 h -0.44713 v -2.54548 z m 1.12663,0.348551 h -0.79216 v -0.348551 h 2.02793 v 0.348551 h -0.78864 v 2.196929 h -0.44713 z m 2.92924,1.168879 -0.40136,-1.087902 -0.40841,1.087902 z m -0.94003,0.348551 -0.25349,0.679499 h -0.45418 l 1.02453,-2.54548 h 0.4577 l 1.01748,2.54548 H 136.904 l -0.25701,-0.679499 z m 3.87278,0.679499 h -1.78852 v -2.54548 h 0.44713 V 28.461 h 1.34139 z"
             id="text5-8"
             aria-label="MACKAY MEMORIAL HOSPITAL&#10;" />
          <path
             d="m 84.358888,31.279821 h 2.028294 v 0.243395 h -2.028294 z m 0,-0.512752 h 2.028294 v 0.24664 h -2.028294 z m -0.165509,1.025505 h 2.27818 v 0.269357 h -2.27818 z m 2.21652,0 h 0.311546 q 0,0 -0.0032,0.04868 0,0.04543 -0.0032,0.07789 -0.02272,0.340754 -0.04868,0.558187 -0.02272,0.217433 -0.05517,0.337508 -0.02921,0.11683 -0.07789,0.168754 -0.04543,0.05192 -0.100603,0.07464 -0.05517,0.02272 -0.126566,0.03245 -0.0649,0.0065 -0.175245,0.0065 -0.110339,0.0032 -0.230414,-0.0065 -0.0032,-0.06166 -0.02596,-0.142792 -0.02272,-0.07789 -0.05842,-0.139547 0.110339,0.0097 0.204452,0.01298 0.09411,0.0032 0.136302,0.0032 0.04543,0 0.06815,-0.0065 0.02272,-0.0065 0.04543,-0.02921 0.03245,-0.03245 0.05517,-0.133056 0.02596,-0.100604 0.04543,-0.298565 0.02272,-0.197962 0.03894,-0.519243 z m -1.25592,0.493281 0.24015,-0.05517 q 0.06491,0.136302 0.12332,0.30181 0.05841,0.165509 0.07789,0.279094 l -0.256376,0.06815 q -0.01623,-0.116829 -0.06815,-0.282338 -0.05192,-0.168754 -0.11683,-0.311546 z m 0.522489,-0.04868 0.223923,-0.08438 q 0.08113,0.103848 0.155773,0.230414 0.07789,0.12332 0.110339,0.214188 l -0.233659,0.09736 q -0.0357,-0.09411 -0.107094,-0.223924 -0.0714,-0.129811 -0.149282,-0.233658 z m -1.080675,0.06491 0.259621,-0.04219 q 0.04543,0.159018 0.07789,0.340753 0.0357,0.181735 0.03894,0.318037 l -0.275848,0.04543 q 0,-0.09087 -0.01623,-0.204452 -0.01298,-0.113584 -0.0357,-0.230414 -0.02272,-0.120075 -0.04868,-0.227169 z m -0.467319,-0.126565 0.269357,0.0714 q -0.02921,0.155773 -0.07789,0.311546 -0.04543,0.152527 -0.120075,0.282338 -0.0714,0.133056 -0.181735,0.230414 l -0.249886,-0.155773 q 0.149282,-0.129811 0.236905,-0.327772 0.08762,-0.197961 0.12332,-0.412149 z m 1.051467,-1.801125 h 0.305056 v 1.525277 h -0.305056 z m -0.986562,-0.142792 h 2.307387 v 0.266112 h -2.005577 v 1.424674 h -0.30181 z m 3.913796,-0.113584 h 0.292074 v 1.233202 l -0.292074,0.02596 z m 0.18498,0.382941 h 0.623092 v 0.259622 h -0.623092 z m -0.451092,0.788601 q 0.210942,-0.03245 0.499771,-0.08762 0.292075,-0.05517 0.587394,-0.113585 l 0.02272,0.259622 q -0.266112,0.06166 -0.535469,0.120075 -0.269358,0.05842 -0.493281,0.107094 z m 1.194259,-1.171542 h 0.29532 v 1.031995 q 0,0.0714 0.01623,0.09411 0.01947,0.01947 0.08762,0.01947 0.01623,0 0.05517,0 0.03894,0 0.08438,0 0.04543,0 0.08438,0 0.04219,0 0.06166,0 0.04219,0 0.06166,-0.02272 0.01947,-0.02596 0.02921,-0.09736 0.0097,-0.0714 0.01298,-0.207697 0.04543,0.03245 0.120075,0.0649 0.07789,0.02921 0.139546,0.04543 -0.01298,0.18498 -0.04868,0.288829 -0.0357,0.103848 -0.103848,0.146037 -0.06491,0.04219 -0.17849,0.04219 -0.02272,0 -0.07464,0 -0.05192,0 -0.11034,0 -0.05841,0 -0.107093,0 -0.04868,0 -0.0714,0 -0.142792,0 -0.220679,-0.03245 -0.07464,-0.03245 -0.103848,-0.113585 -0.02921,-0.08113 -0.02921,-0.223923 z m 0.769129,0.223923 0.191471,0.197962 q -0.103849,0.06815 -0.230414,0.136301 -0.12332,0.06815 -0.249886,0.126565 -0.126565,0.05842 -0.233659,0.103849 L 89.119699,30.72488 q 0.107094,-0.04543 0.230414,-0.110339 0.126566,-0.06815 0.246641,-0.136302 0.120075,-0.07139 0.207697,-0.136301 z m -1.002788,1.087166 0.334263,0.06815 q -0.06166,0.113585 -0.123321,0.230414 -0.06166,0.113585 -0.113584,0.191471 l -0.236905,-0.06815 q 0.04219,-0.09087 0.08113,-0.210943 0.03894,-0.120075 0.05842,-0.210942 z m -0.632828,0.305055 h 1.690786 v 1.356523 H 89.55132 v -1.109883 h -1.087165 v 1.122864 h -0.29532 z m 0.159018,0.506262 h 1.395466 v 0.230414 h -1.395466 z m 0,0.503017 h 1.388976 v 0.243395 h -1.388976 z m -0.593884,-2.644895 0.292074,0.08762 q -0.107094,0.275848 -0.249886,0.548451 -0.142792,0.272602 -0.3083,0.512752 -0.165509,0.24015 -0.340754,0.425131 -0.01623,-0.03894 -0.04543,-0.09736 -0.02921,-0.05842 -0.06491,-0.120075 -0.03245,-0.06166 -0.05841,-0.09411 0.155773,-0.155773 0.298565,-0.35698 0.146037,-0.201207 0.269358,-0.434866 0.12332,-0.233659 0.207697,-0.470564 z m -0.324527,0.859996 0.288829,-0.288829 0.0032,0.0032 v 2.420971 h -0.292074 z m 4.296737,-0.694487 h 1.418183 v 1.476598 h -0.3083 v -1.187769 h -1.109883 z m 0.230415,1.002788 h 1.019014 v 0.285584 h -1.019014 z m -0.146038,0 h 0.305056 v 1.369504 q 0,0.100603 0.0357,0.129811 0.0357,0.02921 0.162263,0.02921 0.02921,0 0.100604,0 0.07464,0 0.165508,0 0.09087,0 0.168754,0 0.07789,0 0.11683,0 0.07789,0 0.11683,-0.0357 0.03894,-0.03894 0.05517,-0.149282 0.01623,-0.110339 0.02596,-0.324527 0.0357,0.02596 0.08438,0.05192 0.05192,0.02272 0.107094,0.04219 0.05517,0.01947 0.09411,0.03245 -0.01947,0.259622 -0.0649,0.405659 -0.04219,0.146037 -0.136301,0.204452 -0.09411,0.06166 -0.262867,0.06166 -0.02596,0 -0.08762,0 -0.06166,0 -0.139546,0 -0.07789,0 -0.155773,0 -0.07789,0 -0.139547,0 -0.05841,0 -0.08113,0 -0.17849,0 -0.282339,-0.03894 -0.100603,-0.03894 -0.146037,-0.136301 -0.04219,-0.09411 -0.04219,-0.269358 z m -0.934637,0.379697 h 0.292074 v 1.450635 h -0.292074 z m -0.03245,-1.560975 0.282338,0.120075 q -0.07464,0.120075 -0.159018,0.253131 -0.08113,0.129811 -0.162263,0.249886 -0.08113,0.120075 -0.155773,0.210942 l -0.214188,-0.103848 q 0.0714,-0.09736 0.146037,-0.223924 0.07789,-0.129811 0.146037,-0.262867 0.0714,-0.133056 0.11683,-0.243395 z m 0.421885,0.369961 0.262867,0.12981 q -0.126566,0.181736 -0.282339,0.386188 -0.155773,0.201206 -0.314791,0.389432 -0.155773,0.18498 -0.295319,0.324527 l -0.191471,-0.110339 q 0.103848,-0.110339 0.214188,-0.246641 0.113584,-0.139546 0.223923,-0.292074 0.110339,-0.152528 0.207697,-0.298565 0.100604,-0.149282 0.175245,-0.282338 z m -0.976826,0.382941 0.146037,-0.207697 q 0.09087,0.06815 0.18498,0.152528 0.09736,0.08113 0.17849,0.165509 0.08113,0.08438 0.126566,0.152527 l -0.155773,0.24015 q -0.04543,-0.07464 -0.123321,-0.162263 -0.07789,-0.08762 -0.171999,-0.175245 -0.09411,-0.09087 -0.18498,-0.165509 z m 0.882713,0.376452 0.230414,-0.103849 q 0.07464,0.107094 0.149283,0.230414 0.07789,0.123321 0.139546,0.243396 0.06166,0.120075 0.09411,0.210942 l -0.249886,0.12332 q -0.02921,-0.09411 -0.08762,-0.214187 -0.05841,-0.123321 -0.129811,-0.249886 -0.0714,-0.129811 -0.146037,-0.24015 z m -0.892449,0.30181 q 0.24015,-0.0097 0.571167,-0.02596 0.331018,-0.01623 0.675017,-0.03245 l -0.0032,0.256376 q -0.324527,0.02272 -0.645808,0.04219 -0.321282,0.01623 -0.567923,0.02921 z m 0.970336,0.515998 0.243395,-0.08762 q 0.05517,0.09736 0.103849,0.210942 0.05192,0.110339 0.09411,0.220678 0.04219,0.107094 0.06491,0.191471 l -0.259622,0.100604 q -0.01947,-0.08438 -0.05841,-0.194716 -0.03894,-0.11034 -0.08762,-0.227169 -0.04868,-0.11683 -0.100603,-0.214188 z m -0.77562,-0.06815 0.275848,0.05192 q -0.0357,0.230415 -0.100603,0.457584 -0.06491,0.227168 -0.149283,0.379696 -0.02596,-0.01623 -0.07464,-0.03894 -0.04543,-0.02596 -0.09411,-0.04868 -0.04868,-0.02272 -0.08113,-0.0357 0.08762,-0.142792 0.139546,-0.347244 0.05517,-0.207697 0.08438,-0.41864 z m 3.923532,0.126566 h 0.305055 v 0.580903 q 0,0.06815 0.02921,0.08762 0.03245,0.01623 0.139546,0.01623 0.02596,0 0.08762,0 0.06166,0 0.136301,0 0.07789,0 0.142792,0 0.06815,0 0.100603,0 0.06491,0 0.09736,-0.02272 0.03245,-0.02596 0.04219,-0.103849 0.01298,-0.08113 0.01947,-0.24664 0.03245,0.02596 0.08113,0.04868 0.04868,0.02272 0.100603,0.03894 0.05517,0.01623 0.09411,0.02921 -0.01623,0.210943 -0.05841,0.327773 -0.04219,0.116829 -0.12332,0.159018 -0.08113,0.04543 -0.227169,0.04543 -0.02272,0 -0.07464,0 -0.05192,0 -0.120075,0 -0.06815,0 -0.136301,0 -0.06815,0 -0.120075,0 -0.05192,0 -0.07464,0 -0.175245,0 -0.272603,-0.0357 -0.09411,-0.03245 -0.133056,-0.11683 -0.0357,-0.08113 -0.0357,-0.223924 z m 0.168754,-0.17849 0.191471,-0.201207 q 0.11683,0.05192 0.236905,0.12332 0.12332,0.0714 0.230414,0.149283 0.107094,0.07789 0.171999,0.152527 l -0.207697,0.217434 q -0.06166,-0.07464 -0.165509,-0.155773 -0.100603,-0.08113 -0.220678,-0.155773 -0.120075,-0.07464 -0.236905,-0.129811 z m 1.113127,0.266112 0.256377,-0.149282 q 0.120075,0.110339 0.24015,0.243395 0.120075,0.129811 0.217433,0.262867 0.09736,0.133056 0.149282,0.249885 l -0.275848,0.168755 q -0.04868,-0.113585 -0.142792,-0.246641 -0.09087,-0.136301 -0.207697,-0.275848 -0.113584,-0.139547 -0.236905,-0.253131 z m -1.700521,-0.113584 0.275848,0.09087 q -0.0357,0.152528 -0.09736,0.308301 -0.05841,0.152527 -0.149283,0.285583 -0.08762,0.133057 -0.214187,0.23366 l -0.253131,-0.175245 q 0.113584,-0.08438 0.197961,-0.204452 0.08762,-0.120075 0.146037,-0.256376 0.06166,-0.139547 0.09411,-0.282338 z m 0.0065,-0.843771 h 1.820596 v 0.262867 H 93.9649 Z m 0.470564,-0.441356 h 1.168297 v 0.243395 h -1.168297 z m 0.574412,-0.421886 q -0.136301,0.155773 -0.347243,0.318037 -0.207698,0.159018 -0.460829,0.30181 -0.253131,0.139547 -0.512752,0.243395 -0.01947,-0.03894 -0.04868,-0.08762 -0.02921,-0.04868 -0.06166,-0.09411 -0.03245,-0.04868 -0.0649,-0.08113 0.269357,-0.09736 0.522488,-0.236904 0.256377,-0.139547 0.464074,-0.305056 0.207697,-0.165508 0.337508,-0.327772 h 0.314791 q 0.17849,0.188226 0.405659,0.353735 0.227169,0.162263 0.4803,0.285583 0.253131,0.120075 0.503017,0.197962 -0.05192,0.05517 -0.103849,0.136301 -0.05192,0.07789 -0.08762,0.142792 -0.175245,-0.06815 -0.36347,-0.159018 -0.188226,-0.09411 -0.369961,-0.204452 -0.17849,-0.113585 -0.337508,-0.236905 -0.155773,-0.12332 -0.269358,-0.246641 z m 0.687998,0.863242 h 0.0649 l 0.04868,-0.01298 0.204452,0.12332 q -0.05842,0.126566 -0.146037,0.266113 -0.08762,0.139546 -0.18498,0.272602 -0.09411,0.129811 -0.181735,0.230414 -0.04543,-0.0357 -0.113585,-0.07789 -0.06815,-0.04219 -0.12332,-0.06815 0.08438,-0.09411 0.165509,-0.214187 0.08438,-0.120075 0.155773,-0.243396 0.07139,-0.12332 0.110339,-0.217433 z m 2.005576,-0.236904 h 2.04452 v 0.259621 h -2.04452 z m 0.879469,1.100146 0.18498,-0.152528 q 0.09736,0.08113 0.204452,0.181736 0.110339,0.100603 0.207697,0.197961 0.09736,0.09411 0.159018,0.168754 l -0.194716,0.171999 q -0.05842,-0.07464 -0.152527,-0.175244 -0.09411,-0.100604 -0.204452,-0.204452 -0.107094,-0.103849 -0.204452,-0.188226 z m -0.791846,-0.54845 h 1.684295 v 0.262866 h -1.408447 v 1.301354 h -0.275848 z m 1.567465,0 h 0.29532 v 1.246183 q 0,0.103849 -0.02921,0.165509 -0.02596,0.0649 -0.103848,0.100603 -0.0714,0.03245 -0.188226,0.03894 -0.113585,0.0097 -0.279093,0.0065 -0.0065,-0.05517 -0.03894,-0.133056 -0.02921,-0.07789 -0.06166,-0.133056 0.11683,0.0032 0.217433,0.0032 0.100604,0.0032 0.129811,0 0.0357,-0.0032 0.04543,-0.01298 0.01298,-0.01298 0.01298,-0.04219 z M 98.56019,31.072124 h 0.269357 v 0.548451 q 0,0.12981 -0.02272,0.272602 -0.02272,0.139547 -0.08762,0.279093 -0.06491,0.139547 -0.184981,0.266113 -0.120075,0.126565 -0.314791,0.227168 -0.02596,-0.04219 -0.08113,-0.100603 -0.05192,-0.06166 -0.09411,-0.09736 0.171999,-0.08113 0.275848,-0.18498 0.107094,-0.103849 0.155773,-0.217433 0.05192,-0.11683 0.06815,-0.230415 0.01623,-0.113584 0.01623,-0.214187 z m -1.116373,-0.626337 h 2.330104 v 0.275848 h -2.330104 z m -0.165509,0 h 0.292074 v 0.970336 q 0,0.19147 -0.01947,0.415394 -0.01623,0.220678 -0.0714,0.447847 -0.05517,0.227169 -0.159019,0.438112 -0.100603,0.207697 -0.269357,0.373206 -0.02272,-0.02921 -0.06491,-0.0714 -0.03894,-0.03894 -0.08438,-0.07789 -0.04219,-0.0357 -0.0714,-0.05517 0.152527,-0.155773 0.24015,-0.337508 0.09087,-0.184981 0.133056,-0.379697 0.04543,-0.194716 0.05842,-0.389432 0.01623,-0.194716 0.01623,-0.366716 z m 0.993053,-0.360225 h 0.324527 v 0.545205 h -0.324527 z m -1.492825,0.733431 0.223924,-0.110339 q 0.08438,0.139546 0.155773,0.3083 0.0714,0.168754 0.09736,0.288829 l -0.24015,0.129811 q -0.01623,-0.08438 -0.05192,-0.188226 -0.0357,-0.107093 -0.08438,-0.217433 -0.04868,-0.113584 -0.100604,-0.210942 z m -0.04219,1.152071 q 0.11683,-0.05192 0.272603,-0.129811 0.159018,-0.07789 0.327772,-0.165509 l 0.07464,0.243395 q -0.142792,0.08438 -0.292074,0.172 -0.146037,0.08762 -0.285584,0.162263 z m 5.134024,-1.875766 h 0.29856 v 0.496526 h -0.29856 z m -0.75615,0.356979 h 1.86927 v 0.613356 h -0.28234 v -0.350489 h -1.31108 v 0.350489 h -0.27585 z m 0.24988,0.584149 h 1.36302 v 0.266112 h -1.36302 z m -0.20769,0.577658 h 1.82708 v 0.275848 h -1.82708 z m 0.40566,0.126566 h 0.29207 q -0.013,0.259621 -0.0487,0.473809 -0.0357,0.210942 -0.12007,0.379697 -0.0811,0.168754 -0.23691,0.292074 -0.15253,0.126565 -0.39917,0.210942 -0.013,-0.0357 -0.0422,-0.08113 -0.0292,-0.04543 -0.0617,-0.08762 -0.0324,-0.04219 -0.0649,-0.06815 0.22068,-0.0714 0.35049,-0.172 0.12981,-0.100603 0.19796,-0.236904 0.0714,-0.136302 0.0974,-0.314792 0.026,-0.178489 0.0357,-0.395922 z m 0.60037,-0.02921 h 0.28883 v 0.976826 q 0,0.06491 0.01,0.08113 0.013,0.01623 0.0552,0.01623 0.013,0 0.0487,0 0.0357,0 0.0714,0 0.0389,0 0.0519,0 0.0325,0 0.0487,-0.02596 0.0162,-0.02596 0.0227,-0.110339 0.006,-0.08762 0.01,-0.259621 0.0292,0.02596 0.0746,0.04868 0.0454,0.02272 0.0941,0.04219 0.0519,0.01623 0.0909,0.02596 -0.013,0.217433 -0.0454,0.337508 -0.0324,0.123321 -0.0941,0.168754 -0.0617,0.04868 -0.16875,0.04868 -0.0195,0 -0.0552,0 -0.0325,0 -0.0714,0 -0.0389,0 -0.0746,0 -0.0324,0 -0.0519,0 -0.12332,0 -0.19148,-0.0357 -0.0649,-0.03245 -0.0909,-0.113584 -0.0227,-0.08113 -0.0227,-0.223924 z m -2.01531,-1.486334 h 0.76264 v 0.275848 h -0.49329 v 2.599462 h -0.26935 z m 0.67177,0 h 0.0487 l 0.0454,-0.01298 0.20121,0.11683 q -0.0454,0.136301 -0.0974,0.292074 -0.0519,0.152528 -0.10709,0.30181 -0.0519,0.149283 -0.10385,0.279094 0.16551,0.194716 0.21743,0.36347 0.0519,0.168754 0.0519,0.318036 0,0.139547 -0.0324,0.24015 -0.0292,0.100604 -0.10385,0.152528 -0.0357,0.02596 -0.0811,0.04219 -0.0422,0.01298 -0.0941,0.02272 -0.0941,0.0097 -0.21419,0.0032 -0.003,-0.05517 -0.0227,-0.129811 -0.0162,-0.07789 -0.0487,-0.133056 0.0487,0.0032 0.0909,0.0032 0.0422,0 0.0779,0 0.0617,-0.0032 0.0974,-0.02921 0.0324,-0.02596 0.0454,-0.08113 0.013,-0.05517 0.013,-0.126566 0,-0.12332 -0.0519,-0.279093 -0.0519,-0.155773 -0.21094,-0.334263 0.0422,-0.110339 0.0811,-0.236904 0.0389,-0.126566 0.0746,-0.253131 0.0389,-0.129811 0.0681,-0.24015 0.0325,-0.113585 0.0552,-0.191471 z"
             id="text5-9-1"
             style="font-weight:500;font-size:3.24527px;line-height:1.25;font-family:'Noto Sans JP';-inkscape-font-specification:'Noto Sans JP Medium';fill:#f9f9f9;stroke-width:0.115903"
             aria-label="馬偕紀念病院" />
          <path
             style="font-weight:500;font-size:3.24527px;line-height:1.25;font-family:'Noto Sans kr';-inkscape-font-specification:'Noto Sans kr Medium';fill:#f9f9f9;stroke-width:0.115903"
             d="m 108.84171,30.209824 h 0.32452 v 1.765426 h -0.32452 z m -0.42513,0.743166 h 0.52248 v 0.275848 h -0.52248 z m -0.2077,-0.687997 h 0.32128 v 1.697276 h -0.32128 z m -1.05471,1.862785 h 2.01206 V 33.176 h -0.3375 v -0.775619 h -1.67456 z m -0.3797,-1.661578 h 1.15532 v 1.311089 h -1.15532 z m 0.83728,0.262867 h -0.52249 v 0.785355 h 0.52249 z m 3.2258,-0.223924 h 0.33101 q 0,0.331018 -0.0584,0.642564 -0.0552,0.3083 -0.20445,0.590639 -0.14604,0.279093 -0.40891,0.522488 -0.25962,0.243395 -0.66528,0.447847 l -0.18173,-0.262866 q 0.34724,-0.172 0.57766,-0.376452 0.23041,-0.204452 0.36347,-0.438111 0.13305,-0.236905 0.18822,-0.506262 0.0584,-0.272603 0.0584,-0.577658 z m -1.01577,0 h 1.21697 v 0.272603 h -1.21697 z m 0.99954,0.733431 v 0.259622 l -1.10664,0.107094 -0.0454,-0.29532 z m 0.77562,-1.031996 h 0.34075 v 2.966177 h -0.34075 z m 0.25313,1.171543 h 0.53547 v 0.282338 h -0.53547 z m 2.87531,-1.171543 h 0.34075 v 2.972668 h -0.34075 z m -1.23645,0.217433 q 0.22068,0 0.39268,0.129811 0.17525,0.129811 0.2726,0.36347 0.0974,0.23366 0.0974,0.551696 0,0.321282 -0.0974,0.558187 -0.0974,0.233659 -0.2726,0.36347 -0.172,0.126566 -0.39268,0.126566 -0.22068,0 -0.39592,-0.126566 -0.172,-0.129811 -0.2726,-0.36347 -0.0974,-0.236905 -0.0974,-0.558187 0,-0.318036 0.0974,-0.551696 0.1006,-0.233659 0.2726,-0.36347 0.17524,-0.129811 0.39592,-0.129811 z m 0,0.308301 q -0.12981,0 -0.23041,0.08762 -0.0974,0.08762 -0.15253,0.253131 -0.0552,0.165509 -0.0552,0.395923 0,0.23366 0.0552,0.399169 0.0552,0.165508 0.15253,0.256376 0.1006,0.08762 0.23041,0.08762 0.12981,0 0.22717,-0.08762 0.0974,-0.09087 0.15253,-0.256376 0.0552,-0.165509 0.0552,-0.399169 0,-0.230414 -0.0552,-0.395923 -0.0552,-0.165508 -0.15253,-0.253131 -0.0974,-0.08762 -0.22717,-0.08762 z m 4.23184,-0.525734 h 0.34075 v 2.966177 h -0.34075 z m -0.87298,0.314791 h 0.33751 q 0,0.331018 -0.0714,0.632828 -0.0714,0.30181 -0.23366,0.574413 -0.15902,0.269357 -0.42188,0.499771 -0.25963,0.230415 -0.64257,0.415395 l -0.18173,-0.269357 q 0.43162,-0.207698 0.69773,-0.47381 0.26611,-0.266112 0.38943,-0.593884 0.12657,-0.331018 0.12657,-0.726941 z m -1.0677,0 h 1.22023 v 0.272603 h -1.22023 z m 2.99214,-0.175244 h 0.33751 v 1.285127 h -0.33751 z m 0,1.220221 h 0.22393 q 0.23041,0 0.43162,-0.0065 0.20445,-0.0097 0.39592,-0.02921 0.19472,-0.01947 0.39917,-0.05841 l 0.0389,0.272602 q -0.2077,0.04219 -0.4089,0.06491 -0.20121,0.01947 -0.41215,0.02921 -0.2077,0.0065 -0.4446,0.0065 h -0.22393 z m 1.94067,-1.359768 h 0.34076 v 1.74271 h -0.34076 z m -0.77561,0.30181 h 0.86324 v 0.262867 h -0.86324 z m 0,0.522489 h 0.86324 v 0.262867 h -0.86324 z m -0.81457,1.044977 h 1.93094 v 1.061203 h -1.93094 z m 1.59668,0.269357 h -1.26241 V 32.8677 h 1.26241 z m 2.27493,-1.677804 h 0.78536 v 0.275848 h -0.78536 z m 0,0.61011 h 0.78536 v 0.272603 h -0.78536 z m -1.27539,-0.889204 h 0.33751 v 0.438112 h 0.69448 v -0.438112 h 0.33427 v 1.408448 h -1.36626 z m 0.33751,0.704224 v 0.434866 h 0.69448 v -0.434866 z m 1.6421,-0.882713 h 0.34076 v 1.781653 h -0.34076 z m -0.6458,1.840068 q 0.31154,0 0.53222,0.06815 0.22392,0.06491 0.344,0.191471 0.12332,0.12332 0.12332,0.30181 0,0.266112 -0.26936,0.41215 -0.26611,0.146037 -0.73018,0.146037 -0.46408,0 -0.73344,-0.146037 -0.26935,-0.146038 -0.26935,-0.41215 0,-0.17849 0.12007,-0.30181 0.12332,-0.126565 0.34725,-0.191471 0.22716,-0.06815 0.53547,-0.06815 z m 0,0.262867 q -0.21095,0 -0.36023,0.0357 -0.14604,0.03245 -0.22392,0.09736 -0.0779,0.0649 -0.0779,0.165508 0,0.09411 0.0779,0.162264 0.0779,0.06815 0.22392,0.103848 0.14928,0.03245 0.36023,0.03245 0.21094,0 0.35697,-0.03245 0.14604,-0.0357 0.22393,-0.103848 0.0811,-0.06815 0.0811,-0.162264 0,-0.100603 -0.0811,-0.165508 -0.0779,-0.06491 -0.22393,-0.09736 -0.14603,-0.0357 -0.35697,-0.0357 z m 2.32685,-0.59713 h 0.33751 v 0.652299 h -0.33751 z m 1.3046,-1.505805 h 0.34075 v 2.248972 h -0.34075 z m -1.73297,2.628668 h 2.14512 v 0.275848 h -2.14512 z m 0,-0.597129 h 0.34075 v 0.67177 h -0.34075 z m -0.35374,-0.41215 -0.0422,-0.275848 q 0.27261,-0.0032 0.59389,-0.0065 0.32128,-0.0065 0.65554,-0.02272 0.33751,-0.01947 0.64906,-0.05842 l 0.026,0.243395 q -0.31804,0.05193 -0.6523,0.07789 -0.33102,0.02596 -0.64581,0.03245 -0.31479,0.0065 -0.58415,0.0097 z m 1.50581,0.11683 h 0.66528 v 0.24015 h -0.66528 z m -0.59064,-1.62588 q 0.22068,0 0.38294,0.0649 0.16551,0.06491 0.25638,0.184981 0.0941,0.116829 0.0941,0.272602 0,0.155773 -0.0941,0.275848 -0.0909,0.120075 -0.25638,0.184981 -0.16226,0.06166 -0.38294,0.06166 -0.21419,0 -0.38294,-0.06166 -0.16551,-0.06491 -0.25962,-0.184981 -0.0909,-0.120075 -0.0909,-0.275848 0,-0.155773 0.0909,-0.272602 0.0941,-0.120075 0.25962,-0.184981 0.16875,-0.0649 0.38294,-0.0649 z m 0,0.249886 q -0.18174,0 -0.29857,0.07464 -0.11358,0.0714 -0.11358,0.197961 0,0.126566 0.11358,0.201207 0.11683,0.0714 0.29857,0.0714 0.18173,0 0.29532,-0.0714 0.11358,-0.07464 0.11358,-0.201207 0,-0.08438 -0.0519,-0.142792 -0.0519,-0.06166 -0.14279,-0.09411 -0.0909,-0.0357 -0.21419,-0.0357 z"
             id="text5-9-1-0"
             aria-label="맥카이기념병원" />
          <path
             id="rect2"
             style="fill:#ffffff;stroke-width:0.757875"
             d="m 79.374588,16.342388 h 1.0501 v 16.764515 h -1.0501 z" />
          <path
             style="font-weight:500;font-size:7.32669px;line-height:1.25;font-family:'Noto Sans KR';-inkscape-font-specification:'Noto Sans KR Medium';fill:#ffffff;stroke-width:0.261667"
             d="m 65.964865,43.383391 h 0.761976 v 4.2275 h -0.761976 z m 0.468908,1.809692 h 1.216231 v 0.630096 h -1.216231 z m -4.886902,2.10276 -0.08059,-0.608115 q 0.593461,0 1.289497,-0.0073 0.703362,-0.01465 1.428705,-0.05861 0.732669,-0.05129 1.392071,-0.139207 l 0.05861,0.534848 q -0.688709,0.124554 -1.414051,0.183167 -0.718016,0.05129 -1.406724,0.07327 -0.681383,0.01465 -1.267518,0.02198 z m 2.974636,0.373662 q 1.055044,0 1.648506,0.315047 0.600788,0.315048 0.600788,0.88653 0,0.571482 -0.600788,0.879203 -0.593462,0.315047 -1.648506,0.315047 -1.047716,0 -1.648505,-0.315047 -0.593462,-0.307721 -0.593462,-0.879203 0,-0.571482 0.593462,-0.88653 0.600789,-0.315047 1.648505,-0.315047 z m 0,0.600788 q -0.710689,0 -1.099003,0.153861 -0.380988,0.15386 -0.380988,0.446928 0,0.293067 0.380988,0.446928 0.388314,0.15386 1.099003,0.15386 0.718016,0 1.099004,-0.15386 0.380988,-0.153861 0.380988,-0.446928 0,-0.293068 -0.380988,-0.446928 -0.380988,-0.153861 -1.099004,-0.153861 z m -1.370091,-2.483748 h 0.761976 v 1.128311 h -0.761976 z m -0.0073,-2.23464 h 0.622768 v 0.410294 q 0,0.498215 -0.2198,0.923163 -0.212474,0.424948 -0.630096,0.732669 -0.410294,0.300395 -0.99643,0.446928 l -0.337027,-0.593461 q 0.505541,-0.117227 0.849896,-0.344355 0.344354,-0.227127 0.527521,-0.527522 0.183168,-0.300394 0.183168,-0.637422 z m 0.15386,0 h 0.615442 v 0.410294 q 0,0.337028 0.183167,0.615442 0.183168,0.271088 0.534849,0.468909 0.351681,0.190493 0.857222,0.28574 l -0.322374,0.586136 Q 64.565467,45.793872 64.147846,45.530111 63.730225,45.259024 63.510424,44.863382 63.29795,44.460414 63.29795,43.962199 Z m 5.216604,3.29701 h 0.424948 q 0.615442,0 1.120984,-0.02931 0.512868,-0.02931 1.08435,-0.131881 l 0.07327,0.608115 q -0.593462,0.109901 -1.12831,0.139208 -0.527522,0.02198 -1.150291,0.02198 h -0.424948 z m -0.0073,-2.959983 h 2.263947 v 2.044147 H 69.25455 v 1.17227 h -0.739996 v -1.743752 h 1.516625 v -0.857223 h -1.523951 z m 2.578995,0.666729 h 1.245537 v 0.615442 h -1.245537 z m 2.08078,-1.17227 h 0.732669 v 5.033436 h -0.732669 z m -1.274845,0.117227 h 0.718016 V 48.25564 H 71.89221 Z m -2.425134,5.773432 h 4.615815 v 0.622768 h -4.615815 z m 0,-1.355438 h 0.769302 v 1.655832 h -0.769302 z m 1.619199,-1.97088 h 1.245537 v 0.622769 h -1.245537 z"
             id="text5-9-8"
             aria-label="솽롄" />
        </g>
      </g>
    </g>
    <text
       xml:space="preserve"
       transform="matrix(0.31615295,0,0,0.31615295,-10.474341,-6.4462013)"
       id="text6"
       style="font-size:55px;line-height:1.25;font-family:'Microsoft JhengHei';-inkscape-font-specification:'Microsoft JhengHei';white-space:pre;shape-inside:url(#rect6);display:inline" />
  </g>
</svg>
