<?xml version="1.0" encoding="UTF-8" standalone="no"?>
<!-- Created with Inkscape (http://www.inkscape.org/) -->

<svg
   width="500"
   height="250"
   viewBox="0 0 132.29166 66.145833"
   version="1.1"
   id="svg1"
   inkscape:version="1.3.2 (091e20e, 2023-11-25, custom)"
   sodipodi:docname="r13.svg"
   xmlns:inkscape="http://www.inkscape.org/namespaces/inkscape"
   xmlns:sodipodi="http://sodipodi.sourceforge.net/DTD/sodipodi-0.dtd"
   xmlns="http://www.w3.org/2000/svg"
   xmlns:svg="http://www.w3.org/2000/svg">
  <sodipodi:namedview
     id="namedview1"
     pagecolor="#9e652e"
     bordercolor="#ffffff"
     borderopacity="1"
     inkscape:showpageshadow="0"
     inkscape:pageopacity="0"
     inkscape:pagecheckerboard="false"
     inkscape:deskcolor="#d1d1d1"
     inkscape:document-units="mm"
     inkscape:zoom="2.0208096"
     inkscape:cx="176.66187"
     inkscape:cy="144.49654"
     inkscape:window-width="1920"
     inkscape:window-height="1009"
     inkscape:window-x="1912"
     inkscape:window-y="-8"
     inkscape:window-maximized="1"
     inkscape:current-layer="g3" />
  <defs
     id="defs1">
    <rect
       x="157.85752"
       y="62.351248"
       width="329.07603"
       height="135.09437"
       id="rect4" />
  </defs>
  <g
     inkscape:label="Layer 1"
     inkscape:groupmode="layer"
     id="layer1">
    <rect
       style="fill:#d0002b;fill-opacity:1;stroke:none;stroke-width:0.953294;stroke-dasharray:none"
       id="rect5"
       width="132.29167"
       height="66.145836"
       x="-2.5431316e-06"
       y="-1.2715658e-06"
       ry="0" />
    <g
       id="g3"
       transform="matrix(1.1854712,0,0,1.1854712,-11.049911,-14.663718)">
      <g
         id="g2"
         transform="matrix(0.83648094,0,0,0.83648094,15.758328,9.7306623)">
        <g
           id="g4"
           transform="translate(1.0672727)">
          <path
             id="rect6"
             style="fill:#d0002b;stroke:#ffffff;stroke-width:0.575409"
             d="m 9.3009131,19.849001 h 5.7010479 c 1.810115,0 3.267355,1.45724 3.267355,3.267355 v 9.524719 c 0,1.810115 -1.45724,3.267355 -3.267355,3.267355 H 9.3009131 c -1.8101145,0 -3.2673547,-1.45724 -3.2673547,-3.267355 v -9.524719 c 0,-1.810115 1.4572402,-3.267355 3.2673547,-3.267355 z" />
          <path
             style="font-weight:bold;font-size:5.82083px;line-height:1.25;font-family:'Optima Bold';-inkscape-font-specification:'Optima Bold,  Bold';fill:#f9f9f9;stroke-width:0.264583"
             d="m 10.761052,26.948961 v -4.033835 h 0.232833 1.420283 q 0.291041,0.01164 0.506412,0.08149 0.221191,0.06985 0.360891,0.203729 0.1397,0.1397 0.20955,0.314325 0.06985,0.168804 0.06985,0.372533 0,0.197908 -0.05821,0.360891 -0.05239,0.157163 -0.168804,0.273579 -0.110596,0.116417 -0.238654,0.203729 -0.122238,0.08731 -0.256117,0.1397 -0.06403,0.02328 -0.128058,0.04657 -0.05821,0.02328 -0.122238,0.03493 -0.05821,0.01746 -0.116416,0.0291 -0.05821,0.0058 -0.104775,0.01164 l 1.559982,1.961619 H 13.69475 q -0.02328,0 -0.04657,0 -0.01746,0 -0.04074,-0.0058 -0.02328,0 -0.04657,0 -0.01746,-0.0058 -0.03493,-0.01164 -0.01746,0 -0.03492,0 -0.01164,0 -0.02328,0 -0.0058,0 -0.01164,0 -0.0058,0 -0.01746,0 -0.0058,0.0058 -0.01164,0.0058 -0.0058,0 -0.01746,0 -0.04074,0.0058 -0.08731,0.01164 -0.04075,0 -0.08731,0 h -0.232834 l -1.461028,-1.868486 v 1.868486 H 11.30821 q -0.01746,0 -0.03493,0 -0.01746,0 -0.03492,-0.0058 -0.0058,0 -0.01746,0 -0.0058,0 -0.01164,-0.0058 -0.01164,0 -0.01746,0 -0.0058,-0.0058 -0.01746,-0.0058 -0.0058,0 -0.01164,0 -0.0058,0 -0.0058,0 -0.0058,0.0058 -0.01164,0.0058 -0.0058,0 -0.01164,0 -0.03492,0.0058 -0.06985,0.01164 -0.03492,0 -0.06985,0 h -0.232833 v 0 z m 0.779991,-2.153707 q 0.01164,0.01164 0.0291,0.01746 0.01746,0 0.03492,0 0.221192,-0.0058 0.395817,-0.04075 0.174624,-0.03493 0.291041,-0.104775 0.133879,-0.07567 0.221192,-0.157162 0.09313,-0.08731 0.14552,-0.180446 0.04075,-0.06403 0.06403,-0.128058 0.0291,-0.06985 0.03492,-0.128059 0.01164,-0.06403 0.01164,-0.110595 0.0058,-0.04657 0.0058,-0.07567 0,-0.0291 -0.0058,-0.06403 -0.0058,-0.03493 -0.01746,-0.08149 -0.0058,-0.04657 -0.0291,-0.09313 -0.02328,-0.04657 -0.05239,-0.09895 -0.04075,-0.07567 -0.116417,-0.145521 -0.07567,-0.06985 -0.174624,-0.128058 -0.09896,-0.06403 -0.238654,-0.09313 -0.1397,-0.0291 -0.325967,-0.0291 l -0.273579,-0.01164 v 1.653115 0 z"
             id="text6"
             aria-label="R" />
          <path
             style="font-weight:bold;font-size:5.82083px;line-height:1.25;font-family:'Optima Bold';-inkscape-font-specification:'Optima Bold,  Bold';fill:#f9f9f9;stroke-width:0.264583"
             d="m 9.3516163,29.278575 q 0.1688041,-0.07567 0.3317873,-0.151341 0.1688041,-0.07567 0.3317874,-0.151342 0.162983,-0.06985 0.291041,-0.1397 0.133879,-0.06985 0.238654,-0.1397 l 0.232834,-0.0058 0.1397,0.04075 v 3.987269 h -0.232834 q -0.03492,-0.0058 -0.06403,-0.01746 -0.0291,-0.0058 -0.05821,-0.01164 -0.03492,0.0058 -0.06985,0.01164 -0.03493,0.01164 -0.08149,0.01746 H 10.178174 V 29.278575 L 9.7707161,29.511409 H 9.5378829 q -0.00582,0 -0.017462,-0.0058 -0.00582,-0.01164 -0.017463,-0.0291 -0.00582,-0.01164 -0.011642,-0.01746 -0.00582,-0.01164 -0.00582,-0.01746 -0.00582,-0.01164 -0.011642,-0.01746 -0.00582,-0.01164 -0.011642,-0.01746 -0.00582,-0.01164 -0.011642,-0.01746 -0.00582,-0.0058 -0.011642,-0.01746 -0.011642,-0.0058 -0.017462,-0.01164 -0.00582,-0.01164 -0.011642,-0.01746 -0.011642,-0.01746 -0.029104,-0.0291 -0.011642,-0.01746 -0.029104,-0.02328 v -0.01164 z M 12.791732,29.09813 q 0.01746,-0.0058 0.03493,-0.01746 0.02328,-0.01164 0.04657,-0.0291 0.02328,-0.01746 0.04657,-0.03493 0.0291,-0.02328 0.06403,-0.04657 0.04657,-0.03493 0.110596,-0.06403 0.06985,-0.03492 0.151342,-0.05821 0.08149,-0.0291 0.186266,-0.04075 0.104775,-0.01746 0.232834,-0.01746 l 0.232833,-0.0058 q 0.238654,0.0058 0.436562,0.05239 0.197908,0.04657 0.355071,0.145521 0.151341,0.09313 0.227012,0.267758 0.08149,0.168804 0.08149,0.407458 0,0.157163 -0.04657,0.302683 -0.04657,0.145521 -0.133879,0.285221 -0.08731,0.1397 -0.227012,0.232833 -0.1397,0.09313 -0.325967,0.145521 0.256117,0.03492 0.436562,0.116417 0.180446,0.07567 0.2794,0.209549 0.09895,0.128059 0.151342,0.291042 0.05239,0.157162 0.05239,0.343429 -0.01746,0.256116 -0.116416,0.471487 -0.09313,0.20955 -0.261938,0.378354 -0.174625,0.168804 -0.459845,0.250296 -0.2794,0.08149 -0.675217,0.08149 h -0.232833 q -0.04075,0 -0.08731,-0.0058 -0.04657,0 -0.09895,-0.0058 -0.05239,-0.0058 -0.110596,-0.01164 -0.05239,0 -0.110596,-0.01164 -0.06985,-0.01746 -0.133879,-0.03493 -0.06403,-0.01746 -0.128058,-0.0291 -0.06403,-0.02328 -0.116417,-0.05239 -0.05239,-0.0291 -0.08731,-0.06985 l 0.09313,-0.331787 0.09313,-0.04657 h 0.232833 q 0.05239,0.09895 0.128059,0.168804 0.08149,0.06985 0.180445,0.116417 0.07567,0.03493 0.151342,0.05821 0.07567,0.02328 0.157162,0.03493 0.13388,-0.01746 0.261938,-0.07567 0.128058,-0.05821 0.244475,-0.157162 0.133879,-0.110596 0.203729,-0.2794 0.07567,-0.168804 0.08731,-0.401637 0,-0.0058 0,-0.01164 0,-0.0058 0,-0.01164 0,0 0,-0.0058 0,-0.0058 0,-0.01164 0,-0.0058 0,-0.01164 0,-0.0058 0,-0.01164 0,0 0,-0.0058 0.0058,-0.0058 0.0058,-0.01164 0,-0.20955 -0.06403,-0.355071 -0.05821,-0.151341 -0.180446,-0.238654 -0.09895,-0.06985 -0.215371,-0.110595 -0.110595,-0.04657 -0.232833,-0.05821 0,0 0,0 0,0 0,0 -0.0058,0 -0.0058,0 0,0 0,0 -0.0058,0 -0.01746,0.0058 -0.0058,0 -0.01164,0 -0.01164,0.0058 -0.01746,0.0058 -0.0058,0 -0.01746,0 -0.0058,0 -0.01746,0 -0.0058,0 -0.01164,0 -0.01164,0.0058 -0.01746,0.0058 -0.0058,0 -0.01746,0 l -0.232833,-0.0058 0.01746,-0.03493 0.01164,-0.03492 v -0.0291 l 0.0058,-0.03493 q 0,-0.01164 -0.0058,-0.0291 0,-0.01746 -0.0058,-0.03493 -0.0058,-0.01746 -0.01164,-0.03492 0,-0.01746 -0.01164,-0.03493 l 0.232833,-0.0058 q 0.0058,0.0058 0.01164,0.01164 0.0058,0 0.01164,0 0.0058,0 0.01164,0.0058 0.0058,0 0.01164,0 0.01164,-0.0058 0.02328,-0.0058 0.01746,-0.0058 0.0291,-0.01164 0.104775,-0.01746 0.197908,-0.06985 0.09896,-0.05239 0.186267,-0.1397 0.08731,-0.08731 0.133879,-0.238654 0.05239,-0.157162 0.06403,-0.372533 0,-0.168804 -0.04657,-0.296862 -0.04657,-0.128059 -0.145521,-0.221192 -0.06985,-0.06403 -0.151342,-0.104775 -0.07567,-0.04657 -0.157162,-0.06403 -0.06403,0.01164 -0.128058,0.04075 -0.05821,0.02328 -0.122238,0.06403 -0.07567,0.05239 -0.1397,0.128058 -0.06403,0.07567 -0.110596,0.180446 l -0.09313,0.03493 h -0.232833 l -0.1397,-0.366712 v 0 z"
             id="text6-8"
             aria-label="13" />
        </g>
      </g>
      <path
         style="font-weight:600;font-size:14.8167px;line-height:1.25;font-family:'Noto Serif TC';-inkscape-font-specification:'Noto Serif TC Semi-Bold';letter-spacing:0px;fill:#ffffff;stroke-width:0.264583"
         d="M 38.314784,33.413686 V 30.88003 h 3.170773 c 0.04445,0.874185 0.148167,1.718737 0.325968,2.533656 z m 0,-5.778513 H 45.6046 v 2.815173 h -7.289816 z m 10.41614,8.786303 -0.177801,-0.02963 c -0.207434,0.548218 -0.474134,1.17052 -0.666751,1.48167 -0.133351,0.207434 -0.281518,0.251884 -0.592668,0.148167 -2.089155,-0.726018 -3.318941,-2.296588 -3.926426,-4.178309 h 5.022862 c 0.22225,0 0.370417,-0.07408 0.414867,-0.237067 -0.622301,-0.548218 -1.61502,-1.30387 -1.61502,-1.30387 l -0.874185,1.111253 H 43.233928 C 43.011678,32.598767 42.907961,31.754215 42.878327,30.88003 H 45.6046 v 0.785285 h 0.251884 c 0.459318,0 1.155702,-0.311151 1.170519,-0.414868 V 27.87224 c 0.311151,-0.05927 0.518585,-0.177801 0.622302,-0.296334 l -1.48167,-1.140886 -0.711202,0.770468 H 38.507401 L 36.907197,26.56837 v 11.097708 c 0,0.385235 -0.07408,0.503768 -0.577851,0.785286 l 0.814918,1.511303 c 0.133351,-0.07408 0.266701,-0.192617 0.385235,-0.370418 2.148421,-1.126069 3.926425,-2.192871 4.963594,-2.800356 l -0.05927,-0.192617 c -1.48167,0.474134 -2.96334,0.948269 -4.119042,1.289053 V 33.84337 h 3.600458 c 0.637118,2.444755 2.074338,4.474643 4.830244,5.541446 0.903819,0.3556 1.896537,0.533401 2.222505,-0.07408 0.1778,-0.311151 0.07408,-0.577851 -0.444501,-1.022352 z m 12.460844,-8.401069 h 2.578106 c 0.192617,0 0.340784,-0.07408 0.370418,-0.237067 -0.400051,-0.414868 -1.096436,-0.992719 -1.096436,-0.992719 l -0.577851,0.800101 H 61.191768 V 26.61282 c 0.311151,-0.04445 0.429685,-0.1778 0.459318,-0.3556 l -1.689104,-0.162984 v 2.844806 h 0.237067 c 0.444501,0 0.992719,-0.207434 0.992719,-0.296334 z m 1.051986,1.79282 v 1.43722 h -1.407586 v -1.43722 z m -3.348574,2.252139 c 0.2667,0.311151 0.518584,0.829735 0.518584,1.303869 0.859369,0.755652 1.955805,-0.548217 0.503768,-1.155702 h 0.01482 c 0.429684,0 0.903819,-0.251884 0.903819,-0.340784 v -0.192617 h 1.407586 v 0.563034 h 0.1778 c 0.355601,0 0.889002,-0.22225 0.903819,-0.325967 v -1.970621 c 0.237067,-0.04445 0.429684,-0.148167 0.503768,-0.237067 l -1.170519,-0.889002 -0.533402,0.563034 h -1.229786 l -1.126069,-0.474134 v 3.244857 c -0.207434,-0.07408 -0.444501,-0.13335 -0.740835,-0.1778 z m -3.763442,-4.044959 h 2.311405 v 0.992719 h 0.237067 c 0.429685,0 0.977903,-0.192617 0.977903,-0.296334 V 26.61282 c 0.31115,-0.04445 0.429684,-0.162983 0.459317,-0.340784 l -1.674287,-0.162983 v 1.481669 h -2.444755 z m 2.889257,1.79282 v 1.43722 h -1.39277 v -1.43722 z m -4.474644,0.370418 h 1.778004 c 0.0889,0 0.177801,-0.01482 0.237067,-0.04445 v 2.281772 h 0.162984 c 0.429684,0 0.903819,-0.237068 0.903819,-0.325968 v -0.414867 h 1.39277 v 0.385234 h 0.1778 c 0.340784,0 0.874185,-0.237067 0.874185,-0.325968 v -1.822454 c 0.222251,-0.04445 0.385234,-0.148167 0.459318,-0.22225 l -1.096436,-0.829735 -0.533401,0.518584 h -1.214969 l -1.12607,-0.474134 v 0.874185 C 55.102105,29.30946 54.464987,28.776058 54.464987,28.776058 l -0.681569,0.977903 h -0.237067 v -3.022607 c 0.385234,-0.05927 0.503768,-0.192617 0.548218,-0.414868 l -1.822454,-0.192617 v 3.630092 h -1.955804 l 0.118533,0.429684 h 1.629837 c -0.325967,2.192872 -0.903819,4.44501 -1.911354,6.163747 l 0.207434,0.177801 c 0.785285,-0.859369 1.407586,-1.822455 1.911354,-2.87444 v 6.311914 h 0.266701 c 0.459317,0 1.007535,-0.325967 1.007535,-0.474134 v -7.852851 c 0.370418,0.607484 0.770469,1.422403 0.829735,2.074338 0.992719,0.903818 2.118788,-1.155703 -0.829735,-2.415123 z m 3.807892,7.378717 h 1.970621 v 1.348319 h -1.970621 z m 1.970621,-3.511558 v 1.318686 h -1.970621 v -1.318686 z m 0,3.081873 h -1.970621 v -1.333503 h 1.970621 z m 2.82999,1.778004 H 60.55465 v -1.348319 h 2.681823 c 0.192617,0 0.340784,-0.07408 0.385234,-0.237068 -0.459318,-0.459317 -1.214969,-1.037169 -1.214969,-1.037169 l -0.666752,0.844552 H 60.55465 v -1.333503 h 2.69664 c 0.207433,0 0.340784,-0.07408 0.385234,-0.237067 -0.459318,-0.459318 -1.21497,-1.037169 -1.21497,-1.037169 L 61.76962,35.36949 h -1.21497 v -1.318686 h 3.037424 c 0.192617,0 0.340784,-0.07408 0.370417,-0.237068 -0.459317,-0.459317 -1.244603,-1.066802 -1.244603,-1.066802 l -0.681568,0.874185 h -4.48946 l -0.0889,-0.04445 c 0.192617,-0.281517 0.385234,-0.548218 0.533401,-0.814918 0.340784,0.05927 0.474135,-0.02963 0.548218,-0.192617 l -1.600204,-0.726019 c -0.40005,1.289053 -1.363136,3.141141 -2.459572,4.326477 l 0.162984,0.1778 c 0.518584,-0.340784 1.007536,-0.755652 1.466853,-1.200153 v 4.800611 h 0.207434 c 0.637118,0 1.037169,-0.22225 1.037169,-0.31115 v -0.296334 h 6.445265 c 0.207433,0 0.3556,-0.07408 0.385234,-0.237068 -0.474135,-0.474134 -1.30387,-1.111252 -1.30387,-1.111252 z m 10.756924,-8.415885 h -1.822454 v -2.592923 h 1.822454 z m 3.556008,0.429684 v 3.304124 c -0.103717,0.02963 -0.22225,0.04445 -0.311151,0.05927 -0.07408,0.01482 -0.207433,0.01482 -0.296334,0.01482 -0.118533,0.01482 -0.385234,0.01482 -0.637118,0.01482 h -0.651935 c -0.296334,0 -0.340784,-0.07408 -0.340784,-0.296334 v -3.09669 z m -8.860387,7.156466 V 30.92448 h 2.163239 c -0.01482,1.970621 -0.311151,3.941242 -2.133605,5.496996 l 0.148167,0.1778 c 2.889256,-1.452037 3.274491,-3.674542 3.304124,-5.674796 h 1.822454 v 3.467108 c 0,0.859368 0.1778,1.170519 1.244603,1.170519 h 0.918635 c 0.607485,0 1.066803,-0.02963 1.39277,-0.0889 v 2.607739 z M 76.393703,27.472189 H 65.162644 l 0.118534,0.429684 h 4.48946 v 2.592923 h -2.000255 l -1.540937,-0.622302 v 9.867922 h 0.237068 c 0.696384,0 1.140885,-0.296334 1.140885,-0.385234 V 38.51063 h 8.860387 v 1.17052 h 0.237067 c 0.696385,0 1.17052,-0.311151 1.17052,-0.385235 V 31.05783 c 0.340784,-0.07408 0.518584,-0.162983 0.622301,-0.296334 l -1.39277,-1.111252 -0.711201,0.844552 h -2.163239 v -2.474389 -0.118534 h 4.341293 c 0.222251,0 0.355601,-0.07408 0.400051,-0.237067 -0.622301,-0.563035 -1.674287,-1.318686 -1.674287,-1.318686 z m 5.452545,0.192617 h 2.178055 v 3.155957 h -2.178055 z m 1.866904,6.371181 h 1.911355 c 0.207433,0 0.340784,-0.07408 0.385234,-0.237067 -0.444501,-0.488951 -1.244603,-1.200153 -1.244603,-1.200153 l -0.681568,1.007536 h -0.370418 v -2.355856 h 0.311151 v 0.459318 h 0.207434 c 0.400051,0 1.022352,-0.237067 1.037169,-0.325967 V 27.87224 c 0.296334,-0.05927 0.503768,-0.177801 0.592668,-0.281518 l -1.363137,-1.022352 -0.622301,0.666752 h -1.837271 l -1.452036,-0.563035 v 5.245112 h 0.207433 c 0.651935,0 1.051986,-0.296334 1.051986,-0.385234 v -0.281518 h 0.622302 v 6.326731 l -0.770469,0.177801 v -4.578361 c 0.266701,-0.02963 0.370418,-0.148167 0.400051,-0.31115 l -1.511303,-0.148167 v 5.274745 c -0.355601,0.07408 -0.651935,0.118533 -0.874186,0.162984 l 0.637118,1.57057 c 0.162984,-0.02963 0.296334,-0.177801 0.355601,-0.355601 2.400306,-1.007536 4.148676,-1.822454 5.363646,-2.415122 l -0.04445,-0.207434 c -0.785286,0.192617 -1.570571,0.385234 -2.311406,0.548218 z m 6.963849,0.622301 h -2.844806 l -1.126069,-0.444501 c 1.037169,-0.503767 1.926171,-1.126069 2.696639,-1.807637 0.533401,0.577851 1.140886,1.081619 1.896538,1.52612 z m -3.022606,3.793076 v -3.363391 h 3.067056 v 3.363391 z m 2.978156,-9.97164 c -0.325967,0.889002 -0.785285,1.733554 -1.363136,2.533656 -0.533401,-0.488951 -0.977902,-1.037169 -1.333503,-1.644654 0.207434,-0.281517 0.400051,-0.577851 0.577851,-0.889002 z M 91.40302,27.279572 90.617735,28.05004 H 88.75083 c 0.162984,-0.311151 0.325968,-0.622301 0.459318,-0.963085 0.325967,0.01482 0.503768,-0.118534 0.577851,-0.296334 l -1.866904,-0.622302 c -0.518584,2.148422 -1.52612,4.13386 -2.622556,5.363646 l 0.177801,0.148167 c 0.814918,-0.503768 1.555753,-1.17052 2.207688,-1.985438 0.311151,0.696385 0.666751,1.34832 1.096436,1.940988 -1.081619,1.289052 -2.489206,2.385488 -4.163493,3.170773 l 0.103717,0.207434 c 0.577851,-0.1778 1.111252,-0.385234 1.61502,-0.622301 v 5.556262 h 0.222251 c 0.681568,0 1.096436,-0.237067 1.096436,-0.340784 v -0.726018 h 3.067056 V 39.9034 h 0.251884 c 0.681569,0 1.140886,-0.251884 1.140886,-0.325967 v -4.40056 c 0.325968,-0.04445 0.459318,-0.13335 0.563035,-0.251884 L 91.62527,34.124887 c 0.385234,0.207434 0.814919,0.385234 1.25942,0.563035 0.103717,-0.681568 0.429684,-1.066803 0.992719,-1.244603 l 0.02963,-0.148167 c -1.52612,-0.355601 -2.770723,-0.889002 -3.778259,-1.600204 0.829736,-0.903818 1.48167,-1.926171 1.970622,-3.00779 0.3556,-0.02963 0.503767,-0.07408 0.622301,-0.22225 z"
         id="text7"
         aria-label="民權西路" />
      <path
         style="font-weight:bold;font-size:5.82083px;line-height:1.25;font-family:'Optima Bold';-inkscape-font-specification:'Optima Bold,  Bold';fill:#f9f9f9;stroke-width:0.264583"
         d="m 39.069984,46.70705 0.552979,-4.033835 h 0.232833 0.180446 l 1.490132,2.852207 1.530879,-2.852207 h 0.232833 0.186266 l 0.459846,4.033835 h -0.232833 q -0.03493,0 -0.06985,0 -0.03493,-0.0058 -0.06403,-0.01164 -0.01164,0 -0.0291,0 -0.01164,0 -0.02328,-0.0058 0,0 -0.0058,0.0058 0,0 -0.0058,0 -0.0058,0 -0.01164,0 0,0 0,0 -0.03493,0.0058 -0.07567,0.01164 -0.03493,0 -0.08149,0 h -0.232833 l -0.238654,-2.642656 -1.315507,2.549523 h -0.232834 -0.09313 L 39.95475,44.116781 39.716096,46.70705 h -0.232833 q -0.01746,0 -0.04075,0 -0.01746,-0.0058 -0.04075,-0.01164 0,0 0,0 0,0 0,0 -0.0058,0 -0.01164,0 0,0 -0.0058,0 -0.0058,0.0058 -0.01164,0.0058 0,0 0,0 -0.01746,0.0058 -0.03493,0.0058 -0.01746,0 -0.03493,0 h -0.232833 v 0 z m 5.966352,-4.033835 q 0.02911,0.01746 0.05239,0.0291 0.0291,0.0058 0.06403,0.01164 0.0058,0 0.0058,0 0.0058,0 0.01164,0 0.0058,0 0.0058,0 0.0058,0 0.01164,0 0.03493,-0.0058 0.06403,-0.01164 0.03492,-0.01164 0.05821,-0.01746 l 0.232834,-0.0058 v 4.028014 h -0.232834 q -0.02328,0 -0.05821,0 -0.0291,-0.0058 -0.05821,-0.01164 -0.0058,0 -0.01164,0 0,0 -0.0058,0 -0.0058,0 -0.01164,0 -0.0058,0 -0.01164,0 -0.03492,0.0058 -0.06403,0.01164 -0.02328,0 -0.05239,0 h -0.232833 v -4.033835 h 0.232833 v 0 z m 1.606549,4.033835 v -4.033835 h 0.232834 0.279399 l 2.561166,2.817282 v -2.817282 h 0.232833 q 0.01164,0.01746 0.0291,0.02328 0.01746,0.0058 0.03493,0.01164 0.02328,-0.0058 0.04075,-0.01164 0.01746,-0.0058 0.0291,-0.01164 l 0.232833,-0.0058 v 4.028014 h -0.232833 -0.227012 l -2.613553,-2.904594 v 2.904594 h -0.232833 q -0.0058,0 -0.01164,0 -0.0058,0 -0.01164,0 -0.01164,0 -0.01746,0 -0.0058,-0.0058 -0.01164,-0.0058 -0.01164,0 -0.02328,0 -0.0058,0 -0.01746,0.0058 -0.01164,0 -0.02328,0 -0.0058,0 -0.01746,0 h -0.232834 v 0 z m 4.452934,-2.060573 q 0.01746,-0.494771 0.186267,-0.873125 0.174625,-0.378354 0.500591,-0.646112 0.325967,-0.267758 0.704321,-0.401637 0.378353,-0.133879 0.809095,-0.133879 l 0.232833,-0.0058 q 0.518054,0.0058 0.91387,0.151341 0.401638,0.1397 0.686858,0.424921 0.2794,0.285221 0.430742,0.657754 0.151341,0.372533 0.168804,0.838199 0,0.343429 -0.09895,0.657754 -0.09313,0.314325 -0.2794,0.599545 -0.186267,0.285221 -0.471487,0.483129 -0.285221,0.197909 -0.663575,0.308504 l 1.286403,0.960437 q -0.01164,0.0058 -0.02328,0.01164 -0.01164,0.0058 -0.02328,0.01164 -0.01164,0 -0.02328,0.0058 -0.01164,0.0058 -0.02328,0.01164 -0.01164,0.0058 -0.02328,0.01164 -0.0058,0.0058 -0.01746,0.01164 -0.0058,0 -0.01746,0.0058 -0.0058,0.0058 -0.01746,0.01164 -0.03493,0.01746 -0.06985,0.03493 -0.03493,0.01746 -0.06403,0.03493 -0.0291,0.01746 -0.05821,0.04075 -0.0291,0.02328 -0.05821,0.04657 l -0.02328,0.01746 -0.01746,0.02328 h -0.232833 l -1.268941,-1.135062 q -0.0058,0 -0.01164,0 0,0 0,0 -0.0058,0 -0.01164,0 0,0 -0.0058,0 H 53.27863 q -0.529695,0 -0.931332,-0.14552 -0.401638,-0.151342 -0.675217,-0.454025 -0.267758,-0.308504 -0.413279,-0.640292 -0.139699,-0.337608 -0.157162,-0.70432 -0.0058,-0.01164 -0.0058,-0.02328 0,-0.01164 0,-0.0291 0,-0.01164 0,-0.02328 0,-0.01746 0,-0.03493 v -0.0291 -0.0291 -0.02328 -0.02328 -0.0058 z m 0.832379,0.0058 q 0,0.500592 0.104775,0.867304 0.104775,0.366712 0.314325,0.599546 0.192087,0.21537 0.454024,0.331787 0.267759,0.110596 0.605367,0.122237 0.372533,-0.01746 0.640291,-0.157162 0.273579,-0.1397 0.442383,-0.407458 0.186267,-0.291042 0.273579,-0.605367 0.09313,-0.314324 0.09313,-0.657753 0,-0.07567 -0.0058,-0.157163 0,-0.08731 -0.01164,-0.180445 -0.0058,-0.09313 -0.02328,-0.186267 -0.01164,-0.09313 -0.0291,-0.186267 -0.04657,-0.221191 -0.151341,-0.419099 -0.104775,-0.197909 -0.261938,-0.378354 -0.14552,-0.174625 -0.389995,-0.267758 -0.238654,-0.09313 -0.564621,-0.09896 -0.320145,0.01164 -0.582083,0.145521 -0.256116,0.133879 -0.459845,0.384175 -0.20955,0.267758 -0.320146,0.582083 -0.110596,0.314325 -0.128058,0.675216 z m 4.540247,0.494771 v -2.473853 h 0.232833 q 0.04075,0.01746 0.07567,0.0291 0.04075,0.0058 0.07567,0.01164 0.01746,0 0.03493,0 0.01746,0 0.03493,-0.0058 0.02328,-0.0058 0.04657,-0.01164 0.02328,-0.0058 0.04657,-0.01164 l 0.232833,-0.0058 v 2.380719 q 0,0.407459 0.08149,0.692679 0.08731,0.2794 0.261938,0.448204 0.157162,0.151342 0.35507,0.238654 0.197909,0.08149 0.430742,0.09313 0.291041,-0.01164 0.500591,-0.104775 0.215371,-0.09313 0.343429,-0.256116 0.1397,-0.186267 0.215371,-0.448204 0.08149,-0.267758 0.09895,-0.611187 v -2.438928 h 0.232833 q 0.01164,0.01164 0.01746,0.01746 0.0058,0 0.01746,0.0058 0.0058,0.0058 0.01164,0.01164 0.01164,0 0.01746,0 0.01164,0 0.01746,0 0.01164,-0.0058 0.01746,-0.01164 0.01164,-0.0058 0.01746,-0.0058 0.01164,-0.0058 0.01746,-0.0058 l 0.232833,-0.0058 v 2.334153 q 0,0.407458 -0.09895,0.733424 -0.09313,0.320146 -0.28522,0.564621 -0.192088,0.250296 -0.518054,0.372533 -0.325967,0.116417 -0.791633,0.116417 h -0.232833 q -0.01164,0 -0.0291,0 -0.01164,0 -0.02328,0 -0.01164,0 -0.0291,0 -0.01164,0 -0.02328,0 -0.483129,0 -0.809096,-0.122238 -0.325966,-0.122237 -0.49477,-0.372533 -0.162983,-0.256116 -0.250296,-0.541337 -0.08149,-0.285221 -0.08149,-0.605366 v -0.01164 z m 4.313233,1.559982 1.833561,-4.080401 h 0.232833 0.13388 l 1.792815,4.080401 h -0.232833 q -0.01746,0 -0.04075,0 -0.01746,0 -0.04075,0 -0.02328,0 -0.04657,0 -0.01746,0 -0.04657,0 -0.01164,0 -0.0291,0 -0.01164,0 -0.02328,-0.0058 -0.01164,0 -0.02911,0 -0.01164,0 -0.02328,0 -0.01164,0.0058 -0.0291,0.0058 -0.01164,0 -0.02328,0 -0.01164,0 -0.02328,0 -0.01164,0 -0.01746,0 -0.01164,0 -0.02328,0 -0.0058,0 -0.01746,0 h -0.232833 l -0.640291,-1.606549 h -1.18745 l -0.593724,1.606549 h -0.232834 q -0.01164,0 -0.0291,0 -0.01164,0 -0.02328,0 l -0.0291,-0.0058 q -0.0058,0.0058 -0.01746,0.0058 -0.01164,0 -0.01746,0 -0.01164,0 -0.02328,0 -0.0058,0 -0.01746,0 h -0.232833 q -0.01746,0 -0.03493,0 -0.01746,0 -0.03493,0 v 0 z m 1.426103,-1.880128 h 0.954616 l -0.477308,-1.140882 -0.477308,1.140882 z m 3.201455,1.880128 v -4.033835 h 0.232833 0.2794 l 2.561165,2.817282 v -2.817282 h 0.232833 q 0.01164,0.01746 0.0291,0.02328 0.01746,0.0058 0.03493,0.01164 0.02328,-0.0058 0.04075,-0.01164 0.01746,-0.0058 0.0291,-0.01164 l 0.232833,-0.0058 v 4.028014 h -0.232833 -0.227012 l -2.613553,-2.904594 v 2.904594 h -0.232833 q -0.0058,0 -0.01164,0 -0.0058,0 -0.01164,0 -0.01164,0 -0.01746,0 -0.0058,-0.0058 -0.01164,-0.0058 -0.01164,0 -0.02328,0 -0.0058,0 -0.01746,0.0058 -0.01164,0 -0.02328,0 -0.0058,0 -0.01746,0 h -0.232833 v 0 z m 7.345887,0 -1.280582,-3.987268 h 0.232833 q 0.04075,0.01746 0.07567,0.0291 0.04075,0.0058 0.07567,0.01164 0,0 0,0 0.0058,0 0.01164,0 0.0058,0 0.0058,0 0.0058,0 0.0058,0 0,0 0,0 0.0058,0 0.01164,0 0.0058,0 0.0058,0 0.0058,0 0.0058,0 0.03493,-0.0058 0.07567,-0.01164 0.04657,-0.01164 0.08731,-0.01746 l 0.232834,-0.0058 0.902228,2.980265 1.018645,-2.986086 h 0.232834 q 0.01164,0.01164 0.01746,0.01746 0.0058,0 0.01746,0.0058 0.0058,0.0058 0.01164,0.01164 0.01164,0 0.01746,0 0.01164,0 0.01746,0 0.01164,-0.0058 0.01746,-0.01164 0.01164,-0.0058 0.01746,-0.0058 0.01164,-0.0058 0.01746,-0.0058 l 0.232833,-0.0058 0.98372,2.939519 0.942975,-2.94534 h 0.232833 q 0.01164,0.01164 0.02328,0.01746 0.01164,0.0058 0.02328,0.01164 0.01164,0.0058 0.02328,0.0058 0.01746,0 0.0291,0 0,0 0,0 0,0 0,0 0.01164,0 0.01746,0 0.01164,-0.0058 0.02328,-0.01164 0.0058,-0.0058 0.01746,-0.0058 0.01164,-0.0058 0.01746,-0.0058 l 0.232833,-0.0058 -1.373716,3.981447 h -0.232833 q -0.02328,0 -0.04657,0 -0.01746,-0.0058 -0.04075,-0.01164 -0.01164,0 -0.02328,0.0058 -0.01164,0 -0.02328,0 -0.01164,0.0058 -0.02328,0.0058 -0.01164,0 -0.02328,0 h -0.232833 l -0.937154,-2.94534 -0.98372,2.94534 h -0.232833 q -0.01746,0 -0.04075,0 -0.01746,-0.0058 -0.04075,-0.01164 0,0 0,0 0,0 -0.0058,0 0,0 0,0 0,0 0,0 -0.03493,0.0058 -0.06985,0.01164 -0.03493,0 -0.06985,0 h -0.232833 v 0 z m 5.186362,-0.273579 q 0.01164,-0.09895 0.03493,-0.174625 0.0291,-0.08149 0.08149,-0.133879 0.05239,-0.04657 0.110596,-0.06985 0.05821,-0.0291 0.122238,-0.0291 l 0.232833,-0.0058 h 0.01164 0.01746 q 0.06403,0.01164 0.122237,0.04075 0.06403,0.0291 0.122238,0.08149 0.05239,0.05239 0.08149,0.116416 0.02911,0.05821 0.02911,0.1397 -0.0058,0.09313 -0.04075,0.162984 -0.03493,0.06403 -0.08731,0.110595 -0.05239,0.04075 -0.116416,0.05821 -0.05821,0.02328 -0.122238,0.02328 h -0.232833 -0.01164 -0.0058 q -0.05821,-0.0058 -0.116417,-0.0291 -0.05821,-0.01746 -0.110596,-0.04657 -0.05239,-0.04075 -0.08149,-0.09895 -0.02911,-0.05821 -0.04075,-0.133879 v -0.01164 z m 3.771897,0.273579 v -4.033835 h 0.232834 1.420282 q 0.291042,0.01164 0.506412,0.08149 0.221192,0.06985 0.360892,0.203729 0.1397,0.1397 0.20955,0.314325 0.06985,0.168804 0.06985,0.372533 0,0.197908 -0.05821,0.360891 -0.05239,0.157163 -0.168804,0.273579 -0.110596,0.116417 -0.238654,0.203729 -0.122237,0.08731 -0.256116,0.1397 -0.06403,0.02328 -0.128059,0.04657 -0.05821,0.02328 -0.122237,0.03493 -0.05821,0.01746 -0.116417,0.0291 -0.05821,0.0058 -0.104775,0.01164 l 1.559983,1.961619 h -0.232833 q -0.02328,0 -0.04657,0 -0.01746,0 -0.04075,-0.0058 -0.02328,0 -0.04657,0 -0.01746,-0.0058 -0.03493,-0.01164 -0.01746,0 -0.03493,0 -0.01164,0 -0.02328,0 -0.0058,0 -0.01164,0 -0.0058,0 -0.01746,0 -0.0058,0.0058 -0.01164,0.0058 -0.0058,0 -0.01746,0 -0.04075,0.0058 -0.08731,0.01164 -0.04075,0 -0.08731,0 H 83.954402 L 82.493374,44.838564 V 46.70705 H 82.26054 q -0.01746,0 -0.03493,0 -0.01746,0 -0.03493,-0.0058 -0.0058,0 -0.01746,0 -0.0058,0 -0.01164,-0.0058 -0.01164,0 -0.01746,0 -0.0058,-0.0058 -0.01746,-0.0058 -0.0058,0 -0.01164,0 -0.0058,0 -0.0058,0 -0.0058,0.0058 -0.01164,0.0058 -0.0058,0 -0.01164,0 -0.03493,0.0058 -0.06985,0.01164 -0.03493,0 -0.06985,0 h -0.232834 v 0 z m 0.779992,-2.153707 q 0.01164,0.01164 0.0291,0.01746 0.01746,0 0.03492,0 0.221191,-0.0058 0.395816,-0.04075 0.174625,-0.03493 0.291042,-0.104775 0.133879,-0.07567 0.221191,-0.157162 0.09313,-0.08731 0.145521,-0.180446 0.04075,-0.06403 0.06403,-0.128058 0.0291,-0.06985 0.03492,-0.128059 0.01164,-0.06403 0.01164,-0.110595 0.0058,-0.04657 0.0058,-0.07567 0,-0.0291 -0.0058,-0.06403 -0.0058,-0.03493 -0.01746,-0.08149 -0.0058,-0.04657 -0.0291,-0.09313 -0.02328,-0.04657 -0.05239,-0.09895 -0.04075,-0.07567 -0.116417,-0.145521 -0.07567,-0.06985 -0.174625,-0.128058 -0.09895,-0.06403 -0.238654,-0.09313 -0.1397,-0.0291 -0.325966,-0.0291 l -0.273579,-0.01164 v 1.653115 0 z m 3.300407,-1.880128 h 1.880128 q 0.500592,0.01164 0.844021,0.157163 0.34925,0.1397 0.547158,0.419099 0.197908,0.2794 0.296862,0.611188 0.09895,0.325966 0.09895,0.70432 0,0.09313 -0.01164,0.192087 -0.0058,0.09895 -0.02328,0.20955 -0.01746,0.110596 -0.04657,0.221192 -0.02328,0.104775 -0.06403,0.21537 -0.08731,0.232834 -0.238654,0.454025 -0.14552,0.215371 -0.35507,0.4191 -0.20955,0.197908 -0.518054,0.308504 -0.308504,0.110596 -0.710141,0.122237 H 87.26063 85.560948 v -4.033835 h 0.232833 v 0 z m 0.552979,0.2794 v 3.480856 q 0.06985,0.01164 0.133879,0.01746 0.06985,0.0058 0.133879,0.01164 0.01746,0 0.0291,0 0.01746,0 0.02911,0 0.01746,0.0058 0.0291,0.0058 0.01746,0 0.0291,0 0.471487,-0.01164 0.820737,-0.116416 0.34925,-0.104775 0.56462,-0.302683 0.227013,-0.20955 0.355071,-0.570442 0.133879,-0.360891 0.162983,-0.867303 0,-0.01164 0,-0.02328 0,-0.01164 0.0058,-0.02328 0,-0.01164 0,-0.02328 0,-0.01164 0,-0.02328 0,-0.02328 0,-0.04075 0,-0.02328 0,-0.04657 0,-0.395817 -0.104775,-0.669396 -0.09895,-0.273579 -0.302683,-0.430741 -0.203729,-0.157162 -0.430741,-0.256117 -0.221192,-0.09895 -0.465667,-0.133879 -0.0291,-0.0058 -0.05821,-0.0058 -0.0291,-0.0058 -0.05821,-0.0058 -0.03493,-0.0058 -0.06403,-0.0058 -0.02911,-0.0058 -0.05821,-0.0058 -0.01746,0 -0.03493,0 -0.01746,-0.0058 -0.0291,-0.0058 -0.01746,0 -0.03493,0 -0.01746,0 -0.03493,0 -0.01746,0 -0.03493,0 -0.01746,0 -0.03493,0 -0.02328,0 -0.04075,0.0058 -0.01746,0 -0.03493,0 -0.06403,0.0058 -0.122237,0.01164 -0.05821,0 -0.110596,0.0058 -0.04075,0.0058 -0.07567,0.01164 -0.03493,0 -0.06403,0 -0.0291,0.0058 -0.05821,0.01164 -0.02328,0 -0.04075,0 z m 3.853388,3.480856 q 0.01164,-0.09895 0.03493,-0.174625 0.0291,-0.08149 0.08149,-0.133879 0.05239,-0.04657 0.110595,-0.06985 0.05821,-0.0291 0.122238,-0.0291 l 0.232833,-0.0058 h 0.01164 0.01746 q 0.06403,0.01164 0.122238,0.04075 0.06403,0.0291 0.122237,0.08149 0.05239,0.05239 0.08149,0.116416 0.0291,0.05821 0.0291,0.1397 -0.0058,0.09313 -0.04075,0.162984 -0.03493,0.06403 -0.08731,0.110595 -0.05239,0.04075 -0.116416,0.05821 -0.05821,0.02328 -0.122238,0.02328 h -0.232833 -0.01164 -0.0058 q -0.05821,-0.0058 -0.116417,-0.0291 -0.05821,-0.01746 -0.110596,-0.04657 -0.05239,-0.04075 -0.08149,-0.09895 -0.0291,-0.05821 -0.04075,-0.133879 v -0.01164 z"
         id="text8"
         aria-label="MINQUAN W. RD." />
      <g
         id="g1"
         transform="translate(-13.023638,-2.6458334)">
        <path
           style="font-weight:500;font-size:5.82083px;line-height:1.25;font-family:'Noto Sans JP';-inkscape-font-specification:'Noto Sans JP Medium';fill:#ffffff;stroke-width:0.264583"
           d="m 54.382382,53.666009 h 0.570442 q 0.0291,0.582083 0.162983,1.100137 0.1397,0.518054 0.343429,0.919691 0.20955,0.395817 0.448204,0.622829 0.244475,0.221191 0.483129,0.215371 0.122237,0 0.174625,-0.197909 0.05821,-0.197908 0.08149,-0.657753 0.09313,0.08731 0.227013,0.162983 0.139699,0.06985 0.256116,0.104775 -0.04075,0.454024 -0.133879,0.698499 -0.09313,0.250296 -0.244475,0.343429 -0.151342,0.09313 -0.389996,0.09313 -0.395816,0 -0.739245,-0.273579 Q 55.27879,56.529857 55.011032,56.05837 54.749095,55.581062 54.586111,54.969875 54.423128,54.352867 54.382382,53.666009 Z M 52.6827,54.480925 h 4.319056 v 0.512233 H 52.6827 Z m -0.896408,1.932516 q 0.355071,-0.04075 0.832379,-0.09895 0.477308,-0.05821 1.001183,-0.128059 0.529695,-0.06985 1.05357,-0.139699 l 0.01746,0.541337 q -0.488949,0.06985 -0.989541,0.1397 -0.500591,0.07567 -0.960437,0.1397 -0.459845,0.06403 -0.838199,0.116416 z m 0.611187,-4.458756 H 52.9621 v 4.645022 h -0.564621 z m 0.2794,0 h 3.899956 v 1.82192 h -3.899956 v -0.512233 h 3.341157 v -0.797454 h -3.341157 z m 7.555437,0.285221 h 2.532061 v 0.465666 h -2.532061 z m 0.232834,2.712507 h 2.252661 v 0.372533 H 60.46515 Z m 0.0058,0.750887 h 2.252662 v 0.360891 H 60.47097 Z m -0.05821,0.756707 h 2.520419 v 0.4191 h -2.520419 z m -0.832379,-3.224739 h 3.346978 v 0.471487 h -3.346978 z m 2.019828,0.454024 0.541338,0.104775 q -0.09895,0.192088 -0.20373,0.378354 -0.104774,0.180446 -0.192087,0.314325 l -0.465666,-0.104775 q 0.08731,-0.145521 0.174625,-0.343429 0.09313,-0.197908 0.14552,-0.34925 z m -0.273579,0.76835 h 0.494771 v 2.200274 h -0.494771 z m -0.698499,-0.261937 h 2.206094 v 0.395816 h -2.206094 v 2.473853 H 60.1159 v -2.532061 l 0.331787,-0.337608 z m -0.343429,-2.555345 0.506412,0.116417 q -0.128058,0.42492 -0.337608,0.820737 -0.20955,0.395816 -0.442383,0.669395 -0.04075,-0.04075 -0.122238,-0.09313 -0.08149,-0.05821 -0.168804,-0.110596 -0.08149,-0.05239 -0.14552,-0.08149 0.238654,-0.244475 0.419099,-0.593725 0.186267,-0.355071 0.291042,-0.727604 z m 0.63447,0.797454 0.518054,0.116417 q -0.267758,0.890587 -0.715962,1.635653 -0.448204,0.745066 -1.030287,1.239837 -0.03493,-0.05821 -0.104775,-0.13388 -0.06985,-0.07567 -0.145521,-0.151341 -0.07567,-0.08149 -0.133879,-0.122238 0.564621,-0.430741 0.972079,-1.105957 0.413279,-0.675216 0.640291,-1.478491 z m -3.317873,0.471487 h 1.903412 v 0.512233 h -1.903412 z m 0.76835,-1.239837 h 0.500591 v 5.39591 h -0.500591 z m -0.01164,1.565804 0.320146,0.110595 q -0.06403,0.343429 -0.162983,0.715963 -0.09895,0.372533 -0.221192,0.733424 -0.122237,0.360892 -0.267758,0.669396 -0.1397,0.308504 -0.291042,0.529695 -0.04075,-0.110596 -0.122237,-0.250296 -0.07567,-0.1397 -0.1397,-0.232833 0.1397,-0.192087 0.273579,-0.459845 0.1397,-0.267759 0.256116,-0.570442 0.116417,-0.308504 0.20373,-0.628649 0.09313,-0.320146 0.151341,-0.617008 z m 0.465667,0.256116 q 0.05239,0.05821 0.157162,0.197908 0.110596,0.13388 0.227012,0.296863 0.122238,0.157162 0.221192,0.296862 0.09895,0.133879 0.1397,0.197908 L 59.2777,54.882563 q -0.05239,-0.110596 -0.145521,-0.267759 -0.08731,-0.162983 -0.192087,-0.337608 -0.09895,-0.174625 -0.192087,-0.325966 -0.09313,-0.151342 -0.157163,-0.238654 z m 5.232926,2.700865 h 4.045476 v 0.506412 h -4.045476 z m -0.355071,-2.887131 h 4.714872 v 3.731152 h -0.552979 v -3.22474 h -3.626377 v 3.236381 h -0.535516 z m 2.654298,0.221191 h 0.529696 v 1.152525 q 0,0.09895 0.02328,0.128058 0.0291,0.02328 0.128058,0.02328 0.02911,0 0.104775,0 0.08149,0 0.168804,0 0.08731,0 0.116417,0 0.06403,0 0.09313,-0.02328 0.0291,-0.0291 0.04075,-0.110596 0.01746,-0.08149 0.02328,-0.250296 0.05239,0.04075 0.13388,0.08149 0.08149,0.03493 0.168804,0.06403 0.08731,0.0291 0.162983,0.05239 -0.0291,0.261937 -0.09313,0.413278 -0.06403,0.145521 -0.174625,0.203729 -0.110596,0.05821 -0.285221,0.05821 -0.04075,0 -0.116417,0 -0.07567,0 -0.162983,0 -0.08149,0 -0.157162,0 -0.06985,0 -0.104775,0 -0.244475,0 -0.372533,-0.05821 -0.128059,-0.05821 -0.180446,-0.197908 -0.04657,-0.1397 -0.04657,-0.384174 z m -2.898773,-1.507595 h 5.168897 v 0.535517 h -5.168897 z m 1.618191,0.389996 h 0.541337 v 1.187449 h -0.541337 z m 1.286403,0 h 0.552979 v 1.187449 H 66.36165 Z m -1.257299,1.018645 h 0.512233 v 0.570441 q 0,0.2794 -0.08149,0.582083 -0.07567,0.296863 -0.296862,0.576263 -0.215371,0.273579 -0.63447,0.488949 -0.03492,-0.05239 -0.110596,-0.122237 -0.06985,-0.06985 -0.145521,-0.133879 -0.07567,-0.06985 -0.133879,-0.104775 0.384175,-0.186267 0.570441,-0.401637 0.192088,-0.221192 0.256117,-0.448204 0.06403,-0.232834 0.06403,-0.448204 z m 6.973355,2.94534 h 1.885948 v 0.477308 h -1.885948 z m 0.273579,-4.126968 h 1.507595 v 0.471487 h -1.507595 z m -0.48895,2.689223 h 2.339973 v 2.10714 h -0.529695 v -1.641474 h -1.303866 v 1.658937 h -0.506412 z m 1.804457,-2.689223 h 0.09895 l 0.09895,-0.02328 0.34925,0.151342 q -0.162983,0.541337 -0.430741,0.989541 -0.267758,0.448204 -0.611187,0.809095 -0.343429,0.355071 -0.745067,0.622829 -0.395816,0.267758 -0.820737,0.448204 -0.05239,-0.09313 -0.14552,-0.215371 -0.08731,-0.128058 -0.168804,-0.197908 0.384174,-0.145521 0.750887,-0.384175 0.372533,-0.244475 0.692678,-0.56462 0.320146,-0.320146 0.5588,-0.710141 0.238654,-0.389996 0.372533,-0.832379 z m -1.251478,-0.582083 0.523874,0.128058 q -0.128058,0.395816 -0.308504,0.768349 -0.180445,0.372534 -0.401637,0.692679 -0.215371,0.314325 -0.459845,0.5588 -0.04075,-0.05239 -0.122238,-0.116417 -0.07567,-0.06985 -0.162983,-0.133879 -0.08149,-0.06985 -0.1397,-0.110596 0.34925,-0.314324 0.62865,-0.785812 0.28522,-0.477308 0.442383,-1.001182 z m -0.05821,0.861482 q 0.128059,0.302684 0.331788,0.622829 0.20955,0.320146 0.49477,0.617008 0.291042,0.296863 0.657754,0.541337 0.366712,0.244475 0.814916,0.401638 -0.05239,0.05239 -0.122237,0.1397 -0.06403,0.08149 -0.122238,0.168804 -0.05821,0.08149 -0.09895,0.157162 -0.448204,-0.186267 -0.820737,-0.459846 -0.366712,-0.273579 -0.657754,-0.599545 -0.28522,-0.325966 -0.500591,-0.663575 -0.20955,-0.343429 -0.343429,-0.657753 z m -2.927877,1.717145 h 0.454025 v 2.112962 h -0.454025 z m 0.506412,-1.868486 v 0.902229 h 0.948795 v -0.902229 z m -0.48895,-0.471487 h 1.949978 v 1.851024 H 69.44669 Z m 0.820738,1.641474 h 0.49477 v 2.631015 h -0.49477 z m -1.1176,2.741611 q 0.296862,-0.05821 0.681037,-0.1397 0.384175,-0.08149 0.809096,-0.180446 0.430741,-0.09895 0.855662,-0.197908 l 0.05239,0.488949 q -0.611187,0.151342 -1.222374,0.302684 -0.605367,0.14552 -1.082675,0.256116 z m 1.303866,-1.757891 h 0.995362 v 0.483129 h -0.995362 z"
           id="text9"
           aria-label="民権西路" />
        <path
           style="font-weight:500;font-size:5.82083px;line-height:1.25;font-family:'Noto Sans KR';-inkscape-font-specification:'Noto Sans KR Medium';fill:#ffffff;stroke-width:0.264583"
           d="m 78.530648,52.187519 h 2.52042 v 2.52624 h -2.52042 z m 1.926695,0.488949 h -1.33297 v 1.548341 h 1.33297 z m 1.571624,-0.925512 h 0.611187 v 3.806823 h -0.611187 z m -2.858027,4.674127 h 3.620556 v 0.49477 H 79.17094 Z m 0,-1.222374 h 0.605366 v 1.437745 H 79.17094 Z m 5.89068,-2.491316 h 0.494771 v 0.06985 q 0,0.389996 -0.174625,0.721783 -0.168804,0.331788 -0.500592,0.564621 -0.325966,0.232833 -0.803274,0.343429 l -0.250296,-0.477308 q 0.395817,-0.08731 0.669396,-0.256117 0.273579,-0.168804 0.419099,-0.401637 0.145521,-0.232833 0.145521,-0.494771 z m 0.116417,0 h 0.49477 v 0.06985 q 0,0.244475 0.1397,0.459846 0.145521,0.215371 0.4191,0.378354 0.273579,0.157162 0.663574,0.238654 l -0.244474,0.471487 q -0.471488,-0.09895 -0.803275,-0.320146 -0.325966,-0.227012 -0.500591,-0.541337 -0.168804,-0.314325 -0.168804,-0.686858 z m -1.228195,-0.395816 h 2.834744 v 0.477308 h -2.834744 z m 1.111778,-0.5588 h 0.611187 v 0.890587 H 85.06162 Z m 0,3.026832 h 0.617008 v 2.124603 H 85.06162 Z m 2.345795,-3.032653 h 0.605366 v 5.320239 h -0.605366 z m -3.719511,3.469215 -0.07567,-0.506412 q 0.494771,0 1.076854,-0.0058 0.587904,-0.01164 1.19327,-0.04657 0.611187,-0.03493 1.175808,-0.110595 l 0.04075,0.442383 q -0.582083,0.104775 -1.18745,0.151341 -0.599545,0.04657 -1.169987,0.06403 -0.56462,0.01164 -1.05357,0.01164 z m 8.824379,-3.475035 h 0.605366 v 3.899956 h -0.605366 z m 0.42492,1.577445 h 0.931333 v 0.506412 h -0.931333 z m -3.183993,3.143248 h 3.585631 v 0.49477 H 89.75321 Z m 0,-1.222375 h 0.611187 v 1.437745 H 89.75321 Z m 0.692678,-3.137427 q 0.401638,0 0.721783,0.174625 0.320146,0.168804 0.506412,0.471487 0.186267,0.296863 0.186267,0.686858 0,0.384175 -0.186267,0.686858 -0.186266,0.296862 -0.506412,0.471487 -0.320145,0.168804 -0.721783,0.168804 -0.395816,0 -0.715962,-0.168804 -0.320145,-0.174625 -0.506412,-0.471487 -0.186267,-0.302683 -0.186267,-0.686858 0,-0.389995 0.186267,-0.686858 0.186267,-0.302683 0.506412,-0.471487 0.320146,-0.174625 0.715962,-0.174625 z m 0,0.529696 q -0.227012,0 -0.413279,0.09895 -0.186266,0.09895 -0.296862,0.2794 -0.104775,0.180445 -0.104775,0.42492 0,0.238654 0.104775,0.4191 0.110596,0.174625 0.296862,0.273579 0.186267,0.09895 0.413279,0.09895 0.232833,0 0.4191,-0.09895 0.192087,-0.09895 0.296862,-0.273579 0.104775,-0.180446 0.104775,-0.4191 0,-0.244475 -0.104775,-0.42492 -0.104775,-0.180446 -0.296862,-0.2794 -0.186267,-0.09895 -0.4191,-0.09895 z m 5.232927,-0.448204 h 0.500592 v 0.873124 q 0,0.483129 -0.104775,0.931333 -0.104775,0.448204 -0.308504,0.838199 -0.197908,0.389996 -0.483129,0.686858 -0.2794,0.296863 -0.640291,0.471488 l -0.366713,-0.500592 q 0.320146,-0.14552 0.576263,-0.395816 0.261937,-0.256117 0.442383,-0.582083 0.186266,-0.325967 0.28522,-0.6985 0.09895,-0.372533 0.09895,-0.750887 z m 0.110596,0 h 0.500592 v 0.873124 q 0,0.366712 0.09313,0.721783 0.09895,0.355071 0.2794,0.669396 0.180445,0.314324 0.436562,0.552978 0.256116,0.238654 0.56462,0.384175 l -0.35507,0.48895 q -0.355071,-0.168804 -0.634471,-0.454025 -0.2794,-0.285221 -0.477308,-0.657754 -0.197908,-0.372533 -0.302683,-0.809095 -0.104775,-0.436562 -0.104775,-0.896408 z m 2.299228,-0.442383 h 0.611187 v 5.33188 h -0.611187 z m 2.153711,0.197908 h 3.67876 v 1.47267 H 100.871 v 0.867303 h -0.61701 v -1.327149 h 3.05593 v -0.529695 h -3.06757 z m 0.0116,2.043111 h 3.79518 v 0.494771 h -3.79518 z m -0.576264,0.972079 h 4.819644 v 0.49477 h -4.819644 z m 2.095494,0.180445 h 0.60537 v 1.938337 h -0.60537 z"
           id="text9-3"
           aria-label="민취안시루" />
      </g>
    </g>
  </g>
</svg>
