<?xml version="1.0" encoding="UTF-8" standalone="no"?>
<!-- Created with Inkscape (http://www.inkscape.org/) -->

<svg
   width="500"
   height="250"
   viewBox="0 0 132.29166 66.145833"
   version="1.1"
   id="svg1"
   inkscape:version="1.3.2 (091e20e, 2023-11-25, custom)"
   sodipodi:docname="r14.svg"
   xmlns:inkscape="http://www.inkscape.org/namespaces/inkscape"
   xmlns:sodipodi="http://sodipodi.sourceforge.net/DTD/sodipodi-0.dtd"
   xmlns="http://www.w3.org/2000/svg"
   xmlns:svg="http://www.w3.org/2000/svg">
  <sodipodi:namedview
     id="namedview1"
     pagecolor="#9e652e"
     bordercolor="#ffffff"
     borderopacity="1"
     inkscape:showpageshadow="0"
     inkscape:pageopacity="0"
     inkscape:pagecheckerboard="false"
     inkscape:deskcolor="#d1d1d1"
     inkscape:document-units="mm"
     inkscape:zoom="2.0208096"
     inkscape:cx="275.6321"
     inkscape:cy="128.6613"
     inkscape:window-width="1920"
     inkscape:window-height="1009"
     inkscape:window-x="1912"
     inkscape:window-y="-8"
     inkscape:window-maximized="1"
     inkscape:current-layer="layer1" />
  <defs
     id="defs1">
    <rect
       x="560.66638"
       y="34.144731"
       width="279.32397"
       height="128.59143"
       id="rect6" />
    <rect
       x="157.85752"
       y="62.351248"
       width="541.85369"
       height="99.322566"
       id="rect4" />
    <rect
       x="157.85751"
       y="62.35125"
       width="329.07602"
       height="135.09438"
       id="rect4-5" />
    <rect
       x="157.85751"
       y="62.35125"
       width="470.56151"
       height="119.92888"
       id="rect4-5-3" />
  </defs>
  <g
     inkscape:label="Layer 1"
     inkscape:groupmode="layer"
     id="layer1">
    <path
       id="rect5"
       style="fill:#d0002b;stroke-width:0.953294"
       d="M -2.5431316e-6,-1.2715658e-6 H 132.29167 V 66.145835 H -2.5431316e-6 Z" />
    <g
       id="g16"
       transform="translate(21.813982)">
      <path
         id="rect1"
         style="fill-opacity:0;stroke:#ffffff;stroke-width:0.810881"
         d="m 18.989333,16.971979 h 10.686722 c 3.377614,0 6.096777,2.719163 6.096777,6.096777 v 20.00832 c 0,3.377614 -2.719163,6.096777 -6.096777,6.096777 H 18.989333 c -3.377614,0 -6.096777,-2.719163 -6.096777,-6.096777 v -20.00832 c 0,-3.377614 2.719163,-6.096777 6.096777,-6.096777 z" />
      <path
         style="font-size:12.2918px;line-height:1.25;font-family:'AR UDJingXiHeiE1G30 EB';-inkscape-font-specification:'AR UDJingXiHeiE1G30 EB';fill:#ffffff;stroke-width:0.256079"
         d="m 26.182626,24.962252 q 0,-0.651466 -0.344171,-0.983344 -0.34417,-0.344171 -0.995635,-0.344171 h -2.667321 v 2.765655 h 2.581278 q 0.639174,0 1.032511,-0.381046 0.393338,-0.381045 0.393338,-1.057094 z m -4.007127,2.642737 V 31.30482 H 20.61444 v -8.886971 h 4.523383 q 1.216888,0 1.929812,0.651465 0.725216,0.639174 0.725216,1.819187 0,0.774383 -0.368754,1.327514 -0.356462,0.553131 -0.897301,0.786675 0.688341,0.393338 1.057095,1.36439 0.368754,0.971052 0.467088,2.93774 h -1.622517 q -0.07375,-2.065022 -0.454797,-2.876281 -0.368754,-0.82355 -1.192304,-0.82355 z"
         id="text2"
         aria-label="R" />
      <path
         style="font-size:12.3781px;line-height:1.25;font-family:'AR UDJingXiHeiE1G30 EB';-inkscape-font-specification:'AR UDJingXiHeiE1G30 EB';fill:#ffffff;stroke-width:0.225056"
         d="m 20.111735,36.092907 -1.448238,1.349213 -0.71793,-1.101651 2.327083,-2.116655 h 1.349213 v 8.949366 h -1.510128 z m 8.528502,5.14929 h -3.874345 v -1.089273 l 3.800076,-5.92911 h 1.596775 v 5.780573 h 1.17592 v 1.23781 h -1.17592 v 1.930983 h -1.522506 z m -2.302327,-1.23781 h 2.302327 v -3.639162 z"
         id="text3"
         aria-label="14" />
      <path
         style="font-weight:500;font-size:72px;line-height:1.25;font-family:'Noto Sans TC';-inkscape-font-specification:'Noto Sans TC Medium';white-space:pre;fill:#ffffff"
         d="m 185.21742,90.945406 v 3.456 h 16.848 v -3.456 z m -5.616,-3.384 h 28.368 v 10.296 h -28.368 z m 2.736,22.248004 v 2.88 h 22.464 v -2.88 z m 0,6.192 v 3.024 h 22.464 v -3.024 z m 0,-12.384 v 2.88 h 22.464 v -2.88 z m -5.76,-3.456 h 34.272 v 22.32 h -34.272 z m 9.144,21.888 5.112,1.728 q -2.664,2.016 -6.552,3.96 -3.816,1.872 -7.272,3.096 -0.432,-0.504 -1.152,-1.224 -0.72,-0.72 -1.512,-1.368 -0.72,-0.72 -1.368,-1.152 3.528,-0.936 7.056,-2.232 3.528,-1.296 5.688,-2.808 z m 10.728,2.52 4.032,-2.592 q 3.672,1.368 7.488,3.168 3.888,1.728 6.336,3.312 l -5.616,2.448 q -2.088,-1.44 -5.472,-3.168 -3.312,-1.8 -6.768,-3.168 z m -33.048,-46.656004 h 60.912 v 63.792004 h -6.768 V 84.033406 h -47.664 v 57.672004 h -6.48 z m 4.104,54.432004 h 53.712 v 6.192 h -53.712 z m 94.68,-56.952004 h 7.2 v 56.880004 h -7.2 z m 25.488,14.328 h 7.056 v 51.552004 h -7.056 z m -50.472,0.216 h 6.984 v 39.168004 h 46.944 v 6.912 h -53.928 z"
         id="text4"
         transform="matrix(0.22505692,0,0,0.22505692,3.4694169,1.1325221)"
         aria-label="圓山" />
      <path
         style="font-size:6.30159px;line-height:1.25;font-family:'AR UDJingXiHeiE1G30 EB';-inkscape-font-specification:'AR UDJingXiHeiE1G30 EB';fill:#ffffff;stroke-width:0.225056"
         d="m 41.732106,37.253665 1.298128,-2.016509 h 0.894826 l -1.795953,2.678176 v 1.877874 h -0.800302 v -1.877874 l -1.827461,-2.678176 h 0.91373 z m 6.522149,0.945238 q 0,0.794001 -0.497825,1.235112 -0.497826,0.441111 -1.417858,0.441111 -0.932635,0 -1.436763,-0.434809 -0.497825,-0.43481 -0.497825,-1.235112 v -2.968049 h 0.800302 v 2.930239 q 0,0.516731 0.283571,0.800302 0.283572,0.283572 0.850715,0.283572 0.535635,0 0.819207,-0.270969 0.289873,-0.27727 0.289873,-0.825508 v -2.917636 h 0.806603 z m 3.44067,-0.245762 -0.718381,-1.947191 -0.730985,1.947191 z m -1.682524,0.623858 -0.453715,1.216207 h -0.812905 l 1.833763,-4.55605 h 0.819206 l 1.82116,4.55605 H 52.3881 l -0.460016,-1.216207 z m 4.530837,-2.073223 v 3.28943 h -0.800302 v -4.55605 h 0.825508 l 2.237065,3.365049 v -3.365049 h 0.800302 v 4.55605 H 56.72989 Z m 5.621013,1.22881 q -0.83181,-0.151239 -1.235111,-0.466318 -0.403302,-0.31508 -0.403302,-0.882223 0,-0.529333 0.428508,-0.875921 0.43481,-0.346587 1.335937,-0.346587 0.825508,0 1.279223,0.352889 0.453714,0.352889 0.497825,1.020858 h -0.800302 q -0.0063,-0.321382 -0.252063,-0.535636 -0.245762,-0.214254 -0.749889,-0.214254 -0.47262,0 -0.699477,0.15754 -0.226857,0.15754 -0.220556,0.441111 0,0.308778 0.302477,0.460016 0.308778,0.151239 1.001953,0.289874 0.869619,0.176444 1.235111,0.47892 0.371794,0.302477 0.371794,0.907429 0,0.579747 -0.491524,0.970445 -0.491524,0.384397 -1.398953,0.384397 -0.926334,0 -1.443064,-0.390698 -0.51673,-0.390699 -0.51673,-1.127985 h 0.800301 q 0,0.409603 0.308778,0.655365 0.308778,0.239461 0.857017,0.239461 0.504127,0 0.787698,-0.195349 0.283572,-0.19535 0.283572,-0.510429 0,-0.365492 -0.283572,-0.523032 -0.283571,-0.15754 -0.995651,-0.289873 z m 3.642319,0.03781 v 2.022811 h -0.800302 v -4.55605 h 0.800302 v 1.909382 h 2.186652 v -1.909382 h 0.800302 v 4.55605 h -0.800302 v -2.022811 z m 6.459131,0.182746 -0.718381,-1.947191 -0.730985,1.947191 z m -1.682524,0.623858 -0.453715,1.216207 h -0.812905 l 1.833763,-4.55605 h 0.819206 l 1.82116,4.55605 h -0.83181 L 70.49886,38.576999 Z m 4.530837,-2.073223 v 3.28943 h -0.800302 v -4.55605 h 0.825508 l 2.237065,3.365049 v -3.365049 h 0.800302 v 4.55605 h -0.875921 z"
         id="text5"
         aria-label="YUANSHAN" />
      <path
         d="m 41.803483,43.387909 v 0.302476 h 1.474572 v -0.302476 z m -0.491525,-0.296175 h 2.482827 v 0.901127 h -2.482827 z m 0.239461,1.947191 v 0.252064 h 1.966096 v -0.252064 z m 0,0.541937 v 0.264667 h 1.966096 v -0.264667 z m 0,-1.083873 v 0.252063 h 1.966096 v -0.252063 z m -0.504127,-0.302477 h 2.999557 v 1.953493 h -2.999557 z m 0.800302,1.915684 0.447413,0.151238 q -0.233159,0.176444 -0.573445,0.346587 -0.333984,0.163842 -0.636461,0.270969 -0.03781,-0.04411 -0.100825,-0.107127 -0.06302,-0.06302 -0.132334,-0.119731 -0.06302,-0.06302 -0.11973,-0.100825 0.308778,-0.08192 0.617556,-0.195349 0.308778,-0.113429 0.497826,-0.245762 z m 0.938937,0.220555 0.352889,-0.226857 q 0.321381,0.11973 0.655365,0.27727 0.340286,0.151238 0.55454,0.289873 l -0.491524,0.214254 q -0.182746,-0.126032 -0.478921,-0.27727 -0.289873,-0.157539 -0.592349,-0.27727 z m -2.89243,-4.08343 h 5.331145 v 5.583209 h -0.59235 v -5.047574 h -4.171652 v 5.047574 h -0.567143 z m 0.35919,4.764002 h 4.700986 v 0.541937 h -4.700986 z m 8.267686,-4.896335 h 0.630159 v 4.896335 h -0.630159 z m -2.18035,1.367445 h 0.604953 v 4.253573 h -0.604953 z m 4.448923,-0.0126 h 0.617556 v 4.247272 H 50.78955 Z m -4.152748,3.182303 h 4.423716 v 0.611255 h -4.423716 z"
         id="text5-9"
         style="font-weight:500;font-size:6.30159px;line-height:1.25;font-family:'Noto Sans JP';-inkscape-font-specification:'Noto Sans JP Medium';fill:#ffffff;stroke-width:0.225056"
         aria-label="圓山" />
      <path
         style="font-weight:500;font-size:6.30159px;line-height:1.25;font-family:'Noto Sans KR';-inkscape-font-specification:'Noto Sans KR Medium';fill:#ffffff;stroke-width:0.225056"
         d="m 59.909225,42.366154 q 0.43481,0 0.768794,0.15754 0.340286,0.151238 0.529334,0.422207 0.195349,0.270968 0.195349,0.630159 0,0.352889 -0.195349,0.623857 -0.189048,0.270968 -0.529334,0.428508 -0.333984,0.151238 -0.768794,0.151238 -0.428508,0 -0.762492,-0.151238 -0.333984,-0.15754 -0.529334,-0.428508 -0.189047,-0.270968 -0.189047,-0.623857 0,-0.359191 0.189047,-0.630159 0.19535,-0.270969 0.529334,-0.422207 0.333984,-0.15754 0.762492,-0.15754 z m 0,0.541937 q -0.245762,0 -0.441111,0.08192 -0.189048,0.08192 -0.302476,0.233159 -0.107127,0.144936 -0.107127,0.352889 0,0.201651 0.107127,0.352889 0.113428,0.144936 0.302476,0.226857 0.195349,0.08192 0.441111,0.08192 0.252064,0 0.441112,-0.08192 0.195349,-0.08192 0.302476,-0.226857 0.113428,-0.151238 0.113428,-0.352889 0,-0.207953 -0.113428,-0.352889 -0.107127,-0.151238 -0.302476,-0.233159 -0.189048,-0.08192 -0.441112,-0.08192 z m -0.302476,2.482827 h 0.667968 V 47.6973 h -0.667968 z m 2.539541,-3.270526 h 0.655365 v 5.759654 H 62.14629 Z m -4.026716,3.623415 -0.08192,-0.541937 q 0.523032,0 1.153191,-0.0126 0.630159,-0.0126 1.291826,-0.05672 0.667968,-0.04411 1.285524,-0.138635 l 0.04411,0.491524 q -0.630159,0.119731 -1.291826,0.176445 -0.655365,0.05671 -1.272921,0.06932 -0.611254,0.0126 -1.127984,0.0126 z m 9.553211,-3.629716 h 0.655365 v 4.222065 h -0.655365 z m 0.460016,1.707731 h 1.008254 v 0.548238 h -1.008254 z m -3.44697,3.402858 h 3.881779 v 0.535635 h -3.881779 z m 0,-1.323334 h 0.661667 v 1.556493 h -0.661667 z m 0.749889,-3.396557 q 0.43481,0 0.781397,0.189048 0.346588,0.182746 0.548239,0.510429 0.201651,0.321381 0.201651,0.743588 0,0.415904 -0.201651,0.743587 -0.201651,0.321381 -0.548239,0.510429 -0.346587,0.182746 -0.781397,0.182746 -0.428508,0 -0.775095,-0.182746 -0.346588,-0.189048 -0.548239,-0.510429 -0.201651,-0.327683 -0.201651,-0.743587 0,-0.422207 0.201651,-0.743588 0.201651,-0.327683 0.548239,-0.510429 0.346587,-0.189048 0.775095,-0.189048 z m 0,0.573445 q -0.245762,0 -0.447413,0.107127 -0.201651,0.107127 -0.321381,0.302476 -0.113428,0.19535 -0.113428,0.460017 0,0.258365 0.113428,0.453714 0.11973,0.189048 0.321381,0.296175 0.201651,0.107127 0.447413,0.107127 0.252064,0 0.453715,-0.107127 0.207952,-0.107127 0.321381,-0.296175 0.113428,-0.195349 0.113428,-0.453714 0,-0.264667 -0.113428,-0.460017 -0.113429,-0.195349 -0.321381,-0.302476 -0.201651,-0.107127 -0.453715,-0.107127 z m 5.558003,-0.611254 h 0.541937 v 0.667968 q 0,0.567144 -0.189048,1.058668 -0.182746,0.485222 -0.541936,0.844413 -0.359191,0.35919 -0.86962,0.548238 l -0.35919,-0.51673 q 0.466317,-0.15754 0.781397,-0.447413 0.315079,-0.296175 0.472619,-0.680572 0.163841,-0.384397 0.163841,-0.806604 z m 0.126032,0 h 0.535635 v 0.686873 q 0,0.283572 0.08822,0.55454 0.09452,0.270968 0.264667,0.510429 0.176445,0.23946 0.428508,0.422206 0.258366,0.182747 0.59235,0.296175 l -0.333984,0.523032 q -0.504128,-0.182746 -0.857017,-0.523032 -0.352889,-0.340286 -0.535635,-0.800302 -0.182746,-0.466317 -0.182746,-0.983048 z m 2.350493,-0.352889 h 0.655365 v 4.234668 h -0.655365 z m 0.460016,1.726636 h 1.008255 v 0.548238 h -1.008255 z m -3.434366,3.383953 h 3.862874 v 0.535635 h -3.862874 z m 0,-1.279222 h 0.661667 v 1.556492 h -0.661667 z"
         id="text5-9-8"
         aria-label="위안산" />
    </g>
    <text
       xml:space="preserve"
       transform="matrix(0.31615295,0,0,0.31615295,-10.474341,-6.4462013)"
       id="text6"
       style="font-size:55px;line-height:1.25;font-family:'Microsoft JhengHei';-inkscape-font-specification:'Microsoft JhengHei';white-space:pre;shape-inside:url(#rect6);display:inline" />
  </g>
</svg>
