<?xml version="1.0" encoding="UTF-8" standalone="no"?>
<!-- Created with Inkscape (http://www.inkscape.org/) -->

<svg
   width="500"
   height="250"
   viewBox="0 0 132.29166 66.145835"
   version="1.1"
   id="svg1"
   inkscape:version="1.1 (c68e22c387, 2021-05-23)"
   sodipodi:docname="r15.svg"
   xmlns:inkscape="http://www.inkscape.org/namespaces/inkscape"
   xmlns:sodipodi="http://sodipodi.sourceforge.net/DTD/sodipodi-0.dtd"
   xmlns="http://www.w3.org/2000/svg"
   xmlns:svg="http://www.w3.org/2000/svg">
  <sodipodi:namedview
     id="namedview1"
     pagecolor="#ffffff"
     bordercolor="#ffffff"
     borderopacity="1"
     inkscape:showpageshadow="0"
     inkscape:pageopacity="1"
     inkscape:pagecheckerboard="true"
     inkscape:deskcolor="#d1d1d1"
     inkscape:document-units="mm"
     inkscape:zoom="1.4289282"
     inkscape:cx="230.94233"
     inkscape:cy="176.35596"
     inkscape:window-width="1920"
     inkscape:window-height="1094"
     inkscape:window-x="-11"
     inkscape:window-y="-11"
     inkscape:window-maximized="1"
     inkscape:current-layer="layer1"
     inkscape:pageshadow="0"
     showgrid="false"
     units="px"
     width="500px" />
  <defs
     id="defs1">
    <rect
       x="560.66638"
       y="34.14473"
       width="279.32397"
       height="128.59143"
       id="rect6" />
    <rect
       x="157.85751"
       y="62.35125"
       width="329.07602"
       height="135.09438"
       id="rect4" />
    <rect
       x="157.85751"
       y="62.35125"
       width="329.07602"
       height="135.09438"
       id="rect4-5" />
  </defs>
  <g
     inkscape:label="Layer 1"
     inkscape:groupmode="layer"
     id="layer1">
    <rect
       style="fill:#d0002b;fill-opacity:1;stroke:none;stroke-width:0.953294;stroke-dasharray:none"
       id="rect5"
       width="132.29167"
       height="66.145836"
       x="-2.5431316e-06"
       y="-1.2715658e-06"
       ry="0" />
    <text
       xml:space="preserve"
       transform="matrix(0.31615295,0,0,0.31615295,-10.474341,-6.4462013)"
       id="text6"
       style="font-size:55px;line-height:1.25;font-family:'Microsoft JhengHei';-inkscape-font-specification:'Microsoft JhengHei';white-space:pre;shape-inside:url(#rect6);display:inline" />
    <g
       id="g4"
       transform="matrix(0.80703761,0,0,0.80703761,8.8010045,1.4818465)">
      <g
         id="g864"
         transform="translate(-14.417217,6.0715653)">
        <path
           id="rect1"
           style="fill-opacity:0;stroke:#f9f9f9;stroke-width:0.942789"
           d="m 15.913089,14.352791 h 12.425164 c 3.927062,0 7.088559,3.161497 7.088559,7.088559 v 23.263136 c 0,3.927062 -3.161497,7.088559 -7.088559,7.088559 H 15.913089 c -3.927061,0 -7.0885584,-3.161497 -7.0885584,-7.088559 V 21.44135 c 0,-3.927062 3.1614974,-7.088559 7.0885584,-7.088559 z" />
        <path
           style="font-size:14.3709px;line-height:1.25;font-family:'AR UDJingXiHeiE1G30 EB';-inkscape-font-specification:'AR UDJingXiHeiE1G30 EB';fill:#f9f9f9;stroke-width:0.299395"
           d="m 24.479114,23.761527 q 0,-0.761658 -0.402385,-1.149672 -0.402385,-0.402385 -1.164043,-0.402385 h -3.118485 v 3.233452 h 3.017889 q 0.747287,0 1.207156,-0.445498 0.459868,-0.445498 0.459868,-1.235897 z m -4.684913,3.089743 v 4.325641 h -1.825104 v -10.39016 h 5.288491 q 1.422719,0 2.256231,0.761657 0.847883,0.747287 0.847883,2.126893 0,0.905367 -0.431127,1.552058 -0.416756,0.64669 -1.049075,0.919737 0.80477,0.459869 1.235897,1.59517 0.431127,1.135301 0.546094,3.434645 H 24.766532 Q 24.680307,28.7626 24.234809,27.814121 23.803682,26.85127 22.840832,26.85127 Z"
           id="text2"
           aria-label="R" />
        <path
           style="font-size:14.3917px;line-height:1.25;font-family:'AR UDJingXiHeiE1G30 EB';-inkscape-font-specification:'AR UDJingXiHeiE1G30 EB';fill:#f9f9f9;stroke-width:0.261667"
           d="m 17.218078,36.584172 -1.683829,1.568695 -0.834718,-1.280861 2.705639,-2.460981 h 1.568696 v 10.405199 h -1.755788 z m 9.210678,2.590506 q -0.618843,0 -1.064986,0.230267 -0.446143,0.215876 -0.76276,0.662018 l -1.61187,-0.1727 0.777151,-5.483238 h 5.814247 v 1.424779 h -4.346293 l -0.402968,2.720031 q 0.359793,-0.402968 0.863502,-0.604452 0.518101,-0.215875 1.208903,-0.215875 1.482345,0 2.345847,0.964244 0.863502,0.964244 0.863502,2.633681 0,1.741396 -0.964244,2.70564 -0.964244,0.964243 -2.705639,0.964243 -1.712613,0 -2.676857,-0.84911 -0.964243,-0.84911 -0.993027,-2.28828 h 1.770179 q -0.01439,0.67641 0.460535,1.194511 0.474926,0.518101 1.395994,0.518101 0.877894,0 1.381604,-0.575668 0.518101,-0.59006 0.518101,-1.69822 0,-1.036203 -0.532493,-1.583087 -0.532493,-0.546885 -1.338428,-0.546885 z"
           id="text3"
           aria-label="15" />
        <path
           style="font-weight:500;font-size:72px;line-height:1.25;font-family:'Noto Sans TC';-inkscape-font-specification:'Noto Sans TC Medium';white-space:pre;fill:#f9f9f9;stroke-width:0.261668"
           d="m 51.326522,17.43566 h 1.582566 v 10.5316 h -1.582566 z m 3.692654,-1.601406 h 1.620246 v 15.053217 q 0,0.753603 -0.188401,1.149244 -0.188401,0.395642 -0.621722,0.602882 -0.433322,0.207241 -1.168085,0.263761 -0.715922,0.05652 -1.846327,0.05652 -0.05652,-0.357961 -0.20724,-0.828963 -0.131881,-0.471001 -0.320281,-0.828963 0.772442,0.01884 1.431845,0.03768 0.659402,0 0.885483,-0.01884 0.226081,0 0.320281,-0.0942 0.0942,-0.0942 0.0942,-0.339121 z m -12.999648,7.347628 v 2.241969 h 1.620246 v -2.241969 z m -1.205765,-1.243445 h 4.088295 v 4.728858 h -4.088295 z m 6.160703,1.243445 v 2.241969 h 1.733286 v -2.241969 z m -1.186924,-1.243445 h 4.182495 v 4.728858 h -4.182495 z m -3.259332,5.14334 1.469525,0.282601 q -0.433322,1.620246 -1.243445,2.995571 -0.810123,1.375325 -1.827486,2.298488 -0.113041,-0.13188 -0.339122,-0.320281 -0.20724,-0.16956 -0.433321,-0.357961 -0.226081,-0.188401 -0.395642,-0.301441 0.998524,-0.791283 1.695607,-1.997048 0.715922,-1.205764 1.073884,-2.599929 z m 0.0942,-7.554869 h 5.746221 v 1.394165 H 42.62241 Z m -0.301441,10.248999 0.810123,-1.073884 q 0.565202,0.357961 1.149244,0.828963 0.602882,0.471002 0.923163,0.847803 l -0.847803,1.205764 Q 44.035415,31.188912 43.451373,30.68023 42.867331,30.152708 42.320969,29.775907 Z m 4.954938,-2.65645 1.469526,0.263761 q -0.376802,1.639086 -1.111565,3.033251 -0.715922,1.394165 -1.657926,2.355009 -0.11304,-0.131881 -0.339121,-0.320281 -0.226081,-0.169561 -0.452162,-0.339122 -0.22608,-0.16956 -0.414481,-0.263761 0.904323,-0.847803 1.544886,-2.072407 0.640562,-1.243445 0.960843,-2.65645 z m -0.15072,2.73181 0.942003,-0.998524 q 0.452162,0.339122 0.923163,0.753603 0.471002,0.395642 0.904324,0.791283 0.433321,0.395642 0.678242,0.715923 l -0.998523,1.149244 Q 49.329475,31.904835 48.914993,31.471513 48.500512,31.057031 48.02951,30.64255 47.558508,30.209228 47.125187,29.851267 Z m -2.034728,-14.563375 1.563726,0.565202 q -0.979684,1.582566 -2.486889,2.939051 -1.507206,1.337645 -3.278172,2.298489 -0.131881,-0.188401 -0.339122,-0.395642 -0.20724,-0.226081 -0.433321,-0.433321 -0.226081,-0.226081 -0.395642,-0.357962 1.130404,-0.584042 2.147768,-1.318804 1.036204,-0.753603 1.865167,-1.582566 0.828963,-0.847803 1.356485,-1.714447 z m -0.150721,1.997048 0.828964,-1.168085 q 0.810123,0.452162 1.714446,1.017364 0.923163,0.565202 1.733286,1.130404 0.828963,0.546362 1.318805,1.017364 l -0.885483,1.356485 Q 49.141074,20.14863 48.330951,19.564588 47.539668,18.961706 46.635345,18.358824 45.749861,17.755941 44.939738,17.28494 Z M 63.327646,29.399105 H 76.025853 V 30.73675 H 63.327646 Z m 0.339121,-13.112689 h 12.302566 v 1.337645 H 63.666767 Z m 5.143339,11.567804 h 1.752127 v 5.105658 H 68.810106 Z M 67.397101,17.040019 h 1.469526 v 4.898418 h -1.469526 z m 3.108612,0 h 1.488365 v 4.898418 h -1.488365 z m -4.125976,9.401195 v 0.942004 h 6.838946 v -0.942004 z m 0,-1.978207 v 0.904324 h 6.838946 v -0.904324 z m -1.601405,-1.111564 h 10.117117 v 5.143339 H 64.778332 Z m 1.017363,-3.560774 v 1.601406 h 7.931669 V 19.790669 Z M 64.213129,18.603745 H 75.404131 V 22.579 H 64.213129 Z m -4.615817,-1.563726 1.036204,-1.262285 q 0.489842,0.226081 1.055044,0.565202 0.584042,0.339122 1.111564,0.678243 0.546362,0.320281 0.904324,0.584042 l -1.092724,1.413005 Q 62.291442,18.735625 61.76392,18.377664 61.255239,18.019702 60.690036,17.680581 60.124834,17.32262 59.597312,17.040019 Z m -0.942003,5.10566 0.998524,-1.299966 q 0.527522,0.263761 1.149244,0.602882 0.621722,0.320281 1.186924,0.678244 0.584042,0.339121 0.960844,0.621722 l -1.017364,1.450685 Q 61.59436,23.897805 61.010318,23.539844 60.445116,23.163042 59.823393,22.805081 59.220511,22.42828 58.655309,22.145679 Z m 0.546362,9.288154 q 0.414482,-0.715923 0.923163,-1.695606 0.527522,-0.998524 1.055044,-2.091248 0.546362,-1.111564 0.979684,-2.185448 l 1.413005,1.130404 q -0.414481,0.979684 -0.885483,2.034728 -0.452162,1.036203 -0.942004,2.053567 -0.489841,0.998524 -0.960843,1.902847 z"
           id="text4"
           aria-label="劍潭" />
        <path
           style="font-weight:500;font-size:72px;line-height:1.25;font-family:'Noto Sans TC';-inkscape-font-specification:'Noto Sans TC Medium';white-space:pre;fill:#f9f9f9;stroke-width:0.128035"
           d="m 84.195924,18.711187 h 2.719471 v 0.875762 h -2.719471 z m 4.563179,-2.101828 h 0.912636 v 6.64657 q 0,0.359523 0.06453,0.460927 0.07375,0.101404 0.31343,0.101404 0.06453,0 0.19359,0 0.138278,0 0.294993,0 0.156715,0 0.294993,0 0.138279,0 0.202808,0 0.19359,0 0.285775,-0.175152 0.101404,-0.184371 0.138278,-0.654516 0.04609,-0.479365 0.07375,-1.336689 0.110622,0.08297 0.258119,0.175152 0.147497,0.08297 0.304212,0.147497 0.156715,0.06453 0.276556,0.09219 -0.04609,0.958729 -0.156715,1.530278 -0.110623,0.562331 -0.368742,0.811232 -0.248901,0.258119 -0.728265,0.258119 -0.07375,0 -0.239682,0 -0.165934,0 -0.359523,0 -0.193589,0 -0.359523,0 -0.156715,0 -0.230464,0 -0.44249,0 -0.700609,-0.129059 -0.258119,-0.119841 -0.368742,-0.433272 -0.101404,-0.31343 -0.101404,-0.857324 z m -2.313854,-0.0092 h 0.903417 v 6.849378 h -0.903417 z m -2.553537,7.411709 q 0.497802,-0.165934 1.170755,-0.405616 0.672954,-0.239682 1.419656,-0.516239 0.755921,-0.276556 1.493404,-0.553112 l 0.147497,0.774358 q -0.654517,0.285774 -1.336689,0.571549 -0.682172,0.276556 -1.318252,0.534676 -0.636079,0.258119 -1.179973,0.470145 z m 5.346755,-5.309882 h 2.949934 v 0.875762 h -2.949934 z m 4.083815,4.360372 h 8.269028 v 0.534675 h -8.269028 z m 1.161536,-0.912636 h 6.010492 v 0.525457 h -6.010492 z m 4.102252,1.677775 0.589987,-0.359523 q 0.37796,0.156715 0.765139,0.37796 0.396394,0.212026 0.746704,0.44249 0.3503,0.230464 0.57155,0.424053 l -0.59921,0.405616 Q 100.439,24.906066 100.08869,24.666384 99.747607,24.435921 99.351209,24.214676 98.96403,23.984212 98.58607,23.827497 Z m -4.48943,1.170755 q -0.02766,-0.101404 -0.110623,-0.294993 -0.07375,-0.19359 -0.138278,-0.313431 0.138278,-0.01844 0.285775,-0.07375 0.156715,-0.05531 0.341086,-0.138278 0.138278,-0.06453 0.424053,-0.212027 0.285775,-0.156715 0.636079,-0.368742 0.350305,-0.221245 0.654517,-0.470145 l 0.848106,0.239682 q -0.580768,0.414834 -1.198411,0.75592 -0.617642,0.341086 -1.189192,0.553113 v 0.01844 q 0,0 -0.08297,0.02766 -0.08297,0.02765 -0.193589,0.07375 -0.110623,0.04609 -0.193589,0.101404 -0.08297,0.05531 -0.08297,0.101404 z m 0,0 -0.0092,-0.460927 0.553113,-0.230464 5.567997,-0.193589 q 0.0184,0.129059 0.0553,0.285775 0.0369,0.156715 0.0738,0.2489 -1.318248,0.05531 -2.276977,0.09219 -0.94951,0.04609 -1.604026,0.07375 -0.654517,0.03687 -1.07857,0.05531 -0.424053,0.02766 -0.672954,0.04609 -0.239682,0.01844 -0.37796,0.03687 -0.129059,0.02766 -0.230463,0.04609 z m -0.184371,-6.701881 h 3.125086 v 0.460927 h -3.125086 z m 3.742728,0.396397 h 2.682593 v 0.636079 h -2.682593 z m -3.816477,1.862146 h 3.309457 V 21.02506 H 93.83852 Z m -0.359523,-1.474967 h 3.982411 v 0.479364 h -3.982411 z m 2.018861,-2.645722 h 0.848106 v 1.557934 h -0.848106 z m -0.387179,1.585589 h 0.737484 v 1.392 h -0.737484 z m 0,2.064954 h 0.737484 v 1.567153 h -0.737484 z m 3.447735,-3.650543 h 0.857325 v 1.557934 h -0.857325 z m -5.125509,5.051762 q 0.507019,-0.01844 1.152317,-0.04609 0.645298,-0.03687 1.373563,-0.07375 0.737484,-0.04609 1.484186,-0.08297 l -0.0092,0.470146 q -0.709828,0.05531 -1.428874,0.101404 -0.709828,0.04609 -1.355126,0.09219 -0.645298,0.04609 -1.170755,0.07375 z m 1.087788,-2.15714 h 0.553112 q -0.04609,0.331868 -0.202808,0.571551 -0.147496,0.230463 -0.44249,0.387178 -0.294993,0.147497 -0.802013,0.248901 -0.03687,-0.09219 -0.12906,-0.221245 -0.09219,-0.138278 -0.175152,-0.202808 0.424053,-0.06453 0.663735,-0.156715 0.248901,-0.09219 0.368742,-0.239682 0.129059,-0.156716 0.165934,-0.38718 z m 5.457377,-0.636079 h 0.70061 v 2.240106 q 0,0.267338 0.0277,0.294994 0.0277,0.04609 0.1014,0.04609 0.0369,0 0.083,0 0.0553,0 0.0922,0 0.0369,0 0.0738,-0.0092 0.0461,-0.0092 0.0645,-0.01844 0.0553,-0.04609 0.0645,-0.184371 0.0184,-0.08297 0.0184,-0.258119 0.009,-0.175153 0.0184,-0.414835 0.10141,0.07375 0.23969,0.147497 0.13827,0.07375 0.26733,0.110623 -0.009,0.2489 -0.0369,0.497801 -0.0184,0.248901 -0.0553,0.350305 -0.0277,0.110622 -0.0922,0.18437 -0.0645,0.06453 -0.15671,0.110623 -0.0645,0.04609 -0.17515,0.06453 -0.10141,0.01844 -0.20281,0.01844 -0.0738,0 -0.19359,0 -0.11984,0 -0.18437,0 -0.13828,0 -0.26734,-0.03687 -0.12906,-0.03688 -0.22125,-0.12906 -0.0922,-0.101404 -0.12906,-0.248901 -0.03687,-0.156715 -0.03687,-0.543894 z m -2.470569,1.318234 0.396397,-0.479365 q 0.359523,0.138278 0.737483,0.341087 0.387179,0.193589 0.728265,0.414834 0.341086,0.212027 0.543894,0.414835 l -0.414834,0.534675 q -0.202808,-0.193589 -0.534676,-0.414834 -0.331867,-0.230464 -0.719046,-0.44249 -0.37796,-0.212027 -0.737483,-0.368742 z m 1.161536,-1.917457 h 0.663735 v 0.88498 q 0,0.359523 -0.05531,0.755921 -0.05531,0.396397 -0.221245,0.811232 -0.156715,0.405615 -0.479364,0.792794 -0.322649,0.387179 -0.857325,0.719047 -0.07375,-0.101404 -0.230464,-0.239682 -0.156715,-0.138279 -0.276556,-0.221245 0.479364,-0.304212 0.774358,-0.645299 0.294993,-0.341086 0.433271,-0.69139 0.147497,-0.350305 0.19359,-0.682173 0.05531,-0.341086 0.05531,-0.626861 z m -2.931497,1.235284 h 0.543894 v 0.377961 q 0,0.119841 0.01844,0.165934 0.02766,0.04609 0.119841,0.04609 0.03688,0 0.12906,0 0.09219,0 0.184371,0 0.09219,0 0.138278,0 0.08297,0 0.202808,-0.0092 0.12906,-0.0092 0.202808,-0.02766 0.01844,0.101404 0.01844,0.212027 0.0092,0.110623 0.02766,0.212026 -0.07375,0.02766 -0.202808,0.03688 -0.119841,0 -0.239682,0 -0.05531,0 -0.175153,0 -0.119841,0 -0.239682,0 -0.110622,0 -0.175152,0 -0.350305,0 -0.451709,-0.147497 -0.101404,-0.156715 -0.101404,-0.497801 z m -2.332291,-2.323072 h 3.936318 v 0.62686 h -3.936318 z m 4.231311,0 h 3.91788 v 0.62686 h -3.91788 z m 5.29144,1.060132 h 7.5039 v 4.470994 h -0.90342 v -3.613669 h -5.73393 v 3.659762 H 102.928 Z m 0.45171,3.10665 h 6.66501 v 0.857324 h -6.66501 z m 2.82088,-4.729114 h 0.91263 v 8.54559 h -0.91263 z m 7.8081,2.59963 h 0.90342 v 4.452556 q 0,0.331868 0.1014,0.424053 0.11063,0.08297 0.47937,0.08297 0.0922,0 0.30421,0 0.21203,0 0.46093,0 0.25812,0 0.47936,0 0.23046,0 0.33187,0 0.26734,0 0.3964,-0.138278 0.13827,-0.147497 0.19359,-0.543894 0.0553,-0.396397 0.0922,-1.152318 0.11062,0.07375 0.2489,0.156715 0.14749,0.07375 0.30421,0.12906 0.15671,0.05531 0.26734,0.09218 -0.0461,0.875762 -0.18437,1.373563 -0.12906,0.497802 -0.42406,0.70061 -0.28577,0.202808 -0.82967,0.202808 -0.0738,0 -0.2489,0 -0.17515,0 -0.40561,0 -0.22125,0 -0.44249,0 -0.22125,0 -0.3964,0 -0.16593,0 -0.23046,0 -0.5439,0 -0.85733,-0.119841 -0.30421,-0.119842 -0.42405,-0.414835 -0.11984,-0.285775 -0.11984,-0.792795 z m -1.55793,0.62686 0.8481,0.165935 q -0.0645,0.562331 -0.18437,1.244503 -0.11062,0.672954 -0.25812,1.32747 -0.13827,0.654517 -0.31343,1.161537 l -0.87576,-0.359523 q 0.18437,-0.488583 0.33187,-1.087789 0.15671,-0.599205 0.26734,-1.235284 0.11984,-0.645298 0.18437,-1.216849 z m 5.76159,0.05531 0.81123,-0.322649 q 0.26734,0.553113 0.50702,1.179974 0.23968,0.617642 0.42405,1.216847 0.19359,0.589987 0.295,1.069351 l -0.87577,0.359524 q -0.083,-0.479365 -0.26733,-1.087788 -0.17516,-0.608424 -0.41484,-1.235285 -0.23046,-0.63608 -0.47936,-1.179974 z m -3.8257,-2.461351 0.59921,-0.580768 q 0.42405,0.285774 0.90341,0.636079 0.48859,0.350305 0.92186,0.709828 0.43327,0.359523 0.70061,0.645298 l -0.63608,0.672953 q -0.2489,-0.294993 -0.67295,-0.654516 -0.41484,-0.368742 -0.8942,-0.746702 -0.47937,-0.37796 -0.92186,-0.682172 z"
           id="text4-0"
           aria-label="北藝中心" />
        <path
           style="font-size:7.32669px;line-height:1.25;font-family:'AR UDJingXiHeiE1G30 EB';-inkscape-font-specification:'AR UDJingXiHeiE1G30 EB';fill:#f9f9f9;stroke-width:0.261667"
           d="m 41.036697,39.530981 q 0,0.337028 0.168513,0.527522 0.168514,0.190494 0.542176,0.190494 0.366334,0.0073 0.556828,-0.197821 0.190494,-0.212474 0.190494,-0.600789 v -3.861165 h 0.923163 v 3.941759 q 0,0.666729 -0.439602,1.06237 -0.432274,0.388315 -1.23821,0.388315 -0.783956,0 -1.208904,-0.380988 -0.424948,-0.388315 -0.424948,-0.989103 v -0.468909 h 0.93049 z m 4.491256,-3.941759 v 5.297197 h -0.930489 v -5.297197 z m 4.037002,3.157803 -0.835243,-2.263947 -0.849896,2.263947 z m -1.956227,0.725343 -0.527521,1.414051 h -0.945143 l 2.132066,-5.297197 h 0.95247 l 2.117414,5.297197 h -0.967123 l -0.534849,-1.414051 z m 5.267884,-2.410482 v 3.824533 h -0.93049 v -5.297197 h 0.959797 l 2.600975,3.912452 v -3.912452 h 0.930489 v 5.297197 h -1.01841 z m 5.905308,-0.747322 h -1.648506 v -0.725342 h 4.220174 v 0.725342 h -1.641179 v 4.571855 H 58.78192 Z m 6.095804,2.432461 -0.835242,-2.263947 -0.849896,2.263947 z m -1.956226,0.725343 -0.527521,1.414051 H 61.448833 L 63.5809,35.589222 h 0.95247 l 2.117414,5.297197 H 65.68366 l -0.534848,-1.414051 z m 5.267883,-2.410482 v 3.824533 h -0.93049 v -5.297197 h 0.959797 l 2.600975,3.912452 v -3.912452 h 0.930489 v 5.297197 h -1.01841 z"
           id="text5"
           aria-label="JIANTAN" />
        <path
           style="font-size:3.51368px;line-height:1.25;font-family:'AR UDJingXiHeiE1G30 EB';-inkscape-font-specification:'AR UDJingXiHeiE1G30 EB';fill:#ffffff;stroke-width:0.125488"
           d="m 84.844679,26.639919 h -0.788998 v -0.348552 h 2.019835 v 0.348552 h -0.785491 v 2.196927 h -0.445346 z m 2.917539,1.168877 -0.39976,-1.087901 -0.406772,1.087901 z m -0.936278,0.348552 -0.252479,0.679498 h -0.45236 l 1.020438,-2.545479 h 0.455866 l 1.013423,2.545479 h -0.462879 l -0.255985,-0.679498 z m 2.521283,-1.865981 v 2.545479 h -0.445346 v -2.545479 z m 1.027448,1.535033 v 1.010446 h -0.445346 v -2.545479 h 1.192264 q 0.371705,0 0.582105,0.204202 0.210399,0.204202 0.210399,0.542191 0,0.380237 -0.217412,0.584438 -0.213907,0.204202 -0.578599,0.204202 z m 1.087063,-0.781599 q 0,-0.19716 -0.112213,-0.299261 -0.112212,-0.105621 -0.329626,-0.105621 h -0.645224 v 0.837931 h 0.645224 q 0.217414,0 0.329626,-0.105622 0.112213,-0.109142 0.112213,-0.327427 z m 2.756231,1.792045 h -1.876061 v -2.545479 h 1.865541 v 0.348552 H 92.78725 v 0.718226 h 1.325516 v 0.348551 H 92.78725 v 0.781599 h 1.430715 z m 0.91524,-2.545479 v 2.545479 H 94.68786 v -2.545479 z m 1.946189,1.535033 v 1.010446 h -0.445345 v -2.545479 h 1.192264 q 0.371705,0 0.582105,0.204202 0.210398,0.204202 0.210398,0.542191 0,0.380237 -0.217412,0.584438 -0.213906,0.204202 -0.578598,0.204202 z m 1.087064,-0.781599 q 0,-0.19716 -0.112213,-0.299261 -0.112213,-0.105621 -0.329626,-0.105621 h -0.645225 v 0.837931 h 0.645225 q 0.217413,0 0.329626,-0.105622 0.112213,-0.109142 0.112213,-0.327427 z m 2.756232,1.792045 h -1.876063 v -2.545479 h 1.865543 v 0.348552 h -1.420196 v 0.718226 h 1.325516 v 0.348551 h -1.325516 v 0.781599 h 1.430716 z m 2.05841,-1.81669 q 0,-0.186598 -0.0982,-0.281657 -0.0982,-0.09858 -0.28404,-0.09858 h -0.76095 v 0.792161 h 0.7364 q 0.18235,0 0.29456,-0.109142 0.11221,-0.109142 0.11221,-0.302782 z m -1.14317,0.756954 v 1.059736 h -0.44535 v -2.545479 h 1.29045 q 0.34716,0 0.55055,0.186598 0.20689,0.183078 0.20689,0.521067 0,0.221805 -0.1052,0.380238 -0.10169,0.158431 -0.25599,0.225325 0.19638,0.112663 0.30158,0.3908 0.1052,0.278136 0.13325,0.841451 h -0.46288 q -0.021,-0.59148 -0.12974,-0.823848 -0.1052,-0.235888 -0.34015,-0.235888 z m 2.56337,-0.07041 v 1.13015 h -0.44535 v -2.545482 h 1.77788 v 0.348552 h -1.33253 v 0.718226 h 1.17122 v 0.348551 z m 4.14136,-0.130266 q 0,0.612604 -0.34014,0.961155 -0.33664,0.345031 -0.92225,0.345031 -0.59614,0 -0.93277,-0.348551 -0.33664,-0.348552 -0.33664,-0.957635 0,-0.619647 0.34014,-0.971718 0.34015,-0.355593 0.92927,-0.355593 0.59613,0 0.92926,0.352072 0.33313,0.352071 0.33313,0.975239 z m -1.26239,0.957635 q 0.38222,0 0.58911,-0.253492 0.2104,-0.253491 0.2104,-0.704143 0,-0.447132 -0.2104,-0.711186 -0.21039,-0.267573 -0.58911,-0.267573 -0.38574,0 -0.59964,0.271094 -0.2104,0.267575 -0.2104,0.707665 0,0.450652 0.2139,0.704143 0.21391,0.253492 0.59614,0.253492 z m 3.33483,-1.513909 q 0,-0.186598 -0.0982,-0.281657 -0.0982,-0.09858 -0.28404,-0.09858 h -0.76095 v 0.792161 h 0.7364 q 0.18234,0 0.29456,-0.109142 0.11221,-0.109142 0.11221,-0.302782 z m -1.14317,0.756954 v 1.059736 h -0.44535 v -2.545482 h 1.29045 q 0.34716,0 0.55055,0.186598 0.20689,0.183078 0.20689,0.521067 0,0.221805 -0.1052,0.380238 -0.10169,0.158431 -0.25599,0.225325 0.19638,0.112663 0.30158,0.3908 0.1052,0.278136 0.13325,0.841451 h -0.46288 q -0.021,-0.59148 -0.12975,-0.823848 -0.1052,-0.235888 -0.34014,-0.235888 z m 2.54934,-0.774558 v 1.834293 h -0.43132 v -2.545482 h 0.56457 l 0.72939,1.975123 0.70133,-1.975123 h 0.5786 v 2.545479 h -0.43483 V 26.98847 l -0.65925,1.848376 h -0.37521 z m 3.17002,-0.711186 v 2.545479 h -0.44535 v -2.545482 z m 1.02744,0.707665 v 1.837814 h -0.44534 v -2.545482 h 0.45937 l 1.24486,1.880064 v -1.880064 h 0.44535 v 2.545479 h -0.48743 z m 4.14838,1.527991 q -0.12975,0.183078 -0.32612,0.271096 -0.19287,0.0845 -0.44184,0.0845 -0.54704,0 -0.86965,-0.345031 -0.32262,-0.348551 -0.32262,-0.971717 0,-0.626688 0.34015,-0.971719 0.34015,-0.34503 0.91874,-0.34503 0.46639,0 0.75744,0.214764 0.29456,0.211243 0.35417,0.605563 h -0.44534 q -0.0351,-0.207722 -0.20689,-0.337989 -0.16832,-0.133786 -0.45938,-0.133786 -0.38923,0 -0.59262,0.253491 -0.20339,0.249971 -0.20339,0.714706 0,0.49642 0.21391,0.732308 0.21391,0.232368 0.5821,0.232368 0.32262,0 0.51198,-0.190119 0.18936,-0.190119 0.18936,-0.436569 v -0.0528 h -0.71887 V 27.50251 h 1.14668 v 1.334352 h -0.42781 z m 3.22261,-0.718227 -0.39976,-1.087901 -0.40677,1.087901 z m -0.93628,0.348552 -0.25248,0.679498 h -0.45236 l 1.02044,-2.545482 h 0.45587 l 1.01342,2.545479 h -0.46288 l -0.25598,-0.679498 z m 3.66445,-1.137192 q 0,-0.186598 -0.0982,-0.281657 -0.0982,-0.09858 -0.28403,-0.09858 h -0.76095 v 0.792161 h 0.7364 q 0.18235,0 0.29456,-0.109142 0.11221,-0.109142 0.11221,-0.302782 z m -1.14316,0.756954 v 1.059736 h -0.44535 v -2.545482 h 1.29045 q 0.34716,0 0.55054,0.186598 0.2069,0.183078 0.2069,0.521067 0,0.221805 -0.1052,0.380238 -0.1017,0.158431 -0.25599,0.225325 0.19637,0.112663 0.30157,0.3908 0.1052,0.278136 0.13326,0.841451 h -0.46288 q -0.021,-0.59148 -0.12975,-0.823848 -0.1052,-0.235888 -0.34014,-0.235888 z m 2.65804,-1.137191 h -0.78899 v -0.348555 h 2.01983 v 0.348552 h -0.78549 v 2.196927 h -0.44535 z m 2.40908,1.045653 q -0.46288,-0.0845 -0.68731,-0.260534 -0.22442,-0.176036 -0.22442,-0.4929 0,-0.29574 0.23845,-0.489379 0.24196,-0.19364 0.74341,-0.19364 0.45937,0 0.71185,0.19716 0.25248,0.19716 0.27703,0.570356 h -0.44535 q -0.004,-0.179556 -0.14026,-0.29926 -0.13676,-0.119704 -0.4173,-0.119704 -0.26299,0 -0.38924,0.08801 -0.12623,0.08802 -0.12273,0.24645 0,0.172515 0.16832,0.257013 0.17183,0.0845 0.55756,0.161952 0.48392,0.09858 0.68731,0.267575 0.20689,0.168994 0.20689,0.506984 0,0.323905 -0.27352,0.542189 -0.27352,0.214765 -0.77848,0.214765 -0.51548,0 -0.80302,-0.218285 -0.28755,-0.218284 -0.28755,-0.630208 h 0.44535 q 0,0.228846 0.17182,0.366155 0.17183,0.133787 0.47691,0.133787 0.28053,0 0.43833,-0.109143 0.1578,-0.109142 0.1578,-0.285178 0,-0.204201 -0.1578,-0.292219 -0.1578,-0.08802 -0.55405,-0.161953 z m 4.30266,0.264054 h 0.44535 q -0.0175,0.418965 -0.29105,0.675977 -0.27352,0.257013 -0.79251,0.257013 -0.61366,0 -0.93978,-0.348551 -0.32262,-0.348552 -0.32262,-0.968197 0,-0.612606 0.32262,-0.964677 0.32612,-0.352072 0.93277,-0.352072 0.48742,0 0.75744,0.225326 0.27001,0.221806 0.30858,0.577397 h -0.44534 q -0.0281,-0.204201 -0.18586,-0.327426 -0.1578,-0.126745 -0.44534,-0.126745 -0.35417,0 -0.56808,0.239408 -0.21391,0.239409 -0.21391,0.728789 0,0.49642 0.21391,0.732308 0.21741,0.235889 0.57509,0.235889 0.30508,0 0.46989,-0.158433 0.16482,-0.161952 0.17884,-0.426006 z m 2.75623,0.88722 h -1.87606 v -2.545482 h 1.86554 v 0.348552 h -1.4202 v 0.718226 h 1.32552 v 0.348551 h -1.32552 v 0.781599 h 1.43072 z m 0.91524,-1.837814 v 1.837814 h -0.44534 v -2.545482 h 0.45937 l 1.24486,1.880064 v -1.880064 h 0.44534 v 2.545479 h -0.48742 z m 2.82636,-0.359113 h -0.789 v -0.348555 h 2.01984 v 0.348552 h -0.78549 v 2.196927 h -0.44535 z m 3.44354,2.196927 h -1.87606 v -2.545482 h 1.86554 v 0.348552 h -1.4202 v 0.718226 h 1.32552 v 0.348551 h -1.32552 v 0.781599 h 1.43072 z m 2.05841,-1.81669 q 0,-0.186598 -0.0982,-0.281657 -0.0982,-0.09858 -0.28403,-0.09858 h -0.76095 v 0.792161 h 0.7364 q 0.18234,0 0.29456,-0.109142 0.11221,-0.109142 0.11221,-0.302782 z m -1.14317,0.756954 v 1.059736 h -0.44534 v -2.545482 h 1.29044 q 0.34717,0 0.55055,0.186598 0.20689,0.183078 0.20689,0.521067 0,0.221805 -0.10519,0.380238 -0.1017,0.158431 -0.25599,0.225325 0.19638,0.112663 0.30157,0.3908 0.1052,0.278136 0.13326,0.841451 h -0.46289 q -0.0211,-0.59148 -0.12975,-0.823848 -0.10519,-0.235888 -0.34013,-0.235888 z"
           id="text5-8"
           aria-label="TAIPEI PERFORMING ARTS CENTER" />
        <path
           d="m 44.189568,44.179353 h 0.666729 v 4.18354 h -0.666729 z m 1.560585,-0.630096 h 0.681382 v 5.795412 q 0,0.315048 -0.08059,0.476235 -0.07327,0.168514 -0.263761,0.249108 -0.190493,0.08792 -0.505541,0.1099 -0.307721,0.02931 -0.776629,0.02931 -0.0073,-0.102574 -0.05129,-0.227128 -0.03663,-0.124553 -0.08059,-0.256434 -0.04396,-0.124554 -0.09525,-0.219801 0.329701,0.01465 0.615442,0.01465 0.285741,0 0.380988,0 0.102574,-0.0073 0.139207,-0.04396 0.03663,-0.03663 0.03663,-0.131881 z m -4.864923,1.589892 h 2.337215 v 0.564155 H 40.88523 Z m 0.827916,0.359008 h 0.652076 v 1.641178 q 0,0.402968 -0.08059,0.827916 -0.07327,0.424949 -0.285741,0.84257 -0.212474,0.410295 -0.608115,0.776629 -0.395641,0.366335 -1.033063,0.644749 -0.03663,-0.06594 -0.117227,-0.168514 -0.07327,-0.102574 -0.153861,-0.197821 -0.08059,-0.09525 -0.146534,-0.146534 0.593462,-0.26376 0.945143,-0.571481 0.351682,-0.307721 0.527522,-0.644749 0.183167,-0.337028 0.241781,-0.688709 0.05861,-0.351681 0.05861,-0.688709 z m 0.402968,2.578995 q 0.102574,0.06594 0.271088,0.19782 0.17584,0.131881 0.380988,0.293068 0.212474,0.161187 0.417621,0.329701 0.205147,0.161187 0.366335,0.300394 0.168514,0.131881 0.249107,0.197821 l -0.454255,0.571482 q -0.139207,-0.146534 -0.359007,-0.351681 -0.219801,-0.205148 -0.468909,-0.424948 -0.24178,-0.219801 -0.468908,-0.410295 -0.219801,-0.197821 -0.373661,-0.315048 z m -1.135637,-1.333458 v 0.747323 h 2.095434 v -0.747323 z m -0.586135,-0.542175 h 3.297011 v 1.831673 h -3.297011 z m 1.296824,-2.747509 h 0.380988 v 0.139207 h 0.219801 v 0.197821 q -0.212474,0.307721 -0.505542,0.674056 -0.293067,0.359007 -0.681382,0.725342 -0.388314,0.366334 -0.879203,0.703362 -0.04396,-0.08059 -0.117227,-0.17584 -0.07327,-0.09525 -0.15386,-0.183168 -0.08059,-0.08792 -0.161187,-0.139207 0.454254,-0.278414 0.813262,-0.608115 0.366335,-0.337028 0.637422,-0.681382 0.271088,-0.344355 0.446928,-0.652076 z m 0.153861,0 h 0.505541 q 0.278415,0.212474 0.586136,0.476235 0.315047,0.263761 0.600788,0.527522 0.285741,0.263761 0.476235,0.468908 l -0.461581,0.534848 Q 43.376305,45.249049 43.105218,44.977962 42.841457,44.699548 42.541062,44.42846 42.240668,44.150046 41.969581,43.944899 h -0.124554 z m 7.202136,5.370464 h 4.938189 v 0.520195 h -4.938189 z m 0.131881,-5.099376 h 4.784328 v 0.520195 h -4.784328 z m 2.000186,4.498588 h 0.681382 v 1.985533 H 51.17923 Z m -0.549502,-4.205521 h 0.571482 v 1.90494 h -0.571482 z m 1.208904,0 h 0.578809 v 1.90494 h -0.578809 z m -1.604545,3.656019 v 0.366334 h 2.659589 v -0.366334 z m 0,-0.769303 v 0.351682 h 2.659589 v -0.351682 z m -0.622769,-0.432274 h 3.934433 v 2.000186 h -3.934433 z m 0.395642,-1.384745 v 0.622769 h 3.084536 v -0.622769 z m -0.615442,-0.461581 h 4.352054 v 1.545931 h -4.352054 z m -1.795039,-0.608116 0.402968,-0.490888 q 0.190494,0.08792 0.410294,0.219801 0.227128,0.13188 0.432275,0.263761 0.212474,0.124554 0.351681,0.227127 l -0.424948,0.549502 q -0.124554,-0.1099 -0.329701,-0.249108 -0.197821,-0.139207 -0.417621,-0.271087 -0.219801,-0.139207 -0.424948,-0.249108 z m -0.366335,1.985534 0.388315,-0.505542 q 0.205147,0.102574 0.446928,0.234454 0.241781,0.124554 0.461581,0.263761 0.227128,0.13188 0.373661,0.241781 l -0.395641,0.564155 q -0.13188,-0.117227 -0.359008,-0.256434 -0.2198,-0.146534 -0.461581,-0.285741 -0.234454,-0.146534 -0.454255,-0.256434 z m 0.212474,3.612058 q 0.161187,-0.278414 0.359008,-0.659402 0.205147,-0.388315 0.410295,-0.813263 0.212474,-0.432275 0.380988,-0.849896 l 0.549501,0.439601 q -0.161187,0.380988 -0.344354,0.791283 -0.175841,0.402968 -0.366335,0.798609 -0.190494,0.388315 -0.373661,0.739996 z"
           id="text5-9"
           style="font-weight:500;font-size:7.32669px;line-height:1.25;font-family:'Noto Sans JP';-inkscape-font-specification:'Noto Sans JP Medium';fill:#f9f9f9;stroke-width:0.261667"
           aria-label="剣潭" />
        <path
           d="m 84.650651,32.689592 h 1.807616 v 0.29532 h -1.807616 z m -0.139546,-0.973581 h 2.112671 v 1.401957 h -0.327773 v -1.109883 h -1.473352 v 1.116373 h -0.311546 z m 0.642563,-1.622635 0.347244,0.11683 q -0.100603,0.194716 -0.223923,0.399168 -0.120075,0.204452 -0.24015,0.389432 -0.120075,0.184981 -0.230415,0.327773 l -0.272602,-0.113585 q 0.107094,-0.146037 0.220678,-0.337508 0.11683,-0.194716 0.220678,-0.399168 0.107094,-0.204452 0.17849,-0.382942 z m 0.78211,0.548451 0.24015,-0.17849 q 0.165509,0.133056 0.334263,0.295319 0.171999,0.159019 0.318037,0.321282 0.146037,0.162264 0.230414,0.30181 L 86.79253,31.5862 q -0.07789,-0.136301 -0.217433,-0.30181 -0.139547,-0.168754 -0.308301,-0.334263 -0.165509,-0.168754 -0.331018,-0.3083 z m -1.794634,0.431621 q 0.24015,-0.0065 0.538715,-0.01623 0.298565,-0.0097 0.632828,-0.02272 0.337508,-0.01298 0.684752,-0.02596 0.350489,-0.01623 0.691242,-0.03245 l -0.01298,0.295319 q -0.340753,0.01947 -0.687997,0.0357 -0.343999,0.01623 -0.675016,0.03245 -0.327773,0.01298 -0.623092,0.02596 -0.292075,0.0097 -0.525734,0.01947 z m 3.24527,-0.162264 h 0.957355 v 0.308301 h -0.957355 z m 1.606409,-0.739921 h 0.321281 v 2.378783 q 0,0.12981 0.02596,0.168754 0.02921,0.0357 0.126565,0.0357 0.02272,0 0.07789,0 0.05842,0 0.126565,0 0.06815,0 0.126566,0 0.05841,0 0.08438,0 0.0714,0 0.107094,-0.05517 0.0357,-0.05841 0.05192,-0.204452 0.01623,-0.146037 0.02596,-0.408904 0.03894,0.02921 0.09087,0.05841 0.05192,0.02921 0.107094,0.05192 0.05517,0.01947 0.09736,0.02921 -0.01623,0.30181 -0.05841,0.48679 -0.03894,0.181735 -0.129811,0.262867 -0.09087,0.08113 -0.262867,0.08113 -0.02596,0 -0.09411,0 -0.06815,0 -0.149282,0 -0.08113,0 -0.149283,0 -0.06491,0 -0.09087,0 -0.168754,0 -0.262867,-0.04543 -0.09411,-0.04543 -0.133056,-0.159018 -0.03894,-0.11034 -0.03894,-0.308301 z m -0.801582,-0.0032 h 0.318037 v 2.927234 h -0.318037 z m 1.86603,0.493281 0.223924,0.272603 q -0.155773,0.11683 -0.340753,0.230414 -0.184981,0.113585 -0.379697,0.223924 -0.191471,0.110339 -0.376451,0.207697 -0.01623,-0.05192 -0.05517,-0.12332 -0.0357,-0.0714 -0.06815,-0.11683 0.17849,-0.09736 0.360225,-0.214188 0.181736,-0.120075 0.347244,-0.243395 0.165509,-0.126565 0.288828,-0.236905 z m -2.777951,1.74271 q 0.133056,-0.04219 0.305056,-0.103848 0.171999,-0.06166 0.36347,-0.133056 0.194716,-0.0714 0.389432,-0.146037 l 0.05841,0.279093 q -0.249886,0.110339 -0.509507,0.220678 -0.256377,0.107094 -0.467319,0.194716 z m 5.721411,-1.846558 q 0,0.08438 0.05842,0.142792 0.05841,0.05841 0.142792,0.05841 0.08438,0 0.142792,-0.05841 0.06166,-0.05842 0.06166,-0.142792 0,-0.08438 -0.06166,-0.142792 -0.05842,-0.06166 -0.142792,-0.06166 -0.08438,0 -0.142792,0.06166 -0.05842,0.05841 -0.05842,0.142792 z m -0.171999,0 q 0,-0.103849 0.04868,-0.188226 0.05192,-0.08438 0.136301,-0.136301 0.08438,-0.05192 0.188226,-0.05192 0.103849,0 0.188226,0.05192 0.08438,0.05192 0.136301,0.136301 0.05192,0.08438 0.05192,0.188226 0,0.103848 -0.05192,0.188225 -0.05192,0.08438 -0.136301,0.136302 -0.08438,0.04868 -0.188226,0.04868 -0.103849,0 -0.188226,-0.04868 -0.08438,-0.05192 -0.136301,-0.136302 -0.04868,-0.08438 -0.04868,-0.188225 z m -1.723238,1.304598 q 0.05192,-0.133056 0.100603,-0.282338 0.05192,-0.149283 0.09411,-0.308301 0.04219,-0.162263 0.0714,-0.321282 0.03245,-0.159018 0.04868,-0.305055 l 0.366715,0.07464 q -0.0097,0.04219 -0.02272,0.09411 -0.01298,0.04868 -0.02596,0.09736 -0.0097,0.04868 -0.01947,0.08438 -0.01623,0.07789 -0.04543,0.201207 -0.02596,0.120075 -0.06491,0.259622 -0.03894,0.136301 -0.08438,0.279093 -0.04219,0.139546 -0.09087,0.259621 -0.05841,0.152528 -0.136302,0.314792 -0.07789,0.159018 -0.165508,0.311545 -0.08762,0.152528 -0.175245,0.279094 l -0.35373,-0.14933 q 0.152527,-0.201206 0.285583,-0.441356 0.133056,-0.243396 0.217434,-0.447848 z m 1.599918,-0.100603 q -0.04868,-0.126566 -0.11034,-0.269357 -0.05841,-0.142792 -0.12332,-0.285584 -0.06166,-0.146037 -0.12332,-0.272603 -0.06166,-0.126565 -0.113585,-0.217433 l 0.334263,-0.110339 q 0.04868,0.09087 0.110339,0.217433 0.06491,0.126565 0.129811,0.272603 0.06491,0.142791 0.126566,0.285583 0.06166,0.142792 0.110339,0.266112 0.04543,0.11683 0.09736,0.262867 0.05517,0.146037 0.107094,0.30181 0.05517,0.152528 0.100603,0.298565 0.04543,0.142792 0.07789,0.259622 l -0.369961,0.120075 q -0.04219,-0.17849 -0.100603,-0.373206 -0.05842,-0.194716 -0.123321,-0.389433 -0.06166,-0.194716 -0.12981,-0.366715 z m 3.806702,-1.067694 q -0.01623,0.03894 -0.03245,0.09087 -0.01298,0.04868 -0.02596,0.09736 -0.02596,0.12332 -0.06815,0.275848 -0.04219,0.152527 -0.103849,0.314791 -0.05841,0.162263 -0.136301,0.318036 -0.07789,0.152528 -0.175244,0.282339 -0.149283,0.191471 -0.337509,0.35698 -0.18498,0.165508 -0.421885,0.298564 -0.236904,0.129811 -0.532224,0.223924 l -0.279093,-0.305055 q 0.321282,-0.07789 0.554941,-0.191471 0.233659,-0.11683 0.405659,-0.262867 0.175244,-0.149283 0.3083,-0.318037 0.113585,-0.142792 0.194717,-0.318036 0.08113,-0.175245 0.136301,-0.350489 0.05517,-0.17849 0.07464,-0.327773 -0.04543,0 -0.168754,0 -0.120075,0 -0.282338,0 -0.162264,0 -0.340754,0 -0.175244,0 -0.340753,0 -0.162264,0 -0.285584,0 -0.12332,0 -0.175244,0 -0.103849,0 -0.197962,0.0032 -0.09087,0.0032 -0.152528,0.0097 v -0.363439 q 0.04543,0.0065 0.107094,0.01298 0.06166,0.0032 0.126566,0.0097 0.06491,0.0032 0.11683,0.0032 0.04543,0 0.142791,0 0.100604,0 0.230415,0 0.133056,0 0.282338,0 0.149283,0 0.29532,0 0.149282,0 0.275848,0 0.12981,0 0.220678,0 0.09087,0 0.126566,0 0.04219,0 0.09736,-0.0032 0.05841,-0.0065 0.110339,-0.01947 z m 2.557272,0.159018 q -0.0097,0.05192 -0.01298,0.11683 0,0.0649 0,0.12332 0,0.08762 0.0032,0.214188 0.0032,0.126566 0.0065,0.282339 0.0032,0.152527 0.0065,0.318036 0.0032,0.165509 0.0065,0.331018 0.0032,0.165508 0.0065,0.318036 0.0032,0.149282 0.0032,0.272603 0,0.113584 -0.07789,0.181735 -0.07789,0.06815 -0.197961,0.06815 -0.06815,0 -0.159018,-0.0032 -0.08762,-0.0032 -0.172,-0.0097 -0.08438,-0.0032 -0.152527,-0.0065 l -0.01947,-0.29532 q 0.09736,0.01623 0.204452,0.02596 0.110339,0.0065 0.181735,0.0065 0.04543,0 0.0649,-0.02596 0.01947,-0.02596 0.01947,-0.07464 0,-0.09087 -0.0032,-0.220679 0,-0.133056 -0.0032,-0.282338 0,-0.152528 -0.0032,-0.308301 0,-0.155773 -0.0032,-0.305055 -0.0032,-0.149283 -0.0065,-0.272603 -0.0032,-0.126565 -0.0065,-0.214188 -0.0032,-0.05192 -0.0097,-0.116829 -0.0032,-0.06491 -0.01298,-0.123321 z m -1.505805,0.457537 q 0.05517,0.0097 0.126565,0.01623 0.07464,0.0032 0.136302,0.0032 0.0357,0 0.133056,0 0.100603,0 0.24015,0 0.142792,0 0.305055,0 0.162264,0 0.324527,0 0.162264,0 0.30181,0 0.139547,0 0.23366,0 0.09736,0 0.126565,0 0.05517,0 0.126566,-0.0065 0.07464,-0.0065 0.110339,-0.01298 v 0.318037 q -0.04868,-0.0032 -0.113585,-0.0032 -0.06491,-0.0032 -0.113584,-0.0032 -0.02272,0 -0.120075,0 -0.09411,0 -0.236905,0 -0.139546,0 -0.305055,0 -0.162264,0 -0.331018,0 -0.165508,0 -0.3083,0 -0.142792,0 -0.24015,0 -0.09736,0 -0.126566,0 -0.06491,0 -0.136301,0.0032 -0.0714,0 -0.133056,0.0065 z m -0.110339,1.249429 q 0.194716,-0.09087 0.386187,-0.217433 0.191471,-0.126565 0.356979,-0.266112 0.165509,-0.142792 0.292075,-0.282338 0.126565,-0.142792 0.197961,-0.266113 h 0.165509 l 0.0032,0.249886 q -0.06166,0.11683 -0.188225,0.256377 -0.123321,0.139546 -0.285584,0.285583 -0.162264,0.142792 -0.343999,0.272603 -0.17849,0.129811 -0.360225,0.223924 z m 3.031078,-1.155316 q 0.0552,0.0032 0.13306,0.0097 0.0811,0.0032 0.172,0.0065 0.0941,0.0032 0.17849,0.0032 0.0649,0 0.17849,0 0.11358,0 0.25638,0 0.14603,0 0.30505,0 0.15902,0 0.31479,0 0.15902,0 0.29857,0 0.13954,0 0.24664,0 0.10709,0 0.16551,0 0.11683,0 0.21094,-0.0065 0.0941,-0.0097 0.15253,-0.01298 v 0.402414 q -0.0552,-0.0032 -0.15578,-0.0097 -0.1006,-0.0065 -0.20769,-0.0065 -0.0552,0 -0.16551,0 -0.1071,0 -0.24664,0 -0.13955,0 -0.29857,0 -0.15577,0 -0.31479,0 -0.15902,0 -0.30505,0 -0.1428,0 -0.25638,0 -0.11359,0 -0.17849,0 -0.13306,0 -0.26611,0.0065 -0.13306,0.0032 -0.21744,0.0097 z m 3.85863,-1.048222 q 0.12657,0.01623 0.30181,0.04868 0.17524,0.02921 0.37321,0.06815 0.19796,0.03894 0.39267,0.08438 0.19797,0.04543 0.36996,0.09411 0.172,0.04543 0.29532,0.08762 l -0.13305,0.318036 q -0.11359,-0.04543 -0.28234,-0.09087 -0.16551,-0.04543 -0.36023,-0.09087 -0.19147,-0.04868 -0.38943,-0.09087 -0.19471,-0.04219 -0.3732,-0.07464 -0.17525,-0.03245 -0.3148,-0.04868 z m -0.14604,0.866487 q 0.16876,0.02921 0.38944,0.07464 0.22067,0.04219 0.45758,0.09736 0.2369,0.05192 0.44785,0.11034 0.21418,0.05517 0.36671,0.110339 l -0.12656,0.314791 q -0.1428,-0.05192 -0.35049,-0.110339 -0.2077,-0.06166 -0.44461,-0.11683 -0.23366,-0.05517 -0.46082,-0.100603 -0.22393,-0.04543 -0.39917,-0.0714 z m -0.172,0.937883 q 0.16227,0.02596 0.36996,0.06815 0.2077,0.03894 0.42838,0.09087 0.22068,0.04868 0.43487,0.103849 0.21743,0.05517 0.40565,0.113584 0.18823,0.05517 0.32129,0.107094 l -0.1428,0.318037 q -0.12981,-0.05517 -0.31803,-0.110339 -0.18498,-0.05841 -0.40242,-0.113585 -0.21743,-0.05841 -0.44135,-0.107094 -0.22068,-0.05192 -0.42513,-0.09087 -0.20121,-0.03894 -0.36023,-0.06166 z m 3.39131,-1.726484 q 0.0876,0.05841 0.20121,0.146038 0.11358,0.08438 0.23041,0.181735 0.12008,0.09736 0.22717,0.188225 0.10709,0.09087 0.172,0.162264 l -0.25638,0.262867 q -0.0617,-0.06491 -0.16226,-0.155773 -0.1006,-0.09411 -0.21743,-0.191471 -0.11359,-0.100603 -0.22717,-0.188226 -0.11359,-0.09087 -0.20445,-0.152527 z m -0.33426,2.171086 q 0.2726,-0.04219 0.50301,-0.110339 0.23042,-0.0714 0.42189,-0.159018 0.19472,-0.09087 0.35049,-0.184981 0.25962,-0.159018 0.47705,-0.366715 0.22068,-0.207697 0.38619,-0.428376 0.16551,-0.220678 0.26287,-0.428375 l 0.19796,0.353734 q -0.11683,0.210943 -0.28883,0.421885 -0.16875,0.210943 -0.38294,0.405659 -0.21419,0.191471 -0.46732,0.347244 -0.16226,0.100603 -0.35698,0.194716 -0.19147,0.09411 -0.4154,0.168754 -0.22067,0.07464 -0.47056,0.120075 z m 5.32549,-2.375538 q 0.0422,0.05517 0.0909,0.136302 0.0487,0.08113 0.0941,0.162263 0.0454,0.08113 0.0779,0.146037 l -0.21419,0.09087 q -0.0487,-0.09736 -0.12008,-0.227169 -0.0714,-0.129811 -0.1363,-0.220678 z m 0.36671,-0.139546 q 0.0454,0.06166 0.0941,0.142792 0.0519,0.08113 0.0974,0.162263 0.0487,0.07789 0.0779,0.136302 l -0.21094,0.09411 q -0.0519,-0.103848 -0.12657,-0.230414 -0.0714,-0.126565 -0.13954,-0.217433 z m -0.11683,0.814563 q -0.026,0.03894 -0.0487,0.09411 -0.0227,0.05517 -0.0422,0.103849 -0.0422,0.155773 -0.12007,0.343999 -0.0779,0.188225 -0.19147,0.386187 -0.11359,0.194716 -0.25963,0.373206 -0.22392,0.275848 -0.53547,0.499771 -0.3083,0.223924 -0.76263,0.399169 l -0.30181,-0.272603 q 0.31479,-0.09087 0.55169,-0.214188 0.24015,-0.126565 0.42189,-0.275848 0.18498,-0.152527 0.32777,-0.318036 0.12332,-0.139547 0.22068,-0.308301 0.1006,-0.171999 0.172,-0.340753 0.0746,-0.172 0.1006,-0.308301 h -1.15532 l 0.12332,-0.292074 q 0.0422,0 0.1428,0 0.10384,0 0.23366,0 0.13305,0 0.25962,0 0.12981,0 0.22392,0 0.0974,0 0.12981,0 0.0682,0 0.13306,-0.0065 0.0649,-0.0097 0.11034,-0.02596 z m -1.07418,-0.499772 q -0.0487,0.0714 -0.0974,0.155773 -0.0454,0.08438 -0.0714,0.129811 -0.10061,0.188225 -0.25638,0.395923 -0.15253,0.207697 -0.35373,0.405659 -0.20121,0.197961 -0.4511,0.366715 l -0.28558,-0.210943 q 0.21094,-0.126565 0.37645,-0.269357 0.16551,-0.142792 0.28558,-0.285584 0.12333,-0.146037 0.21095,-0.279093 0.0876,-0.133056 0.14603,-0.24015 0.0292,-0.04868 0.0649,-0.136301 0.0357,-0.08762 0.0552,-0.155773 z m 4.62451,0.253131 q -0.0227,0.02596 -0.0552,0.06815 -0.0292,0.03894 -0.0519,0.06815 -0.0682,0.120075 -0.19147,0.282339 -0.12008,0.162263 -0.27585,0.327772 -0.15253,0.162264 -0.32777,0.285584 l -0.26936,-0.217433 q 0.10709,-0.06166 0.2077,-0.146037 0.10384,-0.08762 0.19147,-0.181735 0.0909,-0.09411 0.15901,-0.181736 0.0682,-0.09087 0.10385,-0.162263 -0.0454,0 -0.15577,0 -0.10709,0 -0.25962,0 -0.14928,0 -0.32128,0 -0.16876,0 -0.33751,0 -0.16876,0 -0.31479,0 -0.14604,0 -0.24989,0 -0.10385,0 -0.13955,0 -0.0974,0 -0.18822,0.0065 -0.0909,0.0032 -0.19472,0.01298 v -0.360232 q 0.0909,0.0097 0.18823,0.01947 0.0974,0.0097 0.19471,0.0097 0.0357,0 0.1428,0 0.10709,0 0.25637,0 0.15253,0 0.32778,0 0.17524,0 0.35048,0 0.17525,0 0.32778,0 0.15252,0 0.25962,0 0.10709,0 0.14928,0 0.0357,0 0.0876,0 0.0552,-0.0032 0.10385,-0.0097 0.0519,-0.0065 0.0779,-0.01298 z m -1.31109,0.431621 q 0,0.253131 -0.013,0.4803 -0.013,0.227169 -0.0617,0.431621 -0.0454,0.201207 -0.14279,0.379696 -0.0974,0.175245 -0.26287,0.331018 -0.16551,0.155773 -0.42189,0.285584 l -0.29856,-0.243395 q 0.0714,-0.02272 0.15253,-0.06166 0.0844,-0.04219 0.15901,-0.09736 0.17525,-0.113584 0.28234,-0.24664 0.1071,-0.133056 0.15902,-0.285584 0.0552,-0.155773 0.0746,-0.334263 0.0227,-0.17849 0.0227,-0.379696 0,-0.06491 -0.003,-0.126566 -0.003,-0.06166 -0.0162,-0.133056 z m 1.61939,0.314791 q 0.0552,0.0032 0.13305,0.0097 0.0811,0.0032 0.172,0.0065 0.0941,0.0032 0.17849,0.0032 0.0649,0 0.17849,0 0.11359,0 0.25638,0 0.14604,0 0.30505,0 0.15902,0 0.3148,0 0.15901,0 0.29856,0 0.13955,0 0.24664,0 0.10709,0 0.16551,0 0.11683,0 0.21094,-0.0065 0.0941,-0.0097 0.15253,-0.01298 v 0.402414 q -0.0552,-0.0032 -0.15577,-0.0097 -0.10061,-0.0065 -0.2077,-0.0065 -0.0552,0 -0.16551,0 -0.10709,0 -0.24664,0 -0.13955,0 -0.29856,0 -0.15578,0 -0.3148,0 -0.15901,0 -0.30505,0 -0.14279,0 -0.25638,0 -0.11358,0 -0.17849,0 -0.13305,0 -0.26611,0.0065 -0.13306,0.0032 -0.21743,0.0097 z m 4.36813,-1.031996 q 0.0292,0.05841 0.0746,0.172 0.0487,0.113584 0.0974,0.24664 0.0519,0.129811 0.0941,0.249886 0.0422,0.120075 0.0649,0.191471 l -0.32128,0.113584 q -0.0195,-0.07464 -0.0617,-0.191471 -0.0422,-0.116829 -0.0909,-0.24664 -0.0454,-0.129811 -0.0941,-0.243395 -0.0454,-0.11683 -0.0779,-0.184981 z m 1.46037,0.230415 q -0.0195,0.04868 -0.0389,0.110339 -0.0195,0.05841 -0.0292,0.103848 -0.0487,0.191471 -0.12656,0.408904 -0.0746,0.214188 -0.17849,0.425131 -0.10385,0.207697 -0.23691,0.386187 -0.16875,0.220678 -0.3797,0.402413 -0.20769,0.181735 -0.43486,0.321282 -0.22717,0.136301 -0.46083,0.217433 l -0.28234,-0.285584 q 0.22717,-0.06815 0.45758,-0.18498 0.23042,-0.120075 0.44136,-0.288829 0.21419,-0.168754 0.37645,-0.376451 0.12657,-0.162264 0.23042,-0.382942 0.10384,-0.220679 0.17524,-0.470564 0.0746,-0.249886 0.10709,-0.493281 z m -2.36256,-0.03245 q 0.0324,0.0714 0.0844,0.188225 0.0519,0.11683 0.10385,0.253132 0.0552,0.133056 0.10385,0.256376 0.0487,0.120075 0.0779,0.201207 l -0.32777,0.120075 q -0.0195,-0.06166 -0.0552,-0.155773 -0.0324,-0.09736 -0.0779,-0.204452 -0.0422,-0.11034 -0.0876,-0.217433 -0.0454,-0.107094 -0.0844,-0.191471 -0.0389,-0.08762 -0.0617,-0.133056 z m 3.60226,1.856294 q 0,-0.06815 0,-0.201206 0,-0.136302 0,-0.301811 0,-0.168754 0,-0.350489 0,-0.18498 0,-0.360225 0,-0.17849 0,-0.324527 0,-0.146037 0,-0.236904 0,-0.05192 -0.003,-0.11034 0,-0.05841 -0.007,-0.116829 -0.003,-0.05841 -0.013,-0.103849 h 0.38618 q -0.013,0.0714 -0.0195,0.162264 -0.007,0.09087 -0.007,0.168754 0,0.09087 0,0.227168 0,0.133057 0,0.29532 0,0.162264 0,0.331018 0,0.168754 0,0.327772 0,0.159018 0,0.292074 0,0.129811 0,0.214188 0,0.107094 0.0324,0.171999 0.0325,0.06166 0.12982,0.08762 0.0974,0.02596 0.28233,0.02596 0.18174,0 0.35374,-0.0097 0.172,-0.01298 0.33751,-0.0357 0.16551,-0.02272 0.32777,-0.05517 l -0.013,0.35049 q -0.13955,0.01947 -0.30181,0.0357 -0.16226,0.01623 -0.344,0.02272 -0.17849,0.0097 -0.36671,0.0097 -0.24989,0 -0.40242,-0.03245 -0.15253,-0.03245 -0.23366,-0.09411 -0.0811,-0.06491 -0.11034,-0.162264 -0.0292,-0.09736 -0.0292,-0.227169 z m 1.95365,-1.437654 q -0.0162,0.02921 -0.0454,0.0714 -0.026,0.04219 -0.0454,0.07789 -0.0552,0.100603 -0.13306,0.227169 -0.0746,0.12332 -0.16226,0.253131 -0.0876,0.129811 -0.18498,0.249886 -0.0941,0.120075 -0.18823,0.214188 l -0.28233,-0.165509 q 0.11682,-0.107094 0.22392,-0.24015 0.11034,-0.133056 0.19471,-0.262867 0.0876,-0.129811 0.13306,-0.220678 -0.0292,0.0065 -0.14279,0.02921 -0.11034,0.02272 -0.27909,0.05841 -0.16876,0.03245 -0.36996,0.07464 -0.20121,0.03894 -0.40891,0.08113 -0.2077,0.04219 -0.39917,0.08113 -0.19147,0.0357 -0.344,0.06815 -0.15252,0.03245 -0.2369,0.05193 l -0.0617,-0.340754 q 0.0909,-0.0097 0.24339,-0.03245 0.15578,-0.02596 0.34725,-0.06166 0.19471,-0.0357 0.40566,-0.07464 0.21094,-0.04219 0.41539,-0.08113 0.20445,-0.04219 0.38294,-0.07789 0.18174,-0.0357 0.31155,-0.06166 0.12981,-0.02921 0.18498,-0.04219 0.0617,-0.01298 0.11034,-0.02921 0.0519,-0.01623 0.0876,-0.03894 z m 1.09041,-0.554942 q 0.0876,0.05841 0.20121,0.146038 0.11358,0.08438 0.23041,0.181735 0.12008,0.09736 0.22717,0.188225 0.10709,0.09087 0.172,0.162264 l -0.25638,0.262867 q -0.0617,-0.06491 -0.16226,-0.155773 -0.1006,-0.09411 -0.21743,-0.191471 -0.11359,-0.100603 -0.22717,-0.188226 -0.11359,-0.09087 -0.20445,-0.152527 z m -0.33426,2.171086 q 0.2726,-0.04219 0.50301,-0.110339 0.23042,-0.0714 0.42189,-0.159018 0.19472,-0.09087 0.35049,-0.184981 0.25962,-0.159018 0.47705,-0.366715 0.22068,-0.207697 0.38619,-0.428376 0.16551,-0.220678 0.26287,-0.428375 l 0.19796,0.353734 q -0.11683,0.210943 -0.28883,0.421885 -0.16875,0.210943 -0.38294,0.405659 -0.21419,0.191471 -0.46732,0.347244 -0.16226,0.100603 -0.35698,0.194716 -0.19147,0.09411 -0.4154,0.168754 -0.22067,0.07464 -0.47056,0.120075 z m 4.18964,-1.255919 q 0.15253,0.09087 0.32777,0.204452 0.17525,0.110339 0.35049,0.233659 0.17525,0.120075 0.33102,0.23366 0.15902,0.113584 0.2726,0.210942 l -0.24015,0.285584 q -0.11034,-0.100604 -0.26611,-0.223924 -0.15253,-0.12332 -0.33102,-0.253131 -0.17524,-0.129811 -0.35049,-0.24664 -0.172,-0.120075 -0.31803,-0.214188 z m 1.50256,-0.574413 q -0.0227,0.03894 -0.0487,0.09736 -0.0227,0.05517 -0.0389,0.103849 -0.0487,0.155773 -0.13306,0.343998 -0.0811,0.188226 -0.19796,0.382942 -0.11358,0.191471 -0.25637,0.369961 -0.22393,0.275848 -0.5517,0.528979 -0.32453,0.249886 -0.78535,0.42513 l -0.29532,-0.259621 q 0.31803,-0.09736 0.56467,-0.236905 0.24989,-0.139547 0.44136,-0.30181 0.19147,-0.165509 0.33426,-0.334263 0.12008,-0.142792 0.22068,-0.311546 0.10385,-0.168754 0.17849,-0.337508 0.0779,-0.168754 0.11034,-0.305055 h -1.15856 l 0.12332,-0.292075 h 0.98656 q 0.0682,0 0.13306,-0.0097 0.0649,-0.0097 0.11034,-0.02596 z m -1.08392,-0.4803 q -0.0487,0.0714 -0.0974,0.155773 -0.0454,0.08438 -0.0714,0.133056 -0.10385,0.181735 -0.26611,0.399168 -0.15902,0.217433 -0.36672,0.428376 -0.20769,0.207697 -0.45433,0.379696 l -0.27585,-0.214187 q 0.28234,-0.175245 0.48354,-0.376452 0.20445,-0.201207 0.34076,-0.392677 0.1363,-0.191471 0.21418,-0.337509 0.0292,-0.04868 0.0649,-0.133056 0.0389,-0.08762 0.0584,-0.159018 z m 1.77516,1.109882 q 0.0552,0.0032 0.13306,0.0097 0.0811,0.0032 0.172,0.0065 0.0941,0.0032 0.17849,0.0032 0.0649,0 0.17849,0 0.11358,0 0.25637,0 0.14604,0 0.30506,0 0.15902,0 0.31479,0 0.15902,0 0.29857,0 0.13954,0 0.24664,0 0.10709,0 0.16551,0 0.11682,0 0.21094,-0.0065 0.0941,-0.0097 0.15253,-0.01298 v 0.402414 q -0.0552,-0.0032 -0.15578,-0.0097 -0.1006,-0.0065 -0.20769,-0.0065 -0.0552,0 -0.16551,0 -0.1071,0 -0.24664,0 -0.13955,0 -0.29857,0 -0.15577,0 -0.31479,0 -0.15902,0 -0.30506,0 -0.14279,0 -0.25637,0 -0.11359,0 -0.17849,0 -0.13306,0 -0.26611,0.0065 -0.13306,0.0032 -0.21744,0.0097 z"
           id="text5-9-1"
           style="font-weight:500;font-size:3.24527px;line-height:1.25;font-family:'Noto Sans JP';-inkscape-font-specification:'Noto Sans JP Medium';fill:#f9f9f9;stroke-width:0.115903"
           aria-label="台北パフォーミングアーツセンター" />
        <path
           style="font-weight:500;font-size:3.24527px;line-height:1.25;font-family:'Noto Sans kr';-inkscape-font-specification:'Noto Sans kr Medium';fill:#f9f9f9;stroke-width:0.115903"
           d="m 139.35424,32.229709 h 0.2369 q 0.26287,0 0.48679,-0.0065 0.22392,-0.0065 0.43162,-0.02272 0.21094,-0.01947 0.43162,-0.05517 l 0.0325,0.272603 q -0.22392,0.0357 -0.44135,0.05841 -0.21419,0.01947 -0.4446,0.02596 -0.22717,0.0032 -0.49653,0.0032 h -0.2369 z m 0,-1.736219 h 1.38573 v 0.279093 h -1.04823 v 1.551239 h -0.3375 z m 0.25637,0.830789 h 1.07419 v 0.269357 h -1.07419 z m 1.5772,-1.087166 h 0.34076 v 2.966177 h -0.34076 z m 0.26611,1.161807 h 0.53547 v 0.282338 h -0.53547 z m 2.86233,-1.165052 h 0.34076 v 2.972667 h -0.34076 z m -1.23644,0.217433 q 0.22067,0 0.39267,0.129811 0.17525,0.129811 0.27261,0.36347 0.0974,0.23366 0.0974,0.551696 0,0.321282 -0.0974,0.558186 -0.0974,0.23366 -0.27261,0.363471 -0.172,0.126565 -0.39267,0.126565 -0.22068,0 -0.39593,-0.126565 -0.172,-0.129811 -0.2726,-0.363471 -0.0974,-0.236904 -0.0974,-0.558186 0,-0.318036 0.0974,-0.551696 0.1006,-0.233659 0.2726,-0.36347 0.17525,-0.129811 0.39593,-0.129811 z m 0,0.308301 q -0.12982,0 -0.23042,0.08762 -0.0974,0.08762 -0.15253,0.253131 -0.0552,0.165509 -0.0552,0.395923 0,0.233659 0.0552,0.399168 0.0552,0.165509 0.15253,0.256377 0.1006,0.08762 0.23042,0.08762 0.12981,0 0.22716,-0.08762 0.0974,-0.09087 0.15253,-0.256377 0.0552,-0.165509 0.0552,-0.399168 0,-0.230414 -0.0552,-0.395923 -0.0552,-0.165509 -0.15253,-0.253131 -0.0974,-0.08762 -0.22716,-0.08762 z m 2.21976,-0.24015 h 0.32128 v 0.700978 h 0.516 v -0.700978 h 0.31479 v 1.956898 h -1.15207 z m 0.32128,0.973581 v 0.707469 h 0.516 v -0.707469 z m 1.78815,-1.259165 h 0.32452 v 2.966177 H 147.409 Z m -1.01253,1.109882 h 0.53547 v 0.275848 h -0.53547 z m 0.41864,-1.051467 h 0.31804 v 2.768215 h -0.31804 z m 3.47244,-0.05841 h 0.34075 v 2.972667 h -0.34075 z m -1.23645,0.217433 q 0.22068,0 0.39268,0.129811 0.17524,0.129811 0.2726,0.36347 0.0974,0.23366 0.0974,0.551696 0,0.321282 -0.0974,0.558186 -0.0974,0.23366 -0.2726,0.363471 -0.172,0.126565 -0.39268,0.126565 -0.22068,0 -0.39592,-0.126565 -0.172,-0.129811 -0.2726,-0.363471 -0.0974,-0.236904 -0.0974,-0.558186 0,-0.318036 0.0974,-0.551696 0.1006,-0.233659 0.2726,-0.36347 0.17524,-0.129811 0.39592,-0.129811 z m 0,0.308301 q -0.12981,0 -0.23041,0.08762 -0.0974,0.08762 -0.15253,0.253131 -0.0552,0.165509 -0.0552,0.395923 0,0.233659 0.0552,0.399168 0.0552,0.165509 0.15253,0.256377 0.1006,0.08762 0.23041,0.08762 0.12981,0 0.22717,-0.08762 0.0974,-0.09087 0.15253,-0.256377 0.0552,-0.165509 0.0552,-0.399168 0,-0.230414 -0.0552,-0.395923 -0.0552,-0.165509 -0.15253,-0.253131 -0.0974,-0.08762 -0.22717,-0.08762 z m 3.30044,0.165509 h 0.54196 v 0.275847 h -0.54196 z m 0,0.908675 h 0.54196 v 0.275848 h -0.54196 z m 1.02875,-1.599918 h 0.32453 v 2.966177 h -0.32453 z m -0.58739,0.05841 h 0.32128 v 2.768215 h -0.32128 z m -0.95411,0.171999 q 0.19472,0 0.33751,0.129811 0.14603,0.126566 0.22392,0.36347 0.0779,0.23366 0.0779,0.561432 0,0.324527 -0.0779,0.561432 -0.0779,0.236904 -0.22392,0.36347 -0.14279,0.126565 -0.33751,0.126565 -0.19147,0 -0.33426,-0.126565 -0.1428,-0.126566 -0.22068,-0.36347 -0.0779,-0.236905 -0.0779,-0.561432 0,-0.327772 0.0779,-0.561432 0.0779,-0.236904 0.22068,-0.36347 0.14603,-0.129811 0.33426,-0.129811 z m 0,0.321282 q -0.1006,0 -0.17525,0.08438 -0.0714,0.08438 -0.11358,0.249886 -0.0389,0.162263 -0.0389,0.399168 0,0.230414 0.0389,0.395923 0.0422,0.165509 0.11358,0.253131 0.0746,0.08438 0.17525,0.08438 0.10385,0 0.17849,-0.08438 0.0746,-0.08762 0.11358,-0.253131 0.0389,-0.165509 0.0389,-0.395923 0,-0.236905 -0.0389,-0.399168 -0.0389,-0.165509 -0.11358,-0.249886 -0.0746,-0.08438 -0.17849,-0.08438 z m 3.48542,-0.53547 h 0.28883 v 0.08438 q 0,0.152528 -0.0584,0.285584 -0.0584,0.129811 -0.16875,0.24015 -0.10709,0.110339 -0.25638,0.194716 -0.14928,0.08438 -0.33101,0.142792 -0.18174,0.05517 -0.38619,0.07789 l -0.11359,-0.256377 q 0.17849,-0.01947 0.33427,-0.06166 0.15577,-0.04543 0.28234,-0.110339 0.12981,-0.0649 0.22067,-0.146037 0.0909,-0.08113 0.13955,-0.171999 0.0487,-0.09411 0.0487,-0.194717 z m 0.0617,0 h 0.28558 v 0.08438 q 0,0.100604 0.0487,0.194717 0.0487,0.09087 0.13955,0.171999 0.0941,0.08113 0.22068,0.146037 0.12656,0.0649 0.28234,0.110339 0.15901,0.04219 0.3375,0.06166 l -0.11683,0.256377 q -0.20445,-0.02272 -0.38618,-0.07789 -0.17849,-0.05841 -0.33102,-0.142792 -0.14928,-0.08438 -0.25638,-0.194716 -0.10709,-0.110339 -0.1655,-0.24015 -0.0584,-0.133056 -0.0584,-0.285584 z m -0.0584,1.395466 h 0.3375 v 0.434867 h -0.3375 z m -1.1683,-0.207697 h 2.68059 v 0.272603 h -2.68059 z m 0.31479,0.519243 h 2.02829 v 0.717205 h -1.68754 v 0.311546 h -0.33426 v -0.551696 h 1.68754 V 32.213483 H 154.474 Z m 0.006,0.957355 h 2.10618 v 0.259622 H 154.48 Z m 3.85538,-1.963388 h 0.51924 v 0.279093 h -0.51924 z m 0.9963,-0.71396 h 0.32452 v 2.219765 h -0.32452 z m -0.58415,0.05192 h 0.31804 v 2.083463 h -0.31804 z m -1.05471,2.576744 h 2.04452 v 0.275848 h -2.04452 z m 0,-0.675016 h 0.34075 v 0.840525 h -0.34075 z m 0.026,-1.749201 h 0.26611 v 0.408904 q 0,0.246641 -0.0746,0.483546 -0.0714,0.233659 -0.22068,0.42513 -0.14928,0.188226 -0.37321,0.295319 l -0.18822,-0.262866 q 0.19796,-0.09736 0.32777,-0.249886 0.13306,-0.152528 0.19796,-0.331018 0.0649,-0.181735 0.0649,-0.360225 z m 0.0649,0 h 0.26287 v 0.408904 q 0,0.175245 0.0584,0.340754 0.0617,0.165508 0.18498,0.305055 0.12332,0.136301 0.30505,0.223924 l -0.18498,0.256376 q -0.21419,-0.09736 -0.35373,-0.269357 -0.13955,-0.175245 -0.2077,-0.395923 -0.0649,-0.223924 -0.0649,-0.460829 z m 4.46874,-0.207697 h 0.34075 v 2.972667 h -0.34075 z m -0.56792,1.08392 h 0.61335 v 0.279093 h -0.61335 z m -1.41818,0.918412 h 0.23041 q 0.26611,0 0.4803,-0.0065 0.21743,-0.0065 0.41539,-0.02272 0.19797,-0.01947 0.40566,-0.05517 l 0.0325,0.272602 q -0.21419,0.0357 -0.41864,0.05517 -0.20121,0.01947 -0.42513,0.02596 -0.22068,0.0065 -0.49004,0.0065 h -0.23041 z m 0,-1.74271 h 1.3695 v 0.279093 h -1.032 v 1.551239 h -0.3375 z m 0.25313,0.830789 h 0.99954 v 0.269357 h -0.99954 z"
           id="text5-9-1-0"
           aria-label="타이베이예술센터
" />
        <path
           style="font-weight:500;font-size:7.32669px;line-height:1.25;font-family:'Noto Sans KR';-inkscape-font-specification:'Noto Sans KR Medium';fill:#f9f9f9;stroke-width:0.261667"
           d="m 66.064264,43.592173 h 0.732669 v 5.011456 h -0.732669 z m -2.1687,1.817019 h 1.135637 v 0.630096 h -1.135637 z m 0.864549,-1.685139 h 0.725343 v 4.711062 h -0.725343 z m -2.395827,5.802739 H 66.9801 v 0.622769 h -4.615814 z m 0,-1.501971 h 0.769302 v 1.897612 h -0.769302 z m 0.05129,-3.377605 h 0.608116 v 0.490889 q 0,0.534848 -0.168514,1.04039 -0.168514,0.505541 -0.505542,0.901183 -0.337027,0.388314 -0.857222,0.608115 l -0.395642,-0.593462 q 0.446928,-0.183167 0.732669,-0.498215 0.293068,-0.315048 0.439602,-0.688709 0.146533,-0.380988 0.146533,-0.769302 z m 0.146534,0 h 0.593462 v 0.483562 q 0,0.366335 0.139207,0.725342 0.146534,0.351681 0.424948,0.637422 0.278415,0.285741 0.696036,0.454255 l -0.388315,0.600789 Q 63.529233,47.343438 63.199532,46.969777 62.877158,46.596116 62.715971,46.119881 62.56211,45.643646 62.56211,45.130778 Z m -1.296824,-0.446928 h 2.96731 v 0.615442 h -2.96731 z m 6.879763,2.769489 h 0.527522 q 0.674055,0 1.17227,-0.0073 0.505542,-0.01465 0.93049,-0.05129 0.424948,-0.04396 0.864549,-0.124554 l 0.08792,0.600789 q -0.454254,0.08792 -0.893856,0.13188 -0.439601,0.03663 -0.959796,0.05129 -0.520195,0.01465 -1.201577,0.01465 h -0.527522 z m 0,-2.857409 h 3.091863 v 0.615442 h -2.329887 v 2.454441 h -0.761976 z m 0.520195,1.414051 h 2.447115 v 0.600789 H 68.66524 Z m 3.663345,-1.941573 h 0.761976 v 4.967496 h -0.761976 z m 0.534848,2.03682 h 1.172271 v 0.637422 h -1.172271 z m -4.007699,3.905126 h 4.513241 v 0.622769 h -4.513241 z m 0,-1.428704 h 0.769302 v 1.795039 h -0.769302 z"
           id="text5-9-8"
           aria-label="젠탄" />
        <path
           id="rect2"
           style="fill:#ffffff;stroke-width:0.757875"
           d="m 79.64688,16.369678 h 1.050099 V 33.134193 H 79.64688 Z" />
      </g>
    </g>
  </g>
</svg>
