<?xml version="1.0" encoding="UTF-8" standalone="no"?>
<!-- Created with Inkscape (http://www.inkscape.org/) -->

<svg
   width="500"
   height="250"
   viewBox="0 0 132.29166 66.145833"
   version="1.1"
   id="svg1"
   inkscape:version="1.3.2 (091e20e, 2023-11-25, custom)"
   sodipodi:docname="r15_2.svg"
   xmlns:inkscape="http://www.inkscape.org/namespaces/inkscape"
   xmlns:sodipodi="http://sodipodi.sourceforge.net/DTD/sodipodi-0.dtd"
   xmlns="http://www.w3.org/2000/svg"
   xmlns:svg="http://www.w3.org/2000/svg">
  <sodipodi:namedview
     id="namedview1"
     pagecolor="#9e652e"
     bordercolor="#ffffff"
     borderopacity="1"
     inkscape:showpageshadow="0"
     inkscape:pageopacity="0"
     inkscape:pagecheckerboard="false"
     inkscape:deskcolor="#d1d1d1"
     inkscape:document-units="mm"
     inkscape:zoom="2.0208096"
     inkscape:cx="305.81802"
     inkscape:cy="106.88785"
     inkscape:window-width="1920"
     inkscape:window-height="1009"
     inkscape:window-x="1912"
     inkscape:window-y="-8"
     inkscape:window-maximized="1"
     inkscape:current-layer="g4" />
  <defs
     id="defs1">
    <rect
       x="560.66638"
       y="34.144731"
       width="279.32397"
       height="128.59143"
       id="rect6" />
    <rect
       x="157.85752"
       y="62.351248"
       width="329.07603"
       height="135.09437"
       id="rect4" />
    <rect
       x="157.85751"
       y="62.35125"
       width="329.07602"
       height="135.09438"
       id="rect4-5" />
  </defs>
  <g
     inkscape:label="Layer 1"
     inkscape:groupmode="layer"
     id="layer1">
    <rect
       style="fill:#d0002b;fill-opacity:1;stroke:none;stroke-width:0.953294;stroke-dasharray:none"
       id="rect5"
       width="132.29167"
       height="66.145836"
       x="-2.5431316e-06"
       y="-1.2715658e-06"
       ry="0" />
    <text
       xml:space="preserve"
       transform="matrix(0.31615295,0,0,0.31615295,-10.474341,-6.4462013)"
       id="text6"
       style="font-size:55px;line-height:1.25;font-family:'Microsoft JhengHei';-inkscape-font-specification:'Microsoft JhengHei';white-space:pre;shape-inside:url(#rect6);display:inline" />
    <g
       id="g4"
       transform="translate(0.44279302,-9.5185482)">
      <g
         id="g5">
        <path
           id="rect1"
           style="fill-opacity:0;stroke:#f9f9f9;stroke-width:0.942789"
           d="m 15.913089,14.352791 h 12.425164 c 3.927062,0 7.088559,3.161497 7.088559,7.088559 v 23.263136 c 0,3.927062 -3.161497,7.088559 -7.088559,7.088559 H 15.913089 c -3.927061,0 -7.0885584,-3.161497 -7.0885584,-7.088559 V 21.44135 c 0,-3.927062 3.1614974,-7.088559 7.0885584,-7.088559 z" />
        <path
           style="font-size:14.3709px;line-height:1.25;font-family:'AR UDJingXiHeiE1G30 EB';-inkscape-font-specification:'AR UDJingXiHeiE1G30 EB';fill:#f9f9f9;stroke-width:0.299395"
           d="m 24.479114,23.761527 q 0,-0.761658 -0.402385,-1.149672 -0.402385,-0.402385 -1.164043,-0.402385 h -3.118485 v 3.233452 h 3.017889 q 0.747287,0 1.207156,-0.445498 0.459868,-0.445498 0.459868,-1.235897 z m -4.684913,3.089743 v 4.325641 h -1.825104 v -10.39016 h 5.288491 q 1.422719,0 2.256231,0.761657 0.847883,0.747287 0.847883,2.126893 0,0.905367 -0.431127,1.552058 -0.416756,0.64669 -1.049075,0.919737 0.80477,0.459869 1.235897,1.59517 0.431127,1.135301 0.546094,3.434645 H 24.766532 Q 24.680307,28.7626 24.234809,27.814121 23.803682,26.85127 22.840832,26.85127 Z"
           id="text2"
           aria-label="R" />
        <path
           style="font-size:14.3917px;line-height:1.25;font-family:'AR UDJingXiHeiE1G30 EB';-inkscape-font-specification:'AR UDJingXiHeiE1G30 EB';fill:#f9f9f9;stroke-width:0.261667"
           d="m 17.218078,36.584172 -1.683829,1.568695 -0.834718,-1.280861 2.705639,-2.460981 h 1.568696 v 10.405199 h -1.755788 z m 9.210678,2.590506 q -0.618843,0 -1.064986,0.230267 -0.446143,0.215876 -0.76276,0.662018 l -1.61187,-0.1727 0.777151,-5.483238 h 5.814247 v 1.424779 h -4.346293 l -0.402968,2.720031 q 0.359793,-0.402968 0.863502,-0.604452 0.518101,-0.215875 1.208903,-0.215875 1.482345,0 2.345847,0.964244 0.863502,0.964244 0.863502,2.633681 0,1.741396 -0.964244,2.70564 -0.964244,0.964243 -2.705639,0.964243 -1.712613,0 -2.676857,-0.84911 -0.964243,-0.84911 -0.993027,-2.28828 h 1.770179 q -0.01439,0.67641 0.460535,1.194511 0.474926,0.518101 1.395994,0.518101 0.877894,0 1.381604,-0.575668 0.518101,-0.59006 0.518101,-1.69822 0,-1.036203 -0.532493,-1.583087 -0.532493,-0.546885 -1.338428,-0.546885 z"
           id="text3"
           aria-label="15" />
        <path
           style="font-weight:500;font-size:72px;line-height:1.25;font-family:'Noto Sans TC';-inkscape-font-specification:'Noto Sans TC Medium';white-space:pre;fill:#f9f9f9"
           d="m 204.29742,82.161406 h 6.048 v 40.248004 h -6.048 z m 14.112,-6.12 h 6.192 v 57.528004 q 0,2.88 -0.72,4.392 -0.72,1.512 -2.376,2.304 -1.656,0.792 -4.464,1.008 -2.736,0.216 -7.056,0.216 -0.216,-1.368 -0.792,-3.168 -0.504,-1.8 -1.224,-3.168 2.952,0.072 5.472,0.144 2.52,0 3.384,-0.072 0.864,0 1.224,-0.36 0.36,-0.36 0.36,-1.296 z m -49.68,28.080004 v 8.568 h 6.192 v -8.568 z m -4.608,-4.752004 h 15.624 v 18.072004 h -15.624 z m 23.544,4.752004 v 8.568 h 6.624 v -8.568 z m -4.536,-4.752004 h 15.984 v 18.072004 h -15.984 z m -12.456,19.656004 5.616,1.08 q -1.656,6.192 -4.752,11.448 -3.096,5.256 -6.984,8.784 -0.432,-0.504 -1.296,-1.224 -0.792,-0.648 -1.656,-1.368 -0.864,-0.72 -1.512,-1.152 3.816,-3.024 6.48,-7.632 2.736,-4.608 4.104,-9.936 z m 0.36,-28.872004 h 21.96 v 5.328 h -21.96 z m -1.152,39.168004 3.096,-4.104 q 2.16,1.368 4.392,3.168 2.304,1.8 3.528,3.24 l -3.24,4.608 q -1.224,-1.512 -3.456,-3.456 -2.232,-2.016 -4.32,-3.456 z m 18.936,-10.152 5.616,1.008 q -1.44,6.264 -4.248,11.592 -2.736,5.328 -6.336,9 -0.432,-0.504 -1.296,-1.224 -0.864,-0.648 -1.728,-1.296 -0.864,-0.648 -1.584,-1.008 3.456,-3.24 5.904,-7.92 2.448,-4.752 3.672,-10.152 z m -0.576,10.44 3.6,-3.816 q 1.728,1.296 3.528,2.88 1.8,1.512 3.456,3.024 1.656,1.512 2.592,2.736 l -3.816,4.392 q -0.936,-1.368 -2.52,-3.024 -1.584,-1.584 -3.384,-3.168 -1.8,-1.656 -3.456,-3.024 z m -7.776,-55.656004 5.976,2.16 q -3.744,6.048 -9.504,11.232 -5.76,5.112 -12.528,8.784 -0.504,-0.72 -1.296,-1.512 -0.792,-0.864 -1.656,-1.656 -0.864,-0.864 -1.512,-1.368 4.32,-2.232 8.208,-5.04 3.96,-2.88 7.128,-6.048 3.168,-3.24 5.184,-6.552 z m -0.576,7.632 3.168,-4.464 q 3.096,1.728 6.552,3.888 3.528,2.16 6.624,4.32 3.168,2.088 5.04,3.888 l -3.384,5.184 q -1.944,-1.872 -5.04,-4.104 -3.024,-2.304 -6.48,-4.608 -3.384,-2.304 -6.48,-4.104 z m 70.272,46.296004 h 48.528 v 5.112 h -48.528 z m 1.296,-50.112004 h 47.016 v 5.112 h -47.016 z m 19.656,44.208004 h 6.696 v 19.512 h -6.696 z m -5.4,-41.328004 h 5.616 v 18.72 h -5.616 z m 11.88,0 h 5.688 v 18.72 h -5.688 z m -15.768,35.928004 v 3.6 h 26.136 v -3.6 z m 0,-7.56 v 3.456 h 26.136 v -3.456 z m -6.12,-4.248 h 38.664 v 19.656 h -38.664 z m 3.888,-13.608004 v 6.12 h 30.312 v -6.12 z m -6.048,-4.536 h 42.768 v 15.192004 h -42.768 z m -17.64,-5.976 3.96,-4.824 q 1.872,0.864 4.032,2.16 2.232,1.296 4.248,2.592 2.088,1.224 3.456,2.232 l -4.176,5.4 q -1.224,-1.08 -3.24,-2.448 -1.944,-1.368 -4.104,-2.664 -2.16,-1.368 -4.176,-2.448 z m -3.6,19.512004 3.816,-4.968004 q 2.016,1.008 4.392,2.304 2.376,1.224 4.536,2.592004 2.232,1.296 3.672,2.376 l -3.888,5.544 q -1.296,-1.152 -3.528,-2.52 -2.16,-1.44 -4.536,-2.808 -2.304,-1.44 -4.464,-2.52 z m 2.088,35.496 q 1.584,-2.736 3.528,-6.48 2.016,-3.816 4.032,-7.992 2.088,-4.248 3.744,-8.352 l 5.4,4.32 q -1.584,3.744 -3.384,7.776 -1.728,3.96 -3.6,7.848 -1.872,3.816 -3.672,7.272 z"
           id="text4"
           transform="matrix(0.26166763,0,0,0.26166763,-2.1314997,-4.0633201)"
           aria-label="劍潭" />
        <path
           style="font-weight:500;font-size:72px;line-height:1.25;font-family:'Noto Sans TC';-inkscape-font-specification:'Noto Sans TC Medium';white-space:pre;fill:#f9f9f9"
           d="m 162.24942,92.385406 h 21.24 v 6.84 h -21.24 z m 35.64,-16.416 h 7.128 v 51.912004 q 0,2.808 0.504,3.6 0.576,0.792 2.448,0.792 0.504,0 1.512,0 1.08,0 2.304,0 1.224,0 2.304,0 1.08,0 1.584,0 1.512,0 2.232,-1.368 0.792,-1.44 1.08,-5.112 0.36,-3.744 0.576,-10.44 0.864,0.648 2.016,1.368 1.152,0.648 2.376,1.152 1.224,0.504 2.16,0.72 -0.36,7.488 -1.224,11.952 -0.864,4.392 -2.88,6.336 -1.944,2.016 -5.688,2.016 -0.576,0 -1.872,0 -1.296,0 -2.808,0 -1.512,0 -2.808,0 -1.224,0 -1.8,0 -3.456,0 -5.472,-1.008 -2.016,-0.936 -2.88,-3.384 -0.792,-2.448 -0.792,-6.696 z m -18.072,-0.072 h 7.056 v 53.496004 h -7.056 z m -19.944,57.888004 q 3.888,-1.296 9.144,-3.168 5.256,-1.872 11.088,-4.032 5.904,-2.16 11.664,-4.32 l 1.152,6.048 q -5.112,2.232 -10.44,4.464 -5.328,2.16 -10.296,4.176 -4.968,2.016 -9.216,3.672 z m 41.76,-41.472004 h 23.04 v 6.84 h -23.04 z m 31.896,34.056004 h 64.584 v 4.176 h -64.584 z m 9.072,-7.128 h 46.944 v 4.104 h -46.944 z m 32.04,13.104 4.608,-2.808 q 2.952,1.224 5.976,2.952 3.096,1.656 5.832,3.456 2.736,1.8 4.464,3.312 l -4.68,3.168 q -1.728,-1.656 -4.464,-3.528 -2.664,-1.8 -5.76,-3.528 -3.024,-1.8 -5.976,-3.024 z m -35.064,9.144 q -0.216,-0.792 -0.864,-2.304 -0.576,-1.512 -1.08,-2.448 1.08,-0.144 2.232,-0.576 1.224,-0.432 2.664,-1.08 1.08,-0.504 3.312,-1.656 2.232,-1.224 4.968,-2.88 2.736,-1.728 5.112,-3.672 l 6.624,1.872 q -4.536,3.24 -9.36,5.904 -4.824,2.664 -9.288,4.32 v 0.144 q 0,0 -0.648,0.216 -0.648,0.216 -1.512,0.576 -0.864,0.36 -1.512,0.792 -0.648,0.432 -0.648,0.792 z m 0,0 -0.072,-3.6 4.32,-1.8 43.488,-1.512 q 0.144,1.008 0.432,2.232 0.288,1.224 0.576,1.944 -10.296,0.432 -17.784,0.72 -7.416,0.36 -12.528,0.576 -5.112,0.288 -8.424,0.432 -3.312,0.216 -5.256,0.36 -1.872,0.144 -2.952,0.288 -1.008,0.216 -1.8,0.36 z m -1.44,-52.344004 h 24.408 v 3.6 h -24.408 z m 29.232,3.096 h 20.952 v 4.968 h -20.952 z m -29.808,14.544004 h 25.848 v 3.672 h -25.848 z m -2.808,-11.520004 h 31.104 v 3.744 h -31.104 z m 15.768,-20.664 h 6.624 v 12.168 h -6.624 z m -3.024,12.384 h 5.76 v 10.872 h -5.76 z m 0,16.128004 h 5.76 v 12.24 h -5.76 z m 26.928,-28.512004 h 6.696 v 12.168 h -6.696 z m -40.032,39.456004 q 3.96,-0.144 9,-0.36 5.04,-0.288 10.728,-0.576 5.76,-0.36 11.592,-0.648 l -0.072,3.672 q -5.544,0.432 -11.16,0.792 -5.544,0.36 -10.584,0.72 -5.04,0.36 -9.144,0.576 z m 8.496,-16.848004 h 4.32 q -0.36,2.592 -1.584,4.464004 -1.152,1.8 -3.456,3.024 -2.304,1.152 -6.264,1.944 -0.288,-0.72 -1.008,-1.728 -0.72,-1.08 -1.368,-1.584 3.312,-0.504 5.184,-1.224 1.944,-0.72 2.88,-1.872 1.008,-1.224004 1.296,-3.024004 z m 42.624,-4.968 h 5.472 v 17.496004 q 0,2.088 0.216,2.304 0.216,0.36 0.792,0.36 0.288,0 0.648,0 0.432,0 0.72,0 0.288,0 0.576,-0.072 0.36,-0.072 0.504,-0.144 0.432,-0.36 0.504,-1.44 0.144,-0.648 0.144,-2.016 0.072,-1.368 0.144,-3.24 0.792,0.576 1.872,1.152 1.08,0.576 2.088,0.864 -0.072,1.944 -0.288,3.888 -0.144,1.944 -0.432,2.736 -0.216,0.864 -0.72,1.44 -0.504,0.504 -1.224,0.864 -0.504,0.36 -1.368,0.504 -0.792,0.144 -1.584,0.144 -0.576,0 -1.512,0 -0.936,0 -1.44,0 -1.08,0 -2.088,-0.288 -1.008,-0.288 -1.728,-1.008 -0.72,-0.792 -1.008,-1.944 -0.288,-1.224 -0.288,-4.248 z m -19.296,10.296004 3.096,-3.744004 q 2.808,1.08 5.76,2.664004 3.024,1.512 5.688,3.24 2.664,1.656 4.248,3.24 l -3.24,4.176 q -1.584,-1.512 -4.176,-3.24 -2.592,-1.8 -5.616,-3.456 -2.952,-1.656 -5.76,-2.88 z m 9.072,-14.976004 h 5.184 v 6.912 q 0,2.808 -0.432,5.904004 -0.432,3.096 -1.728,6.336 -1.224,3.168 -3.744,6.192 -2.52,3.024 -6.696,5.616 -0.576,-0.792 -1.8,-1.872 -1.224,-1.08 -2.16,-1.728 3.744,-2.376 6.048,-5.04 2.304,-2.664 3.384,-5.4 1.152,-2.736 1.512,-5.328004 0.432,-2.664 0.432,-4.896 z m -22.896,9.648 h 4.248 v 2.952004 q 0,0.936 0.144,1.296 0.216,0.36 0.936,0.36 0.288,0 1.008,0 0.72,0 1.44,0 0.72,0 1.08,0 0.648,0 1.584,-0.072 1.008,-0.072 1.584,-0.216 0.144,0.792 0.144,1.656 0.072,0.864 0.216,1.656 -0.576,0.216 -1.584,0.288 -0.936,0 -1.872,0 -0.432,0 -1.368,0 -0.936,0 -1.872,0 -0.864,0 -1.368,0 -2.736,0 -3.528,-1.152 -0.792,-1.224 -0.792,-3.888 z m -18.216,-18.144 h 30.744 v 4.896 h -30.744 z m 33.048,0 h 30.6 v 4.896 h -30.6 z m 41.328,8.28 h 58.608 v 34.920004 h -7.056 V 94.041406 h -44.784 v 28.584004 h -6.768 z m 3.528,24.264004 h 52.056 v 6.696 h -52.056 z m 22.032,-36.936004 h 7.128 v 66.744004 h -7.128 z m 60.984,20.304 h 7.056 v 34.776004 q 0,2.592 0.792,3.312 0.864,0.648 3.744,0.648 0.72,0 2.376,0 1.656,0 3.6,0 2.016,0 3.744,0 1.8,0 2.592,0 2.088,0 3.096,-1.08 1.08,-1.152 1.512,-4.248 0.432,-3.096 0.72,-9 0.864,0.576 1.944,1.224 1.152,0.576 2.376,1.008 1.224,0.432 2.088,0.72 -0.36,6.84 -1.44,10.728 -1.008,3.888 -3.312,5.472 -2.232,1.584 -6.48,1.584 -0.576,0 -1.944,0 -1.368,0 -3.168,0 -1.728,0 -3.456,0 -1.728,0 -3.096,0 -1.296,0 -1.8,0 -4.248,0 -6.696,-0.936 -2.376,-0.936 -3.312,-3.24 -0.936,-2.232 -0.936,-6.192 z m -12.168,4.896 6.624,1.296004 q -0.504,4.392 -1.44,9.72 -0.864,5.256 -2.016,10.368 -1.08,5.112 -2.448,9.072 l -6.84,-2.808 q 1.44,-3.816 2.592,-8.496 1.224,-4.68 2.088,-9.648 0.936,-5.04 1.44,-9.504004 z m 45,0.432004 6.336,-2.520004 q 2.088,4.320004 3.96,9.216004 1.872,4.824 3.312,9.504 1.512,4.608 2.304,8.352 l -6.84,2.808 q -0.648,-3.744 -2.088,-8.496 -1.368,-4.752 -3.24,-9.648 -1.8,-4.968 -3.744,-9.216 z m -29.88,-19.224004 4.68,-4.536 q 3.312,2.232 7.056,4.968 3.816,2.736 7.2,5.544 3.384,2.808 5.472,5.04 l -4.968,5.256 q -1.944,-2.304 -5.256,-5.112 -3.24,-2.88 -6.984,-5.832 -3.744,-2.952 -7.2,-5.328 z"
           id="text4-0"
           transform="matrix(0.12803532,0,0,0.12803532,23.881597,44.97759)"
           aria-label="北藝中心" />
        <path
           style="font-size:7.32669px;line-height:1.25;font-family:'AR UDJingXiHeiE1G30 EB';-inkscape-font-specification:'AR UDJingXiHeiE1G30 EB';fill:#f9f9f9;stroke-width:0.261667"
           d="m 41.036697,39.530981 q 0,0.337028 0.168513,0.527522 0.168514,0.190494 0.542176,0.190494 0.366334,0.0073 0.556828,-0.197821 0.190494,-0.212474 0.190494,-0.600789 v -3.861165 h 0.923163 v 3.941759 q 0,0.666729 -0.439602,1.06237 -0.432274,0.388315 -1.23821,0.388315 -0.783956,0 -1.208904,-0.380988 -0.424948,-0.388315 -0.424948,-0.989103 v -0.468909 h 0.93049 z m 4.491256,-3.941759 v 5.297197 h -0.930489 v -5.297197 z m 4.037002,3.157803 -0.835243,-2.263947 -0.849896,2.263947 z m -1.956227,0.725343 -0.527521,1.414051 h -0.945143 l 2.132066,-5.297197 h 0.95247 l 2.117414,5.297197 h -0.967123 l -0.534849,-1.414051 z m 5.267884,-2.410482 v 3.824533 h -0.93049 v -5.297197 h 0.959797 l 2.600975,3.912452 v -3.912452 h 0.930489 v 5.297197 h -1.01841 z m 5.905308,-0.747322 h -1.648506 v -0.725342 h 4.220174 v 0.725342 h -1.641179 v 4.571855 H 58.78192 Z m 6.095804,2.432461 -0.835242,-2.263947 -0.849896,2.263947 z m -1.956226,0.725343 -0.527521,1.414051 H 61.448833 L 63.5809,35.589222 h 0.95247 l 2.117414,5.297197 H 65.68366 l -0.534848,-1.414051 z m 5.267883,-2.410482 v 3.824533 h -0.93049 v -5.297197 h 0.959797 l 2.600975,3.912452 v -3.912452 h 0.930489 v 5.297197 h -1.01841 z"
           id="text5"
           aria-label="JIANTAN" />
        <path
           style="font-size:3.51368px;line-height:1.25;font-family:'AR UDJingXiHeiE1G30 EB';-inkscape-font-specification:'AR UDJingXiHeiE1G30 EB';fill:#ffffff;stroke-width:0.125488"
           d="M 45.394742,64.605525 H 44.604164 V 64.25767 h 2.02388 v 0.347855 H 45.84098 v 2.192536 h -0.446238 z m 2.923382,1.166541 -0.40056,-1.085727 -0.407587,1.085727 z m -0.938153,0.347855 -0.252985,0.67814 h -0.453265 l 1.022481,-2.540391 h 0.456779 l 1.015453,2.540391 h -0.463806 l -0.256498,-0.67814 z m 2.526333,-1.862251 v 2.540391 H 49.460066 V 64.25767 Z m 1.029505,1.531965 v 1.008426 H 50.489572 V 64.25767 h 1.194651 q 0.37245,0 0.583271,0.203794 0.210821,0.203793 0.210821,0.541107 0,0.379477 -0.217848,0.58327 -0.214335,0.203794 -0.579758,0.203794 z m 1.089241,-0.780037 q 0,-0.196766 -0.112438,-0.298663 -0.112437,-0.10541 -0.330286,-0.10541 h -0.646517 v 0.836256 h 0.646517 q 0.217849,0 0.330286,-0.105411 0.112438,-0.108924 0.112438,-0.326772 z m 2.761751,1.788463 H 52.906982 V 64.25767 h 1.869278 v 0.347855 h -1.42304 v 0.71679 h 1.328171 V 65.67017 H 53.35322 v 0.780037 h 1.433581 z m 0.917073,-2.540391 v 2.540391 H 55.257637 V 64.25767 Z m 1.950087,1.531965 v 1.008426 H 57.207724 V 64.25767 h 1.194651 q 0.37245,0 0.583271,0.203794 0.21082,0.203793 0.21082,0.541107 0,0.379477 -0.217848,0.58327 -0.214334,0.203794 -0.579757,0.203794 z m 1.089241,-0.780037 q 0,-0.196766 -0.112438,-0.298663 -0.112438,-0.10541 -0.330286,-0.10541 h -0.646517 v 0.836256 h 0.646517 q 0.217848,0 0.330286,-0.105411 0.112438,-0.108924 0.112438,-0.326772 z m 2.761751,1.788463 H 59.625134 V 64.25767 h 1.869278 v 0.347855 h -1.42304 v 0.71679 h 1.328171 v 0.347855 h -1.328171 v 0.780037 h 1.433581 z m 2.062532,-1.813059 q 0,-0.186225 -0.09838,-0.281094 -0.09838,-0.09838 -0.284608,-0.09838 h -0.762469 v 0.790578 h 0.737873 q 0.182712,0 0.295149,-0.108924 0.112438,-0.108924 0.112438,-0.302177 z m -1.14546,0.755441 v 1.057618 H 61.975788 V 64.25767 h 1.293034 q 0.347855,0 0.551648,0.186225 0.207307,0.182712 0.207307,0.520025 0,0.221362 -0.10541,0.379478 -0.101897,0.158115 -0.256499,0.224875 0.196766,0.112438 0.302177,0.390019 0.10541,0.27758 0.133519,0.839769 h -0.463805 q -0.02108,-0.590298 -0.130006,-0.822201 -0.105411,-0.235417 -0.340827,-0.235417 z m 2.568505,-0.07027 v 1.127891 H 64.544292 V 64.25767 h 1.781436 v 0.347855 H 64.99053 v 0.71679 h 1.173569 v 0.347855 z m 4.149659,-0.130006 q 0,0.61138 -0.340827,0.959234 -0.337314,0.344341 -0.924098,0.344341 -0.597326,0 -0.934639,-0.347854 -0.337313,-0.347855 -0.337313,-0.955721 0,-0.618408 0.340827,-0.969776 0.340827,-0.354882 0.931125,-0.354882 0.597325,0 0.931125,0.351368 0.3338,0.351368 0.3338,0.97329 z m -1.264925,0.955721 q 0.382991,0 0.590298,-0.252985 0.210821,-0.252985 0.210821,-0.702736 0,-0.446238 -0.210821,-0.709764 -0.210821,-0.267039 -0.590298,-0.267039 -0.386505,0 -0.600839,0.270553 -0.210821,0.26704 -0.210821,0.70625 0,0.449751 0.214334,0.702736 0.214335,0.252985 0.597326,0.252985 z m 3.341509,-1.510883 q 0,-0.186225 -0.09838,-0.281094 -0.09838,-0.09838 -0.284608,-0.09838 h -0.762468 v 0.790578 h 0.737872 q 0.182712,0 0.295149,-0.108924 0.112438,-0.108924 0.112438,-0.302177 z m -1.145459,0.755441 v 1.057618 H 69.625076 V 64.25767 h 1.293034 q 0.347855,0 0.551648,0.186225 0.207307,0.182712 0.207307,0.520025 0,0.221362 -0.10541,0.379478 -0.101897,0.158115 -0.256499,0.224875 0.196766,0.112438 0.302177,0.390019 0.10541,0.27758 0.13352,0.839769 H 71.287047 Q 71.265965,66.207763 71.157041,65.97586 71.05163,65.740443 70.816214,65.740443 Z m 2.554449,-0.773009 v 1.830627 H 72.193581 V 64.25767 h 0.565702 l 0.730845,1.971175 0.702736,-1.971175 h 0.579758 v 2.540391 h -0.435697 v -1.844682 l -0.660571,1.844682 H 73.30039 Z m 3.176365,-0.709764 v 2.540391 H 75.35589 V 64.25767 Z m 1.029506,0.70625 v 1.834141 H 76.385397 V 64.25767 h 0.460292 l 1.247356,1.876306 V 64.25767 h 0.446238 v 2.540391 h -0.488402 z m 4.156679,1.524937 q -0.130006,0.182712 -0.326772,0.270554 -0.193253,0.08433 -0.442724,0.08433 -0.548134,0 -0.871392,-0.344341 -0.323259,-0.347854 -0.323259,-0.969775 0,-0.625435 0.340827,-0.969776 0.340827,-0.344341 0.920584,-0.344341 0.467319,0 0.758955,0.214335 0.295149,0.210821 0.354882,0.604353 h -0.446238 q -0.03514,-0.207307 -0.207307,-0.337314 -0.168657,-0.133519 -0.460292,-0.133519 -0.390018,0 -0.593812,0.252985 -0.203793,0.249471 -0.203793,0.713277 0,0.495428 0.214334,0.730845 0.214335,0.231903 0.583271,0.231903 0.323259,0 0.512997,-0.189739 0.189739,-0.189739 0.189739,-0.435696 v -0.0527 h -0.720304 v -0.347855 h 1.148973 v 1.331685 h -0.428669 z m 3.229068,-0.716791 -0.400559,-1.085727 -0.407587,1.085727 z m -0.938152,0.347855 -0.252985,0.67814 H 82.572979 L 83.59546,64.25767 h 0.456778 l 1.015454,2.540391 h -0.463806 l -0.256499,-0.67814 z m 3.671791,-1.134919 q 0,-0.186225 -0.09838,-0.281094 -0.09838,-0.09838 -0.284608,-0.09838 h -0.762468 v 0.790578 h 0.737873 q 0.182711,0 0.295149,-0.108924 0.112437,-0.108924 0.112437,-0.302177 z m -1.145459,0.755441 v 1.057618 H 85.359323 V 64.25767 h 1.293035 q 0.347854,0 0.551647,0.186225 0.207308,0.182712 0.207308,0.520025 0,0.221362 -0.105411,0.379478 -0.101897,0.158115 -0.256499,0.224875 0.196767,0.112438 0.302177,0.390019 0.10541,0.27758 0.13352,0.839769 h -0.463806 q -0.02108,-0.590298 -0.130006,-0.822201 -0.105411,-0.235417 -0.340827,-0.235417 z m 2.663373,-1.134918 H 87.678356 V 64.25767 h 2.02388 v 0.347855 h -0.787064 v 2.192536 h -0.446238 z m 2.413898,1.043563 q -0.463806,-0.08433 -0.688681,-0.260013 -0.224876,-0.175684 -0.224876,-0.491915 0,-0.295149 0.23893,-0.488401 0.242444,-0.193253 0.744901,-0.193253 0.460292,0 0.713277,0.196766 0.252985,0.196766 0.27758,0.569216 h -0.446237 q -0.0035,-0.179197 -0.140547,-0.298662 -0.137034,-0.119465 -0.418128,-0.119465 -0.263526,0 -0.390019,0.08784 -0.126492,0.08784 -0.122978,0.245957 0,0.17217 0.168656,0.256499 0.172171,0.08433 0.558675,0.161629 0.484888,0.09838 0.688682,0.26704 0.207307,0.168656 0.207307,0.50597 0,0.323258 -0.274067,0.541106 -0.274067,0.214335 -0.780037,0.214335 -0.516511,0 -0.804633,-0.217848 -0.288122,-0.217848 -0.288122,-0.628949 h 0.446238 q 0,0.228389 0.17217,0.365423 0.17217,0.13352 0.47786,0.13352 0.281095,0 0.43921,-0.108925 0.158116,-0.108924 0.158116,-0.284608 0,-0.203793 -0.158116,-0.291635 -0.158115,-0.08784 -0.555161,-0.161629 z m 4.311282,0.263526 h 0.446237 q -0.01757,0.418128 -0.291635,0.674626 -0.274067,0.256499 -0.794092,0.256499 -0.614894,0 -0.941666,-0.347854 -0.323259,-0.347855 -0.323259,-0.966262 0,-0.611381 0.323259,-0.962749 0.326772,-0.351368 0.934639,-0.351368 0.488401,0 0.758955,0.224876 0.270553,0.221362 0.309204,0.576243 h -0.446238 q -0.02811,-0.203793 -0.186225,-0.326772 -0.158115,-0.126492 -0.446237,-0.126492 -0.354882,0 -0.569216,0.23893 -0.214335,0.23893 -0.214335,0.727332 0,0.495428 0.214335,0.730845 0.217848,0.235417 0.576243,0.235417 0.30569,0 0.470833,-0.158116 0.165143,-0.161629 0.179198,-0.425155 z m 2.761749,0.885447 H 96.076044 V 64.25767 h 1.869278 v 0.347855 h -1.423041 v 0.71679 h 1.328171 v 0.347855 h -1.328171 v 0.780037 h 1.433582 z m 0.917073,-1.834141 v 1.834141 H 98.426699 V 64.25767 h 0.460292 l 1.247359,1.876306 V 64.25767 h 0.44623 v 2.540391 h -0.4884 z m 2.832024,-0.358395 h -0.79058 V 64.25767 h 2.02388 v 0.347855 h -0.78706 v 2.192536 h -0.44624 z m 3.45043,2.192536 h -1.87981 V 64.25767 h 1.86927 v 0.347855 h -1.42304 v 0.71679 h 1.32817 v 0.347855 h -1.32817 v 0.780037 h 1.43358 z m 2.06254,-1.813059 q 0,-0.186225 -0.0984,-0.281094 -0.0984,-0.09838 -0.2846,-0.09838 h -0.76247 v 0.790578 h 0.73787 q 0.18271,0 0.29515,-0.108924 0.11244,-0.108924 0.11244,-0.302177 z m -1.14546,0.755441 v 1.057618 h -0.44624 V 64.25767 h 1.29303 q 0.34786,0 0.55165,0.186225 0.20731,0.182712 0.20731,0.520025 0,0.221362 -0.10541,0.379478 -0.1019,0.158115 -0.2565,0.224875 0.19677,0.112438 0.30218,0.390019 0.10541,0.27758 0.13352,0.839769 h -0.46381 q -0.0211,-0.590298 -0.13001,-0.822201 -0.10541,-0.235417 -0.34082,-0.235417 z"
           id="text5-8"
           transform="scale(0.99800122,1.0020028)"
           aria-label="TAIPEI PERFORMING ARTS CENTER" />
        <path
           d="m 44.189568,44.179353 h 0.666729 v 4.18354 h -0.666729 z m 1.560585,-0.630096 h 0.681382 v 5.795412 q 0,0.315048 -0.08059,0.476235 -0.07327,0.168514 -0.263761,0.249108 -0.190493,0.08792 -0.505541,0.1099 -0.307721,0.02931 -0.776629,0.02931 -0.0073,-0.102574 -0.05129,-0.227128 -0.03663,-0.124553 -0.08059,-0.256434 -0.04396,-0.124554 -0.09525,-0.219801 0.329701,0.01465 0.615442,0.01465 0.285741,0 0.380988,0 0.102574,-0.0073 0.139207,-0.04396 0.03663,-0.03663 0.03663,-0.131881 z m -4.864923,1.589892 h 2.337215 v 0.564155 H 40.88523 Z m 0.827916,0.359008 h 0.652076 v 1.641178 q 0,0.402968 -0.08059,0.827916 -0.07327,0.424949 -0.285741,0.84257 -0.212474,0.410295 -0.608115,0.776629 -0.395641,0.366335 -1.033063,0.644749 -0.03663,-0.06594 -0.117227,-0.168514 -0.07327,-0.102574 -0.153861,-0.197821 -0.08059,-0.09525 -0.146534,-0.146534 0.593462,-0.26376 0.945143,-0.571481 0.351682,-0.307721 0.527522,-0.644749 0.183167,-0.337028 0.241781,-0.688709 0.05861,-0.351681 0.05861,-0.688709 z m 0.402968,2.578995 q 0.102574,0.06594 0.271088,0.19782 0.17584,0.131881 0.380988,0.293068 0.212474,0.161187 0.417621,0.329701 0.205147,0.161187 0.366335,0.300394 0.168514,0.131881 0.249107,0.197821 l -0.454255,0.571482 q -0.139207,-0.146534 -0.359007,-0.351681 -0.219801,-0.205148 -0.468909,-0.424948 -0.24178,-0.219801 -0.468908,-0.410295 -0.219801,-0.197821 -0.373661,-0.315048 z m -1.135637,-1.333458 v 0.747323 h 2.095434 v -0.747323 z m -0.586135,-0.542175 h 3.297011 v 1.831673 h -3.297011 z m 1.296824,-2.747509 h 0.380988 v 0.139207 h 0.219801 v 0.197821 q -0.212474,0.307721 -0.505542,0.674056 -0.293067,0.359007 -0.681382,0.725342 -0.388314,0.366334 -0.879203,0.703362 -0.04396,-0.08059 -0.117227,-0.17584 -0.07327,-0.09525 -0.15386,-0.183168 -0.08059,-0.08792 -0.161187,-0.139207 0.454254,-0.278414 0.813262,-0.608115 0.366335,-0.337028 0.637422,-0.681382 0.271088,-0.344355 0.446928,-0.652076 z m 0.153861,0 h 0.505541 q 0.278415,0.212474 0.586136,0.476235 0.315047,0.263761 0.600788,0.527522 0.285741,0.263761 0.476235,0.468908 l -0.461581,0.534848 Q 43.376305,45.249049 43.105218,44.977962 42.841457,44.699548 42.541062,44.42846 42.240668,44.150046 41.969581,43.944899 h -0.124554 z m 7.202136,5.370464 h 4.938189 v 0.520195 h -4.938189 z m 0.131881,-5.099376 h 4.784328 v 0.520195 h -4.784328 z m 2.000186,4.498588 h 0.681382 v 1.985533 H 51.17923 Z m -0.549502,-4.205521 h 0.571482 v 1.90494 h -0.571482 z m 1.208904,0 h 0.578809 v 1.90494 h -0.578809 z m -1.604545,3.656019 v 0.366334 h 2.659589 v -0.366334 z m 0,-0.769303 v 0.351682 h 2.659589 v -0.351682 z m -0.622769,-0.432274 h 3.934433 v 2.000186 h -3.934433 z m 0.395642,-1.384745 v 0.622769 h 3.084536 v -0.622769 z m -0.615442,-0.461581 h 4.352054 v 1.545931 h -4.352054 z m -1.795039,-0.608116 0.402968,-0.490888 q 0.190494,0.08792 0.410294,0.219801 0.227128,0.13188 0.432275,0.263761 0.212474,0.124554 0.351681,0.227127 l -0.424948,0.549502 q -0.124554,-0.1099 -0.329701,-0.249108 -0.197821,-0.139207 -0.417621,-0.271087 -0.219801,-0.139207 -0.424948,-0.249108 z m -0.366335,1.985534 0.388315,-0.505542 q 0.205147,0.102574 0.446928,0.234454 0.241781,0.124554 0.461581,0.263761 0.227128,0.13188 0.373661,0.241781 l -0.395641,0.564155 q -0.13188,-0.117227 -0.359008,-0.256434 -0.2198,-0.146534 -0.461581,-0.285741 -0.234454,-0.146534 -0.454255,-0.256434 z m 0.212474,3.612058 q 0.161187,-0.278414 0.359008,-0.659402 0.205147,-0.388315 0.410295,-0.813263 0.212474,-0.432275 0.380988,-0.849896 l 0.549501,0.439601 q -0.161187,0.380988 -0.344354,0.791283 -0.175841,0.402968 -0.366335,0.798609 -0.190494,0.388315 -0.373661,0.739996 z"
           id="text5-9"
           style="font-weight:500;font-size:7.32669px;line-height:1.25;font-family:'Noto Sans JP';-inkscape-font-specification:'Noto Sans JP Medium';fill:#f9f9f9;stroke-width:0.261667"
           aria-label="剣潭" />
        <path
           d="m 45.10998,70.78459 h 1.807616 v 0.29532 H 45.10998 Z m -0.139546,-0.973581 h 2.112671 v 1.401957 H 46.755332 V 70.103083 H 45.28198 v 1.116373 h -0.311546 z m 0.642563,-1.622635 0.347244,0.11683 q -0.100603,0.194716 -0.223923,0.399168 -0.120075,0.204452 -0.24015,0.389432 -0.120075,0.184981 -0.230415,0.327773 l -0.272602,-0.113585 q 0.107094,-0.146037 0.220678,-0.337508 0.11683,-0.194716 0.220678,-0.399168 0.107094,-0.204452 0.17849,-0.382942 z m 0.78211,0.548451 0.24015,-0.17849 q 0.165509,0.133056 0.334263,0.295319 0.171999,0.159019 0.318037,0.321282 0.146037,0.162264 0.230414,0.30181 l -0.266112,0.204452 q -0.07789,-0.136301 -0.217433,-0.30181 -0.139547,-0.168754 -0.308301,-0.334263 -0.165509,-0.168754 -0.331018,-0.3083 z m -1.794634,0.431621 q 0.24015,-0.0065 0.538715,-0.01623 0.298565,-0.0097 0.632828,-0.02272 0.337508,-0.01298 0.684752,-0.02596 0.350489,-0.01623 0.691242,-0.03245 l -0.01298,0.295319 q -0.340753,0.01947 -0.687997,0.0357 -0.343999,0.01623 -0.675016,0.03245 -0.327773,0.01298 -0.623092,0.02596 -0.292075,0.0097 -0.525734,0.01947 z m 3.24527,-0.162264 h 0.957355 v 0.308301 h -0.957355 z m 1.606409,-0.739921 h 0.321281 v 2.378783 q 0,0.12981 0.02596,0.168754 0.02921,0.0357 0.126565,0.0357 0.02272,0 0.07789,0 0.05842,0 0.126565,0 0.06815,0 0.126566,0 0.05841,0 0.08438,0 0.0714,0 0.107094,-0.05517 0.0357,-0.05841 0.05192,-0.204452 0.01623,-0.146037 0.02596,-0.408904 0.03894,0.02921 0.09087,0.05841 0.05192,0.02921 0.107094,0.05192 0.05517,0.01947 0.09736,0.02921 -0.01623,0.30181 -0.05841,0.48679 -0.03894,0.181735 -0.129811,0.262867 -0.09087,0.08113 -0.262867,0.08113 -0.02596,0 -0.09411,0 -0.06815,0 -0.149282,0 -0.08113,0 -0.149283,0 -0.06491,0 -0.09087,0 -0.168754,0 -0.262867,-0.04543 -0.09411,-0.04543 -0.133056,-0.159018 -0.03894,-0.11034 -0.03894,-0.308301 z m -0.801582,-0.0032 h 0.318037 v 2.927234 H 48.65057 Z m 1.86603,0.493281 0.223924,0.272603 q -0.155773,0.11683 -0.340753,0.230414 -0.184981,0.113585 -0.379697,0.223924 -0.191471,0.110339 -0.376451,0.207697 -0.01623,-0.05192 -0.05517,-0.12332 -0.0357,-0.0714 -0.06815,-0.11683 0.17849,-0.09736 0.360225,-0.214188 0.181736,-0.120075 0.347244,-0.243395 0.165509,-0.126565 0.288829,-0.236905 z m -2.777951,1.74271 q 0.133056,-0.04219 0.305056,-0.103848 0.171999,-0.06166 0.36347,-0.133056 0.194716,-0.0714 0.389432,-0.146037 l 0.05841,0.279093 q -0.249886,0.110339 -0.509507,0.220678 -0.256377,0.107094 -0.467319,0.194716 z m 5.721411,-1.846558 q 0,0.08438 0.05842,0.142792 0.05841,0.05841 0.142792,0.05841 0.08438,0 0.142792,-0.05841 0.06166,-0.05842 0.06166,-0.142792 0,-0.08438 -0.06166,-0.142792 -0.05842,-0.06166 -0.142792,-0.06166 -0.08438,0 -0.142792,0.06166 -0.05842,0.05841 -0.05842,0.142792 z m -0.171999,0 q 0,-0.103849 0.04868,-0.188226 0.05192,-0.08438 0.136301,-0.136301 0.08438,-0.05192 0.188226,-0.05192 0.103849,0 0.188226,0.05192 0.08438,0.05192 0.136301,0.136301 0.05192,0.08438 0.05192,0.188226 0,0.103848 -0.05192,0.188225 -0.05192,0.08438 -0.136301,0.136302 -0.08438,0.04868 -0.188226,0.04868 -0.103849,0 -0.188226,-0.04868 -0.08438,-0.05192 -0.136301,-0.136302 -0.04868,-0.08438 -0.04868,-0.188225 z m -1.723238,1.304598 q 0.05192,-0.133056 0.100603,-0.282338 0.05192,-0.149283 0.09411,-0.308301 0.04219,-0.162263 0.0714,-0.321282 0.03245,-0.159018 0.04868,-0.305055 l 0.366715,0.07464 q -0.0097,0.04219 -0.02272,0.09411 -0.01298,0.04868 -0.02596,0.09736 -0.0097,0.04868 -0.01947,0.08438 -0.01623,0.07789 -0.04543,0.201207 -0.02596,0.120075 -0.06491,0.259622 -0.03894,0.136301 -0.08438,0.279093 -0.04219,0.139546 -0.09087,0.259621 -0.05841,0.152528 -0.136302,0.314792 -0.07789,0.159018 -0.165508,0.311545 -0.08762,0.152528 -0.175245,0.279094 L 51.061806,70.84625 q 0.152527,-0.201206 0.285583,-0.441356 0.133056,-0.243396 0.217434,-0.447848 z m 1.599918,-0.100603 q -0.04868,-0.126566 -0.11034,-0.269357 -0.05841,-0.142792 -0.12332,-0.285584 -0.06166,-0.146037 -0.12332,-0.272603 -0.06166,-0.126565 -0.113585,-0.217433 l 0.334263,-0.110339 q 0.04868,0.09087 0.110339,0.217433 0.06491,0.126565 0.129811,0.272603 0.06491,0.142791 0.126566,0.285583 0.06166,0.142792 0.110339,0.266112 0.04543,0.11683 0.09736,0.262867 0.05517,0.146037 0.107094,0.30181 0.05517,0.152528 0.100603,0.298565 0.04543,0.142792 0.07789,0.259622 l -0.369961,0.120075 q -0.04219,-0.17849 -0.100603,-0.373206 -0.05842,-0.194716 -0.123321,-0.389433 -0.06166,-0.194716 -0.12981,-0.366715 z m 3.806702,-1.067694 q -0.01623,0.03894 -0.03245,0.09087 -0.01298,0.04868 -0.02596,0.09736 -0.02596,0.12332 -0.06815,0.275848 -0.04219,0.152527 -0.103849,0.314791 -0.05841,0.162263 -0.136301,0.318036 -0.07789,0.152528 -0.175244,0.282339 -0.149283,0.191471 -0.337509,0.35698 -0.18498,0.165508 -0.421885,0.298564 -0.236904,0.129811 -0.532224,0.223924 l -0.279093,-0.305055 q 0.321282,-0.07789 0.554941,-0.191471 0.233659,-0.11683 0.405659,-0.262867 0.175244,-0.149283 0.3083,-0.318037 0.113585,-0.142792 0.194717,-0.318036 0.08113,-0.175245 0.136301,-0.350489 0.05517,-0.17849 0.07464,-0.327773 -0.04543,0 -0.168754,0 -0.120075,0 -0.282338,0 -0.162264,0 -0.340754,0 -0.175244,0 -0.340753,0 -0.162264,0 -0.285584,0 -0.12332,0 -0.175244,0 -0.103849,0 -0.197962,0.0032 -0.09087,0.0032 -0.152528,0.0097 V 68.62324 q 0.04543,0.0065 0.107094,0.01298 0.06166,0.0032 0.126566,0.0097 0.06491,0.0032 0.11683,0.0032 0.04543,0 0.142791,0 0.100604,0 0.230415,0 0.133056,0 0.282338,0 0.149283,0 0.29532,0 0.149282,0 0.275848,0 0.12981,0 0.220678,0 0.09087,0 0.126566,0 0.04219,0 0.09736,-0.0032 0.05841,-0.0065 0.110339,-0.01947 z m 2.557272,0.159018 q -0.0097,0.05192 -0.01298,0.11683 0,0.0649 0,0.12332 0,0.08762 0.0032,0.214188 0.0032,0.126566 0.0065,0.282339 0.0032,0.152527 0.0065,0.318036 0.0032,0.165509 0.0065,0.331018 0.0032,0.165508 0.0065,0.318036 0.0032,0.149282 0.0032,0.272603 0,0.113584 -0.07789,0.181735 -0.07789,0.06815 -0.197961,0.06815 -0.06815,0 -0.159018,-0.0032 -0.08762,-0.0032 -0.172,-0.0097 -0.08438,-0.0032 -0.152527,-0.0065 l -0.01947,-0.29532 q 0.09736,0.01623 0.204452,0.02596 0.110339,0.0065 0.181735,0.0065 0.04543,0 0.0649,-0.02596 0.01947,-0.02596 0.01947,-0.07464 0,-0.09087 -0.0032,-0.220679 0,-0.133056 -0.0032,-0.282338 0,-0.152528 -0.0032,-0.308301 0,-0.155773 -0.0032,-0.305055 -0.0032,-0.149283 -0.0065,-0.272603 -0.0032,-0.126565 -0.0065,-0.214188 -0.0032,-0.05192 -0.0097,-0.116829 -0.0032,-0.06491 -0.01298,-0.123321 z M 58.02291,69.40535 q 0.05517,0.0097 0.126565,0.01623 0.07464,0.0032 0.136302,0.0032 0.0357,0 0.133056,0 0.100603,0 0.24015,0 0.142792,0 0.305055,0 0.162264,0 0.324527,0 0.162264,0 0.30181,0 0.139547,0 0.23366,0 0.09736,0 0.126565,0 0.05517,0 0.126566,-0.0065 0.07464,-0.0065 0.110339,-0.01298 v 0.318037 q -0.04868,-0.0032 -0.113585,-0.0032 -0.06491,-0.0032 -0.113584,-0.0032 -0.02272,0 -0.120075,0 -0.09411,0 -0.236905,0 -0.139546,0 -0.305055,0 -0.162264,0 -0.331018,0 -0.165508,0 -0.3083,0 -0.142792,0 -0.24015,0 -0.09736,0 -0.126566,0 -0.06491,0 -0.136301,0.0032 -0.0714,0 -0.133056,0.0065 z m -0.110339,1.249429 q 0.194716,-0.09087 0.386187,-0.217433 0.191471,-0.126565 0.356979,-0.266112 0.165509,-0.142792 0.292075,-0.282338 0.126565,-0.142792 0.197961,-0.266113 h 0.165509 l 0.0032,0.249886 q -0.06166,0.11683 -0.188225,0.256377 -0.123321,0.139546 -0.285584,0.285583 -0.162264,0.142792 -0.343999,0.272603 -0.17849,0.129811 -0.360225,0.223924 z m 3.031083,-1.155316 q 0.05517,0.0032 0.133056,0.0097 0.08113,0.0032 0.171999,0.0065 0.09411,0.0032 0.17849,0.0032 0.0649,0 0.17849,0 0.113584,0 0.256376,0 0.146037,0 0.305055,0 0.159019,0 0.314792,0 0.159018,0 0.298564,0 0.139547,0 0.246641,0 0.107094,0 0.165509,0 0.116829,0 0.210942,-0.0065 0.09411,-0.0097 0.152528,-0.01298 v 0.402414 q -0.05517,-0.0032 -0.155773,-0.0097 -0.100603,-0.0065 -0.207697,-0.0065 -0.05517,0 -0.165509,0 -0.107094,0 -0.246641,0 -0.139546,0 -0.298564,0 -0.155773,0 -0.314792,0 -0.159018,0 -0.305055,0 -0.142792,0 -0.256376,0 -0.113585,0 -0.17849,0 -0.133056,0 -0.266112,0.0065 -0.133056,0.0032 -0.217433,0.0097 z m 3.858625,-1.048222 q 0.126566,0.01623 0.30181,0.04868 0.175245,0.02921 0.373207,0.06815 0.197961,0.03894 0.392677,0.08438 0.197962,0.04543 0.369961,0.09411 0.171999,0.04543 0.29532,0.08762 l -0.133057,0.318036 q -0.113584,-0.04543 -0.282338,-0.09087 -0.165509,-0.04543 -0.360225,-0.09087 -0.191471,-0.04868 -0.389432,-0.09087 -0.194717,-0.04219 -0.373206,-0.07464 -0.175245,-0.03245 -0.314792,-0.04868 z m -0.146037,0.866487 q 0.168754,0.02921 0.389433,0.07464 0.220678,0.04219 0.457583,0.09736 0.236904,0.05192 0.447847,0.11034 0.214188,0.05517 0.366715,0.110339 l -0.126565,0.314791 q -0.142792,-0.05192 -0.350489,-0.110339 -0.207697,-0.06166 -0.444602,-0.11683 -0.23366,-0.05517 -0.460829,-0.100603 -0.223923,-0.04543 -0.399168,-0.0714 z m -0.171999,0.937883 q 0.162263,0.02596 0.369961,0.06815 0.207697,0.03894 0.428375,0.09087 0.220679,0.04868 0.434867,0.103849 0.217433,0.05517 0.405658,0.113584 0.188226,0.05517 0.321282,0.107094 l -0.142792,0.318037 q -0.129811,-0.05517 -0.318036,-0.110339 -0.184981,-0.05841 -0.402414,-0.113585 -0.217433,-0.05841 -0.441357,-0.107094 -0.220678,-0.05192 -0.42513,-0.09087 -0.201207,-0.03894 -0.360225,-0.06166 z m 3.391307,-1.726484 q 0.08762,0.05841 0.201207,0.146038 0.113584,0.08438 0.230414,0.181735 0.120075,0.09736 0.227169,0.188225 0.107094,0.09087 0.171999,0.162264 l -0.256376,0.262867 q -0.06166,-0.06491 -0.162264,-0.155773 -0.100603,-0.09411 -0.217433,-0.191471 -0.113584,-0.100603 -0.227169,-0.188226 -0.113584,-0.09087 -0.204452,-0.152527 z m -0.334263,2.171086 q 0.272603,-0.04219 0.503017,-0.110339 0.230414,-0.0714 0.421885,-0.159018 0.194716,-0.09087 0.350489,-0.184981 0.259622,-0.159018 0.477055,-0.366715 0.220678,-0.207697 0.386187,-0.428376 0.165509,-0.220678 0.262867,-0.428375 l 0.197961,0.353734 q -0.116829,0.210943 -0.288829,0.421885 -0.168754,0.210943 -0.382942,0.405659 -0.214187,0.191471 -0.467318,0.347244 -0.162264,0.100603 -0.35698,0.194716 -0.191471,0.09411 -0.415395,0.168754 -0.220678,0.07464 -0.470564,0.120075 z m 5.325488,-2.375538 q 0.04219,0.05517 0.09087,0.136302 0.04868,0.08113 0.09411,0.162263 0.04543,0.08113 0.07789,0.146037 l -0.214188,0.09087 q -0.04868,-0.09736 -0.120075,-0.227169 -0.0714,-0.129811 -0.136301,-0.220678 z m 0.366715,-0.139546 q 0.04543,0.06166 0.09411,0.142792 0.05192,0.08113 0.09736,0.162263 0.04868,0.07789 0.07789,0.136302 l -0.210943,0.09411 q -0.05192,-0.103848 -0.126565,-0.230414 -0.0714,-0.126565 -0.139547,-0.217433 z m -0.116829,0.814563 q -0.02596,0.03894 -0.04868,0.09411 -0.02272,0.05517 -0.04219,0.103849 -0.04219,0.155773 -0.120075,0.343999 -0.07789,0.188225 -0.191471,0.386187 -0.113584,0.194716 -0.259621,0.373206 -0.223924,0.275848 -0.53547,0.499771 -0.308301,0.223924 -0.762638,0.399169 l -0.301811,-0.272603 q 0.314792,-0.09087 0.551696,-0.214188 0.24015,-0.126565 0.421885,-0.275848 0.184981,-0.152527 0.327773,-0.318036 0.12332,-0.139547 0.220678,-0.308301 0.100603,-0.171999 0.171999,-0.340753 0.07464,-0.172 0.100604,-0.308301 h -1.155316 l 0.12332,-0.292074 q 0.04219,0 0.142792,0 0.103848,0 0.233659,0 0.133056,0 0.259622,0 0.129811,0 0.223923,0 0.09736,0 0.129811,0 0.06815,0 0.133056,-0.0065 0.06491,-0.0097 0.11034,-0.02596 z M 72.042476,68.49992 q -0.04868,0.0714 -0.09736,0.155773 -0.04543,0.08438 -0.0714,0.129811 -0.100603,0.188225 -0.256376,0.395923 -0.152528,0.207697 -0.353734,0.405659 -0.201207,0.197961 -0.451093,0.366715 l -0.285584,-0.210943 q 0.210943,-0.126565 0.376452,-0.269357 0.165508,-0.142792 0.285583,-0.285584 0.123321,-0.146037 0.210943,-0.279093 0.08762,-0.133056 0.146037,-0.24015 0.02921,-0.04868 0.0649,-0.136301 0.0357,-0.08762 0.05517,-0.155773 z m 4.62451,0.253131 q -0.02272,0.02596 -0.05517,0.06815 -0.02921,0.03894 -0.05192,0.06815 -0.06815,0.120075 -0.191471,0.282339 -0.120075,0.162263 -0.275848,0.327772 -0.152528,0.162264 -0.327772,0.285584 l -0.269358,-0.217433 q 0.107094,-0.06166 0.207698,-0.146037 0.103848,-0.08762 0.191471,-0.181735 0.09087,-0.09411 0.159018,-0.181736 0.06815,-0.09087 0.103848,-0.162263 -0.04543,0 -0.155773,0 -0.107093,0 -0.259621,0 -0.149283,0 -0.321282,0 -0.168754,0 -0.337508,0 -0.168754,0 -0.314791,0 -0.146037,0 -0.249886,0 -0.103849,0 -0.139547,0 -0.09736,0 -0.188225,0.0065 -0.09087,0.0032 -0.194716,0.01298 V 68.55509 q 0.09087,0.0097 0.188225,0.01947 0.09736,0.0097 0.194716,0.0097 0.0357,0 0.142792,0 0.107094,0 0.256377,0 0.152527,0 0.327772,0 0.175245,0 0.350489,0 0.175245,0 0.327772,0 0.152528,0 0.259622,0 0.107094,0 0.149282,0 0.0357,0 0.08762,0 0.05517,-0.0032 0.103848,-0.0097 0.05192,-0.0065 0.07789,-0.01298 z m -1.311089,0.431621 q 0,0.253131 -0.01298,0.4803 -0.01298,0.227169 -0.06166,0.431621 -0.04543,0.201207 -0.142792,0.379696 -0.09736,0.175245 -0.262867,0.331018 -0.165509,0.155773 -0.421885,0.285584 l -0.298565,-0.243395 q 0.0714,-0.02272 0.152528,-0.06166 0.08438,-0.04219 0.159018,-0.09736 0.175244,-0.113584 0.282338,-0.24664 0.107094,-0.133056 0.159018,-0.285584 0.05517,-0.155773 0.07464,-0.334263 0.02272,-0.17849 0.02272,-0.379696 0,-0.06491 -0.0032,-0.126566 -0.0032,-0.06166 -0.01623,-0.133056 z m 1.61939,0.314791 q 0.05517,0.0032 0.133056,0.0097 0.08113,0.0032 0.171999,0.0065 0.09411,0.0032 0.17849,0.0032 0.06491,0 0.17849,0 0.113584,0 0.256376,0 0.146038,0 0.305056,0 0.159018,0 0.314791,0 0.159018,0 0.298565,0 0.139546,0 0.24664,0 0.107094,0 0.165509,0 0.11683,0 0.210943,-0.0065 0.09411,-0.0097 0.152527,-0.01298 v 0.402414 q -0.05517,-0.0032 -0.155773,-0.0097 -0.100603,-0.0065 -0.207697,-0.0065 -0.05517,0 -0.165509,0 -0.107094,0 -0.24664,0 -0.139547,0 -0.298565,0 -0.155773,0 -0.314791,0 -0.159018,0 -0.305056,0 -0.142792,0 -0.256376,0 -0.113584,0 -0.17849,0 -0.133056,0 -0.266112,0.0065 -0.133056,0.0032 -0.217433,0.0097 z m 4.368131,-1.031996 q 0.02921,0.05841 0.07464,0.172 0.04868,0.113584 0.09736,0.24664 0.05192,0.129811 0.09411,0.249886 0.04219,0.120075 0.0649,0.191471 l -0.321282,0.113584 q -0.01947,-0.07464 -0.06166,-0.191471 -0.04219,-0.116829 -0.09087,-0.24664 -0.04543,-0.129811 -0.09411,-0.243395 -0.04543,-0.11683 -0.07789,-0.184981 z m 1.460372,0.230415 q -0.01947,0.04868 -0.03894,0.110339 -0.01947,0.05841 -0.02921,0.103848 -0.04868,0.191471 -0.126565,0.408904 -0.07464,0.214188 -0.17849,0.425131 -0.103849,0.207697 -0.236905,0.386187 -0.168754,0.220678 -0.379696,0.402413 -0.207698,0.181735 -0.434867,0.321282 -0.227168,0.136301 -0.460828,0.217433 L 80.63595,70.787835 q 0.227169,-0.06815 0.457583,-0.18498 0.230414,-0.120075 0.441356,-0.288829 0.214188,-0.168754 0.376452,-0.376451 0.126565,-0.162264 0.230414,-0.382942 0.103849,-0.220679 0.175244,-0.470564 0.07464,-0.249886 0.107094,-0.493281 z m -2.362557,-0.03245 q 0.03245,0.0714 0.08438,0.188225 0.05192,0.11683 0.103849,0.253132 0.05517,0.133056 0.103849,0.256376 0.04868,0.120075 0.07789,0.201207 l -0.327772,0.120075 q -0.01947,-0.06166 -0.05517,-0.155773 -0.03245,-0.09736 -0.07789,-0.204452 -0.04219,-0.11034 -0.08762,-0.217433 -0.04543,-0.107094 -0.08438,-0.191471 -0.03894,-0.08762 -0.06166,-0.133056 z m 3.602254,1.856294 q 0,-0.06815 0,-0.201206 0,-0.136302 0,-0.301811 0,-0.168754 0,-0.350489 0,-0.18498 0,-0.360225 0,-0.17849 0,-0.324527 0,-0.146037 0,-0.236904 0,-0.05192 -0.0032,-0.11034 0,-0.05841 -0.0065,-0.116829 -0.0032,-0.05841 -0.01298,-0.103849 h 0.386187 q -0.01298,0.0714 -0.01947,0.162264 -0.0065,0.09087 -0.0065,0.168754 0,0.09087 0,0.227168 0,0.133057 0,0.29532 0,0.162264 0,0.331018 0,0.168754 0,0.327772 0,0.159018 0,0.292074 0,0.129811 0,0.214188 0,0.107094 0.03245,0.171999 0.03245,0.06166 0.129811,0.08762 0.09736,0.02596 0.282339,0.02596 0.181735,0 0.353734,-0.0097 0.172,-0.01298 0.337508,-0.0357 0.165509,-0.02272 0.327773,-0.05517 l -0.01298,0.35049 q -0.139546,0.01947 -0.30181,0.0357 -0.162263,0.01623 -0.343998,0.02272 -0.17849,0.0097 -0.366716,0.0097 -0.249886,0 -0.402413,-0.03245 -0.152528,-0.03245 -0.23366,-0.09411 -0.08113,-0.06491 -0.110339,-0.162264 -0.02921,-0.09736 -0.02921,-0.227169 z m 1.953652,-1.437654 q -0.01623,0.02921 -0.04543,0.0714 -0.02596,0.04219 -0.04543,0.07789 -0.05517,0.100603 -0.133056,0.227169 -0.07464,0.12332 -0.162264,0.253131 -0.08762,0.129811 -0.18498,0.249886 -0.09411,0.120075 -0.188226,0.214188 l -0.282338,-0.165509 q 0.116829,-0.107094 0.223923,-0.24015 0.110339,-0.133056 0.194716,-0.262867 0.08762,-0.129811 0.133056,-0.220678 -0.02921,0.0065 -0.142791,0.02921 -0.11034,0.02272 -0.279094,0.05841 -0.168754,0.03245 -0.36996,0.07464 -0.201207,0.03894 -0.408904,0.08113 -0.207698,0.04219 -0.399169,0.08113 -0.191471,0.0357 -0.343998,0.06815 -0.152528,0.03245 -0.236905,0.05193 l -0.06166,-0.340754 q 0.09087,-0.0097 0.243395,-0.03245 0.155773,-0.02596 0.347244,-0.06166 0.194716,-0.0357 0.405659,-0.07464 0.210942,-0.04219 0.415394,-0.08113 0.204452,-0.04219 0.382942,-0.07789 0.181735,-0.0357 0.311546,-0.06166 0.129811,-0.02921 0.184981,-0.04219 0.06166,-0.01298 0.110339,-0.02921 0.05192,-0.01623 0.08762,-0.03894 z m 1.090411,-0.554942 q 0.08762,0.05841 0.201206,0.146038 0.113585,0.08438 0.230415,0.181735 0.120075,0.09736 0.227169,0.188225 0.107093,0.09087 0.171999,0.162264 l -0.256376,0.262867 q -0.06166,-0.06491 -0.162264,-0.155773 -0.100603,-0.09411 -0.217433,-0.191471 -0.113585,-0.100603 -0.227169,-0.188226 -0.113584,-0.09087 -0.204452,-0.152527 z m -0.334263,2.171086 q 0.272603,-0.04219 0.503017,-0.110339 0.230414,-0.0714 0.421885,-0.159018 0.194716,-0.09087 0.350489,-0.184981 0.259622,-0.159018 0.477055,-0.366715 0.220678,-0.207697 0.386187,-0.428376 0.165509,-0.220678 0.262867,-0.428375 l 0.197961,0.353734 q -0.11683,0.210943 -0.288829,0.421885 -0.168754,0.210943 -0.382942,0.405659 -0.214188,0.191471 -0.467319,0.347244 -0.162263,0.100603 -0.356979,0.194716 -0.191471,0.09411 -0.415395,0.168754 -0.220678,0.07464 -0.470564,0.120075 z m 4.189643,-1.255919 q 0.152528,0.09087 0.327773,0.204452 0.175244,0.110339 0.350489,0.233659 0.175244,0.120075 0.331017,0.23366 0.159018,0.113584 0.272603,0.210942 l -0.24015,0.285584 q -0.110339,-0.100604 -0.266112,-0.223924 -0.152528,-0.12332 -0.331018,-0.253131 -0.175244,-0.129811 -0.350489,-0.24664 -0.171999,-0.120075 -0.318036,-0.214188 z m 1.50256,-0.574413 q -0.02272,0.03894 -0.04868,0.09736 -0.02272,0.05517 -0.03894,0.103849 -0.04868,0.155773 -0.133056,0.343998 -0.08113,0.188226 -0.197962,0.382942 -0.113584,0.191471 -0.256376,0.369961 -0.223924,0.275848 -0.551696,0.528979 -0.324527,0.249886 -0.785355,0.42513 l -0.29532,-0.259621 q 0.318037,-0.09736 0.564677,-0.236905 0.249886,-0.139547 0.441357,-0.30181 0.191471,-0.165509 0.334263,-0.334263 0.120075,-0.142792 0.220678,-0.311546 0.103849,-0.168754 0.17849,-0.337508 0.07789,-0.168754 0.110339,-0.305055 h -1.158561 l 0.12332,-0.292075 h 0.986562 q 0.06815,0 0.133056,-0.0097 0.06491,-0.0097 0.110339,-0.02596 z m -1.08392,-0.4803 q -0.04868,0.0714 -0.09736,0.155773 -0.04543,0.08438 -0.0714,0.133056 -0.103849,0.181735 -0.266112,0.399168 -0.159018,0.217433 -0.366716,0.428376 -0.207697,0.207697 -0.454337,0.379696 l -0.275848,-0.214187 q 0.282338,-0.175245 0.483545,-0.376452 0.204452,-0.201207 0.340753,-0.392677 0.136302,-0.191471 0.214188,-0.337509 0.02921,-0.04868 0.0649,-0.133056 0.03894,-0.08762 0.05841,-0.159018 z m 1.775163,1.109882 q 0.05517,0.0032 0.133056,0.0097 0.08113,0.0032 0.171999,0.0065 0.09411,0.0032 0.17849,0.0032 0.0649,0 0.17849,0 0.113584,0 0.256376,0 0.146037,0 0.305055,0 0.159019,0 0.314792,0 0.159018,0 0.298564,0 0.139547,0 0.246641,0 0.107094,0 0.165509,0 0.116829,0 0.210942,-0.0065 0.09411,-0.0097 0.152528,-0.01298 v 0.402414 q -0.05517,-0.0032 -0.155773,-0.0097 -0.100603,-0.0065 -0.207697,-0.0065 -0.05517,0 -0.165509,0 -0.107094,0 -0.246641,0 -0.139546,0 -0.298564,0 -0.155773,0 -0.314792,0 -0.159018,0 -0.305055,0 -0.142792,0 -0.256376,0 -0.113585,0 -0.17849,0 -0.133056,0 -0.266112,0.0065 -0.133056,0.0032 -0.217433,0.0097 z"
           id="text5-9-1"
           style="font-weight:500;font-size:3.24527px;line-height:1.25;font-family:'Noto Sans JP';-inkscape-font-specification:'Noto Sans JP Medium';fill:#f9f9f9;stroke-width:0.115903"
           aria-label="台北パフォーミングアーツセンター" />
        <path
           style="font-weight:500;font-size:3.24527px;line-height:1.25;font-family:'Noto Sans kr';-inkscape-font-specification:'Noto Sans kr Medium';fill:#f9f9f9;stroke-width:0.115903"
           d="m 99.813565,70.324707 h 0.236905 q 0.26287,0 0.48679,-0.0065 0.22392,-0.0065 0.43162,-0.02272 0.21094,-0.01947 0.43162,-0.05517 l 0.0325,0.272603 q -0.22392,0.0357 -0.44135,0.05841 -0.21419,0.01947 -0.4446,0.02596 -0.22717,0.0032 -0.49653,0.0032 h -0.236905 z m 0,-1.736219 h 1.385735 v 0.279093 h -1.04823 v 1.551239 h -0.337505 z m 0.256375,0.830789 h 1.07419 v 0.269357 h -1.07419 z m 1.5772,-1.087166 h 0.34076 v 2.966177 h -0.34076 z m 0.26611,1.161807 h 0.53547 v 0.282338 h -0.53547 z m 2.86233,-1.165052 h 0.34076 v 2.972667 h -0.34076 z m -1.23644,0.217433 q 0.22067,0 0.39267,0.129811 0.17525,0.129811 0.27261,0.36347 0.0974,0.23366 0.0974,0.551696 0,0.321282 -0.0974,0.558186 -0.0974,0.23366 -0.27261,0.363471 -0.172,0.126565 -0.39267,0.126565 -0.22068,0 -0.39593,-0.126565 -0.172,-0.129811 -0.2726,-0.363471 -0.0974,-0.236904 -0.0974,-0.558186 0,-0.318036 0.0974,-0.551696 0.1006,-0.233659 0.2726,-0.36347 0.17525,-0.129811 0.39593,-0.129811 z m 0,0.308301 q -0.12982,0 -0.23042,0.08762 -0.0974,0.08762 -0.15253,0.253131 -0.0552,0.165509 -0.0552,0.395923 0,0.233659 0.0552,0.399168 0.0552,0.165509 0.15253,0.256377 0.1006,0.08762 0.23042,0.08762 0.12981,0 0.22716,-0.08762 0.0974,-0.09087 0.15253,-0.256377 0.0552,-0.165509 0.0552,-0.399168 0,-0.230414 -0.0552,-0.395923 -0.0552,-0.165509 -0.15253,-0.253131 -0.0974,-0.08762 -0.22716,-0.08762 z m 2.21976,-0.24015 h 0.32128 v 0.700978 h 0.516 V 68.61445 h 0.31479 v 1.956898 h -1.15207 z m 0.32128,0.973581 V 70.2955 h 0.516 v -0.707469 z m 1.78815,-1.259165 h 0.32452 v 2.966177 h -0.32452 z m -1.01253,1.109882 h 0.53547 v 0.275848 h -0.53547 z m 0.41864,-1.051467 h 0.31804 v 2.768215 h -0.31804 z m 3.47244,-0.05841 h 0.34075 v 2.972667 h -0.34075 z m -1.23645,0.217433 q 0.22068,0 0.39268,0.129811 0.17524,0.129811 0.2726,0.36347 0.0974,0.23366 0.0974,0.551696 0,0.321282 -0.0974,0.558186 -0.0974,0.23366 -0.2726,0.363471 -0.172,0.126565 -0.39268,0.126565 -0.22068,0 -0.39592,-0.126565 -0.172,-0.129811 -0.2726,-0.363471 -0.0974,-0.236904 -0.0974,-0.558186 0,-0.318036 0.0974,-0.551696 0.1006,-0.233659 0.2726,-0.36347 0.17524,-0.129811 0.39592,-0.129811 z m 0,0.308301 q -0.12981,0 -0.23041,0.08762 -0.0974,0.08762 -0.15253,0.253131 -0.0552,0.165509 -0.0552,0.395923 0,0.233659 0.0552,0.399168 0.0552,0.165509 0.15253,0.256377 0.1006,0.08762 0.23041,0.08762 0.12981,0 0.22717,-0.08762 0.0974,-0.09087 0.15253,-0.256377 0.0552,-0.165509 0.0552,-0.399168 0,-0.230414 -0.0552,-0.395923 -0.0552,-0.165509 -0.15253,-0.253131 -0.0974,-0.08762 -0.22717,-0.08762 z m 3.30044,0.165509 h 0.54196 v 0.275847 h -0.54196 z m 0,0.908675 h 0.54196 v 0.275848 h -0.54196 z m 1.02875,-1.599918 h 0.32453 v 2.966177 h -0.32453 z m -0.58739,0.05841 h 0.32128 v 2.768215 h -0.32128 z m -0.95411,0.171999 q 0.19472,0 0.33751,0.129811 0.14603,0.126566 0.22392,0.36347 0.0779,0.23366 0.0779,0.561432 0,0.324527 -0.0779,0.561432 -0.0779,0.236904 -0.22392,0.36347 -0.14279,0.126565 -0.33751,0.126565 -0.19147,0 -0.33426,-0.126565 -0.1428,-0.126566 -0.22068,-0.36347 -0.0779,-0.236905 -0.0779,-0.561432 0,-0.327772 0.0779,-0.561432 0.0779,-0.236904 0.22068,-0.36347 0.14603,-0.129811 0.33426,-0.129811 z m 0,0.321282 q -0.1006,0 -0.17525,0.08438 -0.0714,0.08438 -0.11358,0.249886 -0.0389,0.162263 -0.0389,0.399168 0,0.230414 0.0389,0.395923 0.0422,0.165509 0.11358,0.253131 0.0746,0.08438 0.17525,0.08438 0.10385,0 0.17849,-0.08438 0.0746,-0.08762 0.11358,-0.253131 0.0389,-0.165509 0.0389,-0.395923 0,-0.236905 -0.0389,-0.399168 -0.0389,-0.165509 -0.11358,-0.249886 -0.0746,-0.08438 -0.17849,-0.08438 z m 3.48542,-0.53547 h 0.28883 v 0.08438 q 0,0.152528 -0.0584,0.285584 -0.0584,0.129811 -0.16875,0.24015 -0.10709,0.110339 -0.25638,0.194716 -0.14928,0.08438 -0.33101,0.142792 -0.18174,0.05517 -0.38619,0.07789 l -0.11359,-0.256377 q 0.17849,-0.01947 0.33427,-0.06166 0.15577,-0.04543 0.28234,-0.110339 0.12981,-0.0649 0.22067,-0.146037 0.0909,-0.08113 0.13955,-0.171999 0.0487,-0.09411 0.0487,-0.194717 z m 0.0617,0 h 0.28558 v 0.08438 q 0,0.100604 0.0487,0.194717 0.0487,0.09087 0.13955,0.171999 0.0941,0.08113 0.22068,0.146037 0.12656,0.0649 0.28234,0.110339 0.15901,0.04219 0.3375,0.06166 l -0.11683,0.256377 q -0.20445,-0.02272 -0.38618,-0.07789 -0.17849,-0.05841 -0.33102,-0.142792 -0.14928,-0.08438 -0.25638,-0.194716 -0.10709,-0.110339 -0.1655,-0.24015 -0.0584,-0.133056 -0.0584,-0.285584 z m -0.0584,1.395466 h 0.3375 v 0.434867 h -0.3375 z m -1.1683,-0.207697 h 2.68059 v 0.272603 h -2.68059 z m 0.31479,0.519243 h 2.02829 v 0.717205 h -1.68754 v 0.311546 h -0.33426 v -0.551696 h 1.68754 v -0.220678 h -1.69403 z m 0.006,0.957355 h 2.10618 v 0.259622 h -2.10618 z m 3.85538,-1.963388 h 0.51924 v 0.279093 h -0.51924 z m 0.9963,-0.71396 h 0.32452 v 2.219765 h -0.32452 z m -0.58415,0.05192 h 0.31804 v 2.083463 h -0.31804 z m -1.05471,2.576744 h 2.04452 v 0.275848 h -2.04452 z m 0,-0.675016 h 0.34075 v 0.840525 h -0.34075 z m 0.026,-1.749201 h 0.26611 v 0.408904 q 0,0.246641 -0.0746,0.483546 -0.0714,0.233659 -0.22068,0.42513 -0.14928,0.188226 -0.37321,0.295319 l -0.18822,-0.262866 q 0.19796,-0.09736 0.32777,-0.249886 0.13306,-0.152528 0.19796,-0.331018 0.0649,-0.181735 0.0649,-0.360225 z m 0.0649,0 h 0.26287 v 0.408904 q 0,0.175245 0.0584,0.340754 0.0617,0.165508 0.18498,0.305055 0.12332,0.136301 0.30505,0.223924 l -0.18498,0.256376 q -0.21419,-0.09736 -0.35373,-0.269357 -0.13955,-0.175245 -0.2077,-0.395923 -0.0649,-0.223924 -0.0649,-0.460829 z m 4.46874,-0.207697 h 0.34075 v 2.972667 h -0.34075 z m -0.56792,1.08392 h 0.61335 v 0.279093 h -0.61335 z m -1.41818,0.918412 h 0.23041 q 0.26611,0 0.4803,-0.0065 0.21743,-0.0065 0.41539,-0.02272 0.19797,-0.01947 0.40566,-0.05517 l 0.0325,0.272602 q -0.21419,0.0357 -0.41864,0.05517 -0.20121,0.01947 -0.42513,0.02596 -0.22068,0.0065 -0.49004,0.0065 h -0.23041 z m 0,-1.74271 h 1.3695 v 0.279093 h -1.032 v 1.551239 h -0.3375 z m 0.25313,0.830789 h 0.99954 v 0.269357 h -0.99954 z"
           id="text5-9-1-0"
           aria-label="타이베이예술센터&#10;" />
        <path
           style="font-weight:500;font-size:7.32669px;line-height:1.25;font-family:'Noto Sans KR';-inkscape-font-specification:'Noto Sans KR Medium';fill:#f9f9f9;stroke-width:0.261667"
           d="m 66.064264,43.592173 h 0.732669 v 5.011456 h -0.732669 z m -2.1687,1.817019 h 1.135637 v 0.630096 h -1.135637 z m 0.864549,-1.685139 h 0.725343 v 4.711062 h -0.725343 z m -2.395827,5.802739 H 66.9801 v 0.622769 h -4.615814 z m 0,-1.501971 h 0.769302 v 1.897612 h -0.769302 z m 0.05129,-3.377605 h 0.608116 v 0.490889 q 0,0.534848 -0.168514,1.04039 -0.168514,0.505541 -0.505542,0.901183 -0.337027,0.388314 -0.857222,0.608115 l -0.395642,-0.593462 q 0.446928,-0.183167 0.732669,-0.498215 0.293068,-0.315048 0.439602,-0.688709 0.146533,-0.380988 0.146533,-0.769302 z m 0.146534,0 h 0.593462 v 0.483562 q 0,0.366335 0.139207,0.725342 0.146534,0.351681 0.424948,0.637422 0.278415,0.285741 0.696036,0.454255 l -0.388315,0.600789 q -0.498215,-0.205148 -0.827916,-0.578809 -0.322374,-0.373661 -0.483561,-0.849896 -0.153861,-0.476235 -0.153861,-0.989103 z m -1.296824,-0.446928 h 2.96731 v 0.615442 h -2.96731 z m 6.879763,2.769489 h 0.527522 q 0.674055,0 1.17227,-0.0073 0.505542,-0.01465 0.93049,-0.05129 0.424948,-0.04396 0.864549,-0.124554 l 0.08792,0.600789 q -0.454254,0.08792 -0.893856,0.13188 -0.439601,0.03663 -0.959796,0.05129 -0.520195,0.01465 -1.201577,0.01465 h -0.527522 z m 0,-2.857409 h 3.091863 v 0.615442 h -2.329887 v 2.454441 h -0.761976 z m 0.520195,1.414051 h 2.447115 v 0.600789 H 68.66524 Z m 3.663345,-1.941573 h 0.761976 v 4.967496 h -0.761976 z m 0.534848,2.03682 h 1.172271 v 0.637422 h -1.172271 z m -4.007699,3.905126 h 4.513241 v 0.622769 h -4.513241 z m 0,-1.428704 h 0.769302 v 1.795039 h -0.769302 z"
           id="text5-9-8"
           aria-label="젠탄" />
        <path
           id="rect2"
           style="fill:#ffffff;stroke-width:0.757875"
           d="m 40.106209,54.464676 h 1.050099 v 16.764515 h -1.050099 z" />
      </g>
    </g>
  </g>
</svg>
