<?xml version="1.0" encoding="UTF-8" standalone="no"?>
<!-- Created with Inkscape (http://www.inkscape.org/) -->

<svg
   width="500"
   height="250"
   viewBox="0 0 132.29166 66.145833"
   version="1.1"
   id="svg1"
   inkscape:version="1.3.2 (091e20e, 2023-11-25, custom)"
   sodipodi:docname="r16_2.svg"
   xmlns:inkscape="http://www.inkscape.org/namespaces/inkscape"
   xmlns:sodipodi="http://sodipodi.sourceforge.net/DTD/sodipodi-0.dtd"
   xmlns="http://www.w3.org/2000/svg"
   xmlns:svg="http://www.w3.org/2000/svg">
  <sodipodi:namedview
     id="namedview1"
     pagecolor="#9e652e"
     bordercolor="#ffffff"
     borderopacity="1"
     inkscape:showpageshadow="0"
     inkscape:pageopacity="0"
     inkscape:pagecheckerboard="false"
     inkscape:deskcolor="#d1d1d1"
     inkscape:document-units="mm"
     inkscape:zoom="2.0208096"
     inkscape:cx="305.81802"
     inkscape:cy="106.88785"
     inkscape:window-width="1920"
     inkscape:window-height="1009"
     inkscape:window-x="1912"
     inkscape:window-y="-8"
     inkscape:window-maximized="1"
     inkscape:current-layer="layer1" />
  <defs
     id="defs1">
    <rect
       x="560.66638"
       y="34.144731"
       width="279.32397"
       height="128.59143"
       id="rect6" />
    <rect
       x="157.85752"
       y="62.351248"
       width="329.07603"
       height="135.09437"
       id="rect4" />
    <rect
       x="157.85751"
       y="62.35125"
       width="329.07602"
       height="135.09438"
       id="rect4-5" />
  </defs>
  <g
     inkscape:label="Layer 1"
     inkscape:groupmode="layer"
     id="layer1">
    <rect
       style="fill:#d0002b;fill-opacity:1;stroke:none;stroke-width:0.953294;stroke-dasharray:none"
       id="rect5"
       width="132.29167"
       height="66.145836"
       x="-2.5431316e-06"
       y="-1.2715658e-06"
       ry="0" />
    <text
       xml:space="preserve"
       transform="matrix(0.31615295,0,0,0.31615295,-10.474341,-6.4462013)"
       id="text6"
       style="font-size:55px;line-height:1.25;font-family:'Microsoft JhengHei';-inkscape-font-specification:'Microsoft JhengHei';white-space:pre;shape-inside:url(#rect6);display:inline" />
    <g
       id="g4"
       transform="translate(19.320543,-9.5185482)">
      <g
         id="g6"
         transform="translate(-19.056731)">
        <g
           id="g5"
           transform="translate(23.513546,9.5185469)">
          <path
             id="rect1"
             style="fill-opacity:0;stroke:#f9f9f9;stroke-width:0.942789"
             d="m 15.913089,14.352791 h 12.425164 c 3.927062,0 7.088559,3.161497 7.088559,7.088559 v 23.263136 c 0,3.927062 -3.161497,7.088559 -7.088559,7.088559 H 15.913089 c -3.927061,0 -7.0885584,-3.161497 -7.0885584,-7.088559 V 21.44135 c 0,-3.927062 3.1614974,-7.088559 7.0885584,-7.088559 z" />
          <path
             style="font-size:14.3709px;line-height:1.25;font-family:'AR UDJingXiHeiE1G30 EB';-inkscape-font-specification:'AR UDJingXiHeiE1G30 EB';fill:#f9f9f9;stroke-width:0.299395"
             d="m 24.479114,23.761527 q 0,-0.761658 -0.402385,-1.149672 -0.402385,-0.402385 -1.164043,-0.402385 h -3.118485 v 3.233452 h 3.017889 q 0.747287,0 1.207156,-0.445498 0.459868,-0.445498 0.459868,-1.235897 z m -4.684913,3.089743 v 4.325641 h -1.825104 v -10.39016 h 5.288491 q 1.422719,0 2.256231,0.761657 0.847883,0.747287 0.847883,2.126893 0,0.905367 -0.431127,1.552058 -0.416756,0.64669 -1.049075,0.919737 0.80477,0.459869 1.235897,1.59517 0.431127,1.135301 0.546094,3.434645 H 24.766532 Q 24.680307,28.7626 24.234809,27.814121 23.803682,26.85127 22.840832,26.85127 Z"
             id="text2"
             aria-label="R" />
          <path
             style="font-size:14.3917px;line-height:1.25;font-family:'AR UDJingXiHeiE1G30 EB';-inkscape-font-specification:'AR UDJingXiHeiE1G30 EB';fill:#f9f9f9;stroke-width:0.261667"
             d="m 17.218078,36.584172 -1.683829,1.568695 -0.834718,-1.280861 2.705639,-2.460981 h 1.568696 v 10.405199 h -1.755788 z m 9.383378,8.419144 q -0.820327,0 -1.496736,-0.230267 -0.662019,-0.230267 -1.136945,-0.733976 -0.575668,-0.59006 -0.863502,-1.597479 -0.287834,-1.021811 -0.287834,-2.532939 0,-2.691248 0.978636,-4.173593 0.993027,-1.496737 2.835165,-1.496737 1.496736,0 2.317063,0.805935 0.834719,0.805935 0.921069,1.986055 h -1.755787 q -0.02878,-0.489318 -0.402968,-0.921069 -0.359792,-0.446143 -1.064986,-0.446143 -0.93546,0 -1.482345,1.021811 -0.532493,1.021811 -0.546884,2.532939 0.431751,-0.59006 1.050594,-0.892285 0.618843,-0.302226 1.395995,-0.302226 1.43917,0 2.259497,0.949852 0.820326,0.935461 0.820326,2.432197 0,1.727004 -0.978635,2.662465 -0.978636,0.93546 -2.561723,0.93546 z M 28.32846,41.47735 q 0,-0.892285 -0.489318,-1.453562 -0.474926,-0.575668 -1.252077,-0.575668 -0.849111,0 -1.35282,0.546885 -0.489318,0.532493 -0.518101,1.43917 0,1.007419 0.489317,1.583087 0.50371,0.561276 1.367212,0.561276 0.834718,0 1.295253,-0.546884 0.460534,-0.546885 0.460534,-1.554304 z"
             id="text3"
             aria-label="16" />
          <path
             style="font-weight:500;font-size:72px;line-height:1.25;font-family:'Noto Sans TC';-inkscape-font-specification:'Noto Sans TC Medium';white-space:pre;fill:#f9f9f9"
             d="m 165.48942,131.04941 h 57.168 v 6.768 h -57.168 z m -4.032,-34.056004 h 65.016 v 6.768004 h -65.016 z m 28.656,-22.176 h 7.272 v 61.128004 h -7.272 z m 75.096,15.048 h 32.616 v 6.48 h -32.616 z m 12.528,-15.264 h 6.768 v 66.816004 h -6.768 z m -0.288,18.288 5.112,1.728 q -1.368,5.112 -3.312,10.296004 -1.944,5.184 -4.392,10.08 -2.448,4.824 -5.256,9 -2.736,4.104 -5.688,7.128 -0.648,-1.512 -1.872,-3.24 -1.152,-1.728 -2.088,-2.952 2.808,-2.736 5.472,-6.336 2.664,-3.672 4.968,-7.92 2.304,-4.248 4.104,-8.784 1.872,-4.536004 2.952,-9.000004 z m 7.632,0 q 1.512,5.904 3.816,11.808004 2.376,5.904 5.184,11.016 2.88,5.112 5.976,8.496 -1.224,0.936 -2.736,2.448 -1.512,1.512 -2.448,2.88 -2.952,-4.032 -5.76,-9.792 -2.736,-5.76 -4.968,-12.384 -2.232,-6.624 -3.744,-13.176004 z m -51.552,-3.024 h 28.944 v 6.48 h -28.944 z m 12.312,-15.264 h 6.696 v 66.816004 h -6.696 z m -0.432,19.368 4.536,1.656 q -1.08,4.392004 -2.664,9.072004 -1.512,4.68 -3.456,9.144 -1.872,4.464 -4.104,8.28 -2.16,3.816 -4.464,6.48 -0.576,-1.44 -1.656,-3.312 -1.08,-1.872 -1.944,-3.168 2.16,-2.448 4.248,-5.688 2.088,-3.24 3.888,-6.984 1.872,-3.816 3.312,-7.776 1.44,-3.960004 2.304,-7.704004 z m 6.984,3.672 q 0.72,0.576 1.872,1.944 1.224,1.296004 2.664,2.880004 1.44,1.584 2.808,3.24 1.44,1.656 2.592,3.024 1.152,1.296 1.656,1.872 l -4.392,5.904 q -0.864,-1.512 -2.304,-3.6 -1.368,-2.088 -3.024,-4.32 -1.584,-2.232 -3.096,-4.248 -1.44,-2.016 -2.448,-3.24 z"
             id="text4"
             transform="matrix(0.26166763,0,0,0.26166763,-2.1314997,-4.0633201)"
             aria-label="士林" />
          <path
             style="font-size:7.32669px;line-height:1.25;font-family:'AR UDJingXiHeiE1G30 EB';-inkscape-font-specification:'AR UDJingXiHeiE1G30 EB';fill:#f9f9f9;stroke-width:0.261667"
             d="m 42.150353,38.490591 q -0.967123,-0.175841 -1.436031,-0.542175 -0.468908,-0.366335 -0.468908,-1.025737 0,-0.615442 0.498215,-1.01841 0.505542,-0.402968 1.553258,-0.402968 0.959797,0 1.487318,0.410295 0.527522,0.410295 0.578809,1.186924 h -0.93049 q -0.0073,-0.373661 -0.293067,-0.622769 -0.285741,-0.249107 -0.871876,-0.249107 -0.549502,0 -0.813263,0.183167 -0.263761,0.183167 -0.256434,0.512868 0,0.359008 0.351681,0.534849 0.359008,0.17584 1.164944,0.337027 1.011083,0.205148 1.436031,0.556829 0.432275,0.351681 0.432275,1.055043 0,0.674056 -0.571482,1.128311 -0.571482,0.446928 -1.626525,0.446928 -1.077024,0 -1.677812,-0.454255 -0.600789,-0.454255 -0.600789,-1.311478 h 0.93049 q 0,0.476235 0.359007,0.761976 0.359008,0.278414 0.99643,0.278414 0.586135,0 0.915837,-0.227127 0.329701,-0.227127 0.329701,-0.593462 0,-0.424948 -0.329701,-0.608115 -0.329702,-0.183167 -1.157618,-0.337028 z m 4.234827,0.04396 v 2.351868 h -0.930489 v -5.297197 h 0.930489 v 2.219987 h 2.542362 v -2.219987 h 0.930489 v 5.297197 h -0.930489 v -2.351868 z m 5.619573,-2.945329 v 5.297197 h -0.930489 v -5.297197 z m 4.938183,5.297197 h -3.721958 v -5.297197 h 0.93049 v 4.571854 h 2.791468 z m 1.699799,-5.297197 v 5.297197 h -0.93049 v -5.297197 z m 2.146715,1.472664 v 3.824533 h -0.93049 v -5.297197 h 0.959797 l 2.600975,3.912452 v -3.912452 h 0.930489 v 5.297197 h -1.01841 z"
             id="text5"
             aria-label="SHILIN" />
          <path
             d="m 40.430976,49.146849 h 5.817392 v 0.688708 h -5.817392 z m -0.410295,-3.465525 h 6.616001 v 0.688709 h -6.616001 z m 2.916023,-2.25662 h 0.739995 v 6.22036 h -0.739995 z m 7.641738,1.531278 h 3.31899 v 0.659402 h -3.31899 z m 1.274844,-1.553259 h 0.688709 v 6.799169 h -0.688709 z m -0.02931,1.86098 0.520195,0.17584 q -0.139207,0.520195 -0.337028,1.047717 -0.19782,0.527522 -0.446928,1.025737 -0.249107,0.490888 -0.534848,0.915836 -0.278415,0.417621 -0.578809,0.725342 -0.06594,-0.15386 -0.190494,-0.329701 -0.117227,-0.17584 -0.212474,-0.300394 0.285741,-0.278414 0.556829,-0.644749 0.271087,-0.373661 0.505541,-0.805936 0.234454,-0.432274 0.417622,-0.893856 0.190494,-0.461581 0.300394,-0.915836 z m 0.776629,0 q 0.153861,0.600788 0.388315,1.201577 0.24178,0.600789 0.527521,1.120984 0.293068,0.520195 0.608116,0.864549 -0.124554,0.09525 -0.278415,0.249107 -0.15386,0.153861 -0.249107,0.293068 -0.300394,-0.410295 -0.586135,-0.99643 -0.278415,-0.586135 -0.505542,-1.26019 -0.227127,-0.674056 -0.380988,-1.340785 z m -5.24591,-0.307721 h 2.945329 v 0.659402 h -2.945329 z m 1.252864,-1.553259 h 0.681382 v 6.799169 h -0.681382 z m -0.04396,1.97088 0.461581,0.168514 q -0.1099,0.446928 -0.271087,0.923163 -0.153861,0.476235 -0.351681,0.93049 -0.190494,0.454254 -0.417622,0.842569 -0.2198,0.388315 -0.454255,0.659402 -0.05861,-0.146534 -0.168513,-0.337028 -0.109901,-0.190494 -0.197821,-0.322374 0.219801,-0.249107 0.432275,-0.578809 0.212474,-0.329701 0.395641,-0.710688 0.190494,-0.388315 0.337028,-0.791283 0.146533,-0.402968 0.234454,-0.783956 z m 0.710689,0.373661 q 0.07327,0.05861 0.190494,0.197821 0.124553,0.13188 0.271087,0.293068 0.146534,0.161187 0.285741,0.329701 0.146534,0.168514 0.263761,0.307721 0.117227,0.13188 0.168514,0.190494 l -0.446928,0.600788 q -0.08792,-0.15386 -0.234454,-0.366334 -0.139207,-0.212474 -0.307721,-0.439602 -0.161188,-0.227127 -0.315048,-0.432274 -0.146534,-0.205148 -0.249108,-0.329702 z"
             id="text5-9"
             style="font-weight:500;font-size:7.32669px;line-height:1.25;font-family:'Noto Sans JP';-inkscape-font-specification:'Noto Sans JP Medium';fill:#f9f9f9;stroke-width:0.261667"
             aria-label="士林" />
          <path
             style="font-weight:500;font-size:7.32669px;line-height:1.25;font-family:'Noto Sans KR';-inkscape-font-specification:'Noto Sans KR Medium';fill:#f9f9f9;stroke-width:0.261667"
             d="m 65.307225,44.017121 h 0.666729 v 0.498215 q 0,0.439601 -0.139207,0.842569 -0.131881,0.395642 -0.380988,0.747323 -0.249108,0.344354 -0.593462,0.622768 -0.337028,0.278415 -0.747323,0.476235 -0.410294,0.190494 -0.857222,0.285741 L 62.918724,46.85255 q 0.395641,-0.07327 0.754649,-0.227127 0.359008,-0.161187 0.659402,-0.388315 0.300394,-0.234454 0.512868,-0.505541 0.219801,-0.278415 0.337028,-0.586136 0.124554,-0.315047 0.124554,-0.630095 z m 0.146534,0 h 0.666728 v 0.498215 q 0,0.322374 0.117228,0.630095 0.124553,0.307721 0.344354,0.586136 0.219801,0.278414 0.520195,0.505541 0.300394,0.227128 0.659402,0.388315 0.359008,0.15386 0.754649,0.227127 l -0.337028,0.637422 q -0.446928,-0.09525 -0.857222,-0.285741 -0.410295,-0.19782 -0.754649,-0.476235 -0.337028,-0.278414 -0.586136,-0.622768 -0.249107,-0.351681 -0.388314,-0.747323 -0.139207,-0.402968 -0.139207,-0.842569 z m -2.740182,4.769675 h 6.066499 v 0.637422 h -6.066499 z m 11.488251,-5.194623 h 0.769302 v 4.930863 h -0.769302 z m -3.648692,5.934619 h 4.593835 v 0.622769 h -4.593835 z m 0,-1.399398 h 0.769302 v 1.721772 h -0.769302 z m -0.754649,-1.12831 h 0.556828 q 0.666729,0 1.194251,-0.01465 0.534848,-0.02198 1.003756,-0.06594 0.476235,-0.05129 0.967123,-0.139207 l 0.08059,0.622769 q -0.505542,0.08792 -0.99643,0.139207 -0.483561,0.04396 -1.025737,0.06594 -0.542175,0.01465 -1.223557,0.01465 h -0.556828 z m -0.01465,-2.952656 h 3.062557 v 2.03682 h -2.293254 v 1.099003 h -0.754649 v -1.685138 h 2.293254 v -0.827916 h -2.307908 z"
             id="text5-9-8"
             aria-label="스린" />
        </g>
      </g>
    </g>
  </g>
</svg>
