<?xml version="1.0" encoding="UTF-8" standalone="no"?>
<!-- Created with Inkscape (http://www.inkscape.org/) -->

<svg
   width="500"
   height="250"
   viewBox="0 0 132.29166 66.145833"
   version="1.1"
   id="svg1"
   inkscape:version="1.3.2 (091e20e, 2023-11-25, custom)"
   sodipodi:docname="r17.svg"
   xmlns:inkscape="http://www.inkscape.org/namespaces/inkscape"
   xmlns:sodipodi="http://sodipodi.sourceforge.net/DTD/sodipodi-0.dtd"
   xmlns="http://www.w3.org/2000/svg"
   xmlns:svg="http://www.w3.org/2000/svg">
  <sodipodi:namedview
     id="namedview1"
     pagecolor="#9e652e"
     bordercolor="#ffffff"
     borderopacity="1"
     inkscape:showpageshadow="0"
     inkscape:pageopacity="0"
     inkscape:pagecheckerboard="false"
     inkscape:deskcolor="#d1d1d1"
     inkscape:document-units="mm"
     inkscape:zoom="2.0208096"
     inkscape:cx="275.6321"
     inkscape:cy="128.6613"
     inkscape:window-width="1920"
     inkscape:window-height="1009"
     inkscape:window-x="1912"
     inkscape:window-y="-8"
     inkscape:window-maximized="1"
     inkscape:current-layer="g16" />
  <defs
     id="defs1">
    <rect
       x="560.66638"
       y="34.144731"
       width="279.32397"
       height="128.59143"
       id="rect6" />
    <rect
       x="157.85752"
       y="62.351248"
       width="541.85369"
       height="99.322566"
       id="rect4" />
    <rect
       x="157.85751"
       y="62.35125"
       width="329.07602"
       height="135.09438"
       id="rect4-5" />
    <rect
       x="157.85751"
       y="62.35125"
       width="470.56151"
       height="119.92888"
       id="rect4-5-3" />
  </defs>
  <g
     inkscape:label="Layer 1"
     inkscape:groupmode="layer"
     id="layer1">
    <rect
       style="fill:#d0002b;fill-opacity:1;stroke:none;stroke-width:0.953294;stroke-dasharray:none"
       id="rect5"
       width="132.29167"
       height="66.145836"
       x="-2.5431316e-06"
       y="-1.2715658e-06"
       ry="0" />
    <g
       id="g16"
       transform="translate(21.813982)">
      <path
         id="rect1"
         style="fill-opacity:0;stroke:#ffffff;stroke-width:0.810881"
         d="m 18.989333,16.971979 h 10.686722 c 3.377614,0 6.096777,2.719163 6.096777,6.096777 v 20.00832 c 0,3.377614 -2.719163,6.096777 -6.096777,6.096777 H 18.989333 c -3.377614,0 -6.096777,-2.719163 -6.096777,-6.096777 v -20.00832 c 0,-3.377614 2.719163,-6.096777 6.096777,-6.096777 z" />
      <path
         style="font-size:12.2918px;line-height:1.25;font-family:'AR UDJingXiHeiE1G30 EB';-inkscape-font-specification:'AR UDJingXiHeiE1G30 EB';fill:#ffffff;stroke-width:0.256079"
         d="m 26.182626,24.962252 q 0,-0.651466 -0.344171,-0.983344 -0.34417,-0.344171 -0.995635,-0.344171 h -2.667321 v 2.765655 h 2.581278 q 0.639174,0 1.032511,-0.381046 0.393338,-0.381045 0.393338,-1.057094 z m -4.007127,2.642737 V 31.30482 H 20.61444 v -8.886971 h 4.523383 q 1.216888,0 1.929812,0.651465 0.725216,0.639174 0.725216,1.819187 0,0.774383 -0.368754,1.327514 -0.356462,0.553131 -0.897301,0.786675 0.688341,0.393338 1.057095,1.36439 0.368754,0.971052 0.467088,2.93774 h -1.622517 q -0.07375,-2.065022 -0.454797,-2.876281 -0.368754,-0.82355 -1.192304,-0.82355 z"
         id="text2"
         aria-label="R" />
      <path
         style="font-size:12.3781px;line-height:1.25;font-family:'AR UDJingXiHeiE1G30 EB';-inkscape-font-specification:'AR UDJingXiHeiE1G30 EB';fill:#ffffff;stroke-width:0.225056"
         d="m 20.111735,36.092907 -1.448238,1.349213 -0.71793,-1.101651 2.327083,-2.116655 h 1.349213 v 8.949366 h -1.510128 z m 6.226175,7.080273 3.156416,-7.723934 h -4.468494 v -1.225432 h 6.065269 v 1.027382 l -3.156416,7.921984 z"
         id="text3"
         aria-label="17" />
      <path
         style="font-weight:500;font-size:72px;line-height:1.25;font-family:'Noto Sans TC';-inkscape-font-specification:'Noto Sans TC Medium';white-space:pre;fill:#ffffff"
         d="m 166.92942,100.16141 h 45.936 v 6.336 h -45.936 z m 44.352,0 h 1.656 l 1.296,-0.360004 5.04,3.384004 q -3.168,4.32 -7.488,8.712 -4.32,4.32 -9.288,8.352 -4.896,3.96 -10.224,7.416 -5.328,3.456 -10.584,6.048 -0.72,-1.08 -2.016,-2.448 -1.296,-1.44 -2.376,-2.304 5.04,-2.376 10.08,-5.544 5.04,-3.24 9.576,-6.912 4.608,-3.744 8.28,-7.56 3.744,-3.816 6.048,-7.2 z m -23.472,-6.264004 6.48,-1.584 q 1.584,2.376 3.24,5.256 1.656,2.880004 2.376,4.824004 l -6.84,1.944 q -0.648,-2.016 -2.232,-4.968004 -1.512,-3.024 -3.024,-5.472 z m -10.872,32.472004 q 1.944,0 3.744,1.296 1.872,1.224 4.752,2.808 3.456,1.944 7.992,2.592 4.536,0.648 10.296,0.648 3.6,0 7.848,-0.144 4.248,-0.144 8.424,-0.432 4.176,-0.288 7.416,-0.648 -0.36,0.864 -0.792,2.16 -0.432,1.296 -0.792,2.592 -0.288,1.296 -0.36,2.304 -1.872,0.072 -4.608,0.216 -2.736,0.144 -5.832,0.216 -3.096,0.072 -6.12,0.144 -2.952,0.072 -5.4,0.072 -6.192,0 -10.872,-0.864 -4.608,-0.864 -8.424,-2.952 -2.376,-1.296 -4.248,-2.592 -1.872,-1.296 -3.168,-1.296 -1.296,0 -2.952,1.224 -1.656,1.224 -3.528,3.168 -1.8,2.016 -3.672,4.248 l -5.256,-6.12 q 4.104,-3.672 8.208,-6.12 4.104,-2.52 7.344,-2.52 z m -14.976,-44.784004 h 30.312 v 6.048 h -30.312 z m 13.032,-6.984 h 6.768 v 19.296 h -6.768 z m 31.032,0 h 6.696 v 19.368 h -6.696 z m -10.8,6.984 h 30.744 v 6.048 h -30.744 z m 66.96,-6.192 h 7.2 v 56.880004 h -7.2 z m 25.488,14.328 h 7.056 v 51.552004 h -7.056 z m -50.472,0.216 h 6.984 v 39.168004 h 46.944 v 6.912 h -53.928 z"
         id="text4"
         transform="matrix(0.22505692,0,0,0.22505692,3.4694169,1.1325221)"
         aria-label="芝山" />
      <path
         style="font-size:6.30159px;line-height:1.25;font-family:'AR UDJingXiHeiE1G30 EB';-inkscape-font-specification:'AR UDJingXiHeiE1G30 EB';fill:#ffffff;stroke-width:0.225056"
         d="m 39.942455,35.237156 h 3.5667 v 0.573445 l -2.747493,3.358747 h 2.810509 v 0.623858 h -3.837669 v -0.573445 l 2.747494,-3.358748 h -2.539541 z m 5.167304,2.533239 v 2.022811 h -0.800302 v -4.55605 h 0.800302 v 1.909382 h 2.186652 v -1.909382 h 0.800302 v 4.55605 h -0.800302 v -2.022811 z m 4.83332,-2.533239 v 4.55605 h -0.800302 v -4.55605 z m 2.558442,2.49543 q -0.83181,-0.151239 -1.235112,-0.466318 -0.403301,-0.31508 -0.403301,-0.882223 0,-0.529333 0.428508,-0.875921 0.434809,-0.346587 1.335937,-0.346587 0.825508,0 1.279222,0.352889 0.453715,0.352889 0.497826,1.020858 h -0.800302 q -0.0063,-0.321382 -0.252063,-0.535636 -0.245762,-0.214254 -0.74989,-0.214254 -0.472619,0 -0.699476,0.15754 -0.226857,0.15754 -0.220556,0.441111 0,0.308778 0.302477,0.460016 0.308777,0.151239 1.001952,0.289874 0.86962,0.176444 1.235112,0.47892 0.371794,0.302477 0.371794,0.907429 0,0.579747 -0.491524,0.970445 -0.491524,0.384397 -1.398953,0.384397 -0.926334,0 -1.443064,-0.390698 -0.516731,-0.390699 -0.516731,-1.127985 h 0.800302 q 0,0.409603 0.308778,0.655365 0.308778,0.239461 0.857016,0.239461 0.504128,0 0.787699,-0.195349 0.283572,-0.19535 0.283572,-0.510429 0,-0.365492 -0.283572,-0.523032 -0.283571,-0.15754 -0.995651,-0.289873 z m 3.642319,0.03781 v 2.022811 h -0.800302 v -4.55605 h 0.800302 v 1.909382 h 2.186652 v -1.909382 h 0.800302 v 4.55605 h -0.800302 v -2.022811 z m 6.45913,0.182746 -0.718381,-1.947191 -0.730985,1.947191 z m -1.682525,0.623858 -0.453714,1.216207 h -0.812905 l 1.833762,-4.55605 h 0.819207 l 1.82116,4.55605 h -0.83181 l -0.460016,-1.216207 z m 4.530838,-2.073223 v 3.28943 h -0.800302 v -4.55605 h 0.825508 l 2.237064,3.365049 v -3.365049 h 0.800302 v 4.55605 h -0.875921 z"
         id="text5"
         aria-label="ZHISHAN" />
      <path
         d="m 40.20918,44.194512 h 4.020415 v 0.55454 H 40.20918 Z m 2.041715,-0.794 h 0.59235 v 1.077572 h -0.59235 z m 1.833763,0.794 h 0.138635 l 0.11973,-0.03151 0.441112,0.289874 q -0.270969,0.384397 -0.636461,0.775095 -0.359191,0.384397 -0.787699,0.749889 -0.422206,0.359191 -0.869619,0.67427 -0.447413,0.308778 -0.901128,0.541937 -0.06302,-0.09452 -0.176444,-0.214254 -0.113429,-0.11973 -0.207953,-0.195349 0.422207,-0.214254 0.850715,-0.504127 0.428508,-0.289874 0.812905,-0.623858 0.390699,-0.333984 0.705778,-0.67427 0.31508,-0.346587 0.510429,-0.649064 z m -3.081477,2.048017 q 0.195349,0.378095 0.541936,0.567143 0.346588,0.189048 0.83181,0.252064 0.491524,0.06302 1.083874,0.06302 0.08822,0 0.27727,0 0.195349,0 0.441111,0 0.245762,0 0.497826,0 0.252063,0 0.460016,0 0.214254,-0.0063 0.327682,-0.0063 -0.03781,0.06932 -0.08192,0.170143 -0.04411,0.100825 -0.07562,0.201651 -0.03151,0.107127 -0.05041,0.195349 h -0.403302 -1.417858 q -0.743587,0 -1.298127,-0.09452 -0.55454,-0.09452 -0.957842,-0.35919 -0.397,-0.270969 -0.67427,-0.800302 z m -0.781398,1.531286 -0.541936,-0.327682 q 0.189047,-0.201651 0.384397,-0.478921 0.201651,-0.27727 0.371793,-0.573445 0.176445,-0.302476 0.283572,-0.55454 l 0.523032,0.252064 q -0.107127,0.214254 -0.270968,0.510429 -0.163842,0.289873 -0.352889,0.598651 -0.189048,0.302476 -0.397001,0.573444 z m -0.422206,-5.205113 h 5.532796 v 0.541937 h -5.532796 z m 1.342239,-0.604953 h 0.592349 v 1.732938 h -0.592349 z m 2.230762,0 h 0.59235 v 1.732938 h -0.59235 z m 5.148399,0.151239 h 0.630159 v 4.896335 h -0.630159 z m -2.18035,1.367445 h 0.604953 v 4.253573 h -0.604953 z m 4.448923,-0.0126 h 0.617556 v 4.247272 H 50.78955 Z m -4.152748,3.182303 h 4.423716 v 0.611255 h -4.423716 z"
         id="text5-9"
         style="font-weight:500;font-size:6.30159px;line-height:1.25;font-family:'Noto Sans JP';-inkscape-font-specification:'Noto Sans JP Medium';fill:#ffffff;stroke-width:0.225056"
         aria-label="芝山" />
      <path
         style="font-weight:500;font-size:6.30159px;line-height:1.25;font-family:'Noto Sans KR';-inkscape-font-specification:'Noto Sans KR Medium';fill:#ffffff;stroke-width:0.225056"
         d="m 58.037653,46.607124 h 5.217716 v 0.541937 h -5.217716 z m 2.255969,-3.705334 h 0.560842 v 0.409603 q 0,0.359191 -0.119731,0.680572 -0.113428,0.321381 -0.327682,0.598651 -0.214254,0.27727 -0.504127,0.497825 -0.289874,0.214254 -0.642763,0.371794 -0.346587,0.151238 -0.724682,0.226857 L 58.26451,45.151457 q 0.340286,-0.05041 0.642762,-0.176444 0.302477,-0.126032 0.55454,-0.302477 0.258366,-0.176444 0.441112,-0.390698 0.189047,-0.214254 0.289873,-0.460016 0.100825,-0.245762 0.100825,-0.510429 z m 0.132334,0 h 0.560841 v 0.409603 q 0,0.264667 0.100826,0.510429 0.100825,0.23946 0.289873,0.453714 0.189047,0.214254 0.441111,0.390699 0.258365,0.170143 0.567143,0.296175 0.31508,0.11973 0.655365,0.170142 l -0.264666,0.523032 q -0.390699,-0.06932 -0.743588,-0.220555 -0.352889,-0.151238 -0.649064,-0.365492 -0.289873,-0.214255 -0.504127,-0.485223 -0.214254,-0.270968 -0.333984,-0.592349 -0.11973,-0.321381 -0.11973,-0.680572 z m -1.959795,-0.252064 h 4.348097 v 0.535635 H 58.466161 Z M 65.19626,42.46698 h 0.541937 v 0.667968 q 0,0.567144 -0.189048,1.058668 -0.182746,0.485222 -0.541937,0.844413 -0.35919,0.35919 -0.869619,0.548238 l -0.359191,-0.51673 q 0.466318,-0.15754 0.781397,-0.447413 0.31508,-0.296175 0.472619,-0.680572 0.163842,-0.384397 0.163842,-0.806604 z m 0.126032,0 h 0.535635 v 0.686873 q 0,0.283572 0.08822,0.55454 0.09452,0.270968 0.264667,0.510429 0.176444,0.23946 0.428508,0.422206 0.258365,0.182747 0.592349,0.296175 l -0.333984,0.523032 q -0.504127,-0.182746 -0.857016,-0.523032 -0.352889,-0.340286 -0.535635,-0.800302 -0.182746,-0.466317 -0.182746,-0.983048 z m 2.350493,-0.352889 h 0.655365 v 4.234668 h -0.655365 z m 0.460016,1.726636 h 1.008254 v 0.548238 h -1.008254 z m -3.434367,3.383953 h 3.862875 v 0.535635 h -3.862875 z m 0,-1.279222 h 0.661667 v 1.556492 h -0.661667 z"
         id="text5-9-8"
         aria-label="즈산" />
    </g>
    <text
       xml:space="preserve"
       transform="matrix(0.31615295,0,0,0.31615295,-10.474341,-6.4462013)"
       id="text6"
       style="font-size:55px;line-height:1.25;font-family:'Microsoft JhengHei';-inkscape-font-specification:'Microsoft JhengHei';white-space:pre;shape-inside:url(#rect6);display:inline" />
  </g>
</svg>
