<?xml version="1.0" encoding="UTF-8" standalone="no"?>
<!-- Created with Inkscape (http://www.inkscape.org/) -->

<svg
   width="500"
   height="250"
   viewBox="0 0 132.29166 66.145833"
   version="1.1"
   id="svg1"
   inkscape:version="1.3.2 (091e20e, 2023-11-25, custom)"
   sodipodi:docname="r18.svg"
   xmlns:inkscape="http://www.inkscape.org/namespaces/inkscape"
   xmlns:sodipodi="http://sodipodi.sourceforge.net/DTD/sodipodi-0.dtd"
   xmlns="http://www.w3.org/2000/svg"
   xmlns:svg="http://www.w3.org/2000/svg">
  <sodipodi:namedview
     id="namedview1"
     pagecolor="#9e652e"
     bordercolor="#ffffff"
     borderopacity="1"
     inkscape:showpageshadow="0"
     inkscape:pageopacity="0"
     inkscape:pagecheckerboard="false"
     inkscape:deskcolor="#d1d1d1"
     inkscape:document-units="mm"
     inkscape:zoom="2.0208096"
     inkscape:cx="275.6321"
     inkscape:cy="128.6613"
     inkscape:window-width="1920"
     inkscape:window-height="1009"
     inkscape:window-x="1912"
     inkscape:window-y="-8"
     inkscape:window-maximized="1"
     inkscape:current-layer="g16" />
  <defs
     id="defs1">
    <rect
       x="560.66638"
       y="34.144731"
       width="279.32397"
       height="128.59143"
       id="rect6" />
    <rect
       x="157.85752"
       y="62.351248"
       width="541.85369"
       height="99.322566"
       id="rect4" />
    <rect
       x="157.85751"
       y="62.35125"
       width="329.07602"
       height="135.09438"
       id="rect4-5" />
    <rect
       x="157.85751"
       y="62.35125"
       width="470.56151"
       height="119.92888"
       id="rect4-5-3" />
  </defs>
  <g
     inkscape:label="Layer 1"
     inkscape:groupmode="layer"
     id="layer1">
    <rect
       style="fill:#d0002b;fill-opacity:1;stroke:none;stroke-width:0.953294;stroke-dasharray:none"
       id="rect5"
       width="132.29167"
       height="66.145836"
       x="-2.5431316e-06"
       y="-1.2715658e-06"
       ry="0" />
    <g
       id="g16"
       transform="translate(21.813982)">
      <g
         id="g1"
         transform="matrix(1.2151112,0,0,1.2151112,-6.3416317,-7.1143523)">
        <path
           id="rect1"
           style="fill-opacity:0;stroke:#ffffff;stroke-width:0.810881"
           d="m 18.989333,16.971979 h 10.686722 c 3.377614,0 6.096777,2.719163 6.096777,6.096777 v 20.00832 c 0,3.377614 -2.719163,6.096777 -6.096777,6.096777 H 18.989333 c -3.377614,0 -6.096777,-2.719163 -6.096777,-6.096777 v -20.00832 c 0,-3.377614 2.719163,-6.096777 6.096777,-6.096777 z" />
        <path
           style="font-size:12.2918px;line-height:1.25;font-family:'AR UDJingXiHeiE1G30 EB';-inkscape-font-specification:'AR UDJingXiHeiE1G30 EB';fill:#ffffff;stroke-width:0.256079"
           d="m 26.182626,24.962252 q 0,-0.651466 -0.344171,-0.983344 -0.34417,-0.344171 -0.995635,-0.344171 h -2.667321 v 2.765655 h 2.581278 q 0.639174,0 1.032511,-0.381046 0.393338,-0.381045 0.393338,-1.057094 z m -4.007127,2.642737 V 31.30482 H 20.61444 v -8.886971 h 4.523383 q 1.216888,0 1.929812,0.651465 0.725216,0.639174 0.725216,1.819187 0,0.774383 -0.368754,1.327514 -0.356462,0.553131 -0.897301,0.786675 0.688341,0.393338 1.057095,1.36439 0.368754,0.971052 0.467088,2.93774 h -1.622517 q -0.07375,-2.065022 -0.454797,-2.876281 -0.368754,-0.82355 -1.192304,-0.82355 z"
           id="text2"
           aria-label="R" />
        <path
           style="font-size:12.3781px;line-height:1.25;font-family:'AR UDJingXiHeiE1G30 EB';-inkscape-font-specification:'AR UDJingXiHeiE1G30 EB';fill:#ffffff;stroke-width:0.225056"
           d="m 20.111735,36.092907 -1.448238,1.349213 -0.71793,-1.101651 2.327083,-2.116655 h 1.349213 v 8.949366 h -1.510128 z m 9.654909,2.327083 q 0.755064,0.309452 1.138785,0.891223 0.383722,0.569393 0.383722,1.312079 0,1.250188 -0.866467,1.980496 -0.854089,0.730308 -2.364218,0.730308 -1.55964,0 -2.401351,-0.730308 -0.841711,-0.730308 -0.841711,-1.968118 0,-0.71793 0.371343,-1.287323 0.371343,-0.581771 1.089273,-0.915979 -0.581771,-0.272318 -0.866467,-0.755064 -0.284696,-0.495124 -0.297075,-1.114029 0,-1.089273 0.767443,-1.782447 0.77982,-0.705552 2.178545,-0.705552 1.361591,0 2.116656,0.693174 0.755064,0.693174 0.755064,1.794825 0,0.594148 -0.297075,1.089272 -0.284696,0.482746 -0.866467,0.767443 z m -1.720556,-0.569393 q 0.594149,0 0.953114,-0.346587 0.358965,-0.358965 0.358965,-0.928357 0,-0.594149 -0.358965,-0.928358 -0.346587,-0.346587 -0.940736,-0.346587 -0.618905,0 -1.002626,0.346587 -0.371343,0.346587 -0.371343,0.928358 0,0.557014 0.371343,0.915979 0.371343,0.358965 0.990248,0.358965 z m 1.683422,2.772695 q 0,-0.705552 -0.495124,-1.101651 -0.482746,-0.3961 -1.188298,-0.3961 -0.71793,0 -1.188297,0.433234 -0.45799,0.420855 -0.470368,1.076895 0,0.693173 0.45799,1.076894 0.457989,0.383721 1.213053,0.3961 0.742686,0 1.200676,-0.383722 0.470368,-0.396099 0.470368,-1.10165 z"
           id="text3"
           aria-label="18" />
        <path
           style="font-weight:500;font-size:72px;line-height:1.25;font-family:'Noto Sans TC';-inkscape-font-specification:'Noto Sans TC Medium';white-space:pre;fill:#ffffff"
           d="m 166.92942,78.849406 h 20.664 v 43.560004 h -20.664 v -6.264 h 14.328 V 85.113406 h -14.328 z m 0.072,18.432 h 16.848 v 6.120004 h -16.848 z m 30.6,-19.584 h 23.256 v 6.264 h -23.256 z m 0,17.28 h 23.256 v 6.192004 h -23.256 z m -0.36,17.424004 h 23.544 v 6.192 h -23.544 z m -33.984,-33.552004 h 6.336 v 50.040004 h -6.336 z m 55.08,-1.152 h 6.768 v 55.512004 q 0,2.88 -0.792,4.464 -0.72,1.656 -2.592,2.448 -1.944,0.864 -5.04,1.08 -3.096,0.216 -7.704,0.216 -0.144,-0.936 -0.576,-2.16 -0.36,-1.224 -0.864,-2.448 -0.432,-1.152 -1.008,-2.016 2.16,0.072 4.248,0.072 2.088,0 3.6,0 1.584,0 2.232,0 1.008,-0.072 1.368,-0.432 0.36,-0.36 0.36,-1.296 z m -24.768,0 h 6.624 v 25.848004 q 0,4.608 -0.504,9.792 -0.504,5.184 -2.016,10.368 -1.512,5.184 -4.536,9.936 -2.952,4.68 -7.92,8.352 -0.504,-0.648 -1.44,-1.584 -0.864,-0.864 -1.872,-1.728 -1.008,-0.864 -1.728,-1.296 4.536,-3.456 7.2,-7.56 2.736,-4.104 4.032,-8.64 1.368,-4.536 1.728,-9 0.432,-4.464 0.432,-8.712 z m 60.12,2.52 h 45.288 v 5.472 h -45.288 z m -0.792,32.616004 h 46.44 v 5.544 h -46.44 z m 17.928,7.128 5.04,-1.728 q 1.368,2.016 2.808,4.536 1.44,2.52 2.232,4.176 l -5.256,2.088 q -0.72,-1.728 -2.16,-4.32 -1.368,-2.592 -2.664,-4.752 z m -7.632,3.456 h 5.976 v 10.008 q 0,1.152 0.504,1.512 0.576,0.36 2.592,0.36 0.432,0 1.584,0 1.152,0 2.52,0 1.368,0 2.592,0 1.224,0 1.8,0 1.08,0 1.656,-0.36 0.576,-0.432 0.792,-1.872 0.288,-1.44 0.36,-4.248 0.936,0.648 2.52,1.224 1.584,0.576 2.808,0.864 -0.288,3.888 -1.08,5.976 -0.72,2.088 -2.304,2.88 -1.512,0.792 -4.104,0.792 -0.504,0 -1.944,0 -1.368,0 -3.024,0 -1.656,0 -3.024,0 -1.368,0 -1.872,0 -3.312,0 -5.184,-0.648 -1.8,-0.648 -2.52,-2.232 -0.648,-1.512 -0.648,-4.248 z m -7.344,-0.936 5.256,2.016 q -1.008,3.528 -2.592,7.56 -1.512,3.96 -3.528,6.84 l -5.184,-2.952 q 1.296,-1.728 2.448,-4.032 1.224,-2.304 2.088,-4.752 0.936,-2.448 1.512,-4.68 z m 31.248,1.584 5.04,-2.16 q 1.512,2.088 3.024,4.608 1.512,2.448 2.664,4.896 1.224,2.376 1.872,4.248 l -5.472,2.448 q -0.504,-1.872 -1.656,-4.32 -1.08,-2.448 -2.52,-4.968 -1.44,-2.592 -2.952,-4.752 z m -2.808,-28.872004 v 8.568004 h 6.552 v -8.568004 z m -11.304,0 v 8.568004 h 6.48 v -8.568004 z m -11.016,0 v 8.568004 h 6.192 v -8.568004 z m -5.4,-4.968 h 39.96 v 18.576004 h -39.96 z m 16.416,-15.768 7.2,0.216 q -0.432,3.096 -0.936,6.264 -0.432,3.168 -0.936,6.048 -0.432,2.88 -0.936,5.04 l -6.336,-0.432 q 0.432,-2.304 0.792,-5.328 0.432,-3.024 0.72,-6.12 0.36,-3.168 0.432,-5.688 z m -25.056,15.912 6.12,2.232 q -2.376,4.68 -5.472,9.504004 -3.096,4.752 -6.48,9.144 -3.312,4.32 -6.624,7.632 -0.36,-0.792 -1.08,-1.944 -0.648,-1.224 -1.44,-2.448 -0.792,-1.224 -1.368,-1.944 3.024,-2.736 5.976,-6.336 3.024,-3.6 5.688,-7.632004 2.664,-4.104 4.68,-8.208 z m -1.224,-15.696 6.12,2.592 q -2.376,3.168 -5.328,6.624 -2.88,3.384 -6.048,6.624 -3.096,3.168 -6.12,5.688 -0.288,-0.72 -0.864,-1.728 -0.576,-1.08 -1.224,-2.088 -0.648,-1.008 -1.152,-1.728 2.52,-2.088 5.256,-4.824 2.808,-2.808 5.256,-5.688 2.448,-2.952 4.104,-5.472 z m -4.824,30.096004 3.24,-3.24 3.168,1.08 v 38.952 h -6.408 z"
           id="text4"
           transform="matrix(0.22505692,0,0,0.22505692,3.4694169,1.1325221)"
           aria-label="明德" />
        <path
           style="font-size:6.30159px;line-height:1.25;font-family:'AR UDJingXiHeiE1G30 EB';-inkscape-font-specification:'AR UDJingXiHeiE1G30 EB';fill:#ffffff;stroke-width:0.225056"
           d="m 40.818376,36.510077 v 3.283129 H 40.04328 v -4.55605 h 1.014556 l 1.310731,3.535192 1.260318,-3.535192 h 1.039762 v 4.55605 H 43.88725 v -3.308335 l -1.184699,3.308335 h -0.67427 z m 5.696635,-1.272921 v 4.55605 h -0.800302 v -4.55605 z m 1.846361,1.26662 v 3.28943 H 47.56107 v -4.55605 h 0.825509 l 2.237064,3.365049 v -3.365049 h 0.800302 v 4.55605 h -0.875921 z m 7.454777,2.73489 q -0.233159,0.327682 -0.586048,0.485222 -0.346587,0.151238 -0.794,0.151238 -0.983048,0 -1.562794,-0.617556 -0.579747,-0.623857 -0.579747,-1.739238 0,-1.121683 0.611255,-1.739239 0.611254,-0.617556 1.651016,-0.617556 0.838112,0 1.361144,0.384397 0.529333,0.378095 0.63646,1.083873 h -0.800302 q -0.06302,-0.371793 -0.371794,-0.604952 -0.302476,-0.239461 -0.825508,-0.239461 -0.699476,0 -1.064969,0.453715 -0.365492,0.447413 -0.365492,1.279223 0,0.888524 0.384397,1.31073 0.384397,0.415905 1.046064,0.415905 0.579746,0 0.920032,-0.340286 0.340286,-0.340285 0.340286,-0.781397 v -0.09452 h -1.291826 v -0.623857 h 2.06062 v 2.388303 h -0.768794 z m 5.595809,-1.777049 q 0,1.134286 -0.535635,1.732938 -0.529333,0.598651 -1.480874,0.598651 h -1.86527 v -4.55605 h 1.86527 q 0.951541,0 1.480874,0.560842 0.535635,0.560841 0.535635,1.663619 z m -0.83181,0 q 0,-0.825508 -0.340286,-1.209905 -0.333984,-0.390699 -0.976746,-0.390699 h -0.932635 v 3.308335 h 0.938937 q 0.617555,0 0.964143,-0.409603 0.346587,-0.409604 0.346587,-1.298128 z m 5.079076,2.331589 h -3.371351 v -4.55605 h 3.352446 v 0.623857 h -2.552144 v 1.285525 h 2.382001 v 0.623857 h -2.382001 v 1.398953 h 2.571049 z"
           id="text5"
           aria-label="MINGDE" />
        <path
           d="m 40.202879,42.329242 h 1.808556 v 3.812462 h -1.808556 v -0.548239 h 1.254016 V 42.87748 h -1.254016 z m 0.0063,1.613207 h 1.474572 v 0.535635 H 40.20918 Z m 2.678176,-1.714033 h 2.035414 v 0.548239 h -2.035414 z m 0,1.512382 h 2.035414 v 0.541937 h -2.035414 z m -0.03151,1.524985 h 2.06062 v 0.541936 h -2.06062 z m -2.97435,-2.936541 h 0.554539 v 4.379605 h -0.554539 z m 4.820716,-0.100826 h 0.592349 v 4.858526 q 0,0.252064 -0.06932,0.390699 -0.06302,0.144936 -0.226857,0.214254 -0.170143,0.07562 -0.441112,0.09452 -0.270968,0.0189 -0.67427,0.0189 -0.0126,-0.08192 -0.05041,-0.189047 -0.03151,-0.107127 -0.07562,-0.214254 -0.03781,-0.100826 -0.08822,-0.176445 0.189048,0.0063 0.371794,0.0063 0.182746,0 0.315079,0 0.138635,0 0.19535,0 0.08822,-0.0063 0.11973,-0.03781 0.03151,-0.03151 0.03151,-0.113428 z m -2.167747,0 h 0.579746 v 2.262271 q 0,0.403302 -0.04411,0.857016 -0.04411,0.453715 -0.176444,0.907429 -0.132334,0.453715 -0.397001,0.86962 -0.258365,0.409603 -0.693174,0.730984 -0.04411,-0.05671 -0.126032,-0.138635 -0.07562,-0.07562 -0.163842,-0.151238 -0.08822,-0.07562 -0.151238,-0.113429 0.397,-0.302476 0.630159,-0.661667 0.239461,-0.35919 0.352889,-0.75619 0.11973,-0.397001 0.151238,-0.787699 0.03781,-0.390699 0.03781,-0.762493 z m 5.242923,0.384397 h 3.894382 v 0.535635 H 47.77739 Z m 1.62581,-0.649064 h 0.586048 v 2.003906 H 49.4032 Z m -0.71208,4.12124 h 0.548239 v 0.98935 q 0,0.107127 0.03781,0.138635 0.04411,0.03151 0.19535,0.03151 0.03151,0 0.11973,0 0.08822,0 0.189047,0 0.107127,0 0.19535,0 0.09452,0 0.144936,0 0.08822,0 0.132334,-0.03781 0.04411,-0.03781 0.06302,-0.163841 0.0189,-0.132333 0.02521,-0.390699 0.08822,0.06302 0.233159,0.119731 0.144936,0.05671 0.252063,0.08192 -0.02521,0.352889 -0.09452,0.541937 -0.06932,0.195349 -0.20165,0.264667 -0.132334,0.07562 -0.352889,0.07562 -0.04411,0 -0.15754,0 -0.107127,0 -0.233159,0 -0.126032,0 -0.233159,0 -0.107127,0 -0.151238,0 -0.283572,0 -0.441111,-0.06302 -0.151238,-0.05671 -0.214254,-0.201651 -0.05672,-0.138635 -0.05672,-0.397 z m -0.693175,-0.0063 0.491524,0.151238 q -0.06932,0.378095 -0.207952,0.762492 -0.138635,0.378096 -0.403302,0.636461 L 47.430799,47.3138 q 0.226858,-0.214254 0.365493,-0.548238 0.138635,-0.340286 0.20165,-0.686873 z m 0.957842,-0.289873 0.340286,-0.346588 q 0.189048,0.08822 0.390699,0.201651 0.207952,0.113429 0.384397,0.23946 0.182746,0.119731 0.296174,0.233159 l -0.365492,0.384397 Q 49.894724,46.387466 49.71828,46.261434 49.548137,46.1291 49.346486,46.00937 49.144835,45.883338 48.955787,45.788815 Z m 1.588001,0.422206 0.472619,-0.201651 q 0.182746,0.201651 0.352889,0.441112 0.170143,0.23946 0.302476,0.47892 0.132334,0.239461 0.189048,0.441112 l -0.510429,0.226857 q -0.05041,-0.195349 -0.176444,-0.43481 -0.11973,-0.245762 -0.283572,-0.491524 -0.163841,-0.252063 -0.346587,-0.460016 z m -0.100826,-2.041715 v 0.787699 h 0.579747 v -0.787699 z m -1.001952,0 v 0.787699 h 0.567143 v -0.787699 z m -0.995652,0 v 0.787699 h 0.548239 v -0.787699 z m -0.485222,-0.485222 h 3.579303 v 1.751842 h -3.579303 z m -0.636461,-0.403302 0.529334,0.195349 q -0.214254,0.378095 -0.491524,0.756191 -0.27727,0.371794 -0.59235,0.705778 -0.308778,0.327683 -0.617555,0.586048 -0.02521,-0.06932 -0.08822,-0.170143 -0.05671,-0.100826 -0.11973,-0.207953 -0.06302,-0.107127 -0.113428,-0.163841 0.277269,-0.214254 0.554539,-0.485222 0.27727,-0.270969 0.516731,-0.579747 0.245762,-0.315079 0.422206,-0.63646 z m -0.132333,-1.317033 0.529333,0.207953 q -0.189047,0.270968 -0.441111,0.548238 -0.252063,0.27727 -0.523032,0.529334 -0.270968,0.252063 -0.541937,0.447413 -0.03781,-0.06302 -0.09452,-0.138635 -0.05671,-0.08192 -0.119731,-0.163842 -0.05671,-0.08192 -0.107127,-0.132333 0.239461,-0.170143 0.485223,-0.384397 0.245762,-0.220556 0.460016,-0.460016 0.214254,-0.23946 0.352889,-0.453715 z m -0.422207,2.571049 0.497826,-0.497825 0.06302,0.03151 v 3.743144 h -0.560842 z"
           id="text5-9"
           style="font-weight:500;font-size:6.30159px;line-height:1.25;font-family:'Noto Sans JP';-inkscape-font-specification:'Noto Sans JP Medium';fill:#ffffff;stroke-width:0.225056"
           aria-label="明徳" />
        <path
           style="font-weight:500;font-size:6.30159px;line-height:1.25;font-family:'Noto Sans KR';-inkscape-font-specification:'Noto Sans KR Medium';fill:#ffffff;stroke-width:0.225056"
           d="m 58.333828,42.529996 h 2.728588 v 2.545842 h -2.728588 z m 2.085826,0.529333 H 58.97659 v 1.487176 h 1.443064 z m 1.701429,-0.938937 h 0.661667 v 3.415462 h -0.661667 z m -1.254016,3.516288 q 0.598651,0 1.033461,0.132333 0.441111,0.132333 0.67427,0.384397 0.23946,0.245762 0.23946,0.598651 0,0.352889 -0.23946,0.604953 -0.233159,0.252063 -0.67427,0.378095 -0.43481,0.132333 -1.033461,0.132333 -0.598651,0 -1.039762,-0.132333 -0.43481,-0.126032 -0.674271,-0.378095 -0.233158,-0.252064 -0.233158,-0.604953 0,-0.352889 0.233158,-0.598651 0.239461,-0.245762 0.674271,-0.378095 0.441111,-0.138635 1.039762,-0.138635 z m 0,0.51673 q -0.409603,0 -0.699477,0.06932 -0.289873,0.06932 -0.441111,0.20165 -0.151238,0.132334 -0.151238,0.327683 0,0.195349 0.151238,0.333984 0.151238,0.132334 0.441111,0.201651 0.289874,0.06932 0.699477,0.06932 0.409603,0 0.693175,-0.06932 0.289873,-0.06932 0.441111,-0.201651 0.15754,-0.138635 0.15754,-0.333984 0,-0.195349 -0.15754,-0.327683 -0.151238,-0.132333 -0.441111,-0.20165 -0.283572,-0.06932 -0.693175,-0.06932 z m 3.251621,-0.220556 h 0.447413 q 0.529333,0 0.945238,-0.0126 0.422207,-0.01891 0.794001,-0.05671 0.378095,-0.03781 0.768794,-0.107127 l 0.06932,0.541937 q -0.403302,0.07562 -0.794,0.113428 -0.384397,0.03781 -0.812905,0.05672 -0.428508,0.0126 -0.970445,0.0126 h -0.447413 z m 0,-3.283128 h 2.608858 v 0.529334 h -1.953493 v 2.955445 h -0.655365 z m 3.837668,-0.535635 h 0.661667 v 5.772256 h -0.661667 z m -1.537588,2.048017 h 1.82116 v 0.541936 h -1.82116 z"
           id="text5-9-8"
           aria-label="밍더" />
      </g>
    </g>
    <text
       xml:space="preserve"
       transform="matrix(0.31615295,0,0,0.31615295,-10.474341,-6.4462013)"
       id="text6"
       style="font-size:55px;line-height:1.25;font-family:'Microsoft JhengHei';-inkscape-font-specification:'Microsoft JhengHei';white-space:pre;shape-inside:url(#rect6);display:inline" />
  </g>
</svg>
