<?xml version="1.0" encoding="UTF-8" standalone="no"?>
<!-- Created with Inkscape (http://www.inkscape.org/) -->

<svg
   width="500"
   height="250"
   viewBox="0 0 132.29166 66.145833"
   version="1.1"
   id="svg1"
   inkscape:version="1.3.2 (091e20e, 2023-11-25, custom)"
   sodipodi:docname="r19.svg"
   xmlns:inkscape="http://www.inkscape.org/namespaces/inkscape"
   xmlns:sodipodi="http://sodipodi.sourceforge.net/DTD/sodipodi-0.dtd"
   xmlns="http://www.w3.org/2000/svg"
   xmlns:svg="http://www.w3.org/2000/svg">
  <sodipodi:namedview
     id="namedview1"
     pagecolor="#9e652e"
     bordercolor="#ffffff"
     borderopacity="1"
     inkscape:showpageshadow="0"
     inkscape:pageopacity="0"
     inkscape:pagecheckerboard="false"
     inkscape:deskcolor="#d1d1d1"
     inkscape:document-units="mm"
     inkscape:zoom="2.0208096"
     inkscape:cx="275.6321"
     inkscape:cy="128.6613"
     inkscape:window-width="1920"
     inkscape:window-height="1009"
     inkscape:window-x="1912"
     inkscape:window-y="-8"
     inkscape:window-maximized="1"
     inkscape:current-layer="layer1" />
  <defs
     id="defs1">
    <rect
       x="560.66638"
       y="34.144731"
       width="279.32397"
       height="128.59143"
       id="rect6" />
    <rect
       x="157.85752"
       y="62.351248"
       width="541.85369"
       height="99.322566"
       id="rect4" />
    <rect
       x="157.85751"
       y="62.35125"
       width="329.07602"
       height="135.09438"
       id="rect4-5" />
    <rect
       x="157.85751"
       y="62.35125"
       width="470.56151"
       height="119.92888"
       id="rect4-5-3" />
    <rect
       x="157.85751"
       y="62.35125"
       width="329.07602"
       height="135.09438"
       id="rect4-5-32" />
  </defs>
  <g
     inkscape:label="Layer 1"
     inkscape:groupmode="layer"
     id="layer1">
    <path
       id="rect5"
       style="fill:#d0002b;stroke-width:0.953294"
       d="M -2.5431316e-6,-1.2715658e-6 H 132.29167 V 66.145835 H -2.5431316e-6 Z" />
    <g
       id="g16"
       transform="matrix(1.1095583,0,0,1.1095583,16.851422,-13.031186)">
      <path
         id="rect1"
         style="fill-opacity:0;stroke:#ffffff;stroke-width:0.810881"
         d="m 18.989333,16.971979 h 10.686722 c 3.377614,0 6.096777,2.719163 6.096777,6.096777 v 20.00832 c 0,3.377614 -2.719163,6.096777 -6.096777,6.096777 H 18.989333 c -3.377614,0 -6.096777,-2.719163 -6.096777,-6.096777 v -20.00832 c 0,-3.377614 2.719163,-6.096777 6.096777,-6.096777 z" />
      <path
         style="font-size:12.2918px;line-height:1.25;font-family:'AR UDJingXiHeiE1G30 EB';-inkscape-font-specification:'AR UDJingXiHeiE1G30 EB';fill:#ffffff;stroke-width:0.256079"
         d="m 26.182626,24.962252 q 0,-0.651466 -0.344171,-0.983344 -0.34417,-0.344171 -0.995635,-0.344171 h -2.667321 v 2.765655 h 2.581278 q 0.639174,0 1.032511,-0.381046 0.393338,-0.381045 0.393338,-1.057094 z m -4.007127,2.642737 V 31.30482 H 20.61444 v -8.886971 h 4.523383 q 1.216888,0 1.929812,0.651465 0.725216,0.639174 0.725216,1.819187 0,0.774383 -0.368754,1.327514 -0.356462,0.553131 -0.897301,0.786675 0.688341,0.393338 1.057095,1.36439 0.368754,0.971052 0.467088,2.93774 h -1.622517 q -0.07375,-2.065022 -0.454797,-2.876281 -0.368754,-0.82355 -1.192304,-0.82355 z"
         id="text2"
         aria-label="R" />
      <path
         style="font-size:12.3781px;line-height:1.25;font-family:'AR UDJingXiHeiE1G30 EB';-inkscape-font-specification:'AR UDJingXiHeiE1G30 EB';fill:#ffffff;stroke-width:0.225056"
         d="m 20.111735,36.092907 -1.448238,1.349213 -0.71793,-1.101651 2.327083,-2.116655 h 1.349213 v 8.949366 h -1.510128 z m 7.847707,-0.792199 q -0.668418,0 -1.076895,0.470368 -0.396099,0.45799 -0.396099,1.312079 0,0.816954 0.371343,1.287322 0.383721,0.470368 1.114029,0.482746 0.693173,0 1.076894,-0.445611 0.3961,-0.45799 0.3961,-1.312079 0,-0.891223 -0.383721,-1.336835 -0.383722,-0.45799 -1.101651,-0.45799 z m 0.02476,6.807956 q 0.866467,0 1.287322,-0.71793 0.420856,-0.71793 0.420856,-2.327083 -0.309453,0.495124 -0.841711,0.755064 -0.51988,0.25994 -1.163542,0.25994 -1.262566,0 -2.01763,-0.816955 -0.755064,-0.829332 -0.755064,-2.129033 0,-1.336835 0.816955,-2.190924 0.829332,-0.866467 2.215679,-0.866467 1.646288,0 2.438486,1.076895 0.792199,1.076895 0.792199,3.19355 0,2.599401 -0.779821,3.800077 -0.77982,1.188298 -2.426107,1.188298 -1.43586,0 -2.15379,-0.705552 -0.71793,-0.71793 -0.730308,-1.708178 h 1.522507 q 0.01238,0.51988 0.358965,0.854089 0.346586,0.334209 1.015004,0.334209 z"
         id="text3"
         aria-label="19" />
      <path
         style="font-weight:500;font-size:72px;line-height:1.25;font-family:'Noto Sans TC';-inkscape-font-specification:'Noto Sans TC Medium';white-space:pre;fill:#ffffff"
         d="m 162.39342,79.857406 h 63.072 v 6.696 h -63.072 z m 15.552,50.328004 h 40.464 v 6.552 h -40.464 z m -2.88,-26.064 h 46.152 v 37.224 h -7.2 v -30.672 h -32.04 v 30.816 h -6.912 z m 8.28,-20.736004 7.272,1.8 q -2.592,7.416 -6.408,14.832004 -3.744,7.344 -8.784,13.752 -4.968,6.408 -11.376,11.16 -0.504,-0.792 -1.368,-1.728 -0.864,-1.008 -1.8,-1.944 -0.864,-1.008 -1.584,-1.584 5.904,-4.248 10.584,-10.224 4.68,-6.048 8.064,-12.744004 3.456,-6.768 5.4,-13.32 z m 89.712,-8.64 7.632,1.008 q -1.296,2.448 -2.52,4.752 -1.152,2.232 -2.232,3.888 l -6.408,-1.08 q 0.936,-1.872 1.944,-4.248 1.08,-2.448 1.584,-4.32 z m -6.84,24.48 v 6.624004 h 23.112 v -6.624004 z m 0,-11.664 v 6.48 h 23.112 v -6.48 z m -6.264,-5.472 h 35.928 v 29.232004 h -35.928 z m -2.52,39.024004 h 41.76 v 6.048 h -41.76 z m 23.616,-8.136 h 6.192 v 28.44 h -6.192 z m -6.12,-28.872004 h 6.048 v 11.736 q 0,1.656 -0.576,4.896004 -0.576,3.168 -2.16,7.128 -1.584,3.888 -4.464,7.848 -2.808,3.888 -7.272,7.056 -0.792,-0.936 -2.232,-2.088 -1.368,-1.152 -2.448,-1.872 4.176,-2.736 6.768,-5.904 2.592,-3.24 3.96,-6.408 1.368,-3.24 1.872,-5.976 0.504,-2.808004 0.504,-4.752004 z m -34.416,10.08 h 14.976 v 5.832004 h -14.976 z m 9.288,-19.44 h 5.688 v 22.896 h -5.688 z m -9.144,34.704004 h 14.76 v 32.04 h -6.336 v -26.208 h -8.424 z m -3.672,-33.120004 h 6.192 v 27.288004 q 0,4.248 -0.216,9.144 -0.216,4.896 -0.792,9.936 -0.504,5.04 -1.512,9.864 -1.008,4.824 -2.592,8.928 -0.72,-0.36 -1.8,-0.792 -1.08,-0.36 -2.232,-0.72 -1.152,-0.36 -2.016,-0.576 1.584,-3.888 2.592,-8.496 1.008,-4.608 1.512,-9.36 0.504,-4.824 0.648,-9.432 0.216,-4.608 0.216,-8.496 z"
         id="text4"
         transform="matrix(0.22505692,0,0,0.22505692,3.4694169,1.1325221)"
         aria-label="石牌" />
      <path
         style="font-size:6.30159px;line-height:1.25;font-family:'AR UDJingXiHeiE1G30 EB';-inkscape-font-specification:'AR UDJingXiHeiE1G30 EB';fill:#ffffff;stroke-width:0.225056"
         d="m 41.555662,37.732586 q -0.83181,-0.151239 -1.235112,-0.466318 -0.403301,-0.31508 -0.403301,-0.882223 0,-0.529333 0.428508,-0.875921 0.434809,-0.346587 1.335937,-0.346587 0.825508,0 1.279223,0.352889 0.453714,0.352889 0.497825,1.020858 H 42.65844 q -0.0063,-0.321382 -0.252063,-0.535636 -0.245762,-0.214254 -0.74989,-0.214254 -0.472619,0 -0.699476,0.15754 -0.226857,0.15754 -0.220556,0.441111 0,0.308778 0.302477,0.460016 0.308778,0.151239 1.001952,0.289874 0.86962,0.176444 1.235112,0.47892 0.371794,0.302477 0.371794,0.907429 0,0.579747 -0.491524,0.970445 -0.491524,0.384397 -1.398953,0.384397 -0.926334,0 -1.443064,-0.390698 -0.516731,-0.390699 -0.516731,-1.127985 h 0.800302 q 0,0.409603 0.308778,0.655365 0.308778,0.239461 0.857016,0.239461 0.504128,0 0.787699,-0.195349 0.283572,-0.19535 0.283572,-0.510429 0,-0.365492 -0.283572,-0.523032 -0.283571,-0.15754 -0.995651,-0.289873 z m 3.642319,0.03781 v 2.022811 h -0.800302 v -4.55605 h 0.800302 v 1.909382 h 2.186652 v -1.909382 h 0.800302 v 4.55605 h -0.800302 v -2.022811 z m 4.833321,-2.533239 v 4.55605 H 49.231 v -4.55605 z m 1.846361,2.747493 v 1.808557 h -0.800302 v -4.55605 h 2.14254 q 0.667969,0 1.046064,0.365492 0.378096,0.365492 0.378096,0.970445 0,0.680572 -0.390699,1.046064 -0.384397,0.365492 -1.039762,0.365492 z m 1.953493,-1.398953 q 0,-0.352889 -0.201651,-0.535635 -0.201651,-0.189048 -0.59235,-0.189048 h -1.159492 v 1.499779 h 1.159492 q 0.390699,0 0.59235,-0.189048 0.201651,-0.195349 0.201651,-0.586048 z m 4.007809,1.367445 -0.718381,-1.947191 -0.730985,1.947191 z m -1.682524,0.623858 -0.453715,1.216207 h -0.812905 l 1.833763,-4.55605 h 0.819206 l 1.82116,4.55605 h -0.83181 l -0.460016,-1.216207 z m 4.530838,-3.339843 v 4.55605 h -0.800302 v -4.55605 z"
         id="text5"
         aria-label="SHIPAI" />
      <path
         d="m 39.805878,42.417464 h 5.520193 v 0.586048 h -5.520193 z m 1.361144,4.404811 h 3.541493 V 47.39572 H 41.167022 Z M 40.914958,44.5411 h 4.039319 v 3.257922 h -0.630159 v -2.684478 h -2.804207 v 2.697081 h -0.604953 z m 0.724683,-1.814858 0.636461,0.15754 q -0.226857,0.649063 -0.560842,1.298127 -0.327682,0.642762 -0.768794,1.203604 -0.434809,0.560841 -0.995651,0.976746 -0.04411,-0.06932 -0.11973,-0.151238 -0.07562,-0.08822 -0.15754,-0.170143 -0.07562,-0.08822 -0.138635,-0.138635 0.516731,-0.371794 0.926334,-0.894826 0.409603,-0.529333 0.705778,-1.115381 0.302476,-0.592349 0.472619,-1.165794 z m 6.585162,3.295731 h 3.535192 v 0.504128 h -3.535192 z m 2.054318,-0.850714 h 0.560842 v 2.640366 h -0.560842 z m -0.592349,-3.226414 0.661667,0.126032 q -0.119731,0.220555 -0.258366,0.447412 -0.132333,0.220556 -0.233159,0.378096 l -0.485222,-0.126032 q 0.08822,-0.182746 0.176445,-0.409603 0.08822,-0.233159 0.138635,-0.415905 z m 0.08192,0.901127 h 0.504127 v 1.039762 q 0,0.27727 -0.05671,0.573445 -0.05041,0.296175 -0.201651,0.586048 -0.151238,0.283572 -0.441111,0.541937 -0.283572,0.252063 -0.756191,0.447413 -0.04411,-0.05041 -0.113428,-0.113429 -0.06932,-0.06302 -0.144937,-0.11973 -0.06932,-0.06302 -0.132333,-0.100826 0.441111,-0.176444 0.705778,-0.397 0.270968,-0.226857 0.403301,-0.466317 0.138635,-0.245763 0.182747,-0.491525 0.05041,-0.245762 0.05041,-0.472619 z m -3.213811,0.819207 h 1.78335 v 0.510429 h -1.78335 z m 0.787699,-1.695128 h 0.523032 v 2.003906 H 47.34258 Z m -0.749889,3.043668 h 1.443064 v 2.797906 h -0.529334 v -2.293779 h -0.91373 z m -0.283572,-2.905033 h 0.516731 v 2.388303 q 0,0.371793 -0.01891,0.806603 -0.0126,0.428508 -0.06302,0.875921 -0.04411,0.441111 -0.126032,0.863318 -0.08192,0.422207 -0.214254,0.781397 -0.06302,-0.03151 -0.151238,-0.06932 -0.08822,-0.03151 -0.189048,-0.06302 -0.09452,-0.03151 -0.163841,-0.05041 0.132333,-0.346587 0.214254,-0.749889 0.08192,-0.403302 0.11973,-0.825508 0.04411,-0.422207 0.05672,-0.825509 0.0189,-0.403301 0.0189,-0.743587 z m 2.690779,1.896779 v 0.567143 h 2.041715 v -0.567143 z m 0,-0.98935 v 0.560842 h 2.041715 v -0.560842 z m -0.529333,-0.453714 h 3.119287 v 2.470223 h -3.119287 z"
         id="text5-9"
         style="font-weight:500;font-size:6.30159px;line-height:1.25;font-family:'Noto Sans JP';-inkscape-font-specification:'Noto Sans JP Medium';fill:#ffffff;stroke-width:0.225056"
         aria-label="石牌" />
      <path
         style="font-weight:500;font-size:6.30159px;line-height:1.25;font-family:'Noto Sans KR';-inkscape-font-specification:'Noto Sans KR Medium';fill:#ffffff;stroke-width:0.225056"
         d="m 60.268416,42.485885 h 0.573445 v 0.428508 q 0,0.378095 -0.119731,0.724683 -0.113428,0.340285 -0.327682,0.642762 -0.214254,0.296175 -0.510429,0.535635 -0.289873,0.23946 -0.642762,0.409603 -0.352889,0.163842 -0.737286,0.245762 L 58.214098,44.9246 q 0.340285,-0.06302 0.649063,-0.195349 0.308778,-0.138635 0.567143,-0.333985 0.258366,-0.20165 0.441112,-0.434809 0.189047,-0.239461 0.289873,-0.504127 0.107127,-0.270969 0.107127,-0.541937 z m 0.126032,0 h 0.573444 v 0.428508 q 0,0.27727 0.100826,0.541937 0.107127,0.264666 0.296174,0.504127 0.189048,0.23946 0.447413,0.434809 0.258366,0.19535 0.567143,0.333985 0.308778,0.132333 0.649064,0.195349 l -0.289873,0.548238 q -0.384397,-0.08192 -0.737286,-0.245762 -0.352889,-0.170143 -0.649064,-0.409603 -0.289873,-0.23946 -0.504127,-0.535635 -0.214254,-0.302477 -0.333984,-0.642762 -0.11973,-0.346588 -0.11973,-0.724683 z m -2.356795,4.102335 h 5.217716 v 0.548238 h -5.217716 z m 5.873082,-3.888081 h 3.188605 v 0.529333 h -3.188605 z m -0.07562,3.799858 -0.07562,-0.548238 q 0.510429,0 1.115382,-0.0063 0.604952,-0.0126 1.235111,-0.04411 0.630159,-0.03151 1.216207,-0.107127 l 0.03151,0.485223 q -0.586048,0.100825 -1.216207,0.151238 -0.623857,0.04411 -1.216207,0.05671 -0.592349,0.0126 -1.090175,0.0126 z m 0.636461,-3.390255 h 0.642762 v 2.993255 h -0.642762 z m 1.424159,0 h 0.642762 v 2.993255 h -0.642762 z m 1.739239,-0.98935 h 0.661667 v 5.759654 h -0.661667 z m 0.516731,2.243366 h 1.039762 v 0.548239 h -1.039762 z m 5.558003,-2.249667 h 0.661666 v 5.772256 h -0.661666 z m -2.400906,0.422206 q 0.428508,0 0.762492,0.252064 0.340286,0.252064 0.529334,0.705778 0.189047,0.453715 0.189047,1.07127 0,0.623858 -0.189047,1.083874 -0.189048,0.453714 -0.529334,0.705778 -0.333984,0.245762 -0.762492,0.245762 -0.428508,0 -0.768794,-0.245762 -0.333984,-0.252064 -0.529334,-0.705778 -0.189047,-0.460016 -0.189047,-1.083874 0,-0.617555 0.189047,-1.07127 0.19535,-0.453714 0.529334,-0.705778 0.340286,-0.252064 0.768794,-0.252064 z m 0,0.598651 q -0.252064,0 -0.447413,0.170143 -0.189048,0.170143 -0.296175,0.491524 -0.107127,0.321381 -0.107127,0.768794 0,0.453715 0.107127,0.775096 0.107127,0.321381 0.296175,0.497826 0.195349,0.170142 0.447413,0.170142 0.252063,0 0.441111,-0.170142 0.189048,-0.176445 0.296175,-0.497826 0.107127,-0.321381 0.107127,-0.775096 0,-0.447413 -0.107127,-0.768794 -0.107127,-0.321381 -0.296175,-0.491524 -0.189048,-0.170143 -0.441111,-0.170143 z"
         id="text5-9-8"
         aria-label="스파이" />
    </g>
    <path
       style="font-weight:500;font-size:72px;line-height:1.25;font-family:'Noto Sans TC';-inkscape-font-specification:'Noto Sans TC Medium';white-space:pre;fill:#f9f9f9"
       d="m 165.77742,114.27341 h 56.808 v 5.976 h -56.808 z m 24.624,-6.624 h 6.768 v 33.696 h -6.768 z m -26.856,-7.56 h 60.912 v 12.096 h -6.84 v -6.192 h -47.52 v 6.192 h -6.552 z m 24.264,-21.672004 5.616,2.016 q -1.656,2.16 -3.384,4.32 -1.656,2.088 -3.024,3.6 l -4.104,-1.8 q 1.224,-1.728 2.592,-4.032 1.44,-2.376 2.304,-4.104 z m -12.384,12.312 4.248,-3.744 q 1.8,1.08 3.96,2.448 2.16,1.368 4.104,2.736 1.944,1.296 3.24,2.304 l -4.464,4.176 q -1.224,-1.008 -3.168,-2.376 -1.872,-1.44 -3.96,-2.88 -2.088,-1.44 -3.96,-2.664 z m 0.576,-16.056 h 6.12 q -0.216,5.4 -1.008,9.576 -0.792,4.176 -2.664,7.344 -1.8,3.096 -5.256,5.328 -3.384,2.232 -8.784,3.672004 -0.432,-1.080004 -1.44,-2.520004 -1.008,-1.512 -1.944,-2.376 4.824,-1.224 7.704,-2.952 2.88,-1.728 4.392,-4.176 1.512,-2.448 2.088,-5.832 0.648,-3.456 0.792,-8.064 z m 43.56,3.528 5.904,2.088 q -1.8,2.232 -3.744,4.464 -1.872,2.16 -3.384,3.672 l -4.248,-1.8 q 1.44,-1.8 2.952,-4.176 1.584,-2.448 2.52,-4.248 z m -13.752,12.096 4.176,-3.96 q 2.448,1.512 5.256,3.312 2.88,1.728 5.544,3.456 2.664,1.728 4.392,3.096 l -4.32,4.536004 q -1.656,-1.368004 -4.248,-3.168004 -2.592,-1.872 -5.472,-3.744 -2.808,-1.944 -5.328,-3.528 z m 0.576,-15.624 h 6.192 q -0.216,5.112 -1.008,9.144 -0.792,3.96 -2.592,7.056 -1.728,3.096 -4.968,5.328 -3.24,2.232 -8.424,3.816004 -0.504,-1.152004 -1.512,-2.664004 -1.008,-1.512 -2.016,-2.376 4.536,-1.152 7.272,-2.88 2.736,-1.728 4.176,-4.176 1.512,-2.448 2.088,-5.688 0.648,-3.312 0.792,-7.56 z m -24.336,48.240004 5.616,2.16 q -2.664,3.168 -6.408,5.976 -3.744,2.736 -8.064,4.896 -4.32,2.16 -8.64,3.384 -0.504,-0.864 -1.296,-1.944 -0.792,-1.008 -1.656,-2.016 -0.792,-1.008 -1.584,-1.656 4.176,-0.936 8.352,-2.592 4.176,-1.656 7.704,-3.744 3.6,-2.088 5.976,-4.464 z m 18.864,3.528 4.752,-3.888 q 3.528,1.728 7.488,3.96 4.032,2.232 7.704,4.536 3.672,2.232 6.048,4.176 l -5.112,4.464 q -2.16,-1.944 -5.76,-4.248 -3.528,-2.376 -7.488,-4.752 -3.96,-2.376 -7.632,-4.248 z m -38.88,-45.792004 4.032,-3.024 q 1.584,1.656 3.312,3.672 1.8,2.016 2.808,3.456 l -4.176,3.456 q -1.008,-1.512 -2.736,-3.672 -1.728,-2.16 -3.24,-3.888 z m 31.392,0 3.96,-3.024 q 1.512,1.512 3.096,3.456 1.656,1.872 2.592,3.168 l -4.104,3.384 q -0.936,-1.368 -2.592,-3.312 -1.584,-2.016 -2.952,-3.672 z m 56.304,23.544004 4.68,-1.368 q 0.864,2.232 1.728,4.824 0.864,2.52 1.584,4.968 0.72,2.448 1.008,4.176 l -4.968,1.656 q -0.288,-1.872 -0.936,-4.32 -0.648,-2.448 -1.44,-5.04 -0.792,-2.664 -1.656,-4.896 z m -6.624,18.144 4.68,-1.08 q 0.648,3.672 1.152,7.92 0.576,4.176 0.792,7.344 l -4.824,1.152 q -0.072,-2.088 -0.36,-4.752 -0.288,-2.664 -0.648,-5.4 -0.36,-2.808 -0.792,-5.184 z m -6.84,-0.792 4.968,0.864 q -0.648,4.608 -1.728,9.36 -1.008,4.752 -2.232,8.064 -0.792,-0.432 -2.304,-0.936 -1.512,-0.504 -2.448,-0.792 1.44,-3.312 2.304,-7.704 0.936,-4.464 1.44,-8.856 z m -2.16,-19.224 q -0.144,-0.648 -0.504,-1.728 -0.36,-1.080004 -0.792,-2.160004 -0.36,-1.152 -0.72,-1.944 0.936,-0.288 1.872,-1.296 0.936,-1.008 1.944,-2.664 0.72,-1.08 2.232,-3.888 1.584,-2.808 3.24,-6.552 1.728,-3.744 2.952,-7.632 l 5.976,2.52 q -2.448,5.904 -5.76,11.808 -3.24,5.832 -6.552,10.224 v 0.072 q 0,0 -0.576,0.36 -0.576,0.288 -1.368,0.792004 -0.792,0.504 -1.368,1.08 -0.576,0.504 -0.576,1.008 z m 0,0 -0.144,-4.536004 2.88,-1.8 12.312,-1.008 q -0.216,1.224 -0.432,2.664 -0.144,1.44 -0.144,2.376004 -5.544,0.576 -8.496,1.008 -2.88,0.432 -4.104,0.72 -1.224,0.288 -1.872,0.576 z m 0.504,16.56 q -0.144,-0.648 -0.504,-1.656 -0.36,-1.08 -0.72,-2.16 -0.36,-1.152 -0.792,-1.944 1.224,-0.216 2.448,-1.512 1.296,-1.296 2.88,-3.312 0.864,-1.008 2.52,-3.312 1.656,-2.304 3.672,-5.472004 2.088,-3.24 4.104,-6.84 2.016,-3.672 3.672,-7.344 l 5.544,2.88 q -2.664,4.968 -5.832,9.936 -3.168,4.968004 -6.552,9.432004 -3.384,4.464 -6.768,8.064 v 0.144 q 0,0 -0.576,0.36 -0.576,0.288 -1.296,0.792 -0.72,0.432 -1.296,1.008 -0.504,0.504 -0.504,0.936 z m 0,0 -0.288,-4.752 2.736,-1.944 18,-3.096 q -0.144,1.152 -0.144,2.664 0.072,1.44 0.144,2.304 -6.192,1.224 -10.008,2.016 -3.744,0.792 -5.832,1.296 -2.088,0.504 -3.096,0.864 -0.936,0.288 -1.512,0.648 z m 15.264,2.016 4.464,-1.224 q 0.936,2.88 1.8,6.264 0.864,3.312 1.224,5.76 l -4.68,1.368 q -0.288,-2.448 -1.152,-5.832 -0.792,-3.456 -1.656,-6.336 z m 38.736,1.224 4.68,-1.872 q 1.152,2.304 2.304,4.968 1.224,2.592 2.232,5.112 1.08,2.52 1.728,4.536 l -4.968,2.232 q -0.576,-2.016 -1.584,-4.608 -1.008,-2.592 -2.16,-5.328 -1.152,-2.736 -2.232,-5.04 z m -21.96,-1.368 h 5.688 v 12.24 q 0,1.296 0.504,1.656 0.576,0.36 2.376,0.36 0.432,0 1.512,0 1.08,0 2.376,0 1.368,0 2.52,0 1.224,0 1.8,0 1.08,0 1.584,-0.432 0.576,-0.504 0.792,-2.016 0.288,-1.584 0.36,-4.68 0.864,0.648 2.376,1.224 1.512,0.576 2.592,0.792 -0.216,4.032 -1.008,6.192 -0.72,2.16 -2.16,2.952 -1.44,0.864 -3.96,0.864 -0.504,0 -1.872,0 -1.296,0 -2.88,0 -1.584,0 -2.952,0 -1.296,0 -1.8,0 -3.168,0 -4.896,-0.648 -1.656,-0.576 -2.304,-2.088 -0.648,-1.44 -0.648,-4.104 z m -5.688,-0.072 4.824,1.656 q -0.576,2.448 -1.296,5.4 -0.72,2.88 -1.656,5.688 -0.864,2.808 -1.944,4.896 l -4.968,-2.376 q 1.152,-1.944 2.088,-4.608 1.008,-2.664 1.728,-5.4 0.792,-2.808 1.224,-5.256 z m 12.816,-46.512004 6.912,1.152 q -1.08,2.376 -2.304,4.608 -1.152,2.232 -2.088,3.816 l -5.328,-1.296 q 0.792,-1.8 1.584,-4.176 0.864,-2.376 1.224,-4.104 z m 4.824,13.464 4.32,0.792 q -1.944,3.6 -5.112,7.128 -3.168,3.528 -7.776,6.480004 -0.432,-0.72 -1.296,-1.584 -0.864,-0.936004 -1.584,-1.368004 4.176,-2.448 7.056,-5.544 2.88,-3.096 4.392,-5.904 z m -9.576,3.24 3.6,-2.304 q 3.096,2.52 6.192,5.688 3.168,3.096 5.76,6.192004 2.664,3.024 4.248,5.472 l -3.816,2.808 q -1.584,-2.592 -4.248,-5.76 -2.592,-3.240004 -5.688,-6.408004 -3.024,-3.168 -6.048,-5.688 z m 15.984,0.936 4.392,0.792 q -2.664,4.536 -6.84,9.072004 -4.176,4.464 -10.152,8.136 -0.432,-0.792 -1.296,-1.656 -0.792,-0.936 -1.44,-1.44 3.672,-2.16 6.624,-4.608 2.952,-2.520004 5.112,-5.184004 2.232,-2.736 3.6,-5.112 z m -18.072,-4.824 v 23.328004 h 22.752 V 86.985406 Z m -5.904,-5.544 h 34.848 v 34.416004 h -34.848 z m 13.824,37.008004 4.464,-2.088 q 1.224,1.728 2.52,3.816 1.296,2.016 2.448,3.96 1.152,1.872 1.872,3.312 l -4.68,2.52 q -0.648,-1.44 -1.8,-3.456 -1.08,-2.016 -2.376,-4.104 -1.224,-2.088 -2.448,-3.96 z"
       id="text4-0"
       transform="matrix(0.12720547,0,0,0.12720547,44.738564,34.892037)"
       aria-label="榮總&#10;" />
    <path
       style="font-size:3.4979px;line-height:1.25;font-family:'AR UDJingXiHeiE1G30 EB';-inkscape-font-specification:'AR UDJingXiHeiE1G30 EB';fill:#ffffff;stroke-width:0.124925"
       d="m 67.501382,54.175009 -0.89896,2.528982 h -0.514191 l -0.891965,-2.528982 h 0.475715 l 0.675094,2.081251 0.685589,-2.081251 z m 2.161704,2.528982 h -1.871377 v -2.528982 h 1.860883 v 0.346293 h -1.416649 v 0.713571 h 1.322206 v 0.346292 h -1.322206 v 0.776534 h 1.427143 z m 1.007398,-2.182689 h -0.787028 v -0.346293 h 2.01479 v 0.346293 h -0.783529 v 2.182689 h -0.444233 z m 3.434936,2.182689 h -1.871376 v -2.528982 h 1.860882 v 0.346293 h -1.416649 v 0.713571 h 1.322206 v 0.346292 h -1.322206 v 0.776534 h 1.427143 z m 2.05327,-1.804916 q 0,-0.185389 -0.09794,-0.279832 -0.09794,-0.09794 -0.28333,-0.09794 h -0.759045 v 0.787027 h 0.734559 q 0.181891,0 0.293824,-0.108435 0.111933,-0.108435 0.111933,-0.300819 z m -1.140316,0.752048 v 1.052868 h -0.444233 v -2.528982 h 1.287227 q 0.346292,0 0.549171,0.185389 0.206376,0.181891 0.206376,0.517689 0,0.220368 -0.104937,0.377774 -0.101439,0.157405 -0.255347,0.223865 0.195882,0.111933 0.300819,0.388267 0.104937,0.276334 0.132921,0.835998 h -0.461723 q -0.02099,-0.587647 -0.129423,-0.818508 -0.104937,-0.23436 -0.339296,-0.23436 z m 3.459426,0.03148 -0.39876,-1.080851 -0.405757,1.080851 z m -0.933939,0.346292 -0.251849,0.675095 h -0.451229 l 1.017889,-2.528982 h 0.454727 l 1.010893,2.528982 h -0.461723 l -0.255346,-0.675095 z m 2.514987,-1.150809 v 1.825904 h -0.444233 v -2.528982 h 0.458225 l 1.241754,1.867879 v -1.867879 h 0.444234 v 2.528982 H 81.27262 Z m 3.120124,0.682091 q -0.461723,-0.08395 -0.685588,-0.258845 -0.223866,-0.174895 -0.223866,-0.489706 0,-0.293823 0.237857,-0.486208 0.241355,-0.192384 0.741555,-0.192384 0.458225,0 0.710074,0.195882 0.251849,0.195882 0.276334,0.56666 h -0.444233 q -0.0035,-0.178393 -0.139916,-0.297322 -0.136418,-0.118928 -0.41625,-0.118928 -0.262343,0 -0.388267,0.08745 -0.125925,0.08745 -0.122427,0.244853 0,0.171397 0.167899,0.255347 0.171397,0.08395 0.556166,0.160903 0.482711,0.09794 0.685589,0.265841 0.206376,0.167899 0.206376,0.503697 0,0.321807 -0.272836,0.538677 -0.272836,0.213372 -0.776534,0.213372 -0.514191,0 -0.801019,-0.21687 -0.286828,-0.21687 -0.286828,-0.626124 h 0.444233 q 0,0.227363 0.171397,0.363782 0.171398,0.13292 0.475715,0.13292 0.279832,0 0.437237,-0.108435 0.157406,-0.108435 0.157406,-0.28333 0,-0.202878 -0.157406,-0.290326 -0.157405,-0.08745 -0.552668,-0.160903 z m 4.351385,0.835998 q -0.129422,0.181891 -0.325305,0.269338 -0.192384,0.08395 -0.440735,0.08395 -0.545672,0 -0.867479,-0.342794 -0.321807,-0.346292 -0.321807,-0.965421 0,-0.622626 0.339296,-0.96542 0.339297,-0.342794 0.91645,-0.342794 0.465221,0 0.755547,0.213372 0.293823,0.209874 0.353287,0.601638 h -0.444233 q -0.03498,-0.206376 -0.206376,-0.335798 -0.167899,-0.13292 -0.458225,-0.13292 -0.388267,0 -0.591145,0.251849 -0.202878,0.24835 -0.202878,0.710073 0,0.493204 0.213372,0.727563 0.213372,0.230862 0.580651,0.230862 0.321807,0 0.510694,-0.188887 0.188886,-0.188886 0.188886,-0.433739 v -0.05247 h -0.717069 v -0.346292 h 1.143813 v 1.325704 h -0.426744 z m 2.822803,0.307815 h -1.871377 v -2.528982 h 1.860883 v 0.346293 h -1.416649 v 0.713571 h 1.322206 v 0.346292 h -1.322206 v 0.776534 h 1.427143 z m 0.912954,-1.825904 v 1.825904 h -0.444233 v -2.528982 h 0.458225 l 1.241754,1.867879 v -1.867879 h 0.444234 v 2.528982 h -0.486209 z m 4.152006,1.825904 h -1.871376 v -2.528982 h 1.860883 v 0.346293 h -1.41665 v 0.713571 h 1.322206 v 0.346292 h -1.322206 v 0.776534 h 1.427143 z m 2.05327,-1.804916 q 0,-0.185389 -0.09794,-0.279832 -0.09794,-0.09794 -0.28333,-0.09794 h -0.759044 v 0.787027 h 0.734559 q 0.18189,0 0.293823,-0.108435 0.111933,-0.108435 0.111933,-0.300819 z m -1.140315,0.752048 v 1.052868 h -0.444234 v -2.528982 h 1.287228 q 0.346292,0 0.54917,0.185389 0.206376,0.181891 0.206376,0.517689 0,0.220368 -0.104937,0.377774 -0.101439,0.157405 -0.255347,0.223865 0.195883,0.111933 0.30082,0.388267 0.104937,0.276334 0.13292,0.835998 h -0.461723 q -0.02099,-0.587647 -0.129422,-0.818508 -0.104937,-0.23436 -0.339297,-0.23436 z m 3.459427,0.03148 -0.398761,-1.080851 -0.405756,1.080851 z m -0.93394,0.346292 -0.251849,0.675095 h -0.451229 l 1.017889,-2.528982 H 99.6261 l 1.01089,2.528982 h -0.46172 l -0.255346,-0.675095 z m 3.847688,0.675095 h -1.77693 v -2.528982 h 0.44423 v 2.18269 h 1.3327 z m 1.72796,-1.122826 v 1.122826 h -0.44423 v -2.528982 h 0.44423 v 1.059864 h 1.21377 v -1.059864 h 0.44423 v 2.528982 h -0.44423 v -1.122826 z m 4.6697,-0.129422 q 0,0.608635 -0.3393,0.954927 -0.3358,0.342794 -0.91995,0.342794 -0.59464,0 -0.93044,-0.346292 -0.33579,-0.346292 -0.33579,-0.951429 0,-0.61563 0.33929,-0.96542 0.3393,-0.353288 0.92694,-0.353288 0.59465,0 0.92695,0.34979 0.3323,0.34979 0.3323,0.968918 z m -1.25925,0.951429 q 0.38128,0 0.58765,-0.251849 0.20988,-0.251849 0.20988,-0.69958 0,-0.444233 -0.20988,-0.706576 -0.20987,-0.26584 -0.58765,-0.26584 -0.38476,0 -0.59814,0.269338 -0.20987,0.26584 -0.20987,0.703078 0,0.447731 0.21337,0.69958 0.21337,0.251849 0.59464,0.251849 z m 2.58145,-0.842994 q -0.46172,-0.08395 -0.68558,-0.258845 -0.22387,-0.174895 -0.22387,-0.489706 0,-0.293823 0.23786,-0.486208 0.24135,-0.192384 0.74155,-0.192384 0.45823,0 0.71008,0.195882 0.25184,0.195882 0.27633,0.56666 h -0.44423 q -0.004,-0.178393 -0.13992,-0.297322 -0.13642,-0.118928 -0.41625,-0.118928 -0.26234,0 -0.38827,0.08745 -0.12592,0.08745 -0.12242,0.244853 0,0.171397 0.1679,0.255347 0.17139,0.08395 0.55616,0.160903 0.48271,0.09794 0.68559,0.265841 0.20638,0.167899 0.20638,0.503697 0,0.321807 -0.27284,0.538677 -0.27284,0.213372 -0.77653,0.213372 -0.51419,0 -0.80102,-0.21687 -0.28683,-0.21687 -0.28683,-0.626124 h 0.44423 q 0,0.227363 0.1714,0.363782 0.1714,0.13292 0.47571,0.13292 0.27984,0 0.43724,-0.108435 0.15741,-0.108435 0.15741,-0.28333 0,-0.202878 -0.15741,-0.290326 -0.1574,-0.08745 -0.55267,-0.160903 z m 2.02179,0.139916 v 1.003897 h -0.44423 v -2.528982 h 1.18928 q 0.37078,0 0.58065,0.202879 0.20988,0.202878 0.20988,0.538676 0,0.377773 -0.21687,0.580652 -0.21337,0.202878 -0.57715,0.202878 z m 1.08435,-0.776534 q 0,-0.195882 -0.11193,-0.297321 -0.11194,-0.104937 -0.32881,-0.104937 h -0.64361 v 0.8325 h 0.64361 q 0.21687,0 0.32881,-0.104937 0.11193,-0.108435 0.11193,-0.325305 z m 1.32221,-0.748551 v 2.528982 h -0.44424 v -2.528982 z m 1.11932,0.346293 h -0.78703 v -0.346293 h 2.01479 v 0.346293 h -0.78353 v 2.182689 h -0.44423 z m 2.91025,1.161302 -0.39876,-1.080851 -0.40576,1.080851 z m -0.93394,0.346292 -0.25185,0.675095 h -0.45123 l 1.01789,-2.528982 h 0.45473 l 1.01089,2.528982 h -0.46172 l -0.25535,-0.675095 z m 3.84769,0.675095 h -1.77693 v -2.528982 h 0.44423 v 2.18269 h 1.3327 z"
       id="text5-8"
       aria-label="VETERANS GENERAL HOSPITAL" />
    <path
       d="m 65.394099,59.467778 h 2.714802 v 0.280508 h -2.714802 z m 1.186516,-0.438495 h 0.312751 v 1.940986 h -0.312751 z m -0.08705,0.593258 0.254714,0.103176 q -0.148314,0.241817 -0.357889,0.461064 -0.209575,0.216024 -0.457841,0.386908 -0.245041,0.170884 -0.50298,0.280508 -0.02257,-0.03869 -0.06126,-0.09028 -0.03547,-0.04836 -0.07738,-0.0935 -0.03869,-0.04836 -0.07738,-0.08061 0.254714,-0.09028 0.499756,-0.238593 0.245041,-0.148314 0.448168,-0.33532 0.203126,-0.190229 0.332095,-0.393356 z m 0.480411,-0.0064 q 0.135417,0.20635 0.338544,0.393356 0.20635,0.187005 0.451392,0.33532 0.245041,0.148314 0.496531,0.238593 -0.03547,0.02902 -0.07738,0.07738 -0.04192,0.04836 -0.08061,0.09995 -0.03547,0.05159 -0.06126,0.0935 -0.254714,-0.109624 -0.50298,-0.283732 -0.245042,-0.174109 -0.454617,-0.393356 -0.209575,-0.219248 -0.357889,-0.461065 z m -1.589546,-0.98339 h 2.734147 v 0.673864 h -0.309526 v -0.386908 h -2.131216 v 0.386908 h -0.293405 z m 2.260185,-0.635174 0.33532,0.103176 q -0.112848,0.16766 -0.238593,0.335319 -0.125745,0.164436 -0.232144,0.277284 l -0.257939,-0.09995 q 0.06771,-0.08383 0.141866,-0.190229 0.07416,-0.1064 0.138642,-0.219248 0.06771,-0.112848 0.112848,-0.206351 z m -2.089301,0.148315 0.264387,-0.122521 q 0.09995,0.116072 0.196678,0.257938 0.09673,0.141867 0.138642,0.25149 l -0.280508,0.135418 q -0.02579,-0.07093 -0.07738,-0.161211 -0.04836,-0.09028 -0.112848,-0.183782 -0.06126,-0.09673 -0.12897,-0.177332 z m 0.854421,-0.08061 0.267611,-0.08705 q 0.08061,0.125745 0.151539,0.277284 0.07416,0.151538 0.09995,0.264386 l -0.29018,0.09673 q -0.01612,-0.07093 -0.05159,-0.16766 -0.03547,-0.09673 -0.08061,-0.196678 -0.04514,-0.09995 -0.09673,-0.187005 z m 3.540205,1.012408 h 0.315974 q 0.01612,0.322423 0.09028,0.60938 0.07738,0.286956 0.190229,0.509428 0.116073,0.219248 0.248266,0.344993 0.135418,0.12252 0.267611,0.119296 0.06771,0 0.09673,-0.109624 0.03224,-0.109623 0.04514,-0.364338 0.05159,0.04836 0.125745,0.09028 0.07738,0.03869 0.141866,0.05804 -0.02257,0.25149 -0.07416,0.386908 -0.05159,0.138641 -0.135417,0.190229 -0.08383,0.05159 -0.216024,0.05159 -0.219248,0 -0.409477,-0.151539 -0.19023,-0.148315 -0.338544,-0.409477 -0.145091,-0.264387 -0.235369,-0.602931 -0.09028,-0.341769 -0.112848,-0.722228 z m -0.941475,0.451392 h 2.392378 v 0.283733 h -2.392378 z m -0.496532,1.070445 q 0.196678,-0.02257 0.461065,-0.05481 0.264387,-0.03224 0.554568,-0.07093 0.293405,-0.03869 0.583585,-0.07738 l 0.0097,0.299854 q -0.270835,0.03869 -0.548119,0.07738 -0.277284,0.04191 -0.531998,0.07738 -0.254714,0.03547 -0.464289,0.06448 z m 0.338544,-2.46976 h 0.312751 v 2.572935 h -0.312751 z m 0.154763,0 h 2.160235 v 1.009184 h -2.160235 v -0.283733 h 1.850709 v -0.441719 h -1.850709 z m 4.536492,0.393356 0.309526,0.07416 q -0.05804,0.138642 -0.125745,0.286956 -0.06448,0.148315 -0.128969,0.286957 -0.06449,0.135418 -0.122521,0.238593 l -0.22892,-0.07416 q 0.05481,-0.109624 0.109624,-0.25149 0.05804,-0.141866 0.106399,-0.290181 0.05159,-0.148315 0.08061,-0.270835 z m 0.367562,0.422374 0.232145,-0.116072 q 0.08705,0.106399 0.174108,0.232144 0.09028,0.122521 0.164436,0.245042 0.07416,0.119296 0.116072,0.212799 l -0.248265,0.138642 q -0.03547,-0.09673 -0.1064,-0.219248 -0.07093,-0.122521 -0.157987,-0.25149 -0.08705,-0.132193 -0.174109,-0.241817 z m 0.199903,1.15105 0.232144,-0.116072 q 0.09028,0.112848 0.16766,0.245041 0.07738,0.128969 0.132194,0.257939 0.05804,0.125745 0.0806,0.232144 l -0.25149,0.128969 q -0.02257,-0.103175 -0.07738,-0.232144 -0.05159,-0.132194 -0.125745,-0.267611 -0.07416,-0.135418 -0.157987,-0.248266 z m -1.141378,-0.857645 q 0.170884,-0.0064 0.390132,-0.01612 0.219248,-0.0129 0.467513,-0.02579 0.248266,-0.01612 0.50298,-0.02902 l -0.0064,0.241817 q -0.344993,0.03224 -0.689985,0.06126 -0.341769,0.02579 -0.60938,0.04514 z m 0.344993,-1.225208 0.286956,0.07093 q -0.09028,0.245042 -0.235368,0.46429 -0.141867,0.219247 -0.306302,0.370786 -0.02579,-0.02902 -0.07093,-0.06126 -0.04192,-0.03547 -0.08706,-0.06771 -0.04514,-0.03547 -0.08383,-0.05481 0.161212,-0.128969 0.290181,-0.319199 0.132194,-0.190229 0.206351,-0.403029 z m 0.835075,-0.0064 q 0.06771,0.116072 0.164436,0.238593 0.09673,0.119296 0.203127,0.225696 0.109623,0.1064 0.209575,0.177333 -0.03224,0.02579 -0.07416,0.06448 -0.03869,0.03869 -0.07738,0.08061 -0.03547,0.04191 -0.06126,0.07738 -0.103175,-0.08705 -0.216023,-0.2128 -0.112848,-0.128969 -0.219248,-0.270835 -0.103175,-0.141866 -0.177332,-0.27406 z m -0.773815,1.679824 0.19023,-0.164436 q 0.106399,0.04514 0.209575,0.112848 0.106399,0.06771 0.193454,0.141866 0.09028,0.07093 0.14509,0.138642 l -0.199902,0.187005 q -0.05481,-0.07093 -0.141867,-0.148314 -0.08705,-0.07738 -0.190229,-0.148315 -0.103175,-0.07093 -0.206351,-0.119296 z m -0.01612,0.267611 h 0.277284 v 0.657743 q 0,0.06126 0.01612,0.07738 0.01612,0.0129 0.06771,0.0129 0.0097,0 0.03869,0 0.02902,0 0.06448,0 0.03869,0 0.06771,0 0.03224,0 0.04514,0 0.03547,0 0.05159,-0.02257 0.01612,-0.02257 0.02579,-0.09028 0.0097,-0.07093 0.0129,-0.212799 0.02579,0.02257 0.07093,0.04514 0.04514,0.01935 0.09028,0.03547 0.04836,0.01612 0.08705,0.02902 -0.0129,0.190229 -0.04836,0.293405 -0.03224,0.103175 -0.0935,0.141866 -0.06126,0.04192 -0.161211,0.04192 -0.01935,0 -0.06126,0 -0.04192,0 -0.09028,0 -0.04514,0 -0.08705,0 -0.03869,0 -0.05804,0 -0.12897,0 -0.199903,-0.03224 -0.06771,-0.03224 -0.0935,-0.109624 -0.02257,-0.07416 -0.02257,-0.209575 z m -0.325647,0.08061 0.245041,0.04191 q -0.02902,0.193453 -0.0935,0.403028 -0.06126,0.206351 -0.161212,0.348217 l -0.238593,-0.106399 q 0.09028,-0.122521 0.154763,-0.312751 0.06449,-0.190229 0.0935,-0.37401 z m -0.844748,-2.066732 0.264386,0.103176 q -0.06126,0.119296 -0.132193,0.251489 -0.06771,0.12897 -0.138642,0.248266 -0.06771,0.119297 -0.128969,0.209575 l -0.203127,-0.09028 q 0.05804,-0.09673 0.122521,-0.222472 0.06448,-0.125745 0.122521,-0.257939 0.05804,-0.132193 0.0935,-0.241817 z m 0.361113,0.380459 0.248266,0.116073 q -0.112848,0.177332 -0.25149,0.380459 -0.135418,0.199902 -0.274059,0.386907 -0.138642,0.183781 -0.261163,0.322423 l -0.177333,-0.09995 q 0.09028,-0.109624 0.187006,-0.245041 0.09995,-0.138642 0.196678,-0.286957 0.09673,-0.151539 0.180556,-0.299853 0.08706,-0.148315 0.151539,-0.27406 z m -0.867318,0.328872 0.154763,-0.203127 q 0.08383,0.07738 0.170885,0.170884 0.08705,0.0935 0.161211,0.183782 0.07416,0.08705 0.116072,0.164435 l -0.16766,0.232145 q -0.03869,-0.08061 -0.109623,-0.177333 -0.07093,-0.09673 -0.157988,-0.193454 -0.08383,-0.09673 -0.16766,-0.177332 z m 0.751246,0.422374 0.219248,-0.0935 q 0.06771,0.103176 0.135417,0.225696 0.06771,0.122521 0.119297,0.238593 0.05159,0.116073 0.07738,0.209575 l -0.232144,0.1064 q -0.02257,-0.0935 -0.07416,-0.209575 -0.04836,-0.119297 -0.112849,-0.245042 -0.06448,-0.125745 -0.132193,-0.232144 z m -0.770591,0.296629 q 0.212799,-0.0097 0.506204,-0.02902 0.296629,-0.02257 0.606155,-0.04191 l 0.0032,0.238593 q -0.283733,0.02902 -0.564241,0.05481 -0.280508,0.02257 -0.506204,0.04514 z m 0.857645,0.499756 0.222472,-0.06771 q 0.06126,0.138642 0.116072,0.306302 0.05481,0.164435 0.08061,0.286956 l -0.235369,0.08061 q -0.02257,-0.125745 -0.07416,-0.293405 -0.05159,-0.170884 -0.109624,-0.31275 z m -0.693209,-0.06448 0.25149,0.04514 q -0.02902,0.228921 -0.08383,0.451393 -0.05159,0.222471 -0.125745,0.377234 -0.02579,-0.01935 -0.06771,-0.03869 -0.04192,-0.01935 -0.08705,-0.03869 -0.04192,-0.02257 -0.07093,-0.03224 0.07416,-0.148315 0.116072,-0.351441 0.04514,-0.203127 0.06771,-0.412702 z m 0.361114,-0.31275 h 0.264386 v 1.441231 h -0.264386 z m 3.656277,-0.654519 h 2.031265 v 0.257938 h -2.031265 z m 0.873766,1.093014 0.183781,-0.151539 q 0.09673,0.08061 0.203127,0.180557 0.109623,0.09995 0.20635,0.196678 0.09673,0.0935 0.157988,0.16766 l -0.193454,0.170884 q -0.05804,-0.07416 -0.151539,-0.174108 -0.0935,-0.09995 -0.203127,-0.203127 -0.106399,-0.103175 -0.203126,-0.187005 z m -0.786712,-0.544895 h 1.673375 v 0.261163 h -1.399316 v 1.292916 h -0.274059 z m 1.557303,0 h 0.293405 v 1.238105 q 0,0.103175 -0.02902,0.164435 -0.02579,0.06448 -0.103176,0.09995 -0.07093,0.03224 -0.187005,0.03869 -0.112848,0.0097 -0.277284,0.0064 -0.0064,-0.05481 -0.03869,-0.132194 -0.02902,-0.07738 -0.06126,-0.132193 0.116073,0.0032 0.216024,0.0032 0.09995,0.0032 0.128969,0 0.03547,-0.0032 0.04514,-0.0129 0.0129,-0.0129 0.0129,-0.04192 z m -0.793161,-0.461065 h 0.267611 v 0.544895 q 0,0.128969 -0.02257,0.270836 -0.02257,0.138641 -0.08705,0.277283 -0.06449,0.138642 -0.183781,0.264387 -0.119297,0.125745 -0.312751,0.225696 -0.02579,-0.04192 -0.08061,-0.09995 -0.05159,-0.06126 -0.0935,-0.09673 0.170884,-0.08061 0.274059,-0.183781 0.1064,-0.103175 0.154763,-0.216023 0.05159,-0.116073 0.06771,-0.228921 0.01612,-0.112848 0.01612,-0.212799 z M 75.58589,58.329625 h 2.314997 v 0.274059 H 75.58589 Z m -0.164435,0 h 0.29018 v 0.964045 q 0,0.190229 -0.01935,0.412701 -0.01612,0.219248 -0.07093,0.444944 -0.05481,0.225696 -0.157987,0.435271 -0.09995,0.206351 -0.267612,0.370786 -0.02257,-0.02902 -0.06448,-0.07093 -0.03869,-0.03869 -0.08383,-0.07738 -0.04192,-0.03547 -0.07093,-0.05481 0.151539,-0.154763 0.238593,-0.33532 0.09028,-0.183781 0.132193,-0.377235 0.04514,-0.193454 0.05804,-0.386908 0.01612,-0.193453 0.01612,-0.364338 z m 0.986614,-0.35789 h 0.322423 v 0.541671 h -0.322423 z m -1.483146,0.728676 0.222472,-0.109623 q 0.08383,0.138641 0.154763,0.306301 0.07093,0.16766 0.09673,0.286957 l -0.238593,0.128969 q -0.01612,-0.08383 -0.05159,-0.187005 -0.03547,-0.1064 -0.08383,-0.216024 -0.04836,-0.112848 -0.09995,-0.209575 z m -0.04192,1.144602 q 0.116072,-0.05159 0.270835,-0.128969 0.157988,-0.07738 0.325648,-0.164436 l 0.07416,0.241817 q -0.141866,0.08383 -0.290181,0.170885 -0.14509,0.08705 -0.283732,0.161211 z m 5.100732,-1.863605 h 0.296629 v 0.493307 H 79.98374 Z m -0.751246,0.354665 h 1.857157 v 0.60938 h -0.280508 v -0.348217 h -1.302589 v 0.348217 h -0.27406 z m 0.248266,0.580362 h 1.354177 v 0.264387 H 79.48076 Z m -0.206351,0.573913 h 1.815242 v 0.274059 h -1.815242 z m 0.403029,0.125745 h 0.290181 q -0.0129,0.257938 -0.04836,0.470737 -0.03547,0.209575 -0.119296,0.377235 -0.08061,0.16766 -0.235369,0.290181 -0.151539,0.125745 -0.39658,0.209575 -0.0129,-0.03547 -0.04191,-0.08061 -0.02902,-0.04514 -0.06126,-0.08705 -0.03224,-0.04191 -0.06448,-0.06771 0.219247,-0.07093 0.348216,-0.170884 0.12897,-0.09995 0.196679,-0.235369 0.07093,-0.135418 0.09673,-0.31275 0.02579,-0.177333 0.03547,-0.393356 z m 0.596483,-0.02902 h 0.286956 v 0.970493 q 0,0.06448 0.0097,0.08061 0.0129,0.01612 0.05481,0.01612 0.0129,0 0.04836,0 0.03547,0 0.07093,0 0.03869,0 0.05159,0 0.03224,0 0.04836,-0.02579 0.01612,-0.02579 0.02257,-0.109624 0.0064,-0.08705 0.0097,-0.257938 0.02902,0.02579 0.07416,0.04836 0.04514,0.02257 0.0935,0.04191 0.05159,0.01612 0.09028,0.02579 -0.0129,0.216023 -0.04514,0.33532 -0.03224,0.122521 -0.0935,0.16766 -0.06126,0.04836 -0.16766,0.04836 -0.01934,0 -0.05481,0 -0.03224,0 -0.07093,0 -0.03869,0 -0.07416,0 -0.03224,0 -0.05159,0 -0.122521,0 -0.190229,-0.03547 -0.06449,-0.03224 -0.09028,-0.112848 -0.02257,-0.08061 -0.02257,-0.222472 z m -2.002247,-1.476698 h 0.757694 v 0.27406 h -0.490083 v 2.582608 h -0.267611 z m 0.667415,0 h 0.04836 l 0.04514,-0.0129 0.199902,0.116073 q -0.04514,0.135417 -0.09673,0.29018 -0.05159,0.151539 -0.106399,0.299854 -0.05159,0.148314 -0.103176,0.277284 0.164436,0.193453 0.216024,0.361113 0.05159,0.16766 0.05159,0.315975 0,0.138642 -0.03224,0.238593 -0.02902,0.09995 -0.103175,0.151539 -0.03547,0.02579 -0.08061,0.04191 -0.04191,0.0129 -0.0935,0.02257 -0.0935,0.0097 -0.212799,0.0032 -0.0032,-0.05481 -0.02257,-0.128969 -0.01612,-0.07738 -0.04836,-0.132193 0.04836,0.0032 0.09028,0.0032 0.04191,0 0.07738,0 0.06126,-0.0032 0.09673,-0.02902 0.03224,-0.02579 0.04514,-0.08061 0.0129,-0.05481 0.0129,-0.125745 0,-0.12252 -0.05159,-0.277283 -0.05159,-0.154764 -0.209575,-0.332096 0.04192,-0.109624 0.08061,-0.235369 0.03869,-0.125745 0.07416,-0.25149 0.03869,-0.128969 0.06771,-0.238593 0.03224,-0.112848 0.05481,-0.19023 z"
       id="text5-9-1"
       style="font-weight:500;font-size:3.22423px;line-height:1.25;font-family:'Noto Sans JP';-inkscape-font-specification:'Noto Sans JP Medium';fill:#f9f9f9;stroke-width:0.115152"
       aria-label="栄民総病院" />
    <path
       style="font-weight:500;font-size:3.22423px;line-height:1.25;font-family:'Noto Sans kr';-inkscape-font-specification:'Noto Sans kr Medium';fill:#f9f9f9;stroke-width:0.115152"
       d="m 85.323005,59.636371 h 2.669662 v 0.267612 h -2.669662 z m 0.332096,-1.457352 h 2.002246 v 0.741573 h -1.663702 v 0.364338 h -0.332096 v -0.606155 h 1.660478 v -0.238593 h -1.666926 z m 0.0064,0.983391 h 2.053835 v 0.261162 h -2.053835 z m 0.986614,0.931802 q 0.490083,0 0.757694,0.122521 0.267612,0.119296 0.267612,0.354665 0,0.228921 -0.267612,0.348217 -0.267611,0.122521 -0.757694,0.122521 -0.486858,0 -0.754469,-0.122521 -0.267612,-0.119296 -0.267612,-0.348217 0,-0.235369 0.267612,-0.354665 0.267611,-0.122521 0.754469,-0.122521 z m 0.0032,0.248266 q -0.338545,0 -0.512653,0.05804 -0.170884,0.05804 -0.170884,0.16766 0,0.07416 0.07416,0.125745 0.07738,0.04836 0.22892,0.07416 0.154764,0.02579 0.38046,0.02579 0.225696,0 0.377235,-0.02579 0.151538,-0.02579 0.22892,-0.07416 0.07738,-0.05159 0.07738,-0.125745 0,-0.109624 -0.174108,-0.16766 -0.174108,-0.05804 -0.509428,-0.05804 z m 2.798632,-0.773815 h 0.338544 v 0.519101 H 89.45002 Z m -1.160723,-0.112848 h 2.663214 v 0.270835 h -2.663214 z m 1.325158,0.531998 q 0.477186,0 0.744797,0.138641 0.270836,0.135418 0.270836,0.386908 0,0.25149 -0.270836,0.386908 -0.267611,0.135417 -0.744797,0.135417 -0.473962,0 -0.744797,-0.135417 -0.267611,-0.135418 -0.267611,-0.386908 0,-0.25149 0.267611,-0.386908 0.270835,-0.138641 0.744797,-0.138641 z m 0,0.261162 q -0.212799,0 -0.364338,0.03224 -0.151539,0.02902 -0.232144,0.08705 -0.07738,0.05804 -0.07738,0.14509 0,0.08705 0.07738,0.148315 0.08061,0.05804 0.232144,0.08705 0.151539,0.02902 0.364338,0.02902 0.219248,0 0.367563,-0.02902 0.151538,-0.02902 0.22892,-0.08705 0.07738,-0.06126 0.07738,-0.148315 0,-0.08705 -0.07738,-0.14509 -0.07738,-0.05804 -0.22892,-0.08705 -0.148315,-0.03224 -0.367563,-0.03224 z m -0.219247,-1.895847 h 0.299853 v 0.08061 q 0,0.138642 -0.05481,0.261162 -0.05481,0.119297 -0.157987,0.222472 -0.103176,0.09995 -0.245042,0.180557 -0.141866,0.08061 -0.319198,0.132193 -0.174109,0.05159 -0.377235,0.07416 L 88.42149,59.039889 q 0.174109,-0.01612 0.322423,-0.05481 0.151539,-0.04191 0.270835,-0.09995 0.119297,-0.05804 0.203127,-0.128969 0.08383,-0.07416 0.128969,-0.154763 0.04836,-0.08383 0.04836,-0.16766 z m 0.151538,0 H 89.8466 v 0.08061 q 0,0.08705 0.04514,0.170884 0.04514,0.08061 0.128969,0.151539 0.08383,0.07093 0.203127,0.128969 0.122521,0.05804 0.270835,0.09995 0.151539,0.03869 0.325647,0.05481 l -0.119296,0.264387 q -0.203127,-0.02257 -0.380459,-0.07416 -0.174109,-0.05159 -0.319199,-0.128969 -0.141866,-0.0806 -0.245042,-0.180557 -0.09995,-0.103175 -0.154763,-0.225696 -0.05481,-0.125745 -0.05481,-0.261162 z m -1.015632,-0.128969 h 2.17958 v 0.267611 h -2.17958 z"
       id="text5-9-1-0"
       aria-label="릉중" />
    <path
       id="rect2"
       style="fill:#ffffff;stroke-width:0.752963"
       d="m 60.858013,44.317631 h 1.043294 v 16.655857 h -1.043294 z" />
    <text
       xml:space="preserve"
       transform="matrix(0.31615295,0,0,0.31615295,-10.474341,-6.4462013)"
       id="text6"
       style="font-size:55px;line-height:1.25;font-family:'Microsoft JhengHei';-inkscape-font-specification:'Microsoft JhengHei';white-space:pre;shape-inside:url(#rect6);display:inline" />
  </g>
</svg>
