<?xml version="1.0" encoding="UTF-8" standalone="no"?>
<!-- Created with Inkscape (http://www.inkscape.org/) -->

<svg
   width="500"
   height="250"
   viewBox="0 0 132.29166 66.145833"
   version="1.1"
   id="svg1"
   inkscape:version="1.3.2 (091e20e, 2023-11-25, custom)"
   sodipodi:docname="r20.svg"
   xmlns:inkscape="http://www.inkscape.org/namespaces/inkscape"
   xmlns:sodipodi="http://sodipodi.sourceforge.net/DTD/sodipodi-0.dtd"
   xmlns="http://www.w3.org/2000/svg"
   xmlns:svg="http://www.w3.org/2000/svg">
  <sodipodi:namedview
     id="namedview1"
     pagecolor="#9e652e"
     bordercolor="#ffffff"
     borderopacity="1"
     inkscape:showpageshadow="0"
     inkscape:pageopacity="0"
     inkscape:pagecheckerboard="false"
     inkscape:deskcolor="#d1d1d1"
     inkscape:document-units="mm"
     inkscape:zoom="2.0208096"
     inkscape:cx="296.9107"
     inkscape:cy="82.640146"
     inkscape:window-width="1920"
     inkscape:window-height="1009"
     inkscape:window-x="1912"
     inkscape:window-y="-8"
     inkscape:window-maximized="1"
     inkscape:current-layer="layer1" />
  <defs
     id="defs1">
    <rect
       x="560.66638"
       y="34.144731"
       width="279.32397"
       height="128.59143"
       id="rect6" />
    <rect
       x="157.85752"
       y="62.351248"
       width="541.85369"
       height="99.322566"
       id="rect4" />
    <rect
       x="157.85751"
       y="62.35125"
       width="329.07602"
       height="135.09438"
       id="rect4-5" />
    <rect
       x="157.85751"
       y="62.35125"
       width="470.56151"
       height="119.92888"
       id="rect4-5-3" />
    <rect
       x="157.85751"
       y="62.35125"
       width="460.82318"
       height="88.90795"
       id="rect4-5-32" />
  </defs>
  <g
     inkscape:label="Layer 1"
     inkscape:groupmode="layer"
     id="layer1">
    <path
       id="rect5"
       style="fill:#d0002b;stroke-width:0.953294"
       d="M -2.5431316e-6,-1.2715658e-6 H 132.29167 V 66.145835 H -2.5431316e-6 Z" />
    <g
       id="g17"
       transform="translate(3.9602308,-0.65249553)">
      <g
         id="g16"
         transform="matrix(1.1095583,0,0,1.1095583,-5.9027495,-12.502019)">
        <path
           id="rect1"
           style="fill-opacity:0;stroke:#ffffff;stroke-width:0.810881"
           d="m 18.989333,16.971979 h 10.686722 c 3.377614,0 6.096777,2.719163 6.096777,6.096777 v 20.00832 c 0,3.377614 -2.719163,6.096777 -6.096777,6.096777 H 18.989333 c -3.377614,0 -6.096777,-2.719163 -6.096777,-6.096777 v -20.00832 c 0,-3.377614 2.719163,-6.096777 6.096777,-6.096777 z" />
        <path
           style="font-size:12.2918px;line-height:1.25;font-family:'AR UDJingXiHeiE1G30 EB';-inkscape-font-specification:'AR UDJingXiHeiE1G30 EB';fill:#ffffff;stroke-width:0.256079"
           d="m 26.182626,24.962252 q 0,-0.651466 -0.344171,-0.983344 -0.34417,-0.344171 -0.995635,-0.344171 h -2.667321 v 2.765655 h 2.581278 q 0.639174,0 1.032511,-0.381046 0.393338,-0.381045 0.393338,-1.057094 z m -4.007127,2.642737 V 31.30482 H 20.61444 v -8.886971 h 4.523383 q 1.216888,0 1.929812,0.651465 0.725216,0.639174 0.725216,1.819187 0,0.774383 -0.368754,1.327514 -0.356462,0.553131 -0.897301,0.786675 0.688341,0.393338 1.057095,1.36439 0.368754,0.971052 0.467088,2.93774 h -1.622517 q -0.07375,-2.065022 -0.454797,-2.876281 -0.368754,-0.82355 -1.192304,-0.82355 z"
           id="text2"
           aria-label="R" />
        <path
           style="font-size:12.3781px;line-height:1.25;font-family:'AR UDJingXiHeiE1G30 EB';-inkscape-font-specification:'AR UDJingXiHeiE1G30 EB';fill:#ffffff;stroke-width:0.225056"
           d="m 17.710383,37.058399 q 0,-1.386348 0.841711,-2.178546 0.841711,-0.804577 2.203302,-0.804577 1.398725,0 2.178545,0.705552 0.792199,0.693174 0.792199,1.930984 0,0.878845 -0.569393,1.770068 -0.557014,0.878845 -1.75769,1.943362 l -1.683422,1.522506 h 3.985749 v 1.225432 h -6.028135 v -1.126407 l 2.500376,-2.252814 q 1.101651,-1.002626 1.534884,-1.708178 0.445612,-0.71793 0.445612,-1.373969 0,-0.618905 -0.358965,-1.002626 -0.358965,-0.383721 -1.03976,-0.383721 -0.680796,0 -1.101651,0.470367 -0.420856,0.470368 -0.420856,1.262567 z m 13.442608,1.708177 q 0,2.339461 -0.755064,3.45349 -0.755064,1.11403 -2.339461,1.11403 -1.534884,0 -2.327082,-1.11403 -0.792199,-1.114029 -0.792199,-3.45349 0,-2.500376 0.755064,-3.589649 0.755064,-1.101651 2.364217,-1.101651 1.572019,0 2.327083,1.101651 0.767442,1.089273 0.767442,3.589649 z m -3.094525,3.342088 q 0.792199,0 1.163542,-0.779821 0.371343,-0.792198 0.371343,-2.562267 0,-1.906227 -0.358965,-2.686047 -0.346587,-0.779821 -1.17592,-0.779821 -0.829332,0 -1.188297,0.792199 -0.358965,0.77982 -0.358965,2.673669 0,1.757691 0.371343,2.549889 0.371343,0.792199 1.175919,0.792199 z"
           id="text3"
           aria-label="20" />
        <path
           style="font-weight:500;font-size:72px;line-height:1.25;font-family:'Noto Sans TC';-inkscape-font-specification:'Noto Sans TC Medium';white-space:pre;fill:#ffffff"
           d="m 186.00942,84.537406 h 40.536 v 6.12 h -40.536 z m 10.152,11.592 h 20.088 v 5.328004 h -20.088 z m 0,10.944004 h 20.088 v 5.328 h -20.088 z m -11.664,10.944 h 42.984 v 6.192 h -42.984 z m 8.28,-43.344004 h 6.48 v 45.936004 h -6.48 z m 20.52,0 h 6.624 v 45.936004 h -6.624 z m -3.6,53.712004 5.04,-3.384 q 2.376,1.8 4.824,4.032 2.52,2.232 4.752,4.536 2.232,2.232 3.528,4.032 l -5.4,3.816 q -1.224,-1.8 -3.384,-4.104 -2.088,-2.304 -4.536,-4.68 -2.448,-2.376 -4.824,-4.248 z m -12.816,-3.672 6.048,3.528 q -1.872,2.448 -4.464,4.968 -2.592,2.448 -5.472,4.608 -2.88,2.232 -5.688,3.816 -0.864,-1.008 -2.304,-2.376 -1.368,-1.368 -2.592,-2.232 2.808,-1.512 5.544,-3.6 2.736,-2.088 5.112,-4.392 2.376,-2.304 3.816,-4.32 z m -30.6,-43.488004 h 15.696 v 41.256004 h -15.696 v -6.336 h 9.72 V 87.489406 h -9.72 z m -3.384,0 h 5.976 v 47.952004 h -5.976 z m 102.168,16.416 v 7.848004 h 24.336 v -7.848004 z m 0,-13.248 v 7.776 h 24.336 v -7.776 z m -6.192,-5.904 h 37.08 v 32.904004 h -37.08 z m -0.648,39.672004 h 38.736 v 6.192 h -38.736 z m -4.608,14.832 h 45.864 v 6.192 h -45.864 z m -15.264,-51.768004 h 15.624 v 41.256004 h -15.624 v -6.336 h 9.432 V 87.489406 h -9.432 z m -3.528,0 h 6.264 v 47.952004 h -6.264 z m 39.672,-0.432 h 5.832 v 31.104004 h 0.504 v 23.976 h -6.768 v -23.976 h 0.432 z m 35.856,16.416 h 6.84 v 13.824004 q 0,3.312 -0.36,7.2 -0.288,3.816 -1.08,7.776 -0.792,3.96 -2.376,7.704 -1.512,3.672 -3.96,6.768 -0.504,-0.72 -1.512,-1.584 -1.008,-0.864 -2.16,-1.728 -1.08,-0.792 -1.8,-1.152 2.952,-3.672 4.248,-8.064 1.368,-4.392 1.728,-8.784 0.432,-4.464 0.432,-8.208 z m 3.816,0 h 55.296 v 6.048004 h -55.296 z m 8.28,11.232004 h 44.424 v 5.832 h -44.424 z m -3.456,12.6 h 51.48 v 6.048 h -51.48 z m 21.672,-10.728 h 7.128 v 31.176 h -7.128 z m -30.024,-32.976004 h 6.912 v 8.784 h 41.112 v -8.784 h 7.128 v 14.904 h -55.152 z m 23.688,-2.736 h 7.2 v 14.472 h -7.2 z"
           id="text4"
           transform="matrix(0.22505692,0,0,0.22505692,3.4694169,1.1325221)"
           aria-label="唭哩岸" />
        <path
           style="font-size:6.30159px;line-height:1.25;font-family:'AR UDJingXiHeiE1G30 EB';-inkscape-font-specification:'AR UDJingXiHeiE1G30 EB';fill:#ffffff;stroke-width:0.225056"
           d="m 43.786425,39.282777 0.560841,0.466317 -0.403301,0.47262 -0.686874,-0.579747 q -0.233159,0.113429 -0.51673,0.170143 -0.27727,0.06302 -0.586048,0.06302 -1.07127,0 -1.676223,-0.623857 -0.604953,-0.623858 -0.604953,-1.714033 0,-1.109079 0.611255,-1.739238 0.611254,-0.636461 1.669921,-0.636461 1.07127,0 1.669921,0.630159 0.598651,0.630159 0.598651,1.74554 0,0.560842 -0.163841,1.001953 -0.163841,0.441111 -0.472619,0.743588 z m -1.632112,-3.497383 q -0.693175,0 -1.077572,0.485223 -0.378095,0.478921 -0.378095,1.266619 0,0.806604 0.384397,1.260318 0.384397,0.453715 1.07127,0.453715 0.151238,0 0.283572,-0.02521 0.138635,-0.02521 0.258365,-0.07562 l -0.485223,-0.409603 0.428508,-0.460016 0.573445,0.485222 q 0.182746,-0.207952 0.27727,-0.51673 0.100826,-0.315079 0.100826,-0.71208 0,-0.800302 -0.378096,-1.272921 -0.378095,-0.478921 -1.058667,-0.478921 z m 3.938495,-0.548238 v 4.55605 h -0.800302 v -4.55605 z m 4.247267,4.55605 h -3.201208 v -4.55605 h 0.800302 v 3.932192 h 2.400906 z m 1.461975,-4.55605 v 4.55605 h -0.800302 v -4.55605 z m 3.472171,2.715985 -0.718381,-1.947191 -0.730985,1.947191 z m -1.682524,0.623858 -0.453715,1.216207 h -0.812905 l 1.833763,-4.55605 h 0.819206 l 1.82116,4.55605 h -0.83181 L 55.50738,38.576999 Z m 4.530837,-2.073223 v 3.28943 h -0.800302 v -4.55605 h 0.825508 l 2.237065,3.365049 v -3.365049 h 0.800302 v 4.55605 h -0.875921 z"
           id="text5"
           aria-label="QILIAN" />
        <path
           d="m 41.501203,46.220744 h 0.72616 v -2.904639 h -0.640005 v -0.430773 h 0.640005 V 42.09148 h 0.44308 v 0.793852 H 44.41815 V 42.09148 h 0.443081 v 0.793852 h 0.640005 v 0.430773 h -0.640005 v 2.904639 h 0.750775 v 0.430773 H 41.501203 Z M 39.79042,42.669946 h 1.526166 v 4.301574 h -1.095393 v 0.430772 H 39.79042 Z m 1.095393,0.418465 h -0.66462 v 3.464644 h 0.66462 z m 1.78463,2.024632 h 1.747707 v -0.689236 h -1.747707 z m 0,-1.107701 h 1.747707 v -0.689237 h -1.747707 z m 0,2.215402 h 1.747707 v -0.689236 h -1.747707 z m 0.227695,0.566159 0.33231,0.36308 q -0.701544,0.486157 -1.581551,1.009239 -0.123078,-0.178463 -0.28308,-0.387696 0.763084,-0.406157 1.532321,-0.984623 z m 0.996931,0.406157 0.283079,-0.375388 q 0.818468,0.461542 1.483089,0.886161 L 45.36585,48.14076 q -0.738467,-0.523081 -1.470781,-0.9477 z m 4.896877,-3.219103 v 0.686873 h 2.129937 v -0.686873 z m 0,-1.159493 v 0.680572 h 2.129937 v -0.680572 z m -0.541937,-0.51673 h 3.245319 v 2.879826 h -3.245319 z m -0.05671,3.472176 h 3.390255 v 0.541937 h -3.390255 z m -0.403302,1.298127 h 4.014113 v 0.541937 h -4.014113 z m -1.335937,-4.530843 h 1.367445 v 3.610811 h -1.367445 v -0.55454 h 0.825508 v -2.508033 h -0.825508 z m -0.308778,0 h 0.548238 v 4.196859 h -0.548238 z m 3.472176,-0.03781 h 0.510429 v 2.722286 h 0.04411 v 2.09843 h -0.592349 v -2.09843 h 0.03781 z m 3.138192,1.436762 h 0.598651 v 1.209905 q 0,0.289874 -0.03151,0.630159 -0.02521,0.333985 -0.09452,0.680572 -0.06932,0.346588 -0.207952,0.67427 -0.132334,0.321381 -0.346588,0.59235 -0.04411,-0.06302 -0.132333,-0.138635 -0.08822,-0.07562 -0.189048,-0.151238 -0.09452,-0.06932 -0.15754,-0.100826 0.258366,-0.321381 0.371794,-0.705778 0.11973,-0.384397 0.151238,-0.768794 0.03781,-0.390698 0.03781,-0.718381 z m 0.333984,0 h 4.839621 v 0.529334 H 53.08963 Z m 0.724683,0.983048 h 3.888081 v 0.510429 h -3.888081 z m -0.302476,1.102778 h 4.505636 v 0.529334 h -4.505636 z m 1.896778,-0.938936 h 0.623858 v 2.728588 h -0.623858 z m -2.627763,-2.886129 h 0.604953 v 0.768794 h 3.598208 v -0.768794 h 0.623857 v 1.304429 h -4.827018 z m 2.073223,-0.23946 h 0.630159 v 1.266619 h -0.630159 z"
           id="text5-9"
           style="font-weight:500;font-size:6.30159px;line-height:1.25;font-family:'Noto Sans JP';-inkscape-font-specification:'Noto Sans JP Medium';fill:#ffffff;stroke-width:0.225056"
           aria-label="唭哩岸" />
        <path
           style="font-weight:500;font-size:6.30159px;line-height:1.25;font-family:'Noto Sans KR';-inkscape-font-specification:'Noto Sans KR Medium';fill:#ffffff;stroke-width:0.225056"
           d="m 67.367173,42.114091 h 0.661667 v 5.759653 h -0.661667 z m -2.564747,1.430461 h 0.523032 v 0.403302 q 0,0.460016 -0.113429,0.901127 -0.107127,0.43481 -0.321381,0.812905 -0.214254,0.378095 -0.510428,0.667969 -0.296175,0.289873 -0.667969,0.460016 L 63.35306,46.279442 q 0.340286,-0.15754 0.604953,-0.403302 0.264667,-0.245762 0.453715,-0.55454 0.189047,-0.315079 0.289873,-0.661667 0.100825,-0.352889 0.100825,-0.712079 z m 0.132333,0 h 0.523032 v 0.403302 q 0,0.340285 0.100826,0.67427 0.100825,0.333984 0.289873,0.63646 0.195349,0.296175 0.466318,0.535635 0.270968,0.239461 0.604952,0.384397 l -0.35919,0.510429 q -0.365493,-0.163841 -0.667969,-0.441111 -0.302476,-0.283572 -0.51673,-0.642762 -0.214254,-0.365493 -0.327683,-0.787699 -0.113429,-0.422207 -0.113429,-0.869619 z m -1.405254,-0.453715 h 3.182303 v 0.523032 h -3.182303 z m 1.26662,-0.857016 h 0.661666 v 1.140588 h -0.661666 z m 8.374813,-0.11973 h 0.661667 v 5.772256 h -0.661667 z m -3.768351,3.856573 h 0.491524 q 0.497826,0 0.951541,-0.0126 0.460016,-0.01891 0.91373,-0.06302 0.453715,-0.04411 0.938937,-0.11973 l 0.06302,0.535635 q -0.743588,0.126032 -1.424159,0.170143 -0.680572,0.03781 -1.443065,0.03781 h -0.491524 z m -0.0126,-3.339843 h 2.690779 v 2.129938 h -2.010207 v 1.417857 h -0.667969 v -1.940889 h 2.003906 v -1.071271 h -2.016509 z m 9.326354,-0.51673 h 0.655365 v 4.222065 h -0.655365 z m 0.460016,1.707731 h 1.008255 v 0.548238 h -1.008255 z m -3.44697,3.402858 h 3.88178 v 0.535635 h -3.88178 z m 0,-1.323334 h 0.661667 v 1.556493 h -0.661667 z m 0.74989,-3.396557 q 0.434809,0 0.781397,0.189048 0.346587,0.182746 0.548238,0.510429 0.201651,0.321381 0.201651,0.743588 0,0.415904 -0.201651,0.743587 -0.201651,0.321381 -0.548238,0.510429 -0.346588,0.182746 -0.781397,0.182746 -0.428509,0 -0.775096,-0.182746 -0.346587,-0.189048 -0.548238,-0.510429 -0.201651,-0.327683 -0.201651,-0.743587 0,-0.422207 0.201651,-0.743588 0.201651,-0.327683 0.548238,-0.510429 0.346587,-0.189048 0.775096,-0.189048 z m 0,0.573445 q -0.245762,0 -0.447413,0.107127 -0.201651,0.107127 -0.321381,0.302476 -0.113429,0.19535 -0.113429,0.460017 0,0.258365 0.113429,0.453714 0.11973,0.189048 0.321381,0.296175 0.201651,0.107127 0.447413,0.107127 0.252063,0 0.453714,-0.107127 0.207953,-0.107127 0.321381,-0.296175 0.113429,-0.195349 0.113429,-0.453714 0,-0.264667 -0.113429,-0.460017 -0.113428,-0.195349 -0.321381,-0.302476 -0.201651,-0.107127 -0.453714,-0.107127 z"
           id="text5-9-8"
           aria-label="치리안" />
      </g>
      <path
         style="font-weight:500;font-size:72px;line-height:1.25;font-family:'Noto Sans TC';-inkscape-font-specification:'Noto Sans TC Medium';white-space:pre;fill:#f9f9f9"
         d="m 183.99342,105.05741 h 43.344 v 5.472 h -43.344 z m 7.776,9.792 h 28.8 v 5.472 h -28.8 z m 2.448,-7.632 5.688,1.368 q -2.448,6.12 -6.552,11.232 -4.032,5.112 -8.856,8.496 -0.36,-0.576 -1.152,-1.368 -0.792,-0.792 -1.656,-1.584 -0.792,-0.792 -1.44,-1.296 4.608,-2.88 8.28,-7.2 3.744,-4.392 5.688,-9.648 z m 5.4,9.792 5.328,1.584 q -2.952,6.624 -7.92,12.24 -4.896,5.544 -10.368,9.216 -0.36,-0.648 -1.08,-1.512 -0.648,-0.792 -1.44,-1.656 -0.72,-0.792 -1.296,-1.224 5.256,-3.168 9.72,-7.992 4.536,-4.896 7.056,-10.656 z m 10.584,0.144 5.472,1.296 q -2.232,6.984 -6.12,12.96 -3.816,5.904 -8.496,9.864 -0.36,-0.504 -1.152,-1.224 -0.792,-0.72 -1.656,-1.44 -0.864,-0.72 -1.512,-1.152 4.608,-3.528 8.064,-8.784 3.528,-5.328 5.4,-11.52 z m 8.64,-2.304 h 6.264 q 0,0 -0.072,1.008 0,0.936 -0.072,1.512 -0.36,7.128 -0.864,11.592 -0.504,4.464 -1.152,6.84 -0.648,2.376 -1.512,3.384 -0.936,1.08 -1.944,1.512 -0.936,0.432 -2.232,0.648 -1.08,0.144 -2.88,0.144 -1.8,0.072 -3.816,-0.072 -0.072,-1.296 -0.504,-2.952 -0.432,-1.584 -1.08,-2.736 1.728,0.144 3.096,0.216 1.368,0.072 2.088,0.072 0.72,0 1.152,-0.144 0.432,-0.144 0.792,-0.576 0.648,-0.648 1.08,-2.736 0.504,-2.088 0.936,-6.12 0.432,-4.032 0.72,-10.584 z m -22.608,-23.184004 v 4.752 h 19.08 v -4.752 z m 0,-9.288 v 4.68 h 19.08 v -4.68 z m -6.192,-4.896 h 31.752 v 23.904004 h -31.752 z m -26.64,0.288 h 16.92 v 6.12 h -10.944 v 57.672004 h -5.976 z m 14.904,0 h 1.08 l 1.008,-0.288 4.464,2.592 q -1.008,3.024 -2.16,6.48 -1.152,3.384 -2.376,6.696 -1.152,3.312 -2.304,6.192 3.672,4.320004 4.824,8.064004 1.152,3.744 1.152,7.056 0,3.096 -0.72,5.328 -0.648,2.232 -2.304,3.384 -0.792,0.576 -1.8,0.936 -0.936,0.288 -2.088,0.504 -2.088,0.216 -4.752,0.072 -0.072,-1.224 -0.504,-2.88 -0.36,-1.728 -1.08,-2.952 1.08,0.072 2.016,0.072 0.936,0 1.728,0 1.368,-0.072 2.16,-0.648 0.72,-0.576 1.008,-1.8 0.288,-1.224 0.288,-2.808 0,-2.736 -1.152,-6.192 -1.152,-3.456 -4.68,-7.416 0.936,-2.448004 1.8,-5.256004 0.864,-2.808 1.656,-5.616 0.864,-2.88 1.512,-5.328 0.72,-2.52 1.224,-4.248 z m 60.624,1.08 h 20.664 v 43.560004 h -20.664 v -6.264 h 14.328 V 85.113406 h -14.328 z m 0.072,18.432 h 16.848 v 6.120004 h -16.848 z m 30.6,-19.584 h 23.256 v 6.264 h -23.256 z m 0,17.28 h 23.256 v 6.192004 h -23.256 z m -0.36,17.424004 h 23.544 v 6.192 h -23.544 z m -33.984,-33.552004 h 6.336 v 50.040004 h -6.336 z m 55.08,-1.152 h 6.768 v 55.512004 q 0,2.88 -0.792,4.464 -0.72,1.656 -2.592,2.448 -1.944,0.864 -5.04,1.08 -3.096,0.216 -7.704,0.216 -0.144,-0.936 -0.576,-2.16 -0.36,-1.224 -0.864,-2.448 -0.432,-1.152 -1.008,-2.016 2.16,0.072 4.248,0.072 2.088,0 3.6,0 1.584,0 2.232,0 1.008,-0.072 1.368,-0.432 0.36,-0.36 0.36,-1.296 z m -24.768,0 h 6.624 v 25.848004 q 0,4.608 -0.504,9.792 -0.504,5.184 -2.016,10.368 -1.512,5.184 -4.536,9.936 -2.952,4.68 -7.92,8.352 -0.504,-0.648 -1.44,-1.584 -0.864,-0.864 -1.872,-1.728 -1.008,-0.864 -1.728,-1.296 4.536,-3.456 7.2,-7.56 2.736,-4.104 4.032,-8.64 1.368,-4.536 1.728,-9 0.432,-4.464 0.432,-8.712 z m 82.584,27.072004 6.912,2.016 q -4.032,9.72 -10.656,16.56 -6.552,6.768 -15.408,11.16 -8.856,4.32 -19.728,7.056 -0.36,-0.792 -1.08,-1.944 -0.72,-1.152 -1.584,-2.304 -0.792,-1.152 -1.44,-1.872 10.656,-2.16 19.152,-5.976 8.496,-3.888 14.544,-9.936 6.048,-6.048 9.288,-14.76 z m -24.048,-12.312004 6.624,2.592 q -2.52,3.096 -5.76,6.192004 -3.168,3.096 -6.624,5.832 -3.456,2.664 -6.624,4.752 -0.576,-0.72 -1.584,-1.656 -1.008,-0.936 -2.016,-1.872 -1.008,-1.008 -1.8,-1.512 3.24,-1.728 6.48,-4.032 3.312,-2.376 6.264,-4.968004 2.952,-2.664 5.04,-5.328 z m 3.744,12.672004 q 4.968,12.096 15.768,19.656 10.8,7.488 27.216,10.152 -0.648,0.648 -1.512,1.728 -0.792,1.152 -1.512,2.304 -0.72,1.152 -1.152,2.088 -11.448,-2.16 -20.088,-6.552 -8.568,-4.464 -14.76,-11.304 -6.12,-6.84 -10.08,-16.128 z m -21.456,-20.880004 h 62.784 v 6.624 h -62.784 z m 39.24,11.88 5.4,-3.888 q 3.168,2.16 6.696,4.896 3.6,2.736 6.768,5.472004 3.168,2.736 5.112,5.04 l -5.76,4.464 q -1.8,-2.304 -4.824,-5.112 -3.024,-2.88 -6.552,-5.688 -3.528,-2.880004 -6.84,-5.184004 z m -14.256,-20.016 6.48,-2.232 q 1.512,2.232 3.024,4.968 1.512,2.736 2.232,4.68 l -6.768,2.592 q -0.648,-2.016 -2.088,-4.824 -1.368,-2.808 -2.88,-5.184 z m 75.24,11.448 4.32,-3.744 q 3.384,1.224 7.272,2.808 3.888,1.584 7.416,3.24 3.6,1.656 6.048,3.096 l -4.608,4.176 q -2.232,-1.368 -5.76,-3.096 -3.456,-1.728 -7.344,-3.456 -3.816,-1.728 -7.344,-3.024 z m -6.84,5.184 h 36.576 v 5.04 h -30.456 v 32.112004 h -6.12 z m 34.2,0 h 6.12 v 31.176004 q 0,2.232 -0.576,3.384 -0.504,1.152 -2.016,1.872 -1.44,0.648 -3.816,0.792 -2.304,0.144 -5.76,0.144 -0.144,-1.224 -0.648,-2.664 -0.504,-1.44 -1.08,-2.52 2.232,0.072 4.104,0.072 1.872,0 2.52,0 0.648,-0.072 0.864,-0.288 0.288,-0.216 0.288,-0.864 z m -33.768,-15.336 h 35.208 v 5.112 h -35.208 z m 3.24,25.704004 h 32.616 v 4.896 h -32.616 z m 0,10.368 h 32.616 v 5.112 h -32.616 z m 13.248,-18.504004 h 5.904 v 34.776004 h -5.904 z m 16.416,-17.568 h 1.512 l 1.368,-0.36 4.104,3.24 q -2.448,2.304 -5.544,4.608 -3.096,2.304 -6.48,4.32 -3.384,1.944 -6.696,3.456 -0.648,-0.936 -1.728,-2.088 -1.008,-1.152 -1.8,-1.8 2.88,-1.296 5.76,-3.024 2.952,-1.728 5.472,-3.6 2.52,-1.872 4.032,-3.528 z m -53.712,0.36 5.04,-3.096 q 1.728,1.728 3.456,3.744 1.8,2.016 3.384,3.888 1.584,1.872 2.592,3.312 l -5.184,3.744 q -1.008,-1.512 -2.592,-3.528 -1.512,-2.016 -3.312,-4.104 -1.728,-2.16 -3.384,-3.96 z m -2.304,13.608 h 15.552 v 5.544 h -15.552 z m 13.68,32.256004 q 2.088,4.752 5.76,7.056 3.672,2.304 8.928,3.024 5.328,0.72 12.168,0.72 3.816,0 8.496,-0.144 4.68,-0.144 9.432,-0.36 4.752,-0.216 8.568,-0.576 -0.504,0.72 -0.936,1.872 -0.432,1.152 -0.792,2.376 -0.288,1.224 -0.504,2.16 -3.528,0.216 -7.632,0.36 -4.104,0.144 -8.352,0.216 -4.248,0.072 -8.352,0.072 -6.336,0 -11.304,-0.576 -4.896,-0.576 -8.712,-2.088 -3.744,-1.512 -6.552,-4.392 -2.808,-2.952 -4.824,-7.776 z m -0.288,-14.544 h 1.656 l 1.08,-0.144 3.312,1.224 q -1.8,11.736 -6.12,19.584 -4.32,7.776 -10.44,11.88 -0.432,-0.72 -1.224,-1.656 -0.792,-0.864 -1.656,-1.728 -0.864,-0.792 -1.584,-1.224 5.832,-3.6 9.72,-10.368 3.888,-6.768 5.256,-16.416 z m -12.24,6.48 v -5.04 l 2.808,-1.44 h 11.52 v 5.4 h -9.936 q -1.368,0 -2.664,0.36 -1.296,0.288 -1.728,0.72 z m 0,0 q -0.144,-0.792 -0.648,-1.872 -0.432,-1.08 -0.864,-2.16 -0.432,-1.152 -0.792,-1.8 0.864,-0.216 1.728,-0.648 0.864,-0.504 1.872,-1.584 0.864,-0.792 2.376,-2.736 1.512,-1.944 3.24,-4.32 1.8,-2.448004 3.312,-4.680004 1.584,-2.304 2.52,-3.744 v -0.216 l 1.944,-0.792 4.248,1.944 q -1.296,1.872 -3.096,4.392 -1.728,2.448 -3.672,5.112004 -1.944,2.592 -3.888,5.04 -1.872,2.376 -3.456,4.104 0,0 -0.72,0.432 -0.72,0.36 -1.728,1.008 -0.936,0.576 -1.656,1.296 -0.72,0.648 -0.72,1.224 z m 71.928,-20.808004 h 63.648 v 7.056004 h -63.648 z m 35.856,2.808 q 2.304,8.496004 6.192,15.840004 3.96,7.344 9.648,12.888 5.76,5.472 13.32,8.64 -0.864,0.72 -1.872,1.872 -0.936,1.152 -1.8,2.304 -0.864,1.224 -1.44,2.16 -7.992,-3.744 -13.968,-9.864 -5.904,-6.192 -10.008,-14.328 -4.104,-8.136 -6.912,-17.856004 z m -7.92,-22.896 h 7.416 q 0,5.112 -0.288,11.016 -0.216,5.832 -1.08,12.024 -0.864,6.192004 -2.808,12.384004 -1.944,6.192 -5.4,11.952 -3.456,5.76 -8.856,10.728 -5.4,4.896 -13.176,8.568 -0.864,-1.368 -2.304,-3.024 -1.44,-1.584 -2.88,-2.664 7.488,-3.384 12.6,-7.848 5.184,-4.536 8.352,-9.792 3.24,-5.328 4.968,-11.016 1.728,-5.688 2.448,-11.376004 0.72,-5.688 0.864,-11.016 0.144,-5.328 0.144,-9.936 z m 43.344,47.520004 h 64.8 v 5.544 h -64.8 z m 13.68,-12.528 h 32.976 v 4.968 h -32.976 z m 16.128,9.864 h 6.696 v 15.192 q 0,2.448 -0.72,3.744 -0.648,1.296 -2.592,2.016 -1.944,0.648 -4.896,0.72 -2.88,0.144 -7.128,0.144 -0.216,-1.296 -0.864,-2.88 -0.648,-1.584 -1.368,-2.88 2.088,0.072 3.96,0.072 1.944,0.072 3.384,0.072 1.512,0 2.016,0 0.864,0 1.152,-0.288 0.36,-0.216 0.36,-0.936 z m 15.12,-9.864 h 1.656 l 1.44,-0.36 3.888,3.528 q -2.592,1.944 -5.76,3.816 -3.168,1.872 -6.552,3.528 -3.312,1.656 -6.624,2.952 -0.576,-0.864 -1.584,-1.872 -0.936,-1.08 -1.584,-1.728 2.736,-1.008 5.616,-2.52 2.88,-1.512 5.4,-3.096 2.52,-1.656 4.104,-3.024 z m -43.488,-9.144 h 62.208 v 13.896 h -6.768 v -8.856 h -48.96 v 8.856 h -6.48 z m 51.768,-23.328004 h 6.48 q -0.216,4.248 -0.504,9 -0.288,4.752 -0.648,9.216 -0.36,4.464 -0.72,7.704004 h -6.552 q 0.432,-3.384004 0.792,-7.848004 0.432,-4.464 0.72,-9.216 0.288,-4.752 0.432,-8.856 z m -10.944,0 h 13.608 v 4.464 h -13.608 z m -22.32,-2.016 2.88,4.032 q -3.24,1.296 -7.416,2.16 -4.104,0.864 -7.344,1.368 l -2.376,-3.816 q 2.088,-0.432 4.68,-1.008 2.664,-0.648 5.184,-1.368 2.52,-0.792 4.392,-1.368 z m -10.872,9.792 h 13.32 v 4.464 h -13.32 z m 0.288,7.776 h 13.248 v 4.392 h -13.248 z m 33.336,-7.776 h 12.6 v 4.464 h -12.6 z m -0.36,7.776 h 12.456 v 4.392 h -12.456 z m -6.768,-17.496 4.536,1.296 q -2.376,3.312 -6.12,6.264 -3.744,2.952 -7.344,4.896 -0.576,-0.648 -1.728,-1.584 -1.152,-1.008 -2.016,-1.584 3.744,-1.728 7.128,-4.104 3.456,-2.448 5.544,-5.184 z m -11.232,3.528 3.24,-2.808 q 2.304,1.008 4.752,2.448 2.52,1.368 4.752,2.88 2.232,1.44 3.672,2.664 l -3.384,3.168 q -1.368,-1.296 -3.528,-2.808 -2.16,-1.512 -4.68,-2.952 -2.448,-1.512 -4.824,-2.592 z m 11.376,8.568 4.536,1.44 q -2.592,3.528 -6.48,6.696 -3.888,3.096 -7.848,5.184004 -0.504,-0.720004 -1.656,-1.800004 -1.152,-1.08 -1.872,-1.728 3.816,-1.728 7.416,-4.248 3.672,-2.592 5.904,-5.544 z m -11.664,3.6 3.24,-2.808 q 2.448,1.152 5.04,2.664 2.592,1.512 4.896,3.096 2.376,1.584 3.888,3.024 l -3.528,3.168004 q -1.368,-1.440004 -3.672,-3.024004 -2.232,-1.656 -4.824,-3.24 -2.592,-1.656 -5.04,-2.88 z m -18.36,-12.024 6.48,1.656 1.368,22.320004 h -6.408 z"
         id="text4-0"
         transform="matrix(0.12720547,0,0,0.12720547,21.984383,35.421204)"
         aria-label="陽明交通大學&#10;" />
      <path
         style="font-size:3.22324px;line-height:1.25;font-family:'AR UDJingXiHeiE1G30 EB';-inkscape-font-specification:'AR UDJingXiHeiE1G30 EB';fill:#ffffff;stroke-width:0.115116"
         d="m 46.783059,51.056631 v 1.682532 H 46.373707 V 50.40876 h 0.422245 l 1.14425,1.72121 v -1.72121 h 0.409351 v 2.330403 h -0.44803 z m 3.342497,0.741346 -0.367449,-0.995982 -0.373896,0.995982 z m -0.860605,0.3191 -0.232073,0.622086 H 48.61708 l 0.937963,-2.330403 h 0.419021 l 0.931516,2.330403 h -0.425467 l -0.235297,-0.622086 z m 2.404535,-1.389216 H 50.944257 V 50.40876 h 1.856586 v 0.319101 h -0.722006 v 2.011302 h -0.409351 z m 1.850138,-0.319101 v 2.330403 H 53.110273 V 50.40876 Z m 2.775208,1.176483 q 0,0.560843 -0.312655,0.879944 -0.309431,0.315878 -0.847712,0.315878 -0.547951,0 -0.857382,-0.319101 -0.309431,-0.319101 -0.309431,-0.876721 0,-0.56729 0.312655,-0.889614 0.312654,-0.325548 0.854158,-0.325548 0.547951,0 0.854159,0.322324 0.306208,0.322324 0.306208,0.892838 z m -1.160367,0.876721 q 0.351333,0 0.541504,-0.232073 0.193395,-0.232074 0.193395,-0.644648 0,-0.409352 -0.193395,-0.651095 -0.193394,-0.244966 -0.541504,-0.244966 -0.354556,0 -0.551174,0.24819 -0.193394,0.244966 -0.193394,0.647871 0,0.412574 0.196617,0.644648 0.196618,0.232073 0.547951,0.232073 z m 2.014526,-1.405333 v 1.682532 H 56.73964 V 50.40876 h 0.422244 l 1.14425,1.72121 v -1.72121 h 0.409352 v 2.330403 h -0.448031 z m 3.342497,0.741346 -0.367449,-0.995982 -0.373896,0.995982 z m -0.860605,0.3191 -0.232073,0.622086 h -0.415798 l 0.937963,-2.330403 h 0.419021 l 0.931517,2.330403 h -0.425468 l -0.235297,-0.622086 z m 3.545561,0.622086 H 61.539038 V 50.40876 h 0.409352 v 2.011302 h 1.228054 z m 2.046758,-1.298966 0.663987,-1.031437 h 0.4577 l -0.918623,1.369877 v 0.960526 H 65.016914 V 51.778637 L 64.082175,50.40876 h 0.46737 z m 2.623718,0.35778 -0.367449,-0.995982 -0.373896,0.995982 z m -0.860605,0.3191 -0.232073,0.622086 h -0.415798 l 0.937963,-2.330403 h 0.419021 l 0.931516,2.330403 H 68.201476 L 67.96618,52.117077 Z m 2.317507,-1.060446 v 1.682532 H 68.894471 V 50.40876 h 0.422244 l 1.14425,1.72121 v -1.72121 h 0.409352 v 2.330403 h -0.448031 z m 3.813091,1.398887 q -0.119259,0.167608 -0.299761,0.248189 -0.177278,0.07736 -0.406128,0.07736 -0.502826,0 -0.799364,-0.315878 -0.296538,-0.319101 -0.296538,-0.889614 0,-0.573737 0.312655,-0.889614 0.312654,-0.315878 0.844488,-0.315878 0.428691,0 0.69622,0.196618 0.270752,0.193394 0.325547,0.554397 h -0.409351 q -0.03223,-0.190171 -0.190171,-0.309431 -0.154716,-0.122483 -0.422245,-0.122483 -0.357779,0 -0.544727,0.232073 -0.186948,0.22885 -0.186948,0.654318 0,0.454477 0.196618,0.670434 0.196617,0.212734 0.535057,0.212734 0.296538,0 0.470593,-0.174055 0.174055,-0.174055 0.174055,-0.399682 v -0.04835 h -0.660764 v -0.3191 h 1.054 v 1.221608 h -0.393236 z m 2.117663,-1.395663 v 1.679308 H 74.838118 V 50.40876 h 0.518942 l 0.670433,1.808238 0.644648,-1.808238 h 0.531835 v 2.330403 h -0.399682 v -1.692201 l -0.605969,1.692201 h -0.344886 z m 2.913809,-0.651095 v 2.330403 H 77.739033 V 50.40876 Z m 0.944408,0.647871 v 1.682532 H 78.683442 V 50.40876 h 0.422244 l 1.14425,1.72121 v -1.72121 h 0.409352 v 2.330403 h -0.448031 z m 3.813088,1.398887 q -0.11926,0.167608 -0.299762,0.248189 -0.177278,0.07736 -0.406128,0.07736 -0.502825,0 -0.799364,-0.315878 -0.296538,-0.319101 -0.296538,-0.889614 0,-0.573737 0.312655,-0.889614 0.312654,-0.315878 0.844489,-0.315878 0.42869,0 0.696219,0.196618 0.270753,0.193394 0.325548,0.554397 h -0.409352 q -0.03223,-0.190171 -0.190171,-0.309431 -0.154716,-0.122483 -0.422244,-0.122483 -0.35778,0 -0.544728,0.232073 -0.186948,0.22885 -0.186948,0.654318 0,0.454477 0.196618,0.670434 0.196617,0.212734 0.535058,0.212734 0.296538,0 0.470593,-0.174055 0.174055,-0.174055 0.174055,-0.399682 v -0.04835 h -0.660765 v -0.3191 h 1.054 v 1.221608 h -0.393235 z m 3.377951,-0.528612 h 0.409352 q -0.01612,0.383566 -0.267529,0.618862 -0.251413,0.235297 -0.728452,0.235297 -0.564067,0 -0.863829,-0.319101 -0.296538,-0.319101 -0.296538,-0.886391 0,-0.560844 0.296538,-0.883168 0.299762,-0.322324 0.857382,-0.322324 0.448031,0 0.69622,0.206288 0.248189,0.203064 0.283645,0.528611 H 86.26127 q -0.02579,-0.186948 -0.170832,-0.299761 -0.145046,-0.116037 -0.409352,-0.116037 -0.325547,0 -0.522164,0.21918 -0.196618,0.219181 -0.196618,0.667211 0,0.454477 0.196618,0.670434 0.19984,0.215957 0.528611,0.215957 0.280422,0 0.431914,-0.145046 0.151492,-0.148269 0.164385,-0.390012 z m 1.218385,-0.222403 v 1.03466 H 87.092865 V 50.40876 h 0.409352 v 0.976642 h 1.118464 V 50.40876 h 0.409352 v 2.330403 h -0.409352 v -1.03466 z m 2.472225,-1.295743 v 2.330403 H 89.565091 V 50.40876 Z m 1.776001,1.389217 -0.36745,-0.995982 -0.373896,0.995982 z m -0.860606,0.3191 -0.232073,0.622086 h -0.415798 l 0.937963,-2.330403 h 0.419021 l 0.931517,2.330403 h -0.425468 l -0.235297,-0.622086 z m 4.148308,-0.531834 q 0,0.560843 -0.312654,0.879944 -0.309431,0.315878 -0.847713,0.315878 -0.54795,0 -0.857381,-0.319101 -0.309431,-0.319101 -0.309431,-0.876721 0,-0.56729 0.312654,-0.889614 0.312654,-0.325548 0.854158,-0.325548 0.547951,0 0.854159,0.322324 0.306208,0.322324 0.306208,0.892838 z m -1.160367,0.876721 q 0.351334,0 0.541505,-0.232073 0.193394,-0.232074 0.193394,-0.644648 0,-0.409352 -0.193394,-0.651095 -0.193395,-0.244966 -0.541505,-0.244966 -0.354556,0 -0.551174,0.24819 -0.193394,0.244966 -0.193394,0.647871 0,0.412574 0.196618,0.644648 0.196617,0.232073 0.54795,0.232073 z m 2.94604,-1.734103 H 96.098589 V 50.40876 h 1.856586 v 0.319101 h -0.722006 v 2.011302 h -0.409351 z m 3.394072,1.195822 q 0,0.406128 -0.254636,0.631755 -0.254636,0.225627 -0.725229,0.225627 -0.477039,0 -0.734898,-0.222404 -0.254636,-0.222403 -0.254636,-0.631755 V 50.40876 h 0.409351 v 1.498807 q 0,0.264305 0.145046,0.409351 0.145046,0.145046 0.435137,0.145046 0.273976,0 0.419021,-0.138599 0.14827,-0.141823 0.14827,-0.422245 v -1.49236 h 0.412574 z m 0.92829,-0.867052 v 1.682532 h -0.40935 V 50.40876 h 0.42225 l 1.14425,1.72121 v -1.72121 h 0.40935 v 2.330403 h -0.44803 z m 3.81309,1.398887 q -0.11926,0.167608 -0.29976,0.248189 -0.17727,0.07736 -0.40612,0.07736 -0.50283,0 -0.79937,-0.315878 -0.29654,-0.319101 -0.29654,-0.889614 0,-0.573737 0.31266,-0.889614 0.31265,-0.315878 0.84449,-0.315878 0.42869,0 0.69622,0.196618 0.27075,0.193394 0.32554,0.554397 h -0.40935 q -0.0322,-0.190171 -0.19017,-0.309431 -0.15471,-0.122483 -0.42224,-0.122483 -0.35778,0 -0.54473,0.232073 -0.18695,0.22885 -0.18695,0.654318 0,0.454477 0.19662,0.670434 0.19662,0.212734 0.53506,0.212734 0.29653,0 0.47059,-0.174055 0.17405,-0.174055 0.17405,-0.399682 v -0.04835 h -0.66076 v -0.3191 h 1.054 v 1.221608 h -0.39324 z m 3.67449,-0.531835 q 0,0.406128 -0.25463,0.631755 -0.25464,0.225627 -0.72523,0.225627 -0.47704,0 -0.7349,-0.222404 -0.25463,-0.222403 -0.25463,-0.631755 V 50.40876 h 0.40935 v 1.498807 q 0,0.264305 0.14504,0.409351 0.14505,0.145046 0.43514,0.145046 0.27398,0 0.41902,-0.138599 0.14827,-0.141823 0.14827,-0.422245 v -1.49236 h 0.41257 z m 0.9283,-0.867052 v 1.682532 h -0.40935 V 50.40876 h 0.42224 l 1.14425,1.72121 v -1.72121 h 0.40935 v 2.330403 h -0.44803 z m 2.5109,-0.647871 v 2.330403 h -0.40935 V 50.40876 Z m 2.39164,0 -0.82837,2.330403 h -0.47382 l -0.82193,-2.330403 h 0.43837 l 0.62208,1.917828 0.63176,-1.917828 z m 1.99196,2.330403 h -1.72443 V 50.40876 h 1.71476 v 0.319101 h -1.30541 v 0.657541 h 1.21838 v 0.319101 h -1.21838 v 0.715559 h 1.31508 z m 1.89205,-1.663192 q 0,-0.170832 -0.0903,-0.257859 -0.0902,-0.09025 -0.26108,-0.09025 h -0.69944 v 0.725229 h 0.67688 q 0.16761,0 0.27075,-0.09992 0.10315,-0.09992 0.10315,-0.277198 z m -1.05078,0.692996 v 0.970196 h -0.40935 V 50.40876 h 1.18615 q 0.3191,0 0.50605,0.170832 0.19017,0.167608 0.19017,0.477039 0,0.203065 -0.0967,0.34811 -0.0935,0.145046 -0.23529,0.206288 0.1805,0.103143 0.27719,0.357779 0.0967,0.254636 0.12249,0.770355 h -0.42547 q -0.0193,-0.541505 -0.11926,-0.754239 -0.0967,-0.215957 -0.31265,-0.215957 z m 2.72042,-0.0838 q -0.42547,-0.07736 -0.63176,-0.23852 -0.20628,-0.161162 -0.20628,-0.451253 0,-0.270752 0.21918,-0.448031 0.2224,-0.177278 0.68332,-0.177278 0.42225,0 0.65432,0.180502 0.23207,0.180501 0.25464,0.522165 h -0.40935 q -0.003,-0.164386 -0.12893,-0.273976 -0.12571,-0.10959 -0.38357,-0.10959 -0.24174,0 -0.35778,0.08058 -0.11604,0.08058 -0.11281,0.225627 0,0.157939 0.15471,0.235296 0.15794,0.07736 0.5125,0.148269 0.44481,0.09025 0.63175,0.244967 0.19017,0.154715 0.19017,0.464146 0,0.296538 -0.25141,0.496379 -0.25141,0.196618 -0.71556,0.196618 -0.47381,0 -0.73812,-0.199841 -0.26431,-0.199841 -0.26431,-0.57696 h 0.40936 q 0,0.209511 0.15794,0.335217 0.15793,0.122483 0.43836,0.122483 0.25785,0 0.4029,-0.09992 0.14505,-0.09992 0.14505,-0.261083 0,-0.186948 -0.14505,-0.267529 -0.14505,-0.08058 -0.50927,-0.148269 z m 1.86303,-1.276403 v 2.330403 h -0.40935 V 50.40876 Z m 1.03144,0.319101 h -0.72523 V 50.40876 h 1.85659 v 0.319101 h -0.72201 v 2.011302 h -0.40935 z m 2.30461,0.712336 0.66399,-1.031437 h 0.4577 l -0.91862,1.369877 v 0.960526 h -0.40935 v -0.960526 l -0.93474,-1.369877 h 0.46737 z"
         id="text5-8"
         transform="scale(0.92147914,1.0852118)"
         aria-label="NATIONAL YANG MING CHIAO TUNG UNIVERSITY&#10;" />
      <path
         d="m 43.542695,59.861528 h 1.940986 v 0.245041 h -1.940986 z m 0.348217,0.438495 h 1.289692 v 0.245041 h -1.289692 z m 0.109623,-0.341768 0.254715,0.06126 q -0.109624,0.274059 -0.293405,0.50298 -0.180557,0.22892 -0.396581,0.380459 -0.01612,-0.02579 -0.05159,-0.06126 -0.03547,-0.03547 -0.07416,-0.07093 -0.03547,-0.03547 -0.06448,-0.05804 0.20635,-0.128969 0.370786,-0.322423 0.16766,-0.196678 0.254714,-0.432046 z m 0.241818,0.438495 0.238593,0.07093 q -0.132194,0.296629 -0.354666,0.548119 -0.219247,0.248266 -0.464289,0.412701 -0.01612,-0.02902 -0.04836,-0.06771 -0.02902,-0.03547 -0.06448,-0.07416 -0.03224,-0.03547 -0.05804,-0.05481 0.235369,-0.141866 0.435271,-0.357889 0.203127,-0.219248 0.315975,-0.477186 z m 0.473961,0.0064 0.245042,0.05804 q -0.09995,0.312751 -0.27406,0.580362 -0.170884,0.264387 -0.380459,0.441719 -0.01612,-0.02257 -0.05159,-0.05481 -0.03547,-0.03224 -0.07416,-0.06448 -0.03869,-0.03224 -0.06771,-0.05159 0.206351,-0.157987 0.361114,-0.393356 0.157987,-0.238593 0.241817,-0.515877 z m 0.386908,-0.103175 h 0.280508 q 0,0 -0.0032,0.04514 0,0.04191 -0.0032,0.06771 -0.01612,0.319199 -0.03869,0.519101 -0.02257,0.199902 -0.05159,0.306302 -0.02902,0.106399 -0.06771,0.151539 -0.04191,0.04836 -0.08705,0.06771 -0.04192,0.01935 -0.09995,0.02902 -0.04836,0.0064 -0.128969,0.0064 -0.08061,0.0032 -0.170884,-0.0032 -0.0032,-0.05804 -0.02257,-0.132194 -0.01935,-0.07093 -0.04836,-0.12252 0.07738,0.0064 0.138641,0.0097 0.06126,0.0032 0.0935,0.0032 0.03224,0 0.05159,-0.0064 0.01935,-0.0064 0.03547,-0.02579 0.02902,-0.02902 0.04836,-0.12252 0.02257,-0.0935 0.04191,-0.27406 0.01935,-0.180557 0.03224,-0.473962 z m -1.012408,-1.038202 v 0.212799 h 0.854421 v -0.212799 z m 0,-0.415926 v 0.209575 h 0.854421 V 58.845895 Z M 43.81353,58.626648 h 1.421885 v 1.070444 H 43.81353 Z m -1.192965,0.0129 h 0.757694 v 0.27406 h -0.490083 v 2.582608 h -0.267611 z m 0.667416,0 h 0.04836 l 0.04514,-0.0129 0.199902,0.116072 q -0.04514,0.135417 -0.09673,0.290181 -0.05159,0.151538 -0.1064,0.299853 -0.05159,0.148314 -0.103175,0.277284 0.164435,0.193453 0.216023,0.361113 0.05159,0.16766 0.05159,0.315975 0,0.138642 -0.03224,0.238593 -0.02902,0.09995 -0.103175,0.151539 -0.03547,0.02579 -0.08061,0.04191 -0.04191,0.0129 -0.0935,0.02257 -0.0935,0.0097 -0.2128,0.0032 -0.0032,-0.05481 -0.02257,-0.12897 -0.01612,-0.07738 -0.04836,-0.132193 0.04836,0.0032 0.09028,0.0032 0.04191,0 0.07738,0 0.06126,-0.0032 0.09673,-0.02902 0.03224,-0.02579 0.04514,-0.08061 0.0129,-0.05481 0.0129,-0.125745 0,-0.12252 -0.05159,-0.277283 -0.05159,-0.154763 -0.209575,-0.332096 0.04192,-0.109624 0.0806,-0.235369 0.03869,-0.125745 0.07416,-0.25149 0.03869,-0.128969 0.06771,-0.238593 0.03224,-0.112848 0.05481,-0.190229 z m 2.714801,0.04836 h 0.925354 v 1.950659 h -0.925354 v -0.280508 h 0.641622 v -1.389643 h -0.641622 z m 0.0032,0.825403 h 0.75447 v 0.274059 h -0.75447 z m 1.370298,-0.876991 h 1.041427 v 0.280508 h -1.041427 z m 0,0.773815 h 1.041427 v 0.277284 h -1.041427 z m -0.01612,0.780264 h 1.054323 v 0.277284 h -1.054323 z m -1.521837,-1.502491 h 0.283733 v 2.24084 h -0.283733 z m 2.466536,-0.05159 h 0.303078 v 2.485882 q 0,0.128969 -0.03547,0.199902 -0.03224,0.07416 -0.116073,0.109624 -0.08705,0.03869 -0.225696,0.04836 -0.138642,0.0097 -0.344992,0.0097 -0.0064,-0.04192 -0.02579,-0.09673 -0.01612,-0.05481 -0.03869,-0.109624 -0.01934,-0.05159 -0.04514,-0.09028 0.09673,0.0032 0.190229,0.0032 0.0935,0 0.161212,0 0.07093,0 0.09995,0 0.04514,-0.0032 0.06126,-0.01935 0.01612,-0.01612 0.01612,-0.05804 z m -1.109135,0 h 0.29663 v 1.157499 q 0,0.206351 -0.02257,0.438495 -0.02257,0.232145 -0.09028,0.464289 -0.06771,0.232145 -0.203126,0.444944 -0.132193,0.209575 -0.354665,0.374011 -0.02257,-0.02902 -0.06448,-0.07093 -0.03869,-0.03869 -0.08383,-0.07738 -0.04514,-0.03869 -0.07738,-0.05804 0.203126,-0.154763 0.322423,-0.338544 0.12252,-0.183781 0.180556,-0.386908 0.06126,-0.203126 0.07738,-0.403029 0.01934,-0.199902 0.01934,-0.390131 z m 3.66595,1.183293 0.325647,0.0935 q -0.177332,0.444944 -0.473962,0.75447 -0.296629,0.309526 -0.693209,0.512653 -0.39658,0.199902 -0.889888,0.322423 -0.01612,-0.03869 -0.05159,-0.0935 -0.03547,-0.05159 -0.07416,-0.1064 -0.03547,-0.05159 -0.06771,-0.08705 0.48041,-0.09995 0.860869,-0.274059 0.383683,-0.174109 0.651294,-0.448168 0.267612,-0.277284 0.412702,-0.673864 z m -1.044651,-0.554568 0.312751,0.119297 q -0.116073,0.151538 -0.267611,0.299853 -0.148315,0.148315 -0.312751,0.277284 -0.164435,0.128969 -0.319198,0.225696 -0.02902,-0.03224 -0.07416,-0.07738 -0.04514,-0.04514 -0.0935,-0.09028 -0.04836,-0.04514 -0.08383,-0.07093 0.154763,-0.08061 0.309526,-0.19023 0.157987,-0.109624 0.293405,-0.235369 0.138641,-0.128969 0.235368,-0.257938 z m 0.199903,0.573913 q 0.219247,0.554568 0.699658,0.89956 0.48041,0.344993 1.225207,0.464289 -0.03547,0.03547 -0.07416,0.08705 -0.03869,0.05481 -0.07416,0.106399 -0.03224,0.05481 -0.05481,0.09995 -0.515876,-0.103175 -0.902784,-0.306302 -0.386908,-0.203126 -0.660967,-0.519101 -0.27406,-0.315974 -0.451392,-0.744797 z m -1.00596,-0.938251 h 2.843771 v 0.296629 h -2.843771 z m 1.25745,-0.406253 h 0.315974 v 0.599707 h -0.315974 z m 0.512652,0.935027 0.25149,-0.187006 q 0.148315,0.09995 0.309526,0.225697 0.164436,0.12252 0.309526,0.248265 0.148315,0.122521 0.241818,0.228921 l -0.270836,0.212799 q -0.08383,-0.1064 -0.225696,-0.235369 -0.138642,-0.128969 -0.303078,-0.257938 -0.161211,-0.132194 -0.31275,-0.235369 z m 2.121544,0.33532 v 1.163947 H 52.60923 v -0.880215 h -0.44172 v -0.283732 z m 0,1.041426 q 0.106399,0.170884 0.296629,0.25149 0.19023,0.08061 0.457841,0.0935 0.138642,0.0032 0.33532,0.0064 0.199902,0 0.415925,0 0.219248,-0.0032 0.422374,-0.0097 0.206351,-0.0097 0.364338,-0.01935 -0.01612,0.03224 -0.03869,0.08705 -0.01935,0.05159 -0.03547,0.1064 -0.01612,0.05804 -0.02579,0.103175 -0.138642,0.0064 -0.328871,0.0097 -0.187006,0.0064 -0.390132,0.0064 -0.203127,0.0032 -0.390132,0 -0.187005,-0.0032 -0.328871,-0.0064 -0.303078,-0.0129 -0.519101,-0.09995 -0.216024,-0.08705 -0.364338,-0.277284 -0.116073,0.103175 -0.241818,0.203126 -0.125745,0.09995 -0.261162,0.206351 l -0.145091,-0.303077 q 0.116073,-0.07416 0.25149,-0.16766 0.138642,-0.0935 0.261163,-0.19023 z m -0.686761,-2.044162 0.212799,-0.190229 q 0.103175,0.06771 0.209575,0.157987 0.109624,0.09028 0.199902,0.183781 0.0935,0.09028 0.148315,0.170884 l -0.228921,0.212799 q -0.05159,-0.07738 -0.141866,-0.170884 -0.08705,-0.09673 -0.193453,-0.190229 -0.103176,-0.09673 -0.206351,-0.174109 z m 1.29614,0.315975 0.196678,-0.16766 q 0.148315,0.05481 0.319199,0.125745 0.174108,0.06771 0.332096,0.141866 0.157987,0.07416 0.267611,0.138642 l -0.209575,0.187005 q -0.09673,-0.06126 -0.25149,-0.135418 -0.154763,-0.07738 -0.328872,-0.154763 -0.170884,-0.07738 -0.325647,-0.135417 z m -0.299853,0.232144 h 1.657254 v 0.225696 h -1.370298 v 1.444455 h -0.286956 z m 1.512164,0 h 0.293405 v 1.389643 q 0,0.09995 -0.02579,0.157988 -0.02579,0.05481 -0.0935,0.08705 -0.06771,0.02902 -0.177332,0.03869 -0.1064,0.0064 -0.261163,0.0064 -0.0097,-0.05804 -0.03224,-0.125745 -0.02257,-0.07093 -0.04836,-0.119296 0.09673,0.0032 0.180557,0.0032 0.08705,0 0.112848,0 0.03224,-0.0032 0.04192,-0.0129 0.0097,-0.0129 0.0097,-0.04192 z m -1.499267,-0.686761 h 1.576648 v 0.235369 h -1.576648 z m 0.14509,1.15105 h 1.460576 v 0.219248 h -1.460576 z m 0,0.46429 h 1.460576 v 0.22892 h -1.460576 z m 0.596483,-0.828628 h 0.274059 v 1.557304 h -0.274059 z m 0.7319,-0.786712 h 0.06771 l 0.06126,-0.01612 0.183781,0.14509 q -0.109624,0.103176 -0.248265,0.206351 -0.138642,0.103176 -0.290181,0.193454 -0.151539,0.08705 -0.299854,0.154763 -0.02902,-0.04191 -0.07738,-0.0935 -0.04514,-0.05159 -0.08061,-0.0806 0.128969,-0.05804 0.257939,-0.135418 0.132193,-0.07738 0.245041,-0.161212 0.112848,-0.08383 0.180557,-0.157987 z m 0.764142,0.77704 h 2.85022 v 0.315974 h -2.85022 z m 1.605667,0.125745 q 0.103175,0.380459 0.277284,0.70933 0.177332,0.328872 0.432046,0.577137 0.257939,0.245042 0.596483,0.386908 -0.03869,0.03224 -0.08383,0.08383 -0.04192,0.05159 -0.08061,0.103175 -0.03869,0.05481 -0.06448,0.09673 -0.35789,-0.16766 -0.625501,-0.441719 -0.264387,-0.277284 -0.448168,-0.641622 -0.183781,-0.364338 -0.309526,-0.799609 z m -0.354666,-1.025305 h 0.332096 q 0,0.22892 -0.0129,0.493307 -0.0097,0.261162 -0.04836,0.538446 -0.03869,0.277284 -0.125745,0.554568 -0.08705,0.277284 -0.241817,0.535222 -0.154763,0.257938 -0.396581,0.48041 -0.241817,0.219248 -0.590034,0.383684 -0.03869,-0.06126 -0.103175,-0.135418 -0.06448,-0.07093 -0.128969,-0.119297 0.33532,-0.151538 0.56424,-0.351441 0.232144,-0.203126 0.374011,-0.438495 0.14509,-0.238593 0.222471,-0.493307 0.07738,-0.254714 0.109624,-0.509429 0.03224,-0.254714 0.03869,-0.493307 0.0064,-0.238593 0.0064,-0.444943 z m 2.521349,1.093014 h 1.550855 v 0.267611 h -1.550855 z m -0.554567,0.7319 h 2.86634 v 0.280508 h -2.86634 z m 1.270346,-0.225696 h 0.31275 v 1.051099 q 0,0.125745 -0.03869,0.193453 -0.03547,0.06771 -0.138642,0.103176 -0.09995,0.03224 -0.248266,0.03869 -0.148314,0.0097 -0.364338,0.0097 -0.0129,-0.06448 -0.05159,-0.151539 -0.03547,-0.08383 -0.07416,-0.14509 0.112848,0.0032 0.219248,0.0064 0.109624,0.0032 0.190229,0.0032 0.08061,-0.0032 0.112848,-0.0032 0.04836,-0.0032 0.06448,-0.01612 0.01612,-0.0129 0.01612,-0.04836 z m 0.738349,-0.506204 h 0.07416 l 0.06771,-0.01612 0.193454,0.148315 q -0.109624,0.116072 -0.25149,0.22892 -0.141866,0.112848 -0.299854,0.209575 -0.154763,0.09673 -0.309526,0.170884 -0.02902,-0.04192 -0.0806,-0.0935 -0.04836,-0.05481 -0.08705,-0.08705 0.132194,-0.06126 0.264387,-0.148315 0.135418,-0.08705 0.248266,-0.177333 0.112848,-0.0935 0.180557,-0.177332 z m -1.957108,-0.567465 h 2.76639 v 0.751246 h -0.299854 v -0.480411 h -2.176355 v 0.480411 h -0.290181 z m 2.273082,-0.506204 0.325648,0.103175 q -0.1064,0.154763 -0.225696,0.306302 -0.119297,0.151539 -0.219248,0.257939 l -0.245042,-0.09673 q 0.06448,-0.07738 0.132194,-0.177333 0.06771,-0.09995 0.128969,-0.203126 0.06448,-0.103176 0.103175,-0.19023 z m -2.053834,0.132193 0.257938,-0.116072 q 0.09028,0.09673 0.177333,0.219248 0.08705,0.12252 0.125745,0.216023 l -0.270835,0.132194 q -0.03869,-0.0935 -0.122521,-0.219248 -0.08383,-0.125745 -0.16766,-0.232145 z m 0.822178,-0.06771 0.267612,-0.09995 q 0.07738,0.109624 0.151538,0.248266 0.07738,0.135418 0.1064,0.235369 l -0.283732,0.112848 q -0.02579,-0.103175 -0.09673,-0.241817 -0.06771,-0.141866 -0.145091,-0.254714 z"
         id="text5-9-1"
         style="font-weight:500;font-size:3.22423px;line-height:1.25;font-family:'Noto Sans JP';-inkscape-font-specification:'Noto Sans JP Medium';fill:#f9f9f9;stroke-width:0.115152"
         aria-label="陽明交通大学" />
      <path
         style="font-weight:500;font-size:3.22423px;line-height:1.25;font-family:'Noto Sans kr';-inkscape-font-specification:'Noto Sans kr Medium';fill:#f9f9f9;stroke-width:0.115152"
         d="m 67.413577,59.027385 h 0.506204 v 0.277284 h -0.506204 z m 0,0.63195 h 0.506204 v 0.280508 h -0.506204 z m -1.37997,-0.867318 q 0.225696,0 0.403028,0.09028 0.177333,0.09028 0.277284,0.248266 0.103176,0.157987 0.103176,0.364338 0,0.206351 -0.103176,0.364338 -0.09995,0.157987 -0.277284,0.248266 -0.177332,0.09028 -0.403028,0.09028 -0.222472,0 -0.399805,-0.09028 -0.177333,-0.09028 -0.280508,-0.248266 -0.09995,-0.157987 -0.09995,-0.364338 0,-0.206351 0.09995,-0.364338 0.103175,-0.157987 0.280508,-0.248266 0.177333,-0.09028 0.399805,-0.09028 z m 0,0.283732 q -0.12897,0 -0.232145,0.05159 -0.09995,0.05159 -0.161211,0.148314 -0.05804,0.0935 -0.05804,0.219248 0,0.128969 0.05804,0.222472 0.06126,0.0935 0.161211,0.14509 0.103175,0.05159 0.232145,0.05159 0.132193,0 0.235368,-0.05159 0.103176,-0.05159 0.161212,-0.14509 0.05804,-0.0935 0.05804,-0.222472 0,-0.125745 -0.05804,-0.219248 -0.05804,-0.09673 -0.161212,-0.148314 -0.103175,-0.05159 -0.235368,-0.05159 z m 1.144601,-0.451392 h 0.33532 v 1.731411 h -0.33532 z m -0.612603,1.812017 q 0.303077,0 0.522325,0.06771 0.219247,0.06771 0.338544,0.193454 0.119296,0.125745 0.119296,0.303077 0,0.177333 -0.119296,0.303078 -0.119297,0.125745 -0.338544,0.193454 -0.219248,0.06771 -0.522325,0.06771 -0.303078,0 -0.522326,-0.06771 -0.219247,-0.06771 -0.338544,-0.193454 -0.119296,-0.125745 -0.119296,-0.303078 0,-0.177332 0.119296,-0.303077 0.119297,-0.125745 0.338544,-0.193454 0.219248,-0.06771 0.522326,-0.06771 z m 0,0.267611 q -0.203127,0 -0.348217,0.03547 -0.145091,0.03224 -0.222472,0.09995 -0.07738,0.06448 -0.07738,0.161211 0,0.09673 0.07738,0.164436 0.07738,0.06771 0.222472,0.103175 0.14509,0.03224 0.348217,0.03224 0.20635,0 0.348216,-0.03224 0.145091,-0.03547 0.222472,-0.103175 0.07738,-0.06771 0.07738,-0.164436 0,-0.09673 -0.07738,-0.161211 -0.07738,-0.06771 -0.222472,-0.09995 -0.141866,-0.03547 -0.348216,-0.03547 z m 1.766878,-1.870053 h 1.396091 v 1.302589 h -1.396091 z m 1.06722,0.270835 h -0.738349 v 0.760918 h 0.738349 z m 0.870542,-0.48041 h 0.338544 v 1.747532 h -0.338544 z m -0.641622,1.79912 q 0.306302,0 0.528774,0.06771 0.225696,0.06771 0.344993,0.196678 0.12252,0.125745 0.12252,0.306302 0,0.180557 -0.12252,0.309526 -0.119297,0.128969 -0.344993,0.193454 -0.222472,0.06771 -0.528774,0.06771 -0.306301,0 -0.531998,-0.06771 -0.222471,-0.06448 -0.344992,-0.193454 -0.119297,-0.128969 -0.119297,-0.309526 0,-0.180557 0.119297,-0.306302 0.122521,-0.125745 0.344992,-0.193454 0.225697,-0.07093 0.531998,-0.07093 z m 0,0.264387 q -0.209575,0 -0.357889,0.03547 -0.148315,0.03547 -0.225696,0.103176 -0.07738,0.06771 -0.07738,0.16766 0,0.09995 0.07738,0.170884 0.07738,0.06771 0.225696,0.103175 0.148314,0.03547 0.357889,0.03547 0.209575,0 0.354666,-0.03547 0.148314,-0.03547 0.225696,-0.103175 0.08061,-0.07093 0.08061,-0.170884 0,-0.09995 -0.08061,-0.16766 -0.07738,-0.06771 -0.225696,-0.103176 -0.145091,-0.03547 -0.354666,-0.03547 z m 1.786224,-1.789448 h 1.88295 v 0.27406 h -1.88295 z m -0.267611,2.008696 h 2.663214 v 0.277283 h -2.663214 z m 0.612604,-0.954373 h 0.332095 v 1.047875 H 71.75984 Z m 1.434782,-1.054323 h 0.33532 v 0.306302 q 0,0.183781 -0.0032,0.383683 -0.0032,0.199903 -0.02579,0.432047 -0.01935,0.232145 -0.07093,0.519101 l -0.33532,-0.03547 q 0.07416,-0.406253 0.08705,-0.715779 0.0129,-0.312751 0.0129,-0.583586 z m -0.706106,1.054323 h 0.332095 v 1.047875 h -0.332095 z m 1.621788,0.2128 h 2.663214 v 0.267611 h -2.663214 z m 1.163947,-0.351441 h 0.33532 v 0.454616 h -0.33532 z m -0.822178,-0.151539 h 2.024816 v 0.261162 h -2.024816 z m 0,-0.960821 h 2.005471 v 0.261163 h -1.666927 v 0.844748 h -0.338544 z m 0.238593,0.48041 h 1.69272 v 0.25149 h -1.69272 z m 0.748021,1.431559 q 0.483634,0 0.748021,0.12252 0.267611,0.119297 0.267611,0.354666 0,0.232144 -0.267611,0.351441 -0.264387,0.12252 -0.748021,0.12252 -0.48041,0 -0.748021,-0.12252 -0.264387,-0.119297 -0.264387,-0.351441 0,-0.235369 0.264387,-0.354666 0.267611,-0.12252 0.748021,-0.12252 z m 0,0.25149 q -0.332096,0 -0.50298,0.05804 -0.170884,0.05481 -0.170884,0.16766 0,0.112848 0.170884,0.170884 0.170884,0.05481 0.50298,0.05481 0.33532,0 0.506204,-0.05481 0.170884,-0.05804 0.170884,-0.170884 0,-0.112848 -0.170884,-0.16766 -0.170884,-0.05804 -0.506204,-0.05804 z m 3.830385,-2.244065 h 0.322423 v 2.946947 h -0.322423 z m -0.451392,1.160723 h 0.535222 v 0.277284 H 78.81768 Z m -0.212799,-1.099462 h 0.315974 v 2.740595 h -0.315974 z m -1.428334,1.908744 h 0.196678 q 0.203126,0 0.37401,-0.0064 0.170885,-0.0064 0.332096,-0.02257 0.164436,-0.01935 0.33532,-0.05159 l 0.03224,0.277284 q -0.177332,0.03547 -0.344992,0.05481 -0.16766,0.01612 -0.344993,0.02257 -0.174108,0.0064 -0.383683,0.0064 h -0.196678 z m 0,-1.618563 h 1.089789 v 0.274059 h -0.757694 v 1.473473 h -0.332095 z m 2.872788,-0.06126 h 1.73786 v 0.267611 h -1.73786 z m 0.870543,0.393356 q 0.209575,0 0.370786,0.06771 0.161212,0.06771 0.25149,0.19023 0.09028,0.119296 0.09028,0.280508 0,0.161211 -0.09028,0.283732 -0.09028,0.119296 -0.25149,0.187005 -0.161211,0.06448 -0.370786,0.06448 -0.2128,0 -0.374011,-0.06448 -0.161212,-0.06771 -0.25149,-0.187005 -0.09028,-0.122521 -0.09028,-0.283732 0,-0.161212 0.09028,-0.280508 0.09028,-0.122521 0.25149,-0.19023 0.161211,-0.06771 0.374011,-0.06771 z m 0,0.261163 q -0.177333,0 -0.286957,0.07416 -0.1064,0.07093 -0.1064,0.203127 0,0.128969 0.1064,0.203126 0.109624,0.07416 0.286957,0.07416 0.174108,0 0.280508,-0.07416 0.106399,-0.07416 0.106399,-0.203126 0,-0.132194 -0.106399,-0.203127 -0.1064,-0.07416 -0.280508,-0.07416 z m 1.089789,-0.941475 h 0.33532 v 1.844259 h -0.33532 z m 0.245042,0.786712 h 0.506204 v 0.280508 h -0.506204 z m -1.84426,1.199413 h 1.934538 v 0.960821 h -0.33532 v -0.689985 h -1.599218 z m 0.338544,-2.002246 h 0.338545 v 0.454616 h -0.338545 z m 2.531023,0.29018 h 1.88295 v 0.27406 h -1.88295 z m -0.267611,2.008696 h 2.663214 v 0.277283 h -2.663214 z m 0.612603,-0.954373 h 0.332096 v 1.047875 h -0.332096 z m 1.434783,-1.054323 h 0.33532 v 0.306302 q 0,0.183781 -0.0032,0.383683 -0.0032,0.199903 -0.02579,0.432047 -0.01935,0.232145 -0.07093,0.519101 l -0.33532,-0.03547 q 0.07416,-0.406253 0.08705,-0.715779 0.0129,-0.312751 0.0129,-0.583586 z m -0.706107,1.054323 h 0.332096 v 1.047875 h -0.332096 z"
         id="text5-9-1-0"
         aria-label="양밍교통대학교" />
      <path
         id="rect2"
         style="fill:#ffffff;stroke-width:0.752963"
         d="m 38.103825,44.846798 h 1.043293 v 16.655857 h -1.043293 z" />
    </g>
    <text
       xml:space="preserve"
       transform="matrix(0.31615295,0,0,0.31615295,-10.474341,-6.4462013)"
       id="text6"
       style="font-size:55px;line-height:1.25;font-family:'Microsoft JhengHei';-inkscape-font-specification:'Microsoft JhengHei';white-space:pre;shape-inside:url(#rect6);display:inline" />
  </g>
</svg>
