<?xml version="1.0" encoding="UTF-8" standalone="no"?>
<!-- Created with Inkscape (http://www.inkscape.org/) -->

<svg
   width="500"
   height="250"
   viewBox="0 0 132.29166 66.145833"
   version="1.1"
   id="svg1"
   inkscape:version="1.3.2 (091e20e, 2023-11-25, custom)"
   sodipodi:docname="r21.svg"
   xmlns:inkscape="http://www.inkscape.org/namespaces/inkscape"
   xmlns:sodipodi="http://sodipodi.sourceforge.net/DTD/sodipodi-0.dtd"
   xmlns="http://www.w3.org/2000/svg"
   xmlns:svg="http://www.w3.org/2000/svg">
  <sodipodi:namedview
     id="namedview1"
     pagecolor="#9e652e"
     bordercolor="#ffffff"
     borderopacity="1"
     inkscape:showpageshadow="0"
     inkscape:pageopacity="0"
     inkscape:pagecheckerboard="false"
     inkscape:deskcolor="#d1d1d1"
     inkscape:document-units="mm"
     inkscape:zoom="2.0208096"
     inkscape:cx="296.9107"
     inkscape:cy="82.640146"
     inkscape:window-width="1920"
     inkscape:window-height="1009"
     inkscape:window-x="1912"
     inkscape:window-y="-8"
     inkscape:window-maximized="1"
     inkscape:current-layer="layer1" />
  <defs
     id="defs1">
    <rect
       x="560.66638"
       y="34.144731"
       width="279.32397"
       height="128.59143"
       id="rect6" />
    <rect
       x="157.85752"
       y="62.351248"
       width="541.85369"
       height="99.322566"
       id="rect4" />
    <rect
       x="157.85751"
       y="62.35125"
       width="329.07602"
       height="135.09438"
       id="rect4-5" />
    <rect
       x="157.85751"
       y="62.35125"
       width="470.56151"
       height="119.92888"
       id="rect4-5-3" />
    <rect
       x="157.85751"
       y="62.35125"
       width="460.82318"
       height="88.90795"
       id="rect4-5-32" />
  </defs>
  <g
     inkscape:label="Layer 1"
     inkscape:groupmode="layer"
     id="layer1">
    <rect
       style="fill:#d0002b;fill-opacity:1;stroke:none;stroke-width:0.953294;stroke-dasharray:none"
       id="rect5"
       width="132.29167"
       height="66.145836"
       x="-2.5431316e-06"
       y="-1.2715658e-06"
       ry="0" />
    <g
       id="g16"
       transform="matrix(1.1095583,0,0,1.1095583,20.062978,-3.6234118)">
      <path
         id="rect1"
         style="fill-opacity:0;stroke:#ffffff;stroke-width:0.810881"
         d="m 18.989333,16.971979 h 10.686722 c 3.377614,0 6.096777,2.719163 6.096777,6.096777 v 20.00832 c 0,3.377614 -2.719163,6.096777 -6.096777,6.096777 H 18.989333 c -3.377614,0 -6.096777,-2.719163 -6.096777,-6.096777 v -20.00832 c 0,-3.377614 2.719163,-6.096777 6.096777,-6.096777 z" />
      <path
         style="font-size:12.2918px;line-height:1.25;font-family:'AR UDJingXiHeiE1G30 EB';-inkscape-font-specification:'AR UDJingXiHeiE1G30 EB';fill:#ffffff;stroke-width:0.256079"
         d="m 26.182626,24.962252 q 0,-0.651466 -0.344171,-0.983344 -0.34417,-0.344171 -0.995635,-0.344171 h -2.667321 v 2.765655 h 2.581278 q 0.639174,0 1.032511,-0.381046 0.393338,-0.381045 0.393338,-1.057094 z m -4.007127,2.642737 V 31.30482 H 20.61444 v -8.886971 h 4.523383 q 1.216888,0 1.929812,0.651465 0.725216,0.639174 0.725216,1.819187 0,0.774383 -0.368754,1.327514 -0.356462,0.553131 -0.897301,0.786675 0.688341,0.393338 1.057095,1.36439 0.368754,0.971052 0.467088,2.93774 h -1.622517 q -0.07375,-2.065022 -0.454797,-2.876281 -0.368754,-0.82355 -1.192304,-0.82355 z"
         id="text2"
         aria-label="R" />
      <path
         style="font-size:12.3781px;line-height:1.25;font-family:'AR UDJingXiHeiE1G30 EB';-inkscape-font-specification:'AR UDJingXiHeiE1G30 EB';fill:#ffffff;stroke-width:0.225056"
         d="m 17.710383,37.058399 q 0,-1.386348 0.841711,-2.178546 0.841711,-0.804577 2.203302,-0.804577 1.398725,0 2.178545,0.705552 0.792199,0.693174 0.792199,1.930984 0,0.878845 -0.569393,1.770068 -0.557014,0.878845 -1.75769,1.943362 l -1.683422,1.522506 h 3.985749 v 1.225432 h -6.028135 v -1.126407 l 2.500376,-2.252814 q 1.101651,-1.002626 1.534884,-1.708178 0.445612,-0.71793 0.445612,-1.373969 0,-0.618905 -0.358965,-1.002626 -0.358965,-0.383721 -1.03976,-0.383721 -0.680796,0 -1.101651,0.470367 -0.420856,0.470368 -0.420856,1.262567 z m 9.766313,-0.965492 -1.448238,1.349213 -0.71793,-1.101651 2.327083,-2.116655 h 1.349213 v 8.949366 h -1.510128 z"
         id="text3"
         aria-label="21" />
      <path
         style="font-weight:500;font-size:72px;line-height:1.25;font-family:'Noto Sans TC';-inkscape-font-specification:'Noto Sans TC Medium';white-space:pre;fill:#ffffff"
         d="m 161.45742,102.82541 h 65.016 v 6.12 h -65.016 z m 3.6,-21.744004 h 57.744 v 6.048 h -57.744 z m 44.856,24.768004 h 7.056 v 28.008 q 0,2.736 -0.864,4.248 -0.792,1.584 -2.952,2.376 -2.232,0.72 -5.688,0.864 -3.456,0.216 -8.352,0.216 -0.288,-1.44 -1.008,-3.312 -0.72,-1.8 -1.512,-3.168 2.52,0.072 4.896,0.144 2.376,0.072 4.104,0.072 1.8,-0.072 2.448,-0.072 1.152,-0.072 1.512,-0.36 0.36,-0.288 0.36,-1.152 z m -41.4,8.28 h 6.48 v 23.976 h -6.48 z m 5.04,0 h 24.84 v 19.296 h -24.84 v -5.4 h 18.36 v -8.496 h -18.36 z m 17.208,-39.528004 h 7.056 q -0.432,4.968 -1.368,9 -0.936,4.032 -2.88,7.2 -1.872,3.096 -5.256,5.472 -3.312,2.304 -8.496,3.960004 -5.184,1.584 -12.744,2.592 -0.36,-1.152 -1.296,-2.736 -0.936,-1.656004 -1.728,-2.592004 6.768,-0.792 11.304,-2.016 4.608,-1.296 7.488,-3.168 2.952,-1.872 4.536,-4.392 1.584,-2.52 2.304,-5.832 0.792,-3.312 1.08,-7.488 z m -2.304,16.848 5.04,-4.32 q 3.528,1.152 7.344,2.52 3.888,1.368 7.704,2.88 3.816,1.44 7.2,2.88 3.456,1.368 6.12,2.52 l -5.04,4.824004 q -2.52,-1.224 -5.904,-2.664 -3.384,-1.512004 -7.272,-3.024004 -3.816,-1.512 -7.776,-2.952 -3.888,-1.44 -7.416,-2.664 z m 45.216,9.072004 h 64.512 v 6.48 h -64.512 z m 17.568,31.968 h 38.088 v 6.12 h -38.088 z m -3.672,-16.992 h 45.792 v 25.92 h -7.128 v -19.728 h -31.896 v 20.016 h -6.768 z m -9.288,-37.728004 h 6.84 v 9.864 h 41.544 v -9.864 h 7.2 v 16.056 h -55.584 z m 24.048,-3.168 h 6.984 v 16.632 h -6.984 z m -7.272,26.496004 6.984,2.016 q -2.664,5.832 -6.552,11.304 -3.888,5.472 -8.928,10.152 -4.968,4.68 -10.872,7.92 -0.504,-0.792 -1.296,-1.8 -0.72,-1.008 -1.512,-2.016 -0.792,-1.008 -1.44,-1.728 5.4,-2.808 10.008,-6.984 4.68,-4.176 8.136,-9.072 3.528,-4.896 5.472,-9.792 z"
         id="text4"
         transform="matrix(0.22505692,0,0,0.22505692,3.4694169,1.1325221)"
         aria-label="奇岩" />
      <path
         style="font-size:6.30159px;line-height:1.25;font-family:'AR UDJingXiHeiE1G30 EB';-inkscape-font-specification:'AR UDJingXiHeiE1G30 EB';fill:#ffffff;stroke-width:0.225056"
         d="m 43.786425,39.282777 0.560841,0.466317 -0.403301,0.47262 -0.686874,-0.579747 q -0.233159,0.113429 -0.51673,0.170143 -0.27727,0.06302 -0.586048,0.06302 -1.07127,0 -1.676223,-0.623857 -0.604953,-0.623858 -0.604953,-1.714033 0,-1.109079 0.611255,-1.739238 0.611254,-0.636461 1.669921,-0.636461 1.07127,0 1.669921,0.630159 0.598651,0.630159 0.598651,1.74554 0,0.560842 -0.163841,1.001953 -0.163841,0.441111 -0.472619,0.743588 z m -1.632112,-3.497383 q -0.693175,0 -1.077572,0.485223 -0.378095,0.478921 -0.378095,1.266619 0,0.806604 0.384397,1.260318 0.384397,0.453715 1.07127,0.453715 0.151238,0 0.283572,-0.02521 0.138635,-0.02521 0.258365,-0.07562 l -0.485223,-0.409603 0.428508,-0.460016 0.573445,0.485222 q 0.182746,-0.207952 0.27727,-0.51673 0.100826,-0.315079 0.100826,-0.71208 0,-0.800302 -0.378096,-1.272921 -0.378095,-0.478921 -1.058667,-0.478921 z m 3.938495,-0.548238 v 4.55605 h -0.800302 v -4.55605 z m 2.734885,2.016509 1.298128,-2.016509 h 0.894826 l -1.795954,2.678176 v 1.877874 H 48.424392 V 37.915332 L 46.59693,35.237156 h 0.913731 z m 5.129498,0.699476 -0.718381,-1.947191 -0.730984,1.947191 z m -1.682524,0.623858 -0.453715,1.216207 h -0.812905 l 1.833763,-4.55605 h 0.819206 l 1.82116,4.55605 h -0.83181 L 54.19035,38.576999 Z m 4.530837,-2.073223 v 3.28943 h -0.800302 v -4.55605 h 0.825508 l 2.237065,3.365049 v -3.365049 h 0.800302 v 4.55605 h -0.875921 z"
         id="text5"
         aria-label="QIYAN" />
      <path
         d="m 39.723958,44.427671 h 5.690336 v 0.535635 h -5.690336 z m 0.315079,-1.90308 h 5.053875 v 0.529334 h -5.053875 z m 3.925891,2.167747 h 0.617556 v 2.451318 q 0,0.239461 -0.07562,0.371794 -0.06932,0.138635 -0.258366,0.207953 -0.195349,0.06302 -0.497825,0.07562 -0.302477,0.0189 -0.730985,0.0189 -0.02521,-0.126032 -0.08822,-0.289874 -0.06302,-0.157539 -0.132333,-0.27727 0.220555,0.0063 0.428508,0.0126 0.207952,0.0063 0.35919,0.0063 0.15754,-0.0063 0.214255,-0.0063 0.100825,-0.0063 0.132333,-0.03151 0.03151,-0.02521 0.03151,-0.100826 z m -3.623414,0.724683 h 0.567143 v 2.098429 h -0.567143 z m 0.441111,0 h 2.174048 v 1.688826 H 40.782625 V 46.633228 H 42.38953 V 45.88964 h -1.606905 z m 1.50608,-3.459573 h 0.617556 q -0.03781,0.43481 -0.11973,0.787699 -0.08192,0.352889 -0.252064,0.630159 -0.163841,0.270968 -0.460016,0.47892 -0.289873,0.201651 -0.743588,0.346588 -0.453714,0.138635 -1.115381,0.226857 -0.03151,-0.100825 -0.113429,-0.23946 -0.08192,-0.144937 -0.151238,-0.226857 0.59235,-0.06932 0.98935,-0.176445 0.403301,-0.113429 0.655365,-0.27727 0.258365,-0.163841 0.397,-0.384397 0.138635,-0.220556 0.201651,-0.510429 0.06932,-0.289873 0.09452,-0.655365 z m -0.201651,1.474572 0.441111,-0.378095 q 0.308778,0.100825 0.642763,0.220555 0.340285,0.11973 0.67427,0.252064 0.333984,0.126032 0.630159,0.252063 0.302476,0.119731 0.535635,0.220556 L 44.569881,44.42137 Q 44.349325,44.314243 44.05315,44.188211 43.756975,44.055877 43.41669,43.923544 43.082705,43.791211 42.736118,43.665179 42.395832,43.539147 42.087054,43.43202 Z m 3.957399,0.794 h 5.646224 v 0.567143 h -5.646224 z m 1.537588,2.797906 h 3.333541 v 0.535635 h -3.333541 z m -0.321382,-1.487175 h 4.007812 v 2.268572 h -0.623858 v -1.726635 h -2.791604 v 1.751842 h -0.59235 z m -0.812905,-3.302033 h 0.598651 v 0.863318 h 3.636018 v -0.863318 h 0.630159 v 1.405254 h -4.864828 z m 2.104731,-0.27727 h 0.611255 v 1.455667 h -0.611255 z m -0.63646,2.318985 0.611254,0.176445 q -0.233159,0.510428 -0.573445,0.989349 -0.340286,0.478921 -0.781397,0.888524 -0.43481,0.409604 -0.95154,0.693175 -0.04411,-0.06932 -0.113429,-0.15754 -0.06302,-0.08822 -0.132333,-0.176444 -0.06932,-0.08822 -0.126032,-0.151238 0.47262,-0.245762 0.875921,-0.611254 0.409604,-0.365493 0.71208,-0.794001 0.308778,-0.428508 0.478921,-0.857016 z"
         id="text5-9"
         style="font-weight:500;font-size:6.30159px;line-height:1.25;font-family:'Noto Sans JP';-inkscape-font-specification:'Noto Sans JP Medium';fill:#ffffff;stroke-width:0.225056"
         aria-label="奇岩" />
      <path
         style="font-weight:500;font-size:6.30159px;line-height:1.25;font-family:'Noto Sans KR';-inkscape-font-specification:'Noto Sans KR Medium';fill:#ffffff;stroke-width:0.225056"
         d="m 61.167249,42.114091 h 0.661667 v 5.759653 h -0.661667 z m -2.564747,1.430461 h 0.523032 v 0.403302 q 0,0.460016 -0.113429,0.901127 -0.107127,0.43481 -0.321381,0.812905 -0.214254,0.378095 -0.510429,0.667969 -0.296175,0.289873 -0.667968,0.460016 l -0.359191,-0.510429 q 0.340286,-0.15754 0.604953,-0.403302 0.264666,-0.245762 0.453714,-0.55454 0.189048,-0.315079 0.289873,-0.661667 0.100826,-0.352889 0.100826,-0.712079 z m 0.132333,0 h 0.523032 v 0.403302 q 0,0.340285 0.100825,0.67427 0.100826,0.333984 0.289874,0.63646 0.195349,0.296175 0.466317,0.535635 0.270969,0.239461 0.604953,0.384397 l -0.359191,0.510429 Q 59.995153,46.525204 59.692677,46.247934 59.3902,45.964362 59.175946,45.605172 58.961692,45.239679 58.848264,44.817473 58.734835,44.395266 58.734835,43.947854 Z M 57.32958,43.090837 h 3.182303 v 0.523032 H 57.32958 Z m 1.26662,-0.857016 h 0.661667 v 1.140588 H 58.5962 Z m 6.566257,0.768794 h 1.02716 v 0.529334 h -1.02716 z m 0,1.405255 h 1.02716 v 0.535635 h -1.02716 z m -0.932635,-1.858969 q 0.384397,0 0.67427,0.182746 0.296175,0.182746 0.466318,0.504127 0.176444,0.321381 0.176444,0.737286 0,0.415905 -0.176444,0.743588 -0.170143,0.321381 -0.466318,0.504127 -0.289873,0.176444 -0.67427,0.176444 -0.378095,0 -0.67427,-0.176444 -0.296175,-0.182746 -0.466318,-0.504127 -0.170143,-0.327683 -0.170143,-0.743588 0,-0.415905 0.170143,-0.737286 0.170143,-0.321381 0.466318,-0.504127 0.296175,-0.182746 0.67427,-0.182746 z m 0,0.573444 q -0.207952,0 -0.371794,0.107127 -0.157539,0.100826 -0.252063,0.296175 -0.09452,0.189048 -0.09452,0.447413 0,0.264667 0.09452,0.460016 0.09452,0.189048 0.258365,0.296175 0.163841,0.107127 0.365492,0.107127 0.207953,0 0.371794,-0.107127 0.163841,-0.107127 0.252064,-0.296175 0.09452,-0.195349 0.09452,-0.460016 0,-0.258365 -0.09452,-0.447413 -0.08822,-0.195349 -0.252064,-0.296175 -0.163841,-0.107127 -0.371794,-0.107127 z m 2.898732,-1.001953 h 0.630159 v 4.291383 h -0.630159 z m -1.096477,0.100826 h 0.623857 v 4.026716 h -0.623857 z m -2.085826,5.003462 h 3.970001 v 0.535635 h -3.970001 z m 0,-1.361143 h 0.661667 v 1.62581 h -0.661667 z"
         id="text5-9-8"
         aria-label="치옌" />
    </g>
    <text
       xml:space="preserve"
       transform="matrix(0.31615295,0,0,0.31615295,-10.474341,-6.4462013)"
       id="text6"
       style="font-size:55px;line-height:1.25;font-family:'Microsoft JhengHei';-inkscape-font-specification:'Microsoft JhengHei';white-space:pre;shape-inside:url(#rect6);display:inline" />
  </g>
</svg>
