<?xml version="1.0" encoding="UTF-8" standalone="no"?>
<!-- Created with Inkscape (http://www.inkscape.org/) -->

<svg
   width="500"
   height="250"
   viewBox="0 0 132.29166 66.145833"
   version="1.1"
   id="svg1"
   inkscape:version="1.3.2 (091e20e, 2023-11-25, custom)"
   sodipodi:docname="r22_2.svg"
   xmlns:inkscape="http://www.inkscape.org/namespaces/inkscape"
   xmlns:sodipodi="http://sodipodi.sourceforge.net/DTD/sodipodi-0.dtd"
   xmlns="http://www.w3.org/2000/svg"
   xmlns:svg="http://www.w3.org/2000/svg">
  <sodipodi:namedview
     id="namedview1"
     pagecolor="#9e652e"
     bordercolor="#ffffff"
     borderopacity="1"
     inkscape:showpageshadow="0"
     inkscape:pageopacity="0"
     inkscape:pagecheckerboard="false"
     inkscape:deskcolor="#d1d1d1"
     inkscape:document-units="mm"
     inkscape:zoom="2.0208096"
     inkscape:cx="305.81802"
     inkscape:cy="106.88785"
     inkscape:window-width="1920"
     inkscape:window-height="1009"
     inkscape:window-x="1912"
     inkscape:window-y="-8"
     inkscape:window-maximized="1"
     inkscape:current-layer="layer1" />
  <defs
     id="defs1">
    <rect
       x="560.66638"
       y="34.144731"
       width="279.32397"
       height="128.59143"
       id="rect6" />
    <rect
       x="157.85752"
       y="62.351248"
       width="329.07603"
       height="135.09437"
       id="rect4" />
    <rect
       x="157.85751"
       y="62.35125"
       width="329.07602"
       height="135.09438"
       id="rect4-5" />
  </defs>
  <g
     inkscape:label="Layer 1"
     inkscape:groupmode="layer"
     id="layer1">
    <rect
       style="fill:#d0002b;fill-opacity:1;stroke:none;stroke-width:0.953294;stroke-dasharray:none"
       id="rect5"
       width="132.29167"
       height="66.145836"
       x="-2.5431316e-06"
       y="-1.2715658e-06"
       ry="0" />
    <text
       xml:space="preserve"
       transform="matrix(0.31615295,0,0,0.31615295,-10.474341,-6.4462013)"
       id="text6"
       style="font-size:55px;line-height:1.25;font-family:'Microsoft JhengHei';-inkscape-font-specification:'Microsoft JhengHei';white-space:pre;shape-inside:url(#rect6);display:inline" />
    <g
       id="g4"
       transform="translate(13.011578,-9.5185482)">
      <g
         id="g6"
         transform="translate(-19.056731)">
        <g
           id="g5"
           transform="translate(23.513546,9.5185469)">
          <path
             id="rect1"
             style="fill-opacity:0;stroke:#f9f9f9;stroke-width:0.942789"
             d="m 15.913089,14.352791 h 12.425164 c 3.927062,0 7.088559,3.161497 7.088559,7.088559 v 23.263136 c 0,3.927062 -3.161497,7.088559 -7.088559,7.088559 H 15.913089 c -3.927061,0 -7.0885584,-3.161497 -7.0885584,-7.088559 V 21.44135 c 0,-3.927062 3.1614974,-7.088559 7.0885584,-7.088559 z" />
          <path
             style="font-size:14.3709px;line-height:1.25;font-family:'AR UDJingXiHeiE1G30 EB';-inkscape-font-specification:'AR UDJingXiHeiE1G30 EB';fill:#f9f9f9;stroke-width:0.299395"
             d="m 24.479114,23.761527 q 0,-0.761658 -0.402385,-1.149672 -0.402385,-0.402385 -1.164043,-0.402385 h -3.118485 v 3.233452 h 3.017889 q 0.747287,0 1.207156,-0.445498 0.459868,-0.445498 0.459868,-1.235897 z m -4.684913,3.089743 v 4.325641 h -1.825104 v -10.39016 h 5.288491 q 1.422719,0 2.256231,0.761657 0.847883,0.747287 0.847883,2.126893 0,0.905367 -0.431127,1.552058 -0.416756,0.64669 -1.049075,0.919737 0.80477,0.459869 1.235897,1.59517 0.431127,1.135301 0.546094,3.434645 H 24.766532 Q 24.680307,28.7626 24.234809,27.814121 23.803682,26.85127 22.840832,26.85127 Z"
             id="text2"
             aria-label="R" />
          <path
             style="font-size:14.3917px;line-height:1.25;font-family:'AR UDJingXiHeiE1G30 EB';-inkscape-font-specification:'AR UDJingXiHeiE1G30 EB';fill:#f9f9f9;stroke-width:0.261667"
             d="m 14.426088,37.706725 q 0,-1.611871 0.978636,-2.53294 0.978636,-0.93546 2.561723,-0.93546 1.626262,0 2.532939,0.820327 0.921069,0.805935 0.921069,2.245105 0,1.021811 -0.662019,2.058013 -0.647626,1.021811 -2.043621,2.259497 l -1.957271,1.770179 h 4.634127 v 1.424778 H 14.382913 V 43.50658 l 2.907124,-2.61929 q 1.280861,-1.165727 1.78457,-1.986054 0.518102,-0.834719 0.518102,-1.597479 0,-0.719585 -0.41736,-1.165728 -0.417359,-0.446142 -1.208902,-0.446142 -0.791544,0 -1.280862,0.546884 -0.489318,0.546885 -0.489318,1.467954 z m 8.563052,0 q 0,-1.611871 0.978635,-2.53294 0.978636,-0.93546 2.561723,-0.93546 1.626262,0 2.532939,0.820327 0.921069,0.805935 0.921069,2.245105 0,1.021811 -0.662018,2.058013 -0.647627,1.021811 -2.043622,2.259497 l -1.957271,1.770179 h 4.634127 v 1.424778 H 22.945965 V 43.50658 l 2.907123,-2.61929 q 1.280861,-1.165727 1.784571,-1.986054 0.518101,-0.834719 0.518101,-1.597479 0,-0.719585 -0.417359,-1.165728 -0.41736,-0.446142 -1.208903,-0.446142 -0.791544,0 -1.280861,0.546884 -0.489318,0.546885 -0.489318,1.467954 z"
             id="text3"
             aria-label="22" />
          <path
             style="font-weight:500;font-size:72px;line-height:1.25;font-family:'Noto Sans TC';-inkscape-font-specification:'Noto Sans TC Medium';white-space:pre;fill:#f9f9f9"
             d="m 162.24942,92.385406 h 21.24 v 6.84 h -21.24 z m 35.64,-16.416 h 7.128 v 51.912004 q 0,2.808 0.504,3.6 0.576,0.792 2.448,0.792 0.504,0 1.512,0 1.08,0 2.304,0 1.224,0 2.304,0 1.08,0 1.584,0 1.512,0 2.232,-1.368 0.792,-1.44 1.08,-5.112 0.36,-3.744 0.576,-10.44 0.864,0.648 2.016,1.368 1.152,0.648 2.376,1.152 1.224,0.504 2.16,0.72 -0.36,7.488 -1.224,11.952 -0.864,4.392 -2.88,6.336 -1.944,2.016 -5.688,2.016 -0.576,0 -1.872,0 -1.296,0 -2.808,0 -1.512,0 -2.808,0 -1.224,0 -1.8,0 -3.456,0 -5.472,-1.008 -2.016,-0.936 -2.88,-3.384 -0.792,-2.448 -0.792,-6.696 z m -18.072,-0.072 h 7.056 v 53.496004 h -7.056 z m -19.944,57.888004 q 3.888,-1.296 9.144,-3.168 5.256,-1.872 11.088,-4.032 5.904,-2.16 11.664,-4.32 l 1.152,6.048 q -5.112,2.232 -10.44,4.464 -5.328,2.16 -10.296,4.176 -4.968,2.016 -9.216,3.672 z m 41.76,-41.472004 h 23.04 v 6.84 h -23.04 z m 30.384,19.800004 q 4.536,-1.008 10.656,-2.592 6.12,-1.656 12.384,-3.384 l 0.864,6.264 q -5.688,1.656 -11.52,3.312 -5.76,1.584 -10.512,2.952 z m 0.936,-23.256004 h 24.336 v 6.336 h -24.336 z m 9.288,-14.184 h 6.696 v 58.752004 q 0,2.592 -0.648,4.032 -0.648,1.512 -2.232,2.232 -1.584,0.792 -4.104,1.008 -2.52,0.216 -6.264,0.216 -0.144,-1.296 -0.72,-3.096 -0.576,-1.8 -1.224,-3.096 2.304,0.072 4.32,0.072 2.088,0 2.808,0 0.792,-0.072 1.08,-0.36 0.288,-0.288 0.288,-1.008 z m 22.896,2.448 h 19.152 v 6.336 h -19.152 z m -8.136,29.088004 h 32.976 v 6.408 h -32.976 z m 30.6,0 h 1.368 l 1.224,-0.216 4.392,1.872 q -2.304,7.272 -6.264,12.888 -3.96,5.544 -9.144,9.648 -5.184,4.032 -11.376,6.768 -6.12,2.736 -12.96,4.392 -0.288,-0.936 -0.864,-2.088 -0.576,-1.152 -1.224,-2.304 -0.648,-1.08 -1.296,-1.8 6.264,-1.224 11.952,-3.528 5.76,-2.376 10.512,-5.832 4.824,-3.456 8.28,-8.136 3.528,-4.68 5.4,-10.584 z m -22.968,4.896 q 2.952,6.192 7.848,11.088 4.968,4.824 11.736,8.208 6.768,3.312 15.048,4.896 -0.72,0.72 -1.584,1.872 -0.792,1.152 -1.512,2.304 -0.72,1.224 -1.224,2.16 -12.888,-3.096 -21.96,-10.224 -9.072,-7.2 -14.256,-18.216 z m -1.008,-33.984004 h 6.408 v 8.064 q 0,3.456 -0.936,7.056 -0.864,3.528 -3.312,6.84 -2.448,3.312004 -7.128,5.760004 -0.36,-0.648 -1.224,-1.584 -0.864,-1.008 -1.728,-1.944 -0.864,-1.008 -1.512,-1.440004 4.176,-2.16 6.192,-4.608 2.016,-2.448 2.592,-5.112 0.648,-2.664 0.648,-5.112 z m 17.568,0 h 6.48 v 16.272 q 0,1.584 0.216,2.232 0.216,0.648 1.08,0.648 0.432,0 1.44,0 1.008,0 1.944,0 1.008,0 1.44,0 0.864,0 1.944,-0.072 1.152,-0.144 1.872,-0.36 0.072,1.296 0.144,2.952 0.144,1.656004 0.36,2.808004 -0.72,0.288 -1.872,0.36 -1.152,0.072 -2.304,0.072 -0.576,0 -1.728,0 -1.08,0 -2.16,0 -1.08,0 -1.656,0 -2.952,0 -4.536,-0.864 -1.584,-0.864 -2.16,-2.808004 -0.504,-1.944 -0.504,-5.04 z"
             id="text4"
             transform="matrix(0.26166763,0,0,0.26166763,-2.1314997,-4.0633201)"
             aria-label="北投" />
          <path
             style="font-size:7.32669px;line-height:1.25;font-family:'AR UDJingXiHeiE1G30 EB';-inkscape-font-specification:'AR UDJingXiHeiE1G30 EB';fill:#f9f9f9;stroke-width:0.261667"
             d="m 43.17609,40.886419 h -2.784142 v -5.297197 h 2.549688 q 0.754649,0 1.194251,0.366334 0.439601,0.366335 0.439601,0.97445 0,0.395641 -0.175841,0.696036 -0.168514,0.293067 -0.512868,0.483561 0.446928,0.175841 0.674056,0.483562 0.234454,0.307721 0.234454,0.732669 0,0.703362 -0.461582,1.135637 -0.461581,0.424948 -1.157617,0.424948 z m 0.432275,-3.839186 q 0,-0.359008 -0.205147,-0.542175 -0.205148,-0.190494 -0.593462,-0.190494 h -1.487319 v 1.494645 h 1.538605 q 0.329701,0 0.534849,-0.190494 0.212474,-0.197821 0.212474,-0.571482 z m 0.219801,2.271274 q 0,-0.380988 -0.234455,-0.578808 -0.227127,-0.205148 -0.600788,-0.205148 h -1.670486 v 1.626525 h 1.655832 q 0.388315,0 0.615442,-0.212474 0.234455,-0.212474 0.234455,-0.630095 z m 5.817396,1.567912 h -3.919779 v -5.297197 h 3.897799 v 0.725342 h -2.967309 v 1.494645 h 2.769489 v 0.725342 h -2.769489 v 1.626525 h 2.989289 z m 1.912271,-5.297197 v 5.297197 h -0.93049 v -5.297197 z m 2.344536,0.725342 h -1.648506 v -0.725342 h 4.220174 v 0.725342 h -1.641179 v 4.571855 h -0.930489 z m 8.367079,1.9489 q 0,1.274844 -0.710689,2.000186 -0.703363,0.718016 -1.92692,0.718016 -1.245537,0 -1.9489,-0.725343 -0.703362,-0.725342 -0.703362,-1.992859 0,-1.289498 0.710689,-2.022167 0.710689,-0.739996 1.941573,-0.739996 1.245537,0 1.941573,0.732669 0.696036,0.732669 0.696036,2.029494 z m -2.637609,1.992859 q 0.798609,0 1.230884,-0.527521 0.439601,-0.527522 0.439601,-1.465338 0,-0.93049 -0.439601,-1.479992 -0.439601,-0.556828 -1.230884,-0.556828 -0.805936,0 -1.252864,0.564155 -0.439601,0.556828 -0.439601,1.472665 0,0.937816 0.446928,1.465338 0.446928,0.527521 1.245537,0.527521 z m 8.088667,-1.223557 q 0,0.923163 -0.578808,1.436031 -0.578809,0.512869 -1.648506,0.512869 -1.08435,0 -1.670485,-0.505542 -0.578808,-0.505542 -0.578808,-1.436031 v -3.450871 h 0.930489 v 3.406911 q 0,0.600788 0.329701,0.930489 0.329701,0.329701 0.989103,0.329701 0.622769,0 0.95247,-0.315047 0.337028,-0.322375 0.337028,-0.959797 v -3.392257 h 0.937816 z"
             id="text5"
             aria-label="BEITOU" />
          <path
             d="m 40.101275,45.212416 h 2.161373 v 0.696036 h -2.161373 z m 3.626711,-1.670485 h 0.725343 v 5.370464 q 0,0.293067 0.05861,0.380987 0.06594,0.08059 0.285741,0.08059 0.05129,0 0.175841,0 0.13188,0 0.28574,0 0.153861,0 0.285741,0 0.131881,0 0.190494,0 0.161188,0 0.241781,-0.124554 0.08059,-0.13188 0.117227,-0.461581 0.03663,-0.329701 0.05861,-0.923163 0.08792,0.06594 0.205147,0.13188 0.117227,0.06594 0.241781,0.117227 0.124554,0.04396 0.2198,0.06594 -0.03663,0.681383 -0.13188,1.099004 -0.08792,0.410295 -0.293068,0.593462 -0.205147,0.183167 -0.593461,0.183167 -0.05861,0 -0.212474,0 -0.153861,0 -0.337028,0 -0.183167,0 -0.337028,0 -0.146534,0 -0.205147,0 -0.380988,0 -0.593462,-0.102573 -0.212474,-0.102574 -0.300395,-0.359008 -0.08792,-0.249108 -0.08792,-0.696036 z m -1.809692,-0.0073 h 0.718015 v 6.608674 h -0.718015 z m 4.212847,1.113657 0.505541,0.615442 q -0.351681,0.263761 -0.769302,0.520195 -0.417622,0.256434 -0.857223,0.505541 -0.432275,0.249108 -0.849896,0.468909 -0.03663,-0.117227 -0.124554,-0.278415 -0.08059,-0.161187 -0.15386,-0.26376 0.402968,-0.219801 0.813262,-0.483562 0.410295,-0.271088 0.783956,-0.549502 0.373661,-0.285741 0.652076,-0.534848 z m -6.271647,3.934432 q 0.300394,-0.09525 0.688709,-0.234454 0.388314,-0.139207 0.820589,-0.300394 0.439601,-0.161187 0.879203,-0.329701 l 0.13188,0.630095 q -0.564155,0.249108 -1.15029,0.498215 -0.578809,0.241781 -1.055044,0.439602 z m 10.57974,-4.886902 h 0.652076 v 0.754649 q 0,0.329701 -0.08059,0.703362 -0.08059,0.366335 -0.300394,0.718016 -0.219801,0.344355 -0.644749,0.615442 -0.03663,-0.07327 -0.124553,-0.168514 -0.08792,-0.102573 -0.183168,-0.190494 -0.08792,-0.09525 -0.15386,-0.146534 0.366334,-0.227127 0.542175,-0.490888 0.183167,-0.263761 0.234454,-0.534848 0.05861,-0.271088 0.05861,-0.520195 z m 0.337028,0 h 1.824346 v 0.637422 h -1.824346 z m 1.501972,0 h 0.666728 v 1.685139 q 0,0.13188 0.02198,0.168514 0.02931,0.03663 0.1099,0.03663 0.02931,0 0.08792,0 0.06594,0 0.131881,0 0.07327,0 0.09525,0 0.06594,0 0.09525,-0.05129 0.03663,-0.05861 0.05129,-0.234454 0.01465,-0.17584 0.02198,-0.527521 0.102574,0.08059 0.271088,0.15386 0.168514,0.06594 0.307721,0.102574 -0.02931,0.446928 -0.102574,0.696035 -0.06594,0.241781 -0.205147,0.344355 -0.13188,0.09525 -0.359008,0.09525 -0.05861,0 -0.161187,0 -0.102574,0 -0.205147,0 -0.09525,0 -0.146534,0 -0.263761,0 -0.410295,-0.06594 -0.146534,-0.06594 -0.212474,-0.234454 -0.05861,-0.17584 -0.05861,-0.476234 z m -2.256621,2.872063 h 3.091863 v 0.630095 h -3.091863 z m 2.879389,0 h 0.139207 l 0.124554,-0.02931 0.454255,0.183167 q -0.219801,0.747323 -0.600789,1.326131 -0.380988,0.571482 -0.886529,0.99643 -0.505542,0.417621 -1.120984,0.703362 -0.608115,0.293068 -1.289497,0.468908 -0.02931,-0.09525 -0.09525,-0.212474 -0.05861,-0.1099 -0.131881,-0.227127 -0.06594,-0.1099 -0.13188,-0.183167 0.622769,-0.139207 1.186924,-0.380988 0.564155,-0.249108 1.025736,-0.608115 0.468909,-0.366335 0.805936,-0.84257 0.344355,-0.483561 0.520195,-1.08435 z m -2.03682,0.586135 q 0.402968,0.93049 1.238211,1.560585 0.842569,0.622769 2.051473,0.871876 -0.07327,0.06594 -0.161187,0.183167 -0.08792,0.117227 -0.168514,0.227128 -0.07327,0.117227 -0.13188,0.212474 -1.252864,-0.307721 -2.117414,-1.033064 -0.857222,-0.725342 -1.333457,-1.831672 z m -3.677998,0.117227 q 0.307721,-0.08059 0.710689,-0.183167 0.402968,-0.109901 0.857223,-0.234454 0.454254,-0.124554 0.915836,-0.249108 l 0.07327,0.600789 q -0.608115,0.205147 -1.230884,0.417621 -0.615442,0.205147 -1.120984,0.366335 z m 0.102574,-2.454441 h 2.469094 v 0.644748 h -2.469094 z m 1.003756,-1.406725 h 0.681382 v 6.02254 q 0,0.271087 -0.06594,0.417621 -0.05861,0.146534 -0.219801,0.227127 -0.161187,0.08059 -0.417621,0.102574 -0.249107,0.02198 -0.622769,0.02198 -0.01465,-0.13188 -0.08059,-0.315048 -0.05861,-0.183167 -0.124554,-0.322374 0.234454,0.0073 0.432275,0.01465 0.205147,0 0.278414,-0.0073 0.08059,0 0.1099,-0.02931 0.02931,-0.02931 0.02931,-0.1099 z"
             id="text5-9"
             style="font-weight:500;font-size:7.32669px;line-height:1.25;font-family:'Noto Sans JP';-inkscape-font-specification:'Noto Sans JP Medium';fill:#f9f9f9;stroke-width:0.261667"
             aria-label="北投" />
          <path
             style="font-weight:500;font-size:7.32669px;line-height:1.25;font-family:'Noto Sans KR';-inkscape-font-specification:'Noto Sans KR Medium';fill:#f9f9f9;stroke-width:0.261667"
             d="m 62.933377,44.229595 h 0.725343 v 1.582565 h 1.164943 v -1.582565 h 0.710689 v 4.417994 h -2.600975 z m 0.725343,2.198007 v 1.597219 h 1.164943 v -1.597219 z m 4.037006,-2.842756 h 0.732669 v 6.696595 h -0.732669 z m -2.285927,2.505728 h 1.208903 v 0.622769 h -1.208903 z m 0.945143,-2.373847 h 0.718015 v 6.249667 h -0.718015 z m 7.839559,-0.131881 h 0.769302 v 6.711249 h -0.769302 z m -2.791469,0.490889 q 0.498215,0 0.886529,0.293067 0.395642,0.293068 0.615442,0.82059 0.219801,0.527521 0.219801,1.245537 0,0.725342 -0.219801,1.260191 -0.2198,0.527521 -0.615442,0.820589 -0.388314,0.285741 -0.886529,0.285741 -0.498215,0 -0.893856,-0.285741 -0.388315,-0.293068 -0.615442,-0.820589 -0.219801,-0.534849 -0.219801,-1.260191 0,-0.718016 0.219801,-1.245537 0.227127,-0.527522 0.615442,-0.82059 0.395641,-0.293067 0.893856,-0.293067 z m 0,0.696035 q -0.293068,0 -0.520195,0.197821 -0.219801,0.19782 -0.344355,0.571482 -0.124553,0.373661 -0.124553,0.893856 0,0.527522 0.124553,0.901183 0.124554,0.373661 0.344355,0.578808 0.227127,0.197821 0.520195,0.197821 0.293067,0 0.512868,-0.197821 0.219801,-0.205147 0.344355,-0.578808 0.124553,-0.373661 0.124553,-0.901183 0,-0.520195 -0.124553,-0.893856 Q 72.135701,45.167411 71.9159,44.969591 71.696099,44.77177 71.403032,44.77177 Z m 9.583311,-1.186924 h 0.769303 v 6.711249 h -0.769303 z m -1.28217,2.447115 h 1.384744 v 0.630095 h -1.384744 z m -3.201764,2.073453 h 0.520195 q 0.600789,0 1.08435,-0.01465 0.490888,-0.01465 0.937817,-0.05129 0.446928,-0.04396 0.915836,-0.124554 l 0.07327,0.615442 q -0.483562,0.08059 -0.945143,0.124554 -0.454255,0.04396 -0.959797,0.05861 -0.498215,0.01465 -1.10633,0.01465 h -0.520195 z m 0,-3.934432 h 3.091863 v 0.630095 h -2.329887 v 3.502158 h -0.761976 z m 0.571482,1.875632 h 2.25662 v 0.608116 h -2.25662 z m 5.861354,1.333458 h 6.066499 v 0.630095 h -6.066499 z m 2.630282,0.402968 h 0.761975 v 2.505728 h -0.761975 z m 0.388314,-3.941759 q 0.703362,0 1.238211,0.183167 0.534848,0.183167 0.835242,0.512868 0.300395,0.329701 0.300395,0.783956 0,0.454255 -0.300395,0.791282 -0.300394,0.329702 -0.835242,0.512869 -0.534849,0.183167 -1.238211,0.183167 -0.703362,0 -1.245537,-0.183167 -0.534849,-0.183167 -0.835243,-0.512869 -0.300394,-0.337027 -0.300394,-0.791282 0,-0.454255 0.300394,-0.783956 0.300394,-0.329701 0.835243,-0.512868 0.542175,-0.183167 1.245537,-0.183167 z m -0.0073,0.608115 q -0.476234,0 -0.835242,0.1099 -0.351681,0.102574 -0.549502,0.300394 -0.197821,0.190494 -0.197821,0.461582 0,0.271087 0.197821,0.468908 0.197821,0.197821 0.549502,0.300394 0.359008,0.102574 0.835242,0.102574 0.483562,0 0.835243,-0.102574 0.359008,-0.102573 0.556829,-0.300394 0.19782,-0.197821 0.19782,-0.468908 0,-0.271088 -0.19782,-0.461582 -0.197821,-0.19782 -0.556829,-0.300394 -0.351681,-0.1099 -0.835243,-0.1099 z"
             id="text5-9-8"
             aria-label="베이터우" />
        </g>
      </g>
    </g>
  </g>
</svg>
