<?xml version="1.0" encoding="UTF-8" standalone="no"?>
<!-- Created with Inkscape (http://www.inkscape.org/) -->

<svg
   width="500"
   height="250"
   viewBox="0 0 132.29166 66.145833"
   version="1.1"
   id="svg1"
   inkscape:version="1.1 (c68e22c387, 2021-05-23)"
   sodipodi:docname="r22a.svg"
   xmlns:inkscape="http://www.inkscape.org/namespaces/inkscape"
   xmlns:sodipodi="http://sodipodi.sourceforge.net/DTD/sodipodi-0.dtd"
   xmlns="http://www.w3.org/2000/svg"
   xmlns:svg="http://www.w3.org/2000/svg">
  <sodipodi:namedview
     id="namedview1"
     pagecolor="#9e652e"
     bordercolor="#ffffff"
     borderopacity="1"
     inkscape:showpageshadow="0"
     inkscape:pageopacity="0"
     inkscape:pagecheckerboard="false"
     inkscape:deskcolor="#d1d1d1"
     inkscape:document-units="mm"
     inkscape:zoom="2.0208096"
     inkscape:cx="305.81802"
     inkscape:cy="106.88785"
     inkscape:window-width="1920"
     inkscape:window-height="1094"
     inkscape:window-x="-11"
     inkscape:window-y="-11"
     inkscape:window-maximized="1"
     inkscape:current-layer="layer1"
     inkscape:pageshadow="0"
     showgrid="false" />
  <defs
     id="defs1">
    <rect
       x="100.94964"
       y="217.23966"
       width="161.32148"
       height="79.671039"
       id="rect1816" />
    <rect
       x="560.66638"
       y="34.144731"
       width="279.32397"
       height="128.59143"
       id="rect6" />
    <rect
       x="157.85752"
       y="62.351248"
       width="329.07603"
       height="135.09437"
       id="rect4" />
    <rect
       x="157.85751"
       y="62.35125"
       width="329.07602"
       height="135.09438"
       id="rect4-5" />
  </defs>
  <g
     inkscape:label="Layer 1"
     inkscape:groupmode="layer"
     id="layer1">
    <rect
       style="fill:#d0002b;fill-opacity:1;stroke:none;stroke-width:0.953294;stroke-dasharray:none"
       id="rect5"
       width="132.29167"
       height="66.145836"
       x="-2.5431316e-06"
       y="-1.2715658e-06"
       ry="0" />
    <g
       id="g8659">
      <text
         xml:space="preserve"
         transform="matrix(0.31615295,0,0,0.31615295,-10.474341,-6.4462013)"
         id="text6"
         style="font-size:55px;line-height:1.25;font-family:'Microsoft JhengHei';-inkscape-font-specification:'Microsoft JhengHei';white-space:pre;shape-inside:url(#rect6);display:inline" />
      <path
         id="rect1"
         style="fill-opacity:0;stroke:#f9f9f9;stroke-width:0.942789"
         d="m 27.365369,14.352791 h 12.425164 c 3.927062,0 7.088559,3.161497 7.088559,7.088559 v 23.263136 c 0,3.927062 -3.161497,7.088559 -7.088559,7.088559 H 27.365369 c -3.927061,0 -7.088558,-3.161497 -7.088558,-7.088559 V 21.44135 c 0,-3.927062 3.161497,-7.088559 7.088558,-7.088559 z" />
      <path
         style="font-size:14.3709px;line-height:1.25;font-family:'AR UDJingXiHeiE1G30 EB';-inkscape-font-specification:'AR UDJingXiHeiE1G30 EB';fill:#f9f9f9;stroke-width:0.299395"
         d="m 35.931394,23.761527 q 0,-0.761658 -0.402385,-1.149672 -0.402385,-0.402385 -1.164043,-0.402385 h -3.118485 v 3.233452 h 3.017889 q 0.747287,0 1.207156,-0.445498 0.459868,-0.445498 0.459868,-1.235897 z m -4.684913,3.089743 v 4.325641 h -1.825104 v -10.39016 h 5.288491 q 1.422719,0 2.256231,0.761657 0.847883,0.747287 0.847883,2.126893 0,0.905367 -0.431127,1.552058 -0.416756,0.64669 -1.049075,0.919737 0.80477,0.459869 1.235897,1.59517 0.431127,1.135301 0.546094,3.434645 H 36.218812 Q 36.132587,28.7626 35.687089,27.814121 35.255962,26.85127 34.293112,26.85127 Z"
         id="text2"
         aria-label="R" />
      <path
         style="font-weight:500;font-size:72px;line-height:1.25;font-family:'Noto Sans TC';-inkscape-font-specification:'Noto Sans TC Medium';white-space:pre;fill:#f9f9f9;stroke-width:0.261668"
         d="m 61.893319,21.768876 h 6.876625 v 1.657927 H 61.893319 Z M 51.719681,17.39798 h 8.383831 v 1.469526 h -8.383831 z m -0.20724,7.479509 h 8.628751 v 1.526045 h -8.628751 z m -0.0942,-3.221653 h 8.986713 v 1.488366 H 51.41824 Z m 13.67789,0.828964 h 1.733286 v 10.380878 h -1.733286 z m -12.264886,-3.221653 1.450686,-0.339121 q 0.244921,0.546362 0.433321,1.205764 0.207241,0.659403 0.282601,1.130404 l -1.507205,0.414482 q -0.05652,-0.489842 -0.244921,-1.168084 -0.169561,-0.678243 -0.414482,-1.243445 z m 4.691178,-0.376801 1.639086,0.339121 q -0.301441,0.791283 -0.621723,1.601406 -0.320281,0.810123 -0.602882,1.375326 l -1.450685,-0.320282 q 0.188401,-0.414482 0.376801,-0.942004 0.188401,-0.527522 0.357962,-1.073884 0.1884,-0.546362 0.301441,-0.979683 z m 9.514235,-3.146292 1.394165,1.318805 q -0.923164,0.357961 -2.072408,0.659402 -1.130404,0.282601 -2.317328,0.508682 -1.168085,0.226081 -2.298489,0.395642 -0.05652,-0.282601 -0.226081,-0.678243 -0.15072,-0.395641 -0.320281,-0.659402 1.073884,-0.188401 2.147768,-0.433322 1.073884,-0.244921 2.034728,-0.527522 0.979683,-0.301441 1.657926,-0.584042 z m -12.528646,0.03768 1.770966,-0.452161 q 0.320281,0.584042 0.621722,1.299964 0.320282,0.697083 0.471002,1.205765 l -1.846327,0.527522 q -0.13188,-0.527522 -0.433321,-1.243445 -0.282601,-0.734763 -0.584042,-1.337645 z m 6.688224,1.507206 h 1.676766 v 6.612865 q 0,1.036204 -0.07536,2.223128 -0.05652,1.186925 -0.263761,2.392689 -0.207241,1.205765 -0.584042,2.336169 -0.376801,1.130404 -1.017364,2.034727 -0.13188,-0.16956 -0.395641,-0.376801 -0.244921,-0.207241 -0.527522,-0.395642 -0.263761,-0.1884 -0.452162,-0.282601 0.753603,-1.111564 1.111564,-2.486889 0.357962,-1.375325 0.433322,-2.78833 0.0942,-1.413005 0.0942,-2.65645 z m -3.617293,10.418559 1.186924,-0.640562 q 0.471002,0.678242 0.904324,1.488365 0.433321,0.791283 0.659402,1.375325 l -1.224605,0.734763 q -0.22608,-0.584042 -0.678242,-1.431845 -0.433322,-0.847803 -0.847803,-1.526046 z m -4.521617,-0.471002 1.394165,0.395642 q -0.339121,1.017364 -0.885483,2.072407 -0.527522,1.036204 -1.055044,1.770967 -0.207241,-0.188401 -0.584042,-0.433322 -0.357961,-0.263761 -0.621722,-0.395641 0.527522,-0.678243 0.979683,-1.582566 0.471002,-0.923163 0.772443,-1.827487 z m 2.128928,-4.766537 h 1.733286 v 10.399718 h -1.733286 z m 15.430017,-2.35501 h 5.55782 v 1.789807 h -5.55782 z m 9.325834,-4.295536 h 1.865167 v 13.583691 q 0,0.734763 0.131881,0.942004 0.15072,0.207241 0.640562,0.207241 0.13188,0 0.395641,0 0.282601,0 0.602883,0 0.320281,0 0.602882,0 0.282601,0 0.414481,0 0.395642,0 0.584042,-0.357962 0.207241,-0.376801 0.282602,-1.337645 0.0942,-0.979683 0.15072,-2.73181 0.226081,0.169561 0.527522,0.357962 0.301441,0.16956 0.621722,0.301441 0.320281,0.13188 0.565202,0.1884 -0.0942,1.959368 -0.320281,3.127452 -0.226081,1.149244 -0.753603,1.657926 -0.508681,0.527522 -1.488365,0.527522 -0.150721,0 -0.489842,0 -0.339121,0 -0.734763,0 -0.395641,0 -0.734762,0 -0.320281,0 -0.471002,0 -0.904323,0 -1.431845,-0.263761 -0.527522,-0.244921 -0.753603,-0.885483 -0.207241,-0.640563 -0.207241,-1.752127 z m -4.728857,-0.01884 h 1.846327 v 13.998173 h -1.846327 z m -5.218699,15.147417 q 1.017363,-0.339121 2.392688,-0.828963 1.375325,-0.489842 2.901371,-1.055044 1.544886,-0.565202 3.052091,-1.130404 l 0.301441,1.582566 q -1.337645,0.584042 -2.73181,1.168084 -1.394165,0.565202 -2.69413,1.092724 -1.299964,0.527522 -2.411528,0.960844 z M 80.921789,20.09211 h 6.028822 v 1.789807 h -6.028822 z m 7.950509,5.18102 q 1.186924,-0.263761 2.78833,-0.678242 1.601406,-0.433322 3.240492,-0.885484 l 0.226081,1.639086 q -1.488365,0.433322 -3.014411,0.866644 -1.507206,0.414481 -2.75065,0.772442 z m 0.244921,-6.085343 h 6.367943 v 1.657926 h -6.367943 z m 2.430369,-3.711494 h 1.752126 v 15.373498 q 0,0.678242 -0.16956,1.055044 -0.169561,0.395641 -0.584042,0.584042 -0.414482,0.207241 -1.073884,0.263761 -0.659403,0.05652 -1.639086,0.05652 -0.03768,-0.339121 -0.188401,-0.810123 -0.150721,-0.471002 -0.320281,-0.810123 0.602882,0.01884 1.130404,0.01884 0.546362,0 0.734763,0 0.20724,-0.01884 0.282601,-0.0942 0.07536,-0.07536 0.07536,-0.263761 z m 5.991142,0.640562 h 5.01146 v 1.657927 h -5.01146 z m -2.128928,7.611389 h 8.628748 v 1.676767 h -8.628748 z m 8.007028,0 h 0.35796 l 0.32028,-0.05652 1.14925,0.489842 q -0.60288,1.902847 -1.63909,3.372373 -1.0362,1.450685 -2.39269,2.524569 -1.356481,1.055044 -2.976727,1.770966 -1.601406,0.715923 -3.391213,1.149245 -0.07536,-0.244921 -0.226081,-0.546362 -0.15072,-0.301442 -0.320281,-0.602883 -0.169561,-0.282601 -0.339121,-0.471001 1.639086,-0.320282 3.127451,-0.923164 1.507206,-0.621722 2.75065,-1.526045 1.262282,-0.904324 2.166612,-2.128928 0.92316,-1.224605 1.413,-2.76949 z m -6.009981,1.281125 q 0.772443,1.620246 2.053568,2.901371 1.299963,1.262285 3.070933,2.147768 1.77096,0.866643 3.93757,1.281125 -0.1884,0.1884 -0.41448,0.489841 -0.20724,0.301441 -0.39564,0.602883 -0.1884,0.320281 -0.32028,0.565202 -3.37237,-0.810123 -5.746222,-2.67529 -2.373849,-1.884007 -3.730334,-4.766538 z m -0.26376,-8.892514 h 1.676766 v 2.110088 q 0,0.904324 -0.244921,1.846327 -0.226081,0.923163 -0.866643,1.789807 -0.640563,0.866644 -1.865167,1.507206 -0.0942,-0.16956 -0.320281,-0.414481 -0.226081,-0.263761 -0.452162,-0.508682 -0.226081,-0.263761 -0.395642,-0.376803 1.092724,-0.565202 1.620246,-1.205764 0.527522,-0.640562 0.678243,-1.337645 0.169561,-0.697083 0.169561,-1.337645 z m 4.596981,0 h 1.6956 v 4.257856 q 0,0.414482 0.0565,0.584042 0.0565,0.169561 0.2826,0.169561 0.11304,0 0.3768,0 0.26377,0 0.50869,0 0.26376,0 0.3768,0 0.22608,0 0.50868,-0.01884 0.30144,-0.03768 0.48984,-0.0942 0.0188,0.339122 0.0377,0.772443 0.0377,0.433323 0.0942,0.734764 -0.1884,0.07536 -0.48984,0.0942 -0.30144,0.01884 -0.60288,0.01884 -0.15072,0 -0.45216,0 -0.2826,0 -0.56521,0 -0.2826,0 -0.43332,0 -0.77244,0 -1.18692,-0.22608 -0.41448,-0.226081 -0.5652,-0.734764 -0.13188,-0.508682 -0.13188,-1.318805 z"
         id="text4"
         aria-label="新北投" />
      <path
         style="font-size:7.32669px;line-height:1.25;font-family:'AR UDJingXiHeiE1G30 EB';-inkscape-font-specification:'AR UDJingXiHeiE1G30 EB';fill:#f9f9f9;stroke-width:0.261667"
         d="m 54.965398,35.589222 h 1.077023 l -1.824346,2.557015 1.92692,2.740182 h -1.08435 L 53.6759,38.842272 52.291156,40.886419 h -1.055043 l 1.912266,-2.747509 -1.831673,-2.549688 h 1.091677 l 1.274844,1.904939 z m 2.718203,0 v 5.297197 h -0.93049 v -5.297197 z m 2.146715,1.472664 v 3.824533 h -0.93049 v -5.297197 h 0.959797 l 2.600975,3.912452 v -3.912452 h 0.930489 v 5.297197 h -1.01841 z m 7.561139,3.824533 H 64.607312 V 35.589222 H 67.157 q 0.75465,0 1.194251,0.366334 0.439601,0.366335 0.439601,0.97445 0,0.395641 -0.17584,0.696036 -0.168514,0.293067 -0.512869,0.483561 0.446929,0.175841 0.674056,0.483562 0.234454,0.307721 0.234454,0.732669 0,0.703362 -0.461581,1.135637 -0.461582,0.424948 -1.157617,0.424948 z m 0.432274,-3.839186 q 0,-0.359008 -0.205147,-0.542175 -0.205147,-0.190494 -0.593462,-0.190494 h -1.487318 v 1.494645 h 1.538605 q 0.329701,0 0.534848,-0.190494 0.212474,-0.197821 0.212474,-0.571482 z m 0.219801,2.271274 q 0,-0.380988 -0.234454,-0.578808 -0.227128,-0.205148 -0.600789,-0.205148 h -1.670485 v 1.626525 h 1.655832 q 0.388314,0 0.615442,-0.212474 0.234454,-0.212474 0.234454,-0.630095 z m 5.817397,1.567912 h -3.919779 v -5.297197 h 3.897799 v 0.725342 h -2.967309 v 1.494645 h 2.769488 v 0.725342 h -2.769488 v 1.626525 h 2.989289 z m 1.91227,-5.297197 v 5.297197 h -0.930489 v -5.297197 z m 2.344536,0.725342 h -1.648505 v -0.725342 h 4.220173 v 0.725342 h -1.641178 v 4.571855 h -0.93049 z m 8.367079,1.9489 q 0,1.274844 -0.710689,2.000186 -0.703362,0.718016 -1.92692,0.718016 -1.245537,0 -1.948899,-0.725343 -0.703362,-0.725342 -0.703362,-1.992859 0,-1.289498 0.710689,-2.022167 0.710688,-0.739996 1.941572,-0.739996 1.245538,0 1.941573,0.732669 0.696036,0.732669 0.696036,2.029494 z m -2.637609,1.992859 q 0.79861,0 1.230884,-0.527521 0.439602,-0.527522 0.439602,-1.465338 0,-0.93049 -0.439602,-1.479992 -0.439601,-0.556828 -1.230884,-0.556828 -0.805935,0 -1.252864,0.564155 -0.439601,0.556828 -0.439601,1.472665 0,0.937816 0.446928,1.465338 0.446928,0.527521 1.245537,0.527521 z m 8.088668,-1.223557 q 0,0.923163 -0.578809,1.436031 -0.578808,0.512869 -1.648505,0.512869 -1.08435,0 -1.670486,-0.505542 -0.578808,-0.505542 -0.578808,-1.436031 v -3.450871 h 0.93049 v 3.406911 q 0,0.600788 0.329701,0.930489 0.329701,0.329701 0.989103,0.329701 0.622768,0 0.95247,-0.315047 0.337027,-0.322375 0.337027,-0.959797 v -3.392257 h 0.937817 z"
         id="text5"
         aria-label="XINBEITOU" />
      <path
         d="m 55.4367,45.857165 h 2.732856 v 0.644748 H 55.4367 Z m -3.905126,-1.699792 h 3.260378 v 0.571481 h -3.260378 z m -0.08059,2.908696 h 3.355624 v 0.593461 h -3.355624 z m -0.02198,-1.252864 h 3.443544 v 0.578808 h -3.443544 z m 5.28987,0.322374 h 0.674056 v 4.037006 H 56.718871 Z M 52.828399,43.45401 h 0.674055 v 0.97445 h -0.674055 z m 0,2.872063 h 0.674055 v 3.875819 h -0.674055 z m 2.285927,-2.329888 0.827916,0.241781 q -0.01465,0.08792 -0.168514,0.117227 v 2.212661 q 0,0.417621 -0.04396,0.893856 -0.03663,0.468908 -0.153861,0.967123 -0.117227,0.490888 -0.351681,0.959796 -0.227127,0.461582 -0.600788,0.849896 -0.04396,-0.08059 -0.131881,-0.17584 -0.08792,-0.09525 -0.190494,-0.183167 -0.09525,-0.08059 -0.17584,-0.117227 0.337028,-0.344355 0.534848,-0.739996 0.197821,-0.395641 0.293068,-0.820589 0.102573,-0.424948 0.13188,-0.835243 0.02931,-0.417621 0.02931,-0.805936 z m 2.425134,-0.505541 0.556829,0.505541 q -0.351681,0.161188 -0.798609,0.300395 -0.439602,0.13188 -0.901183,0.24178 -0.461582,0.102574 -0.893856,0.183168 -0.02198,-0.109901 -0.08792,-0.263761 -0.06594,-0.161187 -0.13188,-0.263761 0.410295,-0.08792 0.827916,-0.197821 0.424948,-0.117227 0.798609,-0.24178 0.373661,-0.131881 0.630094,-0.263761 z m -4.088293,4.264133 q 0.08059,0.05129 0.241781,0.183168 0.168514,0.124553 0.351681,0.271087 0.190494,0.146534 0.344355,0.278414 0.161187,0.124554 0.227127,0.183168 l -0.402968,0.505541 q -0.08792,-0.102573 -0.234454,-0.256434 -0.146534,-0.15386 -0.322374,-0.315047 -0.168514,-0.168514 -0.329701,-0.307721 -0.153861,-0.146534 -0.256435,-0.234455 z m -1.516625,-2.901369 0.542176,-0.124554 q 0.1099,0.227128 0.190493,0.498215 0.08059,0.271088 0.102574,0.461582 l -0.571482,0.161187 q -0.01465,-0.205147 -0.08792,-0.483562 -0.07327,-0.278414 -0.175841,-0.512868 z m 1.86098,-0.139207 0.615442,0.13188 q -0.102574,0.263761 -0.205148,0.527522 -0.102573,0.256434 -0.190494,0.446928 l -0.556828,-0.124553 q 0.05861,-0.139208 0.117227,-0.307721 0.06594,-0.175841 0.124554,-0.351682 0.05861,-0.17584 0.09525,-0.322374 z m -0.959797,2.681569 0.490889,0.183167 q -0.175841,0.402968 -0.439602,0.805936 -0.263761,0.402968 -0.564155,0.747322 -0.300394,0.344355 -0.593462,0.578809 -0.07327,-0.117227 -0.212474,-0.263761 -0.13188,-0.146534 -0.241781,-0.234454 0.293068,-0.190494 0.586136,-0.483562 0.300394,-0.293067 0.549501,-0.637422 0.256434,-0.351681 0.424948,-0.696035 z m 6.04452,-2.183354 h 2.161373 v 0.696036 h -2.161373 z m 3.626711,-1.670485 h 0.725343 v 5.370464 q 0,0.293067 0.05861,0.380987 0.06594,0.08059 0.285741,0.08059 0.05129,0 0.175841,0 0.13188,0 0.285741,0 0.15386,0 0.285741,0 0.13188,0 0.190494,0 0.161187,0 0.24178,-0.124554 0.08059,-0.13188 0.117227,-0.461581 0.03663,-0.329701 0.05861,-0.923163 0.08792,0.06594 0.205147,0.13188 0.117227,0.06594 0.241781,0.117227 0.124554,0.04396 0.219801,0.06594 -0.03663,0.681383 -0.131881,1.099004 -0.08792,0.410295 -0.293067,0.593462 -0.205148,0.183167 -0.593462,0.183167 -0.05861,0 -0.212474,0 -0.153861,0 -0.337028,0 -0.183167,0 -0.337028,0 -0.146534,0 -0.205147,0 -0.380988,0 -0.593462,-0.102573 -0.212474,-0.102574 -0.300394,-0.359008 -0.08792,-0.249108 -0.08792,-0.696036 z m -1.809692,-0.0073 h 0.718016 v 6.608674 h -0.718016 z m 4.212847,1.113657 0.505541,0.615442 q -0.351681,0.263761 -0.769302,0.520195 -0.417621,0.256434 -0.857223,0.505541 -0.432275,0.249108 -0.849896,0.468909 -0.03663,-0.117227 -0.124554,-0.278415 -0.08059,-0.161187 -0.15386,-0.26376 0.402968,-0.219801 0.813263,-0.483562 0.410294,-0.271088 0.783955,-0.549502 0.373662,-0.285741 0.652076,-0.534848 z m -6.271647,3.934432 q 0.300394,-0.09525 0.688709,-0.234454 0.388314,-0.139207 0.820589,-0.300394 0.439602,-0.161187 0.879203,-0.329701 l 0.13188,0.630095 q -0.564155,0.249108 -1.15029,0.498215 -0.578808,0.241781 -1.055043,0.439602 z m 10.579741,-4.886929 h 0.652075 v 0.754649 q 0,0.329701 -0.08059,0.703362 -0.08059,0.366335 -0.300394,0.718016 -0.219801,0.344355 -0.644749,0.615442 -0.03663,-0.07327 -0.124553,-0.168514 -0.08792,-0.102573 -0.183168,-0.190494 -0.08792,-0.09525 -0.15386,-0.146534 0.366334,-0.227127 0.542175,-0.490888 0.183167,-0.263761 0.234454,-0.534848 0.05861,-0.271088 0.05861,-0.520195 z m 0.337027,0 h 1.824346 v 0.637422 h -1.824346 z m 1.501972,0 h 0.666729 v 1.685139 q 0,0.13188 0.02198,0.168514 0.02931,0.03663 0.1099,0.03663 0.02931,0 0.08792,0 0.06594,0 0.131881,0 0.07327,0 0.09525,0 0.06594,0 0.09525,-0.05129 0.03663,-0.05861 0.05129,-0.234454 0.01465,-0.17584 0.02198,-0.527521 0.102573,0.08059 0.271087,0.15386 0.168514,0.06594 0.307721,0.102574 -0.02931,0.446928 -0.102573,0.696035 -0.06594,0.241781 -0.205148,0.344355 -0.13188,0.09525 -0.359008,0.09525 -0.05861,0 -0.161187,0 -0.102573,0 -0.205147,0 -0.09525,0 -0.146534,0 -0.263761,0 -0.410295,-0.06594 -0.146533,-0.06594 -0.212474,-0.234454 -0.05861,-0.17584 -0.05861,-0.476234 z m -2.256621,2.872063 h 3.091864 v 0.630095 h -3.091864 z m 2.87939,0 h 0.139207 l 0.124553,-0.02931 0.454255,0.183167 q -0.219801,0.747323 -0.600788,1.326131 -0.380988,0.571482 -0.88653,0.99643 -0.505542,0.417621 -1.120984,0.703362 -0.608115,0.293068 -1.289497,0.468908 -0.02931,-0.09525 -0.09525,-0.212474 -0.05861,-0.1099 -0.13188,-0.227127 -0.06594,-0.1099 -0.131881,-0.183167 0.622769,-0.139207 1.186924,-0.380988 0.564155,-0.249108 1.025737,-0.608115 0.468908,-0.366335 0.805936,-0.84257 0.344354,-0.483561 0.520195,-1.08435 z m -2.03682,0.586135 q 0.402968,0.93049 1.23821,1.560585 0.84257,0.622769 2.051474,0.871876 -0.07327,0.06594 -0.161188,0.183167 -0.08792,0.117227 -0.168513,0.227128 -0.07327,0.117227 -0.131881,0.212474 -1.252864,-0.307721 -2.117413,-1.033064 -0.857223,-0.725342 -1.333458,-1.831672 z m -3.677999,0.117227 q 0.307721,-0.08059 0.710689,-0.183167 0.402968,-0.109901 0.857223,-0.234454 0.454255,-0.124554 0.915836,-0.249108 l 0.07327,0.600789 q -0.608115,0.205147 -1.230884,0.417621 -0.615442,0.205147 -1.120983,0.366335 z m 0.102574,-2.454441 h 2.469094 v 0.644748 h -2.469094 z m 1.003756,-1.406725 h 0.681383 v 6.02254 q 0,0.271087 -0.06594,0.417621 -0.05861,0.146534 -0.2198,0.227127 -0.161188,0.08059 -0.417622,0.102574 -0.249107,0.02198 -0.622768,0.02198 -0.01465,-0.13188 -0.08059,-0.315048 -0.05861,-0.183167 -0.124554,-0.322374 0.234454,0.0073 0.432275,0.01465 0.205147,0 0.278414,-0.0073 0.08059,0 0.109901,-0.02931 0.02931,-0.02931 0.02931,-0.1099 z"
         id="text5-9"
         style="font-weight:500;font-size:7.32669px;line-height:1.25;font-family:'Noto Sans JP';-inkscape-font-specification:'Noto Sans JP Medium';fill:#f9f9f9;stroke-width:0.261667"
         aria-label="新北投" />
      <path
         style="font-weight:500;font-size:7.32669px;line-height:1.25;font-family:'Noto Sans KR';-inkscape-font-specification:'Noto Sans KR Medium';fill:#f9f9f9;stroke-width:0.261667"
         d="m 84.205224,43.592173 h 0.769302 v 4.894229 h -0.769302 z m -3.597405,5.934619 h 4.557201 v 0.622769 h -4.557201 z m 0,-1.494645 h 0.761975 v 1.802366 h -0.761975 z m 0.512868,-4.073639 h 0.637422 v 0.666728 q 0,0.659403 -0.219801,1.245538 -0.2198,0.578808 -0.637422,1.01841 -0.417621,0.439601 -1.01841,0.666728 l -0.395641,-0.608115 q 0.527522,-0.19782 0.893856,-0.556828 0.366335,-0.366335 0.549502,-0.82059 0.190494,-0.461581 0.190494,-0.945143 z m 0.15386,0 h 0.622769 v 0.666728 q 0,0.359008 0.102574,0.696036 0.1099,0.329701 0.315047,0.622769 0.212474,0.293067 0.512869,0.520195 0.300394,0.227127 0.688709,0.359007 l -0.395642,0.615442 q -0.586135,-0.2198 -1.003756,-0.630095 -0.417622,-0.417621 -0.630096,-0.97445 -0.212474,-0.564155 -0.212474,-1.208904 z m 5.143338,0.271087 h 0.725342 v 1.582565 h 1.164944 v -1.582565 h 0.710689 v 4.417994 h -2.600975 z m 0.725342,2.198007 v 1.597219 h 1.164944 v -1.597219 z m 4.037006,-2.842756 h 0.732669 v 6.696595 h -0.732669 z m -2.285927,2.505728 h 1.208904 v 0.622769 h -1.208904 z m 0.945143,-2.373847 h 0.718016 v 6.249667 h -0.718016 z m 7.839559,-0.131881 h 0.769303 v 6.711249 h -0.769303 z m -2.791469,0.490889 q 0.498215,0 0.88653,0.293067 0.395641,0.293068 0.615442,0.82059 0.219801,0.527521 0.219801,1.245537 0,0.725342 -0.219801,1.260191 -0.219801,0.527521 -0.615442,0.820589 -0.388315,0.285741 -0.88653,0.285741 -0.498215,0 -0.893856,-0.285741 -0.388314,-0.293068 -0.615442,-0.820589 -0.2198,-0.534849 -0.2198,-1.260191 0,-0.718016 0.2198,-1.245537 0.227128,-0.527522 0.615442,-0.82059 0.395641,-0.293067 0.893856,-0.293067 z m 0,0.696035 q -0.293067,0 -0.520195,0.197821 -0.2198,0.19782 -0.344354,0.571482 -0.124554,0.373661 -0.124554,0.893856 0,0.527522 0.124554,0.901183 0.124554,0.373661 0.344354,0.578808 0.227128,0.197821 0.520195,0.197821 0.293068,0 0.512869,-0.197821 0.2198,-0.205147 0.344354,-0.578808 0.124554,-0.373661 0.124554,-0.901183 0,-0.520195 -0.124554,-0.893856 -0.124554,-0.373662 -0.344354,-0.571482 -0.219801,-0.197821 -0.512869,-0.197821 z m 9.583311,-1.186924 h 0.7693 v 6.711249 h -0.7693 z m -1.28217,2.447115 h 1.38475 v 0.630095 h -1.38475 z m -3.201762,2.073453 h 0.520192 q 0.60079,0 1.08435,-0.01465 0.49089,-0.01465 0.93782,-0.05129 0.44693,-0.04396 0.91583,-0.124554 l 0.0733,0.615442 q -0.48356,0.08059 -0.94514,0.124554 -0.45425,0.04396 -0.95979,0.05861 -0.49822,0.01465 -1.10633,0.01465 h -0.520199 z m 0,-3.934432 h 3.091862 v 0.630095 h -2.32989 v 3.502158 h -0.761972 z m 0.571482,1.875632 h 2.25662 v 0.608116 h -2.25662 z m 5.86135,1.333458 h 6.0665 v 0.630095 h -6.0665 z m 2.63028,0.402968 h 0.76198 v 2.505728 h -0.76198 z m 0.38832,-3.941759 q 0.70336,0 1.23821,0.183167 0.53485,0.183167 0.83524,0.512868 0.3004,0.329701 0.3004,0.783956 0,0.454255 -0.3004,0.791282 -0.30039,0.329702 -0.83524,0.512869 -0.53485,0.183167 -1.23821,0.183167 -0.70337,0 -1.24554,-0.183167 -0.53485,-0.183167 -0.83524,-0.512869 -0.3004,-0.337027 -0.3004,-0.791282 0,-0.454255 0.3004,-0.783956 0.30039,-0.329701 0.83524,-0.512868 0.54217,-0.183167 1.24554,-0.183167 z m -0.007,0.608115 q -0.47624,0 -0.83525,0.1099 -0.35168,0.102574 -0.5495,0.300394 -0.19782,0.190494 -0.19782,0.461582 0,0.271087 0.19782,0.468908 0.19782,0.197821 0.5495,0.300394 0.35901,0.102574 0.83525,0.102574 0.48356,0 0.83524,-0.102574 0.35901,-0.102573 0.55683,-0.300394 0.19782,-0.197821 0.19782,-0.468908 0,-0.271088 -0.19782,-0.461582 -0.19782,-0.19782 -0.55683,-0.300394 -0.35168,-0.1099 -0.83524,-0.1099 z"
         id="text5-9-8"
         aria-label="신베이터우" />
      <g
         aria-label="22A"
         transform="matrix(0.22561625,0,0,0.22561625,-0.13680046,-18.094742)"
         id="text1814"
         style="font-size:64px;line-height:1.25;white-space:pre;shape-inside:url(#rect1816)">
        <path
           d="m 103.89322,248.92023 q 0,-6.464 3.392,-10.432 3.392,-3.968 9.216,-3.968 5.76,0 9.088,3.584 3.328,3.52 3.328,9.856 0,4.352 -2.176,8.768 -2.176,4.416 -6.784,9.728 l -7.936,9.28 h 16.896 v 5.824 h -25.088 v -5.312 l 10.624,-12.672 q 3.136,-3.584 5.312,-7.36 2.176,-3.776 2.176,-8.256 0,-3.456 -1.408,-5.504 -1.344,-2.112 -4.096,-2.112 -2.56,0 -4.16,2.304 -1.536,2.304 -1.536,6.272 z"
           style="font-family:'AR UDJingXiHeiE1C80B5HK EB';-inkscape-font-specification:'AR UDJingXiHeiE1C80B5HK EB';fill:#ffffff"
           id="path8486" />
        <path
           d="m 134.42117,248.92023 q 0,-6.464 3.392,-10.432 3.392,-3.968 9.216,-3.968 5.76,0 9.088,3.584 3.328,3.52 3.328,9.856 0,4.352 -2.176,8.768 -2.176,4.416 -6.784,9.728 l -7.936,9.28 h 16.896 v 5.824 h -25.088 v -5.312 l 10.624,-12.672 q 3.136,-3.584 5.312,-7.36 2.176,-3.776 2.176,-8.256 0,-3.456 -1.408,-5.504 -1.344,-2.112 -4.096,-2.112 -2.56,0 -4.16,2.304 -1.536,2.304 -1.536,6.272 z"
           style="font-family:'AR UDJingXiHeiE1C80B5HK EB';-inkscape-font-specification:'AR UDJingXiHeiE1C80B5HK EB';fill:#ffffff"
           id="path8488" />
        <path
           d="m 176.53313,235.28823 h 7.424 l 14.592,46.272 h -7.104 l -3.84,-12.48 h -14.848 l -3.776,12.48 h -6.912 z m -2.112,27.968 h 11.52 l -5.76,-20.096 z"
           style="font-family:'AR UDJingXiHeiE1C80B5HK EB';-inkscape-font-specification:'AR UDJingXiHeiE1C80B5HK EB';fill:#ffffff"
           id="path8490" />
      </g>
    </g>
  </g>
</svg>
