<?xml version="1.0" encoding="UTF-8" standalone="no"?>
<!-- Created with Inkscape (http://www.inkscape.org/) -->

<svg
   width="500"
   height="250"
   viewBox="0 0 132.29166 66.145833"
   version="1.1"
   id="svg1"
   inkscape:version="1.3.2 (091e20e, 2023-11-25, custom)"
   sodipodi:docname="r23.svg"
   xmlns:inkscape="http://www.inkscape.org/namespaces/inkscape"
   xmlns:sodipodi="http://sodipodi.sourceforge.net/DTD/sodipodi-0.dtd"
   xmlns="http://www.w3.org/2000/svg"
   xmlns:svg="http://www.w3.org/2000/svg">
  <sodipodi:namedview
     id="namedview1"
     pagecolor="#9e652e"
     bordercolor="#ffffff"
     borderopacity="1"
     inkscape:showpageshadow="0"
     inkscape:pageopacity="0"
     inkscape:pagecheckerboard="false"
     inkscape:deskcolor="#d1d1d1"
     inkscape:document-units="mm"
     inkscape:zoom="2.0208096"
     inkscape:cx="296.9107"
     inkscape:cy="82.640146"
     inkscape:window-width="1920"
     inkscape:window-height="1009"
     inkscape:window-x="1912"
     inkscape:window-y="-8"
     inkscape:window-maximized="1"
     inkscape:current-layer="layer1" />
  <defs
     id="defs1">
    <rect
       x="560.66638"
       y="34.144731"
       width="279.32397"
       height="128.59143"
       id="rect6" />
    <rect
       x="157.85752"
       y="62.351248"
       width="541.85369"
       height="99.322566"
       id="rect4" />
    <rect
       x="157.85751"
       y="62.35125"
       width="329.07602"
       height="135.09438"
       id="rect4-5" />
    <rect
       x="157.85751"
       y="62.35125"
       width="470.56151"
       height="119.92888"
       id="rect4-5-3" />
    <rect
       x="157.85751"
       y="62.35125"
       width="460.82318"
       height="88.90795"
       id="rect4-5-32" />
  </defs>
  <g
     inkscape:label="Layer 1"
     inkscape:groupmode="layer"
     id="layer1">
    <rect
       style="fill:#d0002b;fill-opacity:1;stroke:none;stroke-width:0.953294;stroke-dasharray:none"
       id="rect5"
       width="132.29167"
       height="66.145836"
       x="-2.5431316e-06"
       y="-1.2715658e-06"
       ry="0" />
    <g
       id="g16"
       transform="matrix(1.1095583,0,0,1.1095583,11.486808,-3.6234118)">
      <path
         id="rect1"
         style="fill-opacity:0;stroke:#ffffff;stroke-width:0.810881"
         d="m 18.989333,16.971979 h 10.686722 c 3.377614,0 6.096777,2.719163 6.096777,6.096777 v 20.00832 c 0,3.377614 -2.719163,6.096777 -6.096777,6.096777 H 18.989333 c -3.377614,0 -6.096777,-2.719163 -6.096777,-6.096777 v -20.00832 c 0,-3.377614 2.719163,-6.096777 6.096777,-6.096777 z" />
      <path
         style="font-size:12.2918px;line-height:1.25;font-family:'AR UDJingXiHeiE1G30 EB';-inkscape-font-specification:'AR UDJingXiHeiE1G30 EB';fill:#ffffff;stroke-width:0.256079"
         d="m 26.182626,24.962252 q 0,-0.651466 -0.344171,-0.983344 -0.34417,-0.344171 -0.995635,-0.344171 h -2.667321 v 2.765655 h 2.581278 q 0.639174,0 1.032511,-0.381046 0.393338,-0.381045 0.393338,-1.057094 z m -4.007127,2.642737 V 31.30482 H 20.61444 v -8.886971 h 4.523383 q 1.216888,0 1.929812,0.651465 0.725216,0.639174 0.725216,1.819187 0,0.774383 -0.368754,1.327514 -0.356462,0.553131 -0.897301,0.786675 0.688341,0.393338 1.057095,1.36439 0.368754,0.971052 0.467088,2.93774 h -1.622517 q -0.07375,-2.065022 -0.454797,-2.876281 -0.368754,-0.82355 -1.192304,-0.82355 z"
         id="text2"
         aria-label="R" />
      <path
         style="font-size:12.3781px;line-height:1.25;font-family:'AR UDJingXiHeiE1G30 EB';-inkscape-font-specification:'AR UDJingXiHeiE1G30 EB';fill:#ffffff;stroke-width:0.225056"
         d="m 17.710383,37.058399 q 0,-1.386348 0.841711,-2.178546 0.841711,-0.804577 2.203302,-0.804577 1.398725,0 2.178545,0.705552 0.792199,0.693174 0.792199,1.930984 0,0.878845 -0.569393,1.770068 -0.557014,0.878845 -1.75769,1.943362 l -1.683422,1.522506 h 3.985749 v 1.225432 h -6.028135 v -1.126407 l 2.500376,-2.252814 q 1.101651,-1.002626 1.534884,-1.708178 0.445612,-0.71793 0.445612,-1.373969 0,-0.618905 -0.358965,-1.002626 -0.358965,-0.383721 -1.03976,-0.383721 -0.680796,0 -1.101651,0.470367 -0.420856,0.470368 -0.420856,1.262567 z m 10.286193,-1.757691 q -0.680796,0 -1.064517,0.408478 -0.383721,0.408477 -0.383721,1.064516 h -1.522506 q 0,-1.213054 0.792198,-1.95574 0.804577,-0.742686 2.178546,-0.742686 1.274944,0 2.067143,0.631284 0.792198,0.631283 0.792198,1.807202 0,0.643661 -0.272318,1.138785 -0.272318,0.495124 -0.816955,0.755065 0.693174,0.235183 1.064517,0.792198 0.383721,0.557015 0.383721,1.324457 0,1.324456 -0.841711,2.067143 -0.841711,0.742686 -2.339461,0.742686 -1.522506,0 -2.351839,-0.730308 -0.829333,-0.730308 -0.829333,-1.992875 h 1.534885 q 0,0.668418 0.445611,1.089273 0.45799,0.408478 1.213054,0.408478 0.742686,0 1.163542,-0.408478 0.433233,-0.408477 0.433233,-1.163541 0,-0.631283 -0.396099,-1.027382 -0.396099,-0.408478 -1.138785,-0.408478 h -0.557015 v -1.225432 h 0.557015 q 0.495124,0 0.829333,-0.358965 0.346586,-0.358965 0.346586,-0.965491 0,-0.557015 -0.334208,-0.903602 -0.334209,-0.346587 -0.953114,-0.346587 z"
         id="text3"
         aria-label="23" />
      <path
         style="font-weight:500;font-size:72px;line-height:1.25;font-family:'Noto Sans TC';-inkscape-font-specification:'Noto Sans TC Medium';white-space:pre;fill:#ffffff"
         d="m 195.15342,104.12141 v 4.104 h 20.376 v -4.104 z m 0,-8.352004 v 3.96 h 20.376 v -3.96 z m -6.12,-4.752 h 32.832 v 21.888004 h -32.832 z m 3.528,-16.344 6.264,1.584 q -2.088,5.904 -5.544,11.376 -3.384,5.4 -7.128,9 -0.576,-0.504 -1.584,-1.296 -1.008,-0.792 -2.016,-1.512 -1.008,-0.72 -1.8,-1.152 3.816,-3.24 6.912,-7.992 3.096,-4.752 4.896,-10.008 z m 0.936,6.912 h 32.616 v 5.472 h -35.352 z m 3.744,29.376004 5.976,1.728 q -3.168,5.472 -8.136,10.08 -4.968,4.536 -10.224,7.56 -0.432,-0.648 -1.296,-1.44 -0.864,-0.792 -1.8,-1.584 -0.864,-0.864 -1.512,-1.368 5.184,-2.52 9.72,-6.408 4.608,-3.96 7.272,-8.568 z m -2.088,5.76 h 22.824 v 5.04 h -27.432 z m 20.592,0 h 1.296 l 1.152,-0.288 4.248,2.232 q -2.592,5.112 -6.768,8.928 -4.176,3.816 -9.432,6.624 -5.256,2.736 -11.304,4.536 -5.976,1.872 -12.24,2.952 -0.288,-0.792 -0.864,-1.872 -0.504,-1.008 -1.152,-2.088 -0.576,-1.08 -1.152,-1.728 5.832,-0.792 11.448,-2.232 5.616,-1.512 10.44,-3.744 4.896,-2.304 8.568,-5.328 3.672,-3.096 5.76,-7.056 z m -27.792,-2.088 q 3.6,5.4 9.504,9.576 5.904,4.104 13.536,6.912 7.704,2.808 16.488,4.104 -0.648,0.72 -1.44,1.8 -0.792,1.08 -1.512,2.16 -0.72,1.152 -1.152,2.016 -8.928,-1.728 -16.632,-5.04 -7.632,-3.312 -13.752,-8.208 -6.048,-4.968 -10.08,-11.448 z m -11.592,-23.976004 6.048,2.376 q -2.376,4.392 -5.616,8.784004 -3.24,4.392 -6.768,8.28 -3.456,3.816 -6.984,6.768 -0.288,-0.792 -0.936,-2.088 -0.576,-1.296 -1.296,-2.592 -0.72,-1.368 -1.296,-2.232 3.096,-2.304 6.192,-5.4 3.168,-3.168 5.904,-6.696004 2.736,-3.6 4.752,-7.2 z m -1.44,-15.84 6.552,2.52 q -2.088,3.24 -4.968,6.552 -2.88,3.24 -6.048,6.192 -3.168,2.88 -6.336,5.112 -0.36,-0.792 -1.008,-1.872 -0.576,-1.08 -1.296,-2.088 -0.72,-1.08 -1.224,-1.728 2.664,-1.872 5.4,-4.32 2.808,-2.448 5.184,-5.184 2.376,-2.736 3.744,-5.184 z m -5.112,30.024004 6.624,-6.624004 0.288,0.144 v 43.128004 h -6.912 z m 63.288,13.32 h 65.448 v 6.336 h -65.448 z m 26.712,-30.312004 h 11.664 v 4.464 h -11.664 z m 20.808,-10.08 h 11.304 v 5.616 h -11.304 z m 0.288,13.968 h 10.368 v 5.544 h -10.368 z m -0.504,13.248004 h 10.296 v 5.544 h -10.296 z m -39.744,-13.392004 h 10.368 v 5.472 h -10.368 z m 0.216,13.248004 h 10.44 v 5.472 h -10.44 z m 12.168,-26.640004 h 25.56 v 43.056004 h -5.112 V 83.457406 h -15.48 v 37.800004 h -4.968 z m 10.584,22.536004 v 8.208 h 4.392 v -8.208 z m -3.096,-4.176004 h 10.656 v 16.488004 h -10.656 z m 27.792,-18.792 h 6.048 q -0.072,5.328 -0.216,11.376 -0.144,6.048 -0.36,12.096004 -0.216,5.976 -0.504,11.376 -0.216,5.4 -0.504,9.504 h -5.832 q 0.288,-4.176 0.576,-9.648 0.288,-5.472 0.432,-11.448 0.216,-6.048004 0.288,-12.024004 0.144,-5.976 0.072,-11.232 z m -38.592,-2.448 3.096,5.832 q -3.24,1.08 -6.912,2.088 -3.672,1.008 -6.768,1.656 -0.144,-1.08 -0.648,-2.448 -0.504,-1.44 -0.936,-2.592 3.024,-0.936 6.336,-2.16 3.384,-1.224 5.832,-2.376 z m -12.168,4.536 5.832,1.728 1.152,38.232004 h -5.904 z m 34.704,49.392004 3.744,-4.752 q 3.816,1.8 7.704,3.816 3.888,1.944 7.344,3.888 3.456,1.944 5.904,3.6 l -4.464,5.184 q -2.304,-1.656 -5.688,-3.744 -3.312,-2.016 -7.056,-4.104 -3.744,-2.088 -7.488,-3.888 z m -18.648,-4.176 5.616,4.248 q -3.024,2.232 -6.84,4.464 -3.744,2.16 -7.632,4.104 -3.888,2.016 -7.488,3.528 -0.648,-1.08 -1.8,-2.592 -1.152,-1.512 -2.088,-2.592 3.456,-1.296 7.2,-3.168 3.816,-1.944 7.272,-4.032 3.528,-2.088 5.76,-3.96 z m 65.952,-16.416 h 37.008 v 5.04 h -37.008 z m 40.752,-13.968004 h 6.552 v 39.456004 q 0,2.592 -0.648,4.032 -0.648,1.44 -2.448,2.232 -1.872,0.792 -4.752,0.936 -2.88,0.144 -7.2,0.144 -0.144,-1.296 -0.72,-3.096 -0.576,-1.728 -1.296,-2.952 2.952,0.072 5.544,0.072 2.592,0 3.456,0 0.864,-0.072 1.152,-0.36 0.36,-0.288 0.36,-1.152 z m -36,7.560004 5.256,-1.44 q 1.152,1.512 2.232,3.384 1.08,1.8 1.512,3.168 l -5.544,1.656 q -0.432,-1.368 -1.44,-3.24 -1.008,-1.944 -2.016,-3.528 z m 22.032,-1.656 5.976,1.512 q -1.224,2.52 -2.448,5.04 -1.152,2.52 -2.232,4.392 l -5.112,-1.368 q 0.72,-1.368 1.44,-3.024 0.72,-1.728 1.296,-3.456 0.648,-1.728 1.08,-3.096 z m -36.72,-5.904004 h 53.856 v 5.688004 h -47.376 v 41.112 h -6.48 z m 12.312,22.392004 h 5.688 v 14.688 h -5.688 z m 26.352,0 h 5.616 v 14.688 h -5.616 z m -13.464,-6.048 h 5.976 v 18.216 h -5.976 z m -9.648,15.696 h 25.848 v 5.04 h -25.848 z m -15.192,-49.824004 h 6.84 v 7.776 h 42.12 v -7.776 h 7.128 v 13.392 h -56.088 z m 24.336,-2.304 h 6.984 v 13.752 h -6.984 z"
         id="text4"
         transform="matrix(0.22505692,0,0,0.22505692,3.4694169,1.1325221)"
         aria-label="復興崗" />
      <path
         style="font-size:6.30159px;line-height:1.25;font-family:'AR UDJingXiHeiE1G30 EB';-inkscape-font-specification:'AR UDJingXiHeiE1G30 EB';fill:#ffffff;stroke-width:0.225056"
         d="m 40.843582,37.770395 v 2.022811 H 40.04328 v -4.55605 h 3.194906 v 0.623857 h -2.394604 v 1.285525 h 2.104731 v 0.623857 z m 6.881342,0.428508 q 0,0.794001 -0.497825,1.235112 -0.497826,0.441111 -1.417858,0.441111 -0.932636,0 -1.436763,-0.434809 -0.497825,-0.43481 -0.497825,-1.235112 v -2.968049 h 0.800302 v 2.930239 q 0,0.516731 0.283571,0.800302 0.283572,0.283572 0.850715,0.283572 0.535635,0 0.819206,-0.270969 0.289874,-0.27727 0.289874,-0.825508 v -2.917636 h 0.806603 z m 3.699035,-2.961747 h 0.926334 l -1.569096,2.199255 1.657318,2.356795 H 51.50588 l -1.191001,-1.758144 -1.191,1.758144 H 48.21645 l 1.644715,-2.363097 -1.575398,-2.192953 h 0.938937 l 1.096477,1.638413 z m 2.33789,0 v 4.55605 h -0.800302 v -4.55605 z m 1.846362,1.26662 v 3.28943 h -0.800302 v -4.55605 h 0.825508 l 2.237065,3.365049 v -3.365049 h 0.800301 v 4.55605 h -0.875921 z m 7.454777,2.73489 q -0.233159,0.327682 -0.586048,0.485222 -0.346588,0.151238 -0.794001,0.151238 -0.983048,0 -1.562794,-0.617556 -0.579746,-0.623857 -0.579746,-1.739238 0,-1.121683 0.611254,-1.739239 0.611254,-0.617556 1.651017,-0.617556 0.838111,0 1.361143,0.384397 0.529334,0.378095 0.636461,1.083873 h -0.800302 q -0.06302,-0.371793 -0.371794,-0.604952 -0.302476,-0.239461 -0.825508,-0.239461 -0.699477,0 -1.064969,0.453715 -0.365492,0.447413 -0.365492,1.279223 0,0.888524 0.384397,1.31073 0.384397,0.415905 1.046064,0.415905 0.579746,0 0.920032,-0.340286 0.340286,-0.340285 0.340286,-0.781397 v -0.09452 h -1.291826 v -0.623857 h 2.06062 v 2.388303 h -0.768794 z m 5.060173,0 q -0.233159,0.327682 -0.586048,0.485222 -0.346588,0.151238 -0.794001,0.151238 -0.983048,0 -1.562794,-0.617556 -0.579746,-0.623857 -0.579746,-1.739238 0,-1.121683 0.611254,-1.739239 0.611254,-0.617556 1.651017,-0.617556 0.838111,0 1.361143,0.384397 0.529334,0.378095 0.636461,1.083873 h -0.800302 q -0.06302,-0.371793 -0.371794,-0.604952 -0.302476,-0.239461 -0.825508,-0.239461 -0.699477,0 -1.064969,0.453715 -0.365492,0.447413 -0.365492,1.279223 0,0.888524 0.384397,1.31073 0.384397,0.415905 1.046064,0.415905 0.579746,0 0.920032,-0.340286 0.340286,-0.340285 0.340286,-0.781397 v -0.09452 h -1.291826 v -0.623857 h 2.06062 v 2.388303 h -0.768794 z m 4.140141,-1.285525 -0.718382,-1.947191 -0.730984,1.947191 z m -1.682525,0.623858 -0.453714,1.216207 h -0.812906 l 1.833763,-4.55605 h 0.819207 l 1.821159,4.55605 h -0.83181 L 72.49646,38.576999 Z m 4.530837,-2.073223 v 3.28943 h -0.800302 v -4.55605 h 0.825509 l 2.237064,3.365049 v -3.365049 h 0.800302 v 4.55605 h -0.875921 z m 7.454778,2.73489 q -0.233159,0.327682 -0.586048,0.485222 -0.346587,0.151238 -0.794,0.151238 -0.983048,0 -1.562794,-0.617556 -0.579747,-0.623857 -0.579747,-1.739238 0,-1.121683 0.611255,-1.739239 0.611254,-0.617556 1.651016,-0.617556 0.838112,0 1.361144,0.384397 0.529333,0.378095 0.63646,1.083873 h -0.800302 q -0.06302,-0.371793 -0.371793,-0.604952 -0.302477,-0.239461 -0.825509,-0.239461 -0.699476,0 -1.064968,0.453715 -0.365493,0.447413 -0.365493,1.279223 0,0.888524 0.384397,1.31073 0.384397,0.415905 1.046064,0.415905 0.579747,0 0.920032,-0.340286 0.340286,-0.340285 0.340286,-0.781397 v -0.09452 h -1.291826 v -0.623857 h 2.06062 v 2.388303 h -0.768794 z"
         id="text5"
         aria-label="FUXINGGANG" />
      <path
         d="m 42.339118,41.957448 0.586048,0.138635 q -0.19535,0.535635 -0.491524,1.039762 -0.289874,0.497826 -0.617556,0.838112 -0.05041,-0.05041 -0.144937,-0.113429 -0.09452,-0.06932 -0.195349,-0.132333 -0.09452,-0.06302 -0.163842,-0.100826 0.327683,-0.302476 0.598652,-0.749889 0.270968,-0.447413 0.428508,-0.920032 z m 0.02521,0.617556 h 3.031065 v 0.491524 h -3.28943 z m 0.27727,1.978699 v 0.365492 h 1.814858 v -0.365492 z m 0,-0.724683 v 0.352889 h 1.814858 V 43.82902 Z m -0.535635,-0.397 h 2.905033 v 1.877874 h -2.905033 z m 0.718381,1.714032 0.51673,0.151239 q -0.264666,0.472619 -0.686873,0.875921 -0.422206,0.403301 -0.857016,0.661667 -0.04411,-0.05041 -0.11973,-0.119731 -0.07562,-0.06932 -0.15754,-0.138635 -0.07562,-0.06932 -0.138635,-0.113428 0.43481,-0.226858 0.825508,-0.567143 0.390699,-0.346588 0.617556,-0.74989 z m -0.100825,0.812906 q 0.23946,0.35919 0.655365,0.63646 0.422207,0.27727 0.976746,0.460016 0.55454,0.176445 1.203604,0.252064 -0.08822,0.08822 -0.189048,0.233159 -0.100825,0.151238 -0.157539,0.264666 -0.680572,-0.100825 -1.247715,-0.327682 -0.560842,-0.226858 -0.995651,-0.567143 -0.428508,-0.346588 -0.718382,-0.800302 z m 0.0126,-0.264667 h 1.884175 v 0.409603 h -2.262271 z m 1.732937,0 h 0.113429 l 0.100825,-0.02521 0.359191,0.176445 q -0.220556,0.447413 -0.573445,0.781397 -0.352889,0.327683 -0.806603,0.567143 -0.453715,0.233159 -0.976747,0.384397 -0.51673,0.151238 -1.07127,0.239461 -0.03151,-0.107127 -0.113429,-0.252064 -0.07562,-0.144937 -0.144936,-0.23946 0.510428,-0.05671 0.989349,-0.176445 0.485223,-0.126032 0.901128,-0.315079 0.415905,-0.189048 0.730984,-0.453715 0.31508,-0.264667 0.491524,-0.611254 z m -3.44697,-2.413509 0.529334,0.195349 q -0.214254,0.378095 -0.491524,0.756191 -0.27727,0.371794 -0.59235,0.705778 -0.308777,0.327683 -0.617555,0.586048 -0.02521,-0.06932 -0.08822,-0.170143 -0.05671,-0.100826 -0.11973,-0.207953 -0.06302,-0.107127 -0.113428,-0.163841 0.277269,-0.214254 0.554539,-0.485222 0.27727,-0.270969 0.516731,-0.579747 0.245762,-0.315079 0.422206,-0.63646 z m -0.132333,-1.317033 0.529334,0.207953 q -0.189048,0.270968 -0.441112,0.548238 -0.252063,0.27727 -0.523032,0.529334 -0.270968,0.252063 -0.541936,0.447413 -0.03781,-0.06302 -0.09452,-0.138635 -0.05672,-0.08192 -0.119731,-0.163842 -0.05671,-0.08192 -0.107127,-0.132333 0.239461,-0.170143 0.485223,-0.384397 0.245762,-0.220556 0.460016,-0.460016 0.214254,-0.23946 0.352889,-0.453715 z m -0.422207,2.571049 0.497826,-0.497825 0.06302,0.02521 v 3.768351 h -0.560842 z m 5.520193,1.272921 h 5.753352 v 0.55454 h -5.753352 z m 2.363096,-2.715985 h 1.020858 v 0.390699 h -1.020858 z m 1.770747,-0.819207 h 0.995651 v 0.491524 h -0.995651 z m 0.03151,1.184699 h 0.913731 v 0.485223 h -0.913731 z m 0,1.159493 h 0.894826 v 0.485222 H 50.153089 Z M 46.66831,43.457226 h 0.907429 v 0.485223 H 46.66831 Z m 0.01891,1.159493 h 0.888524 v 0.485222 h -0.888524 z m 1.064968,-2.350493 h 2.237065 v 3.768351 h -0.447413 v -3.308335 h -1.361143 v 3.308335 h -0.428509 z m 0.913731,1.94089 v 0.718381 h 0.378095 v -0.718381 z m -0.270968,-0.365493 h 0.926333 v 1.443064 h -0.926333 z m -1.959795,-1.550191 0.655365,0.126032 q -0.0189,0.06932 -0.138634,0.08822 l 0.100825,3.541494 h -0.510429 z m 4.367002,-0.01891 h 0.523032 q -0.0063,0.466318 -0.0189,0.98935 -0.0063,0.523032 -0.02521,1.046064 -0.0189,0.523032 -0.04411,0.98935 -0.01891,0.466317 -0.04411,0.819206 h -0.516731 q 0.03151,-0.35919 0.05041,-0.83181 0.02521,-0.472619 0.04411,-0.995651 0.0189,-0.523032 0.02521,-1.039762 0.0063,-0.516731 0.0063,-0.976747 z m -3.28943,-0.283571 0.403302,0.447413 q -0.270969,0.138635 -0.573445,0.264667 -0.302476,0.126031 -0.567143,0.214254 -0.0189,-0.08192 -0.06932,-0.201651 -0.05041,-0.126032 -0.100826,-0.214254 0.23946,-0.107127 0.491524,-0.245762 0.252064,-0.144937 0.415905,-0.264667 z m 1.852667,4.801811 0.43481,-0.397 q 0.346588,0.15754 0.705778,0.340286 0.359191,0.176445 0.67427,0.352889 0.321381,0.176445 0.548239,0.321381 l -0.567143,0.409604 Q 50.953391,47.67299 50.657216,47.490244 50.367343,47.313799 50.033359,47.131053 49.699375,46.948307 49.36539,46.790767 Z m -1.581699,-0.397 0.548239,0.371794 q -0.245762,0.189048 -0.567143,0.384397 -0.31508,0.195349 -0.655366,0.365492 -0.333984,0.176445 -0.623857,0.302477 -0.08822,-0.09452 -0.226857,-0.220556 -0.132334,-0.11973 -0.239461,-0.201651 0.302477,-0.126032 0.636461,-0.289873 0.333984,-0.170143 0.630159,-0.359191 0.302476,-0.189047 0.497825,-0.352889 z M 53.562249,44.9381 h 3.239018 v 0.441111 h -3.239018 z m 3.5667,-1.222509 h 0.573445 v 3.453272 q 0,0.226857 -0.05671,0.352889 -0.05671,0.126032 -0.214254,0.195349 -0.163842,0.06932 -0.415905,0.08192 -0.252064,0.0126 -0.630159,0.0126 -0.0126,-0.113429 -0.06302,-0.270968 -0.05041,-0.151239 -0.113429,-0.258366 0.258365,0.0063 0.485223,0.0063 0.226857,0 0.302476,0 0.07562,-0.0063 0.100825,-0.03151 0.03151,-0.02521 0.03151,-0.100825 z m -3.150795,0.661667 0.460016,-0.126031 q 0.100826,0.132333 0.19535,0.296174 0.09452,0.15754 0.132333,0.27727 l -0.485222,0.144937 q -0.03781,-0.11973 -0.126032,-0.283572 -0.08822,-0.170143 -0.176445,-0.308778 z m 1.928287,-0.144936 0.523032,0.138635 q -0.107127,0.163841 -0.214254,0.321381 -0.100826,0.15754 -0.189048,0.27727 l -0.453714,-0.126032 q 0.08822,-0.132333 0.182746,-0.302476 0.09452,-0.176445 0.151238,-0.308778 z M 52.69263,43.715591 h 4.713589 v 0.497826 h -4.146446 v 3.598208 H 52.69263 Z m 1.115381,1.953493 h 0.491524 v 1.676223 h -0.491524 z m 2.249668,0 h 0.491524 v 1.550192 h -0.491524 z m -1.159493,-0.523032 h 0.523032 v 1.594303 h -0.523032 z m -0.844413,1.373747 h 2.262271 v 0.441111 h -2.262271 z m -1.335937,-4.3607 h 0.598651 v 0.680571 h 3.686431 v -0.680571 h 0.623857 v 1.172096 h -4.908939 z m 2.129938,-0.201651 h 0.611254 v 1.203604 h -0.611254 z"
         id="text5-9"
         style="font-weight:500;font-size:6.30159px;line-height:1.25;font-family:'Noto Sans JP';-inkscape-font-specification:'Noto Sans JP Medium';fill:#ffffff;stroke-width:0.225056"
         aria-label="復興崗" />
      <path
         style="font-weight:500;font-size:6.30159px;line-height:1.25;font-family:'Noto Sans KR';-inkscape-font-specification:'Noto Sans KR Medium';fill:#ffffff;stroke-width:0.225056"
         d="m 63.762664,42.410266 h 4.253573 v 0.529333 h -4.253573 z m 0.03151,1.978699 h 4.190557 v 0.529333 h -4.190557 z m 0.775095,-1.556493 h 0.661667 v 1.840064 h -0.661667 z m 1.9787,0 h 0.661666 v 1.840064 h -0.661666 z m -3.270526,2.665573 h 5.217717 v 0.541936 h -5.217717 z m 2.274874,0.23946 h 0.661667 v 2.136239 h -0.661667 z m 7.612322,-3.617113 h 0.661667 v 3.421764 h -0.661667 z m -1.254017,3.535192 q 0.604953,0 1.039763,0.132334 0.434809,0.132333 0.67427,0.378095 0.23946,0.245762 0.23946,0.59235 0,0.346587 -0.23946,0.598651 -0.239461,0.245762 -0.67427,0.371794 -0.43481,0.132333 -1.039763,0.132333 -0.598651,0 -1.039762,-0.132333 -0.43481,-0.126032 -0.67427,-0.371794 -0.233159,-0.252064 -0.233159,-0.598651 0,-0.346588 0.233159,-0.59235 0.23946,-0.245762 0.67427,-0.378095 0.441111,-0.132334 1.039762,-0.132334 z m 0,0.516731 q -0.403302,0 -0.693175,0.06932 -0.289873,0.06932 -0.447413,0.201651 -0.151238,0.126032 -0.151238,0.31508 0,0.189047 0.151238,0.321381 0.15754,0.126032 0.447413,0.195349 0.289873,0.06302 0.693175,0.06302 0.415905,0 0.699477,-0.06302 0.289873,-0.06932 0.441111,-0.195349 0.151238,-0.132334 0.151238,-0.321381 0,-0.189048 -0.151238,-0.31508 -0.151238,-0.132333 -0.441111,-0.201651 -0.283572,-0.06932 -0.699477,-0.06932 z m -1.398953,-3.799859 h 0.548239 v 0.55454 q 0,0.55454 -0.19535,1.046064 -0.189047,0.485222 -0.55454,0.850715 -0.35919,0.365492 -0.882222,0.548238 l -0.327683,-0.523032 q 0.340286,-0.11973 0.598651,-0.321381 0.264667,-0.201651 0.447413,-0.453715 0.182746,-0.258365 0.270968,-0.548238 0.09452,-0.296175 0.09452,-0.598651 z m 0.132334,0 h 0.535635 v 0.55454 q 0,0.289873 0.09452,0.567143 0.09452,0.270968 0.270968,0.510429 0.182746,0.233159 0.441111,0.415905 0.264667,0.176444 0.59235,0.283571 l -0.321381,0.516731 Q 71.872811,45.094743 71.570334,44.874187 71.27416,44.64733 71.066207,44.344854 70.858255,44.042377 70.751128,43.683187 70.644001,43.323996 70.644001,42.926996 Z m 8.072337,-0.258365 h 0.655365 v 3.396557 h -0.655365 z m 0.478921,1.424159 h 0.98935 v 0.548239 h -0.98935 z m -2.09843,-1.020857 h 0.71208 q 0,0.75619 -0.321381,1.361143 -0.321381,0.598651 -0.920032,1.033461 -0.59235,0.428508 -1.436763,0.667968 l -0.270968,-0.529333 q 0.718381,-0.201651 1.216207,-0.529334 0.497825,-0.333984 0.756191,-0.762492 0.264666,-0.428508 0.264666,-0.926334 z m -1.972397,0 h 2.363096 v 0.535635 h -2.363096 z m 2.41981,3.068874 q 0.573445,0 0.995652,0.138635 0.428508,0.138635 0.661666,0.397 0.239461,0.252064 0.239461,0.604953 0,0.352889 -0.239461,0.611254 -0.233158,0.252064 -0.661666,0.390699 -0.422207,0.144936 -0.995652,0.144936 -0.573444,0 -1.008254,-0.144936 -0.428508,-0.138635 -0.661667,-0.390699 -0.233159,-0.258365 -0.233159,-0.611254 0,-0.352889 0.233159,-0.604953 0.233159,-0.258365 0.661667,-0.397 0.43481,-0.138635 1.008254,-0.138635 z m 0,0.51673 q -0.384397,0 -0.667968,0.07562 -0.27727,0.06932 -0.43481,0.214254 -0.151238,0.138635 -0.151238,0.333985 0,0.195349 0.151238,0.340286 0.15754,0.138635 0.43481,0.214254 0.283571,0.06932 0.667968,0.06932 0.384397,0 0.661667,-0.06932 0.283572,-0.07562 0.43481,-0.214254 0.151238,-0.144937 0.151238,-0.340286 0,-0.19535 -0.151238,-0.333985 -0.151238,-0.144936 -0.43481,-0.214254 -0.27727,-0.07562 -0.661667,-0.07562 z"
         id="text5-9-8"
         aria-label="푸싱강" />
    </g>
    <text
       xml:space="preserve"
       transform="matrix(0.31615295,0,0,0.31615295,-10.474341,-6.4462013)"
       id="text6"
       style="font-size:55px;line-height:1.25;font-family:'Microsoft JhengHei';-inkscape-font-specification:'Microsoft JhengHei';white-space:pre;shape-inside:url(#rect6);display:inline" />
  </g>
</svg>
