<?xml version="1.0" encoding="UTF-8" standalone="no"?>
<!-- Created with Inkscape (http://www.inkscape.org/) -->

<svg
   width="500"
   height="250"
   viewBox="0 0 132.29166 66.145833"
   version="1.1"
   id="svg1"
   inkscape:version="1.3.2 (091e20e, 2023-11-25, custom)"
   sodipodi:docname="r24.svg"
   xmlns:inkscape="http://www.inkscape.org/namespaces/inkscape"
   xmlns:sodipodi="http://sodipodi.sourceforge.net/DTD/sodipodi-0.dtd"
   xmlns="http://www.w3.org/2000/svg"
   xmlns:svg="http://www.w3.org/2000/svg">
  <sodipodi:namedview
     id="namedview1"
     pagecolor="#9e652e"
     bordercolor="#ffffff"
     borderopacity="1"
     inkscape:showpageshadow="0"
     inkscape:pageopacity="0"
     inkscape:pagecheckerboard="false"
     inkscape:deskcolor="#d1d1d1"
     inkscape:document-units="mm"
     inkscape:zoom="2.0208096"
     inkscape:cx="296.9107"
     inkscape:cy="82.640146"
     inkscape:window-width="1920"
     inkscape:window-height="1009"
     inkscape:window-x="1912"
     inkscape:window-y="-8"
     inkscape:window-maximized="1"
     inkscape:current-layer="layer1" />
  <defs
     id="defs1">
    <rect
       x="560.66638"
       y="34.144731"
       width="279.32397"
       height="128.59143"
       id="rect6" />
    <rect
       x="157.85752"
       y="62.351248"
       width="541.85369"
       height="99.322566"
       id="rect4" />
    <rect
       x="157.85751"
       y="62.35125"
       width="329.07602"
       height="135.09438"
       id="rect4-5" />
    <rect
       x="157.85751"
       y="62.35125"
       width="470.56151"
       height="119.92888"
       id="rect4-5-3" />
    <rect
       x="157.85751"
       y="62.35125"
       width="460.82318"
       height="88.90795"
       id="rect4-5-32" />
  </defs>
  <g
     inkscape:label="Layer 1"
     inkscape:groupmode="layer"
     id="layer1">
    <rect
       style="fill:#d0002b;fill-opacity:1;stroke:none;stroke-width:0.953294;stroke-dasharray:none"
       id="rect5"
       width="132.29167"
       height="66.145836"
       x="-2.5431316e-06"
       y="-1.2715658e-06"
       ry="0" />
    <g
       id="g16"
       transform="matrix(1.1095583,0,0,1.1095583,19.910153,-3.6234118)">
      <path
         id="rect1"
         style="fill-opacity:0;stroke:#ffffff;stroke-width:0.810881"
         d="m 18.989333,16.971979 h 10.686722 c 3.377614,0 6.096777,2.719163 6.096777,6.096777 v 20.00832 c 0,3.377614 -2.719163,6.096777 -6.096777,6.096777 H 18.989333 c -3.377614,0 -6.096777,-2.719163 -6.096777,-6.096777 v -20.00832 c 0,-3.377614 2.719163,-6.096777 6.096777,-6.096777 z" />
      <path
         style="font-size:12.2918px;line-height:1.25;font-family:'AR UDJingXiHeiE1G30 EB';-inkscape-font-specification:'AR UDJingXiHeiE1G30 EB';fill:#ffffff;stroke-width:0.256079"
         d="m 26.182626,24.962252 q 0,-0.651466 -0.344171,-0.983344 -0.34417,-0.344171 -0.995635,-0.344171 h -2.667321 v 2.765655 h 2.581278 q 0.639174,0 1.032511,-0.381046 0.393338,-0.381045 0.393338,-1.057094 z m -4.007127,2.642737 V 31.30482 H 20.61444 v -8.886971 h 4.523383 q 1.216888,0 1.929812,0.651465 0.725216,0.639174 0.725216,1.819187 0,0.774383 -0.368754,1.327514 -0.356462,0.553131 -0.897301,0.786675 0.688341,0.393338 1.057095,1.36439 0.368754,0.971052 0.467088,2.93774 h -1.622517 q -0.07375,-2.065022 -0.454797,-2.876281 -0.368754,-0.82355 -1.192304,-0.82355 z"
         id="text2"
         aria-label="R" />
      <path
         style="font-size:12.3781px;line-height:1.25;font-family:'AR UDJingXiHeiE1G30 EB';-inkscape-font-specification:'AR UDJingXiHeiE1G30 EB';fill:#ffffff;stroke-width:0.225056"
         d="m 17.710383,37.058399 q 0,-1.386348 0.841711,-2.178546 0.841711,-0.804577 2.203302,-0.804577 1.398725,0 2.178545,0.705552 0.792199,0.693174 0.792199,1.930984 0,0.878845 -0.569393,1.770068 -0.557014,0.878845 -1.75769,1.943362 l -1.683422,1.522506 h 3.985749 v 1.225432 h -6.028135 v -1.126407 l 2.500376,-2.252814 q 1.101651,-1.002626 1.534884,-1.708178 0.445612,-0.71793 0.445612,-1.373969 0,-0.618905 -0.358965,-1.002626 -0.358965,-0.383721 -1.03976,-0.383721 -0.680796,0 -1.101651,0.470367 -0.420856,0.470368 -0.420856,1.262567 z m 10.929854,4.183798 h -3.874345 v -1.089273 l 3.800076,-5.92911 h 1.596775 v 5.780573 h 1.17592 v 1.23781 h -1.17592 v 1.930983 h -1.522506 z m -2.302327,-1.23781 h 2.302327 v -3.639162 z"
         id="text3"
         aria-label="24" />
      <path
         style="font-weight:500;font-size:72px;line-height:1.25;font-family:'Noto Sans TC';-inkscape-font-specification:'Noto Sans TC Medium';white-space:pre;fill:#ffffff"
         d="m 178.23342,116.00141 h 7.056 v 14.904 q 0,1.584 0.792,2.088 0.864,0.504 3.816,0.504 0.648,0 2.304,0 1.728,0 3.744,0 2.016,0 3.744,0 1.8,0 2.664,0 1.728,0 2.592,-0.648 0.864,-0.648 1.224,-2.592 0.36,-1.944 0.504,-5.904 0.792,0.576 1.944,1.152 1.152,0.504 2.376,0.936 1.224,0.36 2.16,0.648 -0.432,5.112 -1.44,7.92 -1.008,2.736 -3.096,3.816 -2.088,1.08 -5.688,1.08 -0.576,0 -2.016,0 -1.368,0 -3.168,0 -1.728,0 -3.528,0 -1.728,0 -3.168,0 -1.368,0 -1.872,0 -4.32,0 -6.696,-0.792 -2.376,-0.792 -3.312,-2.736 -0.936,-1.944 -0.936,-5.4 z m 9.432,0 5.256,-3.744 q 1.872,1.44 3.96,3.24 2.088,1.8 3.96,3.6 1.872,1.728 3.024,3.168 l -5.472,4.176 q -1.08,-1.44 -2.952,-3.24 -1.8,-1.872 -3.816,-3.744 -2.016,-1.944 -3.96,-3.456 z m 22.464,2.376 5.904,-2.88 q 1.872,2.448 3.96,5.472 2.16,3.024 3.96,5.904 1.872,2.88 3.024,5.112 l -6.264,3.456 q -1.008,-2.232 -2.808,-5.184 -1.8,-2.952 -3.888,-6.048 -2.016,-3.168 -3.888,-5.832 z m -41.76,-2.448 6.048,2.448 q -0.936,2.808 -2.16,6.12 -1.224,3.24 -2.592,6.408 -1.296,3.168 -2.808,5.616 l -6.408,-2.88 q 1.584,-2.376 3.096,-5.4 1.512,-3.024 2.736,-6.192 1.296,-3.24 2.088,-6.12 z m 22.032,-41.256004 h 6.84 v 38.808004 h -6.84 z m -16.704,14.472 v 11.736004 h 40.536 V 89.145406 Z m -6.552,-6.12 h 53.928 v 23.904004 h -53.928 z m 69.768,-1.152 h 58.032 v 5.184 h -58.032 z m 3.888,8.856 h 50.256 v 4.896 h -50.256 z m -7.056,8.64 h 64.296 v 5.328004 h -64.296 z m -0.072,16.416004 h 64.656 v 5.184 h -64.656 z m 28.584,-31.104004 h 6.984 v 17.352004 h -6.984 z m 15.48,-10.152 7.416,1.584 q -1.44,2.16 -2.88,4.176 -1.44,2.016 -2.592,3.384 l -5.832,-1.584 q 1.008,-1.656 2.088,-3.816 1.152,-2.16 1.8,-3.744 z m -44.352,51.624004 q 4.248,-0.216 9.648,-0.504 5.472,-0.36 11.664,-0.792 6.192,-0.432 12.384,-0.864 l -0.072,4.752 q -5.904,0.504 -11.88,1.008 -5.904,0.504 -11.376,0.936 -5.4,0.432 -9.792,0.792 z m 15.12,-18 h 6.624 v 27 q 0,2.52 -0.72,3.672 -0.648,1.224 -2.448,1.8 -1.8,0.648 -4.536,0.72 -2.736,0.144 -6.84,0.144 -0.216,-1.152 -0.864,-2.664 -0.576,-1.512 -1.152,-2.592 1.8,0.072 3.528,0.072 1.8,0.072 3.168,0 1.368,0 1.872,0 0.792,0 1.08,-0.288 0.288,-0.288 0.288,-1.008 z m 13.536,-3.168 4.032,4.104 q -3.96,0.936 -9.072,1.656 -5.112,0.648 -10.512,1.152 -5.328,0.432 -10.296,0.648 -0.144,-0.864 -0.648,-2.088 -0.432,-1.296 -0.864,-2.16 4.824,-0.288 9.936,-0.72 5.112,-0.504 9.648,-1.152 4.608,-0.648 7.776,-1.44 z m 6.12,0.72 h 6.48 q 0.288,6.336 1.8,11.736 1.512,5.4 3.816,9.432 2.304,3.96 5.184,6.192 2.88,2.232 6.048,2.16 1.44,0 1.944,-1.296 0.576,-1.368 0.864,-4.896 1.008,0.864 2.448,1.584 1.44,0.72 2.664,1.08 -0.504,3.96 -1.512,6.048 -0.936,2.088 -2.592,2.88 -1.584,0.792 -4.104,0.864 -4.824,0 -8.856,-2.736 -3.96,-2.664 -7.056,-7.488 -3.024,-4.896 -4.896,-11.376 -1.8,-6.552 -2.232,-14.184 z m 19.152,15.552 5.832,2.016 q -3.312,4.32 -8.208,7.776 -4.896,3.456 -10.656,5.976 -5.688,2.52 -11.592,4.32 -0.216,-0.648 -0.864,-1.728 -0.648,-1.008 -1.368,-2.016 -0.648,-1.008 -1.224,-1.656 5.616,-1.296 10.944,-3.384 5.4,-2.088 9.864,-4.896 4.464,-2.88 7.272,-6.408 z m -8.424,-12.168 3.744,-3.96 q 2.088,0.72 4.32,1.8 2.232,1.08 4.248,2.304 2.088,1.152 3.384,2.232 l -3.96,4.392 q -1.224,-1.08 -3.24,-2.304 -1.944,-1.224 -4.176,-2.376 -2.232,-1.224 -4.32,-2.088 z m -31.464,-32.400004 5.976,-2.016 q 1.512,1.584 2.808,3.6 1.368,1.944 2.016,3.528 l -6.336,2.376 q -0.504,-1.512 -1.8,-3.672 -1.224,-2.16 -2.664,-3.816 z"
         id="text4"
         transform="matrix(0.22505692,0,0,0.22505692,3.4694169,1.1325221)"
         aria-label="忠義" />
      <path
         style="font-size:6.30159px;line-height:1.25;font-family:'AR UDJingXiHeiE1G30 EB';-inkscape-font-specification:'AR UDJingXiHeiE1G30 EB';fill:#ffffff;stroke-width:0.225056"
         d="m 39.942455,35.237156 h 3.5667 v 0.573445 l -2.747493,3.358747 h 2.810509 v 0.623858 h -3.837669 v -0.573445 l 2.747494,-3.358748 h -2.539541 z m 5.167304,2.533239 v 2.022811 h -0.800302 v -4.55605 h 0.800302 v 1.909382 h 2.186652 v -1.909382 h 0.800302 v 4.55605 h -0.800302 v -2.022811 z m 8.412623,-0.233159 q 0,1.096477 -0.611254,1.720334 -0.604953,0.617556 -1.657318,0.617556 -1.07127,0 -1.676223,-0.623857 -0.604953,-0.623858 -0.604953,-1.714033 0,-1.109079 0.611255,-1.739238 0.611254,-0.636461 1.669921,-0.636461 1.07127,0 1.669921,0.630159 0.598651,0.630159 0.598651,1.74554 z m -2.268572,1.714033 q 0.686873,0 1.058667,-0.453715 0.378095,-0.453714 0.378095,-1.260318 0,-0.800302 -0.378095,-1.272921 -0.378095,-0.478921 -1.058667,-0.478921 -0.693175,0 -1.077572,0.485223 -0.378095,0.478921 -0.378095,1.266619 0,0.806604 0.384397,1.260318 0.384397,0.453715 1.07127,0.453715 z m 3.938495,-2.747493 v 3.28943 h -0.800302 v -4.55605 h 0.825508 l 2.237065,3.365049 v -3.365049 h 0.800301 v 4.55605 h -0.875921 z m 7.454776,2.73489 q -0.233159,0.327682 -0.586048,0.485222 -0.346588,0.151238 -0.794,0.151238 -0.983048,0 -1.562795,-0.617556 -0.579746,-0.623857 -0.579746,-1.739238 0,-1.121683 0.611254,-1.739239 0.611254,-0.617556 1.651017,-0.617556 0.838111,0 1.361143,0.384397 0.529334,0.378095 0.636461,1.083873 h -0.800302 q -0.06302,-0.371793 -0.371794,-0.604952 -0.302476,-0.239461 -0.825508,-0.239461 -0.699477,0 -1.064969,0.453715 -0.365492,0.447413 -0.365492,1.279223 0,0.888524 0.384397,1.31073 0.384397,0.415905 1.046064,0.415905 0.579746,0 0.920032,-0.340286 0.340286,-0.340285 0.340286,-0.781397 v -0.09452 h -1.291826 v -0.623857 h 2.06062 v 2.388303 h -0.768794 z m 3.402857,-1.985001 1.298127,-2.016509 h 0.894826 l -1.795953,2.678176 v 1.877874 h -0.800302 v -1.877874 l -1.827461,-2.678176 h 0.91373 z m 3.503685,-2.016509 v 4.55605 h -0.800302 v -4.55605 z"
         id="text5"
         aria-label="ZHONGYI" />
      <path
         d="m 41.293054,45.744703 h 0.586048 v 1.241414 q 0,0.138635 0.06302,0.176444 0.06932,0.03781 0.308778,0.03781 0.05041,0 0.182747,0 0.138634,0 0.302476,0 0.163841,0 0.302476,0 0.144937,0 0.220556,0 0.138635,0 0.201651,-0.05041 0.06932,-0.05041 0.100825,-0.207952 0.03151,-0.15754 0.04411,-0.478921 0.06302,0.05041 0.15754,0.09452 0.09452,0.04411 0.195349,0.07562 0.100826,0.03151 0.176445,0.05671 -0.03151,0.415905 -0.11973,0.642762 -0.08192,0.226857 -0.245762,0.31508 -0.163842,0.08822 -0.460016,0.08822 -0.05041,0 -0.163842,0 -0.107127,0 -0.252063,0 -0.144937,0 -0.296175,0 -0.144937,0 -0.258365,0 -0.107127,0 -0.151238,0 -0.35289,0 -0.55454,-0.06932 -0.19535,-0.06302 -0.270969,-0.233158 -0.06932,-0.163842 -0.06932,-0.447413 z m 0.428508,-0.245762 0.415905,-0.340285 q 0.214254,0.11973 0.434809,0.27727 0.226858,0.151238 0.415905,0.315079 0.189048,0.15754 0.296175,0.308778 l -0.447413,0.378095 q -0.107127,-0.151238 -0.289873,-0.321381 -0.176444,-0.170143 -0.397,-0.327682 -0.214254,-0.163842 -0.428508,-0.289874 z m 2.136239,0.447413 0.504127,-0.252063 q 0.23946,0.220555 0.466318,0.491524 0.226857,0.264667 0.403301,0.541936 0.182747,0.270969 0.27727,0.504128 l -0.55454,0.27727 q -0.08192,-0.226858 -0.252063,-0.497826 -0.163841,-0.27727 -0.384397,-0.55454 -0.220556,-0.27727 -0.460016,-0.510429 z m -3.415462,-0.176444 0.535635,0.163841 q -0.113428,0.460016 -0.308778,0.894826 -0.189047,0.428508 -0.548238,0.71208 l -0.497826,-0.327683 q 0.327683,-0.245762 0.529334,-0.630159 0.201651,-0.390699 0.289873,-0.812905 z M 40.20918,42.694734 h 4.694685 v 2.350493 H 44.305214 V 43.236671 H 40.782625 V 45.09564 H 40.20918 Z m 0.352889,1.594302 h 4.014113 v 0.535635 h -4.014113 z m 1.669922,-2.325287 h 0.598651 v 3.44697 h -0.598651 z m 4.096033,0.630159 h 5.079082 v 0.453715 h -5.079082 z m 0.340286,0.775096 h 4.39851 v 0.428508 h -4.39851 z m -0.617556,0.756191 h 5.62732 v 0.466317 h -5.62732 z m -0.0063,1.436762 h 5.658827 v 0.453715 h -5.658827 z m 2.501731,-2.722287 h 0.611254 v 1.518684 h -0.611254 z m 1.354842,-0.888524 0.649063,0.138635 q -0.126031,0.189048 -0.252063,0.365492 -0.126032,0.176445 -0.226857,0.296175 L 49.56074,42.612813 q 0.08822,-0.144936 0.182746,-0.333984 0.100825,-0.189048 0.15754,-0.327683 z m -3.88178,4.51824 q 0.371794,-0.0189 0.844413,-0.04411 0.478921,-0.03151 1.020858,-0.06932 0.541937,-0.03781 1.083873,-0.07562 l -0.0063,0.415905 q -0.516731,0.04411 -1.039763,0.08822 -0.51673,0.04411 -0.995651,0.08192 -0.472619,0.03781 -0.857016,0.06932 z m 1.323334,-1.575397 h 0.579746 v 2.363096 q 0,0.220556 -0.06302,0.321381 -0.05671,0.107127 -0.214254,0.15754 -0.157539,0.05671 -0.397,0.06302 -0.23946,0.0126 -0.598651,0.0126 -0.01891,-0.100825 -0.07562,-0.233159 -0.05041,-0.132333 -0.100825,-0.226857 0.157539,0.0063 0.308778,0.0063 0.157539,0.0063 0.27727,0 0.11973,0 0.163841,0 0.06932,0 0.09452,-0.02521 0.02521,-0.02521 0.02521,-0.08822 z m 1.184699,-0.27727 0.352889,0.35919 q -0.346587,0.08192 -0.794,0.144937 -0.447413,0.05671 -0.920032,0.100825 -0.466318,0.03781 -0.901128,0.05671 -0.0126,-0.07562 -0.05671,-0.182746 -0.03781,-0.113429 -0.07562,-0.189048 0.422206,-0.02521 0.869619,-0.06302 0.447413,-0.04411 0.844413,-0.100825 0.403302,-0.05671 0.680572,-0.126032 z m 0.535635,0.06302 h 0.567143 q 0.02521,0.55454 0.15754,1.027159 0.132333,0.472619 0.333984,0.825508 0.201651,0.346588 0.453715,0.541937 0.252063,0.195349 0.529333,0.189048 0.126032,0 0.170143,-0.113429 0.05041,-0.11973 0.07562,-0.428508 0.08822,0.07562 0.214254,0.138635 0.126032,0.06302 0.233159,0.09452 -0.04411,0.346587 -0.132333,0.529333 -0.08192,0.182746 -0.226857,0.252064 -0.138635,0.06932 -0.359191,0.07562 -0.422207,0 -0.775096,-0.23946 -0.346587,-0.233159 -0.617555,-0.655366 -0.264667,-0.428508 -0.428509,-0.995651 -0.157539,-0.573445 -0.195349,-1.241413 z m 1.676223,1.361143 0.510429,0.176445 q -0.289873,0.378095 -0.718381,0.680571 -0.428509,0.302477 -0.932636,0.523032 -0.497825,0.220556 -1.014556,0.378096 -0.0189,-0.05672 -0.07562,-0.151238 -0.05671,-0.08822 -0.11973,-0.176445 -0.05671,-0.08822 -0.107127,-0.144936 0.491524,-0.113429 0.957842,-0.296175 0.472619,-0.182746 0.863317,-0.428508 0.390699,-0.252064 0.636461,-0.560842 z m -0.737286,-1.064969 0.327683,-0.346587 q 0.182746,0.06302 0.378095,0.15754 0.195349,0.09452 0.371794,0.201651 0.182746,0.100825 0.296175,0.195349 l -0.346588,0.384397 q -0.107127,-0.09452 -0.283571,-0.201651 -0.170143,-0.107127 -0.365493,-0.207952 -0.195349,-0.107127 -0.378095,-0.182747 z m -2.753795,-2.835715 0.523032,-0.176445 q 0.132334,0.138635 0.245762,0.31508 0.11973,0.170143 0.176445,0.308778 l -0.55454,0.207952 q -0.04411,-0.132333 -0.15754,-0.321381 -0.107127,-0.189047 -0.233159,-0.333984 z"
         id="text5-9"
         style="font-weight:500;font-size:6.30159px;line-height:1.25;font-family:'Noto Sans JP';-inkscape-font-specification:'Noto Sans JP Medium';fill:#ffffff;stroke-width:0.225056"
         aria-label="忠義" />
      <path
         style="font-weight:500;font-size:6.30159px;line-height:1.25;font-family:'Noto Sans KR';-inkscape-font-specification:'Noto Sans KR Medium';fill:#ffffff;stroke-width:0.225056"
         d="m 59.352391,45.000219 h 0.661667 v 1.014556 h -0.661667 z m -2.268573,-0.220556 h 5.205114 v 0.529334 h -5.205114 z m 2.589954,1.039763 q 0.932635,0 1.455667,0.270968 0.529334,0.264667 0.529334,0.756191 0,0.491524 -0.529334,0.756191 -0.523032,0.264666 -1.455667,0.264666 -0.926334,0 -1.455667,-0.264666 -0.523032,-0.264667 -0.523032,-0.756191 0,-0.491524 0.523032,-0.756191 0.529333,-0.270968 1.455667,-0.270968 z m 0,0.510429 q -0.415905,0 -0.71208,0.06302 -0.296174,0.05671 -0.453714,0.170143 -0.151238,0.113429 -0.151238,0.283572 0,0.170143 0.151238,0.289873 0.15754,0.113429 0.453714,0.170143 0.296175,0.05671 0.71208,0.05671 0.428508,0 0.718381,-0.05671 0.296175,-0.05671 0.447413,-0.170143 0.151238,-0.11973 0.151238,-0.289873 0,-0.170143 -0.151238,-0.283572 -0.151238,-0.113428 -0.447413,-0.170143 -0.289873,-0.06302 -0.718381,-0.06302 z M 59.245264,42.62452 h 0.586048 v 0.157539 q 0,0.270969 -0.107127,0.510429 -0.107127,0.233159 -0.308778,0.43481 -0.201651,0.195349 -0.478921,0.352889 -0.27727,0.15754 -0.623858,0.258365 -0.340285,0.100826 -0.737286,0.144937 l -0.233158,-0.516731 q 0.340285,-0.03151 0.630159,-0.107127 0.296174,-0.08192 0.529333,-0.195349 0.233159,-0.113429 0.397,-0.252064 0.163842,-0.144936 0.252064,-0.302476 0.09452,-0.163841 0.09452,-0.327683 z m 0.296175,0 h 0.586047 v 0.157539 q 0,0.170143 0.08822,0.333985 0.08822,0.157539 0.252063,0.296174 0.163842,0.138635 0.397,0.252064 0.239461,0.113429 0.529334,0.195349 0.296175,0.07562 0.636461,0.107127 l -0.233159,0.516731 q -0.397,-0.04411 -0.743588,-0.144937 -0.340286,-0.100825 -0.623857,-0.252063 -0.27727,-0.15754 -0.478921,-0.35289 -0.195349,-0.20165 -0.302476,-0.441111 -0.107127,-0.245762 -0.107127,-0.510429 z m -1.985001,-0.252064 h 4.259875 v 0.523032 h -4.259875 z m 9.401973,-0.258365 h 0.661667 v 5.772256 h -0.661667 z m -2.400906,0.422206 q 0.428508,0 0.762492,0.252064 0.340286,0.252064 0.529334,0.705778 0.189047,0.453715 0.189047,1.07127 0,0.623858 -0.189047,1.083874 -0.189048,0.453714 -0.529334,0.705778 -0.333984,0.245762 -0.762492,0.245762 -0.428508,0 -0.768794,-0.245762 -0.333984,-0.252064 -0.529334,-0.705778 -0.189047,-0.460016 -0.189047,-1.083874 0,-0.617555 0.189047,-1.07127 0.19535,-0.453714 0.529334,-0.705778 0.340286,-0.252064 0.768794,-0.252064 z m 0,0.598651 q -0.252064,0 -0.447413,0.170143 -0.189048,0.170143 -0.296175,0.491524 -0.107127,0.321381 -0.107127,0.768794 0,0.453715 0.107127,0.775096 0.107127,0.321381 0.296175,0.497826 0.195349,0.170142 0.447413,0.170142 0.252063,0 0.441111,-0.170142 0.189048,-0.176445 0.296175,-0.497826 0.107127,-0.321381 0.107127,-0.775096 0,-0.447413 -0.107127,-0.768794 -0.107127,-0.321381 -0.296175,-0.491524 -0.189048,-0.170143 -0.441111,-0.170143 z"
         id="text5-9-8"
         aria-label="중이" />
    </g>
    <text
       xml:space="preserve"
       transform="matrix(0.31615295,0,0,0.31615295,-10.474341,-6.4462013)"
       id="text6"
       style="font-size:55px;line-height:1.25;font-family:'Microsoft JhengHei';-inkscape-font-specification:'Microsoft JhengHei';white-space:pre;shape-inside:url(#rect6);display:inline" />
  </g>
</svg>
