<?xml version="1.0" encoding="UTF-8" standalone="no"?>
<!-- Created with Inkscape (http://www.inkscape.org/) -->

<svg
   width="500"
   height="250"
   viewBox="0 0 132.29166 66.145833"
   version="1.1"
   id="svg1"
   inkscape:version="1.3.2 (091e20e, 2023-11-25, custom)"
   sodipodi:docname="r25.svg"
   xmlns:inkscape="http://www.inkscape.org/namespaces/inkscape"
   xmlns:sodipodi="http://sodipodi.sourceforge.net/DTD/sodipodi-0.dtd"
   xmlns="http://www.w3.org/2000/svg"
   xmlns:svg="http://www.w3.org/2000/svg">
  <sodipodi:namedview
     id="namedview1"
     pagecolor="#9e652e"
     bordercolor="#ffffff"
     borderopacity="1"
     inkscape:showpageshadow="0"
     inkscape:pageopacity="0"
     inkscape:pagecheckerboard="false"
     inkscape:deskcolor="#d1d1d1"
     inkscape:document-units="mm"
     inkscape:zoom="2.0208096"
     inkscape:cx="296.9107"
     inkscape:cy="82.640146"
     inkscape:window-width="1920"
     inkscape:window-height="1009"
     inkscape:window-x="1912"
     inkscape:window-y="-8"
     inkscape:window-maximized="1"
     inkscape:current-layer="layer1" />
  <defs
     id="defs1">
    <rect
       x="560.66638"
       y="34.144731"
       width="279.32397"
       height="128.59143"
       id="rect6" />
    <rect
       x="157.85752"
       y="62.351248"
       width="541.85369"
       height="99.322566"
       id="rect4" />
    <rect
       x="157.85751"
       y="62.35125"
       width="329.07602"
       height="135.09438"
       id="rect4-5" />
    <rect
       x="157.85751"
       y="62.35125"
       width="470.56151"
       height="119.92888"
       id="rect4-5-3" />
    <rect
       x="157.85751"
       y="62.35125"
       width="460.82318"
       height="88.90795"
       id="rect4-5-32" />
  </defs>
  <g
     inkscape:label="Layer 1"
     inkscape:groupmode="layer"
     id="layer1">
    <path
       id="rect5"
       style="fill:#d0002b;stroke-width:0.953294"
       d="M -2.5431316e-6,-1.2715658e-6 H 132.29167 V 66.145835 H -2.5431316e-6 Z" />
    <g
       id="g16"
       transform="matrix(1.1095583,0,0,1.1095583,19.910153,-3.6234118)">
      <path
         id="rect1"
         style="fill-opacity:0;stroke:#ffffff;stroke-width:0.810881"
         d="m 18.989333,16.971979 h 10.686722 c 3.377614,0 6.096777,2.719163 6.096777,6.096777 v 20.00832 c 0,3.377614 -2.719163,6.096777 -6.096777,6.096777 H 18.989333 c -3.377614,0 -6.096777,-2.719163 -6.096777,-6.096777 v -20.00832 c 0,-3.377614 2.719163,-6.096777 6.096777,-6.096777 z" />
      <path
         style="font-size:12.2918px;line-height:1.25;font-family:'AR UDJingXiHeiE1G30 EB';-inkscape-font-specification:'AR UDJingXiHeiE1G30 EB';fill:#ffffff;stroke-width:0.256079"
         d="m 26.182626,24.962252 q 0,-0.651466 -0.344171,-0.983344 -0.34417,-0.344171 -0.995635,-0.344171 h -2.667321 v 2.765655 h 2.581278 q 0.639174,0 1.032511,-0.381046 0.393338,-0.381045 0.393338,-1.057094 z m -4.007127,2.642737 V 31.30482 H 20.61444 v -8.886971 h 4.523383 q 1.216888,0 1.929812,0.651465 0.725216,0.639174 0.725216,1.819187 0,0.774383 -0.368754,1.327514 -0.356462,0.553131 -0.897301,0.786675 0.688341,0.393338 1.057095,1.36439 0.368754,0.971052 0.467088,2.93774 h -1.622517 q -0.07375,-2.065022 -0.454797,-2.876281 -0.368754,-0.82355 -1.192304,-0.82355 z"
         id="text2"
         aria-label="R" />
      <path
         style="font-size:12.3781px;line-height:1.25;font-family:'AR UDJingXiHeiE1G30 EB';-inkscape-font-specification:'AR UDJingXiHeiE1G30 EB';fill:#ffffff;stroke-width:0.225056"
         d="m 17.710383,37.058399 q 0,-1.386348 0.841711,-2.178546 0.841711,-0.804577 2.203302,-0.804577 1.398725,0 2.178545,0.705552 0.792199,0.693174 0.792199,1.930984 0,0.878845 -0.569393,1.770068 -0.557014,0.878845 -1.75769,1.943362 l -1.683422,1.522506 h 3.985749 v 1.225432 h -6.028135 v -1.126407 l 2.500376,-2.252814 q 1.101651,-1.002626 1.534884,-1.708178 0.445612,-0.71793 0.445612,-1.373969 0,-0.618905 -0.358965,-1.002626 -0.358965,-0.383721 -1.03976,-0.383721 -0.680796,0 -1.101651,0.470367 -0.420856,0.470368 -0.420856,1.262567 z m 10.323327,1.262566 q -0.532258,0 -0.915979,0.198049 -0.383721,0.185672 -0.65604,0.569393 l -1.386347,-0.148537 0.668418,-4.716056 h 5.000752 v 1.225432 h -3.738186 l -0.346587,2.339461 q 0.309453,-0.346587 0.742686,-0.519881 0.445612,-0.185671 1.03976,-0.185671 1.274945,0 2.017631,0.829333 0.742686,0.829332 0.742686,2.265192 0,1.49775 -0.829333,2.327083 -0.829333,0.829333 -2.327083,0.829333 -1.472994,0 -2.302326,-0.730308 -0.829333,-0.730308 -0.854089,-1.968118 h 1.522506 q -0.01238,0.58177 0.396099,1.027382 0.408478,0.445612 1.200676,0.445612 0.755064,0 1.188298,-0.495124 0.445611,-0.507503 0.445611,-1.460616 0,-0.891224 -0.457989,-1.361591 -0.45799,-0.470368 -1.151164,-0.470368 z"
         id="text3"
         aria-label="25" />
      <path
         style="font-weight:500;font-size:72px;line-height:1.25;font-family:'Noto Sans TC';-inkscape-font-specification:'Noto Sans TC Medium';white-space:pre;fill:#ffffff"
         d="m 186.51342,112.61741 3.456,-1.008 q 0.936,1.872 1.944,4.176 1.08,2.232 1.584,3.672 l -3.6,1.368 q -0.504,-1.584 -1.512,-3.888 -0.936,-2.376 -1.872,-4.32 z m 9.216,7.92 h 4.896 v 19.944 h -4.896 z m -19.08,1.152 h 4.392 v 6.48 h 8.352 v 4.032 h -12.744 z m 10.152,-1.152 h 4.824 v 6.696 q 0,2.808 -0.72,5.4 -0.72,2.52 -2.952,4.68 -2.16,2.16 -6.768,3.816 -0.432,-0.864 -1.44,-2.088 -0.936,-1.152 -1.728,-1.8 3.888,-1.224 5.76,-2.808 1.872,-1.584 2.448,-3.456 0.576,-1.944 0.576,-3.816 z m -19.44,-33.696004 h 19.296 v 4.392 h -19.296 z m 33.048,0 h 19.728 v 4.392 h -19.728 z m 17.28,-9.216 h 6.624 v 55.728004 q 0,2.664 -0.576,4.176 -0.576,1.584 -2.16,2.448 -1.584,0.864 -4.032,1.08 -2.448,0.216 -5.976,0.216 -0.072,-0.936 -0.432,-2.16 -0.288,-1.224 -0.72,-2.52 -0.36,-1.224 -0.792,-2.016 2.16,0.072 4.104,0.072 2.016,0 2.736,0 0.72,-0.072 0.936,-0.36 0.288,-0.288 0.288,-1.008 z m -49.752,0 h 22.968 v 22.680004 h -22.968 v -4.752004 h 16.56 v -13.176 h -16.56 z m 53.136,0 v 4.752 h -18 v 13.176 h 18 v 4.752004 h -24.48 V 77.625406 Z m -57.24,0 h 6.552 v 63.936004 h -6.552 z m 12.024,34.200004 q -0.216,-0.72 -0.648,-2.016 -0.36,-1.368 -0.792,-2.232 0.576,-0.072 1.152,-0.36 0.648,-0.36 1.224,-0.864 0.36,-0.432 1.296,-1.44 0.936,-1.008 2.016,-2.376 1.08,-1.44 1.8,-3.024004 l 4.176,2.160004 q -1.656,2.304 -3.6,4.32 -1.944,2.016 -3.816,3.384 v 0.144 q 0,0 -0.72,0.36 -0.648,0.36 -1.368,0.936 -0.72,0.504 -0.72,1.008 z m 0,0.072 -0.072,-2.88 2.16,-1.152 9.432,-0.432 q -0.288,0.72 -0.576,1.728 -0.216,0.936 -0.36,1.512 -4.032,0.216 -6.192,0.432 -2.088,0.216 -3.024,0.432 -0.936,0.144 -1.368,0.36 z m -0.36,8.496 q -0.144,-0.648 -0.576,-1.944 -0.36,-1.296 -0.72,-2.16 0.792,-0.072 1.728,-0.576 1.008,-0.576 2.088,-1.44 0.792,-0.576 2.592,-2.088 1.8,-1.584 3.888,-3.744 2.16,-2.16 3.888,-4.464 l 3.528,2.52 q -3.096,3.312 -6.624,6.408 -3.528,3.024 -7.056,5.184 v 0.216 q 0,0 -0.72,0.288 -0.648,0.288 -1.368,0.792 -0.648,0.504 -0.648,1.008 z m 0,0.072 -0.072,-3.096 2.088,-1.224 12.6,-1.08 q 0.072,0.72 0.216,1.728 0.144,0.936 0.288,1.512 -4.536,0.504 -7.344,0.864 -2.808,0.288 -4.392,0.504 -1.584,0.216 -2.304,0.432 -0.648,0.144 -1.08,0.36 z m 30.456,-7.776 3.384,-1.152 q 1.08,1.944 2.16,4.176 1.152,2.232 1.656,3.744 l -3.528,1.44 q -0.576,-1.584 -1.656,-3.888 -1.008,-2.376 -2.016,-4.32 z m -10.584,-0.72 q -0.216,-0.72 -0.648,-2.088 -0.36,-1.368 -0.792,-2.232 0.576,-0.072 1.152,-0.36 0.648,-0.36 1.224,-0.864 0.36,-0.432 1.296,-1.44 0.936,-1.008 2.016,-2.376 1.08,-1.44 1.872,-2.952004 l 4.104,2.088004 q -1.656,2.304 -3.6,4.392 -1.944,2.016 -3.816,3.312 v 0.144 q 0,0 -0.72,0.36 -0.648,0.36 -1.368,0.936 -0.72,0.504 -0.72,1.08 z m 0,0 v -2.952 l 2.088,-1.152 9.432,-0.36 q -0.216,0.72 -0.504,1.728 -0.288,0.936 -0.36,1.512 -4.032,0.216 -6.192,0.432 -2.16,0.144 -3.096,0.36 -0.864,0.216 -1.368,0.432 z m -0.288,8.496 q -0.144,-0.648 -0.576,-1.944 -0.36,-1.296 -0.72,-2.16 0.864,-0.072 1.8,-0.576 0.936,-0.576 2.016,-1.44 0.792,-0.576 2.592,-2.16 1.8,-1.584 3.888,-3.744 2.16,-2.16 3.888,-4.536 l 3.6,2.52 q -3.168,3.384 -6.696,6.48 -3.528,3.096 -7.056,5.328 v 0.144 q 0,0 -0.72,0.36 -0.648,0.288 -1.368,0.792 -0.648,0.504 -0.648,0.936 z m 0,0 -0.072,-3.024 2.088,-1.296 12.6,-1.08 q 0.072,0.792 0.216,1.728 0.216,0.936 0.288,1.584 -4.536,0.432 -7.344,0.792 -2.808,0.288 -4.392,0.576 -1.512,0.216 -2.232,0.432 -0.72,0.144 -1.152,0.288 z m 4.248,7.704 h 9.576 v 4.032 h -9.576 z m 7.128,-6.48 h 4.536 v 12.672 h -4.536 z m 50.472,-40.248004 h 41.688 v 5.832 h -41.688 z m 3.096,12.744 h 38.088 v 5.4 h -38.088 z m 1.728,19.872004 h 29.808 v 5.472 h -29.808 z m -7.992,-32.616004 h 6.48 v 19.584004 q 0,4.392 -0.288,9.648 -0.288,5.256 -1.224,10.656 -0.864,5.4 -2.52,10.584 -1.656,5.112 -4.392,9.36 -0.648,-0.576 -1.656,-1.224 -1.008,-0.648 -2.16,-1.224 -1.08,-0.576 -1.872,-0.864 2.592,-4.032 4.104,-8.712 1.584,-4.752 2.376,-9.648 0.792,-4.968 0.936,-9.72 0.216,-4.752 0.216,-8.856 z m 13.608,7.488 h 5.976 v 16.344004 h 11.592 V 88.929406 h 6.336 v 21.600004 h -23.904 z m 22.104,25.128004 h 1.296 l 1.152,-0.288 4.104,1.872 q -2.088,5.544 -5.688,9.792 -3.528,4.176 -8.136,7.272 -4.536,3.096 -9.936,5.184 -5.328,2.16 -11.16,3.456 -0.432,-1.224 -1.44,-2.88 -0.936,-1.656 -1.8,-2.664 5.328,-1.008 10.224,-2.736 4.968,-1.728 9.144,-4.248 4.248,-2.592 7.344,-6.048 3.168,-3.456 4.896,-7.776 z m -18.504,3.312 q 3.528,7.056 11.016,11.736 7.56,4.608 17.928,6.408 -0.72,0.648 -1.512,1.656 -0.792,1.008 -1.512,2.016 -0.648,1.08 -1.152,1.944 -10.872,-2.304 -18.648,-7.848 -7.704,-5.544 -12.024,-14.184 z m -35.136,-36.864004 3.888,-5.04 q 2.088,0.864 4.392,2.16 2.304,1.224 4.392,2.592 2.088,1.296 3.384,2.52 l -3.96,5.544 q -1.224,-1.296 -3.24,-2.664 -2.016,-1.44 -4.392,-2.808 -2.304,-1.368 -4.464,-2.304 z m -3.6,19.08 3.744,-5.184 q 2.232,0.864 4.68,2.088 2.448,1.152 4.608,2.448 2.232,1.296004 3.6,2.520004 l -3.888,5.688 q -1.296,-1.224 -3.456,-2.592 -2.088,-1.44 -4.536,-2.736 -2.448,-1.296 -4.752,-2.232004 z m 0.864,37.080004 q 1.656,-2.808 3.6,-6.696 1.944,-3.888 3.888,-8.208 1.944,-4.32 3.672,-8.496 l 5.472,3.888 q -1.44,3.888 -3.24,7.992 -1.728,4.104 -3.6,8.064 -1.8,3.888 -3.6,7.416 z m 38.88,-60.984004 6.336,-1.368 q 1.152,2.16 2.16,4.752 1.008,2.52 1.296,4.32 l -6.624,1.728 q -0.288,-1.872 -1.224,-4.536 -0.936,-2.736 -1.944,-4.896 z"
         id="text4"
         transform="matrix(0.22505692,0,0,0.22505692,3.4694169,1.1325221)"
         aria-label="關渡" />
      <path
         style="font-size:6.30159px;line-height:1.25;font-family:'AR UDJingXiHeiE1G30 EB';-inkscape-font-specification:'AR UDJingXiHeiE1G30 EB';fill:#ffffff;stroke-width:0.225056"
         d="m 43.389425,39.238666 q -0.233159,0.327682 -0.586048,0.485222 -0.346588,0.151238 -0.794001,0.151238 -0.983048,0 -1.562794,-0.617556 -0.579746,-0.623857 -0.579746,-1.739238 0,-1.121683 0.611254,-1.739239 0.611254,-0.617556 1.651017,-0.617556 0.838111,0 1.361143,0.384397 0.529334,0.378095 0.636461,1.083873 h -0.800302 q -0.06302,-0.371793 -0.371794,-0.604952 -0.302476,-0.239461 -0.825508,-0.239461 -0.699477,0 -1.064969,0.453715 -0.365492,0.447413 -0.365492,1.279223 0,0.888524 0.384397,1.31073 0.384397,0.415905 1.046064,0.415905 0.579746,0 0.920032,-0.340286 0.340286,-0.340285 0.340286,-0.781397 v -0.09452 h -1.291826 v -0.623857 h 2.06062 v 2.388303 h -0.768794 z m 5.532792,-1.039763 q 0,0.794001 -0.497825,1.235112 -0.497826,0.441111 -1.417858,0.441111 -0.932635,0 -1.436762,-0.434809 -0.497826,-0.43481 -0.497826,-1.235112 v -2.968049 h 0.800302 v 2.930239 q 0,0.516731 0.283571,0.800302 0.283572,0.283572 0.850715,0.283572 0.535635,0 0.819207,-0.270969 0.289873,-0.27727 0.289873,-0.825508 v -2.917636 h 0.806603 z m 3.440669,-0.245762 -0.718381,-1.947191 -0.730985,1.947191 z m -1.682524,0.623858 -0.453715,1.216207 h -0.812905 l 1.833763,-4.55605 h 0.819206 l 1.82116,4.55605 h -0.83181 l -0.460016,-1.216207 z m 4.530837,-2.073223 v 3.28943 h -0.800302 v -4.55605 h 0.825508 l 2.237065,3.365049 v -3.365049 h 0.800302 v 4.55605 h -0.875921 z m 7.990411,0.957841 q 0,1.134286 -0.535635,1.732938 -0.529334,0.598651 -1.480874,0.598651 h -1.86527 v -4.55605 h 1.86527 q 0.95154,0 1.480874,0.560842 0.535635,0.560841 0.535635,1.663619 z m -0.83181,0 q 0,-0.825508 -0.340286,-1.209905 -0.333984,-0.390699 -0.976746,-0.390699 h -0.932635 v 3.308335 h 0.938937 q 0.617555,0 0.964143,-0.409603 0.346587,-0.409604 0.346587,-1.298128 z m 5.52649,0.737286 q 0,0.794001 -0.497825,1.235112 -0.497826,0.441111 -1.417858,0.441111 -0.932635,0 -1.436763,-0.434809 -0.497825,-0.43481 -0.497825,-1.235112 v -2.968049 h 0.800302 v 2.930239 q 0,0.516731 0.283571,0.800302 0.283572,0.283572 0.850715,0.283572 0.535635,0 0.819207,-0.270969 0.289873,-0.27727 0.289873,-0.825508 v -2.917636 h 0.806603 z"
         id="text5"
         aria-label="GUANDU" />
      <path
         d="m 41.034689,44.975909 h 3.056271 v 0.43481 h -3.056271 z m -0.09452,0.857017 h 3.232715 v 0.441111 h -3.232715 z m 1.298127,-0.649064 h 0.535635 v 0.649064 q 0,0.214254 -0.05671,0.447413 -0.05671,0.226857 -0.220556,0.453714 -0.157539,0.220556 -0.472619,0.422207 -0.308778,0.20165 -0.819207,0.365492 -0.05041,-0.08822 -0.157539,-0.207953 -0.100826,-0.113428 -0.189048,-0.182746 0.460016,-0.126032 0.730984,-0.289873 0.27727,-0.163841 0.415905,-0.340286 0.144937,-0.176444 0.189048,-0.352889 0.04411,-0.176444 0.04411,-0.321381 z m 0.504127,0.838111 q 0.170143,0.403302 0.535636,0.680572 0.371793,0.270969 0.91373,0.378096 -0.08822,0.07562 -0.182746,0.20165 -0.09452,0.132334 -0.151238,0.233159 -0.586048,-0.163841 -0.976747,-0.51673 -0.390698,-0.359191 -0.579746,-0.875921 z m -1.361143,-1.512381 0.466318,-0.138635 q 0.107127,0.138635 0.195349,0.315079 0.09452,0.176445 0.132333,0.308778 l -0.491524,0.151238 q -0.03151,-0.132333 -0.113428,-0.308777 -0.08192,-0.182747 -0.189048,-0.327683 z m 1.802255,-0.151238 0.548238,0.157539 q -0.126032,0.182747 -0.23946,0.365493 -0.113429,0.176444 -0.214254,0.308778 l -0.390699,-0.144937 q 0.08192,-0.151238 0.163841,-0.346587 0.08822,-0.19535 0.132334,-0.340286 z m -2.942843,-1.298128 h 1.688826 v 0.384397 h -1.688826 z m 2.898732,0 h 1.701429 v 0.384397 H 43.13942 Z m 1.480873,-0.838111 h 0.59235 v 4.921541 q 0,0.226858 -0.05041,0.359191 -0.05041,0.132333 -0.189048,0.201651 -0.132333,0.07562 -0.346587,0.08822 -0.207953,0.0189 -0.504127,0.0189 -0.0126,-0.113429 -0.06302,-0.283572 -0.05041,-0.163841 -0.107127,-0.27727 0.182746,0.0063 0.346587,0.0063 0.163841,0 0.220556,0 0.05671,0 0.07562,-0.02521 0.02521,-0.02521 0.02521,-0.08822 z m -4.32289,0 h 2.003905 v 2.085826 h -2.003905 v -0.422207 h 1.443064 v -1.241413 h -1.443064 z m 4.625367,0 v 0.422206 h -1.556493 v 1.247715 h 1.556493 v 0.428508 h -2.123636 v -2.098429 z m -4.984558,0 h 0.586048 v 5.595812 h -0.586048 z m 8.141654,0.333984 h 3.648621 v 0.510429 h -3.648621 z m 0.163841,1.115381 h 3.522589 v 0.47262 h -3.522589 z m 0.258366,1.739239 h 2.608858 v 0.472619 h -2.608858 z m -0.699477,-2.85462 h 0.567143 v 1.714032 q 0,0.384397 -0.02521,0.844413 -0.02521,0.460017 -0.107127,0.932636 -0.07562,0.472619 -0.220556,0.926334 -0.144936,0.447412 -0.384397,0.819206 -0.05671,-0.05041 -0.144936,-0.107127 -0.08822,-0.05671 -0.189048,-0.107127 -0.09452,-0.05041 -0.163841,-0.07562 0.226857,-0.352889 0.35919,-0.762492 0.138635,-0.415905 0.207953,-0.844413 0.06932,-0.43481 0.08192,-0.850715 0.01891,-0.415905 0.01891,-0.775096 z m 1.726636,-0.59235 h 0.604952 v 0.920033 h -0.604952 z m -0.535635,1.247715 h 0.523032 v 1.430461 h 1.014556 v -1.430461 h 0.55454 v 1.890477 h -2.092128 z m 1.934588,2.199255 h 0.113428 l 0.100826,-0.02521 0.35919,0.163841 q -0.182746,0.485223 -0.497825,0.857016 -0.308778,0.365493 -0.71208,0.636461 -0.397,0.270968 -0.869619,0.453714 -0.466318,0.189048 -0.976747,0.302477 -0.03781,-0.107127 -0.126031,-0.252064 -0.08192,-0.144936 -0.15754,-0.233159 0.466317,-0.08822 0.894826,-0.23946 0.434809,-0.151238 0.800301,-0.371794 0.371794,-0.226857 0.642763,-0.529333 0.27727,-0.302477 0.428508,-0.680572 z m -1.594302,0.43481 q 0.315079,0.573445 0.970444,0.95154 0.655366,0.371794 1.550192,0.510429 -0.06302,0.06302 -0.132334,0.151238 -0.06932,0.08822 -0.132333,0.176444 -0.05671,0.09452 -0.09452,0.170143 -0.938937,-0.189047 -1.619509,-0.63646 -0.67427,-0.453715 -1.058667,-1.172096 z m -3.062573,-3.390256 0.333984,-0.441111 q 0.189048,0.07562 0.390699,0.189048 0.201651,0.107127 0.384397,0.226857 0.182746,0.113429 0.296174,0.220556 l -0.352889,0.485222 q -0.107127,-0.107127 -0.283571,-0.233159 -0.176445,-0.126031 -0.378096,-0.23946 -0.201651,-0.11973 -0.390698,-0.207953 z m -0.352889,1.688827 0.333984,-0.447413 q 0.189048,0.06932 0.397,0.176444 0.207953,0.100826 0.390699,0.214254 0.189047,0.113429 0.302476,0.214254 l -0.340286,0.497826 Q 46.888866,44.692338 46.70612,44.572608 46.523373,44.452878 46.315421,44.339449 46.11377,44.22602 45.918421,44.1441 Z m 0.07562,3.245318 q 0.144936,-0.245762 0.315079,-0.586047 0.170143,-0.340286 0.340286,-0.718382 0.170143,-0.378095 0.321381,-0.743587 l 0.478921,0.340286 q -0.126032,0.340285 -0.283571,0.699476 -0.151239,0.359191 -0.31508,0.705778 -0.15754,0.340286 -0.315079,0.649064 z"
         id="text5-9"
         style="font-weight:500;font-size:6.30159px;line-height:1.25;font-family:'Noto Sans JP';-inkscape-font-specification:'Noto Sans JP Medium';fill:#ffffff;stroke-width:0.225056"
         aria-label="関渡" />
      <path
         style="font-weight:500;font-size:6.30159px;line-height:1.25;font-family:'Noto Sans KR';-inkscape-font-specification:'Noto Sans KR Medium';fill:#ffffff;stroke-width:0.225056"
         d="m 57.36739,42.548901 h 2.514334 v 0.535635 H 57.36739 Z m 0.800302,1.317032 h 0.649064 v 1.436762 h -0.649064 z m 1.449366,-1.317032 h 0.649063 v 0.333984 q 0,0.289873 -0.0189,0.718381 -0.0126,0.422207 -0.119731,0.983048 l -0.649063,-0.07562 q 0.107127,-0.548238 0.11973,-0.938937 0.0189,-0.397 0.0189,-0.686873 z m 1.335937,-0.43481 h 0.661667 v 4.329192 h -0.661667 z m 0.384397,1.827461 h 1.039762 v 0.541937 H 61.337392 Z M 57.88412,47.22468 h 3.919589 v 0.535635 H 57.88412 Z m 0,-1.172095 h 0.661667 v 1.335937 H 57.88412 Z m -0.794,-0.460016 -0.06932,-0.535636 q 0.510428,0 1.115381,-0.0063 0.611254,-0.0126 1.247715,-0.05041 0.63646,-0.04411 1.216207,-0.126032 l 0.04411,0.478921 q -0.598651,0.100826 -1.22881,0.15754 -0.630159,0.05041 -1.22881,0.06302 -0.59235,0.0126 -1.096477,0.0189 z m 6.484337,-1.380049 h 3.894382 v 0.529334 h -3.894382 z m -0.693175,1.197302 h 5.217716 v 0.541937 h -5.217716 z m 2.262271,0.302477 h 0.655365 v 2.148842 h -0.655365 z m -1.569096,-3.270525 h 3.818763 v 0.529333 h -3.150795 v 1.499778 h -0.667968 z"
         id="text5-9-8"
         aria-label="관두" />
    </g>
    <text
       xml:space="preserve"
       transform="matrix(0.31615295,0,0,0.31615295,-10.474341,-6.4462013)"
       id="text6"
       style="font-size:55px;line-height:1.25;font-family:'Microsoft JhengHei';-inkscape-font-specification:'Microsoft JhengHei';white-space:pre;shape-inside:url(#rect6);display:inline" />
  </g>
</svg>
