<?xml version="1.0" encoding="UTF-8" standalone="no"?>
<!-- Created with Inkscape (http://www.inkscape.org/) -->

<svg
   width="500"
   height="250"
   viewBox="0 0 132.29166 66.145833"
   version="1.1"
   id="svg1"
   inkscape:version="1.3.2 (091e20e, 2023-11-25, custom)"
   sodipodi:docname="r26.svg"
   xmlns:inkscape="http://www.inkscape.org/namespaces/inkscape"
   xmlns:sodipodi="http://sodipodi.sourceforge.net/DTD/sodipodi-0.dtd"
   xmlns="http://www.w3.org/2000/svg"
   xmlns:svg="http://www.w3.org/2000/svg">
  <sodipodi:namedview
     id="namedview1"
     pagecolor="#9e652e"
     bordercolor="#ffffff"
     borderopacity="1"
     inkscape:showpageshadow="0"
     inkscape:pageopacity="0"
     inkscape:pagecheckerboard="false"
     inkscape:deskcolor="#d1d1d1"
     inkscape:document-units="mm"
     inkscape:zoom="2.0208096"
     inkscape:cx="296.9107"
     inkscape:cy="82.640146"
     inkscape:window-width="1920"
     inkscape:window-height="1009"
     inkscape:window-x="1912"
     inkscape:window-y="-8"
     inkscape:window-maximized="1"
     inkscape:current-layer="layer1" />
  <defs
     id="defs1">
    <rect
       x="560.66638"
       y="34.144731"
       width="279.32397"
       height="128.59143"
       id="rect6" />
    <rect
       x="157.85752"
       y="62.351248"
       width="541.85369"
       height="99.322566"
       id="rect4" />
    <rect
       x="157.85751"
       y="62.35125"
       width="329.07602"
       height="135.09438"
       id="rect4-5" />
    <rect
       x="157.85751"
       y="62.35125"
       width="470.56151"
       height="119.92888"
       id="rect4-5-3" />
    <rect
       x="157.85751"
       y="62.35125"
       width="460.82318"
       height="88.90795"
       id="rect4-5-32" />
  </defs>
  <g
     inkscape:label="Layer 1"
     inkscape:groupmode="layer"
     id="layer1">
    <rect
       style="fill:#d0002b;fill-opacity:1;stroke:none;stroke-width:0.953294;stroke-dasharray:none"
       id="rect5"
       width="132.29167"
       height="66.145836"
       x="-2.5431316e-06"
       y="-1.2715658e-06"
       ry="0" />
    <g
       id="g16"
       transform="matrix(1.1095583,0,0,1.1095583,18.487721,-3.6234118)">
      <path
         id="rect1"
         style="fill-opacity:0;stroke:#ffffff;stroke-width:0.810881"
         d="m 18.989333,16.971979 h 10.686722 c 3.377614,0 6.096777,2.719163 6.096777,6.096777 v 20.00832 c 0,3.377614 -2.719163,6.096777 -6.096777,6.096777 H 18.989333 c -3.377614,0 -6.096777,-2.719163 -6.096777,-6.096777 v -20.00832 c 0,-3.377614 2.719163,-6.096777 6.096777,-6.096777 z" />
      <path
         style="font-size:12.2918px;line-height:1.25;font-family:'AR UDJingXiHeiE1G30 EB';-inkscape-font-specification:'AR UDJingXiHeiE1G30 EB';fill:#ffffff;stroke-width:0.256079"
         d="m 26.182626,24.962252 q 0,-0.651466 -0.344171,-0.983344 -0.34417,-0.344171 -0.995635,-0.344171 h -2.667321 v 2.765655 h 2.581278 q 0.639174,0 1.032511,-0.381046 0.393338,-0.381045 0.393338,-1.057094 z m -4.007127,2.642737 V 31.30482 H 20.61444 v -8.886971 h 4.523383 q 1.216888,0 1.929812,0.651465 0.725216,0.639174 0.725216,1.819187 0,0.774383 -0.368754,1.327514 -0.356462,0.553131 -0.897301,0.786675 0.688341,0.393338 1.057095,1.36439 0.368754,0.971052 0.467088,2.93774 h -1.622517 q -0.07375,-2.065022 -0.454797,-2.876281 -0.368754,-0.82355 -1.192304,-0.82355 z"
         id="text2"
         aria-label="R" />
      <path
         style="font-size:12.3781px;line-height:1.25;font-family:'AR UDJingXiHeiE1G30 EB';-inkscape-font-specification:'AR UDJingXiHeiE1G30 EB';fill:#ffffff;stroke-width:0.225056"
         d="m 17.710383,37.058399 q 0,-1.386348 0.841711,-2.178546 0.841711,-0.804577 2.203302,-0.804577 1.398725,0 2.178545,0.705552 0.792199,0.693174 0.792199,1.930984 0,0.878845 -0.569393,1.770068 -0.557014,0.878845 -1.75769,1.943362 l -1.683422,1.522506 h 3.985749 v 1.225432 h -6.028135 v -1.126407 l 2.500376,-2.252814 q 1.101651,-1.002626 1.534884,-1.708178 0.445612,-0.71793 0.445612,-1.373969 0,-0.618905 -0.358965,-1.002626 -0.358965,-0.383721 -1.03976,-0.383721 -0.680796,0 -1.101651,0.470367 -0.420856,0.470368 -0.420856,1.262567 z m 10.471864,6.275697 q -0.705551,0 -1.287322,-0.19805 -0.569393,-0.19805 -0.97787,-0.631283 -0.495124,-0.507502 -0.742686,-1.373969 -0.247562,-0.878845 -0.247562,-2.178546 0,-2.314705 0.841711,-3.589649 0.854089,-1.287323 2.438486,-1.287323 1.287322,0 1.992874,0.693174 0.71793,0.693174 0.792198,1.708178 h -1.510128 q -0.02476,-0.420856 -0.346587,-0.792199 -0.309452,-0.383721 -0.915979,-0.383721 -0.804577,0 -1.274945,0.878845 -0.457989,0.878846 -0.470367,2.178546 0.371343,-0.507502 0.903601,-0.767442 0.532258,-0.25994 1.200676,-0.25994 1.23781,0 1.943361,0.816954 0.705552,0.804577 0.705552,2.091899 0,1.485372 -0.841711,2.289949 -0.841711,0.804577 -2.203302,0.804577 z m 1.485372,-3.032635 q 0,-0.767442 -0.420855,-1.250188 -0.408477,-0.495124 -1.076895,-0.495124 -0.730308,0 -1.163541,0.470368 -0.420856,0.457989 -0.445612,1.23781 0,0.866467 0.420856,1.361591 0.433233,0.482746 1.175919,0.482746 0.71793,0 1.114029,-0.470368 0.396099,-0.470368 0.396099,-1.336835 z"
         id="text3"
         aria-label="26" />
      <path
         style="font-weight:500;font-size:72px;line-height:1.25;font-family:'Noto Sans TC';-inkscape-font-specification:'Noto Sans TC Medium';white-space:pre;fill:#ffffff"
         d="m 172.25742,74.673406 7.128,1.44 q -1.512,6.264 -3.672,12.312 -2.088,6.048 -4.68,11.304 -2.592,5.256004 -5.472,9.216004 -0.576,-0.576 -1.8,-1.368 -1.152,-0.792 -2.376,-1.512 -1.152,-0.792 -1.944,-1.224 2.88,-3.6 5.256,-8.424004 2.448,-4.896 4.32,-10.44 1.944,-5.616 3.24,-11.304 z m -1.584,14.328 h 23.04 v 6.768 h -26.424 z m 29.448,-14.328 6.84,1.368 q -1.44,6.264 -3.528,12.312 -2.016,5.976 -4.608,11.232 -2.52,5.256004 -5.4,9.216004 -0.576,-0.576 -1.728,-1.368 -1.08,-0.792 -2.16,-1.512 -1.08,-0.792 -1.944,-1.296 2.952,-3.528 5.328,-8.352004 2.376,-4.824 4.176,-10.368 1.872,-5.544 3.024,-11.232 z m 0.576,14.328 h 26.64 v 6.768 h -30.024 z m -25.632,3.024 h 6.84 v 49.464004 h -6.84 z m 35.064,-0.36 h 6.912 v 41.328004 q 0,2.952 -0.72,4.608 -0.648,1.656 -2.664,2.52 -1.944,0.864 -5.112,1.008 -3.096,0.216 -7.416,0.216 -0.216,-1.512 -0.864,-3.6 -0.648,-2.016 -1.44,-3.528 2.16,0.072 4.104,0.144 2.016,0 3.456,0 1.512,0 2.088,0 0.936,-0.072 1.296,-0.36 0.36,-0.36 0.36,-1.152 z m 35.496,3.816 h 40.536 v 3.816 h -40.536 z m 0.648,19.512004 h 39.528 v 3.672 h -39.528 z m 19.368,-3.672 h 6.12 v 20.232 h -6.12 z m -9.72,-6.264 v 3.96 h 19.656 v -3.96 z m -5.76,-3.384 h 31.464 v 10.584 h -31.464 z m 9.72,-17.496004 5.76,0.72 q -0.864,3.096 -1.872,6.552 -1.008,3.384 -1.872,5.832 h -6.048 q 1.008,-2.664 2.16,-6.264 1.152,-3.672 1.872,-6.84 z m -10.08,4.032 h 30.168 v 9.576 h -5.688 v -5.976 h -24.48 z m -14.4,-10.584 h 60.912 v 63.936004 h -6.696 V 83.817406 h -47.736 v 57.744004 h -6.48 z m 4.104,54.864004 h 53.712 v 6.192 h -53.712 z m 11.592,-9.144 h 34.56 v 3.888 h -34.56 z m -0.648,-7.2 5.112,0.576 q -0.576,2.664 -1.368,5.544 -0.792,2.88 -1.44,4.968 h -5.328 q 0.864,-2.376 1.584,-5.328 0.792,-3.024 1.44,-5.76 z"
         id="text4"
         transform="matrix(0.22505692,0,0,0.22505692,3.4694169,1.1325221)"
         aria-label="竹圍" />
      <path
         style="font-size:6.30159px;line-height:1.25;font-family:'AR UDJingXiHeiE1G30 EB';-inkscape-font-specification:'AR UDJingXiHeiE1G30 EB';fill:#ffffff;stroke-width:0.225056"
         d="m 39.942455,35.237156 h 3.5667 v 0.573445 l -2.747493,3.358747 h 2.810509 v 0.623858 h -3.837669 v -0.573445 l 2.747494,-3.358748 h -2.539541 z m 5.167304,2.533239 v 2.022811 h -0.800302 v -4.55605 h 0.800302 v 1.909382 h 2.186652 v -1.909382 h 0.800302 v 4.55605 h -0.800302 v -2.022811 z m 7.851782,0.428508 q 0,0.794001 -0.497826,1.235112 -0.497825,0.441111 -1.417858,0.441111 -0.932635,0 -1.436762,-0.434809 -0.497826,-0.43481 -0.497826,-1.235112 v -2.968049 h 0.800302 v 2.930239 q 0,0.516731 0.283572,0.800302 0.283571,0.283572 0.850714,0.283572 0.535636,0 0.819207,-0.270969 0.289873,-0.27727 0.289873,-0.825508 v -2.917636 h 0.806604 z m 3.440669,-1.90308 -0.920032,3.497383 H 54.65667 l -1.172096,-4.55605 h 0.850714 l 0.762493,3.453271 0.888524,-3.453271 h 0.844413 l 0.875921,3.453271 0.806604,-3.453271 h 0.825508 l -1.203604,4.55605 h -0.825508 z m 6.856129,3.497383 h -3.371351 v -4.55605 h 3.352446 v 0.623857 H 60.68729 v 1.285525 h 2.382001 v 0.623857 H 60.68729 v 1.398953 h 2.571049 z m 1.644718,-4.55605 v 4.55605 h -0.800302 v -4.55605 z"
         id="text5"
         aria-label="ZHUWEI" />
      <path
         d="m 40.669196,41.963749 0.623858,0.126032 q -0.132334,0.548239 -0.321381,1.077572 -0.182746,0.529334 -0.409604,0.98935 -0.226857,0.460016 -0.478921,0.806603 -0.05041,-0.05041 -0.157539,-0.11973 -0.100826,-0.06932 -0.207953,-0.132333 -0.100825,-0.06932 -0.170143,-0.107127 0.252064,-0.31508 0.460016,-0.737286 0.214254,-0.428508 0.378096,-0.913731 0.170143,-0.491524 0.283571,-0.98935 z m -0.138635,1.254017 h 2.016509 v 0.592349 h -2.312683 z m 2.577351,-1.254017 0.598651,0.119731 q -0.126032,0.548238 -0.308778,1.077572 -0.176445,0.523032 -0.403302,0.983048 -0.220556,0.460016 -0.472619,0.806603 -0.05041,-0.05041 -0.151238,-0.11973 -0.09452,-0.06932 -0.189048,-0.132333 -0.09452,-0.06932 -0.170143,-0.113429 0.258365,-0.308778 0.466318,-0.730985 0.207952,-0.422206 0.365492,-0.907428 0.163841,-0.485223 0.264667,-0.983049 z m 0.05041,1.254017 h 2.331589 v 0.592349 H 42.86215 Z m -2.243366,0.264667 h 0.598651 v 4.329192 h -0.598651 z m 3.068875,-0.03151 h 0.604952 v 3.617112 q 0,0.258366 -0.06302,0.403302 -0.05671,0.144937 -0.233158,0.220556 -0.170143,0.07562 -0.447413,0.08822 -0.270969,0.01891 -0.649064,0.01891 -0.01891,-0.132334 -0.07562,-0.31508 -0.05671,-0.176444 -0.126032,-0.308778 0.189048,0.0063 0.359191,0.0126 0.176444,0 0.302476,0 0.132333,0 0.182746,0 0.08192,-0.0063 0.113429,-0.03151 0.03151,-0.03151 0.03151,-0.100826 z m 3.188604,0.327682 h 3.434367 v 0.485223 h -3.434367 z m -0.05671,1.209906 h 3.509985 v 0.491524 h -3.509985 z m 2.211858,-1.934588 h 0.523032 v 3.661223 h -0.523032 z m -1.38635,0 h 0.504127 v 1.62581 q 0,0.422206 -0.06302,0.819206 -0.06302,0.390699 -0.258365,0.730985 -0.195349,0.333984 -0.604952,0.598651 -0.03781,-0.06302 -0.107127,-0.132333 -0.06302,-0.07562 -0.138635,-0.144937 -0.06932,-0.06932 -0.132334,-0.113429 0.352889,-0.220555 0.523032,-0.497825 0.170143,-0.283572 0.220556,-0.604953 0.05671,-0.321381 0.05671,-0.661667 z m -1.732937,-0.806604 h 5.318542 V 47.83053 H 50.90928 v -5.028669 h -4.102335 v 5.028669 h -0.598651 z m 0.346587,4.738796 h 4.593859 v 0.55454 h -4.593859 z"
         id="text5-9"
         style="font-weight:500;font-size:6.30159px;line-height:1.25;font-family:'Noto Sans JP';-inkscape-font-specification:'Noto Sans JP Medium';fill:#ffffff;stroke-width:0.225056"
         aria-label="竹囲" />
      <path
         style="font-weight:500;font-size:6.30159px;line-height:1.25;font-family:'Noto Sans KR';-inkscape-font-specification:'Noto Sans KR Medium';fill:#ffffff;stroke-width:0.225056"
         d="m 59.314581,42.719043 h 0.573445 v 0.207953 q 0,0.308778 -0.113429,0.586048 -0.107127,0.270968 -0.315079,0.510429 -0.207953,0.233158 -0.491524,0.415905 -0.27727,0.182746 -0.623858,0.308777 -0.340285,0.126032 -0.730984,0.189048 L 57.36739,44.414171 q 0.340286,-0.04411 0.630159,-0.144936 0.296175,-0.100826 0.535635,-0.245762 0.245762,-0.144937 0.415905,-0.321381 0.176445,-0.176445 0.270968,-0.371794 0.09452,-0.19535 0.09452,-0.403302 z m 0.176445,0 h 0.573445 v 0.207953 q 0,0.207952 0.08822,0.403302 0.09452,0.195349 0.270968,0.371794 0.176445,0.176444 0.415905,0.321381 0.23946,0.144936 0.535635,0.245762 0.296175,0.100825 0.636461,0.144936 L 61.7659,44.937203 q -0.390699,-0.06302 -0.737286,-0.189048 -0.340286,-0.126031 -0.623858,-0.308777 -0.283571,-0.182747 -0.491524,-0.415905 -0.201651,-0.239461 -0.315079,-0.510429 -0.107127,-0.27727 -0.107127,-0.586048 z M 59.346089,45.7186 h 0.655366 v 2.155144 h -0.655366 z m -2.262271,-0.365492 h 5.205114 v 0.535635 h -5.205114 z m 0.478921,-2.905033 h 4.24097 v 0.523032 h -4.24097 z m 6.755305,0.0189 q 0.371794,0 0.655366,0.138635 0.283571,0.132333 0.447413,0.371794 0.163841,0.23946 0.163841,0.560841 0,0.31508 -0.163841,0.560842 -0.163842,0.245762 -0.447413,0.384397 -0.283572,0.132333 -0.655366,0.132333 -0.35919,0 -0.649063,-0.132333 -0.283572,-0.138635 -0.447413,-0.384397 -0.163842,-0.245762 -0.163842,-0.560842 0,-0.321381 0.163842,-0.560841 0.163841,-0.239461 0.447413,-0.371794 0.289873,-0.138635 0.649063,-0.138635 z m 0,0.491524 q -0.195349,0 -0.346587,0.07562 -0.151238,0.06932 -0.23946,0.201651 -0.08192,0.126032 -0.08192,0.302476 0,0.176445 0.08192,0.308778 0.08822,0.126032 0.23946,0.201651 0.151238,0.07562 0.346587,0.07562 0.201651,0 0.352889,-0.07562 0.151239,-0.07562 0.239461,-0.201651 0.08822,-0.132333 0.08822,-0.308778 0,-0.176444 -0.08822,-0.302476 -0.08822,-0.132334 -0.239461,-0.201651 -0.151238,-0.07562 -0.352889,-0.07562 z m 2.879827,-0.838112 h 0.630159 v 5.759654 h -0.630159 z m -1.115381,0.113429 h 0.617555 v 5.362653 H 66.08249 Z m -0.995652,3.629716 h 1.209906 v 0.504127 h -1.209906 z m -1.096476,-0.598651 h 0.623857 v 2.155144 h -0.623857 z m -1.115382,0.27727 -0.07562,-0.548239 q 0.296175,0 0.661667,0 0.365492,-0.0063 0.762493,-0.0189 0.403301,-0.0189 0.794,-0.04411 0.390698,-0.03151 0.730984,-0.08192 l 0.05041,0.485222 q -0.478921,0.09452 -1.008254,0.138635 -0.529334,0.04411 -1.02716,0.05671 -0.497825,0.0126 -0.888524,0.0126 z m 9.880894,-3.428065 h 0.661667 v 5.772256 h -0.661667 z m -2.400906,0.422206 q 0.428508,0 0.762493,0.252064 0.340285,0.252064 0.529333,0.705778 0.189048,0.453715 0.189048,1.07127 0,0.623858 -0.189048,1.083874 -0.189048,0.453714 -0.529333,0.705778 -0.333985,0.245762 -0.762493,0.245762 -0.428508,0 -0.768794,-0.245762 -0.333984,-0.252064 -0.529333,-0.705778 -0.189048,-0.460016 -0.189048,-1.083874 0,-0.617555 0.189048,-1.07127 0.195349,-0.453714 0.529333,-0.705778 0.340286,-0.252064 0.768794,-0.252064 z m 0,0.598651 q -0.252063,0 -0.447413,0.170143 -0.189047,0.170143 -0.296174,0.491524 -0.107127,0.321381 -0.107127,0.768794 0,0.453715 0.107127,0.775096 0.107127,0.321381 0.296174,0.497826 0.19535,0.170142 0.447413,0.170142 0.252064,0 0.441112,-0.170142 0.189047,-0.176445 0.296174,-0.497826 0.107127,-0.321381 0.107127,-0.775096 0,-0.447413 -0.107127,-0.768794 -0.107127,-0.321381 -0.296174,-0.491524 -0.189048,-0.170143 -0.441112,-0.170143 z"
         id="text5-9-8"
         aria-label="주웨이" />
    </g>
    <text
       xml:space="preserve"
       transform="matrix(0.31615295,0,0,0.31615295,-10.474341,-6.4462013)"
       id="text6"
       style="font-size:55px;line-height:1.25;font-family:'Microsoft JhengHei';-inkscape-font-specification:'Microsoft JhengHei';white-space:pre;shape-inside:url(#rect6);display:inline" />
  </g>
</svg>
