<?xml version="1.0" encoding="UTF-8" standalone="no"?>
<!-- Created with Inkscape (http://www.inkscape.org/) -->

<svg
   width="500"
   height="250"
   viewBox="0 0 132.29166 66.145833"
   version="1.1"
   id="svg1"
   inkscape:version="1.3.2 (091e20e, 2023-11-25, custom)"
   sodipodi:docname="r27.svg"
   xmlns:inkscape="http://www.inkscape.org/namespaces/inkscape"
   xmlns:sodipodi="http://sodipodi.sourceforge.net/DTD/sodipodi-0.dtd"
   xmlns="http://www.w3.org/2000/svg"
   xmlns:svg="http://www.w3.org/2000/svg">
  <sodipodi:namedview
     id="namedview1"
     pagecolor="#9e652e"
     bordercolor="#ffffff"
     borderopacity="1"
     inkscape:showpageshadow="0"
     inkscape:pageopacity="0"
     inkscape:pagecheckerboard="false"
     inkscape:deskcolor="#d1d1d1"
     inkscape:document-units="mm"
     inkscape:zoom="2.0208096"
     inkscape:cx="296.9107"
     inkscape:cy="82.640146"
     inkscape:window-width="1920"
     inkscape:window-height="1009"
     inkscape:window-x="1912"
     inkscape:window-y="-8"
     inkscape:window-maximized="1"
     inkscape:current-layer="layer1" />
  <defs
     id="defs1">
    <rect
       x="560.66638"
       y="34.144731"
       width="279.32397"
       height="128.59143"
       id="rect6" />
    <rect
       x="157.85752"
       y="62.351248"
       width="541.85369"
       height="99.322566"
       id="rect4" />
    <rect
       x="157.85751"
       y="62.35125"
       width="329.07602"
       height="135.09438"
       id="rect4-5" />
    <rect
       x="157.85751"
       y="62.35125"
       width="470.56151"
       height="119.92888"
       id="rect4-5-3" />
    <rect
       x="157.85751"
       y="62.35125"
       width="460.82318"
       height="88.90795"
       id="rect4-5-32" />
  </defs>
  <g
     inkscape:label="Layer 1"
     inkscape:groupmode="layer"
     id="layer1">
    <rect
       style="fill:#d0002b;fill-opacity:1;stroke:none;stroke-width:0.953294;stroke-dasharray:none"
       id="rect5"
       width="132.29167"
       height="66.145836"
       x="-2.5431316e-06"
       y="-1.2715658e-06"
       ry="0" />
    <g
       id="g16"
       transform="matrix(1.1095583,0,0,1.1095583,10.83955,-3.6234118)">
      <path
         id="rect1"
         style="fill-opacity:0;stroke:#ffffff;stroke-width:0.810881"
         d="m 18.989333,16.971979 h 10.686722 c 3.377614,0 6.096777,2.719163 6.096777,6.096777 v 20.00832 c 0,3.377614 -2.719163,6.096777 -6.096777,6.096777 H 18.989333 c -3.377614,0 -6.096777,-2.719163 -6.096777,-6.096777 v -20.00832 c 0,-3.377614 2.719163,-6.096777 6.096777,-6.096777 z" />
      <path
         style="font-size:12.2918px;line-height:1.25;font-family:'AR UDJingXiHeiE1G30 EB';-inkscape-font-specification:'AR UDJingXiHeiE1G30 EB';fill:#ffffff;stroke-width:0.256079"
         d="m 26.182626,24.962252 q 0,-0.651466 -0.344171,-0.983344 -0.34417,-0.344171 -0.995635,-0.344171 h -2.667321 v 2.765655 h 2.581278 q 0.639174,0 1.032511,-0.381046 0.393338,-0.381045 0.393338,-1.057094 z m -4.007127,2.642737 V 31.30482 H 20.61444 v -8.886971 h 4.523383 q 1.216888,0 1.929812,0.651465 0.725216,0.639174 0.725216,1.819187 0,0.774383 -0.368754,1.327514 -0.356462,0.553131 -0.897301,0.786675 0.688341,0.393338 1.057095,1.36439 0.368754,0.971052 0.467088,2.93774 h -1.622517 q -0.07375,-2.065022 -0.454797,-2.876281 -0.368754,-0.82355 -1.192304,-0.82355 z"
         id="text2"
         aria-label="R" />
      <path
         style="font-size:12.3781px;line-height:1.25;font-family:'AR UDJingXiHeiE1G30 EB';-inkscape-font-specification:'AR UDJingXiHeiE1G30 EB';fill:#ffffff;stroke-width:0.225056"
         d="m 17.710383,37.058399 q 0,-1.386348 0.841711,-2.178546 0.841711,-0.804577 2.203302,-0.804577 1.398725,0 2.178545,0.705552 0.792199,0.693174 0.792199,1.930984 0,0.878845 -0.569393,1.770068 -0.557014,0.878845 -1.75769,1.943362 l -1.683422,1.522506 h 3.985749 v 1.225432 h -6.028135 v -1.126407 l 2.500376,-2.252814 q 1.101651,-1.002626 1.534884,-1.708178 0.445612,-0.71793 0.445612,-1.373969 0,-0.618905 -0.358965,-1.002626 -0.358965,-0.383721 -1.03976,-0.383721 -0.680796,0 -1.101651,0.470367 -0.420856,0.470368 -0.420856,1.262567 z m 8.627527,6.114781 3.156416,-7.723934 h -4.468494 v -1.225432 h 6.065269 v 1.027382 l -3.156416,7.921984 z"
         id="text3"
         aria-label="27" />
      <path
         style="font-weight:500;font-size:72px;line-height:1.25;font-family:'Noto Sans TC';-inkscape-font-specification:'Noto Sans TC Medium';white-space:pre;fill:#ffffff"
         d="m 180.75342,102.96941 5.544,-1.44 q 1.008,2.376 1.944,5.04 1.008,2.664 1.728,5.184 0.792,2.52 1.152,4.464 l -5.904,1.728 q -0.288,-1.872 -1.008,-4.464 -0.72,-2.592 -1.584,-5.328 -0.864,-2.808 -1.872,-5.184 z m -6.984,19.368 5.544,-1.44 q 0.792,3.6 1.44,7.776 0.72,4.104 0.936,7.2 l -5.832,1.656 q -0.144,-3.168 -0.792,-7.416 -0.576,-4.248 -1.296,-7.776 z m -8.64,-0.864 6.12,1.224 q -0.864,4.608 -2.232,9.36 -1.296,4.752 -2.592,8.064 -0.72,-0.432 -1.8,-0.792 -1.08,-0.36 -2.232,-0.792 -1.08,-0.36 -1.944,-0.576 1.512,-3.168 2.664,-7.704 1.224,-4.536 2.016,-8.784 z m -2.448,-19.152 q -0.144,-0.72 -0.576,-1.872 -0.36,-1.152004 -0.792,-2.376004 -0.432,-1.224 -0.864,-2.088 1.08,-0.288 2.16,-1.296 1.152,-1.008 2.376,-2.52 0.72,-0.792 1.944,-2.52 1.296,-1.8 2.808,-4.248 1.584,-2.448 3.168,-5.256 1.584,-2.808 2.88,-5.688 l 6.48,2.736 q -3.24,5.976 -7.344,11.736 -4.032,5.688 -8.064,9.864 v 0.144 q 0,0 -0.648,0.36 -0.576,0.36 -1.44,0.864004 -0.864,0.504 -1.512,1.08 -0.576,0.576 -0.576,1.08 z m 0,0 -0.144,-4.752004 2.952,-1.944 13.32,-1.08 q -0.288,1.296 -0.432,2.88 -0.144,1.512 -0.144,2.52 -4.536,0.504004 -7.344,0.864004 -2.808,0.288 -4.464,0.576 -1.584,0.288 -2.448,0.504 -0.792,0.216 -1.296,0.432 z m 0.288,16.488 q -0.144,-0.72 -0.576,-1.872 -0.36,-1.224 -0.792,-2.448 -0.432,-1.296 -0.864,-2.232 1.368,-0.216 2.736,-1.44 1.44,-1.224 3.312,-3.168 1.08,-1.008 2.952,-3.168 1.944,-2.232 4.32,-5.256004 2.376,-3.096 4.752,-6.624 2.448,-3.6 4.536,-7.272 l 5.904,3.816 q -4.68,7.272 -10.368,14.112004 -5.616,6.84 -11.376,12.024 v 0.144 q 0,0 -0.72,0.36 -0.648,0.288 -1.584,0.792 -0.864,0.504 -1.584,1.152 -0.648,0.576 -0.648,1.08 z m 0,0 -0.288,-5.184 3.168,-2.088 20.808,-2.808 q -0.216,1.224 -0.288,2.88 -0.072,1.656 0,2.664 -7.056,1.08 -11.448,1.872 -4.32,0.72 -6.696,1.224 -2.376,0.432 -3.528,0.792 -1.08,0.288 -1.728,0.648 z m 19.008,1.584 5.256,-1.8 q 1.08,2.448 2.16,5.4 1.08,2.88 1.584,4.968 l -5.544,2.088 q -0.36,-2.088 -1.44,-5.112 -1.008,-3.024 -2.016,-5.544 z m 9.144,-40.392004 h 34.992 v 6.696 h -34.992 z m -2.808,51.048004 h 39.024 v 6.624 h -39.024 z m 16.56,-47.376004 h 7.128 v 51.336004 h -7.128 z m 48.456,-2.16 h 25.488 v 5.544 h -25.488 z m 1.368,10.8 h 22.536 v 5.472 h -22.536 z m 24.12,-1.584 h 20.52 v 6.12 h -20.52 z m -15.84,-16.056 h 5.976 v 21.528 h -5.976 z m -2.088,31.248004 v 6.984 h 9.936 v -6.984 z m -5.544,-4.824 h 21.24 v 16.632 h -21.24 z m 0.576,19.44 5.256,-1.296 q 1.008,2.592 1.872,5.688 0.936,3.024 1.152,5.112 l -5.616,1.584 q -0.216,-2.16 -1.008,-5.256 -0.72,-3.168 -1.656,-5.832 z m 22.608,-16.488 5.04,-1.44 q 1.008,2.88 1.872,6.12 0.864,3.24 1.512,6.336 0.648,3.024 0.864,5.328 l -5.328,1.872 q -0.216,-2.376 -0.864,-5.472 -0.576,-3.096 -1.368,-6.48 -0.792,-3.384 -1.728,-6.264 z m -8.064,14.76 6.192,1.512 q -1.152,3.384 -2.448,6.84 -1.224,3.456 -2.376,5.976 l -5.184,-1.512 q 0.72,-1.728 1.44,-3.96 0.72,-2.304 1.368,-4.608 0.648,-2.376 1.008,-4.248 z m -18.936,15.336 q 3.528,-0.432 8.064,-1.08 4.608,-0.648 9.72,-1.44 5.184,-0.792 10.368,-1.584 l 0.36,5.616 q -7.128,1.224 -14.256,2.304 -7.128,1.152 -12.672,2.088 z m 37.224,-59.256004 h 6.264 v 59.040004 q 0,2.592 -0.576,4.032 -0.576,1.44 -2.088,2.304 -1.512,0.72 -3.888,1.008 -2.304,0.288 -5.688,0.288 -0.144,-1.224 -0.792,-3.096 -0.576,-1.872 -1.224,-3.24 2.232,0.072 4.104,0.144 1.944,0 2.664,-0.072 0.72,-0.072 0.936,-0.288 0.288,-0.288 0.288,-1.008 z m -55.44,15.12 h 20.016 v 6.264 h -20.016 z m 7.92,-15.336 h 5.976 v 66.744004 h -5.976 z m 0.072,19.368 3.528,1.224 q -0.72,4.176 -1.728,8.784004 -1.008,4.608 -2.304,9.072 -1.296,4.392 -2.808,8.28 -1.512,3.816 -3.168,6.552 -0.432,-1.152 -1.368,-2.808 -0.936,-1.656 -1.656,-2.664 1.584,-2.448 3.024,-5.76 1.44,-3.384 2.664,-7.2 1.296,-3.816 2.232,-7.776 1.008,-4.032004 1.584,-7.704004 z m 5.544,4.968 q 0.504,0.72 1.584,2.592004 1.08,1.872 2.304,4.032 1.296,2.16 2.304,4.032 1.008,1.8 1.44,2.592 l -3.24,4.896 q -0.504,-1.512 -1.44,-3.6 -0.864,-2.16 -1.944,-4.464 -1.008,-2.376 -1.944,-4.32 -0.864,-2.016 -1.44,-3.168 z m 90.36,-9.144 h 32.616 v 6.48 h -32.616 z m 12.528,-15.264 h 6.768 v 66.816004 h -6.768 z m -0.288,18.288 5.112,1.728 q -1.368,5.112 -3.312,10.296004 -1.944,5.184 -4.392,10.08 -2.448,4.824 -5.256,9 -2.736,4.104 -5.688,7.128 -0.648,-1.512 -1.872,-3.24 -1.152,-1.728 -2.088,-2.952 2.808,-2.736 5.472,-6.336 2.664,-3.672 4.968,-7.92 2.304,-4.248 4.104,-8.784 1.872,-4.536004 2.952,-9.000004 z m 7.632,0 q 1.512,5.904 3.816,11.808004 2.376,5.904 5.184,11.016 2.88,5.112 5.976,8.496 -1.224,0.936 -2.736,2.448 -1.512,1.512 -2.448,2.88 -2.952,-4.032 -5.76,-9.792 -2.736,-5.76 -4.968,-12.384 -2.232,-6.624 -3.744,-13.176004 z m -51.552,-3.024 h 28.944 v 6.48 h -28.944 z m 12.312,-15.264 h 6.696 v 66.816004 h -6.696 z m -0.432,19.368 4.536,1.656 q -1.08,4.392004 -2.664,9.072004 -1.512,4.68 -3.456,9.144 -1.872,4.464 -4.104,8.28 -2.16,3.816 -4.464,6.48 -0.576,-1.44 -1.656,-3.312 -1.08,-1.872 -1.944,-3.168 2.16,-2.448 4.248,-5.688 2.088,-3.24 3.888,-6.984 1.872,-3.816 3.312,-7.776 1.44,-3.960004 2.304,-7.704004 z m 6.984,3.672 q 0.72,0.576 1.872,1.944 1.224,1.296004 2.664,2.880004 1.44,1.584 2.808,3.24 1.44,1.656 2.592,3.024 1.152,1.296 1.656,1.872 l -4.392,5.904 q -0.864,-1.512 -2.304,-3.6 -1.368,-2.088 -3.024,-4.32 -1.584,-2.232 -3.096,-4.248 -1.44,-2.016 -2.448,-3.24 z"
         id="text4"
         transform="matrix(0.22505692,0,0,0.22505692,3.4694169,1.1325221)"
         aria-label="紅樹林" />
      <path
         style="font-size:6.30159px;line-height:1.25;font-family:'AR UDJingXiHeiE1G30 EB';-inkscape-font-specification:'AR UDJingXiHeiE1G30 EB';fill:#ffffff;stroke-width:0.225056"
         d="m 40.843582,37.770395 v 2.022811 H 40.04328 v -4.55605 h 0.800302 v 1.909382 h 2.186652 v -1.909382 h 0.800302 v 4.55605 h -0.800302 v -2.022811 z m 8.412624,-0.233159 q 0,1.096477 -0.611254,1.720334 -0.604953,0.617556 -1.657318,0.617556 -1.071271,0 -1.676223,-0.623857 -0.604953,-0.623858 -0.604953,-1.714033 0,-1.109079 0.611254,-1.739238 0.611255,-0.636461 1.669922,-0.636461 1.07127,0 1.669921,0.630159 0.598651,0.630159 0.598651,1.74554 z m -2.268572,1.714033 q 0.686873,0 1.058667,-0.453715 0.378095,-0.453714 0.378095,-1.260318 0,-0.800302 -0.378095,-1.272921 -0.378096,-0.478921 -1.058667,-0.478921 -0.693175,0 -1.077572,0.485223 -0.378096,0.478921 -0.378096,1.266619 0,0.806604 0.384397,1.260318 0.384397,0.453715 1.071271,0.453715 z m 3.938495,-2.747493 v 3.28943 h -0.800302 v -4.55605 h 0.825508 l 2.237064,3.365049 v -3.365049 h 0.800302 v 4.55605 H 53.11278 Z m 7.454776,2.73489 q -0.233159,0.327682 -0.586048,0.485222 -0.346588,0.151238 -0.794001,0.151238 -0.983048,0 -1.562794,-0.617556 -0.579746,-0.623857 -0.579746,-1.739238 0,-1.121683 0.611254,-1.739239 0.611254,-0.617556 1.651017,-0.617556 0.838111,0 1.361143,0.384397 0.529334,0.378095 0.636461,1.083873 h -0.800302 q -0.06302,-0.371793 -0.371794,-0.604952 -0.302477,-0.239461 -0.825508,-0.239461 -0.699477,0 -1.064969,0.453715 -0.365492,0.447413 -0.365492,1.279223 0,0.888524 0.384397,1.31073 0.384397,0.415905 1.046064,0.415905 0.579746,0 0.920032,-0.340286 0.340286,-0.340285 0.340286,-0.781397 v -0.09452 h -1.291826 v -0.623857 h 2.06062 v 2.388303 h -0.768794 z m 3.226412,-1.50608 q -0.83181,-0.151239 -1.235112,-0.466318 -0.403302,-0.31508 -0.403302,-0.882223 0,-0.529333 0.428509,-0.875921 0.434809,-0.346587 1.335937,-0.346587 0.825508,0 1.279222,0.352889 0.453715,0.352889 0.497826,1.020858 h -0.800302 q -0.0063,-0.321382 -0.252064,-0.535636 -0.245762,-0.214254 -0.749889,-0.214254 -0.472619,0 -0.699476,0.15754 -0.226857,0.15754 -0.220556,0.441111 0,0.308778 0.302476,0.460016 0.308778,0.151239 1.001953,0.289874 0.86962,0.176444 1.235112,0.47892 0.371794,0.302477 0.371794,0.907429 0,0.579747 -0.491524,0.970445 -0.491524,0.384397 -1.398953,0.384397 -0.926334,0 -1.443064,-0.390698 -0.516731,-0.390699 -0.516731,-1.127985 h 0.800302 q 0,0.409603 0.308778,0.655365 0.308778,0.239461 0.857016,0.239461 0.504127,0 0.787699,-0.195349 0.283572,-0.19535 0.283572,-0.510429 0,-0.365492 -0.283572,-0.523032 -0.283572,-0.15754 -0.995651,-0.289873 z m 3.642317,0.03781 v 2.022811 h -0.800302 v -4.55605 h 0.800302 v 1.909382 h 2.186652 v -1.909382 h 0.800302 v 4.55605 h -0.800302 v -2.022811 z m 7.851782,0.428508 q 0,0.794001 -0.497825,1.235112 -0.497826,0.441111 -1.417858,0.441111 -0.932636,0 -1.436763,-0.434809 -0.497825,-0.43481 -0.497825,-1.235112 v -2.968049 h 0.800302 v 2.930239 q 0,0.516731 0.283571,0.800302 0.283572,0.283572 0.850715,0.283572 0.535635,0 0.819206,-0.270969 0.289874,-0.27727 0.289874,-0.825508 v -2.917636 h 0.806603 z m 4.215765,1.594303 h -3.201208 v -4.55605 h 0.800302 v 3.932192 h 2.400906 z m 1.461975,-4.55605 v 4.55605 h -0.800302 v -4.55605 z m 1.846363,1.26662 v 3.28943 h -0.800302 v -4.55605 h 0.825508 l 2.237065,3.365049 v -3.365049 h 0.800302 v 4.55605 h -0.875921 z"
         id="text5"
         aria-label="HONGSHULIN" />
      <path
         d="m 42.320213,42.619115 h 3.062573 v 0.573445 h -3.062573 z m -0.245762,4.411113 h 3.415462 v 0.567143 h -3.415462 z m 1.443064,-4.222065 h 0.617556 v 4.511938 h -0.617556 z m -2.722287,2.161445 h 0.586048 v 2.842017 h -0.586048 z m -0.03151,-3.018462 0.567143,0.220556 q -0.144936,0.233159 -0.308778,0.485222 -0.157539,0.245762 -0.321381,0.47262 -0.157539,0.226857 -0.302476,0.397 l -0.422207,-0.189048 q 0.132334,-0.182746 0.283572,-0.422206 0.151238,-0.245762 0.283572,-0.497826 0.132333,-0.252064 0.220555,-0.466318 z m 0.812905,0.718382 0.541937,0.264666 q -0.23946,0.352889 -0.535635,0.743588 -0.289873,0.384397 -0.586048,0.737286 -0.296175,0.352889 -0.567143,0.623857 l -0.397,-0.23946 q 0.195349,-0.207953 0.403301,-0.466318 0.214255,-0.264666 0.422207,-0.55454 0.207952,-0.289873 0.390699,-0.573444 0.189047,-0.283572 0.327682,-0.535635 z m -1.947191,0.630159 0.296175,-0.403302 q 0.201651,0.151238 0.409603,0.333984 0.207953,0.182746 0.390699,0.371794 0.182746,0.182746 0.283571,0.333984 l -0.308778,0.466318 q -0.107127,-0.163842 -0.283571,-0.352889 -0.176445,-0.19535 -0.384397,-0.390699 -0.201651,-0.201651 -0.403302,-0.35919 z m 1.865271,0.850714 0.434809,-0.220555 q 0.151238,0.195349 0.302477,0.428508 0.157539,0.233158 0.283571,0.460016 0.126032,0.220555 0.195349,0.397 l -0.466317,0.258365 q -0.06302,-0.176444 -0.182746,-0.403302 -0.119731,-0.233158 -0.270969,-0.472619 -0.144936,-0.245762 -0.296174,-0.447413 z m -1.884176,0.560842 q 0.31508,-0.0126 0.724683,-0.03151 0.415905,-0.01891 0.882223,-0.04411 0.466317,-0.02521 0.932635,-0.05041 l -0.0063,0.510429 q -0.661667,0.05041 -1.317032,0.09452 -0.649064,0.04411 -1.153191,0.07562 z m 1.985001,1.014556 0.491524,-0.163842 q 0.100826,0.201651 0.195349,0.43481 0.09452,0.226857 0.170143,0.447413 0.08192,0.220556 0.11973,0.397 l -0.51673,0.195349 Q 42.024038,46.853783 41.948419,46.626926 41.8728,46.400069 41.778276,46.16691 41.690054,45.92745 41.59553,45.725799 Z m -1.588001,-0.132334 0.55454,0.100826 q -0.06932,0.453714 -0.195349,0.894826 -0.126032,0.441111 -0.289873,0.743587 -0.05671,-0.03781 -0.151238,-0.08192 -0.08822,-0.05041 -0.189048,-0.09452 -0.09452,-0.04411 -0.163841,-0.06932 0.163841,-0.283571 0.270968,-0.680572 0.107127,-0.403301 0.163841,-0.812905 z m 7.757258,-3.031064 h 2.230762 v 0.485222 h -2.230762 z m 0.11973,0.945238 h 1.972397 v 0.478921 h -1.972397 z m 2.111032,-0.138635 h 1.795954 v 0.535635 H 49.995549 Z M 48.6092,41.963749 h 0.523032 v 1.884176 H 48.6092 Z m -0.182746,2.734891 v 0.611254 h 0.869619 V 44.69864 Z M 47.941231,44.276433 H 49.8002 V 45.7321 h -1.858969 z m 0.05041,1.701429 0.460016,-0.113428 q 0.08822,0.226857 0.163841,0.497825 0.08192,0.264667 0.100826,0.447413 l -0.491524,0.138635 q -0.01891,-0.189048 -0.08822,-0.460016 -0.06302,-0.27727 -0.144936,-0.510429 z m 1.978699,-1.443064 0.441111,-0.126032 q 0.08822,0.252064 0.163842,0.535636 0.07562,0.283571 0.132333,0.554539 0.05671,0.264667 0.07562,0.466318 L 50.316931,46.1291 q -0.0189,-0.207952 -0.07562,-0.47892 -0.05041,-0.270969 -0.11973,-0.567143 -0.06932,-0.296175 -0.151238,-0.548239 z m -0.705778,1.291826 0.541937,0.132334 q -0.100826,0.296174 -0.214254,0.598651 -0.107127,0.302476 -0.207953,0.523032 l -0.453714,-0.132334 q 0.06302,-0.151238 0.126032,-0.346587 0.06302,-0.201651 0.11973,-0.403302 0.05671,-0.207953 0.08822,-0.371794 z m -1.657318,1.342239 q 0.308778,-0.03781 0.705778,-0.09452 0.403302,-0.05671 0.850715,-0.126032 0.453714,-0.06932 0.907429,-0.138635 l 0.03151,0.491524 q -0.623857,0.107127 -1.247714,0.201651 -0.623858,0.100826 -1.10908,0.182746 z m 3.257922,-5.186209 h 0.548238 v 5.167304 q 0,0.226857 -0.05041,0.352889 -0.05041,0.126032 -0.182746,0.201651 -0.132333,0.06302 -0.340285,0.08822 -0.201651,0.02521 -0.497826,0.02521 -0.0126,-0.107127 -0.06932,-0.270969 -0.05041,-0.163841 -0.107127,-0.283571 0.19535,0.0063 0.359191,0.0126 0.170143,0 0.233159,-0.0063 0.06302,-0.0063 0.08192,-0.02521 0.02521,-0.02521 0.02521,-0.08822 z m -4.852224,1.323334 h 1.751842 v 0.548238 h -1.751842 z m 0.693175,-1.342239 h 0.523031 v 5.841574 H 46.70612 Z m 0.0063,1.695128 0.308778,0.107127 q -0.06302,0.365492 -0.151238,0.768794 -0.08822,0.403302 -0.201651,0.794001 -0.113429,0.384397 -0.245762,0.724682 -0.132333,0.333985 -0.27727,0.573445 -0.03781,-0.100825 -0.11973,-0.245762 -0.08192,-0.144937 -0.144937,-0.233159 0.138635,-0.214254 0.264667,-0.504127 0.126032,-0.296175 0.233159,-0.630159 0.113428,-0.333984 0.195349,-0.680572 0.08822,-0.352889 0.138635,-0.67427 z m 0.485223,0.43481 q 0.04411,0.06302 0.138635,0.226857 0.09452,0.163841 0.20165,0.352889 0.113429,0.189048 0.201651,0.352889 0.08822,0.15754 0.126032,0.226857 l -0.283571,0.428509 q -0.04411,-0.132334 -0.126032,-0.31508 -0.07562,-0.189048 -0.170143,-0.390699 -0.08822,-0.207952 -0.170143,-0.378095 -0.07562,-0.176444 -0.126032,-0.27727 z m 7.908495,-0.800302 h 2.85462 v 0.567143 h -2.85462 z m 1.096477,-1.335937 h 0.592349 v 5.847875 h -0.592349 z m -0.02521,1.600604 0.447413,0.151238 q -0.11973,0.447413 -0.289873,0.901127 -0.170143,0.453715 -0.384397,0.882223 -0.214254,0.422206 -0.460016,0.787699 -0.23946,0.35919 -0.497826,0.623857 -0.05671,-0.132333 -0.163841,-0.283572 -0.100825,-0.151238 -0.182746,-0.258365 0.245762,-0.23946 0.478921,-0.55454 0.233159,-0.321381 0.434809,-0.693175 0.201651,-0.371793 0.359191,-0.768794 0.163841,-0.397 0.258365,-0.787698 z m 0.667969,0 q 0.132333,0.51673 0.333984,1.03346 0.207952,0.516731 0.453715,0.964144 0.252063,0.447413 0.523031,0.743587 -0.107127,0.08192 -0.23946,0.214254 -0.132333,0.132334 -0.214254,0.252064 -0.258365,-0.352889 -0.504127,-0.857016 -0.239461,-0.504127 -0.43481,-1.083874 -0.195349,-0.579746 -0.327683,-1.153191 z m -4.511939,-0.264667 h 2.53324 v 0.567143 h -2.53324 z m 1.077572,-1.335937 h 0.586048 v 5.847875 h -0.586048 z m -0.03781,1.695128 0.397,0.144936 q -0.09452,0.384397 -0.233159,0.794 -0.132333,0.409604 -0.302476,0.800302 -0.163842,0.390699 -0.359191,0.724683 -0.189048,0.333985 -0.390698,0.567143 -0.05041,-0.126031 -0.144937,-0.289873 -0.09452,-0.163841 -0.170143,-0.27727 0.189048,-0.214254 0.371794,-0.497825 0.182746,-0.283572 0.340286,-0.611255 0.163841,-0.333984 0.289873,-0.680571 0.126032,-0.346588 0.201651,-0.67427 z m 0.611254,0.321381 q 0.06302,0.05041 0.163841,0.170143 0.107127,0.113428 0.233159,0.252063 0.126032,0.138635 0.245762,0.283572 0.126032,0.144936 0.226857,0.264667 0.100826,0.113428 0.144937,0.163841 l -0.384397,0.51673 q -0.07562,-0.132333 -0.201651,-0.315079 -0.11973,-0.182746 -0.264667,-0.378096 -0.138635,-0.195349 -0.270968,-0.371793 -0.126032,-0.176445 -0.214254,-0.283572 z"
         id="text5-9"
         style="font-weight:500;font-size:6.30159px;line-height:1.25;font-family:'Noto Sans JP';-inkscape-font-specification:'Noto Sans JP Medium';fill:#ffffff;stroke-width:0.225056"
         aria-label="紅樹林" />
      <path
         style="font-weight:500;font-size:6.30159px;line-height:1.25;font-family:'Noto Sans KR';-inkscape-font-specification:'Noto Sans KR Medium';fill:#ffffff;stroke-width:0.225056"
         d="m 65.558617,45.460235 h 0.655365 v 0.806604 h -0.655365 z m 0.315079,0.623858 q 0.95154,0 1.468271,0.226857 0.51673,0.226857 0.51673,0.667968 0,0.441112 -0.51673,0.661667 -0.516731,0.226857 -1.468271,0.226857 -0.945238,0 -1.461968,-0.226857 -0.516731,-0.220555 -0.516731,-0.661667 0,-0.441111 0.516731,-0.667968 0.51673,-0.226857 1.461968,-0.226857 z m 0.0063,0.485222 q -0.649064,0 -0.983048,0.100825 -0.333984,0.100826 -0.333984,0.308778 0,0.201651 0.333984,0.308778 0.333984,0.100826 0.983048,0.100826 0.649064,0 0.976746,-0.100826 0.327683,-0.107127 0.327683,-0.308778 0,-0.207952 -0.327683,-0.308778 -0.327682,-0.100825 -0.976746,-0.100825 z m -2.33789,-3.995208 h 4.656875 v 0.504127 h -4.656875 z m 2.344192,0.699476 q 0.907429,0 1.392651,0.207953 0.491524,0.207952 0.491524,0.611254 0,0.403302 -0.491524,0.617556 -0.485222,0.207952 -1.392651,0.207952 -0.907429,0 -1.398953,-0.207952 -0.491524,-0.214254 -0.491524,-0.617556 0,-0.403302 0.491524,-0.611254 0.491524,-0.207953 1.398953,-0.207953 z m 0,0.453715 q -0.586048,0 -0.888525,0.09452 -0.296174,0.08822 -0.296174,0.270968 0,0.189048 0.296174,0.283572 0.302477,0.08822 0.888525,0.08822 0.586047,0 0.882222,-0.08822 0.302476,-0.09452 0.302476,-0.283572 0,-0.182746 -0.302476,-0.270968 -0.296175,-0.09452 -0.882222,-0.09452 z m -0.327683,-1.676223 h 0.655365 v 0.850715 h -0.655365 z m -2.274874,3.144493 h 5.205113 v 0.516731 h -5.205113 z m 8.053433,-2.892429 h 0.579746 v 0.302476 q 0,0.327683 -0.113429,0.630159 -0.113428,0.296175 -0.327682,0.548238 -0.207953,0.252064 -0.504128,0.453715 -0.289873,0.201651 -0.642762,0.340286 -0.352889,0.132333 -0.756191,0.195349 l -0.258365,-0.529334 q 0.352889,-0.05041 0.655366,-0.157539 0.308777,-0.113429 0.560841,-0.270969 0.252064,-0.163841 0.428508,-0.35919 0.182746,-0.19535 0.27727,-0.409604 0.100826,-0.214254 0.100826,-0.441111 z m 0.126031,0 h 0.573445 v 0.302476 q 0,0.220556 0.09452,0.43481 0.100825,0.214254 0.283571,0.409603 0.182747,0.195349 0.43481,0.359191 0.252064,0.157539 0.55454,0.270968 0.308778,0.113429 0.655365,0.163841 l -0.258365,0.529334 q -0.397,-0.06302 -0.749889,-0.201651 -0.352889,-0.138635 -0.649064,-0.340286 -0.289873,-0.201651 -0.504127,-0.453714 -0.207952,-0.252064 -0.321381,-0.548239 -0.113429,-0.296174 -0.113429,-0.623857 z m -0.11973,3.415461 h 0.655365 v 2.161446 h -0.655365 z m -2.262271,-0.409603 h 5.205114 v 0.541937 H 69.081206 Z M 78.9621,42.120392 h 0.661667 v 4.24097 H 78.9621 Z m -3.138192,5.104288 h 3.951097 v 0.535635 h -3.951097 z m 0,-1.203603 h 0.661667 v 1.480873 h -0.661667 z m -0.649064,-0.970445 h 0.478921 q 0.573445,0 1.027159,-0.0126 0.460017,-0.01891 0.863318,-0.05672 0.409604,-0.04411 0.83181,-0.11973 l 0.06932,0.535635 q -0.43481,0.07562 -0.857017,0.11973 -0.415904,0.03781 -0.882222,0.05672 -0.466318,0.0126 -1.052366,0.0126 h -0.478921 z m -0.0126,-2.539541 h 2.634065 v 1.751842 h -1.972398 v 0.945239 h -0.649064 v -1.449366 h 1.972398 v -0.71208 h -1.985001 z"
         id="text5-9-8"
         aria-label="훙수린" />
    </g>
    <text
       xml:space="preserve"
       transform="matrix(0.31615295,0,0,0.31615295,-10.474341,-6.4462013)"
       id="text6"
       style="font-size:55px;line-height:1.25;font-family:'Microsoft JhengHei';-inkscape-font-specification:'Microsoft JhengHei';white-space:pre;shape-inside:url(#rect6);display:inline" />
  </g>
</svg>
