<?xml version="1.0" encoding="UTF-8" standalone="no"?>
<!-- Created with Inkscape (http://www.inkscape.org/) -->

<svg
   width="500"
   height="250"
   viewBox="0 0 132.29166 66.145833"
   version="1.1"
   id="svg1"
   inkscape:version="1.3.2 (091e20e, 2023-11-25, custom)"
   sodipodi:docname="r28_2.svg"
   xmlns:inkscape="http://www.inkscape.org/namespaces/inkscape"
   xmlns:sodipodi="http://sodipodi.sourceforge.net/DTD/sodipodi-0.dtd"
   xmlns="http://www.w3.org/2000/svg"
   xmlns:svg="http://www.w3.org/2000/svg">
  <sodipodi:namedview
     id="namedview1"
     pagecolor="#9e652e"
     bordercolor="#ffffff"
     borderopacity="1"
     inkscape:showpageshadow="0"
     inkscape:pageopacity="0"
     inkscape:pagecheckerboard="false"
     inkscape:deskcolor="#d1d1d1"
     inkscape:document-units="mm"
     inkscape:zoom="2.0208096"
     inkscape:cx="305.81802"
     inkscape:cy="106.88785"
     inkscape:window-width="1920"
     inkscape:window-height="1009"
     inkscape:window-x="1912"
     inkscape:window-y="-8"
     inkscape:window-maximized="1"
     inkscape:current-layer="layer1" />
  <defs
     id="defs1">
    <rect
       x="560.66638"
       y="34.144731"
       width="279.32397"
       height="128.59143"
       id="rect6" />
    <rect
       x="157.85752"
       y="62.351248"
       width="329.07603"
       height="135.09437"
       id="rect4" />
    <rect
       x="157.85751"
       y="62.35125"
       width="329.07602"
       height="135.09438"
       id="rect4-5" />
  </defs>
  <g
     inkscape:label="Layer 1"
     inkscape:groupmode="layer"
     id="layer1">
    <rect
       style="fill:#d0002b;fill-opacity:1;stroke:none;stroke-width:0.953294;stroke-dasharray:none"
       id="rect5"
       width="132.29167"
       height="66.145836"
       x="-2.5431316e-06"
       y="-1.2715658e-06"
       ry="0" />
    <text
       xml:space="preserve"
       transform="matrix(0.31615295,0,0,0.31615295,-10.474341,-6.4462013)"
       id="text6"
       style="font-size:55px;line-height:1.25;font-family:'Microsoft JhengHei';-inkscape-font-specification:'Microsoft JhengHei';white-space:pre;shape-inside:url(#rect6);display:inline" />
    <g
       id="g4"
       transform="translate(16.660271,-9.5185482)">
      <g
         id="g6"
         transform="translate(-19.056731)">
        <g
           id="g5"
           transform="translate(23.513546,9.5185469)">
          <path
             id="rect1"
             style="fill-opacity:0;stroke:#f9f9f9;stroke-width:0.942789"
             d="m 15.913089,14.352791 h 12.425164 c 3.927062,0 7.088559,3.161497 7.088559,7.088559 v 23.263136 c 0,3.927062 -3.161497,7.088559 -7.088559,7.088559 H 15.913089 c -3.927061,0 -7.0885584,-3.161497 -7.0885584,-7.088559 V 21.44135 c 0,-3.927062 3.1614974,-7.088559 7.0885584,-7.088559 z" />
          <path
             style="font-size:14.3709px;line-height:1.25;font-family:'AR UDJingXiHeiE1G30 EB';-inkscape-font-specification:'AR UDJingXiHeiE1G30 EB';fill:#f9f9f9;stroke-width:0.299395"
             d="m 24.479114,23.761527 q 0,-0.761658 -0.402385,-1.149672 -0.402385,-0.402385 -1.164043,-0.402385 h -3.118485 v 3.233452 h 3.017889 q 0.747287,0 1.207156,-0.445498 0.459868,-0.445498 0.459868,-1.235897 z m -4.684913,3.089743 v 4.325641 h -1.825104 v -10.39016 h 5.288491 q 1.422719,0 2.256231,0.761657 0.847883,0.747287 0.847883,2.126893 0,0.905367 -0.431127,1.552058 -0.416756,0.64669 -1.049075,0.919737 0.80477,0.459869 1.235897,1.59517 0.431127,1.135301 0.546094,3.434645 H 24.766532 Q 24.680307,28.7626 24.234809,27.814121 23.803682,26.85127 22.840832,26.85127 Z"
             id="text2"
             aria-label="R" />
          <path
             style="font-size:14.3917px;line-height:1.25;font-family:'AR UDJingXiHeiE1G30 EB';-inkscape-font-specification:'AR UDJingXiHeiE1G30 EB';fill:#f9f9f9;stroke-width:0.261667"
             d="m 14.426088,37.706725 q 0,-1.611871 0.978636,-2.53294 0.978636,-0.93546 2.561723,-0.93546 1.626262,0 2.532939,0.820327 0.921069,0.805935 0.921069,2.245105 0,1.021811 -0.662019,2.058013 -0.647626,1.021811 -2.043621,2.259497 l -1.957271,1.770179 h 4.634127 v 1.424778 H 14.382913 V 43.50658 l 2.907124,-2.61929 q 1.280861,-1.165727 1.78457,-1.986054 0.518102,-0.834719 0.518102,-1.597479 0,-0.719585 -0.41736,-1.165728 -0.417359,-0.446142 -1.208902,-0.446142 -0.791544,0 -1.280862,0.546884 -0.489318,0.546885 -0.489318,1.467954 z m 14.017506,1.583087 q 0.877894,0.359792 1.324036,1.036202 0.446143,0.662018 0.446143,1.52552 0,1.453562 -1.007419,2.302672 -0.993027,0.84911 -2.748815,0.84911 -1.813354,0 -2.791989,-0.84911 -0.978636,-0.84911 -0.978636,-2.28828 0,-0.834719 0.431751,-1.496737 0.431751,-0.67641 1.26647,-1.064986 -0.67641,-0.316617 -1.007419,-0.877893 -0.33101,-0.575668 -0.345401,-1.295253 0,-1.26647 0.892285,-2.072405 0.906677,-0.820327 2.532939,-0.820327 1.583087,0 2.460981,0.805935 0.877894,0.805935 0.877894,2.086797 0,0.690801 -0.345401,1.266469 -0.331009,0.561276 -1.007419,0.892286 z m -2.000446,-0.662019 q 0.690801,0 1.10816,-0.402967 0.41736,-0.41736 0.41736,-1.079378 0,-0.690801 -0.41736,-1.079377 -0.402967,-0.402968 -1.093769,-0.402968 -0.719585,0 -1.165727,0.402968 -0.431751,0.402967 -0.431751,1.079377 0,0.647627 0.431751,1.064986 0.431751,0.417359 1.151336,0.417359 z m 1.957271,3.223741 q 0,-0.820327 -0.575668,-1.280861 -0.561277,-0.460535 -1.381603,-0.460535 -0.834719,0 -1.381604,0.50371 -0.532492,0.489318 -0.546884,1.252078 0,0.805935 0.532493,1.252078 0.532493,0.446142 1.410386,0.460534 0.863502,0 1.395995,-0.446143 0.546885,-0.460534 0.546885,-1.280861 z"
             id="text3"
             aria-label="28" />
          <path
             style="font-weight:500;font-size:72px;line-height:1.25;font-family:'Noto Sans TC';-inkscape-font-specification:'Noto Sans TC Medium';white-space:pre;fill:#f9f9f9"
             d="m 198.82542,94.689406 3.888,-4.68 q 3.816,1.872 8.064,4.248 4.32,2.376 8.208,4.824 3.96,2.376004 6.48,4.392004 l -4.176,5.4 q -2.376,-2.088 -6.192,-4.608 -3.816,-2.592 -8.136,-5.112004 -4.248,-2.52 -8.136,-4.464 z m 1.44,-20.016 h 6.768 q -0.216,7.416 -1.152,13.032 -0.864,5.616 -3.168,9.72 -2.304,4.104004 -6.84,6.912004 -4.536,2.808 -12.096,4.68 -0.216,-0.864 -0.864,-1.872 -0.648,-1.08 -1.368,-2.016 -0.72,-1.008 -1.44,-1.656 6.84,-1.512 10.8,-3.744004 3.96,-2.232 5.904,-5.616 2.016,-3.384 2.664,-8.136 0.648,-4.824 0.792,-11.304 z m 17.136,4.248 6.84,2.304 q -2.16,3.384 -4.536,6.768 -2.304,3.312 -4.32,5.688 l -5.256,-2.088 q 1.224,-1.656 2.592,-3.888 1.368,-2.232 2.592,-4.536 1.224,-2.304 2.088,-4.248 z m 0.648,31.248004 6.984,2.376 q -1.368,2.376 -3.024,4.896 -1.584,2.448 -3.168,4.68 -1.512,2.232 -2.952,3.888 l -5.472,-2.088 q 1.296,-1.872 2.736,-4.248 1.44,-2.376 2.736,-4.896 1.296,-2.52 2.16,-4.608 z m -18.072,-5.328 h 6.696 q -0.216,7.776 -1.152,13.824 -0.936,5.976 -3.456,10.368 -2.52,4.392 -7.488,7.416 -4.896,3.096 -13.104,5.04 -0.288,-0.864 -0.936,-1.944 -0.648,-1.08 -1.44,-2.16 -0.72,-1.08 -1.44,-1.728 6.048,-1.296 10.008,-3.096 3.96,-1.872 6.336,-4.32 2.376,-2.52 3.6,-5.832 1.224,-3.384 1.728,-7.704 0.504,-4.392 0.648,-9.864 z m 5.832,9.576 q 2.016,8.424 7.272,13.896 5.256,5.472 14.976,7.128 -0.72,0.648 -1.512,1.728 -0.792,1.08 -1.512,2.16 -0.648,1.08 -1.08,1.944 -7.128,-1.584 -11.88,-5.112 -4.752,-3.456 -7.632,-8.64 -2.808,-5.256 -4.464,-12.24 z m -41.904,-33.840004 4.176,-4.68 q 2.16,1.08 4.608,2.52 2.52,1.368 4.68,2.808 2.232,1.44 3.672,2.736 l -4.392,5.256 q -1.296,-1.368 -3.528,-2.88 -2.16,-1.584 -4.608,-3.096 -2.376,-1.512 -4.608,-2.664 z m -3.816,19.512004 4.32,-4.680004 q 2.16,1.008 4.608,2.376 2.448,1.296 4.68,2.736004 2.232,1.368 3.672,2.592 l -4.464,5.184 q -1.296,-1.224 -3.528,-2.664 -2.16,-1.512 -4.608,-2.952 -2.448,-1.512 -4.68,-2.592 z m 1.8,35.496 q 1.728,-2.664 3.816,-6.408 2.088,-3.744 4.248,-7.92 2.16,-4.248 4.032,-8.352 l 5.4,4.464 q -1.656,3.744 -3.6,7.704 -1.872,3.96 -3.888,7.848 -1.944,3.816 -3.888,7.2 z m 20.232,-53.784004 5.4,-3.024 q 1.296,1.872 2.736,4.176 1.512,2.304 2.808,4.392 1.296,2.088 2.088,3.672 l -5.616,3.6 q -0.792,-1.656 -2.016,-3.888 -1.224,-2.232 -2.664,-4.536 -1.44,-2.376 -2.736,-4.392 z m -0.936,30.672004 5.4,-2.736 q 1.44,2.088 3.024,4.536 1.584,2.376 3.024,4.68 1.44,2.232 2.304,3.96 l -5.688,3.312 q -0.864,-1.8 -2.232,-4.176 -1.368,-2.376 -2.88,-4.896 -1.512,-2.52 -2.952,-4.68 z m 53.352,-19.728004 h 20.016 v 6.912 h -20.016 z m 27.936,-18 h 7.2 v 57.816004 q 0,3.096 -0.792,4.824 -0.72,1.728 -2.592,2.664 -1.8,0.936 -4.824,1.224 -2.952,0.288 -7.2,0.288 -0.144,-1.008 -0.576,-2.376 -0.432,-1.368 -0.936,-2.736 -0.504,-1.368 -1.08,-2.376 3.096,0.072 5.616,0.144 2.592,0 3.528,-0.072 0.864,0 1.224,-0.288 0.432,-0.36 0.432,-1.296 z m -10.224,18 h 1.368 l 1.224,-0.216 4.536,1.656 q -1.656,9.576004 -4.896,17.424004 -3.168,7.776 -7.488,13.608 -4.248,5.832 -9.36,9.504 -0.576,-0.792 -1.584,-1.8 -0.936,-1.008 -2.016,-1.944 -1.08,-1.008 -1.944,-1.512 5.04,-3.312 9.072,-8.424 4.032,-5.184 6.84,-11.88 2.88,-6.768 4.248,-14.904004 z m 16.992,-1.8 q 2.088,5.904 5.184,11.520004 3.096,5.616 7.056,10.512 3.96,4.896 8.712,8.784 4.752,3.816 10.152,6.336 -0.792,0.648 -1.8,1.8 -0.936,1.08 -1.872,2.304 -0.864,1.152 -1.44,2.16 -5.472,-2.952 -10.224,-7.272 -4.752,-4.392 -8.712,-9.864 -3.888,-5.472 -6.984,-11.808 -3.096,-6.336004 -5.4,-13.104004 z m 18.864,-3.096 6.336,4.392 q -2.736,2.88 -5.76,5.976 -3.024,3.096004 -6.12,5.904004 -3.024,2.808 -5.688,4.896 l -4.752,-3.744 q 2.592,-2.232 5.544,-5.256 2.952,-3.024004 5.688,-6.192004 2.808,-3.168 4.752,-5.976 z"
             id="text4"
             transform="matrix(0.26166763,0,0,0.26166763,-2.1314997,-4.0633201)"
             aria-label="淡水" />
          <path
             style="font-size:7.32669px;line-height:1.25;font-family:'AR UDJingXiHeiE1G30 EB';-inkscape-font-specification:'AR UDJingXiHeiE1G30 EB';fill:#f9f9f9;stroke-width:0.261667"
             d="m 41.520258,36.314564 h -1.648505 v -0.725342 h 4.220173 v 0.725342 h -1.641178 v 4.571855 h -0.93049 z m 6.095805,2.432461 -0.835243,-2.263947 -0.849896,2.263947 z m -1.956226,0.725343 -0.527522,1.414051 h -0.945143 l 2.132067,-5.297197 h 0.95247 l 2.117413,5.297197 H 48.421999 L 47.88715,39.472368 Z m 5.238577,-2.403155 v 3.817206 h -0.901183 v -5.297197 h 1.179597 l 1.523951,4.110273 1.465338,-4.110273 h 1.208904 v 5.297197 h -0.908509 v -3.846513 l -1.377418,3.846513 h -0.783956 z m 7.45124,1.421378 q -0.967123,-0.175841 -1.436031,-0.542175 -0.468908,-0.366335 -0.468908,-1.025737 0,-0.615442 0.498215,-1.01841 0.505541,-0.402968 1.553258,-0.402968 0.959796,0 1.487318,0.410295 0.527522,0.410295 0.578809,1.186924 h -0.93049 q -0.0073,-0.373661 -0.293068,-0.622769 -0.28574,-0.249107 -0.871876,-0.249107 -0.549501,0 -0.813262,0.183167 -0.263761,0.183167 -0.256434,0.512868 0,0.359008 0.351681,0.534849 0.359007,0.17584 1.164943,0.337027 1.011084,0.205148 1.436032,0.556829 0.432274,0.351681 0.432274,1.055043 0,0.674056 -0.571481,1.128311 -0.571482,0.446928 -1.626526,0.446928 -1.077023,0 -1.677812,-0.454255 -0.600788,-0.454255 -0.600788,-1.311478 h 0.930489 q 0,0.476235 0.359008,0.761976 0.359008,0.278414 0.99643,0.278414 0.586135,0 0.915836,-0.227127 0.329701,-0.227127 0.329701,-0.593462 0,-0.424948 -0.329701,-0.608115 -0.329701,-0.183167 -1.157617,-0.337028 z m 7.744311,0.542175 q 0,0.923163 -0.578808,1.436031 -0.578809,0.512869 -1.648506,0.512869 -1.08435,0 -1.670485,-0.505542 -0.578809,-0.505542 -0.578809,-1.436031 v -3.450871 h 0.93049 v 3.406911 q 0,0.600788 0.329701,0.930489 0.329701,0.329701 0.989103,0.329701 0.622769,0 0.95247,-0.315047 0.337028,-0.322375 0.337028,-0.959797 v -3.392257 h 0.937816 z m 2.110089,-3.443544 v 5.297197 h -0.93049 v -5.297197 z"
             id="text5"
             aria-label="TAMSUI" />
          <path
             d="m 43.823233,45.44687 0.395641,-0.476235 q 0.388315,0.190494 0.82059,0.432275 0.439601,0.241781 0.835242,0.490888 0.402968,0.241781 0.659403,0.446928 l -0.424948,0.549502 Q 45.86738,46.677754 45.479065,46.42132 45.090751,46.157559 44.651149,45.901125 44.218874,45.644691 43.823233,45.44687 Z m 0.146534,-2.03682 h 0.688709 q -0.02198,0.754649 -0.1099,1.326131 -0.08792,0.571482 -0.322375,0.989103 -0.227127,0.417622 -0.681382,0.710689 -0.446928,0.293068 -1.186924,0.483562 -0.02931,-0.08059 -0.09525,-0.190494 -0.06594,-0.109901 -0.146534,-0.205147 -0.07327,-0.102574 -0.139207,-0.168514 0.674056,-0.153861 1.06237,-0.380988 0.395642,-0.234454 0.586136,-0.578809 0.19782,-0.351681 0.26376,-0.835242 0.06594,-0.490889 0.08059,-1.150291 z m -1.252864,0.446928 0.600789,0.131881 q -0.09525,0.359008 -0.271088,0.747322 -0.168514,0.388315 -0.380988,0.652076 l -0.593462,-0.241781 q 0.197821,-0.227128 0.373661,-0.578809 0.175841,-0.359008 0.271088,-0.710689 z m -0.09525,3.216417 0.630095,0.131881 q -0.09525,0.402968 -0.278414,0.827916 -0.17584,0.417621 -0.410295,0.710689 l -0.600788,-0.293068 q 0.212474,-0.241781 0.388314,-0.615442 0.175841,-0.380988 0.271088,-0.761976 z m 3.091863,-3.23107 0.696036,0.234454 q -0.219801,0.344354 -0.461582,0.688709 -0.234454,0.337028 -0.439601,0.578808 l -0.534848,-0.212474 q 0.124553,-0.168514 0.26376,-0.395641 0.139208,-0.227127 0.263761,-0.461581 0.124554,-0.234454 0.212474,-0.432275 z m 0.06594,3.179783 0.710689,0.241781 q -0.139207,0.241781 -0.307721,0.498215 -0.161187,0.249108 -0.322374,0.476235 -0.15386,0.227127 -0.300394,0.395641 L 45.00283,48.421506 q 0.131881,-0.190494 0.278415,-0.432274 0.146533,-0.241781 0.278414,-0.498215 0.13188,-0.256435 0.2198,-0.468909 z M 43.94046,46.479933 h 0.681382 q -0.02198,0.791283 -0.117227,1.406725 -0.09525,0.608115 -0.351681,1.055043 -0.256434,0.446928 -0.761976,0.754649 -0.498214,0.315048 -1.333457,0.512869 -0.02931,-0.08792 -0.09525,-0.197821 -0.06594,-0.1099 -0.146534,-0.219801 -0.07327,-0.1099 -0.146534,-0.17584 0.615442,-0.131881 1.01841,-0.315048 0.402968,-0.190494 0.644749,-0.439601 0.241781,-0.256434 0.366334,-0.593462 0.124554,-0.344355 0.175841,-0.783956 0.05129,-0.446928 0.06594,-1.003757 z m 0.593462,0.97445 q 0.205147,0.857223 0.739996,1.414051 0.534848,0.556829 1.523951,0.725343 -0.07327,0.06594 -0.15386,0.17584 -0.08059,0.109901 -0.153861,0.219801 -0.06594,0.1099 -0.1099,0.197821 -0.725342,-0.161188 -1.208904,-0.520195 -0.483561,-0.351682 -0.776629,-0.879203 -0.285741,-0.534849 -0.454255,-1.245538 z m -4.264134,-3.443544 0.424948,-0.476235 q 0.219801,0.1099 0.468909,0.256434 0.256434,0.139207 0.476235,0.285741 0.227127,0.146534 0.373661,0.278414 l -0.446928,0.534849 q -0.131881,-0.139208 -0.359008,-0.293068 -0.219801,-0.161187 -0.468908,-0.315048 -0.241781,-0.15386 -0.468909,-0.271087 z m -0.388314,1.985533 0.439601,-0.476235 q 0.219801,0.102574 0.468908,0.241781 0.249108,0.13188 0.476235,0.278414 0.227128,0.139207 0.373662,0.263761 l -0.454255,0.527521 q -0.131881,-0.124553 -0.359008,-0.271087 -0.219801,-0.153861 -0.468908,-0.300394 -0.249108,-0.153861 -0.476235,-0.263761 z m 0.183167,3.612058 q 0.175841,-0.271087 0.388315,-0.652075 0.212474,-0.380988 0.432274,-0.805936 0.219801,-0.432275 0.410295,-0.849896 l 0.549502,0.454254 q -0.168514,0.380988 -0.366335,0.783956 -0.190494,0.402968 -0.395641,0.79861 -0.197821,0.388314 -0.395641,0.732669 z m 7.312037,-4.359381 h 2.12474 v 0.703363 h -2.12474 z m 2.923349,-1.831672 h 0.732669 v 5.861352 q 0,0.337028 -0.08792,0.512868 -0.08792,0.175841 -0.293068,0.271088 -0.212474,0.09525 -0.556828,0.124554 -0.337028,0.02931 -0.849896,0.02931 -0.01465,-0.1099 -0.05861,-0.249107 -0.04396,-0.139207 -0.102573,-0.278414 -0.05129,-0.139207 -0.109901,-0.234454 0.380988,0.0073 0.696036,0.01465 0.322374,0 0.432275,-0.0073 0.102573,0 0.146533,-0.04396 0.05129,-0.04396 0.05129,-0.139207 z m -1.033063,1.831672 h 0.146534 l 0.124554,-0.02198 0.468908,0.175841 q -0.175841,0.97445 -0.512869,1.773059 -0.329701,0.798609 -0.776629,1.392071 -0.446928,0.593462 -0.981776,0.967123 -0.05861,-0.08059 -0.161187,-0.190494 -0.102574,-0.1099 -0.212474,-0.205147 -0.109901,-0.102574 -0.197821,-0.153861 0.520195,-0.337027 0.937816,-0.857222 0.424948,-0.520195 0.718016,-1.208904 0.300394,-0.688709 0.446928,-1.509298 z m 1.721772,-0.688708 q 0.183167,0.732669 0.461582,1.421377 0.285741,0.681383 0.674055,1.267518 0.388315,0.586135 0.88653,1.04039 0.505541,0.454255 1.120983,0.732669 -0.08792,0.07327 -0.190494,0.183167 -0.102573,0.1099 -0.19782,0.234454 -0.08792,0.117227 -0.153861,0.219801 -0.835242,-0.439601 -1.443358,-1.186924 -0.608115,-0.747322 -1.025736,-1.714445 -0.410295,-0.967124 -0.681383,-2.073454 z m 2.241967,0.02198 0.644749,0.454254 q -0.300394,0.329701 -0.659402,0.681383 -0.359008,0.351681 -0.718016,0.674055 -0.359007,0.322374 -0.674055,0.556829 l -0.498215,-0.388315 q 0.315048,-0.249108 0.659402,-0.586135 0.351681,-0.344355 0.681382,-0.703363 0.329701,-0.366334 0.564155,-0.688708 z"
             id="text5-9"
             style="font-weight:500;font-size:7.32669px;line-height:1.25;font-family:'Noto Sans JP';-inkscape-font-specification:'Noto Sans JP Medium';fill:#f9f9f9;stroke-width:0.261667"
             aria-label="淡水" />
          <path
             style="font-weight:500;font-size:7.32669px;line-height:1.25;font-family:'Noto Sans KR';-inkscape-font-specification:'Noto Sans KR Medium';fill:#f9f9f9;stroke-width:0.261667"
             d="m 67.175531,43.584846 h 0.761976 v 4.850269 h -0.761976 z m 0.542175,1.919593 h 1.17227 v 0.630096 h -1.17227 z m -4.725715,1.157617 h 0.542175 q 0.703362,0 1.21623,-0.01465 0.520195,-0.01465 0.945143,-0.05861 0.424948,-0.05129 0.849896,-0.139207 l 0.08059,0.615442 q -0.432275,0.08792 -0.871876,0.139207 -0.439601,0.04396 -0.97445,0.06594 -0.527522,0.02198 -1.245537,0.02198 h -0.542175 z m 0,-2.520381 h 2.974636 v 0.622768 h -2.205334 v 2.234641 h -0.769302 z m 0.710689,5.385117 h 4.513241 v 0.622769 H 63.70268 Z m 0,-1.589892 h 0.769302 v 1.890286 H 63.70268 Z m 8.374407,-4.132253 h 0.674056 v 0.351681 q 0,0.380988 -0.131881,0.732669 -0.13188,0.344355 -0.380987,0.637422 -0.241781,0.293068 -0.586136,0.527522 -0.337027,0.234454 -0.747322,0.395641 -0.410295,0.153861 -0.879203,0.227128 L 69.72522,46.061268 q 0.410294,-0.05861 0.761976,-0.183168 0.359007,-0.13188 0.652075,-0.315047 0.293068,-0.190494 0.498215,-0.417622 0.212474,-0.227127 0.322374,-0.476234 0.117227,-0.249108 0.117227,-0.512869 z m 0.146534,0 h 0.666729 v 0.351681 q 0,0.256434 0.1099,0.505542 0.117227,0.249107 0.329701,0.476235 0.212474,0.227127 0.505542,0.417621 0.293068,0.183167 0.644749,0.315048 0.359008,0.13188 0.761976,0.190494 L 74.941823,46.67671 Q 74.480242,46.603443 74.069947,46.442256 73.659652,46.281068 73.315298,46.046614 72.97827,45.81216 72.729163,45.519093 72.487382,45.226025 72.355502,44.881671 72.223621,44.537316 72.223621,44.156328 Z m -0.139207,3.971066 h 0.761976 v 2.513055 h -0.761976 z m -2.630282,-0.476235 h 6.051846 v 0.630096 h -6.051846 z m 11.480925,-3.714632 h 0.769302 v 6.711249 h -0.769302 z m -2.791469,0.490889 q 0.498215,0 0.886529,0.293067 0.395641,0.293068 0.615442,0.82059 0.219801,0.527521 0.219801,1.245537 0,0.725342 -0.219801,1.260191 -0.219801,0.527521 -0.615442,0.820589 -0.388314,0.285741 -0.886529,0.285741 -0.498215,0 -0.893857,-0.285741 -0.388314,-0.293068 -0.615442,-0.820589 -0.2198,-0.534849 -0.2198,-1.260191 0,-0.718016 0.2198,-1.245537 0.227128,-0.527522 0.615442,-0.82059 0.395642,-0.293067 0.893857,-0.293067 z m 0,0.696035 q -0.293068,0 -0.520195,0.197821 -0.219801,0.19782 -0.344355,0.571482 -0.124554,0.373661 -0.124554,0.893856 0,0.527522 0.124554,0.901183 0.124554,0.373661 0.344355,0.578808 0.227127,0.197821 0.520195,0.197821 0.293067,0 0.512868,-0.197821 0.219801,-0.205147 0.344354,-0.578808 0.124554,-0.373661 0.124554,-0.901183 0,-0.520195 -0.124554,-0.893856 -0.124553,-0.373662 -0.344354,-0.571482 -0.219801,-0.197821 -0.512868,-0.197821 z"
             id="text5-9-8"
             aria-label="단수이" />
        </g>
      </g>
    </g>
  </g>
</svg>
