<?xml version="1.0" encoding="UTF-8" standalone="no"?>
<!-- Created with Inkscape (http://www.inkscape.org/) -->

<svg
   width="500"
   height="250"
   viewBox="0 0 132.29166 66.145833"
   version="1.1"
   id="svg1"
   inkscape:version="1.3.2 (091e20e, 2023-11-25, custom)"
   sodipodi:docname="y07.svg"
   xmlns:inkscape="http://www.inkscape.org/namespaces/inkscape"
   xmlns:sodipodi="http://sodipodi.sourceforge.net/DTD/sodipodi-0.dtd"
   xmlns="http://www.w3.org/2000/svg"
   xmlns:svg="http://www.w3.org/2000/svg">
  <sodipodi:namedview
     id="namedview1"
     pagecolor="#9e652e"
     bordercolor="#ffffff"
     borderopacity="1"
     inkscape:showpageshadow="0"
     inkscape:pageopacity="0"
     inkscape:pagecheckerboard="false"
     inkscape:deskcolor="#d1d1d1"
     inkscape:document-units="mm"
     inkscape:zoom="2.0208096"
     inkscape:cx="276.12695"
     inkscape:cy="127.17675"
     inkscape:window-width="1920"
     inkscape:window-height="1009"
     inkscape:window-x="1912"
     inkscape:window-y="-8"
     inkscape:window-maximized="1"
     inkscape:current-layer="layer1" />
  <defs
     id="defs1">
    <rect
       x="157.85752"
       y="62.351248"
       width="329.07603"
       height="135.09437"
       id="rect4" />
  </defs>
  <g
     inkscape:label="Layer 1"
     inkscape:groupmode="layer"
     id="layer1">
    <path
       id="rect5"
       style="fill:#ffffff;stroke-width:0.953294"
       d="M -2.5431316e-6,-1.2715658e-6 H 132.29167 V 66.145835 H -2.5431316e-6 Z" />
    <g
       id="g1"
       transform="matrix(1.121508,0,0,1.121508,13.65987,-0.36750813)">
      <path
         id="rect6"
         style="fill:none;stroke:#000000;stroke-width:0.575409"
         d="m 9.3009131,19.849001 h 5.7010479 c 1.810115,0 3.267355,1.45724 3.267355,3.267355 v 9.524719 c 0,1.810115 -1.45724,3.267355 -3.267355,3.267355 H 9.3009131 c -1.8101145,0 -3.2673547,-1.45724 -3.2673547,-3.267355 v -9.524719 c 0,-1.810115 1.4572402,-3.267355 3.2673547,-3.267355 z" />
      <path
         style="font-weight:bold;font-size:5.82083px;line-height:1.25;font-family:'Optima Bold';-inkscape-font-specification:'Optima Bold,  Bold';stroke-width:0.264583"
         d="m 11.768055,25.2551 -1.420282,-2.293407 h 0.232833 q 0.04657,0.01746 0.09313,0.0291 0.05239,0.0058 0.09313,0.01164 0.01164,0 0.01746,0 0.01164,0 0.01746,0 0,0 0,0 0.0058,0 0.0058,0 0,0 0,0 0.0058,0 0.0058,0 0.0291,0 0.05239,0 0.0291,0 0.05239,-0.0058 0.0291,-0.0058 0.05821,-0.01164 0.0291,-0.0058 0.05821,-0.01164 l 0.232833,-0.0058 0.98372,1.711324 0.937154,-1.717145 h 0.232833 q 0.0291,0.01746 0.05821,0.0291 0.03492,0.0058 0.06403,0.01164 0.0058,0 0.01164,0 0.01164,0 0.01746,0 0.0058,0 0.01164,0 0.01164,-0.0058 0.01746,-0.0058 0.02328,-0.0058 0.04657,-0.01164 0.02328,-0.0058 0.04657,-0.01164 l 0.232833,-0.0058 q -0.03492,0.05239 -0.06985,0.09895 -0.0291,0.04657 -0.05821,0.09313 -0.03492,0.04657 -0.06985,0.09313 -0.0291,0.04657 -0.05821,0.09313 -0.03492,0.04657 -0.06985,0.09895 -0.0291,0.04657 -0.05821,0.09313 -0.03493,0.04657 -0.06985,0.09895 -0.0291,0.04657 -0.05821,0.09313 -0.128058,0.192088 -0.244475,0.378354 -0.116416,0.186267 -0.232833,0.372533 -0.110596,0.186267 -0.20955,0.360892 -0.09895,0.174625 -0.180445,0.331787 v 1.775353 h -0.232834 q -0.03492,0 -0.06985,0 -0.0291,-0.0058 -0.05821,-0.01164 0,0 -0.0058,0 0,0 0,0 0,0 -0.0058,0 0,0 0,0 -0.0058,0 -0.01164,0 0,0 -0.0058,0 -0.03493,0.0058 -0.07567,0.01164 -0.03493,0 -0.08149,0 h -0.232834 v -1.693861 0 z"
         id="text6"
         aria-label="Y" />
      <path
         style="font-weight:bold;font-size:5.82083px;line-height:1.25;font-family:'Optima Bold';-inkscape-font-specification:'Optima Bold,  Bold';stroke-width:0.264583"
         d="m 8.984904,30.791991 q 0,-0.0058 0,-0.01164 0,-0.01164 0,-0.0291 0,-0.01164 0,-0.0291 0.00582,-0.01746 0.011642,-0.03493 0,-0.07567 0.00582,-0.168804 0.011642,-0.09895 0.017462,-0.215371 0.011642,-0.116416 0.029104,-0.238654 0.023283,-0.128058 0.058208,-0.256116 0.052388,-0.203729 0.1513416,-0.384175 0.098954,-0.186266 0.2444749,-0.34925 0.1396999,-0.168804 0.3667123,-0.250295 0.2270128,-0.08149 0.5355168,-0.08149 l 0.232833,-0.0058 q 0.28522,0.0058 0.49477,0.09313 0.20955,0.08149 0.34925,0.250296 0.1397,0.168804 0.232833,0.355071 0.09895,0.180445 0.151342,0.384175 0.04075,0.151341 0.06403,0.296862 0.02328,0.145521 0.0291,0.2794 0.0058,0.1397 0.0058,0.244475 0.0058,0.09895 0.0058,0.162983 0,0.06985 -0.01164,0.168804 -0.0058,0.09313 -0.01746,0.215371 -0.01164,0.122237 -0.04075,0.250295 -0.02328,0.128058 -0.06403,0.261938 -0.05821,0.192087 -0.162984,0.372533 -0.09895,0.174625 -0.238654,0.331787 -0.1397,0.162983 -0.349249,0.238654 -0.203729,0.07567 -0.477308,0.07567 h -0.232834 -0.01746 -0.01164 -0.01746 -0.01164 q -0.3492497,0 -0.5995454,-0.128058 Q 9.4738537,32.462569 9.3225122,32.194811 9.1769914,31.932874 9.089679,31.641832 9.0081873,31.34497 8.9907248,31.024824 q 0,-0.01164 0,-0.02328 0,-0.01746 0,-0.03493 -0.00582,-0.01164 -0.00582,-0.02328 0,-0.01746 0,-0.0291 0,-0.01164 0,-0.02328 0,-0.01746 0,-0.03492 0,-0.01164 0,-0.02328 0,-0.01746 0,-0.0291 v -0.01164 z m 0.7392454,0.09895 q 0,0.07567 0,0.151342 0.00582,0.07567 0.011642,0.157162 0,0.04075 0.00582,0.08731 0.00582,0.04075 0.011642,0.08149 0.00582,0.04657 0.011642,0.08731 0.011642,0.04075 0.017463,0.08731 0.034925,0.180446 0.098954,0.34925 0.064029,0.162983 0.1571622,0.314325 0.08149,0.128058 0.186267,0.197908 0.110596,0.06985 0.256116,0.09313 0.180446,-0.02328 0.302683,-0.110596 0.128059,-0.09313 0.203729,-0.250295 0.08731,-0.186267 0.1397,-0.384175 0.05821,-0.203729 0.08149,-0.4191 0.0058,-0.04075 0.0058,-0.08149 0.0058,-0.04075 0.0058,-0.08149 0.0058,-0.03493 0.0058,-0.07567 0,-0.04075 0,-0.08149 0,-0.04075 0,-0.07567 0,-0.04075 0.0058,-0.08149 0,-0.03493 0,-0.06985 0,-0.04075 0,-0.07567 0,-0.378353 -0.05821,-0.692678 -0.05239,-0.314325 -0.157162,-0.5588 -0.09313,-0.215371 -0.221192,-0.331787 -0.122237,-0.122238 -0.2794,-0.151342 -0.256116,0.03492 -0.419099,0.192088 -0.1629837,0.151341 -0.2270128,0.42492 -0.075671,0.291042 -0.1105958,0.617008 -0.034925,0.325967 -0.034925,0.686858 z m 3.1665366,-2.112961 h 2.566986 v 0.227012 q -0.128058,0.215371 -0.261937,0.436563 -0.128058,0.21537 -0.261938,0.436562 -0.06403,0.110596 -0.133879,0.227012 -0.06403,0.110596 -0.128058,0.221192 -0.06985,0.116416 -0.1397,0.227012 -0.06403,0.110596 -0.128058,0.227012 -0.128058,0.215371 -0.256117,0.442384 -0.122237,0.221191 -0.244474,0.442383 -0.06403,0.110595 -0.128059,0.227012 -0.05821,0.110596 -0.122237,0.221191 -0.05821,0.116417 -0.122238,0.227013 -0.05821,0.110596 -0.116416,0.227012 -0.0058,0.01746 -0.01746,0.03493 -0.0058,0.01164 -0.01746,0.02328 -0.0058,0.0058 -0.01164,0.01746 0,0.0058 0,0.01164 -0.0058,0.0058 -0.01164,0.01164 0,0.0058 -0.0058,0.0058 h -0.232833 q -0.03492,0 -0.06985,0 -0.0291,0 -0.05821,0 -0.0291,0 -0.05821,0 -0.02328,0 -0.05239,0 -0.02328,0 -0.05239,0 -0.02328,0 -0.05239,0 -0.02328,0 -0.05821,0 -0.0291,0 -0.05821,0 l 2.054753,-3.428469 -1.82192,0.08149 h -0.232833 q 0.0058,-0.0058 0.0058,-0.01746 0.0058,-0.01746 0.01164,-0.03493 0,-0.01746 0,-0.03492 0.0058,-0.01746 0.01164,-0.03492 0,-0.01164 0,-0.01746 0,-0.0058 0,-0.01746 0,-0.0058 0,-0.01164 0,-0.01164 0,-0.01746 0,-0.01164 0,-0.01746 0,-0.01164 0.0058,-0.01746 0,-0.01164 0,-0.01746 0,-0.01164 0,-0.01746 0,-0.03493 -0.0058,-0.06985 0,-0.03492 -0.0058,-0.06985 -0.0058,-0.03493 -0.01164,-0.06985 0,-0.03493 -0.01164,-0.06985 v -0.01164 h 0.232833 z"
         id="text6-8"
         aria-label="07" />
    </g>
    <path
       style="font-weight:600;font-size:18.3502px;line-height:1.25;font-family:'Noto Serif TC';-inkscape-font-specification:'Noto Serif TC Semi-Bold';letter-spacing:1.96609px;stroke-width:0.327681"
       d="m 55.50114,28.329671 c 0.256902,0 0.458755,-0.09175 0.513805,-0.293604 -0.807409,-0.715657 -2.165324,-1.743269 -2.165324,-1.743269 l -1.192763,1.504717 h -4.6426 c 0.128451,-1.486366 0.146801,-3.046133 0.183502,-4.642601 0.440404,-0.0734 0.605556,-0.256903 0.660607,-0.532156 l -2.605729,-0.256903 c 0,1.890071 0.01835,3.706741 -0.128451,5.43166 H 39.11441 l 0.165152,0.532156 h 6.807925 c -0.422055,4.147145 -1.926771,7.762135 -7.156579,10.753217 l 0.201853,0.293603 c 6.495971,-2.679129 8.25759,-6.44092 8.789746,-10.789918 0.513805,3.65169 1.945121,8.110789 6.569371,10.789918 0.201853,-0.99091 0.770709,-1.486366 1.688219,-1.651518 l 0.0367,-0.201852 c -5.284857,-2.238724 -7.34008,-5.761963 -7.982337,-9.19345 z m 7.709702,0.0367 h 2.220374 c 0.256903,0 0.440405,-0.09175 0.477105,-0.293603 C 65.376165,27.448861 64.403605,26.4763 64.403605,26.4763 l -0.86246,1.357915 H 63.210842 V 23.72377 c 0.495455,-0.05505 0.642257,-0.256903 0.678957,-0.495455 l -2.367176,-0.220203 v 4.826103 h -2.238724 l 0.146801,0.532156 h 2.091923 v 6.128967 c -1.064312,0.348654 -1.945121,0.623907 -2.458927,0.752358 l 0.954211,2.055223 c 0.201852,-0.0734 0.367004,-0.275253 0.422054,-0.513806 2.458927,-1.468016 4.257247,-2.697479 5.45001,-3.523238 l -0.09175,-0.220203 c -0.88081,0.293603 -1.761619,0.605557 -2.587378,0.88081 z m 2.605728,-2.697479 c 0.495455,1.339564 1.027611,3.192934 1.009261,4.734351 1.486366,1.541417 3.156235,-1.81667 -0.770708,-4.826102 z m 7.817186,6.092266 h -2.422227 v -7.285029 h 4.495799 c 0.256903,0 0.440405,-0.09175 0.495456,-0.293604 -0.678958,-0.660607 -1.83502,-1.559767 -1.83502,-1.559767 l -1.027612,1.321215 H 64.93576 l 0.146802,0.532156 h 4.385698 v 7.285029 h -5.138056 l 0.146801,0.532156 h 4.991255 v 7.174928 h 0.293603 c 0.88081,0 1.431316,-0.385354 1.449666,-0.495455 v -6.679473 h 4.917854 c 0.256903,0 0.458755,-0.09175 0.495455,-0.293603 -0.715658,-0.678958 -1.926771,-1.633168 -1.926771,-1.633168 z M 72.22079,30.898699 c 1.009261,-1.101012 2.036872,-2.69748 2.862631,-4.257247 0.403705,0 0.605557,-0.165152 0.697308,-0.385354 L 73.321802,25.48539 c -0.348654,1.816669 -0.89916,3.926942 -1.376265,5.284857 z m 24.059731,-3.65169 c 0.256903,0 0.440405,-0.09175 0.495455,-0.293603 -0.678957,-0.642257 -1.761619,-1.523067 -1.761619,-1.523067 l -0.990911,1.284514 h -1.651518 v -3.596639 c 0.495456,-0.0734 0.623907,-0.256903 0.678958,-0.513806 L 90.68371,22.347505 v 4.367348 h -3.156235 l 0.0367,0.128451 C 86.940269,26.237748 86.022759,25.48539 86.022759,25.48539 l -0.91751,1.247813 h -0.550506 v -3.63334 c 0.495455,-0.0734 0.623907,-0.256902 0.660607,-0.532155 l -2.348826,-0.238553 v 4.404048 H 79.69194 l 0.146801,0.532156 h 2.844281 c -0.568856,2.954382 -1.633168,5.963815 -3.247985,8.184189 l 0.256903,0.220203 c 1.302864,-1.192763 2.348825,-2.569028 3.174584,-4.110445 v 7.762135 h 0.330304 c 0.642257,0 1.357915,-0.348654 1.357915,-0.532156 v -9.835708 c 0.587206,0.84411 1.192763,1.981822 1.302864,2.917682 1.504716,1.302865 3.082834,-1.724918 -1.302864,-3.321386 v -1.284514 h 2.642429 c 0.201852,0 0.348653,-0.05505 0.440404,-0.165152 l 0.0367,0.146802 h 2.477277 c -0.789059,3.358087 -2.348826,6.716173 -4.697651,9.046649 l 0.201852,0.201852 c 2.202024,-1.559767 3.871892,-3.504888 5.027955,-5.761963 v 8.587894 h 0.311953 c 0.642257,0 1.376265,-0.422055 1.376265,-0.623907 V 27.485561 c 0.532156,3.431488 1.596468,6.899676 3.376437,8.881498 0.128452,-0.917511 0.513806,-1.633168 1.302864,-2.146974 l 0.0367,-0.201852 C 95.142808,32.715369 93.47294,30.10964 92.720582,27.247009 Z"
       id="text7"
       aria-label="大坪林" />
    <path
       style="font-weight:bold;font-size:7.79071px;line-height:1.25;font-family:'Optima Bold';-inkscape-font-specification:'Optima Bold,  Bold';stroke-width:0.354123"
       d="m 46.604468,43.567064 h 2.516399 q 0.670001,0.01558 1.129653,0.210349 0.467443,0.186978 0.732327,0.560932 0.264884,0.373954 0.397326,0.818024 0.132442,0.43628 0.132442,0.942676 0,0.124651 -0.01558,0.257093 -0.0078,0.132443 -0.03116,0.280466 -0.02337,0.148024 -0.06233,0.296047 -0.03116,0.140233 -0.0857,0.288256 -0.11686,0.311629 -0.319419,0.607676 -0.194768,0.288256 -0.475233,0.560931 -0.280466,0.264884 -0.693373,0.412907 -0.412908,0.148024 -0.950467,0.163605 h -0.311628 -2.274888 v -5.398962 h 0.311629 v 0 z m 0.740117,0.373954 v 4.658845 q 0.09349,0.01558 0.179186,0.02337 0.09349,0.0078 0.179187,0.01558 0.02337,0 0.03895,0 0.02337,0 0.03895,0 0.02337,0.0078 0.03895,0.0078 0.02337,0 0.03895,0 0.631047,-0.01558 1.09849,-0.155814 0.467443,-0.140233 0.755699,-0.405117 0.303838,-0.280465 0.475233,-0.763489 0.179187,-0.483025 0.21814,-1.160816 0,-0.01558 0,-0.03116 0,-0.01558 0.0078,-0.03116 0,-0.01558 0,-0.03116 0,-0.01558 0,-0.03116 0,-0.03116 0,-0.05454 0,-0.03116 0,-0.06232 0,-0.529769 -0.140233,-0.895932 -0.132442,-0.366163 -0.405117,-0.576512 -0.272675,-0.21035 -0.576512,-0.342792 -0.296047,-0.132442 -0.623257,-0.179186 -0.03895,-0.0078 -0.07791,-0.0078 -0.03895,-0.0078 -0.07791,-0.0078 -0.04674,-0.0078 -0.0857,-0.0078 -0.03895,-0.0078 -0.07791,-0.0078 -0.02337,0 -0.04675,0 -0.02337,-0.0078 -0.03895,-0.0078 -0.02337,0 -0.04674,0 -0.02337,0 -0.04675,0 -0.02337,0 -0.04674,0 -0.02337,0 -0.04674,0 -0.03116,0 -0.05454,0.0078 -0.02337,0 -0.04674,0 -0.0857,0.0078 -0.163605,0.01558 -0.07791,0 -0.148024,0.0078 -0.05454,0.0078 -0.101279,0.01558 -0.04674,0 -0.0857,0 -0.03895,0.0078 -0.07791,0.01558 -0.03116,0 -0.05454,0 z m 4.666633,5.025008 2.454073,-5.461287 h 0.311629 0.179186 l 2.399539,5.461287 h -0.311629 q -0.02337,0 -0.05454,0 -0.02337,0 -0.05454,0 -0.03116,0 -0.06232,0 -0.02337,0 -0.06233,0 -0.01558,0 -0.03895,0 -0.01558,0 -0.03116,-0.0078 -0.01558,0 -0.03895,0 -0.01558,0 -0.03116,0 -0.01558,0.0078 -0.03895,0.0078 -0.01558,0 -0.03116,0 -0.01558,0 -0.03116,0 -0.01558,0 -0.02337,0 -0.01558,0 -0.03116,0 -0.0078,0 -0.02337,0 H 56.179248 L 55.32227,46.81579 h -1.589305 l -0.794653,2.150236 h -0.311628 q -0.01558,0 -0.03895,0 -0.01558,0 -0.03116,0 l -0.03895,-0.0078 q -0.0078,0.0078 -0.02337,0.0078 -0.01558,0 -0.02337,0 -0.01558,0 -0.03116,0 -0.0078,0 -0.02337,0 h -0.311629 q -0.02337,0 -0.04674,0 -0.02337,0 -0.04674,0 v 0 z m 1.908724,-2.516399 h 1.277676 l -0.638838,-1.526979 -0.638838,1.526979 z m 4.41733,-2.882563 h 1.963258 q 0.389536,0.01558 0.677792,0.10128 0.296047,0.07791 0.483024,0.233721 0.186977,0.155814 0.280466,0.389535 0.09349,0.225931 0.09349,0.521978 v 0.02337 l 0.0078,0.03116 v 0.03116 0.03116 q 0,0.358372 -0.116861,0.615466 -0.11686,0.257093 -0.342791,0.436279 -0.22593,0.171396 -0.475233,0.288257 -0.249303,0.11686 -0.521978,0.179186 -0.101279,0.02337 -0.202558,0.03895 -0.09349,0.0078 -0.186977,0.02337 -0.09349,0.0078 -0.186977,0.01558 -0.0857,0 -0.171396,0 l -0.311628,-0.0078 q -0.07012,0.0078 -0.132442,0.0078 -0.06233,0 -0.124652,-0.0078 v 2.446283 H 58.75797 q -0.04674,0 -0.09349,0 -0.03895,-0.0078 -0.07791,-0.01558 0,0 -0.0078,0 0,0 0,0 0,0 -0.0078,0 0,0 0,0 -0.0078,0 -0.01558,0 0,0 -0.0078,0 -0.04675,0.0078 -0.10128,0.01558 -0.04674,0 -0.109069,0 h -0.311629 v -5.398962 h 0.311629 v 0 z m 0.732326,2.578725 h 0.428489 q 0.280466,0.01558 0.498606,-0.07012 0.21814,-0.09349 0.373954,-0.264884 0.155814,-0.179187 0.241512,-0.373954 0.09349,-0.194768 0.11686,-0.412908 0,-0.0078 0,-0.01558 0,-0.0078 0.0078,-0.01558 0,-0.0078 0,-0.01558 0,-0.0078 0,-0.01558 0,-0.01558 0,-0.03116 0,-0.01558 0,-0.03116 0,-0.202559 -0.06233,-0.373954 -0.06233,-0.179187 -0.186978,-0.335001 -0.124651,-0.155814 -0.311628,-0.233721 -0.186977,-0.07791 -0.43628,-0.07791 l 0.311629,-0.0078 h -0.03116 -0.02337 l -0.03116,0.0078 h -0.311628 -0.03116 l -0.553141,-0.0078 v 2.274887 z M 63.1831,43.567064 q 0.03895,0.02337 0.07012,0.03895 0.03895,0.0078 0.0857,0.01558 0.0078,0 0.0078,0 0.0078,0 0.01558,0 0.0078,0 0.0078,0 0.0078,0 0.01558,0 0.04675,-0.0078 0.0857,-0.01558 0.04675,-0.01558 0.07791,-0.02337 l 0.311629,-0.0078 v 5.391171 h -0.311629 q -0.03116,0 -0.07791,0 -0.03895,-0.0078 -0.07791,-0.01558 -0.0078,0 -0.01558,0 0,0 -0.0078,0 -0.0078,0 -0.01558,0 -0.0078,0 -0.01558,0 -0.04674,0.0078 -0.0857,0.01558 -0.03116,0 -0.07012,0 H 62.871472 V 43.567064 H 63.1831 v 0 z m 2.150236,5.398962 v -5.398962 h 0.311629 0.373954 l 3.427912,3.770704 v -3.770704 h 0.311628 q 0.01558,0.02337 0.03895,0.03116 0.02337,0.0078 0.04674,0.01558 0.03116,-0.0078 0.05454,-0.01558 0.02337,-0.0078 0.03895,-0.01558 l 0.311628,-0.0078 v 5.391171 h -0.311628 -0.303838 l -3.498029,-3.887564 v 3.887564 h -0.311628 q -0.0078,0 -0.01558,0 -0.0078,0 -0.01558,0 -0.01558,0 -0.02337,0 -0.0078,-0.0078 -0.01558,-0.0078 -0.01558,0 -0.03116,0 -0.0078,0 -0.02337,0.0078 -0.01558,0 -0.03116,0 -0.0078,0 -0.02337,0 h -0.311629 v 0 z m 6.084542,-2.64105 q 0.03116,-0.615466 0.179187,-1.075118 0.155814,-0.459652 0.428489,-0.755699 0.272675,-0.296047 0.568722,-0.498606 0.303837,-0.202558 0.631047,-0.311628 0.171396,-0.06233 0.335001,-0.101279 0.171395,-0.03895 0.335,-0.06233 0.163605,-0.02337 0.311629,-0.03895 0.155814,-0.01558 0.280465,-0.02337 l 0.311629,-0.0078 q 0.249302,0.0078 0.498605,0.03895 0.257093,0.02337 0.514187,0.07791 0.249303,0.05454 0.498605,0.155814 0.257094,0.09349 0.514187,0.225931 l -0.249303,0.66221 H 76.2637 q -0.03895,-0.01558 -0.0857,-0.04674 -0.04674,-0.03895 -0.09349,-0.0857 -0.04675,-0.04674 -0.101279,-0.09349 -0.04674,-0.04674 -0.10907,-0.09349 -0.10907,-0.0857 -0.249303,-0.163605 -0.140233,-0.07791 -0.303838,-0.148023 -0.132442,-0.06233 -0.303838,-0.09349 -0.163604,-0.03895 -0.358372,-0.04674 -0.03895,0 -0.0857,0.0078 -0.03895,0 -0.0857,0.0078 -0.07791,0.0078 -0.163605,0.02337 -0.07791,0.01558 -0.163605,0.03895 -0.288256,0.07791 -0.560931,0.249303 -0.264884,0.163605 -0.514187,0.420698 -0.241512,0.257094 -0.381744,0.631048 -0.140233,0.373954 -0.179187,0.88035 v 0.02337 0.03116 0.03116 0.03116 q -0.0078,0.576512 0.148024,1.043955 0.155814,0.467442 0.467442,0.825815 0.296047,0.335001 0.670001,0.514187 0.381745,0.171396 0.849188,0.194768 0.155814,-0.0078 0.296047,-0.02337 0.148023,-0.02337 0.288256,-0.05454 0.179186,-0.03895 0.303838,-0.09349 0.132442,-0.06233 0.22593,-0.132442 v -2.041166 h 0.311629 q 0.01558,0.01558 0.03116,0.02337 0.01558,0 0.03895,0.0078 0.01558,0.0078 0.03116,0.01558 0.01558,0 0.03116,0 0.0078,0 0.0078,0 0.0078,0 0.01558,0 0.0078,0.0078 0.0078,0.0078 0.0078,0 0.01558,0 0,0 0,0 0,0 0.0078,0 0,0 0,0 0,0 0,0 0.03895,-0.0078 0.0857,-0.01558 0.04674,-0.01558 0.09349,-0.02337 l 0.311629,-0.0078 v 2.267096 l -0.02337,0.02337 -0.02337,0.0078 q -0.03895,0.02337 -0.09349,0.03895 -0.04675,0.01558 -0.10128,0.03116 -0.05453,0.02337 -0.11686,0.03895 -0.06233,0.01558 -0.132442,0.03116 -0.140233,0.03116 -0.280466,0.05454 -0.140233,0.02337 -0.296047,0.03895 -0.140233,0.02337 -0.272675,0.03895 -0.124651,0.02337 -0.257093,0.03116 -0.124651,0.01558 -0.233721,0.02337 -0.10907,0.0078 -0.194768,0.0078 h -0.311628 q -0.01558,0 -0.03895,0 -0.01558,0 -0.03116,0 -0.01558,0 -0.03895,0 -0.01558,0 -0.03116,0 -0.662211,0 -1.184188,-0.179187 -0.521978,-0.179186 -0.911513,-0.560931 -0.381745,-0.373954 -0.576513,-0.872559 -0.194768,-0.506396 -0.194768,-1.137444 v -0.01558 z m 6.637683,2.64105 v -5.398962 h 0.311629 q 0.03116,0.02337 0.07012,0.03895 0.03895,0.0078 0.0857,0.01558 0,0 0,0 0.0078,0 0.01558,0 0.0078,0 0.0078,0 0.0078,0 0.0078,0 0.0078,0 0.0078,0 0.0078,0 0.01558,0 0,0 0,0 0.0078,0 0.01558,0 0.03895,-0.0078 0.07012,-0.01558 0.03895,-0.01558 0.06233,-0.02337 l 0.311629,-0.0078 v 4.962682 q 0.05453,0.01558 0.11686,0.02337 0.06233,0.0078 0.132442,0.0078 0.06233,0.0078 0.124652,0.0078 0.06233,0 0.132442,0 0.03895,0 0.07012,0 0.03116,0 0.06233,-0.0078 0.03116,0 0.06233,0 0.03895,0 0.07012,0 0.155814,-0.0078 0.303838,-0.01558 0.148023,-0.0078 0.296047,-0.01558 0.140232,-0.01558 0.257093,-0.02337 0.116861,-0.01558 0.210349,-0.02337 l 0.311629,-0.0078 q -0.0078,0.03116 -0.01558,0.05454 -0.0078,0.02337 -0.0078,0.04675 -0.0078,0.02337 -0.0078,0.04674 0,0.02337 0,0.03895 0,0.02337 0,0.04675 0,0.02337 0,0.03895 0,0.02337 0,0.04674 0.0078,0.01558 0.01558,0.03116 0,0.0078 0,0.02337 0,0.0078 0.0078,0.02337 0,0.0078 0,0.02337 0,0.0078 0,0.01558 l 0.0078,0.04674 h -0.311629 -2.820237 v 0 z m 4.604315,-5.398962 q 0.03895,0.02337 0.07012,0.03895 0.03895,0.0078 0.0857,0.01558 0.0078,0 0.0078,0 0.0078,0 0.01558,0 0.0078,0 0.0078,0 0.0078,0 0.01558,0 0.04674,-0.0078 0.0857,-0.01558 0.04675,-0.01558 0.07791,-0.02337 l 0.311628,-0.0078 v 5.391171 H 83.02604 q -0.03116,0 -0.07791,0 -0.03895,-0.0078 -0.07791,-0.01558 -0.0078,0 -0.01558,0 0,0 -0.0078,0 -0.0078,0 -0.01558,0 -0.0078,0 -0.01558,0 -0.04674,0.0078 -0.0857,0.01558 -0.03116,0 -0.07012,0 h -0.311628 v -5.398962 h 0.311628 v 0 z m 2.150236,5.398962 v -5.398962 h 0.311629 0.373954 l 3.427912,3.770704 v -3.770704 h 0.311628 q 0.01558,0.02337 0.03895,0.03116 0.02337,0.0078 0.04674,0.01558 0.03116,-0.0078 0.05454,-0.01558 0.02337,-0.0078 0.03895,-0.01558 l 0.311628,-0.0078 v 5.391171 h -0.311628 -0.303838 l -3.498029,-3.887564 v 3.887564 h -0.311628 q -0.0078,0 -0.01558,0 -0.0078,0 -0.01558,0 -0.01558,0 -0.02337,0 -0.0078,-0.0078 -0.01558,-0.0078 -0.01558,0 -0.03116,0 -0.0078,0 -0.02337,0.0078 -0.01558,0 -0.03116,0 -0.0078,0 -0.02337,0 h -0.311629 v 0 z"
       id="text8"
       aria-label="DAPINGLIN" />
  </g>
</svg>
