<?xml version="1.0" encoding="UTF-8" standalone="no"?>
<!-- Created with Inkscape (http://www.inkscape.org/) -->

<svg
   width="500"
   height="250"
   viewBox="0 0 132.29166 66.145833"
   version="1.1"
   id="svg1"
   inkscape:version="1.3.2 (091e20e, 2023-11-25, custom)"
   sodipodi:docname="y08.svg"
   xmlns:inkscape="http://www.inkscape.org/namespaces/inkscape"
   xmlns:sodipodi="http://sodipodi.sourceforge.net/DTD/sodipodi-0.dtd"
   xmlns="http://www.w3.org/2000/svg"
   xmlns:svg="http://www.w3.org/2000/svg">
  <sodipodi:namedview
     id="namedview1"
     pagecolor="#9e652e"
     bordercolor="#ffffff"
     borderopacity="1"
     inkscape:showpageshadow="0"
     inkscape:pageopacity="0"
     inkscape:pagecheckerboard="false"
     inkscape:deskcolor="#d1d1d1"
     inkscape:document-units="mm"
     inkscape:zoom="2.0208096"
     inkscape:cx="276.12695"
     inkscape:cy="127.17675"
     inkscape:window-width="1920"
     inkscape:window-height="1009"
     inkscape:window-x="1912"
     inkscape:window-y="-8"
     inkscape:window-maximized="1"
     inkscape:current-layer="layer1" />
  <defs
     id="defs1">
    <rect
       x="157.85752"
       y="62.351248"
       width="329.07603"
       height="135.09437"
       id="rect4" />
  </defs>
  <g
     inkscape:label="Layer 1"
     inkscape:groupmode="layer"
     id="layer1">
    <path
       id="rect5"
       style="fill:#ffffff;stroke-width:0.953294"
       d="M -2.5431316e-6,-1.2715658e-6 H 132.29167 V 66.145835 H -2.5431316e-6 Z" />
    <g
       id="g1"
       transform="matrix(1.121508,0,0,1.121508,12.601536,-3.0133416)">
      <path
         id="rect6"
         style="fill:none;stroke:#000000;stroke-width:0.575409"
         d="m 9.3009131,19.849001 h 5.7010479 c 1.810115,0 3.267355,1.45724 3.267355,3.267355 v 9.524719 c 0,1.810115 -1.45724,3.267355 -3.267355,3.267355 H 9.3009131 c -1.8101145,0 -3.2673547,-1.45724 -3.2673547,-3.267355 v -9.524719 c 0,-1.810115 1.4572402,-3.267355 3.2673547,-3.267355 z" />
      <path
         style="font-weight:bold;font-size:5.82083px;line-height:1.25;font-family:'Optima Bold';-inkscape-font-specification:'Optima Bold,  Bold';stroke-width:0.264583"
         d="m 11.768055,25.2551 -1.420282,-2.293407 h 0.232833 q 0.04657,0.01746 0.09313,0.0291 0.05239,0.0058 0.09313,0.01164 0.01164,0 0.01746,0 0.01164,0 0.01746,0 0,0 0,0 0.0058,0 0.0058,0 0,0 0,0 0.0058,0 0.0058,0 0.0291,0 0.05239,0 0.0291,0 0.05239,-0.0058 0.0291,-0.0058 0.05821,-0.01164 0.0291,-0.0058 0.05821,-0.01164 l 0.232833,-0.0058 0.98372,1.711324 0.937154,-1.717145 h 0.232833 q 0.0291,0.01746 0.05821,0.0291 0.03492,0.0058 0.06403,0.01164 0.0058,0 0.01164,0 0.01164,0 0.01746,0 0.0058,0 0.01164,0 0.01164,-0.0058 0.01746,-0.0058 0.02328,-0.0058 0.04657,-0.01164 0.02328,-0.0058 0.04657,-0.01164 l 0.232833,-0.0058 q -0.03492,0.05239 -0.06985,0.09895 -0.0291,0.04657 -0.05821,0.09313 -0.03492,0.04657 -0.06985,0.09313 -0.0291,0.04657 -0.05821,0.09313 -0.03492,0.04657 -0.06985,0.09895 -0.0291,0.04657 -0.05821,0.09313 -0.03493,0.04657 -0.06985,0.09895 -0.0291,0.04657 -0.05821,0.09313 -0.128058,0.192088 -0.244475,0.378354 -0.116416,0.186267 -0.232833,0.372533 -0.110596,0.186267 -0.20955,0.360892 -0.09895,0.174625 -0.180445,0.331787 v 1.775353 h -0.232834 q -0.03492,0 -0.06985,0 -0.0291,-0.0058 -0.05821,-0.01164 0,0 -0.0058,0 0,0 0,0 0,0 -0.0058,0 0,0 0,0 -0.0058,0 -0.01164,0 0,0 -0.0058,0 -0.03493,0.0058 -0.07567,0.01164 -0.03493,0 -0.08149,0 h -0.232834 v -1.693861 0 z"
         id="text6"
         aria-label="Y" />
      <path
         style="font-weight:bold;font-size:5.82083px;line-height:1.25;font-family:'Optima Bold';-inkscape-font-specification:'Optima Bold,  Bold';stroke-width:0.264583"
         d="m 8.984904,30.791991 q 0,-0.0058 0,-0.01164 0,-0.01164 0,-0.0291 0,-0.01164 0,-0.0291 0.00582,-0.01746 0.011642,-0.03493 0,-0.07567 0.00582,-0.168804 0.011642,-0.09895 0.017462,-0.215371 0.011642,-0.116416 0.029104,-0.238654 0.023283,-0.128058 0.058208,-0.256116 0.052388,-0.203729 0.1513416,-0.384175 0.098954,-0.186266 0.2444749,-0.34925 0.1396999,-0.168804 0.3667123,-0.250295 0.2270128,-0.08149 0.5355168,-0.08149 l 0.232833,-0.0058 q 0.28522,0.0058 0.49477,0.09313 0.20955,0.08149 0.34925,0.250296 0.1397,0.168804 0.232833,0.355071 0.09895,0.180445 0.151342,0.384175 0.04075,0.151341 0.06403,0.296862 0.02328,0.145521 0.0291,0.2794 0.0058,0.1397 0.0058,0.244475 0.0058,0.09895 0.0058,0.162983 0,0.06985 -0.01164,0.168804 -0.0058,0.09313 -0.01746,0.215371 -0.01164,0.122237 -0.04075,0.250295 -0.02328,0.128058 -0.06403,0.261938 -0.05821,0.192087 -0.162984,0.372533 -0.09895,0.174625 -0.238654,0.331787 -0.1397,0.162983 -0.349249,0.238654 -0.203729,0.07567 -0.477308,0.07567 h -0.232834 -0.01746 -0.01164 -0.01746 -0.01164 q -0.3492497,0 -0.5995454,-0.128058 Q 9.4738537,32.462569 9.3225122,32.194811 9.1769914,31.932874 9.089679,31.641832 9.0081873,31.34497 8.9907248,31.024824 q 0,-0.01164 0,-0.02328 0,-0.01746 0,-0.03493 -0.00582,-0.01164 -0.00582,-0.02328 0,-0.01746 0,-0.0291 0,-0.01164 0,-0.02328 0,-0.01746 0,-0.03492 0,-0.01164 0,-0.02328 0,-0.01746 0,-0.0291 v -0.01164 z m 0.7392454,0.09895 q 0,0.07567 0,0.151342 0.00582,0.07567 0.011642,0.157162 0,0.04075 0.00582,0.08731 0.00582,0.04075 0.011642,0.08149 0.00582,0.04657 0.011642,0.08731 0.011642,0.04075 0.017463,0.08731 0.034925,0.180446 0.098954,0.34925 0.064029,0.162983 0.1571622,0.314325 0.08149,0.128058 0.186267,0.197908 0.110596,0.06985 0.256116,0.09313 0.180446,-0.02328 0.302683,-0.110596 0.128059,-0.09313 0.203729,-0.250295 0.08731,-0.186267 0.1397,-0.384175 0.05821,-0.203729 0.08149,-0.4191 0.0058,-0.04075 0.0058,-0.08149 0.0058,-0.04075 0.0058,-0.08149 0.0058,-0.03493 0.0058,-0.07567 0,-0.04075 0,-0.08149 0,-0.04075 0,-0.07567 0,-0.04075 0.0058,-0.08149 0,-0.03493 0,-0.06985 0,-0.04075 0,-0.07567 0,-0.378353 -0.05821,-0.692678 -0.05239,-0.314325 -0.157162,-0.5588 -0.09313,-0.215371 -0.221192,-0.331787 -0.122237,-0.122238 -0.2794,-0.151342 -0.256116,0.03492 -0.419099,0.192088 -0.1629837,0.151341 -0.2270128,0.42492 -0.075671,0.291042 -0.1105958,0.617008 -0.034925,0.325967 -0.034925,0.686858 z m 3.6671286,-0.4191 q -0.157163,-0.02328 -0.2794,-0.09313 -0.116417,-0.07567 -0.203729,-0.192087 -0.08731,-0.116417 -0.128059,-0.244475 -0.04074,-0.133879 -0.04074,-0.273579 v -0.0291 -0.02328 q 0.01164,-0.162983 0.08149,-0.308504 0.06985,-0.151341 0.20955,-0.291041 0.1397,-0.133879 0.355071,-0.203729 0.21537,-0.06985 0.506412,-0.06985 l 0.232833,-0.0058 q 0.2794,0.0058 0.483129,0.07567 0.20955,0.06985 0.34925,0.20955 0.133879,0.1397 0.203729,0.291041 0.06985,0.145521 0.07567,0.314325 v 0.0058 0.0058 q 0,0.145521 -0.04657,0.273579 -0.04657,0.128058 -0.133879,0.250295 -0.08731,0.122238 -0.221192,0.20373 -0.128058,0.07567 -0.296862,0.116416 0.227012,0.02328 0.395816,0.110596 0.174625,0.08149 0.285221,0.232833 0.110596,0.145521 0.162983,0.314325 0.05821,0.162983 0.06403,0.343429 0,0.01746 0,0.03492 0,0.01164 0,0.02328 0,0.0058 0,0.01164 0,0.0058 0,0.01164 -0.0058,0.01164 -0.0058,0.01746 0,0.0058 0,0.01164 -0.01746,0.21537 -0.110596,0.407458 -0.08731,0.192087 -0.256117,0.366712 -0.162983,0.174625 -0.395816,0.261937 -0.232833,0.08149 -0.535516,0.08731 h -0.232834 -0.03492 -0.02328 q -0.355071,-0.0058 -0.611187,-0.09313 -0.250296,-0.08731 -0.407458,-0.256117 -0.157163,-0.168804 -0.238654,-0.355071 -0.07567,-0.186266 -0.07567,-0.389995 v -0.01746 -0.01164 q 0,-0.180446 0.05821,-0.355071 0.06403,-0.180446 0.180446,-0.343429 0.116417,-0.168804 0.273579,-0.267758 0.162983,-0.104775 0.360892,-0.145521 v -0.01164 z m -0.08731,1.100137 q 0.01746,0.232833 0.06985,0.407458 0.05821,0.168804 0.151342,0.285221 0.08149,0.09895 0.197908,0.157162 0.116416,0.05821 0.273579,0.07567 0.128058,-0.01164 0.221191,-0.06403 0.09896,-0.05821 0.168804,-0.151341 0.08149,-0.110596 0.13388,-0.232834 0.05821,-0.122237 0.08149,-0.250295 0,-0.01746 0,-0.03493 0.0058,-0.01746 0.01164,-0.03493 0,-0.01164 0,-0.0291 0.0058,-0.01746 0.0058,-0.03492 0,-0.01746 0,-0.02911 0,-0.01746 0.0058,-0.03493 0,-0.01164 0,-0.0291 0,-0.01746 0,-0.03492 0,-0.01164 0,-0.02328 0,-0.01164 0,-0.02328 -0.0058,-0.01164 -0.0058,-0.02328 0,-0.01164 0,-0.02328 0,-0.01164 0,-0.02328 0,-0.01164 0,-0.02328 -0.0058,-0.01164 -0.0058,-0.02328 0,-0.01164 0,-0.02328 -0.01746,-0.133879 -0.06403,-0.261938 -0.04657,-0.128058 -0.128059,-0.238654 -0.06985,-0.09895 -0.186266,-0.151341 -0.110596,-0.05239 -0.261937,-0.06985 -0.122238,0.01164 -0.221192,0.06403 -0.09313,0.04657 -0.168804,0.128058 -0.08731,0.09313 -0.145521,0.203729 -0.05821,0.104775 -0.08731,0.221192 -0.01164,0.04075 -0.02328,0.08731 -0.0058,0.04075 -0.01164,0.08731 -0.0058,0.04075 -0.01164,0.08149 0,0.04075 0,0.07567 z m 0.180446,-1.880128 q 0,0.162983 0.04075,0.291042 0.04074,0.122237 0.122237,0.221191 0.06985,0.08149 0.162983,0.128059 0.09313,0.04657 0.20955,0.05821 0.09895,-0.01746 0.180446,-0.06985 0.08149,-0.05239 0.1397,-0.1397 0.06985,-0.104775 0.104775,-0.227012 0.04075,-0.122238 0.04075,-0.250296 0,-0.133879 -0.04075,-0.261937 -0.03493,-0.128059 -0.116417,-0.238654 -0.06403,-0.09313 -0.157162,-0.145521 -0.08731,-0.05821 -0.203729,-0.07567 -0.110596,0.01746 -0.197909,0.07567 -0.08149,0.05239 -0.139699,0.145521 -0.07567,0.110595 -0.110596,0.238654 -0.03492,0.122237 -0.03492,0.256116 z"
         id="text6-8"
         aria-label="08" />
    </g>
    <g
       id="g2">
      <path
         style="font-weight:600;font-size:18.3502px;line-height:1.25;font-family:'Noto Serif TC';-inkscape-font-specification:'Noto Serif TC Semi-Bold';letter-spacing:1.96609px;stroke-width:0.327681"
         d="m 50.903374,26.51843 h -4.293947 v -5.890415 c 0.550506,-0.09175 0.715657,-0.293603 0.752358,-0.605556 l -2.642429,-0.256903 v 6.752874 h -7.486882 l 0.165152,0.532155 h 7.32173 v 9.597155 h 0.348654 c 0.752358,0 1.541417,-0.458755 1.541417,-0.678957 v -8.918198 h 7.119878 c 0.275253,0 0.458755,-0.09175 0.513805,-0.293603 -0.789058,-0.734008 -2.146973,-1.83502 -2.146973,-1.83502 z m 9.434621,7.046477 V 21.98593 h 2.972732 c -0.01835,4.055394 -0.01835,7.211629 -2.624079,9.597155 l 0.238553,0.275253 c 3.725091,-2.202024 3.945293,-5.45001 4.037044,-9.872408 h 2.165324 v 7.193279 c 0,1.045961 0.220202,1.412965 1.541417,1.412965 h 1.192763 c 0.825759,0 1.431315,-0.0367 1.83502,-0.128451 v 3.101184 z M 71.696769,21.98593 v 6.991427 h -0.0367 c -0.128451,0.0367 -0.275253,0.0734 -0.403704,0.09175 -0.09175,0 -0.238553,0 -0.348654,0.01835 -0.165152,0 -0.532156,0.01835 -0.862459,0.01835 h -0.91751 c -0.403705,0 -0.458755,-0.110101 -0.458755,-0.367004 v -6.679473 -0.0734 z m 0.697307,-1.541417 -0.880809,1.009261 H 60.484796 l -1.85337,-0.807409 V 36.62939 h 0.311953 c 0.715658,0 1.394616,-0.422054 1.394616,-0.642257 v -1.89007 h 11.358774 v 2.183673 h 0.256903 c 0.623906,0 1.431315,-0.422054 1.449665,-0.568856 V 22.279533 c 0.385355,-0.0734 0.660608,-0.238552 0.789059,-0.385354 z m 9.691524,8.459443 h -2.238724 c 0.146801,-1.027611 0.293603,-2.422227 0.385354,-3.449838 h 2.220374 v 0.91751 h 0.256903 c 0.513806,0 1.302864,-0.293603 1.321214,-0.422055 v -4.220546 c 0.385355,-0.0734 0.660608,-0.238552 0.789059,-0.385354 l -1.743269,-1.339565 -0.807409,0.89916 h -4.147145 l 0.165152,0.532156 h 4.165495 v 3.486538 h -1.79832 l -1.83502,-0.734008 c -0.0367,1.156063 -0.238552,3.284686 -0.422054,4.55085 -0.238553,0.110101 -0.495456,0.256903 -0.660607,0.403704 l 1.578117,1.027612 0.605556,-0.734008 h 2.348826 c -0.146802,3.082833 -0.440405,4.936204 -0.88081,5.321558 -0.146801,0.146801 -0.311953,0.183502 -0.605556,0.183502 -0.367004,0 -1.578117,-0.09175 -2.312125,-0.146802 l -0.01835,0.275253 c 0.697308,0.128452 1.376265,0.330304 1.651518,0.587207 0.275253,0.220202 0.348654,0.623906 0.348654,1.082661 0.88081,0 1.541417,-0.201852 2.036873,-0.623906 0.807408,-0.678958 1.192763,-2.67913 1.357914,-6.440921 0.385355,-0.05505 0.605557,-0.146801 0.734008,-0.293603 l -1.614817,-1.357915 z m 10.496315,0.311953 c -0.458755,0.660607 -1.284514,1.651518 -2.018522,2.440577 -0.587207,-0.770709 -1.045962,-1.633168 -1.376265,-2.605729 h 5.248157 c 0.256903,0 0.440405,-0.09175 0.495456,-0.293603 -0.678958,-0.623907 -1.77997,-1.468016 -1.77997,-1.468016 L 92.17821,28.536952 H 87.682411 V 26.57348 h 5.321558 c 0.256903,0 0.440405,-0.09175 0.495456,-0.293603 -0.642257,-0.605557 -1.706569,-1.394615 -1.706569,-1.394615 l -0.91751,1.156062 h -3.192935 v -2.055222 h 5.284858 c 0.256903,0 0.440405,-0.09175 0.495455,-0.293603 -0.642257,-0.587207 -1.706568,-1.376265 -1.706568,-1.376265 l -0.91751,1.137712 h -3.156235 v -2.000172 h 5.872065 c 0.275253,0 0.458755,-0.09175 0.495455,-0.293603 -0.697308,-0.623907 -1.83502,-1.468016 -1.83502,-1.468016 L 91.24235,20.921618 H 87.976015 L 85.975843,20.11421 v 8.422742 h -1.743269 l 0.146801,0.513805 h 1.247814 v 4.862804 c 0,0.348653 -0.110101,0.495455 -0.825759,0.880809 l 1.082662,1.963472 c 0.165151,-0.09175 0.367004,-0.293604 0.513805,-0.568857 1.633168,-0.899159 3.027783,-1.779969 3.816842,-2.257074 l -0.05505,-0.238553 c -1.009261,0.220203 -1.981821,0.440405 -2.862631,0.623907 v -5.266508 h 1.541417 c 0.697308,3.706741 2.073573,6.055567 4.881153,7.395131 0.165152,-0.862459 0.678958,-1.394615 1.302865,-1.578117 l 0.0367,-0.201852 c -1.688219,-0.440405 -3.119534,-1.357915 -4.165496,-2.605729 1.082662,-0.477105 2.403877,-1.064311 3.119535,-1.486366 0.293603,0.09175 0.477105,0.05505 0.587206,-0.09175 z"
         id="text7"
         aria-label="十四張" />
      <path
         style="font-weight:bold;font-size:7.79071px;line-height:1.25;font-family:'Optima Bold';-inkscape-font-specification:'Optima Bold,  Bold';stroke-width:0.354123"
         d="m 41.912837,42.160996 q 0.04674,-0.335 0.186977,-0.576512 0.140232,-0.249303 0.358372,-0.405117 0.225931,-0.155814 0.459652,-0.241512 0.233721,-0.09349 0.490815,-0.116861 0.02337,0 0.04674,0 0.02337,0 0.04674,0 0.01558,0 0.02337,0 0.01558,0 0.03116,-0.0078 0.0078,0 0.02337,0 0.01558,0 0.02337,0 l 0.311628,-0.0078 q 0.194768,0.0078 0.373954,0.03895 0.179186,0.03116 0.350582,0.09349 0.163605,0.05454 0.280466,0.140233 0.11686,0.07791 0.186977,0.171395 -0.04675,0.04675 -0.07791,0.10128 -0.03116,0.04674 -0.05453,0.10907 -0.02337,0.06233 -0.04675,0.148023 -0.02337,0.07791 -0.04674,0.171396 l -0.0078,0.03116 -0.0078,0.04674 h -0.311629 l -0.124651,-0.0078 q -0.0078,-0.01558 -0.02337,-0.03895 -0.0078,-0.03116 -0.02337,-0.06233 -0.01558,-0.03895 -0.03895,-0.07012 -0.01558,-0.03895 -0.03895,-0.07012 -0.05453,-0.07791 -0.140232,-0.148023 -0.07791,-0.07012 -0.186977,-0.132442 -0.07791,-0.04675 -0.163605,-0.07791 -0.0857,-0.03116 -0.186977,-0.03895 -0.132442,0.01558 -0.257094,0.0857 -0.11686,0.07012 -0.22593,0.179186 -0.140233,0.140233 -0.210349,0.303838 -0.06233,0.163605 -0.06233,0.342791 0,0.01558 0,0.03895 0,0.01558 0,0.03116 0,0.0078 0,0.01558 0,0.0078 0.0078,0.01558 0,0.0078 0,0.01558 0,0.0078 0,0.01558 0.01558,0.101279 0.06233,0.210349 0.05454,0.101279 0.132442,0.210349 0.0857,0.10128 0.202559,0.194768 0.124651,0.0857 0.296047,0.163605 l 0.864769,0.350582 q 0.233721,0.10907 0.405116,0.249303 0.171396,0.140232 0.272675,0.311628 0.10907,0.171396 0.155815,0.358373 0.05453,0.179186 0.05453,0.366163 0,0.02337 0,0.04674 0,0.01558 0,0.03116 0,0.0078 0,0.01558 0,0.0078 0,0.01558 -0.0078,0.01558 -0.0078,0.02337 0,0.0078 0,0.01558 -0.03116,0.311628 -0.179187,0.592094 -0.140232,0.280465 -0.397326,0.537559 -0.257093,0.257093 -0.576512,0.381744 -0.311629,0.124652 -0.701164,0.124652 h -0.311629 -0.03895 -0.03116 q -0.01558,0 -0.03116,0 -0.01558,0 -0.03116,0 -0.01558,-0.0078 -0.03116,-0.0078 -0.01558,0 -0.03116,0 -0.01558,0 -0.03116,0 -0.01558,0 -0.03116,-0.0078 -0.02337,0 -0.03895,-0.0078 -0.01558,0 -0.03116,0 -0.148024,-0.02337 -0.296047,-0.07012 -0.140233,-0.03895 -0.280466,-0.09349 -0.140233,-0.06233 -0.249303,-0.124652 -0.101279,-0.07012 -0.186977,-0.140233 l -0.01558,-0.01558 -0.0078,-0.01558 q 0.03116,-0.07012 0.05454,-0.140233 0.02337,-0.07012 0.03116,-0.124651 0.0078,-0.03116 0.0078,-0.05454 0.0078,-0.03116 0.0078,-0.06233 0.0078,-0.02337 0.0078,-0.04674 0.0078,-0.03116 0.0078,-0.06233 0,-0.01558 0,-0.02337 0,-0.01558 0.0078,-0.03116 0,-0.01558 0,-0.03116 0,-0.01558 0,-0.03116 0,-0.03116 0,-0.06233 0,-0.03116 0,-0.06233 l 0.124651,-0.01558 h 0.311628 q 0.202559,0.311629 0.373954,0.490815 0.179187,0.179187 0.32721,0.225931 0.10907,0.03116 0.202559,0.05454 0.09349,0.02337 0.171395,0.03895 0.202559,-0.02337 0.350582,-0.101279 0.155814,-0.07791 0.264884,-0.210349 0.132442,-0.163605 0.194768,-0.342791 0.07012,-0.179187 0.07791,-0.373954 0,-0.155815 -0.04674,-0.296047 -0.03895,-0.148024 -0.124651,-0.288257 -0.07791,-0.140232 -0.21035,-0.241512 -0.124651,-0.101279 -0.296047,-0.163605 l -0.802443,-0.381744 q -0.342791,-0.148024 -0.545349,-0.319419 -0.194768,-0.171396 -0.257094,-0.358373 -0.05454,-0.186977 -0.0857,-0.381745 -0.03116,-0.194768 -0.03116,-0.397326 v -0.01558 z m 4.425128,4.16803 v -5.461287 h 0.311628 q 0.02337,0.01558 0.05453,0.03116 0.03116,0.0078 0.06233,0.01558 0.0078,0 0.01558,0.0078 0.01558,0 0.02337,0 0.0078,0 0.01558,0 0.01558,0 0.02337,0 0,0 0,0 0.0078,0 0.01558,0 0.0078,0 0.0078,0 0.0078,0 0.0078,0 0.03895,-0.0078 0.07012,-0.01558 0.03895,-0.01558 0.06233,-0.02337 l 0.311628,-0.0078 v 2.267097 q 0.10907,0.03116 0.280466,0.04674 0.171395,0.01558 0.405117,0.03116 0.210349,0.0078 0.428489,0.01558 0.22593,0.0078 0.451861,0.0078 0.202558,0 0.389535,0 0.194768,-0.0078 0.381745,-0.01558 0.225931,-0.01558 0.397326,-0.03116 0.171396,-0.01558 0.272675,-0.03895 v -2.290468 h 0.311629 q 0.0078,0.01558 0.01558,0.02337 0.0078,0 0.01558,0 0,0.0078 0.0078,0.0078 0.0078,0 0.01558,0 0.01558,0.0078 0.03116,0.0078 0.01558,0 0.03116,0 0.0078,0 0.01558,0.0078 0.0078,0 0.01558,0 0.0078,0.0078 0.01558,0.0078 0.0078,0 0.01558,0 0.0078,0 0.0078,0 0.0078,0 0.01558,0 0.03895,-0.0078 0.07791,-0.01558 0.04674,-0.01558 0.07791,-0.02337 l 0.311629,-0.0078 v 5.453497 h -0.311629 q -0.03116,0 -0.07012,0 -0.03116,-0.0078 -0.07012,-0.01558 0,0 -0.0078,0 0,0 0,0 0,0 -0.0078,0 0,0 0,0 0,0 -0.0078,0 0,0 -0.0078,0 -0.04675,0.0078 -0.09349,0.01558 -0.04674,0 -0.09349,0 H 50.326785 V 43.63348 q -0.05454,0 -0.132442,0 -0.07012,-0.0078 -0.155814,-0.01558 -0.0857,0 -0.186977,0 -0.09349,-0.0078 -0.202559,-0.01558 -0.171395,-0.01558 -0.358372,-0.01558 -0.186977,-0.0078 -0.389536,-0.0078 -0.03895,0 -0.07791,0 -0.03895,0 -0.07012,0 -0.03895,0.0078 -0.07791,0.0078 -0.03116,0 -0.07012,0 -0.04674,0 -0.09349,0 -0.04675,0 -0.09349,0 -0.05454,0.0078 -0.101279,0.0078 -0.04674,0 -0.09349,0 -0.05453,0 -0.11686,0.0078 -0.05454,0 -0.10907,0 -0.06233,0.0078 -0.116861,0.01558 -0.05454,0 -0.11686,0 -0.116861,0.0078 -0.225931,0.01558 -0.10907,0 -0.21814,0.01558 v 2.680004 h -0.311628 q -0.04674,0 -0.0857,0 -0.03116,-0.0078 -0.07012,-0.01558 -0.04674,0.0078 -0.09349,0.01558 -0.04674,0 -0.10907,0 h -0.311628 v 0 z m 6.816868,-5.398962 q 0.03895,0.02337 0.07012,0.03895 0.03895,0.0078 0.0857,0.01558 0.0078,0 0.0078,0 0.0078,0 0.01558,0 0.0078,0 0.0078,0 0.0078,0 0.01558,0 0.04674,-0.0078 0.0857,-0.01558 0.04674,-0.01558 0.07791,-0.02337 l 0.311628,-0.0078 v 5.391171 h -0.311628 q -0.03116,0 -0.07791,0 -0.03895,-0.0078 -0.07791,-0.01558 -0.0078,0 -0.01558,0 0,0 -0.0078,0 -0.0078,0 -0.01558,0 -0.0078,0 -0.01558,0 -0.04674,0.0078 -0.0857,0.01558 -0.03116,0 -0.07012,0 h -0.311628 v -5.398962 h 0.311628 v 0 z m 1.846399,1.230932 q 0.04674,-0.335 0.186977,-0.576512 0.140232,-0.249303 0.358372,-0.405117 0.225931,-0.155814 0.459652,-0.241512 0.233722,-0.09349 0.490815,-0.116861 0.02337,0 0.04674,0 0.02337,0 0.04674,0 0.01558,0 0.02337,0 0.01558,0 0.03116,-0.0078 0.0078,0 0.02337,0 0.01558,0 0.02337,0 l 0.311628,-0.0078 q 0.194768,0.0078 0.373954,0.03895 0.179187,0.03116 0.350582,0.09349 0.163605,0.05454 0.280466,0.140233 0.11686,0.07791 0.186977,0.171395 -0.04675,0.04675 -0.07791,0.10128 -0.03116,0.04674 -0.05454,0.10907 -0.02337,0.06233 -0.04675,0.148023 -0.02337,0.07791 -0.04674,0.171396 l -0.0078,0.03116 -0.0078,0.04674 h -0.311629 l -0.124651,-0.0078 q -0.0078,-0.01558 -0.02337,-0.03895 -0.0078,-0.03116 -0.02337,-0.06233 -0.01558,-0.03895 -0.03895,-0.07012 -0.01558,-0.03895 -0.03895,-0.07012 -0.05454,-0.07791 -0.140233,-0.148023 -0.07791,-0.07012 -0.186977,-0.132442 -0.07791,-0.04675 -0.163605,-0.07791 -0.0857,-0.03116 -0.186977,-0.03895 -0.132442,0.01558 -0.257094,0.0857 -0.11686,0.07012 -0.22593,0.179186 -0.140233,0.140233 -0.210349,0.303838 -0.06233,0.163605 -0.06233,0.342791 0,0.01558 0,0.03895 0,0.01558 0,0.03116 0,0.0078 0,0.01558 0,0.0078 0.0078,0.01558 0,0.0078 0,0.01558 0,0.0078 0,0.01558 0.01558,0.101279 0.06232,0.210349 0.05454,0.101279 0.132442,0.210349 0.0857,0.10128 0.202559,0.194768 0.124651,0.0857 0.296047,0.163605 l 0.864769,0.350582 q 0.233721,0.10907 0.405117,0.249303 0.171395,0.140232 0.272674,0.311628 0.10907,0.171396 0.155815,0.358373 0.05453,0.179186 0.05453,0.366163 0,0.02337 0,0.04674 0,0.01558 0,0.03116 0,0.0078 0,0.01558 0,0.0078 0,0.01558 -0.0078,0.01558 -0.0078,0.02337 0,0.0078 0,0.01558 -0.03116,0.311628 -0.179186,0.592094 -0.140233,0.280465 -0.397327,0.537559 -0.257093,0.257093 -0.576512,0.381744 -0.311629,0.124652 -0.701164,0.124652 h -0.311628 -0.03895 -0.03116 q -0.01558,0 -0.03116,0 -0.01558,0 -0.03116,0 -0.01558,-0.0078 -0.03116,-0.0078 -0.01558,0 -0.03116,0 -0.01558,0 -0.03116,0 -0.01558,0 -0.03116,-0.0078 -0.02337,0 -0.03895,-0.0078 -0.01558,0 -0.03116,0 -0.148024,-0.02337 -0.296047,-0.07012 -0.140233,-0.03895 -0.280466,-0.09349 -0.140233,-0.06233 -0.249303,-0.124652 -0.101279,-0.07012 -0.186977,-0.140233 l -0.01558,-0.01558 -0.0078,-0.01558 q 0.03116,-0.07012 0.05454,-0.140233 0.02337,-0.07012 0.03116,-0.124651 0.0078,-0.03116 0.0078,-0.05454 0.0078,-0.03116 0.0078,-0.06233 0.0078,-0.02337 0.0078,-0.04674 0.0078,-0.03116 0.0078,-0.06233 0,-0.01558 0,-0.02337 0,-0.01558 0.0078,-0.03116 0,-0.01558 0,-0.03116 0,-0.01558 0,-0.03116 0,-0.03116 0,-0.06233 0,-0.03116 0,-0.06233 l 0.124651,-0.01558 h 0.311628 q 0.202559,0.311629 0.373954,0.490815 0.179187,0.179187 0.32721,0.225931 0.10907,0.03116 0.202559,0.05454 0.09349,0.02337 0.171395,0.03895 0.202559,-0.02337 0.350582,-0.101279 0.155815,-0.07791 0.264884,-0.210349 0.132443,-0.163605 0.194768,-0.342791 0.07012,-0.179187 0.07791,-0.373954 0,-0.155815 -0.04674,-0.296047 -0.03895,-0.148024 -0.124651,-0.288257 -0.07791,-0.140232 -0.210349,-0.241512 -0.124652,-0.101279 -0.296047,-0.163605 L 55.920563,43.633339 Q 55.577772,43.485315 55.375214,43.31392 55.180446,43.142524 55.11812,42.955547 55.06359,42.76857 55.03242,42.573802 55.00126,42.379034 55.00126,42.176476 v -0.01558 z m 4.853616,-1.230932 q 0.03895,0.02337 0.07012,0.03895 0.03895,0.0078 0.0857,0.01558 0.0078,0 0.0078,0 0.0078,0 0.01558,0 0.0078,0 0.0078,0 0.0078,0 0.01558,0 0.04674,-0.0078 0.0857,-0.01558 0.04674,-0.01558 0.07791,-0.02337 l 0.311628,-0.0078 v 5.391171 h -0.311628 q -0.03116,0 -0.07791,0 -0.03895,-0.0078 -0.07791,-0.01558 -0.0078,0 -0.01558,0 0,0 -0.0078,0 -0.0078,0 -0.01558,0 -0.0078,0 -0.01558,0 -0.04675,0.0078 -0.0857,0.01558 -0.03116,0 -0.07012,0 H 59.54323 v -5.398962 h 0.311628 v 0 z m 2.158027,0.06233 h 4.175821 v 0.186977 q -0.412908,0.568722 -0.833606,1.137444 -0.420699,0.568721 -0.841397,1.153025 -0.420698,0.584303 -0.864769,1.215351 -0.43628,0.623256 -0.895931,1.293257 0.389535,0 0.77128,-0.0078 0.381745,-0.0078 0.755699,-0.01558 0.436279,-0.01558 0.818024,-0.05454 0.381745,-0.03895 0.716746,-0.10907 l 0.311628,-0.0078 q -0.0078,0.05454 -0.02337,0.09349 -0.0078,0.03895 -0.01558,0.07791 -0.0078,0.03116 -0.0078,0.07012 0,0.03116 0,0.06233 v 0.03895 l 0.0078,0.03895 q 0,0.01558 0,0.03116 0,0.0078 0,0.01558 0,0.01558 0,0.02337 0.0078,0.0078 0.0078,0.02337 0.0078,0.02337 0.01558,0.04674 0.0078,0.01558 0.01558,0.02337 h -0.311628 -4.417333 v -0.241512 l 3.365587,-4.72117 q -0.350582,0.01558 -0.685583,0.02337 -0.32721,0.0078 -0.646629,0.02337 -0.194767,0.0078 -0.381744,0.02337 -0.179187,0.0078 -0.358373,0.01558 -0.179186,0.01558 -0.350582,0.02337 -0.163605,0.0078 -0.32721,0.02337 l -0.311628,-0.0078 q 0.0078,-0.01558 0.0078,-0.03895 0.0078,-0.02337 0.01558,-0.04674 0.0078,-0.02337 0.0078,-0.04675 0.0078,-0.02337 0.01558,-0.04674 v -0.03116 -0.03116 q 0,-0.02337 -0.0078,-0.04674 0,-0.03116 -0.0078,-0.06233 -0.0078,-0.03116 -0.01558,-0.06233 0,-0.03895 -0.01558,-0.07012 v -0.01558 h 0.311628 z m 4.970468,5.336636 v -5.461287 h 0.311629 q 0.02337,0.01558 0.05454,0.03116 0.03116,0.0078 0.06233,0.01558 0.0078,0 0.01558,0.0078 0.01558,0 0.02337,0 0.0078,0 0.01558,0 0.01558,0 0.02337,0 0,0 0,0 0.0078,0 0.01558,0 0.0078,0 0.0078,0 0.0078,0 0.0078,0 0.03895,-0.0078 0.07012,-0.01558 0.03895,-0.01558 0.06233,-0.02337 l 0.311629,-0.0078 v 2.267097 q 0.10907,0.03116 0.280465,0.04674 0.171396,0.01558 0.405117,0.03116 0.210349,0.0078 0.428489,0.01558 0.225931,0.0078 0.451861,0.0078 0.202559,0 0.389536,0 0.194768,-0.0078 0.381745,-0.01558 0.22593,-0.01558 0.397326,-0.03116 0.171396,-0.01558 0.272675,-0.03895 v -2.290468 h 0.311628 q 0.0078,0.01558 0.01558,0.02337 0.0078,0 0.01558,0 0,0.0078 0.0078,0.0078 0.0078,0 0.01558,0 0.01558,0.0078 0.03116,0.0078 0.01558,0 0.03116,0 0.0078,0 0.01558,0.0078 0.0078,0 0.01558,0 0.0078,0.0078 0.01558,0.0078 0.0078,0 0.01558,0 0.0078,0 0.0078,0 0.0078,0 0.01558,0 0.03895,-0.0078 0.07791,-0.01558 0.04674,-0.01558 0.07791,-0.02337 l 0.311628,-0.0078 v 5.453497 h -0.311628 q -0.03116,0 -0.07012,0 -0.03116,-0.0078 -0.07012,-0.01558 0,0 -0.0078,0 0,0 0,0 0,0 -0.0078,0 0,0 0,0 0,0 -0.0078,0 0,0 -0.0078,0 -0.04674,0.0078 -0.09349,0.01558 -0.04675,0 -0.09349,0 h -0.311628 v -2.695585 q -0.05454,0 -0.132442,0 -0.07012,-0.0078 -0.155815,-0.01558 -0.0857,0 -0.186977,0 -0.09349,-0.0078 -0.202558,-0.01558 -0.171396,-0.01558 -0.358373,-0.01558 -0.186977,-0.0078 -0.389535,-0.0078 -0.03895,0 -0.07791,0 -0.03895,0 -0.07012,0 -0.03895,0.0078 -0.07791,0.0078 -0.03116,0 -0.07012,0 -0.04674,0 -0.09349,0 -0.04674,0 -0.09349,0 -0.05454,0.0078 -0.101279,0.0078 -0.04675,0 -0.09349,0 -0.05454,0 -0.116861,0.0078 -0.05454,0 -0.10907,0 -0.06232,0.0078 -0.11686,0.01558 -0.05454,0 -0.116861,0 -0.11686,0.0078 -0.22593,0.01558 -0.10907,0 -0.21814,0.01558 v 2.680004 h -0.311629 q -0.04674,0 -0.0857,0 -0.03116,-0.0078 -0.07012,-0.01558 -0.04674,0.0078 -0.09349,0.01558 -0.04675,0 -0.10907,0 h -0.311592 v 0 z m 5.835238,0 2.454074,-5.461287 h 0.311628 0.179186 l 2.399539,5.461287 H 77.85138 q -0.02337,0 -0.05454,0 -0.02337,0 -0.05454,0 -0.03116,0 -0.06233,0 -0.02337,0 -0.06233,0 -0.01558,0 -0.03895,0 -0.01558,0 -0.03116,-0.0078 -0.01558,0 -0.03895,0 -0.01558,0 -0.03116,0 -0.01558,0.0078 -0.03895,0.0078 -0.01558,0 -0.03116,0 -0.01558,0 -0.03116,0 -0.01558,0 -0.02337,0 -0.01558,0 -0.03116,0 -0.0078,0 -0.02337,0 h -0.311639 l -0.856978,-2.15024 h -1.589305 l -0.794653,2.150236 h -0.311628 q -0.01558,0 -0.03895,0 -0.01558,0 -0.03116,0 l -0.03895,-0.0078 q -0.0078,0.0078 -0.02337,0.0078 -0.01558,0 -0.02337,0 -0.01558,0 -0.03116,0 -0.0078,0 -0.02337,0 h -0.311629 q -0.02337,0 -0.04674,0 -0.02337,0 -0.04674,0 v 0 z m 1.908724,-2.516399 h 1.277676 l -0.638838,-1.526979 z m 4.28489,2.516399 v -5.398962 h 0.311628 0.373954 l 3.427913,3.770704 v -3.770704 h 0.311628 q 0.01558,0.02337 0.03895,0.03116 0.02337,0.0078 0.04674,0.01558 0.03116,-0.0078 0.05453,-0.01558 0.02337,-0.0078 0.03895,-0.01558 l 0.311628,-0.0078 v 5.391171 H 83.616488 83.31265 l -3.498029,-3.887564 v 3.887564 h -0.311628 q -0.0078,0 -0.01558,0 -0.0078,0 -0.01558,0 -0.01558,0 -0.02337,0 -0.0078,-0.0078 -0.01558,-0.0078 -0.01558,0 -0.03116,0 -0.0078,0 -0.02337,0.0078 -0.01558,0 -0.03116,0 -0.0078,0 -0.02337,0 h -0.311628 v 0 z m 6.08454,-2.64105 q 0.03116,-0.615466 0.179187,-1.075118 0.155814,-0.459652 0.428489,-0.755699 0.272675,-0.296047 0.568722,-0.498606 0.303837,-0.202558 0.631047,-0.311628 0.171396,-0.06233 0.335001,-0.101279 0.171395,-0.03895 0.335,-0.06233 0.163605,-0.02337 0.311629,-0.03895 0.155814,-0.01558 0.280465,-0.02337 l 0.311629,-0.0078 q 0.249302,0.0078 0.498605,0.03895 0.257093,0.02337 0.514187,0.07791 0.249303,0.05454 0.498605,0.155814 0.257094,0.09349 0.514187,0.225931 l -0.249303,0.66221 h -0.311628 q -0.03895,-0.01558 -0.0857,-0.04674 -0.04674,-0.03895 -0.09349,-0.0857 -0.04675,-0.04674 -0.101279,-0.09349 -0.04675,-0.04674 -0.10907,-0.09349 -0.10907,-0.0857 -0.249303,-0.163605 -0.140233,-0.07791 -0.303838,-0.148023 -0.132442,-0.06233 -0.303838,-0.09349 -0.163604,-0.03895 -0.358372,-0.04674 -0.03895,0 -0.0857,0.0078 -0.03895,0 -0.0857,0.0078 -0.07791,0.0078 -0.163605,0.02337 -0.07791,0.01558 -0.163605,0.03895 -0.288256,0.07791 -0.560931,0.249303 -0.264884,0.163605 -0.514187,0.420698 -0.241512,0.257094 -0.381744,0.631048 -0.140233,0.373954 -0.179187,0.88035 v 0.02337 0.03116 0.03116 0.03116 q -0.0078,0.576512 0.148024,1.043955 0.155814,0.467442 0.467442,0.825815 0.296047,0.335001 0.670001,0.514187 0.381745,0.171396 0.849188,0.194768 0.155814,-0.0078 0.296047,-0.02337 0.148023,-0.02337 0.288256,-0.05454 0.179186,-0.03895 0.303838,-0.09349 0.132442,-0.06233 0.22593,-0.132442 v -2.041166 h 0.311629 q 0.01558,0.01558 0.03116,0.02337 0.01558,0 0.03895,0.0078 0.01558,0.0078 0.03116,0.01558 0.01558,0 0.03116,0 0.0078,0 0.0078,0 0.0078,0 0.01558,0 0.0078,0.0078 0.0078,0.0078 0.0078,0 0.01558,0 0,0 0,0 0,0 0.0078,0 0,0 0,0 0,0 0,0 0.03895,-0.0078 0.0857,-0.01558 0.04674,-0.01558 0.09349,-0.02337 l 0.311628,-0.0078 v 2.267096 l -0.02337,0.02337 -0.02337,0.0078 q -0.03895,0.02337 -0.09349,0.03895 -0.04675,0.01558 -0.10128,0.03116 -0.05453,0.02337 -0.11686,0.03895 -0.06233,0.01558 -0.132442,0.03116 -0.140233,0.03116 -0.280466,0.05454 -0.140233,0.02337 -0.296047,0.03895 -0.140233,0.02337 -0.272675,0.03895 -0.124651,0.02337 -0.257093,0.03116 -0.124651,0.01558 -0.233721,0.02337 -0.10907,0.0078 -0.194768,0.0078 h -0.311628 q -0.01558,0 -0.03895,0 -0.01558,0 -0.03116,0 -0.01558,0 -0.03895,0 -0.01558,0 -0.03116,0 -0.662211,0 -1.184188,-0.179187 -0.522002,-0.179187 -0.911537,-0.560932 -0.381745,-0.373954 -0.576513,-0.872559 -0.194768,-0.506396 -0.194768,-1.137444 v -0.01558 z"
         id="text8"
         aria-label="SHISIZHANG" />
    </g>
  </g>
</svg>
