<?xml version="1.0" encoding="UTF-8" standalone="no"?>
<!-- Created with Inkscape (http://www.inkscape.org/) -->

<svg
   width="500"
   height="250"
   viewBox="0 0 132.29166 66.145833"
   version="1.1"
   id="svg1"
   inkscape:version="1.3.2 (091e20e, 2023-11-25, custom)"
   sodipodi:docname="y09.svg"
   xmlns:inkscape="http://www.inkscape.org/namespaces/inkscape"
   xmlns:sodipodi="http://sodipodi.sourceforge.net/DTD/sodipodi-0.dtd"
   xmlns="http://www.w3.org/2000/svg"
   xmlns:svg="http://www.w3.org/2000/svg">
  <sodipodi:namedview
     id="namedview1"
     pagecolor="#9e652e"
     bordercolor="#ffffff"
     borderopacity="1"
     inkscape:showpageshadow="0"
     inkscape:pageopacity="0"
     inkscape:pagecheckerboard="false"
     inkscape:deskcolor="#d1d1d1"
     inkscape:document-units="mm"
     inkscape:zoom="2.0208096"
     inkscape:cx="276.12695"
     inkscape:cy="127.17675"
     inkscape:window-width="1920"
     inkscape:window-height="1009"
     inkscape:window-x="1912"
     inkscape:window-y="-8"
     inkscape:window-maximized="1"
     inkscape:current-layer="layer1" />
  <defs
     id="defs1">
    <rect
       x="157.85752"
       y="62.351248"
       width="329.07603"
       height="135.09437"
       id="rect4" />
  </defs>
  <g
     inkscape:label="Layer 1"
     inkscape:groupmode="layer"
     id="layer1">
    <path
       id="rect5"
       style="fill:#ffffff;stroke-width:0.953294"
       d="M -2.5431316e-6,-1.2715658e-6 H 132.29167 V 66.145835 H -2.5431316e-6 Z" />
    <g
       id="g1"
       transform="matrix(1.121508,0,0,1.121508,12.601536,-3.0133416)">
      <path
         id="rect6"
         style="fill:none;stroke:#000000;stroke-width:0.575409"
         d="m 9.3009131,19.849001 h 5.7010479 c 1.810115,0 3.267355,1.45724 3.267355,3.267355 v 9.524719 c 0,1.810115 -1.45724,3.267355 -3.267355,3.267355 H 9.3009131 c -1.8101145,0 -3.2673547,-1.45724 -3.2673547,-3.267355 v -9.524719 c 0,-1.810115 1.4572402,-3.267355 3.2673547,-3.267355 z" />
      <path
         style="font-weight:bold;font-size:5.82083px;line-height:1.25;font-family:'Optima Bold';-inkscape-font-specification:'Optima Bold,  Bold';stroke-width:0.264583"
         d="m 11.768055,25.2551 -1.420282,-2.293407 h 0.232833 q 0.04657,0.01746 0.09313,0.0291 0.05239,0.0058 0.09313,0.01164 0.01164,0 0.01746,0 0.01164,0 0.01746,0 0,0 0,0 0.0058,0 0.0058,0 0,0 0,0 0.0058,0 0.0058,0 0.0291,0 0.05239,0 0.0291,0 0.05239,-0.0058 0.0291,-0.0058 0.05821,-0.01164 0.0291,-0.0058 0.05821,-0.01164 l 0.232833,-0.0058 0.98372,1.711324 0.937154,-1.717145 h 0.232833 q 0.0291,0.01746 0.05821,0.0291 0.03492,0.0058 0.06403,0.01164 0.0058,0 0.01164,0 0.01164,0 0.01746,0 0.0058,0 0.01164,0 0.01164,-0.0058 0.01746,-0.0058 0.02328,-0.0058 0.04657,-0.01164 0.02328,-0.0058 0.04657,-0.01164 l 0.232833,-0.0058 q -0.03492,0.05239 -0.06985,0.09895 -0.0291,0.04657 -0.05821,0.09313 -0.03492,0.04657 -0.06985,0.09313 -0.0291,0.04657 -0.05821,0.09313 -0.03492,0.04657 -0.06985,0.09895 -0.0291,0.04657 -0.05821,0.09313 -0.03493,0.04657 -0.06985,0.09895 -0.0291,0.04657 -0.05821,0.09313 -0.128058,0.192088 -0.244475,0.378354 -0.116416,0.186267 -0.232833,0.372533 -0.110596,0.186267 -0.20955,0.360892 -0.09895,0.174625 -0.180445,0.331787 v 1.775353 h -0.232834 q -0.03492,0 -0.06985,0 -0.0291,-0.0058 -0.05821,-0.01164 0,0 -0.0058,0 0,0 0,0 0,0 -0.0058,0 0,0 0,0 -0.0058,0 -0.01164,0 0,0 -0.0058,0 -0.03493,0.0058 -0.07567,0.01164 -0.03493,0 -0.08149,0 h -0.232834 v -1.693861 0 z"
         id="text6"
         aria-label="Y" />
      <path
         style="font-weight:bold;font-size:5.82083px;line-height:1.25;font-family:'Optima Bold';-inkscape-font-specification:'Optima Bold,  Bold';stroke-width:0.264583"
         d="m 8.984904,30.791991 q 0,-0.0058 0,-0.01164 0,-0.01164 0,-0.0291 0,-0.01164 0,-0.0291 0.00582,-0.01746 0.011642,-0.03493 0,-0.07567 0.00582,-0.168804 0.011642,-0.09895 0.017462,-0.215371 0.011642,-0.116416 0.029104,-0.238654 0.023283,-0.128058 0.058208,-0.256116 0.052388,-0.203729 0.1513416,-0.384175 0.098954,-0.186266 0.2444749,-0.34925 0.1396999,-0.168804 0.3667123,-0.250295 0.2270128,-0.08149 0.5355168,-0.08149 l 0.232833,-0.0058 q 0.28522,0.0058 0.49477,0.09313 0.20955,0.08149 0.34925,0.250296 0.1397,0.168804 0.232833,0.355071 0.09895,0.180445 0.151342,0.384175 0.04075,0.151341 0.06403,0.296862 0.02328,0.145521 0.0291,0.2794 0.0058,0.1397 0.0058,0.244475 0.0058,0.09895 0.0058,0.162983 0,0.06985 -0.01164,0.168804 -0.0058,0.09313 -0.01746,0.215371 -0.01164,0.122237 -0.04075,0.250295 -0.02328,0.128058 -0.06403,0.261938 -0.05821,0.192087 -0.162984,0.372533 -0.09895,0.174625 -0.238654,0.331787 -0.1397,0.162983 -0.349249,0.238654 -0.203729,0.07567 -0.477308,0.07567 h -0.232834 -0.01746 -0.01164 -0.01746 -0.01164 q -0.3492497,0 -0.5995454,-0.128058 Q 9.4738537,32.462569 9.3225122,32.194811 9.1769914,31.932874 9.089679,31.641832 9.0081873,31.34497 8.9907248,31.024824 q 0,-0.01164 0,-0.02328 0,-0.01746 0,-0.03493 -0.00582,-0.01164 -0.00582,-0.02328 0,-0.01746 0,-0.0291 0,-0.01164 0,-0.02328 0,-0.01746 0,-0.03492 0,-0.01164 0,-0.02328 0,-0.01746 0,-0.0291 v -0.01164 z m 0.7392454,0.09895 q 0,0.07567 0,0.151342 0.00582,0.07567 0.011642,0.157162 0,0.04075 0.00582,0.08731 0.00582,0.04075 0.011642,0.08149 0.00582,0.04657 0.011642,0.08731 0.011642,0.04075 0.017463,0.08731 0.034925,0.180446 0.098954,0.34925 0.064029,0.162983 0.1571622,0.314325 0.08149,0.128058 0.186267,0.197908 0.110596,0.06985 0.256116,0.09313 0.180446,-0.02328 0.302683,-0.110596 0.128059,-0.09313 0.203729,-0.250295 0.08731,-0.186267 0.1397,-0.384175 0.05821,-0.203729 0.08149,-0.4191 0.0058,-0.04075 0.0058,-0.08149 0.0058,-0.04075 0.0058,-0.08149 0.0058,-0.03493 0.0058,-0.07567 0,-0.04075 0,-0.08149 0,-0.04075 0,-0.07567 0,-0.04075 0.0058,-0.08149 0,-0.03493 0,-0.06985 0,-0.04075 0,-0.07567 0,-0.378353 -0.05821,-0.692678 -0.05239,-0.314325 -0.157162,-0.5588 -0.09313,-0.215371 -0.221192,-0.331787 -0.122237,-0.122238 -0.2794,-0.151342 -0.256116,0.03492 -0.419099,0.192088 -0.1629837,0.151341 -0.2270128,0.42492 -0.075671,0.291042 -0.1105958,0.617008 -0.034925,0.325967 -0.034925,0.686858 z m 2.7940036,-0.832378 q 0,-0.01746 0,-0.04075 0,-0.0291 0,-0.05239 0,-0.01164 0,-0.02328 0,-0.01746 0.0058,-0.03493 0,-0.01164 0,-0.02328 0.0058,-0.01746 0.0058,-0.02911 0.01746,-0.203729 0.09313,-0.384174 0.08149,-0.186267 0.221192,-0.34925 0.139699,-0.168804 0.389995,-0.250296 0.250296,-0.08149 0.617008,-0.08149 l 0.232833,-0.0058 q 0.256117,0.0058 0.442383,0.07567 0.192088,0.06985 0.320146,0.203729 0.133879,0.133879 0.221192,0.28522 0.09313,0.145521 0.14552,0.302683 0.0291,0.09313 0.05239,0.180446 0.02328,0.08731 0.0291,0.174625 0.01164,0.08731 0.01746,0.162983 0.0058,0.06985 0.0058,0.133879 v 0.01746 0.02328 0.0291 0.02328 q 0,0.552978 -0.110596,0.966257 -0.110595,0.407459 -0.331787,0.681038 -0.227012,0.267758 -0.471487,0.430741 -0.244475,0.162983 -0.512233,0.20955 -0.04075,0.01164 -0.08149,0.01164 -0.04075,0.0058 -0.08149,0.01164 -0.04075,0.0058 -0.08149,0.0058 -0.03492,0.0058 -0.06985,0.0058 h -0.232833 q -0.04657,0 -0.09313,-0.0058 -0.04657,0 -0.09313,-0.0058 -0.04657,-0.0058 -0.09313,-0.01746 -0.04075,-0.0058 -0.08731,-0.01746 l -0.186267,-0.366712 h 0.232833 0.1397 q 0.05821,0.06403 0.116417,0.104775 0.05821,0.03493 0.116416,0.05821 0.0291,0.01164 0.05821,0.02328 0.03493,0.0058 0.05821,0.01164 0.186267,-0.0291 0.355071,-0.162983 0.168804,-0.1397 0.314324,-0.372533 0.145521,-0.238654 0.232834,-0.500592 0.08731,-0.261937 0.110595,-0.541337 -0.04074,0.04075 -0.09313,0.06985 -0.04657,0.02328 -0.09313,0.04657 -0.05821,0.02328 -0.122238,0.04075 -0.05821,0.01746 -0.116416,0.0291 -0.05821,0.0058 -0.110596,0.01164 -0.04657,0 -0.09313,0 l -0.232833,-0.0058 q -0.238654,0.0058 -0.442384,-0.05239 -0.203729,-0.06403 -0.372533,-0.192087 -0.162983,-0.128059 -0.250295,-0.325967 -0.08149,-0.203729 -0.08149,-0.477308 v -0.01164 z m 0.785812,-0.174625 q 0,0.01164 0,0.02328 0,0.0058 0,0.01164 0,0.01164 0,0.01746 0,0.0058 0,0.01746 0,0.01746 0,0.03493 0,0.01746 0.0058,0.0291 0.01164,0.157162 0.04657,0.302683 0.04074,0.1397 0.110595,0.273579 0.05821,0.104775 0.151342,0.168804 0.09895,0.05821 0.232833,0.07567 0.168804,-0.02328 0.285221,-0.09313 0.122237,-0.07567 0.203729,-0.192087 0.08731,-0.133879 0.133879,-0.2794 0.04657,-0.151341 0.04657,-0.314325 v -0.03493 -0.03492 q -0.0058,-0.168804 -0.05821,-0.325966 -0.05239,-0.157162 -0.151341,-0.302683 -0.07567,-0.116417 -0.180446,-0.186267 -0.09895,-0.06985 -0.215371,-0.09313 -0.09313,0.01164 -0.168804,0.05239 -0.06985,0.03493 -0.133879,0.09896 -0.07567,0.08149 -0.133879,0.174624 -0.05821,0.08731 -0.09313,0.186267 -0.02328,0.05821 -0.04075,0.110596 -0.01164,0.05239 -0.02328,0.104775 -0.0058,0.05239 -0.01164,0.09895 -0.0058,0.04657 -0.0058,0.08149 z"
         id="text6-8"
         aria-label="09" />
    </g>
    <g
       id="g2"
       transform="translate(-1.7718347,-2.6369997)">
      <path
         style="font-weight:600;font-size:18.3502px;line-height:1.25;font-family:'Noto Serif TC';-inkscape-font-specification:'Noto Serif TC Semi-Bold';letter-spacing:1.96609px;stroke-width:0.327681"
         d="m 52.418306,33.669579 h -1.761619 c 0.201852,-0.532156 0.403704,-1.156063 0.568856,-1.614818 0.330303,-0.05505 0.623907,-0.165151 0.752358,-0.330303 l -1.761619,-1.376265 -0.770709,0.862459 H 41.84859 l 0.165152,0.532156 h 2.642429 c -0.330304,3.303036 -1.614818,5.706912 -5.119706,7.413481 l 0.110101,0.238553 c 4.55085,-1.321215 6.440921,-3.780142 7.009777,-7.652034 h 2.862631 c -0.146801,0.513806 -0.348654,1.137712 -0.532156,1.651518 -0.293603,0.09175 -0.568856,0.238553 -0.770708,0.385354 l 1.651518,1.174413 0.752358,-0.752358 h 1.945121 c -0.165151,1.669868 -0.458755,2.936032 -0.807408,3.211285 -0.165152,0.110101 -0.311954,0.146802 -0.642257,0.146802 -0.385355,0 -1.908421,-0.110102 -2.807581,-0.201853 v 0.275253 c 0.825759,0.146802 1.633168,0.367004 1.963471,0.642257 0.330304,0.238553 0.403705,0.660608 0.403705,1.119363 0.95421,0 1.651518,-0.183502 2.165323,-0.513806 0.789059,-0.568856 1.229464,-2.146973 1.431316,-4.440749 0.367004,-0.0367 0.587207,-0.146801 0.715658,-0.275253 l -1.669868,-1.376265 z m -4.073745,-6.789574 h 6.844625 c 0.256903,0 0.440405,-0.09175 0.477105,-0.293603 -0.715657,-0.642257 -1.89007,-1.523067 -1.89007,-1.523067 l -1.027612,1.284514 h -4.404048 v -1.926771 c 1.486367,-0.146802 2.862632,-0.311954 4.018694,-0.495456 0.513806,0.238553 0.89916,0.238553 1.082662,0.0734 l -1.688218,-1.706568 c -2.477277,0.807408 -7.24833,1.779969 -11.046821,2.202024 l 0.05505,0.311953 c 1.890071,0 3.908593,-0.09175 5.835364,-0.238552 v 1.779969 h -7.248329 l 0.165152,0.532156 h 5.615161 c -1.376265,1.798319 -3.523238,3.541589 -6.018866,4.697651 l 0.165152,0.256903 c 2.972733,-0.89916 5.560111,-2.275425 7.32173,-4.055394 v 3.101184 h 0.311954 c 0.880809,0 1.431315,-0.311954 1.431315,-0.403705 v -2.78923 c 2.75253,1.119362 5.027955,2.605728 6.037216,3.578289 1.853371,0.715658 2.862632,-2.954383 -6.037216,-4.037044 z m 13.967121,-4.5692 c 0.532156,0.605556 1.082662,1.614817 1.137712,2.477277 1.449666,1.229463 3.082834,-1.688219 -0.97256,-2.587378 z m -0.220203,5.761963 v -2.367176 h 3.559939 v 2.367176 z m 0,2.899332 v -2.367176 h 3.559939 V 30.9721 Z m 1.669869,1.743269 c 0.513805,0.568856 1.082661,1.339564 1.486366,2.128623 -1.119362,0.440405 -2.220374,0.844109 -3.156235,1.192763 v -4.5325 h 3.559939 v 0.789059 h 0.275253 c 0.532156,0 1.357915,-0.311953 1.376265,-0.422055 v -5.853714 c 0.385355,-0.0734 0.660608,-0.238552 0.770709,-0.385354 l -1.77997,-1.357915 -0.825759,0.91751 h -3.137884 l -1.945121,-0.844109 v 11.560627 c 0,0.422054 -0.0734,0.587206 -0.587207,0.880809 l 0.825759,1.743269 c 0.146802,-0.0734 0.311954,-0.201852 0.458755,-0.403704 1.743269,-1.045962 3.284686,-2.128623 4.367348,-2.862632 0.201852,0.440405 0.330304,0.89916 0.385354,1.339565 1.578118,1.321215 2.991083,-2.183674 -1.87172,-4.018694 z m 6.661122,-0.678958 c 0.05505,-0.660607 0.0734,-1.321214 0.0734,-1.981821 v -1.541417 h 3.266336 v 3.523238 z m 3.339737,-7.560282 v 3.504888 h -3.266336 v -3.504888 z m 0.623907,-1.486367 -0.807409,0.954211 h -2.807581 l -1.908421,-0.734008 v 6.862975 c 0,3.541588 -0.403704,6.679473 -3.156234,9.101699 l 0.201852,0.201852 c 3.174585,-1.706568 4.165496,-4.202196 4.459099,-6.807924 h 3.394787 v 4.422398 c 0,0.275253 -0.09175,0.385355 -0.422055,0.385355 -0.367004,0 -2.146973,-0.128452 -2.146973,-0.128452 v 0.256903 c 0.844109,0.128451 1.266164,0.330304 1.523067,0.605557 0.238552,0.256902 0.348653,0.678957 0.403704,1.211113 2.055222,-0.183502 2.312125,-0.91751 2.312125,-2.146974 V 24.769732 c 0.367004,-0.0734 0.642257,-0.220203 0.770709,-0.385355 z M 89.8029,35.871603 v -1.908421 h 1.963472 v 1.908421 z m 3.303036,-1.79832 c 0.238553,-0.0367 0.458755,-0.165151 0.550506,-0.256902 L 92.280177,32.770419 91.61957,33.449377 H 89.876301 L 88.500036,32.86217 v 4.5692 h 0.183502 c 0.532156,0 1.119362,-0.293603 1.119362,-0.403704 v -0.623907 h 1.963472 v 0.678957 h 0.220202 c 0.458755,0 1.101012,-0.348653 1.119362,-0.477105 z m 1.064312,-2.220374 h -6.752874 l -1.669868,-0.697307 c 0.330303,-0.642257 0,-1.926772 -2.128624,-2.880982 v -0.972561 h 2.165324 c 0.256903,0 0.440405,-0.09175 0.477105,-0.293603 C 85.692455,26.4029 84.738245,25.54044 84.738245,25.54044 l -0.86246,1.229464 h -0.256903 v -3.65169 c 0.495456,-0.0734 0.623907,-0.256903 0.678958,-0.532156 l -2.330476,-0.238553 v 4.422399 h -2.348825 l 0.146801,0.532155 h 2.000172 c -0.385354,2.69748 -1.082662,5.43166 -2.293775,7.523583 l 0.256903,0.220202 c 0.89916,-0.972561 1.651518,-2.055222 2.238724,-3.229635 v 7.523582 h 0.348654 c 0.605557,0 1.302864,-0.311953 1.302864,-0.495455 V 28.733375 c 0.403705,0.752358 0.789059,1.724919 0.84411,2.532328 0.477105,0.440405 1.009261,0.330303 1.247813,-0.0734 v 8.129139 h 0.256903 c 0.660607,0 1.339565,-0.367004 1.339565,-0.513806 v -6.42257 h 7.046477 v 4.936204 c 0,0.220202 -0.0734,0.311953 -0.348654,0.311953 -0.330304,0 -1.614818,-0.09175 -1.614818,-0.09175 v 0.275253 c 0.678958,0.110102 0.990911,0.275253 1.211114,0.495456 0.201852,0.220202 0.256902,0.587206 0.293603,1.027611 1.85337,-0.183502 2.073573,-0.789059 2.073573,-1.87172 v -4.807753 c 0.367004,-0.05505 0.660607,-0.220202 0.770708,-0.367004 l -1.79832,-1.339565 z m -4.844453,-1.908421 v -1.743269 h 2.936032 v 1.743269 z m 2.75253,-3.67004 c 0.146802,0.330304 0.330304,0.623907 0.532156,0.91751 l -0.477105,0.477105 h -2.71583 l -0.605557,-0.256902 c 0.385354,-0.348654 0.734008,-0.734008 1.045962,-1.137713 z m 4.000344,0 c 0.275253,0 0.440405,-0.09175 0.495455,-0.275253 -0.660607,-0.587206 -1.743269,-1.412965 -1.743269,-1.412965 l -0.95421,1.174413 h -3.65169 c 0.311953,-0.458755 0.568856,-0.954211 0.770708,-1.486367 1.174413,-0.110101 2.238725,-0.238552 3.119534,-0.367004 0.477105,0.201852 0.844109,0.201852 1.045962,0.05505 l -1.596468,-1.596468 c -1.761619,0.678958 -5.119706,1.486367 -7.817185,1.83502 l 0.0367,0.330304 c 1.027611,0 2.110273,-0.0367 3.174585,-0.09175 -0.128452,0.440405 -0.311954,0.88081 -0.532156,1.321215 h -2.880981 l 0.146801,0.513805 h 2.458927 c -0.697308,1.174413 -1.669868,2.238725 -2.862631,3.046133 l 0.146801,0.238553 c 0.84411,-0.348654 1.651518,-0.789059 2.367176,-1.302864 v 3.009433 h 0.220203 c 0.605556,0 1.302864,-0.330304 1.302864,-0.458755 v -0.330304 h 2.936032 v 0.550506 h 0.256903 c 0.532156,0 1.302864,-0.330303 1.321214,-0.477105 v -2.000172 c 0.532156,0.440405 1.119362,0.789059 1.77997,1.082662 0.165152,-0.807409 0.550506,-1.284514 1.156062,-1.449666 l 0.01835,-0.183502 C 95.28961,27.760814 93.656442,27.155258 92.647181,26.274448 Z"
         id="text7"
         aria-label="秀朗橋" />
      <path
         style="font-weight:bold;font-size:7.79071px;line-height:1.25;font-family:'Optima Bold';-inkscape-font-specification:'Optima Bold,  Bold';stroke-width:0.354123"
         d="M 35.761525,46.270441 34.102104,43.62939 h 0.311628 q 0.04674,0.02337 0.09349,0.03895 0.05454,0.0078 0.10907,0.01558 0.0078,0 0.01558,0 0.0078,0 0.01558,0 0.0078,0 0.01558,0.0078 0.0078,0 0.01558,0 0.0078,0 0.01558,0 0.0078,0 0.02337,-0.0078 0.0078,0 0.01558,0 0.0078,0 0.01558,0 0.06233,-0.0078 0.10907,-0.01558 0.05454,-0.01558 0.10128,-0.02337 l 0.311628,-0.0078 1.075118,1.768491 1.129653,-1.776282 h 0.311628 q 0.03116,0.01558 0.05454,0.03116 0.02337,0.0078 0.04674,0.01558 0.03895,-0.0078 0.07012,-0.01558 0.03895,-0.0078 0.07012,-0.01558 l 0.311629,-0.0078 -1.659421,2.383957 1.846398,2.944888 h -0.311629 q -0.05454,0 -0.11686,0 -0.05453,-0.0078 -0.116861,-0.01558 -0.0078,0 -0.01558,0 -0.0078,0 -0.01558,-0.0078 -0.01558,0 -0.02337,0 -0.0078,0 -0.01558,0 -0.0078,0 -0.01558,0 -0.0078,0 -0.01558,0 -0.01558,0.0078 -0.02337,0.0078 -0.0078,0 -0.01558,0 -0.05454,0.0078 -0.11686,0.01558 -0.05454,0 -0.116861,0 h -0.311628 l -1.19977,-2.119073 -1.191978,2.119073 h -0.311629 -0.03895 l -0.03116,-0.01558 q -0.0078,0.0078 -0.01558,0.0078 -0.0078,0 -0.02337,-0.0078 -0.0078,0 -0.01558,0 -0.0078,0 -0.02337,0 0,0 0,0 0,0 0,0 -0.0078,0 -0.0078,0 0,0 0,0 -0.04674,0.0078 -0.101279,0.01558 -0.04674,0 -0.10907,0 h -0.311628 l 1.846398,-2.695585 v 0 z m 4.051164,-2.703377 q 0.03895,0.02337 0.07012,0.03895 0.03895,0.0078 0.0857,0.01558 0.0078,0 0.0078,0 0.0078,0 0.01558,0 0.0078,0 0.0078,0 0.0078,0 0.01558,0 0.04674,-0.0078 0.0857,-0.01558 0.04674,-0.01558 0.07791,-0.02337 l 0.311628,-0.0078 v 5.391171 h -0.311628 q -0.03116,0 -0.07791,0 -0.03895,-0.0078 -0.07791,-0.01558 -0.0078,0 -0.01558,0 0,0 -0.0078,0 -0.0078,0 -0.01558,0 -0.0078,0 -0.01558,0 -0.04674,0.0078 -0.0857,0.01558 -0.03116,0 -0.07012,0 H 39.50106 v -5.398962 h 0.311629 v 0 z m 2.0957,3.311052 v -3.311052 h 0.311629 q 0.05453,0.02337 0.101279,0.03895 0.05454,0.0078 0.101279,0.01558 0.02337,0 0.04674,0 0.02337,0 0.04674,-0.0078 0.03116,-0.0078 0.06233,-0.01558 0.03116,-0.0078 0.06233,-0.01558 l 0.311628,-0.0078 v 3.1864 q 0,0.54535 0.10907,0.927095 0.116861,0.373954 0.350582,0.599885 0.210349,0.202558 0.475234,0.319419 0.264884,0.10907 0.576512,0.124651 0.389536,-0.01558 0.670001,-0.140233 0.288256,-0.124651 0.459652,-0.342791 0.186977,-0.249303 0.288256,-0.599885 0.10907,-0.358372 0.132442,-0.818024 v -3.264308 h 0.311629 q 0.01558,0.01558 0.02337,0.02337 0.0078,0 0.02337,0.0078 0.0078,0.0078 0.01558,0.01558 0.01558,0 0.02337,0 0.01558,0 0.02337,0 0.01558,-0.0078 0.02337,-0.01558 0.01558,-0.0078 0.02337,-0.0078 0.01558,-0.0078 0.02337,-0.0078 l 0.311629,-0.0078 v 3.124075 q 0,0.545349 -0.132443,0.981629 -0.124651,0.428489 -0.381744,0.755699 -0.257094,0.335001 -0.693373,0.498605 -0.43628,0.155815 -1.059537,0.155815 h -0.311628 q -0.01558,0 -0.03895,0 -0.01558,0 -0.03116,0 -0.01558,0 -0.03895,0 -0.01558,0 -0.03116,0 -0.646629,0 -1.082909,-0.163605 -0.43628,-0.163605 -0.66221,-0.498606 -0.21814,-0.342791 -0.335001,-0.724536 -0.10907,-0.381744 -0.10907,-0.810234 v -0.01558 z m 6.38838,2.08791 v -5.398962 h 0.311629 q 0.03116,0.02337 0.07012,0.03895 0.03895,0.0078 0.0857,0.01558 0,0 0,0 0.0078,0 0.01558,0 0.0078,0 0.0078,0 0.0078,0 0.0078,0 0.0078,0 0.0078,0 0.0078,0 0.01558,0 0,0 0,0 0.0078,0 0.01558,0 0.03895,-0.0078 0.07012,-0.01558 0.03895,-0.01558 0.06232,-0.02337 l 0.311629,-0.0078 v 4.962682 q 0.05454,0.01558 0.11686,0.02337 0.06233,0.0078 0.132442,0.0078 0.06233,0.0078 0.124652,0.0078 0.06233,0 0.132442,0 0.03895,0 0.07012,0 0.03116,0 0.06233,-0.0078 0.03116,0 0.06233,0 0.03895,0 0.07012,0 0.155814,-0.0078 0.303838,-0.01558 0.148023,-0.0078 0.296047,-0.01558 0.140233,-0.01558 0.257093,-0.02337 0.116861,-0.01558 0.210349,-0.02337 l 0.311629,-0.0078 q -0.0078,0.03116 -0.01558,0.05454 -0.0078,0.02337 -0.0078,0.04675 -0.0078,0.02337 -0.0078,0.04674 0,0.02337 0,0.03895 0,0.02337 0,0.04675 0,0.02337 0,0.03895 0,0.02337 0,0.04674 0.0078,0.01558 0.01558,0.03116 0,0.0078 0,0.02337 0,0.0078 0.0078,0.02337 0,0.0078 0,0.02337 0,0.0078 0,0.01558 l 0.0078,0.04674 h -0.311629 -2.820237 v 0 z m 3.622685,0 2.454073,-5.461287 h 0.311629 0.179186 l 2.399539,5.461287 h -0.311629 q -0.02337,0 -0.05454,0 -0.02337,0 -0.05453,0 -0.03116,0 -0.06233,0 -0.02337,0 -0.06233,0 -0.01558,0 -0.03895,0 -0.01558,0 -0.03116,-0.0078 -0.01558,0 -0.03895,0 -0.01558,0 -0.03116,0 -0.01558,0.0078 -0.03895,0.0078 -0.01558,0 -0.03116,0 -0.01558,0 -0.03116,0 -0.01558,0 -0.02337,0 -0.01558,0 -0.03116,0 -0.0078,0 -0.02337,0 H 56.087484 L 55.230506,46.81579 h -1.589305 l -0.794653,2.150236 H 52.53492 q -0.01558,0 -0.03895,0 -0.01558,0 -0.03116,0 l -0.03895,-0.0078 q -0.0078,0.0078 -0.02337,0.0078 -0.01558,0 -0.02337,0 -0.01558,0 -0.03116,0 -0.0078,0 -0.02337,0 h -0.311629 q -0.02337,0 -0.04674,0 -0.02337,0 -0.04674,0 v 0 z m 1.908724,-2.516399 h 1.277676 l -0.638838,-1.526979 -0.638838,1.526979 z m 4.284888,2.516399 v -5.398962 h 0.311628 0.373954 l 3.427913,3.770704 v -3.770704 h 0.311628 q 0.01558,0.02337 0.03895,0.03116 0.02337,0.0078 0.04674,0.01558 0.03116,-0.0078 0.05453,-0.01558 0.02337,-0.0078 0.03895,-0.01558 l 0.311628,-0.0078 v 5.391171 h -0.311628 -0.303838 l -3.498029,-3.887564 v 3.887564 h -0.311628 q -0.0078,0 -0.01558,0 -0.0078,0 -0.01558,0 -0.01558,0 -0.02337,0 -0.0078,-0.0078 -0.01558,-0.0078 -0.01558,0 -0.03116,0 -0.0078,0 -0.02337,0.0078 -0.01558,0 -0.03116,0 -0.0078,0 -0.02337,0 h -0.311628 v 0 z m 6.084542,-2.64105 q 0.03116,-0.615466 0.179187,-1.075118 0.155814,-0.459652 0.428489,-0.755699 0.272675,-0.296047 0.568722,-0.498606 0.303837,-0.202558 0.631047,-0.311628 0.171396,-0.06233 0.335001,-0.101279 0.171395,-0.03895 0.335,-0.06233 0.163605,-0.02337 0.311628,-0.03895 0.155815,-0.01558 0.280466,-0.02337 l 0.311628,-0.0078 q 0.249303,0.0078 0.498606,0.03895 0.257093,0.02337 0.514187,0.07791 0.249302,0.05454 0.498605,0.155814 0.257094,0.09349 0.514187,0.225931 l -0.249303,0.66221 H 69.04343 q -0.03895,-0.01558 -0.0857,-0.04674 -0.04674,-0.03895 -0.09349,-0.0857 -0.04675,-0.04674 -0.10128,-0.09349 -0.04674,-0.04674 -0.10907,-0.09349 -0.10907,-0.0857 -0.249302,-0.163605 -0.140233,-0.07791 -0.303838,-0.148023 -0.132442,-0.06233 -0.303838,-0.09349 -0.163605,-0.03895 -0.358372,-0.04674 -0.03895,0 -0.0857,0.0078 -0.03895,0 -0.0857,0.0078 -0.07791,0.0078 -0.163605,0.02337 -0.07791,0.01558 -0.163605,0.03895 -0.288256,0.07791 -0.560931,0.249303 -0.264884,0.163605 -0.514187,0.420698 -0.241512,0.257094 -0.381745,0.631048 -0.140232,0.373954 -0.179186,0.88035 v 0.02337 0.03116 0.03116 0.03116 q -0.0078,0.576512 0.148024,1.043955 0.155814,0.467442 0.467442,0.825815 0.296047,0.335001 0.670001,0.514187 0.381745,0.171396 0.849188,0.194768 0.155814,-0.0078 0.296047,-0.02337 0.148023,-0.02337 0.288256,-0.05454 0.179186,-0.03895 0.303838,-0.09349 0.132442,-0.06233 0.22593,-0.132442 v -2.041166 h 0.311629 q 0.01558,0.01558 0.03116,0.02337 0.01558,0 0.03895,0.0078 0.01558,0.0078 0.03116,0.01558 0.01558,0 0.03116,0 0.0078,0 0.0078,0 0.0078,0 0.01558,0 0.0078,0.0078 0.0078,0.0078 0.0078,0 0.01558,0 0,0 0,0 0,0 0.0078,0 0,0 0,0 0,0 0,0 0.03895,-0.0078 0.0857,-0.01558 0.04675,-0.01558 0.09349,-0.02337 l 0.311628,-0.0078 v 2.267096 l -0.02337,0.02337 -0.02337,0.0078 q -0.03895,0.02337 -0.09349,0.03895 -0.04675,0.01558 -0.10128,0.03116 -0.05454,0.02337 -0.11686,0.03895 -0.06233,0.01558 -0.132442,0.03116 -0.140233,0.03116 -0.280466,0.05454 -0.140233,0.02337 -0.296047,0.03895 -0.140233,0.02337 -0.272675,0.03895 -0.124651,0.02337 -0.257093,0.03116 -0.124652,0.01558 -0.233721,0.02337 -0.10907,0.0078 -0.194768,0.0078 h -0.311629 q -0.01558,0 -0.03895,0 -0.01558,0 -0.03116,0 -0.01558,0 -0.03895,0 -0.01558,0 -0.03116,0 -0.662211,0 -1.184188,-0.179187 -0.521978,-0.179186 -0.911513,-0.560931 -0.381745,-0.373954 -0.576513,-0.872559 -0.194768,-0.506396 -0.194768,-1.137444 v -0.01558 z m 9.154081,2.64105 V 43.62939 h 0.311628 1.846398 q 0.01558,0.01558 0.03116,0.01558 0.02337,0 0.03895,0 0.01558,0 0.03116,0 0.02337,0 0.03895,0 0.249303,0.0078 0.475233,0.07012 0.225931,0.05454 0.43628,0.163605 0.210349,0.101279 0.311629,0.311628 0.109069,0.202559 0.109069,0.514187 v 0.02337 0.02337 0.03116 0.02337 q 0,0.233721 -0.0857,0.444071 -0.0857,0.202558 -0.249303,0.389535 -0.163605,0.186977 -0.373954,0.303838 -0.210349,0.10907 -0.459652,0.155814 0.272675,0.04674 0.514187,0.132442 0.241512,0.0857 0.43628,0.210349 0.202558,0.124652 0.296047,0.366164 0.101279,0.233721 0.101279,0.576512 0,0.412908 -0.140233,0.716745 -0.132442,0.296047 -0.405117,0.475234 -0.264884,0.186977 -0.568722,0.288256 -0.296047,0.09349 -0.623257,0.101279 h -0.311628 q -0.0078,0 -0.02337,0 -0.0078,0 -0.01558,0 -0.01558,0 -0.02337,0 -0.0078,0 -0.02337,0 -0.02337,0 -0.04674,0 -0.01558,0 -0.03116,0 h -1.597095 v 0 z m 0.98942,-0.303837 h 0.428489 q 0.272675,0.01558 0.483024,-0.04675 0.21814,-0.07012 0.389535,-0.202558 0.163605,-0.132442 0.272675,-0.272675 0.10907,-0.148023 0.163605,-0.311628 0,-0.01558 0,-0.03116 0.0078,-0.01558 0.01558,-0.03895 0,-0.01558 0,-0.03116 0.0078,-0.01558 0.0078,-0.03116 0.0078,-0.03116 0.0078,-0.06233 0.0078,-0.03116 0.0078,-0.06233 0,-0.389535 -0.124652,-0.646629 -0.11686,-0.264884 -0.366163,-0.389535 -0.210349,-0.10907 -0.529768,-0.171396 -0.319419,-0.06233 -0.755699,-0.07012 v 2.368376 z m 0,-2.703377 h 0.179186 q 0.342791,0.01558 0.607675,-0.04674 0.264885,-0.07012 0.451862,-0.202558 0.179186,-0.132443 0.280465,-0.32721 0.10907,-0.194768 0.132442,-0.451861 v -0.03116 l 0.0078,-0.02337 v -0.01558 -0.02337 q 0,-0.21814 -0.09349,-0.389535 -0.09349,-0.171396 -0.280465,-0.280466 -0.186977,-0.10907 -0.405117,-0.163605 -0.210349,-0.05454 -0.451861,-0.05454 l -0.428489,-0.01558 v 2.025584 z m 4.051164,3.007214 v -5.398962 h 0.311629 1.900933 q 0.389535,0.01558 0.677792,0.10907 0.296047,0.09349 0.483024,0.272675 0.186977,0.186977 0.280465,0.420698 0.09349,0.225931 0.09349,0.498606 0,0.264884 -0.07791,0.483024 -0.07012,0.210349 -0.225931,0.366163 -0.148024,0.155814 -0.319419,0.272675 -0.163605,0.116861 -0.342791,0.186977 -0.0857,0.03116 -0.171396,0.06233 -0.07791,0.03116 -0.163605,0.04674 -0.07791,0.02337 -0.155814,0.03895 -0.07791,0.0078 -0.140233,0.01558 l 2.08791,2.625469 h -0.311628 q -0.03116,0 -0.06233,0 -0.02337,0 -0.05454,-0.0078 -0.03116,0 -0.06233,0 -0.02337,-0.0078 -0.04675,-0.01558 -0.02337,0 -0.04674,0 -0.01558,0 -0.03116,0 -0.0078,0 -0.01558,0 -0.0078,0 -0.02337,0 -0.0078,0.0078 -0.01558,0.0078 -0.0078,0 -0.02337,0 -0.05454,0.0078 -0.11686,0.01558 -0.05454,0 -0.116861,0 h -0.311629 l -1.955468,-2.500818 v 2.500818 H 79.1246 q -0.02337,0 -0.04674,0 -0.02337,0 -0.04675,-0.0078 -0.0078,0 -0.02337,0 -0.0078,0 -0.01558,-0.0078 -0.01558,0 -0.02337,0 -0.0078,-0.0078 -0.02337,-0.0078 -0.0078,0 -0.01558,0 -0.0078,0 -0.0078,0 -0.0078,0.0078 -0.01558,0.0078 -0.0078,0 -0.01558,0 -0.04675,0.0078 -0.09349,0.01558 -0.04674,0 -0.09349,0 h -0.311629 v 0 z m 1.043955,-2.882562 q 0.01558,0.01558 0.03895,0.02337 0.02337,0 0.04674,0 0.296047,-0.0078 0.529768,-0.05454 0.233722,-0.04674 0.389536,-0.140233 0.179186,-0.101279 0.296047,-0.210349 0.124651,-0.116861 0.194768,-0.241512 0.05454,-0.0857 0.0857,-0.171396 0.03895,-0.09349 0.04675,-0.171395 0.01558,-0.0857 0.01558,-0.148024 0.0078,-0.06233 0.0078,-0.101279 0,-0.03895 -0.0078,-0.0857 -0.0078,-0.04674 -0.02337,-0.10907 -0.0078,-0.06233 -0.03895,-0.124651 -0.03116,-0.06233 -0.07012,-0.132442 -0.05454,-0.10128 -0.155814,-0.194768 -0.101279,-0.09349 -0.233722,-0.171396 -0.132442,-0.0857 -0.319419,-0.124651 -0.186977,-0.03895 -0.436279,-0.03895 l -0.366164,-0.01558 v 2.212562 0 z m 4.417328,-2.5164 q 0.03895,0.02337 0.07012,0.03895 0.03895,0.0078 0.0857,0.01558 0.0078,0 0.0078,0 0.0078,0 0.01558,0 0.0078,0 0.0078,0 0.0078,0 0.01558,0 0.04675,-0.0078 0.0857,-0.01558 0.04674,-0.01558 0.07791,-0.02337 l 0.311629,-0.0078 v 5.391171 h -0.311629 q -0.03116,0 -0.07791,0 -0.03895,-0.0078 -0.07791,-0.01558 -0.0078,0 -0.01558,0 0,0 -0.0078,0 -0.0078,0 -0.01558,0 -0.0078,0 -0.01558,0 -0.04674,0.0078 -0.0857,0.01558 -0.03116,0 -0.07012,0 h -0.311628 v -5.398962 h 0.311628 v 0 z m 2.461864,0 h 2.5164 q 0.670001,0.01558 1.129653,0.210349 0.467442,0.186978 0.732326,0.560932 0.264885,0.373954 0.397327,0.818024 0.132442,0.43628 0.132442,0.942676 0,0.124651 -0.01558,0.257093 -0.0078,0.132443 -0.03116,0.280466 -0.02337,0.148024 -0.06233,0.296047 -0.03116,0.140233 -0.0857,0.288256 -0.116861,0.311629 -0.319419,0.607676 -0.194768,0.288256 -0.475233,0.560931 -0.280466,0.264884 -0.693374,0.412907 -0.412907,0.148024 -0.950466,0.163605 h -0.311629 -2.274887 v -5.398962 h 0.311628 v 0 z m 0.740118,0.373954 v 4.658845 q 0.09349,0.01558 0.179186,0.02337 0.09349,0.0078 0.179187,0.01558 0.02337,0 0.03895,0 0.02337,0 0.03895,0 0.02337,0.0078 0.03895,0.0078 0.02337,0 0.03895,0 0.631047,-0.01558 1.09849,-0.155814 0.467442,-0.140233 0.755699,-0.405117 0.303837,-0.280465 0.475233,-0.763489 0.179186,-0.483025 0.21814,-1.160816 0,-0.01558 0,-0.03116 0,-0.01558 0.0078,-0.03116 0,-0.01558 0,-0.03116 0,-0.01558 0,-0.03116 0,-0.03116 0,-0.05454 0,-0.03116 0,-0.06232 0,-0.529769 -0.140233,-0.895932 -0.132442,-0.366163 -0.405117,-0.576512 -0.272675,-0.21035 -0.576513,-0.342792 -0.296047,-0.132442 -0.623256,-0.179186 -0.03895,-0.0078 -0.07791,-0.0078 -0.03895,-0.0078 -0.07791,-0.0078 -0.04674,-0.0078 -0.0857,-0.0078 -0.03895,-0.0078 -0.07791,-0.0078 -0.02337,0 -0.04674,0 -0.02337,-0.0078 -0.03895,-0.0078 -0.02337,0 -0.04675,0 -0.02337,0 -0.04674,0 -0.02337,0 -0.04674,0 -0.02337,0 -0.04674,0 -0.03116,0 -0.05454,0.0078 -0.02337,0 -0.04675,0 -0.0857,0.0078 -0.163605,0.01558 -0.07791,0 -0.148023,0.0078 -0.05454,0.0078 -0.101279,0.01558 -0.04674,0 -0.0857,0 -0.03895,0.0078 -0.07791,0.01558 -0.03116,0 -0.05454,0 z m 5.032794,2.383958 q 0.03116,-0.615466 0.179187,-1.075118 0.155814,-0.459652 0.428489,-0.755699 0.272675,-0.296047 0.568722,-0.498606 0.303837,-0.202558 0.631047,-0.311628 0.171396,-0.06233 0.335001,-0.101279 0.171395,-0.03895 0.335,-0.06233 0.163605,-0.02337 0.311629,-0.03895 0.155814,-0.01558 0.280465,-0.02337 l 0.311629,-0.0078 q 0.249302,0.0078 0.498605,0.03895 0.257093,0.02337 0.514187,0.07791 0.249303,0.05454 0.498605,0.155814 0.257094,0.09349 0.514187,0.225931 l -0.249303,0.66221 h -0.311628 q -0.03895,-0.01558 -0.0857,-0.04674 -0.04674,-0.03895 -0.09349,-0.0857 -0.04674,-0.04674 -0.101279,-0.09349 -0.04675,-0.04674 -0.10907,-0.09349 -0.10907,-0.0857 -0.249303,-0.163605 -0.140233,-0.07791 -0.303838,-0.148023 -0.132442,-0.06233 -0.303837,-0.09349 -0.163605,-0.03895 -0.358373,-0.04674 -0.03895,0 -0.0857,0.0078 -0.03895,0 -0.0857,0.0078 -0.07791,0.0078 -0.163605,0.02337 -0.07791,0.01558 -0.163605,0.03895 -0.288256,0.07791 -0.560931,0.249303 -0.264884,0.163605 -0.514187,0.420698 -0.241512,0.257094 -0.381744,0.631048 -0.140233,0.373954 -0.179187,0.88035 v 0.02337 0.03116 0.03116 0.03116 q -0.0078,0.576512 0.148024,1.043955 0.155814,0.467442 0.467442,0.825815 0.296047,0.335001 0.670001,0.514187 0.381745,0.171396 0.849188,0.194768 0.155814,-0.0078 0.296047,-0.02337 0.148023,-0.02337 0.288256,-0.05454 0.179186,-0.03895 0.303838,-0.09349 0.132442,-0.06233 0.22593,-0.132442 v -2.041166 h 0.311629 q 0.01558,0.01558 0.03116,0.02337 0.01558,0 0.03895,0.0078 0.01558,0.0078 0.03116,0.01558 0.01558,0 0.03116,0 0.0078,0 0.0078,0 0.0078,0 0.01558,0 0.0078,0.0078 0.0078,0.0078 0.0078,0 0.01558,0 0,0 0,0 0,0 0.0078,0 0,0 0,0 0,0 0,0 0.03895,-0.0078 0.0857,-0.01558 0.04674,-0.01558 0.09349,-0.02337 l 0.311629,-0.0078 v 2.267096 l -0.02337,0.02337 -0.02337,0.0078 q -0.03895,0.02337 -0.09349,0.03895 -0.04675,0.01558 -0.101279,0.03116 -0.05454,0.02337 -0.116861,0.03895 -0.06233,0.01558 -0.132442,0.03116 -0.140233,0.03116 -0.280466,0.05454 -0.140233,0.02337 -0.296047,0.03895 -0.140233,0.02337 -0.272675,0.03895 -0.124651,0.02337 -0.257093,0.03116 -0.124651,0.01558 -0.233721,0.02337 -0.10907,0.0078 -0.194768,0.0078 h -0.311628 q -0.01558,0 -0.03895,0 -0.01558,0 -0.03116,0 -0.01558,0 -0.03895,0 -0.01558,0 -0.03116,0 -0.662211,0 -1.184188,-0.179187 Q 93.249148,48.732305 92.859613,48.35056 92.477868,47.976606 92.2831,47.478001 92.088332,46.971605 92.088332,46.340557 v -0.01558 z m 6.637685,2.64105 V 43.62939 h 0.311629 2.820234 q -0.008,0.03895 -0.0156,0.07012 -0.008,0.02337 -0.0156,0.04675 0,0.0078 -0.008,0.02337 0,0.0078 0,0.01558 -0.008,0.01558 -0.008,0.02337 0,0.0078 0,0.02337 v 0.01558 0.03116 q 0,0.03895 0,0.07012 0,0.02337 0.008,0.05454 0,0.01558 0,0.03116 0.008,0.01558 0.0156,0.03116 0.008,0.02337 0.008,0.03895 0.008,0.01558 0.0156,0.03116 l -0.31163,-0.0078 q -0.11686,-0.01558 -0.23372,-0.03116 -0.11686,-0.01558 -0.2493,-0.02337 -0.12465,-0.0078 -0.25709,-0.0078 -0.12465,-0.0078 -0.2571,-0.0078 0,0 0,0 0,0 0,0 -0.008,0 -0.008,0 0,0 0,0 -0.0312,0.0078 -0.0623,0.0078 -0.0234,0 -0.0545,0 -0.0312,0 -0.0623,0 -0.0312,0 -0.0545,0 -0.0312,0 -0.0701,0 -0.0312,0 -0.0701,0 -0.0312,0.0078 -0.0701,0.0078 -0.0312,0 -0.0623,0 -0.07012,0 -0.140236,0 -0.06233,0 -0.124652,0 v 1.885352 h 0.856978 l 0.73233,-0.06233 h 0.31163 q -0.008,0.03895 -0.0234,0.07012 -0.008,0.02337 -0.0156,0.04674 -0.008,0.03116 -0.008,0.06233 0,0.02337 0,0.05454 0,0.01558 0,0.03116 0,0.01558 0,0.03116 0,0.02337 0,0.03895 0.008,0.01558 0.008,0.03116 0.008,0.03116 0.0156,0.07012 0.0156,0.03116 0.0234,0.07012 l -0.31163,-0.0078 -0.91931,-0.07012 h -0.669998 v 2.212561 q 0.05454,0.01558 0.116861,0.02337 0.06233,0.0078 0.132447,0.0078 0.0623,0.0078 0.12465,0.0078 0.0623,0 0.13244,0 0.0389,0 0.0701,0 0.0312,0 0.0623,-0.0078 0.0312,0 0.0623,0 0.0389,0 0.0701,0 0.15582,-0.0078 0.30384,-0.01558 0.14802,-0.0078 0.29605,-0.01558 0.14023,-0.01558 0.25709,-0.02337 0.11686,-0.01558 0.21035,-0.02337 l 0.31163,-0.0078 q -0.008,0.03895 -0.0234,0.07791 -0.008,0.03116 -0.0156,0.07012 -0.008,0.03116 -0.008,0.06233 0,0.03116 0,0.06233 0,0.03116 0,0.06233 0,0.03116 0.008,0.06233 0.008,0.03116 0.0156,0.05454 0.0156,0.02337 0.0234,0.03116 h -0.31163 -2.882563 v 0 z"
         id="text8"
         aria-label="XIULANG BRIDGE" />
    </g>
  </g>
</svg>
