<?xml version="1.0" encoding="UTF-8" standalone="no"?>
<!-- Created with Inkscape (http://www.inkscape.org/) -->

<svg
   width="500"
   height="250"
   viewBox="0 0 132.29166 66.145833"
   version="1.1"
   id="svg1"
   inkscape:version="1.3.2 (091e20e, 2023-11-25, custom)"
   sodipodi:docname="y10.svg"
   xmlns:inkscape="http://www.inkscape.org/namespaces/inkscape"
   xmlns:sodipodi="http://sodipodi.sourceforge.net/DTD/sodipodi-0.dtd"
   xmlns="http://www.w3.org/2000/svg"
   xmlns:svg="http://www.w3.org/2000/svg">
  <sodipodi:namedview
     id="namedview1"
     pagecolor="#9e652e"
     bordercolor="#ffffff"
     borderopacity="1"
     inkscape:showpageshadow="0"
     inkscape:pageopacity="0"
     inkscape:pagecheckerboard="false"
     inkscape:deskcolor="#d1d1d1"
     inkscape:document-units="mm"
     inkscape:zoom="2.0208096"
     inkscape:cx="276.12695"
     inkscape:cy="127.17675"
     inkscape:window-width="1920"
     inkscape:window-height="1009"
     inkscape:window-x="1912"
     inkscape:window-y="-8"
     inkscape:window-maximized="1"
     inkscape:current-layer="layer1" />
  <defs
     id="defs1">
    <rect
       x="157.85752"
       y="62.351248"
       width="329.07603"
       height="135.09437"
       id="rect4" />
  </defs>
  <g
     inkscape:label="Layer 1"
     inkscape:groupmode="layer"
     id="layer1">
    <path
       id="rect5"
       style="fill:#ffffff;stroke-width:0.953294"
       d="M -2.5431316e-6,-1.2715658e-6 H 132.29167 V 66.145835 H -2.5431316e-6 Z" />
    <g
       id="g1"
       transform="matrix(1.121508,0,0,1.121508,22.126542,-3.0133416)">
      <path
         id="rect6"
         style="fill:none;stroke:#000000;stroke-width:0.575409"
         d="m 9.3009131,19.849001 h 5.7010479 c 1.810115,0 3.267355,1.45724 3.267355,3.267355 v 9.524719 c 0,1.810115 -1.45724,3.267355 -3.267355,3.267355 H 9.3009131 c -1.8101145,0 -3.2673547,-1.45724 -3.2673547,-3.267355 v -9.524719 c 0,-1.810115 1.4572402,-3.267355 3.2673547,-3.267355 z" />
      <path
         style="font-weight:bold;font-size:5.82083px;line-height:1.25;font-family:'Optima Bold';-inkscape-font-specification:'Optima Bold,  Bold';stroke-width:0.264583"
         d="m 11.768055,25.2551 -1.420282,-2.293407 h 0.232833 q 0.04657,0.01746 0.09313,0.0291 0.05239,0.0058 0.09313,0.01164 0.01164,0 0.01746,0 0.01164,0 0.01746,0 0,0 0,0 0.0058,0 0.0058,0 0,0 0,0 0.0058,0 0.0058,0 0.0291,0 0.05239,0 0.0291,0 0.05239,-0.0058 0.0291,-0.0058 0.05821,-0.01164 0.0291,-0.0058 0.05821,-0.01164 l 0.232833,-0.0058 0.98372,1.711324 0.937154,-1.717145 h 0.232833 q 0.0291,0.01746 0.05821,0.0291 0.03492,0.0058 0.06403,0.01164 0.0058,0 0.01164,0 0.01164,0 0.01746,0 0.0058,0 0.01164,0 0.01164,-0.0058 0.01746,-0.0058 0.02328,-0.0058 0.04657,-0.01164 0.02328,-0.0058 0.04657,-0.01164 l 0.232833,-0.0058 q -0.03492,0.05239 -0.06985,0.09895 -0.0291,0.04657 -0.05821,0.09313 -0.03492,0.04657 -0.06985,0.09313 -0.0291,0.04657 -0.05821,0.09313 -0.03492,0.04657 -0.06985,0.09895 -0.0291,0.04657 -0.05821,0.09313 -0.03493,0.04657 -0.06985,0.09895 -0.0291,0.04657 -0.05821,0.09313 -0.128058,0.192088 -0.244475,0.378354 -0.116416,0.186267 -0.232833,0.372533 -0.110596,0.186267 -0.20955,0.360892 -0.09895,0.174625 -0.180445,0.331787 v 1.775353 h -0.232834 q -0.03492,0 -0.06985,0 -0.0291,-0.0058 -0.05821,-0.01164 0,0 -0.0058,0 0,0 0,0 0,0 -0.0058,0 0,0 0,0 -0.0058,0 -0.01164,0 0,0 -0.0058,0 -0.03493,0.0058 -0.07567,0.01164 -0.03493,0 -0.08149,0 h -0.232834 v -1.693861 0 z"
         id="text6"
         aria-label="Y" />
      <path
         style="font-weight:bold;font-size:5.82083px;line-height:1.25;font-family:'Optima Bold';-inkscape-font-specification:'Optima Bold,  Bold';stroke-width:0.264583"
         d="m 9.3516163,29.278575 q 0.1688041,-0.07567 0.3317873,-0.151341 0.1688041,-0.07567 0.3317874,-0.151342 0.162983,-0.06985 0.291041,-0.1397 0.133879,-0.06985 0.238654,-0.1397 l 0.232834,-0.0058 0.1397,0.04075 v 3.987269 h -0.232834 q -0.03492,-0.0058 -0.06403,-0.01746 -0.0291,-0.0058 -0.05821,-0.01164 -0.03492,0.0058 -0.06985,0.01164 -0.03493,0.01164 -0.08149,0.01746 H 10.178174 V 29.278575 L 9.7707161,29.511409 H 9.5378829 q -0.00582,0 -0.017462,-0.0058 -0.00582,-0.01164 -0.017463,-0.0291 -0.00582,-0.01164 -0.011642,-0.01746 -0.00582,-0.01164 -0.00582,-0.01746 -0.00582,-0.01164 -0.011642,-0.01746 -0.00582,-0.01164 -0.011642,-0.01746 -0.00582,-0.01164 -0.011642,-0.01746 -0.00582,-0.0058 -0.011642,-0.01746 -0.011642,-0.0058 -0.017462,-0.01164 -0.00582,-0.01164 -0.011642,-0.01746 -0.011642,-0.01746 -0.029104,-0.0291 -0.011642,-0.01746 -0.029104,-0.02328 v -0.01164 z m 3.1199697,1.513416 q 0,-0.0058 0,-0.01164 0,-0.01164 0,-0.0291 0,-0.01164 0,-0.0291 0.0058,-0.01746 0.01164,-0.03493 0,-0.07567 0.0058,-0.168804 0.01164,-0.09895 0.01746,-0.215371 0.01164,-0.116416 0.0291,-0.238654 0.02328,-0.128058 0.05821,-0.256116 0.05239,-0.203729 0.151341,-0.384175 0.09896,-0.186266 0.244475,-0.34925 0.1397,-0.168804 0.366713,-0.250295 0.227012,-0.08149 0.535516,-0.08149 l 0.232833,-0.0058 q 0.285221,0.0058 0.494771,0.09313 0.20955,0.08149 0.349249,0.250296 0.1397,0.168804 0.232834,0.355071 0.09895,0.180445 0.151341,0.384175 0.04075,0.151341 0.06403,0.296862 0.02328,0.145521 0.0291,0.2794 0.0058,0.1397 0.0058,0.244475 0.0058,0.09895 0.0058,0.162983 0,0.06985 -0.01164,0.168804 -0.0058,0.09313 -0.01746,0.215371 -0.01164,0.122237 -0.04075,0.250295 -0.02328,0.128058 -0.06403,0.261938 -0.05821,0.192087 -0.162983,0.372533 -0.09895,0.174625 -0.238654,0.331787 -0.1397,0.162983 -0.34925,0.238654 -0.203729,0.07567 -0.477308,0.07567 h -0.232833 -0.01746 -0.01164 -0.01746 -0.01164 q -0.349249,0 -0.599545,-0.128058 -0.244475,-0.128059 -0.395816,-0.395817 -0.145521,-0.261937 -0.232834,-0.552979 -0.08149,-0.296862 -0.09895,-0.617008 0,-0.01164 0,-0.02328 0,-0.01746 0,-0.03493 -0.0058,-0.01164 -0.0058,-0.02328 0,-0.01746 0,-0.0291 0,-0.01164 0,-0.02328 0,-0.01746 0,-0.03492 0,-0.01164 0,-0.02328 0,-0.01746 0,-0.0291 v -0.01164 z m 0.739246,0.09895 q 0,0.07567 0,0.151342 0.0058,0.07567 0.01164,0.157162 0,0.04075 0.0058,0.08731 0.0058,0.04075 0.01164,0.08149 0.0058,0.04657 0.01164,0.08731 0.01164,0.04075 0.01746,0.08731 0.03492,0.180446 0.09895,0.34925 0.06403,0.162983 0.157163,0.314325 0.08149,0.128058 0.186266,0.197908 0.110596,0.06985 0.256117,0.09313 0.180445,-0.02328 0.302683,-0.110596 0.128058,-0.09313 0.203729,-0.250295 0.08731,-0.186267 0.1397,-0.384175 0.05821,-0.203729 0.08149,-0.4191 0.0058,-0.04075 0.0058,-0.08149 0.0058,-0.04075 0.0058,-0.08149 0.0058,-0.03493 0.0058,-0.07567 0,-0.04075 0,-0.08149 0,-0.04075 0,-0.07567 0,-0.04075 0.0058,-0.08149 0,-0.03493 0,-0.06985 0,-0.04075 0,-0.07567 0,-0.378353 -0.05821,-0.692678 -0.05239,-0.314325 -0.157162,-0.5588 -0.09313,-0.215371 -0.221191,-0.331787 -0.122238,-0.122238 -0.2794,-0.151342 -0.256117,0.03492 -0.4191,0.192088 -0.162983,0.151341 -0.227012,0.42492 -0.07567,0.291042 -0.110596,0.617008 -0.03492,0.325967 -0.03492,0.686858 z"
         id="text6-8"
         aria-label="10" />
    </g>
    <g
       id="g2"
       transform="translate(3.3051826,-2.6369997)">
      <path
         style="font-weight:600;font-size:18.3502px;line-height:1.25;font-family:'Noto Serif TC';-inkscape-font-specification:'Noto Serif TC Semi-Bold';letter-spacing:1.96609px;stroke-width:0.327681"
         d="m 56.380072,23.888922 v 1.394615 H 48.87484 v -1.394615 z m -7.505232,3.358087 v -1.431316 h 7.505232 v 1.431316 z m 0,0.532156 h 7.505232 v 0.734008 h 0.293603 c 0.568857,0 1.431316,-0.330304 1.449666,-0.440405 v -3.871893 c 0.367004,-0.0734 0.642257,-0.238552 0.770709,-0.385354 l -1.83502,-1.394615 -0.86246,0.93586 h -7.211629 l -1.83502,-0.752358 v 6.184018 h 0.256903 c 0.697308,0 1.468016,-0.348654 1.468016,-0.532156 z m 0.458755,4.055394 h 6.551022 v 2.091923 h -6.551022 z m 6.551022,2.624079 v 0.642257 h 0.293603 c 0.568856,0 1.449666,-0.293604 1.468016,-0.422055 v -2.550678 c 0.367004,-0.0734 0.642257,-0.238552 0.770709,-0.367004 l -1.853371,-1.394615 -0.862459,0.93586 h -6.257419 l -1.85337,-0.752358 v 4.716001 h 0.238553 c 0.146801,0 0.311953,-0.01835 0.477105,-0.05505 -0.825759,1.156063 -2.367176,2.624079 -3.890243,3.504888 l 0.146802,0.220203 c 2.073573,-0.513806 4.165496,-1.614818 5.303208,-2.67913 0.422055,0.0734 0.568856,-0.01835 0.660607,-0.201852 l -1.926771,-0.91751 c 0.422055,-0.110101 0.734008,-0.293603 0.734008,-0.385354 v -0.293603 h 2.367176 v 2.75253 c 0,0.201852 -0.09175,0.311953 -0.367004,0.311953 -0.367004,0 -2.000172,-0.110101 -2.000172,-0.110101 v 0.256903 c 0.825759,0.110101 1.211113,0.311953 1.431316,0.550506 0.238552,0.238552 0.330303,0.623907 0.348654,1.137712 2.018522,-0.183502 2.330475,-0.91751 2.330475,-2.110273 v -2.78923 z m -1.192763,1.247813 c 1.963471,0.935861 3.358087,2.293775 3.871892,3.119534 1.79832,0.935861 3.027783,-2.917681 -3.780141,-3.376437 z m 3.468188,-6.202368 h -5.174757 c 0.789059,-0.367004 0.789059,-1.87172 -1.79832,-1.596467 l -0.146801,0.128451 c 0.440405,0.293604 0.95421,0.88081 1.101012,1.412966 l 0.110101,0.05505 H 44.26894 l 0.146801,0.513806 h 16.019726 c 0.256902,0 0.440404,-0.09175 0.495455,-0.293603 -0.678957,-0.623907 -1.79832,-1.449666 -1.79832,-1.449666 z M 78.182728,31.92631 H 73.72363 v -7.615333 h 6.42257 c 0.256903,0 0.458755,-0.09175 0.495455,-0.293604 -0.789058,-0.660607 -2.091923,-1.596467 -2.091923,-1.596467 L 77.41202,23.778821 H 65.227487 l 0.165152,0.532156 h 6.551021 v 7.615333 h -7.578633 l 0.146802,0.532156 h 7.431831 v 6.899675 h 0.311954 c 0.91751,0 1.468016,-0.385354 1.468016,-0.513805 v -6.38587 h 7.174928 c 0.275253,0 0.477105,-0.09175 0.513806,-0.293603 -0.770709,-0.697308 -2.073573,-1.651518 -2.073573,-1.651518 z M 66.805604,25.50374 c 0.715658,1.339564 1.468016,3.229635 1.559767,4.826103 1.706569,1.633167 3.449838,-2.165324 -1.339565,-4.936204 z m 8.532843,5.450009 c 1.266164,-1.101012 2.550678,-2.697479 3.578289,-4.367347 0.403705,0.0367 0.642257,-0.128452 0.715658,-0.330304 l -2.422226,-0.89916 c -0.587207,1.926771 -1.431316,4.092095 -2.110273,5.43166 z"
         id="text7"
         aria-label="景平" />
      <path
         style="font-weight:bold;font-size:7.79071px;line-height:1.25;font-family:'Optima Bold';-inkscape-font-specification:'Optima Bold,  Bold';stroke-width:0.354123"
         d="m 45.514111,43.567064 q 0.03895,0.02337 0.07012,0.03895 0.03895,0.0078 0.0857,0.01558 0.0078,0 0.0078,0 0.0078,0 0.01558,0 0.0078,0 0.0078,0 0.0078,0 0.01558,0 0.04674,-0.0078 0.0857,-0.01558 0.04674,-0.01558 0.07791,-0.02337 l 0.311628,-0.0078 v 5.025008 q 0,0.296047 -0.10907,0.537559 -0.10907,0.241512 -0.335,0.451861 -0.21814,0.210349 -0.483024,0.311629 -0.257094,0.109069 -0.560932,0.11686 h -0.311628 -0.03116 -0.01558 l -0.02337,-0.0078 h -0.03116 l -0.0078,-0.249302 q 0.319419,-0.02337 0.514187,-0.148024 0.194768,-0.124651 0.264884,-0.350582 0.07012,-0.21814 0.101279,-0.483024 0.03895,-0.272675 0.03895,-0.592094 v -4.619891 h 0.311628 v 0 z m 2.337213,0 q 0.03895,0.02337 0.07012,0.03895 0.03895,0.0078 0.0857,0.01558 0.0078,0 0.0078,0 0.0078,0 0.01558,0 0.0078,0 0.0078,0 0.0078,0 0.01558,0 0.04674,-0.0078 0.0857,-0.01558 0.04674,-0.01558 0.07791,-0.02337 l 0.311629,-0.0078 v 5.391171 h -0.311629 q -0.03116,0 -0.07791,0 -0.03895,-0.0078 -0.07791,-0.01558 -0.0078,0 -0.01558,0 0,0 -0.0078,0 -0.0078,0 -0.01558,0 -0.0078,0 -0.01558,0 -0.04674,0.0078 -0.0857,0.01558 -0.03116,0 -0.07012,0 h -0.311628 v -5.398962 h 0.311628 v 0 z m 2.150236,5.398962 v -5.398962 h 0.311628 0.373954 l 3.427913,3.770704 v -3.770704 h 0.311628 q 0.01558,0.02337 0.03895,0.03116 0.02337,0.0078 0.04674,0.01558 0.03116,-0.0078 0.05454,-0.01558 0.02337,-0.0078 0.03895,-0.01558 l 0.311628,-0.0078 v 5.391171 H 54.60587 54.302032 l -3.498029,-3.887564 v 3.887564 h -0.311628 q -0.0078,0 -0.01558,0 -0.0078,0 -0.01558,0 -0.01558,0 -0.02337,0 -0.0078,-0.0078 -0.01558,-0.0078 -0.01558,0 -0.03116,0 -0.0078,0 -0.02337,0.0078 -0.01558,0 -0.03116,0 -0.0078,0 -0.02337,0 H 50.00156 v 0 z m 6.084542,-2.64105 q 0.03116,-0.615466 0.179186,-1.075118 0.155814,-0.459652 0.428489,-0.755699 0.272675,-0.296047 0.568722,-0.498606 0.303838,-0.202558 0.631048,-0.311628 0.171395,-0.06233 0.335,-0.101279 0.171396,-0.03895 0.335001,-0.06233 0.163605,-0.02337 0.311628,-0.03895 0.155814,-0.01558 0.280466,-0.02337 l 0.311628,-0.0078 q 0.249303,0.0078 0.498605,0.03895 0.257094,0.02337 0.514187,0.07791 0.249303,0.05454 0.498606,0.155814 0.257093,0.09349 0.514187,0.225931 l -0.249303,0.66221 h -0.311629 q -0.03895,-0.01558 -0.0857,-0.04674 -0.04675,-0.03895 -0.09349,-0.0857 -0.04674,-0.04674 -0.101279,-0.09349 -0.04674,-0.04674 -0.10907,-0.09349 -0.10907,-0.0857 -0.249303,-0.163605 -0.140233,-0.07791 -0.303837,-0.148023 -0.132443,-0.06233 -0.303838,-0.09349 -0.163605,-0.03895 -0.358373,-0.04674 -0.03895,0 -0.0857,0.0078 -0.03895,0 -0.0857,0.0078 -0.07791,0.0078 -0.163605,0.02337 -0.07791,0.01558 -0.163605,0.03895 -0.288257,0.07791 -0.560931,0.249303 -0.264884,0.163605 -0.514187,0.420698 -0.241512,0.257094 -0.381745,0.631048 -0.140233,0.373954 -0.179186,0.88035 v 0.02337 0.03116 0.03116 0.03116 q -0.0078,0.576512 0.148023,1.043955 0.155814,0.467442 0.467443,0.825815 0.296047,0.335001 0.670001,0.514187 0.381745,0.171396 0.849187,0.194768 0.155814,-0.0078 0.296047,-0.02337 0.148024,-0.02337 0.288256,-0.05454 0.179187,-0.03895 0.303838,-0.09349 0.132442,-0.06233 0.225931,-0.132442 v -2.041166 h 0.311628 q 0.01558,0.01558 0.03116,0.02337 0.01558,0 0.03895,0.0078 0.01558,0.0078 0.03116,0.01558 0.01558,0 0.03116,0 0.0078,0 0.0078,0 0.0078,0 0.01558,0 0.0078,0.0078 0.0078,0.0078 0.0078,0 0.01558,0 0,0 0,0 0,0 0.0078,0 0,0 0,0 0,0 0,0 0.03895,-0.0078 0.0857,-0.01558 0.04674,-0.01558 0.09349,-0.02337 l 0.311629,-0.0078 v 2.267096 l -0.02337,0.02337 -0.02337,0.0078 q -0.03895,0.02337 -0.09349,0.03895 -0.04674,0.01558 -0.101279,0.03116 -0.05454,0.02337 -0.116861,0.03895 -0.06233,0.01558 -0.132442,0.03116 -0.140233,0.03116 -0.280465,0.05454 -0.140233,0.02337 -0.296047,0.03895 -0.140233,0.02337 -0.272675,0.03895 -0.124652,0.02337 -0.257094,0.03116 -0.124651,0.01558 -0.233721,0.02337 -0.10907,0.0078 -0.194768,0.0078 h -0.311628 q -0.01558,0 -0.03895,0 -0.01558,0 -0.03116,0 -0.01558,0 -0.03895,0 -0.01558,0 -0.03116,0 -0.66221,0 -1.184188,-0.179187 -0.521977,-0.179186 -0.911513,-0.560931 -0.381745,-0.373954 -0.576512,-0.872559 -0.194768,-0.506396 -0.194768,-1.137444 v -0.01558 z m 6.824659,-2.757912 h 1.963259 q 0.389535,0.01558 0.677791,0.10128 0.296047,0.07791 0.483024,0.233721 0.186977,0.155814 0.280466,0.389535 0.09349,0.225931 0.09349,0.521978 v 0.02337 l 0.0078,0.03116 v 0.03116 0.03116 q 0,0.358372 -0.11686,0.615466 -0.116861,0.257093 -0.342792,0.436279 -0.22593,0.171396 -0.475233,0.288257 -0.249303,0.11686 -0.521978,0.179186 -0.101279,0.02337 -0.202558,0.03895 -0.09349,0.0078 -0.186977,0.02337 -0.09349,0.0078 -0.186977,0.01558 -0.0857,0 -0.171396,0 l -0.311628,-0.0078 q -0.07012,0.0078 -0.132442,0.0078 -0.06233,0 -0.124652,-0.0078 v 2.446283 h -0.311628 q -0.04674,0 -0.09349,0 -0.03895,-0.0078 -0.07791,-0.01558 0,0 -0.0078,0 0,0 0,0 0,0 -0.0078,0 0,0 0,0 -0.0078,0 -0.01558,0 0,0 -0.0078,0 -0.04674,0.0078 -0.101279,0.01558 -0.04675,0 -0.10907,0 h -0.311629 v -5.398962 h 0.311629 v 0 z m 0.732326,2.578725 h 0.428489 q 0.280466,0.01558 0.498606,-0.07012 0.21814,-0.09349 0.373954,-0.264884 0.155814,-0.179187 0.241512,-0.373954 0.09349,-0.194768 0.116861,-0.412908 0,-0.0078 0,-0.01558 0,-0.0078 0.0078,-0.01558 0,-0.0078 0,-0.01558 0,-0.0078 0,-0.01558 0,-0.01558 0,-0.03116 0,-0.01558 0,-0.03116 0,-0.202559 -0.06233,-0.373954 -0.06233,-0.179187 -0.186977,-0.335001 -0.124652,-0.155814 -0.311629,-0.233721 -0.186977,-0.07791 -0.43628,-0.07791 l 0.311629,-0.0078 h -0.03116 -0.02337 l -0.03116,0.0078 h -0.311628 -0.03116 l -0.553141,-0.0078 v 2.274887 z m 4.113503,-2.578725 q 0.03895,0.02337 0.07012,0.03895 0.03895,0.0078 0.0857,0.01558 0.0078,0 0.0078,0 0.0078,0 0.01558,0 0.0078,0 0.0078,0 0.0078,0 0.01558,0 0.04674,-0.0078 0.0857,-0.01558 0.04674,-0.01558 0.07791,-0.02337 l 0.311628,-0.0078 v 5.391171 h -0.311628 q -0.03116,0 -0.07791,0 -0.03895,-0.0078 -0.07791,-0.01558 -0.0078,0 -0.01558,0 0,0 -0.0078,0 -0.0078,0 -0.01558,0 -0.0078,0 -0.01558,0 -0.04674,0.0078 -0.0857,0.01558 -0.03116,0 -0.07012,0 h -0.311628 v -5.398962 h 0.311628 v 0 z m 2.150236,5.398962 v -5.398962 h 0.311629 0.373954 l 3.427912,3.770704 v -3.770704 h 0.311629 q 0.01558,0.02337 0.03895,0.03116 0.02337,0.0078 0.04674,0.01558 0.03116,-0.0078 0.05454,-0.01558 0.02337,-0.0078 0.03895,-0.01558 l 0.311628,-0.0078 v 5.391171 h -0.311628 -0.303838 l -3.498029,-3.887564 v 3.887564 h -0.311628 q -0.0078,0 -0.01558,0 -0.0078,0 -0.01558,0 -0.01558,0 -0.02337,0 -0.0078,-0.0078 -0.01558,-0.0078 -0.01558,0 -0.03116,0 -0.0078,0 -0.02337,0.0078 -0.01558,0 -0.03116,0 -0.0078,0 -0.02337,0 h -0.311629 v 0 z m 6.084543,-2.64105 q 0.03116,-0.615466 0.179186,-1.075118 0.155814,-0.459652 0.428489,-0.755699 0.272675,-0.296047 0.568722,-0.498606 0.303838,-0.202558 0.631047,-0.311628 0.171396,-0.06233 0.335001,-0.101279 0.171395,-0.03895 0.335,-0.06233 0.163605,-0.02337 0.311629,-0.03895 0.155814,-0.01558 0.280465,-0.02337 l 0.311629,-0.0078 q 0.249302,0.0078 0.498605,0.03895 0.257094,0.02337 0.514187,0.07791 0.249303,0.05454 0.498605,0.155814 0.257094,0.09349 0.514187,0.225931 l -0.249302,0.66221 H 80.83719 q -0.03895,-0.01558 -0.0857,-0.04674 -0.04674,-0.03895 -0.09349,-0.0857 -0.04674,-0.04674 -0.101279,-0.09349 -0.04675,-0.04674 -0.10907,-0.09349 -0.10907,-0.0857 -0.249303,-0.163605 -0.140233,-0.07791 -0.303838,-0.148023 -0.132442,-0.06233 -0.303837,-0.09349 -0.163605,-0.03895 -0.358373,-0.04674 -0.03895,0 -0.0857,0.0078 -0.03895,0 -0.0857,0.0078 -0.07791,0.0078 -0.163605,0.02337 -0.07791,0.01558 -0.163604,0.03895 -0.288257,0.07791 -0.560932,0.249303 -0.264884,0.163605 -0.514186,0.420698 -0.241512,0.257094 -0.381745,0.631048 -0.140233,0.373954 -0.179187,0.88035 v 0.02337 0.03116 0.03116 0.03116 q -0.0078,0.576512 0.148024,1.043955 0.155814,0.467442 0.467443,0.825815 0.296046,0.335001 0.670001,0.514187 0.381744,0.171396 0.849187,0.194768 0.155814,-0.0078 0.296047,-0.02337 0.148023,-0.02337 0.288256,-0.05454 0.179187,-0.03895 0.303838,-0.09349 0.132442,-0.06233 0.22593,-0.132442 v -2.041166 h 0.311629 q 0.01558,0.01558 0.03116,0.02337 0.01558,0 0.03895,0.0078 0.01558,0.0078 0.03116,0.01558 0.01558,0 0.03116,0 0.0078,0 0.0078,0 0.0078,0 0.01558,0 0.0078,0.0078 0.0078,0.0078 0.0078,0 0.01558,0 0,0 0,0 0,0 0.0078,0 0,0 0,0 0,0 0,0 0.03895,-0.0078 0.0857,-0.01558 0.04674,-0.01558 0.09349,-0.02337 l 0.311629,-0.0078 v 2.267096 l -0.02337,0.02337 -0.02337,0.0078 q -0.03895,0.02337 -0.09349,0.03895 -0.04674,0.01558 -0.101279,0.03116 -0.05454,0.02337 -0.116861,0.03895 -0.06233,0.01558 -0.132442,0.03116 -0.140233,0.03116 -0.280466,0.05454 -0.140232,0.02337 -0.296047,0.03895 -0.140232,0.02337 -0.272674,0.03895 -0.124652,0.02337 -0.257094,0.03116 -0.124651,0.01558 -0.233721,0.02337 -0.10907,0.0078 -0.194768,0.0078 h -0.311628 q -0.01558,0 -0.03895,0 -0.01558,0 -0.03116,0 -0.01558,0 -0.03895,0 -0.01558,0 -0.03116,0 -0.66221,0 -1.184188,-0.179187 -0.521978,-0.179186 -0.911513,-0.560931 -0.381745,-0.373954 -0.576513,-0.872559 -0.194767,-0.506396 -0.194767,-1.137444 v -0.01558 z"
         id="text8"
         aria-label="JINGPING" />
    </g>
  </g>
</svg>
