<?xml version="1.0" encoding="UTF-8" standalone="no"?>
<!-- Created with Inkscape (http://www.inkscape.org/) -->

<svg
   width="500"
   height="250"
   viewBox="0 0 132.29166 66.145833"
   version="1.1"
   id="svg1"
   inkscape:version="1.3.2 (091e20e, 2023-11-25, custom)"
   sodipodi:docname="y11.svg"
   xmlns:inkscape="http://www.inkscape.org/namespaces/inkscape"
   xmlns:sodipodi="http://sodipodi.sourceforge.net/DTD/sodipodi-0.dtd"
   xmlns="http://www.w3.org/2000/svg"
   xmlns:svg="http://www.w3.org/2000/svg">
  <sodipodi:namedview
     id="namedview1"
     pagecolor="#9e652e"
     bordercolor="#ffffff"
     borderopacity="1"
     inkscape:showpageshadow="0"
     inkscape:pageopacity="0"
     inkscape:pagecheckerboard="false"
     inkscape:deskcolor="#d1d1d1"
     inkscape:document-units="mm"
     inkscape:zoom="2.0208096"
     inkscape:cx="276.12695"
     inkscape:cy="127.17675"
     inkscape:window-width="1920"
     inkscape:window-height="1009"
     inkscape:window-x="1912"
     inkscape:window-y="-8"
     inkscape:window-maximized="1"
     inkscape:current-layer="layer1" />
  <defs
     id="defs1">
    <rect
       x="157.85752"
       y="62.351248"
       width="329.07603"
       height="135.09437"
       id="rect4" />
  </defs>
  <g
     inkscape:label="Layer 1"
     inkscape:groupmode="layer"
     id="layer1">
    <path
       id="rect5"
       style="fill:#ffffff;stroke-width:0.953294"
       d="M -2.5431316e-6,-1.2715658e-6 H 132.29167 V 66.145835 H -2.5431316e-6 Z" />
    <g
       id="g1"
       transform="matrix(1.121508,0,0,1.121508,22.126542,-3.0133416)">
      <path
         id="rect6"
         style="fill:none;stroke:#000000;stroke-width:0.575409"
         d="m 9.3009131,19.849001 h 5.7010479 c 1.810115,0 3.267355,1.45724 3.267355,3.267355 v 9.524719 c 0,1.810115 -1.45724,3.267355 -3.267355,3.267355 H 9.3009131 c -1.8101145,0 -3.2673547,-1.45724 -3.2673547,-3.267355 v -9.524719 c 0,-1.810115 1.4572402,-3.267355 3.2673547,-3.267355 z" />
      <path
         style="font-weight:bold;font-size:5.82083px;line-height:1.25;font-family:'Optima Bold';-inkscape-font-specification:'Optima Bold,  Bold';stroke-width:0.264583"
         d="m 11.768055,25.2551 -1.420282,-2.293407 h 0.232833 q 0.04657,0.01746 0.09313,0.0291 0.05239,0.0058 0.09313,0.01164 0.01164,0 0.01746,0 0.01164,0 0.01746,0 0,0 0,0 0.0058,0 0.0058,0 0,0 0,0 0.0058,0 0.0058,0 0.0291,0 0.05239,0 0.0291,0 0.05239,-0.0058 0.0291,-0.0058 0.05821,-0.01164 0.0291,-0.0058 0.05821,-0.01164 l 0.232833,-0.0058 0.98372,1.711324 0.937154,-1.717145 h 0.232833 q 0.0291,0.01746 0.05821,0.0291 0.03492,0.0058 0.06403,0.01164 0.0058,0 0.01164,0 0.01164,0 0.01746,0 0.0058,0 0.01164,0 0.01164,-0.0058 0.01746,-0.0058 0.02328,-0.0058 0.04657,-0.01164 0.02328,-0.0058 0.04657,-0.01164 l 0.232833,-0.0058 q -0.03492,0.05239 -0.06985,0.09895 -0.0291,0.04657 -0.05821,0.09313 -0.03492,0.04657 -0.06985,0.09313 -0.0291,0.04657 -0.05821,0.09313 -0.03492,0.04657 -0.06985,0.09895 -0.0291,0.04657 -0.05821,0.09313 -0.03493,0.04657 -0.06985,0.09895 -0.0291,0.04657 -0.05821,0.09313 -0.128058,0.192088 -0.244475,0.378354 -0.116416,0.186267 -0.232833,0.372533 -0.110596,0.186267 -0.20955,0.360892 -0.09895,0.174625 -0.180445,0.331787 v 1.775353 h -0.232834 q -0.03492,0 -0.06985,0 -0.0291,-0.0058 -0.05821,-0.01164 0,0 -0.0058,0 0,0 0,0 0,0 -0.0058,0 0,0 0,0 -0.0058,0 -0.01164,0 0,0 -0.0058,0 -0.03493,0.0058 -0.07567,0.01164 -0.03493,0 -0.08149,0 h -0.232834 v -1.693861 0 z"
         id="text6"
         aria-label="Y" />
      <path
         style="font-weight:bold;font-size:5.82083px;line-height:1.25;font-family:'Optima Bold';-inkscape-font-specification:'Optima Bold,  Bold';stroke-width:0.264583"
         d="m 9.3516163,29.278575 q 0.1688041,-0.07567 0.3317873,-0.151341 0.1688041,-0.07567 0.3317874,-0.151342 0.162983,-0.06985 0.291041,-0.1397 0.133879,-0.06985 0.238654,-0.1397 l 0.232834,-0.0058 0.1397,0.04075 v 3.987269 h -0.232834 q -0.03492,-0.0058 -0.06403,-0.01746 -0.0291,-0.0058 -0.05821,-0.01164 -0.03492,0.0058 -0.06985,0.01164 -0.03493,0.01164 -0.08149,0.01746 H 10.178174 V 29.278575 L 9.7707161,29.511409 H 9.5378829 q -0.00582,0 -0.017462,-0.0058 -0.00582,-0.01164 -0.017463,-0.0291 -0.00582,-0.01164 -0.011642,-0.01746 -0.00582,-0.01164 -0.00582,-0.01746 -0.00582,-0.01164 -0.011642,-0.01746 -0.00582,-0.01164 -0.011642,-0.01746 -0.00582,-0.01164 -0.011642,-0.01746 -0.00582,-0.0058 -0.011642,-0.01746 -0.011642,-0.0058 -0.017462,-0.01164 -0.00582,-0.01164 -0.011642,-0.01746 -0.011642,-0.01746 -0.029104,-0.0291 -0.011642,-0.01746 -0.029104,-0.02328 v -0.01164 z m 3.4866827,0 q 0.168804,-0.07567 0.331787,-0.151341 0.168804,-0.07567 0.331787,-0.151342 0.162984,-0.06985 0.291042,-0.1397 0.133879,-0.06985 0.238654,-0.1397 l 0.232833,-0.0058 0.1397,0.04075 v 3.987269 h -0.232833 q -0.03493,-0.0058 -0.06403,-0.01746 -0.0291,-0.0058 -0.05821,-0.01164 -0.03492,0.0058 -0.06985,0.01164 -0.03493,0.01164 -0.08149,0.01746 h -0.232833 v -3.440111 l -0.407459,0.232834 h -0.232833 q -0.0058,0 -0.01746,-0.0058 -0.0058,-0.01164 -0.01746,-0.0291 -0.0058,-0.01164 -0.01164,-0.01746 -0.0058,-0.01164 -0.0058,-0.01746 -0.0058,-0.01164 -0.01164,-0.01746 -0.0058,-0.01164 -0.01164,-0.01746 -0.0058,-0.01164 -0.01164,-0.01746 -0.0058,-0.0058 -0.01164,-0.01746 -0.01164,-0.0058 -0.01746,-0.01164 -0.0058,-0.01164 -0.01164,-0.01746 -0.01164,-0.01746 -0.0291,-0.0291 -0.01164,-0.01746 -0.0291,-0.02328 v -0.01164 z"
         id="text6-8"
         aria-label="11" />
    </g>
    <g
       id="g2"
       transform="translate(3.3051826,-2.6369997)">
      <path
         style="font-weight:600;font-size:18.3502px;line-height:1.25;font-family:'Noto Serif TC';-inkscape-font-specification:'Noto Serif TC Semi-Bold';letter-spacing:1.96609px;stroke-width:0.327681"
         d="m 56.380072,23.888922 v 1.394615 H 48.87484 v -1.394615 z m -7.505232,3.358087 v -1.431316 h 7.505232 v 1.431316 z m 0,0.532156 h 7.505232 v 0.734008 h 0.293603 c 0.568857,0 1.431316,-0.330304 1.449666,-0.440405 v -3.871893 c 0.367004,-0.0734 0.642257,-0.238552 0.770709,-0.385354 l -1.83502,-1.394615 -0.86246,0.93586 h -7.211629 l -1.83502,-0.752358 v 6.184018 h 0.256903 c 0.697308,0 1.468016,-0.348654 1.468016,-0.532156 z m 0.458755,4.055394 h 6.551022 v 2.091923 h -6.551022 z m 6.551022,2.624079 v 0.642257 h 0.293603 c 0.568856,0 1.449666,-0.293604 1.468016,-0.422055 v -2.550678 c 0.367004,-0.0734 0.642257,-0.238552 0.770709,-0.367004 l -1.853371,-1.394615 -0.862459,0.93586 h -6.257419 l -1.85337,-0.752358 v 4.716001 h 0.238553 c 0.146801,0 0.311953,-0.01835 0.477105,-0.05505 -0.825759,1.156063 -2.367176,2.624079 -3.890243,3.504888 l 0.146802,0.220203 c 2.073573,-0.513806 4.165496,-1.614818 5.303208,-2.67913 0.422055,0.0734 0.568856,-0.01835 0.660607,-0.201852 l -1.926771,-0.91751 c 0.422055,-0.110101 0.734008,-0.293603 0.734008,-0.385354 v -0.293603 h 2.367176 v 2.75253 c 0,0.201852 -0.09175,0.311953 -0.367004,0.311953 -0.367004,0 -2.000172,-0.110101 -2.000172,-0.110101 v 0.256903 c 0.825759,0.110101 1.211113,0.311953 1.431316,0.550506 0.238552,0.238552 0.330303,0.623907 0.348654,1.137712 2.018522,-0.183502 2.330475,-0.91751 2.330475,-2.110273 v -2.78923 z m -1.192763,1.247813 c 1.963471,0.935861 3.358087,2.293775 3.871892,3.119534 1.79832,0.935861 3.027783,-2.917681 -3.780141,-3.376437 z m 3.468188,-6.202368 h -5.174757 c 0.789059,-0.367004 0.789059,-1.87172 -1.79832,-1.596467 l -0.146801,0.128451 c 0.440405,0.293604 0.95421,0.88081 1.101012,1.412966 l 0.110101,0.05505 H 44.26894 l 0.146801,0.513806 h 16.019726 c 0.256902,0 0.440404,-0.09175 0.495455,-0.293603 -0.678957,-0.623907 -1.79832,-1.449666 -1.79832,-1.449666 z m 20.518142,-3.68839 c -0.146802,0.734008 -0.385354,1.633168 -0.550506,2.238725 l 0.165152,0.110101 c 0.789058,-0.495456 1.779969,-1.339565 2.348825,-1.981822 0.348654,-0.01835 0.550506,-0.05505 0.697308,-0.201852 l -1.761619,-1.706569 -1.009261,1.009261 h -5.027955 c 1.192763,-0.256902 1.541416,-2.550678 -2.238725,-3.027783 l -0.146801,0.128452 c 0.678957,0.605556 1.266163,1.669868 1.321214,2.587378 0.220202,0.165152 0.422055,0.275253 0.605557,0.311953 H 66.768904 C 66.695503,24.953234 66.585402,24.62293 66.4386,24.255926 h -0.293603 c 0.146801,1.064312 -0.422055,2.110273 -1.009261,2.532328 -0.477105,0.256903 -0.789059,0.752358 -0.568856,1.302864 0.256902,0.605557 1.082661,0.660607 1.578117,0.256903 0.513805,-0.422055 0.880809,-1.302864 0.715658,-2.532328 z M 74.953093,30.9721 c -0.367004,1.559767 -1.045961,2.991082 -2.202024,4.202195 -1.156063,-0.256902 -2.477277,-0.477105 -4.037044,-0.715657 0.623907,-1.009261 1.321214,-2.257075 1.926771,-3.486538 z m 3.247986,-0.532156 h -1.119363 c 0.09175,-0.422055 0.165152,-0.84411 0.220203,-1.266164 0.385354,0 0.623907,-0.128452 0.715658,-0.422055 l -2.67913,-0.550506 c -0.05505,0.789059 -0.128451,1.523067 -0.275253,2.238725 h -4.147145 c 0.568856,-1.101012 1.064312,-2.128624 1.412965,-2.862632 0.550506,0.0367 0.697308,-0.128451 0.789059,-0.330303 L 70.585745,26.4396 c -0.275253,0.88081 -0.91751,2.440577 -1.651518,4.000344 h -4.165495 l 0.128451,0.532156 h 3.798492 c -0.660608,1.376265 -1.339565,2.734179 -1.853371,3.596639 1.76162,0.477105 3.394788,1.009261 4.844453,1.578117 -1.559767,1.211113 -3.761791,2.183674 -6.844624,2.936032 l 0.110101,0.238553 c 3.68839,-0.532156 6.275768,-1.412966 8.092438,-2.605729 1.871721,0.789059 3.339737,1.633168 4.404048,2.403877 1.706569,0.91751 3.963644,-1.523067 -3.009433,-3.504889 1.321215,-1.284514 2.073573,-2.844281 2.513978,-4.6426 h 3.761791 c 0.256903,0 0.440405,-0.09175 0.495456,-0.293604 C 80.476503,30.036239 79.26539,29.15543 79.26539,29.15543 Z"
         id="text7"
         aria-label="景安" />
      <path
         style="font-weight:bold;font-size:7.79071px;line-height:1.25;font-family:'Optima Bold';-inkscape-font-specification:'Optima Bold,  Bold';stroke-width:0.354123"
         d="m 49.604237,43.567064 q 0.03895,0.02337 0.07012,0.03895 0.03895,0.0078 0.0857,0.01558 0.0078,0 0.0078,0 0.0078,0 0.01558,0 0.0078,0 0.0078,0 0.0078,0 0.01558,0 0.04674,-0.0078 0.0857,-0.01558 0.04674,-0.01558 0.07791,-0.02337 l 0.311628,-0.0078 v 5.025008 q 0,0.296047 -0.10907,0.537559 -0.10907,0.241512 -0.335,0.451861 -0.21814,0.210349 -0.483024,0.311629 -0.257094,0.109069 -0.560932,0.11686 h -0.311628 -0.03116 -0.01558 l -0.02337,-0.0078 h -0.03116 l -0.0078,-0.249302 q 0.319419,-0.02337 0.514187,-0.148024 0.194768,-0.124651 0.264884,-0.350582 0.07012,-0.21814 0.101279,-0.483024 0.03895,-0.272675 0.03895,-0.592094 v -4.619891 h 0.311628 v 0 z m 2.337213,0 q 0.03895,0.02337 0.07012,0.03895 0.03895,0.0078 0.0857,0.01558 0.0078,0 0.0078,0 0.0078,0 0.01558,0 0.0078,0 0.0078,0 0.0078,0 0.01558,0 0.04674,-0.0078 0.0857,-0.01558 0.04675,-0.01558 0.07791,-0.02337 l 0.311628,-0.0078 v 5.391171 h -0.311628 q -0.03116,0 -0.07791,0 -0.03895,-0.0078 -0.07791,-0.01558 -0.0078,0 -0.01558,0 0,0 -0.0078,0 -0.0078,0 -0.01558,0 -0.0078,0 -0.01558,0 -0.04674,0.0078 -0.0857,0.01558 -0.03116,0 -0.07012,0 h -0.311628 v -5.398962 h 0.311628 v 0 z m 2.150236,5.398962 v -5.398962 h 0.311628 0.373954 l 3.427913,3.770704 v -3.770704 h 0.311628 q 0.01558,0.02337 0.03895,0.03116 0.02337,0.0078 0.04674,0.01558 0.03116,-0.0078 0.05453,-0.01558 0.02337,-0.0078 0.03895,-0.01558 l 0.311628,-0.0078 v 5.391171 h -0.311628 -0.303838 l -3.498029,-3.887564 v 3.887564 h -0.311628 q -0.0078,0 -0.01558,0 -0.0078,0 -0.01558,0 -0.01558,0 -0.02337,0 -0.0078,-0.0078 -0.01558,-0.0078 -0.01558,0 -0.03116,0 -0.0078,0 -0.02337,0.0078 -0.01558,0 -0.03116,0 -0.0078,0 -0.02337,0 h -0.311628 v 0 z m 6.084542,-2.64105 q 0.03116,-0.615466 0.179186,-1.075118 0.155814,-0.459652 0.428489,-0.755699 0.272675,-0.296047 0.568722,-0.498606 0.303838,-0.202558 0.631048,-0.311628 0.171395,-0.06233 0.335,-0.101279 0.171396,-0.03895 0.335001,-0.06233 0.163605,-0.02337 0.311628,-0.03895 0.155814,-0.01558 0.280466,-0.02337 l 0.311628,-0.0078 q 0.249303,0.0078 0.498605,0.03895 0.257094,0.02337 0.514187,0.07791 0.249303,0.05454 0.498606,0.155814 0.257093,0.09349 0.514187,0.225931 l -0.249303,0.66221 h -0.311629 q -0.03895,-0.01558 -0.0857,-0.04674 -0.04675,-0.03895 -0.09349,-0.0857 -0.04674,-0.04674 -0.101279,-0.09349 -0.04674,-0.04674 -0.10907,-0.09349 -0.10907,-0.0857 -0.249303,-0.163605 -0.140233,-0.07791 -0.303837,-0.148023 -0.132442,-0.06233 -0.303838,-0.09349 -0.163605,-0.03895 -0.358373,-0.04674 -0.03895,0 -0.0857,0.0078 -0.03895,0 -0.0857,0.0078 -0.07791,0.0078 -0.163605,0.02337 -0.07791,0.01558 -0.163605,0.03895 -0.288256,0.07791 -0.560931,0.249303 -0.264884,0.163605 -0.514187,0.420698 -0.241512,0.257094 -0.381745,0.631048 -0.140233,0.373954 -0.179186,0.88035 v 0.02337 0.03116 0.03116 0.03116 q -0.0078,0.576512 0.148023,1.043955 0.155814,0.467442 0.467443,0.825815 0.296047,0.335001 0.670001,0.514187 0.381745,0.171396 0.849187,0.194768 0.155814,-0.0078 0.296047,-0.02337 0.148024,-0.02337 0.288256,-0.05454 0.179187,-0.03895 0.303838,-0.09349 0.132442,-0.06233 0.225931,-0.132442 v -2.041166 h 0.311628 q 0.01558,0.01558 0.03116,0.02337 0.01558,0 0.03895,0.0078 0.01558,0.0078 0.03116,0.01558 0.01558,0 0.03116,0 0.0078,0 0.0078,0 0.0078,0 0.01558,0 0.0078,0.0078 0.0078,0.0078 0.0078,0 0.01558,0 0,0 0,0 0,0 0.0078,0 0,0 0,0 0,0 0,0 0.03895,-0.0078 0.0857,-0.01558 0.04674,-0.01558 0.09349,-0.02337 l 0.311628,-0.0078 v 2.267096 l -0.02337,0.02337 -0.02337,0.0078 q -0.03895,0.02337 -0.09349,0.03895 -0.04674,0.01558 -0.101279,0.03116 -0.05454,0.02337 -0.116861,0.03895 -0.06233,0.01558 -0.132442,0.03116 -0.140233,0.03116 -0.280465,0.05454 -0.140233,0.02337 -0.296047,0.03895 -0.140233,0.02337 -0.272675,0.03895 -0.124652,0.02337 -0.257094,0.03116 -0.124651,0.01558 -0.233721,0.02337 -0.10907,0.0078 -0.194768,0.0078 h -0.311628 q -0.01558,0 -0.03895,0 -0.01558,0 -0.03116,0 -0.01558,0 -0.03895,0 -0.01558,0 -0.03116,0 -0.66221,0 -1.184188,-0.179187 -0.521977,-0.179186 -0.911513,-0.560931 -0.381745,-0.373954 -0.576512,-0.872559 -0.194768,-0.506396 -0.194768,-1.137444 v -0.01558 z m 6.022216,2.64105 2.454073,-5.461287 h 0.311629 0.179186 l 2.399539,5.461287 h -0.311629 q -0.02337,0 -0.05454,0 -0.02337,0 -0.05453,0 -0.03116,0 -0.06233,0 -0.02337,0 -0.06233,0 -0.01558,0 -0.03895,0 -0.01558,0 -0.03116,-0.0078 -0.01558,0 -0.03895,0 -0.01558,0 -0.03116,0 -0.01558,0.0078 -0.03895,0.0078 -0.01558,0 -0.03116,0 -0.01558,0 -0.03116,0 -0.01558,0 -0.02337,0 -0.01558,0 -0.03116,0 -0.0078,0 -0.02337,0 H 70.366473 L 69.509495,46.81579 h -1.589304 l -0.794653,2.150236 H 66.81391 q -0.01558,0 -0.03895,0 -0.01558,0 -0.03116,0 l -0.03895,-0.0078 q -0.0078,0.0078 -0.02337,0.0078 -0.01558,0 -0.02337,0 -0.01558,0 -0.03116,0 -0.0078,0 -0.02337,0 h -0.311629 q -0.02337,0 -0.04674,0 -0.02337,0 -0.04674,0 v 0 z m 1.908724,-2.516399 h 1.277676 l -0.638838,-1.526979 -0.638838,1.526979 z m 4.284888,2.516399 v -5.398962 h 0.311628 0.373954 l 3.427913,3.770704 v -3.770704 h 0.311628 q 0.01558,0.02337 0.03895,0.03116 0.02337,0.0078 0.04674,0.01558 0.03116,-0.0078 0.05454,-0.01558 0.02337,-0.0078 0.03895,-0.01558 l 0.311629,-0.0078 v 5.391171 h -0.311629 -0.303837 l -3.498029,-3.887564 v 3.887564 H 72.88287 q -0.0078,0 -0.01558,0 -0.0078,0 -0.01558,0 -0.01558,0 -0.02337,0 -0.0078,-0.0078 -0.01558,-0.0078 -0.01558,0 -0.03116,0 -0.0078,0 -0.02337,0.0078 -0.01558,0 -0.03116,0 -0.0078,0 -0.02337,0 h -0.311628 v 0 z"
         id="text8"
         aria-label="JINGAN" />
    </g>
  </g>
</svg>
