<?xml version="1.0" encoding="UTF-8" standalone="no"?>
<!-- Created with Inkscape (http://www.inkscape.org/) -->

<svg
   width="500"
   height="250"
   viewBox="0 0 132.29166 66.145833"
   version="1.1"
   id="svg1"
   inkscape:version="1.3.2 (091e20e, 2023-11-25, custom)"
   sodipodi:docname="y12.svg"
   xmlns:inkscape="http://www.inkscape.org/namespaces/inkscape"
   xmlns:sodipodi="http://sodipodi.sourceforge.net/DTD/sodipodi-0.dtd"
   xmlns="http://www.w3.org/2000/svg"
   xmlns:svg="http://www.w3.org/2000/svg">
  <sodipodi:namedview
     id="namedview1"
     pagecolor="#9e652e"
     bordercolor="#ffffff"
     borderopacity="1"
     inkscape:showpageshadow="0"
     inkscape:pageopacity="0"
     inkscape:pagecheckerboard="false"
     inkscape:deskcolor="#d1d1d1"
     inkscape:document-units="mm"
     inkscape:zoom="2.0208096"
     inkscape:cx="276.12695"
     inkscape:cy="127.17675"
     inkscape:window-width="1920"
     inkscape:window-height="1009"
     inkscape:window-x="1912"
     inkscape:window-y="-8"
     inkscape:window-maximized="1"
     inkscape:current-layer="layer1" />
  <defs
     id="defs1">
    <rect
       x="157.85752"
       y="62.351248"
       width="329.07603"
       height="135.09437"
       id="rect4" />
  </defs>
  <g
     inkscape:label="Layer 1"
     inkscape:groupmode="layer"
     id="layer1">
    <path
       id="rect5"
       style="fill:#ffffff;stroke-width:0.953294"
       d="M -2.5431316e-6,-1.2715658e-6 H 132.29167 V 66.145835 H -2.5431316e-6 Z" />
    <g
       id="g1"
       transform="matrix(1.121508,0,0,1.121508,22.126542,-3.0133416)">
      <path
         id="rect6"
         style="fill:none;stroke:#000000;stroke-width:0.575409"
         d="m 9.3009131,19.849001 h 5.7010479 c 1.810115,0 3.267355,1.45724 3.267355,3.267355 v 9.524719 c 0,1.810115 -1.45724,3.267355 -3.267355,3.267355 H 9.3009131 c -1.8101145,0 -3.2673547,-1.45724 -3.2673547,-3.267355 v -9.524719 c 0,-1.810115 1.4572402,-3.267355 3.2673547,-3.267355 z" />
      <path
         style="font-weight:bold;font-size:5.82083px;line-height:1.25;font-family:'Optima Bold';-inkscape-font-specification:'Optima Bold,  Bold';stroke-width:0.264583"
         d="m 11.768055,25.2551 -1.420282,-2.293407 h 0.232833 q 0.04657,0.01746 0.09313,0.0291 0.05239,0.0058 0.09313,0.01164 0.01164,0 0.01746,0 0.01164,0 0.01746,0 0,0 0,0 0.0058,0 0.0058,0 0,0 0,0 0.0058,0 0.0058,0 0.0291,0 0.05239,0 0.0291,0 0.05239,-0.0058 0.0291,-0.0058 0.05821,-0.01164 0.0291,-0.0058 0.05821,-0.01164 l 0.232833,-0.0058 0.98372,1.711324 0.937154,-1.717145 h 0.232833 q 0.0291,0.01746 0.05821,0.0291 0.03492,0.0058 0.06403,0.01164 0.0058,0 0.01164,0 0.01164,0 0.01746,0 0.0058,0 0.01164,0 0.01164,-0.0058 0.01746,-0.0058 0.02328,-0.0058 0.04657,-0.01164 0.02328,-0.0058 0.04657,-0.01164 l 0.232833,-0.0058 q -0.03492,0.05239 -0.06985,0.09895 -0.0291,0.04657 -0.05821,0.09313 -0.03492,0.04657 -0.06985,0.09313 -0.0291,0.04657 -0.05821,0.09313 -0.03492,0.04657 -0.06985,0.09895 -0.0291,0.04657 -0.05821,0.09313 -0.03493,0.04657 -0.06985,0.09895 -0.0291,0.04657 -0.05821,0.09313 -0.128058,0.192088 -0.244475,0.378354 -0.116416,0.186267 -0.232833,0.372533 -0.110596,0.186267 -0.20955,0.360892 -0.09895,0.174625 -0.180445,0.331787 v 1.775353 h -0.232834 q -0.03492,0 -0.06985,0 -0.0291,-0.0058 -0.05821,-0.01164 0,0 -0.0058,0 0,0 0,0 0,0 -0.0058,0 0,0 0,0 -0.0058,0 -0.01164,0 0,0 -0.0058,0 -0.03493,0.0058 -0.07567,0.01164 -0.03493,0 -0.08149,0 h -0.232834 v -1.693861 0 z"
         id="text6"
         aria-label="Y" />
      <path
         style="font-weight:bold;font-size:5.82083px;line-height:1.25;font-family:'Optima Bold';-inkscape-font-specification:'Optima Bold,  Bold';stroke-width:0.264583"
         d="m 9.3516163,29.278575 q 0.1688041,-0.07567 0.3317873,-0.151341 0.1688041,-0.07567 0.3317874,-0.151342 0.162983,-0.06985 0.291041,-0.1397 0.133879,-0.06985 0.238654,-0.1397 l 0.232834,-0.0058 0.1397,0.04075 v 3.987269 h -0.232834 q -0.03492,-0.0058 -0.06403,-0.01746 -0.0291,-0.0058 -0.05821,-0.01164 -0.03492,0.0058 -0.06985,0.01164 -0.03493,0.01164 -0.08149,0.01746 H 10.178174 V 29.278575 L 9.7707161,29.511409 H 9.5378829 q -0.00582,0 -0.017462,-0.0058 -0.00582,-0.01164 -0.017463,-0.0291 -0.00582,-0.01164 -0.011642,-0.01746 -0.00582,-0.01164 -0.00582,-0.01746 -0.00582,-0.01164 -0.011642,-0.01746 -0.00582,-0.01164 -0.011642,-0.01746 -0.00582,-0.01164 -0.011642,-0.01746 -0.00582,-0.0058 -0.011642,-0.01746 -0.011642,-0.0058 -0.017462,-0.01164 -0.00582,-0.01164 -0.011642,-0.01746 -0.011642,-0.01746 -0.029104,-0.0291 -0.011642,-0.01746 -0.029104,-0.02328 v -0.01164 z m 3.3993697,0.04657 q 0.09895,-0.162983 0.20955,-0.2794 0.116417,-0.116416 0.244475,-0.174625 0.128058,-0.06403 0.273579,-0.09313 0.151342,-0.03493 0.325966,-0.03493 l 0.232834,-0.0058 q 0.01164,0.0058 0.01746,0.0058 0.0058,0 0.01746,0 0.0058,0.0058 0.01164,0.0058 0.01164,0 0.01746,0 0.01746,0 0.03492,0 0.01746,0 0.03493,0 0.186266,0.01746 0.360891,0.09313 0.174625,0.06985 0.331788,0.203729 0.157162,0.128058 0.238654,0.331787 0.08149,0.197909 0.08149,0.465667 0,0.122237 -0.02328,0.250296 -0.02328,0.128058 -0.06985,0.261937 -0.04657,0.133879 -0.1397,0.273579 -0.09313,0.133879 -0.227012,0.267758 l -1.32715,1.356253 1.594908,-0.04075 h 0.232833 q -0.0058,0.03493 -0.01164,0.06403 -0.0058,0.02328 -0.01164,0.05239 -0.0058,0.02328 -0.0058,0.05239 0,0.02328 0,0.05239 0,0.0291 0,0.06403 0,0.0291 0.0058,0.05821 0,0.0291 0.0058,0.06403 0.01164,0.0291 0.01746,0.05239 h -0.232833 -2.52042 v -0.09313 q 0.04657,-0.03493 0.09313,-0.07567 0.04657,-0.04657 0.09313,-0.08731 0.04657,-0.04657 0.09313,-0.09313 0.05239,-0.04657 0.09895,-0.09895 0.01746,-0.01746 0.03492,-0.03493 0.01746,-0.01746 0.04075,-0.03492 0.01746,-0.01746 0.03492,-0.03493 0.01746,-0.02328 0.03493,-0.04075 0.01746,-0.01746 0.03492,-0.03492 0.01746,-0.01746 0.04075,-0.04075 0.01746,-0.01746 0.03492,-0.03493 0.01746,-0.02328 0.03492,-0.04075 0.180446,-0.186267 0.337608,-0.360892 0.162983,-0.180445 0.308504,-0.349249 0.145521,-0.168804 0.238654,-0.291042 0.09895,-0.128058 0.145521,-0.215371 0.04075,-0.06403 0.07567,-0.139699 0.03492,-0.07567 0.05821,-0.151342 0.0291,-0.08149 0.04657,-0.162983 0.01746,-0.08149 0.03493,-0.168804 0,-0.0291 0,-0.05821 0.0058,-0.03492 0.01164,-0.06403 0,-0.01746 0,-0.0291 0,-0.01746 0.0058,-0.03493 0,-0.01164 0,-0.0291 0,-0.01746 0,-0.03492 0,-0.162983 -0.04075,-0.302683 -0.04075,-0.145521 -0.122237,-0.267758 -0.06985,-0.104775 -0.174625,-0.168804 -0.104775,-0.06403 -0.256117,-0.07567 -0.07567,0.0058 -0.14552,0.04075 -0.06985,0.0291 -0.13388,0.07567 -0.07567,0.05821 -0.133879,0.128059 -0.05239,0.06985 -0.08731,0.14552 -0.0058,0.02328 -0.01746,0.04657 -0.0058,0.01746 -0.01746,0.03493 -0.0058,0.02328 -0.01164,0.04075 -0.0058,0.01746 -0.0058,0.03493 l -0.09313,0.0291 h -0.232833 l -0.180446,-0.273579 v 0 z"
         id="text6-8"
         aria-label="12" />
    </g>
    <g
       id="g2"
       transform="translate(3.3051826,-2.6369997)">
      <path
         style="font-weight:600;font-size:18.3502px;line-height:1.25;font-family:'Noto Serif TC';-inkscape-font-specification:'Noto Serif TC Semi-Bold';letter-spacing:1.96609px;stroke-width:0.327681"
         d="m 53.44404,31.687757 v -4.881153 h 4.642601 v 4.881153 z m -6.477621,0 v -4.881153 h 4.642601 v 4.881153 z m 11.83588,-6.40422 -0.89916,0.990911 H 53.44404 v -3.192935 c 0.495456,-0.0734 0.623907,-0.275253 0.678958,-0.532156 L 51.60902,22.292455 v 3.981993 H 47.131571 L 45.1681,25.448689 v 8.551194 h 0.275253 c 0.734008,0 1.523066,-0.422055 1.523066,-0.587207 v -1.192763 h 4.642601 v 7.138228 h 0.348654 c 0.697308,0 1.486366,-0.458755 1.486366,-0.660607 v -6.477621 h 4.642601 v 1.523067 h 0.311953 c 0.605557,0 1.504717,-0.330304 1.523067,-0.458755 v -6.165668 c 0.385354,-0.0734 0.642257,-0.238552 0.770708,-0.385354 z m 11.765096,2.991083 h -0.89916 v -3.68839 c 0.84411,-0.165152 1.633168,-0.330304 2.257075,-0.513806 0.513806,0.183502 0.89916,0.165152 1.082662,0 l -1.908421,-1.724919 c -1.486366,0.844109 -4.404048,2.073573 -6.734524,2.69748 l 0.0734,0.275253 c 1.156063,-0.09175 2.348826,-0.238553 3.523239,-0.440405 v 3.394787 h -3.541589 l 0.146802,0.532156 h 2.880981 c -0.623907,2.624079 -1.688218,5.358258 -3.229635,7.34008 l 0.220202,0.220203 c 1.468016,-1.229464 2.624079,-2.66078 3.523239,-4.275597 v 7.266679 h 0.293603 c 0.825759,0 1.394615,-0.403704 1.412965,-0.532156 v -8.367691 c 0.678958,0.825759 1.431316,1.908421 1.633168,2.807581 1.449666,1.119362 2.807581,-1.743269 -1.633168,-3.266336 v -1.192763 h 3.119534 c 0.275253,0 0.458755,-0.09175 0.495456,-0.293603 -0.642257,-0.642257 -1.743269,-1.559767 -1.743269,-1.559767 z m 4.624251,7.229979 v -9.725606 h 3.284686 v 9.725606 z m 3.981993,-11.230323 -0.880809,0.972561 h -3.009433 l -1.79832,-0.770708 v 13.781 h 0.293603 c 0.734008,0 1.412966,-0.422054 1.412966,-0.623907 v -1.596467 h 3.284686 v 1.890071 h 0.275253 c 0.587206,0 1.431315,-0.348654 1.468016,-0.458755 V 26.127647 c 0.385354,-0.09175 0.697307,-0.238553 0.807409,-0.403705 z"
         id="text7"
         aria-label="中和" />
      <path
         style="font-weight:bold;font-size:7.79071px;line-height:1.25;font-family:'Optima Bold';-inkscape-font-specification:'Optima Bold,  Bold';stroke-width:0.354123"
         d="m 42.849698,43.62939 h 4.175821 v 0.186977 q -0.412908,0.568722 -0.833606,1.137444 -0.420698,0.568721 -0.841397,1.153025 -0.420698,0.584303 -0.864768,1.215351 -0.43628,0.623256 -0.895932,1.293257 0.389535,0 0.77128,-0.0078 0.381745,-0.0078 0.755699,-0.01558 0.43628,-0.01558 0.818025,-0.05454 0.381744,-0.03895 0.716745,-0.10907 l 0.311628,-0.0078 q -0.0078,0.05454 -0.02337,0.09349 -0.0078,0.03895 -0.01558,0.07791 -0.0078,0.03116 -0.0078,0.07012 0,0.03116 0,0.06233 v 0.03895 l 0.0078,0.03895 q 0,0.01558 0,0.03116 0,0.0078 0,0.01558 0,0.01558 0,0.02337 0.0078,0.0078 0.0078,0.02337 0.0078,0.02337 0.01558,0.04674 0.0078,0.01558 0.01558,0.02337 h -0.311628 -4.417333 v -0.241512 l 3.365587,-4.72117 q -0.350582,0.01558 -0.685582,0.02337 -0.32721,0.0078 -0.646629,0.02337 -0.194768,0.0078 -0.381745,0.02337 -0.179186,0.0078 -0.358373,0.01558 -0.179186,0.01558 -0.350582,0.02337 -0.163605,0.0078 -0.32721,0.02337 l -0.311628,-0.0078 q 0.0078,-0.01558 0.0078,-0.03895 0.0078,-0.02337 0.01558,-0.04674 0.0078,-0.02337 0.0078,-0.04675 0.0078,-0.02337 0.01558,-0.04674 v -0.03116 -0.03116 q 0,-0.02337 -0.0078,-0.04674 0,-0.03116 -0.0078,-0.06233 -0.0078,-0.03116 -0.01558,-0.06233 0,-0.03895 -0.01558,-0.07012 v -0.01558 h 0.311628 z m 4.970468,5.336636 v -5.461287 h 0.311628 q 0.02337,0.01558 0.05454,0.03116 0.03116,0.0078 0.06233,0.01558 0.0078,0 0.01558,0.0078 0.01558,0 0.02337,0 0.0078,0 0.01558,0 0.01558,0 0.02337,0 0,0 0,0 0.0078,0 0.01558,0 0.0078,0 0.0078,0 0.0078,0 0.0078,0 0.03895,-0.0078 0.07012,-0.01558 0.03895,-0.01558 0.06233,-0.02337 l 0.311629,-0.0078 v 2.267097 q 0.109069,0.03116 0.280465,0.04674 0.171396,0.01558 0.405117,0.03116 0.210349,0.0078 0.428489,0.01558 0.225931,0.0078 0.451861,0.0078 0.202559,0 0.389536,0 0.194767,-0.0078 0.381745,-0.01558 0.22593,-0.01558 0.397326,-0.03116 0.171395,-0.01558 0.272675,-0.03895 v -2.290468 h 0.311628 q 0.0078,0.01558 0.01558,0.02337 0.0078,0 0.01558,0 0,0.0078 0.0078,0.0078 0.0078,0 0.01558,0 0.01558,0.0078 0.03116,0.0078 0.01558,0 0.03116,0 0.0078,0 0.01558,0.0078 0.0078,0 0.01558,0 0.0078,0.0078 0.01558,0.0078 0.0078,0 0.01558,0 0.0078,0 0.0078,0 0.0078,0 0.01558,0 0.03895,-0.0078 0.07791,-0.01558 0.04674,-0.01558 0.07791,-0.02337 l 0.311628,-0.0078 v 5.453497 h -0.311628 q -0.03116,0 -0.07012,0 -0.03116,-0.0078 -0.07012,-0.01558 0,0 -0.0078,0 0,0 0,0 0,0 -0.0078,0 0,0 0,0 0,0 -0.0078,0 0,0 -0.0078,0 -0.04674,0.0078 -0.09349,0.01558 -0.04674,0 -0.09349,0 H 51.80901 v -2.695585 q -0.05454,0 -0.132442,0 -0.07012,-0.0078 -0.155815,-0.01558 -0.0857,0 -0.186977,0 -0.09349,-0.0078 -0.202558,-0.01558 -0.171396,-0.01558 -0.358373,-0.01558 -0.186977,-0.0078 -0.389535,-0.0078 -0.03895,0 -0.07791,0 -0.03895,0 -0.07012,0 -0.03895,0.0078 -0.07791,0.0078 -0.03116,0 -0.07012,0 -0.04675,0 -0.09349,0 -0.04674,0 -0.09349,0 -0.05454,0.0078 -0.10128,0.0078 -0.04674,0 -0.09349,0 -0.05454,0 -0.116861,0.0078 -0.05453,0 -0.10907,0 -0.06233,0.0078 -0.11686,0.01558 -0.05454,0 -0.116861,0 -0.116861,0.0078 -0.225931,0.01558 -0.10907,0 -0.218139,0.01558 v 2.680004 h -0.311629 q -0.04674,0 -0.0857,0 -0.03116,-0.0078 -0.07012,-0.01558 -0.04674,0.0078 -0.09349,0.01558 -0.04674,0 -0.10907,0 h -0.311628 v 0 z m 6.076751,-2.695585 q 0,-0.03116 0,-0.06233 0,-0.03895 0,-0.07012 0,-0.03895 0,-0.07791 0.0078,-0.03895 0.01558,-0.07791 0.04674,-0.467442 0.257093,-0.895931 0.210349,-0.43628 0.584303,-0.833606 0.366164,-0.397326 0.903723,-0.592094 0.537559,-0.202559 1.246513,-0.202559 l 0.311629,-0.0078 q 0.716745,0.03116 1.223141,0.194767 0.514187,0.163605 0.825815,0.483024 0.311629,0.311629 0.506397,0.65442 0.202558,0.342791 0.288256,0.716745 0.01558,0.04674 0.02337,0.09349 0.0078,0.04674 0.01558,0.0857 0.0078,0.04674 0.01558,0.09349 0.0078,0.04674 0.01558,0.09349 0.01558,0.09349 0.01558,0.186977 0.0078,0.0857 0.01558,0.171395 v 0.01558 0.02337 0.03116 0.02337 q 0,0.65442 -0.225931,1.168606 -0.218139,0.506397 -0.670001,0.87256 -0.451861,0.373954 -0.966048,0.55314 -0.506396,0.179187 -1.075118,0.179187 h -0.311628 q -0.01558,0 -0.03116,0 -0.01558,0 -0.03116,0 -0.01558,0 -0.03895,0 -0.01558,0 -0.03116,0 -0.101279,0 -0.202559,-0.0078 -0.09349,0 -0.194767,-0.01558 -0.101279,-0.0078 -0.202559,-0.03116 -0.101279,-0.02337 -0.202558,-0.04675 -0.389536,-0.0857 -0.747908,-0.296047 -0.358373,-0.210349 -0.685583,-0.529768 -0.32721,-0.319419 -0.490815,-0.786862 -0.155814,-0.475233 -0.155814,-1.090699 v -0.01558 z m 1.114072,0.0078 q 0,0.607676 0.148023,1.075118 0.155814,0.459652 0.467443,0.786862 0.280465,0.296047 0.631047,0.459652 0.358373,0.163605 0.786862,0.186977 0.397326,-0.02337 0.724536,-0.186977 0.335001,-0.163605 0.599885,-0.459652 0.296047,-0.32721 0.467442,-0.794652 0.171396,-0.467443 0.21814,-1.059537 0,-0.01558 0,-0.03116 0,-0.02337 0,-0.03116 0,-0.01558 0,-0.03116 0,-0.01558 0,-0.03116 0,-0.506396 -0.155814,-0.934885 -0.148023,-0.42849 -0.451861,-0.771281 -0.288256,-0.311628 -0.65442,-0.483024 -0.358372,-0.171395 -0.794652,-0.194768 -0.381745,0.02337 -0.685583,0.163605 -0.303837,0.132442 -0.514187,0.381745 -0.233721,0.280466 -0.397326,0.584303 -0.155814,0.303838 -0.249302,0.631048 -0.02337,0.101279 -0.04674,0.194768 -0.02337,0.09349 -0.03895,0.186977 -0.01558,0.09349 -0.03116,0.186977 -0.0078,0.09349 -0.02337,0.179186 z m 6.131288,2.687795 v -5.398962 h 0.311628 0.373954 l 3.427913,3.770704 V 43.567064 H 65.5674 q 0.01558,0.02337 0.03895,0.03116 0.02337,0.0078 0.04674,0.01558 0.03116,-0.0078 0.05454,-0.01558 0.02337,-0.0078 0.03895,-0.01558 l 0.311628,-0.0078 v 5.391171 H 65.746587 65.442749 L 61.94472,45.078462 v 3.887564 h -0.311628 q -0.0078,0 -0.01558,0 -0.0078,0 -0.01558,0 -0.01558,0 -0.02337,0 -0.0078,-0.0078 -0.01558,-0.0078 -0.01558,0 -0.03116,0 -0.0078,0 -0.02337,0.0078 -0.01558,0 -0.03116,0 -0.0078,0 -0.02337,0 h -0.311628 v 0 z m 6.084542,-2.64105 q 0.03116,-0.615466 0.179187,-1.075118 0.155814,-0.459652 0.428489,-0.755699 0.272675,-0.296047 0.568722,-0.498606 0.303837,-0.202558 0.631047,-0.311628 0.171396,-0.06233 0.335001,-0.101279 0.171395,-0.03895 0.335,-0.06233 0.163605,-0.02337 0.311629,-0.03895 0.155814,-0.01558 0.280465,-0.02337 l 0.311628,-0.0078 q 0.249303,0.0078 0.498606,0.03895 0.257093,0.02337 0.514187,0.07791 0.249302,0.05454 0.498605,0.155814 0.257094,0.09349 0.514187,0.225931 l -0.249303,0.66221 h -0.311628 q -0.03895,-0.01558 -0.0857,-0.04674 -0.04674,-0.03895 -0.09349,-0.0857 -0.04675,-0.04674 -0.10128,-0.09349 -0.04674,-0.04674 -0.10907,-0.09349 -0.109069,-0.0857 -0.249302,-0.163605 -0.140233,-0.07791 -0.303838,-0.148023 -0.132442,-0.06233 -0.303838,-0.09349 -0.163605,-0.03895 -0.358372,-0.04674 -0.03895,0 -0.0857,0.0078 -0.03895,0 -0.0857,0.0078 -0.07791,0.0078 -0.163605,0.02337 -0.07791,0.01558 -0.163605,0.03895 -0.288256,0.07791 -0.560931,0.249303 -0.264884,0.163605 -0.514187,0.420698 -0.241512,0.257094 -0.381744,0.631048 -0.140233,0.373954 -0.179187,0.88035 v 0.02337 0.03116 0.03116 0.03116 q -0.0078,0.576512 0.148024,1.043955 0.155814,0.467442 0.467442,0.825815 0.296047,0.335001 0.670001,0.514187 0.381745,0.171396 0.849188,0.194768 0.155814,-0.0078 0.296047,-0.02337 0.148023,-0.02337 0.288256,-0.05454 0.179186,-0.03895 0.303838,-0.09349 0.132442,-0.06233 0.22593,-0.132442 v -2.041166 h 0.311629 q 0.01558,0.01558 0.03116,0.02337 0.01558,0 0.03895,0.0078 0.01558,0.0078 0.03116,0.01558 0.01558,0 0.03116,0 0.0078,0 0.0078,0 0.0078,0 0.01558,0 0.0078,0.0078 0.0078,0.0078 0.0078,0 0.01558,0 0,0 0,0 0,0 0.0078,0 0,0 0,0 0,0 0,0 0.03895,-0.0078 0.0857,-0.01558 0.04675,-0.01558 0.09349,-0.02337 l 0.311628,-0.0078 v 2.267096 l -0.02337,0.02337 -0.02337,0.0078 q -0.03895,0.02337 -0.09349,0.03895 -0.04675,0.01558 -0.10128,0.03116 -0.05454,0.02337 -0.11686,0.03895 -0.06233,0.01558 -0.132442,0.03116 -0.140233,0.03116 -0.280466,0.05454 -0.140233,0.02337 -0.296047,0.03895 -0.140233,0.02337 -0.272675,0.03895 -0.124651,0.02337 -0.257093,0.03116 -0.124652,0.01558 -0.233721,0.02337 -0.10907,0.0078 -0.194768,0.0078 h -0.311629 q -0.01558,0 -0.03895,0 -0.01558,0 -0.03116,0 -0.01558,0 -0.03895,0 -0.01558,0 -0.03116,0 -0.662211,0 -1.184188,-0.179187 Q 68.387635,48.732305 67.9981,48.35056 67.616355,47.976606 67.421587,47.478001 67.226819,46.971605 67.226819,46.340557 v -0.01558 z m 6.575357,2.64105 v -5.461287 h 0.311629 q 0.02337,0.01558 0.05454,0.03116 0.03116,0.0078 0.06233,0.01558 0.0078,0 0.01558,0.0078 0.01558,0 0.02337,0 0.0078,0 0.01558,0 0.01558,0 0.02337,0 0,0 0,0 0.0078,0 0.01558,0 0.0078,0 0.0078,0 0.0078,0 0.0078,0 0.03895,-0.0078 0.07012,-0.01558 0.03895,-0.01558 0.06233,-0.02337 l 0.311628,-0.0078 v 2.267097 q 0.10907,0.03116 0.280465,0.04674 0.171396,0.01558 0.405117,0.03116 0.21035,0.0078 0.428489,0.01558 0.225931,0.0078 0.451862,0.0078 0.202558,0 0.389535,0 0.194768,-0.0078 0.381745,-0.01558 0.22593,-0.01558 0.397326,-0.03116 0.171396,-0.01558 0.272675,-0.03895 v -2.290468 h 0.311628 q 0.0078,0.01558 0.01558,0.02337 0.0078,0 0.01558,0 0,0.0078 0.0078,0.0078 0.0078,0 0.01558,0 0.01558,0.0078 0.03116,0.0078 0.01558,0 0.03116,0 0.0078,0 0.01558,0.0078 0.0078,0 0.01558,0 0.0078,0.0078 0.01558,0.0078 0.0078,0 0.01558,0 0.0078,0 0.0078,0 0.0078,0 0.01558,0 0.03895,-0.0078 0.07791,-0.01558 0.04674,-0.01558 0.07791,-0.02337 l 0.311628,-0.0078 v 5.453497 h -0.311628 q -0.03116,0 -0.07012,0 -0.03116,-0.0078 -0.07012,-0.01558 0,0 -0.0078,0 0,0 0,0 0,0 -0.0078,0 0,0 0,0 0,0 -0.0078,0 0,0 -0.0078,0 -0.04674,0.0078 -0.09349,0.01558 -0.04674,0 -0.09349,0 H 77.79102 v -2.695585 q -0.05454,0 -0.132442,0 -0.07012,-0.0078 -0.155814,-0.01558 -0.0857,0 -0.186977,0 -0.09349,-0.0078 -0.202559,-0.01558 -0.171395,-0.01558 -0.358372,-0.01558 -0.186978,-0.0078 -0.389536,-0.0078 -0.03895,0 -0.07791,0 -0.03895,0 -0.07012,0 -0.03895,0.0078 -0.07791,0.0078 -0.03116,0 -0.07012,0 -0.04674,0 -0.09349,0 -0.04675,0 -0.09349,0 -0.05454,0.0078 -0.101279,0.0078 -0.04674,0 -0.09349,0 -0.05454,0 -0.11686,0.0078 -0.05454,0 -0.10907,0 -0.06233,0.0078 -0.116861,0.01558 -0.05454,0 -0.116861,0 -0.11686,0.0078 -0.22593,0.01558 -0.10907,0 -0.21814,0.01558 v 2.680004 h -0.311628 q -0.04675,0 -0.0857,0 -0.03116,-0.0078 -0.07012,-0.01558 -0.04674,0.0078 -0.09349,0.01558 -0.04674,0 -0.10907,0 h -0.311629 v 0 z m 6.450704,0 V 43.62939 h 0.311629 2.820237 q -0.0078,0.03895 -0.01558,0.07012 -0.0078,0.02337 -0.01558,0.04675 0,0.0078 -0.0078,0.02337 0,0.0078 0,0.01558 -0.0078,0.01558 -0.0078,0.02337 0,0.0078 0,0.02337 v 0.01558 0.03116 q 0,0.03895 0,0.07012 0,0.02337 0.0078,0.05454 0,0.01558 0,0.03116 0.0078,0.01558 0.01558,0.03116 0.0078,0.02337 0.0078,0.03895 0.0078,0.01558 0.01558,0.03116 l -0.311629,-0.0078 q -0.11686,-0.01558 -0.233721,-0.03116 -0.116861,-0.01558 -0.249303,-0.02337 -0.124651,-0.0078 -0.257093,-0.0078 -0.124652,-0.0078 -0.257094,-0.0078 0,0 0,0 0,0 0,0 -0.0078,0 -0.0078,0 0,0 0,0 -0.03116,0.0078 -0.06233,0.0078 -0.02337,0 -0.05454,0 -0.03116,0 -0.06233,0 -0.03116,0 -0.05454,0 -0.03116,0 -0.07012,0 -0.03116,0 -0.07012,0 -0.03116,0.0078 -0.07012,0.0078 -0.03116,0 -0.06233,0 -0.07012,0 -0.140233,0 -0.06233,0 -0.124652,0 v 1.885352 h 0.856979 l 0.732326,-0.06233 h 0.311629 q -0.0078,0.03895 -0.02337,0.07012 -0.0078,0.02337 -0.01558,0.04674 -0.0078,0.03116 -0.0078,0.06233 0,0.02337 0,0.05454 0,0.01558 0,0.03116 0,0.01558 0,0.03116 0,0.02337 0,0.03895 0.0078,0.01558 0.0078,0.03116 0.0078,0.03116 0.01558,0.07012 0.01558,0.03116 0.02337,0.07012 l -0.311629,-0.0078 -0.919304,-0.07012 h -0.670001 v 2.212561 q 0.05454,0.01558 0.116861,0.02337 0.06233,0.0078 0.132442,0.0078 0.06233,0.0078 0.124651,0.0078 0.06233,0 0.132443,0 0.03895,0 0.07012,0 0.03116,0 0.06233,-0.0078 0.03116,0 0.06232,0 0.03895,0 0.07012,0 0.155814,-0.0078 0.303837,-0.01558 0.148024,-0.0078 0.296047,-0.01558 0.140233,-0.01558 0.257094,-0.02337 0.11686,-0.01558 0.210349,-0.02337 l 0.311628,-0.0078 q -0.0078,0.03895 -0.02337,0.07791 -0.0078,0.03116 -0.01558,0.07012 -0.0078,0.03116 -0.0078,0.06233 0,0.03116 0,0.06233 0,0.03116 0,0.06233 0,0.03116 0.0078,0.06233 0.0078,0.03116 0.01558,0.05454 0.01558,0.02337 0.02337,0.03116 H 83.135443 80.25288 v 0 z"
         id="text8"
         aria-label="ZHONGHE" />
    </g>
  </g>
</svg>
