<?xml version="1.0" encoding="UTF-8" standalone="no"?>
<!-- Created with Inkscape (http://www.inkscape.org/) -->

<svg
   width="500"
   height="250"
   viewBox="0 0 132.29166 66.145833"
   version="1.1"
   id="svg1"
   inkscape:version="1.1 (c68e22c387, 2021-05-23)"
   sodipodi:docname="y12_con.svg"
   xmlns:inkscape="http://www.inkscape.org/namespaces/inkscape"
   xmlns:sodipodi="http://sodipodi.sourceforge.net/DTD/sodipodi-0.dtd"
   xmlns="http://www.w3.org/2000/svg"
   xmlns:svg="http://www.w3.org/2000/svg">
  <sodipodi:namedview
     id="namedview1"
     pagecolor="#9e652e"
     bordercolor="#ffffff"
     borderopacity="1"
     inkscape:showpageshadow="0"
     inkscape:pageopacity="0"
     inkscape:pagecheckerboard="false"
     inkscape:deskcolor="#d1d1d1"
     inkscape:document-units="mm"
     inkscape:zoom="2.0208096"
     inkscape:cx="271.17844"
     inkscape:cy="127.17675"
     inkscape:window-width="1920"
     inkscape:window-height="1094"
     inkscape:window-x="-11"
     inkscape:window-y="-11"
     inkscape:window-maximized="1"
     inkscape:current-layer="layer1"
     inkscape:pageshadow="0"
     showgrid="false" />
  <defs
     id="defs1">
    <rect
       x="157.85752"
       y="62.351248"
       width="329.07603"
       height="135.09437"
       id="rect4" />
  </defs>
  <g
     inkscape:label="Layer 1"
     inkscape:groupmode="layer"
     id="layer1">
    <path
       id="rect5"
       style="fill:#ffffff;stroke-width:0.953294"
       d="M -2.5431316e-6,-1.2715658e-6 H 132.29167 V 66.145835 H -2.5431316e-6 Z" />
    <g
       id="g1"
       transform="matrix(1.121508,0,0,1.121508,22.126542,-3.0133416)">
      <path
         id="rect6"
         style="fill:none;stroke:#000000;stroke-width:0.575409"
         d="m 9.3009131,19.849001 h 5.7010479 c 1.810115,0 3.267355,1.45724 3.267355,3.267355 v 9.524719 c 0,1.810115 -1.45724,3.267355 -3.267355,3.267355 H 9.3009131 c -1.8101145,0 -3.2673547,-1.45724 -3.2673547,-3.267355 v -9.524719 c 0,-1.810115 1.4572402,-3.267355 3.2673547,-3.267355 z" />
      <path
         style="font-weight:bold;font-size:5.82083px;line-height:1.25;font-family:'Optima Bold';-inkscape-font-specification:'Optima Bold,  Bold';stroke-width:0.264583"
         d="m 11.768055,25.2551 -1.420282,-2.293407 h 0.232833 q 0.04657,0.01746 0.09313,0.0291 0.05239,0.0058 0.09313,0.01164 0.01164,0 0.01746,0 0.01164,0 0.01746,0 0,0 0,0 0.0058,0 0.0058,0 0,0 0,0 0.0058,0 0.0058,0 0.0291,0 0.05239,0 0.0291,0 0.05239,-0.0058 0.0291,-0.0058 0.05821,-0.01164 0.0291,-0.0058 0.05821,-0.01164 l 0.232833,-0.0058 0.98372,1.711324 0.937154,-1.717145 h 0.232833 q 0.0291,0.01746 0.05821,0.0291 0.03492,0.0058 0.06403,0.01164 0.0058,0 0.01164,0 0.01164,0 0.01746,0 0.0058,0 0.01164,0 0.01164,-0.0058 0.01746,-0.0058 0.02328,-0.0058 0.04657,-0.01164 0.02328,-0.0058 0.04657,-0.01164 l 0.232833,-0.0058 q -0.03492,0.05239 -0.06985,0.09895 -0.0291,0.04657 -0.05821,0.09313 -0.03492,0.04657 -0.06985,0.09313 -0.0291,0.04657 -0.05821,0.09313 -0.03492,0.04657 -0.06985,0.09895 -0.0291,0.04657 -0.05821,0.09313 -0.03493,0.04657 -0.06985,0.09895 -0.0291,0.04657 -0.05821,0.09313 -0.128058,0.192088 -0.244475,0.378354 -0.116416,0.186267 -0.232833,0.372533 -0.110596,0.186267 -0.20955,0.360892 -0.09895,0.174625 -0.180445,0.331787 v 1.775353 h -0.232834 q -0.03492,0 -0.06985,0 -0.0291,-0.0058 -0.05821,-0.01164 0,0 -0.0058,0 0,0 0,0 0,0 -0.0058,0 0,0 0,0 -0.0058,0 -0.01164,0 0,0 -0.0058,0 -0.03493,0.0058 -0.07567,0.01164 -0.03493,0 -0.08149,0 h -0.232834 v -1.693861 0 z"
         id="text6"
         aria-label="Y" />
      <path
         style="font-weight:bold;font-size:5.82083px;line-height:1.25;font-family:'Optima Bold';-inkscape-font-specification:'Optima Bold,  Bold';stroke-width:0.264583"
         d="m 9.3516163,29.278575 q 0.1688041,-0.07567 0.3317873,-0.151341 0.1688041,-0.07567 0.3317874,-0.151342 0.162983,-0.06985 0.291041,-0.1397 0.133879,-0.06985 0.238654,-0.1397 l 0.232834,-0.0058 0.1397,0.04075 v 3.987269 h -0.232834 q -0.03492,-0.0058 -0.06403,-0.01746 -0.0291,-0.0058 -0.05821,-0.01164 -0.03492,0.0058 -0.06985,0.01164 -0.03493,0.01164 -0.08149,0.01746 H 10.178174 V 29.278575 L 9.7707161,29.511409 H 9.5378829 q -0.00582,0 -0.017462,-0.0058 -0.00582,-0.01164 -0.017463,-0.0291 -0.00582,-0.01164 -0.011642,-0.01746 -0.00582,-0.01164 -0.00582,-0.01746 -0.00582,-0.01164 -0.011642,-0.01746 -0.00582,-0.01164 -0.011642,-0.01746 -0.00582,-0.01164 -0.011642,-0.01746 -0.00582,-0.0058 -0.011642,-0.01746 -0.011642,-0.0058 -0.017462,-0.01164 -0.00582,-0.01164 -0.011642,-0.01746 -0.011642,-0.01746 -0.029104,-0.0291 -0.011642,-0.01746 -0.029104,-0.02328 v -0.01164 z m 3.3993697,0.04657 q 0.09895,-0.162983 0.20955,-0.2794 0.116417,-0.116416 0.244475,-0.174625 0.128058,-0.06403 0.273579,-0.09313 0.151342,-0.03493 0.325966,-0.03493 l 0.232834,-0.0058 q 0.01164,0.0058 0.01746,0.0058 0.0058,0 0.01746,0 0.0058,0.0058 0.01164,0.0058 0.01164,0 0.01746,0 0.01746,0 0.03492,0 0.01746,0 0.03493,0 0.186266,0.01746 0.360891,0.09313 0.174625,0.06985 0.331788,0.203729 0.157162,0.128058 0.238654,0.331787 0.08149,0.197909 0.08149,0.465667 0,0.122237 -0.02328,0.250296 -0.02328,0.128058 -0.06985,0.261937 -0.04657,0.133879 -0.1397,0.273579 -0.09313,0.133879 -0.227012,0.267758 l -1.32715,1.356253 1.594908,-0.04075 h 0.232833 q -0.0058,0.03493 -0.01164,0.06403 -0.0058,0.02328 -0.01164,0.05239 -0.0058,0.02328 -0.0058,0.05239 0,0.02328 0,0.05239 0,0.0291 0,0.06403 0,0.0291 0.0058,0.05821 0,0.0291 0.0058,0.06403 0.01164,0.0291 0.01746,0.05239 h -0.232833 -2.52042 v -0.09313 q 0.04657,-0.03493 0.09313,-0.07567 0.04657,-0.04657 0.09313,-0.08731 0.04657,-0.04657 0.09313,-0.09313 0.05239,-0.04657 0.09895,-0.09895 0.01746,-0.01746 0.03492,-0.03493 0.01746,-0.01746 0.04075,-0.03492 0.01746,-0.01746 0.03492,-0.03493 0.01746,-0.02328 0.03493,-0.04075 0.01746,-0.01746 0.03492,-0.03492 0.01746,-0.01746 0.04075,-0.04075 0.01746,-0.01746 0.03492,-0.03493 0.01746,-0.02328 0.03492,-0.04075 0.180446,-0.186267 0.337608,-0.360892 0.162983,-0.180445 0.308504,-0.349249 0.145521,-0.168804 0.238654,-0.291042 0.09895,-0.128058 0.145521,-0.215371 0.04075,-0.06403 0.07567,-0.139699 0.03492,-0.07567 0.05821,-0.151342 0.0291,-0.08149 0.04657,-0.162983 0.01746,-0.08149 0.03493,-0.168804 0,-0.0291 0,-0.05821 0.0058,-0.03492 0.01164,-0.06403 0,-0.01746 0,-0.0291 0,-0.01746 0.0058,-0.03493 0,-0.01164 0,-0.0291 0,-0.01746 0,-0.03492 0,-0.162983 -0.04075,-0.302683 -0.04075,-0.145521 -0.122237,-0.267758 -0.06985,-0.104775 -0.174625,-0.168804 -0.104775,-0.06403 -0.256117,-0.07567 -0.07567,0.0058 -0.14552,0.04075 -0.06985,0.0291 -0.13388,0.07567 -0.07567,0.05821 -0.133879,0.128059 -0.05239,0.06985 -0.08731,0.14552 -0.0058,0.02328 -0.01746,0.04657 -0.0058,0.01746 -0.01746,0.03493 -0.0058,0.02328 -0.01164,0.04075 -0.0058,0.01746 -0.0058,0.03493 l -0.09313,0.0291 h -0.232833 l -0.180446,-0.273579 v 0 z"
         id="text6-8"
         aria-label="12" />
    </g>
    <g
       id="g2"
       transform="translate(3.3051826,-2.6369997)">
      <path
         style="font-weight:600;font-size:18.3502px;line-height:1.25;font-family:'Noto Serif TC';-inkscape-font-specification:'Noto Serif TC Semi-Bold';letter-spacing:1.96609px;stroke-width:0.327681"
         d="m 53.44404,31.687757 v -4.881153 h 4.642601 v 4.881153 z m -6.477621,0 v -4.881153 h 4.642601 v 4.881153 z m 11.83588,-6.40422 -0.89916,0.990911 H 53.44404 v -3.192935 c 0.495456,-0.0734 0.623907,-0.275253 0.678958,-0.532156 L 51.60902,22.292455 v 3.981993 H 47.131571 L 45.1681,25.448689 v 8.551194 h 0.275253 c 0.734008,0 1.523066,-0.422055 1.523066,-0.587207 v -1.192763 h 4.642601 v 7.138228 h 0.348654 c 0.697308,0 1.486366,-0.458755 1.486366,-0.660607 v -6.477621 h 4.642601 v 1.523067 h 0.311953 c 0.605557,0 1.504717,-0.330304 1.523067,-0.458755 v -6.165668 c 0.385354,-0.0734 0.642257,-0.238552 0.770708,-0.385354 z m 11.765096,2.991083 h -0.89916 v -3.68839 c 0.84411,-0.165152 1.633168,-0.330304 2.257075,-0.513806 0.513806,0.183502 0.89916,0.165152 1.082662,0 l -1.908421,-1.724919 c -1.486366,0.844109 -4.404048,2.073573 -6.734524,2.69748 l 0.0734,0.275253 c 1.156063,-0.09175 2.348826,-0.238553 3.523239,-0.440405 v 3.394787 h -3.541589 l 0.146802,0.532156 h 2.880981 c -0.623907,2.624079 -1.688218,5.358258 -3.229635,7.34008 l 0.220202,0.220203 c 1.468016,-1.229464 2.624079,-2.66078 3.523239,-4.275597 v 7.266679 h 0.293603 c 0.825759,0 1.394615,-0.403704 1.412965,-0.532156 v -8.367691 c 0.678958,0.825759 1.431316,1.908421 1.633168,2.807581 1.449666,1.119362 2.807581,-1.743269 -1.633168,-3.266336 v -1.192763 h 3.119534 c 0.275253,0 0.458755,-0.09175 0.495456,-0.293603 -0.642257,-0.642257 -1.743269,-1.559767 -1.743269,-1.559767 z m 4.624251,7.229979 v -9.725606 h 3.284686 v 9.725606 z m 3.981993,-11.230323 -0.880809,0.972561 h -3.009433 l -1.79832,-0.770708 v 13.781 h 0.293603 c 0.734008,0 1.412966,-0.422054 1.412966,-0.623907 v -1.596467 h 3.284686 v 1.890071 h 0.275253 c 0.587206,0 1.431315,-0.348654 1.468016,-0.458755 V 26.127647 c 0.385354,-0.09175 0.697307,-0.238553 0.807409,-0.403705 z"
         id="text7"
         aria-label="中和" />
      <path
         style="font-weight:bold;font-size:7.79071px;line-height:1.25;font-family:'Optima Bold';-inkscape-font-specification:'Optima Bold,  Bold';stroke-width:0.354123"
         d="m 42.849698,43.62939 h 4.175821 v 0.186977 q -0.412908,0.568722 -0.833606,1.137444 -0.420698,0.568721 -0.841397,1.153025 -0.420698,0.584303 -0.864768,1.215351 -0.43628,0.623256 -0.895932,1.293257 0.389535,0 0.77128,-0.0078 0.381745,-0.0078 0.755699,-0.01558 0.43628,-0.01558 0.818025,-0.05454 0.381744,-0.03895 0.716745,-0.10907 l 0.311628,-0.0078 q -0.0078,0.05454 -0.02337,0.09349 -0.0078,0.03895 -0.01558,0.07791 -0.0078,0.03116 -0.0078,0.07012 0,0.03116 0,0.06233 v 0.03895 l 0.0078,0.03895 q 0,0.01558 0,0.03116 0,0.0078 0,0.01558 0,0.01558 0,0.02337 0.0078,0.0078 0.0078,0.02337 0.0078,0.02337 0.01558,0.04674 0.0078,0.01558 0.01558,0.02337 h -0.311628 -4.417333 v -0.241512 l 3.365587,-4.72117 q -0.350582,0.01558 -0.685582,0.02337 -0.32721,0.0078 -0.646629,0.02337 -0.194768,0.0078 -0.381745,0.02337 -0.179186,0.0078 -0.358373,0.01558 -0.179186,0.01558 -0.350582,0.02337 -0.163605,0.0078 -0.32721,0.02337 l -0.311628,-0.0078 q 0.0078,-0.01558 0.0078,-0.03895 0.0078,-0.02337 0.01558,-0.04674 0.0078,-0.02337 0.0078,-0.04675 0.0078,-0.02337 0.01558,-0.04674 v -0.03116 -0.03116 q 0,-0.02337 -0.0078,-0.04674 0,-0.03116 -0.0078,-0.06233 -0.0078,-0.03116 -0.01558,-0.06233 0,-0.03895 -0.01558,-0.07012 v -0.01558 h 0.311628 z m 4.970468,5.336636 v -5.461287 h 0.311628 q 0.02337,0.01558 0.05454,0.03116 0.03116,0.0078 0.06233,0.01558 0.0078,0 0.01558,0.0078 0.01558,0 0.02337,0 0.0078,0 0.01558,0 0.01558,0 0.02337,0 0,0 0,0 0.0078,0 0.01558,0 0.0078,0 0.0078,0 0.0078,0 0.0078,0 0.03895,-0.0078 0.07012,-0.01558 0.03895,-0.01558 0.06233,-0.02337 l 0.311629,-0.0078 v 2.267097 q 0.109069,0.03116 0.280465,0.04674 0.171396,0.01558 0.405117,0.03116 0.210349,0.0078 0.428489,0.01558 0.225931,0.0078 0.451861,0.0078 0.202559,0 0.389536,0 0.194767,-0.0078 0.381745,-0.01558 0.22593,-0.01558 0.397326,-0.03116 0.171395,-0.01558 0.272675,-0.03895 v -2.290468 h 0.311628 q 0.0078,0.01558 0.01558,0.02337 0.0078,0 0.01558,0 0,0.0078 0.0078,0.0078 0.0078,0 0.01558,0 0.01558,0.0078 0.03116,0.0078 0.01558,0 0.03116,0 0.0078,0 0.01558,0.0078 0.0078,0 0.01558,0 0.0078,0.0078 0.01558,0.0078 0.0078,0 0.01558,0 0.0078,0 0.0078,0 0.0078,0 0.01558,0 0.03895,-0.0078 0.07791,-0.01558 0.04674,-0.01558 0.07791,-0.02337 l 0.311628,-0.0078 v 5.453497 h -0.311628 q -0.03116,0 -0.07012,0 -0.03116,-0.0078 -0.07012,-0.01558 0,0 -0.0078,0 0,0 0,0 0,0 -0.0078,0 0,0 0,0 0,0 -0.0078,0 0,0 -0.0078,0 -0.04674,0.0078 -0.09349,0.01558 -0.04674,0 -0.09349,0 H 51.80901 v -2.695585 q -0.05454,0 -0.132442,0 -0.07012,-0.0078 -0.155815,-0.01558 -0.0857,0 -0.186977,0 -0.09349,-0.0078 -0.202558,-0.01558 -0.171396,-0.01558 -0.358373,-0.01558 -0.186977,-0.0078 -0.389535,-0.0078 -0.03895,0 -0.07791,0 -0.03895,0 -0.07012,0 -0.03895,0.0078 -0.07791,0.0078 -0.03116,0 -0.07012,0 -0.04675,0 -0.09349,0 -0.04674,0 -0.09349,0 -0.05454,0.0078 -0.10128,0.0078 -0.04674,0 -0.09349,0 -0.05454,0 -0.116861,0.0078 -0.05453,0 -0.10907,0 -0.06233,0.0078 -0.11686,0.01558 -0.05454,0 -0.116861,0 -0.116861,0.0078 -0.225931,0.01558 -0.10907,0 -0.218139,0.01558 v 2.680004 h -0.311629 q -0.04674,0 -0.0857,0 -0.03116,-0.0078 -0.07012,-0.01558 -0.04674,0.0078 -0.09349,0.01558 -0.04674,0 -0.10907,0 h -0.311628 v 0 z m 6.076751,-2.695585 q 0,-0.03116 0,-0.06233 0,-0.03895 0,-0.07012 0,-0.03895 0,-0.07791 0.0078,-0.03895 0.01558,-0.07791 0.04674,-0.467442 0.257093,-0.895931 0.210349,-0.43628 0.584303,-0.833606 0.366164,-0.397326 0.903723,-0.592094 0.537559,-0.202559 1.246513,-0.202559 l 0.311629,-0.0078 q 0.716745,0.03116 1.223141,0.194767 0.514187,0.163605 0.825815,0.483024 0.311629,0.311629 0.506397,0.65442 0.202558,0.342791 0.288256,0.716745 0.01558,0.04674 0.02337,0.09349 0.0078,0.04674 0.01558,0.0857 0.0078,0.04674 0.01558,0.09349 0.0078,0.04674 0.01558,0.09349 0.01558,0.09349 0.01558,0.186977 0.0078,0.0857 0.01558,0.171395 v 0.01558 0.02337 0.03116 0.02337 q 0,0.65442 -0.225931,1.168606 -0.218139,0.506397 -0.670001,0.87256 -0.451861,0.373954 -0.966048,0.55314 -0.506396,0.179187 -1.075118,0.179187 h -0.311628 q -0.01558,0 -0.03116,0 -0.01558,0 -0.03116,0 -0.01558,0 -0.03895,0 -0.01558,0 -0.03116,0 -0.101279,0 -0.202559,-0.0078 -0.09349,0 -0.194767,-0.01558 -0.101279,-0.0078 -0.202559,-0.03116 -0.101279,-0.02337 -0.202558,-0.04675 -0.389536,-0.0857 -0.747908,-0.296047 -0.358373,-0.210349 -0.685583,-0.529768 -0.32721,-0.319419 -0.490815,-0.786862 -0.155814,-0.475233 -0.155814,-1.090699 v -0.01558 z m 1.114072,0.0078 q 0,0.607676 0.148023,1.075118 0.155814,0.459652 0.467443,0.786862 0.280465,0.296047 0.631047,0.459652 0.358373,0.163605 0.786862,0.186977 0.397326,-0.02337 0.724536,-0.186977 0.335001,-0.163605 0.599885,-0.459652 0.296047,-0.32721 0.467442,-0.794652 0.171396,-0.467443 0.21814,-1.059537 0,-0.01558 0,-0.03116 0,-0.02337 0,-0.03116 0,-0.01558 0,-0.03116 0,-0.01558 0,-0.03116 0,-0.506396 -0.155814,-0.934885 -0.148023,-0.42849 -0.451861,-0.771281 -0.288256,-0.311628 -0.65442,-0.483024 -0.358372,-0.171395 -0.794652,-0.194768 -0.381745,0.02337 -0.685583,0.163605 -0.303837,0.132442 -0.514187,0.381745 -0.233721,0.280466 -0.397326,0.584303 -0.155814,0.303838 -0.249302,0.631048 -0.02337,0.101279 -0.04674,0.194768 -0.02337,0.09349 -0.03895,0.186977 -0.01558,0.09349 -0.03116,0.186977 -0.0078,0.09349 -0.02337,0.179186 z m 6.131288,2.687795 v -5.398962 h 0.311628 0.373954 l 3.427913,3.770704 V 43.567064 H 65.5674 q 0.01558,0.02337 0.03895,0.03116 0.02337,0.0078 0.04674,0.01558 0.03116,-0.0078 0.05454,-0.01558 0.02337,-0.0078 0.03895,-0.01558 l 0.311628,-0.0078 v 5.391171 H 65.746587 65.442749 L 61.94472,45.078462 v 3.887564 h -0.311628 q -0.0078,0 -0.01558,0 -0.0078,0 -0.01558,0 -0.01558,0 -0.02337,0 -0.0078,-0.0078 -0.01558,-0.0078 -0.01558,0 -0.03116,0 -0.0078,0 -0.02337,0.0078 -0.01558,0 -0.03116,0 -0.0078,0 -0.02337,0 h -0.311628 v 0 z m 6.084542,-2.64105 q 0.03116,-0.615466 0.179187,-1.075118 0.155814,-0.459652 0.428489,-0.755699 0.272675,-0.296047 0.568722,-0.498606 0.303837,-0.202558 0.631047,-0.311628 0.171396,-0.06233 0.335001,-0.101279 0.171395,-0.03895 0.335,-0.06233 0.163605,-0.02337 0.311629,-0.03895 0.155814,-0.01558 0.280465,-0.02337 l 0.311628,-0.0078 q 0.249303,0.0078 0.498606,0.03895 0.257093,0.02337 0.514187,0.07791 0.249302,0.05454 0.498605,0.155814 0.257094,0.09349 0.514187,0.225931 l -0.249303,0.66221 h -0.311628 q -0.03895,-0.01558 -0.0857,-0.04674 -0.04674,-0.03895 -0.09349,-0.0857 -0.04675,-0.04674 -0.10128,-0.09349 -0.04674,-0.04674 -0.10907,-0.09349 -0.109069,-0.0857 -0.249302,-0.163605 -0.140233,-0.07791 -0.303838,-0.148023 -0.132442,-0.06233 -0.303838,-0.09349 -0.163605,-0.03895 -0.358372,-0.04674 -0.03895,0 -0.0857,0.0078 -0.03895,0 -0.0857,0.0078 -0.07791,0.0078 -0.163605,0.02337 -0.07791,0.01558 -0.163605,0.03895 -0.288256,0.07791 -0.560931,0.249303 -0.264884,0.163605 -0.514187,0.420698 -0.241512,0.257094 -0.381744,0.631048 -0.140233,0.373954 -0.179187,0.88035 v 0.02337 0.03116 0.03116 0.03116 q -0.0078,0.576512 0.148024,1.043955 0.155814,0.467442 0.467442,0.825815 0.296047,0.335001 0.670001,0.514187 0.381745,0.171396 0.849188,0.194768 0.155814,-0.0078 0.296047,-0.02337 0.148023,-0.02337 0.288256,-0.05454 0.179186,-0.03895 0.303838,-0.09349 0.132442,-0.06233 0.22593,-0.132442 v -2.041166 h 0.311629 q 0.01558,0.01558 0.03116,0.02337 0.01558,0 0.03895,0.0078 0.01558,0.0078 0.03116,0.01558 0.01558,0 0.03116,0 0.0078,0 0.0078,0 0.0078,0 0.01558,0 0.0078,0.0078 0.0078,0.0078 0.0078,0 0.01558,0 0,0 0,0 0,0 0.0078,0 0,0 0,0 0,0 0,0 0.03895,-0.0078 0.0857,-0.01558 0.04675,-0.01558 0.09349,-0.02337 l 0.311628,-0.0078 v 2.267096 l -0.02337,0.02337 -0.02337,0.0078 q -0.03895,0.02337 -0.09349,0.03895 -0.04675,0.01558 -0.10128,0.03116 -0.05454,0.02337 -0.11686,0.03895 -0.06233,0.01558 -0.132442,0.03116 -0.140233,0.03116 -0.280466,0.05454 -0.140233,0.02337 -0.296047,0.03895 -0.140233,0.02337 -0.272675,0.03895 -0.124651,0.02337 -0.257093,0.03116 -0.124652,0.01558 -0.233721,0.02337 -0.10907,0.0078 -0.194768,0.0078 h -0.311629 q -0.01558,0 -0.03895,0 -0.01558,0 -0.03116,0 -0.01558,0 -0.03895,0 -0.01558,0 -0.03116,0 -0.662211,0 -1.184188,-0.179187 Q 68.387635,48.732305 67.9981,48.35056 67.616355,47.976606 67.421587,47.478001 67.226819,46.971605 67.226819,46.340557 v -0.01558 z m 6.575357,2.64105 v -5.461287 h 0.311629 q 0.02337,0.01558 0.05454,0.03116 0.03116,0.0078 0.06233,0.01558 0.0078,0 0.01558,0.0078 0.01558,0 0.02337,0 0.0078,0 0.01558,0 0.01558,0 0.02337,0 0,0 0,0 0.0078,0 0.01558,0 0.0078,0 0.0078,0 0.0078,0 0.0078,0 0.03895,-0.0078 0.07012,-0.01558 0.03895,-0.01558 0.06233,-0.02337 l 0.311628,-0.0078 v 2.267097 q 0.10907,0.03116 0.280465,0.04674 0.171396,0.01558 0.405117,0.03116 0.21035,0.0078 0.428489,0.01558 0.225931,0.0078 0.451862,0.0078 0.202558,0 0.389535,0 0.194768,-0.0078 0.381745,-0.01558 0.22593,-0.01558 0.397326,-0.03116 0.171396,-0.01558 0.272675,-0.03895 v -2.290468 h 0.311628 q 0.0078,0.01558 0.01558,0.02337 0.0078,0 0.01558,0 0,0.0078 0.0078,0.0078 0.0078,0 0.01558,0 0.01558,0.0078 0.03116,0.0078 0.01558,0 0.03116,0 0.0078,0 0.01558,0.0078 0.0078,0 0.01558,0 0.0078,0.0078 0.01558,0.0078 0.0078,0 0.01558,0 0.0078,0 0.0078,0 0.0078,0 0.01558,0 0.03895,-0.0078 0.07791,-0.01558 0.04674,-0.01558 0.07791,-0.02337 l 0.311628,-0.0078 v 5.453497 h -0.311628 q -0.03116,0 -0.07012,0 -0.03116,-0.0078 -0.07012,-0.01558 0,0 -0.0078,0 0,0 0,0 0,0 -0.0078,0 0,0 0,0 0,0 -0.0078,0 0,0 -0.0078,0 -0.04674,0.0078 -0.09349,0.01558 -0.04674,0 -0.09349,0 H 77.79102 v -2.695585 q -0.05454,0 -0.132442,0 -0.07012,-0.0078 -0.155814,-0.01558 -0.0857,0 -0.186977,0 -0.09349,-0.0078 -0.202559,-0.01558 -0.171395,-0.01558 -0.358372,-0.01558 -0.186978,-0.0078 -0.389536,-0.0078 -0.03895,0 -0.07791,0 -0.03895,0 -0.07012,0 -0.03895,0.0078 -0.07791,0.0078 -0.03116,0 -0.07012,0 -0.04674,0 -0.09349,0 -0.04675,0 -0.09349,0 -0.05454,0.0078 -0.101279,0.0078 -0.04674,0 -0.09349,0 -0.05454,0 -0.11686,0.0078 -0.05454,0 -0.10907,0 -0.06233,0.0078 -0.116861,0.01558 -0.05454,0 -0.116861,0 -0.11686,0.0078 -0.22593,0.01558 -0.10907,0 -0.21814,0.01558 v 2.680004 h -0.311628 q -0.04675,0 -0.0857,0 -0.03116,-0.0078 -0.07012,-0.01558 -0.04674,0.0078 -0.09349,0.01558 -0.04674,0 -0.10907,0 h -0.311629 v 0 z m 6.450704,0 V 43.62939 h 0.311629 2.820237 q -0.0078,0.03895 -0.01558,0.07012 -0.0078,0.02337 -0.01558,0.04675 0,0.0078 -0.0078,0.02337 0,0.0078 0,0.01558 -0.0078,0.01558 -0.0078,0.02337 0,0.0078 0,0.02337 v 0.01558 0.03116 q 0,0.03895 0,0.07012 0,0.02337 0.0078,0.05454 0,0.01558 0,0.03116 0.0078,0.01558 0.01558,0.03116 0.0078,0.02337 0.0078,0.03895 0.0078,0.01558 0.01558,0.03116 l -0.311629,-0.0078 q -0.11686,-0.01558 -0.233721,-0.03116 -0.116861,-0.01558 -0.249303,-0.02337 -0.124651,-0.0078 -0.257093,-0.0078 -0.124652,-0.0078 -0.257094,-0.0078 0,0 0,0 0,0 0,0 -0.0078,0 -0.0078,0 0,0 0,0 -0.03116,0.0078 -0.06233,0.0078 -0.02337,0 -0.05454,0 -0.03116,0 -0.06233,0 -0.03116,0 -0.05454,0 -0.03116,0 -0.07012,0 -0.03116,0 -0.07012,0 -0.03116,0.0078 -0.07012,0.0078 -0.03116,0 -0.06233,0 -0.07012,0 -0.140233,0 -0.06233,0 -0.124652,0 v 1.885352 h 0.856979 l 0.732326,-0.06233 h 0.311629 q -0.0078,0.03895 -0.02337,0.07012 -0.0078,0.02337 -0.01558,0.04674 -0.0078,0.03116 -0.0078,0.06233 0,0.02337 0,0.05454 0,0.01558 0,0.03116 0,0.01558 0,0.03116 0,0.02337 0,0.03895 0.0078,0.01558 0.0078,0.03116 0.0078,0.03116 0.01558,0.07012 0.01558,0.03116 0.02337,0.07012 l -0.311629,-0.0078 -0.919304,-0.07012 h -0.670001 v 2.212561 q 0.05454,0.01558 0.116861,0.02337 0.06233,0.0078 0.132442,0.0078 0.06233,0.0078 0.124651,0.0078 0.06233,0 0.132443,0 0.03895,0 0.07012,0 0.03116,0 0.06233,-0.0078 0.03116,0 0.06232,0 0.03895,0 0.07012,0 0.155814,-0.0078 0.303837,-0.01558 0.148024,-0.0078 0.296047,-0.01558 0.140233,-0.01558 0.257094,-0.02337 0.11686,-0.01558 0.210349,-0.02337 l 0.311628,-0.0078 q -0.0078,0.03895 -0.02337,0.07791 -0.0078,0.03116 -0.01558,0.07012 -0.0078,0.03116 -0.0078,0.06233 0,0.03116 0,0.06233 0,0.03116 0,0.06233 0,0.03116 0.0078,0.06233 0.0078,0.03116 0.01558,0.05454 0.01558,0.02337 0.02337,0.03116 H 83.135443 80.25288 v 0 z"
         id="text8"
         aria-label="ZHONGHE" />
    </g>
    <rect
       style="fill:#fedb00;stroke-width:0.217888;fill-opacity:1"
       id="rect852"
       width="132.29167"
       height="13.827605"
       x="-2.5431316e-06"
       y="52.31823"
       ry="0" />
    <g
       aria-label="暫時終點站  Temporary Terminal"
       id="text5386"
       style="font-size:8.38349px;line-height:1.25;stroke-width:0.209588">
      <path
         d="M 8.5010292,56.785255 H 11.544236 V 57.56492 H 8.5010292 Z M 3.9739449,55.435514 h 3.8480217 v 0.57846 H 3.9739449 Z M 3.89011,58.352968 h 3.8480217 v 0.570077 H 3.89011 Z M 9.7920866,57.145745 H 10.68912 v 2.297077 H 9.7920866 Z m -4.7282881,2.422829 h 5.3235155 v 3.252794 H 9.3561452 v -2.49828 H 6.0530503 v 2.506663 H 5.0637985 Z m 0.5030094,1.156921 h 4.2839632 v 0.67068 H 5.5668079 Z m 0,1.081471 H 9.8423876 V 62.56148 H 5.5668079 Z M 4.9212792,57.380483 v 0.285039 h 1.9785035 v -0.285039 z m 0,-0.69583 v 0.285039 H 6.8997827 V 56.684653 Z M 4.1835321,56.257095 H 7.6626803 V 58.09308 H 4.1835321 Z m 1.2910574,-1.316207 h 0.8634994 v 4.460016 H 5.4745895 Z m 5.5163365,0.0503 0.419174,0.712596 q -0.419174,0.117369 -0.930567,0.201204 -0.5030096,0.08384 -1.0311694,0.142519 -0.5197764,0.05868 -0.9976353,0.08384 -0.025151,-0.134136 -0.092218,-0.326956 -0.058684,-0.201204 -0.1257523,-0.343723 0.4778589,-0.03353 0.9808683,-0.100602 0.5030093,-0.07545 0.9641011,-0.159286 0.469476,-0.09222 0.813199,-0.209587 z M 8.2243741,55.460664 H 9.113024 v 1.27429 q 0,0.427558 -0.058684,0.930568 Q 9.0040386,58.160148 8.8447523,58.64639 8.6938495,59.124249 8.3920439,59.493122 8.3165925,59.426055 8.1740732,59.333836 8.0315538,59.233234 7.880651,59.141016 7.7381317,59.040414 7.6291463,58.990113 7.9058015,58.654774 8.0315538,58.26075 q 0.1257524,-0.394025 0.1592863,-0.796432 0.033534,-0.410791 0.033534,-0.746131 z"
         style="font-weight:bold;font-family:'Noto Sans TC';-inkscape-font-specification:'Noto Sans TC Bold'"
         id="path8540" />
      <path
         d="m 15.48446,57.523002 h 4.292347 v 0.871883 H 15.48446 Z m -0.268272,-1.676698 h 4.795356 v 0.880267 h -4.795356 z m 0.01677,3.202494 h 4.736672 v 0.880266 h -4.736672 z m 1.877902,-4.10791 h 0.997635 v 3.085124 h -0.997635 z m 1.064703,3.353395 h 0.989252 v 3.470765 q 0,0.36049 -0.09222,0.561694 -0.09222,0.209587 -0.335339,0.326956 -0.243121,0.108985 -0.595228,0.134136 -0.343723,0.03353 -0.813198,0.03353 -0.03353,-0.209587 -0.125753,-0.486243 -0.09222,-0.268271 -0.19282,-0.461091 0.310189,0.0084 0.603611,0.01677 0.293422,0 0.394024,0 0.09222,0 0.125753,-0.02515 0.04192,-0.03353 0.04192,-0.125752 z m -2.607265,2.204858 0.829965,-0.461092 q 0.16767,0.201204 0.36049,0.452709 0.201204,0.243121 0.368874,0.486242 0.176053,0.234738 0.285038,0.419175 l -0.888649,0.519776 Q 16.431794,61.723131 16.264124,61.48001 16.104838,61.236888 15.920401,60.977 15.735965,60.717112 15.568295,60.499141 Z m -2.657566,-5.030094 h 2.154556 v 5.734307 h -2.154556 v -0.897033 h 1.223989 v -3.94024 h -1.223989 z m 0.0503,2.380912 h 1.626396 v 0.880266 H 12.96103 Z m -0.52816,-2.380912 h 0.930567 v 6.480438 H 12.43287 Z"
         style="font-weight:bold;font-family:'Noto Sans TC';-inkscape-font-specification:'Noto Sans TC Bold'"
         id="path8542" />
      <path
         d="m 24.991321,60.0632 0.561694,-0.628762 q 0.310189,0.108985 0.628761,0.268272 0.326957,0.159286 0.620379,0.326956 0.293422,0.16767 0.494626,0.318572 l -0.578461,0.69583 Q 26.517116,60.884782 26.223694,60.708728 25.938655,60.524292 25.611699,60.356622 25.293127,60.180569 24.991321,60.0632 Z m -0.9138,1.500644 0.57846,-0.704213 q 0.410791,0.108986 0.846733,0.259888 0.435941,0.150903 0.855116,0.318573 0.427558,0.16767 0.804815,0.343723 0.377257,0.176053 0.670679,0.33534 l -0.586844,0.788048 q -0.368874,-0.234738 -0.905417,-0.486243 -0.52816,-0.251504 -1.123388,-0.469475 -0.586844,-0.226354 -1.140154,-0.385641 z m 1.039552,-6.614573 0.972485,0.159286 q -0.310189,0.771281 -0.779665,1.525796 -0.469475,0.74613 -1.173688,1.383275 -0.07545,-0.108985 -0.201204,-0.234737 -0.117369,-0.125753 -0.251504,-0.234738 -0.125753,-0.117369 -0.234738,-0.176053 0.419174,-0.36049 0.737747,-0.771281 0.326956,-0.410791 0.55331,-0.829966 0.234738,-0.427558 0.377257,-0.821582 z m 0.150903,0.804815 h 2.087489 v 0.855116 h -2.515047 z m 1.810834,0 h 0.19282 l 0.16767,-0.04192 0.611995,0.352106 q -0.368874,0.930568 -0.980869,1.685082 -0.611994,0.754514 -1.366509,1.307824 -0.754514,0.544927 -1.567712,0.880266 -0.05868,-0.117368 -0.16767,-0.268271 -0.108985,-0.150903 -0.234738,-0.293422 -0.117368,-0.150903 -0.209587,-0.234738 0.779665,-0.285039 1.483878,-0.746131 0.712596,-0.469475 1.24914,-1.098237 0.544927,-0.628762 0.821582,-1.374892 z m -1.903052,0.653912 q 0.318572,0.603612 0.829965,1.140155 0.511393,0.536543 1.156922,0.955718 0.653912,0.410791 1.383275,0.653912 -0.108985,0.100602 -0.234737,0.243121 -0.117369,0.142519 -0.226354,0.293422 -0.108986,0.150903 -0.184437,0.285039 -0.754514,-0.310189 -1.41681,-0.796432 -0.662296,-0.494626 -1.198839,-1.123387 -0.52816,-0.637145 -0.9138,-1.366509 z m -2.724634,2.020421 0.72098,-0.201203 q 0.100602,0.285038 0.19282,0.611994 0.100602,0.326956 0.176053,0.628762 0.07545,0.301806 0.108986,0.536543 l -0.762898,0.243122 q -0.03353,-0.234738 -0.100602,-0.544927 -0.06707,-0.310189 -0.159286,-0.645529 -0.08384,-0.33534 -0.176053,-0.628762 z m -0.611995,2.179708 0.704213,-0.14252 q 0.08384,0.435942 0.142519,0.947335 0.06707,0.503009 0.08384,0.871883 l -0.737747,0.150902 q 0,-0.251504 -0.03353,-0.561693 -0.02515,-0.318573 -0.06707,-0.645529 -0.04192,-0.33534 -0.09222,-0.620378 z m -0.972485,-0.117369 0.788048,0.125752 q -0.0503,0.561694 -0.142519,1.123388 -0.09222,0.55331 -0.226355,0.938951 -0.08383,-0.0503 -0.226354,-0.108986 -0.142519,-0.0503 -0.285038,-0.09222 -0.14252,-0.04192 -0.251505,-0.06707 0.150903,-0.377257 0.226354,-0.88865 0.07545,-0.519776 0.117369,-1.031169 z M 20.782809,58.2859 q -0.02515,-0.09222 -0.07545,-0.251505 -0.0503,-0.159286 -0.108986,-0.318572 -0.05868,-0.16767 -0.117369,-0.285039 0.134136,-0.04192 0.243122,-0.159286 0.117369,-0.117369 0.243121,-0.301806 0.08384,-0.117369 0.268272,-0.435941 0.184436,-0.326956 0.394024,-0.754514 0.209587,-0.427558 0.352106,-0.880267 l 0.897034,0.368874 q -0.201204,0.461092 -0.461092,0.922184 -0.259889,0.452708 -0.536544,0.871882 -0.268271,0.410791 -0.55331,0.737748 v 0.02515 q 0,0 -0.08384,0.0503 -0.07545,0.04192 -0.184437,0.117369 -0.108985,0.07545 -0.19282,0.150903 -0.08384,0.07545 -0.08384,0.142519 z m 0,0 -0.01677,-0.662296 0.385641,-0.259888 1.458727,-0.100602 q -0.04192,0.176054 -0.06707,0.402408 -0.02515,0.21797 -0.03353,0.36049 -0.486242,0.04192 -0.796432,0.08384 -0.310189,0.03353 -0.494625,0.05868 -0.176054,0.02515 -0.276656,0.05868 -0.100601,0.02515 -0.159286,0.05868 z m 0.06707,1.94497 q -0.02515,-0.09222 -0.08384,-0.259889 -0.0503,-0.167669 -0.117369,-0.335339 -0.05868,-0.176053 -0.117369,-0.301806 0.16767,-0.04192 0.318573,-0.176053 0.150903,-0.142519 0.343723,-0.377257 0.108985,-0.117369 0.301806,-0.377257 0.201203,-0.268272 0.444325,-0.628762 0.243121,-0.36049 0.486242,-0.779664 0.243121,-0.427558 0.435942,-0.846733 l 0.838348,0.511393 q -0.310189,0.55331 -0.687446,1.106621 -0.368873,0.55331 -0.779664,1.056319 -0.410791,0.50301 -0.821582,0.913801 v 0.03353 q 0,0 -0.09222,0.0503 -0.08383,0.04192 -0.19282,0.117368 -0.108985,0.06707 -0.19282,0.150903 -0.08384,0.07545 -0.08384,0.14252 z m 0,0 -0.0503,-0.687447 0.394024,-0.268271 1.986887,-0.259888 q -0.02515,0.176053 -0.04192,0.394024 -0.0084,0.209587 0,0.352106 -0.670679,0.108986 -1.098237,0.184437 -0.419175,0.06707 -0.653913,0.117369 -0.234737,0.0503 -0.352106,0.09222 -0.117369,0.03353 -0.184437,0.07545 z m 1.877902,0.226354 0.662295,-0.226354 q 0.14252,0.36049 0.285039,0.788048 0.150903,0.419174 0.217971,0.729363 l -0.69583,0.259888 Q 23.13857,61.69798 22.99605,61.262039 22.861915,60.826097 22.727779,60.457224 Z"
         style="font-weight:bold;font-family:'Noto Sans TC';-inkscape-font-specification:'Noto Sans TC Bold'"
         id="path8544" />
      <path
         d="m 33.081373,58.914662 h 3.428847 v 3.873172 H 35.546119 V 59.828462 H 33.98679 v 2.992906 h -0.905417 z m 1.115004,-3.948624 h 0.972485 v 4.200128 h -0.972485 z m 0.578461,1.726999 h 2.020421 v 0.930567 h -2.020421 z m -1.215606,4.887574 h 2.439595 v 0.913801 h -2.439595 z m -3.588134,-5.700773 v 1.835985 h 2.037188 v -1.835985 z m -0.74613,-0.670679 h 3.562983 v 3.177343 h -3.562983 z m 0.729363,1.03117 0.419175,-0.117369 q 0.100602,0.285038 0.176053,0.620378 0.07545,0.335339 0.09222,0.578461 l -0.444325,0.142519 q -0.0084,-0.243121 -0.07545,-0.586844 -0.06707,-0.343723 -0.16767,-0.637145 z m 0.259889,4.895957 0.620378,-0.06707 q 0.05868,0.352106 0.08384,0.762897 0.03353,0.402408 0.02515,0.704213 l -0.645528,0.07545 q 0.01677,-0.301806 -0.0084,-0.712597 -0.02515,-0.410791 -0.07545,-0.762898 z m 0.855116,-0.01677 0.595227,-0.108985 q 0.117369,0.33534 0.217971,0.72098 0.100602,0.377257 0.134136,0.670679 l -0.628762,0.125753 q -0.01677,-0.285039 -0.108985,-0.679063 -0.09222,-0.394024 -0.209587,-0.729364 z m 0.838349,-0.01677 0.603611,-0.21797 q 0.184437,0.310189 0.352106,0.687446 0.16767,0.368873 0.234738,0.645529 l -0.637145,0.251504 q -0.05868,-0.285038 -0.217971,-0.662295 -0.150903,-0.385641 -0.335339,-0.704214 z m -2.506664,-0.21797 0.670679,0.251504 q -0.08384,0.385641 -0.209587,0.821582 -0.117369,0.435942 -0.293422,0.737748 l -0.69583,-0.285039 q 0.117369,-0.19282 0.217971,-0.452709 0.108985,-0.259888 0.184437,-0.536543 0.07545,-0.285039 0.125752,-0.536543 z m 2.196474,-4.770206 0.50301,0.16767 q -0.117369,0.301806 -0.243121,0.637145 -0.117369,0.33534 -0.217971,0.561694 l -0.377257,-0.142519 q 0.06707,-0.176054 0.125752,-0.385641 0.06707,-0.217971 0.125753,-0.435941 0.05868,-0.226355 0.08383,-0.402408 z m -2.35576,2.632416 h 3.529449 v 0.762897 h -3.529449 z m 1.433577,-3.19411 h 0.603611 v 2.523431 h 0.142519 v 2.188091 h -0.88865 v -2.188091 h 0.14252 z m -1.601247,4.376182 h 3.814488 v 0.762897 h -3.814488 z"
         style="font-weight:bold;font-family:'Noto Sans TC';-inkscape-font-specification:'Noto Sans TC Bold'"
         id="path8546" />
      <path
         d="M 37.457538,56.424765 H 40.8277 v 0.922184 h -3.370162 z m -0.06707,4.652837 q 0.419174,-0.07545 0.947334,-0.184437 0.536543,-0.108985 1.131771,-0.234737 0.595228,-0.134136 1.173689,-0.259889 l 0.100601,0.930568 q -0.813198,0.19282 -1.643164,0.394024 -0.821582,0.19282 -1.492261,0.343723 z m 0.343723,-3.286328 0.779664,-0.142519 q 0.09222,0.444325 0.16767,0.938951 0.07545,0.494625 0.125752,0.972484 0.05868,0.477859 0.08384,0.8635 l -0.821582,0.16767 q -0.01677,-0.385641 -0.06707,-0.8635 -0.04192,-0.486242 -0.117369,-0.989252 -0.06707,-0.511392 -0.150902,-0.947334 z m 1.869518,-0.209587 0.930567,0.150903 q -0.06707,0.410791 -0.150903,0.846732 -0.07545,0.435942 -0.167669,0.8635 -0.09222,0.427558 -0.184437,0.813198 -0.08384,0.377257 -0.176053,0.679063 l -0.737748,-0.159287 q 0.08384,-0.318572 0.159287,-0.712596 0.07545,-0.394024 0.134136,-0.829966 0.05868,-0.435941 0.108985,-0.855116 0.05868,-0.427558 0.08384,-0.796431 z m -1.207223,-2.347377 0.871883,-0.243121 q 0.16767,0.285038 0.318573,0.628761 0.150903,0.33534 0.226354,0.578461 l -0.905417,0.301806 q -0.06707,-0.259888 -0.209587,-0.611995 -0.142519,-0.36049 -0.301806,-0.653912 z m 4.342648,1.257523 h 2.431212 v 0.964101 h -2.431212 z m -1.400043,4.99656 h 3.001289 v 0.930567 h -3.001289 z m 0.846733,-6.547505 h 1.031169 v 4.367798 h -1.031169 z m -1.299441,3.957007 h 3.998924 v 3.889939 H 43.85414 v -2.950988 h -1.986887 v 2.984522 h -0.980868 z"
         style="font-weight:bold;font-family:'Noto Sans TC';-inkscape-font-specification:'Noto Sans TC Bold'"
         id="path8548" />
      <path
         d="m 54.653074,56.041417 v 1.068404 H 52.84784 v 4.965416 h -1.268985 v -4.965416 h -1.813421 v -1.068404 z"
         style="font-weight:bold;font-family:Helvetica;-inkscape-font-specification:'Helvetica Bold'"
         id="path8550" />
      <path
         d="m 56.437839,58.456583 q -0.405257,0 -0.630399,0.253797 -0.221049,0.253797 -0.278358,0.687708 h 1.81342 q -0.02865,-0.462566 -0.282451,-0.699989 -0.249704,-0.241516 -0.622212,-0.241516 z m 0,-0.961973 q 0.556716,0 1.002907,0.208768 0.446192,0.208769 0.736831,0.659054 0.261984,0.39707 0.33976,0.921038 0.04503,0.307012 0.03684,0.884196 h -3.053752 q 0.02456,0.671334 0.421631,0.941505 0.241516,0.167834 0.581277,0.167834 0.360228,0 0.58537,-0.204675 0.122805,-0.110525 0.216956,-0.307013 h 1.191209 q -0.04503,0.39707 -0.413444,0.80642 -0.57309,0.650866 -1.604652,0.650866 -0.851448,0 -1.502315,-0.548529 -0.650867,-0.548529 -0.650867,-1.784766 0,-1.158461 0.585371,-1.776579 0.589464,-0.618119 1.526876,-0.618119 z m 0.08187,0 z"
         style="font-weight:bold;font-family:Helvetica;-inkscape-font-specification:'Helvetica Bold'"
         id="path8552" />
      <path
         d="m 64.326016,57.515077 q 0.294732,0 0.581277,0.114618 0.286545,0.114618 0.519875,0.401163 0.188301,0.23333 0.253797,0.573091 0.04094,0.225142 0.04094,0.659053 l -0.0082,2.812235 H 64.51841 v -2.840889 q 0,-0.253797 -0.08187,-0.417537 -0.155553,-0.311106 -0.57309,-0.311106 -0.483033,0 -0.66724,0.401163 -0.09415,0.212862 -0.09415,0.511687 v 2.656682 h -1.174835 v -2.656682 q 0,-0.397069 -0.08187,-0.577183 -0.147366,-0.323387 -0.577183,-0.323387 -0.499407,0 -0.671334,0.323387 -0.09415,0.184207 -0.09415,0.548529 v 2.685336 h -1.183022 v -4.453729 h 1.1339 v 0.650867 q 0.216956,-0.347948 0.40935,-0.495314 0.339761,-0.261984 0.880103,-0.261984 0.511687,0 0.826887,0.225143 0.253797,0.208768 0.384789,0.536249 0.229236,-0.392977 0.568997,-0.577184 0.360228,-0.184208 0.802326,-0.184208 z"
         style="font-weight:bold;font-family:Helvetica;-inkscape-font-specification:'Helvetica Bold'"
         id="path8554" />
      <path
         d="m 69.868617,59.844279 q 0,-0.515781 -0.237423,-0.91285 -0.23333,-0.39707 -0.761392,-0.39707 -0.634492,0 -0.871915,0.601745 -0.122805,0.319293 -0.122805,0.810513 0,0.777765 0.413443,1.092965 0.24561,0.184207 0.581277,0.184207 0.487127,0 0.740924,-0.376602 0.257891,-0.376602 0.257891,-1.002908 z m -0.663148,-2.329202 q 0.781859,0 1.322201,0.577184 0.544436,0.577184 0.544436,1.694709 0,1.178929 -0.532155,1.797047 -0.528062,0.618119 -1.363136,0.618119 -0.532155,0 -0.884196,-0.266078 -0.192395,-0.147366 -0.376602,-0.429817 v 2.325108 h -1.154368 v -6.218028 h 1.117526 v 0.659054 q 0.188301,-0.290639 0.401163,-0.458472 0.388883,-0.298826 0.925131,-0.298826 z"
         style="font-weight:bold;font-family:Helvetica;-inkscape-font-specification:'Helvetica Bold'"
         id="path8556" />
      <path
         d="m 73.917087,61.252444 q 0.511688,0 0.785952,-0.364322 0.274265,-0.364322 0.274265,-1.035656 0,-0.671334 -0.274265,-1.031562 -0.274264,-0.364321 -0.785952,-0.364321 -0.511687,0 -0.790045,0.364321 -0.274265,0.360228 -0.274265,1.031562 0,0.671334 0.274265,1.035656 0.278358,0.364322 0.790045,0.364322 z m 2.284174,-1.399978 q 0,0.982441 -0.564903,1.682429 -0.564904,0.695895 -1.715177,0.695895 -1.150274,0 -1.715177,-0.695895 -0.564903,-0.699988 -0.564903,-1.682429 0,-0.966066 0.564903,-1.674241 0.564903,-0.708176 1.715177,-0.708176 1.150273,0 1.715177,0.708176 0.564903,0.708175 0.564903,1.674241 z m -2.28008,-2.357856 z"
         style="font-weight:bold;font-family:Helvetica;-inkscape-font-specification:'Helvetica Bold'"
         id="path8558" />
      <path
         d="m 79.459689,57.50689 q 0.03275,0 0.05322,0.0041 0.02456,0 0.102337,0.0041 v 1.195303 q -0.110524,-0.01228 -0.196488,-0.01637 -0.08596,-0.0041 -0.139179,-0.0041 -0.704082,0 -0.945598,0.458472 -0.135086,0.257891 -0.135086,0.794139 v 2.132714 h -1.174835 v -4.461916 h 1.113433 v 0.777766 q 0.270171,-0.446192 0.470752,-0.609932 0.32748,-0.274265 0.851448,-0.274265 z"
         style="font-weight:bold;font-family:Helvetica;-inkscape-font-specification:'Helvetica Bold'"
         id="path8560" />
      <path
         d="m 82.759051,59.905682 q -0.110525,0.06959 -0.225143,0.114618 -0.110524,0.04094 -0.307012,0.07778 l -0.261984,0.04912 q -0.368415,0.0655 -0.528062,0.159647 -0.270171,0.159646 -0.270171,0.495314 0,0.298825 0.16374,0.433911 0.167834,0.130992 0.405257,0.130992 0.376602,0 0.691801,-0.221049 0.319293,-0.221049 0.331574,-0.80642 z m -0.708176,-0.544436 q 0.323387,-0.04094 0.462566,-0.102337 0.249703,-0.106431 0.249703,-0.331574 0,-0.274264 -0.192394,-0.376602 -0.188301,-0.106431 -0.556716,-0.106431 -0.413444,0 -0.585371,0.204675 -0.122805,0.15146 -0.16374,0.40935 H 80.13921 q 0.03684,-0.58537 0.32748,-0.961972 0.462566,-0.589465 1.588279,-0.589465 0.732736,0 1.301733,0.290639 0.568997,0.290639 0.568997,1.097058 v 2.046751 q 0,0.212862 0.0082,0.515781 0.01228,0.229236 0.06959,0.311106 0.05731,0.08187 0.171927,0.135085 v 0.171927 h -1.268985 q -0.05322,-0.135085 -0.07368,-0.253797 -0.02047,-0.118711 -0.03275,-0.270171 -0.241517,0.261984 -0.556716,0.446192 -0.376602,0.216955 -0.851448,0.216955 -0.605839,0 -1.002908,-0.343854 -0.392976,-0.347947 -0.392976,-0.98244 0,-0.822794 0.634492,-1.191209 0.347948,-0.200581 1.023376,-0.286545 z m 0.0614,-1.866636 z"
         style="font-weight:bold;font-family:Helvetica;-inkscape-font-specification:'Helvetica Bold'"
         id="path8562" />
      <path
         d="m 87.384708,57.50689 q 0.03275,0 0.05321,0.0041 0.02456,0 0.102338,0.0041 v 1.195303 q -0.110525,-0.01228 -0.196488,-0.01637 -0.08596,-0.0041 -0.139179,-0.0041 -0.704082,0 -0.945599,0.458472 -0.135085,0.257891 -0.135085,0.794139 v 2.132714 h -1.174835 v -4.461916 h 1.113432 v 0.777766 q 0.270171,-0.446192 0.470753,-0.609932 0.32748,-0.274265 0.851448,-0.274265 z"
         style="font-weight:bold;font-family:Helvetica;-inkscape-font-specification:'Helvetica Bold'"
         id="path8564" />
      <path
         d="m 88.403989,62.930779 0.147366,0.0082 q 0.171927,0.0082 0.32748,-0.01228 0.155553,-0.02047 0.261984,-0.09415 0.102338,-0.06959 0.188301,-0.290639 0.09006,-0.221049 0.07368,-0.270171 l -1.6374,-4.658404 h 1.29764 l 0.974253,3.291175 0.921038,-3.291175 h 1.24033 l -1.530969,4.388233 q -0.442098,1.268986 -0.699989,1.571905 -0.25789,0.307012 -1.031562,0.307012 -0.155553,0 -0.249703,-0.0041 -0.09415,0 -0.282452,-0.01228 z M 89.98408,57.49461 Z"
         style="font-weight:bold;font-family:Helvetica;-inkscape-font-specification:'Helvetica Bold'"
         id="path8566" />
      <path
         d="m 99.693864,56.041417 v 1.068404 H 97.88863 v 4.965416 h -1.268985 v -4.965416 h -1.813421 v -1.068404 z"
         style="font-weight:bold;font-family:Helvetica;-inkscape-font-specification:'Helvetica Bold'"
         id="path8568" />
      <path
         d="m 101.47863,58.456583 q -0.40525,0 -0.6304,0.253797 -0.22105,0.253797 -0.27835,0.687708 h 1.81342 q -0.0287,-0.462566 -0.28245,-0.699989 -0.24971,-0.241516 -0.62222,-0.241516 z m 0,-0.961973 q 0.55672,0 1.00291,0.208768 0.44619,0.208769 0.73683,0.659054 0.26198,0.39707 0.33976,0.921038 0.045,0.307012 0.0368,0.884196 h -3.05375 q 0.0246,0.671334 0.42163,0.941505 0.24152,0.167834 0.58128,0.167834 0.36023,0 0.58537,-0.204675 0.1228,-0.110525 0.21696,-0.307013 h 1.1912 q -0.045,0.39707 -0.41344,0.80642 -0.57309,0.650866 -1.60465,0.650866 -0.85145,0 -1.50232,-0.548529 -0.650863,-0.548529 -0.650863,-1.784766 0,-1.158461 0.58537,-1.776579 0.589463,-0.618119 1.526873,-0.618119 z m 0.0819,0 z"
         style="font-weight:bold;font-family:Helvetica;-inkscape-font-specification:'Helvetica Bold'"
         id="path8570" />
      <path
         d="m 106.80427,57.50689 q 0.0327,0 0.0532,0.0041 0.0246,0 0.10233,0.0041 v 1.195303 q -0.11052,-0.01228 -0.19648,-0.01637 -0.086,-0.0041 -0.13918,-0.0041 -0.70409,0 -0.9456,0.458472 -0.13509,0.257891 -0.13509,0.794139 v 2.132714 h -1.17483 v -4.461916 h 1.11343 v 0.777766 q 0.27017,-0.446192 0.47075,-0.609932 0.32748,-0.274265 0.85145,-0.274265 z"
         style="font-weight:bold;font-family:Helvetica;-inkscape-font-specification:'Helvetica Bold'"
         id="path8572" />
      <path
         d="m 112.62932,57.515077 q 0.29473,0 0.58128,0.114618 0.28654,0.114618 0.51987,0.401163 0.18831,0.23333 0.2538,0.573091 0.0409,0.225142 0.0409,0.659053 l -0.008,2.812235 h -1.1953 v -2.840889 q 0,-0.253797 -0.0819,-0.417537 -0.15556,-0.311106 -0.57309,-0.311106 -0.48304,0 -0.66724,0.401163 -0.0941,0.212862 -0.0941,0.511687 v 2.656682 h -1.17484 v -2.656682 q 0,-0.397069 -0.0819,-0.577183 -0.14737,-0.323387 -0.57718,-0.323387 -0.49941,0 -0.67134,0.323387 -0.0941,0.184207 -0.0941,0.548529 v 2.685336 h -1.18302 v -4.453729 h 1.1339 v 0.650867 q 0.21696,-0.347948 0.40935,-0.495314 0.33976,-0.261984 0.8801,-0.261984 0.51169,0 0.82689,0.225143 0.2538,0.208768 0.38479,0.536249 0.22924,-0.392977 0.569,-0.577184 0.36022,-0.184208 0.80232,-0.184208 z"
         style="font-weight:bold;font-family:Helvetica;-inkscape-font-specification:'Helvetica Bold'"
         id="path8574" />
      <path
         d="m 116.2971,57.081166 h -1.18302 v -1.07659 h 1.18302 z m -1.18302,0.532155 h 1.18302 v 4.461916 h -1.18302 z"
         style="font-weight:bold;font-family:Helvetica;-inkscape-font-specification:'Helvetica Bold'"
         id="path8576" />
      <path
         d="m 119.89938,57.50689 q 0.6918,0 1.12981,0.364322 0.4421,0.360228 0.4421,1.199396 v 3.004629 h -1.1953 v -2.713991 q 0,-0.352041 -0.0942,-0.540342 -0.17192,-0.343854 -0.65496,-0.343854 -0.59355,0 -0.8146,0.503501 -0.11462,0.266077 -0.11462,0.679521 v 2.415165 h -1.16255 v -4.453729 h 1.12571 v 0.650867 q 0.22514,-0.343854 0.42572,-0.495314 0.36023,-0.270171 0.91285,-0.270171 z m -0.42981,-0.01228 z"
         style="font-weight:bold;font-family:Helvetica;-inkscape-font-specification:'Helvetica Bold'"
         id="path8578" />
      <path
         d="m 125.00807,59.905682 q -0.11052,0.06959 -0.22514,0.114618 -0.11052,0.04094 -0.30701,0.07778 l -0.26198,0.04912 q -0.36842,0.0655 -0.52807,0.159647 -0.27017,0.159646 -0.27017,0.495314 0,0.298825 0.16374,0.433911 0.16784,0.130992 0.40526,0.130992 0.3766,0 0.6918,-0.221049 0.31929,-0.221049 0.33157,-0.80642 z m -0.70817,-0.544436 q 0.32339,-0.04094 0.46256,-0.102337 0.24971,-0.106431 0.24971,-0.331574 0,-0.274264 -0.1924,-0.376602 -0.1883,-0.106431 -0.55671,-0.106431 -0.41345,0 -0.58537,0.204675 -0.12281,0.15146 -0.16374,0.40935 h -1.12572 q 0.0369,-0.58537 0.32748,-0.961972 0.46257,-0.589465 1.58828,-0.589465 0.73274,0 1.30174,0.290639 0.56899,0.290639 0.56899,1.097058 v 2.046751 q 0,0.212862 0.008,0.515781 0.0123,0.229236 0.0696,0.311106 0.0573,0.08187 0.17193,0.135085 v 0.171927 h -1.26899 q -0.0532,-0.135085 -0.0737,-0.253797 -0.0205,-0.118711 -0.0328,-0.270171 -0.24152,0.261984 -0.55672,0.446192 -0.3766,0.216955 -0.85145,0.216955 -0.60583,0 -1.0029,-0.343854 -0.39298,-0.347947 -0.39298,-0.98244 0,-0.822794 0.63449,-1.191209 0.34795,-0.200581 1.02338,-0.286545 z m 0.0614,-1.866636 z"
         style="font-weight:bold;font-family:Helvetica;-inkscape-font-specification:'Helvetica Bold'"
         id="path8580" />
      <path
         d="m 128.40159,62.075237 h -1.16665 v -6.03382 h 1.16665 z"
         style="font-weight:bold;font-family:Helvetica;-inkscape-font-specification:'Helvetica Bold'"
         id="path8582" />
    </g>
  </g>
</svg>
