<?xml version="1.0" encoding="UTF-8" standalone="no"?>
<!-- Created with Inkscape (http://www.inkscape.org/) -->

<svg
   width="500"
   height="250"
   viewBox="0 0 132.29166 66.145833"
   version="1.1"
   id="svg1"
   inkscape:version="1.3.2 (091e20e, 2023-11-25, custom)"
   sodipodi:docname="y13.svg"
   xmlns:inkscape="http://www.inkscape.org/namespaces/inkscape"
   xmlns:sodipodi="http://sodipodi.sourceforge.net/DTD/sodipodi-0.dtd"
   xmlns="http://www.w3.org/2000/svg"
   xmlns:svg="http://www.w3.org/2000/svg">
  <sodipodi:namedview
     id="namedview1"
     pagecolor="#9e652e"
     bordercolor="#ffffff"
     borderopacity="1"
     inkscape:showpageshadow="0"
     inkscape:pageopacity="0"
     inkscape:pagecheckerboard="false"
     inkscape:deskcolor="#d1d1d1"
     inkscape:document-units="mm"
     inkscape:zoom="2.0208096"
     inkscape:cx="276.12695"
     inkscape:cy="127.17675"
     inkscape:window-width="1920"
     inkscape:window-height="1009"
     inkscape:window-x="1912"
     inkscape:window-y="-8"
     inkscape:window-maximized="1"
     inkscape:current-layer="layer1" />
  <defs
     id="defs1">
    <rect
       x="157.85752"
       y="62.351248"
       width="329.07603"
       height="135.09437"
       id="rect4" />
  </defs>
  <g
     inkscape:label="Layer 1"
     inkscape:groupmode="layer"
     id="layer1">
    <path
       id="rect5"
       style="fill:#ffffff;stroke-width:0.953294"
       d="M -2.5431316e-6,-1.2715658e-6 H 132.29167 V 66.145835 H -2.5431316e-6 Z" />
    <g
       id="g1"
       transform="matrix(1.121508,0,0,1.121508,22.126542,-3.0133416)">
      <path
         id="rect6"
         style="fill:none;stroke:#000000;stroke-width:0.575409"
         d="m 9.3009131,19.849001 h 5.7010479 c 1.810115,0 3.267355,1.45724 3.267355,3.267355 v 9.524719 c 0,1.810115 -1.45724,3.267355 -3.267355,3.267355 H 9.3009131 c -1.8101145,0 -3.2673547,-1.45724 -3.2673547,-3.267355 v -9.524719 c 0,-1.810115 1.4572402,-3.267355 3.2673547,-3.267355 z" />
      <path
         style="font-weight:bold;font-size:5.82083px;line-height:1.25;font-family:'Optima Bold';-inkscape-font-specification:'Optima Bold,  Bold';stroke-width:0.264583"
         d="m 11.768055,25.2551 -1.420282,-2.293407 h 0.232833 q 0.04657,0.01746 0.09313,0.0291 0.05239,0.0058 0.09313,0.01164 0.01164,0 0.01746,0 0.01164,0 0.01746,0 0,0 0,0 0.0058,0 0.0058,0 0,0 0,0 0.0058,0 0.0058,0 0.0291,0 0.05239,0 0.0291,0 0.05239,-0.0058 0.0291,-0.0058 0.05821,-0.01164 0.0291,-0.0058 0.05821,-0.01164 l 0.232833,-0.0058 0.98372,1.711324 0.937154,-1.717145 h 0.232833 q 0.0291,0.01746 0.05821,0.0291 0.03492,0.0058 0.06403,0.01164 0.0058,0 0.01164,0 0.01164,0 0.01746,0 0.0058,0 0.01164,0 0.01164,-0.0058 0.01746,-0.0058 0.02328,-0.0058 0.04657,-0.01164 0.02328,-0.0058 0.04657,-0.01164 l 0.232833,-0.0058 q -0.03492,0.05239 -0.06985,0.09895 -0.0291,0.04657 -0.05821,0.09313 -0.03492,0.04657 -0.06985,0.09313 -0.0291,0.04657 -0.05821,0.09313 -0.03492,0.04657 -0.06985,0.09895 -0.0291,0.04657 -0.05821,0.09313 -0.03493,0.04657 -0.06985,0.09895 -0.0291,0.04657 -0.05821,0.09313 -0.128058,0.192088 -0.244475,0.378354 -0.116416,0.186267 -0.232833,0.372533 -0.110596,0.186267 -0.20955,0.360892 -0.09895,0.174625 -0.180445,0.331787 v 1.775353 h -0.232834 q -0.03492,0 -0.06985,0 -0.0291,-0.0058 -0.05821,-0.01164 0,0 -0.0058,0 0,0 0,0 0,0 -0.0058,0 0,0 0,0 -0.0058,0 -0.01164,0 0,0 -0.0058,0 -0.03493,0.0058 -0.07567,0.01164 -0.03493,0 -0.08149,0 h -0.232834 v -1.693861 0 z"
         id="text6"
         aria-label="Y" />
      <path
         style="font-weight:bold;font-size:5.82083px;line-height:1.25;font-family:'Optima Bold';-inkscape-font-specification:'Optima Bold,  Bold';stroke-width:0.264583"
         d="m 9.3516163,29.278575 q 0.1688041,-0.07567 0.3317873,-0.151341 0.1688041,-0.07567 0.3317874,-0.151342 0.162983,-0.06985 0.291041,-0.1397 0.133879,-0.06985 0.238654,-0.1397 l 0.232834,-0.0058 0.1397,0.04075 v 3.987269 h -0.232834 q -0.03492,-0.0058 -0.06403,-0.01746 -0.0291,-0.0058 -0.05821,-0.01164 -0.03492,0.0058 -0.06985,0.01164 -0.03493,0.01164 -0.08149,0.01746 H 10.178174 V 29.278575 L 9.7707161,29.511409 H 9.5378829 q -0.00582,0 -0.017462,-0.0058 -0.00582,-0.01164 -0.017463,-0.0291 -0.00582,-0.01164 -0.011642,-0.01746 -0.00582,-0.01164 -0.00582,-0.01746 -0.00582,-0.01164 -0.011642,-0.01746 -0.00582,-0.01164 -0.011642,-0.01746 -0.00582,-0.01164 -0.011642,-0.01746 -0.00582,-0.0058 -0.011642,-0.01746 -0.011642,-0.0058 -0.017462,-0.01164 -0.00582,-0.01164 -0.011642,-0.01746 -0.011642,-0.01746 -0.029104,-0.0291 -0.011642,-0.01746 -0.029104,-0.02328 v -0.01164 z M 12.791732,29.09813 q 0.01746,-0.0058 0.03493,-0.01746 0.02328,-0.01164 0.04657,-0.0291 0.02328,-0.01746 0.04657,-0.03493 0.0291,-0.02328 0.06403,-0.04657 0.04657,-0.03493 0.110596,-0.06403 0.06985,-0.03492 0.151342,-0.05821 0.08149,-0.0291 0.186266,-0.04075 0.104775,-0.01746 0.232834,-0.01746 l 0.232833,-0.0058 q 0.238654,0.0058 0.436562,0.05239 0.197908,0.04657 0.355071,0.145521 0.151341,0.09313 0.227012,0.267758 0.08149,0.168804 0.08149,0.407458 0,0.157163 -0.04657,0.302683 -0.04657,0.145521 -0.133879,0.285221 -0.08731,0.1397 -0.227012,0.232833 -0.1397,0.09313 -0.325967,0.145521 0.256117,0.03492 0.436562,0.116417 0.180446,0.07567 0.2794,0.209549 0.09895,0.128059 0.151342,0.291042 0.05239,0.157162 0.05239,0.343429 -0.01746,0.256116 -0.116416,0.471487 -0.09313,0.20955 -0.261938,0.378354 -0.174625,0.168804 -0.459845,0.250296 -0.2794,0.08149 -0.675217,0.08149 h -0.232833 q -0.04075,0 -0.08731,-0.0058 -0.04657,0 -0.09895,-0.0058 -0.05239,-0.0058 -0.110596,-0.01164 -0.05239,0 -0.110596,-0.01164 -0.06985,-0.01746 -0.133879,-0.03493 -0.06403,-0.01746 -0.128058,-0.0291 -0.06403,-0.02328 -0.116417,-0.05239 -0.05239,-0.0291 -0.08731,-0.06985 l 0.09313,-0.331787 0.09313,-0.04657 h 0.232833 q 0.05239,0.09895 0.128059,0.168804 0.08149,0.06985 0.180445,0.116417 0.07567,0.03493 0.151342,0.05821 0.07567,0.02328 0.157162,0.03493 0.13388,-0.01746 0.261938,-0.07567 0.128058,-0.05821 0.244475,-0.157162 0.133879,-0.110596 0.203729,-0.2794 0.07567,-0.168804 0.08731,-0.401637 0,-0.0058 0,-0.01164 0,-0.0058 0,-0.01164 0,0 0,-0.0058 0,-0.0058 0,-0.01164 0,-0.0058 0,-0.01164 0,-0.0058 0,-0.01164 0,0 0,-0.0058 0.0058,-0.0058 0.0058,-0.01164 0,-0.20955 -0.06403,-0.355071 -0.05821,-0.151341 -0.180446,-0.238654 -0.09895,-0.06985 -0.215371,-0.110595 -0.110595,-0.04657 -0.232833,-0.05821 0,0 0,0 0,0 0,0 -0.0058,0 -0.0058,0 0,0 0,0 -0.0058,0 -0.01746,0.0058 -0.0058,0 -0.01164,0 -0.01164,0.0058 -0.01746,0.0058 -0.0058,0 -0.01746,0 -0.0058,0 -0.01746,0 -0.0058,0 -0.01164,0 -0.01164,0.0058 -0.01746,0.0058 -0.0058,0 -0.01746,0 l -0.232833,-0.0058 0.01746,-0.03493 0.01164,-0.03492 v -0.0291 l 0.0058,-0.03493 q 0,-0.01164 -0.0058,-0.0291 0,-0.01746 -0.0058,-0.03493 -0.0058,-0.01746 -0.01164,-0.03492 0,-0.01746 -0.01164,-0.03493 l 0.232833,-0.0058 q 0.0058,0.0058 0.01164,0.01164 0.0058,0 0.01164,0 0.0058,0 0.01164,0.0058 0.0058,0 0.01164,0 0.01164,-0.0058 0.02328,-0.0058 0.01746,-0.0058 0.0291,-0.01164 0.104775,-0.01746 0.197908,-0.06985 0.09896,-0.05239 0.186267,-0.1397 0.08731,-0.08731 0.133879,-0.238654 0.05239,-0.157162 0.06403,-0.372533 0,-0.168804 -0.04657,-0.296862 -0.04657,-0.128059 -0.145521,-0.221192 -0.06985,-0.06403 -0.151342,-0.104775 -0.07567,-0.04657 -0.157162,-0.06403 -0.06403,0.01164 -0.128058,0.04075 -0.05821,0.02328 -0.122238,0.06403 -0.07567,0.05239 -0.1397,0.128058 -0.06403,0.07567 -0.110596,0.180446 l -0.09313,0.03493 h -0.232833 l -0.1397,-0.366712 v 0 z"
         id="text6-8"
         aria-label="13" />
    </g>
    <g
       id="g2"
       transform="translate(3.3051826,-2.6369997)">
      <path
         style="font-weight:600;font-size:18.3502px;line-height:1.25;font-family:'Noto Serif TC';-inkscape-font-specification:'Noto Serif TC Semi-Bold';letter-spacing:1.96609px;stroke-width:0.327681"
         d="m 54.233099,35.871603 v -1.908421 h 1.963471 v 1.908421 z m 3.303036,-1.79832 c 0.238552,-0.0367 0.458755,-0.165151 0.550506,-0.256902 l -1.376265,-1.045962 -0.660607,0.678958 H 54.3065 L 52.930235,32.86217 v 4.5692 h 0.183502 c 0.532155,0 1.119362,-0.293603 1.119362,-0.403704 v -0.623907 h 1.963471 v 0.678957 h 0.220203 c 0.458755,0 1.101012,-0.348653 1.119362,-0.477105 z m 1.064312,-2.220374 h -6.752874 l -1.669869,-0.697307 c 0.330304,-0.642257 0,-1.926772 -2.128623,-2.880982 v -0.972561 h 2.165324 c 0.256903,0 0.440405,-0.09175 0.477105,-0.293603 C 50.122654,26.4029 49.168443,25.54044 49.168443,25.54044 l -0.862459,1.229464 h -0.256903 v -3.65169 c 0.495456,-0.0734 0.623907,-0.256903 0.678958,-0.532156 l -2.330476,-0.238553 v 4.422399 h -2.348826 l 0.146802,0.532155 h 2.000172 c -0.385354,2.69748 -1.082662,5.43166 -2.293775,7.523583 l 0.256903,0.220202 c 0.899159,-0.972561 1.651518,-2.055222 2.238724,-3.229635 v 7.523582 h 0.348654 c 0.605557,0 1.302864,-0.311953 1.302864,-0.495455 V 28.733375 c 0.403705,0.752358 0.789059,1.724919 0.844109,2.532328 0.477106,0.440405 1.009261,0.330303 1.247814,-0.0734 v 8.129139 h 0.256903 c 0.660607,0 1.339564,-0.367004 1.339564,-0.513806 v -6.42257 h 7.046478 v 4.936204 c 0,0.220202 -0.0734,0.311953 -0.348654,0.311953 -0.330304,0 -1.614818,-0.09175 -1.614818,-0.09175 v 0.275253 c 0.678957,0.110102 0.990911,0.275253 1.211113,0.495456 0.201853,0.220202 0.256903,0.587206 0.293604,1.027611 1.85337,-0.183502 2.073572,-0.789059 2.073572,-1.87172 v -4.807753 c 0.367004,-0.05505 0.660607,-0.220202 0.770709,-0.367004 l -1.79832,-1.339565 z m -4.844453,-1.908421 v -1.743269 h 2.936032 v 1.743269 z m 2.75253,-3.67004 c 0.146801,0.330304 0.330303,0.623907 0.532155,0.91751 l -0.477105,0.477105 h -2.715829 l -0.605557,-0.256902 c 0.385354,-0.348654 0.734008,-0.734008 1.045961,-1.137713 z m 4.000343,0 c 0.275253,0 0.440405,-0.09175 0.495456,-0.275253 -0.660607,-0.587206 -1.743269,-1.412965 -1.743269,-1.412965 l -0.954211,1.174413 h -3.65169 c 0.311954,-0.458755 0.568857,-0.954211 0.770709,-1.486367 1.174413,-0.110101 2.238724,-0.238552 3.119534,-0.367004 0.477105,0.201852 0.844109,0.201852 1.045961,0.05505 L 57.99489,22.365855 c -1.761619,0.678958 -5.119706,1.486367 -7.817186,1.83502 l 0.0367,0.330304 c 1.027611,0 2.110273,-0.0367 3.174585,-0.09175 -0.128452,0.440405 -0.311954,0.88081 -0.532156,1.321215 h -2.880982 l 0.146802,0.513805 h 2.458927 c -0.697308,1.174413 -1.669869,2.238725 -2.862632,3.046133 l 0.146802,0.238553 c 0.844109,-0.348654 1.651518,-0.789059 2.367176,-1.302864 v 3.009433 h 0.220202 c 0.605557,0 1.302865,-0.330304 1.302865,-0.458755 v -0.330304 h 2.936032 v 0.550506 h 0.256902 c 0.532156,0 1.302865,-0.330303 1.321215,-0.477105 v -2.000172 c 0.532156,0.440405 1.119362,0.789059 1.779969,1.082662 0.165152,-0.807409 0.550506,-1.284514 1.156063,-1.449666 l 0.01835,-0.183502 C 59.719809,27.760814 58.086641,27.155258 57.07738,26.274448 Z m 10.058528,2.000172 h -0.89916 v -3.68839 c 0.84411,-0.165152 1.633168,-0.330304 2.257075,-0.513806 0.513806,0.183502 0.89916,0.165152 1.082662,0 l -1.908421,-1.724919 c -1.486366,0.844109 -4.404048,2.073573 -6.734524,2.69748 l 0.0734,0.275253 c 1.156063,-0.09175 2.348826,-0.238553 3.523239,-0.440405 v 3.394787 h -3.541589 l 0.146802,0.532156 h 2.880981 c -0.623907,2.624079 -1.688218,5.358258 -3.229635,7.34008 l 0.220202,0.220203 c 1.468016,-1.229464 2.624079,-2.66078 3.523239,-4.275597 v 7.266679 h 0.293603 c 0.825759,0 1.394615,-0.403704 1.412965,-0.532156 v -8.367691 c 0.678958,0.825759 1.431316,1.908421 1.633168,2.807581 1.449666,1.119362 2.807581,-1.743269 -1.633168,-3.266336 v -1.192763 h 3.119534 c 0.275253,0 0.458755,-0.09175 0.495456,-0.293603 -0.642257,-0.642257 -1.743269,-1.559767 -1.743269,-1.559767 z m 4.624251,7.229979 v -9.725606 h 3.284686 v 9.725606 z m 3.981993,-11.230323 -0.880809,0.972561 h -3.009433 l -1.79832,-0.770708 v 13.781 h 0.293603 c 0.734008,0 1.412966,-0.422054 1.412966,-0.623907 v -1.596467 h 3.284686 v 1.890071 h 0.275253 c 0.587206,0 1.431315,-0.348654 1.468016,-0.458755 V 26.127647 c 0.385354,-0.09175 0.697307,-0.238553 0.807409,-0.403705 z"
         id="text7"
         aria-label="橋和" />
      <path
         style="font-weight:bold;font-size:7.79071px;line-height:1.25;font-family:'Optima Bold';-inkscape-font-specification:'Optima Bold,  Bold';stroke-width:0.354123"
         d="m 47.052781,46.208115 q 0.02337,-0.66221 0.249303,-1.168607 0.233721,-0.506396 0.670001,-0.864768 0.43628,-0.358373 0.942676,-0.537559 0.506396,-0.179187 1.082908,-0.179187 l 0.311629,-0.0078 q 0.693373,0.0078 1.223141,0.202558 0.537559,0.186977 0.919304,0.568722 0.373954,0.381745 0.576513,0.88035 0.202558,0.498606 0.22593,1.121862 0,0.459652 -0.132442,0.880351 -0.124651,0.420698 -0.373954,0.802443 -0.249303,0.381745 -0.631048,0.646629 -0.381744,0.264884 -0.88814,0.412907 l 1.721746,1.285467 q -0.01558,0.0078 -0.03116,0.01558 -0.01558,0.0078 -0.03116,0.01558 -0.01558,0 -0.03116,0.0078 -0.01558,0.0078 -0.03116,0.01558 -0.01558,0.0078 -0.03116,0.01558 -0.0078,0.0078 -0.02337,0.01558 -0.0078,0 -0.02337,0.0078 -0.0078,0.0078 -0.02337,0.01558 -0.04674,0.02337 -0.09349,0.04675 -0.04674,0.02337 -0.0857,0.04674 -0.03895,0.02337 -0.07791,0.05454 -0.03895,0.03116 -0.07791,0.06233 l -0.03116,0.02337 -0.02337,0.03116 h -0.311628 l -1.698375,-1.519189 q -0.0078,0 -0.01558,0 0,0 0,0 -0.0078,0 -0.01558,0 0,0 -0.0078,0 h -0.311629 q -0.708954,0 -1.246513,-0.194768 -0.537559,-0.202558 -0.903723,-0.607675 -0.358372,-0.412908 -0.55314,-0.856978 -0.186977,-0.451861 -0.210349,-0.942676 -0.0078,-0.01558 -0.0078,-0.03116 0,-0.01558 0,-0.03895 0,-0.01558 0,-0.03116 0,-0.02337 0,-0.04675 v -0.03895 -0.03895 -0.03116 -0.03116 -0.0078 z m 1.114072,0.0078 q 0,0.670001 0.140232,1.160815 0.140233,0.490815 0.420699,0.802444 0.257093,0.288256 0.607675,0.44407 0.358373,0.148024 0.810234,0.163605 0.498605,-0.02337 0.856978,-0.210349 0.366163,-0.186977 0.592094,-0.54535 0.249303,-0.389535 0.366163,-0.810234 0.124652,-0.420698 0.124652,-0.88035 0,-0.101279 -0.0078,-0.210349 0,-0.116861 -0.01558,-0.241512 -0.0078,-0.124651 -0.03116,-0.249303 -0.01558,-0.124651 -0.03895,-0.249303 -0.06233,-0.296047 -0.202558,-0.560931 -0.140233,-0.264884 -0.350582,-0.506396 -0.194768,-0.233721 -0.521978,-0.358372 -0.319419,-0.124652 -0.755699,-0.132443 -0.428489,0.01558 -0.779071,0.194768 -0.342791,0.179187 -0.615466,0.514187 -0.280465,0.358373 -0.428489,0.779071 -0.148023,0.420698 -0.171395,0.903722 z m 6.442917,-2.648842 q 0.03895,0.02337 0.07012,0.03895 0.03895,0.0078 0.0857,0.01558 0.0078,0 0.0078,0 0.0078,0 0.01558,0 0.0078,0 0.0078,0 0.0078,0 0.01558,0 0.04674,-0.0078 0.0857,-0.01558 0.04674,-0.01558 0.07791,-0.02337 l 0.311628,-0.0078 v 5.391171 h -0.311628 q -0.03116,0 -0.07791,0 -0.03895,-0.0078 -0.07791,-0.01558 -0.0078,0 -0.01558,0 0,0 -0.0078,0 -0.0078,0 -0.01558,0 -0.0078,0 -0.01558,0 -0.04674,0.0078 -0.0857,0.01558 -0.03116,0 -0.07012,0 h -0.311629 v -5.398962 h 0.311629 v 0 z m 1.480234,5.398962 2.454074,-5.461287 h 0.311628 0.179187 l 2.399538,5.461287 h -0.311628 q -0.02337,0 -0.05453,0 -0.02337,0 -0.05454,0 -0.03116,0 -0.06233,0 -0.02337,0 -0.06233,0 -0.01558,0 -0.03895,0 -0.01558,0 -0.03116,-0.0078 -0.01558,0 -0.03895,0 -0.01558,0 -0.03116,0 -0.01558,0.0078 -0.03895,0.0078 -0.01558,0 -0.03116,0 -0.01558,0 -0.03116,0 -0.01558,0 -0.02337,0 -0.01558,0 -0.03116,0 -0.0078,0 -0.02337,0 H 60.258034 L 59.401056,46.81579 h -1.589305 l -0.794652,2.150236 H 56.70547 q -0.01558,0 -0.03895,0 -0.01558,0 -0.03116,0 l -0.03895,-0.0078 q -0.0078,0.0078 -0.02337,0.0078 -0.01558,0 -0.02337,0 -0.01558,0 -0.03116,0 -0.0078,0 -0.02337,0 h -0.311628 q -0.02337,0 -0.04675,0 -0.02337,0 -0.04674,0 v 0 z m 1.908724,-2.516399 h 1.277677 l -0.638839,-1.526979 -0.638838,1.526979 z m 3.856399,-0.179186 q 0,-0.03116 0,-0.06233 0,-0.03895 0,-0.07012 0,-0.03895 0,-0.07791 0.0078,-0.03895 0.01558,-0.07791 0.04674,-0.467442 0.257093,-0.895931 0.210349,-0.43628 0.584303,-0.833606 0.366164,-0.397326 0.903723,-0.592094 0.537559,-0.202559 1.246513,-0.202559 l 0.311629,-0.0078 q 0.716745,0.03116 1.223141,0.194767 0.514187,0.163605 0.825815,0.483024 0.311629,0.311629 0.506397,0.65442 0.202558,0.342791 0.288256,0.716745 0.01558,0.04674 0.02337,0.09349 0.0078,0.04674 0.01558,0.0857 0.0078,0.04674 0.01558,0.09349 0.0078,0.04674 0.01558,0.09349 0.01558,0.09349 0.01558,0.186977 0.0078,0.0857 0.01558,0.171395 v 0.01558 0.02337 0.03116 0.02337 q 0,0.65442 -0.225931,1.168606 -0.218139,0.506397 -0.670001,0.87256 -0.451861,0.373954 -0.966048,0.55314 -0.506396,0.179187 -1.075118,0.179187 h -0.311628 q -0.01558,0 -0.03116,0 -0.01558,0 -0.03116,0 -0.01558,0 -0.03895,0 -0.01558,0 -0.03116,0 -0.101279,0 -0.202559,-0.0078 -0.09349,0 -0.194767,-0.01558 -0.10128,-0.0078 -0.202559,-0.03116 -0.101279,-0.02337 -0.202558,-0.04675 -0.389536,-0.0857 -0.747908,-0.296047 -0.358373,-0.210349 -0.685583,-0.529768 -0.32721,-0.319419 -0.490815,-0.786862 -0.155814,-0.475233 -0.155814,-1.090699 v -0.01558 z m 1.114072,0.0078 q 0,0.607676 0.148023,1.075118 0.155814,0.459652 0.467443,0.786862 0.280465,0.296047 0.631047,0.459652 0.358373,0.163605 0.786862,0.186977 0.397326,-0.02337 0.724536,-0.186977 0.335001,-0.163605 0.599885,-0.459652 0.296047,-0.32721 0.467442,-0.794652 0.171396,-0.467443 0.21814,-1.059537 0,-0.01558 0,-0.03116 0,-0.02337 0,-0.03116 0,-0.01558 0,-0.03116 0,-0.01558 0,-0.03116 0,-0.506396 -0.155814,-0.934885 -0.148023,-0.42849 -0.451861,-0.771281 -0.288256,-0.311628 -0.65442,-0.483024 -0.358372,-0.171395 -0.794652,-0.194768 -0.381745,0.02337 -0.685583,0.163605 -0.303837,0.132442 -0.514187,0.381745 -0.233721,0.280466 -0.397326,0.584303 -0.155814,0.303838 -0.249302,0.631048 -0.02337,0.101279 -0.04675,0.194768 -0.02337,0.09349 -0.03895,0.186977 -0.01558,0.09349 -0.03116,0.186977 -0.0078,0.09349 -0.02337,0.179186 z m 6.014427,2.687795 v -5.461287 h 0.311629 q 0.02337,0.01558 0.05454,0.03116 0.03116,0.0078 0.06233,0.01558 0.0078,0 0.01558,0.0078 0.01558,0 0.02337,0 0.0078,0 0.01558,0 0.01558,0 0.02337,0 0,0 0,0 0.0078,0 0.01558,0 0.0078,0 0.0078,0 0.0078,0 0.0078,0 0.03895,-0.0078 0.07012,-0.01558 0.03895,-0.01558 0.06233,-0.02337 l 0.311629,-0.0078 v 2.267097 q 0.10907,0.03116 0.280465,0.04674 0.171396,0.01558 0.405117,0.03116 0.210349,0.0078 0.428489,0.01558 0.225931,0.0078 0.451861,0.0078 0.202559,0 0.389536,0 0.194768,-0.0078 0.381745,-0.01558 0.22593,-0.01558 0.397326,-0.03116 0.171396,-0.01558 0.272675,-0.03895 v -2.290468 h 0.311628 q 0.0078,0.01558 0.01558,0.02337 0.0078,0 0.01558,0 0,0.0078 0.0078,0.0078 0.0078,0 0.01558,0 0.01558,0.0078 0.03116,0.0078 0.01558,0 0.03116,0 0.0078,0 0.01558,0.0078 0.0078,0 0.01558,0 0.0078,0.0078 0.01558,0.0078 0.0078,0 0.01558,0 0.0078,0 0.0078,0 0.0078,0 0.01558,0 0.03895,-0.0078 0.07791,-0.01558 0.04674,-0.01558 0.07791,-0.02337 l 0.311628,-0.0078 v 5.453497 h -0.311628 q -0.03116,0 -0.07012,0 -0.03116,-0.0078 -0.07012,-0.01558 0,0 -0.0078,0 0,0 0,0 0,0 -0.0078,0 0,0 0,0 0,0 -0.0078,0 0,0 -0.0078,0 -0.04674,0.0078 -0.09349,0.01558 -0.04674,0 -0.09349,0 H 72.97247 v -2.695585 q -0.05454,0 -0.132442,0 -0.07012,-0.0078 -0.155814,-0.01558 -0.0857,0 -0.186977,0 -0.09349,-0.0078 -0.202559,-0.01558 -0.171396,-0.01558 -0.358373,-0.01558 -0.186977,-0.0078 -0.389535,-0.0078 -0.03895,0 -0.07791,0 -0.03895,0 -0.07012,0 -0.03895,0.0078 -0.07791,0.0078 -0.03116,0 -0.07012,0 -0.04674,0 -0.09349,0 -0.04674,0 -0.09349,0 -0.05454,0.0078 -0.101279,0.0078 -0.04675,0 -0.09349,0 -0.05454,0 -0.116861,0.0078 -0.05453,0 -0.109069,0 -0.06233,0.0078 -0.116861,0.01558 -0.05453,0 -0.116861,0 -0.11686,0.0078 -0.22593,0.01558 -0.10907,0 -0.21814,0.01558 v 2.680004 h -0.311629 q -0.04674,0 -0.0857,0 -0.03116,-0.0078 -0.07012,-0.01558 -0.04674,0.0078 -0.09349,0.01558 -0.04675,0 -0.10907,0 h -0.311629 v 0 z m 6.450706,0 V 43.62939 h 0.311628 2.820237 q -0.0078,0.03895 -0.01558,0.07012 -0.0078,0.02337 -0.01558,0.04675 0,0.0078 -0.0078,0.02337 0,0.0078 0,0.01558 -0.0078,0.01558 -0.0078,0.02337 0,0.0078 0,0.02337 v 0.01558 0.03116 q 0,0.03895 0,0.07012 0,0.02337 0.0078,0.05454 0,0.01558 0,0.03116 0.0078,0.01558 0.01558,0.03116 0.0078,0.02337 0.0078,0.03895 0.0078,0.01558 0.01558,0.03116 l -0.311628,-0.0078 q -0.116861,-0.01558 -0.233721,-0.03116 -0.116861,-0.01558 -0.249303,-0.02337 -0.124651,-0.0078 -0.257093,-0.0078 -0.124652,-0.0078 -0.257094,-0.0078 0,0 0,0 0,0 0,0 -0.0078,0 -0.0078,0 0,0 0,0 -0.03116,0.0078 -0.06233,0.0078 -0.02337,0 -0.05454,0 -0.03116,0 -0.06233,0 -0.03116,0 -0.05454,0 -0.03116,0 -0.07012,0 -0.03116,0 -0.07012,0 -0.03116,0.0078 -0.07012,0.0078 -0.03116,0 -0.06233,0 -0.07012,0 -0.140232,0 -0.06233,0 -0.124652,0 v 1.885352 h 0.856978 l 0.732327,-0.06233 h 0.311628 q -0.0078,0.03895 -0.02337,0.07012 -0.0078,0.02337 -0.01558,0.04674 -0.0078,0.03116 -0.0078,0.06233 0,0.02337 0,0.05454 0,0.01558 0,0.03116 0,0.01558 0,0.03116 0,0.02337 0,0.03895 0.0078,0.01558 0.0078,0.03116 0.0078,0.03116 0.01558,0.07012 0.01558,0.03116 0.02337,0.07012 l -0.311628,-0.0078 -0.919304,-0.07012 h -0.670001 v 2.212561 q 0.05454,0.01558 0.116861,0.02337 0.06233,0.0078 0.132442,0.0078 0.06233,0.0078 0.124651,0.0078 0.06233,0 0.132442,0 0.03895,0 0.07012,0 0.03116,0 0.06233,-0.0078 0.03116,0 0.06233,0 0.03895,0 0.07012,0 0.155815,-0.0078 0.303838,-0.01558 0.148024,-0.0078 0.296047,-0.01558 0.140233,-0.01558 0.257094,-0.02337 0.11686,-0.01558 0.210349,-0.02337 l 0.311628,-0.0078 q -0.0078,0.03895 -0.02337,0.07791 -0.0078,0.03116 -0.01558,0.07012 -0.0078,0.03116 -0.0078,0.06233 0,0.03116 0,0.06233 0,0.03116 0,0.06233 0,0.03116 0.0078,0.06233 0.0078,0.03116 0.01558,0.05454 0.01558,0.02337 0.02337,0.03116 h -0.311628 -2.882563 v 0 z"
         id="text8"
         aria-label="QIAOHE" />
    </g>
  </g>
</svg>
