<?xml version="1.0" encoding="UTF-8" standalone="no"?>
<!-- Created with Inkscape (http://www.inkscape.org/) -->

<svg
   width="500"
   height="250"
   viewBox="0 0 132.29166 66.145833"
   version="1.1"
   id="svg1"
   inkscape:version="1.3.2 (091e20e, 2023-11-25, custom)"
   sodipodi:docname="y14.svg"
   xmlns:inkscape="http://www.inkscape.org/namespaces/inkscape"
   xmlns:sodipodi="http://sodipodi.sourceforge.net/DTD/sodipodi-0.dtd"
   xmlns="http://www.w3.org/2000/svg"
   xmlns:svg="http://www.w3.org/2000/svg">
  <sodipodi:namedview
     id="namedview1"
     pagecolor="#9e652e"
     bordercolor="#ffffff"
     borderopacity="1"
     inkscape:showpageshadow="0"
     inkscape:pageopacity="0"
     inkscape:pagecheckerboard="false"
     inkscape:deskcolor="#d1d1d1"
     inkscape:document-units="mm"
     inkscape:zoom="2.0208096"
     inkscape:cx="276.12695"
     inkscape:cy="127.17675"
     inkscape:window-width="1920"
     inkscape:window-height="1009"
     inkscape:window-x="1912"
     inkscape:window-y="-8"
     inkscape:window-maximized="1"
     inkscape:current-layer="layer1" />
  <defs
     id="defs1">
    <rect
       x="157.85752"
       y="62.351248"
       width="329.07603"
       height="135.09437"
       id="rect4" />
  </defs>
  <g
     inkscape:label="Layer 1"
     inkscape:groupmode="layer"
     id="layer1">
    <path
       id="rect5"
       style="fill:#ffffff;stroke-width:0.953294"
       d="M -2.5431316e-6,-1.2715658e-6 H 132.29167 V 66.145835 H -2.5431316e-6 Z" />
    <g
       id="g1"
       transform="matrix(1.121508,0,0,1.121508,22.126542,-3.0133416)">
      <path
         id="rect6"
         style="fill:none;stroke:#000000;stroke-width:0.575409"
         d="m 9.3009131,19.849001 h 5.7010479 c 1.810115,0 3.267355,1.45724 3.267355,3.267355 v 9.524719 c 0,1.810115 -1.45724,3.267355 -3.267355,3.267355 H 9.3009131 c -1.8101145,0 -3.2673547,-1.45724 -3.2673547,-3.267355 v -9.524719 c 0,-1.810115 1.4572402,-3.267355 3.2673547,-3.267355 z" />
      <path
         style="font-weight:bold;font-size:5.82083px;line-height:1.25;font-family:'Optima Bold';-inkscape-font-specification:'Optima Bold,  Bold';stroke-width:0.264583"
         d="m 11.768055,25.2551 -1.420282,-2.293407 h 0.232833 q 0.04657,0.01746 0.09313,0.0291 0.05239,0.0058 0.09313,0.01164 0.01164,0 0.01746,0 0.01164,0 0.01746,0 0,0 0,0 0.0058,0 0.0058,0 0,0 0,0 0.0058,0 0.0058,0 0.0291,0 0.05239,0 0.0291,0 0.05239,-0.0058 0.0291,-0.0058 0.05821,-0.01164 0.0291,-0.0058 0.05821,-0.01164 l 0.232833,-0.0058 0.98372,1.711324 0.937154,-1.717145 h 0.232833 q 0.0291,0.01746 0.05821,0.0291 0.03492,0.0058 0.06403,0.01164 0.0058,0 0.01164,0 0.01164,0 0.01746,0 0.0058,0 0.01164,0 0.01164,-0.0058 0.01746,-0.0058 0.02328,-0.0058 0.04657,-0.01164 0.02328,-0.0058 0.04657,-0.01164 l 0.232833,-0.0058 q -0.03492,0.05239 -0.06985,0.09895 -0.0291,0.04657 -0.05821,0.09313 -0.03492,0.04657 -0.06985,0.09313 -0.0291,0.04657 -0.05821,0.09313 -0.03492,0.04657 -0.06985,0.09895 -0.0291,0.04657 -0.05821,0.09313 -0.03493,0.04657 -0.06985,0.09895 -0.0291,0.04657 -0.05821,0.09313 -0.128058,0.192088 -0.244475,0.378354 -0.116416,0.186267 -0.232833,0.372533 -0.110596,0.186267 -0.20955,0.360892 -0.09895,0.174625 -0.180445,0.331787 v 1.775353 h -0.232834 q -0.03492,0 -0.06985,0 -0.0291,-0.0058 -0.05821,-0.01164 0,0 -0.0058,0 0,0 0,0 0,0 -0.0058,0 0,0 0,0 -0.0058,0 -0.01164,0 0,0 -0.0058,0 -0.03493,0.0058 -0.07567,0.01164 -0.03493,0 -0.08149,0 h -0.232834 v -1.693861 0 z"
         id="text6"
         aria-label="Y" />
      <path
         style="font-weight:bold;font-size:5.82083px;line-height:1.25;font-family:'Optima Bold';-inkscape-font-specification:'Optima Bold,  Bold';stroke-width:0.264583"
         d="m 9.3516163,29.278575 q 0.1688041,-0.07567 0.3317873,-0.151341 0.1688041,-0.07567 0.3317874,-0.151342 0.162983,-0.06985 0.291041,-0.1397 0.133879,-0.06985 0.238654,-0.1397 l 0.232834,-0.0058 0.1397,0.04075 v 3.987269 h -0.232834 q -0.03492,-0.0058 -0.06403,-0.01746 -0.0291,-0.0058 -0.05821,-0.01164 -0.03492,0.0058 -0.06985,0.01164 -0.03493,0.01164 -0.08149,0.01746 H 10.178174 V 29.278575 L 9.7707161,29.511409 H 9.5378829 q -0.00582,0 -0.017462,-0.0058 -0.00582,-0.01164 -0.017463,-0.0291 -0.00582,-0.01164 -0.011642,-0.01746 -0.00582,-0.01164 -0.00582,-0.01746 -0.00582,-0.01164 -0.011642,-0.01746 -0.00582,-0.01164 -0.011642,-0.01746 -0.00582,-0.01164 -0.011642,-0.01746 -0.00582,-0.0058 -0.011642,-0.01746 -0.011642,-0.0058 -0.017462,-0.01164 -0.00582,-0.01164 -0.011642,-0.01746 -0.011642,-0.01746 -0.029104,-0.0291 -0.011642,-0.01746 -0.029104,-0.02328 v -0.01164 z m 2.9860907,2.293407 v -0.1397 l 1.880128,-2.654298 h 0.232834 0.407458 v 2.409824 l 0.320145,-0.02911 h 0.232834 q -0.0058,0.03493 -0.01746,0.06403 -0.0058,0.0291 -0.01164,0.05821 -0.0058,0.02328 -0.0058,0.05821 0,0.0291 0,0.05821 0,0.02911 0,0.06403 0,0.0291 0.0058,0.05821 0.0058,0.0291 0.01164,0.05821 0.01164,0.02328 0.01746,0.05239 l -0.232834,-0.0058 -0.320145,-0.0291 v 1.076853 h -0.232834 q -0.05239,0 -0.104774,0 -0.05239,0 -0.110596,0 -0.05821,0 -0.133879,0 -0.06985,0 -0.151342,0 v -1.100137 h -1.786995 v 0 z m 1.786995,-0.366712 v -1.54252 l -1.05357,1.54252 h 1.05357 v 0 z"
         id="text6-8"
         aria-label="14" />
    </g>
    <g
       id="g2"
       transform="translate(3.3051826,-2.6369997)">
      <path
         style="font-weight:600;font-size:18.3502px;line-height:1.25;font-family:'Noto Serif TC';-inkscape-font-specification:'Noto Serif TC Semi-Bold';letter-spacing:1.96609px;stroke-width:0.327681"
         d="m 53.44404,31.687757 v -4.881153 h 4.642601 v 4.881153 z m -6.477621,0 v -4.881153 h 4.642601 v 4.881153 z m 11.83588,-6.40422 -0.89916,0.990911 H 53.44404 v -3.192935 c 0.495456,-0.0734 0.623907,-0.275253 0.678958,-0.532156 L 51.60902,22.292455 v 3.981993 H 47.131571 L 45.1681,25.448689 v 8.551194 h 0.275253 c 0.734008,0 1.523066,-0.422055 1.523066,-0.587207 v -1.192763 h 4.642601 v 7.138228 h 0.348654 c 0.697308,0 1.486366,-0.458755 1.486366,-0.660607 v -6.477621 h 4.642601 v 1.523067 h 0.311953 c 0.605557,0 1.504717,-0.330304 1.523067,-0.458755 v -6.165668 c 0.385354,-0.0734 0.642257,-0.238552 0.770708,-0.385354 z m 11.783446,8.386042 c -0.642257,1.523067 -2.091923,3.541589 -3.743441,4.771052 l 0.146802,0.220203 c 2.146973,-0.825759 4.000344,-2.330476 5.064655,-3.706741 0.422055,0.0734 0.587207,-0.0367 0.697308,-0.220202 z m 0.642257,-1.578117 v -2.183674 h 6.294119 v 2.183674 z m 6.294119,-4.771052 v 2.055222 H 71.228002 V 27.32041 Z m 0,5.303208 v 0.678957 h 0.275253 c 0.568856,0 1.412966,-0.367004 1.431316,-0.495455 v -5.174757 c 0.385354,-0.09175 0.660607,-0.238553 0.770708,-0.385354 l -1.798319,-1.394615 -0.86246,0.93586 h -3.945293 c 0.513806,-0.440405 1.009261,-1.009261 1.449666,-1.559767 0.385354,-0.01835 0.605557,-0.183502 0.678957,-0.422055 l -2.330475,-0.568856 c -0.09175,0.88081 -0.238553,1.87172 -0.385354,2.550678 h -1.486367 l -1.798319,-0.752358 v 7.596983 h 0.275253 c 0.697307,0 1.431315,-0.385355 1.431315,-0.550506 v -0.458755 h 2.312126 v 4.532499 c 0,0.238553 -0.09175,0.330304 -0.403705,0.330304 -0.422054,0 -2.330475,-0.128452 -2.330475,-0.128452 v 0.238553 c 0.91751,0.128451 1.376265,0.330304 1.651518,0.587206 0.238552,0.256903 0.348654,0.678958 0.385354,1.192763 2.110273,-0.165151 2.422227,-0.95421 2.422227,-2.183673 v -4.5692 z m -1.339564,1.614817 c 1.137712,0.990911 2.624078,2.605729 3.101183,3.981994 1.890071,1.137712 2.972733,-2.660779 -2.917681,-4.147146 z M 78.549732,23.650369 H 68.090118 L 66.126647,22.78791 v 5.52341 c 0,3.61499 -0.128452,7.670384 -1.853371,10.90002 l 0.238553,0.165151 c 3.119534,-3.119534 3.284686,-7.725434 3.284686,-11.083521 v -4.110445 h 13.083693 c 0.275253,0 0.458755,-0.09175 0.513806,-0.293603 -0.715658,-0.642257 -1.853371,-1.523067 -1.853371,-1.523067 z"
         id="text7"
         aria-label="中原" />
      <path
         style="font-weight:bold;font-size:7.79071px;line-height:1.25;font-family:'Optima Bold';-inkscape-font-specification:'Optima Bold,  Bold';stroke-width:0.354123"
         d="m 36.652192,43.62939 h 4.175821 v 0.186977 q -0.412908,0.568722 -0.833606,1.137444 -0.420698,0.568721 -0.841397,1.153025 -0.420698,0.584303 -0.864768,1.215351 -0.43628,0.623256 -0.895932,1.293257 0.389535,0 0.77128,-0.0078 0.381745,-0.0078 0.755699,-0.01558 0.43628,-0.01558 0.818025,-0.05454 0.381744,-0.03895 0.716745,-0.10907 l 0.311628,-0.0078 q -0.0078,0.05454 -0.02337,0.09349 -0.0078,0.03895 -0.01558,0.07791 -0.0078,0.03116 -0.0078,0.07012 0,0.03116 0,0.06233 v 0.03895 l 0.0078,0.03895 q 0,0.01558 0,0.03116 0,0.0078 0,0.01558 0,0.01558 0,0.02337 0.0078,0.0078 0.0078,0.02337 0.0078,0.02337 0.01558,0.04674 0.0078,0.01558 0.01558,0.02337 h -0.311628 -4.417333 v -0.241512 l 3.365587,-4.72117 q -0.350582,0.01558 -0.685582,0.02337 -0.32721,0.0078 -0.646629,0.02337 -0.194768,0.0078 -0.381745,0.02337 -0.179186,0.0078 -0.358373,0.01558 -0.179186,0.01558 -0.350582,0.02337 -0.163605,0.0078 -0.32721,0.02337 l -0.311628,-0.0078 q 0.0078,-0.01558 0.0078,-0.03895 0.0078,-0.02337 0.01558,-0.04674 0.0078,-0.02337 0.0078,-0.04675 0.0078,-0.02337 0.01558,-0.04674 v -0.03116 -0.03116 q 0,-0.02337 -0.0078,-0.04674 0,-0.03116 -0.0078,-0.06233 -0.0078,-0.03116 -0.01558,-0.06233 0,-0.03895 -0.01558,-0.07012 v -0.01558 h 0.311628 z m 4.970468,5.336636 v -5.461287 h 0.311629 q 0.02337,0.01558 0.05453,0.03116 0.03116,0.0078 0.06233,0.01558 0.0078,0 0.01558,0.0078 0.01558,0 0.02337,0 0.0078,0 0.01558,0 0.01558,0 0.02337,0 0,0 0,0 0.0078,0 0.01558,0 0.0078,0 0.0078,0 0.0078,0 0.0078,0 0.03895,-0.0078 0.07012,-0.01558 0.03895,-0.01558 0.06233,-0.02337 l 0.311629,-0.0078 v 2.267097 q 0.10907,0.03116 0.280465,0.04674 0.171396,0.01558 0.405117,0.03116 0.210349,0.0078 0.428489,0.01558 0.225931,0.0078 0.451861,0.0078 0.202559,0 0.389536,0 0.194768,-0.0078 0.381745,-0.01558 0.22593,-0.01558 0.397326,-0.03116 0.171395,-0.01558 0.272675,-0.03895 v -2.290468 h 0.311628 q 0.0078,0.01558 0.01558,0.02337 0.0078,0 0.01558,0 0,0.0078 0.0078,0.0078 0.0078,0 0.01558,0 0.01558,0.0078 0.03116,0.0078 0.01558,0 0.03116,0 0.0078,0 0.01558,0.0078 0.0078,0 0.01558,0 0.0078,0.0078 0.01558,0.0078 0.0078,0 0.01558,0 0.0078,0 0.0078,0 0.0078,0 0.01558,0 0.03895,-0.0078 0.07791,-0.01558 0.04674,-0.01558 0.07791,-0.02337 l 0.311628,-0.0078 v 5.453497 h -0.311628 q -0.03116,0 -0.07012,0 -0.03116,-0.0078 -0.07012,-0.01558 0,0 -0.0078,0 0,0 0,0 0,0 -0.0078,0 0,0 0,0 0,0 -0.0078,0 0,0 -0.0078,0 -0.04674,0.0078 -0.09349,0.01558 -0.04675,0 -0.09349,0 h -0.311628 v -2.695585 q -0.05453,0 -0.132442,0 -0.07012,-0.0078 -0.155815,-0.01558 -0.0857,0 -0.186977,0 -0.09349,-0.0078 -0.202558,-0.01558 -0.171396,-0.01558 -0.358373,-0.01558 -0.186977,-0.0078 -0.389535,-0.0078 -0.03895,0 -0.07791,0 -0.03895,0 -0.07012,0 -0.03895,0.0078 -0.07791,0.0078 -0.03116,0 -0.07012,0 -0.04675,0 -0.09349,0 -0.04674,0 -0.09349,0 -0.05453,0.0078 -0.10128,0.0078 -0.04674,0 -0.09349,0 -0.05454,0 -0.116861,0.0078 -0.05454,0 -0.10907,0 -0.06233,0.0078 -0.11686,0.01558 -0.05454,0 -0.116861,0 -0.116861,0.0078 -0.225931,0.01558 -0.109069,0 -0.218139,0.01558 v 2.680004 h -0.311629 q -0.04674,0 -0.0857,0 -0.03116,-0.0078 -0.07012,-0.01558 -0.04674,0.0078 -0.09349,0.01558 -0.04674,0 -0.109069,0 H 41.62266 v 0 z m 6.076751,-2.695585 q 0,-0.03116 0,-0.06233 0,-0.03895 0,-0.07012 0,-0.03895 0,-0.07791 0.0078,-0.03895 0.01558,-0.07791 0.04674,-0.467442 0.257093,-0.895931 0.210349,-0.43628 0.584303,-0.833606 0.366164,-0.397326 0.903723,-0.592094 0.537559,-0.202559 1.246513,-0.202559 l 0.311629,-0.0078 q 0.716745,0.03116 1.223141,0.194767 0.514187,0.163605 0.825815,0.483024 0.311629,0.311629 0.506397,0.65442 0.202558,0.342791 0.288256,0.716745 0.01558,0.04674 0.02337,0.09349 0.0078,0.04674 0.01558,0.0857 0.0078,0.04674 0.01558,0.09349 0.0078,0.04674 0.01558,0.09349 0.01558,0.09349 0.01558,0.186977 0.0078,0.0857 0.01558,0.171395 v 0.01558 0.02337 0.03116 0.02337 q 0,0.65442 -0.22593,1.168606 -0.21814,0.506397 -0.670002,0.87256 -0.451861,0.373954 -0.966048,0.55314 -0.506396,0.179187 -1.075118,0.179187 h -0.311628 q -0.01558,0 -0.03116,0 -0.01558,0 -0.03116,0 -0.01558,0 -0.03895,0 -0.01558,0 -0.03116,0 -0.101279,0 -0.202558,-0.0078 -0.09349,0 -0.194768,-0.01558 -0.101279,-0.0078 -0.202559,-0.03116 -0.101279,-0.02337 -0.202558,-0.04675 -0.389536,-0.0857 -0.747908,-0.296047 -0.358373,-0.210349 -0.685583,-0.529768 -0.32721,-0.319419 -0.490814,-0.786862 -0.155815,-0.475233 -0.155815,-1.090699 v -0.01558 z m 1.114072,0.0078 q 0,0.607676 0.148023,1.075118 0.155815,0.459652 0.467443,0.786862 0.280465,0.296047 0.631047,0.459652 0.358373,0.163605 0.786862,0.186977 0.397326,-0.02337 0.724536,-0.186977 0.335001,-0.163605 0.599885,-0.459652 0.296047,-0.32721 0.467442,-0.794652 0.171396,-0.467443 0.21814,-1.059537 0,-0.01558 0,-0.03116 0,-0.02337 0,-0.03116 0,-0.01558 0,-0.03116 0,-0.01558 0,-0.03116 0,-0.506396 -0.155814,-0.934885 -0.148023,-0.42849 -0.451861,-0.771281 -0.288256,-0.311628 -0.65442,-0.483024 -0.358372,-0.171395 -0.794652,-0.194768 -0.381745,0.02337 -0.685583,0.163605 -0.303837,0.132442 -0.514186,0.381745 -0.233722,0.280466 -0.397327,0.584303 -0.155814,0.303838 -0.249302,0.631048 -0.02337,0.101279 -0.04675,0.194768 -0.02337,0.09349 -0.03895,0.186977 -0.01558,0.09349 -0.03116,0.186977 -0.0078,0.09349 -0.02337,0.179186 z m 6.131288,2.687795 v -5.398962 h 0.311628 0.373955 l 3.427912,3.770704 v -3.770704 h 0.311628 q 0.01558,0.02337 0.03895,0.03116 0.02337,0.0078 0.04674,0.01558 0.03116,-0.0078 0.05453,-0.01558 0.02337,-0.0078 0.03895,-0.01558 l 0.311628,-0.0078 v 5.391171 h -0.311628 -0.303838 l -3.498029,-3.887564 v 3.887564 h -0.311628 q -0.0078,0 -0.01558,0 -0.0078,0 -0.01558,0 -0.01558,0 -0.02337,0 -0.0078,-0.0078 -0.01558,-0.0078 -0.01558,0 -0.03116,0 -0.0078,0 -0.02337,0.0078 -0.01558,0 -0.03116,0 -0.0078,0 -0.02337,0 h -0.311628 v 0 z m 6.084542,-2.64105 q 0.03116,-0.615466 0.179187,-1.075118 0.155814,-0.459652 0.428489,-0.755699 0.272675,-0.296047 0.568722,-0.498606 0.303837,-0.202558 0.631047,-0.311628 0.171396,-0.06233 0.335001,-0.101279 0.171395,-0.03895 0.335,-0.06233 0.163605,-0.02337 0.311629,-0.03895 0.155814,-0.01558 0.280465,-0.02337 l 0.311629,-0.0078 q 0.249302,0.0078 0.498605,0.03895 0.257093,0.02337 0.514187,0.07791 0.249303,0.05454 0.498605,0.155814 0.257094,0.09349 0.514187,0.225931 l -0.249303,0.66221 h -0.311628 q -0.03895,-0.01558 -0.0857,-0.04674 -0.04674,-0.03895 -0.09349,-0.0857 -0.04675,-0.04674 -0.10128,-0.09349 -0.04674,-0.04674 -0.109069,-0.09349 -0.10907,-0.0857 -0.249303,-0.163605 -0.140233,-0.07791 -0.303838,-0.148023 -0.132442,-0.06233 -0.303838,-0.09349 -0.163604,-0.03895 -0.358372,-0.04674 -0.03895,0 -0.0857,0.0078 -0.03895,0 -0.0857,0.0078 -0.07791,0.0078 -0.163605,0.02337 -0.07791,0.01558 -0.163605,0.03895 -0.288256,0.07791 -0.560931,0.249303 -0.264884,0.163605 -0.514187,0.420698 -0.241512,0.257094 -0.381744,0.631048 -0.140233,0.373954 -0.179187,0.88035 v 0.02337 0.03116 0.03116 0.03116 q -0.0078,0.576512 0.148024,1.043955 0.155814,0.467442 0.467442,0.825815 0.296047,0.335001 0.670001,0.514187 0.381745,0.171396 0.849188,0.194768 0.155814,-0.0078 0.296047,-0.02337 0.148023,-0.02337 0.288256,-0.05454 0.179186,-0.03895 0.303838,-0.09349 0.132442,-0.06233 0.22593,-0.132442 v -2.041166 h 0.311629 q 0.01558,0.01558 0.03116,0.02337 0.01558,0 0.03895,0.0078 0.01558,0.0078 0.03116,0.01558 0.01558,0 0.03116,0 0.0078,0 0.0078,0 0.0078,0 0.01558,0 0.0078,0.0078 0.0078,0.0078 0.0078,0 0.01558,0 0,0 0,0 0,0 0.0078,0 0,0 0,0 0,0 0,0 0.03895,-0.0078 0.0857,-0.01558 0.04674,-0.01558 0.09349,-0.02337 l 0.311628,-0.0078 v 2.267096 l -0.02337,0.02337 -0.02337,0.0078 q -0.03895,0.02337 -0.09349,0.03895 -0.04675,0.01558 -0.10128,0.03116 -0.05454,0.02337 -0.11686,0.03895 -0.06233,0.01558 -0.132442,0.03116 -0.140233,0.03116 -0.280466,0.05454 -0.140233,0.02337 -0.296047,0.03895 -0.140233,0.02337 -0.272675,0.03895 -0.124651,0.02337 -0.257093,0.03116 -0.124651,0.01558 -0.233721,0.02337 -0.10907,0.0078 -0.194768,0.0078 h -0.311629 q -0.01558,0 -0.03895,0 -0.01558,0 -0.03116,0 -0.01558,0 -0.03895,0 -0.01558,0 -0.03116,0 -0.662211,0 -1.184188,-0.179187 -0.521978,-0.179186 -0.911513,-0.560931 -0.381745,-0.373954 -0.576513,-0.872559 -0.194768,-0.506396 -0.194768,-1.137444 v -0.01558 z m 7.985476,0.373954 -1.900933,-3.06954 h 0.311628 q 0.06233,0.02337 0.124652,0.03895 0.07012,0.0078 0.124651,0.01558 0.01558,0 0.02337,0 0.01558,0 0.02337,0 0,0 0,0 0.0078,0 0.0078,0 0,0 0,0 0.0078,0 0.0078,0 0.03895,0 0.07012,0 0.03895,0 0.07012,-0.0078 0.03895,-0.0078 0.07791,-0.01558 0.03895,-0.0078 0.07791,-0.01558 l 0.311628,-0.0078 1.31663,2.290468 1.254304,-2.298259 h 0.311629 q 0.03895,0.02337 0.07791,0.03895 0.04674,0.0078 0.0857,0.01558 0.0078,0 0.01558,0 0.01558,0 0.02337,0 0.0078,0 0.01558,0 0.01558,-0.0078 0.02337,-0.0078 0.03116,-0.0078 0.06233,-0.01558 0.03116,-0.0078 0.06233,-0.01558 l 0.311628,-0.0078 q -0.04674,0.07012 -0.09349,0.132442 -0.03895,0.06232 -0.07791,0.124651 -0.04674,0.06233 -0.09349,0.124651 -0.03895,0.06233 -0.07791,0.124652 -0.04674,0.06233 -0.09349,0.132442 -0.03895,0.06233 -0.07791,0.124651 -0.04675,0.06233 -0.09349,0.132442 -0.03895,0.06233 -0.07791,0.124652 -0.171396,0.257093 -0.32721,0.506396 -0.155814,0.249303 -0.311628,0.498605 -0.148024,0.249303 -0.280466,0.483024 -0.132442,0.233722 -0.241512,0.444071 v 2.376166 h -0.311628 q -0.04675,0 -0.09349,0 -0.03895,-0.0078 -0.07791,-0.01558 0,0 -0.0078,0 0,0 0,0 0,0 -0.0078,0 0,0 0,0 -0.0078,0 -0.01558,0 0,0 -0.0078,0 -0.04675,0.0078 -0.10128,0.01558 -0.04674,0 -0.10907,0 h -0.311628 v -2.267096 0 z m 3.747327,0.179186 v -3.311052 h 0.311628 q 0.05454,0.02337 0.101279,0.03895 0.05454,0.0078 0.10128,0.01558 0.02337,0 0.04674,0 0.02337,0 0.04674,-0.0078 0.03116,-0.0078 0.06233,-0.01558 0.03116,-0.0078 0.06233,-0.01558 l 0.311629,-0.0078 v 3.1864 q 0,0.54535 0.10907,0.927095 0.11686,0.373954 0.350582,0.599885 0.210349,0.202558 0.475233,0.319419 0.264884,0.10907 0.576513,0.124651 0.389535,-0.01558 0.670001,-0.140233 0.288256,-0.124651 0.459651,-0.342791 0.186978,-0.249303 0.288257,-0.599885 0.10907,-0.358372 0.132442,-0.818024 v -3.264308 h 0.311628 q 0.01558,0.01558 0.02337,0.02337 0.0078,0 0.02337,0.0078 0.0078,0.0078 0.01558,0.01558 0.01558,0 0.02337,0 0.01558,0 0.02337,0 0.01558,-0.0078 0.02337,-0.01558 0.01558,-0.0078 0.02337,-0.0078 0.01558,-0.0078 0.02337,-0.0078 l 0.311628,-0.0078 v 3.124075 q 0,0.545349 -0.132442,0.981629 -0.124651,0.428489 -0.381745,0.755699 -0.257093,0.335001 -0.693373,0.498605 -0.43628,0.155815 -1.059537,0.155815 h -0.311628 q -0.01558,0 -0.03895,0 -0.01558,0 -0.03116,0 -0.01558,0 -0.03895,0 -0.01558,0 -0.03116,0 -0.646629,0 -1.082909,-0.163605 -0.436279,-0.163605 -0.66221,-0.498606 -0.21814,-0.342791 -0.335,-0.724536 -0.10907,-0.381744 -0.10907,-0.810234 v -0.01558 z m 5.772912,2.08791 2.454073,-5.461287 h 0.311629 0.179186 l 2.399539,5.461287 h -0.311629 q -0.02337,0 -0.05454,0 -0.02337,0 -0.05454,0 -0.03116,0 -0.06232,0 -0.02337,0 -0.06233,0 -0.01558,0 -0.03895,0 -0.01558,0 -0.03116,-0.0078 -0.01558,0 -0.03895,0 -0.01558,0 -0.03116,0 -0.01558,0.0078 -0.03895,0.0078 -0.01558,0 -0.03116,0 -0.01558,0 -0.03116,0 -0.01558,0 -0.02337,0 -0.01558,0 -0.03116,0 -0.0078,0 -0.02337,0 H 82.703058 L 81.846079,46.81579 h -1.589304 l -0.794653,2.150236 h -0.311628 q -0.01558,0 -0.03895,0 -0.01558,0 -0.03116,0 l -0.03895,-0.0078 q -0.0078,0.0078 -0.02337,0.0078 -0.01558,0 -0.02337,0 -0.01558,0 -0.03116,0 -0.0078,0 -0.02337,0 h -0.311629 q -0.02337,0 -0.04674,0 -0.02337,0 -0.04674,0 v 0 z m 1.908724,-2.516399 h 1.277676 l -0.638838,-1.526979 -0.638838,1.526979 z m 4.284886,2.516399 v -5.398962 h 0.311628 0.373954 l 3.427913,3.770704 v -3.770704 h 0.311628 q 0.01558,0.02337 0.03895,0.03116 0.02337,0.0078 0.04674,0.01558 0.03116,-0.0078 0.05454,-0.01558 0.02337,-0.0078 0.03895,-0.01558 l 0.311628,-0.0078 v 5.391171 H 89.332948 89.02911 l -3.498029,-3.887564 v 3.887564 h -0.311628 q -0.0078,0 -0.01558,0 -0.0078,0 -0.01558,0 -0.01558,0 -0.02337,0 -0.0078,-0.0078 -0.01558,-0.0078 -0.01558,0 -0.03116,0 -0.0078,0 -0.02337,0.0078 -0.01558,0 -0.03116,0 -0.0078,0 -0.02337,0 h -0.311628 v 0 z"
         id="text8"
         aria-label="ZHONGYUAN" />
    </g>
  </g>
</svg>
