<?xml version="1.0" encoding="UTF-8" standalone="no"?>
<!-- Created with Inkscape (http://www.inkscape.org/) -->

<svg
   width="500"
   height="250"
   viewBox="0 0 132.29166 66.145833"
   version="1.1"
   id="svg1"
   inkscape:version="1.3.2 (091e20e, 2023-11-25, custom)"
   sodipodi:docname="y15.svg"
   xmlns:inkscape="http://www.inkscape.org/namespaces/inkscape"
   xmlns:sodipodi="http://sodipodi.sourceforge.net/DTD/sodipodi-0.dtd"
   xmlns="http://www.w3.org/2000/svg"
   xmlns:svg="http://www.w3.org/2000/svg">
  <sodipodi:namedview
     id="namedview1"
     pagecolor="#9e652e"
     bordercolor="#ffffff"
     borderopacity="1"
     inkscape:showpageshadow="0"
     inkscape:pageopacity="0"
     inkscape:pagecheckerboard="false"
     inkscape:deskcolor="#d1d1d1"
     inkscape:document-units="mm"
     inkscape:zoom="2.0208096"
     inkscape:cx="276.12695"
     inkscape:cy="127.17675"
     inkscape:window-width="1920"
     inkscape:window-height="1009"
     inkscape:window-x="1912"
     inkscape:window-y="-8"
     inkscape:window-maximized="1"
     inkscape:current-layer="layer1" />
  <defs
     id="defs1">
    <rect
       x="157.85752"
       y="62.351248"
       width="329.07603"
       height="135.09437"
       id="rect4" />
  </defs>
  <g
     inkscape:label="Layer 1"
     inkscape:groupmode="layer"
     id="layer1">
    <path
       id="rect5"
       style="fill:#ffffff;stroke-width:0.953294"
       d="M -2.5431316e-6,-1.2715658e-6 H 132.29167 V 66.145835 H -2.5431316e-6 Z" />
    <g
       id="g1"
       transform="matrix(1.121508,0,0,1.121508,22.126542,-3.0133416)">
      <path
         id="rect6"
         style="fill:none;stroke:#000000;stroke-width:0.575409"
         d="m 9.3009131,19.849001 h 5.7010479 c 1.810115,0 3.267355,1.45724 3.267355,3.267355 v 9.524719 c 0,1.810115 -1.45724,3.267355 -3.267355,3.267355 H 9.3009131 c -1.8101145,0 -3.2673547,-1.45724 -3.2673547,-3.267355 v -9.524719 c 0,-1.810115 1.4572402,-3.267355 3.2673547,-3.267355 z" />
      <path
         style="font-weight:bold;font-size:5.82083px;line-height:1.25;font-family:'Optima Bold';-inkscape-font-specification:'Optima Bold,  Bold';stroke-width:0.264583"
         d="m 11.768055,25.2551 -1.420282,-2.293407 h 0.232833 q 0.04657,0.01746 0.09313,0.0291 0.05239,0.0058 0.09313,0.01164 0.01164,0 0.01746,0 0.01164,0 0.01746,0 0,0 0,0 0.0058,0 0.0058,0 0,0 0,0 0.0058,0 0.0058,0 0.0291,0 0.05239,0 0.0291,0 0.05239,-0.0058 0.0291,-0.0058 0.05821,-0.01164 0.0291,-0.0058 0.05821,-0.01164 l 0.232833,-0.0058 0.98372,1.711324 0.937154,-1.717145 h 0.232833 q 0.0291,0.01746 0.05821,0.0291 0.03492,0.0058 0.06403,0.01164 0.0058,0 0.01164,0 0.01164,0 0.01746,0 0.0058,0 0.01164,0 0.01164,-0.0058 0.01746,-0.0058 0.02328,-0.0058 0.04657,-0.01164 0.02328,-0.0058 0.04657,-0.01164 l 0.232833,-0.0058 q -0.03492,0.05239 -0.06985,0.09895 -0.0291,0.04657 -0.05821,0.09313 -0.03492,0.04657 -0.06985,0.09313 -0.0291,0.04657 -0.05821,0.09313 -0.03492,0.04657 -0.06985,0.09895 -0.0291,0.04657 -0.05821,0.09313 -0.03493,0.04657 -0.06985,0.09895 -0.0291,0.04657 -0.05821,0.09313 -0.128058,0.192088 -0.244475,0.378354 -0.116416,0.186267 -0.232833,0.372533 -0.110596,0.186267 -0.20955,0.360892 -0.09895,0.174625 -0.180445,0.331787 v 1.775353 h -0.232834 q -0.03492,0 -0.06985,0 -0.0291,-0.0058 -0.05821,-0.01164 0,0 -0.0058,0 0,0 0,0 0,0 -0.0058,0 0,0 0,0 -0.0058,0 -0.01164,0 0,0 -0.0058,0 -0.03493,0.0058 -0.07567,0.01164 -0.03493,0 -0.08149,0 h -0.232834 v -1.693861 0 z"
         id="text6"
         aria-label="Y" />
      <path
         style="font-weight:bold;font-size:5.82083px;line-height:1.25;font-family:'Optima Bold';-inkscape-font-specification:'Optima Bold,  Bold';stroke-width:0.264583"
         d="m 9.3516163,29.278575 q 0.1688041,-0.07567 0.3317873,-0.151341 0.1688041,-0.07567 0.3317874,-0.151342 0.162983,-0.06985 0.291041,-0.1397 0.133879,-0.06985 0.238654,-0.1397 l 0.232834,-0.0058 0.1397,0.04075 v 3.987269 h -0.232834 q -0.03492,-0.0058 -0.06403,-0.01746 -0.0291,-0.0058 -0.05821,-0.01164 -0.03492,0.0058 -0.06985,0.01164 -0.03493,0.01164 -0.08149,0.01746 H 10.178174 V 29.278575 L 9.7707161,29.511409 H 9.5378829 q -0.00582,0 -0.017462,-0.0058 -0.00582,-0.01164 -0.017463,-0.0291 -0.00582,-0.01164 -0.011642,-0.01746 -0.00582,-0.01164 -0.00582,-0.01746 -0.00582,-0.01164 -0.011642,-0.01746 -0.00582,-0.01164 -0.011642,-0.01746 -0.00582,-0.01164 -0.011642,-0.01746 -0.00582,-0.0058 -0.011642,-0.01746 -0.011642,-0.0058 -0.017462,-0.01164 -0.00582,-0.01164 -0.011642,-0.01746 -0.011642,-0.01746 -0.029104,-0.0291 -0.011642,-0.01746 -0.029104,-0.02328 v -0.01164 z m 3.5390697,2.846386 q 0.06403,0.104775 0.145521,0.186267 0.08731,0.07567 0.197908,0.128058 0.08149,0.04075 0.162983,0.06403 0.08731,0.02328 0.168804,0.03493 0.13388,-0.01746 0.261938,-0.07567 0.133879,-0.05821 0.244475,-0.151341 0.1397,-0.116417 0.20955,-0.302683 0.06985,-0.192088 0.06985,-0.454025 v -0.02328 -0.01746 -0.01164 -0.01746 q -0.01164,-0.244475 -0.08149,-0.4191 -0.06403,-0.174625 -0.180446,-0.2794 -0.09313,-0.08149 -0.192087,-0.128058 -0.09895,-0.04657 -0.215371,-0.06403 -0.05821,0.0058 -0.116417,0.01746 -0.05821,0.01164 -0.116416,0.03493 -0.06403,0.02328 -0.128058,0.05239 -0.05821,0.02328 -0.110596,0.05821 l -0.232833,-0.0058 -0.09313,-0.05239 v -1.920874 h 0.232834 1.926694 q 0,0.01746 0,0.0291 0,0.01164 0,0.01746 -0.0058,0.01164 -0.0058,0.02328 0,0.0058 0,0.01746 0,0.0058 0,0.01746 0,0.01164 0,0.01746 -0.0058,0.01164 -0.0058,0.02328 0,0.0058 0,0.01746 -0.0058,0.02328 -0.01164,0.04657 0,0.01746 0,0.03493 0,0.02328 0,0.04657 0,0.01746 0,0.04075 0,0.01164 0,0.02328 0,0.01164 0,0.02328 l 0.0058,0.03492 q 0,0.01746 0,0.0291 0,0.01164 0.0058,0.02328 0,0.01164 0,0.02328 0.0058,0.01164 0.01164,0.02328 l -0.232833,-0.0058 q -0.06985,-0.01164 -0.151342,-0.02328 -0.08149,-0.01746 -0.168804,-0.0291 -0.08731,-0.01164 -0.192087,-0.01746 -0.104775,-0.01164 -0.221192,-0.01164 l -0.686857,-0.01164 v 1.146703 q 0,0.0058 0,0.0058 0.0058,0 0.01164,-0.0058 0.0058,0 0.0058,0 0.0058,0 0.0058,0 0.07567,-0.01746 0.151341,-0.02328 0.08149,-0.01164 0.168805,-0.01164 l 0.232833,-0.0058 q 0.01164,0.0058 0.02328,0.0058 0.01746,0 0.03492,0 0.01164,0.0058 0.02328,0.0058 0.01746,0 0.03493,0 0.0291,0.0058 0.05821,0.01164 0.0291,0 0.05821,0 0.174625,0.0291 0.337608,0.110596 0.162983,0.07567 0.308504,0.203729 0.151342,0.128058 0.232833,0.331787 0.08149,0.203729 0.104775,0.477308 v 0.0058 0.01164 0.01164 0.01164 q 0,0.2794 -0.116416,0.506412 -0.110596,0.227012 -0.331788,0.407458 -0.221191,0.180446 -0.488949,0.267758 -0.267759,0.08731 -0.576263,0.08731 h -0.232833 q -0.04075,0 -0.08731,0 -0.04075,0 -0.08149,-0.0058 -0.04657,0 -0.08731,-0.0058 -0.04075,-0.0058 -0.08731,-0.01164 -0.04075,-0.0058 -0.08731,-0.01746 -0.04075,-0.01164 -0.08149,-0.02328 -0.04657,-0.01164 -0.08731,-0.01746 -0.04075,-0.01164 -0.08731,-0.0291 -0.0291,-0.01164 -0.05821,-0.01746 -0.0291,-0.01164 -0.05821,-0.02328 -0.0291,-0.01164 -0.05821,-0.02328 -0.0291,-0.01746 -0.05821,-0.03493 l 0.09313,-0.4191 h 0.232834 0.04657 v 0 z"
         id="text6-8"
         aria-label="15" />
    </g>
    <g
       id="g2"
       transform="translate(3.3051826,-2.6369997)">
      <path
         style="font-weight:600;font-size:18.3502px;line-height:1.25;font-family:'Noto Serif TC';-inkscape-font-specification:'Noto Serif TC Semi-Bold';letter-spacing:1.96609px;stroke-width:0.327681"
         d="m 48.672988,27.265359 h 2.367176 c 0.256903,0 0.440405,-0.09175 0.477105,-0.293603 -0.605557,-0.623907 -1.578117,-1.449666 -1.578117,-1.449666 l -0.89916,1.211113 h -0.367004 v -3.63334 c 0.477105,-0.0734 0.623907,-0.238552 0.660607,-0.513805 L 47.05817,22.347505 v 4.385698 h -2.880981 l 0.146801,0.532156 h 2.440577 c -0.495455,2.77088 -1.412965,5.560111 -2.862631,7.633683 l 0.220202,0.238553 c 1.211113,-1.119362 2.183674,-2.385526 2.936032,-3.798491 v 8.000687 h 0.311954 c 0.605556,0 1.302864,-0.311953 1.302864,-0.513806 v -9.560454 c 0.495455,0.807409 0.990911,1.85337 1.082662,2.679129 1.321214,1.174413 2.78923,-1.468016 -1.082662,-3.119534 z m 9.468704,1.229463 c -0.311954,1.835021 -0.84411,3.59664 -1.669869,5.156407 -0.990911,-1.339565 -1.724919,-3.027783 -2.146973,-5.156407 z m 0.862459,-1.523066 -0.990911,0.990911 h -3.798491 v -0.01835 l -0.0367,0.01835 h -0.89916 v -3.59664 h 7.26668 c 0.256903,0 0.440405,-0.09175 0.495455,-0.293603 -0.660607,-0.623907 -1.779969,-1.523067 -1.779969,-1.523067 l -0.972561,1.284514 h -4.734352 l -1.87172,-0.715657 v 5.046305 c 0,3.68839 -0.256903,7.762135 -2.385526,11.02847 l 0.220202,0.165152 c 3.376437,-3.009433 3.743441,-7.505232 3.761791,-10.863319 h 0.642257 c 0.330304,2.550678 0.91751,4.679302 1.81667,6.422571 -1.119362,1.651518 -2.605728,3.064483 -4.6059,4.147145 l 0.165152,0.220202 c 2.202024,-0.807408 3.853542,-1.90842 5.101355,-3.229635 0.89916,1.357915 2.018523,2.440577 3.394788,3.247986 0.146801,-0.84411 0.752358,-1.486367 1.651518,-1.77997 l 0.0367,-0.238552 c -1.541417,-0.568857 -2.899332,-1.376265 -4.037044,-2.495628 1.266164,-1.779969 2.000172,-3.835192 2.477277,-6.037216 0.422055,-0.0367 0.605557,-0.09175 0.734008,-0.275253 z m 13.783618,5.284858 c 0.256903,0 0.422055,-0.09175 0.477106,-0.293604 -0.587207,-0.587206 -1.578118,-1.394615 -1.578118,-1.394615 l -0.862459,1.156063 h -1.247814 v -2.202024 h 3.61499 c 0.256903,0 0.440405,-0.09175 0.477105,-0.293604 -0.623907,-0.605556 -1.688218,-1.468016 -1.688218,-1.468016 l -0.89916,1.229464 h -1.357915 c 0.752358,-0.807409 1.504716,-1.761619 1.963471,-2.495627 0.385355,0.0367 0.605557,-0.110102 0.678958,-0.330304 L 70.347193,25.52209 h 2.238724 c 0.256903,0 0.440405,-0.09175 0.495456,-0.293603 -0.623907,-0.605557 -1.633168,-1.412966 -1.633168,-1.412966 l -0.89916,1.174413 h -1.468016 c 1.045961,-0.165152 1.412965,-2.110273 -1.77997,-2.75253 l -0.183502,0.110101 c 0.495456,0.587207 1.009261,1.559767 1.119363,2.367176 0.201852,0.165152 0.403704,0.238553 0.568856,0.275253 H 64.58523 l 0.146801,0.532156 h 1.321215 l -0.165152,0.0734 c 0.422055,0.807409 0.89916,2.018522 0.91751,2.991082 1.229463,1.229464 2.78923,-1.321214 -0.678957,-3.064483 h 4.037044 c -0.201852,1.027611 -0.568857,2.403876 -0.91751,3.468188 h -4.936204 l 0.146801,0.532156 h 3.449838 v 2.202024 H 64.60358 l 0.146802,0.532156 h 3.156234 v 1.376265 l -1.79832,-0.770709 c -0.238552,1.431316 -0.880809,3.578289 -1.779969,5.009605 l 0.201852,0.183502 c 1.376265,-1.101012 2.385526,-2.75253 2.991083,-4.037044 0.165152,0.01835 0.293603,0.01835 0.385354,0 v 5.321558 h 0.293603 c 0.844109,0 1.376265,-0.330304 1.376265,-0.440405 v -6.642772 z m -2.972732,0.93586 c 0.568856,0.880809 1.137712,2.202024 1.137712,3.321386 1.321215,1.247814 2.844281,-1.614818 -0.93586,-3.431487 z m 8.826446,-4.440749 h -3.247985 v -3.816841 c 1.724919,-0.238553 3.541589,-0.660608 4.734352,-1.045962 0.495455,0.165152 0.825759,0.128451 1.009261,-0.05505 L 79.22869,22.310805 c -0.807409,0.605556 -2.293775,1.468016 -3.68839,2.091923 l -1.835021,-0.623907 v 6.110617 c 0,3.303036 -0.275253,6.624422 -2.495627,9.230151 l 0.238553,0.220202 c 3.633339,-2.440577 3.945293,-6.220718 3.945293,-9.413653 v -0.642257 h 2.183674 v 10.07426 h 0.293603 c 0.862459,0 1.412965,-0.403704 1.412965,-0.513805 v -9.560455 h 1.79832 c 0.256903,0 0.458755,-0.09175 0.495456,-0.293603 -0.715658,-0.660607 -1.890071,-1.633168 -1.890071,-1.633168 z"
         id="text7"
         aria-label="板新" />
      <path
         style="font-weight:bold;font-size:7.79071px;line-height:1.25;font-family:'Optima Bold';-inkscape-font-specification:'Optima Bold,  Bold';stroke-width:0.354123"
         d="M 48.100636,48.966026 V 43.62939 h 0.311628 1.846398 q 0.01558,0.01558 0.03116,0.01558 0.02337,0 0.03895,0 0.01558,0 0.03116,0 0.02337,0 0.03895,0 0.249303,0.0078 0.475234,0.07012 0.22593,0.05454 0.436279,0.163605 0.210349,0.101279 0.311629,0.311628 0.10907,0.202559 0.10907,0.514187 v 0.02337 0.02337 0.03116 0.02337 q 0,0.233721 -0.0857,0.444071 -0.0857,0.202558 -0.249303,0.389535 -0.163605,0.186977 -0.373954,0.303838 -0.210349,0.10907 -0.459652,0.155814 0.272675,0.04674 0.514187,0.132442 0.241512,0.0857 0.43628,0.210349 0.202558,0.124652 0.296047,0.366164 0.101279,0.233721 0.101279,0.576512 0,0.412908 -0.140233,0.716745 -0.132442,0.296047 -0.405117,0.475234 -0.264884,0.186977 -0.568722,0.288256 -0.296047,0.09349 -0.623256,0.101279 h -0.311629 q -0.0078,0 -0.02337,0 -0.0078,0 -0.01558,0 -0.01558,0 -0.02337,0 -0.0078,0 -0.02337,0 -0.02337,0 -0.04674,0 -0.01558,0 -0.03116,0 h -1.597095 v 0 z m 0.98942,-0.303837 h 0.428489 q 0.272675,0.01558 0.483024,-0.04675 0.21814,-0.07012 0.389535,-0.202558 0.163605,-0.132442 0.272675,-0.272675 0.10907,-0.148023 0.163605,-0.311628 0,-0.01558 0,-0.03116 0.0078,-0.01558 0.01558,-0.03895 0,-0.01558 0,-0.03116 0.0078,-0.01558 0.0078,-0.03116 0.0078,-0.03116 0.0078,-0.06233 0.0078,-0.03116 0.0078,-0.06233 0,-0.389535 -0.124652,-0.646629 -0.11686,-0.264884 -0.366163,-0.389535 -0.210349,-0.10907 -0.529768,-0.171396 -0.319419,-0.06233 -0.755699,-0.07012 v 2.368376 z m 0,-2.703377 h 0.179186 q 0.342791,0.01558 0.607676,-0.04674 0.264884,-0.07012 0.451861,-0.202558 0.179186,-0.132443 0.280465,-0.32721 0.10907,-0.194768 0.132442,-0.451861 v -0.03116 l 0.0078,-0.02337 v -0.01558 -0.02337 q 0,-0.21814 -0.09349,-0.389535 -0.09349,-0.171396 -0.280466,-0.280466 -0.186977,-0.10907 -0.405117,-0.163605 -0.210349,-0.05454 -0.451861,-0.05454 l -0.428489,-0.01558 v 2.025584 z m 3.435698,3.007214 2.454073,-5.461287 h 0.311629 0.179186 l 2.399539,5.461287 h -0.311629 q -0.02337,0 -0.05454,0 -0.02337,0 -0.05453,0 -0.03116,0 -0.06233,0 -0.02337,0 -0.06233,0 -0.01558,0 -0.03895,0 -0.01558,0 -0.03116,-0.0078 -0.01558,0 -0.03895,0 -0.01558,0 -0.03116,0 -0.01558,0.0078 -0.03895,0.0078 -0.01558,0 -0.03116,0 -0.01558,0 -0.03116,0 -0.01558,0 -0.02337,0 -0.01558,0 -0.03116,0 -0.0078,0 -0.02337,0 H 56.693784 L 55.836805,46.81579 h -1.589304 l -0.794653,2.150236 H 53.14122 q -0.01558,0 -0.03895,0 -0.01558,0 -0.03116,0 l -0.03895,-0.0078 q -0.0078,0.0078 -0.02337,0.0078 -0.01558,0 -0.02337,0 -0.01558,0 -0.03116,0 -0.0078,0 -0.02337,0 h -0.311629 q -0.02337,0 -0.04674,0 -0.02337,0 -0.04674,0 v 0 z m 1.908724,-2.516399 h 1.277676 l -0.638838,-1.526979 -0.638838,1.526979 z m 4.284887,2.516399 v -5.398962 h 0.311629 0.373954 l 3.427912,3.770704 v -3.770704 h 0.311629 q 0.01558,0.02337 0.03895,0.03116 0.02337,0.0078 0.04674,0.01558 0.03116,-0.0078 0.05453,-0.01558 0.02337,-0.0078 0.03895,-0.01558 l 0.311628,-0.0078 v 5.391171 h -0.311628 -0.303838 l -3.498029,-3.887564 v 3.887564 H 59.21018 q -0.0078,0 -0.01558,0 -0.0078,0 -0.01558,0 -0.01558,0 -0.02337,0 -0.0078,-0.0078 -0.01558,-0.0078 -0.01558,0 -0.03116,0 -0.0078,0 -0.02337,0.0078 -0.01558,0 -0.03116,0 -0.0078,0 -0.02337,0 h -0.311629 v 0 z m 7.743963,-2.695585 -1.659421,-2.641051 h 0.311628 q 0.04674,0.02337 0.09349,0.03895 0.05454,0.0078 0.10907,0.01558 0.0078,0 0.01558,0 0.0078,0 0.01558,0 0.0078,0 0.01558,0.0078 0.0078,0 0.01558,0 0.0078,0 0.01558,0 0.0078,0 0.02337,-0.0078 0.0078,0 0.01558,0 0.0078,0 0.01558,0 0.06233,-0.0078 0.10907,-0.01558 0.05454,-0.01558 0.101279,-0.02337 l 0.311628,-0.0078 1.075118,1.768491 1.129653,-1.776282 h 0.311629 q 0.03116,0.01558 0.05454,0.03116 0.02337,0.0078 0.04674,0.01558 0.03895,-0.0078 0.07012,-0.01558 0.03895,-0.0078 0.07012,-0.01558 l 0.311628,-0.0078 -1.659421,2.383957 1.846398,2.944888 h -0.311628 q -0.05454,0 -0.116861,0 -0.05454,-0.0078 -0.116861,-0.01558 -0.0078,0 -0.01558,0 -0.0078,0 -0.01558,-0.0078 -0.01558,0 -0.02337,0 -0.0078,0 -0.01558,0 -0.0078,0 -0.01558,0 -0.0078,0 -0.01558,0 -0.01558,0.0078 -0.02337,0.0078 -0.0078,0 -0.01558,0 -0.05454,0.0078 -0.116861,0.01558 -0.05454,0 -0.116861,0 h -0.311628 l -1.199769,-2.119073 -1.191979,2.119073 h -0.311629 -0.03895 l -0.03116,-0.01558 q -0.0078,0.0078 -0.01558,0.0078 -0.0078,0 -0.02337,-0.0078 -0.0078,0 -0.01558,0 -0.0078,0 -0.02337,0 0,0 0,0 0,0 0,0 -0.0078,0 -0.0078,0 0,0 0,0 -0.04674,0.0078 -0.101279,0.01558 -0.04674,0 -0.10907,0 H 64.61693 l 1.846398,-2.695585 v 0 z m 4.051164,-2.703377 q 0.03895,0.02337 0.07012,0.03895 0.03895,0.0078 0.0857,0.01558 0.0078,0 0.0078,0 0.0078,0 0.01558,0 0.0078,0 0.0078,0 0.0078,0 0.01558,0 0.04674,-0.0078 0.0857,-0.01558 0.04674,-0.01558 0.07791,-0.02337 l 0.311628,-0.0078 v 5.391171 h -0.311628 q -0.03116,0 -0.07791,0 -0.03895,-0.0078 -0.07791,-0.01558 -0.0078,0 -0.01558,0 0,0 -0.0078,0 -0.0078,0 -0.01558,0 -0.0078,0 -0.01558,0 -0.04674,0.0078 -0.0857,0.01558 -0.03116,0 -0.07012,0 h -0.311628 v -5.398962 h 0.311628 v 0 z m 2.150236,5.398962 v -5.398962 h 0.311629 0.373954 l 3.427912,3.770704 v -3.770704 h 0.311629 q 0.01558,0.02337 0.03895,0.03116 0.02337,0.0078 0.04674,0.01558 0.03116,-0.0078 0.05454,-0.01558 0.02337,-0.0078 0.03895,-0.01558 l 0.311628,-0.0078 v 5.391171 H 77.269038 76.9652 l -3.498028,-3.887564 v 3.887564 h -0.311629 q -0.0078,0 -0.01558,0 -0.0078,0 -0.01558,0 -0.01558,0 -0.02337,0 -0.0078,-0.0078 -0.01558,-0.0078 -0.01558,0 -0.03116,0 -0.0078,0 -0.02337,0.0078 -0.01558,0 -0.03116,0 -0.0078,0 -0.02337,0 h -0.311629 v 0 z"
         id="text8"
         aria-label="BANXIN" />
    </g>
  </g>
</svg>
