<?xml version="1.0" encoding="UTF-8" standalone="no"?>
<!-- Created with Inkscape (http://www.inkscape.org/) -->

<svg
   width="500"
   height="250"
   viewBox="0 0 132.29166 66.145833"
   version="1.1"
   id="svg1"
   inkscape:version="1.3.2 (091e20e, 2023-11-25, custom)"
   sodipodi:docname="y17.svg"
   xmlns:inkscape="http://www.inkscape.org/namespaces/inkscape"
   xmlns:sodipodi="http://sodipodi.sourceforge.net/DTD/sodipodi-0.dtd"
   xmlns="http://www.w3.org/2000/svg"
   xmlns:svg="http://www.w3.org/2000/svg">
  <sodipodi:namedview
     id="namedview1"
     pagecolor="#9e652e"
     bordercolor="#ffffff"
     borderopacity="1"
     inkscape:showpageshadow="0"
     inkscape:pageopacity="0"
     inkscape:pagecheckerboard="false"
     inkscape:deskcolor="#d1d1d1"
     inkscape:document-units="mm"
     inkscape:zoom="2.0208096"
     inkscape:cx="276.12695"
     inkscape:cy="127.17675"
     inkscape:window-width="1920"
     inkscape:window-height="1009"
     inkscape:window-x="1912"
     inkscape:window-y="-8"
     inkscape:window-maximized="1"
     inkscape:current-layer="layer1" />
  <defs
     id="defs1">
    <rect
       x="157.85752"
       y="62.351248"
       width="329.07603"
       height="135.09437"
       id="rect4" />
  </defs>
  <g
     inkscape:label="Layer 1"
     inkscape:groupmode="layer"
     id="layer1">
    <path
       id="rect5"
       style="fill:#ffffff;stroke-width:0.953294"
       d="M -2.5431316e-6,-1.2715658e-6 H 132.29167 V 66.145835 H -2.5431316e-6 Z" />
    <g
       id="g1"
       transform="matrix(1.121508,0,0,1.121508,2.5473675,-3.0133416)">
      <path
         id="rect6"
         style="fill:none;stroke:#000000;stroke-width:0.575409"
         d="m 9.3009131,19.849001 h 5.7010479 c 1.810115,0 3.267355,1.45724 3.267355,3.267355 v 9.524719 c 0,1.810115 -1.45724,3.267355 -3.267355,3.267355 H 9.3009131 c -1.8101145,0 -3.2673547,-1.45724 -3.2673547,-3.267355 v -9.524719 c 0,-1.810115 1.4572402,-3.267355 3.2673547,-3.267355 z" />
      <path
         style="font-weight:bold;font-size:5.82083px;line-height:1.25;font-family:'Optima Bold';-inkscape-font-specification:'Optima Bold,  Bold';stroke-width:0.264583"
         d="m 11.768055,25.2551 -1.420282,-2.293407 h 0.232833 q 0.04657,0.01746 0.09313,0.0291 0.05239,0.0058 0.09313,0.01164 0.01164,0 0.01746,0 0.01164,0 0.01746,0 0,0 0,0 0.0058,0 0.0058,0 0,0 0,0 0.0058,0 0.0058,0 0.0291,0 0.05239,0 0.0291,0 0.05239,-0.0058 0.0291,-0.0058 0.05821,-0.01164 0.0291,-0.0058 0.05821,-0.01164 l 0.232833,-0.0058 0.98372,1.711324 0.937154,-1.717145 h 0.232833 q 0.0291,0.01746 0.05821,0.0291 0.03492,0.0058 0.06403,0.01164 0.0058,0 0.01164,0 0.01164,0 0.01746,0 0.0058,0 0.01164,0 0.01164,-0.0058 0.01746,-0.0058 0.02328,-0.0058 0.04657,-0.01164 0.02328,-0.0058 0.04657,-0.01164 l 0.232833,-0.0058 q -0.03492,0.05239 -0.06985,0.09895 -0.0291,0.04657 -0.05821,0.09313 -0.03492,0.04657 -0.06985,0.09313 -0.0291,0.04657 -0.05821,0.09313 -0.03492,0.04657 -0.06985,0.09895 -0.0291,0.04657 -0.05821,0.09313 -0.03493,0.04657 -0.06985,0.09895 -0.0291,0.04657 -0.05821,0.09313 -0.128058,0.192088 -0.244475,0.378354 -0.116416,0.186267 -0.232833,0.372533 -0.110596,0.186267 -0.20955,0.360892 -0.09895,0.174625 -0.180445,0.331787 v 1.775353 h -0.232834 q -0.03492,0 -0.06985,0 -0.0291,-0.0058 -0.05821,-0.01164 0,0 -0.0058,0 0,0 0,0 0,0 -0.0058,0 0,0 0,0 -0.0058,0 -0.01164,0 0,0 -0.0058,0 -0.03493,0.0058 -0.07567,0.01164 -0.03493,0 -0.08149,0 h -0.232834 v -1.693861 0 z"
         id="text6"
         aria-label="Y" />
      <path
         style="font-weight:bold;font-size:5.82083px;line-height:1.25;font-family:'Optima Bold';-inkscape-font-specification:'Optima Bold,  Bold';stroke-width:0.264583"
         d="m 9.3516163,29.278575 q 0.1688041,-0.07567 0.3317873,-0.151341 0.1688041,-0.07567 0.3317874,-0.151342 0.162983,-0.06985 0.291041,-0.1397 0.133879,-0.06985 0.238654,-0.1397 l 0.232834,-0.0058 0.1397,0.04075 v 3.987269 h -0.232834 q -0.03492,-0.0058 -0.06403,-0.01746 -0.0291,-0.0058 -0.05821,-0.01164 -0.03492,0.0058 -0.06985,0.01164 -0.03493,0.01164 -0.08149,0.01746 H 10.178174 V 29.278575 L 9.7707161,29.511409 H 9.5378829 q -0.00582,0 -0.017462,-0.0058 -0.00582,-0.01164 -0.017463,-0.0291 -0.00582,-0.01164 -0.011642,-0.01746 -0.00582,-0.01164 -0.00582,-0.01746 -0.00582,-0.01164 -0.011642,-0.01746 -0.00582,-0.01164 -0.011642,-0.01746 -0.00582,-0.01164 -0.011642,-0.01746 -0.00582,-0.0058 -0.011642,-0.01746 -0.011642,-0.0058 -0.017462,-0.01164 -0.00582,-0.01164 -0.011642,-0.01746 -0.011642,-0.01746 -0.029104,-0.0291 -0.011642,-0.01746 -0.029104,-0.02328 v -0.01164 z m 3.5390697,-0.500591 h 2.566986 v 0.227012 q -0.128058,0.215371 -0.261937,0.436563 -0.128058,0.21537 -0.261938,0.436562 -0.06403,0.110596 -0.133879,0.227012 -0.06403,0.110596 -0.128058,0.221192 -0.06985,0.116416 -0.1397,0.227012 -0.06403,0.110596 -0.128058,0.227012 -0.128058,0.215371 -0.256117,0.442384 -0.122237,0.221191 -0.244474,0.442383 -0.06403,0.110595 -0.128059,0.227012 -0.05821,0.110596 -0.122237,0.221191 -0.05821,0.116417 -0.122238,0.227013 -0.05821,0.110596 -0.116416,0.227012 -0.0058,0.01746 -0.01746,0.03493 -0.0058,0.01164 -0.01746,0.02328 -0.0058,0.0058 -0.01164,0.01746 0,0.0058 0,0.01164 -0.0058,0.0058 -0.01164,0.01164 0,0.0058 -0.0058,0.0058 h -0.232833 q -0.03492,0 -0.06985,0 -0.0291,0 -0.05821,0 -0.0291,0 -0.05821,0 -0.02328,0 -0.05239,0 -0.02328,0 -0.05239,0 -0.02328,0 -0.05239,0 -0.02328,0 -0.05821,0 -0.0291,0 -0.05821,0 l 2.054753,-3.428469 -1.82192,0.08149 h -0.232833 q 0.0058,-0.0058 0.0058,-0.01746 0.0058,-0.01746 0.01164,-0.03493 0,-0.01746 0,-0.03492 0.0058,-0.01746 0.01164,-0.03492 0,-0.01164 0,-0.01746 0,-0.0058 0,-0.01746 0,-0.0058 0,-0.01164 0,-0.01164 0,-0.01746 0,-0.01164 0,-0.01746 0,-0.01164 0.0058,-0.01746 0,-0.01164 0,-0.01746 0,-0.01164 0,-0.01746 0,-0.03493 -0.0058,-0.06985 0,-0.03492 -0.0058,-0.06985 -0.0058,-0.03493 -0.01164,-0.06985 0,-0.03493 -0.01164,-0.06985 v -0.01164 h 0.232833 z"
         id="text6-8"
         aria-label="17" />
    </g>
    <g
       id="g2"
       transform="translate(-16.649559,-2.6369997)">
      <path
         style="font-weight:600;font-size:18.3502px;line-height:1.25;font-family:'Noto Serif TC';-inkscape-font-specification:'Noto Serif TC Semi-Bold';letter-spacing:1.96609px;stroke-width:0.327681"
         d="m 52.238382,32.256614 c 0.256903,0 0.422055,-0.09175 0.477106,-0.293604 -0.587207,-0.587206 -1.578118,-1.394615 -1.578118,-1.394615 l -0.862459,1.156063 h -1.247814 v -2.202024 h 3.61499 c 0.256903,0 0.440405,-0.09175 0.477105,-0.293604 -0.623907,-0.605556 -1.688218,-1.468016 -1.688218,-1.468016 l -0.89916,1.229464 h -1.357915 c 0.752358,-0.807409 1.504716,-1.761619 1.963471,-2.495627 0.385355,0.0367 0.605557,-0.110102 0.678958,-0.330304 L 49.797806,25.52209 h 2.238724 c 0.256903,0 0.440405,-0.09175 0.495456,-0.293603 -0.623907,-0.605557 -1.633168,-1.412966 -1.633168,-1.412966 l -0.89916,1.174413 h -1.468016 c 1.045961,-0.165152 1.412965,-2.110273 -1.77997,-2.75253 l -0.183502,0.110101 c 0.495456,0.587207 1.009261,1.559767 1.119363,2.367176 0.201852,0.165152 0.403704,0.238553 0.568856,0.275253 h -4.220546 l 0.146801,0.532156 h 1.321215 l -0.165152,0.0734 c 0.422055,0.807409 0.89916,2.018522 0.91751,2.991082 1.229463,1.229464 2.789231,-1.321214 -0.678957,-3.064483 h 4.037044 c -0.201852,1.027611 -0.568856,2.403876 -0.91751,3.468188 H 43.76059 l 0.146801,0.532156 h 3.449838 v 2.202024 h -3.303036 l 0.146802,0.532156 h 3.156234 v 1.376265 l -1.79832,-0.770709 c -0.238552,1.431316 -0.880809,3.578289 -1.779969,5.009605 l 0.201852,0.183502 c 1.376265,-1.101012 2.385526,-2.75253 2.991083,-4.037044 0.165152,0.01835 0.293603,0.01835 0.385354,0 v 5.321558 h 0.293603 c 0.84411,0 1.376265,-0.330304 1.376265,-0.440405 v -6.642772 z m -2.972732,0.93586 c 0.568856,0.880809 1.137712,2.202024 1.137712,3.321386 1.321215,1.247814 2.844281,-1.614818 -0.93586,-3.431487 z m 8.826446,-4.440749 h -3.247985 v -3.816841 c 1.724919,-0.238553 3.541589,-0.660608 4.734352,-1.045962 0.495455,0.165152 0.825759,0.128451 1.009261,-0.05505 l -1.908421,-1.523066 c -0.807409,0.605556 -2.293775,1.468016 -3.68839,2.091923 l -1.835021,-0.623907 v 6.110617 c 0,3.303036 -0.275253,6.624422 -2.495627,9.230151 l 0.238553,0.220202 c 3.63334,-2.440577 3.945293,-6.220718 3.945293,-9.413653 v -0.642257 h 2.183674 v 10.07426 h 0.293603 c 0.862459,0 1.412965,-0.403704 1.412965,-0.513805 v -9.560455 h 1.79832 c 0.256903,0 0.458755,-0.09175 0.495456,-0.293603 -0.715658,-0.660607 -1.890071,-1.633168 -1.890071,-1.633168 z m 20.573193,-0.220202 v 2.495627 h -2.440577 v -2.495627 z m -2.440577,5.578461 v -2.569028 h 2.440577 v 2.569028 z m -4.073744,0 v -2.569028 h 2.385526 v 2.569028 z m 2.385526,-5.578461 v 2.495627 h -2.385526 v -2.495627 z m -4.110445,3.853542 c -0.844109,0.275253 -1.688218,0.532156 -2.477277,0.789059 v -5.248158 h 2.220374 c 0.110101,0 0.220203,-0.01835 0.293603,-0.05505 v 4.660951 z m 10.477965,-6.551022 c 0.256902,0 0.440404,-0.09175 0.495455,-0.293603 -0.715658,-0.623907 -1.83502,-1.486366 -1.83502,-1.486366 l -0.05505,0.0734 c -0.01835,-0.568857 -0.623906,-1.284514 -2.403876,-1.394616 l -0.165152,0.128452 c 0.532156,0.422054 1.064312,1.174413 1.174413,1.85337 0.275253,0.183502 0.550506,0.238553 0.770709,0.183502 l -0.311954,0.403705 h -2.348826 v -2.220375 c 0.422055,-0.0734 0.550506,-0.238552 0.587207,-0.458755 l -2.275425,-0.238552 v 2.917682 h -4.807753 l 0.146802,0.532155 h 4.660951 v 2.165324 h -2.146973 l -1.926772,-0.789059 v 0.220203 c -0.550506,-0.605557 -1.321214,-1.376265 -1.321214,-1.376265 l -0.862459,1.339564 h -0.330304 v -4.037044 c 0.495455,-0.0734 0.642257,-0.256903 0.678957,-0.513805 L 66.260554,22.604408 V 27.39381 H 64.15028 l 0.146802,0.532156 h 1.963472 v 5.761963 c -1.082662,0.311954 -1.963472,0.550506 -2.477278,0.678958 l 0.86246,2.110273 c 0.183502,-0.05505 0.348654,-0.256903 0.422054,-0.495456 2.422227,-1.412965 4.220547,-2.569028 5.394959,-3.358086 v 6.734523 h 0.293604 c 0.862459,0 1.394615,-0.403704 1.394615,-0.532156 V 34.64214 h 2.385526 v 4.440748 h 0.348654 c 0.587206,0 1.339564,-0.403704 1.339564,-0.605556 V 34.64214 h 2.440577 v 2.348825 c 0,0.238553 -0.0734,0.348654 -0.348654,0.348654 -0.293603,0 -1.504716,-0.09175 -1.504716,-0.09175 v 0.275253 c 0.642257,0.09175 0.972561,0.293603 1.156063,0.550506 0.183502,0.275253 0.238552,0.697308 0.275253,1.229464 1.926771,-0.183502 2.146973,-0.88081 2.146973,-2.110273 v -8.330992 c 0.385354,-0.0734 0.678957,-0.238552 0.807409,-0.385354 l -1.890071,-1.449666 -0.844109,0.972561 h -2.238725 v -2.165324 z m 7.030744,5.43166 v -3.137885 h 3.926943 c 0.05505,1.082662 0.183502,2.128624 0.403705,3.137885 z m 0,-7.156579 h 9.028299 v 3.486539 h -9.028299 z m 12.900192,10.881669 -0.2202,-0.0367 c -0.25691,0.678957 -0.58721,1.449666 -0.825762,1.83502 -0.165152,0.256903 -0.348654,0.311954 -0.734008,0.183502 -2.587378,-0.89916 -4.110445,-2.844281 -4.862803,-5.174756 h 6.220713 c 0.27526,0 0.45876,-0.09175 0.51381,-0.293604 -0.77071,-0.678957 -2.000172,-1.614817 -2.000172,-1.614817 l -1.082661,1.376265 H 94.027025 C 93.751772,30.256442 93.62332,29.21048 93.58662,28.127818 h 3.376437 v 0.972561 h 0.311953 c 0.568857,0 1.431316,-0.385354 1.449666,-0.513806 v -4.183845 c 0.385354,-0.0734 0.642257,-0.220203 0.770709,-0.367004 l -1.83502,-1.412966 -0.88081,0.954211 H 88.173311 L 86.191489,22.78791 v 13.7443 c 0,0.477106 -0.09175,0.623907 -0.715658,0.972561 l 1.009261,1.87172 c 0.165152,-0.09175 0.330304,-0.238552 0.477106,-0.458755 2.660779,-1.394615 4.862803,-2.715829 6.147317,-3.468188 l -0.0734,-0.238552 c -1.83502,0.587206 -3.67004,1.174413 -5.101356,1.596467 v -5.009604 h 4.459099 c 0.789059,3.027783 2.569028,5.54176 5.982165,6.862975 1.119363,0.440404 2.348828,0.660607 2.752528,-0.09175 0.2202,-0.385355 0.0917,-0.715658 -0.5505,-1.266164 z m 17.69221,2.991083 h -4.36735 v -5.450009 h 5.52342 c 0.2569,0 0.45875,-0.09175 0.49545,-0.293604 -0.78906,-0.678957 -2.07357,-1.633167 -2.07357,-1.633167 l -1.13771,1.394615 h -2.80759 V 27.33876 h 6.11062 c 0.27525,0 0.45876,-0.09175 0.51381,-0.293603 -0.82576,-0.715658 -2.07358,-1.614818 -2.07358,-1.614818 l -1.11936,1.376265 h -3.43149 v -3.63334 c 0.47711,-0.0734 0.62391,-0.256903 0.66061,-0.532156 l -2.55068,-0.256902 v 4.422398 h -3.33973 c 0.45875,-0.844109 0.88081,-1.743269 1.24781,-2.69748 0.42206,0.01835 0.64226,-0.146801 0.71566,-0.367004 l -2.58738,-0.789058 c -0.73401,3.303036 -2.22037,6.551021 -3.70674,8.606244 l 0.23855,0.165152 c 1.43132,-1.101012 2.71583,-2.569028 3.79849,-4.385698 h 3.63334 v 4.660951 h -5.39495 l 0.1468,0.532156 h 5.24815 v 5.450009 h -7.52358 l 0.16515,0.532156 h 16.40508 c 0.27526,0 0.45876,-0.09175 0.51381,-0.293603 -0.80741,-0.715658 -2.12862,-1.706569 -2.12862,-1.706569 z"
         id="text7"
         aria-label="新埔民生" />
      <path
         style="font-weight:bold;font-size:7.79071px;line-height:1.25;font-family:'Optima Bold';-inkscape-font-specification:'Optima Bold,  Bold';stroke-width:0.354123"
         d="M 49.439465,46.270441 47.780044,43.62939 h 0.311628 q 0.04674,0.02337 0.09349,0.03895 0.05454,0.0078 0.10907,0.01558 0.0078,0 0.01558,0 0.0078,0 0.01558,0 0.0078,0 0.01558,0.0078 0.0078,0 0.01558,0 0.0078,0 0.01558,0 0.0078,0 0.02337,-0.0078 0.0078,0 0.01558,0 0.0078,0 0.01558,0 0.06233,-0.0078 0.10907,-0.01558 0.05454,-0.01558 0.101279,-0.02337 l 0.311628,-0.0078 1.075118,1.768491 1.129653,-1.776282 h 0.311629 q 0.03116,0.01558 0.05454,0.03116 0.02337,0.0078 0.04674,0.01558 0.03895,-0.0078 0.07012,-0.01558 0.03895,-0.0078 0.07012,-0.01558 l 0.311628,-0.0078 -1.659421,2.383957 1.846398,2.944888 h -0.311628 q -0.05453,0 -0.116861,0 -0.05453,-0.0078 -0.116861,-0.01558 -0.0078,0 -0.01558,0 -0.0078,0 -0.01558,-0.0078 -0.01558,0 -0.02337,0 -0.0078,0 -0.01558,0 -0.0078,0 -0.01558,0 -0.0078,0 -0.01558,0 -0.01558,0.0078 -0.02337,0.0078 -0.0078,0 -0.01558,0 -0.05454,0.0078 -0.116861,0.01558 -0.05454,0 -0.116861,0 h -0.311628 l -1.199769,-2.119073 -1.191979,2.119073 h -0.311628 -0.03895 l -0.03116,-0.01558 q -0.0078,0.0078 -0.01558,0.0078 -0.0078,0 -0.02337,-0.0078 -0.0078,0 -0.01558,0 -0.0078,0 -0.02337,0 0,0 0,0 0,0 0,0 -0.0078,0 -0.0078,0 0,0 0,0 -0.04674,0.0078 -0.101279,0.01558 -0.04674,0 -0.10907,0 h -0.311628 l 1.846398,-2.695585 v 0 z m 4.051164,-2.703377 q 0.03895,0.02337 0.07012,0.03895 0.03895,0.0078 0.0857,0.01558 0.0078,0 0.0078,0 0.0078,0 0.01558,0 0.0078,0 0.0078,0 0.0078,0 0.01558,0 0.04675,-0.0078 0.0857,-0.01558 0.04674,-0.01558 0.07791,-0.02337 l 0.311629,-0.0078 v 5.391171 h -0.311629 q -0.03116,0 -0.07791,0 -0.03895,-0.0078 -0.07791,-0.01558 -0.0078,0 -0.01558,0 0,0 -0.0078,0 -0.0078,0 -0.01558,0 -0.0078,0 -0.01558,0 -0.04674,0.0078 -0.0857,0.01558 -0.03116,0 -0.07012,0 h -0.311628 v -5.398962 h 0.311628 v 0 z m 2.150236,5.398962 v -5.398962 h 0.311628 0.373954 l 3.427912,3.770704 v -3.770704 h 0.311629 q 0.01558,0.02337 0.03895,0.03116 0.02337,0.0078 0.04675,0.01558 0.03116,-0.0078 0.05454,-0.01558 0.02337,-0.0078 0.03895,-0.01558 l 0.311629,-0.0078 v 5.391171 h -0.311629 -0.303837 l -3.498029,-3.887564 v 3.887564 h -0.311629 q -0.0078,0 -0.01558,0 -0.0078,0 -0.01558,0 -0.01558,0 -0.02337,0 -0.0078,-0.0078 -0.01558,-0.0078 -0.01558,0 -0.03116,0 -0.0078,0 -0.02337,0.0078 -0.01558,0 -0.03116,0 -0.0078,0 -0.02337,0 h -0.311628 v 0 z m 6.520822,-5.398962 h 1.963259 q 0.389535,0.01558 0.677791,0.10128 0.296047,0.07791 0.483024,0.233721 0.186977,0.155814 0.280466,0.389535 0.09349,0.225931 0.09349,0.521978 v 0.02337 l 0.0078,0.03116 v 0.03116 0.03116 q 0,0.358372 -0.11686,0.615466 -0.116861,0.257093 -0.342792,0.436279 -0.22593,0.171396 -0.475233,0.288257 -0.249303,0.11686 -0.521978,0.179186 -0.101279,0.02337 -0.202558,0.03895 -0.09349,0.0078 -0.186977,0.02337 -0.09349,0.0078 -0.186977,0.01558 -0.0857,0 -0.171396,0 l -0.311628,-0.0078 q -0.07012,0.0078 -0.132442,0.0078 -0.06233,0 -0.124652,-0.0078 v 2.446283 h -0.311628 q -0.04674,0 -0.09349,0 -0.03895,-0.0078 -0.07791,-0.01558 0,0 -0.0078,0 0,0 0,0 0,0 -0.0078,0 0,0 0,0 -0.0078,0 -0.01558,0 0,0 -0.0078,0 -0.04674,0.0078 -0.101279,0.01558 -0.04675,0 -0.10907,0 h -0.311629 v -5.398962 h 0.311629 v 0 z m 0.732326,2.578725 h 0.42849 q 0.280465,0.01558 0.498605,-0.07012 0.21814,-0.09349 0.373954,-0.264884 0.155814,-0.179187 0.241512,-0.373954 0.09349,-0.194768 0.116861,-0.412908 0,-0.0078 0,-0.01558 0,-0.0078 0.0078,-0.01558 0,-0.0078 0,-0.01558 0,-0.0078 0,-0.01558 0,-0.01558 0,-0.03116 0,-0.01558 0,-0.03116 0,-0.202559 -0.06232,-0.373954 -0.06233,-0.179187 -0.186977,-0.335001 -0.124652,-0.155814 -0.311629,-0.233721 -0.186977,-0.07791 -0.436279,-0.07791 l 0.311628,-0.0078 h -0.03116 -0.02337 l -0.03116,0.0078 h -0.311628 -0.03116 l -0.553141,-0.0078 v 2.274887 z m 3.747339,0.732327 v -3.311052 h 0.311628 q 0.05454,0.02337 0.10128,0.03895 0.05453,0.0078 0.101279,0.01558 0.02337,0 0.04674,0 0.02337,0 0.04674,-0.0078 0.03116,-0.0078 0.06233,-0.01558 0.03116,-0.0078 0.06233,-0.01558 l 0.311628,-0.0078 v 3.1864 q 0,0.54535 0.10907,0.927095 0.116861,0.373954 0.350582,0.599885 0.210349,0.202558 0.475233,0.319419 0.264884,0.10907 0.576513,0.124651 0.389535,-0.01558 0.670001,-0.140233 0.288256,-0.124651 0.459652,-0.342791 0.186977,-0.249303 0.288256,-0.599885 0.10907,-0.358372 0.132442,-0.818024 v -3.264308 h 0.311628 q 0.01558,0.01558 0.02337,0.02337 0.0078,0 0.02337,0.0078 0.0078,0.0078 0.01558,0.01558 0.01558,0 0.02337,0 0.01558,0 0.02337,0 0.01558,-0.0078 0.02337,-0.01558 0.01558,-0.0078 0.02337,-0.0078 0.01558,-0.0078 0.02337,-0.0078 l 0.311628,-0.0078 v 3.124075 q 0,0.545349 -0.132442,0.981629 -0.124651,0.428489 -0.381745,0.755699 -0.257093,0.335001 -0.693373,0.498605 -0.43628,0.155815 -1.059536,0.155815 h -0.311629 q -0.01558,0 -0.03895,0 -0.01558,0 -0.03116,0 -0.01558,0 -0.03895,0 -0.01558,0 -0.03116,0 -0.646629,0 -1.082908,-0.163605 -0.43628,-0.163605 -0.662211,-0.498606 -0.21814,-0.342791 -0.335,-0.724536 -0.10907,-0.381744 -0.10907,-0.810234 v -0.01558 z m 8.47629,2.08791 0.740118,-5.398962 h 0.311628 0.241512 l 1.994422,3.817448 2.048957,-3.817448 h 0.311628 0.249303 l 0.615466,5.398962 h -0.311629 q -0.04674,0 -0.09349,0 -0.04674,-0.0078 -0.0857,-0.01558 -0.01558,0 -0.03895,0 -0.01558,0 -0.03116,-0.0078 0,0 -0.0078,0.0078 0,0 -0.0078,0 -0.0078,0 -0.01558,0 0,0 0,0 -0.04674,0.0078 -0.101279,0.01558 -0.04675,0 -0.10907,0 h -0.311629 l -0.319419,-3.536982 -1.7607,3.412331 H 78.124856 78.000205 L 76.30183,45.49916 75.982411,48.966026 h -0.311628 q -0.02337,0 -0.05454,0 -0.02337,-0.0078 -0.05454,-0.01558 0,0 0,0 0,0 0,0 -0.0078,0 -0.01558,0 0,0 -0.0078,0 -0.0078,0.0078 -0.01558,0.0078 0,0 0,0 -0.02337,0.0078 -0.04674,0.0078 -0.02337,0 -0.04674,0 h -0.311629 v 0 z m 7.985479,-5.398962 q 0.03895,0.02337 0.07012,0.03895 0.03895,0.0078 0.0857,0.01558 0.0078,0 0.0078,0 0.0078,0 0.01558,0 0.0078,0 0.0078,0 0.0078,0 0.01558,0 0.04674,-0.0078 0.0857,-0.01558 0.04675,-0.01558 0.07791,-0.02337 l 0.311629,-0.0078 v 5.391171 h -0.311629 q -0.03116,0 -0.07791,0 -0.03895,-0.0078 -0.07791,-0.01558 -0.0078,0 -0.01558,0 0,0 -0.0078,0 -0.0078,0 -0.01558,0 -0.0078,0 -0.01558,0 -0.04674,0.0078 -0.0857,0.01558 -0.03116,0 -0.07012,0 h -0.311628 v -5.398962 h 0.311628 v 0 z m 2.150236,5.398962 v -5.398962 h 0.311629 0.373954 l 3.427912,3.770704 v -3.770704 h 0.311628 q 0.01558,0.02337 0.03895,0.03116 0.02337,0.0078 0.04674,0.01558 0.03116,-0.0078 0.05454,-0.01558 0.02337,-0.0078 0.03895,-0.01558 l 0.311628,-0.0078 v 5.391171 H 89.857667 89.553829 L 86.0558,45.078462 v 3.887564 h -0.311628 q -0.0078,0 -0.01558,0 -0.0078,0 -0.01558,0 -0.01558,0 -0.02337,0 -0.0078,-0.0078 -0.01558,-0.0078 -0.01558,0 -0.03116,0 -0.0078,0 -0.02337,0.0078 -0.01558,0 -0.03116,0 -0.0078,0 -0.02337,0 h -0.311629 v 0 z m 6.084544,-4.16803 q 0.04675,-0.335 0.186977,-0.576512 0.140233,-0.249303 0.358373,-0.405117 0.225931,-0.155814 0.459652,-0.241512 0.233721,-0.09349 0.490815,-0.116861 0.02337,0 0.04674,0 0.02337,0 0.04674,0 0.01558,0 0.02337,0 0.01558,0 0.03116,-0.0078 0.0078,0 0.02337,0 0.01558,0 0.02337,0 l 0.311629,-0.0078 q 0.194768,0.0078 0.373954,0.03895 0.179186,0.03116 0.350582,0.09349 0.163605,0.05454 0.280465,0.140233 0.116861,0.07791 0.186978,0.171395 -0.04675,0.04675 -0.07791,0.10128 -0.03116,0.04674 -0.05454,0.10907 -0.02337,0.06233 -0.04674,0.148023 -0.02337,0.07791 -0.04674,0.171396 l -0.0078,0.03116 -0.0078,0.04674 h -0.311629 l -0.124651,-0.0078 q -0.0078,-0.01558 -0.02337,-0.03895 -0.0078,-0.03116 -0.02337,-0.06233 -0.01558,-0.03895 -0.03895,-0.07012 -0.01558,-0.03895 -0.03895,-0.07012 -0.05454,-0.07791 -0.140232,-0.148023 -0.07791,-0.07012 -0.186977,-0.132442 -0.07791,-0.04675 -0.163605,-0.07791 -0.0857,-0.03116 -0.186977,-0.03895 -0.132442,0.01558 -0.257094,0.0857 -0.11686,0.07012 -0.22593,0.179186 -0.140233,0.140233 -0.21035,0.303838 -0.06233,0.163605 -0.06233,0.342791 0,0.01558 0,0.03895 0,0.01558 0,0.03116 0,0.0078 0,0.01558 0,0.0078 0.0078,0.01558 0,0.0078 0,0.01558 0,0.0078 0,0.01558 0.01558,0.101279 0.06233,0.210349 0.05454,0.101279 0.132442,0.210349 0.0857,0.10128 0.202559,0.194768 0.124651,0.0857 0.296047,0.163605 l 0.864768,0.350582 q 0.233722,0.10907 0.405117,0.249303 0.171396,0.140232 0.272675,0.311628 0.10907,0.171396 0.155814,0.358373 0.05454,0.179186 0.05454,0.366163 0,0.02337 0,0.04674 0,0.01558 0,0.03116 0,0.0078 0,0.01558 0,0.0078 0,0.01558 -0.0078,0.01558 -0.0078,0.02337 0,0.0078 0,0.01558 -0.03116,0.311628 -0.179187,0.592094 -0.140232,0.280465 -0.397326,0.537559 -0.257093,0.257093 -0.576512,0.381744 -0.311629,0.124652 -0.701164,0.124652 h -0.311629 -0.03895 -0.03116 q -0.01558,0 -0.03116,0 -0.01558,0 -0.03116,0 -0.01558,-0.0078 -0.03116,-0.0078 -0.01558,0 -0.03116,0 -0.01558,0 -0.03116,0 -0.01558,0 -0.03116,-0.0078 -0.02337,0 -0.03895,-0.0078 -0.01558,0 -0.03116,0 -0.148023,-0.02337 -0.296046,-0.07012 -0.140233,-0.03895 -0.280466,-0.09349 -0.140233,-0.06233 -0.249303,-0.124652 -0.101279,-0.07012 -0.186977,-0.140233 l -0.01558,-0.01558 -0.0078,-0.01558 q 0.03116,-0.07012 0.05454,-0.140233 0.02337,-0.07012 0.03116,-0.124651 0.0078,-0.03116 0.0078,-0.05454 0.0078,-0.03116 0.0078,-0.06233 0.0078,-0.02337 0.0078,-0.04674 0.0078,-0.03116 0.0078,-0.06233 0,-0.01558 0,-0.02337 0,-0.01558 0.0078,-0.03116 0,-0.01558 0,-0.03116 0,-0.01558 0,-0.03116 0,-0.03116 0,-0.06233 0,-0.03116 0,-0.06233 l 0.124652,-0.01558 h 0.311628 q 0.202559,0.311629 0.373954,0.490815 0.179187,0.179187 0.32721,0.225931 0.10907,0.03116 0.202559,0.05454 0.09349,0.02337 0.171395,0.03895 0.202559,-0.02337 0.350582,-0.101279 0.155814,-0.07791 0.264884,-0.210349 0.132442,-0.163605 0.194768,-0.342791 0.07012,-0.179187 0.07791,-0.373954 0,-0.155815 -0.04674,-0.296047 -0.03895,-0.148024 -0.124652,-0.288257 -0.07791,-0.140232 -0.210349,-0.241512 -0.124651,-0.101279 -0.296047,-0.163605 l -0.802443,-0.381744 q -0.342791,-0.148024 -0.545349,-0.319419 -0.194768,-0.171396 -0.257094,-0.358373 -0.05454,-0.186977 -0.0857,-0.381745 -0.03116,-0.194768 -0.03116,-0.397326 v -0.01558 z m 4.425125,4.16803 v -5.461287 h 0.311629 q 0.02337,0.01558 0.05453,0.03116 0.03116,0.0078 0.06233,0.01558 0.0078,0 0.01558,0.0078 0.01558,0 0.02337,0 0.0078,0 0.01558,0 0.01558,0 0.02337,0 0,0 0,0 0.0078,0 0.01558,0 0.0078,0 0.0078,0 0.0078,0 0.0078,0 0.03895,-0.0078 0.07012,-0.01558 0.03895,-0.01558 0.06233,-0.02337 l 0.311629,-0.0078 v 2.267097 q 0.10907,0.03116 0.280465,0.04674 0.171396,0.01558 0.405117,0.03116 0.210349,0.0078 0.428489,0.01558 0.225931,0.0078 0.451861,0.0078 0.202559,0 0.389536,0 0.194768,-0.0078 0.381745,-0.01558 0.22593,-0.01558 0.397326,-0.03116 0.171395,-0.01558 0.272675,-0.03895 v -2.290468 h 0.31163 q 0.008,0.01558 0.0156,0.02337 0.008,0 0.0156,0 0,0.0078 0.008,0.0078 0.008,0 0.0156,0 0.0156,0.0078 0.0312,0.0078 0.0156,0 0.0312,0 0.008,0 0.0156,0.0078 0.008,0 0.0156,0 0.008,0.0078 0.0156,0.0078 0.008,0 0.0156,0 0.008,0 0.008,0 0.008,0 0.0156,0 0.0389,-0.0078 0.0779,-0.01558 0.0468,-0.01558 0.0779,-0.02337 l 0.31163,-0.0078 v 5.453497 h -0.31163 q -0.0312,0 -0.0701,0 -0.0312,-0.0078 -0.0701,-0.01558 0,0 -0.008,0 0,0 0,0 0,0 -0.008,0 0,0 0,0 0,0 -0.008,0 0,0 -0.008,0 -0.0468,0.0078 -0.0935,0.01558 -0.0467,0 -0.0935,0 h -0.31163 v -2.695585 q -0.05454,0 -0.132442,0 -0.07012,-0.0078 -0.155815,-0.01558 -0.0857,0 -0.186977,0 -0.09349,-0.0078 -0.202558,-0.01558 -0.171396,-0.01558 -0.358373,-0.01558 -0.186977,-0.0078 -0.389535,-0.0078 -0.03895,0 -0.07791,0 -0.03895,0 -0.07012,0 -0.03895,0.0078 -0.07791,0.0078 -0.03116,0 -0.07012,0 -0.04674,0 -0.09349,0 -0.04674,0 -0.09349,0 -0.05454,0.0078 -0.101279,0.0078 -0.04675,0 -0.09349,0 -0.05453,0 -0.116861,0.0078 -0.05453,0 -0.10907,0 -0.06233,0.0078 -0.11686,0.01558 -0.05454,0 -0.116861,0 -0.116861,0.0078 -0.22593,0.01558 -0.10907,0 -0.21814,0.01558 v 2.680004 h -0.311629 q -0.04674,0 -0.0857,0 -0.03116,-0.0078 -0.07012,-0.01558 -0.04674,0.0078 -0.09349,0.01558 -0.04675,0 -0.10907,0 h -0.311629 v 0 z m 6.450704,0 V 43.62939 h 0.31163 2.82024 q -0.008,0.03895 -0.0156,0.07012 -0.008,0.02337 -0.0156,0.04675 0,0.0078 -0.008,0.02337 0,0.0078 0,0.01558 -0.008,0.01558 -0.008,0.02337 0,0.0078 0,0.02337 v 0.01558 0.03116 q 0,0.03895 0,0.07012 0,0.02337 0.008,0.05454 0,0.01558 0,0.03116 0.008,0.01558 0.0156,0.03116 0.008,0.02337 0.008,0.03895 0.008,0.01558 0.0156,0.03116 l -0.31163,-0.0078 q -0.11686,-0.01558 -0.23372,-0.03116 -0.11686,-0.01558 -0.2493,-0.02337 -0.12465,-0.0078 -0.2571,-0.0078 -0.12465,-0.0078 -0.25709,-0.0078 0,0 0,0 0,0 0,0 -0.008,0 -0.008,0 0,0 0,0 -0.0312,0.0078 -0.0623,0.0078 -0.0234,0 -0.0545,0 -0.0312,0 -0.0623,0 -0.0312,0 -0.0545,0 -0.0312,0 -0.0701,0 -0.0312,0 -0.0701,0 -0.0312,0.0078 -0.0701,0.0078 -0.0312,0 -0.0623,0 -0.0701,0 -0.14023,0 -0.0623,0 -0.12465,0 v 1.885352 h 0.85698 l 0.73232,-0.06233 h 0.31163 q -0.008,0.03895 -0.0234,0.07012 -0.008,0.02337 -0.0156,0.04674 -0.008,0.03116 -0.008,0.06233 0,0.02337 0,0.05454 0,0.01558 0,0.03116 0,0.01558 0,0.03116 0,0.02337 0,0.03895 0.008,0.01558 0.008,0.03116 0.008,0.03116 0.0156,0.07012 0.0156,0.03116 0.0234,0.07012 l -0.31163,-0.0078 -0.9193,-0.07012 h -0.67 v 2.212561 q 0.0545,0.01558 0.11686,0.02337 0.0623,0.0078 0.13244,0.0078 0.0623,0.0078 0.12465,0.0078 0.0623,0 0.13245,0 0.0389,0 0.0701,0 0.0312,0 0.0623,-0.0078 0.0312,0 0.0623,0 0.039,0 0.0701,0 0.15581,-0.0078 0.30384,-0.01558 0.14802,-0.0078 0.29604,-0.01558 0.14024,-0.01558 0.2571,-0.02337 0.11686,-0.01558 0.21035,-0.02337 l 0.31162,-0.0078 q -0.008,0.03895 -0.0234,0.07791 -0.008,0.03116 -0.0156,0.07012 -0.008,0.03116 -0.008,0.06233 0,0.03116 0,0.06233 0,0.03116 0,0.06233 0,0.03116 0.008,0.06233 0.008,0.03116 0.0156,0.05454 0.0156,0.02337 0.0234,0.03116 h -0.31162 -2.88257 v 0 z m 4.29269,0 v -5.398962 h 0.31163 0.37395 l 3.42792,3.770704 v -3.770704 h 0.31162 q 0.0156,0.02337 0.039,0.03116 0.0234,0.0078 0.0467,0.01558 0.0312,-0.0078 0.0545,-0.01558 0.0234,-0.0078 0.0389,-0.01558 l 0.31163,-0.0078 v 5.391171 h -0.31163 -0.30384 l -3.49803,-3.887564 v 3.887564 h -0.31162 q -0.008,0 -0.0156,0 -0.008,0 -0.0156,0 -0.0156,0 -0.0234,0 -0.008,-0.0078 -0.0156,-0.0078 -0.0156,0 -0.0312,0 -0.008,0 -0.0234,0.0078 -0.0156,0 -0.0312,0 -0.008,0 -0.0234,0 h -0.31163 v 0 z m 6.08454,-2.64105 q 0.0312,-0.615466 0.17919,-1.075118 0.15582,-0.459652 0.42849,-0.755699 0.27267,-0.296047 0.56872,-0.498606 0.30384,-0.202558 0.63105,-0.311628 0.17139,-0.06233 0.335,-0.101279 0.1714,-0.03895 0.335,-0.06233 0.16361,-0.02337 0.31163,-0.03895 0.15581,-0.01558 0.28046,-0.02337 l 0.31163,-0.0078 q 0.24931,0.0078 0.49861,0.03895 0.25709,0.02337 0.51419,0.07791 0.2493,0.05454 0.4986,0.155814 0.25709,0.09349 0.51419,0.225931 l -0.24931,0.66221 h -0.31162 q -0.039,-0.01558 -0.0857,-0.04674 -0.0468,-0.03895 -0.0935,-0.0857 -0.0467,-0.04674 -0.10128,-0.09349 -0.0467,-0.04674 -0.10907,-0.09349 -0.10907,-0.0857 -0.2493,-0.163605 -0.14023,-0.07791 -0.30384,-0.148023 -0.13244,-0.06233 -0.30384,-0.09349 -0.1636,-0.03895 -0.35837,-0.04674 -0.0389,0 -0.0857,0.0078 -0.0389,0 -0.0857,0.0078 -0.0779,0.0078 -0.1636,0.02337 -0.0779,0.01558 -0.16361,0.03895 -0.28825,0.07791 -0.56093,0.249303 -0.26488,0.163605 -0.51418,0.420698 -0.24152,0.257094 -0.38175,0.631048 -0.14023,0.373954 -0.17918,0.88035 v 0.02337 0.03116 0.03116 0.03116 q -0.008,0.576512 0.14802,1.043955 0.15581,0.467442 0.46744,0.825815 0.29605,0.335001 0.67,0.514187 0.38175,0.171396 0.84919,0.194768 0.15581,-0.0078 0.29605,-0.02337 0.14802,-0.02337 0.28825,-0.05454 0.17919,-0.03895 0.30384,-0.09349 0.13244,-0.06233 0.22593,-0.132442 v -2.041166 h 0.31163 q 0.0156,0.01558 0.0312,0.02337 0.0156,0 0.039,0.0078 0.0156,0.0078 0.0312,0.01558 0.0156,0 0.0312,0 0.008,0 0.008,0 0.008,0 0.0156,0 0.008,0.0078 0.008,0.0078 0.008,0 0.0156,0 0,0 0,0 0,0 0.008,0 0,0 0,0 0,0 0,0 0.0389,-0.0078 0.0857,-0.01558 0.0468,-0.01558 0.0935,-0.02337 l 0.31163,-0.0078 v 2.267096 l -0.0234,0.02337 -0.0234,0.0078 q -0.039,0.02337 -0.0935,0.03895 -0.0467,0.01558 -0.10128,0.03116 -0.0545,0.02337 -0.11686,0.03895 -0.0623,0.01558 -0.13244,0.03116 -0.14024,0.03116 -0.28047,0.05454 -0.14023,0.02337 -0.29605,0.03895 -0.14023,0.02337 -0.27267,0.03895 -0.12465,0.02337 -0.25709,0.03116 -0.12466,0.01558 -0.23373,0.02337 -0.10907,0.0078 -0.19476,0.0078 h -0.31163 q -0.0156,0 -0.0389,0 -0.0156,0 -0.0312,0 -0.0156,0 -0.0389,0 -0.0156,0 -0.0312,0 -0.66221,0 -1.18419,-0.179187 -0.52198,-0.179186 -0.91152,-0.560931 -0.38174,-0.373954 -0.57651,-0.872559 -0.19477,-0.506396 -0.19477,-1.137444 v -0.01558 z"
         id="text8"
         aria-label="XINPU MINSHENG" />
    </g>
  </g>
</svg>
