<?xml version="1.0" encoding="UTF-8" standalone="no"?>
<!-- Created with Inkscape (http://www.inkscape.org/) -->

<svg
   width="500"
   height="250"
   viewBox="0 0 132.29166 66.145833"
   version="1.1"
   id="svg1"
   inkscape:version="1.3.2 (091e20e, 2023-11-25, custom)"
   sodipodi:docname="y19.svg"
   xmlns:inkscape="http://www.inkscape.org/namespaces/inkscape"
   xmlns:sodipodi="http://sodipodi.sourceforge.net/DTD/sodipodi-0.dtd"
   xmlns="http://www.w3.org/2000/svg"
   xmlns:svg="http://www.w3.org/2000/svg">
  <sodipodi:namedview
     id="namedview1"
     pagecolor="#9e652e"
     bordercolor="#ffffff"
     borderopacity="1"
     inkscape:showpageshadow="0"
     inkscape:pageopacity="0"
     inkscape:pagecheckerboard="false"
     inkscape:deskcolor="#d1d1d1"
     inkscape:document-units="mm"
     inkscape:zoom="2.0208096"
     inkscape:cx="276.12695"
     inkscape:cy="127.17675"
     inkscape:window-width="1920"
     inkscape:window-height="1009"
     inkscape:window-x="1912"
     inkscape:window-y="-8"
     inkscape:window-maximized="1"
     inkscape:current-layer="layer1" />
  <defs
     id="defs1">
    <rect
       x="157.85752"
       y="62.351248"
       width="329.07603"
       height="135.09437"
       id="rect4" />
  </defs>
  <g
     inkscape:label="Layer 1"
     inkscape:groupmode="layer"
     id="layer1">
    <path
       id="rect5"
       style="fill:#ffffff;stroke-width:0.953294"
       d="M -2.5431316e-6,-1.2715658e-6 H 132.29167 V 66.145835 H -2.5431316e-6 Z" />
    <g
       id="g1"
       transform="matrix(1.121508,0,0,1.121508,22.126542,-3.0133416)">
      <path
         id="rect6"
         style="fill:none;stroke:#000000;stroke-width:0.575409"
         d="m 9.3009131,19.849001 h 5.7010479 c 1.810115,0 3.267355,1.45724 3.267355,3.267355 v 9.524719 c 0,1.810115 -1.45724,3.267355 -3.267355,3.267355 H 9.3009131 c -1.8101145,0 -3.2673547,-1.45724 -3.2673547,-3.267355 v -9.524719 c 0,-1.810115 1.4572402,-3.267355 3.2673547,-3.267355 z" />
      <path
         style="font-weight:bold;font-size:5.82083px;line-height:1.25;font-family:'Optima Bold';-inkscape-font-specification:'Optima Bold,  Bold';stroke-width:0.264583"
         d="m 11.768055,25.2551 -1.420282,-2.293407 h 0.232833 q 0.04657,0.01746 0.09313,0.0291 0.05239,0.0058 0.09313,0.01164 0.01164,0 0.01746,0 0.01164,0 0.01746,0 0,0 0,0 0.0058,0 0.0058,0 0,0 0,0 0.0058,0 0.0058,0 0.0291,0 0.05239,0 0.0291,0 0.05239,-0.0058 0.0291,-0.0058 0.05821,-0.01164 0.0291,-0.0058 0.05821,-0.01164 l 0.232833,-0.0058 0.98372,1.711324 0.937154,-1.717145 h 0.232833 q 0.0291,0.01746 0.05821,0.0291 0.03492,0.0058 0.06403,0.01164 0.0058,0 0.01164,0 0.01164,0 0.01746,0 0.0058,0 0.01164,0 0.01164,-0.0058 0.01746,-0.0058 0.02328,-0.0058 0.04657,-0.01164 0.02328,-0.0058 0.04657,-0.01164 l 0.232833,-0.0058 q -0.03492,0.05239 -0.06985,0.09895 -0.0291,0.04657 -0.05821,0.09313 -0.03492,0.04657 -0.06985,0.09313 -0.0291,0.04657 -0.05821,0.09313 -0.03492,0.04657 -0.06985,0.09895 -0.0291,0.04657 -0.05821,0.09313 -0.03493,0.04657 -0.06985,0.09895 -0.0291,0.04657 -0.05821,0.09313 -0.128058,0.192088 -0.244475,0.378354 -0.116416,0.186267 -0.232833,0.372533 -0.110596,0.186267 -0.20955,0.360892 -0.09895,0.174625 -0.180445,0.331787 v 1.775353 h -0.232834 q -0.03492,0 -0.06985,0 -0.0291,-0.0058 -0.05821,-0.01164 0,0 -0.0058,0 0,0 0,0 0,0 -0.0058,0 0,0 0,0 -0.0058,0 -0.01164,0 0,0 -0.0058,0 -0.03493,0.0058 -0.07567,0.01164 -0.03493,0 -0.08149,0 h -0.232834 v -1.693861 0 z"
         id="text6"
         aria-label="Y" />
      <path
         style="font-weight:bold;font-size:5.82083px;line-height:1.25;font-family:'Optima Bold';-inkscape-font-specification:'Optima Bold,  Bold';stroke-width:0.264583"
         d="m 9.3516163,29.278575 q 0.1688041,-0.07567 0.3317873,-0.151341 0.1688041,-0.07567 0.3317874,-0.151342 0.162983,-0.06985 0.291041,-0.1397 0.133879,-0.06985 0.238654,-0.1397 l 0.232834,-0.0058 0.1397,0.04075 v 3.987269 h -0.232834 q -0.03492,-0.0058 -0.06403,-0.01746 -0.0291,-0.0058 -0.05821,-0.01164 -0.03492,0.0058 -0.06985,0.01164 -0.03493,0.01164 -0.08149,0.01746 H 10.178174 V 29.278575 L 9.7707161,29.511409 H 9.5378829 q -0.00582,0 -0.017462,-0.0058 -0.00582,-0.01164 -0.017463,-0.0291 -0.00582,-0.01164 -0.011642,-0.01746 -0.00582,-0.01164 -0.00582,-0.01746 -0.00582,-0.01164 -0.011642,-0.01746 -0.00582,-0.01164 -0.011642,-0.01746 -0.00582,-0.01164 -0.011642,-0.01746 -0.00582,-0.0058 -0.011642,-0.01746 -0.011642,-0.0058 -0.017462,-0.01164 -0.00582,-0.01164 -0.011642,-0.01746 -0.011642,-0.01746 -0.029104,-0.0291 -0.011642,-0.01746 -0.029104,-0.02328 v -0.01164 z m 3.1665367,0.779992 q 0,-0.01746 0,-0.04075 0,-0.0291 0,-0.05239 0,-0.01164 0,-0.02328 0,-0.01746 0.0058,-0.03493 0,-0.01164 0,-0.02328 0.0058,-0.01746 0.0058,-0.02911 0.01746,-0.203729 0.09313,-0.384174 0.08149,-0.186267 0.221192,-0.34925 0.139699,-0.168804 0.389995,-0.250296 0.250296,-0.08149 0.617008,-0.08149 l 0.232833,-0.0058 q 0.256117,0.0058 0.442383,0.07567 0.192088,0.06985 0.320146,0.203729 0.133879,0.133879 0.221192,0.28522 0.09313,0.145521 0.14552,0.302683 0.0291,0.09313 0.05239,0.180446 0.02328,0.08731 0.0291,0.174625 0.01164,0.08731 0.01746,0.162983 0.0058,0.06985 0.0058,0.133879 v 0.01746 0.02328 0.0291 0.02328 q 0,0.552978 -0.110596,0.966257 -0.110595,0.407459 -0.331787,0.681038 -0.227012,0.267758 -0.471487,0.430741 -0.244475,0.162983 -0.512233,0.20955 -0.04075,0.01164 -0.08149,0.01164 -0.04075,0.0058 -0.08149,0.01164 -0.04075,0.0058 -0.08149,0.0058 -0.03492,0.0058 -0.06985,0.0058 h -0.232833 q -0.04657,0 -0.09313,-0.0058 -0.04657,0 -0.09313,-0.0058 -0.04657,-0.0058 -0.09313,-0.01746 -0.04075,-0.0058 -0.08731,-0.01746 l -0.186267,-0.366712 h 0.232833 0.1397 q 0.05821,0.06403 0.116417,0.104775 0.05821,0.03493 0.116416,0.05821 0.0291,0.01164 0.05821,0.02328 0.03493,0.0058 0.05821,0.01164 0.186267,-0.0291 0.355071,-0.162983 0.168804,-0.1397 0.314324,-0.372533 0.145521,-0.238654 0.232834,-0.500592 0.08731,-0.261937 0.110595,-0.541337 -0.04074,0.04075 -0.09313,0.06985 -0.04657,0.02328 -0.09313,0.04657 -0.05821,0.02328 -0.122238,0.04075 -0.05821,0.01746 -0.116416,0.0291 -0.05821,0.0058 -0.110596,0.01164 -0.04657,0 -0.09313,0 l -0.232833,-0.0058 q -0.238654,0.0058 -0.442384,-0.05239 -0.203729,-0.06403 -0.372533,-0.192087 -0.162983,-0.128059 -0.250295,-0.325967 -0.08149,-0.203729 -0.08149,-0.477308 v -0.01164 z m 0.785812,-0.174625 q 0,0.01164 0,0.02328 0,0.0058 0,0.01164 0,0.01164 0,0.01746 0,0.0058 0,0.01746 0,0.01746 0,0.03493 0,0.01746 0.0058,0.0291 0.01164,0.157162 0.04657,0.302683 0.04074,0.1397 0.110595,0.273579 0.05821,0.104775 0.151342,0.168804 0.09895,0.05821 0.232833,0.07567 0.168804,-0.02328 0.285221,-0.09313 0.122237,-0.07567 0.203729,-0.192087 0.08731,-0.133879 0.133879,-0.2794 0.04657,-0.151341 0.04657,-0.314325 v -0.03493 -0.03492 q -0.0058,-0.168804 -0.05821,-0.325966 -0.05239,-0.157162 -0.151341,-0.302683 -0.07567,-0.116417 -0.180446,-0.186267 -0.09895,-0.06985 -0.215371,-0.09313 -0.09313,0.01164 -0.168804,0.05239 -0.06985,0.03493 -0.133879,0.09896 -0.07567,0.08149 -0.133879,0.174624 -0.05821,0.08731 -0.09313,0.186267 -0.02328,0.05821 -0.04075,0.110596 -0.01164,0.05239 -0.02328,0.104775 -0.0058,0.05239 -0.01164,0.09895 -0.0058,0.04657 -0.0058,0.08149 z"
         id="text6-8"
         aria-label="19" />
    </g>
    <g
       id="g2"
       transform="translate(-16.649559,-2.6369997)">
      <path
         style="font-weight:600;font-size:18.3502px;line-height:1.25;font-family:'Noto Serif TC';-inkscape-font-specification:'Noto Serif TC Semi-Bold';letter-spacing:1.96609px;stroke-width:0.327681"
         d="m 77.61015,34.990793 h -4.037044 v -2.880981 h 5.798663 c 0.256903,0 0.440405,-0.09175 0.495456,-0.293603 -0.752359,-0.678958 -2.000172,-1.578117 -2.000172,-1.578117 l -1.064312,1.339564 h -2.165324 c 0.88081,-0.770708 1.835021,-1.724919 2.403877,-2.477277 0.403704,0 0.605556,-0.165152 0.660607,-0.385354 l -2.569028,-0.532156 c -0.220203,0.990911 -0.605557,2.367176 -1.045962,3.394787 H 65.73757 l 0.146802,0.532156 h 5.853714 v 2.880981 h -7.028127 l 0.146802,0.532156 h 6.881325 v 3.835192 h 0.330303 c 0.91751,0 1.486367,-0.311953 1.504717,-0.403704 v -3.431488 h 6.679473 c 0.256903,0 0.458755,-0.09175 0.513805,-0.293603 -0.770708,-0.678957 -2.036872,-1.614818 -2.036872,-1.614818 z m -9.395303,-6.642772 c 0.495456,0.752358 0.972561,1.87172 0.990911,2.844281 1.541417,1.449666 3.523239,-1.651518 -0.807409,-2.936032 z m 9.854058,-0.715658 h -4.495799 v -2.440577 h 5.376609 c 0.275253,0 0.458755,-0.09175 0.513805,-0.293603 -0.770708,-0.678957 -2.000172,-1.596467 -2.000172,-1.596467 l -1.101012,1.357915 h -2.78923 v -1.669869 c 0.422054,-0.0734 0.550506,-0.238552 0.587206,-0.477105 l -2.422226,-0.220202 v 2.367176 h -5.725263 l 0.146802,0.532155 h 5.578461 v 2.440577 h -7.633684 l 0.165152,0.532156 h 16.44178 c 0.275253,0 0.477105,-0.09175 0.532156,-0.293603 -0.807409,-0.678958 -2.055223,-1.614818 -2.055223,-1.614818 z m 22.922015,-3.339737 c 0.25691,0 0.44041,-0.09175 0.49546,-0.293603 -0.69731,-0.642257 -1.835021,-1.523066 -1.835021,-1.523066 l -1.009261,1.284514 h -7.578633 l 0.146801,0.532155 z m -7.101524,4.660951 v -2.440576 h 4.293947 v 2.440576 z m 4.5692,1.192764 c 0.532155,0 1.376265,-0.311954 1.394615,-0.422055 v -2.899332 c 0.366999,-0.0734 0.642259,-0.238552 0.770709,-0.385354 l -1.79832,-1.357915 -0.825759,0.89916 h -4.037044 l -1.688219,-0.697308 v 5.101356 h 0.238553 c 0.642257,0 1.376265,-0.367004 1.376265,-0.513806 v -0.385354 h 4.293947 v 0.660608 z M 86.384164,22.420906 c 0.532155,0.697308 1.156062,1.79832 1.302864,2.69748 1.504716,1.247813 3.156234,-1.74327 -1.156063,-2.789231 z m 2.275425,7.817186 c 0.862459,-1.027612 1.541416,-2.128624 2.036872,-3.137885 0.440405,-0.0367 0.660607,-0.0734 0.825759,-0.238552 l -1.651518,-1.596468 -1.009261,0.954211 h -4.312297 l 0.165151,0.532155 h 4.202196 c -0.844109,2.348826 -2.715829,5.211457 -4.752702,7.083178 l 0.183502,0.183502 c 0.935861,-0.568856 1.83502,-1.247814 2.67913,-2.036872 v 7.32173 h 0.275253 c 0.807409,0 1.357915,-0.422055 1.357915,-0.568857 v -7.890586 c 0.513805,0.715658 1.027611,1.633168 1.174412,2.385526 1.229464,0.990911 2.440577,-1.431315 -1.174412,-2.899331 z m 8.074088,7.37678 v -2.660779 h 2.275425 v 2.660779 z m -3.798492,-2.660779 h 2.330476 v 2.660779 h -2.330476 z m 2.330476,-2.991083 v 2.458927 H 92.935185 V 31.96301 Z m 3.743441,0 v 2.458927 H 96.733677 V 31.96301 Z M 98.8256,31.430855 h -5.798664 l -1.706568,-0.734008 v 8.624594 h 0.256902 c 0.660608,0 1.357915,-0.348654 1.357915,-0.513806 v -0.660607 h 6.073917 v 1.064312 h 0.275253 c 0.550506,0 1.357915,-0.348654 1.376265,-0.458755 v -6.495971 c 0.367,-0.0734 0.66061,-0.238553 0.77071,-0.385355 l -1.761621,-1.357914 z"
         id="text7"
         aria-label="幸福" />
      <path
         style="font-weight:bold;font-size:7.79071px;line-height:1.25;font-family:'Optima Bold';-inkscape-font-specification:'Optima Bold,  Bold';stroke-width:0.354123"
         d="M 69.683629,46.270441 68.024207,43.62939 h 0.311629 q 0.04674,0.02337 0.09349,0.03895 0.05454,0.0078 0.10907,0.01558 0.0078,0 0.01558,0 0.0078,0 0.01558,0 0.0078,0 0.01558,0.0078 0.0078,0 0.01558,0 0.0078,0 0.01558,0 0.0078,0 0.02337,-0.0078 0.0078,0 0.01558,0 0.0078,0 0.01558,0 0.06233,-0.0078 0.10907,-0.01558 0.05454,-0.01558 0.10128,-0.02337 l 0.311628,-0.0078 1.075118,1.768491 1.129653,-1.776282 h 0.311628 q 0.03116,0.01558 0.05454,0.03116 0.02337,0.0078 0.04674,0.01558 0.03895,-0.0078 0.07012,-0.01558 0.03895,-0.0078 0.07012,-0.01558 l 0.311629,-0.0078 -1.659422,2.383957 1.846399,2.944888 h -0.311629 q -0.05454,0 -0.11686,0 -0.05454,-0.0078 -0.116861,-0.01558 -0.0078,0 -0.01558,0 -0.0078,0 -0.01558,-0.0078 -0.01558,0 -0.02337,0 -0.0078,0 -0.01558,0 -0.0078,0 -0.01558,0 -0.0078,0 -0.01558,0 -0.01558,0.0078 -0.02337,0.0078 -0.0078,0 -0.01558,0 -0.05454,0.0078 -0.11686,0.01558 -0.05454,0 -0.116861,0 h -0.311628 l -1.19977,-2.119073 -1.191978,2.119073 h -0.311629 -0.03895 l -0.03116,-0.01558 q -0.0078,0.0078 -0.01558,0.0078 -0.0078,0 -0.02337,-0.0078 -0.0078,0 -0.01558,0 -0.0078,0 -0.02337,0 0,0 0,0 0,0 0,0 -0.0078,0 -0.0078,0 0,0 0,0 -0.04674,0.0078 -0.101279,0.01558 -0.04675,0 -0.10907,0 H 67.83723 l 1.846399,-2.695585 v 0 z m 4.051164,-2.703377 q 0.03895,0.02337 0.07012,0.03895 0.03895,0.0078 0.0857,0.01558 0.0078,0 0.0078,0 0.0078,0 0.01558,0 0.0078,0 0.0078,0 0.0078,0 0.01558,0 0.04674,-0.0078 0.0857,-0.01558 0.04674,-0.01558 0.07791,-0.02337 l 0.311628,-0.0078 v 5.391171 h -0.311628 q -0.03116,0 -0.07791,0 -0.03895,-0.0078 -0.07791,-0.01558 -0.0078,0 -0.01558,0 0,0 -0.0078,0 -0.0078,0 -0.01558,0 -0.0078,0 -0.01558,0 -0.04675,0.0078 -0.0857,0.01558 -0.03116,0 -0.07012,0 h -0.311629 v -5.398962 h 0.311629 v 0 z m 2.150235,5.398962 v -5.398962 h 0.311629 0.373954 l 3.427912,3.770704 v -3.770704 h 0.311628 q 0.01558,0.02337 0.03895,0.03116 0.02337,0.0078 0.04674,0.01558 0.03116,-0.0078 0.05454,-0.01558 0.02337,-0.0078 0.03895,-0.01558 l 0.311628,-0.0078 v 5.391171 H 80.489338 80.1855 l -3.498029,-3.887564 v 3.887564 h -0.311628 q -0.0078,0 -0.01558,0 -0.0078,0 -0.01558,0 -0.01558,0 -0.02337,0 -0.0078,-0.0078 -0.01558,-0.0078 -0.01558,0 -0.03116,0 -0.0078,0 -0.02337,0.0078 -0.01558,0 -0.03116,0 -0.0078,0 -0.02337,0 h -0.311629 v 0 z m 6.084542,-2.64105 q 0.03116,-0.615466 0.179187,-1.075118 0.155814,-0.459652 0.428489,-0.755699 0.272675,-0.296047 0.568722,-0.498606 0.303837,-0.202558 0.631047,-0.311628 0.171396,-0.06233 0.335001,-0.101279 0.171395,-0.03895 0.335,-0.06233 0.163605,-0.02337 0.311629,-0.03895 0.155814,-0.01558 0.280465,-0.02337 l 0.311629,-0.0078 q 0.249302,0.0078 0.498605,0.03895 0.257093,0.02337 0.514187,0.07791 0.249303,0.05454 0.498605,0.155814 0.257094,0.09349 0.514187,0.225931 l -0.249303,0.66221 h -0.311628 q -0.03895,-0.01558 -0.0857,-0.04674 -0.04674,-0.03895 -0.09349,-0.0857 -0.04675,-0.04674 -0.101279,-0.09349 -0.04675,-0.04674 -0.10907,-0.09349 -0.10907,-0.0857 -0.249303,-0.163605 -0.140233,-0.07791 -0.303838,-0.148023 -0.132442,-0.06233 -0.303838,-0.09349 -0.163604,-0.03895 -0.358372,-0.04674 -0.03895,0 -0.0857,0.0078 -0.03895,0 -0.0857,0.0078 -0.07791,0.0078 -0.163605,0.02337 -0.07791,0.01558 -0.163605,0.03895 -0.288256,0.07791 -0.560931,0.249303 -0.264884,0.163605 -0.514187,0.420698 -0.241512,0.257094 -0.381744,0.631048 -0.140233,0.373954 -0.179187,0.88035 v 0.02337 0.03116 0.03116 0.03116 q -0.0078,0.576512 0.148024,1.043955 0.155814,0.467442 0.467442,0.825815 0.296047,0.335001 0.670001,0.514187 0.381745,0.171396 0.849188,0.194768 0.155814,-0.0078 0.296047,-0.02337 0.148023,-0.02337 0.288256,-0.05454 0.179186,-0.03895 0.303838,-0.09349 0.132442,-0.06233 0.22593,-0.132442 v -2.041166 h 0.311629 q 0.01558,0.01558 0.03116,0.02337 0.01558,0 0.03895,0.0078 0.01558,0.0078 0.03116,0.01558 0.01558,0 0.03116,0 0.0078,0 0.0078,0 0.0078,0 0.01558,0 0.0078,0.0078 0.0078,0.0078 0.0078,0 0.01558,0 0,0 0,0 0,0 0.0078,0 0,0 0,0 0,0 0,0 0.03895,-0.0078 0.0857,-0.01558 0.04674,-0.01558 0.09349,-0.02337 l 0.311629,-0.0078 v 2.267096 l -0.02337,0.02337 -0.02337,0.0078 q -0.03895,0.02337 -0.09349,0.03895 -0.04675,0.01558 -0.101279,0.03116 -0.05454,0.02337 -0.116861,0.03895 -0.06233,0.01558 -0.132442,0.03116 -0.140233,0.03116 -0.280466,0.05454 -0.140233,0.02337 -0.296047,0.03895 -0.140233,0.02337 -0.272675,0.03895 -0.124651,0.02337 -0.257093,0.03116 -0.124651,0.01558 -0.233721,0.02337 -0.10907,0.0078 -0.194768,0.0078 h -0.311628 q -0.01558,0 -0.03895,0 -0.01558,0 -0.03116,0 -0.01558,0 -0.03895,0 -0.01558,0 -0.03116,0 -0.662211,0 -1.184188,-0.179187 Q 83.130386,48.732305 82.740851,48.35056 82.359106,47.976606 82.164338,47.478001 81.96957,46.971605 81.96957,46.340557 v -0.01558 z m 6.949311,-2.695586 h 2.757911 q -0.0078,0.03116 -0.01558,0.05454 0,0.01558 -0.0078,0.03116 -0.0078,0.01558 -0.0078,0.03116 0,0.01558 0,0.03116 -0.0078,0.02337 -0.01558,0.03895 0,0.01558 0,0.03116 0,0.01558 0,0.03895 0,0.01558 0,0.03116 0,0.03116 0,0.07012 0,0.03116 0.0078,0.07012 0.0078,0.03116 0.01558,0.07012 0.01558,0.03116 0.02337,0.07012 l -0.311628,-0.0078 q -0.03116,0.0078 -0.06233,0.0078 -0.02337,-0.0078 -0.04674,-0.01558 -0.02337,0 -0.04675,-0.0078 -0.02337,-0.0078 -0.04674,-0.01558 -0.11686,-0.01558 -0.233721,-0.03116 -0.116861,-0.01558 -0.225931,-0.03116 -0.11686,-0.0078 -0.233721,-0.02337 -0.116861,-0.01558 -0.233721,-0.02337 -0.155815,-0.01558 -0.319419,-0.02337 -0.163605,-0.0078 -0.32721,-0.0078 v 1.877562 h 0.856978 l 0.794652,-0.06233 h 0.311629 q -0.0078,0.03895 -0.01558,0.07012 -0.0078,0.02337 -0.01558,0.04675 0,0.0078 -0.0078,0.02337 0,0.0078 0,0.01558 -0.0078,0.01558 -0.0078,0.02337 0,0.0078 0,0.02337 v 0.01558 0.03116 q 0,0.03895 0,0.07012 0,0.02337 0.0078,0.05454 0,0.01558 0,0.03116 0.0078,0.01558 0.01558,0.03116 0.0078,0.02337 0.0078,0.03895 0.0078,0.01558 0.01558,0.03116 l -0.311629,-0.0078 -0.794652,-0.06233 h -0.856978 v 2.695585 h -0.311629 q -0.03116,0 -0.07012,0 -0.03116,-0.0078 -0.07012,-0.01558 0,0 -0.0078,0 0,0 0,0 0,0 -0.0078,0 0,0 0,0 0,0 -0.0078,0 0,0 -0.0078,0 -0.04675,0.0078 -0.09349,0.01558 -0.04674,0 -0.09349,0 H 88.607252 V 43.62939 h 0.311629 v 0 z m 3.926523,3.248726 v -3.311052 h 0.311628 q 0.05454,0.02337 0.101279,0.03895 0.05453,0.0078 0.10128,0.01558 0.02337,0 0.04674,0 0.02337,0 0.04674,-0.0078 0.03116,-0.0078 0.06233,-0.01558 0.03116,-0.0078 0.06233,-0.01558 l 0.311628,-0.0078 v 3.1864 q 0,0.54535 0.10907,0.927095 0.116861,0.373954 0.350582,0.599885 0.210349,0.202558 0.475233,0.319419 0.264884,0.10907 0.576513,0.124651 0.389535,-0.01558 0.670001,-0.140233 0.288256,-0.124651 0.459652,-0.342791 0.186977,-0.249303 0.288256,-0.599885 0.10907,-0.358372 0.132442,-0.818024 v -3.264308 h 0.311628 q 0.01558,0.01558 0.02337,0.02337 0.0078,0 0.02337,0.0078 0.0078,0.0078 0.01558,0.01558 0.01558,0 0.02337,0 0.01558,0 0.02337,0 0.01558,-0.0078 0.02337,-0.01558 0.01558,-0.0078 0.02337,-0.0078 0.01558,-0.0078 0.02337,-0.0078 l 0.311628,-0.0078 v 3.124075 q 0,0.545349 -0.132442,0.981629 -0.124651,0.428489 -0.381745,0.755699 -0.257093,0.335001 -0.693373,0.498605 -0.43628,0.155815 -1.059536,0.155815 h -0.311629 q -0.01558,0 -0.03895,0 -0.01558,0 -0.03116,0 -0.01558,0 -0.03895,0 -0.01558,0 -0.03116,0 -0.646629,0 -1.082908,-0.163605 -0.43628,-0.163605 -0.662211,-0.498606 -0.21814,-0.342791 -0.335,-0.724536 -0.10907,-0.381744 -0.10907,-0.810234 v -0.01558 z"
         id="text8"
         aria-label="XINGFU" />
    </g>
  </g>
</svg>
