<?xml version="1.0" encoding="UTF-8" standalone="no"?>
<!-- Created with Inkscape (http://www.inkscape.org/) -->

<svg
   width="500"
   height="250"
   viewBox="0 0 132.29166 66.145833"
   version="1.1"
   id="svg1"
   inkscape:version="1.3.2 (091e20e, 2023-11-25, custom)"
   sodipodi:docname="y20.svg"
   xmlns:inkscape="http://www.inkscape.org/namespaces/inkscape"
   xmlns:sodipodi="http://sodipodi.sourceforge.net/DTD/sodipodi-0.dtd"
   xmlns="http://www.w3.org/2000/svg"
   xmlns:svg="http://www.w3.org/2000/svg">
  <sodipodi:namedview
     id="namedview1"
     pagecolor="#9e652e"
     bordercolor="#ffffff"
     borderopacity="1"
     inkscape:showpageshadow="0"
     inkscape:pageopacity="0"
     inkscape:pagecheckerboard="false"
     inkscape:deskcolor="#d1d1d1"
     inkscape:document-units="mm"
     inkscape:zoom="2.0208096"
     inkscape:cx="298.39526"
     inkscape:cy="127.17675"
     inkscape:window-width="1920"
     inkscape:window-height="1009"
     inkscape:window-x="1912"
     inkscape:window-y="-8"
     inkscape:window-maximized="1"
     inkscape:current-layer="layer1" />
  <defs
     id="defs1">
    <rect
       x="157.85752"
       y="62.351248"
       width="329.07603"
       height="135.09437"
       id="rect4" />
  </defs>
  <g
     inkscape:label="Layer 1"
     inkscape:groupmode="layer"
     id="layer1">
    <rect
       style="fill:#ffffff;fill-opacity:1;stroke:none;stroke-width:0.953294;stroke-dasharray:none"
       id="rect5"
       width="132.29167"
       height="66.145836"
       x="-2.5431316e-06"
       y="-1.2715658e-06"
       ry="0" />
    <g
       id="g1"
       transform="matrix(0.86547713,0,0,0.86547713,-0.99299575,5.1372591)">
      <path
         id="rect6"
         style="fill:none;stroke:#000000;stroke-width:0.575409"
         d="m 9.3009131,19.849001 h 5.7010479 c 1.810115,0 3.267355,1.45724 3.267355,3.267355 v 9.524719 c 0,1.810115 -1.45724,3.267355 -3.267355,3.267355 H 9.3009131 c -1.8101145,0 -3.2673547,-1.45724 -3.2673547,-3.267355 v -9.524719 c 0,-1.810115 1.4572402,-3.267355 3.2673547,-3.267355 z" />
      <path
         style="font-weight:bold;font-size:5.82083px;line-height:1.25;font-family:'Optima Bold';-inkscape-font-specification:'Optima Bold,  Bold';stroke-width:0.264583"
         d="m 11.768055,25.2551 -1.420282,-2.293407 h 0.232833 q 0.04657,0.01746 0.09313,0.0291 0.05239,0.0058 0.09313,0.01164 0.01164,0 0.01746,0 0.01164,0 0.01746,0 0,0 0,0 0.0058,0 0.0058,0 0,0 0,0 0.0058,0 0.0058,0 0.0291,0 0.05239,0 0.0291,0 0.05239,-0.0058 0.0291,-0.0058 0.05821,-0.01164 0.0291,-0.0058 0.05821,-0.01164 l 0.232833,-0.0058 0.98372,1.711324 0.937154,-1.717145 h 0.232833 q 0.0291,0.01746 0.05821,0.0291 0.03492,0.0058 0.06403,0.01164 0.0058,0 0.01164,0 0.01164,0 0.01746,0 0.0058,0 0.01164,0 0.01164,-0.0058 0.01746,-0.0058 0.02328,-0.0058 0.04657,-0.01164 0.02328,-0.0058 0.04657,-0.01164 l 0.232833,-0.0058 q -0.03492,0.05239 -0.06985,0.09895 -0.0291,0.04657 -0.05821,0.09313 -0.03492,0.04657 -0.06985,0.09313 -0.0291,0.04657 -0.05821,0.09313 -0.03492,0.04657 -0.06985,0.09895 -0.0291,0.04657 -0.05821,0.09313 -0.03493,0.04657 -0.06985,0.09895 -0.0291,0.04657 -0.05821,0.09313 -0.128058,0.192088 -0.244475,0.378354 -0.116416,0.186267 -0.232833,0.372533 -0.110596,0.186267 -0.20955,0.360892 -0.09895,0.174625 -0.180445,0.331787 v 1.775353 h -0.232834 q -0.03492,0 -0.06985,0 -0.0291,-0.0058 -0.05821,-0.01164 0,0 -0.0058,0 0,0 0,0 0,0 -0.0058,0 0,0 0,0 -0.0058,0 -0.01164,0 0,0 -0.0058,0 -0.03493,0.0058 -0.07567,0.01164 -0.03493,0 -0.08149,0 h -0.232834 v -1.693861 0 z"
         id="text6"
         aria-label="Y" />
      <path
         style="font-weight:bold;font-size:5.82083px;line-height:1.25;font-family:'Optima Bold';-inkscape-font-specification:'Optima Bold,  Bold';stroke-width:0.264583"
         d="m 9.2643039,29.325142 q 0.098954,-0.162983 0.2095498,-0.2794 0.1164166,-0.116416 0.2444749,-0.174625 0.1280582,-0.06403 0.273579,-0.09313 0.1513414,-0.03493 0.3259664,-0.03493 l 0.232833,-0.0058 q 0.01164,0.0058 0.01746,0.0058 0.0058,0 0.01746,0 0.0058,0.0058 0.01164,0.0058 0.01164,0 0.01746,0 0.01746,0 0.03492,0 0.01746,0 0.03492,0 0.186267,0.01746 0.360892,0.09313 0.174625,0.06985 0.331787,0.203729 0.157163,0.128058 0.238654,0.331787 0.08149,0.197909 0.08149,0.465667 0,0.122237 -0.02328,0.250296 -0.02328,0.128058 -0.06985,0.261937 -0.04657,0.133879 -0.139699,0.273579 -0.09313,0.133879 -0.227013,0.267758 l -1.327149,1.356253 1.594907,-0.04075 h 0.232834 q -0.0058,0.03493 -0.01164,0.06403 -0.0058,0.02328 -0.01164,0.05239 -0.0058,0.02328 -0.0058,0.05239 0,0.02328 0,0.05239 0,0.0291 0,0.06403 0,0.0291 0.0058,0.05821 0,0.0291 0.0058,0.06403 0.01164,0.0291 0.01746,0.05239 H 11.505323 8.984904 v -0.09313 q 0.046567,-0.03493 0.093133,-0.07567 0.046567,-0.04657 0.093133,-0.08731 0.046567,-0.04657 0.093133,-0.09313 0.052387,-0.04657 0.098954,-0.09895 0.017463,-0.01746 0.034925,-0.03493 0.017463,-0.01746 0.040746,-0.03492 0.017463,-0.01746 0.034925,-0.03493 0.017463,-0.02328 0.034925,-0.04075 0.017462,-0.01746 0.034925,-0.03492 0.017463,-0.01746 0.040746,-0.04075 0.017463,-0.01746 0.034925,-0.03493 0.017463,-0.02328 0.034925,-0.04075 0.1804457,-0.186267 0.3376081,-0.360892 0.1629834,-0.180445 0.3085044,-0.349249 0.14552,-0.168804 0.238654,-0.291042 0.09895,-0.128058 0.14552,-0.215371 0.04075,-0.06403 0.07567,-0.139699 0.03493,-0.07567 0.05821,-0.151342 0.0291,-0.08149 0.04657,-0.162983 0.01746,-0.08149 0.03493,-0.168804 0,-0.0291 0,-0.05821 0.0058,-0.03492 0.01164,-0.06403 0,-0.01746 0,-0.0291 0,-0.01746 0.0058,-0.03493 0,-0.01164 0,-0.0291 0,-0.01746 0,-0.03492 0,-0.162983 -0.04075,-0.302683 -0.04075,-0.145521 -0.122238,-0.267758 -0.06985,-0.104775 -0.174625,-0.168804 -0.104775,-0.06403 -0.256116,-0.07567 -0.07567,0.0058 -0.145521,0.04075 -0.06985,0.0291 -0.133879,0.07567 -0.075671,0.05821 -0.133879,0.128059 -0.052388,0.06985 -0.087312,0.14552 -0.00582,0.02328 -0.017463,0.04657 -0.00582,0.01746 -0.017462,0.03493 -0.00582,0.02328 -0.011642,0.04075 -0.00582,0.01746 -0.00582,0.03493 l -0.093133,0.0291 H 9.4447496 L 9.2643039,29.325142 v 0 z m 3.2072821,1.466849 q 0,-0.0058 0,-0.01164 0,-0.01164 0,-0.0291 0,-0.01164 0,-0.0291 0.0058,-0.01746 0.01164,-0.03493 0,-0.07567 0.0058,-0.168804 0.01164,-0.09895 0.01746,-0.215371 0.01164,-0.116416 0.0291,-0.238654 0.02328,-0.128058 0.05821,-0.256116 0.05239,-0.203729 0.151341,-0.384175 0.09896,-0.186266 0.244475,-0.34925 0.1397,-0.168804 0.366713,-0.250295 0.227012,-0.08149 0.535516,-0.08149 l 0.232833,-0.0058 q 0.285221,0.0058 0.494771,0.09313 0.20955,0.08149 0.349249,0.250296 0.1397,0.168804 0.232834,0.355071 0.09895,0.180445 0.151341,0.384175 0.04075,0.151341 0.06403,0.296862 0.02328,0.145521 0.0291,0.2794 0.0058,0.1397 0.0058,0.244475 0.0058,0.09895 0.0058,0.162983 0,0.06985 -0.01164,0.168804 -0.0058,0.09313 -0.01746,0.215371 -0.01164,0.122237 -0.04075,0.250295 -0.02328,0.128058 -0.06403,0.261938 -0.05821,0.192087 -0.162983,0.372533 -0.09895,0.174625 -0.238654,0.331787 -0.1397,0.162983 -0.34925,0.238654 -0.203729,0.07567 -0.477308,0.07567 h -0.232833 -0.01746 -0.01164 -0.01746 -0.01164 q -0.349249,0 -0.599545,-0.128058 -0.244475,-0.128059 -0.395816,-0.395817 -0.145521,-0.261937 -0.232834,-0.552979 -0.08149,-0.296862 -0.09895,-0.617008 0,-0.01164 0,-0.02328 0,-0.01746 0,-0.03493 -0.0058,-0.01164 -0.0058,-0.02328 0,-0.01746 0,-0.0291 0,-0.01164 0,-0.02328 0,-0.01746 0,-0.03492 0,-0.01164 0,-0.02328 0,-0.01746 0,-0.0291 v -0.01164 z m 0.739246,0.09895 q 0,0.07567 0,0.151342 0.0058,0.07567 0.01164,0.157162 0,0.04075 0.0058,0.08731 0.0058,0.04075 0.01164,0.08149 0.0058,0.04657 0.01164,0.08731 0.01164,0.04075 0.01746,0.08731 0.03492,0.180446 0.09895,0.34925 0.06403,0.162983 0.157163,0.314325 0.08149,0.128058 0.186266,0.197908 0.110596,0.06985 0.256117,0.09313 0.180445,-0.02328 0.302683,-0.110596 0.128058,-0.09313 0.203729,-0.250295 0.08731,-0.186267 0.1397,-0.384175 0.05821,-0.203729 0.08149,-0.4191 0.0058,-0.04075 0.0058,-0.08149 0.0058,-0.04075 0.0058,-0.08149 0.0058,-0.03493 0.0058,-0.07567 0,-0.04075 0,-0.08149 0,-0.04075 0,-0.07567 0,-0.04075 0.0058,-0.08149 0,-0.03493 0,-0.06985 0,-0.04075 0,-0.07567 0,-0.378353 -0.05821,-0.692678 -0.05239,-0.314325 -0.157162,-0.5588 -0.09313,-0.215371 -0.221191,-0.331787 -0.122238,-0.122238 -0.2794,-0.151342 -0.256117,0.03492 -0.4191,0.192088 -0.162983,0.151341 -0.227012,0.42492 -0.07567,0.291042 -0.110596,0.617008 -0.03492,0.325967 -0.03492,0.686858 z"
         id="text6-8"
         aria-label="20" />
    </g>
    <g
       id="g2"
       transform="matrix(0.77170839,0,0,0.77170839,0.11871115,5.4276853)">
      <path
         style="font-weight:600;font-size:18.3502px;line-height:1.25;font-family:'Noto Serif TC';-inkscape-font-specification:'Noto Serif TC Semi-Bold';letter-spacing:1.96609px;stroke-width:0.327681"
         d="m 32.169819,32.256614 c 0.256903,0 0.422055,-0.09175 0.477105,-0.293604 -0.587206,-0.587206 -1.578117,-1.394615 -1.578117,-1.394615 l -0.862459,1.156063 h -1.247814 v -2.202024 h 3.614989 c 0.256903,0 0.440405,-0.09175 0.477106,-0.293604 -0.623907,-0.605556 -1.688219,-1.468016 -1.688219,-1.468016 l -0.89916,1.229464 h -1.357915 c 0.752359,-0.807409 1.504717,-1.761619 1.963472,-2.495627 0.385354,0.0367 0.605557,-0.110102 0.678957,-0.330304 L 29.729242,25.52209 h 2.238725 c 0.256903,0 0.440405,-0.09175 0.495455,-0.293603 -0.623907,-0.605557 -1.633168,-1.412966 -1.633168,-1.412966 l -0.89916,1.174413 h -1.468016 c 1.045962,-0.165152 1.412966,-2.110273 -1.779969,-2.75253 l -0.183502,0.110101 c 0.495455,0.587207 1.009261,1.559767 1.119362,2.367176 0.201852,0.165152 0.403705,0.238553 0.568856,0.275253 h -4.220546 l 0.146802,0.532156 h 1.321214 l -0.165151,0.0734 c 0.422054,0.807409 0.899159,2.018522 0.91751,2.991082 1.229463,1.229464 2.78923,-1.321214 -0.678958,-3.064483 h 4.037044 c -0.201852,1.027611 -0.568856,2.403876 -0.91751,3.468188 h -4.936204 l 0.146802,0.532156 h 3.449838 v 2.202024 h -3.303037 l 0.146802,0.532156 h 3.156235 v 1.376265 l -1.79832,-0.770709 c -0.238553,1.431316 -0.88081,3.578289 -1.77997,5.009605 l 0.201853,0.183502 c 1.376265,-1.101012 2.385526,-2.75253 2.991082,-4.037044 0.165152,0.01835 0.293604,0.01835 0.385355,0 v 5.321558 h 0.293603 c 0.844109,0 1.376265,-0.330304 1.376265,-0.440405 v -6.642772 z m -2.972733,0.93586 c 0.568857,0.880809 1.137713,2.202024 1.137713,3.321386 1.321214,1.247814 2.844281,-1.614818 -0.93586,-3.431487 z m 8.826447,-4.440749 h -3.247986 v -3.816841 c 1.724919,-0.238553 3.541589,-0.660608 4.734352,-1.045962 0.495456,0.165152 0.825759,0.128451 1.009261,-0.05505 l -1.908421,-1.523066 c -0.807408,0.605556 -2.293775,1.468016 -3.68839,2.091923 l -1.83502,-0.623907 v 6.110617 c 0,3.303036 -0.275253,6.624422 -2.495627,9.230151 l 0.238552,0.220202 c 3.63334,-2.440577 3.945293,-6.220718 3.945293,-9.413653 v -0.642257 h 2.183674 v 10.07426 h 0.293604 c 0.862459,0 1.412965,-0.403704 1.412965,-0.513805 v -9.560455 h 1.79832 c 0.256902,0 0.458755,-0.09175 0.495455,-0.293603 -0.715658,-0.660607 -1.890071,-1.633168 -1.890071,-1.633168 z m 13.067961,7.101528 V 23.448517 c 0.495455,-0.0734 0.642257,-0.256903 0.678957,-0.513805 l -2.385526,-0.238553 v 5.46836 h -4.5692 l 0.165152,0.532156 h 4.404048 v 7.450181 c -2.202024,0.385354 -4.073745,0.697308 -5.027955,0.789059 l 0.89916,2.293775 c 0.201852,-0.0367 0.385354,-0.220203 0.477105,-0.440405 3.229635,-1.247814 5.46836,-2.257075 7.028127,-2.991083 L 52.724661,35.578 Z m 9.321902,-1.706569 h -0.183502 c -0.293604,1.156063 -0.587207,2.312126 -0.770709,2.624079 -0.110101,0.183502 -0.238552,0.220202 -0.440405,0.238553 -0.220202,0.0367 -0.715658,0.0367 -1.339564,0.0367 H 56.2112 c -0.642257,0 -0.789059,-0.165152 -0.789059,-0.605557 v -7.743784 h 4.716002 c 0.256902,0 0.422054,-0.09175 0.477105,-0.293604 -0.532156,-0.660607 -1.541417,-1.651518 -1.541417,-1.651518 l -0.844109,1.412966 h -2.807581 v -4.679301 c 0.458755,-0.0734 0.623907,-0.275253 0.660607,-0.513806 l -2.385526,-0.275253 v 14.221406 c 0,1.357914 0.495456,1.779969 2.146974,1.779969 h 1.706568 c 2.862632,0 3.63334,-0.311953 3.63334,-1.082662 0,-0.311953 -0.146802,-0.532156 -0.678957,-0.734008 z m 4.84707,-9.120049 h 10.734868 c -0.587207,0.422054 -1.302865,0.844109 -2.073573,1.247813 -1.266164,-0.348654 -2.917682,-0.642257 -5.083006,-0.807409 l -0.0734,0.293604 c 1.302864,0.348653 2.550678,0.770708 3.633339,1.192763 -1.486366,0.660607 -3.156234,1.247813 -4.679301,1.614817 l 0.128452,0.275253 c 1.945121,-0.238552 4.073744,-0.697307 5.908764,-1.302864 1.119362,0.513806 2.036872,1.009261 2.605729,1.431316 1.064311,0.293603 1.651518,-0.990911 -0.770709,-2.110273 0.678958,-0.275253 1.247814,-0.568857 1.743269,-0.88081 0.403705,0.128451 0.587207,0.0734 0.715658,-0.110101 l -1.339564,-0.844109 h 4.147145 c 0.256903,0 0.440405,-0.09175 0.495455,-0.293604 -0.734008,-0.642257 -1.945121,-1.523066 -1.945121,-1.523066 l -1.027611,1.284514 h -4.477449 c 0.770708,-0.550506 0.623907,-2.312126 -2.477277,-2.348826 l -0.146802,0.128451 c 0.623907,0.495456 1.302864,1.376265 1.468016,2.183674 l 0.05505,0.0367 H 65.113665 Z M 78.270759,38.128678 H 75.077824 V 35.59635 h 3.871892 c 0.256903,0 0.422055,-0.09175 0.477105,-0.293603 -0.660607,-0.605557 -1.743269,-1.412966 -1.743269,-1.412966 l -0.97256,1.174413 H 75.077824 V 32.88052 h 4.238896 c 0.256903,0 0.440405,-0.09175 0.495455,-0.293603 -0.734008,-0.660607 -1.816669,-1.486366 -1.816669,-1.486366 l -1.009261,1.247814 h -1.908421 v -1.76162 c 0.422054,-0.05505 0.568856,-0.220202 0.605556,-0.477105 l -2.330475,-0.220202 v 2.458927 h -2.477277 c 0.238552,-0.403705 0.458755,-0.807409 0.660607,-1.247814 0.385354,0.01835 0.587206,-0.146802 0.678957,-0.367004 L 70.013168,30.07294 c -0.367004,1.85337 -1.064311,3.68839 -1.83502,4.844453 l 0.256903,0.165151 c 0.789059,-0.532155 1.486366,-1.284514 2.110273,-2.202024 h 2.807581 v 2.183674 h -3.706741 l 0.146802,0.532156 h 3.559939 v 2.532328 h -6.073917 l 0.146802,0.532156 h 13.340596 c 0.256903,0 0.440405,-0.09175 0.495455,-0.293604 -0.734008,-0.642257 -1.963471,-1.541416 -1.963471,-1.541416 z m 0,-9.1017 H 68.159798 L 66.177976,28.27462 v 2.789231 c 0,2.513977 -0.165151,5.578461 -1.83502,8.092438 l 0.201852,0.183502 c 3.064484,-2.348826 3.321387,-5.982165 3.321387,-8.27594 v -1.504717 h 12.918541 c 0.256903,0 0.440405,-0.09175 0.495455,-0.293603 -0.734008,-0.660607 -1.963471,-1.541417 -1.963471,-1.541417 z m 8.682264,-6.128967 c 0.642257,0.660607 1.321215,1.76162 1.412966,2.67913 1.449665,1.156062 2.862631,-1.835021 -1.247814,-2.807581 z m -2.183674,15.909624 c 2.000172,-0.403704 4.5692,-1.394615 6.33082,-2.917682 0.403704,0.09175 0.605556,0.0367 0.752358,-0.146801 l -1.963472,-1.357915 c -1.449666,1.79832 -3.504888,3.321386 -5.229807,4.165495 z m 9.909109,-3.596639 c 2.275425,1.027611 3.890242,2.312125 4.752702,3.266336 1.54142,1.394615 4.5325,-1.926771 -4.624251,-3.523239 z m 4.147145,-9.340252 h -2.165324 c 0.91751,-0.660607 1.871721,-1.468016 2.495628,-2.146974 0.403704,0.05505 0.623906,-0.0734 0.715657,-0.293603 l -2.183673,-0.752358 c -0.385355,0.97256 -0.972561,2.275425 -1.541417,3.192935 h -0.587207 v -2.899332 c 0.422055,-0.0734 0.550506,-0.238553 0.587207,-0.458755 L 93.9995,22.310805 v 3.559939 h -1.541417 v -2.899332 c 0.403705,-0.0734 0.550506,-0.238553 0.568857,-0.458755 l -2.110273,-0.201852 v 3.559939 h -6.018866 l 0.146801,0.532156 h 10.496315 c -0.238553,0.770708 -0.660607,1.743269 -1.045961,2.513977 H 91.173569 C 92.017679,28.604924 92.18283,27.008456 89.3936,26.4396 l -0.183502,0.128451 c 0.458755,0.513806 0.95421,1.376265 0.990911,2.128624 0.128451,0.110101 0.256902,0.183502 0.385354,0.220202 h -4.624251 l 0.165152,0.532156 h 6.165668 v 1.669868 h -5.41331 l 0.146802,0.532156 h 5.266508 v 1.779969 h -7.211629 l 0.165152,0.532156 h 7.046477 v 5.394959 h 0.311953 c 0.88081,0 1.412965,-0.330303 1.431316,-0.440405 v -4.954554 h 6.899679 c 0.2569,0 0.4404,-0.09175 0.49545,-0.293603 -0.73401,-0.642257 -1.853369,-1.468016 -1.853369,-1.468016 l -1.027611,1.229463 h -4.514149 v -1.779969 h 4.972904 c 0.256903,0 0.440405,-0.09175 0.495455,-0.293603 -0.678957,-0.605557 -1.724918,-1.357915 -1.724918,-1.357915 l -0.935861,1.119362 h -2.80758 v -1.669868 h 6.165669 c 0.2569,0 0.42205,-0.09175 0.4771,-0.293603 -0.697304,-0.605557 -1.798316,-1.412966 -1.798316,-1.412966 l -0.990911,1.174413 h -2.642429 c 0.697307,-0.513806 1.394615,-1.119362 1.83502,-1.596467 0.403704,0.0367 0.642257,-0.110102 0.715658,-0.330304 L 95.742769,26.4029 h 5.376611 c 0.27525,0 0.45875,-0.09175 0.5138,-0.293604 -0.71565,-0.605556 -1.816666,-1.394615 -1.816666,-1.394615 z m 17.710557,2.055222 h -2.27542 v -1.321214 h 3.43149 c 0.2569,0 0.4404,-0.09175 0.4771,-0.293603 -0.58721,-0.532156 -1.50472,-1.247814 -1.50472,-1.247814 l -0.82576,1.009261 h -1.57811 v -0.990911 c 0.367,-0.05505 0.49545,-0.201852 0.5138,-0.422054 l -2.09192,-0.201853 v 1.614818 h -3.63334 l 0.1468,0.532156 h 3.48654 v 1.321214 h -4.5325 l 0.1468,0.532156 h 10.16601 c 0.25691,0 0.44041,-0.09175 0.49546,-0.293603 -0.60556,-0.550506 -1.59647,-1.266164 -1.59647,-1.266164 z m -0.53215,3.890243 H 110.9577 V 30.10964 h 5.04631 z m -5.06466,5.578461 c 0.0917,-0.05505 0.1835,-0.146802 0.2569,-0.275253 1.41297,-0.789059 2.78923,-1.633168 3.46819,-2.036873 l -0.0734,-0.256902 c -0.88081,0.275253 -1.72492,0.532155 -2.49563,0.734008 v -2.000172 c 0.62391,-0.348654 1.17442,-0.752358 1.61482,-1.211113 h 2.29378 v 0.385354 h 0.2569 c 0.2202,0 0.49545,-0.0734 0.73401,-0.146802 -0.33031,0.403705 -0.77071,0.88081 -1.19277,1.284514 -0.64225,-0.275253 -1.44966,-0.532156 -2.42222,-0.770708 l -0.12845,0.275253 c 1.98182,1.082662 3.57829,2.513977 4.18384,3.358087 1.10101,0.587206 1.90842,-1.101013 -1.04596,-2.605729 0.56886,-0.238553 1.19276,-0.513806 1.59647,-0.697308 0.3303,0.110102 0.49545,0.0734 0.60555,-0.0367 l -1.13771,-1.027611 c 0.0183,-0.01835 0.0367,-0.0367 0.0367,-0.05505 v -2.073572 c 0.27526,-0.0367 0.47711,-0.165152 0.56886,-0.275254 l -1.48637,-1.101012 -0.71565,0.715658 h -4.80776 l -1.55976,-0.642257 v 4.055395 h 0.2202 c 0.56885,0 1.24781,-0.311954 1.24781,-0.440405 v -0.201852 h 0.95421 c -1.00926,1.009261 -2.42222,1.89007 -4.00034,2.532327 l 0.16515,0.311954 c 0.91751,-0.238553 1.77997,-0.550506 2.58738,-0.89916 v 1.119362 c 0,0.256903 -0.0918,0.403705 -0.62391,0.770709 l 0.86246,1.211113 h -3.13788 V 24.035724 h 11.46887 V 37.39467 Z m 9.00995,-14.900363 -0.89916,1.009261 h -11.12022 l -1.87172,-0.825759 v 16.661982 h 0.2936 c 0.75236,0 1.41297,-0.440405 1.41297,-0.660607 v -0.752358 h 11.46887 v 1.266163 h 0.2569 c 0.64226,0 1.46802,-0.440404 1.48637,-0.587206 V 24.347677 c 0.36701,-0.09175 0.64226,-0.220202 0.77071,-0.385354 z m 20.7934,14.551709 h -0.22021 c -0.3303,0.128451 -0.6606,0.220202 -0.88081,0.238553 -0.2569,0.0367 -0.5872,0.09175 -0.95421,0.110101 -0.56885,0.0367 -2.11027,0.0734 -3.90859,0.0734 h -4.58755 c -1.74327,0 -2.16532,-0.275253 -2.16532,-1.082662 V 24.56788 24.090774 h 12.95524 c 0.2569,0 0.4404,-0.09175 0.49545,-0.293603 -0.6973,-0.623907 -1.79831,-1.504716 -1.79831,-1.504716 l -1.00927,1.266163 h -13.08369 l 0.1468,0.532156 h 0.69731 v 12.496487 c 0,1.890071 1.11936,2.220374 3.94529,2.220374 h 4.25725 c 6.11062,0 7.26668,-0.146801 7.26668,-1.027611 0,-0.311953 -0.2202,-0.550506 -1.06431,-0.697308 z m -3.89025,-2.018522 V 31.88961 h 2.07358 v 3.137884 z m 2.31213,1.339565 c 0.49545,0 1.24781,-0.311954 1.26616,-0.422055 v -3.853542 c 0.29361,-0.05505 0.55051,-0.201852 0.64226,-0.311954 l -1.57812,-1.211113 -0.734,0.789059 h -1.81667 l -1.55977,-0.642257 v 5.817013 h 0.2202 c 0.58721,0 1.24781,-0.293603 1.24781,-0.440404 V 35.55965 h 2.07358 v 0.807409 z m -8.45944,-1.339565 V 31.88961 h 2.01852 v 3.137884 z m 2.25707,1.412965 c 0.49546,0 1.21112,-0.293603 1.22947,-0.422054 v -3.963644 c 0.2936,-0.0367 0.5138,-0.183502 0.60555,-0.293603 l -1.50471,-1.156062 -0.73401,0.752358 h -1.77997 l -1.54142,-0.642257 v 6.092266 h 0.2202 c 0.60556,0 1.24782,-0.330303 1.24782,-0.458755 V 35.55965 h 2.01852 v 0.880809 z m -0.20185,-7.578633 v -2.697479 h 4.22055 v 2.697479 z m 4.22055,1.321215 h 0.27525 c 0.53215,0 1.37626,-0.330304 1.39461,-0.458755 V 26.4029 c 0.33031,-0.0734 0.56886,-0.220203 0.67896,-0.348654 l -1.70657,-1.302864 -0.82576,0.880809 h -3.94529 l -1.74327,-0.715658 v 5.523411 h 0.23855 c 0.67896,0 1.41297,-0.348654 1.41297,-0.495456 v -0.550506 h 4.22055 z"
         id="text7"
         aria-label="新北產業園區" />
      <path
         style="font-weight:bold;font-size:7.79071px;line-height:1.25;font-family:'Optima Bold';-inkscape-font-specification:'Optima Bold,  Bold';stroke-width:0.354123"
         d="m 24.069008,48.966026 v -5.398962 h 0.311629 0.373954 l 3.427912,3.770704 v -3.770704 h 0.311628 q 0.01558,0.02337 0.03895,0.03116 0.02337,0.0078 0.04674,0.01558 0.03116,-0.0078 0.05454,-0.01558 0.02337,-0.0078 0.03895,-0.01558 l 0.311628,-0.0078 v 5.391171 H 28.673318 28.36948 l -3.498029,-3.887564 v 3.887564 h -0.311628 q -0.0078,0 -0.01558,0 -0.0078,0 -0.01558,0 -0.01558,0 -0.02337,0 -0.0078,-0.0078 -0.01558,-0.0078 -0.01558,0 -0.03116,0 -0.0078,0 -0.02337,0.0078 -0.01558,0 -0.03116,0 -0.0078,0 -0.02337,0 h -0.311629 v 0 z m 6.333845,0 V 43.62939 h 0.311628 2.820237 q -0.0078,0.03895 -0.01558,0.07012 -0.0078,0.02337 -0.01558,0.04675 0,0.0078 -0.0078,0.02337 0,0.0078 0,0.01558 -0.0078,0.01558 -0.0078,0.02337 0,0.0078 0,0.02337 v 0.01558 0.03116 q 0,0.03895 0,0.07012 0,0.02337 0.0078,0.05454 0,0.01558 0,0.03116 0.0078,0.01558 0.01558,0.03116 0.0078,0.02337 0.0078,0.03895 0.0078,0.01558 0.01558,0.03116 l -0.311628,-0.0078 q -0.116861,-0.01558 -0.233722,-0.03116 -0.11686,-0.01558 -0.249302,-0.02337 -0.124652,-0.0078 -0.257094,-0.0078 -0.124651,-0.0078 -0.257093,-0.0078 0,0 0,0 0,0 0,0 -0.0078,0 -0.0078,0 0,0 0,0 -0.03116,0.0078 -0.06233,0.0078 -0.02337,0 -0.05454,0 -0.03116,0 -0.06233,0 -0.03116,0 -0.05454,0 -0.03116,0 -0.07012,0 -0.03116,0 -0.07012,0 -0.03116,0.0078 -0.07012,0.0078 -0.03116,0 -0.06233,0 -0.07012,0 -0.140233,0 -0.06233,0 -0.124651,0 v 1.885352 h 0.856978 l 0.732327,-0.06233 h 0.311628 q -0.0078,0.03895 -0.02337,0.07012 -0.0078,0.02337 -0.01558,0.04674 -0.0078,0.03116 -0.0078,0.06233 0,0.02337 0,0.05454 0,0.01558 0,0.03116 0,0.01558 0,0.03116 0,0.02337 0,0.03895 0.0078,0.01558 0.0078,0.03116 0.0078,0.03116 0.01558,0.07012 0.01558,0.03116 0.02337,0.07012 l -0.311628,-0.0078 -0.919304,-0.07012 h -0.670001 v 2.212561 q 0.05453,0.01558 0.11686,0.02337 0.06233,0.0078 0.132443,0.0078 0.06233,0.0078 0.124651,0.0078 0.06233,0 0.132442,0 0.03895,0 0.07012,0 0.03116,0 0.06233,-0.0078 0.03116,0 0.06233,0 0.03895,0 0.07012,0 0.155814,-0.0078 0.303838,-0.01558 0.148023,-0.0078 0.296047,-0.01558 0.140233,-0.01558 0.257093,-0.02337 0.116861,-0.01558 0.210349,-0.02337 l 0.311629,-0.0078 q -0.0078,0.03895 -0.02337,0.07791 -0.0078,0.03116 -0.01558,0.07012 -0.0078,0.03116 -0.0078,0.06233 0,0.03116 0,0.06233 0,0.03116 0,0.06233 0,0.03116 0.0078,0.06233 0.0078,0.03116 0.01558,0.05454 0.01558,0.02337 0.02337,0.03116 h -0.311629 -2.882562 v 0 z m 5.274315,0 -1.713956,-5.336636 h 0.311628 q 0.05454,0.02337 0.10128,0.03895 0.05454,0.0078 0.101279,0.01558 0,0 0,0 0.0078,0 0.01558,0 0.0078,0 0.0078,0 0.0078,0 0.0078,0 0,0 0,0 0.0078,0 0.01558,0 0.0078,0 0.0078,0 0.0078,0 0.0078,0 0.04674,-0.0078 0.101279,-0.01558 0.06232,-0.01558 0.11686,-0.02337 l 0.311629,-0.0078 1.20756,3.988843 1.363374,-3.996634 h 0.311629 q 0.01558,0.01558 0.02337,0.02337 0.0078,0 0.02337,0.0078 0.0078,0.0078 0.01558,0.01558 0.01558,0 0.02337,0 0.01558,0 0.02337,0 0.01558,-0.0078 0.02337,-0.01558 0.01558,-0.0078 0.02337,-0.0078 0.01558,-0.0078 0.02337,-0.0078 l 0.311628,-0.0078 1.31663,3.934308 1.262095,-3.942099 h 0.311629 q 0.01558,0.01558 0.03116,0.02337 0.01558,0.0078 0.03116,0.01558 0.01558,0.0078 0.03116,0.0078 0.02337,0 0.03895,0 0,0 0,0 0,0 0,0 0.01558,0 0.02337,0 0.01558,-0.0078 0.03116,-0.01558 0.0078,-0.0078 0.02337,-0.0078 0.01558,-0.0078 0.02337,-0.0078 l 0.311628,-0.0078 -1.838607,5.328845 h -0.311629 q -0.03116,0 -0.06233,0 -0.02337,-0.0078 -0.05454,-0.01558 -0.01558,0 -0.03116,0.0078 -0.01558,0 -0.03116,0 -0.01558,0.0078 -0.03116,0.0078 -0.01558,0 -0.03116,0 h -0.311628 l -1.254304,-3.942099 -1.31663,3.942099 h -0.311629 q -0.02337,0 -0.05454,0 -0.02337,-0.0078 -0.05454,-0.01558 0,0 0,0 0,0 -0.0078,0 0,0 0,0 0,0 0,0 -0.04674,0.0078 -0.09349,0.01558 -0.04674,0 -0.09349,0 h -0.311629 v 0 z m 10.688862,0 V 43.9566 q -0.0078,0.0078 -0.01558,0.0078 -0.0078,0 -0.01558,0 -0.0078,0.0078 -0.01558,0.0078 -0.0078,0 -0.01558,0 -0.116861,0.0078 -0.241512,0.02337 -0.116861,0.0078 -0.241512,0.02337 -0.04674,0.0078 -0.09349,0.01558 -0.03895,0 -0.07791,0.0078 -0.03895,0.0078 -0.0857,0.01558 -0.03895,0 -0.07791,0 -0.07791,0.0078 -0.155814,0.02337 -0.07012,0.0078 -0.140233,0.02337 -0.07012,0.0078 -0.124651,0.01558 -0.05454,0.0078 -0.101279,0.01558 l -0.311629,-0.0078 q 0.0078,-0.0078 0.0078,-0.02337 0.0078,-0.02337 0.01558,-0.03895 0,-0.01558 0,-0.03116 0.0078,-0.01558 0.01558,-0.03895 0,-0.01558 0,-0.03116 0,-0.01558 0,-0.03116 0,-0.0078 0,-0.01558 0,-0.0078 0.0078,-0.02337 0,-0.0078 0,-0.01558 0,-0.0078 0,-0.01558 0,-0.03895 -0.0078,-0.07012 0,-0.03895 -0.0078,-0.07012 -0.0078,-0.03895 -0.01558,-0.07012 0,-0.03895 -0.01558,-0.07012 l 4.105704,-0.01558 h 0.311629 q -0.0078,0.03116 -0.01558,0.05454 0,0.01558 -0.0078,0.03116 -0.0078,0.01558 -0.0078,0.03116 0,0.01558 0,0.03116 -0.0078,0.02337 -0.01558,0.03895 0,0.01558 0,0.03116 0,0.01558 0,0.03895 0,0.01558 0,0.03116 0,0.03116 0,0.07012 0,0.03116 0.0078,0.07012 0.0078,0.03116 0.01558,0.07012 0.01558,0.03116 0.02337,0.07012 l -0.311629,-0.0078 q -0.272674,-0.03895 -0.529768,-0.07012 -0.257093,-0.03895 -0.490815,-0.06233 -0.109069,-0.01558 -0.202558,-0.01558 -0.09349,-0.0078 -0.179186,-0.01558 v 5.001635 h -0.311629 q -0.01558,0 -0.03895,0 -0.01558,0 -0.03116,-0.0078 -0.02337,0 -0.04674,0 -0.01558,-0.0078 -0.03116,-0.0078 0,0 -0.0078,0 0,0 0,0 0,0 -0.0078,0 0,0 0,0 0,0 -0.0078,0 0,0 -0.0078,0 -0.04674,0.0078 -0.09349,0.01558 -0.04674,0 -0.09349,0 H 46.36603 v 0 z m 2.890361,0 2.454073,-5.461287 h 0.311629 0.179186 l 2.399539,5.461287 h -0.311629 q -0.02337,0 -0.05454,0 -0.02337,0 -0.05454,0 -0.03116,0 -0.06232,0 -0.02337,0 -0.06233,0 -0.01558,0 -0.03895,0 -0.01558,0 -0.03116,-0.0078 -0.01558,0 -0.03895,0 -0.01558,0 -0.03116,0 -0.01558,0.0078 -0.03895,0.0078 -0.01558,0 -0.03116,0 -0.01558,0 -0.03116,0 -0.01558,0 -0.02337,0 -0.01558,0 -0.03116,0 -0.0078,0 -0.02337,0 H 53.424421 L 52.567443,46.81579 h -1.589305 l -0.794653,2.150236 h -0.311628 q -0.01558,0 -0.03895,0 -0.01558,0 -0.03116,0 l -0.03895,-0.0078 q -0.0078,0.0078 -0.02337,0.0078 -0.01558,0 -0.02337,0 -0.01558,0 -0.03116,0 -0.0078,0 -0.02337,0 h -0.311629 q -0.02337,0 -0.04674,0 -0.02337,0 -0.04674,0 v 0 z m 1.908724,-2.516399 h 1.277676 l -0.638838,-1.526979 -0.638838,1.526979 z m 4.596514,-2.882563 q 0.03895,0.02337 0.07012,0.03895 0.03895,0.0078 0.0857,0.01558 0.0078,0 0.0078,0 0.0078,0 0.01558,0 0.0078,0 0.0078,0 0.0078,0 0.01558,0 0.04674,-0.0078 0.0857,-0.01558 0.04674,-0.01558 0.07791,-0.02337 l 0.311628,-0.0078 v 5.391171 h -0.311628 q -0.03116,0 -0.07791,0 -0.03895,-0.0078 -0.07791,-0.01558 -0.0078,0 -0.01558,0 0,0 -0.0078,0 -0.0078,0 -0.01558,0 -0.0078,0 -0.01558,0 -0.04675,0.0078 -0.0857,0.01558 -0.03116,0 -0.07012,0 h -0.311628 v -5.398962 h 0.311628 v 0 z m 2.282679,0 h 1.963258 q 0.389536,0.01558 0.677792,0.10128 0.296047,0.07791 0.483024,0.233721 0.186977,0.155814 0.280466,0.389535 0.09349,0.225931 0.09349,0.521978 v 0.02337 l 0.0078,0.03116 v 0.03116 0.03116 q 0,0.358372 -0.116861,0.615466 -0.11686,0.257093 -0.342791,0.436279 -0.22593,0.171396 -0.475233,0.288257 -0.249303,0.11686 -0.521978,0.179186 -0.101279,0.02337 -0.202558,0.03895 -0.09349,0.0078 -0.186977,0.02337 -0.09349,0.0078 -0.186977,0.01558 -0.0857,0 -0.171396,0 l -0.311628,-0.0078 q -0.07012,0.0078 -0.132442,0.0078 -0.06233,0 -0.124652,-0.0078 v 2.446283 h -0.311628 q -0.04674,0 -0.09349,0 -0.03895,-0.0078 -0.07791,-0.01558 0,0 -0.0078,0 0,0 0,0 0,0 -0.0078,0 0,0 0,0 -0.0078,0 -0.01558,0 0,0 -0.0078,0 -0.04675,0.0078 -0.10128,0.01558 -0.04674,0 -0.109069,0 h -0.311629 v -5.398962 h 0.311629 v 0 z m 0.732326,2.578725 h 0.428489 q 0.280466,0.01558 0.498606,-0.07012 0.21814,-0.09349 0.373954,-0.264884 0.155814,-0.179187 0.241512,-0.373954 0.09349,-0.194768 0.11686,-0.412908 0,-0.0078 0,-0.01558 0,-0.0078 0.0078,-0.01558 0,-0.0078 0,-0.01558 0,-0.0078 0,-0.01558 0,-0.01558 0,-0.03116 0,-0.01558 0,-0.03116 0,-0.202559 -0.06233,-0.373954 -0.06233,-0.179187 -0.186978,-0.335001 -0.124651,-0.155814 -0.311628,-0.233721 -0.186977,-0.07791 -0.43628,-0.07791 l 0.311629,-0.0078 h -0.03116 -0.02337 l -0.03116,0.0078 h -0.311628 -0.03116 l -0.553141,-0.0078 v 2.274887 z m 3.747338,2.820237 V 43.62939 h 0.311628 2.820237 q -0.0078,0.03895 -0.01558,0.07012 -0.0078,0.02337 -0.01558,0.04675 0,0.0078 -0.0078,0.02337 0,0.0078 0,0.01558 -0.0078,0.01558 -0.0078,0.02337 0,0.0078 0,0.02337 v 0.01558 0.03116 q 0,0.03895 0,0.07012 0,0.02337 0.0078,0.05454 0,0.01558 0,0.03116 0.0078,0.01558 0.01558,0.03116 0.0078,0.02337 0.0078,0.03895 0.0078,0.01558 0.01558,0.03116 l -0.311628,-0.0078 q -0.116861,-0.01558 -0.233722,-0.03116 -0.11686,-0.01558 -0.249302,-0.02337 -0.124652,-0.0078 -0.257094,-0.0078 -0.124651,-0.0078 -0.257093,-0.0078 0,0 0,0 0,0 0,0 -0.0078,0 -0.0078,0 0,0 0,0 -0.03116,0.0078 -0.06233,0.0078 -0.02337,0 -0.05453,0 -0.03116,0 -0.06233,0 -0.03116,0 -0.05454,0 -0.03116,0 -0.07012,0 -0.03116,0 -0.07012,0 -0.03116,0.0078 -0.07012,0.0078 -0.03116,0 -0.06233,0 -0.07012,0 -0.140233,0 -0.06232,0 -0.124651,0 v 1.885352 h 0.856978 l 0.732327,-0.06233 h 0.311628 q -0.0078,0.03895 -0.02337,0.07012 -0.0078,0.02337 -0.01558,0.04674 -0.0078,0.03116 -0.0078,0.06233 0,0.02337 0,0.05454 0,0.01558 0,0.03116 0,0.01558 0,0.03116 0,0.02337 0,0.03895 0.0078,0.01558 0.0078,0.03116 0.0078,0.03116 0.01558,0.07012 0.01558,0.03116 0.02337,0.07012 l -0.311628,-0.0078 -0.919304,-0.07012 h -0.670001 v 2.212561 q 0.05454,0.01558 0.116861,0.02337 0.06233,0.0078 0.132442,0.0078 0.06233,0.0078 0.124651,0.0078 0.06233,0 0.132442,0 0.03895,0 0.07012,0 0.03116,0 0.06233,-0.0078 0.03116,0 0.06233,0 0.03895,0 0.07012,0 0.155814,-0.0078 0.303838,-0.01558 0.148023,-0.0078 0.296047,-0.01558 0.140233,-0.01558 0.257093,-0.02337 0.116861,-0.01558 0.210349,-0.02337 l 0.311629,-0.0078 q -0.0078,0.03895 -0.02337,0.07791 -0.0078,0.03116 -0.01558,0.07012 -0.0078,0.03116 -0.0078,0.06233 0,0.03116 0,0.06233 0,0.03116 0,0.06233 0,0.03116 0.0078,0.06233 0.0078,0.03116 0.01558,0.05454 0.01558,0.02337 0.02337,0.03116 h -0.311629 -2.882562 v 0 z m 4.604315,-5.398962 q 0.03895,0.02337 0.07012,0.03895 0.03895,0.0078 0.0857,0.01558 0.0078,0 0.0078,0 0.0078,0 0.01558,0 0.0078,0 0.0078,0 0.0078,0 0.01558,0 0.04674,-0.0078 0.0857,-0.01558 0.04674,-0.01558 0.07791,-0.02337 l 0.311628,-0.0078 v 5.391171 H 67.49445 q -0.03116,0 -0.07791,0 -0.03895,-0.0078 -0.07791,-0.01558 -0.0078,0 -0.01558,0 0,0 -0.0078,0 -0.0078,0 -0.01558,0 -0.0078,0 -0.01558,0 -0.04674,0.0078 -0.0857,0.01558 -0.03116,0 -0.07012,0 h -0.311629 v -5.398962 h 0.311629 v 0 z m 4.923729,0 q 0.03895,0.02337 0.07012,0.03895 0.03895,0.0078 0.0857,0.01558 0.0078,0 0.0078,0 0.0078,0 0.01558,0 0.0078,0 0.0078,0 0.0078,0 0.01558,0 0.04674,-0.0078 0.0857,-0.01558 0.04674,-0.01558 0.07791,-0.02337 l 0.311628,-0.0078 v 5.391171 h -0.311628 q -0.03116,0 -0.07791,0 -0.03895,-0.0078 -0.07791,-0.01558 -0.0078,0 -0.01558,0 0,0 -0.0078,0 -0.0078,0 -0.01558,0 -0.0078,0 -0.01558,0 -0.04674,0.0078 -0.0857,0.01558 -0.03116,0 -0.07012,0 h -0.311629 v -5.398962 h 0.311629 v 0 z m 2.150236,5.398962 v -5.398962 h 0.311628 0.373954 l 3.427913,3.770704 v -3.770704 h 0.311628 q 0.01558,0.02337 0.03895,0.03116 0.02337,0.0078 0.04675,0.01558 0.03116,-0.0078 0.05454,-0.01558 0.02337,-0.0078 0.03895,-0.01558 l 0.311629,-0.0078 v 5.391171 h -0.311629 -0.303837 l -3.498029,-3.887564 v 3.887564 h -0.311629 q -0.0078,0 -0.01558,0 -0.0078,0 -0.01558,0 -0.01558,0 -0.02337,0 -0.0078,-0.0078 -0.01558,-0.0078 -0.01558,0 -0.03116,0 -0.0078,0 -0.02337,0.0078 -0.01558,0 -0.03116,0 -0.0078,0 -0.02337,0 h -0.311628 v 0 z m 6.70001,-5.398962 h 2.516399 q 0.670001,0.01558 1.129653,0.210349 0.467443,0.186978 0.732327,0.560932 0.264884,0.373954 0.397326,0.818024 0.132442,0.43628 0.132442,0.942676 0,0.124651 -0.01558,0.257093 -0.0078,0.132443 -0.03116,0.280466 -0.02337,0.148024 -0.06233,0.296047 -0.03116,0.140233 -0.0857,0.288256 -0.116861,0.311629 -0.31942,0.607676 -0.194767,0.288256 -0.475233,0.560931 -0.280465,0.264884 -0.693373,0.412907 -0.412908,0.148024 -0.950467,0.163605 h -0.311628 -2.274887 v -5.398962 h 0.311628 v 0 z m 0.740117,0.373954 v 4.658845 q 0.09349,0.01558 0.179187,0.02337 0.09349,0.0078 0.179186,0.01558 0.02337,0 0.03895,0 0.02337,0 0.03895,0 0.02337,0.0078 0.03895,0.0078 0.02337,0 0.03895,0 0.631048,-0.01558 1.09849,-0.155814 0.467443,-0.140233 0.755699,-0.405117 0.303838,-0.280465 0.475234,-0.763489 0.179186,-0.483025 0.218139,-1.160816 0,-0.01558 0,-0.03116 0,-0.01558 0.0078,-0.03116 0,-0.01558 0,-0.03116 0,-0.01558 0,-0.03116 0,-0.03116 0,-0.05454 0,-0.03116 0,-0.06232 0,-0.529769 -0.140233,-0.895932 -0.132442,-0.366163 -0.405117,-0.576512 -0.272674,-0.21035 -0.576512,-0.342792 -0.296047,-0.132442 -0.623257,-0.179186 -0.03895,-0.0078 -0.07791,-0.0078 -0.03895,-0.0078 -0.07791,-0.0078 -0.04674,-0.0078 -0.0857,-0.0078 -0.03895,-0.0078 -0.07791,-0.0078 -0.02337,0 -0.04674,0 -0.02337,-0.0078 -0.03895,-0.0078 -0.02337,0 -0.04674,0 -0.02337,0 -0.04674,0 -0.02337,0 -0.04675,0 -0.02337,0 -0.04674,0 -0.03116,0 -0.05454,0.0078 -0.02337,0 -0.04674,0 -0.0857,0.0078 -0.163605,0.01558 -0.07791,0 -0.148023,0.0078 -0.05454,0.0078 -0.10128,0.01558 -0.04674,0 -0.0857,0 -0.03895,0.0078 -0.07791,0.01558 -0.03116,0 -0.05454,0 z m 5.282098,2.937098 v -3.311052 h 0.311628 q 0.05454,0.02337 0.101279,0.03895 0.05454,0.0078 0.10128,0.01558 0.02337,0 0.04674,0 0.02337,0 0.04674,-0.0078 0.03116,-0.0078 0.06233,-0.01558 0.03116,-0.0078 0.06233,-0.01558 l 0.311628,-0.0078 v 3.1864 q 0,0.54535 0.10907,0.927095 0.116861,0.373954 0.350582,0.599885 0.210349,0.202558 0.475233,0.319419 0.264884,0.10907 0.576513,0.124651 0.389535,-0.01558 0.670001,-0.140233 0.288256,-0.124651 0.459652,-0.342791 0.186977,-0.249303 0.288256,-0.599885 0.10907,-0.358372 0.132442,-0.818024 v -3.264308 h 0.311628 q 0.01558,0.01558 0.02337,0.02337 0.0078,0 0.02337,0.0078 0.0078,0.0078 0.01558,0.01558 0.01558,0 0.02337,0 0.01558,0 0.02337,0 0.01558,-0.0078 0.02337,-0.01558 0.01558,-0.0078 0.02337,-0.0078 0.01558,-0.0078 0.02337,-0.0078 l 0.311628,-0.0078 v 3.124075 q 0,0.545349 -0.132442,0.981629 -0.124651,0.428489 -0.381745,0.755699 -0.257093,0.335001 -0.693373,0.498605 -0.43628,0.155815 -1.059537,0.155815 h -0.311628 q -0.01558,0 -0.03895,0 -0.01558,0 -0.03116,0 -0.01558,0 -0.03895,0 -0.01558,0 -0.03116,0 -0.646629,0 -1.082908,-0.163605 -0.43628,-0.163605 -0.662211,-0.498606 -0.21814,-0.342791 -0.335,-0.724536 -0.10907,-0.381744 -0.10907,-0.810234 v -0.01558 z m 6.139079,-2.08012 q 0.04674,-0.335 0.186977,-0.576512 0.140233,-0.249303 0.358373,-0.405117 0.22593,-0.155814 0.459652,-0.241512 0.233721,-0.09349 0.490814,-0.116861 0.02337,0 0.04675,0 0.02337,0 0.04674,0 0.01558,0 0.02337,0 0.01558,0 0.03116,-0.0078 0.0078,0 0.02337,0 0.01558,0 0.02337,0 l 0.311628,-0.0078 q 0.194768,0.0078 0.373955,0.03895 0.179186,0.03116 0.350582,0.09349 0.163604,0.05454 0.280465,0.140233 0.116861,0.07791 0.186977,0.171395 -0.04674,0.04675 -0.07791,0.10128 -0.03116,0.04674 -0.05454,0.10907 -0.02337,0.06233 -0.04674,0.148023 -0.02337,0.07791 -0.04674,0.171396 l -0.0078,0.03116 -0.0078,0.04674 h -0.311628 l -0.124652,-0.0078 q -0.0078,-0.01558 -0.02337,-0.03895 -0.0078,-0.03116 -0.02337,-0.06233 -0.01558,-0.03895 -0.03895,-0.07012 -0.01558,-0.03895 -0.03895,-0.07012 -0.05454,-0.07791 -0.140233,-0.148023 -0.07791,-0.07012 -0.186977,-0.132442 -0.07791,-0.04675 -0.163605,-0.07791 -0.0857,-0.03116 -0.186977,-0.03895 -0.132442,0.01558 -0.257093,0.0857 -0.116861,0.07012 -0.225931,0.179186 -0.140233,0.140233 -0.210349,0.303838 -0.06233,0.163605 -0.06233,0.342791 0,0.01558 0,0.03895 0,0.01558 0,0.03116 0,0.0078 0,0.01558 0,0.0078 0.0078,0.01558 0,0.0078 0,0.01558 0,0.0078 0,0.01558 0.01558,0.101279 0.06233,0.210349 0.05454,0.101279 0.132442,0.210349 0.0857,0.10128 0.202558,0.194768 0.124652,0.0857 0.296047,0.163605 l 0.864769,0.350582 q 0.233721,0.10907 0.405117,0.249303 0.171396,0.140232 0.272675,0.311628 0.10907,0.171396 0.155814,0.358373 0.05454,0.179186 0.05454,0.366163 0,0.02337 0,0.04674 0,0.01558 0,0.03116 0,0.0078 0,0.01558 0,0.0078 0,0.01558 -0.0078,0.01558 -0.0078,0.02337 0,0.0078 0,0.01558 -0.03116,0.311628 -0.179186,0.592094 -0.140233,0.280465 -0.397326,0.537559 -0.257094,0.257093 -0.576513,0.381744 -0.311628,0.124652 -0.701164,0.124652 h -0.311628 -0.03895 -0.03116 q -0.01558,0 -0.03116,0 -0.01558,0 -0.03116,0 -0.01558,-0.0078 -0.03116,-0.0078 -0.01558,0 -0.03116,0 -0.01558,0 -0.03116,0 -0.01558,0 -0.03116,-0.0078 -0.02337,0 -0.03895,-0.0078 -0.01558,0 -0.03116,0 -0.148023,-0.02337 -0.296047,-0.07012 -0.140233,-0.03895 -0.280465,-0.09349 -0.140233,-0.06233 -0.249303,-0.124652 -0.101279,-0.07012 -0.186977,-0.140233 l -0.01558,-0.01558 -0.0078,-0.01558 q 0.03116,-0.07012 0.05454,-0.140233 0.02337,-0.07012 0.03116,-0.124651 0.0078,-0.03116 0.0078,-0.05454 0.0078,-0.03116 0.0078,-0.06233 0.0078,-0.02337 0.0078,-0.04674 0.0078,-0.03116 0.0078,-0.06233 0,-0.01558 0,-0.02337 0,-0.01558 0.0078,-0.03116 0,-0.01558 0,-0.03116 0,-0.01558 0,-0.03116 0,-0.03116 0,-0.06233 0,-0.03116 0,-0.06233 l 0.124651,-0.01558 h 0.311629 q 0.202558,0.311629 0.373954,0.490815 0.179186,0.179187 0.32721,0.225931 0.10907,0.03116 0.202558,0.05454 0.09349,0.02337 0.171396,0.03895 0.202558,-0.02337 0.350582,-0.101279 0.155814,-0.07791 0.264884,-0.210349 0.132442,-0.163605 0.194768,-0.342791 0.07012,-0.179187 0.07791,-0.373954 0,-0.155815 -0.04675,-0.296047 -0.03895,-0.148024 -0.124651,-0.288257 Q 95.213792,46.91707 95.08135,46.81579 94.956699,46.714511 94.785303,46.652185 L 93.98286,46.270441 q -0.342791,-0.148024 -0.54535,-0.319419 -0.194768,-0.171396 -0.257093,-0.358373 -0.05454,-0.186977 -0.0857,-0.381745 -0.03116,-0.194768 -0.03116,-0.397326 v -0.01558 z m 5.64827,4.16803 V 43.9566 q -0.0078,0.0078 -0.01558,0.0078 -0.0078,0 -0.01558,0 -0.0078,0.0078 -0.01558,0.0078 -0.0078,0 -0.01558,0 -0.11686,0.0078 -0.241512,0.02337 -0.11686,0.0078 -0.241512,0.02337 -0.04674,0.0078 -0.09349,0.01558 -0.03895,0 -0.07791,0.0078 -0.03895,0.0078 -0.0857,0.01558 -0.03895,0 -0.07791,0 -0.07791,0.0078 -0.155814,0.02337 -0.07012,0.0078 -0.140233,0.02337 -0.07012,0.0078 -0.124651,0.01558 -0.05453,0.0078 -0.10128,0.01558 l -0.311628,-0.0078 q 0.0078,-0.0078 0.0078,-0.02337 0.0078,-0.02337 0.01558,-0.03895 0,-0.01558 0,-0.03116 0.0078,-0.01558 0.01558,-0.03895 0,-0.01558 0,-0.03116 0,-0.01558 0,-0.03116 0,-0.0078 0,-0.01558 0,-0.0078 0.0078,-0.02337 0,-0.0078 0,-0.01558 0,-0.0078 0,-0.01558 0,-0.03895 -0.0078,-0.07012 0,-0.03895 -0.0078,-0.07012 -0.0078,-0.03895 -0.01558,-0.07012 0,-0.03895 -0.01558,-0.07012 l 4.1057,-0.01558 h 0.31163 q -0.008,0.03116 -0.0156,0.05454 0,0.01558 -0.008,0.03116 -0.008,0.01558 -0.008,0.03116 0,0.01558 0,0.03116 -0.008,0.02337 -0.0156,0.03895 0,0.01558 0,0.03116 0,0.01558 0,0.03895 0,0.01558 0,0.03116 0,0.03116 0,0.07012 0,0.03116 0.008,0.07012 0.008,0.03116 0.0156,0.07012 0.0156,0.03116 0.0234,0.07012 l -0.31163,-0.0078 q -0.27267,-0.03895 -0.52976,-0.07012 -0.2571,-0.03895 -0.49082,-0.06233 -0.109069,-0.01558 -0.202557,-0.01558 -0.09349,-0.0078 -0.179187,-0.01558 v 5.001635 h -0.311628 q -0.01558,0 -0.03895,0 -0.01558,0 -0.03116,-0.0078 -0.02337,0 -0.04674,0 -0.01558,-0.0078 -0.03116,-0.0078 0,0 -0.0078,0 0,0 0,0 0,0 -0.0078,0 0,0 0,0 0,0 -0.0078,0 0,0 -0.0078,0 -0.04675,0.0078 -0.09349,0.01558 -0.04674,0 -0.09349,0 h -0.311628 v 0 z m 3.505824,0 v -5.398962 h 0.31163 1.90093 q 0.38954,0.01558 0.67779,0.10907 0.29605,0.09349 0.48303,0.272675 0.18698,0.186977 0.28046,0.420698 0.0935,0.225931 0.0935,0.498606 0,0.264884 -0.0779,0.483024 -0.0701,0.210349 -0.22593,0.366163 -0.14803,0.155814 -0.31942,0.272675 -0.16361,0.116861 -0.3428,0.186977 -0.0857,0.03116 -0.17139,0.06233 -0.0779,0.03116 -0.16361,0.04674 -0.0779,0.02337 -0.15581,0.03895 -0.0779,0.0078 -0.14023,0.01558 l 2.08791,2.625469 h -0.31163 q -0.0312,0 -0.0623,0 -0.0234,0 -0.0545,-0.0078 -0.0312,0 -0.0623,0 -0.0234,-0.0078 -0.0467,-0.01558 -0.0234,0 -0.0468,0 -0.0156,0 -0.0312,0 -0.008,0 -0.0156,0 -0.008,0 -0.0234,0 -0.008,0.0078 -0.0156,0.0078 -0.008,0 -0.0234,0 -0.0545,0.0078 -0.11686,0.01558 -0.0545,0 -0.11686,0 h -0.31163 l -1.95546,-2.500818 v 2.500818 h -0.31163 q -0.0234,0 -0.0468,0 -0.0234,0 -0.0467,-0.0078 -0.008,0 -0.0234,0 -0.008,0 -0.0156,-0.0078 -0.0156,0 -0.0234,0 -0.008,-0.0078 -0.0234,-0.0078 -0.008,0 -0.0156,0 -0.008,0 -0.008,0 -0.008,0.0078 -0.0156,0.0078 -0.008,0 -0.0156,0 -0.0468,0.0078 -0.0935,0.01558 -0.0468,0 -0.0935,0 h -0.31163 v 0 z m 1.04396,-2.882562 q 0.0156,0.01558 0.0389,0.02337 0.0234,0 0.0467,0 0.29605,-0.0078 0.52977,-0.05454 0.23372,-0.04674 0.38954,-0.140233 0.17918,-0.101279 0.29605,-0.210349 0.12465,-0.116861 0.19476,-0.241512 0.0545,-0.0857 0.0857,-0.171396 0.0389,-0.09349 0.0468,-0.171395 0.0156,-0.0857 0.0156,-0.148024 0.008,-0.06233 0.008,-0.101279 0,-0.03895 -0.008,-0.0857 -0.008,-0.04674 -0.0234,-0.10907 -0.008,-0.06233 -0.0389,-0.124651 -0.0312,-0.06233 -0.0701,-0.132442 -0.0545,-0.10128 -0.15581,-0.194768 -0.10128,-0.09349 -0.23372,-0.171396 -0.13244,-0.0857 -0.31942,-0.124651 -0.18698,-0.03895 -0.43628,-0.03895 l -0.36616,-0.01558 v 2.212562 0 z m 4.41732,-2.5164 q 0.0389,0.02337 0.0701,0.03895 0.0389,0.0078 0.0857,0.01558 0.008,0 0.008,0 0.008,0 0.0156,0 0.008,0 0.008,0 0.008,0 0.0156,0 0.0467,-0.0078 0.0857,-0.01558 0.0467,-0.01558 0.0779,-0.02337 l 0.31163,-0.0078 v 5.391171 h -0.31163 q -0.0312,0 -0.0779,0 -0.039,-0.0078 -0.0779,-0.01558 -0.008,0 -0.0156,0 0,0 -0.008,0 -0.008,0 -0.0156,0 -0.008,0 -0.0156,0 -0.0467,0.0078 -0.0857,0.01558 -0.0312,0 -0.0701,0 h -0.31163 v -5.398962 h 0.31163 v 0 z m 1.48024,5.398962 2.45407,-5.461287 h 0.31163 0.17919 l 2.39954,5.461287 h -0.31163 q -0.0234,0 -0.0545,0 -0.0234,0 -0.0545,0 -0.0312,0 -0.0623,0 -0.0234,0 -0.0623,0 -0.0156,0 -0.039,0 -0.0156,0 -0.0312,-0.0078 -0.0156,0 -0.0389,0 -0.0156,0 -0.0312,0 -0.0156,0.0078 -0.0389,0.0078 -0.0156,0 -0.0312,0 -0.0156,0 -0.0312,0 -0.0156,0 -0.0234,0 -0.0156,0 -0.0312,0 -0.008,0 -0.0234,0 h -0.31163 l -0.85698,-2.150236 h -1.5893 l -0.79466,2.150236 h -0.31162 q -0.0156,0 -0.039,0 -0.0156,0 -0.0312,0 l -0.0389,-0.0078 q -0.008,0.0078 -0.0234,0.0078 -0.0156,0 -0.0234,0 -0.0156,0 -0.0312,0 -0.008,0 -0.0234,0 h -0.31163 q -0.0234,0 -0.0468,0 -0.0234,0 -0.0467,0 v 0 z m 1.90872,-2.516399 h 1.27768 l -0.63884,-1.526979 -0.63884,1.526979 z m 4.23035,2.516399 v -5.398962 h 0.31163 q 0.0312,0.02337 0.0701,0.03895 0.0389,0.0078 0.0857,0.01558 0,0 0,0 0.008,0 0.0156,0 0.008,0 0.008,0 0.008,0 0.008,0 0.008,0 0.008,0 0.008,0 0.0156,0 0,0 0,0 0.008,0 0.0156,0 0.0389,-0.0078 0.0701,-0.01558 0.0389,-0.01558 0.0623,-0.02337 l 0.31163,-0.0078 v 4.962682 q 0.0545,0.01558 0.11686,0.02337 0.0623,0.0078 0.13244,0.0078 0.0623,0.0078 0.12465,0.0078 0.0623,0 0.13245,0 0.0389,0 0.0701,0 0.0312,0 0.0623,-0.0078 0.0312,0 0.0623,0 0.039,0 0.0701,0 0.15581,-0.0078 0.30384,-0.01558 0.14802,-0.0078 0.29605,-0.01558 0.14023,-0.01558 0.25709,-0.02337 0.11686,-0.01558 0.21035,-0.02337 l 0.31163,-0.0078 q -0.008,0.03116 -0.0156,0.05454 -0.008,0.02337 -0.008,0.04675 -0.008,0.02337 -0.008,0.04674 0,0.02337 0,0.03895 0,0.02337 0,0.04675 0,0.02337 0,0.03895 0,0.02337 0,0.04674 0.008,0.01558 0.0156,0.03116 0,0.0078 0,0.02337 0,0.0078 0.008,0.02337 0,0.0078 0,0.02337 0,0.0078 0,0.01558 l 0.008,0.04674 h -0.31163 -2.82024 v 0 z m 6.887,-5.398962 h 1.96326 q 0.38953,0.01558 0.67779,0.10128 0.29605,0.07791 0.48302,0.233721 0.18698,0.155814 0.28047,0.389535 0.0935,0.225931 0.0935,0.521978 v 0.02337 l 0.008,0.03116 v 0.03116 0.03116 q 0,0.358372 -0.11686,0.615466 -0.11686,0.257093 -0.34279,0.436279 -0.22594,0.171396 -0.47524,0.288257 -0.2493,0.11686 -0.52198,0.179186 -0.10127,0.02337 -0.20255,0.03895 -0.0935,0.0078 -0.18698,0.02337 -0.0935,0.0078 -0.18698,0.01558 -0.0857,0 -0.17139,0 l -0.31163,-0.0078 q -0.0701,0.0078 -0.13244,0.0078 -0.0623,0 -0.12466,-0.0078 v 2.446283 h -0.31162 q -0.0468,0 -0.0935,0 -0.039,-0.0078 -0.0779,-0.01558 0,0 -0.008,0 0,0 0,0 0,0 -0.008,0 0,0 0,0 -0.008,0 -0.0156,0 0,0 -0.008,0 -0.0468,0.0078 -0.10128,0.01558 -0.0468,0 -0.10907,0 h -0.31163 v -5.398962 h 0.31163 v 0 z m 0.73232,2.578725 h 0.42849 q 0.28047,0.01558 0.49861,-0.07012 0.21814,-0.09349 0.37395,-0.264884 0.15582,-0.179187 0.24152,-0.373954 0.0935,-0.194768 0.11686,-0.412908 0,-0.0078 0,-0.01558 0,-0.0078 0.008,-0.01558 0,-0.0078 0,-0.01558 0,-0.0078 0,-0.01558 0,-0.01558 0,-0.03116 0,-0.01558 0,-0.03116 0,-0.202559 -0.0623,-0.373954 -0.0623,-0.179187 -0.18698,-0.335001 -0.12465,-0.155814 -0.31162,-0.233721 -0.18698,-0.07791 -0.43628,-0.07791 l 0.31162,-0.0078 h -0.0312 -0.0234 l -0.0312,0.0078 h -0.31163 -0.0312 l -0.55314,-0.0078 v 2.274887 z m 3.13188,2.820237 2.45407,-5.461287 h 0.31163 0.17918 l 2.39954,5.461287 h -0.31163 q -0.0234,0 -0.0545,0 -0.0234,0 -0.0545,0 -0.0312,0 -0.0623,0 -0.0234,0 -0.0623,0 -0.0156,0 -0.0389,0 -0.0156,0 -0.0312,-0.0078 -0.0156,0 -0.039,0 -0.0156,0 -0.0312,0 -0.0156,0.0078 -0.0389,0.0078 -0.0156,0 -0.0312,0 -0.0156,0 -0.0312,0 -0.0156,0 -0.0234,0 -0.0156,0 -0.0312,0 -0.008,0 -0.0234,0 h -0.31162 l -0.85698,-2.150236 h -1.58931 l -0.79465,2.150236 h -0.31163 q -0.0156,0 -0.0389,0 -0.0156,0 -0.0312,0 l -0.039,-0.0078 q -0.008,0.0078 -0.0234,0.0078 -0.0156,0 -0.0234,0 -0.0156,0 -0.0312,0 -0.008,0 -0.0234,0 h -0.31163 q -0.0234,0 -0.0467,0 -0.0234,0 -0.0467,0 v 0 z m 1.90872,-2.516399 h 1.27768 l -0.63884,-1.526979 -0.63884,1.526979 z m 4.23035,2.516399 v -5.398962 h 0.31163 1.90094 q 0.38953,0.01558 0.67779,0.10907 0.29605,0.09349 0.48302,0.272675 0.18698,0.186977 0.28047,0.420698 0.0935,0.225931 0.0935,0.498606 0,0.264884 -0.0779,0.483024 -0.0701,0.210349 -0.22593,0.366163 -0.14802,0.155814 -0.31942,0.272675 -0.16361,0.116861 -0.34279,0.186977 -0.0857,0.03116 -0.1714,0.06233 -0.0779,0.03116 -0.1636,0.04674 -0.0779,0.02337 -0.15582,0.03895 -0.0779,0.0078 -0.14023,0.01558 l 2.08791,2.625469 h -0.31163 q -0.0312,0 -0.0623,0 -0.0234,0 -0.0545,-0.0078 -0.0312,0 -0.0623,0 -0.0234,-0.0078 -0.0467,-0.01558 -0.0234,0 -0.0467,0 -0.0156,0 -0.0312,0 -0.008,0 -0.0156,0 -0.008,0 -0.0234,0 -0.008,0.0078 -0.0156,0.0078 -0.008,0 -0.0234,0 -0.0545,0.0078 -0.11686,0.01558 -0.0545,0 -0.11686,0 h -0.31163 l -1.95547,-2.500818 v 2.500818 h -0.31163 q -0.0234,0 -0.0467,0 -0.0234,0 -0.0468,-0.0078 -0.008,0 -0.0234,0 -0.008,0 -0.0156,-0.0078 -0.0156,0 -0.0234,0 -0.008,-0.0078 -0.0234,-0.0078 -0.008,0 -0.0156,0 -0.008,0 -0.008,0 -0.008,0.0078 -0.0156,0.0078 -0.008,0 -0.0156,0 -0.0467,0.0078 -0.0935,0.01558 -0.0467,0 -0.0935,0 h -0.31163 v 0 z m 1.04396,-2.882562 q 0.0156,0.01558 0.0389,0.02337 0.0234,0 0.0468,0 0.29604,-0.0078 0.52977,-0.05454 0.23372,-0.04674 0.38953,-0.140233 0.17919,-0.101279 0.29605,-0.210349 0.12465,-0.116861 0.19477,-0.241512 0.0545,-0.0857 0.0857,-0.171396 0.039,-0.09349 0.0468,-0.171395 0.0156,-0.0857 0.0156,-0.148024 0.008,-0.06233 0.008,-0.101279 0,-0.03895 -0.008,-0.0857 -0.008,-0.04674 -0.0234,-0.10907 -0.008,-0.06233 -0.039,-0.124651 -0.0312,-0.06233 -0.0701,-0.132442 -0.0545,-0.10128 -0.15582,-0.194768 -0.10128,-0.09349 -0.23372,-0.171396 -0.13244,-0.0857 -0.31942,-0.124651 -0.18697,-0.03895 -0.43628,-0.03895 l -0.36616,-0.01558 v 2.212562 0 z m 4.05116,2.882562 v -5.398962 h 0.31163 q 0.0234,0.01558 0.0545,0.03116 0.039,0.0078 0.0701,0.01558 0.008,0 0.0156,0 0.008,0 0.0156,0 0,0.0078 0.008,0.0078 0.008,0 0.0156,0 0,0 0,0 0.008,0 0.008,0 0,0 0,0 0.008,0 0.008,0 0.0467,-0.0078 0.0857,-0.01558 0.0468,-0.01558 0.0779,-0.02337 l 0.31163,-0.0078 v 2.251515 q 0.0156,-0.0078 0.0234,-0.01558 0.0156,-0.0078 0.0234,-0.02337 0.0156,-0.0078 0.0234,-0.01558 0.0156,-0.01558 0.0234,-0.02337 0.0156,-0.01558 0.0312,-0.03116 0.0156,-0.01558 0.0389,-0.03116 0.0156,-0.01558 0.0312,-0.03116 0.0234,-0.02337 0.0467,-0.04675 0.0312,-0.03116 0.0623,-0.06233 0.0312,-0.03116 0.0623,-0.06233 0.0312,-0.03116 0.0623,-0.06233 0.0312,-0.03116 0.0623,-0.06233 l 1.77629,-1.791864 h 0.31163 q 0.0389,0.02337 0.0701,0.03116 0.0312,0.0078 0.0623,0.01558 0,0 0,0 0.008,0 0.008,0 0,0 0,0 0.008,0 0.008,0 0.0234,-0.0078 0.0467,-0.01558 0.0234,-0.0078 0.0468,-0.01558 l 0.31163,-0.0078 -2.39175,2.383957 2.5164,2.882563 v 0.124651 h -0.31163 q -0.0234,0 -0.0468,0 -0.0234,0 -0.0467,-0.0078 -0.0312,0 -0.0545,0 -0.0234,-0.0078 -0.0467,-0.0078 -0.008,0 -0.0156,0 -0.008,0 -0.0156,-0.0078 -0.008,0 -0.0156,0 -0.008,0 -0.0156,0 -0.008,0 -0.0156,0 -0.008,0 -0.0156,0 -0.008,0.0078 -0.0156,0.0078 -0.008,0 -0.0156,0 -0.0545,0.0078 -0.11686,0.01558 -0.0545,0 -0.11686,0 h -0.31163 l -1.83861,-2.267096 q -0.0156,-0.0078 -0.0389,-0.01558 -0.0156,-0.01558 -0.0312,-0.03895 -0.0156,-0.01558 -0.0312,-0.03116 -0.0156,-0.02337 -0.0312,-0.04674 -0.0156,-0.01558 -0.0312,-0.03116 -0.008,-0.01558 -0.0234,-0.03116 -0.0156,-0.0078 -0.0312,-0.02337 -0.008,-0.01558 -0.0234,-0.03116 v 2.516399 h -0.31163 q -0.0312,0 -0.0701,0 -0.0312,-0.0078 -0.0701,-0.01558 0,0 -0.008,0 0,0 0,0 0,0 -0.008,0 0,0 0,0 0,0 -0.008,0 0,0 -0.008,0 -0.0468,0.0078 -0.0935,0.01558 -0.0468,0 -0.0935,0 h -0.31163 v 0 z"
         id="text8"
         aria-label="NEW TAIPEI INDUSTRIAL PARK" />
    </g>
  </g>
</svg>
