<?xml version="1.0" encoding="UTF-8" standalone="no"?>
<!-- Created with Inkscape (http://www.inkscape.org/) -->

<svg
   width="300mm"
   height="200mm"
   viewBox="0 0 300 200"
   version="1.1"
   id="svg5"
   sodipodi:docname="automatic-save-0-2024_10_13_12_52_09-3120-1.svg"
   inkscape:version="1.1 (c68e22c387, 2021-05-23)"
   xmlns:inkscape="http://www.inkscape.org/namespaces/inkscape"
   xmlns:sodipodi="http://sodipodi.sourceforge.net/DTD/sodipodi-0.dtd"
   xmlns="http://www.w3.org/2000/svg"
   xmlns:svg="http://www.w3.org/2000/svg">
  <sodipodi:namedview
     id="namedview7"
     pagecolor="#464646"
     bordercolor="#999999"
     borderopacity="1"
     inkscape:pageshadow="0"
     inkscape:pageopacity="0"
     inkscape:pagecheckerboard="true"
     inkscape:document-units="mm"
     showgrid="false"
     inkscape:snap-bbox="true"
     inkscape:snap-page="true"
     inkscape:zoom="0.70438884"
     inkscape:cx="377.63233"
     inkscape:cy="417.3831"
     inkscape:window-width="1920"
     inkscape:window-height="1094"
     inkscape:window-x="-11"
     inkscape:window-y="-11"
     inkscape:window-maximized="1"
     inkscape:current-layer="layer1" />
  <defs
     id="defs2">
    <rect
       x="183.35979"
       y="599.27346"
       width="381.62688"
       height="181.86906"
       id="rect22815" />
    <rect
       x="135.65643"
       y="125.22132"
       width="45.719619"
       height="49.528261"
       id="rect9799" />
    <rect
       x="681.26361"
       y="183.35979"
       width="409.95075"
       height="137.14716"
       id="rect4048" />
    <rect
       x="135.65643"
       y="125.22132"
       width="45.71962"
       height="49.528259"
       id="rect9799-3" />
    <rect
       x="135.65643"
       y="125.22132"
       width="45.71962"
       height="49.528259"
       id="rect9799-5" />
  </defs>
  <g
     inkscape:label="Layer 1"
     inkscape:groupmode="layer"
     id="layer1">
    <rect
       style="fill:#ffffff;stroke-width:2.08345"
       id="rect846"
       width="300"
       height="200"
       x="0"
       y="-8.8817842e-16" />
    <path
       style="fill:#1660bf;fill-opacity:1;stroke:none;stroke-width:0.303302px;stroke-linecap:butt;stroke-linejoin:miter;stroke-opacity:1"
       d="m 17.392961,170.62606 23.919564,19.34093 v -37.0757 z"
       id="path1463" />
    <rect
       style="fill:#00b0fa;fill-opacity:1;stroke-width:0.626028"
       id="rect972"
       width="266.90784"
       height="156.19124"
       x="17.392962"
       y="14.287495" />
    <rect
       style="fill:#e52917;fill-opacity:1;stroke:none;stroke-width:0.777219"
       id="rect1666"
       width="196.02789"
       height="34.70916"
       x="123.39431"
       y="-148.0325"
       transform="rotate(37.15677)" />
    <g
       aria-label="票卡協尋"
       transform="matrix(0.36219344,0.27701274,-0.27701274,0.36219344,35.804449,-256.88573)"
       id="text4046"
       style="font-size:40px;line-height:1.25;letter-spacing:8.85928px;white-space:pre;shape-inside:url(#rect4048)">
      <path
         d="m 706.78367,219.67937 2.72,-1.92 q 1.6,0.84 3.4,1.96 1.8,1.08 3.4,2.2 1.64,1.08 2.72,2 l -2.96,2.2 q -0.96,-0.92 -2.56,-2.08 -1.56,-1.12 -3.32,-2.28 -1.76,-1.16 -3.4,-2.08 z m -18.64,-11 h 26.32 v 2.92 h -26.32 z m -4.84,5.2 h 36 v 3.08 h -36 z m 0.52,-22.6 h 34.72 v 3.04 h -34.72 z m 7.84,26.36 3.48,1.2 q -1.12,1.44 -2.72,2.8 -1.56,1.36 -3.24,2.52 -1.68,1.2 -3.32,2.04 -0.32,-0.32 -0.84,-0.8 -0.52,-0.48 -1.08,-0.96 -0.52,-0.48 -0.92,-0.76 2.44,-1.08 4.8,-2.68 2.36,-1.6 3.84,-3.36 z m -1.96,-17.88 v 3.92 h 23.08 v -3.92 z m -3.52,-2.8 h 30.32 v 9.52 h -30.32 z m 8.68,-4.52 h 3.48 v 12.84 h -3.48 z m 8.92,0 h 3.52 v 12.84 h -3.52 z m -4.44,22.24 h 3.76 v 12.32 h -3.76 z"
         style="font-weight:500;font-family:'Noto Sans TC';-inkscape-font-specification:'Noto Sans TC Medium';fill:#ffffff"
         id="path8758" />
      <path
         d="m 732.08288,204.27937 h 36.16 v 3.72 h -36.16 z m 17.56,-9.24 h 14.64 v 3.64 h -14.64 z m -2.48,-5.24 h 3.96 v 16.24 h -3.96 z m 0.16,16.92 h 3.96 v 20.2 h -3.96 z m 3.92,8.04 2,-2.92 q 1.52,0.56 3.32,1.28 1.84,0.72 3.68,1.48 1.84,0.72 3.48,1.44 1.64,0.72 2.8,1.32 l -2.08,3.36 q -1.12,-0.6 -2.72,-1.36 -1.6,-0.76 -3.44,-1.56 -1.8,-0.84 -3.64,-1.6 -1.8,-0.8 -3.4,-1.44 z"
         style="font-weight:500;font-family:'Noto Sans TC';-inkscape-font-specification:'Noto Sans TC Medium';fill:#ffffff"
         id="path8760" />
      <path
         d="m 804.42208,210.75937 h 10.52 v 2.92 h -10.52 z m -9.56,-16.8 h 17.96 v 3.08 h -17.96 z m -3.8,16.8 h 10.36 v 2.92 h -10.36 z m -10.64,-10.6 h 12.76 v 3.44 h -12.76 z m 4.68,-10.36 h 3.64 v 37.12 h -3.64 z m 15.28,20.96 h 3.08 q 0,0 0,0.52 0,0.48 -0.04,0.8 -0.12,4.56 -0.28,7.36 -0.16,2.76 -0.44,4.2 -0.24,1.44 -0.64,2 -0.44,0.6 -0.92,0.84 -0.48,0.28 -1.16,0.32 -0.56,0.12 -1.36,0.12 -0.8,0 -1.76,0 0,-0.68 -0.2,-1.56 -0.2,-0.84 -0.56,-1.44 0.8,0.08 1.4,0.08 0.6,0.04 0.96,0.04 0.32,0 0.52,-0.08 0.24,-0.08 0.4,-0.36 0.28,-0.36 0.44,-1.6 0.2,-1.24 0.32,-3.8 0.16,-2.6 0.24,-6.88 z m 13.48,0 h 3.16 q 0,0 0,0.52 0,0.48 0,0.84 -0.12,4.52 -0.32,7.32 -0.16,2.76 -0.4,4.2 -0.24,1.44 -0.68,2 -0.4,0.56 -0.92,0.8 -0.52,0.28 -1.2,0.36 -0.56,0.12 -1.44,0.12 -0.88,0 -1.88,0 -0.04,-0.72 -0.28,-1.6 -0.2,-0.88 -0.52,-1.48 0.84,0.08 1.48,0.08 0.68,0.04 1.04,0.04 0.36,0 0.56,-0.12 0.24,-0.08 0.44,-0.32 0.24,-0.36 0.4,-1.6 0.2,-1.24 0.32,-3.8 0.12,-2.56 0.24,-6.8 z m -1.72,-16.8 h 3.48 q 0,0 -0.04,0.52 -0.04,0.52 -0.08,0.88 -0.24,2.92 -0.52,4.84 -0.28,1.88 -0.64,2.96 -0.32,1.04 -0.84,1.6 -0.52,0.56 -1.16,0.8 -0.6,0.24 -1.44,0.28 -0.64,0.08 -1.84,0.12 -1.16,0 -2.48,-0.08 -0.04,-0.76 -0.32,-1.64 -0.24,-0.88 -0.68,-1.56 1.24,0.12 2.28,0.16 1.08,0.04 1.52,0.04 0.48,0 0.76,-0.04 0.28,-0.08 0.52,-0.32 0.48,-0.48 0.84,-2.28 0.36,-1.8 0.64,-5.8 z m -9.4,-4.16 h 3.56 q -0.24,3.08 -0.84,5.68 -0.6,2.56 -1.84,4.68 -1.2,2.08 -3.28,3.72 -2.08,1.6 -5.24,2.8 -0.24,-0.6 -0.84,-1.36 -0.56,-0.8 -1.08,-1.28 2.88,-1 4.68,-2.32 1.8,-1.36 2.8,-3.12 1.04,-1.8 1.48,-4 0.44,-2.2 0.6,-4.8 z m -7.84,17 h 3.24 q -0.08,4.44 -0.6,8.24 -0.52,3.76 -1.84,6.8 -1.28,3 -3.72,5.2 -0.32,-0.56 -0.92,-1.28 -0.6,-0.68 -1.16,-1.08 2.12,-1.88 3.16,-4.52 1.08,-2.68 1.4,-6.04 0.36,-3.36 0.44,-7.32 z m 13.2,-0.12 h 3.32 q -0.12,4.52 -0.68,8.32 -0.52,3.76 -1.88,6.76 -1.32,2.96 -3.88,5.12 -0.32,-0.6 -0.96,-1.32 -0.6,-0.68 -1.16,-1.08 2.24,-1.84 3.32,-4.44 1.08,-2.6 1.44,-5.96 0.4,-3.4 0.48,-7.4 z"
         style="font-weight:500;font-family:'Noto Sans TC';-inkscape-font-specification:'Noto Sans TC Medium';fill:#ffffff"
         id="path8762" />
      <path
         d="m 835.00128,191.71937 h 25.6 v 11.76 h -25.8 v -2.56 h 22.08 v -6.64 h -21.88 z m 17,16.04 v 3.44 h 8.12 v -3.44 z m -3.52,-2.52 h 15.36 v 8.48 h -15.36 z m -18.52,-8.88 h 28.76 v 2.48 h -28.76 z m 28.64,-0.28 h 7.32 v 2.96 h -7.32 z m -27.48,9.16 h 14.92 v 2.72 h -14.92 z m -1.48,10.64 h 36.44 v 3.12 h -36.44 z m 24.6,-2.6 h 3.72 v 10.04 q 0,1.36 -0.4,2.08 -0.4,0.72 -1.48,1.08 -1.08,0.36 -2.76,0.4 -1.64,0.08 -4.08,0.08 -0.16,-0.68 -0.52,-1.56 -0.36,-0.88 -0.72,-1.52 1.2,0.04 2.28,0.04 1.12,0.04 1.92,0 0.84,0 1.16,0 0.52,-0.04 0.68,-0.2 0.2,-0.12 0.2,-0.52 z m -17.56,-7.04 h 3.56 v 5.72 h -3.56 z m -6.28,5.4 q 2.08,-0.12 4.72,-0.24 2.64,-0.16 5.64,-0.36 3,-0.2 6,-0.36 l -0.04,2.72 q -4.32,0.36 -8.6,0.64 -4.28,0.28 -7.48,0.52 z m 5.92,8.76 2.56,-2.16 q 1.12,0.64 2.28,1.48 1.16,0.8 2.16,1.64 1,0.84 1.64,1.6 l -2.72,2.36 q -0.56,-0.76 -1.56,-1.64 -0.96,-0.88 -2.12,-1.72 -1.12,-0.88 -2.24,-1.56 z"
         style="font-weight:500;font-family:'Noto Sans TC';-inkscape-font-specification:'Noto Sans TC Medium';fill:#ffffff"
         id="path8764" />
    </g>
    <g
       aria-label="1"
       transform="matrix(1.6240735,0,0,1.6240735,-180.59755,-177.51603)"
       id="text9797"
       style="font-size:40px;line-height:1.25;white-space:pre;shape-inside:url(#rect9799)">
      <path
         d="m 142.57625,163.17308 v -25.16 h -5.76 v -4.64 h 11.2 v 29.8 z"
         style="font-weight:bold;font-family:'Plus Jakarta Sans';-inkscape-font-specification:'Plus Jakarta Sans Bold';fill:#ffffff"
         id="path5735" />
    </g>
    <text
       xml:space="preserve"
       transform="scale(0.26458333)"
       id="text22813"
       style="fill:black;fill-opacity:1;line-height:1.25;stroke:none;font-family:sans-serif;font-style:normal;font-weight:normal;font-size:40px;white-space:pre;shape-inside:url(#rect22815)" />
    <g
       aria-label="下載台北
捷運APP"
       id="text24009"
       style="font-size:15.4755px;line-height:1.25;stroke-width:0.386888">
      <path
         d="m 40.961184,106.39114 h 13.78867 v 1.16067 h -13.78867 z m 5.973543,0.91306 h 1.222564 v 12.16374 h -1.222564 z m 0.665446,3.66769 0.773775,-0.8821 q 0.696398,0.32498 1.470173,0.74282 0.773775,0.41784 1.532074,0.86663 0.7583,0.43331 1.408271,0.85115 0.665446,0.41784 1.129711,0.77378 l -0.820201,1.05233 q -0.44879,-0.35593 -1.098761,-0.78925 -0.634495,-0.44879 -1.392795,-0.89758 -0.742824,-0.46426 -1.516599,-0.89758 -0.773775,-0.44879 -1.485648,-0.8202 z"
         style="font-family:'Noto Sans TC';-inkscape-font-specification:'Noto Sans TC';fill:#ffffff"
         id="path5738" />
      <path
         d="m 66.882617,106.01973 0.835677,-0.57259 q 0.603544,0.46426 1.222564,1.06781 0.61902,0.58807 0.944006,1.05233 l -0.866628,0.6345 q -0.201182,-0.30951 -0.557118,-0.68092 -0.355937,-0.38689 -0.773775,-0.77378 -0.402363,-0.40236 -0.804726,-0.72735 z m -10.461438,2.64631 h 13.881523 v 0.99043 H 56.421179 Z m 0.696397,-2.18204 h 6.716367 v 0.92853 h -6.716367 z m -0.278559,4.19386 h 7.288961 v 0.8821 h -7.288961 z m -0.232132,6.36043 h 7.582995 v 0.91305 h -7.582995 z m 3.311757,-11.80781 h 1.114236 v 4.27124 h -1.114236 z m -1.841585,9.37815 v 0.89758 h 4.797405 v -0.89758 z m 0,-1.53207 v 0.8821 h 4.797405 v -0.8821 z m -0.866628,-0.68092 h 6.577088 v 3.7915 h -6.577088 z m 2.801066,0.40236 h 0.897579 v 3.14153 h 0.0619 v 3.55936 h -1.036859 v -3.55936 h 0.07738 z m -0.07738,-3.11057 h 1.052334 v 2.94034 h -1.052334 z m 4.766454,-4.426 h 1.160663 q -0.01548,2.213 0.108328,4.19386 0.123804,1.98087 0.371412,3.60579 0.263084,1.62493 0.61902,2.81655 0.371412,1.17613 0.851153,1.8261 0.47974,0.6345 1.052334,0.6345 0.324985,0 0.464265,-0.60354 0.154755,-0.61902 0.216657,-2.04277 0.185706,0.18571 0.448789,0.35594 0.278559,0.15475 0.510692,0.23213 -0.09285,1.23804 -0.278559,1.93444 -0.185706,0.69639 -0.541643,0.97495 -0.340461,0.29404 -0.913054,0.29404 -0.773775,0 -1.37732,-0.52617 -0.588069,-0.51069 -1.036858,-1.4547 -0.433314,-0.944 -0.7583,-2.24394 -0.30951,-1.31542 -0.510691,-2.89392 -0.185706,-1.59398 -0.278559,-3.37366 -0.09285,-1.79516 -0.108329,-3.7296 z m 3.868875,5.23072 1.036859,0.34046 q -0.572594,1.79516 -1.439222,3.42009 -0.851152,1.60945 -1.996339,2.95582 -1.145187,1.33089 -2.553458,2.2749 -0.139279,-0.20118 -0.371412,-0.44879 -0.232132,-0.24761 -0.464265,-0.41784 1.37732,-0.85115 2.47608,-2.10467 1.114236,-1.25351 1.949913,-2.78559 0.835677,-1.53207 1.361844,-3.23438 z"
         style="font-family:'Noto Sans TC';-inkscape-font-specification:'Noto Sans TC';fill:#ffffff"
         id="path5740" />
      <path
         d="m 74.419156,117.50255 h 8.712706 v 1.12971 h -8.712706 z m -0.588069,-4.54979 h 9.935271 v 6.48423 h -1.23804 v -5.37 h -7.521093 v 5.40095 h -1.176138 z m 6.49971,-5.33905 0.913054,-0.61902 q 0.7583,0.66544 1.563026,1.47017 0.804726,0.80473 1.485648,1.60945 0.680922,0.80473 1.083285,1.4547 l -0.990432,0.71187 q -0.386888,-0.64997 -1.052334,-1.47017 -0.649971,-0.8202 -1.454697,-1.6404 -0.789251,-0.83568 -1.54755,-1.5166 z m -7.319912,4.0391 q -0.01547,-0.1238 -0.09285,-0.32498 -0.07738,-0.21666 -0.154755,-0.43332 -0.0619,-0.23213 -0.139279,-0.38688 0.263083,-0.0464 0.572593,-0.29404 0.30951,-0.24761 0.696398,-0.61902 0.201181,-0.20118 0.61902,-0.63449 0.417838,-0.43332 0.92853,-1.03686 0.510691,-0.60355 1.036858,-1.29994 0.541643,-0.71188 1.005908,-1.43923 l 1.160662,0.5107 q -0.742824,1.02138 -1.563025,1.99634 -0.804726,0.95948 -1.655879,1.81063 -0.835677,0.83568 -1.655878,1.5166 v 0.0464 q 0,0 -0.108329,0.0619 -0.108328,0.0464 -0.278559,0.13928 -0.154755,0.0928 -0.263083,0.20118 -0.108329,0.0928 -0.108329,0.1857 z m 0,0 -0.01547,-0.91305 0.866628,-0.44879 9.888844,-0.44879 q 0.01548,0.23213 0.04643,0.54164 0.04643,0.30951 0.07738,0.49522 -2.321325,0.1238 -4.008154,0.21666 -1.671354,0.0929 -2.816541,0.15475 -1.145187,0.0619 -1.872536,0.1238 -0.727348,0.0464 -1.145187,0.0929 -0.417838,0.0309 -0.649971,0.0774 -0.216657,0.0464 -0.371412,0.10832 z"
         style="font-family:'Noto Sans TC';-inkscape-font-specification:'Noto Sans TC';fill:#ffffff"
         id="path5742" />
      <path
         d="m 87.526874,109.17673 h 4.565272 v 1.16067 h -4.565272 z m 7.753225,-3.63674 h 1.207089 v 11.26617 q 0,0.57259 0.123804,0.74282 0.123804,0.17023 0.572594,0.17023 0.108328,0 0.355936,0 0.247608,0 0.541643,0 0.30951,0 0.572593,0 0.263084,0 0.386888,0 0.355936,0 0.526167,-0.30951 0.17023,-0.30951 0.232132,-1.11424 0.07738,-0.80472 0.123804,-2.30585 0.154751,0.12381 0.355941,0.24761 0.20118,0.10833 0.40236,0.20118 0.20118,0.0774 0.35594,0.12381 -0.0619,1.59397 -0.21666,2.53798 -0.15476,0.94401 -0.54164,1.34637 -0.386892,0.41784 -1.145191,0.41784 -0.108329,0 -0.402363,0 -0.294035,0 -0.649971,0 -0.355937,0 -0.649971,0 -0.278559,0 -0.386888,0 -0.665446,0 -1.052334,-0.18571 -0.386887,-0.17023 -0.557118,-0.61902 -0.154755,-0.46426 -0.154755,-1.26899 z m -3.806973,-0.0155 h 1.191614 v 11.45187 H 91.473126 Z M 87.062609,118.168 q 0.835677,-0.29404 1.934437,-0.6964 1.114236,-0.41784 2.367752,-0.89758 1.253515,-0.47974 2.47608,-0.944 l 0.201181,1.02138 q -1.114236,0.47974 -2.259423,0.95948 -1.145187,0.46427 -2.212996,0.89758 -1.06781,0.44879 -1.965389,0.8202 z m 8.851986,-9.00674 h 4.921205 v 1.16066 h -4.921205 z"
         style="font-family:'Noto Sans TC';-inkscape-font-specification:'Noto Sans TC';fill:#ffffff"
         id="path5744" />
      <path
         d="m 45.681211,127.40176 h 9.037692 v 0.95948 h -9.037692 z m 4.425993,8.60438 h 4.02363 v 0.944 h -4.02363 z m -4.64265,-4.51885 h 9.625761 v 0.95948 h -9.625761 z m 0.897579,-2.08919 h 7.629422 v 5.24619 h -7.629422 v -0.91305 h 6.546137 v -3.40461 h -6.546137 z m 3.157002,-3.37366 h 1.098761 v 13.44821 l -1.098761,-0.55712 z m -2.986771,8.88294 1.083285,0.13928 q -0.263084,1.7023 -0.835677,3.04867 -0.572594,1.33089 -1.501124,2.22847 -0.07738,-0.10833 -0.247608,-0.23213 -0.17023,-0.1238 -0.340461,-0.24761 -0.17023,-0.1238 -0.30951,-0.1857 0.913055,-0.80473 1.423746,-2.01182 0.526167,-1.22256 0.727349,-2.73916 z m 0.665446,1.40827 q 0.417839,1.14519 1.098761,1.74873 0.696397,0.60354 1.640403,0.83568 0.959481,0.21665 2.120143,0.21665 0.13928,0 0.541643,0 0.417838,0 0.913054,0 0.495216,0 0.92853,0 0.44879,0 0.649971,-0.0155 -0.07738,0.1238 -0.154755,0.30951 -0.07738,0.1857 -0.139279,0.37141 -0.04643,0.20118 -0.0619,0.34046 h -0.665447 -2.058241 q -1.408271,0 -2.491556,-0.27856 -1.067809,-0.27856 -1.85706,-1.03686 -0.773775,-0.7583 -1.315417,-2.15109 z m -6.654465,-2.25942 q 0.897579,-0.26309 2.16657,-0.64998 1.284467,-0.40236 2.599884,-0.8202 l 0.170231,1.06781 q -1.207089,0.40237 -2.429654,0.80473 -1.222564,0.40236 -2.212996,0.71187 z m 0.216657,-4.90574 h 4.689077 v 1.08329 h -4.689077 z m 1.934438,-3.11057 h 1.083285 v 12.87561 q 0,0.46427 -0.123804,0.72735 -0.108329,0.26308 -0.402363,0.40236 -0.278559,0.13928 -0.742824,0.18571 -0.464265,0.0464 -1.207089,0.0309 -0.01548,-0.20118 -0.123804,-0.52617 -0.09285,-0.30951 -0.201182,-0.55711 0.495216,0.0155 0.897579,0.0155 0.417839,0.0155 0.557118,0 0.13928,0 0.201182,-0.0619 0.0619,-0.0464 0.0619,-0.21666 z"
         style="font-family:'Noto Sans TC';-inkscape-font-specification:'Noto Sans TC';fill:#ffffff"
         id="path5746" />
      <path
         d="m 64.607718,128.09816 h 1.129712 v 10.19835 h -1.129712 z m -2.321325,5.18429 v 1.05233 h 5.834264 v -1.05233 z m 0,-1.77968 v 1.02138 h 5.834264 v -1.02138 z m -0.974956,-0.80473 h 7.815127 v 4.426 h -7.815127 z m -0.866628,-4.13196 h 9.409104 v 2.78559 h -1.114236 v -1.87253 h -7.227059 v 1.87253 h -1.067809 z m 1.191613,2.3368 h 7.11873 v 0.86663 h -7.11873 z m -1.114236,7.19611 h 9.517433 v 0.92853 h -9.517433 z m -3.652218,-9.56386 0.882104,-0.51069 q 0.526167,0.57259 1.052334,1.25352 0.526167,0.66544 0.804726,1.16066 l -0.913055,0.60354 q -0.185706,-0.34046 -0.495216,-0.77377 -0.30951,-0.43332 -0.665446,-0.8821 -0.340461,-0.46427 -0.665447,-0.85116 z m -0.572593,3.07963 h 3.26533 v 0.97495 h -3.26533 z m 2.770114,7.0723 q 0.479741,1.02138 1.299942,1.5166 0.835677,0.49522 2.027291,0.64997 1.191613,0.13928 2.739163,0.15476 0.820202,0 1.779683,-0.031 0.974956,-0.0309 1.934437,-0.0619 0.974957,-0.0464 1.779683,-0.1238 -0.09285,0.1238 -0.170231,0.30951 -0.0619,0.20118 -0.123804,0.41784 -0.0619,0.21665 -0.09285,0.37141 -0.727348,0.0309 -1.593976,0.0619 -0.851153,0.0464 -1.764207,0.0464 -0.897579,0.0155 -1.764207,0.0155 -1.361844,0 -2.445129,-0.10833 -1.06781,-0.10832 -1.903487,-0.41783 -0.820201,-0.30951 -1.439221,-0.89758 -0.603545,-0.58807 -1.036859,-1.54755 z m 0,-3.23438 h 0.324986 l 0.201181,-0.0155 0.526167,0.20118 q -0.355936,2.44513 -1.222564,4.101 -0.851153,1.65588 -2.058242,2.53799 -0.07738,-0.12381 -0.232132,-0.27856 -0.13928,-0.13928 -0.294035,-0.29404 -0.139279,-0.13928 -0.263083,-0.21665 1.145187,-0.80473 1.934437,-2.2749 0.789251,-1.47017 1.083285,-3.55937 z m -2.537982,1.17614 v -0.89758 l 0.557118,-0.27856 h 2.445129 v 0.94401 h -2.089192 q -0.278559,0 -0.557118,0.0774 -0.263084,0.0619 -0.355937,0.15476 z m 0,0 q -0.03095,-0.13928 -0.123804,-0.34046 -0.07738,-0.20118 -0.154755,-0.40236 -0.07738,-0.20119 -0.154755,-0.30951 0.185706,-0.0464 0.371412,-0.13928 0.185706,-0.10833 0.371412,-0.32499 0.185706,-0.17023 0.495216,-0.60354 0.324986,-0.43332 0.680922,-0.95949 0.371412,-0.54164 0.696398,-1.03685 0.340461,-0.49522 0.526167,-0.80473 v -0.0309 l 0.340461,-0.15476 0.773775,0.35594 q -0.263084,0.38689 -0.634496,0.92853 -0.371412,0.52617 -0.78925,1.09876 -0.402363,0.57259 -0.804726,1.09876 -0.386888,0.52617 -0.711873,0.89758 0,0 -0.13928,0.0774 -0.123804,0.0619 -0.30951,0.1857 -0.17023,0.10833 -0.30951,0.23214 -0.123804,0.10833 -0.123804,0.23213 z"
         style="font-family:'Noto Sans TC';-inkscape-font-specification:'Noto Sans TC';fill:#ffffff"
         id="path5748" />
      <path
         d="m 71.122874,139.02386 3.837924,-11.34354 h 1.593977 l 3.853399,11.34354 h -1.516599 l -1.980864,-6.34495 q -0.30951,-0.97496 -0.588069,-1.90349 -0.278559,-0.94401 -0.557118,-1.93444 h -0.0619 q -0.263083,0.99043 -0.557118,1.93444 -0.278559,0.92853 -0.572593,1.90349 l -2.011815,6.34495 z m 1.99634,-3.46651 v -1.12971 h 5.230719 v 1.12971 z"
         style="font-family:'Noto Sans TC';-inkscape-font-specification:'Noto Sans TC';fill:#ffffff"
         id="path5750" />
      <path
         d="m 82.033099,139.02386 v -11.34354 h 3.23438 q 1.268991,0 2.228472,0.32499 0.959481,0.30951 1.485648,1.03685 0.526167,0.72735 0.526167,1.96539 0,1.19162 -0.526167,1.96539 -0.526167,0.77378 -1.470173,1.16066 -0.944005,0.37142 -2.182045,0.37142 h -1.872536 v 4.51884 z m 1.423746,-5.67951 h 1.68683 q 1.485648,0 2.212996,-0.55712 0.727349,-0.55711 0.727349,-1.77968 0,-1.23804 -0.7583,-1.7023 -0.742824,-0.46427 -2.243947,-0.46427 h -1.624928 z"
         style="font-family:'Noto Sans TC';-inkscape-font-specification:'Noto Sans TC';fill:#ffffff"
         id="path5752" />
      <path
         d="m 91.829082,139.02386 v -11.34354 h 3.234379 q 1.268991,0 2.228472,0.32499 0.959481,0.30951 1.485648,1.03685 0.526167,0.72735 0.526167,1.96539 0,1.19162 -0.526167,1.96539 -0.526167,0.77378 -1.470172,1.16066 -0.944006,0.37142 -2.182046,0.37142 h -1.872535 v 4.51884 z m 1.423746,-5.67951 h 1.686829 q 1.485648,0 2.212997,-0.55712 0.727348,-0.55711 0.727348,-1.77968 0,-1.23804 -0.758299,-1.7023 -0.742824,-0.46427 -2.243948,-0.46427 h -1.624927 z"
         style="font-family:'Noto Sans TC';-inkscape-font-specification:'Noto Sans TC';fill:#ffffff"
         id="path5754" />
    </g>
    <g
       aria-label="2"
       transform="matrix(1.6240735,0,0,1.6240735,-101.85253,-178.51195)"
       id="text9797-0"
       style="font-size:40px;line-height:1.25;white-space:pre;shape-inside:url(#rect9799-3)">
      <path
         d="m 137.49625,163.17308 v -4.12 l 8.08,-8.44 q 2.4,-2.52 3.68,-4 1.32,-1.52 1.84,-2.6 0.52,-1.08 0.52,-2.2 0,-1.88 -1.2,-2.96 -1.16,-1.08 -3,-1.08 -1.92,0 -3.32,1.12 -1.4,1.08 -2.04,3.2 l -4.76,-1.48 q 0.48,-2.36 1.96,-4.08 1.48,-1.76 3.6,-2.68 2.16,-0.96 4.56,-0.96 2.88,0 5.04,1.04 2.2,1.04 3.4,2.92 1.24,1.88 1.24,4.4 0,1.6 -0.6,3.16 -0.6,1.56 -1.8,3.2 -1.2,1.6 -3.12,3.6 l -7,7.36 h 12.92 v 4.6 z"
         style="font-weight:bold;font-family:'Plus Jakarta Sans';-inkscape-font-specification:'Plus Jakarta Sans Bold';fill:#ffffff"
         id="path5757" />
    </g>
    <g
       aria-label="會員票卡
綁定"
       id="text24009-2"
       style="font-size:15.4755px;line-height:1.25;stroke-width:0.386888">
      <path
         d="m 122.38347,109.49623 v 2.32133 h 8.37225 v -2.32133 z m -1.00591,-0.80472 h 10.43049 v 3.9153 h -10.43049 z m 2.53799,-1.62493 h 5.40094 v 0.83568 h -5.40094 z m 2.13561,1.91896 h 0.99044 v 3.23438 h -0.99044 z m -2.73916,0.97496 0.85115,-0.29404 q 0.29404,0.41784 0.54165,0.91306 0.26308,0.47974 0.37141,0.85115 l -0.88211,0.32499 q -0.0929,-0.37142 -0.34046,-0.88211 -0.2476,-0.51069 -0.54164,-0.91305 z m 5.58666,-0.35594 0.99043,0.32499 q -0.26309,0.49521 -0.54164,0.99043 -0.27856,0.49521 -0.5107,0.83568 l -0.8202,-0.27856 q 0.21666,-0.38689 0.47974,-0.92853 0.26309,-0.54165 0.40237,-0.94401 z m -6.60804,3.74507 h 8.75913 v 5.07597 h -1.17614 v -4.24029 h -6.43781 v 4.28671 h -1.14518 z m 0.68092,1.87254 h 7.39729 v 0.83567 h -7.39729 z m 0.0155,1.90348 h 7.39728 v 0.82021 h -7.39728 z m 3.49746,-12.93751 1.02138,0.38688 q -0.80472,1.05234 -1.99634,1.91897 -1.19161,0.85115 -2.58441,1.50112 -1.39279,0.64997 -2.81654,1.11424 -0.0619,-0.12381 -0.1857,-0.29404 -0.10833,-0.17023 -0.24761,-0.34046 -0.12381,-0.17023 -0.23213,-0.27856 1.40827,-0.38689 2.73916,-0.95948 1.34637,-0.57259 2.4606,-1.34637 1.11424,-0.77377 1.84159,-1.7023 z m 0.66544,0.52616 q 0.54165,0.55712 1.29995,1.08329 0.77377,0.51069 1.67135,0.95948 0.89758,0.43331 1.85706,0.77377 0.97496,0.34047 1.91896,0.55712 -0.20118,0.15476 -0.41784,0.43332 -0.20118,0.26308 -0.34046,0.47974 -0.92853,-0.26309 -1.90348,-0.64997 -0.97496,-0.40237 -1.90349,-0.91306 -0.91305,-0.51069 -1.7023,-1.09876 -0.78926,-0.58807 -1.37732,-1.23804 z"
         style="font-family:'Noto Sans TC';-inkscape-font-specification:'Noto Sans TC';fill:#ffffff"
         id="path5760" />
      <path
         d="m 138.43153,105.79759 v 1.59397 h 7.35087 v -1.59397 z m -1.16066,-0.94401 h 9.73409 v 3.49747 h -9.73409 z m 0.47974,7.14968 v 1.09876 h 8.66628 v -1.09876 z m 0,1.91897 v 1.11423 h 8.66628 v -1.11423 z m 0,-3.82245 v 1.08328 h 8.66628 v -1.08328 z m -1.14518,-0.86663 h 11.00308 v 6.66994 h -11.00308 z m 2.94034,6.63899 1.08329,0.71187 q -0.61902,0.37141 -1.4547,0.74283 -0.8202,0.37141 -1.70231,0.66544 -0.86662,0.30951 -1.68683,0.51069 -0.13928,-0.1857 -0.40236,-0.44879 -0.24761,-0.2476 -0.44879,-0.40236 0.8202,-0.20118 1.70231,-0.49521 0.8821,-0.29404 1.65588,-0.61902 0.77377,-0.34047 1.25351,-0.66545 z m 3.7915,0.8202 0.99043,-0.7583 q 0.8202,0.23213 1.71778,0.54164 0.89758,0.30951 1.73326,0.6345 0.85115,0.30951 1.43922,0.57259 l -0.99043,0.83568 q -0.5726,-0.27856 -1.42375,-0.61902 -0.83568,-0.32499 -1.74873,-0.64997 -0.91306,-0.32499 -1.71778,-0.55712 z"
         style="font-family:'Noto Sans TC';-inkscape-font-specification:'Noto Sans TC';fill:#ffffff"
         id="path5762" />
      <path
         d="m 159.80317,115.59358 0.83568,-0.58807 q 0.63449,0.32499 1.33089,0.7583 0.71187,0.43331 1.34637,0.86663 0.64997,0.43331 1.06781,0.78925 l -0.89758,0.6964 q -0.38689,-0.35594 -1.00591,-0.80473 -0.61902,-0.43331 -1.33089,-0.89758 -0.6964,-0.46426 -1.34637,-0.8202 z m -7.28896,-3.99268 h 10.09003 v 0.92853 h -10.09003 z m -1.87254,1.99634 h 13.85058 v 0.97496 h -13.85058 z m 0.17024,-8.72818 h 13.37083 v 0.95948 h -13.37083 z m 3.18795,10.09002 1.08328,0.37142 q -0.46426,0.54164 -1.08328,1.08328 -0.61902,0.52617 -1.29994,0.97496 -0.66545,0.44879 -1.31542,0.78925 -0.0774,-0.10833 -0.24761,-0.26309 -0.17023,-0.15475 -0.34046,-0.29403 -0.15476,-0.13928 -0.29403,-0.23213 0.99043,-0.43332 1.93443,-1.06781 0.95948,-0.64997 1.56303,-1.36185 z m -1.17614,-7.04135 v 1.77968 h 9.47101 v -1.77968 z m -1.08328,-0.89758 h 11.69947 v 3.57484 h -11.69947 z m 3.43556,-1.79516 h 1.06781 v 4.95216 H 155.176 Z m 3.52841,0 h 1.09876 v 4.95216 h -1.09876 z m -1.73326,8.63533 h 1.14519 v 4.65813 h -1.14519 z"
         style="font-family:'Noto Sans TC';-inkscape-font-specification:'Noto Sans TC';fill:#ffffff"
         id="path5764" />
      <path
         d="m 166.08619,109.94502 h 13.88153 v 1.14519 h -13.88153 z m 6.71637,-3.49746 h 5.60213 v 1.11424 h -5.60213 z m -0.72735,-2.19752 h 1.20709 v 6.23662 h -1.20709 z m 0.0464,6.48423 h 1.20709 v 7.75323 h -1.20709 z m 1.42374,2.92487 0.60355,-0.89758 q 0.60354,0.23214 1.29994,0.51069 0.71187,0.27856 1.40827,0.5726 0.71187,0.29403 1.33089,0.57259 0.6345,0.27856 1.08329,0.51069 l -0.6345,1.02139 q -0.43331,-0.23214 -1.05233,-0.52617 -0.60354,-0.29404 -1.31542,-0.60355 -0.69639,-0.30951 -1.40827,-0.60354 -0.6964,-0.30951 -1.31542,-0.55712 z"
         style="font-family:'Noto Sans TC';-inkscape-font-specification:'Noto Sans TC';fill:#ffffff"
         id="path5766" />
      <path
         d="m 129.65696,126.01896 h 3.12605 v 1.0059 h -2.16657 v 12.24112 h -0.95948 z m 2.81654,0 h 0.15475 l 0.15476,-0.0464 0.72735,0.41784 q -0.26309,1.0059 -0.61902,2.19752 -0.35594,1.19161 -0.7583,2.42965 0.7583,1.12971 1.08328,1.99634 0.34046,0.86663 0.34046,1.6404 0.0155,0.66545 -0.13928,1.23804 -0.15475,0.55712 -0.46426,0.83568 -0.12381,0.12381 -0.32499,0.18571 -0.1857,0.0619 -0.41784,0.0928 -0.20118,0.0155 -0.46426,0.0309 -0.26309,0 -0.51069,-0.0155 -0.0155,-0.20119 -0.0929,-0.49522 -0.0774,-0.29403 -0.20118,-0.51069 0.26309,0.0309 0.47974,0.0464 0.23214,0 0.40237,-0.0155 0.29403,-0.0155 0.44879,-0.13928 0.17023,-0.15476 0.2476,-0.51069 0.0774,-0.37141 0.0774,-0.77378 0,-0.71187 -0.34046,-1.5166 -0.32499,-0.80472 -1.06781,-1.94991 0.40236,-1.40827 0.72735,-2.70821 0.34046,-1.29994 0.55712,-2.32133 z m -7.55205,4.51884 h 4.02363 v 1.02138 h -4.02363 z m 1.62493,-5.4319 h 1.02138 v 6.46876 q 0,1.48565 -0.15475,2.86297 -0.13928,1.37732 -0.61902,2.61536 -0.46427,1.22256 -1.4547,2.24394 -0.0928,-0.1238 -0.24761,-0.26308 -0.15475,-0.1238 -0.32498,-0.26308 -0.15476,-0.12381 -0.29404,-0.20118 0.92853,-0.92853 1.36185,-2.02729 0.44879,-1.11424 0.57259,-2.36776 0.13928,-1.25351 0.13928,-2.61536 z m -1.99634,8.75913 h 4.70455 v 1.03686 h -4.70455 z m -1.90349,-2.64631 0.77378,-0.21665 q 0.20118,0.49521 0.37141,1.05233 0.17023,0.55712 0.30951,1.08329 0.13928,0.52616 0.20118,0.89757 l -0.83567,0.27856 q -0.0619,-0.38688 -0.18571,-0.91305 -0.1238,-0.54164 -0.29403,-1.11424 -0.15476,-0.57259 -0.34047,-1.06781 z m -1.23804,3.9153 0.77378,-0.17023 q 0.15475,0.78925 0.26308,1.71778 0.12381,0.91306 0.15476,1.57851 l -0.8202,0.1857 q 0,-0.44879 -0.0774,-1.02138 -0.0619,-0.57259 -0.13928,-1.16066 -0.0619,-0.60355 -0.15476,-1.12972 z m -1.28446,-0.15475 0.8202,0.15475 q -0.10833,0.99044 -0.30951,2.01182 -0.20118,1.00591 -0.44879,1.73326 -0.1238,-0.0774 -0.38689,-0.17023 -0.24761,-0.0929 -0.41784,-0.13928 0.29404,-0.71188 0.44879,-1.67136 0.17023,-0.97495 0.29404,-1.91896 z m -0.37141,-4.16291 q -0.0155,-0.10833 -0.0774,-0.29403 -0.0619,-0.18571 -0.13928,-0.37142 -0.0619,-0.20118 -0.10833,-0.34046 0.18571,-0.0464 0.35594,-0.27856 0.1857,-0.23213 0.37141,-0.58807 0.15475,-0.21665 0.44879,-0.83567 0.30951,-0.61902 0.64997,-1.42375 0.35594,-0.8202 0.60354,-1.65588 l 0.97496,0.41784 q -0.30951,0.85115 -0.71187,1.71778 -0.38689,0.86663 -0.8202,1.65588 -0.43332,0.77378 -0.86663,1.3928 v 0.031 q 0,0 -0.10833,0.0619 -0.0928,0.0464 -0.23213,0.13928 -0.13928,0.0928 -0.24761,0.20118 -0.0928,0.0928 -0.0928,0.17023 z m 0,0 -0.0155,-0.80473 0.51069,-0.34046 2.53798,-0.23213 q -0.031,0.20118 -0.0619,0.46427 -0.0155,0.26308 -0.0155,0.43331 -1.16067,0.1238 -1.74874,0.21666 -0.58806,0.0928 -0.83567,0.15475 -0.24761,0.0464 -0.37141,0.10833 z m 0.10832,3.49746 q -0.031,-0.10833 -0.0929,-0.29403 -0.0464,-0.18571 -0.1238,-0.38689 -0.0619,-0.20118 -0.12381,-0.32498 0.23214,-0.0619 0.46427,-0.34047 0.24761,-0.27855 0.55712,-0.71187 0.17023,-0.21666 0.47974,-0.6964 0.32498,-0.47974 0.71187,-1.14518 0.40236,-0.68092 0.80473,-1.4547 0.40236,-0.77377 0.71187,-1.54755 l 0.944,0.47974 q -0.51069,1.06781 -1.12971,2.12014 -0.60354,1.05234 -1.25351,2.01182 -0.64997,0.944 -1.31542,1.71778 v 0.0155 q 0,0 -0.0928,0.0619 -0.0929,0.0464 -0.23214,0.13928 -0.1238,0.0774 -0.21665,0.17023 -0.0929,0.0928 -0.0929,0.1857 z m 0,0 -0.0464,-0.83567 0.47974,-0.37142 3.49746,-0.58806 q -0.031,0.21665 -0.031,0.46426 0.0155,0.24761 0.031,0.41784 -1.20709,0.23213 -1.93444,0.38689 -0.72734,0.13928 -1.12971,0.2476 -0.40236,0.0929 -0.58807,0.15476 -0.17023,0.0619 -0.27856,0.1238 z m 2.87845,0.54165 0.74282,-0.23214 q 0.26308,0.68093 0.51069,1.48565 0.26309,0.80473 0.37141,1.3928 l -0.77377,0.26308 q -0.1238,-0.58807 -0.37141,-1.3928 -0.24761,-0.8202 -0.47974,-1.51659 z m 5.78783,-8.07822 0.60355,0.95949 q -0.57259,0.23213 -1.31542,0.43331 -0.74282,0.18571 -1.53207,0.32499 -0.78925,0.1238 -1.50113,0.21665 -0.0309,-0.1857 -0.1238,-0.44879 -0.0774,-0.26308 -0.18571,-0.46426 0.6964,-0.10833 1.43922,-0.24761 0.7583,-0.15476 1.43923,-0.35594 0.69639,-0.20118 1.17613,-0.41784 z"
         style="font-family:'Noto Sans TC';-inkscape-font-specification:'Noto Sans TC';fill:#ffffff"
         id="path5768" />
      <path
         d="m 137.59586,129.79498 h 9.03769 v 1.12971 h -9.03769 z m 4.45694,3.66769 h 5.21525 v 1.08329 h -5.21525 z m -0.60354,-3.14153 h 1.20709 v 7.84608 l -1.20709,-0.17023 z m -3.65222,1.85706 1.17614,0.12381 q -0.30951,2.3368 -1.06781,4.10101 -0.7583,1.7642 -2.07372,2.90939 -0.0774,-0.10833 -0.24761,-0.26308 -0.17023,-0.13928 -0.35593,-0.29404 -0.18571,-0.13928 -0.34046,-0.21666 1.29994,-1.0059 1.98086,-2.63083 0.68092,-1.62493 0.92853,-3.7296 z m 0.74282,1.98087 q 0.40237,1.17614 1.05234,1.91896 0.64997,0.72735 1.50112,1.11424 0.85115,0.38688 1.87254,0.52616 1.03685,0.13928 2.22847,0.13928 0.17023,0 0.55712,0 0.38688,0 0.86662,0 0.49522,0 1.00591,0 0.51069,0 0.92853,0 0.41784,-0.0155 0.6345,-0.0155 -0.0774,0.13928 -0.17023,0.34046 -0.0929,0.21666 -0.17023,0.43331 -0.0619,0.23213 -0.0929,0.40237 h -0.77377 -2.84749 q -1.37732,0 -2.55346,-0.18571 -1.16066,-0.17023 -2.10467,-0.64997 -0.92853,-0.47974 -1.65588,-1.36185 -0.72735,-0.89757 -1.22256,-2.30585 z m -2.94034,-7.38182 h 12.93752 v 3.37366 h -1.19162 v -2.27489 h -10.60071 v 2.27489 h -1.14519 z m 5.32357,-1.53207 1.14519,-0.32499 q 0.26308,0.44879 0.52616,0.99044 0.27856,0.52616 0.38689,0.91305 l -1.19161,0.37141 q -0.10833,-0.37141 -0.35594,-0.92853 -0.24761,-0.55711 -0.51069,-1.02138 z"
         style="font-family:'Noto Sans TC';-inkscape-font-specification:'Noto Sans TC';fill:#ffffff"
         id="path5770" />
    </g>
    <g
       aria-label="3"
       transform="matrix(1.6240735,0,0,1.6240735,-19.780807,-178.77754)"
       id="text9797-6"
       style="font-size:40px;line-height:1.25;white-space:pre;shape-inside:url(#rect9799-5)">
      <path
         d="m 147.37625,163.65308 q -2.44,0 -4.64,-0.88 -2.16,-0.92 -3.72,-2.56 -1.52,-1.68 -2.08,-3.96 l 4.76,-1.68 q 0.72,2.04 2.2,3.12 1.48,1.04 3.48,1.04 1.6,0 2.76,-0.6 1.2,-0.6 1.88,-1.72 0.68,-1.16 0.68,-2.72 0,-1.56 -0.68,-2.64 -0.64,-1.12 -1.84,-1.72 -1.2,-0.6 -2.84,-0.6 -0.76,0 -1.6,0.16 -0.8,0.16 -1.44,0.48 l -1.24,-2.6 7.72,-8.8 h -12.16 v -4.6 h 18.28 v 4.28 l -7.76,9.08 0.08,-2.04 q 2.68,0.04 4.68,1.16 2,1.12 3.12,3.08 1.12,1.96 1.12,4.6 0,2.88 -1.4,5.2 -1.4,2.28 -3.84,3.6 -2.44,1.32 -5.52,1.32 z"
         style="font-weight:bold;font-family:'Plus Jakarta Sans';-inkscape-font-specification:'Plus Jakarta Sans Bold';fill:#ffffff"
         id="path5773" />
    </g>
    <g
       aria-label="北捷拾獲
立即通知"
       id="text24009-8"
       style="font-size:15.4755px;line-height:1.25;stroke-width:0.386888">
      <path
         d="m 201.91721,107.91521 h 4.56527 v 1.16067 h -4.56527 z m 7.75322,-3.63674 h 1.20709 v 11.26616 q 0,0.5726 0.1238,0.74283 0.12381,0.17023 0.5726,0.17023 0.10833,0 0.35593,0 0.24761,0 0.54165,0 0.30951,0 0.57259,0 0.26308,0 0.38689,0 0.35593,0 0.52616,-0.30951 0.17023,-0.30951 0.23214,-1.11424 0.0774,-0.80472 0.1238,-2.30585 0.15476,0.12381 0.35594,0.24761 0.20118,0.10833 0.40236,0.20118 0.20118,0.0774 0.35594,0.12381 -0.0619,1.59397 -0.21666,2.53798 -0.15476,0.944 -0.54164,1.34637 -0.38689,0.41784 -1.14519,0.41784 -0.10833,0 -0.40236,0 -0.29404,0 -0.64997,0 -0.35594,0 -0.64997,0 -0.27856,0 -0.38689,0 -0.66545,0 -1.05234,-0.18571 -0.38688,-0.17023 -0.55711,-0.61902 -0.15476,-0.46426 -0.15476,-1.26899 z m -3.80697,-0.0155 h 1.19161 v 11.45187 h -1.19161 z m -4.41052,12.64348 q 0.83568,-0.29404 1.93444,-0.6964 1.11423,-0.41784 2.36775,-0.89758 1.25351,-0.47974 2.47608,-0.944 l 0.20118,1.02138 q -1.11424,0.47974 -2.25942,0.95948 -1.14519,0.46427 -2.213,0.89758 -1.06781,0.44879 -1.96539,0.8202 z m 8.85199,-9.00674 h 4.92121 v 1.16066 h -4.92121 z"
         style="font-family:'Noto Sans TC';-inkscape-font-specification:'Noto Sans TC';fill:#ffffff"
         id="path5776" />
      <path
         d="m 221.97342,105.36176 h 9.0377 v 0.95948 h -9.0377 z m 4.426,8.60437 h 4.02363 v 0.94401 h -4.02363 z m -4.64265,-4.51884 h 9.62576 v 0.95948 h -9.62576 z m 0.89758,-2.08919 h 7.62942 v 5.24619 h -7.62942 v -0.91305 h 6.54613 v -3.40461 h -6.54613 z m 3.157,-3.37366 h 1.09876 v 13.44821 l -1.09876,-0.55712 z m -2.98677,8.88293 1.08328,0.13928 q -0.26308,1.70231 -0.83568,3.04868 -0.57259,1.33089 -1.50112,2.22847 -0.0774,-0.10833 -0.24761,-0.23213 -0.17023,-0.12381 -0.34046,-0.24761 -0.17023,-0.12381 -0.30951,-0.18571 0.91306,-0.80472 1.42375,-2.01181 0.52616,-1.22257 0.72735,-2.73917 z m 0.66544,1.40827 q 0.41784,1.14519 1.09876,1.74874 0.6964,0.60354 1.64041,0.83567 0.95948,0.21666 2.12014,0.21666 0.13928,0 0.54164,0 0.41784,0 0.91306,0 0.49521,0 0.92853,0 0.44879,0 0.64997,-0.0155 -0.0774,0.12381 -0.15476,0.30951 -0.0774,0.18571 -0.13928,0.37142 -0.0464,0.20118 -0.0619,0.34046 h -0.66545 -2.05824 q -1.40827,0 -2.49155,-0.27856 -1.06781,-0.27856 -1.85706,-1.03686 -0.77378,-0.7583 -1.31542,-2.1511 z m -6.65446,-2.25942 q 0.89758,-0.26308 2.16657,-0.64997 1.28446,-0.40236 2.59988,-0.8202 l 0.17023,1.06781 q -1.20709,0.40236 -2.42965,0.80472 -1.22257,0.40237 -2.213,0.71188 z m 0.21665,-4.90573 h 4.68908 v 1.08328 h -4.68908 z m 1.93444,-3.11058 h 1.08329 v 12.87562 q 0,0.46426 -0.12381,0.72735 -0.10833,0.26308 -0.40236,0.40236 -0.27856,0.13928 -0.74282,0.18571 -0.46427,0.0464 -1.20709,0.031 -0.0155,-0.20119 -0.12381,-0.52617 -0.0928,-0.30951 -0.20118,-0.55712 0.49522,0.0155 0.89758,0.0155 0.41784,0.0155 0.55712,0 0.13928,0 0.20118,-0.0619 0.0619,-0.0464 0.0619,-0.21665 z"
         style="font-family:'Noto Sans TC';-inkscape-font-specification:'Noto Sans TC';fill:#ffffff"
         id="path5778" />
      <path
         d="m 232.49673,112.17098 q 0.66545,-0.17023 1.5166,-0.38689 0.85116,-0.23213 1.79516,-0.49522 0.95948,-0.26308 1.90349,-0.54164 l 0.13928,1.06781 q -1.29994,0.40236 -2.63084,0.78925 -1.31542,0.38689 -2.38322,0.6964 z m 0.18571,-5.06049 h 4.93668 v 1.09876 h -4.93668 z m 2.04277,-3.12605 h 1.12971 v 12.76728 q 0,0.47974 -0.12381,0.74283 -0.10832,0.26308 -0.41783,0.40236 -0.29404,0.1238 -0.78926,0.15476 -0.47974,0.0464 -1.23804,0.0464 -0.0309,-0.21665 -0.13927,-0.52616 -0.0929,-0.30951 -0.20119,-0.54165 0.49522,0.0155 0.92853,0.0155 0.43332,0 0.5726,0 0.27856,-0.0155 0.27856,-0.27856 z m 4.70455,5.07596 h 5.10691 v 1.06781 h -5.10691 z m -0.26309,7.31991 h 5.49381 v 1.05234 h -5.49381 z m -0.49521,-4.50337 h 6.54614 v 6.34496 h -1.17614 v -5.29262 h -4.22481 v 5.33904 h -1.14519 z m 3.74507,-7.42824 q 0.46426,0.97496 1.16066,1.93444 0.6964,0.95948 1.53208,1.74873 0.83567,0.77378 1.68683,1.25352 -0.13928,0.1238 -0.30951,0.29403 -0.15476,0.15476 -0.30951,0.34046 -0.13928,0.18571 -0.23214,0.34046 -0.86662,-0.58807 -1.7023,-1.47017 -0.83568,-0.89758 -1.54755,-1.94991 -0.71187,-1.06781 -1.19161,-2.16657 z m -0.78925,-0.43331 1.11424,0.30951 q -0.68093,1.84158 -1.88802,3.45103 -1.20708,1.59398 -2.81654,2.73917 -0.0928,-0.12381 -0.2476,-0.27856 -0.13928,-0.15476 -0.30951,-0.30951 -0.15476,-0.15476 -0.29404,-0.24761 1.02138,-0.68092 1.88801,-1.59398 0.86663,-0.91305 1.5166,-1.94991 0.66545,-1.05233 1.03686,-2.12014 z"
         style="font-family:'Noto Sans TC';-inkscape-font-specification:'Noto Sans TC';fill:#ffffff"
         id="path5780" />
      <path
         d="m 248.37457,104.99034 0.7583,-0.64997 q 1.05233,0.89758 1.67135,1.85706 0.61902,0.95948 0.92853,1.96539 0.30951,1.00591 0.41784,2.04277 0.10833,1.03686 0.10833,2.12014 0,1.09876 -0.0774,2.08919 -0.0619,0.99044 -0.23213,1.76421 -0.15476,0.7583 -0.46427,1.19161 -0.29403,0.43332 -0.83567,0.52617 -0.38689,0.0619 -0.85116,0.0774 -0.46426,0.0155 -0.95948,-0.0155 0,-0.27856 -0.0928,-0.58807 -0.0774,-0.29403 -0.23213,-0.55711 0.55711,0.0619 0.99043,0.0619 0.43331,-0.0155 0.68092,-0.0464 0.17023,-0.0155 0.27856,-0.0774 0.1238,-0.0619 0.23213,-0.1857 0.18571,-0.26309 0.29404,-0.88211 0.10832,-0.63449 0.15475,-1.51659 0.0464,-0.88211 0.0464,-1.87254 0,-1.36184 -0.20118,-2.61536 -0.18571,-1.25352 -0.78925,-2.42965 -0.58807,-1.17614 -1.82611,-2.25943 z m 2.77011,4.47242 0.8202,0.51069 q -0.35593,0.82021 -0.91305,1.67136 -0.54164,0.83568 -1.17614,1.5785 -0.61902,0.72735 -1.25352,1.23804 -0.1238,-0.23213 -0.30951,-0.51069 -0.17023,-0.29404 -0.35593,-0.49522 0.60354,-0.40236 1.20709,-1.05233 0.61902,-0.64997 1.14518,-1.40827 0.52617,-0.77378 0.83568,-1.53208 z m 0.66545,-5.16881 0.83567,0.57259 q -0.46426,0.8202 -1.16066,1.71778 -0.6964,0.8821 -1.47017,1.68683 -0.77378,0.78925 -1.50112,1.34637 -0.0619,-0.17023 -0.18571,-0.35594 -0.10833,-0.20118 -0.23213,-0.38689 -0.12381,-0.1857 -0.24761,-0.30951 0.71187,-0.44879 1.4547,-1.16066 0.7583,-0.71187 1.42374,-1.5166 0.66545,-0.8202 1.08329,-1.59397 z m 5.37,3.9772 h 1.05233 v 4.59622 h -1.05233 z m -2.86297,1.11424 h 6.8866 v 0.69639 h -6.8866 z m 0,1.48564 h 6.8866 v 0.68093 h -6.8866 z m -1.29994,3.00225 h 7.67584 v 0.8821 h -7.67584 z m 1.33089,-7.22706 1.00591,0.32499 q -0.29404,0.58807 -0.6964,1.19161 -0.38689,0.58807 -0.83568,1.11424 -0.43331,0.52616 -0.86663,0.92853 -0.0619,-0.0929 -0.21665,-0.23214 -0.13928,-0.13927 -0.29404,-0.27855 -0.15475,-0.13928 -0.26308,-0.23214 0.61902,-0.52616 1.19161,-1.26899 0.58807,-0.7583 0.97496,-1.54755 z m 5.98902,7.22706 h 0.24761 l 0.20118,-0.0464 0.66544,0.44879 q -0.64997,0.86663 -1.62492,1.5166 -0.95948,0.6345 -2.13562,1.09876 -1.17614,0.46427 -2.49156,0.78925 -1.29994,0.32499 -2.63083,0.52617 -0.0464,-0.13928 -0.13928,-0.30951 -0.0929,-0.17023 -0.20118,-0.34046 -0.10833,-0.17023 -0.20119,-0.26308 1.29995,-0.15476 2.53799,-0.41784 1.25351,-0.26309 2.36775,-0.66545 1.11423,-0.40236 1.98086,-0.944 0.88211,-0.54165 1.42375,-1.22257 z m -5.80331,0.66545 q 0.74282,0.72735 1.98086,1.28446 1.23804,0.55712 2.75464,0.91306 1.5166,0.34046 3.11057,0.49521 -0.1857,0.18571 -0.38688,0.44879 -0.18571,0.27856 -0.29404,0.49522 -1.60945,-0.21666 -3.157,-0.6345 -1.53207,-0.41783 -2.81654,-1.06781 -1.28447,-0.64997 -2.1511,-1.51659 z m 0.89757,-10.55429 h 1.05234 v 3.01772 h -1.05234 z m 2.69274,0 h 1.06781 v 3.06415 h -1.06781 z m -5.29262,1.16066 h 3.17248 v 0.8821 h -3.17248 z m 3.62127,1.79516 0.83567,-0.43332 q 0.34047,0.32499 0.6964,0.72735 0.35594,0.38689 0.54164,0.68092 l -0.85115,0.52617 q -0.20118,-0.29403 -0.55712,-0.71187 -0.34046,-0.43332 -0.66544,-0.78925 z m -2.53798,5.4319 h 7.86155 v 0.77377 h -7.86155 z m 0.78925,-4.4879 h 6.88659 v 0.7583 h -6.88659 v 4.90574 h -1.02139 v -4.81289 l 0.8202,-0.85115 z m 3.94625,-2.78559 h 3.52841 v 0.89758 h -3.52841 z"
         style="font-family:'Noto Sans TC';-inkscape-font-specification:'Noto Sans TC';fill:#ffffff"
         id="path5782" />
      <path
         d="m 202.4279,127.68779 h 12.51968 v 1.16066 H 202.4279 Z m -0.66545,9.48648 h 13.81962 v 1.16066 h -13.81962 z m 2.81654,-7.22706 1.14519,-0.26308 q 0.30951,1.03686 0.61902,2.213 0.30951,1.17613 0.55712,2.29037 0.2476,1.11424 0.37141,2.01182 l -1.22257,0.30951 q -0.1238,-0.89758 -0.35593,-2.02729 -0.23214,-1.12972 -0.52617,-2.30585 -0.29403,-1.19162 -0.58807,-2.22848 z m 7.04135,-0.26308 1.31542,0.23213 q -0.26308,0.95948 -0.58807,2.01182 -0.30951,1.05233 -0.64997,2.10467 -0.34046,1.03685 -0.6964,1.98086 -0.34046,0.92853 -0.66544,1.67135 l -1.14519,-0.26308 q 0.34046,-0.74282 0.68092,-1.7023 0.34046,-0.95949 0.66545,-2.01182 0.32498,-1.06781 0.60354,-2.08919 0.27856,-1.03686 0.47974,-1.93444 z m -4.07005,-4.70455 1.12971,-0.30951 q 0.23213,0.58807 0.46426,1.28446 0.23214,0.6964 0.35594,1.19162 l -1.19161,0.35593 q -0.10833,-0.51069 -0.32499,-1.22256 -0.20118,-0.71187 -0.43331,-1.29994 z"
         style="font-family:'Noto Sans TC';-inkscape-font-specification:'Noto Sans TC';fill:#ffffff"
         id="path5784" />
      <path
         d="m 218.49144,128.6318 h 4.82835 v 1.06781 h -4.82835 z m -0.0155,-3.04868 h 5.55571 v 7.30444 h -5.55571 v -1.05234 h 4.39504 v -5.21524 h -4.39504 z m -0.57259,12.953 -0.10833,-1.05234 0.52617,-0.47974 4.51884,-1.47017 q 0.0619,0.23213 0.13928,0.51069 0.0928,0.27856 0.17023,0.46427 -1.6404,0.57259 -2.63083,0.92853 -0.97496,0.35593 -1.50113,0.55711 -0.52616,0.20119 -0.7583,0.30951 -0.23213,0.12381 -0.35593,0.23214 z m 3.37366,-4.37957 0.97495,-0.47974 q 0.41784,0.63449 0.83568,1.36184 0.41784,0.72735 0.77377,1.40827 0.35594,0.68093 0.5726,1.20709 l -1.05234,0.5726 q -0.20118,-0.52617 -0.55711,-1.22257 -0.34046,-0.71187 -0.7583,-1.4547 -0.40237,-0.75829 -0.78925,-1.39279 z m -3.37366,4.37957 q -0.0464,-0.17023 -0.12381,-0.40237 -0.0774,-0.21665 -0.1857,-0.41784 -0.0929,-0.21665 -0.18571,-0.35593 0.20118,-0.10833 0.43332,-0.32499 0.23213,-0.23213 0.23213,-0.68092 v -10.77095 h 1.16066 v 11.90066 q 0,0 -0.13928,0.0619 -0.1238,0.0619 -0.32498,0.18571 -0.20119,0.10833 -0.40237,0.23213 -0.20118,0.13928 -0.34046,0.27856 -0.1238,0.15476 -0.1238,0.29404 z m 11.49829,-12.86014 h 1.14519 v 8.92936 q 0,0.46426 -0.1238,0.74282 -0.10833,0.27856 -0.43332,0.41784 -0.32498,0.13928 -0.86663,0.18571 -0.54164,0.031 -1.39279,0.0155 -0.0155,-0.23213 -0.1238,-0.54164 -0.0929,-0.32498 -0.21666,-0.57259 0.58807,0.0155 1.06781,0.031 0.49521,0 0.64997,-0.0155 0.17023,0 0.23213,-0.0619 0.0619,-0.0619 0.0619,-0.21666 z m -3.96172,0 h 4.59622 v 1.08328 h -3.45104 v 12.24112 h -1.14518 z"
         style="font-family:'Noto Sans TC';-inkscape-font-specification:'Noto Sans TC';fill:#ffffff"
         id="path5786" />
      <path
         d="m 238.98097,127.3628 0.72735,-0.66544 q 0.74282,0.26308 1.5785,0.61902 0.83568,0.34046 1.59397,0.6964 0.77378,0.35593 1.29995,0.68092 l -0.78925,0.74282 q -0.47974,-0.30951 -1.23804,-0.68092 -0.74283,-0.38689 -1.5785,-0.74282 -0.83568,-0.37142 -1.59398,-0.64998 z m -1.50112,1.28447 h 7.92345 v 0.89758 h -6.87112 v 7.08778 h -1.05233 z m 7.50561,0 h 1.06781 v 6.8866 q 0,0.41784 -0.10833,0.63449 -0.10832,0.21666 -0.41783,0.35594 -0.29404,0.10833 -0.80473,0.13928 -0.49522,0.0155 -1.26899,0.0155 -0.031,-0.20119 -0.12381,-0.46427 -0.0928,-0.26308 -0.20118,-0.44879 0.5726,0.0155 1.00591,0.0155 0.44879,0 0.60354,0 0.15476,0 0.20119,-0.0619 0.0464,-0.0619 0.0464,-0.18571 z m -7.47466,-3.24985 h 7.72227 v 0.91305 h -7.72227 z m 0.58807,5.50927 h 7.28896 v 0.86663 h -7.28896 z m 0,2.2749 h 7.28896 v 0.91306 h -7.28896 z m 3.0951,-4.16291 h 1.0059 v 7.583 h -1.0059 z m 3.65221,-3.62126 h 0.26309 l 0.23213,-0.0619 0.72735,0.5726 q -0.52617,0.47974 -1.19162,0.95948 -0.66544,0.46426 -1.39279,0.86663 -0.72735,0.40236 -1.43922,0.69639 -0.10833,-0.15475 -0.29404,-0.35593 -0.1857,-0.20118 -0.32498,-0.32499 0.64997,-0.26308 1.29994,-0.61902 0.64997,-0.35593 1.20709,-0.74282 0.55712,-0.40236 0.91305,-0.77378 z m -11.684,-0.0929 0.8821,-0.52616 q 0.35594,0.37141 0.72735,0.80472 0.38689,0.43332 0.71188,0.85115 0.34046,0.40237 0.54164,0.71188 l -0.88211,0.63449 q -0.21665,-0.32498 -0.55711,-0.7583 -0.32499,-0.43331 -0.6964,-0.8821 -0.37141,-0.46426 -0.72735,-0.83568 z m -0.55712,3.0332 h 3.38914 v 0.97496 h -3.38914 z m 2.77012,7.08778 q 0.47974,1.02138 1.29994,1.5166 0.83568,0.49522 2.01181,0.64997 1.19162,0.13928 2.72369,0.15476 0.8202,0 1.79516,-0.031 0.97496,-0.031 1.93444,-0.0774 0.97495,-0.0464 1.74873,-0.10833 -0.0774,0.1238 -0.15476,0.32498 -0.0774,0.20119 -0.13928,0.40237 -0.0619,0.21665 -0.0928,0.38688 -0.71187,0.031 -1.5785,0.0619 -0.86663,0.0464 -1.76421,0.0464 -0.89758,0.0155 -1.74873,0.0155 -1.36184,0 -2.44513,-0.10833 -1.06781,-0.10833 -1.88801,-0.41784 -0.8202,-0.30951 -1.43922,-0.89758 -0.61902,-0.58807 -1.05233,-1.54755 z m 0.20118,-3.23438 h 0.27856 l 0.20118,-0.0155 0.57259,0.21665 q -0.38688,2.46061 -1.31541,4.11649 -0.92853,1.6404 -2.22848,2.5225 -0.0774,-0.1238 -0.21665,-0.27856 -0.13928,-0.15475 -0.29404,-0.30951 -0.13928,-0.13928 -0.26308,-0.20118 1.23804,-0.78925 2.08919,-2.25942 0.85115,-1.47017 1.17614,-3.59032 z m -2.75464,1.17614 v -0.89758 l 0.55712,-0.27856 h 2.58441 v 0.94401 h -2.213 q -0.29403,0 -0.57259,0.0774 -0.26309,0.0619 -0.35594,0.15476 z m 0,0 q -0.0309,-0.13928 -0.1238,-0.34046 -0.0774,-0.20118 -0.15476,-0.40237 -0.0774,-0.20118 -0.15475,-0.30951 0.1857,-0.0464 0.37141,-0.13927 0.1857,-0.10833 0.38689,-0.34047 0.1857,-0.17023 0.52616,-0.58806 0.34046,-0.43332 0.72735,-0.95949 0.38689,-0.54164 0.72735,-1.03685 0.35594,-0.49522 0.55712,-0.80473 v -0.0309 l 0.35593,-0.15476 0.7583,0.35594 q -0.27856,0.40236 -0.66544,0.94401 -0.38689,0.52616 -0.8202,1.09876 -0.43332,0.55711 -0.85116,1.08328 -0.41784,0.52617 -0.7583,0.89758 0,0 -0.13928,0.0774 -0.1238,0.0619 -0.30951,0.1857 -0.17023,0.10833 -0.30951,0.23214 -0.1238,0.10832 -0.1238,0.23213 z"
         style="font-family:'Noto Sans TC';-inkscape-font-specification:'Noto Sans TC';fill:#ffffff"
         id="path5788" />
      <path
         d="m 256.3135,136.23027 h 4.58075 v 1.09876 h -4.58075 z m -0.49522,-10.12098 h 5.58666 v 12.27207 h -1.17614 v -11.17331 h -3.28081 v 11.34354 h -1.12971 z m -4.56527,1.26899 h 1.16066 v 3.0951 q 0,0.99043 -0.13928,2.12014 -0.1238,1.11424 -0.52616,2.25943 -0.38689,1.12971 -1.12972,2.19752 -0.72734,1.05233 -1.93443,1.90348 -0.0619,-0.10832 -0.21666,-0.27855 -0.15476,-0.17023 -0.30951,-0.34047 -0.15476,-0.17023 -0.27856,-0.2476 1.12971,-0.80473 1.79516,-1.74873 0.68092,-0.94401 1.00591,-1.94992 0.34046,-1.02138 0.44879,-2.02729 0.1238,-1.00591 0.1238,-1.90349 z m -1.59398,-0.54164 h 5.21525 v 1.08328 h -5.21525 z m -1.60945,4.17838 h 7.27349 v 1.11424 h -7.27349 z m 3.99268,2.02729 q 0.18571,0.17023 0.51069,0.52617 0.34046,0.34046 0.74283,0.78925 0.40236,0.43332 0.80472,0.8821 0.40236,0.43332 0.71187,0.78926 0.30951,0.35593 0.46427,0.52616 l -0.78925,0.99043 q -0.20118,-0.29403 -0.51069,-0.68092 -0.30951,-0.40236 -0.68092,-0.85115 -0.37142,-0.46427 -0.74283,-0.89758 -0.37141,-0.44879 -0.6964,-0.80473 -0.30951,-0.37141 -0.52616,-0.60354 z m -2.25942,-8.29486 1.12971,0.23213 q -0.21666,1.03686 -0.54164,2.02729 -0.30951,0.97495 -0.71188,1.84158 -0.38688,0.85116 -0.85115,1.5166 -0.0928,-0.10833 -0.26308,-0.23213 -0.17023,-0.1238 -0.37141,-0.24761 -0.18571,-0.1238 -0.30951,-0.20118 0.68092,-0.89758 1.16066,-2.19752 0.49521,-1.31542 0.7583,-2.73916 z"
         style="font-family:'Noto Sans TC';-inkscape-font-specification:'Noto Sans TC';fill:#ffffff"
         id="path5790" />
    </g>
  </g>
</svg>
