<?xml version="1.0" encoding="UTF-8" standalone="no"?>
<!-- Created with Inkscape (http://www.inkscape.org/) -->

<svg
   width="300mm"
   height="200mm"
   viewBox="0 0 300 200"
   version="1.1"
   id="svg5"
   sodipodi:docname="ad3.svg"
   inkscape:version="1.1 (c68e22c387, 2021-05-23)"
   xmlns:inkscape="http://www.inkscape.org/namespaces/inkscape"
   xmlns:sodipodi="http://sodipodi.sourceforge.net/DTD/sodipodi-0.dtd"
   xmlns="http://www.w3.org/2000/svg"
   xmlns:svg="http://www.w3.org/2000/svg">
  <sodipodi:namedview
     id="namedview7"
     pagecolor="#464646"
     bordercolor="#999999"
     borderopacity="1"
     inkscape:pageshadow="0"
     inkscape:pageopacity="0"
     inkscape:pagecheckerboard="true"
     inkscape:document-units="mm"
     showgrid="false"
     inkscape:snap-bbox="true"
     inkscape:snap-page="true"
     inkscape:zoom="0.70438884"
     inkscape:cx="557.93047"
     inkscape:cy="288.1931"
     inkscape:window-width="1920"
     inkscape:window-height="1094"
     inkscape:window-x="-11"
     inkscape:window-y="-11"
     inkscape:window-maximized="1"
     inkscape:current-layer="layer1"
     inkscape:bbox-paths="true" />
  <defs
     id="defs2">
    <rect
       x="762.93252"
       y="257.99166"
       width="284.09198"
       height="137.52863"
       id="rect34778" />
    <rect
       x="692.79916"
       y="252.70133"
       width="398.92739"
       height="185.97682"
       id="rect29722" />
    <rect
       x="164.68177"
       y="369.11431"
       width="350.65859"
       height="63.885169"
       id="rect23240" />
    <rect
       x="688.54015"
       y="140.54737"
       width="349.23892"
       height="188.81617"
       id="rect2658" />
    <rect
       x="183.35979"
       y="599.27346"
       width="381.62688"
       height="181.86906"
       id="rect22815" />
    <rect
       x="135.65643"
       y="125.22132"
       width="45.719619"
       height="49.528261"
       id="rect9799" />
    <rect
       x="681.26361"
       y="183.35979"
       width="409.95075"
       height="137.14716"
       id="rect4048" />
    <rect
       x="135.65643"
       y="125.22132"
       width="45.71962"
       height="49.528259"
       id="rect9799-3" />
    <rect
       x="135.65643"
       y="125.22132"
       width="45.71962"
       height="49.528259"
       id="rect9799-5" />
    <rect
       x="688.54016"
       y="140.54736"
       width="349.23892"
       height="188.81618"
       id="rect2658-0" />
    <rect
       x="688.54016"
       y="140.54736"
       width="349.23892"
       height="188.81618"
       id="rect2658-0-7" />
  </defs>
  <g
     inkscape:label="Layer 1"
     inkscape:groupmode="layer"
     id="layer1">
    <path
       id="rect846"
       style="fill:#edffe5;stroke-width:2.08345;fill-opacity:1"
       d="M 0,0 H 300 V 200 H 0 Z" />
    <g
       transform="scale(0.26458333)"
       id="text22813"
       style="font-size:40px;line-height:1.25;white-space:pre;shape-inside:url(#rect22815)" />
    <circle
       style="fill:#ffffff;fill-opacity:1;stroke:none;stroke-width:25.7005;stroke-miterlimit:4;stroke-dasharray:none;stroke-opacity:1"
       id="path10891"
       cx="226.49954"
       cy="58.972519"
       r="99.915215" />
    <circle
       style="fill:#ffffff;fill-opacity:1;stroke:none;stroke-width:13.0435;stroke-miterlimit:4;stroke-dasharray:none;stroke-opacity:1"
       id="path10891-6"
       cx="27.42034"
       cy="167.1514"
       r="50.708847" />
    <circle
       style="fill:#edffe5;fill-opacity:1;stroke:none;stroke-width:11.0145;stroke-miterlimit:4;stroke-dasharray:none;stroke-opacity:1"
       id="path10891-0"
       cx="225.90184"
       cy="58.596897"
       r="42.820801" />
    <g
       id="g11915"
       transform="matrix(0.15440823,0,0,0.15440823,10.141269,177.9691)">
      <g
         id="g6382"
         transform="matrix(0.35277777,0,0,-0.35277777,65.170734,166.67719)">
	<path
   id="path6384"
   class="st0"
   d="m -184.7,321.8 26.1,31.2 c 10.2,12.1 25.2,19.1 40.9,19.1 h 17.1 c 15.8,0 30.8,7 40.9,19.1 l 52.2,62.3 c 10.2,12.1 25.2,19.1 41,19.1 H 209.2 L 183,441.3 c -10.1,-12.1 -25.1,-19.1 -41,-19.1 h -17 c -15.8,0 -30.7,-7 -40.9,-19.1 L 31.8,340.8 c -10,-12 -25.1,-19 -40.8,-19 z" />

</g>
      <g
         id="g6386"
         transform="matrix(0.35277777,0,0,-0.35277777,66.874015,168.14788)">
	<path
   id="path6388"
   class="st1"
   d="m -73.2,225.5 26.1,31.2 c 10.2,12.1 25.1,19.1 40.9,19.1 h 17.1 c 15.8,0 30.8,7 40.9,19.1 l 52.3,62.3 c 10.2,12.1 25.1,19.1 40.9,19.1 H 320.7 L 294.6,345.1 C 284.4,333 269.4,326 253.6,326 h -17.1 c -15.8,0 -30.7,-7 -40.9,-19.1 l -52.3,-62.3 c -10.1,-12.1 -25.1,-19.1 -40.9,-19.1 z" />

</g>
    </g>
    <g
       aria-label="Metro Taipei"
       id="text12469"
       style="font-size:13.099px;line-height:1.25;letter-spacing:-0.264583px;stroke-width:0.327475"
       transform="translate(0.52916667,1.0583333)">
      <path
         d="m 42.653384,178.9901 v 8.64534 c 0,0.0917 0.0393,0.13099 0.13099,0.13099 h 1.480187 c 0.07859,0 0.13099,-0.0393 0.13099,-0.13099 v -5.01691 h 0.0524 l 1.650474,3.75941 c 0.0524,0.11789 0.13099,0.17029 0.248881,0.17029 h 0.903831 c 0.104792,0 0.196485,-0.0524 0.248881,-0.17029 l 1.650474,-3.75941 h 0.0524 v 5.01691 c 0,0.0917 0.0393,0.13099 0.13099,0.13099 h 1.480187 c 0.07859,0 0.13099,-0.0393 0.13099,-0.13099 v -8.64534 c 0,-0.0786 -0.0524,-0.13099 -0.13099,-0.13099 h -1.532583 c -0.104792,0 -0.183386,0.0524 -0.209584,0.13099 l -2.213731,5.08242 h -0.0524 l -2.253028,-5.08242 c -0.0393,-0.0786 -0.104792,-0.13099 -0.209584,-0.13099 h -1.558781 c -0.09169,0 -0.13099,0.0524 -0.13099,0.13099 z"
         style="font-family:DINNextW01-Bold;-inkscape-font-specification:DINNextW01-Bold"
         id="path14111" />
      <path
         d="m 55.068613,187.91052 c 0.576356,0 1.100316,-0.0917 1.558781,-0.28818 0.445366,-0.18338 0.825237,-0.44536 1.139613,-0.77284 0.0524,-0.0524 0.0524,-0.11789 -0.0131,-0.18338 l -0.864534,-0.81214 c -0.0524,-0.0524 -0.104792,-0.0524 -0.183386,0 -0.183386,0.18339 -0.39297,0.31438 -0.628752,0.41917 -0.235782,0.10479 -0.510861,0.14409 -0.825237,0.14409 -0.340574,0 -0.615653,-0.0655 -0.838336,-0.20959 -0.235782,-0.13099 -0.39297,-0.34057 -0.471564,-0.62875 -0.0524,-0.10479 -0.07859,-0.22268 -0.07859,-0.35367 0,-0.0524 0.0262,-0.0786 0.07859,-0.0786 h 3.838007 c 0.09169,0 0.144089,-0.0393 0.144089,-0.13099 0,-0.26198 -0.0131,-0.49776 -0.0131,-0.69424 -0.0131,-0.19649 -0.0262,-0.36678 -0.0393,-0.52396 -0.0262,-0.14409 -0.0393,-0.27508 -0.0655,-0.39297 -0.0262,-0.11789 -0.06549,-0.23579 -0.09169,-0.34058 -0.183386,-0.55016 -0.510861,-0.99552 -0.982425,-1.3099 -0.471564,-0.31437 -1.04792,-0.47156 -1.755266,-0.47156 -0.681148,0 -1.270603,0.15719 -1.742167,0.47156 -0.471564,0.31438 -0.799039,0.74665 -0.982425,1.323 -0.07859,0.20959 -0.13099,0.43227 -0.157188,0.66805 -0.0393,0.23578 -0.0524,0.52396 -0.0524,0.85144 0,0.34057 0.0131,0.61565 0.0524,0.85143 0.0393,0.23578 0.09169,0.45847 0.170287,0.65495 0.183386,0.57636 0.510861,1.02172 0.995524,1.3361 0.471564,0.31437 1.074118,0.47156 1.807662,0.47156 z m 0.969326,-3.98209 h -2.09584 c -0.0524,0 -0.07859,-0.0262 -0.07859,-0.0786 0,-0.0917 0,-0.17028 0.0131,-0.24888 0.0131,-0.0786 0.0262,-0.14409 0.0524,-0.22268 0.06549,-0.20959 0.196485,-0.37987 0.379871,-0.51086 0.183386,-0.11789 0.419168,-0.18339 0.681148,-0.18339 0.26198,0 0.484663,0.0655 0.668049,0.18339 0.183386,0.13099 0.314376,0.30127 0.39297,0.51086 0.0131,0.0786 0.0262,0.14409 0.0393,0.22268 0.0131,0.0786 0.0262,0.15719 0.0262,0.24888 0,0.0524 -0.0262,0.0786 -0.07859,0.0786 z"
         style="font-family:DINNextW01-Bold;-inkscape-font-specification:DINNextW01-Bold"
         id="path14113" />
      <path
         d="m 61.143927,187.84503 h 0.694247 c 0.07859,0 0.13099,-0.0393 0.13099,-0.13099 v -1.2968 c 0,-0.0786 -0.0524,-0.13099 -0.13099,-0.13099 h -0.314376 c -0.209584,0 -0.366772,-0.0393 -0.445366,-0.13099 -0.09169,-0.0917 -0.13099,-0.26198 -0.13099,-0.49777 v -2.80318 c 0,-0.0524 0.0262,-0.0786 0.07859,-0.0786 h 0.812138 c 0.07859,0 0.13099,-0.0393 0.13099,-0.13099 v -1.08721 c 0,-0.0786 -0.0524,-0.13099 -0.13099,-0.13099 h -0.812138 c -0.0524,0 -0.07859,-0.0262 -0.07859,-0.0786 v -1.70287 c 0,-0.0786 -0.0524,-0.13099 -0.13099,-0.13099 h -1.558781 c -0.09169,0 -0.13099,0.0524 -0.13099,0.13099 v 1.70287 c 0,0.0524 -0.0262,0.0786 -0.07859,0.0786 h -0.39297 c -0.09169,0 -0.13099,0.0524 -0.13099,0.13099 v 1.08721 c 0,0.0917 0.0393,0.13099 0.13099,0.13099 h 0.39297 c 0.0524,0 0.07859,0.0262 0.07859,0.0786 v 2.88178 c 0,0.73354 0.144089,1.2575 0.458465,1.59808 0.301277,0.34057 0.825237,0.51086 1.558781,0.51086 z"
         style="font-family:DINNextW01-Bold;-inkscape-font-specification:DINNextW01-Bold"
         id="path14115" />
      <path
         d="m 63.197858,187.76643 h 1.57188 c 0.07859,0 0.13099,-0.0393 0.13099,-0.13099 v -3.34024 c 0,-0.41917 0.07859,-0.75974 0.235782,-0.99553 0.157188,-0.23578 0.406069,-0.35367 0.746643,-0.37987 0.288178,0 0.602554,0.0917 0.91693,0.28818 0.07859,0.0393 0.13099,0.0262 0.183386,-0.0262 l 0.733544,-1.33609 c 0.0262,-0.0655 0.0131,-0.13099 -0.0393,-0.18339 -0.144089,-0.11789 -0.314376,-0.20958 -0.510861,-0.27508 -0.196485,-0.0655 -0.39297,-0.10479 -0.602554,-0.10479 -0.39297,0 -0.733544,0.0786 -1.008623,0.22268 -0.288178,0.14409 -0.497762,0.34058 -0.641851,0.58946 h -0.0131 v -0.53706 c 0,-0.0786 -0.0524,-0.13099 -0.13099,-0.13099 h -1.57188 c -0.09169,0 -0.13099,0.0524 -0.13099,0.13099 v 6.07793 c 0,0.0917 0.0393,0.13099 0.13099,0.13099 z"
         style="font-family:DINNextW01-Bold;-inkscape-font-specification:DINNextW01-Bold"
         id="path14117" />
      <path
         d="m 70.792637,187.91052 c 0.668049,0 1.244405,-0.14409 1.742167,-0.45846 0.484663,-0.30128 0.825237,-0.74665 1.008623,-1.323 0.0655,-0.22268 0.117891,-0.45847 0.157188,-0.69425 0.0262,-0.23578 0.0524,-0.52396 0.0524,-0.83833 0,-0.31438 -0.0262,-0.58946 -0.0524,-0.82524 -0.0393,-0.23578 -0.09169,-0.47157 -0.157188,-0.70735 -0.183386,-0.57635 -0.52396,-1.00862 -1.008623,-1.323 -0.497762,-0.30127 -1.074118,-0.45846 -1.742167,-0.45846 -0.681148,0 -1.257504,0.15719 -1.742167,0.45846 -0.497762,0.31438 -0.825237,0.74665 -1.008623,1.323 -0.07859,0.23578 -0.13099,0.47157 -0.157188,0.70735 -0.0393,0.23578 -0.0524,0.51086 -0.0524,0.82524 0,0.31437 0.0131,0.60255 0.0524,0.83833 0.0262,0.23578 0.07859,0.47157 0.157188,0.69425 0.183386,0.57635 0.510861,1.02172 1.008623,1.323 0.484663,0.31437 1.061019,0.45846 1.742167,0.45846 z m 0,-1.54568 c -0.510861,0 -0.838336,-0.22268 -0.982425,-0.68115 -0.0524,-0.14409 -0.07859,-0.28818 -0.09169,-0.44536 -0.0262,-0.15719 -0.0262,-0.36678 -0.0262,-0.64185 0,-0.26198 0,-0.47157 0.0262,-0.62876 0.0131,-0.15718 0.0393,-0.30127 0.09169,-0.45846 0.144089,-0.44537 0.471564,-0.68115 0.982425,-0.68115 0.497762,0 0.825237,0.23578 0.982425,0.68115 0.0393,0.15719 0.06549,0.30128 0.09169,0.45846 0.0131,0.15719 0.0262,0.36678 0.0262,0.62876 0,0.27507 -0.0131,0.48466 -0.0262,0.64185 -0.0262,0.15718 -0.0524,0.30127 -0.09169,0.44536 -0.157188,0.45847 -0.484663,0.68115 -0.982425,0.68115 z"
         style="font-family:DINNextW01-Bold;-inkscape-font-specification:DINNextW01-Bold"
         id="path14119" />
      <path
         d="m 79.498204,187.76643 h 1.663573 c 0.07859,0 0.13099,-0.0393 0.13099,-0.13099 v -6.98176 c 0,-0.0524 0.0262,-0.0786 0.07859,-0.0786 h 2.253028 c 0.07859,0 0.13099,-0.0393 0.13099,-0.13099 v -1.45399 c 0,-0.0786 -0.0524,-0.13099 -0.13099,-0.13099 h -6.588797 c -0.09169,0 -0.13099,0.0524 -0.13099,0.13099 v 1.45399 c 0,0.0917 0.0393,0.13099 0.13099,0.13099 h 2.253028 c 0.0524,0 0.07859,0.0262 0.07859,0.0786 v 6.98176 c 0,0.0917 0.0393,0.13099 0.13099,0.13099 z"
         style="font-family:DINNextW01-Bold;-inkscape-font-specification:DINNextW01-Bold"
         id="path14121" />
      <path
         d="m 87.315685,187.76643 h 1.453989 c 0.07859,0 0.13099,-0.0393 0.13099,-0.13099 v -4.06069 c 0,-0.39297 -0.0524,-0.73354 -0.157188,-1.02172 -0.104792,-0.28818 -0.26198,-0.52396 -0.484663,-0.70734 -0.222683,-0.18339 -0.510861,-0.32748 -0.864534,-0.41917 -0.366772,-0.0917 -0.799039,-0.14409 -1.3099,-0.14409 -0.52396,0 -0.982425,0.0655 -1.375395,0.17029 -0.39297,0.11789 -0.720445,0.27507 -0.982425,0.45846 -0.07859,0.0524 -0.09169,0.10479 -0.0393,0.18339 l 0.589455,1.03482 c 0.0393,0.0786 0.09169,0.0786 0.170287,0.0262 0.144089,-0.1048 0.340574,-0.20959 0.576356,-0.28818 0.235782,-0.0786 0.510861,-0.11789 0.838336,-0.11789 0.497762,0 0.838336,0.0786 1.021722,0.20958 0.183386,0.14409 0.275079,0.36677 0.275079,0.65495 v 0.23578 c 0,0.0524 -0.0262,0.0786 -0.07859,0.0786 H 85.95339 c -0.78594,0 -1.427791,0.17028 -1.912454,0.49776 -0.484663,0.34057 -0.720445,0.85143 -0.720445,1.54568 0,0.34057 0.0524,0.64185 0.170287,0.87763 0.104792,0.24888 0.26198,0.44537 0.458465,0.60256 0.183386,0.15719 0.406069,0.27508 0.668049,0.35367 0.26198,0.0786 0.52396,0.10479 0.812138,0.10479 0.432267,0 0.78594,-0.0524 1.074118,-0.18338 0.275079,-0.13099 0.497762,-0.30128 0.668049,-0.51086 h 0.0131 v 0.41916 c 0,0.0917 0.0393,0.13099 0.13099,0.13099 z m -1.336098,-1.2313 c -0.615653,0 -0.91693,-0.22269 -0.91693,-0.66805 0,-0.47157 0.366772,-0.72045 1.126514,-0.72045 h 0.890732 c 0.0524,0 0.07859,0.0262 0.07859,0.0786 v 0.43226 c 0,0.58946 -0.39297,0.87764 -1.17891,0.87764 z"
         style="font-family:DINNextW01-Bold;-inkscape-font-specification:DINNextW01-Bold"
         id="path14123" />
      <path
         d="m 90.378247,180.41789 h 1.57188 c 0.07859,0 0.13099,-0.0393 0.13099,-0.13099 v -1.2968 c 0,-0.0786 -0.0524,-0.13099 -0.13099,-0.13099 h -1.57188 c -0.09169,0 -0.13099,0.0524 -0.13099,0.13099 v 1.2968 c 0,0.0917 0.0393,0.13099 0.13099,0.13099 z m 0,7.34854 h 1.57188 c 0.07859,0 0.13099,-0.0393 0.13099,-0.13099 v -6.07793 c 0,-0.0786 -0.0524,-0.13099 -0.13099,-0.13099 h -1.57188 c -0.09169,0 -0.13099,0.0524 -0.13099,0.13099 v 6.07793 c 0,0.0917 0.0393,0.13099 0.13099,0.13099 z"
         style="font-family:DINNextW01-Bold;-inkscape-font-specification:DINNextW01-Bold"
         id="path14125" />
      <path
         d="m 93.597985,190.12425 h 1.57188 c 0.07859,0 0.13099,-0.0393 0.13099,-0.13099 v -2.81628 h 0.0131 c 0.144089,0.22268 0.353673,0.40607 0.628752,0.53706 0.26198,0.13099 0.615653,0.19648 1.034821,0.19648 0.52396,0 0.982425,-0.11789 1.349197,-0.37987 0.366772,-0.26198 0.628752,-0.64185 0.799039,-1.13961 0.07859,-0.24888 0.13099,-0.51086 0.170287,-0.77284 0.0262,-0.26198 0.0524,-0.60256 0.0524,-1.02172 0,-0.41917 -0.0262,-0.75975 -0.0524,-1.02173 -0.0393,-0.26198 -0.09169,-0.51086 -0.170287,-0.77284 -0.170287,-0.49776 -0.432267,-0.87763 -0.799039,-1.13961 -0.366772,-0.24888 -0.825237,-0.37987 -1.349197,-0.37987 -0.419168,0 -0.772841,0.0786 -1.034821,0.20958 -0.275079,0.13099 -0.484663,0.31438 -0.628752,0.52396 h -0.0131 v -0.45846 c 0,-0.0786 -0.0524,-0.13099 -0.13099,-0.13099 h -1.57188 c -0.09169,0 -0.13099,0.0524 -0.13099,0.13099 v 8.43575 c 0,0.0917 0.0393,0.13099 0.13099,0.13099 z m 2.790087,-3.75941 c -0.497762,0 -0.825237,-0.22268 -0.969326,-0.68115 -0.0524,-0.11789 -0.07859,-0.26198 -0.09169,-0.41917 -0.0262,-0.15718 -0.0262,-0.37987 -0.0262,-0.66804 0,-0.27508 0,-0.49777 0.0262,-0.65495 0.0131,-0.15719 0.0393,-0.30128 0.09169,-0.43227 0.13099,-0.44537 0.458465,-0.68115 0.969326,-0.68115 0.510861,0 0.838336,0.23578 0.982425,0.68115 0.0393,0.13099 0.06549,0.27508 0.09169,0.43227 0.0131,0.15718 0.0262,0.37987 0.0262,0.65495 0,0.28817 -0.0131,0.51086 -0.0262,0.66804 -0.0262,0.15719 -0.0524,0.30128 -0.09169,0.41917 -0.157188,0.45847 -0.484663,0.68115 -0.982425,0.68115 z"
         style="font-family:DINNextW01-Bold;-inkscape-font-specification:DINNextW01-Bold"
         id="path14127" />
      <path
         d="m 103.13143,187.91052 c 0.57636,0 1.10032,-0.0917 1.55878,-0.28818 0.44537,-0.18338 0.82524,-0.44536 1.13962,-0.77284 0.0524,-0.0524 0.0524,-0.11789 -0.0131,-0.18338 l -0.86454,-0.81214 c -0.0524,-0.0524 -0.10479,-0.0524 -0.18338,0 -0.18339,0.18339 -0.39297,0.31438 -0.62875,0.41917 -0.23579,0.10479 -0.51086,0.14409 -0.82524,0.14409 -0.34057,0 -0.61565,-0.0655 -0.83834,-0.20959 -0.23578,-0.13099 -0.39297,-0.34057 -0.47156,-0.62875 -0.0524,-0.10479 -0.0786,-0.22268 -0.0786,-0.35367 0,-0.0524 0.0262,-0.0786 0.0786,-0.0786 h 3.83801 c 0.0917,0 0.14409,-0.0393 0.14409,-0.13099 0,-0.26198 -0.0131,-0.49776 -0.0131,-0.69424 -0.0131,-0.19649 -0.0262,-0.36678 -0.0393,-0.52396 -0.0262,-0.14409 -0.0393,-0.27508 -0.0655,-0.39297 -0.0262,-0.11789 -0.0655,-0.23579 -0.0917,-0.34058 -0.18338,-0.55016 -0.51086,-0.99552 -0.98242,-1.3099 -0.47157,-0.31437 -1.04792,-0.47156 -1.75527,-0.47156 -0.68115,0 -1.2706,0.15719 -1.74217,0.47156 -0.47156,0.31438 -0.79904,0.74665 -0.98242,1.323 -0.0786,0.20959 -0.13099,0.43227 -0.15719,0.66805 -0.0393,0.23578 -0.0524,0.52396 -0.0524,0.85144 0,0.34057 0.0131,0.61565 0.0524,0.85143 0.0393,0.23578 0.0917,0.45847 0.17029,0.65495 0.18338,0.57636 0.51086,1.02172 0.99552,1.3361 0.47157,0.31437 1.07412,0.47156 1.80766,0.47156 z m 0.96933,-3.98209 h -2.09584 c -0.0524,0 -0.0786,-0.0262 -0.0786,-0.0786 0,-0.0917 0,-0.17028 0.0131,-0.24888 0.0131,-0.0786 0.0262,-0.14409 0.0524,-0.22268 0.0655,-0.20959 0.19649,-0.37987 0.37987,-0.51086 0.18339,-0.11789 0.41917,-0.18339 0.68115,-0.18339 0.26198,0 0.48466,0.0655 0.66805,0.18339 0.18338,0.13099 0.31437,0.30127 0.39297,0.51086 0.0131,0.0786 0.0262,0.14409 0.0393,0.22268 0.0131,0.0786 0.0262,0.15719 0.0262,0.24888 0,0.0524 -0.0262,0.0786 -0.0786,0.0786 z"
         style="font-family:DINNextW01-Bold;-inkscape-font-specification:DINNextW01-Bold"
         id="path14129" />
      <path
         d="m 107.1895,180.41789 h 1.57188 c 0.0786,0 0.13099,-0.0393 0.13099,-0.13099 v -1.2968 c 0,-0.0786 -0.0524,-0.13099 -0.13099,-0.13099 h -1.57188 c -0.0917,0 -0.13099,0.0524 -0.13099,0.13099 v 1.2968 c 0,0.0917 0.0393,0.13099 0.13099,0.13099 z m 0,7.34854 h 1.57188 c 0.0786,0 0.13099,-0.0393 0.13099,-0.13099 v -6.07793 c 0,-0.0786 -0.0524,-0.13099 -0.13099,-0.13099 h -1.57188 c -0.0917,0 -0.13099,0.0524 -0.13099,0.13099 v 6.07793 c 0,0.0917 0.0393,0.13099 0.13099,0.13099 z"
         style="font-family:DINNextW01-Bold;-inkscape-font-specification:DINNextW01-Bold"
         id="path14131" />
    </g>
    <g
       aria-label="TPASS"
       id="text14462"
       style="font-size:27.7874px;line-height:1.25;letter-spacing:1.38937px;stroke-width:0.694685"
       transform="translate(0,10.054167)">
      <path
         d="M 48.386151,89.045166 V 71.678041 h -5.362968 v -3.334487 h 14.449448 v 3.334487 h -5.279606 v 17.367125 z"
         style="fill:#028600"
         id="path28133" />
      <path
         d="M 61.168349,89.045166 V 68.343554 h 7.724897 q 2.111842,0 3.723511,0.778047 1.639457,0.75026 2.556441,2.222992 0.916984,1.444944 0.916984,3.528999 0,2.056268 -0.944771,3.529 -0.916985,1.444945 -2.528654,2.222992 -1.611669,0.778047 -3.723511,0.778047 h -3.945811 v 7.641535 z m 3.779086,-10.976023 h 4.001385 q 1.028134,0 1.778394,-0.389023 0.75026,-0.416811 1.167071,-1.139284 0.416811,-0.722472 0.416811,-1.667244 0,-0.972559 -0.416811,-1.667244 -0.416811,-0.722472 -1.167071,-1.111496 -0.75026,-0.416811 -1.778394,-0.416811 h -4.001385 z"
         style="font-weight:bold;font-family:'Plus Jakarta Sans';-inkscape-font-specification:'Plus Jakarta Sans Bold'"
         id="path28135" />
      <path
         d="M 77.201608,89.045166 84.34297,68.343554 h 4.890582 l 7.141361,20.701612 h -4.112535 l -1.472732,-4.445984 h -8.002771 l -1.500519,4.445984 z m 6.668976,-7.780472 h 5.835354 L 86.2603,70.955569 h 1.055921 z"
         style="font-weight:bold;font-family:'Plus Jakarta Sans';-inkscape-font-specification:'Plus Jakarta Sans Bold'"
         id="path28137" />
      <path
         d="m 107.1842,89.378615 q -1.9729,0 -3.66793,-0.722473 -1.66725,-0.722472 -2.88989,-2.000692 -1.194863,-1.306008 -1.750611,-3.028827 l 3.139981,-1.361582 q 0.75026,1.778393 2.16741,2.806527 1.41716,1.000346 3.19555,1.000346 1.00035,0 1.72282,-0.305661 0.75026,-0.333449 1.13929,-0.889197 0.41681,-0.555748 0.41681,-1.333795 0,-0.916984 -0.55575,-1.50052 -0.52796,-0.611322 -1.61167,-0.944771 l -3.9736,-1.278221 q -2.4175,-0.750259 -3.64015,-2.250779 -1.222643,-1.500519 -1.222643,-3.529 0,-1.778393 0.861413,-3.139976 0.88919,-1.361582 2.44529,-2.111842 1.58388,-0.778047 3.61236,-0.778047 1.86175,0 3.41785,0.666897 1.55609,0.639111 2.66759,1.806181 1.13928,1.139284 1.69503,2.695378 l -3.11219,1.38937 q -0.61132,-1.556094 -1.83397,-2.389716 -1.22264,-0.86141 -2.83431,-0.86141 -0.94477,0 -1.66724,0.333449 -0.72248,0.305661 -1.13929,0.889197 -0.38902,0.555748 -0.38902,1.333795 0,0.861409 0.55575,1.528307 0.55574,0.63911 1.69503,1.000346 l 3.80687,1.194859 q 2.47308,0.805834 3.69573,2.222991 1.25043,1.417158 1.25043,3.501213 0,1.778393 -0.91699,3.139976 -0.91698,1.361582 -2.52865,2.13963 -1.61167,0.778047 -3.7513,0.778047 z"
         style="font-weight:bold;font-family:'Plus Jakarta Sans';-inkscape-font-specification:'Plus Jakarta Sans Bold'"
         id="path28139" />
      <path
         d="m 126.552,89.378615 q -1.97291,0 -3.66794,-0.722473 -1.66724,-0.722472 -2.88989,-2.000692 -1.19485,-1.306008 -1.7506,-3.028827 l 3.13997,-1.361582 q 0.75026,1.778393 2.16742,2.806527 1.41716,1.000346 3.19555,1.000346 1.00035,0 1.72282,-0.305661 0.75026,-0.333449 1.13928,-0.889197 0.41681,-0.555748 0.41681,-1.333795 0,-0.916984 -0.55574,-1.50052 -0.52796,-0.611322 -1.61167,-0.944771 l -3.9736,-1.278221 q -2.4175,-0.750259 -3.64015,-2.250779 -1.22265,-1.500519 -1.22265,-3.529 0,-1.778393 0.86141,-3.139976 0.8892,-1.361582 2.44529,-2.111842 1.58389,-0.778047 3.61237,-0.778047 1.86175,0 3.41785,0.666897 1.55609,0.639111 2.66759,1.806181 1.13928,1.139284 1.69503,2.695378 l -3.11219,1.38937 q -0.61132,-1.556094 -1.83397,-2.389716 -1.22264,-0.86141 -2.83431,-0.86141 -0.94477,0 -1.66725,0.333449 -0.72247,0.305661 -1.13928,0.889197 -0.38902,0.555748 -0.38902,1.333795 0,0.861409 0.55574,1.528307 0.55575,0.63911 1.69504,1.000346 l 3.80687,1.194859 q 2.47308,0.805834 3.69572,2.222991 1.25044,1.417158 1.25044,3.501213 0,1.778393 -0.91699,3.139976 -0.91698,1.361582 -2.52865,2.13963 -1.61167,0.778047 -3.7513,0.778047 z"
         style="font-weight:bold;font-family:'Plus Jakarta Sans';-inkscape-font-specification:'Plus Jakarta Sans Bold'"
         id="path28141" />
    </g>
    <text
       xml:space="preserve"
       transform="scale(0.26458333)"
       id="text23238"
       style="fill:black;fill-opacity:1;line-height:1.25;stroke:none;font-family:sans-serif;font-style:normal;font-weight:normal;font-size:40px;white-space:pre;shape-inside:url(#rect23240)" />
    <g
       aria-label="行政院通勤月票"
       id="text24214"
       style="font-size:12.0024px;line-height:1.25;letter-spacing:1.27994px;stroke-width:0.300061"
       transform="translate(0,10.054167)">
      <path
         d="m 47.246027,94.078428 h 5.905181 v 0.864173 h -5.905181 z m 3.516703,3.576715 h 0.912182 v 5.593117 q 0,0.42009 -0.120024,0.63613 -0.120024,0.22804 -0.420084,0.34807 -0.312062,0.096 -0.85217,0.10802 -0.528106,0.024 -1.416283,0.024 -0.02401,-0.18003 -0.108022,-0.43208 -0.08402,-0.25205 -0.192038,-0.45609 0.432086,0.012 0.816163,0.024 0.384077,0.012 0.672134,0 0.288058,0 0.39608,0 0.168033,-0.012 0.240048,-0.06 0.07201,-0.06 0.07201,-0.20404 z M 46.717921,97.39109 h 6.769354 v 0.864173 h -6.769354 z m -2.388478,0.936187 0.792159,-0.792158 0.09602,0.04801 v 6.853371 h -0.888178 z m 1.380276,-2.40048 0.852171,0.312063 q -0.456091,0.756151 -1.056211,1.512302 -0.60012,0.756151 -1.260252,1.416283 -0.64813,0.64813 -1.284257,1.164235 -0.07202,-0.096 -0.192039,-0.24005 -0.108021,-0.144029 -0.228045,-0.288057 -0.120024,-0.144029 -0.216044,-0.228046 0.624125,-0.444089 1.236248,-1.032206 0.624125,-0.588118 1.176235,-1.260252 0.564113,-0.672135 0.972194,-1.356272 z m -0.480096,-2.580516 0.864173,0.360072 q -0.396079,0.516103 -0.924185,1.068214 -0.516103,0.540108 -1.092218,1.044209 -0.564113,0.492098 -1.104221,0.876175 -0.06001,-0.09602 -0.156031,-0.228046 -0.08402,-0.144028 -0.192039,-0.276055 -0.09602,-0.144029 -0.180036,-0.216043 0.504101,-0.34807 1.020205,-0.792158 0.528105,-0.444089 0.984196,-0.924185 0.468094,-0.480096 0.780156,-0.912183 z"
         style="font-family:'Noto Sans TC';-inkscape-font-specification:'Noto Sans TC'"
         id="path28118" />
      <path
         d="m 55.919422,94.210454 h 5.521104 v 0.864173 h -5.521104 z m 2.952591,3.492699 h 2.112422 v 0.864172 h -2.112422 z m -0.408082,-3.024605 h 0.876175 v 7.573512 h -0.876175 z m -2.040408,2.220444 h 0.828165 v 5.701138 h -0.828165 z m -0.720144,5.485098 q 0.708141,-0.13203 1.644329,-0.32407 0.936187,-0.20404 1.980396,-0.43208 1.056211,-0.24005 2.088417,-0.4801 l 0.08402,0.82817 q -0.996199,0.24005 -2.004401,0.48009 -1.008201,0.24005 -1.944389,0.45609 -0.924184,0.20405 -1.668333,0.38408 z m 6.55331,-6.79336 h 4.560913 v 0.840168 h -4.560913 z m 0.408082,-2.232446 0.90018,0.144028 q -0.216043,1.128226 -0.55211,2.184437 -0.324065,1.044209 -0.732147,1.956392 -0.408081,0.90018 -0.924185,1.596319 -0.07201,-0.09602 -0.20404,-0.204041 -0.132027,-0.120024 -0.276056,-0.228046 -0.144028,-0.108021 -0.240048,-0.180036 0.492099,-0.624124 0.876176,-1.464292 0.396079,-0.840168 0.684136,-1.812363 0.288058,-0.972194 0.468094,-1.992398 z m 2.484497,2.676535 0.90018,0.09602 q -0.30006,2.064413 -0.876175,3.636727 -0.576115,1.572314 -1.54831,2.724544 -0.960192,1.14023 -2.460492,1.93239 -0.04801,-0.10802 -0.144029,-0.26406 -0.09602,-0.14402 -0.204041,-0.28805 -0.09602,-0.14403 -0.192038,-0.22805 1.416283,-0.69614 2.328466,-1.74035 0.912182,-1.05621 1.428285,-2.508498 0.516104,-1.464293 0.768154,-3.360673 z m -2.508502,0.336067 q 0.288058,1.668334 0.828166,3.108622 0.55211,1.440292 1.392278,2.520502 0.852171,1.06822 2.076416,1.64433 -0.09602,0.084 -0.216044,0.21604 -0.120024,0.13203 -0.228045,0.27606 -0.108022,0.14403 -0.180036,0.26405 -1.272255,-0.67213 -2.14843,-1.82436 -0.876175,-1.15223 -1.440288,-2.688541 -0.55211,-1.548309 -0.888178,-3.372674 z"
         style="font-family:'Noto Sans TC';-inkscape-font-specification:'Noto Sans TC'"
         id="path28120" />
      <path
         d="M 74.170733,96.995011 H 79.0077 v 0.792158 h -4.836967 z m -0.924185,2.160432 h 6.805361 v 0.816163 h -6.805361 z m -0.04801,-4.308862 h 6.781356 v 2.124425 H 79.115722 V 95.63874 h -5.065013 v 1.332266 h -0.85217 z m 1.764352,4.680936 h 0.864173 q -0.06001,0.912183 -0.216043,1.668333 -0.144029,0.75615 -0.480096,1.36827 -0.324065,0.60012 -0.912182,1.05622 -0.576116,0.45609 -1.488298,0.76815 -0.07201,-0.16803 -0.228046,-0.38408 -0.156031,-0.20404 -0.30006,-0.33606 0.840168,-0.25205 1.356272,-0.63613 0.528105,-0.38408 0.80416,-0.88818 0.288058,-0.5161 0.420084,-1.16423 0.132027,-0.64813 0.180036,-1.452293 z m 2.10042,-0.012 h 0.852171 v 3.600723 q 0,0.22804 0.06001,0.28805 0.06001,0.06 0.25205,0.06 0.06001,0 0.228046,0 0.180036,0 0.360072,0 0.192038,0 0.264053,0 0.132026,0 0.204041,-0.096 0.07201,-0.10803 0.09602,-0.43209 0.03601,-0.32407 0.04801,-0.9962 0.09602,0.072 0.228046,0.14403 0.132026,0.06 0.276055,0.12002 0.144029,0.048 0.264053,0.084 -0.02401,0.78016 -0.132026,1.20024 -0.09602,0.43209 -0.312063,0.60012 -0.204041,0.16803 -0.576115,0.16803 -0.06001,0 -0.216043,0 -0.144029,0 -0.324065,0 -0.180036,0 -0.324065,0 -0.144029,0 -0.216043,0 -0.408082,0 -0.636127,-0.10802 -0.228046,-0.096 -0.312063,-0.34807 -0.08402,-0.24005 -0.08402,-0.67213 z m -1.440288,-5.989198 0.816164,-0.264053 q 0.228045,0.34807 0.444088,0.780156 0.228046,0.420084 0.336068,0.720144 l -0.864173,0.324065 q -0.09602,-0.324065 -0.30006,-0.756151 -0.204041,-0.444089 -0.432087,-0.804161 z m -6.085217,0.324065 h 2.79656 v 0.816163 H 70.35397 v 9.709943 h -0.816164 z m 2.580516,0 h 0.156032 l 0.132026,-0.03601 0.588118,0.348069 q -0.264053,0.732147 -0.576115,1.572315 -0.312063,0.828166 -0.624125,1.54831 0.660132,0.756151 0.864173,1.40428 0.216043,0.64813 0.216043,1.224245 0,0.480097 -0.120024,0.852167 -0.108022,0.36008 -0.360072,0.55212 -0.120024,0.084 -0.288058,0.14402 -0.156031,0.048 -0.336067,0.072 -0.180036,0.024 -0.396079,0.024 -0.204041,0 -0.408082,0 -0.012,-0.16803 -0.07201,-0.39608 -0.04801,-0.22804 -0.156032,-0.39608 0.204041,0.012 0.384077,0.024 0.180036,0 0.312063,-0.012 0.240048,-0.024 0.372074,-0.10802 0.144029,-0.10803 0.204041,-0.33607 0.06001,-0.22805 0.06001,-0.504104 0,-0.492098 -0.228046,-1.10422 -0.216043,-0.624125 -0.864173,-1.344269 0.168034,-0.408082 0.324065,-0.852171 0.168034,-0.444088 0.312063,-0.888177 0.156031,-0.444089 0.276055,-0.840168 0.132026,-0.39608 0.228045,-0.69614 z"
         style="font-family:'Noto Sans TC';-inkscape-font-specification:'Noto Sans TC'"
         id="path28122" />
      <path
         d="m 87.381039,95.374687 0.564112,-0.516103 q 0.576116,0.204041 1.224245,0.480096 0.64813,0.264053 1.236247,0.540108 0.600121,0.276055 1.008202,0.528105 l -0.612122,0.576116 q -0.372075,-0.240048 -0.960192,-0.528106 -0.576116,-0.30006 -1.224245,-0.576115 -0.64813,-0.288058 -1.236247,-0.504101 z m -1.164233,0.996199 h 6.145229 v 0.696139 h -5.329066 v 5.497095 h -0.816163 z m 5.821164,0 h 0.828166 v 5.341064 q 0,0.32407 -0.08402,0.4921 -0.08402,0.16804 -0.324065,0.27606 -0.228046,0.084 -0.624125,0.10802 -0.384077,0.012 -0.984197,0.012 -0.02401,-0.15603 -0.09602,-0.36007 -0.07201,-0.20404 -0.156031,-0.34807 0.444089,0.012 0.780156,0.012 0.34807,0 0.468094,0 0.120024,0 0.156031,-0.048 0.03601,-0.048 0.03601,-0.14403 z m -5.797159,-2.520504 h 5.989197 v 0.708142 h -5.989197 z m 0.456091,4.272855 h 5.65313 v 0.672134 h -5.65313 z m 0,1.764352 h 5.65313 v 0.708141 h -5.65313 z m 2.40048,-3.228645 h 0.780156 v 5.881176 h -0.780156 z m 2.832566,-2.808562 h 0.204041 l 0.180036,-0.04801 0.564113,0.444089 q -0.408082,0.372075 -0.924185,0.744149 -0.516103,0.360072 -1.080216,0.672135 -0.564113,0.312062 -1.116223,0.540108 -0.08402,-0.120024 -0.228046,-0.276056 -0.144029,-0.156031 -0.25205,-0.25205 0.504101,-0.204041 1.008201,-0.480096 0.504101,-0.276055 0.936188,-0.576115 0.432086,-0.312063 0.708141,-0.60012 z m -9.061812,-0.07201 0.684137,-0.408082 q 0.276055,0.288058 0.564113,0.624125 0.30006,0.336067 0.55211,0.660132 0.264053,0.312062 0.420084,0.55211 l -0.684137,0.492099 Q 84.23641,95.446701 83.972357,95.110634 83.720306,94.774567 83.432249,94.426497 83.144191,94.066425 82.868136,93.778368 Z m -0.432086,2.35247 h 2.628525 v 0.756151 H 82.43605 Z m 2.148429,5.497098 q 0.372075,0.79216 1.008202,1.17623 0.64813,0.38408 1.560312,0.5041 0.924185,0.10803 2.112422,0.12003 0.636128,0 1.392279,-0.024 0.756151,-0.024 1.5003,-0.06 0.756151,-0.036 1.356271,-0.084 -0.06001,0.096 -0.120024,0.25205 -0.06001,0.15604 -0.108021,0.31207 -0.04801,0.16803 -0.07201,0.30006 -0.55211,0.024 -1.224245,0.048 -0.672134,0.036 -1.368273,0.036 -0.69614,0.012 -1.356272,0.012 -1.056211,0 -1.896379,-0.084 -0.828165,-0.084 -1.464293,-0.32407 -0.636127,-0.24004 -1.116223,-0.69613 -0.480096,-0.4561 -0.816163,-1.20024 z m 0.156031,-2.5085 h 0.216044 l 0.156031,-0.012 0.444089,0.168034 q -0.30006,1.908386 -1.020204,3.192646 -0.720144,1.27225 -1.728346,1.95639 -0.06001,-0.096 -0.168034,-0.21605 -0.108021,-0.12002 -0.228045,-0.24004 -0.108022,-0.10803 -0.204041,-0.15604 0.960192,-0.61212 1.620324,-1.75235 0.660132,-1.14022 0.912182,-2.784556 z m -2.136427,0.91218 V 99.335483 L 83.03617,99.11944 h 2.004401 v 0.732146 h -1.716344 q -0.228045,0 -0.444089,0.06001 -0.20404,0.04801 -0.276055,0.120024 z m 0,0 q -0.02401,-0.108019 -0.09602,-0.264051 -0.06001,-0.156031 -0.120024,-0.312062 -0.06001,-0.156031 -0.120024,-0.240048 0.144029,-0.03601 0.288058,-0.108022 0.144028,-0.08402 0.30006,-0.264052 0.144028,-0.132027 0.408081,-0.456092 0.264053,-0.336067 0.564113,-0.744148 0.30006,-0.420084 0.564113,-0.804161 0.276055,-0.384077 0.432086,-0.624125 v -0.02401 l 0.276056,-0.120024 0.588117,0.276055 q -0.216043,0.312063 -0.516103,0.732147 -0.30006,0.408081 -0.636127,0.85217 -0.336068,0.432087 -0.660132,0.840168 -0.324065,0.408082 -0.588118,0.696139 0,0 -0.108022,0.06001 -0.09602,0.04801 -0.240048,0.144029 -0.132026,0.08402 -0.240048,0.180036 -0.09602,0.08402 -0.09602,0.180041 z"
         style="font-family:'Noto Sans TC';-inkscape-font-specification:'Noto Sans TC'"
         id="path28124" />
      <path
         d="m 96.15045,101.50791 h 5.12503 v 0.63613 h -5.12503 z m -0.192038,-1.38027 h 5.569118 v 0.66013 h -5.569118 z m -0.288058,-5.797162 h 6.061216 v 0.684137 h -6.061216 z m 2.592519,1.668334 h 0.840168 v 7.429488 h -0.840168 z m -2.640528,7.249448 q 0.732146,-0.06 1.680336,-0.13202 0.948189,-0.072 2.028405,-0.15604 1.080214,-0.084 2.160434,-0.16803 v 0.73215 q -1.04421,0.096 -2.088419,0.18003 -1.044209,0.084 -1.992399,0.16804 -0.948189,0.084 -1.692338,0.14403 z m 1.260252,-5.593117 v 1.188238 h 3.636723 v -1.188238 z m -0.780156,-0.64813 h 5.233049 v 2.484497 h -5.233049 z m 0.828165,-3.648729 h 0.828166 v 2.472494 h 1.884377 v -2.472494 h 0.852171 v 3.072614 h -3.564714 z m 4.632924,2.820564 h 4.45289 v 0.840168 h -4.45289 z m 4.10482,0 h 0.85217 q 0,0 0,0.09602 0,0.08402 -0.012,0.192038 0,0.09602 0,0.156032 -0.036,1.908381 -0.096,3.216643 -0.048,1.296259 -0.12002,2.124419 -0.06,0.81617 -0.15603,1.26026 -0.096,0.44409 -0.24005,0.63612 -0.15603,0.22805 -0.33607,0.32407 -0.18003,0.096 -0.44409,0.12002 -0.25205,0.036 -0.62412,0.024 -0.37208,0 -0.79216,-0.024 -0.012,-0.18003 -0.072,-0.43208 -0.06,-0.24005 -0.16804,-0.40809 0.42009,0.036 0.76816,0.036 0.34807,0.012 0.5041,0.012 0.14403,0 0.24004,-0.036 0.096,-0.036 0.16804,-0.15603 0.10802,-0.13203 0.19204,-0.55211 0.084,-0.42009 0.14403,-1.21225 0.06,-0.80416 0.10802,-2.064409 0.048,-1.272254 0.084,-3.108621 z m -2.54451,-2.724545 h 0.85218 q -0.012,1.836367 -0.072,3.480696 -0.048,1.632326 -0.27605,3.04861 -0.21605,1.404281 -0.73215,2.532511 -0.5161,1.11622 -1.45229,1.93238 -0.072,-0.10802 -0.19204,-0.22804 -0.10802,-0.12003 -0.22805,-0.24005 -0.12002,-0.10802 -0.22804,-0.16804 0.70814,-0.58811 1.15223,-1.38027 0.44409,-0.79216 0.68414,-1.76435 0.25205,-0.972199 0.34807,-2.112427 0.10802,-1.140228 0.12002,-2.412482 0.024,-1.284257 0.024,-2.688538 z"
         style="font-family:'Noto Sans TC';-inkscape-font-specification:'Noto Sans TC'"
         id="path28126" />
      <path
         d="m 111.48518,93.994411 h 6.25325 v 0.876175 h -6.25325 z m 0,2.892578 h 6.31327 v 0.852171 h -6.31327 z m -0.096,2.892579 h 6.34927 v 0.876172 h -6.34927 z m -0.46809,-5.785157 h 0.91218 v 3.696739 q 0,0.780156 -0.084,1.668334 -0.072,0.888176 -0.31207,1.800356 -0.24004,0.90018 -0.72014,1.74035 -0.46809,0.84017 -1.24825,1.5123 -0.06,-0.096 -0.19204,-0.22804 -0.12002,-0.13203 -0.25205,-0.25205 -0.13203,-0.10802 -0.24005,-0.16804 0.73215,-0.64812 1.15223,-1.39227 0.43209,-0.75615 0.63613,-1.56032 0.21604,-0.80416 0.27606,-1.596315 0.072,-0.804161 0.072,-1.524305 z m 6.42128,0 h 0.94819 v 9.073819 q 0,0.48009 -0.14403,0.73214 -0.14402,0.25205 -0.48009,0.37208 -0.34807,0.12002 -0.9722,0.14403 -0.62412,0.036 -1.58431,0.036 -0.024,-0.14403 -0.096,-0.31206 -0.06,-0.16803 -0.14403,-0.34807 -0.072,-0.16803 -0.14403,-0.28806 0.5041,0.012 0.96019,0.024 0.4681,0 0.80416,0 0.34807,-0.012 0.4801,-0.012 0.21604,-0.012 0.28806,-0.084 0.084,-0.084 0.084,-0.27606 z"
         style="font-family:'Noto Sans TC';-inkscape-font-specification:'Noto Sans TC'"
         id="path28128" />
      <path
         d="m 129.47244,102.15604 0.64813,-0.45609 q 0.4921,0.25205 1.03221,0.58812 0.55211,0.33607 1.04421,0.67213 0.5041,0.33607 0.82816,0.61213 l -0.69614,0.5401 q -0.30006,-0.27605 -0.78015,-0.62412 -0.4801,-0.33607 -1.03221,-0.69614 -0.54011,-0.36007 -1.04421,-0.63613 z m -5.65313,-3.096616 h 7.82557 v 0.720144 h -7.82557 z m -1.45229,1.548306 h 10.74215 v 0.75615 h -10.74215 z m 0.13203,-6.76935 h 10.37007 v 0.744148 h -10.37007 z m 2.47249,7.82556 0.84017,0.28806 q -0.36007,0.42009 -0.84017,0.84017 -0.48009,0.40808 -1.0082,0.75615 -0.5161,0.34807 -1.0202,0.61212 -0.06,-0.084 -0.19204,-0.20404 -0.13203,-0.12002 -0.26406,-0.22804 -0.12002,-0.10802 -0.22804,-0.18004 0.76815,-0.33607 1.5003,-0.82816 0.74415,-0.5041 1.21224,-1.05622 z m -0.91218,-5.461087 v 1.380276 h 7.34547 v -1.380276 z m -0.84017,-0.69614 h 9.07382 v 2.772555 h -9.07382 z m 2.66453,-1.392278 h 0.82817 v 3.840768 h -0.82817 z m 2.73655,0 h 0.85217 v 3.840768 h -0.85217 z m -1.34427,6.697335 h 0.88818 v 3.61273 H 127.276 Z"
         style="font-family:'Noto Sans TC';-inkscape-font-specification:'Noto Sans TC'"
         id="path28130" />
    </g>
    <text
       xml:space="preserve"
       transform="scale(0.26458333)"
       id="text29720"
       style="fill:black;fill-opacity:1;line-height:1.25;stroke:none;font-family:sans-serif;font-style:normal;font-weight:normal;font-size:40px;white-space:pre;shape-inside:url(#rect29722)" />
    <path
       id="rect30606-2"
       style="fill:#ffffff;stroke:#565656;stroke-width:0.1"
       d="m 141.70193,78.513664 h 48.87118 c 1.76574,0 3.18725,1.421514 3.18725,3.187251 V 111.5814 c 0,1.76573 -1.42151,3.18725 -3.18725,3.18725 h -48.87118 c -1.76574,0 -3.18725,-1.42152 -3.18725,-3.18725 V 81.700915 c 0,-1.765737 1.42151,-3.187251 3.18725,-3.187251 z" />
    <path
       id="rect30606"
       style="fill:#028600;fill-opacity:1;stroke:none;stroke-width:0.499999;stroke-miterlimit:4;stroke-dasharray:none;stroke-opacity:1"
       d="m 149.86167,84.029494 a 17.203169,17.203169 0 0 0 -11.34918,4.289661 v 23.328865 c 0,1.76574 1.42167,3.18689 3.1874,3.18689 h 18.68207 a 17.203169,17.203169 0 0 0 6.68331,-13.60232 17.203169,17.203169 0 0 0 -17.2036,-17.203096 z" />
    <path
       id="path32723"
       style="fill:#ffffff;stroke-width:0.373295"
       d="m 156.64206,101.15643 a 6.8412638,6.940413 0 0 1 -6.84126,6.94042 6.8412638,6.940413 0 0 1 -6.84127,-6.94042 6.8412638,6.940413 0 0 1 6.84127,-6.94041 6.8412638,6.940413 0 0 1 6.84126,6.94041 z" />
    <path
       id="path32851"
       style="fill:#e375c2;stroke-width:0.499999"
       d="m 181.2085,89.735451 a 6.9721117,6.9721117 0 0 1 -6.97211,6.972111 6.9721117,6.9721117 0 0 1 -6.97211,-6.972111 6.9721117,6.9721117 0 0 1 6.97211,-6.972112 6.9721117,6.9721117 0 0 1 6.97211,6.972112 z" />
    <path
       id="path32723-3"
       style="fill:#ffffff;stroke-width:0.152281"
       d="m 176.82798,89.735451 a 2.7907989,2.8312454 0 0 1 -2.79079,2.831245 2.7907989,2.8312454 0 0 1 -2.7908,-2.831245 2.7907989,2.8312454 0 0 1 2.7908,-2.831246 2.7907989,2.8312454 0 0 1 2.79079,2.831246 z" />
    <path
       id="path32723-3-9"
       style="fill:#ececec;stroke-width:0.152281"
       inkscape:transform-center-x="-0.066401084"
       inkscape:transform-center-y="0.19920314"
       d="m 189.90899,83.228149 a 2.7907989,2.8312454 0 0 1 -2.7908,2.831246 2.7907989,2.8312454 0 0 1 -2.79079,-2.831246 2.7907989,2.8312454 0 0 1 2.79079,-2.831245 2.7907989,2.8312454 0 0 1 2.7908,2.831245 z" />
    <g
       aria-label="TPASS"
       id="text14462-1"
       style="font-size:27.7874px;line-height:1.25;letter-spacing:1.38937px;stroke-width:0.694685"
       transform="matrix(0.13988249,0,0,0.13988249,170.70537,94.907821)">
      <path
         d="M 48.386151,89.045166 V 71.678041 h -5.362968 v -3.334487 h 14.449448 v 3.334487 h -5.279606 v 17.367125 z"
         style="fill:#028600"
         id="path28133-3" />
      <path
         d="M 61.168349,89.045166 V 68.343554 h 7.724897 q 2.111842,0 3.723511,0.778047 1.639457,0.75026 2.556441,2.222992 0.916984,1.444944 0.916984,3.528999 0,2.056268 -0.944771,3.529 -0.916985,1.444945 -2.528654,2.222992 -1.611669,0.778047 -3.723511,0.778047 h -3.945811 v 7.641535 z m 3.779086,-10.976023 h 4.001385 q 1.028134,0 1.778394,-0.389023 0.75026,-0.416811 1.167071,-1.139284 0.416811,-0.722472 0.416811,-1.667244 0,-0.972559 -0.416811,-1.667244 -0.416811,-0.722472 -1.167071,-1.111496 -0.75026,-0.416811 -1.778394,-0.416811 h -4.001385 z"
         style="font-weight:bold;font-family:'Plus Jakarta Sans';-inkscape-font-specification:'Plus Jakarta Sans Bold'"
         id="path28135-2" />
      <path
         d="M 77.201608,89.045166 84.34297,68.343554 h 4.890582 l 7.141361,20.701612 h -4.112535 l -1.472732,-4.445984 h -8.002771 l -1.500519,4.445984 z m 6.668976,-7.780472 h 5.835354 L 86.2603,70.955569 h 1.055921 z"
         style="font-weight:bold;font-family:'Plus Jakarta Sans';-inkscape-font-specification:'Plus Jakarta Sans Bold'"
         id="path28137-6" />
      <path
         d="m 107.1842,89.378615 q -1.9729,0 -3.66793,-0.722473 -1.66725,-0.722472 -2.88989,-2.000692 -1.194863,-1.306008 -1.750611,-3.028827 l 3.139981,-1.361582 q 0.75026,1.778393 2.16741,2.806527 1.41716,1.000346 3.19555,1.000346 1.00035,0 1.72282,-0.305661 0.75026,-0.333449 1.13929,-0.889197 0.41681,-0.555748 0.41681,-1.333795 0,-0.916984 -0.55575,-1.50052 -0.52796,-0.611322 -1.61167,-0.944771 l -3.9736,-1.278221 q -2.4175,-0.750259 -3.64015,-2.250779 -1.222643,-1.500519 -1.222643,-3.529 0,-1.778393 0.861413,-3.139976 0.88919,-1.361582 2.44529,-2.111842 1.58388,-0.778047 3.61236,-0.778047 1.86175,0 3.41785,0.666897 1.55609,0.639111 2.66759,1.806181 1.13928,1.139284 1.69503,2.695378 l -3.11219,1.38937 q -0.61132,-1.556094 -1.83397,-2.389716 -1.22264,-0.86141 -2.83431,-0.86141 -0.94477,0 -1.66724,0.333449 -0.72248,0.305661 -1.13929,0.889197 -0.38902,0.555748 -0.38902,1.333795 0,0.861409 0.55575,1.528307 0.55574,0.63911 1.69503,1.000346 l 3.80687,1.194859 q 2.47308,0.805834 3.69573,2.222991 1.25043,1.417158 1.25043,3.501213 0,1.778393 -0.91699,3.139976 -0.91698,1.361582 -2.52865,2.13963 -1.61167,0.778047 -3.7513,0.778047 z"
         style="font-weight:bold;font-family:'Plus Jakarta Sans';-inkscape-font-specification:'Plus Jakarta Sans Bold'"
         id="path28139-0" />
      <path
         d="m 126.552,89.378615 q -1.97291,0 -3.66794,-0.722473 -1.66724,-0.722472 -2.88989,-2.000692 -1.19485,-1.306008 -1.7506,-3.028827 l 3.13997,-1.361582 q 0.75026,1.778393 2.16742,2.806527 1.41716,1.000346 3.19555,1.000346 1.00035,0 1.72282,-0.305661 0.75026,-0.333449 1.13928,-0.889197 0.41681,-0.555748 0.41681,-1.333795 0,-0.916984 -0.55574,-1.50052 -0.52796,-0.611322 -1.61167,-0.944771 l -3.9736,-1.278221 q -2.4175,-0.750259 -3.64015,-2.250779 -1.22265,-1.500519 -1.22265,-3.529 0,-1.778393 0.86141,-3.139976 0.8892,-1.361582 2.44529,-2.111842 1.58389,-0.778047 3.61237,-0.778047 1.86175,0 3.41785,0.666897 1.55609,0.639111 2.66759,1.806181 1.13928,1.139284 1.69503,2.695378 l -3.11219,1.38937 q -0.61132,-1.556094 -1.83397,-2.389716 -1.22264,-0.86141 -2.83431,-0.86141 -0.94477,0 -1.66725,0.333449 -0.72247,0.305661 -1.13928,0.889197 -0.38902,0.555748 -0.38902,1.333795 0,0.861409 0.55574,1.528307 0.55575,0.63911 1.69504,1.000346 l 3.80687,1.194859 q 2.47308,0.805834 3.69572,2.222991 1.25044,1.417158 1.25044,3.501213 0,1.778393 -0.91699,3.139976 -0.91698,1.361582 -2.52865,2.13963 -1.61167,0.778047 -3.7513,0.778047 z"
         style="font-weight:bold;font-family:'Plus Jakarta Sans';-inkscape-font-specification:'Plus Jakarta Sans Bold'"
         id="path28141-2" />
    </g>
    <g
       aria-label="行政院通勤月票"
       id="text24214-7"
       style="font-size:12.0024px;line-height:1.25;letter-spacing:1.27994px;stroke-width:0.300061"
       transform="matrix(0.13988249,0,0,0.13988249,170.70537,94.907821)">
      <path
         d="m 47.246027,94.078428 h 5.905181 v 0.864173 h -5.905181 z m 3.516703,3.576715 h 0.912182 v 5.593117 q 0,0.42009 -0.120024,0.63613 -0.120024,0.22804 -0.420084,0.34807 -0.312062,0.096 -0.85217,0.10802 -0.528106,0.024 -1.416283,0.024 -0.02401,-0.18003 -0.108022,-0.43208 -0.08402,-0.25205 -0.192038,-0.45609 0.432086,0.012 0.816163,0.024 0.384077,0.012 0.672134,0 0.288058,0 0.39608,0 0.168033,-0.012 0.240048,-0.06 0.07201,-0.06 0.07201,-0.20404 z M 46.717921,97.39109 h 6.769354 v 0.864173 h -6.769354 z m -2.388478,0.936187 0.792159,-0.792158 0.09602,0.04801 v 6.853371 h -0.888178 z m 1.380276,-2.40048 0.852171,0.312063 q -0.456091,0.756151 -1.056211,1.512302 -0.60012,0.756151 -1.260252,1.416283 -0.64813,0.64813 -1.284257,1.164235 -0.07202,-0.096 -0.192039,-0.24005 -0.108021,-0.144029 -0.228045,-0.288057 -0.120024,-0.144029 -0.216044,-0.228046 0.624125,-0.444089 1.236248,-1.032206 0.624125,-0.588118 1.176235,-1.260252 0.564113,-0.672135 0.972194,-1.356272 z m -0.480096,-2.580516 0.864173,0.360072 q -0.396079,0.516103 -0.924185,1.068214 -0.516103,0.540108 -1.092218,1.044209 -0.564113,0.492098 -1.104221,0.876175 -0.06001,-0.09602 -0.156031,-0.228046 -0.08402,-0.144028 -0.192039,-0.276055 -0.09602,-0.144029 -0.180036,-0.216043 0.504101,-0.34807 1.020205,-0.792158 0.528105,-0.444089 0.984196,-0.924185 0.468094,-0.480096 0.780156,-0.912183 z"
         style="font-family:'Noto Sans TC';-inkscape-font-specification:'Noto Sans TC'"
         id="path28118-6" />
      <path
         d="m 55.919422,94.210454 h 5.521104 v 0.864173 h -5.521104 z m 2.952591,3.492699 h 2.112422 v 0.864172 h -2.112422 z m -0.408082,-3.024605 h 0.876175 v 7.573512 h -0.876175 z m -2.040408,2.220444 h 0.828165 v 5.701138 h -0.828165 z m -0.720144,5.485098 q 0.708141,-0.13203 1.644329,-0.32407 0.936187,-0.20404 1.980396,-0.43208 1.056211,-0.24005 2.088417,-0.4801 l 0.08402,0.82817 q -0.996199,0.24005 -2.004401,0.48009 -1.008201,0.24005 -1.944389,0.45609 -0.924184,0.20405 -1.668333,0.38408 z m 6.55331,-6.79336 h 4.560913 v 0.840168 h -4.560913 z m 0.408082,-2.232446 0.90018,0.144028 q -0.216043,1.128226 -0.55211,2.184437 -0.324065,1.044209 -0.732147,1.956392 -0.408081,0.90018 -0.924185,1.596319 -0.07201,-0.09602 -0.20404,-0.204041 -0.132027,-0.120024 -0.276056,-0.228046 -0.144028,-0.108021 -0.240048,-0.180036 0.492099,-0.624124 0.876176,-1.464292 0.396079,-0.840168 0.684136,-1.812363 0.288058,-0.972194 0.468094,-1.992398 z m 2.484497,2.676535 0.90018,0.09602 q -0.30006,2.064413 -0.876175,3.636727 -0.576115,1.572314 -1.54831,2.724544 -0.960192,1.14023 -2.460492,1.93239 -0.04801,-0.10802 -0.144029,-0.26406 -0.09602,-0.14402 -0.204041,-0.28805 -0.09602,-0.14403 -0.192038,-0.22805 1.416283,-0.69614 2.328466,-1.74035 0.912182,-1.05621 1.428285,-2.508498 0.516104,-1.464293 0.768154,-3.360673 z m -2.508502,0.336067 q 0.288058,1.668334 0.828166,3.108622 0.55211,1.440292 1.392278,2.520502 0.852171,1.06822 2.076416,1.64433 -0.09602,0.084 -0.216044,0.21604 -0.120024,0.13203 -0.228045,0.27606 -0.108022,0.14403 -0.180036,0.26405 -1.272255,-0.67213 -2.14843,-1.82436 -0.876175,-1.15223 -1.440288,-2.688541 -0.55211,-1.548309 -0.888178,-3.372674 z"
         style="font-family:'Noto Sans TC';-inkscape-font-specification:'Noto Sans TC'"
         id="path28120-7" />
      <path
         d="M 74.170733,96.995011 H 79.0077 v 0.792158 h -4.836967 z m -0.924185,2.160432 h 6.805361 v 0.816163 h -6.805361 z m -0.04801,-4.308862 h 6.781356 v 2.124425 H 79.115722 V 95.63874 h -5.065013 v 1.332266 h -0.85217 z m 1.764352,4.680936 h 0.864173 q -0.06001,0.912183 -0.216043,1.668333 -0.144029,0.75615 -0.480096,1.36827 -0.324065,0.60012 -0.912182,1.05622 -0.576116,0.45609 -1.488298,0.76815 -0.07201,-0.16803 -0.228046,-0.38408 -0.156031,-0.20404 -0.30006,-0.33606 0.840168,-0.25205 1.356272,-0.63613 0.528105,-0.38408 0.80416,-0.88818 0.288058,-0.5161 0.420084,-1.16423 0.132027,-0.64813 0.180036,-1.452293 z m 2.10042,-0.012 h 0.852171 v 3.600723 q 0,0.22804 0.06001,0.28805 0.06001,0.06 0.25205,0.06 0.06001,0 0.228046,0 0.180036,0 0.360072,0 0.192038,0 0.264053,0 0.132026,0 0.204041,-0.096 0.07201,-0.10803 0.09602,-0.43209 0.03601,-0.32407 0.04801,-0.9962 0.09602,0.072 0.228046,0.14403 0.132026,0.06 0.276055,0.12002 0.144029,0.048 0.264053,0.084 -0.02401,0.78016 -0.132026,1.20024 -0.09602,0.43209 -0.312063,0.60012 -0.204041,0.16803 -0.576115,0.16803 -0.06001,0 -0.216043,0 -0.144029,0 -0.324065,0 -0.180036,0 -0.324065,0 -0.144029,0 -0.216043,0 -0.408082,0 -0.636127,-0.10802 -0.228046,-0.096 -0.312063,-0.34807 -0.08402,-0.24005 -0.08402,-0.67213 z m -1.440288,-5.989198 0.816164,-0.264053 q 0.228045,0.34807 0.444088,0.780156 0.228046,0.420084 0.336068,0.720144 l -0.864173,0.324065 q -0.09602,-0.324065 -0.30006,-0.756151 -0.204041,-0.444089 -0.432087,-0.804161 z m -6.085217,0.324065 h 2.79656 v 0.816163 H 70.35397 v 9.709943 h -0.816164 z m 2.580516,0 h 0.156032 l 0.132026,-0.03601 0.588118,0.348069 q -0.264053,0.732147 -0.576115,1.572315 -0.312063,0.828166 -0.624125,1.54831 0.660132,0.756151 0.864173,1.40428 0.216043,0.64813 0.216043,1.224245 0,0.480097 -0.120024,0.852167 -0.108022,0.36008 -0.360072,0.55212 -0.120024,0.084 -0.288058,0.14402 -0.156031,0.048 -0.336067,0.072 -0.180036,0.024 -0.396079,0.024 -0.204041,0 -0.408082,0 -0.012,-0.16803 -0.07201,-0.39608 -0.04801,-0.22804 -0.156032,-0.39608 0.204041,0.012 0.384077,0.024 0.180036,0 0.312063,-0.012 0.240048,-0.024 0.372074,-0.10802 0.144029,-0.10803 0.204041,-0.33607 0.06001,-0.22805 0.06001,-0.504104 0,-0.492098 -0.228046,-1.10422 -0.216043,-0.624125 -0.864173,-1.344269 0.168034,-0.408082 0.324065,-0.852171 0.168034,-0.444088 0.312063,-0.888177 0.156031,-0.444089 0.276055,-0.840168 0.132026,-0.39608 0.228045,-0.69614 z"
         style="font-family:'Noto Sans TC';-inkscape-font-specification:'Noto Sans TC'"
         id="path28122-3" />
      <path
         d="m 87.381039,95.374687 0.564112,-0.516103 q 0.576116,0.204041 1.224245,0.480096 0.64813,0.264053 1.236247,0.540108 0.600121,0.276055 1.008202,0.528105 l -0.612122,0.576116 q -0.372075,-0.240048 -0.960192,-0.528106 -0.576116,-0.30006 -1.224245,-0.576115 -0.64813,-0.288058 -1.236247,-0.504101 z m -1.164233,0.996199 h 6.145229 v 0.696139 h -5.329066 v 5.497095 h -0.816163 z m 5.821164,0 h 0.828166 v 5.341064 q 0,0.32407 -0.08402,0.4921 -0.08402,0.16804 -0.324065,0.27606 -0.228046,0.084 -0.624125,0.10802 -0.384077,0.012 -0.984197,0.012 -0.02401,-0.15603 -0.09602,-0.36007 -0.07201,-0.20404 -0.156031,-0.34807 0.444089,0.012 0.780156,0.012 0.34807,0 0.468094,0 0.120024,0 0.156031,-0.048 0.03601,-0.048 0.03601,-0.14403 z m -5.797159,-2.520504 h 5.989197 v 0.708142 h -5.989197 z m 0.456091,4.272855 h 5.65313 v 0.672134 h -5.65313 z m 0,1.764352 h 5.65313 v 0.708141 h -5.65313 z m 2.40048,-3.228645 h 0.780156 v 5.881176 h -0.780156 z m 2.832566,-2.808562 h 0.204041 l 0.180036,-0.04801 0.564113,0.444089 q -0.408082,0.372075 -0.924185,0.744149 -0.516103,0.360072 -1.080216,0.672135 -0.564113,0.312062 -1.116223,0.540108 -0.08402,-0.120024 -0.228046,-0.276056 -0.144029,-0.156031 -0.25205,-0.25205 0.504101,-0.204041 1.008201,-0.480096 0.504101,-0.276055 0.936188,-0.576115 0.432086,-0.312063 0.708141,-0.60012 z m -9.061812,-0.07201 0.684137,-0.408082 q 0.276055,0.288058 0.564113,0.624125 0.30006,0.336067 0.55211,0.660132 0.264053,0.312062 0.420084,0.55211 l -0.684137,0.492099 Q 84.23641,95.446701 83.972357,95.110634 83.720306,94.774567 83.432249,94.426497 83.144191,94.066425 82.868136,93.778368 Z m -0.432086,2.35247 h 2.628525 v 0.756151 H 82.43605 Z m 2.148429,5.497098 q 0.372075,0.79216 1.008202,1.17623 0.64813,0.38408 1.560312,0.5041 0.924185,0.10803 2.112422,0.12003 0.636128,0 1.392279,-0.024 0.756151,-0.024 1.5003,-0.06 0.756151,-0.036 1.356271,-0.084 -0.06001,0.096 -0.120024,0.25205 -0.06001,0.15604 -0.108021,0.31207 -0.04801,0.16803 -0.07201,0.30006 -0.55211,0.024 -1.224245,0.048 -0.672134,0.036 -1.368273,0.036 -0.69614,0.012 -1.356272,0.012 -1.056211,0 -1.896379,-0.084 -0.828165,-0.084 -1.464293,-0.32407 -0.636127,-0.24004 -1.116223,-0.69613 -0.480096,-0.4561 -0.816163,-1.20024 z m 0.156031,-2.5085 h 0.216044 l 0.156031,-0.012 0.444089,0.168034 q -0.30006,1.908386 -1.020204,3.192646 -0.720144,1.27225 -1.728346,1.95639 -0.06001,-0.096 -0.168034,-0.21605 -0.108021,-0.12002 -0.228045,-0.24004 -0.108022,-0.10803 -0.204041,-0.15604 0.960192,-0.61212 1.620324,-1.75235 0.660132,-1.14022 0.912182,-2.784556 z m -2.136427,0.91218 V 99.335483 L 83.03617,99.11944 h 2.004401 v 0.732146 h -1.716344 q -0.228045,0 -0.444089,0.06001 -0.20404,0.04801 -0.276055,0.120024 z m 0,0 q -0.02401,-0.108019 -0.09602,-0.264051 -0.06001,-0.156031 -0.120024,-0.312062 -0.06001,-0.156031 -0.120024,-0.240048 0.144029,-0.03601 0.288058,-0.108022 0.144028,-0.08402 0.30006,-0.264052 0.144028,-0.132027 0.408081,-0.456092 0.264053,-0.336067 0.564113,-0.744148 0.30006,-0.420084 0.564113,-0.804161 0.276055,-0.384077 0.432086,-0.624125 v -0.02401 l 0.276056,-0.120024 0.588117,0.276055 q -0.216043,0.312063 -0.516103,0.732147 -0.30006,0.408081 -0.636127,0.85217 -0.336068,0.432087 -0.660132,0.840168 -0.324065,0.408082 -0.588118,0.696139 0,0 -0.108022,0.06001 -0.09602,0.04801 -0.240048,0.144029 -0.132026,0.08402 -0.240048,0.180036 -0.09602,0.08402 -0.09602,0.180041 z"
         style="font-family:'Noto Sans TC';-inkscape-font-specification:'Noto Sans TC'"
         id="path28124-2" />
      <path
         d="m 96.15045,101.50791 h 5.12503 v 0.63613 h -5.12503 z m -0.192038,-1.38027 h 5.569118 v 0.66013 h -5.569118 z m -0.288058,-5.797162 h 6.061216 v 0.684137 h -6.061216 z m 2.592519,1.668334 h 0.840168 v 7.429488 h -0.840168 z m -2.640528,7.249448 q 0.732146,-0.06 1.680336,-0.13202 0.948189,-0.072 2.028405,-0.15604 1.080214,-0.084 2.160434,-0.16803 v 0.73215 q -1.04421,0.096 -2.088419,0.18003 -1.044209,0.084 -1.992399,0.16804 -0.948189,0.084 -1.692338,0.14403 z m 1.260252,-5.593117 v 1.188238 h 3.636723 v -1.188238 z m -0.780156,-0.64813 h 5.233049 v 2.484497 h -5.233049 z m 0.828165,-3.648729 h 0.828166 v 2.472494 h 1.884377 v -2.472494 h 0.852171 v 3.072614 h -3.564714 z m 4.632924,2.820564 h 4.45289 v 0.840168 h -4.45289 z m 4.10482,0 h 0.85217 q 0,0 0,0.09602 0,0.08402 -0.012,0.192038 0,0.09602 0,0.156032 -0.036,1.908381 -0.096,3.216643 -0.048,1.296259 -0.12002,2.124419 -0.06,0.81617 -0.15603,1.26026 -0.096,0.44409 -0.24005,0.63612 -0.15603,0.22805 -0.33607,0.32407 -0.18003,0.096 -0.44409,0.12002 -0.25205,0.036 -0.62412,0.024 -0.37208,0 -0.79216,-0.024 -0.012,-0.18003 -0.072,-0.43208 -0.06,-0.24005 -0.16804,-0.40809 0.42009,0.036 0.76816,0.036 0.34807,0.012 0.5041,0.012 0.14403,0 0.24004,-0.036 0.096,-0.036 0.16804,-0.15603 0.10802,-0.13203 0.19204,-0.55211 0.084,-0.42009 0.14403,-1.21225 0.06,-0.80416 0.10802,-2.064409 0.048,-1.272254 0.084,-3.108621 z m -2.54451,-2.724545 h 0.85218 q -0.012,1.836367 -0.072,3.480696 -0.048,1.632326 -0.27605,3.04861 -0.21605,1.404281 -0.73215,2.532511 -0.5161,1.11622 -1.45229,1.93238 -0.072,-0.10802 -0.19204,-0.22804 -0.10802,-0.12003 -0.22805,-0.24005 -0.12002,-0.10802 -0.22804,-0.16804 0.70814,-0.58811 1.15223,-1.38027 0.44409,-0.79216 0.68414,-1.76435 0.25205,-0.972199 0.34807,-2.112427 0.10802,-1.140228 0.12002,-2.412482 0.024,-1.284257 0.024,-2.688538 z"
         style="font-family:'Noto Sans TC';-inkscape-font-specification:'Noto Sans TC'"
         id="path28126-8" />
      <path
         d="m 111.48518,93.994411 h 6.25325 v 0.876175 h -6.25325 z m 0,2.892578 h 6.31327 v 0.852171 h -6.31327 z m -0.096,2.892579 h 6.34927 v 0.876172 h -6.34927 z m -0.46809,-5.785157 h 0.91218 v 3.696739 q 0,0.780156 -0.084,1.668334 -0.072,0.888176 -0.31207,1.800356 -0.24004,0.90018 -0.72014,1.74035 -0.46809,0.84017 -1.24825,1.5123 -0.06,-0.096 -0.19204,-0.22804 -0.12002,-0.13203 -0.25205,-0.25205 -0.13203,-0.10802 -0.24005,-0.16804 0.73215,-0.64812 1.15223,-1.39227 0.43209,-0.75615 0.63613,-1.56032 0.21604,-0.80416 0.27606,-1.596315 0.072,-0.804161 0.072,-1.524305 z m 6.42128,0 h 0.94819 v 9.073819 q 0,0.48009 -0.14403,0.73214 -0.14402,0.25205 -0.48009,0.37208 -0.34807,0.12002 -0.9722,0.14403 -0.62412,0.036 -1.58431,0.036 -0.024,-0.14403 -0.096,-0.31206 -0.06,-0.16803 -0.14403,-0.34807 -0.072,-0.16803 -0.14403,-0.28806 0.5041,0.012 0.96019,0.024 0.4681,0 0.80416,0 0.34807,-0.012 0.4801,-0.012 0.21604,-0.012 0.28806,-0.084 0.084,-0.084 0.084,-0.27606 z"
         style="font-family:'Noto Sans TC';-inkscape-font-specification:'Noto Sans TC'"
         id="path28128-6" />
      <path
         d="m 129.47244,102.15604 0.64813,-0.45609 q 0.4921,0.25205 1.03221,0.58812 0.55211,0.33607 1.04421,0.67213 0.5041,0.33607 0.82816,0.61213 l -0.69614,0.5401 q -0.30006,-0.27605 -0.78015,-0.62412 -0.4801,-0.33607 -1.03221,-0.69614 -0.54011,-0.36007 -1.04421,-0.63613 z m -5.65313,-3.096616 h 7.82557 v 0.720144 h -7.82557 z m -1.45229,1.548306 h 10.74215 v 0.75615 h -10.74215 z m 0.13203,-6.76935 h 10.37007 v 0.744148 h -10.37007 z m 2.47249,7.82556 0.84017,0.28806 q -0.36007,0.42009 -0.84017,0.84017 -0.48009,0.40808 -1.0082,0.75615 -0.5161,0.34807 -1.0202,0.61212 -0.06,-0.084 -0.19204,-0.20404 -0.13203,-0.12002 -0.26406,-0.22804 -0.12002,-0.10802 -0.22804,-0.18004 0.76815,-0.33607 1.5003,-0.82816 0.74415,-0.5041 1.21224,-1.05622 z m -0.91218,-5.461087 v 1.380276 h 7.34547 v -1.380276 z m -0.84017,-0.69614 h 9.07382 v 2.772555 h -9.07382 z m 2.66453,-1.392278 h 0.82817 v 3.840768 h -0.82817 z m 2.73655,0 h 0.85217 v 3.840768 h -0.85217 z m -1.34427,6.697335 h 0.88818 v 3.61273 H 127.276 Z"
         style="font-family:'Noto Sans TC';-inkscape-font-specification:'Noto Sans TC'"
         id="path28130-6" />
    </g>
    <g
       aria-label="基北北桃
都會通"
       transform="matrix(0.41307893,0,0,0.41307893,-139.98382,-32.244014)"
       id="text34776"
       style="font-weight:500;font-size:40px;line-height:1.25;font-family:'Noto Sans TC';-inkscape-font-specification:'Noto Sans TC Medium';white-space:pre;shape-inside:url(#rect34778);fill:#006fc3">
      <path
         d="m 828.53867,267.91219 h 33.04 v 3.12 h -33.04 z m 1.36,29.4 h 30.44 v 3.16 h -30.44 z m 6.72,-24 h 16.64 v 2.72 h -16.64 z m 0,5.08 h 16.64 v 2.72 h -16.64 z m -10.04,5.12 h 36.8 v 3.16 h -36.8 z m 8.68,7.2 h 19.48 v 3.08 h -19.48 z m -0.84,-26.28 h 3.76 v 20.8 h -3.76 z m 17.48,0.04 h 3.84 v 20.8 h -3.84 z m -8.92,23.28 h 3.84 v 11.36 h -3.84 z m -6.32,-3.36 3.16,1.2 q -1.2,2.08 -3,4 -1.8,1.88 -3.92,3.4 -2.08,1.52 -4.28,2.52 -0.24,-0.44 -0.68,-0.96 -0.44,-0.52 -0.92,-1.04 -0.44,-0.52 -0.84,-0.88 2.08,-0.8 4.04,-2.04 2,-1.28 3.68,-2.88 1.68,-1.64 2.76,-3.32 z m 16.8,0 q 1.08,1.64 2.72,3.16 1.64,1.48 3.64,2.68 2,1.2 4.04,1.96 -0.36,0.32 -0.88,0.84 -0.48,0.52 -0.92,1.08 -0.4,0.56 -0.68,1 -2.12,-0.92 -4.2,-2.4 -2.04,-1.52 -3.76,-3.36 -1.72,-1.84 -2.92,-3.8 z"
         style="text-align:center;text-anchor:middle"
         id="path41959" />
      <path
         d="m 867.41859,274.27219 h 11.8 v 3.8 h -11.8 z m 19.8,-9.12 h 3.96 v 28.84 q 0,1.56 0.28,2 0.32,0.44 1.36,0.44 0.28,0 0.84,0 0.6,0 1.28,0 0.68,0 1.28,0 0.6,0 0.88,0 0.84,0 1.24,-0.76 0.44,-0.8 0.6,-2.84 0.2,-2.08 0.32,-5.8 0.48,0.36 1.12,0.76 0.64,0.36 1.32,0.64 0.68,0.28 1.2,0.4 -0.2,4.16 -0.68,6.64 -0.48,2.44 -1.6,3.52 -1.08,1.12 -3.16,1.12 -0.32,0 -1.04,0 -0.72,0 -1.56,0 -0.84,0 -1.56,0 -0.68,0 -1,0 -1.92,0 -3.04,-0.56 -1.12,-0.52 -1.6,-1.88 -0.44,-1.36 -0.44,-3.72 z m -10.04,-0.04 h 3.92 v 29.72 h -3.92 z m -11.08,32.16 q 2.16,-0.72 5.08,-1.76 2.92,-1.04 6.16,-2.24 3.28,-1.2 6.48,-2.4 l 0.64,3.36 q -2.84,1.24 -5.8,2.48 -2.96,1.2 -5.72,2.32 -2.76,1.12 -5.12,2.04 z m 23.2,-23.04 h 12.8 v 3.8 h -12.8 z"
         style="text-align:center;text-anchor:middle"
         id="path41961" />
      <path
         d="m 907.41852,274.27219 h 11.8 v 3.8 h -11.8 z m 19.8,-9.12 h 3.96 v 28.84 q 0,1.56 0.28,2 0.32,0.44 1.36,0.44 0.28,0 0.84,0 0.6,0 1.28,0 0.68,0 1.28,0 0.6,0 0.88,0 0.84,0 1.24,-0.76 0.44,-0.8 0.6,-2.84 0.2,-2.08 0.32,-5.8 0.48,0.36 1.12,0.76 0.64,0.36 1.32,0.64 0.68,0.28 1.2,0.4 -0.2,4.16 -0.68,6.64 -0.48,2.44 -1.6,3.52 -1.08,1.12 -3.16,1.12 -0.32,0 -1.04,0 -0.72,0 -1.56,0 -0.84,0 -1.56,0 -0.68,0 -1,0 -1.92,0 -3.04,-0.56 -1.12,-0.52 -1.6,-1.88 -0.44,-1.36 -0.44,-3.72 z m -10.04,-0.04 h 3.92 v 29.72 h -3.92 z m -11.08,32.16 q 2.16,-0.72 5.08,-1.76 2.92,-1.04 6.16,-2.24 3.28,-1.2 6.48,-2.4 l 0.64,3.36 q -2.84,1.24 -5.8,2.48 -2.96,1.2 -5.72,2.32 -2.76,1.12 -5.12,2.04 z m 23.2,-23.04 h 12.8 v 3.8 h -12.8 z"
         style="text-align:center;text-anchor:middle"
         id="path41963" />
      <path
         d="m 946.57844,272.03219 h 12.08 v 3.52 h -12.08 z m 4.88,-7.6 h 3.6 v 37.08 h -3.6 z m 0.04,10.04 2.16,0.8 q -0.36,2.44 -0.96,5.04 -0.6,2.6 -1.36,5.12 -0.76,2.52 -1.64,4.68 -0.88,2.16 -1.84,3.72 -0.2,-0.56 -0.52,-1.24 -0.32,-0.72 -0.68,-1.36 -0.36,-0.68 -0.68,-1.16 0.88,-1.36 1.72,-3.16 0.84,-1.84 1.56,-3.96 0.76,-2.12 1.32,-4.28 0.6,-2.2 0.92,-4.2 z m 3.32,1.92 q 0.36,0.4 1.08,1.4 0.72,0.96 1.52,2.12 0.8,1.12 1.48,2.12 0.68,0.96 0.96,1.36 l -2.28,2.8 q -0.36,-0.8 -0.96,-1.92 -0.56,-1.16 -1.28,-2.4 -0.68,-1.24 -1.32,-2.28 -0.64,-1.08 -1.04,-1.76 z m 20.16,7.84 2.24,-2.08 q 1.2,1.08 2.48,2.36 1.28,1.28 2.44,2.52 1.16,1.2 1.84,2.16 l -2.44,2.36 q -0.64,-1 -1.76,-2.28 -1.12,-1.28 -2.4,-2.6 -1.28,-1.32 -2.4,-2.44 z m -15.28,-12.76 2.8,-1.12 q 0.72,1.28 1.36,2.8 0.68,1.52 1.24,2.96 0.56,1.44 0.84,2.6 l -3,1.28 q -0.24,-1.16 -0.76,-2.64 -0.52,-1.48 -1.16,-3 -0.64,-1.56 -1.32,-2.88 z m 20.24,-1.48 3.44,1.44 q -1.08,2.16 -2.28,4.44 -1.2,2.28 -2.24,3.88 l -2.68,-1.24 q 0.64,-1.16 1.36,-2.64 0.72,-1.48 1.36,-3 0.64,-1.56 1.04,-2.88 z m -7.36,-5.56 h 3.56 v 31.32 q 0,1.2 0.16,1.56 0.2,0.32 0.84,0.32 0.12,0 0.48,0 0.36,0 0.8,0 0.44,0 0.8,0 0.4,0 0.6,0 0.6,0 0.76,-1 0.2,-1 0.24,-3.8 0.64,0.44 1.52,0.88 0.92,0.4 1.68,0.6 -0.24,3.68 -1.08,5.2 -0.84,1.52 -2.84,1.52 -0.24,0 -0.76,0 -0.48,0 -1.08,0 -0.56,0 -1.04,0 -0.48,0 -0.72,0 -1.52,0 -2.4,-0.48 -0.84,-0.44 -1.2,-1.6 -0.32,-1.16 -0.32,-3.24 z m -14.08,24.16 q 1.48,-0.92 3.6,-2.4 2.12,-1.48 4.28,-3.04 l 1.16,2.6 q -1.8,1.6 -3.64,3.24 -1.84,1.64 -3.56,3.12 z m 7.4,-24.12 h 3.48 v 16.68 q 0,2.8 -0.32,5.68 -0.32,2.88 -1.24,5.64 -0.92,2.76 -2.72,5.12 -1.8,2.36 -4.84,4.12 -0.24,-0.36 -0.68,-0.92 -0.4,-0.52 -0.88,-1.04 -0.44,-0.48 -0.84,-0.8 2.92,-1.4 4.52,-3.4 1.64,-2.04 2.4,-4.48 0.76,-2.44 0.92,-4.96 0.2,-2.56 0.2,-4.96 z"
         style="text-align:center;text-anchor:middle"
         id="path41965" />
      <path
         d="m 848.37863,318.87219 h 13.92 v 3.32 h -13.92 z m 4.48,27.2 h 10.72 v 3.08 h -10.72 z m 0,-6.56 h 10.8 v 2.92 h -10.8 z m -6.24,-13.16 h 20.56 v 3.32 h -20.56 z m 7.56,-11.6 h 3.52 v 13.72 h -3.52 z m 10.56,1.24 3.4,0.96 q -3.2,7.68 -8.36,13.52 -5.16,5.8 -11.88,9.44 -0.16,-0.4 -0.6,-1 -0.4,-0.6 -0.84,-1.16 -0.44,-0.6 -0.8,-0.96 6.52,-3.16 11.4,-8.48 4.88,-5.32 7.68,-12.32 z m -10.68,17.16 h 9.44 v 3.08 h -9.44 v 15.16 h -3.44 v -16.04 l 2.08,-2.2 z m 7.92,0 h 3.6 v 17.68 h -3.6 z m 6.72,-16.48 h 11.88 v 3.56 h -8.12 v 31.32 h -3.76 z m 11,0 h 0.72 l 0.56,-0.12 2.76,1.72 q -1.16,2.84 -2.6,6.08 -1.44,3.2 -2.8,5.92 1.96,1.84 2.96,3.52 1.04,1.64 1.44,3.16 0.4,1.52 0.4,2.92 0,2 -0.52,3.44 -0.48,1.4 -1.64,2.16 -1.08,0.72 -2.76,0.96 -0.72,0.08 -1.72,0.08 -0.96,0 -1.92,-0.04 -0.04,-0.76 -0.32,-1.84 -0.24,-1.08 -0.72,-1.84 0.92,0.08 1.68,0.12 0.76,0 1.36,-0.04 0.52,0 0.96,-0.12 0.48,-0.12 0.8,-0.32 0.64,-0.36 0.88,-1.12 0.28,-0.76 0.24,-1.84 0,-1.8 -1.04,-4 -1,-2.2 -3.84,-4.68 0.68,-1.52 1.4,-3.28 0.76,-1.76 1.44,-3.52 0.68,-1.76 1.24,-3.32 0.6,-1.6 1.04,-2.72 z"
         style="text-align:center;text-anchor:middle"
         id="path41967" />
      <path
         d="m 894.49855,328.39219 v 5.6 h 20.8 v -5.6 z m -3.2,-2.44 h 27.36 v 10.48 h -27.36 z m 6.68,-4.32 h 14.08 v 2.56 h -14.08 z m 5.28,5.16 h 3.12 v 8.4 h -3.12 z m -6.76,2.68 2.64,-0.84 q 0.68,1.04 1.24,2.28 0.6,1.24 0.8,2.16 l -2.8,0.96 q -0.2,-0.96 -0.72,-2.24 -0.52,-1.28 -1.16,-2.32 z m 13.88,-1 3.2,0.88 q -0.68,1.28 -1.36,2.56 -0.64,1.24 -1.2,2.12 l -2.6,-0.84 q 0.48,-0.96 1.08,-2.32 0.6,-1.36 0.88,-2.4 z m -16.76,9.6 h 23.08 v 13.32 h -3.88 v -10.76 h -15.48 v 10.92 h -3.72 z m 2.16,4.8 h 18.64 v 2.56 h -18.64 z m 0,4.84 h 18.68 v 2.6 h -18.68 z m 8.68,-33.52 3.36,1.2 q -2.16,2.8 -5.28,5.04 -3.12,2.24 -6.76,3.96 -3.64,1.68 -7.44,2.84 -0.2,-0.36 -0.56,-0.92 -0.36,-0.56 -0.76,-1.12 -0.4,-0.56 -0.76,-0.88 3.68,-0.96 7.16,-2.4 3.48,-1.48 6.32,-3.4 2.88,-1.96 4.72,-4.32 z m 2.36,1.56 q 1.36,1.36 3.28,2.64 1.96,1.24 4.24,2.32 2.32,1.08 4.8,1.92 2.52,0.84 4.96,1.4 -0.6,0.48 -1.32,1.36 -0.68,0.88 -1.08,1.56 -2.44,-0.68 -4.96,-1.68 -2.52,-1.04 -4.88,-2.32 -2.32,-1.32 -4.36,-2.84 -2,-1.52 -3.56,-3.16 z"
         style="text-align:center;text-anchor:middle"
         id="path41969" />
      <path
         d="m 943.17848,321.59219 2.4,-2.08 q 1.88,0.68 4.04,1.56 2.16,0.88 4.12,1.8 2,0.92 3.36,1.72 l -2.56,2.32 q -1.24,-0.76 -3.2,-1.72 -1.92,-0.96 -4.08,-1.92 -2.12,-0.96 -4.08,-1.68 z m -3.8,2.88 h 20.32 v 2.8 h -16.92 v 17.84 h -3.4 z m 19,0 h 3.4 v 17.32 q 0,1.24 -0.32,1.88 -0.28,0.64 -1.12,1.04 -0.8,0.36 -2.12,0.44 -1.28,0.08 -3.2,0.08 -0.08,-0.68 -0.36,-1.48 -0.28,-0.8 -0.6,-1.4 1.24,0.04 2.28,0.04 1.04,0 1.4,0 0.36,-0.04 0.48,-0.16 0.16,-0.12 0.16,-0.48 z m -18.76,-8.52 h 19.56 v 2.84 h -19.56 z m 1.8,14.28 h 18.12 v 2.72 h -18.12 z m 0,5.76 h 18.12 v 2.84 h -18.12 z m 7.36,-10.28 h 3.28 v 19.32 h -3.28 z m 9.12,-9.76 h 0.84 l 0.76,-0.2 2.28,1.8 q -1.36,1.28 -3.08,2.56 -1.72,1.28 -3.6,2.4 -1.88,1.08 -3.72,1.92 -0.36,-0.52 -0.96,-1.16 -0.56,-0.64 -1,-1 1.6,-0.72 3.2,-1.68 1.64,-0.96 3.04,-2 1.4,-1.04 2.24,-1.96 z m -29.84,0.2 2.8,-1.72 q 0.96,0.96 1.92,2.08 1,1.12 1.88,2.16 0.88,1.04 1.44,1.84 l -2.88,2.08 q -0.56,-0.84 -1.44,-1.96 -0.84,-1.12 -1.84,-2.28 -0.96,-1.2 -1.88,-2.2 z m -1.28,7.56 h 8.64 v 3.08 h -8.64 z m 7.6,17.92 q 1.16,2.64 3.2,3.92 2.04,1.28 4.96,1.68 2.96,0.4 6.76,0.4 2.12,0 4.72,-0.08 2.6,-0.08 5.24,-0.2 2.64,-0.12 4.76,-0.32 -0.28,0.4 -0.52,1.04 -0.24,0.64 -0.44,1.32 -0.16,0.68 -0.28,1.2 -1.96,0.12 -4.24,0.2 -2.28,0.08 -4.64,0.12 -2.36,0.04 -4.64,0.04 -3.52,0 -6.28,-0.32 -2.72,-0.32 -4.84,-1.16 -2.08,-0.84 -3.64,-2.44 -1.56,-1.64 -2.68,-4.32 z m -0.16,-8.08 h 0.92 l 0.6,-0.08 1.84,0.68 q -1,6.52 -3.4,10.88 -2.4,4.32 -5.8,6.6 -0.24,-0.4 -0.68,-0.92 -0.44,-0.48 -0.92,-0.96 -0.48,-0.44 -0.88,-0.68 3.24,-2 5.4,-5.76 2.16,-3.76 2.92,-9.12 z m -6.8,3.6 v -2.8 l 1.56,-0.8 h 6.4 v 3 h -5.52 q -0.76,0 -1.48,0.2 -0.72,0.16 -0.96,0.4 z m 0,0 q -0.08,-0.44 -0.36,-1.04 -0.24,-0.6 -0.48,-1.2 -0.24,-0.64 -0.44,-1 0.48,-0.12 0.96,-0.36 0.48,-0.28 1.04,-0.88 0.48,-0.44 1.32,-1.52 0.84,-1.08 1.8,-2.4 1,-1.36 1.84,-2.6 0.88,-1.28 1.4,-2.08 v -0.12 l 1.08,-0.44 2.36,1.08 q -0.72,1.04 -1.72,2.44 -0.96,1.36 -2.04,2.84 -1.08,1.44 -2.16,2.8 -1.04,1.32 -1.92,2.28 0,0 -0.4,0.24 -0.4,0.2 -0.96,0.56 -0.52,0.32 -0.92,0.72 -0.4,0.36 -0.4,0.68 z"
         style="text-align:center;text-anchor:middle"
         id="path41971" />
    </g>
  </g>
  <style
     type="text/css"
     id="style11899">
	.st0{fill:#38B035;}
	.st1{fill:#007AB0;}
</style>
</svg>
