<?xml version="1.0" encoding="UTF-8" standalone="no"?>
<!-- Created with Inkscape (http://www.inkscape.org/) -->

<svg
   width="300mm"
   height="200mm"
   viewBox="0 0 300 200"
   version="1.1"
   id="svg5"
   sodipodi:docname="ad4.svg"
   inkscape:version="1.1 (c68e22c387, 2021-05-23)"
   xmlns:inkscape="http://www.inkscape.org/namespaces/inkscape"
   xmlns:sodipodi="http://sodipodi.sourceforge.net/DTD/sodipodi-0.dtd"
   xmlns="http://www.w3.org/2000/svg"
   xmlns:svg="http://www.w3.org/2000/svg">
  <sodipodi:namedview
     id="namedview7"
     pagecolor="#464646"
     bordercolor="#999999"
     borderopacity="1"
     inkscape:pageshadow="0"
     inkscape:pageopacity="0"
     inkscape:pagecheckerboard="true"
     inkscape:document-units="mm"
     showgrid="false"
     inkscape:snap-bbox="true"
     inkscape:snap-page="true"
     inkscape:zoom="0.70438884"
     inkscape:cx="557.93047"
     inkscape:cy="288.1931"
     inkscape:window-width="1920"
     inkscape:window-height="1094"
     inkscape:window-x="-11"
     inkscape:window-y="-11"
     inkscape:window-maximized="1"
     inkscape:current-layer="layer1"
     inkscape:bbox-paths="true" />
  <defs
     id="defs2">
    <rect
       x="762.93252"
       y="257.99166"
       width="284.09198"
       height="137.52863"
       id="rect34778" />
    <rect
       x="692.79916"
       y="252.70133"
       width="398.92739"
       height="185.97682"
       id="rect29722" />
    <rect
       x="164.68177"
       y="369.11431"
       width="350.65859"
       height="63.885169"
       id="rect23240" />
    <rect
       x="688.54015"
       y="140.54737"
       width="349.23892"
       height="188.81617"
       id="rect2658" />
    <rect
       x="183.35979"
       y="599.27346"
       width="381.62688"
       height="181.86906"
       id="rect22815" />
    <rect
       x="135.65643"
       y="125.22132"
       width="45.719619"
       height="49.528261"
       id="rect9799" />
    <rect
       x="681.26361"
       y="183.35979"
       width="409.95075"
       height="137.14716"
       id="rect4048" />
    <rect
       x="135.65643"
       y="125.22132"
       width="45.71962"
       height="49.528259"
       id="rect9799-3" />
    <rect
       x="135.65643"
       y="125.22132"
       width="45.71962"
       height="49.528259"
       id="rect9799-5" />
    <rect
       x="688.54016"
       y="140.54736"
       width="349.23892"
       height="188.81618"
       id="rect2658-0" />
    <rect
       x="688.54016"
       y="140.54736"
       width="349.23892"
       height="188.81618"
       id="rect2658-0-7" />
  </defs>
  <g
     inkscape:label="Layer 1"
     inkscape:groupmode="layer"
     id="layer1">
    <path
       id="rect846"
       style="fill:#edffe5;stroke-width:2.08345;fill-opacity:1"
       d="M 0,0 H 300 V 200 H 0 Z" />
    <g
       transform="scale(0.26458333)"
       id="text22813"
       style="font-size:40px;line-height:1.25;white-space:pre;shape-inside:url(#rect22815)" />
    <circle
       style="fill:#ffffff;fill-opacity:1;stroke:none;stroke-width:25.7005;stroke-miterlimit:4;stroke-dasharray:none;stroke-opacity:1"
       id="path10891"
       cx="226.49954"
       cy="58.972519"
       r="99.915215" />
    <circle
       style="fill:#ffffff;fill-opacity:1;stroke:none;stroke-width:13.0435;stroke-miterlimit:4;stroke-dasharray:none;stroke-opacity:1"
       id="path10891-6"
       cx="27.42034"
       cy="167.1514"
       r="50.708847" />
    <circle
       style="fill:#edffe5;fill-opacity:1;stroke:none;stroke-width:11.0145;stroke-miterlimit:4;stroke-dasharray:none;stroke-opacity:1"
       id="path10891-0"
       cx="225.90184"
       cy="58.596897"
       r="42.820801" />
    <g
       id="g11915"
       transform="matrix(0.15440823,0,0,0.15440823,10.141269,177.9691)">
      <g
         id="g6382"
         transform="matrix(0.35277777,0,0,-0.35277777,65.170734,166.67719)">
	<path
   id="path6384"
   class="st0"
   d="m -184.7,321.8 26.1,31.2 c 10.2,12.1 25.2,19.1 40.9,19.1 h 17.1 c 15.8,0 30.8,7 40.9,19.1 l 52.2,62.3 c 10.2,12.1 25.2,19.1 41,19.1 H 209.2 L 183,441.3 c -10.1,-12.1 -25.1,-19.1 -41,-19.1 h -17 c -15.8,0 -30.7,-7 -40.9,-19.1 L 31.8,340.8 c -10,-12 -25.1,-19 -40.8,-19 z" />

</g>
      <g
         id="g6386"
         transform="matrix(0.35277777,0,0,-0.35277777,66.874015,168.14788)">
	<path
   id="path6388"
   class="st1"
   d="m -73.2,225.5 26.1,31.2 c 10.2,12.1 25.1,19.1 40.9,19.1 h 17.1 c 15.8,0 30.8,7 40.9,19.1 l 52.3,62.3 c 10.2,12.1 25.1,19.1 40.9,19.1 H 320.7 L 294.6,345.1 C 284.4,333 269.4,326 253.6,326 h -17.1 c -15.8,0 -30.7,-7 -40.9,-19.1 l -52.3,-62.3 c -10.1,-12.1 -25.1,-19.1 -40.9,-19.1 z" />

</g>
    </g>
    <g
       aria-label="Metro Taipei"
       id="text12469"
       style="font-size:13.099px;line-height:1.25;letter-spacing:-0.264583px;stroke-width:0.327475"
       transform="translate(0.52916667,1.0583333)">
      <path
         d="m 42.653384,178.9901 v 8.64534 c 0,0.0917 0.0393,0.13099 0.13099,0.13099 h 1.480187 c 0.07859,0 0.13099,-0.0393 0.13099,-0.13099 v -5.01691 h 0.0524 l 1.650474,3.75941 c 0.0524,0.11789 0.13099,0.17029 0.248881,0.17029 h 0.903831 c 0.104792,0 0.196485,-0.0524 0.248881,-0.17029 l 1.650474,-3.75941 h 0.0524 v 5.01691 c 0,0.0917 0.0393,0.13099 0.13099,0.13099 h 1.480187 c 0.07859,0 0.13099,-0.0393 0.13099,-0.13099 v -8.64534 c 0,-0.0786 -0.0524,-0.13099 -0.13099,-0.13099 h -1.532583 c -0.104792,0 -0.183386,0.0524 -0.209584,0.13099 l -2.213731,5.08242 h -0.0524 l -2.253028,-5.08242 c -0.0393,-0.0786 -0.104792,-0.13099 -0.209584,-0.13099 h -1.558781 c -0.09169,0 -0.13099,0.0524 -0.13099,0.13099 z"
         style="font-family:DINNextW01-Bold;-inkscape-font-specification:DINNextW01-Bold"
         id="path14111" />
      <path
         d="m 55.068613,187.91052 c 0.576356,0 1.100316,-0.0917 1.558781,-0.28818 0.445366,-0.18338 0.825237,-0.44536 1.139613,-0.77284 0.0524,-0.0524 0.0524,-0.11789 -0.0131,-0.18338 l -0.864534,-0.81214 c -0.0524,-0.0524 -0.104792,-0.0524 -0.183386,0 -0.183386,0.18339 -0.39297,0.31438 -0.628752,0.41917 -0.235782,0.10479 -0.510861,0.14409 -0.825237,0.14409 -0.340574,0 -0.615653,-0.0655 -0.838336,-0.20959 -0.235782,-0.13099 -0.39297,-0.34057 -0.471564,-0.62875 -0.0524,-0.10479 -0.07859,-0.22268 -0.07859,-0.35367 0,-0.0524 0.0262,-0.0786 0.07859,-0.0786 h 3.838007 c 0.09169,0 0.144089,-0.0393 0.144089,-0.13099 0,-0.26198 -0.0131,-0.49776 -0.0131,-0.69424 -0.0131,-0.19649 -0.0262,-0.36678 -0.0393,-0.52396 -0.0262,-0.14409 -0.0393,-0.27508 -0.0655,-0.39297 -0.0262,-0.11789 -0.06549,-0.23579 -0.09169,-0.34058 -0.183386,-0.55016 -0.510861,-0.99552 -0.982425,-1.3099 -0.471564,-0.31437 -1.04792,-0.47156 -1.755266,-0.47156 -0.681148,0 -1.270603,0.15719 -1.742167,0.47156 -0.471564,0.31438 -0.799039,0.74665 -0.982425,1.323 -0.07859,0.20959 -0.13099,0.43227 -0.157188,0.66805 -0.0393,0.23578 -0.0524,0.52396 -0.0524,0.85144 0,0.34057 0.0131,0.61565 0.0524,0.85143 0.0393,0.23578 0.09169,0.45847 0.170287,0.65495 0.183386,0.57636 0.510861,1.02172 0.995524,1.3361 0.471564,0.31437 1.074118,0.47156 1.807662,0.47156 z m 0.969326,-3.98209 h -2.09584 c -0.0524,0 -0.07859,-0.0262 -0.07859,-0.0786 0,-0.0917 0,-0.17028 0.0131,-0.24888 0.0131,-0.0786 0.0262,-0.14409 0.0524,-0.22268 0.06549,-0.20959 0.196485,-0.37987 0.379871,-0.51086 0.183386,-0.11789 0.419168,-0.18339 0.681148,-0.18339 0.26198,0 0.484663,0.0655 0.668049,0.18339 0.183386,0.13099 0.314376,0.30127 0.39297,0.51086 0.0131,0.0786 0.0262,0.14409 0.0393,0.22268 0.0131,0.0786 0.0262,0.15719 0.0262,0.24888 0,0.0524 -0.0262,0.0786 -0.07859,0.0786 z"
         style="font-family:DINNextW01-Bold;-inkscape-font-specification:DINNextW01-Bold"
         id="path14113" />
      <path
         d="m 61.143927,187.84503 h 0.694247 c 0.07859,0 0.13099,-0.0393 0.13099,-0.13099 v -1.2968 c 0,-0.0786 -0.0524,-0.13099 -0.13099,-0.13099 h -0.314376 c -0.209584,0 -0.366772,-0.0393 -0.445366,-0.13099 -0.09169,-0.0917 -0.13099,-0.26198 -0.13099,-0.49777 v -2.80318 c 0,-0.0524 0.0262,-0.0786 0.07859,-0.0786 h 0.812138 c 0.07859,0 0.13099,-0.0393 0.13099,-0.13099 v -1.08721 c 0,-0.0786 -0.0524,-0.13099 -0.13099,-0.13099 h -0.812138 c -0.0524,0 -0.07859,-0.0262 -0.07859,-0.0786 v -1.70287 c 0,-0.0786 -0.0524,-0.13099 -0.13099,-0.13099 h -1.558781 c -0.09169,0 -0.13099,0.0524 -0.13099,0.13099 v 1.70287 c 0,0.0524 -0.0262,0.0786 -0.07859,0.0786 h -0.39297 c -0.09169,0 -0.13099,0.0524 -0.13099,0.13099 v 1.08721 c 0,0.0917 0.0393,0.13099 0.13099,0.13099 h 0.39297 c 0.0524,0 0.07859,0.0262 0.07859,0.0786 v 2.88178 c 0,0.73354 0.144089,1.2575 0.458465,1.59808 0.301277,0.34057 0.825237,0.51086 1.558781,0.51086 z"
         style="font-family:DINNextW01-Bold;-inkscape-font-specification:DINNextW01-Bold"
         id="path14115" />
      <path
         d="m 63.197858,187.76643 h 1.57188 c 0.07859,0 0.13099,-0.0393 0.13099,-0.13099 v -3.34024 c 0,-0.41917 0.07859,-0.75974 0.235782,-0.99553 0.157188,-0.23578 0.406069,-0.35367 0.746643,-0.37987 0.288178,0 0.602554,0.0917 0.91693,0.28818 0.07859,0.0393 0.13099,0.0262 0.183386,-0.0262 l 0.733544,-1.33609 c 0.0262,-0.0655 0.0131,-0.13099 -0.0393,-0.18339 -0.144089,-0.11789 -0.314376,-0.20958 -0.510861,-0.27508 -0.196485,-0.0655 -0.39297,-0.10479 -0.602554,-0.10479 -0.39297,0 -0.733544,0.0786 -1.008623,0.22268 -0.288178,0.14409 -0.497762,0.34058 -0.641851,0.58946 h -0.0131 v -0.53706 c 0,-0.0786 -0.0524,-0.13099 -0.13099,-0.13099 h -1.57188 c -0.09169,0 -0.13099,0.0524 -0.13099,0.13099 v 6.07793 c 0,0.0917 0.0393,0.13099 0.13099,0.13099 z"
         style="font-family:DINNextW01-Bold;-inkscape-font-specification:DINNextW01-Bold"
         id="path14117" />
      <path
         d="m 70.792637,187.91052 c 0.668049,0 1.244405,-0.14409 1.742167,-0.45846 0.484663,-0.30128 0.825237,-0.74665 1.008623,-1.323 0.0655,-0.22268 0.117891,-0.45847 0.157188,-0.69425 0.0262,-0.23578 0.0524,-0.52396 0.0524,-0.83833 0,-0.31438 -0.0262,-0.58946 -0.0524,-0.82524 -0.0393,-0.23578 -0.09169,-0.47157 -0.157188,-0.70735 -0.183386,-0.57635 -0.52396,-1.00862 -1.008623,-1.323 -0.497762,-0.30127 -1.074118,-0.45846 -1.742167,-0.45846 -0.681148,0 -1.257504,0.15719 -1.742167,0.45846 -0.497762,0.31438 -0.825237,0.74665 -1.008623,1.323 -0.07859,0.23578 -0.13099,0.47157 -0.157188,0.70735 -0.0393,0.23578 -0.0524,0.51086 -0.0524,0.82524 0,0.31437 0.0131,0.60255 0.0524,0.83833 0.0262,0.23578 0.07859,0.47157 0.157188,0.69425 0.183386,0.57635 0.510861,1.02172 1.008623,1.323 0.484663,0.31437 1.061019,0.45846 1.742167,0.45846 z m 0,-1.54568 c -0.510861,0 -0.838336,-0.22268 -0.982425,-0.68115 -0.0524,-0.14409 -0.07859,-0.28818 -0.09169,-0.44536 -0.0262,-0.15719 -0.0262,-0.36678 -0.0262,-0.64185 0,-0.26198 0,-0.47157 0.0262,-0.62876 0.0131,-0.15718 0.0393,-0.30127 0.09169,-0.45846 0.144089,-0.44537 0.471564,-0.68115 0.982425,-0.68115 0.497762,0 0.825237,0.23578 0.982425,0.68115 0.0393,0.15719 0.06549,0.30128 0.09169,0.45846 0.0131,0.15719 0.0262,0.36678 0.0262,0.62876 0,0.27507 -0.0131,0.48466 -0.0262,0.64185 -0.0262,0.15718 -0.0524,0.30127 -0.09169,0.44536 -0.157188,0.45847 -0.484663,0.68115 -0.982425,0.68115 z"
         style="font-family:DINNextW01-Bold;-inkscape-font-specification:DINNextW01-Bold"
         id="path14119" />
      <path
         d="m 79.498204,187.76643 h 1.663573 c 0.07859,0 0.13099,-0.0393 0.13099,-0.13099 v -6.98176 c 0,-0.0524 0.0262,-0.0786 0.07859,-0.0786 h 2.253028 c 0.07859,0 0.13099,-0.0393 0.13099,-0.13099 v -1.45399 c 0,-0.0786 -0.0524,-0.13099 -0.13099,-0.13099 h -6.588797 c -0.09169,0 -0.13099,0.0524 -0.13099,0.13099 v 1.45399 c 0,0.0917 0.0393,0.13099 0.13099,0.13099 h 2.253028 c 0.0524,0 0.07859,0.0262 0.07859,0.0786 v 6.98176 c 0,0.0917 0.0393,0.13099 0.13099,0.13099 z"
         style="font-family:DINNextW01-Bold;-inkscape-font-specification:DINNextW01-Bold"
         id="path14121" />
      <path
         d="m 87.315685,187.76643 h 1.453989 c 0.07859,0 0.13099,-0.0393 0.13099,-0.13099 v -4.06069 c 0,-0.39297 -0.0524,-0.73354 -0.157188,-1.02172 -0.104792,-0.28818 -0.26198,-0.52396 -0.484663,-0.70734 -0.222683,-0.18339 -0.510861,-0.32748 -0.864534,-0.41917 -0.366772,-0.0917 -0.799039,-0.14409 -1.3099,-0.14409 -0.52396,0 -0.982425,0.0655 -1.375395,0.17029 -0.39297,0.11789 -0.720445,0.27507 -0.982425,0.45846 -0.07859,0.0524 -0.09169,0.10479 -0.0393,0.18339 l 0.589455,1.03482 c 0.0393,0.0786 0.09169,0.0786 0.170287,0.0262 0.144089,-0.1048 0.340574,-0.20959 0.576356,-0.28818 0.235782,-0.0786 0.510861,-0.11789 0.838336,-0.11789 0.497762,0 0.838336,0.0786 1.021722,0.20958 0.183386,0.14409 0.275079,0.36677 0.275079,0.65495 v 0.23578 c 0,0.0524 -0.0262,0.0786 -0.07859,0.0786 H 85.95339 c -0.78594,0 -1.427791,0.17028 -1.912454,0.49776 -0.484663,0.34057 -0.720445,0.85143 -0.720445,1.54568 0,0.34057 0.0524,0.64185 0.170287,0.87763 0.104792,0.24888 0.26198,0.44537 0.458465,0.60256 0.183386,0.15719 0.406069,0.27508 0.668049,0.35367 0.26198,0.0786 0.52396,0.10479 0.812138,0.10479 0.432267,0 0.78594,-0.0524 1.074118,-0.18338 0.275079,-0.13099 0.497762,-0.30128 0.668049,-0.51086 h 0.0131 v 0.41916 c 0,0.0917 0.0393,0.13099 0.13099,0.13099 z m -1.336098,-1.2313 c -0.615653,0 -0.91693,-0.22269 -0.91693,-0.66805 0,-0.47157 0.366772,-0.72045 1.126514,-0.72045 h 0.890732 c 0.0524,0 0.07859,0.0262 0.07859,0.0786 v 0.43226 c 0,0.58946 -0.39297,0.87764 -1.17891,0.87764 z"
         style="font-family:DINNextW01-Bold;-inkscape-font-specification:DINNextW01-Bold"
         id="path14123" />
      <path
         d="m 90.378247,180.41789 h 1.57188 c 0.07859,0 0.13099,-0.0393 0.13099,-0.13099 v -1.2968 c 0,-0.0786 -0.0524,-0.13099 -0.13099,-0.13099 h -1.57188 c -0.09169,0 -0.13099,0.0524 -0.13099,0.13099 v 1.2968 c 0,0.0917 0.0393,0.13099 0.13099,0.13099 z m 0,7.34854 h 1.57188 c 0.07859,0 0.13099,-0.0393 0.13099,-0.13099 v -6.07793 c 0,-0.0786 -0.0524,-0.13099 -0.13099,-0.13099 h -1.57188 c -0.09169,0 -0.13099,0.0524 -0.13099,0.13099 v 6.07793 c 0,0.0917 0.0393,0.13099 0.13099,0.13099 z"
         style="font-family:DINNextW01-Bold;-inkscape-font-specification:DINNextW01-Bold"
         id="path14125" />
      <path
         d="m 93.597985,190.12425 h 1.57188 c 0.07859,0 0.13099,-0.0393 0.13099,-0.13099 v -2.81628 h 0.0131 c 0.144089,0.22268 0.353673,0.40607 0.628752,0.53706 0.26198,0.13099 0.615653,0.19648 1.034821,0.19648 0.52396,0 0.982425,-0.11789 1.349197,-0.37987 0.366772,-0.26198 0.628752,-0.64185 0.799039,-1.13961 0.07859,-0.24888 0.13099,-0.51086 0.170287,-0.77284 0.0262,-0.26198 0.0524,-0.60256 0.0524,-1.02172 0,-0.41917 -0.0262,-0.75975 -0.0524,-1.02173 -0.0393,-0.26198 -0.09169,-0.51086 -0.170287,-0.77284 -0.170287,-0.49776 -0.432267,-0.87763 -0.799039,-1.13961 -0.366772,-0.24888 -0.825237,-0.37987 -1.349197,-0.37987 -0.419168,0 -0.772841,0.0786 -1.034821,0.20958 -0.275079,0.13099 -0.484663,0.31438 -0.628752,0.52396 h -0.0131 v -0.45846 c 0,-0.0786 -0.0524,-0.13099 -0.13099,-0.13099 h -1.57188 c -0.09169,0 -0.13099,0.0524 -0.13099,0.13099 v 8.43575 c 0,0.0917 0.0393,0.13099 0.13099,0.13099 z m 2.790087,-3.75941 c -0.497762,0 -0.825237,-0.22268 -0.969326,-0.68115 -0.0524,-0.11789 -0.07859,-0.26198 -0.09169,-0.41917 -0.0262,-0.15718 -0.0262,-0.37987 -0.0262,-0.66804 0,-0.27508 0,-0.49777 0.0262,-0.65495 0.0131,-0.15719 0.0393,-0.30128 0.09169,-0.43227 0.13099,-0.44537 0.458465,-0.68115 0.969326,-0.68115 0.510861,0 0.838336,0.23578 0.982425,0.68115 0.0393,0.13099 0.06549,0.27508 0.09169,0.43227 0.0131,0.15718 0.0262,0.37987 0.0262,0.65495 0,0.28817 -0.0131,0.51086 -0.0262,0.66804 -0.0262,0.15719 -0.0524,0.30128 -0.09169,0.41917 -0.157188,0.45847 -0.484663,0.68115 -0.982425,0.68115 z"
         style="font-family:DINNextW01-Bold;-inkscape-font-specification:DINNextW01-Bold"
         id="path14127" />
      <path
         d="m 103.13143,187.91052 c 0.57636,0 1.10032,-0.0917 1.55878,-0.28818 0.44537,-0.18338 0.82524,-0.44536 1.13962,-0.77284 0.0524,-0.0524 0.0524,-0.11789 -0.0131,-0.18338 l -0.86454,-0.81214 c -0.0524,-0.0524 -0.10479,-0.0524 -0.18338,0 -0.18339,0.18339 -0.39297,0.31438 -0.62875,0.41917 -0.23579,0.10479 -0.51086,0.14409 -0.82524,0.14409 -0.34057,0 -0.61565,-0.0655 -0.83834,-0.20959 -0.23578,-0.13099 -0.39297,-0.34057 -0.47156,-0.62875 -0.0524,-0.10479 -0.0786,-0.22268 -0.0786,-0.35367 0,-0.0524 0.0262,-0.0786 0.0786,-0.0786 h 3.83801 c 0.0917,0 0.14409,-0.0393 0.14409,-0.13099 0,-0.26198 -0.0131,-0.49776 -0.0131,-0.69424 -0.0131,-0.19649 -0.0262,-0.36678 -0.0393,-0.52396 -0.0262,-0.14409 -0.0393,-0.27508 -0.0655,-0.39297 -0.0262,-0.11789 -0.0655,-0.23579 -0.0917,-0.34058 -0.18338,-0.55016 -0.51086,-0.99552 -0.98242,-1.3099 -0.47157,-0.31437 -1.04792,-0.47156 -1.75527,-0.47156 -0.68115,0 -1.2706,0.15719 -1.74217,0.47156 -0.47156,0.31438 -0.79904,0.74665 -0.98242,1.323 -0.0786,0.20959 -0.13099,0.43227 -0.15719,0.66805 -0.0393,0.23578 -0.0524,0.52396 -0.0524,0.85144 0,0.34057 0.0131,0.61565 0.0524,0.85143 0.0393,0.23578 0.0917,0.45847 0.17029,0.65495 0.18338,0.57636 0.51086,1.02172 0.99552,1.3361 0.47157,0.31437 1.07412,0.47156 1.80766,0.47156 z m 0.96933,-3.98209 h -2.09584 c -0.0524,0 -0.0786,-0.0262 -0.0786,-0.0786 0,-0.0917 0,-0.17028 0.0131,-0.24888 0.0131,-0.0786 0.0262,-0.14409 0.0524,-0.22268 0.0655,-0.20959 0.19649,-0.37987 0.37987,-0.51086 0.18339,-0.11789 0.41917,-0.18339 0.68115,-0.18339 0.26198,0 0.48466,0.0655 0.66805,0.18339 0.18338,0.13099 0.31437,0.30127 0.39297,0.51086 0.0131,0.0786 0.0262,0.14409 0.0393,0.22268 0.0131,0.0786 0.0262,0.15719 0.0262,0.24888 0,0.0524 -0.0262,0.0786 -0.0786,0.0786 z"
         style="font-family:DINNextW01-Bold;-inkscape-font-specification:DINNextW01-Bold"
         id="path14129" />
      <path
         d="m 107.1895,180.41789 h 1.57188 c 0.0786,0 0.13099,-0.0393 0.13099,-0.13099 v -1.2968 c 0,-0.0786 -0.0524,-0.13099 -0.13099,-0.13099 h -1.57188 c -0.0917,0 -0.13099,0.0524 -0.13099,0.13099 v 1.2968 c 0,0.0917 0.0393,0.13099 0.13099,0.13099 z m 0,7.34854 h 1.57188 c 0.0786,0 0.13099,-0.0393 0.13099,-0.13099 v -6.07793 c 0,-0.0786 -0.0524,-0.13099 -0.13099,-0.13099 h -1.57188 c -0.0917,0 -0.13099,0.0524 -0.13099,0.13099 v 6.07793 c 0,0.0917 0.0393,0.13099 0.13099,0.13099 z"
         style="font-family:DINNextW01-Bold;-inkscape-font-specification:DINNextW01-Bold"
         id="path14131" />
    </g>
    <text
       xml:space="preserve"
       transform="scale(0.26458333)"
       id="text23238"
       style="fill:black;fill-opacity:1;line-height:1.25;stroke:none;font-family:sans-serif;font-style:normal;font-weight:normal;font-size:40px;white-space:pre;shape-inside:url(#rect23240)" />
    <text
       xml:space="preserve"
       transform="scale(0.26458333)"
       id="text29720"
       style="fill:black;fill-opacity:1;line-height:1.25;stroke:none;font-family:sans-serif;font-style:normal;font-weight:normal;font-size:40px;white-space:pre;shape-inside:url(#rect29722)" />
    <rect
       style="fill:#028600;fill-opacity:1;stroke:none;stroke-width:0.1;stroke-miterlimit:4;stroke-dasharray:none;stroke-opacity:1"
       id="rect42178"
       width="256.92487"
       height="57.470036"
       x="16.90295"
       y="63.855595"
       ry="7.1368017" />
    <g
       aria-label="1200定期票請洽各車站購買"
       id="text43612"
       style="font-size:17.5964px;line-height:1.25;letter-spacing:2.19956px;stroke-width:0.439911">
      <path
         d="m 23.780719,99.936562 v -2.111568 h 2.815424 v -8.217519 h -2.375514 v -1.618869 q 0.985398,-0.175964 1.689254,-0.422313 0.721453,-0.263946 1.337327,-0.668663 h 1.918007 v 10.927364 h 2.4459 v 2.111568 z"
         style="font-weight:bold;font-family:'Noto Sans TC';-inkscape-font-specification:'Noto Sans TC Bold';fill:#ffffff"
         id="path45200" />
      <path
         d="m 35.675864,99.936562 v -1.495694 q 1.777237,-1.583676 3.026581,-2.938599 1.266941,-1.354923 1.935604,-2.516285 0.668663,-1.178959 0.668663,-2.181954 0,-0.63347 -0.228753,-1.108573 -0.228753,-0.475103 -0.668663,-0.721452 -0.422314,-0.263946 -1.055784,-0.263946 -0.703856,0 -1.302134,0.404717 -0.580681,0.387121 -1.07338,0.932609 L 35.535093,88.65727 q 0.915013,-0.985399 1.865218,-1.478098 0.967802,-0.510295 2.287532,-0.510295 1.231748,0 2.146761,0.510295 0.932609,0.492699 1.442905,1.390116 0.510295,0.897416 0.510295,2.111568 0,1.178958 -0.598277,2.410706 -0.580681,1.214152 -1.56608,2.428303 -0.985398,1.214152 -2.181953,2.393111 0.510295,-0.07039 1.090976,-0.105579 0.598278,-0.05279 1.055784,-0.05279 h 2.815424 v 2.181954 z"
         style="font-weight:bold;font-family:'Noto Sans TC';-inkscape-font-specification:'Noto Sans TC Bold';fill:#ffffff"
         id="path45202" />
      <path
         d="m 52.691561,100.18291 q -1.319729,0 -2.322724,-0.756644 -0.985399,-0.774242 -1.548483,-2.287532 -0.545489,-1.530887 -0.545489,-3.783226 0,-2.234742 0.545489,-3.71284 0.563084,-1.495694 1.548483,-2.234743 1.002995,-0.739048 2.322724,-0.739048 1.337327,0 2.322725,0.756645 0.985399,0.739048 1.530887,2.217146 0.563085,1.478098 0.563085,3.71284 0,2.252339 -0.563085,3.783226 -0.545488,1.51329 -1.530887,2.287532 -0.985398,0.756644 -2.322725,0.756644 z m 0,-2.023585 q 0.580682,0 1.020592,-0.43991 0.43991,-0.43991 0.686259,-1.478097 0.24635,-1.055784 0.24635,-2.88581 0,-1.812429 -0.24635,-2.83302 -0.246349,-1.038188 -0.686259,-1.442905 -0.43991,-0.422313 -1.020592,-0.422313 -0.545488,0 -1.002994,0.422313 -0.43991,0.404717 -0.703856,1.442905 -0.263946,1.020591 -0.263946,2.83302 0,1.830026 0.263946,2.88581 0.263946,1.038187 0.703856,1.478097 0.457506,0.43991 1.002994,0.43991 z"
         style="font-weight:bold;font-family:'Noto Sans TC';-inkscape-font-specification:'Noto Sans TC Bold';fill:#ffffff"
         id="path45204" />
      <path
         d="m 65.272965,100.18291 q -1.31973,0 -2.322724,-0.756644 -0.985399,-0.774242 -1.548484,-2.287532 -0.545488,-1.530887 -0.545488,-3.783226 0,-2.234742 0.545488,-3.71284 0.563085,-1.495694 1.548484,-2.234743 1.002994,-0.739048 2.322724,-0.739048 1.337327,0 2.322725,0.756645 0.985398,0.739048 1.530887,2.217146 0.563084,1.478098 0.563084,3.71284 0,2.252339 -0.563084,3.783226 -0.545489,1.51329 -1.530887,2.287532 -0.985398,0.756644 -2.322725,0.756644 z m 0,-2.023585 q 0.580681,0 1.020591,-0.43991 0.43991,-0.43991 0.68626,-1.478097 0.24635,-1.055784 0.24635,-2.88581 0,-1.812429 -0.24635,-2.83302 -0.24635,-1.038188 -0.68626,-1.442905 -0.43991,-0.422313 -1.020591,-0.422313 -0.545488,0 -1.002995,0.422313 -0.43991,0.404717 -0.703856,1.442905 -0.263945,1.020591 -0.263945,2.83302 0,1.830026 0.263945,2.88581 0.263946,1.038187 0.703856,1.478097 0.457507,0.43991 1.002995,0.43991 z"
         style="font-weight:bold;font-family:'Noto Sans TC';-inkscape-font-specification:'Noto Sans TC Bold';fill:#ffffff"
         id="path45206" />
      <path
         d="m 76.58743,90.399313 h 9.730809 v 2.00599 H 76.58743 Z m 4.874203,4.117558 h 5.929986 v 1.988393 H 81.461633 Z M 80.35306,91.472694 h 2.199549 v 8.49906 L 80.35306,99.707808 Z m -4.135154,1.759639 2.14676,0.211157 q -0.351928,2.692249 -1.196555,4.751028 -0.844627,2.041182 -2.340321,3.343312 -0.158367,-0.19356 -0.475103,-0.4751 -0.316735,-0.26394 -0.651066,-0.52789 -0.334332,-0.26395 -0.580682,-0.40472 1.425309,-1.055782 2.146761,-2.833018 0.721453,-1.794833 0.950206,-4.064769 z m 1.70685,2.181954 q 0.404718,1.196555 1.055784,1.9532 0.668664,0.739049 1.530887,1.12617 0.87982,0.387121 1.918008,0.527892 1.038187,0.123175 2.19955,0.123175 0.281542,0 0.756645,0 0.492699,0 1.07338,0 0.598278,0 1.196555,0 0.615874,-0.0176 1.143766,-0.0176 0.545489,0 0.897417,-0.0176 -0.158368,0.246349 -0.316736,0.63347 -0.140771,0.387119 -0.263946,0.791839 -0.123174,0.40472 -0.175964,0.72145 h -0.897416 -3.51928 q -1.530887,0 -2.815424,-0.21116 -1.284537,-0.21115 -2.322724,-0.77424 -1.020592,-0.545485 -1.830026,-1.583673 -0.791838,-1.038187 -1.354923,-2.692249 z M 73.912777,86.84484 h 15.115307 v 4.434293 H 86.863727 V 88.85083 H 75.989153 v 2.428303 h -2.076376 z m 5.947583,-1.460501 2.111568,-0.580681 q 0.316735,0.563085 0.598278,1.231748 0.299139,0.668663 0.422313,1.178959 l -2.234742,0.668663 q -0.08798,-0.492699 -0.351928,-1.196555 -0.24635,-0.703856 -0.545489,-1.302134 z"
         style="font-weight:bold;font-family:'Noto Sans TC';-inkscape-font-specification:'Noto Sans TC Bold';fill:#ffffff"
         id="path45208" />
      <path
         d="m 103.28114,85.77146 h 4.53987 v 1.918008 h -4.53987 z m 0,3.976786 h 4.53987 v 1.865219 h -4.53987 z m -0.0176,4.029576 h 4.57506 v 1.882815 h -4.57506 z m 3.66005,-8.006362 h 2.02358 v 13.408456 q 0,0.774242 -0.17596,1.214154 -0.17596,0.4575 -0.63347,0.72145 -0.45751,0.24635 -1.16136,0.31674 -0.68626,0.0704 -1.67166,0.0528 -0.0528,-0.42231 -0.22875,-1.02059 -0.17597,-0.580678 -0.36953,-0.985395 0.56309,0.03519 1.10858,0.03519 0.56308,0 0.75664,0 0.19356,0 0.26395,-0.07039 0.088,-0.08798 0.088,-0.281542 z m -4.52228,0 h 1.9884 v 6.475475 q 0,1.038188 -0.0704,2.269936 -0.0528,1.231748 -0.24635,2.498688 -0.17596,1.249345 -0.51029,2.428303 -0.33434,1.178958 -0.91502,2.111568 -0.15836,-0.19356 -0.4751,-0.43991 -0.31673,-0.22875 -0.63347,-0.43991 -0.31673,-0.21116 -0.56308,-0.31673 0.66866,-1.143771 0.9678,-2.551483 0.29914,-1.407712 0.36952,-2.850616 0.088,-1.460502 0.088,-2.709846 z m -9.202913,1.284537 h 8.622233 v 1.847622 h -8.622233 z m 2.287532,2.88581 h 4.205539 v 1.601272 h -4.205539 z m 0,2.727442 h 4.205539 v 1.618868 h -4.205539 z m -2.498689,2.797827 h 8.71022 v 1.847622 h -8.71022 z m 1.583676,-10.276297 h 1.900411 v 10.94496 h -1.900411 z m 4.099961,0 h 1.935603 v 10.94496 h -1.935603 z m -3.501683,12.247094 2.005989,0.580681 q -0.492699,0.967802 -1.214151,1.918008 -0.721453,0.967798 -1.425309,1.618868 -0.175964,-0.19356 -0.492699,-0.42231 -0.299139,-0.22876 -0.63347,-0.45751 -0.316735,-0.22875 -0.563085,-0.36952 0.703856,-0.527896 1.31973,-1.302138 0.63347,-0.774241 1.002995,-1.566079 z m 2.621863,0.791838 1.601273,-0.87982 q 0.351928,0.369524 0.72145,0.844627 0.38712,0.457506 0.72145,0.915013 0.35193,0.43991 0.56309,0.809434 l -1.706852,0.985395 q -0.175964,-0.35192 -0.510295,-0.82703 -0.316735,-0.457504 -0.68626,-0.950203 -0.369524,-0.492699 -0.703856,-0.897416 z"
         style="font-weight:bold;font-family:'Noto Sans TC';-inkscape-font-specification:'Noto Sans TC Bold';fill:#ffffff"
         id="path45210" />
      <path
         d="m 123.28822,98.440868 1.54849,-1.038188 q 0.68625,0.334332 1.4429,0.809434 0.75664,0.475103 1.4605,0.950206 0.70386,0.475103 1.17896,0.89742 l -1.68925,1.17896 q -0.40472,-0.40472 -1.07339,-0.89742 -0.65106,-0.4927 -1.40771,-0.9854 -0.75664,-0.510295 -1.4605,-0.915012 z m -8.09434,-5.226131 h 11.7368 v 1.601272 h -11.7368 z m -2.09397,2.340321 h 15.95993 v 1.654062 h -15.95993 z m 0.24635,-9.994755 h 15.36165 v 1.671658 h -15.36165 z m 3.23773,11.789588 1.93561,0.668663 q -0.4927,0.615874 -1.16136,1.231748 -0.66867,0.598278 -1.39012,1.108578 -0.72145,0.52789 -1.40771,0.89741 -0.17597,-0.19356 -0.45751,-0.4575 -0.28154,-0.26395 -0.58068,-0.5279 -0.29914,-0.24635 -0.52789,-0.404714 1.03819,-0.457506 2.00599,-1.12617 0.9854,-0.668663 1.58367,-1.390115 z m -0.26394,-7.689627 v 1.31973 h 9.36128 v -1.31973 z m -1.9532,-1.495694 h 13.40845 v 4.328715 h -13.40845 z m 3.73043,-1.9532 h 1.93561 v 5.666041 h -1.93561 z m 3.76563,0 h 1.9884 v 5.666041 h -1.9884 z m -1.88281,9.766002 h 2.09397 v 5.560458 h -2.09397 z"
         style="font-weight:bold;font-family:'Noto Sans TC';-inkscape-font-specification:'Noto Sans TC Bold';fill:#ffffff"
         id="path45212" />
      <path
         d="m 139.30093,86.281756 h 9.55484 v 1.495694 h -9.55484 z m 0.4399,2.19955 h 8.76301 v 1.407712 h -8.76301 z m -0.70385,2.164357 h 10.04754 v 1.51329 h -10.04754 z m 3.924,-5.666041 h 2.04118 v 6.510668 h -2.04118 z m 3.32572,7.91838 h 1.97079 v 6.704228 q 0,0.66866 -0.17596,1.03819 -0.15837,0.36952 -0.59828,0.58068 -0.43991,0.19356 -1.07338,0.24635 -0.63347,0.0528 -1.4781,0.0352 -0.0704,-0.38712 -0.22875,-0.86222 -0.15837,-0.45751 -0.31674,-0.809437 0.4927,0.0176 0.96781,0.0176 0.4751,0 0.65106,0 0.15837,0 0.21116,-0.05279 0.0704,-0.07039 0.0704,-0.211156 z m -5.31412,2.357917 h 6.14115 v 1.37252 h -6.14115 z m 0,2.217147 h 6.14115 v 1.372519 h -6.14115 z m -1.10857,-4.575064 h 1.90041 v 3.184948 q 0,0.862224 -0.12317,1.882815 -0.10558,1.020591 -0.45751,1.988393 -0.33433,0.967802 -0.9854,1.706852 -0.14077,-0.19356 -0.42231,-0.45751 -0.28154,-0.26394 -0.56309,-0.52789 -0.28154,-0.24635 -0.4927,-0.35193 0.5279,-0.633468 0.77425,-1.35492 0.24634,-0.739049 0.29913,-1.495694 0.0704,-0.756645 0.0704,-1.425309 z m 1.16136,0 h 5.80681 v 1.548483 h -5.80681 z m -7.84799,-2.604267 h 5.29651 v 1.601272 h -5.29651 z m 1.00299,4.891799 h 4.29352 v 5.366906 h -4.29352 v -1.671662 h 2.4811 v -2.023586 h -2.4811 z m -1.02059,0 h 1.77724 v 6.053166 h -1.77724 z m 0,-2.481093 h 5.31411 v 1.601273 h -5.31411 z m -0.4575,-4.839009 h 6.24672 v 1.671658 h -6.24672 z m 1.84762,-2.305129 1.79483,-0.527892 q 0.26395,0.563085 0.52789,1.231748 0.26395,0.651067 0.40472,1.143766 l -1.86522,0.615874 q -0.10558,-0.492699 -0.36952,-1.178959 -0.24635,-0.703855 -0.4927,-1.284537 z"
         style="font-weight:bold;font-family:'Noto Sans TC';-inkscape-font-specification:'Noto Sans TC Bold';fill:#ffffff"
         id="path45214" />
      <path
         d="m 153.5012,86.563298 1.24934,-1.460501 q 0.56309,0.263946 1.21415,0.63347 0.65107,0.369525 1.23175,0.756646 0.59828,0.369524 0.9854,0.703855 l -1.33733,1.654062 q -0.33433,-0.334332 -0.91501,-0.739049 -0.56308,-0.422313 -1.21415,-0.827031 -0.63347,-0.404717 -1.21415,-0.721452 z m -1.03819,5.050167 1.19656,-1.495694 q 0.51029,0.228753 1.10857,0.563085 0.61587,0.316735 1.17896,0.668663 0.56308,0.334331 0.91501,0.63347 l -1.26694,1.671658 q -0.31673,-0.299139 -0.86222,-0.668663 -0.54549,-0.369525 -1.14377,-0.739049 -0.59828,-0.369524 -1.12617,-0.63347 z m 0.61588,8.270307 q 0.4751,-0.668663 1.05578,-1.566079 0.58068,-0.915013 1.17896,-1.935604 0.59828,-1.038188 1.10857,-2.058779 l 1.54848,1.407712 q -0.4575,0.915013 -0.98539,1.882815 -0.5103,0.967802 -1.05579,1.900411 -0.52789,0.932612 -1.05578,1.794832 z m 6.86259,-9.18532 h 6.08836 v 1.918007 h -6.08836 z m 0.088,8.129536 h 5.91239 v 1.865222 h -5.91239 z m -1.19655,-4.803817 h 8.23511 v 7.496069 h -2.21714 v -5.648447 h -3.9064 v 5.666037 h -2.11157 z m 4.8742,-8.411078 q 0.58068,0.985398 1.4605,1.988393 0.87982,1.002994 1.90041,1.865218 1.02059,0.862224 2.02359,1.442905 -0.24635,0.211157 -0.54549,0.527892 -0.29914,0.299139 -0.58068,0.63347 -0.26395,0.316735 -0.43991,0.598278 -0.9854,-0.721453 -2.00599,-1.75964 -1.003,-1.038188 -1.90041,-2.217147 -0.89742,-1.196555 -1.54848,-2.410706 z m -1.42531,-0.668664 2.05878,0.633471 q -0.93261,2.305128 -2.46349,4.187943 -1.5133,1.865218 -3.55448,3.132159 -0.15837,-0.228753 -0.42231,-0.545489 -0.26395,-0.316735 -0.56309,-0.615873 -0.28154,-0.316736 -0.51029,-0.4927 1.23175,-0.703856 2.28753,-1.689254 1.05578,-1.002995 1.86522,-2.181954 0.82703,-1.178958 1.30213,-2.428303 z"
         style="font-weight:bold;font-family:'Noto Sans TC';-inkscape-font-specification:'Noto Sans TC Bold';fill:#ffffff"
         id="path45216" />
      <path
         d="m 176.20052,99.021549 h 8.83339 v 1.865221 h -8.83339 z m 1.84762,-14.217891 2.00599,0.68626 q -0.73905,1.249344 -1.72445,2.39311 -0.9678,1.143766 -2.09397,2.093972 -1.12617,0.950205 -2.25234,1.654061 -0.15837,-0.211157 -0.4575,-0.510295 -0.28155,-0.299139 -0.58069,-0.598278 -0.29913,-0.299139 -0.52789,-0.457506 1.12617,-0.598278 2.18196,-1.407712 1.05578,-0.827031 1.9356,-1.81243 0.89742,-0.985398 1.51329,-2.041182 z m 6.40509,1.865219 h 0.43991 l 0.35193,-0.105579 1.51329,0.985398 q -1.003,1.601273 -2.48109,2.88581 -1.4781,1.284537 -3.30813,2.269935 -1.83002,0.985399 -3.83601,1.689255 -2.00599,0.686259 -4.02958,1.126169 -0.10558,-0.281542 -0.28154,-0.63347 -0.17596,-0.351928 -0.36952,-0.68626 -0.19356,-0.334331 -0.38713,-0.563084 1.4957,-0.263946 2.99139,-0.703856 1.51329,-0.457507 2.921,-1.055784 1.42531,-0.598278 2.65706,-1.337327 1.24935,-0.756645 2.21715,-1.636465 0.9854,-0.897416 1.60127,-1.900411 z m -7.3201,1.002994 q 0.84462,1.073381 2.07637,2.00599 1.24935,0.915013 2.78023,1.654061 1.53089,0.739049 3.29053,1.284537 1.75964,0.527892 3.66005,0.827031 -0.22875,0.228753 -0.4927,0.598278 -0.26394,0.351928 -0.4927,0.721452 -0.22875,0.369525 -0.38712,0.651067 -1.91801,-0.369524 -3.69524,-1.002995 -1.75964,-0.63347 -3.32572,-1.495694 -1.54848,-0.87982 -2.85062,-1.988393 -1.30213,-1.108573 -2.32272,-2.428303 z m -2.02359,7.23212 h 10.80419 v 6.563459 h -2.25234 v -4.645451 h -6.40509 v 4.715831 h -2.14676 z m 2.86821,-8.235114 h 6.95058 v 1.830025 h -8.21752 z"
         style="font-weight:bold;font-family:'Noto Sans TC';-inkscape-font-specification:'Noto Sans TC Bold';fill:#ffffff"
         id="path45218" />
      <path
         d="m 192.67073,86.440123 h 15.11531 v 1.900411 h -15.11531 z m -0.43991,10.804189 h 16.08311 v 1.918008 h -16.08311 z m 6.845,-12.247093 h 2.18195 v 16.540611 h -2.18195 z m -3.04418,8.534253 v 1.073381 h 8.3055 v -1.073381 z m 0,-2.63946 v 1.055784 h 8.3055 v -1.055784 z m -2.04118,-1.70685 h 12.47585 v 7.126541 h -12.47585 z"
         style="font-weight:bold;font-family:'Noto Sans TC';-inkscape-font-specification:'Noto Sans TC Bold';fill:#ffffff"
         id="path45220" />
      <path
         d="m 212.07954,88.076588 h 7.07375 v 1.935604 h -7.07375 z m -0.14077,9.766002 q 0.87981,-0.158368 1.98839,-0.387121 1.12617,-0.228753 2.37551,-0.492699 1.24935,-0.281542 2.4635,-0.545488 l 0.21115,1.9532 q -1.70685,0.404717 -3.44889,0.827031 -1.72445,0.404717 -3.13216,0.721452 z m 0.72145,-6.897788 1.63646,-0.299139 q 0.19356,0.932609 0.35193,1.970796 0.15837,1.038188 0.26395,2.041183 0.12317,1.002995 0.17596,1.812429 l -1.72445,0.351928 q -0.0352,-0.809434 -0.14077,-1.812429 -0.088,-1.020591 -0.24635,-2.076375 -0.14077,-1.073381 -0.31673,-1.988393 z m 3.92399,-0.43991 1.9532,0.316735 q -0.14077,0.862223 -0.31673,1.777236 -0.15837,0.915013 -0.35193,1.812429 -0.19356,0.897417 -0.38712,1.706851 -0.17596,0.791838 -0.36952,1.425308 l -1.54849,-0.334331 q 0.17597,-0.668663 0.33433,-1.495694 0.15837,-0.827031 0.28155,-1.742044 0.12317,-0.915013 0.22875,-1.794833 0.12318,-0.897416 0.17596,-1.671657 z m -2.53388,-4.926992 1.83003,-0.510296 q 0.35193,0.598278 0.66866,1.31973 0.31674,0.703856 0.4751,1.214152 l -1.90041,0.63347 q -0.14077,-0.545488 -0.43991,-1.284537 -0.29914,-0.756645 -0.63347,-1.372519 z m 9.11494,2.63946 h 5.10295 v 2.023586 h -5.10295 z m -2.9386,10.487454 h 6.29951 v 1.953196 h -6.29951 z m 1.77724,-13.742788 h 2.16435 v 9.167724 h -2.16435 z m -2.72745,8.3055 h 8.39349 v 8.164734 h -2.16436 v -6.193937 h -4.17035 v 6.264317 h -2.05878 z"
         style="font-weight:bold;font-family:'Noto Sans TC';-inkscape-font-specification:'Noto Sans TC Bold';fill:#ffffff"
         id="path45222" />
      <path
         d="m 238.35094,86.352141 h 9.34369 v 1.478098 h -9.34369 z m -0.28154,4.240733 h 9.95956 v 1.478097 h -9.95956 z m -0.088,6.581053 h 10.06514 v 1.495694 h -10.06514 z m 0.79183,-8.692621 h 8.65743 v 1.407712 h -8.65743 z m 1.4957,-3.484087 h 1.83002 v 6.246721 h -1.83002 z m 3.64245,0 h 1.86522 v 6.246721 h -1.86522 z m -1.81243,6.281914 h 1.83003 v 6.317107 h -1.83003 z m 3.20255,1.460501 h 1.91801 v 6.862596 q 0,0.65107 -0.15837,1.02059 -0.14077,0.38712 -0.58068,0.59828 -0.45751,0.21116 -1.09098,0.24635 -0.61587,0.0528 -1.49569,0.0528 -0.0528,-0.38712 -0.21116,-0.86223 -0.15837,-0.4751 -0.33433,-0.827027 0.51029,0.0176 1.00299,0.0176 0.5103,0 0.66867,0 0.15836,0 0.21115,-0.05279 0.0704,-0.07039 0.0704,-0.211156 z m -6.3875,0 h 7.21453 v 1.478098 h -5.33171 v 7.320098 h -1.88282 z m 0.93261,2.269936 h 6.26432 v 1.31973 h -6.26432 z m -6.63384,2.164357 1.83003,0.422313 q -0.33433,1.108574 -0.89742,2.181954 -0.56308,1.055786 -1.19655,1.777236 -0.15837,-0.15837 -0.45751,-0.35193 -0.29914,-0.19356 -0.59828,-0.38712 -0.29914,-0.19356 -0.51029,-0.29914 0.59827,-0.633468 1.07338,-1.530884 0.4927,-0.897416 0.75664,-1.812429 z m 2.05878,0.63347 1.56608,-0.668663 q 0.43991,0.668663 0.86222,1.478098 0.43991,0.791838 0.66867,1.390118 l -1.63647,0.77424 q -0.12317,-0.40472 -0.36952,-0.915014 -0.22876,-0.527892 -0.5103,-1.055784 -0.28154,-0.545488 -0.58068,-1.002995 z M 234.163,90.504892 v 1.654061 h 1.74204 v -1.654061 z m 0,3.202544 v 1.654062 h 1.74204 v -1.654062 z m 0,-6.387493 v 1.618869 h 1.74204 v -1.618869 z m -1.79484,-1.671658 h 5.3845 v 11.402467 h -5.3845 z"
         style="font-weight:bold;font-family:'Noto Sans TC';-inkscape-font-specification:'Noto Sans TC Bold';fill:#ffffff"
         id="path45224" />
      <path
         d="m 262.40518,87.28475 v 1.214152 h 2.21715 V 87.28475 Z m -3.9064,0 v 1.214152 h 2.14676 V 87.28475 Z m -3.85361,0 v 1.214152 h 2.09397 V 87.28475 Z m -1.9532,-1.566079 h 13.98914 v 4.346311 h -13.98914 z m 3.07937,8.516657 v 0.862224 h 7.72482 v -0.862224 z m 0,2.111568 v 0.87982 h 7.72482 v -0.87982 z m 0,-4.205539 v 0.844627 h 7.72482 v -0.844627 z m -2.12916,-1.337327 h 12.07113 v 7.742416 h -12.07113 z m 6.96817,8.675025 1.68925,-1.07338 q 0.9854,0.316735 2.00599,0.686259 1.03819,0.369525 1.9708,0.739049 0.93261,0.351927 1.60127,0.651067 l -2.28753,1.05578 q -0.54549,-0.29913 -1.35492,-0.65106 -0.79184,-0.35193 -1.72445,-0.72146 -0.93261,-0.36952 -1.90041,-0.686255 z m -3.8888,-1.090977 1.918,0.862224 q -0.72145,0.475103 -1.68925,0.915008 -0.9678,0.43991 -2.00599,0.79184 -1.02059,0.36953 -1.9356,0.63347 -0.17597,-0.22875 -0.45751,-0.52789 -0.28154,-0.28154 -0.58068,-0.56308 -0.29914,-0.28155 -0.52789,-0.45751 0.9502,-0.175964 1.9356,-0.422314 0.9854,-0.263946 1.84762,-0.580681 0.87982,-0.316735 1.4957,-0.651067 z"
         style="font-weight:bold;font-family:'Noto Sans TC';-inkscape-font-specification:'Noto Sans TC Bold';fill:#ffffff"
         id="path45226" />
    </g>
  </g>
  <style
     type="text/css"
     id="style11899">
	.st0{fill:#38B035;}
	.st1{fill:#007AB0;}
</style>
</svg>
